<svg xmlns="http://www.w3.org/2000/svg" viewBox="0 0 368.61 313.98" xmlns:xlink="http://www.w3.org/1999/xlink">
<defs>
<linearGradient id="linearGradient4048">
<stop offset="0" stop-color="#853c00" stop-opacity=".743"/>
<stop offset="1" stop-color="#5e0000" stop-opacity="0"/>
</linearGradient>
<linearGradient gradientTransform="matrix(1.7276 0 0 .57885 -4.7948 -33.214)" id="linearGradient4051" xlink:href="#linearGradient4048" y1="136.87" y2="212.47" x1="115.32" gradientUnits="userSpaceOnUse" x2="76.511"/>
<linearGradient gradientTransform="matrix(2.0423 0 0 .48963 -4.7948 -33.214)" id="linearGradient4056" xlink:href="#linearGradient4048" x1="127.92" gradientUnits="userSpaceOnUse" x2="53.731"/>
</defs>
<g fill-rule="evenodd">
<g fill="#eab033">
<path d="m185.31,0c-25.71,2.9541-52.07,4.6056-76.29,14.528-17.647,4.923-35.756,10.099-50.529,21.436-12.838,8.009-27.014,16.281-33.66,30.591-1.916,10.515-5.408,24.32 4.26,32.12 17.76,9.295 38.511,6.095 57.73,8.645 55.419,2.86 110.96,1.4 166.38,4.28 34.32,.34 68.66-1.99 102.95,.06 .73-19.238-10.33-35.92-16.48-53.449-6.11-11.324-18.96-16.032-28.16-24.331-11.49-8.801-25.29-13.647-39.36-16.358-28.62-7.352-57.67-12.912-86.84-17.522z"/>
<path d="m351.16,232.58c-15.4,6.68-30.57,15.42-47.78,16-26.44,4.36-53.05,8.66-79.93,8.33-35.72,1.63-71.62,.55-107.14-3.63-19.227-2.89-38.476-6.04-57.489-10.01-17.681-5.03-35.38-10.02-52.892-15.62 .8774,14.31 .6171,30.66 11.305,41.68 6.193,15.32 24.166,17.79 37.334,24.28 20.131,9.58 42.99,8.97 64.312,14.18 27,4.61 54.51,5.09 81.83,5.11 20.82-.67 41.72-1.8 62.41-3.81 20.44-5.35 42.93-5.49 61.17-17.28 9.48-4.82 23.66-7.72 25.51-20.2 1.62-10.96 5.01-22.09 2.59-33.31-.32-1.93-.73-3.84-1.23-5.72z"/>
</g>
<g>
<path fill="#c34b00" d="m9.3713,229.79l-3.9047-4.7-1.5619-19.56 10.152-3.91-.781-7.05 26.552,4.7 57.009,3.13 11.713-2.35 14.84,10.96 26.55,1.56 35.92,3.13 46.08-3.13 24.99-7.82 32.8-.79 48.42-.78 17.96-3.91 6.25,7.82 1.56,14.09-10.15,14.87-40.61,14.08-65.6,10.17h-55.45l-54.66-3.13-57.013-7.04-21.085-4.69-49.981-15.65z"/>
</g>
<g fill="#eeeee0">
<path d="m14.057,194.59l-3.905-12.58 2.343-17.81 28.895,18.86 38.266,5.24 32.014,2.1-.78,11.52-16.396,3.15-31.238-2.1-31.237-5.24-17.962-3.14z"/>
<path d="m112.54,185.65l-1.65,16.46 10.7,9.26 37.84,5.15 39.49,2.05 31.26-2.05 26.32-10.29v-19.55l-28.79,1.02-37.02,2.06-31.26-1.03-29.62-1.03-17.27-2.05z"/>
<path d="m248.34,188.94l.78,14.97 27.33,.94 41.39,1.87 31.24-4.68 8.59-3.74 3.91-18.71-15.62,5.61-28.9,2.81h-28.11l-24.21,.93-10.93-1.87-2.35-.93-3.12,2.8z"/>
</g>
<g fill="#eb3d33">
<path d="m12.495,166.6l1.562-26.08 47.638,14.9 57.785,4.66 53.11-.93 8.59,1.86 .78,22.35v5.59l-41.39,.93-26.55-3.73-3.91,3.73-38.263-2.79-31.238-.94-28.114-19.55z"/>
<path d="m177.92,165.36l44.87,16.96 17.63,5.08 9.62,1.7h84.93l25.64-6.78 7.21-11.02-7.21-23.73-22.43,12.71-25.64,2.54-31.25-.85-19.23-4.23-38.46-2.55-22.44-8.47-16.03-2.55-11.21,15.26 8.01,7.63-4.01-1.7z"/>
</g>
<g>
<path fill="#ba3d33" d="m181.18,166.98v22.7h43.73l24.21-2.35-34.36-10.96-22.65-7.82-10.93-1.57z"/>
<path fill="url(#linearGradient4051)" d="m185.58,1.3797c-24.47,3.0303-49.64,4.1-72.8,13.41-19.545,5.603-39.753,11.169-56.025,23.987-13.397,8.742-30.88,17.532-33.154,35.256-1.902,10.718-.498,25.779 11.569,29.747 60.211,9.02 121.38,5.17 182.01,8.17 42.54,2.18 85.14-.36 127.68,.66 7.79,2.9 16.06-2.5 10.64-10.77-4.32-16.681-10.35-33.057-19.34-47.807-11.96-10.397-25.04-19.679-38.82-27.408-36.07-12.812-74.2-18.659-111.76-25.245z"/>
<path fill-opacity=".525" d="m351.42,235.26l-39.82,14.87-59.36,7.83-53.1,1.56 76.53,1.57 53.11-10.18 17.96-3.13 2.34,18.78-1.56,10.18 6.25-25.83-2.35-15.65z"/>
<path fill="url(#linearGradient4056)" d="m351.5,233.66c-17.41,8.6-35.48,16.11-55.1,17.17-47.28,8.66-95.64,8.95-143.51,6.66-35.17-1.85-70.29-7.37-104.35-16.16-13.185-1.94-33.582-13.27-42.109-9.93-.6605,17.93 5.142,35.61 17.758,48.41 16.579,10.71 35.88,17.9 55.093,22.35 33.358,5.41 66.638,12.06 100.6,11.69 28.47,.6 57.15-.94 85.36-4.12 21.49-4.73 44.31-6.47 63.28-18.63 22.95-4.12 25.79-29.17 24.66-48.33-.32-3.07-.89-6.12-1.68-9.11z"/>
<path fill-opacity=".356" d="m5.7947,227.87l4.2373,30.66 23.308,27.43-14.832-30.66 4.238-16.13 80.514,12.9-97.465-24.2z"/>
<path fill-opacity=".456" d="m48.403,245.36l42.311,9.86 60.026,8.87 67.89,1.97 46.25-5.91-32.47-.99h-48.22l-72.81-5.91-50.185-7.89h-12.792z"/>
<path fill-opacity=".531" d="m5.1074,205.92l2.9519,19.72 48.216,17.75 13.776,3.94-6.888-23.66 18.696,.98 30.501,2.96 7.87,6.9 3.94,15.78 3.94,3.94h9.84v-16.76l8.85-10.84 23.62,3.94 1.97,6.9 19.68-2.96 17.71-1.97 1.97,11.83-1.97,9.86-.99,3.95h15.75l-.99-17.75 8.86-7.89 1.97,2.96h5.9l5.9-3.94 9.84,9.85 3.94,9.86 6.89,4.93 42.31-4.93 35.42-12.81 5.91-3.95 10.82-16.76-.98-12.81-3.94-3.95-18.69,2.96-18.7,.99-61.01-.99-25.58,8.87-47.23,3.95-63.96-4.93-12.79-12.82-9.844,3.94-62.975-1.97-21.648-5.91 .984,6.9-9.8396,3.94z"/>
</g>
<g fill-opacity=".422">
<path d="m111.38,191.13l-1.97,7.89-12.792,2.96h-33.455l31.487-1.97 7.87-7.89-2.95-.99-10.824-2.96 22.634,2.96z"/>
<path d="m257.99,191.13l1.97,10.85-14.76,5.91-13.78,5.92-17.71,.98 27.55-6.9 9.84-8.87-1.96-8.87h-6.89l15.74,.98z"/>
<path d="m362.3,183.24l.98,8.88-3.94,7.89-16.72,3.94-30.51,.99 37.39-4.93 6.89-2.96-.98-6.9-6.89-2.96-1.97-.99 5.91-1.97 9.84-.99z"/>
<path d="m13.963,171.41l-1.968,8.88 1.968,13.8 15.744,3.94s-3.936-1.97-7.872-6.9-4.92-7.89-4.92-7.89l-2.952-11.83z"/>
</g>
<g fill-opacity=".25">
<path d="m12.979,150.71l.984,18.73 26.568,18.73 15.744-1.97-12.792-9.86-5.904-14.79-4.92-6.9-9.84,.99-9.84-4.93z"/>
<path d="m85.795,166.48l23.615,3.95 22.63,.98 26.57,1.98 11.81,2.95 9.84,10.85 .98-20.71-12.79-2.95-38.38,.98-39.356-.98-4.919,2.95z"/>
</g>
<g>
<path fill="#4fbe33" d="m23.428,93.634l-6.247-5.478-7.8097,.783 6.2477,10.955-11.714,1.566 2.3426,7.04 5.4664,.78-6.2474,6.26-5.4666,4.7 4.6857,3.13 7.0283,.78-5.4664,10.17-5.4667,5.48c0,0 .781,5.48 3.9048,5.48h12.495l-1.562,7.82 6.247,3.92 9.372-3.92 7.809,9.39 2.343,.79 11.714-6.26 10.152,7.04 12.496,.78 20.304,1.57 7.024-8.61 4.69,12.52 5.47-10.17 14.05,4.69 4.69,3.13s16.4-4.69 19.52-4.69c3.13,0 15.62,1.56 15.62,1.56l2.34,9.39 12.5-10.17 9.37-10.96 19.52,9.39 3.91-9.39 7.03,10.18 11.71,2.34 7.81-3.13 8.59,14.09s15.62,14.86 17.96,11.73c2.35-3.13 16.4-17.21 16.4-17.21l16.4,3.13 7.03-4.69 16.4,3.13 7.81-3.92 7.81-3.91 13.28,5.48 3.9-10.96 4.69-4.69s7.03,1.56 7.03-2.35-.79-10.95-.79-10.95-5.46-.79-5.46-3.92 3.9-10.95 3.9-10.95l-3.12-7.04 2.34-7.83-7.81-1.56s-65.6-1.57-68.72-.79c-3.12,.79-99.18-.78-99.18-.78h-86.69l-35.138-2.35-30.457-3.91-14.057-8.606z"/>
<path fill-opacity=".362" d="m339.66,166.48l8.86,4.93-4.92,5.92-12.79,7.89-3.94,2.95 19.68-3.94 14.76-3.94 4.92-9.86-3.93-15.78-5.91,5.92-2.95,8.87-13.78-2.96z"/>
<path fill-opacity=".216" d="m181.24,167.47l-.98,19.72h11.81l23.61,1.97h12.79l-15.74-7.89-10.82-7.88-7.88-5.92-7.87-4.93h-3.93l-.99,4.93z"/>
</g>
<g fill-opacity=".287">
<path d="m24.787,92.538v-28.592l19.68-16.761 19.68-13.803-19.68,20.705-8.856,17.746 6.888,19.719 12.792,7.888 23.616,4.93 21.643,3.94h-35.419l-23.616-2.95-10.824-5.92-5.904-6.902z"/>
<path d="m330.81,48.171l5.9,12.817 7.87,21.691v13.803l-3.93,10.848-10.83,2.95h29.52l-5.9-18.728-7.87-19.719-8.86-19.718-5.9-3.944z"/>
</g>
<g>
<path fill-opacity=".469" d="m77.923,110.28l22.627,4.93 30.51,2.96 22.63-1.97 3.94,9.86 7.87-8.87 6.89-.99 11.8,5.92 13.78-7.89 7.87-2.96 9.84,9.86 9.84-6.9 8.86-.99 19.68,5.92 15.74-4.93s3.94,.98 6.89,4.93c2.95,3.94 8.85,13.8 8.85,13.8l1.97-9.86 10.83-3.94 1.96,11.83 4.92,16.76-.98-14.79 3.94-7.89v-9.86l8.85,.99 7.87-1.97 9.84-.99 6.89,3.95 5.91-3.95 7.87-1.97h2.95l-58.06-.99-84.62-1.97-83.64-.98-47.229-.99-24.6-.98-15.744-.99-11.808-4.93-8.856-7.888-.984,6.902-3.936,2.956 11.808,1.97 2.952,12.82 13.776-2.96 4.92,2.96 3.936-1.97 6.888,3.94 1.968,7.89 4.92-5.92 3.936-2.95 1.968,2.95 1.968-9.86z"/>
</g>
<g fill-opacity=".287">
<path d="m36.595,126.06l-5.904,5.92-1.968,10.84-5.904,4.93 17.712-.99 2.952-8.87 5.904,8.87 5.904-9.85-2.952-8.88-15.744-1.97z"/>
<path d="m91.698,136.91l-1.968,9.85 5.904,8.88 3.936-9.86 6.89,4.93 4.92-4.93 9.84,7.89-8.86-19.72-9.84-10.85-9.838-4.93-7.871-.98 7.871,9.86-.984,9.86z"/>
<path d="m170.42,144.79l-.99,10.85 2.96,10.84 6.88-8.87 6.89-10.85 5.91,3.95 7.87,4.93 7.87,2.96 3.94-2.96 .98-3.95-13.78-10.84-10.82-11.83-13.78-1.97 2.96,7.88-2.96,8.88-9.84-2.96 5.91,3.94z"/>
</g>
<g>
<path fill-opacity=".409" d="m247.17,138.88v13.8l12.79,3.94-3.94,6.91 2.96,9.86 1.96,6.9 4.92-10.85 4.92-10.84 8.86,1.97 1.97-15.78 6.89-6.9-11.81,2.96-4.92,6.9-11.81-11.83-.98-7.89-9.84-.98 5.9,6.9-.98,5.91-6.89-.98z"/>
</g>
<g fill-opacity=".459">
<path d="m322.94,135.92l9.84-4.93 6.88,7.89 6.89-9.86 10.83-7.89-2.96,9.86 1.97,2.96-2.95,8.87-4.92,1.97 3.94,9.86-1.97,10.85-8.86-13.81-8.85-.98-1.97,7.89-7.87,1.97-5.91,3.94-8.85-1.97h-12.8l-10.82,6.9 2.95-10.84 10.83-2.96h11.8l5.91-8.88-3.94-5.91-.98-9.86 5.9,3.94 2.95-9.86 2.96,10.85z"/>
<path d="m86.778,125.07l-6.887-1.97-8.856,2.96-3.936,7.89h-5.904l-3.936,4.93v8.87l4.92,2.96-1.968,7.89 8.856,.98 6.888-5.91 3.936,5.91 5.904-3.94 5.903,6.9-1.968-13.8-2.952-4.93 2.952-7.89v-5.92l-2.952-4.93z"/>
</g>
<g>
<path fill-opacity=".487" d="m24.787,114.23l-8.856-1.97-6.8877,3.94-1.9679,1.97 6.8876,2.96 4.92,.99-2.952,6.9-3.936,4.93-.984,5.91 10.824-1.97 4.92-7.89 1.968-7.88-3.936-7.89z"/>
<path fill-opacity=".287" d="m153.69,129.02l-7.87-7.89-12.79,1.97-21.65-1.97h-5.91l13.78,10.85 .98,9.86 4.92,9.85 4.92,6.91-.98,3.94 3.94-7.89 5.9,5.92 6.89-6.9 .98-6.91 5.91,8.88 4.92-2.96 9.84,12.82-.99-13.81-4.92-10.84-1.97-3.94 5.91-2.96 2.95-6.9-6.89,1.97h-7.87z"/>
<path fill-opacity=".447" d="m196.99,125.07l2.95-6.9 3.93,4.93 3.94-1.97 4.92,5.92 7.87-1.98 7.87-3.94h11.81l6.89,8.87-8.86-.98-2.95,7.89 3.94,7.88-1.97,7.89v5.92l-8.86,.98-5.9-3.94-3.94-11.83-7.87,.98-6.89-7.88-5.9-4.93-.98-6.91z"/>
</g>
<g fill-opacity=".287">
<path d="m299.32,144.79l-.98-7.88-2.96-8.88-4.92,1.97 .99,8.88-3.94,6.9-2.95,6.9 .98,3.94 6.89-2.95 3.94-2.96 2.95-5.92z"/>
<path d="m277.67,130l-2.95-5.91-5.9-3.95-4.92,.99 2.95,8.87 .98,5.92 .99,2.96 6.88-3.95 1.97-4.93z"/>
</g>
<g>
<path fill-opacity=".456" d="m325.89,120.14l.98,5.92 11.81,1.97 5.9-2.96 12.8-7.88-15.75,.98-5.9,.99-3.94-.99-5.9,1.97z"/>
<path fill-opacity=".287" d="m280.62,167.47l-6.88-3.94-3.94,4.93-2.95,6.9-2.95,7.88 4.92-1.97 8.85-6.9 2.95-6.9z"/>
<path fill-opacity=".438" d="m247.17,158.6l-.99,7.88 6.89,6.91-.98-7.89 .98-6.9h-5.9z"/>
</g>
<g fill="#fff" fill-opacity=".444">
<path d="m164.37,15.395l-7.34,2.855 1.47,3.568 5.87-.714v-5.709z"/>
<path d="m173.19,22.174l-7.35,2.855 1.47,3.568 5.88-.714v-5.709z"/>
<path d="m176.12,15.039l-7.34,2.854 1.47,3.568 5.87-.714v-5.708z"/>
<path d="m185.67,20.747l-7.34,2.854 1.46,3.568 5.88-.713v-5.709z"/>
<path d="m149.32,28.24l-7.35,2.854 1.47,3.568 5.88-.714v-5.708z"/>
<path d="m197.05,61.421l-7.34,2.854 1.47,3.568 5.87-.713v-5.709z"/>
<path d="m184.57,42.868l-7.35,2.854 1.47,3.568 5.88-.713v-5.709z"/>
<path d="m170.61,33.592l-7.34,2.854 1.47,3.568 5.87-.714v-5.708z"/>
<path d="m186.04,33.235l-7.35,2.854 1.47,3.568 5.88-.714v-5.708z"/>
<path d="m202.93,37.159l-7.35,2.855 1.47,3.568 5.88-.714v-5.709z"/>
<path d="m202.93,23.601l-7.35,2.855 1.47,3.568 5.88-.714v-5.709z"/>
<path d="m207.33,29.31l-7.34,2.854 1.47,3.568 5.87-.713v-5.709z"/>
<path d="m200.72,16.822l-7.34,2.855 1.47,3.568 5.87-.714v-5.709z"/>
<path d="m196.32,24.315l-7.35,2.854 1.47,3.568 5.88-.713v-5.709z"/>
<path d="m190.44,12.184l-7.34,2.855 1.47,3.567 5.87-.713v-5.709z"/>
<path d="m208.07,22.888l-7.35,2.854 1.47,3.568 5.88-.713v-5.709z"/>
<path d="m219.82,34.662l-7.35,2.854 1.47,3.568 5.88-.713v-5.709z"/>
<path d="m215.41,29.31l-7.34,2.854 1.47,3.568 5.87-.713v-5.709z"/>
<path d="m216.88,25.029l-7.34,2.854 1.47,3.568 5.87-.714v-5.708z"/>
<path d="m199.26,29.31l-7.35,2.854 1.47,3.568 5.88-.713v-5.709z"/>
<path d="m173.19,31.808l-7.35,2.854 1.47,3.568 5.88-.714v-5.708z"/>
<path d="m182,38.587l-7.35,2.854 1.47,3.568 5.88-.714v-5.708z"/>
<path d="m184.94,31.451l-7.35,2.854 1.47,3.568 5.88-.714v-5.708z"/>
<path d="m179.79,37.516l-5.87,6.343 1.17,7.929 4.7-1.586v-12.686z"/>
<path d="m193.01,33.592l-7.34,2.854 1.47,3.568 5.87-.714v-5.708z"/>
<path d="m195.95,26.456l-7.34,2.854 1.47,3.568 5.87-.714v-5.708z"/>
<path d="m211.37,44.652l-7.34,2.854 1.47,3.568 5.87-.713v-5.709z"/>
<path d="m220.19,51.431l-7.35,2.854 1.47,3.568 5.88-.713v-5.709z"/>
<path d="m223.12,44.295l-7.34,2.855 1.47,3.567 5.87-.713v-5.709z"/>
<path d="m226.79,33.235l-7.34,2.854 1.47,3.568 5.87-.714v-5.708z"/>
<path d="m235.61,40.014l-7.35,2.854 1.47,3.568 5.88-.714v-5.708z"/>
<path d="m238.54,32.878l-7.34,2.854 1.47,3.568 5.87-.713v-5.709z"/>
<path d="m217.98,18.963l-7.34,2.855 1.47,3.567 5.87-.713v-5.709z"/>
<path d="m226.79,25.742l-7.34,2.855 1.47,3.567 5.87-.713v-5.709z"/>
<path d="m229.73,18.606l-7.34,2.855 1.47,3.568 5.87-.714v-5.709z"/>
<path d="m237.81,26.099l-7.34,2.854 1.47,3.568 5.87-.713v-5.709z"/>
<path d="m246.62,32.878l-7.34,2.854 1.47,3.568 5.87-.713v-5.709z"/>
<path d="m249.56,25.742l-7.34,2.855 1.46,3.567 5.88-.713v-5.709z"/>
<path d="m130.59,22.531l-7.34,2.854 1.47,3.568 5.87-.713v-5.709z"/>
<path d="m132.79,36.446l-7.34,2.854 1.47,3.568 5.87-.713v-5.709z"/>
<path d="m142.34,22.174l-7.34,2.855 1.47,3.568 5.87-.714v-5.709z"/>
<path d="m135.73,39.657l-7.34,2.854 1.47,3.568 5.87-.713v-5.709z"/>
<path d="m144.54,46.436l-7.34,2.854 1.47,3.568 5.87-.713v-5.709z"/>
<path d="m137.2,52.145l-7.34,2.854 1.47,3.568 5.87-.714v-5.708z"/>
<path d="m150.42,63.205l-7.34,2.854 1.46,3.568 5.88-.713v-5.709z"/>
<path d="m165.11,50.717l-7.35,2.855 1.47,3.568 5.88-.714v-5.709z"/>
<path d="m170.25,52.145l-7.35,2.854 1.47,3.568 5.88-.714v-5.708z"/>
<path d="m178.33,48.22l-7.35,2.854 1.47,3.568 5.88-.713v-5.709z"/>
<path d="m187.14,54.999l-7.35,2.854 1.47,3.568 5.88-.713v-5.709z"/>
<path d="m190.08,47.863l-7.35,2.854 1.47,3.568 5.88-.713v-5.709z"/>
<path d="m190.81,70.341l-7.34,2.854 1.47,3.568 5.87-.713v-5.709z"/>
<path d="m208.44,52.145l-7.35,2.854 1.47,3.568 5.88-.714v-5.708z"/>
<path d="m214.31,62.135l-7.34,2.854 1.47,3.568 5.87-.714v-5.708z"/>
<path d="m234.14,48.22l-7.35,2.854 1.47,3.568 5.88-.713v-5.709z"/>
<path d="m242.95,54.999l-7.34,2.854 1.47,3.568 5.87-.713v-5.709z"/>
<path d="m245.89,47.863l-7.35,2.854 1.47,3.568 5.88-.713v-5.709z"/>
<path d="m251.03,43.938l-7.35,2.855 1.47,3.568 5.88-.714v-5.709z"/>
<path d="m285.54,68.557l-7.34,2.854 1.47,3.568 5.87-.713v-5.709z"/>
<path d="m256.9,40.014l-7.34,2.854 1.47,3.568 5.87-.714v-5.708z"/>
<path d="m257.64,31.094l-7.35,2.854 1.47,3.568 5.88-.713v-5.709z"/>
<path d="m278.2,47.15l-7.34,2.854 1.47,3.568 5.87-.714v-5.708z"/>
<path d="m269.39,30.737l-7.35,2.855 1.47,3.567 5.88-.713v-5.709z"/>
<path d="m118.11,34.662l-7.35,2.854 1.47,3.568 5.88-.713v-5.709z"/>
<path d="m126.92,41.441l-7.34,2.854 1.46,3.568 5.88-.713v-5.709z"/>
<path d="m135.73,41.441l-7.34,2.854 1.47,3.568 5.87-.713v-5.709z"/>
<path d="m104.89,28.24l-7.346,2.854 1.469,3.568 5.877-.714v-5.708z"/>
<path d="m113.7,35.019l-7.34,2.854 1.47,3.568 5.87-.714v-5.708z"/>
<path d="m118.11,36.446l-7.35,2.854 1.47,3.568 5.88-.713v-5.709z"/>
<path d="m146.75,18.25l-7.35,2.854 1.47,3.568 5.88-.714v-5.708z"/>
<path d="m156.29,55.713l-7.34,2.854 1.47,3.568 5.87-.714v-5.708z"/>
<path d="m158.5,17.893l-7.35,2.854 1.47,3.568 5.88-.714v-5.708z"/>
<path d="m93.138,50.361l-7.343,2.854 1.468,3.568 5.875-.714v-5.708z"/>
<path d="m112.97,51.431l-7.35,2.854 1.47,3.568 5.88-.713v-5.709z"/>
<path d="m106.36,53.572l-7.347,2.854 1.467,3.568 5.88-.714v-5.708z"/>
<path d="m128.39,55.356l-7.35,2.854 1.47,3.568 5.88-.714v-5.708z"/>
<path d="m137.2,62.135l-7.34,2.854 1.47,3.568 5.87-.714v-5.708z"/>
<path d="m140.14,54.999l-7.35,2.854 1.47,3.568 5.88-.713v-5.709z"/>
<path d="m251.03,58.924l-7.35,2.854 1.47,3.568 5.88-.714v-5.708z"/>
<path d="m259.84,65.703l-7.34,2.854 1.47,3.568 5.87-.714v-5.708z"/>
<path d="m262.78,58.567l-7.34,2.854 1.46,3.568 5.88-.714v-5.708z"/>
<path d="m262.78,66.773l-7.34,2.854 1.46,3.568 5.88-.713v-5.709z"/>
<path d="m277.47,57.853l-7.35,2.855 1.47,3.567 5.88-.713v-5.709z"/>
<path d="m231.94,62.848l-7.35,2.855 1.47,3.568 5.88-.714v-5.709z"/>
</g>
</g>
</svg>
