<svg xmlns="http://www.w3.org/2000/svg" viewBox="0 0 298.78 411.29" xmlns:xlink="http://www.w3.org/1999/xlink">
<defs>
<filter width="1.074" x="-.037" y="-.178" height="1.357" id="filter17805">
<feGaussianBlur stdDeviation="3.09437"/>
</filter>
<filter id="filter20806">
<feGaussianBlur stdDeviation=".17529"/>
</filter>
<filter id="filter5283">
<feGaussianBlur stdDeviation="2.81443"/>
</filter>
<filter width="1.293" x="-.146" y="-.063" height="1.127" id="filter12423">
<feGaussianBlur stdDeviation="3.03276"/>
</filter>
<filter width="1.109" x="-.055" y="-.282" height="1.563" id="filter16814">
<feGaussianBlur stdDeviation="5.42513"/>
</filter>
<filter width="1.208" x="-.104" y="-.056" height="1.113" id="filter15805">
<feGaussianBlur stdDeviation="2.69061"/>
</filter>
<filter width="1.646" x="-.323" y="-.049" height="1.097" id="filter11424">
<feGaussianBlur stdDeviation="6.0008"/>
</filter>
<linearGradient id="linearGradient20834" xlink:href="#linearGradient3221" y1="277.98" y2="263.14" x1="76.696" gradientUnits="userSpaceOnUse" x2="144.32"/>
<linearGradient id="linearGradient7368">
<stop offset="0" stop-color="#fe914f"/>
<stop offset=".355" stop-color="#ed2713"/>
<stop offset="1" stop-color="#9e0000"/>
</linearGradient>
<linearGradient id="linearGradient3221">
<stop offset="0" stop-color="#fff"/>
<stop offset="1" stop-color="#fff" stop-opacity="0"/>
</linearGradient>
<linearGradient id="linearGradient10375">
<stop offset="0" stop-color="#fd5"/>
<stop offset="1" stop-color="#ffd42a" stop-opacity="0"/>
</linearGradient>
<linearGradient id="linearGradient20836" xlink:href="#linearGradient3221" y1="276.34" y2="275.51" x1="178.96" gradientUnits="userSpaceOnUse" x2="219.37"/>
<linearGradient id="linearGradient20850" xlink:href="#linearGradient10375" x1="177.31" gradientUnits="userSpaceOnUse" x2="214.46"/>
<linearGradient id="linearGradient20860" y1="118.75" y2="117.87" x1="176.29" gradientUnits="userSpaceOnUse" x2="192.2">
<stop offset="0" stop-color="#008000"/>
<stop offset="1" stop-color="#002b00"/>
</linearGradient>
<linearGradient id="linearGradient20852" xlink:href="#linearGradient10375" y1="277.24" y2="272.26" x1="68.003" gradientUnits="userSpaceOnUse" x2="110.02"/>
<linearGradient gradientTransform="translate(-1.1652 -8.9335)" id="linearGradient20884" y1="256.9" y2="257.28" x1="280.82" gradientUnits="userSpaceOnUse" x2="294.81">
<stop offset="0" stop-color="#fe914f"/>
<stop offset=".355" stop-color="#ed2713"/>
<stop offset="1" stop-color="#f60"/>
</linearGradient>
<radialGradient cx="-22.376" cy="282.62" gradientTransform="matrix(.08688 -.34887 .35342 .08801 102.12 104)" id="radialGradient20867" xlink:href="#linearGradient7368" r="73.75" gradientUnits="userSpaceOnUse"/>
<radialGradient cx="101.54" cy="272.68" gradientTransform="matrix(.5931 .43555 -.85909 1.1164 253.54 -199.02)" id="radialGradient20870" xlink:href="#linearGradient7368" r="73.75" gradientUnits="userSpaceOnUse"/>
<radialGradient cx="130.99" cy="225.12" gradientTransform="matrix(.50755 -.04987 .02703 .27512 177.98 78.775)" id="radialGradient20876" xlink:href="#linearGradient7368" r="73.75" gradientUnits="userSpaceOnUse"/>
<radialGradient cx="88.696" cy="248.96" gradientTransform="matrix(-1.2604 .08736 -.16849 -2.431 252.16 809.17)" id="radialGradient20863" xlink:href="#linearGradient7368" r="73.75" gradientUnits="userSpaceOnUse"/>
<radialGradient cx="39.704" cy="284.14" gradientTransform="matrix(.04667 -.25794 .58642 .10611 -16.256 120.67)" id="radialGradient20881" xlink:href="#linearGradient7368" r="73.75" gradientUnits="userSpaceOnUse"/>
<radialGradient cx="-11.988" cy="237.11" gradientTransform="matrix(-.83945 -.07574 .21441 -2.3763 156.66 785.55)" id="radialGradient20873" xlink:href="#linearGradient7368" r="73.75" gradientUnits="userSpaceOnUse"/>
</defs>
<g fill-rule="evenodd" color="#000" transform="translate(-31.354 -30.605)">
<path filter="url(#filter16814)" d="m134.88,414.63c-10.21-.82-32.56-6.14-38.609-13.35-2.56-10.81 11.569-11.73 18.909-12.79 9.13-1.28 17.85-4.74 27.19-4.19 18.06-.01 36.14,.42 54.14-1.26 21.69-.86 43.42-.78 65.1-.32 9.58,1.18 18.82,4.89 26.33,10.92 7.18,2.96 9.16,12.12 .76,14.97-6.69,4.3-18.68,3.98-26.69,5.21-7.08,3.09-9.34,5.58-16.67,4.95-26.55,.53-47.99-10.75-84.86,3.54-15.81-.15-18.81-4.77-34.58-5.29-1.18-.06 10.12-3.97 8.98-2.39z" transform="matrix(1.0041 .02426 -.11735 1.1166 27.563 -48.831)"/>
<path fill="url(#radialGradient20881)" d="m168.73,123.06c-.12,.07-.51,.32-.51,.32s-2.89-.34-15.06-1.74c-34.01-2.2-35.52,6.86-44.17,13.45l41.39,13.19 24.35-3.58-6-21.64z"/>
<path opacity=".385" fill="url(#linearGradient20834)" filter="url(#filter5283)" d="m100.88,170.07s-20.99,3.5-22.739,14c-1.75,10.49-6.998,54.23-5.832,64.14 1.167,9.92 3.499,20.41 6.998,35.57 3.499,15.17 4.665,13.42 9.33,30.91 4.665,17.5 6.998,15.16 13.993,29.16 7,13.99 19.83,53.06 22.74,56.56 2.92,3.5 12.25,15.16 19.25,14 7-1.17 23.32,6.41 14.58-4.67-8.75-11.08-5.83-12.83-16.33-32.65-10.5-19.83-3.5-5.25-14-23.33-10.49-18.08-12.83-13.99-9.91-25.07s8.75,1.16-2.33-17.5-22.161-16.33-9.92-26.24c12.25-9.91 26.83-15.16 21-30.91-5.83-15.74-6.42-36.15-9.92-46.06-3.49-9.92-24.488-2.92-25.654-8.75s-12.246-2.92 7.581-7c19.823-4.08 24.493-1.75 25.073-11.08s-8.75-15.16-11.08-15.16-11.66,4.08-12.83,4.08z" transform="matrix(.99344 .11435 -.11435 .99344 28.359 -18.14)"/>
<path opacity=".385" fill="url(#linearGradient20836)" filter="url(#filter5283)" d="m188.94,158.41c-2.34,.58-15.75,11.08-14.58,19.24 1.16,8.17-1.17,20.41-1.75,24.5-.58,4.08-.58,6.41 0,12.24s2.91,8.75 1.17,16.33c-1.75,7.58-1.75,11.08-1.17,17.49 .58,6.42 1.75,9.92 1.75,19.25s5.25,18.07 5.25,18.07-5.25,2.34-4.67,8.17 1.75,12.24 2.33,16.33c.59,4.08 5.25,18.66 7,26.24s4.08,11.66 5.83,23.91c1.75,12.24 5.25,21.57 5.25,27.99 0,6.41-5.83,11.66 .58,12.83 6.42,1.16 9.92,1.16 14.58,3.49 4.67,2.34 12.25,10.5 17.5,7.59 5.25-2.92 14.58-.59 7-8.17-7.59-7.58-7.59-8.75-7.59-24.49 0-15.75 1.17-9.33-4.66-28.57-5.83-19.25-9.33-25.08-7.58-30.33s7.58-7.58-.58-16.33c-8.17-8.74-22.16-13.99-18.67-20.99 3.5-7 8.17-12.24 8.75-15.74s-13.99-28.58-13.99-28.58 .58-14.58 .58-20.99-5.83-17.49-2.92-22.74c2.92-5.25 15.17-25.08 15.17-25.08l27.99-15.16-33.83-1.75-8.74,5.25z" transform="matrix(.99344 .11435 -.11435 .99344 28.359 -18.14)"/>
<path fill="url(#radialGradient20876)" d="m259.07,119.74c-9.1-.99-17.74,.54-23.5,4.94 0,0-.36-.88-1.08-2.07-4.73,1.94-29.88,12.6-34.22,19.82-4.93,8.2 16.78,8.74 16.78,8.74l53.55,6.17 23.95,27.48 9.11,67.11c5.14-27.16 10.63-56.58 10.96-59.45 .6-5.22 2.49-21.46-2.5-29.07-5-7.62-12.66-22.59-20.82-28.23-8.05-8.73-20.52-14.16-32.23-15.44z"/>
<path fill="url(#radialGradient20873)" d="m253.73,145.96c-16.41-1.91-23.86,.63-40.85,.68-18.12,.04-26.6,4.39-33.76,11.02s-4,11.81-4,11.81l-.44,8.47-3.14,50.25s-4.14,73.03-6.64,85.52c-2.5,12.5-1.56,27.52-.53,32.44 1,4.74 12.25,56.94 13.06,60.67 1.07-.52 1.98-.69 3.95-.17 26.11,16.66 41.66,18.07 70.9-1.07 24.6-38.11 33.71-65.67 42.69-108.54 .68-2.94 6.67-34.3 11.91-62.2 .62-13.37 1.07-25.18 .99-29.33-.25-11.75-6.25-33.73-13.24-37.73-7-4-18.63-18.66-37.49-21.37-1.18-.17-2.32-.32-3.41-.45z"/>
<path fill="url(#radialGradient20870)" d="m111.54,135.63s-9.58-2.85-18.331-1.51c-8.754,1.34-34.729,1.46-48.026,33.79-4.694,11.41-6.111,31.23-1.027,51.53 1.453,5.81 5.708,20.14 11.162,38l14.246-2.8 4.124-79.3 43.152-19.75 30.44-8.8c-8.77-4-22.43-11.04-35.74-11.16z"/>
<path fill="url(#radialGradient20867)" d="m207.72,110.87c-4.4-.5-9.69-.51-16.41,.47-3.27,.48-15.41,6.45-18,8.5-2.58,2.05-5.09,3.54-5.09,3.54s-.46-.06-.47-.06l17.78,31.4 49.82-30.54c-.73-1.62-3.66-7.19-10.45-8.97-4.99-1.31-9.85-3.5-17.18-4.34z"/>
<path opacity=".935" fill="#d40000" filter="url(#filter12423)" d="m44.61,194.31c-1.106,13.27-3.123,33.85-3.123,33.85s10.123,27.54 10.123,25.32c-10.058-45.46 1.676-79.57 34.085-96.21 0,0 3.419-3.58-4.321-1.37-20.297,5.92-33.206,17.83-36.764,38.41z" transform="matrix(.80451 .13283 -.14946 1.023 47.419 -19.319)"/>
<path fill="url(#radialGradient20863)" d="m132.9,145.76c-11.14-1.09-23.15-.03-35.078,1.91-17.047,2.77-34.148,24.14-38.879,36.61-6.736,17.75-9.29,44.98-5.93,68.46 14.278,49.86 39.601,134.23 42.005,139.28 12.772,19.77 33.542,29.54 56.812,26.48 6.13-2.23 14.98-7.66 20.46-9.38 2.98-.93 4.24-1.88 5.4-2.4l-4.32-34.84c-4.01-16.4-8.52-29.27-6.34-56.19l5.04-62.37 4.84-69.87c-.74-24.57-18.25-28.63-33.22-35.81-3.49-.9-7.08-1.51-10.79-1.88z"/>
<path fill="url(#linearGradient20860)" d="m135.56,145.05s22.97,1.61 23.75-6.49c1.33-13.8 10.06-64.86 10.39-67.767 .81-7.026-1.97,2.607 3.05-10.367 5.01-12.974 7.54-10.215 11.59-9.748 4.06,.467 17.69,4.393 17.16,9.045-.54,4.652 3.56,9.838-1.72,9.819s-8.58,3.137-8.58,3.137 3.28,2.144 .25,2.974c-3.03,.829-2.79,3.804-2.79,3.804s-2.18-1.43-2.12,13.307c.07,14.736-3.23,33.216-.67,36.456s7.46,11.89 10.82,13.03c4.72,1.59 16.48,4.25 16.48,4.25s-16.49,1.83-28.52,9.85c-9.25,6.18-9.15,14.35-9.37,15.11-.73,2.52-3.49-7.39-14.63-14.86-10.63-7.12-19.9-9.27-25.09-11.55z"/>
<path opacity=".481" fill="url(#linearGradient20850)" filter="url(#filter11424)" d="m183.39,164.56s-6.86,5.15-6,24 6.85,77.98 6.85,103.69-4.28,80.55 2.57,88.27c6.86,7.71 20.57,29.99 24,22.28 3.43-7.72-13.71-19.71-13.71-41.14 0-21.42 6.85-45.42 6.85-66.84s-11.99-53.13-10.28-77.12c1.71-24 15.43-36 19.71-42.85 4.28-6.86-5.14-19.71-11.14-16.28-6,3.42-18.85,5.99-18.85,5.99z" transform="matrix(1.2684 .14601 -.11435 .99344 -24.202 -20.74)"/>
<path opacity=".481" fill="url(#linearGradient20852)" filter="url(#filter11424)" d="m58.051,205.92s-4.976,41.46 3.317,59.16c8.294,17.69 50.312,125.5 57.502,131.03 7.18,5.53 7.18,13.27 .55-17.14s-12.72-60.27-19.904-79.06c-7.187-18.8-17.691-47.55-17.138-61.92 .646-16.81 16.033-63.03 13.821-68.56-2.211-5.53-10.504-2.21-19.903,6.63-9.399,8.85-18.245,29.31-18.245,29.86z" transform="matrix(.99344 .11435 -.11435 .99344 28.359 -18.14)"/>
<path opacity=".696" fill="#eae3ab" filter="url(#filter15805)" d="m174.09,66.826s-.04,.863-3.54,21.65c-3.45,20.494-5.74,45.954-9.72,54.784-3.98,8.84-8.84,5.75-11.49,5.75s0-2.21 10.61,3.97c10.6,6.19 11.48,9.28 11.48,9.28s11.05-12.37 18.56-12.81 10.16-1.77 10.16-1.77-2.21-2.21-11.04-.88c-8.84,1.32-12.82,8.39-18.56,3.53s-3.98-22.53-1.77-28.72c2.21-6.18 8.84-56.993 5.31-54.784z"/>
<path fill="#700000" filter="url(#filter17805)" d="m93.579,382.01s10.201,20.1 16.791,23.7c6.6,3.6 19.8,12 27,11.4s16.2-2.1 26.09-6.3c9.9-4.2 12.6-6.3 15.9-5.7s10.5,9 19.19,9c8.7,0 17.18,6.47 27.6,3 11.7-3.9 23.39-11.4 24.89-16.8s9-13.8 9-13.8-11.1,12.6-26.69,17.7c-15.11,4.94-47.99-2.7-51.89-4.5s-1.5-6.9-14.1-1.5-42.59,8.1-50.39,3c-7.79-5.1-23.391-19.2-23.391-19.2z"/>
</g>
<g transform="translate(-31.354 -30.605)">
<path opacity=".669" fill="none" filter="url(#filter20806)" stroke="#0a2400" stroke-width=".5" d="m178.31,57.247c-4.6,4.366-5.82,10.592-6.9,16.416-1.19,5.308-.65,10.892-2.69,16.036-1.83,4.919 .17,10.135-1.31,15.091-.98,3.78-1.91,7.64-1.52,11.56-.98,5.09-4.83,9.53-3.62,14.99-.18,5.11-1.36,5.85-1.95,10.9-2.83,4.83-4.86,2.4-9.37,4.09-.97,.01-10.03-.7-10.88-.17m3.56,.42c5.58,1.38 14.97,5.26 18.06-.57 5.06-8.01 2.15-17.91 4.49-26.67 2.65-4.95 3.54-10.5 3.47-16.11 1.12-6.263 2.06-12.581 2.29-18.928 .97-6.33-.59-12.952 1.87-19.045 .91-4.092 2.35-8.045 5.52-10.834m-21.84,98.137c6.77-4.32 12.9-11.67 11.84-20.2-.6-7.51-1.86-15.21 .41-22.59 1.96-6.81 2.37-13.915 3.1-20.929 .06-7.85 .78-15.672 2.32-23.363 .94-4.689 .31-11.413 5.97-13.196 2.91-1.449 8.24,.874 3.2,3.08-3.74,2.147-3.74,6.802-5.08,10.465-1.76,7.05-1.75,14.427-4.14,21.34-1.48,5.116-2.46,10.421-4.33,15.383-1.63,7.23-2,14.63-1.76,22.02-.12,7.27 .44,14.65-.41,21.84-1.45,3.73-4.44,6.81-5,10.88m18.2-103.56c-4.51,8.434-6.32,18.013-7.09,27.463-.4,5.248-.61,10.497-.63,15.766-.45,6.323-3.27,12.183-4.12,18.463-2.58,11.38-1.3,23.06-1.71,34.61-.1,4.12-2.21,6.8-1.67,11.01m16.97-104.34c-4.21,11.099-3.43,23.235-6.26,34.658-1.87,9.49-2.64,19.15-3.78,28.73-1.27,6.52-1.62,13.31 .03,19.8 1.33,8.16-3.73,15.76-2.32,23.93 .22,1.32 .36,3.9 .96,4.49m12.24-114.58c-6.64-.973-7.79,7.599-6.76,12.4 1.73,13.965-.59,27.927-2.14,41.782-.43,5.84-.52,11.92 1.67,17.44 1.74,6.52-1.93,12.66-1.74,19.15-.08,5.02-1.07,11.47 1.27,15.76m3.5-3.5c-2.71-5.84-.05-12.6-2.74-18.48-1.94-5.48-4.12-12.21-.13-17.36 3.34-6.84 3.34-14.54 4.7-21.875 1.1-7.746 1.53-15.56 1.95-23.358 .25-5.111-.47-10.554 1.44-15.386 1.92-2.59 5.42-2.851 8.25-3.774m.18,3.849c-5.17-1.3-11.79,.815-13.31,6.395-2.17,5.302-1.37,11.366 1.33,16.311 1.15,5.002-1.31,9.898-1.39,14.911-.99,5.467-2.12,10.977-1.49,16.557 .47,6.56-1.1,13-.76,19.53-.35,6.57 1.24,13.47 6,18.13m9.79-89.036c-4.75,3.241-6.89,8.859-7.52,14.366-1.8,9.256-5.1,18.388-4.55,27.94-.26,8.6-1.39,17.34 .52,25.84-.93,5.46 4.1,7.62 7.76,10.22 4.18,3.19 7.85,4.46 12.89,4.9m1.75-.35c-5.61-.78-10.98-2.98-14.48-7.79-4.19-3.63-9.25-7.33-9.74-13.36-.81-5.31-.08-10.68-.71-16.02-.61-10.005 2.92-19.531 4.61-29.257 1.15-4.948 1.48-10.07 1.68-15.044 2.33-5.017 8.6-4.473 13.21-4.739l.7-.204m-4.19,89.564c-4.21-3.64-9.68-5.61-13.76-9.18-3.87-4.16-2.34-10.05-4.22-14.93-1.32-5.34-4.85-10.32-3.91-16 1.08-5.49 5.09-9.799 6.65-15.151 1.6-4.692 1.85-9.679 2.98-14.488 1.37-6.417 .73-13.088 2.24-19.447l.45-.848 .64-.745m1.75,93.239c-4.83-7.29-13.76-11.71-15.88-20.72-2.12-6.98-2.47-14.68-.48-21.71 2.29-5.14 5.02-10.22 5.26-15.971 .15-5.487 3.46-10.069 4.26-15.377 .95-5.985-.12-12.178 1.11-18.082 .38-1.088 .85-2.155 1.01-3.303m-32.29,94.633c4.18-3.96 13.08-5.5 14.62-11.6 3.25-8.56-.56-18.15 3.36-26.59 .86-2.36 1.89-4.66 2.94-6.94m2.27,58.78c-3.13-7.16-2.44-15.2-4.14-22.71-1.73-9.37-.92-18.95-.09-28.36 .14-4.14 2.11-7.67 4.06-11.21m1.27-35.977c-1.52,5.424-3.06,10.946-2.38,16.641 0,9.342-5.51,17.746-5.2,27.136-.44,5.83-.54,11.71-2.25,17.34-1.29,7.84 1.6,16.09-1.2,23.7-.39,.89-.9,1.75-1.56,2.47"/>
<path opacity=".481" fill="url(#linearGradient20884)" filter="url(#filter11424)" fill-rule="evenodd" color="#000" d="m265.85,148.73l11.51,9.53c0,.52 5.38,3.16 5.38,3.68 0,1.03 3.91,1.09 3.91,2.13 0,3.03 .22,3.97 .77,6.21 .52,2.06 0,4.86 0,6.99v49.33c0,3.33-.77,6.6-.77,10.1 0,4.23-.39,8.29-.39,12.43 0,3.11-.41,7.41-1.55,9.71-1.42,2.84-1.95,7.99-1.95,11.26 0,4.03-1.93,8.52-2.72,12.43-.66,3.31-1.55,6.23-2.33,9.32-.13,.52-.25,1.04-.38,1.56-.79,3.14-1.72,6.25-2.33,9.32-.62,3.06-.8,5.51-1.56,8.54-.62,2.48-.39,5.06-1.55,7.38-.84,1.69-.39,5.36-.39,7.38 0,2.93 .39,5.6 .39,8.55 0,2.19 .02,4.58-.39,6.21-.5,2.01-1.04,4.16-1.55,6.22-.51,2.02-1.05,3.65-1.95,5.43-.88,1.77-1.05,4.59-1.55,6.61-1.13,4.5-.02-1.48 .39-3.5 .1-.52 .26-1.03 .39-1.55 .59-2.38 .93-4.14 1.55-6.6 .82-3.26 2.53-5.95 3.88-9.33 1.38-3.43 2.19-5.23 3.11-8.93 .68-2.72 .39-5.71 .39-8.54v-8.55c0-3.29 1.29-6.07 1.94-9.32 .56-2.81 2.43-5.43 3.11-8.16 .83-3.32 1.64-7.34 2.33-10.1 .72-2.88 1.69-5.18 2.72-7.77 1.27-3.17 2.68-6.85 3.49-10.09 .82-3.25 .78-6.29 .78-9.71v-9.71c0-4.63 .89-8.98 1.94-13.21 .52-2.05 .39-5.33 .39-7.38v-6.21c0-1.84 .39-3.8 .39-5.83v-6.6c0-3.12 .39-6.49 .39-9.71v-31.85c0-2.65 .09-5.35-.39-7.77-.37-1.88-4.08-4.09-5.44-5.44-1.53-1.54-12.2,2.85-13.34,1.33-.49-.66-7.97-5.27-8.62-5.79z"/>
</g>
</svg>
