<svg xmlns="http://www.w3.org/2000/svg" viewBox="0 0 447.64 631.58" xmlns:xlink="http://www.w3.org/1999/xlink">
<defs>
<linearGradient gradientTransform="translate(140.22 205.99)" id="linearGradient5735" x1="146.34" gradientUnits="userSpaceOnUse" x2="593.98">
<stop offset="0"/>
<stop offset="1" stop-opacity="0"/>
</linearGradient>
</defs>
<g transform="translate(-142.2605 -256.971)">
<path fill="#784421" d="m268.19,256.97l40.28,10.71 40.28,10.71 19.37,139.19 19.38,139.19-17.85,4.08-17.84,4.08-49.97-245.75-33.65-62.21z"/>
<path fill="#ca2f2f" stroke="url(#linearGradient5735)" fill-rule="evenodd" stroke-width="1.079" d="m589.36,677.1c0,28.14-6.25,54.95-17.55,79.35-11.3,24.39-27.66,46.36-47.87,64.81-20.2,18.46-44.26,33.39-70.97,43.72-26.71,10.32-56.07,16.03-86.89,16.03-30.81,0-60.17-5.71-86.88-16.03-26.71-10.33-50.77-25.26-70.98-43.72-20.2-18.45-36.56-40.42-47.86-64.81-11.31-24.4-17.56-51.21-17.56-79.35s7.02-54.7 19.31-78.77 29.86-45.66 50.96-63.86 45.43-23.7 71.7-22.43c26.28,1.28 42.25,5.26 71.12,14.18 21.99,6.8 36.94-6.4 73.81-12.54 28.97-4.82 75.28-1.14 95.23,17.59 19.96,18.73 36.07,41.12 47.19,65.86s17.24,51.83 17.24,79.97z"/>
<path d="m214.88,442.35c0,3.58-6.9,5.97-15.64,9.17-10.8,3.96-23.03,2.56-37.72,3.81-14.73,1.25-28.4,2.3-37.73-3.81-8.73-5.71-15.63-5.59-15.63-9.17 0-3.59 5.97-11 15.63-9.18 9.73,1.84 23.33-7.56 37.73-3.8 14.42,3.76 28.73-2.72 37.72,3.8 8.53,6.18 15.64,5.59 15.64,9.18z" transform="matrix(.77027 0 0 .61111 244.05 609.71)"/>
<path fill="#4a0" d="m439.7,346.93c-14.17,20.76-73.74,71.77-93.07,55.43-19.33-16.35 10.45-93.56 24.62-114.32 14.18-20.76 48.51-33.48 67.84-17.13 19.33,16.34 14.78,55.25 .61,76.02z"/>
</g>
</svg>
