<svg xmlns="http://www.w3.org/2000/svg" viewBox="0 0 551.59 697.33">
<g stroke="#000">
<g transform="matrix(1.0227 0 0 1.0332 -144.769 -323.96)">
<path fill="#0f0" stroke-width="5.197" d="m433.05,448.27c0,296.74-7.71,537.57-17.2,537.57-9.5,0-1.91-227.67-1.91-524.41s-160.49-2.19-181.57-10.97c-8.93-3.72 200.68-298.94 200.68-2.19z"/>
<path fill="#aa00d4" stroke-width="1.28" d="m158.16,461.43c4.55-14.4 15.67-29.94 29.59-36.41 13.91-6.48 32.75-10.63 49.41-6.1 16.66,4.54 30.48,18.06 38.42,30.48s7.88,30.47 3.33,44.88c-4.55,14.4-3.99,44.84-17.91,51.31-6.95,3.24-12.9-28.46-20.44-30.78-7.53-2.32-31.32,21.09-39.66,18.82-8.33-2.26-10.84-32.79-16.69-34.15-9.01-2.1-35.98,21.05-39.95,14.84-7.94-12.41 9.35-38.49 13.9-52.89z"/>
<path fill="#0f0" stroke-width="3.082" d="m434.17,794.05c0,106.42-7.56,192.8-16.87,192.8s-1.87-81.65-1.87-188.08c0-106.42-157.34-.78-178.01-3.93-8.75-1.33 196.75-107.21 196.75-.79z"/>
<path fill="#800080" stroke-width=".903" d="m183.83,779.93c8.06-7.23 20.53-12.89 31.36-12.05s23.79,4.79 32.24,13.31c8.45,8.51 11.86,21.53 12.11,31.86 .25,10.32-6.43,21.34-14.49,28.57s-18.92,26.02-29.75,25.18c-5.41-.42 2.64-21.84-1.08-25.85s-26.78,2.09-31.01-2.17c-4.22-4.25 5.49-23.77 2.43-26.62-4.69-4.39-29.58,.47-29.71-4.7-.25-10.32 19.84-20.3 27.9-27.53z"/>
<path fill="#0f0" stroke-width="2.588" d="m532.3,399.73c0,87.82-58.97,281.45-60.16,216.19-.14-7.32 52-148.77 52-236.58s133.35,101.7 127.47,106.05c-11.04,8.16-119.31-173.47-119.31-85.66z" transform="translate(-48.947 44.868)"/>
<path fill="#d42aff" stroke-width="1.099" d="m565.5,594.5c-5.27-12.05-6.96-28.45-1.71-40.36s14.98-24.97 28.26-31.08 29.83-4.69 42-.8c12.16,3.9 22.39,15.92 27.66,27.97s22.94,31.95 17.69,43.86c-2.63,5.95-24.48-11.83-30.63-9.25-6.16,2.58-8.12,31.14-14.76,34.2-6.64,3.05-25.61-15.84-30.14-13.54-6.98,3.54-11.13,33.66-17.21,31.71-12.16-3.89-15.89-30.66-21.16-42.71z"/>
<path fill="#0f0" stroke-width="2.588" d="m487.43,809.67c0,31.52-10.96,57.1-24.47,57.1s-24.48-25.58-24.48-57.1c0-31.53-7.63-96.54 5.88-96.54s43.07,65.01 43.07,96.54z" transform="matrix(.80863 .58832 -.58832 .80863 564.94 -117.42)"/>
<path fill="#0f0" stroke-width="1.181" d="m448.54,404.97c-9.9,9.94-22.68,15.5-28.51,12.4-5.84-3.1-2.54-13.69 7.37-23.63 9.91-9.95 27.04-32.21 32.87-29.11 5.84,3.1-1.82,30.4-11.73,40.34z"/>
<path fill="#0f0" stroke-width="2.588" d="m389.88,604.13c-13.88-2.32-38.85-58.48-36.72-71.25s30.55,22.66 44.43,24.98c13.88,2.31 23.42,14.55 21.29,27.32s-15.12,21.26-29,18.95z"/>
</g>
<g transform="translate(-98.729 -172.82)">
<path fill="#0f0" stroke-width="2.588" d="m293.68,853.51c0,36.59-7.76,66.29-17.33,66.29s-15.97-27.16-15.97-63.75c0-36.58-29-128.37-19.43-128.37s52.73,89.25 52.73,125.83z" transform="matrix(.95804 -.28665 .28665 .95804 -157.6 66.086)"/>
<path fill="#0f0" stroke-width="2.588" d="m405.85,811.78c0,30.4-8.22,55.07-18.35,55.07s-14.28-22.63-14.28-53.03c0-30.39 61.25-63.22 71.38-63.22s-38.75,30.79-38.75,61.18z"/>
</g>
</g>
</svg>
