<svg xmlns="http://www.w3.org/2000/svg" viewBox="0 0 128 128">
<g fill-rule="evenodd" transform="translate(-66.38 -391.32)">
<path fill="#ffb600" stroke="#000" stroke-linejoin="round" stroke-width="5.164" d="m157.3,429.82c10.05,10.99 5.39,31.63-10.4,46.06s-36.76,17.22-46.8,6.23c-10.051-10.99-5.391-31.63 10.4-46.06 15.72-14.37 36.57-17.21 46.68-6.36l.12,.13z"/>
<path fill="#f00" d="m100.63,448.65c15.97,5.86 28.88,16.17 34.76,36.69l20.79-21.5c-4.54-18.43-16.11-30.05-34.65-34.88l-20.9,19.69z"/>
</g>
<g stroke="#000" stroke-linejoin="round" stroke-width="6">
<g transform="translate(-66.38 -391.32)">
<path fill="none" d="m157.52,429.78c10.05,10.99 5.39,31.63-10.4,46.06s-36.76,17.22-46.8,6.23c-10.049-11-5.389-31.63 10.4-46.06 15.72-14.37 36.57-17.21 46.68-6.36l.12,.13z"/>
</g>
<g fill="#f00" fill-rule="evenodd" stroke-linecap="round" transform="translate(-66.38 -391.32)">
<path d="m158.25,427.32c10,4.4 25.15,2.18 30.2-3.53-2.58-.54-5.01-3.15-6.51-6.17-1.58-3.17-.15-7.29-2.82-9.74-3.06-2.79-7.3-1.26-10.54-2.94-2.85-1.47-3.77-4.59-6.72-8.06-7.07,9.56-6.45,21.01-3.61,30.44z"/>
<path d="m102.03,483.87c-9.981-4.45-25.143-2.32-30.23,3.35 2.578,.56 4.997,3.19 6.478,6.21 1.555,3.18 .1,7.29 2.76,9.76 3.036,2.81 7.294,1.3 10.521,3 2.84,1.49 3.74,4.62 6.669,8.1 7.132-9.51 6.582-20.97 3.802-30.42z"/>
</g>
</g>
</svg>
