<svg xmlns="http://www.w3.org/2000/svg" viewBox="0 0 605.39 715.95" xmlns:xlink="http://www.w3.org/1999/xlink">
<defs>
<linearGradient id="linearGradient2859" y1="587.42" y2="730.18" x1="174.96" gradientUnits="userSpaceOnUse" x2="433.13">
<stop offset="0" stop-color="#fff"/>
<stop offset="1" stop-color="#fff" stop-opacity="0"/>
</linearGradient>
</defs>
<g transform="translate(-121.94 -211.42)">
<path fill="#e9650c" d="m315.84,589.2c63.28-87.92 76.43-50.58 96.97-34.06 20.55,16.51 38.5,2.68-14.72,97.19-54.36,96.52-253.25,290.84-274.11,274.02-20.52-16.55 118.28-261.99 191.86-337.15z"/>
</g>
<g fill="none" stroke="#000" stroke-width=".759" transform="translate(-121.94 -211.42)">
<path d="m421.23,612.58c-3.63-4.23-12.9-9.89-16.95-13.97-2.03-2.05-2.98-2-4.63-3.11"/>
<path d="m378.08,609.48c-3.92-3.95-11.36-11.45-15.41-15.53-4.51-4.55-9.44-8.64-13.87-10.87-6.7-3.38-9.04-10.66-12.33-13.98"/>
<path d="m317.98,657.62c6.18,3.11-12.32-7.75-15.41-13.98-2.42-4.88-7.63-9.24-10.79-12.42-3.11-3.13-3.78-5.37-6.16-7.77"/>
<path d="m280.99,722.84c.51,0-11.16-15.91-13.87-18.64-5.88-5.93-8.16-9.93-12.33-15.53-3.35-4.5-3.95-6.42-6.16-10.87"/>
<path d="m304.11,774.08c-4.39-5.9-11.97-10.39-20.04-12.42-6.03-1.52-12.19-8.83-16.95-12.42-1.48-1.12-2.05-3.11-3.08-4.66"/>
<path d="m259.42,772.53c-.76-.58-9.89-14.62-13.87-18.64-5.14-5.17-8.13-8.19-12.33-12.42-.81-.82-1.03-2.07-1.54-3.11"/>
<path d="m216.27,819.11c0,7.36-10.42-10.68-16.95-13.97-5.93-2.99-8.05-8.11-12.33-12.42-3.11-3.13-5.32-3.81-7.71-6.22"/>
<path d="m166.95,879.68c6.49,2.61-12.76-6.79-16.95-12.43-2.24-3-2.96-3.97-4.62-6.21"/>
<path d="m213.19,867.25c-5.23,.43-13.02-5-18.5-7.76-5.01-2.52-9.48-9.55-12.33-12.42-.81-.82-2.05-1.04-3.08-1.56"/>
<path d="m305.65,694.88c7.37,1.81 14.71,6.82 20.03,13.98 2.88,3.86 14.24,3.59 18.5,9.32 .92,1.24 3.08,0 4.62,0"/>
<path d="m385.78,671.59c5.74,7.7-14.56-12.77-23.11-17.08-3.44-1.74-10.96-12.59-13.87-15.53-3.94-3.97-7.93-7.99-10.79-10.87"/>
<path d="m259.42,811.35c-.38-.38-20.48-7.99-23.12-9.32-6.89-3.47-10.42-7.39-15.41-12.42-3.18-3.2-5.41-3.9-7.7-6.21"/>
<path d="m368.83,541.15c-4.72-4.76 6.09,12.11 7.71,18.63 .31,1.25 5.34,6.66 6.16,7.77"/>
</g>
<g transform="translate(-121.94 -211.42)">
<path opacity=".645" fill="url(#linearGradient2859)" d="m315.84,589.2c63.28-87.92 76.43-50.58 96.97-34.06 20.55,16.51 38.5,2.68-14.72,97.19-54.36,96.52-253.25,290.84-274.11,274.02-20.52-16.55 118.28-261.99 191.86-337.15z"/>
</g>
<g fill="#28a32a" transform="translate(-121.94 -211.42)">
<path d="m252.65,280.1c5.01-2.97 18.82-90.59 37.98-2.37 22.12,101.82 29.54,71.77 49.21,80.93 39.28,18.29 28.38,21.2 17.04,24.56-11.35,3.35-23.14,7.13 14.36,27.16 20.07,10.72 12.53,11.46 .97,13.12s-27.13,4.24-23.11,18.67 23.18,44.84 40.07,72.39c16.9,27.56 31.54,52.25 26.53,55.22-5,2.98-23.17-19.32-42.74-45s-40.53-54.73-51.12-65.25c-10.58-10.52-23.63-2.34-31.63,2.93-8.01,5.26-10.97,7.62-1.4-14.56 11.21-25.99 2.48-25.06-7.45-21.37-9.94,3.69-21.08,10.14-14.69-4.8 11.63-27.19-64.41,7.82-1.24-81.97 23.47-33.36-188.27,110.29-12.78-59.66z"/>
<path d="m684.93,387.21c3.23,4.87 90.81,13.95 4.44,38.08-99.67,27.85-69.49,33.66-77.48,53.96-15.96,40.53-19.45,29.73-23.4,18.49-3.94-11.23-8.34-22.88-26.13,15.95-9.52,20.79-10.66,13.23-12.94,1.69s-5.7-27.06-19.77-22.22-43.16,25.79-69.53,44.3c-26.37,18.52-50.04,34.6-53.26,29.73s17.88-24.38 42.24-45.48c24.37-21.1 52-43.79 61.85-55.02 9.84-11.23 1.02-23.9-4.64-31.67-5.66-7.76-8.16-10.61 14.35-2.2 26.36,9.85 24.96,1.12 20.76-8.68-4.2-9.79-11.2-20.65 3.95-15.04 27.58,10.2-11.29-64.38 81.15-5.76 34.35,21.79-119.64-183.35 58.41-16.13z"/>
<path d="m426.68,224.94c3.98,2.21 44.61-47.51 22.67,30.92-25.33,90.51-9.86,75.76-2,99.07 15.7,46.55 8.36,39.25 .6,31.87-7.75-7.38-15.93-14.83-1.9,31.41 7.5,24.76 2.9,18.8-4.35,10.05-7.24-8.75-17.14-20.29-20.21-6.71-3.08,13.59-3.46,51.39-4.05,85.25-.6,33.85-1.43,63.76-5.41,61.55-3.98-2.2-6.07-33.46-7.7-68.28-1.64-34.83-2.81-73.22-4.95-89.7-2.15-16.48-12.68-21.92-19.23-25.08-6.56-3.17-9.14-4.06 4.63-11.43 16.13-8.64 10.78-15.48 3.7-21.41-7.07-5.93-15.87-10.95-6.63-15.97 16.82-9.13-39.85-49.76 29.89-58.66 25.91-3.3-149.12-84 14.94-52.88z"/>
<path d="m599.13,295.09c4.76,3.36 89.62-20.28 17.88,33.85-82.79,62.47-52.58,56.82-52.7,78.66-.24,43.61-7.39,34.82-15.12,25.8-7.72-9.01-16.03-18.26-18.58,24.43-1.37,22.85-5.16,16.24-11.45,6.32-6.29-9.91-15.07-23.12-26.44-13.45-11.36,9.67-30.89,39.83-48.78,66.75-17.88,26.91-34.12,50.56-38.88,47.21-4.76-3.36 7.85-29.26 22.94-57.85 15.08-28.58 32.63-59.84 37.75-73.92 5.12-14.07-7.68-22.64-15.75-27.79-8.08-5.16-11.43-6.91 12.57-7.32 28.11-.48 23.66-8.11 16.21-15.69s-17.89-15.13-1.76-15.46c29.38-.6-33.74-55.83 73.52-35.1 39.87,7.7-177.62-126.95 48.59-36.44z"/>
</g>
</svg>
