<svg xmlns="http://www.w3.org/2000/svg" viewBox="0 0 44 52">
<g fill-rule="evenodd">
<path fill="#edd400" d="m2,11v30l20,10v-30l-20-10z"/>
<path fill="#fce94f" d="m22,51l20-10v-30l-20,10v30z"/>
<path fill="#c4a000" d="m2,11l20-10 20,10s-19,10-20,10-20-10-20-10z"/>
<path d="m22,2.4503l-3.125,1.5625 3.125,1.5313 3.125-1.5313-3.125-1.5625z"/>
<path d="m26,4.4503l-.219,.0938-2,1-.906,.4687 .906,.4375 2,1 .219,.0938 .219-.0938 2-1 .906-.4375-.906-.4687-2-1-.219-.0938zm0,1.125l.875,.4375-.875,.4375-.875-.4375 .875-.4375z"/>
<path d="m30,6.4503l-3.125,1.5625 3.125,1.5313 3.125-1.5313-3.125-1.5625z"/>
<path d="m34,8.4503l-.219,.0938-2,1-.906,.4689 .906,.437 2,1 .219,.094 .219-.094 2-1 .906-.437-.906-.4689-2-1-.219-.0938zm0,1.125l.875,.4377-.875,.437-.875-.437 .875-.4377z"/>
<path d="m14,6.4503l-3.125,1.5625 3.125,1.5313 3.125-1.5313-3.125-1.5625z"/>
<path d="m18,4.4503l-.219,.0938-2,1-.906,.4687 .906,.4375 2,1 .219,.0938 .219-.0938 2-1 .906-.4375-.906-.4687-2-1-.219-.0938zm0,1.125l.875,.4375-.875,.4375-.875-.4375 .875-.4375z"/>
<path d="m10,8.4503l-.2188,.0938-2,1-.9062,.4689 .9062,.437 2,1 .2188,.094 .219-.094 2-1 .906-.437-.906-.4689-2-1-.219-.0938zm0,1.125l.875,.4377-.875,.437-.875-.437 .875-.4377z"/>
</g>
<path fill="#729fcf" d="m11.963,31.982l8.135,3.908 .08,9.251-8.295-4.067 .08-9.092z"/>
<g fill-rule="evenodd">
<path d="m11.5,31.188v10.124l.281,.126 8,4 .719,.374v-10.124l-.281-.126-8-4-.719-.374zm1,1.624l7,3.5v7.876l-7-3.5v-7.876z"/>
<path d="m3.5,15.188v25.124l.2812,.126 2,1 .7188,.374v-25.124l-.2812-.126-2-1-.7188-.374zm1,1.624l1,.5v22.876l-1-.5v-22.876z"/>
<path d="m7,16.688v25.124l3,1.5v-25.124l-3-1.5z"/>
<path d="m11.5,18.188v11.124l.281,.126 4,2 .719,.374v-11.124l-.281-.126-4-2-.719-.374zm1,1.624l3,1.5v8.876l-3-1.5v-8.876z"/>
<path d="m17.5,21.188v12.124l.281,.126 2,1 .719,.374v-12.124l-.281-.126-2-1-.719-.374zm1,1.624l1,.5v9.876l-1-.5v-9.876z"/>
<path d="m22,.5c-.25,0-.354,.0538-.562,.125-.209,.0712-.469,.1865-.782,.3125-.625,.2521-1.442,.6-2.406,1.0313-1.929,.8624-4.402,2.029-6.844,3.2187-2.4419,1.1897-4.8467,2.3838-6.656,3.375-.9047,.4956-1.6765,.9571-2.2188,1.3125-.2711,.178-.4865,.322-.6562,.469-.0849,.073-.1504,.13-.2188,.218-.0683,.089-.1562,.209-.1562,.438v30c0,.229 .0879,.349 .1562,.438 .0684,.088 .1339,.145 .2188,.218 .1697,.147 .3851,.291 .6562,.469 .5423,.355 1.3141,.817 2.2188,1.313 1.8093,.991 4.2141,2.185 6.656,3.374 2.442,1.19 4.915,2.357 6.844,3.219 .964,.431 1.781,.779 2.406,1.031 .313,.127 .573,.242 .782,.313 .208,.071 .312,.125 .562,.125s.354-.054 .562-.125c.209-.071 .469-.186 .782-.313 .625-.252 1.442-.6 2.406-1.031 1.929-.862 4.402-2.029 6.844-3.219 2.442-1.189 4.847-2.383 6.656-3.374 .905-.496 1.677-.958 2.219-1.313 .271-.178 .486-.322 .656-.469 .085-.073 .15-.13 .219-.218 .068-.089 .156-.209 .156-.438v-30c0-.229-.088-.349-.156-.438-.069-.088-.134-.145-.219-.218-.17-.147-.385-.291-.656-.469-.542-.3554-1.314-.8169-2.219-1.3125-1.809-.9912-4.214-2.1853-6.656-3.375s-4.915-2.3563-6.844-3.2187c-.964-.4313-1.781-.7792-2.406-1.0313-.313-.126-.573-.2413-.782-.3125-.208-.0712-.312-.125-.562-.125zm0,1c-.125,0 .039,.0014 .219,.0625 .179,.0611 .447,.1592 .75,.2813 .605,.244 1.417,.6031 2.375,1.0312 1.915,.8563 4.379,2.0022 6.812,3.1875s4.841,2.4287 6.625,3.4063c.892,.4887 1.624,.8902 2.125,1.2192 .251,.164 .454,.311 .563,.406 .018,.016 .018,.018 .031,.031v29.75c-.013,.013-.013,.015-.031,.031-.109,.095-.312,.242-.563,.406-.501,.329-1.233,.73-2.125,1.219-1.784,.978-4.192,2.221-6.625,3.407-2.433,1.185-4.897,2.331-6.812,3.187-.958,.428-1.77,.787-2.375,1.031-.303,.122-.571,.22-.75,.282-.18,.061-.344,.062-.219,.062s-.039-.001-.219-.062c-.179-.062-.447-.16-.75-.282-.605-.244-1.417-.603-2.375-1.031-1.915-.856-4.379-2.002-6.812-3.187-2.4331-1.186-4.8408-2.429-6.6252-3.407-.8923-.489-1.6243-.89-2.125-1.219-.2504-.164-.4535-.311-.5626-.406-.0181-.016-.018-.018-.0312-.031v-29.75c.0132-.013 .0131-.015 .0312-.031 .1091-.095 .3122-.242 .5626-.406 .5007-.329 1.2327-.7305 2.125-1.2192 1.7844-.9776 4.1921-2.221 6.6252-3.4063 2.433-1.1853 4.897-2.3312 6.812-3.1875 .958-.4281 1.77-.7872 2.375-1.0312 .303-.1221 .571-.2202 .75-.2813 .18-.0611 .344-.0625 .219-.0625z"/>
</g>
</svg>
