<svg xmlns="http://www.w3.org/2000/svg" viewBox="0 0 128 128" xmlns:xlink="http://www.w3.org/1999/xlink">
<g stroke="#000" stroke-linejoin="round">
<g stroke-width="5.997" transform="translate(-68.374 -356.09)">
<path fill="none" stroke-linecap="round" d="m102.34,424.44c7.66-17.49 24.24-28.48 46.57-35.3 .6,10.77 4.12,30.49-4.01,54.83"/>
</g>
<g fill-rule="evenodd">
<g fill="#a00" stroke-width="5.997" transform="translate(-68.374 -356.09)">
<path d="m109.85,438.33c.03,9.05-7.34,16.4-16.394,16.4-9.052,0-16.398-7.35-16.398-16.4s7.346-16.39 16.398-16.39c9.014,0 16.334,7.27 16.394,16.28v.11z"/>
<path d="m159.67,461.62c.03,9.05-7.34,16.39-16.4,16.39-9.05,0-16.39-7.34-16.39-16.39 0-9.06 7.34-16.4 16.39-16.4 9.02,0 16.34,7.27 16.4,16.29v.11z"/>
</g>
<g fill="#008000" stroke-linecap="round" transform="translate(-68.374 -356.09)">
<path stroke-width="5.244" d="m148.73,389.24c2.64-2.39-10.14-18.46-21.56-21.82-13.07-3.86-29.35-1.36-41.603,4.69 14.533,14.95 34.823,21.74 63.163,17.13z"/>
<path stroke-width="5.997" d="m191.08,445.08c-1.84,2.87-23.6-6.1-30.85-16.08-8.3-11.42-10.53-26.94-7.58-39.38 21.06,10.79 34.83,28.38 38.43,55.46z"/>
</g>
</g>
</g>
</svg>
