<svg xmlns="http://www.w3.org/2000/svg" viewBox="0 0 473.4 523.31" xmlns:xlink="http://www.w3.org/1999/xlink">
<defs>
<radialGradient cx="138.54" cy="248.76" gradientTransform="matrix(1 0 0 1.1457 165.23 196.84)" id="radialGradient6450" r="165.02" gradientUnits="userSpaceOnUse">
<stop offset="0" stop-color="#f60"/>
<stop offset="1" stop-color="#f60" stop-opacity="0"/>
</radialGradient>
<radialGradient cx="468.86" cy="622.49" gradientTransform="matrix(1 0 0 .96283 165.23 285.77)" id="radialGradient7347" r="169.77" gradientUnits="userSpaceOnUse">
<stop offset="0" stop-color="#f2f2f2"/>
<stop offset="1" stop-color="#f2f2f2" stop-opacity="0"/>
</radialGradient>
</defs>
<g stroke="#000">
<g stroke-width=".54" transform="translate(-165.23 -262.64)">
<path fill="#98808c" d="m601.81,755.95c9.51,17.5-3.4,44.11-34.38,20.23-18.45-14.21 12.91-20.82-10.61-48.5-41.82-49.23-137.94-124.19-164.34-150.22-41.25-40.67-59.7-42.29-82.36-72.36s-3.52-29.64 3.17-34.82c6.7-5.18-1.88-22.37 29.56,.9s39.86,48.13 81.1,88.8c32.75,32.29 113.17,113.4 164.29,155.7 13.27,10.99 41.41-1.24 47.38,14.68 13.22,35.25-25.17,28.19-33.81,25.59z"/>
<path opacity=".5" fill="url(#radialGradient7347)" d="m601.81,755.95c9.51,17.5-3.4,44.11-34.38,20.23-18.45-14.21 12.91-20.82-10.61-48.5-41.82-49.23-137.94-124.19-164.34-150.22-41.25-40.67-59.7-42.29-82.36-72.36s-3.52-29.64 3.17-34.82c6.7-5.18-1.88-22.37 29.56,.9s39.86,48.13 81.1,88.8c32.75,32.29 113.17,113.4 164.29,155.7 13.27,10.99 41.41-1.24 47.38,14.68 13.22,35.25-25.17,28.19-33.81,25.59z"/>
</g>
<g stroke-width=".508" transform="translate(-165.23 -262.64)">
<path fill="#f95" d="m415.99,354.42c28.99,39.26 68.11,92.5 73.27,128.29s12.93,138.79-8.2,154.11-122.85-21.16-155.72-36.86-84.73-54.93-113.72-94.18c-29-39.26-40.24-92.07-45.39-127.86-5.16-35.79 17.65-68.84 38.77-84.16 21.13-15.32 65.04-41.76 97.91-26.06s84.08,47.46 113.08,86.72z"/>
<path opacity=".696" fill="url(#radialGradient6450)" d="m415.99,354.42c28.99,39.26 68.11,92.5 73.27,128.29s12.93,138.79-8.2,154.11-122.85-21.16-155.72-36.86-84.73-54.93-113.72-94.18c-29-39.26-40.24-92.07-45.39-127.86-5.16-35.79 17.65-68.84 38.77-84.16 21.13-15.32 65.04-41.76 97.91-26.06s84.08,47.46 113.08,86.72z"/>
</g>
</g>
</svg>
