<svg xmlns="http://www.w3.org/2000/svg" viewBox="0 0 547.83 398.15">
<g transform="translate(-10.471 -367.27)">
<path d="m290.48,511.92c-1.33-1.44-3.01-2.45-4.6-3.58-2.62-2.3-5.7-3.51-8.91-4.73-3.86-1.34-7.88-2.16-11.9-2.9-4.2-.59-8.36-1.77-12.62-1.57-4.76-.62-9.49-1.48-14.26-1.99-6.22-.85-12.51-.93-18.77-.89-8.47,.12-16.9,.91-25.32,1.8-10.35,1.11-20.63,2.74-30.88,4.54-11.76,2.11-23.47,4.48-35.1,7.21-12.04,2.88-23.93,6.34-35.737,10.04-11.011,3.5-21.848,7.51-32.578,11.78-8.467,3.14-16.476,7.19-24.319,11.63-4.654,2.52-9.176,5.23-13.912,7.6-2.128,1.16-4.438,1.9-6.672,2.76-1.743,1.01-2.457,.7-4.139,.03-.684-.51 .045-1.03 .067-1.54 .043-1.01 .93,.27 1.256-.68 .13-.38 .711-.65 .39-1.15 .057-.08-1.274-.9 .52-.78 2.118-1.13 4.186-2.4 6.453-3.25 4.865-2.07 9.851-3.76 14.746-5.75 8.449-3.2 16.791-6.61 25.081-10.2 10.764-4.28 21.635-8.31 32.681-11.82 11.843-3.7 23.763-7.17 35.833-10.06 11.66-2.74 23.4-5.11 35.18-7.22 10.28-1.81 20.6-3.44 30.98-4.56 8.46-.89 16.95-1.69 25.46-1.81 6.33-.04 12.64,.19 18.94,.72 4.8,.47 9.62,.71 14.4,1.39 4.06,1.34 8.4,1.47 12.58,2.37 4.1,.75 8.19,1.58 12.13,2.95 3.25,1.24 6.46,2.54 9.74,3.68 1.76,.73 3.46,1.67 5.36,1.93 3.19,.45 .1,6.42-2.08,4.05z"/>
<path d="m288.03,517.1c-1.08-.48-1.99-1.31-2.96-2.01-1.42-1.7-3.13-2.05-5.27-2.51-3.44-.34-6.88,.1-10.29,.53-5.8,.71-11.51,1.94-17.19,3.32-8.48,2.08-16.8,4.71-25.08,7.49-10.87,3.57-21.45,7.94-31.88,12.64-11.78,5.42-23.1,11.74-34.38,18.12-11.85,6.65-23.48,13.69-34.95,20.97-11.21,7.04-22.01,14.68-32.598,22.62-9.465,7.13-18.494,14.81-27.416,22.6-6.799,6.01-13.622,12-20.488,17.95-3.949,3.26-7.547,6.89-11.356,10.31-1.527,1.82-3.297,3.07-5.264,4.28-.861,.52-1.58-.23-.981-1.04 1.393-1.89 2.785-3.54 4.853-4.83 3.898-3.32 8.009-6.37 11.813-9.8 6.864-5.94 13.686-11.93 20.483-17.95 8.949-7.81 18.005-15.51 27.499-22.66 10.615-7.96 21.445-15.63 32.685-22.68 11.5-7.3 23.14-14.35 35.01-21.02 11.32-6.39 22.69-12.74 34.5-18.17 10.48-4.72 21.1-9.11 32.02-12.7 8.31-2.78 16.67-5.43 25.19-7.51 5.73-1.4 11.5-2.64 17.35-3.35 3.53-.45 7.09-.86 10.66-.63 2.3,.21 4.56,.43 6.79,.57 1.27,.51 2.7,.85 3.73,1.81 2.28,2.13 .37,4.91-2.48,3.65z"/>
<path d="m289.46,505.86c-1.16-1.14-1.72-2.76-2.4-4.21-1.42-3.01-2.97-5.98-4.45-8.98-2.27-5.14-5.42-9.75-8.63-14.33-4.99-6.14-10.94-11.38-17.03-16.38-7.93-6.36-16.79-11.35-25.83-15.91-9.83-4.9-20.34-8.12-30.98-10.7-8.76-2.34-17.7-2.22-26.67-2.06-7.58,.32-14.49,2.08-21.22,5.53-.9,.46-1.55-.82-.65-1.28 6.8-3.46 14.07-6.13 21.8-6.27 9.1-.51 18.16,.9 27.08,2.69 10.75,2.61 21.36,5.86 31.29,10.81 9.13,4.61 18.08,9.65 26.08,16.08 6.18,5.07 12.2,10.39 17.25,16.61 3.73,4.29 7.07,8.91 10.29,13.59 1.85,2.75 3.58,5.57 5.48,8.28 .9,.99 1.83,1.99 2.67,3 2.44,2.94-1.36,6.21-4.08,3.53z"/>
<path d="m287.38,498.95c-.2-2.17 .44-4.42 .85-6.6 .98-5.16 2.26-10.25 3.45-15.36 2.21-7.49 4.69-14.9 7.58-22.16 3.46-8.86 8.09-17.16 12.98-25.3 5.04-8.53 11.81-15.69 19.08-22.33 7.42-5.9 15.76-10.07 24.93-12.37 8.52-1.9 17.33-2.35 26.04-1.96 8.02,.43 15.95,1.45 23.79,3.16 .99,.22 .68,1.61-.3,1.4-7.72-1.69-15.59-2.95-23.52-2.79-8.54,.1-17.12,.03-25.47,2.19-8.74,2.56-17.22,5.71-24.05,12-7.47,6.15-13.77,13.48-19.06,21.58-4.98,7.96-9.03,16.4-12.15,25.27-2.48,7.24-4.82,14.51-5.68,22.15-.85,4.97-1.42,9.98-1.36,15.03 .13,1.96 .41,3.96 .44,5.85 .08,5.34-7.07,5.56-7.55,.24z"/>
<path d="m292.2,498.27c1.14-1.82 2.49-3.47 3.75-5.22 2.99-4 6.28-7.67 9.68-11.33 5.14-5.49 10.5-10.66 16.33-15.41 6.93-5.52 14.57-9.99 22.48-13.94 8.89-4.38 18.41-6.96 28.13-8.68 10.65-1.65 21.37-.82 31.95,.87 11.22,1.93 21.8,6.03 32,10.95 10.25,5.04 19.16,12.17 27.69,19.66 7.13,6.61 14.44,13.08 20.61,20.62 4.35,4.59 8.42,9.47 12.28,14.48 2.77,2.99 4.02,4.64 2.6,8.4-.36,.95-.29,.81-1.28,.63-3.67-.65-4.54-2.43-5.98-5.91-3.09-5.38-6.25-10.7-9.78-15.82-6.16-7.38-12.13-14.98-19.4-21.33-8.43-7.41-17.23-14.46-27.36-19.44-10.08-4.87-20.53-8.92-31.61-10.83-10.42-1.67-20.98-2.49-31.48-.87-9.58,1.68-18.97,4.23-27.73,8.55-7.82,3.9-15.37,8.32-22.22,13.77-5.68,4.63-11.48,9.45-15.57,15.61-2.63,3.97-5.22,8.05-7.09,12.43-.67,1.7-1.37,3.37-1.52,5.2-.39,4.87-9.07,1.75-6.48-2.39z"/>
<path d="m305,507c1.86-1.75 4.23-2.65 6.5-3.78 6.84-3.11 14.12-4.95 21.44-6.46 11.78-2.35 23.73-1.32 35.57-.19 15.98,1.59 31.69,5.1 47.19,9.19 17.78,4.33 34.69,11.12 50.9,19.52 15.34,8.46 29.3,19.05 42.63,30.36 9.93,8.61 19.13,18.07 27.57,28.15 4.51,5.43 10.37,10.18 11.76,17.37-.4,1.84-.44,3.84-.66,5.5-.13,1-.6,1.06-1.37,.4-1.03-.87-2.09-2.36-3.88-2.83-4.96-4.56-7.01-11.22-10.83-16.66-7.31-10.64-15.1-20.88-24.5-29.8-12.58-11.92-26.05-22.97-41.38-31.22-16.1-8.35-32.9-15.16-50.6-19.33-15.54-3.44-31.18-6.25-47.07-7.41-11.47-.64-23.04-.7-34.4,1.21-6.85,1.56-13.42,3.84-19.16,8.01-2.51,1.54-4.74,3.36-7.77,3.61-4.2,.35-5.02-2.75-1.94-5.64z"/>
<path d="m302.92,514.45c.78,.03 1.5,.33 2.25,.5 .98,.22 1.02,.98 .11,1.42-.63,.31-1.26,.62-1.88,.93-1.84,.9-2.53-2.95-.48-2.85z"/>
<path d="m334.7,520.73c3.39,3.34 7.82,4.94 11.68,7.7 9.22,6.3 17.19,14.23 25.55,21.6 10.3,10.18 20.42,20.43 29.66,31.6 9.51,11.8 17.5,24.69 24.79,37.95 6.16,11.92 11.47,24.27 16.34,36.77 3.38,7.81 4.43,16.23 6.72,24.35 .27,.97-1.1,1.36-1.38,.39-2.28-8.08-5.97-15.63-7.97-23.83-3.91-12.76-8.45-25.3-14.96-37-7.24-13.17-15.11-26.03-24.78-37.59-9.28-10.91-19-21.65-30.56-30.2-8.35-7.27-17.33-13.65-26.11-20.37-3.69-2.8-6.44-6.61-10.68-8.54-2.12-.97 .04-4.47 1.7-2.83z"/>
<path d="m287.28,529.04c-1.76,.11-3.41,.99-5.03,1.68-5.64,2.84-11.16,5.57-16.68,8.89-9.61,7.11-18.29,15.19-26.67,23.7-10.35,10.61-20.47,21.43-30.37,32.46-9.56,10.78-18.74,21.88-27.56,33.26-6.77,8.37-12.33,17.51-16.95,27.21-3.07,6.25-4.93,12.91-6.7,19.6-.14,3.68-1.44,7.14-2.92,10.43-.11,1.05-.98,1.53-1.5,2.34-.55,.86-1.15,.79-1.42-.18s-1.03-1.7-.78-2.78c-.22-3.84 .01-7.68 1.93-11.17 2.18-6.85 5.38-13.34 8.98-19.54 5.58-9.25 11.71-18.17 18.23-26.78 8.84-11.41 18.04-22.54 27.62-33.34 9.92-11.05 20.06-21.89 30.43-32.51 8.42-8.56 16.62-17.42 25.63-25.33 4.91-4.82 9.51-8.98 15.34-12.4 2.02-1.31 4.04-2.73 6.23-3.72 5.45-2.48 8.16,7.8 2.19,8.18z"/>
<path d="m295.12,527.32c-.6,.16-.8,.81-1.18,1.19-.85,.85-.89,.75-1.69-.14-.32-.37-.45-1.02-1.03-1.17-2.68-.67 6.58-.57 3.9,.12z"/>
<path d="m297.89,530.92c-.19,1.16-.33,2.35-.52,3.54-.26,1.9-.45,3.81-.64,5.71 .05,2.25-.25,4.48-.39,6.71-.04,2.36-.23,4.66-.5,7-.09,1.47 .04,2.78 0,4.23 .22,.9 .08,1.87 .03,2.79 .24,1.46 .31,2.92 .39,4.39-.01,1.36 .23,2.71 .3,4.1 .66,1.01-.35,1.67-.51,2.44-1.31-.04-1.47,1.35-1.94,1.78-.1,.88 1.02,1.02 1.48,1.47 .52,.36 .9,.68 1.4,1.06 .55,.42-.02,1-.02,1.41-.9,.42-1.16,1.4-1.61,2.27-.39,1.42 .3,2.57 .62,3.82 .86,1.01 2.15,1.63 3.24,2.22-.1,1.27-1.47,1.29-2.58,1.71-1.62-.67-2.48,1.55-2.59,1.62 .98,.66 2.19,.55 3.33,.61 1.13,.31 .4,1.43 .55,1.98-1.27,1.28-1.47,2.6-1.72,4.29 .25,1.12 1.04,2.01 1.64,2.96 .9,.9-.6,1.21-.9,1.82-.48,.8-.12,1.81-.05,2.65 .66,.48 1.44,1.33 1.87,1.74-.19,1.56-1.28,2.25-2.29,3.28-1.28,1.11-.82,1.9-.8,3.25 1.22,.38 1.55,1.83 2.25,2.56 .1,1.31-.51,2.41-.92,3.6-.98,.79-.13,1.75-.19,2.52 .82,1.23 .71,2.38 .71,3.77-.09,1.48-1.24,2.71-2.06,3.85-.08,1.16 .87,1.8 1.52,2.67 .31,.86 .06,1.78 .08,2.51-1,.22-.61,1.15-.89,1.68 .44,1.16 .66,2.34 .99,3.5 .44,1.88-.51,2.27-1.34,3.58-2.57,.78-2.35,1.56-1.96,3.81 1.18,1.21 1.89,2.48 3.09,3.68 1.06,.73-.04,1.64-.06,2.45-.93-.02-.59,1.08-.82,1.5 .03,.97-.03,1.87 0,2.82 .09,.69 .44,1.3 .63,1.89 .07,1.19-.35,2.35-.58,3.51-.83,1.49-.28,2.42 .04,3.87 1.32,.22 1.05,1.66 1.32,2.08-.99,.72-2.72,1.64-3.69,2.2-.85,1.64-.57,3.26-.47,5.03 1.16,1.5 2.68,2.63 4.11,3.85 1.16,1.14 .06,1.45-.23,2.54-1.51,.82-1.89,2.07-2.61,3.44-.28,2.51 1.02,3.29 2.62,4.85 1.41,1.39 1.35,2.54 1.37,4.32-.09,1.44-1.18,2.11-1.97,3.15-2.01,1.07-.78,1.51-.85,2.72 1.21-.06 1.49,1.22 2.06,1.69-.27,.6-.84,.97-1.31,1.51-1.04,.87-.79,2.01-.97,3.2 .53,1.24 .54,2.53 .83,3.79 .22,1.51-.2,3-.42,4.46-.41,2.06-.03,3.56 .52,5.21-.24,1.28 .17,2.42 .47,3.63 .03,1.13-.15,2.22-.28,3.28-.23,1.22-.15,2.44-.19,3.66 .54,1.37-.04,2.55-.22,3.87-.12,1.5 .06,3.07 .17,4.6-.05,1.7-.02,3.41 .02,5.11 .11,1.29-.03,2.52-.13,3.79 .38,1.8 .75,2.41 .05,4.34-.15,1.21-.21,2.4-.3,3.61-.08,1.16-.24,2.32-.34,3.47-.1,2.37-1.84,3.22-3.7,4.59-.1,.35-.19,.7-.29,1.05-.28,.97-.64,1.09-1.38,.39-.27-.25-.54-.51-.81-.76-3.44-1.16-5.06-1.59-5.21-5.48-.1-1.46-.14-2.9-.05-4.37 .2-1.35 .33-2.68 .62-4.01 .58-1.65-.06-1.97 .82-3.49 .07-1.15 .09-2.25 .31-3.39 .04-1.46 .17-2.91-.09-4.36-.1-1.38-.02-2.81-.47-4.1-.51-1.3-1.05-2.42-.86-3.86-.2-1.47-.48-2.93-.68-4.4-.15-1.34-.36-2.71-.2-4.11 .41-1.22 .93-2.4 .84-3.74 .75-1.49 1.25-2.81 .92-4.88-.09-1.46-.4-2.98-.03-4.45 .3-1.08 .54-2.19 .82-3.31-.2-1.25 0-2.62-.99-3.59-.43-.88-1.3-1.4-1.15-2.5 .67-.33 1.34-1.14 2.25-1.11 .12-1.23 1.39-1.74-.36-3.21-.51-1.46-1.19-2.72-.84-4.31 .5-.5 1.4-.94 1.7-1.7 1.6-1.58 2.7-2.67 2.42-5.09-.76-1.35-1.2-2.73-2.67-3.57-.11-.56-1.68-1.07-.36-1.84 1.28-1.37 2.66-2.67 3.64-4.29-.1-1.82-.05-3.53-.98-5.16-.97-.65-2.41-1.83-3.66-2.4 .14-.2 .27-1.74 1.3-1.86 .29-1.43 .84-2.26-.06-3.67-.34-.79-.66-1.61-.95-2.39 .05-1.03 .12-2.14 .21-3.22 .03-1.21-.05-2.35 .17-3.55-.16-.72 .28-1.89-.52-2.38 .02-.16-.89-.8 .14-1.02 1.22-1.19 1.96-2.44 3.16-3.64 .45-2.25 .71-3.08-1.81-4.03-.83-1.28-1.61-1.54-1.23-3.31 .28-.88 .38-1.82 .88-2.65-.36-.46-.25-1.46-1.19-1.5-.11-.6-.47-1.28-.37-2.05 .48-1.37 1.24-2.47 .86-4.01-.71-1.44-1.78-2.95-1.84-4.59 .14-1.41 .08-2.56 1.09-3.71 .02-.74 .99-1.64 .07-2.41-.4-1.02-.95-1.89-.86-3.05 .68-.73 1.08-2.14 2.19-2.61 .04-1.43 .51-2.46-.71-3.69-.83-.85-1.81-1.49-2.15-2.71 .43-.4 1.26-1.14 1.8-1.69 .04-.9 .34-1.93-.16-2.77-.48-.86-1.47-1.35-.83-2.34 .67-.93 1.44-1.84 1.84-2.93-.13-1.65-.14-2.82-1.46-4.01 .06-.1-.5-1.24 .5-.71 1.06-.59 2.2-1.09 3.21-1.76-.06-.04-1.06-2.21-2.61-1.46-1.01-.29-2.48-.25-2.67-1.32 1.06-.71 2.32-1.45 3.08-2.57 .28-1.32 .91-2.57 .55-4-.52-.54-.66-1.81-1.68-1.78-.05-.33-.66-.8-.16-1.24 .43-.55 .56-1.4 1.3-1.66 .44-.45 1.55-.59 1.43-1.45-.46-.35-.83-1.67-2.04-1.54-.28-.98-1.21-1.54-.62-2.85 .08-1.38 .32-2.73 .32-4.09 .08-1.43 .15-2.84 .33-4.27 0-1.13-.24-2.36 .19-3.46 .16-1.51 .43-2.85 .62-4.37 .04-2.23 .2-4.44 .34-6.67 .02-2.25-.15-4.52 .07-6.77 .01-2.09-.01-4.17 .12-6.27 .11-1.4 .2-2.82 .45-4.17 1.34-7.25 11.48-5.65 10.3,1.63z"/>
<path d="m269.45,558.72c-4.32-2.41-8.63-5.44-12.79-8.09-.85-.54-.37-.19-1.18-.79-4.38-3.26-8.32-5.63-11.57-9.84-13.69-17.72 45.1,29.62 25.54,18.72z"/>
<path d="m260.89,573.06c-4.68-4.23-10.4-7.33-16.21-9.95-.92-.42-.42-.1-1.3-.6-5.54-3.07-12.08-6.51-14.92-12.25-12.45-25.12 53.23,41.6 32.43,22.8z"/>
<path d="m250.07,583.63c-8.16-1.8-15.09-6.86-22.73-10.23-.93-.41-.41-.16-1.18-.81-6.36-5.34-14.23-8.79-20.42-14.03-27.47-23.29 79.49,32.85 44.33,25.07z"/>
<path d="m234.39,596.47c-7.02,1.25-12.7-6.46-17.93-10.86-.78-.65-.25-.34-.89-1.12-4.34-5.29-8.9-10.56-14.71-14.17-25.52-15.89 63.13,20.87 33.53,26.15z"/>
<path d="m200.94,603.39c-.34-.14-.69-.28-1.03-.42-.94-.38-.52-.18-.9-1.11-.13-.32-.26-.63-.38-.95-.91-2.22 4.53,3.38 2.31,2.48z"/>
<path d="m199.78,640.53c-6.98-1.07-12.62-3.58-18.89-6.9-.89-.47-.34-.23-1.2-.77-5.41-3.41-13.21-5.75-17.27-10.02-20.15-21.17 66.25,22.12 37.36,17.69z"/>
<path d="m194.43,651.21c-6.18,.52-13.16-2.59-19.2-4.33-.98-.28-.41-.11-1.35-.47-5.61-2.15-13.85-4.21-18.01-7.91-21.44-19.1 67.17,10.35 38.56,12.71z"/>
<path d="m176.44,678.54c.5-7.65-10.34-12.56-16.05-16.22-.85-.55-.4-.16-1.2-.78-6-4.71-16.81-10.53-13.41-19.44 11.99-31.46 28.44,70.04 30.66,36.44z"/>
<path d="m172.87,675.57c-10.81-3.18-5.41-1.62-16.21-4.67-.97-.28-.43-.02-1.37-.39-10.46-4.2-5.21-2.14-15.75-6.18-23.23-8.9 57.2,18.25 33.33,11.24z"/>
<path d="m358.82,516.22c-6.88,1.01-11.21,8.83-15.13,13.55-.64,.78-.15,.42-.86,1.14-4.88,4.85-9.59,12.1-17.3,11.65-29.96-1.77 62.99-30.7 33.29-26.34z"/>
<path d="m363.03,536.21c-1.51,1.29-3.02,2.59-4.52,3.89-.77,.66-.28,.33-1.12,.9-1.65,1.12-3.3,2.24-4.94,3.37-7.82,5.32 17.75-14.33 10.58-8.16z"/>
<path d="m386.51,541.07c-6.91,2.37-14.1,4.63-20.97,7.38-.94,.38-.35,.25-1.32,.56-7,2.22-14.56,5.26-22.03,4.2-32.16-4.57 75.03-22.72 44.32-12.14z"/>
<path d="m394.75,553.88c-5.93-.02-16,3.3-21.88,5.04-.97,.29-.37,.24-1.35,.48-5.9,1.44-17.88,6.47-22.79,1.13-22.28-24.2 78.91-6.53 46.02-6.65z"/>
<path d="m403.17,575.3c-1.99,1.96-3.98,3.92-5.98,5.89-.92,.91-.23,.53-1.23,1.35-2.18,1.79-4.35,3.59-6.53,5.38-10.19,8.39 23.14-21.89 13.74-12.62z"/>
<path d="m394.26,557.47c-2.69,2.38-5.39,4.77-8.08,7.15-.17,.44-.35,.87-.52,1.31-.37,.94-.1,.72-1.09,.92-.47,.09-.93,.18-1.39,.27-2.9,2.14-5.8,4.28-8.71,6.41-14.51,10.68 33.29-28 19.79-16.06z"/>
<path d="m416.55,597.36c-.86,1.43-1.73,2.86-2.6,4.29-.52,.87-.25,.34-.91,1.11-1.07,1.26-2.14,2.52-3.21,3.78-5.21,6.13 10.9-16.05 6.72-9.18z"/>
<path d="m453.68,634.24c-.09-2.78-6.99,.6-8.79,1.01-3.03,.88-6.06,1.77-9.09,2.66-.97,.28-.38,.23-1.37,.43-3.11,.62-6.23,1.24-9.34,1.86-5.56,.26-10.1,1.17-9.89-5.29 .9-27.2 39.33,26.53 38.48-.67z"/>
<path d="m457.41,647.6c-7.53,1.68-2.8,.59-14.15,3.38-.98,.24-.38,.21-1.38,.36-11.63,1.73-6.77,1.35-14.54,1.73-21.58,1.06 51.17-10.16 30.07-5.47z"/>
<path d="m321.98,487.69c1.13,4.52 2.25,9.04 3.38,13.56 .24,.99 .22,.38 .41,1.37 .86,4.6 1.73,9.2 2.6,13.8 3.86,20.45-11.42-48.93-6.39-28.73z"/>
<path d="m327.75,477.07c6.71,5.04 9.07,13.24 12.13,20.47 .4,.93 .07,.42 .25,1.41 1.38,7.5 1.92,15.48 7.48,21.66 22.63,25.15-46.93-63.84-19.86-43.54z"/>
<path d="m351.23,485.49c.34,3.78 .68,7.56 1.03,11.34 .09,1.01 .19,.41 .21,1.42 .06,3.82 .13,7.64 .2,11.46 .3,17.15-2.99-41.3-1.44-24.22z"/>
<path d="m383.41,487.55c-.64,2.63-1.28,5.25-1.93,7.88-.24,.98 .02,.44-.32,1.39-.93,2.56-1.86,5.12-2.79,7.67-4.26,11.75 8.01-29.08 5.04-16.94z"/>
<path d="m399.56,476.48c.53,7.09-1.24,14.33-2.31,21.32-.15,1 .01,.43-.28,1.4-2.06,6.82-4.29,13.63-6.17,20.48-8.21,30.07 6.41-74.28 8.76-43.2z"/>
<path d="m421.43,495.85l-1.53,6.18c.1,.4 .2,.81 .3,1.22 .24,.98 .26,.65-.46,1.35-.29,.27-.57,.55-.86,.82-.79,1.98-1.59,3.95-2.39,5.92-4.31,10.66 7.71-26.64 4.94-15.49z"/>
<path d="m446.96,500.1c.93,3.9-1.03,7.35-.9,11.22 .03,1.01 .15,.57-.5,1.34-2.41,2.85-4.24,6.1-4.59,9.88-1.49,16.36 2.17-38.42 5.99-22.44z"/>
<path d="m462.04,509.34c-1.64,2.18-3.28,4.37-4.91,6.56-.61,.81-.23,.36-.92,1.1-1.87,1.99-3.75,3.98-5.62,5.97-8.62,9.18 18.99-23.71 11.45-13.63z"/>
<path d="m489.32,517.28c-4.09-5.7-11.08-1.92-15.67,1.29-2.42,4.97-1.62,2.55-2.67,7.17-.22,.98 .1,.51-.47,1.34-2.76,4.03-1.19,1.9-4.8,6.35-6.76,3.8-14.51,5.8-18.29-2.32-13.15-28.29 60.05,11.53 41.9-13.83z"/>
<path d="m492.14,532.93c-1.23,2.07-2.47,4.15-3.7,6.22-.52,.87-.22,.36-.83,1.17-1.46,1.91-2.92,3.82-4.39,5.73-6.81,8.92 14.67-22.76 8.92-13.12z"/>
<path d="m506.16,549.55c-1.29,.57-2.58,1.15-3.86,1.73-.92,.41-.36,.24-1.34,.5-1.37,.37-2.73,.73-4.1,1.1-6.74,1.8 15.67-6.19 9.3-3.33z"/>
<path d="m527.14,550.15c-5.48,3.04-10.16,6.94-14.86,11.02-.76,.66-.26,.35-1.13,.87-5.31,3.15-10.69,6.91-16.79,8.34-26.51,6.2 56.59-33.43 32.78-20.23z"/>
<path d="m527.5,566.87c-1.05,2.5-2.09,5-3.14,7.51-.39,.93-.11,.41-.58,1.3-1.28,2.4-2.55,4.8-3.82,7.2-5.85,11.07 12.38-27.55 7.54-16.01z"/>
<path d="m297.18,466.42c6.41-.09 12.4,2.76 18.27,5.04 .94,.36 .37,.19 1.26,.67 5.48,3 11.06,5.78 16.97,7.85 26,9.08-64.03-13.16-36.5-13.56z"/>
<path d="m323.37,433.7c3.06,6.36 6.51,12.51 9.66,18.84 .45,.9 .26,.35 .55,1.32 2.02,6.77 4.7,13.39 6.06,20.31 5.93,30.27-29.68-68.24-16.27-40.47z"/>
<path d="m355.29,439.19c.46,1.56 .92,3.13 1.38,4.69 .28,.97 .33,.35 .46,1.35 .22,1.65 .43,3.3 .65,4.94 1.04,7.9-4.74-18.63-2.49-10.98z"/>
<path d="m343.04,429.88c-2.78,6.87 2.09,14.05 4.62,20.39 .37,.94 .27,.35 .52,1.33 1.76,6.92 5.75,14.68 1.76,21.37-15.81,26.51 4.69-71.7-6.9-43.09z"/>
<path d="m367.1,429.75c1.26,3.79 2.52,7.58 3.78,11.38 .32,.95 .1,.4 .35,1.38 .99,3.86 1.99,7.72 2.98,11.58 4.47,17.37-12.75-41.36-7.11-24.34z"/>
<path d="m386.03,422.79c-1.63,5.8-2.54,11.57-3.22,17.55-.11,1 .07,.44-.21,1.41-1.74,5.87-3.65,11.48-6.48,16.92-12.18,23.33 16.99-61.23 9.91-35.88z"/>
<path d="m400.05,428.58c1.22,14.67 .47,8.65 1.81,18.1 .14,1 .09,.42-.03,1.43-1.11,9.42-.62,3.41-.51,18.07 .2,26.61-3.48-64.11-1.27-37.6z"/>
<path d="m431.66,435.31c-5.42,10.33-2,4.19-10.74,18.14-.53,.85-.16,.39-.76,1.2-9.81,13.24-5.74,7.51-12.39,17.06-17.6,25.27 38.21-63.66 23.89-36.4z"/>
<path d="m459,440.47c-7.31-1.92-14.43,18.77-15.49,20.86-.46,.9-.11,.43-.69,1.25-2.72,3.86-11.17,21.74-19.87,18.15-35.33-14.58 73.01-30.54 36.05-40.26z"/>
<path d="m475.74,455.24c-4.12,5.96-8.08,12.01-11.48,18.4-.47,.9-.17,.4-.8,1.19-4.51,5.68-8.26,12-13.49,17.05-22.78,22.01 43.75-62.72 25.77-36.64z"/>
<path d="m497.8,474.4c-5.2,5.98-11.67,10.66-16.65,16.85-.63,.79-.2,.42-1.06,.96-6.76,4.2-12.34,10.11-19.68,13.38-31.42,14.06 59.99-57.15 37.39-31.19z"/>
<path d="m507.81,485.8c-6.03,3.63-11.61,8.6-16.92,12.75-.79,.62-.27,.34-1.14,.85-6.01,3.56-12.01,7.77-18.63,10.41-28.81,11.47 63.24-40.02 36.69-24.01z"/>
<path d="m29.152,627.47c1.605,4.18 3.21,8.35 4.816,12.53 .362,.94 .317,.32 .625,1.28 1.376,4.29 2.751,8.58 4.127,12.87 6.121,19.07-16.757-45.38-9.568-26.68z"/>
<path d="m41.966,612.1c-5.03,6.42 1.91,16.01 4.19,21.43 .392,.93 .379,.28 .7,1.24 2.27,6.8 8.51,16.35 1.509,22.53-24.205,21.36 13.496-70.62-6.399-45.2z"/>
<path d="m261.85,533.68c-5.21-4.92-8.02-11.83-12.15-17.78-.58-.83-.24-.34-.73-1.23-3.47-6.38-5.64-13.31-9.84-19.12-18.39-25.44 45.54,59.68 22.72,38.13z"/>
<path d="m236.8,537.87c-5.76-4.66-8.19-12.06-12.59-18.05-.6-.81-.35-.28-.79-1.19-3.2-6.6-5.01-14.14-9.74-19.78-20.6-24.57 48.06,59.18 23.12,39.02z"/>
<path d="m218.02,545.37c-3.2-6.94-10.14-11.58-15.73-16.36-.77-.65-.36-.22-1.07-.94-5.21-5.33-12.26-10.7-13.68-18.53-5.95-32.73 44.44,66.02 30.48,35.83z"/>
<path d="m193.2,559.1c1.37-8.05-8.12-12.67-13.37-16.62-.81-.61-.44-.12-1.18-.8-5.31-4.91-14.2-10.35-11.6-18.81 9.26-30.21 20.85,67.38 26.15,36.23z"/>
<path d="m175.8,571.09c-2.15-4.94-10.69-12.4-16.14-16.93-.77-.65-.36-.23-1.05-.97-5.23-5.57-13.31-12.32-13.19-19.83 .57-34.25 44.02,69.15 30.38,37.73z"/>
<path d="m141.97,570.71c-.98-.61-1.97-1.21-2.95-1.81-.86-.53-.39-.19-1.09-.93-.78-.83-1.57-1.67-2.36-2.5-4.01-4.26 11.39,8.29 6.4,5.24z"/>
<path d="m155.63,582.33c-4.55-3.11-12.42-12.1-16.62-16.06-.74-.69-.37-.23-1.02-1-5-5.97-10.85-12.15-13.01-19.38-9.65-32.26 58.44,55.46 30.65,36.44z"/>
<path d="m50.136,616.35c2.035,2.45 4.071,4.9 6.106,7.35 .646,.78 .339,.27 .898,1.11 1.769,2.67 3.538,5.33 5.308,8 8.037,12.1-21.599-27.63-12.312-16.46z"/>
<path d="m64.053,611.92c1.202,.83 2.404,1.66 3.607,2.5 .83,.57 .435,.14 1.128,.87 1.014,1.08 2.028,2.15 3.042,3.23 4.948,5.24-13.705-10.71-7.777-6.6z"/>
<path d="m69.557,589.61c7.886,6.38 3.722,2.79 12.371,10.9 .737,.69 .356,.24 1.006,1.01 7.629,9.08 3.938,5.02 10.939,12.29 16.827,17.47-43.178-39.45-24.316-24.2z"/>
<path d="m91.034,577.97c2.019,2.85 4.038,5.71 6.057,8.56 .584,.83 .302,.31 .816,1.18 1.784,3.02 3.563,6.04 5.353,9.06 8.06,13.65-21.38-31.75-12.226-18.8z"/>
<path d="m100.31,573.49c1.6,2.44 3.21,4.88 4.82,7.32 .56,.84 .26,.33 .73,1.22 1.37,2.59 2.73,5.17 4.1,7.75 6.25,11.84-17.022-27.46-9.65-16.29z"/>
<path d="m100.45,558.95c3.98,3.68 7.84,9.95 12.56,10.46-.88-4.13-3.18-7.75-3.78-11.87 4.8-3.74 5.9,2.57 8.63,7.29 1.23,1.69 2.46,3.37 3.68,5.06 .6,.82 .39,.26 .8,1.19 .87,1.93 1.73,3.86 2.59,5.8 .54,1.36 3.22,10.71 3.71,10.01-2.85-2.9-5.67-6.01-9.09-8.2 1,3.71 3.39,10.74 5.78,15.41 13.87,27.11-47.254-55.8-24.88-35.15z"/>
<path d="m18.197,537.24c.788,1.65 1.577,3.29 2.366,4.94 .437,.91 .265,.35 .545,1.32 .507,1.76 1.015,3.52 1.523,5.28 2.421,8.4-8.214-19.42-4.434-11.54z"/>
<path d="m29.352,515.47c-.974,7.81 1.055,14.75 3.063,22.17 .264,.97 .499,.35 .438,1.36-.474,7.84 2.767,15.68-1.688,23.06-17.043,28.22 2.272-79.3-1.813-46.59z"/>
<path d="m33.569,521.91c4.893,9.73 2.376,6.16 6.477,11.38 .624,.8 .433,.26 .748,1.22 2.102,6.4 .656,2.21 4.689,12.43 7.197,18.23-20.72-42.54-11.914-25.03z"/>
<path d="m46.939,519.6c.732,2.33 1.465,4.66 2.198,7 .303,.96 .331,.33 .529,1.32 .486,2.43 .971,4.86 1.457,7.29 2.241,11.2-7.61-26.5-4.184-15.61z"/>
<path d="m54.994,514.37c.672,2.68 1.343,5.35 2.014,8.03 .246,.98 .145,.4 .297,1.4l1.251,8.19c1.92,12.56-6.654-29.94-3.562-17.62z"/>
<path d="m64.004,505.43c-.481,5.06 2.128,9.37 3.922,13.36 .414,.92 .282,.38 .343,1.39 .231,3.83 .789,10.01 .226,14.28-2.723,20.59-2.527-49.71-4.491-29.03z"/>
<path d="m111.35,494.6c2.19,7.16 .77,2.84 4.59,12.86 .36,.94 .21,.37 .45,1.35 2.55,10.48 1.86,5.95 2.69,13.48 2.24,20.21-13.69-47.12-7.73-27.69z"/>
<path d="m73.378,496.71c-3.307,7.03 5.125,17.8 8.325,23.86 .472,.9 .24,.36 .553,1.32 2.398,7.34 8.718,18.88 3.201,25.92-22.906,29.23 3.719-84.71-12.079-51.1z"/>
<path d="m92.197,500.25c.727,12.24-.235,7.04 1.972,15.75 .248,.98 .267,.39 .266,1.4-.005,9.11 .055,3.74-.331,16.13-.733,23.56-3.304-56.81-1.907-33.28z"/>
<path d="m103.78,490.87c4.69,4.81 5.55,13.72 7.8,20.09 .34,.95 .19,.38 .41,1.36 1.69,7.4 2.13,14.15 3.7,21.19 6.79,30.55-33.781-65.03-11.91-42.64z"/>
<path d="m124.44,483.87c-.7,7.35 .33,15.02 3.76,21.62 .46,.9 .46,.42 .25,1.41-1.58,7.47-1.01,15.39-4.01,22.59-12.41,29.78 3.08-77.73 0-45.62z"/>
<path d="m163.43,482.4c-.22,4.63 2.44,8.84 4.48,12.8 .46,.9 .34,.36 .44,1.36 .46,4.59 2.38,9.64 .5,14.01-8.04,18.62-4.46-48.43-5.42-28.17z"/>
<path d="m140.67,480.29c-3.88,6.73 1.38,17.26 3.55,24.12 .31,.96 .21,.38 .38,1.38 1.24,7.61 5.21,18.82-.8,25.09-24.82,25.87 14.75-81.66-3.13-50.59z"/>
<path d="m148.92,480.4c.56,7.2 2.81,13.89 5.25,20.61 .35,.95 .22,.38 .45,1.36 1.59,7.03 3.24,14.08 2.68,21.36-2.39,31.11-10.79-74.44-8.38-43.33z"/>
<path d="m160.19,493.07c.39,1.66 .77,3.32 1.15,4.98 .23,.99 .16,.41 .21,1.41 .07,1.71 .15,3.42 .23,5.12 .36,8.22-3.44-19.52-1.59-11.51z"/>
<path d="m188.23,477.05c.94,4.48 1.88,8.95 2.81,13.43 .26,.46 .52,.92 .77,1.39 .49,.88 .43,.39 .31,1.39-.06,.54-.12,1.07-.18,1.6 .69,4.53 1.38,9.06 2.07,13.58 3.4,22.31-10.41-53.48-5.78-31.39z"/>
<path d="m236.09,476.43c2.38-1.81 4.76-2.49 7.45-2.58-1.67,5.27-5.76,13.66-7.84,18.57-.4,.93-.06,.43-.51,1.34-2.01,4.05-5.79,15.35-11.25,16.97-.84-2.46-1.26-3.44 1.32-5.73 16.14-14.36-6.35-15.48 10.83-28.57z"/>
<path d="m274.88,479.04c-6.14,9.3-2.46,3.58-10.81,17.28-.52,.87-.1,.43-.69,1.25-9.3,13.18-5.05,7.84-12.27,16.41-19.25,22.86 40.24-59.88 23.77-34.94z"/>
<path d="m155.9,423.41c1.15,2.53 2.3,5.07 3.46,7.6 .41,.92 .17,.38 .48,1.34 .87,2.64 1.75,5.27 2.62,7.91 4.01,12.14-11.85-28.49-6.56-16.85z"/>
<path d="m163.03,412.69c2.66,10.23 .93,5.07 5.35,15.44 .4,.93 .18,.38 .46,1.35 3.16,10.85 2,5.5 3.59,16.05 3.61,23.89-15.51-56.21-9.4-32.84z"/>
<path d="m188.22,420.06c.73,9.49 .3,5.12 1.19,13.12 .12,1 .15,.42 .06,1.42-.69,8.05-.4,3.66-.76,13.17-.72,19.59-1.99-47.25-.49-27.71z"/>
<path d="m208.85,415.45c-3.34,5.64-3.23,12.73-3.48,18.61-.04,1.01 .2,.46-.13,1.42-1.93,5.72-3.49,12.88-7.39,18.05-16.91,22.35 25.25-62.22 11-38.08z"/>
<path d="m240.42,430.91c-2.64,4.84-3.45,10.07-3.93,15.3-.09,1.01 .15,.5-.32,1.4-2.43,4.64-4.99,9.64-7.65,14.28-11.67,20.36 23.13-51.59 11.9-30.98z"/>
<path d="m255.67,436.56c1.85,7.76-3,14.65-3.62,22.27-.08,1 .08,.49-.44,1.35-3.88,6.43-6.57,13.74-6.69,21.28-.53,32.65 3.2-76.66 10.75-44.9z"/>
<path d="m276.37,467.19c-2.06,1.41-4.12,2.83-6.18,4.24-.83,.57-.3,.31-1.19,.78-2.21,1.18-4.43,2.36-6.64,3.54-10.23,5.46 23.57-15.13 14.01-8.56z"/>
<path d="m391.01,400.69c1.01-1.77 2.03-3.54 3.05-5.3 .5-.88 .13-.41 .74-1.22 1.23-1.64 2.45-3.28 3.68-4.91 5.79-7.73-12.29,19.8-7.47,11.43z"/>
<path d="m385.05,401.22c1.49-7.05-.85-4.06-2.61-.3-2.26,4.99-2.08,7.85 2.68,10.08 .51-5.26-2.44-13.79-3.87-19.74-.23-.98-.1-.41-.22-1.41-.71-6.24-4.51-17.06 .89-20.47 6.17,.53 8.4,4.91 7.44,10.73-.33,3.66-.42,8.49 1.8,1.24 4.29-14.06-9.14,34.25-6.11,19.87z"/>
<path d="m354.07,420.35c-4.76-6.48-8.71-14.34-12.75-21.36-.51-.87-.21-.37-.55-1.31-2.8-7.64-6.04-15.55-7.97-23.49-8.47-34.92 42.57,75.1 21.27,46.16z"/>
<path d="m358.31,419.66c3.5-6.91 1.46-14.68-.67-21.67-.29-.97-.4-.33-.52-1.33-.86-7.45-2.71-15.79 1.99-22.32 18.72-26.02-15.28,73.92-.8,45.32z"/>
<path d="m337.79,425.5c-3.18-6.04-9.32-9.69-14.57-13.76-.8-.62-.36-.23-1.06-.97-4.62-4.87-10.77-8.92-12.96-15.51-9.27-27.93 42.3,56.27 28.59,30.24z"/>
<path d="m329.85,440.06c-6.14-4.43-13.47-10.45-20.74-14.68-.87-.5-.42-.13-1.2-.76-6.69-5.47-14.42-10.89-17.39-19.06-12.67-34.77 69.32,56.16 39.33,34.5z"/>
<path d="m315.75,457.49c.14,.46-.28,.92-.42,1.38-1.96-9.06-9.8-11.47-17.3-15.4-.9-.47-.52,.1-1.36-.46-7.63-5.08-15.5-8.29-15.64-18.3 1.3-2.51 .45-2.72 2.95-1.75 30.94,11.98 22.1,2.8 31.77,34.53z"/>
<path d="m310.89,472.5c-7.47-1.36-14.71-3.97-22.01-6.06-.97-.28-.42-.04-1.38-.38-7.2-2.51-14.49-4.92-21.2-8.59-29.19-15.98 77.32,21.02 44.59,15.03z"/>
<path d="m311.77,482.9c-7.77-.64-15.48-.67-23.32-.46-1.01,.03-.42,.12-1.43,.07-7.96-.33-15.86-.2-23.27-3.49-31.15-13.81 81.98,6.67 48.02,3.88z"/>
<path d="m404.32,558.44c-2.91,4.79-11.5,16.03-11.9,16.58-.6,.81-.15,.44-.91,1.1-1.1,.95-11.23,9.46-15.38,13.56-21.16,20.9 43.61-56.67 28.19-31.24z"/>
<path d="m420.22,572.88c-1.54,.13-13.23,15.03-15.32,17.16-.71,.72-.34,.24-1.14,.86-2.46,1.93-15.01,16.37-18.94,13.11-25.67-21.26 68.62-33.86 35.4-31.13z"/>
<path d="m430.71,590.58c-1.84-6.89-13.08,5.98-18.72,10.34-.8,.61-.31,.28-1.18,.8-7.38,4.44-18.35,16-22.47,4.27-10.56-30.08 50.57,15.4 42.37-15.41z"/>
<path d="m442.85,613.57c-.36-10.53-14.89,.22-19.56,2.41-.92,.43-.37,.21-1.33,.52-7.28,2.35-20.7,10.23-21.09-2.18-.94-29.67 43.02,28.92 41.98-.75z"/>
<path d="m364.39,477.08c1.91,5.68 2.19,11.74 3.6,17.57 .24,.98 .16,.41 .13,1.42-.23,5.99 .54,11.89 .58,17.87 .17,26.24-12.65-61.74-4.31-36.86z"/>
<path d="m420.31,485.29c-3.74,5.39-4.13,13.61-5.24,19.31-.2,.99 .04,.46-.37,1.38-2.37,5.38-4.41,14.31-10.27,17.82-25.27,15.12 32.7-62.68 15.88-38.51z"/>
<path d="m435.36,490.15c-2.91,6.19-5.82,12.48-8.62,18.75-.41,.92-.15,.39-.67,1.26-3.86,6.53-6.33,12.16-11.91,16.99-22.79,19.74 34.03-64.29 21.2-37z"/>
<path d="m508.16,535.11c-3.46-5.26-14.12,8.75-16.43,10.76-.76,.66-.27,.34-1.14,.85-5.05,3-16.37,14.51-20.38,5.11-11.5-26.97 54.08,7.77 37.95-16.72z"/>
<path d="m59.136,599.22c2.59,6.48 5.235,7.97 10.94,14.46 .682,.78 .377,.25 .958,1.1 5.637,8.27 8.407,9.13 7.971,16.81-1.522,26.81-29.841-57.3-19.869-32.37z"/>
<path d="m77.86,576.88c4.601,4.62 11.354,13.22 14.063,16.53 .64,.78 .363,.26 .839,1.15 1.986,3.72 8.368,13.42 9.678,19.56 6.56,30.86-46.853-59.58-24.58-37.24z"/>
<path d="m315.58,530.46c-.33,4.38-4.42,6.14-9.01,8.35-.27,.13-.15,.14-.43,.03-7.56-2.97-10.84-5.57-8.95-13.68 3.08-13.17 19.4-8.19 18.39,5.3z"/>
<path d="m284.08,526.77c.42,6.98-3.61,7.29-10.19,8.5-.07,.8-.15,1.6-.23,2.4-.03,.3-.46,.26-.43-.04 .08-.8 .16-1.61 .24-2.41-4.97-2.14-9.57-3.04-8.45-8.7 2.63-13.22 18.24-13.2 19.06,.25z"/>
<path d="m296.41,541.05c-2.43,3.72-6.84,2.85-10.91,3.2-.3,.02-.2,.07-.4-.16-2.59-3.1-6.2-5.85-5.24-10.17 2.77-12.44 23.53-3.53 16.55,7.13z"/>
<path d="m170.01,600.61c7.07,2.89 13.23,7.56 19.92,11.25 .89,.49 .42,.15 1.16,.84 5.57,5.19 11.24,10.26 17.31,14.87 26.43,20.04-69.1-39.5-38.39-26.96z"/>
<path d="m175.94,590.41c7.12,4.4 14.53,8.08 21.98,11.92 .9,.46 .39,.16 1.23,.72 6.76,4.48 14.92,8.68 19.86,15.48 21.41,29.41-74.03-47.22-43.07-28.12z"/>
<path d="m182.08,578.47c9.09,1 15.04,8.89 22.31,13.79 .84,.57 .31,.28 1.01,1.01 5.96,6.24 12.02,13.29 20.5,15.83 36.21,10.85-81.4-34.76-43.82-30.63z"/>
<path d="m429.22,668.66c12.89-3.83 7.99-1.79 15.09-5.02 .92-.42 .38-.36 1.39-.32 7.83,.24 2.54,.35 15.72-2.14 22.97-4.34-54.61,14.12-32.2,7.48z"/>
<path d="m518.23,598.13c5.51-2.12 13.79-12.02 14.93-13.13 .72-.71 .11-.53 .98-1.04 2.97-1.77 11.95-8.58 18.32-9.46 29.14-4.01-61.68,34.18-34.23,23.63z"/>
<path d="m504.42,586.03c6.36-2.53 11.29-10.17 15.47-14.95 .66-.76 .16-.42 .9-1.11 4.94-4.57 10.58-11.96 17.95-12.67 31.5-3.04-63.72,40.46-34.32,28.73z"/>
<path d="m224.19,418.37c-3.59,10.29-1.54,3.7-5.19,20.02-.22,.99-.01,.43-.3,1.4-4.73,16.11-1.98,9.75-6.86,19.63-13.44,27.17 22.32-69.67 12.35-41.05z"/>
<path d="m204.03,476.47c-1.21,4.98 1.6,11.44 2.9,16.37 .26,.98 .15,.4 .26,1.41 .47,4.4 3.17,13.24-.6,16.99-17.49,17.37 3.24-58.72-2.56-34.77z"/>
</g>
</svg>
