<svg xmlns="http://www.w3.org/2000/svg" viewBox="0 0 350 405.45" xmlns:xlink="http://www.w3.org/1999/xlink">
<defs>
<filter id="filter3172">
<feGaussianBlur stdDeviation="6.66667"/>
</filter>
<filter width="1.351" x="-.175" y="-.747" height="2.495" id="filter3428">
<feGaussianBlur stdDeviation="45.86686"/>
</filter>
<filter id="filter3249">
<feGaussianBlur stdDeviation="2.87956"/>
</filter>
<linearGradient gradientTransform="matrix(.93592 .03593 0 .93592 -59.411 -9.066)" id="linearGradient3172" y1="620.6" x1="274.7" y2="571.56" gradientUnits="userSpaceOnUse" x2="508.42">
<stop offset="0" stop-color="#fff"/>
<stop offset="1" stop-color="#fff" stop-opacity="0"/>
</linearGradient>
<linearGradient gradientTransform="matrix(.95436 -.00761 0 .95436 -65.819 2.656)" id="linearGradient3174" y1="663.62" x1="661.36" y2="568.83" gradientUnits="userSpaceOnUse" x2="566.57">
<stop offset="0" stop-color="#fff"/>
<stop offset="1" stop-color="#fff" stop-opacity="0"/>
</linearGradient>
<linearGradient gradientTransform="translate(-91.905 -27.434)" id="linearGradient3170" y1="580.17" y2="508.72" gradientUnits="userSpaceOnUse" x2="0">
<stop offset="0" stop-opacity=".678"/>
<stop offset=".57" stop-opacity=".329"/>
<stop offset="1" stop-opacity="0"/>
</linearGradient>
<linearGradient id="linearGradient3176" y1="850.19" y2="788.82" x1="157.41" gradientUnits="userSpaceOnUse" x2="477.9">
<stop offset="0" stop-color="#b0d6c4"/>
<stop offset="1" stop-color="#4f8e6f"/>
</linearGradient>
<linearGradient gradientTransform="matrix(.05768 0 0 .04284 1102.6 379.33)" id="linearGradient3184" y1="342.92" x1="230.26" y2="235.18" gradientUnits="userSpaceOnUse" x2="271.06">
<stop offset="0" stop-color="#4a2600"/>
<stop offset="1" stop-color="#673100"/>
</linearGradient>
<linearGradient gradientTransform="matrix(.06879 0 0 .06879 1099.5 370.55)" id="linearGradient3182" y1="342.92" x1="230.26" y2="235.18" gradientUnits="userSpaceOnUse" x2="271.06">
<stop offset="0" stop-color="#8ec09b"/>
<stop offset="1" stop-color="#dbecd1" stop-opacity=".557"/>
</linearGradient>
<linearGradient gradientTransform="matrix(-.05768 0 .02897 .0474 1130.3 377.75)" id="linearGradient3186" y1="330.36" x1="266.85" y2="237.22" gradientUnits="userSpaceOnUse" x2="189.25">
<stop offset="0" stop-color="#985f36"/>
<stop offset="1" stop-color="#673100"/>
</linearGradient>
<radialGradient cx="106.71" cy="309.01" gradientTransform="matrix(.06672 .01918 -.03272 .12005 1109.4 352.7)" id="radialGradient3178" r="71.787" gradientUnits="userSpaceOnUse">
<stop offset="0" stop-color="#8ec8a2"/>
<stop offset=".5" stop-color="#b0d3be"/>
<stop offset="1" stop-color="#41ae8b"/>
</radialGradient>
<radialGradient fx="291.43" fy="224.85" cx="245.71" cy="400.65" gradientTransform="matrix(.06879 0 0 .05143 1099.5 377.92)" spreadMethod="reflect" id="radialGradient3180" r="240" gradientUnits="userSpaceOnUse">
<stop offset="0" stop-color="#8ec8a2"/>
<stop offset=".5" stop-color="#aed3be"/>
<stop offset="1" stop-color="#4fae8b"/>
</radialGradient>
</defs>
<g transform="matrix(1.38812 0 0 2.83411 -382.20249 -1314.8142)">
<path d="m546.97,490.34c-.24,.02-.48,.03-.72,.07h-.03c-.03,0-.11,.03-.13,.03-.01,0-.08,.03-.09,.03-21.96,3.69-60.08,9.62-83.44,18-2.43,.89-4.26,2.98-4.81,5.53-.11,.5-.06,.75-.06,1.12h-.03c-.01,.08 0,.15 0,.22 0,.25-.05,.66-.04,.82h.1c-.02,1.83 .49,3.71 1.78,5.15 6.82,7.64 11.26,17.38 13.72,26.44 2.45,9.03 2.8,17.72 2.25,21.37-.51,3.36-3.59,11.35-5.35,18.76-.86,3.65-1.59,7.65-.71,11.9 1.01,4.88 4.8,9.22 10.31,10.47 .03,.01 .06,.02 .09,.03 .16,.03 .31,.04 .47,.06 21.83,3.67 26.5,5.14 48.44,13h.03c1.66,.59 3.43,.46 5-.09l.03,.06c.25-.07 .35-.12 .53-.19 .26-.08 .58-.16 .75-.21 .07-.02 .13-.04 .19-.07 21.16-7.5 42.4-13.32 63.37-16.84 .06-.01 .11-.02 .16-.03 .21-.04 .45-.1 .66-.16 5.41-1.43 8.47-6.01 9.28-10.62 .7-4.03 .12-7.83-.63-11.44-1.51-7.32-4.24-15.2-4.81-18.97-.55-3.63-.18-12.33 2.28-21.37 2.46-9.06 6.9-18.8 13.72-26.44 1.23-1.38 1.78-3.2 1.78-5.06h.13c.02-.22-.07-.44-.07-.66 0-.11 .05-.21 .04-.31 .17,1.3 .19,1.25 0-.1h-.07c-.02-.53 0-1.07-.15-1.62-.68-2.48-2.61-4.46-5.06-5.22-22.24-6.84-44.77-10.68-67.41-13.59-.52-.09-.94-.1-1.47-.07h-.03z" transform="matrix(.98844 0 0 1 -86.609 -26.405)"/>
<path fill="#bb7637" d="m455.35,467.47c-.1,.01-.19,.02-.29,.03-.23,.04-.28,.06-.12,.03-.8,.14-1.5,.59-1.96,1.26-.46,.66-.63,1.48-.48,2.28 4.06,20.72-.42,40.86-1.62,52.25-.37,3.48-1.5,8.08-2.47,12.78-.98,4.7-1.82,9.49-1.35,13.84 .12,1.04 .78,1.94 1.72,2.38v.37c.33-.01 .75-.02 1.25-.06v-.03h.32c9.21-.95 17.96-7.18 29.21-18.19 11.26-11.01 25.16-27.04 44.41-48.59 .69-.76 .94-1.82 .66-2.81-.27-.99-1.03-1.77-2-2.07-21.86-6.72-44.15-10.54-66.66-13.44-.21-.03-.42-.04-.62-.03z"/>
<path fill="#cd853f" d="m455.1,467.5c-.06,.01-.11,.02-.16,.03-22,3.7-60.2,9.74-82.72,17.82-.97,.35-1.69,1.18-1.9,2.19-.22,1.01 .1,2.06 .84,2.78 21.26,20.71 35.96,36.49 47.81,47.06 11.85,10.56 21.22,16.26 31.38,15.22 .79-.08 1.53-.48 2.03-1.1s.74-1.42 .65-2.22c-.32-3.01 .31-7.42 1.25-11.96s2.12-9.21 2.57-13.38c1.11-10.5 5.91-31.78 1.56-54.03-.3-1.55-1.75-2.6-3.31-2.41z"/>
<path fill="url(#linearGradient3170)" d="m455.35,467.47c-.09,.01-.17,.02-.25,.03h-.04c-.23,.04-.28,.06-.12,.03-22,3.7-60.2,9.74-82.72,17.82-.97,.35-1.69,1.18-1.91,2.18-.21,1.01 .11,2.07 .85,2.79 21.26,20.71 35.96,36.49 47.81,47.06 11.24,10.02 20.24,15.65 29.81,15.31 .15,0 .38-.02 .57-.03 .22-.01 .45-.01 .68-.03 .11-.01 .21-.02 .32-.03 9.21-.95 17.96-7.18 29.21-18.19 11.26-11.01 25.16-27.04 44.41-48.59 .69-.76 .93-1.83 .66-2.82-.28-.98-1.03-1.76-2-2.06-21.86-6.72-44.15-10.54-66.66-13.44-.09-.01-.19,.01-.28,0-.12,0-.23-.03-.34-.03z"/>
<path fill="#b16c31" d="m373.06,485.82c-1.15,.06-2.16,.78-2.6,1.85-.44,1.06-.23,2.29 .54,3.15 7.44,8.33 12.14,18.71 14.75,28.31 2.61,9.59 3.06,18.48 2.35,23.25-.7,4.59-3.78,12.24-5.41,19.12-.82,3.45-1.34,6.76-.69,9.91s3.17,6.11 6.81,6.94c.07,.01 .13,.02 .19,.03 21.93,3.68 27.4,5.34 49.38,13.22 .87,.3 1.84,.19 2.62-.32 14.17-9.16 23.59-14.61 29.94-19.46 6.35-4.86 9.81-9.68 10.5-16.16 .43-4.04-1.41-8.04-4.06-12.5-2.66-4.46-6.34-9.33-10.47-14.34-8.27-10.03-18.35-20.59-25.25-28.6-.5-.58-1.21-.95-1.97-1.03-23.58-2.29-43.76-5.41-65.44-13.19-.38-.14-.78-.2-1.19-.18z"/>
<path fill="url(#linearGradient3172)" d="m375.76,488c-1.08,.02-2.02,.66-2.44,1.64-.41,.98-.21,2.13 .51,2.96 6.97,8.07 11.37,17.96 13.81,27.03 2.44,9.08 2.86,17.41 2.19,21.85-.65,4.27-3.53,11.32-5.06,17.7-.76,3.2-1.25,6.28-.64,9.25s2.96,5.83 6.37,6.74l.18,.03c20.52,4.24 25.64,5.98 46.21,14.15 .82,.32 1.73,.24 2.46-.2 13.25-8.07 22.07-12.83 28.01-17.15 5.95-4.31 9.19-8.7 9.83-14.74 .4-3.76-1.32-7.57-3.8-11.84s-5.93-8.97-9.8-13.8c-7.74-9.68-17.17-19.93-23.63-27.67-.47-.57-1.13-.94-1.84-1.04-22.07-2.99-40.95-6.64-61.25-14.69-.35-.15-.73-.22-1.11-.22z"/>
<path fill="#cd853f" d="m521.72,481.47c-.41,0-.81,.09-1.19,.25-20.49,8.95-58.43,16.06-81.4,17.44-1.37,.09-2.5,1.09-2.75,2.44-4.37,22.27 .42,43.55 1.53,54.06 .65,6.21 2.51,13.76 3.65,19.81 .77,4.04 2.36,16.19-3.18,16.13 1.34,.35 2.23-.14 3.43-.5 21.37-7.58 42.87-13.49 64.16-17.07 .08-.01 .17-.03 .25-.06 3.39-.89 5.56-3.95 6.09-7 .54-3.04 .09-6.29-.62-9.72-1.42-6.84-4.13-14.48-4.84-19.22-.72-4.76-.24-13.65 2.37-23.25 2.61-9.59 7.31-19.97 14.75-28.31 .79-.88 .99-2.14 .5-3.22s-1.56-1.78-2.75-1.78z"/>
<path fill="url(#linearGradient3174)" d="m519.8,483.67c-.39,0-.78,.09-1.13,.25-19.56,8.69-55.77,15.77-77.69,17.26-1.31,.09-2.39,1.06-2.63,2.34-4.17,21.29 .4,41.56 1.46,51.59 .63,5.92 2.4,13.11 3.49,18.88 .73,3.85 2.25,15.43-3.04,15.41 1.29,.33 2.13-.14 3.28-.5 20.4-7.4 40.91-13.2 61.23-16.77 .08-.02 .16-.04 .24-.07 3.23-.88 5.3-3.81 5.81-6.72s.08-6.01-.59-9.27c-1.36-6.53-3.94-13.79-4.63-18.31-.68-4.54-.22-13.03 2.27-22.2 2.49-9.18 6.98-19.13 14.08-27.14 .75-.85 .94-2.05 .47-3.07-.46-1.03-1.49-1.7-2.62-1.68z"/>
<path d="m434.56,521.88c-.78,15.27 1.08,28.52 1.47,36.24 .33,6.53 1.8,14.46 2.63,20.82 .4,3.1 1,10.76-.87,14.63l4.02-.33c-1.2,.38-2.09,.89-3.43,.52 5.54,.07 3.95-12.46 3.18-16.63-1.14-6.24-3-14.02-3.65-20.42-.77-7.45-3.28-20.16-3.35-34.83z"/>
</g>
<g transform="matrix(3.1682 0 0 3.1682 -1255.2 -107.73)">
<path fill="#734700" fill-rule="evenodd" d="m438.3,53.302c29.08-12.286 34-22.035 64.51-3.161-10.26,6.009-19.42,13.445-35.84,15.806-18.2-3.321-22.5-8.08-28.67-12.645z"/>
</g>
<g transform="matrix(4.08318 -5.8957 5.43029 4.43295 -5802.51746 5580.13946)">
<path fill="#6a3500" d="m1133.3,255.08a3.1334,4.23 0 1,1 -6.2,0 3.1334,4.23 0 1,1 6.2,0z" transform="matrix(.56667 0 0 .65432 489.65 86.713)"/>
<path fill="#472e00" d="m1131.1,255.34a.6789,3.76 0 1,1 -1.3,0 .6789,3.76 0 1,1 1.3,0z" transform="matrix(.56667 0 0 .65432 489.53 86.645)"/>
</g>
<g transform="matrix(5.93119 -3.59812 3.31425 6.43905 -7314.3825 2466.36914)">
<path fill="#6a3500" d="m1133.3,255.08a3.1334,4.23 0 1,1 -6.2,0 3.1334,4.23 0 1,1 6.2,0z" transform="matrix(.56667 0 0 .65432 489.65 86.713)"/>
<path fill="#472e00" d="m1131.1,255.34a.6789,3.76 0 1,1 -1.3,0 .6789,3.76 0 1,1 1.3,0z" transform="matrix(.56667 0 0 .65432 489.53 86.645)"/>
</g>
<g transform="matrix(6.7942 0 0 7.3762 -7425.90314 -1864.02167)">
<path fill="#6a3500" d="m1133.3,255.08a3.1334,4.23 0 1,1 -6.2,0 3.1334,4.23 0 1,1 6.2,0z" transform="matrix(.48474 .29349 -.33888 .55973 670.35 -213.18)"/>
<path fill="#472e00" d="m1131.1,255.34a.6789,3.76 0 1,1 -1.3,0 .6789,3.76 0 1,1 1.3,0z" transform="matrix(.48474 .29349 -.33888 .55973 670.29 -213.3)"/>
</g>
<g transform="matrix(6.7942 0 0 7.3762 -7404.04256 -1905.62014)">
<path fill="#6a3500" d="m1133.3,255.08a3.1334,4.23 0 1,1 -6.2,0 3.1334,4.23 0 1,1 6.2,0z" transform="matrix(.50181 -.26324 .30396 .57943 485.94 416.03)"/>
<path fill="#472e00" d="m1131.1,255.34a.6789,3.76 0 1,1 -1.3,0 .6789,3.76 0 1,1 1.3,0z" transform="matrix(.50181 -.26324 .30396 .57943 485.8 416.02)"/>
</g>
<g transform="matrix(6.7942 0 0 7.3762 -7520.3155 -1894.84826)">
<path fill="#6a3500" d="m1133.3,255.08a3.1334,4.23 0 1,1 -6.2,0 3.1334,4.23 0 1,1 6.2,0z" transform="matrix(.5273 -.20752 .23962 .60887 481.27 346.47)"/>
<path fill="#472e00" d="m1131.1,255.34a.6789,3.76 0 1,1 -1.3,0 .6789,3.76 0 1,1 1.3,0z" transform="matrix(.5273 -.20752 .23962 .60887 481.13 346.45)"/>
</g>
<g transform="matrix(6.7942 0 0 7.3762 -7465.18882 -1917.18407)">
<path fill="#6a3500" d="m1133.3,255.08a3.1334,4.23 0 1,1 -6.2,0 3.1334,4.23 0 1,1 6.2,0z" transform="matrix(.51931 .22678 -.26186 .59964 622.92 -142.53)"/>
<path fill="#472e00" d="m1131.1,255.34a.6789,3.76 0 1,1 -1.3,0 .6789,3.76 0 1,1 1.3,0z" transform="matrix(.51931 .22678 -.26186 .59964 622.84 -142.64)"/>
</g>
<g transform="matrix(6.7942 0 0 7.3762 -7500.67266 -1869.40761)">
<path fill="#6a3500" d="m1133.3,255.08a3.1334,4.23 0 1,1 -6.2,0 3.1334,4.23 0 1,1 6.2,0z" transform="matrix(.56226 .07054 -.08145 .64923 529.4 14.397)"/>
<path fill="#472e00" d="m1131.1,255.34a.6789,3.76 0 1,1 -1.3,0 .6789,3.76 0 1,1 1.3,0z" transform="matrix(.56226 .07054 -.08145 .64923 529.29 14.315)"/>
</g>
<g transform="matrix(6.7942 0 0 7.3762 -7569.4226 -1882.49228)">
<path fill="#6a3500" d="m1133.3,255.08a3.1334,4.23 0 1,1 -6.2,0 3.1334,4.23 0 1,1 6.2,0z" transform="matrix(.55746 -.10175 .11749 .64369 487.11 214.3)"/>
<path fill="#472e00" d="m1131.1,255.34a.6789,3.76 0 1,1 -1.3,0 .6789,3.76 0 1,1 1.3,0z" transform="matrix(.55746 -.10175 .11749 .64369 486.99 214.25)"/>
</g>
<g transform="matrix(6.7942 0 0 7.3762 -7524.75098 -1824.73599)">
<path fill="#6a3500" d="m1133.3,255.08a3.1334,4.23 0 1,1 -6.2,0 3.1334,4.23 0 1,1 6.2,0z" transform="matrix(.54988 .13691 -.15809 .63494 569 -64.804)"/>
<path fill="#472e00" d="m1131.1,255.34a.6789,3.76 0 1,1 -1.3,0 .6789,3.76 0 1,1 1.3,0z" transform="matrix(.54988 .13691 -.15809 .63494 568.9 -64.899)"/>
</g>
<g transform="matrix(6.7942 0 0 7.3762 -7490.53442 -1807.40594)">
<path fill="#6a3500" d="m1133.3,255.08a3.1334,4.23 0 1,1 -6.2,0 3.1334,4.23 0 1,1 6.2,0z" transform="matrix(.56667 0 0 .65432 489.65 86.713)"/>
<path fill="#472e00" d="m1131.1,255.34a.6789,3.76 0 1,1 -1.3,0 .6789,3.76 0 1,1 1.3,0z" transform="matrix(.56667 0 0 .65432 489.53 86.645)"/>
</g>
<g transform="matrix(5.81428 3.81578 -3.5148 6.31232 -5439.44174 -5836.15242)">
<path fill="#6a3500" d="m1133.3,255.08a3.1334,4.23 0 1,1 -6.2,0 3.1334,4.23 0 1,1 6.2,0z" transform="matrix(.56667 0 0 .65432 489.65 86.713)"/>
<path fill="#472e00" d="m1131.1,255.34a.6789,3.76 0 1,1 -1.3,0 .6789,3.76 0 1,1 1.3,0z" transform="matrix(.56667 0 0 .65432 489.53 86.645)"/>
</g>
<g transform="matrix(6.7942 0 0 7.3762 -7430.97226 -1822.80339)">
<path fill="#6a3500" d="m1133.3,255.08a3.1334,4.23 0 1,1 -6.2,0 3.1334,4.23 0 1,1 6.2,0z" transform="matrix(.56667 0 0 .65432 489.65 86.713)"/>
<path fill="#472e00" d="m1131.1,255.34a.6789,3.76 0 1,1 -1.3,0 .6789,3.76 0 1,1 1.3,0z" transform="matrix(.56667 0 0 .65432 489.53 86.645)"/>
</g>
<g transform="matrix(6.59049 -1.79285 1.65139 7.15506 -7637.22208 256.29618)">
<path fill="#6a3500" d="m1133.3,255.08a3.1334,4.23 0 1,1 -6.2,0 3.1334,4.23 0 1,1 6.2,0z" transform="matrix(.56667 0 0 .65432 489.65 86.713)"/>
<path fill="#472e00" d="m1131.1,255.34a.6789,3.76 0 1,1 -1.3,0 .6789,3.76 0 1,1 1.3,0z" transform="matrix(.56667 0 0 .65432 489.53 86.645)"/>
</g>
<g transform="matrix(4.87491 5.13787 -4.73234 5.29248 -4100.14855 -7097.41284)">
<path fill="#6a3500" d="m1133.3,255.08a3.1334,4.23 0 1,1 -6.2,0 3.1334,4.23 0 1,1 6.2,0z" transform="matrix(.56667 0 0 .65432 489.65 86.713)"/>
<path fill="#472e00" d="m1131.1,255.34a.6789,3.76 0 1,1 -1.3,0 .6789,3.76 0 1,1 1.3,0z" transform="matrix(.56667 0 0 .65432 489.53 86.645)"/>
</g>
<g transform="matrix(.28737 7.36955 -6.78819 .31198 1610.59531 -8331.10992)">
<path fill="#6a3500" d="m1133.3,255.08a3.1334,4.23 0 1,1 -6.2,0 3.1334,4.23 0 1,1 6.2,0z" transform="matrix(.56667 0 0 .65432 489.65 86.713)"/>
<path fill="#472e00" d="m1131.1,255.34a.6789,3.76 0 1,1 -1.3,0 .6789,3.76 0 1,1 1.3,0z" transform="matrix(.56667 0 0 .65432 489.53 86.645)"/>
</g>
<g transform="matrix(2.45935 6.87594 -6.33355 2.67 -917.40652 -8418.23542)">
<path fill="#6a3500" d="m1133.3,255.08a3.1334,4.23 0 1,1 -6.2,0 3.1334,4.23 0 1,1 6.2,0z" transform="matrix(.56667 0 0 .65432 489.65 86.713)"/>
<path fill="#472e00" d="m1131.1,255.34a.6789,3.76 0 1,1 -1.3,0 .6789,3.76 0 1,1 1.3,0z" transform="matrix(.56667 0 0 .65432 489.53 86.645)"/>
</g>
<g transform="matrix(6.06393 -3.32693 3.06431 6.5832 -7462.97108 2150.21446)">
<path fill="#6a3500" d="m1133.3,255.08a3.1334,4.23 0 1,1 -6.2,0 3.1334,4.23 0 1,1 6.2,0z" transform="matrix(.56667 0 0 .65432 489.65 86.713)"/>
<path fill="#472e00" d="m1131.1,255.34a.6789,3.76 0 1,1 -1.3,0 .6789,3.76 0 1,1 1.3,0z" transform="matrix(.56667 0 0 .65432 489.53 86.645)"/>
</g>
<g transform="matrix(6.7942 0 0 7.3762 -7490.85124 -2640.38908)">
<path fill="url(#linearGradient3176)" filter="url(#filter3428)" d="m655.24,788.82a261.74,61.373 0 1,1 -523.47,0 261.74,61.373 0 1,1 523.47,0z" transform="matrix(.06713 0 0 .04552 1094.5 374.23)"/>
<path fill="url(#radialGradient3178)" fill-rule="evenodd" d="m1112.1,387.37c-.9-3.44-3.7-2.52-6.3-2.28-4,.15-5.1,11.05 .9,15.52-2.2-12.28-.7-18.45 2.5-12.32 1.2,1.14 2.4-.45 2.9-.92z"/>
<path fill="none" filter="url(#filter3249)" stroke="#fff" stroke-width="3.8" d="m150.44,242.37c-68.755-80.49-143.7,52.99-41.49,172.13" transform="matrix(.06972 0 0 .07162 1098.9 370.07)"/>
<path fill="url(#radialGradient3180)" d="m1137.8,394.12c0,8.78-7.4,16.74-16.5,16.74s-16.5-7.96-16.5-16.74c0-6.31 7.2-7.94 16.5-7.94s16.5,1.28 16.5,7.94z"/>
<path fill="#f9f9f9" filter="url(#filter3172)" d="m531.57,287.39c0,37.85-94.72,75.11-211.43,75.11s-211.43-37.26-211.43-75.11 94.72-62.03 211.43-62.03 211.43,24.18 211.43,62.03z" transform="matrix(.06879 0 0 .06879 1099.5 370.96)"/>
<path fill="url(#linearGradient3182)" stroke="#fefcfc" stroke-width=".124" d="m1135.3,390.7c0,2.38-6.3,4.73-14,4.73s-13.9-2.35-13.9-4.73c0-2.39 6.2-3.91 13.9-3.91s14,1.52 14,3.91z"/>
<path fill="url(#linearGradient3184)" d="m1133.8,392.33c-1,1.68-6.2,2.78-12.7,2.78s-11.1-1.23-12.2-2.65c-1-3.26 25.7-3.13 24.9-.13z"/>
<path opacity=".91" fill="url(#linearGradient3186)" d="m1119.3,390.51c-3.3,.32-7,3.23-1,4.02 6.6,.87 16.6-.9 14.7-2.33-2.3-1.84-11.4-2.23-13.7-1.69z"/>
</g>
</svg>
