<svg xmlns="http://www.w3.org/2000/svg" viewBox="0 0 439.45 671.98">
<g stroke="#29e1ba">
<g fill="#f3e609" transform="translate(-115.765 -268.711)">
<path d="m344.67,323.25a15.296,78.519 0 1,1 -30.59,0 15.296,78.519 0 1,1 30.59,0z" transform="matrix(.02251 -.99975 .99975 .02251 -135.82 808.43)"/>
<path d="m344.67,323.25a15.296,78.519 0 1,1 -30.59,0 15.296,78.519 0 1,1 30.59,0z" transform="matrix(.54823 .83633 -.83633 .54823 300.86 101.03)"/>
<path d="m344.67,323.25a15.296,78.519 0 1,1 -30.59,0 15.296,78.519 0 1,1 30.59,0z" transform="matrix(.60528 -.79601 .79601 .60528 -241.51 491.75)"/>
</g>
<g transform="translate(-115.765 -268.711)">
<path fill="#008000" stroke-width=".852" d="m330.17,524.11l14.42-.29 8.46,414.07-28.7,.59 5.82-414.37z"/>
<path fill="#00ac00" d="m281.45,797.55l6.11,2.04 28.56,138.68h-34.67v-140.72z"/>
<path fill="#70e400" d="m403.81,797.43l2.04,2.04-6.12,138.68h-34.67l38.75-140.72z"/>
<path fill="#3cd800" d="m367.1,799.47l8.16-2.04 4.08,142.76h-34.67l22.43-140.72z"/>
<path fill="#24d000" d="m305.92,795.51l6.12,2.04 28.55,138.68h-34.67v-140.72z"/>
<path fill="#008000" stroke-width=".799" d="m322.08,708.21c10.11,33.52 33.59,86.96 19.19,91.55-14.41,4.58-67.53-34.26-77.63-67.77-10.1-33.52-49.63-73.22-35.23-77.81 14.41-4.58 83.57,20.51 93.67,54.03z"/>
<path fill="#a40" d="m391.58,502.73a36.71,37.73 0 1,1 -73.42,0 36.71,37.73 0 1,1 73.42,0z" transform="matrix(1.9053 0 0 1.7727 -338.58 -401.7)"/>
</g>
<g fill="#f3e609" transform="translate(-115.765 -268.711)">
<path d="m344.67,323.25a15.296,78.519 0 1,1 -30.59,0 15.296,78.519 0 1,1 30.59,0z" transform="translate(6.1184 24.474)"/>
<path d="m344.67,323.25a15.296,78.519 0 1,1 -30.59,0 15.296,78.519 0 1,1 30.59,0z" transform="matrix(.97584 -.21847 .21847 .97584 -11.68 381.61)"/>
<path d="m344.67,323.25a15.296,78.519 0 1,1 -30.59,0 15.296,78.519 0 1,1 30.59,0z" transform="matrix(.96258 -.271 .271 .96258 -116.06 140.1)"/>
<path d="m344.67,323.25a15.296,78.519 0 1,1 -30.59,0 15.296,78.519 0 1,1 30.59,0z" transform="matrix(.96258 .271 -.271 .96258 157.03 -42.492)"/>
<path d="m344.67,323.25a15.296,78.519 0 1,1 -30.59,0 15.296,78.519 0 1,1 30.59,0z" transform="matrix(.81731 .5762 -.5762 .81731 162.82 136.44)"/>
<path d="m344.67,323.25a15.296,78.519 0 1,1 -30.59,0 15.296,78.519 0 1,1 30.59,0z" transform="matrix(.86734 -.49772 .49772 .86734 -27.458 486.22)"/>
<path d="m344.67,323.25a15.296,78.519 0 1,1 -30.59,0 15.296,78.519 0 1,1 30.59,0z" transform="matrix(.85443 -.51957 .51957 .85443 -202.61 279.67)"/>
<path d="m344.67,323.25a15.296,78.519 0 1,1 -30.59,0 15.296,78.519 0 1,1 30.59,0z" transform="matrix(.79899 .60135 -.60135 .79899 362.57 -65.787)"/>
<path d="m344.67,323.25a15.296,78.519 0 1,1 -30.59,0 15.296,78.519 0 1,1 30.59,0z" transform="matrix(-.01696 -.99986 .99986 -.01696 158.59 825.3)"/>
<path d="m344.67,323.25a15.296,78.519 0 1,1 -30.59,0 15.296,78.519 0 1,1 30.59,0z" transform="translate(10.197 307.96)"/>
<path d="m344.67,323.25a15.296,78.519 0 1,1 -30.59,0 15.296,78.519 0 1,1 30.59,0z" transform="matrix(.56632 -.82418 .82418 .56632 11.025 648.23)"/>
<path d="m344.67,323.25a15.296,78.519 0 1,1 -30.59,0 15.296,78.519 0 1,1 30.59,0z" transform="matrix(.97317 .2301 -.2301 .97317 48.55 232.68)"/>
<path d="m344.67,323.25a15.296,78.519 0 1,1 -30.59,0 15.296,78.519 0 1,1 30.59,0z" transform="matrix(.53971 .84185 -.84185 .53971 560.38 -22.44)"/>
</g>
</g>
</svg>
