<svg xmlns="http://www.w3.org/2000/svg" viewBox="0 0 270.942 232.881" xmlns:xlink="http://www.w3.org/1999/xlink" enable-background="new 0 0 270.942 232.881">
<g fill-rule="evenodd">
<g fill="#5f6062">
<path d="m122.74,8.267c-1.327,4.525-7.367,2.005-11.075,1.749-12.551-.868-29.231-1.221-43.132-2.914 1.599-1.948 4.992-1.653 6.412-1.749 15.955-1.07 33.89,2.174 47.8,2.914z"/>
<path d="m181.03,12.348c-1.476,3.171-5.868,1.899-8.744,1.749-11.801-.617-22.402-1.717-33.226-2.332-4.014-.228-8.012,.633-11.075-1.166-.095-.678 .128-1.037 .582-1.166-.095-.678 .129-1.037 .583-1.166 15.494,.342 27.505,1.649 40.805,2.332 3.2,.163 8.62-1.151 11.09,1.749z"/>
<path d="m86.599,10.599c-.098-1.264 2.067-.264 2.915-.583 .097,1.264-2.068,.264-2.915,.583z"/>
<path d="m92.428,10.016c.941-.164 1.003,.551 1.749,.583 .231,1.131-2.656,.852-1.749-.583z"/>
<path d="m102.34,11.182c-1.265,1.785-3.281-.559-5.247,0-.649-1.206 5.037-.307 5.247,0z"/>
<path d="m119.24,15.262c-1.473,2.508-5.979,1.35-8.743,1.166-12.4-.823-29.758-1.96-44.885-2.915v-1.749c.472-.111 .581-.584 1.166-.583 15.92,1.246 32.379,2.021 47.216,2.915 1.67,.101 4.4-.782 5.24,1.166z"/>
<path d="m108.17,11.182c-4.18,1.742-6.69-.651 0,0z"/>
<path d="m240.49,17.594c-15.125,.012-29.652-1.64-43.136-2.332-3.435-.176-9.008,.832-11.075-1.166 .049-.923-.28-2.224 .583-2.332 .519-.358 1.042-.704 1.166,0 11.159-.257 23.638,1.044 34.975,1.749 6.93,.431 14.36-.65 17.49,4.081z"/>
<path d="m234.08,11.765c4.55-1.044 9.187,2.854 11.658,5.829 .024,5.465-2.158,8.723-3.497,12.824-1.345-.988-3.197-1.467-2.915-4.081 2.548-2.312 1.205-6.721 3.497-8.161-1.77-3.284-4.23-5.878-8.74-6.411z"/>
</g>
<g>
<path d="m20.146,14.097c.684-.684 2.31,.605 1.749,1.166 .016-.016-2.082-.833-1.749-1.166z"/>
<path fill="#5f6062" d="m178.12,19.343c-16.542,1.16-36.773-2.05-52.462-1.749-.11-.472-.585-.581-.583-1.166-.095-.678 .129-1.037 .583-1.166 13.197-.141 28.138,1.715 41.387,2.332 3.57,.166 8.49-1.321 11.07,1.749z"/>
<path d="m24.81,17.594c.841-1.721 2.347,.695 1.749,2.332-1.61,.249-.547-2.174-1.749-2.332z"/>
</g>
<g fill="#5f6062">
<path d="m116.33,21.674c-3.116,1.788-7.544,.841-11.075,.583-12.56-.917-27.752-1.576-41.969-2.915-.992,.214-1.1-.455-1.166-1.166 .472-.111 .581-.584 1.166-.583 13.073,.525 32.114,1.315 46.05,2.332 2.2,.161 6.02-1.022 6.99,1.749z"/>
<path d="m214.84,17.594c-1.28,1.781-3.73-.673 0,0z"/>
<path d="m239.9,22.257c-.994,2.447-6.646,1.453-12.241,1.166-13.616-.698-30.313-1.953-43.136-2.915-.678,.095-1.037-.128-1.166-.583-.095-.678 .129-1.037 .583-1.166 19.57,.615 39.11,1.244 55.97,3.498z"/>
<path d="m139.64,19.926c-.099-1.264 2.067-.264 2.914-.583 .11,1.264-2.06,.264-2.91,.583z"/>
<path d="m150.14,20.508c.434-1.314 3.27-.228 4.663-.583-.43,1.315-3.27,.228-4.66,.583z"/>
<path d="m175.2,24.589c-1.18,2.67-7.734,1.461-12.241,1.166-8.646-.566-19.296-1.117-27.98-1.749-4.567-.333-9.219,.083-12.823-1.749-.095-.678 .128-1.037 .582-1.166 .52-.358 1.043-.704 1.166,0 13.334,.019 28.509,1.566 41.97,2.332 3.16,.18 6.74-.947 9.32,1.166z"/>
<path d="m163.54,20.508c-3.08,1.785-5.6-.726 0,0z"/>
<path d="m113.41,26.92c-2.259,2.651-7.917,1.439-13.407,1.166-12.875-.642-27.789-2.29-40.804-2.332-.111-.472-.585-.581-.583-1.166-.095-.678 .129-1.037 .583-1.166 17.812,1.188 38.22,1.144 54.214,3.498z"/>
<path d="m237.57,28.086c-1.473,3.554-5.789,1.271-8.16,1.166-13.061-.581-31.891-1.927-48.382-2.332-.309-.469-.608-.946-.583-1.749 19.17-.947 39.44,1.378 57.12,2.915z"/>
<path d="m245.73,26.337c2.314-.275-.265,2.727 0,4.081-1.76-.882 .49-2.558 0-4.081z"/>
<path d="m172.87,31.001c-3.234,1.791-8.84,.887-14.572,.583-10.877-.577-24.746-1.982-38.473-2.332-.111-.472-.585-.581-.583-1.166-.095-.678 .129-1.037 .583-1.166 13.473-.018 27.59,1.624 41.387,2.332 3.78,.195 10.02-1.088 11.65,1.749z"/>
<path d="m109.92,32.75c-1.04,4.133-8.076,2.044-12.242,1.749-12.718-.902-30.707-1.303-43.135-2.915v-1.166c-.095-.678 .128-1.037 .583-1.166 20.479,1.386 39.314,1.231 54.794,3.498z"/>
</g>
<g>
<path d="m260.89,29.835h2.332c.588,1.753-1.299,1.033-2.332,1.166v-1.166z"/>
</g>
<g fill="#5f6062">
<path d="m235.24,34.499c-1.368,2.135-4.767,1.231-6.995,1.166-14.083-.412-34.529-2.733-50.131-2.915v-1.166c-.095-.678 .129-1.037 .583-1.166 16.539,.649 32.646,.865 50.714,2.332 1.64,.131 4.76-.036 5.84,1.749z"/>
<path d="m142.56,31.584c-4.18,1.742-6.69-.651 0,0z"/>
<path d="m150.72,32.167c-1.28,1.78-3.73-.673 0,0z"/>
<path d="m169.96,37.413c-2.79,2.939-7.355,.756-11.076,.583-9.86-.459-21.358-1.29-31.477-1.749-3.617-.164-9.322,1.524-11.658-1.749-.095-.678 .128-1.037 .582-1.166 .52-.358 1.043-.704 1.166,0 13.673-.107 28.222,1.157 44.302,2.332 2.49,.182 7.21-1.419 8.17,1.749z"/>
<path d="m69.694,33.916c.676,.489 1.562,.769 2.915,.583 .101,.95-3.814,1.176-2.915-.583z"/>
<path d="m74.357,35.082c.62-1.323 3.664-.222 5.246-.583-.62,1.322-3.664,.221-5.246,.583z"/>
<path d="m82.518,35.664c.808-1.329 4.058-.217 5.829-.583-.808,1.33-4.057,.218-5.829,.583z"/>
<path d="m37.051,35.664c2.445-.214 .416,1.899 .583,2.915-1.356-.874-.889-1.426-.583-2.915z"/>
<path d="m107,39.162c-1.537,4.621-8.868,2.099-14.573,1.749-8.814-.542-19.717-1.236-28.563-1.749-5.456-.316-10.276,.571-13.407-1.166-.164-.942 .551-1.004 .583-1.749 16.538-.262 37.275,1.667 55.96,2.915z"/>
<path d="m94.176,35.664c-1.28,1.781-3.733-.673 0,0z"/>
<path d="m205.51,36.247c.072-1.288 2.473-.248 3.497-.583-.07,1.288-2.47,.248-3.5,.583z"/>
<path d="m232.91,40.328c-.942,3.059-4.942,1.726-6.995,1.749-11.375,.126-24.943-1.796-36.724-2.332-4.632-.21-11.25,1.131-13.989-1.749-.095-.678 .129-1.037 .583-1.166 17.53,.345 39.7,1.095 57.12,3.498z"/>
<path d="m118.08,37.996c.073-1.288 2.473-.248 3.498-.583-.08,1.288-2.48,.248-3.5,.583z"/>
<path d="m132.65,37.996c-1.28,1.78-3.73-.673 0,0z"/>
<path d="m139.06,39.162c.072-1.287 2.473-.248 3.497-.583-.07,1.287-2.48,.247-3.5,.583z"/>
<path d="m143.14,39.162c.251-1.303 2.873-.236 4.08-.583-.25,1.303-2.87,.236-4.08,.583z"/>
<path d="m167.04,43.825c-.467,3.286-4.572,1.224-6.412,1.166-14.282-.452-30.419-1.466-41.97-2.332-1.779-.133-5.553,.677-6.412-1.749-.095-.678 .129-1.037 .583-1.166 .997,.123 1.51-.994 1.749,0 13.603,.266 28.922,1.485 42.553,2.332 3.44,.214 7.59-1.103 9.91,1.749z"/>
<path d="m148.39,39.745c1.442-1.385 14.406-.292 15.739,.583-5.82,.372-9.88-1.008-15.74-.583z"/>
<path d="m66.197,41.493c-.098-1.264 2.067-.264 2.915-.583 .097,1.264-2.069,.264-2.915,.583z"/>
<path d="m69.694,41.493c.168-.708 9.283,.122 6.412,.583-2.142-.189-5.16,.498-6.412-.583z"/>
<path d="m84.267,42.659c.251-1.303 2.873-.236 4.08-.583-.251,1.304-2.872,.236-4.08,.583z"/>
<path d="m102.92,47.323c-3.07,3.008-10.821,.861-15.739,.583-8.987-.509-19.317-1.274-28.563-1.749-4.423-.227-9.187,.604-12.241-1.166v-1.749c.472-.111 .581-.585 1.166-.583 12.081,.934 31.207,1.476 46.633,2.332 2.739,.152 7.144-.327 8.744,2.332z"/>
<path d="m211.34,43.242c.18-.791 1.459-.484 2.331-.583-.18,.791-1.46,.484-2.33,.583z"/>
<path d="m230.58,47.323c-.078,3.508-4.111,2.287-6.412,2.332-5.316,.103-13.886-1.234-21.568-1.749-10.863-.728-22.307-.221-29.729-2.332v-1.166c-.095-.678 .129-1.037 .583-1.166 18.39,.884 40.25,1.47 57.13,4.081z"/>
</g>
<g>
<path d="m260.89,47.323c-1.771-.719 .633-2.005 0-3.498 1.64,.589-.16,2.476 0,3.498z"/>
</g>
<g fill="#5f6062">
<path d="m164.13,50.237c-.765,4.73-7.593,1.951-11.076,1.749-13.916-.807-31.324-1.1-44.301-2.915v-1.749c18.36-.903 38.34,1.281 55.38,2.915z"/>
<path d="m52.207,47.323c-5.576,1.719-7.781-.675 0,0z"/>
<path d="m188.61,49.071c.181-.791 1.46-.483 2.332-.583-.18,.791-1.46,.484-2.33,.583z"/>
<path d="m243.4,48.488c1.243-.343 2.116,3.482 0,2.915 .41-1.795 .41-1.12 0-2.915z"/>
<path d="m199.68,49.071c-3.962,1.398-12.453,.135-4.081,0 1.54-.025 2.72,.019 4.08,0z"/>
<path d="m200.85,49.071c.346,.475 8.369,.835 5.247,1.166-.3,.032-4.22,1.039-5.25-1.166z"/>
</g>
<g>
<path d="m255.64,49.071c1.132-.231 .852,2.655-.583,1.749v-1.166c.5,.107 .55-.227 .58-.583z"/>
</g>
<g fill="#5f6062">
<path d="m99.423,54.317c-1.7,2.209-5.591,1.357-8.744,1.166-13.369-.813-33.757-2.408-48.382-3.498v-1.166c-.095-.678 .128-1.037 .583-1.166 13.445,.182 32.216,2.011 47.799,2.915 2.843,.165 6.844-1.558 8.744,1.749z"/>
<path d="m227.66,54.317c.102,4.538-7.645,1.895-10.492,1.749-7.742-.397-16.73-.62-25.065-1.166-8.317-.545-16.327-.656-22.733-2.332v-1.749c.472-.111 .581-.584 1.165-.583 11.127,.305 25.435,1.591 37.307,2.332 7.58,.474 14.89-.232 19.81,1.749z"/>
<path d="m219.5,50.237c-1.063,1.937-4.37-.092-7.577,.583-.77-1.193 5.5-.315 7.58-.583z"/>
<path d="m237.57,50.237c.678-.095 1.037,.129 1.166,.583-1.128,4.896-2.724,9.324-4.663,13.407-1.9-3.281 2.97-9.298 3.49-13.99z"/>
<path d="m115.16,51.986c5.521-1.119 16.108-.071 21.567,1.166h-4.663c-5.35-.675-10.94-1.116-16.91-1.166z"/>
<path d="m140.81,52.569c-1.28,1.78-3.73-.673 0,0z"/>
<path d="m161.21,57.232c.057,3.467-4.159,1.741-5.829,1.749-10.409,.048-22.291-1.146-34.392-1.749-4.209-.209-8.298-.241-11.658-.583-1.239-.126-3.189,.203-4.081-1.749-.095-.678 .129-1.037 .583-1.166 17.31,.299 36.58,1.099 55.38,3.498z"/>
<path d="m143.14,53.734c.62-1.323 3.664-.222 5.246-.583-.62,1.324-3.67,.223-5.25,.583z"/>
<path d="m157.13,54.317c.14-.843 4.797-1.355 4.08,.583-1.37-.186-2.19-.921-4.08-.583z"/>
<path d="m183.36,55.483c-2.48,1.786-4.98-.714 0,0z"/>
<path d="m187.44,56.649c.158-.531 2.581-1.548 2.331-.583 2.766-.239 7.104,.134 4.664,.583-1.19,.22-3.89-.149-6.99,0z"/>
<path d="m95.925,60.729c-3.46,3.016-9.401,1.491-14.573,1.166-7.042-.442-15.411-1.313-23.899-1.749-6.699-.344-14.342,.234-19.236-1.749-.095-.678 .129-1.037 .583-1.166-.095-.678 .128-1.037 .583-1.166 12.569,.755 31.472,2.196 45.467,2.915 3.63,.187 8.832-1.278 11.075,1.749z"/>
<path d="m196.19,56.066c.775,1.042 8.84,.123 5.829,1.166-1.78-.559-5.92,1.248-5.83-1.166z"/>
<path d="m225.33,61.312c-.331,3.608-6.275,1.278-8.743,1.166-15.248-.692-34.081-1.645-49.548-2.915v-1.166c-.095-.678 .129-1.037 .583-1.166 13.215,.866 29.446,1.425 44.885,2.332 4.57,.269 9.31-.067 12.83,1.749z"/>
<path d="m216,57.232c-4.17,1.742-6.69-.651 0,0z"/>
<path d="m114,58.398c-.099-1.264 2.067-.264 2.914-.583 .1,1.264-2.07,.264-2.91,.583z"/>
<path d="m224.17,57.815c-1.28,1.78-3.74-.673 0,0z"/>
<path d="m127.4,59.563c-2.595-.708-5.974-.633-9.327-.583-.57-.562 8.94-1.712 9.33,.583z"/>
<path d="m134.98,58.981c-.674,2.318-3.653-.268-6.412,.583-1.11-1.147 4.67-.347 6.41-.583z"/>
<path d="m143.72,59.563c-2.681,1.366-10.026,.223-3.497,0 1.1-.037 2.26,.029 3.5,0z"/>
<path d="m144.31,59.563c2.137,.664 13.001,.715 8.16,1.166-.92,.086-7.48,.885-8.16-1.166z"/>
<path d="m158.3,63.644c-.062,4.309-7.605,2.561-12.824,2.332-7.056-.31-15.124-1.181-22.734-1.749-8.054-.601-15.842,.318-20.984-1.749-.164-.941 .551-1.003 .583-1.749 18.85-.217 36.47,.969 55.95,2.915z"/>
<path d="m46.377,60.729c3.186-.483 2.476,2.917 0,0z"/>
<path d="m55.121,61.312c-5.033,1.729-7.109-.677 0,0z"/>
<path d="m178.12,62.478c1.38-1.34 5.232-.208 7.578-.583-1.39,1.341-5.24,.209-7.58,.583z"/>
<path d="m195.6,62.478c-.397,2.126-2.32-.124-4.663,.583-1.56-1.034 3.42-.425 4.66-.583z"/>
<path d="m92.428,67.725c-4.629,2.334-10.198,.882-15.156,.583-13.131-.794-27.998-1.323-42.553-2.915-.7-.765-.227-.917 0-1.749 .472-.111 .581-.585 1.166-.583 16.839,2.168 33.474,1.232 50.713,2.915 1.779,.173 4.485,.018 5.83,1.749z"/>
<path d="m207.84,63.644c-2.167,.982-6.744-.625-10.492,0 .21-1.178 8.24-.609 10.49,0z"/>
<path d="m164.13,63.644c22.188,1.377 39.074,1.253 59.457,4.081-.979,4.592-7.32,1.945-11.075,1.749-14.658-.768-32.207-1.168-48.382-2.915-.01-.972-.01-1.943-.01-2.915z"/>
<path d="m208.43,64.227c1.38-1.341 5.231-.209 7.578-.583-1.39,1.341-5.24,.209-7.58,.583z"/>
<path d="m216.59,64.81c.997-1.334 4.449-.214 6.412-.583-1,1.334-4.45,.214-6.41,.583z"/>
<path d="m129.15,65.976c-4.17,1.741-6.69-.651 0,0z"/>
<path d="m141.98,66.559c-3.388,1.38-11.688,.195-4.08,0 1.35-.035 2.66,.027 4.08,0z"/>
<path d="m155.38,70.639c-1.586,5.422-10.891,.271-16.904,1.749-1.7,.146-2.012-1.098-2.915-1.749-.365,1.063-.305,.913-2.331,1.166-10.332,1.288-25.492-2.76-34.975-2.332v-1.166c-.095-.678 .129-1.037 .583-1.166 19.682,1.032 40.782,1.731 56.542,3.498z"/>
<path d="m48.126,67.725c-.37,2.07-3.273-.171-5.829,.583-1.266-1.118 4.262-.369 5.829-.583z"/>
<path d="m232.91,68.307c1.7-.857 1.7,2.606 0,1.749v-1.749z"/>
<path d="m173.45,68.89c-1.28,1.781-3.73-.673 0,0z"/>
<path d="m176.95,69.473c-.098-1.264 2.068-.264 2.915-.583 .1,1.264-2.06,.264-2.91,.583z"/>
<path d="m190.36,69.473c-1.229,1.864-5.751-.091-9.326,.583-.25-1.238 6.7-.283 9.33-.583z"/>
<path d="m190.94,69.473c.496-.107 .55,.228 .583,.583 2.447,.291 9.168-.643 8.744,.583h-5.247c-1.31-.425-4.54,1.05-4.07-1.166z"/>
<path d="m88.93,73.554c-.567,4.631-5.271,2.405-8.161,2.332-16.07-.406-36.459-1.798-50.713-3.498v-1.749c18.375-.614 39.196,1.436 58.874,2.915z"/>
<path d="m220.67,74.719c.176,3.829-3.556,1.705-5.246,1.749-14.508,.376-28.258-1.492-43.136-2.332-4.021-.227-7.917,.492-11.075-1.166-.164-.941 .551-1.003 .583-1.749 17.39,.307 37.72,1.499 58.89,3.498z"/>
<path d="m152.47,77.634c-.902,4.887-5.159,2.439-8.16,2.332-14.129-.505-34.52-1.474-49.548-3.498-.05-.827-.096-1.651 .583-1.749 .064-.463 1.927-1.767 1.749-.583 19.456,.765 39.446,1.603 55.376,3.498z"/>
<path d="m34.719,75.302c-.098-1.264 2.068-.264 2.915-.583 .098,1.264-2.068,.264-2.915,.583z"/>
<path d="m47.543,76.468c-1.75-.776-4.459-.593-6.995-.583-1.26-.551 7.287-1.694 6.995,.583z"/>
<path d="m84.85,80.548c-.208,4.919-6.549,3.056-9.327,2.915-11.772-.598-26.256-1.528-40.804-2.332-2.856-.158-6.372-.119-8.744-1.749v-1.749c18.779-.298 38.28,2.235 58.875,2.915z"/>
<path d="m218.34,81.714c-.521,4.487-6.502,2.532-9.326,2.332-15.158-1.076-32.959-1.437-50.131-3.498v-1.166c-.095-.678 .129-1.037 .583-1.166 20.45,.448 43.27,1.715 58.88,3.498z"/>
<path d="m94.759,79.383c1.188-1.338 4.841-.211 6.995-.583-1.18,1.338-4.836,.211-6.991,.583z"/>
<path d="m116.91,79.966c-2.772,1.588-6.532-.836-10.492,0 .21-1.178 8.23-.61 10.49,0z"/>
<path d="m117.49,80.548c10.214-1.181 22.677,1.212 32.061,1.166-10.06,1.319-21.61-.922-32.06-1.166z"/>
<path d="m235.24,80.548c2.056,1.248 .837,5.769 1.165,8.744-1.06-2.239-1.23-5.365-1.16-8.744z"/>
</g>
<g>
<path d="m17.232,82.297c.243-2.526 3.383,.614 0,0z"/>
</g>
<g fill="#5f6062">
<path d="m91.262,81.131c16.873,.235 33.758,1.999 49.547,2.915 2.781,.162 6.684-1.582 8.744,1.749-1.209,3.755-8.687,1.331-12.241,1.166-13.045-.606-24.558-1.163-36.724-1.749-3.361-.162-6.737-.144-9.327-1.749-.001-.777-.001-1.554-.001-2.332z"/>
<path d="m159.46,82.88c3.441-1.068 8.791,.287 13.407,.583 2.946,.189 6.516-1.13 8.161,1.166-6.84-.936-14.85-.698-21.57-1.749z"/>
<path d="m44.046,83.463c.073-1.287 2.473-.248 3.498-.583-.073,1.287-2.473,.248-3.498,.583z"/>
<path d="m50.458,84.046c1.188-1.337 4.841-.211 6.995-.583-1.188,1.338-4.841,.211-6.995,.583z"/>
<path d="m60.368,84.629c.808-1.329 4.057-.217 5.829-.583-.808,1.329-4.058,.217-5.829,.583z"/>
<path d="m190.36,85.212c-2.66,.329-3.63-1.033-6.412-.583-1.43-.547 6.86-1.688 6.41,.583z"/>
<path d="m23.644,84.629c16.326,.193 33.5,2.116 47.799,2.915 3.127,.175 6.686-1.113 9.327,1.166-.877,4.138-7.807,2.063-11.658,1.749-3.854-.315-7.826-.914-11.658-1.166-9.128-.6-19.073-.063-26.814-1.166-2.715-.387-5.742-.659-6.996-3.498z"/>
<path d="m69.694,85.212c-.099-1.264 2.067-.264 2.915-.583 .098,1.264-2.068,.264-2.915,.583z"/>
<path d="m155.38,84.629c8.887,.723 20.739,1.766 30.312,2.332 10.274,.607 20.465-.078 29.729,2.332-.478,4.263-5.471,1.813-7.578,1.749-16.621-.513-36.89-1.63-52.462-3.498v-2.915z"/>
<path d="m191.52,85.212c3.913-.767 10.266-1.044 15.738,0 1.42,.271 .997,.39 0,.583-9.077,1.76-.155,.603-6.412,0-2.32-.224-4.91-.958-9.33-.583z"/>
<path d="m92.428,86.377c3.324-2.095 2.559,1.476 0,0z"/>
<path d="m106.42,86.96c-1.921,.736-6.881-.488-10.492,0 1.59-2.262 7.642-.23 10.492,0z"/>
<path d="m108.75,87.543c1.34-1.427 10.878-.098 13.989,.583-5.26,.403-8.73-.985-13.99-.583z"/>
<path d="m123.32,88.126c5.147-1.299 13.146,1.121 20.985,.583-1.653,1.212-5.736,.787-9.327,.583-3.84-.219-8.63-.61-11.65-1.166z"/>
<path d="m221.25,88.126c-1.28,1.781-3.73-.672 0,0z"/>
<path d="m87.765,88.709c21.341,.691 36.584,1.395 58.874,3.497-.553,4.71-6.821,3.128-10.492,2.915-12.073-.7-27.666-2.36-39.055-2.915-3.872-.188-6.835,1.078-9.326-1.166-.004-.776-.004-1.554-.004-2.331z"/>
<path d="m16.649,89.292h1.749c.671,.688 .66,2.06 .583,3.497-.635-1.308-2.805-1.081-2.332-3.497z"/>
<path d="m156.55,90.458c15.62-.512 38.895,.99 55.96,2.915-19.25-.376-37.23-2.027-55.96-2.915z"/>
<path d="m210.18,105.03c.414,3.55-2.882-.649-1.749,1.166-6.436,3.006-14.077,.931-20.984,.583-44.257-2.231-90.963-5.572-135.24-8.744-11.887-.852-25.42,.381-32.643-5.247v-1.166c-.095-.678 .129-1.037 .583-1.166 7.71,3.114 19.062,2.697 29.729,3.498 21.258,1.595 41.623,3.462 62.372,4.663 31.033,1.797 63.764,4.361 93.85,5.829 1.19-.88 4-1.84 4.08,.58z"/>
<path d="m228.83,90.458c1.264-.098 .264,2.067 .583,2.915-1.48-.06-1.37-2.172-.58-2.915z"/>
<path d="m211.92,96.287c-9.473,5.127-29.043,1.351-42.553,.583-6.026-.343-12.328,.401-16.905-1.749 .049-.923-.28-2.224 .583-2.332 18.87,.603 42.1,1.727 58.88,3.498z"/>
<path d="m18.398,95.704c.496-.107 .55,.228 .583,.583 1.358,2.8 .408,.011 1.166,0 3.25-.046 6.55,1.978 9.91,2.332 1.338,.141 2.595-.572 4.08-.583 7.314-.053 16.772,1.104 26.231,1.749 46.584,3.177 99.631,8.245 149.81,8.744-1.171,1.784 .745,3.037-.583,4.664-1.287-.073-.247-2.473-.583-3.498-1.708,.234-.466,3.42-1.749,4.08-2.106,.552-.812-2.295-1.165-3.498-2.436,.391-.045,3.392-1.166,4.081-43.272-1.031-94.525-6.329-142.23-9.327-8.056-.506-16.378-1.11-23.899-1.749-7.935-.66-19.667,.13-20.403-7.566z"/>
<path d="m228.25,96.287c2.866-.065 .201,10.8 .583,3.498 .01-1.373-1-1.717-.58-3.498z"/>
<path d="m220.67,96.87c2.76,.889-.99,5.05 0,0z"/>
<path d="m213.09,102.12c1.288,.073 .248,2.473 .583,3.498-2.11-.54-.35-1.73-.58-3.5z"/>
<path d="m220.67,102.7c1.117,.493 1.577,2.557 .583,3.498-1.29-.08-.25-2.48-.58-3.5z"/>
<path d="m210.76,106.2v-2.915c1.78,0 2.41,3.42 0,2.92z"/>
<path d="m213.09,107.36c1.304,.251 .236,2.873 .583,4.08-1.025-.14-1.328-1.003-1.165-2.332-1.74,.009 .821,4.32-1.749,3.498v-4.664c1.47,.07 1.83,1.11 2.34-.59z"/>
</g>
<g>
<path d="m185.69,116.69h1.166c-.309,.469-.608,.946-.583,1.749-1.22-.33-1.24-.91-.59-1.75z"/>
<path d="m188.61,116.69c2.56-.124 .064,2.079 0,2.915-1.71-.49 .35-1.87 0-2.91z"/>
<path fill="#b32317" d="m207.84,126.6c-2.766,15.888-8.165,34.193-14.572,48.381 .853-6.886 4.499-13.485 6.995-22.15 1.087-3.776 1.899-8.085 2.914-12.241 1.33-5.43 1.78-11.08 4.67-13.99z"/>
<path d="m196.19,127.76c1.029-.186 1.041,3.265-.583,2.332-.08-1.04 .71-1.22 .58-2.33z"/>
<path d="m188.03,144.09c-.425-1.591 1.158-1.174 1.165-2.332 1.41,.36 .3,2.94-1.17,2.33z"/>
<path d="m197.35,145.25h1.166v1.166h-1.166v-1.17z"/>
<path d="m196.77,148.17c1.7-.857 1.7,2.605 0,1.749v-1.75z"/>
<path fill="#b32317" d="m73.191,156.33h1.749c18.367,11.827 50.894,17.179 80.442,11.658 9.043-1.689 17.347-5.436 25.065-5.829-1.74,2.688-5.619,2.983-8.744,4.08-8.812,3.091-20.512,5.755-32.06,6.412-25.377,1.443-50.534-4.618-65.87-13.99-.321-1.19-1.749-1.14-.579-2.33z"/>
</g>
<g fill="#5f6062">
<path d="m74.357,172.07c2.155,1.76-1.77,1.96 0,0z"/>
<path d="m91.262,173.82c-.349,1.515 .234,2.098 1.749,1.748 .2,2.504-2.124,1.577-3.498,1.166 2.327-2.317-2.123-.836-1.749-2.914 1.581-1.25 1.451,1.31 3.498-.01z"/>
<path d="m95.342,173.82c14.119,3.562 29.965,5.397 48.382,4.663-.232,7.033 1.184,12.417 1.166,19.236-18.449,.768-33.999-1.365-47.216-5.829-.878-5.93-1.742-11.86-2.332-18.07zm2.915,8.16c-1.173,6.913 6.517,10.86 11.659,8.161-.929-.586-2.346-.552-1.166-1.749-1.676,.121-2.961-.147-3.498-1.166 1.158-.971 .741,.053 2.332,0-2.093-2.718-2.971-3.594-3.497-9.326-2.169,1.254-1.079,.688-2.915-.583-.7,2.45-2.527,2.45-2.903,4.67z"/>
</g>
<g fill="#b32317">
<path d="m202.02,174.98c1.274,.086 1.252,1.469 1.166,2.915-1.28-.09-1.26-1.47-1.17-2.92z"/>
<path d="m186.28,175.56c.114,1.67 .072,3.182-1.749,2.915-1.21-1.2 0-2.96 1.75-2.92z"/>
</g>
<g>
<path d="m101.17,177.31c1.836,1.271 .746,1.837 2.915,.583 .526,5.732 1.404,6.608 3.497,9.326-1.591,.053-1.174-.971-2.332,0 .537,1.019 1.822,1.287 3.498,1.166-1.18,1.197 .237,1.163 1.166,1.749-5.142,2.699-12.832-1.248-11.659-8.161 .372-2.22 2.199-2.22 2.909-4.67zm2.33,11.08c.85-1.572 .17-5.758-1.166-6.995 .03,2.69-.32,5.76 1.17,6.99z"/>
</g>
<g fill="#b32317">
<path d="m185.69,180.81c1.84,.552 .112,3.607-.583,5.247-.795,1.874-2.645,3.793-2.914,5.246-1.445-2.054 .812-5.385 0-8.744 .94-.82 3-.5 3.49-1.76z"/>
<path d="m188.03,180.81c1.745,.384-.558,1.246 0,2.332-1.45-.09-.17-1.97 0-2.33z"/>
</g>
<g>
<path fill="#5f6062" d="m102.34,181.39c1.336,1.237 2.016,5.423 1.166,6.995-1.5-1.22-1.15-4.29-1.17-6.99z"/>
<path d="m146.06,183.72h1.748c-.622,.544-.181,2.15-1.748,1.749v-1.75z"/>
</g>
<g fill="#b32317">
<path d="m190.94,190.72c1.117-1.267 .368,4.262 .583,5.829-1.11,1.27-.36-4.26-.58-5.83z"/>
<path d="m189.77,191.3c1.338,1.188 .211,4.841 .583,6.995-4.921,5.235-12.635,6.08-19.819,2.331 5.257-2.321 10.197-4.959 15.739-6.995 .049,.923-.28,2.224 .583,2.332 1.791-1.198-1.412-4.009 1.748-4.08v5.829c2.54-.47-.86-4.7 1.17-6.42zm-5.83,3.5c-.46,3.53 2.68,.39 0,0zm-1.16,1.16c-1.77,1.97 2.15,1.77 0,0z"/>
<path d="m192.69,191.88c.803-1.855 .577,2.06 .583,2.914-.8,1.87-.57-2.05-.58-2.91z"/>
<path d="m74.357,191.88c12.84,24.549 55.696,35.106 91.517,25.647 8.035-2.121 14.801-6.157 21.568-8.743-.309,3.578 .666,8.438-.583,11.075-1.243-2.161-.383-6.476-1.166-7.578-1.627,1.676 .424,7.03-1.166,8.744-1.65,.096 .484-3.594-1.166-3.498-1.441,.501 .172,4.058-1.165,4.664-1.265,.098-.265-2.068-.583-2.915-2.285,.24 .575,2.772-1.166,4.08-36.17,16.71-104.69,6.73-106.07-31.46z"/>
<path d="m83.684,193.05c1.118-.699 4.567,1.24 5.246,2.915-2.519,1.3-3.831-1.41-5.246-2.91z"/>
</g>
<g>
<path fill="#5f6062" d="m161.21,194.8c-2.826,1.06-5.981,1.791-9.909,1.749 2.6-1.29 6.09-1.68 9.91-1.75z"/>
<path d="m183.94,194.8c2.68,.39-.46,3.53 0,0z"/>
<path d="m182.78,195.96c2.15,1.77-1.77,1.97 0,0z"/>
</g>
<g fill="#b32317">
<path d="m197.94,202.38c.901-1.782 .514,2.528 .583,3.497-.9,1.78-.52-2.53-.58-3.5z"/>
<path d="m164.71,202.96c.809-1.329 4.058-.218 5.829-.583-.81,1.33-4.06,.21-5.83,.58z"/>
<path d="m196.19,202.38c1.551,1.758 .76,5.028 .583,6.995-1.34-1.2-.21-4.85-.58-7z"/>
<path d="m194.44,202.96c1.656,1.613 1.558,7.547 .582,9.909-1.1-3-.68-7.16-.58-9.91z"/>
<path d="m169.37,203.54c-5.03,1.73-7.11-.67 0,0z"/>
<path d="m192.69,204.13c.747,3.283 2.066,12.162-2.332,12.241 .689-3.197-1.434-9.207 1.166-10.493v8.744c1.65-2.23-.47-8.24 1.16-10.49z"/>
<path d="m169.96,204.71c.519,.358 1.042,.704 1.165,0 2.4,.63-2.08,2.44-1.16,0z"/>
</g>
<g>
<path d="m168.79,207.62c-.62,1.323-3.664,.222-5.246,.583 1.01-1.76 2.94-.45 5.25-.58z"/>
<path fill="#b32317" d="m188.61,207.04c1.038,1.991 2.76,9.335-.582,11.075 .3-3.58-.67-8.44 .58-11.08z"/>
</g>
<g fill="#5f6062">
<path d="m124.49,5.936c-7.49-1.353-16.01-1.285-25.067-1.749-11.966-.614-24.628-3.822-33.809,1.166-.219,1.805-1.985,2.264 0,3.498-6.195,3.377-6.232,11.692-11.075,15.156-.524,1.707-.524,1.791 0,3.498-3.181,.33-5.042,3.717-4.081,6.412-3.213,.298-4.496,4.263-4.081,6.412-3.257,.046-2.436,4.17-4.663,5.246 .507,.854 .873,1.848 2.332,1.749-3.615,.394-6.838,3.21-5.246,6.995-6.049,.363-3.459,9.365-9.91,9.327-2.513-2.861 5.998-7.336 2.915-10.492 1.257-1.075 2.871-1.793 4.081-2.915 .734-4.397 5.446-8.575 6.995-12.241 .279-.662 1.806-3.005 0-3.498 5.726-5.083 11.297-14.642 15.738-22.151 1.312-2.217 1.95-5.466 3.498-6.995 3.591-3.547 10.524-3.749 17.487-3.497 41.82,1.508 91.214,5.171 136.98,7.578 4.601,.242 8.854,.527 13.99,1.166 5.369,.668-8.44,.041-9.327,0-10.324-.48-23.142-.526-35.558-1.749-3.428,1.081-2.803,6.486-4.08,8.161-3.974-.863 2-3.277 .583-6.995-4.562-2.316-10.292-1.469-15.739-1.749-11.12-.57-26.203-2.293-38.472-2.332-1.556,.388-2.135,1.752-2.915,2.915-1.11-.061 .92-2.174-.57-2.916z"/>
<path d="m217.75,88.126c-.168,2.093 1.596,2.848 3.497,2.332-3.694,15.419-23.12,12.065-39.055,11.075-42.503-2.64-96.669-7.113-138.73-10.492 2.534-1.387 7.003-.781 10.493-.583 8.252,.469 17.872,1.839 26.231,1.749 1.396-1.044 4.57-4.829 1.749-6.412 3.418-.469 4.306-3.466 5.247-6.412-2.934-2.137-7.068-1.01-10.493-1.166-9.123-.415-18.678-1.907-27.979-1.749 2.815-1.333 6.352-.766 9.326-.583 9.577,.589 17.619,1.489 29.729,1.749 1.613-1.301 2.579-3.25 2.915-5.829-12.242-1.489-24.33-1.792-36.141-2.915-1.549-.147-4.813,1.112-5.829-1.166 10.086,.894 26.355,1.517 37.306,2.332 4.451,.331 7.898,.996 8.161-4.664-3.093-2.143-7.094-1.021-10.492-1.166-7.955-.337-16.688-1.658-27.397-1.749 2.391-1.217 6.875-.755 9.91-.583 9.622,.546 18.043,1.724 29.146,1.749 1.697-1.833 3.191-4.167 2.332-6.995 2.095,1.213 2.716-3.285 4.081-4.663-2.076-2.232-5.372-.976-8.161-1.166-10.993-.75-24.452-1.685-36.724-2.332-.875-.046-3.868,.979-4.081-1.166 16.557,.931 33.019,1.956 49.548,2.914 .845-1.14 4.112-5.277 1.166-6.412 3.123,.049 6.422-4.741 3.497-6.995 .713-1.777 2.225,.853 2.915-.583 .696-2.215 3.069-3.87 1.748-6.412 2.302-.139 4.937-4.462 2.915-5.246 2.009-.729 4.913-3.613 3.497-5.829 3.806-1.811 2.359-6.333 5.246-8.161 1.434,4.747-5.164,9.591-4.663,13.407-2.801,3.559-6.713,8.636-6.412,13.407-2.702,.809-4.409,4.35-3.497,6.995-3.046,.646-3.703,3.681-4.081,6.995-2.07,1.129-3.616,4.251-2.914,6.412-3.551,3.055-5.157,8.056-7.578,12.241 2.538,2.213 6.237,1.045 9.327,1.166 15.794,.614 34.28,2.62 51.879,2.915 1.139-1.388 1.47-3.583 2.332-5.247-1.675-1.24-5.813-.016-7.578-1.166-4.119,.252-10.248-.373-4.08-.583 1.196-.041 2.3,.032 3.497,0 3.433,.678 4.306,.327 8.161,.583 2.021-.506 1.276-3.776 2.914-4.664-.509-.852-.463-2.257-2.331-1.749 3.038-.085 5.661-3.646 4.08-6.412 1.845-1.459 3.608-2.998 3.497-6.412-2.434-2.225-6.124-1.001-9.326-1.166-14.232-.73-31.957-2.06-43.136-3.498 20.758,.621 33.636,1.988 53.628,2.915 1.65-2.819 2.704-6.234 4.08-9.327 2.229,3.033-.318,3.845-1.748,5.829 .573,4.856-4.697,6.949-2.915,11.075-.648,1.294-2.307,1.579-2.914,2.915 .677,5.146-3.427,5.511-2.915,10.493-1.266,1.649-2.264,3.565-2.914,5.829 2.825,3.176 7.22,1.611 11.075,1.749 15.405,.551 35.736,2.495 51.879,2.915 1.021-1.116 1.235-3.039 1.749-4.663-2.921-3.103-11.312-.735-15.739-2.332-1.247-.158-6.218,.451-4.663-.583 7.199-.01 13.749,.63 20.402,1.166 2.111-1.212 3.161-5.617 1.166-7.578 3.726,.764 4.994-5.363 2.331-5.829 2.073,.605 4.849-3.793 3.498-5.829-1.628-2.453-5.692-.48-9.327-1.166 2.149-1.348 6.792-.203 9.91-.583 1.648-.877 2.03-3.021 2.331-5.246-.065-1.489-1.951-1.157-3.497-1.166 .775-1.527 2.587-1.113 4.08-.583 .819-1.153 2.586-4.371 1.166-5.829 1.745-.781 2.391-2.662 2.914-4.664h4.081c-2.249,1.253-3.61,.375-.583,1.749 .135,4.315-3.116,7.354-1.749,11.075-1.219-.247-1.543,.399-2.332,.583-.817,6.862-5.385,12.739-4.663,19.236-1.213,.342-1.884,1.225-2.914,1.749-.7,2.993-1.901,6.635-2.915,9.909-.848,2.74-.876,7.546-4.663,7.578-1.373-1.13-2.636-2.146-1.166-5.246-19.991-2.354-41.809-2.881-62.954-4.081-1.02,1.275-3.701,5.236-1.166,6.412-.494,.866-1.877,.843-2.915,1.166 .434,2.216-2.386,4.176-.583,5.83-2.361,1.33-3.399,3.983-3.497,7.578 6.315,1.193 16.354,1.099 26.814,1.749 10.883,.676 22.262,2.757 29.729,1.749 3.877-.523 12.875-4.624 8.16-6.995 2.68,.745 2.17-3.592 4.05-5.239zm-124.74-16.321c-.262,2.8-4.223,4.933-1.749,6.995-2.798,.894-3.364,4.019-4.663,6.412 .738,1.4 4.596-.322 5.246,1.166-2.39-.058-4.778-.114-6.412,.583-.149,2.377-2.173,2.879-1.749,5.829 20.667,1.484 41.816,2.485 62.372,4.081 .927-2.401 4.206-6.665 0-7.578 1.437,.077 2.808,.088 3.497-.583 .424-1.984 2.767-4.241 1.166-6.412 2.502-.996 3.26-3.735 3.497-6.995-21.25-1.083-41.19-2.536-61.219-3.498z"/>
</g>
<g>
<path fill="#c2a204" d="m13.151,37.413c-1.534-.603-1.963-2.312-3.497-2.915-1.497,1.684 3.488,3.32 1.166,5.829-2.402-.124-1.424-3.628-3.498-4.081-1.359,.195-2.511,.598-2.915,1.749-.445,3.36 3.049,2.78 2.915,5.829-2.752,.032-3.405-2.036-5.246-2.915-.058-2.39-.115-4.778 .583-6.412 1.352,.186 2.238-.094 2.915-.583-.206-.668-1.026-1.478-1.166-.583 2.62-5.543 7.441-13.931 14.573-16.904 1.259-6.528 10.922-2.507 9.327,4.08-1.037,.518-1.481,1.627-3.497,1.166-2.316,4.484-5.03,8.572-7.578,12.824-2.286,1.117-3.136,.252-4.082,2.916zm9.327-12.824c-1.817-.411-2.735,3.032-1.749,3.498 .01-1.74 1.516-1.983 1.749-3.498zm-.583-9.327c.561-.561-1.064-1.85-1.749-1.166-.333,.334 1.765,1.151 1.749,1.166zm4.664,4.664c.599-1.637-.908-4.053-1.749-2.332 1.202,.158 .139,2.581 1.749,2.332zm-7.579,9.909c-3.168,4.144 2.004-2.62 0,0zm-5.246,2.915v1.166c.033,.355 .087,.69 .583,.583-.315-1.354 2.952-2.009 1.166-2.915-.239,.732-.752,1.191-1.749,1.166z"/>
<path d="m20.729,28.086c-.986-.465-.068-3.908 1.749-3.498-.233,1.516-1.739,1.759-1.749,3.498z"/>
<path fill="#5f6062" d="m176.95,21.674c1.83,.288 1.54-2.009 2.915-.583-1.188,2.011-3.746,4.122-2.332,6.995-2.255-.092-3.635,3.715-2.331,5.246-.184,1.371-2.764,.346-2.332,2.332-2.14-3.436 5.44-9.386 4.08-13.99z"/>
<path d="m18.98,29.835c2.004-2.62-3.168,4.144 0,0z"/>
<path fill="#c2a204" d="m269.05,32.75c-1.533,1.362-2.21-1.667-4.08-1.749 .65,2.264 3.249,2.58 2.331,6.412-.469-.309-.946-.608-1.748-.583-.243,3.449-.746,6.638-2.332,8.744 1.398,1.552 .552-.03 0,1.166-.386,.836 .208,4.122 0,5.246-.013,.071-1.152-.071-1.166,0-.521,2.68 .972,6.142-1.748,7.578h-4.081c.754-4.727 2.941,1.023 4.663-1.749-1.438-1.67-2.436-3.782-5.246-4.081-1.443,.888-1.041,3.622-3.497,3.498-1.02-2.141-.216-5.015 1.749-5.829-.469-5.86 2.074-14.27 6.412-18.653 .346-1.86-1.095-1.803 0-2.915 2.49-2.353 8.96-1.03 8.76,2.915zm-8.16-1.749c1.033-.133 2.92,.587 2.332-1.166h-2.332v1.166zm-.58,18.07c1.102-.131 1.285,.657 2.331,.583 .425-2.554-1.158,.47-1.166-1.166 .384-.516 1.543-4.055 .583-2.332-.84,.713-.88,2.225-1.74,2.915zm.58-5.246c.633,1.493-1.771,2.779 0,3.498-.16-1.022 1.64-2.909 0-3.498zm-5.83,5.829v1.166c1.435,.906 1.715-1.979 .583-1.749-.03,.356-.08,.69-.58,.583zm6.41,1.749c-.831-.227-.982-.7-1.748,0-.131-.452-.017-1.15-.583-1.166-.61,1.474 1.97,2.584 2.33,1.166z"/>
<path d="m15.483,31.584c1.786,.906-1.481,1.561-1.166,2.915-.496,.107-.55-.228-.583-.583v-1.166c.997,.025 1.51-.434 1.749-1.166z"/>
</g>
<g fill="#5f6062">
<path d="m243.4,33.916c1.276,.851-1.823,6.999-2.331,9.91-1.16-2.923 1.82-6.716 2.33-9.91z"/>
<path d="m137.31,38.579c-5.62-.252 2.48,.111 0,0z"/>
<path d="m81.353,42.076c-1.706-.775 3.776,1.717 0,0z"/>
</g>
<g>
<path d="m262.06,46.157c.96-1.723-.199,1.815-.583,2.332 .008,1.636 1.591-1.388 1.166,1.166-1.046,.074-1.229-.714-2.331-.583 .85-.691 .89-2.203 1.74-2.915z"/>
<path d="m259.14,50.237c.566,.016 .452,.714 .583,1.166 .766-.7 .917-.227 1.748,0-.36,1.418-2.94,.308-2.33-1.166z"/>
</g>
<g fill="#5f6062">
<path d="m231.74,68.89c-2.065,7.858-3.494,16.864-6.995,23.316-.293,.542-.829,1.218-1.748,1.166-.259,1.102 .793,3.513-1.166,2.915 .748-4.823 3.571-10.568 5.246-15.739 1.37-4.186 1.43-8.889 4.67-11.658z"/>
<path d="m16.649,82.297c1.513-5.482 4.536-9.455 8.161-12.824-1.257,1.274 .149,1.251 1.749,1.166 .002,1.583-2.451,2.73 0,3.498-2.229,1.28-5.807,4.281-4.664,6.995-.154,1.941-3.807,2.312-5.246,1.165zm.583,0c3.383,.614 .243-2.526 0,0z"/>
</g>
<g>
<path d="m243.4,44.408c5.955,.076 8.512-8.162 13.99-10.492-1.146-8.354 11.771-8.177 13.407-2.332 .682,2.436-1.248,7.139-2.332,11.075-1.555,5.646-3.451,9.997-4.663,15.739-2.816,1.415-4.893,3.437-8.744,2.332-6.721,3.311-9.562,13.199-19.818,11.075 3.397,10.932 4.031,31.641-2.915,39.055-5.134-1.083-4.22-8.215-5.829-12.824-5.062,11.935-5.227,24.844-9.326,38.472-2.599,8.636-6.099,18.163-9.91,26.813-1.343,3.049-3.285,6.025-3.497,8.161-.221,2.225 .948,4.556 1.166,6.412 .675,5.76 1.529,15.616 0,21.567-3.009,11.708-15.327,21.099-26.814,26.231-24.359,10.884-59.242,8.846-81.607-2.332-11.459-5.727-22.613-14.864-23.899-30.312-.83-9.959 1.54-17.281 .583-23.899-.722-4.994-5.083-9.859-7.578-15.155-2.469-5.241-3.83-11.452-5.829-16.321-6.282-15.298-15.741-25.892-29.729-33.809-7.454-.383-13.106-2.874-15.156-7.578-.623-1.429-1.815-7.808-1.749-9.327 .447-10.176 12.159-19.23 14.573-26.814-8.444-2.243-12.512-8.861-17.488-14.573-7.098,.884-13.731-7.182-8.161-13.407 .361-.403 1.646-.215 2.332-1.166 .947-1.312 1.264-3.574 2.332-5.246 2.388-3.739 5.223-5.42 8.744-8.744 2.734-2.582 3.804-4.902 5.246-5.247 6.199-1.481 8.771,3.78 9.327,8.744 4.403,3.216 6.102,13.531 12.824,12.241 3.138-.602 7.338-10.402 9.909-14.573 3.367-5.461 6.059-11.812 9.327-14.573 5.536-4.676 17.479-3.769 28.563-2.915 19.473,1.5 42.78,2.607 62.371,3.498 22.106,1.004 39.493,2.493 60.623,3.498 6.469,.307 13.238,.264 19.236,1.166 4.596,.691 11.807,3.918 13.99,7.578 5.32,8.928-1.82,20.042-3.51,27.976zm-118.33-35.558c.78-1.163 1.359-2.527 2.915-2.915 12.269,.039 27.352,1.761 38.472,2.332 5.447,.28 11.178-.567 15.739,1.749 1.417,3.718-4.557,6.132-.583,6.995 1.277-1.675 .652-7.08 4.08-8.161 12.416,1.223 25.233,1.269 35.558,1.749 .887,.041 14.696,.668 9.327,0-5.136-.639-9.39-.924-13.99-1.166-45.771-2.406-95.165-6.069-136.98-7.578-6.963-.251-13.896-.05-17.487,3.497-1.548,1.529-2.186,4.778-3.498,6.995-4.441,7.509-10.013,17.068-15.738,22.151 1.806,.493 .279,2.836 0,3.498-1.549,3.666-6.261,7.844-6.995,12.241-1.21,1.122-2.823,1.84-4.081,2.915 3.083,3.156-5.427,7.631-2.915,10.492 6.45,.038 3.861-8.963 9.91-9.327-1.592-3.784 1.631-6.601 5.246-6.995-1.459,.099-1.825-.896-2.332-1.749 2.227-1.076 1.406-5.2 4.663-5.246-.416-2.149 .867-6.114 4.081-6.412-.962-2.695 .899-6.082 4.081-6.412-.524-1.707-.524-1.791 0-3.498 4.843-3.463 4.88-11.779 11.075-15.156-1.985-1.233-.219-1.692 0-3.498 9.182-4.987 21.843-1.779 33.809-1.166 9.054,.464 17.578,.396 25.065,1.749 1.49,.744-.54,2.857 .58,2.916zm-50.13-3.497c-1.42,.096-4.813-.199-6.412,1.749 13.901,1.694 30.581,2.046 43.135,2.915 3.708,.256 9.748,2.776 11.075-1.749-13.91-.741-31.845-3.985-47.8-2.915zm95.02,5.246c-13.3-.683-25.311-1.99-40.805-2.332-.454,.129-.678,.488-.583,1.166-.454,.129-.677,.488-.582,1.166 3.063,1.799 7.062,.938 11.075,1.166 10.823,.615 21.425,1.715 33.226,2.332 2.876,.15 7.269,1.422 8.744-1.749-2.49-2.9-7.91-1.586-11.09-1.749zm-80.447-.583c-.847,.319-3.013-.681-2.915,.583 .848-.319 3.013,.681 2.915-.583zm4.663,.583c-.745-.032-.807-.747-1.749-.583-.906,1.435 1.981,1.714 1.749,.583zm2.915,.583c1.965-.559 3.982,1.785 5.247,0-.21-.307-5.896-1.206-5.249,0zm116.58,82.191c4.715,2.372-4.283,6.472-8.16,6.995-7.467,1.008-18.846-1.073-29.729-1.749-10.46-.649-20.499-.556-26.814-1.749 .098-3.594 1.136-6.248 3.497-7.578-1.803-1.653 1.017-3.614 .583-5.83 1.038-.322 2.421-.299 2.915-1.166-2.535-1.176 .146-5.137 1.166-6.412 21.146,1.199 42.963,1.726 62.954,4.081-1.47,3.1-.207,4.116 1.166,5.246 3.787-.032 3.815-4.838 4.663-7.578 1.014-3.274 2.215-6.916 2.915-9.909 1.03-.524 1.701-1.407 2.914-1.749-.722-6.497 3.846-12.374 4.663-19.236 .789-.184 1.113-.83 2.332-.583-1.367-3.721 1.884-6.76 1.749-11.075-3.027-1.375-1.666-.496 .583-1.749h-4.081c-.523,2.002-1.169,3.882-2.914,4.664 1.42,1.458-.347,4.676-1.166,5.829-1.493-.531-3.305-.945-4.08,.583 1.546,.009 3.432-.323 3.497,1.166-.301,2.226-.683,4.369-2.331,5.246-3.118,.38-7.761-.765-9.91,.583 3.635,.686 7.699-1.287 9.327,1.166 1.351,2.036-1.425,6.434-3.498,5.829 2.663,.466 1.395,6.593-2.331,5.829 1.995,1.96 .945,6.365-1.166,7.578-6.653-.536-13.203-1.175-20.402-1.166-1.555,1.034 3.416,.425 4.663,.583 4.428,1.596 12.818-.771 15.739,2.332-.514,1.624-.728,3.547-1.749,4.663-16.143-.419-36.474-2.364-51.879-2.915-3.855-.138-8.25,1.428-11.075-1.749 .65-2.264 1.648-4.18 2.914-5.829-.512-4.981 3.592-5.347 2.915-10.493 .607-1.335 2.266-1.62 2.914-2.915-1.782-4.126 3.488-6.219 2.915-11.075 1.43-1.984 3.978-2.796 1.748-5.829-1.376,3.093-2.43,6.508-4.08,9.327-19.992-.926-32.87-2.293-53.628-2.915 11.179,1.438 28.903,2.767 43.136,3.498 3.202,.164 6.893-1.06 9.326,1.166 .111,3.414-1.652,4.953-3.497,6.412 1.581,2.766-1.042,6.327-4.08,6.412 1.868-.509 1.822,.897 2.331,1.749-1.638,.888-.894,4.158-2.914,4.664-3.855-.256-4.729,.095-8.161-.583-1.197,.032-2.301-.041-3.497,0-6.168,.21-.039,.835 4.08,.583 1.765,1.15 5.903-.074 7.578,1.166-.862,1.664-1.193,3.858-2.332,5.247-17.599-.295-36.085-2.3-51.879-2.915-3.09-.121-6.789,1.047-9.327-1.166 2.421-4.185 4.027-9.186 7.578-12.241-.702-2.161 .844-5.283 2.914-6.412 .378-3.314 1.035-6.349 4.081-6.995-.912-2.645 .795-6.186 3.497-6.995-.301-4.771 3.611-9.849 6.412-13.407-.501-3.815 6.097-8.66 4.663-13.407-2.887,1.827-1.44,6.35-5.246,8.161 1.416,2.216-1.488,5.1-3.497,5.829 2.021,.784-.613,5.107-2.915,5.246 1.321,2.542-1.052,4.197-1.748,6.412-.69,1.436-2.202-1.194-2.915,.583 2.925,2.254-.374,7.044-3.497,6.995 2.946,1.135-.321,5.272-1.166,6.412-16.529-.958-32.991-1.983-49.548-2.914 .212,2.144 3.205,1.12 4.081,1.166 12.272,.647 25.73,1.582 36.724,2.332 2.789,.19 6.085-1.066 8.161,1.166-1.364,1.378-1.985,5.876-4.081,4.663 .859,2.828-.634,5.163-2.332,6.995-11.103-.024-19.524-1.203-29.146-1.749-3.034-.172-7.519-.634-9.91,.583 10.709,.091 19.442,1.412 27.397,1.749 3.398,.144 7.399-.978 10.492,1.166-.263,5.66-3.709,4.995-8.161,4.664-10.951-.815-27.22-1.438-37.306-2.332 1.016,2.278 4.28,1.019 5.829,1.166 11.811,1.122 23.899,1.425 36.141,2.915-.335,2.58-1.302,4.528-2.915,5.829-12.11-.26-20.152-1.16-29.729-1.749-2.975-.183-6.511-.75-9.326,.583 9.302-.158 18.857,1.334 27.979,1.749 3.424,.156 7.559-.971 10.493,1.166-.94,2.946-1.829,5.943-5.247,6.412 2.821,1.583-.353,5.368-1.749,6.412-8.359,.091-17.979-1.279-26.231-1.749-3.489-.198-7.958-.804-10.493,.583 42.064,3.379 96.231,7.852 138.73,10.492 15.935,.99 35.36,4.344 39.055-11.075-1.901,.517-3.665-.238-3.497-2.332-1.83,1.64-1.32,5.977-4.03,5.24zm-99.67-79.276c-14.841-.894-31.3-1.669-47.22-2.915-.585-.002-.694,.472-1.166,.583v1.749c15.126,.954 32.484,2.092 44.885,2.915 2.765,.184 7.271,1.342 8.743-1.166-.84-1.949-3.57-1.066-5.24-1.166zm-5.83-2.915c-6.69-.651-4.18,1.742 0,0zm114.83,2.332c-11.337-.705-23.815-2.006-34.975-1.749-.124-.704-.647-.358-1.166,0-.863,.108-.534,1.409-.583,2.332 2.067,1.997 7.641,.989 11.075,1.166 13.483,.692 28.011,2.343 43.136,2.332-3.12-4.732-10.55-3.651-17.48-4.081zm19.82,4.663c-2.292,1.44-.949,5.849-3.497,8.161-.282,2.614 1.57,3.093 2.915,4.081 1.339-4.102 3.521-7.359 3.497-12.824-2.472-2.975-7.108-6.874-11.658-5.829 4.51,.532 6.97,3.126 8.74,6.411zm-225.59,16.322c2.548-4.252 5.262-8.34 7.578-12.824 2.016,.461 2.46-.648 3.497-1.166 1.595-6.587-8.068-10.608-9.327-4.08-7.131,2.973-11.953,11.36-14.572,16.904 .14-.895 .96-.085 1.166,.583-.677,.489-1.563,.769-2.915,.583-.698,1.634-.641,4.022-.583,6.412 1.841,.878 2.494,2.947 5.246,2.915 .135-3.049-3.36-2.469-2.915-5.829 .403-1.151 1.555-1.554 2.915-1.749 2.074,.453 1.095,3.957 3.498,4.081 2.322-2.509-2.663-4.146-1.166-5.829 1.534,.603 1.963,2.312 3.497,2.915 .946-2.666 1.796-1.801 4.081-2.916zm149.81-16.905c-13.249-.616-28.189-2.472-41.387-2.332-.454,.129-.678,.488-.583,1.166-.002,.584 .473,.693 .583,1.166 15.688-.301 35.92,2.909 52.462,1.749-2.57-3.07-7.49-1.583-11.07-1.749zm-57.71,2.332c-13.937-1.017-32.978-1.807-46.05-2.332-.585-.001-.694,.472-1.166,.583 .066,.711 .174,1.38 1.166,1.166 14.217,1.339 29.41,1.998 41.969,2.915 3.531,.258 7.959,1.205 11.075-.583-.96-2.772-4.78-1.589-6.99-1.749zm105.51-2.332c-3.73-.673-1.28,1.781 0,0zm-30.9,1.166c-.454,.129-.678,.488-.583,1.166 .129,.454 .488,.677 1.166,.583 12.822,.962 29.52,2.216 43.136,2.915 5.595,.287 11.247,1.281 12.241-1.166-16.87-2.255-36.41-2.884-55.97-3.498zm-41.38,.583c-.847,.319-3.013-.681-2.914,.583 .84-.319 3.01,.681 2.91-.583zm12.24,.583c-1.394,.355-4.229-.732-4.663,.583 1.39-.356 4.23,.731 4.66-.583zm11.08,3.497c-13.461-.765-28.636-2.312-41.97-2.332-.123-.704-.646-.358-1.166,0-.454,.129-.677,.488-.582,1.166 3.604,1.832 8.256,1.416 12.823,1.749 8.685,.632 19.334,1.183 27.98,1.749 4.507,.295 11.062,1.504 12.241-1.166-2.58-2.113-6.16-.986-9.32-1.166zm-2.34-2.915c-5.6-.726-3.08,1.785 0,0zm9.33,15.156c-.432-1.986 2.148-.96 2.332-2.332-1.304-1.531 .076-5.338 2.331-5.246-1.414-2.873 1.144-4.984 2.332-6.995-1.375-1.426-1.085,.871-2.915,.583 1.37,4.604-6.21,10.554-4.07,13.99zm-159.72,8.744c3.714,3.476 6.356,8.022 11.076,10.493 .892-.918-.83-3.25 1.166-4.081h8.161c1.319-3.732 4.204-5.899 5.246-9.909-1.777,.028-2.968-.53-3.498-1.749 1.148-6.787-4.047-12.271-8.161-15.739-2.951,8.706-10.306,13.011-13.99,20.985zm46.051-20.985c-.454,.129-.678,.488-.583,1.166-.002,.585 .472,.694 .583,1.166 13.015,.042 27.929,1.69 40.804,2.332 5.49,.273 11.148,1.485 13.407-1.166-16.004-2.355-36.412-2.311-54.218-3.498zm121.25,1.749c-.025,.802 .274,1.28 .583,1.749 16.491,.405 35.321,1.751 48.382,2.332 2.371,.105 6.688,2.388 8.16-1.166-17.68-1.538-37.95-3.863-57.12-2.915zm65.28,5.246c-.265-1.354 2.314-4.355 0-4.081 .49,1.523-1.76,3.199 0,4.081zm-84.52-1.166c-13.797-.708-27.914-2.35-41.387-2.332-.454,.129-.678,.488-.583,1.166-.002,.585 .472,.694 .583,1.166 13.727,.349 27.596,1.754 38.473,2.332 5.732,.304 11.338,1.208 14.572-.583-1.62-2.837-7.86-1.554-11.65-1.749zm99.1,.583c-1.095,1.112 .346,1.055 0,2.915-4.338,4.384-6.881,12.793-6.412,18.653-1.965,.814-2.769,3.688-1.749,5.829 2.456,.124 2.054-2.609 3.497-3.498 2.811,.299 3.809,2.41 5.246,4.081-1.722,2.772-3.909-2.979-4.663,1.749h4.081c2.72-1.436 1.228-4.897 1.748-7.578 .014-.071 1.153,.071 1.166,0 .208-1.125-.386-4.41 0-5.246 .552-1.196 1.398,.386 0-1.166 1.586-2.106 2.089-5.295 2.332-8.744 .802-.025 1.279,.274 1.748,.583 .918-3.833-1.681-4.148-2.331-6.412 1.87,.082 2.547,3.111 4.08,1.749 .18-3.945-6.29-5.268-8.76-2.915zm-205.19-.583c-.454,.128-.678,.488-.583,1.166v1.166c12.429,1.612 30.417,2.012 43.135,2.915 4.166,.295 11.202,2.384 12.242-1.749-15.48-2.267-34.315-2.112-54.799-3.498zm174.29,3.498c-18.068-1.467-34.175-1.682-50.714-2.332-.454,.129-.678,.488-.583,1.166v1.166c15.602,.182 36.048,2.502 50.131,2.915 2.229,.065 5.627,.969 6.995-1.166-1.08-1.785-4.2-1.618-5.83-1.749zm-86.85-1.166c-6.69-.651-4.18,1.742 0,0zm8.16,.583c-3.73-.673-1.28,1.78 0,0zm11.07,3.497c-16.08-1.175-30.629-2.438-44.302-2.332-.123-.704-.646-.358-1.166,0-.454,.129-.677,.488-.582,1.166 2.336,3.272 8.041,1.584 11.658,1.749 10.118,.459 21.616,1.29 31.477,1.749 3.721,.173 8.286,2.356 11.076-.583-.96-3.168-5.68-1.567-8.17-1.749zm79.28,8.161c.508-2.911 3.607-9.059 2.331-9.91-.51,3.195-3.49,6.988-2.33,9.91zm-168.46-9.326c-1.352,.186-2.238-.094-2.915-.583-.899,1.759 3.016,1.533 2.915,.583zm6.995,0c-1.582,.361-4.626-.74-5.246,.583 1.581-.362 4.625,.739 5.246-.583zm8.743,.583c-1.771,.365-5.021-.747-5.829,.583 1.772-.366 5.021,.746 5.829-.583zm-50.713,3.497c-.167-1.016 1.862-3.128-.583-2.915-.306,1.489-.773,2.041 .583,2.915zm13.407-2.332c-.032,.745-.747,.807-.583,1.749 3.131,1.736 7.951,.849 13.407,1.166 8.846,.513 19.749,1.208 28.563,1.749 5.705,.35 13.036,2.872 14.573-1.749-18.685-1.248-39.422-3.177-55.959-2.915zm43.135-.583c-3.733-.673-1.28,1.781 0,0zm114.83,0c-1.024,.335-3.425-.705-3.497,.583 1.03-.335 3.43,.705 3.5-.583zm-33.23,1.166c-.454,.129-.678,.488-.583,1.166 2.739,2.88 9.357,1.538 13.989,1.749 11.78,.535 25.349,2.458 36.724,2.332 2.053-.022 6.053,1.311 6.995-1.749-17.41-2.403-39.58-3.153-57.12-3.498zm-54.21,.583c-1.025,.335-3.425-.705-3.498,.583 1.03-.335 3.43,.705 3.5-.583zm11.08,.583c-3.73-.673-1.28,1.78 0,0zm4.66,.583c2.48,.111-5.62-.252 0,0zm5.25,0c-1.024,.335-3.425-.704-3.497,.583 1.02-.336 3.43,.704 3.5-.583zm4.66,0c-1.207,.347-3.829-.72-4.08,.583 1.21-.347 3.83,.72 4.08-.583zm9.91,3.497c-13.631-.847-28.95-2.065-42.553-2.332-.239-.994-.752,.123-1.749,0-.454,.129-.678,.488-.583,1.166 .859,2.425 4.633,1.615 6.412,1.749 11.551,.866 27.688,1.879 41.97,2.332 1.84,.059 5.945,2.12 6.412-1.166-2.32-2.852-6.47-1.535-9.91-1.749zm7-1.748c-1.333-.875-14.297-1.968-15.739-.583 5.86-.425 9.92,.955 15.74,.583zm-95.019,.583c-.847,.318-3.013-.681-2.915,.583 .847-.32 3.013,.68 2.915-.583zm6.995,1.165c2.872-.461-6.244-1.292-6.412-.583 1.252,1.081 4.27,.394 6.412,.583zm5.247,0c3.776,1.717-1.706-.775 0,0zm6.994,0c-1.208,.347-3.829-.72-4.08,.583 1.208-.347 3.829,.721 4.08-.583zm5.829,2.915c-15.426-.855-34.552-1.398-46.633-2.332-.585-.002-.694,.472-1.166,.583v1.749c3.055,1.77 7.818,.939 12.241,1.166 9.246,.474 19.576,1.239 28.563,1.749 4.918,.279 12.668,2.426 15.739-.583-1.6-2.659-6.005-2.18-8.744-2.332zm119.49-2.332c-.872,.099-2.151-.208-2.331,.583 .87-.099 2.15,.208 2.33-.583zm32.65,5.829c.837,1.773 .595,3.977-1.166,4.664-.688-.671-2.061-.66-3.497-.583-2.607,4.607-5.312,10.836-2.332,16.321 5.544-1.84 7.221-7.546 12.241-9.909-.998-2.111-1.454-4.764-1.166-8.161 1.983-1.32 1.354-5.252 2.915-6.995-.066-.711-.175-1.38-1.166-1.166-1.4,2.469-4.09,3.665-5.81,5.829zm-72.87-5.246c-.454,.128-.678,.488-.583,1.166v1.166c7.422,2.111 18.865,1.604 29.729,2.332 7.683,.515 16.252,1.852 21.568,1.749 2.301-.044 6.334,1.176 6.412-2.332-16.88-2.611-38.74-3.197-57.13-4.081zm-64.7,4.081v1.749c12.977,1.815 30.385,2.107 44.301,2.915 3.483,.202 10.312,2.981 11.076-1.749-17.04-1.635-37.02-3.819-55.38-2.915zm-56.543,0c-7.781-.675-5.576,1.719 0,0zm138.73,1.165c-.872,.1-2.151-.208-2.332,.583 .87-.099 2.15,.208 2.33-.583zm52.46,2.915c2.116,.567 1.243-3.258 0-2.915 .41,1.795 .41,1.12 0,2.915zm-47.8-2.332c-8.372,.135 .119,1.398 4.081,0-1.36,.019-2.54-.025-4.08,0zm10.5,1.166c3.122-.33-4.901-.691-5.247-1.166 1.03,2.205 4.95,1.198 5.25,1.166zm-115.42,2.332c-15.583-.904-34.354-2.733-47.799-2.915-.455,.128-.678,.488-.583,1.166v1.166c14.625,1.089 35.013,2.685 48.382,3.498 3.153,.191 7.044,1.043 8.744-1.166-1.9-3.308-5.901-1.585-8.744-1.749zm117.16,0c-11.872-.741-26.18-2.027-37.307-2.332-.584-.001-.693,.472-1.165,.583v1.749c6.406,1.676 14.416,1.787 22.733,2.332 8.335,.546 17.323,.769 25.065,1.166 2.848,.146 10.594,2.789 10.492-1.749-4.91-1.982-12.22-1.276-19.81-1.749zm4.08-1.749c3.207-.675 6.514,1.354 7.577-.583-2.08,.268-8.35-.61-7.58,.583zm22.16,13.407c1.939-4.083 3.535-8.512 4.663-13.407-.129-.454-.488-.678-1.166-.583-.52,4.692-5.39,10.709-3.49,13.99zm-102.01-11.075h4.663c-5.459-1.237-16.047-2.285-21.567-1.166 5.97,.05 11.56,.491 16.91,1.166zm8.74-.583c-3.73-.673-1.28,1.78 0,0zm-34.98,1.165c-.454,.129-.678,.488-.583,1.166 .892,1.952 2.842,1.623 4.081,1.749 3.36,.342 7.449,.374 11.658,.583 12.101,.603 23.982,1.797 34.392,1.749 1.67-.008 5.886,1.718 5.829-1.749-18.8-2.399-38.07-3.199-55.38-3.498zm42.56-.582c-1.582,.361-4.626-.74-5.246,.583 1.58-.361 4.63,.74 5.25-.583zm12.82,1.748c.717-1.938-3.94-1.426-4.08-.583 1.89-.338 2.71,.397 4.08,.583zm22.15,.583c-4.98-.714-2.48,1.786 0,0zm11.08,1.166c2.439-.448-1.898-.821-4.664-.583 .25-.965-2.173,.052-2.331,.583 3.09-.149 5.79,.22 6.99,0zm-109.59,2.332c-13.995-.718-32.898-2.159-45.467-2.915-.455,.128-.678,.488-.583,1.166-.454,.129-.678,.488-.583,1.166 4.894,1.982 12.538,1.405 19.236,1.749 8.489,.436 16.858,1.307 23.899,1.749 5.171,.325 11.112,1.85 14.573-1.166-2.243-3.028-7.445-1.563-11.075-1.749zm117.17-1.749c3.011-1.042-5.054-.123-5.829-1.166-.09,2.414 4.05,.607 5.83,1.166zm10.49,2.331c-15.438-.907-31.67-1.465-44.885-2.332-.454,.129-.678,.488-.583,1.166v1.166c15.467,1.27 34.3,2.222 49.548,2.915 2.468,.112 8.412,2.442 8.743-1.166-3.52-1.816-8.26-1.48-12.82-1.749zm3.49-2.331c-6.69-.651-4.17,1.742 0,0zm-99.09,.583c-.847,.319-3.013-.681-2.914,.583 .84-.319 3.01,.681 2.91-.583zm107.26,0c-3.74-.673-1.28,1.78 0,0zm-106.09,1.166c3.354-.051 6.732-.126 9.327,.583-.4-2.296-9.91-1.146-9.33-.583zm10.49,.582c2.759-.85 5.738,1.736 6.412-.583-1.74,.237-7.52-.563-6.41,.583zm11.66,0c-6.529,.223 .816,1.366 3.497,0-1.25,.029-2.41-.037-3.5,0zm12.24,1.166c4.841-.451-6.023-.502-8.16-1.166 .68,2.051 7.24,1.252 8.16,1.166zm-50.13,0c-.032,.745-.747,.807-.583,1.749 5.143,2.067 12.931,1.148 20.984,1.749 7.61,.567 15.679,1.438 22.734,1.749 5.219,.229 12.762,1.977 12.824-2.332-19.47-1.946-37.09-3.132-55.95-2.915zm-55.963,0c2.476,2.917 3.186-.483 0,0zm8.744,.583c-7.109-.677-5.033,1.729 0,0zm130.57,.584c-2.346,.374-6.198-.758-7.578,.583 2.35-.375 6.2,.757 7.58-.583zm5.25,1.165c2.343-.707 4.266,1.543 4.663-.583-1.24,.158-6.22-.451-4.66,.583zm-104.34,2.915c-17.24-1.682-33.874-.747-50.713-2.915-.585-.002-.694,.472-1.166,.583-.227,.832-.7,.983 0,1.749 14.555,1.591 29.421,2.121 42.553,2.915 4.958,.3 10.527,1.751 15.156-.583-1.346-1.731-4.052-1.576-5.83-1.749zm110.75-2.332c3.748-.625 8.325,.982 10.492,0-2.25-.609-10.28-1.178-10.49,0zm-33.22,2.915c16.175,1.746 33.724,2.146 48.382,2.915 3.755,.197 10.096,2.844 11.075-1.749-20.383-2.828-37.269-2.703-59.457-4.081 .01,.972 .01,1.943 .01,2.915zm51.87-2.915c-2.347,.374-6.198-.758-7.578,.583 2.35-.374 6.2,.758 7.58-.583zm7,.583c-1.963,.369-5.415-.751-6.412,.583 1.96-.369 5.41,.751 6.41-.583zm-93.85,1.749c-6.69-.651-4.17,1.741 0,0zm8.75,.583c-7.608,.195 .692,1.38 4.08,0-1.42,.027-2.73-.035-4.08,0zm-39.06,.583c-.454,.128-.678,.488-.583,1.166v1.166c9.483-.428 24.643,3.62 34.975,2.332 2.026-.252 1.966-.102 2.331-1.166 .903,.651 1.215,1.895 2.915,1.749 6.014-1.478 15.318,3.674 16.904-1.749-15.76-1.768-36.86-2.467-56.54-3.498zm-56.543,1.165c2.556-.754 5.459,1.488 5.829-.583-1.567,.215-7.095-.534-5.829,.583zm190.61,1.749c1.7,.857 1.7-2.606 0-1.749v1.749zm-59.46-1.166c-3.73-.673-1.28,1.781 0,0zm6.41,0c-.847,.319-3.013-.681-2.915,.583 .86-.319 3.02,.681 2.92-.583zm47.22,11.658c-1.675,5.171-4.498,10.916-5.246,15.739 1.959,.599 .907-1.813 1.166-2.915 .919,.052 1.455-.625 1.748-1.166 3.501-6.453 4.93-15.458 6.995-23.316-3.24,2.769-3.3,7.472-4.66,11.658zm-205.18,.583c-1.143-2.714 2.435-5.714 4.664-6.995-2.451-.768 .002-1.914 0-3.498-1.6,.085-3.005,.108-1.749-1.166-3.625,3.37-6.648,7.342-8.161,12.824 1.439,1.148 5.092,.777 5.246-1.165zm159.14-11.075c3.575-.674 8.097,1.281 9.326-.583-2.63,.3-9.58-.655-9.33,.583zm13.99,.583h5.247c.424-1.226-6.297-.292-8.744-.583-.033-.355-.087-.69-.583-.583-.48,2.216 2.75,.741 4.07,1.166zm-164.96,0v1.749c14.254,1.699 34.644,3.091 50.714,3.497 2.89,.073 7.593,2.3 8.161-2.332-19.679-1.478-40.5-3.528-58.875-2.914zm131.73,.583c-.032,.745-.747,.807-.583,1.749 3.158,1.658 7.055,.939 11.075,1.166 14.878,.839 28.628,2.708 43.136,2.332 1.69-.044 5.422,2.08 5.246-1.749-21.17-2-41.5-3.192-58.88-3.498zm-124.16,3.497c-.847,.319-3.013-.681-2.915,.583 .847-.319 3.013,.681 2.915-.583zm2.914,1.166c2.536-.01 5.245-.193 6.995,.583 .292-2.277-8.255-1.134-6.995-.583zm-14.572,1.749v1.749c2.372,1.63 5.887,1.591 8.744,1.749 14.548,.804 29.032,1.733 40.804,2.332 2.778,.142 9.119,2.004 9.327-2.915-20.596-.681-40.097-3.214-58.875-2.915zm133.48,.583c-.454,.129-.678,.488-.583,1.166v1.166c17.172,2.061 34.973,2.421 50.131,3.498 2.824,.201 8.805,2.155 9.326-2.332-15.61-1.784-38.43-3.051-58.88-3.498zm71.7,26.233c2.662-.683 2.611-4.728 2.915-6.995 .972-7.258 .295-11.811-.583-16.322-.033-.355-.087-.69-.583-.583-3.1,4.316-2.63,15.88-1.76,23.9zm5.25-15.158c-.328-2.975 .891-7.497-1.165-8.744-.07,3.379 .1,6.505 1.17,8.744zm-55.38-4.663c-1.646-2.296-5.215-.977-8.161-1.166-4.616-.295-9.966-1.65-13.407-.583 6.72,1.051 14.73,.813 21.57,1.749zm-133.49-1.749c-1.025,.335-3.425-.705-3.498,.583 1.026-.335 3.426,.704 3.498-.583zm9.91,.583c-2.154,.372-5.807-.754-6.995,.583 2.154-.372 5.807,.755 6.995-.583zm8.744,.583c-1.772,.366-5.021-.746-5.829,.583 1.771-.366 5.021,.746 5.829-.583zm117.74,.583c2.782-.45 3.752,.912 6.412,.583 .46-2.271-7.83-1.13-6.41-.583zm-153.3,3.497c7.741,1.103 17.686,.566 26.814,1.166 3.832,.251 7.804,.851 11.658,1.166 3.852,.315 10.781,2.389 11.658-1.749-2.641-2.279-6.2-.991-9.327-1.166-14.299-.799-31.473-2.722-47.799-2.915 1.255,2.84 4.282,3.112 6.996,3.498zm41.97-3.497c-.847,.319-3.013-.681-2.915,.583 .847-.319 3.013,.681 2.915-.583zm82.771,2.914c15.572,1.867 35.841,2.985 52.462,3.498 2.107,.065 7.101,2.515 7.578-1.749-9.264-2.41-19.454-1.725-29.729-2.332-9.572-.566-21.425-1.609-30.312-2.332v2.915zm45.47-1.748c6.257,.603-2.665,1.76 6.412,0 .997-.193 1.42-.312 0-.583-5.473-1.044-11.825-.767-15.738,0 4.42-.375 7.01,.359 9.33,.583zm20.4,2.331c-3.73-.672-1.28,1.781 0,0zm-202.27,4.664c.077-1.437 .088-2.809-.583-3.497h-1.749c-.472,2.415 1.698,2.188 2.332,3.497zm193.53,.583c-17.065-1.924-40.34-3.427-55.96-2.915 18.73,.888 36.71,2.539 55.96,2.915zm-6.41,11.077c-30.086-1.468-62.816-4.032-93.85-5.829-20.749-1.201-41.114-3.068-62.372-4.663-10.667-.8-22.018-.383-29.729-3.498-.454,.129-.678,.488-.583,1.166v1.166c7.223,5.627 20.756,4.395 32.643,5.247 44.273,3.171 90.979,6.513 135.24,8.744 6.907,.348 14.549,2.423 20.984-.583-1.133-1.815 2.163,2.384 1.749-1.166-.08-2.42-2.89-1.46-4.08-.58zm23.31-11.077c-.319-.847 .681-3.013-.583-2.915-.79,.743-.9,2.855 .58,2.915zm-76.36-.583c-.863,.108-.534,1.409-.583,2.332 4.577,2.15 10.879,1.406 16.905,1.749 13.51,.768 33.08,4.544 42.553-.583-16.79-1.772-40.02-2.896-58.88-3.498zm-114.25,10.49c7.521,.638 15.843,1.243 23.899,1.749 47.706,2.998 98.958,8.295 142.23,9.327 1.121-.688-1.27-3.689 1.166-4.081 .353,1.202-.941,4.05 1.165,3.498 1.283-.66 .041-3.846 1.749-4.08 .336,1.024-.704,3.425 .583,3.498 1.328-1.626-.588-2.879 .583-4.664-50.178-.499-103.22-5.567-149.81-8.744-9.459-.645-18.917-1.802-26.231-1.749-1.485,.011-2.742,.724-4.08,.583-3.36-.354-6.659-2.377-9.91-2.332-.758,.011 .192,2.8-1.166,0-.033-.355-.087-.69-.583-.583 .744,7.685 12.476,6.895 20.41,7.565zm190.03-3.495c-.382,7.302 2.283-3.562-.583-3.498-.42,1.781 .59,2.125 .58,3.498zm-8.16-2.915c-.99,5.05 2.76,.889 0,0zm-9.91,6.41v2.915c2.41,.5 1.78-2.92 0-2.92zm2.91,2.33c-.335-1.025 .705-3.425-.583-3.498 .23,1.78-1.53,2.97 .58,3.5zm7.58,.59c.994-.94 .534-3.005-.583-3.498 .33,1.02-.71,3.42 .58,3.5zm9.91,2.33c2.8,1.3 3.322-4.763 2.332-3.498-.11,1.83-1.5,2.38-2.33,3.5zm-25.06,8.74c-.129-.454-.488-.678-1.166-.583-3.929,8.507-7.523,17.349-13.99,23.316 4.453-7.399 9.677-14.028 12.824-22.733-4.03,1.605-2.774,8.495-6.995,9.91 .724-2.359 5.845-8.399 3.498-9.91-1.686,1.229-.741,5.088-3.498,5.246 .187-1.631 3.706-5.256 1.166-5.829-1.689,.836-1.065,3.986-2.915,4.664-.376-2.32 1.543-2.343 1.166-4.664-2.81-.478-1.14,3.524-3.497,3.498-.816-1.906 2.901-3.769 0-4.08-.95,.457-1.225,4.542-2.332,2.915-.152-1.707 1.318-1.791 1.166-3.498-24.854-1.278-47.91-4.21-69.949-4.081 13.173,13.943 30.104,34.809 54.794,36.724 4.88,.379 6.861-2.041 10.492-1.166-4.457,1.936-6.695,2.67-11.658,2.332-25.369-1.728-40.991-24.74-55.96-38.473-11.247,12.336-30.674,34.368-54.211,23.899 25.478,6.252 41.479-10.57 52.462-24.482-26.418-1.086-50.033-3.835-74.612-4.663-1.047,2.654 5.885,4.51 2.332,8.161 3.288,2.341 5.682,5.596 8.161,8.744 2.411,3.062 5.307,6.208 6.995,9.91-.745-.032-.808-.747-1.749-.583 3.854,8.194 6.252,17.841 10.493,25.648 2.277-.443 2.776-2.664 5.246-2.914 18.666,13.619 59.3,17.149 86.271,11.075 6.709-1.511 12.804-4.95 19.236-5.246 2.562,1.906 3.811,5.127 3.497,9.909 4.484-1.181 4.5,2.107 6.995,2.915 1.863-7.27 3.404-14.86 6.412-20.985-.981,9.318-5.908,17.794-6.412,25.648 5.108-13.739 11.218-29.586 12.824-44.884-.532,1.022-1.084,2.025-2.914,1.749-1.428,.775 .641,2.169-.583,2.332-4.384,2.417-6.431,7.17-11.076,9.326 6.04-9.55 13.35-17.78 17.49-29.19zm1.16,0c-1.116,2.007-3.635,5.672-2.914,7.578 .57-2.56 3.77-5.53 2.91-7.58zm3.5-9.33v4.664c2.57,.822 .009-3.488 1.749-3.498-.163,1.329 .14,2.191 1.165,2.332-.347-1.208 .721-3.829-.583-4.08-.52,1.71-.88,.67-2.34,.59zm-4.08,38.48c-1.769,5.76-3.931,11.431-4.663,16.904 5.233-14.003 10.992-30.588 12.241-46.633-1.65,11.2-4.75,20.51-7.58,29.73zm.58-11.08c-3.03,12.08-6.64,23.099-9.909,33.809 5.682-11.272 13.128-34.408 15.156-50.13-3.13,4.18-3.72,10.25-5.25,16.32zm-4.08,5.25c-1.015,4.156-1.827,8.465-2.914,12.241-2.496,8.665-6.143,15.265-6.995,22.15 6.407-14.188 11.807-32.493 14.572-48.381-2.9,2.91-3.35,8.56-4.67,13.99zm-129.41,18.07c15.335,9.372 40.493,15.434 65.87,13.99 11.548-.657 23.248-3.321 32.06-6.412 3.125-1.097 7.004-1.393 8.744-4.08-7.719,.394-16.022,4.14-25.065,5.829-29.548,5.521-62.075,.169-80.442-11.658h-1.749c-1.168,1.19 .26,1.14 .585,2.33zm4.081,18.07c1.947,4.541 4.919,13.983 9.327,15.739 6.97,2.775 14.14,6.387 22.734,8.16 24.082,4.972 50.664,2.999 69.366-5.246 2.388-8.299 1.951-19.423 2.915-29.146-6.625-.382-12.811,3.024-19.819,4.663-6.89,1.611-14.55,3.106-21.568,3.498-27.396,1.528-50.632-4.511-69.366-14.573 1.538,5.97 3.949,11.17 6.411,16.91zm-3.498-4.66c-1.77,1.96 2.155,1.76 0,0zm-.583,11.65c2.726,22.052 33.753,33.623 57.708,34.975 13.798,.778 25.86-1.541 34.975-4.08 3.436-.957 7.975-.748 9.327-4.08-2.162-2.385-4.85,.545-5.829-1.749 2.538-.376 6.589,.76 8.16-.583-2.388-1.336 1.859-.777 1.749-1.749-7.191-.387-15.931,.774-22.15-.583 1.024-.335 3.425,.705 3.497-.583-3.895-1.396-7.85,.661-11.658,0-1.078-.187-1.695-1.11-2.915-1.165-1.763-.08-3.314,.446-5.246,.583-10.747,.759-24.676-.854-33.226-2.915-8.259-1.99-13.438-6.294-20.402-3.497-9.046-3.001-6.651-17.443-12.824-23.317-1.119,2.13-1.579,5.35-1.16,8.74zm129.41-5.82c.086-1.446 .108-2.829-1.166-2.915-.08,1.45-.1,2.83 1.17,2.92zm-18.65,.58c1.821,.267 1.863-1.245 1.749-2.915-1.75-.04-2.96,1.72-1.75,2.92zm-2.33,4.08c.812,3.359-1.445,6.69 0,8.744 .27-1.453 2.119-3.372 2.914-5.246 .695-1.64 2.423-4.695 .583-5.247-.49,1.27-2.55,.95-3.49,1.76zm5.83,.58c-.558-1.086 1.745-1.948 0-2.332-.17,.36-1.45,2.24 0,2.33zm3.49,13.41c-.215-1.567 .534-7.096-.583-5.829 .22,1.57-.53,7.1 .58,5.83zm-2.91,1.16v-5.829c-3.16,.071 .043,2.882-1.748,4.08-.863-.108-.534-1.409-.583-2.332-5.542,2.036-10.482,4.674-15.739,6.995 7.185,3.749 14.898,2.904 19.819-2.331-.372-2.154 .755-5.807-.583-6.995-2.04,1.72 1.36,5.95-1.17,6.41zm4.66-2.91c-.006-.854 .22-4.77-.583-2.914 .01,.85-.22,4.77 .58,2.91zm-12.82,28.56c1.741-1.308-1.119-3.84 1.166-4.08 .318,.847-.682,3.013 .583,2.915 1.337-.606-.276-4.163 1.165-4.664 1.65-.096-.484,3.594 1.166,3.498 1.59-1.714-.461-7.068 1.166-8.744 .783,1.103-.077,5.417 1.166,7.578 1.249-2.637 .274-7.497 .583-11.075-6.768,2.586-13.533,6.622-21.568,8.743-35.821,9.459-78.677-1.099-91.517-25.647 1.376,38.18 69.897,48.16 106.09,31.47zm-91.52-27.4c-.679-1.675-4.128-3.614-5.246-2.915 1.415,1.51 2.727,4.22 5.246,2.92zm109.59,9.92c-.069-.969 .318-5.279-.583-3.497 .06,.97-.32,5.28 .58,3.5zm-27.98-3.5c-1.771,.365-5.021-.746-5.829,.583 1.77-.37 5.02,.75 5.83-.58zm26.23,6.99c.177-1.967 .968-5.237-.583-6.995 .37,2.15-.76,5.8 .58,6.99zm-1.75,3.5c.976-2.362 1.074-8.296-.582-9.909-.1,2.75-.52,6.91 .58,9.91zm-25.65-9.33c-7.11-.67-5.03,1.73 0,0zm22.15,11.08v-8.744c-2.6,1.286-.477,7.296-1.166,10.493 4.398-.079 3.079-8.958 2.332-12.241-1.62,2.25 .5,8.26-1.16,10.49zm-27.98-9.91c-.476,2.393 7.393,1.115 5.246,0-1.58,.57-2.7,.4-5.25,0zm7.58,0c-.123,.704-.646,.358-1.165,0-.92,2.44 3.56,.63 1.16,0zm16.91,13.41c3.342-1.74 1.62-9.084 .582-11.075-1.25,2.64-.28,7.5-.58,11.08z"/>
<path fill="#5f6062" d="m233.49,105.03c.99-1.266 .468,4.797-2.332,3.498 .83-1.12 2.22-1.67 2.33-3.5z"/>
</g>
<g fill="#b32317">
<path d="m188.61,146.42c4.646-2.156 6.692-6.909 11.076-9.326 1.224-.163-.845-1.557 .583-2.332 1.83,.276 2.382-.727 2.914-1.749-1.606,15.298-7.716,31.145-12.824,44.884 .504-7.854 5.431-16.33 6.412-25.648-3.008,6.125-4.549,13.716-6.412,20.985-2.495-.808-2.511-4.096-6.995-2.915 .313-4.782-.935-8.003-3.497-9.909-6.433,.296-12.527,3.735-19.236,5.246-26.971,6.074-67.605,2.544-86.271-11.075-2.47,.25-2.969,2.471-5.246,2.914-4.24-7.807-6.639-17.454-10.493-25.648 .941-.164 1.004,.551 1.749,.583-1.688-3.702-4.584-6.848-6.995-9.91-2.479-3.148-4.873-6.402-8.161-8.744 3.554-3.65-3.378-5.506-2.332-8.161 24.58,.828 48.194,3.577 74.612,4.663-10.982,13.913-26.984,30.734-52.462,24.482 23.537,10.469 42.964-11.563 54.211-23.899 14.969,13.732 30.591,36.745 55.96,38.473 4.963,.338 7.201-.396 11.658-2.332-3.631-.875-5.612,1.545-10.492,1.166-24.69-1.915-41.621-22.78-54.794-36.724 22.039-.13 45.096,2.802 69.949,4.081 .152,1.707-1.318,1.791-1.166,3.498 1.107,1.628 1.382-2.458 2.332-2.915 2.901,.312-.816,2.174 0,4.08 2.357,.026 .688-3.976 3.497-3.498 .377,2.32-1.542,2.344-1.166,4.664 1.85-.677 1.226-3.827 2.915-4.664 2.54,.573-.979,4.198-1.166,5.829 2.757-.158 1.812-4.017 3.498-5.246 2.347,1.51-2.774,7.551-3.498,9.91 4.221-1.415 2.965-8.305 6.995-9.91-3.147,8.705-8.371,15.334-12.824,22.733 6.467-5.968 10.062-14.81 13.99-23.316 .678-.095 1.037,.129 1.166,.583-4.12,11.45-11.43,19.68-17.47,29.19zm.58-4.67c-.007,1.158-1.59,.741-1.165,2.332 1.48,.62 2.59-1.96 1.17-2.33zm-2.91-23.31c-.025-.803 .274-1.28 .583-1.749h-1.166c-.65,.84-.63,1.42 .59,1.75zm2.33,1.16c.064-.835 2.56-3.038 0-2.915 .35,1.05-1.71,2.43 0,2.92zm6.99,10.5c1.624,.934 1.612-2.518 .583-2.332 .14,1.1-.65,1.28-.58,2.33zm1.75,16.32h1.166v-1.166h-1.166v1.17zm-.58,3.5c1.7,.856 1.7-2.606 0-1.749v1.75z"/>
<path d="m204.35,124.85c-.721-1.906 1.798-5.571 2.914-7.578 .86,2.05-2.34,5.02-2.91,7.58z"/>
<path d="m214.26,116.69c-1.249,16.044-7.008,32.63-12.241,46.633 .732-5.474 2.895-11.145 4.663-16.904 2.83-9.22 5.93-18.53 7.58-29.73z"/>
<path d="m212.51,119.02c-2.028,15.722-9.475,38.857-15.156,50.13 3.27-10.71 6.879-21.729 9.909-33.809 1.53-6.07 2.12-12.14 5.25-16.32z"/>
<path d="m71.443,159.82c18.734,10.062 41.97,16.102 69.366,14.573 7.019-.392 14.679-1.887 21.568-3.498 7.009-1.639 13.194-5.045 19.819-4.663-.964,9.723-.527,20.847-2.915,29.146-18.702,8.245-45.284,10.218-69.366,5.246-8.594-1.773-15.764-5.385-22.734-8.16-4.408-1.756-7.379-11.198-9.327-15.739-2.456-5.74-4.867-10.94-6.406-16.91zm9.327,19.24c1.46,3.562 4.979,12.169 8.161,13.407 15.835,6.163 35.94,10.188 57.126,8.743 11.358-.774 22.256-3.482 30.894-7.578 .698-7.748 2.919-16.445 .583-22.733-5.81,.128-11.786,2.179-18.07,3.498-23.914,5.019-53.65,2.404-72.281-5.247-3.703-1.521-7.188-3.984-11.076-4.08 .742,4.4 2.681,9.15 4.667,13.99z"/>
</g>
<g>
<path fill="#5f6062" d="m90.096,177.9c-.52-1.47 4.562,2.66 0,0z"/>
<path fill="#b32317" d="m168.79,204.71c2.146,1.115-5.722,2.393-5.246,0 2.55,.4 3.67,.57 5.25,0z"/>
<path d="m154.22,75.302c-.237,3.26-.995,6-3.497,6.995 1.601,2.171-.742,4.428-1.166,6.412-.689,.671-2.061,.66-3.497,.583 4.206,.913 .927,5.176 0,7.578-20.556-1.596-41.705-2.597-62.372-4.081-.424-2.95 1.6-3.452 1.749-5.829 1.634-.697 4.022-.641 6.412-.583-.65-1.487-4.508,.234-5.246-1.166 1.299-2.393 1.865-5.519 4.663-6.412-2.474-2.062 1.487-4.195 1.749-6.995 20.035,.963 39.975,2.416 61.215,3.498zm-57.129-1.165c.179-1.184-1.684,.119-1.749,.583-.679,.098-.633,.922-.583,1.749 15.028,2.023 35.419,2.992 49.548,3.498 3.001,.107 7.258,2.555 8.16-2.332-15.93-1.896-35.92-2.734-55.379-3.498zm4.659,4.663c-2.154,.372-5.807-.755-6.995,.583 2.159-.372 5.815,.755 6.995-.583zm4.67,1.166c3.96-.836 7.72,1.588 10.492,0-2.26-.61-10.28-1.178-10.49,0zm43.13,1.748c-9.384,.046-21.847-2.347-32.061-1.166 10.45,.244 22,2.485 32.06,1.166zm-58.288,1.749c2.589,1.605 5.965,1.587 9.327,1.749 12.166,.586 23.679,1.142 36.724,1.749 3.555,.166 11.032,2.589 12.241-1.166-2.061-3.331-5.963-1.587-8.744-1.749-15.789-.916-32.675-2.679-49.547-2.915-.001,.778-.001,1.555-.001,2.332zm1.166,2.914c2.559,1.476 3.324-2.095 0,0zm3.497,.583c3.611-.488 8.571,.736 10.492,0-2.85-.23-8.902-2.262-10.495,0zm26.815,1.166c-3.111-.681-12.649-2.01-13.989-.583 5.26-.402 8.73,.986 13.99,.583zm12.24,1.166c3.591,.204 7.674,.629 9.327-.583-7.84,.538-15.838-1.882-20.985-.583 3.02,.556 7.81,.947 11.66,1.166zm-47.215,1.749c2.491,2.243 5.454,.977 9.326,1.166 11.389,.555 26.982,2.215 39.055,2.915 3.671,.213 9.939,1.795 10.492-2.915-22.289-2.102-37.532-2.806-58.874-3.497-.001,.776-.001,1.554-.001,2.331z"/>
<path fill="#5f6062" d="m175.2,172.07c.195,6.607-.992,11.832-1.166,18.07-8.153,1.95-15.971,4.237-25.648,4.663-.802-1.765 .277-2.082 0-4.663-1.991-.438-.74,2.368-2.914,1.749v-8.744c.839-1.29 1.422,.734 1.748-.583-1.725-1.761 .198-1.645-.583-4.663 9.2-.5 19.29-3.65 28.56-5.84zm-29.14,13.4c1.567,.401 1.126-1.205 1.748-1.749h-1.748v1.75z"/>
<path d="m76.106,165.07c3.887,.096 7.373,2.56 11.076,4.08 18.63,7.651 48.367,10.266 72.281,5.247 6.284-1.319 12.261-3.37 18.07-3.498 2.336,6.288 .115,14.985-.583,22.733-8.638,4.096-19.535,6.804-30.894,7.578-21.186,1.444-41.291-2.58-57.126-8.743-3.181-1.238-6.7-9.845-8.161-13.407-1.989-4.84-3.928-9.59-4.667-13.99zm70.534,12.83c.781,3.019-1.142,2.902 .583,4.663-.326,1.317-.909-.707-1.748,.583v8.744c2.174,.619 .923-2.187 2.914-1.749 .277,2.581-.802,2.898 0,4.663 9.678-.426 17.495-2.713 25.648-4.663 .174-6.238 1.361-11.463 1.166-18.07-9.27,2.2-19.36,5.35-28.56,5.84zm-58.875-4.08c-.374,2.078 4.075,.597 1.749,2.914 1.374,.411 3.698,1.338 3.498-1.166-1.515,.35-2.098-.233-1.749-1.748-2.048,1.33-1.918-1.23-3.498,.01zm9.909,18.06c13.217,4.464 28.767,6.597 47.216,5.829 .018-6.819-1.398-12.203-1.166-19.236-18.417,.734-34.263-1.101-48.382-4.663 .594,6.22 1.458,12.15 2.336,18.07zm-7.578-13.98c4.562,2.66-.52-1.47 0,0zm61.204,18.65c3.928,.042 7.083-.689 9.909-1.749-3.82,.07-7.31,.46-9.91,1.75z"/>
<path fill="#b32317" d="m74.94,174.98c6.173,5.874 3.778,20.316 12.824,23.317 6.964-2.797 12.143,1.507 20.402,3.497 8.55,2.061 22.479,3.674 33.226,2.915 1.932-.137 3.483-.663 5.246-.583 1.22,.055 1.837,.979 2.915,1.165 3.809,.661 7.764-1.396 11.658,0-.072,1.288-2.473,.248-3.497,.583 6.22,1.357 14.959,.196 22.15,.583 .11,.972-4.137,.413-1.749,1.749-1.571,1.343-5.622,.207-8.16,.583 .979,2.294 3.667-.636 5.829,1.749-1.353,3.332-5.892,3.123-9.327,4.08-9.114,2.539-21.177,4.858-34.975,4.08-23.955-1.352-54.982-12.923-57.708-34.975-.417-3.39 .043-6.61 1.168-8.74zm88.6,33.23c1.582-.361 4.626,.74 5.246-.583-2.31,.12-4.24-1.19-5.25,.58z"/>
</g>
</g>
</svg>
