<svg xmlns="http://www.w3.org/2000/svg" viewBox="0 0 550.55 654.99">
<g transform="translate(-83.614 -84.315)">
<path fill="#e12424" stroke="#f01716" d="m349.54,84.815l284.12,306.54h-549.55l265.43-306.54z"/>
</g>
<g fill="#e8cdd4" stroke="#000">
<g transform="matrix(.4825 0 0 1.0299 103.952 -30.1552)">
<path d="m48.243,142.7h63.112v30.034h-63.112z"/>
<path d="m48.243,142.68h25.774v10.243h-25.774z"/>
<path d="m74.243,142.68h25.774v10.243h-25.774z"/>
<path d="m60.243,152.68h25.774v10.243h-25.774z"/>
<path d="m48.243,162.68h25.774v10.243h-25.774z"/>
<path d="m74.243,162.68h25.774v10.243h-25.774z"/>
<path d="m85.986,152.74h25.295v9.708h-25.295z"/>
</g>
<g transform="matrix(.4825 0 0 1.0299 103.952 .91)">
<path d="m48.243,142.7h63.112v30.034h-63.112z"/>
<path d="m48.243,142.68h25.774v10.243h-25.774z"/>
<path d="m74.243,142.68h25.774v10.243h-25.774z"/>
<path d="m60.243,152.68h25.774v10.243h-25.774z"/>
<path d="m48.243,162.68h25.774v10.243h-25.774z"/>
<path d="m74.243,162.68h25.774v10.243h-25.774z"/>
<path d="m85.986,152.74h25.295v9.708h-25.295z"/>
</g>
</g>
<g transform="translate(-83.614 -84.315)">
<path fill="#fee" stroke="#f01716" d="m137.85,379.92h456.09v358.89h-456.09z"/>
</g>
<g stroke="#140707">
<g fill="#3987f8">
<g transform="translate(-83.614 -84.315)">
<path d="m177.57,433.66h29.907v31.776h-29.907z"/>
<path d="m207.57,465.66h29.907v31.776h-29.907z"/>
<path d="m177.57,465.66h29.907v31.776h-29.907z"/>
<path d="m207.57,433.66h29.907v31.776h-29.907z"/>
</g>
<g transform="translate(64.056 -82.4458)">
<path d="m177.57,433.66h29.907v31.776h-29.907z"/>
<path d="m207.57,465.66h29.907v31.776h-29.907z"/>
<path d="m177.57,465.66h29.907v31.776h-29.907z"/>
<path d="m207.57,433.66h29.907v31.776h-29.907z"/>
</g>
<g transform="translate(206.116 85.785)">
<path d="m177.57,433.66h29.907v31.776h-29.907z"/>
<path d="m207.57,465.66h29.907v31.776h-29.907z"/>
<path d="m177.57,465.66h29.907v31.776h-29.907z"/>
<path d="m207.57,433.66h29.907v31.776h-29.907z"/>
</g>
<g transform="translate(-83.614 89.685)">
<path d="m177.57,433.66h29.907v31.776h-29.907z"/>
<path d="m207.57,465.66h29.907v31.776h-29.907z"/>
<path d="m177.57,465.66h29.907v31.776h-29.907z"/>
<path d="m207.57,433.66h29.907v31.776h-29.907z"/>
</g>
<g transform="translate(215.456 -82.4458)">
<path d="m177.57,433.66h29.907v31.776h-29.907z"/>
<path d="m207.57,465.66h29.907v31.776h-29.907z"/>
<path d="m177.57,465.66h29.907v31.776h-29.907z"/>
<path d="m207.57,433.66h29.907v31.776h-29.907z"/>
</g>
</g>
<g fill="#d3788d" transform="translate(-83.614 -84.315)">
<path d="m308.42,575.72h89.722v162.38h-89.722z"/>
<path d="m369.17,666.02a5.0235,5.4908 0 1,1 -10.05,0 5.0235,5.4908 0 1,1 10.05,0z" transform="translate(19.627 .9346)"/>
<path d="m357.72,664.27h25.234v6.776h-25.234z"/>
</g>
</g>
<g fill="#d3788d" transform="translate(-83.614 -84.315)">
<path d="m277.81,660.3a3.0375,3.7384 0 1,1 -6.07,0 3.0375,3.7384 0 1,1 6.07,0z" transform="matrix(1.1538 0 0 1.1875 65.674 -116.8)"/>
</g>
<g fill="#e8cdd4" stroke="#000">
<g transform="matrix(.4825 0 0 1.0299 103.952 -92.1556)">
<path d="m48.243,142.7h63.112v30.034h-63.112z"/>
<path d="m48.243,142.68h25.774v10.243h-25.774z"/>
<path d="m74.243,142.68h25.774v10.243h-25.774z"/>
<path d="m60.243,152.68h25.774v10.243h-25.774z"/>
<path d="m48.243,162.68h25.774v10.243h-25.774z"/>
<path d="m74.243,162.68h25.774v10.243h-25.774z"/>
<path d="m85.986,152.74h25.295v9.708h-25.295z"/>
</g>
<g transform="matrix(.4825 0 0 1.0299 103.952 -61.0904)">
<path d="m48.243,142.7h63.112v30.034h-63.112z"/>
<path d="m48.243,142.68h25.774v10.243h-25.774z"/>
<path d="m74.243,142.68h25.774v10.243h-25.774z"/>
<path d="m60.243,152.68h25.774v10.243h-25.774z"/>
<path d="m48.243,162.68h25.774v10.243h-25.774z"/>
<path d="m74.243,162.68h25.774v10.243h-25.774z"/>
<path d="m85.986,152.74h25.295v9.708h-25.295z"/>
</g>
</g>
<g fill="#3987f8" stroke="#3c1e1d" transform="translate(-119.129 -80.5766)">
<path d="m-293.47,262.62a41.123,42.057 0 1,1 -82.24,0 41.123,42.057 0 1,1 82.24,0z" transform="matrix(.71023 0 0 .66111 626.66 163.53)"/>
<path d="m360.11,336.57h57.478v.234h-57.478z"/>
<path d="m-365.7-388.25h55.123v.214h-55.123z" transform="matrix(-.00083 -1 -1 .00283 0 0)"/>
</g>
</svg>
