<svg xmlns="http://www.w3.org/2000/svg" viewBox="0 0 722.73 518.81" xmlns:xlink="http://www.w3.org/1999/xlink">
<defs>
<linearGradient gradientTransform="matrix(.55066 0 0 1.1887 139.86 -118.96)" id="linearGradient2105" xlink:href="#linearGradient2171" y1="486.25" y2="117.91" x1="321.63" gradientUnits="userSpaceOnUse" x2="361.43"/>
<linearGradient gradientTransform="matrix(.37088 .40703 -.87862 .80059 695.97 -82.286)" id="linearGradient2109" xlink:href="#linearGradient2171" y1="486.25" y2="117.91" x1="321.63" gradientUnits="userSpaceOnUse" x2="361.43"/>
<linearGradient gradientTransform="matrix(.50046 .22971 -.49585 1.0803 434.36 -158.49)" id="linearGradient2107" xlink:href="#linearGradient2171" y1="486.25" y2="117.91" x1="321.63" gradientUnits="userSpaceOnUse" x2="361.43"/>
<linearGradient id="linearGradient2171">
<stop offset="0" stop-color="#f66200"/>
<stop offset="1" stop-color="#f66200" stop-opacity="0"/>
</linearGradient>
<linearGradient gradientTransform="matrix(.23297 .49895 -1.077 .5029 862.19 42.19)" id="linearGradient2111" xlink:href="#linearGradient2171" y1="486.25" y2="117.91" x1="321.63" gradientUnits="userSpaceOnUse" x2="361.43"/>
<linearGradient gradientTransform="matrix(-.37088 .40703 .87862 .80059 50.254 -84.724)" id="linearGradient2115" xlink:href="#linearGradient2171" y1="486.25" y2="117.91" x1="321.63" gradientUnits="userSpaceOnUse" x2="361.43"/>
<linearGradient gradientTransform="matrix(.76666 0 0 1.3044 7.2857 -1.1429)" id="linearGradient2119" y1="428.6" y2="502.43" x1="517.41" gradientUnits="userSpaceOnUse" x2="415.49">
<stop offset="0" stop-color="#00941a" stop-opacity=".888"/>
<stop offset="0" stop-color="#00a30d" stop-opacity=".443"/>
<stop offset="1" stop-color="#00b300" stop-opacity=".429"/>
</linearGradient>
<linearGradient gradientTransform="matrix(-.23297 .49895 1.077 .5029 -116.66 39.14)" id="linearGradient2117" xlink:href="#linearGradient2171" y1="486.25" y2="117.91" x1="321.63" gradientUnits="userSpaceOnUse" x2="361.43"/>
<linearGradient gradientTransform="matrix(-.50046 .22971 .49585 1.0803 312.6 -158.86)" id="linearGradient2113" xlink:href="#linearGradient2171" y1="486.25" y2="117.91" x1="321.63" gradientUnits="userSpaceOnUse" x2="361.43"/>
</defs>
<g stroke-linecap="round">
<g stroke-opacity=".838" stroke="#e9001d" fill-rule="evenodd" stroke-linejoin="round" stroke-width="1.618" transform="matrix(.83361 0 0 .82131 50.629 -42.4142)" stroke-miterlimit="0">
<path fill="url(#linearGradient2105)" d="m372.86,52.457c-58.38,37.897-99.19,124.03-99.19,224.2 0,100.18 40.81,186.28 99.19,224.18 58.38-37.9 99.19-124 99.19-224.18 0-100.17-40.81-186.31-99.19-224.2z"/>
<path fill="url(#linearGradient2107)" d="m574.63,94.508c-39.41,5.772-80.16,28.352-115.66,63.622 13.47,35.39 21.19,76.22 21.19,119.69 0,97.44-38.69,181.42-94.53,220.81 .66,1.11 1.25,2.29 1.93,3.38 68.87-10.09 141.9-71.34 183.69-162.38s40.62-186.33 3.38-245.12z"/>
<path fill="url(#linearGradient2109)" d="m686.06,200.24c-24.55-.25-50.83,4.35-77.41,13.44-.93,41.34-10.99,86.24-31.16,130.19-41.62,90.69-114.26,151.78-182.9,162.22 .07,.43 .08,.88 .15,1.31 67.34,17.63 158.46-10.22 232.5-77.69 74.05-67.47 110.25-155.64 98.94-224.31-12.62-3.31-26.09-5.01-40.12-5.16z"/>
<path fill="url(#linearGradient2111)" d="m722.61,299.79c-15.06,46.79-45.77,94.82-90.28,135.38-72.41,65.98-161.09,93.96-227.94,78.69-1.69,.31-3.4,.71-5.09,.96-.05,.24-.09,.49-.13,.72 59.04,36.87 154.33,37.42 245.1-4.97 90.76-42.38 151.54-115.81 161.18-184.75-22.92-14.31-51.37-23.05-82.84-26.03z"/>
<path fill="url(#linearGradient2113)" d="m172.34,94.145c39.4,5.773 80.16,28.355 115.65,63.625-13.47,35.39-21.19,76.21-21.19,119.69 0,97.44 38.7,181.41 94.54,220.81-.67,1.11-1.25,2.29-1.94,3.38-68.87-10.09-141.9-71.34-183.69-162.38s-40.62-186.33-3.37-245.12z"/>
<path fill="url(#linearGradient2115)" d="m60.164,197.8c24.545-.25 50.836,4.35 77.406,13.44 .93,41.34 10.99,86.24 31.16,130.19 41.63,90.7 114.27,151.78 182.9,162.22-.06,.43-.08,.88-.15,1.31-67.34,17.63-158.46-10.22-232.5-77.69-74.048-67.47-110.25-155.63-98.941-224.31 12.625-3.31 26.095-5.01 40.125-5.16z"/>
<path fill="url(#linearGradient2117)" d="m22.912,296.74c15.059,46.79 45.768,94.82 90.278,135.38 72.41,65.98 161.09,93.96 227.94,78.69 1.7,.31 3.4,.71 5.09,.96 .05,.24 .1,.49 .13,.72-59.04,36.87-154.33,37.42-245.09-4.97-90.771-42.38-151.55-115.81-161.19-184.75 22.92-14.31 51.372-23.05 82.842-26.03z"/>
</g>
<g transform="matrix(.83361 0 0 .82131 50.629 -42.4142)">
<path fill="none" stroke="url(#linearGradient2119)" stroke-width="30" d="m373,518.36c7.29,121.43 75.71,149.86 75.71,149.86"/>
</g>
</g>
</svg>
