<svg xmlns="http://www.w3.org/2000/svg" viewBox="0 0 744.0945 1052.3622" xmlns:xlink="http://www.w3.org/1999/xlink">
<defs>
<linearGradient gradientTransform="matrix(.75592 0 0 1.3229 -36 0)" spreadMethod="reflect" id="linearGradient7607" y1="45.133" y2="471.38" x1="-526.86" gradientUnits="userSpaceOnUse" x2="1370.6">
<stop offset="0"/>
<stop offset="1" stop-opacity="0"/>
</linearGradient>
</defs>
<path fill="url(#linearGradient7607)" d="m70.29,24.826v602.34h35.44v-35.44h35.44v-35.4h35.4v-35.44h70.88v70.84h35.43v70.88h35.44v70.87h35.44v35.44h70.84v-35.44h35.44v-70.87h-35.44v-70.88h-35.4v-70.84h-35.44v-70.88h141.72v-35.43h-35.44v-35.44h-35.44v-35.44h-35.4v-35.41h-35.44v-35.43h-35.44v-35.44h-35.44v-35.44h-35.43v-35.44h-35.44v-35.43h-35.44v-35.44h-35.4v-35.406h-35.44v-35.438h-35.44z"/>
<path fill-rule="evenodd" d="m35.438,24.812v602.35h35.437v-35.44h35.435v-35.41h-35.435v-460.65l35.435-.004v-35.406h-35.435v-35.438h-35.437zm70.872,70.844v35.434h35.41v-35.434h-35.41zm35.41,35.434v35.44h35.44v-35.44h-35.44zm35.44,35.44v35.44h35.43v-35.44h-35.43zm35.43,35.44v35.44h35.44v-35.44h-35.44zm35.44,35.44v35.43h35.44v-35.43h-35.44zm35.44,35.43v35.44h35.44v-35.44h-35.44zm35.44,35.44v35.41h35.43v-35.41h-35.43zm35.43,35.41v35.43h35.41v-35.43h-35.41zm35.41,35.43v35.44h-106.28v106.32h35.44v-70.88h141.71v-35.44h-35.43v-35.44h-35.44zm-70.84,141.76v70.84h35.43v-70.84h-35.43zm35.43,70.84v70.87h35.41v-70.87h-35.41zm35.41,70.87v70.88h35.44v-70.88h-35.44zm0,70.88h-70.84v35.44h70.84v-35.44zm-70.84,0v-70.88h-35.44v70.88h35.44zm-35.44-70.88v-70.87h-35.44v70.87h35.44zm-35.44-70.87v-70.84h-35.44v70.84h35.44zm-35.44-70.84v-70.88h-35.43v35.44h-35.44v35.44h70.87zm-70.87,0h-35.41v35.43h35.41v-35.43z"/>
<path fill="#fff" d="m70.875,95.656v460.65h35.435v-35.43h35.41v-35.44h35.44v-35.44h35.43v70.88h35.44v70.84h35.44v70.87h35.44v70.88h70.84v-70.88h-35.41v-70.87h-35.43v-70.84h-35.44v-106.32h106.28v-35.44h-35.41v-35.43h-35.43v-35.41h-35.44v-35.44h-35.44v-35.43h-35.44v-35.44h-35.43v-35.44h-35.44v-35.44h-35.41v-35.434h-35.435z"/>
</svg>
