<svg xmlns="http://www.w3.org/2000/svg" viewBox="0 0 625 625" xmlns:xlink="http://www.w3.org/1999/xlink">
<defs>
<linearGradient id="linearGradient613">
<stop offset="0" stop-color="#4c3f4c" stop-opacity=".749"/>
<stop offset="1" stop-color="#ffe6da" stop-opacity=".498"/>
</linearGradient>
<linearGradient id="linearGradient618">
<stop offset="0" stop-color="#4c3f4c" stop-opacity=".247"/>
<stop offset="1" stop-color="#ffe6da" stop-opacity=".247"/>
</linearGradient>
<linearGradient id="linearGradient878" xlink:href="#linearGradient727" y1="-.11" y2="1.178" x1="-.143" x2="1.373"/>
<linearGradient id="linearGradient727">
<stop offset="0" stop-color="#fff" stop-opacity=".498"/>
<stop offset="1" stop-color="#fff" stop-opacity=".247"/>
</linearGradient>
<linearGradient id="linearGradient703" xlink:href="#linearGradient618" y1=".938" y2=".094" x1=".572" x2=".439"/>
<linearGradient id="linearGradient617" y1=".523" x1=".081" y2=".508" x2=".5">
<stop offset="0" stop-opacity=".153"/>
<stop offset="1" stop-opacity=".498"/>
</linearGradient>
<linearGradient id="linearGradient664" xlink:href="#linearGradient727" y1=".102" y2=".953" x1=".091" x2=".909"/>
<radialGradient cx=".05" cy=".936" id="radialGradient621" xlink:href="#linearGradient618" r="1.051"/>
<radialGradient cx=".553" cy=".047" id="radialGradient640" r=".898">
<stop offset="0" stop-color="#ff9a3f"/>
<stop offset="1" stop-color="#fff" stop-opacity="0"/>
</radialGradient>
<radialGradient cx=".156" cy=".93" id="radialGradient616" xlink:href="#linearGradient613" r="1.002"/>
<radialGradient cx=".5" cy=".977" id="radialGradient630" r=".972">
<stop offset="0" stop-color="#7f3f00" stop-opacity=".247"/>
<stop offset="1" stop-color="#ff0" stop-opacity=".247"/>
</radialGradient>
<radialGradient cx=".07" cy=".984" id="radialGradient730" xlink:href="#linearGradient613" r="1.697"/>
<radialGradient cx=".136" cy=".141" id="radialGradient714" xlink:href="#linearGradient727" r="1.1"/>
<radialGradient cy=".954" id="radialGradient712" r="2.606">
<stop offset="0" stop-color="#331900"/>
<stop offset="1" stop-color="#323200" stop-opacity=".165"/>
</radialGradient>
<radialGradient cx=".184" cy=".125" id="radialGradient646" r="1.091">
<stop offset="0" stop-color="#fff" stop-opacity=".51"/>
<stop offset="1" stop-color="#f00" stop-opacity=".302"/>
</radialGradient>
<radialGradient cx=".048" cy=".481" id="radialGradient831" xlink:href="#linearGradient727" r=".632"/>
<radialGradient cx=".284" cy=".305" id="radialGradient838" xlink:href="#linearGradient727" r=".956"/>
</defs>
<g fill-rule="evenodd">
<path stroke-opacity=".5" fill="#99bf17" stroke="#7f7f7f" stroke-width="6.25" d="m58.974,195.02c57.786,220.24 80.796,284.88 146.6,372.17 16.36,21.7 145.25,53.99 168.19,52.9 47.46-2.24 78.09-86.21 83.9-87.3 76.04-21.55 73.12-27.57 103.79-106.9 22.87-59.12-16.56-90.68-68.2-105.88-3.48-4.38 16.72-171.15 2.4-196.95l-436.68,71.96zm431.01,193.17c61.68,27.58 6.91,86.69-11,79.38 4.82-25.41 9.22-47.41 11-79.38z"/>
<path fill="url(#linearGradient617)" d="m457.56,532.82c-4.9,.93-27.1,60.21-62.41,79.92-4.92,2.82-10.02,4.74-15.49,5.76-304.4-52.9 35.23-141.61-11.8-304.75 31.37-11.68 94.39-39.53 128.33-188.29 13,29.72-6.49,190.19-3.01,194.6 0,0 .13,.01 0,.87-5-1.01-10.29-1.54-15.75-1.46-16.9,7.03-48.04,30.38-17.19,69.13-.06-.01-.06,.05-.13,.05 15.12-6.61 29.72-.09 29.81-.39-1.78,31.95-6.05,53.94-10.9,79.33 .09-.31 .09-.31 0,0 5.47,2.24 14.43-1.77 22.4-9.18-2.99,21.65 17.58,39.41 23.68,24.59 48.45-117.62-19.67-87.02 13.02-128.82 2.48-3.69 2.88-8.05 1.47-12.48 24.93,18.16 37.01,45.11 21.9,84.12-30.65,79.44-27.73,85.43-103.93,107-.13-.01-.13-.01 0,0z"/>
<path fill="url(#radialGradient838)" d="m59,195c57.75,220.25 80.75,284.88 146.56,372.19 85.13,35.56 8.51-6.79 27.06-32.5 130.26-181.81 24.25-359.5-16.93-365.5l-156.69,25.81z"/>
<path stroke-opacity=".5" fill="#fff" stroke="url(#linearGradient703)" stroke-width="6.25" d="m202.12,16.991c-60.52,11.336-151.16,143.2-143.27,180.72 13.813,70.22 224.47,145.9 315.21,122.1 85.62-23.68 131.62-166.93 122.34-203.23-15.12-68.092-232.95-110.58-294.28-99.589z"/>
<path fill="url(#radialGradient730)" d="m276.09,299.21c-26.42-1.56-50.1-6.49-67.38-12.31-94.97-33.61-157.63-98.45-95.52-181.45 45.16-60.996 115.24-72.737 179.55-65.909-15.76,33.905-24.91,23.062-36.05,46.454-13.35,29.065 33.97,17.155 12.46,55.325-19.6,37.97 23.2,20.71 2.25,61.25-20.69,45.75 34.82,24.56 3.34,65.01-13.57,18.31-17.71,22.01 1.35,31.63z"/>
<path fill="url(#radialGradient616)" stroke="url(#radialGradient621)" stroke-width="6.25" d="m342.38,47.765c102.38,25.327 170.18,76.985 109.45,184.78-45.34,82.76-183.22,74.74-243.15,54.34-94.98-33.53-157.6-98.38-95.55-181.45 57.11-77.238 154.25-75.36 229.25-57.665z"/>
</g>
<path stroke-opacity=".5" fill="none" stroke="url(#radialGradient831)" stroke-width="6.25" d="m458.85,459.5c-7.66,12.77-15.94,18.25-18.88,23.24-8.4,12.1 .07,28.85-3.54,56.95 5.58-2.53 20.98-6.91 21.14-6.88 76.21-21.55 73.24-27.57 103.9-106.97 22.42-57.83-14.89-89.18-65.05-104.63-12.05-2.62-25.52-2.56-39.87,.11-14.59,13.28-20.87,14.1-29.53,24.05-10.05,10.71 7.41,42.58 12.99,62.41 18.15-33.36 49.84-19.05 49.94-19.55 61.67,27.57 7.01,86.71-10.91,79.39 .07-.33-13.15-3.2-20.19-8.12z"/>
<g fill-rule="evenodd">
<g>
<path fill="#fff" fill-opacity=".25" d="m471.93,324.53c-16.03,9.59-22.8,25.85-10.17,25.81 53.6-.77 56.83,21.06 69.81,8.75 21.24-20.15-50.48-39.92-59.64-34.56z"/>
</g>
<g stroke-width="3.13">
<path fill="url(#radialGradient712)" d="m334.16,133.57c70.13,9.95 123.3,35.59 119.77,94.77-.46,1.29-1.33,2.85-2.16,4.24-45.22,82.69-183.17,74.62-243.02,54.25-28.92-10.26-54.94-23.23-74.58-39.28-.02-14.15 4.76-29.79 14.63-46.68 40.53-69.1 121.49-75.52 185.36-67.3z"/>
<path fill="url(#radialGradient646)" d="m331.77,115.51c75.86,10.71 133.11,39.04 126.16,104.98-1.71,3.81-3.83,7.88-6.16,12.09-45.22,82.69-183.17,74.62-243.02,54.25-35.44-12.38-66.36-29.23-87.89-49.79-.32-15.24 4.7-32.04 15.62-50.46 42.58-72.84 127.94-79.79 195.29-71.07z"/>
</g>
<g>
<path fill="url(#radialGradient714)" d="m264.92,169.87c-1.3-11.52 32.78-16.8 57.97-29.68 22.33-17.07-43.99-19.65-89.02-3.59-3.48-20.14 34.92-9.79 44.33-23.69-54.29,1.69-109.91,19.22-141.69,73.71-11.02,18.36-15.93,35.13-15.62,50.41 21.51,20.53 52.45,37.5 87.82,49.87 59.86,20.24 197.92,28.31 243.13-54.38 .42-.82-13.65-88.51-186.92-62.65z"/>
<path fill="url(#radialGradient640)" d="m340.55,128.71c-1.97,22.16-44.79,28.34-71.68,10.67l3.84,36.24c48.83,46.78 67.29,49.87 130.72,22.86l9.16-35.09c-43.34-.83-66.47-12.86-65.3-32.32 6.75-113.57 19.86-87.194 15.94-99.984-5-16.305-16.11,22.814-22.68,97.624z"/>
<path fill="url(#radialGradient630)" stroke-width="3.13" d="m331.77,115.51c75.86,10.71 133.11,39.04 126.16,104.98-1.71,3.81-3.83,7.88-6.16,12.09-45.22,82.69-183.17,74.62-243.02,54.25-35.44-12.38-66.36-29.23-87.89-49.79-.32-15.24 4.7-32.04 15.62-50.46 42.58-72.84 127.94-79.79 195.29-71.07z"/>
<path fill="url(#linearGradient664)" d="m202.66,363.85c-36.83-9.2-57.26-4.02-58.46-22.64-2.15-34.68 24.46-23.67 29.61-30.33 3.55-5.03-41.4-36.4-56.63,21.09-6.99,26.01 6.4,49.95 38.89,57.48 55.05,11.7 38.81,39.4 31.94,37.18-19.36-7.62 4.83-9.98-12.15-13.76-41.37-10.23-26.22,60.48 18.02,55.55 47.09-5.77 71.16-89.25 8.78-104.57z"/>
<path fill="url(#linearGradient878)" d="m165.43,316.42c-10.23,.12-2.77,13.26-15.44,10.64 3.59,9.81 13.4,8.69 16.79,7.1 10.81-4.04 14-17.92-1.35-17.74z"/>
<path fill="url(#linearGradient878)" d="m168.24,335.79c-10.22,.12-2.77,13.26-15.44,10.65 3.59,9.8 13.4,8.68 16.8,7.1 10.8-4.04 14-17.93-1.36-17.75z"/>
</g>
</g>
</svg>
