<svg xmlns="http://www.w3.org/2000/svg" viewBox="0 0 120.61 144.25" xmlns:xlink="http://www.w3.org/1999/xlink">
<defs>
<linearGradient gradientTransform="matrix(.48762 0 0 2.0508 0 -.09509)" id="linearGradient12" y1="72.067" y2="149.2" x1="968.97" gradientUnits="userSpaceOnUse" x2="1021.4">
<stop offset="0" stop-color="#23e081"/>
<stop offset="1" stop-color="#366912"/>
</linearGradient>
<linearGradient id="linearGradient328">
<stop offset="0" stop-color="#fafafa"/>
<stop offset="1" stop-color="#fafafa" stop-opacity="0"/>
</linearGradient>
<linearGradient gradientTransform="matrix(.40247 0 0 3.4163 0 -61.475)" id="linearGradient13" xlink:href="#linearGradient328" y1="74.144" y2="87.89" x1="1202.3" gradientUnits="userSpaceOnUse" x2="1204.9"/>
<linearGradient gradientTransform="scale(1.0532 .94946)" id="linearGradient444" y1="356.23" y2="490.76" x1="245.41" gradientUnits="userSpaceOnUse" x2="385.46">
<stop offset="0" stop-color="#b3815e" stop-opacity=".572"/>
<stop offset="1" stop-color="#734151" stop-opacity=".457"/>
</linearGradient>
<linearGradient gradientTransform="matrix(.35971 .03317 -.3068 2.8023 94.742 -132.41)" id="linearGradient14" xlink:href="#linearGradient328" y1="74.144" y2="87.89" x1="1202.3" gradientUnits="userSpaceOnUse" x2="1204.9"/>
<linearGradient gradientTransform="scale(1.0389 .96255)" id="linearGradient15" y1="370.97" y2="522.65" x1="288.18" gradientUnits="userSpaceOnUse" x2="424.27">
<stop offset="0" stop-color="#a1613f"/>
<stop offset="1" stop-color="#482b1c"/>
</linearGradient>
<linearGradient gradientTransform="scale(1.0061 .99392)" id="linearGradient21" x1="163.02" gradientUnits="userSpaceOnUse" x2="238.08">
<stop offset="0" stop-color="#ecd9cf"/>
<stop offset="1" stop-color="#98887f"/>
</linearGradient>
<radialGradient cx="272.91" cy="325.88" gradientTransform="matrix(.97785 0 0 1.0226 -9.2778 -2.6508)" id="radialGradient20" r="104.09" gradientUnits="userSpaceOnUse">
<stop offset="0" stop-color="#fff"/>
<stop offset="1" stop-color="#a1613f" stop-opacity="0"/>
</radialGradient>
<radialGradient cx="93.842" cy="2046.9" gradientTransform="scale(3.5874 .27875)" id="radialGradient451" r="54.679" gradientUnits="userSpaceOnUse">
<stop offset="0" stop-opacity=".718"/>
<stop offset="1" stop-color="#3a3a3a" stop-opacity="0"/>
</radialGradient>
</defs>
<g transform="translate(-66.27 -58.396)">
<path fill="url(#radialGradient451)" d="m532.81,570.58a196.16,15.242 0 1,1 -392.32,0 196.16,15.242 0 1,1 392.32,0z" transform="matrix(.30743 0 0 .56858 23.078 -130.45)"/>
</g>
<g transform="translate(-66.27 -58.396)">
<path d="m94.502,143.63h.338v2.33c0,.3-.057,.52-.172,.66-.114,.13-.298,.2-.552,.2h-.129v-.28h.105c.15,0 .256-.05 .317-.13 .062-.08 .093-.23 .093-.45v-2.33m1.727,.84c-.166,0-.297,.07-.393,.2s-.144,.3-.144,.53c0,.22 .048,.4 .143,.53 .096,.13 .227,.19 .394,.19 .164,0 .294-.06 .39-.19s.145-.31 .145-.53c0-.23-.049-.4-.145-.53s-.226-.2-.39-.2m0-.26c.268,0 .479,.09 .632,.26 .153,.18 .229,.42 .23,.73-.001,.3-.077,.55-.23,.72-.153,.18-.364,.26-.632,.26-.27,0-.481-.08-.634-.26-.152-.17-.228-.42-.228-.72 0-.31 .076-.55 .228-.73 .153-.17 .364-.26 .634-.26m.157-.68h.341v.34h-.341v-.34m-.655,0h.34v.34h-.34v-.34m2.957,1.01c-.034-.02-.072-.03-.114-.04-.04-.01-.085-.01-.134-.01-.174,0-.308,.05-.402,.17-.093,.11-.139,.27-.139,.49v.98h-.311v-1.87h.311v.29c.065-.12 .149-.2 .253-.25 .104-.06 .23-.09 .379-.09 .021,0 .045,0 .07,.01 .026,0 .054,0 .086,.01l.001,.31m1.492,.63c0-.22-.04-.39-.14-.52-.087-.12-.216-.18-.382-.18s-.295,.06-.388,.18c-.091,.13-.137,.3-.137,.52 0,.23 .046,.4 .137,.52 .093,.12 .222,.19 .388,.19s.295-.07 .382-.19c.1-.12 .14-.29 .14-.52m.31,.73c0,.32-.07,.56-.21,.71-.14,.16-.36,.24-.653,.24-.108,0-.21-.01-.306-.03-.097-.01-.19-.04-.28-.07v-.3c.09,.05 .18,.09 .268,.11s.178,.03 .27,.03c.202,0 .354-.05 .451-.16 .1-.1 .15-.26 .15-.47v-.16c-.06,.11-.14,.2-.241,.25-.099,.06-.218,.08-.357,.08-.23,0-.416-.08-.557-.26-.14-.17-.211-.41-.211-.7s.071-.52 .211-.7c.141-.17 .327-.26 .557-.26 .139,0 .258,.03 .357,.08 .101,.06 .181,.14 .241,.25v-.28h.31v1.64m2.93-.94c.07,.03 .14,.08 .21,.16s.14,.19 .21,.33l.34,.68h-.36l-.32-.64c-.08-.17-.16-.28-.24-.33-.08-.06-.18-.08-.32-.08h-.37v1.05h-.34v-2.5h.77c.29,0 .5,.06 .64,.18s.21,.3 .21,.54c0,.16-.04,.29-.11,.39-.07,.11-.18,.18-.32,.22m-.85-1.05v.89h.43c.16,0 .29-.04 .37-.11 .08-.08 .12-.19 .12-.34 0-.14-.04-.25-.12-.33-.08-.07-.21-.11-.37-.11h-.43m2.61,.56c-.16,0-.29,.07-.39,.2s-.14,.3-.14,.53c0,.22 .04,.4 .14,.53 .09,.13 .23,.19 .39,.19 .17,0 .3-.06 .39-.19 .1-.13 .15-.31 .15-.53 0-.23-.05-.4-.15-.53-.09-.13-.22-.2-.39-.2m0-.26c.27,0 .48,.09 .63,.26 .16,.18 .23,.42 .23,.73 0,.3-.07,.55-.23,.72-.15,.18-.36,.26-.63,.26s-.48-.08-.63-.26c-.15-.17-.23-.42-.23-.72 0-.31 .08-.55 .23-.73 .15-.17 .36-.26 .63-.26m2.57,.1v.29c-.09-.04-.18-.07-.27-.1-.09-.02-.19-.03-.29-.03-.16,0-.27,.02-.35,.07-.07,.05-.11,.12-.11,.21 0,.07 .03,.13 .08,.17 .06,.04 .17,.08 .33,.12l.11,.02c.22,.05 .37,.11 .46,.2 .1,.08 .14,.2 .14,.36 0,.17-.07,.31-.21,.41-.13,.1-.32,.15-.56,.15-.11,0-.21-.01-.32-.03s-.22-.05-.34-.08v-.32c.11,.06 .22,.1 .33,.13s.22,.04 .33,.04c.15,0 .26-.02 .34-.07s.11-.12 .11-.21c0-.08-.02-.15-.08-.19-.06-.05-.18-.09-.37-.13l-.11-.03c-.19-.04-.33-.1-.41-.18-.09-.09-.13-.2-.13-.35 0-.17 .06-.31 .19-.4 .12-.1 .3-.15 .53-.15 .11,0 .22,.01 .32,.03 .1,.01 .2,.04 .28,.07m2.19,.81v.15h-1.41c.01,.21 .07,.37 .19,.49 .11,.11 .27,.16 .48,.16 .12,0 .23-.01 .34-.04s.22-.07 .33-.13v.29c-.11,.05-.22,.08-.34,.11-.11,.02-.23,.03-.35,.03-.3,0-.54-.08-.71-.26-.18-.17-.27-.41-.27-.71s.09-.55 .25-.73c.17-.18 .39-.27 .67-.27 .26,0 .46,.08 .6,.25 .15,.16 .22,.38 .22,.66m-.3-.09c-.01-.17-.05-.31-.15-.41-.09-.1-.21-.15-.36-.15-.17,0-.31,.05-.42,.15-.1,.1-.16,.23-.17,.41h1.1m2.37-.03v1.13h-.31v-1.12c0-.18-.04-.31-.11-.4s-.17-.13-.31-.13c-.17,0-.3,.05-.39,.16-.1,.1-.15,.25-.15,.43v1.06h-.31v-1.87h.31v.29c.08-.11 .16-.2 .26-.25 .1-.06 .22-.09 .35-.09 .22,0 .38,.07 .49,.2 .11,.14 .17,.33 .17,.59m1.96,.2c0-.23-.05-.41-.14-.54s-.22-.19-.38-.19c-.17,0-.29,.06-.39,.19-.09,.13-.14,.31-.14,.54 0,.22 .05,.4 .14,.53 .1,.13 .22,.19 .39,.19 .16,0 .29-.06 .38-.19s.14-.31 .14-.53m-1.05-.66c.07-.11 .15-.19 .25-.25 .1-.05 .22-.08 .35-.08 .23,0 .42,.09 .56,.27s.21,.42 .21,.72c0,.29-.07,.53-.21,.71s-.33,.27-.56,.27c-.13,0-.25-.02-.35-.08-.1-.05-.18-.14-.25-.25v.28h-.31v-2.6h.31v1.01m2.74,.65c-.25,0-.42,.03-.52,.09-.1,.05-.15,.15-.15,.29 0,.11 .04,.19 .11,.26 .07,.06 .17,.09 .3,.09 .17,0 .31-.06 .41-.18s.15-.28 .15-.48v-.07h-.3m.61-.13v1.07h-.31v-.28c-.07,.11-.15,.2-.26,.25-.1,.06-.23,.08-.39,.08-.19,0-.34-.05-.45-.16-.12-.11-.17-.25-.17-.43 0-.21 .07-.37 .21-.48s.35-.16 .63-.16h.43v-.03c0-.14-.04-.25-.14-.33-.09-.08-.22-.12-.39-.12-.11,0-.21,.02-.31,.04-.1,.03-.2,.07-.3,.12v-.29c.12-.04 .23-.07 .33-.1 .11-.02 .21-.03 .31-.03 .27,0 .48,.07 .61,.21 .14,.14 .2,.36 .2,.64m.61,.33v-1.13h.31v1.12c0,.18 .04,.31 .11,.4s.17,.13 .31,.13c.17,0 .3-.05 .39-.15 .1-.11 .15-.26 .15-.44v-1.06h.31v1.87h-.31v-.28c-.08,.11-.16,.2-.26,.25-.1,.06-.22,.08-.35,.08-.21,0-.38-.06-.49-.2-.11-.13-.17-.33-.17-.59m3.82-.27v.15h-1.42c.02,.21 .08,.37 .19,.49 .12,.11 .28,.16 .48,.16 .12,0 .24-.01 .35-.04s.22-.07 .33-.13v.29c-.11,.05-.22,.08-.34,.11-.12,.02-.23,.03-.35,.03-.3,0-.54-.08-.72-.26-.17-.17-.26-.41-.26-.71s.08-.55 .25-.73 .39-.27 .67-.27c.26,0 .45,.08 .6,.25 .15,.16 .22,.38 .22,.66m-.31-.09c0-.17-.05-.31-.14-.41s-.21-.15-.36-.15c-.18,0-.31,.05-.42,.15-.1,.1-.16,.23-.18,.41h1.1m1.9-.49c-.03-.02-.07-.03-.11-.04s-.09-.01-.14-.01c-.17,0-.31,.05-.4,.17-.09,.11-.14,.27-.14,.49v.98h-.31v-1.87h.31v.29c.07-.12 .15-.2 .25-.25 .11-.06 .23-.09 .38-.09 .02,0 .05,0 .07,.01 .03,0 .06,0 .09,.01v.31m-27.466,4.74h1.182v.29h-1.59v-.29c.129-.13 .304-.31 .525-.53 .222-.23 .362-.37 .419-.44 .109-.12 .184-.22 .226-.3 .044-.09 .066-.17 .066-.25 0-.14-.047-.25-.141-.33-.093-.08-.214-.13-.364-.13-.106,0-.218,.02-.337,.06-.117,.04-.243,.09-.377,.17v-.34c.136-.06 .264-.1 .382-.13 .119-.03 .227-.04 .325-.04 .26,0 .467,.06 .621,.19s.231,.31 .231,.52c0,.11-.019,.2-.058,.3-.038,.09-.108,.2-.21,.32-.028,.04-.117,.13-.267,.28-.149,.16-.361,.38-.633,.65m2.612-1.99c-.174,0-.306,.08-.394,.26-.087,.17-.131,.42-.131,.77 0,.34 .044,.6 .131,.77 .088,.17 .22,.26 .394,.26 .175,0 .307-.09 .394-.26 .088-.17 .132-.43 .132-.77 0-.35-.044-.6-.132-.77-.087-.18-.219-.26-.394-.26m0-.27c.28,0 .495,.11 .642,.33 .149,.22 .223,.55 .223,.97s-.074,.74-.223,.97c-.147,.22-.362,.33-.642,.33-.281,0-.495-.11-.644-.33-.148-.23-.221-.55-.221-.97s.073-.75 .221-.97c.149-.22 .363-.33 .644-.33m2.186,.27c-.174,0-.305,.08-.394,.26-.087,.17-.13,.42-.13,.77 0,.34 .043,.6 .13,.77 .089,.17 .22,.26 .394,.26 .176,0 .307-.09 .398-.26 .08-.17 .13-.43 .13-.77 0-.35-.05-.6-.13-.77-.091-.18-.222-.26-.398-.26m0-.27c.281,0 .498,.11 .638,.33 .15,.22 .23,.55 .23,.97s-.08,.74-.23,.97c-.14,.22-.357,.33-.638,.33-.28,0-.495-.11-.643-.33-.148-.23-.222-.55-.222-.97s.074-.75 .222-.97 .363-.33 .643-.33m1.468,.05h1.33v.28h-1.02v.61c.05-.01 .1-.03 .15-.03 .04-.01 .09-.02 .14-.02 .28,0 .5,.08 .67,.23 .16,.16 .24,.36 .24,.63 0,.26-.08,.47-.25,.62s-.4,.23-.71,.23c-.1,0-.21-.01-.32-.03s-.22-.04-.34-.08v-.34c.1,.05 .21,.09 .31,.12 .11,.03 .22,.04 .34,.04 .2,0 .35-.05 .46-.15 .12-.1 .17-.24 .17-.41 0-.18-.05-.32-.17-.42-.11-.1-.26-.15-.46-.15-.09,0-.18,.01-.27,.03s-.18,.05-.27,.09v-1.25m1.98,1.42h.91v.28h-.91v-.28m2.17-1.2c-.18,0-.31,.08-.4,.26-.09,.17-.13,.42-.13,.77 0,.34 .04,.6 .13,.77s.22,.26 .4,.26c.17,0 .3-.09 .39-.26s.13-.43 .13-.77c0-.35-.04-.6-.13-.77-.09-.18-.22-.26-.39-.26m0-.27c.28,0 .49,.11 .64,.33s.22,.55 .22,.97-.07,.74-.22,.97c-.15,.22-.36,.33-.64,.33s-.5-.11-.65-.33c-.15-.23-.22-.55-.22-.97s.07-.75 .22-.97 .37-.33 .65-.33m1.52,2.26h.55v-1.91l-.6,.12v-.3l.6-.12h.34v2.21h.55v.29h-1.44v-.29m1.92-.79h.9v.28h-.9v-.28m1.73,.79h1.18v.29h-1.59v-.29l.53-.53c.22-.23 .36-.37 .42-.44 .11-.12 .18-.22 .22-.3 .05-.09 .07-.17 .07-.25 0-.14-.05-.25-.14-.33s-.22-.13-.37-.13c-.1,0-.21,.02-.33,.06s-.25,.09-.38,.17v-.34c.14-.06 .26-.1 .38-.13s.23-.04 .33-.04c.26,0 .46,.06 .62,.19 .15,.13 .23,.31 .23,.52 0,.11-.02,.2-.06,.3-.04,.09-.11,.2-.21,.32-.03,.04-.12,.13-.27,.28-.15,.16-.36,.38-.63,.65m2.18,0h1.18v.29h-1.59v-.29l.53-.53c.22-.23 .36-.37 .42-.44 .11-.12 .18-.22 .22-.3 .05-.09 .07-.17 .07-.25 0-.14-.05-.25-.14-.33-.1-.08-.22-.13-.37-.13-.1,0-.21,.02-.33,.06s-.25,.09-.38,.17v-.34c.14-.06 .26-.1 .38-.13s.23-.04 .33-.04c.26,0 .46,.06 .62,.19 .15,.13 .23,.31 .23,.52 0,.11-.02,.2-.06,.3-.04,.09-.11,.2-.21,.32-.03,.04-.12,.13-.27,.28-.15,.16-.36,.38-.63,.65m-18.435,4.65h2.117v.29h-.888v2.22h-.341v-2.22h-.888v-.29m3.994,1.37v1.14h-.309v-1.13c0-.17-.035-.31-.104-.4-.069-.08-.173-.13-.312-.13-.166,0-.298,.05-.394,.16s-.144,.25-.144,.43v1.07h-.31v-2.61h.31v1.02c.074-.11 .16-.2 .26-.25 .1-.06 .216-.09 .347-.09 .216,0 .379,.07 .49,.2 .11,.14 .166,.33 .166,.59m.618-.74h.309v1.88h-.309v-1.88m0-.73h.309v.39h-.309v-.39m2.153,.78v.3c-.09-.05-.18-.08-.27-.11-.1-.02-.2-.03-.3-.03-.15,0-.26,.02-.34,.07-.078,.05-.116,.12-.116,.21 0,.07 .027,.13 .082,.17 .054,.04 .164,.08 .334,.12l.1,.02c.22,.05 .38,.11 .47,.2s.14,.21 .14,.36c0,.17-.07,.31-.21,.41s-.33,.15-.57,.15c-.1,0-.2-.01-.314-.03-.109-.01-.223-.04-.344-.08v-.32c.114,.06 .226,.1 .337,.13s.221,.05 .331,.05c.14,0 .25-.03 .33-.08s.12-.12 .12-.21c0-.08-.03-.15-.08-.19-.06-.05-.18-.09-.38-.13l-.1-.03c-.194-.04-.332-.1-.417-.18s-.127-.2-.127-.34c0-.18 .062-.32 .187-.41 .126-.1 .307-.15 .537-.15 .11,0 .22,.01 .32,.03s.19,.04 .28,.07m1.68-.05h.31v1.88h-.31v-1.88m0-.73h.31v.39h-.31v-.39m2.41,1.09c.08-.14 .17-.24 .28-.31 .11-.06 .23-.1 .38-.1 .19,0 .34,.07 .45,.21s.16,.33 .16,.58v1.14h-.31v-1.13c0-.18-.03-.31-.1-.4-.06-.09-.16-.13-.29-.13-.16,0-.28,.05-.38,.16-.09,.11-.14,.25-.14,.43v1.07h-.31v-1.13c0-.18-.03-.31-.09-.4-.07-.09-.16-.13-.3-.13-.16,0-.28,.06-.37,.16-.1,.11-.14,.25-.14,.43v1.07h-.31v-1.88h.31v.29c.07-.12 .15-.2 .25-.25 .1-.06 .22-.09 .35-.09 .14,0 .25,.04 .35,.11 .09,.07 .17,.17 .21,.3m2.73,.57c-.25,0-.42,.03-.52,.09-.09,.05-.14,.15-.14,.29 0,.11 .04,.2 .11,.26s.17,.1 .29,.1c.17,0 .31-.06 .41-.18 .11-.13 .16-.29 .16-.49v-.07h-.31m.62-.13v1.08h-.31v-.29c-.07,.12-.16,.2-.26,.25-.11,.06-.24,.08-.39,.08-.19,0-.34-.05-.46-.16-.11-.1-.17-.25-.17-.43 0-.21 .07-.37 .21-.48 .15-.11 .36-.16 .64-.16h.43v-.03c0-.14-.05-.25-.14-.33s-.22-.12-.39-.12c-.11,0-.22,.02-.32,.04-.1,.03-.2,.07-.29,.12v-.29c.11-.04 .22-.07 .33-.09 .1-.03 .21-.04 .31-.04 .27,0 .47,.07 .61,.21 .13,.15 .2,.36 .2,.64m1.88,.12c0-.23-.05-.4-.14-.52-.09-.13-.22-.19-.39-.19-.16,0-.29,.06-.39,.19-.09,.12-.13,.29-.13,.52 0,.22 .04,.39 .13,.51 .1,.13 .23,.19 .39,.19 .17,0 .3-.06 .39-.19 .09-.12 .14-.29 .14-.51m.31,.72c0,.32-.07,.56-.22,.72-.14,.15-.36,.23-.65,.23-.11,0-.21-.01-.31-.02-.09-.02-.19-.04-.28-.08v-.3c.09,.05 .18,.09 .27,.11s.18,.04 .27,.04c.2,0 .36-.06 .46-.16 .1-.11 .15-.27 .15-.48v-.15c-.07,.11-.15,.19-.25,.24-.1,.06-.22,.09-.35,.09-.23,0-.42-.09-.56-.27-.14-.17-.21-.4-.21-.69 0-.3 .07-.53 .21-.7 .14-.18 .33-.27 .56-.27 .13,0 .25,.03 .35,.09 .1,.05 .18,.13 .25,.24v-.28h.31v1.64m2.24-.78v.15h-1.42c.01,.21 .08,.38 .19,.49 .12,.11 .28,.16 .48,.16 .12,0 .23-.01 .34-.04 .12-.03 .23-.07 .34-.13v.29c-.11,.05-.23,.08-.34,.11-.12,.02-.24,.03-.36,.03-.3,0-.54-.08-.71-.26-.18-.17-.26-.41-.26-.7 0-.31 .08-.56 .25-.74 .16-.18 .39-.27 .67-.27 .25,0 .45,.08 .6,.25 .14,.16 .22,.38 .22,.66m-.31-.09c0-.17-.05-.3-.14-.4-.09-.11-.22-.16-.37-.16-.17,0-.31,.05-.41,.15-.11,.1-.16,.23-.18,.41h1.1m1.9-.77h.31v1.88h-.31v-1.88m0-.73h.31v.39h-.31v-.39m2.15,.78v.3c-.09-.05-.18-.08-.27-.11-.09-.02-.19-.03-.29-.03-.16,0-.27,.02-.35,.07-.07,.05-.11,.12-.11,.21 0,.07 .03,.13 .08,.17s.16,.08 .33,.12l.11,.02c.21,.05 .37,.11 .46,.2s.14,.21 .14,.36c0,.17-.07,.31-.21,.41-.13,.1-.32,.15-.57,.15-.1,0-.2-.01-.31-.03-.11-.01-.22-.04-.34-.08v-.32c.11,.06 .22,.1 .33,.13s.22,.05 .33,.05c.15,0 .26-.03 .34-.08s.11-.12 .11-.21c0-.08-.02-.15-.08-.19-.06-.05-.18-.09-.37-.13l-.11-.03c-.19-.04-.33-.1-.41-.18-.09-.08-.13-.2-.13-.34 0-.18 .06-.32 .19-.41 .12-.1 .3-.15 .53-.15 .11,0 .22,.01 .32,.03s.2,.04 .28,.07m1.68-.05h.31v1.88h-.31v-1.88m0-.73h.31v.39h-.31v-.39m2.51,1.47v1.14h-.3v-1.13c0-.17-.04-.31-.11-.4-.07-.08-.17-.13-.31-.13-.17,0-.3,.05-.39,.16-.1,.11-.15,.25-.15,.43v1.07h-.31v-1.88h.31v.29c.08-.11 .16-.2 .26-.25 .1-.06 .22-.09 .35-.09 .21,0 .38,.07 .49,.2 .11,.14 .16,.33 .16,.59m2.02-1.27v.53h.64v.24h-.64v1.02c0,.15 .02,.25 .06,.29 .05,.05 .13,.07 .26,.07h.32v.26h-.32c-.24,0-.4-.05-.49-.14s-.14-.25-.14-.48v-1.02h-.23v-.24h.23v-.53h.31m2.61,1.27v1.14h-.31v-1.13c0-.17-.04-.31-.11-.4-.07-.08-.17-.13-.31-.13-.17,0-.3,.05-.39,.16-.1,.11-.15,.25-.15,.43v1.07h-.31v-2.61h.31v1.02c.08-.11 .16-.2 .26-.25 .1-.06 .22-.09 .35-.09 .22,0 .38,.07 .49,.2 .11,.14 .17,.33 .17,.59m2.22,.12v.15h-1.42c.02,.21 .08,.38 .19,.49 .12,.11 .28,.16 .48,.16 .12,0 .24-.01 .35-.04s.22-.07 .33-.13v.29c-.11,.05-.23,.08-.34,.11-.12,.02-.24,.03-.36,.03-.3,0-.53-.08-.71-.26-.17-.17-.26-.41-.26-.7 0-.31 .08-.56 .25-.74 .16-.18 .39-.27 .67-.27 .25,0 .45,.08 .6,.25 .15,.16 .22,.38 .22,.66m-.31-.09c0-.17-.05-.3-.14-.4-.09-.11-.21-.16-.37-.16-.17,0-.31,.05-.41,.15s-.16,.23-.18,.41h1.1m2.2,.82v1h-.31v-2.59h.31v.28c.07-.11 .15-.19 .25-.24 .1-.06 .21-.09 .35-.09 .23,0 .41,.09 .56,.27 .14,.19 .21,.42 .21,.72 0,.29-.07,.53-.21,.71-.15,.18-.33,.27-.56,.27-.14,0-.25-.02-.35-.08-.1-.05-.18-.13-.25-.25m1.05-.65c0-.23-.05-.41-.14-.53-.09-.13-.22-.2-.38-.2-.17,0-.3,.07-.39,.2-.09,.12-.14,.3-.14,.53s.05,.4 .14,.53 .22,.2 .39,.2c.16,0 .29-.07 .38-.2s.14-.3 .14-.53m.8,.2v-1.14h.31v1.12c0,.18 .03,.31 .1,.4s.18,.14 .32,.14c.16,0 .29-.06 .39-.16 .1-.11 .15-.25 .15-.44v-1.06h.3v1.88h-.3v-.29c-.08,.11-.17,.2-.27,.25-.09,.06-.21,.08-.34,.08-.22,0-.38-.06-.49-.2-.11-.13-.17-.33-.17-.58m3.56-.2c0-.23-.05-.41-.14-.53-.09-.13-.22-.2-.38-.2-.17,0-.3,.07-.39,.2-.09,.12-.14,.3-.14,.53s.05,.4 .14,.53 .22,.2 .39,.2c.16,0 .29-.07 .38-.2s.14-.3 .14-.53m-1.05-.66c.07-.11 .15-.19 .25-.24 .1-.06 .21-.09 .35-.09 .23,0 .41,.09 .56,.27 .14,.19 .21,.42 .21,.72 0,.29-.07,.53-.21,.71-.15,.18-.33,.27-.56,.27-.14,0-.25-.02-.35-.08-.1-.05-.18-.13-.25-.25v.29h-.31v-2.61h.31v1.01m1.88-1.01h.31v2.61h-.31v-2.61m.95,.73h.31v1.88h-.31v-1.88m0-.73h.31v.39h-.31v-.39m2.31,.8v.29c-.09-.05-.18-.08-.26-.11-.09-.02-.18-.04-.27-.04-.2,0-.36,.07-.47,.2-.11,.12-.16,.3-.16,.53s.05,.41 .16,.53c.11,.13 .27,.19 .47,.19 .09,0 .18-.01 .27-.03 .08-.03 .17-.06 .26-.11v.28c-.09,.04-.18,.07-.27,.09s-.19,.03-.29,.03c-.29,0-.51-.08-.68-.26-.16-.18-.25-.42-.25-.72 0-.31 .09-.55 .25-.72 .17-.18 .4-.27 .7-.27 .09,0 .18,.01 .28,.03 .09,.02 .17,.05 .26,.09m2.87,.21v-1.01h.31v2.61h-.31v-.29c-.07,.12-.15,.2-.25,.25-.1,.06-.22,.08-.35,.08-.23,0-.42-.09-.56-.27s-.21-.42-.21-.71c0-.3 .07-.53 .21-.72 .14-.18 .33-.27 .56-.27 .13,0 .25,.03 .35,.09 .1,.05 .18,.13 .25,.24m-1.05,.66c0,.23 .04,.4 .14,.53 .09,.13 .22,.2 .38,.2s.29-.07 .39-.2c.09-.13 .14-.3 .14-.53s-.05-.41-.14-.53c-.1-.13-.23-.2-.39-.2s-.29,.07-.38,.2c-.1,.12-.14,.3-.14,.53m2.72-.73c-.17,0-.3,.07-.39,.2-.1,.13-.15,.3-.15,.53 0,.22 .05,.4 .15,.53 .09,.13 .22,.19 .39,.19 .16,0 .29-.06 .39-.19s.14-.31 .14-.53-.04-.4-.14-.53-.23-.2-.39-.2m0-.26c.27,0 .48,.09 .63,.26 .15,.18 .23,.42 .23,.73s-.08,.55-.23,.72c-.15,.18-.36,.26-.63,.26s-.48-.08-.63-.26c-.16-.17-.23-.41-.23-.72s.07-.55 .23-.73c.15-.17 .36-.26 .63-.26m2.83,.41c.08-.14 .17-.24 .28-.31 .11-.06 .23-.1 .38-.1 .19,0 .35,.07 .45,.21 .11,.14 .16,.33 .16,.58v1.14h-.31v-1.13c0-.18-.03-.31-.1-.4-.06-.09-.16-.13-.29-.13-.16,0-.28,.05-.38,.16-.09,.11-.14,.25-.14,.43v1.07h-.31v-1.13c0-.18-.03-.31-.09-.4s-.16-.13-.3-.13c-.15,0-.28,.06-.37,.16-.09,.11-.14,.25-.14,.43v1.07h-.31v-1.88h.31v.29c.07-.12 .15-.2 .25-.25 .1-.06 .22-.09 .35-.09 .14,0 .25,.04 .35,.11s.17,.17 .21,.3m2.73,.57c-.24,0-.42,.03-.51,.09-.1,.05-.15,.15-.15,.29 0,.11 .04,.2 .11,.26s.17,.1 .29,.1c.18,0 .31-.06 .42-.18 .1-.13 .15-.29 .15-.49v-.07h-.31m.62-.13v1.08h-.31v-.29c-.07,.12-.16,.2-.26,.25-.11,.06-.24,.08-.39,.08-.19,0-.34-.05-.46-.16-.11-.1-.17-.25-.17-.43 0-.21 .07-.37 .21-.48 .15-.11 .36-.16 .64-.16h.43v-.03c0-.14-.05-.25-.14-.33s-.22-.12-.39-.12c-.11,0-.21,.02-.32,.04-.1,.03-.2,.07-.29,.12v-.29c.11-.04 .22-.07 .33-.09 .11-.03 .21-.04 .31-.04 .27,0 .47,.07 .61,.21 .13,.15 .2,.36 .2,.64m.64-.8h.31v1.88h-.31v-1.88m0-.73h.31v.39h-.31v-.39m2.52,1.47v1.14h-.31v-1.13c0-.17-.04-.31-.11-.4-.06-.08-.17-.13-.31-.13-.16,0-.3,.05-.39,.16-.1,.11-.15,.25-.15,.43v1.07h-.31v-1.88h.31v.29c.08-.11 .16-.2 .26-.25 .1-.06 .22-.09 .35-.09 .22,0 .38,.07 .49,.2 .11,.14 .17,.33 .17,.59m.66,.71h.35v.43h-.35v-.43m-59.037,1.36h.34v1.52c0,.27 .049,.46 .146,.58 .098,.12 .255,.17 .473,.17 .217,0 .374-.05 .471-.17 .098-.12 .146-.31 .146-.58v-1.52h.341v1.56c0,.33-.081,.57-.244,.74-.161,.17-.399,.25-.714,.25-.316,0-.555-.08-.717-.25-.161-.17-.242-.41-.242-.74v-1.56m3.738,.68v.29c-.088-.05-.178-.08-.272-.1s-.191-.03-.292-.03c-.153,0-.268,.02-.345,.07-.076,.04-.114,.11-.114,.21 0,.07 .027,.12 .082,.17 .055,.04 .165,.08 .33,.11l.106,.03c.219,.04 .374,.11 .466,.2 .093,.08 .139,.2 .139,.35 0,.18-.069,.31-.208,.42-.137,.1-.327,.15-.568,.15-.101,0-.206-.01-.315-.03s-.223-.05-.344-.09v-.32c.114,.06 .226,.11 .337,.14s.22,.04 .328,.04c.146,0 .258-.02 .336-.07s.117-.12 .117-.21-.028-.15-.085-.2c-.056-.04-.18-.08-.371-.13l-.107-.02c-.191-.04-.329-.1-.414-.19-.085-.08-.128-.19-.128-.34 0-.18 .063-.31 .188-.41 .125-.09 .303-.14 .533-.14 .114,0 .222,.01 .322,.02 .101,.02 .194,.04 .279,.08m2.189,.8v.16h-1.415c.014,.21 .077,.37 .191,.48 .115,.11 .275,.17 .48,.17 .118,0 .233-.02 .344-.05 .11-.03 .22-.07 .33-.13v.29c-.11,.05-.22,.09-.339,.11-.116,.03-.234,.04-.354,.04-.299,0-.537-.09-.712-.26-.175-.18-.262-.41-.262-.71 0-.31 .083-.55 .248-.73 .167-.18 .391-.27 .673-.27 .252,0 .456,.08 .596,.24 .15,.16 .22,.38 .22,.66m-.3-.09c-.01-.17-.05-.3-.147-.4-.092-.1-.214-.15-.366-.15-.172,0-.31,.05-.414,.14-.103,.1-.162,.24-.178,.42l1.105-.01m2.2-1.3v.53h.64v.24h-.64v1.02c0,.15 .02,.25 .06,.3 .05,.04 .13,.06 .26,.06h.32v.26h-.32c-.24,0-.4-.04-.49-.13s-.14-.25-.14-.49v-1.02h-.22v-.24h.22v-.53h.31m1.77,.75c-.16,0-.29,.06-.39,.19s-.14,.31-.14,.53c0,.23 .04,.4 .14,.53 .09,.13 .23,.2 .39,.2 .17,0 .3-.07 .39-.2 .1-.13 .15-.3 .15-.53 0-.22-.05-.4-.15-.53-.09-.13-.22-.19-.39-.19m0-.26c.27,0 .48,.08 .63,.26 .16,.17 .23,.41 .23,.72s-.07,.55-.23,.73c-.15,.17-.36,.26-.63,.26s-.48-.09-.63-.26c-.15-.18-.23-.42-.23-.73s.08-.55 .23-.72c.15-.18 .36-.26 .63-.26m3.25,2.09c-.09,.23-.17,.37-.26,.44-.08,.07-.19,.1-.33,.1h-.24v-.25h.18c.08,0 .15-.02 .19-.06 .05-.04 .1-.14 .16-.29l.06-.14-.76-1.85h.32l.59,1.47 .59-1.47h.32l-.82,2.05m1.98-1.83c-.17,0-.3,.06-.4,.19-.09,.13-.14,.31-.14,.53 0,.23 .05,.4 .14,.53 .1,.13 .23,.2 .4,.2 .16,0 .29-.07 .39-.2 .09-.13 .14-.3 .14-.53 0-.22-.05-.4-.14-.53-.1-.13-.23-.19-.39-.19m0-.26c.27,0 .48,.08 .63,.26 .15,.17 .23,.41 .23,.72s-.08,.55-.23,.73c-.15,.17-.36,.26-.63,.26s-.48-.09-.64-.26c-.15-.18-.22-.42-.22-.73s.07-.55 .22-.72c.16-.18 .37-.26 .64-.26m1.34,1.18v-1.14h.31v1.13c0,.18 .03,.31 .1,.4s.17,.13 .31,.13c.17,0 .3-.05 .4-.16 .09-.1 .14-.25 .14-.43v-1.07h.31v1.88h-.31v-.29c-.07,.12-.16,.2-.26,.26-.1,.05-.21,.08-.34,.08-.22,0-.38-.07-.5-.2-.11-.14-.16-.33-.16-.59m3.3-.85c-.04-.02-.08-.03-.12-.04s-.08-.02-.13-.02c-.18,0-.31,.06-.4,.17-.1,.12-.14,.28-.14,.49v.99h-.31v-1.88h.31v.29c.06-.11 .15-.19 .25-.25 .1-.05 .23-.08 .38-.08h.07c.03,0 .05,.01 .08,.01l.01,.32m1.41-1.02h.31v2.61h-.31v-2.61m.95,.73h.31v1.88h-.31v-1.88m0-.73h.31v.39h-.31v-.39m.94,0h.31v1.54l.92-.81h.4l-1,.88 1.04,1h-.4l-.96-.92v.92h-.31v-2.61m2,.73h.31v1.88h-.31v-1.88m0-.73h.31v.39h-.31v-.39m2.51,1.48v1.13h-.3v-1.12c0-.18-.04-.31-.11-.4s-.17-.13-.31-.13c-.17,0-.3,.05-.39,.15-.1,.11-.15,.26-.15,.44v1.06h-.31v-1.88h.31v.29c.07-.11 .16-.19 .26-.25 .1-.05 .22-.08 .35-.08 .21,0 .38,.06 .49,.2 .11,.13 .16,.33 .16,.59m1.86,.17c0-.22-.05-.4-.14-.52s-.22-.18-.39-.18c-.16,0-.29,.06-.39,.18-.09,.12-.13,.3-.13,.52s.04,.39 .13,.52c.1,.12 .23,.18 .39,.18 .17,0 .3-.06 .39-.18 .09-.13 .14-.3 .14-.52m.31,.73c0,.32-.07,.55-.22,.71-.14,.16-.36,.23-.65,.23-.11,0-.21,0-.31-.02-.09-.02-.18-.04-.28-.07v-.3c.1,.04 .18,.08 .27,.1 .09,.03 .18,.04 .27,.04 .21,0 .36-.05 .46-.16 .1-.1 .15-.26 .15-.48v-.15c-.07,.11-.15,.19-.25,.25-.1,.05-.22,.08-.35,.08-.23,0-.42-.09-.56-.26-.14-.18-.21-.41-.21-.7s.07-.52 .21-.7 .33-.26 .56-.26c.13,0 .25,.02 .35,.08 .1,.05 .18,.14 .25,.25v-.29h.31v1.65m.68-.2h.35v.43h-.35v-.43"/>
</g>
<g fill-rule="evenodd">
<g transform="matrix(.28616 0 0 .28616 -42.1 -25.434)">
<path fill="url(#linearGradient12)" d="m457.26,307.4c1.09-5.68 4.77-10.08 9.28-14.58 4.81-4.81 4.9-10.32 6.63-17.23 1.86-7.46 .57-12.54 1.32-18.56 .9-7.23 0-15.24 0-22.53 0-6.98 1.33-13.71 1.33-21.21 0-6.02 1.32-11.26 1.32-18.55 0-6.55 1.78-14.27 2.65-21.21 .88-7.02 3.8-12.27 6.63-17.23 2.5-4.37 1.55,3.1 3.98,7.95 2.59,5.2 1.93-11.46 2.65-17.23 .9-7.19 1.73-11.19 2.65-18.55 .79-6.33 2.7-13.46 3.97-18.56 1.65-6.59 2.25-11.282 3.98-15.902 4.23-11.277 8.31-.742 11.93,1.325 2.67,1.526 .72,11.077 1.32,15.907 .86,6.82 0,14.31 0,21.2 0,6.15 1.85,13.42 2.65,19.89 .85,6.79 .65,13.14 1.33,18.55 .85,6.78-.58,13.9-1.33,19.88-.8,6.47-1.82,11.91-2.65,18.56-.86,6.91-1.78,12.96-2.65,19.88-.92,7.38-.5,13.79-1.32,21.2-.91,8.15-1.62,15.63-2.65,23.86-.94,7.46-1.74,13.87-2.65,21.21-.74,5.85-3.31,11.84-3.98,17.23-.85,6.82-2.41,13.62-3.98,19.88-1.77,7.1-3.58,12.99-5.3,19.88-1.78,7.11-8.87,6.2-11.93,7.95-4.93,2.82-10.92-13.23-11.93-15.9-3.23-8.62-5-17.33-7.95-25.19-1.53-4.07-3.53-7.95-5.3-11.92z"/>
</g>
<g fill="#2d4f38" transform="matrix(.28616 0 0 .28616 -42.1 -25.434)">
<path d="m490.04,164.53c.59,1.55 2.07,5.91 2.94,8.23 .69,1.84 2.16,4.37 2.94,6.46 .87,2.34 1.27,5.1 1.76,7.05 .68,2.73 1.19,5.33 1.76,7.64 .64,2.56 0,6.16 0,8.81 0,1.71 .88,5.84 1.18,8.23 .35,2.85 0,6.3 0,8.22 0,3.23-.46,5.94-1.18,8.82-.61,2.43-.91,5.57-1.17,7.64-.39,3.06-.23,5.9-.59,8.81-.41,3.28-.19,6.24-.59,9.4-.42,3.36-.35,5.54-1.17,8.81-.81,3.24-.18,6.7-.59,9.99-.38,3.02-.59,5.64-.59,8.82 0,3.39-.79,6.35-1.17,9.4-.39,3.06-1.17,5.82-1.77,8.22-.67,2.69-.79,4.63-1.17,7.64-.27,2.14-.59,4.1-.59,7.64 0,3.8-.14,4.07-.59,7.64-.65,5.24-.08-.05-1.76-1.17-2.02-1.35-3.27-2.69-4.7-4.12-2.79-2.79-.16-1.15-.59-4.11-.18-1.3 2.57-5.47 2.94-6.46 .63-1.69 1.25-4.7 2.35-7.64 .98-2.62 .81-4.71 1.18-7.64 .42-3.43 .49-5.49 1.17-8.23 .65-2.61 .83-4.86 1.18-7.64 .33-2.69 .89-5.4 1.17-7.63 .39-3.13 .59-4.89 .59-8.23 0-2.98 .83-5.47 1.17-8.23 .37-2.95 .59-4.88 .59-8.22 0-2.98 .59-4.87 .59-8.23 0-1.98 .59-5.39 .59-8.23 0-2.24 .58-4.91 .58-8.22v-8.81c0-3.07 .38-3.5 0-6.47-.4-3.27-.76-4.91-1.17-8.22-.27-2.2-.97-5.97-1.18-7.64-.39-3.16-1.18-5.34-1.76-7.64-.78-3.13-.77-5.03-1.17-8.23-.41-3.28-.03-1.85-1.18-6.46z"/>
<path d="m516.47,106.25c-1.28,1-1.16,6.29-1.16,9.41 0,3.5-.17,3.85-.59,7.65-.34,3.05-.24,5.98-.6,8.81-.35,2.84 0,5.96 0,8.82 0,2.39 .87,5.62 1.19,8.22 .36,2.83 0,5.95 0,8.81 0,3.06 .25,6.08 .6,8.81 .35,2.84 0,5.95 0,8.81 0,3.07-.26,6.09-.6,8.82-.38,3.1-.22,5.82-.59,8.81-.38,3.04-.82,5.89-1.19,8.81-.39,3.1-.19,5.82-.56,8.81-.39,3.09-1,6.26-1.78,9.41-.76,3.02-.77,6.27-1.16,9.41-.4,3.21-.78,6.12-1.19,9.4-.37,3.01-1.06,6.06-1.75,8.82-.71,2.84-.83,5.95-1.18,8.81-.4,3.21-.99,6.35-1.75,9.4-.5,1.99-.85,4.92-1.19,7.63-.34,2.75-1.42,4.98-1.75,7.66-.31,2.44-1.69,4.87-2.38,7.62-.76,3.07-2.04,5.25-2.93,7.62-1.16,3.09-2.15,5.08-2.94,8.26-.66,2.62-1.15,4.63-1.75,7.03-.62,2.45-1.05,4.84-1.75,7.65-.83,3.3 .84,5.2 1.75,7.63 .98,2.61 2.52,4.1 3.53,5.87 1.06,1.85 2.34,3.3 3.5,4.85 .48-1.77 .96-3.42 1.44-5.32 1.56-6.25 3.11-13.08 3.97-19.9 .67-5.39 3.23-11.36 3.96-17.22 .92-7.34 1.73-13.77 2.66-21.22 1.03-8.24 1.75-15.7 2.66-23.84 .82-7.42 .39-13.84 1.31-21.22 .86-6.92 1.79-12.96 2.66-19.88 .83-6.65 1.84-12.09 2.65-18.56 .75-5.98 2.16-13.1 1.32-19.87-.68-5.42-.47-11.77-1.32-18.57-.81-6.46-2.65-13.72-2.65-19.87 0-6.89 .85-14.37 0-21.19-.14-1.06 .02-2.65 .06-4.03-.21-.43-.15-.26-.5-.97z"/>
</g>
<g transform="matrix(.28616 0 0 .28616 -42.1 -25.434)">
<path opacity=".66" fill="url(#linearGradient13)" d="m485.93,163.94c-3.32,2.63-3.61,6.93-4.7,12.93-.81,4.44-1.32,8.8-1.76,13.73-.58,6.3-.09,9.02-.59,14.54-.4,4.41 0,9.3 0,13.74v37.97c0,4.57 1.85,5.47 2.94,8.08 .64,1.56 3.23-3.96 4.11-5.65 1.55-2.99 1.76-7.27 2.35-10.51 .8-4.38 1.34-7.48 1.76-12.12 .36-3.96 .59-7.91 .59-12.12s-.25-8.36-.59-12.11c-.39-4.3-.79-7.11-1.17-11.31-.39-4.27-.8-7.98-1.18-12.12-.31-3.43-.37-7.19 0-11.31 .5-5.53-.42-8.82-1.76-13.74z"/>
<path opacity=".66" fill="url(#linearGradient14)" d="m508.8,92.537c-3.21,1.882-3.85,5.389-5.37,10.213-1.12,3.58-1.96,7.11-2.8,11.12-1.08,5.12-.89,7.39-1.84,11.88-.75,3.58-.83,7.63-1.23,11.27-.39,3.53-.77,7.07-1.16,10.6-.39,3.54-.77,7.07-1.16,10.61-.4,3.65-.73,6.65-1.09,9.94-.41,3.74 1.17,4.64 1.9,6.87 .44,1.33 3.24-2.98 4.19-4.3 1.65-2.32 2.22-5.82 3.04-8.43 1.1-3.52 1.87-6.03 2.66-9.79 .68-3.23 1.24-6.44 1.62-9.89 .37-3.46 .53-6.88 .56-9.99 .04-3.55-.07-5.89-.04-9.38 .04-3.53 .01-6.61 .04-10.03 .03-2.84 .31-5.93 1.02-9.28 .94-4.492 .41-7.268-.34-11.413z"/>
<path fill="url(#linearGradient15)" d="m457.35,287.84c-4.31-4.01-9.36-7.3-13.47-9.77-.7-2.27-7.82-4.56-12.95-7.93-6.14-4.05-13.89-6.6-21.2-9.12-7.13-2.47-13.62-3.47-21.2-5.22-8.09-1.86-13.16-2.61-21.21-2.61-10.59,0-20.48-1.22-31.1,0-9.88,1.14-19.52,2.71-29.16,5.03-7.33,2.59-12.21,3.93-17.49,6.71-6.05,3.18-13.25,7.42-19.79,11.73-6.28,4.13-11.23,7.2-16.96,11.73-6.11,4.83-11.85,9.62-16.96,14.34-5.35,4.92-12.35,14.39-17.34,21.62-7.49,7.95-8.99,16.12-12.7,21.84-2.84,5.67-5.35,12.02-7.88,18.22-2.82,6.94-2.6,6.46-5.49,16.63-1.82,6.09-4.01,14.79-6.07,23.35-1.87,7.76-2.4,15.83-4.24,23.47-1.48,6.12-1.99,13.38-2.83,19.55-.9,6.68-1.41,12.51-1.41,19.55 0,5.16-1.42,11.49-1.42,18.25 0,6.99-3.16,13.42-5.65,19.55-1.38,3.4-1.03,8.01 0,15.64 .61,4.53 7.58,8.74 9.9,11.73 3.88,5.02 5.33,6.65 8.48,11.73 3.29,5.32 10.46,5.25 14.13,6.52 6.49,2.24 11.55,.27 18.38-1.3 2.53-.59 11.6,2.67 16.96,3.91 7.74,1.78 12.37,3.5 19.79,5.21 6.92,1.6 13.88,1.76 21.21,2.61 6.37,.73 15.18,2.07 19.79,2.6 8.4,.97 13.04,1.67 21.2,2.61 8.23,.95 17.14,0 25.45,0 6.76,0 14.66-3.16 21.2-3.91 7.97-.92 13.84-3.97 21.21-6.52 6.62-2.29 14.05-6.04 19.15-8.73 6.81-2.99 10.02-5.66 17.01-8.86 5.24-3.84 10.5-7.04 16.14-10.76 5.32-4.2 9.6-7.87 14.14-12.05 4.68-4.32 8.19-8.87 12.72-13.04 5.55-5.11 9.35-12.81 12.72-18.25 5.12-8.26 9.26-14.94 12.72-23.46 2.57-6.31 3.1-13.27 5.66-19.55 3.08-7.59 4.11-14.9 7.06-22.16 2.69-6.61 2.83-13.11 2.83-20.85 0-7.45-1.88-15.22-2.83-22.16-.99-7.33-2.39-14.05-4.24-20.86-1.84-6.81-4.68-14.5-6.28-20.4-3.14-6.74-5.55-11.3-9.27-16.09-3.34-4.32-7.34-8.54-11.74-13.2-3.57-4.41-5.96-6.56-9.44-9.89-1.19-1.92-5.32-5.26-7.53-7.44z"/>
</g>
<g fill="url(#linearGradient444)" transform="matrix(.28616 0 0 .28616 -42.1 -25.434)">
<path d="m397.09,269.94c-1.69-.1-8.18,.38-9.91,.6-6.42,.8-8.57,1.36-15.12,2.18-7.04,.88-11.78,1.32-19.25,4.12-5.58,2.1-11.1,3.84-18.53,6.63-5.55,2.08-10.26,3.98-15.82,6.06-8.05,3.02-11.26,4.87-17.66,8.52-4.08,2.33-10.22,5.14-15.42,9.6-4.13,3.54-9.93,6.23-14.47,10.78-5.5,5.49-10.88,10.92-15.79,16.65-3.23,3.77-6.01,4.74-9.51,10.86-2.76,4.84-6.44,11.42-9.76,17.22-3.87,6.78-7.17,17.03-10.57,23.84-3.28,6.57-5.3,11.47-8.06,18.84-2.68,7.15-2.93,12.2-5.31,18.57-2.53,6.73-4.11,13.16-6.63,19.87-2.04,5.45-2.53,8.66-4.09,14.91-.98,3.91-2.26,11.26-3.88,15.56-1.61,4.31-3.11,10.69-5.09,14.16-.92,1.61-2.97,5.47-4.94,9-.99,1.76-5.12,8.54-4.42,9.84s6.92-3.3 5.43-5.39c.82-1.34 4.19-5.46 5.19-7.26 2.01-3.59 1.27-4.71 2.05-6.08 2.8-4.88 6.58-17.71 7.88-21.18 2.01-5.35 1.37-7.72 2.19-11.02 1.61-6.43 2.48-11.62 4.35-16.63 2.67-7.1 4.74-11.65 7.11-17.97 2.68-7.17 3.85-10.79 6.23-17.14 2.73-7.29 4.17-9.01 7.37-15.39 3.07-6.15 7.74-12.58 11.84-19.75 3.46-6.06 8.6-13.18 11.18-17.7 3-5.24 6.73-8.63 10.29-12.78 4.91-5.73 7.25-9.04 12.61-14.4 4.32-4.32 10.37-8.27 14.61-11.9 4.02-3.45 8.31-6.22 13.06-8.94 6.77-3.87 14.64-9.64 22.04-12.42 6.39-2.4 8.83-4.32 13.42-6.04 7.28-2.73 13.26-5.41 19.03-7.57 6.92-2.6 8.38-1.97 15.5-2.86 6.65-.83 14.03-1.87 20.35-2.66 2.49-.31 7.92-.04 10.88,.37 2.96,.42 6.24,.5 8.82,.5 5.89,0 15.43,3.68 16.23,2.89 .79-.78-1.92-3.45-3.02-3.65-1.05-.26-4.02-.48-6.03-.48-2.13,0-6.05-.96-11.94-.96-1.59,0-3.46-1.42-6.58-1.85-1.56-.22-4.16,.54-5.86,.45z"/>
<path d="m430.86,295.33c-9.39,0-15.87,2.16-23.89,3.17-8.14,1.37-14.51,3.26-20.07,5.49-6.62,1.65-10.1,2.8-17.59,6.54-4.02,2.01-11.94,4.13-17.75,8.28-8.48,3.61-15.93,7.34-22.78,13.43-7.29,4.16-14.15,10.07-20.24,16.17-5.67,5.66-11.89,12.64-16.86,17.61-4.78,4.78-8.06,10.19-13.09,17.24-3.32,4.65-7.62,10.56-11.68,17.68-2.29,4-7.28,9.05-9.57,15.15-2.31,6.16-5.8,14.73-9.08,20.47-3.26,5.71-7.79,10.41-10.87,18.65-2.21,5.89-2.83,7.31-6.27,13.32-3.7,6.48-4.38,9.54-7.74,14.25-3.1,4.34-20.01,29.46-20.94,30.63-.42,.51-3.9,3.54-3.58,5.46s1.97,3.34 3.92,3.35c2.14,0 10.94-15.24 11.6-16.4 2.32-4.06 6.65-11.41 10.29-16.51 4-5.6 4.82-8.58 8.16-14.43 3.67-6.42 9.74-17.43 12.02-23.52 2.56-6.82 7.08-11.42 10.82-17.97 3.5-6.13 4.4-4.77 6.8-11.15 1.29-3.47 8.28-11.93 11.37-17.33 3.43-5.99 7.32-11.49 11.25-16.99 4.75-6.65 10.12-12.69 14.63-17.2 5.89-5.89 11.2-11.95 15.9-16.66 5.35-5.35 12.59-10.46 19.04-15.36 3.71-4.57 10.44-7.08 17.28-11.96 3.8-2.72 12.72-7.31 18.11-10 6.63-3.32 10.2-4.64 17.36-6.43 6.03-2.82 12.36-6.42 18.65-7.21 9-4.39 25.69-6.69 24.99-5.08 .72-1.25 1.26-2.71-.19-2.69z"/>
<path d="m465.06,338.94c-.07,.01-.14,.02-.22,.03-4.66,.58-9.94,.82-15.25,2.81-6.72,2.52-35.36,11.83-42.87,16.13-7.01,4-35.51,19.7-42.61,23.76-6.8,3.89-27.3,22.83-32.08,26.92-7.89,6.77-27.24,27.78-32.12,33.47-5.67,6.62-21.94,30.35-26.87,35.28-4.78,4.79-17.59,19.13-22.8,25.22-3.74,4.35-17.26,14.84-19.71,17.19-2.45,2.36-11.07,7.8-10.86,9.45s18.32-8.79 19.71-10.17c4.34-4.35 7.49-8.28 11.58-13.04 4.39-5.2 7.03-6.53 11.58-13.93 5.19-5.19 13.1-11.21 17.49-17.35 3.11-4.36 15.79-17.78 21.11-23.98 4.84-5.65 12.72-14.54 18.21-20.04 6.04-6.04 26.06-22.5 29.75-25.67 6.09-5.21 15.49-11.92 22.26-17.69 7.51-4.29 13.37-8.62 18.73-12.45 6.92-4.95 8.65-5.28 15.82-9.38 6.93-3.96 12.57-9.49 20.44-11.46 7.56-1.89 12.4-4.76 18.68-7.11 4.18-1.57 19.41-5.65 24.37-6.27 1.66-.15-2.68-1.87-4.34-1.72z"/>
<path d="m483.56,381.75c-4.61,5.38-9.46,12.59-14.07,17.21-5.68,5.67-5.87,5.87-12.1,12.1-5.23,5.22-12.39,15-18.51,19.38-9.37,9.68-20.14,18.96-33.52,26.41-9.94,5.74-12.96,9.52-24.68,16.49-5.74,3.28-19.15,12.56-26.18,15.19-6.55,2.46-13.28,4.64-20.06,8.03-4.6,2.3-30.73,14.83-36.94,17.16-4.9,1.84-37.24,13.35-40.29,15.55s-22.89,10.94-23.96,11.35c-1.04,.38 14.16-3.95 18.05-3.39 2.33-.87 16.39-9.3 18.09-10.28 2.93-1.67 12.63-4.99 16.84-6.04 5.68-1.42 26.4-10.7 30.21-12.88 5.31-3.03 40.6-15.4 47.56-18.01 6.52-2.44 22.67-11.27 27.72-14.16 6.35-3.63 25.95-17.34 34.51-25.56 6.22-4.44 21.75-24.69 26.36-29.29 6.23-6.23 22.01-24.86 29.75-26.68 .07-5.37 1.56-12.99 1.22-12.58z"/>
</g>
<g transform="matrix(.28616 0 0 .28616 -42.1 -25.434)">
<path fill="url(#radialGradient20)" d="m371.11,277.01c-3.92-5.15-13.64-5.52-22.53-6.63-8.59-1.07-15.34,.43-22.53,1.33-7.81,.97-13.79,.79-21.21,2.65-6.92,1.73-11.09,4.44-17.23,7.95-5.28,3.01-11.35,4.59-17.23,7.95-6.33,3.62-9.22,5.45-14.58,9.28-6.83,4.87-8.76,8.76-14.58,14.58-5.39,5.39-9.02,11.3-13.25,17.23-4.15,5.81-8.41,12.39-11.93,18.55-4.05,7.08-6,10.76-7.95,18.56-1.88,7.52-2.99,13.29-3.98,21.21-.58,4.62-2.32,14.6-2.65,17.23-.83,6.65-1.33,12.73-1.33,19.88 0,9.88 .77,10.61 5.31,18.55 2.96,5.18 10.15,6.75 14.58,9.28 6.93,3.96 13.74-2.55 18.55-5.3 5.71-3.26 11.06-6.51 15.91-9.28 6.08-3.48 11.92-4.64 17.23-6.63 6.77-2.54 13.02-3.12 19.88-3.97 4.84-.61 12.46-2.79 17.23-3.98 6.82-1.71 11.01-5.16 15.9-7.95 5.46-3.12 8.43-7.16 13.26-10.6 4.78-3.42 5.67-13.42 6.62-17.23 1.41-5.64 .97-15.73 1.33-18.56 .82-6.58 1.97-13.14 2.65-18.56 .93-7.43 2.26-14.33 3.97-21.2 1.75-6.99 6.32-10.73 9.28-15.91 3.32-5.8 5.22-8.47 7.95-13.25 3.79-6.62 5.19-7.2 7.96-14.58 1-2.68-5.49-8.78-6.63-10.6z"/>
<path fill="#342f2c" fill-opacity=".625" d="m166.99,486.03c1.67,1.36 3.31,5.8 4.16,8.98 .73,2.78-.3,5.57-.6,7.85-.37,2.81-1.75,5.52-2.38,7.86-.64,2.45-.16,2.74 .6,5.61 .59,2.23 2.55,3.62 3.56,6.17 .99,2.47 .63,5.72 1.19,7.86 .87,3.29 3.15,3.29 6.54,4.49 2.78,.98 3.38,2.03 5.35,3.36 .82,.56 2.15,6.18 2.38,6.74 .3,.77 4.98,4.14 5.34,4.49 1.48,1.39 3.86,2.03 7.13,2.8 1.63,.39 4.66,3.04 6.54,3.93 2.06,.97 6.86-1.73 8.32-2.24 3.32-1.18 5.86-.7 9.51-1.13 3.28-.38 6.99,.2 10.1,.56 3.15,.38 5.84,1.79 7.13,2.25 1.89,.67-.94-3.72-1.19-5.61-.15-1.16-9.03,1.01-9.5,1.12-3.06,.72-5.8,1.31-8.92,1.68-4.06,.48-2.81,.51-7.13,0-2.61-.31 4.08-4.36 5.35-5.05 3.38-1.82 4.61-2.1 7.72-5.05 3.91-3.69 2.37-1.01 2.98-5.61 .24-1.86-3.97-.79-5.95-.56-2.45,.29-3.93,3.97-4.75,5.05-2.09,2.76-3.95,1.94-6.54,2.25-.9,.1-2.61-5.28-2.97-6.18-.42-1.05 5.41-2.54 6.54-2.8 5.12-1.21-.46-3.43-.6-4.49-.32-2.48-3.95,2.31-4.75,3.37-1.94,2.55-5.17,2.62-8.32,3.36-5.07,1.2-3.28,.39-7.13-1.68-3.97-2.15-.81-3.44-1.19-5.05-.02-.09 5.37-4.51 5.94-5.05 2.28-2.15-5.25,1.49-6.53,2.24-3.66,2.16-4.69-.59-7.13-2.24-1.19-.8 1.8-5.66 2.37-6.74 1.69-3.19 2.95-5.99 4.76-8.97 1.48-2.46 5.24-4.18 6.53-5.05 1.49-1.01-2.57-2.51-4.16-3.37-1.62-.88-3.22,4.88-3.56,6.17-.89,3.35-3.17,6.36-4.76,8.98-1.79,2.97-4.03,4.07-5.94,5.61-2.87,2.33-2.93-5.89-2.97-6.17-.39-2.94 1.32-5.55 1.78-7.3 .65-2.45 2.12-4.63 2.97-7.85 1.52-5.74-3.57,.71-4.16,1.68-1.41,2.33-1.42,5.71-1.78,8.42-.56,4.23-2.73,3.08-5.35,4.49-1.98,1.07 .35-7.79 .6-8.42 1.02-2.58 .59-6.03 .59-8.98 0-3.31-1.46-6.1-2.38-8.41-1.93-4.87-4.84-3.1-5.34-3.37z"/>
<path fill="url(#linearGradient21)" d="m164.01,482.47c1.68,1.44 3.32,6.14 4.16,9.51 .74,2.94-.29,5.9-.59,8.32-.37,2.97-1.76,5.84-2.38,8.32-.65,2.59-.16,2.91 .6,5.94 .59,2.36 2.55,3.83 3.56,6.54 .98,2.61 .63,6.05 1.19,8.32 .87,3.48 3.15,3.48 6.54,4.75 2.77,1.04 3.38,2.16 5.35,3.57 .82,.59 2.15,6.53 2.37,7.13 .31,.82 4.98,4.38 5.35,4.75 1.48,1.48 3.86,2.15 7.13,2.97 1.63,.41 4.66,3.22 6.54,4.16 2.05,1.03 6.86-1.83 8.32-2.38 3.32-1.24 5.86-.73 9.51-1.18 3.27-.41 6.99,.2 10.1,.59 3.15,.39 5.84,1.89 7.13,2.38 1.89,.71-.94-3.94-1.19-5.94-.15-1.23-9.03,1.06-9.51,1.18-3.05,.77-5.79,1.4-8.91,1.79-4.06,.5-2.81,.54-7.13,0-2.62-.33 4.08-4.63 5.35-5.35 3.38-1.93 4.61-2.23 7.72-5.35 3.91-3.91 2.37-1.07 2.97-5.94 .25-1.98-3.96-.84-5.94-.6-2.45,.31-3.93,4.2-4.75,5.35-2.09,2.93-3.96,2.06-6.54,2.38-.91,.11-2.61-5.59-2.97-6.54-.42-1.11 5.41-2.69 6.54-2.97 5.11-1.28-.46-3.63-.6-4.75-.33-2.63-3.95,2.44-4.75,3.56-1.94,2.71-5.17,2.78-8.32,3.57-5.07,1.27-3.29,.41-7.13-1.79-3.98-2.27-.81-3.63-1.19-5.34-.02-.09 5.37-4.78 5.94-5.35 2.28-2.28-5.26,1.58-6.54,2.37-3.65,2.29-4.68-.63-7.13-2.37-1.19-.85 1.81-6 2.38-7.13 1.69-3.39 2.95-6.35 4.75-9.51 1.49-2.61 5.25-4.43 6.54-5.35 1.49-1.06-2.57-2.66-4.16-3.57-1.62-.92-3.22,5.18-3.56,6.54-.89,3.55-3.17,6.73-4.76,9.51-1.8,3.15-4.03,4.31-5.94,5.94-2.87,2.47-2.93-6.24-2.97-6.53-.39-3.12 1.32-5.88 1.78-7.73 .65-2.6 2.12-4.91 2.97-8.32 1.52-6.08-3.57,.75-4.16,1.78-1.41,2.47-1.42,6.05-1.78,8.92-.56,4.47-2.73,3.26-5.35,4.75-1.98,1.13 .34-8.24 .6-8.91 1.02-2.73 .59-6.39 .59-9.51 0-3.51-1.46-6.47-2.38-8.91-1.93-5.16-4.84-3.28-5.35-3.57z"/>
</g>
</g>
</svg>
