<svg xmlns="http://www.w3.org/2000/svg" viewBox="0 0 261 307.5" xmlns:xlink="http://www.w3.org/1999/xlink" enable-background="new 0 0 261 307.5">
<defs>
<clipPath id="SVGID_2_">
<use xlink:href="#SVGID_1_"/>
</clipPath>
<path id="SVGID_1_" d="m0,0h261v307.5h-261z"/>
</defs>
<g fill-rule="evenodd">
<g fill="#010101">
<path clip-rule="evenodd" d="m177.75,303.75 12.75,0 6-1.5 6.75-1.5 6-2.25 6-3 10.5-7.5 10.5-9 4.5-4.5 3.75-6 3.75-5.25 3-5.25 3-6 2.25-6 2.25-5.25 1.5-6.75 .75-6.75 0-6.75-1.5-12-3.75-11.25-3.75-9.75-5.25-9.75-6-8.25-7.5-8.25-8.25-7.5-8.25-7.5-9-6-19.5-12-10.5-5.25-9.75-5.25-9.75-4.5-10.5-5.25-9.75-4.5-1.5-6 0-12 .75-6.75 1.5-6.75 .75-6 0-6.75-1.5-6.75 0-6 1.5-3 2.25-2.25 3-2.25 2.25-1.5 5.25,0 3,2.25 3.75,3.75 3,3.75 3.75,5.25 3,5.25 3.75,5.25 3,4.5 5.25,5.25 2.25,1.5 3,1.5 4.5,3 6,4.5 2.25,3 .75-1.5 0-1.5-.75-1.5-.75-3-5.25-10.5-2.25-3.75-1.5-9.75-6-16.5-3.75-7.5-6-10.5-2.25-3-1.5-2.25-3.75-3.75-4.5-2.25-4.5-.75-3.75,0-3.75,1.5-3.75,2.25-3.75,1.5-4.5,2.25-.75-2.25 0-3-.75-3 .75-3-2.25-1.5-4.5-1.5-1.5-.75-2.25,0-2.25-.75-4.5,0-1.5,1.5 0,3-.75,1.5-15,6 .75,3.75 3,9 .75,4.5-3,1.5-2.25,0-1.5-.75-3.75,0-3,1.5 .75,3 0,6.75 .75,3-2.25,0-2.25-1.5-1.5-.75-2.25-1.5-1.5-.75-2.25-1.5-2.25-.75-1.5-1.5-4.5-2.25-4.5-1.5-3.75-2.25-4.5-2.25-3.75-2.25-4.5-2.25-9-3-4.5,3-3,6.75-1.5,9-1.5,10.5 .75,9.75 1.5,9.75 3,7.5 3,3.75 3.75-3.75 2.25-4.5 2.25-5.25 4.5-9 3-3 5.25-.75 5.25,.75 3,2.25 2.25,2.25 2.25,3 1.5,3 1.5,3.75 2.25,3 3,6 2.25,7.5 1.5,7.5 .75,8.25 0,7.5-4.5,4.5-5.25,4.5-4.5,3.75-5.25,4.5-21,15-5.25,4.5-5.25,3.75-13.5,13.5-3.75,5.25-3.75,4.5-3.75,6-5.25,8.25-3.75,9-2.25,9.75-1.5,10.5 0,9.75 1.5,10.5 2.25,9 3,9.75 3,3.75 3.75,4.5 6.75,6.75 7.5,6 4.5,2.25 3.75,3 4.5,2.25 5.25,1.5 4.5,2.25 4.5,1.5 5.25,1.5 4.5,1.5 5.25,.75 5.25,1.5 6-.75 6,.75 5.25,1.5 6,3 10.5,4.5 6,2.25 6,.75 3.75,.75 14.25,0 3.75-.75 3.75,0 3-.75 3.75,0 3.75-.75 3-.75z" clip-path="url(#SVGID_2_)"/>
<path d="m120.75,302.25 0-3.75 .75-.75 1.5,.75 0,2.25 .75,1.5 1.5,.75 .75-3.75 2.25,.75 0,2.25 2.25,.75 .75-.75-.75-1.5 1.5-1.5 1.5,1.5 .75,1.5 .75,.75 0-.75 0-1.5 .75-1.5 1.5,0 .75,2.25 1.5,.75 5.25,0-5.25-3-5.25-2.25-10.5-1.5-6-.75-5.25,0-6,.75-5.25,0 9.75,3.75 0-1.5 1.5-1.5 .75,1.5 0,3 1.5,0 1.5-1.5-.75-1.5-.75-.75 1.5-1.5 1.5,1.5 0,2.25 .75,2.25z"/>
</g>
<g>
<path fill="#a97c50" d="m78.75,288.75 0-1.5 1.5-.75 1.5,.75 1.5-.75-1.5-2.25-2.25-2.25-2.25-3-1.5-3-4.5-8.25-3-9.75-2.25-9-1.5-9.75-.75-9.75 1.5-21 2.25-9.75 2.25-6 1.5-6 3-6 2.25-6 3-6 3.75-5.25 3-5.25 3.75-6 7.5-10.5 3.75-4.5 4.5-5.25 4.5-4.5 4.5-5.25 4.5-4.5 5.25-3.75 3.75-6 3-6 1.5-6.75 1.5-7.5 .75-7.5 0-6.75 .75-6.75 0-6-5.25-3-.75,.75 0,3 3,1.5 1.5,1.5 .75,1.5-1.5,0-1.5-.75-2.25-.75-1.5-.75-.75,.75-.75,1.5 0,.75-.75,1.5 3,1.5 .75,.75 .75,1.5-2.25,0-2.25-.75-1.5-.75-1.5,3 2.25,2.25 1.5,.75 .75,1.5-1.5,.75-1.5-.75-1.5-1.5-1.5,0-1.5,1.5-.75,1.5 0,.75 1.5,1.5 3,1.5 .75,1.5-2.25,0-3-1.5-2.25,0-1.5,2.25 1.5,1.5 2.25,1.5 1.5,.75 0,1.5-.75,0-1.5-.75-1.5,0-3-1.5-1.5,0-.75,1.5-.75,2.25 1.5,1.5 3,1.5 .75,1.5-3,0-.75-.75-1.5-.75-1.5,0-1.5,.75-.75,.75-.75,1.5 4.5,4.5-1.5-.75-2.25,0-1.5-.75-2.25,.75-1.5,1.5 4.5,4.5-2.25,.75-3-1.5-2.25-.75-3.75,3.75 2.25,2.25 1.5,.75 0,1.5-11.25,.75 4.5,7.5-.75,.75-6-5.25-3.75,7.5 4.5,3-2.25,0-.75-.75-1.5-.75-5.25,0 .75,2.25 4.5,4.5-1.5,0-2.25-.75-2.25-1.5-1.5-1.5-3,3.75 4.5,4.5 .75,1.5-9.75,1.5 1.5,.75 2.25,1.5 1.5,1.5 .75,2.25-1.5,0-2.25-1.5-2.25-.75-2.25-1.5-.75,.75-1.5,3-.75,.75 5.25,6.75-2.25-1.5-3-1.5-.75-.75-.75,0-1.5,1.5-1.5,2.25 7.5,6-1.5,0-2.25-.75-3-1.5-3,0-1.5,.75-.75,2.25 4.5,4.5 1.5,.75-1.5,.75-1.5-.75-1.5,0-1.5-.75-3,0-.75,.75-.75,2.25 1.5,1.5 3,.75 1.5,.75 .75,1.5-1.5,0-2.25-.75-3,0-3,1.5-.75,1.5-.75,2.25 1.5,1.5 4.5,1.5 .75,1.5-1.5,.75-4.5-2.25-3,0-.75,1.5 0,4.5 4.5,1.5 2.25,1.5-1.5,.75-1.5,0-1.5-.75-5.25,0-1.5,3 .75,3 4.5,0 2.25,1.5-1.5,.75-8.25,0-1.5,1.5 0,2.25 2.25,.75 4.5,0 2.25,1.5-1.5,.75-3.75,0-2.25,.75-3,1.5-.75,1.5 0,3 6,0 1.5-.75 .75,.75 1.5,0 1.5,.75-2.25,.75-1.5,.75-4.5,0-2.25,.75-1.5,.75-.75,1.5 0,2.25 1.5,.75 3,0 1.5-.75 3,0 1.5,.75 1.5,0-2.25,1.5-2.25,.75-6.75,0-1.5,1.5-.75,1.5 .75,3 12.75,0-6.75,2.25-2.25,0-2.25,.75-1.5,1.5-.75,1.5 .75,3 2.25,.75 1.5,0 2.25-.75 3-1.5 2.25,0 .75,1.5-1.5,0-.75,.75-3,1.5-1.5,0-1.5,.75-3,0 0,5.25 .75,2.25 3,0 2.25-.75 1.5-1.5 2.25,0 2.25-.75-.75,.75-.75,1.5-1.5,.75-1.5,0-4.5,2.25-.75,.75 0,1.5 1.5,3 .75,.75 2.25,0 1.5-.75 .75,0 1.5-.75 1.5,0 .75-.75 1.5-.75-.75,1.5-1.5,.75-1.5,1.5-2.25,.75-2.25,2.25 .75,1.5 2.25,1.5 4.5,0 1.5-.75 .75-.75 1.5,0 .75-1.5 1.5-.75-.75,2.25-2.25,1.5-4.5,4.5 1.5,.75 1.5,0 1.5,.75 3.75,0 2.25-.75 2.25-1.5 3-2.25 0,2.25-1.5,1.5-2.25,1.5-3,3-2.25,.75 0,.75 .75,2.25 1.5,.75 2.25,0 1.5-.75 6-6 .75,0 0,.75 .75,0-7.5,9 1.5,.75 .75,0 .75,.75 1.5,0 2.25-1.5 2.25-2.25 3-4.5 0,3-1.5,2.25-2.25,3-1.5,2.25 3,.75 2.25-.75 1.5-.75 3-3 1.5-3 .75,0 0,3-.75,1.5-3,4.5 2.25,.75 1.5-.75 1.5-1.5 .75-1.5 .75-.75 1.5-.75 1.5,.75-.75,2.25-.75,1.5 0,1.5z"/>
<path fill="#c49a6b" d="m81,282.75l.75,.75v1.5l1.5,1.5-1.5,.75-1.5-.75-1.5,.75v1.5h-.75v-.75h-.75l.75-.75 .75-1.5 1.5-1.5 .75-1.5zm54-202.5h-1.5l-.75-.75-1.5-.75h-.75l-1.5,1.5-.75,1.5v.75l1.5,.75 1.5,1.5 1.5,.75 .75,.75h-2.25l-2.25-.75h-3l-1.5,2.25 1.5,1.5 2.25,.75 1.5,1.5 .75,1.5h-1.5l-4.5-2.25h-2.25l-1.5,.75v2.25l.75,1.5 1.5,1.5 1.5,.75 .75,1.5h-1.5l-1.5-.75h-1.5l-1.5-.75h-2.25l-1.5,3 4.5,4.5h-.75l-.75-.75h-2.25l-2.25-.75h-1.5l-1.5,1.5 4.5,5.25h-3.75l-1.5-1.5h-2.25l-3.75,3 .75,1.5 2.25,2.25 .75,1.5-11.25,.75 4.5,7.5-.75,.75-6-5.25-3.75,6.75 4.5,3.75h-2.25l-.75-.75-1.5-.75h-1.5l-.75-.75h-1.5l-.75,.75 .75,2.25 .75,1.5 3,3h-2.25l-1.5-.75-1.5-1.5-2.25-1.5-3,3.75 4.5,4.5 .75,1.5-10.5,1.5 2.25,.75 2.25,1.5 1.5,1.5 .75,1.5h-1.5l-4.5-1.5-1.5-1.5h-.75v.75h-.75v.75h-.75v.75l-.75,.75v.75l-.75,.75 5.25,6.75-2.25-1.5-1.5-1.5-1.5-.75h-1.5l-1.5,1.5-1.5,2.25 7.5,5.25-1.5,.75-.75-.75h-3l-.75-.75-1.5-.75h-2.25 .75-1.5l-.75,.75v.75l-.75,1.5 3,3 1.5,.75 1.5,1.5h-3l-1.5-.75h-1.5l-1.5-.75h-.75l-1.5,1.5v2.25l1.5,1.5h2.25l1.5,1.5 .75,1.5h-1.5l-2.25-.75h-3l-3,1.5-.75,1.5-.75,2.25 2.25,.75 1.5,1.5 1.5,.75 1.5,1.5h-3l-3-1.5h-3l-.75,1.5v4.5l6.75,2.25-3,1.5-2.25-.75-1.5-.75h-3l-.75,1.5-.75,2.25 .75,3h1.5l3-.75 2.25,2.25h-8.25l-1.5,.75-.75,1.5v2.25l2.25,.75h3.75l2.25,1.5h-1.5l-1.5,.75h-3.75l-3,1.5-.75,.75-.75,2.25h1.5v.75h.75l-.75,.75h-1.5l1.5,.75 1.5-.75h5.25l2.25,.75 .75,.75-3,1.5h-6.75l-1.5,.75-.75,.75-.75,1.5h.75l.75,.75h1.5l-.75,.75h-.75v.75h-.75l1.5,.75h3l1.5-.75h2.25l1.5,.75h1.5l-2.25,1.5h-6l-2.25,.75-1.5,.75-.75,.75-.75,2.25h4.5l-.75,.75h-.75l-1.5,.75h-.75v.75h12.75l-2.25,.75-1.5,.75h-1.5l-2.25,.75h-2.25l-3,1.5-.75,1.5h3l.75,1.5h-1.5l-.75,.75h-.75v.75l2.25,.75h1.5l2.25-.75h1.5l1.5-.75h2.25l.75,.75-3,1.5h-1.5l-.75,.75-3,1.5h-3v3h.75l.75-.75h1.5l-3,3v.75l1.5,1.5 2.25-.75h2.25l2.25-1.5 1.5-.75 2.25-.75-.75,1.5-1.5,.75-.75,.75-3,1.5h-1.5l-3,1.5 .75,.75v1.5l.75-.75h.75l.75-.75h.75v.75l-2.25,2.25v.75l1.5,1.5h.75l1.5-.75h1.5l.75-.75h1.5l1.5-.75 .75-.75 1.5-.75-1.5,2.25-3,1.5-2.25,1.5-1.5,2.25 1.5-.75 .75-.75 1.5-.75 .75-.75-.75,1.5-.75,.75-.75,1.5-1.5,.75v.75h.75l.75,.75h3.75l1.5-.75h1.5l.75-.75 1.5-.75 .75-.75 1.5-.75-.75,1.5-2.25,2.25-2.25,1.5-2.25,2.25 3-1.5 1.5-1.5 2.25-1.5v2.25l-2.25,1.5-2.25,2.25 1.5,.75h3.75l1.5-.75 2.25-.75 2.25-1.5 1.5-1.5 .75,.75v.75l-.75,1.5-2.25,2.25-1.5,.75-1.5,1.5-1.5,.75-1.5,1.5 1.5,3h3l1.5-1.5 .75-1.5 1.5-1.5 .75-1.5 .75,.75v.75l-.75,.75 1.5-.75 .75-.75 .75-1.5h.75l.75,.75-7.5,9h.75l1.5,.75h.75l.75,.75 2.25-2.25 1.5-2.25 2.25-2.25v1.5l1.5-1.5v-.75l.75-.75v3l-1.5,2.25-2.25,2.25-1.5,3h.75l.75,.75 3-1.5 1.5-2.25 1.5-1.5 1.5,.75v.75h-.75l.75-.75v-.75h.75l.75-.75-1.5-.75-2.25-4.5-4.5-8.25-3-9.75-2.25-9-1.5-9.75-.75-9.75 1.5-21 2.25-9.75 2.25-6 1.5-6 3-6 2.25-6 3-6 3.75-5.25 3-5.25 3.75-6 7.5-10.5 3.75-4.5 4.5-5.25 4.5-4.5 4.5-5.25 4.5-4.5 5.25-3.75 3-3.75 2.25-3.75 1.5-3.75 1.5-4.5 1.5-9 .75-4.5v-4.5m0-7.5h-2.25v.75l-.75,2.25 1.5,1.5h1.5v.75-5.25m.75-3h-.75 .75"/>
<path fill="#a97c50" d="m103.5,290.25 0-3 .75-3.75 .75-3 .75-3.75 .75,13.5 4.5,0 0-3 .75-3.75 1.5-3 .75-3.75 0,13.5 3.75,0 1.5-3.75 0-4.5 1.5-3.75 .75,3.75-.75,2.25 0,6 5.25,.75 .75-3.75 0-3 1.5-6 .75,3.75 0,9 3.75,2.25 2.25-15 .75,15 3.75,2.25 .75-3 0-6 .75-3 .75,3.75 .75,4.5 .75,3.75 3.75,.75 0-15.75 .75,2.25 .75,3 0,6.75 .75,3 1.5,1.5 2.25,.75 3.75-.75 1.5,0 0-4.5-4.5-11.25 3,3.75 2.25,3.75 .75,3.75 1.5,3.75 6-.75-.75-3.75-2.25-3.75-2.25-3 .75-2.25 1.5,1.5 1.5,3 4.5,6.75 2.25,.75 1.5-.75 3-3-6.75-10.5 .75,0 4.5,4.5 1.5,2.25 2.25,.75 1.5,0 2.25-1.5-7.5-9 2.25,0 5.25,5.25 1.5,.75 1.5,0 2.25-.75-.75-1.5-1.5-1.5-.75-1.5-6.75-6.75 2.25,.75 3,1.5 4.5,4.5 1.5,.75 1.5,1.5 2.25-3.75-11.25-10.5 2.25,0 1.5,.75 1.5,1.5 1.5,.75 1.5,1.5 1.5,.75 .75,1.5 1.5,1.5 1.5-.75 .75-.75 .75-1.5 .75-.75-9.75-7.5 1.5,0 4.5,1.5 2.25,1.5 1.5,1.5 1.5,.75 .75-2.25 .75-3-12-8.25 2.25,.75 1.5,0 1.5,.75 2.25,1.5 3,1.5 1.5,1.5 2.25,.75 1.5-3 0-2.25-1.5-2.25-9-4.5-2.25-.75-.75-1.5 1.5-.75 2.25,.75 1.5,.75 2.25,.75 3,3 4.5,1.5 0-3-.75-2.25-1.5-1.5-2.25-1.5-1.5-1.5-2.25-.75-1.5-.75 3,0 3,1.5 .75,.75 3,1.5 1.5,0 .75-1.5 0-2.25-1.5-2.25-2.25-1.5-2.25-2.25-3-1.5-2.25-1.5-2.25-.75 3.75,0 1.5,.75 2.25,.75 1.5,1.5 1.5,.75 1.5,1.5 1.5,.75 0-3-3-4.5-1.5-1.5-2.25-1.5-2.25-.75-2.25-1.5-1.5-1.5 3,0 1.5,.75 2.25,.75 3,1.5 1.5,1.5 1.5,.75 .75-3-.75-2.25-.75-1.5-2.25-1.5-2.25-.75-2.25-1.5-2.25-.75-.75-1.5 3.75,0 1.5,.75 .75,.75 .75,0 1.5,.75 .75,.75 .75-2.25-.75-1.5-1.5-2.25-1.5-.75-3-.75-1.5-1.5-2.25-.75-.75-1.5 3,0 1.5,.75 .75,.75 1.5,.75 1.5,0 .75,.75 0-3-1.5-1.5-1.5-2.25-2.25-.75-2.25-1.5-2.25-.75-1.5-.75-.75-.75 3.75,0 .75,.75 1.5,0 .75,.75 3,0-.75-2.25-.75-1.5-1.5-1.5-1.5-.75-4.5-1.5-1.5-.75-2.25-.75 1.5-.75 3,0 1.5,.75 .75,.75 2.25,0-.75-2.25-.75-1.5-1.5-1.5-2.25-.75-1.5-.75-6.75-2.25 1.5-.75 3.75,0 .75,.75 1.5,.75 2.25,0-1.5-2.25-.75-2.25-4.5-2.25-2.25,0-4.5-1.5 2.25-.75 6.75,0-1.5-2.25-1.5-1.5-1.5-.75-4.5-1.5-3-.75-1.5-.75-2.25-.75 10.5,.75-1.5-2.25-1.5-1.5-2.25-.75-1.5-.75-3-.75-4.5-1.5-2.25,0 .75-.75 8.25,0 .75,.75-3-3-2.25-.75-1.5-1.5-2.25,0-4.5-1.5-2.25,0 .75-.75 7.5,0 1.5,.75-1.5-2.25-3-3-2.25,0-3-.75-2.25-.75-2.25,0-1.5-.75 2.25,0 2.25-.75 1.5,.75 2.25,0-3-3-1.5-.75-2.25-.75-1.5-.75-2.25-.75-1.5,0-2.25-.75 1.5,0 2.25-.75 1.5,0 2.25,.75-.75-1.5-1.5-1.5-1.5-.75-4.5-1.5-1.5,0-2.25-.75-2.25,0 2.25-.75 1.5-.75 2.25,0 2.25,.75-1.5-.75-.75-.75-2.25-.75-1.5-.75-2.25,0-1.5-.75-.75-.75-.75,0 1.5-1.5 1.5,0 4.5,1.5-1.5-1.5-.75-1.5-2.25-.75-3-1.5-2.25,0-1.5-.75-.75-1.5 6.75,.75-.75-1.5-3.75-3.75-1.5-.75-.75-.75-1.5-.75-1.5,0 .75-.75 2.25,0 0-.75-.75-1.5-.75-.75-.75-1.5-5.25,5.25 3,.75 .75,.75-.75,0-1.5,.75-1.5,0-3,.75-3,3 2.25,.75 4.5,0 1.5,.75-2.25,1.5-6.75,0-4.5,1.5-1.5,1.5-1.5,2.25 2.25,.75 2.25-.75 4.5,0-2.25,1.5-4.5,1.5-1.5,0-3,.75-2.25,0-3,3 1.5,.75 6,0 .75,.75 1.5,0-1.5,.75-2.25,.75-2.25,0-2.25,.75-3.75,0-2.25,1.5-1.5,1.5 9.75,.75-2.25,.75-1.5,.75-2.25,.75-2.25,0-2.25,.75-2.25,0-3,3 6.75,0 2.25,.75-1.5,.75-2.25,.75-2.25,0-1.5,.75-2.25,.75-1.5,.75-1.5,1.5 0,1.5 8.25,.75 0,1.5-2.25,.75-6.75,0-3,.75-1.5,1.5-.75,3 9,0-1.5,1.5-1.5,.75-2.25,0-1.5,.75-2.25,0-1.5,1.5-1.5,.75-.75,1.5 2.25,1.5 6,0-1.5,.75-2.25,.75-1.5,0-2.25,.75-1.5,.75-3,3 0,2.25 6.75,0 1.5,.75-3,1.5-2.25,0-1.5,.75-2.25,.75-1.5,.75-.75,1.5-.75,2.25 4.5,0 2.25-1.5 2.25,0-.75,1.5-2.25,.75-2.25,1.5-2.25,.75-1.5,.75-1.5,1.5-1.5,2.25 0,2.25 1.5,0 1.5-.75 3,0 2.25-.75 3.75,0-2.25,.75-1.5,.75-2.25,.75-2.25,1.5-2.25,.75-3,3 0,2.25 1.5,0 1.5-.75 3,0 1.5-.75 3.75,0-1.5,.75-6.75,2.25-2.25,1.5-1.5,.75-.75,2.25 0,2.25 4.5,0 .75-.75 1.5-.75 .75,0 1.5-.75 1.5,0-1.5,1.5-2.25,.75-1.5,1.5-2.25,0-1.5,1.5-1.5,.75-.75,2.25 0,2.25 3-1.5 2.25,0 .75-.75 1.5-.75 .75,0 1.5-.75-1.5,1.5-1.5,.75-1.5,1.5-2.25,.75-3,3 0,5.25 10.5-3.75-2.25,2.25-2.25,.75-1.5,1.5-2.25,1.5-.75,.75-1.5,2.25 0,1.5 12-5.25 .75,.75-12.75,8.25 .75,3.75 1.5-.75 .75-.75 1.5,0 2.25-2.25 1.5-.75 2.25,0-.75,1.5-4.5,2.25-2.25,2.25-.75,1.5 0,1.5 1.5,0 4.5-1.5 1.5-.75-1.5,1.5-.75,1.5-1.5,.75-.75,1.5-1.5,1.5-.75,2.25 .75,1.5 1.5,2.25 9-7.5-.75,2.25-1.5,1.5-1.5,2.25-3,3-.75,2.25 0,1.5 2.25,2.25 1.5-2.25 4.5-4.5 3-1.5-7.5,11.25 .75,1.5 .75,.75 0,.75 .75,.75 6-6.75-.75,3.75-1.5,4.5-.75,3.75 3.75,2.25 1.5-2.25 1.5-3.75 1.5-2.25 1.5-3-.75,3.75-.75,3-.75,3.75-.75,3 2.25,1.5 2.25,0 .75-.75 2.25-6.75 .75-3 1.5-1.5-2.25,14.25z"/>
<path fill="#c49a6b" d="m111,282 0-3 2.25-9 .75,11.25 3.75,.75 0-3.75 .75-3 1.5-2.25 .75-3 0,5.25-.75,3 0,3 3,0 1.5-3 .75-3.75 .75-3 .75,2.25 0,2.25-.75,3 0,2.25 4.5,.75 .75-3 0-3 .75-3 0-2.25 .75,3.75 0,7.5 3.75,1.5 1.5-12.75 1.5,13.5 2.25,1.5 1.5-3 0-6.75 1.5,3 0,3.75 .75,2.25 3,1.5 0-13.5 1.5,4.5 0,6 .75,1.5 .75,2.25 2.25,.75 3-.75 1.5,0 0-3.75-1.5-3-1.5-3.75-.75-3 2.25,3 1.5,3 1.5,3.75 .75,3 5.25-.75-.75-3-3-6 0-1.5 3,3 .75,2.25 1.5,2.25 1.5,1.5 1.5,.75 1.5-.75 2.25-2.25-5.25-9 .75,0 2.25,2.25 .75,1.5 3,3 2.25,0 1.5-1.5-6-8.25 1.5,0 2.25,2.25 .75,1.5 1.5,1.5 1.5,.75 1.5,0 1.5-.75-1.5-3-6.75-6.75 2.25,0 .75,.75 1.5,.75 .75,1.5 1.5,1.5 3,1.5 .75,.75 2.25-2.25-9.75-9 1.5,0 4.5,2.25 2.25,2.25 1.5,.75 .75,1.5 1.5-.75 .75-.75 0-.75 .75-.75-8.25-6.75 2.25,0 3,1.5 2.25,1.5 1.5,.75 .75,.75 .75-.75 0-3-9.75-7.5 1.5,0 3,1.5 2.25,.75 .75,.75 1.5,.75 1.5,1.5 1.5,0 1.5-2.25 0-1.5-1.5-2.25-2.25-.75-2.25-1.5-4.5-2.25-1.5-1.5 3,0 2.25,.75 1.5,.75 1.5,1.5 1.5,.75 1.5,1.5 1.5,.75 .75-1.5 0-1.5-.75-1.5-4.5-4.5-3-1.5 2.25,0 1.5,.75 .75,0 2.25,2.25 1.5,0 .75,.75 .75-2.25 0-1.5-1.5-1.5-1.5-2.25-2.25-1.5-2.25-.75-2.25-1.5-1.5-.75 1.5,0 1.5,.75 1.5,0 3,1.5 2.25,2.25 1.5,.75 0-3-.75-1.5-3-3-2.25-1.5-1.5-.75-2.25-1.5-1.5-1.5 1.5,.75 1.5,0 1.5,.75 1.5,0 1.5,1.5 1.5,0 2.25,2.25 .75-2.25-.75-2.25-.75-1.5-1.5-.75-2.25-1.5-1.5-.75-2.25-.75-.75-1.5 2.25,0 2.25,.75 1.5,.75 2.25,.75 0-3-1.5-1.5-1.5-.75-2.25-1.5-1.5,0-2.25-1.5-.75-.75 2.25,0 1.5,.75 4.5,1.5 0-2.25-.75-1.5-2.25-1.5-1.5-1.5-4.5-1.5-1.5-1.5 2.25,0 2.25,.75 1.5,.75 2.25,0 0-1.5-.75-2.25-4.5-2.25-2.25-.75-1.5,0-1.5-1.5 3.75,0 1.5,.75 2.25,0-1.5-3-6-3-2.25-.75-1.5-.75 2.25-.75 1.5,.75 2.25,.75 2.25,0-.75-2.25-2.25-2.25-3-1.5-3.75,0-1.5-.75 1.5-.75 6,0-.75-2.25-1.5-.75-2.25-1.5-1.5-.75-2.25,0-2.25-.75-1.5-.75-2.25-.75 9.75,.75-3-3-1.5-.75-2.25-.75-1.5-.75-2.25,0-4.5-1.5 2.25,0 2.25-.75 2.25,.75 2.25,0-.75-1.5-1.5-.75-2.25-.75-1.5-.75-2.25,0-1.5-.75-2.25-.75-1.5,0 1.5-.75 2.25,0 2.25,.75 2.25,0-.75-2.25-3-1.5-4.5-1.5-1.5,0-2.25-.75-1.5-.75 7.5,0-1.5-.75-1.5-1.5-3-1.5-1.5,0-1.5-.75-2.25,0-1.5-.75 1.5,0 1.5-.75 1.5,0 2.25,.75-.75-1.5-1.5-1.5-1.5-.75-1.5,0-2.25-.75-1.5,0-1.5-.75-1.5,0 3-1.5 1.5,.75 2.25,0-1.5-.75-.75,0-4.5-2.25-1.5,0-.75-.75-.75,0 1.5-.75 4.5,0-1.5-1.5-1.5-.75-2.25-.75-.75,0-1.5-.75-1.5-1.5-1.5-.75 6.75,.75-1.5-2.25-2.25-2.25-2.25-.75-3-1.5 .75-.75 .75,.75 1.5,0 0-1.5-2.25-2.25-4.5,3.75 2.25,.75 .75,.75 0,.75-3,0-2.25,1.5-1.5,.75-.75,1.5 6,0 .75,.75-1.5,.75-2.25,.75-3.75,0-2.25,.75-1.5,0-1.5,1.5-1.5,2.25 2.25,.75 1.5-.75 3.75,0-1.5,1.5-1.5,0-2.25,.75-2.25,0-1.5,.75-2.25,0-.75,1.5-1.5,1.5 3.75,0 2.25,.75 2.25,0-1.5,.75-2.25,.75-5.25,0-2.25,.75-1.5,.75-.75,1.5 8.25,.75-1.5,.75-2.25,.75-1.5,0-2.25,.75-1.5,0-2.25,.75-2.25,2.25 1.5,.75 6,0-3,1.5-3.75,0-3,1.5-1.5,3 7.5,0 0,1.5-1.5,.75-6.75,0-1.5,.75-1.5,1.5-.75,3 7.5-.75-.75,.75-3,1.5-2.25,0-3,1.5-.75,.75-.75,1.5 1.5,.75 3.75,0 1.5,.75-1.5,0-1.5,.75-2.25,.75-1.5,0-3,1.5-.75,1.5 0,2.25 7.5,0-1.5,1.5-1.5,.75-3.75,0-.75,.75-1.5,.75-1.5,3 3.75,0 2.25-.75 1.5,0-2.25,2.25-2.25,.75-1.5,0-1.5,1.5-1.5,.75-1.5,4.5 1.5-.75 1.5,0 1.5-.75 1.5,0 .75-.75 3.75,0-1.5,1.5-2.25,.75-1.5,0-2.25,1.5-3,1.5-.75,1.5 0,2.25 .75,0 1.5-.75 3.75,0 .75-.75 2.25,0-1.5,1.5-1.5,0-2.25,.75-1.5,.75-2.25,.75-.75,.75-.75,2.25 0,1.5 2.25,0 4.5-1.5 1.5,0-.75,1.5-3,1.5-1.5,0-1.5,1.5-1.5,.75-.75,1.5 .75,1.5 1.5-.75 2.25-.75 1.5,0 2.25-.75-2.25,2.25-1.5,0-2.25,1.5-1.5,.75-1.5,3 .75,1.5 0,1.5 9-3.75-.75,1.5-3,1.5-1.5,1.5-1.5,.75-1.5,1.5 0,3 9.75-4.5 .75,.75-10.5,6.75 0,3 2.25-.75 4.5-3 1.5,0-1.5,2.25-3,1.5-2.25,1.5 0,3 1.5,0 4.5-2.25-2.25,2.25-1.5,2.25-1.5,3 1.5,3 8.25-6-.75,1.5-1.5,2.25-1.5,1.5-1.5,.75-1.5,1.5 0,3.75 1.5,1.5 1.5-2.25 2.25-1.5 3.75-3.75-6,10.5 1.5,1.5 0,.75 .75,.75 4.5-5.25-1.5,6 0,3 2.25,2.25 3-4.5 .75-2.25 1.5-2.25-.75,3 0,2.25-1.5,6 3.75,1.5 1.5-3 1.5-4.5 1.5-3.75-2.25,12.75z"/>
<path fill="#fcbe8e" d="m117.75,251.25 0-2.25 1.5-4.5 0-1.5 .75,7.5 3,.75 0-2.25 1.5-4.5 0-2.25 .75,2.25-.75,2.25 0,3.75 3,0 .75-2.25 0-2.25 1.5-2.25 0,3.75-.75,1.5 0,1.5 3.75,.75 0-3.75 .75-2.25 0-2.25 1.5,3-.75,3 .75,2.25 1.5,1.5 1.5-9.75 .75,9.75 3,1.5 0-5.25 .75-2.25 .75,2.25 0,3 .75,2.25 2.25,.75 0-10.5 .75,3.75 0,3.75 1.5,3 5.25,0-.75-2.25-.75-3-1.5-4.5 3,4.5 .75,2.25 .75,3 3.75-.75 0-2.25-2.25-2.25-.75-2.25 0-1.5 1.5,1.5 1.5,3 3,3 1.5-.75 2.25-1.5-4.5-6.75 1.5,.75 1.5,2.25 3,2.25 2.25-1.5-4.5-5.25 1.5,0 3.75,3.75 2.25-.75-.75-2.25-2.25-1.5-3-3 2.25,.75 1.5,.75 2.25,2.25 2.25,1.5 1.5-1.5-7.5-7.5 2.25,.75 2.25,1.5 1.5,1.5 2.25,1.5 .75,0 .75-.75 0-.75 .75-.75-6.75-4.5 3,0 2.25,2.25 2.25,.75 .75-3-7.5-6 1.5,.75 .75,0 1.5,.75 .75,.75 1.5,.75 .75,0 1.5,.75 .75,.75 1.5-1.5 0-1.5-3-3-2.25-.75-3-1.5-1.5-1.5 3,0 1.5,.75 .75,.75 1.5,.75 .75,.75 3,1.5 0-2.25-1.5-2.25-2.25-2.25-2.25-.75 1.5,0 2.25,.75 1.5,.75 1.5,1.5 .75-1.5 0-1.5-3.75-3.75-2.25-.75-2.25-2.25 1.5,.75 2.25,.75 4.5,3-.75-3.75-2.25-2.25-3-1.5-2.25-2.25 1.5,.75 2.25,.75 2.25,1.5 2.25,.75 0-3-.75-1.5-4.5-2.25-1.5-1.5 1.5,0 4.5,2.25 0-3-.75-.75-6-3-.75-.75 1.5,0 4.5,2.25-.75-3-2.25-2.25-4.5-2.25 3,0 1.5,.75 1.5,0-.75-2.25-4.5-3-3-.75 3,0 1.5,.75 1.5,0-.75-2.25-2.25-1.5-3-.75-2.25-1.5 .75-.75 1.5,0 2.25,.75 1.5,.75-1.5-3-2.25-1.5-2.25,0-3-.75 1.5-.75 4.5,0-.75-1.5-.75-.75-3-1.5-1.5,0-3-1.5-1.5,0 6.75,0-2.25-2.25-.75,0-3-1.5-1.5,0-1.5-.75-1.5,0 1.5-.75 3.75,0 1.5,.75-2.25-2.25-1.5,0-.75-.75-1.5,0-3-1.5-1.5,0 6,0-.75-1.5-.75-.75-1.5-.75-1.5,0-1.5-.75-1.5,0-1.5-.75-.75,0 5.25,0-.75-1.5-.75-.75-1.5,0-.75-.75-1.5-.75-3,0-.75-.75 .75,0 1.5-.75 1.5,0 .75,.75 0-.75-1.5-1.5-.75,0-1.5-.75-1.5,0-.75-.75-3,0 1.5-.75 3.75,0-1.5-.75-4.5-1.5-.75-.75 3.75,0-1.5-1.5-2.25-.75-1.5-1.5-2.25-.75 4.5,0-.75-1.5-1.5-1.5-2.25-1.5-1.5,0 0-.75 .75,0 .75,.75 0-1.5-.75-1.5-.75,0-3,3 1.5,.75 .75,0-.75,.75-1.5,0-3,1.5-.75,.75 1.5,.75 3,0 .75,.75-1.5,0-1.5,.75-4.5,0-3,1.5 0,1.5 1.5,.75 1.5-.75 .75,0 1.5,.75-1.5,.75-2.25,0-1.5,.75-1.5,0-1.5,.75-.75,.75-1.5,.75 2.25,.75 4.5,0-3,1.5-3.75,0-3,1.5-.75,.75 6,.75-.75,0-1.5,.75-1.5,0-1.5,.75-1.5,0-.75,.75-1.5,0-.75,1.5 6,0-2.25,1.5-3,0-2.25,1.5-1.5,2.25 6,0 0,.75-1.5,.75-4.5,0-3,1.5 0,2.25 5.25-.75-1.5,1.5-3,.75-2.25,.75-1.5,2.25 6,0-3,1.5-2.25,0-2.25,1.5-.75,3 5.25,0-1.5,.75-3,.75-2.25,.75-.75,2.25 1.5,.75 1.5-.75 3,0-2.25,1.5-3,.75-2.25,1.5-.75,3 2.25,0 2.25-.75 3.75,0-3,.75-3,1.5-2.25,1.5-.75,2.25 3.75,0 1.5-.75 2.25,0-3,1.5-1.5,0-.75,.75-1.5,0-1.5,1.5 0,2.25 1.5,0 1.5-.75 3,0-1.5,1.5-3,.75-2.25,1.5 0,2.25 1.5-.75 1.5,0 3-1.5-4.5,3-1.5,2.25 0,3 6.75-2.25-1.5,1.5-3,1.5-1.5,1.5-.75,2.25 7.5-3.75 .75,1.5-8.25,4.5 .75,2.25 1.5,0 1.5-1.5 1.5-.75 1.5,0-1.5,.75-3,3-.75,1.5 .75,.75 3-1.5 .75-.75-3,4.5-.75,1.5 .75,2.25 6-3.75-.75,2.25-3,2.25-.75,2.25 .75,2.25 3-3 1.5-.75 1.5-1.5-4.5,7.5 0,.75 .75,0 .75,.75 0,.75 3.75-3.75-1.5,4.5 0,2.25 2.25,2.25 .75-2.25 .75-1.5 .75-2.25 1.5-1.5-.75,2.25 0,2.25-1.5,4.5 3,.75 1.5-2.25 .75-3 1.5-3-1.5,9z"/>
</g>
<g fill="#a97c50">
<path d="m45.75,280.5-2.25-1.5-7.5-7.5-1.5-3-1.5-2.25-2.25-1.5 .75,3 .75,2.25 1.5,3 3.75,3.75 3,1.5 2.25,1.5z"/>
<path d="m183,297.75-.75-.75 0-1.5-.75-1.5-.75-.75-5.25,4.5z"/>
<path d="m189.75,297 0-1.5-.75-1.5-.75-2.25-1.5-1.5 2.25,0 3.75,3.75 1.5-1.5 .75-1.5 0-3.75 .75,0 1.5-3 .75-.75 0,5.25 .75,3 2.25,2.25 .75-2.25 1.5-1.5 0-2.25-.75-2.25-2.25-2.25 .75-1.5 3.75,5.25 1.5-2.25 0-4.5-.75-1.5 3,0 .75,2.25 3,4.5 2.25-3.75 .75-3-1.5-3-2.25-3 1.5,0 1.5,1.5 .75,1.5 .75-1.5 .75-2.25 0-1.5 1.5-.75 3.75,16.5 1.5-.75 .75-1.5 0-3.75-.75-3.75-3-4.5-2.25-3-.75-3 7.5,8.25 0-4.5 .75-2.25 1.5-1.5 0,11.25 1.5,3 2.25-2.25 .75-2.25-.75-3-3-6-4.5-6 0-2.25 3,3-2.25-3 .75,0 11.25,9-.75-2.25-1.5-2.25-.75-2.25-3-3-3-4.5-1.5-1.5 3,1.5 1.5,1.5 1.5,.75 2.25,.75 1.5,.75 3.75,0-1.5-2.25-2.25-3-1.5-2.25-.75-1.5 2.25,.75 1.5,1.5 .75,2.25 1.5,1.5 1.5,2.25 1.5,.75 2.25,.75 3-.75 0-2.25-.75-1.5-.75-.75-2.25-.75-1.5,0-1.5-.75-1.5,0-2.25-.75 2.25-.75 4.5,0-6.75-9.75 1.5,.75 1.5,1.5 1.5,2.25 3,3 2.25,1.5 2.25,0 1.5-.75-.75-2.25-.75-1.5-1.5,0-.75-.75-1.5-.75-1.5,0-3-1.5 5.25-.75-3.75-3.75 .75,0 3,1.5 .75,.75 1.5,.75 .75,.75 3.75,0-1.5-3-2.25-3-3-2.25-2.25-2.25 2.25,.75 1.5,0 1.5,1.5 1.5,.75 .75,1.5 1.5,1.5 1.5,.75 .75,1.5 .75-2.25-.75-2.25-.75-1.5-2.25-1.5-1.5,0-1.5,.75-1.5,0-.75-1.5 3.75-.75-5.25-5.25 1.5,0 1.5,.75 .75,.75 3,1.5 .75,.75 1.5-.75 1.5-1.5-.75-2.25-.75-1.5-1.5-.75-4.5,2.25-2.25,0-2.25-.75 2.25,0 1.5-.75 1.5-1.5 1.5-.75 0-.75-1.5-1.5-1.5-.75 2.25,0 3,1.5 1.5-1.5-1.5-3-1.5-.75-1.5-1.5-3-1.5-1.5-1.5-1.5,0 1.5-.75 2.25,.75 1.5,0 1.5-1.5 2.25-1.5-1.5-.75-2.25-2.25-3-1.5-2.25,0-1.5,.75 0-1.5 1.5-1.5 .75-1.5 1.5-1.5-2.25-1.5-4.5-1.5-.75-2.25 .75,0 3,1.5 1.5,0 2.25,.75 2.25,0 0-1.5-5.25-4.5-2.25,.75-1.5,1.5-2.25,.75-1.5,0 .75-1.5 .75-.75 1.5-.75 .75-.75-4.5-2.25-.75-.75 1.5-.75 3,1.5 2.25,0 1.5-1.5-7.5-3.75-3,0-1.5-.75 0-3 .75-1.5 1.5-1.5-1.5-.75-2.25-.75-5.25-1.5 1.5,0 1.5-.75 3.75,0 .75,.75 3,0 0-.75-1.5-1.5-.75-1.5-1.5,0-4.5-2.25-1.5,3-1.5,.75-.75,1.5 0-3 .75-.75 0-1.5-1.5-.75-3,0-1.5-.75 3-.75 2.25,0 .75,.75 .75-3-1.5-.75-2.25,0-2.25-.75-2.25,0 0,.75-.75,1.5-1.5,1.5-.75-.75 .75-1.5 0-2.25-4.5,0 2.25-1.5 2.25,0 1.5-1.5-.75-2.25-.75-.75-1.5,0-1.5-.75-4.5,0-1.5,.75-.75,.75 0-1.5-3,0-.75-.75 3-1.5 .75-.75 0-2.25-1.5-.75-3,0-.75,.75-1.5,0-1.5,.75-.75,.75-.75,1.5-.75-2.25 .75-2.25 0-5.25-1.5,0-2.25-.75-1.5,.75-2.25,0 0,1.5-.75,.75-1.5,0-1.5-1.5 .75-2.25 .75-1.5-1.5-1.5-3.75,0-2.25,.75-1.5,1.5-.75-1.5 0-1.5 .75-1.5-.75-1.5-5.25,0-1.5-.75 3-1.5 2.25-.75 1.5-.75-1.5-.75-2.25-.75-3.75,0 0,4.5-.75,.75-.75-3-1.5-1.5-2.25-.75-1.5-.75-1.5,0 1.5-.75 3.75-1.5-.75-1.5-1.5-.75-2.25-.75-1.5,.75-.75,.75 0,3-1.5,1.5-.75-1.5-.75-2.25-.75-1.5-2.25,.75-.75,0 .75-1.5 1.5,0 1.5-.75 0-1.5-4.5,0-1.5,.75 0,2.25-1.5-.75-.75-3.75-1.5-3.75-3.75-1.5-.75,1.5 4.5,5.25 3.75,6 9,10.5 5.25,4.5 4.5,5.25 5.25,4.5 9,10.5 4.5,4.5 4.5,5.25 7.5,12 3,5.25 3,6.75 2.25,6.75 4.5,12.75 2.25,13.5 .75,13.5-1.5,12.75-4.5,12-6,11.25-8.25,10.5-10.5,9.75 2.25,.75 1.5,2.25 1.5,1.5z"/>
</g>
<g>
<path fill="#c49a6b" d="m151.5,126h1.5v-.75h.75l-.75-1.5-3-1.5h-1.5l1.5,.75v.75l1.5,1.5v.75zm6,6l3-1.5h1.5l1.5-1.5-3-1.5h-2.25l-1.5,.75-.75,.75v1.5l.75,.75v.75h.75m63,150.75l1.5-2.25-1.5-4.5-1.5-3 1.5,9.75m-33,8.25v3l.75,2.25 1.5,1.5v-1.5l-.75-2.25-1.5-3m0-2.25l9-9 6.75-10.5 5.25-11.25 3-11.25 1.5-12.75-.75-12-2.25-12.75-4.5-12-3.75-9.75-4.5-9-5.25-8.25-6-7.5-6.75-8.25-6.75-6.75-6.75-7.5-7.5-7.5 1.5,.75 1.5-.75h2.25l.75,1.5-.75,1.5v1.5l.75,1.5 1.5-1.5 2.25-.75h4.5l.75,1.5-.75,2.25v1.5l.75,2.25h1.5l.75-.75v-2.25h6l1.5,.75 .75,2.25-1.5,4.5 .75,2.25 1.5-1.5 3-1.5h5.25v2.25l-.75,.75-1.5,.75-1.5,1.5h3.75v1.5l.75-.75 1.5-.75h3l3,1.5h2.25l.75,2.25-1.5,1.5-4.5,1.5 1.5,.75h3v4.5l.75-.75 .75-1.5 .75-.75v-1.5l2.25,.75h2.25l4.5,1.5-.75,2.25h-1.5l-2.25-.75-3,.75 3,1.5h3v1.5l-.75,1.5v2.25l2.25-2.25 .75-1.5 .75-.75 1.5,.75h1.5l2.25,.75 1.5,.75v.75l1.5,.75v2.25h-1.5l-1.5-.75h-6l-1.5,.75 5.25,1.5h2.25l1.5,.75v.75l-1.5,1.5-.75,1.5v3h3l3,1.5h1.5l4.5,2.25-1.5,1.5h-2.25l-3-.75h-1.5l1.5,1.5h1.5l1.5,.75 .75,1.5-1.5,1.5-1.5,.75-.75,.75h2.25l3-1.5 2.25-.75 5.25,3.75v1.5l-.75,.75h-1.5l-1.5-.75-2.25-.75-1.5-.75h-2.25l.75,2.25h2.25l3,.75 2.25,2.25-1.5,.75-3,3v1.5h1.5l1.5-.75 .75,.75h1.5l1.5,1.5 1.5,.75 2.25,2.25-1.5,.75-1.5,1.5h-6l3,1.5 1.5,1.5 3,1.5 2.25,2.25 .75,1.5-1.5,2.25-1.5-.75-1.5-1.5h-1.5l.75,1.5 .75,.75h1.5v1.5l-2.25,.75-4.5,2.25h3.75l3-1.5h3l.75,1.5 .75,3h-1.5 .75v.75l-.75,.75-1.5,.75-1.5-.75-.75-.75-.75-1.5-3-1.5-1.5,.75 5.25,4.5-3.75,1.5 .75,.75h3l2.25-.75v.75l1.5,1.5v.75-.75h-1.5l3.75,3.75h-2.25l-1.5-.75-3-3-3-1.5-.75-.75-1.5-.75 1.5,3 3,2.25 2.25,2.25 1.5,3-3-3-1.5-.75-.75-.75 3.75,5.25-3-.75-1.5-1.5-2.25-1.5h-2.25l3.75,3.75h-4.5l2.25,1.5 4.5,1.5 1.5,1.5h-1.5l-.75,.75h2.25v.75h1.5v.75l-.75,.75h-1.5l-1.5-1.5-.75-1.5-3-1.5v.75l.75,.75 1.5,3-6.75-6.75-2.25-1.5 6.75,9h-4.5l-.75-.75h-.75l-.75-.75h-.75l.75,.75h.75v2.25h.75l3,3 1.5,2.25 1.5,1.5h-2.25l-1.5-1.5-.75-1.5-1.5-1.5-.75-1.5-3-3-1.5-.75 2.25,4.5 2.25,3 1.5,2.25-3.75-3h-.75l1.5,2.25h-.75l-1.5-2.25v1.5l-4.5-1.5-1.5-1.5-1.5-.75 .75,1.5 1.5,1.5 1.5,2.25 1.5,1.5 .75,1.5 1.5,1.5 .75,2.25 .75,1.5v1.5l-9.75-8.25h-1.5l2.25,2.25-3-2.25v1.5l1.5,1.5 3,4.5-.75,.75v.75-1.5l-1.5,1.5v3l-.75-1.5-1.5-.75h-1.5l.75,1.5 .75,.75 1.5,3-7.5-7.5 .75,2.25 1.5,3 3,3.75 1.5,3.75-.75,.75v.75l-.75,.75-2.25-2.25v-1.5l-.75-1.5-1.5-6.75-.75,1.5-.75,.75v1.5l-.75,.75v1.5h-.75l-.75-1.5-1.5-1.5h-1.5l2.25,3 .75,2.25 .75,1.5-.75,2.25-3-3.75-.75,1.5 2.25,2.25v.75h.75v1.5l-.75,.75v.75l-.75,.75-1.5-2.25-2.25-4.5-3-.75 .75,.75v.75l.75,.75v.75l-.75,.75v.75h-.75v3l-.75,.75-3.75-4.5-.75,.75 .75,1.5 2.25,2.25v.75l.75,1.5-.75,.75-3.75-3.75h-1.5v-1.5m-3,6v-.75l.75-1.5-.75-.75v-.75h.75l.75-.75h-.75l-.75,1.5h-1.5l-.75,1.5h.75l1.5,1.5"/>
<path fill="#a97c50" d="m198.75,297-.75-1.5 0-3-1.5-.75 0,1.5-1.5,3 0,1.5z"/>
<path fill="#c49a6b" d="m21.75,228.75 2.25-13.5 3.75-13.5 4.5-12 5.25-12 6.75-12 6.75-11.25 7.5-11.25 8.25-10.5-13.5,9.75 1.5,4.5-2.25,.75-2.25,0-1.5,.75 0,2.25 1.5,1.5 0,.75 .75,.75-2.25,0-2.25-3-1.5-1.5-2.25,1.5-.75,.75-1.5,.75 0,2.25 .75,.75 2.25,0 1.5,0 1.5,.75-3.75,1.5 2.25,3-2.25,0-1.5-.75-.75-1.5-1.5,0-.75-.75-1.5,0-1.5,.75 0,1.5 .75,1.5 1.5,1.5 1.5-.75 .75,.75 0,.75-.75,.75-.75,0 1.5,2.25-.75-.75-1.5,0-.75-.75-5.25,0-1.5,.75 .75,2.25 .75,1.5 1.5,2.25 1.5,1.5-2.25,0-2.25-2.25-1.5-2.25-2.25-2.25-.75,1.5-.75,.75-1.5,3 1.5,.75 6,0-.75,.75-1.5,0-3,1.5 1.5,3 1.5,1.5 1.5,.75-1.5,0-1.5-.75-3-3-3-1.5-.75,0-1.5,.75 1.5,5.25 3.75,0 1.5-.75 1.5,0-.75,0-1.5,1.5-3,1.5 3.75,3.75-1.5,0-1.5-.75-2.25-2.25-1.5,0-1.5-.75-1.5,0-1.5,.75-.75,2.25 0,.75 .75,.75 1.5,.75 1.5-.75 6,0-1.5,1.5-1.5,.75-2.25,0-1.5,.75 .75,1.5 3,1.5 .75,1.5-2.25,0-1.5,.75-1.5,0-.75,.75-1.5,.75-1.5,0-1.5,.75 1.5,1.5 1.5,.75 3,.75 1.5,1.5-3,0-1.5,.75-1.5,1.5-1.5,.75-.75,1.5-1.5,0 1.5,2.25 2.25,.75 3-1.5 0,.75-1.5,.75 0,.75 .75,.75 .75,0 .75,.75-.75,.75-1.5,0-.75-.75-.75,0-3,2.25-2.25,1.5-1.5,1.5-1.5,.75 0,.75 1.5,1.5 1.5,.75 4.5,.75 2.25-2.25 .75,3 .75-.75 0,.75-1.5,0-1.5,1.5-1.5,.75-2.25,2.25-.75,2.25-1.5,3 2.25,.75 2.25-.75 1.5-1.5 1.5-2.25 0,2.25-1.5,.75 0,1.5 5.25,.75-.75,.75-4.5,0-1.5,.75-.75,.75-1.5,.75 0,3.75-.75,1.5 1.5,.75 3,0 3-1.5 .75-.75 1.5,0 1.5,1.5-3.75,1.5-2.25,3-.75,4.5-.75,3.75 2.25,0 2.25-.75 .75-1.5 1.5-1.5 0,2.25 1.5,0 4.5-1.5 1.5-.75-.75,1.5-1.5,1.5-2.25,.75-1.5,1.5-2.25,1.5-.75,1.5 0,1.5 2.25,2.25 0,1.5 1.5-.75 .75,0 .75-.75 .75-1.5 0-4.5 .75-1.5 .75,.75 0,3.75 .75,1.5 .75,0 1.5-1.5 0,1.5-1.5,4.5 .75,3 4.5,3-.75-6-.75-5.25-2.25-5.25-4.5-15.75-.75-6z"/>
</g>
<g fill="#a97c50">
<path d="m205.5,294.75-.75-1.5-1.5,2.25 1.5,0z"/>
<path d="m210.75,288-2.25-4.5-1.5,3 0,5.25 1.5,2.25 1.5-.75 1.5-1.5 0-1.5z"/>
<path d="m218.25,284.25-2.25-3 0,2.25-.75,2.25 0,5.25 2.25-.75 .75-1.5 .75-2.25z"/>
<path d="m12,244.5-.75,0-1.5,.75-.75,0-.75-.75 .75,5.25 .75-1.5 1.5-.75 .75-1.5z"/>
<path d="m230.25,266.25 4.5,8.25 2.25-3z"/>
<path d="m8.25,235.5-.75-.75-2.25,0 .75,2.25 .75-.75 1.5,0z"/>
<path d="m241.5,260.25-2.25-.75-2.25,0-1.5-.75-2.25-.75 6.75,10.5 .75-2.25 1.5-1.5 0-2.25z"/>
<path d="m245.25,261 0-.75-1.5,0 0,.75 .75,.75z"/>
<path d="m9,224.25-5.25-1.5 0,5.25 4.5-2.25z"/>
<path d="m248.25,251.25h1.5v1.5h-1.5z"/>
<path d="m9.75,211.5-3-1.5-.75-.75-1.5,1.5-.75,3.75 1.5-.75 1.5,0 1.5-1.5z"/>
<path d="m253.5,243-2.25,0 1.5,3 0-1.5 .75-.75z"/>
<path d="m12,202.5-.75-.75-3-1.5-1.5,0-.75,5.25 1.5-.75 2.25-.75 1.5,0z"/>
<path d="m256.5,228.75-.75,.75-.75,0 0,.75 .75,.75 .75,0z"/>
<path d="m16.5,194.25-.75-1.5-.75-.75-1.5-.75-2.25,0-1.5,.75-.75,.75-.75,1.5 0,2.25z"/>
<path d="m256.5,219-1.5,.75 2.25,2.25 0-3z"/>
<path d="m255,208.5-.75-.75-3,1.5-.75,.75 5.25,3.75 0-3.75z"/>
<path d="m18,180-1.5-.75 0,1.5 .75-.75z"/>
<path d="m254.25,204 0-2.25-3-3-1.5-2.25-3.75,3 2.25,.75 1.5,1.5 2.25,.75z"/>
<path d="m34.5,162.75-.75,0 0-1.5-.75,0-.75-.75-1.5,1.5 0,.75z"/>
<path d="m247.5,186.75-1.5-1.5 0-.75-.75-.75-1.5,.75 0,.75 1.5,.75 .75,.75z"/>
<path d="m242.25,178.5-1.5-2.25-3-3-2.25-.75-.75,.75-.75,1.5-1.5,1.5 .75,.75 1.5,0 .75,.75 3.75,0 1.5,.75z"/>
<path d="m52.5,146.25-1.5-.75-.75,0-1.5,1.5 .75-.75z"/>
<path d="m221.25,154.5-1.5-.75-1.5-1.5-.75-1.5-1.5,3.75z"/>
<path d="m210.75,146.25-.75-.75-.75-1.5-3,0-.75,2.25z"/>
<path d="m201.75,141-.75-.75-1.5-.75-1.5-1.5-1.5-.75-.75,4.5z"/>
<path d="m191.25,134.25-3-1.5-2.25,0 0,2.25z"/>
<path d="m182.25,129.75-.75-.75-1.5-.75-1.5,0-1.5,.75 0,1.5 2.25,0 1.5-.75z"/>
<path d="m102,93-3,0-.75-.75 2.25-1.5 2.25,0 2.25-.75 .75-2.25-2.25,0-1.5-.75-.75-.75 1.5-1.5 3,0 1.5-.75 0-3-1.5-.75-1.5,.75-1.5-.75-.75-1.5 2.25-.75 2.25,0 1.5-.75 .75-1.5-6.75-2.25 1.5-1.5 3,0 2.25-.75 0-3-1.5-.75-3,0-1.5-.75 3-1.5 3,0 0-2.25-6-1.5 4.5-2.25 1.5-1.5-1.5,0-1.5-.75-1.5,0-.75-.75 .75-.75 4.5,0 0-3-1.5-1.5-2.25-1.5-1.5-.75 5.25-1.5-.75-1.5-1.5-1.5-1.5-.75-3,0 0-.75 2.25,0 3.75-1.5 0-1.5-3.75-3.75 2.25-.75 .75-.75-.75,0-1.5-.75-6,0-2.25-.75 .75,16.5 .75,17.25-.75,16.5-1.5,17.25 2.25-1.5 1.5-2.25 .75-1.5z"/>
<path d="m88.5,49.5-3,0 1.5-1.5 .75,0-1.5-2.25-3-3-2.25-.75-1.5-1.5-4.5-1.5-2.25-1.5-6,5.25 1.5,1.5 2.25,0 2.25-1.5 2.25-2.25 0,1.5-2.25,2.25-1.5,.75-.75,.75-.75,1.5 2.25,2.25 2.25,0 1.5-1.5 1.5-.75 1.5-.75-.75,2.25-3.75,3.75 1.5,2.25 9.75-5.25 0,1.5-.75,1.5-3,1.5-2.25,2.25-1.5,.75 0,2.25 1.5,2.25 9.75-7.5-.75,3-2.25,2.25-3,2.25-2.25,2.25 0,.75 .75,0 0,1.5 3-.75 4.5-3 1.5-1.5-.75,2.25-1.5,2.25-2.25,2.25-3,1.5 2.25,3 1.5-.75 3-3 2.25,0-2.25,2.25-3,4.5 .75,2.25 5.25-3 0,1.5-.75,1.5-3,3 3,13.5 .75-5.25 .75-6 0-6 .75-6 0-6-.75-5.25-1.5-5.25z"/>
</g>
<g>
<path fill="#fcbe8e" d="m64.5,45.75-2.25-3-2.25-2.25-2.25-3-6-4.5-2.25-2.25-3-1.5-3-2.25 0,1.5-.75,1.5 0,1.5-.75,1.5 2.25,.75 4.5,0 .75,1.5-1.5,.75-6,0-1.5,1.5 .75,2.25 1.5,.75 4.5-1.5 2.25,.75-4.5,2.25-.75,0-3,1.5-.75,.75 0,1.5 5.25,0 1.5-.75 2.25,0-.75,1.5-2.25,.75-1.5,0-2.25,.75-3,1.5-.75,1.5 .75,2.25 1.5,0 2.25-.75 1.5-.75 1.5,0-.75,1.5-6,3-.75,1.5 0,1.5 .75,2.25 4.5-2.25 .75,0-3,3.75-1.5,4.5 0,3.75 .75,3 2.25-3 9-15 2.25-3 3-3 4.5-1.5z"/>
<path fill="#c49a6b" d="m48.75,30.75-.75,0 0,1.5-.75,0 0,1.5 1.5,0 .75,.75 1.5,0 2.25,.75 1.5,0 0,1.5-.75,.75-6.75,0-.75,.75 0,.75 1.5,0 .75,.75 .75,0-.75,.75-1.5,0 0,.75 3.75,0 1.5-.75 2.25,.75-2.25,1.5-4.5,1.5-2.25,1.5 1.5-.75 2.25,0-2.25,2.25-.75,0 4.5,0 2.25-.75 1.5,0-2.25,2.25-1.5,0-1.5,.75-1.5,0-1.5,.75-1.5,1.5 1.5,0 0,.75-.75,0 0,.75-.75,0 0,1.5 2.25,0 1.5-.75 2.25-.75 1.5,0-6.75,4.5-.75,1.5-.75,0 0,1.5 .75,.75 0,.75 .75,0 1.5-.75 .75,0 1.5-.75 .75-1.5 1.5-2.25 .75-2.25 2.25-1.5 3-3 4.5-1.5 2.25-3-3-4.5-2.25-2.25-4.5-3-3.75-3.75z"/>
</g>
<g fill="#a97c50">
<path d="m116.25,45.75 0-.75-.75-.75-.75,0-.75-.75 1.5-.75 .75-.75 .75-1.5 0-3-.75,0-3-1.5 1.5-1.5 1.5-.75 1.5,0 0-2.25-1.5-.75-1.5,.75-1.5-.75 0-1.5 3-.75 1.5-1.5 0-1.5-4.5-1.5 .75-1.5 2.25-.75 1.5-.75 0-2.25-1.5-.75-2.25,0 0-1.5 .75-1.5 1.5-1.5 .75-2.25 0-2.25-9,4.5 2.25,15.75 1.5,16.5 .75,16.5-.75,15.75z"/>
<path d="m121.5,48 2.25,0 2.25,.75 3,.75 1.5,0 1.5-2.25 0-1.5-.75-1.5-2.25-1.5-1.5,0-2.25-1.5-1.5-.75-.75-1.5 6.75,0 3,1.5 .75,0 .75-2.25-.75-2.25-3.75-3.75 .75-.75 1.5,.75 1.5,0 .75,1.5 .75-2.25 0-1.5-2.25-2.25-1.5-.75-.75-.75-.75-1.5 1.5-.75 3.75,1.5 0-3.75-2.25-1.5-1.5-1.5-.75,0 .75-.75 3,0 0-2.25-4.5-4.5 .75-.75 .75,0 1.5,1.5 0-2.25-.75-2.25-.75-.75-2.25-1.5-1.5,0-2.25-.75-1.5-.75-1.5,0 .75,15.75-1.5,17.25-.75,17.25-2.25,15.75 5.25-5.25 2.25-3 1.5-3 .75-3 0-3-2.25-2.25z"/>
<path d="m189,69-.75-.75-1.5,1.5-.75,0 1.5,2.25 2.25,2.25 3,2.25 1.5,1.5-2.25-4.5-2.25-3z"/>
<path d="m188.25,66.75-2.25-9-2.25-8.25-3-8.25-3-7.5-7.5-13.5-6-5.25-6.75-3.75-2.25,0-2.25,.75-3,1.5-3,.75-3.75,1.5-3,1.5-2.25,1.5-.75,1.5 .75,3 0,6-.75,6.75 0,3.75 1.5,0 .75-.75 .75-4.5 .75-3.75 .75-4.5 2.25-3 .75,3-1.5,3 0,3.75-.75,3 3.75-2.25 .75-4.5 .75-3.75 2.25-4.5 0,6-1.5,7.5 3-3.75 2.25-3.75 .75-4.5 1.5-3.75 .75,2.25-.75,5.25-2.25,5.25-.75,3 .75,.75 1.5,0 3.75-3.75 1.5-2.25 0-1.5 .75-2.25 2.25-1.5 0,.75 1.5,.75-1.5,2.25-2.25,3.75-1.5,3-2.25,3.75 .75,.75 1.5,0 .75-1.5 5.25-5.25 1.5-3 0,3.75-4.5,6-1.5,3.75 3,0 1.5-1.5 1.5-.75 3-3 2.25-1.5 1.5,0-6.75,6.75-.75,1.5-3,3 3.75,0 3-1.5 3.75-3.75 1.5-.75-.75,2.25-.75,1.5-2.25,1.5-1.5,.75-1.5,1.5-1.5,.75 0,1.5 .75,1.5 10.5-5.25-1.5,3-3,2.25-2.25,1.5 0,3 9.75-6-.75,3-3.75,3.75-3,1.5 1.5,1.5 6-3 .75-.75 1.5-.75 0,1.5-2.25,2.25-3,1.5-.75,1.5 0,.75 .75,1.5 1.5-.75 1.5-1.5 2.25-.75 1.5-.75 0,1.5-4.5,4.5 1.5,1.5 2.25-.75 1.5-.75z"/>
</g>
<g>
<path fill="#fcbe8e" d="m155.25,11.25h2.25l6,3.75 5.25,3.75 4.5,6 3,6 3,6.75 2.25,6.75 4.5,15-1.5,1.5-1.5,.75h-1.5l-.75-.75 .75-1.5 1.5-.75 .75-.75v-1.5h.75v-2.25l-2.25,.75-1.5,1.5-3,1.5v-.75l1.5-.75 2.25-4.5 .75-.75v-.75l.75-.75v-.75l-2.25,.75-2.25,1.5-3,1.5h-1.5l3-1.5 1.5-3 .75-.75 .75-1.5 .75-.75v-1.5l-10.5,6v-1.5h.75v-.75l1.5-1.5h1.5v-1.5l1.5-.75 2.25-2.25v-1.5l-10.5,6v-1.5h-.75v-.75l1.5-.75 .75-1.5 1.5-.75 .75-1.5 1.5-.75 1.5-1.5v-1.5l.75-1.5-1.5,.75-.75,1.5-2.25,.75-1.5,1.5-3,1.5h-.75l-1.5-.75 .75-1.5 1.5-.75 3-3 .75-1.5 3.75-3.75-4.5,2.25-1.5,1.5v-3l-1.5,3-1.5,1.5-.75,1.5h-3l1.5-3.75 2.25-3 1.5-3 1.5-3.75-2.25,2.25-.75,1.5-.75-.75v-.75l-2.25,1.5-.75,1.5v2.25l-1.5,2.25h-1.5v-.75h-.75l2.25-3.75 1.5-3 2.25-3.75 1.5-3h-.75v-.75l-.75-.75-2.25,2.25v2.25l-.75,1.5-1.5,2.25-1.5,1.5h-.75l-.75,.75 1.5-2.25v-4.5l-.75-.75-2.25,6.75-.75,1.5h-.75l1.5-3 1.5-5.25 .75-4.5-.75-3zm-6,2.25v6.75l-.75,2.25 1.5-1.5v3l1.5-3 2.25-3 .75-3 .75-3.75-1.5,.75h-.75l-1.5,.75-2.25,.75m-6,2.25l4.5-2.25h1.5l-2.25,3.75v3.75l-1.5,3.75-1.5,3v-1.5l.75-.75v-1.5l-.75-.75-.75,.75v.75l-.75,.75-.75,1.5 1.5-6v-5.25m-5.25,16.5v-.75h.75v-.75l2.25-11.25 1.5-3-1.5,.75-1.5,1.5-1.5,.75-.75,.75 .75,1.5v10.5"/>
</g>
<g fill="#a97c50">
<path d="m135.75,57.75 .75-3 0-1.5-2.25,0-3,.75 .75,.75 .75,1.5z"/>
<path d="m71.25,37.5-2.25-2.25-2.25,0-.75,1.5-1.5,.75-.75,1.5 .75,.75 2.25,0z"/>
<path d="m66,34.5-2.25-2.25-1.5-.75-1.5,0-1.5,2.25 .75,1.5 2.25,.75 1.5-.75z"/>
<path d="m52.5,27 3.75,3.75 2.25-.75z"/>
</g>
</g>
</svg>
