<svg xmlns="http://www.w3.org/2000/svg" viewBox="0 0 425.141 394.143" xmlns:xlink="http://www.w3.org/1999/xlink" enable-background="new 0 0 425.141 394.143">
<g fill-rule="evenodd">
<path d="m86.372,14.481c3.949,5.691-6.274,5.207-3.148,10.074 4.12-.604 5.031-7.416 10.074-5.038-.073,5.467-9.373,4.789-6.296,11.333 5.214-.323 5.497-8.664 11.333-6.295-1.164,4.922-7.738,4.435-7.556,10.704 5.732-.985 5.59-7.843 13.223-6.927-.013,5.445-6.468,4.446-8.186,8.186 .532,3.68-.829,5.467-3.148,6.297-7.395-4.359-10.209-13.297-15.74-19.519 2.883-3.206 4.723-7.452 9.446-8.815z"/>
<path d="m109.04,34c-.146,5.73-8.208,3.544-8.186,9.444 4.499,4.716 6.931-5.729 10.704-3.778 .928,6.595-7.648,3.686-5.667,11.333-6.798,4.617-5.849-5.274-10.704-6.295 1.386-5.961 7.594-7.098 10.704-11.333 1.47-.203 2.43,.1 3.16,.629z"/>
<path d="m189,35.888v2.518c1.707-.391 1.566-2.63 3.778-2.518 .753,5.185-5.126,8.555-8.186,11.962-.918,1.6-1.198,3.839-3.778,3.777-1.663-4.129 2.896-7.063 1.89-12.592 2.02-1.137 4.24-2.061 6.3-3.147z"/>
<path d="m317.44,108.92c.182-3.376 3.645-3.43 5.667-5.037 3.162-2.514 5.561-5.671 7.555-9.444 1.018-.177 1.084,.595 1.89,.629 10.305-4.885 15.554-24.475 8.185-35.888-2.239,.699-2.998,2.878-5.666,3.147-1.238,4.429-1.701,9.634-6.297,10.704-1.261-3.628 3.232-5.66 3.147-10.074-.187-1.281-1.261-1.678-1.889-2.519-4.588-.18-5.193,3.619-10.074,3.147 2.528-6.075 10.95-6.261 14.482-11.333-2.15-2.097-6.317,1.734-8.186,0 .788-3.619 5.63-3.184 8.186-5.036 3.144,.215 3.216,3.5 7.555,2.518 3.662,3.894 2.084,13.028 5.667,17-.383,13.888-5.283,23.258-11.962,30.852-1.483-.014-1.854,1.084-3.779,.63-4.19,3.847-6.57,12.697-14.49,10.707z"/>
<path d="m162.56,47.851h1.889c-.82,7.378 1.456,17.49-.63,22.037-4.921-1.064-2.092-8.264-1.889-12.592 .143-3.033-.533-5.26 0-7.556-.18-1.017 .59-1.085 .63-1.889z"/>
<path d="m144.93,66.111c1.018-.179 1.084,.595 1.889,.629-.767,5.876 1.671,13.808 3.779,18.888-1.942,1.758-3.847-.341-5.038-1.259-2.001,3.04 3.068,5.928 0,8.186-5.462-.899-5.409-11.646-3.777-15.74 2.594-.076 1.37,3.667 3.147,4.406 1.42-3.785-3.11-11.463 0-15.11z"/>
<path d="m106.52,93.183c-1.113,.566-1.838,1.52-3.147,1.889-2.291-1.696-3.515-4.46-7.556-4.406 .51-7.478-5.654-13.053-12.592-15.11 2.427,3.394 9.177,6.285 10.074,11.333 .509,2.863-1.189,5.825-2.519,8.184-5.758-1.938-10.951,4.154-16.37,3.779-2.21-.155-2.895-2.336-5.667-1.889-1.349-5.781-6.14-8.542-10.704-11.965-2.063-1.546-6.479-3.083-4.408-6.925 3.123-.813 3.094,1.524 5.667,1.26 1.288-.812 .665-3.533 2.519-3.777 10.658,1.305 11.979,11.946 18.888,16.999 3.798-7.519-12.171-9.104-9.443-17.631 5.004-.386 5.166,4.069 8.814,5.038 .345-.915-.735-3.255 .629-3.147-12.475-10.605-34.73-.766-41.554,9.444-4.586,.871-6,4.913-10.074,6.296-1.038,5.095-6.738,9.736-8.815,15.11-.577,1.492 .162,3.112-.63,4.408-1.661,2.723-4.91,5.242-8.815,5.036 .174-3.604 3.968-3.588 5.667-5.666 1.737-8.127 7.147-12.581 9.444-20.148 2.929-2.317 6.589-3.904 8.186-7.556 1.46,.202 2.417-.101 3.147-.63 8.835-9.234 24.09-17.718 40.926-13.222 1.016,.873 1.994,1.785 3.148,2.519 1.987,.31 2.223-1.135 4.407-.63 5.802,3.644 11.429,7.462 13.852,14.482 2.929,1.69 5.719,3.525 6.929,6.928zm-37.148-3.777c1.207,2.36 2.241,4.896 5.667,5.037-2.942-6.501-7.736-11.152-13.851-14.481-.489,.141-1.242,.018-1.259,.63 3.775,2.309 6.636,5.535 9.443,8.814zm19.518,0c-1.88-3.365-4.401-6.093-7.555-8.186 2.308,2.94 2.011,8.483 7.555,8.186z"/>
<path d="m117.85,93.813c1.838,2.255 2.491,6.074 0,8.186-3.316-.461-3.009-4.546-5.037-6.297h-5.037c.257-3.939 4.979-3.416 8.815-3.777 .684-.156 .427-1.251 1.259-1.259 .269-5.517-4.131-6.362-6.296-9.445 3.882-8.805 12.628,2.049 10.704,10.704-.588,.462-.954,1.146-1.259,1.889-1.18,1.178-1.56,.067-3.13-.002z"/>
<path d="m62.446,96.962c-3.35,.2-3.262-3.036-5.037-4.408-4.628-2.298-8.646-5.205-11.963-8.815 1.213-.256 .497-2.44 2.518-1.889 3.669,.379 6.822,4.018 9.445,6.297 2.336,2.029 7.258,4.513 5.037,8.815z"/>
<path d="m323.11,83.739c.561,.279 1.125,.554 1.259,1.259-2.753,5.853-6.013,11.199-13.222,12.594 2.4-5.378 9.46-7.471 11.96-13.853z"/>
<path d="m329.41,84.998c.375,11.517-8.852,22.188-18.89,23.298-1.51-2.642 2.312-4.615 5.038-5.038 7.63-3.07 10.02-11.385 13.85-18.262z"/>
<path d="m56.779,100.11c-5.688-3.757-10.03-8.859-17-11.333-.178-1.018 .595-1.084 .629-1.889 4.176-2.142 7.974,1.589 11.333,4.406 2.747,2.304 7.924,5.207 5.038,8.816z"/>
<path d="m52.372,103.26c-5.884-.466-12.407-5.603-17-9.444 .333-.507 .657-1.022 .63-1.889 .506-.333 1.022-.656 1.888-.63 2.671,.059 3.25,2.208 4.408,3.777 .978-.641 2.747,.033 3.778,.63 2.457,1.422 5.801,4.736 6.296,7.556z"/>
<path d="m45.446,106.4c-5.107,.412-10.06-4.572-14.481-6.925-.178-1.018 .596-1.084 .629-1.889 3.36-.883 6.801,1.34 10.074,3.777 1.639,1.23 4.752,2.8 3.778,5.04z"/>
<path d="m41.039,108.3c-3.208,6.396-13.734,7.496-19.519,3.147 1.942-5.977 8.019,1.748 12.593-1.259-1.632-2.985-5.882-3.353-8.186-5.668-.054-.893-.104-1.782 .629-1.889 5.254-1.11 10.048,5.87 14.483,5.67z"/>
<path d="m98.335,129.7h1.889c2.362,5.612 5.182,10.769 10.074,13.852-.369,1.31-1.323,2.035-1.889,3.147-6.16-2.236-7.866-8.924-10.704-14.481-1.256-1.28 .287-1.24 .639-2.52z"/>
<path d="m41.039,130.96c3.93,1.316 4.374,6.119 6.926,8.813-5.034,2.17-8.046-2.76-6.926-8.81z"/>
<path d="m360.26,134.74c-3.178,1.833-7.959-.923-12.593,1.259-4.23-6.77 13.26-7.08 12.59-1.26z"/>
<path d="m44.187,141.04c-.188,1.281-1.261,1.677-1.889,2.519-3.954-.505-6.923-7.102-4.408-10.074 3.206,1.4 2.346,6.88 6.297,7.55z"/>
<path d="m32.854,136.63c2.94,1.677 3.938,5.297 6.296,7.556-.612,.018-.489,.771-.63,1.259-5.347,.64-6.898-4.87-5.666-8.82z"/>
<path d="m95.187,137.89h1.889c2.237,4.899 6.191,8.08 9.444,11.963-4.482,6.172-8.724-6.346-11.963-9.443-.267-1.32 .431-1.67 .63-2.52z"/>
<path d="m29.076,142.29h1.889c-1.09,4.448 3.285,3.431 3.778,6.296 .411,2.51-2.394,1.803-4.408,1.889-1.021-1.94-2.935-5.56-1.259-8.19z"/>
<path d="m365.92,144.81c-1.295,3.803-13.417,4.094-14.482,.629 1.31-2.64 11.11-2.65 14.48-.63z"/>
<path d="m92.038,144.18c3.46,1.576 4.012,6.062 6.926,8.186 2.297-.408 3.354,.423 4.408,1.259-.907,3.92-6.743,2.911-8.815,5.666-3.368-.83-4.936-3.458-6.925-5.666-.164-1.843 1.423-1.934 1.259-3.778 2.952,.195 2.547,3.75 5.037,4.408 1.057-2.6-5.187-6.94-1.888-10.08z"/>
<path d="m25.928,147.96c2.499,1.069 3.606,3.529 4.407,6.297-.827,.223-.99,1.107-1.888,1.259-3.007-.44-5.014-5.42-2.519-7.56z"/>
<path d="m158.15,147.96c.562,.279 1.127,.554 1.259,1.259-1.609,5.992-13.198,5.207-19.517,4.408 1.31-7.91 13.4-.02 18.26-5.67z"/>
<path d="m365.92,149.85c.89,4.774-8.373,3.594-10.074,1.89 .01-5.29 6.71-2.19 10.07-1.89z"/>
<path d="m160.67,154.89c-1.172,6.384-10.529,4.583-17,5.665-.208-7.133 11.679-2.172 14.48-6.295 1.31-.27 1.67,.43 2.52,.63z"/>
<path d="m102.74,159.29v2.52c-.744,.725-2.226,.712-3.777,.63-.002,2.1 2.048,2.148 1.889,4.406-2.151,1.837-3.985-.677-5.667-1.259-.521-1.644 1.904-3.455 0-4.408 .788-2.17 5.297-3.19 7.557-1.89z"/>
<path d="m156.89,161.18c.88,5.002-6.24,4.91-9.445,3.779 .32-4.09 5.77-3.05 9.45-3.78z"/>
<path d="m163.82,163.7c.363,1.316 1.561,1.797 1.259,3.777-2.563,1.273-7.712,1.41-10.703,1.259-.257-1.516 1.15-1.367 .629-3.147 3.39-.17 4.41-2.72 8.81-1.89z"/>
<path d="m308,173.15c-6.127,1.842-9.082-4.706-15.74-4.408v-2.518c6.8-1.69 12.87,2.61 15.74,6.93z"/>
<path d="m125.41,169.37h1.259c2.417,.766 2.276,4.464 2.519,6.297 1.185,8.975-1.731,18.309-3.778,25.813-1.823-2.479 .345-6.349 1.259-8.185 .91-7.46-2.52-16.45-1.26-23.93z"/>
<path d="m166.33,171.89c-.914,1.515-5.289,1.808-6.927,.631-.2-3.35 6.91-4.73 6.93-.63z"/>
<path d="m97.705,175.04c-2.936,.419-4.045-.992-6.297-1.259-1.274-6.48 9.362-2.98 6.297,1.26z"/>
<path d="m131.08,170c1.016-.177 1.084,.595 1.889,.629 .214,6.188 2.708,11.906 3.147,18.26 .562,8.089-2.75,15.216-3.777,22.666-1.827,4.093-5.32,8.342-7.555,12.593-1.454,2.766-1.157,8.157-5.667,8.186-1.189-3.382 2.244-6.21 3.777-8.815 4.238-7.194 10.18-18.269 10.704-28.962 .42-8.5-4.28-15.37-2.51-24.56z"/>
<path d="m138.63,173.15c1.995,2.718 2.993,7.057 3.148,10.074 .372,7.324-.977,17.286-2.518,23.926-.488,2.1-.68,4.457-1.259,6.295-2.111,6.694-7.556,10.63-6.297,18.26-3.464,1.993-3.768,7.146-8.815,7.556 1.406-1.238-1.335-3.171-1.259-4.408 .104-1.691 4.065-4.152 6.296-7.554 1.79-2.729 4.464-8.511 5.667-12.594 .56-1.898 .186-3.554 .629-5.037 .559-1.863 2.163-3.346 2.518-5.036 .672-3.191-.328-6.961 0-10.074 .518-4.893 3.02-12.928-1.259-18.889-.707-.986 1.047-1.389 1.259-2.519h1.89z"/>
<path d="m305.48,178.81c-4.309,1.444-8.278-2.534-13.222-2.518 1.73-5.41 12.85-2.7 13.22,2.52z"/>
<path d="m166.33,176.29c-.661,1.895-1.812,2.851-3.777,1.889-.73-3.49 2.63-3.58 3.78-1.89z"/>
<path d="m166.96,180.07c-.079,1.13 .771,1.329 .63,2.519-.743,.726-2.225,.713-3.777,.631-.08-2.18 .55-3.66 3.15-3.15z"/>
<path d="m145.56,186.37c1.018-.178 1.083,.596 1.888,.63-.56,6.365-2.061,11.791-4.407,16.369-2.267-.185-1.327-3.235-1.259-4.406 .197-3.422 2.321-8.347 3.147-10.704-.18-1.02 .59-1.09 .63-1.89z"/>
<path d="m147.44,192.66h1.89c1.559,19.2-9.16,31.549-15.741,44.704-5.423,3.844-8.758,13.023-15.741,13.222 2.125-4.944 7.544-6.776 10.704-10.703 2.912-3.618 4.225-7.996 7.555-11.333-1.559-8.987 6.762-13.271 5.667-22.037 1.324-1.533 2.799,.558 3.777-.629 1.04-4 1-9.08 1.89-13.22z"/>
<path d="m132.33,193.92c-2,4.926-1.125,12.727-5.667,15.11-1.877-5.551 2.08-10.438 3.148-15.11h2.52z"/>
<path d="m304.22,199.59c.485,2.453-2.083,3.509-3.147,2.518v-1.889c1.52,.26 1.37-1.15 3.15-.63z"/>
<path d="m152.48,207.78c1.016-.179 1.084,.595 1.889,.629 1.63,3.703-1.043,8.057-2.518,10.704-1.264,.213-1.971-.13-1.889-1.26-3.135,7.752-7.061,15.507-11.963,22.037-3.476,4.629-6.805,9.9-11.963,12.592-1.019-3.312 2.594-5.454 4.408-7.556 3.785-4.386 7.508-8.719 10.704-14.48 1.112-2.007 2-3.731 3.147-6.297 .663-1.481 1.944-3.797 1.889-6.925 .774-.276 1.293-.807 1.259-1.889 .807-.874 2.974-.387 3.779-1.261-.11-2.62-.23-5.25 1.25-6.29z"/>
<path d="m149.33,230.44c-.057,5.19-5.246,5.247-4.408,11.333-3.133,3.848-7.24,9.895-11.962,10.074-.895-2.208 2.92-4.444 5.038-5.668 .877-2.479 3.053-3.662 4.407-5.665-1.24-4.69 2.35-9.16 6.92-10.06z"/>
<path d="m109.04,231.7c-.295,3.216-5.989,9.39-11.333,7.556 2.193-4.1 7.073-5.52 11.333-7.56z"/>
<path d="m105.26,248.07c.56-.279 1.126-.554 1.259-1.261 5.562,2.01 7.94-2.957 12.593-3.777-1.396,5.741-6.524,7.749-13.222,8.186-.53-.73-.83-1.69-.63-3.15z"/>
<path d="m131.7,252.48c-.585,3.339-5.021,5.693-8.186,4.407 .94-3.27 4.44-3.97 8.19-4.41z"/>
<path d="m285.33,263.81h1.889c3.703,17.905 2.778,43.771-6.925,54.148 1.551-7.101 4.99-14.064 5.666-22.037 .823-9.711 .264-20.087-1.259-29.593-.09-1.13 .77-1.33 .62-2.52z"/>
<path d="m291,265.07c1.016-.177 1.084,.595 1.889,.629 3.001,25.256 2.138,49.085-12.593,61.704 1.424-6.248 6.391-10.393 8.815-17.001 1.161-3.166 2.041-7.745 2.518-11.333 1.305-9.82-1.207-20.751-1.259-32.11-.19-1.02 .58-1.08 .62-1.89z"/>
<path d="m297.3,271.37h1.889c.892,19.491 .817,43.114-10.072,52.889-.692-4.018 2.914-7.188 4.406-11.334 3.639-10.106 3.731-24.461 3.777-39.666-.01-.63-.01-1.26-.01-1.89z"/>
<path d="m263.3,279.55c1.018-.177 1.084,.595 1.889,.63-.312,7.455 .432,15.962-5.037,18.26-1.288-2.262 1.362-5.007 1.889-8.186 .65-3.91-.78-8.35 1.26-10.7z"/>
<path d="m41.039,296.55c-.042,1.695-1.439,3.025-2.518,1.889-.19-1.66 .872-2.06 2.518-1.89z"/>
<path d="m64.965,302.22c4.622,1.673 6.637,5.954 11.963,6.925-2.951,5.15-12.832-.57-11.963-6.92z"/>
<path d="m425.11,38.406c.335,4.531-1.954,6.439-5.036,7.556-1.433,5.074-5.634,7.377-7.556,11.963 5.436,9.096-2.99,17.046-6.927,22.666 5.033,1.379 15.956,2.484 11.963,8.814-3.275,.548-3.009-2.446-5.036-3.147-5.113-1.737-12.76-2.758-18.26-.631-.71-.969-1.808-1.548-2.518-2.519-15.295-1.023-25.323,3.221-32.741,10.074 1.593,2.301 4.377-.005 6.298-.629 5.449-1.773 14.066-6.947 20.146-7.557 1.73-.172 6.502-1.164 7.556,1.891-.233,3.673-3.529,2.1-5.666,1.259-3.032,.535-5.108,2.027-7.556,3.147 2.657,2.062 7.1-1.571 8.186,1.889-1.176,3.468-5.795,2.181-8.815,3.147-2.805,.899-5.452,2.987-8.186,4.409-2.747,1.429-6.433,2.266-7.556,5.036 3.619-.34 8.171-4.393 13.853-6.296 3.083-1.033 6.813-.748 10.074-1.889 2.872-1.006 5.232-3.239 7.555-3.778 1.869-.434 4.9-.658 6.927-.63 4.766,.069 13.054,.988 13.221,6.927-3.07,1.63-4.962-1.187-6.924-2.519-8.825-1.726-17.816,.232-22.668,4.407-4.65,.177-9.692-.04-10.073,4.406 3.995,1.296 11.409-5.552 16.37-1.259-.911,3.708-8.27,.966-10.074,3.778 9.386,1.17 20.042-5.498 30.852-3.148 1.797,.391 4.674,.902 5.036,3.778-.612,.018-.487,.771-.63,1.259-3.05,1.819-4.976-1.01-7.554-1.259-10.72-1.036-21.299,5.215-32.111,3.147 1.891,8.415 2.08,16.301 13.852,15.11 2.182-.219 5.123-.653 7.556-1.259 8.361-2.078 15.233-10.075 20.148-7.555 .141,3.918-2.807,4.748-5.667,5.666 .582,4.323 3.761-1.074 5.037,.63 1.479,2.791-1.177,6.188-1.89,8.814 4.147-.605 8.215,1.859 8.186,5.036-.043,4.464-8.08,6.383-10.074,9.445-.737,5.06-2.993,7.016-5.036,11.333-.984,2.078-1.335,5.193-2.52,6.926-4.149,6.07-14.187,7.233-12.593,19.519 2.608,1.801 9.33-.514 11.963,1.26 4.482-3.913 6.687-10.104 13.853-11.333 .866,.811 .623,2.734 .63,4.406-2.211,1.358-5.71,1.427-7.556,3.149 .454,1.923-.645,2.294-.63,3.777 1.604,1.08 4.057-3.639 6.297-.63 .481,3.001-2.147,2.891-3.779,3.777 .892,2.046 4.189,1.687 3.779,5.038-1.591,2.025-2.813,.502-5.038,0-1.8,6.584 5.917,.667 6.927,5.036-.377,3.611-4.177,3.799-6.297,5.667 .231,2.496-.578,6.033 .629,7.555 3.092-1.316 2.536-6.278 6.927-6.295 1.676,3.942 .278,9.807-5.038,8.814 .846,4.397-2.759,5.466-3.147,8.813-.792,6.84 6.567,11.155 4.408,16.371-4.268-.141-3.925-4.89-6.297-6.927-2.606,5.865 9.962,12.932 3.147,17.001-4.294-2.842-4.424-9.849-6.924-14.481-.875,4.877 .514,9.533 2.518,13.852 1.633,3.523 6.794,7.217 3.147,11.333-5.064-1.021-4.458-7.714-6.926-11.333-1.125,4.943 1.267,9.221 3.778,15.11 1.022,2.396 4.126,7.802 .63,8.186-2.313,.254-5.144-8.853-5.668-10.704-1.931-6.825-2.084-12.86-3.776-18.259-3.855,7.599 .517,15.238 1.888,22.036 .233,1.158-.321,2.852 0,3.779 1.157,3.329 5.742,5.838 3.148,9.444-4.524-.194-5.32-6.118-6.296-10.074-2.146-8.699-3.975-18.66-2.518-30.852-7.891,6.979-20.568,17.996-30.223,26.443-2.335-.446-2.703,1.076-5.038,.63-3.135,.657-4.064,5.397-7.554,3.778 1.016-9.053 4.048-17.169 5.036-25.186 .841-6.817 .907-9.211 4.408-14.481 2.21-3.33 4.739-7.545 7.554-9.444 5.871-3.962 13.267-8.012 19.52-11.333-4.187-2.378-7.099,.633-11.334,.63-4.512-.004-8.604-2.877-12.592-3.147-5.733-.392-9.767,3.033-15.112,4.406-.872,3.393 2.398,2.64 1.891,5.667-3.278,.855-2.504,1.965-3.149,5.036-4.716,1.63-9.552-1.103-11.333-4.406-5.424,.663-7.622,4.55-14.48,3.777-2.725,2.135-6.465,2.025-10.704,1.259-.748-3.476 2.007-3.449 1.26-6.925-3.938,4.456-3.71,13.08-8.815,16.369-3.558-1.059-2.939-6.295-5.036-8.814-7.624-.278-10.366,4.326-13.222,8.814-4.459,.409-6.412,1.228-6.927,3.777-.56,2.777 1.883,2.736 3.147,5.668 1.693,3.922 1.474,7.267 1.26,10.073 23.201,1.553 32.918,21.881 28.333,47.851-1.991,11.278-8.519,26.228-15.741,29.593-1.999,.933-4.664,.55-6.925,1.26-1.8,.566-3.18,1.94-5.038,2.518-1.489,.464-3.486,.153-5.036,.632-4.353,1.341-8.647,3.202-15.741,2.518-2.032-.197-4.072-1.707-6.296-1.889-5.483-.449-11.126,1.42-16.37,0-3.626-.982-5.107-3.848-8.813-3.778-6.14-8.972-11.111-19.112-12.594-32.74-4.691,4.122-6.371,11.259-11.963,14.481-1.041,8.822-8.024,11.703-12.593,16.999-2.368-.78-4.719-1.576-6.297-3.147 1.662-4.716 7.026-13.102 1.891-17 2.763-16.16-8.946-29.713-.63-41.556 2.818,1.04 4.902,2.066 8.813,1.891 2.819-.128 5.789-2.927 7.557-.632-.358,4.47-6.486,3.168-8.815,5.668 2.111,2.474 5.63-2.29 7.556,0 .819,2.892-5.085,4.015-7.556,5.667 2.72,2.104 7.182-2.22 10.074,0-1.476,4.82-7.988,4.603-13.852,5.036 .684-5.707 1.868-10.617-2.518-13.222-3.831,10.831 4.848,18.722 3.147,31.481 2.387-1.392 1.346-6.21 3.147-8.186-.151-3.611-5.305-4.6-1.889-8.186 3.396,2.365 5.314,.131 8.815-.63 .339,2.857-1.266,3.772-1.889,5.668 .746,6.579-2.417,14.25-5.038,19.517 .604,3.962-.918,5.799-1.889,8.186 5.438,.948 7.799-6.41 8.815-11.963 7.389-4.872 17.718-18.076 17-32.11-.154-3.007-2.002-5.882-1.89-8.815 .104-2.681 2.302-5.062 2.52-7.554 .231-2.685-2.524-4.7-.63-6.927 .166-2.055-1.959-1.819-2.52-3.147 1.866-5.336-2.468-9.625-5.036-12.593-3.429,3.287-.832,12.601-6.927,13.222 2.889,3.396 .271,5.275-.629,9.445-3.91,2.477-10.518-1.399-13.222,2.518 2.618,3.716 8.702-1.712 11.962,.63-.879,4.787-7.714,3.619-11.962,5.036-.563-1.115-2.557-.802-1.889-3.147-2.771,1.008-2.532,5.025-6.927,4.406-1.278-4.544 2.857-8.807 6.297-10.702 1.043-7.352 6.246-10.544 8.184-17-.943-3.254-4.224-4.172-4.406-8.186 1.942-1.758 3.845,.343 5.036,1.259-1.471-2.305-2.889-4.665-5.666-5.666-4.093,5.904-5.683,15.033-5.667,23.296-2.493,.445-4.769,1.108-5.666,3.148-4.99,.611-7.029-6.398-4.408-9.445 3.155,.204 .871,5.846 5.038,5.038 1.407-.271 .255-3.104 .629-4.408-1.12-2.237-4.824-1.891-6.297-3.777-.726-3.261-2.297-5.677-3.777-8.186 2.196-3.543-1.185-6.42 1.26-8.813 2.697-2.238 2.431,2.695 4.408,3.147-3.151-4.736-4.716-9.163-3.779-15.111-1.954,2.868-2.271,7.273-3.147,10.703-.623,2.437-1.412,4.807-1.259,7.557 .105,1.91 1.817,4.102 1.889,6.297 .031,.948-.789,2.322-.63,3.147 .594,3.089 2.98,5.769 3.777,8.814 1.985,7.574 1.168,15.727 2.52,24.556 3.157,.009 2.375-3.921 5.666-3.777 .677,7.392-5.803,7.627-7.556,12.592-1.19,1.25-2.975,.307-4.407,0-1.876,.013-.808,2.97-1.889,3.777-10.557,4.454-24.851,3.834-37.148,1.259-.705,4.767 .431,9.008 0,13.854-.319,3.591-2.425,7.104-2.518,10.703-.071,2.791 1.602,5.104 1.889,8.184 1.078,11.515-7.746,22.84-4.407,36.52 1.005,1.72 3.842-1.471 5.036,.63 2.487,2.502-5.869,7.205-8.185,7.556-3.618,.546-6.574-.636-8.814-2.52-.481-1.485-1.241-4.352 0-5.666-.187-2.122-2.792-1.827-3.148-3.778 .221-3.789 .079-7.214-1.889-8.813-14.538,1.792-12.169-17.495-7.556-25.187-3.405,.584-3.45,4.526-6.296,5.668-.236,6.057-4.389,10.924-5.037,17.628-.298,3.085 .776,6.209 .629,9.444-.251,5.541-2.778,11.025-2.518,16.371 .271,5.577 3.667,9.936 2.518,15.11 1.531,3.173 6.47,5.29 5.037,9.444-9.353-.301-12.249-7.059-14.481-14.48-11.717,.737-14.275-12.961-13.223-27.074-5.452,2.229-8.551,9.744-15.111,8.814-1.788-5.375 2.28-7.773 1.259-13.222-.521-2.781-3.954-4.312-4.407-6.926-.545-3.141 1.398-4.625 1.889-7.557 1.079-6.45 .637-13.447 .63-20.146-3.511,.554-6.242,2.449-9.445,3.777-2.643,1.097-6.124,3.142-9.444,3.777-6.318,1.21-13.709-1.12-20.148,0-6.307,1.098-10.885,10.165-18.259,8.814-.818-5.132 3.032-8.112 3.147-12.592 .06-2.309-1.616-4.559-1.259-6.927 .565-3.748 5.163-7.412 8.185-10.074 3.247-2.858 6.925-5.373 10.074-7.554 1-5.718 5.023-8.41 8.186-11.963 .138-2.027-1.114-2.665-.63-5.038 1.75-6.257 5.62-7.494 11.963-10.703 6.002-3.036 14.163-8.444 23.925-8.186-.381-3.604-4.134-5.167-6.296-8.184-6.804-9.497-12.477-27.553-13.852-42.814-.402-4.459 .87-7.209 1.889-11.334 2.451-9.927 6.585-19.957 13.222-26.444 4.943-4.831 11.747-7.973 18.26-10.704 2.164-.276 3.528,.25 5.037,.63-2.126-9.637 2.85-14.924 6.925-20.148-1.768-2.896 .332-6.592 0-10.074-7.541-.615-7.873,5.98-13.852,6.927-1.924,4.582-6.33,6.682-8.814,10.703-2.381,.912-1.208-1.73-3.148-1.259-7.1,1.715-12.446,5.184-21.407,5.036-7.345,6.719-12.356,15.767-22.037,20.148-1.374-11.139-3.606-23.909 4.408-28.962 .152-5.936 4.417-7.756 6.926-11.334-6.653-.693-12.679-2.012-18.259-3.777-2.519-.09-4.314,2.781-6.296,1.259-1.598-3.285 2.05-6.185 3.777-8.186 1.662-.19 1.625,1.316 1.889,2.52 8.011,.125 16.292,5.303 26.444,3.147 3.269-.693 5.702-4.097 8.814-5.036 5.505-1.663 11.012,.624 18.259,0 2.586-.224 5.383-2.235 8.814-3.148 5.586-1.486 10.028-1.766 12.593-4.407 1.786-1.84 1.897-4.782 3.148-6.297 2.083-2.522 4.624-2.701 6.926-5.036 3.624,.436 7.523-.828 10.703-2.519 5.022,1.483 7.563,5.448 10.074,9.443 1.97-.759 3.123-2.334 6.296-1.889-.586-1.722-1.932-2.686-2.519-4.406 2.427-6.244 5.791-22.934-3.778-23.926-2.231-5.533-6.926-8.605-11.333-11.963-.031-3.957-2.652-5.323-2.518-9.444-.1-2.408 2.571-2.046 3.777-3.149 2.226-3.231 6.157-10.049 10.704-6.925 .207,2.935-2.894,2.562-4.407,3.777-2.657,2.454-6.915,4.978-5.037,10.074 4.182-.341 4.871-7.145 8.814-5.666 1.531,6.81-7.83,5.267-5.667,10.704 4.373,1.033 4.196-5.196 7.556-3.149 .439,3.378-3.118,2.76-3.148,5.667 .546,1.973 1.56,3.476 3.148,4.407-.274-5.312 1.966-8.107 3.777-11.333-2.332-4.865-1.654-9.936-3.147-14.481-.999-3.04-4.1-7.604-6.296-10.704-4.864-6.863-12.99-12.065-20.148-15.741-1.872-7.572-11.619-7.269-17-11.333-2.179,1.72-4.726-.402-7.556,0 .231,4.053 2.572,1.552 5.037,1.259 1.913,3.034-1.979,2.708-1.259,6.297 3.304,2.471 4.55-4.69 7.555-2.518-.126,4.91-4.404,5.669-7.555,7.554-5.499-4.154-8.523-10.784-13.222-15.74-1.263,11.281 3.043,19.564 8.185,27.073 1.758,2.567 4.503,4.754 5.667,7.556 .925,2.227 .561,4.978 1.259,6.927 1.103,3.072 3.037,5.625 5.037,8.185 1.979,.33 3.513,1.104 5.037,1.889 2.866,4.17 3.613,8.433 8.815,10.704 7.188,3.137 19.216,1.614 18.259,11.333-3.856,.615-4.926-3.562-8.185-5.037-5.64-2.552-13.485-1.556-17.629-6.296-.957-1.981-2.099-3.777-2.519-6.297-2.014-1.764-5.254-2.3-7.555-3.777-4.448-6.256-4.513-16.895-10.704-21.407-1.346-5.445-6.898-9.17-8.185-15.742-.42-2.144 .268-4.561 0-6.925-.388-3.42-2.681-6.474-2.519-10.074 .907-.445 1.234-1.377 1.321-2.549 2.704,.374 5.774-.132 9.444,1.259 1.168,.442 2.004,1.62 3.148,1.889 2.958,.692 6.463-.057 9.444,.629 1.075,.248 1.642,1.206 3.148,1.889 3.92,1.776 7.872,1.68 10.703,3.777 2.539,1.881 3.491,5.3 5.667,6.927 2.062-.459 3.427,1.518 5.037,2.518 2.091,1.3 3.949,3.861 6.297,5.667 1.524,1.172 3.793,1.375 5.037,2.518 1.618,1.484 2.993,4.948 5.037,8.186 2.824,4.473 6.311,7.24 5.667,15.11 .846,2.092 1.989,3.887 2.519,6.297-1.703,4.012-2.93,6.747-3.148,13.221-.077,1.602-.916,2.442-2.519,2.519 2.741,2.087 5.255,4.4 5.667,8.814 2.125,.017 2.803-3.309 5.037-1.259-.528,3.198-5.651,4.623-4.407,7.557 .969,1.728 3.691-.029 3.778-1.26 2.187-.221 2.391,3.201 4.407,1.26 .68-2.989-1.608-3.011-2.518-4.409 2.791-21.61 10.678-43.426 32.111-48.48 1.874,.224 3.195,1.002 4.406,1.889 5.278-3.749 11.545-6.505 18.26-8.815 6.932,2.29 14.683-.126 20.148,0-.32,4.296-3.291,5.943-5.036,8.815-1.925,5.515 1.676,10.451 1.259,15.11-.339,3.779-3.312,5.54-3.778,9.445 7.423-.615 20.896-1.099 26.444,3.778 4.786-8.018 11.711-13.894 19.519-18.889 4.438,.104 8.041-2.651 12.593-3.148 8.561-.937 15.967,2.793 22.666,5.036 7.532-7.759 14.382-15.545 25.185-17 2.288-.308 4.916,.273 7.556,0 1.829-.188 3.837-1.279 5.666-1.259 5.188,.058 9.943,3.246 15.112,3.779 2.22,.227 5.334-1.124 7.556-.629 2.153,.478 6.861,4.089 9.442,6.925 .62,.682 .076,1.655 .63,2.518 1.382,2.152 4.858,3.722 5.667,5.038 .242,.393 .107,2.517 .63,3.777 1.619,3.908 4.407,10.224 4.407,17 3.109-2.056 3.632-5.672 5.667-8.185 3.173-3.918 10.725-11.438 15.74-13.852 3.734-1.797 9.348-1.3 13.223-4.409 9.27,3.613 17.71-4.229 26.42-3.147zm-32.11,6.297c-.971,2.649 3.258,.1 3.147,1.889-3.097,1.653-9.206,2.447-13.222,5.036-1.98,1.278-9.523,7.518-3.777,8.186-.252-2.352 .504-3.694 2.519-3.778 1.964,2.274-1.632,6.947 .629,9.445 2.221-3.029 .755-9.74 5.668-10.074 .197,2.739-2.375,5.989-.63,8.184 2.966-2.699 1.502-9.831 6.296-10.703 .611,3.761-1.483,4.813-1.26,8.186 6.494-.221 6.737-6.695 12.593-7.555-.879-7.595 8.871-4.561 10.703-9.444-5.856,1.807-13.678,5.823-18.888,1.259 .705-.134 .98-.699 1.26-1.259-2.38-.486-3.02,.765-5.04,.628zm-207.78-11.962c-6.097,1.147-10.167,7.213-15.741,8.813-2.285,.657-5.146,.037-7.555,.63-13.879,3.424-21.12,19.684-24.556,34 4.798,6.014 3.367,17.121-5.037,18.259-2.16-.103-4.067-2.544-5.667-1.26v6.927c3.606-.694 8.332-4.115 14.482-5.038 5.465-.818 11.596,1.214 16.369-1.259 3.818-3.455 2.963-11.33 9.444-11.963 2.967-.289 5.545,3.394 9.444,3.147 3.956-.249 7.25-4.319 8.186-8.184 .589-2.432-.309-4.587 .63-6.927 1.95-4.869 12.275-7.854 13.852-17 1.276-7.397-.983-12.879 1.889-20.146-6.76,1.654-10.22-1.033-15.72,.001zm138.52,76.179c6.153-3.235 8.924-6.338 12.592-10.073 .276,2.164-.249,3.527-.629,5.036 7.808-5.786 13.346-16.863 14.48-29.593 .513-5.737-1.587-13.375 2.518-15.11 1.66,10.444-.475,22.153-3.147,28.334-2.646,6.116-5.288,9.658-8.186,14.48-.367,.612-2.988,2.632-.629,3.147 8.212-5.306 11.144-14.429 13.223-25.813 .535-2.932 .348-8.034 3.777-9.445-.461,14.861-4.678,25.964-11.333,34.629 4.918-1.139 7.16-4.752 9.444-10.073 2.035-4.743 2.875-8.077 3.777-13.852 2.983-19.099-4.857-38.292-18.889-43.444-2.413,1.155-4.792,2.343-8.185,2.519 .082-1.553 .095-3.033-.631-3.777-6.782-4.255-12.874-1.346-20.776-.629-2.297,.208-4.558-.421-6.297,0-4.954,1.199-14.239,8.403-18.259,14.48-1.002,1.517-1.389,4.205-2.519,6.297-1.3,2.41-3.272,4.126-3.777,5.666-.972,2.962-1.448,8.633-1.259,12.593 .328,6.936 2.258,9.722 4.406,13.853 1.076,2.067 1.452,4.724 2.519,6.296 2.548,3.753 8.783,9.545 11.963,11.333 2.983,1.679 6.854,1.617 10.074,3.148 .874,.805 .385,2.973 1.259,3.777 6.65,1.27 9.09-.93 14.51-3.78zm-89.41-44.069c4.991-.744 11.124-.677 12.594,3.777-1.972,4.055-6.092,3.619-9.444,6.295-3.481,2.779-5.103,7.595-8.814,10.074-1.937,1.294-4.267,1.092-5.668,3.149 3.541,.446 3.626,4.35 4.408,7.555 2.813,1.174 5.312,2.663 6.925,5.038 4.207-2.009 6.853,1.592 8.186,4.406 2.266-.376 3.552,.228 3.779,1.889-3.678,3.04-10.054,3.38-13.854,6.297 1.163,4.505 5.179,6.155 8.186,8.815 3.789-1.686 3.769-1.686 7.557,0 6.343-1.842 5.839-10.53 13.851-10.704 1.985-2.171-2.656-1.53-1.889-4.408 1.968-2.316 5.225,1.541 6.296,0-1.568,.251-1.863-3.932-.63-4.407 3.961-.181 2.714,4.843 6.927,4.407-.979-5.323-6.012-9.933-5.036-15.11 .631,.002 .748-.51 1.259-.63 4.924,3.89 2.708,14.921 11.333,15.11-1.087-3.48-3.839-6.798-5.667-10.703-1.678-3.583-4.638-8.124-3.147-11.333 6.434,4.06 6.308,14.68 11.962,19.519-.165-5.022-4.037-6.998-2.518-11.963-7.565-9.87-7.117-27.643-.63-38.406-13.2-11.628-42.44-5.191-45.98,11.32zm137.89,16.999c5.447-.375 9.835-2.411 15.112-2.518 3.862-.079 7.517,1.423 10.704,.629 3.932-.979 10.238-7.261 11.333-10.074 1.655-4.257-1.081-7.663-.63-11.333 .351-2.853 1.768-3.637 3.147-6.297-.489,.142-1.241,.018-1.259,.63-9.51,12.94-29.05,15.86-38.4,28.963zm.63-9.444c1.062-3.564 2.424-10.158 1.889-13.222-2.82,1.633-5.86,10.813-1.89,13.222zm-171.89,1.259c.538-3.45 3.079-4.896 3.778-8.184-3.729-.161-3.068,4.065-4.408,6.295-2.543,2.073-6.027,3.208-5.666,8.186 9.26-1.233 13.053-7.933 16.37-15.11-5.57,.716-3.72,8.863-10.07,8.813zm-10.07,2.519c3.178-2.909 5.975-6.198 8.186-10.073-5.55,.544-6.6,5.574-8.19,10.073zm30.85-4.408c3.417,1.345 3.542-5.649 .63-5.036 .48,2.373-.77,3.009-.63,5.036zm-.63,4.408c-4.162,.665-8.228-1.063-11.962,0-2.952,.84-5.007,3.672-7.557,5.036-2.164,1.16-4.544,.46-5.665,3.148 6.502-1.85 13.076,.779 18.889,0 1.332-.179 3.021-1.491 4.406-1.889 3.437-.986 6.807-.984 8.815-2.519 4.157-3.178 4.339-8.939 9.444-10.703-6.33-.649-10.28,5.954-16.37,6.927zm148.59,2.519c.884-2.194-2.116-5.249-2.519-8.186-.22,3.788 .88,6.264 2.52,8.186zm-7.55,7.555c3.955-.662 3.781-5.454 6.926-6.926-3.584,1.675-3.186-1.567-5.667-2.519-1.01,2.561-.36,6.777-1.26,9.445zm-178.19,.63c1.568,1.382 4.137-.052 4.406-1.891-2.4-.297-3.93,.269-4.41,1.891zm-18.26,3.148c.854,3.168 1.188,8.998 .63,13.852-.335,2.909-2.946,6.429-.63,7.556 5.264-4.897-.146-19.026 3.777-23.925-2.63-.542-2.49,1.696-3.78,2.511zm30.23,11.964c4.598-.794 4.632-10.933 2.518-14.48-.31,5.03-2.98,10.76-2.52,14.48zm-18.89,3.78c6.802-1.914 2.654-11.338 4.408-17.629-7.8-.465-1.69,11.879-4.41,17.629zm15.74-5.04c.789-4.08 3.016-11.13 .63-12.593-.28,3.721-2.46,8.862-.63,12.593zm18.89,10.07c9.229,5.583 21.127,1.186 27.075-5.037-5.883-1.673-11.012-4.1-15.112-7.555-.646-2.083-.646-4.811-1.889-6.297h-2.519c-3.281,2.256-3.696,10.464-8.185,9.444 2.105-3.561 4.302-7.03 5.667-11.333-6.702,.644-3.102,11.589-9.444,12.592 .419-4.039 5.178-8.845 1.889-12.592-2.795,3.923-2.016,11.418-6.927,13.222 1.677-4.619 2.366-10.227 3.778-15.11-3.722,2.995-3.794,9.637-5.667,14.48 3.67,2.84 10.47,2.54 11.33,8.19zm-27.08-7.55c4.249-1.418 3.874-7.458 3.777-13.222h-2.518c-.98,3.721-2.41,9.349-1.26,13.222zm-13.85,6.29c5.521-1.21 3.46-11.169 1.889-15.111-.78,4.557-1.92,11.821-1.89,15.111zm-15.11,4.41c.633-3.651 4.38-11.81 0-14.481 .611,7.326-.719,12.712-3.147,16.999 2.015-.346 3.537-1.118 6.295-.629 3.131-4.425 4.219-10.894 3.779-18.888-.139-.491-.527-.732-1.26-.632-.74,7.03 .86,16.4-5.67,17.63zm-21.41-9.44c2.495-1.628 2.024,5.092 5.667,4.408-.073-3.916-1.882-6.093-4.408-7.556-.48,.63-3.02,2.34-1.26,3.15zm-27.7-2.52c-1.714,3.33-6.363,7.058-5.667,10.703 2.617-3.771 7.635-2.832 11.962-3.777-2.14-2.25-1.97-6.84-6.29-6.92zm188.89,8.18c-1.595-3.651-4.864-5.63-8.186-7.557 1.41,3.85 2.71,7.79 8.19,7.56zm-108.3-.63c-1.48-.198-.374-2.985-2.519-2.52-5.082-.044-6.732,3.342-8.814,6.297-1.825-.814-4.259-.605-4.407,1.889 2.393,.833 3.49,1.562 6.296,.63 .874,.805 .385,2.972 1.259,3.778 3.306-.054 2.461-4.255 5.667-4.408 .712,2.479-1.899,4.375 .63,5.038 1.223-1.297 1.194-3.842 4.407-3.149 .304,1.983-1.934,1.426-1.26,3.778 1.955,.395 3.419-1.805 5.668-2.52 1.103-.349 1.443,.797 2.518,.631 .756-.116 1.896-1.589 3.147-1.89 3.849-.925 5.109-2.316 8.186-3.147-1.55-7.38-15.57-9.96-20.8-4.41zm139.15,3.15c1.924,.455 2.295-.644 3.777-.629 .328-1.461 4.392-4.822 1.889-5.038-.82,2.97-5.29,2.27-5.67,5.67zm-55.41,0c1.874,3.792 8.777,2.557 10.703,6.297-2.643,2.731-6.721,.687-9.444-.631-2.273-1.098-6.167-5.89-6.926-3.777 .031,2.404 2.964,3.585 5.667,5.038 2.752,1.479 6.812,2.04 8.186,4.406-7.696,3.863-12.868-4.988-19.519-6.297 .777,3.446 4.829,4.317 7.556,5.668 3.067,1.52 6.428,3.201 10.072,3.777 3.482-2.217 8.257-5.271 13.224-8.185 3.488-2.046 8.495-5.605 11.963-5.037 3.864,.632 4.598,7.812 9.444,3.776-5.313-.772-5.323-6.849-11.963-6.295-8.15,8.38-21.66-5.91-28.96,1.26zm83.11,44.7c3.075,.073 4.887,1.409 6.925,2.519 2.475,11.169 13.454,13.83 17.001,23.927 .026,.866-.297,1.382-.63,1.889h-1.259c-3.158,.01-2.376-3.923-5.667-3.779-.814,8.631-9.367,9.522-12.593,15.742 .776,6.4 8.485,4.359 9.444-.63-.528-1.361-1.63-2.147-1.259-4.408 .98-.907 1.242-2.535 3.777-1.889-.713-2.586-.195-3.894 1.889-5.036 .708,2.858 2.452,4.685 5.667,5.036 .972,1.643 2.454,3.601 3.147,6.297 .814,3.167-.882,8.386 2.519,9.444 1.481-7.46-4.73-15.702-5.036-21.407 .866,.027 1.382-.297 1.889-.629 5.243,1.054 3.178,9.412 8.186,10.703 3.457-3.501 1.346-8.318 1.889-13.224 .206-1.869 1.814-3.602 1.889-5.036 .116-2.225-.977-5.244-1.26-8.186-.611-6.356-.439-9.388-3.147-13.222 .848-3.35 2.143-6.251 1.889-10.703-.71-1.599-3.163-1.455-3.778-3.147-.309-1.988 1.136-2.225 .631-4.409-2.117-4.878-7.419-6.803-10.074-11.333-1.033-1.761-.402-3.538-1.261-5.665-.715-1.777-4.367-2.96-2.519-5.668-9.147-5.567-18.857-4.944-25.813,1.889-3.542-.393-4.923,1.374-5.667,3.779 4.127,3.848 5,10.951 4.408,19.517 1.339,.584 3.745-1.931 7.554-2.519 4.021-.618 10.701-1.218 10.704,3.149-4.008,1.447-10.954-.042-15.11,1.26 1.72,5.43 1.2,13.09 5.67,15.75zm-239.88-42.81c-3.686-.254-6.478-2.3-9.444,0-1.143,10.664-15.901,10.179-11.963,23.926-2.592,5.07-6.011,5.885-6.926,10.703-1.357,7.152 2.752,12.048 3.148,15.742 .462,4.299-1.847,8.632-.629,12.592 3.888,3.111 4.633,11.762 3.147,18.26 4.243-.135 3.612-4.58 5.037-6.927 2.877-4.733 8.16-9.77 13.223-13.222 4.476-3.053 9.666-4.657 12.592-8.815 2.502-3.555 2.646-9.578 5.667-13.851 1.047-1.48 3.178-2.4 4.407-3.779 6.406-7.185 7.971-16.659 11.963-25.813 2.355-.374 3.255-2.201 5.038-3.147 .643-3.257 .008-3.874 0-7.557-8.004-3.778-15.73,2.418-20.148,6.297-.202,2.946-1.804,4.492-4.408,5.036v4.407c-3.928,.899-4.323,5.333-7.556,6.927-1.377-.141-3.389-2.841-4.408-1.26 1.968,1.024 1.927,6.748-1.259,6.297-5.512-2.887-10.358-9.786-10.074-16.371 4.7-.56 4.804,11.116 10.704,9.445-1.519-3.518-8.376-7.708-4.408-12.593 1.463,.426 1.686,2.093 3.148,2.519-.015-2.324 .282-4.336 2.519-4.407 1.25,1.898 1.581,4.715 3.778,5.666 .337-2.436-1.124-3.073-.629-5.666 2.11-1.457 2.916-4.221 5.667-5.037 2.008,1.925 4.691,4.765 6.296,.629-3.82-3.99-10.18-3.19-14.49,0zm-49.746,14.48c-4.677,.69-4.964-3.009-6.925-5.037-.716,4.494 2.798,4.758 3.778,7.557-3.179,2.488-7.363,3.97-10.704,6.295-3.667-.844-9.262-9.236-3.778-11.333 1.232,2.56 2.208,8.688 5.667,6.927-2.69-2.027-2.121-7.4-2.518-10.074-7.158-.861-6.9,5.692-13.852,5.036-7.001,5.592-9.875,15.311-15.111,22.668 2.657,2.169-.533,10.186 3.148,11.333 8.408-3.044 10.423-14.677 18.259-17.63 .881-.331 2.21,.142 3.148,0 8.3-1.256 20.33-4.904 25.185-8.815 2.182-1.758 2.735-3.886 5.037-5.666 3.318-2.566 6.568-4.368 10.704-6.926 2.719-.41 3.529,1.087 5.036,1.889 2.005-2.316 6.412-5.172 3.778-10.074-2.229-.341-1.548,2.229-3.778,1.889-1.706-.392-1.566-2.63-3.777-2.519-3.15,5.036-10.68,5.691-17.63,6.927-1.02,1.917-1.938,3.938-4.407,4.406-.807-.313-2.998-2.36-3.148-1.259 .883,1.22 3.142,2.96 1.888,4.4zm162.45-13.85c-3.533,2.555-8.135,4.037-11.963,6.297 6.917,3.076 14.356,4.026 18.888,9.444 1.737,2.075 1.702,4.733 4.408,6.295 .412-3.512 3.048-7.664 2.518-10.073-6.16-2.46-9.27-7.95-13.86-11.97zm-64.22,1.26c-2.657,1.752-3.976,4.839-7.556,5.668-1.608,7.308 2.223,9.009 3.147,15.109-3.84,2.934-10.394-.439-14.48-1.259 2.79,4.895 10.295,5.726 15.74,3.147 .049,2.588 .672,2.68 1.261,5.668-3.84,4.678-16.833,4.774-22.667,1.889 .137,8.768 2.35,20.669 12.592,21.407-.298,5.784 5.906,4.782 8.184,8.186 1.653,2.469 1.141,5.173 1.89,9.444 2.114,1.661 2.379,5.175 4.406,6.925 3.29-3.636 4.336-9.516 9.445-11.333 .572-4.271 .689-7.938 1.888-11.333 2.686-7.604 12.367-14.938 6.297-25.185-1.644-2.775-6.29-3.274-8.814-5.668-1.304-1.233-2.567-3.527-3.147-5.036-1.942-5.033 2.283-8.258 2.518-11.962-2.16-3.33-6.02-4.93-10.71-5.69zm46.59,3.78c.188-1.66-.871-2.067-2.519-1.891-.19,1.66 .87,2.07 2.52,1.89zm99.48,3.15c2.812,.933 6.699-1.971 8.815-3.777-.866,.026-1.382-.297-1.889-.63-1.51,2.26-5.27,2.28-6.92,4.41zm-13.85-2.52c-6.934,2.511-12.196,6.693-17.631,10.704 1.737,4.888-2.671,8.867-.629,13.851 3.301-.365 7.497-.806 10.703-1.888 5.513-1.862 6.002-6.79 9.444-10.704 3.023-3.438 6.117-4.026 8.815-6.927-1.456-1.38-2.086,1.614-5.036,.63-2.92-.85-2.45-5.1-5.66-5.66zm-100.11,9.44c2.452-1.757 6.663-5.075 5.666-8.185-2.29,2.34-4.19,5.06-5.67,8.19zm62.33-6.29c1.45,.647 2.029,2.168 4.407,1.889-.03-2.04-3.98-4.1-4.41-1.89zm57.3,3.14c-2.127-.256 1.675-2.441-1.26-1.889-3.476,1.471 .953,6.224 2.519,6.297 1.343,.062 6.374-7.609 9.444-5.038 .563,1.115 2.556,.803 1.889,3.149-6.122,.328-9.764,2.906-11.333,8.184-2.753,9.254-.202,24.607-5.038,32.111-3.731-1.594-6.364-5.087-10.072-6.925-1.691-.84-4.461,.149-5.038-2.521 .176-1.292 1.682-1.256 2.519-1.888 2.189,.065 4.255,1.448 6.297,2.518 1.781,.935 4.309,4.115 5.036,1.891-2.272-4.235-7.268-5.745-11.963-7.557 2.935-8.045 12.307,4.38 13.222,1.26-2.079-2.537-5.085-4.148-7.555-6.297-2.115-.193-5.457,.841-5.037-1.889 4.467-4.691 9.737,1.151 13.223,3.148 .381-1.508 .904-2.873 .63-5.037-2.994-.063-8.129-1.42-10.074-4.407 1.87-3.302 6.704-.288 10.074-2.52-.589-4.659-6.025-4.467-8.815-6.925-3.678,2.44-6.257,7.358-8.814,11.333-.996,1.548-2.714,3.315-3.147,4.407-1.75,4.398-.104,9.645-.63,13.853-.638,5.095-4.411,8.848-5.038,13.852-.776,6.202 .57,11.736 1.889,15.739 2.283,6.93 5.661,10.725 8.815,15.112-1.054,1.044-.5,3.696-.63,5.666 2.34,1.019 5.661,1.055 8.186,1.889 1.95,2.666 1.71,7.524 5.036,8.814 4.858-9.624 6.756-22.207 14.482-28.962 .807-13.037-8.19-26.607 3.147-32.74 .812-5.275 2.841-9.332 3.777-14.482 2.38-2.712 4.239-4.388 3.779-7.556-.53-3.63-5.761-3.795-5.668-7.555 1.268-4.608 8.168-3.584 10.074-7.556-2.706-3.227-4.422,1.209-7.556,1.259-1.248-.431 .393-3.75-1.889-3.147-4.22,2.84-8.47,2.82-14.5,4.45zm-103.89,8.19c4.432-.21 6.164-9.043 10.703-5.037-1.338,3.497-8.099,4.901-6.295,9.443 2.597-3.908 6.422-6.59 8.813-10.703-7.33-1.062-11.041-5.747-19.518-5.666-1.642,3.605-4.985,5.508-5.667,10.074 4.923-.71 6.665-10.725 11.963-6.927-1.791,3.245-5.961,4.113-6.296,8.815 4.245,.165 5.161-8.203 11.334-8.186 2.26,4.33-4.41,4.69-5.02,8.2zm196.44-8.19c-.677,6.718-7.639,10.344-6.925,16.371 5.307-2.432 10.019-9.802 10.073-17.001-.139-.49-.526-.732-1.259-.63-.15,.89-1.37,.72-1.88,1.26zm-141.67,5.67c-4.21-1.705-8.126-4.924-12.593-6.297-.866-.026-1.382,.297-1.889,.63 2.637,5.798 12.326,7.769 18.89,7.556-.53-2.13-2.97-1.31-4.41-1.89zm7.56-2.52c-2.938-1.47-5.685-3.13-9.444-3.778 .68,3.07 8.78,5.94 9.44,3.78zm127.18,20.78c7.484-5.107 11.936-13.249 15.109-22.668-.805-.033-.87-.807-1.888-.63-1.92,10.25-8.5,15.85-13.22,23.3zm-64.85-18.89c2.229,1.77 4.854-.271 4.406-3.148-2.52,0-4.71,.33-4.41,3.15zm61.71,6.92c3.441-2.015 4.207-6.705 6.296-10.073-5.78-.31-3.95,6.97-6.3,10.07zm-91.93-6.92c.086-1.803 4.322,.545 4.407-1.259-.72-2.15-6.31-.62-4.41,1.26zm-57.92-1.89c-1.096-.047-1.958,.141-2.52,.63 3.349,4.206 9.254,5.856 15.112,7.555-3.14-3.8-9.47-4.39-12.59-8.19zm141.03,3.15c2.022,1.459 6.32-1.215 8.184-2.519-3.36,.21-7.11,.02-8.18,2.52zm-176.92,25.18c-2.349-1.389-3.088-1.019-5.666,0-2.127-2.07-3.35-5.046-5.038-7.555h-3.777c-1.463,.426-.918,2.858-2.518,3.147-2.906,.388-3.625-1.414-6.297-1.259v3.777c4.219,1.03 7.139-1.214 11.333-1.889 2.933,1.895 4.495,5.159 7.556,6.926 5.221-1.915 12.812-1.461 18.889-2.52 2.028,3.221 2.309,8.184 5.666,10.074-1.562-7.114-7.956-16.44 1.889-19.519 3.575,1.673 7.092,3.403 8.186,7.556 2.596,.497 1.184-3.015 3.777-2.518 1.6,1.339 2.396,3.48 5.038,3.777-1.965-2.457-3.328-4.123-.63-6.926-4.661,.906-9.139,.579-11.963-1.89-2.41-6.614-4.38-13.668-9.444-17.629-4.088,1.794-8.96,6.143-8.815,10.074 2.916-2.12 6.179-9.905 10.704-6.297-1.012,2.137-3.97,2.327-4.407,5.038 1.304,.374 4.136-.779 4.407,.63-2.165,3.117 3.583,2.899 1.889,7.554-3.105,.673-4.038,3.519-8.186,3.149-.909,3.496-3.083,5.188-5.666,5.036-3.006-.177-4.34-6.335-6.297-3.147 3.82,.13 2.35,4.32-.63,4.42zm-23.93-11.96c4.342-1.698 10.88,1.112 14.48,0-.724-7.042-7.035-8.495-13.851-9.445-.896-1.621-1.476-3.561-3.777-3.776-1.84,4.91 4.04,7.2 3.15,13.22zm150.48-7.56c2.463-.055 4.266-.77 3.776-3.776-2.46,.06-4.27,.78-3.78,3.78zm-86.89,2.53c.344-3.702-3.365-3.352-5.667-4.409-.16,3.52 4.49,2.23 5.67,4.41zm159.3,3.77c3.413-1.623 6.392-3.681 8.186-6.926-4.67-3.59-5.95,4.23-8.19,6.93zm-147.33-6.92c-.047,1.097 .141,1.958 .63,2.52 1.846-.043 2.338-1.44 3.147-2.52-.81-.86-2.98-.86-3.78,0zm-20.78,6.29c4.216,1 8.099-.196 11.962-.63 2.529-.284 5.701,1.081 6.927-1.259-7.783-2.051-12.228,1.72-18.889-.63v2.52zm18.26,3.78c3.528-.25 5.709-1.847 9.445-1.889 1.753-1.827-2.067-1.633-1.26-4.407-3.44,1.4-6.19,3.47-8.19,6.3zm74.92,1.26c1.518-3.309 4.427-5.228 6.925-7.555-5.64-1.23-7.14,5.01-6.93,7.55zm5.67-2.52c2.25,.271 3.457,1.581 4.408,3.148-.836,1.295-1.194,6.32 0,7.556 .413-1.886 1.346,.603 2.518,0-2.07-3.52-1.44-18.42-6.93-10.71zm-58.56,.63c-.338,2.228 .533,3.244 1.889,3.778 .811-2.336 4.268-2.028 4.407-5.037-2.25,.27-3.36,1.68-6.3,1.26zm119.63,8.19c2.164-.276 3.529,.249 5.036,.63 1.699-1.883 2.387-8.088 1.89-10.074-2.21,3.24-5.7,5.21-6.93,9.44zm-149.22-6.93c1.99,.102 3.801,.022 4.408-1.259-.45-.37-4.45-.75-4.41,1.26zm13.85,2.52c2.387,1.435 6.825,.343 7.556-1.89-2.27-1.32-7.2-.72-7.56,1.89zm10.08,4.41h3.149c-.687-2.673-.863-5.854-3.779-6.297-1.9,2.21 .87,3.79 .63,6.3zm-17-3.15c3.445,.331 1.971,5.585 4.406,6.925 2.22-3.14-1.66-10.77-4.41-6.92zm-5.67,2.52c3.533-.388 3.211,4.287 2.521,6.297 6.94,.947-.824-7.484 1.889-9.444-3.05-.54-4.24,.78-4.41,3.14zm-19.52,8.18c6.035-2.846 1.379-8.958-3.147-10.074-1.35,4.3 .01,7.71 3.15,10.07zm158.67-6.92c2.727-.207 4.17,.867 5.038,2.518 .359,4.769-2.541,6.275-3.149,10.074 4.278-1.764 8.512-11.012 2.52-13.852-.028-.866 .297-1.382 .63-1.889-2.35,.38-4.27,1.19-5.04,3.15zm-62.34,6.92c.47-2.889 1.502-5.214 2.52-7.556-3.2-.24-4.09,5.12-2.52,7.56zm-48.48-3.15c-12.473,.751-22.812,3.634-30.852,8.815-1.766-2.345-4.969,.146-7.556,.63 .869,3.676-.065,5.419 .629,9.444-.896,1.622-1.474,3.562-3.777,3.778-.037,2.127 1.137,2.686-.629,3.777-5.295-1.002-5.052-7.54-8.186-10.703-5.063,1.863-11.058,2.794-13.852,6.926 5.715,1.212 5.102,8.751 8.186,12.593 9.349-5.251 23.939-13.134 35.259-5.668-.084,1.553-.095,3.034 .629,3.779 2.394,1.339 3.492-.687 6.297-.631 3.251,5.91 10.128,3.24 16.999,3.778-1.776-8.293-5.334-14.106-3.777-22.037 .748-3.814 3.982-7.18 4.407-10.703 .192-1.592-.448-8.28-1.889-7.556-.49,1.41-.36,3.42-1.89,3.78zm49.74,11.34c.003-.632-.51-.748-.63-1.26-.301-1.979 .898-2.461 1.261-3.777-3.748,.573-4.58,7.004-3.148,10.704 5.075-5.421 14.104-10.24 13.853-18.889-3.54,4.64-4.58,11.79-11.33,13.23zm-244.92,28.33c1.263-3.983 .357-10.136 .63-15.11-6.773-5.872-.312-17.623-5.037-25.186-11.009,1.797-20.822,6.956-27.074,16.371-3.674,5.531-5.095,10.308-6.927,16.999-2.567,9.383-.709,18.84 1.26,25.815 .52,1.844 .105,3.922 .629,5.665 3.372,11.229 10.531,21.909 16.37,28.964 7.162,3.752 14.909,6.917 23.296,9.444 1.764-.335 3.273-.925 5.037-1.259 7.541,4.244 22.264,2.412 28.333-3.148 .731,.527 1.688,.83 3.148,.63 9.291-5.822 15.982-11.269 20.777-20.777 3.552-7.042 8.514-18.726 9.445-26.445 1.877-15.564-6.603-28.43-11.333-40.926-5.811-.836-8.331-9.645-13.852-9.443-4.883,.179-5.787,5.94-8.815,10.073 1.878,8.253 1.001,22.19-3.147,28.333-.143-2.641 1.015-6.036 1.259-9.444 .405-5.654 .79-12.753-1.889-15.11 .133,4.329-.568,9.057-1.26,13.222-.661,3.982-.54,8.849-3.777,10.704 .446-2.898 1.517-7.78 1.889-11.963 .3-3.37 1.312-8.501-1.259-9.444-2.51,2.126-1.998,7.066-3.148,10.703-.985,3.116-3.074,8.729-5.037,8.186 1.08-5.013 5.263-10.261 3.148-16.371-4.235,2.901-2.318,11.953-7.556,13.853-1.01-4.176 2.997-6.636 1.89-8.814-6.205,3.91-5.667,17.82-16.999,14.5zm101.37-30.85c4.434-.603 8.367-7.715 12.593-4.406-3.91,4.273-10.184,6.186-14.481,10.073 6.583-2.022 12.414-4.796 17.001-8.814-1.078-2.701-2.826-4.73-5.038-6.297-3.27,3.23-6.91,6.11-10.07,9.45zm62.96-5.67c1.625,.307 3.568-2.228 1.889-3.149-.56,1.12-1.52,1.84-1.89,3.15zm-66.74,1.89c2.121-1.027 5.038-1.258 5.666-3.777-1.551,.082-3.032,.095-3.777-.631-1.09,1.01-2.29,1.91-1.89,4.41zm170,1.26c1.983,.305 1.425-1.933 3.777-1.259-.277-1.82-1.327-2.87-3.147-3.147-.87,.81-.62,2.74-.63,4.41zm-13.85,13.22c2.848-2.93 13.645-11.098 8.814-15.109-2.18,5.38-7.64,10.82-8.81,15.11zm-6.93-1.26c6.139-1.207 7.54-7.15 10.703-11.333 .635-.008 .792-1.103 0-1.259-3.13,4.63-7.75,7.77-10.7,12.59zm-111.44-9.44c2.213,.095 1.513,3.105 4.408,2.519 .062-1.952-.771-3.008-1.26-4.407-1.98-.3-2.58,.78-3.15,1.89zm-15.74-1.26h-1.889c-5.339,5.144-10.718,10.036-18.889,11.962-2.211,.522-6.43-.898-7.557,2.519 5.185,.909 10.258-1.097 14.482-3.147 4.292-2.084 7.616-6.851 11.963-6.296-2.961,5.853-10.847,6.781-14.482,11.963 5.038,1.264 7.547-5.393 11.963-4.408-.8,4.026-5.379,4.276-6.295,8.186 1.576,2.201 1.835,5.72 3.147,8.186 .916,1.184 4.121,.076 5.037,1.259 2.672,8.2 4.835,17.506 5.666,25.814 .696,2.033 3.29,2.168 3.779,4.408 .374,1.303-.779,4.135 .629,4.406 1.469-5.037 3.893-9.117 6.925-12.592 1.439-10.22 1.999-22.25-1.259-30.852-3.76-2.327-7.588-4.585-11.333-6.927-1.86-4.83 1.59-11.18-1.9-14.48zm5.04,3.78c.604,1.915-1.348,6.387 1.259,6.297 2.613-.62-1.101-5.233 2.521-5.666 1.552,1.315 3.001,3.433 5.665,1.889 .192-2.749-1.861-2.801-.629-5.038-4.07-.28-5.98,1.58-8.82,2.52zm129.7,13.22c1.839-.038 4.966-3.196 6.927-5.667 1.792-2.258 3.813-5.72 3.777-7.556-2.5,5.49-7.43,8.54-10.71,13.23zm1.26,6.29c4.639-.399 5.479-4.595 6.926-8.185 2.621-3.053 7.652-7.03 6.927-11.334-3.25,7.87-10.03,12.23-13.86,19.51zm12.59-7.55c1.787-.407 5.11-4.436 5.665-5.667 .686-1.517 1.442-5.386 0-5.666-1.74,3.93-3.82,7.51-5.66,11.34zm-115.85-4.41c.651-1.657 .753-3.864 .63-6.296h-1.889c-1.61,1.67-1.08,5.3 1.26,6.3zm83.74,26.45c3.656,2.912 9.656-.729 13.222-1.891 1.953,2.665 1.427,7.809 4.407,9.444-.543-3.654-1.066-7.327-1.26-11.333 1.191,.143 1.391-.708 2.519-.63-.499-3.278-1.361-6.192-3.147-8.185-1.473,.195-2.601,1.233-3.777,0 3.011-5.687-3.353-10.775-8.815-11.963 2.64,9.74-1.82,16.78-3.15,24.55zm35.89-18.89c1.296-1.853 2.849-3.449 3.777-5.667-2.28,.47-4.14,4.65-3.78,5.67zm3.15,1.26c2.3-.669 6.658-4.46 3.778-6.297-1.58,1.78-2.73,3.99-3.78,6.3zm-184.48,1.88c3.273,10.787 10.088,18.036 16.371,25.815-1.063,2.073-.374,4.025 0,6.296 7.863,2.42 10.27,10.298 15.739,15.111 1.025-7.742-2.75-10.683-6.925-13.223-.085-1.263 4.277-2.927 1.259-3.147-1.918,.681-4.542,3.027-6.297,1.888 .246-4.37 5.469-3.766 6.927-6.925-.765-4.253-4.792-.118-7.556-.629-.035-.805-.808-.873-.63-1.891-.23-3.378 5.038-1.257 5.666-3.777-4.151-.164-6.092,1.883-10.704,1.26 .788-2.75-2.046-3.218-2.518-6.296 1.243-3.614 7.545,.512 8.186-4.408-.886-.164-.718-1.381-1.259-1.889-3.146,1.321-5.053,3.672-8.186,3.147-4.38-.731-4.913-5.885-6.927-9.444 3.668-.811 11.238,2.581 13.224-2.518-5.01-1.89-10.66,3.1-16.37,.63zm221.63,2.52c2.075,3.803 .554,11.199 4.406,13.224-.311-6.196 1.06-14.071-4.406-15.112-.25,.9-.76,1.07 0,1.89zm-163.71,1.26c1.938-.791 4.771-.687 5.666-2.52-2.79-.05-4.54,.92-5.67,2.52zm156.78,0c2.758,2.907 1.843,9.49 5.038,11.963 1.682-5.469-.425-12.583-4.408-14.482 .14,1.2-.71,1.39-.63,2.52zm16.37,9.45c2.77-1.486 2.08-11.436-1.89-11.962-1.47,3.96-.05,10.55 1.89,11.96zm-61.7-5.04c2.294-.871 7.069-2.562 5.665-5.037-1.33,2.24-4.8,2.33-5.66,5.04zm-158.67-1.26c3.244,.305 5.397-.479 6.297-2.519-2.34,.61-5.05,.84-6.3,2.52zm-21.41,2.52c2.458,.692 2.524-3.751 .63-3.777 .46,1.93-.64,2.3-.63,3.78zm83.11,1.89c.801-.877 3.084-.272 3.147-1.888-2.512-1.896-5.018-3.798-9.444-3.777 1.94,2.05 3.4,4.57 6.29,5.67zm125.93,5.04c3.693-1.046 1.545-10.129-1.261-10.703-3.02,3 1.96,6.11 1.26,10.7zm-139.15-7.56c-1.681-2.875-6.845-.199-8.186,1.259-1.191,.143-1.391-.71-2.519-.629-.899,.89 .138,3.058 .63,4.406 5.337-2.442 8.832,4.695 13.222,3.149-1.319-4.139-6.855-4.06-10.074-6.297 .352-.907 .982-1.537 1.889-1.889 5.472,.405 8.124,3.629 12.592,5.036 1.96-3.7-3.93-6.83-7.55-5.04zm27.71-.63c-.021,1.909 2.209,1.568 3.778,1.889 .09-2.07-2.58-3.02-3.78-1.89zm88.77,8.82c2.376-1.917 2.745-5.172 1.891-8.815-4.62-.81-6.36,7.94-1.89,8.81zm33.37-3.78c-.057,2.485 3.733,3.362 5.666,1.891-.812-2.127 .139-6.017-2.518-6.297-.18,2.34-3.33,1.71-3.15,4.41zm-20.78,.63c2.593-.494 3.231,.967 5.666,.631 .3-2.397-.267-3.932-1.889-4.408-.65,1.87-3.61,1.42-3.78,3.78zm-203.99,0c5.931,.996 6.948,6.902 11.963,8.815 2.737-4.335-4.708-11.839-9.444-8.815-1.478-1.295 1.243-3.193-1.889-3.147 .25,1.52-1.15,1.37-.63,3.15zm88.77,2.52c3.072,4.718 9.192-.396 10.704-3.149-3.78,.83-9.89-.67-10.7,3.15zm-55.4,1.26c.759-2.599 6.515-.202 6.295-3.779-2.87,.09-7.48,1.73-6.3,3.78zm147.96-1.26c.872,2.063 2.579,3.296 5.036,3.777 .52-4.55-2.77-8.79-5.04-3.78zm-58.56,0c-13.682-6.854-20.781,6.104-31.481,8.185-3.154,4.4-8.011,7.1-14.48,8.185 .28,2.657 3.243,2.632 5.665,3.149 4.961,3.854 4.699,12.93 9.444,16.999 1.814-9.793 5.789-18.921 12.593-23.925 1.997-1.47 4.936-2.763 7.556-4.408 2.362-1.483 5.18-3.682 7.556-4.407 4.01-1.225 10.13-.287 8.815-4.406-2.57-2.43-2.28,.84-5.66,.65zm-43.44,4.4c.566,1.113 1.52,1.838 1.889,3.147 4.444-1.163 5.451,1.614 8.815-.63-.666-2.673-5.824-3.567-3.148-7.554-4.34-.15-5.79,2.6-7.55,5.03zm-15.74-3.77c1.556,2.764 6.542,5.041 9.445,4.406-.52-4.24-5.69-5.26-9.44-4.41zm106.4,2.51c-.574,3.325 2.327,6.46 5.038,4.407-3.18,.241-1.324-4.552-3.777-5.036-.13,.49-.52,.74-1.26,.63zm-173.14,6.93c4.831,4.403 7.313,11.156 11.333,16.369 1.275-5.987-1.879-7.676-4.406-12.592-2.225-4.326-2.799-8.299-5.666-9.444-.81,1.48-.26,4.35-1.25,5.66zm167.48-5.04c.289,3.279 .961,6.176 4.407,6.297-.584-2.144-1.764-3.693-1.259-6.926-1.78-.52-1.64,.89-3.15,.63zm81.22,5.04c-2.486,.807-1.524-1.835-3.149-1.89-.664,.654-1.3,4.496 0,5.037 .105-.733 .996-.683 1.889-.629 1.235,2.333 .289,6.847 3.149,7.556 .478-3.381-3.721-9.407 .629-10.704 2.178,.13-.057,4.674 2.519,4.407-.684-2.885-.971-6.166-1.259-9.444-5.02-.48-1.11,4.14-3.78,5.65zm-235.48,6.29c-.224-5.652-2.722-9.032-6.297-11.333 2.09,3.8 2.15,9.61 6.3,11.33zm225.41-10.07v1.259c1.251,1.049 .8-.057 2.519,0v-1.259c-1.72,.06-1.27-1.05-2.52,0zm-172.52,2.52c2.312,.172 7.152,4.393 7.554,.629-2.499-.859-3.722-2.994-6.925-3.148-.2,.85-.9,1.2-.63,2.52zm94.44,2.52c1.24,1.248 3.597,.401 5.037,0-.657-1.44-.398-3.799-1.259-5.037-3.13-.19-4.09,1.79-3.78,5.04zm-82.48,1.26c2.532,.434 3.594-.604 5.665-.63-1.513-1.846-2.674-4.041-5.036-5.038-1.4,1.74-1.2,3.2-.63,5.67zm39.04,0c2.901,1.22 7.215,3.935 10.704,2.518 .157-3.306-4.699-1.597-6.296-3.147-.046-2.145 1.853-2.346 3.147-3.147 2.839,1.778 8.218,1.016 8.186,5.666-1.72,3.107-5.505,4.149-6.297,8.185 3.711,.772 3.186-2.691 5.038-3.778 2.657-3.007 7.663-3.668 10.704-6.295-2.438-.92-5.761-.956-8.186-1.889-1.237-.863-.401-3.798-2.519-3.779-4,3.35-12.51-1.57-14.47,5.68zm115.85,0c2.148-.161 3.271-1.348 3.147-3.777-.992-.059-.492-1.606-1.889-1.261-1.64,.47-2.75,3.36-1.26,5.04zm-42.19-.63c-.017-2.317-4.283-3.655-5.665-2.519 1.08,1.65 2.31,3.16 5.67,2.52zm37.15,5.66c3.402,.031 2.214-7.406-1.26-6.296-.14,2.67 .97,4.08 1.26,6.3zm14.48,6.3c1.105-.573 1.151-2.206 1.889-3.147-3.987-.21-.436-7.96-3.777-8.815-.89,3.16-.76,10.29 1.89,11.96zm-178.18-9.44v1.888c1.297,.517 6.291,.255 8.186-.629-2.52-.45-5.58-2.92-8.19-1.26zm52.26,2.52c-1.484-.777-3.275-3.334-5.036-1.889 1.552,3.277 5.902,3.752 10.074,4.408-.57-1.95-2.94-2.1-5.03-2.52zm103.89-1.26c-.495,3.643 1.755,4.542 1.259,8.186 5.245-.287 4.066-7.944 .63-9.444-.26,.78-.82,1.27-1.89,1.25zm-221,61.07c3.817,1.994 8.637,2.958 11.962,1.259-.821-14.657-8.125-28.261-13.221-40.297-1.225-2.894-4.14-7.59-1.889-10.703 7.828,11.691 11.296,27.74 17.63,40.926 .364-14.271-7.678-25.7-11.963-37.147-1.256-3.355-5.278-7.981-2.52-11.964 4.229,8.075 8.043,17.476 11.333,25.186 1.402,3.285 2.563,7.678 6.297,8.815 .617-5.023-.876-7.939-4.407-8.815v-5.667c-4.245-8.137-6.2-18.564-14.482-22.666-.991,5.934-4.039,9.812-5.036,15.741 2.194,5.855 4.313,11.688 6.295,16.369 .901,2.126 1.034,4.535 1.89,6.297 .559,1.149 2.042,2.011 2.519,3.147 2.378,5.691 5.418,12.41 4.406,19.52-4.02,.547-4.19-.776-9.444-1.26-5.73-6.118-10.688-13.838-13.851-22.666-.735-2.055-.021-4.998-2.518-6.297-1.37,11.2 7.82,25.42 17,30.22zm238-47.22c1.369-3.91 .34-9.674-.629-13.223-5.81,.33-2.05,11.65 .63,13.22zm-120.26-5.67c-1.756-3.07-6.901-2.754-9.444-5.038 1.32,3.2 5.22,6.79 9.44,5.04zm-55.41-3.78c1.661,4.064 7.928,2.202 10.703,.63 .865,1.991 .138,2.103 0,4.406 2.299,.035 3.07-3.54 5.038-1.889 .097,1.566-.989,1.948-1.259,3.147 3.53,.384 5.099-1.195 6.295-3.147-4.69-5.09-15.04-2.65-20.78-3.15zm156.15,8.82c2.387-1.832 1.343-9.803-3.149-8.813-.6,2.28 1.06,7.17 3.15,8.81zm12.59,1.89c-.572,.887-1.791,6.452 .63,6.296 3.616-3.2 1.043-12.606-1.26-15.74-1.23,2.8-.51,7.13 .63,9.44zm-119-.63c-.692,2.572-1.066,5.298 2.519,5.038 1.595-6.496-5.461-9.596-10.074-11.963-1.94,4.4 4.49,5.46 7.55,6.92zm102,4.4c1.175-3.053 .707-9.375-3.147-9.444-1.15,3.03 .25,8.42 3.15,9.44zm11.33,6.3c2.563,.164 2.404-3.531 2.52-5.666 .156-2.901-.273-8.069-2.52-9.444-3.77,3.09 0,10.06 0,15.11zm-132.85,3.15c-.738-1.484-.113-4.045-.629-5.667-1.427-4.475-5.059-8.067-5.668-11.963h-1.889c-1.661,1.486-3.909,3.374-6.295,4.408-3.368,1.46-7.812,1.017-10.074,3.777 6.524,.013 12.325-4.037 16.999-3.777-1.541,7.062-12.734,4.475-16.369,9.443 3.655,1.645 12.284-2.859 15.11,0 .559,3.288-2.937,2.521-5.036,3.149-.061,4.192 3.771,.697 5.665,2.518 1.026,3.124-2.189,2.007-1.889,4.407 1.111,7.559 10.565,11.844 7.557,19.519 1.115,.144 3.152-.635 2.518,1.259-.448,4.379-7.305,2.35-10.074,4.408 1.28,2.344 3.61,1.892 5.668,.63 2.358,2.676 3.864,6.208 4.406,10.703 2.249-.689 2.462-3.415 3.777-5.037 1.374-.401 2.004,1.784 1.891-.63 4.429-10.341 .921-20.959 0-32.11-2.17-1.49-4.44-2.53-5.69-5.04zm117.74-3.78c.847-2.534-.66-7.576-3.147-8.813-.88,2.57 .61,7.63 3.15,8.81zm33.37-5.03c1.096-.048 1.957,.141 2.518,.63-.023-2.075 .257-4.456-1.889-4.407-.72,.74-.71,2.22-.63,3.78zm-26.44,9.44c.423-3.152-.583-4.874-.631-7.556-4.964,1.322-.315,6.139-1.259,10.703-3.193,.374-2.993,4.142-6.296,4.408-1.671,.201 .589-3.527-1.888-2.52 .024,2.073 1.062,3.136 .629,5.668 8.66-3.546 17.602-9.789 13.222-22.667-.139-.49-.526-.731-1.259-.629-2.11,3.32 4.06,12.1-2.51,12.6zm-170-10.08c-.513,2.845-1.821,4.895-2.519,7.557 2.002,.096 2.77,1.426 5.036,1.259-1.158-4.661 4.113-8.405 1.26-10.704 .36,2.25-1.87,1.91-3.78,1.88zm65.48,10.08c4.546,.289 5.808,7.191 10.703,5.036-2.959-2.286-5.432-5.062-7.556-8.184 .354-.907 .983-1.537 1.889-1.891 3.465,.944 4.115,4.7 6.927,6.297 .493-6.371-1.973-9.78-5.668-11.962-1.55,4.09-4.58,6.73-6.29,10.69zm-106.41,27.7c-4.508-12.91-9.355-25.483-15.111-37.146-1.51,16.46 9.3,25.94 15.11,37.15zm92.56-34.63c1.507,.497 4.185,.534 5.036-1.259-1.953,.064-1.797-1.979-4.406-1.259 .14,1.19-.71,1.39-.63,2.52zm6.92,0c1.606-.072 3.239-.118 3.149-1.888-1.6,.08-3.24,.12-3.15,1.89zm100.75,7.56c.917-.993-.191-3.511-1.261-4.408-.53,1.53-.98,4.09 1.26,4.41zm-210.3,21.41c1.312,1.758 2.693,4.875 5.036,4.406-4.607-9.452-10.582-17.54-13.851-28.332-.55,8.96 4.72,18.44 8.81,23.92zm73.67-19.52c1.045,1.054 3.696,.501 5.666,.629 .457-1.926-1.086-1.852-.63-3.777-2.49,.25-5.43,.03-5.04,3.15zm40.92,2.52c2.57,1.493 5.487,8.388 9.444,4.408-3.911-1.546-6.523-4.389-8.186-8.186-.35,1.31-1.55,1.8-1.25,3.78zm-70.52,0c2.703,1.391 7.965,.602 9.444-1.259-3.44-.55-8.4-2.55-9.44,1.26zm61.08,5.66c1.5,1.728 2.775,.029 4.406,1.888-.511-2.846-1.072-5.644-1.889-8.185h-1.889c.21,2.52-1.13,3.5-.63,6.3zm23.92,4.41c.442,7.125-.487,18.083-1.259,22.666-1.472,8.741-2.046,15.081-4.408,21.407-1.282,3.439-2.43,9.544-6.925,8.186 7.952-11.986 11.579-31.653 9.444-51.629-.954,6.351-3.269,12.332-1.259,18.26-.333,2.187-1.706,3.332-2.52,5.036-1.166,5.759-.936,12.915-6.296,14.482-1.076-4.027 7.49-13.71 1.26-17.001-.606,4.852-.123,10.792-5.038,11.333 4.222-5.549-1.071-15.193 2.52-19.519-3.124-1.282-3.561-5.252-7.556-5.666-1.229,3.443 .68,8.411 0,12.593-.553,3.401-2.176,8.396-5.036,8.186-2.017-.855 2.502-3.694 0-5.038-2.634,4.923-3.32,11.792-6.927,15.741-2.381-2.447-.459-9.195-2.519-11.963-1.948-.57-3.468-1.569-5.037-2.52 .521-1.778-.887-1.63-.63-3.147-5.151-1.032-6.066-8.076-8.815-12.592-2.02-3.318-5.891-5.057-5.665-9.445-.522,5.302 1.156,9.516 .629,15.112-.4,4.244-2.999,8.38-3.147,12.592-.26,7.316 4.541,21.894 7.555,26.444 4.319,6.523 14.757,11.961 24.557,11.962 1.223-4.162-2.354-3.522-1.891-6.925 .732-.528 1.688-.831 3.149-.629 1.688,.829 1.044,3.99 1.889,5.665 8.293,4.626 22.451,5.415 28.332-1.259 2.876-.062 6.387,.51 7.556-1.259 .93-3.028-3.617-.581-3.147-3.147 1.51-4.156 5.352-6.589 6.925-11.334 2.034-6.134 3.25-15.389 3.778-22.038 .271-3.42-1.23-8.232 1.889-10.703 2.537,11.103-3.078,26.726-3.776,36.519 1.528-3.729 3.758-7.894 5.036-12.592 .818-3.011-.158-7.373 3.147-8.815 .818,11.128-6.302,19.703-9.443,28.964 4.899,.088 6.319-6.027 8.185-10.704 1.882-4.719 3.75-10.08 4.408-15.111 2.66-20.369-5.022-41.012-25.815-41.556-3.66,2.32-3.41,5-3.14,9.44zm-54.77-6.29c2.018,1.533 8.111,1.936 8.814-1.26-1.17-2.22-8.5-1.4-8.81,1.26zm-183.22,7.55c-5.893,1.873-11.655,3.877-13.223,10.074 7.716,.303 11.826,7.425 19.519,5.668-1.452-3.585-6.525-3.551-8.815-6.297-1.848-1.299-6.982,.686-7.555-1.889 6.995-7.487 14.453,5.393 21.407,3.776-2.502-4.842-11.336-3.354-12.592-9.444 7.298-2.568 11.079,6.858 18.259,4.408 .567-5.185-5.731-3.502-7.555-6.297 1.191-3.425 8.763-.47 8.814-5.036-6.138-3.24-13.713,2.53-18.259,5.04zm85.004,2.52c1.47-1.991 2.062-7.58-1.259-8.186-3.339,2.956-9.629,2.963-14.481,4.406 2.948,7.416 9.736,11.71 16.37,15.112 2.333,1.195 5.058,3.33 7.556,2.518-4.23-3.13-7.64-7.06-8.19-13.85zm19.51,11.33c-5.397-4.889-7.982-12.588-11.963-18.89-.46,7.85 5.75,17.73 11.96,18.89zm120.89-10.07c-.051-1.671 1.171-8.254-1.889-8.815 .17,3.4-.78,7.91 1.89,8.81zm-200.85-5.04c.099-2.062-6.278-3.401-5.036-2.519 1.711,.81 3.07,1.97 5.036,2.52zm160.56,0c2.112,1.455 6.915,.221 10.073,.63 .68-5.06-8.74-2.83-10.07-.63zm-222.89,52.26c3.525-1.092 6.037-3.196 9.444-4.406 1.775,.113 .785,2.991 3.148,2.518 11.944,1.978 27.563-1.295 35.889-6.926v-5.666c2.008-3.353 3.385-5.84 5.037-8.186 2.065-2.935 3.173-5.481 5.037-8.186 6.706-9.726 20.722-9.772 23.295-20.777-2.81-.758-5.646-1.489-8.185-2.519-12.094,7.215-21.141,17.478-33.371,24.555-.251,4.786-4.47,5.604-10.074,5.038-1.532-1.325 .558-2.799-.629-3.778-5.326,1.069-9.999-3.662-11.962,1.261 2.692,.244 6.874-.999 6.925,1.888-1.704,1.654-5.465,1.25-8.814,1.26-4.367,4.237-10.268,6.942-13.852,11.962 5.998-.751 8.792,1.701 13.222,2.519-.722-2.609 1.324-2.453 1.259-4.406-3.014-.886-5.918,1.595-7.555,0 3.646-4.421 13.408-4.335 18.888-5.038 .58-2.678-4.156-.041-3.778-2.519 .43-1.879 2.507-2.11 5.037-1.889-2.341,3.178 2.689,4.814 1.259,6.927-.606,1.281-2.417,1.358-4.407,1.259-1.18,1.199-.069,1.581 0,3.147-5.012,2.544-8.274,6.837-15.74,6.927-.342-6.092-10.786-1.177-10.074-5.667-2.295,2.06-.29,7.43 .001,10.72zm265.7-36.52c3.461-3.045 3.099-9.914 3.147-16.371h-1.889c.16,4.23-1.83,12.04-1.26,16.37zm-32.74-11.33c2.229-.341 1.548,2.229 3.777,1.889 1.275-1.733-1.923-3.203-3.147-4.408 .14,1.19-.71,1.39-.63,2.52zm-98.85,10.07c-1.04-3.998-4.244-5.83-5.038-10.074-1.923,.454-2.294-.644-3.777-.629 1.49,5.02 3.28,9.73 8.82,10.7zm96.96-2.52c-.353-2.277 6.626-.459 5.036-1.889-4.254,.267-6.125-1.85-6.296-5.666h-1.889c-1.38,2.7 1.3,6.08 3.15,7.56zm-152.37,.63c3.652,1.386 8.011,2.062 10.704,4.409-1.746-3.502-5.906-4.589-8.815-6.927-.186,1.29-1.704,1.24-1.889,2.52zm28.328,1.26c-.916,.975-3.224,.555-5.037,.631-7.98,11.328-22.746,15.871-25.815,32.11-4.827,5.876-9.971,11.437-13.852,18.259-2.463,.623-3.655-1.391-5.036,0-1.92,3.091 4.593,5.285 1.259,8.186-2.85-.089-3.295-2.582-6.296-2.519 1.638,5.707 4.973,9.719 3.777,18.258 1.96-.659 4.311-1.849 5.667-3.147 6.726-6.44 8.183-16.33 13.852-23.296 13.196-1.876 23.809-9.116 22.667-23.296 1.814-3.224 3.959-6.113 7.555-7.556 2.436-.336 3.074,1.123 5.667,.63 1.079-5.636 5.757-7.675 6.296-13.852-2.68-1.57-8.18-8.78-10.71-4.4zm-33.365,1.26c-8.759,5.723-15.291,13.671-20.148,23.296 1.759,4.326 6.027,6.145 8.185,10.073-.898,.15-1.062,1.037-1.889,1.26-3.168-.82-3.862-4.113-6.296-5.668v8.815c5.238-.968 5.637,3.524 9.444,3.147 2.934-.289 5.72-5.243 6.926-7.555 1.591-3.05 5.115-9.091 4.408-11.333-4.056,5.5-15.49-1.092-13.223-7.556 3.432,1.614 6.201,7.22 10.704,5.666-3.097-2.19-9.13-5.866-6.296-10.072 3.353,1.682 6.59,9.493 11.333,5.665-2.96-2.287-7.38-3.112-8.185-7.556 .832-.006 .575-1.103 1.259-1.259 5.247,.497 6.551,8.037 13.222,5.037-2.433-4.073-9.863-3.148-10.704-8.814 6.225-2.939 13.125,9.034 16.37,3.147-4.062-3.1-9.751-4.54-15.11-6.32zm-50.37,4.41c3.272,.715 7.117,.858 10.074,1.889 .258,1.518-1.15,1.369-.629,3.147 3.24,.513 3.851-1.604 3.778-4.406-4.285-.92-11.351-8.35-13.223-.63zm101.36,9.44c-.525-3.465 .931-4.946 1.889-6.926-4-4.18-6.08,5.69-1.89,6.93zm-2.51,6.93c.211-2.284-1.388-7.712-4.407-8.815-2.11,4.21-.7,8.55 4.41,8.82zm1.88,3.78c-5.686,1.953-7.522-2.696-11.333-4.408-1.57,3.65 9.57,11.92 11.33,4.41zm-12.59,7.55c2.22,1.635 8.037,4.566 10.074,.63-2.714-2.286-6.232-2.416-8.815-4.408-2.764-2.134-3.41-5.799-6.926-6.925 .55,3.4 2.61,8.45 5.68,10.71zm-92.553-8.18c1.683-.416 3.934-.264 5.037-1.259-1.103-.92-4.844-.66-5.037,1.26zm100.74,17.63c-.002,.633 .51,.749 .629,1.261-7.15,5.377-14.308-3.644-18.888-6.927 .637,3.14 2.591,4.964 3.777,7.556 5.57,1.57 13.012,4.612 18.26,4.407-1.295-1.223-3.842-1.196-3.148-4.407 1.287-1.495 2.492,.865 3.778-.629 .276-2.165-.249-3.53-.629-5.038-12.474,3.06-17.117-6.109-21.407-13.222 .72,10.82 8.02,15.06 17.63,17zm-67.372,.63v1.889c2.828-.31 4.718,.318 6.926,.63-.848-2.12-4.347-4.15-6.926-2.52zm58.552,8.18c-2.498-2.956-7.746-3.166-10.073-6.295 .82,4.63 5.34,5.57 10.07,6.29zm-3.78,4.41c-1.81-2.389-4.942-3.453-8.186-4.408 .88,3.33 4.07,4.33 8.19,4.41zm-27.069-2.52c.31,3.646 1.219,7.496 .629,11.335-.643,4.186-4.441,11.819-6.926,11.333 .695-4.96 6.167-12.171 2.518-20.148-8.853,6.479-10.427,30.077-2.518,39.036 5.329-.922 7.009-.328 9.444,2.52 1.085-4.444-2.531-4.186-5.037-5.038-6.25-14.468 7.901-21.416 6.296-37.146-1.631-.48-2.905-3.21-4.406-1.89zm22.039,5.67c.419,3.147 5.428,1.707 8.185,2.518 3.135-2.74 6.964-4.788 9.445-8.186-7.22,.54-9.34,6.19-17.63,5.67zm9.44,6.29c3.836-1.622 9.287-1.627 9.444-6.927-5.06,.4-6.95,3.97-9.44,6.93zm3.78,16.37c2.185-.505 2.42,.938 4.408,.63 1.266-1.883 .355-5.94 .629-8.815-1.918-1.968-2.715,3.632-5.037,1.259 .105-3.883 4.391-3.583 4.408-7.554-9.7-2.06-7.47,9.2-4.41,14.48z"/>
<path d="m178.3,39.666h1.889c.235,6.11-1.448,10.303-1.889,15.741-1.12-.377-2.614,1.845-3.147,0-1.025,1.283-1.322,3.294-2.518,4.407-1.719,.459-1.269-1.252-2.521-1.26-1.618,1.955 .395,4.685-.629,6.297-1.128-.08-1.327,.771-2.519,.63-.789-8.244 1.125-16.418 1.889-22.667 3.192,.795 1.448,6.527 1.891,10.073 2.665-1.952-.074-9.308 4.406-9.443-.2,1.459 .102,2.417 .63,3.148 2.25-.893 1.21-5.087 2.52-6.926z"/>
<path d="m156.89,73.665c-.347-1.959-.515-4.102-1.259-5.666-1.269,1.722 1.007,5.266 1.259,7.557-.735,2.832-4.144,2.991-4.407,6.295-5.289-3.021-5.235-19.024-3.779-25.184 3.137,2.111 2.043,8.451 2.52,13.221 1.976-4.951 .494-13.357 1.889-18.889 2.359-.254 3.31-.554 5.666-1.889 .219,7.966-.778,17.148 1.26,23.296-1.2,.268-1.14,1.799-3.15,1.259zm-1.26-8.184c-.855-1.917 2.348-4.298-.629-4.408 .38,1.304-.78,4.136 .63,4.408z"/>
<path d="m306.11,190.78c-2.18,1.18-5.169,1.546-5.666,4.408 1.943,.101 3.558-1.487 5.036,0-.458,4.4-3.303,2.542-6.927,3.777-1.036-2.22-1.753-5.093 0-6.927-2.221,.087-2.814,1.802-5.036,1.891-1.964-4.828 5.394-5.422 8.186-7.557-.547-.921-.943-1.995-2.52-1.888-.854,.193-.522,1.576-.63,2.518-4.099,.11-7.617-.356-10.703-1.259 .121-1.979 1.171-3.028 3.149-3.149 .47-1.939-2.171-.767-1.26-3.147 5.917-3.544 11.199,2.578 15.74,4.408-.31,2.83 .32,4.72 .63,6.93z"/>
<path d="m105.89,251.85c-4.442,4.935-13.125-.988-18.259,1.889-.899-.84-.899-3.567 0-4.407-4.131,.008-8.562-2.587-6.296-6.926 2.975,.186 3.666,2.617 6.296,2.518 3.279-.123 3.917-3.252 6.925-4.406 1.391,1.38-.622,2.571 0,5.036 .607,5.27 8.494,3.26 11.334,6.3z"/>
</g>
</svg>
