<svg xmlns="http://www.w3.org/2000/svg" viewBox="0 0 434.33 783.43" xmlns:xlink="http://www.w3.org/1999/xlink">
<defs>
<radialGradient cx="346.8" cy="327.54" gradientTransform="matrix(.7766 0 0 .73156 43.759 86.784)" id="radialGradient5197" r="185.45" gradientUnits="userSpaceOnUse">
<stop offset="0" stop-color="#fcecec"/>
<stop offset="1" stop-color="#fcecec" stop-opacity="0"/>
</radialGradient>
</defs>
<g fill="#008000">
<g transform="matrix(1.1658 0 0 1.1308 -187.146 -185.313)">
<path stroke="#000" fill-rule="evenodd" stroke-width=".833" d="m339.76,700.11c-7.5-14.98-18.28-17.48-41.27-19.3-25.69-2.03-36.39-2.24-46.41-24.72-5.66-12.69-6.62-20.95-11.54-32-4.95-11.09-2.6-24.14-7.75-35.7-8.2-18.4-2.05-7.68 9.43-3.27 11.91,4.58 31.69,3.07 40.44,5.2 10.18,2.47 17.58,15.01 21.48,23.75 4.83,10.85 9.96,21.33 11.53,32 1.79,12.09 .84,18.26 2.61,30.29 .44,2.95 2.48,5.54 3.71,8.31"/>
</g>
<g stroke="#050408">
<g fill-opacity=".924" transform="matrix(1.1658 0 0 1.1308 -187.146 -185.313)">
<path d="m-785.71,100.93l-5.55,14.85-5.99,14.67-10.08-12.23-9.71-12.52 15.63-2.62 15.7-2.15z" transform="matrix(-.41555 .47556 -1.4791 -1.2924 181.35 1138.8)"/>
<path d="m-577.14,163.79l11.45,4.69 11.3,5.03-9.78,7.57-10.01,7.28-1.67-12.26-1.29-12.31z" transform="matrix(1.9653 -.77004 .35829 .91441 1496 -71.305)"/>
</g>
<g transform="matrix(1.1658 0 0 1.1308 -187.146 -185.313)">
<path d="m441.92,425.85c.75,3.3 1.76,6.95 2.64,10.36 1.8,5.63 3.18,11.33 4.55,17.07 .42,5.79 1.48,11.48 2.27,17.22 1.15,5.74 1.3,11.59 1.61,17.42 .61,5.92-.27,11.68-1.01,17.52-1.32,7.12-4.12,13.79-6.6,20.54-3.38,7.69-7.63,14.87-11.84,22.11-3.97,6.9-9.12,12.99-14.04,19.21-5.79,7.16-11.34,14.51-16.9,21.85-5.98,8.09-11.6,16.44-17.24,24.77-4.89,6.69-9.25,13.73-13.65,20.75-4.31,6.16-7.72,12.86-11.27,19.47-3.27,5.42-5.19,11.38-7.23,17.32-2.17,5.67-4.18,11.39-6.22,17.11-2.01,5.67-3.88,11.4-5.79,17.1-1.47,4.93-2.77,9.91-4.21,14.84-.95,5.44-1.95,10.88-3,16.29-.8,5.88-.79,11.82-.94,17.73-.04,6.33 0,12.65 .02,18.98-.03,6.48-.02,12.95-.01,19.43-.4,6.35 .7,12.58 1.59,18.84 .26,5.73 1.66,11.25 2.83,16.83 .59,2.67 .65,5.41 .97,8.11l-37.51,19.47c-.25-2.56-.27-5.15-.77-7.68-1.19-5.67-2.58-11.3-2.81-17.12-.95-6.41-2.21-12.81-1.85-19.31 .01-6.47 .01-12.94-.03-19.41 0-6.35 0-12.7 .02-19.05 .05-6.05-.04-12.12 .61-18.14 .86-5.51 1.87-10.97 2.86-16.44 1.28-5.14 2.27-10.32 4.09-15.3 1.91-5.73 3.51-11.56 5.77-17.16 2.02-5.74 3.71-11.61 6.2-17.17 1.98-6.12 3.71-12.38 7.06-17.93 3.5-6.75 6.94-13.56 11.1-19.94 4.47-7.08 8.94-14.19 13.92-20.93 5.62-8.36 11.29-16.68 17.1-24.92 5.46-7.39 11.04-14.7 16.76-21.89 4.87-6.13 9.93-12.14 14.18-18.72 4.34-7.05 8.59-14.08 12.09-21.6 2.48-6.42 5.26-12.75 6.8-19.51 .73-5.6 2.15-11.04 1.38-16.77-.29-5.63-.24-11.31-1.31-16.88-1.04-5.73-1.98-11.4-2.28-17.23-1.36-5.56-2.38-11.22-4.37-16.63-1.07-3.77-1.92-7.67-3.66-11.19l38.12-19.42z"/>
</g>
</g>
</g>
<g transform="matrix(1.1658 0 0 1.1308 -187.146 -185.313)">
<path fill="#f00" stroke="#050408" stroke-width="1.678" d="m528.68,336.15c22.86,88.87-67.99,154.2-169.38,154.2-101.38,0-197.95-56.76-197.95-154.2 0-94.58 81.68-168.53 183.67-171.34 106.46-2.93 183.66,76.76 183.66,171.34z"/>
<path fill="none" stroke="#000" stroke-width="1.52" d="m325.44,341.47c2.13,9.42-13.95,7.08-18.5,3-12.32-11.05-2.05-28.12 11.41-34.3 24.08-11.06 52.71,2.47 62.58,22.31 14.48,29.12-7.86,61.35-41.33,71.6-44.6,13.65-92.44-10.81-106.65-47.62-17.89-46.32 17.68-95.13 71.23-108.89 64.87-16.67 132.46,19.1 150.74,72.93 21.55,63.42-4.61,111.88-78.29,129.04-85.06,19.81-186.84-15.96-209.1-86.81-25.3-80.5 48.68-157.26 142.49-177.76 105.23-23 175.55,49.93 201.75,137.82 22.73,76.28-61.71,157.5-126.16,155.51"/>
<path fill="#008000" stroke="#050408" d="m-577.14,163.79l11.45,4.69 11.3,5.03-9.78,7.57-10.01,7.28-1.67-12.26-1.29-12.31z" transform="matrix(2.1107 0 0 .9821 1547 543.15)"/>
<path opacity=".65" fill="url(#radialGradient5197)" d="m454.34,333.57c17.75,74.05-52.81,128.49-131.55,128.49-78.73,0-153.73-47.29-153.73-128.49 0-78.81 63.44-140.43 142.64-142.77 82.68-2.44 142.64,63.96 142.64,142.77z"/>
<path fill="#008000" stroke="#000" fill-rule="evenodd" stroke-width=".833" d="m345.95,657.39c10.13-9.19 1.52,.95 18.76-14.38 19.25-17.12 26.82-24.69 49.98-16.35 13.07,4.71 19.69,9.74 31.07,13.83 11.43,4.12 19.21,14.85 31.12,19.15 18.95,6.82 6.96,3.84-4.18,9.06-11.55,5.43-24.15,20.73-31.75,25.57-8.83,5.63-23.01,2.28-32.01-.96-11.17-4.03-22.29-7.58-31.07-13.84-9.96-7.08-13.75-12.04-23.66-19.09-2.43-1.73-5.41-1.96-8.26-2.99z"/>
</g>
</svg>
