<svg xmlns="http://www.w3.org/2000/svg" viewBox="0 0 686.51 763.2">
<g stroke="#180202" stroke-width="1.481" transform="matrix(.9232 0 0 .95168 19.564 -115.659)">
<path fill="#520" d="m348.81,127.3l1.2,52.8 45.45,726.07-88.79-.71 42.14-778.16z"/>
<path fill="#008000" d="m356.91,485.39c0,48.69 3.03,95.6 3.57,138.32 .55,42.71-1.4,81.24-11.37,113.17s7.23,105.19-66.62,121.53c-18.46,4.08-62.12,11.38-91.38,16.86-23.3,4.37-67.51,33.82-82.06,34.23-15.091,.43-82.095,26.62-100.89,4.18-28.951-34.56 27.191-64.33 46.524-80.87 67.946-58.14 82.056-51.6 112.33-65.4 67.69-30.85 87.45-31.07 54.93-46.85-8.7-4.22-278.06,112.24-238.39,17.44 32.246-77.07 249-106.67 250.14-133.57 1.13-26.89-207.96,78.09-210.22,1.64-1.702-57.72 218.89-78.48 224.21-115.39 7.7-53.36-255.94,76.34-181.8-13.95 45.8-55.76 112-70.85 141.25-96.77 14.31-12.69 27.92-28.49 29.23-36.11 1.32-7.62-2.88-10.11-14.06-5.3-20.9,8.99-38.21,15.41-52.4,19.68-14.19,4.28-25.27,6.39-33.71,6.76s-14.25-1.01-17.9-3.73c-3.66-2.73-5.16-6.79-4.98-11.79 .17-5 2.01-10.93 5.05-17.39 3.03-6.47 7.26-13.46 12.19-20.57 4.94-7.11 10.58-14.35 16.46-21.3 5.87-6.95 11.97-13.62 17.82-19.6 25.27-25.81 61.1-62.36 94.41-92.46s64.11-53.74 79.31-53.74 18.97,10.39 18.13,29.27c-.85,18.88-6.32,46.25-9.61,80.22-3.22,33.3-.76,71.83 2.5,114.2 3.27,42.38 7.34,88.6 7.34,137.29z"/>
</g>
<g transform="matrix(.9232 0 0 .95168 19.564 -115.659)">
<path fill="#008000" d="m475.19,305.92c0,103.01 210.54,130.36 194,168.01-10.46,23.82-75.24,46.65-173.35,1.2-39.97-18.51 33.53,44.79 173.2,95.33 10.9,3.95 54.89,19.58 30.47,59.22-24.35,39.55-190.82-43.47-197.79-28-6.96,15.47 225.34,101.13 220.63,133.81-1.71,11.84-7.89,18.55-17.73,21.64s-23.33,2.55-39.66-.12c-16.32-2.67-35.47-7.46-56.63-12.89-21.16-5.42-44.33-11.48-68.67-16.66-20.06-4.27-9.1,21.89 42.37,56.98s143.46,79.13 138.65,102.45c-.7,3.35-19.38,10.74-44.37,15.15-24.99,4.42-56.29,5.87-82.21-2.65-55.25-18.16-131.82-29.97-137.07-36.92-1.75-2.32-66.92-21.58-75.77-34.99-8.84-13.42-10.37-95.25-16.35-115.11-5.98-19.85 5.19-41.07 .99-63.39-4.21-22.33-7.48-45.76-9.69-70.05-2.22-24.28-3.38-49.43-3.38-75.18 0-103.01-15.35-205.22-19.83-278-4.49-72.77 1.88-116.1 45.32-101.34 54.03,18.35 97.17,65.42 167.48,122.1 70.36,56.72 70.05,87.12 41.94,96.07-28.1,8.96-71.76-7.61-112.55-36.66z"/>
</g>
</svg>
