<svg xmlns="http://www.w3.org/2000/svg" viewBox="0 0 634.75 269.03" xmlns:xlink="http://www.w3.org/1999/xlink">
<defs>
<linearGradient id="linearGradient2877" y1="576.34" y2="661.57" x1="-125.32" gradientUnits="userSpaceOnUse" x2="146.29">
<stop offset="0" stop-color="#fff"/>
<stop offset="1" stop-color="#fff" stop-opacity="0"/>
</linearGradient>
</defs>
<g fill="#008000" transform="matrix(.88317 0 0 .96816 51.599 -505.993)">
<path d="m660.27,546.24c-26.31,93.46-140.6,261.03-350.02,254.06-207.61-6.91-547.85-324.9 1.53-260.86"/>
<path d="m-58.425,526.91c3.111,11.21 14.095,45.81 20.039,58.83 5.945,13.02 13.32,26.71 22.155,40.62 8.8342,13.91 19.128,28.03 30.908,41.89 11.781,13.87 25.049,27.49 39.831,40.39 14.783,12.91 31.081,25.1 48.922,36.11 17.84,11.02 37.22,20.86 58.18,29.06s43.48,14.77 67.61,19.23c24.12,4.47 49.85,6.83 77.2,6.63 27.12-.19 56.53-4.97 86.12-13.09 29.59-8.11 59.36-19.57 87.18-33.12 27.82-13.56 53.7-29.21 75.5-45.72 21.81-16.51 39.55-33.87 51.1-50.85s16.91-33.57 13.96-48.54 56.97-66.12 35.27-76.6c-21.69-10.47-116.37-2.5-161.05-5.99-44.68-3.5-136.42-5.1-208.34,.86"/>
</g>
<g fill="#f00" transform="matrix(.81925 0 0 .81212 74.368 -424.441)">
<path d="m660.27,546.24c-26.31,93.46-140.6,261.03-350.02,254.06-207.61-6.91-547.85-324.9 1.53-260.86"/>
<path d="m-58.425,526.91c3.111,11.21 14.095,45.81 20.039,58.83 5.945,13.02 13.32,26.71 22.155,40.62 8.8342,13.91 19.128,28.03 30.908,41.89 11.781,13.87 25.049,27.49 39.831,40.39 14.783,12.91 31.081,25.1 48.922,36.11 17.84,11.02 37.22,20.86 58.18,29.06s43.48,14.77 67.61,19.23c24.12,4.47 49.85,6.83 77.2,6.63 27.12-.19 56.53-4.97 86.12-13.09 29.59-8.11 59.36-19.57 87.18-33.12 27.82-13.56 53.7-29.21 75.5-45.72 21.81-16.51 39.55-33.87 51.1-50.85s16.91-33.57 13.96-48.54 56.97-66.12 35.27-76.6c-21.69-10.47-116.37-2.5-161.05-5.99-44.68-3.5-136.42-5.1-208.34,.86"/>
</g>
<g transform="translate(15.244 -458.06)">
<path fill="#280b0b" d="m185.35,177.15a13.256,30.592 0 1,1 .23-4.51" transform="matrix(.76925 0 0 .66672 293.68 405.84)"/>
<path fill="#280b0b" d="m185.35,177.15a13.256,30.592 0 1,1 .23-4.51" transform="matrix(1.0769 0 0 .70005 50.988 501.09)"/>
<path fill="#280b0b" d="m185.35,177.15a13.256,30.592 0 1,1 .23-4.51" transform="matrix(.84617 0 0 .63339 -61.187 420.73)"/>
<path fill="#280b0b" d="m185.35,177.15a13.256,30.592 0 1,1 .23-4.51" transform="matrix(.84617 0 0 .80003 10.194 452.35)"/>
<path fill="#280b0b" d="m185.35,177.15a13.256,30.592 0 1,1 .23-4.51" transform="matrix(.76925 0 0 .83336 338.55 431.34)"/>
<path fill="#280b0b" d="m185.35,177.15a13.256,30.592 0 1,1 .23-4.51" transform="matrix(.76925 0 0 .80003 179.47 482.94)"/>
<path fill="#280b0b" d="m185.35,177.15a13.256,30.592 0 1,1 .23-4.51" transform="matrix(.69234 0 0 .70005 124.4 413.39)"/>
<path fill="#280b0b" d="m185.35,177.15a13.256,30.592 0 1,1 .23-4.51" transform="matrix(.84617 0 0 .56674 236.57 540.24)"/>
<path fill="#280b0b" d="m185.35,177.15a13.256,30.592 0 1,1 .23-4.51" transform="matrix(.84617 0 0 .73338 22.431 386.27)"/>
<path fill="#280b0b" d="m185.35,177.15a13.256,30.592 0 1,1 .23-4.51" transform="matrix(.76925 0 0 .70005 273.28 466.42)"/>
<path fill="#280b0b" d="m185.35,177.15a13.256,30.592 0 1,1 .23-4.51" transform="matrix(.92308 0 0 .70005 183.55 415.43)"/>
<path fill="#280b0b" d="m185.35,177.15a13.256,30.592 0 1,1 .23-4.51" transform="matrix(.84617 0 0 .66672 387.49 397.69)"/>
</g>
<g fill="url(#linearGradient2877)" transform="matrix(.81925 0 0 .81212 74.368 -424.441)">
<path d="m660.27,546.24c-26.31,93.46-140.6,261.03-350.02,254.06-207.61-6.91-547.85-324.9 1.53-260.86"/>
<path d="m-58.425,526.91c3.111,11.21 14.095,45.81 20.039,58.83 5.945,13.02 13.32,26.71 22.155,40.62 8.8342,13.91 19.128,28.03 30.908,41.89 11.781,13.87 25.049,27.49 39.831,40.39 14.783,12.91 31.081,25.1 48.922,36.11 17.84,11.02 37.22,20.86 58.18,29.06s43.48,14.77 67.61,19.23c24.12,4.47 49.85,6.83 77.2,6.63 27.12-.19 56.53-4.97 86.12-13.09 29.59-8.11 59.36-19.57 87.18-33.12 27.82-13.56 53.7-29.21 75.5-45.72 21.81-16.51 39.55-33.87 51.1-50.85s16.91-33.57 13.96-48.54 56.97-66.12 35.27-76.6c-21.69-10.47-116.37-2.5-161.05-5.99-44.68-3.5-136.42-5.1-208.34,.86"/>
</g>
</svg>
