<svg xmlns="http://www.w3.org/2000/svg" viewBox="0 0 568.03 238.99">
<defs>
<filter width="1.914" x="-.457" y="-.121" height="1.241" id="filter3321">
<feGaussianBlur stdDeviation="6.3791"/>
</filter>
<filter width="1.034" x="-.017" y="-.16" height="1.32" id="filter3203">
<feGaussianBlur stdDeviation="3.7359"/>
</filter>
</defs>
<g stroke="#000" color="#000">
<g fill-rule="evenodd">
<g transform="translate(-114.41 -230.33)">
<path fill="#666" filter="url(#filter3203)" stroke-width=".869" d="m51.699,195.87c18.078-1.67 41.469-4.04 61.281-6.86 25.65-3.65 49.7-4.03 75.36-4.03 22,0 40.15,3.57 61.79,6.38 21.61,2.79 43.23,6.68 65.03,7.34 20.32,.62 40.49-1.31 60.76-1.31 16.46,0 32.76-1.53 49.18-2.53 7.85-.48 15.65,.28 23.47-.64 3.25-.38 6.61-1.38 9.82-1.89 4.23-.67 11.04,1.77 15.36,2.2 10.57,1.05 21.33,.46 31.83,1.34 2.37,.2 2.84,.89 4.36,2.5 1.64,1.73 3.21,3.33 4.66,5.3 1.18,1.61-.09,1.71 2.87,3.02 6.05,2.68 10.89,5.53 16.55,9 5.21,3.18 11.44,8.23 15.7,12.62 1.08,1.1-1.86,5.33-2.4,6.31-2.24,4.02-7.23,5-11.53,5.36-10.39,.88-22.03-1.14-32.44-1.98-15.93-1.29-31.87-2.26-47.83-2.99-17.94-.81-36.09,3.3-54.14,3.3-19.29,0-38.5-.31-57.77-1.01-21.02-.77-42.01-1.88-63.05-2.56-19.15-.62-38.26,.24-57.41,.24-15.13,0-23.58-4.33-38.58-3.26-12.91,.93-31,6.02-43.64,4.18-12.51-1.83-27.63,.12-40.42,.12-11.474,0-22.995,.56-34.452,.98-9.908,.36-19.234-.26-29.084-.71-6.786-.3-12.865-.28-12.865-8.23 0-5.99 1.438-14.16 3.414-19.81 1.768-5.06 2.145-8.11 6.189-12.11 2.877-2.84 8.172-3.9 12.012-4.17 3.413-.25 3.928,1.15 5.975,3.9z" transform="translate(114.41 230.33)"/>
</g>
<g fill="#d2c6af" fill-opacity=".982" transform="translate(-114.41 -230.33)">
<path stroke-width=".893" d="m188.16,286.37l3.91-53.54 414.84,3.19 2.15,140.61-422.66,8.64 1.76-98.9z"/>
<path stroke-width=".923" d="m176.89,377.29s111.12,5.9 221.56,5.9c110.43,0 220.16-5.9 220.16-5.9l.08,59.22s-130.39,5.97-217.77,5.58c-86.76-.38-222.68-7.12-222.68-7.12l-1.35-57.68z"/>
</g>
<g transform="translate(-114.41 -230.33)">
<path fill="#666" filter="url(#filter3321)" stroke-width=".869" d="m384.07,249.63c6.69-.37 15.44,.21 22.99,1.6 1.54,.28 2.57,10.57 2.77,12.2 .85,7.07 2.59,12.71 1.12,19.27-1.02,4.54-.9,9.52-.95,14.15-.12,10.5 2.04,26.54 4.01,36.84 1.11,5.81 .12,11.08 .12,17.09v11.73c0,4.27-2.09,5.67-5.37,7.84-4.09,2.71-15.4,4.08-20.21,5.13-10.66,2.32-5.48-20.07-4.84-24.88 1.23-9.17 .71-20.68-.35-29.94-1.05-9.2-.94-18.42-.94-27.7 0-9.99 .51-20.03 1.82-29.83 .7-5.15 1.09-8.4-.17-13.5z"/>
</g>
<g fill="#d3c7b0" stroke-width=".869" transform="translate(-114.41 -230.33)">
<path d="m196.95,237.66c17.47-5.15 34.52,1.18 52.26-2.35 16.4-.4 32.76-1.31 48.85-4.52 14.38-.52 27.98,9.72 41.33,9.24 8.76-.32 11.89,.89 24.11-1.12 9.86-1.07 16.61-.53 31.79-.66-1.86,15.61-3.98,34.58 1.7,50.05 5.17,20.66-.05,41.77-1.64,62.4 1.92,12.24-20,7.38-28.81,9.14-19.31-.86-39.3,2.1-57.96-4.55-19.71-4.07-40.31-.33-59.85-4.67-13.81-4.31-28.86-1.68-42.42-7.23-10.87-1.41-27.08,3-18.58-14.1 3.85-14.93 1.77-30.93 7.19-45.56 4.31-15.77-.4-30.7 2.03-46.07z"/>
<path d="m399.98,236.19c2.03-7.13 37.9-3.45 45.86-3.83 15.18-.71 30.55,.44 45.56,2.36 6.34,.81 11.04,1.4 18.22,.65 12.03-1.25 24.61,.89 36.6,1.3 7.64,.25 15.77,.58 23.34,1.41 6.81,.75 13.89,1.89 20.75,1.89 5.49,0 6.2,1.37 10.9-.89 1.35-.64 .89,12.4 .53,15.15-1.51,11.59-6.02,23.57-3.77,35.07 1.59,8.13 6.84,15.05 9.37,22.76 1.99,6.04 1.3,13.62 1.3,19.92 0,3.56 1,8.2 1,11.91 0,2.06-27.35,2.12-29.7,2.12-15.05,0-30.14-1.15-45.16-.3-10.51,.6-17.54,5.61-27.88,7.31-12.38,2.05-24.81,1.97-37.13,5.31-8.38,2.26-18.95,2.12-27.53,2.12-11.39,0-20.46,1.03-31.35-.77-3.09-.51-6.83-.47-9.32-1-1.45-.31 .95-18.86 1.12-20.75 .82-9.02 3.44-17.03-.88-25.34-3.86-7.44-6.95-13.4-3.6-20.58 3.45-7.36 4.44-15.77 2.66-23.69-1.59-7.05 .9-15.61 1.76-22.75 .39-3.23-2-6.19-2.65-9.38z"/>
</g>
<g transform="translate(-114.41 -230.33)">
<path fill="#666" stroke-width=".869" d="m179.84,304.38c3.07-.4 6.49,1.41 9.61,2.28 3.2,.91 5.8,3.63 6.56,6.85 .91,3.83-1.53,8-1.28,11.89 .16,2.47 1.58,6.49 3.31,8.25 2.47,2.51 8.35,3.03 11.57,3.8 4.54,1.09 9.17,1.6 13.73,2.53 3.51,.72 7.66-.15 10.85,1.55 1.47,.78 1.79,1.33 3.01,2.36 1.58,1.32 1.35,5.69 1.35,7.58 0,5.14-5.65,2.94-8.78,2.41-6.9-1.2-13.69-2.15-20.68-2.78-5.94-.53-11.86-1.24-17.81-1.73-5.23-.43-13.7,.29-16.46-5.23-1.86-3.73 .16-9.21 1.33-12.86 1.27-3.95 1.33-8.12 1.33-12.23 0-3.1-.1-6.52-.38-9.63-.14-1.54-.04-3.11 1.01-4.11 .3-.29 .63-.77 .85-.99 .04-.04 .11,.06 .88,.06z"/>
</g>
<g fill-opacity=".982">
<g transform="translate(-114.41 -230.33)">
<path fill="#d2c6af" stroke-width=".826" d="m117.19,297.06c-7.19,17.89 4.03,123.91 7.21,146.58 15.99,2.53 41.57,2.34 51.76,3.07 .42-24.12 3.52-47.21 4.89-54.53 4.95-14.67-.53-21.68 2.09-34.14 2.34-15.8 7.52-50.16 3.7-54.08-3.65-3.76-19.7-4.82-27.99-5.14-20.23-1.86-23.38-3.18-41.66-1.76z"/>
</g>
<g stroke-width=".98">
<g transform="translate(-114.41 -230.33)">
<path fill="#d2c6af" d="m182.94,376.45l.49-15.64 2.01-19.59s25.82,.25 51.33,4.01c26.44,3.9 27.7,7.01 54.27,9.85 24.26,2.59 29.78,6.32 56.5,6.62 24.57,.28 39.07,.38 49.66-.33 1.56,5.46 3.09,3.22 3.77,6.99 .67,3.77-1.89,4.45-1.89,4.45l-1.74,5.89 1.42,9.61s-24.99-.8-49.8-1.24c-24.82-.44-35.94,.39-58.21-2.86-17.2-2.5-107.81-7.76-107.81-7.76z"/>
</g>
<g fill="#28220b" transform="translate(-114.41 -230.33)">
<path d="m136.95,444.81c1.43,3.35 2.41,6.97 1.78,10.63-.01,3.23 .74,8.08 1.11,11.27 6.28-1.44 12.29,.78 18.59,.5 1.8-2.79 1.37-8.19 2.3-11.35 .43-3.16 2.02-6.39 2.2-9.39-3.23-.1-6.59,.21-9.89-.17-4.71-.32-9.39-.93-14.1-1.24"/>
<path d="m629.76,447.57c1.89,3.11 3.38,6.55 3.28,10.27 .44,3.2 1.87,7.89 2.7,10.99 6.01-2.31 12.28-.97 18.47-2.14 1.38-3.02 .19-8.31 .67-11.56-.03-3.19 1.08-6.61 .84-9.61-3.21,.36-6.5,1.14-9.82,1.23-4.71,.36-9.43,.42-14.13,.78"/>
</g>
</g>
</g>
<g transform="translate(-114.41 -230.33)">
<path fill="#666" stroke-width=".869" d="m583.92,320.08c3.62-2.57 9.97-5.41 14.59-8.4 2-1.29 3.43-2.48 5.69-3.51 4.41-1.99 4.79,1.55 5.39,4.95 .73,4.22 2.24,8.42 3.67,12.42 1.36,3.78 1.49,7.95 1.27,11.9-.2,3.57-1.02,6.74-.56,10.35 .27,2.13-5.75,2.57-7.6,3-7.8,1.8-16.08,2.25-24.06,2.75-5.08,.32-9.84-2.08-14.43-3.85-4.32-1.66-9.74-1.29-14.15-.36-5.04,1.05-10.36,.08-8.74-6.53 .99-4.04 8.59-8.8 12.1-10.06 5.45-1.95 9.41-3.75 14.05-7.18 3.32-2.45 5.95-4.57 9.93-6.11 1.47-.57 .43-.43 2.85,.63z"/>
<path fill="#d2c6af" fill-opacity=".982" stroke-width=".792" d="m606.25,308c1.45,22.67 10.37,108.29 13.03,139.96 15.4,.05 41.54-3.26 51.22-4.07 3.55-23.68 3.51-36.75 5.09-54.7 1.31-14.85 1.05-20.54 1.67-32.8-.15-15.42 7.74-51.27 3.58-54.44-4-3.05-27.34,.64-35.18,1.56-19.28,1.22-22.44,.42-39.41,4.49z"/>
</g>
<g stroke-width=".98">
<g transform="translate(-114.41 -230.33)">
<path fill="#d2c6af" fill-opacity=".982" d="m398.94,388.4s.03-1.11 .07-3c.04-1.9-1.33-5.15-1.26-8.28s4.32-3.7 4.41-7.41c.1-3.71-1.72-3.98-.18-7.9 15.79,2.65 43.48-2.32 55.41-2.26 17.92,.08 30.09-2.41 45.93-5.46 33.35-6.44 34.02-6.52 58.88-10.33 26.56-4.06 47.42-3.9 47.42-3.9l3.56,39.21s-80.81,3.55-107.04,5.71c-26.09,2.14-51.5,3.56-71.6,3.59-20.11,.02-35.6,.03-35.6,.03z"/>
</g>
<g fill="#d3c7b0" transform="translate(-114.41 -230.33)">
<path d="m469.32,354.91c7.95-4.37 22.05-8.08 28.32-15.98 11.35-5.39 17.1-13.17 24.72-18.8 19.46-12.87 31.44-19.26 53.64-25.02 14.72-3.31 30.29-3.85 45.19-3.18 10.65-.7 21.37-1.55 31.79,.23-7.57,4.65-14.45,11.68-23.75,12.68-8.2,3.04-19.16,.28-24.61,8.68-4.86,7.97-10.69,15.58-19.98,18.6-10.93,4.64-21.57,9.96-32.61,14.32-13.11,1.81-26.16,3.94-39.21,6.09-13.67,.63-26.48,4.9-40.31,5.53-2.75,2.11-7.86-1.8-3.19-3.15z"/>
<path d="m467.94,356.64c15.37-4 32.96-15.61 48.82-18.12 25.66-9.55 50.45-21.24 75.21-32.88 14.07-6.45 30.07-6.82 44.22-13.22 4.89-1.21 9.96-1.7 14.99-1.43"/>
<path d="m157.48,283.6c7.76,1.32 15.39,3.33 23.04,5.04 6.21-.44 12.64-.24 17.65,3.99 7.28,4.04 14.45,9.46 17.09,17.71 3.07,6.45 4.97,13.51 8.22,19.8 2.32,3.83 16.43,11.31 16.85,14.17-7.11-1.05-32.23-3.14-38.94-4.46-12.64-1.8-13.35-4.46-11.8-13.69-.13-5.11-1.23-3.28-.01-12.88 .74-6.72-6.82-14.47-13.32-13.56-10.04-1.32-18.48-2.99-20.08-12.17-.18-1.45 .6-2.75 1.3-3.95z"/>
</g>
</g>
</g>
<g transform="translate(-114.41 -230.33)">
<path fill="none" stroke-width=".98" d="m158.04,284.15c6.26-1.1 10.79,4.07 15.96,6.59 7.42,4.37 15.53,7.84 22.11,13.44 3.63,4.67 7.69,8.92 11.87,13.08 3.73,4.34 7.06,8.95 9.91,13.89 3.01,4.23 6.69,7.95 11.27,10.47l10.26,2.15"/>
<path fill="#666" fill-rule="evenodd" stroke-width=".869" d="m198.4,1.657z"/>
</g>
</g>
</svg>
