<svg xmlns="http://www.w3.org/2000/svg" viewBox="0 0 198.71 267.108" enable-background="new 0 0 198.71 267.108">
<path fill="#ff7021" d="m118.63,216.26c15.074-19.321 30.347-38.382 44.727-58.238 7.056-9.743 13.26-19.967 19.409-30.291 5.39-9.048 11.323-20.028 13.408-30.449 5.933-29.642-2.521-64.016-33.229-75.906-15.567,53.601-31.135,107.2-46.702,160.8-3.625,12.479-7.249,24.96-10.874,37.439 4.41-1.12 8.83-2.24 13.25-3.36"/>
<path fill="#eb490c" d="m108.89,218.61c3.879-19.206 7.882-37.785 13.32-56.565 9.576-33.073 19.152-66.147 28.729-99.221 4.001-13.816 8.001-27.633 12.002-41.449 10.804,3.34 18.13,10.481 21.915,21.075 3.994,11.178 6.092,22.935 5.496,34.836-1.217,24.32-15.943,46.695-27.798,67.214-7.764,13.438-16.307,26.452-24.586,39.575-4.313,6.837-8.61,13.686-12.795,20.603-2.252,3.724-4.447,7.482-6.67,11.223-.9,1.5-8.2,2.77-9.62,2.71"/>
<path fill="#f00" d="m105.53,219.45c7.811-10.503 15.621-21.005 23.431-31.508 4.405-5.924 8.811-11.848 13.216-17.771 2.489-3.347 4.872-4.609 9.012-1.751 4.482,3.095 .207,6.056-2.236,9.415-3.515,4.831-7.318,9.487-11.03,14.168-3.6,4.538-7.176,9.107-10.885,13.557-2.604,3.123-5.896,10.055-9.91,11.084-3.51,.89-8.3,2.85-11.6,2.8"/>
<path fill="#ffd900" d="m198.36,82.643c-2.91-3.669-6.505-7.132-11.985-7.678-2.199-.219-1.919,.025-2.738-2.018-1.237-3.083-2.474-6.166-3.711-9.248-5.661-14.108-11.322-28.217-16.983-42.326 12.712,5.262 20.685,13.15 27.757,24.833 6.51,10.776 7.26,24.235 7.65,36.437"/>
<path fill="#bf0000" d="m148.5,167.24c-5.722,9.441-11.751,18.685-17.573,28.063-2.942,4.738-5.979,9.447-8.766,14.277-.686,1.189-2.879,6.407-4.013,6.711l-9.264,2.481c1.02-5.265 2.479-7.181 5.683-11.488 5.308-7.137 10.614-14.272 15.922-21.408 4.322-5.812 8.645-11.623 12.967-17.435 1.48-1.99 3.27-1.74 5.04-1.2"/>
<path fill="#ffa300" d="m178.55,30.438c8.959,13.786 11.75,29.27 11.75,45.49-1.117-.555-5.741-.672-6.039-1.415-2.179-5.431-4.358-10.862-6.538-16.294l-14.784-36.846c5.51,1.704 12.06,5.581 15.61,9.065"/>
<path fill="#ff7021" d="m114.93,216.26c12.064-21.341 25.105-42.117 37.716-63.139 6.388-10.648 12.223-21.591 17.978-32.591 5.198-9.936 10.331-21.109 12.269-32.208 4.255-24.375-2.2-49.595-19.481-67.477-2.74-2.834-20.133-14.417-21.46-6.954-1.583,8.899-3.165,17.798-4.748,26.697-10.49,58.955-20.98,117.91-31.46,176.87-.128,.72-.256,1.438-.384,2.158 3.18-1.12 6.37-2.24 9.56-3.36"/>
<path fill="#eb490c" d="m106.54,217.6c7.363-54.338 18.51-108.28 28.072-162.26l6.426-36.273c.406-2.293 .813-4.587 1.219-6.88 .434-2.447 10.843,1.668 12.291,2.392 10.501,5.245 14.186,18.755 16.617,29.389 2.496,10.911 3.019,23.603 1.179,34.631-4.021,24.107-16.497,47.163-26.669,69.159-10.192,22.042-20.627,43.942-30.337,66.207-1.5,3.41-5.11,3.91-8.8,3.63"/>
<path fill="#f00" d="m143.8,137.2c3.767-2.278 9.362-1.846 13.094,.336 3.905,2.283 3.182,3.741 1.424,7.137-4.831,9.329-9.974,18.437-15.523,27.357-5.344,8.59-11.085,16.934-16.545,25.452-2.781,4.339-5.641,8.657-8.164,13.153-1.133,2.02-2.012,5.224-4.286,6.021-2.813,.987-5.626,1.975-8.438,2.962 1.514-8.483 3.026-16.967 4.54-25.45 1.016-5.692 6.324-12.913 9.131-17.989 3.896-7.047 7.875-14.04 11.909-21.009 3.34-5.75 7.55-13.88 12.87-17.97"/>
<path fill="#bf0000" d="m150.18,135.69c-6.394,14.828-13.331,29.407-19.888,44.158-3.068,6.903-6.078,13.835-9.184,20.721-1.83,4.06-3.612,8.12-5.33,12.228-.484,1.159-.826,3.511-2.177,3.751-2.299,.408-4.598,.817-6.896,1.226 .613-4.954 1.227-9.907 1.84-14.861 .39-3.144 .329-7.357 1.769-10.129 4.222-8.129 8.503-16.213 12.936-24.229 4.209-7.613 8.617-15.112 13.502-22.313 3.67-5.42 6.4-10.52 13.43-10.56"/>
<path fill="#ffd900" d="m184.09,74.754c-3.42-4.807-10.932-5.508-16.213-4.447-2.85,.572-6.052-11.322-7.052-13.728-6.178-14.869-12.354-29.738-18.532-44.606 7.312,.188 12.541,1.951 18.351,6.518 5.877,4.619 10.353,10 14.296,16.308 3.31,5.294 6.396,12.573 7.327,18.782 .87,5.869 3.46,15.595 1.81,21.173"/>
<path fill="#ffa300" d="m148.67,12.141c11.84,2.759 17.198,13.519 20.516,24.214 1.832,5.908 2.765,11.81 3.549,17.932 .365,2.857 1.717,14.308-.229,15.599-1.279,.849-5.86,.707-6.343-.455-2.428-5.844-4.856-11.688-7.284-17.531-5.499-13.238-10.999-26.475-16.499-39.713-.029-.071-.06-.143-.089-.214 1.93,.05 5.05,.118 6.37,.168"/>
<path fill="#ff7021" d="m110.23,216.26c9.29-22.388 19.429-44.345 29.203-66.518 5.021-11.391 10.175-22.739 14.773-34.308 4.339-10.914 9.518-22.341 11.217-34.034 3.163-21.763 .569-52.576-17.426-67.913-4.104-3.497-9.334-6.483-14.771-7.051-1.786-.187-8.86,.024-9.115,2.51-.768,7.469-1.535,14.938-2.302,22.408-6.231,60.654-12.462,121.31-18.693,181.96-.146,1.429-.294,2.858-.44,4.287 2.53-.45 5.05-.89 7.56-1.34"/>
<path fill="#eb490c" d="m109.73,216.26c-2.084,.273-4.674-.28-6.881-.5l17.091-166.21c1.181-11.49 2.362-22.98 3.544-34.47 .221-2.145 .441-4.289 .661-6.434 .276-2.68 9.355-2.349 11.016-1.875 9.373,2.678 13.825,15.111 16.391,23.736 3.442,11.57 3.501,23.8 3.501,35.761 0,10.674-3.781,22.104-6.704,32.271-3.565,12.4-7.409,24.702-11.337,36.991-7.209,22.554-14.904,44.979-22.618,67.364-1.44,4.2-2.97,9.89-4.66,13.37"/>
<path fill="#f00" d="m102.68,217.6c.695-6.738 1.391-13.477 2.087-20.216 .556-5.387 2.11-9.155 4.173-14.201 4.487-10.973 8.973-22.03 13.985-32.776 1.975-4.232 3.846-12.096 8.794-13.38 1.543-.4 13.289,.132 12.02,3.18-4.54,10.903-9.343,21.695-14.248,32.438-3.897,8.536-7.712,17.108-11.595,25.65-1.793,3.946-3.552,7.912-5.192,11.924-.37,.904-1.739,5.906-2.645,6.067-2.44,.45-4.9,.88-7.36,1.32"/>
<path fill="#bf0000" d="m109.73,216.26c-2.084,.273-4.674-.28-6.881-.5 .438-4.212 .877-8.424 1.315-12.636 .354-3.404-.091-8.529 1.271-11.702 3.241-7.557 6.24-15.219 9.546-22.747 3.35-7.628 6.569-15.317 10.092-22.866 2.509-5.379 4.556-10.522 11.515-8.943-4.268,13.106-8.819,26.117-13.178,39.193-2.442,7.329-4.987,14.62-7.385,21.964-1.89,5.81-3.89,13.23-6.29,18.25"/>
<path fill="#ffd900" d="m135.75,6.938c26.932,8.57 30.719,39.412 30.719,63.62-2.412-2.985-6.776-3.854-10.39-4.153-1.105-.092-7.426,1.242-7.558,.925-3.324-8.037-6.647-16.073-9.972-24.11-4.215-10.19-8.43-20.381-12.645-30.571-.633-1.529-2.688-4.057-.646-4.871 3.4-1.353 6.96-1.927 10.5-.84"/>
<path fill="#ffa300" d="m135.75,6.938c3.534,.334 6.646,4.67 8.646,7.47 3.595,5.032 5.656,10.714 7.404,16.59 1.553,5.219 2.481,11.038 2.783,16.469 .159,2.867 .472,5.767 .472,8.638 0,1.857 1.146,8.993 0,10.257-.544,.601-6.468,1.126-6.618,.763-2.209-5.341-4.418-10.682-6.627-16.023-5.767-13.943-11.533-27.885-17.301-41.828-1.32-3.207 9.46-2.885 11.25-2.336"/>
<path fill="#ff7021" d="m105.53,216.26c15.168-46.276 32.349-92.582 42.231-140.35 2.383-11.52 .677-24.06-.589-35.607-1.205-10.985-6.014-23.88-14.448-31.26-4.167-3.646-9.2-5.915-14.772-6.127-2.479-.095-4.997,.316-7.218,1.428-3.129,1.565-2.593,4.958-2.993,8.084-1.631,12.71-1.8,25.842-2.615,38.622-3.044,47.65-5.808,95.387-7.836,143.09-.222,5.217-.363,10.443-.67,15.655-.12,2.042-1.434,5.344 .949,5.599 2.457,.25 6.127,.59 7.967,.86"/>
<path fill="#eb490c" d="m98.986,215.59c1.78-48.048 2.055-96.082 4.848-144.1 .676-11.61 1.494-23.211 2.209-34.818 .367-5.964 .798-11.92 1.222-17.88 .282-3.961-.808-13.319 4.06-14.709 2.445-.699 4.364-1.176 6.967-1.176 2.564,0 5.06,3.894 6.45,5.71 3.482,4.55 5.336,10.411 6.447,15.97 2.37,11.86 2.849,23.946 2.493,36.024-.677,22.971-4.314,46.571-8.856,69.077-4.899,24.283-10.216,48.466-16.679,72.386-1.088,4.025-2.176,8.05-3.263,12.075-.84,3.1-2.84,1.71-5.894,1.43"/>
<path fill="#f00" d="m105.53,216.26c-2.294-.224-4.587-.446-6.881-.67 1.614-10.52 3.862-21.046 6.922-31.249 1.583-5.276 3.035-10.587 4.829-15.795 .532-1.543 1.321-5.354 2.937-6 2.146-.858 4.378-.794 6.63-.419 5.059,.842 .928,7.06-.026,10.24-1.454,4.845-3.12,9.622-4.674,14.435-1.528,4.734-3.144,9.435-4.627,14.185-1.45,4.66-2.6,11.31-5.11,15.28"/>
<path fill="#bf0000" d="m104.19,216.09c-1.735-.168-3.47-.335-5.205-.503 .888-4.311 1.16-9.059 2.182-13.526 1.386-6.055 3.022-12.049 4.603-18.056 1.511-5.743 3.144-11.499 5.134-17.098 1.543-4.34 2.945-5.035 7.219-5.035-2.084,8.923-4.264,17.812-6.421,26.715-1.219,5.034-2.593,10.021-3.917,15.028-.94,3.57-1.75,9.51-3.59,12.48"/>
<path fill="#ffd900" d="m120.3,3.077c27.469,5.782 28.299,42.466 28.369,64.625-5.033-4.205-15.783-6.076-21.484-2.18-4.461-11.89-8.241-24.079-11.796-36.269-1.845-6.325-3.712-12.65-5.632-18.952-1.123-3.687-1.499-5.351 2.654-6.721 2.46-.808 6.09-.705 7.89-.503"/>
<path fill="#ffa300" d="m118.79,2.909c12.12,7.795 13.899,25.745 14.602,38.857 .34,6.331 .338,12.632 .338,18.971 0,2.308 .081,2.285-1.68,3.106-1.582,.738-3.332,.722-4.865,1.679-4.346-11.582-8.059-23.453-11.521-35.327-1.839-6.306-3.739-12.594-5.602-18.894-.896-3.033-2.538-5.242 .67-7.049 2.41-1.353 5.39-1.343 8.06-1.343"/>
<path fill="#eb490c" d="m70.955,213.57c-14.217-20.137-28.029-40.467-41.22-61.291-12.145-19.17-25.733-42.17-28.628-64.999-3.657-28.835 9.525-60.545 38.625-69.936 12.529,54.446 25.059,108.89 37.588,163.34 2.857,12.418 5.715,24.835 8.573,37.253-4.66-1.3-10.896-2.07-14.938-4.36"/>
<path fill="#bf0000" d="m49.636,163.72c6.009,9.279 12.018,18.558 18.027,27.837 3.949,6.098 7.898,12.195 11.847,18.293 1.75,2.702 3.318,6.613 6.383,8.087-3.992-1.121-7.984-2.243-11.977-3.364-3.528-.991-4.297-2.748-6.319-5.784-4.132-6.203-8.567-12.249-12.904-18.315-3.986-5.577-7.703-11.336-11.543-17.011-1.652-2.441-4.973-4.959-2.746-7.729 1.967-2.46 6.488-2.46 9.232-2.02"/>
<path fill="#ffa300" d="m39.565,17.345c-4.618,12.587-10.611,24.742-16.601,36.728-1.409,2.82-6.089,15.812-8.982,15.521-6.49-.653-10.922,3.812-13.527,9.188 1.151-27.288 12.235-51.58 39.11-61.437"/>
<path fill="#eb490c" d="m74.982,214.92c-10.59-22.119-22.398-43.587-33.458-65.469-5.583-11.047-10.875-22.146-15.735-33.528-4.454-10.43-8.899-21.692-10.139-33.03-2.656-24.295 5.052-49.185 23.373-65.728 4.294-3.877 9.798-6.216 15.22-7.959 2.641-.849 6.656-1.018 7.011,1.959 1.049,8.805 2.098,17.61 3.147,26.416 7.078,59.392 14.155,118.78 21.232,178.18 .086,.728 .173,1.454 .26,2.182-3.617-1.02-7.246-2.24-10.911-3.02"/>
<path fill="#ff7021" d="m83.375,215.25c-10.473-22.18-22.399-43.581-33.458-65.468-5.603-11.089-10.857-22.27-15.735-33.694-4.426-10.366-8.905-21.596-10.138-32.865-2.658-24.29 5.039-49.34 23.373-65.894 4.295-3.878 9.745-6.236 15.22-7.801 2.702-.772 6.648-1.241 7.011,1.801 1.049,8.805 2.098,17.61 3.147,26.416 7.077,59.392 14.154,118.78 21.231,178.18 .086,.728 .173,1.454 .26,2.182-3.619-.97-7.249-2.12-10.911-2.86"/>
<path fill="#bf0000" d="m36.544,139.71c-.42-4.696 13.913-6.11 15.484-2.546 3.796,8.613 7.592,17.227 11.389,25.84 7.966,18.075 17.245,35.854 22.477,54.929-1.924-.541-10.063-1.58-10.84-3.227-1.921-4.069-3.923-8.054-6.02-12.036-3.735-7.093-7.438-14.2-11.209-21.274-3.544-6.647-7.124-13.266-10.548-19.978-3.465-6.78-6.212-15.79-10.733-21.7"/>
<path fill="#f00" d="m85.223,215.59c-3.368,.189-8.938-15.129-10.634-18.373-3.348-6.405-6.531-12.9-9.967-19.261-7.528-13.937-14.729-28.044-21.7-42.268 2.428-.655 5.319-.421 7.637,.505 1.84,.733 2.005,2.195 2.804,4.008 4.089,9.277 8.179,18.556 12.268,27.834 4.603,10.443 9.206,20.887 13.808,31.329 2.055,4.65 5.84,11.71 5.784,16.22"/>
<path fill="#ffa300" d="m54.503,9.12c2.107,.108 4.215,.216 6.322,.324 .591,.03 .767,5.027 .837,5.675 .494,4.569 .725,7.874-.334,12.375-1.991,8.465-3.988,16.89-6.565,25.201-1.193,3.846-2.555,7.751-3.532,11.652-.332,1.322-12.082,1.458-13.704,1.609-7.858,.734-15.29-1.414-22.302,3.763-1.207-5.01 1.21-13.271 2.267-18.551 1.343-6.711 4.311-12.668 7.506-18.659 6.083-11.404 17.379-19.657 29.505-23.389"/>
<path fill="#ffd900" d="m61.05,9.792c.431,3.875 .861,7.749 1.292,11.624 .352,3.167-1.362,7.563-2.088,10.649-1.709,7.265-3.574,14.451-5.786,21.582-1.016,3.277-1.896,6.585-2.979,9.843-.86,2.583-7.363,1.851-9.861,2.084-6.005,.562-11.98-.362-17.842,.62 2.005-12.03 4.574-23.314 10.911-33.908 3.225-5.391 7.122-9.99 11.874-14.063 4.467-3.831 9.791-5.531 14.479-8.431"/>
<path fill="#eb490c" d="m79.683,215.25c-7.629-22.892-16.476-45.277-24.663-67.963-4.245-11.763-8.693-23.469-12.605-35.346-3.695-11.218-7.82-23.051-8.915-34.871-2.038-22.006 3.096-52.358 21.842-66.609 3.876-2.947 10.683-6.762 15.78-6.126 1.958,.244 8.155,.708 8.254,3.375 .297,7.906 .594,15.813 .891,23.719 2.277,60.676 4.554,121.35 6.832,182.03 .046,1.213 .091,2.425 .137,3.638-2.518-.62-5.036-1.23-7.553-1.85"/>
<path fill="#ff7021" d="m86.732,215.42c-7.646-22.934-16.439-45.387-24.716-68.09-8.273-22.693-19.307-46.759-21.554-71.035-1.116-12.06 .704-24.749 4.053-36.372 3.057-10.608 8.46-23.136 18.119-29.45 4.686-3.063 10.375-6.339 16.209-5.885 2.02,.157 7.493,.869 7.59,3.452 .304,8.104 .608,16.208 .913,24.312 2.272,60.53 4.544,121.06 6.816,181.59 .042,1.108 .083,2.216 .125,3.323-2.519-.61-5.037-1.22-7.555-1.84"/>
<path fill="#bf0000" d="m48.964,130.65c7.533-4.791 14.92-1.439 20.982,3.526 2.248,1.841 3.741,2.542 4.258,5.313 .88,4.717 1.76,9.433 2.641,14.149 3.904,20.921 9.649,42.15 10.391,63.459l-6.174-1.509c-2.139-.522-2.014-2.206-2.716-4.272-1.447-4.263-2.957-8.496-4.481-12.731-2.768-7.69-5.67-15.305-8.649-22.916-2.947-7.531-5.914-15.046-8.753-22.618-2.669-7.12-4.395-15.82-7.499-22.4"/>
<path fill="#f00" d="m87.068,215.59c-1.896-2.246-2.539-6.688-3.524-9.568-1.19-3.476-2.36-6.961-3.621-10.411-2.854-7.809-5.752-15.598-8.706-23.368-5.516-14.51-11.213-28.895-16.209-43.603 7.183-1.362 11.464,2.673 16.617,6.966 4.838,4.031 4.47,14.021 5.577,19.952 2.446,13.107 4.892,26.216 7.338,39.323 1.169,6.26 3.71,14.51 2.528,20.71"/>
<path fill="#ffa300" d="m67.765,4.756c3.01-.919 7.438-.37 10.155,1.258 2.178,1.306-1.97,8.585-2.939,10.923-3.285,7.923-7.259,15.518-10.958,23.25-3.432,7.172-7.193,14.371-11.175,21.253-.507,.875-1.049,1.725-1.448,2.654-.501,1.169-.791,.023-1.763,.083-1.809,.113-3.823-.572-5.708-.503-3.531,.128-7.891,.829-10.911,2.687 2.145-23.286 7.508-55.419 34.747-61.605"/>
<path fill="#ffd900" d="m74.814,4.924c1.147,.307 2.284,.722 3.357,1.258 1.778,.889-.928,5.296-1.639,7.011-3.083,7.436-6.577,14.591-10.048,21.846-3.431,7.171-7.213,14.115-10.864,21.171-.907,1.753-1.785,3.521-2.774,5.229-1.039,1.795-1.041,3.205-2.96,2.821-3.271-.652-6.349-.621-9.652-.25 1.536-12.453 3.259-24.487 8.717-35.921 2.593-5.431 5.943-10.602 10.403-14.704 4.782-4.398 10.067-6.347 15.46-8.461"/>
<path fill="#eb490c" d="m84.215,215.59c-11.715-47.26-26.192-94.53-32.741-142.86-1.589-11.723 .944-23.916 2.843-35.459 1.852-11.264 7.931-23.497 16.898-30.592 4.083-3.231 10.221-5.523 15.519-4.864 2.5,.311 5.444,.83 7.302,2.686 1.899,1.898 1.401,5.336 1.428,7.902 .134,13.091 .166,26.177 .166,39.269 0,48.09-.523,96.245-1.558,144.32-.109,5.077-.288,10.157-.288,15.236 0,2.995 .909,3.983-2.122,4.092-2.483,.1-4.965,.2-7.447,.27"/>
<path fill="#ff7021" d="m88.914,215.42c-5.965-24.06-11.926-48.117-17.618-72.243-5.521-23.406-10.942-47.023-13.421-70.966-1.14-11.008 .023-23.996 2.879-34.7 3.109-11.657 6.734-24.599 17.25-31.915 3.776-2.627 9.251-4.5 13.598-2.518 4.639,2.116 3.827,5.945 3.875,10.651 .132,12.845 .188,25.687 .152,38.532-.138,48.846-.568,97.736-1.619,146.58-.078,3.595-.227,7.196-.227,10.792 0,.952 .61,5.004 0,5.623-.56,.57-3.969,.14-4.869,.17"/>
<path fill="#bf0000" d="m91.938,210.38c.154,.626 1.247,3.912 1.006,4.366-.544,1.026-3.065,.619-4.448,.671-2.471,.094-4.192,1.087-4.883-1.399-2.242-8.071-4.201-16.24-6.194-24.378-3.876-15.826-7.833-31.656-12.005-47.409 1.658-.603 3.162-1.773 5.204-1.846 1.168-.041 3.527,.213 4.533,.839 1.598,.993 1.484,2.253 1.973,4.134 1.849,7.126 3.627,14.291 5.292,21.462 1.796,7.735 3.676,15.452 5.502,23.181 1.387,5.88 4.668,14.69 4.02,20.39"/>
<path fill="#f00" d="m92.943,215.25c-.646,.028-3.772,.5-3.918-.052-.521-1.979-1.042-3.959-1.563-5.938-.76-2.888-1.364-5.817-2.103-8.711-1.862-7.29-3.606-14.606-5.362-21.923-3.061-12.759-6.111-25.531-9.379-38.24 1.62,.158 3.366,.255 4.868,1.007 1.972,.985 2.385,6.86 2.941,9.195 1.943,8.16 3.949,16.306 5.917,24.46 3.22,13.32 6.032,26.83 8.599,40.19"/>
<path fill="#ffa300" d="m83.375,1.902c2.19,.086 13.146,.294 11.42,4.705-2.343,5.988-4.687,11.977-7.03,17.966-5.1,13.034-10.201,26.068-15.301,39.102-5.71-3.131-16.424-3.493-21.486,1.008 .259-22.297 5.741-58.334 32.397-62.781"/>
<path fill="#ffd900" d="m57.526,61.827c1.234-11.389 1.548-24.762 6.275-35.398 4.62-10.395 10.566-22.814 23.379-24.241 2.304-.257 6.42,1.028 7.274,2.736 .994,1.988-1.006,5.125-2.005,7.677-3.02,7.717-6.04,15.435-9.06,23.152-3.642,9.307-7.284,18.615-10.926,27.922-4.086-2.497-10.31-2.405-14.937-1.848"/>
<path fill="#eb490c" d="m89.754,215.92c-8.929-48.157-15.728-96.059-17.285-145.06-.357-11.231 .404-23.042 2.464-34.077 2.238-11.986 4.798-24.591 14.424-32.905 2.797-2.416 12.048-6.127 13.788-.91 1.794,5.376 1.549,11.233 1.549,16.84 0,12.122-.584,24.21-1.176,36.313-2.402,49.116-5.198,98.22-7.869,147.32-.263,4.829-.482,9.661-.692,14.493-1.707-.68-3.439-1.49-5.195-2.01"/>
<path fill="#ff7021" d="m78.509,56.96c.997-12.302 2.127-24.353 6.054-36.126 1.953-5.854 4.72-10.628 8.685-15.339 1.491-1.771 4.127-3.167 6.3-3.892 3.001-1 3.922,.659 4.36,3.872 1.55,11.36 1.122,23.466 .407,34.896-.795,12.708-1.281,25.441-1.895,38.16-2.174,45.079-4.84,90.144-7.294,135.21-8.698-47.68-16.786-95.87-16.786-144.49 0-4.101 .047-8.187 .169-12.29"/>
<path fill="#bf0000" d="m94.622,135.69c4.258,5.68 4.119,9.977 3.81,16.993-.335,7.637-.863,15.267-1.232,22.903-.679,14.048-2.305,28.298-2.242,42.354-.842-.337-4.906-1.378-5.066-2.166-.566-2.778-1.132-5.557-1.699-8.335-.853-4.183-1.636-8.383-2.364-12.589-1.634-9.443-3.119-18.899-4.727-28.346-1.521-8.941-2.586-18.034-3.686-27.038-.589-4.828 .878-4.607 5.523-5.537 3.499-.67 9.021,.44 11.683,1.79"/>
<g fill="#f00">
<path d="m98.818,143.91c-.843,23.293-2.633,46.548-3.692,69.83-3.269-17.64-6.383-35.276-9.082-53.014-.441-2.901-4.251-26.613-2.92-26.804 3.042-.435 9.112-.215 11.665,1.763 2.159,1.67 3.214,5.77 4.029,8.22"/>
<path d="m72.634,56.624c1.159-11.986 2.486-23.51 5.882-35.098 2.729-9.313 10.515-23.456 22.402-20.715 6.772,1.561 3.628,24.59 2.771,29.384-2.004,11.21-3.971,22.595-6.715,33.648-6.513-2.87-18.157-4.043-24.509-.169-.058-2.307 .228-4.879 .168-7.05"/>
</g>
<path fill="#ffa300" d="m101.84,.895c3.518,3.955 2.855,11.431 2.855,16.376 0,5.54-.078,11.069-.204,16.608-.226,9.932-1.703,20.076-1.308,29.964-4.991-.834-10.003-1.506-15.064-1.738-4.723-.216-11.367-.663-15.654,1.569-.068-11.209 1.609-22.64 3.82-33.706 2.543-12.764 10.161-32 25.548-29.073"/>
<path fill="#ffd900" d="m78.509,56.96c.895-11.037 1.506-22.492 5.038-33.081 1.83-5.484 3.624-11.164 7.414-15.667 2.343-2.784 8.992-9.892 12.055-5.639 2.714,3.769 1.68,12.071 1.68,16.45 0,5.655-.123,11.3-.252,16.953-.21,9.241-1.628,18.664-1.26,27.866-7.795-2.112-16.852-2.155-24.843-1.511-.007-1.817 .125-3.578 .162-5.371"/>
<path fill="#eb490c" d="m99.994,216.26c12.418-47.117 22.991-94.878 26.847-143.55 .902-11.387 .923-22.938-.272-34.301-1.282-12.193-3.398-24.607-12.143-33.789-1.852-1.943-4.554-2.828-7.049-3.616-1.109-.35-2.603-.362-3.751-.186-2.217,.341-1.793,1.476-2.13,3.495-.887,5.316-1.76,10.617-2.371,15.975-1.35,11.835-1.988,23.762-2.32,35.668-1.375,49.221-1.148,98.545-1.678,147.78-.051,4.734-.169,9.467-.169,14.202 1.494-.49 4.147-1.26 5.032-1.68"/>
<path fill="#ff7021" d="m99.658,216.26c1.116-49.069 1.269-98.174 1.819-147.25 .255-22.663 .776-45.735 4.728-68.109 11.416,1.792 17,15.047 18.669,25.252 2.062,12.608 2.854,25.17 2.488,37.946-.656,22.971-4.316,46.267-8.474,68.833-2.567,13.937-5.243,27.85-8.444,41.655-1.558,6.718-3.035,13.457-4.751,20.137-1.266,4.928-2.53,9.855-3.796,14.782-.43,1.63-.92,6.29-2.252,6.76"/>
<path fill="#bf0000" d="m119.97,134.18c-2.232,14.691-5.581,29.119-9.398,43.476-1.887,7.094-3.867,14.161-5.758,21.254-1.043,3.911-2.089,7.821-3.14,11.729-.344,1.281-.583,4.644-1.511,5.623-.883,.933-3.944,1.273-5.204,1.68 .146-19.243-.503-38.533-.503-57.789 0-4.44-.053-8.884 .001-13.324 .029-2.387-1.246-13.034 .768-14.041 8.398-4.2 17.228-2.05 24.748,1.39"/>
<path fill="#f00" d="m119.97,134.18c-2.139,14.071-5.008,27.956-8.528,41.746-1.736,6.8-3.486,13.61-5.403,20.362-.921,3.246-1.951,6.461-2.892,9.701-.887,3.052-1.372,8.077-3.319,10.441v-52.726c0-9.611 .158-19.219 .288-28.829 .039-2.891-.597-3.205 2.062-4.053 1.983-.633 5.056-.45 7.114-.292 3.75,.28 8.07,1.57 10.68,3.65"/>
<path fill="#84442f" d="m81.026,263.26c-1.015,4.249 7.103,2.604 9.681,2.706 2.136,.084 14.052,2.581 13.315-1.529-4.019-.176-8.036-.352-12.055-.527-3.288-.15-8.021,.32-10.939-.65"/>
<path fill="#c1d8f1" d="m102.01,251.17c.16-3.537 .32-7.074 .481-10.611 .225-4.969 .039-4.172-5.014-4.496-.102,3.021-.203,6.04-.305,9.061-.061,1.805 1.023,6.7-1.877,5.88 .204-4.802 .408-9.604 .612-14.405 .125-2.94 1.153-2.201 4.255-2.047 2.341,.116 4.264-.541 4.163,1.807-.213,4.994-.425,9.987-.638,14.98-.51-.05-1.19,.02-1.67-.17"/>
<path fill="none" stroke="#000" stroke-linecap="square" stroke-width="1.1" d="m102.01,251.17c.16-3.537 .32-7.074 .481-10.611 .225-4.969 .039-4.172-5.014-4.496-.102,3.021-.203,6.04-.305,9.061-.061,1.805 1.023,6.7-1.877,5.88 .204-4.802 .408-9.604 .612-14.405 .125-2.94 1.153-2.201 4.255-2.047 2.341,.116 4.264-.541 4.163,1.807-.213,4.994-.425,9.987-.638,14.98-.51-.05-1.19,.02-1.67-.17" stroke-miterlimit="10"/>
<path fill="#ffd900" d="m89.083,241.1c.259,1.988 .717,3.045 1.343,4.197 .438,.806 .999,1.229 1.343,2.518 .162,.606 .711,3.093 .336,3.691-.753,1.2-7.042,1.796-8.561,2.184 .515-2.513 2.794-6.599 2.668-8.874-.103-1.86-.201-5.5 2.871-3.72"/>
<path fill="none" stroke="#000" stroke-linecap="square" stroke-width=".9" d="m89.083,241.1c.259,1.988 .717,3.045 1.343,4.197 .438,.806 .999,1.229 1.343,2.518 .162,.606 .711,3.093 .336,3.691-.753,1.2-7.042,1.796-8.561,2.184 .515-2.513 2.794-6.599 2.668-8.874-.103-1.86-.201-5.5 2.871-3.72" stroke-miterlimit="10"/>
<path d="m85.558,249.66c-.224,1.642 .241,4.159-2.014,4.029 .351-2.342 .927-4.852 1.847-7.051 .055,1.01 .111,2.02 .167,3.02"/>
<path d="m86.229,242.11c1.819,.614 2.502,2.998 .337,3.524-.112-1.17-.224-2.35-.337-3.52"/>
<path fill="#ffb8bd" d="m87.571,243.28c-.571-.116-.623,.245-1.005-.169-.142,.74-.012,1.024 .166,1.848 1.06-.628 .64-.534 .672-1.008 .368-.3 .315-.4 .167-.67"/>
<path fill="#ffa300" d="m89.754,245.46c-.422,1.436-.42,2.879-.503,4.365 .448-.167 .895-.335 1.343-.502-.882,1.442-1.449,3.34-3.358,3.523 .336-1.119 .672-2.237 1.009-3.356-.867,.051-1.558-.468-1.847-.505 2.439,.75 2.632-2.3 3.356-3.52"/>
<path fill="#c1d8f1" d="m90.426,250.67c.161-3.536 .322-7.072 .483-10.608 .226-4.97 .038-4.171-5.016-4.499-.102,3.021-.203,6.04-.305,9.061-.061,1.804 1.023,6.699-1.876,5.88 .212-4.993 .425-9.986 .638-14.98 .127-2.981 4.516-1.456 6.89-1.337 2.377,.119 1.477,2.313 1.377,4.65-.094,2.19 .818,13.26-2.191,11.84"/>
<path fill="none" stroke="#000" stroke-linecap="square" stroke-width="1.1" d="m90.426,250.67c.161-3.536 .322-7.072 .483-10.608 .226-4.97 .038-4.171-5.016-4.499-.102,3.021-.203,6.04-.305,9.061-.061,1.804 1.023,6.699-1.876,5.88 .205-4.802 .409-9.604 .613-14.405 .148-3.474 2.952-2.11 6.162-1.95 2.851,.144 2.292,.856 2.167,3.794-.129,3.04-.259,6.081-.389,9.122-.073,1.7 .707,4.507-1.84,3.775" stroke-miterlimit="10"/>
<path fill="#ff7f00" d="m98.147,240.77c1.864,1.098 .72,2.045 1.006,3.526 .165,.854 .768,.979 .988,2.082 .611,3.057 2.16,4.816-1.07,5.723-2.758,.772-3.508-.352-5.905-1.949-.554-.369 .38-2.665 .522-3.258 .381-1.589 1.889-.779 2.276-1.758 .611-1.54-1.345-5.18 2.184-4.36"/>
<path fill="none" stroke="#000" stroke-linecap="square" stroke-width=".9" d="m98.147,240.77c1.751,1.032 .694,1.871 1.006,3.189 .105,.443-.378,.483-.336,.839 .091,.762 1.081,.365 1.216,1.04 .367,1.833 2.126,5.396 .048,5.979-3.306,.928-3.467,.633-6.339-1.281-1.85-1.232-.039-4.647 1.7-5.226 1.211-.402-1.087-5.77 2.705-4.371" stroke-miterlimit="10"/>
<path d="m99.322,242.44c-4.051,.01-.901,5.39 0,0"/>
<path fill="#ffb8bd" d="m98.484,243.96c.105-.304 .522-.252 .168-.84-1.058,.134-1.271,.663-.504,1.679 .696-.2 .34-.51 .336-.84"/>
<path fill="#bf7242" d="m89.083,248.82c-.144,4.315-.287,8.63-.431,12.945-.121,3.64-.689,2.831-4.491,2.736-3.372-.085-3.18,.113-3.039-3.046 .191-4.268 .383-8.535 .574-12.803 2.217,.11 5.514,.73 7.387,.17"/>
<g fill="#84442f">
<path d="m88.747,256.21c.056-1.008 .111-2.016 .167-3.023-1.93-.088-3.86-.175-5.79-.263-2.335-.105-1.647,.901-1.764,3.118 2.217,.09 5.514,.71 7.387,.16"/>
<path d="m88.914,250.17c.056-.393 .113-.784 .169-1.177-1.815-.082-7.816-1.54-7.554,1.009 2.138,.09 6.012,.61 7.385,.17"/>
</g>
<path fill="#ffc461" d="m104.53,249.5c-.167,5.003-.334,10.005-.501,15.008-.056,1.695-6.423,.583-7.779,.537-1.297-.044-8.922,.683-8.838-1.21 .222-5.002 .444-10.005 .667-15.007 4.31,.21 13.16,2.12 16.45,.67"/>
<g fill="#e3622d">
<path d="m104.19,256.88c.056-1.063 .112-2.127 .168-3.19-3.622-.147-7.244-.296-10.865-.443-4.264-.175-5.52-1.478-5.753,2.962 5.482,.22 10.966,.45 16.448,.67"/>
<path d="m104.36,250.84c.056-.447 .112-.896 .168-1.343l-16.452-.672c-.442,2.56 5.864,1.644 7.69,1.736 2.204,.1 7.152,.93 8.592,.27"/>
</g>
<path fill="none" stroke="#000" stroke-linecap="square" stroke-width="1.3" d="m80.857,264.77c.59-3.916 .471-8.002 .65-11.951 .03-.649-.285-3.673 .189-4.162 .608-.628 5.177,.136 6.16,.161 3.732,.098 7.467,.372 11.196,.56 4.183,.212 5.701-1.026 5.51,3.247-.161,3.57 .556,8.575-.539,11.979-.737,2.293-.697,1.858-3.368,1.753-2.886-.114-19.032,.834-19.628-1.586" stroke-miterlimit="10"/>
<path d="m85.391,235.9c-4.062-6.425-8.124-12.849-12.186-19.273-.485-.767-6.296-9.207-3.089-7.418 1.613,.9 3.305,5.227 4.265,6.745 2.64,4.176 5.28,8.353 7.92,12.528 .877,1.387 4.26,5.05 4.265,6.745 .004,1.18-.529,1.13-1.175,.66"/>
<path d="m90.594,235.4l9.201-20.889c.354-.802 3.996-10.144 4.564-6.976 .232,1.296-2.438,5.422-2.963,6.639-1.962,4.542-3.924,9.084-5.886,13.627-1.184,2.741-2.368,5.481-3.552,8.223-.594,1.36-1.358-.42-1.368-.62"/>
<path fill="#ffa300" d="m101.84,.895c15.437-1.69 22.554,16.828 23.884,29.477 .858,8.159 1.417,16.123 1.68,24.322 .105,3.314 .618,7.842-.214,10.828-7.595-5.089-21.862-5.328-30.215-1.679-1.257-8.376 .089-18.071 .68-26.546 .441-6.342 .923-12.656 1.713-18.966 .652-5.213 3.222-12.409 2.472-17.436"/>
<path fill="#ffd900" d="m101.67,55.952c.402-18.308 1.342-36.997 4.531-55.057 14.667,2.302 17.913,20.627 19.878,32.648 1.155,7.063 1.174,14.354 1.354,21.489 .081,3.215 .557,7.605-.247,10.49-6.164-5.114-18.132-4.238-25.516-3.023 .01-2.182 .01-4.365 .01-6.547"/>
<path fill="none" stroke="#000" stroke-linecap="square" stroke-width="2.7" d="m70.955,213.57c2.408,2.393 6.544,3.047 9.73,3.783 2.397,.555 9.896,3.255 8.566-.594-1.539-4.454-18.068-9.4-18.296-3.021" stroke-miterlimit="10"/>
<path fill="#bf0000" d="m70.955,213.57c2.408,2.393 6.544,3.047 9.73,3.783 2.397,.555 9.896,3.255 8.566-.594-1.747-5.05-18.988-8.28-18.296-3.19"/>
<g fill="none" stroke="#000" stroke-linecap="square" stroke-miterlimit="10">
<path d="m70.955,213.57c-14.217-20.137-28.029-40.467-41.22-61.291-12.145-19.17-25.733-42.17-28.628-64.999-3.032-23.906 5.262-49.519 25.358-63.774 4.625-3.281 10.063-5.022 14.803-8.039 4.097-2.608 8.34-5.489 13.235-6.348 1.681-.295 2.138-.01 3.693-.671 1.173-.499 2.186-1.322 3.357-1.847 2.124-.951 4.314-1.372 6.547-1.93 1.274-.318 2.443-.252 3.692-.252 2.269,0 3.142-.345 5.371-1.175 3.394-1.263 6.729-1.343 10.24-1.343 2.167,0 2.651,.53 4.7,0 2.565-.663 5.08-1.804 7.805-1.259 4.259,.852 8.124-.386 12.183,2.148 1.992,1.245 6.815,.006 9.472,.538 1.983,.396 3.65,.946 5.455,1.846 2.2,1.098 2.809,.923 5.035,1.091 3.705,.279 7.091,1.617 10.408,3.273 1.216,.607 2.178,1.399 3.273,2.182 1.119,.799 2.502,.193 3.776,.672 2.464,.926 4.63,1.904 6.882,3.273 2.328,1.416 4.427,2.987 6.547,4.7 2.297,1.855 4.84,2.612 7.334,4.191 22.305,14.126 28.289,37.483 27.92,62.491-.169,11.441-6.459,23.51-11.583,33.41-5.69,10.993-12.271,21.373-19.184,31.628-11.658,17.295-24.517,33.87-37.637,50.076-3.542,4.373-7.022,8.784-10.484,13.222-1.684,2.158-8.313,.47-10.791,.339-12.52-.66-25.041-1.321-37.561-1.982"/>
<path d="m118.79,215.76c-4.174,5.347-8.348,10.692-12.521,16.039-.602,.77-2.824,4.654-3.883,4.586-4.394-.282-4.672,.002-6.563-3.779-5.091-10.178-13.132-18.44-24.873-18.862 3.848-8.856 49.099-6.413 48.007,2.017"/>
<path d="m118.79,215.76c-7.265-5.329-20.801-4.535-29.375-4.535-4.961,0-10.075-.169-14.92,1.046-2.479,.621-3.073,2.146-4.633-.088-1.707-2.445-3.415-4.89-5.122-7.335 3.856-2.594 9.683-2.7 14.167-2.914 5.469-.26 10.914-.389 16.384-.108 9.01,.462 22.675-.034 30.215,5.708-2.183,2.742-4.364,5.484-6.547,8.227"/>
</g>
</svg>
