<svg xmlns="http://www.w3.org/2000/svg" viewBox="0 0 510 457" xmlns:xlink="http://www.w3.org/1999/xlink">
<path fill="#1f891f" d="m241,142v1c.2,7.8 .1,15.5-1,23v4l1,9c-1.1-.4-1.1,1.4 0,1v1c-.4,1.1 1.4,1.1 1,0 3.8-3.2 6.9-7.2 11.8-9.2 7.1-29.2 54.1-28.5 62.2-1.8 .2,8.3-5.1,15-11.7,19.3 11.7,19.7-18.8,36-34.5,24-7.1-.9-14-6.2-16-13-1.7-1.3-2.3-3.2-3-5-1.3-.7-2.8-.2-3.5,1l-2.3,6.7c8.2,33.5 22.7,65.1 37.3,96.8l9.7,12.2 1,1c-.1,1.9 1.9-.1 0,0v-1l-1-8c-.2-.9 .6-2.9-1-3v-2c1.1,.4 1.1-1.4 0-1l-1-10c4.4-32.3 20.5-66 52.8-77.2 4.9-2.7 9.4-7.5 15.2-7.8v2c-7.8,16-11.7,34.7-22.2,49.8l-2.5,.5c-14.5,14.7-29.2,31-32.3,52.7-.4,1.1 1.4,1.1 1,0l3.8-2.2c4.2-12.9 13.8-23 28.2-21.8h10c12.5,1 25.3,10.2 27,23-.3,31.4-51.1,29.7-62.2,6.3h-1.5l-1.3,5.7c12.2,30.8 47.5,42.4 73.3,57.8 3.4,1.6 2.7-2.8 2.7-4.8-12.9-29.9 8-58.3 30.3-76.7l5.5-2-3.8,7.7c-.7,27.8-24.8,47.4-25,75l2.3,4.8c14.4,5 30.3,10.6 45.5,10.5 .8,.6 1.5,1.5 1.2,2.7-3.2,6.4-10.7,9.8-17,12l-8.7-4.2c-25.9-20.6-55.6,2.6-82.3,6.2 .4-1.1-1.4-1.1-1,0h-4c-4.9,1.2-9,.5-14,0h-1c-21.3-.6-36.7-16.4-54-24 6.5-6.3 17.8-3.7 25-8 1.1,.4 1.1-1.4 0-1l-25-25-2.7,1.3c-6.1,9.6-20.1,4-26.3-2.3-12.6,19-36.6-2.3-36-20 1.1,.4 1.1-1.4 0-1-1.4-19.2 8.5-43.4 28.8-43.2l4.2-5.8c-9.2-3-21.9-2.6-32-1 .4-1.1-1.4-1.1-1,0l-6,1c.4-1.1-1.4-1.1-1,0-19.1,.9-39.6,5.5-57-4l-10-1c.4-1.1-1.4-1.1-1,0-1.8-.1-3.6-.1-5,1h-2c-.5-1.9 .8-3.1 1.3-4.7 9.9-8.2 18.4-17.5 31.7-17.3l7-3c25.5,.6 47.4,12.6 71.8,17.3 4.7,4.1 12.3,7.2 19,7.5-5-9.1-16.4-15.2-23.5-22-11.9-10.7-26.3-16.5-41.3-19.8-.1-1.6-2.1-.8-3-1l-35-6c-.1-1.6-2.1-.8-3-1-11.2-.4-19.1-6.7-27-13-8.22-6.5-19.72-13.3-24.75-22.7l3.75-.3c17.1,6.7 35.7,3.5 53,8 13,7.6 27.4,13.7 38.3,23.8 1,.4 2.4,.4 3.5,0l-6.8-6.8c-3.2-4.5-7.3-9-11.7-12.2-7.5-5.7-15.5-8.4-23.3-11.8v-1c.6-2.4-6.7-4.2-6-1v1l-53.75-12.2c-17.27-8.9-26.65-24.6-40-38-.39-.8-.39-1.8 0-2.5l1.75-1.3c35.26,8.1 64.5,26.2 95.3,45.8l4.7,1.2c-.2,1.2 1.3,1 2,1-.1,1.9 1.9-.1 0,0-.2-1-1-1.8-2-2-17.7-22.6-37.1-48.4-41-78-1.2-19.81 10.6-37.77 15.3-56.75 2.3-.63 .7-5.01 3.5-4 4.4,17.39 8.1,34.89 14.2,51.75 1.3,10.4 2.2,21 5,31-.2,3.6 .7,6.8 2,10 .9,34.1 22.3,62.9 47.3,83.8l2.5,.5c22.7,25 49.6,44.7 72.5,69.5 4.2,1.2 6.2,7.6 10.5,8-2.4-7.8-5.8-16.1-10.5-23l-8.3-26.8c-10.4-23.6-37.2-28.2-57.2-39.7-13.9-8.5-20.8-25.8-33.8-35.3 5-4.3 12.5,1.6 18.8,1.3 12.5,3.6 24.7,8.1 35,17 7.3,7.4 16.3,13.2 21.5,22.5h1.5c-5.5-22.9-24.7-35.9-41.5-50-13.5-18.7-23.2-38.3-33.5-59.5l-12.5-13.05c9.5-1.43 17,5.05 24.5,10.05 9.9,7.6 18.1,16.2 25.2,26.7 10.5,13.8 19.6,28 27,43l3.8,7.8c.1-3-1.3-6.7-2.8-8.8-6.7-21.1-18.5-40.9-19-64v-1l-1-13v-11c.8-11.48 2.1-22.83 4-34v-1l1-30 25,73c2.2,17.4 3,36.3 1,54z"/>
<path fill="#b2b2b2" d="m218,38c4.7,2.21-.9,5.93 0,0z"/>
<path fill="#feffff" d="m222,83c0-.66 .2-2.15-1-2 .8-12.8-3.5-26.46-2-38l2,4c2.4,32.9 9.3,64.8 10.8,97.8-5-9.6-6-21.8-7.8-32.8-.8-10-2.3-19.28-2-29z"/>
<path fill="#b0b0b0" d="m116,60c1.1,1.31 2.4,5.91 1,7-1.4-1.45-1.9-5.16-1-7z"/>
<path fill="#adaeae" d="m116,74c2.1,2.4 .7,7.44 .8,10.75-1.9-3.05-1.2-6.97-.8-10.75z"/>
<path fill="#babbbb" d="m116,86c4.1,4.68-3.4,5.79 0,0z"/>
<path fill="#fff" d="m115,95c.7-.02 2.2-.18 2,1 3,25.3 11.5,49.6 20.8,72.8-16.2-20-19.6-48.2-22.8-73.8z"/>
<path fill="#feffff" d="m170,105c18.5,18.1 34.2,39.2 47.8,61.3l2,8.5c-14.4-24.7-34.1-46.7-49.8-69.8z"/>
<g fill="#fff">
<path d="m53,145l67.8,34.3v1.5c-23.36-6.4-44.89-19.5-66.55-32-1.36-.9-1.38-2.4-1.25-3.8z"/>
<path d="m267,165c15.1-2.8-2.6,10.4 0,0z"/>
</g>
<path fill="#626262" d="m240,167v-1c1.1-.4 1.1,1.4 0,1z"/>
<path fill="#fff" d="m229,170l1-1c1.5,2.1 2.9,5.8 2.8,8.8l-3.8-7.8z"/>
<path fill="#626262" d="m240,170v-1c1.1-.4 1.1,1.4 0,1z"/>
<path fill="#717171" d="m141,175c1.9-.1-.1,1.9 0,0z"/>
<path fill="#feffff" d="m176,177c5.5,2.8 11.2,5.5 15.8,9.8-5-2.1-13.3-4.6-15.8-9.8z"/>
<path fill="#9b9b9b" d="m241,179v1c-1.1,.4-1.1-1.4 0-1z"/>
<path fill="#717171" d="m122,181c1.9-.1-.1,1.9 0,0z"/>
<path fill="#ababab" d="m143,183c-.7,0-2.2,.2-2-1v-1c1,.2 1.8,1 2,2z"/>
<path fill="#949494" d="m242,181c.4,1.1-1.4,1.1-1,0h1z"/>
<path fill="#feffff" d="m251,181c3.3,2.3-2,4.7-3.7,5.8l3.7-5.8z"/>
<path fill="#f6f8f8" d="m124,182c2.8,.2 6.6,.8 7.8,3.8-2.6-.1-7.6-.7-7.8-3.8z"/>
<path fill="#787878" d="m143,183c1.9-.1-.1,1.9 0,0z"/>
<path fill="#626262" d="m134,189h-1v-1l1,1z"/>
<path fill="#6c6d6d" d="m134,189c3.2-.7 .7,2.5 0,0z"/>
<path fill="#a2a2a2" d="m139,189v1c-2.2,.6-2.2-1.6 0-1z"/>
<path fill="#b1b2b2" d="m198,191c5.4-.2 .1,4.6 0,0z"/>
<path fill="#717171" d="m202,194c1.9-.1-.1,1.9 0,0z"/>
<path fill="#fff" d="m204,195c4.4-.5-.5,4.4 0,0z"/>
<path fill="#fdfdfd" d="m215,203c-2.9-.2-6.8-3.4-7.7-5.7 3.5-.1 5.9,2.9 7.7,5.7z"/>
<path fill="#feffff" d="m166,222c.2,1.2-1.3,1-2,1l-3.7-.2-.5-1.5-56.8-19.3 4-1c20.6,4.2 40.7,10.8 59,21z"/>
<path fill-opacity="2.09587e-06" d="m218,205c-1.3,.3-2.7-.7-3-2 1.3-.3 2.7,.7 3,2z"/>
<path fill="#909090" d="m358,205v-2c1.3-.2 1.3,2.2 0,2z"/>
<g fill="#7f7f7f">
<path d="m219,206l-1-1 1,1z"/>
<path d="m220,207l-1-1 1,1z"/>
</g>
<path fill="#787878" d="m220,207c1.9-.1-.1,1.9 0,0z"/>
<path fill="#a7a8a8" d="m340,219c.3-4.9 5-1.8 0,0z"/>
<path fill="#fff" d="m340,219l-1.2,3.8c-18,17.5-31.4,41.1-39,65l-2.5,3 1.7-10.8c10.2-22.3 21.7-45.4 41-61z" transform="translate(0 .00001)"/>
<path fill="#8f8f8f" d="m164,223c.7,0 2.2,.2 2-1 3.1,.9-1.7,3.6-2,1z"/>
<g fill="#919191">
<path d="m137,226c-.9-.2-2.9,.6-3-1 .9,.2 2.9-.6 3,1z"/>
<path d="m175,233c-.9-.2-2.9,.6-3-1 .9,.2 2.9-.6 3,1z"/>
</g>
<path fill="#fff" d="m165,263c-.4,1.1 1.4,1.1 1,0 13.1,2.8 28.3,1.1 40,7-.1,1.6-2.1,.8-3,1l-42-7 4-1z" transform="translate(0 -.00001)"/>
<path fill="#1f891f" d="m166,263c.4,1.1-1.4,1.1-1,0h1z"/>
<path fill="#b1b1b1" d="m148,264c5.5,.3-2.8,4.1 0,0z"/>
<path fill="#8d8d8d" d="m152,264c3.2-.7 .7,2.5 0,0z"/>
<path fill="#969696" d="m155,264c4.4-1 1.7,2.8 0,0z"/>
<path fill="#717171" d="m159,264c1.9-.1-.1,1.9 0,0z"/>
<path fill="#373" fill-opacity=".92" d="m117,274h-1c-.4-1.1 1.4-1.1 1,0z"/>
<g fill="#1f891f">
<path stroke="#1f891f" d="m111,275c.2,1.3-2.2,1.3-2,0h2z"/>
<path d="m192,278h-1c-.4-1.1 1.4-1.1 1,0z"/>
<path d="m185,279h-1c-.4-1.1 1.4-1.1 1,0z"/>
</g>
<path fill="#fff" stroke="#fff" d="m236,282l12.8,5.3 7.5,7.5 2.5,.5c31.4,27.7 59.9,59.6 99,79l2,2.5c-28.7-4-48.8-30.5-79.8-28.8l-12-1c-2.4-1.6-4.9-2.2-7.7-2.2 4.6-23.2-3.2-50.9-27-58l2.7-4.8z"/>
<path fill="#1f891f" d="m344,284h-7c1-1.6 6-1.6 7,0z"/>
<path fill="#717171" d="m296,292c1.9-.1-.1,1.9 0,0z"/>
<path fill="#fff" d="m325,296c7.4,1.5-8.2,9.1-4,2 .2-2.3 3.8,.3 4-2z"/>
<g fill="#1f891f">
<path d="m291,299v-1c1.1-.4 1.1,1.4 0,1z"/>
<path d="m292,304c-1.6-.1-.8-2.1-1-3 1.6,.1 .8,2.1 1,3z"/>
</g>
<path fill="#feffff" d="m225,306c3.3,.6 3.1,6.6 2.8,9.8-4.5-.2-3-6.8-2.8-9.8z"/>
<path fill="#fff" d="m405,306c2.4,.8-.8,3.1-.2,4.8-8.7,14.9-17.6,31.2-19.8,49.2l-2.7,5.8c-.1-21.9 10.7-42.7 22.7-59.8z"/>
<path fill="#949494" d="m302,308c.4,1.1-1.4,1.1-1,0h1z"/>
<path fill="#9b9b9b" d="m293,312v1l-1-1h1z"/>
<path fill="#787878" d="m293,313c1.9-.1-.1,1.9 0,0z"/>
<path fill="#1f891f" d="m191,329v-1c1.1-.4 1.1,1.4 0,1z"/>
<path fill="#fff" d="m288,365c-4,.8-9-2.4-9.7-5.7 3,.6 8.1,2.9 9.7,5.7z"/>
<path fill="#feffff" d="m326,377c-.4,1.1 1.4,1.1 1,0 4,.5 9.2,1.1 11.8,3.8-18-1.6-36.3-4.7-50.8-15.8 12.7,4 25,9 38,12z"/>
<path fill="#9c9c9c" d="m281,376v-1c1.1-.4 1.1,1.4 0,1z"/>
<path fill="#1f891f" d="m327,377c.4,1.1-1.4,1.1-1,0h1z"/>
<path fill="#8d8d8d" d="m285,391c2.5,.7-.7,3.2 0,0z"/>
<path fill="#b1b1b1" d="m362,391c5.5,.3-2.8,4.1 0,0z"/>
<path fill="#9e9f9f" d="m367,391c4.8-.8 2.1,3.7 0,0z"/>
<path fill="#727272" d="m287,392c1.9-.1-.1,1.9 0,0z"/>
<path fill="#fff" d="m305,393c-.4,1.1 1.4,1.1 1,0h1c-.4,1.1 1.4,1.1 1,0 11.1,.8 21,1.7 32,0-.4,1.1 1.4,1.1 1,0l18.8-.7c-2.6,2.2-7.1,2.7-10.8,2.7 .4-1.1-1.4-1.1-1,0-15,2.7-28.6-1.6-43,1-2-1.6-4.6-.9-7-1 .4-1.1-1.4-1.1-1,0h-1c.4-1.1-1.4-1.1-1,0-2.1,.1-6.6,.5-5.7-2.7l15.7,.7z" transform="translate(0 .00001)"/>
<g fill="#626262">
<path d="m306,393c.4,1.1-1.4,1.1-1,0h1z"/>
<path d="m308,393c.4,1.1-1.4,1.1-1,0h1z"/>
</g>
<path fill="#1f891f" d="m341,393c.4,1.1-1.4,1.1-1,0h1z"/>
<g fill="#626262">
<path d="m296,395h-1c-.4-1.1 1.4-1.1 1,0z"/>
<path d="m298,395h-1c-.4-1.1 1.4-1.1 1,0z"/>
</g>
<g fill="#1f891f">
<path d="m349,395h-1c-.4-1.1 1.4-1.1 1,0z" transform="translate(0 .00001)"/>
<path d="m330,408h-1c-.4-1.1 1.4-1.1 1,0z"/>
</g>
<path fill="#707070" d="m25,457h-1c-.43-1.1 1.43-1.1 1,0z"/>
</svg>
