<svg xmlns="http://www.w3.org/2000/svg" viewBox="0 0 32 32" xmlns:xlink="http://www.w3.org/1999/xlink">
<path fill="#fff" stroke="#00461b" stroke-linejoin="round" stroke-width=".6" d="m24.804,.8036c-.489-.0274-1.033,.2825-1.344,.8125l-10.625,18.094h-.469l-7.2187-4.031c-.2371-.132-.5561-.033-.7187,.218l-3.817,5.974c-.1626,.251-.1121,.689 .125,.821l14.785,8.393c.579,.34 1.398,.05 1.813-.656l14.156-24.094c.415-.7068 .266-1.5663-.312-1.9064l-5.907-3.4688c-.144-.085-.306-.1471-.468-.1562z"/>
<path fill="#007308" d="m26.33,3.1696c-.341-.0593-.703,.1279-.906,.4688l-11.576,19.509-7.6426-4.477c-.5279-.3-1.1753-.217-1.4688,.218l-1.5625,2.313c-.2935,.435-.0904,1.044 .4375,1.344l10.312,5.843c.203,.116 .411,.158 .625,.157 .367,.108 .779-.035 1-.407l13.188-22.218c.27-.4548 .163-1.061-.25-1.3441l-1.844-1.25c-.103-.0708-.199-.1365-.313-.1563z"/>
</svg>
