<svg xmlns="http://www.w3.org/2000/svg" viewBox="0 0 196.343 125.856" xmlns:xlink="http://www.w3.org/1999/xlink" enable-background="new 0 0 196.343 125.856">
<g fill-rule="evenodd">
<g stroke="#000" stroke-width=".036" stroke-miterlimit="10">
<g>
<path d="m188.44,67.266c-5.652-3.6-11.52-6.984-18.036-10.296-6.66-3.456-15.012-6.768-20.88-9.54-5.796-2.844-10.188-4.284-13.716-6.66-3.564-2.448-5.725-5.832-7.74-7.236-2.124-1.404-3.852-1.872-5.04-1.26-4.859-4.284-9.792-7.488-14.796-9.9-5.184-2.376-10.116-3.816-15.48-4.32-1.944-1.404-4.464-3.42-7.416-5.76-3.06-2.484-7.74-6.624-10.44-8.676-2.772-2.088-4.068-3.384-5.976-3.6-2.124-.288-4.896,.936-5.94,2.16-1.008,1.152-1.116,2.772-.18,4.86-6.228,1.548-10.656,3.024-13.14,4.716-2.556,1.656-3.168,3.24-1.98,5.04-2.736,.252-5.328,.9-7.776,1.8-2.592,.864-5.4,2.34-7.02,3.6-1.62,1.08-1.116,2.232-2.52,3.6-1.584,1.44-5.472,3.06-6.66,4.86-1.224,1.728-1.404,3.384-.54,5.256-2.952,.9-5.544,2.16-7.776,3.78-2.304,1.512-4.824,3.888-5.76,5.76-1.008,1.836-1.008,3.528 0,5.22-1.872,.684-3.492,1.8-4.86,3.06-1.476,1.26-3.276,3.096-3.6,4.68-.324,1.476 .324,3.024 1.8,4.5-1.296,1.512-2.088,3.204-2.52,5.077-.576,1.908-.576,3.996 0,6.119 .648,2.053 1.8,4.213 3.6,5.939 1.692,1.549 4.68,2.809 6.48,3.781 1.62,.971 1.98,1.619 3.42,1.799 1.404,.109 2.988-.504 4.896-1.439 .144,.611 1.224,1.908 3.24,4.176 1.944,2.232 5.148,4.68 8.64,9 3.348,4.141 6.696,11.449 11.7,16.236 5.004,4.752 10.872,8.783 18.036,12.24l43.38-1.477c10.439-.432 19.476-1.008 27.647-1.584 8.136-.611 14.868-1.225 20.736-1.98l11.16-.359c1.907,.289 5.363,0 10.655-.721 5.257-.863 12.061-1.943 20.7-3.779 .864-2.557 1.044-5.221 .54-8.137-.504-2.951-1.691-6.012-3.563-9.322 2.771-3.098 4.355-6.156 4.607-9.182 .145-3.096-2.268-6.947-2.952-9.18-.684-2.375-1.008-3.779-.972-4.607 1.98-1.26 2.592-2.52 1.98-3.924-.77-1.403-2.6-2.843-5.95-4.319z"/>
<path fill="#fbdf99" d="m2.25,68.525c.216-1.584 .576-2.736 1.08-3.6 .396-.9 1.26-1.439 1.62-1.62 .252-.288 .252-.288 0,0-2.34-1.764-3.06-3.456-2.7-5.076 .468-1.764 3.456-3.708 5.22-4.86 1.584-1.188 3.024-2.016 4.32-2.34-1.008-1.584-1.26-3.024-.9-4.32 .252-1.404 .72-2.16 3.06-3.78 2.412-1.764 5.904-3.924 11.016-6.48-.9-1.98-.972-3.42-.36-4.716 .54-1.188 2.412-1.764 3.96-2.7 1.44-1.224 3.708-2.52 4.86-3.6 1.044-1.08 .36-1.692 1.44-2.52 .828-.864 2.052-1.764 4.5-2.7 2.556-.936 5.868-1.944 10.476-2.88-1.224-1.656-1.44-2.88-.36-3.96 .936-1.116 3.924-1.476 6.48-2.34 2.592-.936 5.436-1.908 8.82-3.06-.612-1.692-.864-3.024-.36-3.996 .504-1.116 1.512-1.728 2.88-1.98 1.116-.324 2.556-.324 4.176,.54 1.584,.9 3.492,2.268 5.58,4.5 5.796,5.436 10.476,9.288 14.04,11.556 3.528,2.16 4.32,.864 7.236,1.8 2.808,.828 5.832,1.692 9.9,3.96 4.104,2.268 8.784,5.616 14.437,9.9 1.296-.324 2.52-.036 3.96,.72 1.26,.72 2.52,2.268 4.319,3.816 1.836,1.548 3.456,3.42 6.66,5.22 3.204,1.584 6.876,2.412 12.276,4.86 5.256,2.448 13.859,6.552 19.439,9.54 5.473,2.772 11.557,6.084 13.536,7.596 1.98,1.439 1.332,1.225-1.8,1.439-3.313,.145-11.016-.467-17.136-.18-6.229,.252-12.853,1.188-19.477,1.98-6.66,.719-13.536,2.16-19.8,2.52-6.3,.287-12.132-.217-17.496-.539-5.544-.469-11.628-1.584-14.796-1.801-3.132-.252 .576-.289-4.14,.721-5.004,1.08-17.82,4.176-24.696,5.398-6.876,1.045-12.636,.756-16.02,1.08-3.456,.252-1.368,.938-4.14,.541-2.88-.504-8.604-2.088-12.456-3.24-3.888-1.297-7.704-2.809-10.62-3.961-3.096-1.26-4.68-2.592-7.236-2.879-2.772-.289-6.408,.973-8.28,1.26-1.832,.219-2.624,.326-2.516,.181z"/>
<path d="m56.321,15.354c0-.9 1.116-3.024 2.52-3.6 1.224-.72 2.844-.972 4.86-.36 1.872,.468 6.552,3.204 6.696,3.78-.144,.504-4.896-.036-6.336-.36-1.368-.468-1.044-1.98-1.8-1.62-1.008,.324-2.232,3.348-3.24,3.78-1.043,.359-2.735-.828-2.7-1.62z"/>
<path d="m68.021,5.238c-.756-.72-.72-2.16 .396-1.98 1.08,.144 5.004,2.124 5.94,2.88 .792,.684-.324,1.296-1.26,1.26-1.079-.252-4.391-1.476-5.076-2.16z"/>
<path d="m52.001,20.034c-1.692-.648-4.248-.072-6.12,.18-1.98,.18-4.932,.504-5.256,1.26-.396,.684 1.656,2.484 3.096,2.88 1.404,.216 2.952-.972 5.04-1.08 1.944-.18 6.264,.864 6.84,.36 .468-.684-1.979-2.952-3.6-3.6z"/>
<path d="m42.425,30.293c-2.016-.756-7.416-1.404-9.54-1.26-2.196,.18-2.844,1.476-3.6,2.34-.864,.828-2.772,1.44-1.44,2.52 1.188,.9 8.028,3.42 9,3.276 .936-.288-3.6-3.456-3.6-4.356-.144-.972 .864-.9 2.88-.9 1.908,0 7.38,1.08 8.496,.9 1.045-.323-.288-1.907-2.196-2.52z"/>
<path d="m37.565,42.75c-1.692-.936-7.164-2.844-9.9-3.24-2.844-.36-4.356,0-6.48,1.08-2.232,1.008-7.812,3.564-6.336,5.04 1.512,1.404 13.428,3.672 15.336,3.6 1.836-.288-4.752-3.348-4.5-4.32 .144-.864 3.888-1.332 5.4-1.26 1.368,0 2.016,.576 3.06,.9 .936,.18 2.268,.18 2.88,0 .54-.361 2.017-1.008 .54-1.8z"/>
<path d="m8.37,57.689c.72-1.152 3.564-4.104 5.76-4.68 2.052-.576 4.68,.324 7.056,.9 2.376,.432 6.336,1.08 7.02,1.8 .504,.72-1.728,1.872-3.78,2.34-2.34,.36-6.516-.288-9.036,0-2.484,.18-4.284,1.44-5.4,1.44-1.224-.179-2.412-.683-1.62-1.8z"/>
<path d="m19.025,63.846c1.656-.324 5.796,.107 8.1,.9 2.268,.756 5.796,3.383 5.58,4.139-.36,.686-5.544,.506-7.38,0-1.944-.684-2.376-2.986-3.78-3.42-1.584-.467-4.212,.938-4.68,.721-.396-.325 .324-2.123 2.16-2.34z"/>
<path d="m47.861,59.49c1.44-1.908 3.096-6.984 4.68-9.54 1.368-2.592 2.232-4.32 3.96-6.3 1.692-2.124 6.048-4.32 6.12-6.3-.072-2.124-5.652-5.724-6.48-5.796-.972-.036 1.188,3.708 1.08,5.256-.252,1.44-.864,3.168-1.98,3.24-1.26-.144-4.212-3.6-4.68-3.42-.36,.072 2.088,2.628 2.34,4.32 .108,1.692-.648,3.744-1.44,5.58-.9,1.656-2.196,3.816-3.6,4.68-1.44,.756-4.464-.756-4.896,.18-.54,.864 1.944,3.78 2.196,5.4 .18,1.584-1.368,3.672-.9,4.176 .361,.396 2.16,.36 3.6-1.476z"/>
<path d="m66.042,29.214c2.448-.756 4.932-3.96 7.596-5.58 2.556-1.656 6.408-2.304 7.38-3.6 .756-1.404-3.096-4.032-2.52-4.14 .54-.18 6.012,1.836 5.58,3.42-.648,1.476-6.192,3.348-9,5.76-2.844,2.304-5.904,7.344-7.776,8.46-1.98,1.044-2.7-1.152-3.96-2.16-1.404-1.188-4.68-3.924-4.14-4.32 .467-.432 4.319,2.699 6.84,2.16z"/>
<path d="m106.61,36.99c.54,.432 4.716,.612 6.84,2.34 2.124,1.692 5.004,7.56 5.58,7.74 .324-.072-1.332-5.832-2.88-7.56-1.584-1.8-4.752-2.484-6.3-2.88-1.76-.505-3.81-.109-3.24,.36z"/>
<path d="m156.36,59.669c2.269,0 9.181,1.692 9.9,2.016 .396,.18-4.464-.072-6.66-.18-2.34-.144-5.688-.324-6.3-.54-.61-.467 .83-1.367 3.06-1.296z"/>
<path fill="#fbdf99" d="m192.76,71.766c-1.044-.828-2.017-1.477-3.061-1.801-1.151-.395-2.088-.467-3.24-.359-6.552-.359-13.428-.359-20.915,0-7.633,.324-16.272,1.26-23.977,1.98-7.74,.576-15.444,1.836-21.996,1.98-6.66,.035-12.996-1.045-17.46-1.441-4.5-.504-7.02-1.584-9.36-1.439-2.412,.107-2.916,1.188-5.256,1.98-2.448,.648-4.86,1.188-9.18,2.16-4.536,.936-12.852,2.232-17.316,3.059-4.428,.541-7.164,.648-9.18,.9-2.196,.289-1.584,1.008-3.42,.9-1.98-.252-4.572-1.043-7.776-1.801-3.312-.826-7.2-1.402-11.52-2.699-4.392-1.367-10.296-4.355-14.256-5.221-3.996-.936-7.452-.898-9.54-.18-2.304,.613-2.88,2.736-3.24,4.141-.36,1.297 .252,2.844 1.44,3.959 1.152,.973 4.032,1.621 5.58,2.521 1.368,.9 2.124,2.34 3.24,3.059 1.008,.648 1.8,.9 3.06,.9 1.152-.072 2.592-.539 4.176-1.26 1.224,1.764 2.772,3.527 4.68,5.436 1.908,1.836 4.968,3.744 6.66,5.76 1.656,2.018 1.692,4.033 3.24,6.301 1.584,2.268 4.68,5.221 6.12,7.199 1.44,1.98 1.08,3.205 2.34,4.537 1.296,1.295 3.816,2.195 5.256,3.42 1.404,1.188 1.152,2.34 3.24,3.779 2.088,1.404 6.624,3.924 9.18,4.68 2.52,.721 3.888-.395 5.94-.359 2.088,.037 2.124,.541 6.336,.541 4.212-.037 10.98-.182 18.828-.686 7.812-.504 6.732-.971 12.457-1.295 5.724-.324 3.527,.324 10.512,0 6.948-.324 7.271-.504 17.352-1.332s12.708-1.369 22.969-1.943c10.26-.576 8.208,.898 18.035-.324 9.828-1.225 21.313-4.609 21.313-4.609l-.324-4.248s-10.404,3.025-19.332,4.248c-8.964,1.225-8.315,.182-16.416,.648-8.1,.504-7.128,.504-16.056,1.332-8.928,.793-4.572,1.045-19.692,1.943-15.12,.938-36.54,1.621-40.824,1.766-4.284,.107-9.9,.646-13.896,.539-3.996-.145-7.272,.107-9.9-1.26-2.628-1.404-4.068-5.148-5.76-7.057-1.692-1.871-3.06-3.168-4.32-4.32-1.26-1.15-2.016-1.043-3.24-2.52-1.26-1.475-2.88-4.535-4.176-6.299-1.26-1.766-2.34-2.557-3.42-4.141-1.08-1.619-2.772-3.744-3.06-5.4-.252-1.691-1.548-3.6 1.44-4.535 3.024-.9 9.252-.18 16.416-.9 7.164-.684 19.908-2.881 26.136-3.24 6.156-.359 6.66,1.512 10.62,1.08 3.996-.432 9.468-3.275 12.997-3.6 3.491-.324 3.852,1.477 7.92,1.619 4.067,.145 8.531,.109 16.235-.719 7.704-.865 21.78-3.672 29.557-4.32 7.739-.684 11.376,.611 16.56,.359 5.185-.252 10.98-1.619 14.256-1.801 3.24-.18 3.853,.973 5.04,.721 1.19-.296 1.84-1.051 1.98-2.348z"/>
<path fill="#d6c98a" d="m188.77,76.158c.324,.252 1.08,1.295 1.979,3.275 .864,1.908 2.16,4.645 3.601,8.209-.072,1.008-.612,2.158-1.62,3.6-1.188,1.367-3.096,3.924-4.608,4.607-1.548,.576-2.916,.252-4.248-.973-.359-3.348-1.008-6.084-1.655-8.207-.792-2.16-3.708-2.916-2.628-4.607 1.15-1.835 4.03-3.671 9.18-5.904z"/>
<path fill="#8a734b" d="m180.92,97.146c3.528-.109 6.013,.719 7.849,2.627 1.764,1.836 2.592,4.68 2.628,8.533-2.556,1.078-5.832,2.051-9.828,2.627-4.176,.576-12.78,1.873-14.436,.973-1.656-1.189 3.491-4.824 4.607-6.877 .9-2.051 .145-3.564 1.62-4.932 1.51-1.37 4.03-2.307 7.56-2.954z"/>
<path fill="#d6c98a" d="m172.71,97.469c4.177-.791 6.624-1.979 7.885-3.275 1.044-1.367 .756-2.16-1.008-4.896-1.801-2.879-4.969-6.875-9.505-12.131-2.376-.037-4.752-.037-7.523,0-2.88-.145-7.776-.936-8.856,0-1.116,1.08 .145,3.744 2.269,5.904 2.088,2.016 6.947,3.383 9.863,5.904 2.81,2.447 5.01,5.146 6.88,8.494z"/>
<path fill="#8a734b" d="m174.01,77.166c4.968-1.225 7.56-1.512 8.208-1.008 .504,.432-1.08,1.799-4.896,3.959-1.08-.971-2.2-1.943-3.31-2.951z"/>
</g>
<g fill="#d6c98a">
<path d="m158.92,88.289c2.447,0 7.164,4.896 8.855,6.912 1.656,1.836 2.772,3.133 1.008,4.572-1.943,1.477-8.855,3.637-12.132,3.961-3.42,.072-6.912-1.08-7.56-2.629-.721-1.619 1.907-4.068 3.6-6.229 1.69-2.225 3.63-6.689 6.22-6.582z"/>
<path d="m134.33,104.38c3.637-.467 6.696-.684 9.181-.646 2.376-.037 3.168,.18 5.58,.646 2.376,.289 5.508,1.98 8.855,1.621 3.276-.396 6.84-1.656 10.836-3.924-1.368,2.34-2.699,4.176-3.6,5.904-.937,1.654-1.836,2.916-2.304,3.924-3.673-.145-7.2-.037-11.16,.324-3.96,.322-7.632,1.15-12.132,1.654-4.572,.469-13.896,2.412-14.761,.973-.9-1.67 2.27-4.99 9.5-10.46z"/>
<path d="m144.85,100.46c-3.889-.504-7.128-.395-9.864,.324-2.844,.648-4.932,4.5-6.552,3.924-1.692-.756-2.305-3.779-2.952-7.559-.685-3.854-1.008-8.785-.972-15.084l7.199-1.945c3.672,1.801 6.624,4.465 8.856,7.848 2.21,3.462 3.51,7.493 4.27,12.5z"/>
</g>
<g>
<path fill="#8a734b" d="m137.28,79.434c1.692-.432 3.204,.721 4.933,3.313 1.655,2.555 3.239,6.551 4.896,12.131 2.124-2.303 3.636-4.066 4.933-5.58 1.115-1.547 2.016-2.592 2.304-3.275-2.304-1.619-3.853-2.916-4.933-4.283-1.044-1.369-1.476-2.521-1.296-3.602-3.59,.432-7.19,.864-10.83,1.296z"/>
<path fill="#d6c98a" d="m120.9,96.822c-1.764-1.477-9.324-1.549-13.788-2.305-4.607-.9-10.44-4.824-12.78-2.592-2.34,2.268-2.988,13.211-.972,15.732 2.016,2.303 9.108-.973 13.104-1.656 3.96-.684 7.92-1.188 10.476-2.629 2.38-1.65 5.55-5.036 3.96-6.548z"/>
<path fill="#8a734b" d="m113.67,108.95c-2.484-.756-3.78,.648-7.2,1.98-3.637,1.26-12.708,4.465-13.464,5.58-.72,.936 4.824,.828 9.541,.648 4.644-.252 16.415-.684 18.359-1.98 1.76-1.44-4.86-5.51-7.24-6.23z"/>
</g>
<g fill="#d6c98a">
<path d="m83.177,88.289c-1.584,2.629-8.172,8.893-12.132,11.16-4.068,2.197-9.036,3.889-11.16,2.305-2.196-1.801-2.628-9.18-1.296-12.133 1.404-3.023 5.868-4.176 9.504-5.256 3.492-1.043 8.892-1.691 11.484-.971 2.592,.579 4.861,2.163 3.6,4.899z"/>
<path d="m84.509,93.223c-5.904,4.68-9.684,8.566-11.484,11.807-1.764,3.313-1.224,6.516 .648,7.523 1.8,.793 4.896-.07 9.828-2.592-1.764-2.734-2.304-4.715-1.62-6.227 .648-1.549 5.04-.9 5.544-2.629 .396-1.793-.575-4.422-2.916-7.877z"/>
<path d="m54.306,87.643c-8.712-1.152-13.968-1.152-16.056,0-2.052,1.26 2.016,4.066 3.6,6.875 1.512,2.592 3.168,5.545 5.256,8.855 3.096-1.15 5.148-2.482 6.552-3.6 1.224-1.152 1.8-2.484 1.332-3.6-.217-2.84-.432-5.684-.684-8.527z"/>
</g>
<g fill="#8a734b">
<path d="m49.409,106.33c.684-.504 1.836,.107 3.6,1.98 1.728,1.799 3.816,4.752 6.552,8.855l10.836,.324c-1.944-4.537-3.996-8.029-6.552-10.477-2.556-2.52-5.4-3.852-8.532-4.283-1.943,1.19-3.923,2.38-5.904,3.61z"/>
<path d="m74.969,115.18c.648,.252 2.196-.072 4.932-.973 2.664-.936 6.336-2.412 11.16-4.572 .612,1.297 .72,2.594 .324,3.602-.468,.971-1.404,1.943-2.952,2.627-4.464-.22-8.964-.44-13.464-.69z"/>
<path d="m88.109,85.338c5.112-2.629 9.108-4.104 12.132-4.572 2.916-.611 4.464-.252 5.904,1.619 1.439,1.908 2.268,5.148 2.628,9.865-4.392-1.045-7.74-2.053-10.188-2.629-2.52-.684-3.024-1.871-4.572-1.332-1.656,.434-3.204,1.908-4.932,4.285-.321-2.412-.644-4.824-.969-7.236z"/>
<path d="m110.07,83.717l1.98,7.885 9.827,1.943c-.18-1.836-.18-3.455 0-5.256 .145-1.799 .469-3.492 .973-5.219-2.521,.287-4.716,.504-6.876,.646-2.19,.073-4.07,.073-5.9,.001z"/>
<path d="m122.85,101.43l-5.544,4.572 5.22,4.607 3.276-4.607-2.96-4.57z"/>
</g>
<g>
<path d="m97.038,59.346c-12.348,3.456-19.728,3.528-22.428,.216-2.7-3.348-.612-9.972 6.408-20.016-2.412-2.916-2.52-6.12-.324-9.612 2.196-3.564 6.588-9.828 13.32-11.556 6.552-1.8 19.26-.936 25.92,.792 6.552,1.584 10.332,6.264 13.428,9.036 3.024,2.664 4.464,5.112 4.608,7.2 2.304-.576 3.815-.288 4.536,.576 .647,.864 .504,2.448-.433,4.752 3.636,1.944 4.86,4.464 3.672,7.56-1.188,3.024-4.788,6.624-10.8,10.8-2.124-1.116-4.86-1.584-8.208-1.548-3.456,0-8.964,1.296-12.096,1.8s-3.888,.828-6.696,.972c-2.95-.036-6.58-.36-10.902-.972z"/>
<path fill="#ffffc7" d="m82.709,40.229c-5.868,8.424-8.316,14.22-7.488,17.532 .828,3.168 8.568,2.16 12.384,2.124 3.708-.036 6.984-2.088 9.684-2.268 2.592-.324 4.104,.468 5.94,.72 1.764,.216 2.268,.576 4.716,.504 2.448-.18 6.084-1.08 9.648-1.44 3.384-.396 7.884-1.224 10.872-.972 2.88,.144 5.111,.792 6.552,1.944 3.6-2.628 6.264-5.004 7.992-7.128 1.764-2.268 2.376-4.284 2.231-5.904-.252-1.692-1.656-3.024-3.924-3.996 .396-1.224 .684-2.124 .576-2.988-.072-.936-.36-1.764-1.008-2.052-.828-.36-2.593-.612-3.349,.072-.899,.756-.647,2.664-1.332,3.924-.72,1.152-2.844,3.312-2.771,2.736 0-.9 2.628-5.22 3.023-7.128 .324-1.944 .433-2.124-1.08-4.14-1.764-2.196-5.292-6.12-8.64-8.28-3.276-2.124-6.048-3.564-11.088-4.32-5.184-.9-14.004-2.232-19.512-.648-5.652,1.584-11.412,6.408-13.68,10.152-2.305,3.673-2.125,7.345 .251,11.556z"/>
</g>
</g>
<g>
<path d="m106.25,56.897c-1.765-.756-6.66-4.644-8.172-5.148-1.584-.432-.252,2.448-1.26,2.664-1.224,.072-3.276-.54-5.184-1.98-1.98-1.476-6.12-6.228-6.012-6.624 .144-.432 5.292,4.032 6.696,3.96 1.224-.252-1.692-5.832 .972-4.932 2.556,.9 12.708,8.28 14.904,10.332 2.02,1.909-.25,2.305-1.94,1.728z"/>
<path d="m111.22,26.658c1.548-1.08 7.632-2.376 10.908-2.088 3.168,.252 6.012,1.908 8.136,3.564 2.052,1.44 3.744,3.276 4.104,5.508 .252,2.232-2.16,5.868-2.376,7.848-.359,1.8 2.484,1.692 .612,3.708-2.124,2.016-11.556,8.928-12.348,8.496-.828-.576 7.092-9.144 7.812-11.412 .576-2.34-3.708-.576-3.528-2.052 .217-1.584 5.185-5.112 4.788-6.984-.504-2.052-4.896-3.996-7.632-4.428-2.808-.468-7.2,2.592-8.892,2.232-1.79-.468-3.16-3.277-1.58-4.392z"/>
<path d="m139.62,42.282c1.332,.18 4.5,3.132 4.213,5.112-.36,1.836-3.996,5.076-6.192,6.372-2.376,1.152-6.408,1.476-7.38,1.116-.973-.432 .18-2.34 1.656-3.384 1.439-1.044 6.3-2.196 6.947-2.916 .504-.864-3.6-1.08-3.42-2.052 .14-1.116 2.7-4.428 4.17-4.248z"/>
<path d="m98.117,33.318c-2.376,1.044-10.224,5.544-9.54,5.58 .72-.144 12.06-5.22 13.751-6.084 1.37-1.044-1.8-.504-4.213,.504z"/>
<path d="m106.36,35.118c-2.052,1.116-8.748,5.508-7.992,5.544 .684-.216 10.512-5.364 11.988-6.3 1.22-.972-2.05-.396-4,.756z"/>
<path d="m115.58,37.35c-1.512,1.008-6.66,7.056-6.3,7.452 .432,.216 7.236-4.572 8.46-5.76 1.04-1.296-.83-2.7-2.16-1.692z"/>
</g>
<g stroke="#000" stroke-width=".036" stroke-miterlimit="10">
<path d="m93.509,59.742c-2.412,1.62-3.96,3.06-4.788,4.463-.9,1.26 .72,2.16 0,3.529-.792,1.367-2.232,2.807-4.464,4.463 1.764,.756 2.592,2.881 2.88,6.373 .108,3.455-.648,10.043-1.584,14.363-1.152,4.355-4.032,8.137-4.176,11.195 .036,2.846 2.34,4.213 3.852,6.049 1.26,1.729 1.62,4.645 4.14,4.465 2.556-.361 10.62-2.557 11.16-6.049 .36-3.637-7.308-10.729-8.28-15.012-.936-4.32 2.376-6.912 2.556-10.836 .108-4.068-.576-8.1-1.908-12.781 1.152-2.412 2.484-3.852 4.14-4.463 1.62-.576 4.176,1.26 5.724,.936 1.439-.539 .756-2.771 3.204-3.492 2.376-.792 10.188-.036 11.195-.648 .864-.72-1.008-1.656-5.76-3.204-1.764,.144-3.636,.144-5.76,0-2.196-.216-5.04-1.08-7.02-.936-2.051,.075-3.706,.652-5.111,1.588z"/>
<path fill="#ffffc7" d="m112.05,59.886c-1.584,.18-3.313,.216-5.328,.108-2.124-.216-4.572-.828-6.769-.72-2.196,.108-4.248,.504-6.156,1.332-2.052,.972-3.312,2.052-3.78,2.844-.54,.828 1.26,.828 .684,2.232-.648,1.332-1.98,3.275-4.14,5.832 .756,.539 1.404,1.549 1.548,3.42 .144,1.729-.432,4.789-.36,7.236 .036,2.305 .792,4.535 .468,6.984-.576,2.52-1.98,5.146-2.952,7.596-.972,2.303-2.124,4.5-2.484,6.156-.468,1.439-.432,2.195 .108,3.096 .54,.828 1.944,.973 2.952,2.232 .792,1.188 1.476,4.463 2.628,5.111 1.188,.539 3.096-1.045 4.608-1.549 1.476-.467 3.132-.611 4.14-1.547 .864-.973 2.232-2.557 1.332-4.607-.972-2.377-5.58-6.193-6.876-8.678-1.26-2.482-1.44-3.527-.972-6.047 .288-2.809 2.628-6.084 2.844-9.684 .108-3.602-.468-7.309-1.872-11.412 .432-2.053 1.26-3.457 2.484-4.357 1.188-.828 3.276-1.008 4.716-.971 1.296-.072 2.412,.828 3.348,.467 .828-.576-.216-2.699 1.872-3.311 2.052-.54 9,.072 10.439-.108 1.3-.357 .47-.861-2.48-1.653z"/>
<path d="m134.8,58.446c.936-.144 2.592-.108 5.111,.252 2.521,.324 9.576,.828 9.937,1.656 .216,.756-7.488,1.836-8.532,2.952-1.152,.972 5.22,2.196 1.764,3.097-3.672,.791-19.548,2.123-22.752,1.764-2.987-.541 2.664-3.24 4.177-4.5 1.332-1.26 4.392-2.376 3.888-2.952-.685-.648-6.876-.108-7.452-.72-.612-.648 .684-1.764 3.888-3.204 2.017,.18 3.744,.468 5.473,.72 1.68,.251 3.09,.611 4.49,.935z"/>
<path fill="#ffffc7" d="m124.72,57.762c.684-.288 1.476-.288 3.204,0 1.62,.216 4.319,.756 6.983,1.188 2.772,.252 6.984,.432 9.145,.684 1.907,.072 3.096,.324 2.735,.612-.504,.288-3.743,.756-5.004,1.404-1.368,.504-2.735,1.584-2.7,2.268 .108,.576 3.78,1.26 2.952,1.656-1.115,.324-5.436,.324-8.783,.576-3.421,.215-10.188,1.332-11.017,.828-.756-.613 4.896-3.313 6.264-4.357 1.152-1.08 1.837-1.8 1.08-2.16-.972-.432-4.896-.648-5.796-.936-.81-.504 .2-1.511 .95-1.763z"/>
</g>
</g>
</svg>
