<svg xmlns="http://www.w3.org/2000/svg" viewBox="0 0 545.48 789.94">
<g transform="translate(-67.68 -126.05)">
<path fill="#e2d89b" d="m588.92,364.45 12.122-6.0609 5.0508-6.0609 2.0203-7.0711-1.0102-7.0711-1.0102-6.0609h6.0609l1.0102,2.0203-4.0406-16.162-6.0609-12.122-19.193-20.203-28.284-25.254-29.294-17.173-29.294-15.152-15.152-5.0508-28.284-6.0609-24.244-5.0508-29.294-2.0203h-21.213l-9.0914-2.0203 6.0609-23.234 11.112-27.274 1.0102-12.122-2.0203-9.0914-1.0102-4.0406-8.0812-2.0203-4.0406-3.0305-8.0812,1.0102-4.0406,7.0711-4.0406,7.0711v3.0305l3.0305,11.112-3.0305,16.162-6.0609,29.294-2.0203,7.0711-11.112-3.0305-22.223-8.0812-23.234-1.0102h-16.162l-15.152-1.0102-21.213,4.0406-20.203,5.0508-23.234,2.0203-34.345,11.112-27.274,12.122-31.315,18.183-21.213,17.173-14.142,18.183 8.0812,6.0609 9.0914,16.162 9.0914,16.162 7.0711,7.0711h7.0711l11.112,2.0203 5.0508,7.0711h7.0711l7.0711,2.0203 4.0406,1.0102 5.0508-1.0102h11.112l8.0812,8.0812 12.122,16.162 7.0711,7.0711 2.0203,12.122 6.0609,8.0812-4.0406,5.0508-4.0406,7.0711 1.0102,7.0711 10.102,13.132 11.112,11.112 4.0406,12.122 2.0203,23.234-3.0305,10.102-2.0203,14.142-1.0102,10.102 8.0812,11.112 1.0102,2.0203 8.0812,5.0508-1.0102,10.102 7.0711,8.0812 3.0305,11.112-1.0102,10.102 2.0203,10.102-1.0102-5.0508v14.142l-4.0406,18.183-11.112,9.0914-4.0406,4.0406h-5.0508l-6.0609,5.0508-1.0102,8.0812-2.0203,9.0914-4.0406,17.173-2.0203,5.0508-3.0305,2.0203 4.0406,8.0812-3.0304,7.0711-4.0406,7.0711v7.0711l-2.0203,8.0812-5.0508,7.0711 1.0102,5.0508-2.0203,8.0812v17.173l-9.0914,15.152-2.0203,12.122-3.0305,6.0609-7.0711-7.0711-6.0609-5.0508 1.0102,10.102-6.0609,13.132h-4.0406l-3.0304,3.0305-2.0203,8.0812-6.0609,5.0508-3.0305,3.0305 1.0102,5.0508v5.0508l-2.0203,5.0508 14.142,7.0711 13.132,6.0609 8.0812,9.0914 13.132,15.152 15.152,13.132 15.152,9.0914 17.173,4.0406 11.112,3.0305 14.142,2.0203h15.152l16.162,2.0203 24.244,12.122 19.193,11.112 17.173,4.0406 28.284,5.0508 18.183-1.0102 21.213-6.0609 18.183-10.102 18.183-10.102 16.162-4.0406 23.234-1.0102 19.193-4.0406 23.234-18.183 13.132-15.152 9.0914-17.173 9.0914-16.162 3.0305-8.0812-4.0406-6.0609-4.0406-5.0508v-18.183l3.0305-5.0508-5.0508-3.0305 3.0305-10.102-3.0305-10.102-11.112-15.152-14.142-8.0812-18.183-17.173 2.0203-8.0812-1.0102-11.112-15.152-19.193-4.0406-9.0914-2.0203-7.0711 2.0203-21.213-6.0609-12.122-6.0609-10.102 4.0406-3.0305-6.0609-10.102-5.0508-3.0305-4.0406-15.152 2.0203-9.0914v-4.0406l-1.0102-8.0812 3.0305-13.132 3.0305-8.0812v-9.0914l-3.0305-10.102-3.0305-6.0609h13.132l9.0914-1.0102 8.0812-8.0812 9.0914-6.0609-6.0609,1.0102-3.0305-1.0102v-6.0609l4.0406-12.122 1.0102-5.0508 1.0102-12.122 2.0203-2.0203-7.0711-9.0914-1.0102-1.0102 7.0711-3.0305 4.0406-7.0711 8.0812-14.142 12.122-17.173 13.132-12.122 11.112-18.183 18.183-14.142 10.102-5.0508 4.0406,1.0102 2.0203,7.0711z"/>
</g>
<g fill="#750006" transform="translate(-67.68 -126.05)">
<path d="m72.731,286.67 12.122-6.0609 17.173-5.0508 8.0812-1.0102 19.193,8.0812 6.0609,9.0914 3.0305,9.0914 15.152,1.0102 19.193-2.0203 19.193,3.0304 15.152,7.0711 14.142,13.132 9.0914,20.203 9.0914,16.162 14.142,7.0711 6.0609,11.112 7.0711,15.152 1.0102,9.0914 13.132-4.0406 14.142-1.0102 8.0812-17.173 10.102-14.142 10.102-10.102 14.142-10.102 22.223-2.0203 10.102,1.0102 4.0406-3.0305 4.0406-15.152 8.0812-8.0812 10.102-3.0305h17.173l8.0812,5.0508 15.152,4.0406 5.0508-7.0711 8.0812-6.0609 9.0914-4.0406h5.0508l15.152,13.132 11.112,14.142v9.0914l19.193-2.0203 29.294,4.0406h44.447l9.0914,1.0102 15.152,3.0305 1.0102-4.0406-3.0305-10.102 2.0203-5.0508 4.0406,2.0203v-9.0914l-8.0812-18.183-12.122-15.152-19.193-17.173-16.162-12.122-21.213-12.122-20.203-12.122-17.173-9.0914-25.254-7.0711-31.315-7.0711-17.173-3.0305-40.406-1.0102-21.213-1.0102-24.244-2.0203-25.254-9.0914-28.284-1.0102-24.244-1.0102-20.203,3.0305-25.254,8.0812h-16.162l-30.305,9.0914-26.264,8.0812-23.234,12.122-27.274,19.193-13.132,13.132-9.0914,14.142 4.0406,5.0508z"/>
<path d="m128.29,811.95 3.0305-8.0812-4.0406-3.0305 4.0406-4.0406 13.132-3.0305 5.0508-3.0305 1.0102,4.0406-3.0305,10.102-1.0102,9.0914v7.0711l-13.132-6.0609-5.0508-3.0304z"/>
<path d="m157.58,828.11v-12.122l4.0406-3.0305 8.0812,2.0203 8.0812-4.0406 6.0609-8.0812-3.0304-13.132 9.0914-6.0609 1.0102-1.0102 19.193,16.162 17.173,15.152 25.254,19.193 20.203,9.0914 20.203-1.0102 24.244,6.0609 25.254-2.0203 9.0914-5.0508 6.0609-5.0508 2.0203-13.132 4.0406-8.0812 15.152-6.0609 13.132,13.132 12.122,15.152 12.122,9.0914 20.203,7.0711 14.142-1.0102 20.203-6.0609 18.183-10.102 16.162-12.122 6.0609-11.112 17.173-4.0406 8.0812-7.0711 3.0305-8.0812 15.152,6.0609 8.0812,5.0508-9.0914,21.213-11.112,18.183-12.122,18.183-14.142,12.122-20.203,9.0914-18.183,3.0305-16.162-3.0305-11.112,4.0406-21.213,11.112-20.203,11.112-22.223,6.0609-23.234-1.0102-30.305-5.0508-19.193-10.102-22.223-11.112-16.162-5.0508-38.386-5.0508-26.264-3.0305-20.203-13.132-20.203-18.183-13.132-15.152z"/>
</g>
<g transform="translate(-67.68 -126.05)">
<path fill="#1d1600" d="m336.38,266.46 9.0914-29.294 4.0406-31.315 7.0711-32.325 3.0305-18.183-5.0508-15.152 11.112-13.132 6.0609-1.0102 7.0711,3.0305 7.0711,3.0304 3.0305,20.203-5.0508,16.162-10.102,24.244-6.0609,29.294-2.0203,22.223 1.0102,20.203-11.112,4.0406h-12.122l-7.0711-2.0203z"/>
</g>
<g fill-opacity=".55">
<g fill="#fff" transform="translate(-67.68 -126.05)">
<path d="m609.12,331.11-12.122-18.183-34.345-29.294-28.284-18.183-24.244-14.142-35.355-1.0102-14.142,5.0508-12.122,4.0406 18.183,11.112 2.0203,4.0406-17.173-1.0102-12.122,3.0305-29.294-2.0203-33.335-5.0508h-14.142l-1.0102-4.0406 24.244,1.0102 31.315,2.0203 10.102-1.0102-8.0812-5.0508v-5.0508l7.0711-6.0609 22.223-12.122 18.183-2.0203-5.0508-5.0508-5.0508-5.0508-8.0812-7.0711-3.0305-3.0305h6.0609l20.203,5.0508 24.244,4.0406 21.213,12.122 28.284,14.142 28.284,21.213 23.234,23.234 15.152,20.203-3.0305,14.142z"/>
<path d="m346.48,275.55-21.213-3.0305-28.284,5.0508-30.305-2.0203-11.112-4.0406-20.203,2.0203-7.0711,6.0609 4.0406-10.102 3.0304-4.0406-3.0304-3.0305-4.0406-6.0609-13.132-8.0812 11.112-1.0102 1.0102-2.0203-3.0304-5.0508-5.0508-6.0609-28.284-4.0406-22.223,8.0812-19.193,10.102-12.122,6.0609-21.213,16.162-6.0609,2.0203-20.203,4.0406-4.0406-1.0102 1.0102-6.0609 1.0102-4.0406 8.0812-16.162 17.173-9.0914 22.223-15.152 22.223-7.0711 30.305-10.102 15.152-3.0304 13.132,2.0203 23.234-10.102 21.213-3.0305 28.284,1.0102 28.284,2.0203 3.0305,4.0406h-20.203l-22.223,2.0203-5.0508,8.0812-3.0305,8.0812 4.0406,10.102 10.102,10.102 18.183,20.203 3.0305,10.102 2.0203,1.0102 14.142-1.0102 15.152-1.0102h8.0812l2.0203,7.0711z"/>
</g>
<g transform="translate(-67.68 -126.05)">
<path d="m307.09,270.5-24.244-1.0102-13.132-3.0305-4.0406-5.0508 3.0305-5.0508 10.102-1.0102-2.0203-1.0102-12.122-14.142-22.223-16.162-35.355-9.0914-7.0711-4.0406 18.183-3.0305h14.142l16.162,2.0203 28.284,11.112 25.254,12.122 17.173,17.173 2.0203,8.0812-2.0203,6.0609-5.0508,1.0102-7.0711-9.0914-10.102-6.0609 10.102,14.142v6.0609z"/>
<path d="m369.72,265.45 32.325,3.0305 9.0914-4.0406 7.0711-5.0508 7.0711-8.0812 19.193-9.0914 12.122-5.0508 5.0508-2.0203-10.102-12.122-16.162-9.0914h-34.345l-14.142-1.0102-12.122-1.0102-5.0508-1.0102-3.0305,19.193-1.0102,12.122v12.122l4.0406,11.112z"/>
<path d="m301.03,232.12 12.122,6.0609 2.0203-10.102 6.0609-3.0305 6.0609,1.0102 10.102,2.0203h5.0508l5.0508-14.142 1.0102-6.0609-25.254-8.0812h-16.162l-25.254,2.0203-8.0812,10.102-3.0305,6.0609 16.162,8.0812 9.0914,5.0508 5.0508,1.0102z"/>
</g>
<g fill="#fff" transform="translate(-67.68 -126.05)">
<path d="m150.51,252.32 22.223,5.0508 10.102,18.183 2.0203,14.142 23.234,6.0609 47.477,10.102h6.0609l6.0609-11.112-12.122-7.0711-41.416-13.132-17.173-10.102-24.244-15.152-8.0812-4.0406-14.142,7.0711z"/>
<path d="m279.81,304.85 24.244,5.0508 16.162-1.0102 12.122-5.0508 13.132-12.122-38.386-4.0406-26.264,1.0102-7.0711,8.0812 6.0609,8.0812z"/>
</g>
</g>
<g fill-opacity=".342" transform="translate(-67.68 -126.05)">
<path fill="#fff" d="m338.4,846.29 5.0508,16.162-1.0102,13.132-5.0508,13.132 3.0305,9.0914 6.0609,5.0508 13.132,10.102 23.234,3.0305 8.0812-6.0609 6.0609-11.112 4.0406-19.193 16.162-11.112 3.0305-20.203-20.203-13.132-8.0812-15.152-13.132-14.142-14.142,7.0711-5.0508,5.0508-4.0406,12.122-2.0203,8.0812-19.193,9.0914 4.0406-1.0102z"/>
<path d="m188.9,782.65 47.477,38.386 30.305,20.203 25.254,1.0102 32.325,5.0508 17.173-2.0203 3.0305,21.213-5.0508,24.244 14.142,18.183 5.0508,5.0508-27.274-8.0812-35.355-18.183-26.264-6.0609-44.447-7.0711-22.223-5.0508-26.264-23.234-22.223-23.234 2.0203-8.0812 4.0406-2.0203h12.122l7.0711-7.0711 4.0406-13.132-3.0304-4.0406 13.132-6.0609h-5.0508z"/>
<path d="m441.44,890.74 23.234-15.152 9.0914-4.0406 13.132,2.0203h21.213l7.0711,1.0102-23.234,10.102-30.305,1.0102-9.0914,1.0102-11.112,4.0406z"/>
</g>
<g transform="translate(-67.68 -126.05)">
<path fill="#001b2c" fill-opacity=".423" d="m425.27,605.87-4.0406,21.213-2.0203,2.0203-1.0102,10.102 4.0406,16.162 5.0508,8.0812-2.0203,19.193 2.0203,13.132 6.0609,3.0305-1.0102,9.0914 4.0406,14.142 13.132,11.112 9.0914,16.162 5.0508,4.0406 8.0812-1.0102 1.0102-6.0609v-6.0609l7.0711-5.0508-23.234-19.193-10.102-12.122-4.0406-18.183 4.0406-4.0406 4.0406-9.0914 10.102-8.0812 9.0914-4.0406 6.0609-3.0305v2.0203l4.0406,20.203 1.0102,3.0305 5.0508,22.223 3.0305,26.264 16.162,17.173 14.142,1.0102 9.0914-1.0102 9.0914,10.102-3.0304,8.0812-7.0711,7.0711 1.0102,8.0812 7.0711,12.122 14.142,1.0102 9.0914,6.0609-2.0203-11.112-1.0102-16.162-1.0102-9.0914-2.0203-18.183-8.0812-13.132-15.152-9.0914-22.223-16.162 5.0508-11.112-5.0508-14.142-13.132-14.142-7.0711-16.162 4.0406-19.193-5.0508-8.0812-11.112-17.173-7.0711-14.142-3.0305-13.132 1.0102-15.152 2.0203-14.142 3.0305-9.0914 5.0508-10.102-5.0508-21.213-8.0812-4.0406-9.0914,1.0102-11.112-2.0203-11.112,5.0508-10.102,3.0305-6.0609,9.0914-8.0812,15.152-3.0305,9.0914 4.0406,12.122 3.0305,5.0508 7.0711,6.0609 5.0508,9.0914 5.0508,7.0711 8.0812-1.0102 12.122-6.0609-8.0812,8.0812-6.0609,5.0508-10.102,8.0812 1.0102,5.0508z"/>
<path fill="none" d="m431.34,546.28z"/>
<path fill-opacity=".423" d="m440.43,537.18 6.0609-2.0203 7.0711,3.0305 3.0305,10.102-3.0305,11.112-5.0508,6.0609-6.0609,2.0203-8.0812,3.0305v-7.0711l-4.0406-3.0305-4.0406,1.0102 2.0203-3.0305 2.0203-7.0711-1.0102-13.132 2.0203-2.0203h3.0304l6.0609,1.0102z"/>
<path fill-opacity=".342" d="m449.52,512.94 3.0305,6.0609 1.0102,8.0812-4.0406,5.0508-5.0508,3.0305-6.0609,1.0102-5.0508-3.0305 2.0203-6.0609 7.0711-4.0406 3.0305-3.0305 4.0406-7.0711z"/>
</g>
<g fill="#001b2c" fill-opacity=".423" transform="translate(-67.68 -126.05)">
<path d="m460.63,753.36-1.0102,12.122 1.0102,11.112 4.0406,10.102 3.0305,1.0102 19.193-7.0711 7.0711-2.0203 5.0508,11.112 10.102,14.142 4.0406,3.0304 10.102,1.0102 1.0102-7.0711-1.0102-4.0406-11.112-9.0914-5.0508-5.0508-8.0812-4.0406-13.132-10.102-8.0812-11.112-7.0711-3.0305-5.0508,2.0203-5.0508-3.0305z"/>
<path d="m303.05,835.18 13.132-62.629 9.0914-20.203 12.122,1.0102 7.0711,3.0305 6.0609-10.102-1.0102-23.234-1.0102-20.203 2.0203-29.294 2.0203-23.234 4.0406-27.274 3.0305-20.203-5.0508-12.122-10.102-10.102 2.0203-6.0609 13.132-18.183 3.0304-10.102 2.0203-13.132-6.0609-16.162-5.0508,8.0812-2.0203,17.173-2.0203,13.132-10.102,8.0812-5.0508-7.0711-1.0102-21.213-6.0609-9.0914-1.0102-10.102 7.0711-15.152 3.0305-18.183 10.102-16.162 15.152-14.142 4.0406-7.0711 20.203-19.193-1.0102-15.152-7.0711,1.0102-8.0812-6.0609-13.132,8.0812-17.173,22.223-9.0914,1.0102-9.0914-1.0102-4.0406-21.213 6.0609-9.0914 15.152-20.203 2.0203-6.0609 1.0102-17.173 4.0406-5.0508 10.102-1.0102-11.112-8.0812h-7.0711l-13.132,7.0711-17.173,19.193-10.102,25.254-8.0812,2.0203-1.0102,13.132 2.0203,12.122 6.0609,10.102 7.0711,21.213-5.0508,16.162-6.0609,2.0203-8.0812,3.0305-6.0609,7.0711 4.0406,5.0508 9.0914,8.0812 6.0609,8.0812 8.0812,3.0305 7.0711,18.183v80.812l7.0711-64.65 5.0508,29.294 4.0406,14.142-2.0203,13.132-5.0508,26.264-2.0203,26.264v15.152l5.0508,27.274v18.183l-3.0305,18.183-8.0812,15.152-8.0812-3.0305-12.122-16.162-2.0203-25.254-17.173,6.0609-3.0305,8.0812-6.0609,14.142-7.0711,14.142 1.0102,7.0711 7.0711-1.0102 15.152-9.0914 13.132,5.0508 5.0508,8.0812-4.0406,14.142-22.223,25.254-10.102,13.132-11.112,11.112-2.0203,5.0508 5.0508,4.0406 5.0508,5.0508 7.0711,2.0203 11.112,5.0508h22.224l3.0304-6.0609z"/>
<path d="m155.56,792.75 8.0812-2.0203 21.213-11.112-3.0305-19.193 7.0711-22.223 10.102-22.223 4.0406-20.203 9.0914-11.112 10.102-23.234 6.0609-10.102 10.102-4.0406 4.0406-23.234 2.0203-15.152v-22.223l3.0304-14.142-5.0508-41.416-6.0609-19.193 2.0203-14.142 5.0508-29.294 9.0914-13.132 3.0304-28.284-15.152-8.0812-1.0102-15.152 1.0102-14.142 5.0508-6.0609-15.152-17.173 2.0203-11.112-1.0102-9.0914-12.122-25.254-18.183-12.122-11.112-3.0305-12.122-1.0102 3.0305,8.0812 3.0304,18.183-9.0914-4.0406-23.234-12.122h-12.122l-8.0812,1.0102-3.0305,8.0812 7.0711,3.0305 26.264,6.0609 8.0812,12.122 4.0406,11.112 10.102,11.112 4.0406,6.0609 3.0305,11.112 5.0508,8.0812-11.112,9.0914 4.0406,12.122 16.162,18.183 7.0711,14.142 1.0102,21.213-2.0203,22.223v17.173l9.0914,13.132 4.0406,1.0102 2.0203,14.142 8.0812,8.0812v40.406l-7.0711,19.193-11.112,11.112h-8.0812l-5.0508,5.0508-2.0203,20.203-3.0305,16.162-6.0609,4.0406 5.0508,8.0812-6.0609,14.142-4.0406,6.0609v7.0711l-4.0406,10.102-3.0305,24.244-3.0304,11.112-7.0711,11.112-4.0406,15.152-9.0914-10.102-11.112,22.223-3.0305,2.0203-3.0305,6.0609-8.0812,11.112 12.122-4.0406 7.0711-3.0305 5.0508,2.0203z"/>
<path d="m481.84,338.18-35.355,52.528-5.0508,33.335-14.142,16.162-49.497,17.173-3.0305,9.0914 14.142,1.0102 40.406-7.0711 9.0914-3.0305 12.122,2.0203 12.122,5.0508v15.152l-7.0711,7.0711-13.132,2.0203-7.0711-12.122-5.0508,15.152-5.0508,22.223 19.193-8.0812 21.213,4.0406 11.112,2.0203 10.102-3.0305 8.0812-4.0406 10.102-10.102-6.0609-1.0102 8.0812-35.355-8.0812-10.102 10.102-8.0812 22.223-33.335 18.183-19.193 12.122-20.203 21.213-12.122 6.0609,6.0609 3.0305,3.0305 10.102-7.0711 5.0508-7.0711-24.244-4.0406h-49.497l-35.355-5.0508-8.0812-3.0305h-8.0812z"/>
</g>
<g fill-opacity=".342" transform="translate(-67.68 -126.05)">
<path fill="#46452a" d="m237.39,532.13 17.173,7.0711 14.142,22.223 6.0609,16.162-5.0508,14.142-6.0609,26.264 4.0406,24.244 5.0508,16.162 16.162,18.183-7.0711,1.0102-12.122-19.193-5.0508-2.0203-7.0711,8.0812-7.0711,13.132 11.112,16.162-8.0812,5.0508-7.0711-10.102-7.0711-2.0203-14.142-2.0203-11.112,2.0203 5.0508-14.142 8.0812-19.193 11.112-6.0609 3.0305-21.213 4.0406-28.284-2.0203-23.234 4.0406-11.112-5.0508-27.274-3.0305-9.0914-2.0203,5.0508z"/>
<path fill="#3d3800" d="m291.93,473.54-10.102-9.0914-13.132-5.0508-11.112-4.0406-5.0508-28.284 5.0508-4.0406 7.0711-4.0406 18.183-2.0203 6.0609,8.0812 9.0914,20.203 5.0508,15.152-11.112,13.132z"/>
<path fill="#595738" d="m385.88,410.92 12.122-17.173 20.203-10.102 16.162-13.132 13.132-14.142 12.122-6.0609-2.0203-12.122-7.0711-7.0711v-17.173l-6.0609,5.0508-10.102,8.0812-19.193-9.0914-21.213-1.0102-13.132,8.0812-9.0914,20.203-11.112-2.0203-5.0508,6.0609-2.0203,7.0711-5.0508,13.132-3.0305,8.0812 5.0508,3.0305 10.102,9.0914 4.0406,7.0711 8.0812,7.0711 9.0914,8.0812 4.0406-1.0102z"/>
</g>
</svg>
