<svg width="175.749" xmlns="http://www.w3.org/2000/svg" viewBox="0 0 175.74897 37.531249" height="37.5312">
<defs>
<linearGradient gradientTransform="matrix(0 1 -1 0 63.641 7.6164)" id="linearGradient2524" y1="16.25" x1="28.414" y2="62.974" gradientUnits="userSpaceOnUse" x2="20.353">
<stop offset="0" stop-color="#56d760" stop-opacity=".589"/>
<stop offset="1" stop-color="#18b01f" stop-opacity=".392"/>
</linearGradient>
<linearGradient gradientTransform="matrix(0 1 -1 0 63.703 7.1282)" id="linearGradient2526" y1="16.125" y2="59.484" gradientUnits="userSpaceOnUse" x2="0">
<stop offset="0" stop-color="#3ec549" stop-opacity=".508"/>
<stop offset="1" stop-color="#4fe756" stop-opacity=".117"/>
</linearGradient>
<linearGradient gradientTransform="matrix(0 1 -1 0 63.627 7.4347)" id="linearGradient2520" y1="34.687" x1="5.068" y2="42.613" gradientUnits="userSpaceOnUse" x2="44.702">
<stop offset="0" stop-color="#1b611f"/>
<stop offset="1" stop-color="#103f14"/>
</linearGradient>
<linearGradient gradientTransform="matrix(0 1 -1 0 63.627 7.4347)" id="linearGradient2522" y1="15.406" x1="32.382" y2="62.81" gradientUnits="userSpaceOnUse" x2="16.504">
<stop offset="0" stop-color="#179907"/>
<stop offset="1" stop-color="#0f7402"/>
</linearGradient>
</defs>
<g transform="matrix(13.994 0 0 13.994 718.93906 -27.47679)">
<path fill="url(#linearGradient2520)" d="m32.471,18.591h-14.063c-.049-1 0-5 0-5-.009-.447-.117-.83-.531-1-.414-.17-.867-.093-1.188,.219l-16,16c-.4214,.435-.4214,1.127 .0004,1.562l16,16c.321,.312 .774,.42 1.188,.25 .414-.169 .522-.584 .531-1.031v-5h7.938c2.281-.156 3.281,.844 3.281,3.844v6.062c0,0 0,1 1,1 6,0 12-.062 18-.062 1,0 1-1 1-1v-12.5c0-14.5-8-19.5-17.156-19.344z"/>
<path fill="url(#linearGradient2522)" d="m48.221,37.872c0-7.003-1.917-11.445-4.75-14.187-2.834-2.743-6.705-3.887-11.032-3.813h-14.093c-.719,.001-1.311-.563-1.344-1.281-.05-1.031-.012-3.439 0-4.313l-15.25,15.25 15.25,15.282v-4.282c0-.742 .602-1.343 1.344-1.343h7.843c.032-.002 .062,.001 .094,0 1.318-.073 2.637,.211 3.5,1.187 .884,1 1.125,2.351 1.125,4v5.719c5.762-.002 11.533-.06 17.313-.063v-12.156z"/>
<path fill="url(#linearGradient2524)" d="m47.391,38.054c0-6.849-1.857-11.036-4.5-13.594-2.642-2.557-6.268-3.633-10.438-3.562h-14.094c-1.161,.001-2.133-.934-2.187-2.094-.029-.594-.007-1.421 0-2.313l-13.219,13.219 13.219,13.25v-2.25c0-1.198 .989-2.187 2.187-2.187h7.782c.068-.005 .045-.001 .062,0 .018,0 .096-.002 .063,0 1.469-.082 3.064,.233 4.156,1.468 1.083,1.226 1.344,2.831 1.344,4.563v4.875c5.197-.007 10.405-.056 15.625-.063v-11.312z"/>
<path fill="url(#linearGradient2526)" d="m47.365,39.79c.266-6.44-.593-11.681-4.352-15.246-2.682-2.544-5.504-3.643-10.622-3.572h-14.094c-1.13,.001-2.073-.903-2.125-2.031-.031-.624-.012-1.545 0-2.438l-13.214,13.214 9.793,9.794c1.932-7.883 9.08-13.39 17.952-13.39 7.152,0 12.298,2.105 16.662,13.669z"/>
</g>
<g fill="none" stroke="#000" stroke-width="7.779" transform="matrix(0 1 -1 0 216.625 -282.78125)">
<path d="m286.5072,69.925c.34-1.186 11.57-25.678 17.14-25.14 5.57,.538 12.93,25.337 12.93,25.337"/>
<path stroke-width="8.996" d="m302.6993,46.6006c0,0-2.7803,65.1952 .8124,169.8652"/>
</g>
</svg>
