<svg xmlns="http://www.w3.org/2000/svg" viewBox="0 0 360 290" xmlns:xlink="http://www.w3.org/1999/xlink">
<defs>
<filter id="filter5450">
<feGaussianBlur stdDeviation=".75546"/>
</filter>
<filter width="1.204" x="-.102" y="-.11" height="1.221" id="filter5254">
<feGaussianBlur stdDeviation="1.91794"/>
</filter>
<filter id="filter5266">
<feGaussianBlur stdDeviation="1.91794"/>
</filter>
<filter id="filter4910">
<feGaussianBlur stdDeviation="4.77055"/>
</filter>
<filter width="1.327" x="-.164" y="-.123" height="1.246" id="filter5250">
<feGaussianBlur stdDeviation="1.91794"/>
</filter>
<filter id="filter4918">
<feGaussianBlur stdDeviation=".69935"/>
</filter>
<filter width="1.081" x="-.04" y="-.137" height="1.273" id="filter5238">
<feGaussianBlur stdDeviation="1.91794"/>
</filter>
<filter width="1.174" x="-.087" y="-.454" height="1.908" id="filter5246">
<feGaussianBlur stdDeviation="1.91794"/>
</filter>
<filter id="filter5230">
<feGaussianBlur stdDeviation="1.91794"/>
</filter>
<filter width="1.097" x="-.049" y="-.138" height="1.276" id="filter5242">
<feGaussianBlur stdDeviation="1.91794"/>
</filter>
<filter id="filter4922">
<feGaussianBlur stdDeviation=".72319"/>
</filter>
<filter id="filter5234">
<feGaussianBlur stdDeviation="1.91794"/>
</filter>
<filter id="filter4898">
<feGaussianBlur stdDeviation="4.8363"/>
</filter>
<filter id="filter5262">
<feGaussianBlur stdDeviation="1.91794"/>
</filter>
<filter id="filter5274">
<feGaussianBlur stdDeviation="1.91794"/>
</filter>
<filter id="filter5258">
<feGaussianBlur stdDeviation="1.91794"/>
</filter>
<filter id="filter5302">
<feGaussianBlur stdDeviation="1.91794"/>
</filter>
<filter id="filter5270">
<feGaussianBlur stdDeviation="1.91794"/>
</filter>
<filter width="1.098" x="-.049" y="-.124" height="1.247" id="filter5290">
<feGaussianBlur stdDeviation="1.91794"/>
</filter>
<filter id="filter5306">
<feGaussianBlur stdDeviation="1.91794"/>
</filter>
<filter id="filter5282">
<feGaussianBlur stdDeviation="1.91794"/>
</filter>
<filter id="filter5286">
<feGaussianBlur stdDeviation="1.91794"/>
</filter>
<filter id="filter5298">
<feGaussianBlur stdDeviation="1.91794"/>
</filter>
<filter width="1.102" x="-.051" y="-.107" height="1.214" id="filter5294">
<feGaussianBlur stdDeviation="1.91794"/>
</filter>
<filter id="filter5278">
<feGaussianBlur stdDeviation="1.91794"/>
</filter>
<pattern width="372" height="400" patternTransform="translate(0,0) scale(0.2,0.2)" patternUnits="userSpaceOnUse" id="Camouflage">
<g>
<path fill="#344a33" d="m89,270h391v410h-391v-410z"/>
<g fill="#463a28" transform="matrix(.5 0 0 .5 161.785 352.005)">
<path d="m600,178.31c-39.03,11.926-80.769,11.59-120.77,5.271-23.312,3.272-40.61,29.469-66.28,19.562-28.227-2.683-56.409,1.775-84.544,3.537-18.6-16.163-52.876,21.338-21.803,27.674 20.607,1.778 42.389-5.013 62.017,4.608 14.417,8.932 22.188,19.731 39.909,20.388 12.127,14.982-21.854,10.712-30.035,9.152-21.287,1.932 6.566,23.899 17.4,22.346 28.685,3.669 53.915-14.855 81.511-18.127 18.185,7.078-14.123,23.707-24.3,23.529-14.327-1.726-34.402,11.33-13.859,20.329 17.787,7.482 45.955-.909 54.279,21.519-8.468,23.075-44.461,13.298-62.188,5.271-18.004-13.678-40.895-4.149-55.57,9.643-13.463,12.813-28.716,23.82-45.804,30.657-17.173,19.907 16.034,32.303 27.302,19.201 4.896,21.41-30.514,11.606-32.607,28.593 17.316,9.803 48.815-.976 55.844,23.477-1.994,24.356-32.067,33.21-51.327,22.285-28.577-8.771-59.237-16.952-88.961-8.731-15.953,2.907-33.667,8.393-48.428-1.332-19.536-9.566-35.881-24.172-53.786-36.362-13.176-26.657-41.903-43.74-71.225-45.907-19.792-10.338-51.059-22.364-69.057-3.937-3.347,24.072 33.885,22.263 48.476,33.7 21.03,6.296 23.308,39.395-3.279,35.714-29.923,.792-64.354,2.05-88.624-18.596-12.037-12.307-15.865-30.039-25.53-44.079-17.58-20.212 9.783-36.011 28.713-32.403 26.009-.267 25.413-34.148 32.494-51.652-15.62-14.988-30.71,17.858-45.974,20.763-22.295-2.077-27.571-31.86-26.515-50.258 1.996-23.525-24.802-31.91-32.23-52.502-10.911-17.42-24.709-1.639-17.06,13.289 11.018,25.005-1.473,51.926 3.883,77.783 3.061,21.652 36.131,31.303 28.269,55.602-12.286,14.847-25.963,42.263-50.341,31.464 0,24.219 0,48.937 0,73.399 24.698,5.373 17.77,35.357 13.318,52.938-1.753,22.802 20.812,34.264 39.292,39.956 17.404,5.946 34.188,16.248 41.746,33.703 17.92,22.569 49.746,18.458 75.09,23.649 18.992,5.664 37.812,13.662 58.111,11.462 50.813,.348 101.628-.033 152.443,.112-24.16-14.169-53.499-6.533-79.265-14.943 23.867-7.02 51.44,7.979 73.077-8.127 24.976-12.439-15.318-23.104-27.342-18.04-21.754,4.05-44.723,9.047-66.007-.166-20.729-10.343-39.616-25.834-53.494-44.384-18.022-21.537 2.845-49.049 28.451-39.482 21.835,3.96 47.751,2.089 64.461,19.199-15.779,3.985-37.18-11.082-53.179,1.16-19.422,15.821 1.455,44.045 19.973,49.412 24.43,9.153 51.148-2.865 75.19,8.181 24.136,11.357 53.25,7.714 74.405-8.342 16-11.051 54.806-2.651 64.151-7.048-17.121,9.08-21.928,37.808 4.633,28.073 26.558-5.65 51.584-16.709 78.039-23.493 19.32,6.091 50.278,21.36 62.887-2.1 5.853-19.181 25.544-24.179 38.73-36.249 17.348-19.723-17.663-14.841-29.075-15.318-19.349-.558-38.64-2.301-57.885-4.302 15.068-23.816 46.546-25.271 71.817-23.414 27.022-12.609 62.829-13.074 80.433-40.617-1.869-22.51 3.727-52.019-2.78-70.18-29.589-7.099 5.439-35.303 2.78-52.523 0-51.328 0-102.657 0-153.987z"/>
<path d="m-74.218,518.06c-23.314,8.785-50.098-1.932-71.774,3.746-11.08,21.532 .529,47.809-3.828,71.294-1.409,18.517-5.812,50.8 22.501,41.813 29.758-.353 59.722,1.533 89.344-1.424 13.964,1.093 30.245-19.318 7.745-20.544-27.859-1.226-24.272-40.706 3.421-38.869 23.048-1.315 46.213-5.469 65.441-18.861 15.774-19.551-21.993-17.755-33.026-12.895-20.487-.133-35.605,10.214-49.686,23.56-15.251-2.394-29.842-14.946-47.925-8.995-21.447,1.125-3.919-23.631 10.375-16.502 14.074-5.728 43.736,13.236 46.648-7.497-6.462-11.629-26.521-14.39-39.236-14.826z"/>
<path d="m-77.873,101.507c16.628,16.134 42.84,.268 58.907,5.381-16.271,20.897 17.573,28.512 32.629,19.78 21.231,8.982 33.136-17.706 52.94-15.227 21.85,6.911 44.903-.93 66.954-.51 12.995-3.179 43.492,16.528 21.64,23.715-18.156-.437-37.709-7.089-54.134,.925-15.781,17.601 12.685,12.854 22.873,12.489 16.694,8.191 34.529,15.61 47.006-3.302 15.672-12.447 36.936-8.203 55.132-13.984 27.195,.24 8.094,27.075-9.363,26.389-17.947,10.719-39.117,5.771-57.77,12.583-26.925,15.205 1.621,37.644 19.226,40.146 1.19,21.345-33.78,15.82-48.816,20.318-16.957,4.607-47.14-13.023-53.088,10.668-1.899,21.813 43.194,20.841 20.399,42.601-8.582,15.97-46.434,2.358-31.031,27.445 10.119,22.647-27.147,2.223-40.17,7.414-12.377,9.42-36.721-4.628-21.704-17.885 7.677-1.449 29.052,2.319 23.082-11.578-16.83-2.224-41.729,12.455-52.481-7.145 7-17.83-17.626-34.76-2.344-48.468 5.699-3.506-20.147,5.036-14.841-10.891 6.023-16.795 3.492-31.945 1.226-48.325 6.9-4.852 23.984-20.539 4.05-17.985-10.182,2.239-24.741-5.688-31.841-4.822 .249-11.536-6.587-30.456-20.124-16.925-24.967-3.716-3.392-33.114 11.643-32.807z"/>
<path d="m119.843-1c-3.287-136.634-37.707-139.81-55.258-149.953-21.928,2.426-31.098,28.812-53.289,31.473-26.252,2.54-2.572,36.294-28.568,40.389-38.999,13.127-83.607,11.669-118.301,36.49-18.308,16.577-8.409,43.262-6.178,64.151 2.339,23.619 36.881,12.823 36.123,36.554 5.746,29.177 37.311-.246 52.425-5.333 22.169-11.561 41.307,15.582 63.357,8.105 11.887-12.528 29.556-15.022 46.124-15.636 18.513-.25 32.586-14.25 51.444-12.854 31.588-2.507 63.349-.038 94.883-2.181 19.775-3.162 39.604-5.867 59.558-7.292 21.181-3.467 42.808-13.901 64.392-6.985 16.472,21.071 39.741,1.805 48.332-15.096 20.383-12.817 45.548-11.197 68.515-14.195 20.015,2.142 49.671,3.637 55.418-21.436 1.145-20.391-24.409-26.707-40.708-26.453-25.832,5.562-51.189,16.938-78.253,15.007-13.493,4.217-46.928,23.07-47.713-.85 8.703-6.045 27.859-24.71 4.828-24.247-24.1-.636-48.66,18.793-71.943,5.061-8.732-23.435 22.523-32.512 40.268-32.672 25.504-3.308 50.993,1.128 75.749,6.914 17.224-1.656 47.234,9.953 57.529-3.658-5.865-17.977-20.605-24.133-36.992-30.954-10.987-9.552-39.951,4.435-39.194-19.948 14.129-18.617-21.073-9.838-31.349-5.622-15.215,6.955-31.836,7.673-47.92,9.584-23.946-1.32-33.935-31.62-60.07,141.637-34.403,0-68.806,0-103.209,0zm-12.718-107.5c21.258,10.481 42.573,20.894 64.476,29.973 17.585,4.557 49.895-14.777 57.033,6.068-13.033,16.137-38.056,1.361-56.189,5.381-22.734,1.601-49.075,8.228-68.371-7.973-11.743-6.596-52.36-2.173-38.228-23.509 13.223-5.517 29.774,.201 41.279-9.94z"/>
<path d="m-150-1c0-133.446 0-102.893 0-72.34 9.383,4.357 30.614,6.509 16.061-8.521-12.645-25.588 26.101-10.895 33.968-28.951 19.643-21.968-25.586-17.667-21.489-40.608 4.337-23.858 35.681-5.625 52.203-10.778 8.393-.179 28.305-3.789 9.016-2.844-29.918,.126-59.839-.004-89.759,164.042z"/>
<path fill-rule="evenodd" d="m473.656,509.156c-21.422-4.879-32.269,42.814-4.86,29.746 21.292-9.986 1.021,32.662 24.563,21.995 10.665,6.52 45.103-2.239 23.694,15.012-13.819,6.611-8.597,17.938-2.557,26.62-4.264,13.682-13.479,39.224 11.529,32.471 24.658,0 49.316,0 73.975,0 0-36.823 0-73.646 0-110.469-16.39,16.073-44.45,9.381-63.445,12.573-12.35-4.934-5.163-20.466-5.057-24.008-20.757-1.205-38.799,10.922-57.842-3.94z"/>
<path d="m510-1c-2.235-148.145 27.198-168.76 11.773-155.735-12.243,14.935 13.163,30.255 4.397,45.99 9.589,24.404 48.771-4.095 53.99,12.789-9.968,6.989-46.762,7.103-23.725,24.791 13.795-.386 30.973,.524 42.367-3.648 4.405-19.074-1.548-39.295 1.217-58.88 3.606-17.361-.467-36.268-21.904,134.693-22.705,0-45.41,0-68.115,0z"/>
<path d="m297.218,609.281c-23.758,6.879-52.119-1.675-72.485,15.578-11.618,17.517 24.398,11.54 33.36,6.446 18.911-11.203 40.661-15.093 62.383-13.594 14.764-.923 17.035-7.467 1.088-6.287-8.128-.515-16.303-.758-24.346-2.143z"/>
<path d="m-126.656,154.81c-10.995,16.17-31.536,29.219-23.344,51.817 0,46.124 0,92.248 0,138.373 7.348-16.4 22.648-39.819 42.012-23.069 25.683,5.914 30.879-30.747 22.635-47.861-11.168-15.53-31.251,12.144-34.259-11.767-9.833-20.073-10.87-41.469-1.42-61.847 1.45-14.335 23.858-47.458-5.624-45.646zm-23.344,230.19c0,25.083 0,50.166 0,75 14.772-16.564 10.129-40.191 16.028-59.975 2.269-9.84-6.531-17.729-16.028-15.025z"/>
</g>
<g fill="#758949" transform="matrix(.5 0 0 .5 161.785 352.005)">
<path d="m-19.092,152.663c18.756,12.491-25.403,21.157-3.813,29.994 4.362,20.735-33.052,18.902-21.606,42.348 4.557,13.052-15.658,23.525-12.398,4.871 2.801-12.653-1.691-27.55-17.019-21.758-15.495-10.778 22.233-15.977 9.36-30.568-6.078-27.136 25.309-23.64 42.051-22.92l3.425-1.967z"/>
<path d="m233.782,202.069c-21.617,13.146 17.581,38.976-5.579,46.105-12.119,14.41-30.691,24.091-46.699,10.548-15.198-5.047-23.353,28.075-7.899,11.936 13.941-7.127 24.025,17.019 4.542,13.537-25.289,9.222 9.17,20.72 20.024,11.396 24.033-4.851 16.739,21.601 12.149,34.179 15.751-1.816 27.147-24.263 45.439-28.39 16.753,.74-14.068-9.928-17.101-9.984-6.95-9.428-26.768-10.866-9.859-21.255 12.758-16.167 35.16-25.749 54.871-21.204 23.34,10.283 22.666,41.823 3.651,56.164-11.57,18.996 14.296,12.765 18.818,.229 7.13-9.55 13.852-11.563 15.693,1.823 6.642,8.745 21.308-7.914 12.386,5.911 9.346,17.799 31.382-18.679 21.714-31.647-20.105-17.73 21.108-12.232 17.215-26.659-17.933-15.45-43.257-.381-60.524,2.567-9.412-17.285-22.189-31.52-43.136-28.891-16.167-2.584-29.455-12.058-35.705-26.365z"/>
<path d="m-130-165c-16.497,10.579 18.071,20.44 13.846,34.156 9.317,3.106 10.535-26.524 22.739-10.857 1.387,16.088-30.884,38.492-2.798,48.846 24.807,2.08 4.212-33.843 25.666-31.843 22.306-1.216-26.385-17.323-5.83-30.832 19.484-2.794 24.967,23.919 40.571,28.877 18.89-5.265-19.412-36.948 8.743-27.772 24.173,8.418 44.12,25.235 66.239,37.531 1.652,15.583-24.143,23.212-25.641,41.217-13.913,20.418 17.936,42.981 32.439,25.929 14.65-20.068-31.427-14.12-12.793-32.148 12.098-17.219 31.468-22.036 50.073-28.627 12.019-14.815 39.79-26.509 51.487-4.709-1.769,23.703 27.134,16.22 24.053-3.942 1.082-23.086-39.207-10.122-34.817-32.193 18.42-19.232-21.303-14.753-22.37-11.647 13.18,25.093-30.364,17.131-44.24,19.174-20.703-.951-59.588,2.666-65.569-19.86 18.784-3.231-13.586-.2-20.235-1.3-33.854,0-67.708,0-101.563,0z"/>
<path d="m80.18-53.14c-23.28,.478 8.958,21.798 19.098,18.96 23.417,5.149 45.969-11.768 69.257-4.67 17.515,24.167-20.165,28.467-35.139,32.511-17.365,6.93-20.507,30.168 1.196,31.335 .454,10.779-29.728,1.145-40.915,7.38-55.374,7.927-112.046,9.166-167.359,.49-23.88-1.035-49.978,12.729-56.798,36.773 16.94,18.735 41.815-4.892 61.418-6.942 25.503-8.901 51.444,2.108 73.885,13.903 19.67,8.649 41.764,13.998 63.2,9.659 21.525,4.225 38.919-29.218 59.393-13.559-4.115,30.934 50.46-1.073 44.367,34.119-1.365,27.273-39.742,23.585-44.897,47.24-.322,25.71 31.764,33.016 51.974,32.621 20.126-6.698 4.722-34.51 24.206-44.76 12.684-11.622 27.939-21.72 44.588-26.183 22.258-2.058 36.393,27.753 59.309,18.293 11.823,2.837 22.123-1.71 9.134-11.41-12.417-21.707-36.682-27.078-59.031-29.892-13.346,.928-50.06-15.32-22.593-24.659 22.495-5.731 42.705,9.16 62.062,17.805 25.295,3.018 14.146-28.171 12.153-42.107-9.525-23.123-36.929-15.15-56.128-14.184-10.253,3.258-29.148-4.466-12.122-12.414 7.031-20.183-38.916-11.02-24.458-30.865 16.991-14.288 41.304-18.524 62.759-14.995 16.269,6.676-24.896,27.093 1.986,25.452 22.659-4.262 45.852-6.945 68.581-2.642 13.695,1.313 20.423-17.613 2.122-15.18-22.314,5.192-49.652,13.75-63.981-10.394-20.691-11.123-45.494,1.482-66.84-6.859-17.02-7.308 10.259-31.039-12.512-22.061-19.919,6.29-40.672,5.272-61.114,2.888-18.435-2.069-37.311-1.732-55.105,3.891-3.855,.629-7.803,.995-11.696,.456z"/>
<path d="m512.876-62.711c27.803,8.973-6.277,38.883-24.335,31.604-23.59,2.384-48.163,1.746-70.681,6.249-18.536-4.734-2.779-16.424 8.426-10.786 21.258-1.972 42.206-8.172 62.337-14.975 8.182-3.834 15.803-8.823 24.253-12.092z"/>
<path d="m451.001-1.461c17.725,.621 10.652,28.024 15.65,35.106-26.44,6.815 13.795,21.37 11.795,.059-8.816-15.218 9.63-12.033 10.203,1.157 13.26,6.583 32.584,9.45 48.022,18.309 12.982,14.959-16.488,36.06-24.493,50.589-15.281,6.496-33.088,30.908-7.135,36.353 8.117,2.538 29.542,23.948 8.357,13.284-20.304-6.207-38.329-22.051-60.231-20.192-16.407,5.406-55.035-3.533-29.784-23.094 7.561-4.35 34.775-18.33 12.698-20.382-15.957,7.853-32.757-9.175-12.533-17.774 10.756-2.782 47.316-4.453 30.763-21.382-8.529-2.106-35.813-6.747-12.972-12.417 11.22-11.503-22.092-38.057 9.66-39.616z"/>
<path d="m120.75,286.171c-25.722-6.676-48.981,11.009-69.544,23.776-15.406,17-43.581,29.475-60.033,7.015-20.314-17.406-49.994,6.675-30.28,28.178 10.753,21.629 35.412,26.182 52.323,41.018 15.853,11.353 35.313-1.698 52.688,5.544 26.642,5.663 43.183,31.317 48.228,56.513 2.46,22.332 20.742,21.495 35.914,12.003 15.338,1.392 26.693,16.128 42.148,20.188 14.406,5.672 32.877,11.24 46.943,2.714 13.82-15.977-41.044-27.28-10.259-27.136 21.904-.209 43.546,5.856 65.48,3.649 16.102-22.108-17.605-43.857-37.263-30.83-21.978,7.416-47.361,7.047-65.194-9.229-17.661-4.935-34.288-25.024-11.701-34.442-4.47-27.253-35.358-8.374-52.362-14.833-17.244-3.08-52.416-23.286-23.447-37.74 9.19-9.578 35.675,16.452 27.457-5.677-4.086-16.479-37.229,2.559-31.143-15.027 11.753-13.251 36.911,16.955 40.463-.915-4.586-7.631-36.666-10.81-24.583-18.18 4.417,.062 11.675-2.328 4.165-6.589z"/>
<path d="m562.095,205.85c11.689-5.326 43.158,4.92 17.953,14.14-17.416,6.286-49.014,4.843-57.265,16.95 10.022,20.164-18.598,29.179-32.438,20.873-8.498,7.678-33.025,15.254-22.908-5.223 12.027-7.57 45.999-13.013 23.123-29.706 12.425-12.179 32.577-4.298 47.541-11.997 7.903-2.083 15.87-4.03 23.994-5.037z"/>
<path d="m473.938,414.663c27.072,7.262-28.887,29.551-4.155,22.119 12.148,2.908 18.889,14.732 30.722,3.388 19.349-7.781 40.652,.047 58.129-12.211 12.075-1.449 9.113,15.371 15.901,21.975-5.476,22.144-33.513,18.487-51,22.97-26.422,5.233-53.132,9.881-79.238,16.18-15.709,6.916-7.626,30.742 9.125,18.996 21.691-6.281 44.434-8.349 64.779,2.574 15.776,4.596 54.353-15.854 51.647,11.294-16.921,19.287-42.181,.44-63.345,4.592-13.559,1.165-50.615-5.688-36.018,18.736 5.582,20.365-32.884,18.584-47.464,16.179-11.723-3.139-.576-37.724-26.162-27.233-23.415,2.015-48.596,4.906-70.341-6.222-12.81-21.829 25.599-15.454 31.015-14.506 15.136-16.457 41.451-3.966 58.615-16.999 12.695-13.503-16.266-36.889 9.456-42.225 12.502-2.172 3.745-7.555 3.583-11.802 10.194-14.43 26.76-26.42 44.751-27.805z"/>
<path d="m275.179,501.892c17.231-12.959 36.489,19.004 11.334,22.116-23.743,1.07-46.954,8.622-70.15,7.984-18.915,6.075-42.382-21.14-15.822-27.359 16.827-6.865 34.453-1.774 51.539-.042 7.778,.056 15.498-1.154 23.099-2.699z"/>
<path d="m90.907,421.85c24.19,12.355-10.992,27.29-15.599,40.083 .738,14.905 36.585,31.272 12.729,43.881-22.446,5.896-20.918,33.567-13.646,49.014-5.598,16.374-13.745,28.31 .594,21.37 15.068,7.232 2.37,23.324-5.306,23.738 8.566,6.324 12.469,40.802-10.721,31.501-15.147-16.609-7.149-32.467-20.771-49.947-22.605-4.563-27.104-49.769 .084-49.7 13.712-9.703-15.267-4.504-12.284-15.57-11.186-8.842-50.154,7.247-39.635-18.255 18.492-13.768 42.816-.894 63.38-7.065 23.004-13.023 14.553-45.317 29.669-64.181 2.815-3.316 7.208-5.064 11.506-4.869z"/>
<path d="m-79.875,564.18c-5.538,17.36 33.821,44.352 .92,50.175-18.084,2.962-38.415,5.866-51.045,20.645 47.104-.322 94.241,.66 141.323-.54 18.495-2.587 20.817-31.008-1.462-23.422-18.874-6.801-39.79,17.794-54.358-.983-11.674-15.418-24.193-30.543-35.378-45.875zm229.875,38.947c-5.663,23.908-41.089,7.956-50.08,27.842 17.161,16.817 35.216-8.516 52.85-8.509 23.209,4.373 45.716,16.08 70.094,11.239 12.515,2.704 39.5-15.974 15.223-19.243-20.252-1.82-40.115-3.418-60.323-.706-13.013,2.531-24.681-34.427-32.904-16.27 1.931,1.705 3.69,3.509 5.14,5.647z"/>
<path d="m540.843,255.5c-16.065,11.532 5.356,35.331 16.871,42.856 15.83,22.954-6.816,44.992-27.897,51.992-14.933,10.112-31.671,28.474-51.199,17.286-21.533-9.402-22.09-37.879-5.814-52.644 7.576-5.43 23.255-34.374 3.797-21.93-21.875,13.294-10.376-33.512-21.704-23.792-5.481,26.295-17.81,53.149-41.62,67.497-15.723,15.555-36.423,21.723-55.374,31.793-22.5,17.428-6.157,46.133 13.831,57.235 9.222,11.593 33.92,41.116 44.783,21.207-9.751-21.789-41.636-22.91-47.995-47.183 11.772-21.119 36.86,1.338 50.943,9.115 16.555,9.465 20.909-9.881 3.749-13.466-15.609-7.742-5.911-29.193 10.197-18.227 22.025,9.918 44.083,20.364 65.324,31.496 18.795,17.713 38.621,34.112 58.072,51.074 15.185,19.957 53.38,10.241 43.831-18.113-5.096-12.786 8.701-44.474-16.013-33.038-18.224-.68-40.329,1.342-56.67-7.523-2.771-15.705 12.144-28.251 22.052-38.782 12.299-11.223 27.489-19.113 43.516-23.113 14.251-10.374 6.158-29.17-10.942-26.76-14.311-16.171-15.281-42.654-34.357-55.105-2.305-1.09-4.813-1.845-7.381-1.875z"/>
<path d="m-94.406,299.06c-17.898,4.231-51.539,3.26-60.594,23.44-.824,25.333 26.673-4.665 40.063-3.295 28.303-7.259 58.244,.393 84.076,12.564 20.336-10.79-16.579-20.152-25.991-23.55-12.011-4.689-24.49-9.182-37.554-9.159zm-60.594,105.94c-.704,18.49-.581,45.965-.077,58.884 27.095-11.24 51.931-11.871 70.177-26.746 8.254-25.434-26.367-34.232-45.198-35.498-6.76-.383-13.737,.36-24.902,3.36z"/>
</g>
<g fill="#17181f" transform="matrix(.5 0 0 .5 161.785 352.052)">
<path opacity=".6" d="m44.47,84.288c-2.379,1.857-1.343,3.3 0,0z"/>
<path d="m435.313,39.975c1.756,.101 .505-.668 0,0z"/>
<path d="m569.376,220.569c2.57-.869-.854-2.24 0,0z"/>
<path d="m-40.779,446.382h.218-.218z"/>
<path d="m417.375,581.8c-19.137,.152-36.392,4.434-54.27,9.159-17.992,8.391 22.935,14.916 .119,20.251-19.667,.26-3.472,14.97 7.461,8.319 15.489-5.158 29.323-12.05 45.652-12.321 5.996-16.332-36.417,.141-16.769-15.679 2.544-2.906 27.474-2.133 17.807-9.729z"/>
<path d="m355.75,406.93c-10.187,19.07 3.369,38.711 23.329,42.618 14.742,10.094 23.986,39.928-.753,43.382-13.962,7.267-31.619,14.363-45.386,2.568-20.059-8.421-11.65-31.346-15.913-46.596-8.385,9.578-9.172,31.526-12.589,46.271-8.301,18.216-29.364,26.014-39.753,42.901-5.959,14.636-14.761,27.614-19.813,42.618-.981,17.943 4.619,36.391-.62,54.213 26.825,5.774 8.543-25.904 13.966-39.82 5.345-25.363 24.446,2.225 11.7,13.162-17.218,13.636 24.281,35.755 20.51,22.662-16.005-13.414-.679-33.541-9.51-50.135-10.383-19.202 8.175-34.205 25.905-34.964 7.139-5.28 15.978-16.252 9.201-.625-7.419,14.483 7.161,27.942 6.748,5.501 6.191-23.796 16.628,27.895 27.383,13.571-2.073-8.526-18.521-31.426-.242-17.267 9.071,9.45 21.55,2.022 8.36-7.569-8.519-17.42 18.642-26.01 33.024-24.396 13.689-5.912 34.342-12.946 35.803-30.43-5.684-23.092 23.327-27.411 39.418-22.284 24.001,1.622 47.521-5.539 70.62-11.022 14.531-2.357 38.868-32.328 9.546-27.568-19.497-9.299-34.777,18.609-56.789,9.864-30.01-1.122-59.274,22.491-88.808,7.981-18.387-7.084-29.754-23.916-45.337-34.636z"/>
<path d="m-26.717,185.819c22.708,3.889 1.721,24.511-7.851,31.692-4.806,22.225 17.252-8.694 25.773-6.328 16.785,12.26-22.403,22.953-11.929,39.569 10.715,11.311 27.778,27.379 2.729,29.784 3.402,3.288 13.832-.333 16.043,7.813 9.124-4.694 32.878-10.473 15.416,4.397-25.569,4.051 1.711,24.323 7.988,35.192 1.713,15.614-18.508-10.096-25.745-10.501-24.355-6.073-10.299-40.361-37.305-40.252-8.596-9.937-13.449-28.961-16.231-43.092 12.258-12.396-4.158-36.537 18.3-41.868 3.203-4.144 9.038-3.18 12.812-6.406z"/>
<path d="m55.876,52.194c22.545,5.409-23.964,37.369-2.851,27.903 18.37,1.951 11.674,36.731 2.871,47.326-19.631,4.131-19.528,28.049-36.12,35.177-4.641,10.692-28.064,17.541-19.763-.864-6.069-21.471-28.855,7.6-43.112-3.498-11.977-1.938-30.554,16.58-28.812-6.399-3.765-5.762-2.925-29.299 4.464-15.238-3.071,18.115 10.6,6.122 7.437-5.019 9.734-6.592 1.116,27.486 18.689,18.999 12.235,2.195 36.298-2.096 29.641-18.175 24.753-4.811-17.273-29.114 5.208-29.397 5.496,22.037 22.796,3.487 14.95-11.175 3.434-17.172 14.237-6.72 11.268,5.559 2.982-7.406 8.341-30.859 23.169-37.551 3.946-3.063 7.55-7.389 12.961-7.648z"/>
<path d="m312.751,36.819c20.596-5.418 6.769,31.622 27.086,16.747 15.948,9.412-3.368,18.004-5.727,25.669 8.816,3.515 19.251,6.657 10.337,17.836 8.687,2.609 23.355,4.399 34.039,5.405 13.118-2.476 20.969-9.825 27.393-21.04 15.088,6.239-28.204,26.034-4.422,22.65-.344,12.78-24.819,1.957-33.141,7.598-13.62,9.073-29.302,5.029-35.529-11.157-22.657-5.752-31.887-31.685-32.418-51.943 1.744-5.624 5.857-11.618 12.382-11.765z"/>
<path d="m124.563,61.382c17.306,.617-.75,31.899 21.712,21.48 17.984-17.227 32.89,16.087 25.58,30.779-8.538,8.552-12.416,26.284-20.808,31.026 1.106-9.231 1.643-18.078-7.245-19.133 9.907-7.213 31.489-32.722 4.512-31.074-9.615,8.292-15.304,24.442-26.446,29.5-3.926-5.97 1.753-9.014-3.428-12.985 13.627,1.818 24.334-24.523 4.754-15.348-4.814,5.095-19.636,28.742-16.985,8.76 .111-10.142 26.334-18.134 7.479-22.568-17.555,1.852-24.475,29.366-40,27.75 .291-8.505 33.474-26.106 9.942-22.338-6.547,7.566-26.23,6.6-11.273-4.292 18.036-2.821 31.044-17.62 48.676-21.223l3.53-.334z"/>
<path d="m600,65c-21.554,5.035-41.11,15.922-61.695,23.79-23.895,5.384-8.764,27.042 5.484,33.114 13.937,15.116-30.461,10.34-13.503,21.235 8.752-1.354 35.178-1.162 17.239,10.678-8.856,6.387-9.822,21.041-12.115,30.166 25.138,5.786 12.254-36.119 39.278-34.293 11.092-5.772 10.102-24.069 25.312-17.153 1.995-14.617-.223-20.308-15.033-14.764-8.925,3.703-32.856-9.393-11.951-9.543 10.587,3.737 29.138-8.004 8.553-7.78-2.277-5.667 20.12-9.923 3.101-11.416-7.907,2.697-27.127,21.973-28.934,5.647 9.347-16.308 47.77-10.313 44.264-29.681z"/>
<path d="m205.999,403.162c16.111-2.795 28.227-11.423 26.585-29.332 1.877-8.304 9.033-37.78 15.877-16.842 4.484,12.148-14.463,36.468 9.34,28.085 10.887-2.32 32.731-1.687 36.239,7.705-16.836,6.61-37.727,2.011-52.88,8.36-5.598,9.514-30.16,13.78-35.161,2.024z"/>
<path d="m332.845,139.475c20.018-9.097 16.642,18.535 4.987,25.665-6.1,9.744-1.135,35.131 3.659,13.197 5.093-18.284 26.355-14.337 37.886-25.711 11.041-6.416 41.05,14.904 17.652,21.675-10.612,2.185-19.572,26.884-4.532,12.071 4.571-11.959 13.945-3.801 16.461-2.947 5.11-25.348 30.277-9.251 46.717-7.686 27.153,.158 12.61,37.318-4.728,39.811-10.409-1.643-42.578,.949-35.259,13.644 11.468-10.808 45.145-9.944 32.912,11.977-9.768,16.038-32.85,2.757-42.305,20.328-15.208,14.077-22.097,34.285-35.832,49.749-13.028,11.903-22.155,29.408-15.303,47.251 .229-19.178 10.663-46.748 31.81-48.055 3.822,7.656-5.469,41.727 9.438,24.113-.577-11.746-5.408-43.517 14.878-25.68 6.74,9.133 30.71-3.206 10.997-6.18-21.144,.142-17.569-35.244-1.484-42.391 12.442-11.863 24.615,1.378 26.145,10.967 5.146-15.887 13.253-30.907 19.839-46.22 4.548-15.692 23.188-25.228 21.765-42.718-5.841-13.309-18.375-16.576-31.345-21.766-8.542-11.805-29.776,1.375-43.221-4.086-16.534-6.168-24.353-26.536-42.111-29.889-16.841,4.646-31.606,7.584-45.488-5.564-11.795-6.308-34.866-21.468-38.823,.899-8.163,11.761-22.78-14.081-36.51-10.349-18.562-5.577-37.823,11.577-38.22,29.764 9.332-3.956 19.122-9.65 24.551,3.323 8.631-1.997 16.338-22.683 29.644-9.997 3.639,15.012-16.36,23.14-23.5,34.53-4.254,13.693-36.082,14.078-31.481,20.567 9.965-4.868 25.833-3.579 23.508,7.742 7.613-4.264 13.216-34.046 20.476-11.982 3.275,12.142 32.946,18.071 14.92,2.903-12.407-9.605-13.246-31.978 3.061-37.961 19.385-10.159 24.83,16.141 8.446,24.12-13.831,15.931 16.259-6.816 6.33,10.805 8.348,13.852 6.621-14.271 10.12-20.301 8.688-11.03 23.429-15.437 33.94-25.618z"/>
<path d="m560.345,226.194c10.349,13.372-20.346,38.856 7.899,41.426 7.072,5.459 37.653-2.527 21.125,10.017-13.16,2.673-45.43-6.031-36.93,17.684 2.209,14.515-22.195,24.492-1.701,34.539 7.056,11.821 8.794,26.394 26.584,22.161 10.105-2.78 29.736,8.33 11.227,12.566-23.55-10.003-29.534,16.608-27.43,34.283 1.14,11.922-11.001,20.112-8.336,3.415-.581-12.715-11.343-45-26.316-26.575-11.243,6.962-21.259,32.061-35.891,21.724 7.237-17.709 30.652-23.704 38.578-41.854 3.265-14.902 5.074-46.617-19.447-37.296-17.693,10.365-42.862-5.736-25.234-23.897 17.956-6.331 35.723,19.8 53.087,5.752 9.402-15.612-3.175-31.469-11.081-43.8 5.521-7.699 21.175,2.847 20.846-13.749 2.731-6.312 6.191-13.801 13.02-16.396z"/>
<path d="m-55.529-47.117c8.682,10.168-7.72,36.094 15.564,33.176 6.678,17.079 43.065-5.262 46.632,21.69-12.659,5.773-25.867-13.722-41.478-4.586-11.799-3.55-1.358,20.199-16.25,8.594 8.366,15.441 4.174,39.112-16.713,41.178-17.023-4.034-29.591,17.148-42.485,14.774-10.544-15.312-3.639-45.851 19.066-40.028 14.47,1.574 33.046,4.914 25.633-16.061-.92-11.133-33.809-25.734-10.467-29.327 13.033,1.907 5.339-27.463 20.498-29.41z"/>
<path d="m-15.614,356.373c-6.789-7.543-8.233-34.841-18.875-14.425-5.093,8.681-38.453,14.846-22.42-2.177 1.292-18.718-22.451,13.739-29.573,18.923-7.903,4.18-28.635,31.941-7.668,18.096 15.51-7.92 9.067,19.24 18.411,26.025 6.355,21.817 .866-31.124 11.893-7.275 .859,7.73 10.829,25.426 11.315,8.213-8.765-11.286-20.368-31.809 3.842-31.983 13.419-2.548 13.502-18.942 29.583-12.183l1.859-1.097 1.633-2.117z"/>
<path d="m169.313,461.538c14.829,6.272 23.311,24.552 41.012,24.065 15.862,2.385 32.475,1.435 47.84-1.401 4.163,4.151-19.892,15.431-5.198,14.824 13.921-1.895 12.262,24.501 6.074,30.607-4.816-13.82-23.639-13.718-38.121-13.21-12.042-3.191-23.667-2.53-26.434,10.354-14.267,12.985-21.828-1.467-27.006-13.259-9.421-2.412-32.326,.201-33.513-10.155 11.568-10.768 45.942,7.766 43.469-15.922 .122-6.292-18.511-24.498-8.123-25.903z"/>
<path d="m-40.686,443.038c19.166,2.685 38.589,22.106 30.246,42.402-9.13,11.001-18.933,24.507-21.826,36.63-14.763-12.115 9.371-29.306 10.507-39.137-12.49,7.935-21.261-10.715-4.605-9.373 6.401-6.657-20.086-3.062-17.378,8.507-15.342,9.694-11.406-19.938 3.616-18.172 24.875-2.598-12.492-12.699-.56-20.857z"/>
<path d="m78.813,492.819c9.379,17.711 33.149-4.926 41.863,10.93-4.763,9.791-21.482,16.86-5.564,27.347 5.716,17.484-11.695,1.249-13.483,2.092-5.351,12.022 24.258,14.345 7.027,21.45-19.299-3.734-10.658-46.567-32.644-24.068-5.787-9.35-17.989,6.828-23.084-8.902-2.64-18.368 19.378-15.766 25.885-28.849z"/>
<path d="m478.446-72.782c-.263-10.9 13.288-33.471-8.174-22.358-9.916,2.434-37.439-11.165-14.883-15.635 10.924-12.965-20.316-3.477-27.249-3.02-9.569,3.123-33.529,.498-34.159,10.451 11.856-1.427 22.847,5.499 11.288,16.256 .986,8.449-10.811,32.875 3.307,16.204 15.016-19.428 2.372,14.048 5.395,19.435 13.93-4.867 2.038-46.359 28.93-28.19 11.824,6.591 22.199-8.637 30.602,7.308l1.805,.333 3.138-.784z"/>
<path d="m54.288,1.417c-7.185-17.835-.297-44.125 21.231-47.348 14.223,3.335 32.191,2.392 43.423,1.443-5.4,17.96-30.513,5.388-39.406,9.659 15.753,16.005-4.52,14.98-9.084,8.49-1.079,18.313 35.754,4.457 20.195,22.567-13.452,8.464-31.406-28.16-29.111,1.339 .877,3.6-4.965,7.533-7.248,3.85z"/>
<path d="m333.562,16.595c11.22,1.98 27.581,8.251 32.388-6.843 8.767-6.512 17.385-24.525 28.192-20.95 1.431,12.674-8.933,21.951-17.786,29.225-.555,8.143 14.331,7.081 19.94,11.775 6.364,1.378 31.897,25.084 13.282,19.247-13.467-5.028-27.416-9.011-39.006-18.002-12.478,6.062-35.901,1.807-37.01-14.452z"/>
<path d="m233.928-120.424c11.606,12.916-20.565,38.989 7.794,41.692 8.836,4.015 40.985-.884 18.858,11.678-13.713-1.152-45.886-6.595-34.721,18.123-1.226,11.968-22.043,22.775-3.076,32.645 9.582,8.112 7.539,26.542 25.082,21.201 9.815-1.786 34.212,7.095 14.268,13.052-23.641-10.05-30.295,17.104-27.174,34.966 2.282,11.029-10.856,20.908-8.75,3.839-1.02-12.267-10.446-45.838-25.665-27.13-11.28,6.777-21.9,30.608-36.048,21.379 6.966-17.723 30.529-23.781 38.505-41.904 2.886-14.605 4.925-46.551-19.278-37.452-17.638,10.259-43.154-5.69-25.671-24.016 18.093-6.166 35.764,19.793 53.362,5.793 9.856-15.806-4.364-31.486-11.333-44.352 5.047-7.216 21.216,2.557 20.18-13.294 2.571-6.062 7.402-14.17 13.667-16.22z"/>
<path d="m558.906,509.906c-19.314,7.276-39.802,10.764-60.392,10.994-14.405-4.544-37.521-6.288-37.622,13.53-8.645,8.676 7.425,22.059-2.507,31.304 7.541,14.278 23.972,27.137 20.075,45.069-8.733,10.364-13.974,29.912 5.796,24.102 11.106,2.335-6.04-10.998 2.771-18.34-3.413-15.785 8.774-18.246 19.149-8.774 9.166,7.879 27.486-.221 8.631-4.051-12.289,1.006-10.843-6.225-8.26-13.709-19.978,11.234-23.848-12.459-28.957-26.172-6.152-15.904-7.262-35.559 15.386-31.971 20.409-6.204 21.24,18.547 33.624,27.938 4.656,9.4 24.893,8.879 8.749-.116-13.314-8.04-21.557-34.335 2.874-30.932 17.417,2.349 16.651,27.846 37.315,26.279 16.59,6.46 29.729,4.931 24.462-15.481-6.153,2.244-25.888,15.414-36.63,1.376-16.926-6.266-9.416-22.672-1.814-30.088l-2.65-.958z"/>
<path d="m470-165.094c-6.641,20.936 24.001,26.801 21.066,45.15-.559,16.171-5.238,40.466 12.239,47.202 3.863,2.268 18.687-11.208 13.232,3.966-3.015,18.864 .172,43.045 18.862,52.651 15.604,6.333 39.977-.917 15.12-11.606 6.131-11.992 3.693-18.124-10.495-17.359-22.917-11.614 2.029-28.769 16.943-16.216 16.073,3.064 32.235,6.326 43.033,19.913-1.167-8.997-10.088-16.423 0-22.296-3.797-5.976-35.655,4.902-18.833-12.552 8.369-8.776-.236-38.489-4.837-15.443-.838,19.064-29.002,29.951-39.299,91.684-10.993-95.605 13.999-102.009 24-92.81 15.384,.508-15.504-11.553 4.239-12.381 7.702-15.784-21.534,6.877-29.237,.953-10.351-12.287-41.049-10.512-38.147-30.762 13.835-9.197 36.41,4.283 47.114-14.218-20.984,7.008-41.978-3.941-57.432-15.876-5.856,0-11.712,0-17.568,0z"/>
<path d="m-150-65.906c-2.53,8.143 6.367,2.974 0,0zm0,19.75c-2.421,11.259 17.196,11.589 2.125,46.156l-2.125-46.156z"/>
<path d="m-147.406,510.781c-4.434,9.473 9.526,21.548-2.594,29.329-4.884,17.816 5.326,22.565 21.522,20.356 20.662,3.087 44.741,12.242 61.239-6.134-10.205,3.31-33.937,11.678-49.464,1.568-27.084-11.102 33.052-17.194 14.16-27.591-11.503-.712-37.957,29.58-34.589,2.298 4.955-6.728-5.08-16.788-10.274-19.826z"/>
<path d="m244.156-165c-4.764,8.26-13.473,40.559 5.201,28.49 13.403-4.448-.663-20.313 8.486-28.49-4.562,0-9.125,0-13.687,0zm38.094,0c3.516,7.52 20.66,13.07 11.093,0-3.698,0-7.396,0-11.093,0z"/>
<path d="m-148.343,65c-5.601,6.344 .394,14.819 6.067,3.433 3.069-4.906-3.724-3.076-6.067-3.433zm27.218,41.218c-12.561,7.812-35.942,2.164-28.875,24.114 3.718,5.027 9.359-17.849 20.211-7.681 14.087,14.144 20.607-12.948 8.664-16.433z"/>
</g>
</g>
</pattern>
<pattern width="256" height="256" patternTransform="translate(-61.963624,-87.23481)" patternUnits="userSpaceOnUse" id="oldpaint_bitmap"/>
<radialGradient cx="261.63" cy="530.113" gradientTransform="matrix(1 0 0 .60727 -68.69037 275.6875)" id="radialGradient5500" r="171.559" gradientUnits="userSpaceOnUse">
<stop offset="0" stop-color="#badb7c" stop-opacity="0"/>
<stop offset="1" stop-color="#bee86d"/>
</radialGradient>
<radialGradient cx="334.196" cy="589.038" gradientTransform="matrix(1 0 0 .55064 0 263.0116)" id="radialGradient5504" r="48.482" gradientUnits="userSpaceOnUse">
<stop offset="0" stop-color="#fff" stop-opacity="0"/>
<stop offset="1" stop-color="#583939"/>
</radialGradient>
<radialGradient cx="579.323" cy="437.179" gradientTransform="matrix(1 0 0 .73962 531.35034 74.94204)" id="radialGradient5506" r="77.204" gradientUnits="userSpaceOnUse">
<stop offset="0" stop-color="#ba7226"/>
<stop offset="1" stop-color="#a53f19" stop-opacity="0"/>
</radialGradient>
<radialGradient cx="196.98" cy="541.857" gradientTransform="matrix(1 0 0 .63536 -2.02031 74.6335)" id="radialGradient5502" r="145.42" gradientUnits="userSpaceOnUse">
<stop offset="0" stop-color="#c0a037"/>
<stop offset="1" stop-color="#f7e094" stop-opacity="0"/>
</radialGradient>
</defs>
<g fill-rule="evenodd" transform="translate(-201.09962 -441.42857)">
<path fill="#5c8f7e" d="m210.8929,577.1836l.1786,8.75 1.9643,8.5714 2.8572,9.4643 5.3571,10.3571 8.2143,11.6071 8.75,6.9643 9.6428,4.6428 12.5,6.4286 19.4643,7.5 25.3571,4.6429 19.4643,1.6071 17.8571-.1786 23.75-1.7857 25.1786-3.0357 18.3929-3.9286 22.6786-6.25 25-10.8928 23.0357-12.6786 23.75-17.6786 13.5714-14.4643 11.25-16.0714 11.6072-23.75 8.3928-21.6071 3.2143-11.9643 1.6071-14.1071 1.25,3.5714 .3571,8.0357-2.3214,7.3214-2.1429,11.4286-3.0357,11.25-3.3929,9.8214-1.4286,7.5 .1786,3.9286-3.5714,10.1786-4.1071,15-4.2857,11.7857-10.3571,16.6071-8.2143,17.1429-6.4286,10.5357-6.6071,6.0714-18.0357,17.5-11.9643,11.0714-5.5357,6.25-7.3214,5.8929-15.3571,5.8929-10,2.8571-23.5714,10.3571-27.3214,9.2857-10.7143,.8929-25.1786,3.2143-12.1429-1.25-7.8571-1.7857-15.3571-3.75-14.2857-5-4.4643-.8929-15.1786-8.3928-15.5357-9.8214-10.8929-10.1786-4.4643-4.2857-7.3214-15-3.0357-4.2857-6.6071-8.9286-7.5-16.6072-6.4286-12.8571-2.3214-12.8571-3.2143-13.3929 .7143-11.25 1.9643-5z"/>
<path opacity=".1" fill="url(#Camouflage)" d="m210.8929,577.1836l.1786,8.75 1.9643,8.5714 2.8572,9.4643 5.3571,10.3571 8.2143,11.6071 8.75,6.9643 9.6428,4.6428 12.5,6.4286 19.4643,7.5 25.3571,4.6429 19.4643,1.6071 17.8571-.1786 23.75-1.7857 25.1786-3.0357 18.3929-3.9286 22.6786-6.25 25-10.8928 23.0357-12.6786 23.75-17.6786 13.5714-14.4643 11.25-16.0714 11.6072-23.75 8.3928-21.6071 3.2143-11.9643 1.6071-14.1071 1.25,3.5714 .3571,8.0357-2.3214,7.3214-2.1429,11.4286-3.0357,11.25-3.3929,9.8214-1.4286,7.5 .1786,3.9286-3.5714,10.1786-4.1071,15-4.2857,11.7857-10.3571,16.6071-8.2143,17.1429-6.4286,10.5357-6.6071,6.0714-18.0357,17.5-11.9643,11.0714-5.5357,6.25-7.3214,5.8929-15.3571,5.8929-10,2.8571-23.5714,10.3571-27.3214,9.2857-10.7143,.8929-25.1786,3.2143-12.1429-1.25-7.8571-1.7857-15.3571-3.75-14.2857-5-4.4643-.8929-15.1786-8.3928-15.5357-9.8214-10.8929-10.1786-4.4643-4.2857-7.3214-15-3.0357-4.2857-6.6071-8.9286-7.5-16.6072-6.4286-12.8571-2.3214-12.8571-3.2143-13.3929 .7143-11.25 1.9643-5z"/>
</g>
<g transform="translate(-201.09962 -441.42857)">
<path fill="none" stroke="#000" fill-rule="evenodd" stroke-width="2" d="m389.2857,480.9336c36.8585-1.7084 66.5803,18.4853 71.6299,49.9321 5.5453,40.0652-29.3257,59.1894-64.6656,63.4607-14.47-.212-47.8245,3.7388-62.3214-5-14.3662-8.6601-23.4376-10.5715-26.6104-27.7491-1.5035-13.3316 4.6502-26.099 12.9346-36.1441 15.842-22.5332 40.2222-39.6749 67.5944-44.3332l1.4386-.1664z"/>
</g>
<g fill-rule="evenodd">
<g transform="translate(-11.19094 -485.87528)">
<path fill="#fff" d="m151.8699,701.2385c55.7912-.9292 113.3961-16.259 157.3078-51.8463 26.8089-21.4562 42.1777-53.5806 52.0503-85.7356 4.2085-16.6164 5.3874-35.6935-2.7793-51.2487-13.0825-17.0143-37.1582-20.3379-57.2321-18.5524-25.6647,2.1205-51.0919,6.8347-76.744,8.7778-43.4327,8.5917-87.8237,17.6679-127.1468,38.7864-26.4623,15.2151-58.593,28.5294-70.5308,59.0113-14.8176,30.1533 2.3328,68.8304 32.5029,81.68 27.9091,15.6973 60.8136,21.6274 92.572,19.1276z"/>
<path fill="url(#radialGradient5500)" d="m151.8699,701.2385c55.7912-.9291 113.3961-16.259 157.3078-51.8463 26.8089-21.4562 42.1777-53.5806 52.0503-85.7356 4.2085-16.6164 5.3874-35.6935-2.7793-51.2487-13.0825-17.0143-37.1582-20.3379-57.2321-18.5524-25.6647,2.1205-51.0919,6.8347-76.744,8.7778-43.4327,8.5917-87.8237,17.6679-127.1468,38.7864-26.4623,15.2151-58.593,28.5294-70.5308,59.0113-14.8176,30.1533 2.3328,68.8304 32.5029,81.68 27.9091,15.6973 60.8136,21.6274 92.572,19.1275z"/>
</g>
<g transform="translate(-201.09962 -441.42857)">
<path filter="url(#filter4922)" stroke="#234a36" fill-opacity="0" stroke-width="3" d="m211.0714,574.8622c-6.2007,14.6378 .1458,30.6843 3.2987,45.347 5.3853,11.7895 9.9112,25.1068 17.8214,34.9574 8.1925,8.8752 10.2063,22.3805 20.5816,29.7084 10.6357,10.9002 24.2368,17.2686 37.3097,24.96 13.0095,2.4183 24.08,9.4648 37.5431,10.5598 17.2723,5.4272 33.9623-.6271 51.3862-1.2165 17.4082-6.1007 36.0339-11.5701 52.3955-20.0356 13.7972-3.1735 28.2907-7.0013 36.5111-19.6565 10.6702-9.9417 22.5047-18.7044 31.6308-30.1829 14.9602-9.7009 16.2352-28.8184 27.0643-42.1243 10.1466-13.2333 9.8595-30.8972 16.7523-45.5664 .9728-14.4942 8.4042-27.3976 9.2334-41.6391 2.6217-7.547 3.4924-15.1514 1.5074-23.1469"/>
</g>
<g fill="none" stroke-width="4" transform="translate(-201.09962 -441.42857)">
<path filter="url(#filter4898)" stroke="#95bb36" d="m245,599.1479c-15.808-16.942-10.8136-46.0156 6.7329-59.8132 21.5512-22.6781 51.3214-34.6287 79.6551-46.3395 36.1077-11.8625 71.3872-28.2485 109.4973-32.4122 23.7435-.0907 48.8664-8.7929 71.6212,1.3774 13.9112,8.1526 16.2007,26.7397 11.7727,40.9313-3.8292,40.93-24.8993,80.4548-58.918,104.1067-36.2305,27.0866-83.1443,37.7964-127.8406,34.1197-20.5392-1.8262-40.8659-6.6168-59.4662-15.6213-13.1622-5.3259-27.493-12.2746-33.0545-26.3488z"/>
<path filter="url(#filter4918)" stroke="#603333" d="m341.4286,657.3622c55.7912-.9291 113.3961-16.259 157.3078-51.8463 26.8089-21.4562 42.1777-53.5806 52.0503-85.7356 4.2085-16.6164 5.3874-35.6935-2.7793-51.2487-13.0825-17.0143-37.1582-20.3379-57.2321-18.5524-25.6647,2.1205-51.0919,6.8347-76.744,8.7778-43.4327,8.5917-87.8237,17.6679-127.1468,38.7864-26.4623,15.2151-58.593,28.5294-70.5308,59.0113-14.8176,30.1533 2.3328,68.8304 32.5029,81.68 27.9091,15.6973 60.8136,21.6274 92.5721,19.1275z"/>
</g>
<g transform="translate(-201.09962 -441.42857)">
<g filter="url(#filter4910)" transform="matrix(.98437 0 0 .959 151.40555 172.07969)">
<path fill="#f7e094" d="m98.9626,446.4081c-15.8079-16.942-10.8136-46.0156 6.7329-59.8132 21.5512-22.6781 51.3214-34.6287 79.6551-46.3395 36.1077-11.8625 71.3872-28.2485 109.4973-32.4122 23.7435-.0907 48.8664-8.7929 71.6212,1.3774 13.9112,8.1526 16.2007,26.7397 11.7727,40.9313-3.8292,40.93-24.8993,80.4547-58.918,104.1067-36.2305,27.0866-83.1443,37.7964-127.8406,34.1197-20.5392-1.8262-40.8659-6.6168-59.4661-15.6213-13.1622-5.3259-27.493-12.2746-33.0545-26.3488z"/>
<path fill="url(#radialGradient5502)" d="m98.9626,446.4081c-15.8079-16.942-10.8136-46.0156 6.7329-59.8132 21.5512-22.6781 51.3214-34.6287 79.6551-46.3395 36.1077-11.8625 71.3872-28.2485 109.4973-32.4122 23.7435-.0907 48.8664-8.7929 71.6212,1.3774 13.9112,8.1526 16.2007,26.7397 11.7727,40.9313-3.8292,40.93-24.8993,80.4547-58.918,104.1067-36.2305,27.0866-83.1443,37.7964-127.8406,34.1197-20.5392-1.8262-40.8659-6.6168-59.4661-15.6213-13.1622-5.3259-27.493-12.2746-33.0545-26.3488z"/>
</g>
</g>
</g>
<g stroke="#ac8043" transform="translate(-201.09962 -441.42857)">
<path fill="none" filter="url(#filter5450)" fill-rule="evenodd" d="m293.8393,559.2372c-1.9396,2.9312-4.5747,6.9159-5.0702,10.4216-.7996,5.1292 .4497,11.0543 2.2411,15.2123 1.7913,4.1581 3.9782,6.7339 7.4154,9.629 3.4372,2.8951 7.471,5.9255 11.7295,8.1726 .1124,.0593 .224,.1183 .3349,.1769 5.3064,2.8065 8.8749,4.842 16.9527,6.5719 19.877,4.1361 37.786,3.0927 57.4682-2.5058"/>
</g>
<g transform="translate(-201.09962 -441.42857)">
<path fill="url(#radialGradient5504)" fill-rule="evenodd" d="m294.6429,558.6122l-.8929,.1786c0,0-2.2855,2.5696-3.125,4.2857-.8396,1.7161-2.0536,7.1429-2.0536,7.1429l.1786,5.8929 1.25,5.9821 2.5893,6.25 3.4821,3.9286 7.0536,5.5357 7.2321,4.9107 8.3036,3.9286 9.7321,2.9464 10,1.6071 10.625,.8036h6.6071c0,0 9.445-.5764 13.3036-.9821 3.8586-.4058 8.3186-.9499 12.4107-1.6964 4.0921-.7465 10.7461-2.2132 14.8214-3.3929 4.0753-1.1797 8.6607-4.5536 8.6607-4.5536l-110.1786-42.7679z"/>
</g>
<g fill-rule="evenodd">
<g transform="translate(-391.51337 -286.37016)">
<path fill="#a53f19" d="m563.7653,339.4103c36.8586-1.7084 66.5803,18.4853 71.6299,49.9321 5.5453,40.0652-29.3257,59.1894-64.6656,63.4607-14.47-.212-47.8245,3.7389-62.3214-5-14.3662-8.66-23.4376-10.5715-26.6104-27.7491-1.5034-13.3316 4.6503-26.099 12.9346-36.1441 15.842-22.5332 40.2222-39.6749 67.5944-44.3332l1.4386-.1664z"/>
<path opacity=".211" fill="url(#oldpaint_bitmap)" d="m563.7653,339.4103c36.8586-1.7084 66.5803,18.4853 71.6299,49.9321 5.5453,40.0652-29.3257,59.1894-64.6656,63.4607-14.47-.212-47.8245,3.7389-62.3214-5-14.3662-8.66-23.4376-10.5715-26.6104-27.7491-1.5034-13.3316 4.6503-26.099 12.9346-36.1441 15.842-22.5332 40.2222-39.6749 67.5944-44.3332l1.4386-.1664z"/>
</g>
<g transform="translate(-943.4111 -288.87559)">
<path fill="url(#radialGradient5506)" d="m1115.663,341.2872c36.8586-1.7084 66.5804,18.4854 71.6299,49.9321 5.5453,40.0652-29.3258,59.1894-64.6656,63.4607-14.47-.2121-47.8245,3.7389-62.3214-5-14.3662-8.66-23.4376-10.5715-26.6104-27.7491-1.5035-13.3316 4.6502-26.099 12.9345-36.1441 15.842-22.5332 40.2222-39.6749 67.5944-44.3332l1.4386-.1664z"/>
</g>
<g fill="none" stroke="#f9970f" transform="translate(-943.4111 -288.87559)">
<path filter="url(#filter5306)" d="m1069.4991,448.5435c-7.8815-3.854 .7157-9.7557 4.3757-13.1317 3.2715-5.5694 11.6527-6.9589 13.6967-14.3513 2.7195-5.7197 5.7198-11.6231 11.2059-15.1741 7.0062-6.6481 10.4535-16.3517 18.4984-22.0475 7.2918-6.1096 15.6921-11.1587 24.7875-13.9276 6.9104-3.5765 7.9517-14.5773 16.7858-15.0909 2.0502,.2872 4.1156-.5838 6.1093,.0314"/>
<path filter="url(#filter5302)" d="m1052.3264,441.9775c3.1068-8.9179 .0491-20.1548 7.49-27.3343 7.0875-7.2339 15.1752-13.3947 23.3648-19.3468 8.659-6.3355 16.6025-14.0719 21.0819-23.9774 6.4141-9.3514 19.4394-7.9834 27.833-14.4941 6.3009-2.1926 9.987-8.6834 16.4474-10.5594"/>
<path filter="url(#filter5298)" d="m1174.0498,365.2059c-9.3184,4.9148-20.6714,10.4706-23.0499,21.8063-3.8898,13.645-15.2603,23.7144-26.9887,30.8988-9.3884,5.1311-21.9618,5.8354-28.4876,15.2236-3.4849,6.1311-5.8387,13.0626-10.8723,18.1868"/>
<path filter="url(#filter5294)" d="m1059.3975,395.763c3.7708-6.619 11.762-12.8798 19.7306-10.3598 7.2387,4.1637 11.9521,12.7662 20.7204,14.3386 5.8947,1.3998 10.6505-4.8935 16.5583-2.6455 8.2045,2.8187 10.4146,12.0917 15.2818,18.2997 3.762,5.8775 9.4125,13.0189 17.3599,11.1766"/>
<path filter="url(#filter5290)" d="m1165.9685,405.612c-1.9625-8.9834-7.0292-18.1658-15.4098-22.539-10.1686-3.1296-21.5733-2.2043-30.7737,3.2874-7.4035,3.308-16.9784,7.0614-24.3167,1.6157-4.1529-4.0645-2.8281-10.9441-5.4561-15.9638-4.4116-7.4969-9.3714,2.6809-9.751,7.418-1.7446,5.2652-4.0081,10.3743-6.9741,15.0701"/>
<path filter="url(#filter5286)" d="m1047.0231,417.7339c4.5582-4.8085 10.8754-10.587 18.0513-8.6842 6.6667,3.4396 10.2978,10.7832 13.4015,17.3077 3.9961,9.322 7.7335,19.2995 15.2082,26.4237 6.8687,5.3929 17.8835,2.3954 21.6774-5.2961 4.4336-5.5456 12.5922-6.2631 16.767-12.0735"/>
<path filter="url(#filter5282)" d="m1166.4737,404.6019c6.7678-8.4978 1.3881-24.1542-9.849-25.2538-5.8082,4.2131-15.6181,2.1824-14.1708-6.3718-1.409-7.6045-6.0588-17.0824-14.93-17.1981-12.9769,1.5486-24.863,7.8118-37.7429,9.7529-8.7577,2.3702-15.4692,9.3639-20.1201,16.8408-.794,2.0794-.5428,4.611-2.1822,6.3201"/>
<path filter="url(#filter5278)" d="m1052.0739,403.5917c-2.7259,3.5073-10.6964,11.2876-6.6899,14.3936 9.7038-2.0546 11.4268-14.6781 20.5204-17.5902 6.3493-.3562 12.4078,2.6232 18.2381,4.8533 11.2788,4.9232 21.3019,12.2647 30.6363,20.1787 8.3688,5.4015 18.1121-.0346 26.0836-3.4854 5.603-5.1976 12.7985,6.4946 16.9232-1.1608 5.1369-8.5313 14.0108-13.7225 20.4489-21.1234-1.5783-7.417 3.3135-15.2313 .0455-22.3901-.8028-1.2902-2.2635-2.0081-3.7251-2.2126"/>
<path filter="url(#filter5274)" d="m1128.3404,353.8417c-7.9404,2.4256-15.0005-4.5657-22.9126-3.277-10.3729,6.2748-17.7486,18.7227-30.8712,19.5059-10.0241-1.0874-19.8914,5.9144-22.638,15.5052-3.1152,6.9282-6.9162,13.7268-8.0906,21.3326-4.8427,5.6687-2.6321,14.4075 3.1953,18.4426 2.9224,2.4074 6.4613,3.8422 10.1014,4.7573"/>
<path filter="url(#filter5270)" d="m1080.8632,435.4115c11.0841-3.4885 21.5672-8.6039 31.7984-14.0576 8.2029-8.0668 16.0727-17.5998 18.628-29.0332 .3392-10.5274 9.5528-17.7695 19.0216-20.2963"/>
<path filter="url(#filter5266)" d="m1156.3722,356.3671c-11.766,1.5235-25.2315-2.083-35.3569,5.8308-14.2478,11.5208-21.4004,29.2918-25.5765,46.6452 .0719,6.6612 7.8032,7.8796 12.391,10.6013 5.3056,3.0789 7.8374,9.4674 13.9472,11.5985 9.7762,4.8412 21.1057,4.1723 31.5826,2.6706 1.5066-.2897 3.0095-.6032 4.5278-.8274"/>
<path filter="url(#filter5262)" d="m1167.2314,421.5219c7.9195-5.9621 6.8099-16.9248 6.9425-25.708 .2248-9.8829 2.3879-21.6347-5.1254-29.5362-8.7752-6.1244-15.1556-16.8058-26.5641-18.3407-13.5396-.5344-28.3208-2.8032-40.5237,4.6498-6.8531,3.9828-13.4145,8.4659-20.3124,12.3388-8.5753,6.4793-12.7069,17.0504-21.0054,23.8099-4.7812,8.7266-5.4718,19.8312-1.7699,29.0421 3.23,6.8476 7.4679,13.1543 10.8786,19.9067"/>
<path filter="url(#filter5258)" d="m1078.0854,436.1691c8.8085-3.5973 14.5972-11.6417 22.2591-16.9458 6.2451-6.0771 8.2937-16.5077 17.2778-19.5689 8.8661-6.3415 20.0514-7.6986 29.859-11.9708 5.5376-1.3402 10.7892-3.7811 16.467-4.5475"/>
<path filter="url(#filter5254)" d="m1163.1907,396.7732c-9.7387,2.0013-13.8902,11.9301-17.4556,20.0686-1.9333,5.8656-6.8046,9.5958-11.7713,12.824-4.6674,3.1508-9.6657,5.846-14.9673,7.766"/>
<path filter="url(#filter5250)" d="m1097.5308,443.7453c2.8016-9.4061-4.5511-17.9823-11.1758-23.7159-5.301-3.4501-10.0933-7.4936-14.5394-12.0239l-.8013-.6257"/>
<path filter="url(#filter5246)" d="m1109.9051,439.4521c12.2766,.6422 23.5973-5.974 35.8722-5.54 5.5029-.5382 10.8712-1.9608 16.1507-3.5513"/>
<path filter="url(#filter5242)" d="m1161.928,429.3506c-9.9929,.6435-18.6026-5.7204-28.3336-6.8795-12.6237-2.7878-25.0003-7.0592-37.8334-8.6859-8.3964,.5249-13.1689,8.7604-16.3498,15.5824-4.2616,4.6593-1.7858,13.9749-7.8882,16.7778-1.8298-5.9623-1.4262-12.3552-3.2867-18.31"/>
<path filter="url(#filter5238)" d="m1051.8214,411.9255c5.3523-6.9226 9.8893-15.7539 18.8758-18.4551 12.2657-5.2627 25.45-7.849 38.3061-11.1788 10.0073-.9395 16.3279,8.3456 22.1686,14.9477 5.8739,5.4563 9.1281,13.8101 16.6157,17.3847 7.3486,1.9749 10.0986-7.3998 13.3973-12.0752 1.3433-2.3847 2.6067-4.8148 3.7735-7.2908"/>
<path filter="url(#filter5234)" d="m1098.7935,364.4483c-7.9075,3.7421-12.9202,11.312-19.1061,17.2006-6.2547,7.5557-8.3853,18.3127-17.0246,23.8845-6.5289,5.586-14.1318,9.705-20.9074,14.9621-5.2602,1.1931-9.1486,7.9674-5.1443,12.4508 5.5615,6.443 14.1451,.2729 21.0186,1.7077"/>
<path filter="url(#filter5230)" d="m1175.3125,376.065c-.5342-6.1922-8.0981-8.6628-13.4584-8.3257-6.5099,.1714-8.5701,7.2663-9.9659,12.4317-1.9521,7.6695-.8368,15.6557-1.4118,23.4218-2.5317,10.5737-15.399,10.3349-23.9037,11.6156"/>
</g>
</g>
</svg>
