<svg xmlns="http://www.w3.org/2000/svg" viewBox="0 0 599.92 399.08" xmlns:xlink="http://www.w3.org/1999/xlink">
<defs>
<linearGradient gradientTransform="matrix(.36707 0 0 .4085 -4676 1284.7)" id="linearGradient4873" y1="-2814.2" y2="-2204" gradientUnits="userSpaceOnUse" x2="0">
<stop offset="0" stop-color="#53ddff"/>
<stop offset="1" stop-color="#fff"/>
</linearGradient>
<linearGradient id="linearGradient4519-1">
<stop offset="0" stop-color="#93a7ac"/>
<stop offset="1" stop-color="#a7b8bc" stop-opacity=".082"/>
</linearGradient>
<linearGradient gradientTransform="matrix(-1 0 0 1 785.46 0)" id="linearGradient4877" xlink:href="#linearGradient4519-1" y1="354.6" x1="348.13" y2="349.75" gradientUnits="userSpaceOnUse" x2="353.77"/>
<linearGradient id="linearGradient4875" xlink:href="#linearGradient4519-1" y1="354.6" x1="348.13" y2="349.75" gradientUnits="userSpaceOnUse" x2="353.77"/>
</defs>
<g transform="translate(-91.541 -134.821)">
<path fill="url(#linearGradient4873)" d="m91.961,134.85v225.04h599.5v-225.04z"/>
</g>
<g transform="translate(-91.541 -134.821)">
<path opacity=".3" fill="#93a7ac" d="m691.47,378.07h-504.81v-83.766l56.451-23.673 21.852,10.016 36.42-12.747 18.21,7.284 47.346-13.658 27.315,10.016 29.136-19.121 50.078,17.3 26.405-14.568 21.852-.9105 24.584-19.121 8.1945,5.463 7.284-9.105 21.852,12.747 30.047,6.3735 10.926,10.016 8.1945-.9105 27.315,14.568 31.351-10.016z"/>
<path fill="#a2c4cd" d="m187.56,397.19h503.9v-95.603l-58.666-11.837-21.852,10.016-36.42-12.747-18.21,7.284-47.346-13.658-27.315,10.016-29.136-19.121-50.078,17.3-26.405-14.568-22.763,10.926-18.21-31.868-20.031,5.463-22.763-9.105-13.658,18.21-16.389,1.821-10.926,10.016-8.1945-.9105-27.315,14.568-29.136-10.016z"/>
</g>
<g transform="translate(-91.541 -134.821)">
<path fill="#8dd35f" d="m91.961,336.84v196.41h599.5v-196.41z"/>
<path fill="#aade87" d="m91.961,315.19v58.318c198.41,23.105 387.71-.0854 599.5,15.627v-70.303l-299.93-3.642z"/>
<path fill="#78898d" d="m163.33,533.2 456.7-.41-186.66-178.24-40.96-39.45z"/>
<path fill="#8b999d" d="m392.41,315.12-72.379,69.346c31.115,10.268 106.55,17.158 144.29,0z"/>
</g>
<g transform="matrix(.73053 0 0 1 23.949 -134.821)">
<path fill="#fff" d="m376.43,334.57-.984,9.1928h5.595l-.9676-9.1928z"/>
<path fill="#f2f2f2" d="m373.48,362.16-1.8797,17.637h13.214l-1.851-17.637z"/>
<path fill="#ececec" d="m368.25,411.22-4.0068,37.562h27.805l-3.9349-37.562z"/>
<path fill="#f2f2f2" d="m359.66,491.71-4.5615,41.489h45.934l-4.4807-41.489z"/>
</g>
<g transform="translate(-91.541 -134.821)">
<path fill="#546164" d="m392.4,315.11-268.87,218.09h41.357z"/>
<path fill="#e6e6e6" d="m392.4,315.15-212.26,218.05h11.844z"/>
<path fill="#93a7ac" d="m392.42,315.1-300.53,147.76v70.238l32.067,.102z"/>
<path fill="#a7b8bc" d="m392.4,315.1-139.67,68.742c22.092-5.2198 43.154-5.0087 55.071,0z"/>
<path fill="#d5f6ff" fill-rule="evenodd" d="m466.45,173.63c7.1851,.1243 9.4482-6.0219 13.781-7.9218 5.4266-2.3796 12.862-.2062 23.571-1.6011 5.8612-.7635 14.794-3.1034 20.686-1.8685 7.2243,1.5147 9.3712,4.7845 16.896,5.836 4.5385,.6342 9.7644-1.5917 13.839-3.7698 4.0553-2.1679 9.2634-.0318 14.253-3.8426 6.7705-5.1712 20.054-1.0094 28.737,.706 6.5535,1.2948 16.008,1.3 21.695,4.5053 5.057,2.8502 6.3439,8.8783 12.055,10.701 8.97,2.8628 3.6545,11.657-4.7382,9.5961-4.336-1.0648-10.136,4.4208-15.343,5.0107-7.5748,.8582-14.709-2.9449-21.018-5.0007-8.1398-2.6523-15.838,1.888-23.404,1.7567-7.4093-.1286-12.622-3.2548-20.606-1.5865-6.0577,1.2658-12.544,4.8022-19.428,4.1521-7.0106-.662-12.422-6.863-16.762-4.2068-4.955,3.0329-9.3587,1.0078-13.234,5.04-4.5929,4.7788-14.296,4.1855-19.073,3.1373-7.0654-1.5501-10.193-7.5846-15.028-9.1162-11.296-3.5782-14.742-11.836 3.1224-11.527z"/>
<path fill="#d5f6ff" fill-rule="evenodd" d="m269.58,218.81c3.1327,3.3106 6.5761-.4725 12.833,3.9969 4.4823,3.2018 9.9836-4.8984 14.76-6.6178 4.7767-1.7194 12.232-.9478 16.248-1.3967 6.6827-.7471 14.909-5.2131 21.756-3.2758 6.8468,1.9372 10.358,11.079 16.881,11.074 4.6265-.003 8.326,3.6736 8.2108,6.6415-.0802,2.0676-3.4353,3.5317-6.4114,5.551-6.6512,4.5128-13.512,.1045-17.856-.2253-4.3434-.3298-4.7104,1.9602-12.231,4.3101-4.4062,1.3767-8.5837-3.2695-14.591-3.7268-6.0068-.4573-13.6,2.7881-18.517,3.4159-8.0089,1.0227-13.613-1.7157-20.598-1.4285-6.9848,.2872-14.864,2.3845-22.562-.0497-5.1295-2.358-7.5081-3.9076-10.683-5.5638-4.2646-2.2248-6.8504-1.1215-7.8726-6.7046-.5765-3.1489 6.6922-3.0627 8.3978-5.5843 2.6898-3.9765 7.6475-7.2385 12.898-4.8609 6.1125,2.768 15.699,.6015 19.336,4.4444z"/>
<path fill="#546164" d="m392.42,315.11 268.2,218.09h-41.357z"/>
<path fill="#e6e6e6" d="m392.43,315.12 211.58,218.79h-11.844z"/>
<path fill="#b7d5da" fill-rule="evenodd" d="m267.03,233.84c3.2476,1.5034 7.9133-2.7997 14.413,1.481 3.9958,2.6316 11.194-2.8684 15.976-1.9999 5.4643,.9924 12.061,.2635 16.248-1.3464 6.2482-2.4023 9.2916,5.0777 18.083-.4792 5.8506-3.6979 13.787,1.4 20.311-1.0089 4.34-1.6026 7.4664-1.5184 7.3512,.0328-.0802,1.0806-5.1544,4.7682-8.1305,5.8236-6.6512,2.3585-10.418-1.6645-14.761-1.8369-4.3434-.1724-6.4295,3.2593-13.95,4.4874-4.4062,.7195-7.5522-3.4278-13.559-3.6668-6.0068-.239-14.288,3.0043-19.204,3.3324-8.0089,.5345-12.592-1.8449-19.566-1.4342-8.836,.5204-14.365,1.6276-21.874,.3178-5.1295-1.2323-7.5081-4.4489-10.683-5.3145-4.2646-1.1627-7.1943-2.2635-8.2164-5.1814-.5765-1.6457 4.1121,3.1928 5.9372,2.0461 5.2425-3.2938 10.282,2.0516 14.785,5.0236 8.5245,4.6578 10.196-3.3524 16.84-.2767z"/>
<path fill="#b7d5da" fill-rule="evenodd" d="m476.28,185.29c6.8018-6.444 15.798,5.3781 19.789,.569 4.4338-5.3434 13.999-5.3849 19.654-3.6628 4.0941,1.2466 10.323-2.9226 14.768-.003 2.9544,1.9406 7.5668-.9535 10.723-.7787 4.5385,.2513 10.099,.3396 13.839-1.4937 5.2587-2.5781 9.7791,2.9099 14.768,1.3999 6.7705-2.049 15.268-4.3992 22.72,.1078 3.9748,2.404 19.274,6.1881 25.133,2.8166 4.4911-2.5844 7.8911-2.671 13.602-1.9488 8.97,1.1343 2.623,5.8222-5.7697,5.0056-4.336-.4219-10.136,4.3303-15.343,4.564-7.5748,.3401-15.224-4.9489-21.533-5.7634-8.1398-1.0509-13.604,2.2953-21.169,2.2432-7.4093-.051-9.8717-3.1806-17.856-2.5196-6.0577,.5015-14.607,6.2005-22.007,4.9115-5.1473-.8967-9.7371-4.1594-14.162-4.3498-2.4256-.1044-5.9416,1.6783-9.8193,2.1673-5.0586,.6379-5.5766,3.4937-9.452,5.0914-4.5929,1.8935-10.861,1.7027-15.979,.8992-6.8481-1.0753-16.765-7.363-16.575-9.8008 .1581-2.0336 8.5889,5.7265 14.668,.5453z"/>
<path fill="#869599" d="m123.87,533.2h21.766l246.84-218.02z"/>
<path fill="#ebebeb" stroke="url(#linearGradient4875)" stroke-linecap="round" d="m146.93,532.29 210.71-186.32"/>
<path fill="#869599" d="m661.59,533.2h-21.766l-246.84-218.02z"/>
<path fill="#ebebeb" stroke="url(#linearGradient4877)" stroke-linecap="round" d="m639.55,533.24-211.73-187.27"/>
</g>
<g fill="#1c1132" transform="translate(-91.541 -134.821)">
<path opacity=".35" d="m114.98,437.85-22.882,10.478v-10.478z"/>
<path opacity=".35" d="m228.72,387.79-19.761,8.5625h-28.847v-9.1498z"/>
<path opacity=".45" d="m301.25,355.52-12.484,5.5234h-25.279v-7.1189z"/>
<path opacity=".45" d="m332.97,341.49-7.6672,3.5347h-25.279l2.2491-3.5347z"/>
<path opacity=".45" d="m352.87,332.68-3.9191,1.7345h-12.15v-1.7345z"/>
<path opacity=".45" d="m367.02,326.42-1.868,.8267h-4.8744v-.9125z"/>
</g>
<g transform="translate(-91.541 -134.821)">
<path fill="#93a7ac" d="m392.5,315.15 298.97,147.26v70.796h-32.067z"/>
<path fill="#a7b8bc" d="m392.5,315.15 136.82,67.788c-22.092-5.2198-43.154-5.0087-55.071,0z"/>
<path fill="none" d="m91.541,134.82h599v399h-599z"/>
</g>
<g transform="translate(-78.038 52.459)">
<path fill="none" d="m344.42,139.14h9.0846l5.0142-2.1889h-7.2677z"/>
<path fill="none" d="m344.42,121.41v17.727l6.8312-2.1889v-14.182z"/>
<path fill="none" d="m351.25,122.77h7.2677v14.182h-7.2677z"/>
<path fill="none" d="m344.42,121.41h9.0846l5.0142,1.3566h-7.2677z"/>
<path fill="#b7b7c8" fill-rule="evenodd" d="m353.51,121.41v17.727l5.0142-2.1889v-14.182z"/>
<path fill="#9393ac" fill-rule="evenodd" d="m344.42,121.41h9.0846v17.727h-9.0846z"/>
<path fill="none" d="m324.76,145.43h14.535l7.9043-3.4674h-11.61z"/>
<path fill="none" d="m324.76,111.86v33.562l10.829-3.4674v-26.81z"/>
<path fill="none" d="m335.59,115.15h11.61v26.81h-11.61z"/>
<path fill="none" d="m324.76,111.86h14.535l7.9043,3.2853h-11.61z"/>
<path fill="#b7c8b7" fill-rule="evenodd" d="m339.29,111.86v33.562l7.9043-3.4674v-26.81z"/>
<path fill="#93ac93" fill-rule="evenodd" d="m324.76,111.86h14.535v33.562h-14.535z"/>
<path fill="none" d="m299.27,155.38h17.538l10.67-4.6967h-14.509z"/>
<path fill="none" d="m299.27,96.446v58.939l13.699-4.6967v-48.758z"/>
<path fill="none" d="m312.97,101.93h14.509v48.758h-14.509z"/>
<path fill="none" d="m299.27,96.446h17.538l10.67,5.4838h-14.509z"/>
<path fill="#c4b7c8" fill-rule="evenodd" d="m316.81,96.446v58.939l10.67-4.6967v-48.758z"/>
<path fill="#a793ac" fill-rule="evenodd" d="m299.27,96.446h17.538v58.939h-17.538z"/>
<path fill="none" d="m251.29,168.79h35.199l16.506-7.2764h-28.891z"/>
<path fill="none" d="m251.29,72.64v96.151l22.815-7.2764v-78.918z"/>
<path fill="none" d="m274.1,82.597h28.891v78.918h-28.891z"/>
<path fill="none" d="m251.29,72.64h35.199l16.506,9.957h-28.891z"/>
<path fill="#c4c8b7" fill-rule="evenodd" d="m286.49,72.64v96.151l16.506-7.2764v-78.918z"/>
<path fill="#a7ac93" fill-rule="evenodd" d="m251.29,72.64h35.199v96.151h-35.199z"/>
<path fill="none" d="m169.63,200.83h44.849l41.351-18.304h-33.548z"/>
<path fill="none" d="m169.63,42.363v158.47l52.653-18.304v-118.54z"/>
<path fill="none" d="m222.29,63.991h33.548v118.54h-33.548z"/>
<path fill="none" d="m169.63,42.363h44.849l41.351,21.629h-33.548z"/>
<path fill="#e9afaf" fill-rule="evenodd" d="m214.48,42.363v158.47l41.351-18.304v-118.54z"/>
<path fill="#f0c6c6" fill-rule="evenodd" d="m218.02,55.912v134.59l36.048-13.994v-104.54z"/>
<path fill="#de8787" fill-rule="evenodd" d="m169.63,42.363h44.849v158.47h-44.849z"/>
<path fill="#87aade" d="m184.47,213.33v-196.99l-83.697-48.24v282.51z"/>
<path fill="#9ebae4" d="m181.88,215.3v-187.84l-72.839-32.738v252.89z"/>
<path fill="#afefff" d="m177.77,41.01v13.196l-24.572-9.0031v-14.804z"/>
<path fill="#afefff" d="m139.16,24.204v15.826l-24.69-9.0619-.0752-17.432z"/>
<path fill="#afefff" d="m252.55,73.643v8.3761l-12.551-4.5693v-9.2082z"/>
<path fill="#c2f3ff" d="m326.79,105.54v3.4019l-3.4832-1.2813v-3.6308z"/>
<path fill="#afefff" d="m153.31,62.804v14.664l24.119,5.4046v-13.096z"/>
<path fill="#afefff" d="m234.51,92.86v9.499l-15.026-2.6703v-10.488z"/>
<path fill="#c2f3ff" d="m294.95,107.53 .0339,5.7619-6.663-1.1682v-6.2206z"/>
<path fill="#afefff" d="m252.55,123.95v8.9259l-12.551,.4828v-9.8126z"/>
<path fill="#afefff" d="m234.51,110.84v9.629l-15.026-.7854v-10.631z"/>
<path fill="#afefff" d="m234.51,144.05v10.26l-15.026,2.7367v-11.328z"/>
<path fill="#afefff" d="m252.55,158.34c-.0773,3.7598-.0773,5.5255-.0773,7.5625-2.6163,.7839-5.3603,1.5634-12.474,3.6928v-8.2432z"/>
<path fill="#afefff" d="m114.39,96.453v17.65l24.767,1.3029v-15.997z"/>
<path fill="#afefff" d="m153.2,101.08v15.061l24.572,1.2926v-13.421z"/>
<path fill="#afefff" d="m153.2,141.78v13.047l24.572-2.9182v-11.626z"/>
<path fill="#afefff" d="m114.39,191.46v14.692l24.767-7.3161v-13.317z"/>
<path fill="#afefff" d="m114.39,144.14v15.29l24.767-2.9414v-13.858z"/>
<path fill="#d5f6ff" d="m127.97,19.405-9.4688,13.031 4.4688,1.6562 9.2812-12.844-4.2812-1.8438z"/>
<path fill="#d5f6ff" d="m167,36.342-7.0312,11.344 7.4062,2.7188 6.7188-11-7.0938-3.0625z"/>
<path fill="#d5f6ff" d="m166.31,102.65-8.7812,13.719 7.9688,.4375 5.5312-13.594-4.7188-.5625z"/>
<path fill="#d5f6ff" d="m171.25,67.998-7.625,11.781 7.5,1.6875 4.6875-12.156-4.5625-1.3125z"/>
<path fill="#d5f6ff" d="m138.81,142.65-5,.3125-7.9062,15.094 6.875-.8125 6.0312-14.594z"/>
<path fill="#d5f6ff" d="m122.59,143.65-1.625,.0937-6.5625,11.281v4.4062l1.5938-.1875 6.5938-15.594z"/>
<path fill="#d5f6ff" d="m170.12,140.75-5.2812,.3125-6.125,13.094 6.3125-.75 5.0938-12.656z"/>
<path fill="#d5f6ff" d="m130.65,187.56-5.5938,1.3438-5.6875,15.781 5.75-1.6875 5.5312-15.438z"/>
<path fill="#d5f6ff" fill-rule="evenodd" d="m158.4,32.655-5.2188,10.125v2.4375l.375,.1562 9.75-10.594-4.9062-2.125z"/>
<path fill="#d5f6ff" fill-rule="evenodd" d="m137,26.092-9.375,9.6875 4.7812,1.7812 4.5938-11.469z"/>
<path fill="#d5f6ff" fill-rule="evenodd" d="m121.56,97.311-4.0625,16.938 3.0625,.1562 9.0938-16.125-8.0938-.9688z"/>
<path fill="#d5f6ff" fill-rule="evenodd" d="m137.28,99.186-9.0625,15.625 7.1562,.4062 3.7812-15.312v-.5l-1.875-.2188z"/>
<path fill="#d5f6ff" fill-rule="evenodd" d="m162.59,65.498-9.2812,10.719v1.25l5.7188,1.2812 4.7812-12.906-1.2188-.3438z"/>
<path fill="#d5f6ff" fill-rule="evenodd" d="m242.81,69.467-2.8125,3.5312v4.4375l4.5938,1.6875 1.8125-8.125-3.5938-1.5312z"/>
<path fill="#d5f6ff" fill-rule="evenodd" d="m222.5,89.905-2.625,9.8438 1.6562,.3125 3.75-9.4688-2.7812-.6875z"/>
<path fill="#d5f6ff" fill-rule="evenodd" d="m230.31,91.842-4.1088,9.047 4.515,.7968 2.2188-9.1875z"/>
<path fill="#d5f6ff" fill-rule="evenodd" d="m225,109.72-5.5,8.9688v1l4.0388,.2812 2.93-10.094z"/>
<path fill="#d5f6ff" fill-rule="evenodd" d="m228.53,110.12-.1562,10.031 1.8438,.0937h.3438l2.625-9.5625-4.6562-.5625z"/>
<path fill="#d5f6ff" fill-rule="evenodd" d="m225.09,145.09-3.3438,.375-2.25,4.9375v6.6562l4.5312-.8125 1.0625-11.156z"/>
<path fill="#d5f6ff" fill-rule="evenodd" d="m233.84,144.12-3.6562,.4062-1.7812,10.906 2.75-.5 2.6875-10.812z"/>
<path fill="#d5f6ff" fill-rule="evenodd" d="m243.15,123.65-1.6875,9.6562 3.1875-.125 2.5312-9.4062-4.0312-.125z"/>
<path fill="#d5f6ff" fill-rule="evenodd" d="m248.03,159.44-4,.9375-4.0312,7.5938v1.625c4.3658-1.3068 5.6016-1.647 7.6562-2.25l.375-7.9062z"/>
<path fill="#c2f3ff" d="m288.21,123.26v7.8742l6.8073-.2559v-7.2836z"/>
<path fill="#c2f3ff" d="m297.82,123.73v7.0405l3.4582-.13v-6.7405z"/>
<path fill="#c2f3ff" d="m297.82,90.944v5.8666l3.4582,1.3173v-5.6166z"/>
<path fill="#c2f3ff" d="m288.21,86.589v6.5613l6.8073,2.593v-6.0692z"/>
<path fill="#c2f3ff" d="m297.82,136.44v3.8713l3.4582-.5364v-3.7064z"/>
<path fill="#c2f3ff" d="m288.21,148.86v3.657l6.8073-1.8598v-3.3827z"/>
<path fill="#c2f3ff" d="m318.24,113.58v3.6388l3.825,.6613v-3.4096z"/>
<path fill="#c2f3ff" d="m323.31,123.05v2.9786l3.4586,.1054v-2.7936z"/>
<path fill="#c2f3ff" d="m318.24,131.02v3.33l3.825-.4176v-3.1202z"/>
<path fill="#c2f3ff" d="m323.31,130.75v3.0519l3.4586-.3776v-2.8623z"/>
<path fill="#c2f3ff" d="m323.31,139.21v2.3123l3.4586-.8575v-2.1686z"/>
<path fill="#c2f3ff" d="m318.24,146.47v2.4117l3.825-1.333v-2.2598z"/>
</g>
<g fill="#c2f3ff" transform="translate(-91.541 -134.821)">
<path d="m354.65,303.68v2.959l1.8051,.3995v-2.8178z"/>
<path d="m354.65,309.61v2.2988l1.8051,.1476v-2.1891z"/>
<path d="m357.53,310.02v2.1238l1.8051,.1476v-2.014z"/>
<path d="m357.53,315.38v1.9014l1.8051-.1176v-1.8032z"/>
<path d="m354.65,321.29v2.1557l1.848-.4127v-2.0504z"/>
<path d="m357.53,325.86v2.0452l1.8051-.6662v-1.9395z"/>
</g>
<g transform="translate(-78.038 52.459)">
<path fill="none" stroke="#f4d5d5" stroke-linejoin="round" stroke-linecap="round" d="m255.78,182.35v-117.85l-41.315-21.574v157.53"/>
<path fill="none" stroke="#e3e5dd" stroke-linejoin="round" stroke-linecap="round" stroke-width=".6" d="m286.37,168.1-.2325-95.394 16.86,9.8868 .2325,78.213"/>
<path fill="none" stroke="#e8e3ea" stroke-linejoin="round" stroke-linecap="round" stroke-width=".6" d="m316.92,154.86v-58.346l10.824,5.5961v48.083"/>
<path fill="#5f8dd3" d="m100.78-31.626h-22.327v282.5h22.327z"/>
<path fill="none" stroke="#c9d9ef" stroke-linejoin="round" stroke-linecap="round" d="m184.47,213.33v-196.99l-83.697-48.24v282.51"/>
</g>
</svg>
