<svg width="1053.2813" xmlns="http://www.w3.org/2000/svg" viewBox="0 0 1053.2813 218.37501" height="218.375">
<defs>
<clipPath clipPathUnits="userSpaceOnUse">
<path fill="url(#radialGradient4362)" color="#000" d="m0,0h1052.4v744.09h-1052.4z"/>
</clipPath>
<clipPath clipPathUnits="userSpaceOnUse">
<path fill="none" color="#000" d="m0,0h1052.4v744.09h-1052.4z"/>
</clipPath>
<radialGradient cx="534.33" cy="804.56" gradientTransform="matrix(-.00713 -1.2883 2.1427 -.01188 -1185.8 1375.8)" id="radialGradient4362" r="526.18" gradientUnits="userSpaceOnUse">
<stop offset="0" stop-color="#0e1b7f"/>
<stop offset="1" stop-color="#0d122a"/>
</radialGradient>
</defs>
<g stroke="#000" transform="translate(.46875 -834.46875)">
<path stroke-width=".897" d="m0,1052.4c155.69-25.3 786.4-147.46 958.57-169.08 36.455,26.68 93.791,49.448 93.791,49.448v119.6z"/>
<g stroke-width=".517">
<path d="m138.68,858.77c-3.6556,10.854-2.0979,28.38-14.969,32.189 2.0924,1.298 5.1436-.9892 11.624-4.9426-1.048,17.925-11.139,21.826-16.961,24.173 5.228,.1917 10.053,1.0169 16.606-5.6487-5.7709,15.515-9.9615,15.765-17.986,21.079 6.665-1.528 7.3122,2.5689 16.264-4.8595-1.9623,11.33-10.752,19.57-19.564,21.016 7.6681,.2853 18.504,5.4038 20.425-4.7141l.0423,20.227 3.1526-.5399 4.5676,1.2876-1.9291-18.416c5.6225,10.255 15.564,6.0674 22.483,5.7484-10.1-3.7249-19.298-2.8043-23.409-17.237 4.0416,6.2093 11.871,7.6756 15.515,6.5624-10.054-2.7314-15.26-14.655-17.35-24.505 3.2593,4.4795 10.662,7.0014 13.105,6.0225-8.9368-6.949-11.974-15.261-12.789-23.633 2.0929,5.3024 8.1195,4.3611 8.1195,4.3611-10.785-6.8324-7.2171-27.063-6.9476-38.17z"/>
<path d="m163.27,854.91c3.6556,10.854 2.0979,28.38 14.969,32.189-2.0924,1.298-5.1436-.9892-11.624-4.9426 1.048,17.925 11.139,21.826 16.961,24.173-5.228,.1917-10.053,1.0169-16.606-5.6487 5.7709,15.515 9.9615,15.765 17.986,21.079-6.665-1.528-7.3122,2.5689-16.264-4.8595 1.9623,11.33 10.752,19.57 19.564,21.016-7.6681,.2853-18.504,5.4038-20.425-4.7141l-.0423,20.227-3.1526-.5399-4.5676,1.2876 1.9291-18.416c-5.6225,10.255-15.564,6.0674-22.483,5.7484 10.1-3.7249 19.298-2.8043 23.409-17.237-4.0416,6.2093-11.871,7.6756-15.515,6.5624 10.054-2.7314 15.26-14.655 17.35-24.505-3.2593,4.4795-10.662,7.0014-13.105,6.0225 8.9368-6.949 11.974-15.261 12.789-23.633-2.0929,5.3024-8.1195,4.3611-8.1195,4.3611 10.785-6.8324 7.2171-27.063 6.9476-38.17z"/>
<path d="m192.26,849.64c-3.6556,10.854-2.0979,28.38-14.969,32.189 2.0924,1.298 5.1436-.9892 11.624-4.9426-1.048,17.925-11.139,21.826-16.961,24.173 5.228,.1917 10.053,1.0169 16.606-5.6487-5.7709,15.515-9.9615,15.765-17.986,21.079 6.665-1.528 7.3122,2.5689 16.264-4.8595-1.9623,11.33-10.752,19.57-19.564,21.016 7.6681,.2853 18.504,5.4038 20.425-4.7141l.0423,20.227 3.1526-.5399 4.5676,1.2876-1.9291-18.416c5.6225,10.255 15.564,6.0674 22.483,5.7484-10.1-3.7249-19.298-2.8043-23.409-17.237 4.0416,6.2093 11.871,7.6756 15.515,6.5624-10.054-2.7314-15.26-14.655-17.35-24.505 3.2593,4.4795 10.662,7.0014 13.105,6.0225-8.9368-6.949-11.974-15.261-12.789-23.633 2.0929,5.3024 8.1195,4.3611 8.1195,4.3611-10.785-6.8324-7.2171-27.063-6.9476-38.17z"/>
<path d="m217.91,848.58c-3.6556,10.854-2.0979,28.38-14.969,32.189 2.0924,1.298 5.1436-.9892 11.624-4.9426-1.048,17.925-11.139,21.826-16.961,24.173 5.228,.1917 10.053,1.0169 16.606-5.6487-5.7709,15.515-9.9615,15.765-17.986,21.079 6.665-1.528 7.3122,2.5689 16.264-4.8595-1.9623,11.33-10.752,19.57-19.564,21.016 7.6681,.2853 18.504,5.4038 20.425-4.7141l.0423,20.227 3.1526-.5399 4.5676,1.2876-1.9291-18.416c5.6225,10.255 15.564,6.0674 22.483,5.7484-10.1-3.7249-19.298-2.8043-23.409-17.237 4.0416,6.2093 11.871,7.6756 15.515,6.5624-10.054-2.7314-15.26-14.655-17.35-24.505 3.2593,4.4795 10.662,7.0014 13.105,6.0225-8.9368-6.949-11.974-15.261-12.789-23.633 2.0929,5.3024 8.1195,4.3611 8.1195,4.3611-10.785-6.8324-7.2171-27.063-6.9476-38.17z"/>
<path d="m224.55,834.85c3.6556,10.854 2.0979,28.38 14.969,32.189-2.0924,1.298-5.1436-.9892-11.624-4.9426 1.048,17.925 11.139,21.826 16.961,24.173-5.228,.1917-10.053,1.0169-16.606-5.6487 5.7709,15.515 9.9615,15.765 17.986,21.079-6.665-1.528-7.3122,2.5689-16.264-4.8595 1.9623,11.33 10.752,19.57 19.564,21.016-7.6681,.2853-18.504,5.4038-20.425-4.7141l-.0423,20.227-3.1526-.5399-4.5676,1.2876 1.9291-18.416c-5.6225,10.255-15.564,6.0674-22.483,5.7484 10.1-3.7249 19.298-2.8043 23.409-17.237-4.0416,6.2093-11.871,7.6756-15.515,6.5624 10.054-2.7314 15.26-14.655 17.35-24.505-3.2593,4.4795-10.662,7.0014-13.105,6.0225 8.9368-6.949 11.974-15.261 12.789-23.633-2.0929,5.3024-8.1195,4.3611-8.1195,4.3611 10.785-6.8324 7.2171-27.063 6.9476-38.17z"/>
<path d="m242.46,838.63c-3.6556,10.854-2.0979,28.38-14.969,32.189 2.0924,1.298 5.1436-.9892 11.624-4.9426-1.048,17.925-11.139,21.826-16.961,24.173 5.228,.1917 10.053,1.0169 16.606-5.6487-5.7709,15.515-9.9615,15.765-17.986,21.079 6.665-1.528 7.3122,2.5689 16.264-4.8595-1.9623,11.33-10.752,19.57-19.564,21.016 7.6681,.2853 18.504,5.4038 20.425-4.7141l.0423,20.227 3.1526-.5399 4.5676,1.2876-1.9291-18.416c5.6225,10.255 15.564,6.0674 22.483,5.7484-10.1-3.7249-19.298-2.8043-23.409-17.237 4.0416,6.2093 11.871,7.6756 15.515,6.5624-10.054-2.7314-15.26-14.655-17.35-24.505 3.2593,4.4795 10.662,7.0014 13.105,6.0225-8.9368-6.949-11.974-15.261-12.789-23.633 2.0929,5.3024 8.1195,4.3611 8.1195,4.3611-10.785-6.8324-7.2171-27.063-6.9476-38.17z"/>
<path d="m253.94,847.2c3.6556,10.854 2.0979,28.38 14.969,32.189-2.0924,1.298-5.1436-.9892-11.624-4.9426 1.048,17.925 11.139,21.826 16.961,24.173-5.228,.1917-10.053,1.0169-16.606-5.6487 5.7709,15.515 9.9615,15.765 17.986,21.079-6.665-1.528-7.3122,2.5689-16.264-4.8595 1.9623,11.33 10.752,19.57 19.564,21.016-7.6681,.2853-18.504,5.4038-20.425-4.7141l-.0423,20.227-3.1526-.5399-4.5676,1.2876 1.9291-18.416c-5.6225,10.255-15.564,6.0674-22.483,5.7484 10.1-3.7249 19.298-2.8043 23.409-17.237-4.0416,6.2093-11.871,7.6756-15.515,6.5624 10.054-2.7314 15.26-14.655 17.35-24.505-3.2593,4.4795-10.662,7.0014-13.105,6.0225 8.9368-6.949 11.974-15.261 12.789-23.633-2.0929,5.3024-8.1195,4.3611-8.1195,4.3611 10.785-6.8324 7.2171-27.063 6.9476-38.17z"/>
<path d="m245.59,847.94c-3.6556,10.854-2.0979,28.38-14.969,32.189 2.0924,1.298 5.1436-.9892 11.624-4.9426-1.048,17.925-11.139,21.826-16.961,24.173 5.228,.1917 10.053,1.0169 16.606-5.6487-5.7709,15.515-9.9615,15.765-17.986,21.079 6.665-1.528 7.3122,2.5689 16.264-4.8595-1.9623,11.33-10.752,19.57-19.564,21.016 7.6681,.2853 18.504,5.4038 20.425-4.7141l.0423,20.227 3.1526-.5399 4.5676,1.2876-1.9291-18.416c5.6225,10.255 15.564,6.0674 22.483,5.7484-10.1-3.7249-19.298-2.8043-23.409-17.237 4.0416,6.2093 11.871,7.6756 15.515,6.5624-10.054-2.7314-15.26-14.655-17.35-24.505 3.2593,4.4795 10.662,7.0014 13.105,6.0225-8.9368-6.949-11.974-15.261-12.789-23.633 2.0929,5.3024 8.1195,4.3611 8.1195,4.3611-10.785-6.8324-7.2171-27.063-6.9476-38.17z"/>
<path d="m203.15,859.83c3.6556,10.854 2.0979,28.38 14.969,32.189-2.0924,1.298-5.1436-.9892-11.624-4.9426 1.048,17.925 11.139,21.826 16.961,24.173-5.228,.1917-10.053,1.0169-16.606-5.6487 5.7709,15.515 9.9615,15.765 17.986,21.079-6.665-1.528-7.3122,2.5689-16.264-4.8595 1.9623,11.33 10.752,19.57 19.564,21.016-7.6681,.2853-18.504,5.4038-20.425-4.7141l-.0423,20.227-3.1526-.5399-4.5676,1.2876 1.9291-18.416c-5.6225,10.255-15.564,6.0674-22.483,5.7484 10.1-3.7249 19.298-2.8043 23.409-17.237-4.0416,6.2093-11.871,7.6756-15.515,6.5624 10.054-2.7314 15.26-14.655 17.35-24.505-3.2593,4.4795-10.662,7.0014-13.105,6.0225 8.9368-6.949 11.974-15.261 12.789-23.633-2.0929,5.3024-8.1195,4.3611-8.1195,4.3611 10.785-6.8324 7.2171-27.063 6.9476-38.17z"/>
<path d="m177.35,859.95c-3.6556,10.854-2.0979,28.38-14.969,32.189 2.0924,1.298 5.1436-.9892 11.624-4.9426-1.048,17.925-11.139,21.826-16.961,24.173 5.228,.1917 10.053,1.0169 16.606-5.6487-5.7709,15.515-9.9615,15.765-17.986,21.079 6.665-1.528 7.3122,2.5689 16.264-4.8595-1.9623,11.33-10.752,19.57-19.564,21.016 7.6681,.2853 18.504,5.4038 20.425-4.7141l.0423,20.227 3.1526-.5399 4.5676,1.2876-1.9291-18.416c5.6225,10.255 15.564,6.0674 22.483,5.7484-10.1-3.7249-19.298-2.8043-23.409-17.237 4.0416,6.2093 11.871,7.6756 15.515,6.5624-10.054-2.7314-15.26-14.655-17.35-24.505 3.2593,4.4795 10.662,7.0014 13.105,6.0225-8.9368-6.949-11.974-15.261-12.789-23.633 2.0929,5.3024 8.1195,4.3611 8.1195,4.3611-10.785-6.8324-7.2171-27.063-6.9476-38.17z"/>
<path d="m122.22,874.98c-3.6556,10.854-2.0979,28.38-14.969,32.189 2.0924,1.298 5.1436-.9892 11.624-4.9426-1.048,17.925-11.139,21.826-16.961,24.173 5.228,.1917 10.053,1.0169 16.606-5.6487-5.7709,15.515-9.9615,15.765-17.986,21.079 6.665-1.528 7.3122,2.5689 16.264-4.8595-1.9623,11.33-10.752,19.57-19.564,21.016 7.6681,.2853 18.504,5.4038 20.425-4.7141l.0423,20.227 3.1526-.5399 4.5676,1.2876-1.9291-18.416c5.6225,10.255 15.564,6.0674 22.483,5.7484-10.1-3.7249-19.298-2.8043-23.409-17.237 4.0416,6.2093 11.871,7.6756 15.515,6.5624-10.054-2.7314-15.26-14.655-17.35-24.505 3.2593,4.4795 10.662,7.0014 13.105,6.0225-8.9368-6.949-11.974-15.261-12.789-23.633 2.0929,5.3024 8.1195,4.3611 8.1195,4.3611-10.785-6.8324-7.2171-27.063-6.9476-38.17z"/>
<path d="m145.03,875.23c3.6556,10.854 2.0979,28.38 14.969,32.189-2.0924,1.298-5.1436-.9892-11.624-4.9426 1.048,17.925 11.139,21.826 16.961,24.173-5.228,.1917-10.053,1.0169-16.606-5.6487 5.7709,15.515 9.9615,15.765 17.986,21.079-6.665-1.528-7.3122,2.5689-16.264-4.8595 1.9623,11.33 10.752,19.57 19.564,21.016-7.6681,.2853-18.504,5.4038-20.425-4.7141l-.0423,20.227-3.1526-.5399-4.5676,1.2876 1.9291-18.416c-5.6225,10.255-15.564,6.0674-22.483,5.7484 10.1-3.7249 19.298-2.8043 23.409-17.237-4.0416,6.2093-11.871,7.6756-15.515,6.5624 10.054-2.7314 15.26-14.655 17.35-24.505-3.2593,4.4795-10.662,7.0014-13.105,6.0225 8.9368-6.949 11.974-15.261 12.789-23.633-2.0929,5.3024-8.1195,4.3611-8.1195,4.3611 10.785-6.8324 7.2171-27.063 6.9476-38.17z"/>
<path d="m263.88,846.16c-3.6556,10.854-2.0979,28.38-14.969,32.189 2.0924,1.298 5.1436-.9892 11.624-4.9426-1.048,17.925-11.139,21.826-16.961,24.173 5.228,.1917 10.053,1.0169 16.606-5.6487-5.7709,15.515-9.9615,15.765-17.986,21.079 6.665-1.528 7.3122,2.5689 16.264-4.8595-1.9623,11.33-10.752,19.57-19.564,21.016 7.6681,.2853 18.504,5.4038 20.425-4.7141l.0423,20.227 3.1526-.5399 4.5676,1.2876-1.9291-18.416c5.6225,10.255 15.564,6.0674 22.483,5.7484-10.1-3.7249-19.298-2.8043-23.409-17.237 4.0416,6.2093 11.871,7.6756 15.515,6.5624-10.054-2.7314-15.26-14.655-17.35-24.505 3.2593,4.4795 10.662,7.0014 13.105,6.0225-8.9368-6.949-11.974-15.261-12.789-23.633 2.0929,5.3024 8.1195,4.3611 8.1195,4.3611-10.785-6.8324-7.2171-27.063-6.9476-38.17z"/>
</g>
<path stroke-width=".897" d="m0,967.27c91.107-11.96 185.22-48.56 267.14-62.1 112.24-7.728 108.19,59.362 344.84,54.168l-3.882,93.025h-608.11z"/>
</g>
</svg>
