<svg xmlns="http://www.w3.org/2000/svg" viewBox="0 0 3840 1080" xmlns:xlink="http://www.w3.org/1999/xlink">
<defs>
<clipPath id="clipPath12413" clipPathUnits="userSpaceOnUse">
<path opacity=".716" fill="#a0892c" d="m0-27.638h3840v1079.998h-3840z"/>
</clipPath>
<filter width="1.229" x="-.114" y="-.126" height="1.252" color-interpolation-filters="sRGB" id="filter10778">
<feGaussianBlur stdDeviation="30.64162"/>
</filter>
<linearGradient gradientTransform="matrix(1.3257 0 0 1.3257 -1023.7 -960.13)" id="linearGradient12424" xlink:href="#linearGradient6314" y1="431.56" y2="367.42" x1="2503.8" gradientUnits="userSpaceOnUse" x2="2506.3"/>
<linearGradient gradientTransform="matrix(1.3257 0 0 1.3257 -1023.7 -996.77)" id="linearGradient12426" xlink:href="#linearGradient6154" y1="351.34" y2="409.71" gradientUnits="userSpaceOnUse" x2="0"/>
<linearGradient id="linearGradient6314">
<stop offset="0" stop-color="#633324"/>
<stop offset="1" stop-color="#4b2c26"/>
</linearGradient>
<linearGradient id="linearGradient6154">
<stop offset="0" stop-color="#47241d"/>
<stop offset="1" stop-color="#47241d" stop-opacity="0"/>
</linearGradient>
<linearGradient gradientTransform="matrix(1 0 0 .9106 0 -7.1116)" id="linearGradient12422" y1="-39.036" y2="511.81" x1="1377" gradientUnits="userSpaceOnUse" x2="1375.2">
<stop offset="0" stop-color="#22538e"/>
<stop offset=".548" stop-color="#80a2c7"/>
<stop offset="1" stop-color="#e1eae9"/>
</linearGradient>
<linearGradient id="linearGradient6172">
<stop offset="0" stop-color="#2b1100"/>
<stop offset="1" stop-color="#2b1100" stop-opacity="0"/>
</linearGradient>
<linearGradient gradientTransform="matrix(1.4737 0 0 1.4737 -1468.6 -143.26)" id="linearGradient12432" xlink:href="#linearGradient6314" y1="447.86" y2="378.59" x1="1811.4" gradientUnits="userSpaceOnUse" x2="1810.8"/>
<linearGradient id="linearGradient6470">
<stop offset="0" stop-color="#4d322b"/>
<stop offset="1" stop-color="#302625"/>
</linearGradient>
<linearGradient gradientTransform="matrix(1.3257 0 0 1.3257 -1023.7 -996.77)" id="linearGradient12428" xlink:href="#linearGradient6172" y1="328.57" y2="270.98" x1="2481.9" gradientUnits="userSpaceOnUse" x2="2480.6"/>
<linearGradient gradientTransform="matrix(1.3257 0 0 1.3257 -1023.7 -996.77)" id="linearGradient12430" xlink:href="#linearGradient6172" y1="329.02" y2="285.94" x1="2449.5" gradientUnits="userSpaceOnUse" x2="2450"/>
<linearGradient gradientTransform="matrix(1.012 0 0 .70257 -28.049 305.61)" id="linearGradient12446" xlink:href="#linearGradient6298" y1="1102.3" y2="139.61" x1="1649.2" gradientUnits="userSpaceOnUse" x2="1663.7"/>
<linearGradient gradientTransform="matrix(1.4737 0 0 1.4737 -1468.6 -183.99)" id="linearGradient12434" y1="414.94" y2="436.11" x1="1806" gradientUnits="userSpaceOnUse" x2="1804.7">
<stop offset="0" stop-color="#492821"/>
<stop offset="1" stop-color="#583025"/>
</linearGradient>
<linearGradient gradientTransform="matrix(1.4737 0 0 1.4737 -1335.2 -208.67)" id="linearGradient12440" xlink:href="#linearGradient6172" y1="328.57" y2="270.98" x1="2481.9" gradientUnits="userSpaceOnUse" x2="2480.6"/>
<linearGradient gradientTransform="matrix(1.0107 0 0 .9162 -22.966 69.64)" id="linearGradient12444" xlink:href="#linearGradient6298" y1="1127.2" y2="499.53" x1="1654.3" gradientUnits="userSpaceOnUse" x2="1668.8"/>
<linearGradient gradientTransform="matrix(1.4737 0 0 1.4737 -1335.2 -208.67)" id="linearGradient12442" xlink:href="#linearGradient6172" y1="329.02" y2="285.94" x1="2449.5" gradientUnits="userSpaceOnUse" x2="2450"/>
<linearGradient gradientTransform="matrix(1.4737 0 0 1.4737 -1335.2 -208.67)" id="linearGradient12438" xlink:href="#linearGradient6154" y1="351.34" y2="409.71" gradientUnits="userSpaceOnUse" x2="0"/>
<linearGradient gradientTransform="matrix(1.4737 0 0 1.4737 -1335.2 -167.94)" id="linearGradient12436" xlink:href="#linearGradient6314" y1="431.56" y2="367.42" x1="2503.8" gradientUnits="userSpaceOnUse" x2="2506.3"/>
<linearGradient id="linearGradient6298">
<stop offset="0" stop-color="#894f2a"/>
<stop offset="1" stop-color="#902b11"/>
</linearGradient>
<linearGradient id="linearGradient12448" xlink:href="#linearGradient6458" x1="2835" gradientUnits="userSpaceOnUse" x2="3851.9"/>
<linearGradient id="linearGradient6458">
<stop offset="0" stop-color="#2d1f20"/>
<stop offset=".502" stop-color="#c47c4f"/>
<stop offset="1" stop-color="#422b27"/>
</linearGradient>
<linearGradient gradientTransform="matrix(2.4134 0 0 2.4134 7.4796 1512.1)" id="linearGradient12450" xlink:href="#linearGradient6470" x1="1222.2" gradientUnits="userSpaceOnUse" x2="1306.5"/>
<linearGradient gradientTransform="matrix(2.1523 0 0 2.1523 -1510.7 -1480.8)" id="linearGradient12452" xlink:href="#linearGradient6480" x1="2140.9" gradientUnits="userSpaceOnUse" x2="2435.7"/>
<linearGradient id="linearGradient6490">
<stop offset="0" stop-color="#412f2f"/>
<stop offset="1" stop-color="#ba6e3c"/>
</linearGradient>
<linearGradient id="linearGradient6504">
<stop offset="0" stop-color="#33211a"/>
<stop offset="1" stop-color="#5a382f"/>
</linearGradient>
<linearGradient gradientTransform="matrix(2.2098 -.1033 .15676 3.3534 -2403.1 -4045.2)" id="linearGradient12456" xlink:href="#linearGradient6524" y1="1454.2" y2="1510.4" x1="2468.3" gradientUnits="userSpaceOnUse" x2="2733.2"/>
<linearGradient gradientTransform="matrix(2.2635 0 0 2.2635 -2015.6 -2687.7)" id="linearGradient12454" xlink:href="#linearGradient6490" x1="2482.1" gradientUnits="userSpaceOnUse" x2="2609.4"/>
<linearGradient id="linearGradient6524">
<stop offset="0" stop-color="#955e42"/>
<stop offset="1" stop-color="#945936"/>
</linearGradient>
<linearGradient id="linearGradient6512">
<stop offset="0" stop-color="#fba568"/>
<stop offset="1" stop-color="#c9723e"/>
</linearGradient>
<linearGradient id="linearGradient6480">
<stop offset="0" stop-color="#55342b"/>
<stop offset="1" stop-color="#ce7340"/>
</linearGradient>
<linearGradient id="linearGradient12460" xlink:href="#linearGradient6504" y1="615.01" y2="738.36" x1="2796.1" gradientUnits="userSpaceOnUse" x2="3371.5"/>
<linearGradient id="linearGradient12458" xlink:href="#linearGradient6512" y1="539.92" y2="721.32" x1="2984" gradientUnits="userSpaceOnUse" x2="3426.6"/>
<linearGradient id="linearGradient12462" xlink:href="#linearGradient6558" y1="761.9" y2="613.11" x1="3593.5" gradientUnits="userSpaceOnUse" x2="3566.3"/>
<linearGradient gradientTransform="matrix(2.4924 0 0 2.4924 -2601 -3079.4)" id="linearGradient12470" xlink:href="#linearGradient6490" x1="2482.1" gradientUnits="userSpaceOnUse" x2="2609.4"/>
<linearGradient gradientTransform="matrix(1.1011 0 0 1.1011 -381.49 -119.9)" id="linearGradient12464" xlink:href="#linearGradient6458" x1="2835" gradientUnits="userSpaceOnUse" x2="3851.9"/>
<linearGradient gradientTransform="matrix(2.6575 0 0 2.6575 -373.25 1545.1)" id="linearGradient12466" xlink:href="#linearGradient6470" x1="1222.2" gradientUnits="userSpaceOnUse" x2="1306.5"/>
<linearGradient gradientTransform="matrix(2.37 0 0 2.37 -2045 -1750.4)" id="linearGradient12468" xlink:href="#linearGradient6480" x1="2140.9" gradientUnits="userSpaceOnUse" x2="2435.7"/>
<linearGradient id="linearGradient6558">
<stop offset="0" stop-color="#c9723e"/>
<stop offset="1" stop-color="#e28b53"/>
</linearGradient>
<linearGradient gradientTransform="matrix(1.1011 0 0 1.1011 -381.49 -150.33)" id="linearGradient12728" y1="933.13" y2="1114.5" x1="3206" gradientUnits="userSpaceOnUse" x2="3203.9">
<stop offset="0"/>
<stop offset="1" stop-opacity="0"/>
</linearGradient>
<linearGradient gradientTransform="matrix(1.1011 0 0 1.1011 -381.49 -150.33)" id="linearGradient12480" xlink:href="#linearGradient6558" y1="761.9" y2="613.11" x1="3593.5" gradientUnits="userSpaceOnUse" x2="3566.3"/>
<linearGradient gradientTransform="matrix(1.1011 0 0 1.1011 -381.49 -119.9)" id="linearGradient12476" xlink:href="#linearGradient6512" y1="539.92" y2="721.32" x1="2984" gradientUnits="userSpaceOnUse" x2="3426.6"/>
<linearGradient gradientTransform="matrix(1.1011 0 0 1.1011 -381.49 -119.9)" id="linearGradient12478" xlink:href="#linearGradient6504" y1="615.01" y2="738.36" x1="2796.1" gradientUnits="userSpaceOnUse" x2="3371.5"/>
<linearGradient gradientTransform="matrix(2.4332 -.11375 .17261 3.6925 -3027.6 -4574.2)" id="linearGradient12474" xlink:href="#linearGradient6524" y1="1454.2" y2="1510.4" x1="2468.3" gradientUnits="userSpaceOnUse" x2="2733.2"/>
<radialGradient cx="795.4" cy="511.72" gradientTransform="matrix(2.7816 .62342 -.58709 2.4975 -330.47 -870.54)" id="radialGradient12472" r="121.11" gradientUnits="userSpaceOnUse">
<stop offset="0" stop-color="#f39d61"/>
<stop offset="1" stop-color="#c9723e"/>
</radialGradient>
</defs>
<g transform="translate(1634.3 44.781)">
<g clip-path="url(#clipPath12413)" transform="translate(-1634.3 -17.143)">
<path fill="url(#linearGradient12422)" d="m-65.302-79.545h3956.602v574.82h-3956.602z"/>
<path fill="#a3a2a8" d="m-23.059,492.33 59.975-16.279s20.099,18.623 31.682,22.523c55.94,18.837 172.97,.9955 172.97,.9955s112.25,2.2012 200.48-5.1764c28.648-2.3956 45.19-18.708 67.096-19.496 13.997-.5038 31.63,13.665 48.596,13.595 66.229-.2737 148.86-2.7706 204.96-4.7501 38.252-1.3495 33.857-19.291 33.857-19.291s189.94,5.5238 269.83,3.0474c18.742-.5809 36.348,14.259 65.758,18.03 50.224,6.4404 117.78,3.6412 160.44,3.4799 125.09-.473 207.75-23.447 207.75-23.447s193.52,13.754 345.1,11.077c27.343-.4831 67.125-29.418 89.26-28.931 73.93,1.627 221.38,18.865 221.38,18.865s34.649,16.59 111.91,8.7036c104.64-10.68 271.06-44.189 382.35-18.221 22.04,5.1429 55.01-7.4066 73.299,1.1114 15.209,7.0837 37.65,40.732 37.65,40.732s217.19,11.555 287.94,2.6409c28.859-3.6363 12.349-25.567 40.01-29.87 33.799-5.2578 53.146-2.7816 80.953-2.6795 9.9924,.0368 25.885,17.427 35.287,18.093 46.133,3.2682 81.488-3.7531 144.65,4.4769 93.402,12.17 195.62,15.438 195.62,15.438s126.2-13.405 189.44-14.786c41.368-.9035 124.08,4.2552 124.08,4.2552l32.105,102.04-3919.3-38.484z"/>
<g transform="matrix(-.5067 0 0 .66642 2401.8 741.99)">
<path fill="#4b2c26" d="m2198.3-461.65 .1036-23.11 4.1052-96.422s4.0725-3.8003 5.3927-6.2002c2.3643-4.2977-.5157-12.711 4.2081-14.101 3.6122-1.0625 .4276-8.3662 3.2976-10.803 2.2785-1.9349 6.2795,.2666 8.8878-1.1935 2.6259-1.4699 2.735-6.4981 5.7023-6.9989 8.3984-1.4174 18.617-1.3168 25.205-1.4086 4.6882-.0654 7.0518,6.6297 11.508,8.0892 7.7384,2.5348 16.39,1.8286 24.424,.498 4.6122-.7639 8.5608-4.0803 13.181-4.7916 9.8974-1.5236 20.38-1.4338 30.014,1.2966 4.7408,1.3435 8.4013,5.2117 12.907,7.2052 6.7213,2.9733 19.786-.2886 20.902,7.0166 4.0429,26.457 3.8605,51.594 3.8605,51.594l2.2733,.3453 .061-1.6177 3.5097,.0701c1.1012,2.5041-.7679,12.438-.023,15.167 .8152,2.9885 3.6245,1.4497 3.8462,.73l.8708-3.0941 6.5861,1.7726 3.0362,3.5445-.6098,7.1963 11.418,5.8926 4.8903-1.4016 .9836-63.672 2.3141-2.9337 6.5952-.01 2.273,51.696 4.2278,7.7312-.1219,12.239 4.4154,4.6615s-.5582,23.566 2.4047,34.815c1.6748,6.3578 8.5107,17.793 8.5107,17.793l.3948,17.802z"/>
<path fill="url(#linearGradient12424)" d="m2437.7-447.07 12.023,3.607 8.4163,6.0117 7.2141,10.821 13.226,2.4047 1.2025,9.6187 7.2139,3.607 14.428,9.6187 25.249,13.226 7.2139,6.0117 10.821,4.8093 7.214,1.2023 10.821,4.8093 15.63,3.607 3.607,6.0117 9.6187,7.214 10.821,4.8093 13.226,12.023s14.428,7.214-4.8095,1.2023c-19.237-6.0117-668.5-9.6187-668.5-9.6187l30.058-15.63 22.844-2.4047 14.428-9.6187 16.833-7.214 18.035-10.821 10.821,1.2023 22.844-7.214 12.023-4.8094 6.0117-6.0117 16.833-9.6187 7.2139-3.607 12.023-9.6187 8.4162-1.2023v-8.4164l7.2141-3.607 10.821-7.214 15.63-4.8093 12.023-7.214 12.023-4.8093z"/>
<path fill="#72422c" d="m2310.7-324.12 5.1011-26.658 15.303-8.5018 10.202-5.1011 20.404-8.5018 18.704,3.4007 17.004,6.8014 20.404,1.7004 22.105,11.903 32.307,3.4007 18.704,18.156 20.404,13.603z"/>
<path fill="#47241d" d="m2140.8-440.45v4.6398l3.2728,1.8642 30.614,1.6985 15.286-1.6985 11.931,3.397 20.382,3.397 11.889,1.6985h18.725s8.4812,1.7022 18.683-1.6985 6.8354,0 6.8354,0l16.985,3.397h25.519s25.511-1.6966 32.313-3.397c6.8014-1.7004 10.191-3.397 10.191-3.397l30.614,8.4925 23.779-5.0955s13.611,1.6929 30.614,6.794c11.188,3.3565 19.407-1.3768 23.738-5.0126l-6.7526-1.2428-1.7814-2.6513-322.84-11.185z"/>
<path fill="#47241d" d="m2090.3-402.59-8.9481,3.5627 10.025,4.1841 18.683,5.0955h27.217l40.805-3.397 18.683,5.0955h11.931l27.176-1.6985 17.026,5.0955h42.504l16.985-3.397 23.82,1.6985 35.71,8.4924 16.985,3.4384 22.122-1.7399 20.423-5.0955 22.08,3.397 20.423-1.6985 11.889,1.6985 20.423,1.6985h15.286l24.152-.9943-.9528-.1657-10.812-4.8055-.7043-.58-21.873-3.6455-421.06-16.239z"/>
<path fill="url(#linearGradient12426)" d="m2199.2-503.96-.8286,19.181-.082,23.116 196.73,15.825h44.741l-.3315-14.209s-6.8178-11.456-8.4925-17.813c-.5774-2.1921-1.0269-4.8434-1.3671-7.7053-1.8727,.44-6.5738,1.4499-9.2796,1.4499h-11.889s-15.324-6.8137-18.725-7.6639c-3.4008-.8502-5.9382-.8483-11.889-1.6985-5.9514-.8502-15.328-.8285-15.328-.8285 .0001,0-11.905-.8483-16.156-1.6985-4.2509-.8502-10.205,.8502-16.156,0-5.9512-.8502-14.448-.8464-22.95-3.397-8.5019-2.5505-21.244,3.3772-28.046,2.527-6.8014-.8502-16.985-6.794-16.985-6.794s-12.754,4.2669-17.855,4.2669-21.252-1.6985-21.252-1.6985l-23.862-2.8584z"/>
<path fill="#28170b" d="m2377.9-536.77-.082,2.4856 .8285,7.6639v11.89l.8699-2.527 1.6984-5.0955v-8.5339l-1.6984-4.2255 .083-.1657c-.664-.0419-1.3307-.4183-1.6985-1.4914z"/>
<path fill="url(#linearGradient12428)" d="m2262.1-617.26 .9114,8.161v13.629l1.6984,11.889-1.6984,23.82 5.0955,23.779-1.6985-15.286 6.7938-13.629-5.0953-32.271-1.6985-10.232 .497-6.3383c-.066-.021-.1412-.0199-.2072-.0414-1.7721-.5805-3.2102-1.9978-4.5982-3.4798z"/>
<path fill="url(#linearGradient12430)" color="#000" d="m2224.9-613.91c-.1829,.1621-.4081,.2948-.6215,.4143-.2008,.1125-.4052,.2174-.6214,.29l1.2842,8.451v.0414l1.6986,8.3682-2.5271,12.635v17.109l-1.6984,10.978 1.2843,.2071 1.6983-11.061 .042-.0414v-17.068l2.527-12.635 .042-.1243-.042-.1243-1.6985-8.4925-1.367-8.9481z"/>
</g>
<g transform="translate(-438)">
<path fill="#4b2c26" d="m1119.4,462.11 1.8475-125.31 12.93-4.9141 3.6942-19.656 12.931-2.457 20.32-29.484h29.556l64.654,7.371 9.2362,17.199 9.2367,7.3711 11.083,17.199 7.3893,17.199 3.6944,24.57v93.368z"/>
<path fill="url(#linearGradient12432)" d="m1030.8,534.84 41.255-27.621 17.044-20.844 13.016-5.3697 17.353-19.877 187.44-7.3712 32.679,23.48 17.886,20.366 39.087,27.408c-133.68,7.9259-242.09,9.6167-365.76,9.8281z"/>
<path fill="url(#linearGradient12434)" d="m1238,417.18-18.697,6.6776h-10.684l-13.401,2.671-8.0132-5.3421-9.3486,5.3421-20.033-2.671c-5.3464,0-14.734-1.3355-18.743-1.3355h-12.02l-7.0461-1.75-.5988,41.355 186.6,2.4408v-38.776l-3.8685-1.9342-8.0128-5.3421-28.046,6.6776-28.092-8.0131z"/>
<path fill="#47241d" d="m1327.5,468.58-215.71,1.2434-4.6052,5.296 5.4341,1.2434 14.783-.6447 22.013-2.8552 10.224,2.3487 6.4934-.3224 14.644-1.5658 9.3487,2.3487 23.026-1.0132 9.1184-2.2105 12.987,.3224 19.526,3.7763 9.3027,1.4276 11.928-1.4737 10.96-3.2237 12.02,1.2895 11.052-1.3816 6.4474,.5987 11.099,.4605 7.2762-.3224-7.3683-5.3421z"/>
<path fill="#47241d" d="m1085.8,490.4-2.9933,3.6381 25.513,.921 14.23-1.0132 11.099,1.9802 18.974,1.9803 11.099,.9671h17.408s7.906,.9973 17.408-.9671c9.5014-1.9644 6.3549,0 6.3549,0l15.842,1.9342h23.763s23.784-.952 30.118-1.9342c6.3341-.9822 9.4867-1.9803 9.4866-1.9803l28.506,4.9276 22.151-2.9473s12.67,.9678 28.506,3.9144c.095,.0176 .1822,.0292 .2763,.0461l-6.1251-4.2829-1.1971-1.3816-270.42-5.8026z"/>
<path fill="#47241d" d="m1153.6,305.78-2.7631,4.0066-.3224,.0461-.1842,2.3487 1.8881,10.408 .967,7.5526 .9211,16.072v28.368l2.8552,9.4407 1.8881-11.329 .9212-17.96-3.7762-23.625 1.888-12.296-.9211-4.7434-3.3617-8.2894z"/>
</g>
<g transform="translate(-336)">
<path fill="#4b2c26" d="m2246.7,386.21 .1152-25.69 4.5636-107.19s4.5272-4.2246 5.9948-6.8926c2.6283-4.7776-.5733-14.131 4.678-15.675 4.0155-1.1811 .4753-9.3004 3.6658-12.01 2.5329-2.1509 6.9807,.2963 9.8802-1.3268 2.9191-1.634 3.0404-7.2237 6.3391-7.7804 9.3361-1.5756 20.696-1.4638 28.019-1.5659 5.2116-.0727 7.8392,7.37 12.792,8.9924 8.6025,2.8178 18.221,2.0328 27.151,.5536 5.1272-.8492 9.5167-4.5359 14.653-5.3267 11.002-1.6938 22.655-1.5939 33.366,1.4414 5.2701,1.4935 9.3394,5.7937 14.349,8.0097 7.4718,3.3053 21.995-.3209 23.236,7.8 4.4943,29.411 4.2916,57.355 4.2916,57.355l2.5271,.3839 .068-1.7983 3.9016,.0779c1.2242,2.7837-.8536,13.827-.026,16.861 .9063,3.3222 4.0292,1.6116 4.2757,.8115l.968-3.4396 7.3215,1.9705 3.3753,3.9403-.6779,7.9999 12.692,6.5506 5.4363-1.5581 1.0935-70.782 2.5725-3.2613 7.3316-.0111 2.5268,57.468 4.6999,8.5944-.1355,13.606 4.9084,5.182s-.6205,26.197 2.6732,38.702c1.8618,7.0677 9.461,19.78 9.461,19.78l.4389,19.79z"/>
<path fill="url(#linearGradient12436)" d="m2512.8,402.41 13.366,4.0098 9.3561,6.6829 8.0196,12.029 14.702,2.6732 1.3367,10.693 8.0194,4.0098 16.039,10.693 28.068,14.702 8.0194,6.6829 12.029,5.3464 8.0196,1.3366 12.029,5.3464 17.376,4.0098 4.0098,6.683 10.693,8.0195 12.029,5.3464 14.703,13.366s16.039,8.0195-5.3465,1.3366c-21.385-6.6829-743.14-10.693-743.14-10.693l33.415-17.376 25.395-2.6732 16.039-10.693 18.712-8.0195 20.049-12.029 12.029,1.3366 25.395-8.0195 13.366-5.3464 6.683-6.6829 18.712-10.693 8.0194-4.0098 13.366-10.693 9.356-1.3366v-9.3561l8.0196-4.0098 12.029-8.0195 17.376-5.3464 13.366-8.0195 13.366-5.3463z"/>
<path fill="#72422c" d="m2371.5,539.09 5.6707-29.634 17.012-9.4511 11.341-5.6707 22.683-9.4511 20.793,3.7804 18.902,7.5609 22.683,1.8902 24.573,13.232 35.914,3.7804 20.792,20.183 22.683,15.122z"/>
<path fill="#47241d" d="m2182.7,409.77v5.1579l3.6382,2.0724 34.033,1.8882 16.993-1.8882 13.263,3.7763 22.658,3.7763 13.217,1.8882h20.816s9.4282,1.8923 20.77-1.8882c11.341-3.7804 7.5986,0 7.5986,0l18.882,3.7763h28.368s28.36-1.8861 35.921-3.7763c7.5608-1.8902 11.329-3.7763 11.329-3.7763l34.033,9.4407 26.434-5.6644s15.13,1.8819 34.033,7.5526c12.437,3.7312 21.574-1.5305 26.388-5.5723l-7.5066-1.3816-1.9803-2.9473-358.89-12.434z"/>
<path fill="#47241d" d="m2126.5,451.86-9.9472,3.9605 11.145,4.6513 20.77,5.6644h30.256l45.362-3.7763 20.77,5.6644h13.263l30.21-1.8881 18.928,5.6644h47.25l18.881-3.7763 26.48,1.8882 39.697,9.4407 18.881,3.8224 24.592-1.9342 22.704-5.6644 24.546,3.7763 22.704-1.8881 13.217,1.8881 22.704,1.8882h16.993l26.848-1.1053-1.0592-.1842-12.02-5.3421-.783-.6447-24.316-4.0526-468.08-18.053z"/>
<path fill="url(#linearGradient12438)" d="m2247.7,339.17-.9212,21.322-.091,25.697 218.7,17.592h49.737l-.3685-15.796s-7.5791-12.735-9.4408-19.802c-.6419-2.4368-1.1416-5.3842-1.5198-8.5657-2.0818,.4891-7.3078,1.6118-10.316,1.6118h-13.217s-17.035-7.5746-20.816-8.5197c-3.7806-.9451-6.6013-.943-13.217-1.8881-6.6159-.9451-17.04-.921-17.04-.921 .0001,0-13.235-.943-17.96-1.8881-4.7255-.9451-11.345,.9451-17.96,0-6.6157-.9451-16.062-.9409-25.513-3.7763-9.4512-2.8353-23.617,3.7543-31.177,2.8092-7.5608-.9451-18.882-7.5526-18.882-7.5526s-14.178,4.7434-19.848,4.7434c-5.6706,0-23.625-1.8882-23.625-1.8882l-26.526-3.1776z"/>
<path fill="#28170b" d="m2446.3,302.7-.091,2.7631 .921,8.5197v13.217l.967-2.8092 1.8881-5.6644v-9.4868l-1.8881-4.6973 .092-.1842c-.7381-.0466-1.4793-.465-1.8882-1.6579z"/>
<path fill="url(#linearGradient12440)" d="m2317.6,213.22 1.0132,9.0723v15.151l1.888,13.217-1.888,26.48 5.6645,26.434-1.8882-16.993 7.5524-15.151-5.6642-35.875-1.8882-11.375 .5525-7.046c-.073-.0233-.157-.0221-.2303-.046-1.97-.6453-3.5687-2.2209-5.1117-3.8684z"/>
<path fill="url(#linearGradient12442)" color="#000" d="m2276.2,216.95c-.2033,.1802-.4537,.3278-.6909,.4605-.2232,.125-.4504,.2417-.6908,.3224l1.4276,9.3947v.046l1.8883,9.3026-2.8093,14.046v19.019l-1.888,12.204 1.4277,.2303 1.8879-12.296 .047-.046v-18.973l2.8092-14.046 .047-.1382-.047-.1381-1.8882-9.4407-1.5196-9.9473z"/>
</g>
<path fill="url(#linearGradient12444)" d="m3892.1,1092-3946.2,9.4-5.164-568.74 1830.5-28.2 2110.5,42.3z"/>
<path fill="#78381e" d="m-74.656,1027.6 3951.3,7.2092 5.1922-436.16s-131.15,25.599-263.84,27.632c-131.58,2.0163-396.43-34.859-528.03-35.884-142.69-1.1107-285.43,28.667-428.06,24.952-126.85-3.3037-217.21,13.192-343.64,3.0242-77.671-6.246-191.32-41.72-269.28-41.353-73.239,.3447-140.96,43.179-213.83,50.184-52.394,5.0366-109.93-25.797-162.49-23.086-112.66,5.8116-210.05,40.715-322.88,43.839-89.76,2.4852-194.94-26.444-284.72-24.87-178.24,3.1255-356.58,4.7883-534.82,2.0644-101.21-1.5466-202.25-7.7968-303.42-10.45-96.998-2.5433-291.07-5.2409-291.07-5.2409z"/>
<path fill="url(#linearGradient12446)" d="m3892.1,1089.6-3951.3,7.2092-5.1922-436.16s264.55,20.468 397.24,22.502c131.58,2.0163 263.03-9.206 394.63-10.23 142.69-1.1107 285.43,8.1445 428.06,4.4299 204.78-5.3332 408.05-39.293 612.92-38.329 125.9,.5926 250.66,20.616 376.32,27.098 202.29,10.435 404.97,15.416 607.6,18.969 178.24,3.1255 356.58,4.7883 534.82,2.0644 101.21-1.5466 202.25-7.7968 303.42-10.45 96.998-2.5433 291.07-5.2409 291.07-5.2409z"/>
<g transform="matrix(.86656 0 0 .86656 7.5667 144.26)">
<path fill="url(#linearGradient12448)" d="m3851.9,663.55s-74.915-5.5773-112.45-6.6933c-12.043-.3581-24.132,.9363-36.144,0-22.966-1.7903-45.287-9.1742-68.272-10.709-20.04-1.3384-40.155,1.2829-60.24,1.3387-26.777,.0743-53.552-.629-80.319-1.3387-24.55-.6509-49.102-1.3861-73.626-2.6773-25.906-1.364-51.792-3.1712-77.642-5.3546-22.343-1.8871-44.554-5.293-66.933-6.6933-35.194-2.2021-70.537-.8782-105.75-2.6773-23.242-1.1873-46.389-3.8284-69.61-5.3546-24.526-1.612-49.086-2.6522-73.626-4.016-23.651-1.3144-47.751-8.8044-70.949-4.016-7.8174,1.6136-13.685,8.7318-21.418,10.709-11.68,2.9867-24.102,.7395-36.144,1.3387-7.1447,.3555-14.288,.7596-21.419,1.3387-8.9396,.7261-18.204,.0311-26.773,2.6773-5.3423,1.6496-12.359,2.9663-14.725,8.032-1.926,4.1229 .056,9.6669 2.6774,13.387 2.9976,4.2536 11.395,3.2243 13.387,8.032 1.4081,3.3995-2.324,7.0466-2.6774,10.709-.8155,8.4506-3.3132,18.332 1.3386,25.435 2.1869,3.3387 6.8754,4.2453 10.709,5.3546 4.3078,1.2464 9.3341-.5817 13.387,1.3387 2.281,1.0809 4.3115,3.056 5.3546,5.3546 2.7719,6.1087 3.0677,13.598 1.3386,20.08-.8295,3.109-5.444,4.8154-5.3546,8.0319 .1231,4.4605 5.4548,7.0666 8.032,10.709 1.8585,2.6268 3.0994,5.7368 5.3546,8.0319 4.9448,5.0325 11.612,8.017 17.403,12.048 4.4702,3.112 11.894,4.1323 13.387,9.3706 .9314,3.2682-1.8965,6.7142-4.016,9.3706-3.7854,4.7442-10.628,6.2323-14.725,10.709-5.2703,5.7578-11.48,12.295-12.048,20.08-.4221,5.7855 3.4654,11.244 6.6932,16.064 2.1069,3.146 5.4594,5.2539 8.032,8.032 2.7951,3.0185 5.1029,6.4819 8.032,9.3706 2.4814,2.4472 7.3185,3.282 8.032,6.6933 .8172,3.9066-5.8904,6.7542-5.3548,10.709 .8055,5.949 11.242,7.4376 12.048,13.387 .4016,2.9663-4.6289,5.102-4.016,8.032 .7136,3.4113 5.9495,3.8989 8.032,6.6933 2.0307,2.7248 3.0604,6.1094 4.016,9.3706 .7631,2.6047 1.6632,5.3372 1.3386,8.032-.8128,6.7478-6.6654,12.083-8.032,18.741-.4486,2.1855 0,6.6933 0,6.6933l-4.016,120.48 926.35-14.725z"/>
<path fill="url(#linearGradient12450)" d="m2962.5,680.88c-3.2379,6.2579 5.6141,12.958 7.6612,19.7 .9772,3.2184 2.6924,6.5246 2.1889,9.8502-.4401,2.9081-4.174,4.727-4.3777,7.6612-.2722,3.9198 4.3351,7.0156 4.3777,10.945 .034,3.1168-3.2257,5.6392-3.2834,8.7557-.063,3.4604 2.5749,6.4625 3.2834,9.8501 .8252,3.9442-1.4072,8.8802 1.0945,12.039 4.2977,5.4262 12.868,5.458 19.7,6.5668 3.241,.5259 7.0971-1.7892 9.8502,0 3.0127,1.9579 3.3845,6.3971 4.3777,9.8502 1.4261,4.9583 3.0153,10.23 2.1889,15.322-.1303,.8052-.7383,1.455-1.0944,2.1889-2.9922,6.1668-5.8603,12.393-8.7557,18.606-2.2066,4.7345-5.6429,9.0869-6.5667,14.228-.8414,4.6817 4.1033,10.544 1.0944,14.228-1.8605,2.2781-6.3545-.6043-8.7556,1.0945-2.6637,1.8846-3.2135,5.7075-4.378,8.7557-1.4845,3.8856-3.7557,7.9064-3.2832,12.039 .612,5.3516 3.7951,10.477 7.6612,14.228 5.2694,5.1123 15.84,3.6048 19.7,9.8501 2.3017,3.724 0,8.7557 0,13.134 0,2.5538 .024,5.1075 0,7.6612-.1834,23.715-1.0945,71.14-1.0945,71.14l157.6-4.3778-7.6612-286.75s-13.865,1.4849-20.795,1.0945c-4.4313-.2497-8.7417-1.5487-13.134-2.1889-8.7316-1.2728-17.444-3.4082-26.267-3.2834-4.7978,.0678-9.4379,1.9055-14.228,2.1889-10.568,.6252-21.283,.5543-31.74-1.0944-5.247-.8273-10.019-4.0775-15.322-4.3779-6.647-.3764-13.051,2.9554-19.7,3.2834-5.4778,.2702-11.035-.0362-16.417-1.0945-5.66-1.113-10.653-5.2509-16.417-5.4723-6.0123-.231-14.746-.966-17.511,4.3778z"/>
<path fill="url(#linearGradient12452)" d="m3098.2,998.02 3.9043-88.85 19.521-23.425 11.713-11.713v-23.425l19.521-19.521v-7.8084l-3.9043-23.425 3.9043-17.569 3.9041-13.665-15.617-25.377-9.7606-15.617 3.9043-19.521-7.8084-19.521 19.521,1.9522 21.473-3.9043 23.425-7.8084 29.282,9.7606 54.659,1.9522 33.186,11.713 50.755-1.9522 31.234,1.9522h44.898l23.425,1.9519h37.09l23.425-3.9041 68.324,1.9522 39.042,9.7604 25.377-1.9519 29.282-5.8565 33.186,3.9043 15.617,307.49z"/>
<path fill="url(#linearGradient12454)" d="m3626.8,988.6-5.8066-53.194 4.3549-18.871 4.3549-15.968 2.9033-8.7098 7.258-13.064 2.9033-21.774 13.064-17.419s4.3549-5.8065-2.9031-10.161c-7.2582-4.3549-15.968-8.7098-15.968-8.7098l-10.161-5.8064-1.4517-24.678v-18.871l13.065-10.161 5.8065-4.3549 1.4516-10.161-2.9032-8.7098-20.323-14.516-18.871-13.064 11.613-5.8067h18.871l17.42-7.258 13.064-5.8064 21.774-7.2582 24.678-2.9031 21.774,10.161 26.129-1.4516 21.774,7.258 20.323,2.9033 27.581,10.161 15.968,4.3549h45l-2.9033,295.61z"/>
<path opacity=".5" d="m3132.3,709.21 16.216,21.622 35.136,24.325 32.433-5.4056h40.541l24.325,13.514 24.325-8.1081 27.028,18.919 32.433-5.4054 35.136-13.514 27.028-16.217 29.73,24.325 21.622,2.7028 24.325-24.325 27.027,8.1081v27.027l-16.216,21.622 13.514,13.514 32.433-8.1083 37.838-18.919 5.4055-2.7029-18.919,27.028-40.541,32.433-10.811,16.217-35.136,29.73-13.514,16.217 2.7029,85.892 377.38,40.541 12.506-329.14z"/>
<path opacity=".5" stroke="#000" stroke-width="2.699" d="m2846.3,658.25-1.75,2.625c-3.7316,1.2458-7.2429,2.9255-8.7813,6.2188-1.926,4.1229 .066,9.6553 2.6875,13.375 1.7509,2.4846 5.3234,3.1855 8.4062,4.2812l5.2813,5.2812c.057,2.952-2.6679,6.0699-2.9687,9.1875-.8156,8.4506-3.3394,18.335 1.3124,25.438 2.187,3.3387 6.8848,4.2344 10.719,5.3438 4.3078,1.2464 9.3225-.5766 13.375,1.3438 2.281,1.0809 4.3319,3.0451 5.375,5.3438 2.7719,6.1087 3.0727,13.612 1.3438,20.094-.8296,3.109-5.4645,4.8148-5.375,8.0312 .123,4.4605 5.454,7.0761 8.0312,10.719 1.8585,2.6268 3.1198,5.7361 5.375,8.0312 4.9448,5.0325 11.616,8.0003 17.406,12.031 4.4703,3.112 11.882,4.1367 13.375,9.375 .9314,3.2682-1.9117,6.7186-4.0312,9.375-3.7854,4.7442-10.621,6.2417-14.719,10.719-5.2702,5.7578-11.463,12.278-12.031,20.062-.4221,5.7855 3.4597,11.243 6.6875,16.062 2.1069,3.146 5.4587,5.2532 8.0313,8.0312 2.795,3.0185 5.1021,6.4863 8.0312,9.375 2.4814,2.4472 7.3178,3.2762 8.0312,6.6875 .8172,3.9066-5.8793,6.7637-5.3437,10.719 .8055,5.949 11.226,7.426 12.031,13.375 .1939,1.4322-.8805,2.6785-1.9688,3.9062 17.554,19.005 31.935,35.526 35.219,42.094 9.7923,19.585 1.9858,42.781-9.8126,58.75-5.3289,7.2125-19.22,4.4836-24.062,12.031-8.6731,13.518-11.347,35.372-1.625,48.156 10.592,13.929 33.639,10.384 51.031,12.312 132.32,14.672 270.61,27.599 399.34-6.3438 14.861-3.9184 27.202-14.336 40.469-22.094 13.286-7.769 27.556-14.354 39.156-24.469 9.6103-8.3794 23.633-16.654 24.5-29.375 1.0466-15.361-11.466-30.961-24.5-39.156-25.022-15.732-58.824-5.9318-88.125-9.8125-21.282-2.8187-42.251-8.1463-63.656-9.7812-17.896-1.3669-45.375,15.824-53.844,0-8.3293-15.563 12.066-40.596 29.375-44.062 11.535-2.31 17.96,16.719 29.375,19.562 15.917,3.9652 33.314,.0249 48.969-4.875 16.038-5.0199 29.057-16.934 44.062-24.5 17.603-8.8756 51.295-4.9199 53.844-24.469 2.9982-22.997-51.409-20.999-53.844-44.062-1.098-10.399 11.647-17.703 19.594-24.5 9.9914-8.546 23.801-11.583 34.25-19.562 5.5027-4.2021 14.687-14.688 14.687-14.688l73.469,4.875s14.417,32.638 29.375,34.281c24.333,2.6729 58.75-44.062 58.75-44.062l19.562-39.156h-141.97l-215.44,4.875z" transform="translate(0 -27.638)"/>
<path opacity=".5" d="m3510,733.53 114.28,3.6279 221.3,3.6279 7.2558,34.465-30.837,1.814-19.954,12.698-41.721-1.814-10.884-5.4419-25.395-7.2558-36.279,5.4419-34.465,5.4419-39.907-10.884h-34.465l-41.721-9.0698z" transform="translate(0 -27.638)"/>
<path fill="url(#linearGradient12456)" d="m3248.5,626.33 20.895,17.312 17.896-3.8847 24.193,1.9172 23.766-7.2073 20.895,17.312 30.632,10.76 34.64,10.573 12.452,8.562 43.653,27.096 16.034-.7495 34.925,16.656 17.469-13.009 17.754-6.9259 18.891,17.405 24.335,4.9587 28.201,1.7298 36.36,4.3962 36.36,4.3966 32.067-1.499 34.214,1.4487 45.243-16.011 36.36,4.3962-2.2611-91.336-108.09,8.1008s-20.042,.9369-38.507-7.344c-18.464-8.2813-35.934,4.7276-45.955,5.1961-10.021,.4685-36.218-1.3547-36.218-1.3547s-7.4481,12.54-31.783,7.5817c-24.335-4.9584-16.46-8.3746-30.49-7.7188-14.03,.6558-20.326-5.1461-36.36-4.3966-16.034,.7495-31.925,4.5406-31.925,4.5406l-32.636-10.667s-29.352,16.612-37.653,10.904c-8.3012-5.7079-24.477-7.9999-24.477-7.9999l-30.063,1.4054-34.214-1.4488-23.908,4.1658z"/>
<path fill="url(#linearGradient12458)" d="m2849.7,631.22h30.568l10.917-6.5503h30.568l19.651-13.101 32.752,10.917h30.568l17.468-6.5503 17.468,4.367 24.018-2.1835h21.835l28.385,6.5503 28.385-4.3668 21.834,8.7338 26.202,2.1833h131l69.871,10.917 30.569,6.5506 21.835-4.367 19.651,6.5503 24.018,6.5506 13.101,4.3668 17.468,10.917 10.917,4.367 15.284,4.3668 17.468,6.5503 10.917,8.7338 6.5503,26.202-32.752,2.1833-21.835-8.7338-50.22-21.834-8.7338,2.1833-6.5504,21.835-30.568,8.7338-37.119,2.1835-39.302-8.7338z"/>
<path fill="url(#linearGradient12460)" d="m2855.9,666.08-19.921-19.921 11.384-17.075h34.151l42.688,5.6918 8.5378,5.6918 11.384-11.384 56.918,11.384 34.151,8.5378 19.922-2.846 45.534,5.6918 42.688-5.6918 22.767,17.076 39.843,2.8458 39.843,11.384 28.459,19.921 36.996,11.384 39.843,5.6918 31.305,8.5378s-17.075,8.5378-28.459,8.5378-65.456-11.384-65.456-11.384-36.997-8.5378-48.38-8.5378c-11.384,0-34.151,2.8458-48.38,2.8458-14.23,0-65.456-19.921-65.456-19.921l-19.921,14.23-31.305-2.8458-48.38,8.5375-42.688-5.6918-28.459-5.6918-39.842-2.846-22.767,2.846-31.305-2.846z"/>
<path fill="url(#linearGradient12462)" d="m3488.8,684.94 23.088,2.5653 35.914,2.5653 46.176-7.696 48.741,17.957h82.09l41.045,7.696-2.5653,15.392s-7.696-2.5653-20.523-2.5653c-12.826,0-41.045-10.261-41.045-10.261l-25.653,2.5653s-2.5653,5.1306-15.392,5.1306h-51.306l-41.045,5.1306-94.917-20.523z" transform="translate(0 -27.638)"/>
</g>
<path fill="url(#linearGradient12464)" d="m3859.9,610.76s-82.491-6.1413-123.82-7.3702c-13.26-.3943-26.573,1.031-39.799,0-25.288-1.9714-49.867-10.102-75.176-11.792-22.067-1.4738-44.216,1.4126-66.332,1.474-29.485,.0819-58.968-.6926-88.442-1.474-27.032-.7167-54.068-1.5263-81.072-2.9481-28.526-1.5019-57.03-3.492-85.494-5.8962-24.602-2.078-49.06-5.8283-73.702-7.3702-38.753-2.4248-77.671-.967-116.45-2.9481-25.592-1.3074-51.08-4.2155-76.65-5.8962-27.006-1.775-54.05-2.9204-81.072-4.4221-26.043-1.4473-52.58-9.6948-78.124-4.4221-8.6079,1.7768-15.069,9.6149-23.584,11.792-12.862,3.2887-26.54,.8143-39.799,1.474-7.8673,.3915-15.734,.8364-23.585,1.474-9.8437,.7995-20.044,.0343-29.481,2.9481-5.8826,1.8165-13.609,3.2663-16.214,8.8442-2.1208,4.5399 .062,10.645 2.9482,14.74 3.3008,4.6838 12.548,3.5504 14.74,8.8442 1.5505,3.7433-2.559,7.7593-2.9482,11.792-.8979,9.3053-3.6482,20.186 1.474,28.007 2.4081,3.6764 7.5707,4.6746 11.792,5.8962 4.7435,1.3725 10.278-.6406 14.74,1.474 2.5117,1.1902 4.7475,3.3651 5.8961,5.8962 3.0522,6.7264 3.3779,14.974 1.474,22.111-.9134,3.4234-5.9946,5.3024-5.8962,8.8442 .1356,4.9116 6.0064,7.7812 8.8443,11.792 2.0465,2.8924 3.4129,6.3169 5.8961,8.8442 5.4449,5.5414 12.787,8.8277 19.163,13.266 4.9223,3.4267 13.097,4.5502 14.74,10.318 1.0256,3.5987-2.0883,7.3933-4.4222,10.318-4.1682,5.224-11.702,6.8625-16.215,11.792-5.8033,6.3402-12.641,13.538-13.266,22.111-.4647,6.3706 3.8159,12.381 7.3701,17.688 2.32,3.4642 6.0116,5.7852 8.8444,8.8442 3.0776,3.3238 5.6189,7.1374 8.8442,10.318 2.7323,2.6946 8.0586,3.614 8.8443,7.3702 .8999,4.3017-6.4861,7.4373-5.8964,11.792 .887,6.5506 12.38,8.1897 13.266,14.74 .4422,3.2662-5.097,5.618-4.4221,8.8443 .7857,3.7562 6.5512,4.2932 8.8442,7.3702 2.2361,3.0004 3.3699,6.7273 4.4222,10.318 .8402,2.8682 1.8313,5.877 1.474,8.8442-.895,7.4303-7.3396,13.305-8.8444,20.637-.4939,2.4066 0,7.3702 0,7.3702l-4.4221,132.66 1020-16.214z"/>
<path fill="url(#linearGradient12466)" d="m2880.6,629.84c-3.5654,6.8907 6.1818,14.269 8.436,21.693 1.076,3.5439 2.9647,7.1844 2.4103,10.846-.4847,3.2022-4.5961,5.2051-4.8205,8.436-.2997,4.3162 4.7735,7.7251 4.8205,12.051 .038,3.4321-3.552,6.2095-3.6155,9.6412-.07,3.8104 2.8352,7.116 3.6155,10.846 .9085,4.3431-1.5495,9.7783 1.2052,13.257 4.7323,5.975 14.169,6.01 21.693,7.2309 3.5688,.5791 7.8149-1.9701 10.846,0 3.3174,2.1559 3.7268,7.044 4.8205,10.846 1.5703,5.4598 3.3202,11.264 2.4102,16.872-.1435,.8867-.8129,1.6021-1.2051,2.4103-3.2948,6.7904-6.4529,13.646-9.6411,20.487-2.4298,5.2133-6.2136,10.006-7.2309,15.667-.9265,5.1552 4.5183,11.61 1.2051,15.667-2.0486,2.5085-6.9971-.6654-9.6411,1.2051-2.933,2.0752-3.5384,6.2847-4.8207,9.6412-1.6346,4.2786-4.1355,8.706-3.6152,13.257 .6739,5.8928 4.1789,11.537 8.4359,15.667 5.8024,5.6293 17.442,3.9693 21.693,10.846 2.5345,4.1006 0,9.6412 0,14.462 0,2.812 .027,5.6241 0,8.436-.202,26.114-1.2052,78.334-1.2052,78.334l173.54-4.8205-8.436-315.75s-15.267,1.6351-22.898,1.2052c-4.8795-.2749-9.6258-1.7054-14.462-2.4103-9.6146-1.4015-19.208-3.7529-28.924-3.6154-5.283,.0747-10.392,2.0982-15.667,2.4103-11.637,.6884-23.435,.6104-34.949-1.2051-5.7777-.911-11.032-4.4899-16.872-4.8206-7.3193-.4145-14.371,3.2543-21.693,3.6154-6.0318,.2976-12.152-.0399-18.077-1.2052-6.2324-1.2255-11.73-5.782-18.077-6.0257-6.6203-.2543-16.238-1.0637-19.282,4.8206z"/>
<path fill="url(#linearGradient12468)" d="m3030.1,979.06 4.2992-97.836 21.495-25.794 12.897-12.897v-25.794l21.496-21.495v-8.5981l-4.2991-25.794 4.2991-19.346 4.2989-15.047-17.196-27.944-10.748-17.196 4.2991-21.495-8.5981-21.495 21.495,2.1496 23.645-4.2992 25.794-8.5981 32.243,10.748 60.187,2.1496 36.542,12.897 55.888-2.1496 34.392,2.1496h49.439l25.794,2.1494h40.841l25.794-4.2989 75.233,2.1496 42.99,10.747 27.944-2.1494 32.243-6.4487 36.542,4.2992 17.196,338.58z"/>
<path fill="url(#linearGradient12470)" d="m3612.1,968.69-6.3939-58.574 4.7953-20.78 4.7954-17.583 3.1969-9.5906 7.992-14.386 3.1969-23.977 14.386-19.181s4.7953-6.3937-3.1966-11.189c-7.9922-4.7953-17.583-9.5906-17.583-9.5906l-11.189-6.3937-1.5986-27.173v-20.78l14.386-11.189 6.3937-4.7953 1.5985-11.189-3.1969-9.5906-22.378-15.984-20.78-14.386 12.787-6.3939h20.78l19.181-7.992 14.386-6.3937 23.977-7.9923 27.173-3.1967 23.976,11.189 28.772-1.5984 23.977,7.992 22.378,3.197 30.37,11.189 17.583,4.7953h49.552l-3.197,325.51z"/>
<path opacity=".5" d="m3067.5,661.03 17.856,23.808 38.689,26.785 35.713-5.9523h44.641l26.785,14.88 26.785-8.928 29.761,20.832 35.713-5.9521 38.689-14.88 29.761-17.857 32.737,26.785 23.809,2.9761 26.785-26.785 29.761,8.9281v29.761l-17.856,23.809 14.88,14.88 35.713-8.9283 41.665-20.832 5.9522-2.9762-20.832,29.761-44.641,35.713-11.904,17.857-38.689,32.737-14.88,17.857 2.9763,94.579 415.54,44.641 13.77-362.43z"/>
<path opacity=".5" stroke="#000" stroke-width="2.972" d="m2752.7,574.49-1.927,2.8905c-4.1089,1.3718-7.9754,3.2214-9.6693,6.8477-2.1208,4.5398 .073,10.632 2.9592,14.728 1.928,2.7359 5.8619,3.5076 9.2564,4.7142l5.8155,5.8154c.062,3.2505-2.9378,6.6838-3.269,10.117-.8981,9.3053-3.6771,20.19 1.4451,28.01 2.4082,3.6764 7.5811,4.6627 11.803,5.8842 4.7434,1.3725 10.265-.635 14.728,1.4796 2.5117,1.1902 4.77,3.3531 5.9187,5.8842 3.0521,6.7264 3.3834,14.989 1.4796,22.126-.9135,3.4234-6.0171,5.3017-5.9185,8.8435 .1354,4.9116 6.0055,7.7917 8.8434,11.803 2.0464,2.8924 3.4352,6.3162 5.9185,8.8435 5.4449,5.5414 12.79,8.8093 19.166,13.248 4.9224,3.4267 13.084,4.5551 14.728,10.323 1.0256,3.5987-2.105,7.3981-4.4389,10.323-4.1682,5.224-11.695,6.873-16.207,11.803-5.8032,6.3402-12.623,13.519-13.248,22.091-.4647,6.3706 3.8097,12.38 7.3639,17.687 2.3199,3.4642 6.0107,5.7844 8.8435,8.8435 3.0776,3.3238 5.618,7.1422 8.8434,10.323 2.7324,2.6946 8.0578,3.6076 8.8434,7.3638 .8999,4.3017-6.4739,7.4477-5.8842,11.803 .8871,6.5506 12.361,8.177 13.248,14.728 .2135,1.5771-.9695,2.9494-2.1679,4.3013 19.329,20.927 35.164,39.119 38.781,46.351 10.782,21.566 2.1865,47.108-10.805,64.691-5.8679,7.9419-21.164,4.937-26.496,13.248-9.5502,14.885-12.495,38.949-1.7893,53.026 11.663,15.337 37.041,11.434 56.192,13.558 145.7,16.156 297.98,30.39 439.73-6.9853 16.364-4.3147 29.952-15.786 44.561-24.328 14.63-8.5547 30.342-15.806 43.116-26.943 10.582-9.2268 26.023-18.338 26.978-32.346 1.1523-16.914-12.626-34.092-26.978-43.116-27.552-17.323-64.773-6.5317-97.037-10.805-23.434-3.1037-46.524-8.9701-70.094-10.77-19.706-1.5051-49.964,17.425-59.289,0-9.1716-17.137 13.287-44.702 32.346-48.519 12.702-2.5436 19.776,18.41 32.346,21.541 17.527,4.3661 36.683,.0274 53.921-5.368 17.66-5.5276 31.995-18.647 48.519-26.978 19.384-9.7732 56.483-5.4175 59.289-26.943 3.3014-25.323-56.608-23.123-59.289-48.519-1.209-11.451 12.825-19.493 21.575-26.978 11.002-9.4102 26.208-12.754 37.714-21.541 6.0592-4.6271 16.173-16.173 16.173-16.173l80.899,5.368s15.874,35.939 32.346,37.748c26.794,2.9432 64.692-48.519 64.692-48.519l21.541-43.116h-156.33l-237.23,5.368z"/>
<path fill="url(#radialGradient12472)" d="m1010.3,543.81-10.031,.1562c-.5835,2.7365-.7133,5.6675-.1562,8.6562 .6681,2.9593 2.2851,5.6157 4.625,7.5312 2.4274,1.899 5.1147,3.0045 7.6562,3.6562 6.1737,1.6574 12.274,1.8722 17.906,2.4375 19.874,5.0413 28.98,18.266 6.6563,22.688-20.574,3.3335-45.413,8.361-53,19.938 .4862,6.37 9.1904,9.0778 12.281,12.312 47.94,20.62 83.774,31.147 133.53,45.094 21.791,6.0356 43.411,12.375 63.812,20.906 17.102,6.912 38.878,5.9034 46.656,28.031 8.9435,50.111 35.636,49.967 101.5,60.656 32.817,5.3533 61.915,4.236 92.781,13.281 1.1837,.3251 5.7723,7.2955 6.0938,8.25 1.1115,1.6855 1.6284,4.9523 2.8437,9.2812 1.1349,4.8524 2.8964,10.393 6,16.125 9.4057,14.518 24.23,20.687 39.406,24.25 32.54,5.0974 66.752,17.834 92.5,31.719-.037,.0683-1.4346,.405-15.875,2.0938-4.9294,1.0598-10.278,2.5278-15.813,4.9375-4.634,1.7824-9.7847,5.2624-14.625,10.844-4.0717,5.9206-5.4265,12.056-4.25,17.656 1.2123,5.3856 3.004,9.323 4.7188,11.844 .8687,8.0186 2.0115,14.501-5.4062,16.062-113.29,27.445-167.71,33.128-330.12,97.937-28.763,13.514-135.49,64.603-163.22,80.469-.9652,1.964-1.9166,3.9101-2.875,5.875l87.5-.2188c30.639-18.694 72.274-22.264 104.5-38.219 111.97-48.99 245.62-76.187 308.16-108.88 18.786-4.9244 29.413-14.761 36.031-21.781 4.1312-5.4075 5.9323-11.596 5.3437-17.969-.8686-5.8925-2.5675-10.252-4.4374-13.156-6.5414-34.478 51.026-25.312 55.219-32.438 4.996-22.446-16.824-31.977-32.375-39.344-51.457-22.42-81.615-19.562-116.34-37.594-3.0716-1.6298-5.8478-3.8891-7.3438-6.5625-1.5308-2.2948-2.4469-5.92-3.7188-10.219-.8982-3.7816-2.2873-8.8714-5.3437-14.688-3.832-6.4529-9.6883-10.984-16.625-12.938-67.077-11.331-170.81-25.687-182.47-33.812-11.661-8.1252-6.5773-28.959-15.594-37.625-15.775-13.926-27.716-13.299-46.219-20.5-21.738-8.521-47.602-18.372-69.687-23.969-49.418-12.299-78.198-21.797-124.53-40.469 0,0-11.721-2.6486-4.625-11.906 19.737-3.4286 33.195-2.4378 51.875-12.469 1.6787-.8749 3.4754-2.2851 5.1563-4.4062 5.6318-9.5237-7.7728-19.046-14.438-22.969-12.268-7.2117-38.838-1.7444-33.625-20.562z" transform="translate(0 -27.638)"/>
<path fill="#cb7440" filter="url(#filter10778)" d="m1010.3,543.81-10.031,.1562c-.5835,2.7365-.7133,5.6675-.1562,8.6562 .6681,2.9593 2.2851,5.6157 4.625,7.5312 2.4274,1.899 5.1147,3.0045 7.6562,3.6562 6.1737,1.6574 12.274,1.8722 17.906,2.4375 19.874,5.0413 28.98,18.266 6.6563,22.688-20.574,3.3335-45.413,8.361-53,19.938 .4862,6.37 9.1904,9.0778 12.281,12.312 47.94,20.62 83.774,31.147 133.53,45.094 21.791,6.0356 43.411,12.375 63.812,20.906 17.102,6.912 38.878,5.9034 46.656,28.031 8.9435,50.111 35.636,49.967 101.5,60.656 32.817,5.3533 61.915,4.236 92.781,13.281 1.1837,.3251 5.7723,7.2955 6.0938,8.25 1.1115,1.6855 1.6284,4.9523 2.8437,9.2812 1.1349,4.8524 2.8964,10.393 6,16.125 9.4057,14.518 24.23,20.687 39.406,24.25 32.54,5.0974 66.752,17.834 92.5,31.719-.037,.0683-1.4346,.405-15.875,2.0938-4.9294,1.0598-10.278,2.5278-15.813,4.9375-4.634,1.7824-9.7847,5.2624-14.625,10.844-4.0717,5.9206-5.4265,12.056-4.25,17.656 1.2123,5.3856 3.004,9.323 4.7188,11.844 .8687,8.0186 2.0115,14.501-5.4062,16.062-113.29,27.445-167.71,33.128-330.12,97.937-28.763,13.514-135.49,64.603-163.22,80.469-.9652,1.964-1.9166,3.9101-2.875,5.875l87.5-.2188c30.639-18.694 72.274-22.264 104.5-38.219 111.97-48.99 245.62-76.187 308.16-108.88 18.786-4.9244 29.413-14.761 36.031-21.781 4.1312-5.4075 5.9323-11.596 5.3437-17.969-.8686-5.8925-2.5675-10.252-4.4374-13.156-6.5414-34.478 51.026-25.312 55.219-32.438 4.996-22.446-16.824-31.977-32.375-39.344-51.457-22.42-81.615-19.562-116.34-37.594-3.0716-1.6298-5.8478-3.8891-7.3438-6.5625-1.5308-2.2948-2.4469-5.92-3.7188-10.219-.8982-3.7816-2.2873-8.8714-5.3437-14.688-3.832-6.4529-9.6883-10.984-16.625-12.938-67.077-11.331-170.81-25.687-182.47-33.812-11.661-8.1252-6.5773-28.959-15.594-37.625-15.775-13.926-27.716-13.299-46.219-20.5-21.738-8.521-47.602-18.372-69.687-23.969-49.418-12.299-78.198-21.797-124.53-40.469 0,0-11.721-2.6486-4.625-11.906 19.737-3.4286 33.195-2.4378 51.875-12.469 1.6787-.8749 3.4754-2.2851 5.1563-4.4062 5.6318-9.5237-7.7728-19.046-14.438-22.969-12.268-7.2117-38.838-1.7444-33.625-20.562z" transform="translate(0 -27.638)"/>
<path fill="#b4592d" d="m3007,925.61c8.1087-4.2306 14.365-12.769 23.368-14.38 21.052-3.7684 42.279,6.9593 62.913,12.583 14.078,3.8365 27.379,10.149 41.343,14.38 15.994,4.8463 32.146,9.2986 48.533,12.583 16.617,3.3301 33.729,3.7826 50.33,7.1901 15.804,3.2438 30.68,11.001 46.735,12.583 17.928,1.7664 36.316,.2074 53.926-3.5951 10.008-2.161 19.375-6.6925 28.76-10.785 13.509-5.891 27.929-10.703 39.545-19.773 4.3543-3.3996 6.4709-9.1326 10.785-12.583 9.0014-7.1979 20.657-10.277 30.558-16.178 16.702-9.9538 29.148-30.844 48.533-32.355 8.5529-.6667 15.524,7.3094 23.368,10.785 23.808,10.551 45.995,27.9 71.9,30.558 6.0783,.6237 12.182-5.5367 17.975-3.595 13.682,4.5854 17.13,23.813 28.76,32.355 10.591,7.779 23.217,12.929 35.95,16.178 7.5697,1.9314 15.583,1.1444 23.368,1.7976 13.19,1.1068 26.446,1.6952 39.545,3.595 15.118,2.1926 29.67,9.4703 44.938,8.9876 9.297-.2939 18.264-3.8948 26.963-7.1901 5.0115-1.8985 9.3021-5.4769 14.38-7.1901 12.207-4.1183 37.974-7.19 37.974-7.19l17.975,115.04-3927.4,21.57-14.38-106.05s1891.5,68.317 2832.5-8.9876c67.151-5.5166 134.87-13.383 199.52-32.355 14.419-4.2314 28.02-11.024 41.343-17.975z"/>
<path opacity=".5" d="m3483.5,657.39 125.84,3.9948 243.68,3.9948 7.9896,37.951-33.956,1.9974-21.972,13.982-45.94-1.9974-11.984-5.9922-27.964-7.9896-39.948,5.9922-37.951,5.9922-43.943-11.984h-37.951l-45.94-9.987z"/>
<path fill="url(#linearGradient12474)" d="m3195.6,569.78 23.008,19.063 19.705-4.2776 26.64,2.1111 26.17-7.9362 23.008,19.062 33.73,11.849 38.143,11.642 13.711,9.4279 48.068,29.836 17.655-.8253 38.457,18.34 19.236-14.324 19.549-7.6263 20.801,19.165 26.796,5.4602 31.053,1.9048 40.037,4.8408 40.037,4.8412 35.31-1.6506 37.674,1.5953 49.818-17.63 40.037,4.8408-2.4897-100.57-119.02,8.92s-22.069,1.0317-42.401-8.0868c-20.332-9.1188-39.568,5.2057-50.602,5.7216-11.034,.5158-39.881-1.4918-39.881-1.4918s-8.2014,13.809-34.997,8.3485c-26.796-5.4598-18.125-9.2216-33.573-8.4994-15.448,.7222-22.382-5.6665-40.037-4.8412-17.655,.8253-35.154,4.9997-35.154,4.9997l-35.937-11.745s-32.321,18.293-41.461,12.007c-9.1408-6.2851-26.953-8.8089-26.953-8.8089l-33.103,1.5475-37.674-1.5953-26.326,4.5871z"/>
<path fill="url(#linearGradient12476)" d="m2756.4,575.16h33.66l12.022-7.2128h33.659l21.639-14.426 36.064,12.021h33.66l19.234-7.2128 19.234,4.8087 26.447-2.4043h24.043l31.256,7.2128 31.256-4.8084 24.042,9.6171 28.851,2.4041h144.26l76.937,12.021 33.66,7.213 24.043-4.8087 21.638,7.2128 26.447,7.213 14.425,4.8084 19.234,12.021 12.021,4.8087 16.83,4.8084 19.234,7.2128 12.021,9.6171 7.2128,28.852-36.064,2.4041-24.043-9.6171-55.298-24.043-9.6171,2.4041-7.2129,24.043-33.66,9.6171-40.873,2.4043-43.277-9.6171z"/>
<path fill="url(#linearGradient12478)" d="m2763.2,613.55-21.936-21.936 12.535-18.802h37.604l47.005,6.2674 9.4013,6.2674 12.535-12.535 62.674,12.535 37.604,9.4012 21.936-3.1338 50.139,6.2674 47.006-6.2674 25.07,18.802 43.872,3.1336 43.872,12.535 31.337,21.936 40.738,12.535 43.872,6.2674 34.471,9.4012s-18.802,9.4012-31.337,9.4012-72.075-12.535-72.075-12.535-40.738-9.4012-53.273-9.4012-37.605,3.1336-53.273,3.1336c-15.669,0-72.076-21.936-72.076-21.936l-21.936,15.669-34.471-3.1336-53.273,9.4009-47.006-6.2674-31.337-6.2674-43.872-3.1338-25.07,3.1338-34.471-3.1338z"/>
<path fill="url(#linearGradient12480)" d="m3460.2,603.88 25.423,2.8248 39.546,2.8248 50.846-8.4742 53.67,19.773h90.392l45.196,8.4743-2.8248,16.949s-8.4742-2.8248-22.598-2.8248-45.196-11.299-45.196-11.299l-28.248,2.8248s-2.8248,5.6495-16.949,5.6495h-56.495l-45.196,5.6495-104.52-22.598z"/>
<path fill="url(#linearGradient12728)" d="m3493.9,875.24c-.5228-.0227-1.0483-.007-1.5828,.0344-19.384,1.5111-31.817,22.392-48.519,32.346-9.9005,5.9004-21.555,9.0094-30.556,16.207-4.3144,3.45-6.4507,9.1602-10.805,12.56-11.616,9.0698-26.028,13.895-39.537,19.786-9.3853,4.0925-18.759,8.6093-28.767,10.77-17.609,3.8025-35.993,5.3795-53.921,3.6131-16.055-1.5819-30.926-9.3503-46.729-12.594-16.601-3.4074-33.726-3.8616-50.342-7.1918-16.387-3.2839-32.524-7.7135-48.519-12.56-13.964-4.231-27.284-10.547-41.361-14.384-20.634-5.6233-41.851-16.363-62.902-12.594-9.0031,1.6116-15.256,10.153-23.365,14.384-13.323,6.9511-26.942,13.731-41.361,17.962-64.651,18.972-132.36,26.876-199.51,32.38-31.167,2.5545-63.284,4.9487-96.211,7.2261l.6539,11.768 51.925,19.958 59.943,4.0259 47.934-8.0175 119.85-3.9916 103.85,3.9916 95.867,12.009 91.876-8.0176 75.909-11.975 47.934,7.9832 43.942-19.958 43.942-3.9916 43.942-3.9916 39.95-3.9917 83.892,31.933 35.959-3.9916 107.88-3.9916 3.9229-27.528c-12.044-1.6795-23.779-6.7085-35.89-8.465-13.099-1.8998-26.348-2.4718-39.538-3.5788-7.7848-.6531-15.795,.1421-23.365-1.7893-12.733-3.2487-25.368-8.4281-35.959-16.207-11.63-8.5421-15.085-27.76-28.767-32.346-5.7937-1.9417-11.884,4.2367-17.962,3.6131-25.906-2.6578-48.109-20.006-71.918-30.556-7.3533-3.2584-13.94-10.5-21.782-10.839z"/>
</g>
</g>
</svg>
