<svg width="811.91" xmlns="http://www.w3.org/2000/svg" viewBox="0 0 811.91 596.88" height="596.88" xmlns:xlink="http://www.w3.org/1999/xlink">
<defs>
<filter color-interpolation-filters="sRGB" id="filter6881">
<feGaussianBlur stdDeviation=".95351"/>
</filter>
<linearGradient id="linearGradient5667">
<stop offset="0" stop-color="#c5c5c5"/>
<stop offset=".513" stop-color="#f9f9f9"/>
<stop offset="1" stop-color="#707070"/>
</linearGradient>
<linearGradient id="linearGradient4059">
<stop offset="0" stop-color="#c5c5c5"/>
<stop offset=".451" stop-color="#f9f9f9"/>
<stop offset="1" stop-color="#707070"/>
</linearGradient>
<linearGradient id="linearGradient4033">
<stop offset="0" stop-color="#feedc2"/>
<stop offset="1" stop-color="#f9f9f9"/>
</linearGradient>
<linearGradient gradientTransform="translate(-686.76 -26.547)" id="linearGradient8931" x1="936.41" gradientUnits="userSpaceOnUse" x2="1108.1">
<stop offset="0" stop-color="#7d6f67"/>
<stop offset=".503" stop-color="#9b8a82"/>
<stop offset="1" stop-color="#7e7067"/>
</linearGradient>
<linearGradient gradientTransform="matrix(1.3679 0 0 1.3679 -949.78 -304.27)" id="linearGradient8608" xlink:href="#linearGradient4033" y1="688.98" x1="874.08" y2="684.79" gradientUnits="userSpaceOnUse" x2="876.64"/>
<linearGradient gradientTransform="matrix(1.3679 0 0 1.3679 -949.78 -304.27)" id="linearGradient8605" xlink:href="#linearGradient4059" y1="701.65" x1="798.57" y2="703.7" gradientUnits="userSpaceOnUse" x2="801.25"/>
<linearGradient gradientTransform="matrix(1.3679 0 0 1.3679 -1592.5 -681.85)" id="linearGradient8933" y1="858.52" y2="867.32" gradientUnits="userSpaceOnUse" x2="0">
<stop offset="0" stop-color="#faca7a"/>
<stop offset="1" stop-color="#c2813c"/>
</linearGradient>
<linearGradient gradientTransform="matrix(1.3679 0 0 1.3679 -949.78 -304.27)" id="linearGradient8611" xlink:href="#linearGradient4059" y1="689.38" x1="863.06" y2="684.92" gradientUnits="userSpaceOnUse" x2="865.23"/>
<linearGradient gradientTransform="translate(-686.76 -25.133)" id="linearGradient8929" y1="716.23" x1="1025.3" y2="861.08" gradientUnits="userSpaceOnUse" x2="1024.5">
<stop offset="0" stop-color="#534441"/>
<stop offset=".577" stop-color="#8c8071"/>
<stop offset="1" stop-color="#998f8b"/>
</linearGradient>
<linearGradient id="linearGradient5336">
<stop offset="0" stop-color="#d0d64e"/>
<stop offset="1" stop-color="#6ea530"/>
</linearGradient>
<linearGradient gradientTransform="matrix(1.3679 0 0 1.3679 -949.78 -304.27)" id="linearGradient8601" xlink:href="#linearGradient4033" y1="719.88" x1="790.71" y2="723.28" gradientUnits="userSpaceOnUse" x2="793.99"/>
<linearGradient gradientTransform="matrix(1.3679 0 0 1.3679 -949.78 -304.27)" id="linearGradient8623" xlink:href="#linearGradient4059" y1="649.52" x1="785.39" y2="653.44" gradientUnits="userSpaceOnUse" x2="783.7"/>
<linearGradient gradientTransform="matrix(1.3679 0 0 1.3679 -949.78 -304.27)" id="linearGradient8617" xlink:href="#linearGradient4059" y1="640.14" x1="844.65" y2="642.64" gradientUnits="userSpaceOnUse" x2="848.16"/>
<linearGradient gradientTransform="matrix(1.3679 0 0 1.3679 -949.78 -304.27)" id="linearGradient8620" xlink:href="#linearGradient4033" y1="659.29" x1="793.47" y2="664.67" gradientUnits="userSpaceOnUse" x2="791.66"/>
<linearGradient gradientTransform="matrix(1.3679 0 0 1.3679 -949.78 -304.27)" id="linearGradient8614" xlink:href="#linearGradient4033" y1="620.42" x1="858.01" y2="616.85" gradientUnits="userSpaceOnUse" x2="854.38"/>
<linearGradient gradientTransform="matrix(1.3679 0 0 1.3679 -918.73 71.831)" id="linearGradient8746" y1="621" x1="1118.8" y2="527.76" gradientUnits="userSpaceOnUse" x2="1123.2">
<stop offset="0" stop-color="#92bf51"/>
<stop offset="1" stop-color="#dce29a"/>
</linearGradient>
<linearGradient gradientTransform="matrix(1.3679 0 0 1.3679 -19.804 -169.66)" id="linearGradient8650" y1="627.14" x1="118.63" y2="624.64" gradientUnits="userSpaceOnUse" x2="162.16">
<stop offset="0" stop-color="#333"/>
<stop offset="1" stop-color="#a3948d"/>
</linearGradient>
<linearGradient gradientTransform="matrix(1.3679 0 0 1.3679 -1013.3 -415.19)" id="linearGradient8889" y1="321.25" x1="758.41" y2="591.74" gradientUnits="userSpaceOnUse" x2="1279.1">
<stop offset="0" stop-color="#0eb1d4"/>
<stop offset=".293" stop-color="#0eb1d4"/>
<stop offset="1" stop-color="#ebe98c"/>
</linearGradient>
<linearGradient gradientTransform="matrix(.62584 0 0 .47261 -236.98 626.9)" id="linearGradient8743" xlink:href="#linearGradient6455" y1="625.3" y2="650.5" gradientUnits="userSpaceOnUse" x2="0"/>
<linearGradient id="linearGradient6455">
<stop offset="0" stop-color="#b9cb42"/>
<stop offset="1" stop-color="#5d9d2c"/>
</linearGradient>
<linearGradient gradientTransform="matrix(.5416 -.12353 .13604 .4918 -595.81 590.29)" id="linearGradient8905" xlink:href="#linearGradient5667" y1="544.55" y2="495.94" gradientUnits="userSpaceOnUse" x2="0"/>
<linearGradient id="linearGradient8895" y1="497.27" y2="524.88" x1="1129.1" gradientUnits="userSpaceOnUse" x2="1125.9">
<stop offset="0" stop-color="#615652"/>
<stop offset="1" stop-color="#786964"/>
</linearGradient>
<linearGradient id="linearGradient8897" y1="514.02" y2="477.38" x1="1157.9" gradientUnits="userSpaceOnUse" x2="1164.8">
<stop offset="0" stop-color="#0f778d"/>
<stop offset="1" stop-color="#16b4d6"/>
</linearGradient>
<linearGradient id="linearGradient8893" y1="529.13" y2="523.63" x1="1144.7" gradientUnits="userSpaceOnUse" x2="1188.8">
<stop offset="0" stop-color="#4a3f44"/>
<stop offset="1" stop-color="#3a3236"/>
</linearGradient>
<linearGradient gradientTransform="matrix(.5416 -.12353 .13604 .4918 -590.81 605.1)" id="linearGradient8909" xlink:href="#linearGradient5667" y1="544.55" y2="495.94" gradientUnits="userSpaceOnUse" x2="0"/>
<linearGradient gradientTransform="matrix(.39099 0 0 .28571 -245.9 529.51)" id="linearGradient8911" xlink:href="#linearGradient5667" y1="544.55" y2="495.94" gradientUnits="userSpaceOnUse" x2="0"/>
<linearGradient gradientTransform="matrix(.2991 .05576 -.1008 .39897 -17.47 393.48)" id="linearGradient8915" xlink:href="#linearGradient5667" y1="544.55" y2="495.94" gradientUnits="userSpaceOnUse" x2="0"/>
<linearGradient gradientTransform="matrix(.2991 .05576 -.1008 .39897 -16.197 380.6)" id="linearGradient8919" xlink:href="#linearGradient5667" y1="544.55" y2="495.94" gradientUnits="userSpaceOnUse" x2="0"/>
<linearGradient gradientTransform="translate(-686.76 -26.547)" id="linearGradient8927" y1="727.08" x1="1026.9" y2="859.93" gradientUnits="userSpaceOnUse" x2="1030.2">
<stop offset="0" stop-color="#2f2a2c"/>
<stop offset="1" stop-color="#726561"/>
</linearGradient>
<linearGradient gradientTransform="matrix(.39099 0 0 .28571 -245.9 521.8)" id="linearGradient8913" xlink:href="#linearGradient5667" y1="544.55" y2="495.94" gradientUnits="userSpaceOnUse" x2="0"/>
<linearGradient gradientTransform="matrix(.2991 .05576 -.1008 .39897 -16.904 386.83)" id="linearGradient8917" xlink:href="#linearGradient5667" y1="544.55" y2="495.94" gradientUnits="userSpaceOnUse" x2="0"/>
<linearGradient gradientTransform="matrix(1.3679 0 0 1.3679 -73.626 -630.76)" id="linearGradient9263" xlink:href="#linearGradient5336" y1="669.4" x1="160.27" y2="871.3" gradientUnits="userSpaceOnUse" x2="256.75"/>
<linearGradient id="linearGradient8949" xlink:href="#linearGradient4059" y1="671.33" x1="780.53" y2="670.51" gradientUnits="userSpaceOnUse" x2="866.23"/>
<linearGradient gradientTransform="matrix(1.3679 0 0 1.3679 -1372.4 -682.62)" id="linearGradient8935" y1="865.09" x1="1435.8" y2="871.59" gradientUnits="userSpaceOnUse" x2="1436">
<stop offset="0" stop-color="#eeb04f"/>
<stop offset="1" stop-color="#e19b45"/>
</linearGradient>
<linearGradient gradientTransform="matrix(.35604 .14143 -.2498 .4541 27.197 245.29)" id="linearGradient8925" xlink:href="#linearGradient5667" y1="544.55" y2="495.94" gradientUnits="userSpaceOnUse" x2="0"/>
<linearGradient gradientTransform="matrix(.5416 -.12353 .13604 .4918 -593.41 597.5)" id="linearGradient8907" xlink:href="#linearGradient5667" y1="544.55" y2="495.94" gradientUnits="userSpaceOnUse" x2="0"/>
<linearGradient gradientTransform="matrix(.39099 0 0 .28571 -245.9 514.23)" id="linearGradient8903" xlink:href="#linearGradient5667" y1="544.55" y2="495.94" gradientUnits="userSpaceOnUse" x2="0"/>
<linearGradient gradientTransform="matrix(.35604 .14143 -.2498 .4541 22.953 254.84)" id="linearGradient8921" xlink:href="#linearGradient5667" y1="544.55" y2="495.94" gradientUnits="userSpaceOnUse" x2="0"/>
<linearGradient gradientTransform="matrix(.35604 .14143 -.2498 .4541 25.075 250.32)" id="linearGradient8923" xlink:href="#linearGradient5667" y1="544.55" y2="495.94" gradientUnits="userSpaceOnUse" x2="0"/>
<linearGradient gradientTransform="matrix(1.3679 0 0 1.3679 -73.626 -630.76)" id="linearGradient9261" y1="665.81" x1="164.29" y2="839.39" gradientUnits="userSpaceOnUse" x2="222.52">
<stop offset="0" stop-color="#c0ce49"/>
<stop offset="1" stop-color="#dae748"/>
</linearGradient>
<radialGradient cx="489.63" cy="864.48" gradientTransform="matrix(1.4299 0 0 .44557 -38.72093 638.23585)" id="radialGradient8901" r="136.51" gradientUnits="userSpaceOnUse">
<stop offset="0" stop-color="#0ff"/>
<stop offset="1" stop-color="#91cfdf"/>
</radialGradient>
<radialGradient cx="1156.9" cy="537.85" gradientTransform="matrix(1.3679 0 0 .75365 -972.43 -90.555)" id="radialGradient8891" r="125.65" gradientUnits="userSpaceOnUse">
<stop offset="0" stop-color="#bed575"/>
<stop offset="1" stop-color="#67b255"/>
</radialGradient>
<radialGradient cx="137.93" cy="573.09" gradientTransform="matrix(-.85601 .89212 -2.1253 -2.0393 1584 1344)" id="radialGradient8937" xlink:href="#linearGradient5336" r="209.79" gradientUnits="userSpaceOnUse"/>
<radialGradient cx="188.93" cy="809.99" gradientTransform="matrix(2.085 .82071 -2.0674 3.8151 1469.6 -2434.5)" id="radialGradient8941" xlink:href="#linearGradient4059" r="1.961" gradientUnits="userSpaceOnUse"/>
<radialGradient cx="188" cy="811.32" gradientTransform="matrix(.34852 -1.8621 2.427 .70949 -1846.4 585.56)" id="radialGradient8943" xlink:href="#linearGradient4059" r="2.843" gradientUnits="userSpaceOnUse"/>
<radialGradient cx="818.52" cy="670.49" gradientTransform="matrix(1.9849 .17339 -.17295 1.9799 -690.2 -798.92)" id="radialGradient8939" xlink:href="#linearGradient4059" r="4.955" gradientUnits="userSpaceOnUse"/>
<radialGradient cx="127.65" cy="573.15" gradientTransform="matrix(.47773 .75533 -.65009 .41117 466.43 284.58)" id="radialGradient8654" r="27.166" gradientUnits="userSpaceOnUse">
<stop offset="0" stop-color="#333"/>
<stop offset="1" stop-color="#4d4a48"/>
</radialGradient>
<radialGradient cx="1083.7" cy="491.56" gradientTransform="matrix(.47189 .54098 -.75892 .66199 594.95 -514.44)" id="radialGradient8899" r="144.24" gradientUnits="userSpaceOnUse">
<stop offset="0" stop-color="#77a237"/>
<stop offset="1" stop-color="#46862d"/>
</radialGradient>
<radialGradient cx="189.26" cy="811.66" gradientTransform="matrix(2.8391 1.1642 -.53217 1.6019 83.835 -708.5)" id="radialGradient8945" xlink:href="#linearGradient4059" r="2.843" gradientUnits="userSpaceOnUse"/>
<radialGradient cx="1072.8" cy="326.36" gradientTransform="matrix(-.04169 .85432 -1.3031 -.06359 1036.9 -84.893)" id="radialGradient8752" r="175.84" gradientUnits="userSpaceOnUse">
<stop offset="0" stop-color="#cad44c"/>
<stop offset="1" stop-color="#6da331"/>
</radialGradient>
<radialGradient cx="1261.2" cy="439.19" gradientTransform="matrix(-.36475 -.95637 2.6042 -.99321 131.13 2329.4)" id="radialGradient8773" r="104.2" gradientUnits="userSpaceOnUse">
<stop offset="0" stop-color="#b4dbd8"/>
<stop offset="1" stop-color="#fbf8cf"/>
</radialGradient>
<radialGradient cx="188.44" cy="813.07" gradientTransform="matrix(-3.8989 -1.2326 1.5309 -3.2613 -321.51 3695.6)" id="radialGradient8947" xlink:href="#linearGradient4059" r="1.961" gradientUnits="userSpaceOnUse"/>
<radialGradient cx="1165.9" cy="529.59" gradientTransform="matrix(1.3679 0 0 .68575 -918.61 393.25)" id="radialGradient8770" r="125.71" gradientUnits="userSpaceOnUse">
<stop offset="0" stop-color="#7bab58"/>
<stop offset="1" stop-color="#4c9d3e"/>
</radialGradient>
</defs>
<g transform="translate(-46.162 -461.69)">
<path fill="url(#linearGradient8889)" d="m123.28,.5938c-37.481,.0284-87.7284-1.3289-131.3724-.3168 3.4893,193.2384-3.5983,288.5052 9.2715,426.1952-1.2044,45.548 14.9514,88.4616 8.5334,149.7516 317.03,38.229 486.5,3.9354 636.47,6.625 37.583-1.2413 113.2755,21.3292 169.3255,20.6808-3.56-288.88-17.4455-291.0483-11.2655-565.6583-.14-12.006-.38-24.093-.72-36.214-254.8-1.2389-375.63-1.2928-680.25-1.0622z" transform="translate(53.822 461.1)"/>
<path fill="url(#radialGradient8773)" d="m581.81,709.45c1.0381-3.5407 .6072-7.8159 4.6528-9.8529-.8693-3.0779-2.9301-6.4308 3.0106-7.9371-.8673-6.0597-3.0367-12.735 5.7476-14.232-.8033-26.487 39.63-47.433 55.012-10.948 6.2794-1.8787 12.781-4.6164 15.053,9.0319 1.5551-1.0931 2.0832-2.597 6.0212-2.7369 .2317-2.2258-.0424-5.0136 4.6528-6.2949 .4692-2.2233 .7429-4.504 5.4738-5.4738-8.6784-18.441-4.6131-28.163 11.221-29.833 .3284-3.5106 1.055-6.8917 11.495-7.116-16.52-35.012 26.647-88.782 49.538-49.538 4.5274-5.8958 9.7056-5.4992 15.327-.8211 1.6469-1.1627 3.4621-1.4827 5.4738-.8211-.3903-2.5184 1.1361-2.8463 3.2844-2.4632 .1778-4.3567-2.6884-10.374 4.9264-10.674-1.1206-77.452 63.221-29.983 37.222,43.791 7.1144-.3277 8.5357,4.021 8.4846,9.5792 13.396-3.394 9.4475,7.9675 6.0212,18.885 8.4428,2.0392 7.4212,9.0735 6.8423,15.874 1.048-.1724 3.4781-.1452 8.7581,4.1054l-4.1053,68.423-137.94,70.065-122.61-4.9265-20.253-49.265z"/>
<path fill="url(#radialGradient8770)" d="m506.16,763.94c1.947-2.1347 4.1501-5.2142 7.5601-5.0318 2.8219,.0925 5.7381,.2509 7.5352-2.3224 1.1582-2.3732 1.5253-5.4417 3.0965-8.1283 2.7593-3.9816-2.1935-7.0313-.7741-10.838 3.6706-3.8691 8.616-.004 11.999,2.3224 2.2537-.4506 4.1349-1.522 3.8706-4.2577-2.5872-.7844-7.3022-.3665-5.4188-4.2577-2.2358-3.7966-2.7958-7.6384-1.5482-11.999 1.8659-.3902 4.2598,.5927 5.4624,.0432 .6667-2.3446-.1108-5.665 2.666-7.0104 3.4918-.4808 6.9601-5.8616 9.6764-.3871 3.1742,.9035 8.387,.1975 9.6766-3.0965 2.6607-2.5163 5.5768-5.8313 6.9671-9.2895 1.3072-4.3987 7.0333-1.5752 5.8058,2.4681-.6684,3.0796 2.5096,4.443 5.1172,4.1119 3.2913,.3786 7.6731-4.427 9.9782-.3871 2.2519,3.2139 1.0308,6.2934-.7741,9.2894-1.6707,2.4938-.6678,4.799 2.3224,5.0318 .8551,.0253-.2798,3.5816 0,5.7706-1.6128,3.4513 .2833,5.6016 4.2576,5.8412 3.5813-.01 2.3385-3.4883 5.263,.5795 .8008,3.9401 2.7185,8.0915 1.3169,12.194-3.8431,3.7604 1.7645,7.5198 5.0319,8.1283 2.8256,1.5828 .9027,5.769 1.9666,8.3488-.6956,3.1145-.4666,5.7952-.0191,5.9684 1.7704,3.7179 6.5812,3.5272 10.439,4.6487 5.3996,1.4486 11.4,1.2998 17.031,2.3224 2.6597,1.0309 5.8953,.7254 8.9023,.7741 .5015-.1676 .5026,.1676 29.61-19.934 30.468-23.862 31.631-27.143 33.094-30.384 4.6979-2.406 4.8747-8.4196 9.6764-8.9024 2.2478-4.3775 9.2875-1.784 12.386-4.6447 2.3408,4.8419 3.361,5.2975 6.9671,.3871 5.1672-1.8163-1.7534-4.602-3.8706-4.2577 3.536-1.2665 6.9005-2.8269 7.3541-5.0318 3.418,1.9344 3.2512,9.94 9.6766,5.8059 3.3368-5.2734-7.2247-1.9157-3.4836-5.0318 2.7085-3.2372 7.5682-4.8378 7.3542-10.064 1.4338-3.457 .0493-7.3547 1.9352-10.064 3.6007-6.2804-6.1946-3.3246-7.7412-8.1283-1.518-6.6059 9.0235-5.9063 9.6766-11.612 3.4449-2.1818 8.011,1.3779 11.999-.3871-.4531-2.5941 5.4009-1.1618 8.1283-.7741h3.4835c1.5295-5.7134-8.9529-6.9438-2.7094-13.547 3.4353-2.9256-5.4651-10.058 1.179-10.859 3.5315,2.4659 7.4247,3.257 11.335,1.2028 1.7783-2.5544 4.0358-4.3896 8.3869-1.9553 3.0381,3.0166 8.3192,1.3527 11.612,0 2.8712-2.3046 8.8097-2.4342 10.666-.3455 3.6296,1.7596 9.1544,1.3626 9.0743,7.3126 1.9662,4.1398-.7227,9.8654 2.3224,13.547 2.6373,4.2554-6.8593,10.32 .387,10.838 3.1-6.4728 7.3355-.8278 11.225,2.3224 3.4608,2.9237-.3174,10.083 5.4188,9.6765 .4666,.6058 .6903,10.089 .2066,13.476-2.831,19.828-16.651,80.621-50.613,105.08-31.744,22.859-81.803-17.089-158.99,3.564z"/>
<path fill="url(#radialGradient8891)" d="m763.91,186.72-4.25,1.5625c-6.2216-3.6298-4.7962,7.4695-10.438,0-6.5188-5.6145-6.934,7.4844-13.156,6.9688-4.2938,3.2666 5.542,4.6496 8.125,5.7812 4.9893,1.9362 8.43,5.8502 10.844,9.3125-4.1436,3.4759-8.2545,1.9595-10.844-2-4.3016-2.2824-8.9378-1.3591-13.156-1.0938-4.2534-3.269-7.5403,2.1955-11.25,2.3125-6.3181-2.628-13.112,.009-11.219,5.8125-4.9648,.4442-.533,7.6488 3.6562,6.1875 5.1927-.4231 9.8989,.7932 14.156,3.0938 .89,3.0098 5.2082,8.5222 1.1562,10.438-3.6656,2.4718-9.2471-5.5487-11.219,1.1875-3.6461,.527-9.99-1.871-10.062,3.4688-.1528,6.0064-9.6086,3.7284-6.5938,10.844 1.8181,3.9566 .2159,5.8098 5.0312,8.9062-1.7692,3.7551-2.547,6.774 0,10.438-6.8468,1.2144-9.1352-7.4797-13.938-10.844-1.4844-4.1474-4.1018-3.8002-4.625-.75-4.3018-4.0871-4.3694,2.8616-7.3438,4.25-5.321,.222-8.0403,7.9604-12,2.3125-4.8397-5.4924-5.1297,4.2436-8.5312,5-2.3529,2.2476-1.9485,36.235-54,55.781-53.403,15.602-55.68-17.407-56.688-18.969-2.7533-2.0426-2.6518-5.4165-2.7188-8.5312-1.3581-2.6924-5.3221-4.2911-5.8125-7.3438-1.2-1.0176-2.9758-2.9857-.7812-5.8125 2.8159-2.1487-3.3809-5.6555-5.7812-5.4062-2.6906,.1832-5.6865-.4196-8.125,.375-4.5417,.8649-4.0491-1.9608-1.1875-3.0938 3.5729-1.0616 5.7106-3.5348 7.375-6.9688 5.3213-3.5342 1.3879-6.4981-.0313-10.062 .3875-2.4989-.3421-4.5685-1.125-6.5938-1.8766-5.2686-4.0495,1.83-7.5938,.375-6.1779,1.1182 .6872,4.4562 2.1562,6.2188 4.7763,.6689-.5269,5.6257-3.0938,6.1875-3.2188,2.5419-7.5018,2.0142-11.312,1.1875-2.6414-3.2263 6.0248-3.7593 4.375-7.7188-1.8607-3.5684-6.2692-3.782-10.094-3.5312-1.569,2.6377-3.5367,3.5407-6.625,3.0938-3.748-.6593-5.3729,1.5915-8.0938,3.0938-4.0467,4.0178 .5909,7.9624 1.1875,11.625 1.672,1.2139 7.3078,1.732 6.2188,3.0938-3.4329-.008-7.0821,.0354-9.3438,2.3125 1.9879,.5926-17.146,25.184-33.156,37.438-17.445,13.351 228.0947,116.4132 351.1047,100.8432 .5625-59.5834 .3063-109.3552 16.1713-171.2732l-25.9373-17.688c-17.121-17.787-13.648-9.9168-15.156-11.219 5.7859-3.8653-1.6768-8.5642-3.5-1.9375-4.0447-2.3408-8.735-4.0928-12.781-5.0312 6.5142-1.7212 1.0675-9.3306 6.25-11.219 4.501-8.0316-6.5749-4.1066-6.25-9.25v-3.1562z" transform="translate(53.822 461.1)"/>
</g>
<g stroke="#000" stroke-width=".1" transform="matrix(1.3679 0 0 1.3679 -966.342 -392.772)">
<path fill="#31a941" d="m1092.5,524.9c1.9892-4.1043 4.9812-6.8373 10.169-5.6104-.2737-4.4326-1.2794-9.1528 5.659-10.752-.5026-6.279 .074-11.077 7.7853-7.8226l81.91,7.2566c4.3308-.0727 4.3004-5.5914 9.3373-2.8295 1.8879-3.485 3.7605-7.0159 8.7714-1.1318 3.4773-.8041 7.4083-2.836 6.5079,8.2056 3.7961,1.1768 4.6351,3.48 2.8295,6.7908 3.7229,5.5473 1.7245,8.674-1.4148,11.318l3.1125,.5659c9.0978,1.0404 7.0415,6.4748 7.9226,10.752 6.2033-2.9682 13.606-1.3594 9.5658,8.257 4.2761,.0103 6.044,6.1909-.5114,6.7393 1.8274,1.0286 2.2218,2.4155 .8488,4.2442 3.5879,.9066 2.8202,3.1743 2.2636,5.376l-20.938,9.0544-134.97-33.388z"/>
<path fill="#11862d" d="m1099.3,524.94c-.18-3.1892 1.1949-5.2589 7.6396-3.6783-.569-4.4336-3.4352-9.4416 5.0931-11.601-3.8754-9.752 2.6204-6.2158 6.7908-5.659l78.094,9.6203 7.3567-1.4147c3.7193-4.0203 8.5432,.5776 3.6783,4.8101 2.6061-.5252 4.6686,.4717 5.9419,3.6784-1.1431-6.9788 6.8042-6.1805 5.0931-.8488 7.2203,2.1088 1.4922,10.208-2.8295,7.6396-3.8019,.6031-5.6442,2.3259-7.6396,3.9613 2.1397,.1535 4.5307-.1956 5.659,1.9806 6.1433-1.7298 7.8237-.286 1.9806,6.5078-1.317,2.451-.1458,3.9688 .5659,5.659 .7556-2.2889 2.0147-3.55 4.2443-2.8295 4.0598-13.649 15.645-3.0398 9.3373,5.0931 1.6034-1.3194 3.2068-.7721 4.8102,.5659 4.5745-11.318 14.566,7.1374 3.3954,5.659-3.3306-.3602-4.0864,1.082-4.8102,2.5465 5.2351-.0323 9.6957,.46 6.7908,5.942l-13.864,6.5078-126.2-33.671z"/>
<path fill="#065728" d="m1106.3,525.23c1.2037-1.7177 1.0662-3.379 7.3567-2.8295-2.5963-6.9722 .8578-7.4616 5.659-6.5078l75.548,2.8295c6.7791-1.3017 8.6956,.6383 3.4801,7.333 7.1146-.2941 5.953,4.4278 4.4425,9.3611 7.5893,.6082 7.5439,7.6295 8.7714,13.582l6.5079,.5659c5.0097-3.1808 9.1075-3.8943 9.6203,5.0931l1.4147,6.2249-5.376,3.1124-118.84-32.822z"/>
</g>
<g transform="matrix(1.3679 0 0 1.3679 -963.582 -387.834)">
<path fill="url(#linearGradient8893)" d="m1142,512.32 50.682,9.5854c-3.7291,8.1741-6.5295,13.795-9.5495,20.019l-43.504-14.077z"/>
<path fill="url(#linearGradient8895)" d="m1120.8,526.92-2.2636-17.543 11.035-28.295 12.804,30.983-2.2636,15.774z"/>
<path fill="#113136" d="m1128.2,476.98 2.4051,4.2442-12.096,29.568-3.3954-.4244z"/>
<path fill="url(#linearGradient8897)" d="m1142,512.92 54.468,10.186 1.9807-35.227c-23.823-16.923-46.992-11.597-70.313-11.459l-12.945,33.848 13.086-32.858z"/>
</g>
<g fill="#f2f2f2" transform="matrix(1.3679 0 0 1.3679 -963.582 -387.834)">
<path d="m1125.2,511.52 .2812,11.719 7.7813,.1562 .8437-11.594-8.9062-.2812zm1.2812,1.3438 2.1876,.125-.094,3.6562h-2.1562l.062-3.7812zm3.5313,.1562 2.2187,.0937-.125,3.625h-2.1562l.063-3.7188zm-3.4687,5.2812 2.1874,.125-.094,3.625h-2.1563l.063-3.75zm3.4062,.0313 2.25,.0937-.1562,3.625h-2.1876l.094-3.7188z"/>
<path d="m1146.7,518.31 .4802,9.1038 13.288,1.5191 1.4408-8.8051-15.209-1.8179zm2.1878,1.2684 3.7357,.4898-.1606,2.8077-3.682-.3875 .1059-2.91zm6.0302,.7554 3.7888,.4711-.2135,2.778-3.682-.3875 .1076-2.8616zm-5.9233,3.4566 3.7353,.4897-.1605,2.7836-3.6822-.3875 .1076-2.8857zm5.8166,.6364 3.8422,.4768-.2668,2.7724-3.7356-.3931 .1605-2.856z"/>
<path d="m1170.7,522.64-.3305,9.4082 12.655,3.1985 2.1534-8.8645-14.478-3.7421zm1.995,1.5723 3.5525,.9636-.3989,2.8635-3.5098-.8519 .3553-2.9754zm5.7376,1.5192 3.6053,.951-.4473,2.8265-3.5098-.8519 .3527-2.9254zm-6.0013,2.8193 3.5521,.9635-.3969,2.8388-3.51-.852 .3549-2.9502zm5.5423,1.3707 3.6562,.9634-.4982,2.8142-3.5608-.8643 .403-2.9131z"/>
</g>
<g transform="translate(-46.162 -461.69)">
<path fill="url(#radialGradient8752)" d="m494.99,782.22c48.257,5.7344 96.031,12.316 147.08,13.16 0,0 75.225,19.67 145.53,49.544 54.054,70.128 .9734,104.03-327.45,96.765l-80.51,22.45-53.41-176.5 117.66-17.03z"/>
<path fill="url(#radialGradient8899)" d="m727.72,381-23.22,52.66-315.84,15.46 1.5312,56.531 393.97,5.7812c-.009-9.4892 21.1434,11.8887 26.406-10.1155 4.0739-17.0338-4.2655-38.9684-3.9795-53.8254 .1431-7.4315-1.5026-26.3652-1.3168-33.2472l-77.5447-33.24z" transform="translate(53.822 461.1)"/>
<path fill="url(#linearGradient8746)" d="m639.13,794.88c-12.076,1.1513-24.414,2.46-37.77,4.3791-39.975,4.1327 25.476,8.6415 56.447,17.035 68.481,18.56 200.03,45.385 76.474,63.884-103.29,15.465-214.2,36.285-315.2,38.958l1.775-6.4908c218.93-13.975 213.71-29.691 320.15-43.482 79.899-10.352-22.101-35.102-68.169-44.98l-75.404-16.167c-36.168-7.7547-22.592-8.1532 39.412-14.779z"/>
<path fill="url(#linearGradient8743)" d="m562.38,927.07c1.4005,.0428 2.3816-1.0132 .7023-1.4699-.6681-.5751-3.0835-.1924-1.238-1.0537 1.2251-1.6232-3.8877,.0445-3.0883-1.7681 .8832-2.1593-3.9565-2.3405-2.8795-.2095 .6476,1.3377-.8273-1.8693-1.7715-.6482-.4113,1.0576-1.6831,2.6376-2.665,.8746-1.372-1.015-4.151-.5178-4.1152-2.5348-.9474-1.9117-3.3751,.6302-4.1587,1.5173-.9317,.6968-.5964-2.2791-1.9466-.971-.9147,.4373-1.8425,2.4991-2.2505,2.1002-.5956-1.8622-3.8142-.8416-2.9566,.8718 .6375,1.2146-.7121,1.6044-2.0748,1.5207-.4365,.7375 .5678,1.7836-1.2484,1.9036-2.8146,9.0939 1.9294,7.6535 33.464,8.0022 1.6473-1.8487 1.5357-3.7841 .1795-5.7808-1.309-2.2333-5.3691-.7328-3.9515-2.3541z"/>
<path fill="url(#radialGradient8901)" d="m467.0248,962.6004-69.4818,115.7033c1.3023-.018 2.5063-.056 3.7893-.075 8.6718-.1354 16.9845-.2876 24.8589-.491 4.5197-.1168 8.9375-.2401 13.2296-.3778 8.5849-.2754 16.7336-.5936 24.5652-.9443 3.9156-.1754 7.7613-.3411 11.531-.5288 3.77-.1877 7.4642-.3972 11.1066-.6044 2.923-.1663 5.7655-.3536 8.6239-.5288 .4356-.027 .8711-.054 1.3067-.076 .0433,0 .0874,0 .1307,0 .2279-.014 .4585-.024 .6859-.038 2.2075-.1376 4.3228-.2731 6.5007-.4156 4.8485-.3174 9.6232-.6432 14.3732-.9821 5.2687-.3755 10.5076-.7743 15.7447-1.1711 1.5579-.1182 3.1761-.258 4.7366-.3777 8.2565-.6331 16.9949-1.2988 25.5457-1.9643 5.3261-.4152 11.1348-.8631 16.6928-1.2843 3.3809-.2556 7.0252-.537 10.5181-.7932 .8594-.063 1.7094-.1313 2.548-.1889 .45-.033 .8965-.046 1.3393-.076 1.0556-.076 2.1013-.1501 3.1686-.2267 5.0514-.3614 10.3632-.7366 15.7123-1.0954 5.9962-.4024 12.3704-.8106 18.8807-1.2087 3.0362-.1858 6.3246-.3832 9.4733-.5667 .3394-.02 .7046-.056 1.0453-.076 .5954-.034 1.2146-.047 1.8293-.075 .6588-.038 1.2961-.076 1.96-.1133 3.2813-.1861 6.584-.3836 9.9959-.5667 4.7141-.251 9.5599-.5087 14.5698-.7554 1.1558-.057 2.3767-.1307 3.5606-.1889 1.1142-.054 2.367-.098 3.4954-.151 1.0332-.05 2.036-.1032 3.0707-.1511 4.6997-.2176 9.6224-.4381 14.5698-.6422 1.0021-.043 1.98-.076 2.9727-.1132 .9782-.041 2.0823-.073 3.0707-.1133 5.678-.2321 11.6115-.4593 17.6399-.6799 .9489-.035 1.8187-.079 2.7766-.1133 .9198-.033 1.9138-.081 2.842-.1132 3.0191-.1065 6.3634-.1989 9.4733-.3022 1.4499-.048 2.9724-.1059 4.4426-.1511 2.0008-.065 4.0067-.133 6.0106-.1888 1.0524-.033 2.0406-.043 3.1034-.076 1.9034-.058 3.8329-.1255 5.7493-.1888 .2291-.01 .489-.031 .7187-.038 .983-.032 1.9387-.047 2.94-.076 8.9405-.2548 18.1531-.49 27.8318-.7178 10.9718-.2582 22.4662-.4986 34.4634-.7177 12.015-.2221 24.5798-.4289 37.6966-.6044-.0903-8.4956-.1633-16.5676-.2287-24.629-.0131-1.5651-.0209-3.0276-.0327-4.5706-.0003-.037 0-.075 0-.1133-.0001-.012 .0001-.025 0-.038-.009-1.2212-.0216-2.4179-.0327-3.6264-.002-.2347 .002-.4455 0-.6799-.0105-1.1437-.025-2.2996-.0327-3.4375-.064-9.1231-.0987-18.0109-.1307-26.5932-.0329-9.505-.0694-18.6527-.0653-27.5373-129.8087-1.9945-218.5255,38.6689-390.8999-3.5538z"/>
<g fill="#b5ecf9" filter="url(#filter6881)" transform="matrix(1.3679 0 0 1.3679 -923.98 77.285)">
<path d="m1187,666.82c4.511-1.1245 5.7312,6.0456 10.554,3.1739 5.0466-.7066 10.157,.1977 15.208-.5915 4.0973-1.1852 11.438,.9144 13.068-3.5459-.9606-4.7251 6.5131-1.1424 9.1816-1.9464 4.8178,.4337 9.6683,1.1887 14.328,2.4858 3.7196,.9889 7.2558,2.6639 11.239,1.8728 4.291,.1783 8.6132-.1622 12.901,.2773 1.7258-.2313 5.7959,.4891 2.0569,1.109-5.6168,.6819-11.205,1.9036-16.884,1.8606-4.9292-.6293 2.2358,1.1733 3.5645,1.6852 4.2895,2.5334 9.3239,3.236 14.17,3.6808 1.8449,.1753 7.7188,2.972 3.0621,3.4055-4.6684,.5142-8.6025-2.0851-13.006-3.0213-4.5078-1.6758-8.8311-3.9164-13.084-6.0785-4.1558-3.5808-10.072-2.4996-15.135-3.1977-3.7307,1.7092-9.6298-4.0954-10.413,2.1114-3.504,1.8376-8.7028,.229-11.826,2.446 5.0535,.9278 9.8373,3.748 14.702,5.7814 3.2904,.8585 11.403,5.071 4.6076,7.3478-4.5359,1.6694-9.4834,1.9525-14.268,2.5753-5.1476,.5698-10.373,1.3104-15.004,3.7781-4.7214,1.9504-9.1123,4.6651-13.728,6.7403-6.5094,1.0556-13.127,1.4176-19.651,2.3487-2.1953-.0746-7.1284,.1466-7.8197-1.0061 4.4867-1.3245 9.2826-1.3923 13.91-2.0775 5.2532-.8532 10.642-1.2485 15.754-2.7659 4.69-2.125 9.1564-4.7047 13.098-8.062 3.7385-3.1332 9.0626-3.2809 13.069-5.9718 4.5048-5.0099-5.1997-7.7022-9.0933-7.3301-6.1109-.6854-12.261-.9416-18.391-.9757-3.8074-1.193-6.0182-5.5739-10.655-4.3748-4.3252,.383-8.6614,.5586-12.992,.1316-3.5698-3.0031 4.153-1.3223 5.7428-1.7417 3.9111-.0414 7.8223-.0828 11.734-.1243z"/>
<path d="m1252.3,664.22c1.647,.0992 3.2487,.4807 4.8915,.5901 1.8231-.0697 3.6775,.2026 5.4554-.2662 1.5322-.1722 3.0729-.0786 4.5951-.3481 1.9119,.1735 3.8377,.2582 5.7279,.4068 1.8733,.2895 3.7786,.1995 5.686,.2099 1.682-.4413 3.4334-.008 5.1503-.0112 1.6765-.3086 2.8527,1.1239 2.4522,2.7023 .1784,1.3207-.5088,2.5929-.5661,3.8891 .075,1.1756-.062,3.1963-1.7664,2.5963-1.6715-.327-3.3801-.1116-5.0703-.1749-.9561-.5531-3.7354-.2005-2.0148-.7685 1.654-.3683 2.7402-1.7786 4.2859-2.3772 1.1996-.5343 2.5193-2.8283 .5879-3.1631-1.4221-.8129-2.9581-1.5366-4.6392-1.5364-1.2541-.2324-2.5604-.2547-3.8117-.0484-1.149,.2247-2.3978,.0224-3.586,.0902-1.3773,.0999-2.6958-.1017-4.0242-.2109-1.3987,.0379-2.803-.005-4.2045,.0112-1.874,.3034-3.8389,.3756-5.7601,.4001-2.0368,.2101-3.8651-.7386-5.7857-1.2028-.2184-.0291-.4409-.0302-1.8592-.698 .6013-.3235 2.4687-.4953 4.256-.0902z"/>
<path d="m1248.4,672.89c5.7928,.7555 3.8811,9.9599 10.823,9.5544 7.0594,1.1273 14.104,2.3395 21.107,3.7785 7.0651-.9436 3.1219,8.0067-1.2004,2.601-3.1136-1.3844-1.4972,5.3981-5.5796,4.5188-5.598,1.0425-11.887,.7669-16.532,4.5356 .069,4.9431 8.6777,1.5802 12.278,1.34 2.9906-.4696 7.3353-1.5497 9.3132-2.2099-5.5055,2.5498-11.539,3.4997-17.486,4.4203 4.6339,1.4875 10.893,.3314 16.06,1.4915 2.754-.0151 7.6373-.1909 2.6001,1.6393-6.9357,1.2622-14.03,1.6574-21.061,2.0712-7.4242-.9768-15.439-1.3932-22.208,2.4009-5.6078,.4421-11.004,2.5797-16.627,2.2436-4.2218-1.1194 4.2703-1.9486 5.8878-2.3172 3.7487-1.4932 10.122-.6764 12.057-4.2566-3.2787-1.9966-8.0274-.1767-11.932-.5061-5.9455,.0172-11.886,.1171-17.768,1.1818-5.2473,.6892-10.509,1.2469-15.639,2.562-6.8065,1.5364-13.834-.4093-20.603,1.4926-5.2795,.8931-10.58,1.3632-15.918,1.656-2.9277,.4253-12.128,.7723-7.0262-4.0652 4.9704-1.355 10.978,.04 16.342-.2714 6.434-.7814 12.81-.035 19.154,.9903 5.4637,.5275 10.447-2.1089 15.823-2.5681 4.8841-1.1333 9.7111-2.8004 14.755-2.9325 4.9056-1.588 14.032,.1065 16.365-3.5734-6.5599-1.3699-13.371,.875-20.003-.005-1.2484-3.1984 6.896-2.7031 9.4252-3.2091 8.7927-1.48 17.682-2.7154 26.32-4.9402 1.9517-1.4224 .8433-7.0682 4.7047-3.9477 4.5137,1.0387 3.8743,6.8376-1.0216,5.7348-4.3141,.9031-8.8666,1.0627-13.075,2.4142-.025,6.0168 8.7014,4.1226 12.432,2.5197 5.8863-.8686 11.305-3.7598 17.284-4.4366 4.7041,.3742 5.5276-4.9903 .7827-5.7937-4.8163-3.9831-12.831-.3464-16.641-6.0105-1.2112-5.9337-6.7524-7.5789-12.178-7.2677-2.2992-.3808-4.7732-.9403-7.601-2.6085 4.9464,.5136 10.726,1.4484 16.589,1.773z"/>
<path d="m1155,669.93c3.7017,.2639 7.3638,.9153 11.088,.6901 2.6872-.2397 5.3629-.2086 8.02,.2754 2.6598,.7546 5.4398,.2495 8.0989,.8309 2.9867,1.2356 6.2147,2.2619 8.4431,4.7647 2.1025,1.3813 4.6601,2.2259 7.1932,2.3296 2.2863,1.4048 7.0937-.4597 7.4836,3.0026-1.0281,2.7379-3.6946,4.7198-6.6419,4.8437-3.0953,.5826-6.2968,.1633-9.3353,1.1513-3.2514,1.172-6.5975,2.4591-9.1965,4.8104-2.9105,2.4174-6.8078,2.3383-10.378,2.5783-4.5716,.4916-9.2014,.0123-13.773,.3086-2.1904-.0545-7.0326,1.6179-6.6253-1.8451 1.8732-2.5908 6.4894,.1761 9.4521-.6445 2.7304-.3926 5.5161-.0854 8.2493-.4062 2.7341-.2946 5.5102,1.0364 8.1122-.2594 2.3547-1.4757 4.3981-3.6133 7.369-3.7039 4.5123-.9248 9.2294-1.0002 13.478-2.98 2.2816-.4625 5.6207-3.139 1.5192-3.9729-3.487-1.8047-7.8891-2.2878-10.317-5.6839-2.3947-1.5031-5.0256-2.659-7.6163-3.747-3.9138-1.1399-.9642,2.485 .802,3.1824 2.5701,1.5006 4.4647,6.0673 1.2103,7.8363-3.8136,2.3129-8.3759,1.235-12.568,1.6064-4.0225,.6718-7.4533,3.7576-11.708,3.1214-3.6034-.6717-7.0933,.8306-10.65,1.0546-4.1565,.0603-2.9016-6.2974 .6532-6.0377 3.6423,.8897 7.385-.0209 11.079,.1372 3.1808-.6046 6.3168-1.625 9.5928-1.3744 3.1865,.2556 2.9535-3.95 6.1028-3.8038 3.3572-2.5188-.2429-5.1641-3.1044-5.3764-4.0542-.9546-8.2376,.0948-12.342,.002-2.5847,.7433-5.8073-.5251-7.9321-.389 2.6829,1.6929 4.7985,6.4806 .3203,7.3862-2.7597,.552-5.6914,.6204-8.4971,1.0194-5.1658,.0233-10.405,1.0762-15.574,.1494-2.0354,.7092-6.5866-1.6731-3.5933-2.966 2.7085,1.2197 5.8159,1.1365 8.7152,1.3923 3.4965,.1967 6.962-.1793 10.384-.8708 2.6876-.3886 6.0717-.1754 7.9337-2.4933 .7393-3.3497-4.8619-3.5482-7.2495-3.8464-3.0614,.2607-6.1559,1.0539-9.207,.1775-1.6559-.491-7.4266-.223-5.5397-2.8294 2.9787,.5007 5.9655,.8532 9.019,.6686 2.0367,.0259 6.2547,1.4662 6.7016-.0998-1.0352-.503-4.1826-1.7126-.049-1.7024 4.2645,.3015 7.4819,1.5438 10.877,1.7134z"/>
</g>
</g>
<g transform="matrix(1.3679 0 0 1.3679 -65.966 -631.35)">
<path fill="url(#linearGradient8903)" d="m279.16,662.39h53.82v1.6006h-53.82z"/>
<path fill="url(#linearGradient8905)" d="m202.06,679.44 74.553-17.004 .762,2.7552-74.553,17.004z"/>
<path fill="url(#linearGradient8907)" d="m204.46,686.64 74.553-17.004 .762,2.7552-74.553,17.004z"/>
<path fill="url(#linearGradient8909)" d="m207.06,694.24 74.553-17.004 .762,2.7552-74.553,17.004z"/>
<path fill="url(#linearGradient8911)" d="m279.16,677.67h53.82v1.6006h-53.82z"/>
<path fill="url(#linearGradient8913)" d="m279.16,669.96h53.82v1.6006h-53.82z"/>
<path fill="#e6e6e6" d="m278.9,658.33 2.5466-.0743 2.1221,25.964-2.215-.766z"/>
<path fill="#f9f9f9" d="m275.08,658.33h3.9613l2.971,25.324-1.6977-.1415z"/>
<path fill="url(#linearGradient8915)" d="m331.93,675.24 41.172,7.6755-.5647,2.2351-41.172-7.6755z"/>
<path fill="url(#linearGradient8917)" d="m332.49,668.6 41.172,7.6755-.5647,2.2351-41.172-7.6755z"/>
<path fill="url(#linearGradient8919)" d="m333.2,662.37 41.172,7.6755-.5647,2.2351-41.172-7.6755z"/>
<path fill="#e6e6e6" d="m334.19,658.5 1.6807-.0686-2.5437,23.984-1.336-.7075z"/>
<path fill="#f9f9f9" d="m331.68,658.5h2.5969l-1.8902,23.392-1.0915-.1307z"/>
<path fill="url(#linearGradient8921)" d="m371.54,680.25 49.009,19.468-1.3994,2.544-49.009-19.468z"/>
<path fill="url(#linearGradient8923)" d="m373.66,675.73 49.009,19.468-1.3994,2.544-49.009-19.468z"/>
<path fill="url(#linearGradient8925)" d="m375.79,670.7 49.009,19.468-1.3994,2.544-49.009-19.468z"/>
<path fill="#e6e6e6" d="m375.75,666.21 1.8891,.3153-6.5428,26.045-1.1352-.9017z"/>
<path fill="#f9f9f9" d="m372.95,665.63 2.9025,.605-5.7212,25.54-1.1998-.3994z"/>
<path fill="#e6e6e6" d="m426.35,684.14 1.4239,.653-8.9197,23.465-.751-1.0676z"/>
<path fill="#f9f9f9" d="m424.26,683.06 2.17,1.1176-8.2061,23.141-.8751-.6036z"/>
<path fill="url(#linearGradient8927)" d="m279.96,731.86 26.769,23.234-7.8287-44.194c8.7901-4.4176 16.773-4.2707 26.264-3.0305l11.364,91.671 10.607-1.5152 6.0609-83.843c13.143,6.6543 28.259,10.94 38.386,21.213l-5.0507,102.53 4.7849,2.0008 16.933-120.19-36.618-26.011c-10.572-4.0061-13.968-9.7009-59.094-6.3134l-39.648,21.718z"/>
<path fill="url(#linearGradient8929)" d="m248.14,712.06 70.206-25.759 22.728-.5051 33.335,7.0711 38.386,24.244 3.4093,11.617-1.5152,11.617-2.0203-.2525c-2.5008,35.098-6.7142,67.913-11.21,100.35l-10.357-.7143 10-108.93c-7.7239-7.2808-24.177-20.155-43.571-25.714l1.0004,125.03-15.643-17.257c-4.2851-29.644-4.6273-78.224-5.7143-111.71-19.134-3.072-39.291,13.126-51.071,27.5z"/>
<path fill="url(#linearGradient8931)" d="m249.65,692.97c11.326-2.7945 20.579-7.1232 32.136-9.0838 18.379-3.118 31.143-4.067 51.164-2.5258 11.542,.8885 24.632,2.6527 38.14,5.5538 16.843,3.6174 34.336,9.0026 50.286,16.662l-4.2752,25.524c-76.62-70.3-106.39-35.88-152.29-14.41z"/>
</g>
<g stroke-opacity=".475" stroke="#7b7b7b" stroke-linejoin="round" stroke-linecap="round">
<g fill="#af9c95" transform="matrix(1.3679 0 0 1.3679 -65.966 -631.35)">
<path d="m267.6,690.95 14.643-3.2143 .1786,2.6786-14.643,3.5714z"/>
<path d="m278.31,693.27 11.964-3.9286 .3571,3.5714-11.25,3.0357z"/>
<path d="m292.42,688.62 12.5-.7143 .3571,1.7857-12.143,1.7857z"/>
<path d="m307.6,685.23 12.857-.7143v1.9643l-12.857,1.0714z"/>
<path d="m313.67,688.27 .5357,1.4286-10,3.3929-.1786-1.6071z"/>
<path d="m300.63,691.84 .1786,1.9643-11.607,4.1071-.7143-2.8571z"/>
<path d="m285.27,696.12 .5357,2.6786-12.857,4.4643-.8929-3.2143z"/>
<path d="m276.17,693.8 .5357,2.6786-10.893,5.3571-1.25-5.1786z"/>
<path d="m278.85,703.09 .8929,1.6071-8.9286,5.7143-2.8571-3.2143z"/>
</g>
<g fill="#71625f" transform="matrix(1.3679 0 0 1.3679 -65.966 -631.35)">
<path d="m295.9,701.29 1.3393,2.4107-8.6607,4.8214-1.7858-2.2321z"/>
<path d="m285.02,708.76 1.4285,1.875-8.1249,6.875-2.0536-2.2321z"/>
<path d="m293.1,707.36 .5357,2.6786-7.1428,5.8928-2.3215-2.4107z"/>
<path d="m283.3,715.88 1.7857,1.875-5.9821,6.6964-1.6965-2.7678z"/>
<path d="m290.7,715.07 1.875,1.7857-6.7856,9.375-3.1251-3.4821z"/>
<path d="m301.98,705.75 1.9643,2.0536-7.6785,7.5893-2.8572-2.5893z"/>
<path d="m315.9,700.16 .8929,2.5893-9.6428,4.8214-1.6965-3.75z"/>
</g>
<g fill="#af9c95" transform="matrix(1.3679 0 0 1.3679 -65.966 -631.35)">
<path d="m377.5,693.53-.4806,2.2828 11.535,3.8048 .8012-2.7395z"/>
<path d="m390.39,697.69-.3571,2.4999 8.2143,3.8393 .7143-2.6786z"/>
<path d="m401.41,702.32-.5357,2.9464 10.178,3.4822 .6251-2.6786z"/>
<path d="m406.6,709.32-.5357,3.0356 10.089,4.2857 1.1607-2.9464z"/>
<path d="m394.44,704.17-.8929,2.1428 9.8214,4.8214 1.0715-2.9464z"/>
<path d="m399.73,711.61-1.0714,1.6964 9.1071,5.625 1.0715-2.8572z"/>
<path d="m382.24,698.57-.2679,1.6964 9.375,4.7322 .9822-2.2322z"/>
</g>
<g fill="#71625f" transform="matrix(1.3679 0 0 1.3679 -65.966 -631.35)">
<path d="m403.26,720.53-.7142,3.2142 9.5535,8.0357 .4465-5.2679z"/>
<path d="m391.47,712.63-1.25,2.6785 10.625,6.875 1.0715-2.6786z"/>
<path d="m379.43,704.27-1.6071,3.3928 10.804,5.9822 1.1608-3.125z"/>
<path d="m366.2,698.53-1.25,3.0356 9.7321,3.9286 1.2501-3.0357z"/>
<path d="m370.47,705.93-.4464,2.4106 9.5535,5 1.0715-1.6964z"/>
<path d="m382.85,713.04-.7143,1.7856 10,7.1429 1.3393-2.1429z"/>
<path d="m395.72,721.01-1.1607,2.5892 9.6428,6.3393 .625-2.8572z"/>
<path d="m406.68,729.98-.2679,3.4821 7.2321,4.9107 .4465-3.3929z"/>
</g>
<g fill="#9e8f87" transform="matrix(1.3679 0 0 1.3679 -65.966 -631.35)">
<path d="m347.09,715.95-.1569,11.012 8.8165,.4237 .2616-11.548z"/>
<path d="m338.68,715.48-.2462,10.744 6.763,.2451 .083-11.012z"/>
<path d="m342.47,727.96-.1602,8.8129 8.9987,.3391 .2671-9.2417z"/>
<path d="m346.59,737.72-.1571,9.9116 8.8215,.3813 .2618-10.394z"/>
<path d="m341.63,748.84-.1678,10.417 9.4212,.4008 .2795-10.924z"/>
<path d="m341.07,761.1-.105,8.4056 5.9061,.3234 .1752-8.8146z"/>
<path d="m348.27,761.27-.1342,8.4814 7.5391,.3263 .2237-8.8941z"/>
<path d="m344.06,770.96-.1511,7.2932 8.4904,.2806 .2519-7.6481z"/>
<path d="m348.98,780.35-.1217,9.9233 6.8454,.3818 .2031-10.406z"/>
<path d="m403.54,751.76-.1083,7.898 6.0845,.3039 .1807-8.2822z"/>
<path d="m406.97,762.05-.054,7.6696 3.0061,.2951 .089-8.0428z"/>
<path d="m400.51,771.02-.1282,9.2434 7.1929,.3556 .2134-9.6932z"/>
<path d="m398.4,781.71-.07,6.8093 3.9449,.262 .117-7.1406z"/>
<path d="m402.93,782.77-.085,6.8107 4.7992,.262 .1423-7.142z"/>
<path d="m398.37,790.63-.1172,9.7556 6.5886,.3753 .1954-10.23z"/>
<path d="m400.04,807.23-.087,7.2312 4.8699,.2782 .1444-7.5831z"/>
<path d="m394.78,815.04-.097,7.7342 5.4822,.2976 .1627-8.1105z"/>
</g>
</g>
<g transform="translate(-46.162 -461.69)">
<path fill="url(#linearGradient8933)" d="m397.81,489.09 26.312,23.25c129.88,27.695 241.83,16.941 360.03-2.5938-.003-4.8092-.0116-9.4884 0-14.094l-386.34-6.5625z" transform="translate(53.822 461.1)"/>
<path fill="url(#linearGradient8935)" d="m517.78,496.09c-30.997,.007-61.531,.3075-90.938,1.125l1.3438,8.1562c161.19,14.092 196.61,1.023 355.94-.5312 .001-2.5482 .026-4.9479 .0313-7.4375-82.4,1.052-176.37-1.3331-266.38-1.3125z" transform="translate(53.822 461.1)"/>
<path fill="url(#radialGradient8937)" d="m130.78,269.03c-56.927,.3063-109.37,17.562-133.72,41.875-2.7992,80.8384-5.2322,165.112-3.9795,285.7604 403.35,12.881 441.3747,3.1186 584.6447,1.6088-58.355-29.233-170.5827-106.5962-268.3227-247.7192-41.36-59.718-112.97-81.885-178.62-81.531z" transform="translate(53.822 461.1)"/>
<path fill="url(#radialGradient8654)" d="m131.77,639.8c8.6664-13.541 22.138-28.177 35.336-40.424 13.121,11.109 26.389,21.629 37.619,40.306z"/>
<path fill="#333" d="m161.25,580.49c0,3.5997-11.992,6.5179-26.786,6.5179-14.793,0-26.786-2.9181-26.786-6.5179 0-3.5997 11.992-6.5178 26.786-6.5178 14.793,0 26.786,2.9181 26.786,6.5178z" transform="matrix(1.3679 0 0 1.3679 -15.651 -153.29)"/>
<path fill="url(#linearGradient8650)" d="m220.64,739.29c-13.886-26.053-21.6-64.442-30.156-100.27-12.735-1.9552-25.635-3.6282-42.837,2.0728-3.043,36.738-10.871,72.466-18.899,106.49z"/>
<path fill="#a3948d" d="m156.03,721.68 11.573,.0784c-.2337-14.915-12.136-23.107-11.573-.0784z"/>
<path fill="#554a46" d="m156.47,721.41 10.882-.0863c-.4998-12.978-11.4-22.607-10.882,.0863z"/>
<path fill="#2590d1" d="m156.38,720.64 9.6728-.6909c-.9316-11.683-9.6728-19.411-9.6728,.6909z"/>
</g>
<g transform="matrix(1.3679 0 0 1.3679 -65.966 -631.35)">
<path fill="#a3948d" d="m150.41,624.66 6.3212,.0428c-.1276-8.1465-6.6284-12.62-6.3212-.0428z"/>
<path fill="#554a46" d="m150.65,624.52 5.8768,.0529c-.273-7.0884-6.1598-12.447-5.8768-.0529z"/>
<path fill="#2590d1" d="m150.57,624.53 5.4499-.0438c-.5088-6.3808-5.2831-12.803-5.4499,.0438z"/>
</g>
<g fill="#a3948d" stroke="#554a46">
<g transform="matrix(1.3679 0 0 1.3679 -65.966 -631.35)">
<path d="m154.62,597.54h-5.9346l.2525,2.2728-.3157,1.5152h7.1973z"/>
<path stroke-width=".855" d="m156.18,602.02h-4.3182l-.3238,1.9432 .1079,1.2954h5.5596z"/>
<path d="m157.39,605.86h-4.672l.1263,2.2728 .947,1.5152h4.7982z"/>
<path d="m148.43,597.54h-6.2503l.2525,2.2728-.3157,1.5152h6.1872l.4398-1.8289z"/>
<path stroke-width=".868" d="m151.47,602.03h-4.3848l-.3288,1.9732 .1096,1.3154h5.6454z"/>
<path d="m152.72,605.74-4.672,.0631 .1263,1.6415 .947,.6313 3.2199-.1263z"/>
</g>
<g transform="matrix(1.3679 0 0 1.3679 -65.966 -631.35)">
<path d="m164.47,636.43h-5.9346l.2525,2.2728-.3157,1.5152h7.1973z"/>
<path stroke-width=".855" d="m166.03,640.91h-4.3182l-.3238,1.9432 .1079,1.2954h5.5596z"/>
<path d="m167.24,644.76h-4.672l.1263,2.2728 .947,1.5152h4.7982z"/>
<path d="m158.28,636.43h-6.2503l.2525,2.2728-.3157,1.5152h6.1872l.4398-1.8289z"/>
<path stroke-width=".868" d="m161.32,640.92h-4.3848l-.3288,1.9732 .1096,1.3154h5.6454z"/>
<path d="m162.57,644.63-4.672,.0631 .1263,1.6415 .947,2.1492 4.4699,.1416-1.3123-1.8343z"/>
<path d="m168.66,648.93h-5.9346l.2525,2.2728-.3157,1.5152h7.1973z"/>
<path d="m162.47,648.93h-6.2503l.2525,2.2728-.3157,1.5152h6.1872l.4398-1.8289z"/>
<path stroke-width=".868" d="m156.14,648.87h-4.3848l-.3288,1.9732-.1582,1.7619 4.8418,.2679z"/>
</g>
</g>
<g transform="translate(-46.162 -461.69)">
<path fill="url(#linearGradient8623)" d="m71.052,569.44c.0139-3.4406 2.0949-4.4688 3.4546-6.5637 33.664,13.244 68.658,28.143 105.71,45.601l-2.0727,3.4546z"/>
<path fill="url(#linearGradient8620)" d="m71.876,569.16c-5.4685,8.9016-10.297,17.931-13.473,27.291 33.453,12.703 60.997,17.133 90.165,23.837l1.2091-19.691z"/>
<path fill="url(#linearGradient8617)" d="m245.99,518.32c2.7402,.827 3.9086,1.4984 4.8186,4.1556l-68.482,89.334-2.8586-2.1479z"/>
<path fill="url(#linearGradient8614)" d="m245.47,519.37c-8.1989-8.0446-15.932-13.692-23.693-19.546-13.614,21.684-22.218,49.242-33.308,75.975l11.336,6.2771z"/>
<path fill="url(#linearGradient8611)" d="m283.44,656.35c-.9906,2.2136-1.9809,4.427-3.8706,7.0902l-101.05-51.374 2.2606-3.3347z"/>
<path fill="url(#linearGradient8608)" d="m282.76,656.48c3.7763-6.4035 8.3717-12.83 10.307-20.614-24.396-11.15-48.862-22.053-75.063-26.886-1.0475,8.0996-1.4652,11.762-2.0728,16.342z"/>
<path fill="url(#linearGradient8605)" d="m104.49,713.62c-2.6737-.56-4.3341-2.1333-6.123-3.5782l81.771-102.8 2.81,2.8869z"/>
<path fill="url(#radialGradient8939)" d="m823.75,670.62c0,2.8354-2.2186,5.1339-4.9554,5.1339s-4.9554-2.2985-4.9554-5.1339 2.2186-5.1339 4.9554-5.1339 4.9554,2.2985 4.9554,5.1339z" transform="matrix(.89214 0 0 .89214 -549.85 13.107)"/>
<path fill="url(#linearGradient8601)" d="m104.22,713.72c9.7768,7.0706 19.241,14.453 31.232,19.311 12.96-24.969 26.128-49.67 34.659-80.334-5.1806-5.3336-8.3116-6.568-12.337-9.5905z"/>
</g>
<g transform="matrix(1.4802 -.78671 .8078 1.44149 -755.62014 -526.19406)">
<path fill="url(#radialGradient8941)" d="m190.95,806.77c.9631,.2641 1.4244,1.237 1.0304,2.1729-.394,.9359-2.0788,3.1024-3.0419,2.8383-.9631-.2641-.8398-2.8589-.4458-3.7948 .394-.936 1.4942-1.4806 2.4573-1.2164z"/>
<path fill="url(#radialGradient8943)" d="m184.47,809.98c.2943-1.0249 1.2022-1.5866 2.0279-1.2546 .8257,.332 2.6929,1.9052 2.3986,2.9301-.2943,1.0249-2.6386,1.1136-3.4643,.7815-.8257-.332-1.2565-1.4321-.9622-2.457z"/>
<path fill="url(#radialGradient8945)" d="m193.79,813.52c-.331,1.0249-1.3523,1.5866-2.2811,1.2546-.9288-.332-3.0292-1.9052-2.6982-2.9301 .331-1.0249 2.9681-1.1136 3.8969-.7815 .9288,.332 1.4134,1.4321 1.0824,2.457z"/>
<path fill="url(#radialGradient8947)" d="m186.88,816.1c-.9631-.2543-1.4244-1.191-1.0304-2.0922 .394-.9012 2.0788-2.9872 3.0419-2.7329 .9631,.2543 .8398,2.7527 .4458,3.6539-.394,.9012-1.4942,1.4256-2.4573,1.1712z"/>
<path fill="url(#linearGradient8949)" d="m823.75,670.62c0,2.8354-2.2186,5.1339-4.9554,5.1339s-4.9554-2.2985-4.9554-5.1339 2.2186-5.1339 4.9554-5.1339 4.9554,2.2985 4.9554,5.1339z" transform="matrix(.23043 0 0 .23043 .31765 657.08)"/>
</g>
<g transform="matrix(1.12982 -.77115 .77115 1.12982 -667.18541 -306.8978)">
<path fill="url(#radialGradient8941)" d="m190.95,806.77c.9631,.2641 1.4244,1.237 1.0304,2.1729-.394,.9359-2.0788,3.1024-3.0419,2.8383-.9631-.2641-.8398-2.8589-.4458-3.7948 .394-.936 1.4942-1.4806 2.4573-1.2164z"/>
<path fill="url(#radialGradient8943)" d="m184.47,809.98c.2943-1.0249 1.2022-1.5866 2.0279-1.2546 .8257,.332 2.6929,1.9052 2.3986,2.9301-.2943,1.0249-2.6386,1.1136-3.4643,.7815-.8257-.332-1.2565-1.4321-.9622-2.457z"/>
<path fill="url(#radialGradient8945)" d="m193.79,813.52c-.331,1.0249-1.3523,1.5866-2.2811,1.2546-.9288-.332-3.0292-1.9052-2.6982-2.9301 .331-1.0249 2.9681-1.1136 3.8969-.7815 .9288,.332 1.4134,1.4321 1.0824,2.457z"/>
<path fill="url(#radialGradient8947)" d="m186.88,816.1c-.9631-.2543-1.4244-1.191-1.0304-2.0922 .394-.9012 2.0788-2.9872 3.0419-2.7329 .9631,.2543 .8398,2.7527 .4458,3.6539-.394,.9012-1.4942,1.4256-2.4573,1.1712z"/>
<path fill="url(#linearGradient8949)" d="m823.75,670.62c0,2.8354-2.2186,5.1339-4.9554,5.1339s-4.9554-2.2985-4.9554-5.1339 2.2186-5.1339 4.9554-5.1339 4.9554,2.2985 4.9554,5.1339z" transform="matrix(.23043 0 0 .23043 .31765 657.08)"/>
</g>
<g transform="matrix(1.7862 -.46514 .47301 1.75652 -577.71107 -846.23341)">
<path fill="url(#radialGradient8941)" d="m190.95,806.77c.9631,.2641 1.4244,1.237 1.0304,2.1729-.394,.9359-2.0788,3.1024-3.0419,2.8383-.9631-.2641-.8398-2.8589-.4458-3.7948 .394-.936 1.4942-1.4806 2.4573-1.2164z"/>
<path fill="url(#radialGradient8943)" d="m184.47,809.98c.2943-1.0249 1.2022-1.5866 2.0279-1.2546 .8257,.332 2.6929,1.9052 2.3986,2.9301-.2943,1.0249-2.6386,1.1136-3.4643,.7815-.8257-.332-1.2565-1.4321-.9622-2.457z"/>
<path fill="url(#radialGradient8945)" d="m193.79,813.52c-.331,1.0249-1.3523,1.5866-2.2811,1.2546-.9288-.332-3.0292-1.9052-2.6982-2.9301 .331-1.0249 2.9681-1.1136 3.8969-.7815 .9288,.332 1.4134,1.4321 1.0824,2.457z"/>
<path fill="url(#radialGradient8947)" d="m186.88,816.1c-.9631-.2543-1.4244-1.191-1.0304-2.0922 .394-.9012 2.0788-2.9872 3.0419-2.7329 .9631,.2543 .8398,2.7527 .4458,3.6539-.394,.9012-1.4942,1.4256-2.4573,1.1712z"/>
<path fill="url(#linearGradient8949)" d="m823.75,670.62c0,2.8354-2.2186,5.1339-4.9554,5.1339s-4.9554-2.2985-4.9554-5.1339 2.2186-5.1339 4.9554-5.1339 4.9554,2.2985 4.9554,5.1339z" transform="matrix(.23043 0 0 .23043 .31765 657.08)"/>
</g>
<g transform="matrix(.98396 .95025 -.95025 .98396 694.28546 -501.13823)">
<path fill="url(#radialGradient8941)" d="m190.95,806.77c.9631,.2641 1.4244,1.237 1.0304,2.1729-.394,.9359-2.0788,3.1024-3.0419,2.8383-.9631-.2641-.8398-2.8589-.4458-3.7948 .394-.936 1.4942-1.4806 2.4573-1.2164z"/>
<path fill="url(#radialGradient8943)" d="m184.47,809.98c.2943-1.0249 1.2022-1.5866 2.0279-1.2546 .8257,.332 2.6929,1.9052 2.3986,2.9301-.2943,1.0249-2.6386,1.1136-3.4643,.7815-.8257-.332-1.2565-1.4321-.9622-2.457z"/>
<path fill="url(#radialGradient8945)" d="m193.79,813.52c-.331,1.0249-1.3523,1.5866-2.2811,1.2546-.9288-.332-3.0292-1.9052-2.6982-2.9301 .331-1.0249 2.9681-1.1136 3.8969-.7815 .9288,.332 1.4134,1.4321 1.0824,2.457z"/>
<path fill="url(#radialGradient8947)" d="m186.88,816.1c-.9631-.2543-1.4244-1.191-1.0304-2.0922 .394-.9012 2.0788-2.9872 3.0419-2.7329 .9631,.2543 .8398,2.7527 .4458,3.6539-.394,.9012-1.4942,1.4256-2.4573,1.1712z"/>
<path fill="url(#linearGradient8949)" d="m823.75,670.62c0,2.8354-2.2186,5.1339-4.9554,5.1339s-4.9554-2.2985-4.9554-5.1339 2.2186-5.1339 4.9554-5.1339 4.9554,2.2985 4.9554,5.1339z" transform="matrix(.23043 0 0 .23043 .31765 657.08)"/>
</g>
<g transform="matrix(1.0703 .85183 -.85183 1.0703 615.3166 -567.08059)">
<path fill="url(#radialGradient8941)" d="m190.95,806.77c.9631,.2641 1.4244,1.237 1.0304,2.1729-.394,.9359-2.0788,3.1024-3.0419,2.8383-.9631-.2641-.8398-2.8589-.4458-3.7948 .394-.936 1.4942-1.4806 2.4573-1.2164z"/>
<path fill="url(#radialGradient8943)" d="m184.47,809.98c.2943-1.0249 1.2022-1.5866 2.0279-1.2546 .8257,.332 2.6929,1.9052 2.3986,2.9301-.2943,1.0249-2.6386,1.1136-3.4643,.7815-.8257-.332-1.2565-1.4321-.9622-2.457z"/>
<path fill="url(#radialGradient8945)" d="m193.79,813.52c-.331,1.0249-1.3523,1.5866-2.2811,1.2546-.9288-.332-3.0292-1.9052-2.6982-2.9301 .331-1.0249 2.9681-1.1136 3.8969-.7815 .9288,.332 1.4134,1.4321 1.0824,2.457z"/>
<path fill="url(#radialGradient8947)" d="m186.88,816.1c-.9631-.2543-1.4244-1.191-1.0304-2.0922 .394-.9012 2.0788-2.9872 3.0419-2.7329 .9631,.2543 .8398,2.7527 .4458,3.6539-.394,.9012-1.4942,1.4256-2.4573,1.1712z"/>
<path fill="url(#linearGradient8949)" d="m823.75,670.62c0,2.8354-2.2186,5.1339-4.9554,5.1339s-4.9554-2.2985-4.9554-5.1339 2.2186-5.1339 4.9554-5.1339 4.9554,2.2985 4.9554,5.1339z" transform="matrix(.23043 0 0 .23043 .31765 657.08)"/>
</g>
<g transform="matrix(.79792 .34102 -.34102 .79792 272.83547 -275.34035)">
<path fill="url(#radialGradient8941)" d="m190.95,806.77c.9631,.2641 1.4244,1.237 1.0304,2.1729-.394,.9359-2.0788,3.1024-3.0419,2.8383-.9631-.2641-.8398-2.8589-.4458-3.7948 .394-.936 1.4942-1.4806 2.4573-1.2164z"/>
<path fill="url(#radialGradient8943)" d="m184.47,809.98c.2943-1.0249 1.2022-1.5866 2.0279-1.2546 .8257,.332 2.6929,1.9052 2.3986,2.9301-.2943,1.0249-2.6386,1.1136-3.4643,.7815-.8257-.332-1.2565-1.4321-.9622-2.457z"/>
<path fill="url(#radialGradient8945)" d="m193.79,813.52c-.331,1.0249-1.3523,1.5866-2.2811,1.2546-.9288-.332-3.0292-1.9052-2.6982-2.9301 .331-1.0249 2.9681-1.1136 3.8969-.7815 .9288,.332 1.4134,1.4321 1.0824,2.457z"/>
<path fill="url(#radialGradient8947)" d="m186.88,816.1c-.9631-.2543-1.4244-1.191-1.0304-2.0922 .394-.9012 2.0788-2.9872 3.0419-2.7329 .9631,.2543 .8398,2.7527 .4458,3.6539-.394,.9012-1.4942,1.4256-2.4573,1.1712z"/>
<path fill="url(#linearGradient8949)" d="m823.75,670.62c0,2.8354-2.2186,5.1339-4.9554,5.1339s-4.9554-2.2985-4.9554-5.1339 2.2186-5.1339 4.9554-5.1339 4.9554,2.2985 4.9554,5.1339z" transform="matrix(.23043 0 0 .23043 .31765 657.08)"/>
</g>
<g transform="matrix(.82928 0 0 .82928 -31.10096 -233.16799)">
<path fill="url(#radialGradient8941)" d="m190.95,806.77c.9631,.2641 1.4244,1.237 1.0304,2.1729-.394,.9359-2.0788,3.1024-3.0419,2.8383-.9631-.2641-.8398-2.8589-.4458-3.7948 .394-.936 1.4942-1.4806 2.4573-1.2164z"/>
<path fill="url(#radialGradient8943)" d="m184.47,809.98c.2943-1.0249 1.2022-1.5866 2.0279-1.2546 .8257,.332 2.6929,1.9052 2.3986,2.9301-.2943,1.0249-2.6386,1.1136-3.4643,.7815-.8257-.332-1.2565-1.4321-.9622-2.457z"/>
<path fill="url(#radialGradient8945)" d="m193.79,813.52c-.331,1.0249-1.3523,1.5866-2.2811,1.2546-.9288-.332-3.0292-1.9052-2.6982-2.9301 .331-1.0249 2.9681-1.1136 3.8969-.7815 .9288,.332 1.4134,1.4321 1.0824,2.457z"/>
<path fill="url(#radialGradient8947)" d="m186.88,816.1c-.9631-.2543-1.4244-1.191-1.0304-2.0922 .394-.9012 2.0788-2.9872 3.0419-2.7329 .9631,.2543 .8398,2.7527 .4458,3.6539-.394,.9012-1.4942,1.4256-2.4573,1.1712z"/>
<path fill="url(#linearGradient8949)" d="m823.75,670.62c0,2.8354-2.2186,5.1339-4.9554,5.1339s-4.9554-2.2985-4.9554-5.1339 2.2186-5.1339 4.9554-5.1339 4.9554,2.2985 4.9554,5.1339z" transform="matrix(.23043 0 0 .23043 .31765 657.08)"/>
</g>
<g transform="matrix(1.27235 -.50225 .50225 1.27235 -553.48556 -477.98105)">
<path fill="url(#radialGradient8941)" d="m190.95,806.77c.9631,.2641 1.4244,1.237 1.0304,2.1729-.394,.9359-2.0788,3.1024-3.0419,2.8383-.9631-.2641-.8398-2.8589-.4458-3.7948 .394-.936 1.4942-1.4806 2.4573-1.2164z"/>
<path fill="url(#radialGradient8943)" d="m184.47,809.98c.2943-1.0249 1.2022-1.5866 2.0279-1.2546 .8257,.332 2.6929,1.9052 2.3986,2.9301-.2943,1.0249-2.6386,1.1136-3.4643,.7815-.8257-.332-1.2565-1.4321-.9622-2.457z"/>
<path fill="url(#radialGradient8945)" d="m193.79,813.52c-.331,1.0249-1.3523,1.5866-2.2811,1.2546-.9288-.332-3.0292-1.9052-2.6982-2.9301 .331-1.0249 2.9681-1.1136 3.8969-.7815 .9288,.332 1.4134,1.4321 1.0824,2.457z"/>
<path fill="url(#radialGradient8947)" d="m186.88,816.1c-.9631-.2543-1.4244-1.191-1.0304-2.0922 .394-.9012 2.0788-2.9872 3.0419-2.7329 .9631,.2543 .8398,2.7527 .4458,3.6539-.394,.9012-1.4942,1.4256-2.4573,1.1712z"/>
<path fill="url(#linearGradient8949)" d="m823.75,670.62c0,2.8354-2.2186,5.1339-4.9554,5.1339s-4.9554-2.2985-4.9554-5.1339 2.2186-5.1339 4.9554-5.1339 4.9554,2.2985 4.9554,5.1339z" transform="matrix(.23043 0 0 .23043 .31765 657.08)"/>
</g>
<g transform="matrix(.89022 0 0 .89022 -91.23385 -292.24759)">
<path fill="url(#radialGradient8941)" d="m190.95,806.77c.9631,.2641 1.4244,1.237 1.0304,2.1729-.394,.9359-2.0788,3.1024-3.0419,2.8383-.9631-.2641-.8398-2.8589-.4458-3.7948 .394-.936 1.4942-1.4806 2.4573-1.2164z"/>
<path fill="url(#radialGradient8943)" d="m184.47,809.98c.2943-1.0249 1.2022-1.5866 2.0279-1.2546 .8257,.332 2.6929,1.9052 2.3986,2.9301-.2943,1.0249-2.6386,1.1136-3.4643,.7815-.8257-.332-1.2565-1.4321-.9622-2.457z"/>
<path fill="url(#radialGradient8945)" d="m193.79,813.52c-.331,1.0249-1.3523,1.5866-2.2811,1.2546-.9288-.332-3.0292-1.9052-2.6982-2.9301 .331-1.0249 2.9681-1.1136 3.8969-.7815 .9288,.332 1.4134,1.4321 1.0824,2.457z"/>
<path fill="url(#radialGradient8947)" d="m186.88,816.1c-.9631-.2543-1.4244-1.191-1.0304-2.0922 .394-.9012 2.0788-2.9872 3.0419-2.7329 .9631,.2543 .8398,2.7527 .4458,3.6539-.394,.9012-1.4942,1.4256-2.4573,1.1712z"/>
<path fill="url(#linearGradient8949)" d="m823.75,670.62c0,2.8354-2.2186,5.1339-4.9554,5.1339s-4.9554-2.2985-4.9554-5.1339 2.2186-5.1339 4.9554-5.1339 4.9554,2.2985 4.9554,5.1339z" transform="matrix(.23043 0 0 .23043 .31765 657.08)"/>
</g>
<g transform="matrix(.8354 .88375 -.88375 .8354 667.88499 -419.87266)">
<path fill="url(#radialGradient8941)" d="m190.95,806.77c.9631,.2641 1.4244,1.237 1.0304,2.1729-.394,.9359-2.0788,3.1024-3.0419,2.8383-.9631-.2641-.8398-2.8589-.4458-3.7948 .394-.936 1.4942-1.4806 2.4573-1.2164z"/>
<path fill="url(#radialGradient8943)" d="m184.47,809.98c.2943-1.0249 1.2022-1.5866 2.0279-1.2546 .8257,.332 2.6929,1.9052 2.3986,2.9301-.2943,1.0249-2.6386,1.1136-3.4643,.7815-.8257-.332-1.2565-1.4321-.9622-2.457z"/>
<path fill="url(#radialGradient8945)" d="m193.79,813.52c-.331,1.0249-1.3523,1.5866-2.2811,1.2546-.9288-.332-3.0292-1.9052-2.6982-2.9301 .331-1.0249 2.9681-1.1136 3.8969-.7815 .9288,.332 1.4134,1.4321 1.0824,2.457z"/>
<path fill="url(#radialGradient8947)" d="m186.88,816.1c-.9631-.2543-1.4244-1.191-1.0304-2.0922 .394-.9012 2.0788-2.9872 3.0419-2.7329 .9631,.2543 .8398,2.7527 .4458,3.6539-.394,.9012-1.4942,1.4256-2.4573,1.1712z"/>
<path fill="url(#linearGradient8949)" d="m823.75,670.62c0,2.8354-2.2186,5.1339-4.9554,5.1339s-4.9554-2.2985-4.9554-5.1339 2.2186-5.1339 4.9554-5.1339 4.9554,2.2985 4.9554,5.1339z" transform="matrix(.23043 0 0 .23043 .31765 657.08)"/>
</g>
<g transform="matrix(.77401 0 0 .77401 -11.66995 -209.43492)">
<path fill="url(#radialGradient8941)" d="m190.95,806.77c.9631,.2641 1.4244,1.237 1.0304,2.1729-.394,.9359-2.0788,3.1024-3.0419,2.8383-.9631-.2641-.8398-2.8589-.4458-3.7948 .394-.936 1.4942-1.4806 2.4573-1.2164z"/>
<path fill="url(#radialGradient8943)" d="m184.47,809.98c.2943-1.0249 1.2022-1.5866 2.0279-1.2546 .8257,.332 2.6929,1.9052 2.3986,2.9301-.2943,1.0249-2.6386,1.1136-3.4643,.7815-.8257-.332-1.2565-1.4321-.9622-2.457z"/>
<path fill="url(#radialGradient8945)" d="m193.79,813.52c-.331,1.0249-1.3523,1.5866-2.2811,1.2546-.9288-.332-3.0292-1.9052-2.6982-2.9301 .331-1.0249 2.9681-1.1136 3.8969-.7815 .9288,.332 1.4134,1.4321 1.0824,2.457z"/>
<path fill="url(#radialGradient8947)" d="m186.88,816.1c-.9631-.2543-1.4244-1.191-1.0304-2.0922 .394-.9012 2.0788-2.9872 3.0419-2.7329 .9631,.2543 .8398,2.7527 .4458,3.6539-.394,.9012-1.4942,1.4256-2.4573,1.1712z"/>
<path fill="url(#linearGradient8949)" d="m823.75,670.62c0,2.8354-2.2186,5.1339-4.9554,5.1339s-4.9554-2.2985-4.9554-5.1339 2.2186-5.1339 4.9554-5.1339 4.9554,2.2985 4.9554,5.1339z" transform="matrix(.23043 0 0 .23043 .31765 657.08)"/>
</g>
<g transform="matrix(.99424 .33682 -.33682 .99424 194.87885 -459.66487)">
<path fill="url(#radialGradient8941)" d="m190.95,806.77c.9631,.2641 1.4244,1.237 1.0304,2.1729-.394,.9359-2.0788,3.1024-3.0419,2.8383-.9631-.2641-.8398-2.8589-.4458-3.7948 .394-.936 1.4942-1.4806 2.4573-1.2164z"/>
<path fill="url(#radialGradient8943)" d="m184.47,809.98c.2943-1.0249 1.2022-1.5866 2.0279-1.2546 .8257,.332 2.6929,1.9052 2.3986,2.9301-.2943,1.0249-2.6386,1.1136-3.4643,.7815-.8257-.332-1.2565-1.4321-.9622-2.457z"/>
<path fill="url(#radialGradient8945)" d="m193.79,813.52c-.331,1.0249-1.3523,1.5866-2.2811,1.2546-.9288-.332-3.0292-1.9052-2.6982-2.9301 .331-1.0249 2.9681-1.1136 3.8969-.7815 .9288,.332 1.4134,1.4321 1.0824,2.457z"/>
<path fill="url(#radialGradient8947)" d="m186.88,816.1c-.9631-.2543-1.4244-1.191-1.0304-2.0922 .394-.9012 2.0788-2.9872 3.0419-2.7329 .9631,.2543 .8398,2.7527 .4458,3.6539-.394,.9012-1.4942,1.4256-2.4573,1.1712z"/>
<path fill="url(#linearGradient8949)" d="m823.75,670.62c0,2.8354-2.2186,5.1339-4.9554,5.1339s-4.9554-2.2985-4.9554-5.1339 2.2186-5.1339 4.9554-5.1339 4.9554,2.2985 4.9554,5.1339z" transform="matrix(.23043 0 0 .23043 .31765 657.08)"/>
</g>
<g transform="matrix(.92894 0 0 .92894 -65.2713 -358.38556)">
<path fill="url(#radialGradient8941)" d="m190.95,806.77c.9631,.2641 1.4244,1.237 1.0304,2.1729-.394,.9359-2.0788,3.1024-3.0419,2.8383-.9631-.2641-.8398-2.8589-.4458-3.7948 .394-.936 1.4942-1.4806 2.4573-1.2164z"/>
<path fill="url(#radialGradient8943)" d="m184.47,809.98c.2943-1.0249 1.2022-1.5866 2.0279-1.2546 .8257,.332 2.6929,1.9052 2.3986,2.9301-.2943,1.0249-2.6386,1.1136-3.4643,.7815-.8257-.332-1.2565-1.4321-.9622-2.457z"/>
<path fill="url(#radialGradient8945)" d="m193.79,813.52c-.331,1.0249-1.3523,1.5866-2.2811,1.2546-.9288-.332-3.0292-1.9052-2.6982-2.9301 .331-1.0249 2.9681-1.1136 3.8969-.7815 .9288,.332 1.4134,1.4321 1.0824,2.457z"/>
<path fill="url(#radialGradient8947)" d="m186.88,816.1c-.9631-.2543-1.4244-1.191-1.0304-2.0922 .394-.9012 2.0788-2.9872 3.0419-2.7329 .9631,.2543 .8398,2.7527 .4458,3.6539-.394,.9012-1.4942,1.4256-2.4573,1.1712z"/>
<path fill="url(#linearGradient8949)" d="m823.75,670.62c0,2.8354-2.2186,5.1339-4.9554,5.1339s-4.9554-2.2985-4.9554-5.1339 2.2186-5.1339 4.9554-5.1339 4.9554,2.2985 4.9554,5.1339z" transform="matrix(.23043 0 0 .23043 .31765 657.08)"/>
</g>
<g transform="matrix(.7723 0 0 .7723 -42.1194 -248.42007)">
<path fill="url(#radialGradient8941)" d="m190.95,806.77c.9631,.2641 1.4244,1.237 1.0304,2.1729-.394,.9359-2.0788,3.1024-3.0419,2.8383-.9631-.2641-.8398-2.8589-.4458-3.7948 .394-.936 1.4942-1.4806 2.4573-1.2164z"/>
<path fill="url(#radialGradient8943)" d="m184.47,809.98c.2943-1.0249 1.2022-1.5866 2.0279-1.2546 .8257,.332 2.6929,1.9052 2.3986,2.9301-.2943,1.0249-2.6386,1.1136-3.4643,.7815-.8257-.332-1.2565-1.4321-.9622-2.457z"/>
<path fill="url(#radialGradient8945)" d="m193.79,813.52c-.331,1.0249-1.3523,1.5866-2.2811,1.2546-.9288-.332-3.0292-1.9052-2.6982-2.9301 .331-1.0249 2.9681-1.1136 3.8969-.7815 .9288,.332 1.4134,1.4321 1.0824,2.457z"/>
<path fill="url(#radialGradient8947)" d="m186.88,816.1c-.9631-.2543-1.4244-1.191-1.0304-2.0922 .394-.9012 2.0788-2.9872 3.0419-2.7329 .9631,.2543 .8398,2.7527 .4458,3.6539-.394,.9012-1.4942,1.4256-2.4573,1.1712z"/>
<path fill="url(#linearGradient8949)" d="m823.75,670.62c0,2.8354-2.2186,5.1339-4.9554,5.1339s-4.9554-2.2985-4.9554-5.1339 2.2186-5.1339 4.9554-5.1339 4.9554,2.2985 4.9554,5.1339z" transform="matrix(.23043 0 0 .23043 .31765 657.08)"/>
</g>
<g transform="matrix(1.06959 -.42892 .42892 1.06959 -472.7521 -401.40601)">
<path fill="url(#radialGradient8941)" d="m190.95,806.77c.9631,.2641 1.4244,1.237 1.0304,2.1729-.394,.9359-2.0788,3.1024-3.0419,2.8383-.9631-.2641-.8398-2.8589-.4458-3.7948 .394-.936 1.4942-1.4806 2.4573-1.2164z"/>
<path fill="url(#radialGradient8943)" d="m184.47,809.98c.2943-1.0249 1.2022-1.5866 2.0279-1.2546 .8257,.332 2.6929,1.9052 2.3986,2.9301-.2943,1.0249-2.6386,1.1136-3.4643,.7815-.8257-.332-1.2565-1.4321-.9622-2.457z"/>
<path fill="url(#radialGradient8945)" d="m193.79,813.52c-.331,1.0249-1.3523,1.5866-2.2811,1.2546-.9288-.332-3.0292-1.9052-2.6982-2.9301 .331-1.0249 2.9681-1.1136 3.8969-.7815 .9288,.332 1.4134,1.4321 1.0824,2.457z"/>
<path fill="url(#radialGradient8947)" d="m186.88,816.1c-.9631-.2543-1.4244-1.191-1.0304-2.0922 .394-.9012 2.0788-2.9872 3.0419-2.7329 .9631,.2543 .8398,2.7527 .4458,3.6539-.394,.9012-1.4942,1.4256-2.4573,1.1712z"/>
<path fill="url(#linearGradient8949)" d="m823.75,670.62c0,2.8354-2.2186,5.1339-4.9554,5.1339s-4.9554-2.2985-4.9554-5.1339 2.2186-5.1339 4.9554-5.1339 4.9554,2.2985 4.9554,5.1339z" transform="matrix(.23043 0 0 .23043 .31765 657.08)"/>
</g>
<g transform="matrix(.76752 .83606 -.83606 .76752 621.85516 -373.77443)">
<path fill="url(#radialGradient8941)" d="m190.95,806.77c.9631,.2641 1.4244,1.237 1.0304,2.1729-.394,.9359-2.0788,3.1024-3.0419,2.8383-.9631-.2641-.8398-2.8589-.4458-3.7948 .394-.936 1.4942-1.4806 2.4573-1.2164z"/>
<path fill="url(#radialGradient8943)" d="m184.47,809.98c.2943-1.0249 1.2022-1.5866 2.0279-1.2546 .8257,.332 2.6929,1.9052 2.3986,2.9301-.2943,1.0249-2.6386,1.1136-3.4643,.7815-.8257-.332-1.2565-1.4321-.9622-2.457z"/>
<path fill="url(#radialGradient8945)" d="m193.79,813.52c-.331,1.0249-1.3523,1.5866-2.2811,1.2546-.9288-.332-3.0292-1.9052-2.6982-2.9301 .331-1.0249 2.9681-1.1136 3.8969-.7815 .9288,.332 1.4134,1.4321 1.0824,2.457z"/>
<path fill="url(#radialGradient8947)" d="m186.88,816.1c-.9631-.2543-1.4244-1.191-1.0304-2.0922 .394-.9012 2.0788-2.9872 3.0419-2.7329 .9631,.2543 .8398,2.7527 .4458,3.6539-.394,.9012-1.4942,1.4256-2.4573,1.1712z"/>
<path fill="url(#linearGradient8949)" d="m823.75,670.62c0,2.8354-2.2186,5.1339-4.9554,5.1339s-4.9554-2.2985-4.9554-5.1339 2.2186-5.1339 4.9554-5.1339 4.9554,2.2985 4.9554,5.1339z" transform="matrix(.23043 0 0 .23043 .31765 657.08)"/>
</g>
<g transform="matrix(.72237 0 0 .72237 -45.2943 -195.38659)">
<path fill="url(#radialGradient8941)" d="m190.95,806.77c.9631,.2641 1.4244,1.237 1.0304,2.1729-.394,.9359-2.0788,3.1024-3.0419,2.8383-.9631-.2641-.8398-2.8589-.4458-3.7948 .394-.936 1.4942-1.4806 2.4573-1.2164z"/>
<path fill="url(#radialGradient8943)" d="m184.47,809.98c.2943-1.0249 1.2022-1.5866 2.0279-1.2546 .8257,.332 2.6929,1.9052 2.3986,2.9301-.2943,1.0249-2.6386,1.1136-3.4643,.7815-.8257-.332-1.2565-1.4321-.9622-2.457z"/>
<path fill="url(#radialGradient8945)" d="m193.79,813.52c-.331,1.0249-1.3523,1.5866-2.2811,1.2546-.9288-.332-3.0292-1.9052-2.6982-2.9301 .331-1.0249 2.9681-1.1136 3.8969-.7815 .9288,.332 1.4134,1.4321 1.0824,2.457z"/>
<path fill="url(#radialGradient8947)" d="m186.88,816.1c-.9631-.2543-1.4244-1.191-1.0304-2.0922 .394-.9012 2.0788-2.9872 3.0419-2.7329 .9631,.2543 .8398,2.7527 .4458,3.6539-.394,.9012-1.4942,1.4256-2.4573,1.1712z"/>
<path fill="url(#linearGradient8949)" d="m823.75,670.62c0,2.8354-2.2186,5.1339-4.9554,5.1339s-4.9554-2.2985-4.9554-5.1339 2.2186-5.1339 4.9554-5.1339 4.9554,2.2985 4.9554,5.1339z" transform="matrix(.23043 0 0 .23043 .31765 657.08)"/>
</g>
<g transform="matrix(.37334 .85391 -.85391 .37334 781.73531 -119.60493)">
<path fill="url(#radialGradient8941)" d="m190.95,806.77c.9631,.2641 1.4244,1.237 1.0304,2.1729-.394,.9359-2.0788,3.1024-3.0419,2.8383-.9631-.2641-.8398-2.8589-.4458-3.7948 .394-.936 1.4942-1.4806 2.4573-1.2164z"/>
<path fill="url(#radialGradient8943)" d="m184.47,809.98c.2943-1.0249 1.2022-1.5866 2.0279-1.2546 .8257,.332 2.6929,1.9052 2.3986,2.9301-.2943,1.0249-2.6386,1.1136-3.4643,.7815-.8257-.332-1.2565-1.4321-.9622-2.457z"/>
<path fill="url(#radialGradient8945)" d="m193.79,813.52c-.331,1.0249-1.3523,1.5866-2.2811,1.2546-.9288-.332-3.0292-1.9052-2.6982-2.9301 .331-1.0249 2.9681-1.1136 3.8969-.7815 .9288,.332 1.4134,1.4321 1.0824,2.457z"/>
<path fill="url(#radialGradient8947)" d="m186.88,816.1c-.9631-.2543-1.4244-1.191-1.0304-2.0922 .394-.9012 2.0788-2.9872 3.0419-2.7329 .9631,.2543 .8398,2.7527 .4458,3.6539-.394,.9012-1.4942,1.4256-2.4573,1.1712z"/>
<path fill="url(#linearGradient8949)" d="m823.75,670.62c0,2.8354-2.2186,5.1339-4.9554,5.1339s-4.9554-2.2985-4.9554-5.1339 2.2186-5.1339 4.9554-5.1339 4.9554,2.2985 4.9554,5.1339z" transform="matrix(.23043 0 0 .23043 .31765 657.08)"/>
</g>
<g transform="matrix(.08544 1.25465 -1.23576 .09446 1131.4663 8.52626)">
<path fill="url(#radialGradient8941)" d="m190.95,806.77c.9631,.2641 1.4244,1.237 1.0304,2.1729-.394,.9359-2.0788,3.1024-3.0419,2.8383-.9631-.2641-.8398-2.8589-.4458-3.7948 .394-.936 1.4942-1.4806 2.4573-1.2164z"/>
<path fill="url(#radialGradient8943)" d="m184.47,809.98c.2943-1.0249 1.2022-1.5866 2.0279-1.2546 .8257,.332 2.6929,1.9052 2.3986,2.9301-.2943,1.0249-2.6386,1.1136-3.4643,.7815-.8257-.332-1.2565-1.4321-.9622-2.457z"/>
<path fill="url(#radialGradient8945)" d="m193.79,813.52c-.331,1.0249-1.3523,1.5866-2.2811,1.2546-.9288-.332-3.0292-1.9052-2.6982-2.9301 .331-1.0249 2.9681-1.1136 3.8969-.7815 .9288,.332 1.4134,1.4321 1.0824,2.457z"/>
<path fill="url(#radialGradient8947)" d="m186.88,816.1c-.9631-.2543-1.4244-1.191-1.0304-2.0922 .394-.9012 2.0788-2.9872 3.0419-2.7329 .9631,.2543 .8398,2.7527 .4458,3.6539-.394,.9012-1.4942,1.4256-2.4573,1.1712z"/>
<path fill="url(#linearGradient8949)" d="m823.75,670.62c0,2.8354-2.2186,5.1339-4.9554,5.1339s-4.9554-2.2985-4.9554-5.1339 2.2186-5.1339 4.9554-5.1339 4.9554,2.2985 4.9554,5.1339z" transform="matrix(.23043 0 0 .23043 .31765 657.08)"/>
</g>
<g transform="matrix(-.76063 .53851 -.53851 -.76063 739.54927 816.43536)">
<path fill="url(#radialGradient8941)" d="m190.95,806.77c.9631,.2641 1.4244,1.237 1.0304,2.1729-.394,.9359-2.0788,3.1024-3.0419,2.8383-.9631-.2641-.8398-2.8589-.4458-3.7948 .394-.936 1.4942-1.4806 2.4573-1.2164z"/>
<path fill="url(#radialGradient8943)" d="m184.47,809.98c.2943-1.0249 1.2022-1.5866 2.0279-1.2546 .8257,.332 2.6929,1.9052 2.3986,2.9301-.2943,1.0249-2.6386,1.1136-3.4643,.7815-.8257-.332-1.2565-1.4321-.9622-2.457z"/>
<path fill="url(#radialGradient8945)" d="m193.79,813.52c-.331,1.0249-1.3523,1.5866-2.2811,1.2546-.9288-.332-3.0292-1.9052-2.6982-2.9301 .331-1.0249 2.9681-1.1136 3.8969-.7815 .9288,.332 1.4134,1.4321 1.0824,2.457z"/>
<path fill="url(#radialGradient8947)" d="m186.88,816.1c-.9631-.2543-1.4244-1.191-1.0304-2.0922 .394-.9012 2.0788-2.9872 3.0419-2.7329 .9631,.2543 .8398,2.7527 .4458,3.6539-.394,.9012-1.4942,1.4256-2.4573,1.1712z"/>
<path fill="url(#linearGradient8949)" d="m823.75,670.62c0,2.8354-2.2186,5.1339-4.9554,5.1339s-4.9554-2.2985-4.9554-5.1339 2.2186-5.1339 4.9554-5.1339 4.9554,2.2985 4.9554,5.1339z" transform="matrix(.23043 0 0 .23043 .31765 657.08)"/>
</g>
<g transform="matrix(-.70566 .60877 -.60877 -.70566 793.67708 771.84182)">
<path fill="url(#radialGradient8941)" d="m190.95,806.77c.9631,.2641 1.4244,1.237 1.0304,2.1729-.394,.9359-2.0788,3.1024-3.0419,2.8383-.9631-.2641-.8398-2.8589-.4458-3.7948 .394-.936 1.4942-1.4806 2.4573-1.2164z"/>
<path fill="url(#radialGradient8943)" d="m184.47,809.98c.2943-1.0249 1.2022-1.5866 2.0279-1.2546 .8257,.332 2.6929,1.9052 2.3986,2.9301-.2943,1.0249-2.6386,1.1136-3.4643,.7815-.8257-.332-1.2565-1.4321-.9622-2.457z"/>
<path fill="url(#radialGradient8945)" d="m193.79,813.52c-.331,1.0249-1.3523,1.5866-2.2811,1.2546-.9288-.332-3.0292-1.9052-2.6982-2.9301 .331-1.0249 2.9681-1.1136 3.8969-.7815 .9288,.332 1.4134,1.4321 1.0824,2.457z"/>
<path fill="url(#radialGradient8947)" d="m186.88,816.1c-.9631-.2543-1.4244-1.191-1.0304-2.0922 .394-.9012 2.0788-2.9872 3.0419-2.7329 .9631,.2543 .8398,2.7527 .4458,3.6539-.394,.9012-1.4942,1.4256-2.4573,1.1712z"/>
<path fill="url(#linearGradient8949)" d="m823.75,670.62c0,2.8354-2.2186,5.1339-4.9554,5.1339s-4.9554-2.2985-4.9554-5.1339 2.2186-5.1339 4.9554-5.1339 4.9554,2.2985 4.9554,5.1339z" transform="matrix(.23043 0 0 .23043 .31765 657.08)"/>
</g>
<g transform="matrix(-.32924 .49105 -.49105 -.32924 641.68971 505.71687)">
<path fill="url(#radialGradient8941)" d="m190.95,806.77c.9631,.2641 1.4244,1.237 1.0304,2.1729-.394,.9359-2.0788,3.1024-3.0419,2.8383-.9631-.2641-.8398-2.8589-.4458-3.7948 .394-.936 1.4942-1.4806 2.4573-1.2164z"/>
<path fill="url(#radialGradient8943)" d="m184.47,809.98c.2943-1.0249 1.2022-1.5866 2.0279-1.2546 .8257,.332 2.6929,1.9052 2.3986,2.9301-.2943,1.0249-2.6386,1.1136-3.4643,.7815-.8257-.332-1.2565-1.4321-.9622-2.457z"/>
<path fill="url(#radialGradient8945)" d="m193.79,813.52c-.331,1.0249-1.3523,1.5866-2.2811,1.2546-.9288-.332-3.0292-1.9052-2.6982-2.9301 .331-1.0249 2.9681-1.1136 3.8969-.7815 .9288,.332 1.4134,1.4321 1.0824,2.457z"/>
<path fill="url(#radialGradient8947)" d="m186.88,816.1c-.9631-.2543-1.4244-1.191-1.0304-2.0922 .394-.9012 2.0788-2.9872 3.0419-2.7329 .9631,.2543 .8398,2.7527 .4458,3.6539-.394,.9012-1.4942,1.4256-2.4573,1.1712z"/>
<path fill="url(#linearGradient8949)" d="m823.75,670.62c0,2.8354-2.2186,5.1339-4.9554,5.1339s-4.9554-2.2985-4.9554-5.1339 2.2186-5.1339 4.9554-5.1339 4.9554,2.2985 4.9554,5.1339z" transform="matrix(.23043 0 0 .23043 .31765 657.08)"/>
</g>
<g transform="matrix(-.1049 .55516 -.55516 -.1049 651.90792 296.90694)">
<path fill="url(#radialGradient8941)" d="m190.95,806.77c.9631,.2641 1.4244,1.237 1.0304,2.1729-.394,.9359-2.0788,3.1024-3.0419,2.8383-.9631-.2641-.8398-2.8589-.4458-3.7948 .394-.936 1.4942-1.4806 2.4573-1.2164z"/>
<path fill="url(#radialGradient8943)" d="m184.47,809.98c.2943-1.0249 1.2022-1.5866 2.0279-1.2546 .8257,.332 2.6929,1.9052 2.3986,2.9301-.2943,1.0249-2.6386,1.1136-3.4643,.7815-.8257-.332-1.2565-1.4321-.9622-2.457z"/>
<path fill="url(#radialGradient8945)" d="m193.79,813.52c-.331,1.0249-1.3523,1.5866-2.2811,1.2546-.9288-.332-3.0292-1.9052-2.6982-2.9301 .331-1.0249 2.9681-1.1136 3.8969-.7815 .9288,.332 1.4134,1.4321 1.0824,2.457z"/>
<path fill="url(#radialGradient8947)" d="m186.88,816.1c-.9631-.2543-1.4244-1.191-1.0304-2.0922 .394-.9012 2.0788-2.9872 3.0419-2.7329 .9631,.2543 .8398,2.7527 .4458,3.6539-.394,.9012-1.4942,1.4256-2.4573,1.1712z"/>
<path fill="url(#linearGradient8949)" d="m823.75,670.62c0,2.8354-2.2186,5.1339-4.9554,5.1339s-4.9554-2.2985-4.9554-5.1339 2.2186-5.1339 4.9554-5.1339 4.9554,2.2985 4.9554,5.1339z" transform="matrix(.23043 0 0 .23043 .31765 657.08)"/>
</g>
<g transform="matrix(.17528 .91533 -.91533 .17528 881.87927 -21.84112)">
<path fill="url(#radialGradient8941)" d="m190.95,806.77c.9631,.2641 1.4244,1.237 1.0304,2.1729-.394,.9359-2.0788,3.1024-3.0419,2.8383-.9631-.2641-.8398-2.8589-.4458-3.7948 .394-.936 1.4942-1.4806 2.4573-1.2164z"/>
<path fill="url(#radialGradient8943)" d="m184.47,809.98c.2943-1.0249 1.2022-1.5866 2.0279-1.2546 .8257,.332 2.6929,1.9052 2.3986,2.9301-.2943,1.0249-2.6386,1.1136-3.4643,.7815-.8257-.332-1.2565-1.4321-.9622-2.457z"/>
<path fill="url(#radialGradient8945)" d="m193.79,813.52c-.331,1.0249-1.3523,1.5866-2.2811,1.2546-.9288-.332-3.0292-1.9052-2.6982-2.9301 .331-1.0249 2.9681-1.1136 3.8969-.7815 .9288,.332 1.4134,1.4321 1.0824,2.457z"/>
<path fill="url(#radialGradient8947)" d="m186.88,816.1c-.9631-.2543-1.4244-1.191-1.0304-2.0922 .394-.9012 2.0788-2.9872 3.0419-2.7329 .9631,.2543 .8398,2.7527 .4458,3.6539-.394,.9012-1.4942,1.4256-2.4573,1.1712z"/>
<path fill="url(#linearGradient8949)" d="m823.75,670.62c0,2.8354-2.2186,5.1339-4.9554,5.1339s-4.9554-2.2985-4.9554-5.1339 2.2186-5.1339 4.9554-5.1339 4.9554,2.2985 4.9554,5.1339z" transform="matrix(.23043 0 0 .23043 .31765 657.08)"/>
</g>
<g transform="matrix(-.11261 .59597 -.59597 -.11261 699.07311 264.11838)">
<path fill="url(#radialGradient8941)" d="m190.95,806.77c.9631,.2641 1.4244,1.237 1.0304,2.1729-.394,.9359-2.0788,3.1024-3.0419,2.8383-.9631-.2641-.8398-2.8589-.4458-3.7948 .394-.936 1.4942-1.4806 2.4573-1.2164z"/>
<path fill="url(#radialGradient8943)" d="m184.47,809.98c.2943-1.0249 1.2022-1.5866 2.0279-1.2546 .8257,.332 2.6929,1.9052 2.3986,2.9301-.2943,1.0249-2.6386,1.1136-3.4643,.7815-.8257-.332-1.2565-1.4321-.9622-2.457z"/>
<path fill="url(#radialGradient8945)" d="m193.79,813.52c-.331,1.0249-1.3523,1.5866-2.2811,1.2546-.9288-.332-3.0292-1.9052-2.6982-2.9301 .331-1.0249 2.9681-1.1136 3.8969-.7815 .9288,.332 1.4134,1.4321 1.0824,2.457z"/>
<path fill="url(#radialGradient8947)" d="m186.88,816.1c-.9631-.2543-1.4244-1.191-1.0304-2.0922 .394-.9012 2.0788-2.9872 3.0419-2.7329 .9631,.2543 .8398,2.7527 .4458,3.6539-.394,.9012-1.4942,1.4256-2.4573,1.1712z"/>
<path fill="url(#linearGradient8949)" d="m823.75,670.62c0,2.8354-2.2186,5.1339-4.9554,5.1339s-4.9554-2.2985-4.9554-5.1339 2.2186-5.1339 4.9554-5.1339 4.9554,2.2985 4.9554,5.1339z" transform="matrix(.23043 0 0 .23043 .31765 657.08)"/>
</g>
<g transform="matrix(-.69731 .44748 -.44748 -.69731 688.48557 788.5302)">
<path fill="url(#radialGradient8941)" d="m190.95,806.77c.9631,.2641 1.4244,1.237 1.0304,2.1729-.394,.9359-2.0788,3.1024-3.0419,2.8383-.9631-.2641-.8398-2.8589-.4458-3.7948 .394-.936 1.4942-1.4806 2.4573-1.2164z"/>
<path fill="url(#radialGradient8943)" d="m184.47,809.98c.2943-1.0249 1.2022-1.5866 2.0279-1.2546 .8257,.332 2.6929,1.9052 2.3986,2.9301-.2943,1.0249-2.6386,1.1136-3.4643,.7815-.8257-.332-1.2565-1.4321-.9622-2.457z"/>
<path fill="url(#radialGradient8945)" d="m193.79,813.52c-.331,1.0249-1.3523,1.5866-2.2811,1.2546-.9288-.332-3.0292-1.9052-2.6982-2.9301 .331-1.0249 2.9681-1.1136 3.8969-.7815 .9288,.332 1.4134,1.4321 1.0824,2.457z"/>
<path fill="url(#radialGradient8947)" d="m186.88,816.1c-.9631-.2543-1.4244-1.191-1.0304-2.0922 .394-.9012 2.0788-2.9872 3.0419-2.7329 .9631,.2543 .8398,2.7527 .4458,3.6539-.394,.9012-1.4942,1.4256-2.4573,1.1712z"/>
<path fill="url(#linearGradient8949)" d="m823.75,670.62c0,2.8354-2.2186,5.1339-4.9554,5.1339s-4.9554-2.2985-4.9554-5.1339 2.2186-5.1339 4.9554-5.1339 4.9554,2.2985 4.9554,5.1339z" transform="matrix(.23043 0 0 .23043 .31765 657.08)"/>
</g>
<g transform="matrix(-.09791 .51817 -.51817 -.09791 633.56438 306.90629)">
<path fill="url(#radialGradient8941)" d="m190.95,806.77c.9631,.2641 1.4244,1.237 1.0304,2.1729-.394,.9359-2.0788,3.1024-3.0419,2.8383-.9631-.2641-.8398-2.8589-.4458-3.7948 .394-.936 1.4942-1.4806 2.4573-1.2164z"/>
<path fill="url(#radialGradient8943)" d="m184.47,809.98c.2943-1.0249 1.2022-1.5866 2.0279-1.2546 .8257,.332 2.6929,1.9052 2.3986,2.9301-.2943,1.0249-2.6386,1.1136-3.4643,.7815-.8257-.332-1.2565-1.4321-.9622-2.457z"/>
<path fill="url(#radialGradient8945)" d="m193.79,813.52c-.331,1.0249-1.3523,1.5866-2.2811,1.2546-.9288-.332-3.0292-1.9052-2.6982-2.9301 .331-1.0249 2.9681-1.1136 3.8969-.7815 .9288,.332 1.4134,1.4321 1.0824,2.457z"/>
<path fill="url(#radialGradient8947)" d="m186.88,816.1c-.9631-.2543-1.4244-1.191-1.0304-2.0922 .394-.9012 2.0788-2.9872 3.0419-2.7329 .9631,.2543 .8398,2.7527 .4458,3.6539-.394,.9012-1.4942,1.4256-2.4573,1.1712z"/>
<path fill="url(#linearGradient8949)" d="m823.75,670.62c0,2.8354-2.2186,5.1339-4.9554,5.1339s-4.9554-2.2985-4.9554-5.1339 2.2186-5.1339 4.9554-5.1339 4.9554,2.2985 4.9554,5.1339z" transform="matrix(.23043 0 0 .23043 .31765 657.08)"/>
</g>
<g transform="matrix(-.35126 .623 -.623 -.35126 774.95052 476.84051)">
<path fill="url(#radialGradient8941)" d="m190.95,806.77c.9631,.2641 1.4244,1.237 1.0304,2.1729-.394,.9359-2.0788,3.1024-3.0419,2.8383-.9631-.2641-.8398-2.8589-.4458-3.7948 .394-.936 1.4942-1.4806 2.4573-1.2164z"/>
<path fill="url(#radialGradient8943)" d="m184.47,809.98c.2943-1.0249 1.2022-1.5866 2.0279-1.2546 .8257,.332 2.6929,1.9052 2.3986,2.9301-.2943,1.0249-2.6386,1.1136-3.4643,.7815-.8257-.332-1.2565-1.4321-.9622-2.457z"/>
<path fill="url(#radialGradient8945)" d="m193.79,813.52c-.331,1.0249-1.3523,1.5866-2.2811,1.2546-.9288-.332-3.0292-1.9052-2.6982-2.9301 .331-1.0249 2.9681-1.1136 3.8969-.7815 .9288,.332 1.4134,1.4321 1.0824,2.457z"/>
<path fill="url(#radialGradient8947)" d="m186.88,816.1c-.9631-.2543-1.4244-1.191-1.0304-2.0922 .394-.9012 2.0788-2.9872 3.0419-2.7329 .9631,.2543 .8398,2.7527 .4458,3.6539-.394,.9012-1.4942,1.4256-2.4573,1.1712z"/>
<path fill="url(#linearGradient8949)" d="m823.75,670.62c0,2.8354-2.2186,5.1339-4.9554,5.1339s-4.9554-2.2985-4.9554-5.1339 2.2186-5.1339 4.9554-5.1339 4.9554,2.2985 4.9554,5.1339z" transform="matrix(.23043 0 0 .23043 .31765 657.08)"/>
</g>
<g transform="matrix(-.11751 .62189 -.62189 -.11751 740.0554 289.86225)">
<path fill="url(#radialGradient8941)" d="m190.95,806.77c.9631,.2641 1.4244,1.237 1.0304,2.1729-.394,.9359-2.0788,3.1024-3.0419,2.8383-.9631-.2641-.8398-2.8589-.4458-3.7948 .394-.936 1.4942-1.4806 2.4573-1.2164z"/>
<path fill="url(#radialGradient8943)" d="m184.47,809.98c.2943-1.0249 1.2022-1.5866 2.0279-1.2546 .8257,.332 2.6929,1.9052 2.3986,2.9301-.2943,1.0249-2.6386,1.1136-3.4643,.7815-.8257-.332-1.2565-1.4321-.9622-2.457z"/>
<path fill="url(#radialGradient8945)" d="m193.79,813.52c-.331,1.0249-1.3523,1.5866-2.2811,1.2546-.9288-.332-3.0292-1.9052-2.6982-2.9301 .331-1.0249 2.9681-1.1136 3.8969-.7815 .9288,.332 1.4134,1.4321 1.0824,2.457z"/>
<path fill="url(#radialGradient8947)" d="m186.88,816.1c-.9631-.2543-1.4244-1.191-1.0304-2.0922 .394-.9012 2.0788-2.9872 3.0419-2.7329 .9631,.2543 .8398,2.7527 .4458,3.6539-.394,.9012-1.4942,1.4256-2.4573,1.1712z"/>
<path fill="url(#linearGradient8949)" d="m823.75,670.62c0,2.8354-2.2186,5.1339-4.9554,5.1339s-4.9554-2.2985-4.9554-5.1339 2.2186-5.1339 4.9554-5.1339 4.9554,2.2985 4.9554,5.1339z" transform="matrix(.23043 0 0 .23043 .31765 657.08)"/>
</g>
<g transform="matrix(-.09769 .51703 -.51703 -.09769 663.52139 291.4627)">
<path fill="url(#radialGradient8941)" d="m190.95,806.77c.9631,.2641 1.4244,1.237 1.0304,2.1729-.394,.9359-2.0788,3.1024-3.0419,2.8383-.9631-.2641-.8398-2.8589-.4458-3.7948 .394-.936 1.4942-1.4806 2.4573-1.2164z"/>
<path fill="url(#radialGradient8943)" d="m184.47,809.98c.2943-1.0249 1.2022-1.5866 2.0279-1.2546 .8257,.332 2.6929,1.9052 2.3986,2.9301-.2943,1.0249-2.6386,1.1136-3.4643,.7815-.8257-.332-1.2565-1.4321-.9622-2.457z"/>
<path fill="url(#radialGradient8945)" d="m193.79,813.52c-.331,1.0249-1.3523,1.5866-2.2811,1.2546-.9288-.332-3.0292-1.9052-2.6982-2.9301 .331-1.0249 2.9681-1.1136 3.8969-.7815 .9288,.332 1.4134,1.4321 1.0824,2.457z"/>
<path fill="url(#radialGradient8947)" d="m186.88,816.1c-.9631-.2543-1.4244-1.191-1.0304-2.0922 .394-.9012 2.0788-2.9872 3.0419-2.7329 .9631,.2543 .8398,2.7527 .4458,3.6539-.394,.9012-1.4942,1.4256-2.4573,1.1712z"/>
<path fill="url(#linearGradient8949)" d="m823.75,670.62c0,2.8354-2.2186,5.1339-4.9554,5.1339s-4.9554-2.2985-4.9554-5.1339 2.2186-5.1339 4.9554-5.1339 4.9554,2.2985 4.9554,5.1339z" transform="matrix(.23043 0 0 .23043 .31765 657.08)"/>
</g>
<g transform="matrix(-.6568 .40807 -.40807 -.6568 663.43932 751.87048)">
<path fill="url(#radialGradient8941)" d="m190.95,806.77c.9631,.2641 1.4244,1.237 1.0304,2.1729-.394,.9359-2.0788,3.1024-3.0419,2.8383-.9631-.2641-.8398-2.8589-.4458-3.7948 .394-.936 1.4942-1.4806 2.4573-1.2164z"/>
<path fill="url(#radialGradient8943)" d="m184.47,809.98c.2943-1.0249 1.2022-1.5866 2.0279-1.2546 .8257,.332 2.6929,1.9052 2.3986,2.9301-.2943,1.0249-2.6386,1.1136-3.4643,.7815-.8257-.332-1.2565-1.4321-.9622-2.457z"/>
<path fill="url(#radialGradient8945)" d="m193.79,813.52c-.331,1.0249-1.3523,1.5866-2.2811,1.2546-.9288-.332-3.0292-1.9052-2.6982-2.9301 .331-1.0249 2.9681-1.1136 3.8969-.7815 .9288,.332 1.4134,1.4321 1.0824,2.457z"/>
<path fill="url(#radialGradient8947)" d="m186.88,816.1c-.9631-.2543-1.4244-1.191-1.0304-2.0922 .394-.9012 2.0788-2.9872 3.0419-2.7329 .9631,.2543 .8398,2.7527 .4458,3.6539-.394,.9012-1.4942,1.4256-2.4573,1.1712z"/>
<path fill="url(#linearGradient8949)" d="m823.75,670.62c0,2.8354-2.2186,5.1339-4.9554,5.1339s-4.9554-2.2985-4.9554-5.1339 2.2186-5.1339 4.9554-5.1339 4.9554,2.2985 4.9554,5.1339z" transform="matrix(.23043 0 0 .23043 .31765 657.08)"/>
</g>
<g transform="matrix(-.09138 .48361 -.48361 -.09138 628.4074 282.62606)">
<path fill="url(#radialGradient8941)" d="m190.95,806.77c.9631,.2641 1.4244,1.237 1.0304,2.1729-.394,.9359-2.0788,3.1024-3.0419,2.8383-.9631-.2641-.8398-2.8589-.4458-3.7948 .394-.936 1.4942-1.4806 2.4573-1.2164z"/>
<path fill="url(#radialGradient8943)" d="m184.47,809.98c.2943-1.0249 1.2022-1.5866 2.0279-1.2546 .8257,.332 2.6929,1.9052 2.3986,2.9301-.2943,1.0249-2.6386,1.1136-3.4643,.7815-.8257-.332-1.2565-1.4321-.9622-2.457z"/>
<path fill="url(#radialGradient8945)" d="m193.79,813.52c-.331,1.0249-1.3523,1.5866-2.2811,1.2546-.9288-.332-3.0292-1.9052-2.6982-2.9301 .331-1.0249 2.9681-1.1136 3.8969-.7815 .9288,.332 1.4134,1.4321 1.0824,2.457z"/>
<path fill="url(#radialGradient8947)" d="m186.88,816.1c-.9631-.2543-1.4244-1.191-1.0304-2.0922 .394-.9012 2.0788-2.9872 3.0419-2.7329 .9631,.2543 .8398,2.7527 .4458,3.6539-.394,.9012-1.4942,1.4256-2.4573,1.1712z"/>
<path fill="url(#linearGradient8949)" d="m823.75,670.62c0,2.8354-2.2186,5.1339-4.9554,5.1339s-4.9554-2.2985-4.9554-5.1339 2.2186-5.1339 4.9554-5.1339 4.9554,2.2985 4.9554,5.1339z" transform="matrix(.23043 0 0 .23043 .31765 657.08)"/>
</g>
<g transform="translate(-46.162 -461.69)">
<path fill="url(#linearGradient9261)" d="m141.81,273.81c-.9573,.232-.4569,1.5661-3.2812,.4062 1.3028,3.257 1.4061-4.2518 3.9062,9.7812 0,0-36.426,2.1297-79.156,16.125-25.301,8.2868-47.624,32.105 28.344,67.156 111.37,51.385 239.69,71.248 219.72,108.84-14.559,27.404-166.65,85.779-252.53,116.97 90.978,2.634 159.72,3.9352 213.84,4.2812 12.341-11.314 105.67-98.172 97.312-129.09-8.49-31.46-294.17-132.73-300.8-144.22-9.9708-17.27 61.396-21.975 93.812-38.125-16.27-10.913-19.925-12.423-21.156-12.125z" transform="translate(53.822 461.1)"/>
<path fill="url(#linearGradient9263)" d="m141.81,273.81c-.9573,.232-.4569,1.5661-3.2812,.4062 1.3028,3.257 1.4061-4.2518 3.9062,9.7812 0,0-33.301,3.161-76.031,17.156-25.299,8.29-43.204,22.71 11.534,56.6 55.952,34.64 222.06,83.6 222.06,104.22 0,31.47-160.17,97.06-248.62,130.91 93.623,2.7495 163.96,4.0929 219.28,4.4688 11.99-11.36 100.81-96.72 92.46-127.6-8.49-31.46-287.33-134.2-293.96-145.69-9.9708-17.27 61.396-21.975 93.812-38.125-16.27-10.913-19.925-12.423-21.156-12.125z" transform="translate(53.822 461.1)"/>
</g>
<g fill="#25c6e9" transform="matrix(1.3679 0 0 1.3679 -963.952 -388.037)">
<path d="m1131.6,478.26h2.2964l1.1318,4.5272-2.2807,.0586z"/>
<path d="m1133.7,485.33h2.2964l1.1318,4.5272-2.2807,.0586z"/>
<path d="m1135.2,479.25h2.2925l1.1299,5.0771-2.2768,.0657z"/>
<path d="m1139.3,477.55h2.2925l1.1299,5.0771-2.2768,.0657z"/>
<path d="m1143.4,479.66h2.2925l.6175,5.0771-2.2834,.0657z"/>
<path d="m1147,477.36h2.2925l.6175,5.0771-2.2834,.0657z"/>
<path d="m1151.2,478.76h2.2925l.6175,5.0771-2.2834,.0657z"/>
<path d="m1154.9,477.81h2.2925l.6175,5.0771-2.2834,.0657z"/>
<path d="m1159,479.76h2.2925l.6175,5.0771-2.2834,.0657z"/>
<path d="m1162.2,477.96h2.2925l.6175,5.0771-2.2834,.0657z"/>
<path d="m1166.7,479.46h2.2925l-.057,5.0771-2.2921,.0657z"/>
<path d="m1170.7,479.06h2.2925l-.057,5.0771-2.2921,.0657z"/>
<path d="m1174.2,481.71h2.2925l-.057,5.0771-2.2921,.0657z"/>
<path d="m1182,483.86h2.2925l-.057,5.0771-2.2921,.0657z"/>
<path d="m1178.5,486.71h2.2925l-.057,5.0771-2.2921,.0657z"/>
<path d="m1178.2,509.89h2.2925l-.057,5.0771-2.2921,.0657z"/>
<path d="m1171.6,486.76h2.2925l-.057,5.0771-2.2921,.0657z"/>
<path d="m1167.7,488.36h2.2925l-.057,5.0771-2.2921,.0657z"/>
<path d="m1163.9,485.26h1.7249l-.043,5.0908-1.7246,.0659z"/>
<path d="m1160.8,486.66h1.7178l-.043,5.9667-1.7176,.0772z"/>
<path d="m1156.7,485.56h2.2925l-.057,5.0771-2.2921,.0657z"/>
<path d="m1153.1,487.21h2.2925l-.057,5.0771-2.2921,.0657z"/>
<path d="m1153.1,487.21h2.2925l-.057,5.0771-2.2921,.0657z"/>
<path d="m1148.5,485.16h2.2925l.6175,5.0771-2.2834,.0657z"/>
<path d="m1144.5,485.96h2.2925l.6175,5.0771-2.2834,.0657z"/>
<path d="m1140.8,484.16h2.2925l.6175,5.0771-2.2834,.0657z"/>
<path d="m1137.6,485.91h2.2925l.6175,5.0771-2.2834,.0657z"/>
<path d="m1139.4,495.22h2.2925l.6175,5.0771-2.2834,.0657z"/>
<path d="m1143.5,496.67h2.2925l.6175,5.0771-2.2834,.0657z"/>
<path d="m1147.5,494.77h2.2925l.6175,5.0771-2.2834,.0657z"/>
<path d="m1151.4,496.72h2.2925l.6175,5.0771-2.2834,.0657z"/>
<path d="m1154.7,494.87h2.2925l.6175,5.0771-2.2834,.0657z"/>
<path d="m1159.1,497.52h2.2925l.6175,5.0771-2.2834,.0657z"/>
<path d="m1156.1,501.47h2.2925l.6175,5.0771-2.2834,.0657z"/>
<path d="m1153,503.82h2.2925l.6175,5.0771-2.2834,.0657z"/>
<path d="m1148.9,501.77h2.2925l.6175,5.0771-2.2834,.0657z"/>
<path d="m1146,503.67h2.2925l.6175,5.0771-2.2834,.0657z"/>
<path d="m1141.7,502.02h2.2925l.6175,5.0771-2.2834,.0657z"/>
<path d="m1160.1,504.62h2.2925l.6175,5.0771-2.2834,.0657z"/>
<path d="m1163.7,500.22h2.2925l-.057,5.0771-2.2921,.0657z"/>
<path d="m1167.3,499.17h2.2925l-.057,5.0771-2.2921,.0657z"/>
<path d="m1171.6,493.87h2.2843l-.057,5.9542-2.2839,.0771z"/>
<path d="m1167.3,506.1h2.2925l-.057,5.0771-2.2921,.0657z"/>
<path d="m1163.8,507.72h2.2925l-.057,5.0771-2.2921,.0657z"/>
<path d="m1171.5,502.08h2.2843l-.057,5.9542-2.2839,.0771z"/>
<path d="m1171.6,510.14h2.2843l-.057,5.9542-2.2839,.0771z"/>
<path d="m1175.2,489.2h2.2843l-.057,5.9542-2.2839,.0771z"/>
<path d="m1185.8,486.13h2.2925l-.057,5.0771-2.2921,.0657z"/>
<path d="m1188.9,486.97h2.2925l-.057,5.0771-2.2921,.0657z"/>
<path d="m1192.4,490.65h2.2925l-.057,5.0771-2.2921,.0657z"/>
<path d="m1194.7,499.85h2.2925l-.057,5.0771-2.2921,.0657z"/>
<path d="m1191.3,497.16h2.2925l-.057,5.0771-2.2921,.0657z"/>
<path d="m1190,503.95h2.2925l-.057,5.0771-2.2921,.0657z"/>
<path d="m1193.6,506.79h2.2834l-.057,6.0419-2.283,.0782z"/>
<path d="m1192.9,514h2.2834l-.057,6.0419-2.283,.0782z"/>
<path d="m1189.7,510.99h2.2843l-.057,5.9542-2.2839,.0771z"/>
<path d="m1182.5,502.67h2.2925l-.057,5.0771-2.2921,.0657z"/>
<path d="m1186,505.22h2.2847l-.057,5.9041-2.2843,.0764z"/>
<path d="m1184.9,512.3h2.2847l-.057,5.9041-2.2843,.0764z"/>
<path d="m1181.5,508.48h2.2847l-.057,5.9041-2.2843,.0764z"/>
<path d="m1178.6,493.16h2.2843l-.057,5.9542-2.2839,.0771z"/>
<path d="m1182,490.72h2.2925l-.057,5.0771-2.2921,.0657z"/>
</g>
</svg>
