<svg xmlns="http://www.w3.org/2000/svg" viewBox="0 0 256 176" xmlns:xlink="http://www.w3.org/1999/xlink">
<defs>
<linearGradient gradientTransform="matrix(1.2679 0 0 .8017 -2.345 -.21107)" id="linearGradient12400" y1="118.34" y2="135.63" x1="102.66" gradientUnits="userSpaceOnUse" x2="158.09">
<stop offset="0" stop-color="#cf7f00"/>
<stop offset="1" stop-color="#ffcb00"/>
</linearGradient>
<linearGradient gradientTransform="matrix(1.1569 0 0 .87102 -.76026 -.55951)" id="linearGradient12398" y1="79.179" y2="209.98" x1="241.75" gradientUnits="userSpaceOnUse" x2="105.48">
<stop offset="0" stop-color="#d9a21a"/>
<stop offset="1" stop-color="#f7c764"/>
</linearGradient>
<linearGradient gradientTransform="matrix(.8023 0 0 1.2688 -.64405 -.78502)" id="linearGradient12404" y1="35.558" y2="55.075" x1="83.185" gradientUnits="userSpaceOnUse" x2="60.032">
<stop offset="0" stop-color="#e49029"/>
<stop offset="1" stop-color="#aa753a"/>
</linearGradient>
<linearGradient gradientTransform="matrix(.96494 0 0 1.0489 -.54654 -.5756)" id="linearGradient12402" y1="115.19" y2="102.45" x1="135.63" gradientUnits="userSpaceOnUse" x2="92.462">
<stop offset="0" stop-color="#c47800"/>
<stop offset="1" stop-color="#985d00"/>
</linearGradient>
</defs>
<g transform="translate(-31.804 -31.356)">
<path fill="url(#linearGradient12398)" d="m282.45,61.479c-1.17-.11-5.76,1.213-6.61,1.6-.44,.199-9.62,3.608-9.85,3.608-.24,0-9.97,4.578-10.36,4.674-1.15,.29-13.74,6.791-16.84,8.689-.94,.572-6.32,3.468-7,3.765-.67,.296-4.75,2.51-5.3,2.792-.54,.281-6.35,3.433-6.99,3.733-1.19,.555-5.94,3.382-6.18,3.45-.08,.043-3.3,2.123-3.67,2.353-.49,.346-4.69,2.857-5.43,3.231s-2.47,1.416-3.86,2.326c-1.39,.9-2.97,1.88-3.48,2.16s-3.05,1.98-3.36,2.07c-.3,.1-6.45,3.91-7.43,4.64-.13,.1-6.71,5.07-7.56,5.65-.52,.35-4.17,3.46-6.72,5.43-.02,.05-.07,.09-.15,.12-.23,.18-.41,.3-.63,.47-.74,.61-1.58,1.26-2.57,1.95-.27,.19-.72,.54-.94,.69-2.4,1.62-5.89,3.73-7.66,4.61-1.11,.56-2.45,1.32-2.95,1.69s-1.44,.93-2.1,1.26-1.87,1.17-2.38,1.44-2.15,1.14-3.61,1.91c-1.46,.78-4.08,2.21-5.83,3.17-1.76,.96-3.35,1.76-3.52,1.76s-2.86,1.27-5.99,2.82c-1.61,.8-2.43,1.21-3.8,1.88-2.42,1.26-4.32,2.28-5.17,2.8-1.96,1.34-3.98,3.03-4.86,4.04-1.15,1.31-3.85,9.06-4.18,10.67-.67,2.54-1.04,4.19-1.06,11.61-.01,3.31 .55,5.49 2.35,9.19 1.32,2.72 1.89,2.92 3.23,3.86 1.86,1.01 3.34,.93 6.09-.38 2.78-1.33 9.36-6.05 9.38-6.06 .87-.57 2.23-1.23 2.48-1.47 .24-.24 3.59-2.24 4.39-2.76 .79-.52 3.76-2.13 4.76-2.79 1.01-.66 2.41-1.37 2.64-1.57s1.32-.84 2.42-1.41c2.02-1.07 7.62-4.28 8.81-4.93 .15-.09 6.79-4.01 8-4.77 1.21-.75 7.91-4.97 8.72-5.77 .08-.08 3.23-2.25 3.83-2.63s5.56-4 6.08-4.46c1.5-1.29 8.47-5.7 9.57-6.43s4.1-2.53 5.05-3.2c.95-.66 2.94-2.36 4.55-3.17 1.61-.8 7.59-5.27 8.38-5.67 .83-.44 8.32-5.08 8.43-5.09 .22-.01 4.49-3.02 5.31-3.45 .81-.43 2.84-1.66 4.51-2.76 1.67-1.09 3.82-2.47 4.77-3.04s1.93-1.14 2.17-1.29c.23-.14 .87-.55 1.44-.87 .57-.33 1.51-.9 2.1-1.26s1.95-1.09 3.01-1.63 4.03-2.08 5.62-2.89c1.58-.8 4.53-1.87 5.55-2.38s2.65-1.25 3.67-1.63c.1-.04 .18-.06 .28-.1l.03-.03h.07c.91-.34 1.92-.75 2.32-.94 .46-.21 1.96-.64 2.66-.94 1.25-.54 3.12-1.09 5.31-1.6 1.48-.344 8.95-1.973 9.94-2.383 .67-.278 .65-.295 .03-2.918-.15-.659-.33-1.672-.41-2.258-.07-.586-.29-1.976-.5-3.074-.59-3.143-.45-7.132-.56-8.815 .08-1.943 .11-5.882 .4-7.686 .25-3.259 .59-4.988 .66-7.309 .04-1.025 .58-3.519 .5-4.298z"/>
<path fill="url(#linearGradient12400)" d="m207.22,45.41c-4.32,.028-9.09,.114-12.83,.126-3.86,.011-7.73,.124-8.57,.252s-2.47,.296-3.65,.378-3.09,.202-4.25,.283c-1.17,.082-3.44,.399-5.08,.693-1.63,.295-4.06,.68-5.42,.851-.99,.125-1.55,.227-1.95,.347-3.47,1.256-4.51,3.054-6.52,5.356-.67,.767-2.89,3.656-3.4,4.285-.44,.528-.97,1.4-1.39,2.142-.11,.204-2.11,5.692-2.52,7.845-.07,.358-.43,2.281-.51,3.781-.07,1.501-.4,11.384-.37,11.752 .06,.885-.23,8.025-.35,8.538-.05,.221-.18,.945-.28,1.607-.28,1.724-.36,1.979-.54,2.426-.09,.221-.27,.914-.44,1.576s-.53,1.711-.79,2.3c-.26,.592-.79,1.952-1.2,3.022-.12,.33-2.24,4.63-2.74,5.26-.11,.15-.65,.79-1.16,1.45-.41,.53-.75,.96-1.01,1.26-.1,.15-.34,.44-.38,.51-.09,.12-.22,.28-.22,.34 0,.1-.53,.74-1.16,1.42-.64,.68-1.5,1.71-1.93,2.3-.42,.59-1.45,1.89-2.26,2.9-2.66,3.31-5.38,9.31-5.77,10.08s-.8,1.77-.91,2.21c-.12,.44-.44,1.42-.73,2.17-.29,.76-.61,1.96-.72,2.68-.07,.42-.32,1.76-.32,1.76-.13,.74 .23,6.63 .41,6.62 .09,0 1.42-.69 2.96-1.51 1.55-.82 3.78-1.83 4.95-2.27 .52-.19 .66-.3 1.07-.47 .82-.37 1.63-.74 2.55-1.2 .48-.3 .92-.55 7.03-3.72 1.88-.97 3.76-2 4.16-2.27 .39-.26 1.02-.64 1.38-.82 .37-.17 1.39-.78 2.27-1.35s2.66-1.61 3.97-2.3c1.28-.67 2.45-1.38 2.71-1.61 .07-.05 4.42-2.6 6.05-3.87 .67-.53 1.62-1.24 2.11-1.61 .5-.37 1.57-1.2 2.4-1.86 1.65-1.33 2.18-1.73 5.1-3.94 1.1-.83 2.56-2.01 3.25-2.61 .24-.22 1.32-1.06 1.48-1.14 .42-.32 .82-.65 1.16-.88 .78-.51 2.85-2.18 3.22-2.36 .36-.19 3.27-1.86 4.19-2.36 .91-.51 2.61-1.54 3.78-2.3 3.63-2.39 9.32-5.833 11.06-6.683 .91-.448 10.34-6.403 13.23-7.782 .77-.368 7.85-4.273 8.73-4.726 .48-.265 8.46-4.557 8.79-4.789 .84-.593 14.15-7.346 17.7-8.98 .89-.406 2.23-1.037 2.96-1.417 2.66-1.373 8.68-3.914 9.49-4.159 .72-.218 6.73-2.699 7.75-3.056 2.78-.976 5.96-1.81 7.91-2.08 1.46-.203 1.93-.478 1.98-1.166-.01-.214-.06-.409-.12-.567-.46-.764-2.37-1.474-8.29-3.182-3.22-.93-5.12-1.502-7.09-2.174-2.02-.689-3.86-1.171-5.48-1.449-.3-.051-1.45-.362-2.55-.662-1.11-.3-3.44-.737-5.2-.977-1.77-.239-3.46-.458-3.75-.504-3.05-.473-6.52-.926-8.16-1.071-1.1-.097-2.61-.305-3.34-.441-1.35-.249-7.21-.742-10.68-.914-1.03-.051-11-.997-11.66-1.071-1.94-.216-5.8-.249-10.11-.22z"/>
<path fill="url(#linearGradient12402)" d="m79.021,41.772c-1.857,.026-3.664,.113-5.125,.283-.849,.145-1.888,.331-2.609,.503-.881,.209-2.939,.465-4.59,.566-3.423,.209-3.316,.067-2.641,2.735 .209,.828 .468,2.336 .566,3.364 .098,1.027 1.51,6.696 1.603,7.356 .446,3.148 3.375,11.815 3.742,12.576 .366,.761 4.922,12.196 5.093,12.701 .228,.476 1.983,3.971 2.641,5.282 .657,1.312 1.434,3.573 1.729,4.056 .294,.482 1.375,2.504 2.389,4.464s2.194,4.064 2.609,4.682c.817,1.22 1.6,2.56 2.704,4.66 .387,.73 .997,1.83 1.384,2.42 .386,.58 1.203,1.95 1.792,3.05 1.68,3.14 5.541,9.29 6.193,9.87 .084,.07 .671,.93 1.289,1.88 .618,.96 1.365,2.08 1.666,2.52 .302,.44 1.084,1.64 1.764,2.67 .67,1.03 1.49,2.18 1.82,2.55 .33,.36 .72,.86 .85,1.1s.68,.96 1.23,1.6c.54,.64 1.47,1.84 2.07,2.64 .6,.81 1.98,2.45 3.08,3.65s2.72,3.32 2.89,3.52c1.01,1.1 3.6,3.36 3.65,3.46 1.69,1.26 3.83,2.69 4.06,2.7 .11,0 3.06-2.28 3.99-2.76l1.67-.88 .06-4c.01-1 .1-1.75 .16-2.64 .01-.35 .47-5.19 .84-6.13 .18-.44 .49-1.27 .66-1.85 .38-1.22 .39-1.27 1.92-4.69 .37-.83 .71-1.53 1.07-2.23 .03-.05 .03-.12 .06-.16 .01,0 .03-.02 .04-.03 .39-.76 .81-1.48 1.25-2.2 .01-.02 .06-.08 .07-.09 .01-.03 .01-.04 .03-.07 .34-.55 .78-1.14 1.19-1.73v-.03c.01-.16 .4-.67 .88-1.22 .76-1 1.63-2.12 2.71-3.43 3.85-4.68 6.77-8.4 6.79-8.61 0-.11 .36-.76 .78-1.48 .43-.72 .87-1.6 .98-1.95 .1-.35 .48-1.3 .85-2.11 .37-.809 .68-1.697 .97-2.607 .13-.398 .27-.814 .38-1.195 .93-3.376 1.42-7.347 1.41-11.978 0-2.704-.06-5.093-.09-5.313-.11-.712 .37-7.256 .66-9.18 .15-1.028 .44-2.557 .66-3.364s.51-1.981 .63-2.641c.22-1.232 2.21-6 2.42-6.256 .91-1.127 2.63-3.416 3.24-4.308 .39-.584 1.65-1.972 2.79-3.112l2.05-2.044-.28-.031-.63-.031c-1.5-.031-3.14,.02-4.56,.094-.04,.002-.09-.002-.13,0-.03,.002-.03-.002-.06,0-1.39,.077-2.53,.181-2.96,.314-.22,.071-1.95,.207-3.83,.283-1.89,.077-3.52,.192-3.62,.252-.15,.093-14.56,.556-16.53,.408-.02-.001-.02,.002-.04,0-.01-.001-.04,.002-.06,0-2.39-.179-4.46-.302-5.56-.408-.52-.05-1.24-.167-1.61-.252-.36-.085-2.21-.394-4.11-.691-1.91-.298-4.62-.725-6.01-.944-1.39-.218-3.19-.503-3.99-.628-.81-.126-2.63-.477-4.03-.786-1.39-.31-3.23-.685-4.115-.849-.881-.164-5.655-1.312-6.634-1.541-2.635-.616-5.154-1.161-5.973-1.257-.33-.039-1.107-.152-1.698-.252-.405-.068-1.166-.115-2.075-.157-.134-.007-.272-.025-.408-.031-.929-.037-1.979-.054-3.05-.063-.352-.003-.659,0-1.006,0z"/>
<path fill="url(#linearGradient12404)" d="m49.922,33.437c-3.119,.185-5.714,.951-6.085,1.072-1.218,.395-2.597,1.022-3.909,2.049-2.27,1.561-3.024,3.073-3.09,3.153-.718,.901-1.12,3.259-1.041,4.13 .143,1.569 5.438,19.351 7.567,24.12 .493,1.104 .958,2.224 1.041,2.491 .082,.267 1.396,3.429 2.081,4.793 .279,.555 .899,2.004 1.387,3.216 .488,1.211 1.262,2.984 1.703,3.941 .004,.007-.005,.024 0,.031 .142,.231 .319,.549 .473,.978 .251,.697 .746,1.885 1.103,2.648 .48,1.12 .913,2.041 1.482,3.437 .48,1.177 4.966,12.224 5.991,14.444 .203,.44 .737,1.63 1.198,2.64 .677,1.49 1.259,2.76 1.797,3.85 .114,.23 .207,.38 .315,.6 1.468,2.93 4.051,7.84 4.95,9.52 2.268,4.24 6.326,10.29 7.031,11.64 .014,.02-.013,.01 0,.03 .451,.66 .62,.83 .978,1.32 .245,.29 2.967,4.54 3.689,5.49s2.261,3.23 2.27,3.25c.124,.15 .448,.63 .473,.66 .798,1.07 2.403,2.68 2.648,3.09 .245,.4 .865,1.22 1.388,1.8 .522,.57 .977,1.11 .977,1.19 0,.16 5.044,6.18 7.315,8.3 .448,.28 1.492,1.07 2.302,1.73 .775,.63 1.402,1.11 1.513,1.17 .051,.01 .11-.01 .158,0 .096-.04 .268-.17 .504-.38 .269-.25 4.179-4.71 5.579-5.74 .52-.38 2.39-1.68 4.16-2.65 .74-.54 2.98-1.66 3.35-1.83 1.34-.59 3.08-1.1 3.78-1.1 .91-.01 1.28-.57 .63-.95-2.24-1.91-6.07-6.34-7.28-7.56-1.22-1.23-3.84-5.08-5.77-7.48-.86-1.05-1.92-2.75-2.4-3.31-.478-.55-1.471-1.99-2.207-3.21s-1.72-2.63-2.175-3.16c-.455-.52-1.528-2.04-2.396-3.37-.869-1.32-1.739-2.58-1.924-2.77-.185-.2-3.925-7.11-4.162-7.57-.336-.65-1.773-3.46-2.08-3.97-.308-.52-3.56-5.868-3.784-6.31-.224-.441-.781-1.513-1.261-2.396-1.719-3.161-1.712-3.147-6.085-12.454-.796-1.693-1.677-3.542-1.955-4.131-.236-.497-1.488-3.525-1.545-3.878-.171-.4-2.094-5.269-3.027-7.63-.253-.64-.987-2.801-1.45-4.288-.037-.117-.092-.305-.095-.315-.149-.468-.314-.993-.378-1.167-.245-.662-.705-2.469-.883-3.468-.341-1.905-.627-3.399-.914-4.572-.029-.118-.689-3.194-.915-4.666-.13-.848-.469-2.478-.473-2.491-.358-1.169-.532-1.928-.63-3.027-.047-.525-.495-3.468-.599-4.445-.358-1.234-.657-2.247-1.199-2.87-.746-.668-1.928-1.744-4.098-2.585-2.48-.98-3.359-.916-6.023-1.04z"/>
<path d="m49.641,31.984c-1.76,.007-2.361-.045-4.62,.48-3.416,1.187-4.246,1.328-5.893,2.495-.006,.004-.011,.005-.017,.009-.684,.485-3.091,2.616-3.307,2.877-2.021,2.245-2.284,2.765-2.603,3.743-.431,.723-.549,2.014-.439,2.232 .039,.924 .301,2.224 .398,4.252 .026,1.289-.086,15.05-.265,16.868-.206,2.086-.282,5.889-.207,10.477 .064,3.961 .152,10.724 .198,15.027 .026,2.375 .068,4.098 .15,5.628 .003,.079 .005,.214 .008,.29 .015,.265 .031,.586 .05,.829 .051,.928 .12,1.551 .19,1.774 .003,.014 .006,.027 .009,.041 .006,.019 .009,.095 .016,.108 .021,.038 .014,.09 .033,.133 .122,.675 .295,1.233 .498,1.703 .035,.08 .063,.14 .107,.22 .655,1.36 1.717,2.06 3.556,2.94 .437,.21 .806,.42 1.152,.62 .01,.01 .024,.01 .034,.02 .209,.13 .378,.26 .563,.39 .138,.11 1.044,.82 1.177,.98 .005,0 .012,.01 .017,.01 .03,.04 .054,.07 .083,.1 .157,.22 .328,.49 .48,.79 .451,.9 .412,1.16 .407,2.57-.003,1.02-.176,3.27-.266,3.83-.089,.56-.042,2.46 .141,3.08 .334,1.13 .66,1.6 1.699,2.32 .146,0 1.521,.96 2.031,1.24 .657,.35 2.412,1.56 2.752,1.83 1.202,1.02 2.15,1.3 2.46,2.79 .365,1.74-.206,5.66-1.009,9-.297,1.23-.154,3.14 1.4,4.12 .839,.48 2.735,2.11 4.543,2.92 .562,.2 4.504,2.28 5.749,2.74 .066,1.71-.286,3.58-.266,4.67-.026,1.35-.341,3.07 .36,3.98 .371,.7 2.158,2.52 3.473,3.61 .42,.38 3.99,2.89 4.227,2.89 2.738,1.09 2.394,2.08 2.168,4.45-.391,2.15 .084,6.27 1.434,6.74 1.118,.38 8.102,3.85 9.13,4.92 1.154,1.19 1.945,1.52 2.288,3.63 .005,.01 .011,.03 .016,.04 .247,.63 .552,2.2 .788,3.92 .316,3.05 .653,4.82 1.21,5.64 .921,1.36 1.399,1.65 4.749,2.83 1.612,.57 3.314,1.17 3.78,1.33 .515,.19 .782,.42 .978,.9 .074,.21 .211,.81 .298,1.14 .009,.05 .016,.08 .025,.14 .558,3.29 2.855,8.19 3.835,8.92 .681,.67 1.581,1.26 1.861,1.5 .06,.06 1.36,.85 1.53,.86 .11,0 3.76,1.3 6.41,1.17 3.11-.14 3.01-.58 6.11-1.79 .88-.68 1.91-1.13 2.47-1.6 .56-.46 2.09-1.57 2.49-1.94 1.06-.96 5.56-3.6 5.63-3.63 .34-.13 6.75-4.69 8.83-5.82 .48-.26 8.13-5.16 8.39-5.33 3.94-2.61 9.49-6.06 11.57-7.19 1.53-.83 8.19-5.76 9.46-6.43 .49-.26 4.51-3.14 5.41-3.74 .4-.26 5.29-3.52 6.11-4.03 .81-.51 11-7.27 11.51-7.66 .51-.38 3.95-2.46 4.73-3.06 .78-.59 2.17-1.62 3.09-2.28 .91-.65 2.17-1.59 2.81-2.08 3.63-2.74 5.19-3.84 6.15-4.32 .58-.3 5.28-3.51 6.72-4.34 .8-.46 7.5-4.31 7.95-4.6 .03-.02 15.55-8.99 17.06-10.26 .68-.57 8.38-5.07 9.04-5.34 .65-.27 2.66-1.29 4.45-2.27 1.79-.97 5.42-2.58 5.64-2.74 .21-.17 .81-.45 1.32-.65 .51-.19 1.04-.46 1.18-.58s3.57-1.6 5.77-2.53c.03-.02 .06-.02 .09-.04 0,0 .12-.05 .13-.06 3.43-1.46 7.67-3.18 8.88-3.54 .87-.27 2.01-.63 2.52-.81s3.5-.96 4.09-1.26 3.48-.97 3.85-1.15c.73-.35 2.73-.97 2.78-1 .99-.36 1.66-.8 1.48-1.38 0-.07-.89-2.29-.55-1.47-.55-1.08-1.58-4.313-1.68-5.317-.05-.49-.41-1.969-.5-2.625-.35-2.578-.42-2.735-.56-3.956-.41-2.041-.46-3.339-.64-5.079-.21-1.889-.18-5.39-.12-8.142 .04-1.708 .25-4.472 .46-6.15s.44-3.528 .51-4.111c.06-.584 .15-2.655 .51-3.731 .3-1.049 .48-1.934 1.32-2.176 .38-.303 .49-.805 .46-1.918-.05-.878-.24-1.351-.74-1.807-.89-.825-3.25-1.946-5.37-2.544-.94-.268-1.9-.552-2.12-.63s-.55-.177-.74-.216c-.49-.101-2.96-.837-6.15-1.84-3.32-1.041-12.43-3.317-13.93-3.481-.58-.064-2.02-.294-3.18-.506-1.17-.212-3.32-.508-4.78-.663-3.64-.387-5.48-.584-6.78-.738-.12-.015-5.11-.692-7.01-.837-3.7-.281-16.05-1.377-16.29-1.45-.74-.232-7.16-.415-9.37-.435-2.89-.027-23.33,.292-23.52,.41-.09,.052-1.77,.179-3.73,.282-1.97,.103-14.67,2.041-23.48,2.37-1.89,.071-4.88,.259-6.63,.415-6.31,.562-10.99,.785-17.77,.854-4.36,.044-6.82-.001-8.57-.175-.37-.045-.79-.08-1.13-.132-.47-.077-6.16-.951-6.75-1.103-.58-.151-1.24-.279-1.45-.281-.22-.003-1.71-.252-3.32-.556-1.6-.303-8.09-1.423-9.55-1.666-1.46-.242-3.43-.664-4.375-.936-.948-.273-2.708-.674-3.912-.896s-3.114-.638-4.244-.92c-1.025-.255-2.435-.492-3.937-.712-.477-.075-.722-.103-1.152-.158-3.364-.444-6.959-.733-8.281-.555-.958,.128-2.279,.082-3.008,.165-.73,.084-2.043,.291-2.918,.456s-3.59,.646-3.796,.68c-.261,.03-.385,.036-.614,.058-.267,.016-.501,.042-.837,.042-.732,0-1.13-.033-1.475-.092-.472-.143-.851-.377-1.136-.704-.258-.372-.652-1.671-.671-1.733-.128-.537-1.027-1.825-1.28-2.166-1.87-2.035-3.787-2.921-4.779-3.155-.438-.103-2.556-.83-3.912-.953-.331-.035-2.259-.449-3.802-.323zm6.389,2.999c2.151,.834 3.329,1.908 4.068,2.571 .537,.616 .831,1.597 1.186,2.819 .103,.969 .55,3.905 .596,4.425 .098,1.089 .25,1.825 .606,2.984 .003,.013 .335,1.638 .464,2.478 .223,1.459 .874,4.525 .903,4.642 .285,1.162 .582,2.621 .92,4.509 .177,.99 .636,2.792 .879,3.448 .063,.172 .225,.68 .373,1.144 .003,.01 .063,.199 .099,.315 .459,1.473 1.183,3.61 1.434,4.244 .925,2.339 2.823,7.171 2.992,7.567 .057,.35 1.3,3.345 1.534,3.838 .276,.584 1.151,2.434 1.939,4.111 4.335,9.225 4.323,9.201 6.026,12.334 .476,.875 1.047,1.949 1.269,2.387s3.416,5.721 3.721,6.231 1.747,3.31 2.081,3.96c.234,.45 3.936,7.3 4.119,7.49 .184,.19 1.037,1.43 1.898,2.74 .861,1.32 1.937,2.82 2.387,3.34 .451,.53 1.418,1.94 2.147,3.14 .73,1.21 1.714,2.65 2.188,3.2 .471,.54 1.551,2.22 2.391,3.27 1.93,2.38 4.5,6.18 5.7,7.39 1.2,1.22 5.01,5.64 7.24,7.53 .64,.38 .27,.91-.63,.91-.69,0-2.43,.52-3.76,1.1-.36,.16-2.58,1.29-3.31,1.83-1.76,.95-3.61,2.23-4.12,2.6-1.38,1.02-5.258,5.46-5.525,5.7-.234,.21-.426,.34-.522,.37-.047-.01-.09,.01-.141,0-.11-.06-.731-.53-1.5-1.16-.802-.65-1.827-1.41-2.271-1.69-2.251-2.11-7.278-8.08-7.278-8.24 0-.08-.427-.62-.945-1.2-.518-.57-1.141-1.36-1.384-1.76s-1.82-2-2.611-3.07c-.024-.02-.358-.51-.481-.65-.009-.02-1.53-2.27-2.246-3.21-.715-.95-3.421-5.17-3.663-5.46-.355-.48-.507-.63-.954-1.29-.013-.02-.011-.02-.025-.04-.698-1.33-4.698-7.35-6.945-11.55-.891-1.66-3.461-6.51-4.916-9.41-.107-.22-.193-.37-.306-.6-.533-1.09-1.128-2.34-1.799-3.81-.457-1-.992-2.18-1.194-2.62-1.015-2.2-5.458-13.157-5.934-14.324-.564-1.383-.983-2.289-1.459-3.399-.001-.002 .001-.006 0-.008-.354-.757-.846-1.936-1.094-2.628-.153-.424-.315-.749-.456-.978-.005-.007-.004-.009-.008-.016-.437-.948-1.191-2.712-1.675-3.912-.484-1.201-1.108-2.633-1.384-3.183-.679-1.351-1.974-4.493-2.056-4.758-.081-.265-.547-1.376-1.036-2.47-2.11-4.727-7.352-22.358-7.493-23.913-.078-.864 .308-3.201 1.02-4.095 .066-.079 .809-1.552 3.058-3.1 1.301-1.017 2.672-1.647 3.88-2.039 .367-.119 2.931-.886 6.022-1.07 2.64,.123 3.523,.065 5.981,1.036zm24.061,7.063c1.064,.009 2.102,.038 3.025,.075 .135,.006 .273,.009 .406,.016 .904,.042 1.67,.09 2.072,.158 .588,.099 1.339,.218 1.667,.257 .814,.096 3.34,.614 5.959,1.226 .972,.228 5.698,1.371 6.573,1.534 .877,.163 2.727,.546 4.107,.854 1.39,.307 3.18,.663 3.98,.787 .81,.124 2.6,.405 3.98,.622 1.39,.217 4.07,.633 5.97,.928 1.9,.296 3.75,.612 4.11,.696 .37,.085 1.08,.191 1.59,.241 1.09,.106 3.15,.236 5.53,.414 .02,.002 .04,.007 .06,.008 .02,.002 .02-.001 .04,0 1.96,.147 16.27-.33 16.42-.422 .1-.06 1.71-.173 3.59-.249 1.87-.076 3.59-.195 3.81-.265 .42-.133 1.57-.247 2.95-.323 .04-.002 .04-.007 .08-.009 .03-.002 .06,.002 .1,0 1.41-.073 3.06-.113 4.55-.083l.61,.017 .27,.041-2.03,2.023c-1.13,1.133-2.38,2.535-2.77,3.116-.6,.886-2.31,3.15-3.22,4.269-.21,.255-2.18,4.984-2.4,6.208-.12,.657-.4,1.85-.62,2.653-.22,.802-.52,2.294-.68,3.315-.28,1.913-.73,8.444-.63,9.151 .04,.219 .07,2.592 .07,5.28 .01,4.603-.47,8.555-1.4,11.911-.11,.378-.23,.764-.36,1.16-.29,.905-.6,1.796-.97,2.605-.36,.8-.74,1.74-.85,2.09s-.54,1.22-.96,1.94c-.42,.71-.77,1.38-.78,1.48-.02,.22-2.92,3.91-6.75,8.56-1.07,1.31-1.94,2.4-2.69,3.39-.48,.55-.87,1.07-.88,1.23 0,0-.01,.01-.01,.02-.41,.58-.83,1.18-1.18,1.73-.01,.02-.02,.02-.04,.05 0,.01-.04,.08-.05,.1-.44,.71-.88,1.44-1.27,2.2 0,.01-.01,.03-.01,.04-.04,.04-.04,.09-.07,.14-.35,.69-.7,1.4-1.07,2.23-1.52,3.39-1.53,3.43-1.9,4.64-.18,.58-.47,1.42-.65,1.85-.38,.93-.83,5.75-.85,6.1-.05,.88-.13,1.63-.14,2.63l-.06,3.96-1.69,.87c-.92,.49-3.83,2.74-3.94,2.75h-.02c-.22-.01-2.33-1.42-4.01-2.67-.05-.1-2.65-2.37-3.65-3.47-.16-.19-1.78-2.3-2.87-3.49-1.09-1.2-2.47-2.82-3.07-3.63-.6-.8-1.52-1.98-2.05-2.61-.54-.64-1.09-1.36-1.22-1.6s-.5-.73-.82-1.09c-.33-.37-1.15-1.5-1.82-2.52s-1.474-2.22-1.773-2.65c-.3-.44-1.044-1.57-1.658-2.52s-1.185-1.79-1.268-1.86c-.648-.57-4.496-6.69-6.167-9.81-.585-1.1-1.373-2.47-1.757-3.05-.384-.59-1.017-1.66-1.401-2.39-1.097-2.08-1.873-3.43-2.685-4.64-.413-.619-1.578-2.721-2.586-4.669s-2.07-3.93-2.363-4.409c-.292-.48-1.079-2.733-1.732-4.037s-2.409-4.798-2.636-5.272c-.169-.501-4.683-11.842-5.048-12.598-.364-.756-3.287-9.388-3.73-12.516-.093-.657-1.477-6.273-1.574-7.294-.098-1.022-.348-2.534-.556-3.357-.67-2.653-.791-2.519 2.611-2.727 1.641-.101 3.7-.356 4.575-.564 .717-.17 1.743-.361 2.587-.506 1.451-.168 3.252-.23 5.097-.257 .345,0 .645-.011 .995-.008zm137.6,3.672c.66,.073 10.52,1.011 11.54,1.061 3.44,.17 9.27,.681 10.61,.928 .73,.135 2.22,.318 3.32,.415 1.62,.143 5.06,.6 8.08,1.069 .3,.045 1.97,.276 3.72,.514s4.08,.68 5.17,.978 2.23,.58 2.52,.63c1.61,.276 3.43,.759 5.44,1.442 1.95,.667 3.83,1.25 7.03,2.172 5.87,1.693 7.77,2.391 8.22,3.15 .06,.156 .1,.343 .11,.555-.06,.682-.52,.959-1.97,1.16-1.93,.268-5.06,1.089-7.82,2.056-1.01,.355-6.98,2.809-7.69,3.025-.81,.244-6.79,2.775-9.42,4.136-.73,.377-2.04,1.015-2.92,1.418-3.52,1.62-16.73,8.313-17.57,8.902-.33,.231-8.23,4.479-8.71,4.741-.87,.45-7.91,4.318-8.67,4.683-2.86,1.368-12.21,7.281-13.11,7.725-1.73,.844-7.38,4.242-10.99,6.612-1.15,.76-2.84,1.79-3.75,2.29s-3.8,2.18-4.16,2.36c-.36,.19-2.41,1.82-3.18,2.33-.34,.23-.74,.57-1.16,.89-.16,.08-1.22,.9-1.46,1.12-.68,.59-2.14,1.76-3.23,2.58-2.9,2.19-3.41,2.58-5.05,3.9-.81,.66-1.88,1.49-2.38,1.86-.49,.36-1.43,1.08-2.1,1.6-1.62,1.26-5.94,3.79-6,3.85-.26,.23-1.41,.91-2.67,1.57-1.3,.69-3.07,1.71-3.95,2.28-.87,.57-1.89,1.18-2.25,1.36-.37,.17-.98,.53-1.38,.8-.39,.27-2.24,1.28-4.11,2.25-6.06,3.14-6.51,3.39-6.98,3.69-.91,.46-1.72,.83-2.53,1.2-.41,.17-.55,.26-1.06,.45-1.17,.43-3.36,1.45-4.9,2.26-1.53,.82-2.86,1.49-2.95,1.49-.18,0-.54-5.82-.41-6.55 0,0 .24-1.35 .31-1.77 .11-.71 .44-1.9 .73-2.65 .28-.74 .61-1.72 .72-2.15 .11-.44 .51-1.43 .9-2.19s3.1-6.69 5.74-9.98c.8-1 1.81-2.3 2.23-2.89 .42-.58 1.28-1.61 1.91-2.28 .63-.68 1.16-1.31 1.16-1.41 0-.06 .12-.2 .21-.33 .04-.06 .28-.37 .39-.52 .25-.3 .6-.7 1-1.22 .51-.66 1.02-1.32 1.14-1.46 .49-.63 2.59-4.9 2.71-5.22 .41-1.07 .94-2.42 1.2-3.005 .26-.584 .6-1.598 .77-2.255 .17-.656 .38-1.372 .46-1.591 .18-.444 .23-.677 .51-2.387 .11-.657 .24-1.373 .29-1.592 .12-.509 .41-7.61 .35-8.487-.03-.365 .31-10.158 .38-11.646s.44-3.409 .5-3.763c.41-2.136 2.38-7.565 2.48-7.767 .42-.736 .97-1.606 1.4-2.13 .52-.623 2.69-3.491 3.35-4.252 1.99-2.283 3.03-4.075 6.48-5.321 .39-.119 .95-.208 1.94-.332 1.34-.169 3.75-.545 5.37-.837s3.89-.599 5.04-.68c1.16-.081 3.06-.217 4.22-.298 1.17-.082 2.8-.254 3.63-.381 .84-.128 4.66-.238 8.49-.249 7.42-.022 18.91-.337 22.76,.091zm-182.08,5.612c.009,.021 .016,.043 .025,.066l.448,1.251c.259,.73 1.114,3.441 1.906,6.026 .792,2.586 1.635,5.152 1.874,5.703 .629,1.457 1.238,3.21 1.722,4.71 .39,1.152 .717,1.827 .491,3.454-.122,.876-.241,3.293-.257,5.371-.016,2.079-.086,5.677-.091,5.786-.002,.005 .001,.012 0,.017-.012,.216-.023,.731-.034,.895-.153,1.663-.392,11.483-.389,16.911 0,1.2-.09,2.18-.199,2.18-.11-.01-.676-.34-1.26-.75-.584-.4-1.616-1-2.288-1.32-.907-.44-1.331-.85-1.641-1.58-.343-.812-.594-1.863-.754-3.182-.001-.006 .001-.011 0-.017-.071-.751-.131-2.134-.191-3.837-.002-.333-.02-.625-.016-.979 .019-1.969-.029-8.892-.108-15.383-.08-6.548-.041-12.359 .091-13.047 .131-.682 .264-3.188 .29-5.57s.122-4.864 .216-5.52l.165-1.185zm246.63,10.294c.08,.776-.46,3.264-.49,4.285-.08,2.313-.42,4.048-.67,7.294-.28,1.797-.32,5.708-.4,7.644 .12,1.676-.04,5.67 .55,8.801 .21,1.094 .43,2.467 .51,3.051 .07,.583 .27,1.598 .42,2.254 .62,2.613 .61,2.616-.06,2.893-.98,.408-8.42,2.035-9.9,2.374-2.18,.51-4.02,1.07-5.26,1.6-.71,.31-2.2,.73-2.66,.94-.4,.19-1.42,.59-2.33,.93 0,0-.04,.02-.05,.02l-.04,.01c-.1,.04-.16,.07-.26,.11-1.02,.38-2.67,1.1-3.68,1.61-1.01,.5-3.92,1.57-5.51,2.38-1.58,.8-4.55,2.32-5.61,2.87-1.06,.54-2.4,1.28-2.98,1.64-.59,.37-1.53,.93-2.1,1.26-.57,.32-1.22,.71-1.46,.86-.23,.14-1.2,.72-2.14,1.29-.95,.57-3.09,1.93-4.75,3.03-1.67,1.09-3.7,2.33-4.51,2.76-.82,.43-5.05,3.39-5.27,3.41-.11,.01-7.57,4.64-8.41,5.07-.78,.4-6.75,4.87-8.35,5.67-1.61,.8-3.57,2.49-4.52,3.15-.95,.67-3.95,2.45-5.04,3.18-1.1,.73-8.04,5.13-9.53,6.41-.52,.46-5.46,4.06-6.05,4.44-.6,.37-3.74,2.55-3.83,2.63-.8,.8-7.47,4.98-8.67,5.73-1.21,.75-7.84,4.67-7.99,4.76-1.18,.65-6.74,3.85-8.76,4.91-1.09,.57-2.18,1.2-2.41,1.41-.23,.2-1.62,.9-2.63,1.55-1,.66-3.96,2.27-4.75,2.79-.79,.51-4.15,2.5-4.39,2.74-.24,.25-1.59,.92-2.46,1.49-.01,0-6.58,4.69-9.35,6.01-2.74,1.31-4.21,1.41-6.06,.39-1.34-.93-1.88-1.15-3.2-3.86-1.79-3.69-2.35-5.85-2.34-9.15 .02-7.39 .37-9.03 1.04-11.55 .33-1.61 3.02-9.35 4.17-10.65 .88-1.01 2.9-2.68 4.85-4.01 .85-.52 2.72-1.53 5.14-2.78 1.35-.68 2.18-1.09 3.78-1.89 3.12-1.54 5.81-2.81 5.97-2.81 .17,0 1.74-.79 3.49-1.74 1.75-.96 4.38-2.38 5.84-3.15 1.46-.78 3.07-1.64 3.58-1.91s1.73-1.1 2.39-1.43c.65-.34 1.6-.91 2.09-1.27 .5-.37 1.81-1.12 2.92-1.68 1.76-.88 5.23-2.97 7.62-4.59 .22-.15 .67-.51 .93-.7 .99-.69 1.85-1.34 2.59-1.94 .22-.17 .39-.28 .61-.46 .09-.03 .14-.08 .17-.13 2.53-1.96 6.16-5.05 6.67-5.4 .85-.58 7.41-5.53 7.54-5.63 .98-.72 7.12-4.52 7.42-4.61 .31-.1 2.83-1.8 3.34-2.07 .51-.28 2.07-1.25 3.45-2.15 1.39-.91 3.13-1.958 3.86-2.331 .74-.372 4.91-2.862 5.39-3.207 .37-.229 3.58-2.32 3.66-2.363 .24-.068 4.97-2.861 6.16-3.415 .64-.298 6.44-3.449 6.98-3.73 .54-.28 4.61-2.49 5.28-2.785 .68-.295 6.03-3.185 6.96-3.754 3.09-1.892 15.64-8.348 16.79-8.637 .38-.096 10.07-4.65 10.3-4.65 .24,0 9.38-3.4 9.82-3.598 .85-.385 5.42-1.726 6.59-1.616zm-237.89,14.787c.207-.146 3.344,6.891 3.605,7.402 .802,1.563 3.72,8.623 4.219,10.875 .139,.625 .183,2.103 .174,3.572-.056,1.415-.557,6.43-.721,9.33-.164,2.89-.339,5.66-.381,6.14s-.161,1.85-.265,3.05-.222,2.57-.265,3.06c-.044,.48-.116,.91-.166,.94-.089,.06-1.764-.98-5.065-3.15-.886-.58-1.737-1.27-1.889-1.52-.798-.47-.21-12.17-.166-15.89v-.02c.015-1.237 .053-2.584 .116-4.053 .225-5.284 .473-13.899 .431-14.937-.026-.628-.013-4.011 .166-4.476 .064-.168 .138-.274 .207-.323zm10.294,23.408c.072-.072 .432,.511 .796,1.281 1.333,2.84 4.301,9.63 6.49,14.01l1.003,2.01c.114,.3 .203,.57 .257,.82l-.041,2.87c-.021,1.75-.169,3.9-.332,4.78-.163,.87-.548,4.28-.845,7.56-.298,3.28-.62,6.48-.721,7.11-.182,1.12-.616,.59-1.38,.24-1.8-.78-1.878-1.1-3.743-1.79-1.655-.88-4.149-2.48-4.526-3.31-.164-.36-.199-.94-.082-1.37 .111-.42 .24-.99 .281-1.28 .042-.29 .211-1.37 .382-2.39 .17-1.02 .354-2.27 .406-2.78 .051-.51 .174-1.53 .273-2.26 .1-.72 .179-2.57 .174-4.11-.004-1.53 .109-3.86 .249-5.17s.249-2.98 .249-3.7 .385-3.12 .422-4.66c.037-1.53 .123-3.26 .191-3.84 .055-.47 .134-1.29 .199-2 .016-.17 .037-.33 .05-.48 .003-.04 .012-.04 .016-.08 .068-.73 .165-1.394 .232-1.461zm228.2,.191c.67,.01 .6,.5 .69,.63 .11,.15 .2,.76 .2,1.34 0,.94-.1,1.12-.86,1.5-.85,.43-1.29,.58-3.11,1.02-.51,.12-1.47,.43-2.12,.67-.66,.25-1.79,.6-2.52,.78-1.86,.47-7.29,2.36-9.55,3.33-.59,.24-1.72,.72-2.52,1.06-.8,.33-3.31,1.47-5.57,2.53-2.26,1.05-4.77,2.19-5.57,2.52-.8,.34-5.25,2.81-7.69,3.97-.71,.33-8.81,5.02-9.47,5.52-.34,.26-8.41,5.3-9.31,5.88s-5.88,3.45-6.69,3.86c-.8,.41-15.95,9.72-16.32,9.88-.32,.15-6.55,4.56-7.23,5.03-.69,.48-7.94,5.76-8.66,6.23s-11.22,7.39-11.95,7.89-6.52,4.13-7.03,4.57c-1.62,1.37-7.17,4.7-7.68,5.17-.52,.47-9.07,5.85-11.7,7.56-2.1,1.37-3.05,1.94-4.72,2.83-.38,.21-4.89,3.5-9.19,6.02-1.16,.69-3.01,1.84-4.11,2.57-1.09,.73-4.47,2.82-4.9,3.11-.44,.29-7.19,4.46-9.15,6.15-1.13,.98-3.54,2.26-5.33,2.83-.3,.09-1.47,.23-1.66,.24-1.45,.09-3.13-.09-3.89-.5-.51-.28-2.02-.56-3-1.3-.9-.68-1.5-1.83-1.68-2.02-.862-.9-2.039-3.83-2.357-5.27-.397-1.8-.578-2.4-.837-3.45-.198-.81-.501-2.2-.638-2.65-.347-1.14-.454-13.28-.133-14.99 .097-.51 .228-1.82 .29-2.91 .063-1.1 .365-3.13 .672-4.51 .307-1.39 .6-2.76 .655-3.05 .095-.51 .306-1.08 .563-1.66 .003-.01 .006-.01 .009-.02 1.138-2.54 3.636-5.51 6.046-7.09 2.36-2.04 5.56-3.52 7.7-4.39 .22-.12 2.1-.59 2.58-.64 .53-.06 1.62,0 1.82,.03 .06,.05 1.3,.1 .85,.96-.2,.55-.81,1.81-1.5,3.22-1.33,2.6-2.33,6.41-3.08,9.39-.19,1.02-.52,4.01-.51,6.75-.25,3.2-.04,5.37 .09,6.39 .19,1.29 .49,2.66 .95,4.04 .45,1.39 1.09,2.76 1.13,2.9 .03,.15 1.23,2.5 1.85,3.21 .9,1.26 2.47,2.47 4.41,2.98 0,0 1.86,.39 3.41-.11 2.42-.71 7.03-3.31 10.02-5.67 .87-.69 2.01-1.47 2.52-1.73 .21-.1 .69-.43 1.06-.66 .51-.31 .95-.56 1.46-.91 1.92-1.33 13.84-8.23 14.39-8.49s2.54-1.39 4.44-2.52 4.43-2.62 5.62-3.3c1.19-.69 5.43-3.28 6.24-3.85s5.89-3.58 6.66-4.29c.3-.28 2.11-1.6 5.62-4 .36-.25 5.11-3.71 5.97-4.46 .51-.45 3.58-2.57 3.64-2.63 .7-.58 7.13-4.28 7.99-4.96 .38-.3 7.01-4.82 7.34-4.95 1.65-.65 8.39-5.72 11.24-7.41 .46-.27 4.91-2.99 6.61-4.06 .23-.15 5.08-3.32 5.16-3.32 .23,0 5.45-3.39 5.54-3.46 .87-.56 1.85-1.21 2.14-1.34 .3-.13 2.45-1.52 3.12-1.88 .51-.27 1.52-.85 2.25-1.29s1.57-.92 1.86-1.06c.29-.15 1.01-.53 1.59-.86 .84-.48 2.55-1.37 5.37-2.82 .36-.18 .67-.32 1-.47 .77-.39 1.23-.62 2.25-1.02 .2-.07 1.99-.78 2.76-1.2 .02-.01 .04-.01 .06-.02 .12-.06 .22-.09 .33-.14 1.84-.85 3.32-1.43 7.86-3.1 2.24-.83 4.66-1.56 7.16-2.17 1.02-.24 3.59-1.04 4.19-1.17 1.4-.22 3.68-.809 4.86-.79zm-217.29,22.74c.237-.08 3.65,5.61 3.821,5.82 .383,.49 1.342,1.9 2.421,3.63 2.293,3.68 2.374,3.97 1.848,6.54-.342,1.68-.439,2.26-.663,4.22-.233,2.04-.729,4.64-.887,5.61s-.359,2.82-.447,4.11-.24,2.76-.34,3.27-.36,.96-.572,1c-.213,.04-1.038-.4-1.84-.98-.76-.55-3.904-2.94-4.816-3.84l-1.21-1.19c-.022-.08-.045-.15-.058-.23l.016-.56 .108-.9c.1-.86 .23-2.73 .29-4.13 .06-1.41 .163-3.03 .232-3.62 .069-.58 .367-3.86 .663-7.29 .671-7.76 1.118-11.34 1.434-11.46zm10.56,16.62c.105,.03 1.914,2.1 2.445,2.86 1.57,2.26 2.098,2.95 2.868,3.78 .401,.43 1.237,1.66 1.857,2.31 .62,.64 1.454,1.64 1.857,2.23 .691,1 .716,1.15 .455,2.51-.151,.79-.389,2.93-.53,4.75-.141,1.83-.433,4.39-.646,5.71-.526,3.24-.65,4.43-.705,6.76-.052,2.22-.284,3.22-.622,2.67-.114-.19-1.236-.81-2.495-1.39-1.258-.58-6.485-3.14-7.461-4.49-.325-.9-.195-2.3-.069-3.21 .26-1.89 .358-4.41 .584-5.78 .013-.07 .052-2.28 .166-4.44 .082-1.53 .535-4.95 .638-5.24 .102-.28 .646-3.5 .912-6.23 .074-.77 .181-1.4 .29-1.91 .032-.07 .201-.76 .282-.88 .059,0 .1-.03 .174-.01zm11.903,14.53c.04,.03 .053,.01 .099,.04l.887,1.18c.252,.33 .647,.77 1.103,1.24 .005,0 .011,.01 .016,.01 .298,.33 .64,.66 .962,.91 .625,.59 1.235,1.13 1.74,1.53 .053,.04 .108,.09 .158,.13 .282,.26 1.412,1.05 2.826,2.32 .509,.49 .461,1.02 .042,2.72-.414,1.37-.821,3.78-1.086,6.43-.233,2.34-.487,4.42-.564,4.64-.077,.21-.134,3.47-.124,7.22 .014,5.35-.054,6.83-.315,6.8-.184-.02-3.971-.88-4.269-.99-.008-.01-.641-.2-1.555-1-.811-.8-1.205-5.29-1.23-5.97-.051-1.41-.999-5.48-1.061-5.7-.069-.64-.139-1.28-.132-1.69 .046-.69 .819-9.3 1.036-10.19 .409-1.68 1.073-8.36 1.218-8.83l.249-.8z"/>
<path fill="#d2965c" d="m282.8,100.01c-1.18-.021-3.45,.56-4.84,.78-.6,.13-3.17,.94-4.19,1.18-2.5,.61-4.95,1.34-7.19,2.16-4.54,1.67-6.01,2.25-7.84,3.09-.12,.06-.23,.11-.35,.16-.02,.01-.04-.01-.06,0-.77,.42-2.55,1.14-2.75,1.22-1.02,.39-1.47,.61-2.25,1-.33,.16-.64,.29-1,.47-2.82,1.45-4.53,2.36-5.37,2.84-.59,.33-1.31,.7-1.6,.85-.29,.14-1.11,.62-1.84,1.06s-1.74,1.04-2.25,1.31c-.67,.36-2.83,1.74-3.13,1.88-.28,.13-1.25,.75-2.12,1.31-.1,.07-5.33,3.47-5.56,3.47-.08,0-4.93,3.16-5.16,3.31-1.7,1.07-6.14,3.79-6.59,4.06-2.86,1.69-9.61,6.79-11.25,7.44-.33,.13-6.97,4.63-7.35,4.94-.86,.68-7.3,4.39-8,4.97-.06,.05-3.11,2.17-3.62,2.62-.85,.75-5.61,4.22-5.97,4.47-3.51,2.4-5.33,3.69-5.63,3.97-.76,.71-5.84,3.74-6.65,4.31-.82,.57-5.06,3.16-6.25,3.84-1.2,.69-3.73,2.19-5.63,3.32-1.89,1.13-3.89,2.24-4.44,2.5-.54,.26-12.44,7.16-14.37,8.5-.51,.35-.96,.59-1.47,.9-.37,.23-.85,.55-1.06,.66-.51,.26-1.63,1.03-2.5,1.72-2.99,2.36-7.61,4.98-10.03,5.69-1.55,.5-3.41,.12-3.41,.12-1.94-.51-3.51-1.74-4.41-3-.62-.71-1.83-3.08-1.87-3.22s-.67-1.49-1.13-2.87c-.45-1.39-.74-2.78-.93-4.07-.13-1.02-.34-3.18-.1-6.37 0-2.75 .31-5.73 .5-6.75 .76-2.98 1.76-6.81 3.1-9.41 .68-1.41 1.3-2.67 1.5-3.22 .45-.85-.78-.88-.85-.93-.2-.03-1.28-.09-1.81-.03-.48,.05-2.37,.49-2.59,.62-2.14,.86-5.36,2.37-7.72,4.41-2.4,1.58-4.894,4.54-6.033,7.09-.257,.58-.467,1.15-.562,1.66-.055,.29-.35,1.67-.656,3.06-.307,1.39-.625,3.41-.688,4.5-.062,1.09-.185,2.4-.281,2.91-.322,1.7-.222,13.85 .125,15 .136,.45 .458,1.85 .656,2.65 .259,1.05 .415,1.64 .813,3.44 .317,1.44 1.514,4.38 2.376,5.28 .18,.19 .79,1.33 1.69,2 .98,.74 2.49,1.04 3,1.31 .76,.41 2.42,.58 3.87,.5 .2-.01 1.36-.15 1.66-.25 1.79-.57 4.2-1.83 5.34-2.81 1.96-1.69 8.69-5.87 9.13-6.16 .43-.28 3.81-2.39 4.9-3.12 1.1-.73 2.96-1.88 4.13-2.56 4.29-2.52 8.8-5.8 9.18-6 1.67-.9 2.62-1.48 4.72-2.85 2.63-1.71 11.18-7.09 11.69-7.56 .52-.47 6.07-3.78 7.69-5.16 .51-.43 6.3-4.09 7.03-4.59s11.25-7.4 11.97-7.87c.72-.48 7.97-5.74 8.65-6.22 .69-.48 6.9-4.89 7.22-5.03 .37-.17 15.51-9.47 16.32-9.88 .8-.41 5.79-3.29 6.68-3.87 .9-.59 8.98-5.62 9.32-5.88 .66-.51 8.76-5.2 9.46-5.53 2.45-1.16 6.89-3.64 7.69-3.97s3.33-1.47 5.6-2.53c2.26-1.06 4.76-2.2 5.56-2.53 .8-.34 1.92-.82 2.5-1.06 2.27-.97 7.7-2.85 9.56-3.32 .73-.18 1.88-.53 2.53-.78 .66-.24 1.62-.53 2.13-.65 1.82-.44 2.24-.61 3.09-1.04 .76-.38 .88-.56 .88-1.5-.01-.58-.12-1.19-.22-1.34-.09-.13-.02-.61-.69-.62z"/>
<path fill="#b16e41" d="m35.593,51.258l-.157,1.188c-.093,.657-.193,3.153-.219,5.536-.026,2.384-.182,4.885-.313,5.567-.132,.688-.173,6.489-.093,13.042 .079,6.497 .144,13.447 .125,15.418-.004,.354-.003,.637 0,.97 .059,1.705 .148,3.095 .219,3.847 .16,1.32 .407,2.376 .75,3.194 .311,.73 .719,1.15 1.627,1.59 .673,.33 1.7,.91 2.284,1.31 .584,.41 1.173,.75 1.282,.75 .11,.01 .189-.98 .188-2.18-.002-5.434 .253-15.26 .407-16.924 .01-.164 .02-.691 .031-.907 .006-.109 .078-3.705 .094-5.786 .016-2.08 .128-4.503 .25-5.379 .227-1.629-.11-2.319-.5-3.472-.485-1.501-1.091-3.233-1.721-4.691-.238-.552-1.084-3.136-1.877-5.723-.793-2.588-1.649-5.306-1.908-6.036l-.438-1.251c-.01-.023-.022-.042-.031-.063zm8.728,25.114c-.07,.049-.123,.144-.188,.313-.178,.464-.182,3.843-.156,4.472 .042,1.038-.213,9.662-.438,14.949-.063,1.471-.111,2.828-.126,4.064 0,.01 .001,.03 0,.03-.043,3.72-.642,15.42 .157,15.89 .152,.25 1.021,.95 1.908,1.53 3.305,2.18 4.98,3.23 5.068,3.16 .05-.03 .113-.48 .156-.97 .043-.48 .178-1.86 .282-3.06s.208-2.56 .25-3.04c.043-.48 .211-3.26 .376-6.16 .164-2.9 .662-7.902 .719-9.317 .008-1.471-.018-2.939-.156-3.565-.5-2.254-3.421-9.32-4.224-10.884-.262-.511-3.421-7.559-3.628-7.412zm10.323,23.425c-.068,.068-.182,.713-.25,1.443-.004,.04 .003,.05 0,.09-.013,.15-.047,.33-.063,.5-.065,.71-.132,1.5-.187,1.97-.069,.58-.151,2.35-.188,3.88s-.438,3.94-.438,4.66-.11,2.37-.25,3.69c-.141,1.31-.255,3.62-.251,5.16 .005,1.53-.057,3.4-.156,4.13-.1,.72-.23,1.74-.282,2.25-.051,.51-.236,1.76-.406,2.78-.171,1.02-.334,2.12-.376,2.41-.041,.29-.17,.84-.281,1.25-.117,.43-.071,1.02 .094,1.38 .376,.82 2.848,2.44 4.504,3.31 1.867,.7 1.952,1.04 3.754,1.82 .765,.35 1.196,.87 1.377-.25 .101-.63 .421-3.85 .719-7.13 .298-3.29 .682-6.7 .845-7.57 .164-.88 .323-3 .344-4.76l.031-2.87c-.054-.25-.136-.54-.25-.85l-1.001-2c-2.192-4.39-5.172-11.17-6.507-14.01-.365-.78-.71-1.355-.782-1.283zm10.918,22.953c-.317,.12-.768,3.68-1.439,11.45-.297,3.43-.588,6.73-.657,7.32-.069,.58-.19,2.19-.25,3.59-.06,1.41-.182,3.3-.282,4.16l-.094,.88-.031,.56c.013,.08 .041,.18 .063,.25l1.22,1.19c.913,.9 4.057,3.3 4.817,3.85 .803,.58 1.633,1.01 1.846,.97s.463-.49 .563-1 .256-1.96 .344-3.26c.088-1.29 .28-3.15 .438-4.12 .158-.98 .674-3.6 .907-5.63 .225-1.97 .315-2.55 .657-4.23 .527-2.57 .45-2.85-1.845-6.53-1.081-1.74-2.057-3.14-2.441-3.63-.171-.21-3.579-5.9-3.816-5.82zm10.386,16.64c-.081,.12-.25,.81-.282,.88-.109,.51-.207,1.14-.281,1.9-.267,2.74-.806,5.95-.907,6.23-.104,.29-.576,3.72-.657,5.25-.115,2.16-.145,4.37-.157,4.44-.226,1.37-.334,3.9-.594,5.79-.126,.91-.232,2.31 .094,3.22 .976,1.35 6.185,3.89 7.445,4.47s2.388,1.22 2.503,1.41c.338,.55 .573-.44 .625-2.66 .055-2.33 .194-3.54 .72-6.78 .213-1.32 .485-3.87 .626-5.7 .14-1.82 .379-3.99 .531-4.78 .262-1.36 .255-1.5-.438-2.5-.402-.59-1.256-1.58-1.876-2.22-.621-.65-1.445-1.89-1.846-2.32-.772-.83-1.307-1.52-2.878-3.78-.533-.77-2.335-2.82-2.44-2.85-.075-.02-.129,0-.188,0zm12.107,14.51l-.251,.82c-.145,.47-.81,7.16-1.22,8.85-.216,.88-.986,9.5-1.032,10.19-.007,.41 .056,1.05 .125,1.69 .062,.21 1.012,4.27 1.064,5.69 .024,.68 .409,5.17 1.22,5.98 .915,.79 1.556,.99 1.564,1 .298,.11 4.102,.98 4.286,1 .261,.03 .327-1.47 .312-6.82-.01-3.76 .048-7.01 .126-7.22 .077-.22 .329-2.3 .563-4.63 .266-2.66 .649-5.08 1.063-6.45 .42-1.7 .479-2.23-.031-2.72-1.415-1.27-2.533-2.05-2.815-2.31-.05-.04-.104-.08-.157-.13-.506-.39-1.126-.94-1.752-1.53-.322-.25-.672-.58-.969-.91-.006,0 .005-.02 0-.03-.457-.46-.874-.91-1.127-1.25l-.876-1.15c-.046-.04-.053-.04-.093-.07z"/>
</g>
</svg>
