<svg xmlns="http://www.w3.org/2000/svg" viewBox="0 0 240 240">
<path fill="#eb615b" d="m98.282,164.73h-84.732v-163.4l-12.095,.0022v175.53h108.96l-12.128-12.13z"/>
<path d="m.7451,177.53v-176.78h13.352v163.41h84.365l.184,.18 12.134,12.13 1.07,1.07h-111.11zm1.2576-1.25h106.81l-10.87-10.88h-85.1v-163.4l-10.837,.0027-.0003,162.77v11.51z"/>
<path fill="#eb615b" d="m6650,0 0,339-4580,0 0,2375-340,340 0-2715 0-339 340,0z" transform="matrix(.03568 0 0 -.03568 1.4156 238.78)"/>
<path d="m62.466,239.25v-111.1l1.074,1.07 12.13,12.13 .184,.19v84.36h163.4v13.35h-176.79zm1.258-1.25h174.28v-10.84h-163.4v-85.1l-10.873-10.87v106.81z"/>
<path fill="#eb6187" d="m37.692,77.617v112.59h-36.32l.0004,12.1v36.32h48.414v-36.32h112.59l-12.13-12.1h-100.46l-.004-100.46-12.094-12.133zm0,124.69v24.22h-24.225v-24.22h24.225z"/>
<path d="m37.062,76.094v113.49l-23.593,.01h-12.719v49.66h49.656v-36.31h113.5l-1.07-1.06-12.15-12.1-.19-.19h-100.09v-100.09l-.187-.188-12.094-12.156-1.063-1.062zm1.25,3.031l10.844,10.875v100.84h100.84l10.88,10.85h-111.72v36.31h-47.156v-47.16h36.312v-111.72zm-25.468,122.56v25.47h25.468v-25.47h-25.468zm1.25,1.25h22.968v22.97h-22.968v-22.97z"/>
</svg>
