<svg xmlns="http://www.w3.org/2000/svg" viewBox="0 0 284 118">
<g fill="#dca75a" transform="translate(-29.875 -34.75)">
<path d="m214.97,39.042c-21.96,.444-41.06,12.496-60.31,21.542-4.92,.863-12.32,4.879-16.07,.427 5.05-6.772 14.32-8.818 21.47-12.969 6.97,.402 10.81-7.524 1.75-7.513-13.85-3.742-29.01-.818-40.51,7.763-8.13,5.272-16.34,11.418-25.233,15.347-6.191,1.288-4.726-7.025-1.083-9.182 1.897-3.501 9.806-5.46 7.636-9.392-7.358-1.056-15.057,3.224-22.152,5.602-11.252,5.469-21.007,15.232-22.562,28.125 2.289,6.633-4.286,3.952-6.031,9.407-1.951,9.796 9.494,14.631 17.397,15.881 25.335,.32 50.188-7.095 75.598-6.948 22.36-1.526 44.8-3.559 67.24-1.607 19.79,.393 39.04,5.195 58.66,7.055 10.62-.25 23.73,3.48 32.17-4.819 7.54-9.859 .32-23.669-8.61-29.996-13.3-12.376-32.47-16.52-50.1-13.851-12.87,2.31-25.35,7.908-38.39,8.441-3.26-4.68 7.03-7.455 10.48-9.451 9.74-5.048 20.85-5.755 31.59-6.424 4.84-4.962-5.9-5.404-9.38-5.992-7.79-1.3-15.66-2.029-23.56-1.446z"/>
<path d="m166.59,117.42c-5.64,2.2-2.28,13.76-10.16,11.34-6.69-.97-13.67-1.95-20.27,.03-2.27-3.75-6.31-9.03-11.04-4.94-1.71,5.12-5.8,6.05-10.87,5.03-13.59-.36-27.456,.45-40.813,1.41-.457-6.6-13.944-6.97-11.844,.31-5.019,.58-10.816,5.33-6.937,10.5 9.358,12.48 26.971,10.36 40.681,9.17 23.363-3.08 46.963-2.2 70.443-3.57 20.98,.01 42.06-1.71 62.87,1.9 15.34,1.36 32.62,5.83 46.51-3.36 4.55-2.09 11.38-8.89 5.5-13.17-8.49-4.08-18.53-2.58-27.72-3.09-8.47,.69-17.02,.68-25.38,2.19-3.19-1.84 3.28-7.04-.75-9.85-4.43-4.67-7.87,2.49-6.97,6.6-5.7,6.06-15.52,2.45-22.81,1.22-7.95-2.82-16.5-2.44-24.34,.43-5.47-.59 4.82-5.7 .84-9.34-1.36-2.24-4.35-3.91-6.94-2.81z"/>
</g>
<g transform="translate(-29.875 -34.75)">
<path fill="#f3e98d" d="m150.12,112.98c-10.26,1.54-20.68,3.11-30.68,5.81-4.75,3.26-10.32,10.86-15.72,5.24-6.627-4.18-15.037-1.07-22.438-2.24-10.924-.79-21.865-.31-32.564,2.1-.177,4.69-1.729,6.11-7.945,6.87-6.441,.03-12.528,5.96-9.273,12.44 5.004,2.45 10.236-4.74 15.236-6.27 4.548-3.46 11.18-2.91 15.389-6.48 .434-5.19 9.598-4.4 10.531,.4 7.362,2.05 15.555-.62 23.281-.27 7.993,.08 14.983-.8 22.873-.13 6.14,1.93 5.88-8.7 12.1-5.6 2.96,4.17 6.74,6.54 12,4.38 6.45-1.1 13.68,3.18 19.43-.06 2.06-3.21 2.17-13.07 8.22-9.73 4.16,1.49 2.15,6.44-.5,8.45-.51,6.25 8,1.34 11.35,1.06 12.74-1.97 25.4,7.35 37.96,2.22 3.41-2.2-.13-10.08 5.25-9.82 4.48,2.01 1.5,6.33 .88,9.6 6.29,2.63 13.92-.39 20.74,.04 15.12-.96 31.1-1.55 44.8,5.95 4.09,4.47 9.13,4.65 11.18-1.86 1.31-3.84 8.24-6.81 6.21-10.65-4.97-3.03-9,.92-11.06,4.75-2.46,1.48-11.99-.1-8.33-4.02 .58-5.77-7.86-2.37-11.45-3.34-4,1.52-8.13,4.99-12.76,1.98-6.12-5.66-15.38-4.55-23.07-6.82-14.34-2.28-28.96-2.38-43.42-3.59-3.54,1.87 2.11,8.61-5.25,7.59-2.37-.53-11.87,1.01-9.43-3.38 3.6-6.2-6.49-4.15-10-4.61-7.85-.25-15.69-.24-23.54-.01zm92.94,9.72c4.81,3.8-5.91,2.23-1.4-.19 .47-.11 .93,.11 1.4,.19z"/>
</g>
<g fill="#e3c693" transform="translate(-29.875 -34.75)">
<path d="m237.53,46.074c-11.85,1.333-24.28,4.913-33.25,12.937-1.4,6.535 7.18,4.74 10.85,3.339 15.25-3.351 30.24-9.787 46.15-7.648 7.96,2.346 8.61-5.07 1.03-6.378-7.89-2.663-16.53-3.177-24.78-2.25z"/>
<path d="m203.37,36.761c-17.32,1.68-34.54,6.128-50.31,13.337-5.02,3.271-12.64,4.473-15.4,10.132 1.13,6.757 10.2,3.381 14.79,2.34 17.17-7.056 33.09-17.42 51.44-21.43 4.06-.56 3.63-5.07-.52-4.379z"/>
<path d="m133.19,37.824c-15.45,1.33-32.45,6.147-41.876,19.295-4.023,5.138 3.669,10.627 8.01,6.328 13.196-6.315 23.806-17.184 37.736-21.936 2.7-2.969-1.44-4.315-3.87-3.687z"/>
</g>
<g transform="translate(-29.875 -34.75)">
<path fill="#e4b45f" d="m189.56,112.95c-4.33-.76-11.55,6.03-5.22,8.34 4.67,.56 11.26,2.09 14.6-1.97-.41-4.09-5.74-6.32-9.38-6.37zm-76.4,6.28c-3.35,1.36-12.52-.33-11.07,4.93 4.15,4.99 13.75,2.42 14.88-3.81-1.2-.94-2.26-1.53-3.81-1.12zm153.34,1.69c-5.63,1.92 .78,6.66 4.28,5.03 6.25-2.51-.98-5.67-4.28-5.03zm-25.25,.03c-5.45,1.71 1.38,8.51 3.94,4.09 .67-2.58-1.46-4.5-3.94-4.09z"/>
<path fill="#f1b0c2" d="m306.91,100.21c.43,4.43 1.13,9.59-5.14,11.31-8.63,4.05-17.33-.75-25.24-3.47-3.05,6.71-15.51,5.5-23.1,4.82-9.2-.91-17.99-5.98-22.66-14.088-6.32-.294-12,5.238-18.62,5.728-7.91,2.33-15.55-.93-22.82-3.48-7.18,2.59-13.82,7.43-21.96,6.95-9.62,1.5-18.96-2.67-28.32-2.64-7.09,2.35-14.89,2.27-21.98,1.18-6.94,5.65-15.18,12.41-25.007,10.06-4.289-.76-8.024-4.35-12.372-1.27-11.643,5.06-28.891-.93-29.514-15.06-4.113-3.899-8.542,3.72-11.017,6.73-4.55,9.31 7.361,20.33 16.642,16.8 17.601-3.1 35.571,1.66 53.118-2.44 18.6-3.31 37.15-7.86 56.16-7.1 17.68-.85 35.3,.52 52.91,1.68 20.31-.31 39.79,6.84 60.11,6.74 12.49,2.2 25.97-.88 33.59-11.74 2.75-6.38-2.19-12.352-4.78-10.71z"/>
<path fill="#f3e97d" d="m54.302,99.344c-1.936,9.076 13.763,14.376 17.093,5.596-4.155-3.49-10.593-3.72-15.312-6.69-.594,.365-1.188,.729-1.781,1.094z"/>
</g>
<g fill="#f5f5f5" transform="translate(-29.875 -34.75)">
<path d="m50.395,94.688c-5.017,11.702 6.918,24.552 18.969,23.402 9.052,.52 20.449-3.85 20.948-14.21-3.163-3.75-9.933-.46-14.51-1.07-5.384,1.93-11.033,8.61-16.943,3.8-5.785-1.8-1.366-13.394-8.464-11.922z"/>
<path d="m138.9,95.938c-5.33-.846-9.72,1.601-13.88,4.562-5.3,2.36-10.63-2.063-15.72-1.343-2.81,5.653 6.78,6.533 10.13,8.503 10.73,2.25 22.81-.47 30.47-8.597 .93-5.621-8.02-2.463-11-3.125z"/>
</g>
<g transform="translate(-29.875 -34.75)">
<path fill="#f3e97d" d="m124.02,96.938c-4.12-.719-14.64,3.322-6.44,5.742 3.74,.98 13.78-.29 11.08-5.321-1.26-1.287-3.09-.295-4.64-.421z"/>
<path fill="#f5f5f5" d="m187.24,93.532c-7.86,.655 .16,7.588 3.56,8.938 11.75,6.87 26.91,4.84 37.5-3.188 2.01-5.09-8.26-5.801-11.09-3.063-7.47,4.171-16.64,1.641-23.25-2.75-2.24-.195-4.48-.012-6.72,.063z"/>
<path fill="#f3e97d" d="m198.86,93.407c-7.03,3.013 2.62,6.092 6.4,5.861 3.66,.321 14.17,1.752 12.13-3.769-5.34-2.421-12.62-1.402-18.53-2.092z"/>
<path fill="#f5f5f5" d="m302.33,96.907c-4.8,1.85 .16,9.673-6.68,8.983-5.82,.62-9.73-5.88-15.85-3.87-7.07-1.34-6.12,6.06-.38,7.46 7.82,5.04 19.98,7.37 27.32,.52 3.22-3.86-1.51-15.959-3.16-12.38l-1.25-.713z"/>
<path fill="#f3e97d" d="m299.86,98.438c-2.86,4.002-13.72,.549-10.75,7.132 4.88,4.3 14.9,1.75 13.34-6.207-1.04-1.188-.82-1.834-2.59-.925z"/>
<path fill="#ad3833" d="m179.8,101.88c-11.05,4.19-23.15,2.97-34.5,.75-6.86,3.53 4.18,6.33 7.77,6.18 11.53,1.6 24.91,1.7 34.42-5.93 1.54-5.506-5.5-2.34-7.69-1z"/>
<path fill="#cc453e" d="m165.05,94.438c-4.24,.847-8.03,1.015-12.15,1.5-4.84,1.928-9.7,10.162-1.07,9.502 9.29,.84 20.19,1.42 28.24-2.47 3.71-.25 8.63-4.904 3.8-7.63-4.76-4.318-2.92,2.469-4.97,3.254 3.39-7.803-10.28-3.501-13.85-4.156zm4.25,5.5c-3.63,2.542 .68-1.228 0,0zm-10.94,1.122c-.66,.31-.03-.27 0,0z"/>
<path fill="#ad3833" d="m230.77,97.094c-1.37,6.656 6.74,11.346 11.81,14.266 10.28,5.03 23.44,5.23 33.38-.33 .53-7.08-6.66-1.08-10.62-1.26-11.28,1.85-25.5-4.1-31.38-13.051-1.3-.8-2.11-.647-3.19,.375z"/>
<path fill="#cc453e" d="m236.65,96.844c-5.41,3.566 3.68,8.236 6.51,9.666 5.6,5.27 5.81-5.62 7-.41-2.96,4.38 6.08,4.29 8.99,4.68 3.57,.38 6.44-.73 9.93-1.06 5.51,.08 7.71-5.18 2.47-7.5-3.64-3.704-7.39,4.22-8.37-.38-5.49-3.623-13.3-2.208-18.75-4.09-2.87,1.052-4.14-1.935-7.78-.906zm9.75,5.626c-2.1,.23 .06-.85 0,0zm8,2.59c-.27,.57-4.58,.34 0,0zm7.34,1.66c-.61,.27 .32-.76 0,0z"/>
<path fill="#ad3833" d="m112.24,105.03c-6.53,6.19-15.808,8.1-24.501,6.25-7.292,2.67 2.058,7.89 6.156,7.19 8.395,.01 18.855-3.37 22.505-11.38-.34-1.97-2.4-2.9-4.16-2.06z"/>
<path fill="#cc453e" d="m100.21,100.47c-3.572,.46-12.167,.76-9.502,6.41 6.372,3.83-2.532-1.83-3.156,3.56 1.281,5.72 8.764,1.7 12.728,1.66 4.47-1.33 11.89-3.42 11.68-8.44-3.15-3.19-7.49-3.22-11.75-3.19z"/>
<path d="m214.33,35.563c-1.36-.052-2.54-.03-3.59,.031-1.14,.067-3.42,.127-5.03,.156-.48,.009-1.28,.144-1.94,.188-.9,.059-1.64,.131-2.47,.219-.79,.082-1.52,.091-2.19,.187-2.01,.292-4.57,.624-5.71,.719-3.31,.273-5.4,.604-7.66,1.281-1.16,.346-3.31,.884-4.75,1.188-1.44,.303-2.93,.688-3.31,.843-.89,.355-2.2,.781-5,1.625-2.18,.658-2.23,.67-3.03-.031-.69-.603-1.75-1.101-3.22-1.531-.15-.043-.32-.134-.44-.156-.1-.019-.25-.045-.34-.063-.9-.225-1.9-.419-3.13-.625-1.88-.316-4.5-.805-5.81-1.062-6.13-1.2-12.51-1.784-18.1-1.719h-.03c-.2-.001-.4,.029-.59,.031-1.57,.034-3.12,.106-4.53,.25-2.58,.262-5.22,.507-5.88,.563-.51,.042-8.08,1.474-9.5,1.875-1.41,.4-12.21,2.972-13.75,3.312-1.84,.407-2.39,.575-3.59,.875-.13,.029-.12,.033-.25,.063-.03,.005-.04,.025-.06,.031-.982,.247-2.705,.611-3.097,.75-.387,.137-2.443,.706-4.563,1.281-.572,.155-1.032,.348-1.656,.531-1.687,.496-3.549,1.028-4.469,1.375-.809,.306-2.043,.765-3.187,1.188-.232,.079-.454,.165-.75,.281-.347,.128-.703,.266-1,.375-1.236,.451-2.825,1.283-3.969,2-.008,.005-.055-.005-.062,0-.008,.005-.024,.026-.032,.031-.173,.111-.419,.242-.562,.344-1.085,.774-2.835,1.818-3.906,2.344-1.072,.526-2.874,1.75-4,2.687-.791,.658-1.799,1.644-2.782,2.657-.207,.181-.95,.881-1.031,1.031-1.304,1.41-2.966,4.155-3.687,5.156-.098,.136-.209,.456-.313,.625-.01,.014-.021,.017-.031,.031-.595,.825-1.396,2.411-1.781,3.532-.201,.582-.386,1.084-.594,1.687-1.203,3.232-2.22,6.765-2.313,8.563-.01,.196-.047,.31-.062,.468-.069,.686-.571,1.38-1.5,2.313-.815,.628-2.123,1.857-2.906,2.75-1.052,1.506-1.215,2.226-1.563,4.125l-.375,3.687s-.633,2.964-2.406,3.875c-.86,.419-4.042,3.27-6.5,5.72-.632,.63-1.055,1.1-1.5,1.59-.095,.11-1.826,2.6-1.906,3.53-.061,.25-.425,2.16-.5,3.19 .057,1.07 .37,2.34 .625,3.35 .433,1.71 .915,2.5 2.562,4.28 .666,.72 1.06,1.05 1.594,1.56 .354,.34 .916,.96 1.062,1.06 1.317,.88 .319,1.24-.906,1.6-1.366,.35-2.697,.93-4.062,1.28-.879,.26-1.305,.75-1.469,1-.147,.19-.229,.38-.313,.56-.356,.78-.207,1.51 .594,2.09 .967,.71 1.978,.72 6.188,0 1.952-.33 2.917-.4 3.125-.28 .013,.01 .02,.02 .031,.03 .002,.03-.044,.04-.063,.07-.055,.06-.176,.17-.406,.28-.15,.08-.403,.16-.625,.25-.338,.13-.749,.29-1.25,.47-1.35,.41-2.914,.77-4.187,.9-3.455-.16-4.471,.04-5.938,1.1-.255,.18-.512,.46-.781,.71-.096,.09-.256,.22-.344,.32-.455,.48-1.441,1.69-1.656,2.06-.176,.23-.694,1.49-.719,1.53-.675,1.04-.695,5.16-.031,7.5 .111,.39 .118,.67 .156,.94 .005,.13 .634,1.73 2.219,1.12 .943-.32 2.851-1.07 3.375-1.68 .524-.62 1.716-1.35 2.281-1.6 .24-.11 .763-.48 1.188-.72 .017-.01 .045,.01 .062,0 .015-.01 .078-.05 .094-.06 .538-.31 .971-.53 1.5-.87 2.341-1.52 8.647-4.87 10.25-5.44l1.094-.41c.05,.04 .086,.22 .125,.38l-.094,1.59c-.201,3.92 2.115,7.46 6.812,10.44 3.737,2.36 8.003,3.78 13.157,4.37 5.898,.68 13.531,.87 15.281,.38 .848-.24 2.528-.51 3.75-.56 1.222-.06 2.771-.13 3.437-.16 1.661-.08 7.905-.71 11.255-1.16 1.51-.2 4.87-.5 7.46-.65 2.23-.13 3.97-.27 4.88-.35 1.01-.03 2.68-.06 3.87-.09 .93,0 1.34-.02 2.44,0 2.51,.04 5.21,.03 5.97-.03s3.01-.13 5-.13c1.99,.01 4.02,0 4.5-.06 1.62-.19 8.82-.47 12.13-.47 1.8,.01 4.37-.17 5.71-.37 .65-.1 1.92-.18 3.38-.22 .13-.01 .21,0 .34,0 1.51-.04 3.23-.04 4.85,0 3.37,.08 6.23,.08 6.37,0 .15-.08 2.68-.13 5.63-.1 2.94,.04 6.6-.02 8.12-.12 6.18-.43 9.46-.54 14.1-.38 .06,.01 .11,0 .18,0 .1,.01 .19,.03 .28,.04 1.52,.05 3.16,.13 5.13,.25 4.92,.29 10.03,.74 11.34,1 1.32,.25 4.57,.65 7.22,.9s6.27,.66 8.06,.94c3,.46 9.65,1.01 15.6,1.37 4.3,.31 7.89,.48 9.72,.35 .09-.01 .33,0 .4,0l1.32-.16c.44-.06 .89-.2 1.34-.28 5.77-1.08 11.57-3.52 16.72-7.22 2.93-2.1 4.59-4.28 5.34-7.03 .29-1.03 .56-1.92 .6-1.97 .03-.05 1.44,.49 3.12,1.22 3.79,1.64 5.93,3.21 8.47,6.13 .21,.24 .4,.32 .59,.5 .18,.22 .39,.37 .63,.5 .08,.04 .16,.06 .25,.09 .01,0 .02,.03 .03,.03 .04,.02 .09,.06 .12,.06 .01,0 .02,.01 .04,0h.12c.9,.06 1.63-.96 2.34-3.15 .43-1.31 4.66-7.99 5.5-8.69 .22-.18 .9-.97 1.5-1.78 1.16-1.56 3.53-3.14 5.16-3.41 1.2-.2 1.62-.96 1.03-1.97-.02-.04-.42-.37-.56-.47-1.1-.75-3.78-.68-7.03-.85-1.56-.08-4.81-.08-6,.48-.6,.28-.8,.96-.63,1.69 .07,.71-.3,1.22-.72,1.97-.25,.34-.81,1.56-2.34,1.65-5.9,.03-7.27-.67-6.75-3.15 .2-.7 .34-2.05 1.86-2.04 1.17-.25 2.19-.43 4.07-.65 2.23-.49 4.7-1.77 7.02-3.21 3.33-1.6 5.24-3.63 7.76-5.54 2.68-2.53 3.7-5.88 3.74-6.91 .4-2.98-1.21-5.33-2.07-5.97-1.59-1.17-4.78-3.425-5.38-3.812-.42-.509-.97-.855-.67-1.918 .28-.959 .66-1.723 .85-2.879 .15-1.017 .33-2.209 .35-2.388 .33-3.567-.1-6.634-1.25-9.25-.08-.194-.16-.385-.25-.563-.11-.222-.16-.472-.28-.687-.47-.83-1.15-2.277-1.59-3.344-.2-.61-.54-1.243-1.1-2-2.4-3.627-7.8-8.666-12.15-11.156-.71-.403-3.36-2.343-3.85-2.719-.87-.677-3.33-2.244-6.56-4.187-.92-.555-3.65-2.235-6.06-3.719-2.41-1.485-5.34-3.145-6.53-3.688-1.19-.542-2.48-1.108-2.85-1.281-3.03-1.417-8.27-3.477-12.97-5.187-.15-.068-.45-.2-.56-.25-1.16-.555-3.72-1.368-6.44-2.125-.42-.123-1.06-.334-1.37-.407-.84-.197-.98-.222-1.63-.375-.33-.083-.64-.142-.96-.218-3.01-.699-5.04-1.125-7.5-1.532-.06-.009-.1-.021-.16-.031-.03-.006-.03-.025-.06-.031-.38-.062-.52-.083-.97-.156-.19-.032-.34-.064-.53-.094-.01-.002-.03,.002-.03,0-7.38-1.192-12.84-1.848-16.82-2zm-9.28,3.125c.74,.076-.79,.549-4.65,1.469-6.66,1.581-12.34,3.48-16.29,5.343 0,.001-.02,.032-.03,.032-.02-.001-1.43,.657-1.87,.906-.04,.019-11.59,5.478-13.63,6.344s-6.94,3.76-8.22,4.187c-.84,.282-1.95,.803-2.46,1.188-.52,.384-1.9,1.022-3.04,1.406-.66,.226-.94,.374-1.4,.562-1.08,.374-1.96,.654-2.66,.875-.05,.011-.07,.021-.12,.032-.76,.148-2.53,.528-3.97,.843-2.77,.604-5.24,.617-6.5,.032-.83-.382-.92-1.553-.25-2.375 .04-.047 .08-.108 .12-.157 .7-.719 3.41-2.373 4.82-2.937 .29-.117 .76-.403 1.06-.625 .29-.223 2.48-1.288 4.81-2.344s4.54-2.147 4.94-2.469c.98-.799 4.62-2.369 6.53-2.812 .86-.201 4.86-1.371 5.44-1.594 1.1-.425 3.48-1.207 5.87-1.937 .28-.085 5.56-1.624 6.78-1.907 1.54-.356 3.27-.826 3.85-1.031 1.81-.638 8.96-1.941 10.25-1.875 .67,.035 6.43-.789 7.68-.937 .61-.072 .89-.087 1.32-.125 .52-.038 1.03-.071 1.62-.094zm-68.9,1.031c.34,.082 .05,.254-1,.531-.74,.194-2.41,.762-3.72,1.25-1.31,.489-4.01,1.865-4.63,2.282-.39,.161-1,.5-1.65,.968-.87,.619-3.17,2.059-3.97,2.532-.8,.472-2.41,1.606-3.57,2.531-1.01,.808-2.36,1.776-3.34,2.406-.25,.128-1.57,.985-2.16,1.344-.19,.12-.42,.236-.59,.344-.28,.182-1,.632-1.44,.906-2.29,1.417-5.3,3.198-6.75,4-.88,.486-5.628,3.59-6.716,3.906-4.475,1.298-5.957-2.358-2.562-6.344 2.762-3.243 6.338-6.169 9.308-7.625 .96-.465 2.36-1.257 3.13-1.75 .77-.492 3.06-1.644 3.16-1.718 .85-.384 1.73-.757 2.78-1.157 1.9-.584 5.06-1.581 6.65-2.125 .7-.171 1.18-.245 1.78-.375 2.29-.492 8.57-1.44 12.38-1.812 1.57-.154 2.56-.176 2.91-.094zm84.34,1.156c1.22-.053 1.97-.026 2.87,0 .24,.012 .53,.017 .75,.032 .67,.041 1.58,.105 2.41,.156 1.22,.138 2.82,.301 5.31,.5 5.85,.464 14.07,2.303 14.75,2.469 .69,.165 1.16,.381 1.07,.468-.18,.162-4.79,.496-8.22,.594-2.82,.08-6.42,.474-7.47,.813-.51,.163-2.63,.598-4.72,.968-2.15,.38-4.87,1.151-6.22,1.75-4.83,2.148-8.3,3.561-9.28,4.063-4.18,2.127-4.89,2.52-5.97,3.344-2.95,2.459-2.96,3.226-3.25,4.906-.22,.821 .34,1.974 1.13,2.594 .87,.694 1.88,.892 3.31,1.156 2.46-.05 6.85-1.183 7.72-1.375 .86-.193 2.23-.535 3.06-.75 .82-.215 4.83-1.06 6.16-1.313 1.32-.252 4.75-1.429 5.4-1.625 .64-.133 1.23-.241 2.31-.562 1.56-.463 4.73-1.297 7.04-1.875 2.3-.579 5.4-1.516 7.87-1.75 2.3-.227 4.08-.451 12.59,0 4.06,.215 6.61,.414 8.88,.875 2.26,.46 4.23,1.176 7.12,2.375 1.89,.782 3.97,1.58 4.63,1.75 1.48,.384 2,.674 6.47,3.844 1.97,1.402 3.66,2.558 3.75,2.562 .08,.004 .73,.473 1.44,1.031 5.5,4.363 9.16,8.358 9.71,10.594 .12,.481 .47,1.266 .79,1.719 .31,.452 .97,1.951 1.43,3.344 .27,.802 .36,1.364 .47,1.968 .09,.492 .1,.972 .16,1.469 .03,.705 .06,1.382 0,2.531-.23,3.909-.72,5.18-2.75,7.125-.36,.347-.42,.505-.66,.782-.89,.758-1.82,1.423-2.62,1.843-1.22,.491-2.8,1-4.16,1.31-.79,.18-1.71,.3-2.75,.38-.18,.01-.37,.05-.56,.06-1.14,.06-2.38,.06-3.97,.03-2.66-.05-5.59-.03-6.5,.03-1.59,.1-7.48-.2-14.19-.72-1.7-.13-3.72-.429-4.47-.683-1.38-.471-6.35-1.301-11.31-1.875-1.51-.175-3.65-.544-4.78-.813-1.95-.466-5.71-.96-11.16-1.594-.88-.146-2.14-.322-4.12-.5-.36-.039-.47-.053-.85-.093-2.08-.225-5.47-.481-9.31-.75-.16-.012-.33-.02-.5-.032-.28-.019-.62-.042-.9-.062-.29-.028-.47-.06-1.04-.094-.46-.031-1.76-.166-1.84-.156-.05,.005-1.27-.046-1.72-.063-8.81-.581-17.67-1.027-18.78-.875-.04,.006-.17-.006-.22,0-.43-.001-1.46-.045-1.69-.031-1.04,.068-4.21,.09-7.06,.063-1.42-.014-2.28,.056-3.56,.093-.43,.002-.83,.018-1.28,.032-.18-.034-.38-.046-.63,0-.16,.029-.36,.039-.53,.062-.25,.019-.93,.01-1.09,.031-1.05,.142-4.18,.243-6.94,.25-2.75,.008-6.25,.196-7.78,.407-1.53,.21-4.65,.55-6.94,.75-2.29,.199-4.49,.403-4.87,.468-.39,.066-3.03,.176-5.88,.219-10.63,.159-16.17,.485-23.03,1.375-1.63,.211-5.32,.649-8.19,.969-7.18,.802-12.55,1.595-14.34,2.094-.58,.096-1.173,.177-1.813,.25-.71,.06-11.673,1.568-13.907,1.628-1.236,.03-3.258,.15-4.5,.28-1.241,.13-7.68,.81-8.375,.84-2.083,.09-5.16-.68-9.687-2.37-1.72-.648-2.722-1.074-3.563-1.503-.207-.101-.419-.222-.593-.313-.762-.44-1.325-.876-2.032-1.562-2.374-2.306-3.492-5.274-3-7.469 .048-.173 .059-.363 .125-.531 .003-.008-.003-.024 0-.032 .127-.316 .307-.61 .5-.906 .806-1.117 2.277-2.579 2.594-2.562 .135,.006 .392,.837 .563,1.843s.423,2.144 .562,2.532c.74,2.062 1.219,3.768 1.188,4.375-.043,.83 1.347,1.023 2.031,.281 .181-.197 .266-.61 .312-1.125 .028-.126 .131-2.472-.218-3.031-.004-.006-.216-1.171-.375-1.75-.908-3.296-1.298-6.66-1.094-8.875 .025-.141 .033-.252 .062-.407 .077-.401 .879-2.964 1.063-4 .136-.764 .309-1.495 .5-2.187 .169-.614 .377-1.184 .594-1.75 .037-.098 .054-.216 .093-.313 .497-1.235 1.119-2.354 1.875-3.437 .798-1.142 1.456-2.197 1.469-2.344 .049-.57 3.245-4.053 5.125-5.594 1.088-.891 3.096-2.314 4.469-3.156s3.297-2.084 4.281-2.75c.458-.31 1.133-.686 1.844-1.031 .075-.037 .143-.058 .219-.094 .749-.355 1.531-.688 2.187-.906 .55-.183 1.28-.489 2-.75 1.051-.381 2.132-.738 2.938-1.063 1.357-.546 3.651-1.257 5.093-1.593 1.442-.337 3.258-.832 4.032-1.094 1.395-.473 4.008-.94 3.998-.719 0,.063-.93,.724-2.061,1.469-2.159,1.423-4.764,3.821-6.687,5.969-.041,.044-.117,.081-.157,.125-.014,.016-.016,.045-.031,.062-.413,.469-.739,.855-1.062,1.281-.153,.201-.373,.438-.5,.625-.089,.13-.079,.194-.157,.313-.065,.104-.194,.246-.25,.344-.107,.188-.157,.377-.25,.562-.157,.304-.349,.703-.437,1-.672,1.821-.608,3.502 .187,5 .068,.151 .137,.3 .219,.438 .034,.053 .058,.103 .094,.156 .154,.226 .315,.38 .469,.562 .386,.457 .771,.832 1.25,1.063l.343,.094c.564,.207 1.209,.36 2.094,.406 2.351,.12 3.571-.278 5.876-1.844 1.13-.767 3.2-2.054 4.59-2.875 2.65-1.561 6.31-3.848 8.97-5.594 .86-.565 2.17-1.359 2.91-1.781s2.05-1.386 2.9-2.125c.22-.19 .41-.306 .63-.469 .22-.164 .46-.334 .69-.5 .32-.198 6.71-4.201 10.53-6.125 .24-.108 .52-.276 .75-.375 .02-.01 .04-.021 .06-.031 .03-.014 .09-.018 .13-.031 .6-.256 1.21-.493 1.84-.719 1.95-.651 4.47-1.262 7.5-1.844 2.83-.542 4.53-.654 8.37-.5 2.66,.107 5.38,.315 6.04,.469 .65,.154 1.71,.383 2.37,.5 1.28,.226 5.13,1.073 6.41,1.406 1.05,.275 .94,.821-.22,1.032-2.79,.506-9.09,2.983-11.19,4.406-.37,.249-.46,.242-.78,.437-.77,.41-1.53,.804-2.16,1.063-.6,.202-1.48,.633-2.72,1.25-2.57,1.289-5.99,3.175-8.65,4.875-.69,.437-1.48,1.365-2.1,2.375-.26,.372-.41,.773-.56,1.156-.05,.11-.11,.206-.15,.313-.03,.085-.08,.162-.1,.25-.02,.094-.01,.189-.03,.281-.05,.206-.15,.454-.16,.625-.02,.535 .25,1.018 .66,1.5 .02,.025 .04,.068 .06,.094 .19,.217 .42,.412 .69,.593 1.12,.818 2.77,1.409 4.63,1.5 1.23,.061 3.1-.165 5.12-.531 2.92-.53 6.19-1.359 8.66-2.344 .58-.232 21.86-11.229 22.56-11.375 .44-.091 9.5-4.122 10.56-4.531 1.86-.71 10.88-3.331 13.22-3.875 .51-.108 .94-.245 1.5-.344 1.12-.145 5.45-.626 7.81-.875 .58-.06 1.99-.157 3.13-.187 1.14-.031 3.63-.105 5.53-.188zm22.62,6.782c.72-.092 2.12-.09 3.82,0 1.69,.089 3.66,.275 5.47,.5 4.11,.512 7.47,1.153 9.28,2.093 .92,.481 5,2.436 5,2.563-.01,.111-3.31,.049-7.38-.125-.01-.001-.02,0-.03,0-3.67-.216-7.53-.386-9.22-.313-.38,.017-.78,.068-1.15,.094-5,.224-9.24,1.281-18.88,4.063-3.34,.887-6.14,1.601-8.34,2.156-3.52,.768-7.45,1.748-9.94,2.469-1.56,.452-2.44,.672-3.13,.718-.31,.008-.61-.005-.9-.062-.04-.008-.66-.21-.97-.344-1.3-.551-1.17-1.694 .31-2.687 2.49-1.675 6.55-4.006 7.78-4.469 .1-.038 .21-.088 .32-.125 .53-.195 1.49-.625 2.34-1 .23-.104 .44-.154 .66-.25 .72-.303 .88-.351 1.75-.719 2.33-.996 5.1-1.958 6.15-2.125s3.14-.635 4.66-1.031c1.51-.396 4.65-.824 6.97-.969 2.31-.145 4.76-.352 5.43-.437zm-43.93,47.75c.42-.101 5.42,.283 9.06,.5 3.62,.215 5.79,.368 7.12,.625 1.9,.078-.11,1.691-2.73,2.055-2.06,.425-3.1,.3-5.41,.329-2.69-.302-4.29-.75-5.54-1.212-1.38-.612-2.71-1.238-3.16-1.511-.75-.459-.62-.964 .66-.786zm-7.88,.062c.85,.009 1.81,.014 2.25,.063 .3,.034 .54,.09 .75,.156 .11,.058 .23,.105 .31,.187 1.14,1.084 2.63,2.115 4.3,2.763 1.46,.586 3.54,1.324 5.64,1.602 2.12,.3 5.24,.14 7.53-.01 2.19-.502 3.87-.628 6.25-2.261l1.91-1.281 3.28,.375c1.82,.213 3.38,.461 3.47,.562 .09,.1-.11,.447-.44,.782-.35,.284-5.12,2.983-7.76,3.963-.35,.12-4.79,1.73-9.6,2.5-5.49,.42-7.88-.4-12.26-1.84-1.14-.4-4.69-1.94-5.35-2.31-2.29-1.294-6.41-4.618-6.09-4.907 .08-.074 .88-.165 1.81-.188 .88-.021 2.64-.091 4-.156zm-18.37,.438c1.31-.005 2.03-.001 2.34,.062s.2,.166-.12,.375c-1.43,.93-1.61,1.185-1.66,2.188-.08,1.568 1.6,3.148 3.5,3.278 .94,.07 .94,.09-.31,.53-.71,.26-3.45,.8-6.1,1.19-4.29,.64-5.54,.69-11.37,.38-3.4-.19-5.59-.34-7.31-.5-1.51-.18-2.55-.34-3.16-.47-.16-.06-.39-.1-.44-.16-.35-.38 4.57-4.898 5.75-5.28 .51-.165 1.01-.25 1.06-.187 .06,.063-.16,.743-.46,1.5-.05,.11-.06,.179-.1,.281-.56,1.536-.35,2.286 .91,3.246 1.27,.97 2.29,1.08 4.34,.47 1.64-.48 2.46-1.21 2.53-2.28 .04-.592 .12-.547 .63,.31 1.35,2.31 3.2,2.88 5.75,1.75 1.57-.69 2.53-1.55 2.87-2.5 .26-.719 .19-1.51-.31-2.308-.16-.252-.39-.454-.62-.594-.03-.023-.07-.082-.1-.094-.13-.059-.26-.063-.4-.062-.59-.139-1.18-.002-1.35,.531-.12,.369-.4,.58-.65,.469-.47-.205-1.73,.723-2.04,1.5-.21,.558-.64,.266-.78-.25-.01-.054-.02-.129-.03-.188-.02-.156-.02-.302 .03-.469 .19-.614-.1-1.174-.56-1.406-.01-.01-.05-.056-.06-.062-.02-.008-.02,.006-.03,0-.07-.025-.15-.023-.22-.032-.1-.006-.21-.027-.31,0-.04,.008-.06-.011-.1,0-.04,.015-.11,.094-.15,.125-.3,.16-.53,.413-.66,.75-.05,.078-.12,.14-.16,.219-.19,.432-.29,.647-.37,.688-.02-.01-.04-.017-.06-.032-.07-.03-.12-.157-.22-.468-.14-.415-.43-.863-.63-1-.69-.481 .1-.859 1.6-.782 .83,.043 1.6-.059 1.71-.218 .22-.31 3.04-.483 7.82-.5zm8.43,0c.32,.094 1.21,.799 1.97,1.593l.72,.75c.02,.129 0,.253-.06,.375l-.88,.688c-.56,.408-1.32,.907-1.78,1.127-1.59,.76-2.5,.88-2.25,.31 .13-.28 .66-.53 1.16-.56 .12-.01 .23-.09 .34-.13 .44-.13 .86-.411 1.13-.841 .04-.063 .03-.068 .06-.125 .2-.254 .34-.526 .34-.75 .01-.23-.09-.581-.25-.906-.01-.045-.01-.046-.03-.094-.24-.552-.49-1.148-.56-1.312-.05-.121-.01-.157 .09-.125zm-4.46,.031c.8,.041 .88,.112 .5,.531-.56,.606-.54,.598-1.04-.062-.34-.457-.27-.51 .54-.469zm-125.22,.312c.052-.027 .368,.009 .468,.094 .476,.401 .916,1.643 .938,2.875 .033,1.891 .525,3.681 1.312,5.281 .595,1.21 1.34,2.33 2.282,3.19 .888,.8 2.633,1.58 4.343,2.12 .101,.04 .179,.06 .282,.1 .151,.05 .289,.08 .437,.12 .378,.1 .709,.19 1.063,.25 .178,.03 .355,.05 .531,.06 .327,.04 .694,.11 .969,.1 2.582-.07 6.79-1.95 8.125-3.63 .959-1.21 2.38-1.93 4.031-2.09 .55-.06 5.672-.4 9.812-.53l1.719-.06c.323,.03 .502,.07 .625,.12l-.25,.81c-.921,3.01-2.464,5.76-4,7.1-.984,.69-1.989,1.25-2.937,1.68-3.442,1.68-7.881,2.38-12.094,2.22-5.509-.2-6.592-.56-9.75-2.37-5.668-3.26-8.3-7.85-8.219-14.283 .021-1.66 .168-3.063 .313-3.157zm107.22,.813c.88,.045 1.11,.2 .93,.594-.12,.281-.05,.746 .16,1.031 .21,.284 .33,.767 .25,1.094-.12,.458-.24,.398-.53-.344-.22-.562-.42-.848-.72-.906-.14-.036-.31-.024-.53,.062-.21,.081-.47,.222-.78,.406-.01,.003-.03-.003-.03,0l-.04,.032c-.85,.496-.89,.481-.59-.157 .17-.37 .42-.923 .53-1.25 .14-.413 .54-.603 1.35-.562zm146,.594c.13,.006 .71,1.631 1.4,3.873 .68,2.19 .65,3.23 .09,5.13-.81,1.94-1.75,2.91-3.05,3.73-1.44,.83-3.26,1.37-4.35,1.55-.02,0-.07,.03-.09,.03h-.04c-4.3,.59-10.8-.17-13.37-1.56-.83-.46-2.58-1.35-3.88-2-2.4-1.21-5.52-3.49-5.5-4 .02-.29 .22-.34 1.75-.38 .48-.01 2.29-.04 4.04-.09l2.37-.06c.49,.05 .85,.11 1.13,.18l2.81,1.75c2.03,1.52 3.28,1.97 5.5,2.13 4.93,.34 8.02-1.38 9.03-5 .29-1.03 .46-2.38 .37-3.033 0-.062-.02-1.183 .75-1.719 .5-.291 .96-.535 1.04-.531zm-158.04,.093c1.26,.003 1.45,.065 1.44,.219 0,.04-.1,.137-.12,.188-.36,.7-2.94,2.603-6.28,4.593-3.78,2.25-5.08,2.63-11.72,3.53-1.22,.11-2.67,.22-4.32,.25-2.34-.02-4.6-.3-6.12-.81-2.18-.73-4.63-1.72-6.19-2.5-.13-.07-.29-.16-.4-.22-.48-.25-2.45-1.34-2.66-1.62-.3-.41-.24-.57 .34-.72 .48-.13 1.24,.12 2.19,.75 2.09,1.37 5.49,2.04 8.94,1.72 .68-.07 1.28-.18 1.87-.29 .35-.06 .68-.13 1-.21 .31-.07 .72-.12 .97-.22 .15-.06 .32-.15 .47-.22 1.41-.54 2.63-1.31 3.91-2.408 .91-.786 1.74-1.333 2.12-1.5 .52-.081 1.52-.155 2.66-.219 1.19-.032 1.96-.024 4.03-.094 4.31-.146 6.62-.221 7.87-.219zm29.5,.282c.07-.02 .15,.07 .29,.218 .08,.094 .14,.192 .18,.313 .02,.18 .02,.383 0,.5-.2,.421-.59-.058-.56-.719 .01-.194 .03-.293 .09-.312zm56.1,.062c.47,.042 4.61,5.336 7.03,7.156 2.41,1.65 6.78,3.69 8.91,4.34 1.96,.61 3.31,.95 4.09,1.1 2.72,.79 4.77,.98 6.9,.95 1.79-.14 3.95-.46 5.72-.67 1.53-.19 3.53-.66 4.65-.91 1.16-.37 2.66-.83 3.96-1.06 .58,.43 .69,1.05 .29,1.28-.31,.18-1.9,.66-3.79,1.12-1.41,.39-3,.85-4.77,1.19-1.95,.43-4,.59-6.05,.66-2.11,.01-3.96-.3-5.56-.48-3.15-.28-6.91-1.67-9.12-2.46-1.89-.91-4.06-2.33-5.54-3.18-2.5-1.83-3.54-2.7-5.5-5.35-1.15-1.788-2.2-2.86-1.22-3.686zm-104.72,.594c.03,.049-.42,.592-.97,.937-.7,.405-1.97,.905-3.5,1.215-2.13,.38-7.27-.15-7.25-.5 .02-.3 1.49-.659 4.75-1.027 1.24-.141 3.05-.282 3.44-.375 .3-.073 3.5-.299 3.53-.25zm110.72,.094l2.06,.031-.16,1.407c-.06,.51-.05,.94 .04,1.31 .02,.13 .07,.25 .15,.38 .03,.04 .03,.08 .06,.12 .06,.11 .09,.22 .16,.31 .32,.42 .53,.82 .47,.88-.34,.31-3.63-2.49-4.44-3.782-.4-.644-.31-.698 1.66-.656zm70.62,2.408c.63,.49 .84,.85 1.44,1.32 .59,.56 .86,1.11 1.44,2.23 .36,1.22 .41,2.47-.16,4.01-.29,.8-1.1,2.22-1.78,2.88-.36,.34-2.6,2.48-3.44,3.06-.36,.15-2.84,2.23-4.56,2.97-9.28,4.72-13.04,3.44-16.75,3.5-2.31-.2-3.2-.33-11-.78-4.83-.29-10.02-.61-11.53-.72-3.91-.29-12-1.56-14.41-2.25-2.43-.71-6-1.34-9.75-1.91-.13-.05-.73-.13-1.12-.19-.34-.05-.66-.11-1-.15-.02-.01-.04,0-.06,0-5.36-.74-10.91-1.25-14.66-1.19-2.08,.03-4.97,0-6.72-.09-.04-.01-.12,0-.16,0-.53-.04-1.06-.09-1.62-.13-.16-.01-.3-.02-.47-.03-2.59-.18-5.9-.43-9.28-.72-4.07-.34-7.59-.67-7.81-.75-.02-.01-.88,.01-.97,0h-.6c-2.14-.1-7.44-.14-11.28-.12-4.03-.01-8.38-.02-9.34-.1-1.23-.09-3.96-.04-6.06,.16-2.1,.19-6.31,.29-9.35,.22-10.14-.24-9.34-.3-23.25,2.28-3.45,.64-7.2,1.21-8.34,1.28s-2.73,.36-3.5,.66c-1.43,.54-6.01,1.46-9.78,1.93-1.15,.15-2.79,.45-3.66,.69-1.32,.36-4.17,.75-10.78,1.5-6.958,.79-12.288,.74-28.75-.25-2.793,.14-3.698,.09-4.812,.19-.16,.09-2.172,.03-3.656,.28-.149,.02-1.292,.17-1.75,.25-1.535,.23-3.181,.48-4.25,.59-1.031,.11-2.269,.27-2.813,.38-2.063,.18-2.819,.34-4.187-.13-2.144-.73-7.048-4.67-8.125-8.5-.253-.89-.367-1.44-.407-1.97-.002-.05 .002-.13 0-.18-.001-.15 .025-.29 .032-.44 .024-.43 .061-.82 .218-1.41 .251-.93 .762-2.12 1.157-2.72 .054-.07 .128-.17 .187-.25 .834-1.08 5.332-5.32 6.188-5.87 .209-.1 .344-.12 .437-.03 .076,.19 .155,.45 .219,1 .726,6.3 4.051,11.31 9.5,14.31 3.759,2.07 5.32,2.46 11.375,2.94 3.882,.3 5.017-.13 7.906-.66 1.325-.39 2.649-.66 5.031-1.72 1.692-.74 2.224-.97 2.532-.81 .051,.04 .096,.1 .156,.16 .055,.06 .131,.11 .187,.22 .208,.37 1.421,1.04 2.813,1.56 2.02,.74 3.262,.96 6.937,1.15 4.081,.22 4.571,0 7.435-.65 1.63-.48 4.22-1.54 5.78-2.38 1.57-.83 7.62-5.54 8.75-6.87l.69-.78 2.63,.68c2.28,.61 3.14,.66 6.87,.47 5.86-.3 8.59-.74 12.53-2.03 1.59-.52 1.76-.51 3.97,.19 .4,.13 .94,.23 1.35,.34 .33,.14 3.22,.78 4.09,.88 1.7,.29 3.6,.58 6.66,1 1.21,.16 2.32,.3 3.43,.4 .6,.08 1.31,.11 2.1,.13 3.07,.17 5.8,.08 8.28-.31 1.43-.23 3.54-.54 4.69-.69 3.74-.48 8.41-2.27 10.5-4.03 1.76-1.49 4.58-2.42 5.15-2.22 .06,.02 1.15,.44 2.06,.97 1.67,.94 4.28,1.74 7.31,2.65 3.39,.8 7.24,1.06 12.48,.12 3.88-.96 6.48-1.67 7.1-1.89 2.23-.78 7.88-3.12 8.83-3.69l1.72-1.04 .85,.97c.46,.54 1.15,1.91 1.59,2.44s1.39,1.74 2.12,2.66c.31,.38 1.97,1.81 2.5,2.18 .57,.39 2.89,1.81 3.5,2.16 1.78,1.01 3.03,1.63 4.22,2.16 .71,.31 3,1.03 3.13,1.06 1.29,.33 2.75,.62 4.9,.97 2.46,.39 3.96,.59 5.32,.69 1.27,.08 2.39,.07 4.12,0 3.39-.15 5.8-.72 10.49-1.9 4.98-1.4 5.03-4.01 5.07-4.07 .05-.07 1.51,.67 3.25,1.62 4.75,2.6 6.22,2.73 10.04,3.56 1.32,.21 2.71,.31 4.18,.32 2.7,.13 3.52-.16 5.13-.56 .96-.25 2.91-.89 3.95-1.39 2.61-1.24 3.59-3.02 4.22-4.26 .45-.97 1.31-3.37 .83-5-.23-1.14-1.63-3.11-1.41-3.46 .52-.23 1.14,.47 1.78,.95zm-64.5-1.44c.78,.04 1.36,.25 1.35,.47-.02,.24-.36,.26-.91,.09-.07-.02-.12-.01-.19-.03-.11-.07-.23-.18-.31-.19-.04,0-.18,.1-.25,.13-.26,.02-.48,.11-.62,.22-.4,.29-.5,.25-.47-.19 .02-.422 .36-.553 1.4-.5zm-188.47,.5h.031c.095,.03 1.977,1.22 3.188,1.69 1.211,.46 3.353,1.29 4.781,1.84s5.176,1.38 5.344,1.53c.042,.32-.542,.77-1.75,1.35-1.408,.67-2.191,.82-3.906,.72-2.196-.14-3.852-.7-5.094-1.75-.207-.19-.942-.95-1.094-1.16-.437-.61-.789-1.33-1.094-2.16-.073-.2-.523-1.58-.531-1.81 .018-.12 .06-.21 .125-.25zm192.54,.19c1.04,.11 2.93,.39 6.03,.9 1.5,.25 3.21,.54 3.78,.63 .56,.09 1.34,.2 1.75,.25 .54,.06 1.27,.57 1.59,1.03 .01,.01 .03,.02 .03,.03 .01,.01 0,.03 0,.03 .09,.14 .16,.26 .16,.38v.03c-.02,.15-.43,.44-.91,.62-.48,.2-.89,.56-.9,.85-.02,.29-.18,.54-.38,.53-.22-.01-.27-.47-.09-1.19 .23-.97 .18-1.22-.41-1.44-.84-.31-2.12,.25-2.15,.94-.01,.15-.08,.24-.13,.31l-.03,.07c-.19,.2-.54,.09-.78-.38-.42-.8-1.3-1.2-2-1-.17,.01-.32,.08-.44,.16-.4,.22-1.02,.28-1.53,.15-.13-.03-.27,.01-.41,0-.09-.01-.16-.03-.25-.03-.32,.02-.63,.09-.81,.22-.46,.35-.52,.26-.41-.44 .07-.38 .04-.54-.12-.65-.05-.29-.33-.34-.94-.16-.8-.01-1.05-.14-1.03-.62 .02-.35-.21-.84-.53-1.07-.3-.21-.13-.26 .91-.15zm-63.04,.87c.07,.08 .4,.34-.25,.78-.33,.23-3.41,1.92-3.87,2.16-.45,.22-.88,.44-1.38,.66-.15,.06-.31,.12-.46,.18-1.08,.44-2.14,.8-3.22,1.1-.74,.18-1.65,.33-2.5,.5-.27,.03-2.85,.43-5.1,.78-3.39,.37-9.12,.29-11.75-.16-1.09-.08-3.7-.35-5.9-.75-1.52-.21-5.53-1.26-5.69-1.28-1.12-.18-1.06-.53-.66-.72 .45-.18 6.87,1.46 12.69,1.94 1.9,.16 3.39,.23 4.78,.25 .34,.01 .66,.02 1.16,0 2.33-.04 4.69-.28 8.62-.84 3.36-.48 4-.65 8.19-2.16 1.92-.69 5.28-2.51 5.34-2.44zm115.68-1.04c.44,.92 .15,1.61-.19,2.78-.35,1.51-2.56,2.34-3.64,2.7-1.27,.34-3.2,.44-4.17,.31-1.43-.36-1.85-.55-3.42-1.5-.84-.39-.65-.76 .56-.99 .67-.13 2.23-.31 4.05-.5 1.72-.38 2.36-.61 3.74-1.26 1.34-.7 2.7-2.143 3.07-1.54zm-197.3,1.61c.51-.01 .19,.93-.5,1.5-.39,.31-.78,.97-.88,1.46l-.15,.79c-.04-.01-.06-.07-.1-.1l-.31-.94c-.06-.18-.17-.31-.25-.46-.12-.39-.25-.59-.44-.6-.02-.01-.06-.06-.09-.06-.49-.01-1.488,1.21-1.75,2.06-.019,.07-.053,.13-.062,.19-.004,.02 .002,.04 0,.06-.048,.37-.356,.67-.656,.66-.721-.04-1.4,.59-1.438,1.34-.017,.33-.179,.71-.375,.81-.195,.11-.358-.05-.344-.34 .038-.73-.952-1.28-2.062-1.12-.773,.1-.941-.03-1-.79 .08-.51 .051-.75-.219-.84-.143-.15-.362-.19-.781-.19h-.688c-.089-.03-.184-.07-.187-.15l.531-.88c.419-.72 3.377-1.24 3.906-1.28 .53-.04 2.431-.31 4.255-.59 1.81-.29 3.45-.53 3.59-.53zm3.53,.84c.08,0 .73,.44 1.47,.97l1.37,.97-1.21,1.22c-1.44,1.46-3.77,3.12-5.19,3.71-1.2,.5-2.02,.82-2.75,1.07-.21,.06-.42,.13-.63,.18-.56,.17-1.08,.31-1.653,.41-1.734,.3-3.039,.27-1.907-.03 1.386-.37 2.273-1.22 2.594-2.34 .039-.1 .122-.2 .125-.25 .002-.05-.03-.09-.031-.13 .003-.02-.003-.04 0-.06 .013-.1 .057-.18 .062-.28 .031-.61 .133-.69 .44-.35 .5,.56 2.12,.66 3.12,.19 2.19-1.03 3.45-2.29 3.75-3.78 .17-.82 .36-1.5 .44-1.5zm159.19,.69c.25-.08 .8-.05 1.87,.06 .68,.07 1.18,.15 1.53,.25 .19,.08 .35,.18 .54,.28 .01,.03 .03,.06 .03,.09-.06,.23 .24,.54 .65,.69 .86,.32 1.94,1.41 1.91,1.97-.02,.43-2.45,1.37-4.75,1.91-.39,.08-.73,.2-1.13,.28-.18,.03-.38,.07-.53,.09-.16,.03-.33,.04-.5,.06-1.09,.13-1.04-.18-.22-1.15 .99-1.16 1.05-1.75 .5-3.88-.1-.39-.16-.58 .1-.65zm-24.44,.43c.23-.06 1.24,.04 2.25,.22 1.42,.25 1.95,.52 2.34,1.19 .48,.81 .48,.86-.09,.81-.89-.07-4.98-2.08-4.5-2.22zm21.13,1.44c.07,.01 .16,.09 .28,.22 .15,.17 .22,.34 .22,.47-.02,.04-.01,.09-.04,.12-.24,.16-.61-.24-.59-.68 .01-.11 .05-.14 .13-.13zm-7.16,1.03c.07-.01 .07,.12 .06,.38-.01,.32 .12,.58 .31,.59s.61,.31 .94,.66 .9,.82 1.25,1.06c.62,.43 .64,.46-.03,.41-.72-.06-.94-.13-3.94-.91-1.03-.27-2.24-.55-2.68-.62-.82-.14-1.42-.54-.85-.57 .17,0 1.1,.02 2.06,.03 .03,.01 .05,0 .07,0 .1,.04 .18,.05 .28,.07h.15c.15,0 .3-.05 .44-.1 .13-.02 .29-.01 .41-.06 .5-.08 .86-.21 1.09-.5 .23-.28 .37-.43 .44-.44zm-142.47,.28c.18,.04 .33,.11 .53,.25 .39,.28 .23,.64-.87,1.85-1.62,1.78-2.46,2.4-6.07,4.44-2.81,1.59-5.12,2.41-8.183,2.93-1.551,.45-5.146,.33-5.282,.35-2.975,.01-6.37-1.79-7.245-2.08-.304-.28 .566-.93 .69-1.17 .304-.23 1.184,.33 3.193,.6 4.469,.24 11.607-.1 14.897-1.82 .99-.52 2.74-1.36 5.56-3.69 1.68-1.39 2.25-1.77 2.78-1.66zm147.78,2.1c1.03-.01 2.08,.36 1.5,.69-.13,.07-.44,.12-.78,.15h-.03c-1.04,.1-2.64,.01-2.63-.22 .01-.1 .46-.3 .97-.47 .28-.09 .63-.15 .97-.15zm-171.12,.81c.1,.01 .209,.06 .312,.09 .071,.03 .146,.05 .219,.1 .164,.12 .322,.27 .5,.5 .439,.57 .948,.74 2.469,.78 1.729,.05 2.592,.32 2.187,.66-.083,.06-1.262,.12-2.594,.15-3.551,.09-4.67-.36-3.906-1.62 .253-.42 .528-.65 .813-.66zm71.433,5.03c5.7-.06 11.51-.04 12.57,.25 .63,.18 7.81-.12 8.09,.19 .11,.13-.22,.68-.75,1.25-.71,.76-.97,1.42-1.03,2.53-.01,.08 0,.14 0,.22v.06c0,.01-.03,0-.03,0 0,.05 .03,.11 .03,.16-.01,.93 .18,1.22 1.03,1.81 2.3,1.59 11.23,2.37 14.5,1.25 .36-.12 .69-.27 1-.44 .2-.1 .39-.25 .56-.37 .04-.03 .09-.04 .13-.06 .05-.04 .11-.09 .15-.13 1.66-1.28 2.11-3.16 .88-4.78-.45-.59-.79-1.17-.78-1.31 0-.07 .36-.1 .94-.07 .57,.04 1.34,.13 2.21,.25 1.75,.24 9.77,.78 17.82,1.22 15.05,.84 18.03,1.15 23.03,2.28 7.01,1.59 8.62,1.9 12.94,2.54l2.28,.34c1.16,.21 2.21,.4 2.62,.66l.97,1.03 .06,.06c.06,.08 .12,.14 .19,.19 2.46,2.42 6.52,3.52 10.53,2.81 1.92-.34 2.32-.55 3.16-1.69 .6-.81 1.09-1.18 1.56-1.19 .17-.02 .59-.01 .81-.03 .81,.04 2.76,.09 5.32,.1 3.06,0 5.19,.13 5.21,.31-.02,.03-.36,.6-.71,.87-.59,.46-.74,.89-.72,2.19 0,.03 .3,1.77 1.56,2.78 1.24,.93 2.06,1.24 4.06,1.53 2.77,.41 6.14-.07 7.31-1.03 1.03-.84 2.27-3.39 2.1-4.28-.15-.77-.09-.77 2.84-.65l2.85,.12-.6,.59-.15,.1c-1.07,.82-3.98,4.11-4,4.5-.01,.15-.81,1.3-1.75,2.56-.95,1.26-2.05,2.99-2.47,3.88-.43,.88-.94,1.6-1.16,1.59-.21-.01-1.16-.79-2.09-1.69s-1.86-1.64-2.07-1.65c-.2-.02-1.18-.43-2.15-.94-.45-.24-.8-.36-1.22-.56-.01-.01-.02-.03-.03-.04-.02,0-.05-.02-.06-.03-2.66-1.3-4.89-2.19-9.1-3.47-1.23-.37-2.14-.62-2.97-.84-.02,0-.04-.03-.06-.03l-5.09-.75c-1.29-.1-2.85-.19-5.07-.31-2.64-.15-5.09-.22-7.43-.25-.22-.01-.33,0-.53,0-4.68-.05-8.84,.1-12.6,.53-1.62,.18-5.05,.42-7.62,.5-.78,.02-1.07,.05-1.82,.09-.8,.04-1.65,.13-2.28,.19-.55,.05-1.68,.08-1.9,.12-2.04,.42-5.8,.6-5.78,.29 0-.16 .13-.29 .28-.29 .42,.03 1.62-3.16 1.68-4.5v-.06c.01-.04 0-.06 0-.09 .06-1.65-.34-2.54-1.87-4.22-.19-.2-.29-.25-.44-.41-.64-.73-1.02-1.04-1.69-1.15-.08-.02-.21,.01-.31,0-.16-.02-.3-.06-.5-.07-.04,0-.08,.01-.12,0-.49-.02-.94-.01-1.35,.04-.18,.01-.33,.05-.5,.09-.23,.05-.48,.1-.68,.19-.07,.03-.13,.09-.19,.12-1.16,.55-1.83,1.73-2.16,3.6-.01,.06-.02,.18-.03,.25-.11,.68-.22,1.36-.25,2.25-.06,2.02-.25,3.23-.5,3.37-.22,.12-1.64,.58-3.16,1.03-2.96,.88-4.96,.85-10.5-.19-1.31-.24-3.24-.6-4.28-.78-1.03-.17-2.01-.4-2.15-.5-.24-.16-1.71-.52-5-1.22-2.15-.45-6.85-1.06-8.25-1.09-2.26-.04-6.16,.66-9.16,1.69-2.34,.8-3.65,1.07-4.56,.9-.17-.03 .23-.54 .87-1.12 2.64-2.42 3.3-5.01 1.94-7.63-.25-.47-.57-.9-.94-1.31-.13-.19-.32-.43-.68-.65-.16-.14-.33-.26-.5-.38-.93-.65-2.05-1.11-3.22-1.31-.48-.08-.72-.06-1.03-.06-.15-.01-.38-.06-.5-.04-.09,.02-.21,.05-.29,.07-.21,.07-.47,.21-.75,.37-.19,.1-.32,.1-.56,.25-1.51,.95-2.32,1.94-2.97,3.63-.14,.31-.26,.59-.34,.9-.16,.51-.29,1.01-.44,1.66-1.25,5.41-1.45,5.59-5.31,4.84-3.68-.71-11.83-1.36-14-1.09-1.1,.14-3.04,.4-4.31,.59l-1.6,.25c-.31,.01-.63,.01-.84-.09l-1.44-2.13c-.43-.63-.72-.94-1.03-1.31-.63-.75-1.18-1.25-2-1.53-1-.49-1.74-.73-2.78-.69-.86,.05-1.83,.07-2.5,.38-.56,.34-1.22,.7-2,1.28-.71,.49-1.53,2.01-1.56,2.66-.02,.29-.33,.85-.69,1.25-.62,.69-.94,.73-7.38,.5-3.69-.14-6.23-.34-5.65-.44 2.74-.51 4.59-1.6 7.81-4.6 3.07-2.85 3.43-3.08 5.72-3.65 1.35-.34 3.78-.76 5.41-.94 1.62-.18 3.66-.54 4.53-.78 1.78-.5 8.55-1.75 10.65-1.97 .77-.08 2.01-.33 2.78-.53 .53-.14 1.16-.23 1.85-.31h.06c.5-.06 1-.1 1.5-.13 .19-.01 .41-.02 .59-.03h.04c.65-.02 6.26-.16 11.96-.22zm28,.35c1.26,.02 2.46,.25 2.79,.68 .22,.3 .8,.57 1.31,.6 .85,.04 3.03,1.99 3,2.68-.01,.15-.6,.47-1.31,.72-.82,.29-4.53,.42-7.04,.35-1.03-.09-1.95-.18-2.78-.32-.32-.08-.59-.17-1.06-.28-1-.22-1.28-.43-1.25-1 .02-.47 .93-1.52 1.63-2 .23-.16 .45-.25 .59-.25 .11,.01 .57-.27 1.03-.62 .53-.42 1.84-.59 3.09-.56zm-22.12,4.25c.33-.11 .64-.07 1.16,.06 1.43,.34 2.58,1.21 3.03,2.31 .13,.33 .2,.65 .25,.94 .01,.09 .03,.18 .03,.28 .02,.94-.51,1.77-1.81,3.03-.97,.94-1.87,2.06-2,2.5-.34,1.12 .24,2.35 1.34,2.88 .2,.09 .4,.14 .59,.21 .02,.01 .05,.03 .07,.04 1.51,.54 2.97,.42 5.62-.5 5.03-1.76 6.11-1.93 10.22-1.69 2.09,.12 4.56,.43 5.5,.69s2.31,.58 3.06,.71c.75,.14 1.54,.41 1.72,.57s1.24,.42 2.38,.59c1.13,.18 2.52,.42 3.09,.53 3.62,.73 5.18,.92 8.47,1.1 2.49,.13 3.82,.08 4.12-.19 .13-.11 .3-.21 .47-.28s.36-.1 .5-.1c.28,.02 1.48-.41 2.69-.9 3.06-1.26 3.75-2.29 3.72-5.69-.03-2.84 .44-4.32 1.47-4.53 .56-.12 1.42,.48 2.03,1.22 .26,.33 .37,.54 .5,.78 .03,.08 .1,.14 .12,.22 .34,1.03-.28,3.27-1.12,4.03-.95,.86-1.17,2.92-.41,4 .05,.06 .16,.09 .22,.15 .14,.16 .31,.3 .5,.41 1.08,.7 2.87,1.06 3.78,.63 1.23-.58 7.1-1.26 10.94-1.29 1.22,0 1.95-.09 2.94-.15 .29,0 .55,0 .81-.03 .35-.04 1.11-.06 1.28-.1 .52-.11 2.64-.22 4.59-.31 1.16-.07 2.19-.12 3.44-.19 1.44-.06 3.21-.12 3.56-.15 1.46-.15 15.14,.57 17.22,.9 2.85,.46 4.66,1.11 5.85,2.1 0,0 .02-.01 .03,0l.03,.03c.38,.32 .71,.69 .97,1.09 0,0 .42,.37 .37,1.41-.19,.68-.56,1.29-.9,1.97-.98,1.69-2.13,2.5-3.94,3.84-.14,.1-.29,.21-.44,.31-.76,.54-1.63,1.07-2.59,1.6-.29,.15-.63,.31-.94,.47-1.06,.54-2.18,1.09-3.5,1.65-.85,.36-1.34,.57-1.91,.81-.62,.23-1.24,.44-1.87,.63-1.5,.42-4.39,1.01-5.97,1.19-.79,.05-1.84,.09-3.47,.06-.8-.02-1.88-.06-2.81-.09-4.99-.21-11.49-.66-14.59-1.07-2.46-.32-5.93-.73-7.72-.93-6.51-.73-12.9-1.56-13.6-1.75-1.1-.31-16.4-1.09-20.65-1.07-2.09,.02-5.19,.17-6.91,.35-1.72,.17-6.63,.31-10.91,.31-4.27,0-7.85,.06-7.96,.12-.12,.07-2.21,.04-4.66-.06s-5.57-.05-6.91,.13c-1.34,.17-5.14,.36-8.47,.4-3.32,.05-7.77,.22-9.87,.38-2.04,.15-3.82,.25-4.19,.25h-.19c-.32-.01-1.72,.02-3.21,.03-1.53,.01-4.42,.01-6.41,.03-8.71,.07-16.23,.55-24.09,1.53-3.658,.46-6.113,.71-8.317,.91-.542,.04-.875,.08-1.625,.12-1.758,.13-8.071,.64-8.094,.66-.198,.18-3.152,.18-6.906-.03-2.883-.16-4.597-.31-5.969-.5s-2.393-.44-3.812-.88c-4.85-1.51-8.597-3.93-10.657-6.65-.255-.38-.528-.71-.75-1.1-.023-.04-.039-.08-.062-.12-.217-.39-.368-.76-.531-1.13-.174-.48-.279-.98-.344-1.47-.198-1.48 .922-2.84 2.75-3.34 .65-.18 1.968-.62 2.937-1 .97-.38 2.038-.78 2.375-.87 .384-.11 .564-.43 .594-.82 .001-.01 .031-.02 .031-.03 .008-.03-.038-.5-.125-.65-.092-.25-.228-.47-.437-.69-.698-.74-.519-1.44 .25-1.94 .768-.5 2.121-.8 3.812-.72 2.081,.11 3.371,1.17 3.813,3.13 .056,.25 .15,.39 .219,.59 .077,.3 .141,.49 .218,.84 .017,.08 .146,.15 .219,.22 .056,.06 .073,.11 .156,.16 .081,.04 .18,.09 .282,.12 .151,.09 .369,.11 .562,.16 .638,.15 1.483,.15 2.75-.09 4.616-.88 15.61-1.51 26.311-1.47 1.81,0 3.74-.05 4.31-.13 .99-.12 9.14,.01 13.91,.22 1.95,.09 2.28-.01 3.25-.9 .59-.55 1.08-1.22 1.09-1.5 .06-1.06 1.31-3.6 3.35-3.97 2.77-.72 3.13,.9 3.87,1.68 .3,.42 .57,.75 .82,1.19 .06,.61 1.97,3.03 2.62,3.31 .01,.01 .02,0 .03,0l.75,.07c.35-.03 .74-.12 1.13-.25 .69-.25 1.75-.5 2.34-.57 .59-.06 1.9-.22 2.91-.37 .17-.03 .6-.02 .87-.03 1.67,.02 3.68,.11 5.63,.22 1.97,.16 3.97,.37 5.31,.62 .28,.06 .89,.1 1.34,.16 .59,.12 1.2,.25 1.6,.34 .79,.18 1.8,.11 2.75-.09 2.54-.2 3.49-1.51 4.47-5.85 .66-2.96 .84-3.74 1.43-4.43 .2-.24 .43-.46 .75-.75 .49-.44 .83-.68 1.16-.78zm74.09,1.06c-.35,.01-.69,.09-1.03,.19-.54,.03-.94,.2-1.37,.68-.71,.55-1.21,1.3-1.25,2.19-.01,.18 .06,.35 .09,.53 .01,.1 .04,.22 .06,.31 .04,.13 .07,.22 .13,.35 .11,.27 .26,.53 .47,.78 .55,.72 1.36,1.34 2.28,1.59 1.94,.54 1.88,.54 2.12,.19 .12-.17 .66-.41 1.22-.5 1.1-.18 1.37-.58 1.6-2.56 .16-1.41-.59-2.44-2.5-3.38-.58-.28-1.21-.39-1.82-.37zm-126.75,.9l-1.22,1.16c-.41,.39-.9,.73-1.4,1.09-.44,.29-.91,.64-1.25,.82-.03,.01-.07,.01-.1,.03-.5,.25-1,.42-1.5,.56-1.83,.41-3.66,.03-5.12-1.12l-1.13-.85 2.94-.44c1.61-.23 3.42-.58 4-.75s1.91-.35 2.94-.4l1.84-.1zm126.75,1.72c.74,0 1.72,.52 1.69,1.07-.01,.19-.15,.34-.31,.43-.03,.02-.04-.01-.06,0-.14,.06-.32,.09-.5,.1-.18-.01-.38,0-.57-.07-.23-.07-.45-.21-.65-.37-.53-.43-.58-.61-.22-.94 .14-.13 .38-.22 .62-.22zm25.85,.03c1.49,.1 3.67,.52 3.65,.79-.01,.16-.29,.28-.62,.28-.33-.01-1.3,.02-2.16,.06-.31,.01-.55-.04-.81-.06-.1-.01-.22-.02-.31-.03-.11-.03-.24-.04-.35-.07-.27-.07-.5-.15-.65-.28h-.03c-.56-.47-.55-.52 .12-.65 .25-.06 .66-.07 1.16-.04zm-200.54,.29c2.164,.01 5.302,.12 10.25,.34 7.753,.35 13.347,.43 15.688,.25 2.72-.21 4.353-.28 5.531-.13 1.178,.16 1.916,.54 2.816,1.22 .84,.65 1.66,1.18 1.84,1.19s.5,.24 .72,.53 .92,.66 1.56,.81c.64,.16 1.25,.46 1.35,.63 .09,.17 .11,.27 .06,.28-.05,0-.14,.03-.19,.03-.21,0-2.13-.02-4.59-.06-1.17-.02-2.17,.04-3.441,.06-.917,0-1.692,0-2.562,.03-.476,.02-1.253,.04-1.594,.07-1.466,.11-2.249,.13-3.125,.18-.634,.04-1.156,.07-1.813,.1-.989,.03-1.962,.07-3.718,.09-3.462,.04-5.234,.2-8.657,.75-1.815,.29-2.781,.29-3.187,0-.068-.09-.148-.27-.219-.41-.003-.03-.033-.05-.031-.09 .048-.94-1.298-2.52-2.656-3.31-.226-.14-.47-.27-.719-.38-.776-.26-2.242-.62-3.406-.59-1.189-.31-3.809,.27-4.907,.97-1.236,.78-2.104,2.26-1.906,3.22 .014,.06-.004,.09 0,.15-.06,.23-.18,.41-.375,.57-.258,.14-.605,.26-1.312,.43-1.016,.25-4.832,1.31-6.282,1.78-3.362,1.11-5.795,2.38-14.562,7.6-1.862,1.11-4.439,2.66-4.625,2.65-.537-.02-.713-1.61-.438-4 .216-1.86 .437-2.32 1.282-3.03 1.464-1.22 2.794-1.74 6.343-2.47 .627-.12 1.181-.27 1.782-.4 4.391-1 7.993-2.18 8.5-2.88 .11-.15 .106-.37 .156-.56 .035-.11 .115-.2 .125-.31 .02-.24-.04-.47-.094-.72-.19-.89-.77-1.77-1.625-2.16-.275-.12 .006-.23 .594-.22 .588,.02 1.503-.09 2.062-.25s2.679-.51 4.688-.78c2.008-.26 4.812-.69 6.25-.93 1.072-.19 2.274-.27 4.437-.25z"/>
</g>
</svg>
