<svg xmlns="http://www.w3.org/2000/svg" viewBox="0 0 164 284" xmlns:xlink="http://www.w3.org/1999/xlink">
<defs>
<linearGradient id="linearGradient19932">
<stop offset="0" stop-color="#12761e"/>
<stop offset="1" stop-color="#2f5712"/>
</linearGradient>
<linearGradient gradientTransform="matrix(.60566 0 0 1.6511 -265.21 -190.52)" id="linearGradient3301" xlink:href="#linearGradient19932" y1="230.32" y2="278.94" gradientUnits="userSpaceOnUse" x2="0"/>
<linearGradient gradientTransform="matrix(.46249 0 0 2.1622 -265.16 -190.52)" id="linearGradient3286" xlink:href="#linearGradient19932" y1="131" y2="189" gradientUnits="userSpaceOnUse" x2="0"/>
<linearGradient gradientTransform="matrix(.56432 0 0 1.772 -265.15 -190.46)" id="linearGradient3313" xlink:href="#linearGradient19932" y1="215.58" y2="264.2" gradientUnits="userSpaceOnUse" x2="0"/>
<linearGradient gradientTransform="matrix(.76203 0 0 1.3123 -265.15 -190.46)" id="linearGradient3311" xlink:href="#linearGradient19932" y1="291.87" y2="340.49" gradientUnits="userSpaceOnUse" x2="0"/>
<radialGradient cx="109.8" cy="1503" gradientTransform="matrix(2.5826 0 0 .29157 -193.05 -172.41)" id="radialGradient3291" r="71.718" gradientUnits="userSpaceOnUse">
<stop offset="0" stop-color="#5c0a00"/>
<stop offset="1" stop-color="#914412" stop-opacity="0"/>
</radialGradient>
</defs>
<g fill-rule="evenodd">
<g transform="translate(.01199 -.03413)">
<path fill="url(#linearGradient3311)" d="m52.403,224.81c7.644,18.47 18.633,33.35 31.698,45.59 0,0 1.514,1.47 2.105,1.99l-4.531-12.03c-9.691-22.86-22.881-36.54-35.385-56.99 0,0 3.491,15.05 6.113,21.44z"/>
<path d="m46.219,203.12c-.012,.01-.022,.02-.031,.04-.026,.01-.047,.03-.063,.06-.012,.01-.022,.02-.031,.03-.001,.01-.001,.02 0,.03-.004,.02-.004,.04 0,.06 0,0 .031,.07 .031,.07 .027,.11 3.465,15 6.094,21.4 7.654,18.5 18.667,33.41 31.75,45.66 0,0 1.491,1.47 2.093,2 .019,.01 .04,.02 .063,.03 .019,.01 .04,.02 .063,.03 .033,0 .065-.01 .093-.03 .026-.02 .047-.04 .063-.06 .011-.01 .022-.02 .031-.03 .001-.01 .001-.02 0-.03 .003-.03 .003-.05 0-.07 .001-.01 .001-.02 0-.03 .001-.01 .001-.02 0-.03l-4.531-12c.001-.01 .001-.02 0-.03-9.695-22.87-22.893-36.54-35.375-56.94-.013-.02-.019-.04-.031-.06v-.03c-.01-.01-.02-.02-.032-.03-.028-.02-.06-.03-.094-.04h-.093zm.5,1.19c12.338,19.94 25.256,33.6 34.781,56.07l4.25,11.28c-.664-.63-1.531-1.47-1.531-1.47-13.049-12.22-24.024-27.05-31.657-45.5-2.443-5.95-5.452-18.71-5.843-20.38z"/>
<path fill="url(#linearGradient3286)" d="m69.781,74.625c-1.037,.089-1.93,.769-2.292,1.746-.361,.976-.125,2.074 .605,2.817 24.426,25.332 35.626,61.122 36.656,96.062 .63,23.5-2.07,47.43-11.875,68.69v.03c-4.149,9.38-9.273,18.33-15.063,26.84-.569,.79-.664,1.83-.249,2.72 .416,.88 1.277,1.47 2.25,1.53 .973,.07 1.906-.4 2.437-1.22 5.948-8.74 11.234-17.97 15.531-27.68 10.289-22.31 12.979-47.06 12.339-71.07-1.05-35.97-12.543-73.06-38.151-99.621-.562-.601-1.368-.912-2.188-.844z"/>
<path fill="url(#linearGradient3301)" d="m121.04,148.89c12.45,43.93 6.7,100.84-38.895,122.68 27.555-34.53 33.915-63.86 38.075-105.06l.82-17.62"/>
<path d="m121.03,148.56l-.03,.03h-.03l-.03,.03h-.03c-.03,.03-.05,.06-.07,.1l-.03,.03-.03,.06c-.01,.05-.01,.11 0,.16l-.81,17.5v.03c-4.16,41.12-10.47,70.36-37.908,104.78-.013,.02-.048,.02-.062,.03-.001,.01-.001,.02 0,.03-.01,.02-.022,.02-.031,.04-.011-.01-.021-.01-.031,0-.001,.01-.001,.02 0,.03-.016,.03-.026,.06-.032,.09-.015,.03-.026,.06-.031,.09-.001,.01-.001,.02 0,.03 .01,.02 .02,.03 .031,.04-.002,.02-.002,.04 0,.06h.032c-.001,.01-.001,.02 0,.03 .027,.03 .058,.05 .093,.06 .037,.03 .079,.05 .125,.07h.156c.012-.01 .022-.03 .032-.04 .021-.01 .041-.02 .062-.03 .011-.01 .022-.02 .032-.03 22.822-10.97 35.692-30.7 41.282-53.19s3.91-47.72-2.31-69.71v-.07c-.02-.05-.06-.09-.1-.12l-.03-.03c-.03-.03-.06-.05-.09-.07-.02-.01-.04-.02-.07-.03h-.09zm.28,2.47c5.75,21.43 7.21,45.72 1.81,67.41-5.45,21.95-17.93,41.16-39.839,52.15 26.809-34.07 33.199-63.31 37.309-104.06l.72-15.5z"/>
<path fill="url(#linearGradient3313)" d="m54.849,200.32c4.578,30.14 16.541,56.32 33.281,79.44 0,0 1.917,2.75 2.688,3.75l-2.219-19.44c-6.063-37.37-22.349-62.67-34.344-97.62 0,0-.953,23.46 .594,33.87z"/>
<path d="m54.219,166.06c-.111,.02-.206,.09-.25,.19-.019,.04-.03,.08-.031,.13 0,0-.967,23.44 .593,33.93 4.586,30.19 16.579,56.41 33.344,79.57 0,0 1.899,2.76 2.687,3.78 .085,.12 .248,.17 .387,.11 .138-.06 .213-.22 .176-.36l-2.219-19.44c-6.067-37.4-22.366-62.71-34.344-97.56-.014-.05-.017-.09-.031-.13-.042-.13-.171-.22-.312-.22zm.312,1.97c11.95,34.18 27.789,59.28 33.75,96.03l2.094,18.22c-.854-1.18-2-2.75-2-2.75-16.716-23.09-28.649-49.23-33.219-79.31-1.439-9.68-.723-29.58-.625-32.19z"/>
<path fill="#81390b" d="m267.5,455.97a103.12,16.875 0 0,1 206.25,0h-103.13z" transform="matrix(.75301 0 0 1 -193.55 -172.39)"/>
<path fill="#cb0000" d="m110.18,51.411c-12.244,12.142-25.651,18.537-29.924,14.276-4.274-4.262 2.195-17.574 14.44-29.716 12.244-12.142 25.654-18.538 29.924-14.276 4.28,4.261-2.19,17.574-14.44,29.716z"/>
<path d="m124.9,21.299c-1.21-1.207-3.05-1.619-5.19-1.42-2.14,.198-4.64,.993-7.39,2.302-5.49,2.62-11.93,7.288-18.087,13.393-6.158,6.106-10.87,12.499-13.52,17.952-1.325,2.726-2.13,5.209-2.336,7.339-.206,2.129 .203,3.952 1.414,5.16 1.211,1.207 3.043,1.619 5.186,1.42 2.142-.198 4.641-.993 7.387-2.302 5.491-2.62 11.936-7.288 18.086-13.393 6.16-6.106 10.87-12.499 13.52-17.952 1.33-2.726 2.13-5.209 2.34-7.339 .21-2.129-.2-3.952-1.41-5.16zm-.74,.734c.92,.923 1.31,2.37 1.12,4.315-.19,1.944-.96,4.338-2.25,6.99-2.57,5.305-7.22,11.64-13.31,17.677-6.09,6.036-12.475,10.643-17.816,13.191-2.671,1.274-5.081,2.03-7.037,2.211-1.956,.182-3.41-.202-4.336-1.125-.926-.924-1.308-2.371-1.12-4.316 .188-1.944 .954-4.338 2.243-6.99 2.578-5.305 7.229-11.64 13.316-17.676 6.09-6.037 12.47-10.644 17.81-13.192 2.68-1.274 5.08-2.03 7.04-2.211 1.96-.182 3.41,.202 4.34,1.126z"/>
<path fill="#cb0000" d="m84.582,33.519c-.026,18.167-5.337,32.904-11.854,32.895-6.517-.008-11.786-14.76-11.76-32.927s5.337-32.904 11.854-32.895c6.517,.0087 11.786,14.76 11.76,32.927z"/>
<path d="m72.756,.1167c-1.846-.0025-3.557,1.051-5.036,2.7906-1.479,1.7398-2.774,4.1899-3.861,7.2078-2.175,6.036-3.507,14.309-3.52,23.445-.013,9.135 1.295,17.412 3.453,23.454 1.079,3.021 2.367,5.474 3.841,7.218s3.181,2.802 5.028,2.804c1.846,.003 3.556-1.051 5.035-2.79 1.479-1.74 2.774-4.19 3.862-7.208 2.175-6.036 3.506-14.309 3.519-23.445 .013-9.135-1.294-17.412-3.452-23.454-1.079-3.0207-2.367-5.4743-3.841-7.218-1.474-1.7438-3.181-2.8018-5.028-2.8044zm-.001,1.097c1.412,.0019 2.811,.7993 4.157,2.3917s2.595,3.9501 3.644,6.8886c2.1,5.878 3.41,14.066 3.397,23.098-.013,9.031-1.347,17.216-3.463,23.088-1.058,2.936-2.313,5.29-3.664,6.879s-2.752,2.382-4.164,2.38-2.811-.799-4.157-2.391c-1.346-1.593-2.595-3.951-3.645-6.889-2.099-5.878-3.409-14.066-3.396-23.098 .013-9.031 1.346-17.216 3.462-23.088 1.058-2.9359 2.314-5.2902 3.665-6.8789 1.35-1.5887 2.752-2.3823 4.164-2.3804z"/>
<path fill="#cb0000" d="m51.08,36.011c11.942,12.175 18.232,25.506 14.041,29.756-4.192,4.249-17.285-2.184-29.226-14.359-11.942-12.176-18.232-25.506-14.041-29.756 4.192-4.249 17.285,2.183 29.226,14.359z"/>
<path d="m21.599,21.288c-1.187,1.204-1.592,3.026-1.397,5.156 .196,2.13 .977,4.615 2.265,7.345 2.576,5.46 7.167,11.866 13.172,17.989 6.005,6.122 12.292,10.808 17.655,13.443 2.681,1.317 5.123,2.118 7.218,2.323 2.094,.204 3.887-.202 5.075-1.407 1.187-1.204 1.592-3.025 1.397-5.155-.196-2.13-.977-4.616-2.265-7.346-2.576-5.46-7.167-11.866-13.172-17.988-6.005-6.123-12.292-10.809-17.655-13.443-2.681-1.318-5.124-2.119-7.218-2.323-2.094-.205-3.887,.202-5.075,1.406zm.721,.735c.909-.921 2.332-1.3 4.244-1.114 1.913,.187 4.267,.95 6.875,2.231 5.217,2.563 11.449,7.188 17.385,13.241 5.937,6.053 10.468,12.401 12.974,17.713 1.253,2.656 1.996,5.051 2.175,6.996 .178,1.945-.199,3.392-1.108,4.312-.908,.921-2.331,1.301-4.243,1.114-1.913-.187-4.267-.949-6.876-2.231-5.217-2.563-11.448-7.187-17.384-13.24-5.937-6.053-10.468-12.402-12.974-17.713-1.253-2.656-1.996-5.052-2.175-6.997-.178-1.945 .199-3.391 1.107-4.312z"/>
<path fill="#cb0000" d="m33.704,61.443c18.185,.026 32.937,5.336 32.928,11.854-.009,6.517-14.775,11.785-32.96,11.759s-32.936-5.336-32.927-11.854c.0087-6.517 14.775-11.785 32.959-11.759z"/>
<path d="m.1,73.173c-.0025,1.847 1.052,3.557 2.7934,5.036s4.1939,2.774 7.2146,3.862c6.042,2.175 14.323,3.506 23.468,3.519 9.144,.013 17.429-1.294 23.477-3.452 3.024-1.079 5.48-2.367 7.225-3.841 1.746-1.474 2.805-3.181 2.807-5.028 .003-1.847-1.052-3.557-2.793-5.036s-4.194-2.774-7.215-3.861c-6.042-2.176-14.323-3.507-23.467-3.52-9.145-.013-17.43,1.295-23.478,3.452-3.0235,1.079-5.4795,2.367-7.2249,3.841s-2.8046,3.182-2.8071,5.028zm1.0982,.002c.0019-1.412 .8001-2.811 2.394-4.157 1.594-1.346 3.9539-2.595 6.8958-3.645 5.883-2.099 14.08-3.409 23.12-3.396s17.233,1.346 23.111,3.462c2.939,1.058 5.295,2.314 6.885,3.665 1.591,1.35 2.385,2.751 2.383,4.163-.002,1.413-.8,2.812-2.394,4.158s-3.954,2.595-6.896,3.644c-5.883,2.099-14.079,3.41-23.12,3.397-9.04-.013-17.233-1.347-23.11-3.463-2.9393-1.058-5.2958-2.314-6.8861-3.664-1.5903-1.351-2.3847-2.752-2.3827-4.164z"/>
<path fill="#cb0000" d="m37.154,94.584c12.009-12.609 25.157-19.251 29.348-14.825 4.191,4.425-2.153,18.251-14.162,30.861s-25.156,19.25-29.348,14.83c-4.191-4.43 2.154-18.26 14.162-30.866z"/>
<path d="m22.534,125.8c1.188,1.25 2.985,1.68 5.085,1.47 2.101-.2 4.553-1.03 7.245-2.39 5.385-2.72 11.703-7.57 17.742-13.91s10.66-12.977 13.259-18.64c1.299-2.831 2.089-5.41 2.291-7.621 .202-2.212-.199-4.105-1.387-5.359s-2.984-1.681-5.085-1.475-4.552,1.031-7.245,2.391c-5.385,2.72-11.703,7.568-17.742,13.909-6.039,6.345-10.66,12.975-13.258,18.645-1.3,2.83-2.09,5.41-2.292,7.62-.201,2.21 .2,4.1 1.387,5.36zm.725-.76c-.908-.96-1.282-2.47-1.098-4.48 .184-2.02 .936-4.51 2.2-7.26 2.528-5.51 7.089-12.09 13.059-18.362 5.97-6.268 12.232-11.053 17.47-13.699 2.62-1.323 4.983-2.108 6.901-2.297 1.918-.188 3.345,.211 4.253,1.17 .908,.958 1.282,2.461 1.098,4.481-.184,2.019-.936,4.505-2.2,7.26-2.528,5.508-7.089,12.087-13.059,18.357s-12.231,11.05-17.47,13.7c-2.62,1.32-4.982,2.11-6.901,2.3-1.918,.18-3.344-.21-4.253-1.17z"/>
<path fill="#cb0000" d="m113.3,61.443c18.62,.026 33.73,5.336 33.72,11.854-.01,6.517-15.13,11.785-33.75,11.759-18.624-.026-33.729-5.336-33.72-11.854 .009-6.517 15.129-11.785 33.75-11.759z"/>
<path d="m78.892,73.173c-.002,1.847 1.077,3.557 2.86,5.036 1.784,1.479 4.295,2.774 7.388,3.862 6.187,2.175 14.67,3.506 24.03,3.519s17.85-1.294 24.04-3.452c3.1-1.079 5.61-2.367 7.4-3.841s2.87-3.181 2.87-5.028c.01-1.847-1.07-3.557-2.86-5.036-1.78-1.479-4.29-2.774-7.38-3.861-6.19-2.176-14.67-3.507-24.03-3.52-9.37-.013-17.852,1.295-24.045,3.452-3.096,1.079-5.611,2.367-7.398,3.841-1.788,1.474-2.872,3.182-2.875,5.028zm1.125,.002c.002-1.412 .819-2.811 2.451-4.157s4.049-2.595 7.061-3.645c6.025-2.099 14.421-3.409 23.671-3.396 9.26,.013 17.65,1.346 23.67,3.462 3.01,1.058 5.42,2.314 7.05,3.665 1.63,1.35 2.44,2.751 2.44,4.163 0,1.413-.82,2.812-2.45,4.158s-4.05,2.595-7.06,3.644c-6.03,2.099-14.42,3.41-23.68,3.397-9.25-.013-17.644-1.347-23.663-3.463-3.009-1.058-5.422-2.314-7.051-3.664-1.628-1.351-2.441-2.752-2.439-4.164z"/>
<path fill="#cb0000" d="m110.87,94.421c12.48,12.549 19.06,26.289 14.68,30.669s-18.07-2.25-30.556-14.8c-12.483-12.549-19.059-26.287-14.677-30.667 4.381-4.38 18.069,2.25 30.553,14.798z"/>
<path d="m79.844,79.215c-1.241,1.241-1.665,3.119-1.46,5.314 .204,2.195 1.02,4.757 2.367,7.57 2.693,5.627 7.492,12.231 13.77,18.541 6.279,6.31 12.849,11.14 18.459,13.85 2.8,1.36 5.35,2.19 7.54,2.4s4.07-.21 5.31-1.45 1.66-3.12 1.46-5.32c-.21-2.19-1.02-4.75-2.37-7.57-2.69-5.62-7.49-12.23-13.77-18.535-6.28-6.31-12.849-11.139-18.455-13.855-2.803-1.357-5.356-2.183-7.546-2.394-2.189-.211-4.063,.209-5.305,1.449zm.754,.758c.949-.949 2.437-1.34 4.437-1.148 1.999,.193 4.46,.979 7.187,2.299 5.454,2.642 11.968,7.408 18.178,13.646 6.2,6.24 10.94,12.78 13.56,18.26 1.31,2.73 2.09,5.2 2.27,7.21 .19,2-.21,3.49-1.16,4.44-.94,.95-2.43,1.34-4.43,1.15s-4.46-.98-7.19-2.3c-5.45-2.64-11.97-7.41-18.173-13.65-6.206-6.24-10.943-12.778-13.563-18.252-1.31-2.737-2.087-5.206-2.273-7.211-.187-2.005 .208-3.495 1.157-4.444z"/>
<path fill="#cb0000" d="m85.735,112.22c-.026,18.41-5.337,33.34-11.854,33.33-6.518-.01-11.786-14.95-11.76-33.36 .026-18.403 5.337-33.333 11.854-33.324s11.786,14.953 11.76,33.354z"/>
<path d="m73.881,78.281c-1.847-.003-3.557,1.065-5.036,2.827s-2.774,4.245-3.862,7.302c-2.175,6.115-3.506,14.5-3.519,23.75-.013,9.26 1.294,17.64 3.452,23.76 1.079,3.06 2.367,5.55 3.841,7.32 1.474,1.76 3.181,2.83 5.028,2.84 1.846,0 3.557-1.07 5.036-2.83s2.774-4.25 3.861-7.3c2.175-6.12 3.507-14.5 3.52-23.75 .013-9.26-1.295-17.644-3.453-23.765-1.078-3.061-2.367-5.547-3.841-7.313-1.473-1.767-3.181-2.839-5.027-2.841zm-.002,1.111c1.412,.002 2.811,.81 4.157,2.423 1.346,1.614 2.595,4.002 3.645,6.979 2.099,5.955 3.409,14.246 3.396,23.396s-1.346,17.45-3.462,23.39c-1.058,2.98-2.314,5.36-3.665,6.97-1.35,1.61-2.752,2.42-4.164,2.42-1.412-.01-2.811-.81-4.157-2.43-1.346-1.61-2.595-4-3.644-6.98-2.099-5.95-3.41-14.25-3.397-23.4s1.347-17.438 3.463-23.387c1.058-2.975 2.314-5.36 3.664-6.969 1.351-1.61 2.752-2.414 4.164-2.412z"/>
<path fill="#fc0" d="m97.231,71.666c0,11.385-10.36,20.625-23.125,20.625s-23.125-9.24-23.125-20.625 10.36-20.625 23.125-20.625 23.125,9.24 23.125,20.625z"/>
<path d="m74.218,50.451c-13.066,0-23.75,9.486-23.75,21.25s10.684,21.25 23.75,21.25c13.067,0 23.75-9.486 23.75-21.25s-10.683-21.25-23.75-21.25zm0,1.25c12.464,0 22.5,8.994 22.5,20s-10.036,20-22.5,20c-12.463,0-22.5-8.994-22.5-20s10.037-20 22.5-20z"/>
</g>
<g fill="#ffa700" transform="translate(.01199 -.03413)">
<path d="m61.906,58.577c-3.9,3.211-6.438,7.918-6.438,13.25 0,9.66 8.12,17.5 18.125,17.5 5.783,0 10.868-2.675 14.188-6.75-3.165,2.606-7.205,4.25-11.688,4.25-10.005,0-18.125-7.84-18.125-17.5 0-4.077 1.514-7.774 3.938-10.75z"/>
<path d="m77.031,54.515c-2.476,0-4.784,.593-6.875,1.562 1.112-.207 2.262-.312 3.437-.312 9.92,0 17.969,7.75 17.969,17.281 0,1.374-.215,2.687-.531,3.969 1.199-2.151 1.937-4.579 1.937-7.188 0-8.452-7.14-15.312-15.937-15.312z"/>
</g>
<g transform="translate(.01199 -.03413)">
<path d="m85.939,266.33c-21.445,0-40.869,1.91-54.946,4.97-7.039,1.52-12.746,3.34-16.708,5.37-1.981,1.02-3.518,2.08-4.5885,3.22-1.0701,1.13-1.6942,2.37-1.6942,3.69-.0032,.1 .0255,.19 .0792,.27 .0536,.07 .1273,.11 .2031,.1h155.3c.08,.01 .15-.03 .21-.1 .05-.08 .08-.17 .08-.27 0-1.32-.63-2.56-1.7-3.69-1.07-1.14-2.61-2.2-4.59-3.22-3.96-2.03-9.67-3.85-16.7-5.37-14.08-3.06-33.51-4.97-54.951-4.97zm0,.75c21.421,0 40.821,1.88 54.851,4.93 7.02,1.53 12.69,3.34 16.59,5.35 1.95,1 3.47,2.03 4.47,3.09 .88,.93 1.26,1.86 1.37,2.75h-154.56c.1039-.89 .4885-1.82 1.365-2.75 1-1.06 2.521-2.09 4.471-3.09 3.9-2.01 9.573-3.82 16.59-5.35 14.034-3.05 33.431-4.93 54.852-4.93z"/>
</g>
<g fill="#cb6100" transform="translate(.01199 -.03413)">
<path d="m102.34,88.108c2.4,2.168 4.86,4.623 7.25,7.469 10.16,12.063 15.56,25.153 12.44,29.813 .71-.2 1.31-.53 1.78-1.03 3.79-4.04-1.88-16.72-12.69-28.283-2.91-3.125-5.88-5.733-8.78-7.969z"/>
<path d="m103.59,63.8c3.22-.273 6.7-.398 10.41-.209 15.75,.802 29.01,5.779 30.29,11.236 .33-.652 .5-1.315 .46-2.006-.37-5.526-13.51-10.022-29.34-10.009-4.28,.004-8.21,.398-11.82,.988z"/>
<path d="m62.403,43.142c-.161-3.226-.164-6.702 .154-10.408 1.352-15.712 6.788-28.79 12.286-29.875-.639-.3614-1.296-.552-1.988-.5303-5.536,.1734-10.487,13.152-11.027,28.969-.146,4.274 .111,8.218 .575,11.844z"/>
<path d="m43.593,82.598c-3.218,.273-6.691,.398-10.406,.209-15.75-.802-29.01-5.779-30.286-11.236-.3392,.652-.5067,1.315-.4609,2.006 .3665,5.526 13.51,10.022 29.337,10.009 4.276-.004 8.209-.398 11.816-.988z"/>
<path d="m83.748,103.29c.161,3.23 .164,6.71-.155,10.41-1.351,15.71-6.787,28.79-12.286,29.88 .64,.36 1.297,.55 1.989,.53 5.536-.18 10.487-13.15 11.027-28.97 .145-4.28-.111-8.22-.575-11.85z"/>
<path d="m58.67,100.72c-2.039,2.5-4.362,5.09-7.079,7.63-11.518,10.77-24.309,16.85-29.121,13.98 .234,.69 .595,1.27 1.123,1.72 4.23,3.58 16.594-2.75 27.579-14.15 2.968-3.08 5.416-6.18 7.498-9.18z"/>
<path d="m87.911,44.996c2.126-2.432 4.538-4.935 7.341-7.379 11.888-10.364 24.878-15.995 29.588-12.956-.21-.705-.55-1.298-1.06-1.763-4.1-3.721-16.68,2.176-28.054,13.179-3.074,2.973-5.629,5.989-7.815,8.919z"/>
<path d="m46.093,58.156c-2.505-2.039-5.09-4.362-7.631-7.079-10.772-11.518-16.853-24.309-13.98-29.121-.697,.234-1.278,.595-1.725,1.123-3.575,4.23 2.757,16.594 14.15,27.579 3.079,2.968 6.182,5.417 9.186,7.498z"/>
</g>
<g transform="translate(.01199 -.03413)">
<path fill="url(#radialGradient3291)" fill-opacity=".368" d="m8.3777,283.56c0-9.31 34.789-16.87 77.654-16.87 42.868,0 77.658,7.56 77.658,16.87h-155.31z"/>
</g>
</g>
</svg>
