<svg xmlns="http://www.w3.org/2000/svg" viewBox="0 0 146 354" xmlns:xlink="http://www.w3.org/1999/xlink">
<defs>
<linearGradient gradientTransform="translate(-20.75 -10.5)" id="linearGradient2421" y1="287.51" y2="367.84" x1="60.115" gradientUnits="userSpaceOnUse" x2="80.153">
<stop offset="0" stop-color="#ebbd7a"/>
<stop offset="1" stop-color="#e0972e"/>
</linearGradient>
<linearGradient gradientTransform="translate(-20.75 -10.5)" id="linearGradient2449" y1="44.022" y2="279.98" x1="47.939" gradientUnits="userSpaceOnUse" x2="136.69">
<stop offset="0" stop-color="#c4582f"/>
<stop offset="1" stop-color="#863d22"/>
</linearGradient>
</defs>
<path d="m121.63,1.5059c-4.46,1.4999-10.53,5.8751-20.28,8.9371-9.574,3.007-16.504,3.417-24.968,5.969-2.099,.633-11.104,3.626-14.812,5.313-8.129,3.697-13.09,12.324-14.094,14.343-2.724,5.477-4.543,10.119-7.719,19.438-2.662,7.811-3.502,10.815-4.187,15.375-.687,4.565-3.902,19.968-6.375,32.559-2.307,11.75-27.766,136.79-28.032,137.78-.5787,2.16-1.9426,9.76-.0308,14.54 2.3551,5.88 7.3887,10.27 11.677,12.39 2.565,1.27 6.438,3 11.573,4.36 2.424,.64 5.845,1.76 7.594,2.46 3.106,1.26 3.154,1.32 3.094,2.88-.115,2.98-8.524,43.91-9.063,46.19-.782,3.3-6.176,25.82 11.219,29.31 16.68,3.34 19.886-10.98 21.844-20.88 .868-4.38 8.383-48.59 8.75-49.46 .629-1.51 .744-1.6 2.375-1.35 4.947,.77 16.249,1.64 21.531,1.66 6.684,.02 9.684-.58 13.874-2.69 7.93-3.99 11.06-16.23 11.63-23.84 .85-11.43 24.4-176.53 24.81-179.22 .56-3.662 1.32-10.005 1.84-15.47 .24-2.441 1.96-15.354 1.97-25 .02-16.367-1.02-22.138-2.72-28.282-2.33-8.4024-12.45-10.354-21.5-7.3121z"/>
<path fill="#f2ca8e" d="m128.91,2.8496c10.48,.125 12.79,6.6097 13.69,15.75 .81,8.166 1.82,25.359-1.22,38.5-1.38,5.976-1.3,7.1-6.72,11.781-.61,.533-2.22,2.259-3.56,3.812s-2.63,2.813-2.87,2.813c-.25,0-.94-1.117-1.54-2.469-1.52-3.438-2.27-3.577-4.03-.75-.78,1.261-1.63,2.313-1.84,2.313-.53,0-.49-2.895 .06-4.344 .93-2.452 .14-2.942-5.69-3.5-2.24-.215-4.28-.57-4.53-.813-.28-.282 .33-1.372 1.66-3 3.69-4.529 3.36-5.507-2.53-7.468-2.01-.671-3.77-1.514-3.91-1.875s.92-3.458 2.35-6.875c1.42-3.418 3-7.895 3.5-9.969 1.91-7.976 1.22-8.66-5.44-5.375-2.55,1.255-12.765,5.338-15.502,7.187-1.517,1.026-4.423,2.738-6.437,3.813-2.014,1.074-4.054,2.238-4.563,2.594-1.483,1.039-2.122,.794-2.125-.844-.007-4.503-1.699-6.214-4.656-4.688-2.18,1.126-10.474,7.526-11.875,8.5-3.277,2.279-7.791,5.923-14.719,11.844-5.049,4.316-7.104,5.487-6.031,3.406 .22-.427 3.601-13.477 7.531-21.406 8.053-16.244 13.711-17.28 18.282-19 4.439-1.671 15.185-5.037 22.968-6.344 13.157-2.209 19.127-5.246 22.907-7.1871 6.3-3.2395 14.61-6.4063 16.84-6.4063z"/>
<path fill="url(#linearGradient2449)" d="m109.04,33.568c.68,.681-.79,6.384-2.75,10.657-1.59,3.46-3.16,7.619-3.63,9.562-.36,1.511 .37,2.139 4.19,3.531 1.88,.686 3.63,1.514 3.91,1.844 .68,.82-1.15,2.985-4.38,5.125-2.94,1.951-3.12,2.185-2.75,3.656 .26,1.046 .46,1.114 2.91,1.032 1.45-.049 4.5,.203 6.78,.531l4.16,.594v6.718c-.02,6.395 .01,6.75 .87,6.75 .66,0 1.51-1.067 3.09-3.906 1.2-2.145 2.36-3.983 2.6-4.062 .24-.08 1.02,.82 1.75,1.968 .72,1.149 1.65,2.062 2.06,2.063 .41,0 1.95-1.435 3.41-3.219 2.91-3.56 6.45-6.875 7.34-6.875 1.28,0 1.07,4.99 .47,10.094-.17,1.43-24.86,177.63-25.09,180.31-.41,4.62-3.06,15.18-10.41,18.63-3.31,1.55-6.947,1.91-18.844,1.47-6.591-.25-44.444-5.05-59.469-10.28-10.819-3.78-15.206-5.52-19.094-10.88-2.3169-3.19-3.1551-4.82-3.4058-10.34-.2662-5.96 23.449-115.2 24.313-120.85l11.656-57.403 2.562-2.406c1.419-1.312 3.95-3.466 5.594-4.813 1.644-1.346 4.216-3.595 5.75-5 5.106-4.676 20.31-15.759 21.344-15.562 .569,.108 .752,.907 .844,3.812 .136,4.331 .401,5.75 1.093,5.75 .279,0 1.783-1.202 3.344-2.656s3.978-2.91 5.094-3.75c10.628-7.992 20.639-10.658 22.439-11.625 .61-.328 2.08-.634 2.25-.469z"/>
<path d="m71.476,64.85c-3.214-.017-6.323,2.96-9.063,8.718-1.465,3.081-1.529,4.379-.25,4.625 .572,.11 1.046-.42 1.657-1.843 .47-1.098 1.177-2.275 1.562-2.594 .591-.49 .849-.307 1.656,1.062 1.026,1.739 2.035,2.018 3.532,.969 .893-.625 1.783-.553 5.625,.469 .316,.084 .562,.779 .562,1.562 0,.784 .207,1.824 .469,2.313 .624,1.167 1.665,1.148 2.312-.063 .38-.709 .399-1.508 .032-2.968-.277-1.097-.5-2.611-.5-3.344 0-2.105-2.596-6.795-4.344-7.875-1.086-.671-2.179-1.026-3.25-1.031z"/>
<path d="m113.73,99.037c-.51,.006-1.19,.212-2.41,.594-3.81,1.189-7.91,5.339-7.91,8.029 0,1.49 1.21,1.13 2.82-.87 .81-1.01 1.64-1.85 1.81-1.85s.63,.84 1.03,1.85c.55,1.4 .96,1.83 1.78,1.84 1.35,.02 4.06,2.44 4.06,3.63 0,.48 .13,1.19 .28,1.59 .35,.9 .68,.93 1.82,.09 .79-.58 .9-1.19 .84-5.68-.07-5.5-.66-7.33-2.75-8.692-.55-.359-.87-.537-1.37-.531z"/>
<path d="m45.257,110.69c-2.988,0-4.88,1.71-5.906,5.35-.455,1.61-1.249,3.81-1.75,4.87-.711,1.52-.797,2.15-.406,2.88 .881,1.64 1.757,1.06 2.562-1.72 .421-1.46 .956-2.88 1.188-3.16 .674-.82 4.19-.61 5.375,.31 .747,.59 1.511,.75 2.625,.57 1.362-.22 1.627-.09 2.093,.93 .689,1.52 1.784,1.91 2.688,1 .639-.63 .492-1.08-1.313-4.62-2.399-4.71-4.291-6.41-7.156-6.41z"/>
<path d="m82.913,132.07c-3.696,0-6.925,1.49-10.625,4.94-2.661,2.47-1.059,3.85 2.032,1.75 2.281-1.55 3.488-1.47 5.125,.28 .876,.93 1.969,1.53 3.125,1.72 1.447,.23 1.808,.5 1.937,1.43 .088,.63 .366,1.41 .625,1.72 .605,.74 1.512,.74 2.125,0 .336-.4 .297-2.01-.094-5.28-.672-5.62-1.283-6.56-4.25-6.56z"/>
<path d="m110.57,157.47c-.54,.04-1.15,.21-1.88,.47-2.92,1.09-8.933,5.65-8.933,6.78 0,1.3 1.603,1.16 3.283-.25 .27-.22 1.07-.64 1.59-1 .38,.76 1.24,2.3 1.38,2.85 .37,1.48 1.97,1.9 3.78,.97 2.22-1.15 3.15-.9 2.87,.78-.03,.2 .18,.75 .44,1.25 .63,1.17 1.15,1.13 2.03-.13 1.15-1.63 .88-4.78-.65-8.03-1.29-2.73-2.28-3.78-3.91-3.69z"/>
<path d="m48.788,165.63c-.48,0-2.767,1.81-5.093,4.03-3.134,3-4.161,4.27-3.938,4.85 .409,1.06 .62,.99 2.938-.85 1.11-.88 2.068-1.59 2.156-1.59 .087,0 .474,.74 .844,1.62 .579,1.39 .885,1.6 2.218,1.6 2.124,0 4,1.96 4,4.18 0,.9 .144,1.77 .313,1.94 .493,.5 1.454,.37 1.844-.25 .839-1.34 1.354-5.68 .968-8.15-.622-4-3.492-7.38-6.25-7.38z"/>
<path d="m26.601,183.69c-.405,.05-.75,.27-1.281,.66-.668,.49-2.051,2.14-3.063,3.66-1.011,1.51-2.306,3.32-2.875,4.03s-1.031,1.68-1.031,2.15c0,1.48 1.242,.96 3.312-1.4 1.153-1.32 2.206-2.16 2.5-1.97 .28,.18 .955,1.2 1.5,2.28 .545,1.07 1.117,1.97 1.282,1.97 .558,0 2-1.53 2-2.13 0-.32 .443-.92 1-1.31 .913-.64 1.119-.63 2.125,.03 .87,.57 1.366,.64 2.218,.25 1.388-.63 1.356-.91-.187-2.84-2.249-2.82-4.202-4.5-5.906-5.06-.73-.24-1.189-.36-1.594-.32z"/>
<path d="m80.726,189.94c-1.459-.25-2.826,.18-3.5,1.44-.287,.54-2.06,2.65-3.938,4.69-3.205,3.48-4.216,5.44-2.812,5.44 .335,0 1.093-.53 1.687-1.16s1.304-1.16 1.594-1.16 .982,.53 1.531,1.16c1.266,1.45 1.662,1.45 4.469-.22 1.265-.75 2.435-1.37 2.625-1.37 .19-.01 .344,.81 .344,1.84s.238,2.29 .5,2.78c.534,1 .818,1.07 1.812,.44 .537-.34 .688-1.44 .688-4.94 0-3.88-.132-4.74-1.031-6.19-.961-1.54-2.51-2.49-3.969-2.75z"/>
<path d="m108.29,211.41c-.52,.2-1.16,.69-2.35,1.63-1.39,1.1-3.22,2.43-4.06,2.93-2.336,1.41-3.06,2.12-3.06,3.04 0,1.41 .897,1.49 2.78,.25 2.49-1.65 2.91-1.56 2.63,.56-.13,.97-.05,2.11 .18,2.53 .53,.95 2.68,1 3.88,.09 1.38-1.05 2.03-.85 2.03,.63 0,.74 .28,1.45 .59,1.56 .73,.26 2.19-.5 2.38-1.22 1.11-4.29 1.13-4.84 .4-7.03-.85-2.58-2-4-3.87-4.78-.62-.26-1.01-.38-1.53-.19z"/>
<path d="m28.788,214.76c-.345,.11-.647,.39-1.031,.78-1.273,1.27-3.874,6.41-3.875,7.68 0,.46-.31,1.57-.687,2.47-.378,.91-.543,1.89-.375,2.16 .184,.3 .772-.1 1.5-.97 .859-1.03 1.486-1.36 2.156-1.19 .665,.18 1.661-.38 3.406-1.87 1.355-1.16 2.762-2.1 3.156-2.1 .395,0 1.354,.77 2.125,1.69 1.087,1.3 1.624,1.58 2.375,1.35 2.052-.66 1.594-1.61-2.687-5.69-3.776-3.6-5.027-4.66-6.063-4.31z"/>
<path d="m82.038,245.82c-.551,.08-1.117,.33-2.031,.81-2.519,1.33-5.562,4.34-5.562,5.5 0,.61 .353,.88 1.156,.88 .655,0 1.314,.38 1.594,.9 .392,.73 .978,.87 3,.85 1.369-.02 2.698,.11 2.968,.28 .271,.16 .5,1.11 .5,2.06s.136,1.85 .313,2.03c1.352,1.35 2.789-1.6 3.219-6.62 .345-4.04-.483-5.71-3.188-6.44-.869-.24-1.417-.33-1.969-.25z"/>
<path d="m46.82,246.01c-3.749,.1-12.375,5.91-12.375,8.34 0,.87 .986,.52 3.281-1.13 1.232-.88 2.55-1.59 2.937-1.59 .388,0 1.459,.74 2.375,1.66 1.624,1.62 1.742,1.65 4.407,1.4 2.67-.24 2.759-.21 4.125,1.35 .917,1.04 1.744,1.56 2.375,1.47 1.299-.19 1.487-1.6 .375-2.82-.5-.54-1.062-1.52-1.25-2.15-1.152-3.88-3.76-6.6-6.25-6.53z"/>
<g fill="#dea757" transform="translate(-20.75 -10.5)">
<path d="m93.132,78.318c1.215,.323 2.276,1.421 2.969,3.25 .844,2.227-.203,2.752-2.656,1.344-1.308-.751-1.421-.751-2.25,0-1.193,1.08-1.736,.999-2.657-.406-.77-1.177-.734-1.219 .75-2.75 1.268-1.308 2.629-1.76 3.844-1.438z"/>
<path d="m133.73,112.6c.44-.08 .88-.02 1.25,.25 .5,.37 .72,1.04 .62,1.97-.13,1.26-.27,1.37-1.19,1.03-.57-.21-1.33-.26-1.68-.13-.36,.14-.77,.03-.94-.25-.7-1.13 .61-2.64 1.94-2.87z"/>
<path d="m65.195,123.97c.752-.13 1.616,0 2.406,.41 1.365,.71 2.144,2.16 1.625,3-.416,.67-1.307,.57-2.125-.25-.792-.79-2.061-.95-3.281-.44-.91,.39-1.045-.28-.344-1.59 .324-.61 .967-.99 1.719-1.13z"/>
<path d="m102.23,144.44c2.4-.58 3.39,1.25 3.46,2.41 .18,2.91-4.09,2.64-4.91,1.1-.78-1.44-.75-2.89 1.45-3.51z"/>
<path d="m130.82,170.85c.5-.11 .75,.08 1.19,.47 .49,.45 .9,1.29 .9,1.87 0,1.93-3.22,2.78-4.12,1.1-.11-.2-.49-1.25-1.44-1.6 .31-.18 .49-.33 .78-.5 1.44-.8 2.19-1.23 2.69-1.34z"/>
<path d="m70.257,178.97c1.033,.2 2.875,2.99 2.875,4.35 0,1.2-.251,1.24-3.156,.47-2.68-.72-3.316-2.16-1.656-3.82 .635-.63 1.509-1.08 1.937-1z"/>
<path d="m47.413,196.97c1.321-.47 2.652,.65 2,2.5-.538,1.54-1.454,1.75-2.906,.63-1.085-.84-1.105-.93-.344-2.09 .363-.56 .81-.88 1.25-1.04z"/>
<path d="m101.82,203.32c.93,.24 1.64,1.27 1.66,3.03 .01,1.39-.11,1.5-1.5,1.44-.83-.04-2.151,.08-2.973,.28-1.906,.45-1.994-.32-.281-2.94 .983-1.5 2.164-2.05 3.094-1.81z"/>
<path d="m129.85,225.07c.57,.15 1.08,.76 1.63,1.87 .6,1.23 .56,1.38-.6,2.38-1.51,1.3-3.29,1.39-3.94,.19-.75-1.41-.55-2.07 .94-3.5 .8-.77 1.4-1.09 1.97-.94z"/>
<path d="m50.32,228.54c.344,0 .896,.33 1.218,.72 .491,.59 .368,.95-.75,2.12-1.88,1.98-2.872,2.43-3.218,1.53-.335-.87 1.863-4.37 2.75-4.37z"/>
<path d="m102.98,259.01c.35-.06 .71,.05 1.21,.28 .94,.42 1.15,.83 1.04,1.81-.12,1.04-.36,1.26-1.5,1.31-3.59,.16-4.384-.95-1.97-2.75 .53-.39 .86-.6 1.22-.65z"/>
<path d="m68.163,259.41c.515,.07 .957,.24 1.219,.5 .829,.83 .659,2.12-.344,2.66-.489,.26-1.321,.47-1.843,.47-.973,0-2.782-1.49-2.782-2.28 0-.92 2.206-1.55 3.75-1.35z"/>
</g>
<path fill="url(#linearGradient2421)" d="m39.851,277.01c.457-.06 24.778,3.77 24.844,3.81 .535,.33-7.486,46.08-8.188,49.59-1.249,6.26-2.925,11.98-4.625,14.63-1.709,2.66-3.999,4.45-6.75,5.28-3.698,1.11-7.073,1.07-11.281-1.81-5.532-3.79-8.171-9.2-4.094-28.6 1.507-7.17 6.177-29.88 6.969-33.75 1.52-7.42 1.755-8.98 3.125-9.15z"/>
</svg>
