<svg xmlns="http://www.w3.org/2000/svg" viewBox="0 0 572.55 544.08" xmlns:xlink="http://www.w3.org/1999/xlink">
<defs>
<linearGradient id="linearGradient10022">
<stop offset="0" stop-color="#4e9a06"/>
<stop offset="1" stop-color="#73d216"/>
</linearGradient>
<linearGradient gradientTransform="matrix(.98851 0 0 .93546 .12282 26.063)" id="linearGradient3408" xlink:href="#linearGradient10022" y1="77.39" y2="236.63" gradientUnits="userSpaceOnUse" x2="0"/>
<linearGradient id="linearGradient3411" xlink:href="#linearGradient10022" y1="205.98" y2="337.65" x1="285.07" gradientUnits="userSpaceOnUse" x2="283.4"/>
<linearGradient id="linearGradient3414" xlink:href="#linearGradient10022" y1="309.82" y2="420.19" x1="284.39" gradientUnits="userSpaceOnUse" x2="286.44"/>
<linearGradient gradientTransform="matrix(1 0 0 .99113 0 3.4562)" id="linearGradient3417" xlink:href="#linearGradient10022" y1="389.45" y2="493.7" x1="292.54" gradientUnits="userSpaceOnUse" x2="292.53"/>
<linearGradient id="linearGradient3420" xlink:href="#linearGradient10022" y1="453.04" y2="581.74" x1="283.03" gradientUnits="userSpaceOnUse" x2="284.77"/>
<linearGradient id="linearGradient3425" y1="600.69" y2="603.63" x1="258.1" gradientUnits="userSpaceOnUse" x2="290.29">
<stop offset="0" stop-color="#8f5902"/>
<stop offset="1" stop-color="#c17d11"/>
</linearGradient>
</defs>
<g transform="translate(9.7969 -97.225)">
<path fill="#5a5148" stroke="#000" stroke-linejoin="round" stroke-linecap="square" stroke-width=".033" d="m-1.634,620.28c11.293,3.917 22.509,7.1206 33.804,9.5199 11.462,2.4347 23.004,4.0412 34.789,4.7243 11.424,.6622 23.075,.4567 35.101-.703 11.183-1.0785 22.689-2.9821 34.637-5.7806 13.256-3.8968 25.307-8.6203 36.847-13.372 12.45-5.1265 24.307-10.286 36.441-14.476 12.146-4.1944 24.571-7.4175 38.148-8.6636 10.178-1.5292 20.528-2.4041 30.85-2.3895 10.355,.0147 20.681,.9246 30.776,2.9675 10.07,2.0376 19.909,5.2023 29.319,9.7299 9.7669,4.2818 19.642,8.0352 29.782,11.197 9.993,3.1161 20.243,5.6578 30.9,7.5645 10.124,1.8114 20.615,3.0498 31.602,3.6634 10.846,.3877 21.575,.5839 32.244,.6467 10.791,.0635 21.522-.009 32.251-.1588 10.73-.1493 21.458-.3751 32.245-.617 10.672-.2394 21.402-.4947 32.245-.7077 7.0535,.0765-2.4996,2.1618-19.363,3.748-7.088,.6667-15.468,1.2452-24.449,1.5493-11.863,.5019-22.837,1.1034-33.591,1.5573-11.193,.4724-22.147,.7849-33.616,.6586-10.56-.1163-21.556-.6045-33.575-1.6824-12.472-.9737-24.118-2.7432-35.247-5.138-11.9-2.5605-23.208-5.8358-34.303-9.6172-11.181-3.8106-22.144-8.1351-33.277-12.76-12.754-3.9386-25.727-5.8349-38.749-6.1338-13.051-.2995-26.152,1.0056-39.131,3.4676-12.828,2.4331-25.537,5.9962-37.963,10.257-12.527,4.2951-24.766,9.2992-36.548,14.569-10.726,5.3084-21.889,9.1749-33.322,11.891-11.471,2.7254-23.213,4.2929-35.059,4.997-11.766,.6995-23.633,.5471-35.436-.1684-11.877-.72-23.689-2.0103-35.267-3.5768-3.487-.9616-14.1-2.1216-21.982-4.2537-9.1229-2.4679-14.586-6.238-1.1012-12.51"/>
<path fill="#764c02" d="m296.53,545.59c-17.378-.1099-40.543,8.0028-51.25,17.719 .1879,21.763-2.0564,34-5.9375,48.562 17.982,.7341 33.744,5.7527 43.719,13.156 12.606-2.7256 24.791-7.7016 37.781-8.4375-1.9069-19.639-2.1312-38.238-2.625-57.125-.6328-9.8722-9.7976-13.8-21.688-13.875z"/>
<path fill="url(#linearGradient3425)" d="m294.65,553.6c-15.774-.0997-36.803,7.2645-46.522,16.084 .1705,19.755-1.8667,30.863-5.3897,44.082 16.323,.6664 30.631,5.2219 39.685,11.942 11.443-2.4742 22.504-6.9911 34.296-7.6591-1.731-17.827-1.9346-34.71-2.3828-51.855-.5745-8.9614-8.8937-12.527-19.687-12.595z"/>
<path fill="#4a9106" d="m281.99,97.229c-.7264-.0183-1.4618,.035-2.25,.125-7.6823,1.2992-13.525,14.134-20.469,31.25-4.3538,10.732-9.1505,23.152-15.094,35.438-5.5504,11.473-12.122,22.831-20.281,32.625-5.3597,6.4437-9.965,12.364-14.594,18.281-4.6288,5.9169-9.2653,11.838-14.625,18.281-10.897,12.064-9.5257,20.469-1.9375,23.594 1.4729,.6066 3.1645,1.0234 5.0625,1.2188-1.7556,3.5205-3.5511,7.0212-5.4375,10.469-5.2735,9.6379-11.082,18.985-17.406,27.906-6.3517,8.9603-13.234,17.481-20.688,25.5 .0231,11.468 7.649,16.036 16.625,16.281 .2908,.008 .5816,.001 .875,0-.4861,1.1076-.9642,2.2105-1.4688,3.3125-4.6606,10.179-10.158,20.095-16.938,29.375-6.4663,8.8516-14.106,17.146-23.375,24.5-6.2028,9.7807 7.7267,18.83 19.531,17.656-1.4809,2.9554-2.9781,5.8935-4.5625,8.7812-5.0102,9.132-10.638,17.941-17.531,26.375-6.296,7.7034-11.599,11.699-22.531,22.188-7.5783,10.166-4.4191,16.616 3.8438,18.719 2.3324,.5935 5.0767,.832 8.0938,.7188-4.7442,7.5362-9.7859,14.887-15.156,22-6.6832,8.8523-13.862,17.344-21.531,25.344-7.669,8.0002-15.827,15.508-24.5,22.438-1.4886,11.444 5.8275,16.976 15.094,18.375 8.8063,1.3292 19.376-1.0764 25.75-5.6562 9.9524-4.1339 20.775-5.0039 31.125-3.0625 10.346,1.9407 20.218,6.6908 28.188,13.781 9.641,5.9993 20.384,7.7556 31.219,7.125 10.804-.6289 21.699-3.6313 31.656-7.1562 9.1364-1.2666 18.005,.0979 26.812,2.25 8.7428,2.1362 17.417,5.0572 26.188,6.9375 8.7943,1.8854 17.7,2.7256 26.875,.7188 7.7577-2.6659 15.305-6.6304 23.125-9.5 7.7669-2.8501 15.803-4.6202 24.531-2.9688 9.71,.3762 19.254,3.8112 28.812,6 9.5975,2.1977 19.21,3.1392 28.906-1.4688 8.7521-2.687 16.57-8.3739 24.688-12.969 8.1942-4.6382 16.693-8.1635 26.656-6.3125 7.8366,.724 15.316,3.4152 22.812,5.875 7.5539,2.4784 15.126,4.722 23.062,4.5312 10.785-2.4641 13.083-8.2773 11.062-14.875-1.76-5.7463-6.7911-12.089-12.406-17.312-9.3126-8.7768-17.955-18.252-25.938-28.25-4.9797-6.237-9.7118-12.673-14.188-19.281 6.8576,1.6755 13.106,1.8692 17.75,.6875 8.2629-2.1027 11.453-8.5524 3.875-18.719-8.8957-7.095-16.267-14.484-22.562-22.188-6.8932-8.4341-12.521-17.243-17.531-26.375-3.2837-5.9851-6.2855-12.133-9.2188-18.406 2.9593,.5668 6.1659,.6082 9.7188-.1875 15.73-5.2288 1.0718-11.184-14.594-25.719-13.413-14.745-18.289-24.646-21.531-33.156-1.751-4.5956-3.0125-8.8071-4.9062-13.125 .9277-.008 1.8243-.037 2.7188-.0937 12.215-.7753 20.887-6.1075 13.531-15.5-9.2632-8.7123-16.697-16.402-22.938-23.594-8.0615-9.2899-14.131-17.749-19.5-26.5-4.6921-7.648-8.8739-15.589-13.406-24.438 1.0546-.9919 2.0747-2.0733 3.0312-3.25 4.7872-8.5809 5.1676-21.954-2.3125-28.781-8.9002-9.4869-17.062-19.548-24.469-30.062-7.4631-10.593-14.177-21.659-20.156-33.094-5.9922-11.46-11.217-23.305-15.75-35.406-4.3415-9.017-8.5408-20.976-19.438-21.25z"/>
<path fill="#5a5148" d="m234.77,611.3c-20.091,0-37.849,5.3233-48.625,13.5 11.482-5.5423 27.093-8.9375 44.312-8.9375 18.274,0 34.745,3.8439 46.375,10-7.2747,1.5585-13.925,2.9263-21.219,3.5312-5.3914-.0532-11.274,.7177-16.156-2.0625l-5,3.1562c-1.8637,6.8115 32.807,.2878 36.781-.6562 7.3226-1.0873 14.417-3.2006 21.531-5.1875 11.355-3.0799 21.274-5.9601 36.094-4.9062 10.691,.9788 13.748,2.3519 26.031,5.0312-4.1593-2.3778-8.6422-4.1581-13.188-5.6562-6.2167-2.3543-12.865-3.3442-19.5-3.0625-13.507,.4449-26.107,5.6786-39.156,8.5-10.814-8.0262-28.405-13.25-48.281-13.25z"/>
<path fill="url(#linearGradient3420)" d="m176.28,470.5c-5.5536,.1264-11.029,1.5392-16.406,3.5625-9.4497,3.5559-18.607,8.973-27.5,12.594-2.2657,.7999-4.52,1.4724-6.6875,1.9688-3.9939,6.2871-8.1873,12.428-12.625,18.406-6.231,8.3938-12.932,16.445-20.062,24.062-7.1361,7.624-14.716,14.818-22.781,21.469-.3286,4.1799 .6704,6.9847 2.5,9.0625 1.9805,2.2491 5.1067,3.7586 8.9062,4.4375 7.5991,1.3578 17.575-.9127 22.938-4.8438 .1737-.1357 .3625-.2511 .5625-.3438 9.9476-4.2154 20.741-5.1229 31.031-3.1875 10.28,1.9336 20.059,6.7045 28.031,13.812 .0121,.008 .0192,.0236 .0312,.0312 8.672,5.4925 18.483,7.0744 28.469,6.4062 9.7065-.6495 19.576-3.4257 28.781-6.75 .1829-.0604 .3713-.1022 .5625-.125 13.789-1.9503 26.659,2.1338 39.094,5.7188 12.392,3.5729 24.31,6.626 36.531,3.9375 7.1983-2.5492 14.529-6.5383 22.375-9.375 7.3708-2.6648 15.197-4.3142 23.812-2.75v-.0312c9.8667,.39 19.153,3.8117 28.031,5.875 8.8782,2.0633 17.106,2.851 25.5-1.2188 .1212-.0608 .2465-.1131 .375-.1562 7.7204-2.4182 15.074-7.8259 23.031-12.406 7.8904-4.542 16.676-8.2614 26.938-6.4062 .0866,.0157 .1632,.0149 .25,.0312 7.5374,.7486 14.531,3.119 21.281,5.375 7.3026,2.4406 14.319,4.745 21.406,4.6562 4.2007-1.0224 6.5204-2.5225 7.625-4.0312 1.129-1.5422 1.3652-3.2657 .8438-5.6562-1.0428-4.7811-5.7802-11.342-11.281-16.562-.0105-.0103-.021-.0208-.0312-.0312-8.7703-8.4328-16.912-17.496-24.438-27.062-5.2098-7.7836-10.48-13.546-15.188-18.844-7.1224-3.3347-14.406-7.2831-21.875-10.094-9.5588-3.597-19.385-5.2891-29.5-1.2188-7.6964,3.7687-14.756,9.9292-22.25,14.781-7.5716,4.9021-15.587,8.4687-25.156,6.875-10.004-3.8845-19.115-9.4835-28.344-14.812-9.825-3.4481-19.192-9.694-29.188-12.156-10.521-2.9092-19.736,.4604-28.625,5.25-8.7954,4.739-17.272,10.868-26.438,13.75-9.5691,1.5937-17.616-1.9729-25.188-6.875-7.4943-4.8521-14.522-11.013-22.219-14.781-4.4252-1.7808-8.8055-2.4421-13.125-2.3438z"/>
<path fill="url(#linearGradient3417)" d="m291.44,398.97c-8.3242-.0686-16.564,1.5817-23.75,5.4062-6.4718,4.4844-14.383,5.8398-22.406,5.4375-7.8847-.3953-15.88-2.4829-22.812-5-11.352-5.298-24.993-7.3757-37.812-4.5-9.2419,1.6235-17.742,4.9811-25.625,8.9688-2.0266,4.1425-4.1026,8.2487-6.3438,12.281-4.785,8.6099-10.186,16.968-16.75,25-6.0002,7.3418-12.984,14.413-21.344,21.188-2.6456,3.6485-3.3792,6.3325-3.25,7.7812 .1321,1.482 .7282,2.3246 2.6562,3.2812 3.8305,1.9006 12.825,2.0387 22.562-1.375 .0202-.008 .0423-.0229 .0625-.0312 8.1892-3.3619 17.093-8.6558 26.656-12.25 9.5871-3.6031 20.198-5.4349 31-1.0625 .0848,.0386 .1682,.0803 .25,.125 8.0921,3.9857 14.983,10.105 21.906,14.594 6.847,4.4396 13.348,7.2177 21.125,6 7.9124-2.5782 15.88-8.2591 24.594-12.969 8.7924-4.7523 18.822-8.4503 30.125-5.3438 .0325,.009 .0612,.0222 .0937,.0312 10.493,2.6238 19.544,8.7172 28.312,11.812 .2281,.0832 .4479,.1878 .6562,.3125 8.7749,5.0965 17.239,10.26 26.25,13.844 7.7485,1.192 14.211-1.573 21.031-6 6.915-4.4885 13.813-10.608 21.906-14.594 .0818-.0447 .1652-.0864 .25-.125 10.802-4.3724 21.413-2.5406 31,1.0625 9.5635,3.5942 18.467,8.8881 26.656,12.25 .0202,.008 .0423,.0231 .0625,.0312 9.7393,3.4143 18.733,3.2698 22.562,1.375 1.9276-.9537 2.5244-1.7724 2.6562-3.25 .1289-1.4444-.6041-4.1324-3.25-7.7812-8.3705-6.7836-15.34-13.862-21.344-21.219-6.5667-8.0457-11.964-16.406-16.75-25.031-3.9425-7.1058-7.4626-14.413-10.875-21.844-6.162-3.128-11.937-6.6268-19.062-5.7812-16.033,4.2928-5.9515,24.794-23.812,26.906-10.478-1.3537-19.959-4.7401-29.094-8.7812-9.3343-4.1294-18.31-8.9482-27.625-12.938-7.884-4.2512-17.35-7.0585-26.906-7.6875-1.1893-.0783-2.3733-.1152-3.5625-.125z"/>
<path fill="url(#linearGradient3414)" d="m218.19,320.06c-6.9608-.16-14.479,2.2886-23.188,9.2188-4.0591,3.9415-10.431,7.0085-16.938,8.2812-.737,1.6921-1.4983,3.3819-2.2812,5.0625-4.4384,9.5269-9.6616,18.819-16.094,27.562-6.1107,8.3067-13.315,16.112-22,23.094-1.0897,1.8291-1.1565,3.2169-.5938,4.6875 .5875,1.5354 2.0416,3.2003 4.1562,4.5625 4.1949,2.7022 10.757,3.9284 15.531,2.375 8.9665-4.959 18.927-9.4605 30.062-11.438 .042-.009 .083-.022 .125-.0312 12.808-2.8402 26.252-.7674 37.531,4.4375v-.0312c6.2977,2.2868 13.481,4.1256 20.438,4.5312 7.3564,.429 14.46-.7433 20.062-4.625 .0908-.0573 .1847-.1094 .2812-.1562 8.3264-4.4314 17.862-5.9851 27.281-5.4062 9.5492,.5868 18.979,3.3654 26.906,7.5938 .0809,.0431 .1694,.0816 .25,.125 8.7845,3.7784 17.151,8.1803 25.688,11.969 8.5995,3.8163 17.372,7.01 26.969,8.3125 3.4364-.468 5.1311-1.5605 6.375-3.125 1.2871-1.6188 2.103-4.004 2.9062-6.7812 .8033-2.7773 1.6156-5.9095 3.4375-8.8438 1.8219-2.9342 4.8347-5.5282 9.2812-6.7188 .1338-.0305 .2695-.0514 .4062-.0625 7.7126-.9151 13.784,2.7218 19.406,5.5938 5.5955,2.8585 10.688,5.0914 17.656,3.5625 3.1039-1.0746 4.1854-2.163 4.25-2.1875-.0112-.0208-.0122-.0381-.0625-.1562-.1424-.3343-.5679-1.007-1.3125-1.8125-2.9782-3.222-10.378-8.3364-18.031-15.438-.0541-.0501-.1062-.1022-.1562-.1562-5.852-6.4332-10.067-11.979-13.219-16.906-4.9229-7.6965-7.2562-13.862-9.2188-19.375-1.1824-3.3214-2.213-6.3687-3.625-9.4688-4.8042-.8469-9.5479-2.3128-13.594-4.4375-9.3797-4.7232-19.778-6.2399-29.875-4.9062-10.063,1.3293-19.817,5.4981-27.875,12.094-9.6308,5.4227-20.113,6.5276-30.531,5.25-10.368-1.2713-20.668-4.8956-30.062-9-11.191-4.5568-20.779-12.236-31.125-15.594-2.9829-.9679-6.0548-1.5835-9.2188-1.6562zm217.91,81.562c.0204,.038 .0201-.003 .0312-.0312 .002-.004-.0282,.0301-.0312,.0312z"/>
<path fill="url(#linearGradient3411)" d="m247.91,239.62c-.5822,.007-1.1894,.0276-1.8125,.0625-17.37,3.9247-15.054,6.4122-25.844,13.406-6.671,3.1867-12.998,4.793-18.344,5.0312-1.4897,3.6142-2.9729,7.2236-4.8438,10.625-4.8414,8.8023-10.154,17.329-15.938,25.5-5.8025,8.198-12.087,16.034-18.875,23.406 .1763,4.2185 1.5197,6.9408 3.5938,8.7812 2.2138,1.9644 5.4266,3.0187 9.125,3.1875 7.3969,.3377 16.502-3.1054 21.156-7.625 .0496-.0545 .1018-.1067 .1562-.1562 12.751-10.147 23.799-10.509 33.531-7.0312 9.7325,3.4776 18.355,10.273 27.969,14.188 .0208-.0003 .0417-.0003 .0625,0 8.5373,3.7299 17.757,6.967 26.938,8.1562 9.4349,1.2223 18.828,.2814 27.375-4.5312 7.8454-6.3286 17.274-10.31 27.031-11.562 9.7659-1.2536 19.862,.2265 28.969,4.8125 .0105,.0103 .021,.0208 .0312,.0312 8.1562,4.2832 20.096,5.5696 28.031,4 3.9678-.7848 6.7965-2.3353 7.7812-3.7812 .4924-.723 .643-1.3677 .5-2.3438-.1399-.9551-.6838-2.2881-1.9062-3.875-8.4954-8.0003-15.39-15.106-21.188-21.781-7.4257-8.5502-13.044-16.376-18.031-24.406-3.7916-6.1054-7.2321-12.343-10.75-19.094-1.785,.7416-3.6111,1.2695-5.4688,1.5625-6.3981,1.0091-13.07-.7133-18.906-5.5938-5.3029-4.8798-12.861-5.927-21.812-4.8438-6.7945,.8223-14.394,2.8658-22.406,5.4375-9.9318,.5323-14.381-2.6963-18.938-5.875-4.1869-2.921-8.4542-5.7985-17.188-5.6875z"/>
<path fill="url(#linearGradient3408)" d="m281.18,112.61c-2.7981,.4478-5.8974,3.4938-9.0938,8.9688s-6.4491,13.076-10.094,21.656c-3.7659,8.8655-7.9663,18.772-13.131,28.53-4.8321,9.1305-10.508,18.132-17.463,26.032-4.8852,5.558-9.1147,10.671-13.358,15.798-4.2199,5.099-8.4539,10.213-13.36,15.796-.0204,.0213-.0412,.0421-.0625,.0625-4.3276,4.5339-6.2253,8.3322-6.5625,10.938-.3372,2.6054 .4877,4.1052 2.5625,5.375 4.1375,2.5322 13.99,2.4716 24.906-2.4375 4.6514-2.8732 6.4747-4.8298 9.375-6.6875 2.9349-1.8799 6.7095-3.3433 14.75-5.0625 .1024-.0288 .2069-.0496 .3125-.0625 9.6403-.5106 14.623,2.5556 18.75,5.2812 4.1041,2.7103 7.3901,5.0552 15.812,4.6562 8.402-2.5392 16.359-4.5487 23.469-4.9688 7.1752-.4239 13.633,.8069 18.438,4.9375 .007,.006 .0241-.006 .0312,0 .0222,.0192 .0403,.0432 .0625,.0625 9.6403,7.5565 21.546,5.4483 29.625-3.8125 1.9079-3.3054 3.0054-7.6204 2.8125-11.688-.1956-4.1244-1.6389-7.8768-4.5312-10.375-.0328-.0405-.064-.0822-.0937-.125-8.1293-8.2002-15.579-16.882-22.359-25.96-6.882-9.2138-13.075-18.836-18.592-28.78-5.5649-10.03-10.442-20.387-14.642-30.979-.0207-.0522-.0418-.104-.0625-.1562-2.138-4.2183-4.1679-8.8732-6.8438-12.188-2.6825-3.3225-5.6705-5.3096-10.656-4.8125"/>
</g>
</svg>
