<svg xmlns="http://www.w3.org/2000/svg" viewBox="0 0 1100 1200" xmlns:xlink="http://www.w3.org/1999/xlink">
<defs>
<filter id="filter5029">
<feColorMatrix values="44.470588235294116" type="hueRotate"/>
</filter>
<linearGradient gradientTransform="matrix(.36436 -.03639 .27138 2.7174 1.6793 116.44)" id="linearGradient5058" xlink:href="#linearGradient2201" y1="281.09" y2="396.2" x1="1063" gradientUnits="userSpaceOnUse" x2="1075"/>
<linearGradient gradientTransform="matrix(.80989 -.08088 .12209 1.2225 1.6793 116.44)" spreadMethod="reflect" id="linearGradient5070" xlink:href="#linearGradient2201" y1="838.2" y2="843.22" x1="469.01" gradientUnits="userSpaceOnUse" x2="491.66"/>
<linearGradient gradientTransform="matrix(.80989 -.08088 .12209 1.2225 1.6793 116.44)" id="linearGradient5072" xlink:href="#linearGradient2168" y1="816.66" y2="835.01" x1="432.33" gradientUnits="userSpaceOnUse" x2="442.94"/>
<linearGradient gradientTransform="scale(.61237 1.633)" id="linearGradient5092" xlink:href="#linearGradient3483" x1="638.59" gradientUnits="userSpaceOnUse" x2="954.38"/>
<linearGradient gradientTransform="matrix(.86745 -.09367 .4322 .63112 -2.0673 133.58)" id="linearGradient5096" xlink:href="#linearGradient4902" y1="900.84" y2="958.59" x1="309.16" gradientUnits="userSpaceOnUse" x2="302.31"/>
<linearGradient gradientTransform="matrix(.75888 .31614 -.46778 1.1229 639.92 -47.664)" spreadMethod="reflect" id="linearGradient5114" xlink:href="#linearGradient2201" y1="614.4" y2="654.13" x1="423.76" gradientUnits="userSpaceOnUse" x2="448.12"/>
<linearGradient gradientTransform="matrix(1.197 -.39408 .24816 .75375 -200.28 124.99)" id="linearGradient5031" xlink:href="#linearGradient2168" y1="1203.6" y2="608.36" x1="336.15" gradientUnits="userSpaceOnUse" x2="345.4"/>
<linearGradient gradientTransform="matrix(1.0103 -.1009 .09787 .97999 -17.724 122.41)" spreadMethod="reflect" id="linearGradient4992" xlink:href="#linearGradient2168" y1="747.38" y2="754.63" x1="370.79" gradientUnits="userSpaceOnUse" x2="381.53"/>
<linearGradient gradientTransform="matrix(1.213 -.12114 .08152 .81623 1.6793 116.44)" id="linearGradient5022" xlink:href="#linearGradient4902" y1="900.84" y2="958.59" x1="309.16" gradientUnits="userSpaceOnUse" x2="302.31"/>
<linearGradient gradientTransform="matrix(-.61798 .18305 .44065 1.4877 597.5 -4.4261)" spreadMethod="reflect" id="linearGradient5001" xlink:href="#linearGradient2201" y1="588.05" y2="590.56" x1="608.27" gradientUnits="userSpaceOnUse" x2="572.03"/>
<linearGradient gradientTransform="matrix(1.213 -.12114 .08152 .81623 1.6793 116.44)" id="linearGradient5016" xlink:href="#linearGradient2168" y1="901.66" y2="937.79" x1="293.05" gradientUnits="userSpaceOnUse" x2="311.93"/>
<linearGradient gradientTransform="matrix(1.213 -.12114 .08152 .81623 1.6793 116.44)" id="linearGradient5019" xlink:href="#linearGradient2168" y1="959.69" y2="945.18" x1="299.34" gradientUnits="userSpaceOnUse" x2="301.38"/>
<linearGradient gradientTransform="matrix(1.213 -.12114 .08152 .81623 1.6793 116.44)" id="linearGradient5013" xlink:href="#linearGradient2168" y1="923.83" y2="927.12" x1="293.24" gradientUnits="userSpaceOnUse" x2="310.45"/>
<linearGradient gradientTransform="matrix(.93728 .39046 -.37874 .90913 637.62 -42.126)" spreadMethod="reflect" id="linearGradient5117" xlink:href="#linearGradient2168" y1="747.38" y2="754.63" x1="370.79" gradientUnits="userSpaceOnUse" x2="381.53"/>
<linearGradient gradientTransform="matrix(.8384 .14928 -.20585 1.1561 458.08 -135.94)" id="linearGradient5165" xlink:href="#linearGradient3475" y1="-283.39" y2="504.58" x1="-683.5" gradientUnits="userSpaceOnUse" x2="1100.7"/>
<linearGradient gradientTransform="matrix(-.78264 .25163 .37232 1.158 576.36 -7.9357)" spreadMethod="reflect" id="linearGradient4989" xlink:href="#linearGradient2201" y1="614.4" y2="654.13" x1="423.76" gradientUnits="userSpaceOnUse" x2="448.12"/>
<linearGradient gradientTransform="matrix(.33802 .14082 -1.0502 2.5209 639.92 -47.664)" id="linearGradient5183" xlink:href="#linearGradient2201" y1="281.09" y2="396.2" x1="1063" gradientUnits="userSpaceOnUse" x2="1075"/>
<linearGradient gradientTransform="matrix(.49907 .54378 -.99819 .91612 586.87 -250.89)" id="linearGradient5193" y1="504.53" y2="572.13" x1="878.35" gradientUnits="userSpaceOnUse" x2="921.76">
<stop offset="0" stop-color="#fff"/>
<stop offset="1" stop-color="#fff" stop-opacity="0"/>
</linearGradient>
<linearGradient gradientTransform="matrix(.73148 .09852 -.18085 1.3427 97.836 -77.665)" id="linearGradient5195" y1="504.53" y2="572.13" x1="878.35" gradientUnits="userSpaceOnUse" x2="921.76">
<stop offset="0"/>
<stop offset="1" stop-opacity="0"/>
</linearGradient>
<linearGradient gradientTransform="matrix(.55499 .01759 .09212 .42968 275.04 290.57)" id="linearGradient5187" xlink:href="#linearGradient3483" y1="900.84" y2="958.59" x1="309.16" gradientUnits="userSpaceOnUse" x2="302.31"/>
<linearGradient gradientTransform="matrix(1.2406 .2209 -.13911 .78126 458.08 -135.94)" id="linearGradient5156" xlink:href="#linearGradient2168" y1="1203.6" y2="608.36" x1="336.15" gradientUnits="userSpaceOnUse" x2="345.4"/>
<linearGradient gradientTransform="matrix(.75133 .313 -.47247 1.1341 639.92 -47.664)" id="linearGradient5120" xlink:href="#linearGradient2168" y1="816.66" y2="835.01" x1="432.33" gradientUnits="userSpaceOnUse" x2="442.94"/>
<linearGradient gradientTransform="matrix(.75133 .313 -.47247 1.1341 639.92 -47.664)" spreadMethod="reflect" id="linearGradient5123" xlink:href="#linearGradient2201" y1="838.2" y2="843.22" x1="469.01" gradientUnits="userSpaceOnUse" x2="491.66"/>
<linearGradient gradientTransform="matrix(1.1253 .46881 -.31545 .75721 639.92 -47.664)" id="linearGradient5147" xlink:href="#linearGradient3483" y1="900.84" y2="958.59" x1="309.16" gradientUnits="userSpaceOnUse" x2="302.31"/>
<linearGradient gradientTransform="matrix(.59496 .24785 -.59666 1.4322 639.92 -47.664)" spreadMethod="reflect" id="linearGradient5126" xlink:href="#linearGradient2201" y1="588.05" y2="590.56" x1="608.27" gradientUnits="userSpaceOnUse" x2="572.03"/>
<linearGradient gradientTransform="matrix(1.1253 .46881 -.31545 .75721 639.92 -47.664)" id="linearGradient5141" xlink:href="#linearGradient2168" y1="901.66" y2="937.79" x1="293.05" gradientUnits="userSpaceOnUse" x2="311.93"/>
<linearGradient gradientTransform="matrix(1.1253 .46881 -.31545 .75721 639.92 -47.664)" id="linearGradient5144" xlink:href="#linearGradient2168" y1="959.69" y2="945.18" x1="299.34" gradientUnits="userSpaceOnUse" x2="301.38"/>
<linearGradient gradientTransform="matrix(1.1253 .46881 -.31545 .75721 639.92 -47.664)" id="linearGradient5138" xlink:href="#linearGradient2168" y1="923.83" y2="927.12" x1="293.24" gradientUnits="userSpaceOnUse" x2="310.45"/>
<linearGradient id="linearGradient4902">
<stop offset="0" stop-color="#ff6134"/>
<stop offset="1" stop-color="#f00"/>
</linearGradient>
<linearGradient gradientTransform="matrix(1.2302 -.27318 .17203 .77468 -201.81 -17.563)" id="linearGradient2235" xlink:href="#linearGradient2168" y1="1203.6" y2="608.36" x1="336.15" gradientUnits="userSpaceOnUse" x2="345.4"/>
<linearGradient gradientTransform="matrix(.36618 0 0 2.7309 0 -6)" id="linearGradient2199" xlink:href="#linearGradient2201" y1="281.09" y2="396.2" x1="1063" gradientUnits="userSpaceOnUse" x2="1075"/>
<linearGradient gradientTransform="matrix(1.2191 0 0 .82029 0 -6)" id="linearGradient2122" xlink:href="#linearGradient2053" y1="900.84" y2="958.59" x1="309.16" gradientUnits="userSpaceOnUse" x2="302.31"/>
<linearGradient gradientTransform="matrix(1.2191 0 0 .82029 0 -6)" id="linearGradient2144" xlink:href="#linearGradient2168" y1="923.83" y2="927.12" x1="293.24" gradientUnits="userSpaceOnUse" x2="310.45"/>
<linearGradient gradientTransform="matrix(1.2191 0 0 .82029 0 -6)" id="linearGradient2126" xlink:href="#linearGradient2168" y1="959.69" y2="945.18" x1="299.34" gradientUnits="userSpaceOnUse" x2="301.38"/>
<linearGradient id="linearGradient2053">
<stop offset="0" stop-color="#34abff"/>
<stop offset="1" stop-color="#0057ff"/>
</linearGradient>
<linearGradient id="linearGradient4894">
<stop offset="0" stop-color="#5f0000" stop-opacity="0"/>
<stop offset=".5" stop-color="#f00" stop-opacity="0"/>
<stop offset="1" stop-color="#590000"/>
</linearGradient>
<linearGradient id="linearGradient2065">
<stop offset="0" stop-color="#00575f" stop-opacity="0"/>
<stop offset=".5" stop-color="#0062ff" stop-opacity="0"/>
<stop offset="1" stop-color="#002859"/>
</linearGradient>
<linearGradient id="linearGradient2201">
<stop offset="0" stop-color="#525252"/>
<stop offset="1" stop-color="#d9d9d9"/>
</linearGradient>
<linearGradient id="linearGradient2077">
<stop offset="0" stop-color="#fff"/>
<stop offset="1" stop-color="#fff" stop-opacity="0"/>
</linearGradient>
<linearGradient id="linearGradient2168">
<stop offset="0"/>
<stop offset="1" stop-opacity="0"/>
</linearGradient>
<linearGradient gradientTransform="matrix(1.2191 0 0 .82029 0 -6)" id="linearGradient2140" xlink:href="#linearGradient2168" y1="901.66" y2="937.79" x1="293.05" gradientUnits="userSpaceOnUse" x2="311.93"/>
<linearGradient gradientTransform="matrix(.82209 0 0 1.2164 0 -6)" spreadMethod="reflect" id="linearGradient2256" xlink:href="#linearGradient2201" y1="614.4" y2="654.13" x1="423.76" gradientUnits="userSpaceOnUse" x2="448.12"/>
<linearGradient gradientTransform="matrix(.81392 0 0 1.2286 0 -6)" spreadMethod="reflect" id="linearGradient2317" xlink:href="#linearGradient2201" y1="838.2" y2="843.22" x1="469.01" gradientUnits="userSpaceOnUse" x2="491.66"/>
<linearGradient gradientTransform="matrix(.64452 0 0 1.5515 0 -6)" spreadMethod="reflect" id="linearGradient2264" xlink:href="#linearGradient2201" y1="588.05" y2="590.56" x1="608.27" gradientUnits="userSpaceOnUse" x2="572.03"/>
<linearGradient gradientTransform="matrix(.81392 0 0 .8325 13.674 316.17)" id="linearGradient2321" xlink:href="#linearGradient2168" y1="816.66" y2="835.01" x1="432.33" gradientUnits="userSpaceOnUse" x2="442.94"/>
<linearGradient id="linearGradient3483">
<stop offset="0" stop-color="#ffff34"/>
<stop offset="1" stop-color="#ffc200"/>
</linearGradient>
<linearGradient id="linearGradient3475">
<stop offset="0" stop-color="#5a5f00" stop-opacity="0"/>
<stop offset=".5" stop-color="#ffde00" stop-opacity="0"/>
<stop offset="1" stop-color="#cf9800"/>
</linearGradient>
<linearGradient gradientTransform="scale(1.0154 .98487)" spreadMethod="reflect" id="linearGradient2327" xlink:href="#linearGradient2168" y1="747.38" y2="754.63" x1="370.79" gradientUnits="userSpaceOnUse" x2="381.53"/>
<radialGradient cx="413.89" cy="440.37" gradientTransform="matrix(.97653 .17388 -.23978 1.3466 466 -180.42)" id="radialGradient5153" r="359.53" gradientUnits="userSpaceOnUse">
<stop offset="0" stop-color="#00ff07" stop-opacity="0"/>
<stop offset=".5" stop-color="#28ff00" stop-opacity="0"/>
<stop offset=".75" stop-color="#1f9e24" stop-opacity="0"/>
<stop offset="1" stop-color="#083205"/>
</radialGradient>
<radialGradient cx="457.14" cy="263.79" id="radialGradient2217" xlink:href="#linearGradient2077" r="94.286" gradientUnits="userSpaceOnUse"/>
<radialGradient cx="269.79" cy="1031.8" gradientTransform="matrix(1.3076 .32203 -.08663 .47478 437 201.86)" id="radialGradient5150" xlink:href="#linearGradient2168" r="32.826" gradientUnits="userSpaceOnUse"/>
<radialGradient cx="413.89" cy="440.37" gradientTransform="matrix(.96831 -.21503 .29652 1.3353 -211.6 -61.667)" id="radialGradient2232" r="359.53" gradientUnits="userSpaceOnUse">
<stop offset="0" stop-color="#00f1ff" stop-opacity="0"/>
<stop offset=".5" stop-color="#00c9ff" stop-opacity="0"/>
<stop offset=".75" stop-color="#0065a6" stop-opacity="0"/>
<stop offset="1" stop-color="#002454"/>
</radialGradient>
<radialGradient cx="480.13" cy="516.87" gradientTransform="scale(.83995 1.1905)" id="radialGradient2223" xlink:href="#linearGradient2077" r="175.44" gradientUnits="userSpaceOnUse"/>
<radialGradient cx="480.13" cy="516.87" gradientTransform="matrix(.49183 -.09326 .12426 .65531 404.91 310.8)" id="radialGradient5159" xlink:href="#linearGradient2077" r="175.44" gradientUnits="userSpaceOnUse"/>
<radialGradient cx="378.57" cy="752.36" gradientTransform="matrix(.44933 -.21734 .43543 .90022 -57.849 230.67)" id="radialGradient5007" xlink:href="#linearGradient2077" r="8.571" gradientUnits="userSpaceOnUse"/>
<radialGradient cx="478.66" cy="290.04" gradientTransform="matrix(.97653 .17388 -.23978 1.3466 466 -180.42)" id="radialGradient5177" xlink:href="#linearGradient3475" r="372.49" gradientUnits="userSpaceOnUse"/>
<radialGradient fy="1161.4" cx="247.71" cy="1161.1" gradientTransform="scale(1.5804 .63276)" id="radialGradient2333" xlink:href="#linearGradient2168" r="14.647" gradientUnits="userSpaceOnUse"/>
<radialGradient cx="462.46" cy="233.67" gradientTransform="matrix(.97653 .17388 -.23978 1.3466 466 -180.42)" id="radialGradient5180" xlink:href="#linearGradient3483" r="330.33" gradientUnits="userSpaceOnUse"/>
<radialGradient cx="457.14" cy="263.79" gradientTransform="matrix(.41767 .07437 -.07437 .41767 690.59 59.723)" id="radialGradient5171" xlink:href="#linearGradient2077" r="94.286" gradientUnits="userSpaceOnUse"/>
<radialGradient cx="457.14" cy="263.79" gradientTransform="matrix(1.1934 .21248 -.21248 1.1934 372.42 -208.03)" id="radialGradient5168" xlink:href="#linearGradient2077" r="94.286" gradientUnits="userSpaceOnUse"/>
<radialGradient cx="214.76" cy="1378.8" gradientTransform="matrix(1.4614 -.14594 .04226 .42316 92.451 294.13)" id="radialGradient5010" xlink:href="#linearGradient2077" r="15.406" gradientUnits="userSpaceOnUse"/>
<radialGradient cx="370.71" cy="771.55" gradientTransform="matrix(1.0103 -.1009 .09787 .97999 -18.321 116.44)" id="radialGradient5004" xlink:href="#linearGradient2201" r="27.48" gradientUnits="userSpaceOnUse"/>
<radialGradient cx="480.13" cy="516.87" gradientTransform="matrix(.82525 -.15648 .22179 1.1697 180.44 3.7704)" id="radialGradient5162" xlink:href="#linearGradient2077" r="175.44" gradientUnits="userSpaceOnUse"/>
<radialGradient cx="378.57" cy="752.36" gradientTransform="matrix(.49865 .02183 -.04374 .99904 550.94 34.141)" id="radialGradient5132" xlink:href="#linearGradient2077" r="8.571" gradientUnits="userSpaceOnUse"/>
<radialGradient cx="214.76" cy="1378.8" gradientTransform="matrix(1.3557 .56477 -.16354 .39256 635.54 151.82)" id="radialGradient5135" xlink:href="#linearGradient2077" r="15.406" gradientUnits="userSpaceOnUse"/>
<radialGradient cx="457.14" cy="263.79" gradientTransform="matrix(.40297 -.13267 .13267 .40297 97.222 186.94)" id="radialGradient5046" xlink:href="#linearGradient2077" r="94.286" gradientUnits="userSpaceOnUse"/>
<radialGradient cx="462.46" cy="233.67" gradientTransform="matrix(.94214 -.31018 .42774 1.2992 -214.4 82.076)" id="radialGradient5055" xlink:href="#linearGradient4902" r="330.33" gradientUnits="userSpaceOnUse"/>
<radialGradient cx="478.66" cy="290.04" gradientTransform="matrix(.94214 -.31018 .42774 1.2992 -214.4 82.076)" id="radialGradient5052" xlink:href="#linearGradient4894" r="372.49" gradientUnits="userSpaceOnUse"/>
<radialGradient cx="457.14" cy="263.79" gradientTransform="matrix(1.1513 -.37905 .37905 1.1513 -309.88 102.16)" id="radialGradient5043" xlink:href="#linearGradient2077" r="94.286" gradientUnits="userSpaceOnUse"/>
<radialGradient cx="480.13" cy="516.87" gradientTransform="matrix(.65225 -.52924 .75014 .92449 -378.41 379.69)" id="radialGradient5037" xlink:href="#linearGradient2077" r="175.44" gradientUnits="userSpaceOnUse"/>
<radialGradient cx="413.89" cy="440.37" gradientTransform="matrix(.94214 -.31018 .42774 1.2992 -214.4 82.076)" id="radialGradient5028" r="359.53" gradientUnits="userSpaceOnUse">
<stop offset="0" stop-color="#f00" stop-opacity="0"/>
<stop offset=".5" stop-color="#f00" stop-opacity="0"/>
<stop offset=".75" stop-color="#a60000" stop-opacity="0"/>
<stop offset="1" stop-color="#540000"/>
</radialGradient>
<radialGradient cx="480.13" cy="516.87" gradientTransform="matrix(.38873 -.31541 .42025 .51793 -35.161 543.49)" id="radialGradient5034" xlink:href="#linearGradient2077" r="175.44" gradientUnits="userSpaceOnUse"/>
<radialGradient cx="370.71" cy="771.55" gradientTransform="matrix(1.0154 0 0 .98487 0 -6)" id="radialGradient2242" xlink:href="#linearGradient2201" r="27.48" gradientUnits="userSpaceOnUse"/>
<radialGradient cx="269.79" cy="1031.8" gradientTransform="scale(1.3926 .71807)" id="radialGradient2179" xlink:href="#linearGradient2168" r="32.826" gradientUnits="userSpaceOnUse"/>
<radialGradient cx="378.57" cy="752.36" id="radialGradient2169" xlink:href="#linearGradient2077" r="8.571" gradientUnits="userSpaceOnUse"/>
<radialGradient cx="478.66" cy="290.04" gradientTransform="matrix(.96831 -.21503 .29652 1.3353 -211.6 -61.667)" id="radialGradient2249" xlink:href="#linearGradient2065" r="372.49" gradientUnits="userSpaceOnUse"/>
<radialGradient cx="269.79" cy="1031.8" gradientTransform="matrix(1.3039 -.33682 .14896 .45905 -58.59 432.36)" id="radialGradient5025" xlink:href="#linearGradient2168" r="32.826" gradientUnits="userSpaceOnUse"/>
<radialGradient cx="370.71" cy="771.55" gradientTransform="matrix(.93728 .39046 -.37874 .90913 639.92 -47.664)" id="radialGradient5129" xlink:href="#linearGradient2201" r="27.48" gradientUnits="userSpaceOnUse"/>
<radialGradient cx="462.46" cy="233.67" gradientTransform="matrix(.96831 -.21503 .29652 1.3353 -211.6 -61.667)" id="radialGradient2252" xlink:href="#linearGradient2053" r="330.33" gradientUnits="userSpaceOnUse"/>
<radialGradient fy="1161.4" cx="247.71" cy="1161.1" gradientTransform="matrix(1.5726 -.15705 .06288 .62962 -17.724 122.41)" id="radialGradient4986" xlink:href="#linearGradient2168" r="14.647" gradientUnits="userSpaceOnUse"/>
<radialGradient cx="893.91" cy="318.43" gradientTransform="scale(.72831 1.373)" id="radialGradient5082" xlink:href="#linearGradient4902" r="179.96" gradientUnits="userSpaceOnUse"/>
<radialGradient fy="1161.4" cx="247.71" cy="1161.1" gradientTransform="matrix(1.4589 .60775 -.24333 .5841 637.62 -42.126)" id="radialGradient5111" xlink:href="#linearGradient2168" r="14.647" gradientUnits="userSpaceOnUse"/>
<radialGradient cx="214.76" cy="1378.8" gradientTransform="matrix(1.4686 0 0 .42526 72.665 179.83)" id="radialGradient2155" xlink:href="#linearGradient2077" r="15.406" gradientUnits="userSpaceOnUse"/>
</defs>
<g transform="translate(164.09 17.006)">
<g fill-rule="evenodd">
<path fill="url(#linearGradient2199)" d="m369.76,746.35l40.33,399.15h7.11l-37.38-400.16-10.06,1.01z"/>
<path opacity=".75" fill="url(#radialGradient2252)" d="m558.54,282.83c39.66,178.6-67.95,439.46-174.55,466.06-103.81,25.98-315.74-169.78-355.4-348.38s46.86-349.91 193.13-382.39c146.26-32.479 297.16,86.11 336.82,264.71z"/>
<path fill="url(#radialGradient2249)" d="m558.54,282.83c39.66,178.6-67.95,439.46-174.55,466.06-103.81,25.98-315.74-169.78-355.4-348.38s46.86-349.91 193.13-382.39c146.26-32.479 297.16,86.11 336.82,264.71z"/>
<path fill="url(#radialGradient2217)" d="m551.43,263.79c0,52.07-42.21,94.29-94.29,94.29-52.07,0-94.28-42.22-94.28-94.29s42.21-94.28 94.28-94.28c52.08,0 94.29,42.21 94.29,94.28z" transform="matrix(.41416 -.09197 .09197 .41416 88.064 73.647)"/>
<path opacity=".6" fill="url(#radialGradient2217)" d="m551.43,263.79c0,52.07-42.21,94.29-94.29,94.29-52.07,0-94.28-42.22-94.28-94.29s42.21-94.28 94.28-94.28c52.08,0 94.29,42.21 94.29,94.28z" transform="matrix(1.1833 -.26277 .26277 1.1833 -308.6 -51.166)"/>
<path opacity=".53" fill="url(#radialGradient2223)" d="m568.57,602.36c0,128.61-73.55,232.86-164.28,232.86-90.74,0-164.29-104.25-164.29-232.86 0-128.6 73.55-232.85 164.29-232.85 90.73,0 164.28,104.25 164.28,232.85z" transform="matrix(.8353 -.54979 .54979 .8353 -404.37 218.18)"/>
<path opacity=".3" fill="url(#radialGradient2223)" d="m568.57,602.36c0,128.61-73.55,232.86-164.28,232.86-90.74,0-164.29-104.25-164.29-232.86 0-128.6 73.55-232.85 164.29-232.85 90.73,0 164.28,104.25 164.28,232.85z" transform="matrix(.49782 -.32766 .30801 .46796 -79.096 415.27)"/>
<path opacity=".1" fill="url(#linearGradient2235)" d="m223.16,647.36c-18.33-24.26-60.96-66.68-84.57-101.25-13.36-19.58-23.25-50.62 1.33-49.97 37.26,.99 32.96,59.59 31.55-7-.09-4.28 28.98,44.92 54.79,4.39 20.49-32.19 27.58,49.66 31.54,67.49 1.54,6.94 35.92,12.73 49.96,1.33 35.3-28.67 6.94,34.37 6.57,48.21-.89,33.66 73.16-41.61 76.7-46.01 32.96-40.96 50.85-10.7 72.76-45.13 23.01-36.14 48.4-65.38 66.19-93.34 14.1-22.15-23.01-31.23 10.09-47.77 25.06-12.52 21.8,45.56 16.21,54.35-13.64,21.42-38.61,14.17-39.45,46.01-.53,19.92-.88,33.32 4.37,56.98 4.69,21.13-20.48,53.45-30.25,68.8-13.83,21.72-3.49,30.23-31.56,44.26-19.26,9.62-21.79,50.29-39.45,46.01-13.72,11.15-36.21,27.08-46.02,35.05-18.37,14.92-39.26-16.11-68.37-9.65-21.98,4.88-45.83-9.49-58.29-20.17-12-10.28-20.75-37.52-24.1-52.59z"/>
<path fill="url(#radialGradient2232)" d="m558.54,282.83c39.66,178.6-67.95,439.46-174.55,466.06-103.81,25.98-315.74-169.78-355.4-348.38s46.86-349.91 193.13-382.39c146.26-32.479 297.16,86.11 336.82,264.71z"/>
<path opacity=".3" fill="url(#radialGradient2179)" d="m421.43,740.93c.01,13.02-20.46,23.58-45.72,23.58-25.25,0-45.72-10.56-45.71-23.58-.01-13.02 20.46-23.57 45.71-23.57 25.26,0 45.73,10.55 45.72,23.57z" transform="matrix(.95567 -.14762 .1429 .65674 -91.365 302.37)"/>
<path fill="url(#linearGradient2122)" d="m372.75,735.24c-5.94,3.64-15.41,17.3-18.19,24.24-1.54,3.86-9.09,5.05-13.13,7.07-7.95,3.97-3.74,11.11 4.04,11.11 10.36,0 20.28,.02 30.31,2.02 7.56,1.51 15.43,1.01 23.23,1.01 7.94,0 8.98-5.27 7.07-9.09-1.73-3.47-10.95-7.77-13.13-12.12-2.07-4.13-1.9-18.34-7.07-22.22-.38-.29-6.72-5.97-13.13-2.02z"/>
<path fill="url(#linearGradient2126)" d="m372.75,735.24c-5.94,3.64-15.41,17.3-18.19,24.24-1.54,3.86-9.09,5.05-13.13,7.07-7.95,3.97-3.74,11.11 4.04,11.11 10.36,0 20.28,.02 30.31,2.02 7.56,1.51 15.43,1.01 23.23,1.01 7.94,0 8.98-5.27 7.07-9.09-1.73-3.47-10.95-7.77-13.13-12.12-2.07-4.13-1.9-18.34-7.07-22.22-.38-.29-6.72-5.97-13.13-2.02z"/>
<path opacity=".468" fill="url(#linearGradient2140)" d="m372.75,735.24c-5.94,3.64-15.41,17.3-18.19,24.24-1.54,3.86-9.09,5.05-13.13,7.07-7.95,3.97-3.74,11.11 4.04,11.11 10.36,0 20.28,.02 30.31,2.02 7.56,1.51 15.43,1.01 23.23,1.01 7.94,0 8.98-5.27 7.07-9.09-1.73-3.47-10.95-7.77-13.13-12.12-2.07-4.13-1.9-18.34-7.07-22.22-.38-.29-6.72-5.97-13.13-2.02z"/>
<path opacity=".509" fill="url(#linearGradient2144)" d="m372.75,735.24c-5.94,3.64-15.41,17.3-18.19,24.24-1.54,3.86-9.09,5.05-13.13,7.07-7.95,3.97-3.74,11.11 4.04,11.11 10.36,0 20.28,.02 30.31,2.02 7.56,1.51 15.43,1.01 23.23,1.01 7.94,0 8.98-5.27 7.07-9.09-1.73-3.47-10.95-7.77-13.13-12.12-2.07-4.13-1.9-18.34-7.07-22.22-.38-.29-6.72-5.97-13.13-2.02z"/>
<path opacity=".676" fill="url(#radialGradient2155)" d="m358.6,766.36c3.39,.43 11.27-.31 16.58-1.54 4.5-1.04 7.22-1.31 9.95-3.85 3.94-3.66 3.84-.53 9.11,1.9 2.93,3.13 7.18,2.08 10.15,8.1 2.93,2.72-11.8,0-15.95,0-4.45,0-8.3-.77-12.43-.77-2.85,0-8.67-1.05-10.78-1.54-3.28-.76-1.58-1.37-6.63-2.3z"/>
<path opacity=".468" fill="url(#radialGradient2169)" d="m387.14,752.36c0,4.74-3.83,8.57-8.57,8.57-4.73,0-8.57-3.83-8.57-8.57 0-4.73 3.84-8.57 8.57-8.57 4.74,0 8.57,3.84 8.57,8.57z" transform="matrix(.4687 -.17161 .34381 .93904 -50.684 103.73)"/>
</g>
<path fill="url(#radialGradient2242)" d="m384.1,745.83c-.32,.08-.63-.18-.94-.27 7.03,1.47 .11-.15 1.18-1.56-.29-.2-.1,.1-.23,.23l4.01-9.42c1.9,1.22 3.96,1.86 5.08,4.06 4.66,11.94-2.84,20.8-15.46,15.35-8.58-7.9-5.36-17.93 6.36-18.75v10.36z"/>
<path fill="url(#linearGradient2264)" d="m389.06,848.98c19.5,32.61-39.41,32.94-38.04,67.43 1.38,34.84 31.46,19.78 50.02,50.33l1.36,12.09c-27.17-37.97-52.08-27.66-53.16-61.72-1.07-34.07 44.85-45.57 40.61-61.82l-.79-6.31z"/>
<path fill="url(#linearGradient2317)" d="m395.35,1000.7c-9.28,13.3-34.1,18-33.95,2.5 .36-36.91 41.7-9.78 42.92,20.4 .59,14.7-36.31,14-42.15,26.9l-1.06-8.5c4.9-11 39.15-9.6 37.45-17.7-5.81-27.92-21.85-36.15-32.52-27.48 1.28,15.08 21.25,9.88 28.94-3.59l.37,7.47z"/>
<path fill="url(#linearGradient2321)" d="m409.79,998.3c-9.29,9-48.54,18.3-48.39,7.9l4.64-4.4c1.28,10.3 35.69,.6 43.37-8.57l.38,5.07z"/>
<path fill="url(#linearGradient2327)" d="m384.1,745.83c-.32,.08-.63-.18-.94-.27 7.03,1.47 .11-.15 1.18-1.56-.29-.2-.1,.1-.23,.23l4.01-9.42c1.9,1.22 3.96,1.86 5.08,4.06 4.66,11.94-2.84,20.8-15.46,15.35-8.58-7.9-5.36-17.93 6.36-18.75v10.36z"/>
<path fill="url(#linearGradient2256)" d="m392.33,736.55c-9.76,22.19-12.99,1.44-21.3,2.75-12.74-.02-32.13,6.31-38.99,16.56-9.4,14.05-13.05,28.87-5.67,47.75 7.43,19 29.43,25.71 53.51,39.27l.31,4.01c-18.28-14.31-48.78-14.92-58.94-36.51-10.31-21.88-9.62-39.63 10.16-58.7 10.47-9.75 22.83-17.62 37.49-17.94l23.43,2.81z"/>
<path opacity=".639" fill="url(#radialGradient2333)" d="m392.33,736.55c-9.76,22.19-12.99,1.44-21.3,2.75-12.74-.02-16.79-5.24-2.13-5.56l23.43,2.81z"/>
</g>
<g fill-rule="evenodd">
<path fill="url(#linearGradient5183)" d="m695.62,790.56l-117.58,373.74 10.26,2.3 113.3-374.64-5.98-1.4z"/>
<path opacity=".75" fill="url(#radialGradient5180)" filter="url(#filter5029)" d="m1044.4,433.74c-32,180.12-231.68,379.54-340.31,363.1-105.82-15.94-226.17-278.15-194.1-458.26 32.07-180.12 177.82-304.98 325.32-278.72 147.51,26.269 241.19,193.77 209.09,373.88z"/>
<path fill="url(#radialGradient5177)" filter="url(#filter5029)" d="m1044.4,433.74c-32,180.12-231.68,379.54-340.31,363.1-105.82-15.94-226.17-278.15-194.1-458.26 32.07-180.12 177.82-304.98 325.32-278.72 147.51,26.269 241.19,193.77 209.09,373.88z"/>
<path fill="url(#radialGradient5171)" d="m901.29,210.91c-3.88,21.75-24.65,36.24-46.4,32.37s-36.24-24.64-32.36-46.39c3.87-21.75 24.64-36.24 46.39-32.37s36.24,24.64 32.37,46.39z"/>
<path opacity=".6" fill="url(#radialGradient5168)" d="m974.42,223.93c-11.06,62.14-70.41,103.55-132.55,92.49-62.14-11.07-103.55-70.41-92.48-132.55 11.06-62.15 70.41-103.55 132.55-92.487 62.14,11.067 103.55,70.407 92.48,132.55z"/>
<path opacity=".4" fill="url(#linearGradient5165)" filter="url(#filter5029)" d="m835.32,59.873c-147.51-26.265-293.26,98.577-325.33,278.69-32.07,180.12 88.29,442.34 194.11,458.28 108.62,16.44 308.3-182.99 340.4-363.11 32-180.12-61.67-347.59-209.18-373.86zm-6.9,2.929c5.41,.519 11.12,2.003 17.15,4.706 17.69,7.922 19.96,37.032 24.92,39.252 18.69,8.38 35.78-6.01 49.34,.06 16.97,7.6 16.21,16.2 24.11,27.53 7.34,10.52 14.64,28.01 24.45,42.06 8.03,11.51 20.97,34.74 32.91,43.59 11.1,8.32 25,22.35 22.6,35.96-5.2,28.76-21.6,14.18-28.57,29.74-9.58,21.39 32.17,31.05 27.07,59.96-5.3,29.88-44.34,26.29-37.96,33.87 .12,.15 42.96,84.56 5.37,67.7-21.06-9.43-49.3-57.91-66.33-35.04-6.18,8.31-47.49,46.75-55.65,19.13-17.48-59.12-18.83,.65-65.99-20.48-15.54-6.95-6.3-23.25 1.38-40.38 32.02-71.47-46-31.59-36.5-55.82 28.66-73.12 9.97-6.84-.92-43.68-6.56-22.2-9.5-43.8-39-41.77-45.49,3.13-17.25,24.75-26.38,50.44-8.48,23.89-37.65,7.84-31.33,29.24 2.13,7.19 8.06,60.97 2.25,52.65-2.31-3.32-4.64-6.66-6.96-9.97-24.92-35.72-50.96,26.03-58.87-27.88-6.14-41.9-27.4,11.18-60.77,15.3-23.21,26.64-17.95,3.11-14.86-14.26 2.79-15.69 10.54-26.59 13.64-44.01 5.06-28.4 22.65-13.34 42.56-27.24 11.59-8.08 45.18-14.16 22.9-30.74-11.7-8.71-37.13-8.4-14.38-17.07 14.63-5.58 74.54-23.53 61.16-50.05-7.54-14.94-29.82-57.558 11.81-50.15 37.16,6.62 45.94,9.34 58.45-18.6 10.19-22.747 39.34,4.588 59.78-9.671 12.64-8.823 26.36-15.934 42.62-14.377z"/>
<path opacity=".53" fill="url(#radialGradient5162)" d="m851.27,489.67c23.96,126.35-28.88,242.48-118.03,259.38-89.14,16.9-180.83-71.82-204.79-198.17-23.95-126.36 28.89-242.49 118.03-259.39 89.15-16.9 180.84,71.82 204.79,198.18z"/>
<path opacity=".3" fill="url(#radialGradient5159)" d="m800.7,579.23c13.42,70.78-18.77,136.33-71.89,146.41-53.13,10.07-107.08-39.15-120.5-109.93-13.43-70.79 18.76-136.34 71.89-146.41 53.13-10.08 107.08,39.14 120.5,109.93z"/>
<path opacity=".1" fill="url(#linearGradient5156)" filter="url(#filter5029)" d="m594.67,641.27c-7.59-29.45-30.63-85-39.12-125.99-4.81-23.21-2.01-55.66 20.43-45.61 34.02,15.24 7.51,67.68 31.82,5.67 1.56-3.98 9.48,52.61 48.88,25.12 31.3-21.84 6.37,56.45 3.17,74.44-1.25,6.99 28.26,25.56 45.61,20.43 43.61-12.89-6.82,34.39-12.48,47.03-13.77,30.73 83.54-10.27 88.5-12.97 46.18-25.14 51.05,9.67 84.52-13.68 35.13-24.52 69.81-41.75 96.99-60.71 21.54-15.03-9.23-37.68 27.69-40.22 27.92-1.92 2.6,50.44-5.94,56.4-20.83,14.53-41.09-1.76-54.11,27.3-8.15,18.19-13.63,30.42-17.88,54.28-3.79,21.31-39.46,41.47-54.38,51.88-21.12,14.73-14.84,26.56-46.15,28.72-21.48,1.48-39.46,38.04-54.12,27.3-16.95,5.01-43.83,11.08-55.96,14.66-22.69,6.71-30.04-29.97-59.4-35.2-22.16-3.95-38.66-26.38-46.05-41.03-7.12-14.11-4.72-42.62-2.02-57.82z"/>
<path fill="url(#radialGradient5153)" filter="url(#filter5029)" d="m1044.4,433.74c-32,180.12-231.68,379.54-340.31,363.1-105.82-15.94-226.17-278.15-194.1-458.26 32.07-180.12 177.82-304.98 325.32-278.72 147.51,26.269 241.19,193.77 209.09,373.88z"/>
<path opacity=".3" fill="url(#radialGradient5150)" d="m743.31,789.2c-1.56,8.61-22.06,10.86-45.77,5.02s-41.65-17.55-40.08-26.16 22.06-10.86 45.77-5.02 41.66,17.56 40.08,26.16z"/>
<path fill="url(#linearGradient5147)" filter="url(#filter5029)" d="m698.96,779.91c-6.88,1.09-20.88,10.05-26.11,15.39-2.91,2.97-10.33,1.17-14.84,1.48-8.86,.61-7.72,8.82-.54,11.81 9.56,3.98 18.71,7.81 27.2,13.52 6.4,4.3 13.85,6.86 21.05,9.86 7.34,3.06 10.32-1.41 10.03-5.67-.27-3.87-7.13-11.38-7.46-16.24-.32-4.61 5.3-17.66 2.02-23.23-.25-.41-3.91-8.09-11.35-6.92z"/>
<path fill="url(#linearGradient5144)" filter="url(#filter5029)" d="m698.96,779.91c-6.88,1.09-20.88,10.05-26.11,15.39-2.91,2.97-10.33,1.17-14.84,1.48-8.86,.61-7.72,8.82-.54,11.81 9.56,3.98 18.71,7.81 27.2,13.52 6.4,4.3 13.85,6.86 21.05,9.86 7.34,3.06 10.32-1.41 10.03-5.67-.27-3.87-7.13-11.38-7.46-16.24-.32-4.61 5.3-17.66 2.02-23.23-.25-.41-3.91-8.09-11.35-6.92z"/>
<path opacity=".468" fill="url(#linearGradient5141)" filter="url(#filter5029)" d="m698.96,779.91c-6.88,1.09-20.88,10.05-26.11,15.39-2.91,2.97-10.33,1.17-14.84,1.48-8.86,.61-7.72,8.82-.54,11.81 9.56,3.98 18.71,7.81 27.2,13.52 6.4,4.3 13.85,6.86 21.05,9.86 7.34,3.06 10.32-1.41 10.03-5.67-.27-3.87-7.13-11.38-7.46-16.24-.32-4.61 5.3-17.66 2.02-23.23-.25-.41-3.91-8.09-11.35-6.92z"/>
<path opacity=".509" fill="url(#linearGradient5138)" filter="url(#filter5029)" d="m698.96,779.91c-6.88,1.09-20.88,10.05-26.11,15.39-2.91,2.97-10.33,1.17-14.84,1.48-8.86,.61-7.72,8.82-.54,11.81 9.56,3.98 18.71,7.81 27.2,13.52 6.4,4.3 13.85,6.86 21.05,9.86 7.34,3.06 10.32-1.41 10.03-5.67-.27-3.87-7.13-11.38-7.46-16.24-.32-4.61 5.3-17.66 2.02-23.23-.25-.41-3.91-8.09-11.35-6.92z"/>
<path opacity=".676" fill="url(#radialGradient5135)" filter="url(#filter5029)" d="m673.94,803.2c2.95,1.71 10.51,4.05 15.89,4.96 4.55,.76 7.17,1.56 10.66,.27 5.05-1.86 3.75,.99 7.69,5.26 1.5,4.01 5.82,4.68 6.25,11.38 1.66,3.63-10.9-4.54-14.72-6.14-4.11-1.71-7.37-3.9-11.18-5.49-2.64-1.09-7.6-4.3-9.36-5.56-2.74-1.96-.94-1.87-5.23-4.68z"/>
<path opacity=".468" fill="url(#radialGradient5132)" filter="url(#filter5029)" d="m711.08,794.23c-.21,4.73-2.29,8.48-4.65,8.38s-4.1-4.02-3.9-8.75c.21-4.73 2.29-8.48 4.65-8.38 2.36,.11 4.11,4.02 3.9,8.75z"/>
</g>
<path fill="url(#radialGradient5129)" filter="url(#filter5029)" d="m705.36,794.06c-.32-.05-.51-.41-.76-.61 5.93,4.05 .16-.09 1.69-.98-.19-.31-.13,.05-.3,.12l7.33-7.16c1.28,1.86 2.94,3.25 3.13,5.7-.29,12.82-10.62,18.11-20.18,8.23-4.88-10.6 1.94-18.61 13.08-14.87l-3.99,9.57z"/>
<path fill="url(#linearGradient5126)" d="m670.98,891.48c5.46,37.6-49.75,14.96-61.74,47.32-12.13,32.69 22.13,30.65 27.52,66l-3.4,11.7c-10.48-45.53-38.14-45.88-26.04-77.74 12.11-31.86 59.63-24.53 61.97-41.16l1.69-6.12z"/>
<path fill="url(#linearGradient5123)" d="m619.74,1033.7c-13.69,8.7-56.51,6.6-50.43-7.6 14.52-33.97 58.38,3.8 47.9,32.1-5.09,13.8-38.89-1-49.25,8.7l2.28-8.3c8.76-8.2 39.82,6.2 41.39-1.9 5.37-28-22.4-38.6-35.58-34.7-4.64,14.4 33.93,14.1 46.22,4.6l-2.53,7.1z"/>
<path fill="url(#linearGradient5120)" d="m617.74,1033.7c-13.69,8.7-54.51,6.6-48.43-7.6l6.74-4.1c-4.64,14.4 31.93,14.1 44.22,4.6l-2.53,7.1z"/>
<path fill="url(#linearGradient5117)" filter="url(#filter5029)" d="m705.36,794.06c-.32-.05-.51-.41-.76-.61 5.93,4.05 .16-.09 1.69-.98-.19-.31-.13,.05-.3,.12l7.33-7.16c1.28,1.86 2.94,3.25 3.13,5.7-.29,12.82-10.62,18.11-20.18,8.23-4.88-10.6 1.94-18.61 13.08-14.87l-3.99,9.57z"/>
<path fill="url(#linearGradient5114)" d="m716.53,788.65c-17.54,16.74-12.55-3.66-20.72-5.64-11.75-4.93-32.08-6.53-42.35,.29-14.09,9.35-23.15,21.63-23.6,41.89-.45,20.41 19.38,35.93 36.39,57.71l-1.26,3.82c-11.36-20.23-41.39-33.41-42.47-57.24-1.09-24.17 6.37-40.28 31.96-50.29 13.41-4.96 27.85-7.48 41.51-2.14l20.54,11.6z"/>
<path opacity=".639" fill="url(#radialGradient5111)" d="m716.53,788.65c-17.54,16.74-12.55-3.66-20.72-5.64-11.75-4.93-13.48-11.3 .18-5.96l20.54,11.6z"/>
<g fill-rule="evenodd">
<path fill="url(#linearGradient5058)" d="m446.35,827.92l71.38,339.88 9.06,.9-72.51-342.39-7.93,1.61z"/>
<path opacity=".75" fill="url(#radialGradient5055)" d="m586.15,348.33c57.22,173.78-23.94,444.05-127.36,481.11-100.72,36.16-331.05-137.57-388.27-311.34-57.208-173.78 11.86-352.84 154.17-399.69 142.32-46.855 304.25,56.15 361.46,229.92z"/>
<path fill="url(#radialGradient5052)" d="m586.15,348.33c57.22,173.78-23.94,444.05-127.36,481.11-100.72,36.16-331.05-137.57-388.27-311.34-57.208-173.78 11.861-352.84 154.17-399.69 142.32-46.855 304.25,56.15 361.46,229.92z"/>
<path opacity=".15" fill="url(#radialGradient5082)" d="m782.11,437.22a131.07,247.1 0 1,1 -262.13,0 131.07,247.1 0 1,1 262.13,0z" transform="matrix(1.2202 0 0 1 -135.79 0)"/>
<path fill="url(#radialGradient5046)" d="m354.43,220.08c6.9,20.99-4.51,43.6-25.49,50.51-20.98,6.9-43.59-4.51-50.5-25.49s4.5-43.59 25.48-50.5c20.99-6.91 43.6,4.5 50.51,25.48z"/>
<path opacity=".6" fill="url(#radialGradient5043)" d="m424.99,196.85c19.73,59.95-12.87,124.56-72.82,144.3-59.95,19.73-124.55-12.87-144.29-72.82s12.86-124.55 72.81-144.29 124.56,12.86 144.3,72.81z"/>
<path opacity=".53" fill="url(#radialGradient5037)" d="m442.64,489.2c81.03,99.86 89.6,227.17 19.14,284.33-70.46,57.17-193.26,22.56-274.29-77.3-81.03-99.87-89.603-227.17-19.15-284.34 70.46-57.17 193.26-22.55 274.3,77.31z"/>
<path opacity=".3" fill="url(#radialGradient5034)" d="m440.6,592.04c45.4,55.94 48.16,128.92 6.17,162.99s-112.84,16.34-158.23-39.61c-45.4-55.95-48.16-128.92-6.17-163 41.99-34.07 112.83-16.33 158.23,39.62z"/>
<path opacity=".1" fill="url(#linearGradient5031)" d="m288.67,744.39c-20.66-22.32-67.3-60.29-94.22-92.35-15.24-18.15-28.17-48.05-3.65-49.85 37.18-2.72 38.72,56.02 30.71-10.1-.52-4.25 33.3,41.82 54.94-1.08 17.2-34.07 32.39,46.68 38.1,64.03 2.22,6.75 37.01,9.09 49.85-3.65 32.27-32.03 10.31,33.51 11.32,47.32 2.46,33.58 68.67-48.67 71.75-53.4 28.73-44.04 49.53-15.71 67.92-52.14 19.3-38.25 41.66-69.87 56.59-99.45 11.83-23.45-26-28.79 5.29-48.54 23.69-14.95 26.22,43.17 21.53,52.47-11.45,22.67-37.01,17.94-34.69,49.7 1.46,19.87 2.44,33.24 10.02,56.26 6.77,20.56-15.07,55.23-23.27,71.47-11.6,22.99-.46,30.42-27,47.18-18.21,11.49-16.69,52.21-34.69,49.7-12.54,12.46-33.33,30.54-42.31,39.46-16.79,16.66-40.67-12.14-68.99-2.81-21.38,7.03-46.55-4.89-60-14.28-12.96-9.05-24.38-35.28-29.2-49.94z"/>
<path fill="url(#radialGradient5028)" d="m586.15,348.33c57.22,173.78-23.94,444.05-127.36,481.11-100.72,36.16-331.05-137.57-388.27-311.34-57.208-173.78 11.861-352.84 154.17-399.69 142.32-46.855 304.25,56.15 361.46,229.92z"/>
<path opacity=".3" fill="url(#radialGradient5025)" d="m489.69,804.11c2.71,8.32-14.27,20.02-37.91,26.12-23.64,6.11-45,4.31-47.69-4.01-2.71-8.32 14.26-20.02 37.91-26.13 23.64-6.11 45-4.31 47.69,4.02z"/>
<path fill="url(#linearGradient5022)" d="m446.24,816.97c-5.54,4.22-13.61,18.75-15.68,25.93-1.16,3.99-8.55,5.93-12.37,8.34-7.51,4.74-2.62,11.43 5.13,10.65 10.31-1.03 20.17-2 30.35-1 7.68,.75 15.46-.53 23.22-1.3 7.9-.79 8.41-6.15 6.13-9.75-2.07-3.28-11.67-6.64-14.27-10.76-2.46-3.9-3.71-18.06-9.24-21.41-.41-.25-7.28-5.27-13.27-.7z"/>
<path fill="url(#linearGradient5019)" d="m446.24,816.97c-5.54,4.22-13.61,18.75-15.68,25.93-1.16,3.99-8.55,5.93-12.37,8.34-7.51,4.74-2.62,11.43 5.13,10.65 10.31-1.03 20.17-2 30.35-1 7.68,.75 15.46-.53 23.22-1.3 7.9-.79 8.41-6.15 6.13-9.75-2.07-3.28-11.67-6.64-14.27-10.76-2.46-3.9-3.71-18.06-9.24-21.41-.41-.25-7.28-5.27-13.27-.7z"/>
<path opacity=".468" fill="url(#linearGradient5016)" d="m446.24,816.97c-5.54,4.22-13.61,18.75-15.68,25.93-1.16,3.99-8.55,5.93-12.37,8.34-7.51,4.74-2.62,11.43 5.13,10.65 10.31-1.03 20.17-2 30.35-1 7.68,.75 15.46-.53 23.22-1.3 7.9-.79 8.41-6.15 6.13-9.75-2.07-3.28-11.67-6.64-14.27-10.76-2.46-3.9-3.71-18.06-9.24-21.41-.41-.25-7.28-5.27-13.27-.7z"/>
<path opacity=".509" fill="url(#linearGradient5013)" d="m446.24,816.97c-5.54,4.22-13.61,18.75-15.68,25.93-1.16,3.99-8.55,5.93-12.37,8.34-7.51,4.74-2.62,11.43 5.13,10.65 10.31-1.03 20.17-2 30.35-1 7.68,.75 15.46-.53 23.22-1.3 7.9-.79 8.41-6.15 6.13-9.75-2.07-3.28-11.67-6.64-14.27-10.76-2.46-3.9-3.71-18.06-9.24-21.41-.41-.25-7.28-5.27-13.27-.7z"/>
<path opacity=".676" fill="url(#radialGradient5010)" d="m435.26,849.34c3.41,.1 11.18-1.43 16.34-3.18 4.37-1.48 7.05-2.02 9.52-4.81 3.56-4.04 3.77-.91 9.26,.98 3.22,2.82 7.34,1.35 10.9,7.05 3.18,2.41-11.75,1.17-15.87,1.58-4.43,.45-8.34,.06-12.45,.47-2.84,.29-8.73-.18-10.87-.46-3.34-.43-1.72-1.2-6.83-1.63z"/>
<path opacity=".468" fill="url(#radialGradient5007)" d="m443.7,823.82c2.07,4.26 2.01,8.55-.12,9.58-2.12,1.03-5.52-1.59-7.58-5.85s-2.01-8.55 .12-9.58 5.52,1.59 7.58,5.85z"/>
</g>
<path fill="url(#radialGradient5004)" d="m438.59,826.38c-.31,.11-.64-.12-.97-.17 7.15,.75 .1-.16 1.03-1.67-.31-.18-.09,.11-.21,.25l3.06-9.78c2,1.03 4.12,1.46 5.45,3.54 5.83,11.41-.75,20.97-13.85,16.81-9.33-7.01-7.12-17.31 4.46-19.29l1.03,10.31z"/>
<path fill="url(#linearGradient5001)" d="m464.55,908.06c-9.44,36.8 49.87,38.18 58.35,71.63 8.57,33.81-28.51,2.12-37.63,36.71l2.13,11.9c15.27-44.07 46.05-15.5 37.41-48.45-8.65-32.97-58.68-48.74-59.22-65.52l-1.04-6.27z"/>
<g transform="matrix(-.99601 .08925 .08925 .99601 894.77 -68.925)">
<path fill="url(#linearGradient5070)" d="m491.89,1079.2c-7.92,14.1-41.63,31.4-43.02,15.9-3.31-36.7 53.23-24.2 57.44,5.7 2.05,14.5-34.74,17.5-39.26,30.9l-1.9-8.3c3.78-11.5 38-13.4 35.5-21.4-8.55-27.2-38.04-23.3-47.79-13.7 2.78,15 33.6-2.5 39.9-16.7l-.87,7.6z"/>
<path fill="url(#linearGradient5072)" d="m489.62,1079.4c-7.92,14.1-39.36,31.2-40.75,15.7l3.99-6.8c2.78,15 31.33-2.3 37.63-16.5l-.87,7.6z"/>
</g>
<path fill="url(#linearGradient4992)" d="m438.59,826.38c-.31,.11-.64-.12-.97-.17 7.15,.75 .1-.16 1.03-1.67-.31-.18-.09,.11-.21,.25l3.06-9.78c2,1.03 4.12,1.46 5.45,3.54 5.83,11.41-.75,20.97-13.85,16.81-9.33-7.01-7.12-17.31 4.46-19.29l1.03,10.31z"/>
<path fill="url(#linearGradient4989)" d="m430.14,819.06c16.08,18.14 12.81-2.6 21.11-3.9 12.13-3.92 32.52-3.83 42.19,3.83 13.25,10.49 21.26,23.49 20.01,43.72-1.25,20.37-26.32,14.19-45.08,34.46l.93,3.92c13.02-19.22 48.04-9.83 51.11-33.5 3.11-23.99-2.98-40.67-27.65-52.78-12.95-6.07-27.12-9.78-41.18-5.6l-21.44,9.85z"/>
<path opacity=".639" fill="url(#radialGradient4986)" d="m445.85,816.33c-7.5,23.05-12.78,2.72-20.91,4.85-12.68,1.24-17.23-3.55-2.67-5.32l23.58,.47z"/>
<g fill-rule="evenodd">
<path opacity=".15" fill="url(#linearGradient5092)" d="m584.44,473.75a96.69,257.84 0 1,1 -193.38,0 96.69,257.84 0 1,1 193.38,0z" transform="matrix(.98588 -.16181 .16746 .95262 -68.149 66.993)"/>
<path opacity=".15" fill="url(#linearGradient5096)" d="m653.71,683.68c-2.3,3.26-1.84,6.06-.16,11.6 .94,3.09-3.81,4.59-5.62,6.45-3.56,3.67 3.2,8.84 8.73,8.24 7.38-.79 14.44-1.54 22.63-.77 6.18,.58 11.51-.41 17.06-1.01 5.66-.61 3.61-4.75 .25-7.54-3.07-2.54-11.89-5.13-15.74-8.32-3.64-3.02-11.01-9.96-16.74-12.55 .66,4.11-7.92,.37-10.41,3.9z"/>
</g>
<path opacity=".1" fill="url(#linearGradient5195)" d="m650.41,689.82c-6.11,15.96 4.04,47.01 12.01,65.76 7.32,15.23 15.94,29.88 27.58,42.19l-6.77,6.1c-11.66-13.53-20.58-29.02-28.23-45.13-7.24-16.99-32.18-69.77-3.27-78.73l-1.32,9.81z"/>
<path opacity=".15" fill="url(#linearGradient5187)" fill-rule="evenodd" d="m527.98,684.22c-2.29,1.82-5.07,8.84-5.55,12.43-.27,2-3.57,2.52-5.19,3.52-3.17,1.96-.45,5.76 3.09,5.88 4.72,.15 9.23,.3 14.02,1.49 3.62,.9 7.14,.75 10.69,.87 3.62,.11 3.5-2.64 2.2-4.66-1.18-1.85-5.86-4.23-7.34-6.54-1.4-2.2-2.92-9.64-5.71-11.75-.21-.15-3.73-3.22-6.21-1.24z"/>
<path opacity=".15" fill="url(#linearGradient5193)" d="m520.4,692.48c-14.91,8.35-26.98,38.71-32.86,58.22-4.12,16.38-6.87,33.16-5.79,50.07l-9.11,.35c-.3-17.85 2.75-35.47 7.18-52.74 5.31-17.69 19.92-74.2 47.87-62.59l-7.29,6.69z"/>
</svg>
