<svg width="440.9765" xmlns="http://www.w3.org/2000/svg" viewBox="0 0 440.97649 792.14918" height="792.1492" xmlns:xlink="http://www.w3.org/1999/xlink">
<defs>
<linearGradient gradientTransform="matrix(.97022 0 0 1.0307 -175.17962 -22.08763)" xlink:href="#radialGradient3259" id="linearGradient3102" y1="322.352" x1="358.355" y2="273.54" gradientUnits="userSpaceOnUse" x2="355.29"/>
<linearGradient gradientTransform="matrix(.96063 0 0 1.041 -29.43 -21.352)" xlink:href="#radialGradient3880" id="linearGradient3109" y1="311.788" x1="255.515" y2="275.75" gradientUnits="userSpaceOnUse" x2="234.87"/>
<linearGradient gradientTransform="matrix(.98076 0 0 1.0196 -209.8202 123.96454)" xlink:href="#radialGradient3259" id="linearGradient3908" y1="342.255" x1="481.944" y2="295.79" gradientUnits="userSpaceOnUse" x2="498.72"/>
<radialGradient cx="281.15" cy="220.89" gradientTransform="matrix(.64387 .20199 -.23483 .74852 176.2998 3.94454)" xlink:href="#radialGradient3880" id="radialGradient3905" r="163.66" gradientUnits="userSpaceOnUse"/>
<radialGradient fx="248.07" fy="207.33" cx="243.22" cy="211.65" gradientTransform="matrix(.55391 -.38544 .44808 .64393 -201.43 92.648)" xlink:href="#radialGradient3880" id="radialGradient3106" r="222.31" gradientUnits="userSpaceOnUse"/>
<radialGradient fx="286.42" fy="202.83" cx="283.42" cy="200.21" gradientTransform="matrix(.67482 0 0 .78449 -55.03962 -101.39763)" xlink:href="#radialGradient3259" id="radialGradient3099" r="243.33" gradientUnits="userSpaceOnUse"/>
<radialGradient fx="248.07" fy="207.33" cx="243.22" cy="211.65" gradientTransform="scale(.92542 1.0806)" id="radialGradient3259" r="222.31" gradientUnits="userSpaceOnUse">
<stop offset="0" stop-color="#fff"/>
<stop offset="1" stop-color="#b2b2b2"/>
</radialGradient>
<radialGradient fx="248.07" fy="207.33" cx="243.22" cy="211.65" gradientTransform="scale(.92542 1.0806)" r="222.31" id="radialGradient3880" gradientUnits="userSpaceOnUse">
<stop offset="0" stop-color="#fff"/>
<stop offset="1" stop-color="#a79e9e"/>
</radialGradient>
</defs>
<g fill-rule="evenodd">
<path d="m168.1004,283.4724c-.68,.03-1.24,.57-1.28,1.25-1.34,15.48-6.22,31.69-8.75,47.91-2.53,16.22-2.7,32.54 5.66,48l.06,.09c10.91,16.66 28.41,25.85 45.03,35.53 16.62,9.68 32.34,19.79 40.38,38 .01,.06 .03,.11 .06,.16 13.49,23.35 11.36,50.9 8.81,77.09-1.8,20.7 1.52,43.35 17.09,58.82 8.98,12.08 16.88,26.19 15.57,41.4-.06,.74 .48,1.38 1.21,1.44 .74,.06 1.38-.49 1.44-1.22 1.4-16.25-6.94-30.94-16.06-43.22-.05-.04-.1-.08-.16-.12-14.91-14.68-18.2-36.53-16.43-56.85 2.54-26.18 4.83-54.34-9.1-78.56-9.6691-18.1003-26.726-30.5858-41.47-39.22-16.68-9.72-33.68-18.75-44.12-34.68-7.93-14.74-7.83-30.32-5.34-46.26 2.48-15.97 7.41-32.22 8.78-48.09 .04-.38-.09-.76-.36-1.05-.26-.28-.63-.43-1.02-.42z"/>
<path fill="url(#linearGradient3102)" d="m161.4204,261.3424c1.61,5.05-.2,10.42-2.65,14.88-.94,2.08-2.5,3.74-3.76,5.61-.94,1.37-1.46,3.76 .45,4.57 1.39,.5 2.94,.42 4.41,.41 3.91-.25 7.88-2.07 11.76-.74 3.06,1.35 6.05,3.39 9.54,3.15 2.28-.03 3.59-2.73 2.15-4.53-1.29-2.14-3.23-3.91-3.86-6.41-2.15-5.63-1.59-11.87-.17-17.61 .21-2.31-2.6-3.59-4.54-2.82-4,1.04-7.37,4.39-11.73,3.92-.55-.07-1.09-.21-1.6-.43z"/>
<path fill="url(#radialGradient3099)" d="m288.224,131.9396c0,72.8303-50.8471,131.9396-113.5,131.9396-62.6456,0-113.4927-59.1093-113.4927-131.9396-0-72.8303 50.8471-131.9396 113.4927-131.9396 62.6529,0 113.5,59.1093 113.5,131.9396z"/>
<path d="m274.8398,432.6545c-.4,.04-.75,.26-.97,.59-17.85,26.26-28.74,60.82-13.72,91.25 .03,.06 .03,.13 .06,.19 9.21,29.05 12.59,63.69-7.31,88.81l-.06,.06c-18.07,26.04-19.76,58.75-11.19,88.29 7.45,29.83-6.76,58.15-23.06,82.68l-.03,.03-2.54,3.97c-.39,.62-.21,1.45 .41,1.85 .62,.39 1.45,.21 1.84-.41l2.53-3.97c16.44-24.72 31.15-53.85 23.41-84.84v-.07c-8.39-28.93-6.7-60.76 10.81-86 20.72-26.21 17.03-61.93 7.66-91.4-.03-.07-.06-.13-.09-.19-14.57-29.29-4.06-62.92 13.5-88.75 .3-.43 .32-1 .05-1.45-.27-.46-.78-.71-1.3-.64z"/>
<path fill="url(#linearGradient3908)" d="m274.2598,414.8445c.02,5.31-3.32,9.89-6.99,13.41-1.51,1.71-3.51,2.82-5.26,4.23-1.31,1.03-2.53,3.15-.94,4.49 1.18,.9 2.68,1.28 4.09,1.71 3.8,.93 8.13,.38 11.44,2.82 2.51,2.21 4.75,5.04 8.15,5.85 2.19,.66 4.25-1.52 3.41-3.67-.59-2.42-1.91-4.69-1.76-7.27-.36-6.02 2.03-11.8 5.1-16.85 .9-2.15-1.4-4.21-3.48-4.05-4.13-.21-8.34,1.97-12.37,.22-.5-.23-.97-.52-1.39-.89z"/>
<path fill="url(#radialGradient3905)" d="m433.9763,329.3304c-21.8005,69.4907-88.0093,110.6695-147.789,91.9158-59.7727-18.7516-90.5947-90.3704-68.7942-159.861 21.8005-69.4907 88.0093-110.6695 147.782-91.9179 59.7797,18.7537 90.6017,90.3725 68.8011,159.8632z"/>
<g transform="translate(-.63368 164.04118)">
<path d="m206.01,270.148c-.49,.03-.93,.33-1.13,.78-8.05,16.98-4.45,33.27 3.88,47.72 8.32,14.45 21.34,27.25 32.34,37.81 21.2,20.25 22.19,50.04 16.78,77.22v.13c-4.09,34.41-1.25,74.13 26.63,99.12 11.16,10.31 22.52,23.74 28.72,38.25 6.19,14.51 7.28,29.95-2,44.85-.01,.01-.02,.02-.04,.03-2.13,3.61-4.77,6.91-7.87,9.71-.4,.31-.6,.81-.5,1.31 .09,.49 .45,.89 .93,1.03 4.1108-1.2078 7.871-7.5622 9.76-10.71 16.7785-34.7687-3.1327-63.9529-27.22-86.44-26.87-24.09-29.82-62.74-25.78-96.75 0-.03-.01-.06 0-.09 12.8202-60.093-25.2309-75.7702-49.44-116.78-8.06-14-11.42-29.17-3.78-45.28 .2-.43 .17-.93-.1-1.32-.26-.4-.71-.62-1.18-.59z"/>
<path fill="url(#linearGradient3109)" d="m183.44,266.748c4.2,3.23 5.78,8.68 6.32,13.74 .42,2.24 .08,4.5 .12,6.75 .01,1.65 .94,3.92 2.98,3.49 1.43-.38 2.65-1.34 3.85-2.18 3.06-2.44 5.28-6.21 9.24-7.33 3.28-.63 6.89-.67 9.62-2.86 1.86-1.33 1.39-4.29-.82-4.95-2.28-1.01-4.89-1.36-6.83-3.05-4.98-3.4-8.09-8.84-10.2-14.36-1.15-2.02-4.19-1.46-5.33,.28-2.69,3.14-3.55,7.8-7.4,9.91-.49,.26-1.01,.45-1.55,.56z"/>
<path fill="url(#radialGradient3106)" d="m213.6073,88.113c41.5987,59.7807 33.6234,137.3414-17.804,173.1271-51.4214,35.7815-126.9199,16.3059-168.5186-43.4748-41.5987-59.7807-33.6234-137.3414 17.798-173.1229 51.4274-35.7857 126.9259-16.31 168.5246,43.4706z"/>
</g>
</g>
</svg>
