<svg xmlns="http://www.w3.org/2000/svg" viewBox="0 0 595.28 841.89" xmlns:xlink="http://www.w3.org/1999/xlink" enable-background="new 0 0 595.28 841.89">
<path fill="#bf0411" d="m420.02,297.6c0,85.241-62.653,154.34-139.95,154.34-77.292,0-139.95-69.099-139.95-154.34s62.658-154.34 139.95-154.34c77.29,0 139.95,69.1 139.95,154.34z"/>
<path fill="#fff" stroke="#a2a1a6" d="m332.97,462.29c-14.951,1.487-41.366,51.341-36.056,65.483 5.309,14.138 41.742,10.418 54.73,30.504 12.981,20.094-19.308,55.813 0,71.442 19.309,15.627 73.814,.742 67.492,26.042-6.318,25.299-66.356,41.671-54.511,61.764 11.851,20.093 77.423-2.976 79.002,21.581" stroke-miterlimit="10"/>
<path fill="#bf0411" d="m312.17,465.02c4.224-6.823 45.286,8.532 50.717,6.257 5.433-2.278-15.096-32.422-21.732-34.13-6.643-1.705-53.744,13.088-57.97,17.068-4.226,3.981-14.49,30.144-8.453,32.984 6.037,2.848 53.138-11.939 53.138-11.939"/>
<path fill="#eccfd3" d="m391.58,273.28c4.168-11.076-43.11-32.969-55.824-11.061 19.773,21.088 18.781,105.76 17.331,128.89 28.12-16.42 34.31-106.75 38.49-117.83z"/>
<g fill="none" stroke="#a2a1a6" stroke-miterlimit="10">
<path d="m283.18,454.21c8.336,3.356 48.02-10.49 57.97-17.068"/>
<path d="m280.06,451.42c8.335,3.355 54.961-10.491 64.908-17.069"/>
</g>
<path fill="#eccfd3" d="m185.14,205.73c-.047-4.789 21.28-7.299 23.075,2.741-10.603,5.647-22.196,38.414-24.902,47.505-8.53-9.86 1.86-45.45 1.82-50.25z"/>
</svg>
