<svg xmlns="http://www.w3.org/2000/svg" viewBox="0 0 436 262">
<g transform="translate(50.469 568.99)">
<path fill="#d7dbd3" d="m167.53-568.99c36.365,0 66.892,12.744 75.531,30h42.469v25h100v152h-100v25h-42.469c-8.6391,17.256-39.166,30-75.531,30s-66.892-12.744-75.531-30h-42.469v-25h-100v-152h100v-25h42.469c8.6391-17.256 39.166-30 75.531-30z"/>
<path fill="#feedcf" d="m167.53-558.96c-37.555,0-68,13.412-68,29.969h-40v25h-100v132h100v25h40c0,16.557 30.445,29.969 68,29.969s68-13.412 68-29.969h40v-25h100v-132h-100v-25h-40c0-16.557-30.445-29.969-68-29.969z"/>
<path fill="#bf8b64" d="m218,21c-31.11,0-56.67,11.843-59.69,27h-40.31v25h-100v116h100v25h40.31c3.02,15.16 28.58,27 59.69,27s56.67-11.84 59.69-27h40.31v-25h100v-116h-100v-25h-40.31c-3.02-15.157-28.58-27-59.69-27zm0,3c31.48,0 57,12.088 57,27h40v25h100v110h-100v25h-40c0,14.91-25.52,27-57,27s-57-12.09-57-27h-40v-25h-100v-110h100v-25h40c0-14.912 25.52-27 57-27z" transform="translate(-50.469 -568.99)"/>
<path fill="#945d34" d="m218,0c-36.37,0-66.89,12.744-75.53,30h-42.47v25h-100v152h100v25h42.47c8.64,17.26 39.16,30 75.53,30s66.89-12.74 75.53-30h42.47v-25h100v-152h-100v-25h-42.47c-8.64-17.256-39.16-30-75.53-30zm0,10.031c37.56,0 68,13.412 68,29.969h40v25h100v132h-100v25h-40c0,16.56-30.44,29.97-68,29.97s-68-13.41-68-29.97h-40v-25h-100v-132h100v-25h40c0-16.557 30.44-29.969 68-29.969z" transform="translate(-50.469 -568.99)"/>
<path fill="#e3c299" d="m218,41l-30,10 30,10 30-10-30-10zm0,1l27,9h-27v9l-27-9h27v-9z" transform="translate(-50.469 -568.99)"/>
</g>
<g fill="#e3c299" transform="translate(50.469 568.99)">
<path d="m162.06-540.83c-.3437,.0167-.6877,.0431-1.0312,.0625l2.6562,9.8438c.3123-.1047 .6252-.2078 .9375-.3125l-2.5625-9.5938z"/>
<path d="m173-540.77-2.6562,9.875c.3236,.0787 .6455,.1684 .9688,.25l2.69-10.09c-.3339-.02-.667-.0131-1-.0312z"/>
<path d="m147.5-539.21c-.3864,.0712-.7709,.1426-1.1562,.2188l10.375,10.375c.3437-.1148 .6876-.2289 1.0312-.3438l-10.25-10.25z"/>
<path d="m187.56-539.21-10.188,10.219c.3431,.1033 .6885,.207 1.0312,.3125l10.35-10.34c-.3938-.0726-.7924-.12-1.1875-.1875z"/>
<path d="m123.84-530.74c-.3745,.2418-.7619,.4942-1.125,.75l21.156,5.6562c.5813-.1936 1.1687-.3688 1.75-.5625l-21.781-5.8438z"/>
<path d="m210.91-530.61-21.25,5.6875c.5419,.19 1.0832,.3717 1.625,.5625l20.688-5.5312c-.3486-.2497-.7072-.4802-1.0625-.7188z"/>
<path d="m142.12-512.21-67.594,18.125v1.0312l69.25-18.562c-.5528-.195-1.1035-.3983-1.6562-.5938z"/>
<path d="m192.84-512.21c-.5717,.191-1.147,.3715-1.7188,.5625l69.406,18.625v-1.0625l-67.688-18.125z"/>
<path d="m184.34-509.36c-.4375,.1459-.875,.2916-1.3125,.4375l177.5,102.47v-1.1875l-176.19-101.72z"/>
<path d="m150.56-509.27-176.03,101.62v1.1875l177.34-102.41c-.4347-.1441-.8781-.2599-1.3125-.4062z"/>
<path d="m179.09-507.61c-.3438,.1145-.6875,.2293-1.0312,.3438l120.28,120.28h1.375l-120.62-120.62z"/>
<path d="m155.91-507.55-120.56,120.56h1.375l120.22-120.22c-.3454-.1049-.6862-.2367-1.0312-.3438z"/>
<path d="m159.94-506.36-83.344,144.38h1.1875l83.188-144.06c-.3458-.0948-.6859-.215-1.0312-.3125z"/>
<path d="m175.16-506.3c-.3313,.1102-.6687,.2023-1,.3125l83.156,144h1.1562l-83.312-144.31z"/>
<path d="m163.5-505.39-42.406,158.25c.2819,.2199 .5838,.4202 .875,.625l42.5-158.62c-.3231-.0787-.646-.1685-.9688-.25z"/>
<path d="m171.62-505.11c-.3126,.1039-.6249,.2086-.9375,.3125l42.406,158.25c.2937-.2208 .5606-.457 .8438-.6875l-42.312-157.88z"/>
<path d="m167.03-504.55v169.69c.335-.001 .6649-.0268 1-.0312v-169.44c-.3349-.0694-.6656-.1459-1-.2188z"/>
<path d="m55.531-488.99-81,21.719v1l84.844-22.719h-3.8438z"/>
<path d="m275.62-488.99 84.906,22.75v-1.0312l-81-21.719h-3.9062z"/>
</g>
</svg>
