<svg xmlns="http://www.w3.org/2000/svg" viewBox="0 0 782.81 688.75">
<path fill="#9e9ca0" d="m369.13,688.58c-28.44-1.69-59.51-5.85-66.96-8.96-2.85-1.19-18.66-1.37-123.68-1.37h-120.41l.28-3.4 .283-3.41 120.02-.46c109.29-.41 120.29-.59 123.19-1.96 3.22-1.53 11.27-3.74 17.5-4.81 2.47-.42 3.41-1.04 3.41-2.22 0-.91 5.07-22.06 11.27-47.01 6.19-24.96 13.76-55.6 16.83-68.1 3.06-12.5 5.81-23.65 6.12-24.78l.54-2.04h-129.31v-16.37h-228.21v-503.69h391.41 391.4v503.69h-204.57v16.37h-130.22l.46,2.04c.25,1.13 7.63,31.13 16.4,66.67s16.45,67.07 17.07,70.05l1.12,5.44 5.87,1.11c3.23,.61 8.17,2.01 10.99,3.11l5.12,1.99 119.56,.48 119.56,.49 .28,3.41 .29,3.4h-120.13c-82.87,0-120.69,.3-121.93,.97-3.68,1.97-24.21,5.45-42.89,7.28-14.49,1.42-27.43,1.95-52.02,2.16-18,.15-35.39,.11-38.64-.08zm5.25-29.1l18.42-.6-.24-20.09-.25-20.09-5.9-.21c-3.26-.12-10.72-.9-16.6-1.74s-10.84-1.35-11.02-1.15c-.18,.21-2.67,9.97-5.54,21.69-2.88,11.73-5.45,21.92-5.73,22.64-.42,1.09 .28,1.22 3.96,.74 2.46-.32 12.76-.86 22.9-1.19zm78.09-21c-3.01-12.38-5.59-22.67-5.74-22.86-.15-.2-4.68,.32-10.07,1.14s-12.15,1.5-15.02,1.49h-5.23v40.91l8.86,.09c4.88,.05 12.35,.4 16.6,.77s9.6,.74 11.9,.82l4.18,.14-5.48-22.5zm-59.7-32.62v-3.3l-10.23,.61c-5.62,.33-12.48,1.07-15.23,1.63l-5,1.02 3.64,.8c5.12,1.12 15.42,2.28 21.59,2.42l5.23,.12v-3.3zm40.69,1.36c4.12-.54 7.5-1.11 7.5-1.28 0-.6-9.79-2.12-17.05-2.65l-7.5-.54v6.58l4.77-.57c2.63-.31 8.15-1.01 12.28-1.54zm-58.25-12.59c3.6-.51 9.02-.93 12.05-.93h5.51v-73.64h-10.67l-1.04,3.86c-2.59,9.64-17.38,70.35-17.38,71.35 0,.71 .9,.96 2.5,.7 1.37-.23 5.44-.83 9.03-1.34zm57.57-36.23c-5-20.58-9.1-37.62-9.1-37.88 0-.25-1.63-.46-3.63-.46h-3.64v73.64l4.32,.08c2.37,.04 8,.57 12.5,1.18s8.29,1.05 8.41,.98c.13-.07-3.86-16.96-8.86-37.54z"/>
<path fill="#a57f45" d="m399.28,685.86c-6.1-3.11-6.06-2.83-6.06-36.67v-30.49l-5.45-.21c-4.74-.18-8.9-.67-21.82-2.6-1.5-.22-3.8-.62-5.11-.89l-2.39-.48-6.61,27.09c-3.63,14.91-7.18,28.24-7.89,29.64-1.37,2.73-4.18,4.18-9.6,4.94-2.21,.32-3.41,.13-3.41-.54 0-.57-.59-1.03-1.31-1.03-1.94,0-5.97-5.72-6.55-9.27-.33-2.09 1.02-8.94 4.19-21.23 2.58-9.98 4.84-19.17 5.04-20.42 .19-1.25 3.4-14.34 7.12-29.09s8.7-35 11.05-45.01c2.36-10 4.86-19.99 5.56-22.21 .7-2.21 1.27-4.77 1.27-5.68 0-1.58-2.69-1.65-64.1-1.65-50.62,0-64.11-.24-64.18-1.14-.04-.63-.04-4.31 .02-8.18l.1-7.05h-229.15v-502.78l391.41-.0008h391.4v502.78h-205.48v16.37h-65c-35.76,0-65.01,.16-65.01,.35 0,.2 .77,2.96 1.71,6.14 1.98,6.72 2.92,10.49 13.29,53.06 4.26,17.5 8.96,36.52 10.44,42.27 9.49,36.71 10.99,46.42 7.75,50.01-2.18,2.4-6.55,4.55-9.28,4.55-5.52,0-11.31-6.11-12.59-13.3-.52-2.9-4.94-21.33-10.6-44.22-.79-3.2-1.44-4.22-2.48-3.93-1.33,.37-5.9,1.14-11.65,1.96-1.38,.19-5.88,.62-10,.96l-7.5,.61-.07,29.18c-.07,31.3-.41,34.02-4.62,37.16-3.26,2.43-8.75,2.87-12.44,1zm-5.76-80.26l.3-3.09-12.57,.57c-6.92,.31-14.21,1.04-16.21,1.62-3.51,1.01-3.56,1.08-1.39,1.89 3.25,1.21 13.91,2.26 22.3,2.18l7.27-.07 .3-3.1zm43.16,1.36c3.93-.81 5.09-1.33 3.82-1.72-3.65-1.12-13.77-2.43-18.86-2.44l-5.23-.01v6.6l7.32-.64c4.02-.35 9.85-1.16 12.95-1.79zm-61.96-11.92c.86-.17 5.12-.54 9.46-.83 4.34-.3 8.25-.76 8.7-1.03 .44-.27 .8-16.8 .8-36.81v-36.31h-5.81c-4.01,0-5.96,.37-6.28,1.21-.35,.92-6.71,26.08-9.34,36.97-.18,.75-1.15,4.64-2.15,8.64-.99,4-2.88,11.73-4.2,17.18-1.31,5.44-2.62,10.51-2.9,11.26-.44,1.15 .28,1.25 4.82,.69 2.94-.37 6.04-.81 6.9-.97zm66.05-5.34c-2.3-9.06-6.16-25.11-6.69-27.82-.25-1.25-.68-2.89-.96-3.64s-.7-2.38-.94-3.63c-.46-2.44-6.08-25.32-7.63-31.08-.89-3.28-1.14-3.47-4.54-3.47h-3.6v36.82c0,28.81 .25,36.83 1.13,36.89 .63,.03 1.96,.2 2.96,.36s5.05,.54 9,.83 7.37,.71 7.59,.93c.22,.23 1.51,.38 2.86,.34l2.46-.07-1.64-6.46z"/>
<path fill="#46544c" d="m229.12,520.06v-16.37h-229.12v-502.78l391.41-.0008h391.4v502.78h-205.48v16.37h-348.21zm344.58-12.73v-8.19h-340.95v16.37h340.95v-8.18zm-345.49-10.46v-2.27h350.03v4.54h200.03v-494.59l-386.86-.0041h-386.86l-.0041,247.3v247.29h223.66v-2.27zm-211.84-243.21v-237.3l375.94,.005h375.96v474.6h-751.89l-.005-237.3z"/>
<path fill="#050002" d="m402.32,686.47c-1-.37-2.65-.96-3.65-1.31-1.01-.35-2.54-1.88-3.41-3.39-1.42-2.46-1.58-5.95-1.58-33.14v-30.38h-5.52c-3.03,0-10.86-.83-17.39-1.85-6.54-1.01-12.06-1.68-12.26-1.47-.21,.21-3.4,12.46-7.09,27.24-3.69,14.77-7.35,27.85-8.15,29.06-3.68,5.61-12.43,5.77-17.05,.3-4.46-5.28-4.69-3.82 10.47-65.1 7.74-31.25 15.66-63.37 17.61-71.37l3.55-14.55-64.37-.23-64.36-.24v-16.35h-229.12v-502.78l391.41-.0008h391.4v502.78h-205.48v16.37h-130.22l.57,2.04c.31,1.13 5.91,23.53 12.44,49.78 23.55,94.68 23.49,94.39 20.33,98.9-3.41,4.87-11.85,6.1-16.02,2.33-3.22-2.92-4.27-6.09-10.74-32.25-3.48-14.08-6.46-25.74-6.62-25.9s-5.39,.51-11.61,1.49c-6.23,.98-13.04,1.78-15.14,1.79l-3.82,.01-.27,29.77c-.25,27.21-.43,30.07-2.01,33.14-2.15,4.16-7.98,6.76-11.9,5.31zm8.74-7.12c1.04-2.03 1.3-16.14 1.5-80.88l.25-78.41h-15.47l-.24,78.33c-.2,65.03-.03,78.78 1.01,80.92 2.39,4.92 10.42,4.94 12.95,.04zm-72.01-9.05c1.84-1.5 3.96-9.19 15.06-54.54 .42-1.7-.14-2.34-3.48-3.9-2.18-1.03-4.43-2.87-4.98-4.08-1.51-3.31 2.22-7.3 8.56-9.14 3.19-.93 4.92-1.92 4.92-2.82 0-.77 4.09-17.74 9.09-37.71 5-19.98 9.09-36.71 9.09-37.19s-3.42-.86-7.69-.86h-7.69l-.9,3.41c-1.78,6.76-4.63,18.24-8.29,33.41-2.05,8.5-8.82,36.02-15.05,61.15-10.92,44.11-11.26,45.8-9.98,48.88 1.99,4.77 7.61,6.44 11.34,3.39zm137.19-.26c3.64-3.39 4.05-1.25-15.37-79.98-4.01-16.25-9.36-37.73-11.89-47.73s-4.81-19.1-5.06-20.23c-.42-1.92-.9-2.04-8.14-2.04h-7.7l.62,2.95c.35,1.63 4.32,18.09 8.83,36.6 4.52,18.5 8.41,34.53 8.64,35.63 .29,1.35 1.36,2.19 3.29,2.61 4.37,.94 9.5,3.82 10.65,5.97 1.53,2.86-.62,6.16-5.35,8.19-2.98,1.27-3.81,2.07-3.44,3.28 .26,.88 .92,3.64 1.47,6.14 1.88,8.71 10.75,43.66 11.68,46.07 1.76,4.56 8.13,5.93 11.77,2.54zm-83.02-56.34c-.3-.5-3.7-.92-7.55-.92-7.02-.02-15.72-1.01-24.37-2.76-3.37-.68-4.89-1.49-5.56-2.96-.93-2.04 .32-4.27 2.39-4.27 .49,0 1.12-.36 1.39-.81 .78-1.26-7.02,.9-8.8,2.45-2.31,1.99-2.02,2.53 2.27,4.3 8.62,3.53 41.89,7.64 40.23,4.97zm41.65-.88c11.84-1.74 15.23-2.57 19.5-4.75 4.14-2.11 1.82-4.52-6.18-6.43-6.77-1.62-16.3-2.81-12.69-1.58 1.25,.42 3.78,1.02 5.62,1.32 1.84,.31 4.27,1.31 5.4,2.22l2.05,1.66-2.28,2.28c-2.54,2.55-8.57,3.9-21.93,4.91-4.37,.34-7.95,.96-7.95,1.39 0,1.21 5.25,.92 18.46-1.02zm-41.19-6.52v-3.77l-12.05,.51c-6.62,.27-14.3,1.01-17.05,1.64l-5,1.15 5.91,1.24c3.25,.68 10.82,1.57 16.82,1.98 6,.42 11.02,.81 11.14,.88 .13,.08 .23-1.56 .23-3.63zm43.96,.89c3.33-.65 4.86-1.3 4.09-1.73-1.77-.99-14.58-2.67-20.39-2.67h-4.93v6.63l7.95-.6c4.38-.33 10.36-1.06 13.28-1.63zm-7.14-8.04c-3.85-1.05-14.09-1.61-14.09-.77 0,.38 2.96,.84 6.59,1.01s7.41,.36 8.41,.41c1,.06 .59-.24-.91-.65zm-36.82-.95c0-.88-15.25-.3-16.29,.62-.21,.19 3.37,.34 7.95,.34 5.23,0 8.34-.36 8.34-.96zm-20.18-2.63c3.35-.48 9.26-1.13 13.13-1.45l7.05-.58v-73.48l-6.14,.01-6.14,.01-9,36.58c-4.95,20.12-9.36,37.3-9.8,38.18-.68,1.34-.37,1.59 2.01,1.59 1.54,0 5.55-.39 8.89-.86zm68.86-1.19c-.35-1.12-4.59-18.27-9.43-38.1l-8.79-36.06-3.87-.32-3.86-.31v74.03l2.95,.45c3.86,.58 17.69,2.05 21.02,2.22 2.3,.12 2.53-.1 1.98-1.91zm131.34-87.05v-9.09h-340.95v18.18h340.95v-9.09zm-344.75-10.23l.29-2.5h348.09v5.46l100.7-.23 100.69-.23 .23-247.53 .23-247.52-387.77-.0041h-387.77l-.0032,247.14c0,135.93 .2743,247.43 .6096,247.76 .3354,.34 50.966,.51 112.51,.38l111.9-.23 .29-2.5zm-212.58-243.44v-237.3l375.94,.005h375.96v474.6h-751.89l-.005-237.3zm748.04-.22l.22-233.43-371.34-.006c-260.69-.004-371.53,.281-371.94,.958-.333,.53-.665,105.68-.742,233.66l-.141,232.7 371.85-.22 371.86-.23 .23-233.43z"/>
</svg>
