<svg width="600" xmlns="http://www.w3.org/2000/svg" viewBox="0 0 600 600" height="600">
<defs>
<clipPath fill="none">
<path shape-rendering="crispEdges" stroke="#000" d="m0,0h841.89v1190.6h-841.89v-1190.6z"/>
</clipPath>
<filter id="filter3272">
<feGaussianBlur stdDeviation="2.31307"/>
</filter>
<filter id="filter3258">
<feGaussianBlur stdDeviation="2.5"/>
</filter>
</defs>
<path filter="url(#filter3258)" d="m304,54c-27.83,0-54.61,4.562-79.62,12.969-.09,.029-.2,.055-.29,.093-.08,.029-.16,.066-.25,.094-.49,.243-.99,.62-1.4,1.032-.59,.588-.99,1.288-1.22,2.031-10.74,34.151-31.6,65.371-58.6,92.371-26.99,27-58.21,47.83-92.37,58.57-.745,.23-1.411,.66-2,1.25-.55,.55-1.036,1.25-1.25,1.87-.003,.01 .003,.02 0,.03-8.421,25.03-13,51.83-13,79.69 0,138 112,250 250,250s250-112 250-250-112-250-250-250z"/>
<path fill="#d40000" d="m300,50c-27.83,0-54.61,4.562-79.62,12.969-.09,.029-.2,.055-.29,.093-.08,.029-.16,.066-.25,.094-.49,.243-.99,.62-1.4,1.032-.59,.588-.99,1.288-1.22,2.031-10.74,34.151-31.6,65.371-58.6,92.371-26.99,27-58.21,47.83-92.37,58.57-.745,.23-1.411,.66-2,1.25-.55,.55-1.036,1.25-1.25,1.87-.003,.01 .003,.02 0,.03-8.421,25.03-13,51.83-13,79.69 0,138 112,250 250,250s250-112 250-250-112-250-250-250z"/>
<path fill="#500" filter="url(#filter3272)" d="m66.237,220.4s154.2-154.21 154.2-154.21c-.59,.592-.99,1.288-1.23,2.031-10.74,34.159-27.59,69.359-54.59,96.359s-62.2,43.85-96.355,54.59c-.745,.23-1.439,.64-2.028,1.23z"/>
<path fill="#e9c6af" d="m64.237,218.4s154.2-154.21 154.2-154.21c-.59,.592-.99,1.288-1.23,2.031-10.74,34.159-31.59,65.359-58.59,92.359s-58.2,47.85-92.355,58.59c-.745,.23-1.439,.64-2.028,1.23z"/>
</svg>
