<svg width="744.0945" xmlns="http://www.w3.org/2000/svg" height="620.0787" viewBox="0 0 210 175" shape-rendering="geometricPrecision" xmlns:xlink="http://www.w3.org/1999/xlink" image-rendering="optimizeQuality" fill-rule="evenodd" text-rendering="geometricPrecision" clip-rule="evenodd">
<path fill="#7a897f" d="m137.503,68.9281c0,1.0489 .1115,2.0424 .3333,2.8703 6.6122-14.9572 19.6135-22.4635 39.0594-22.4635 7.5007,0 13.4454,.8278 17.8907,2.4288-15.168,23.2908-28.6142,34.9365-40.2261,34.9365-5.9448,0-8.89-2.4289-8.7783-7.2853 1.8334-2.3735 10.3894-8.224 25.5575-17.6065-9.4451,.1101-20.6686,5.1329-33.6698,15.012v.6623c0,4.747 1.7226,8.5552 5.1119,11.4248 3.4447,2.8148 7.5559,4.2501 12.4455,4.2501 11.0568,0 22.3911-7.4508 33.8922-22.298 2.7778-3.9738 5.6114-8.0023 8.445-11.9761 3.4445-4.526 7.0006-7.8929 10.5567-10.0454-13.6679-3.9738-23.9471-5.9607-30.8919-5.9607-11.2786,0-20.5019,2.1524-27.6693,6.4575-8.0565,4.8571-12.0568,11.3699-12.0568,19.5932z"/>
<g fill="#bc829a">
<path d="m86.7204,106.127c2.0559,2.429 5.4447,7.9476 10.2234,16.4474 3.722,6.4021 7.4448,10.8726 11.2785,13.4671 5.0563,3.5318 10.7786,5.2984 17.0574,5.2984 7.3891,0 13.0562-3.0358 17.1124-9.2175 3.5561-5.2984 5.3339-11.7559 5.3339-19.3724 0-5.2984-1.3893-10.7623-4.2228-16.3365-.9443,4.8571-4.1671,8.7755-9.6119,11.8112-4.7779,2.6492-9.8342,4.0287-15.2789,4.0287-7.9456,0-17.9466-3.146-30.1143-9.3825l-1.7777,3.2561z"/>
<path d="m92.2209,96.5794c0,3.7527 2.7778,6.7332 8.3341,8.8856 4.3338,1.601 8.7232,2.4289 13.1679,2.4289 9.6675,0 14.5013-3.4223 14.5013-10.211 0-4.5253-2.3894-6.7886-7.1673-6.7886-2.9445,0-5.5563,1.7666-7.8341,5.3539 1.7777-.4413 3.2228-.6623 4.3896-.6623 2.8335,0 4.2779,.9935 4.2779,2.9249 0,2.1526-2.9445,3.2014-8.8342,3.2014-9.2233,0-13.8346-1.8214-13.8346-5.464 0-3.6981 2.056-6.844 6.1114-9.548 4.112-2.7046 8.0008-4.0292 11.8345-4.0292 10.501,0 15.8906,4.4151 16.1131,13.246 2.0552-3.0357 3.0553-5.5193 3.0553-7.4509 0-3.5325-1.9444-6.4575-5.8339-8.6654-3.8888-2.2072-8.3892-3.3114-13.5012-3.3114-5.6672,0-11.0561,1.9868-16.2791,5.8505-5.6672,4.1948-8.5007,8.9411-8.5007,14.2396z"/>
</g>
<path fill="#7a897f" d="m27.1592,173.682c3.2227-2.5938 7.6121-4.6909 13.1678-6.2919 4.7787-1.3246 9.5566-2.5938 14.3346-3.8629 22.6688-7.1199 34.0031-17.6066 34.0031-31.4048 0-7.4508-3.6112-12.2525-10.8894-14.5153-13.8903,8.8309-22.5021,17.4957-25.7248,25.9955 4.1113-3.3115 8.1675-6.6231 12.2236-9.8792 5.1671-4.0846 9.6118-6.7338 13.3346-7.8929 2.8887,.9935 4.3888,3.3116 4.3888,6.9543 0,11.6456-15.1123,21.3593-45.2818,29.0865l-2.111,.4968c0-6.7887 1.8335-14.0192 5.3889-21.7459 3.5561-7.7266 7.9456-13.6326 13.1127-17.7166 5.1673-4.0839 11.723-6.4575 19.7795-7.1197-2.2778-1.4902-5.1113-2.2628-8.5008-2.2628-8.0007,0-15.2238,3.6427-21.6129,10.8727-5.5562,6.1262-9.4457,13.467-11.7235,21.9661-1.7226,6.4576-3.0561,15.5642-3.8894,27.3201z"/>
<path fill="#ef9ba0" d="m77.2752,47.4033c0,7.782 1.7221,14.2395 5.2223,19.4278 4.112,6.1263 9.8343,9.2169 17.224,9.2169 1.4444,0 2.7779-.1102 4.0562-.3312 9.1117-1.5456 16.2232-6.0709 21.3353-13.5772 4.4446-7.1198 8.8893-14.295 13.3346-21.5249l-1.9451-3.0905c-12.3344,6.2919-22.3905,9.3824-30.1136,9.3824-5.2781,0-10.3901-1.3246-15.279-4.0292-5.4454-3.0351-8.6124-6.9542-9.6124-11.8107-2.8337,5.6296-4.2223,11.0382-4.2223,16.3366z"/>
<path fill="#f19abe" d="m34.938,110.763l2.4445,2.7599c8.3898-1.7111 16.6683-3.3669 24.8914-5.0226 8.7226-2.0423 15.3898-7.1197 20.0569-15.3432 1.9451-3.4223 2.8894-6.9541 2.8894-10.4866 0-7.7821-3.7227-14.1293-11.2235-19.0966-6.6114-4.3051-14.0012-6.4575-22.1128-6.4575-1.7226,0-3.1112,.0554-4.0562,.1656 5.3896,3.3114 8.1123,9.7142 8.1123,19.0412 0,10.3765-7.0007,21.856-21.002,34.4398z"/>
<path fill="#ef9ba0" d="m88.4981,22.3459c0,2.1525 1.1667,4.9126 3.4451,8.224 0-8.7207 5.3339-13.0804 16.1124-13.0804 4.5563,0 8.6675,1.3246 12.3345,4.0286 3.7228,2.7046 5.5564,5.8506 5.5564,9.3831 0,3.5872-4.723,5.3531-14.168,5.3531-5.7788,0-8.6124-1.1036-8.6124-3.2561 0-1.8213 1.445-2.7594 4.3895-2.7594 1.1668,0 2.6669,.2204 4.3895,.6624-2.3893-3.4225-5.0562-5.1884-8.0008-5.1884-4.7786,0-7.1673,2.2627-7.1673,6.6785 0,6.7886 4.8338,10.1549 14.5014,10.1549 4.4446,0 8.8342-.8278 13.1678-2.5938 5.6673-2.1525 8.5008-5.0774 8.5008-8.8857 0-5.0781-2.6669-9.6588-8.0006-13.7428-5.2788-4.0847-10.946-6.1263-16.8908-6.1263-4.0561,0-8.0006,.7725-11.8901,2.4282-5.1114,2.1526-7.6674,5.0775-7.6674,8.7201z"/>
<path fill="#f19abe" d="m18.4917,83.0021c0,5.0227 1.3892,9.9346 4.1119,14.6808 2.7778,5.1883 6.0557,7.7821 9.7227,7.7821 4.2228,0 8.3341-2.9804 12.2236-8.8856 3.5003-5.5195 5.2229-10.5415 5.2229-15.0675 0-6.5676-2.7227-9.8791-8.1675-9.8791-4.6671,0-7.0006,2.318-7.0006,6.9542 0,2.3728 .8334,4.6908 2.4445,6.9541 .6667-5.0227 2.1111-7.5617 4.3895-7.5617 1.5552,0 2.2777,.9387 2.2777,2.8703 0,2.9249-1.0558,6.5128-3.2227,10.707-2.3887,4.7469-4.8889,7.1197-7.5007,7.1197-2.1668,0-4.1113-1.8761-5.8338-5.6844-1.5553-3.4223-2.2778-6.7338-2.2778-9.8797 0-4.4151 1.2776-8.3336 3.8894-11.8661 2.6112-3.4771 5.6114-5.243 9.1117-5.243 2.2778,0 4.2228,.2757 5.8339,.8279-3.1112-4.3604-6.0564-6.5129-8.7784-6.5129-3.667,0-7.334,2.4836-11.001,7.3955-3.6118,4.9125-5.4453,9.99-5.4453,15.2884z"/>
<path fill="#7a897f" d="m1.8793,4.7401c3.3894,2.4837 6.6114,6.1263 9.6117,10.9828 2.3893,4.1948 4.8338,8.3896 7.334,12.5838 10.8344,16.834 22.2245,25.2229 34.0032,25.2229 10.8901,0 16.4464-4.9118 16.7797-14.8464-12.1678-10.9834-22.8354-16.9996-32.0587-17.9377 10.8343,7.0097 18.7793,13.6327 23.7797,19.8692-.3333,4.3049-3.0553,6.4574-8.1674,6.4574-11.501,0-24.2239-12.7493-38.2253-38.3034 3.1112-.7724 6.4449-1.159 9.9452-1.159 24.0579,0 39.1144,8.7207 45.0598,26.0509 .4443-1.1591 .6668-2.5392 .6668-4.0293 0-9.1614-4.7786-16.3921-14.3347-21.6905-7.9456-4.4151-16.8906-6.623-26.8357-6.623-6.834,0-16.0573,1.159-27.5583,3.4223z"/>
</svg>
