<?xml version="1.0" encoding="UTF-8" standalone="no"?>
<!-- Created with Serif DrawPlus 11, 0, 0, 18 (Mar 20, 15:09:53) (http://www.serif.com) -->
<svg version="1.1" xmlns="http://www.w3.org/2000/svg" xmlns:xlink="http://www.w3.org/1999/xlink" width="816" height="1056">
	<defs>
		<radialGradient id="grad_dp_001" gradientUnits="userSpaceOnUse" cx="112.577" cy="499.878" gradientTransform="matrix(8.95961,-1.26087,1.61116,11.4487,-1701.46,-5081.13)" r="1">
			<stop offset="0" stop-color="white"/>
			<stop offset="1" stop-color="white" stop-opacity="0"/>
		</radialGradient>
		<radialGradient id="grad_dp_002" gradientUnits="userSpaceOnUse" cx="112.284" cy="482.19" gradientTransform="matrix(5.09467,0,0,10.5791,-459.767,-4618.95)" r="1">
			<stop offset="0" stop-color="white"/>
			<stop offset="1" stop-color="white" stop-opacity="0"/>
		</radialGradient>
		<radialGradient id="grad_dp_003" gradientUnits="userSpaceOnUse" cx="111.994" cy="466.165" gradientTransform="matrix(5.09467,0,0,10.5791,-458.58,-4465.44)" r="1">
			<stop offset="0" stop-color="white"/>
			<stop offset="1" stop-color="white" stop-opacity="0"/>
		</radialGradient>
		<radialGradient id="grad_dp_004" gradientUnits="userSpaceOnUse" cx="111.994" cy="452.335" gradientTransform="matrix(5.09467,0,0,10.5791,-458.58,-4332.96)" r="1">
			<stop offset="0" stop-color="white"/>
			<stop offset="1" stop-color="white" stop-opacity="0"/>
		</radialGradient>
		<radialGradient id="grad_dp_005" gradientUnits="userSpaceOnUse" cx="111.994" cy="438.661" gradientTransform="matrix(5.09467,0,0,10.5791,-458.58,-4201.98)" r="1">
			<stop offset="0" stop-color="white"/>
			<stop offset="1" stop-color="white" stop-opacity="0"/>
		</radialGradient>
		<radialGradient id="grad_dp_006" gradientUnits="userSpaceOnUse" cx="732.613" cy="499.875" gradientTransform="matrix(8.95961,-1.26087,1.61116,11.4487,-6636.69,-4299.31)" r="1">
			<stop offset="0" stop-color="white"/>
			<stop offset="1" stop-color="white" stop-opacity="0"/>
		</radialGradient>
		<radialGradient id="grad_dp_007" gradientUnits="userSpaceOnUse" cx="732.326" cy="482.19" gradientTransform="matrix(5.09467,0,0,10.5791,-2998.63,-4618.95)" r="1">
			<stop offset="0" stop-color="white"/>
			<stop offset="1" stop-color="white" stop-opacity="0"/>
		</radialGradient>
		<radialGradient id="grad_dp_008" gradientUnits="userSpaceOnUse" cx="732.035" cy="466.165" gradientTransform="matrix(5.09467,0,0,10.5791,-2997.44,-4465.44)" r="1">
			<stop offset="0" stop-color="white"/>
			<stop offset="1" stop-color="white" stop-opacity="0"/>
		</radialGradient>
		<radialGradient id="grad_dp_009" gradientUnits="userSpaceOnUse" cx="732.035" cy="452.335" gradientTransform="matrix(5.09467,0,0,10.5791,-2997.44,-4332.96)" r="1">
			<stop offset="0" stop-color="white"/>
			<stop offset="1" stop-color="white" stop-opacity="0"/>
		</radialGradient>
		<radialGradient id="grad_dp_010" gradientUnits="userSpaceOnUse" cx="732.035" cy="438.661" gradientTransform="matrix(5.09467,0,0,10.5791,-2997.44,-4201.98)" r="1">
			<stop offset="0" stop-color="white"/>
			<stop offset="1" stop-color="white" stop-opacity="0"/>
		</radialGradient>
		<linearGradient id="grad_dp_011" gradientUnits="userSpaceOnUse" x1="651.527" y1="399.297" x2="600.688" y2="730.929">
			<stop offset="0" stop-color="#f8d79a" stop-opacity="0.517647"/>
			<stop offset="1" stop-color="#f8d79a" stop-opacity="0"/>
		</linearGradient>
		<radialGradient id="grad_dp_012" gradientUnits="userSpaceOnUse" cx="697.116" cy="482.362" gradientTransform="matrix(231.928,-15.3007,1.78865,27.1124,-161846,-1929.26)" r="1">
			<stop offset="0" stop-color="#f8d79a" stop-opacity="0.254902"/>
			<stop offset="1" stop-color="#f8d79a" stop-opacity="0"/>
		</radialGradient>
		<linearGradient id="grad_dp_013" gradientUnits="userSpaceOnUse" x1="59.6013" y1="651.077" x2="90.5" y2="590.995">
			<stop offset="0" stop-color="#aa4400"/>
			<stop offset="1" stop-color="#aa4400" stop-opacity="0"/>
		</linearGradient>
		<linearGradient id="grad_dp_014" gradientUnits="userSpaceOnUse" x1="658.611" y1="700.619" x2="649.109" y2="594.235">
			<stop offset="0" stop-color="#aa4400"/>
			<stop offset="1" stop-color="#aa4400" stop-opacity="0"/>
		</linearGradient>
		<linearGradient id="grad_dp_015" gradientUnits="userSpaceOnUse" x1="49.552" y1="446.835" x2="193.213" y2="446.835">
			<stop offset="0" stop-color="#803300"/>
			<stop offset="1" stop-color="#803300" stop-opacity="0"/>
		</linearGradient>
	</defs>
	<g id="Layer_1">
		<g id="dp_group001">
			<path id="dp_path002" fill="none" fill-rule="evenodd" stroke="black" stroke-width="3.328" d="M 110.283,431.811 C 110.283,431.811 110.283,431.811 110.283,431.811 C 112.163,431.811 113.709,434.224 113.709,437.159 C 113.709,437.159 113.709,437.159 113.709,437.159 L 113.709,444.276 C 113.709,444.276 113.709,444.276 113.709,444.276 C 113.709,447.209 112.163,449.624 110.283,449.624 C 110.283,449.624 110.283,449.624 110.283,449.624 C 110.283,449.624 110.283,449.624 110.283,449.624 C 108.404,449.624 106.857,447.209 106.857,444.276 C 106.857,444.276 106.857,444.276 106.857,444.276 L 106.857,437.159 C 106.857,437.159 106.857,437.159 106.857,437.159 C 106.857,434.224 108.404,431.811 110.283,431.811 C 110.283,431.811 110.283,431.811 110.283,431.811"/>
			<path id="dp_path003" fill="none" fill-rule="evenodd" stroke="black" stroke-width="3.328" d="M 118.671,500.964 C 118.671,493.185 115.007,486.88 110.487,486.88 C 105.968,486.88 102.303,493.185 102.303,500.964 C 102.303,501.065 102.304,501.168 102.305,501.269"/>
			<path id="dp_path004" fill="none" fill-rule="evenodd" stroke="black" stroke-width="3.328" d="M 110.283,472.696 C 110.283,472.696 110.283,472.696 110.283,472.696 C 112.163,472.696 113.709,475.109 113.709,478.044 C 113.709,478.044 113.709,478.044 113.709,478.044 L 113.709,485.161 C 113.709,485.161 113.709,485.161 113.709,485.161 C 113.709,488.095 112.163,490.509 110.283,490.509 C 110.283,490.509 110.283,490.509 110.283,490.509 C 110.283,490.509 110.283,490.509 110.283,490.509 C 108.404,490.509 106.857,488.095 106.857,485.161 C 106.857,485.161 106.857,485.161 106.857,485.161 L 106.857,478.044 C 106.857,478.044 106.857,478.044 106.857,478.044 C 106.857,475.109 108.404,472.696 110.283,472.696 C 110.283,472.696 110.283,472.696 110.283,472.696"/>
			<path id="dp_path005" fill="none" fill-rule="evenodd" stroke="black" stroke-width="3.328" d="M 118.671,500.964 C 118.671,493.185 115.007,486.88 110.487,486.88 C 105.968,486.88 102.303,493.185 102.303,500.964 C 102.303,501.065 102.304,501.168 102.305,501.269"/>
			<path id="dp_path006" fill="none" fill-rule="evenodd" stroke="url(#grad_dp_001)" stroke-width="3.328" d="M 118.671,500.964 C 118.671,493.185 115.007,486.88 110.487,486.88 C 105.968,486.88 102.303,493.185 102.303,500.964 C 102.303,501.065 102.304,501.168 102.305,501.269"/>
			<path id="dp_path007" fill="black" fill-rule="evenodd" d="M 110.301,471.015 C 108.655,471.015 107.281,472.063 106.453,473.355 C 105.627,474.647 105.205,476.267 105.205,478.035 L 105.205,485.159 C 105.205,485.811 105.292,486.431 105.413,487.031 C 105.613,486.889 105.849,486.719 106.037,486.563 C 106.309,486.355 106.577,486.167 106.869,485.991 C 107.175,485.816 107.461,485.649 107.805,485.575 C 108.045,485.513 108.293,485.476 108.533,485.419 C 108.531,485.329 108.533,485.248 108.533,485.159 L 108.533,478.035 C 108.533,476.839 108.851,475.816 109.261,475.175 C 109.672,474.533 110.049,474.343 110.301,474.343 S 110.879,474.533 111.289,475.175 S 112.069,476.839 112.069,478.035 L 112.069,485.159 C 112.069,486.353 111.7,487.428 111.289,488.071 C 110.879,488.712 110.553,488.851 110.301,488.851 C 110.112,488.851 109.864,488.796 109.573,488.487 C 109.395,488.624 109.235,488.767 109.053,488.903 C 108.808,489.105 108.588,489.292 108.325,489.475 C 108.084,489.655 107.832,489.856 107.597,490.047 C 107.404,490.216 107.224,490.403 107.025,490.567 C 107.855,491.504 108.976,492.179 110.301,492.179 C 111.948,492.179 113.269,491.129 114.097,489.839 C 114.924,488.547 115.397,486.925 115.397,485.159 L 115.397,478.035 C 115.397,476.268 114.924,474.647 114.097,473.355 C 113.269,472.064 111.948,471.016 110.301,471.016 Z "/>
			<path id="dp_path008" fill="none" fill-rule="evenodd" stroke="black" stroke-width="3.328" stroke-linejoin="round" stroke-linecap="round" d="M 110.283,459.313 C 110.283,459.313 110.283,459.313 110.283,459.313 C 112.163,459.313 113.709,461.727 113.709,464.661 C 113.709,464.661 113.709,464.661 113.709,464.661 L 113.709,471.779 C 113.709,471.779 113.709,471.779 113.709,471.779 C 113.709,474.712 112.163,477.127 110.283,477.127 C 110.283,477.127 110.283,477.127 110.283,477.127 C 110.283,477.127 110.283,477.127 110.283,477.127 C 108.404,477.127 106.857,474.712 106.857,471.779 C 106.857,471.779 106.857,471.779 106.857,471.779 L 106.857,464.661 C 106.857,464.661 106.857,464.661 106.857,464.661 C 106.857,461.727 108.404,459.313 110.283,459.313 C 110.283,459.313 110.283,459.313 110.283,459.313"/>
			<path id="dp_path009" fill="url(#grad_dp_002)" fill-rule="evenodd" d="M 110.301,471.015 C 108.655,471.015 107.281,472.063 106.453,473.355 C 105.627,474.647 105.205,476.267 105.205,478.035 L 105.205,485.159 C 105.205,485.811 105.292,486.431 105.413,487.031 C 105.613,486.889 105.849,486.719 106.037,486.563 C 106.309,486.355 106.577,486.167 106.869,485.991 C 107.175,485.816 107.461,485.649 107.805,485.575 C 108.045,485.513 108.293,485.476 108.533,485.419 C 108.531,485.329 108.533,485.248 108.533,485.159 L 108.533,478.035 C 108.533,476.839 108.851,475.816 109.261,475.175 C 109.672,474.533 110.049,474.343 110.301,474.343 S 110.879,474.533 111.289,475.175 S 112.069,476.839 112.069,478.035 L 112.069,485.159 C 112.069,486.353 111.7,487.428 111.289,488.071 C 110.879,488.712 110.553,488.851 110.301,488.851 C 110.112,488.851 109.864,488.796 109.573,488.487 C 109.395,488.624 109.235,488.767 109.053,488.903 C 108.808,489.105 108.588,489.292 108.325,489.475 C 108.084,489.655 107.832,489.856 107.597,490.047 C 107.404,490.216 107.224,490.403 107.025,490.567 C 107.855,491.504 108.976,492.179 110.301,492.179 C 111.948,492.179 113.269,491.129 114.097,489.839 C 114.924,488.547 115.397,486.925 115.397,485.159 L 115.397,478.035 C 115.397,476.268 114.924,474.647 114.097,473.355 C 113.269,472.064 111.948,471.016 110.301,471.016 Z "/>
			<path id="dp_path010" fill="none" fill-rule="evenodd" stroke="black" stroke-width="3.328" stroke-linejoin="round" stroke-linecap="round" d="M 110.283,445.488 C 110.283,445.488 110.283,445.488 110.283,445.488 C 112.163,445.488 113.709,447.903 113.709,450.836 C 113.709,450.836 113.709,450.836 113.709,450.836 L 113.709,457.953 C 113.709,457.953 113.709,457.953 113.709,457.953 C 113.709,460.888 112.163,463.301 110.283,463.301 C 110.283,463.301 110.283,463.301 110.283,463.301 C 110.283,463.301 110.283,463.301 110.283,463.301 C 108.404,463.301 106.857,460.888 106.857,457.953 C 106.857,457.953 106.857,457.953 106.857,457.953 L 106.857,450.836 C 106.857,450.836 106.857,450.836 106.857,450.836 C 106.857,447.903 108.404,445.488 110.283,445.488 C 110.283,445.488 110.283,445.488 110.283,445.488"/>
			<path id="dp_path011" fill="black" fill-rule="evenodd" d="M 110.301,457.631 C 108.655,457.631 107.281,458.679 106.453,459.971 C 105.627,461.263 105.205,462.883 105.205,464.651 L 105.205,471.773 C 105.205,472.427 105.344,473.931 105.673,474.737 C 106.569,473.084 107.467,471.991 108.533,471.617 L 108.533,464.649 C 108.533,463.455 108.851,462.432 109.261,461.791 C 109.672,461.148 110.049,460.959 110.301,460.959 S 110.879,461.148 111.289,461.791 S 112.069,463.455 112.069,464.649 L 112.069,471.773 C 112.069,472.969 111.7,474.044 111.289,474.685 C 110.879,475.327 110.553,475.465 110.301,475.465 C 110.112,475.465 109.864,475.411 109.573,475.101 C 108.644,475.555 108.801,476.684 108.377,478.117 C 109.207,479.056 108.976,478.793 110.301,478.793 C 111.948,478.793 113.269,477.745 114.097,476.453 C 114.924,475.161 115.397,473.541 115.397,471.773 L 115.397,464.649 C 115.397,462.883 114.924,461.263 114.097,459.971 C 113.269,458.679 111.947,457.631 110.301,457.631 Z "/>
			<path id="dp_path012" fill="url(#grad_dp_003)" fill-rule="evenodd" d="M 110.301,457.631 C 108.655,457.631 107.281,458.679 106.453,459.971 C 105.627,461.263 105.205,462.883 105.205,464.651 L 105.205,471.773 C 105.205,472.427 105.344,473.931 105.673,474.737 C 106.569,473.084 107.467,471.991 108.533,471.617 L 108.533,464.649 C 108.533,463.455 108.851,462.432 109.261,461.791 C 109.672,461.148 110.049,460.959 110.301,460.959 S 110.879,461.148 111.289,461.791 S 112.069,463.455 112.069,464.649 L 112.069,471.773 C 112.069,472.969 111.7,474.044 111.289,474.685 C 110.879,475.327 110.553,475.465 110.301,475.465 C 110.112,475.465 109.864,475.411 109.573,475.101 C 108.644,475.555 108.801,476.684 108.377,478.117 C 109.207,479.056 108.976,478.793 110.301,478.793 C 111.948,478.793 113.269,477.745 114.097,476.453 C 114.924,475.161 115.397,473.541 115.397,471.773 L 115.397,464.649 C 115.397,462.883 114.924,461.263 114.097,459.971 C 113.269,458.679 111.947,457.631 110.301,457.631 Z "/>
			<path id="dp_path013" fill="black" fill-rule="evenodd" d="M 110.301,443.807 C 108.655,443.807 107.281,444.855 106.453,446.147 C 105.627,447.439 105.205,449.059 105.205,450.827 L 105.205,457.949 C 105.205,458.603 105.344,460.107 105.673,460.913 C 106.569,459.26 107.467,458.167 108.533,457.793 L 108.533,450.827 C 108.533,449.631 108.851,448.608 109.261,447.967 C 109.672,447.324 110.049,447.135 110.301,447.135 S 110.879,447.324 111.289,447.967 S 112.069,449.631 112.069,450.827 L 112.069,457.949 C 112.069,459.145 111.7,460.22 111.289,460.861 C 110.879,461.503 110.553,461.641 110.301,461.641 C 110.112,461.641 109.864,461.587 109.573,461.277 C 108.644,461.731 108.801,462.86 108.377,464.293 C 109.207,465.232 108.976,464.969 110.301,464.969 C 111.948,464.969 113.269,463.921 114.097,462.629 C 114.924,461.337 115.397,459.717 115.397,457.949 L 115.397,450.827 C 115.397,449.059 114.924,447.439 114.097,446.147 C 113.269,444.855 111.947,443.807 110.301,443.807 Z "/>
			<path id="dp_path014" fill="url(#grad_dp_004)" fill-rule="evenodd" d="M 110.301,443.807 C 108.655,443.807 107.281,444.855 106.453,446.147 C 105.627,447.439 105.205,449.059 105.205,450.827 L 105.205,457.949 C 105.205,458.603 105.344,460.107 105.673,460.913 C 106.569,459.26 107.467,458.167 108.533,457.793 L 108.533,450.827 C 108.533,449.631 108.851,448.608 109.261,447.967 C 109.672,447.324 110.049,447.135 110.301,447.135 S 110.879,447.324 111.289,447.967 S 112.069,449.631 112.069,450.827 L 112.069,457.949 C 112.069,459.145 111.7,460.22 111.289,460.861 C 110.879,461.503 110.553,461.641 110.301,461.641 C 110.112,461.641 109.864,461.587 109.573,461.277 C 108.644,461.731 108.801,462.86 108.377,464.293 C 109.207,465.232 108.976,464.969 110.301,464.969 C 111.948,464.969 113.269,463.921 114.097,462.629 C 114.924,461.337 115.397,459.717 115.397,457.949 L 115.397,450.827 C 115.397,449.059 114.924,447.439 114.097,446.147 C 113.269,444.855 111.947,443.807 110.301,443.807 Z "/>
			<path id="dp_path015" fill="black" fill-rule="evenodd" d="M 110.301,430.129 C 108.655,430.129 107.281,431.177 106.453,432.469 C 105.627,433.76 105.205,435.381 105.205,437.148 L 105.205,444.272 C 105.205,444.925 105.344,446.429 105.673,447.236 C 106.569,445.583 107.467,444.489 108.533,444.116 L 108.533,437.148 C 108.533,435.953 108.851,434.931 109.261,434.288 C 109.672,433.647 110.049,433.456 110.301,433.456 S 110.879,433.647 111.289,434.288 S 112.069,435.953 112.069,437.148 L 112.069,444.272 C 112.069,445.468 111.7,446.543 111.289,447.184 C 110.879,447.825 110.553,447.964 110.301,447.964 C 110.112,447.964 109.864,447.909 109.573,447.6 C 108.644,448.053 108.801,449.181 108.377,450.616 C 109.207,451.553 108.976,451.292 110.301,451.292 C 111.948,451.292 113.269,450.243 114.097,448.952 C 114.924,447.66 115.397,446.039 115.397,444.272 L 115.397,437.148 C 115.397,435.381 114.924,433.76 114.097,432.468 C 113.269,431.177 111.947,430.128 110.301,430.128 Z "/>
			<path id="dp_path016" fill="url(#grad_dp_005)" fill-rule="evenodd" d="M 110.301,430.129 C 108.655,430.129 107.281,431.177 106.453,432.469 C 105.627,433.76 105.205,435.381 105.205,437.148 L 105.205,444.272 C 105.205,444.925 105.344,446.429 105.673,447.236 C 106.569,445.583 107.467,444.489 108.533,444.116 L 108.533,437.148 C 108.533,435.953 108.851,434.931 109.261,434.288 C 109.672,433.647 110.049,433.456 110.301,433.456 S 110.879,433.647 111.289,434.288 S 112.069,435.953 112.069,437.148 L 112.069,444.272 C 112.069,445.468 111.7,446.543 111.289,447.184 C 110.879,447.825 110.553,447.964 110.301,447.964 C 110.112,447.964 109.864,447.909 109.573,447.6 C 108.644,448.053 108.801,449.181 108.377,450.616 C 109.207,451.553 108.976,451.292 110.301,451.292 C 111.948,451.292 113.269,450.243 114.097,448.952 C 114.924,447.66 115.397,446.039 115.397,444.272 L 115.397,437.148 C 115.397,435.381 114.924,433.76 114.097,432.468 C 113.269,431.177 111.947,430.128 110.301,430.128 Z "/>
		</g>
		<g id="dp_group017">
			<path id="dp_path018" fill="#d79542" fill-rule="evenodd" d="M 282.848,498.348 C 213.372,498.663 143.539,499.039 74.4107,501.303 C 59.9827,500.883 43.732,499.605 48.5947,512.664 C 49.6987,519.267 49.2907,525.464 48.9973,531.384 C 50.756,538.443 47.1827,544.88 49.1133,551.956 C 47.716,558.721 49.7147,563.6 48.7507,570.349 C 48.2787,576.119 49.684,580.667 49.6853,586.913 C 48.2347,595.485 50.0987,602.487 49.1013,611.603 C 51.436,622.128 78.1893,613.703 90.5013,616.285 C 291.501,615.057 492.685,611.308 693.753,614.564 C 719.092,614.641 744.46,615.989 769.733,616.043 C 775.481,598.553 769.917,578.259 772.404,559.679 C 772.629,540.864 771.736,522.265 772.624,503.489 C 755.224,498.733 732.997,502.696 713.704,501.252 C 570.079,500.573 426.48,498.067 282.835,498.349 Z M 772.605,572.347 C 772.797,572.037 772.688,572.187 772.605,572.347 Z M 771.305,617.073 L 771.419,617.068 Z "/>
		</g>
		<g id="dp_group019">
			<path id="dp_path020" fill="none" fill-rule="evenodd" stroke="black" stroke-width="3.328" d="M 730.323,431.811 C 730.323,431.811 730.323,431.811 730.323,431.811 C 732.203,431.811 733.749,434.224 733.749,437.159 C 733.749,437.159 733.749,437.159 733.749,437.159 L 733.749,444.276 C 733.749,444.276 733.749,444.276 733.749,444.276 C 733.749,447.209 732.203,449.624 730.323,449.624 C 730.323,449.624 730.323,449.624 730.323,449.624 C 730.323,449.624 730.323,449.624 730.323,449.624 C 728.444,449.624 726.897,447.209 726.897,444.276 C 726.897,444.276 726.897,444.276 726.897,444.276 L 726.897,437.159 C 726.897,437.159 726.897,437.159 726.897,437.159 C 726.897,434.224 728.444,431.811 730.323,431.811 C 730.323,431.811 730.323,431.811 730.323,431.811"/>
			<path id="dp_path021" fill="none" fill-rule="evenodd" stroke="black" stroke-width="3.328" d="M 738.711,500.964 C 738.711,493.185 735.047,486.88 730.527,486.88 C 726.008,486.88 722.343,493.185 722.343,500.964 C 722.343,501.065 722.344,501.168 722.345,501.269"/>
			<path id="dp_path022" fill="none" fill-rule="evenodd" stroke="black" stroke-width="3.328" d="M 730.323,472.696 C 730.323,472.696 730.323,472.696 730.323,472.696 C 732.203,472.696 733.749,475.109 733.749,478.044 C 733.749,478.044 733.749,478.044 733.749,478.044 L 733.749,485.161 C 733.749,485.161 733.749,485.161 733.749,485.161 C 733.749,488.095 732.203,490.509 730.323,490.509 C 730.323,490.509 730.323,490.509 730.323,490.509 C 730.323,490.509 730.323,490.509 730.323,490.509 C 728.444,490.509 726.897,488.095 726.897,485.161 C 726.897,485.161 726.897,485.161 726.897,485.161 L 726.897,478.044 C 726.897,478.044 726.897,478.044 726.897,478.044 C 726.897,475.109 728.444,472.696 730.323,472.696 C 730.323,472.696 730.323,472.696 730.323,472.696"/>
			<path id="dp_path023" fill="none" fill-rule="evenodd" stroke="black" stroke-width="3.328" d="M 738.711,500.964 C 738.711,493.185 735.047,486.88 730.527,486.88 C 726.008,486.88 722.343,493.185 722.343,500.964 C 722.343,501.065 722.344,501.168 722.345,501.269"/>
			<path id="dp_path024" fill="none" fill-rule="evenodd" stroke="url(#grad_dp_006)" stroke-width="3.328" d="M 738.711,500.964 C 738.711,493.185 735.047,486.88 730.527,486.88 C 726.008,486.88 722.343,493.185 722.343,500.964 C 722.343,501.065 722.344,501.168 722.345,501.269"/>
			<path id="dp_path025" fill="black" fill-rule="evenodd" d="M 730.341,471.015 C 728.695,471.015 727.321,472.063 726.493,473.355 C 725.667,474.647 725.245,476.267 725.245,478.035 L 725.245,485.159 C 725.245,485.811 725.332,486.431 725.453,487.031 C 725.653,486.889 725.889,486.719 726.077,486.563 C 726.349,486.355 726.617,486.167 726.909,485.991 C 727.215,485.816 727.501,485.649 727.845,485.575 C 728.085,485.513 728.333,485.476 728.573,485.419 C 728.571,485.329 728.573,485.248 728.573,485.159 L 728.573,478.035 C 728.573,476.839 728.891,475.816 729.301,475.175 C 729.712,474.533 730.089,474.343 730.341,474.343 S 730.919,474.533 731.329,475.175 S 732.109,476.839 732.109,478.035 L 732.109,485.159 C 732.109,486.353 731.74,487.428 731.329,488.071 C 730.919,488.712 730.593,488.851 730.341,488.851 C 730.152,488.851 729.904,488.796 729.613,488.487 C 729.435,488.624 729.275,488.767 729.093,488.903 C 728.848,489.105 728.628,489.292 728.365,489.475 C 728.124,489.655 727.872,489.856 727.637,490.047 C 727.444,490.216 727.264,490.403 727.065,490.567 C 727.895,491.504 729.016,492.179 730.341,492.179 C 731.988,492.179 733.309,491.129 734.137,489.839 C 734.964,488.547 735.437,486.925 735.437,485.159 L 735.437,478.035 C 735.437,476.268 734.964,474.647 734.137,473.355 C 733.309,472.064 731.988,471.016 730.341,471.016 Z "/>
			<path id="dp_path026" fill="none" fill-rule="evenodd" stroke="black" stroke-width="3.328" stroke-linejoin="round" stroke-linecap="round" d="M 730.323,459.313 C 730.323,459.313 730.323,459.313 730.323,459.313 C 732.203,459.313 733.749,461.727 733.749,464.661 C 733.749,464.661 733.749,464.661 733.749,464.661 L 733.749,471.779 C 733.749,471.779 733.749,471.779 733.749,471.779 C 733.749,474.712 732.203,477.127 730.323,477.127 C 730.323,477.127 730.323,477.127 730.323,477.127 C 730.323,477.127 730.323,477.127 730.323,477.127 C 728.444,477.127 726.897,474.712 726.897,471.779 C 726.897,471.779 726.897,471.779 726.897,471.779 L 726.897,464.661 C 726.897,464.661 726.897,464.661 726.897,464.661 C 726.897,461.727 728.444,459.313 730.323,459.313 C 730.323,459.313 730.323,459.313 730.323,459.313"/>
			<path id="dp_path027" fill="url(#grad_dp_007)" fill-rule="evenodd" d="M 730.341,471.015 C 728.695,471.015 727.321,472.063 726.493,473.355 C 725.667,474.647 725.245,476.267 725.245,478.035 L 725.245,485.159 C 725.245,485.811 725.332,486.431 725.453,487.031 C 725.653,486.889 725.889,486.719 726.077,486.563 C 726.349,486.355 726.617,486.167 726.909,485.991 C 727.215,485.816 727.501,485.649 727.845,485.575 C 728.085,485.513 728.333,485.476 728.573,485.419 C 728.571,485.329 728.573,485.248 728.573,485.159 L 728.573,478.035 C 728.573,476.839 728.891,475.816 729.301,475.175 C 729.712,474.533 730.089,474.343 730.341,474.343 S 730.919,474.533 731.329,475.175 S 732.109,476.839 732.109,478.035 L 732.109,485.159 C 732.109,486.353 731.74,487.428 731.329,488.071 C 730.919,488.712 730.593,488.851 730.341,488.851 C 730.152,488.851 729.904,488.796 729.613,488.487 C 729.435,488.624 729.275,488.767 729.093,488.903 C 728.848,489.105 728.628,489.292 728.365,489.475 C 728.124,489.655 727.872,489.856 727.637,490.047 C 727.444,490.216 727.264,490.403 727.065,490.567 C 727.895,491.504 729.016,492.179 730.341,492.179 C 731.988,492.179 733.309,491.129 734.137,489.839 C 734.964,488.547 735.437,486.925 735.437,485.159 L 735.437,478.035 C 735.437,476.268 734.964,474.647 734.137,473.355 C 733.309,472.064 731.988,471.016 730.341,471.016 Z "/>
			<path id="dp_path028" fill="none" fill-rule="evenodd" stroke="black" stroke-width="3.328" stroke-linejoin="round" stroke-linecap="round" d="M 730.323,445.488 C 730.323,445.488 730.323,445.488 730.323,445.488 C 732.203,445.488 733.749,447.903 733.749,450.836 C 733.749,450.836 733.749,450.836 733.749,450.836 L 733.749,457.953 C 733.749,457.953 733.749,457.953 733.749,457.953 C 733.749,460.888 732.203,463.301 730.323,463.301 C 730.323,463.301 730.323,463.301 730.323,463.301 C 730.323,463.301 730.323,463.301 730.323,463.301 C 728.444,463.301 726.897,460.888 726.897,457.953 C 726.897,457.953 726.897,457.953 726.897,457.953 L 726.897,450.836 C 726.897,450.836 726.897,450.836 726.897,450.836 C 726.897,447.903 728.444,445.488 730.323,445.488 C 730.323,445.488 730.323,445.488 730.323,445.488"/>
			<path id="dp_path029" fill="black" fill-rule="evenodd" d="M 730.341,457.631 C 728.695,457.631 727.321,458.679 726.493,459.971 C 725.667,461.263 725.245,462.883 725.245,464.651 L 725.245,471.773 C 725.245,472.427 725.384,473.931 725.713,474.737 C 726.609,473.084 727.507,471.991 728.573,471.617 L 728.573,464.649 C 728.573,463.455 728.891,462.432 729.301,461.791 C 729.712,461.148 730.089,460.959 730.341,460.959 S 730.919,461.148 731.329,461.791 S 732.109,463.455 732.109,464.649 L 732.109,471.773 C 732.109,472.969 731.74,474.044 731.329,474.685 C 730.919,475.327 730.593,475.465 730.341,475.465 C 730.152,475.465 729.904,475.411 729.613,475.101 C 728.684,475.555 728.841,476.684 728.417,478.117 C 729.247,479.056 729.016,478.793 730.341,478.793 C 731.988,478.793 733.309,477.745 734.137,476.453 C 734.964,475.161 735.437,473.541 735.437,471.773 L 735.437,464.649 C 735.437,462.883 734.964,461.263 734.137,459.971 C 733.309,458.679 731.987,457.631 730.341,457.631 Z "/>
			<path id="dp_path030" fill="url(#grad_dp_008)" fill-rule="evenodd" d="M 730.341,457.631 C 728.695,457.631 727.321,458.679 726.493,459.971 C 725.667,461.263 725.245,462.883 725.245,464.651 L 725.245,471.773 C 725.245,472.427 725.384,473.931 725.713,474.737 C 726.609,473.084 727.507,471.991 728.573,471.617 L 728.573,464.649 C 728.573,463.455 728.891,462.432 729.301,461.791 C 729.712,461.148 730.089,460.959 730.341,460.959 S 730.919,461.148 731.329,461.791 S 732.109,463.455 732.109,464.649 L 732.109,471.773 C 732.109,472.969 731.74,474.044 731.329,474.685 C 730.919,475.327 730.593,475.465 730.341,475.465 C 730.152,475.465 729.904,475.411 729.613,475.101 C 728.684,475.555 728.841,476.684 728.417,478.117 C 729.247,479.056 729.016,478.793 730.341,478.793 C 731.988,478.793 733.309,477.745 734.137,476.453 C 734.964,475.161 735.437,473.541 735.437,471.773 L 735.437,464.649 C 735.437,462.883 734.964,461.263 734.137,459.971 C 733.309,458.679 731.987,457.631 730.341,457.631 Z "/>
			<path id="dp_path031" fill="black" fill-rule="evenodd" d="M 730.341,443.807 C 728.695,443.807 727.321,444.855 726.493,446.147 C 725.667,447.439 725.245,449.059 725.245,450.827 L 725.245,457.949 C 725.245,458.603 725.384,460.107 725.713,460.913 C 726.609,459.26 727.507,458.167 728.573,457.793 L 728.573,450.827 C 728.573,449.631 728.891,448.608 729.301,447.967 C 729.712,447.324 730.089,447.135 730.341,447.135 S 730.919,447.324 731.329,447.967 S 732.109,449.631 732.109,450.827 L 732.109,457.949 C 732.109,459.145 731.74,460.22 731.329,460.861 C 730.919,461.503 730.593,461.641 730.341,461.641 C 730.152,461.641 729.904,461.587 729.613,461.277 C 728.684,461.731 728.841,462.86 728.417,464.293 C 729.247,465.232 729.016,464.969 730.341,464.969 C 731.988,464.969 733.309,463.921 734.137,462.629 C 734.964,461.337 735.437,459.717 735.437,457.949 L 735.437,450.827 C 735.437,449.059 734.964,447.439 734.137,446.147 C 733.309,444.855 731.987,443.807 730.341,443.807 Z "/>
			<path id="dp_path032" fill="url(#grad_dp_009)" fill-rule="evenodd" d="M 730.341,443.807 C 728.695,443.807 727.321,444.855 726.493,446.147 C 725.667,447.439 725.245,449.059 725.245,450.827 L 725.245,457.949 C 725.245,458.603 725.384,460.107 725.713,460.913 C 726.609,459.26 727.507,458.167 728.573,457.793 L 728.573,450.827 C 728.573,449.631 728.891,448.608 729.301,447.967 C 729.712,447.324 730.089,447.135 730.341,447.135 S 730.919,447.324 731.329,447.967 S 732.109,449.631 732.109,450.827 L 732.109,457.949 C 732.109,459.145 731.74,460.22 731.329,460.861 C 730.919,461.503 730.593,461.641 730.341,461.641 C 730.152,461.641 729.904,461.587 729.613,461.277 C 728.684,461.731 728.841,462.86 728.417,464.293 C 729.247,465.232 729.016,464.969 730.341,464.969 C 731.988,464.969 733.309,463.921 734.137,462.629 C 734.964,461.337 735.437,459.717 735.437,457.949 L 735.437,450.827 C 735.437,449.059 734.964,447.439 734.137,446.147 C 733.309,444.855 731.987,443.807 730.341,443.807 Z "/>
			<path id="dp_path033" fill="black" fill-rule="evenodd" d="M 730.341,430.129 C 728.695,430.129 727.321,431.177 726.493,432.469 C 725.667,433.76 725.245,435.381 725.245,437.148 L 725.245,444.272 C 725.245,444.925 725.384,446.429 725.713,447.236 C 726.609,445.583 727.507,444.489 728.573,444.116 L 728.573,437.148 C 728.573,435.953 728.891,434.931 729.301,434.288 C 729.712,433.647 730.089,433.456 730.341,433.456 S 730.919,433.647 731.329,434.288 S 732.109,435.953 732.109,437.148 L 732.109,444.272 C 732.109,445.468 731.74,446.543 731.329,447.184 C 730.919,447.825 730.593,447.964 730.341,447.964 C 730.152,447.964 729.904,447.909 729.613,447.6 C 728.684,448.053 728.841,449.181 728.417,450.616 C 729.247,451.553 729.016,451.292 730.341,451.292 C 731.988,451.292 733.309,450.243 734.137,448.952 C 734.964,447.66 735.437,446.039 735.437,444.272 L 735.437,437.148 C 735.437,435.381 734.964,433.76 734.137,432.468 C 733.309,431.177 731.987,430.128 730.341,430.128 Z "/>
			<path id="dp_path034" fill="url(#grad_dp_010)" fill-rule="evenodd" d="M 730.341,430.129 C 728.695,430.129 727.321,431.177 726.493,432.469 C 725.667,433.76 725.245,435.381 725.245,437.148 L 725.245,444.272 C 725.245,444.925 725.384,446.429 725.713,447.236 C 726.609,445.583 727.507,444.489 728.573,444.116 L 728.573,437.148 C 728.573,435.953 728.891,434.931 729.301,434.288 C 729.712,433.647 730.089,433.456 730.341,433.456 S 730.919,433.647 731.329,434.288 S 732.109,435.953 732.109,437.148 L 732.109,444.272 C 732.109,445.468 731.74,446.543 731.329,447.184 C 730.919,447.825 730.593,447.964 730.341,447.964 C 730.152,447.964 729.904,447.909 729.613,447.6 C 728.684,448.053 728.841,449.181 728.417,450.616 C 729.247,451.553 729.016,451.292 730.341,451.292 C 731.988,451.292 733.309,450.243 734.137,448.952 C 734.964,447.66 735.437,446.039 735.437,444.272 L 735.437,437.148 C 735.437,435.381 734.964,433.76 734.137,432.468 C 733.309,431.177 731.987,430.128 730.341,430.128 Z "/>
		</g>
		<g id="dp_group035">
			<path id="dp_path036" fill="url(#grad_dp_011)" fill-rule="evenodd" d="M 281.316,500.131 C 212.215,500.435 142.756,500.796 73.9987,502.977 C 59.6507,502.573 43.4867,501.343 48.3227,513.921 C 49.4213,520.28 49.0147,526.249 48.724,531.952 C 50.4733,538.752 46.9187,544.952 48.8387,551.768 C 47.4493,558.284 49.436,562.984 48.4773,569.484 C 48.0093,575.041 49.4067,579.421 49.408,585.44 C 47.9653,593.696 49.8187,600.44 48.8253,609.221 C 51.1493,619.359 77.7587,611.243 90.0027,613.731 C 289.923,612.549 490.025,608.937 690.009,612.073 C 715.213,612.148 740.445,613.445 765.583,613.499 C 771.299,596.651 765.765,577.104 768.239,559.205 C 768.463,541.084 767.575,523.167 768.457,505.081 C 751.151,500.5 729.044,504.317 709.855,502.925 C 567.001,502.273 424.176,499.857 281.301,500.131 Z M 768.455,571.407 C 768.645,571.107 768.537,571.252 768.455,571.407 Z M 767.161,614.488 L 767.275,614.483 Z "/>
			<path id="dp_path037" fill="url(#grad_dp_012)" fill-rule="evenodd" d="M 282.848,498.348 C 213.372,498.663 143.539,499.039 74.4107,501.303 C 59.9827,500.883 43.732,499.605 48.5947,512.664 C 49.6987,519.267 49.2907,525.464 48.9973,531.384 C 50.756,538.443 47.1827,544.88 49.1133,551.956 C 47.716,558.721 49.7147,563.6 48.7507,570.349 C 48.2787,576.119 49.684,580.667 49.6853,586.913 C 48.2347,595.485 50.0987,602.487 49.1013,611.603 C 51.436,622.128 78.1893,613.703 90.5013,616.285 C 291.501,615.057 492.685,611.308 693.753,614.564 C 719.092,614.641 744.46,615.989 769.733,616.043 C 775.481,598.553 769.917,578.259 772.404,559.679 C 772.629,540.864 771.736,522.265 772.624,503.489 C 755.224,498.733 732.997,502.696 713.704,501.252 C 570.079,500.573 426.48,498.067 282.835,498.349 Z M 772.605,572.347 C 772.797,572.037 772.688,572.187 772.605,572.347 Z M 771.305,617.073 L 771.419,617.068 Z "/>
			<path id="dp_path038" fill="url(#grad_dp_013)" fill-rule="evenodd" d="M 282.848,498.348 C 213.372,498.663 143.539,499.039 74.4107,501.303 C 59.9827,500.883 43.732,499.605 48.5947,512.664 C 49.6987,519.267 49.2907,525.464 48.9973,531.384 C 50.756,538.443 47.1827,544.88 49.1133,551.956 C 47.716,558.721 49.7147,563.6 48.7507,570.349 C 48.2787,576.119 49.684,580.667 49.6853,586.913 C 48.2347,595.485 50.0987,602.487 49.1013,611.603 C 51.436,622.128 78.1893,613.703 90.5013,616.285 C 291.501,615.057 492.685,611.308 693.753,614.564 C 719.092,614.641 744.46,615.989 769.733,616.043 C 775.481,598.553 769.917,578.259 772.404,559.679 C 772.629,540.864 771.736,522.265 772.624,503.489 C 755.224,498.733 732.997,502.696 713.704,501.252 C 570.079,500.573 426.48,498.067 282.835,498.349 Z M 772.605,572.347 C 772.797,572.037 772.688,572.187 772.605,572.347 Z M 771.305,617.073 L 771.419,617.068 Z "/>
			<path id="dp_path039" fill="url(#grad_dp_014)" fill-rule="evenodd" d="M 282.848,498.348 C 213.372,498.663 143.539,499.039 74.4107,501.303 C 59.9827,500.883 43.732,499.605 48.5947,512.664 C 49.6987,519.267 49.2907,525.464 48.9973,531.384 C 50.756,538.443 47.1827,544.88 49.1133,551.956 C 47.716,558.721 49.7147,563.6 48.7507,570.349 C 48.2787,576.119 49.684,580.667 49.6853,586.913 C 48.2347,595.485 50.0987,602.487 49.1013,611.603 C 51.436,622.128 78.1893,613.703 90.5013,616.285 C 291.501,615.057 492.685,611.308 693.753,614.564 C 719.092,614.641 744.46,615.989 769.733,616.043 C 775.481,598.553 769.917,578.259 772.404,559.679 C 772.629,540.864 771.736,522.265 772.624,503.489 C 755.224,498.733 732.997,502.696 713.704,501.252 C 570.079,500.573 426.48,498.067 282.835,498.349 Z M 772.605,572.347 C 772.797,572.037 772.688,572.187 772.605,572.347 Z M 771.305,617.073 L 771.419,617.068 Z "/>
			<path id="dp_path040" fill="url(#grad_dp_015)" fill-rule="evenodd" d="M 49.6347,589.708 L 49.9667,585.025 C 56.804,585.612 63.34,586.883 69.7427,586.76 C 74.7747,587.337 79.6453,588.144 84.4347,588.129 C 90.204,588.443 96.0013,588.649 101.808,588.993 C 108.517,589.479 115.364,589.22 122.257,589.499 C 132.944,589.613 143.645,589.599 154.345,589.832 C 160.599,590.333 166.892,590.496 173.175,590.841 C 179.789,591.651 186.524,591.293 193.212,591.579 C 193.096,591.568 192.981,591.553 192.867,591.539 C 192.981,591.551 193.097,591.564 193.212,591.579 C 186.533,591.297 179.844,591.88 173.132,591.505 C 166.861,591.365 160.585,591.409 154.301,591.112 C 143.616,591.227 132.933,591.591 122.236,591.825 C 115.456,591.773 108.608,592.253 101.661,591.987 L 101.661,591.987 C 95.928,591.833 90.1747,591.816 84.4,591.689 C 79.328,591.855 74.3907,591.204 69.6093,590.793 C 62.7267,591.119 56.056,590.063 49.6347,589.708 Z "/>
		</g>
	</g>
</svg>