<svg width="102.9" xmlns="http://www.w3.org/2000/svg" viewBox="0 0 102.9 142.38" height="142.38">
<g transform="matrix(.99873 -.05045 .05045 .99873 -190.762 -.51)">
<path fill="#a05a2c" fill-rule="evenodd" d="m234-154.9h12v141.96h-12z" transform="scale(1 -1)"/>
<path fill="#f4eed7" fill-opacity=".382" d="m235.4406,155.5572c.2204-5.4595 .423-10.9642 .6017-16.4943 .0584-1.964 .1156-3.9244 .1681-5.8932 .082-3.069 .303-12.7301 .3613-15.2991 .1833-8.0642 .3644-15.6796 .5177-23.7842-.1362,8.926-.1515,12.2744-.2445,20.8056-.0502,4.6031-.0805,9.011-.1716,13.618-.0361,1.8202-.0972,3.6419-.1403,5.4603-.0486,1.6605-.0987,3.3179-.1512,4.9744-.1774,5.5902-.3794,11.1267-.6236,16.6028l-.3178,.009zm.4767-.0138c.0998-3.877 .2063-7.7667 .3333-11.6246 .0425-1.291 .5672-15.334 .5987-16.3314 .0696-2.2003 .1234-4.4391 .1821-6.6499 .0317-1.6154 .0567-3.2493 .0896-4.8646 .0269-1.8426 .0558-3.6703 .0818-5.5126 .0658-4.6717 .0965-7.8915 .1904-12.4842 .0873-4.2711 .1733-7.0974 .2896-11.4067 .0548-2.0306 .1174-4.0239 .1711-6.0554 .0828-4.181 .1538-8.358 .2311-12.5393 .3281-18.116 .6457-36.2586 .9624-54.3732l.0198-.0006c-.3157,18.0587-.6314,36.1014-.9584,54.1574-.043,2.4036-.0924,4.8396-.1335,7.2428 .1058-4.4784 .2379-10.0711 .2896-12.4871 .0694-3.2426 .1332-6.5407 .2001-9.7837 .0732-3.5505 .1635-7.0442 .235-10.5953 .0944-4.687 .3502-19.0722 .4343-23.5661 .0311-1.6575 .0605-3.3151 .0916-4.9727l.0198-.0006c-.0299,1.6035-.0586,3.207-.0887,4.8105-.0589,3.1292-.3744,19.9526-.4313,23.4042-.1037,6.3012-.1891,12.5621-.2881,18.8617-.1178,7.498-.1346,8.4414-.271,15.7817-.0347,2.0875-.0604,4.1278-.0947,6.2152-.0739,4.496-.0908,5.8387-.1902,10.3234-.0998,4.5026-.2502,9.615-.3583,14.0558-.0745,3.0596-.137,6.1291-.2091,9.1897-.003,.0978-.004,.2266-.006,.3243-.0393,2.3404-.0873,4.6317-.1285,6.9725-.1361,7.314-.2405,14.6305-.3647,21.9434-.0378,2.2257-.0901,4.4775-.1235,6.7023-.0164,1.0945-.0263,2.1691-.0399,3.2424l-.3178,.009c.1309-7.0349 .2868-14.0467 .4282-21.0805-.231,7.03-.4734,14.0392-.6864,21.088l-.1589,.005zm.8937-.0259c.1149-7.1044 .2347-14.2429 .3736-21.3495 .1541-8.0872 .3049-16.1821 .4671-24.269 .1897-10.1217 .3977-20.2029 .5985-30.3239 .2601-13.4259 .5312-26.8421 .7818-40.2687 .1694-8.5374 .3099-17.0889 .4324-25.619l.3575-.0104c-.16,7.3695-.3201,14.7347-.4471,22.1076-.2301,12.6581-.4398,25.2857-.6595,37.9425 .397-19.8005 .8143-39.6096 1.2337-59.4057-.4506,21.2499-.869,42.475-1.2936,63.7291-.1464,8.7084-.3041,17.4492-.4623,26.1601-.1329,7.9302-.2776,15.8508-.4185,23.7813-.0114,.6874-.0252,1.3664-.0379,2.0539 .006-.2073 .0255-.4419 .0318-.6492 .1988-7.0941 .4127-14.4748 .5762-21.5711 .0959-4.1635 .1603-8.3209 .2499-12.486 .3373-15.6558 .7052-31.3265 1.0642-46.976 .2712-11.5619 .5143-23.136 .7587-34.7041 0-.0001 .0198-.0005 .0198-.0006-.2432,11.5152-.4857,23.0333-.7557,34.5413-.2483,10.8213-.49,21.6125-.7367,32.4338-.2444,10.7234-.3851,16.2164-.5506,26.6489-.0537,3.3875-.0852,6.7767-.1277,10.1598-.0327,2.6013-.0726,5.1816-.1037,7.7821-.025,1.8866-.0341,3.7855-.0649,5.6742-.1115,6.8415-.3458,13.6201-.5155,20.435-.0363,1.3502-.0735,2.7088-.1144,4.055-.001,.035-.0009,.0731-.002,.1081l-.6554,.019zm1.1916-.0345c.003-.1802 .007-.3601 .01-.5405 .062-3.4671 .127-6.9632 .1922-10.4313 .0652-3.4686 .1325-6.9131 .2111-10.3779 .0897-3.4578 .1617-6.9215 .2508-10.3791 .1468-5.6979 .0993-3.0477 .2686-9.1914 .3846-12.9796 .6049-25.3035 .8144-37.7301 .0274-1.5907 .0782-3.1662 .1075-4.757 .0758-3.7174 .0715-4.3035 .1653-7.8919 .1391-5.3201 .3304-10.5771 .4716-15.8964 .047-1.9971 .1074-4.0022 .1503-6.0008 .2054-9.5574 .3537-19.0903 .5081-28.6458l.4767-.0138c-.011,1.0603-.0269,1.9906-.0399,3.2424-.0167,1.6101-.0284,3.1968-.0489,4.8094-.0165,1.2964-.0516,2.5937-.0717,3.8917-.1356,7.2897-.2784,14.6027-.3836,21.89-.0955,5.8049-.1987,11.5998-.3207,17.4038-.1654,7.2164-.2746,14.4548-.3994,21.6738-.2629,15.47-.6525,31.3076-.8804,45.6197-.0904,5.7073-.1764,11.4284-.2562,17.1323-.0173,1.2145-.0302,2.4064-.0469,3.6209 .0875-3.0259 .1854-6.0511 .2666-9.0833 .2802-14.417 .5499-28.8227 .8167-43.2413-.2266,12.2935-.4448,24.5689-.6595,36.8621 .1589-6.2058 .3164-12.4439 .4628-18.6511 .1744-7.7733 .3312-15.5219 .4889-23.297-.1587,7.7159-.2979,15.422-.466,23.1346-.2102,8.9123-.3239,13.3768-.5285,21.1374-.0487,2.8168-.088,5.6146-.1356,8.4313 .209-6.3757 .4296-12.7268 .6496-19.0889-.236,6.744-.4617,13.4487-.6705,20.2238-.0297,1.7839-.0689,3.5671-.0986,5.351-.005,.2475 .0101,.5083 .006,.7561l-.1192,.003c.0201-.6274 .0346-1.2647 .0547-1.8923 .05-2.5434 .1107-5.0783 .1603-7.6217-.0735,2.6531-.1479,5.2985-.2259,7.9477l-.005,.2703c-.007,.4351-.0163,.8639-.0239,1.2972l-.4369,.0127c.0245-2.9581 .0431-5.8942 .0839-8.862 .8773-51.9526 .6515-39.6703-.2005,2.2747-.0442,2.1904-.099,4.4037-.1414,6.5947l-.4568,.0132zm2.2623-54.8972c.1104-5.9655 .2196-11.9249 .3297-17.8903 .4243-23.0236 .8486-46.0531 1.273-69.0767l.0198-.0006-1.27,68.9138c-.1109,6.0177-.2416,12.0354-.3525,18.0538zm-.0379,54.8327c.3188-16.514 .6072-33.0532 .9531-49.565 .119-6.454 .2389-12.896 .3566-19.35-.1996,6.0219-.2964,8.8078-.3521,10.4908 .1324-3.9879 .2612-7.9965 .38-12.0034 .005-.1873 .005-.3532 .01-.5405 .2816-15.4505 .5687-30.9252 .8348-46.3742 .1473-8.1656 .2879-16.3204 .4314-24.4846l.1192-.0035c-.1512,7.8366-.3057,15.6759-.4531,23.5127-.2986,15.2074-.5969,30.4117-.8804,45.6197 .3245-11.3618 .573-22.7643 .8083-34.1654 .2713-11.531 .0745-3.2806 .3385-15.1356 .0629-2.8226 .1361-5.6095 .1951-8.433 .0794-3.7956 .1559-7.6075 .23-11.405l.1192-.0035c-.0532,3.096-.1,6.2004-.1515,9.2961-.0752,4.5295-.168,10.4615-.2571,15.0254-.047,2.4105-.1007,4.8337-.1533,7.2433-.242,9.2802-.4824,18.5448-.7702,27.7896-.1208,3.8798-.2446,7.7548-.3731,11.6258-.0185,.5576-.0161,.2005-.0328,.7032-.1266,6.8024-.2512,13.6283-.3765,20.431-.262,16.5713-.5677,33.1509-.8569,49.725l-.1192,.003zm1.3505-.0391c.1821-9.606 .3539-19.2031 .5309-28.8092 .0496-2.689 .3833-19.7751 .4322-22.3777 .3397-20.2362 .6932-40.4588 1.0591-60.6968 .2131-9.9756 .3819-19.9718 .5519-29.9441l.1192-.0035c-.1879,9.4843-.3763,18.9481-.524,28.4305-.3872,20.5911-.7722,41.19-1.1783,61.7806-.5282,29.9335 .1317-7.4906-.3856,21.998-.1731,9.8662-.3559,19.7564-.5061,29.6183l-.0993,.003zm.1986-.006c.003-.1584 .006-.3281 .009-.4865 .1079-5.4705 .1941-10.0509 .2859-15.5126 .1465-8.7167 .2716-17.4373 .4424-26.1595 .2223-11.6274 .428-23.2903 .6633-34.9171 .2102-10.5496 .4258-21.0715 .6224-31.6207 .1991-11.0426 .4329-22.0922 .6503-33.1343l.2781-.0081c-.0611,3.7859-.1241,7.5653-.1893,11.3499-.0354,2.0618-.0816,4.1547-.1146,6.2158-.0558,3.5474-.1016,7.0458-.1555,10.593-.0402,3.4376-.0983,6.887-.1704,10.3228-.0721,3.4362-.1534,6.8886-.23,10.3245-.034,1.5359-.2155,9.7588-.2469,11.2437-.2387,11.6788-.4727,23.3455-.6852,35.0255-.1633,9.1712-.3636,18.3447-.5467,27.5125-.3196,16.0008 .0413-.7743-.3336,15.9463-.0261,1.1036-.0562,2.1945-.0806,3.2977l-.1986,.006zm2.3304-103.3561c.0489-2.415 .1075-4.8293 .1533-7.2433 .1999-10.4175 .3836-20.8226 .5757-31.2409l.2185-.0063c-.1723,9.418-.3562,18.8507-.521,28.2687-.1273,7.2651-.2329,14.5145-.3816,21.7821-.0571,2.7854-.1122,5.5941-.1742,8.3784-.0124,.7754-.0305,1.5488-.0428,2.3241-.0578,2.5929-.1296,5.1907-.1832,7.7844-.0685,3.3198-.1176,6.6251-.1833,9.9452-.1237,7.9318-.2455,15.8459-.3787,23.7801-.0407,2.4168-.0953,4.8264-.1335,7.2428-.0632,4.4521-.0665,5.5745-.0838,6.7011 .1945-10.1558 .3744-20.3291 .542-30.484 .1404-8.3276 .2857-16.6439 .4205-24.9706-.1337,8.2592-.2574,16.4923-.3967,24.7532-.3316,18.7651-.6492,37.5568-.9585,56.3183l-.3972,.0115c.0919-5.2978 .1801-10.5907 .273-15.8906 .1753-8.4622 .0822-4.1507 .2798-13.027 .0514-2.4799 .0869-4.9248 .1365-7.4049 .17-8.4986 .3708-17.0168 .5496-25.5145 .0546-3.2026 .1059-6.4184 .1575-9.6204 .0903-5.6258 .1599-11.2362 .2512-16.8616 .0812-5.0081 .176-10.0164 .2769-15.026zm-3.3783,35.7526c.1651-8.3372 .3226-16.6879 .481-25.0263-.1556,8.3407-.3132,16.6856-.481,25.0263zm-3.3788-8.3835c.365-21.8995 .8568-43.8007 1.3691-65.6755-.5123,21.8928-1.0045,43.759-1.3691,65.6755zm4.084-28.8043c.0614-3.6405 .1078-7.2785 .1615-10.9167 .108-8.6823 .2194-17.3699 .3212-26.0481l.1589-.0046c-.0789,4.7064 .0108,.0118-.2372,15.0249-.0578,3.5038-.1325,6.9815-.1933,10.4862-.0659,3.8166-.1427,7.6417-.2112,11.4583z"/>
<path fill="#24221c" stroke="#a05a2c" stroke-width="3" d="m191.5,21.425h97v57h-97z"/>
</g>
</svg>
