<svg width="275.5752" xmlns="http://www.w3.org/2000/svg" viewBox="0 0 275.5752 96.169999" height="96.17" xmlns:xlink="http://www.w3.org/1999/xlink">
<defs/>
<g transform="translate(-343.9548 -284.55)">
<path fill="#c17d11" d="m370.66,302.38-23.75,63.844h270l-12.25-63.844h-234z"/>
<path fill="#8f5902" d="m350.66,378.72-3.75-12.344h270l-2.25,12.344z"/>
<path opacity=".5" fill="#e9b96e" d="m377.44,301.38c-2.1349,.1193-4.2703,.2501-6.4062,.3438l-.25,.625c10.192-.2314 20.371-.5985 30.562-.9688h-23.906zm58.969,2.5c-22.09-.003-44.162,.0307-66.25,.1562l-.25,.75c57.233,.8418 114.48,3.2744 171.72,1.1562 21.388-.4832 42.764-1.0337 64.156-1.3438l-.17-.72c-1.3844,.003-2.772-.007-4.1562,0-55.014,.2585-110.05,.007-165.06,0zm170,4c-79.227,.1668-158.46,.0885-237.69,.0937l-.1562,.375c57.144,.3349 114.32-.1008 171.47,.0937 22.159,0 44.31-.0001 66.469,0l-.0937-.5625zm.4062,2.1875c-78.473,.7192-156.96-.0696-235.44,.25-1.1769,0-2.3543,0-3.5312,0l-.125,.3125c59.841,.297 119.72-.0496 179.56,.125 19.885-.0708 39.77,.003 59.656-.0937l-.125-.5938zm.375,1.9375c-79.806,.1918-159.6,.0218-239.41,.2812 79.838,.2229 159.66,.1726 239.5,.1875l-.1-.48zm-152.47,2.3125c-29.499,.0101-59.002,.0996-88.5,.3125l-.125,.375c80.525,1.2965 161.09-.0833 241.62-.2188l-.0937-.4688c-50.968,.14-101.94-.0174-152.91,0zm153.19,1.4375c-77.605,.1888-155.21,.053-232.81,.2812 77.64,.1802 155.27,.18 232.91,.2188l-.0937-.5zm.4688,2.3125c-81.177,.2442-162.35,.0692-243.53,.3125 81.199,.1854 162.39,.1544 243.59,.1875l-.0625-.5zm-233.94,4.5625c-3.8578-.0107-7.6544,.0668-11.281,.2812l-.5625,1.4688c9.6598,.5509 19.328,.8205 29,.9062 14.966-.2609 29.94-.4922 44.906-.6562-14.969,.4807-29.944,.789-44.906,.6562-9.8416,.1716-19.69,.3466-29.531,.5312l-.1562,.4688c58.27,.1081 116.53-.4328 174.78,1.0312 23.432-.3943 47.187,.3608 70.344-3.3438-25.257-2.4753-51.656,.3295-77.188,.875-30.863-.6061-61.724-.5836-92.594-.25 7.8975-.2563 15.794-.5486 23.688-.8438-21.747,.0779-43.505-.858-65.25-.9688-6.7502,.1187-14.094-.1364-21.25-.1562zm86.5,1.125c9.5053-.034 19.002-.2686 28.5-.8438l-2.45-.08c-8.685,.2587-17.367,.5811-26.062,.9062zm-36.125,4.0938c-21.209,.8523-42.411,.5818-63.625,.3125l-.0937,.3125c1.7198,.061 3.2309,.1431 4.3438,.2812-1.2641,.146-2.8476,.2805-4.5938,.375l-.2188,.5625c13.937-.392 27.871-.8201 41.812,.375 44.003,1.053 88.018,.0283 132.03,.375-27.39,.3614-54.881,.0168-82.312,1.0625-24.205,.0951-48.412-.3168-72.625-1.1875-6.3712-.1031-12.743-.0622-19.125,0l-.0937,.2188c.7332,.0356 1.4557,.0699 2.1875,.125 16.66,.0332 33.32,.71 49.969,1.25-17.713,1.1949-35.465,1.4425-53.219,1.4688l-.1875,.5312c10.76-.0701 21.531-.3264 32.281-.5312-10.808,1.2226-21.631,1.2146-32.469,1l-.0937,.2812c3.4325,.1214 5.8233,.3358 5.5,.6562-1.9426,.1075-3.9001,.1897-5.8438,.25l-.125,.375c24.861-.0996 49.732-.5827 74.594,.2812 55.304-.0481 111.94,.0922 166.47-.1875-71.592-.3596-143.21,.2127-214.75-.8125 23.64-1.3134 47.303-.9958 70.938-1.7812-14.844-.161-29.7-.382-44.562-.6875 4.8122-.1646 9.6244-.3345 14.438-.4688 11.098,.3281 22.195,.7667 33.312,1.0312 6.8143-.2565 13.63-.6005 20.438-1.125 17.171-.5011 34.36-.8062 51.562-.75-.2814-.0213-.5624-.0411-.8438-.0625 26.508-.6941 53.015-1.499 79.531-1.75-70.546,.9501-141.12,1.1427-211.66-.375-6.6812-.2701-13.726-.484-2.9688-.4062 68.077-1.1077 136.17-.2976 204.25-.7812-58.077-.3344-116.17-.1868-174.25-.2188zm105.93,3.59c15.682,1.1885 31.366,2.3286 47.062,3.3125 6.6987,.2276 14.242,.8568 21.562,1.2812 .0417,.0002 .0833-.0002 .125,0 4.2708,.2464 8.4595,.42 12.375,.4062l-.25-1.3438c-26.863-2.5772-53.868-3.568-80.875-3.6562zm-72,1.875c-.99,.0373-1.9786,.0918-2.9688,.125 25.5,.2753 50.995,.3538 76.625,.2188 .2586-.0404 .1425-.1045-.2188-.1562h-.0312c-2.7957-.3797-20.113-.9775-26.219-.9688-15.758,1.1831-31.49,1.1548-47.188,.7812zm-100.97,4-.3125,.875c29.937,.2133 59.875,1.2066 89.812,1.7812 25.077-.7654 50.17-1.5308 75.25-1.7812 5.6814-.0786 11.349-.174 17.031-.2812-60.598-.4639-121.19-.2198-181.78-.5938zm181.78,.5938c13.949,.1068 27.896,.2685 41.844,.4688 5.1899-.2306 10.376-.4926 15.562-.7812-19.128-.458-38.273-.0487-57.406,.3125zm41.844,.4688c-17.088,.7594-34.199,1.2154-51.312,1.5312 26.346-.1839 52.688-.0163 79-1.0625-9.2279-.1855-18.459-.3362-27.688-.4688zm-134.12,1.5938c-4.8634,.1485-9.7303,.2924-14.594,.4375 13.597,.0802 27.184,.0882 40.781,.1875-3.8092,.0347-7.6287,.0882-11.438,.125h24.844c-4.3618-.0575-8.7315-.0927-13.094-.125 18.471-.168 36.94-.3524 55.406-.6875-3.8069,.0277-7.6317,.0776-11.438,.125-23.497,.5889-46.979,.3884-70.469-.0625zm14.75,.75h-40c-7.4253,.2105-14.856,.3942-22.281,.5625 10.98-.0575 21.958-.1336 32.938-.2188 9.7763-.1453 19.562-.2493 29.344-.3438zm-62.281,.5625c-14.501,.076-28.999,.1243-43.5,.1562l-.1562,.4062c14.559-.0176 29.098-.2326 43.656-.5625zm22.281-.5625c3.5511-.1007 7.1051-.2066 10.656-.3125-17.667-.1042-35.349-.336-53-1.0625-7.5444,.1329-15.085,.0699-22.625-.0625l-.1562,.4062c21.25,.2918 42.507,.3927 63.75,1.0312h1.375zm162.81,2.6562c-8.0071,.0156-16.332,.101-23.562,.0625-29.638,.0752-59.269,.2104-88.906,.375-39,.002-78,.0007-117,0l-.125,.3438c83.755,.7068 167.56,.7585 251.31-.5-6.0068-.2545-13.712-.2968-21.719-.2812zm-230.12,2.1875-.0937,.2812c69.553,.4435 139.13-.2062 208.69-.0625 6.5768-.0307 29.899,.006 27.281-.0937-78.625-.107-157.25-.0894-235.88-.125zm108.31,2.3125c-36.39,.0139-72.798,.035-109.19,.0312l-.2188,.625c84.862,1.1329 169.73-.0353 254.59-.4688-48.4-.1765-96.786-.206-145.19-.1875zm-109.72,1.4688-.0937,.2812c73.741,.3766 147.47-.2621 221.22-.125 7.2561-.0241 28.477,.007 28.219-.0625-83.11-.0573-166.23-.0677-249.34-.0937zm-.8438,2.2812-.125,.375c62.479,.3952 124.98-.2257 187.47-.0625 18.259-.0461 36.523-.007 54.781-.1562-80.709-.1922-161.42-.1523-242.12-.1562zm214.69,1.6562c-36.104-.0388-72.247,.4287-108.34,.0937-35.67,.009-71.33,.0231-107,0l-.125,.3438c48.13,.3081 96.303-.0898 144.44,.0312 39.717-.02 79.443,.0104 119.16,.3125l-.0625-.2812c-16.02-.3425-32.035-.4828-48.062-.5zm1.75,1.5938c-72.656,.1473-145.32,.5821-217.97,.875l-.125,.3438c3.4018-.009 6.699-.007 9.625,.0312 85.073,.007 170.15-.002 255.22,0l-.125-.625c-15.539-.3636-31.084-.4041-46.625-.625zm-122.97,2.87c-26.386,.1091-52.748,1.363-79.125,1.9375 76.052,.228 152.11-.0987 228.16,.1562-49.69-.71-99.36-2.24-149.04-2.09zm-96.469,1.9062-.0937,.2812c3.5644-.0283 7.1245-.0975 10.688-.1562-3.5257,.006-7.0694-.0607-10.594-.125zm266,.0312c-8.1561,.0375-29.299,.1533-10.094,.2812 2.474,.0125 6.9658,.0784 11.062,.125l-.0937-.4062c-.2912-.0004-.5838,0-.875,0zm-266.69,1.8125-.1875,.5c34.873,.7523 69.725,2.8542 104.62,1.9375 54.644-.0138 109.29,.006 163.94,.0312l-.03-.28c-74.27-.85-148.6,.86-222.87-.85-15.15-.71-30.3-1.15-45.47-1.34zm16.72,2.25c-4.8781,.0193-9.7459,.0811-14.625,.125 1.9862,.0298 3.9613,.1146 5.9375,.2812 14.655,.3344 29.314,.7205 43.969,1.0625h17.594c-11.375-.0614-22.759-.4046-34.125-1.25-6.243-.2109-12.496-.2435-18.75-.2188zm-17.594,.125v.0312c.8653-.006 1.7284-.0236 2.5938-.0312-.8588-.01-1.7336-.008-2.5938,0zm147.25,.2188c-22.749,.0008-45.497,1.0012-68.25,1.125h99.688c-1.952-.1862-3.8929-.3848-5.8438-.5938-8.5254-.3771-17.063-.5315-25.594-.5312z"/>
<path opacity=".5" fill="#8f5902" d="m486.75,304.38c-26.909,1.1911-53.916-.7296-80.765,1.8892-12.733,.1602-25.495-.6303-38.204,.4857 8.9601,1.5203 18.19-1.2273 27.28,.1017 21.146,.331 42.192-2.4494 63.346-1.4786 12.046-.0244 24.17,.3718 36.154-.9451-2.6008-.1902-5.2084,.0466-7.8113-.0529zm66.5,1.125c-9.4473,.8274-16.564,.6117-26.337,1.3345-24.749,2.3802-49.631,.814-74.45,1.1925-27.875-.1179-55.773-.1023-83.614,.9285 7.9104,.8071 23.478-.2546 34.316-.3009 40.064-.7101 80.17,.7974 120.22-.6612 22.939-1.8558 46.086-2.5607 69.044-1.5101 4.4252,1.1885 15.564,.9706 4.8538-.5587-14.67-1.02-29.37-.11-44.04-.42zm-110.47,5.0625c-19.723,1.3776-39.585-.3416-59.216,2.1738-4.5377,.2722-17.29-.4651-16.694,.1841 13.97,1.4406 27.873-.6416 41.807-1.162 21.614,.3649 43.187-1.1538 64.804-.6744 43.485-.0154 86.97-.0302 130.46-.0215-17.504-1.2256-35.115-.0746-52.664-.479-36.164,.002-72.329-.0508-108.49-.0211zm112.41,1.7812c-10.497-.306-15.078,2.2151-24.395,1.4335-17.095,1.4891-34.293,4.3737-51.468,3.8991-25.637-.4014-51.267-1.8964-76.838-.2858-12.891,.0501-25.783,.006-38.674-.0157 10.59,1.3017 21.523,.2672 32.255,.6261 24.81-.0385 49.528-2.9983 74.358-2.2458 21.526,.002 43.088,.619 64.543-1.4554 12.427-.2629 24.72-2.0158 37.175-1.4014 9.8894,.0003 19.779,.0245 29.668,.009-10.527,.0318 8.1812,.5522-.6544-.3958-15.321-.3625-30.648-.0205-45.97-.1675zm-93.812,5.4375c-3.2558-7.5951-48.148,.9379-72.171,2.4369-8.8269,.2133-17.657,.0449-26.485,.0943 32.43,2.4053 64.793-3.4039 97.253-2.0291 48.457,.0145 96.915-.0372 145.37,.0291-16.242-1.2655-32.606-.1282-48.899-.5311-31.69-.003-63.381,.004-95.07-.0001zm-85.062,4.6562c-5.1513-.0408-21.482,1.6819-8.4364,1.1036 38.05-1.2119 77.631,2.7372 115.7,2.4239 41.382-.002 81.265-2.9863 122.65-2.996-17.776-1.1689-35.644-.1308-53.462-.4881-58.815-.0201-117.63,.0387-176.44-.0433zm-16.25,5.0625c13.938,1.4136 28.018,.0642 42.018,.5625 68.369-.0001 136.74-.0008 205.11,0-13.548-1.3932-27.242-.0916-40.851-.5626-68.758,.0001-137.52,.0005-206.27,.0001zm247.47,2.1875c-42.194,1.545-84.427,.2907-126.64,.7172-40.642,.004-81.283,.002-121.92,.002 12.719,1.2402 25.594,.0638 38.375,.4918 67.253-.1155 134.54,.2774 201.77-.1801 2.7042-.4187 6.0722,.6718 8.4174-1.0305zm-249.34,2.8438c14.68,1.3151 29.491,.1885 44.23,.5624 68.58,.0002 137.16,0 205.74,.0001-19.186-1.1851-38.462-.1448-57.687-.5005-64.094-.002-128.19-.0153-192.28-.062zm228.05,2.91c-76.396,.1015-152.79,.0829-229.19,.0624 23.588,1.0038 50.243,1.1484 73.859,1.4347 60.266-.0008 117.53-.994 177.8-.966-7.4202-1.38-14.989-.072-22.469-.5311zm1.9375,1.8125c-77.26,.1053-154.52,.0749-231.78,.0312 17.405,1.0729 34.905,.0879 52.35,.4326 66.769-.004 133.54,.0263 200.31,.0674-6.8891-1.3136-13.926-.1187-20.875-.5312zm-232.84,2.875c13.899,1.4048 27.95,.0833 41.912,.5602 70.79-.0123 141.58-.0642 212.37-.029-18.86-1.2437-37.817-.1354-56.719-.4994-65.854-.0258-131.71-.0419-197.56-.0319zm-.7812,2.125c12.833,1.5244 25.851-.002 38.758,.5617 68.896,.2188 137.8-.4521 206.69,.3896 4.8109,.147 14.796,.6018 4.5429-.3683-31.982-1.1267-64.02-.2511-96.025-.5241-51.322,.0135-102.65,.0467-153.97-.0589zm27.125,2.9062c-7.519,.3307-25.593-.5451-26.393,.5528 85.1,.0225 170.2,.004 255.3,.01-16.738-1.2239-35.586-1.1688-52.371-1.536-59.512-.009-117.02,1.0147-176.54,.9735zm-23.92,4.35c-13.041,.3282 4.2516,.7987 8.392,.8576 32.883,1.013 66.805-2.8864 99.707-2.6033 48.894-.002 96.788,2.9682 145.68,3.0272-14.225-1.3364-28.583-.0723-42.866-.5506-64.984-.0509-129.97,.2157-194.95-.152-5.2823-.8148-10.641-.5298-15.963-.579zm-7,2.9062c13.706,1.395 27.584-.2474 41.348,.8671 21.183,1.4051 42.38,2.8705 63.623,2.1782 52.239-.0266 104.48-.0257 156.72,.0172-11.961-1.2986-24.074-.1052-36.102-.5593-50.678-.1359-101.37,.4698-152.04-.3614-24.484-2.0561-48.992-2.5252-73.548-2.1418zm-.5625,1.5312c9.3003,4.7503 20.398,.4736 30.433,1.8566 27.247-.5761 54.373,2.8702 81.624,2.2536 21.185,.1715 42.423-1.0004 63.527,1.3583 5.8347,.4997 10.863-.33 12.526,.3476 20.079,2.3792 40.35,.5574 60.512,1.0294 4.8342,.1838 20.721-1.5697 8.3696-1.1608-18.147,1.0135-36.353,.8164-54.53,.5906-12.193-1.4185-25.454-3.0516-37.671-4.4625-30.934-1.111-60.968,2.7723-91.895,.6389-22.795-2.4451-45.804,.0213-68.602-1.7121-1.4126-.3321-2.8284-.7383-4.2938-.7396zm-2.25,6.0312c14.861,1.7354 29.946-.7904 44.807,1.5619 17.193,.9421 34.461,.241 51.683,1.081 56.458,.2075 112.92-.0751 169.39,.076-20.785-1.1875-41.65-.2315-62.473-.5308-37.572,.0004-75.143-.001-112.71-.0004 2.2172-.4956-10.707-.6444-14.105-.7356-12.677-.0472-25.367,.4408-37.949-1.3792-12.873-.46-25.755,.3032-38.634-.0728zm-.9062,2.5c8.4257,4.9725 19.022,.3239 28.318,2.1759 45.099,1.2772 90.227,.0403 135.33,.7937 23.788,1.6444 47.617,2.84 71.484,2.2398 9.5857,.5474 18.83-1.8948 28.409-1.8994 8.517-1.5045-7.6166-.9008-10.644-.2604-20.975,3.1242-42.285,1.3612-63.392,.8389-36.293-2.98-72.76-1.3222-109.14-1.6576-22.897,.3088-45.751-.9423-68.642-.8048-3.9689-.1097-7.9067-.2544-11.724-1.4261zm-1.0938,2.9062c9.9217,.9216 19.936,.8795 29.857,1.6311 17.033-.3076 34.072,.1611 51.057,1.2126h60.805c-25.934-1.1262-51.976,.9714-77.822-1.7561-17.117,.0728-34.256,.1954-51.321-1.0891-4.1916-.002-8.3836,.003-12.575,.002z"/>
<path opacity=".5" fill="#c17d11" d="m616.62,367.34c-88.115,.0874-176.23,.038-264.34,.125 88.135,.0663 176.27,.0507 264.41,.0625l-.0625-.1875zm-253.91,1.625c-4.2848-.3113-19.859,.5299-6.9771,.7273 24.772,.4762 49.547,.0184 74.321-.009-26.973,.4396-54.089-.002-80.969,.5938 72.01-.1485 144.02,.2011 216.03,.2962 16.682-.0613 33.371-.2321 50.034-1.1087-39.962-1.0569-79.929,.9201-119.9,.1593-21.462-.046-42.923-.017-64.385,.0595 7.4588-.0858 20.845-.2363 24.612-.3114-30.923-.0471-61.845-.4033-92.769-.4074zm93.875,.4062c8.5299-.002 26.228-.1025 29.328-.3002-9.776,.0416-19.552,.1955-29.328,.3002zm-39.219,1.4688c-22.851,.3666-46.052,.0952-68.688,.2187 4.8551,.1651 3.7829-.1463 .125,.4375 41.626-.313 83.251,.6565 124.88,.2842 7.2719-.0121 23.676-.0289 25.112-.0349-40.006-.052-80.013-.095-120.02-.5287 75.914-.372 151.83-.1264 227.74-.2831-63.052-.1196-126.1-.0823-189.16-.0937zm199.19,.625c-37.885,.1668-75.771,.2893-113.66,.2812 9.7606-.008 26.996,.0001 32.106,.0371-58.016,.0613-116.03,.7236-174.05-.0887-4.3998-.0754-18.617,.1184-6.1322,.155 16.379,.0509 32.756,.2839 49.133,.459-18.163,.5316-36.921,.2338-54.719,.6875 8.6878,.0178 27.728-.2394 29.831-.1178-7.1946,.5913-28.441-.1163-27.394,.649-4.8888,.3895 9.41,.1368 12.185,.1853 80.99,.0613 161.98,.2348 242.97,.0647-77.698-.1287-155.4,.0857-233.09-.2812 25.664-.47 51.334-.3751 77-.6562-16.125-.0577-32.25-.1407-48.375-.25 27.591-.3272 55.182,.6222 82.769-.267 15.743-.1346 31.487-.2187 47.231-.2017 4.0416-.1259 15.96-.1539 23.025-.2424 20.387-.1795 40.775-.3462 61.162-.4139zm-84.17,.66c27.914,.6754 55.83,1.3882 83.75,1.75-5.9891-1.5506-15.019-.5651-22.131-1.1224-20.537-.4249-41.078-.6055-61.619-.6276zm-78.156,.6875c-7.397,.0654 7.9906,.039 10.782,.0579 5.0257,.0143-8.8649-.03-10.782-.0579zm12.78,.07c22.134,.0167 45.62,.1843 66.906,0-22.304-.739-44.599,.1632-66.906,0zm-117.38,1.3438c9.1455,.8318 19.337,.1987 28.884,.4941 43.206,.601 86.411,.3566 129.62-.1112 11.271-.0648 22.541-.091 33.812-.1641-64.104-.1618-128.21-.0989-192.31-.2188zm192.31,.2188c20.771-.0331 41.545,.4287 62.312-.0937-20.771-.1639-41.542-.0356-62.312,.0937zm45.406,.1875c-18.561,.2719-37.124,.4183-55.688,.5312 28.104-.0647 56.21-.0211 84.312-.375-9.5416-.0621-19.083-.1111-28.625-.1562zm-145.56,.5625c-3.7963,.0462-13.836,.1193-14.46,.1588 14.289,.026 28.578,.0255 42.866,.0599-5.2836,.0141-17.51,.037-6.5043,.0312h21.067c-4.0454-.026-20.48-.0209-8.8564-.0473 7.7438-.0235 15.488-.048 23.231-.0776-19.115,.0611-38.23-.004-57.344-.125zm16,.25h-43.3955c4.1856-.0419 17.037-.1058 6.1686-.1054-23.462,.1351-47.502-.6426-70.637-.2071 20.99,.0858 41.98,.1045 62.969,.3125-6.4493,.0663-18.844,.1848-21.57,.2168 22.159-.0381 44.318-.1383 66.476-.2168zm-67.594,.2188c-13.311,.0853-26.968-.0732-40.063,.1562 13.354-.0231 26.709-.0566 40.063-.1562zm200.91,.75c-80.17,.1828-160.86,.0362-240.69,.2812 88.083,.2305 176.17,.2487 264.25-.1875-7.8537-.1033-15.708-.095-23.562-.0937zm-240.56,.7812c82.126,.3149 164.54-.0241 246.78,.0313-82.26-.037-164.52-.0201-246.78-.0313zm108.34,.81c-36.031,.005-72.062,.0311-108.09,.0312 27.925,.6866 56.601,.2233 84.815,.3818 59.926-.0155 119.85-.217 179.78-.3193-52.17-.06-104.34-.1-156.5-.09zm-107.94,.5312c86.355,.2886 173-.0168 259.47,.0313-86.49-.0198-172.98-.0226-259.47-.0313z"/>
<path opacity=".5" fill="#6d4302" d="m347.91,365.88 .0625,.1562c14.275,.9236 28.651-.1657 42.969,.2812 75.516-.0001 151.05-.0008 226.56,0-2.4005-.2165-4.811-.3375-7.2188-.4375h-262.37zm269.62,2.0312c-46.49,1.4797-93.023,.2754-139.53,.6875-43.088,.004-86.193,.0001-129.28,0l.125,.3438c12.245,.5696 24.605-.2354 36.875,.125 74.282-.1119 148.58,.2869 222.84-.1562 2.8456-.3863 6.3718,.5549 8.9375-.7812l.0312-.2188zm-22.84,2.71c-13.278-.0153-26.572,.3091-39.844,.0937-68.491-.002-136.98-.0207-205.47-.0625l.0937,.4062c13.918,.5767 27.902-.1852 41.844,.125 75.206,.0002 150.42-.0001 225.62,0v-.0625c-7.4064-.3634-14.827-.4914-22.25-.5zm15.219,2.7188c-5.1763,.006-10.368,.403-15.531,.125-81.381,.0949-162.78,.0813-244.16,.0625l.0937,.2812c23.674,.703 49.408,.8482 72.5,1.0938 65.643-.0008 128.07-.9376 193.62-.9375l.07-.35c-2.1905-.2186-4.389-.2837-6.5938-.2812zm1.0312,1.7812c-4.8095-.007-9.6407,.3435-14.438,.0937-81.919,.0979-163.83,.0707-245.75,.0312l.125,.375c15.797,.3519 31.631-.2427 47.438,.0312 72.592-.004 145.19,.0549 217.78,.0937l.0937-.4062c-1.7448-.1469-3.4953-.2163-5.25-.2188zm-14.219,2.8125c-13.055-.0106-26.139,.3141-39.188,.0937-68.64-.01-137.29-.03-205.94-.02l.0625,.2188h262.03c-5.6508-.2089-11.308-.2767-16.969-.2812z"/>
</g>
<g transform="translate(-345.4548 -289.55)">
<path fill="none" stroke="#000" d="m507.7,292.05z"/>
</g>
</svg>
