<svg xmlns="http://www.w3.org/2000/svg" viewBox="0 0 307.59 210.84" xmlns:xlink="http://www.w3.org/1999/xlink">
<defs>
<linearGradient id="linearGradient5491" y1="132.36" y2="301.57" x1="-8" gradientUnits="userSpaceOnUse" x2="213.27">
<stop offset="0" stop-color="#06712e"/>
<stop offset="1" stop-color="#63a67c"/>
</linearGradient>
<linearGradient gradientTransform="translate(13 82)" id="linearGradient5302" y1="37.362" x1="169" y2="196.88" gradientUnits="userSpaceOnUse" x2="174">
<stop offset="0" stop-color="#c17d11"/>
<stop offset="1" stop-color="#8f5902"/>
</linearGradient>
<linearGradient gradientTransform="matrix(2.5136 0 0 3.2574 -233.89 -811.59)" id="linearGradient6199" y1="431.36" y2="492.41" gradientUnits="userSpaceOnUse" x2="0">
<stop offset="0" stop-color="#c5913e"/>
<stop offset=".156" stop-color="#8f5902"/>
<stop offset=".483" stop-color="#8f5902" stop-opacity=".612"/>
<stop offset=".598" stop-color="#8f5902"/>
<stop offset="1" stop-color="#8f5902" stop-opacity="0"/>
</linearGradient>
<linearGradient gradientTransform="translate(-1.7774 -27.64)" id="linearGradient6197" y1="826.01" x1="-818.17" y2="832.34" gradientUnits="userSpaceOnUse" x2="-376.49">
<stop offset="0"/>
<stop offset=".167" stop-color="#5d5c5c"/>
<stop offset=".307"/>
<stop offset=".506" stop-color="#7c7c7c"/>
<stop offset=".646"/>
<stop offset=".803" stop-color="#ccc"/>
<stop offset=".893"/>
<stop offset="1" stop-opacity="0"/>
</linearGradient>
</defs>
<g transform="translate(105.03 -95.875)">
<path fill="url(#linearGradient5491)" d="m-97.216,105.44h276.49v167.14h-276.49z"/>
</g>
<g transform="translate(105.03 -95.875)">
<path fill="url(#linearGradient5302)" d="m-104,95.875v183h291v-183h-291zm10,10h271v163h-271v-163z"/>
</g>
<g color="#000" transform="translate(105.03 -95.875)">
<path fill="#e9b96e" d="m-104,95.875v1.1875l10,10.094v-1.2812h.0938l-9.875-10h-.2188z"/>
<path fill="#8f5902" d="m-103.88,95.875 9.875,10h1.4062l-9.875-10h-1.4062z"/>
<path fill="#784b02" d="m-104,278.63v-1.1875l10-10.094v1.2812h.0938l-9.875,10h-.2188z"/>
<path fill="#c17d11" d="m-103.88,278.8 9.875-10h1.4062l-9.875,10h-1.4062z"/>
<path fill="#e9b96e" d="m187.14,95.875v1.1875l-10,10.094v-1.2812h-.0937l9.875-10h.2188z"/>
<path fill="#8f5902" d="m187.02,95.875-9.875,10h-1.4062l9.875-10h1.4062z"/>
<path fill="#784b02" d="m187.14,278.63v-1.1875l-10-10.094v1.2812h-.0937l9.875,10h.2188z"/>
<path fill="#c17d11" d="m187.02,278.8-9.875-10h-1.4062l9.875,10h1.4062z"/>
</g>
<g transform="translate(105.03 -95.875)">
<path opacity=".383" fill="#2e3436" d="m-95.121,104.52 .7071,165.47 4-.7071 .7071-156.77h267v-8h-272.41z"/>
<path opacity=".383" fill="#eeeeec" d="m178.34,104.53-4,.6875v.6562h2.6562v163h-270.34v1.125h272.41l-.7188-165.47z"/>
</g>
<g fill="#e9b96e" stroke="#e9b96e">
<g transform="translate(105.03 -95.875)">
<path opacity=".3" d="m121.53,97c-2.5611,.015-5.1435,.2823-7.7188,.5938 1.7034,.1135 3.3835,.2828 5.0625,.5 3.5105,.335 6.9995,.1774 10.469-.0625-2.5823-.7835-5.1812-1.0467-7.8125-1.0312zm7.8125,1.0312c.0731,.0222 .1457,.0395 .2188,.0625 6.6191-.3943 13.189-.0803 19.75,.125-6.588-1.4811-13.251-.652-19.969-.1875zm19.969,.1875c.7657,.1721 1.517,.3858 2.2812,.625 .78-.2028 1.601-.3669 2.4375-.5-1.5716-.0212-3.1486-.0759-4.7188-.125zm4.7188,.125c3.4345,.0464 6.8568,.0197 10.312-.25 4.0254-.1644 7.8746,.2693 11.812,.1875-7.3252-.0654-15.524-.9876-22.125,.0625zm-40.219-.75c-5.5373-.3689-11.157-.2205-16.656,.3125 2.1466,.1189 4.2945,.2827 6.4688,.5625 3.3707-.0069 6.7769-.4625 10.188-.875zm-16.656,.3125c-5.8973-.3267-11.721-.141-17.594,.1875 3.2083,.2676 6.4114,.5979 9.625,.8438 2.5987-.4233 5.2807-.7707 7.9688-1.0312zm-17.594,.1875c-6.0936-.5082-12.164-.7696-18.094,.2188-.7109,.054-1.4159,.085-2.125,.125 4.6959,.5298 9.3558,.9099 13.844,.0625 2.1377-.1311 4.258-.2878 6.375-.4062zm-20.216,.344c-6.6919-.7549-13.497-1.8294-20.156-.125-.2212,.031-.4348,.0363-.6562,.0625 6.9554,.2121 13.85,.4554 20.812,.0625zm-20.813-.063c-3.582-.109-7.17-.219-10.812-.219-1.39-.131-2.789-.145-4.188-.156 5.0466,.4101 10.05,.961 15,.375zm-15-.375c-4.711-.383-9.442-.632-14.25,.375-7.361-.931-14.779-.527-22.156-.187 5.0285,.086 10.036,.134 14.938-.094 7.1503,.988 14.348-.149 21.468-.094zm-36.406,.188c-3.9479-.0681-7.9096-.1444-11.906-.1562 .7023,.1359 1.4061,.2889 2.0938,.4688 3.264,.0088 6.5346-.1617 9.8125-.3125zm-11.906-.1562c-3.781-.7316-7.7645-.8702-11.812-.7188 1.9999,.108 3.9472,.3649 5.8438,.7812 1.9882-.0484 3.9878-.0684 5.9688-.0625zm-64.031-.875c-2.1803,.0609-4.3092,.4047-6.4375,.7812 3.3138-.0016 6.5414,.0318 8.75,.0938 2.052-.0328 4.1064-.0269 6.1562,0-1.2018-.1268-2.4155-.299-3.625-.4688-1.6418-.3647-3.256-.4506-4.8438-.4062zm-6.438,.781c-2.0804,.001-4.0258-.0154-5.9688,0l.6875,.8125c1.7624-.1975 3.5194-.5008 5.2812-.8125zm55.812-.688c-6.5719-.0274-13.451,.9013-19.969,.5625-7.0331,.5833-13.976,.3101-20.906,.2188 8.4835,.8928 16.793,.7694 25.219,.7188 5.9304-.3402 12.158-1.1928 18.25-1.4375-.8567-.042-1.724-.0589-2.5938-.0625zm223.34,.5938-4.5,.25c-.9586,.1119-1.9019,.1586-2.8438,.1875 2.6015,.0113 5.09-.0824 7.3438-.4375z"/>
<path opacity=".3" d="m135.44,102.34c-3.3614,.0183-6.745,.3378-10.125,.7188 2.2487,.1374 4.4713,.3272 6.6875,.5938 4.5767,.4062 9.1335,.2291 13.656-.0625-3.3676-.9547-6.7869-1.2687-10.219-1.25zm10.219,1.25c.0835,.0237 .1665,.038 .25,.0625 8.5966-.4762 17.104-.0607 25.625,.1875-8.5469-1.7852-17.16-.8118-25.875-.25zm25.875,.25c.9981,.2085 2.0039,.4288 3,.7188 1.0327-.2497 2.064-.4354 3.0938-.5938-2.0321-.0259-4.0636-.0659-6.0938-.125zm6.0938,.125c.861,.011 1.7327,.0289 2.5938,.0312l.3125-.375c-.9666,.0822-1.9388,.195-2.9062,.3438zm-52.312-.9062c-7.1559-.4373-14.425-.2332-21.531,.4062 2.785,.1438 5.5854,.3499 8.4062,.6875 4.3488-.008 8.7247-.5978 13.125-1.0938zm-21.531,.4062c-7.6608-.3955-15.247-.1777-22.875,.2188 4.169,.3234 8.3554,.7342 12.531,1.0312 3.3856-.5129 6.8416-.9348 10.344-1.25zm-22.875,.2188c-7.9214-.6144-15.823-.9449-23.531,.25-.9115,.0643-1.8097,.0771-2.7188,.125 6.0944,.6389 12.113,1.1165 17.938,.0937 2.7882-.159 5.5513-.3252 8.3125-.4688zm-26.25,.375c-8.7066-.9127-17.554-2.1874-26.219-.125-.2789,.0363-.5646,.0628-.8438,.0937 9.0521,.2567 18,.509 27.062,.0312zm-27.062-.0312c-4.6565-.1321-9.3582-.2501-14.094-.25-1.8613-.1639-3.7203-.2401-5.5938-.25 6.6312,.4969 13.184,1.2198 19.688,.5zm-19.688-.5c-6.0626-.4543-12.189-.7046-18.375,.5-9.4905-1.1165-19.02-.6272-28.531-.2188 6.456,.1022 12.861,.1479 19.156-.125 9.2393,1.1879 18.549-.2047 27.75-.1562zm-46.915,.28c-5.1543-.0816-10.344-.2023-15.562-.2188 .8632,.1581 1.7164,.3567 2.5625,.5625 4.3198,.0108 8.6616-.1574 13-.3438zm-15.562-.2188c-5.094-.93-10.474-1.05-15.938-.84 2.7463,.1211 5.4327,.3757 8.0312,.9062 2.6395-.0598 5.2767-.0708 7.9062-.0625zm-15.938-.84c-8.416-.371-17.386,.7186-25.969,.6562l.9688,1.0625c.4599-.003 .9146,.003 1.375,0 7.6718-.4093 15.742-1.4175 23.625-1.7188z"/>
<path opacity=".3" d="m-50.25,99.875c-3.4331-.0155-6.85,.2373-10.219,1.0312 4.5227,.2423 9.0796,.4 13.656,.0625 2.2099-.2209 4.4452-.3858 6.6875-.5-3.38-.3166-6.7636-.5785-10.125-.5938zm10.125,.5938c4.4003,.4122 8.8074,.8681 13.156,.875 2.7861-.2771 5.5302-.4428 8.2812-.5625-7.0825-.5262-14.307-.6755-21.438-.3125zm21.438,.3125c3.5347,.2626 7.0524,.6012 10.469,1.0312 4.1681-.2464 8.3387-.544 12.5-.8125-7.6626-.3309-15.273-.5537-22.969-.2188zm22.968,.22c2.7612,.1192 5.5243,.2429 8.3125,.375 5.8218,.8495 11.846,.468 17.938-.0625-.9091-.0398-1.8073-.0715-2.7188-.125-7.716-1-15.601-.7-23.531-.19zm26.25,.3125c9.0338,.3957 17.977,.1817 27-.0312-.2587-.0241-.5228-.0657-.7812-.0937-8.6676-1.7144-17.509-.6647-26.219,.0937v.0312zm27-.0312c6.5358,.6088 13.147-.023 19.812-.4375-1.8944,.007-3.7742,.0498-5.6562,.1875-4.7645-.0001-9.4716,.1395-14.156,.25zm19.812-.4375c9.1806-.0348 18.469,1.1412 27.688,.1562 6.3561,.229 12.824,.1804 19.344,.0937-9.5658-.3405-19.174-.7769-28.719,.1562-6.1731-.9988-12.263-.7823-18.312-.4062zm47.031,.25c4.2836,.1525 8.5471,.2901 12.812,.2812 .8755-.177 1.7624-.3342 2.6562-.4688-5.182,.0128-10.35,.1195-15.469,.1875zm15.469-.1875c2.6032-.006 5.1996,.0136 7.8125,.0625 2.5929-.4399 5.2913-.649 8.0312-.75-5.4316-.1725-10.777-.0752-15.844,.6875zm15.844-.6875c7.8831,.2503 15.953,1.0662 23.625,1.4062 .9938,.005 1.9771-.005 2.9688,0l.8125-.9062c-9.0254,.1827-18.508-.8279-27.406-.5zm-216.16,.6875c-8.7683-.4697-17.433-1.3022-26.031,.2188 8.573-.2058 17.132-.5544 25.781-.1562 .0823-.02 .1677-.0431 .25-.0625zm-26.02,.22c-1.9784,.0475-3.9573,.0728-5.9375,.0937 1.0298,.1316 2.061,.2925 3.0938,.5 .9443-.2284 1.8977-.4264 2.8438-.5938zm-5.9375,.0937c-2.1034-.2687-4.1864-.3706-6.2812-.4062l.2188,.2812 .125,.125c1.9831,.0246 3.9561,.021 5.9375,0z"/>
</g>
<g stroke-width="1.005" transform="matrix(.98952 0 0 -1 104.71349 279.125)">
<path opacity=".3" d="m121.53,97c-2.5611,.015-5.1435,.2823-7.7188,.5938 1.7034,.1135 3.3835,.2828 5.0625,.5 3.5105,.335 6.9995,.1774 10.469-.0625-2.5823-.7835-5.1812-1.0467-7.8125-1.0312zm7.8125,1.0312c.0731,.0222 .1457,.0395 .2188,.0625 6.6191-.3943 13.189-.0803 19.75,.125-6.588-1.4811-13.251-.652-19.969-.1875zm19.969,.1875c.7657,.1721 1.517,.3858 2.2812,.625 .78-.2028 1.601-.3669 2.4375-.5-1.5716-.0212-3.1486-.0759-4.7188-.125zm4.7188,.125c3.4345,.0464 6.8568,.0197 10.312-.25 4.0254-.1644 7.8746,.2693 11.812,.1875-7.3252-.0654-15.524-.9876-22.125,.0625zm-40.219-.75c-5.5373-.3689-11.157-.2205-16.656,.3125 2.1466,.1189 4.2945,.2827 6.4688,.5625 3.3707-.0069 6.7769-.4625 10.188-.875zm-16.656,.3125c-5.8973-.3267-11.721-.141-17.594,.1875 3.2083,.2676 6.4114,.5979 9.625,.8438 2.5987-.4233 5.2807-.7707 7.9688-1.0312zm-17.594,.1875c-6.0936-.5082-12.164-.7696-18.094,.2188-.7109,.054-1.4159,.085-2.125,.125 4.6959,.5298 9.3558,.9099 13.844,.0625 2.1377-.1311 4.258-.2878 6.375-.4062zm-20.216,.344c-6.6919-.7549-13.497-1.8294-20.156-.125-.2212,.031-.4348,.0363-.6562,.0625 6.9554,.2121 13.85,.4554 20.812,.0625zm-20.813-.063c-3.582-.109-7.17-.219-10.812-.219-1.39-.131-2.789-.145-4.188-.156 5.0466,.4101 10.05,.961 15,.375zm-15-.375c-4.711-.383-9.442-.632-14.25,.375-7.361-.931-14.779-.527-22.156-.187 5.0285,.086 10.036,.134 14.938-.094 7.1503,.988 14.348-.149 21.468-.094zm-36.406,.188c-3.9479-.0681-7.9096-.1444-11.906-.1562 .7023,.1359 1.4061,.2889 2.0938,.4688 3.264,.0088 6.5346-.1617 9.8125-.3125zm-11.906-.1562c-3.781-.7316-7.7645-.8702-11.812-.7188 1.9999,.108 3.9472,.3649 5.8438,.7812 1.9882-.0484 3.9878-.0684 5.9688-.0625zm-64.031-.875c-2.1803,.0609-4.3092,.4047-6.4375,.7812 3.3138-.0016 6.5414,.0318 8.75,.0938 2.052-.0328 4.1064-.0269 6.1562,0-1.2018-.1268-2.4155-.299-3.625-.4688-1.6418-.3647-3.256-.4506-4.8438-.4062zm-6.438,.781c-2.0804,.001-4.0258-.0154-5.9688,0l.6875,.8125c1.7624-.1975 3.5194-.5008 5.2812-.8125zm55.812-.688c-6.5719-.0274-13.451,.9013-19.969,.5625-7.0331,.5833-13.976,.3101-20.906,.2188 8.4835,.8928 16.793,.7694 25.219,.7188 5.9304-.3402 12.158-1.1928 18.25-1.4375-.8567-.042-1.724-.0589-2.5938-.0625zm223.34,.5938-4.5,.25c-.9586,.1119-1.9019,.1586-2.8438,.1875 2.6015,.0113 5.09-.0824 7.3438-.4375z"/>
<path opacity=".3" d="m135.44,102.34c-3.3614,.0183-6.745,.3378-10.125,.7188 2.2487,.1374 4.4713,.3272 6.6875,.5938 4.5767,.4062 9.1335,.2291 13.656-.0625-3.3676-.9547-6.7869-1.2687-10.219-1.25zm10.219,1.25c.0835,.0237 .1665,.038 .25,.0625 8.5966-.4762 17.104-.0607 25.625,.1875-8.5469-1.7852-17.16-.8118-25.875-.25zm25.875,.25c.9981,.2085 2.0039,.4288 3,.7188 1.0327-.2497 2.064-.4354 3.0938-.5938-2.0321-.0259-4.0636-.0659-6.0938-.125zm6.0938,.125c.861,.011 1.7327,.0289 2.5938,.0312l.3125-.375c-.9666,.0822-1.9388,.195-2.9062,.3438zm-52.312-.9062c-7.1559-.4373-14.425-.2332-21.531,.4062 2.785,.1438 5.5854,.3499 8.4062,.6875 4.3488-.008 8.7247-.5978 13.125-1.0938zm-21.531,.4062c-7.6608-.3955-15.247-.1777-22.875,.2188 4.169,.3234 8.3554,.7342 12.531,1.0312 3.3856-.5129 6.8416-.9348 10.344-1.25zm-22.875,.2188c-7.9214-.6144-15.823-.9449-23.531,.25-.9115,.0643-1.8097,.0771-2.7188,.125 6.0944,.6389 12.113,1.1165 17.938,.0937 2.7882-.159 5.5513-.3252 8.3125-.4688zm-26.25,.375c-8.7066-.9127-17.554-2.1874-26.219-.125-.2789,.0363-.5646,.0628-.8438,.0937 9.0521,.2567 18,.509 27.062,.0312zm-27.062-.0312c-4.6565-.1321-9.3582-.2501-14.094-.25-1.8613-.1639-3.7203-.2401-5.5938-.25 6.6312,.4969 13.184,1.2198 19.688,.5zm-19.688-.5c-6.0626-.4543-12.189-.7046-18.375,.5-9.4905-1.1165-19.02-.6272-28.531-.2188 6.456,.1022 12.861,.1479 19.156-.125 9.2393,1.1879 18.549-.2047 27.75-.1562zm-46.915,.28c-5.1543-.0816-10.344-.2023-15.562-.2188 .8632,.1581 1.7164,.3567 2.5625,.5625 4.3198,.0108 8.6616-.1574 13-.3438zm-15.562-.2188c-5.094-.93-10.474-1.05-15.938-.84 2.7463,.1211 5.4327,.3757 8.0312,.9062 2.6395-.0598 5.2767-.0708 7.9062-.0625zm-15.938-.84c-8.416-.371-17.386,.7186-25.969,.6562l.9688,1.0625c.4599-.003 .9146,.003 1.375,0 7.6718-.4093 15.742-1.4175 23.625-1.7188z"/>
<path opacity=".3" d="m-50.25,99.875c-3.4331-.0155-6.85,.2373-10.219,1.0312 4.5227,.2423 9.0796,.4 13.656,.0625 2.2099-.2209 4.4452-.3858 6.6875-.5-3.38-.3166-6.7636-.5785-10.125-.5938zm10.125,.5938c4.4003,.4122 8.8074,.8681 13.156,.875 2.7861-.2771 5.5302-.4428 8.2812-.5625-7.0825-.5262-14.307-.6755-21.438-.3125zm21.438,.3125c3.5347,.2626 7.0524,.6012 10.469,1.0312 4.1681-.2464 8.3387-.544 12.5-.8125-7.6626-.3309-15.273-.5537-22.969-.2188zm22.968,.22c2.7612,.1192 5.5243,.2429 8.3125,.375 5.8218,.8495 11.846,.468 17.938-.0625-.9091-.0398-1.8073-.0715-2.7188-.125-7.716-1-15.601-.7-23.531-.19zm26.25,.3125c9.0338,.3957 17.977,.1817 27-.0312-.2587-.0241-.5228-.0657-.7812-.0937-8.6676-1.7144-17.509-.6647-26.219,.0937v.0312zm27-.0312c6.5358,.6088 13.147-.023 19.812-.4375-1.8944,.007-3.7742,.0498-5.6562,.1875-4.7645-.0001-9.4716,.1395-14.156,.25zm19.812-.4375c9.1806-.0348 18.469,1.1412 27.688,.1562 6.3561,.229 12.824,.1804 19.344,.0937-9.5658-.3405-19.174-.7769-28.719,.1562-6.1731-.9988-12.263-.7823-18.312-.4062zm47.031,.25c4.2836,.1525 8.5471,.2901 12.812,.2812 .8755-.177 1.7624-.3342 2.6562-.4688-5.182,.0128-10.35,.1195-15.469,.1875zm15.469-.1875c2.6032-.006 5.1996,.0136 7.8125,.0625 2.5929-.4399 5.2913-.649 8.0312-.75-5.4316-.1725-10.777-.0752-15.844,.6875zm15.844-.6875c7.8831,.2503 15.953,1.0662 23.625,1.4062 .9938,.005 1.9771-.005 2.9688,0l.8125-.9062c-9.0254,.1827-18.508-.8279-27.406-.5zm-216.16,.6875c-8.7683-.4697-17.433-1.3022-26.031,.2188 8.573-.2058 17.132-.5544 25.781-.1562 .0823-.02 .1677-.0431 .25-.0625zm-26.02,.22c-1.9784,.0475-3.9573,.0728-5.9375,.0937 1.0298,.1316 2.061,.2925 3.0938,.5 .9443-.2284 1.8977-.4264 2.8438-.5938zm-5.9375,.0937c-2.1034-.2687-4.1864-.3706-6.2812-.4062l.2188,.2812 .125,.125c1.9831,.0246 3.9561,.021 5.9375,0z"/>
</g>
<g stroke-width="1.282">
<g transform="matrix(0 .60856 -1 0 388.75 67.335)">
<path opacity=".3" d="m121.53,97c-2.5611,.015-5.1435,.2823-7.7188,.5938 1.7034,.1135 3.3835,.2828 5.0625,.5 3.5105,.335 6.9995,.1774 10.469-.0625-2.5823-.7835-5.1812-1.0467-7.8125-1.0312zm7.8125,1.0312c.0731,.0222 .1457,.0395 .2188,.0625 6.6191-.3943 13.189-.0803 19.75,.125-6.588-1.4811-13.251-.652-19.969-.1875zm19.969,.1875c.7657,.1721 1.517,.3858 2.2812,.625 .78-.2028 1.601-.3669 2.4375-.5-1.5716-.0212-3.1486-.0759-4.7188-.125zm4.7188,.125c3.4345,.0464 6.8568,.0197 10.312-.25 4.0254-.1644 7.8746,.2693 11.812,.1875-7.3252-.0654-15.524-.9876-22.125,.0625zm-40.219-.75c-5.5373-.3689-11.157-.2205-16.656,.3125 2.1466,.1189 4.2945,.2827 6.4688,.5625 3.3707-.0069 6.7769-.4625 10.188-.875zm-16.656,.3125c-5.8973-.3267-11.721-.141-17.594,.1875 3.2083,.2676 6.4114,.5979 9.625,.8438 2.5987-.4233 5.2807-.7707 7.9688-1.0312zm-17.594,.1875c-6.0936-.5082-12.164-.7696-18.094,.2188-.7109,.054-1.4159,.085-2.125,.125 4.6959,.5298 9.3558,.9099 13.844,.0625 2.1377-.1311 4.258-.2878 6.375-.4062zm-20.216,.344c-6.6919-.7549-13.497-1.8294-20.156-.125-.2212,.031-.4348,.0363-.6562,.0625 6.9554,.2121 13.85,.4554 20.812,.0625zm-20.813-.063c-3.582-.109-7.17-.219-10.812-.219-1.39-.131-2.789-.145-4.188-.156 5.0466,.4101 10.05,.961 15,.375zm-15-.375c-4.711-.383-9.442-.632-14.25,.375-7.361-.931-14.779-.527-22.156-.187 5.0285,.086 10.036,.134 14.938-.094 7.1503,.988 14.348-.149 21.468-.094zm-36.406,.188c-3.9479-.0681-7.9096-.1444-11.906-.1562 .7023,.1359 1.4061,.2889 2.0938,.4688 3.264,.0088 6.5346-.1617 9.8125-.3125zm-11.906-.1562c-3.781-.7316-7.7645-.8702-11.812-.7188 1.9999,.108 3.9472,.3649 5.8438,.7812 1.9882-.0484 3.9878-.0684 5.9688-.0625zm-64.031-.875c-2.1803,.0609-4.3092,.4047-6.4375,.7812 3.3138-.0016 6.5414,.0318 8.75,.0938 2.052-.0328 4.1064-.0269 6.1562,0-1.2018-.1268-2.4155-.299-3.625-.4688-1.6418-.3647-3.256-.4506-4.8438-.4062zm-6.438,.781c-2.0804,.001-4.0258-.0154-5.9688,0l.6875,.8125c1.7624-.1975 3.5194-.5008 5.2812-.8125zm55.812-.688c-6.5719-.0274-13.451,.9013-19.969,.5625-7.0331,.5833-13.976,.3101-20.906,.2188 8.4835,.8928 16.793,.7694 25.219,.7188 5.9304-.3402 12.158-1.1928 18.25-1.4375-.8567-.042-1.724-.0589-2.5938-.0625zm223.34,.5938-4.5,.25c-.9586,.1119-1.9019,.1586-2.8438,.1875 2.6015,.0113 5.09-.0824 7.3438-.4375z"/>
<path opacity=".3" d="m135.44,102.34c-3.3614,.0183-6.745,.3378-10.125,.7188 2.2487,.1374 4.4713,.3272 6.6875,.5938 4.5767,.4062 9.1335,.2291 13.656-.0625-3.3676-.9547-6.7869-1.2687-10.219-1.25zm10.219,1.25c.0835,.0237 .1665,.038 .25,.0625 8.5966-.4762 17.104-.0607 25.625,.1875-8.5469-1.7852-17.16-.8118-25.875-.25zm25.875,.25c.9981,.2085 2.0039,.4288 3,.7188 1.0327-.2497 2.064-.4354 3.0938-.5938-2.0321-.0259-4.0636-.0659-6.0938-.125zm6.0938,.125c.861,.011 1.7327,.0289 2.5938,.0312l.3125-.375c-.9666,.0822-1.9388,.195-2.9062,.3438zm-52.312-.9062c-7.1559-.4373-14.425-.2332-21.531,.4062 2.785,.1438 5.5854,.3499 8.4062,.6875 4.3488-.008 8.7247-.5978 13.125-1.0938zm-21.531,.4062c-7.6608-.3955-15.247-.1777-22.875,.2188 4.169,.3234 8.3554,.7342 12.531,1.0312 3.3856-.5129 6.8416-.9348 10.344-1.25zm-22.875,.2188c-7.9214-.6144-15.823-.9449-23.531,.25-.9115,.0643-1.8097,.0771-2.7188,.125 6.0944,.6389 12.113,1.1165 17.938,.0937 2.7882-.159 5.5513-.3252 8.3125-.4688zm-26.25,.375c-8.7066-.9127-17.554-2.1874-26.219-.125-.2789,.0363-.5646,.0628-.8438,.0937 9.0521,.2567 18,.509 27.062,.0312zm-27.062-.0312c-4.6565-.1321-9.3582-.2501-14.094-.25-1.8613-.1639-3.7203-.2401-5.5938-.25 6.6312,.4969 13.184,1.2198 19.688,.5zm-19.688-.5c-6.0626-.4543-12.189-.7046-18.375,.5-9.4905-1.1165-19.02-.6272-28.531-.2188 6.456,.1022 12.861,.1479 19.156-.125 9.2393,1.1879 18.549-.2047 27.75-.1562zm-46.915,.28c-5.1543-.0816-10.344-.2023-15.562-.2188 .8632,.1581 1.7164,.3567 2.5625,.5625 4.3198,.0108 8.6616-.1574 13-.3438zm-15.562-.2188c-5.094-.93-10.474-1.05-15.938-.84 2.7463,.1211 5.4327,.3757 8.0312,.9062 2.6395-.0598 5.2767-.0708 7.9062-.0625zm-15.938-.84c-8.416-.371-17.386,.7186-25.969,.6562l.9688,1.0625c.4599-.003 .9146,.003 1.375,0 7.6718-.4093 15.742-1.4175 23.625-1.7188z"/>
<path opacity=".3" d="m-50.25,99.875c-3.4331-.0155-6.85,.2373-10.219,1.0312 4.5227,.2423 9.0796,.4 13.656,.0625 2.2099-.2209 4.4452-.3858 6.6875-.5-3.38-.3166-6.7636-.5785-10.125-.5938zm10.125,.5938c4.4003,.4122 8.8074,.8681 13.156,.875 2.7861-.2771 5.5302-.4428 8.2812-.5625-7.0825-.5262-14.307-.6755-21.438-.3125zm21.438,.3125c3.5347,.2626 7.0524,.6012 10.469,1.0312 4.1681-.2464 8.3387-.544 12.5-.8125-7.6626-.3309-15.273-.5537-22.969-.2188zm22.968,.22c2.7612,.1192 5.5243,.2429 8.3125,.375 5.8218,.8495 11.846,.468 17.938-.0625-.9091-.0398-1.8073-.0715-2.7188-.125-7.716-1-15.601-.7-23.531-.19zm26.25,.3125c9.0338,.3957 17.977,.1817 27-.0312-.2587-.0241-.5228-.0657-.7812-.0937-8.6676-1.7144-17.509-.6647-26.219,.0937v.0312zm27-.0312c6.5358,.6088 13.147-.023 19.812-.4375-1.8944,.007-3.7742,.0498-5.6562,.1875-4.7645-.0001-9.4716,.1395-14.156,.25zm19.812-.4375c9.1806-.0348 18.469,1.1412 27.688,.1562 6.3561,.229 12.824,.1804 19.344,.0937-9.5658-.3405-19.174-.7769-28.719,.1562-6.1731-.9988-12.263-.7823-18.312-.4062zm47.031,.25c4.2836,.1525 8.5471,.2901 12.812,.2812 .8755-.177 1.7624-.3342 2.6562-.4688-5.182,.0128-10.35,.1195-15.469,.1875zm15.469-.1875c2.6032-.006 5.1996,.0136 7.8125,.0625 2.5929-.4399 5.2913-.649 8.0312-.75-5.4316-.1725-10.777-.0752-15.844,.6875zm15.844-.6875c7.8831,.2503 15.953,1.0662 23.625,1.4062 .9938,.005 1.9771-.005 2.9688,0l.8125-.9062c-9.0254,.1827-18.508-.8279-27.406-.5zm-216.16,.6875c-8.7683-.4697-17.433-1.3022-26.031,.2188 8.573-.2058 17.132-.5544 25.781-.1562 .0823-.02 .1677-.0431 .25-.0625zm-26.02,.22c-1.9784,.0475-3.9573,.0728-5.9375,.0937 1.0298,.1316 2.061,.2925 3.0938,.5 .9443-.2284 1.8977-.4264 2.8438-.5938zm-5.9375,.0937c-2.1034-.2687-4.1864-.3706-6.2812-.4062l.2188,.2812 .125,.125c1.9831,.0246 3.9561,.021 5.9375,0z"/>
</g>
<g transform="matrix(0 .60856 1 0 -96.5 65.835)">
<path opacity=".3" d="m121.53,97c-2.5611,.015-5.1435,.2823-7.7188,.5938 1.7034,.1135 3.3835,.2828 5.0625,.5 3.5105,.335 6.9995,.1774 10.469-.0625-2.5823-.7835-5.1812-1.0467-7.8125-1.0312zm7.8125,1.0312c.0731,.0222 .1457,.0395 .2188,.0625 6.6191-.3943 13.189-.0803 19.75,.125-6.588-1.4811-13.251-.652-19.969-.1875zm19.969,.1875c.7657,.1721 1.517,.3858 2.2812,.625 .78-.2028 1.601-.3669 2.4375-.5-1.5716-.0212-3.1486-.0759-4.7188-.125zm4.7188,.125c3.4345,.0464 6.8568,.0197 10.312-.25 4.0254-.1644 7.8746,.2693 11.812,.1875-7.3252-.0654-15.524-.9876-22.125,.0625zm-40.219-.75c-5.5373-.3689-11.157-.2205-16.656,.3125 2.1466,.1189 4.2945,.2827 6.4688,.5625 3.3707-.0069 6.7769-.4625 10.188-.875zm-16.656,.3125c-5.8973-.3267-11.721-.141-17.594,.1875 3.2083,.2676 6.4114,.5979 9.625,.8438 2.5987-.4233 5.2807-.7707 7.9688-1.0312zm-17.594,.1875c-6.0936-.5082-12.164-.7696-18.094,.2188-.7109,.054-1.4159,.085-2.125,.125 4.6959,.5298 9.3558,.9099 13.844,.0625 2.1377-.1311 4.258-.2878 6.375-.4062zm-20.216,.344c-6.6919-.7549-13.497-1.8294-20.156-.125-.2212,.031-.4348,.0363-.6562,.0625 6.9554,.2121 13.85,.4554 20.812,.0625zm-20.813-.063c-3.582-.109-7.17-.219-10.812-.219-1.39-.131-2.789-.145-4.188-.156 5.0466,.4101 10.05,.961 15,.375zm-15-.375c-4.711-.383-9.442-.632-14.25,.375-7.361-.931-14.779-.527-22.156-.187 5.0285,.086 10.036,.134 14.938-.094 7.1503,.988 14.348-.149 21.468-.094zm-36.406,.188c-3.9479-.0681-7.9096-.1444-11.906-.1562 .7023,.1359 1.4061,.2889 2.0938,.4688 3.264,.0088 6.5346-.1617 9.8125-.3125zm-11.906-.1562c-3.781-.7316-7.7645-.8702-11.812-.7188 1.9999,.108 3.9472,.3649 5.8438,.7812 1.9882-.0484 3.9878-.0684 5.9688-.0625zm-64.031-.875c-2.1803,.0609-4.3092,.4047-6.4375,.7812 3.3138-.0016 6.5414,.0318 8.75,.0938 2.052-.0328 4.1064-.0269 6.1562,0-1.2018-.1268-2.4155-.299-3.625-.4688-1.6418-.3647-3.256-.4506-4.8438-.4062zm-6.438,.781c-2.0804,.001-4.0258-.0154-5.9688,0l.6875,.8125c1.7624-.1975 3.5194-.5008 5.2812-.8125zm55.812-.688c-6.5719-.0274-13.451,.9013-19.969,.5625-7.0331,.5833-13.976,.3101-20.906,.2188 8.4835,.8928 16.793,.7694 25.219,.7188 5.9304-.3402 12.158-1.1928 18.25-1.4375-.8567-.042-1.724-.0589-2.5938-.0625zm223.34,.5938-4.5,.25c-.9586,.1119-1.9019,.1586-2.8438,.1875 2.6015,.0113 5.09-.0824 7.3438-.4375z"/>
<path opacity=".3" d="m135.44,102.34c-3.3614,.0183-6.745,.3378-10.125,.7188 2.2487,.1374 4.4713,.3272 6.6875,.5938 4.5767,.4062 9.1335,.2291 13.656-.0625-3.3676-.9547-6.7869-1.2687-10.219-1.25zm10.219,1.25c.0835,.0237 .1665,.038 .25,.0625 8.5966-.4762 17.104-.0607 25.625,.1875-8.5469-1.7852-17.16-.8118-25.875-.25zm25.875,.25c.9981,.2085 2.0039,.4288 3,.7188 1.0327-.2497 2.064-.4354 3.0938-.5938-2.0321-.0259-4.0636-.0659-6.0938-.125zm6.0938,.125c.861,.011 1.7327,.0289 2.5938,.0312l.3125-.375c-.9666,.0822-1.9388,.195-2.9062,.3438zm-52.312-.9062c-7.1559-.4373-14.425-.2332-21.531,.4062 2.785,.1438 5.5854,.3499 8.4062,.6875 4.3488-.008 8.7247-.5978 13.125-1.0938zm-21.531,.4062c-7.6608-.3955-15.247-.1777-22.875,.2188 4.169,.3234 8.3554,.7342 12.531,1.0312 3.3856-.5129 6.8416-.9348 10.344-1.25zm-22.875,.2188c-7.9214-.6144-15.823-.9449-23.531,.25-.9115,.0643-1.8097,.0771-2.7188,.125 6.0944,.6389 12.113,1.1165 17.938,.0937 2.7882-.159 5.5513-.3252 8.3125-.4688zm-26.25,.375c-8.7066-.9127-17.554-2.1874-26.219-.125-.2789,.0363-.5646,.0628-.8438,.0937 9.0521,.2567 18,.509 27.062,.0312zm-27.062-.0312c-4.6565-.1321-9.3582-.2501-14.094-.25-1.8613-.1639-3.7203-.2401-5.5938-.25 6.6312,.4969 13.184,1.2198 19.688,.5zm-19.688-.5c-6.0626-.4543-12.189-.7046-18.375,.5-9.4905-1.1165-19.02-.6272-28.531-.2188 6.456,.1022 12.861,.1479 19.156-.125 9.2393,1.1879 18.549-.2047 27.75-.1562zm-46.915,.28c-5.1543-.0816-10.344-.2023-15.562-.2188 .8632,.1581 1.7164,.3567 2.5625,.5625 4.3198,.0108 8.6616-.1574 13-.3438zm-15.562-.2188c-5.094-.93-10.474-1.05-15.938-.84 2.7463,.1211 5.4327,.3757 8.0312,.9062 2.6395-.0598 5.2767-.0708 7.9062-.0625zm-15.938-.84c-8.416-.371-17.386,.7186-25.969,.6562l.9688,1.0625c.4599-.003 .9146,.003 1.375,0 7.6718-.4093 15.742-1.4175 23.625-1.7188z"/>
<path opacity=".3" d="m-50.25,99.875c-3.4331-.0155-6.85,.2373-10.219,1.0312 4.5227,.2423 9.0796,.4 13.656,.0625 2.2099-.2209 4.4452-.3858 6.6875-.5-3.38-.3166-6.7636-.5785-10.125-.5938zm10.125,.5938c4.4003,.4122 8.8074,.8681 13.156,.875 2.7861-.2771 5.5302-.4428 8.2812-.5625-7.0825-.5262-14.307-.6755-21.438-.3125zm21.438,.3125c3.5347,.2626 7.0524,.6012 10.469,1.0312 4.1681-.2464 8.3387-.544 12.5-.8125-7.6626-.3309-15.273-.5537-22.969-.2188zm22.968,.22c2.7612,.1192 5.5243,.2429 8.3125,.375 5.8218,.8495 11.846,.468 17.938-.0625-.9091-.0398-1.8073-.0715-2.7188-.125-7.716-1-15.601-.7-23.531-.19zm26.25,.3125c9.0338,.3957 17.977,.1817 27-.0312-.2587-.0241-.5228-.0657-.7812-.0937-8.6676-1.7144-17.509-.6647-26.219,.0937v.0312zm27-.0312c6.5358,.6088 13.147-.023 19.812-.4375-1.8944,.007-3.7742,.0498-5.6562,.1875-4.7645-.0001-9.4716,.1395-14.156,.25zm19.812-.4375c9.1806-.0348 18.469,1.1412 27.688,.1562 6.3561,.229 12.824,.1804 19.344,.0937-9.5658-.3405-19.174-.7769-28.719,.1562-6.1731-.9988-12.263-.7823-18.312-.4062zm47.031,.25c4.2836,.1525 8.5471,.2901 12.812,.2812 .8755-.177 1.7624-.3342 2.6562-.4688-5.182,.0128-10.35,.1195-15.469,.1875zm15.469-.1875c2.6032-.006 5.1996,.0136 7.8125,.0625 2.5929-.4399 5.2913-.649 8.0312-.75-5.4316-.1725-10.777-.0752-15.844,.6875zm15.844-.6875c7.8831,.2503 15.953,1.0662 23.625,1.4062 .9938,.005 1.9771-.005 2.9688,0l.8125-.9062c-9.0254,.1827-18.508-.8279-27.406-.5zm-216.16,.6875c-8.7683-.4697-17.433-1.3022-26.031,.2188 8.573-.2058 17.132-.5544 25.781-.1562 .0823-.02 .1677-.0431 .25-.0625zm-26.02,.22c-1.9784,.0475-3.9573,.0728-5.9375,.0937 1.0298,.1316 2.061,.2925 3.0938,.5 .9443-.2284 1.8977-.4264 2.8438-.5938zm-5.9375,.0937c-2.1034-.2687-4.1864-.3706-6.2812-.4062l.2188,.2812 .125,.125c1.9831,.0246 3.9561,.021 5.9375,0z"/>
</g>
</g>
</g>
<g transform="translate(105.03 -95.875)">
<path fill="#925b03" d="m-103.79,279.18v7.4369h291.02v-7.4369h-291.02z"/>
<path opacity=".3" fill="#e9b96e" stroke="#e9b96e" d="m183.44,280.29c-1.8216,.0217-3.6824,.1322-5.5504,.3186-1.9772,.1246-3.895,.2065-5.8587,.2974 3.2518-.0202 6.4579-.0234 9.7131,0 1.3187-.0166 3.0357-.0343 4.7486-.0425v-.5311c-.4127-.0112-.8498-.0373-1.2642-.0425-.6022-.008-1.1812-.007-1.7884,0zm-11.409,.616c-10.387,.0644-20.818,.244-31.36-.1487-11.22,.262-23.181-.5895-34.32-.3399 9.2576,.1656 18.74,.7662 27.752,.9984 12.657,.0342 25.189,.0795 37.927-.5098zm-70.582-.5098c-4.5716,.007-9.0702,.1332-13.383,.5098 3.0298-.005 6.0554,.009 9.0964,.0425 2.8682-.2829 5.8256-.4572 8.8497-.5311-1.5394-.0259-3.0398-.0234-4.5636-.0212zm-13.383,.5098c-6.0704,.008-12.135,.0812-18.131,.1275 5.0075,.1036 10.031,.1972 15.017,.1912 1.0279-.1208 2.0648-.227 3.1144-.3186zm-18.131,.1275c-11.157-.2309-22.324-.5264-33.456,.1062-7.1972-.6769-14.315-.5095-21.369-.2549 10.714-.0234 21.588,.7531 32.346,.085 7.4054,.1551 14.883,.1223 22.479,.0637zm-54.825-.1487c-2.2119,.005-4.4322,.034-6.6296,.1275-5.5303-.0001-10.997,.053-16.435,.1275 7.6086,.406 15.306,.0251 23.065-.2549zm-23.065,.2549c-.3296-.0176-.6574-.0005-.9867-.0212-10.086-1.1595-20.392-.4506-30.527,.0637 10.543,.266 20.982,.1018 31.514-.0425zm-31.514,.0425c-1.091-.0275-2.1747-.0477-3.2685-.085-8.9815-.6725-18.122-.4727-27.351-.1275 3.1954,.0804 6.425,.166 9.6515,.2549 6.8245,.5788 13.827,.3199 20.968-.0425zm-30.619-.2124c-8.9724-.2257-17.877-.3768-26.888-.1487 4.1265,.1782 8.1917,.4092 12.18,.701 4.8899-.168 9.8266-.3697 14.708-.5523zm-26.888-.1487c-1.899-.082-3.819-.1374-5.7354-.1912v.3824c1.9174-.0814 3.8268-.1429 5.7354-.1912zm20.906,2.0606c-3.3329,.0418-6.6142,.2935-9.8673,.5523 5.0507-.001 9.9865,.0214 13.352,.0637 3.2394-.0233 6.4463-.0196 9.6823,0-1.9492-.0904-3.8654-.1949-5.8279-.3186-2.4906-.2485-4.9302-.3276-7.3388-.2974zm13.167,.616c12.754,.5915 25.287,.544 37.958,.5098 9.0122-.2322 18.494-.8328 27.752-.9984-11.139-.2497-23.1,.6019-34.32,.3399-10.557,.3933-20.988,.2129-31.39,.1487zm-23.034-.0637c-6.8386,.001-12.78,.0304-16.774,.0637v.5098c5.6885,.3799 11.208-.1308 16.774-.5736zm93.709-.4673c-1.53,0-3.0781,.0165-4.6253,.0425 3.0241,.0739 5.9816,.2482 8.8497,.5311 3.0568-.0334 6.1434-.047 9.1889-.0425-4.3319-.3817-8.8234-.5312-13.413-.5311zm13.413,.5311c1.0198,.0899 2.0225,.18 3.0219,.2974 5.1243,.006 10.24-.0841 15.387-.1912-6.1049-.0462-12.226-.0972-18.409-.1062zm18.409,.1062c7.467,.0566 14.888,.0888 22.171-.0637 10.768,.6687 21.591-.0887 32.315-.0637-7.0649-.2554-14.191-.4231-21.4,.2549-10.994-.6247-22.067-.3567-33.086-.1275zm54.486-.1275c7.7619,.2806 15.453,.6641 23.065,.2549-5.454-.0747-10.95-.1488-16.497-.1487-2.1875-.093-4.3661-.1011-6.5679-.1062zm23.065,.2549c10.531,.1443 20.971,.3097 31.514,.0425-10.147-.5144-20.46-1.2459-30.558-.085-.3151,.0198-.6406,.0257-.9559,.0425zm31.514,.0425c7.1286,.3614 14.186,.5991 20.999,.0212 3.2581-.0897 6.4866-.1527 9.7131-.2337-9.2611-.3475-18.493-.5473-27.505,.1275-1.0786,.0368-2.1311,.0577-3.2069,.085zm30.712-.2124c2.3702,.0889 4.7446,.181 7.123,.2761v-.4248c-2.3688,.0425-4.7468,.0891-7.123,.1487zm-39.284,1.2533c-6.1256-.005-12.15,.1024-17.915,.4249 3.9492-.003 7.9078-.006 11.872,.0212 3.9335-.248 8.0542-.3679 12.211-.4249-2.06-.0243-4.1252-.0194-6.1671-.0212zm6.1671,.0212c11.959,.1411 24.192,.6155 35.831,.8072 1.4719,.003 2.9406-.003 4.4094,0v-.5098c-13.29,.0583-27.176-.4763-40.24-.2974zm-24.082,.4036c-7.8613,.007-15.67,.0679-23.435,.1062 6.4984,.086 12.955,.1537 19.426,.1487 1.3282-.0998 2.6526-.1791 4.0086-.2549zm-23.435,.1062c-14.512-.1919-29.121-.4411-43.601,.085-9.3648-.5631-18.574-.4457-27.752-.2337 13.927-.0196 28.044,.6402 42.029,.085 9.6424,.1291 19.434,.1127 29.324,.0637zm-71.353-.1487c-2.8739,.004-5.7171,.0286-8.5722,.1062-7.2278-.0001-14.385,.0864-21.492,.1487 9.9151,.3432 19.953-.0213 30.064-.2549zm-30.064,.2549c-.3924-.0136-.8104-.0479-1.2026-.0637-13.149-.9665-26.565-.3638-39.778,.0637 13.705,.2231 27.292,.12 40.98,0zm-40.98,0c-1.3791-.0224-2.7184-.0336-4.1011-.0637-11.706-.5603-23.678-.3946-35.707-.1062 4.1889,.0672 8.4127,.1379 12.642,.2124 8.8319,.4789 17.925,.2565 27.166-.0425zm-39.808-.1699c-6.4349-.1033-12.819-.1895-19.241-.2124v.6585c.0965,.005 .1811,.0168 .2775,.0212 6.3231-.1389 12.651-.316 18.964-.4673zm25.593,1.317c-12.874-.009-26.403,.6328-39.161,.4036-1.9073,.0547-3.7744,.0716-5.6737,.1062v.5523c4.7392,.002 9.4522-.0114 14.215-.0212 11.714-.2322 24.044-.8116 36.077-.9772-1.8094-.0312-3.6187-.0625-5.4579-.0637zm11.902,.0212c-1.9811-.002-3.9793,.0166-5.9821,.0425 3.9355,.0738 7.7692,.2479 11.502,.5311 3.9567-.0333 7.8986-.0468 11.841-.0425-5.6098-.3776-11.417-.5249-17.36-.5311zm17.36,.5311c1.3571,.0913 2.7101,.1772 4.0394,.2974 6.4745,.006 12.986-.0664 19.488-.1699-7.7827-.0462-15.648-.1189-23.527-.1275zm23.527,.1275c9.8801,.0587 19.661,.0915 29.294-.0637 13.969,.6674 28.086-.128 41.998-.1062-9.1667-.2545-18.43-.4006-27.783,.2762-14.485-.63-29.009-.33-43.517-.1zm71.291-.1699c10.087,.2801 20.081,.6822 29.972,.2762-7.0638-.0745-14.154-.1488-21.338-.1487-2.8708-.094-5.7441-.123-8.6339-.1275zm29.972,.2762c13.693,.1443 27.273,.2873 40.98,.0212-13.168-.5143-26.613-1.2227-39.716-.0637-.4277,.0207-.8362,.0249-1.2642,.0425zm40.98,.0212c9.2886,.3628 18.474,.6217 27.351,.0425 4.2297-.0896 8.3921-.1528 12.581-.2337-12.033-.3473-23.998-.5683-35.707,.1062-1.4226,.0373-2.8057,.0574-4.2244,.085zm39.932-.1912c3.1268,.0902 6.2726,.1797 9.4048,.2762v-.4249c-3.1291,.0431-6.2639,.088-9.4048,.1487z"/>
<path opacity=".364" fill="#999" d="m186,96.375v188l2.3125,2.7812-291.19-2 12,21.562h293.44l-11.56-17.41v-186.94l-5-6z"/>
</g>
<g transform="translate(207.53 -146.625)">
<path opacity=".306" d="m-134.84,314.78c.2678,.8991 .4062,1.8382 .4062,2.7982 0,5.3634-4.419,3.7888-10.656,5.6512v1.3442c0,1.0957 1.0246,1.9953 2.4688,2.3318 .0803,1.248 1.2138,2.2495 2.6562,2.2495h45.312c1.412,0 2.5642-.9568 2.6875-2.1672 .2046-.0323 .4041-.0829 .5938-.1372 1.3208-.378 2.25-1.2412 2.25-2.277v-.9053c-.8933-.184-1.7661-.3199-2.5938-.4389-1.6553-.238-3.155-.3968-4.4688-.6035-3.2843-.5168-6.5812-.3291-6.5812-3.987 0-.72 .5968-2.4865 1.4562-3.173 .1831-.1463 .1205-.4611 .1875-.6858h-33.719z"/>
</g>
<g transform="matrix(.12651 0 0 .09762 166.169 111.865)">
<path fill="url(#linearGradient6197)" d="m-827.45,775.91h373.16a13.82,13.82 0 0,1 13.82,13.82v1.152a13.82,13.82 0 0,1 -13.82,13.82h-373.16a13.82,13.82 0 0,1 -13.82-13.82v-1.152a13.82,13.82 0 0,1 13.82-13.82" transform="matrix(1 0 0 2 -8.8869 -883.01)"/>
</g>
<g transform="matrix(.12651 0 0 .09762 166.05657 109.72888)">
<path fill="#e9b96e" d="m-787.58,580.54c2.1172,10.492 3.2206,21.371 3.2206,32.574 0,62.586-34.902,44.434-84.205,66.166v15.473c0,16.116 12.948,29.113 29.063,29.113h384.27c16.115,0 29.063-12.998 29.063-29.113v-10.383c-56.49-17.178-98.03-2.96-98.03-71.256 0-11.203 1.1034-22.082 3.2205-32.574h-266.6z"/>
<path fill="url(#linearGradient6199)" d="m-787.58,580.54c2.1172,10.492 3.2206,21.371 3.2206,32.574 0,62.586-34.902,44.434-84.205,66.166v15.473c0,16.116 12.948,29.113 29.063,29.113h384.27c16.115,0 29.063-12.998 29.063-29.113v-10.383c-56.49-17.178-98.03-2.96-98.03-71.256 0-11.203 1.1034-22.082 3.2205-32.574h-266.6z"/>
</g>
<g transform="translate(105.03 -95.875)">
<path opacity=".5" d="m-71.406,264.28-1.4062,.0312h-2.875l.1875,3.875 .0625,3h-.3125v3.0625h.375v.1562l-3.0312,.0625v3.9688h3.125v.4062h3.9688v-.4062h9.7188v-.0937h.0312l-.0312-1.4062v-2.5625l9.1562,4.1875 .0312-.0937 .0625,.0312 .75-1.75 1-2.1875-4.1562-1.6562-4.1875-1.8438v-.1875h-.4062l-6.7188-2.9375-1.4375,3.1562-3.8125,.0312v-6.8125h-.0938v-.0312zm.2188,9.9688h5.125l-5.125,.0937v-.0937z"/>
</g>
<g fill="#e5e5e5" transform="translate(105.03 -95.875)">
<path d="m-78.743,271.43 12.333-.1535 4.4757-.1535v3.3769h-16.809v-3.0699z"/>
<path d="m-75.547,272.19 1.2063,.1587 .1963,2.3585-1.3728-.6376-.0298-1.8796z"/>
</g>
<g transform="matrix(0 -.34357 .39784 0 -71.18 156.845)">
<path fill="#fff" d="m-76.75,246.11 31-.5 11.25-.5v11h-42.25v-10z"/>
</g>
<g fill="#e5e5e5" transform="matrix(0 -.34357 .39784 0 -71.18 156.845)">
<path d="m-44.25,246.61 1.75,2.5-3.5,3.75-1.25-3.5 3-2.75z"/>
<path d="m-58.053,247.7 3.0322,.5169 .4934,7.6824-3.4507-2.0768-.075-6.1225z"/>
<path d="m-37.678,247.32 3.0322-2.1081 .2434,10.682-3.8257-.8268 .55-7.7475z"/>
<path d="m-66.745,246.3 1.9505,2.3784-4.6648,6.124-1.2436-3.8307 3.9578-4.6718z"/>
</g>
<g transform="matrix(.36173 .16561 -.16561 .36173 104.49687 96.005)">
<path fill="#fff" d="m-76.75,246.11 31-.5 11.25-.5v11h-42.25v-10z"/>
</g>
<g fill="#e5e5e5" transform="matrix(.36173 .16561 -.16561 .36173 104.49687 96.005)">
<path d="m-44.318,248.6 1.75,2.5-3.5,3.75-1.25-3.5 3-2.75z"/>
<path d="m-58.053,247.7 3.0322,.5169 .4934,7.6824-3.4507-2.0768-.075-6.1225z"/>
<path d="m-37.678,247.32 3.0322-2.1081 .2434,10.682-3.8257-.8268 .55-7.7475z"/>
<path d="m-61.484,245.85 2.2768,2.2291-7.4928,7.4188-1.0504-3.9191 6.2665-5.7288z"/>
</g>
<g transform="matrix(.39784 0 0 .39784 54.17 80.915)">
<path fill="#fff" d="m-76.75,246.11 31-.5 11.25-.5v11h-42.25v-10z"/>
</g>
<g fill="#e5e5e5" transform="matrix(.39784 0 0 .39784 54.17 80.915)">
<path d="m-44.25,246.61 1.75,2.5-3.5,3.75-1.25-3.5 3-2.75z"/>
<path d="m-58.053,247.7 3.0322,.5169 .4934,7.6824-3.4507-2.0768-.075-6.1225z"/>
<path d="m-37.678,247.32 3.0322-2.1081 .2434,10.682-3.8257-.8268 .55-7.7475z"/>
<path d="m-66.745,246.3 1.9505,2.3784-4.6648,6.124-1.2436-3.8307 3.9578-4.6718z"/>
</g>
</svg>
