<svg xmlns="http://www.w3.org/2000/svg" viewBox="0 0 788.84 1407.4">
<defs>
<filter color-interpolation-filters="sRGB" id="filter3808">
<feGaussianBlur stdDeviation=".53609"/>
</filter>
<filter color-interpolation-filters="sRGB" id="filter6180-9">
<feGaussianBlur stdDeviation=".78094"/>
</filter>
<filter width="1.351" x="-.176" y="-.008" height="1.015" color-interpolation-filters="sRGB" id="filter6157-4">
<feGaussianBlur stdDeviation=".51994"/>
</filter>
<filter width="1.351" x="-.176" y="-.008" height="1.015" color-interpolation-filters="sRGB" id="filter6157-18">
<feGaussianBlur stdDeviation=".51994"/>
</filter>
<filter color-interpolation-filters="sRGB" id="filter6184-17">
<feGaussianBlur stdDeviation=".4898"/>
</filter>
<filter color-interpolation-filters="sRGB" id="filter6180-2">
<feGaussianBlur stdDeviation=".78094"/>
</filter>
<filter color-interpolation-filters="sRGB" id="filter6180-27">
<feGaussianBlur stdDeviation=".78094"/>
</filter>
<filter color-interpolation-filters="sRGB" id="filter8883">
<feGaussianBlur stdDeviation=".53509"/>
</filter>
<filter width="1.351" x="-.176" y="-.008" height="1.015" color-interpolation-filters="sRGB" id="filter6157-1">
<feGaussianBlur stdDeviation=".51994"/>
</filter>
</defs>
<g color="#000">
<g fill="#f60" transform="matrix(0 1 -1 0 168.407 5748.54)">
<path d="m-4751.2,138.55s31.415-8.0798 31.295-10.061c-.1204-1.9815-3.6677-4.1813-9.8694-6.4868-6.2016-2.3057-15.058-4.7167-25.796-7.1208-2.6845-.6009-5.4866-1.2014-8.3942-1.7998-2.9077-.5982-21.936,17.596-25.043,17.004-3.1067-.5921 22.824-16.911 19.542-17.494-3.2816-.5823-19.759-4.219-23.192-4.7881-13.729-2.2767-28.568-4.4332-43.743-6.3569-3.7939-.4808-7.6087-.9472-11.433-1.3972-3.8239-.45-31.33,28.388-35.16,27.972-3.8298-.4153 31.03-29.434 27.219-29.812-3.8115-.377-22.621-1.3861-26.391-1.7215-15.076-1.345-30.573-2.4055-44.006-2.9459-3.3582-.1346-6.6408-.2416-9.8359-.3177-3.1951-.0759-30.131,31.26-33.139,31.247-3.0079-.0134 28.31-32.329 25.514-32.276-2.7964,.0528-15.879,1.0918-18.44,1.2142-10.244,.4896-7.6421,.7587-29.948,2.023s-24.506,28.751-15.478,29.01c83.861,13.131 167.61,9.879 256.3,14.108z"/>
<path d="m-4770.5,138.12s53.135-14.358 50.208,1.898c-.4009,2.2274-4.2323,4.5489-10.711,6.8671-6.4791,2.3181-15.606,4.6328-26.598,6.8464-10.992,2.2137-27.67,3.6286-41.61,5.5426-46.881-41.734-4.0059,.182-4.4647,1.9606-15.322,1.4193-68.155,5.5241-83.299,6.1213-3.5527-.0729-20.564-.1458-24.377-.0567-3.8136,.0891-27.152-28.868-31.236-28.577-3.1008,.2206 25.673,29.463 20.002,29.48-4.388,.0131-8.9251,.1716-13.624,.1378-10.076-1.2364-55.997,2.457-74.722-14.346s5.5317-33.917-3.5129-28.249c84.515,6.3389 21.322-1.2664 243.94,12.375z"/>
</g>
<g transform="matrix(0 1 -1 0 168.407 5748.54)">
<path fill="#484537" d="m-4769.6,138.23 .1099-1.492c-89.482-4.0188-178.68-2.1599-268.79-19.244-26.083,.1323-4.1679,3.7011-.4396,5.9678 90.131,16.577 179.65,10.796 269.12,14.768z"/>
<path fill="#c8c4b7" filter="url(#filter6157-18)" d="m1385.8,157.62-1.3167-.2525c.3779,38.802-8.4751,101.17 0,158.32-.6012,15.301-1.455,1.7808-2.0562-.5051-8.1783-54.894-.8041-105.43 2.1104-157.56z" transform="matrix(.12311 -1.6709 -1.6951 -.12136 -4672.9 2471.3)"/>
<path opacity=".931" fill="#89a02c" filter="url(#filter3808)" d="m1385.9,127.85c4.3009,1.3231 3.3363,11.49 7.8286,1.2627 .6742,1.608 1.3153,3.4498 1.9225,5.4832s1.1804,4.2585 1.7186,6.633 1.7991,11.969 2.2665,14.6c.4673,2.631-10.465,10.168-10.071,12.971 .3945,2.8032 9.8435-12.511 10.163-9.6205 .3198,2.8909 2.1169,12.118 2.3599,15.012 .243,2.8941 .4472,5.7688 .6115,8.5817 .1644,2.8129 .5415-.4968 .6252,2.1505l-18.751,5.8084 .6945-34.093-3.3461,34.093-12.943-5.5558c.1495-.8357 .073-1.7962 .2735-2.8632 .2004-1.067-.3325-1.2304-.086-2.4922 .2466-1.2617 .037-3.7988 1.0555-2.7686 5.4788,5.5413 20.222,21.726 .6676-3.1876-.9723-1.2388 .6665-3.1335 1.0231-4.7592 .3566-1.6256 .728-3.2844 1.1119-4.958 .3838-1.6736 .78-3.3619 1.1863-5.0467s.8227-3.366 1.2468-5.0253c.424-1.6593 .8557-3.2967 1.2928-4.8939s.8795-3.1541 1.3248-4.6524 .8936-2.9381 1.3425-4.3008c.4489-1.3628 .8983-2.6486 1.346-3.8392s.8936-2.2858 1.3354-3.2675c.4417-.9817 .8793-1.8497 1.3104-2.5857 .4311-.7361 .8557-1.3401 1.2714-1.7939 .4157-.4538 .8225-.7572 1.2181-.8919z" transform="matrix(.12311 -1.6709 -1.6951 -.12136 -4672.9 2471.3)"/>
</g>
<g fill="#c83737" transform="matrix(0 1 1 0 145.867 5074.14)">
<path d="m-4754.4-107.64s30.433,8.4652 30.277,10.392c-.1559,1.9273-3.6533,4.002-9.7375,6.1291-6.0841,2.1273-14.755,4.3069-25.259,6.4437-2.6259,.5341-5.3663,1.0657-8.2094,1.5931-2.8431,.5273-21.017-17.552-24.054-17.035-3.0368,.5176 21.894,16.902 18.688,17.406-3.2069,.5047-19.324,3.7328-22.677,4.2217-13.414,1.956-27.905,3.774-42.72,5.3587-3.7038,.396-7.4278,.7777-11.16,1.1432-3.7325,.3655-29.953-28.239-33.691-27.907-3.7375,.3316 29.641,29.253 25.922,29.548-3.719,.2947-22.056,.9197-25.732,1.1747-14.708,1.0231-29.819,1.7612-42.91,2.0321-3.2728,.0672-6.4715,.1091-9.5843,.1224-3.1128,.0132-28.73-31.013-31.659-31.057-2.9292-.0441 26.936,32.019 24.214,31.915-2.7222-.1045-15.442-1.365-17.933-1.5329-9.9657-.6715-7.4269-.8841-29.123-2.5393s-23.301-28.464-14.504-28.544c81.919-11.193 163.41-6.4338 249.85-8.8657z"/>
<path d="m-4773.3-107.59s51.461,14.992 48.929-.8939c-.3469-2.1765-4.0324-4.5101-10.296-6.8906-6.2642-2.3798-15.106-4.8079-25.767-7.1724-10.66-2.3648-26.874-4.0596-40.41-6.1884-46.469,39.749-3.8974-.2534-4.3094-1.994-14.892-1.6735-66.26-6.675-80.995-7.5444-3.461,.004-20.028-.2489-23.74-.4082-3.7118-.1593-27.005,27.595-30.976,27.234-3.0151-.2738 25.576-28.203 20.054-28.327-4.2727-.0961-8.6878-.3368-13.264-.3931-9.8356,1.0125-54.481-3.4571-73.044,12.549s4.7231,33.133-3.9735,27.441c82.424-4.566 20.738,1.6386 237.79-7.413z"/>
</g>
<g transform="matrix(0 1 1 0 145.867 5074.14)">
<path fill="#484537" d="m-4772.4-107.67 .078,1.455c-87.215,2.2123-174.04-1.2936-262.12,13.63-25.396-.6247-3.9862-3.6834-.3114-5.8197 88.093-14.429 175.15-7.0973 262.35-9.2653z"/>
<path fill="#c8c4b7" filter="url(#filter6157-4)" d="m1311.5,164.04-1.3167-.2525c.3779,38.802-8.4751,101.17 0,158.32-.6012,15.301-1.455,1.7808-2.0562-.5051-8.1783-54.894-.8041-105.43 2.1104-157.56z" transform="matrix(.0872 1.6295 -1.653 .08596 -4615.5 -2257.3)"/>
<path opacity=".931" fill="#89a02c" filter="url(#filter6180-9)" d="m1311.6,134.28c4.3009,1.3231 3.3363,11.49 7.8286,1.2627 .6742,1.608 1.3153,3.4498 1.9225,5.4832s1.1804,4.2585 1.7186,6.633 1.7991,11.969 2.2665,14.6c.4673,2.631-10.465,10.168-10.071,12.971 .3945,2.8032 9.8435-12.511 10.163-9.6205 .3198,2.8909 2.1169,12.118 2.3599,15.012 .243,2.8941 .4472,5.7688 .6115,8.5817 .1644,2.8129 .5415-.4968 .6252,2.1505l-18.751,5.8084 .6945-34.093-3.3461,34.093-12.943-5.5558c.1495-.8357 .073-1.7962 .2735-2.8632 .2004-1.067-.3325-1.2304-.086-2.4922 .2466-1.2617 .037-3.7988 1.0555-2.7686 5.4788,5.5413 20.222,21.726 .6676-3.1876-.9723-1.2388 .6665-3.1335 1.0231-4.7592 .3566-1.6256 .728-3.2844 1.1119-4.958 .3838-1.6736 .78-3.3619 1.1863-5.0467s.8227-3.366 1.2468-5.0253c.424-1.6593 .8557-3.2967 1.2928-4.8939s.8795-3.1541 1.3248-4.6524 .8936-2.9381 1.3425-4.3008c.4489-1.3628 .8983-2.6486 1.346-3.8392s.8936-2.2858 1.3354-3.2675c.4417-.9817 .8793-1.8497 1.3104-2.5857 .4311-.7361 .8557-1.3401 1.2714-1.7939 .4157-.4538 .8225-.7572 1.2181-.8919z" transform="matrix(.0872 1.6295 -1.653 .08596 -4615.5 -2257.3)"/>
</g>
<g fill="#f60" transform="matrix(0 1 -1 0 54.357 5417.24)">
<path filter="url(#filter6184-17)" d="m1183.3,167.51s6.1491-18.087 7.3236-17.93c1.1745,.1563 2.3329,2.3332 3.4411,6.0723 1.1083,3.7391 2.1662,9.0406 3.1397,15.446 .2433,1.6014 .4814,3.2718 .7137,5.004 .2322,1.7322-11.411,12.113-11.19,13.961 .2201,1.8488 11.04-12.663 11.247-10.712 .2068,1.951 1.6695,11.778 1.862,13.817 .7702,8.1554 1.4216,16.957 1.92,25.945 .1245,2.2472 .2396,4.5061 .3445,6.7696s-18.236,17.158-18.151,19.424c.084,2.2655 18.846-16.937 18.908-14.684 .062,2.2531-.139,13.335-.1,15.562 .1581,8.9058 .1289,18.046-.1219,25.952-.063,1.9766-.1392,3.9076-.2301,5.7859-.091,1.8783-19.894,16.331-20.014,18.097-.1202,1.7657 20.453-15.216 20.302-13.577-.1506,1.6388-1.3268,9.2716-1.5088,10.769-.7281,5.9904-.7774,4.452-2.4808,17.487s-18.161,13.138-17.93,7.8287c-4.2431-49.782 1.2627-98.787 2.5254-151.02z" transform="matrix(-.04045 1.6262 1.6497 .03987 -5240.4 -1924.5)"/>
<path d="m-4993.2,5.996s-50.855,16.365-48.785,.4646c.2837-2.1786 3.8899-4.6061 10.064-7.1518 6.1743-2.5457 14.917-5.2098 25.473-7.8614s26.665-4.7898 40.094-7.2861c47.44,38.323 3.8765-.3605 4.2375-2.1066 14.793-2.08 65.84-8.487 80.499-9.7617 3.4491-.0923 19.951-.8028 23.645-1.0643 3.6944-.2614 27.698,26.751 31.645,26.282 2.997-.3563-26.291-27.396-20.792-27.673 4.255-.2142 8.6479-.5764 13.207-.7592 9.8303,.7364 54.194-4.9543 73.148,10.482 18.955,15.436-3.7622,33.149 4.7419,27.236-82.268-2.267-20.619,2.2073-237.18-.8008z"/>
</g>
<g transform="matrix(0 1 -1 0 54.357 5417.24)">
<path fill="#484537" d="m-4994.1,5.9352-.036,1.452c86.975-.2111 173.4-6.1098 261.6,6.3223 25.29-1.3261 3.8674-3.7809 .1444-5.8081-88.198-11.939-174.75-2.2212-261.71-1.9662z"/>
<path fill="#c8c4b7" filter="url(#filter6157-1)" d="m1183.6,178.33-1.3167-.2525c.3779,38.802-8.4751,101.17 0,158.32-.6012,15.301-1.455,1.7808-2.0562-.5051-8.1783-54.894-.8041-105.43 2.1104-157.56z" transform="matrix(-.04045 1.6262 1.6497 .03987 -5240.4 -1924.5)"/>
<path opacity=".931" fill="#89a02c" filter="url(#filter6180-2)" d="m1183.8,148.57c4.3009,1.3231 3.3363,11.49 7.8286,1.2627 .6742,1.608 1.3153,3.4498 1.9225,5.4832s1.1804,4.2585 1.7186,6.633 1.7991,11.969 2.2665,14.6c.4673,2.631-10.465,10.168-10.071,12.971 .3945,2.8032 9.8435-12.511 10.163-9.6205 .3198,2.8909 2.1169,12.118 2.3599,15.012 .243,2.8941 .4472,5.7688 .6115,8.5817 .1644,2.8129 .5415-.4968 .6252,2.1505l-18.751,5.8084 .6945-34.093-3.3461,34.093-12.943-5.5558c.1495-.8357 .073-1.7962 .2735-2.8632 .2004-1.067-.3325-1.2304-.086-2.4922 .2466-1.2617 .037-3.7988 1.0555-2.7686 5.4788,5.5413 20.222,21.726 .6676-3.1876-.9723-1.2388 .6665-3.1335 1.0231-4.7592 .3566-1.6256 .728-3.2844 1.1119-4.958 .3838-1.6736 .78-3.3619 1.1863-5.0467s.8227-3.366 1.2468-5.0253c.424-1.6593 .8557-3.2967 1.2928-4.8939s.8795-3.1541 1.3248-4.6524 .8936-2.9381 1.3425-4.3008c.4489-1.3628 .8983-2.6486 1.346-3.8392s.8936-2.2858 1.3354-3.2675c.4417-.9817 .8793-1.8497 1.3104-2.5857 .4311-.7361 .8557-1.3401 1.2714-1.7939 .4157-.4538 .8225-.7572 1.2181-.8919z" transform="matrix(-.04045 1.6262 1.6497 .03987 -5240.4 -1924.5)"/>
</g>
<g fill="#800080" transform="matrix(0 1 -1 0 54.357 5417.24)">
<path d="m-5012,6.4695s-30.086,9.2787-29.876,11.195c.2104,1.9162 3.7547,3.8869 9.8784,5.8381 6.1237,1.9514 14.827,3.8832 25.355,5.7217 2.632,.4595 5.378,.9133 8.2262,1.3602 2.8483,.4467 20.444-18.073 23.485-17.642 3.041,.4316-21.337,17.449-18.126,17.864 3.2101,.4141 19.363,3.1846 22.719,3.5789 13.423,1.5777 27.916,2.9879 42.725,4.1568 3.7022,.2921 7.4241,.5693 11.154,.8301s29.044-28.971 32.778-28.744c3.734,.2269-28.704,29.972-24.99,30.163 3.7145,.1907 22.005,.3056 25.676,.4578 14.686,.6122 29.766,.9291 42.819,.8365 3.2634-.0237 6.4521-.0706 9.5545-.1435 3.1024-.0731 27.746-31.701 30.664-31.826 2.9178-.1251-25.93,32.654-23.22,32.475 2.7097-.1796 15.349-1.788 17.827-2.0243 9.9119-.9452 7.3759-1.0867 28.95-3.3371s22.409-29.01 13.64-28.846c-81.954-8.8851-163.02-1.8852-249.24-1.9142z"/>
<path d="m-4993.2,5.996s-50.855,16.365-48.785,.4646c.2837-2.1786 3.8899-4.6061 10.064-7.1518 6.1743-2.5457 14.917-5.2098 25.473-7.8614s26.665-4.7898 40.094-7.2861c47.44,38.323 3.8765-.3605 4.2375-2.1066 14.793-2.08 65.84-8.487 80.499-9.7617 3.4491-.0923 19.951-.8028 23.645-1.0643 3.6944-.2614 27.698,26.751 31.645,26.282 2.997-.3563-26.291-27.396-20.792-27.673 4.255-.2142 8.6479-.5764 13.207-.7592 9.8303,.7364 54.194-4.9543 73.148,10.482 18.955,15.436-3.7622,33.149 4.7419,27.236-82.268-2.267-20.619,2.2073-237.18-.8008z"/>
</g>
<g transform="matrix(0 1 -1 0 54.357 5417.24)">
<path fill="#484537" d="m-4994.1,5.9352-.036,1.452c86.975-.2111 173.4-6.1098 261.6,6.3223 25.29-1.3261 3.8674-3.7809 .1444-5.8081-88.198-11.939-174.75-2.2212-261.71-1.9662z"/>
<path fill="#c8c4b7" filter="url(#filter6157-1)" d="m1183.6,178.33-1.3167-.2525c.3779,38.802-8.4751,101.17 0,158.32-.6012,15.301-1.455,1.7808-2.0562-.5051-8.1783-54.894-.8041-105.43 2.1104-157.56z" transform="matrix(-.04045 1.6262 1.6497 .03987 -5240.4 -1924.5)"/>
<path opacity=".931" fill="#89a02c" filter="url(#filter8883)" d="m1183.8,148.57c4.3009,1.3231 3.3363,11.49 7.8286,1.2627 .6742,1.608 1.3153,3.4498 1.9225,5.4832s1.1804,4.2585 1.7186,6.633 1.7991,11.969 2.2665,14.6c.4673,2.631-10.465,10.168-10.071,12.971 .3945,2.8032 9.8435-12.511 10.163-9.6205 .3198,2.8909 2.1169,12.118 2.3599,15.012 .243,2.8941 .4472,5.7688 .6115,8.5817 .1644,2.8129 .5415-.4968 .6252,2.1505l-18.751,5.8084 .6945-34.093-3.3461,34.093-12.943-5.5558c.1495-.8357 .073-1.7962 .2735-2.8632 .2004-1.067-.3325-1.2304-.086-2.4922 .2466-1.2617 .037-3.7988 1.0555-2.7686 5.4788,5.5413 20.222,21.726 .6676-3.1876-.9723-1.2388 .6665-3.1335 1.0231-4.7592 .3566-1.6256 .728-3.2844 1.1119-4.958 .3838-1.6736 .78-3.3619 1.1863-5.0467s.8227-3.366 1.2468-5.0253c.424-1.6593 .8557-3.2967 1.2928-4.8939s.8795-3.1541 1.3248-4.6524 .8936-2.9381 1.3425-4.3008c.4489-1.3628 .8983-2.6486 1.346-3.8392s.8936-2.2858 1.3354-3.2675c.4417-.9817 .8793-1.8497 1.3104-2.5857 .4311-.7361 .8557-1.3401 1.2714-1.7939 .4157-.4538 .8225-.7572 1.2181-.8919z" transform="matrix(-.04045 1.6262 1.6497 .03987 -5240.4 -1924.5)"/>
</g>
<g fill="#fc0" transform="matrix(0 1 -1 0 299.927 6102.84)">
<path d="m-5018.2,266.37s-31.6-8.1274-31.479-10.121c.1211-1.9932 3.6893-4.2059 9.9275-6.525 6.2382-2.3193 15.146-4.7446 25.948-7.1627 2.7003-.6045 5.5189-1.2086 8.4437-1.8104 2.9248-.6017 22.066,17.7 25.191,17.105 3.125-.5956-22.958-17.011-19.657-17.597 3.3009-.5857 19.876-4.2439 23.328-4.8163 13.81-2.2901 28.736-4.4594 44.001-6.3944 3.8162-.4836 7.6536-.9528 11.5-1.4054 3.8464-.4526 31.514,28.555 35.367,28.137 3.8524-.4178-31.213-29.608-27.379-29.988 3.834-.3793 22.755-1.3943 26.546-1.7316 15.165-1.3529 30.754-2.4196 44.266-2.9633 3.378-.1354 6.68-.2431 9.8939-.3196 3.2139-.0763 30.309,31.444 33.334,31.431 3.0256-.0134-28.477-32.519-25.664-32.466 2.813,.0531 15.973,1.0982 18.549,1.2213 10.304,.4925 7.6872,.7632 30.124,2.0349s24.65,28.921 15.569,29.181c-84.355,13.209-168.59,9.9372-257.81,14.191z"/>
<path d="m-4998.7,265.94s-53.448-14.443-50.504,1.9092c.4033,2.2405 4.2573,4.5758 10.775,6.9076 6.5172,2.3318 15.698,4.6601 26.754,6.8867 11.057,2.2268 27.834,3.65 41.855,5.5753 47.158-41.98 4.0295,.1831 4.4911,1.9722 15.412,1.4277 68.556,5.5567 83.79,6.1574 3.5737-.0734 20.685-.1466 24.521-.057 3.836,.0897 27.312-29.038 31.42-28.746 3.1192,.2219-25.824,29.637-20.12,29.654 4.4139,.0131 8.9777,.1726 13.704,.1386 10.135-1.2437 56.327,2.4715 75.163-14.43s-5.5642-34.117 3.5336-28.415c-85.013,6.3762-21.448-1.2738-245.38,12.448z"/>
</g>
<g transform="matrix(0 1 -1 0 299.927 6102.84)">
<path fill="#484537" d="m-4999.7,266.05-.1106-1.5008c90.01-4.0425 179.74-2.1727 270.37-19.358 26.236,.1331 4.1924,3.7229 .4422,6.0029-90.663,16.675-180.71,10.859-270.71,14.856z"/>
<path fill="#c8c4b7" filter="url(#filter6157-18)" d="m1385.8,157.62-1.3167-.2525c.3779,38.802-8.4751,101.17 0,158.32-.6012,15.301-1.455,1.7808-2.0562-.5051-8.1783-54.894-.8041-105.43 2.1104-157.56z" transform="matrix(-.12384 -1.6808 1.7051 -.12208 -5096.9 2612.9)"/>
<path opacity=".931" fill="#89a02c" filter="url(#filter6180-27)" d="m1385.9,127.85c4.3009,1.3231 3.3363,11.49 7.8286,1.2627 .6742,1.608 1.3153,3.4498 1.9225,5.4832s1.1804,4.2585 1.7186,6.633 1.7991,11.969 2.2665,14.6c.4673,2.631-10.465,10.168-10.071,12.971 .3945,2.8032 9.8435-12.511 10.163-9.6205 .3198,2.8909 2.1169,12.118 2.3599,15.012 .243,2.8941 .4472,5.7688 .6115,8.5817 .1644,2.8129 .5415-.4968 .6252,2.1505l-18.751,5.8084 .6945-34.093-3.3461,34.093-12.943-5.5558c.1495-.8357 .073-1.7962 .2735-2.8632 .2004-1.067-.3325-1.2304-.086-2.4922 .2466-1.2617 .037-3.7988 1.0555-2.7686 5.4788,5.5413 20.222,21.726 .6676-3.1876-.9723-1.2388 .6665-3.1335 1.0231-4.7592 .3566-1.6256 .728-3.2844 1.1119-4.958 .3838-1.6736 .78-3.3619 1.1863-5.0467s.8227-3.366 1.2468-5.0253c.424-1.6593 .8557-3.2967 1.2928-4.8939s.8795-3.1541 1.3248-4.6524 .8936-2.9381 1.3425-4.3008c.4489-1.3628 .8983-2.6486 1.346-3.8392s.8936-2.2858 1.3354-3.2675c.4417-.9817 .8793-1.8497 1.3104-2.5857 .4311-.7361 .8557-1.3401 1.2714-1.7939 .4157-.4538 .8225-.7572 1.2181-.8919z" transform="matrix(-.12384 -1.6808 1.7051 -.12208 -5096.9 2612.9)"/>
</g>
<g fill="#fc0" transform="matrix(-1 0 0 1 -4669.093 -218.4)">
<path d="m-5018.2,266.37s-31.6-8.1274-31.479-10.121c.1211-1.9932 3.6893-4.2059 9.9275-6.525 6.2382-2.3193 15.146-4.7446 25.948-7.1627 2.7003-.6045 5.5189-1.2086 8.4437-1.8104 2.9248-.6017 22.066,17.7 25.191,17.105 3.125-.5956-22.958-17.011-19.657-17.597 3.3009-.5857 19.876-4.2439 23.328-4.8163 13.81-2.2901 28.736-4.4594 44.001-6.3944 3.8162-.4836 7.6536-.9528 11.5-1.4054 3.8464-.4526 31.514,28.555 35.367,28.137 3.8524-.4178-31.213-29.608-27.379-29.988 3.834-.3793 22.755-1.3943 26.546-1.7316 15.165-1.3529 30.754-2.4196 44.266-2.9633 3.378-.1354 6.68-.2431 9.8939-.3196 3.2139-.0763 30.309,31.444 33.334,31.431 3.0256-.0134-28.477-32.519-25.664-32.466 2.813,.0531 15.973,1.0982 18.549,1.2213 10.304,.4925 7.6872,.7632 30.124,2.0349s24.65,28.921 15.569,29.181c-84.355,13.209-168.59,9.9372-257.81,14.191z"/>
<path d="m-4998.7,265.94s-53.448-14.443-50.504,1.9092c.4033,2.2405 4.2573,4.5758 10.775,6.9076 6.5172,2.3318 15.698,4.6601 26.754,6.8867 11.057,2.2268 27.834,3.65 41.855,5.5753 47.158-41.98 4.0295,.1831 4.4911,1.9722 15.412,1.4277 68.556,5.5567 83.79,6.1574 3.5737-.0734 20.685-.1466 24.521-.057 3.836,.0897 27.312-29.038 31.42-28.746 3.1192,.2219-25.824,29.637-20.12,29.654 4.4139,.0131 8.9777,.1726 13.704,.1386 10.135-1.2437 56.327,2.4715 75.163-14.43s-5.5642-34.117 3.5336-28.415c-85.013,6.3762-21.448-1.2738-245.38,12.448z"/>
</g>
<g transform="matrix(-1 0 0 1 -4669.093 -218.4)">
<path fill="#484537" d="m-4999.7,266.05-.1106-1.5008c90.01-4.0425 179.74-2.1727 270.37-19.358 26.236,.1331 4.1924,3.7229 .4422,6.0029-90.663,16.675-180.71,10.859-270.71,14.856z"/>
<path fill="#c8c4b7" filter="url(#filter6157-18)" d="m1385.8,157.62-1.3167-.2525c.3779,38.802-8.4751,101.17 0,158.32-.6012,15.301-1.455,1.7808-2.0562-.5051-8.1783-54.894-.8041-105.43 2.1104-157.56z" transform="matrix(-.12384 -1.6808 1.7051 -.12208 -5096.9 2612.9)"/>
<path opacity=".931" fill="#89a02c" filter="url(#filter6180-27)" d="m1385.9,127.85c4.3009,1.3231 3.3363,11.49 7.8286,1.2627 .6742,1.608 1.3153,3.4498 1.9225,5.4832s1.1804,4.2585 1.7186,6.633 1.7991,11.969 2.2665,14.6c.4673,2.631-10.465,10.168-10.071,12.971 .3945,2.8032 9.8435-12.511 10.163-9.6205 .3198,2.8909 2.1169,12.118 2.3599,15.012 .243,2.8941 .4472,5.7688 .6115,8.5817 .1644,2.8129 .5415-.4968 .6252,2.1505l-18.751,5.8084 .6945-34.093-3.3461,34.093-12.943-5.5558c.1495-.8357 .073-1.7962 .2735-2.8632 .2004-1.067-.3325-1.2304-.086-2.4922 .2466-1.2617 .037-3.7988 1.0555-2.7686 5.4788,5.5413 20.222,21.726 .6676-3.1876-.9723-1.2388 .6665-3.1335 1.0231-4.7592 .3566-1.6256 .728-3.2844 1.1119-4.958 .3838-1.6736 .78-3.3619 1.1863-5.0467s.8227-3.366 1.2468-5.0253c.424-1.6593 .8557-3.2967 1.2928-4.8939s.8795-3.1541 1.3248-4.6524 .8936-2.9381 1.3425-4.3008c.4489-1.3628 .8983-2.6486 1.346-3.8392s.8936-2.2858 1.3354-3.2675c.4417-.9817 .8793-1.8497 1.3104-2.5857 .4311-.7361 .8557-1.3401 1.2714-1.7939 .4157-.4538 .8225-.7572 1.2181-.8919z" transform="matrix(-.12384 -1.6808 1.7051 -.12208 -5096.9 2612.9)"/>
</g>
<g fill="#f60" transform="matrix(-1 0 0 1 -4324.993 -92.16)">
<path d="m-4751.2,138.55s31.415-8.0798 31.295-10.061c-.1204-1.9815-3.6677-4.1813-9.8694-6.4868-6.2016-2.3057-15.058-4.7167-25.796-7.1208-2.6845-.6009-5.4866-1.2014-8.3942-1.7998-2.9077-.5982-21.936,17.596-25.043,17.004-3.1067-.5921 22.824-16.911 19.542-17.494-3.2816-.5823-19.759-4.219-23.192-4.7881-13.729-2.2767-28.568-4.4332-43.743-6.3569-3.7939-.4808-7.6087-.9472-11.433-1.3972-3.8239-.45-31.33,28.388-35.16,27.972-3.8298-.4153 31.03-29.434 27.219-29.812-3.8115-.377-22.621-1.3861-26.391-1.7215-15.076-1.345-30.573-2.4055-44.006-2.9459-3.3582-.1346-6.6408-.2416-9.8359-.3177-3.1951-.0759-30.131,31.26-33.139,31.247-3.0079-.0134 28.31-32.329 25.514-32.276-2.7964,.0528-15.879,1.0918-18.44,1.2142-10.244,.4896-7.6421,.7587-29.948,2.023s-24.506,28.751-15.478,29.01c83.861,13.131 167.61,9.879 256.3,14.108z"/>
<path d="m-4770.5,138.12s53.135-14.358 50.208,1.898c-.4009,2.2274-4.2323,4.5489-10.711,6.8671-6.4791,2.3181-15.606,4.6328-26.598,6.8464-10.992,2.2137-27.67,3.6286-41.61,5.5426-46.881-41.734-4.0059,.182-4.4647,1.9606-15.322,1.4193-68.155,5.5241-83.299,6.1213-3.5527-.0729-20.564-.1458-24.377-.0567-3.8136,.0891-27.152-28.868-31.236-28.577-3.1008,.2206 25.673,29.463 20.002,29.48-4.388,.0131-8.9251,.1716-13.624,.1378-10.076-1.2364-55.997,2.457-74.722-14.346s5.5317-33.917-3.5129-28.249c84.515,6.3389 21.322-1.2664 243.94,12.375z"/>
</g>
<g transform="matrix(-1 0 0 1 -4324.993 -92.16)">
<path fill="#484537" d="m-4769.6,138.23 .1099-1.492c-89.482-4.0188-178.68-2.1599-268.79-19.244-26.083,.1323-4.1679,3.7011-.4396,5.9678 90.131,16.577 179.65,10.796 269.12,14.768z"/>
<path fill="#c8c4b7" filter="url(#filter6157-18)" d="m1385.8,157.62-1.3167-.2525c.3779,38.802-8.4751,101.17 0,158.32-.6012,15.301-1.455,1.7808-2.0562-.5051-8.1783-54.894-.8041-105.43 2.1104-157.56z" transform="matrix(.12311 -1.6709 -1.6951 -.12136 -4672.9 2471.3)"/>
<path opacity=".931" fill="#89a02c" filter="url(#filter3808)" d="m1385.9,127.85c4.3009,1.3231 3.3363,11.49 7.8286,1.2627 .6742,1.608 1.3153,3.4498 1.9225,5.4832s1.1804,4.2585 1.7186,6.633 1.7991,11.969 2.2665,14.6c.4673,2.631-10.465,10.168-10.071,12.971 .3945,2.8032 9.8435-12.511 10.163-9.6205 .3198,2.8909 2.1169,12.118 2.3599,15.012 .243,2.8941 .4472,5.7688 .6115,8.5817 .1644,2.8129 .5415-.4968 .6252,2.1505l-18.751,5.8084 .6945-34.093-3.3461,34.093-12.943-5.5558c.1495-.8357 .073-1.7962 .2735-2.8632 .2004-1.067-.3325-1.2304-.086-2.4922 .2466-1.2617 .037-3.7988 1.0555-2.7686 5.4788,5.5413 20.222,21.726 .6676-3.1876-.9723-1.2388 .6665-3.1335 1.0231-4.7592 .3566-1.6256 .728-3.2844 1.1119-4.958 .3838-1.6736 .78-3.3619 1.1863-5.0467s.8227-3.366 1.2468-5.0253c.424-1.6593 .8557-3.2967 1.2928-4.8939s.8795-3.1541 1.3248-4.6524 .8936-2.9381 1.3425-4.3008c.4489-1.3628 .8983-2.6486 1.346-3.8392s.8936-2.2858 1.3354-3.2675c.4417-.9817 .8793-1.8497 1.3104-2.5857 .4311-.7361 .8557-1.3401 1.2714-1.7939 .4157-.4538 .8225-.7572 1.2181-.8919z" transform="matrix(.12311 -1.6709 -1.6951 -.12136 -4672.9 2471.3)"/>
</g>
<g fill="#f60" transform="matrix(0 1 -1 0 168.407 5748.54)">
<path d="m-4751.2,138.55s31.415-8.0798 31.295-10.061c-.1204-1.9815-3.6677-4.1813-9.8694-6.4868-6.2016-2.3057-15.058-4.7167-25.796-7.1208-2.6845-.6009-5.4866-1.2014-8.3942-1.7998-2.9077-.5982-21.936,17.596-25.043,17.004-3.1067-.5921 22.824-16.911 19.542-17.494-3.2816-.5823-19.759-4.219-23.192-4.7881-13.729-2.2767-28.568-4.4332-43.743-6.3569-3.7939-.4808-7.6087-.9472-11.433-1.3972-3.8239-.45-31.33,28.388-35.16,27.972-3.8298-.4153 31.03-29.434 27.219-29.812-3.8115-.377-22.621-1.3861-26.391-1.7215-15.076-1.345-30.573-2.4055-44.006-2.9459-3.3582-.1346-6.6408-.2416-9.8359-.3177-3.1951-.0759-30.131,31.26-33.139,31.247-3.0079-.0134 28.31-32.329 25.514-32.276-2.7964,.0528-15.879,1.0918-18.44,1.2142-10.244,.4896-7.6421,.7587-29.948,2.023s-24.506,28.751-15.478,29.01c83.861,13.131 167.61,9.879 256.3,14.108z"/>
<path d="m-4770.5,138.12s53.135-14.358 50.208,1.898c-.4009,2.2274-4.2323,4.5489-10.711,6.8671-6.4791,2.3181-15.606,4.6328-26.598,6.8464-10.992,2.2137-27.67,3.6286-41.61,5.5426-46.881-41.734-4.0059,.182-4.4647,1.9606-15.322,1.4193-68.155,5.5241-83.299,6.1213-3.5527-.0729-20.564-.1458-24.377-.0567-3.8136,.0891-27.152-28.868-31.236-28.577-3.1008,.2206 25.673,29.463 20.002,29.48-4.388,.0131-8.9251,.1716-13.624,.1378-10.076-1.2364-55.997,2.457-74.722-14.346s5.5317-33.917-3.5129-28.249c84.515,6.3389 21.322-1.2664 243.94,12.375z"/>
</g>
<g transform="matrix(0 1 -1 0 168.407 5748.54)">
<path fill="#484537" d="m-4769.6,138.23 .1099-1.492c-89.482-4.0188-178.68-2.1599-268.79-19.244-26.083,.1323-4.1679,3.7011-.4396,5.9678 90.131,16.577 179.65,10.796 269.12,14.768z"/>
<path fill="#c8c4b7" filter="url(#filter6157-18)" d="m1385.8,157.62-1.3167-.2525c.3779,38.802-8.4751,101.17 0,158.32-.6012,15.301-1.455,1.7808-2.0562-.5051-8.1783-54.894-.8041-105.43 2.1104-157.56z" transform="matrix(.12311 -1.6709 -1.6951 -.12136 -4672.9 2471.3)"/>
<path opacity=".931" fill="#89a02c" filter="url(#filter3808)" d="m1385.9,127.85c4.3009,1.3231 3.3363,11.49 7.8286,1.2627 .6742,1.608 1.3153,3.4498 1.9225,5.4832s1.1804,4.2585 1.7186,6.633 1.7991,11.969 2.2665,14.6c.4673,2.631-10.465,10.168-10.071,12.971 .3945,2.8032 9.8435-12.511 10.163-9.6205 .3198,2.8909 2.1169,12.118 2.3599,15.012 .243,2.8941 .4472,5.7688 .6115,8.5817 .1644,2.8129 .5415-.4968 .6252,2.1505l-18.751,5.8084 .6945-34.093-3.3461,34.093-12.943-5.5558c.1495-.8357 .073-1.7962 .2735-2.8632 .2004-1.067-.3325-1.2304-.086-2.4922 .2466-1.2617 .037-3.7988 1.0555-2.7686 5.4788,5.5413 20.222,21.726 .6676-3.1876-.9723-1.2388 .6665-3.1335 1.0231-4.7592 .3566-1.6256 .728-3.2844 1.1119-4.958 .3838-1.6736 .78-3.3619 1.1863-5.0467s.8227-3.366 1.2468-5.0253c.424-1.6593 .8557-3.2967 1.2928-4.8939s.8795-3.1541 1.3248-4.6524 .8936-2.9381 1.3425-4.3008c.4489-1.3628 .8983-2.6486 1.346-3.8392s.8936-2.2858 1.3354-3.2675c.4417-.9817 .8793-1.8497 1.3104-2.5857 .4311-.7361 .8557-1.3401 1.2714-1.7939 .4157-.4538 .8225-.7572 1.2181-.8919z" transform="matrix(.12311 -1.6709 -1.6951 -.12136 -4672.9 2471.3)"/>
</g>
<g fill="#f60" transform="matrix(0 1 -1 0 54.357 5417.24)">
<path filter="url(#filter6184-17)" d="m1183.3,167.51s6.1491-18.087 7.3236-17.93c1.1745,.1563 2.3329,2.3332 3.4411,6.0723 1.1083,3.7391 2.1662,9.0406 3.1397,15.446 .2433,1.6014 .4814,3.2718 .7137,5.004 .2322,1.7322-11.411,12.113-11.19,13.961 .2201,1.8488 11.04-12.663 11.247-10.712 .2068,1.951 1.6695,11.778 1.862,13.817 .7702,8.1554 1.4216,16.957 1.92,25.945 .1245,2.2472 .2396,4.5061 .3445,6.7696s-18.236,17.158-18.151,19.424c.084,2.2655 18.846-16.937 18.908-14.684 .062,2.2531-.139,13.335-.1,15.562 .1581,8.9058 .1289,18.046-.1219,25.952-.063,1.9766-.1392,3.9076-.2301,5.7859-.091,1.8783-19.894,16.331-20.014,18.097-.1202,1.7657 20.453-15.216 20.302-13.577-.1506,1.6388-1.3268,9.2716-1.5088,10.769-.7281,5.9904-.7774,4.452-2.4808,17.487s-18.161,13.138-17.93,7.8287c-4.2431-49.782 1.2627-98.787 2.5254-151.02z" transform="matrix(-.04045 1.6262 1.6497 .03987 -5240.4 -1924.5)"/>
<path d="m-4993.2,5.996s-50.855,16.365-48.785,.4646c.2837-2.1786 3.8899-4.6061 10.064-7.1518 6.1743-2.5457 14.917-5.2098 25.473-7.8614s26.665-4.7898 40.094-7.2861c47.44,38.323 3.8765-.3605 4.2375-2.1066 14.793-2.08 65.84-8.487 80.499-9.7617 3.4491-.0923 19.951-.8028 23.645-1.0643 3.6944-.2614 27.698,26.751 31.645,26.282 2.997-.3563-26.291-27.396-20.792-27.673 4.255-.2142 8.6479-.5764 13.207-.7592 9.8303,.7364 54.194-4.9543 73.148,10.482 18.955,15.436-3.7622,33.149 4.7419,27.236-82.268-2.267-20.619,2.2073-237.18-.8008z"/>
</g>
<g transform="matrix(0 1 -1 0 54.357 5417.24)">
<path fill="#484537" d="m-4994.1,5.9352-.036,1.452c86.975-.2111 173.4-6.1098 261.6,6.3223 25.29-1.3261 3.8674-3.7809 .1444-5.8081-88.198-11.939-174.75-2.2212-261.71-1.9662z"/>
<path fill="#c8c4b7" filter="url(#filter6157-1)" d="m1183.6,178.33-1.3167-.2525c.3779,38.802-8.4751,101.17 0,158.32-.6012,15.301-1.455,1.7808-2.0562-.5051-8.1783-54.894-.8041-105.43 2.1104-157.56z" transform="matrix(-.04045 1.6262 1.6497 .03987 -5240.4 -1924.5)"/>
<path opacity=".931" fill="#89a02c" filter="url(#filter6180-2)" d="m1183.8,148.57c4.3009,1.3231 3.3363,11.49 7.8286,1.2627 .6742,1.608 1.3153,3.4498 1.9225,5.4832s1.1804,4.2585 1.7186,6.633 1.7991,11.969 2.2665,14.6c.4673,2.631-10.465,10.168-10.071,12.971 .3945,2.8032 9.8435-12.511 10.163-9.6205 .3198,2.8909 2.1169,12.118 2.3599,15.012 .243,2.8941 .4472,5.7688 .6115,8.5817 .1644,2.8129 .5415-.4968 .6252,2.1505l-18.751,5.8084 .6945-34.093-3.3461,34.093-12.943-5.5558c.1495-.8357 .073-1.7962 .2735-2.8632 .2004-1.067-.3325-1.2304-.086-2.4922 .2466-1.2617 .037-3.7988 1.0555-2.7686 5.4788,5.5413 20.222,21.726 .6676-3.1876-.9723-1.2388 .6665-3.1335 1.0231-4.7592 .3566-1.6256 .728-3.2844 1.1119-4.958 .3838-1.6736 .78-3.3619 1.1863-5.0467s.8227-3.366 1.2468-5.0253c.424-1.6593 .8557-3.2967 1.2928-4.8939s.8795-3.1541 1.3248-4.6524 .8936-2.9381 1.3425-4.3008c.4489-1.3628 .8983-2.6486 1.346-3.8392s.8936-2.2858 1.3354-3.2675c.4417-.9817 .8793-1.8497 1.3104-2.5857 .4311-.7361 .8557-1.3401 1.2714-1.7939 .4157-.4538 .8225-.7572 1.2181-.8919z" transform="matrix(-.04045 1.6262 1.6497 .03987 -5240.4 -1924.5)"/>
</g>
<g fill="#800080" transform="matrix(0 1 -1 0 54.357 5417.24)">
<path d="m-5012,6.4695s-30.086,9.2787-29.876,11.195c.2104,1.9162 3.7547,3.8869 9.8784,5.8381 6.1237,1.9514 14.827,3.8832 25.355,5.7217 2.632,.4595 5.378,.9133 8.2262,1.3602 2.8483,.4467 20.444-18.073 23.485-17.642 3.041,.4316-21.337,17.449-18.126,17.864 3.2101,.4141 19.363,3.1846 22.719,3.5789 13.423,1.5777 27.916,2.9879 42.725,4.1568 3.7022,.2921 7.4241,.5693 11.154,.8301s29.044-28.971 32.778-28.744c3.734,.2269-28.704,29.972-24.99,30.163 3.7145,.1907 22.005,.3056 25.676,.4578 14.686,.6122 29.766,.9291 42.819,.8365 3.2634-.0237 6.4521-.0706 9.5545-.1435 3.1024-.0731 27.746-31.701 30.664-31.826 2.9178-.1251-25.93,32.654-23.22,32.475 2.7097-.1796 15.349-1.788 17.827-2.0243 9.9119-.9452 7.3759-1.0867 28.95-3.3371s22.409-29.01 13.64-28.846c-81.954-8.8851-163.02-1.8852-249.24-1.9142z"/>
<path d="m-4993.2,5.996s-50.855,16.365-48.785,.4646c.2837-2.1786 3.8899-4.6061 10.064-7.1518 6.1743-2.5457 14.917-5.2098 25.473-7.8614s26.665-4.7898 40.094-7.2861c47.44,38.323 3.8765-.3605 4.2375-2.1066 14.793-2.08 65.84-8.487 80.499-9.7617 3.4491-.0923 19.951-.8028 23.645-1.0643 3.6944-.2614 27.698,26.751 31.645,26.282 2.997-.3563-26.291-27.396-20.792-27.673 4.255-.2142 8.6479-.5764 13.207-.7592 9.8303,.7364 54.194-4.9543 73.148,10.482 18.955,15.436-3.7622,33.149 4.7419,27.236-82.268-2.267-20.619,2.2073-237.18-.8008z"/>
</g>
<g transform="matrix(0 1 -1 0 54.357 5417.24)">
<path fill="#484537" d="m-4994.1,5.9352-.036,1.452c86.975-.2111 173.4-6.1098 261.6,6.3223 25.29-1.3261 3.8674-3.7809 .1444-5.8081-88.198-11.939-174.75-2.2212-261.71-1.9662z"/>
<path fill="#c8c4b7" filter="url(#filter6157-1)" d="m1183.6,178.33-1.3167-.2525c.3779,38.802-8.4751,101.17 0,158.32-.6012,15.301-1.455,1.7808-2.0562-.5051-8.1783-54.894-.8041-105.43 2.1104-157.56z" transform="matrix(-.04045 1.6262 1.6497 .03987 -5240.4 -1924.5)"/>
<path opacity=".931" fill="#89a02c" filter="url(#filter8883)" d="m1183.8,148.57c4.3009,1.3231 3.3363,11.49 7.8286,1.2627 .6742,1.608 1.3153,3.4498 1.9225,5.4832s1.1804,4.2585 1.7186,6.633 1.7991,11.969 2.2665,14.6c.4673,2.631-10.465,10.168-10.071,12.971 .3945,2.8032 9.8435-12.511 10.163-9.6205 .3198,2.8909 2.1169,12.118 2.3599,15.012 .243,2.8941 .4472,5.7688 .6115,8.5817 .1644,2.8129 .5415-.4968 .6252,2.1505l-18.751,5.8084 .6945-34.093-3.3461,34.093-12.943-5.5558c.1495-.8357 .073-1.7962 .2735-2.8632 .2004-1.067-.3325-1.2304-.086-2.4922 .2466-1.2617 .037-3.7988 1.0555-2.7686 5.4788,5.5413 20.222,21.726 .6676-3.1876-.9723-1.2388 .6665-3.1335 1.0231-4.7592 .3566-1.6256 .728-3.2844 1.1119-4.958 .3838-1.6736 .78-3.3619 1.1863-5.0467s.8227-3.366 1.2468-5.0253c.424-1.6593 .8557-3.2967 1.2928-4.8939s.8795-3.1541 1.3248-4.6524 .8936-2.9381 1.3425-4.3008c.4489-1.3628 .8983-2.6486 1.346-3.8392s.8936-2.2858 1.3354-3.2675c.4417-.9817 .8793-1.8497 1.3104-2.5857 .4311-.7361 .8557-1.3401 1.2714-1.7939 .4157-.4538 .8225-.7572 1.2181-.8919z" transform="matrix(-.04045 1.6262 1.6497 .03987 -5240.4 -1924.5)"/>
</g>
<g fill="#fc0" transform="matrix(0 1 -1 0 299.927 6102.84)">
<path d="m-5018.2,266.37s-31.6-8.1274-31.479-10.121c.1211-1.9932 3.6893-4.2059 9.9275-6.525 6.2382-2.3193 15.146-4.7446 25.948-7.1627 2.7003-.6045 5.5189-1.2086 8.4437-1.8104 2.9248-.6017 22.066,17.7 25.191,17.105 3.125-.5956-22.958-17.011-19.657-17.597 3.3009-.5857 19.876-4.2439 23.328-4.8163 13.81-2.2901 28.736-4.4594 44.001-6.3944 3.8162-.4836 7.6536-.9528 11.5-1.4054 3.8464-.4526 31.514,28.555 35.367,28.137 3.8524-.4178-31.213-29.608-27.379-29.988 3.834-.3793 22.755-1.3943 26.546-1.7316 15.165-1.3529 30.754-2.4196 44.266-2.9633 3.378-.1354 6.68-.2431 9.8939-.3196 3.2139-.0763 30.309,31.444 33.334,31.431 3.0256-.0134-28.477-32.519-25.664-32.466 2.813,.0531 15.973,1.0982 18.549,1.2213 10.304,.4925 7.6872,.7632 30.124,2.0349s24.65,28.921 15.569,29.181c-84.355,13.209-168.59,9.9372-257.81,14.191z"/>
<path d="m-4998.7,265.94s-53.448-14.443-50.504,1.9092c.4033,2.2405 4.2573,4.5758 10.775,6.9076 6.5172,2.3318 15.698,4.6601 26.754,6.8867 11.057,2.2268 27.834,3.65 41.855,5.5753 47.158-41.98 4.0295,.1831 4.4911,1.9722 15.412,1.4277 68.556,5.5567 83.79,6.1574 3.5737-.0734 20.685-.1466 24.521-.057 3.836,.0897 27.312-29.038 31.42-28.746 3.1192,.2219-25.824,29.637-20.12,29.654 4.4139,.0131 8.9777,.1726 13.704,.1386 10.135-1.2437 56.327,2.4715 75.163-14.43s-5.5642-34.117 3.5336-28.415c-85.013,6.3762-21.448-1.2738-245.38,12.448z"/>
</g>
<g transform="matrix(0 1 -1 0 299.927 6102.84)">
<path fill="#484537" d="m-4999.7,266.05-.1106-1.5008c90.01-4.0425 179.74-2.1727 270.37-19.358 26.236,.1331 4.1924,3.7229 .4422,6.0029-90.663,16.675-180.71,10.859-270.71,14.856z"/>
<path fill="#c8c4b7" filter="url(#filter6157-18)" d="m1385.8,157.62-1.3167-.2525c.3779,38.802-8.4751,101.17 0,158.32-.6012,15.301-1.455,1.7808-2.0562-.5051-8.1783-54.894-.8041-105.43 2.1104-157.56z" transform="matrix(-.12384 -1.6808 1.7051 -.12208 -5096.9 2612.9)"/>
<path opacity=".931" fill="#89a02c" filter="url(#filter6180-27)" d="m1385.9,127.85c4.3009,1.3231 3.3363,11.49 7.8286,1.2627 .6742,1.608 1.3153,3.4498 1.9225,5.4832s1.1804,4.2585 1.7186,6.633 1.7991,11.969 2.2665,14.6c.4673,2.631-10.465,10.168-10.071,12.971 .3945,2.8032 9.8435-12.511 10.163-9.6205 .3198,2.8909 2.1169,12.118 2.3599,15.012 .243,2.8941 .4472,5.7688 .6115,8.5817 .1644,2.8129 .5415-.4968 .6252,2.1505l-18.751,5.8084 .6945-34.093-3.3461,34.093-12.943-5.5558c.1495-.8357 .073-1.7962 .2735-2.8632 .2004-1.067-.3325-1.2304-.086-2.4922 .2466-1.2617 .037-3.7988 1.0555-2.7686 5.4788,5.5413 20.222,21.726 .6676-3.1876-.9723-1.2388 .6665-3.1335 1.0231-4.7592 .3566-1.6256 .728-3.2844 1.1119-4.958 .3838-1.6736 .78-3.3619 1.1863-5.0467s.8227-3.366 1.2468-5.0253c.424-1.6593 .8557-3.2967 1.2928-4.8939s.8795-3.1541 1.3248-4.6524 .8936-2.9381 1.3425-4.3008c.4489-1.3628 .8983-2.6486 1.346-3.8392s.8936-2.2858 1.3354-3.2675c.4417-.9817 .8793-1.8497 1.3104-2.5857 .4311-.7361 .8557-1.3401 1.2714-1.7939 .4157-.4538 .8225-.7572 1.2181-.8919z" transform="matrix(-.12384 -1.6808 1.7051 -.12208 -5096.9 2612.9)"/>
</g>
<g fill="#f60" transform="matrix(0 -1 -1 0 871.477 -4334.86)">
<path d="m-4751.2,138.55s31.415-8.0798 31.295-10.061c-.1204-1.9815-3.6677-4.1813-9.8694-6.4868-6.2016-2.3057-15.058-4.7167-25.796-7.1208-2.6845-.6009-5.4866-1.2014-8.3942-1.7998-2.9077-.5982-21.936,17.596-25.043,17.004-3.1067-.5921 22.824-16.911 19.542-17.494-3.2816-.5823-19.759-4.219-23.192-4.7881-13.729-2.2767-28.568-4.4332-43.743-6.3569-3.7939-.4808-7.6087-.9472-11.433-1.3972-3.8239-.45-31.33,28.388-35.16,27.972-3.8298-.4153 31.03-29.434 27.219-29.812-3.8115-.377-22.621-1.3861-26.391-1.7215-15.076-1.345-30.573-2.4055-44.006-2.9459-3.3582-.1346-6.6408-.2416-9.8359-.3177-3.1951-.0759-30.131,31.26-33.139,31.247-3.0079-.0134 28.31-32.329 25.514-32.276-2.7964,.0528-15.879,1.0918-18.44,1.2142-10.244,.4896-7.6421,.7587-29.948,2.023s-24.506,28.751-15.478,29.01c83.861,13.131 167.61,9.879 256.3,14.108z"/>
<path d="m-4770.5,138.12s53.135-14.358 50.208,1.898c-.4009,2.2274-4.2323,4.5489-10.711,6.8671-6.4791,2.3181-15.606,4.6328-26.598,6.8464-10.992,2.2137-27.67,3.6286-41.61,5.5426-46.881-41.734-4.0059,.182-4.4647,1.9606-15.322,1.4193-68.155,5.5241-83.299,6.1213-3.5527-.0729-20.564-.1458-24.377-.0567-3.8136,.0891-27.152-28.868-31.236-28.577-3.1008,.2206 25.673,29.463 20.002,29.48-4.388,.0131-8.9251,.1716-13.624,.1378-10.076-1.2364-55.997,2.457-74.722-14.346s5.5317-33.917-3.5129-28.249c84.515,6.3389 21.322-1.2664 243.94,12.375z"/>
</g>
<g transform="matrix(0 -1 -1 0 871.477 -4334.86)">
<path fill="#484537" d="m-4769.6,138.23 .1099-1.492c-89.482-4.0188-178.68-2.1599-268.79-19.244-26.083,.1323-4.1679,3.7011-.4396,5.9678 90.131,16.577 179.65,10.796 269.12,14.768z"/>
<path fill="#c8c4b7" filter="url(#filter6157-18)" d="m1385.8,157.62-1.3167-.2525c.3779,38.802-8.4751,101.17 0,158.32-.6012,15.301-1.455,1.7808-2.0562-.5051-8.1783-54.894-.8041-105.43 2.1104-157.56z" transform="matrix(.12311 -1.6709 -1.6951 -.12136 -4672.9 2471.3)"/>
<path opacity=".931" fill="#89a02c" filter="url(#filter3808)" d="m1385.9,127.85c4.3009,1.3231 3.3363,11.49 7.8286,1.2627 .6742,1.608 1.3153,3.4498 1.9225,5.4832s1.1804,4.2585 1.7186,6.633 1.7991,11.969 2.2665,14.6c.4673,2.631-10.465,10.168-10.071,12.971 .3945,2.8032 9.8435-12.511 10.163-9.6205 .3198,2.8909 2.1169,12.118 2.3599,15.012 .243,2.8941 .4472,5.7688 .6115,8.5817 .1644,2.8129 .5415-.4968 .6252,2.1505l-18.751,5.8084 .6945-34.093-3.3461,34.093-12.943-5.5558c.1495-.8357 .073-1.7962 .2735-2.8632 .2004-1.067-.3325-1.2304-.086-2.4922 .2466-1.2617 .037-3.7988 1.0555-2.7686 5.4788,5.5413 20.222,21.726 .6676-3.1876-.9723-1.2388 .6665-3.1335 1.0231-4.7592 .3566-1.6256 .728-3.2844 1.1119-4.958 .3838-1.6736 .78-3.3619 1.1863-5.0467s.8227-3.366 1.2468-5.0253c.424-1.6593 .8557-3.2967 1.2928-4.8939s.8795-3.1541 1.3248-4.6524 .8936-2.9381 1.3425-4.3008c.4489-1.3628 .8983-2.6486 1.346-3.8392s.8936-2.2858 1.3354-3.2675c.4417-.9817 .8793-1.8497 1.3104-2.5857 .4311-.7361 .8557-1.3401 1.2714-1.7939 .4157-.4538 .8225-.7572 1.2181-.8919z" transform="matrix(.12311 -1.6709 -1.6951 -.12136 -4672.9 2471.3)"/>
</g>
<g fill="#c83737" transform="matrix(0 -1 -1 0 642.607 -3664.46)">
<path d="m-4754.4-107.64s30.433,8.4652 30.277,10.392c-.1559,1.9273-3.6533,4.002-9.7375,6.1291-6.0841,2.1273-14.755,4.3069-25.259,6.4437-2.6259,.5341-5.3663,1.0657-8.2094,1.5931-2.8431,.5273-21.017-17.552-24.054-17.035-3.0368,.5176 21.894,16.902 18.688,17.406-3.2069,.5047-19.324,3.7328-22.677,4.2217-13.414,1.956-27.905,3.774-42.72,5.3587-3.7038,.396-7.4278,.7777-11.16,1.1432-3.7325,.3655-29.953-28.239-33.691-27.907-3.7375,.3316 29.641,29.253 25.922,29.548-3.719,.2947-22.056,.9197-25.732,1.1747-14.708,1.0231-29.819,1.7612-42.91,2.0321-3.2728,.0672-6.4715,.1091-9.5843,.1224-3.1128,.0132-28.73-31.013-31.659-31.057-2.9292-.0441 26.936,32.019 24.214,31.915-2.7222-.1045-15.442-1.365-17.933-1.5329-9.9657-.6715-7.4269-.8841-29.123-2.5393s-23.301-28.464-14.504-28.544c81.919-11.193 163.41-6.4338 249.85-8.8657z"/>
<path d="m-4773.3-107.59s51.461,14.992 48.929-.8939c-.3469-2.1765-4.0324-4.5101-10.296-6.8906-6.2642-2.3798-15.106-4.8079-25.767-7.1724-10.66-2.3648-26.874-4.0596-40.41-6.1884-46.469,39.749-3.8974-.2534-4.3094-1.994-14.892-1.6735-66.26-6.675-80.995-7.5444-3.461,.004-20.028-.2489-23.74-.4082-3.7118-.1593-27.005,27.595-30.976,27.234-3.0151-.2738 25.576-28.203 20.054-28.327-4.2727-.0961-8.6878-.3368-13.264-.3931-9.8356,1.0125-54.481-3.4571-73.044,12.549s4.7231,33.133-3.9735,27.441c82.424-4.566 20.738,1.6386 237.79-7.413z"/>
</g>
<g transform="matrix(0 -1 -1 0 642.607 -3664.46)">
<path fill="#484537" d="m-4772.4-107.67 .078,1.455c-87.215,2.2123-174.04-1.2936-262.12,13.63-25.396-.6247-3.9862-3.6834-.3114-5.8197 88.093-14.429 175.15-7.0973 262.35-9.2653z"/>
<path fill="#c8c4b7" filter="url(#filter6157-4)" d="m1311.5,164.04-1.3167-.2525c.3779,38.802-8.4751,101.17 0,158.32-.6012,15.301-1.455,1.7808-2.0562-.5051-8.1783-54.894-.8041-105.43 2.1104-157.56z" transform="matrix(.0872 1.6295 -1.653 .08596 -4615.5 -2257.3)"/>
<path opacity=".931" fill="#89a02c" filter="url(#filter6180-9)" d="m1311.6,134.28c4.3009,1.3231 3.3363,11.49 7.8286,1.2627 .6742,1.608 1.3153,3.4498 1.9225,5.4832s1.1804,4.2585 1.7186,6.633 1.7991,11.969 2.2665,14.6c.4673,2.631-10.465,10.168-10.071,12.971 .3945,2.8032 9.8435-12.511 10.163-9.6205 .3198,2.8909 2.1169,12.118 2.3599,15.012 .243,2.8941 .4472,5.7688 .6115,8.5817 .1644,2.8129 .5415-.4968 .6252,2.1505l-18.751,5.8084 .6945-34.093-3.3461,34.093-12.943-5.5558c.1495-.8357 .073-1.7962 .2735-2.8632 .2004-1.067-.3325-1.2304-.086-2.4922 .2466-1.2617 .037-3.7988 1.0555-2.7686 5.4788,5.5413 20.222,21.726 .6676-3.1876-.9723-1.2388 .6665-3.1335 1.0231-4.7592 .3566-1.6256 .728-3.2844 1.1119-4.958 .3838-1.6736 .78-3.3619 1.1863-5.0467s.8227-3.366 1.2468-5.0253c.424-1.6593 .8557-3.2967 1.2928-4.8939s.8795-3.1541 1.3248-4.6524 .8936-2.9381 1.3425-4.3008c.4489-1.3628 .8983-2.6486 1.346-3.8392s.8936-2.2858 1.3354-3.2675c.4417-.9817 .8793-1.8497 1.3104-2.5857 .4311-.7361 .8557-1.3401 1.2714-1.7939 .4157-.4538 .8225-.7572 1.2181-.8919z" transform="matrix(.0872 1.6295 -1.653 .08596 -4615.5 -2257.3)"/>
</g>
<g fill="#f60" transform="matrix(0 -1 -1 0 757.427 -4003.56)">
<path filter="url(#filter6184-17)" d="m1183.3,167.51s6.1491-18.087 7.3236-17.93c1.1745,.1563 2.3329,2.3332 3.4411,6.0723 1.1083,3.7391 2.1662,9.0406 3.1397,15.446 .2433,1.6014 .4814,3.2718 .7137,5.004 .2322,1.7322-11.411,12.113-11.19,13.961 .2201,1.8488 11.04-12.663 11.247-10.712 .2068,1.951 1.6695,11.778 1.862,13.817 .7702,8.1554 1.4216,16.957 1.92,25.945 .1245,2.2472 .2396,4.5061 .3445,6.7696s-18.236,17.158-18.151,19.424c.084,2.2655 18.846-16.937 18.908-14.684 .062,2.2531-.139,13.335-.1,15.562 .1581,8.9058 .1289,18.046-.1219,25.952-.063,1.9766-.1392,3.9076-.2301,5.7859-.091,1.8783-19.894,16.331-20.014,18.097-.1202,1.7657 20.453-15.216 20.302-13.577-.1506,1.6388-1.3268,9.2716-1.5088,10.769-.7281,5.9904-.7774,4.452-2.4808,17.487s-18.161,13.138-17.93,7.8287c-4.2431-49.782 1.2627-98.787 2.5254-151.02z" transform="matrix(-.04045 1.6262 1.6497 .03987 -5240.4 -1924.5)"/>
<path d="m-4993.2,5.996s-50.855,16.365-48.785,.4646c.2837-2.1786 3.8899-4.6061 10.064-7.1518 6.1743-2.5457 14.917-5.2098 25.473-7.8614s26.665-4.7898 40.094-7.2861c47.44,38.323 3.8765-.3605 4.2375-2.1066 14.793-2.08 65.84-8.487 80.499-9.7617 3.4491-.0923 19.951-.8028 23.645-1.0643 3.6944-.2614 27.698,26.751 31.645,26.282 2.997-.3563-26.291-27.396-20.792-27.673 4.255-.2142 8.6479-.5764 13.207-.7592 9.8303,.7364 54.194-4.9543 73.148,10.482 18.955,15.436-3.7622,33.149 4.7419,27.236-82.268-2.267-20.619,2.2073-237.18-.8008z"/>
</g>
<g transform="matrix(0 -1 -1 0 757.427 -4003.56)">
<path fill="#484537" d="m-4994.1,5.9352-.036,1.452c86.975-.2111 173.4-6.1098 261.6,6.3223 25.29-1.3261 3.8674-3.7809 .1444-5.8081-88.198-11.939-174.75-2.2212-261.71-1.9662z"/>
<path fill="#c8c4b7" filter="url(#filter6157-1)" d="m1183.6,178.33-1.3167-.2525c.3779,38.802-8.4751,101.17 0,158.32-.6012,15.301-1.455,1.7808-2.0562-.5051-8.1783-54.894-.8041-105.43 2.1104-157.56z" transform="matrix(-.04045 1.6262 1.6497 .03987 -5240.4 -1924.5)"/>
<path opacity=".931" fill="#89a02c" filter="url(#filter6180-2)" d="m1183.8,148.57c4.3009,1.3231 3.3363,11.49 7.8286,1.2627 .6742,1.608 1.3153,3.4498 1.9225,5.4832s1.1804,4.2585 1.7186,6.633 1.7991,11.969 2.2665,14.6c.4673,2.631-10.465,10.168-10.071,12.971 .3945,2.8032 9.8435-12.511 10.163-9.6205 .3198,2.8909 2.1169,12.118 2.3599,15.012 .243,2.8941 .4472,5.7688 .6115,8.5817 .1644,2.8129 .5415-.4968 .6252,2.1505l-18.751,5.8084 .6945-34.093-3.3461,34.093-12.943-5.5558c.1495-.8357 .073-1.7962 .2735-2.8632 .2004-1.067-.3325-1.2304-.086-2.4922 .2466-1.2617 .037-3.7988 1.0555-2.7686 5.4788,5.5413 20.222,21.726 .6676-3.1876-.9723-1.2388 .6665-3.1335 1.0231-4.7592 .3566-1.6256 .728-3.2844 1.1119-4.958 .3838-1.6736 .78-3.3619 1.1863-5.0467s.8227-3.366 1.2468-5.0253c.424-1.6593 .8557-3.2967 1.2928-4.8939s.8795-3.1541 1.3248-4.6524 .8936-2.9381 1.3425-4.3008c.4489-1.3628 .8983-2.6486 1.346-3.8392s.8936-2.2858 1.3354-3.2675c.4417-.9817 .8793-1.8497 1.3104-2.5857 .4311-.7361 .8557-1.3401 1.2714-1.7939 .4157-.4538 .8225-.7572 1.2181-.8919z" transform="matrix(-.04045 1.6262 1.6497 .03987 -5240.4 -1924.5)"/>
</g>
<g fill="#800080" transform="matrix(0 -1 -1 0 757.427 -4003.56)">
<path d="m-5012,6.4695s-30.086,9.2787-29.876,11.195c.2104,1.9162 3.7547,3.8869 9.8784,5.8381 6.1237,1.9514 14.827,3.8832 25.355,5.7217 2.632,.4595 5.378,.9133 8.2262,1.3602 2.8483,.4467 20.444-18.073 23.485-17.642 3.041,.4316-21.337,17.449-18.126,17.864 3.2101,.4141 19.363,3.1846 22.719,3.5789 13.423,1.5777 27.916,2.9879 42.725,4.1568 3.7022,.2921 7.4241,.5693 11.154,.8301s29.044-28.971 32.778-28.744c3.734,.2269-28.704,29.972-24.99,30.163 3.7145,.1907 22.005,.3056 25.676,.4578 14.686,.6122 29.766,.9291 42.819,.8365 3.2634-.0237 6.4521-.0706 9.5545-.1435 3.1024-.0731 27.746-31.701 30.664-31.826 2.9178-.1251-25.93,32.654-23.22,32.475 2.7097-.1796 15.349-1.788 17.827-2.0243 9.9119-.9452 7.3759-1.0867 28.95-3.3371s22.409-29.01 13.64-28.846c-81.954-8.8851-163.02-1.8852-249.24-1.9142z"/>
<path d="m-4993.2,5.996s-50.855,16.365-48.785,.4646c.2837-2.1786 3.8899-4.6061 10.064-7.1518 6.1743-2.5457 14.917-5.2098 25.473-7.8614s26.665-4.7898 40.094-7.2861c47.44,38.323 3.8765-.3605 4.2375-2.1066 14.793-2.08 65.84-8.487 80.499-9.7617 3.4491-.0923 19.951-.8028 23.645-1.0643 3.6944-.2614 27.698,26.751 31.645,26.282 2.997-.3563-26.291-27.396-20.792-27.673 4.255-.2142 8.6479-.5764 13.207-.7592 9.8303,.7364 54.194-4.9543 73.148,10.482 18.955,15.436-3.7622,33.149 4.7419,27.236-82.268-2.267-20.619,2.2073-237.18-.8008z"/>
</g>
<g transform="matrix(0 -1 -1 0 757.427 -4003.56)">
<path fill="#484537" d="m-4994.1,5.9352-.036,1.452c86.975-.2111 173.4-6.1098 261.6,6.3223 25.29-1.3261 3.8674-3.7809 .1444-5.8081-88.198-11.939-174.75-2.2212-261.71-1.9662z"/>
<path fill="#c8c4b7" filter="url(#filter6157-1)" d="m1183.6,178.33-1.3167-.2525c.3779,38.802-8.4751,101.17 0,158.32-.6012,15.301-1.455,1.7808-2.0562-.5051-8.1783-54.894-.8041-105.43 2.1104-157.56z" transform="matrix(-.04045 1.6262 1.6497 .03987 -5240.4 -1924.5)"/>
<path opacity=".931" fill="#89a02c" filter="url(#filter8883)" d="m1183.8,148.57c4.3009,1.3231 3.3363,11.49 7.8286,1.2627 .6742,1.608 1.3153,3.4498 1.9225,5.4832s1.1804,4.2585 1.7186,6.633 1.7991,11.969 2.2665,14.6c.4673,2.631-10.465,10.168-10.071,12.971 .3945,2.8032 9.8435-12.511 10.163-9.6205 .3198,2.8909 2.1169,12.118 2.3599,15.012 .243,2.8941 .4472,5.7688 .6115,8.5817 .1644,2.8129 .5415-.4968 .6252,2.1505l-18.751,5.8084 .6945-34.093-3.3461,34.093-12.943-5.5558c.1495-.8357 .073-1.7962 .2735-2.8632 .2004-1.067-.3325-1.2304-.086-2.4922 .2466-1.2617 .037-3.7988 1.0555-2.7686 5.4788,5.5413 20.222,21.726 .6676-3.1876-.9723-1.2388 .6665-3.1335 1.0231-4.7592 .3566-1.6256 .728-3.2844 1.1119-4.958 .3838-1.6736 .78-3.3619 1.1863-5.0467s.8227-3.366 1.2468-5.0253c.424-1.6593 .8557-3.2967 1.2928-4.8939s.8795-3.1541 1.3248-4.6524 .8936-2.9381 1.3425-4.3008c.4489-1.3628 .8983-2.6486 1.346-3.8392s.8936-2.2858 1.3354-3.2675c.4417-.9817 .8793-1.8497 1.3104-2.5857 .4311-.7361 .8557-1.3401 1.2714-1.7939 .4157-.4538 .8225-.7572 1.2181-.8919z" transform="matrix(-.04045 1.6262 1.6497 .03987 -5240.4 -1924.5)"/>
</g>
<g fill="#fc0" transform="matrix(0 -1 1 0 478.837 -4689.16)">
<path d="m-5018.2,266.37s-31.6-8.1274-31.479-10.121c.1211-1.9932 3.6893-4.2059 9.9275-6.525 6.2382-2.3193 15.146-4.7446 25.948-7.1627 2.7003-.6045 5.5189-1.2086 8.4437-1.8104 2.9248-.6017 22.066,17.7 25.191,17.105 3.125-.5956-22.958-17.011-19.657-17.597 3.3009-.5857 19.876-4.2439 23.328-4.8163 13.81-2.2901 28.736-4.4594 44.001-6.3944 3.8162-.4836 7.6536-.9528 11.5-1.4054 3.8464-.4526 31.514,28.555 35.367,28.137 3.8524-.4178-31.213-29.608-27.379-29.988 3.834-.3793 22.755-1.3943 26.546-1.7316 15.165-1.3529 30.754-2.4196 44.266-2.9633 3.378-.1354 6.68-.2431 9.8939-.3196 3.2139-.0763 30.309,31.444 33.334,31.431 3.0256-.0134-28.477-32.519-25.664-32.466 2.813,.0531 15.973,1.0982 18.549,1.2213 10.304,.4925 7.6872,.7632 30.124,2.0349s24.65,28.921 15.569,29.181c-84.355,13.209-168.59,9.9372-257.81,14.191z"/>
<path d="m-4998.7,265.94s-53.448-14.443-50.504,1.9092c.4033,2.2405 4.2573,4.5758 10.775,6.9076 6.5172,2.3318 15.698,4.6601 26.754,6.8867 11.057,2.2268 27.834,3.65 41.855,5.5753 47.158-41.98 4.0295,.1831 4.4911,1.9722 15.412,1.4277 68.556,5.5567 83.79,6.1574 3.5737-.0734 20.685-.1466 24.521-.057 3.836,.0897 27.312-29.038 31.42-28.746 3.1192,.2219-25.824,29.637-20.12,29.654 4.4139,.0131 8.9777,.1726 13.704,.1386 10.135-1.2437 56.327,2.4715 75.163-14.43s-5.5642-34.117 3.5336-28.415c-85.013,6.3762-21.448-1.2738-245.38,12.448z"/>
</g>
<g transform="matrix(0 -1 1 0 478.837 -4689.16)">
<path fill="#484537" d="m-4999.7,266.05-.1106-1.5008c90.01-4.0425 179.74-2.1727 270.37-19.358 26.236,.1331 4.1924,3.7229 .4422,6.0029-90.663,16.675-180.71,10.859-270.71,14.856z"/>
<path fill="#c8c4b7" filter="url(#filter6157-18)" d="m1385.8,157.62-1.3167-.2525c.3779,38.802-8.4751,101.17 0,158.32-.6012,15.301-1.455,1.7808-2.0562-.5051-8.1783-54.894-.8041-105.43 2.1104-157.56z" transform="matrix(-.12384 -1.6808 1.7051 -.12208 -5096.9 2612.9)"/>
<path opacity=".931" fill="#89a02c" filter="url(#filter6180-27)" d="m1385.9,127.85c4.3009,1.3231 3.3363,11.49 7.8286,1.2627 .6742,1.608 1.3153,3.4498 1.9225,5.4832s1.1804,4.2585 1.7186,6.633 1.7991,11.969 2.2665,14.6c.4673,2.631-10.465,10.168-10.071,12.971 .3945,2.8032 9.8435-12.511 10.163-9.6205 .3198,2.8909 2.1169,12.118 2.3599,15.012 .243,2.8941 .4472,5.7688 .6115,8.5817 .1644,2.8129 .5415-.4968 .6252,2.1505l-18.751,5.8084 .6945-34.093-3.3461,34.093-12.943-5.5558c.1495-.8357 .073-1.7962 .2735-2.8632 .2004-1.067-.3325-1.2304-.086-2.4922 .2466-1.2617 .037-3.7988 1.0555-2.7686 5.4788,5.5413 20.222,21.726 .6676-3.1876-.9723-1.2388 .6665-3.1335 1.0231-4.7592 .3566-1.6256 .728-3.2844 1.1119-4.958 .3838-1.6736 .78-3.3619 1.1863-5.0467s.8227-3.366 1.2468-5.0253c.424-1.6593 .8557-3.2967 1.2928-4.8939s.8795-3.1541 1.3248-4.6524 .8936-2.9381 1.3425-4.3008c.4489-1.3628 .8983-2.6486 1.346-3.8392s.8936-2.2858 1.3354-3.2675c.4417-.9817 .8793-1.8497 1.3104-2.5857 .4311-.7361 .8557-1.3401 1.2714-1.7939 .4157-.4538 .8225-.7572 1.2181-.8919z" transform="matrix(-.12384 -1.6808 1.7051 -.12208 -5096.9 2612.9)"/>
</g>
<g fill="#f60" transform="matrix(0 -1 -1 0 871.477 -4334.86)">
<path d="m-4751.2,138.55s31.415-8.0798 31.295-10.061c-.1204-1.9815-3.6677-4.1813-9.8694-6.4868-6.2016-2.3057-15.058-4.7167-25.796-7.1208-2.6845-.6009-5.4866-1.2014-8.3942-1.7998-2.9077-.5982-21.936,17.596-25.043,17.004-3.1067-.5921 22.824-16.911 19.542-17.494-3.2816-.5823-19.759-4.219-23.192-4.7881-13.729-2.2767-28.568-4.4332-43.743-6.3569-3.7939-.4808-7.6087-.9472-11.433-1.3972-3.8239-.45-31.33,28.388-35.16,27.972-3.8298-.4153 31.03-29.434 27.219-29.812-3.8115-.377-22.621-1.3861-26.391-1.7215-15.076-1.345-30.573-2.4055-44.006-2.9459-3.3582-.1346-6.6408-.2416-9.8359-.3177-3.1951-.0759-30.131,31.26-33.139,31.247-3.0079-.0134 28.31-32.329 25.514-32.276-2.7964,.0528-15.879,1.0918-18.44,1.2142-10.244,.4896-7.6421,.7587-29.948,2.023s-24.506,28.751-15.478,29.01c83.861,13.131 167.61,9.879 256.3,14.108z"/>
<path d="m-4770.5,138.12s53.135-14.358 50.208,1.898c-.4009,2.2274-4.2323,4.5489-10.711,6.8671-6.4791,2.3181-15.606,4.6328-26.598,6.8464-10.992,2.2137-27.67,3.6286-41.61,5.5426-46.881-41.734-4.0059,.182-4.4647,1.9606-15.322,1.4193-68.155,5.5241-83.299,6.1213-3.5527-.0729-20.564-.1458-24.377-.0567-3.8136,.0891-27.152-28.868-31.236-28.577-3.1008,.2206 25.673,29.463 20.002,29.48-4.388,.0131-8.9251,.1716-13.624,.1378-10.076-1.2364-55.997,2.457-74.722-14.346s5.5317-33.917-3.5129-28.249c84.515,6.3389 21.322-1.2664 243.94,12.375z"/>
</g>
<g transform="matrix(0 -1 -1 0 871.477 -4334.86)">
<path fill="#484537" d="m-4769.6,138.23 .1099-1.492c-89.482-4.0188-178.68-2.1599-268.79-19.244-26.083,.1323-4.1679,3.7011-.4396,5.9678 90.131,16.577 179.65,10.796 269.12,14.768z"/>
<path fill="#c8c4b7" filter="url(#filter6157-18)" d="m1385.8,157.62-1.3167-.2525c.3779,38.802-8.4751,101.17 0,158.32-.6012,15.301-1.455,1.7808-2.0562-.5051-8.1783-54.894-.8041-105.43 2.1104-157.56z" transform="matrix(.12311 -1.6709 -1.6951 -.12136 -4672.9 2471.3)"/>
<path opacity=".931" fill="#89a02c" filter="url(#filter3808)" d="m1385.9,127.85c4.3009,1.3231 3.3363,11.49 7.8286,1.2627 .6742,1.608 1.3153,3.4498 1.9225,5.4832s1.1804,4.2585 1.7186,6.633 1.7991,11.969 2.2665,14.6c.4673,2.631-10.465,10.168-10.071,12.971 .3945,2.8032 9.8435-12.511 10.163-9.6205 .3198,2.8909 2.1169,12.118 2.3599,15.012 .243,2.8941 .4472,5.7688 .6115,8.5817 .1644,2.8129 .5415-.4968 .6252,2.1505l-18.751,5.8084 .6945-34.093-3.3461,34.093-12.943-5.5558c.1495-.8357 .073-1.7962 .2735-2.8632 .2004-1.067-.3325-1.2304-.086-2.4922 .2466-1.2617 .037-3.7988 1.0555-2.7686 5.4788,5.5413 20.222,21.726 .6676-3.1876-.9723-1.2388 .6665-3.1335 1.0231-4.7592 .3566-1.6256 .728-3.2844 1.1119-4.958 .3838-1.6736 .78-3.3619 1.1863-5.0467s.8227-3.366 1.2468-5.0253c.424-1.6593 .8557-3.2967 1.2928-4.8939s.8795-3.1541 1.3248-4.6524 .8936-2.9381 1.3425-4.3008c.4489-1.3628 .8983-2.6486 1.346-3.8392s.8936-2.2858 1.3354-3.2675c.4417-.9817 .8793-1.8497 1.3104-2.5857 .4311-.7361 .8557-1.3401 1.2714-1.7939 .4157-.4538 .8225-.7572 1.2181-.8919z" transform="matrix(.12311 -1.6709 -1.6951 -.12136 -4672.9 2471.3)"/>
</g>
<g fill="#c83737" transform="matrix(0 -1 -1 0 642.607 -3664.46)">
<path d="m-4754.4-107.64s30.433,8.4652 30.277,10.392c-.1559,1.9273-3.6533,4.002-9.7375,6.1291-6.0841,2.1273-14.755,4.3069-25.259,6.4437-2.6259,.5341-5.3663,1.0657-8.2094,1.5931-2.8431,.5273-21.017-17.552-24.054-17.035-3.0368,.5176 21.894,16.902 18.688,17.406-3.2069,.5047-19.324,3.7328-22.677,4.2217-13.414,1.956-27.905,3.774-42.72,5.3587-3.7038,.396-7.4278,.7777-11.16,1.1432-3.7325,.3655-29.953-28.239-33.691-27.907-3.7375,.3316 29.641,29.253 25.922,29.548-3.719,.2947-22.056,.9197-25.732,1.1747-14.708,1.0231-29.819,1.7612-42.91,2.0321-3.2728,.0672-6.4715,.1091-9.5843,.1224-3.1128,.0132-28.73-31.013-31.659-31.057-2.9292-.0441 26.936,32.019 24.214,31.915-2.7222-.1045-15.442-1.365-17.933-1.5329-9.9657-.6715-7.4269-.8841-29.123-2.5393s-23.301-28.464-14.504-28.544c81.919-11.193 163.41-6.4338 249.85-8.8657z"/>
<path d="m-4773.3-107.59s51.461,14.992 48.929-.8939c-.3469-2.1765-4.0324-4.5101-10.296-6.8906-6.2642-2.3798-15.106-4.8079-25.767-7.1724-10.66-2.3648-26.874-4.0596-40.41-6.1884-46.469,39.749-3.8974-.2534-4.3094-1.994-14.892-1.6735-66.26-6.675-80.995-7.5444-3.461,.004-20.028-.2489-23.74-.4082-3.7118-.1593-27.005,27.595-30.976,27.234-3.0151-.2738 25.576-28.203 20.054-28.327-4.2727-.0961-8.6878-.3368-13.264-.3931-9.8356,1.0125-54.481-3.4571-73.044,12.549s4.7231,33.133-3.9735,27.441c82.424-4.566 20.738,1.6386 237.79-7.413z"/>
</g>
<g transform="matrix(0 -1 -1 0 642.607 -3664.46)">
<path fill="#484537" d="m-4772.4-107.67 .078,1.455c-87.215,2.2123-174.04-1.2936-262.12,13.63-25.396-.6247-3.9862-3.6834-.3114-5.8197 88.093-14.429 175.15-7.0973 262.35-9.2653z"/>
<path fill="#c8c4b7" filter="url(#filter6157-4)" d="m1311.5,164.04-1.3167-.2525c.3779,38.802-8.4751,101.17 0,158.32-.6012,15.301-1.455,1.7808-2.0562-.5051-8.1783-54.894-.8041-105.43 2.1104-157.56z" transform="matrix(.0872 1.6295 -1.653 .08596 -4615.5 -2257.3)"/>
<path opacity=".931" fill="#89a02c" filter="url(#filter6180-9)" d="m1311.6,134.28c4.3009,1.3231 3.3363,11.49 7.8286,1.2627 .6742,1.608 1.3153,3.4498 1.9225,5.4832s1.1804,4.2585 1.7186,6.633 1.7991,11.969 2.2665,14.6c.4673,2.631-10.465,10.168-10.071,12.971 .3945,2.8032 9.8435-12.511 10.163-9.6205 .3198,2.8909 2.1169,12.118 2.3599,15.012 .243,2.8941 .4472,5.7688 .6115,8.5817 .1644,2.8129 .5415-.4968 .6252,2.1505l-18.751,5.8084 .6945-34.093-3.3461,34.093-12.943-5.5558c.1495-.8357 .073-1.7962 .2735-2.8632 .2004-1.067-.3325-1.2304-.086-2.4922 .2466-1.2617 .037-3.7988 1.0555-2.7686 5.4788,5.5413 20.222,21.726 .6676-3.1876-.9723-1.2388 .6665-3.1335 1.0231-4.7592 .3566-1.6256 .728-3.2844 1.1119-4.958 .3838-1.6736 .78-3.3619 1.1863-5.0467s.8227-3.366 1.2468-5.0253c.424-1.6593 .8557-3.2967 1.2928-4.8939s.8795-3.1541 1.3248-4.6524 .8936-2.9381 1.3425-4.3008c.4489-1.3628 .8983-2.6486 1.346-3.8392s.8936-2.2858 1.3354-3.2675c.4417-.9817 .8793-1.8497 1.3104-2.5857 .4311-.7361 .8557-1.3401 1.2714-1.7939 .4157-.4538 .8225-.7572 1.2181-.8919z" transform="matrix(.0872 1.6295 -1.653 .08596 -4615.5 -2257.3)"/>
</g>
<g fill="#f60" transform="matrix(0 -1 -1 0 757.427 -4003.56)">
<path filter="url(#filter6184-17)" d="m1183.3,167.51s6.1491-18.087 7.3236-17.93c1.1745,.1563 2.3329,2.3332 3.4411,6.0723 1.1083,3.7391 2.1662,9.0406 3.1397,15.446 .2433,1.6014 .4814,3.2718 .7137,5.004 .2322,1.7322-11.411,12.113-11.19,13.961 .2201,1.8488 11.04-12.663 11.247-10.712 .2068,1.951 1.6695,11.778 1.862,13.817 .7702,8.1554 1.4216,16.957 1.92,25.945 .1245,2.2472 .2396,4.5061 .3445,6.7696s-18.236,17.158-18.151,19.424c.084,2.2655 18.846-16.937 18.908-14.684 .062,2.2531-.139,13.335-.1,15.562 .1581,8.9058 .1289,18.046-.1219,25.952-.063,1.9766-.1392,3.9076-.2301,5.7859-.091,1.8783-19.894,16.331-20.014,18.097-.1202,1.7657 20.453-15.216 20.302-13.577-.1506,1.6388-1.3268,9.2716-1.5088,10.769-.7281,5.9904-.7774,4.452-2.4808,17.487s-18.161,13.138-17.93,7.8287c-4.2431-49.782 1.2627-98.787 2.5254-151.02z" transform="matrix(-.04045 1.6262 1.6497 .03987 -5240.4 -1924.5)"/>
<path d="m-4993.2,5.996s-50.855,16.365-48.785,.4646c.2837-2.1786 3.8899-4.6061 10.064-7.1518 6.1743-2.5457 14.917-5.2098 25.473-7.8614s26.665-4.7898 40.094-7.2861c47.44,38.323 3.8765-.3605 4.2375-2.1066 14.793-2.08 65.84-8.487 80.499-9.7617 3.4491-.0923 19.951-.8028 23.645-1.0643 3.6944-.2614 27.698,26.751 31.645,26.282 2.997-.3563-26.291-27.396-20.792-27.673 4.255-.2142 8.6479-.5764 13.207-.7592 9.8303,.7364 54.194-4.9543 73.148,10.482 18.955,15.436-3.7622,33.149 4.7419,27.236-82.268-2.267-20.619,2.2073-237.18-.8008z"/>
</g>
<g transform="matrix(0 -1 -1 0 757.427 -4003.56)">
<path fill="#484537" d="m-4994.1,5.9352-.036,1.452c86.975-.2111 173.4-6.1098 261.6,6.3223 25.29-1.3261 3.8674-3.7809 .1444-5.8081-88.198-11.939-174.75-2.2212-261.71-1.9662z"/>
<path fill="#c8c4b7" filter="url(#filter6157-1)" d="m1183.6,178.33-1.3167-.2525c.3779,38.802-8.4751,101.17 0,158.32-.6012,15.301-1.455,1.7808-2.0562-.5051-8.1783-54.894-.8041-105.43 2.1104-157.56z" transform="matrix(-.04045 1.6262 1.6497 .03987 -5240.4 -1924.5)"/>
<path opacity=".931" fill="#89a02c" filter="url(#filter6180-2)" d="m1183.8,148.57c4.3009,1.3231 3.3363,11.49 7.8286,1.2627 .6742,1.608 1.3153,3.4498 1.9225,5.4832s1.1804,4.2585 1.7186,6.633 1.7991,11.969 2.2665,14.6c.4673,2.631-10.465,10.168-10.071,12.971 .3945,2.8032 9.8435-12.511 10.163-9.6205 .3198,2.8909 2.1169,12.118 2.3599,15.012 .243,2.8941 .4472,5.7688 .6115,8.5817 .1644,2.8129 .5415-.4968 .6252,2.1505l-18.751,5.8084 .6945-34.093-3.3461,34.093-12.943-5.5558c.1495-.8357 .073-1.7962 .2735-2.8632 .2004-1.067-.3325-1.2304-.086-2.4922 .2466-1.2617 .037-3.7988 1.0555-2.7686 5.4788,5.5413 20.222,21.726 .6676-3.1876-.9723-1.2388 .6665-3.1335 1.0231-4.7592 .3566-1.6256 .728-3.2844 1.1119-4.958 .3838-1.6736 .78-3.3619 1.1863-5.0467s.8227-3.366 1.2468-5.0253c.424-1.6593 .8557-3.2967 1.2928-4.8939s.8795-3.1541 1.3248-4.6524 .8936-2.9381 1.3425-4.3008c.4489-1.3628 .8983-2.6486 1.346-3.8392s.8936-2.2858 1.3354-3.2675c.4417-.9817 .8793-1.8497 1.3104-2.5857 .4311-.7361 .8557-1.3401 1.2714-1.7939 .4157-.4538 .8225-.7572 1.2181-.8919z" transform="matrix(-.04045 1.6262 1.6497 .03987 -5240.4 -1924.5)"/>
</g>
<g fill="#800080" transform="matrix(0 -1 -1 0 757.427 -4003.56)">
<path d="m-5012,6.4695s-30.086,9.2787-29.876,11.195c.2104,1.9162 3.7547,3.8869 9.8784,5.8381 6.1237,1.9514 14.827,3.8832 25.355,5.7217 2.632,.4595 5.378,.9133 8.2262,1.3602 2.8483,.4467 20.444-18.073 23.485-17.642 3.041,.4316-21.337,17.449-18.126,17.864 3.2101,.4141 19.363,3.1846 22.719,3.5789 13.423,1.5777 27.916,2.9879 42.725,4.1568 3.7022,.2921 7.4241,.5693 11.154,.8301s29.044-28.971 32.778-28.744c3.734,.2269-28.704,29.972-24.99,30.163 3.7145,.1907 22.005,.3056 25.676,.4578 14.686,.6122 29.766,.9291 42.819,.8365 3.2634-.0237 6.4521-.0706 9.5545-.1435 3.1024-.0731 27.746-31.701 30.664-31.826 2.9178-.1251-25.93,32.654-23.22,32.475 2.7097-.1796 15.349-1.788 17.827-2.0243 9.9119-.9452 7.3759-1.0867 28.95-3.3371s22.409-29.01 13.64-28.846c-81.954-8.8851-163.02-1.8852-249.24-1.9142z"/>
<path d="m-4993.2,5.996s-50.855,16.365-48.785,.4646c.2837-2.1786 3.8899-4.6061 10.064-7.1518 6.1743-2.5457 14.917-5.2098 25.473-7.8614s26.665-4.7898 40.094-7.2861c47.44,38.323 3.8765-.3605 4.2375-2.1066 14.793-2.08 65.84-8.487 80.499-9.7617 3.4491-.0923 19.951-.8028 23.645-1.0643 3.6944-.2614 27.698,26.751 31.645,26.282 2.997-.3563-26.291-27.396-20.792-27.673 4.255-.2142 8.6479-.5764 13.207-.7592 9.8303,.7364 54.194-4.9543 73.148,10.482 18.955,15.436-3.7622,33.149 4.7419,27.236-82.268-2.267-20.619,2.2073-237.18-.8008z"/>
</g>
<g transform="matrix(0 -1 -1 0 757.427 -4003.56)">
<path fill="#484537" d="m-4994.1,5.9352-.036,1.452c86.975-.2111 173.4-6.1098 261.6,6.3223 25.29-1.3261 3.8674-3.7809 .1444-5.8081-88.198-11.939-174.75-2.2212-261.71-1.9662z"/>
<path fill="#c8c4b7" filter="url(#filter6157-1)" d="m1183.6,178.33-1.3167-.2525c.3779,38.802-8.4751,101.17 0,158.32-.6012,15.301-1.455,1.7808-2.0562-.5051-8.1783-54.894-.8041-105.43 2.1104-157.56z" transform="matrix(-.04045 1.6262 1.6497 .03987 -5240.4 -1924.5)"/>
<path opacity=".931" fill="#89a02c" filter="url(#filter8883)" d="m1183.8,148.57c4.3009,1.3231 3.3363,11.49 7.8286,1.2627 .6742,1.608 1.3153,3.4498 1.9225,5.4832s1.1804,4.2585 1.7186,6.633 1.7991,11.969 2.2665,14.6c.4673,2.631-10.465,10.168-10.071,12.971 .3945,2.8032 9.8435-12.511 10.163-9.6205 .3198,2.8909 2.1169,12.118 2.3599,15.012 .243,2.8941 .4472,5.7688 .6115,8.5817 .1644,2.8129 .5415-.4968 .6252,2.1505l-18.751,5.8084 .6945-34.093-3.3461,34.093-12.943-5.5558c.1495-.8357 .073-1.7962 .2735-2.8632 .2004-1.067-.3325-1.2304-.086-2.4922 .2466-1.2617 .037-3.7988 1.0555-2.7686 5.4788,5.5413 20.222,21.726 .6676-3.1876-.9723-1.2388 .6665-3.1335 1.0231-4.7592 .3566-1.6256 .728-3.2844 1.1119-4.958 .3838-1.6736 .78-3.3619 1.1863-5.0467s.8227-3.366 1.2468-5.0253c.424-1.6593 .8557-3.2967 1.2928-4.8939s.8795-3.1541 1.3248-4.6524 .8936-2.9381 1.3425-4.3008c.4489-1.3628 .8983-2.6486 1.346-3.8392s.8936-2.2858 1.3354-3.2675c.4417-.9817 .8793-1.8497 1.3104-2.5857 .4311-.7361 .8557-1.3401 1.2714-1.7939 .4157-.4538 .8225-.7572 1.2181-.8919z" transform="matrix(-.04045 1.6262 1.6497 .03987 -5240.4 -1924.5)"/>
</g>
<g fill="#fc0" transform="matrix(1 0 0 -1 5450.607 1625.74)">
<path d="m-5018.2,266.37s-31.6-8.1274-31.479-10.121c.1211-1.9932 3.6893-4.2059 9.9275-6.525 6.2382-2.3193 15.146-4.7446 25.948-7.1627 2.7003-.6045 5.5189-1.2086 8.4437-1.8104 2.9248-.6017 22.066,17.7 25.191,17.105 3.125-.5956-22.958-17.011-19.657-17.597 3.3009-.5857 19.876-4.2439 23.328-4.8163 13.81-2.2901 28.736-4.4594 44.001-6.3944 3.8162-.4836 7.6536-.9528 11.5-1.4054 3.8464-.4526 31.514,28.555 35.367,28.137 3.8524-.4178-31.213-29.608-27.379-29.988 3.834-.3793 22.755-1.3943 26.546-1.7316 15.165-1.3529 30.754-2.4196 44.266-2.9633 3.378-.1354 6.68-.2431 9.8939-.3196 3.2139-.0763 30.309,31.444 33.334,31.431 3.0256-.0134-28.477-32.519-25.664-32.466 2.813,.0531 15.973,1.0982 18.549,1.2213 10.304,.4925 7.6872,.7632 30.124,2.0349s24.65,28.921 15.569,29.181c-84.355,13.209-168.59,9.9372-257.81,14.191z"/>
<path d="m-4998.7,265.94s-53.448-14.443-50.504,1.9092c.4033,2.2405 4.2573,4.5758 10.775,6.9076 6.5172,2.3318 15.698,4.6601 26.754,6.8867 11.057,2.2268 27.834,3.65 41.855,5.5753 47.158-41.98 4.0295,.1831 4.4911,1.9722 15.412,1.4277 68.556,5.5567 83.79,6.1574 3.5737-.0734 20.685-.1466 24.521-.057 3.836,.0897 27.312-29.038 31.42-28.746 3.1192,.2219-25.824,29.637-20.12,29.654 4.4139,.0131 8.9777,.1726 13.704,.1386 10.135-1.2437 56.327,2.4715 75.163-14.43s-5.5642-34.117 3.5336-28.415c-85.013,6.3762-21.448-1.2738-245.38,12.448z"/>
</g>
<g transform="matrix(1 0 0 -1 5450.607 1625.74)">
<path fill="#484537" d="m-4999.7,266.05-.1106-1.5008c90.01-4.0425 179.74-2.1727 270.37-19.358 26.236,.1331 4.1924,3.7229 .4422,6.0029-90.663,16.675-180.71,10.859-270.71,14.856z"/>
<path fill="#c8c4b7" filter="url(#filter6157-18)" d="m1385.8,157.62-1.3167-.2525c.3779,38.802-8.4751,101.17 0,158.32-.6012,15.301-1.455,1.7808-2.0562-.5051-8.1783-54.894-.8041-105.43 2.1104-157.56z" transform="matrix(-.12384 -1.6808 1.7051 -.12208 -5096.9 2612.9)"/>
<path opacity=".931" fill="#89a02c" filter="url(#filter6180-27)" d="m1385.9,127.85c4.3009,1.3231 3.3363,11.49 7.8286,1.2627 .6742,1.608 1.3153,3.4498 1.9225,5.4832s1.1804,4.2585 1.7186,6.633 1.7991,11.969 2.2665,14.6c.4673,2.631-10.465,10.168-10.071,12.971 .3945,2.8032 9.8435-12.511 10.163-9.6205 .3198,2.8909 2.1169,12.118 2.3599,15.012 .243,2.8941 .4472,5.7688 .6115,8.5817 .1644,2.8129 .5415-.4968 .6252,2.1505l-18.751,5.8084 .6945-34.093-3.3461,34.093-12.943-5.5558c.1495-.8357 .073-1.7962 .2735-2.8632 .2004-1.067-.3325-1.2304-.086-2.4922 .2466-1.2617 .037-3.7988 1.0555-2.7686 5.4788,5.5413 20.222,21.726 .6676-3.1876-.9723-1.2388 .6665-3.1335 1.0231-4.7592 .3566-1.6256 .728-3.2844 1.1119-4.958 .3838-1.6736 .78-3.3619 1.1863-5.0467s.8227-3.366 1.2468-5.0253c.424-1.6593 .8557-3.2967 1.2928-4.8939s.8795-3.1541 1.3248-4.6524 .8936-2.9381 1.3425-4.3008c.4489-1.3628 .8983-2.6486 1.346-3.8392s.8936-2.2858 1.3354-3.2675c.4417-.9817 .8793-1.8497 1.3104-2.5857 .4311-.7361 .8557-1.3401 1.2714-1.7939 .4157-.4538 .8225-.7572 1.2181-.8919z" transform="matrix(-.12384 -1.6808 1.7051 -.12208 -5096.9 2612.9)"/>
</g>
<g fill="#f60" transform="matrix(1 0 0 -1 5106.607 1499.54)">
<path d="m-4751.2,138.55s31.415-8.0798 31.295-10.061c-.1204-1.9815-3.6677-4.1813-9.8694-6.4868-6.2016-2.3057-15.058-4.7167-25.796-7.1208-2.6845-.6009-5.4866-1.2014-8.3942-1.7998-2.9077-.5982-21.936,17.596-25.043,17.004-3.1067-.5921 22.824-16.911 19.542-17.494-3.2816-.5823-19.759-4.219-23.192-4.7881-13.729-2.2767-28.568-4.4332-43.743-6.3569-3.7939-.4808-7.6087-.9472-11.433-1.3972-3.8239-.45-31.33,28.388-35.16,27.972-3.8298-.4153 31.03-29.434 27.219-29.812-3.8115-.377-22.621-1.3861-26.391-1.7215-15.076-1.345-30.573-2.4055-44.006-2.9459-3.3582-.1346-6.6408-.2416-9.8359-.3177-3.1951-.0759-30.131,31.26-33.139,31.247-3.0079-.0134 28.31-32.329 25.514-32.276-2.7964,.0528-15.879,1.0918-18.44,1.2142-10.244,.4896-7.6421,.7587-29.948,2.023s-24.506,28.751-15.478,29.01c83.861,13.131 167.61,9.879 256.3,14.108z"/>
<path d="m-4770.5,138.12s53.135-14.358 50.208,1.898c-.4009,2.2274-4.2323,4.5489-10.711,6.8671-6.4791,2.3181-15.606,4.6328-26.598,6.8464-10.992,2.2137-27.67,3.6286-41.61,5.5426-46.881-41.734-4.0059,.182-4.4647,1.9606-15.322,1.4193-68.155,5.5241-83.299,6.1213-3.5527-.0729-20.564-.1458-24.377-.0567-3.8136,.0891-27.152-28.868-31.236-28.577-3.1008,.2206 25.673,29.463 20.002,29.48-4.388,.0131-8.9251,.1716-13.624,.1378-10.076-1.2364-55.997,2.457-74.722-14.346s5.5317-33.917-3.5129-28.249c84.515,6.3389 21.322-1.2664 243.94,12.375z"/>
</g>
<g transform="matrix(1 0 0 -1 5106.607 1499.54)">
<path fill="#484537" d="m-4769.6,138.23 .1099-1.492c-89.482-4.0188-178.68-2.1599-268.79-19.244-26.083,.1323-4.1679,3.7011-.4396,5.9678 90.131,16.577 179.65,10.796 269.12,14.768z"/>
<path fill="#c8c4b7" filter="url(#filter6157-18)" d="m1385.8,157.62-1.3167-.2525c.3779,38.802-8.4751,101.17 0,158.32-.6012,15.301-1.455,1.7808-2.0562-.5051-8.1783-54.894-.8041-105.43 2.1104-157.56z" transform="matrix(.12311 -1.6709 -1.6951 -.12136 -4672.9 2471.3)"/>
<path opacity=".931" fill="#89a02c" filter="url(#filter3808)" d="m1385.9,127.85c4.3009,1.3231 3.3363,11.49 7.8286,1.2627 .6742,1.608 1.3153,3.4498 1.9225,5.4832s1.1804,4.2585 1.7186,6.633 1.7991,11.969 2.2665,14.6c.4673,2.631-10.465,10.168-10.071,12.971 .3945,2.8032 9.8435-12.511 10.163-9.6205 .3198,2.8909 2.1169,12.118 2.3599,15.012 .243,2.8941 .4472,5.7688 .6115,8.5817 .1644,2.8129 .5415-.4968 .6252,2.1505l-18.751,5.8084 .6945-34.093-3.3461,34.093-12.943-5.5558c.1495-.8357 .073-1.7962 .2735-2.8632 .2004-1.067-.3325-1.2304-.086-2.4922 .2466-1.2617 .037-3.7988 1.0555-2.7686 5.4788,5.5413 20.222,21.726 .6676-3.1876-.9723-1.2388 .6665-3.1335 1.0231-4.7592 .3566-1.6256 .728-3.2844 1.1119-4.958 .3838-1.6736 .78-3.3619 1.1863-5.0467s.8227-3.366 1.2468-5.0253c.424-1.6593 .8557-3.2967 1.2928-4.8939s.8795-3.1541 1.3248-4.6524 .8936-2.9381 1.3425-4.3008c.4489-1.3628 .8983-2.6486 1.346-3.8392s.8936-2.2858 1.3354-3.2675c.4417-.9817 .8793-1.8497 1.3104-2.5857 .4311-.7361 .8557-1.3401 1.2714-1.7939 .4157-.4538 .8225-.7572 1.2181-.8919z" transform="matrix(.12311 -1.6709 -1.6951 -.12136 -4672.9 2471.3)"/>
</g>
</g>
</svg>
