<svg xmlns="http://www.w3.org/2000/svg" viewBox="105.866 161.134 310.271 642.095" xmlns:xlink="http://www.w3.org/1999/xlink" enable-background="new 105.866 161.134 310.271 642.095">
<defs>
<linearGradient id="path3789_1_" y1="319.73" y2="295.04" x1="483.87" gradientUnits="userSpaceOnUse" x2="595.56">
<stop offset="0"/>
<stop offset="1"/>
</linearGradient>
<linearGradient id="path3787_2_" y1="447.88" y2="266.36" x1="313.38" gradientUnits="userSpaceOnUse" x2="459.92">
<stop offset="0" stop-color="#3c3c3c"/>
<stop offset="1" stop-color="#cdcdcd"/>
</linearGradient>
<radialGradient cx="317.72" cy="371.81" gradientTransform="matrix(1.3286 0 0 2.1048 -161.12 -218.45)" id="path3787_1_" r="182.04" gradientUnits="userSpaceOnUse">
<stop offset="0" stop-color="#f2f2ec"/>
<stop offset="1" stop-color="#fc6"/>
</radialGradient>
</defs>
<g stroke="#000" transform="matrix(-.94244 -.17938 -.17936 .93868 630.18 261.98)">
<path fill="#985a11" stroke-width=".854" d="m358.8,185.46c13.201-13.289 8.415-38.86 1.417-57.634-8.913-23.911-27.603-43.238-31.188-69.391-2.92-21.284 5.656-42.199 19.478-57.949 9.176-10.456 26.395-34.682 15.559-37.891-2.257-.667-15.54,24.749-24.829,34.847-15.475,16.825-20.572,45.101-18.831,63.605 1.879,19.986 18.387,40.045 27.369,57.295 5.876,11.28 9.156,23.702 10.174,36.234 .551,6.805-2.072,13.481-5.194,19.533-2.13,4.11 2.31,15.1 6.04,11.35z"/>
<g fill="none" stroke-width=".771">
<path d="m352.64,174.2c.575,2.232 6.792,7.978 8.502,8.845"/>
<path d="m355.79,167.81c.577,2.233 6.954,8.166 8.664,9.033"/>
<path d="m357.37,162.24c.576,2.231 6.953,8.166 8.664,9.032"/>
<path d="m358.01,154.36c.576,2.232 7.194,7.978 8.903,8.846"/>
<path d="m357.01,147.13c1.107,2.022 7.837,6.074 9.709,6.494"/>
<path d="m355.83,140.66c1.728,1.526 7.392,4.285 9.295,4.045"/>
<path d="m354.44,135.02c1.728,1.526 7.527,4.552 9.43,4.312"/>
<path d="m352.43,129.02c1.728,1.526 7.352,3.723 9.616,3.483"/>
<path d="m349.84,122.36c1.726,1.525 7.5,3.643 9.402,3.403"/>
<path d="m346.24,115.56c1.728,1.526 8.117,3.858 10.02,3.617"/>
<path d="m342.59,109.15c1.726,1.526 8.542,3.938 10.446,3.697"/>
<path d="m338.76,103.08c1.728,1.526 8.704,2.868 10.607,2.628"/>
<path d="m335.08,96.984c1.728,1.526 8.489,2.414 10.392,2.173"/>
<path d="m331.28,90.218c1.727,1.525 8.703,2.466 10.605,2.227"/>
<path d="m327.96,84.031c1.726,1.526 8.702,2.413 10.603,2.173"/>
<path d="m324.43,76.714c1.727,1.526 8.569,2.734 10.472,2.494"/>
<path d="m321.92,69.466c1.727,1.525 8.49,2.76 10.391,2.519"/>
<path d="m320.53,62.538c1.728,1.526 7.9,2.841 9.803,2.601"/>
<path d="m320.15,56.057c1.726,1.526 6.829,2.546 8.732,2.306"/>
<path d="m320.33,46.43c.329,2.282 6.26,6.47 8.266,6.744"/>
<path d="m321.4,37.243c.328,2.281 5.322,7.032 7.115,7.493"/>
<path d="m323.43,28.717c.327,2.282 4.682,7.219 6.288,8.269"/>
<path d="m325.72,20.532c.329,2.282 4.654,7.433 6.261,8.482"/>
<path d="m328.94,12.895c.329,2.282 4.548,7.246 6.155,8.295"/>
<path d="m333.01,5.981c.327,2.282 3.905,7.406 5.512,8.455"/>
<path d="m336.93,.102c.329,2.282 4.254,6.604 5.859,7.653"/>
<path d="m341.53-5.649c.328,2.282 3.852,6.791 5.458,7.84"/>
<path d="m346.27-11.87c.329,2.282 4.173,7.059 5.78,8.108"/>
<path d="m350.8-18.489c.328,2.282 4.254,7.219 5.857,8.268"/>
<path d="m354.74-24.984c.328,2.282 4.68,7.46 6.288,8.509"/>
<path d="m359.77-32.688c.327,2.282 3.637,8.075 5.243,9.124"/>
</g>
</g>
<path fill="url(#path3787_1_)" stroke="url(#path3787_2_)" stroke-width="3.124" d="m209.72,303.92l-102.29,101.96 .248,395.79 306.9-.117-.152-395.79-102.38-101.88-102.33,.04zm51.18,45.91c8.838-.003 15.993,7.217 15.996,16.083 .003,8.865-7.146,16.042-15.984,16.045-8.836,.004-16.04-7.168-16.043-16.033s7.19-16.1 16.02-16.1z"/>
<path fill="#fc6" stroke="url(#path3789_1_)" stroke-linecap="square" stroke-width="1.972" d="m261.01,335.89c-15.91,.006-28.827,12.974-28.821,28.934 .007,15.96 12.934,28.878 28.844,28.872s28.787-12.935 28.78-28.895c0-15.95-12.89-28.91-28.8-28.91zm0,15.07c7.61-.003 13.782,6.224 13.785,13.856 .003,7.634-6.164,13.824-13.773,13.828-7.609,.003-13.82-6.184-13.824-13.816-.01-7.64 6.2-13.87 13.8-13.87z"/>
<g stroke="#000" transform="matrix(.94629 -.15738 .158 .94258 122.6 257.71)">
<path fill="#985a11" stroke-width=".854" d="m124.58,143.13c13.199-13.289 8.415-38.862 1.416-57.634-8.914-23.911-27.603-43.239-31.188-69.391-2.919-21.284 5.656-42.199 19.477-57.95 9.175-10.456 26.397-34.681 15.56-37.89-2.258-.668-15.54,24.748-24.829,34.847-15.483,16.827-20.581,45.103-18.839,63.606 1.88,19.985 18.386,40.045 27.37,57.295 5.875,11.28 9.156,23.702 10.173,36.234 .552,6.805-2.071,13.481-5.193,19.533-2.12,4.11 2.32,15.1 6.05,11.35z"/>
<g fill="none" stroke-width=".771">
<path d="m118.42,131.87c.576,2.23 6.794,7.979 8.501,8.845"/>
<path d="m121.57,125.48c.577,2.232 6.952,8.166 8.664,9.033"/>
<path d="m123.15,119.92c.576,2.231 6.951,8.165 8.664,9.033"/>
<path d="m123.79,112.03c.578,2.233 7.193,7.978 8.906,8.846"/>
<path d="m122.79,104.8c1.107,2.022 7.836,6.074 9.708,6.495"/>
<path d="m121.61,98.331c1.728,1.526 7.393,4.285 9.296,4.045"/>
<path d="m120.22,92.687c1.728,1.526 7.527,4.552 9.429,4.312"/>
<path d="m118.21,86.697c1.728,1.526 7.352,3.724 9.615,3.484"/>
<path d="m115.62,80.036c1.729,1.526 7.5,3.643 9.403,3.403"/>
<path d="m112.02,73.233c1.729,1.526 8.115,3.857 10.018,3.617"/>
<path d="m108.37,66.827c1.727,1.526 8.542,3.937 10.445,3.697"/>
<path d="m104.54,60.755c1.727,1.525 8.703,2.867 10.607,2.627"/>
<path d="m100.86,54.657c1.728,1.526 8.489,2.414 10.391,2.173"/>
<path d="m97.06,47.892c1.727,1.526 8.703,2.466 10.604,2.227"/>
<path d="m93.733,41.704c1.728,1.526 8.702,2.412 10.605,2.172"/>
<path d="m90.209,34.386c1.728,1.526 8.569,2.734 10.472,2.494"/>
<path d="m87.694,27.138c1.729,1.526 8.489,2.761 10.392,2.521"/>
<path d="m86.308,20.212c1.727,1.525 7.9,2.841 9.803,2.6"/>
<path d="m85.924,13.729c1.728,1.526 6.831,2.546 8.734,2.306"/>
<path d="m86.108,4.103c.328,2.281 6.259,6.47 8.266,6.744"/>
<path d="m87.185-5.084c.329,2.281 5.323,7.032 7.116,7.493"/>
<path d="m89.208-13.609c.329,2.282 4.681,7.219 6.286,8.268"/>
<path d="m91.5-21.796c.329,2.281 4.655,7.433 6.26,8.482"/>
<path d="m94.719-29.432c.328,2.282 4.548,7.246 6.153,8.295"/>
<path d="m98.791-36.347c.329,2.282 3.907,7.406 5.512,8.456"/>
<path d="m102.71-42.226c.329,2.281 4.253,6.604 5.858,7.653"/>
<path d="m107.31-47.978c.329,2.281 3.852,6.791 5.458,7.84"/>
<path d="m112.05-54.197c.328,2.281 4.173,7.059 5.779,8.106"/>
<path d="m116.58-60.818c.328,2.282 4.254,7.22 5.859,8.268"/>
<path d="m120.52-67.311c.328,2.281 4.681,7.46 6.286,8.509"/>
<path d="m125.54-75.016c.328,2.282 3.638,8.075 5.244,9.124"/>
</g>
</g>
</svg>
