<svg xmlns="http://www.w3.org/2000/svg" viewBox="0 0 765 990">
<path d="m402.6,987.25c-2.41-.74-3.99-.78-7.51-.19-3.75,.63-5.12,.57-8.56-.41-2.26-.64-4.56-1.13-5.13-1.09-.56,.04-3.19,.23-5.84,.44-3.75,.28-5.73,.05-8.91-1.02-3.36-1.13-4.62-1.25-7.13-.69-3.29,.74-5.97,.45-11.12-1.21-1.82-.59-5.99-1.11-9.28-1.16-5.49-.09-6.29-.29-9.59-2.34-2.47-1.54-4.05-2.1-5.02-1.79-4.36,1.38-14.38-.67-18.35-3.75-1.11-.87-3.26-1.35-7.07-1.61-5.15-.34-11.3-2.34-12.33-4.01-.2-.33-1.97-.61-3.92-.61s-4.97-.44-6.71-.97c-2.9-.88-8.64-4.02-9.47-5.17-.19-.26-2.95-.66-6.14-.88-6.56-.46-8.72-1.33-12.97-5.25-2.58-2.39-3.39-2.75-6.14-2.75-5.18,0-11.22-2.43-14.71-5.92-1.68-1.68-3.28-2.91-3.57-2.74s-2.14,.5-4.11,.73c-1.98,.24-4.74,.59-6.15,.78-4.48,.62-22.2,3.81-26.8,4.82-2.44,.54-5.21,1.15-6.15,1.35-.94,.21-3.4,.87-5.46,1.49-2.07,.61-4.07,1.17-4.44,1.25-.38,.08-3.79,1.4-7.58,2.93-18.46,7.48-26.76,6.57-50.91-5.52-15.092-7.56-21.457-9.23-35.764-9.37-12.95-.13-16.501-.59-20.784-2.68-3.035-1.47-4.228-2.61-6.559-6.24-3.341-5.21-7.162-15.8-7.654-21.23-.374-4.13 .533-6.78 2.323-6.78 1.183,0 1.1-.76-.777-7.17-.808-2.76-.935-6.82-.661-21.17 .423-22.09 .86-31.54 1.581-34.16 .539-1.96 .692-2.03 4.081-1.85 3.388,.19 3.521,.13 3.521-1.59 0-1.11-.837-2.59-2.219-3.94l-2.22-2.17 .12-9.56c.065-5.26 .601-13.25 1.189-17.76 .589-4.51 .929-9.27 .755-10.59-.271-2.04 .459-11.29 1.134-14.37 .288-1.32 1.99-2.65 3.41-2.68 .91-.02 1.09-.54 .881-2.58-.448-4.38-.544-25.03-.123-26.47 1.094-3.74 1.147-16.21 .096-22.64-1.16-7.1-1.672-37.37-.974-57.61 .251-7.26 .091-10.77-.598-13.14-.837-2.88-.802-3.77 .327-8.12 .952-3.67 1.729-5.23 3.128-6.26 1.355-1 1.704-1.67 1.283-2.47-1.241-2.34-2.219-11.88-2.423-23.63-.17-9.82 .043-13.64 1.065-19.03 .804-4.24 1.053-7.16 .672-7.87-2.507-4.69-2.752-22.09-.756-53.86 .826-13.15 .891-13.82 1.962-20.32 1.051-6.37 4.29-13.56 7.2-15.97 1.617-1.34 1.385-2.67-.928-5.3-1.124-1.28-2.688-3.59-3.474-5.13-2.742-5.38-3.15-7.93-2.598-16.28 .285-4.32 .741-20.51 1.013-35.98l.495-28.12-3.847-3.94c-2.327-2.38-4.24-5.09-4.842-6.86-.562-1.65-2.076-3.87-3.475-5.1-4.108-3.61-7.467-9.37-8.141-13.96-.08-.54-1.11-1.99-2.289-3.2-2.865-2.96-4.983-7.95-5.385-12.69-.217-2.55-1.152-5.53-2.74-8.73-2.101-4.23-2.405-5.48-2.366-9.7 .025-2.67-.25-5.03-.611-5.25-.361-.23-1.311-2.57-2.113-5.21-1.077-3.54-1.34-5.67-1.011-8.15 .332-2.5 .151-3.92-.712-5.58-2.377-4.58-3.423-9.53-2.837-13.44 .44-2.93 .289-4.41-.73-7.17-1.987-5.38-2.261-8.01-1.201-11.54 .885-2.94 .859-3.33-.31-4.82-2.812-3.57-3.494-12.6-1.314-17.4 1.024-2.26 1.173-3.28 .625-4.3-.395-.74-.884-3.4-1.086-5.92-.292-3.65-.09-5.21 .997-7.71 1.077-2.48 1.289-4.08 1.007-7.59-.36-4.49 .868-9.96 2.96-13.18 .64-.99 .716-2.12 .272-4.09-.66-2.92-.188-8.35 .776-8.95 .323-.2 .59-.88 .592-1.51 .002-.64 .459-2.03 1.016-3.1 .768-1.47 .832-2.27 .265-3.33-1.324-2.48-.41-10.02 1.761-14.54 1.553-3.23 2-5.18 2.117-9.22 .153-5.26 1.106-8.3 4.101-13.04 1.152-1.83 1.668-3.64 1.679-5.9 .015-3.28 1.589-7.61 4.004-11 .72-1.01 1.494-2.91 1.719-4.22 1.269-7.36 3.647-11.79 8.205-15.26 1.337-1.02 2.384-2.07 2.329-2.34-.056-.27 .309-2.01 .811-3.88 .737-2.74 1.839-4.31 5.743-8.16 5.495-5.42 5.214-4.21 4.291-18.496-.652-10.092-1.741-17.592-3.275-22.539-2.134-6.886-3.332-12.802-3.343-16.51-.011-4.138 1.304-6.044 7.409-10.73 9.981-7.661 40.275-26.029 46.055-27.93 5.4-1.772 21.68-2.189 30.89-.79 17.82,2.707 27.75,4.709 39.3,7.919l5.16,1.435 3.61-2.732c4.15-3.141 8-4.504 12.31-4.359 2.16,.073 3.42-.279 4.44-1.24 2.33-2.188 7.8-4.262 12.27-4.654 2.53-.223 5.49-1.052 7.53-2.109 2.88-1.49 4.2-1.732 9.18-1.678 3.2,.035 7.64-.309 9.88-.765 2.54-.519 5.49-.635 7.88-.31 2.8,.38 4.7,.231 7.11-.558 2.42-.79 4.67-.965 8.45-.66 3.7,.299 5.66,.155 6.96-.513 3.7-1.8887 11.88-2.4601 15.5-1.0821 1.16,.4401 2.4,.3017 4.23-.4726 3.22-1.3673 11.37-1.5294 14.37-.2859 1.83,.7564 2.78,.7677 5.3,.0624 3.97-1.1122 11.99-.5662 14.34,.977 1.5,.9792 2.15,1.0332 4.22,.3482 3.45-1.1385 10.25-.4518 13.27,1.342 2.01,1.193 2.82,1.336 4.32,.766 1.02-.387 3.98-.735 6.59-.775 3.93-.06 5.39,.256 8.54,1.852 2.18,1.102 4.68,1.856 5.87,1.766 3.47-.265 10.14,1.245 12.76,2.886 1.62,1.02 4.05,1.699 7.05,1.975 4.34,.4 8.24,1.862 12.16,4.567 .93,.648 3.52,1.385 5.75,1.638 5.1,.58 9.62,2.557 12.7,5.558 1.36,1.324 4.1,2.925 6.33,3.693 5.06,1.738 8.83,4.452 11.05,7.935 1.39,2.199 2.39,2.935 4.89,3.602 3.49,.935 8.34,4.014 10.36,6.59 1.3,1.652 1.55,1.692 10.5,1.683 7.76-.008 9.65,.204 12.21,1.369 3.89,1.763 7.14,1.719 18.02-.247 6.87-1.242 11.57-1.62 21.17-1.702 12.64-.108 16.99-.318 30.1-1.456 4.13-.358 9.51-.82 11.95-1.027 6.93-.588 26.9-3.223 33.47-4.416 2.07-.375 6.78-1.146 10.48-1.714 3.7-.567 7.24-1.292 7.86-1.612s2.36-.798 3.86-1.063 5.34-1.218 8.54-2.118c8.67-2.445 14.31-3.138 25.27-3.105 9.01,.027 12.78,.216 20.83,1.045 17.35,1.787 20.22,1.914 34.15,1.511 8.26-.239 19.33-.629 24.58-.867 16.76-.758 26.49,1.324 28.8,6.161 1.08,2.276 1.08,2.641-.13,6.62-.87,2.883-2.73,6.174-5.88,10.439-5.16,6.981-8.74,12.815-14.93,24.328-2.32,4.319-4.7,8.395-5.29,9.055-.75,.828-1.14,2.849-1.26,6.493-.35,9.99-.99,19.64-1.67,25.2-.38,3.07-.82,8.54-.99,12.15-.17,3.62-.45,6.81-.62,7.08-.17,.28-.51,3.42-.76,6.98-.24,3.55-.55,7.15-.68,7.98-.32,1.97-.94,10.45-1.37,18.48-.36,6.62-1.24,11.61-2.49,14.07-.4,.8-2.62,3.38-4.93,5.74l-4.19,4.29 1.26,2.2c3.98,6.95 4.29,8.28 4.47,19.29 .15,9.34-1.38,27.99-2.67,32.49-.42,1.45-.39,5.73 .07,11.98l.72,9.71 2.37,2.51c2.84,3.01 4.69,6.54 5.35,10.15 .27,1.47 1.36,3.78 2.42,5.13 2.32,2.93 4.11,8 4.11,11.59 0,1.72 .46,3.02 1.34,3.82 1.7,1.54 3.44,6.75 3.75,11.25 .17,2.38 .78,4.2 1.92,5.7 2.32,3.06 3.39,6.73 3.5,12.06 .05,2.8 .5,5.2 1.15,6.23 2.15,3.37 2.98,6.52 3.04,11.55 .05,3.97 .44,5.92 1.73,8.56 1.38,2.82 1.67,4.47 1.7,9.56 .02,4.25 .36,6.77 1.11,8.19 .6,1.13 1.33,3.13 1.62,4.44 .56,2.55 .61,9.5 .06,10.04-.17,.18 .56,1.72 1.64,3.42 2.03,3.21 2.15,4.85 1.27,18.64-.06,.94 .43,3.09 1.08,4.78 .92,2.38 1.1,4.21 .78,8.08-.22,2.75-.68,5.49-1.01,6.08-.39,.71-.18,2.05 .63,3.88 1.82,4.14 2.24,9.65 1.06,14.06-.91,3.42-.9,3.91 .14,5.47 .91,1.34 1.18,3.53 1.29,10.24 .07,4.7 .34,10.79 .6,13.55 .31,3.25 .18,6.25-.37,8.54-.67,2.8-.67,4.19-.02,6.61 .46,1.68 .81,4.45 .78,6.14-.06,3.37-1.33,9.49-2.2,10.61-.31,.38-.28,1.15 .06,1.7 1.23,1.98 1.39,7.82 .33,12.27-.57,2.45-1.12,7.98-1.21,12.3-.08,4.32-.44,8.3-.8,8.85-.65,1.01-1.14,11.29-1.05,21.93 .03,3.22-.3,7.22-.73,8.88s-.82,6.4-.88,10.54c-.1,6.78-.29,7.83-1.95,10.77-1.04,1.85-1.71,3.91-1.54,4.78 1.01,5.15 .12,10.22-2.56,14.67-.99,1.63-1.38,3.69-1.51,7.85-.13,4.36-.53,6.33-1.78,8.71-1.29,2.49-1.61,4.18-1.66,8.88-.04,4.92-.33,6.34-1.9,9.33-1.54,2.94-1.78,4.08-1.45,6.89 .52,4.34-.68,9.83-2.84,13-1.49,2.2-1.7,3.25-1.7,8.36 0,4.56-.31,6.44-1.4,8.55-.83,1.6-1.56,4.66-1.78,7.49-.63,8.08-.29,34.39 .55,42.71 .93,9.19 .58,11.25-2.17,12.82-1.39,.8-1.9,1.52-1.64,2.34 .21,.66 .52,2.04 .68,3.08 .17,1.03 .69,3.42 1.15,5.3 .93,3.8 1.06,32.31 .18,41.76-.38,4-.22,7.44 .57,12.29 2.13,13.16 3.22,21.84 3.53,28.25 .83,17.1 1.21,20.99 2.52,25.52 .79,2.72 1.45,7.06 1.49,9.84 .04,2.74 .4,5.2 .81,5.47 .47,.31 .72,4.03 .69,10.39-.03,5.45 .2,13.44 .51,17.76 .52,7.34 .46,8-.88,10.12-1.96,3.09-6.04,4.73-13.74,5.53-3.54,.36-9.97,1.01-14.29,1.44s-9.24,1.1-10.93,1.5c-3.39,.8-11.04,4.06-12.43,5.3-.49,.43-3.73,2.75-7.19,5.15-9,6.22-15.05,8.16-25.46,8.14-8.23-.02-11.02-.51-22.2-3.89-18.13-5.48-36.98-9.38-60.1-12.45-4.51-.59-9.27-1.24-10.59-1.42-1.31-.19-5.61-.8-9.56-1.36l-7.17-1.02-2.02,2.51c-2.09,2.58-9.09,6.4-11.74,6.4-.8,0-2.94,1.22-4.74,2.72-3.3,2.72-8.04,4.79-10.97,4.79-.86,0-2.54,.97-3.75,2.14-2.89,2.84-8.91,5.53-13.19,5.91-2.36,.21-3.99,.81-5.16,1.9-2.89,2.68-8.86,5.07-12.71,5.07-2.37,.01-4.02,.42-5.12,1.29-2.04,1.61-7.35,3.43-11.47,3.95-1.72,.21-4.27,1.11-5.65,2-3.6,2.3-8.15,3.27-13.19,2.8-3.36-.31-5.2-.1-8.22,.96-2.63,.93-5.37,1.33-8.43,1.25-3.01-.08-5.45,.27-7.26,1.05-3.57,1.53-10.14,1.85-13.98,.68zm9.88-3.67c1.25-.49 1.2-.61-.69-1.59-2.49-1.29-6.89-6.61-10.31-12.46-3.11-5.31-5.28-6.19-10.2-4.14l-2.37,.99 1.23,3.13c1.53,3.88 5.83,9.4 9.08,11.66 3.46,2.4 10.16,3.62 13.26,2.41zm-19.16-.68c.21-.34-.98-2.22-2.65-4.18-1.91-2.23-3.71-5.4-4.84-8.5-1.53-4.19-2.16-5.1-4.16-6.06-3.89-1.85-9.83-1.07-9.83,1.29 0,1.38 3.84,9.14 5.35,10.81 2.63,2.92 6.33,5.26 9.77,6.19 4.39,1.18 5.85,1.28 6.36,.45zm-20.06-4.69c-1.49-2.17-3.57-6.09-4.63-8.71-2.53-6.27-2.56-6.3-5.7-7.24-3.29-.98-8.48,.32-7.84,1.98 .2,.54 .57,1.79 .81,2.79 .79,3.19 5.62,10.11 8.42,12.05 2.86,1.98 5.71,2.89 9.41,3.01l2.22,.07-2.69-3.95zm55.18,2.84l2.13-.43-3.58-3.9c-1.97-2.14-4.81-5.63-6.31-7.75-1.83-2.58-3.48-4.11-4.97-4.61-2.57-.87-7.24-.27-9.5,1.21l-1.53,1 1.76,2.84c5.76,9.33 13.39,13.36 22,11.64zm-70.69-.79c.18-.3-.83-2.37-2.25-4.61-1.41-2.24-3.26-5.92-4.09-8.17-.84-2.25-1.87-4.51-2.3-5.02-1.74-2.09-6.96-3.13-10.15-2.02-1.84,.64-2.04,.96-1.68,2.74 .58,2.92 2.12,5.89 5.03,9.7 3.3,4.33 5.13,5.61 9.73,6.83 4.46,1.18 5.27,1.26 5.71,.55zm89.44-1.56c2.15-.6 2.47-.9 1.79-1.71-.44-.54-1.16-.98-1.58-.98-1.52-.02-6.81-4.85-10.51-9.61-4.1-5.27-3.31-4.96-9.35-3.67-.74,.15-1.92,.87-2.64,1.58-1.28,1.29-1.26,1.37 1.43,4.97 4,5.37 6.48,7.45 10.53,8.85 4.18,1.45 6.67,1.58 10.33,.57zm-107.17-1.49c-.27-.47-1.51-2.26-2.74-3.97-1.24-1.72-3.02-5.25-3.96-7.86-2.19-6.04-4.73-8.5-8.78-8.48-3.83,.01-5.97,.63-5.97,1.72 0,4.39 8.22,14.9 13.85,17.7 3.73,1.86 8.47,2.41 7.6,.89zm123.93-4.04l2.29-.73-2.63-1.24c-3.84-1.82-7.91-5.23-11.55-9.7-1.76-2.16-3.43-3.93-3.7-3.93-1.52,0-7.17,2.13-8.25,3.11-1.23,1.11-1.2,1.25 1.12,4.31 6.18,8.18 13.9,10.95 22.72,8.18zm-141.97,.24c0-.31-.9-1.43-2.01-2.49-1.88-1.8-5.5-9.43-5.5-11.6 0-1.54-3.19-4.9-5.87-6.17-1.81-.86-3.29-1.05-5.56-.71l-3.08,.46 .42,3.09c.53,3.84 3.89,10.26 6.92,13.2 1.27,1.22 3.93,2.78 5.93,3.47 3.75,1.3 8.75,1.73 8.75,.75zm159.19-5.68c3.3-1.42 4.38-2.65 2.33-2.65-1.47,0-6.18-3.03-10.62-6.85-3.19-2.74-4.39-3.33-7.51-3.72-3.43-.43-3.94-.3-6.62,1.65-1.59,1.15-2.9,2.38-2.9,2.71s1.86,2.32 4.12,4.42c6.33,5.85 14.12,7.49 21.2,4.44zm-180.36,.51c0-.14-.79-1.68-1.77-3.42-.97-1.74-2.43-5.68-3.24-8.76-1.29-4.91-1.78-5.81-3.87-7.23-1.99-1.36-3.03-1.58-6.3-1.35-2.15,.15-4.06,.42-4.25,.61-.48,.48 1.9,7.99 3.55,11.19 1.93,3.73 4.79,6.29 8.77,7.85 2.98,1.16 7.11,1.81 7.11,1.11zm-19.12-5.24c0-.39-.51-1.7-1.14-2.9-.62-1.2-1.84-4.77-2.71-7.92-2.17-7.87-4.7-10.33-10.63-10.31-4.47,.02-5.07,.65-4.04,4.21 2.64,9.08 7.64,14.89 14.38,16.71 3.96,1.07 4.14,1.07 4.14,.21zm108.25-1.65c3.55-1.28 6.99-1.29 10.56-.03 2.33,.82 3.17,.85 4.36,.18 4.07-2.32 9.34-2.39 14.37-.18 .81,.36 1.82,.23 2.73-.35 3.81-2.41 5.81-3.03 9.99-3.06 3.02-.02 5-.41 6.2-1.21 3.33-2.23 8.61-3.38 12.12-2.63 2.44,.52 3.43,.47 4.21-.22 2.76-2.41 7.11-3.94 10.34-3.63 3,.29 3.44,.13 5.51-2.01 2.67-2.76 7.16-4.89 10.67-5.07 1.85-.1 3.23-.79 5.24-2.68 1.51-1.4 3.97-3.18 5.47-3.96 1.97-1.01 2.34-1.42 1.33-1.44-.77-.01-3.94-1.25-7.04-2.75-7.1-3.43-8.29-3.64-11.5-1.95-2.42,1.28-3.48,1.35-15.23,.99-16.5-.5-30.72-1.47-47.13-3.22-16.27-1.73-28.11-2.05-46.44-1.26-27.38,1.18-31.81,1.38-35.86,1.65-17.55,1.17-31.46,1.55-37.16,1.01-1.35-.13-2.69,.4-4.18,1.66-3.4,2.86-5.76,3.84-11.73,4.89-3.04,.54-5.64,1.09-5.79,1.24-.14,.14 .74,.68 1.97,1.19s3.38,1.95 4.77,3.21c2.24,2.02 2.77,2.21 4.78,1.69 4.57-1.18 9.69,0 13.52,3.12 1.68,1.38 3.37,2.4 3.75,2.26 .39-.13 2.75-.23 5.24-.23 4.49,.01 6.36,.69 9.7,3.51 .96,.8 2.88,1.06 7.87,1.06 6.34,0 6.72,.09 9.55,2.16 2.82,2.08 3.04,2.13 5.26,1.2 4.26-1.78 10.29-.8 14.06,2.29 .95,.78 1.52,.75 3.67-.14 3.5-1.46 7.31-1.34 11.28,.37 2.8,1.2 3.71,1.32 5.52,.69 3.77-1.32 8.84-.94 12.23,.91 1.68,.93 3.06,1.69 3.06,1.7s1.23-.42 2.73-.96zm108.2-.56c2.04-.83 3.81-1.83 3.94-2.22s-1.08-1.06-2.69-1.49c-2.72-.73-10.6-6.07-12.72-8.62-1.85-2.24-8.73-1.21-12.17,1.81-1.34,1.18-1.4,1.47-.54,2.78 1.48,2.26 7.44,6.54 11.07,7.96 4.34,1.7 8.61,1.63 13.11-.22zm-236.18-6.31c-.78-1.33-2.18-5.02-3.1-8.2s-1.84-6.04-2.04-6.36c-.31-.51-3.28-.24-9.28,.85-.94,.17-2.08,.33-2.53,.36-.62,.04-.63,.57-.05,2.25 2.9,8.32 8.83,13.26 16.14,13.45l2.28,.06-1.42-2.41zm253.19-1.82c3.33-1.59 3.2-1.88-1.59-3.61-3.51-1.27-8.46-4.77-10.98-7.76-1.15-1.36-2.03-1.69-4.52-1.65-3.19,.05-6.49,1.35-7.98,3.16-1.16,1.39 .23,3.44 4.6,6.77 6.58,5.02 14.02,6.15 20.47,3.09zm-367.53,.08c5.86-1.39 14.39-3.04 26.16-5.06 3.19-.55 8.28-1.9 11.31-3.01 4.9-1.8 10.49-3.13 16.19-3.87 5.55-.71 12.75-1.74 14.2-2.02 3.41-.66 30.65-3.41 40.6-4.1 7.53-.52 9.26-.93 20.65-4.87 10.34-3.57 12.38-5.21 14.18-11.41 .58-2 1.46-4.2 1.96-4.88 1.06-1.45 2.48-.84 2.48,1.08 0,2.27 2.61,8.92 3.9,9.93 .79,.62 2.19,.84 3.95,.62 1.51-.18 12.11-.47 23.57-.64 11.45-.16 22.06-.61 23.56-.99 6.79-1.7 23.17-2.3 37.9-1.38 9.78,.61 11.42,.64 18.45,.41 4.21-.14 7.52,.14 17.75,1.54 2.45,.34 13.44,.69 24.44,.79 23.67,.2 22.09,.76 23.69-8.29 .56-3.19 1.03-6.19 1.04-6.66 0-.47 .47-.85 1.04-.85 1.54,0 3.64,3.9 4.53,8.41 1.55,7.88 3.59,9.27 20.14,13.74 9.85,2.66 12.83,3.18 19.72,3.46 2.63,.1 6.16,.37 7.85,.59 1.69,.23 5.07,.57 7.51,.76 2.45,.2 5.67,.51 7.18,.69 1.5,.18 4.57,.48 6.83,.66 2.25,.19 6.4,.64 9.22,1.01 2.81,.36 6.66,.85 8.53,1.08 1.88,.22 4.34,.54 5.47,.69 12.74,1.78 17.19,2.58 20.89,3.76 6.17,1.97 11.83,3.2 17.36,3.76 2.62,.27 5.39,.62 6.14,.79 1.95,.42 3.85,.72 11.95,1.89 3.95,.57 9.61,1.51 12.58,2.08 2.98,.58 6.32,1.21 7.43,1.4 4.24,.75 9.34-2.58 10.32-6.71 .8-3.43 3.97-9.39 5.71-10.76 1.28-1.01 2.32-1.24 4.21-.93 2.23,.35 2.6,.2 3.33-1.41 1.11-2.44 1.01-12.85-.2-21.2-.54-3.76-1-8.09-1.01-9.62-.03-3.52-.67-4.19-2.16-2.22-.96,1.28-1.85,1.56-5.07,1.61-3.49,.06-4.11,.29-5.86,2.25-2.49,2.79-2.46,3.32 .26,3.91 1.22,.26 3.44,1.09 4.92,1.84l2.69,1.37-1.95,1.02c-2.16,1.13-3.02,.95-10.27-2.14-3.42-1.46-5.22-1.76-10.92-1.82l-6.83-.07 2.73-1.29c1.7-.81 4.26-1.3 6.77-1.31 2.22-.01 3.86-.2 3.65-.42-.22-.22 .69-2.7 2.03-5.52 2.4-5.04 2.42-5.15 1.31-7.48-2.88-6.04 .23-11.76 6.53-12 4.37-.16 9.36,3.71 10.96,8.52 .75,2.25 1.37,2.92 3.09,3.37 1.3,.34 3.21,1.82 4.86,3.79 1.49,1.77 4.39,5.24 6.45,7.71 3.11,3.73 4.5,4.8 8.41,6.46 2.57,1.08 7.57,3.64 11.12,5.68 17.69,10.19 23.62,11.07 26,3.87 1.07-3.25-.73-11.17-3.53-15.54-2.3-3.59-6.05-5.93-9.54-5.96-.98-.01-2.17-.48-2.64-1.04-.58-.7-2.14-1.02-4.92-1.02-5.09,0-5.03-1.09 .19-3.23 4.81-1.97 10.95-2.04 15.66-.19 1.9,.75 3.8,1.37 4.21,1.37 1.14,0 .19-6.44-2.25-15.21-1.15-4.17-2.24-8.37-2.41-9.34-.17-.96-.73-3.44-1.25-5.51-.61-2.39-1.11-10.04-1.4-21.17-.24-9.58-.48-18.18-.52-19.12s.17-4.17 .46-7.17c.3-3.01 .66-10.69 .82-17.08 .23-9.7 .03-12.9-1.17-19.46-.79-4.32-1.68-8.12-1.97-8.44-.3-.32-1.05,.5-1.68,1.82-.62,1.32-1.7,2.9-2.39,3.53-1.05,.95-1.14,1.52-.57,3.59 .76,2.73 .29,7.9-1.13,12.64-1.04,3.43-.65,6.2 1.68,12.11 1.77,4.5 1.73,5.06-.45,6.22-1.43,.76-1.88,.78-2.11,.11-.15-.47-.54-.7-.85-.5-.32,.19-1.12-.19-1.79-.85-1.15-1.15-1.18-1.14-.66,.16 1.5,3.71 1.43,4-.83,3.54-1.17-.23-2.32-.12-2.54,.24-.86,1.39-1.83,.53-3.49-3.1-.94-2.06-1.88-3.75-2.07-3.75-.2,0-.15,1.5 .1,3.34 .31,2.26 .2,3.5-.34,3.83-1.32,.82-1.86-.45-2.32-5.43-.24-2.61-.62-4.91-.84-5.12s-.18,1.81 .08,4.49c.36,3.65 .26,5.01-.39,5.42-.53,.32-1.15,.11-1.56-.56-.61-.96-.78-.97-1.45-.06-.66,.91-1.08,.89-3.62-.21-3.11-1.35-3.25-1.68-2.11-4.95 1.19-3.41 .33-3.18-2.41,.63-1.91,2.65-2.87,3.43-4.01,3.27-.98-.14-1.51-.69-1.51-1.58 0-.82 .41-1.31 1.02-1.23 .9,.12 2.62-1.82 6.11-6.9 .54-.79-.54-.01-2.39,1.73-4.4,4.13-5.89,4.87-8.11,4.03-.96-.37-1.75-1.14-1.75-1.72 0-.77-.44-.95-1.62-.65-1.16,.29-2.15-.09-3.51-1.36-1.05-.96-2.16-1.75-2.48-1.75-.33,0-.59-.5-.59-1.1 0-.88 .46-1.02 2.24-.68 2.02,.37 2.58,.08 5.48-2.87 2.49-2.53 3.31-3.9 3.55-5.98 1-8.67 1.65-10.02 6.33-13.11 1.34-.89 1.51-1.44 1.19-4.08-.52-4.35 .68-7.97 3.71-11.15 2.35-2.47 2.59-3.06 2.28-5.41-.28-2.08 .09-3.45 1.72-6.47 1.78-3.29 1.98-4.15 1.41-6.03-1.42-4.72-.61-8.9 2.6-13.26 1.56-2.13 1.58-2.26 .51-5.4-1.42-4.19-.81-8.22 1.78-11.8 1.95-2.7 1.97-2.82 .99-5.6-1.15-3.28-1.3-7.29-.35-9.77 .36-.95 1.76-2.95 3.11-4.45l2.47-2.72-1.07-3.14c-.59-1.73-1.07-3.89-1.07-4.8 0-2.16 1.92-6.37 3.91-8.59 1.54-1.71 1.55-1.83 .49-4.78-1.88-5.25-1.08-9.38 2.62-13.43 1.28-1.4 1.33-1.77 .53-4.44-1.45-4.82-1.33-5.94 1.16-10.92 2.03-4.05 2.39-5.47 2.37-9.31-.02-3.37 .4-5.48 1.62-8.2 2.07-4.61 2.12-8.98 .29-22.12-3.9-27.91-4.11-30.16-2.95-31.05 .96-.73 1.03-2.56 .66-15.37-.52-17.86-1.57-33.94-2.54-38.85-.41-2.03-.88-4.46-1.07-5.4-.53-2.73-3.18-6.21-4.35-5.72-1.22,.5-7.01,.4-9.91-.17-2.32-.46-4.44-2.08-4.44-3.4 0-.92 3.99-2.31 6.68-2.31 2.46-.01 6.1-1.79 7.22-3.53 .87-1.35 1.08-7.15 1.4-37.46 .2-19.72 .56-37.41 .79-39.32 .38-3.1 .22-3.69-1.46-5.69-1.03-1.23-3.47-3.41-5.42-4.85-2.92-2.16-3.69-3.19-4.44-5.91-1.89-6.88-4.89-8.99-10.64-7.48-3.97,1.04-7.1,.32-7.1-1.65 0-2.61 2.52-3.39 10.9-3.4 9.39,0 11.25-.8 13.76-5.9 1.5-3.06 1.67-4.44 2.09-17.66 .26-7.89 .76-16.18 1.11-18.44 .49-3.13 .41-4.74-.33-6.83-.77-2.17-.98-8.2-1.03-29.37-.04-14.65 .14-27.4 .39-28.34 1.56-5.96 2.4-15.96 1.97-23.56-.59-10.6-.42-17.73 .6-24.93 .45-3.2 .84-8.93 .87-12.74 .06-6.7-.01-7.03-2.06-9.91-2.96-4.14-5.64-5.35-11.88-5.36-6.14,0-9.98-.96-10.92-2.71-.97-1.81-.92-1.91 1.19-3.01 1.62-.83 2.28-.84 4.61-.03 6.2,2.16 10.26,.24 12.27-5.8 .96-2.89 1.69-3.7 5.83-6.45 2.6-1.74 5.17-3.85 5.7-4.7 .85-1.35 2.1-18.25 1.98-26.81-.02-1.13 .27-5.11 .63-8.85 .37-3.74 .8-9.54 .96-12.9s.58-7.99 .94-10.28c.63-4.04 .84-8.1 .99-18.86l.06-5.12-4.31-.2c-3.94-.19-4.29-.33-4.1-1.64 .35-2.302 3.51-4.154 7.68-4.5 3.11-.258 3.84-.565 4.19-1.766 .23-.8 1.62-3.806 3.09-6.681 1.47-2.874 2.67-5.558 2.67-5.963s1.04-2.355 2.3-4.335c1.26-1.979 3.03-4.982 3.93-6.672 1.82-3.414 2.69-4.661 10.38-14.891 2.94-3.906 5.24-7.184 5.12-7.283-.11-.1-14.66-.411-32.31-.692-17.66-.28-35.18-.602-38.93-.715-19.26-.58-33.69-1.08-41.8-1.448l-9-.409-1.4,2.302c-.77,1.266-2.22,4.915-3.21,8.109-1.93,6.186-3.03,7.989-4.37,7.161-.79-.484-.73-1.924 .34-8.981 .12-.814-.22-2.12-.77-2.903-1.23-1.76-3.87-1.821-16.29-.381-13.05,1.513-13.87,1.599-19.46,2.046-6.07,.486-15.55,2.346-22.2,4.358-9.52,2.879-18.56,3.556-46.78,3.502-14.47-.029-27.1-.046-28.07-.039-3.02,.022-6.19,2.735-7.2,6.166-.5,1.69-.92,3.78-.92,4.644-.03,3.386-3.16,7.017-4.36,5.061-.19-.297-.82-3.281-1.4-6.631-1.58-9.02-.59-8.572-18.87-8.531-8.44,.02-16.57,.049-18.07,.065-1.5,.017-6.73-.008-11.61-.054s-12.72,.253-17.42,.664c-12.14,1.064-32.31,.681-39.93-.757-8.31-1.569-30.05-4.222-46.81-5.712-9.26-.823-26.39-2.461-28.68-2.742-10.35-1.27-10.76-1.248-11.99,.629-.64,.972-1.69,3.825-2.35,6.34-.65,2.514-1.46,4.658-1.79,4.765-.58,.183-1.33-1.265-4.02-7.756-1.98-4.762-4.64-6.71-13.32-9.721-11.94-4.146-16.17-4.911-25.27-4.57-4.32,.162-9.54,.79-11.61,1.396-2.07,.605-4.85,1.029-6.19,.941-1.64-.106-3.16,.352-4.62,1.392-2.81,2.003-5.85,2.912-9.66,2.885-2.65-.019-3.29,.28-4.98,2.331-2.35,2.841-7.2,5.116-10.92,5.116-2.37,0-3.08,.396-5.38,3.01-2.81,3.193-7.15,5.186-11.28,5.186-1.64,0-2.46,.415-3.04,1.537-2.07,4.023-7.46,7.342-11.91,7.342-1.91,0-2.61,.511-4.73,3.464-2.62,3.652-5.03,5.049-10.41,6.055-1.71,.32-3.35,.998-3.64,1.507-1.7,2.991-4.76,6.097-7.02,7.14-2.1,.967-2.58,1.541-2.49,2.957 .23,3.644-.09,4.632-2.23,6.822-2.04,2.09-2.43,2.22-5.3,1.8-6.97-1.03-10.27-.1-13.2,3.72-2.23,2.9-4.662,4.59-8.746,6.08-1.251,.45-1.915,1.31-2.227,2.87-.591,2.95-5.47,7.58-9.162,8.68-2.142,.65-2.879,1.22-2.879,2.24 0,3.28-3.752,7.66-8.105,9.46-1.177,.49-2.138,1.08-2.135,1.32 .002,.23 1.138,1.2 2.524,2.13 2.393,1.63 2.941,1.7 10.876,1.53 7.83-.16 8.468-.08 10.145,1.37 1.603,1.38 1.689,1.68 .826,2.85-1.056,1.44-3.52,1.66-8.738,.78-2.873-.49-3.333-.37-5.319,1.42-1.495,1.35-2.477,3.13-3.148,5.71-.646,2.49-1.618,4.3-2.878,5.36-4.622,3.89-7.76,7.25-8.129,8.72-.219,.87-.066,3.98 .339,6.9 .406,2.93 1.064,14.69 1.463,26.15 .398,11.46 .942,26.83 1.208,34.15l.485,13.32 4.61,.2c3.399,.15 4.61,.45 4.61,1.16 0,.65 1.018,1.02 3.244,1.16 2.87,.19 3.244,.39 3.244,1.78 0,1.28-.747,1.88-3.936,3.17-9.823,4-9.365,2.4-9.727,33.86-.285,24.7-.365,26.04-1.678,27.82-.991,1.35-1.568,3.72-2.051,8.42-.745,7.25-.962,20.33-.391,23.51 .202,1.13 .549,3.13 .772,4.44 .222,1.31 .759,2.61 1.195,2.89 .435,.28 4.325,.51 8.645,.53 8.496,.02 11.128,.75 11.482,3.21 .348,2.42-1.81,2.97-10.945,2.77-12.164-.26-13.232,.82-12.013,12.19 .595,5.56 2.904,11.88 4.342,11.88 1.189,0 3.719,3.61 3.719,5.31 0,1.46-2.056,2.53-6.27,3.26-1.391,.25-2.714,.94-2.961,1.57-.464,1.17-.676,6.04-1.343,30.84-.507,18.84-1.562,37.86-2.329,41.97-1.007,5.39-.309,6.71 6.172,11.71 3.333,2.57 3.967,3.44 4.676,6.4 1.577,6.57 4.517,8.64 10.564,7.42 3.216-.64 3.999-.59 5.516,.41 1.002,.65 1.672,1.65 1.547,2.31-.374,1.95-4.432,2.79-11.984,2.48-8.621-.35-10.635,.51-13.061,5.55-1.864,3.88-2.573,9.06-3.075,22.49-.197,5.26-.56,10.33-.808,11.27-.752,2.85-1.359,29.19-.865,37.56 .675,11.46 .828,24.97 .293,25.84-.467,.75-.516,3.63-.427,25.08l.048,11.65 3.909,1.93c5.67,2.79 10.917,4.48 13.92,4.48 3.409,0 3.328,.85-.236,2.45-2.04,.92-4.439,1.29-8.366,1.3-5.087,0-5.784-.18-9.16-2.32-2.959-1.87-3.769-2.13-4.259-1.36-.874,1.39-.783,2.52 1.166,14.62 2.152,13.35 2.675,21.89 1.717,28.04-.738,4.74-.608,6.28 1.681,20.11 1.191,7.19 1.167,11.19-.106,17.76-2.681,13.83-3.226,18.01-3.292,25.27-.136,14.89 1.252,20.65 5.166,21.43 1.151,.23 6.434,.43 11.74,.43 10.65,.01 12.814,.32 12.262,1.76-.535,1.39-4.394,2.22-12.859,2.74-6.873,.43-9.404,.63-10.73,.87-1.05,.19-4.019,3.98-5.93,7.57-1.107,2.08-2.701,6.4-3.542,9.59-3.616,13.73-.461,37.67 5.515,41.86 1.65,1.15 12.823,1.51 18.102,.57 3.592-.63 5.122-.26 5.122,1.25 0,.98-.759,1.34-3.586,1.73-1.972,.27-4.2,.59-4.951,.73-.752,.13-2.596,.41-4.098,.62-1.503,.21-3.501,.51-4.44,.67-.939,.15-4.012,.63-6.828,1.05s-5.391,1.03-5.722,1.36c-1.092,1.09-5.21,18.03-5.569,22.9-1.036,14.06-.931,20.66 .401,25.04 .724,2.38 1.318,5.48 1.321,6.89s.23,2.56 .505,2.56 2.874-.81 5.775-1.79c5.44-1.85 7.649-1.79 7.265,.2-.162,.84-1.768,1.48-5.953,2.38-7.599,1.63-8.925,2.54-9.052,6.23-.286,8.32 1.325,12.67 5.479,14.79 6.184,3.16 10.357,.91 15.05-8.11 2.632-5.06 6.15-8.92 8.134-8.92 1.441,0 2.921-3.26 3.609-7.96 .93-6.34 1.807-8.36 3.865-8.88 2.685-.67 2.155-1.57 16.76,28.45 2.28,4.7 5.22,9.88 6.52,11.52 2.18,2.74 2.57,2.95 4.87,2.64 3.87-.52 6.32,.95 13.52,8.08 11.34,11.24 12.17,11.57 22.49,9.13zm-43.8-41.15c-1.12-.81-.9-1.04 2.35-2.39 1.97-.82 3.99-1.49 4.48-1.49 1.97,0 1.68-1.62-.74-4.1-2.22-2.27-2.85-2.56-4.85-2.24-3.4,.55-6.058-.84-7.44-3.91-2.854-6.33 2.88-16.07 10.27-17.46 2.81-.52 4.46-.01 6.73,2.09 2.02,1.87 2.4,5.71 .97,9.69-.74,2.03-.61,2.72 1.31,6.88 1.18,2.54 2.3,5.14 2.5,5.78 .28,.93 1.11,1.15 3.97,1.09 1.99-.04 4.7,.38 6.01,.94 2.37,1 2.32,1.01-4.84,1.42-6.08,.35-7.95,.75-11.79,2.51-5.01,2.29-7.05,2.57-8.93,1.19zm4.77-15.13c2.46-1.87 5.08-6.7 5.08-9.33 0-2.52-2.87-4.97-5.15-4.4-4.51,1.13-8.616,6.14-8.715,10.64-.12,5.45 3.855,6.85 8.785,3.09zm575.63-784.28c-3.09-2.5-3.8-6.43-1.96-10.84 .99-2.371 .96-2.588-1.02-6.043-1.13-1.971-2.12-4.362-2.2-5.312-.13-1.666-.33-1.738-5.44-1.97-3.89-.176-5.61-.556-6.49-1.431-1.13-1.133-.89-1.194 4.93-1.248 7.61-.069 9.43-.358 13.3-2.106 4.97-2.247 6.41-2.518 8.58-1.609l2,.842-3.75,1.743c-2.07,.959-4.47,2.009-5.35,2.334-1.56,.583-1.55,.624 1.26,3.405 2.59,2.568 3.08,2.782 5.55,2.451 5.62-.754 8.28,3.171 6.8,10.044-.79,3.7-4.12,8.41-7.11,10.07-2.24,1.25-7.39,1.06-9.1-.33zm10.33-4.7c2.92-3.35 4.16-7.763 2.9-10.343-.75-1.547-1.31-1.828-3.49-1.758-4.53,.145-10.73,7.451-9.73,11.471 1.21,4.78 6.41,5.1 10.32,.63zm-452.48,840.99c0-.12-.48-1.65-1.08-3.4l-1.08-3.18-2.85,.39c-1.56,.22-3.45,.48-4.21,.59-.75,.1-1.98,.23-2.73,.28-1.2,.08-1.12,.28 .69,1.76 2.36,1.94 6.67,3.65 9.39,3.73 1.03,.03 1.87-.05 1.87-.17zm426.03-1.13c1.25-.7 21.31-8.91 28.85-11.8 6.02-2.31 11.22-3.75 15.64-4.33l3.69-.48-15.05-7.4c-13.94-6.85-15.32-7.7-18.9-11.56-2.12-2.29-4.48-5.4-5.25-6.91-1.69-3.3-2.33-3.04-1.4,.56 .38,1.45 .83,3.56 .99,4.68 .17,1.13 .68,3.41 1.13,5.07 1.11,4.07 1.41,13.06 .55,16.44-.87,3.42-4.99,8.17-9.24,10.65-3.64,2.12-4.96,3.57-4.46,4.87 .41,1.05 1.81,1.13 3.45,.21zm-137.97-2.38c1.97-.92 3.58-1.97 3.58-2.33 0-1.43-5.98-2.64-15.71-3.16-3.19-.17-7.19-.48-8.88-.68l-3.07-.37 3.18,2.96c5.66,5.29 14.11,6.74 20.9,3.58zm-425.64-2.78c-.73-.55-1.65-.99-2.05-.98-.39,.01-.12,.47 .61,1.03 .73,.55 1.65,.99 2.04,.98 .4-.01 .13-.48-.6-1.03zm-3.52-2.54c-.26-.47-.91-1.35-1.429-1.96-.521-.61-1.826-3.68-2.9-6.83s-3.251-8.95-4.838-12.89c-1.586-3.95-3.159-8.14-3.495-9.31-.641-2.26-3.041-5.72-3.96-5.72-.297,0-1.065,1.77-1.707,3.93-2.035,6.85-3.348,9.26-7.9,14.51-3.768,4.35-7.48,8.9-10.506,12.88-.58,.76-.297,.76 1.659-.02 4.553-1.82 20.14,.65 30.362,4.8 4.004,1.63 5.404,1.81 4.714,.61zm619.59-7.94c-.51-.82-3.12-1.46-3.12-.76 0,.62 1.2,1.22 2.6,1.31 .49,.03 .72-.22 .52-.55zm-54.4-33.3c1.62-2.05 1.74-3.45 .64-7.13-1.01-3.38-4.5-6.72-7.53-7.21-1.88-.31-2.78-.05-4.29,1.25-1.61,1.39-1.84,1.98-1.44,3.78 .78,3.56 4.28,8.14 7.4,9.69 3.61,1.78 3.52,1.78 5.22-.38zm41.8-90.86c-.81-1.39-1-.95-.34,.77 .23,.61 .57,.97 .74,.79 .18-.17 0-.88-.4-1.56zm-26.25-3.87c1.73-1.62 3.01-3.29 2.87-3.69-.15-.41-2.05,.92-4.23,2.95-2.36,2.21-3.51,3.7-2.86,3.7 .6,0 2.5-1.33 4.22-2.96zm-2.55-6.11c-.17-.13-1.52,1.17-3.01,2.88l-2.69,3.12 3-2.88c1.65-1.59 2.86-2.99 2.7-3.12zm12.62-5.27c.34-5.06 .27-6.21-.35-5.21-1.02,1.65-1.76,13.34-.78,12.38 .38-.38 .89-3.6 1.13-7.17zm-8.28-1.03l.38-4.78-.95,4.44c-1.12,5.25-1.27,7.72-.39,6.15 .32-.56 .75-3.18 .96-5.81zm16.42-2.39c.31-1.68 .24-2.08-.23-1.36-.37,.56-.68,1.76-.68,2.67-.02,2.19 .37,1.64 .91-1.31zm-15.61-6.14c.68-.76 1.08-1.37 .9-1.37-.19,0-.9,.61-1.58,1.37-.68,.75-1.08,1.36-.9,1.36 .19,0 .9-.61 1.58-1.36zm23.35-5.35c3.18-1.63 6-4.92 6.73-7.81 .25-1.04 .26-3.3 0-5.02l-.47-3.14-3.88,.47c-6.28,.75-15.03,2.86-16.85,4.05-2.89,1.89-4,4.28-3.9,8.35 .06,2.05 .31,4.06 .56,4.46 .3,.49 2.94,.63 7.7,.43 5.66-.24 7.88-.63 10.11-1.79zm-8.66-17.89c1.31-.39 4.69-1.02 7.51-1.42 5.86-.82 7.46-1.65 9.49-4.94 1.54-2.49 3.14-9.51 2.54-11.09-.51-1.32-11.08,3.15-16.65,7.04-4.55,3.19-7.4,7.38-6.64,9.78 .49,1.54 .59,1.56 3.75,.63zm2.73-15.67c.94-.62 4.89-2.47 8.78-4.13 3.92-1.67 7.47-3.63 7.96-4.4 1.16-1.84 2.47-8.24 1.95-9.57-.52-1.37-1.9-1.33-3.07,.08-.52,.62-4.27,2.75-8.34,4.73s-7.98,4.12-8.68,4.76c-1.81,1.63-2.91,5.44-2.39,8.23 .46,2.45 .49,2.46 3.79,.3zm7.49-18.16c3.53-1.83 5.4-3.36 7.53-6.19 3.04-4.03 4.78-7.59 4.78-9.77 0-1.27-.32-1.2-4.61,.95-2.53,1.28-5.81,2.54-7.27,2.8-3.36,.61-7.68,4.42-8.54,7.53-.89,3.24 .23,7.11 2.05,7.11 .75,0 3.48-1.1 6.06-2.43zm-2.02-16.05c1.31-.4 2.86-.83 3.44-.96 5-1.13 11.04-5.88 13.03-10.27 .69-1.51 1.26-4.17 1.26-5.93l.02-3.2-2.9,1.6c-1.6,.88-4.82,2.12-7.15,2.77-6.49,1.78-11.81,6.98-11.81,11.52 0,1.3 1.24,5.19 1.65,5.19 .04,0 1.14-.33 2.46-.72zm9.44-21.13c5.26-2.03 7.75-3.99 10.89-8.59 1.39-2.04 2.87-9.17 1.9-9.17-.27,0-1.77,.74-3.33,1.65-1.57,.91-5.16,2.33-7.98,3.16-5.66,1.67-7.68,3.13-9.65,6.98-1.12,2.18-1.21,3-.59,5.3 .9,3.35 1.64,3.41 8.76,.67zm-.23-16.82c4.39-1.05 9.02-3.65 11.72-6.57 3.61-3.92 4.15-4.99 4.72-9.28l.47-3.54-3.24,1.81c-1.78,1-5.72,2.54-8.76,3.42-6.11,1.78-8.85,3.84-10.1,7.61-1,3.03 .35,7.86 2.06,7.36 .6-.18 2-.54 3.13-.81zm4.49-18.43c6.39-1.89 9.69-4.14 12.91-8.81 1.67-2.44 3.46-9.22 2.43-9.22-.23,0-1.86,.73-3.63,1.63-1.77,.89-5.68,2.29-8.68,3.11-6.03,1.65-7.51,2.66-8.94,6.09-1.14,2.73-1.21,4.16-.3,6.54 .78,2.06 1.29,2.11 6.21,.66zm3.91-17.98c5.25-1.68 7.73-2.97 10.68-5.57 2.55-2.23 5.17-8.12 5.17-11.61v-2.05l-2.9,1.69c-1.6,.94-5.37,2.37-8.37,3.18-6.09,1.64-8.15,3.12-9.95,7.14-1.04,2.31-1.11,3.18-.45,5.63 .43,1.6 .98,2.91 1.23,2.91s2.31-.6 4.59-1.32zm4.93-18.88c8.8-2.78 13.13-7.61 14.08-15.68l.46-3.88-3.35,2.37c-3.97,2.82-6.76,4.11-12.05,5.59-4.12,1.15-5.51,2.5-6.63,6.41-.62,2.15 .36,6.95 1.41,6.95 .3,0 3.03-.79 6.08-1.76zm.75-16.71c9.34-3.15 14.05-8.31 14.61-16.02l.27-3.71-3.42,2.46c-1.88,1.35-6.23,3.41-9.67,4.58-5.26,1.79-6.51,2.51-7.85,4.51-1.19,1.76-1.52,3-1.27,4.78 .75,5.37 1.06,5.51 7.33,3.4zm-9.3-15.25c-1.51-3.61-1.28-7.83 .62-11.37 1.11-2.08 1.45-3.42 1.04-4.17-.32-.61-.92-2.58-1.32-4.36-.89-4-.13-6.68 3.12-10.93 2.29-3 2.3-3.05 1.3-5.87-1.67-4.73-.95-9.54 1.92-12.71l1.36-1.5-1.78-4.79c-1.64-4.44-1.7-5-.86-7.81 .5-1.67 1.38-3.7 1.96-4.52 .95-1.37 .9-1.85-.67-5.69-2.12-5.24-2.14-7.91-.09-11.97 1.62-3.18 1.62-3.2 .33-5.8-1.79-3.65-1.72-8.33 .18-12.14l1.55-3.11-1.72-2.53c-3.27-4.83-3.46-12.18-.41-15.86 .69-.82 .49-1.75-1.06-4.91-2.49-5.08-2.68-10.23-.54-14.31 .9-1.71 1.24-3.04 .84-3.29-1.21-.75-3.24-5.43-3.71-8.58-.33-2.2-.15-3.88 .63-5.74 1.07-2.57 1.06-2.67-.59-4.39-2.35-2.46-3.93-8.78-3.01-12.1 .39-1.4 1.13-3.19 1.65-3.99 .85-1.3 .74-1.68-1.07-3.88-1.11-1.35-2.4-3.89-2.87-5.64-.74-2.76-.69-3.64 .38-6.65l1.23-3.46-1.68-1.8c-.93-.99-2.03-2.47-2.45-3.29-.93-1.82-1.01-8.73-.12-10.4 .5-.94 .19-1.76-1.33-3.55-1.1-1.27-2.02-2.01-2.05-1.64-.04,.38-.16,2.22-.28,4.1-.22,3.6-.98,6.93-3.14,13.66-2.24,7.02-4.24,13.62-4.38,14.52-.07,.47-.5,1.23-.95,1.67-1.24,1.25-1.07,1.61 2.68,5.74 5.97,6.6 5.58,2.8 5.66,55.42 .05,34.37 .28,46.61 .85,46.61 .43,0 1.49,.58 2.37,1.29l1.59,1.29 .16,22.1c.09,12.16 .2,22.57 .25,23.13 .05,.57 .68,6.01 1.4,12.1s1.31,13.5 1.31,16.48c0,2.97 .19,6.37 .43,7.56 .4,2.04 .48,2.08 1.36,.83 .78-1.12 .77-1.69-.09-3.75zm9.95-1.52c3.95-1.16 7.47-3.02 10.12-5.34 2.53-2.22 4.85-7.78 4.86-11.63v-3.37l-1.88,1.79c-1.03,.99-3.72,2.61-5.97,3.59-2.26,.98-4.63,2.08-5.29,2.43-.65,.35-1.73,.64-2.41,.64-1.94,0-4.19,1.94-5.29,4.57-1.19,2.84-1.26,4.25-.35,6.65 .78,2.06 1.29,2.11 6.21,.67zm.3-16.92c4.85-1.29 8.49-3.33 11.36-6.35 3.52-3.71 4.69-6.4 4.69-10.82v-3.82l-2.22,2.09c-2.2,2.07-4.19,3.14-11.44,6.14-5.69,2.35-5.72,2.37-7.1,4.9-1.02,1.85-1.19,3.05-.81,5.57 .53,3.55 .63,3.6 5.52,2.29zm4.55-18.11c3.42-1.48 7.16-4.35 9.83-7.52 2.16-2.56 3.88-8.95 3.29-12.19l-.4-2.21-3.52,2.97c-2,1.7-5.12,3.5-7.26,4.2-4.22,1.38-7.04,3.97-8.23,7.58-.66,2-.6,2.94 .36,5.44 1.29,3.39 1.77,3.53 5.93,1.73zm1.37-19.11c3.89-1.68 10.07-7.3 11.33-10.31 1.19-2.85 1.82-8.34 1.23-10.68l-.42-1.68-2.39,2.32c-2.1,2.05-4.02,3.18-10.48,6.17-2.41,1.12-5.53,5.31-5.95,7.99-.43,2.73 1.32,7.46 2.76,7.46 .53,0 2.29-.57 3.92-1.27zm.89-19.58c4.29-2.03 9.02-6.51 10.45-9.89 1.13-2.69 1.87-9.03 1.23-10.68-.32-.86-.99-.44-3.1,1.96-2.38,2.7-11.39,8.04-13.56,8.04-.84,0-2.86,4.24-2.86,6 0,2.26 2.01,6.3 3.13,6.3 .58,0 2.7-.78 4.71-1.73zm.02-17.44c3.25-1.98 9.06-8.26 10.21-11.03 1.18-2.84 1.41-9.53 .4-11.42-.6-1.12-.99-.94-3.93,1.8-1.8,1.67-4.73,3.79-6.51,4.7-5.87,3.02-8.99,10.82-6.36,15.91 1.25,2.42 2.27,2.43 6.19,.04zm4.29-24.78c5.28-5.17 6.72-8.94 5.62-14.75-.38-2-.69-3.76-.69-3.9s-1.7,1.13-3.78,2.83c-2.08,1.69-4.93,3.66-6.32,4.37-3.11,1.59-4.3,2.89-6.53,7.1-1.63,3.09-1.68,3.44-.81,6.35 1.46,4.82 1.96,5.16 5.34,3.56 1.58-.75 4.81-3.25 7.17-5.56zm-7.86-14.89c9.43-4.81 14.32-13.52 12.14-21.64l-.76-2.79-3.22,3.09c-1.77,1.7-4.86,4.03-6.85,5.17-3.68,2.1-6.51,5.54-7.33,8.89-.59,2.45 1.47,8.74 2.87,8.74 .16,0 1.57-.65 3.15-1.46zm.15-20.43c3.25-1.98 9.06-8.26 10.22-11.04 1.31-3.16 1.33-9.87 .03-12.14-.54-.94-.99-1.35-1-.91-.05,1.63-6.83,8.18-10.03,9.67-6.01,2.82-8.29,8.82-5.44,14.32 1.29,2.49 2.28,2.5 6.22,.1zm2.68-22.53c4.04-4.47 5.41-8.2 5.02-13.65-.18-2.52-.55-4.93-.82-5.37-.31-.51-1.57,.5-3.49,2.81-1.65,1.98-4.83,4.68-7.08,6-2.97,1.73-4.45,3.13-5.43,5.12-2.11,4.26-2.13,6.41-.1,9.74l1.36,2.23 3.97-2c2.19-1.1 5.14-3.3 6.57-4.88zm-678.13-11.53l.235-3.47h-2.693c-1.482,0-2.683,.23-2.669,.52 .054,1.15 4.2,7.07 4.653,6.64 .131-.13 .344-1.79 .474-3.69zm669.95-2.75c5.03-3.47 9.06-8.5 9.89-12.37 .93-4.33 .91-5.1-.16-8.69l-.88-2.93-3.58,4.42c-1.97,2.43-5.26,5.53-7.32,6.9-4.13,2.74-6.07,6.07-5.31,9.12 .51,2.06 2.92,5.57 3.82,5.57 .33,0 1.92-.91 3.54-2.02zm-669.63-5.82c.939-.54 2.424-1.31 3.3-1.7s1.483-.95 1.349-1.22c-1.069-2.24-3.12-5-3.954-5.32-1.432-.56-16.505-2.49-16.833-2.16-.656,.65 2.091,5.61 4.643,8.38 2.607,2.83 3.02,3.03 6.289,3.02 1.924-.01 4.267-.46 5.206-1zm669.99-14.89c2.26-2.34 4.6-5.28 5.2-6.54 1.3-2.71 1.48-10.43 .32-13.38l-.79-2.02-1.16,1.76c-1.92,2.91-6.84,7.98-9.9,10.19-3.56,2.58-4.52,4.25-4.55,7.93-.02,2.27 .42,3.4 2.08,5.29 2.57,2.92 3.01,2.76 8.8-3.23zm-669.31,.15c0-3.9-1.771-6.05-7.047-8.54-5.754-2.71-17.339-5.96-17.919-5.02-.688,1.11 1.683,7.96 3.508,10.12 1.801,2.15 4.247,3.07 10.189,3.88 2.958,.39 9.209,1.3 10.757,1.56 .282,.05 .512-.85 .512-2zm2.356-24.21c.235-3.75 .623-8.06 .864-9.56 .24-1.5 .533-8.26 .651-15.03 1.013-58.17 1.101-59.73 3.69-65.49 1.255-2.79 1.254-2.81-.186-3.16-.795-.2-2.01-1.12-2.699-2.05-1.152-1.56-1.314-4.54-2.019-37.21-.422-19.53-.897-39.51-1.054-44.4-.353-10.91 .793-15.3 5.635-21.59 2.883-3.75 3.08-4.24 2.112-5.2-.969-.97-1.244-.86-2.957,1.17-1.039,1.24-2.906,2.67-4.147,3.19-2.112,.89-2.233,1.11-1.865,3.5 .462,2.99-1.003,7.59-3.435,10.78-1.476,1.93-1.63,2.7-1.38,6.93 .31,5.22-.943,8.84-4.07,11.78-1.438,1.35-1.584,1.96-1.254,5.16 .489,4.73 .015,6.41-2.893,10.22-2.374,3.11-2.394,3.19-1.461,5.95 1.525,4.51 1.087,9.44-1.136,12.79l-1.905,2.88 1.229,3.2c.765,1.99 1.197,4.81 1.143,7.44-.076,3.69-.377,4.61-2.313,7.06-2.038,2.57-2.166,3.01-1.506,5.16 1.19,3.87 .714,9.88-.968,12.24-1.38,1.93-1.404,2.18-.4,4.1 1.537,2.93 1.38,9.1-.318,12.53l-1.391,2.81 1.618,3.2c1.822,3.6 2.035,7.43 .632,11.37-.879,2.46-.838,2.69 .798,4.43 2.918,3.12 4.409,7.43 3.975,11.5-.21,1.97-.57,4.07-.801,4.67-.23,.6 .006,1.62 .525,2.26 3.255,4.04 4.352,9.8 2.68,14.09-.682,1.75-.577,2.2 .879,3.75 3.619,3.88 5.059,9.4 3.717,14.26-.589,2.14-.475,2.55 1.048,3.83 2.678,2.26 3.922,5.47 3.958,10.21 .03,3.91 .199,4.41 1.853,5.41l1.82,1.11 .452-4.23c.249-2.33 .645-7.3 .879-11.06zm663.38,5.6c2.34-2.44 4.59-5.31 5.01-6.38 1.03-2.66 1.03-8.92 0-12.03-.94-2.85-1.79-3.25-2.45-1.17-.6,1.89-7.44,9.18-10.25,10.91-4.1,2.54-5.01,8-2.05,12.28 1.8,2.59 1.95,2.66 3.67,1.77 1-.52 3.72-2.94 6.07-5.38zm-672.57,2.56c0-3.6-1.568-6-5.735-8.76-3.377-2.25-11.849-6.24-16.053-7.57-1.631-.52-1.638-.5-1.235,3.41 .267,2.58 1.061,4.98 2.323,7 1.906,3.06 1.967,3.09 10.011,5.32 4.451,1.24 8.267,2.43 8.48,2.64 1.161,1.16 2.209,.19 2.209-2.04zm665.6-17.5c2.48-2.33 5.12-5.42 5.87-6.88 1.59-3.13 1.88-9.25 .61-13.08l-.85-2.58-1.38,2.28c-2.16,3.54-7.11,9.09-9.03,10.12-1.68,.9-1.73,1.15-1.73,7.64 0,5.44 .19,6.72 .99,6.72 .55,0 3.04-1.9 5.52-4.22zm-670.38,.29c-.005-5.94-1.897-7.8-14.783-14.56-6.032-3.17-6.694-3.38-7.108-2.24-.252,.7-.402,1.88-.333,2.63 .239,2.64 2.018,8.6 2.727,9.15 .395,.31 3.022,1.43 5.84,2.51 2.817,1.07 6.659,2.77 8.537,3.77 4.844,2.58 5.123,2.51 5.12-1.26zm-4.51-15.59c.948-2.47 .324-6.16-1.486-8.77-1.817-2.62-7.455-6.51-15.065-10.38-4.41-2.24-5.12-1.69-4.639,3.6 .528,5.82 1.349,6.7 11.063,11.85 4.859,2.58 9.032,4.71 9.273,4.73 .242,.03 .626-.44 .854-1.03zm676.25-9.46c1.28-4.31 1.26-6.22-.11-10.24l-1.11-3.26-1.95,3.58c-1.08,1.97-2.72,4.58-3.66,5.8-1.42,1.87-1.65,2.82-1.45,5.88 .13,2.01 .28,4.72 .32,6.02l.09,2.37 3.43-3.39c2.45-2.41 3.73-4.36 4.44-6.76zm-679.01-10.34c.292-2.13 .112-3.73-.573-5.05-1.426-2.76-7.036-7.47-13.435-11.27-4.388-2.61-5.629-3.09-6.105-2.34-1.071,1.7-1.002,5.1 .182,8.97 .7,2.29 1.447,2.92 7.171,5.97 3.515,1.88 7.538,4.17 8.942,5.09 1.403,.92 2.74,1.69 2.97,1.71 .231,.02 .612-1.36 .848-3.08zm671.86-1.15c2.05-3.58 2.25-10.49 .4-14-2.04-3.89-2.41-3.3-3.88,6.28-.56,3.63-.53,5.44 .14,7.69 .47,1.61 1.05,2.93 1.27,2.93 .23,0 1.16-1.3 2.07-2.9zm-675.87-17.54c.24-1.09 .083-3.31-.348-4.94-.859-3.24-5.094-7.79-12.82-13.77l-4.261-3.3-1.013,2.42c-1.214,2.91-1.265,7.54-.112,10.24 .604,1.41 3.123,3.36 8.994,6.95 4.485,2.74 8.373,4.85 8.64,4.69 .266-.17 .681-1.19 .92-2.29zm-.224-19.13c.204-3.36-.209-5.18-1.799-7.91-1.621-2.79-12.775-13.98-13.926-13.98-.961,0-2.83,5.22-2.754,7.69 .135,4.38 .956,5.48 8.828,11.81 6.859,5.51 7.944,6.16 8.691,5.22 .469-.6 .901-1.87 .96-2.83zm.822-18.67c-.032-2.24-.607-4.67-1.536-6.49-1.514-2.97-11.332-14.49-12.346-14.49-.781,0-2.877,5.32-3.22,8.18-.272,2.26 .089,2.73 7.774,10.01 5.037,4.77 8.306,7.39 8.719,7 .363-.35 .637-2.24 .609-4.21zm1.749-13.06c1.85-2.23 2.064-5.17 .698-9.6-1.095-3.54-2.317-5.43-6.833-10.54-3.024-3.42-5.782-6.22-6.129-6.22-1.178,0-3.516,5.64-3.561,8.59-.042,2.75 .297,3.3 5.292,8.61 2.934,3.12 6.133,6.67 7.108,7.9 1.995,2.5 2.303,2.61 3.425,1.26zm2.37-21.87c1.126-2.09 1.168-2.73 .397-5.94-.816-3.4-5.546-11.63-8.224-14.31-.675-.67-1.742-2.01-2.372-2.97-1.456-2.23-2.13-1.77-4.145,2.78-2.828,6.4-2.577,7.12 5.369,15.44 3.851,4.02 7.162,7.32 7.358,7.33 .196,0 .924-1.05 1.617-2.33zm2.891-18.84c1.609-2.43 1.761-3.16 1.365-6.53-.368-3.13-1.308-5.16-5.379-11.61-2.714-4.3-5.212-7.72-5.552-7.61-1.038,.35-4.009,6.57-4.552,9.54-.502,2.75-.396,2.95 5.646,10.87 3.386,4.44 6.27,8.08 6.409,8.08s1.067-1.24 2.063-2.74zm6.64-20.82c.632-4.62-.653-7.7-7.459-17.92-2.625-3.94-2.91-4.17-3.872-3.08-1.396,1.59-3.93,6.7-3.93,7.92 0,.54 1.948,3.85 4.329,7.37 2.381,3.51 5.064,7.72 5.962,9.34l1.633,2.96 1.469-1.84c.807-1.01 1.648-3.15 1.868-4.75zm3.584-14.52c.684-1.41 1.205-3.79 1.157-5.29-.167-5.26-4.936-19.47-6.532-19.47-1.375,0-5.9,5.49-6.592,7.99-.652,2.37-.502,2.87 2.09,7.01 6.205,9.92 7.784,12.29 8.199,12.31 .239,0 .994-1.14 1.678-2.55zm9.639-17.83c1.268-2.78 1.016-7.96-.756-15.57-.889-3.82-1.824-7.28-2.077-7.69-.725-1.17-6.367,3.96-7.95,7.23l-1.392,2.87 2.709,6.48c1.489,3.57 2.927,7.51 3.195,8.75 .267,1.25 .626,2.51 .798,2.8 .473,.8 4.536-2.81 5.473-4.87zm8.634-11.4c1.887-1.83 2.528-3.04 2.63-4.95 .225-4.23-.148-8.08-1.253-12.93-.578-2.55-1.213-5.47-1.41-6.51-.198-1.03-.657-1.87-1.02-1.87-1.09,0-6.613,4.8-7.029,6.11-.213,.67 .697,5.84 2.022,11.47 1.324,5.64 2.408,10.45 2.408,10.68 0,.99 1.318,.27 3.652-2zm10.812-10.38c1.156-.68 2.646-2.53 3.441-4.26 1.275-2.79 1.364-3.92 .986-12.51-.229-5.187-.595-9.723-.813-10.077-.514-.831-3.714,.825-6.758,3.497-3.741,3.29-4.215,5.75-2.464,12.84 .811,3.28 1.582,7.03 1.714,8.32 .132,1.3 .266,2.59 .299,2.87 .097,.84 1.428,.59 3.595-.68zm13.957-13.83c1.454-1.5 2.878-3.57 3.168-4.61 .85-3.039 1.43-14.014 .91-17.426-.47-3.138-.47-3.143-2.495-2.438-1.114,.389-3.41,1.981-5.101,3.538l-3.075,2.832 .674,5.693c.37,3.131 .727,7.821 .792,10.411 .145,5.75 1.125,6.13 5.127,2zm-30.5-4.41c.452-.54 2.18-1.51 3.84-2.14 1.661-.634 3.02-1.395 3.02-1.691 0-1.842 7.729-8.187 11.874-9.748 1.118-.421 1.232-.96 .863-4.099-.69-5.869-1.669-7.869-4.577-9.353-2.941-1.5-4.67-3.61-8.725-10.643-3.165-5.492-5.337-7.247-9.09-7.345-5.001-.131-5.693,3.325-2.652,13.226 1.617,5.26 2.129,8.621 2.708,17.758 .393,6.198 .715,12.115 .717,13.145 .003,2.07 .764,2.41 2.022,.89zm51.908-1.87c1.72-1.848 2.02-6.899 .37-6.266-.56,.217-1.02,.75-1.02,1.186 0,.437-.77,1.924-1.71,3.306s-1.71,2.684-1.71,2.894c0,.98 2.84,.21 4.07-1.12zm-9.57-1.216c4.87-2.487 6.87-8.286 6.87-19.954 0-7.296-.52-7.539-6.59-3.075l-4,2.946v10.712c0,5.892 .24,10.717 .54,10.717s1.73-.607 3.18-1.346zm16.09-11.726c3.69-3.238 3.93-4.017 3.06-10-.61-4.206-.57-6.208 .19-9.884 .52-2.536 .76-4.61 .52-4.61-.78,0-6.48,3.866-7.65,5.19-.93,1.061-1.18,3.142-1.36,11.373-.22,10.014-.22,10.075 1.29,10.074 .83,0 2.61-.965 3.95-2.143zm-31.416-8.792c.515-.997 2.506-6.05 4.423-11.227 3.953-10.67 5.273-13.44 10.673-22.373 4.44-7.339 10.47-14.5 13.92-16.54l2.4-1.418-3.76-.512c-3-.408-7.37-.199-10.24,.491-.19,.045-1.57,.324-3.08,.621-7.73,1.528-27.848,11.217-34.034,16.396-.948,.794-2.821,2.302-4.162,3.351-1.747,1.366-2.439,2.442-2.439,3.793 0,4.432 8.096,13.159 14.263,15.377 2.721,.979 3.574,1.709 4.742,4.059 .784,1.577 1.777,4.249 2.208,5.94 1.192,4.677 1.891,5.729 3.126,4.704 .562-.467 1.444-1.664 1.96-2.662zm46.786-.628c.93-.669 2.25-2.148 2.92-3.287 1.07-1.829 1.12-2.644 .45-6.942-.68-4.414-.5-9.366 .45-12.529 .5-1.644-.64-1.497-3.78,.487-6.57,4.144-10.09,14.069-7.98,22.475 .45,1.81 .62,1.885 3.35,1.459 1.58-.246 3.65-.995 4.59-1.663zm-27.04-9.137c1.01-.079 2.62-1.22 4.04-2.864 2.74-3.188 8.71-6.942 11.91-7.493 1.4-.242 3.1-1.345 4.57-2.976 2.39-2.646 8.82-6.264 11.13-6.264 .7,0 2.18-.953 3.28-2.117 3.41-3.598 7.52-6.026 11.95-7.06 2.76-.643 4.93-1.65 6.21-2.874 2.37-2.272 2.09-2.484-4.88-3.59-2.82-.447-8.76-1.721-13.2-2.831-10.15-2.538-14.07-2.59-18.77-.249-5.6,2.793-9.08,7.38-15.46,20.429-6.46,13.196-11.31,23.437-11.31,23.891 0,.17 1.99-1.082 4.42-2.781 2.43-1.7 5.18-3.149 6.11-3.221zm41.35,.348c2.96-1.451 5.68-5.312 5.08-7.203-.71-2.213-.33-10.18 .66-13.996 1.06-4.061 .76-4.249-3.33-2.089-6.2,3.274-9.24,8.323-9.35,15.514-.04,2.509 .15,5.561 .43,6.782 .41,1.838 .81,2.214 2.32,2.187 1.01-.018 2.89-.556 4.19-1.195zm14.51-8.362c1.54-.428 3.35-1.694 4.63-3.24 2.02-2.446 2.08-2.72 1.74-7.604-.19-2.787-.08-6.167 .26-7.513 1.47-5.914 1.49-6.203 .4-6.203-1.35,0-5.71,2.78-7.65,4.879-3.48,3.767-5.97,13.616-4.72,18.626 .49,1.949 1.44,2.137 5.34,1.055zm231.74-2.704c1.12-.287 1.51-.558 .86-.602-.65-.045-2.64-1.618-4.41-3.496-2.76-2.922-3.6-3.415-5.8-3.415-3.4,0-9.54-2.77-10.96-4.945-1.04-1.573-1.59-1.741-6-1.808-5-.076-6.77-.638-9.32-2.957-1.35-1.231-1.79-1.273-5.21-.506-4.35,.973-7.29,.559-11.63-1.641-1.72-.871-3.47-1.375-3.88-1.121s-2.59,.529-4.84,.61c-3.43,.124-4.71-.188-7.93-1.931-2.27-1.229-4.14-1.846-4.59-1.509-1.51,1.157-7.28,2.308-9.42,1.88-1.22-.243-3.57-1.098-5.22-1.899-2.57-1.242-3.34-1.341-5.19-.669-3.03,1.095-7.46,.983-10.45-.265-2.42-1.011-2.65-.981-5.89,.782-2.71,1.476-4.16,1.811-7.44,1.712-2.24-.067-4.91-.554-5.93-1.082-1.68-.869-2.17-.805-5.21,.685-3.9,1.906-8.53,2.168-12.09,.682-2.14-.895-2.5-.889-3.28,.051-.48,.581-2.28,1.787-4,2.681-3.04,1.585-3.07,1.626-1.07,1.681 4.59,.125 10.3,2.066 14.22,4.83 3.59,2.527 4.27,2.77 6.51,2.305 4.35-.906 21.93-.574 32.55,.615 14.07,1.575 14.92,1.673 21.51,2.464 3.19,.384 10.42,1.174 16.05,1.756 5.64,.583 14.24,1.502 19.13,2.044 13.05,1.448 21.8,2.306 28.34,2.781 3.19,.232 5.93,.545 6.09,.696 .38,.37 2.02,.221 4.5-.409zm42.7-4.168c-4.86-4.081-11.83-4.448-18.82-.99-8.79,4.348-9.23,5.512-1.86,4.953 2.91-.22 6.53-.18 8.03,.089 1.86,.334 4.65,.049 8.75-.892l6.02-1.383-2.12-1.777zm-28.7-.273c2.34-2.078 11.02-6.487 13.59-6.897 2.58-.413 2.7-.526 1.81-1.791-2.04-2.917-10.27-6.904-13.19-6.386-.65,.116-2.42,.433-3.92,.705-3.4,.616-10.33,4.434-12.89,7.109l-1.93,2.013 1.56,2.101c1.34,1.822 2.69,2.558 8.14,4.437 1.53,.528 5.66-.253 6.83-1.291zm-228.12-1.577c3.49-1.341 4.41-3.217 4.84-9.969 .38-5.848 1.91-11.742 3.64-14.001 .62-.804 .31-.88-1.92-.463-8.59,1.608-14.11,10.322-13.45,21.231 .11,1.878 .34,3.641 .51,3.918 .36,.604 4,.196 6.38-.716zm210.36-9.008c2.17-1.878 4.14-3.415 4.37-3.415 .24,0 1.64-.758 3.11-1.685s4.12-2.052 5.9-2.5l3.23-.814-1.56-1.261c-.85-.694-3.28-1.766-5.4-2.382-6.9-2.008-14.57,.719-21.16,7.518-2.9,2.988-2.61,4.475 1.24,6.417 4.44,2.24 5.8,1.991 10.27-1.878zm-195.57,2.335c3.95-.79 5-2.247 5.38-7.467 .34-4.683 2.34-11.468 4.28-14.504 .9-1.422 .87-1.537-.5-1.537-3.08,0-8.75,3.891-11.44,7.849-1.79,2.621-3.63,9.36-3.63,13.252 0,2.633 .12,2.804 1.96,2.804 1.08,0 2.86-.179 3.95-.397zm17.76-5.11c.88-.333 1.62-.844 1.65-1.135s.15-.99 .27-1.554c.11-.563 .53-2.715 .92-4.781 .92-4.84 3.09-9.691 5.65-12.606 2.21-2.51 1.79-3.411-1.23-2.686-8.62,2.069-13.93,8.884-15.18,19.466-.39,3.289-.29,4.018 .6,4.243 1.35,.344 5.25-.16 7.32-.947zm15.69-2.392c1-.624 1.81-2.379 2.62-5.685 1.35-5.479 4.3-12.001 6.45-14.248l1.48-1.537-2.59,.007c-3.08,.008-8.46,2.925-11.53,6.245-2.59,2.804-4.82,8.007-5.44,12.676-.46,3.471-.44,3.507 1.5,3.77 2.67,.362 5.76-.143 7.51-1.228zm148.19-2.89c2.3-2.255 5.75-4.999 7.67-6.097l3.5-1.997-2.34-1.117c-6.29-3-13.46-1.886-20.03,3.116-3.24,2.469-6.83,6.454-6.19,6.884 .13,.091 1.31,1.032 2.61,2.091 2.17,1.761 2.72,1.895 6.49,1.573 3.94-.337 4.3-.529 8.29-4.453zm-133.09,.86c3.73-1.556 4.79-2.808 6.01-7.059 1.13-3.939 5.63-12.381 6.6-12.381 .3,0 .54-.328 .54-.729 0-.644-3.09-.545-7.53,.239-1.95,.344-7.34,3.867-9.07,5.93-1.98,2.346-4.49,8.611-4.74,11.812-.15,1.905 .08,2.221 1.88,2.621 3.21,.713 3.64,.684 6.31-.433zm110.28-1.511c4.83-5.573 9.9-10.185 12.72-11.575 2.86-1.407 2.91-1.49 1.46-2.265-.82-.443-3.54-.818-6.04-.833-3.56-.023-5.28,.347-7.95,1.715-5.01,2.564-12.93,11.394-11.5,12.822 .88,.879 5.77,2.592 7.57,2.649 .94,.03 2.36-.922 3.74-2.513zm-18.27-.595c.6-.233 2.45-2.307 4.1-4.61 3.49-4.863 8.05-9.404 10.9-10.85l2-1.013-1.61-.861c-1.08-.581-3.22-.739-6.57-.485-4.04,.305-5.52,.757-7.9,2.414-3.79,2.63-6.71,5.813-8.96,9.781-1.44,2.526-1.63,3.32-.93,3.899 2.17,1.803 6.56,2.648 8.97,1.725zm-70.67-2.211c.94-.696 2.48-3.218 3.42-5.631 2.16-5.503 3.56-8.055 5.94-10.888l1.89-2.243-5,.419c-5.25,.441-6.96,1.317-11.58,5.935-2.1,2.101-5.18,7.796-5.94,10.971-.34,1.439-.08,1.868 1.51,2.524 2.54,1.051 7.65,.483 9.76-1.087zm54.17-.896c1.66-.84 3.27-2.466 4.44-4.506 1.02-1.755 3.5-4.961 5.52-7.125 3.26-3.486 3.53-3.994 2.39-4.452-2.67-1.076-9.56-.468-12.64,1.117-3.86,1.984-8.7,6.717-10.8,10.57-1.4,2.558-1.52,3.212-.77,4.121 2.15,2.583 7.08,2.698 11.86,.275zm-37.52,.718c1.06-.484 2.11-1.925 2.85-3.927 1.68-4.509 3.55-7.443 7.3-11.438l3.29-3.495-2.28-.369c-8.45-1.371-16.93,5.011-20.47,15.405-1.02,2.979-1,3.095 .42,3.785 1.98,.958 6.82,.98 8.89,.039zm18.01-1.323c1.57-.548 2.6-1.774 4.29-5.109 1.35-2.65 3.8-5.883 6.18-8.158 3.85-3.675 3.91-3.78 2.24-4.2-2.55-.64-8.65,.155-11.16,1.456-3.51,1.811-8.02,6.345-10.32,10.371-1.17,2.041-2.01,3.805-1.88,3.921 2.56,2.214 7.12,2.95 10.65,1.719z"/>
</svg>
