<svg xmlns="http://www.w3.org/2000/svg" viewBox="0 0 533.3333 533.3333">
<path fill="#f00" stroke="#000" fill-rule="evenodd" stroke-linejoin="round" stroke-width="10" d="m219.2969,360.3933l49.6059,52.6464-27.3179-91.6482 71.5922,22.9126-42.3905-51.5514h79.1281l-73.476-31.5047 64.9982-39.9905-54.7309-16.1249 28.3643-49.3505-44.6977,9.2202 16.4285-62.7037-42.6065,38.8967-10.0151-57.7813-30.2842,51.7854c0-3.5968-17.7757-51.051-18.7176-51.051-.9419,0-18.3217,50.0849-18.3217,50.0849l-31.7171-46.2552-7.9601,54.4162-29.7107-46.5919c0,0-.6497,52.0517-2.5334,52.0517-1.8838,0-44.9906-32.2714-44.9906-32.2714 0,0 10.3435,59.2812 10.3435,60.713 0,1.4318-46.7706-10.326-46.7706-10.326l38.5185,42.761-40.817,19.5128c0,0 34.2138,36.2074 33.2718,37.6392-.942,1.4318-30.2477,37.8243-30.2477,37.8243 0,0 52.2337-1.7913 51.2918-1.7913-.1037,1.199-49.9444,54.5428-49.9444,55.9746 0,1.4318 54.2312-19.0817 54.2312-19.0817l-36.5405,74.5332 60.9283-60.4455-12.8769,65.6032 35.8994-41.1895 1.9969,44.0531 34.864-39.5248 21.8227,54.4235 12.3995-52.723 25.105,26.9048 5.8776-50.0503z"/>
</svg>
