<svg xmlns="http://www.w3.org/2000/svg" viewBox="0 0 539.11 407.8" xmlns:xlink="http://www.w3.org/1999/xlink">
<defs>
<filter width="1.169" x="-.085" y="-.196" height="1.392" id="filter5478">
<feGaussianBlur stdDeviation="1.90375"/>
</filter>
<filter color-interpolation-filters="sRGB" id="filter3646">
<feGaussianBlur stdDeviation="4.37857"/>
</filter>
<filter width="1.038" x="-.019" y="-.327" height="1.654" color-interpolation-filters="sRGB" id="filter3720">
<feGaussianBlur stdDeviation="3.99107"/>
</filter>
<filter width="1.05" x="-.025" y="-.813" height="2.626" color-interpolation-filters="sRGB" id="filter3626">
<feGaussianBlur stdDeviation="5.32143"/>
</filter>
<filter width="1.21" x="-.105" y="-.111" height="1.222" color-interpolation-filters="sRGB" id="filter4642">
<feGaussianBlur stdDeviation=".21279"/>
</filter>
<linearGradient gradientTransform="matrix(1 0 0 1.2128 .17902 -96.247)" id="linearGradient5490" y1="438.84" y2="449.42" gradientUnits="userSpaceOnUse" x2="0">
<stop offset="0" stop-color="#fff"/>
<stop offset="1" stop-color="#fff" stop-opacity="0"/>
</linearGradient>
<linearGradient gradientTransform="matrix(1 0 0 1.031 32.625 -13.189)" id="linearGradient5494" xlink:href="#linearGradient4582" x1="328.85" gradientUnits="userSpaceOnUse" x2="337.53"/>
<linearGradient gradientTransform="matrix(1.0444 0 0 .87843 -108.4 -43.27)" id="linearGradient5408" y1="83.652" y2="492.54" gradientUnits="userSpaceOnUse" x2="0">
<stop offset="0" stop-color="#e6e6e6"/>
<stop offset=".194" stop-color="#efefef"/>
<stop offset="1" stop-color="#fafafa"/>
</linearGradient>
<linearGradient gradientTransform="matrix(1 0 0 1.031 -.125 -13.189)" id="linearGradient5492" xlink:href="#linearGradient4582" x1="328.85" gradientUnits="userSpaceOnUse" x2="337.53"/>
<linearGradient id="linearGradient5270" y1="42.274" y2="39.089" gradientUnits="userSpaceOnUse" x2="0">
<stop offset="0" stop-color="#fff"/>
<stop offset="1" stop-color="#fff" stop-opacity="0"/>
</linearGradient>
<linearGradient id="linearGradient4582">
<stop offset="0" stop-color="#fff"/>
<stop offset="1" stop-color="#fff" stop-opacity="0"/>
</linearGradient>
<linearGradient id="linearGradient5272" y1="37.842" y2="42.466" x1="127.7" gradientUnits="userSpaceOnUse" x2="128.94">
<stop offset="0" stop-color="#fff"/>
<stop offset="1" stop-color="#fff" stop-opacity="0"/>
</linearGradient>
<linearGradient gradientTransform="matrix(.98143 0 0 1.0723 7.8221 23.636)" id="linearGradient5260" y1="23.791" y2="66.299" gradientUnits="userSpaceOnUse" x2="0">
<stop offset="0" stop-color="#808080"/>
<stop offset="1"/>
</linearGradient>
<linearGradient gradientTransform="matrix(.96412 0 0 1.0782 7.3428 -2.1037)" id="linearGradient5268" y1="76.802" x1="155.21" y2="38.423" gradientUnits="userSpaceOnUse" x2="133.05">
<stop offset="0" stop-color="#f9f9f9"/>
<stop offset="1" stop-color="#f9f9f9" stop-opacity="0"/>
</linearGradient>
<linearGradient id="linearGradient5496" y1="445.87" y2="450.64" x1="380.13" gradientUnits="userSpaceOnUse" x2="375.36">
<stop offset="0" stop-color="#fff"/>
<stop offset="1" stop-color="#fff" stop-opacity="0"/>
</linearGradient>
<linearGradient gradientTransform="matrix(.99459 0 0 .83045 1.971 9.0474)" id="linearGradient5262" y1="48.076" y2="65.999" gradientUnits="userSpaceOnUse" x2="0">
<stop offset="0" stop-color="#fff"/>
<stop offset="1" stop-color="#fff" stop-opacity="0"/>
</linearGradient>
</defs>
<g transform="translate(-5.9759 -7.7133)">
<path fill="#333" filter="url(#filter3646)" d="m111.39,59.015h507.14v368.57h-507.14z" transform="matrix(.97377 0 0 .97377 -78.153 -20.306)"/>
<path fill="url(#linearGradient5408)" d="m30.352,30.335h493.84v358.9h-493.84z"/>
<path filter="url(#filter3626)" d="m106.43,73.076h516.43v15.714h-516.43z" transform="matrix(.96863 0 0 1.0749 -77.673 -26.406)"/>
</g>
<g transform="matrix(.97377 0 0 .97377 -84.1289 -28.0193)">
<path fill="url(#linearGradient5260)" d="m100.36,49.148h528.57v33.702h-528.57z"/>
<path fill="url(#linearGradient5262)" d="m101.79,49.862h525.71v27.988h-525.71z"/>
</g>
<g transform="translate(-5.9759 -7.7133)">
<path fill="#333" filter="url(#filter3720)" d="m112.86,399.51h502.86v29.286h-502.86z" transform="matrix(.98443 0 0 .71532 -82.036 86.729)"/>
</g>
<g transform="matrix(.93437 0 0 .49909 -69.4109 340.9067)">
<path fill="url(#linearGradient5260)" d="m100.36,49.148h528.57v33.702h-528.57z"/>
<path fill="url(#linearGradient5262)" d="m101.79,49.862h525.71v27.988h-525.71z"/>
</g>
<g transform="matrix(.97377 0 0 .97377 -62.78805 -28.0193)">
<path fill="#4d4d4d" d="m131.22,34.583h12.467c1.2188,0 2.2,1.0296 2.2,2.3086v12.816h-16.867v-12.816c0-1.2789 .9812-2.3086 2.2-2.3086z"/>
<path fill="url(#linearGradient5268)" d="m129.31,41.278v5.6268c0,1.3142 .9499,2.3765 2.125,2.3765h12.031c1.1751,0 2.125-1.0624 2.125-2.3765v-5.6268c-5.372-.0378-6.1374-3.2331-16.281,0z"/>
</g>
<g transform="matrix(1.49055 0 0 1.49055 -112.03132 -52.63979)">
<path fill="#1a1a1a" d="m130.18,41.231c0,.6799-.5512,1.2311-1.2311,1.2311-.6799,0-1.2311-.5512-1.2311-1.2311 0-.6799 .5512-1.2311 1.2311-1.2311 .6799,0 1.2311,.5512 1.2311,1.2311z" transform="translate(-9.0074 -.17473)"/>
<path fill="url(#linearGradient5270)" d="m119.02,40.862h1.812v.3125h-1.812z"/>
<path fill="url(#linearGradient5272)" d="m130.18,41.231c0,.6799-.5512,1.2311-1.2311,1.2311-.6799,0-1.2311-.5512-1.2311-1.2311 0-.6799 .5512-1.2311 1.2311-1.2311 .6799,0 1.2311,.5512 1.2311,1.2311z" transform="matrix(.92385 0 0 .92385 .81235 2.9338)"/>
</g>
<g transform="matrix(1.49055 0 0 1.49055 -103.41341 -52.63979)">
<path fill="#1a1a1a" d="m130.18,41.231c0,.6799-.5512,1.2311-1.2311,1.2311-.6799,0-1.2311-.5512-1.2311-1.2311 0-.6799 .5512-1.2311 1.2311-1.2311 .6799,0 1.2311,.5512 1.2311,1.2311z" transform="translate(-9.0074 -.17473)"/>
<path fill="url(#linearGradient5270)" d="m119.02,40.862h1.812v.3125h-1.812z"/>
<path fill="url(#linearGradient5272)" d="m130.18,41.231c0,.6799-.5512,1.2311-1.2311,1.2311-.6799,0-1.2311-.5512-1.2311-1.2311 0-.6799 .5512-1.2311 1.2311-1.2311 .6799,0 1.2311,.5512 1.2311,1.2311z" transform="matrix(.92385 0 0 .92385 .81235 2.9338)"/>
</g>
<g transform="matrix(1.49055 0 0 1.49055 -112.03132 -44.8712)">
<path fill="#1a1a1a" d="m130.18,41.231c0,.6799-.5512,1.2311-1.2311,1.2311-.6799,0-1.2311-.5512-1.2311-1.2311 0-.6799 .5512-1.2311 1.2311-1.2311 .6799,0 1.2311,.5512 1.2311,1.2311z" transform="translate(-9.0074 -.17473)"/>
<path fill="url(#linearGradient5270)" d="m119.02,40.862h1.812v.3125h-1.812z"/>
<path fill="url(#linearGradient5272)" d="m130.18,41.231c0,.6799-.5512,1.2311-1.2311,1.2311-.6799,0-1.2311-.5512-1.2311-1.2311 0-.6799 .5512-1.2311 1.2311-1.2311 .6799,0 1.2311,.5512 1.2311,1.2311z" transform="matrix(.92385 0 0 .92385 .81235 2.9338)"/>
</g>
<g transform="matrix(1.49055 0 0 1.49055 -103.41341 -44.8712)">
<path fill="#1a1a1a" d="m130.18,41.231c0,.6799-.5512,1.2311-1.2311,1.2311-.6799,0-1.2311-.5512-1.2311-1.2311 0-.6799 .5512-1.2311 1.2311-1.2311 .6799,0 1.2311,.5512 1.2311,1.2311z" transform="translate(-9.0074 -.17473)"/>
<path fill="url(#linearGradient5270)" d="m119.02,40.862h1.812v.3125h-1.812z"/>
<path fill="url(#linearGradient5272)" d="m130.18,41.231c0,.6799-.5512,1.2311-1.2311,1.2311-.6799,0-1.2311-.5512-1.2311-1.2311 0-.6799 .5512-1.2311 1.2311-1.2311 .6799,0 1.2311,.5512 1.2311,1.2311z" transform="matrix(.92385 0 0 .92385 .81235 2.9338)"/>
</g>
<g transform="matrix(.97377 0 0 .97377 137.09772 -28.0193)">
<path fill="#4d4d4d" d="m131.22,34.583h12.467c1.2188,0 2.2,1.0296 2.2,2.3086v12.816h-16.867v-12.816c0-1.2789 .9812-2.3086 2.2-2.3086z"/>
<path fill="url(#linearGradient5268)" d="m129.31,41.278v5.6268c0,1.3142 .9499,2.3765 2.125,2.3765h12.031c1.1751,0 2.125-1.0624 2.125-2.3765v-5.6268c-5.372-.0378-6.1374-3.2331-16.281,0z"/>
</g>
<g transform="matrix(1.49055 0 0 1.49055 87.85445 -52.63979)">
<path fill="#1a1a1a" d="m130.18,41.231c0,.6799-.5512,1.2311-1.2311,1.2311-.6799,0-1.2311-.5512-1.2311-1.2311 0-.6799 .5512-1.2311 1.2311-1.2311 .6799,0 1.2311,.5512 1.2311,1.2311z" transform="translate(-9.0074 -.17473)"/>
<path fill="url(#linearGradient5270)" d="m119.02,40.862h1.812v.3125h-1.812z"/>
<path fill="url(#linearGradient5272)" d="m130.18,41.231c0,.6799-.5512,1.2311-1.2311,1.2311-.6799,0-1.2311-.5512-1.2311-1.2311 0-.6799 .5512-1.2311 1.2311-1.2311 .6799,0 1.2311,.5512 1.2311,1.2311z" transform="matrix(.92385 0 0 .92385 .81235 2.9338)"/>
</g>
<g transform="matrix(1.49055 0 0 1.49055 96.47236 -52.63979)">
<path fill="#1a1a1a" d="m130.18,41.231c0,.6799-.5512,1.2311-1.2311,1.2311-.6799,0-1.2311-.5512-1.2311-1.2311 0-.6799 .5512-1.2311 1.2311-1.2311 .6799,0 1.2311,.5512 1.2311,1.2311z" transform="translate(-9.0074 -.17473)"/>
<path fill="url(#linearGradient5270)" d="m119.02,40.862h1.812v.3125h-1.812z"/>
<path fill="url(#linearGradient5272)" d="m130.18,41.231c0,.6799-.5512,1.2311-1.2311,1.2311-.6799,0-1.2311-.5512-1.2311-1.2311 0-.6799 .5512-1.2311 1.2311-1.2311 .6799,0 1.2311,.5512 1.2311,1.2311z" transform="matrix(.92385 0 0 .92385 .81235 2.9338)"/>
</g>
<g transform="matrix(1.49055 0 0 1.49055 87.85445 -44.8712)">
<path fill="#1a1a1a" d="m130.18,41.231c0,.6799-.5512,1.2311-1.2311,1.2311-.6799,0-1.2311-.5512-1.2311-1.2311 0-.6799 .5512-1.2311 1.2311-1.2311 .6799,0 1.2311,.5512 1.2311,1.2311z" transform="translate(-9.0074 -.17473)"/>
<path fill="url(#linearGradient5270)" d="m119.02,40.862h1.812v.3125h-1.812z"/>
<path fill="url(#linearGradient5272)" d="m130.18,41.231c0,.6799-.5512,1.2311-1.2311,1.2311-.6799,0-1.2311-.5512-1.2311-1.2311 0-.6799 .5512-1.2311 1.2311-1.2311 .6799,0 1.2311,.5512 1.2311,1.2311z" transform="matrix(.92385 0 0 .92385 .81235 2.9338)"/>
</g>
<g transform="matrix(1.49055 0 0 1.49055 96.47236 -44.8712)">
<path fill="#1a1a1a" d="m130.18,41.231c0,.6799-.5512,1.2311-1.2311,1.2311-.6799,0-1.2311-.5512-1.2311-1.2311 0-.6799 .5512-1.2311 1.2311-1.2311 .6799,0 1.2311,.5512 1.2311,1.2311z" transform="translate(-9.0074 -.17473)"/>
<path fill="url(#linearGradient5270)" d="m119.02,40.862h1.812v.3125h-1.812z"/>
<path fill="url(#linearGradient5272)" d="m130.18,41.231c0,.6799-.5512,1.2311-1.2311,1.2311-.6799,0-1.2311-.5512-1.2311-1.2311 0-.6799 .5512-1.2311 1.2311-1.2311 .6799,0 1.2311,.5512 1.2311,1.2311z" transform="matrix(.92385 0 0 .92385 .81235 2.9338)"/>
</g>
<g transform="matrix(.97377 0 0 .97377 336.99322 -28.0193)">
<path fill="#4d4d4d" d="m131.22,34.583h12.467c1.2188,0 2.2,1.0296 2.2,2.3086v12.816h-16.867v-12.816c0-1.2789 .9812-2.3086 2.2-2.3086z"/>
<path fill="url(#linearGradient5268)" d="m129.31,41.278v5.6268c0,1.3142 .9499,2.3765 2.125,2.3765h12.031c1.1751,0 2.125-1.0624 2.125-2.3765v-5.6268c-5.372-.0378-6.1374-3.2331-16.281,0z"/>
</g>
<g transform="matrix(1.49055 0 0 1.49055 287.74995 -52.63979)">
<path fill="#1a1a1a" d="m130.18,41.231c0,.6799-.5512,1.2311-1.2311,1.2311-.6799,0-1.2311-.5512-1.2311-1.2311 0-.6799 .5512-1.2311 1.2311-1.2311 .6799,0 1.2311,.5512 1.2311,1.2311z" transform="translate(-9.0074 -.17473)"/>
<path fill="url(#linearGradient5270)" d="m119.02,40.862h1.812v.3125h-1.812z"/>
<path fill="url(#linearGradient5272)" d="m130.18,41.231c0,.6799-.5512,1.2311-1.2311,1.2311-.6799,0-1.2311-.5512-1.2311-1.2311 0-.6799 .5512-1.2311 1.2311-1.2311 .6799,0 1.2311,.5512 1.2311,1.2311z" transform="matrix(.92385 0 0 .92385 .81235 2.9338)"/>
</g>
<g transform="matrix(1.49055 0 0 1.49055 296.36786 -52.63979)">
<path fill="#1a1a1a" d="m130.18,41.231c0,.6799-.5512,1.2311-1.2311,1.2311-.6799,0-1.2311-.5512-1.2311-1.2311 0-.6799 .5512-1.2311 1.2311-1.2311 .6799,0 1.2311,.5512 1.2311,1.2311z" transform="translate(-9.0074 -.17473)"/>
<path fill="url(#linearGradient5270)" d="m119.02,40.862h1.812v.3125h-1.812z"/>
<path fill="url(#linearGradient5272)" d="m130.18,41.231c0,.6799-.5512,1.2311-1.2311,1.2311-.6799,0-1.2311-.5512-1.2311-1.2311 0-.6799 .5512-1.2311 1.2311-1.2311 .6799,0 1.2311,.5512 1.2311,1.2311z" transform="matrix(.92385 0 0 .92385 .81235 2.9338)"/>
</g>
<g transform="matrix(1.49055 0 0 1.49055 287.74995 -44.8712)">
<path fill="#1a1a1a" d="m130.18,41.231c0,.6799-.5512,1.2311-1.2311,1.2311-.6799,0-1.2311-.5512-1.2311-1.2311 0-.6799 .5512-1.2311 1.2311-1.2311 .6799,0 1.2311,.5512 1.2311,1.2311z" transform="translate(-9.0074 -.17473)"/>
<path fill="url(#linearGradient5270)" d="m119.02,40.862h1.812v.3125h-1.812z"/>
<path fill="url(#linearGradient5272)" d="m130.18,41.231c0,.6799-.5512,1.2311-1.2311,1.2311-.6799,0-1.2311-.5512-1.2311-1.2311 0-.6799 .5512-1.2311 1.2311-1.2311 .6799,0 1.2311,.5512 1.2311,1.2311z" transform="matrix(.92385 0 0 .92385 .81235 2.9338)"/>
</g>
<g transform="matrix(1.49055 0 0 1.49055 296.36786 -44.8712)">
<path fill="#1a1a1a" d="m130.18,41.231c0,.6799-.5512,1.2311-1.2311,1.2311-.6799,0-1.2311-.5512-1.2311-1.2311 0-.6799 .5512-1.2311 1.2311-1.2311 .6799,0 1.2311,.5512 1.2311,1.2311z" transform="translate(-9.0074 -.17473)"/>
<path fill="url(#linearGradient5270)" d="m119.02,40.862h1.812v.3125h-1.812z"/>
<path fill="url(#linearGradient5272)" d="m130.18,41.231c0,.6799-.5512,1.2311-1.2311,1.2311-.6799,0-1.2311-.5512-1.2311-1.2311 0-.6799 .5512-1.2311 1.2311-1.2311 .6799,0 1.2311,.5512 1.2311,1.2311z" transform="matrix(.92385 0 0 .92385 .81235 2.9338)"/>
</g>
<g transform="translate(-5.9759 -7.7133)">
<path opacity=".911" stroke-opacity=".961" fill="#1a1a1a" filter="url(#filter5478)" stroke="#333" d="m335.61,430.33v15.176h-5.1022c-1.1596,0-2.0932,.9336-2.0932,2.0932v3.9247c0,1.1596 .9336,2.0932 2.0932,2.0932h49.713c1.1596,0 2.0932-.9336 2.0932-2.0932v-3.9247c0-1.1596-.9336-2.0932-2.0932-2.0932h-5.1022v-15.176h-6.8029v15.176h-25.903v-15.176h-6.8029z" transform="matrix(.89309 0 0 .95868 -39.098 -24.032)"/>
</g>
<g transform="matrix(.83436 0 0 .83436 -23.9529 22.3867)">
<path fill="#1a1a1a" d="m334.11,429.45v15.176h-5.1022c-1.1596,0-2.0932,.9336-2.0932,2.0932v3.9247c0,1.1596 .9336,2.0932 2.0932,2.0932h49.713c1.1596,0 2.0932-.9336 2.0932-2.0932v-3.9247c0-1.1596-.9336-2.0932-2.0932-2.0932h-5.1022v-15.176h-6.8029v15.176h-25.903v-15.176h-6.8029z"/>
<path fill="url(#linearGradient5490)" d="m328.925,445.24h49.875a1.125,1.3644 0 0,1 1.125,1.364v4.397a1.125,1.3644 0 0,1 -1.125,1.364h-49.875a1.125,1.3644 0 0,1 -1.125-1.364v-4.397a1.125,1.3644 0 0,1 1.125-1.364"/>
<path fill="url(#linearGradient5492)" d="m334.5,429.99h5.75v14.562h-5.75z"/>
<path fill="url(#linearGradient5494)" d="m367.25,429.99h5.75v14.562h-5.75z"/>
<path fill="url(#linearGradient5496)" filter="url(#filter4642)" d="m379.72,447.79c0,1.2692-1.0882,2.2981-2.4307,2.2981-1.3424,0-2.4307-1.0289-2.4307-2.2981s1.0882-2.2981 2.4307-2.2981c1.3424,0 2.4307,1.0289 2.4307,2.2981z" transform="matrix(.91841 0 0 .91841 31.537 36.014)"/>
</g>
</svg>
