<?xml version="1.0" encoding="UTF-8" standalone="no"?>
<!-- Created with Serif DrawPlus 11, 0, 0, 18 (Mar 20, 15:09:53) (http://www.serif.com) -->
<svg version="1.1" xmlns="http://www.w3.org/2000/svg" xmlns:xlink="http://www.w3.org/1999/xlink" width="816" height="1056">
	<defs>
		<linearGradient id="grad_dp_001" gradientUnits="userSpaceOnUse" x1="645.692" y1="847.756" x2="365.249" y2="490.457">
			<stop offset="0" stop-color="black" stop-opacity="0.615686"/>
			<stop offset="1" stop-color="black"/>
		</linearGradient>
		<linearGradient id="grad_dp_002" gradientUnits="userSpaceOnUse" x1="775.807" y1="1013.22" x2="67.6053" y2="102.027">
			<stop offset="0" stop-color="#777777"/>
			<stop offset="1" stop-color="white"/>
		</linearGradient>
		<clipPath id="clip_dp_001" clipPathUnits="userSpaceOnUse">
			<path d="M 147.904,31.6427 C 141.104,30.8267 32.3693,129.325 6.25733,170.124 L 7.75333,242.136 L 279.492,321.957 L 248.577,33.5933 L 147.903,31.592 Z "/>
		</clipPath>
		<linearGradient id="grad_dp_003" gradientUnits="userSpaceOnUse" x1="69.04" y1="113.276" x2="182.052" y2="219.759">
			<stop offset="0" stop-color="black" stop-opacity="0.937255"/>
			<stop offset="1" stop-color="black" stop-opacity="0.215686"/>
		</linearGradient>
		<linearGradient id="grad_dp_004" gradientUnits="userSpaceOnUse" x1="68.6027" y1="98.2613" x2="148.431" y2="174.824">
			<stop offset="0" stop-color="white"/>
			<stop offset="0.386" stop-color="#989898"/>
			<stop offset="1" stop-color="white"/>
		</linearGradient>
	</defs>
	<g id="Layer_1">
		<g id="dp_group001">
			<path id="dp_path002" fill="url(#grad_dp_001)" fill-rule="evenodd" d="M 213.104,47.7667 C 149.839,237.253 218.643,700.132 142.963,919.233 C 138.275,932.805 38.5507,951.567 34.6307,963.081 L 31.556,1014.95 C 79.2547,994.948 789.348,1017.92 789.348,1017.92 S 739.255,140.088 771.567,49.3053 L 213.108,47.7667 Z "/>
			<path id="dp_path003" fill="url(#grad_dp_002)" fill-rule="evenodd" stroke="black" stroke-width="1.088" d="M 147.801,31.708 C 136.649,36.876 36.184,123.951 6.264,170.189 L 6.264,1001.97 L 764.056,991.085 L 740.12,31.708 Z M 46.176,484.664 C 54.3147,484.664 60.8973,491.281 60.8973,499.42 C 60.8973,507.559 54.3147,514.176 46.176,514.176 C 38.0373,514.176 31.42,507.559 31.42,499.42 C 31.42,491.281 38.0373,484.664 46.176,484.664 Z M 42.028,875.768 C 50.1667,875.768 56.784,882.385 56.784,890.524 C 56.784,898.663 50.1667,905.279 42.028,905.279 C 33.8893,905.279 27.272,898.661 27.272,890.524 C 27.272,882.384 33.8893,875.768 42.028,875.768 Z "/>
			<g id="dp_group004">
				<path id="dp_path005" fill="none" fill-rule="evenodd" stroke="#ff4b4a" stroke-opacity="0.596078" stroke-width="2.38" d="M 656.007,992.108 L 642.189,32.3067"/>
				<path id="dp_path006" fill="none" fill-rule="evenodd" stroke="#005db1" stroke-width="2.52533" d="M 743.449,145.1 L 20.06,157.101 Z M 743.245,177.707 L 5.64667,189.708 Z M 744.605,210.347 L 7.00667,222.315 Z M 745.285,242.952 L 6.40267,254.955 Z M 746.543,275.592 L 6.60533,287.56 Z M 747.189,308.199 L 5.89067,320.2 Z M 747.597,340.839 L 6.02667,352.807 Z M 749.127,373.445 L 5.92533,385.447 Z M 749.331,406.085 L 6.70533,418.053 Z M 750.623,438.691 L 6.63733,450.693 Z M 751.507,471.331 L 5.78133,483.299 Z M 751.745,503.937 L 5.856,515.905 Z M 752.799,536.577 L 6.60533,548.545 Z M 753.683,569.184 L 6.532,581.152 Z M 754.329,601.824 L 6.36133,613.792 Z M 754.601,634.429 L 6.42667,646.397 Z M 756.063,667.069 L 6.56133,679.037 Z M 757.355,699.676 L 5.612,711.644 Z M 757.423,732.316 L 6.70267,744.284 Z M 758.545,764.923 L 6.46533,776.891 Z M 759.599,797.563 L 6.60533,809.531 Z M 759.633,830.169 L 6.83467,842.137 Z M 760.755,862.809 L 5.78133,874.743 Z M 762.319,895.415 L 6.12667,907.383 Z M 762.931,928.055 L 5.68267,939.989 Z M 762.965,960.661 L 6.228,972.629 Z "/>
				<path id="dp_path007" fill="none" fill-rule="evenodd" stroke="#ff4b4a" stroke-width="2.36667" d="M 111.164,999.941 L 109.436,63.3907"/>
			</g>
		</g>
		<g id="dp_group008">
			<g id="dp_group009">
				<path id="dp_path010" clip-path="url(#clip_dp_001)" fill="url(#grad_dp_003)" fill-rule="evenodd" d="M 153.225,31.556 L 148.077,31.904 C 135.683,32.7413 37.4613,127.157 6.464,169.797 C 4.136,172.997 7.45867,177.277 6.148,176.023 C 5.708,175.603 14.3253,166.313 24.1,163.171 C 35.5693,159.484 77.3147,165.125 145.38,189.283 C 128.311,122.228 129.593,79.928 134.228,59.5387 C 136.64,48.8973 153.229,31.5547 153.229,31.5547 Z M 46.84,146.373 C 60.4,146.691 79.8493,159.868 51.464,162.863 C 44.268,163.185 37.3227,162.197 36.6053,154.703 C 37.052,148.463 41.5333,146.248 46.84,146.372 Z "/>
			</g>
			<path id="dp_path011" fill="url(#grad_dp_004)" fill-rule="evenodd" stroke="black" stroke-width="1.088" d="M 147.9,31.6427 C 141.1,30.8267 32.3653,129.325 6.25333,170.124 C 6.25333,170.124 14.168,159.749 23.7973,156.184 C 42.2013,149.369 76.876,150.116 144.935,174.272 C 127.867,107.217 124.34,61.7293 136.231,44.528 C 142.456,35.5213 147.893,31.6427 147.893,31.6427 Z M 46.4093,131.365 C 59.9693,131.683 79.012,147.309 50.6253,150.303 C 43.4307,150.625 36.8933,147.189 36.176,139.695 C 36.6227,133.455 41.104,131.24 46.4107,131.364 Z "/>
		</g>
	</g>
</svg>