<svg xmlns="http://www.w3.org/2000/svg" viewBox="0 0 765 990">
<defs>
<filter color-interpolation-filters="sRGB" id="filter12589">
<feGaussianBlur stdDeviation="2.67172"/>
</filter>
</defs>
<g transform="matrix(.6692 -.12276 .12097 .65943 1.1749 51.118)">
<g stroke="#979797">
<path opacity=".593" fill="#b3b3b3" filter="url(#filter12589)" stroke-width=".802" d="m-225.07,373.65v219.1h157.99c6.2199,0 11.207-4.9062 11.207-10.996v-197.1c0-6.0903-4.9876-10.996-11.207-10.996h-157.99z" transform="matrix(4.4253 0 0 4.4253 998.89 -1567.4)"/>
<path fill="#fff" stroke-width="3.55" d="m11.084,72.444v969.55h699.16c27.525,0 49.597-21.711 49.597-48.663v-872.23c0-26.952-22.072-48.663-49.597-48.663h-699.16z"/>
</g>
<g fill="#00f" stroke="#01f" stroke-width="1.669">
<path color="#000" d="m10.143,182.56h750.64"/>
<path d="m10.143,229.33h750.64"/>
<path d="m10.143,277.12h750.64"/>
<path d="m10.143,324.91h750.64"/>
<path d="m10.143,372.7h750.64"/>
<path d="m10.143,420.49h750.64"/>
<path d="m10.143,468.28h750.64"/>
<path d="m10.143,516.07h750.64"/>
<path d="m10.143,563.86h750.64"/>
<path d="m10.143,611.65h750.64"/>
<path d="m10.143,659.45h750.64"/>
<path d="m10.143,707.24h750.64"/>
<path d="m10.143,755.03h750.64"/>
<path d="m10.143,802.82h750.64"/>
<path d="m10.143,850.61h750.64"/>
<path d="m10.143,898.4h750.64"/>
<path d="m10.143,946.19h750.64"/>
<path d="m10.143,993.98h750.64"/>
</g>
<g color="#000">
<path fill="#acacac" stroke="#030000" fill-opacity=".325" stroke-width=".802" d="m40.439,471.52c0,15.566-9.6011,28.184-21.445,28.184s-21.445-12.619-21.445-28.184c0-15.566 9.6011-28.184 21.445-28.184s21.445,12.619 21.445,28.184z" transform="matrix(-.60548 0 0 -.46126 65.669 808.19)"/>
<path fill="#00f" stroke="#f00" stroke-width="1.689" d="m106.09,71.503v968.48"/>
<g stroke="#030000" stroke-width=".802">
<path fill="#acacac" fill-opacity=".325" d="m40.439,471.52c0,15.566-9.6011,28.184-21.445,28.184s-21.445-12.619-21.445-28.184c0-15.566 9.6011-28.184 21.445-28.184s21.445,12.619 21.445,28.184z" transform="matrix(-.60548 0 0 -.46126 65.669 466.26)"/>
<path fill="#e4e4e4" d="m40.439,471.52c0,15.566-9.6011,28.184-21.445,28.184s-21.445-12.619-21.445-28.184c0-15.566 9.6011-28.184 21.445-28.184s21.445,12.619 21.445,28.184z" transform="matrix(-.60548 0 0 -.46126 65.669 1189.4)"/>
</g>
</g>
</g>
<g transform="matrix(.67832 -.05275 .05198 .66841 114.16 88.558)">
<g stroke="#979797">
<path opacity=".593" fill="#b3b3b3" filter="url(#filter12589)" stroke-width=".802" d="m-225.07,373.65v219.1h157.99c6.2199,0 11.207-4.9062 11.207-10.996v-197.1c0-6.0903-4.9876-10.996-11.207-10.996h-157.99z" transform="matrix(4.4253 0 0 4.4253 998.89 -1567.4)"/>
<path fill="#fff" stroke-width="3.55" d="m11.084,72.444v969.55h699.16c27.525,0 49.597-21.711 49.597-48.663v-872.23c0-26.952-22.072-48.663-49.597-48.663h-699.16z"/>
</g>
<g fill="#00f" stroke="#01f" stroke-width="1.669">
<path color="#000" d="m10.143,182.56h750.64"/>
<path d="m10.143,229.33h750.64"/>
<path d="m10.143,277.12h750.64"/>
<path d="m10.143,324.91h750.64"/>
<path d="m10.143,372.7h750.64"/>
<path d="m10.143,420.49h750.64"/>
<path d="m10.143,468.28h750.64"/>
<path d="m10.143,516.07h750.64"/>
<path d="m10.143,563.86h750.64"/>
<path d="m10.143,611.65h750.64"/>
<path d="m10.143,659.45h750.64"/>
<path d="m10.143,707.24h750.64"/>
<path d="m10.143,755.03h750.64"/>
<path d="m10.143,802.82h750.64"/>
<path d="m10.143,850.61h750.64"/>
<path d="m10.143,898.4h750.64"/>
<path d="m10.143,946.19h750.64"/>
<path d="m10.143,993.98h750.64"/>
</g>
<g color="#000">
<path fill="#acacac" stroke="#030000" fill-opacity=".325" stroke-width=".802" d="m40.439,471.52c0,15.566-9.6011,28.184-21.445,28.184s-21.445-12.619-21.445-28.184c0-15.566 9.6011-28.184 21.445-28.184s21.445,12.619 21.445,28.184z" transform="matrix(-.60548 0 0 -.46126 65.669 808.19)"/>
<path fill="#00f" stroke="#f00" stroke-width="1.689" d="m106.09,71.503v968.48"/>
<g stroke="#030000" stroke-width=".802">
<path fill="#acacac" fill-opacity=".325" d="m40.439,471.52c0,15.566-9.6011,28.184-21.445,28.184s-21.445-12.619-21.445-28.184c0-15.566 9.6011-28.184 21.445-28.184s21.445,12.619 21.445,28.184z" transform="matrix(-.60548 0 0 -.46126 65.669 466.26)"/>
<path fill="#e4e4e4" d="m40.439,471.52c0,15.566-9.6011,28.184-21.445,28.184s-21.445-12.619-21.445-28.184c0-15.566 9.6011-28.184 21.445-28.184s21.445,12.619 21.445,28.184z" transform="matrix(-.60548 0 0 -.46126 65.669 1189.4)"/>
</g>
</g>
</g>
<g transform="matrix(.6692 -.12276 .12097 .65943 77.946 216.778)">
<g stroke="#979797">
<path opacity=".593" fill="#b3b3b3" filter="url(#filter12589)" stroke-width=".802" d="m-225.07,373.65v219.1h157.99c6.2199,0 11.207-4.9062 11.207-10.996v-197.1c0-6.0903-4.9876-10.996-11.207-10.996h-157.99z" transform="matrix(4.4253 0 0 4.4253 998.89 -1567.4)"/>
<path fill="#fff" stroke-width="3.55" d="m11.084,72.444v969.55h699.16c27.525,0 49.597-21.711 49.597-48.663v-872.23c0-26.952-22.072-48.663-49.597-48.663h-699.16z"/>
</g>
<g fill="#00f" stroke="#01f" stroke-width="1.669">
<path color="#000" d="m10.143,182.56h750.64"/>
<path d="m10.143,229.33h750.64"/>
<path d="m10.143,277.12h750.64"/>
<path d="m10.143,324.91h750.64"/>
<path d="m10.143,372.7h750.64"/>
<path d="m10.143,420.49h750.64"/>
<path d="m10.143,468.28h750.64"/>
<path d="m10.143,516.07h750.64"/>
<path d="m10.143,563.86h750.64"/>
<path d="m10.143,611.65h750.64"/>
<path d="m10.143,659.45h750.64"/>
<path d="m10.143,707.24h750.64"/>
<path d="m10.143,755.03h750.64"/>
<path d="m10.143,802.82h750.64"/>
<path d="m10.143,850.61h750.64"/>
<path d="m10.143,898.4h750.64"/>
<path d="m10.143,946.19h750.64"/>
<path d="m10.143,993.98h750.64"/>
</g>
<g color="#000">
<path fill="#acacac" stroke="#030000" fill-opacity=".325" stroke-width=".802" d="m40.439,471.52c0,15.566-9.6011,28.184-21.445,28.184s-21.445-12.619-21.445-28.184c0-15.566 9.6011-28.184 21.445-28.184s21.445,12.619 21.445,28.184z" transform="matrix(-.60548 0 0 -.46126 65.669 808.19)"/>
<path fill="#00f" stroke="#f00" stroke-width="1.689" d="m106.09,71.503v968.48"/>
<g stroke="#030000" stroke-width=".802">
<path fill="#acacac" fill-opacity=".325" d="m40.439,471.52c0,15.566-9.6011,28.184-21.445,28.184s-21.445-12.619-21.445-28.184c0-15.566 9.6011-28.184 21.445-28.184s21.445,12.619 21.445,28.184z" transform="matrix(-.60548 0 0 -.46126 65.669 466.26)"/>
<path fill="#e4e4e4" d="m40.439,471.52c0,15.566-9.6011,28.184-21.445,28.184s-21.445-12.619-21.445-28.184c0-15.566 9.6011-28.184 21.445-28.184s21.445,12.619 21.445,28.184z" transform="matrix(-.60548 0 0 -.46126 65.669 1189.4)"/>
</g>
</g>
</g>
<g transform="matrix(.67956 .03312 -.03263 .66964 210.64 94.008)">
<g stroke="#979797">
<path opacity=".593" fill="#b3b3b3" filter="url(#filter12589)" stroke-width=".802" d="m-225.07,373.65v219.1h157.99c6.2199,0 11.207-4.9062 11.207-10.996v-197.1c0-6.0903-4.9876-10.996-11.207-10.996h-157.99z" transform="matrix(4.4253 0 0 4.4253 998.89 -1567.4)"/>
<path fill="#fff" stroke-width="3.55" d="m11.084,72.444v969.55h699.16c27.525,0 49.597-21.711 49.597-48.663v-872.23c0-26.952-22.072-48.663-49.597-48.663h-699.16z"/>
</g>
<g fill="#00f" stroke="#01f" stroke-width="1.669">
<path color="#000" d="m10.143,182.56h750.64"/>
<path d="m10.143,229.33h750.64"/>
<path d="m10.143,277.12h750.64"/>
<path d="m10.143,324.91h750.64"/>
<path d="m10.143,372.7h750.64"/>
<path d="m10.143,420.49h750.64"/>
<path d="m10.143,468.28h750.64"/>
<path d="m10.143,516.07h750.64"/>
<path d="m10.143,563.86h750.64"/>
<path d="m10.143,611.65h750.64"/>
<path d="m10.143,659.45h750.64"/>
<path d="m10.143,707.24h750.64"/>
<path d="m10.143,755.03h750.64"/>
<path d="m10.143,802.82h750.64"/>
<path d="m10.143,850.61h750.64"/>
<path d="m10.143,898.4h750.64"/>
<path d="m10.143,946.19h750.64"/>
<path d="m10.143,993.98h750.64"/>
</g>
<g color="#000">
<path fill="#acacac" stroke="#030000" fill-opacity=".325" stroke-width=".802" d="m40.439,471.52c0,15.566-9.6011,28.184-21.445,28.184s-21.445-12.619-21.445-28.184c0-15.566 9.6011-28.184 21.445-28.184s21.445,12.619 21.445,28.184z" transform="matrix(-.60548 0 0 -.46126 65.669 808.19)"/>
<path fill="#00f" stroke="#f00" stroke-width="1.689" d="m106.09,71.503v968.48"/>
<g stroke="#030000" stroke-width=".802">
<path fill="#acacac" fill-opacity=".325" d="m40.439,471.52c0,15.566-9.6011,28.184-21.445,28.184s-21.445-12.619-21.445-28.184c0-15.566 9.6011-28.184 21.445-28.184s21.445,12.619 21.445,28.184z" transform="matrix(-.60548 0 0 -.46126 65.669 466.26)"/>
<path fill="#e4e4e4" d="m40.439,471.52c0,15.566-9.6011,28.184-21.445,28.184s-21.445-12.619-21.445-28.184c0-15.566 9.6011-28.184 21.445-28.184s21.445,12.619 21.445,28.184z" transform="matrix(-.60548 0 0 -.46126 65.669 1189.4)"/>
</g>
</g>
</g>
</svg>
