<svg width="893.41" xmlns="http://www.w3.org/2000/svg" viewBox="0 0 893.41 613.58" height="613.58">
<g transform="translate(54.52 7.2812)">
<path stroke="#000" d="m98.316,266.56 51.859-12.965-91.834-108.04 128.57,27.01v-22.688l47.537,20.528-1.0804-89.673 66.985,59.422 34.573-129.65 43.216,139.37 25.93-71.306 22.688,62.663 44.296-148.01 18.367,137.21 47.537-31.332 3.2412,54.02 66.985-60.502v75.628l142.61-78.869-84.271,116.68 51.859-2.1608-21.608,58.341 142.61,24.849-152.34,44.296 49.698,50.779-69.145,23.769s61.583,115.6 57.261,115.6c-4.3216,0-91.834-42.135-91.834-42.135l22.688,126.41-88.593-126.41-9.7236,52.939-45.377-46.457-10.804,92.914-46.457-83.191-23.769,32.412-28.09-39.975-62.663,82.11-10.804-73.467-81.03,27.01 5.402-60.502s-101.56,92.914-100.48,86.432c1.0804-6.4824 27.01-132.89 27.01-132.89l-81.044,20.51s62.663-70.226 57.261-72.387c-5.402-2.1608-209.6-22.688-209.6-22.688s199.87-45.377 195.55-47.537c-4.3216-2.1608-46.457-25.93-43.216-28.09z"/>
</g>
<path fill="none" stroke="#000" d="m802.9381,155.566-257.2795,93.2991" transform="translate(0 -.00002)"/>
</svg>
