<svg xmlns="http://www.w3.org/2000/svg" viewBox="0 0 420 420" xmlns:xlink="http://www.w3.org/1999/xlink" enable-background="new 0 0 420 420">
<path fill-rule="evenodd" d="m182.89,11.552c-.754,.006-.481,1.034-1.517,.758-.168-.337-.332-.677-.758-.758-.06-1.857 2.35-1.857 2.28,0zm18.96-1.138c-.229-.218-1.798-.887-1.896,0-1.95,1.849 2.91,3.051 1.9,0zm18.96,0c-.229-.218-1.798-.887-1.895,0-1.96,1.849 2.9,3.051 1.89,0zm16.68,1.138c.425,.081 .59,.421 .758,.758 1.034,.276 .763-.752 1.516-.758 .06-1.857-2.35-1.857-2.28,0zm-75.45-.758v.758c.231,.021 .448,.058 .379,.379h.758c.022-.23 .058-.447 .38-.379v-.758c-.231-.021-.449-.057-.38-.38h-.758c-.02,.232-.06,.449-.38,.38zm94.78,0v.758c.231,.021 .448,.058 .379,.379h.758c.022-.23 .058-.447 .379-.379v-.758c-.23-.021-.448-.057-.379-.38h-.758c-.02,.232-.05,.449-.38,.38zm-62.93,9.478c-.235-1.916-1.841-2.859-3.79-1.896-5.52,2.726 4.59,8.433 3.79,1.896zm18.95-1.136c-.54-.866-2.954-1.826-4.169-.76-5.14,3.947 5.97,8.217 4.17,.76zm18.96,1.136c-.223-1.944-1.713-2.506-3.412-1.896-6.18,2.221 4.18,8.624 3.41,1.896zm-57.25,.379c0-2.062-1.449-2.562-3.032-1.896-4.76,2.002 3.03,7.121 3.03,1.896zm71.28,.38c.539,.724 1.171,1.356 1.895,1.896 1.546-.224 2.432-1.109 2.655-2.654-.91-2.402-4.35-2.204-4.55,.758zm-94.03,.379c.426,.079 .59,.421 .758,.758 1.547,.156 2.393-.388 2.275-1.896-.41-1.834-3.75-1.349-3.04,1.138zm116.4-1.516c-.229-.219-1.799-.889-1.896,0-1.95,1.848 2.91,3.05 1.9,0zm-133.08,1.516v-1.517h-1.518c-.29,1.306 .21,1.811 1.52,1.517zm150.14-1.138v.759c.232,.021 .449,.056 .381,.379h.758c.021-.231 .057-.449 .379-.379v-.759c-.23-.021-.448-.057-.379-.379h-.758c-.02,.232-.06,.45-.38,.379zm-89.1,7.962c-2.798,9.444 11.383,7.669 9.101,0-.7-2.352-3.573-3.335-6.445-2.274-1.37,.502-2.4,1.399-2.66,2.274zm18.96,1.138c-1.18,9.757 14.875,4.26 7.961-2.654-.777-.777-2.588-1.476-4.929-.758-3.06,.937-2.93,2.556-3.03,3.412zm-29.2,2.654c1.357-4.043-2.307-7.264-6.065-5.688-8.07,3.386 3.72,12.663 6.06,5.688zm48.54-.757c.959,4.915 9.556,3.942 8.341-2.276-.379-1.938-1.924-3.946-5.688-2.653-2.13,.731-3.29,1.699-2.65,4.929zm-74.7,1.136c.938,1.328 4.369,1.594 5.686,.379 .933-.961 .988-3.526 .381-4.929-2.82-3.016-8.51,.041-6.07,4.55zm101.24-2.654c-.171-2.063-1.331-3.809-4.55-2.653-7.83,2.805 5.27,11.347 4.55,2.653zm-119.06,2.275c1.1,.49 2.691,.49 3.791,0 .492-1.101 .492-2.69 0-3.792-2.78-1.569-5.35,1.005-3.79,3.792zm136.87-1.896c0-2.063-1.447-2.561-3.032-1.896-4.76,2 3.03,7.121 3.03,1.896zm-152.79-.758c-.229-.219-1.798-.888-1.895,0-1.94,1.85 2.91,3.05 1.9,0zm170.62,0c-.229-.219-1.798-.888-1.896,0-1.95,1.85 2.9,3.05 1.9,0zm-130.05,8.721c-1.021,5.439 5.73,9.813 9.857,5.688 7.41-7.419-8.16-14.743-9.86-5.688zm75.83,1.516c0,7.894 11.771,7.192 11.373-.38-.17-3.271-2.338-5.831-6.824-4.929-3.05,.614-4.55,2.273-4.55,5.309zm-94.03,0c0,7.12 10.244,6.159 9.857-.38-.17-2.886-1.938-5.12-6.066-4.17-2.73,.629-3.79,2.055-3.79,4.55zm114.12-.758c-1.18,9.756 14.875,4.259 7.961-2.654-.777-.777-2.587-1.475-4.929-.758-3.06,.937-2.92,2.556-3.03,3.412zm-124.74,.378c-.171-2.062-1.331-3.808-4.55-2.654-7.82,2.807 5.28,11.35 4.55,2.654zm145.22,1.896c2.885,4.548 9.097-1.664 4.55-4.55-.906,.232-2.751-.475-3.034,.379-1.45,.448-1.73,2.069-1.52,4.171zm-166.07-3.032c-2.189-1.305-4.338,.845-3.033,3.032 2.19,1.305 4.34-.844 3.03-3.032zm186.92,3.032c1.008-.004 2.167,.144 2.655-.379v-2.274c-1.89-1.578-4.24,.774-2.66,2.653zm-208.15-1.896v.759c.23,.021 .448,.056 .379,.379h.758c.022-.231 .058-.449 .381-.379v-.759c-.232-.021-.449-.057-.381-.379h-.758c-.021,.232-.056,.45-.379,.379zm227.49,0v.759c.23,.021 .449,.056 .379,.379h.758c.021-.231 .057-.449 .38-.379v-.759c-.231-.021-.449-.057-.38-.379h-.758c-.03,.232-.06,.45-.38,.379zm-46.64,4.172c-4.059,0-7.907,6.119-4.171,9.856 7.69,7.687 15.11-9.856 4.17-9.856zm-154.31,9.478c6.486,4.336 10.166-8.872 2.274-7.962-4.33,.5-5.42,5.857-2.27,7.962zm170.23-.758c6.045,6.046 10.67-8.63 2.274-6.825-3.22,.696-4.67,4.423-2.27,6.825zm-188.43-1.138c1.1,.49 2.689,.49 3.791,0 .491-1.101 .491-2.69 0-3.792-2.79-1.569-5.36,1.005-3.79,3.792zm212.7-1.896c0-2.063-1.449-2.561-3.034-1.896-4.76,2.001 3.03,7.121 3.03,1.896zm-229,.76v-1.518h-1.517c-.295,1.307 .211,1.812 1.517,1.518zm246.44,0v-1.518h-1.517c-.29,1.307 .21,1.812 1.52,1.518zm-223.69,7.203c-2.081,9.391 11.596,7.809 9.857,0-.669-3.007-3.255-3.943-6.445-3.033-2.25,.638-3.24,2.19-3.42,3.033zm189.95-.379c-2.798,9.443 11.383,7.668 9.099,0-.699-2.352-3.571-3.335-6.445-2.275-1.36,.501-2.39,1.4-2.65,2.275zm-200.95,1.517c-.147-1.472-1.128-2.719-3.412-2.276-8.121,1.579 4.203,10.148 3.412,2.276zm227.11,0c-.223-1.945-1.713-2.505-3.412-1.896-6.19,2.219 4.18,8.622 3.41,1.896zm-250.24,.757c.426,.081 .591,.421 .759,.758 1.034,.276 .764-.753 1.518-.758 .069-1.856-2.348-1.856-2.277,0zm267.3,.379v-1.517h-1.517c-.29,1.306 .21,1.811 1.52,1.517zm-243.03,6.824c-2.711,10.676 12.781,8.524 10.616,0-.742-2.923-3.904-4.062-7.203-3.032-2.02,.627-3.16,2.002-3.42,3.032zm208.53,1.896c0,7.17 10.973,6.703 10.616-.379-.142-2.825-2.175-5.168-6.066-4.549-2.95,.469-4.55,2.014-4.55,4.928zm-225.22,1.518c4.834,6.298 9.443-6.656 1.518-4.171-1.449,.448-1.724,2.069-1.518,4.171zm247.2,.378c2.497,2.211 6.461-.468 4.55-3.792-2.5-2.21-6.47,.469-4.55,3.792zm-264.27-1.515c.426,.079 .59,.42 .758,.758 1.035,.275 .763-.754 1.517-.758 .07-1.859-2.346-1.859-2.275,0zm286.26,.379v-1.518h-1.516c-.29,1.307 .21,1.812 1.52,1.518zm-31.09,14.028c9.35,2.388 9.484-13.254 0-10.237-4.84,1.538-4.38,9.119 0,10.237zm-242.28-2.655c2.298-1.924 .426-6.242-2.654-5.688-6.698,1.207-.791,8.571 2.654,5.688zm261.62,0c4.322,1.312 5.148-3.498 3.032-5.307-4.33-1.312-5.15,3.498-3.03,5.307zm-283.98-2.275c.426,.081 .59,.421 .76,.759 1.033,.276 .763-.754 1.516-.759 .07-1.856-2.348-1.856-2.276,0zm305.22,.379v-1.516h-1.517c-.29,1.305 .21,1.81 1.52,1.516zm-34.51,6.825c-2.711,10.675 12.781,8.523 10.617,0-.743-2.924-3.904-4.062-7.204-3.033-2.02,.627-3.15,2.002-3.42,3.033zm-263.12,3.034c1.61,5.023 9.756-.494 4.549-4.171-3.838-.742-5.278,1.902-4.549,4.171zm290.04-1.518c-.236-1.915-1.842-2.859-3.792-1.896-5.51,2.727 4.6,8.434 3.79,1.896zm-305.21,1.139v-1.518h-1.517c-.293,1.307 .212,1.812 1.517,1.518zm320.76-1.139v.76c.23,.021 .449,.056 .379,.379h.758c.022-.232 .058-.449 .381-.379v-.76c-.232-.021-.449-.056-.381-.379h-.758c-.02,.233-.06,.449-.38,.379zm-32.99,9.48c-.46,8.69 11.374,6.813 10.616-.379-.312-2.966-2.365-5.387-6.824-4.171-2.78,.758-3.69,2.588-3.8,4.55zm-276.39-1.138c-.542-.865-2.956-1.824-4.171-.758-5.142,3.945 5.97,8.214 4.171,.758zm298.38,1.138c-.97,7.31 10.284-2.735 1.139-1.517-1.03,.701-1.01,.527-1.14,1.517zm-320.75,0v.758c.232,.022 .449,.058 .379,.38h.76c.021-.231 .056-.449 .379-.38v-.758c-.232-.021-.449-.058-.379-.379h-.76c-.02,.23-.055,.449-.379,.379zm23.887,7.958c-2.712,10.676 12.781,8.525 10.616,0-.743-2.924-3.903-4.061-7.204-3.032-2.013,.63-3.15,2-3.412,3.03zm284.74,1.52c-.445,8.412 11.035,6.306 9.857-.76-.398-2.389-2.212-4.642-6.446-3.411-2.66,.77-3.31,2.36-3.41,4.17zm-300.66,0c-.972,7.31 10.283-2.737 1.138-1.518-1.036,.7-1.007,.53-1.138,1.52zm326.06-1.14c-2.188-1.305-4.339,.846-3.034,3.034 2.19,1.31 4.34-.84 3.03-3.03zm-319.24,10.62c-.445,8.414 11.035,6.306 9.857-.758-.398-2.39-2.212-4.642-6.445-3.413-2.664,.77-3.317,2.36-3.412,4.17zm303.7,.76c.379,5.78 9.496,5.287 9.1-.759-.16-2.444-1.801-4.454-5.309-3.792-2.63,.49-3.98,1.64-3.79,4.55zm-319.62,0c.486,2.092 4.059,1.896 3.792-.759-.488-2.09-4.06-1.9-3.792,.76zm341.61,0c4.18,3.94 2.29-5.5 0,0zm-334.41,10.24c.961,4.915 9.555,3.941 8.342-2.276-.379-1.938-1.924-3.946-5.688-2.653-2.133,.73-3.284,1.69-2.654,4.93zm322.66-1.14c0,4.84 8.035,5.148 7.582-.379-.223-2.723-2.265-3.561-4.55-3.034-2.71,.62-3.03,2.21-3.03,3.41zm-336.31-.76c-.23-.219-1.799-.889-1.896,0-1.949,1.85 2.904,3.05 1.896,0zm359.81,1.52v-1.516h-1.518c-.29,1.3 .22,1.81 1.52,1.52zm-348.05,8.34c-.187-2.281-2.102-3.203-4.171-2.653-8.293,2.19 4.898,11.53 4.171,2.65zm335.54,2.27c2.497,2.209 6.461-.469 4.549-3.792-2.5-2.21-6.46,.47-4.55,3.79zm-358.67-2.27v.759c.232,.021 .449,.057 .379,.379h.76c.021-.231 .056-.449 .379-.379v-.759c-.232-.021-.449-.056-.379-.379h-.76c-.02,.23-.055,.45-.379,.38zm23.507,9.1c-.47,5.043 6.632,9.134 10.237,4.549 6.37-8.11-9.361-13.95-10.237-4.55zm322.65,.75c0,7.536 10.982,6.669 10.615-.379-.164-3.136-2.146-5.48-6.445-4.55-2.95,.64-4.18,2.04-4.18,4.93zm-338.2-.37c-.972,7.31 10.283-2.736 1.137-1.518-1.035,.7-1.006,.52-1.137,1.52zm360.57,.75c.487,2.092 4.06,1.896 3.792-.758-.49-2.09-4.06-1.89-3.79,.76zm-353.36,8.34c-1.179,9.758 14.876,4.261 7.962-2.653-.777-.777-2.587-1.476-4.929-.758-3.063,.94-2.929,2.56-3.033,3.41zm342.74,3.8c6.046,6.045 10.671-8.631 2.275-6.824-3.23,.69-4.67,4.41-2.27,6.82zm-356.01-3.8c-.23-.218-1.799-.887-1.896,0-1.951,1.85 2.904,3.05 1.896,0zm376.86,1.14c.426,.081 .591,.421 .759,.758 1.034,.276 .763-.752 1.517-.758 .07-1.85-2.34-1.85-2.28,0zm-371.94,9.48c.4,4.852 9.624,3.277 6.445-2.276-.493-.861-1.873-1.648-3.79-1.137-2.743,.74-2.761,2.14-2.655,3.42zm361.33,1.52c2.497,2.211 6.462-.468 4.551-3.792-2.5-2.22-6.46,.46-4.55,3.79zm-377.63-2.28v.759c.231,.021 .449,.056 .38,.379h.758c.021-.231 .058-.449 .379-.379v-.759c-.231-.021-.449-.057-.379-.379h-.758c-.023,.23-.058,.45-.38,.38zm29.574,15.55c6.77-.349 7.142-12.271-1.139-10.996-7.566,1.17-4.863,11.31 1.139,11zm335.92-6.45c-1.036,8.801 11.07,6.902 9.857-.38-.401-2.405-2.215-4.641-6.445-3.411-2.54,.74-3.25,2.35-3.42,3.79zm-356.4,2.66c2.42,.396 3.432-.613 3.033-3.034-1.995-2.52-5.546,1.03-3.033,3.03zm378.77-1.14c.426,.081 .59,.422 .759,.76 1.547,.156 2.392-.39 2.274-1.896-.41-1.83-3.74-1.35-3.03,1.14zm-371.19,11.75c6.047,6.046 10.671-8.63 2.276-6.824-3.234,.69-4.676,4.42-2.276,6.82zm366.64-3.41c-.171-2.064-1.331-3.808-4.55-2.654-7.83,2.8 5.27,11.34 4.55,2.65zm-381.8,1.14v-1.517h-1.517c-.294,1.31 .212,1.81 1.517,1.52zm396.58-1.14v.759c.232,.021 .449,.056 .379,.379h.76c.021-.231 .056-.449 .379-.379v-.759c-.232-.021-.449-.057-.379-.379h-.76c-.02,.23-.05,.45-.38,.38zm-33.36,9.86c0,7.572 11.75,7.078 11.375-.379-.147-2.914-2.353-5.294-6.066-4.93-3.35,.33-5.31,2.1-5.31,5.31zm-356.4,1.89c1.102,.49 2.691,.49 3.792,0 .492-1.101 .492-2.69 0-3.792-2.787-1.57-5.362,1.01-3.792,3.79zm382.56-3.41c-2.188-1.304-4.338,.845-3.033,3.034 2.19,1.31 4.33-.84 3.03-3.03zm-375.73,11.37c.379,5.781 9.496,5.288 9.1-.758-.16-2.444-1.801-4.456-5.308-3.792-2.632,.5-3.984,1.65-3.792,4.55zm368.53-1.13c-.282-1.898-1.524-3.711-4.929-2.654-9.36,2.9 6.45,12.9 4.93,2.65zm-384.08,1.13c.426,.081 .59,.421 .759,.758 1.034,.276 .763-.753 1.516-.758 .071-1.85-2.345-1.85-2.275,0zm400,.38v-1.517h-1.518c-.29,1.31 .21,1.82 1.52,1.52zm-34.88,8.72c0,7.894 11.772,7.193 11.375-.379-.172-3.271-2.34-5.83-6.825-4.928-3.06,.62-4.56,2.28-4.56,5.31zm-351.85-.38c-.223-1.943-1.714-2.505-3.413-1.896-6.183,2.23 4.182,8.63 3.413,1.9zm375.35,2.28c2.42,.398 3.431-.613 3.033-3.033-1.99-2.52-5.54,1.03-3.03,3.03zm-364.35,9.48c1.356-4.043-2.308-7.264-6.066-5.688-8.073,3.39 3.724,12.66 6.066,5.69zm352.22-1.52c.383,5.195 7.949,4.216 7.582-.758-.165-2.241-1.599-4.062-4.929-3.034-2.01,.62-2.8,1.74-2.65,3.79zm-376.49,0c.426,.081 .59,.421 .759,.759 1.034,.276 .763-.754 1.516-.759 .071-1.85-2.345-1.85-2.275,0zm400,.38v-1.516h-1.518c-.29,1.31 .21,1.82 1.52,1.52zm-32.99,12.89c8.283,7.265 13.982-12.09 2.275-9.099-4.13,1.06-5.49,6.28-2.27,9.1zm-358.67-4.55c-.97,7.311 10.284-2.735 1.138-1.516-1.036,.71-1.006,.53-1.138,1.52zm379.53,.76c.485,2.091 4.06,1.896 3.791-.76-.49-2.09-4.06-1.89-3.79,.76zm-371.56,8.34c-.994,6.935 9.41,5.452 7.584-.759-.605-2.055-2.972-2.812-5.309-1.896-1.883,.74-2.168,1.92-2.275,2.66zm367.4,.38c-.187-2.282-2.102-3.204-4.171-2.653-8.3,2.2 4.89,11.53 4.17,2.65zm-383.32,1.14c1.188,.175 1.692-.33 1.517-1.517h-1.517v1.52zm398.1-1.14v.758c.232,.022 .449,.058 .379,.38h.76c.021-.231 .056-.45 .379-.38v-.758c-.232-.021-.449-.058-.379-.379h-.76c-.02,.23-.05,.45-.38,.38zm-374.21,9.48c-.46,8.689 11.373,6.813 10.615-.381-.312-2.965-2.364-5.385-6.824-4.17-2.78,.76-3.689,2.59-3.791,4.55zm341.99-1.52c-2.837,7.738 9.9,8.992 9.479,1.518-.132-2.343-1.335-4.621-5.308-4.172-2.49,.28-3.77,1.56-4.17,2.65zm-357.54,2.28c.487,2.091 4.06,1.896 3.792-.758-.487-2.09-4.059-1.9-3.792,.76zm382.18-1.14c-.23-.219-1.799-.887-1.896,0-1.94,1.85 2.91,3.05 1.9,0zm-373.84,11.38c1.975,6.324 9.675-2.703 4.172-4.17-.545-.146-1.326-.019-2.275,.379-1.597,.66-2.76,1.01-1.897,3.79zm361.33,.75c1.102,.492 2.691,.492 3.792,0 .492-1.1 .492-2.689 0-3.791-2.79-1.57-5.36,1.01-3.79,3.79zm-352.99,8.72c.961,4.915 9.556,3.941 8.341-2.276-.378-1.938-1.923-3.946-5.687-2.653-2.133,.74-3.285,1.7-2.654,4.93zm341.61-1.13c0,4.84 8.037,5.148 7.584-.379-.225-2.723-2.265-3.561-4.551-3.034-2.7,.62-3.03,2.2-3.03,3.41zm-355.25-.76c-.23-.219-1.799-.889-1.896,0-1.951,1.85 2.904,3.05 1.896,0zm378.76,1.51v-1.516h-1.516c-.29,1.31 .22,1.82 1.52,1.52zm-356.78,8.35c-.46,8.689 11.375,6.813 10.617-.379-.312-2.965-2.364-5.386-6.825-4.171-2.78,.75-3.687,2.58-3.792,4.55zm322.66,.38c0,6.668 10.234,6.189 9.857-.38-.149-2.609-2.087-4.821-5.688-4.171-2.66,.47-4.17,2-4.17,4.55zm-334.79-1.52c-2.188-1.305-4.338,.845-3.033,3.032 2.189,1.31 4.337-.84 3.033-3.03zm357.16,2.27c.425,.081 .59,.421 .758,.758 1.547,.156 2.393-.388 2.275-1.896-.4-1.83-3.74-1.34-3.03,1.14zm-26.54,14.41c6.614-.345 7.004-12.761-1.517-10.995-6.95,1.45-4.89,11.34 1.52,11zm-320-7.2c-.542-.864-2.956-1.824-4.171-.758-5.141,3.94 5.971,8.21 4.171,.76zm336.3,1.13c-.972,7.311 10.283-2.736 1.137-1.517-1.04,.71-1.01,.53-1.14,1.52zm-333.27,9.48c-.6,7.448 10.421,3.07 6.826-1.896-.379-.523-1.651-1.425-3.413-1.139-2.333,.39-3.316,1.84-3.413,3.04zm323.03,1.52c1.973,6.324 9.673-2.702 4.171-4.171-.546-.145-1.327-.018-2.275,.379-1.59,.67-2.75,1.02-1.89,3.79zm-337.44-.38v-1.517h-1.516c-.293,1.31 .212,1.81 1.516,1.52zm358.67-1.14v.758c.232,.021 .449,.056 .379,.379h.76c.021-.231 .056-.449 .379-.379v-.758c-.232-.022-.449-.058-.379-.38h-.76c-.02,.23-.05,.45-.38,.38zm-335.16,11c.96,4.916 9.555,3.942 8.341-2.275-.379-1.938-1.924-3.946-5.688-2.654-2.133,.72-3.285,1.69-2.653,4.92zm311.28-1.9c-.284-1.899-1.526-3.712-4.93-2.653-9.35,2.91 6.46,12.91 4.93,2.65zm-327.58,1.14c4.178,3.95 2.293-5.49 0,0zm341.61,0c.426,.079 .59,.42 .759,.758 1.034,.275 .763-.754 1.516-.758 .06-1.86-2.35-1.86-2.28,0zm-316.21,7.2c-2.837,7.738 9.901,8.992 9.479,1.517-.133-2.349-1.335-4.621-5.309-4.171-2.49,.28-3.77,1.56-4.17,2.65zm284.74,3.04c.959,4.917 9.556,3.942 8.341-2.274-.379-1.939-1.923-3.947-5.688-2.654-2.13,.72-3.28,1.69-2.65,4.92zm-301.04-.76c.485,2.091 4.06,1.896 3.791-.758-.485-2.09-4.058-1.9-3.791,.76zm322.65,.38c.426,.081 .591,.422 .759,.759 1.547,.156 2.393-.389 2.275-1.896-.4-1.84-3.74-1.35-3.03,1.14zm-297.25,8.34c-.445,8.414 11.036,6.308 9.857-.758-.398-2.389-2.212-4.642-6.445-3.412-2.662,.77-3.317,2.36-3.412,4.17zm265.78,1.51c1.008,5.363 10.351,4.383 9.101-2.275-.393-2.088-2.101-4.263-6.066-3.033-2.28,.71-3.67,1.89-3.03,5.31zm-277.53-1.13c0-2.064-1.449-2.562-3.034-1.896-4.758,2 3.034,7.12 3.034,1.9zm299.14,.38c.758,1.766 3.032,1.766 3.791,0 .01-2.79-3.79-2.79-3.79,0zm-274.88,14.03c8.791,2.45 9.119-12.586 0-9.479-5.244,1.78-2.84,8.68 0,9.48zm243.79-5.69c-1.18,9.757 14.875,4.259 7.962-2.655-.778-.775-2.589-1.474-4.93-.758-3.06,.93-2.92,2.55-3.03,3.41zm-263.12,.38c-.971,7.31 10.283-2.737 1.138-1.517-1.035,.7-1.007,.53-1.138,1.52zm285.49,2.27c2.421,.397 3.431-.613 3.034-3.032-1.99-2.51-5.54,1.04-3.03,3.03zm-302.93-2.27v.758c.23,.022 .448,.058 .379,.38h.758c.022-.231 .058-.449 .38-.38v-.758c-.231-.022-.449-.058-.38-.379h-.758c-.021,.23-.058,.45-.379,.38zm43.223,9.86c0,8.346 14.285,4.811 9.099-3.034-.79-1.196-2.73-2.095-5.308-1.517-3.583,.8-3.793,2.6-3.793,4.55zm232.79,4.55c5.305-.311 5.543-10.513-1.516-8.72-5.59,1.41-3.37,9 1.52,8.72zm-249.1-4.93c-.971,7.31 10.282-2.737 1.137-1.518-1.036,.7-1.005,.53-1.137,1.52zm266.54,2.27c2.42,.398 3.431-.612 3.032-3.033-1.99-2.52-5.54,1.03-3.03,3.03zm-283.98-2.27v.758c.232,.021 .449,.056 .381,.379h.758c.021-.232 .056-.449 .379-.379v-.758c-.232-.022-.449-.058-.379-.381h-.758c-.022,.23-.057,.45-.381,.38zm43.607,10.99c1.008,5.363 10.352,4.383 9.101-2.274-.393-2.089-2.101-4.265-6.066-3.034-2.28,.7-3.68,1.88-3.03,5.3zm208.9,0c.959,4.917 9.556,3.943 8.341-2.274-.379-1.938-1.923-3.946-5.688-2.655-2.13,.73-3.28,1.69-2.65,4.92zm-225.59-1.52c-.97,7.31 10.284-2.735 1.139-1.517-1.035,.71-1.007,.54-1.139,1.52zm250.24-1.13c-2.189-1.305-4.339,.844-3.034,3.032 2.18,1.3 4.33-.84 3.03-3.03zm-267.68,1.13v.759c.231,.021 .448,.057 .379,.379h.759c.021-.231 .057-.449 .379-.379v-.759c-.231-.022-.449-.056-.379-.379h-.759c-.021,.24-.056,.45-.379,.38zm66.347,15.55c5.043,.469 9.136-6.633 4.55-10.237-8.1-6.37-13.95,9.36-4.55,10.24zm146.73-6.07c-.526,9.646 16.584,5.595 10.236-3.034-.742-1.009-2.911-2.095-4.928-1.896-3.58,.36-5.16,2.25-5.31,4.93zm-163.03,4.17c3.641-1.646 2.094-8.18-2.275-7.583-6.86,.94-2.81,9.88 2.28,7.58zm183.88-3.79c0,4.84 8.036,5.148 7.583-.379-.224-2.723-2.264-3.562-4.549-3.034-2.69,.62-3.03,2.21-3.03,3.41zm-205.87,1.9c2.42,.397 3.43-.613 3.033-3.034-1.996-2.52-5.547,1.03-3.033,3.03zm226.73-1.52c.76,1.766 3.033,1.766 3.792,0 0-2.78-3.79-2.78-3.79,0zm-245.31-.76v.758c.23,.021 .448,.056 .379,.379h.758c.022-.232 .058-.448 .379-.379v-.758c-.231-.022-.447-.058-.379-.379h-.758c-.021,.24-.056,.45-.379,.38zm186.54,11.76c1.606-6.528-7.516-10.418-10.616-5.307-5.01,8.26 8.73,12.99 10.62,5.31zm-124.36-1.9c0,6.668 10.234,6.189 9.857-.38-.148-2.609-2.088-4.821-5.687-4.171-2.65,.48-4.17,2-4.17,4.55zm133.08-.76c-1.178,9.757 14.877,4.259 7.963-2.653-.777-.777-2.588-1.476-4.929-.76-3.06,.94-2.92,2.56-3.03,3.41zm-143.7,.38c-.188-2.298-2.102-3.203-4.169-2.653-8.29,2.2 4.9,11.53 4.17,2.65zm164.17,.76c.213,2.112 2.93,3.49 5.309,1.895 3.3-5.72-5.82-6.97-5.31-1.9zm-187.67,1.14c1.006-.004 2.165,.144 2.653-.379v-2.274c-1.88-1.58-4.23,.77-2.65,2.65zm208.15-1.14c4.18,3.95 2.29-5.49 0,0zm-127.02,9.1c0,7.536 10.984,6.669 10.617-.379-.164-3.137-2.147-5.48-6.445-4.55-2.94,.64-4.18,2.04-4.18,4.93zm20.48,4.17c8.282,7.264 13.981-12.091 2.276-9.099-4.14,1.06-5.5,6.28-2.28,9.1zm17.44-4.17c0,7.168 10.973,6.701 10.616-.379-.143-2.826-2.176-5.17-6.066-4.55-2.95,.47-4.55,2.01-4.55,4.93zm-56.11-.76c-1.18,9.756 14.875,4.259 7.961-2.655-.777-.776-2.587-1.474-4.929-.758-3.06,.95-2.93,2.56-3.03,3.42zm80.75,5.31c5.305-.311 5.543-10.512-1.518-8.72-5.58,1.42-3.36,9.01 1.52,8.72zm-98.95-4.55c0,4.84 8.035,5.148 7.582-.379-.223-2.723-2.263-3.561-4.55-3.034-2.7,.62-3.03,2.21-3.03,3.41zm120.94-1.52c-.378-1.064-2.173-2.658-4.929-1.516-8.02,5.3 7.92,9.93 4.93,1.52zm-138.38,1.14c-.972,7.31 10.284-2.737 1.138-1.518-1.04,.7-1.01,.53-1.14,1.52zm156.2,.38c0-2.064-1.449-2.562-3.034-1.896-4.76,2 3.03,7.12 3.03,1.9zm-171.75-.76c-.23-.219-1.799-.889-1.896,0-1.94,1.85 2.91,3.05 1.9,0zm187.3,1.14c.426,.08 .592,.422 .76,.758 1.035,.277 .763-.753 1.517-.758 .06-1.86-2.35-1.86-2.28,0zm-99.72,8.72c-.171-2.064-1.331-3.81-4.55-2.654-7.82,2.8 5.27,11.34 4.55,2.65zm18.96,0c-.171-2.064-1.331-3.81-4.55-2.654-7.82,2.8 5.27,11.34 4.55,2.65zm-44.36,1.52c1.543,4.975 9.7-.356 4.549-4.17-3.75-.76-5.25,1.9-4.55,4.17zm56.87,0c1.971,6.324 9.673-2.703 4.169-4.17-.544-.146-1.325-.019-2.273,.379-1.6,.66-2.76,1.01-1.9,3.79zm-75.07-1.52c-.971,7.311 10.283-2.736 1.138-1.517-1.04,.7-1.01,.53-1.14,1.52zm99.34,.38c0-2.063-1.449-2.562-3.032-1.896-4.76,2 3.03,7.12 3.03,1.9zm-117.54,.76c.426,.08 .591,.421 .759,.758 1.546,.156 2.392-.388 2.274-1.895-.4-1.84-3.74-1.35-3.03,1.14zm132.7-.38c4.18,3.94 2.3-5.49 0,0zm-149.38,.38v-1.517h-1.516c-.29,1.3 .22,1.81 1.52,1.52zm169.1-1.14v.758c.231,.021 .449,.057 .379,.379h.759c.021-.231 .057-.449 .379-.379v-.758c-.23-.021-.449-.057-.379-.38h-.759c-.02,.23-.06,.45-.38,.38zm-86.45,10.24c.76,1.767 3.034,1.767 3.792,0 .01-2.79-3.79-2.79-3.79,0zm-18.19,1.13c1.006-.004 2.164,.144 2.653-.379v-2.274c-1.88-1.58-4.23,.77-2.65,2.65zm37.91,0c1.006-.004 2.165,.144 2.653-.379v-2.274c-1.88-1.58-4.23,.77-2.65,2.65zm-54.6-2.27c-.229-.219-1.799-.889-1.895,0-1.95,1.85 2.9,3.05 1.89,0zm75.83,0c-.229-.219-1.799-.889-1.896,0-1.94,1.85 2.91,3.05 1.9,0zm-95.16,1.52v-1.516h-1.518c-.29,1.3 .21,1.81 1.52,1.52zm113.74,0v-1.516h-1.518c-.29,1.3 .22,1.81 1.52,1.52zm-67.87,8.34v.758c.231,.022 .449,.057 .38,.379h.758c.021-.231 .057-.447 .379-.379v-.758c-.231-.021-.449-.057-.379-.379h-.758c-.02,.23-.05,.45-.38,.38zm18.96,0v.758c.23,.022 .448,.057 .379,.379h.758c.022-.231 .057-.447 .379-.379v-.758c-.231-.021-.447-.057-.379-.379h-.758c-.02,.23-.06,.45-.38,.38zm4.17-371.19c-.433,1.963 .605,4.431 .38,4.928-1.73-1.906-6.36-.707-7.583-.379 4.606-11.817-16.046-10.791-11.754,0-2.109-1.115-4.986-.731-7.203,0 4.318-12.186-16.917-10.458-10.996,.758-5.898-3.317-12.084,1.082-11.753,7.584-1.586-.855-3.052,.068-4.93,0 2.324-11.773-16.864-9.12-12.891,1.138-2.208-1.919-6.391,.309-7.583,.379 4.927-7.988-8.77-12.433-10.616-4.93-1.202,4.888 3.887,9.685 9.101,6.825-1.21,1.444-1.327,3.982-1.896,6.066-1.325-1.023-3.795,.611-4.549,0 1.918-12.764-18.533-7.957-11.754,2.275-6.096-3.863-12.775,1.946-10.996,8.341-6.398-1.574-10.757,2.117-9.857,9.099-2.282-1.415-6.043,.698-6.825,.76 4.933-10.292-12.555-11.848-10.616-1.518 .421,2.236 5.202,5.968 9.101,3.412-1.273,1.381-1.739,3.568-1.517,6.446-2.847-.319-4.624,.431-6.445,1.137 5.142-10.566-13.229-11.75-10.616-1.137 .724,2.944 5.75,4.823 8.72,3.411-1.059,1.471-1.302,3.753-1.138,6.445-2.422-1.173-5.042,.439-6.824,1.139 3.402-3.799-1.187-8.741-3.032-9.1-7.324-1.422-10.515,10.529-2.275,11.374 2.104,.216 2.69-.54 4.17-.758-1.529,1.337-1.473,5.121-1.516,6.824-6.95-.837-10.276,3.815-8.72,10.237-7.327-2.75-12.09,5.778-7.963,10.994-7.732-6.415-15.092,7.6-6.825,10.995 1.234,.574 4.026,.175 4.551,.38-.859,1.163 .18,4.225-.759,5.308-6.706-.675-9.457,4.32-7.963,10.617-10.975-4.245-12.537,15.081-.758,12.511-.613,1.408-.314,3.729-.379,5.688-10.899-2.496-11.095,15.285-.379,14.407-.24,1.276 .488,3.522-.379,4.171-2.559-.409-3.63,.668-5.309,1.138 2.842-4.555-.496-9.479-4.928-9.479-9.756,0-5.848,16.246 3.411,11.375-2.011,1.66-.82,7.205-.379,8.342-12.396-5.53-10.667,17.312 .758,10.236-2.229,1.999-1.745,7.352 0,9.479-4.415-3.666-9.856,.524-9.856,4.551 0,7.399 12.063,8.455 12.131,0 .014-1.475-1.192-2.889-1.137-3.792 1.351,1.177 3.303,1.753 6.066,1.516-1.079,1.059 .25,4.376-.379,4.93-11.168-1.414-9.751,15.894 .758,14.028-1.209,1.75 .551,4.711 0,5.687-12.264-2.987-8.902,17.837 1.896,11.375-3.941,5.165 1.082,13.19 7.962,10.995-1.276,2.088 .152,5.023 0,6.445-.997-.393-2.327-.453-3.792-.379-11.932,4.552 3.068,19.599 7.584,7.583 .186-1.703-.193-2.842-.381-4.171 1.211,.812 3.21,.836 5.309,.758-1.247,1.329 .604,4.296 0,4.929-13.204-1.516-7.29,18.17 2.275,12.133-3.77,5.9 2.537,13.111 9.099,9.857-3.201,6.617 2.955,11.726 9.1,10.237-2.837,6.356 4.17,11.188 9.479,9.479-2.209,6.833 4.08,11.423 10.236,8.72-5.895,11.25 14.59,13.476 12.514,1.896 .896,.746 3.391-.105 4.17,.758-.186,1.703 .191,2.842 .379,4.171-4.984-1.165-8.52,2.437-8.341,6.446 .38,8.558 14.8,7.201 12.891-2.275 1.312,.583 3.456,.336 5.308,.38-1.611,6.364 5.09,10.22 10.236,8.72-3.38,11.678 15.679,11.152 13.271,.758 1.485,.652 4.044,.081 4.928,.379-1.004,1.908 .448,4.25 1.139,5.688-9.492-5.76-13.339,11.448-3.034,10.995 4.164-.183 6.929-5.892 4.93-9.478 1.606,1.699 5.208,1.779 7.582,.758-3.921,11.985 15.802,11.228 12.513,.379 1.383,1.427 5.209,.281 6.065,.38-2.845,11.457 15.825,10.472 13.271,0 1.542,.672 4.081,.379 5.688,0-2.867,11.117 16.094,10.901 12.891-.38 1.834,1.084 4.502,.721 6.445,0-3.332,12.388 16.763,9.75 12.133-.758 6.165,2.697 11.308-1.706 10.995-7.963 1.477,1.101 4.195-.501 4.93,0-2.215,11.68 17.102,9.559 12.512-1.517 6.338,2.656 11.239-1.961 10.994-8.341 1.851,1.219 4.818-.722 5.688-.379-.393,.997-.454,2.326-.379,3.791 4.387,12.057 19.733-3.105 7.582-7.583-1.701-.187-2.841,.192-4.17,.379 .764-1.384 1.281-3.016 1.138-5.308 1.223,1.244 3.964-.661 4.55,0-.029,3.264 .267,4.678 1.517,6.066 8.519,9.469 18.714-12.747 3.032-10.996 .769-1 .401-3.138 1.139-4.169 1.465,.074 2.794,.013 3.791-.38-2.455,12.846 19.227,8.086 11.753-2.654 6.214,5.019 13.578-3.367 10.237-9.099 6.962,4.633 12.961-5.747 8.721-10.237 9.99,7.96 16.042-13.637 2.273-11.375 .842-1.053 .617-3.896 .76-4.549 2.244,.349 3.142-.648 4.928-.758-.701,.813-.255,2.775-.379,4.17 1.375,5.386 10.816,5.699 12.133,0 .819-3.547-1.11-6.449-4.17-7.962-1.408-.249-3.902,.364-4.171,0 .961-1.422 .55-4.554 .758-5.688 6.957,.802 9.875-4.16 8.341-10.615 11.334,4.6 12.054-15.229 1.139-12.891 .572-1.234 .173-4.026 .379-4.551 2.678,.277 4.072-.729 5.688-1.516-3.058,5.025 1.552,9.643 5.307,9.478 7.254-.319 7.545-12.005-.379-12.133-1.26-.02-2,.917-3.411,.759 1.708-1.469 1.898-5.333 .758-7.583 11.418,3.964 11.97-14.902 .758-12.891 .921-1.296-.117-4.578 .379-5.309 11.308,1.71 10.332-15.466 0-14.027 .571-1.722 .247-3.11 0-4.93 11.093,2.069 10.872-16.079-.379-13.648 1.055-1.242-.188-4.977 .379-5.688 10.777,2.551 10.36-16.122-.758-12.891 1.026-1.853-.116-5.972 0-6.825 12.702,3.82 8.95-17.917-1.896-10.616 3.79-5.055 .212-13.149-7.584-11.374 1.146-1.665-.234-5.725 0-6.446 .999,.394 2.328,.454 3.792,.379 12.117-4.989-3.434-19.372-7.582-7.582-.187,1.703 .191,2.841 .379,4.171-1.159-.737-2.926-.866-4.93-.758 .227-1.998-.281-3.258-.379-4.93 12.694,1.752 8.13-17.58-1.895-12.512 3.062-6.436-2.758-11.611-8.722-10.237 1.769-6.419-3.059-11.246-9.478-9.478 1.913-6.502-2.978-11.394-9.479-9.479 2.179-6.918-3.692-10.896-9.478-9.858 1.767-6.504-4.195-11.18-10.237-8.72 5.123-10.821-14.712-13.81-12.892-1.517-.813-.702-2.777-.256-4.171-.379 .498-1.904-.84-3.94-.379-4.55 10.26,2.324 10.479-12.512 1.896-12.512-3.971,0-7.332,3.64-6.066,8.72-1.043-1.138-4.861-.549-5.688-.758 1.283-7.325-5.564-9.79-10.616-8.341 4.337-10.999-15.168-12.583-12.512-.759-1.688-.745-3.319-.765-5.308-.379 .996-7.253-6.576-10.76-11.753-7.203 5.75-8.276-8.61-13.933-11.01-5.723zm9.48,6.824c.371,1.142-1.763,3.029-1.138,5.688-1.765-.179-2.528-.514-4.169,0 .33-2.48-.701-3.598-1.139-5.309 1.38,1.172 5.51,1.103 6.45-.379zm-44.74,.758c.739-.211 4.379,1.057 6.066,0-.109,1.786-1.106,2.685-.758,4.93-.923-.733-3.172-.365-4.171,0 .1-2.122-.07-3.976-1.14-4.93zm19.72,0c1.541,1.139 4.023,.709 5.688,0-.627,1.268-1.341,2.45-1.138,4.551h-3.792c.33-2.108-.73-2.812-.76-4.551zm-47.4,9.857c1.389,.678 2.895,.885 4.549,.379-.41,1.107-.849,2.186-.758,3.792h-3.033c.27-1.913-.52-2.768-.76-4.171zm99.72,0c1.436,.058-.791,2.303 0,4.171h-3.411c-.112-1.277-.191-2.59-.759-3.413 .53-1.11 3.64,.355 4.17-.758zm-79.62,1.139h2.653c.01,.893-.653,1.115-.379,2.274h-1.896c.28-1.16-.65-1.116-.37-2.274zm57.25,0h2.653c.188,1.704-.392,2.642-2.274,2.274 .01-.893-.65-1.116-.38-2.274zm-37.92,.758c-.063-.823 1.345-.172 1.896-.379v1.896h-1.517c-.03-.601 .19-1.447-.38-1.517zm19.34-.379h1.895c.051,1.313-.326,2.201-1.895,1.896 .01-.632 .01-1.265 .01-1.896zm-88.34,7.583c.84-.195 3.168,1.37 5.687,.758-.422,1.094-.683,2.351-.758,3.792-1.615-.225-2.508,.271-3.792,.379 .1-2.128 .04-4.085-1.14-4.929zm135.73,1.516h2.655c-.438,.448-.43,1.34-.38,2.274h-2.275v-2.274zm-114.5,.378h2.275v1.896h-1.896c.16-.912-.69-.822-.38-1.896zm146.35,7.962c.797,.947-.881,2.643-.379,4.551-.631-.635-2.227-.302-3.413-.38-.23-.906 .477-2.75-.379-3.032 .88-.89 3.62,.075 4.17-1.139zm-175.92,.379c.717,.674 2.504,.277 3.79,.381-.016,1.247-.64,1.887-.379,3.411h-3.032c.07-1.464 .01-2.793-.38-3.792zm154.31,1.518h1.138v1.517c-1.27,.381-1.24-.527-1.14-1.517zm31.09,8.341c-.634,.629-.301,2.227-.379,3.413h-3.032c-.227-.785 .469-2.491-.381-2.654 .93-.588 2.47-.565 3.79-.759zm-194.5,.758c.282-.855 2.126-.148 3.034-.38v2.655c-.667,.217-2.229-.459-2.275,.379-1.08-.052 .34-2.603-.75-2.654zm203.6,8.721c.471,.133-.312,2.185 0,3.412-1.093-.045-2.483,.206-3.034-.38v-2.653c.9-.23 2.75,.477 3.03-.379zm-212.7,.758h2.653c-.437,.447-.429,1.341-.379,2.274h-2.274v-2.274zm222.18,8.715c.759,.419-.461,2.036 0,3.413h-2.653c-.586-.551-.334-1.941-.379-3.033 .9-.23 2.75,.48 3.03-.38zm-232.04,1.14c.163-.848 1.868-.153 2.653-.379v2.275c-.551,.207-1.958-.443-1.896,.379-1.073,.06 .316-2.34-.757-2.28zm242.27,8.34c-.393,.997-.453,2.326-.379,3.791-1.248-.016-1.887-.641-3.413-.379v-3.033c1.62,.23 2.51-.27 3.79-.38zm-251.75,.38c.909,.229 1.73,.545 3.034,.379-.522,.489-.375,1.646-.379,2.654h-2.655v-3.03zm261.23,8.34c1.387,.208-.756,2.882 0,4.93-1.516,.125-2.104-.676-3.791-.379 .224-1.614-.272-2.508-.379-3.792 1.66,.02 3.43,.14 4.17-.76zm-271.46,.76c.997,.393 2.326,.453 3.791,.379v3.033c-1.466-.203-1.85,.677-3.411,.38 .074-1.46 .013-2.79-.38-3.79zm-10.995,8.34c.891-.12 3.029,1.764 5.688,1.137-.181,1.821-.24,3.178-.379,4.17-1.703-.186-2.841,.193-4.17,.381 .882-1.78 .246-4.94-1.139-5.69zm279.43,12.14h1.896v1.516h-1.896v-1.52zm11.75,8.34c.86,.402 .145,2.383 .379,3.411-1.429,.292-1.812-.462-3.033-.379v-2.653c.79-.23 2.49,.47 2.65-.38zm-288.9,.76h2.274v2.274h-2.274v-2.27zm300.28,6.82c.181,1.028-1.688,4.59-.379,6.825-1.159-.738-2.926-.865-4.93-.759 .607-1.738 .027-2.575 0-4.55 2.42,.15 4.49-.05 5.31-1.51zm-310.9,1.52c1.329,.188 2.468,.565 4.171,.379v3.413c-.852,.664-2.852,.181-3.792,.758 .007-1.65 .126-3.41-.379-4.55zm299.15,10.99v1.896h-1.896c-.31-1.57 .58-1.95 1.9-1.9zm-286.26,.38v1.137c-.672-.086-1.898,.383-1.516-.758 .337-.29 .856-.41 1.516-.38zm296.11,7.96c1.722,.518-.321,2.761 .758,4.172-.938-.578-2.939-.094-3.791-.759v-3.032c.91-.23 2.75,.48 3.03-.38zm-308.24,1.14c.282-.855 2.128-.148 3.034-.379v2.653h-2.654c-.219-.66 .459-2.22-.38-2.27zm296.49,9.86c.992-.106 1.631,.139 1.518,1.137-.99,.1-1.9,.12-1.52-1.14zm11.75,8.34c.861,.402 .145,2.383 .379,3.412-1.406,.269-1.627-.648-3.033-.38v-2.653c.79-.23 2.49,.47 2.65-.38zm-307.86,.76h2.275c.365,1.884-.572,2.462-2.275,2.274v-2.27zm-11.375,7.2c1.273,.875 2.905,1.392 5.309,1.137-.325,1.898-.325,2.652 0,4.551-2.367-.093-4.435,.114-5.309,1.516 .209-1.13 1.474-5.17 0-7.21zm319.62,11.38v3.412c-.907-.229-1.729-.545-3.033-.379v-2.654c1.41,.26 1.63-.65 3.03-.38zm-308.24,.37c1.158-.273 1.382,.388 2.275,.38v1.896c-.551,.207-1.96-.443-1.896,.379-.848-.16-.154-1.87-.379-2.66zm296.11,10.24c.601,.031 1.447-.182 1.518,.381 .41,1.33-2.33,1.02-1.52-.38zm12.51,7.96c-.006,1.649-.125,3.411 .379,4.549-1.402-.239-2.256-1.028-4.17-.758v-3.412c1.61,.23 2.51-.27 3.79-.38zm-309,.38c.909,.229 1.73,.545 3.034,.38v2.653c-1.43-.291-1.812,.463-3.034,.379v-3.41zm296.49,10.24h1.896v2.276c-.44-.319-1.018-.501-1.896-.38v-1.9zm-285.88,.38c.599,.031 1.445-.183 1.516,.379 .414,1.33-2.325,1.02-1.516-.38zm-11.375,7.58c1.402,.24 2.258,1.029 4.171,.759-.074,1.464-.014,2.793 .379,3.79-2.112,.037-4.107,.191-4.929,1.518-.469-1.28 1.638-3.82 .379-6.07zm300.28,10.24c-.741,.93-.38,3.187 .379,3.792-.745,.843-2.515-.497-4.171,0v-3.413c1.69,.3 2.28-.51 3.79-.38zm-289.66,.38c.891,.121 1.423,.6 2.654,.381v2.653c-.786,.226-2.49-.469-2.654,.379-.991-.65 .535-1.96 0-3.41zm276.77,9.86h2.654v2.653c-.891-.121-1.424-.599-2.654-.379v-2.27zm-266.54,.38h1.517c.449,1.714-.885,1.644-1.896,1.896-.121-.89 .061-1.46 .379-1.9zm257.44,9.47h1.518v1.896c-.339-.295-.857-.408-1.518-.379v-1.52zm-258.95,7.97c1.181,.462 2.403,.883 4.172,.758-.996,1.106 .336,2.185 0,3.791-2.48-.332-3.598,.701-5.309,1.137 1.157-1.13 1.254-3.3 1.137-5.69zm257.81,14.4c-.612-.516 .392-2.62 0-4.171 1.569,.053 2.93-.105 3.792-.759 .669,1.984 .254,5.055 1.896,6.066-.76,.24-3.72-2.58-5.69-1.14zm-247.96-4.17c1.562-.298 1.947,.582 3.413,.379-.262,1.525 .363,2.164 .379,3.412-1.551,.092-3.655-.369-4.171,.759-.763-.91 .973-2.55 .379-4.55zm238.49,13.27c-.266-1.656 .645-2.135 .379-3.791 1.465,.075 2.794,.014 3.791-.379-.945,1.52 .055,3.849 .758,4.928-.83,.43-2.82-1.21-4.93-.76zm-229.01-3.79c1.247,.016 1.887,.641 3.413,.38 .225,.785-.469,2.489 .379,2.653-1.098,.672-2.904,.636-4.171,1.137 .453-1.06 .417-2.61 .379-4.17zm9.857,9.48c.551,.586 1.939,.334 3.032,.379-.262,1.525 .363,2.164 .379,3.413-1.703-.187-2.841,.191-4.171,.379 .21-1.44 .92-2.37 .76-4.17zm209.29,4.17c.392-.997 .454-2.327 .379-3.792 1.656,.266 2.136-.645 3.792-.379 .036,2.112 .189,4.107 1.517,4.929-1.03,.39-3.71-2.02-5.69-.76zm-200.19,5.31c1.284,.105 2.177,.603 3.792,.379-.225,1.613 .271,2.508 .379,3.79-1.447-.652-3.601-.185-4.55,.76-.68-.96 .97-2.81 .38-4.93zm20.47,1.14h1.139v1.517c-1.26,.37-1.24-.53-1.14-1.52zm152.42,0h1.516c-.031,.538-.062,1.074 .38,1.137 .062,.823-1.345,.172-1.896,.38v-1.52zm-9.86,9.1h2.274c-.303,1.314 .565,1.457 .379,2.653h-3.032c.53-.49 .38-1.65 .38-2.65zm-133.46,.38h2.274v1.895c-.551,.208-1.96-.443-1.895,.38-.84-.05-.16-1.61-.38-2.27zm126.64,8.34c.888,.88-.077,3.613 1.137,4.171-.648,.5-3.191-.331-4.929,0 .41-1.107 .85-2.186 .758-3.792 .9-.24 2.75,.47 3.03-.38zm-117.54,.38h3.033c-.297,1.687 .505,2.274 .379,3.792-1.171-.982-2.695,.111-4.171,0 .41-1.11 .85-2.19 .76-3.79zm19.72,.75h1.896v1.896h-2.275c.32-.44 .5-1.02 .38-1.9zm19.34,0h1.137v1.517c-1.27,.38-1.25-.52-1.14-1.52zm38.29,0h1.138v1.517c-1.27,.38-1.25-.52-1.14-1.52zm18.58,0h1.896c-.275,1.16 .653,1.116 .379,2.274h-2.275c-.01-.75-.01-1.51-.01-2.27zm-67.49,8.72h3.411c-.271,1.912 .519,2.767 .758,4.169-1.088-.718-3.779-.418-4.928,0 .21-1.43 .92-2.36 .76-4.17zm56.49,4.17c.207-1.435 .916-2.367 .758-4.169h3.791c-.013,1.654-.141,3.424 .758,4.169-.65,.33-3.77-1.08-5.31,0zm-37.15-3.79h3.032c-.26,1.524 .363,2.164 .379,3.411-1.287-.653-2.778-.263-4.169,0 .4-.98 .92-1.85 .76-3.41zm18.95,0h3.032c.033,1.231 .197,2.332 .76,3.032-1.102,.845-2.675-.473-4.171,.379 .02-1.24 .64-1.88 .38-3.41z"/>
</svg>
