<svg xmlns="http://www.w3.org/2000/svg" viewBox="0 0 583.147 303.948" xmlns:xlink="http://www.w3.org/1999/xlink" enable-background="new 0 0 583.147 303.948">
<g fill-rule="evenodd">
<g>
<path fill="#9b5f0d" d="m555.93,20.22c-82.85,36.466-160.07,78.561-240.97,116.98-5.248-7.417-13.635-11.695-20.997-16.998 79.745-38.239 159.25-76.723 238.97-114.98 12.45,3.52 11.4,9.933 23,15zm-46.99,6.999c1.822,5.25 15.233,5.596 16.997,0 .91-8.514-17.76-8.176-17,0zm-163.98,85.991c.624-6.245-7.897-8.704-12.999-5.999-13.64,7.23 11.71,18.87 13,6z"/>
<path d="m525.93,27.219c-1.764,5.596-15.175,5.25-16.997,0-.75-8.176 17.92-8.514 17,0zm-14.99,1c3.486,1.197 12.265,2.502 12.999-2-2.32-4.628-13.1-5.802-13,2z"/>
<path fill="#eff0f0" d="m523.94,26.219c-.734,4.502-9.513,3.197-12.999,2-.1-7.802 10.68-6.628 13-2z"/>
</g>
<g fill="#572700">
<path d="m554.93,23.219h1.999c2.846,8.011-5.513,10.797-9.998,12.999-73.92,36.282-152.84,74.962-226.97,108.98 2.432-12.247 17.207-14.431 25.996-18.998 28.234-14.669 57.939-29.971 87.989-43.995 40.89-19.08 79.78-41.465 120.98-58.986z"/>
<path d="m318.96,162.2c-.728-6.952 7.934-9.036 11.998-10.999 73.997-35.715 151.23-74.112 225.97-109.99-7.083,12.678-22.858,17.022-34.995,22.997-66.04,32.512-136.74,68.063-202.98,97.993z"/>
</g>
<g>
<path d="m331.96,107.21c5.102-2.705 13.623-.246 12.999,5.999-1.29,12.87-26.64,1.23-13-6zm-3,5c.287,5.326 13.846,5.928 13.998,0-2.06-5.28-11.07-4-14,0z"/>
<path fill="#eff0f0" d="m342.96,112.21c-.152,5.928-13.711,5.326-13.998,0 2.93-4 11.94-5.28 14,0z"/>
<path fill="#9b5f0d" d="m291.96,121.21c8.95,5.715 14.864,14.466 25.997,17.998v5c-1.357-.31-.829-2.503-1-4-3.626,4.373-.563,4.501 0,7.999-9.766-5.232-18.246-11.75-25.997-18.998-.22-3.22 1.77-4.23 1-8z"/>
<path fill="#eff0f0" d="m560.93,32.218c27.519,6.041 5.372-33.743-14.998-23.997-.12-2.88-4.264-1.735-4-5 22.276-1.159 40.293,8.77 34.996,28.997 .972-.027 .775-1.224 1-2 2.97,2.103-16.03,13.663-17,2z"/>
<path d="m561.93,41.217c-2.948,1.718-1.438,7.895-4,9.999-79.057,40.594-160.36,78.946-239.97,118.98-4.635-.364-7.474-2.525-9.999-4.999-45.439,20.419-88.524,44.043-134.98,65.991-14.935,7.056-31.482,14.006-41.995,23.997-8.313,7.901-14.27,19.141-23.997,25.997-10.613,7.48-23.574,10.004-35.996,13.998-11.675,3.755-23.74,11.152-36.995,7.999 7.375-9.955 24.142-10.521 32.996-18.997-17.933,.434-32.581,9.366-48.994,7.999 5.162-10.503 21.523-9.807 30.996-15.998-16.198-4.25-35.063,11.4-48.987,3 30.642-13.044 64.167-14.15 85.989-33.995 6.539-5.946 10.447-14.085 17.998-20.998 11.101-10.162 28.808-17.361 43.995-24.996 46.529-23.394 93.057-44.756 138.98-67.992 1.853-2.146 .675-7.324 1-10.999 79.76-41.565 163.24-79.402 244.97-118.99 7.168,1.363 14.124-2.108 21.998-1 24.96,3.515 45.17,42.749 7,40.997zm-7-23.997c-3.784,.074-6.033-6.575-8.999-4 3.79-.074 6.03,6.575 9,4zm-22-11.998c-79.722,38.262-159.22,76.747-238.97,114.98 7.362,5.303 15.749,9.581 20.997,16.998 80.9-38.419 158.12-80.514 240.97-116.98-11.6-5.067-10.55-11.48-23-14.998zm45,24.996c-.225,.776-.028,1.973-1,2 5.297-20.227-12.72-30.155-34.996-28.997-.264,3.264 3.88,2.12 4,5 20.37-9.746 42.517,30.038 14.998,23.997 .97,11.663 19.97,.103 17-2zm-10,1c1.278-.055 1.385-1.282 3-1 3.812-10.924-9.322-18.587-17.998-16.998 9.41,1.59 7.25,14.745 15,17.998zm-133.98,50.994c-30.05,14.023-59.755,29.326-87.989,43.995-8.789,4.566-23.564,6.751-25.996,18.998 74.13-34.03 153.05-72.71 226.97-108.99 4.485-2.202 12.844-4.987 9.998-12.999h-1.999c-41.2,17.519-80.09,39.904-120.98,58.991zm-315.97,182.98c-1.114-6.182 3.114-.817 2-6.999 1.889,.749 .694,2.984 3,1 28.788-28.759 70.065-40.19 105.99-58.993 98.967-51.802 203.89-101.28 302.96-149.98 8.933-4.391 22.904-6.789 25.996-15.998-67.524,30.391-135.23,64.755-203.98,97.988-70.47,34.065-148.37,72.319-212.97,106.99-.691-2.496-2.667,1.856-4.999,1-2.804-2.922 3.94-1.935 3-5.999-8.792-3.873-14.56-10.77-22.997-14.998-8.316,4.682-15.148,10.849-19.998,18.998 6.959,5.039 14.046,9.951 20.997,14.998 7.31-2.213 13.334-15.255 17.998-10.999-7.08,5.58-18.02,12.63-17,22.99zm-23.992-26c-12.474,19.522-38.165,25.828-63.992,31.996 3.026,3.376 23.236-7.275 27.997,1-5.007,5.991-15.056,6.942-20.998,11.999 9.388-1.809 24.139-8.254 33.996-3-1.364,8.635-11.935,8.063-16.998,12.998 8.308,.629 14.64-6.005 19.997-4.999-.75,1.344-7.298,1.906-4.999,3 5.613-2.72 14.445-2.22 17.998-6.999-4.899-1.19-7.426,5.18-10.999,1.999 3.397-1.602 7.431-2.567 9.999-4.999-7.038-5.294-15.492-9.172-20.997-15.998 4.773,2.307 4.356,3.531 4,0 5.114,3.895 14.802,8.514 15.998,12.998-2.979-1.717-7.232-7.393-9.999-5.999 5.568,1.901 8.99,9.687 14.998,7.999 1.26-4.786 10.109-5.437 12.999-9.999 .102,1.122-1.454,1.557 0,2 1.297-1.76 6.907-4.349 5-5.999-.319,1.157-3.095,4.71-4,2 4.845-2.154 7.619-6.379 9.999-10.999-4.853-6.153-16.952-10.368-18.998-15.998 7.563,3.852 14.89,12.994 21.997,13.998-6.03-7.31-15.04-11.63-23.002-17zm427.95-174.98c12.137-5.975 27.912-10.319 34.995-22.997-74.743,35.874-151.98,74.271-225.97,109.99-4.064,1.962-12.726,4.046-11.998,10.999 66.23-29.94 136.93-65.491 202.97-97.996zm-230.98,64.996c7.751,7.247 16.231,13.765 25.997,18.998-.563-3.498-3.626-3.626 0-7.999 .171,1.496-.357,3.69 1,4v-5c-11.133-3.532-17.047-12.283-25.997-17.998 .77,3.77-1.22,4.78-1,8zm-2,3c-56.612,28.377-114.06,55.916-169.98,84.989 6.086,4.369 14.496,16.838 23.997,16.998 3.024,.051 13.499-8.296 18.998-10.999 37.619-18.49 72.132-36.298 106.99-52.993 15.278-7.318 29.41-15.572 43.995-18.998-5.83-8.51-15.74-12.93-24-19zm-197.97,151.98c9.953-4.717 25.025-9.632 23.997-21.998-4.719,7.48-13.667,15.389-20.998,16.998 3.053,1.85-4.41,1.49-3.003,5z"/>
</g>
<g fill="#eff0f0">
<path d="m545.93,13.221c2.966-2.575 5.215,4.074 8.999,4-2.97,2.574-5.21-4.075-9-4z"/>
<path d="m134.98,242.19c-4.664-4.256-10.688,8.786-17.998,10.999-6.951-5.047-14.038-9.959-20.997-14.998 4.85-8.149 11.681-14.316 19.998-18.998 8.437,4.229 14.205,11.125 22.997,14.998 .941,4.064-5.804,3.077-3,5.999 2.332,.856 4.308-3.496 4.999-1 64.605-34.667 142.5-72.921 212.97-106.99 68.749-33.232 136.45-67.597 203.98-97.988-3.092,9.209-17.063,11.607-25.996,15.998-99.075,48.698-204,98.179-302.96,149.98-35.92,18.81-77.2,30.24-105.99,59-2.306,1.984-1.111-.251-3-1 1.114,6.182-3.114,.817-2,6.999-1.02-10.36 9.92-17.41 17-23zm-33.99-9c7.216,4.123 15.43,12.558 21.997,13.998-7.5-3.84-14.84-13.15-22-14zm-4.002,5c7.778,3.887 13.419,9.911 20.997,13.998-5.69-5.31-14.13-13.19-20.992-14z"/>
<path d="m116.98,256.19c-7.107-1.004-14.434-10.146-21.997-13.998 2.046,5.63 14.145,9.845 18.998,15.998-2.379,4.62-5.153,8.845-9.999,10.999 .905,2.71 3.681-.843 4-2 1.907,1.65-3.703,4.239-5,5.999-1.454-.443 .102-.878 0-2-2.89,4.562-11.739,5.213-12.999,9.999-6.008,1.688-9.43-6.098-14.998-7.999 2.767-1.394 7.02,4.282 9.999,5.999-1.196-4.484-10.884-9.104-15.998-12.998 .357,3.531 .774,2.307-4,0 5.505,6.826 13.959,10.704 20.997,15.998-2.567,2.432-6.601,3.397-9.999,4.999 3.572,3.181 6.099-3.189 10.999-1.999-3.552,4.779-12.385,4.279-17.998,6.999-2.299-1.094 4.249-1.656 4.999-3-5.357-1.006-11.689,5.628-19.997,4.999 5.063-4.935 15.633-4.363 16.998-12.998-9.856-5.254-24.607,1.191-33.996,3 5.942-5.057 15.99-6.008 20.998-11.999-4.76-8.275-24.971,2.376-27.997-1 25.827-6.168 51.518-12.474 63.992-31.996 7.97,5.37 16.98,9.69 23,17z"/>
</g>
<g>
<path d="m122.98,247.19c-6.567-1.44-14.781-9.875-21.997-13.998 7.17,.85 14.51,10.16 22,14z"/>
<path d="m134.98,225.19c.565-3.59-9.569-5.077-10.999-9.999 8.155,4.511 15.915,9.416 21.997,15.998-2.965-2.033-6.354-3.645-8.999-5.999 .411,3.923 5.589,3.077 6,6.999-6.683-5.648-16.161-8.503-20.998-15.998 4.38,2.96 8.92,5.75 13,9z"/>
<path fill="#eff0f0" d="m312.96,151.2c-14.584,3.425-28.716,11.679-43.995,18.998-34.854,16.695-69.368,34.503-106.99,52.993-5.499,2.703-15.974,11.05-18.998,10.999-9.501-.16-17.911-12.629-23.997-16.998 55.916-29.073 113.37-56.612 169.98-84.989 8.27,6.08 18.18,10.5 24.01,19zm-190.98,65c4.837,7.495 14.314,10.35 20.998,15.998-.411-3.922-5.589-3.076-6-6.999 2.646,2.354 6.034,3.966 8.999,5.999-6.082-6.582-13.842-11.487-21.997-15.998 1.43,4.922 11.564,6.409 10.999,9.999-4.08-3.26-8.62-6.05-13-9z"/>
<path d="m117.98,252.19c-7.578-4.087-13.219-10.111-20.997-13.998 6.867,.81 15.307,8.69 20.997,14z"/>
<path fill="#eff0f0" d="m93.988,279.19c7.331-1.609 16.278-9.518 20.998-16.998 1.028,12.366-14.044,17.281-23.997,21.998-1.411-3.51 6.052-3.15 2.995-5z"/>
</g>
</g>
</svg>
