<svg xmlns="http://www.w3.org/2000/svg" viewBox="0 0 213.9 423.38" xmlns:xlink="http://www.w3.org/1999/xlink">
<defs>
<clipPath id="clipPath9211" clipPathUnits="userSpaceOnUse">
<path fill="#0f0" stroke="#000" fill-rule="evenodd" stroke-linecap="round" d="m388.57,293.79a106.43,35.714 0 1,1 -212.86,0 106.43,35.714 0 1,1 212.86,0z" transform="matrix(1.9624 -.11126 .13422 1.6266 -410.14 -296.78)"/>
</clipPath>
<clipPath id="clipPath9167" clipPathUnits="userSpaceOnUse">
<path fill="#0f0" stroke="#000" fill-rule="evenodd" stroke-linecap="round" d="m388.57,293.79a106.43,35.714 0 1,1 -212.86,0 106.43,35.714 0 1,1 212.86,0z" transform="matrix(-.55204 1.7566 -2.1193 -.45758 908.47 -188.69)"/>
</clipPath>
<clipPath id="clipPath9191" clipPathUnits="userSpaceOnUse">
<path fill="#0f0" stroke="#000" fill-rule="evenodd" stroke-linecap="round" d="m388.57,293.79a106.43,35.714 0 1,1 -212.86,0 106.43,35.714 0 1,1 212.86,0z" transform="matrix(1.7224 .56402 -.68045 1.4277 -262.68 -448.84)"/>
</clipPath>
<clipPath id="clipPath9215" clipPathUnits="userSpaceOnUse">
<path fill="#0f0" stroke="#000" fill-rule="evenodd" stroke-linecap="round" d="m388.57,293.79a106.43,35.714 0 1,1 -212.86,0 106.43,35.714 0 1,1 212.86,0z" transform="matrix(2.0173 0 0 1.6721 -324.42 -334.32)"/>
</clipPath>
<clipPath id="clipPath9163" clipPathUnits="userSpaceOnUse">
<path fill="#0f0" stroke="#000" fill-rule="evenodd" stroke-linecap="round" d="m388.57,293.79a106.43,35.714 0 1,1 -212.86,0 106.43,35.714 0 1,1 212.86,0z" transform="matrix(-.45309 1.7502 -2.1115 -.37556 920.81 -308.4)"/>
</clipPath>
<clipPath id="clipPath9155" clipPathUnits="userSpaceOnUse">
<path fill="#0f0" stroke="#000" fill-rule="evenodd" stroke-linecap="round" d="m388.57,293.79a106.43,35.714 0 1,1 -212.86,0 106.43,35.714 0 1,1 212.86,0z" transform="matrix(1.5375 .85554 -1.0322 1.2744 105.9 -408.57)"/>
</clipPath>
<clipPath id="clipPath9159" clipPathUnits="userSpaceOnUse">
<path fill="#0f0" stroke="#000" fill-rule="evenodd" stroke-linecap="round" d="m388.57,293.79a106.43,35.714 0 1,1 -212.86,0 106.43,35.714 0 1,1 212.86,0z" transform="matrix(1.6016 1.3081 -1.5782 1.3276 141.46 -588.57)"/>
</clipPath>
<clipPath id="clipPath9151" clipPathUnits="userSpaceOnUse">
<path fill="#0f0" stroke="#000" fill-rule="evenodd" stroke-linecap="round" d="m388.57,293.79a106.43,35.714 0 1,1 -212.86,0 106.43,35.714 0 1,1 212.86,0z" transform="matrix(1.5593 -1.1086 1.223 1.1819 -631.78 51.482)"/>
</clipPath>
<clipPath id="clipPath9195" clipPathUnits="userSpaceOnUse">
<path fill="#0f0" stroke="#000" fill-rule="evenodd" stroke-linecap="round" d="m388.57,293.79a106.43,35.714 0 1,1 -212.86,0 106.43,35.714 0 1,1 212.86,0z" transform="matrix(1.6058 -.48895 .58988 1.3311 -479.62 -139.14)"/>
</clipPath>
<clipPath id="clipPath9175" clipPathUnits="userSpaceOnUse">
<path fill="#0f0" stroke="#000" fill-rule="evenodd" stroke-linecap="round" d="m388.57,293.79a106.43,35.714 0 1,1 -212.86,0 106.43,35.714 0 1,1 212.86,0z" transform="matrix(1.4025 1.3446 -1.6221 1.1625 185.25 -609.64)"/>
</clipPath>
<clipPath id="clipPath9171" clipPathUnits="userSpaceOnUse">
<path fill="#0f0" stroke="#000" fill-rule="evenodd" stroke-linecap="round" d="m388.57,293.79a106.43,35.714 0 1,1 -212.86,0 106.43,35.714 0 1,1 212.86,0z" transform="matrix(.83552 -1.9535 2.3567 .69255 -903.76 580.98)"/>
</clipPath>
<clipPath id="clipPath9207" clipPathUnits="userSpaceOnUse">
<path fill="#0f0" stroke="#000" fill-rule="evenodd" stroke-linecap="round" d="m388.57,293.79a106.43,35.714 0 1,1 -212.86,0 106.43,35.714 0 1,1 212.86,0z" transform="matrix(-.71367 1.3289 -1.6032 -.59155 810.63 -50.034)"/>
</clipPath>
<clipPath id="clipPath9199" clipPathUnits="userSpaceOnUse">
<path fill="#0f0" stroke="#000" fill-rule="evenodd" stroke-linecap="round" d="m388.57,293.79a106.43,35.714 0 1,1 -212.86,0 106.43,35.714 0 1,1 212.86,0z" transform="matrix(.34225 -1.5289 1.8445 .28368 -578.94 524.97)"/>
</clipPath>
<clipPath id="clipPath9179" clipPathUnits="userSpaceOnUse">
<path fill="#0f0" stroke="#000" fill-rule="evenodd" stroke-linecap="round" d="m388.57,293.79a106.43,35.714 0 1,1 -212.86,0 106.43,35.714 0 1,1 212.86,0z" transform="matrix(2.3571 .69719 -.84111 1.9537 -346.79 -678.84)"/>
</clipPath>
<clipPath id="clipPath9203" clipPathUnits="userSpaceOnUse">
<path fill="#0f0" stroke="#000" fill-rule="evenodd" stroke-linecap="round" d="m388.57,293.79a106.43,35.714 0 1,1 -212.86,0 106.43,35.714 0 1,1 212.86,0z" transform="matrix(1.347 1.4602 -1.7616 1.1166 205.73 -631.24)"/>
</clipPath>
<clipPath id="clipPath9187" clipPathUnits="userSpaceOnUse">
<path fill="#0f0" stroke="#000" fill-rule="evenodd" stroke-linecap="round" d="m388.57,293.79a106.43,35.714 0 1,1 -212.86,0 106.43,35.714 0 1,1 212.86,0z" transform="matrix(1.7452 -1.1649 1.4054 1.4466 -771.07 36.221)"/>
</clipPath>
<clipPath id="clipPath9183" clipPathUnits="userSpaceOnUse">
<path fill="#0f0" stroke="#000" fill-rule="evenodd" stroke-linecap="round" d="m388.57,293.79a106.43,35.714 0 1,1 -212.86,0 106.43,35.714 0 1,1 212.86,0z" transform="matrix(-.39301 -1.4707 1.7743 -.32576 -351.77 671.58)"/>
</clipPath>
<linearGradient id="linearGradient9253">
<stop offset="0" stop-color="#515151"/>
<stop offset=".31" stop-color="#a9a9a9"/>
<stop offset="1" stop-color="#656565"/>
</linearGradient>
<linearGradient id="linearGradient9221">
<stop offset="0" stop-color="#fbff15" stop-opacity=".551"/>
<stop offset="1" stop-color="#f23505" stop-opacity=".492"/>
</linearGradient>
<linearGradient gradientTransform="translate(2.8571)" id="linearGradient9303" xlink:href="#linearGradient9295" y1="139.51" y2="283.79" x1="311.73" gradientUnits="userSpaceOnUse" x2="311.82"/>
<linearGradient id="linearGradient9080" y1="153.75" y2="176.45" x1="103.39" gradientUnits="userSpaceOnUse" x2="126.62">
<stop offset="0" stop-color="#f2f2f2"/>
<stop offset=".238" stop-color="#e3e3e3"/>
<stop offset=".589" stop-color="#d25454"/>
<stop offset=".82" stop-color="#494949"/>
<stop offset="1" stop-color="#6a6a6a"/>
</linearGradient>
<linearGradient id="linearGradient2581" y1="349.8" y2="377.58" x1="206.07" gradientUnits="userSpaceOnUse" x2="351.03">
<stop offset="0" stop-color="#800000"/>
<stop offset=".566" stop-color="#e10000"/>
<stop offset="1" stop-color="#c30000"/>
</linearGradient>
<linearGradient gradientTransform="matrix(1 0 0 .7076 298.28 81.455)" id="linearGradient9259" xlink:href="#linearGradient9253" x1="37.143" gradientUnits="userSpaceOnUse" x2="52.143"/>
<linearGradient gradientTransform="matrix(.81168 0 0 1 31.31 7.8571)" id="linearGradient9301" xlink:href="#linearGradient9295" y1="149.38" y2="282.24" x1="256.69" gradientUnits="userSpaceOnUse" x2="262.5"/>
<linearGradient gradientTransform="matrix(1 0 0 .7076 116.3 259.19)" id="linearGradient9267" xlink:href="#linearGradient9253" x1="37.143" gradientUnits="userSpaceOnUse" x2="52.143"/>
<linearGradient id="linearGradient3819" y1="282.68" y2="307.43" x1="212.08" gradientUnits="userSpaceOnUse" x2="364.83">
<stop offset="0" stop-color="#6e6e6e"/>
<stop offset=".5" stop-color="#a0a0a0"/>
<stop offset="1" stop-color="#6a6a6a"/>
</linearGradient>
<linearGradient gradientTransform="matrix(.99979 0 0 .56194 218.89 231.48)" id="linearGradient9271" xlink:href="#linearGradient9253" x1="37.143" gradientUnits="userSpaceOnUse" x2="52.143"/>
<linearGradient id="linearGradient9295">
<stop offset="0" stop-color="#515151" stop-opacity="0"/>
<stop offset=".31" stop-color="#828282" stop-opacity=".28"/>
<stop offset=".893" stop-color="#939393" stop-opacity=".4"/>
<stop offset="1" stop-color="#797979" stop-opacity="0"/>
</linearGradient>
<radialGradient cx="146.4" cy="214.54" gradientTransform="matrix(1.3037 -.29877 .68243 2.7799 -58.993 -234.85)" id="radialGradient9245" xlink:href="#linearGradient9221" r="8.586" gradientUnits="userSpaceOnUse"/>
<radialGradient cx="146.4" cy="214.54" gradientTransform="matrix(1.3037 -.29877 .68243 2.7799 -89.803 -247.98)" id="radialGradient9249" xlink:href="#linearGradient9221" r="8.586" gradientUnits="userSpaceOnUse"/>
<radialGradient cx="146.4" cy="214.54" gradientTransform="matrix(1.3037 -.29877 .68243 2.7799 -44.851 -243.44)" id="radialGradient9233" xlink:href="#linearGradient9221" r="8.586" gradientUnits="userSpaceOnUse"/>
<radialGradient cx="146.4" cy="214.54" gradientTransform="matrix(1.3037 -.29877 .68243 2.7799 -23.133 -244.95)" id="radialGradient9241" xlink:href="#linearGradient9221" r="8.586" gradientUnits="userSpaceOnUse"/>
<radialGradient cx="146.4" cy="214.54" gradientTransform="matrix(1.3037 -.29877 .68243 2.7799 -103.45 -244.45)" id="radialGradient9229" xlink:href="#linearGradient9221" r="8.586" gradientUnits="userSpaceOnUse"/>
<radialGradient cx="146.4" cy="214.54" gradientTransform="matrix(1.3037 -.29877 .68243 2.7799 -75.661 -236.87)" id="radialGradient9237" xlink:href="#linearGradient9221" r="8.586" gradientUnits="userSpaceOnUse"/>
</defs>
<g fill-rule="evenodd">
<g transform="translate(-175.17 -135.76)">
<path fill="url(#linearGradient9271)" d="m256.02,407.01h14.997v137.27h-14.997z" transform="matrix(.99963 -.02706 .04292 .99908 0 0)"/>
</g>
<g stroke-linecap="round" transform="translate(-175.17 -135.76)">
<path fill="url(#linearGradient2581)" stroke="#800000" d="m176.38,297.78c-.4367,4.1194-.6562,8.2899-.6562,12.531 0,61.847 47.689,112.06 106.44,112.06 58.749,0 106.41-50.215 106.41-112.06 0-4.2414-.2196-8.4119-.6562-12.531h-211.53z"/>
<path fill="url(#linearGradient3819)" stroke="#ececec" d="m388.57,293.79c0,19.724-47.65,35.714-106.43,35.714-58.779,0-106.43-15.99-106.43-35.714s47.65-35.714 106.43-35.714c58.779,0 106.43,15.99 106.43,35.714z"/>
</g>
<g transform="translate(-175.17 -135.76)">
<path fill="url(#linearGradient9259)" d="m335.43,302.48h15v172.86h-15z" transform="rotate(17.629)"/>
<path fill="url(#linearGradient9267)" d="m153.44,480.22h15v172.86h-15z" transform="matrix(.93534 -.35375 .35375 .93534 0 0)"/>
</g>
<g stroke="#000" stroke-linecap="round" transform="translate(-175.17 -135.76)">
<path fill="url(#linearGradient9080)" d="m128.45,173.49c-.5707,3.7559-.4596,6.0896-3.7727,8.4185s-8.4981,3.4548-12.376,3.902c-3.8778,.4473-8.982-1.259-11.877-3.6356-2.8949-2.3766-6.2606-7.2698-6.8923-10.916-.6317-3.6459 2.255-8.0481 4.1926-11.569 1.9376-3.5206 4.5605-7.7109 7.9797-9.4616s8.129,1.2442 11.596,2.8592c3.4668,1.615 9.5492,2.1069 11.206,5.7 1.657,3.5931 .5141,10.946-.0566,14.702z" clip-path="url(#clipPath9215)" transform="matrix(.49572 0 0 .59805 160.82 199.94)"/>
<path fill="url(#linearGradient9080)" d="m128.45,173.49c-.5707,3.7559-.4596,6.0896-3.7727,8.4185s-8.4981,3.4548-12.376,3.902c-3.8778,.4473-8.982-1.259-11.877-3.6356-2.8949-2.3766-6.2606-7.2698-6.8923-10.916-.6317-3.6459 2.255-8.0481 4.1926-11.569 1.9376-3.5206 4.5605-7.7109 7.9797-9.4616s8.129,1.2442 11.596,2.8592c3.4668,1.615 9.5492,2.1069 11.206,5.7 1.657,3.5931 .5141,10.946-.0566,14.702z" clip-path="url(#clipPath9211)" transform="matrix(.50721 .03469 -.04185 .61191 195.6 195.83)"/>
<path fill="url(#linearGradient9080)" d="m128.45,173.49c-.5707,3.7559-.4596,6.0896-3.7727,8.4185s-8.4981,3.4548-12.376,3.902c-3.8778,.4473-8.982-1.259-11.877-3.6356-2.8949-2.3766-6.2606-7.2698-6.8923-10.916-.6317-3.6459 2.255-8.0481 4.1926-11.569 1.9376-3.5206 4.5605-7.7109 7.9797-9.4616s8.129,1.2442 11.596,2.8592c3.4668,1.615 9.5492,2.1069 11.206,5.7 1.657,3.5931 .5141,10.946-.0566,14.702z" clip-path="url(#clipPath9207)" transform="matrix(-.23175 -.52059 .62806 -.27959 219.28 408.02)"/>
<path fill="url(#linearGradient9080)" d="m128.45,173.49c-.5707,3.7559-.4596,6.0896-3.7727,8.4185s-8.4981,3.4548-12.376,3.902c-3.8778,.4473-8.982-1.259-11.877-3.6356-2.8949-2.3766-6.2606-7.2698-6.8923-10.916-.6317-3.6459 2.255-8.0481 4.1926-11.569 1.9376-3.5206 4.5605-7.7109 7.9797-9.4616s8.129,1.2442 11.596,2.8592c3.4668,1.615 9.5492,2.1069 11.206,5.7 1.657,3.5931 .5141,10.946-.0566,14.702z" clip-path="url(#clipPath9203)" transform="matrix(.27392 -.35821 .43216 .33046 216.44 282.3)"/>
<path fill="url(#linearGradient9080)" d="m128.45,173.49c-.5707,3.7559-.4596,6.0896-3.7727,8.4185s-8.4981,3.4548-12.376,3.902c-3.8778,.4473-8.982-1.259-11.877-3.6356-2.8949-2.3766-6.2606-7.2698-6.8923-10.916-.6317-3.6459 2.255-8.0481 4.1926-11.569 1.9376-3.5206 4.5605-7.7109 7.9797-9.4616s8.129,1.2442 11.596,2.8592c3.4668,1.615 9.5492,2.1069 11.206,5.7 1.657,3.5931 .5141,10.946-.0566,14.702z" clip-path="url(#clipPath9199)" transform="matrix(.09724 .5241 -.63229 .11732 388.24 241.83)"/>
<path fill="url(#linearGradient9080)" d="m128.45,173.49c-.5707,3.7559-.4596,6.0896-3.7727,8.4185s-8.4981,3.4548-12.376,3.902c-3.8778,.4473-8.982-1.259-11.877-3.6356-2.8949-2.3766-6.2606-7.2698-6.8923-10.916-.6317-3.6459 2.255-8.0481 4.1926-11.569 1.9376-3.5206 4.5605-7.7109 7.9797-9.4616s8.129,1.2442 11.596,2.8592c3.4668,1.615 9.5492,2.1069 11.206,5.7 1.657,3.5931 .5141,10.946-.0566,14.702z" clip-path="url(#clipPath9195)" transform="matrix(.54869 .20156 -.24316 .66196 229.33 188.77)"/>
<path fill="url(#linearGradient9080)" d="m128.45,173.49c-.5707,3.7559-.4596,6.0896-3.7727,8.4185s-8.4981,3.4548-12.376,3.902c-3.8778,.4473-8.982-1.259-11.877-3.6356-2.8949-2.3766-6.2606-7.2698-6.8923-10.916-.6317-3.6459 2.255-8.0481 4.1926-11.569 1.9376-3.5206 4.5605-7.7109 7.9797-9.4616s8.129,1.2442 11.596,2.8592c3.4668,1.615 9.5492,2.1069 11.206,5.7 1.657,3.5931 .5141,10.946-.0566,14.702z" clip-path="url(#clipPath9191)" transform="matrix(.5022 -.19839 .23935 .60587 239.35 219.82)"/>
<path fill="url(#linearGradient9080)" d="m128.45,173.49c-.5707,3.7559-.4596,6.0896-3.7727,8.4185s-8.4981,3.4548-12.376,3.902c-3.8778,.4473-8.982-1.259-11.877-3.6356-2.8949-2.3766-6.2606-7.2698-6.8923-10.916-.6317-3.6459 2.255-8.0481 4.1926-11.569 1.9376-3.5206 4.5605-7.7109 7.9797-9.4616s8.129,1.2442 11.596,2.8592c3.4668,1.615 9.5492,2.1069 11.206,5.7 1.657,3.5931 .5141,10.946-.0566,14.702z" clip-path="url(#clipPath9187)" transform="matrix(.3476 .27991 -.33769 .41935 280.25 200.64)"/>
<path fill="url(#linearGradient9080)" d="m128.45,173.49c-.5707,3.7559-.4596,6.0896-3.7727,8.4185s-8.4981,3.4548-12.376,3.902c-3.8778,.4473-8.982-1.259-11.877-3.6356-2.8949-2.3766-6.2606-7.2698-6.8923-10.916-.6317-3.6459 2.255-8.0481 4.1926-11.569 1.9376-3.5206 4.5605-7.7109 7.9797-9.4616s8.129,1.2442 11.596,2.8592c3.4668,1.615 9.5492,2.1069 11.206,5.7 1.657,3.5931 .5141,10.946-.0566,14.702z" clip-path="url(#clipPath9183)" transform="matrix(-.119 .53725 -.64815 -.14357 393.43 285.4)"/>
<path fill="url(#linearGradient9080)" d="m128.45,173.49c-.5707,3.7559-.4596,6.0896-3.7727,8.4185s-8.4981,3.4548-12.376,3.902c-3.8778,.4473-8.982-1.259-11.877-3.6356-2.8949-2.3766-6.2606-7.2698-6.8923-10.916-.6317-3.6459 2.255-8.0481 4.1926-11.569 1.9376-3.5206 4.5605-7.7109 7.9797-9.4616s8.129,1.2442 11.596,2.8592c3.4668,1.615 9.5492,2.1069 11.206,5.7 1.657,3.5931 .5141,10.946-.0566,14.702z" clip-path="url(#clipPath9179)" transform="matrix(.37633 -.13429 .16202 .45402 240.49 261.64)"/>
<path fill="url(#linearGradient9080)" d="m128.45,173.49c-.5707,3.7559-.4596,6.0896-3.7727,8.4185s-8.4981,3.4548-12.376,3.902c-3.8778,.4473-8.982-1.259-11.877-3.6356-2.8949-2.3766-6.2606-7.2698-6.8923-10.916-.6317-3.6459 2.255-8.0481 4.1926-11.569 1.9376-3.5206 4.5605-7.7109 7.9797-9.4616s8.129,1.2442 11.596,2.8592c3.4668,1.615 9.5492,2.1069 11.206,5.7 1.657,3.5931 .5141,10.946-.0566,14.702z" clip-path="url(#clipPath9175)" transform="matrix(.305 -.35277 .42559 .36796 202.96 289.67)"/>
<path fill="url(#linearGradient9080)" d="m128.45,173.49c-.5707,3.7559-.4596,6.0896-3.7727,8.4185s-8.4981,3.4548-12.376,3.902c-3.8778,.4473-8.982-1.259-11.877-3.6356-2.8949-2.3766-6.2606-7.2698-6.8923-10.916-.6317-3.6459 2.255-8.0481 4.1926-11.569 1.9376-3.5206 4.5605-7.7109 7.9797-9.4616s8.129,1.2442 11.596,2.8592c3.4668,1.615 9.5492,2.1069 11.206,5.7 1.657,3.5931 .5141,10.946-.0566,14.702z" clip-path="url(#clipPath9171)" transform="matrix(.13363 .37694 -.45475 .16122 384.98 247)"/>
<path fill="url(#linearGradient9080)" d="m128.45,173.49c-.5707,3.7559-.4596,6.0896-3.7727,8.4185s-8.4981,3.4548-12.376,3.902c-3.8778,.4473-8.982-1.259-11.877-3.6356-2.8949-2.3766-6.2606-7.2698-6.8923-10.916-.6317-3.6459 2.255-8.0481 4.1926-11.569 1.9376-3.5206 4.5605-7.7109 7.9797-9.4616s8.129,1.2442 11.596,2.8592c3.4668,1.615 9.5492,2.1069 11.206,5.7 1.657,3.5931 .5141,10.946-.0566,14.702z" clip-path="url(#clipPath9167)" transform="matrix(-.1151 -.44188 .5331 -.13886 205.16 375.23)"/>
<path fill="url(#linearGradient9080)" d="m128.45,173.49c-.5707,3.7559-.4596,6.0896-3.7727,8.4185s-8.4981,3.4548-12.376,3.902c-3.8778,.4473-8.982-1.259-11.877-3.6356-2.8949-2.3766-6.2606-7.2698-6.8923-10.916-.6317-3.6459 2.255-8.0481 4.1926-11.569 1.9376-3.5206 4.5605-7.7109 7.9797-9.4616s8.129,1.2442 11.596,2.8592c3.4668,1.615 9.5492,2.1069 11.206,5.7 1.657,3.5931 .5141,10.946-.0566,14.702z" clip-path="url(#clipPath9163)" transform="matrix(-.09715 -.45274 .5462 -.1172 257.9 380.74)"/>
<path fill="url(#linearGradient9080)" d="m128.45,173.49c-.5707,3.7559-.4596,6.0896-3.7727,8.4185s-8.4981,3.4548-12.376,3.902c-3.8778,.4473-8.982-1.259-11.877-3.6356-2.8949-2.3766-6.2606-7.2698-6.8923-10.916-.6317-3.6459 2.255-8.0481 4.1926-11.569 1.9376-3.5206 4.5605-7.7109 7.9797-9.4616s8.129,1.2442 11.596,2.8592c3.4668,1.615 9.5492,2.1069 11.206,5.7 1.657,3.5931 .5141,10.946-.0566,14.702z" clip-path="url(#clipPath9159)" transform="matrix(.31678 -.31215 .37659 .38218 176.83 269.09)"/>
<path fill="url(#linearGradient9080)" d="m128.45,173.49c-.5707,3.7559-.4596,6.0896-3.7727,8.4185s-8.4981,3.4548-12.376,3.902c-3.8778,.4473-8.982-1.259-11.877-3.6356-2.8949-2.3766-6.2606-7.2698-6.8923-10.916-.6317-3.6459 2.255-8.0481 4.1926-11.569 1.9376-3.5206 4.5605-7.7109 7.9797-9.4616s8.129,1.2442 11.596,2.8592c3.4668,1.615 9.5492,2.1069 11.206,5.7 1.657,3.5931 .5141,10.946-.0566,14.702z" clip-path="url(#clipPath9155)" transform="matrix(.44835 -.30098 .36311 .5409 100.87 252.87)"/>
<path fill="url(#linearGradient9080)" d="m128.45,173.49c-.5707,3.7559-.4596,6.0896-3.7727,8.4185s-8.4981,3.4548-12.376,3.902c-3.8778,.4473-8.982-1.259-11.877-3.6356-2.8949-2.3766-6.2606-7.2698-6.8923-10.916-.6317-3.6459 2.255-8.0481 4.1926-11.569 1.9376-3.5206 4.5605-7.7109 7.9797-9.4616s8.129,1.2442 11.596,2.8592c3.4668,1.615 9.5492,2.1069 11.206,5.7 1.657,3.5931 .5141,10.946-.0566,14.702z" clip-path="url(#clipPath9151)" transform="matrix(.36948 .34658 -.38234 .48748 253.12 193.86)"/>
</g>
<g transform="translate(-175.17 -135.76)">
<path fill="url(#radialGradient9229)" d="m228,313.64s1.6638-4.0189-.8319-16.879-2.9116-19.693-2.9116-19.693 9.5667,8.8416 9.9827,16.477c.416,7.6359 4.1594,20.898 4.1594,20.898l-10.399-.8038z"/>
<path fill="url(#radialGradient9233)" d="m286.6,314.65s1.6638-4.0189-.8319-16.879-2.9116-19.693-2.9116-19.693 9.5667,8.8416 9.9827,16.477c.416,7.6359 4.1594,20.898 4.1594,20.898l-10.399-.8038z"/>
<path fill="url(#radialGradient9237)" d="m255.79,321.22s1.6638-4.0189-.8319-16.879-2.9116-19.693-2.9116-19.693 9.5667,8.8416 9.9827,16.477c.416,7.6359 4.1594,20.898 4.1594,20.898l-10.4-.8z"/>
<path fill="url(#radialGradient9241)" d="m308.32,313.14s1.6638-4.0189-.8319-16.879-2.9116-19.693-2.9116-19.693 9.5667,8.8416 9.9827,16.477c.416,7.6359 4.1594,20.898 4.1594,20.898l-10.399-.8038z"/>
<path fill="url(#radialGradient9245)" d="m272.46,323.24s1.6638-4.0189-.8319-16.879-2.9116-19.693-2.9116-19.693 9.5667,8.8416 9.9827,16.477c.416,7.6359 4.1594,20.898 4.1594,20.898l-10.399-.8038z"/>
<path fill="url(#radialGradient9249)" d="m241.65,310.11s1.6638-4.0189-.8319-16.879-2.9116-19.693-2.9116-19.693 9.5667,8.8416 9.9827,16.477c.416,7.6359 4.1594,20.898 4.1594,20.898l-10.399-.8038z"/>
</g>
</g>
<g transform="translate(-175.17 -135.76)">
<path fill="#515151" stroke="#000" fill-rule="evenodd" stroke-linecap="round" d="m282.86,258.08-68.844,63.219c3.4937,.9737 7.1819,1.868 11.031,2.6875l71.375-65.562c-4.444-.2032-8.9623-.3308-13.562-.3438zm-8.1875,.0937c-4.9932,.1132-9.9061,.3507-14.688,.6875l-61.969,56.875c3.065,1.3183 6.3926,2.5577 9.9688,3.7188l66.688-61.281zm29.312,.6875-72.312,66.406c3.8562,.6955 7.8466,1.3406 11.969,1.875l73.031-67.094c-4.1266-.4786-8.349-.8805-12.688-1.1875zm-52.875,.75c-5.6488,.5735-11.103,1.2904-16.312,2.1562l-50.406,46.312c2.3551,1.8091 5.1339,3.5492 8.3125,5.1875l58.406-53.656zm72.625,1.3438-72.969,67c4.1877,.4303 8.4858,.7756 12.875,1.0312l71.906-66.031c-3.7982-.7453-7.7337-1.4144-11.812-2zm-99.094,2.7812c-7.3441,1.5793-14.066,3.4441-20.031,5.5625l-28.938,26.562c.5019,2.965 2.0942,5.8339 4.625,8.5625l44.344-40.688zm117.41,.625-70.75,64.969c3.5057,.1171 7.0591,.1875 10.656,.1875 1.0491,0 2.0832-.0211 3.125-.0312l67.844-62.281c-3.4297-1.0316-7.0665-1.9667-10.875-2.8438zm16.812,4.7812-65.531,60.156c5.1123-.1827 10.098-.4579 14.969-.875l60.219-55.344c-2.9463-1.3822-6.1664-2.7119-9.6562-3.9375zm14.844,6.5938-56.375,51.75c5.8301-.6906 11.435-1.5574 16.75-2.5625l47.562-43.656c-2.1651-1.9382-4.847-3.7695-7.9375-5.5312zm-185.34,1.0625c-4.9171,3.0362-8.5598,6.3262-10.688,9.8125l10.688-9.8125zm196.94,8.4688-40.719,37.406c8.2164-2.0121 15.52-4.4218 21.719-7.125l21.969-20.156c.0684-.5253 .0937-1.0628 .0937-1.5938 0-2.9428-1.0594-5.7948-3.0625-8.5312z"/>
</g>
<g fill-rule="evenodd">
<g stroke="#000">
<g fill="#800000" stroke-width="1.109" transform="translate(-175.17 -135.76)">
<path d="m228.69,274.42c33.743,1.909 30.967,12.342 16.983,19.726-13.983,7.3838-45.128,15.58-42.808,1.4427 2.3205-14.138 22.328-19.323 25.824-21.169z"/>
<path d="m260.51,289.58c33.743,1.909 30.967,12.342 16.983,19.726-13.983,7.3838-45.128,15.58-42.808,1.4427 2.3205-14.138 22.328-19.323 25.824-21.169z"/>
</g>
<g fill="#e9afaf" stroke-width="1.153" transform="translate(-175.17 -135.76)">
<path d="m317.17,263.95 45.311,16.356c6.5281,3.2541 4.7429,9.6598-2.518,9.035l-45.542-17.683c-4.6403-1.8017-3.4327-7.115 2.7491-7.7086z"/>
<path d="m309.09,275.06 45.311,16.356c6.5281,3.2541 4.7429,9.6598-2.518,9.035l-45.54-17.69c-4.6403-1.8017-3.4327-7.115 2.7491-7.7086z"/>
<path d="m297.97,285.17 45.311,16.356c6.5281,3.2541 4.7429,9.6598-2.518,9.035l-45.542-17.683c-4.6403-1.8017-3.4327-7.115 2.7491-7.7086z"/>
</g>
</g>
<g transform="translate(-175.17 -135.76)">
<path fill="url(#linearGradient9303)" d="m289.29,299.51c-2.1671,1.956 65.234,.9372 63.571-5.7143-1.6629-6.6514-11.122-13.979-17.143-20-7.4933-7.4933-3.5532-32.894 0-40 4.0122-8.0244 10.575-13.729 12.857-22.857 1.7358-6.943 1.4286-15.069 1.4286-22.857 0-7.4966-6.3866-17.059-10-24.286-4.2946-8.5892-7.5671-14.554-10-24.286-2.4329-9.7316-30.714,2.381-30.714,4.2857v5.7143c0,3.4311 .8247,8.1296 0,11.429-.8789,3.5156-2.9823,6.929-3.5714,9.2857-1.0031,4.0125-2.1428,6.7332-2.1428,11.429 0,3.4766-.0519,6.9352 .7143,10 .9227,3.6906 1.1995,6.2266 2.1429,10 .8871,3.5484 2.9712,6.999 3.5714,10 .7895,3.9476 2.1428,9.5336 2.1428,14.286 0,4.0345 .9896,9.6132 0,13.571-.9418,3.7674-2.5151,7.173-4.2857,10.714-1.9501,3.9002-2.1429,7.3379-2.1429,12.143 0,4.334 .7143,8.0478 .7143,12.143 0,4.8707-.3537,8.5578-1.4286,12.857-.9808,3.9232-3.5472,10.187-5.7143,12.143z"/>
<path fill="url(#linearGradient9301)" d="m252.28,311.19c.1233,.6076-34.282,3.3877-34.282-.9719v-44.286c0-.4073 8.4436-28.753 10.436-38.571 2.068-10.191 .666-18.359-2.3191-25.714-3.1506-7.763-7.0306-15.895-10.436-24.286-3.4053-8.3907 49.415-38.392 49.72-36.887 .3054,1.5048 .771,3.7768 .41,5.5558-.5918,2.9165-.8199,6.9175-.8199,10.102 0,3.2935-.6243,6.1071-1.2299,9.0914-.7962,3.9236-1.3709,8.4287-2.8697,12.122-1.5974,3.9359-2.0498,7.47-2.0498,12.122 0,6.4274 .8199,12.947 .8199,19.193 0,5.1392 .5709,11.003 2.4598,15.657 1.3383,3.2975 1.9418,6.8048 3.2797,10.102 1.4934,3.6797 2.4598,8.0212 2.4598,12.122 0,5.032-.41,10.252-.41,15.152 0,6.7141-2.754,11.957-4.9195,18.183-2.1469,6.1717-5.6241,13.069-6.9694,19.698-.9568,4.7153-3.403,11.009-3.2797,11.617z"/>
</g>
</g>
</svg>
