<svg xmlns="http://www.w3.org/2000/svg" viewBox="0 0 530.429 277.12" xmlns:xlink="http://www.w3.org/1999/xlink" enable-background="new 0 0 530.429 277.12">
<path fill="#fdbc5f" d="m529.87,102.28c-9.416-72.938-135.54-116.76-281.7-97.899-146.17,18.871-257.02,93.294-247.61,166.22 9.416,72.932 135.55,116.76 281.7,97.889 146.17-18.86 257.02-93.28 247.61-166.21z"/>
<g fill="#5f6062">
<path d="m74.975,35.752 2.129-3.465 294.826,181.413-2.14,3.48z"/>
<path d="m447.96,273.11c6.382,3.749 13.662,3.209 16.283-1.239 2.604-4.448-.449-11.08-6.823-14.838l-71.649-42.185c-6.366-3.741-13.653-3.186-16.267,1.247-2.617,4.448 .433,11.088 6.814,14.837l71.65,42.18z"/>
<path d="m456.53,277.12c-3.019,0-6.287-.89-9.353-2.685l.774-1.326 .778-1.327c2.617,1.541 5.397,2.272 7.8,2.272 3.003-.017 5.286-1.112 6.374-2.955 .48-.834 .715-1.756 .715-2.78 .032-3.193-2.533-7.363-6.985-9.96l-71.653-42.193c-2.613-1.533-5.386-2.271-7.772-2.271-3.03,.008-5.31,1.104-6.39,2.986-.493,.826-.731,1.747-.731,2.765-.035,3.177 2.515,7.339 7.002,9.96l71.642,42.177-.778,1.327-.782,1.326-71.642-42.177c-5.19-3.082-8.479-7.903-8.511-12.613 0-1.51 .365-3.003 1.147-4.329 1.812-3.082 5.31-4.512 9.043-4.496 3.011,0 6.283,.905 9.337,2.701l71.649,42.185c5.167,3.058 8.464,7.896 8.495,12.613 .008,1.501-.35,2.994-1.132,4.329-1.808,3.026-5.263,4.472-8.96,4.472-.03-.01-.05-.01-.08-.01z"/>
<path d="m369.5,216.1s2.104-.676 7.609,4.916c5.5,5.576 75.981,47.785 75.981,47.785s5.013,1.287 6.597,.23c3.355-2.224 3.952-5.759 3.952-5.759s4.515,10.795-4.619,12.113c-9.139,1.326-83.663-44.838-83.663-44.838s-3.642-2.646-5.246-5.425c-1.61-2.77-.61-9.02-.61-9.02z"/>
<path d="m163,212.12 296.39-178.801 2.1,3.483-296.39,178.798z"/>
<path d="m411.16,64.13c-4.464-7.552-6.001-12.786-6.009-16.656-.06-5.82 3.797-7.933 4.944-8.352l36.855-22.739 .012,.01 2.125,3.457-37.352,23.042-.294,.076c.008,.026 0,0-.179,.087-.199,.103-.48,.274-.774,.566-.557,.591-1.243,1.571-1.268,3.852-.012,2.746 1.176,7.407 5.438,14.582 4.516,7.508 10.206,9.928 16.708,9.988 8.352,.034 17.936-4.583 25.298-9.319 7.371-4.73 12.494-9.422 12.507-9.432l2.752,2.995c-.199,.051-21.077,19.653-40.557,19.824-.063,0-.131,.002-.195,.002-7.56-.001-15.01-3.417-20.02-11.983z"/>
<path d="m86.44,270.87c-6.41,3.701-13.686,3.082-16.267-1.382-2.565-4.473 .541-11.081 6.942-14.774l72.015-41.558c6.402-3.693 13.694-3.065 16.263,1.391 2.577,4.479-.528,11.088-6.938,14.781l-72.01,41.54z"/>
<path d="m68.835,270.25c-.75-1.312-1.116-2.78-1.104-4.258 .032-4.742 3.368-9.579 8.614-12.613l72.011-41.55c3.022-1.755 6.243-2.629 9.229-2.629 3.777-.016 7.315,1.445 9.134,4.575 .759,1.318 1.112,2.788 1.104,4.266-.04,4.733-3.376,9.555-8.606,12.613l-72.011,41.541-.767-1.326 .759,1.326c-3.03,1.748-6.263,2.613-9.238,2.613h-.067c-3.749,0-7.26-1.46-9.051-4.56zm81.065-55.77l-72.026,41.56c-4.523,2.573-7.117,6.751-7.085,9.952 .012,.993 .238,1.906 .715,2.725 1.072,1.882 3.388,3.01 6.458,3.026 2.379,0 5.107-.707 7.708-2.2l-.004-.008 72.011-41.534c4.52-2.598 7.121-6.775 7.077-9.96 0-1.009-.23-1.907-.695-2.725-1.088-1.906-3.412-3.034-6.474-3.042-2.38-.01-5.11,.71-7.69,2.2z"/>
<path d="m165.61,214.03s-2.113-.675-7.645,4.877-76.229,47.396-76.229,47.396-5.024,1.264-6.589,.199c-3.332-2.248-3.932-5.775-3.932-5.775s-4.575,10.771 4.556,12.137c9.126,1.375 83.897-44.408 83.897-44.408s3.658-2.629 5.282-5.401c1.64-2.79 .67-9.04 .67-9.04z"/>
<path d="m146.37,169.6 341.62-55.88 .66,4.01-341.62,55.89z"/>
<path d="m53.478,195.7c-7.319,1.049-13.853-2.232-14.587-7.331-.731-5.107 4.611-10.096 11.942-11.137l82.289-11.818c7.315-1.049 13.853,2.224 14.591,7.323 .719,5.107-4.619,10.095-11.938,11.136l-82.292,11.83z"/>
<path d="m37.365,188.6c-.06-.381-.088-.778-.088-1.175 .111-5.941 5.978-10.644 13.337-11.708l82.276-11.819c.997-.143 1.974-.223 2.936-.223 6.576,0 12.494,3.249 13.403,8.873 .052,.373 .075,.746 .075,1.119-.111,5.941-5.977,10.651-13.312,11.732l-82.301,11.818c-1.001,.151-1.978,.207-2.939,.207-6.586,0-12.503-3.26-13.385-8.82zm95.965-21.67l-82.293,11.827c-6.418,.874-10.795,5.083-10.691,8.666 0,.238 .024,.477 .06,.738 .381,3.312 4.615,6.195 10.346,6.195 .822,0 1.652-.056 2.498-.175l82.301-11.827c6.394-.897 10.794-5.107 10.684-8.689 0-.246-.016-.484-.048-.699-.401-3.336-4.643-6.219-10.361-6.219-.8,0-1.64,.07-2.49,.19z"/>
<path d="m484.05,75.725l14.091,78.336-75.625,11.191s-9.103-5.64-14.742-36.988c-5.64-31.331 .294-38.865 .294-38.865l75.98-13.67z"/>
<path d="m421.44,166.98c-.671-.421-9.988-6.704-15.667-38.354-1.84-10.195-2.475-17.932-2.475-23.781 0-12.288 2.812-16.239 3.169-16.704l.473-.612 76.749-13.799 1.993-.361 14.83,82.396-78.444,11.604-.63-.39zm-12.79-73.792c-.619,2.137-1.291,5.814-1.283,11.652-.008,5.548 .604,13.062 2.399,23.062 4.583,25.467 11.418,33.426 13.324,35.205l72.674-10.755-13.36-74.267-73.039,13.136c-.19,.426-.44,1.061-.71,1.979z"/>
<path d="m147.5,171.85s-1.708-1.406-8.9,1.707c-7.188,3.114-88.349,15.895-88.349,15.895s-5.123-.676-6.2-2.248c-2.26-3.328-1.509-6.823-1.509-6.823s-8.241,8.324-.25,12.971c7.971,4.639 94.362-10.294 94.362-10.294s4.369-1.096 6.903-3.073c2.54-1.98 3.95-8.15 3.95-8.15z"/>
<path d="m445.85,122.88c-2.629,.39-4.983-.774-5.254-2.605-.278-1.827 1.628-3.634 4.253-4.027l29.553-4.417c2.621-.393 4.972,.767 5.25,2.601 .27,1.831-1.637,3.634-4.27,4.02l-29.53,4.43z"/>
<path d="m442.46,104.08c-2.621,.397-4.972-.767-5.246-2.597-.277-1.831 1.633-3.634 4.266-4.027l29.531-4.428c2.621-.393 4.977,.774 5.255,2.602 .278,1.839-1.637,3.638-4.258,4.035l-29.54,4.418z"/>
<path d="m449.65,144.04c-2.625,.381-4.979-.778-5.254-2.605-.274-1.837 1.64-3.628 4.262-4.025l29.54-4.428c2.621-.393 4.976,.778 5.246,2.605 .277,1.831-1.633,3.634-4.258,4.023l-29.54,4.42z"/>
<path d="m54.395,102.58 .941-3.955 336.684,80.435-.94,3.94z"/>
<path d="m482.79,211.8c7.221,1.58 13.984-1.216 15.076-6.26 1.112-5.02-3.872-10.389-11.1-11.962l-81.213-17.744c-7.232-1.573-13.976,1.231-15.092,6.259-1.096,5.036 3.876,10.397 11.108,11.97l81.21,17.73z"/>
<path d="m482.46,213.3l.325-1.501 .33-1.502c1.263,.278 2.498,.397 3.693,.397 5.135,0 8.956-2.431 9.556-5.488 .079-.342 .115-.715 .115-1.097 .091-3.471-3.96-7.752-10.04-9.039l-81.213-17.744c-1.255-.271-2.498-.397-3.678-.397-5.166,0-8.983,2.431-9.591,5.497-.079,.357-.119,.715-.119,1.072-.095,3.479 3.939,7.752 10.056,9.062l81.221,17.736-.33,1.502-.33,1.5-81.221-17.737c-7.021-1.572-12.375-6.386-12.466-12.064 0-.604 .059-1.176 .186-1.748 1.196-5.1 6.605-7.903 12.59-7.903 1.41,0 2.859,.159 4.329,.485l81.213,17.736c6.989,1.541 12.359,6.354 12.454,12.041 0,.572-.051,1.16-.183,1.756-1.184,5.107-6.589,7.903-12.554,7.903-1.41-.01-2.88-.16-4.35-.48z"/>
<path d="m62.008,61.024l-19.718,77.116 74.62,16.614s9.496-4.972 17.387-35.812c7.879-30.851 2.518-38.792 2.518-38.792l-74.812-19.124z"/>
<path d="m39.792,139.66l20.242-79.135 .492-1.972 77.531,19.817 .441,.638c.274,.417 2.125,3.485 2.125,11.915-.008,6.203-.992,15.322-4.356,28.519-7.963,31.134-17.713,36.726-18.416,37.107l-.663,.342-77.388-17.23zm4.98-3.06l71.705,15.972c.179-.144 .394-.326 .644-.564 .89-.834 2.224-2.287 3.82-4.718 3.205-4.846 7.482-13.593 11.383-28.855 3.304-12.943 4.229-21.74 4.229-27.51 0-5.199-.747-7.917-1.172-9.041l-71.907-18.38-18.701,73.091zm16.736-73.606l.5-1.972-.5,1.972z"/>
<path d="m390.74,181.22s1.8-1.278 8.758,2.352c6.941,3.622 86.959,22.24 86.959,22.24s5.167-.317 6.351-1.804c2.506-3.152 1.998-6.695 1.998-6.695s7.604,8.888-.688,12.947c-8.288,4.066-93.373-17.078-93.373-17.078s-4.281-1.405-6.66-3.558c-2.39-2.16-3.35-8.41-3.35-8.41z"/>
</g>
<g stroke="#010101">
<path fill="none" stroke-width="4.067" d="M 75.821,24.941 370.64,206.36"/>
<path fill="#ef4135" stroke-width="3.072" d="m447.74,264.03c6.382,3.749 13.662,3.209 16.283-1.239 2.605-4.448-.448-11.08-6.823-14.837l-71.649-42.186c-6.366-3.741-13.653-3.185-16.267,1.247-2.617,4.448 .433,11.089 6.814,14.838l71.65,42.18z"/>
</g>
<path fill="#010101" d="m369.28,207.02s2.104-.675 7.609,4.917c5.5,5.576 75.982,47.785 75.982,47.785s5.012,1.286 6.596,.229c3.356-2.224 3.952-5.759 3.952-5.759s4.516,10.795-4.619,12.113c-9.138,1.326-83.663-44.838-83.663-44.838s-3.642-2.645-5.246-5.425c-1.61-2.77-.61-9.02-.61-9.02z"/>
<g stroke="#010101">
<g fill="none" stroke-width="4.067">
<path d="m460.23,25.982-296.4,178.798"/>
<path d="m447.8,9.042l-37.098,22.885s-9.591,2.548 1.986,22.085c17.121,28.887 57.638-8.3 57.638-8.3"/>
</g>
<g>
<path fill="#ef4135" stroke-width="3.072" d="m86.222,261.79c-6.41,3.702-13.686,3.082-16.267-1.382-2.565-4.472 .54-11.08 6.942-14.773l72.015-41.558c6.402-3.693 13.693-3.066 16.263,1.39 2.578,4.479-.528,11.089-6.938,14.782l-72.008,41.54z"/>
</g>
</g>
<path fill="#010101" d="m165.39,204.95s-2.113-.675-7.646,4.877c-5.532,5.553-76.229,47.396-76.229,47.396s-5.023,1.263-6.588,.198c-3.332-2.248-3.932-5.774-3.932-5.774s-4.575,10.771 4.555,12.137c9.126,1.374 83.897-44.409 83.897-44.409s3.658-2.629 5.282-5.401c1.64-2.79 .67-9.04 .67-9.04z"/>
<g stroke="#010101">
<path fill="none" stroke-width="4.067" d="m488.1,106.65-341.62,55.89"/>
<path fill="#ef4135" stroke-width="3.072" d="m53.259,186.63c-7.319,1.049-13.853-2.231-14.587-7.331-.731-5.107 4.61-10.096 11.942-11.136l82.289-11.819c7.315-1.049 13.853,2.224 14.591,7.323 .719,5.107-4.619,10.096-11.938,11.136l-82.291,11.83z"/>
<path fill="#dcddde" stroke-width="4.067" d="m483.83,66.646l14.091,78.335-75.62,11.19s-9.103-5.64-14.741-36.988c-5.641-31.331 .293-38.865 .293-38.865l75.98-13.669z"/>
</g>
<g fill="#010101">
<path d="m147.28,162.77s-1.708-1.405-8.899,1.708c-7.188,3.113-88.35,15.894-88.35,15.894s-5.123-.675-6.2-2.248c-2.26-3.328-1.509-6.822-1.509-6.822s-8.24,8.324-.25,12.971c7.971,4.639 94.362-10.294 94.362-10.294s4.369-1.097 6.902-3.074c2.54-1.97 3.95-8.14 3.95-8.14z"/>
<path d="m445.63,113.8c-2.629,.389-4.984-.774-5.255-2.605-.277-1.827 1.629-3.634 4.254-4.027l29.552-4.416c2.621-.394 4.973,.766 5.25,2.601 .271,1.831-1.637,3.634-4.27,4.019l-29.53,4.43z"/>
<path d="m442.24,94.999c-2.622,.397-4.973-.767-5.247-2.598-.277-1.831 1.633-3.634 4.266-4.027l29.532-4.428c2.621-.391 4.976,.776 5.254,2.603 .278,1.837-1.636,3.636-4.257,4.033l-29.54,4.417z"/>
<path d="m449.43,134.96c-2.625,.385-4.98-.775-5.255-2.605-.273-1.835 1.641-3.626 4.262-4.023l29.54-4.428c2.621-.393 4.977,.778 5.246,2.605 .278,1.831-1.633,3.634-4.258,4.023l-29.54,4.42z"/>
</g>
<g stroke="#010101">
<path fill="none" stroke-width="4.067" d="m54.649,91.527 336.691,80.433"/>
<path fill="#ef4135" stroke-width="3.072" d="m482.57,202.72c7.22,1.581 13.983-1.216 15.075-6.259 1.112-5.021-3.872-10.39-11.1-11.963l-81.213-17.744c-7.232-1.572-13.976,1.231-15.092,6.259-1.096,5.036 3.877,10.397 11.108,11.971l81.22,17.73z"/>
<path fill="#dcddde" stroke-width="4.067" d="m61.79,51.946l-19.718,77.112 74.62,16.615s9.496-4.971 17.387-35.813c7.88-30.852 2.518-38.791 2.518-38.791l-74.81-19.133z"/>
</g>
<path fill="#010101" d="m390.52,172.14s1.799-1.279 8.757,2.351c6.942,3.622 86.959,22.24 86.959,22.24s5.168-.317 6.352-1.803c2.506-3.153 1.997-6.696 1.997-6.696s7.605,8.889-.687,12.947c-8.289,4.066-93.374-17.077-93.374-17.077s-4.281-1.406-6.66-3.559c-2.39-2.15-3.35-8.4-3.35-8.4z"/>
<path fill="#fff" stroke="#010101" stroke-width="3.382" d="m309.49,234.53l11.228-110.98s64.91-4.035 57.777-43.609c-7.137-39.563-36.446-39.925-36.446-39.925s1.172-26.132-24.548-28.444c-25.724-2.311-49.254-9.114-58.051,8.022-8.082,15.731 0,0 0,0s-19.917-3.956-30.958-2.852c-11.041,1.104-25.175,15.997-25.175,15.997s-51.443-4.63-50.005,25.743c1.438,30.372 21.215,36.941 21.215,36.941s-10.933,18.181 5.568,23.861c16.498,5.671 22.928,6.251 22.928,6.251l10.254,102.73 96.2,6.27z"/>
<path fill="#010101" d="m299.9,207.68-74.46-10.7 .55,5.61z"/>
<g fill="#dcddde">
<path d="m374.09,93.001s-14.376,10.457-22.875,10.457-34.544-4.778-36.602-4.575c-86.927,8.495 4.575,20.914 4.575,20.914s16.99-1.303 28.103-5.227 26.79-21.569 26.79-21.569z"/>
<path d="m179.32,98.882s-7.192,6.537-4.575,10.457 20.267,11.768 28.762,12.419 30.064,2.613 32.677-4.575c2.613-7.188-11.767-10.457-24.837-12.419-13.07-1.96-32.02-5.878-32.02-5.878z"/>
</g>
</svg>
