<svg xmlns="http://www.w3.org/2000/svg" viewBox="0 0 263.82 262.2" xmlns:xlink="http://www.w3.org/1999/xlink">
<defs>
<linearGradient id="linearGradient7600" y1="24.973" y2="118.01" x1="-2174.7" gradientUnits="userSpaceOnUse" x2="-2335.8">
<stop offset="0" stop-color="#fff" stop-opacity=".672"/>
<stop offset="1" stop-color="#fff" stop-opacity="0"/>
</linearGradient>
</defs>
<g color="#000">
<g transform="translate(-255.52 -401.83)">
<path fill="#bfbb11" d="m448.61,452.25c-.3875-.2992-.5565-.1875-.674-.1812-.1174,.006-.2142,.02-.3012,.0388-.1737,.0376-.3519,.098-.5715,.1692-.4391,.1424-1.0056,.3496-1.6998,.6206-1.3887,.5419-3.2469,1.319-5.2491,2.1872-4.0045,1.7363-8.5808,3.8421-11.229,5.2341-36.548,19.208-77.319,51.823-109.59,87.626-8.909,8.4256-24.81,28.488-27.239,36.822-7.4452,13.678-10.312,24.513-7.6739,31.376 .8516,2.2151 3.4265,5.1368 9.2358,11.097 .7536,.7731 2.569,2.2803 5.0252,4.2523s5.4944,4.3696 8.5724,6.6855c9.8805,7.4342 12.177,8.9106 18.831,12.197 13.416,6.626 29.633,11.581 38.665,11.673 8.41,.0858 19.557-3.7677 28.079-9.6223 14.651-10.065 29.176-28.519 39.874-50.466 18.588-38.134 26.876-87.843 21.153-126.94-.5869-4.0099-1.623-9.4178-2.6143-13.92-.4957-2.2513-.9897-4.2839-1.396-5.791-.203-.7535-.3793-1.3672-.5434-1.8437-.0824-.2383-.1506-.4424-.233-.6207-.0825-.1784-.0773-.331-.4212-.5964z"/>
<path fill="#6e0143" d="m480.08,449.54c-1.6252-1.1704-3.2845-1.7592-5.3757-2.217-2.2527-.4932-5.5238-.455-9.1369-.068-3.6006,.3855-7.4996,1.1406-10.784,2.1532-.0132,.003-.0258,.001-.0377,.005l-4.5011,1.3065c-.8198,.2275-1.0567,1.5143-.3717,2.0189l10.479,7.818c.008,.007 .012,.009 .0204,.0163 7.73,6.0139 11.447,9.2537 15.982,13.999 19.285,20.179 30.67,43.516 32.885,67.128 .1709,1.8213 .3578,3.464 .5256,4.6783 .0838,.6071 .175,1.1082 .2478,1.4799 .1927,2.9115-.3003,9.0007-.5077,12.115 1.2645-2.5976 2.8433-11.332 3.0507-11.983 .0659-.3167 .1041-.6983 .1558-1.1682 .1034-.94 .2147-2.2053 .2927-3.6736 .1562-2.9365 .2246-6.6214 .1836-9.7259-.3561-27.046-9.5753-54.095-25.865-75.782-2.821-3.7557-4.6896-6.0234-6.5414-7.5591-.2317-.1921-.469-.3741-.7011-.5412z"/>
<path fill="#c93c00" d="m447.41,450.92c-.0186-.005-.0383-.009-.0581-.0113l-1.46-.788c-.8033-.4252-3.7925-2.0214-6.6189-3.5497-37.003-20.008-83.263-23.973-119.44-10.177-20.422,7.7881-38.531,21.882-48.177,37.546-17.466,28.364-21.014,67.525-9.3738,102.63 2.7223,8.2098 9.9877,23.035 14.816,30.224 1.034,1.5392 2.0508,2.9861 2.8422,4.093 .3959,.5535 .7325,1.0327 1.0009,1.383 .4031,.6386 2.7398,3.5509 3.518,4.14-.5673-2.5621-1.021-4.9887-.9436-7.0356 .2396-6.959 3.6536-16.203 9.8849-26.685 6.2314-10.482 15.092-22.257 25.793-34.378 21.4-24.243 50.177-49.942 80.08-70.088 15.414-10.384 32.342-19.821 44.033-24.535l3.9844-1.6036c.4593-.1622 .5355-.9121 .1183-1.1634z"/>
<path fill="#f2c802" fill-rule="evenodd" d="m424.44,415.23c-.3769-.2795-.7471-.5389-1.1164-.794-4.4213-3.0527-8.3174-4.3881-15.349-5.8133-20.662-4.1875-44.866-2.4142-65.938,4.8112-15.655,5.368-31.937,14.981-44.644,26.336-3.4619,3.0938-8.1694,8.0801-12.034,12.514-1.9323,2.2168-3.6487,4.294-4.8823,5.9291-.6169,.8175-1.1197,1.5025-1.4732,2.0841-.1767,.2908-.3227,.5703-.4301,.8208-.3396,.7107-4.0629,6.1731-4.9515,9.4468 .4177,.0188 6.2316-7.7174 6.7295-7.9724 .4085-.2777 .837-.6823 1.2998-1.2007 3.2245-3.6111 11.645-10.645 16.796-14.026 15.53-10.194 32.098-15.966 52.552-18.264 25.676-2.884 51.359,1.1038 76.722,11.923 2.3622,1.0077 6.6532,3.0764 10.502,5.0211 1.9242,.9724 3.7287,1.9217 5.149,2.6863 1.4202,.7646 2.5204,1.4038 2.7058,1.5463 .0883,.0679 .1996,.185 .4693,.2267 .2697,.0417 .7097-.1326 .891-.3634 .3655-.4594 .2372-.6265 .2256-.7753-.0234-.2978-.0927-.556-.1917-.894-.1976-.6757-.5519-1.6082-.9821-2.7249-.8606-2.2335-2.064-5.135-3.26-7.637-1.0065-2.1056-3.4844-6.2772-5.5973-9.4412-3.2974-4.9379-4.7364-6.4913-9.5869-10.554-1.2965-1.086-2.4747-2.0461-3.6054-2.8849z"/>
<path fill="#e88801" d="m462.32,433.19c-4.5434-3.4575-9.3282-6.7193-12.94-8.8025-6.7265-3.8796-16.292-8.3896-21.448-10.08-.008-.004-.0156-.014-.0204-.0163l-3.2974-1.0874c-.302-.1113-4.4309-1.5082-4.5904-1.2286-.1594,.2796 3.6695,2.2026 3.9191,2.4058l1.9856,1.6007c.008,.005 .0144,.0111 .0216,.0163 8.329,6.6654 16.249,18.195 20.832,30.425 .4443,1.1856 .8116,2.2825 1.1272,3.1082 .1579,.4129 .2965,.7441 .4368,1.0154 .0704,.1357 .1331,.262 .2415,.3899 .0539,.0637 .1387,.1264 .255,.1968 .1164,.0704 .3105,.1433 .5301,.104 .2036-.0364 .3871-.0885 .7597-.1934 .3725-.1049 .859-.2466 1.4393-.4148 1.1605-.3365 2.6613-.7725 4.1508-1.204 6.3008-1.8255 14.938-2.713 18.534-2.0024l2.7681,.5431c.2322,.0416 1.8725,.9088 2.0149,.7286 .2019-.2615-1.1632-1.6346-1.3976-1.8796l-3.823-3.8329c-2.6948-2.7185-6.955-6.3346-11.498-9.7917z"/>
<path fill="#f2c802" fill-rule="evenodd" d="m456.68,456.97c-1.0252-.7806-1.962-1.4923-2.7949-2.0898-.8329-.5975-1.5531-1.0774-2.117-1.4308-.2818-.1767-.5084-.3133-.7242-.4235-.7633-.2302-1.673-.9325-2.2831-1.2857 .3463,.7651 .6114,1.4741 .4927,2.2433 .0204,.395 .1231,.7885 .2613,1.2868 .2763,.9966 .7125,2.3604 1.1256,3.9886 9.9766,39.318 4.2689,92.004-14.706,135.1-7.2416,16.448-12.623,25.251-23.784,38.98-8.2294,10.123-10.903,12.791-18.71,18.482-4.0549,2.9565-13.151,7.477-16.809,8.4208-1.5293,.3946-3.0081,.8062-3.6334,1.0608-.2053,.0837-.3841,.1684-.5569,.2822-.1726,.1139-.4276,.255-.4991,.7337-.036,.2394 .0437,.5077 .1625,.668 .1189,.1603 .2388,.241 .3448,.3001 .2118,.1181 .3977,.1575 .6199,.2073 .8888,.1989 2.3977,.3111 4.9336,.4176 47.175,1.9806 91.801-21.645 115.88-61.376 15.384-25.386 19.567-48.788 13.336-74.818-4.8464-20.246-17.725-41.538-34.942-57.831-2.7512-2.6035-7.7899-6.812-12.322-10.394-1.1333-.8957-2.2468-1.7453-3.272-2.526z"/>
<path fill="#fff" d="m-1116-46.34a18.5,10.25 0 1,1 -37,0 18.5,10.25 0 1,1 37,0z" transform="matrix(1.0743 .82936 -.82936 1.0743 1629.6 1443.3)"/>
</g>
<g fill-rule="evenodd" transform="translate(-255.52 -401.83)">
<path fill="#da9c16" fill-opacity=".328" d="m311.89,428.77c-34.007,23.176-56.341,62.197-56.341,106.45 0,71.113 57.648,128.76 128.76,128.76 31.029,0 59.475-10.977 81.707-29.258-20.55,13.884-45.323,21.983-71.99,21.983-71.113,0-128.76-57.648-128.76-128.76 0-39.898 18.134-75.563 46.624-99.181z"/>
<path fill="url(#linearGradient7600)" d="m-2418,9.6626a149.91,149.91 0 1,1 140.68,255.89" transform="matrix(.87083 0 0 .87083 2401.3 430.3)"/>
</g>
</g>
</svg>
