<svg xmlns="http://www.w3.org/2000/svg" viewBox="0 0 69.561 106.31">
<g transform="matrix(-.80789 .09084 -.01984 .80056 407.188 -338.8089)">
<path fill="#1a8025" stroke="#00582a" fill-rule="evenodd" stroke-linejoin="round" stroke-width="4.234" d="m426.1,393.97c-.35,2.07-.22,6.98-.29,8.22 1.99,2.13 6.99-.35 8.81,1.18s2.47,5.43 1.47,7.05c-.41-.44-2.13,1.61-4.7,2.35-2.85,.81-7.91-1.68-11.16-.88-3.25,.79-7.58,3.39-9.4,5.87-1.81,2.48-2.14,3.67-2.35,9.1-.2,5.43 3.17,19.39 4.7,26.43 1.53,7.05 2.43,16.82 5.29,20.56 2.86,3.73 5.64,3.94 8.81,4.99s9.27,.8 12.04,1.47c2.77,.66 4.48,2.95 6.46,2.35s3.67-3.11 4.4-4.41c1.29-.97 3.62,1.99 5.58,2.35 1.97,.37 3.16-.26 7.05-2.35 3.9-2.08 9.82-11.13 12.34-16.15 2.51-5.02 4.09-10.24 4.69-16.44 .61-6.21-.01-19.04-2.05-24.38-2.05-5.33-5.25-9.38-8.22-10.86-2.98-1.48-6.41-.5-8.52,0-2.11,.49-3.86-.56-5.29-.88-1.16-.27-5.38-1.33-8.81-1.47-2.03-1.98-1.81-5.45-3.52-7.93s-3.6-5.93-6.46-7.05-10.5-1.26-10.87,.88z"/>
</g>
<g fill="#00652b" transform="matrix(-.80789 .09084 -.01984 .80056 407.188 -338.8089)">
<path d="m433.23,414.1c-6.43,4.84-10.07,16.15-10.07,32.29 0,17.91 11.17,30.09 19.68,32.44-14.33-18.74-15.63-26.57-14.97-36.69s2.32-20.29 5.36-28.04z"/>
<path d="m448.88,411.21c7.18,3.62 12.79,14.09 15.68,29.97 3.2,17.63-5.63,31.6-13.58,35.44 6.06-21.88 6.82-29.23 5.24-39.07-1.57-9.79-2.97-19.26-7.34-26.34z"/>
</g>
<g transform="matrix(-.80789 .09084 -.01984 .80056 407.188 -338.8089)">
<path opacity=".344" fill="#fce94f" d="m413.75,439.17c-5.63-10.87-.73-28.61 15.33-22.74-7.56,1.72-11.17,8.24-15.33,22.74z"/>
</g>
<g fill-rule="evenodd" transform="matrix(-.80789 .09084 -.01984 .80056 407.188 -338.8089)">
<path opacity=".344" fill="#fce94f" d="m434.81,417.98c-1.69-3.21 9.89-6.61 13.26-3.83 3.37,2.79 .65,15.04-1.42,15.27-1.54,.18-10.27-8.45-11.84-11.44z"/>
<path fill="#4e9a06" d="m427.57,393.38c-1.37,1.43-2.2,6.67-.59,8.23 1.62,1.56 5.85-1.47 7.93,0 2.09,1.47 1.45,10.04 3.53,8.51 2.2-1.62 4.33-1.1 6.75-.88s-3.76-11.69-6.17-13.8c-2.4-2.11-4.12-1.76-5.87-2.06-1.74-.29-4.2-1.42-5.58,0z"/>
</g>
<g transform="matrix(-.80789 .09084 -.01984 .80056 407.188 -338.8089)">
<path fill="none" stroke="#2d8f20" stroke-width="3.237" d="m426.98,399.55s4.69,1.31 7.93-1.47c2.93-2.5 5.29,10.28 5.29,10.28"/>
</g>
</svg>
