<svg xmlns="http://www.w3.org/2000/svg" viewBox="0 0 401.83 730.38" xmlns:xlink="http://www.w3.org/1999/xlink">
<defs>
<filter width="1.043" x="-.022" y="-.282" height="1.564" id="filter7362">
<feGaussianBlur stdDeviation=".90761"/>
</filter>
<linearGradient id="linearGradient7366">
<stop offset="0" stop-color="#505050"/>
<stop offset="1" stop-color="#505050" stop-opacity="0"/>
</linearGradient>
<linearGradient gradientTransform="translate(-264.48 -.44449)" id="linearGradient3568" xlink:href="#linearGradient7366" y1="719.22" y2="734.2" gradientUnits="userSpaceOnUse" x2="0"/>
<linearGradient id="linearGradient2158">
<stop offset="0" stop-color="#827135"/>
<stop offset="1" stop-color="#fcf2d9"/>
</linearGradient>
<linearGradient gradientTransform="translate(21.529 -12.331)" id="linearGradient3036" xlink:href="#linearGradient7366" y1="719.22" y2="734.2" gradientUnits="userSpaceOnUse" x2="0"/>
<linearGradient gradientTransform="matrix(1.0864 0 0 .41562 1010.7 24.871)" spreadMethod="reflect" id="linearGradient3140" xlink:href="#linearGradient2158" y1="1083.6" y2="1021" x1="203.06" gradientUnits="userSpaceOnUse" x2="246.66"/>
<linearGradient gradientTransform="matrix(1.7592 0 0 .25667 1453.5 24.871)" spreadMethod="reflect" id="linearGradient3082" xlink:href="#linearGradient2158" y1="2738.8" y2="2664.5" x1="51.516" gradientUnits="userSpaceOnUse" x2="67.992"/>
<linearGradient gradientTransform="matrix(1.7592 0 0 .25667 1453.5 24.871)" spreadMethod="reflect" id="linearGradient3084" xlink:href="#linearGradient2158" y1="2738.8" y2="2660.5" x1="210.92" gradientUnits="userSpaceOnUse" x2="226.09"/>
<linearGradient gradientTransform="matrix(1.8476 0 0 .24438 1010.7 24.871)" id="linearGradient3142" xlink:href="#linearGradient2158" y1="2378.7" y2="2245.2" x1="105.7" gradientUnits="userSpaceOnUse" x2="161.25"/>
<linearGradient gradientTransform="matrix(1.7592 0 0 .25667 1010.7 24.871)" spreadMethod="reflect" id="linearGradient3144" xlink:href="#linearGradient2158" y1="2729.1" y2="2667.7" x1="59.295" gradientUnits="userSpaceOnUse" x2="72.332"/>
<linearGradient gradientTransform="matrix(1.7592 0 0 .25667 1010.7 24.871)" spreadMethod="reflect" id="linearGradient3146" xlink:href="#linearGradient2158" y1="2729.1" y2="2679" x1="213.93" gradientUnits="userSpaceOnUse" x2="226.74"/>
<linearGradient gradientTransform="matrix(.68744 0 0 .65683 1010.7 24.871)" spreadMethod="reflect" id="linearGradient3150" xlink:href="#linearGradient2158" y1="144.86" y2="126.42" x1="328.91" gradientUnits="userSpaceOnUse" x2="373.2"/>
<linearGradient gradientTransform="matrix(.63172 0 0 .71476 1010.7 24.871)" spreadMethod="reflect" id="linearGradient3148" xlink:href="#linearGradient2158" y1="90.509" y2="74.446" x1="365.7" gradientUnits="userSpaceOnUse" x2="394.54"/>
<linearGradient gradientTransform="translate(-547.13 -.44449)" id="linearGradient3565" xlink:href="#linearGradient7366" y1="719.22" y2="734.2" gradientUnits="userSpaceOnUse" x2="0"/>
<linearGradient gradientTransform="matrix(2.0881 0 0 .21624 1010.7 24.871)" spreadMethod="reflect" id="linearGradient3152" xlink:href="#linearGradient2158" y1="2556.7" y2="2483.9" x1="85.519" gradientUnits="userSpaceOnUse" x2="125.38"/>
<linearGradient gradientTransform="matrix(1.5061 0 0 .2998 1010.7 24.871)" spreadMethod="reflect" id="linearGradient3154" xlink:href="#linearGradient2158" y1="935.77" y2="918.01" x1="170.52" gradientUnits="userSpaceOnUse" x2="150.39"/>
<radialGradient cx="403.01" cy="598.56" gradientTransform="matrix(1 0 0 .17512 0 493.74)" id="radialGradient3048" r="54.829" gradientUnits="userSpaceOnUse">
<stop offset="0" stop-opacity=".113"/>
<stop offset="1" stop-opacity="0"/>
</radialGradient>
</defs>
<g transform="translate(-23.251 -7.3091)">
<path fill="url(#linearGradient3036)" filter="url(#filter7362)" d="m619.6,714.15h79.327v7.728h-79.327z" transform="matrix(.88288 0 0 1 -225.86 -.44449)"/>
<path fill="url(#linearGradient3036)" filter="url(#filter7362)" d="m619.6,714.15h79.327v7.728h-79.327z" transform="matrix(.88288 0 0 1 -474.56 -.44449)"/>
<path fill="url(#linearGradient3568)" filter="url(#filter7362)" d="m333.59,726.03h79.327v7.728h-79.327z"/>
<path fill="url(#linearGradient3565)" filter="url(#filter7362)" d="m50.949,726.03h79.327v7.728h-79.327z"/>
<path fill="url(#radialGradient3048)" fill-rule="evenodd" color="#000" d="m457.83,598.56a54.829,9.6014 0 1,1 -109.65,0 54.829,9.6014 0 1,1 109.65,0z" transform="matrix(3.6643 -.07679 .18696 2.1043 -1364.5 -511.56)"/>
</g>
<g stroke="#827135">
<g stroke-opacity=".817">
<g fill="none">
<g transform="matrix(.88149 0 0 .91286 -1289.051 43.9449)">
<path stroke-width="3.36" d="m1683.3,95.393c-2.2,59.327-1.2,152.64-7.3,205.2-6.8,54.49-10.7,110.92-20.3,163.48-13.3,40.3-26.5,80.61-39.7,120.91-29,45.79-58,91.58-87.1,137.37 21.6-.65 43.2-1.29 64.8-1.94 1.6-57.37 49.9-89.34 107.4-89.34 56.5,0 100.3,38.07 103.5,90.31 20.3-.32 41.2,.55 61.5,.23-29.7-45.79-59.9-92.77-89.5-138.56-13.3-40.31-26.5-80.61-39.7-120.92-9.7-55.78-14.1-137.23-20.9-192.04-4.5-53.85-5.2-115.44-7.8-173.15"/>
</g>
<g stroke-width="1.68" transform="matrix(.88149 0 0 .91286 -1289.051 43.9449)">
<path d="m1696.3,139.59l-14,13.96 14,13.96 13.9-13.96-13.9-13.96z"/>
<path d="m1696.3,167.66l-14.5,14.43 14.5,14.43 14.4-14.43-14.4-14.43z"/>
<path d="m1696.3,196.69l-15.4,15.39 15.4,15.38 15.4-15.38-15.4-15.39z"/>
<path d="m1696.3,227.67l-16.3,16.81 16.3,16.81 16.8-16.81-16.8-16.81z"/>
<path d="m1696.3,261.55l-18.3,18.24 18.3,18.24 18.7-18.24-18.7-18.24z"/>
<path d="m1683.5,340.83l-12.8,10.24 10.3,12.79 12.8-10.25-10.3-12.78z"/>
<path d="m1685.9,319.05l-12.3,9.83 9.9,12.25 12.2-9.82-9.8-12.26z"/>
<path d="m1681.1,364.04l-12.8,10.25 10.3,12.78 12.8-10.25-10.3-12.78z"/>
<path d="m1678.7,386.77l-12.8,10.25 10.3,12.78 12.7-10.24-10.2-12.79z"/>
<path d="m1676.3,410l-13.3,10.67 10.7,13.31 13.3-10.67-10.7-13.31z"/>
<path d="m1673.5,433.71l-14.3,11.52 11.5,14.37 14.3-11.52-11.5-14.37z"/>
<path d="m1710,340.83l12.8,10.24-10.3,12.79-12.7-10.25 10.2-12.78z"/>
<path d="m1707.6,319.05l12.3,9.83-9.8,12.25-12.3-9.82 9.8-12.26z"/>
<path d="m1712.4,364.04l12.8,10.25-10.2,12.78-12.8-10.25 10.2-12.78z"/>
<path d="m1714.8,386.77l12.8,10.25-10.2,12.78-12.8-10.24 10.2-12.79z"/>
<path d="m1717.2,410l13.3,10.67-10.7,13.31-13.3-10.67 10.7-13.31z"/>
<path d="m1720,433.71l14.4,11.52-11.5,14.37-14.4-11.52 11.5-14.37z"/>
<path d="m1652.3,529.44l-21.8,14.14 13,21 21.8-14.13-13-21.01z"/>
<path d="m1660,497.97l-19.4,12.61 11.6,18.73 19.4-12.61-11.6-18.73z"/>
<path d="m1666.7,471.33l-16.5,10.69 9.9,15.9 16.4-10.7-9.8-15.89z"/>
<path d="m1741.3,529.44l21.7,14.14-13,21-21.7-14.13 13-21.01z"/>
<path d="m1733.5,497.97l19.4,12.61-11.6,18.73-19.4-12.61 11.6-18.73z"/>
<path d="m1726.9,471.33l16.4,10.69-9.8,15.9-16.5-10.7 9.9-15.89z"/>
<path d="m1618.6,618.64l-12.9-.14-15.2,7.12 8.9,17.12 27.2-11.64-8-12.46z"/>
<path d="m1599.4,642.93l-27.7,11.77 10.6,18.89 28.2-12.91-11.1-17.75z"/>
<path d="m1582.1,673.53l-30.5,13.4 11.2,19.9 30.6-13.4-11.3-19.9z"/>
<path d="m1578.3,720.45l-15.7-13.26-33.7,15.16"/>
<path d="m1775.8,618.64l13.4,.1 15,6.88-9.5,17.12-25.3-12.12 6.4-11.98z"/>
<path d="m1794.7,642.93l27.9,11.77-10.7,17.92-26.3-12.43 9.1-17.26z"/>
<path d="m1812,673.53l31.6,13.23-12.3,20.07-28.4-13.88 9.1-19.42z"/>
<path d="m1818.7,720.69l12.6-13.26 34.3,14.06"/>
<path d="m1682.1,182.13h28.4m-.7-28.43h-27.9"/>
<path d="m1679.9,244.49l33.2,.17m-.6-32.41h-31.7"/>
<path d="m1714.8,279.59h-36.7"/>
<path d="m1695.8,331.46l-22.1-2.66"/>
<path d="m1693.5,353.59l-22.6-2.56"/>
</g>
<g stroke-width="3.36" transform="matrix(.88149 0 0 .91286 -1289.051 43.9449)">
<path d="m1691,376.76l-22.4-2.39"/>
<path d="m1688.6,399.42l-22.7-2.39"/>
</g>
<g stroke-width="1.68" transform="matrix(.88149 0 0 .91286 -1289.051 43.9449)">
<path d="m1686.7,423.36l-23.7-2.74"/>
<path d="m1684.6,448.16l-25.4-2.91"/>
<path d="m1697.6,331.46l22.1-2.66"/>
<path d="m1699.9,353.59l22.6-2.56"/>
</g>
<g stroke-width="3.36" transform="matrix(.88149 0 0 .91286 -1289.051 43.9449)">
<path d="m1702.4,376.76l22.4-2.39"/>
<path d="m1704.9,399.42l22.6-2.39"/>
</g>
<g stroke-width="1.68" transform="matrix(.88149 0 0 .91286 -1289.051 43.9449)">
<path d="m1706.7,423.36l23.7-2.74"/>
<path d="m1708.8,448.16l25.4-2.91"/>
<path d="m1676.2,487.06l-25.6-5.13"/>
<path d="m1671.5,516.64l-31.1-6.15"/>
<path d="m1665,550.67l-34.6-6.84"/>
<path d="m1717.5,487.06l25.5-5.13"/>
<path d="m1722.1,516.64l31.2-6.15"/>
<path d="m1728.6,550.67l34.6-6.84"/>
<path d="m1626.2,631.13l-36-5.47"/>
<path d="m1610.3,660.78l-38-5.88"/>
<path d="m1593,693.2l-41.2-6.15"/>
<path d="m1768.9,630.96l35.3-5.3"/>
<path d="m1785.2,660.54l37-5.64"/>
<path d="m1803.2,693.03l40.2-6.16"/>
</g>
<g stroke-width="3.36" transform="matrix(.88149 0 0 .91286 -1289.051 43.9449)">
<path d="m1696.7,321.46l-11.7,126.09"/>
<path d="m1696.8,321.46l11.8,126.09"/>
</g>
<g stroke-width="1.68" transform="matrix(.88149 0 0 .91286 -1289.051 43.9449)">
<path d="m1696.1,137.42l.6,184.13"/>
<path d="m1689.8,399.81l19,48.22"/>
<path d="m1703.7,399.57l-19,48.46"/>
</g>
<g stroke-width="3.36" transform="matrix(.88149 0 0 .91286 -1289.051 43.9449)">
<path d="m1689.4,399.29l15.4,.58"/>
<path d="m1691.6,376.68l9.9,.17"/>
</g>
<g stroke-width="1.68" transform="matrix(.88149 0 0 .91286 -1289.051 43.9449)">
<path d="m1702.3,375.99l-12.7,23.07"/>
<path d="m1691.5,376.48l12.9,23.31"/>
<path d="m1666.8,471.27l-23.3,93.21"/>
<path d="m1726.7,471.27l23.3,93.21"/>
</g>
<g stroke-width="3.36" transform="matrix(.88149 0 0 .91286 -1289.051 43.9449)">
<path d="m1680.7,471.1l-18.1,93.74"/>
<path d="m1713.2,469.44l17.2,94.91"/>
</g>
<g stroke-width="1.68" transform="matrix(.88149 0 0 .91286 -1289.051 43.9449)">
<path d="m1643.6,603.25l-6.4,7.61 6.4,7.62 7.6-7.62-7.6-7.61z"/>
<path d="m1659.2,603.25l-7.6,7.61 7.6,7.62 7.6-7.62-7.6-7.61z"/>
<path d="m1674.9,603.25l-7.7,7.61 7.7,7.62 7.6-7.62-7.6-7.61z"/>
<path d="m1690.5,603.25l-7.6,7.61 7.6,7.62 7.6-7.62-7.6-7.61z"/>
<path d="m1706.2,603.25l-7.7,7.61 7.7,7.62 7.6-7.62-7.6-7.61z"/>
<path d="m1721.8,603.25l-7.6,7.61 7.6,7.62 7.6-7.62-7.6-7.61z"/>
<path d="m1737.5,603.25l-7.7,7.61 7.7,7.62 7.6-7.62-7.6-7.61z"/>
<path d="m1753.1,603.25l-7.6,7.61 7.6,7.62 5.9-7.62-5.9-7.61z"/>
</g>
<g stroke-width="3.36" transform="matrix(.88149 0 0 .91286 -1289.051 43.9449)">
<path d="m1641.4,603.56l-62.6,117.17"/>
<path d="m1755,603.56l63,117.62"/>
</g>
<g stroke-width="1.68" transform="matrix(.88149 0 0 .91286 -1289.051 43.9449)">
<path d="m1605.8,603.02v14.95m13.3,0v-17.36"/>
<path d="m1632.4,617.97v-14.95"/>
<path d="m1762.5,603.02v14.95m13.4,0v-15.91"/>
<path d="m1789.2,617.97v-14.95"/>
<path d="m1616.6,664.91l-6.6-4.62"/>
<path d="m1626.8,655.25l-8.8-7.52"/>
<path d="m1636.5,648.91l-7.9-9.23"/>
<path d="m1645.3,643.44l-6.8-9.23"/>
<path d="m1653.6,640.02l-5.9-10.6"/>
<path d="m1662.8,636.26l-4.5-9.92"/>
<path d="m1670.7,634.21l-4.2-10.95"/>
<path d="m1679.9,632.15l-3.1-10.6"/>
<path d="m1687.4,631.13l-1.7-10.95"/>
<path d="m1781.1,664.3l4.9-4.28"/>
<path d="m1772.2,655.75l7.4-7"/>
<path d="m1764,649.6l7.9-8.21"/>
<path d="m1755.1,644.81l6.9-9.24"/>
<path d="m1746.9,640.7l5.5-9.91"/>
<path d="m1738.4,636.94l4.8-10.26"/>
<path d="m1730.5,634.89l3.4-10.6"/>
<path d="m1721.3,632.84l3.4-10.6"/>
<path d="m1713.4,631.47l2.1-10.94"/>
<path d="m1704.5,630.44l.7-10.6"/>
<path d="m1696.6,630.44l-.6-10.26"/>
<path d="m1696,620.18"/>
<path d="m1596.8,702.61l-7.8-1.67"/>
<path d="m1594.7,713.21l-11.6-.69"/>
<path d="m1803,711.16l9.3-.35"/>
<path d="m1801,701.24l5.8-1.39"/>
</g>
<g transform="matrix(.88149 0 0 .91286 -1289.051 43.9449)">
<path stroke-width="3.36" d="m1617.9,647.64c18.8-17.53 49-27.95 81.3-27.95 32.4,0 62.1,10.9 80.2,29.16"/>
</g>
<g stroke-width="1.68" transform="matrix(.88149 0 0 .91286 -1289.051 43.9449)">
<path d="m1612.6,618.43l-57.6,103.07"/>
<path d="m1780.8,618.43l58.5,103.07"/>
</g>
</g>
<g fill-rule="evenodd" stroke-width="3.36" transform="matrix(.88149 0 0 .91286 -1289.051 43.9449)">
<path fill="url(#linearGradient3082)" d="m1519.8,718v8.2h76v-8.2h-76z"/>
<path fill="url(#linearGradient3084)" d="m1802.3,718v8.2h75.9v-8.2h-75.9z"/>
</g>
</g>
<g fill="none">
<g stroke-opacity=".817">
<g transform="matrix(.88149 0 0 .91286 -1289.051 43.9449)">
<path stroke-width="3.36" d="m1594.4,618.82h205.5"/>
</g>
<g stroke-width="1.68" transform="matrix(.88149 0 0 .91286 -1289.051 43.9449)">
<path d="m1687,301.34l-11.5,6.16 10.3,11.44 11.4-10.27-10.2-7.33z"/>
<path d="m1706.6,302.71l11.4,4.79-10.2,11.44-11.5-10.27 10.3-5.96z"/>
</g>
</g>
<g transform="translate(-1047.551 -7.75359)">
<path stroke-width="3.36" d="m1239.9,122.6c-2.2,59.33-.6,125.43-6.8,177.99-6.7,54.49-10.6,110.92-20.3,163.48-13.2,40.3-26.4,80.61-39.6,120.91-29.1,45.79-58.1,91.58-87.1,137.37 21.6-.65 43.2-1.29 64.8-1.94 1.6-57.37 49.9-89.34 107.4-89.34 56.5,0 100.3,38.07 103.5,90.31 20.3-.32 41.1,.55 61.4,.23-29.6-45.79-59.8-92.77-89.5-138.56-13.2-40.31-26.4-80.61-39.6-120.92-9.7-55.78-13.6-109.63-20.3-164.44-4.5-53.85-5.2-115.44-7.8-173.16"/>
</g>
<g stroke-width="1.68" transform="translate(-1047.551 -7.75359)">
<path d="m1253.5,139.59l-14,13.96 14,13.96 13.9-13.96-13.9-13.96z"/>
<path d="m1253.5,167.66l-14.5,14.43 14.5,14.43 14.4-14.43-14.4-14.43z"/>
<path d="m1253.5,196.69l-15.4,15.39 15.4,15.38 15.3-15.38-15.3-15.39z"/>
<path d="m1253.5,227.67l-16.3,16.81 16.3,16.81 16.8-16.81-16.8-16.81z"/>
<path d="m1253.5,261.55l-18.3,18.24 18.3,18.24 18.7-18.24-18.7-18.24z"/>
<path d="m1240.7,340.83l-12.8,10.24 10.3,12.79 12.7-10.25-10.2-12.78z"/>
<path d="m1243.1,319.05l-12.3,9.83 9.8,12.25 12.3-9.82-9.8-12.26z"/>
<path d="m1238.3,364.04l-12.8,10.25 10.2,12.78 12.8-10.25-10.2-12.78z"/>
<path d="m1235.9,386.77l-12.8,10.25 10.2,12.78 12.8-10.24-10.2-12.79z"/>
<path d="m1233.5,410l-13.3,10.67 10.7,13.31 13.3-10.67-10.7-13.31z"/>
<path d="m1230.7,433.71l-14.4,11.52 11.5,14.37 14.4-11.52-11.5-14.37z"/>
<path d="m1267.2,340.83l12.8,10.24-10.3,12.79-12.8-10.25 10.3-12.78z"/>
<path d="m1264.8,319.05l12.3,9.83-9.9,12.25-12.2-9.82 9.8-12.26z"/>
<path d="m1269.6,364.04l12.8,10.25-10.3,12.78-12.7-10.25 10.2-12.78z"/>
<path d="m1272,386.77l12.8,10.25-10.2,12.78-12.8-10.24 10.2-12.79z"/>
<path d="m1274.4,410l13.3,10.67-10.7,13.31-13.3-10.67 10.7-13.31z"/>
<path d="m1277.2,433.71l14.3,11.52-11.5,14.37-14.3-11.52 11.5-14.37z"/>
<path d="m1209.5,529.44l-21.8,14.14 13,21 21.8-14.13-13-21.01z"/>
<path d="m1217.2,497.97l-19.4,12.61 11.6,18.73 19.4-12.61-11.6-18.73z"/>
<path d="m1223.9,471.33l-16.5,10.69 9.8,15.9 16.5-10.7-9.8-15.89z"/>
<path d="m1298.4,529.44l21.8,14.14-13,21-21.8-14.13 13-21.01z"/>
<path d="m1290.7,497.97l19.4,12.61-11.6,18.73-19.4-12.61 11.6-18.73z"/>
<path d="m1284,471.33l16.5,10.69-9.8,15.9-16.5-10.7 9.8-15.89z"/>
<path d="m1175.7,618.64l-12.8-.14-15.3,7.12 9,17.12 27.2-11.64-8.1-12.46z"/>
<path d="m1156.6,642.93l-27.7,11.77 10.5,18.89 28.2-12.91-11-17.75z"/>
<path d="m1139.3,673.53l-30.6,13.4 11.3,19.9 30.5-13.4-11.2-19.9z"/>
<path d="m1135.5,720.45l-15.7-13.26-33.8,15.16"/>
<path d="m1333,618.64l13.3,.1 15.1,6.88-9.5,17.12-25.3-12.12 6.4-11.98z"/>
<path d="m1351.9,642.93l27.9,11.77-10.7,17.92-26.3-12.43 9.1-17.26z"/>
<path d="m1369.2,673.53l31.6,13.23-12.3,20.07-28.4-13.88 9.1-19.42z"/>
<path d="m1375.9,720.69l12.5-13.26 34.4,14.06"/>
<path d="m1239.3,182.13h28.3m-.7-28.43h-27.8"/>
<path d="m1237.1,244.49l33.2,.17m-.7-32.41h-31.6"/>
<path d="m1272,279.59h-36.7"/>
<path d="m1253,331.46l-22.1-2.66"/>
<path d="m1250.7,353.59l-22.7-2.56"/>
</g>
<g stroke-width="3.36" transform="translate(-1047.551 -7.75359)">
<path d="m1248.2,376.76l-22.5-2.39"/>
<path d="m1245.7,399.42l-22.6-2.39"/>
</g>
<g stroke-width="1.68" transform="translate(-1047.551 -7.75359)">
<path d="m1243.8,423.36l-23.6-2.74"/>
<path d="m1241.8,448.16l-25.4-2.91"/>
<path d="m1254.8,331.46l22.1-2.66"/>
<path d="m1257.1,353.59l22.6-2.56"/>
</g>
<g stroke-width="3.36" transform="translate(-1047.551 -7.75359)">
<path d="m1259.6,376.76l22.4-2.39"/>
<path d="m1262,399.42l22.7-2.39"/>
</g>
<g stroke-width="1.68" transform="translate(-1047.551 -7.75359)">
<path d="m1263.9,423.36l23.7-2.74"/>
<path d="m1266,448.16l25.3-2.91"/>
<path d="m1233.3,487.06l-25.5-5.13"/>
<path d="m1228.7,516.64l-31.2-6.15"/>
<path d="m1222.2,550.67l-34.6-6.84"/>
<path d="m1274.6,487.06l25.6-5.13"/>
<path d="m1279.3,516.64l31.2-6.15"/>
<path d="m1285.8,550.67l34.6-6.84"/>
<path d="m1183.4,631.13l-36-5.47"/>
<path d="m1167.4,660.78l-37.9-5.88"/>
<path d="m1150.2,693.2l-41.3-6.15"/>
<path d="m1326.1,630.96l35.3-5.3"/>
<path d="m1342.4,660.54l37-5.64"/>
<path d="m1360.3,693.03l40.3-6.16"/>
</g>
<g stroke-width="3.36" transform="translate(-1047.551 -7.75359)">
<path d="m1253.9,321.46l-11.8,126.09"/>
<path d="m1254,321.46l11.7,126.09"/>
</g>
<g transform="translate(-1047.551 -7.75359)">
<path stroke-width="1.68" d="m1253.3,137.42l.6,184.13"/>
<path stroke-linejoin="round" stroke-linecap="round" stroke-width="4.2" d="m1253.3,9.8535l-.2,64.28"/>
</g>
<g stroke-width="1.68" transform="translate(-1047.551 -7.75359)">
<path d="m1247,399.81l19,48.22"/>
<path d="m1260.9,399.57l-19,48.46"/>
</g>
<g stroke-width="3.36" transform="translate(-1047.551 -7.75359)">
<path d="m1246.6,399.29l15.3,.58"/>
<path d="m1248.8,376.68l9.8,.17"/>
</g>
<g stroke-width="1.68" transform="translate(-1047.551 -7.75359)">
<path d="m1259.4,375.99l-12.6,23.07"/>
<path d="m1248.7,376.48l12.9,23.31"/>
<path d="m1224,471.27l-23.3,93.21"/>
<path d="m1283.9,471.27l23.3,93.21"/>
</g>
<g stroke-width="3.36" transform="translate(-1047.551 -7.75359)">
<path d="m1235.8,480.1l-16,84.74"/>
<path d="m1272,479.62l15.6,84.73"/>
</g>
<g stroke-width="1.68" transform="translate(-1047.551 -7.75359)">
<path d="m1200.7,603.25l-6.4,7.61 6.4,7.62 7.6-7.62-7.6-7.61z"/>
<path d="m1216.4,603.25l-7.6,7.61 7.6,7.62 7.6-7.62-7.6-7.61z"/>
<path d="m1232,603.25l-7.6,7.61 7.6,7.62 7.6-7.62-7.6-7.61z"/>
<path d="m1247.7,603.25l-7.6,7.61 7.6,7.62 7.6-7.62-7.6-7.61z"/>
<path d="m1263.3,603.25l-7.6,7.61 7.6,7.62 7.6-7.62-7.6-7.61z"/>
<path d="m1279,603.25l-7.6,7.61 7.6,7.62 7.6-7.62-7.6-7.61z"/>
<path d="m1294.6,603.25l-7.6,7.61 7.6,7.62 7.6-7.62-7.6-7.61z"/>
<path d="m1310.3,603.25l-7.6,7.61 7.6,7.62 5.9-7.62-5.9-7.61z"/>
</g>
<g stroke-width="3.36" transform="translate(-1047.551 -7.75359)">
<path d="m1198.6,603.56l-62.7,117.17"/>
<path d="m1312.2,603.56l62.9,117.62"/>
</g>
<g stroke-width="1.68" transform="translate(-1047.551 -7.75359)">
<path d="m1163,603.02v14.95m13.3,0v-17.36"/>
<path d="m1189.6,617.97v-14.95"/>
<path d="m1319.7,603.02v14.95m13.3,0v-15.91"/>
<path d="m1346.3,617.97v-14.95"/>
<path d="m1173.7,664.91l-6.6-4.62"/>
<path d="m1184,655.25l-8.8-7.52"/>
<path d="m1193.6,648.91l-7.8-9.23"/>
<path d="m1202.5,643.44l-6.8-9.23"/>
<path d="m1210.7,640.02l-5.8-10.6"/>
<path d="m1220,636.26l-4.5-9.92"/>
<path d="m1227.8,634.21l-4.1-10.95"/>
<path d="m1237.1,632.15l-3.1-10.6"/>
<path d="m1244.6,631.13l-1.7-10.95"/>
<path d="m1338.3,664.3l4.9-4.28"/>
<path d="m1329.4,655.75l7.3-7"/>
<path d="m1321.2,649.6l7.9-8.21"/>
<path d="m1312.3,644.81l6.8-9.24"/>
<path d="m1304.1,640.7l5.5-9.91"/>
<path d="m1295.5,636.94l4.8-10.26"/>
<path d="m1287.7,634.89l3.4-10.6"/>
<path d="m1278.4,632.84l3.5-10.6"/>
<path d="m1270.6,631.47l2-10.94"/>
<path d="m1261.7,630.44l.7-10.6"/>
<path d="m1253.8,630.44l-.7-10.26"/>
<path d="m1253.1,620.18"/>
<path d="m1154,702.61l-7.9-1.67"/>
<path d="m1151.9,713.21l-11.6-.69"/>
<path d="m1360.2,711.16l9.2-.35"/>
<path d="m1358.1,701.24l5.9-1.39"/>
</g>
<g transform="translate(-1047.551 -7.75359)">
<path stroke-width="3.36" d="m1175.1,647.64c18.8-17.53 49-27.95 81.3-27.95s62.1,10.9 80.1,29.16"/>
</g>
<g stroke-width="1.68" transform="translate(-1047.551 -7.75359)">
<path d="m1169.7,618.43l-57.5,103.07"/>
<path d="m1337.9,618.43l58.6,103.07"/>
</g>
</g>
<g stroke-width="3.36">
<g fill-rule="evenodd" transform="translate(-1047.551 -7.75359)">
<path fill="url(#linearGradient3140)" d="m1202.2,444.39l6.5,21.72-6.5,14.19c34.5,2.74 69.4,2.74 104.6,0l-8.2-14.19 8.2-21.72h-104.6z"/>
<path fill="url(#linearGradient3142)" d="m1154.3,581.41l3.1,20.92c34.5,2.91 159,2.91 194.2,0l2.1-21.28-199.4,.36z"/>
<path fill="url(#linearGradient3144)" d="m1077,718v8.2h75.9v-8.2h-75.9z"/>
<path fill="url(#linearGradient3146)" d="m1359.5,718v8.2h75.9v-8.2h-75.9z"/>
</g>
<g transform="translate(-1047.551 -7.75359)">
<path fill="none" d="m1151.6,618.82h205.5"/>
</g>
<g fill-rule="evenodd" transform="translate(-1047.551 -7.75359)">
<path fill="url(#linearGradient3148)" d="m1252.8,69.165l-17.8,22.964 17.8,17.831 17.8-17.831-17.8-22.964z"/>
<path fill="url(#linearGradient3150)" d="m1233.7,139.6l-1.1-25.1 1.1-10.83c12.6-4.134 24-4.476 38.2,0l1.8,10.83-1.8,25.1h-38.2z"/>
<path fill="url(#linearGradient3152)" d="m1155.3,563.67h197.8l-11.1,17.48h-176.1l-10.6-17.48z"/>
</g>
</g>
<g stroke-width="1.68">
<g fill="none" transform="translate(-1047.551 -7.75359)">
<path d="m1244.1,301.34l-11.4,6.16 10.3,11.44 11.4-10.27-10.3-7.33z"/>
<path d="m1263.7,302.71l11.5,4.79-10.3,11.44-11.4-10.27 10.2-5.96z"/>
</g>
<g transform="translate(-1047.551 -7.75359)">
<path fill="url(#linearGradient3154)" fill-rule="evenodd" d="m1225.7,298.05v9.32c19,.71 36.9,.71 56.3,0v-9.32h-56.3z"/>
</g>
</g>
</g>
</svg>
