<svg xmlns="http://www.w3.org/2000/svg" viewBox="0 0 125 152" xmlns:xlink="http://www.w3.org/1999/xlink">
<defs>
<linearGradient id="linearGradient5843" x1="796.97" gradientUnits="userSpaceOnUse" x2="846">
<stop offset="0" stop-color="#87aade"/>
<stop offset="1" stop-color="#3d76ca"/>
</linearGradient>
<linearGradient id="linearGradient5851" y1="570.95" y2="627.95" x1="806.09" gradientUnits="userSpaceOnUse" x2="807.62">
<stop offset="0" stop-color="#fc0"/>
<stop offset="1" stop-color="#f56a00"/>
</linearGradient>
</defs>
<g enable-background="new" color="#000">
<g transform="translate(-746 -483)">
<path fill="url(#linearGradient5843)" stroke="#2c5aa0" stroke-width="4" d="m778.38,485.16c-3.4453,0-6.2188,2.7735-6.2188,6.2188s2.7735,6.2188 6.2188,6.2188h6.625v26.406l-37,85c0,6.094 5.2287,15.043 11,17 15.923,5.3988 31.824,7 49.5,7s33.577-1.6012 49.5-7c5.7713-1.9568 11-10.906 11-17l-37-85v-26.406h5.9375c3.4453,0 6.2188-2.7735 6.2188-6.2188s-2.7735-6.2188-6.2188-6.2188h-59.562z"/>
<path fill="url(#linearGradient5851)" d="m768.5,566.75c-6.3753,14.45-12.684,28.931-18.406,43.531 .9484,8.9178 9.0387,15.669 17.781,16.219 28.453,6.6289 58.91,6.244 87.125-1.5625 9.2899-2.4804 15.432-14.6 8.9062-22.688-5.1242-11.844-10.328-23.668-15.5-35.5h-79.906z"/>
</g>
<g transform="translate(-746 -483)">
<path fill="#c2d7f7" d="m817.84,522.45s-15.32,2.5385-22.864,6.6752c-5.6376,3.0915-19.758,33.434-34.39,58.523 7.2546-18.964 26.245-50.971 27.863-64.256 9.2748,.8893 13.249-.5021 29.39-.9415z"/>
<path fill="#214478" d="m795.61,494.44c20.089,1.3374 35.414,.2772 36.73,.2772 1.3166,0 .5267,3.6866 .5267,3.6866s-3.7802,.7692-8.7835,.5059-7.3549-.4123-13.238-.8039c-2.4224-.1612-7.446-.4608-15.235-3.6658z"/>
</g>
<g fill="#c64a00" transform="translate(-746 -483)">
<path d="m861.17,618.53c-5.214,5.5036-20.566,8.4003-45.477,9.8486 30.403-8.7821 28.812-17.952 9.5589-23.463 23.463-4.9243 28.966-10.718 25.49-24.911 .1834-5.2558 16.102,25.599 10.428,38.525z"/>
<path d="m759.21,591.59s-13.325,27.228 3.1863,31.573 30.125,4.345 30.125,4.345c-23.151-3.9412-40.044-12.055-33.311-35.918z"/>
<path d="m846.98,568.13c-2.1983,6.0028-27.433,5.0947-43.45,6.9519 17.252,.2944 43.109-2.1284 47.215,2.3173z"/>
</g>
<g fill="none">
<g stroke="#3771c8" transform="translate(-745 -482)">
<path d="m818.01,527 30.43,79.274"/>
<path d="m812.15,531.89h14.976"/>
<path d="m819.15,551.89h14.976"/>
<path d="m827.15,571.89h14.976"/>
<path d="m835.15,591.89h14.976"/>
<path d="m816.15,541.89h9.2403"/>
<path d="m823.15,561.89h9.2403"/>
<path d="m830.15,581.89h9.2403"/>
<path d="m821.15,536.89h5.4167"/>
<path d="m825.15,546.89h5.4167"/>
<path d="m829.15,556.89h5.4167"/>
<path d="m833.15,566.89h5.4167"/>
<path d="m837.15,576.89h5.4167"/>
<path d="m841.15,586.89h5.4167"/>
<path d="m838.15,601.89h9.2403"/>
<path d="m845.15,596.89h5.4167"/>
</g>
<g stroke="#d5e5ff" transform="translate(-746 -483)">
<path d="m818.01,527 30.43,79.274"/>
<path d="m812.15,531.89h14.976"/>
<path d="m819.15,551.89h14.976"/>
<path d="m827.15,571.89h14.976"/>
<path d="m835.15,591.89h14.976"/>
<path d="m816.15,541.89h9.2403"/>
<path d="m823.15,561.89h9.2403"/>
<path d="m830.15,581.89h9.2403"/>
<path d="m821.15,536.89h5.4167"/>
<path d="m825.15,546.89h5.4167"/>
<path d="m829.15,556.89h5.4167"/>
<path d="m833.15,566.89h5.4167"/>
<path d="m837.15,576.89h5.4167"/>
<path d="m841.15,586.89h5.4167"/>
<path d="m838.15,601.89h9.2403"/>
<path d="m845.15,596.89h5.4167"/>
</g>
</g>
</g>
</svg>
