<svg xmlns="http://www.w3.org/2000/svg" viewBox="0 0 578.12 600" xmlns:xlink="http://www.w3.org/1999/xlink">
<defs>
<filter color-interpolation-filters="sRGB" id="filter3234">
<feGaussianBlur stdDeviation=".33448"/>
</filter>
<filter color-interpolation-filters="sRGB" id="filter3317">
<feGaussianBlur stdDeviation="1.39272"/>
</filter>
<filter color-interpolation-filters="sRGB" id="filter3222">
<feGaussianBlur stdDeviation=".32962"/>
</filter>
<linearGradient id="linearGradient3210">
<stop offset="0" stop-color="#fff" stop-opacity=".632"/>
<stop offset="1" stop-color="#fff" stop-opacity="0"/>
</linearGradient>
<linearGradient gradientTransform="matrix(.54024 0 0 .54024 -294.22 -880.5)" id="linearGradient3315" y1="1082" y2="959.74" gradientUnits="userSpaceOnUse" x2="0">
<stop offset="0"/>
<stop offset="1" stop-color="#fff"/>
</linearGradient>
<linearGradient id="linearGradient2879" xlink:href="#linearGradient3210" y1="348.53" y2="332.32" x1="-162.06" gradientUnits="userSpaceOnUse" x2="-162.32"/>
<linearGradient id="linearGradient2877" xlink:href="#linearGradient3210" y1="343.47" y2="331.25" x1="-157.23" gradientUnits="userSpaceOnUse" x2="-157.2"/>
<mask maskUnits="userSpaceOnUse" id="mask3311">
<path fill="url(#linearGradient3315)" d="m-242.57-362.01h305.55v251.53h-305.55z" transform="scale(1 -1)"/>
</mask>
</defs>
<g transform="translate(-89.254 -735.99)">
<path opacity=".33" fill="#fce94f" d="m303.81,585.36c0,.7327-2.9699,1.3267-6.6335,1.3267s-6.6335-.594-6.6335-1.3267 2.9699-1.3267 6.6335-1.3267 6.6335,.594 6.6335,1.3267z" transform="translate(7.9602 339.64)"/>
</g>
<g fill="#fce94f" transform="matrix(1.851 0 0 1.851 456.966 -201.44)">
<path d="m-145.94,483.87c0,39.933-26.729,72.305-59.702,72.305-32.972,0-59.701-32.372-59.701-72.305s26.729-72.305 59.701-72.305 59.702,32.372 59.702,72.305z" transform="matrix(1.2322 .50119 -.50119 1.2322 348.46 -260.06)"/>
<path stroke="#edd400" fill-rule="evenodd" stroke-width="14.296" d="m-156.55,203.27c1.7295-4.8559 7.3989-.0644 8.0708,2.8745 1.8208,7.9643-6.8578,13.504-13.82,13.267-12.453-.4234-19.999-13.293-18.463-24.765 2.2533-16.835 19.795-26.627 35.71-23.659 21.213,3.955 33.308,26.317 28.856,46.656-5.6029,25.594-32.848,40.016-57.601,34.052-29.979-7.2236-46.74-39.384-39.248-68.546 8.8287-34.366 45.923-53.473 79.491-44.444 38.756,10.424 60.213,52.465 49.641,90.437-12.013,43.146-59.007,66.957-101.38,54.837-47.538-13.597-73.704-65.551-60.033-112.33 15.177-51.93 72.096-80.454 123.27-65.229" transform="matrix(.93801 .34414 -.4505 1.2279 97.395 51.571)"/>
<path d="m-145.94,483.87c0,39.933-26.729,72.305-59.702,72.305-32.972,0-59.701-32.372-59.701-72.305s26.729-72.305 59.701-72.305 59.702,32.372 59.702,72.305z" transform="matrix(-1.2322 .50119 .50119 1.2322 -541.2 -253.43)"/>
<path stroke="#edd400" fill-rule="evenodd" stroke-width="14.296" d="m-156.55,203.27c1.7295-4.8559 7.3989-.0644 8.0708,2.8745 1.8208,7.9643-6.8578,13.504-13.82,13.267-12.453-.4234-19.999-13.293-18.463-24.765 2.2533-16.835 19.795-26.627 35.71-23.659 21.213,3.955 33.308,26.317 28.856,46.656-5.6029,25.594-32.848,40.016-57.601,34.052-29.979-7.2236-46.74-39.384-39.248-68.546 8.8287-34.366 45.923-53.473 79.491-44.444 38.756,10.424 60.213,52.465 49.641,90.437-12.013,43.146-59.007,66.957-101.38,54.837-47.538-13.597-73.704-65.551-60.033-112.33 15.177-51.93 67.491-78.193 104.77-69.014" transform="matrix(-.94643 .32027 .41925 1.2389 -271.63 46.81)"/>
</g>
<g transform="matrix(1.851 0 0 1.851 456.966 -201.44)">
<path fill="#3f2300" stroke="#3f2300" fill-rule="evenodd" stroke-width="16.343" d="m-33.318,244.3c-36.167,.004-74.637,13.695-87.406,17.344-18.574,5.3068-58.375-26.531-102.16-11.938-3.5808,1.1936-7.3808,2.2586-11.312,3.2812-1.7279,33.334 8.0703,64.789 29.844,83.5 32.199,27.67 82.469,17.847 113.91-23.906 30.375,42.462 80.352,53.545 113.22,26.719 15.513-12.662 25.379-31.681 29.625-53.344-13.408-11.771-27.584-23.041-40.469-30.938-12.852-7.8773-28.81-10.72-45.25-10.719z"/>
<path fill="url(#linearGradient2877)" filter="url(#filter3222)" d="m-102.44,331.3c0,7.6935-27.194,13.93-60.74,13.93s-60.74-6.2368-60.74-13.93c0-7.6935 27.194-13.93 60.74-13.93s60.74,6.2368 60.74,13.93z" transform="matrix(.56424 .45163 -.75322 .94103 143.28 92.614)"/>
<path fill="url(#linearGradient2879)" filter="url(#filter3234)" d="m-105.03,331.3c0,7.6935-26.037,13.93-58.154,13.93-32.118,0-58.154-6.2368-58.154-13.93 0-7.6935 26.037-13.93 58.154-13.93 32.118,0 58.154,6.2368 58.154,13.93z" transform="matrix(.65625 .33162 -.55308 1.0945 239.99 28.485)"/>
</g>
<g transform="translate(-89.254 -735.99)">
<g opacity=".279" filter="url(#filter3317)" mask="url(#mask3311)" transform="matrix(1.851 0 0 -1.851 552.56 1873.9)">
<g>
<g fill="#fce94f">
<path d="m-145.94,483.87c0,39.933-26.729,72.305-59.702,72.305-32.972,0-59.701-32.372-59.701-72.305s26.729-72.305 59.701-72.305 59.702,32.372 59.702,72.305z" transform="matrix(1.2322 .50119 -.50119 1.2322 348.46 -260.06)"/>
<path stroke="#edd400" fill-rule="evenodd" stroke-width="14.296" d="m-156.55,203.27c1.7295-4.8559 7.3989-.0644 8.0708,2.8745 1.8208,7.9643-6.8578,13.504-13.82,13.267-12.453-.4234-19.999-13.293-18.463-24.765 2.2533-16.835 19.795-26.627 35.71-23.659 21.213,3.955 33.308,26.317 28.856,46.656-5.6029,25.594-32.848,40.016-57.601,34.052-29.979-7.2236-46.74-39.384-39.248-68.546 8.8287-34.366 45.923-53.473 79.491-44.444 38.756,10.424 60.213,52.465 49.641,90.437-12.013,43.146-59.007,66.957-101.38,54.837-47.538-13.597-73.704-65.551-60.033-112.33 15.177-51.93 72.096-80.454 123.27-65.229" transform="matrix(.93801 .34414 -.4505 1.2279 97.395 51.571)"/>
<path d="m-145.94,483.87c0,39.933-26.729,72.305-59.702,72.305-32.972,0-59.701-32.372-59.701-72.305s26.729-72.305 59.701-72.305 59.702,32.372 59.702,72.305z" transform="matrix(-1.2322 .50119 .50119 1.2322 -541.2 -253.43)"/>
<path stroke="#edd400" fill-rule="evenodd" stroke-width="14.296" d="m-156.55,203.27c1.7295-4.8559 7.3989-.0644 8.0708,2.8745 1.8208,7.9643-6.8578,13.504-13.82,13.267-12.453-.4234-19.999-13.293-18.463-24.765 2.2533-16.835 19.795-26.627 35.71-23.659 21.213,3.955 33.308,26.317 28.856,46.656-5.6029,25.594-32.848,40.016-57.601,34.052-29.979-7.2236-46.74-39.384-39.248-68.546 8.8287-34.366 45.923-53.473 79.491-44.444 38.756,10.424 60.213,52.465 49.641,90.437-12.013,43.146-59.007,66.957-101.38,54.837-47.538-13.597-73.704-65.551-60.033-112.33 15.177-51.93 67.491-78.193 104.77-69.014" transform="matrix(-.94643 .32027 .41925 1.2389 -271.63 46.81)"/>
</g>
<path fill="#3f2300" stroke="#3f2300" fill-rule="evenodd" stroke-width="16.343" d="m-33.318,244.3c-36.167,.004-74.637,13.695-87.406,17.344-18.574,5.3068-58.375-26.531-102.16-11.938-3.5808,1.1936-7.3808,2.2586-11.312,3.2812-1.7279,33.334 8.0703,64.789 29.844,83.5 32.199,27.67 82.469,17.847 113.91-23.906 30.375,42.462 80.352,53.545 113.22,26.719 15.513-12.662 25.379-31.681 29.625-53.344-13.408-11.771-27.584-23.041-40.469-30.938-12.852-7.8773-28.81-10.72-45.25-10.719z"/>
<path fill="url(#linearGradient2877)" filter="url(#filter3222)" d="m-102.44,331.3c0,7.6935-27.194,13.93-60.74,13.93s-60.74-6.2368-60.74-13.93c0-7.6935 27.194-13.93 60.74-13.93s60.74,6.2368 60.74,13.93z" transform="matrix(.56424 .45163 -.75322 .94103 143.28 92.614)"/>
<path fill="url(#linearGradient2879)" filter="url(#filter3234)" d="m-105.03,331.3c0,7.6935-26.037,13.93-58.154,13.93-32.118,0-58.154-6.2368-58.154-13.93 0-7.6935 26.037-13.93 58.154-13.93 32.118,0 58.154,6.2368 58.154,13.93z" transform="matrix(.65625 .33162 -.55308 1.0945 239.99 28.485)"/>
</g>
</g>
</g>
</svg>
