<svg xmlns="http://www.w3.org/2000/svg" viewBox="0 0 373.14 409.41" xmlns:xlink="http://www.w3.org/1999/xlink">
<defs>
<linearGradient id="linearGradient3691" y1="376.96" y2="333.19" x1="325.52" gradientUnits="userSpaceOnUse" x2="393.2">
<stop offset="0"/>
<stop offset="1" stop-opacity="0"/>
</linearGradient>
<radialGradient fx="376.9" fy="172.3" cx="375.94" cy="177.22" gradientTransform="matrix(.58351 -.50453 .4914 .56832 68.861 259.87)" id="radialGradient3623" r="45.378" gradientUnits="userSpaceOnUse">
<stop offset="0" stop-color="#2b2b2b" stop-opacity="0"/>
<stop offset="1" stop-color="#171717"/>
</radialGradient>
</defs>
<g stroke="#000" transform="translate(-184.36 -157.99)">
<path fill="#4d4d4d" d="m332.4,167.72c25.248-10.863 49.058-12.879 83.903-2.0326 4.0702,4.1664-3.5772,48.009-3.5772,48.009-30.696-14.182-48.263-17.126-78.96,3.3127 0,0-12.596-39.276-1.3659-49.289z"/>
<path fill="url(#radialGradient3623)" d="m332.4,167.72c25.248-10.863 49.058-12.879 83.903-2.0326 4.0702,4.1664-3.5772,48.009-3.5772,48.009-30.696-14.182-48.263-17.126-78.96,3.3127 0,0-12.596-39.276-1.3659-49.289z"/>
<path d="m184.86,540.9c104.31-80.352 232.22-342.44 232.22-374.35 0,0 49.226,56.261 41.352,84.064-33.919,119.77-168.16,286.27-192.18,316.3l-81.39-26.009z"/>
<path fill="#252525" d="m331.33,168.98s-39.275,49.571-33.728,74.323c29.365,131.04 175.09,313.35 175.09,313.35l84.308-53.149c-77.44-28.78-230.94-307.37-225.67-334.52z"/>
<path fill="url(#linearGradient3691)" d="m331.33,168.98s-39.275,49.571-33.728,74.323c29.365,131.04 175.09,313.35 175.09,313.35l84.308-53.149c-77.44-28.78-230.94-307.37-225.67-334.52z"/>
</g>
</svg>
