<svg xmlns="http://www.w3.org/2000/svg" viewBox="0 0 559.96 239.91" xmlns:xlink="http://www.w3.org/1999/xlink">
<defs>
<radialGradient cx="195.93" cy="226.78" gradientTransform="matrix(1.3616 -.01701 .00162 .12987 -71.209 183.25)" id="radialGradient37625" r="257.78" gradientUnits="userSpaceOnUse">
<stop offset="0"/>
<stop offset="1" stop-opacity="0"/>
</radialGradient>
<radialGradient cx="132.51" cy="325.51" gradientTransform="matrix(.24363 2.4145 -13.19 1.331 4731.5 -538.73)" id="radialGradient37664" r="57.111" gradientUnits="userSpaceOnUse">
<stop offset="0" stop-color="#bebebe"/>
<stop offset=".5"/>
<stop offset="1" stop-color="#ababab"/>
</radialGradient>
</defs>
<g fill="url(#radialGradient37625)" fill-rule="evenodd" transform="matrix(1 0 0 .64124 -75.032 76.679)">
<path opacity=".05" d="m468.05,164.74c-18.52-1.95-37.33-.27-55.92-1.62-91.19,3.99-180.34,27.17-269.07,47.67-6.81,1.6-13.62,3.18-20.44,4.73 16.2-.26 33.68-.18 47.41,9.62 13.3,5.89 28.42,5.57 42.62,7.84 41.74,4.16 83.55,6.52 125.32,9.84 8.81,.51 17.78,1.13 26.51,1.39-.16-7.13 8.38-9.81 13.75-6.37 8.2,3.14 16.08,11.16 25.42,8.27 19.76-.67 39.44-2.45 59.23-2.89 32.82-3.06 65.35-9.3 96.62-19.73 2.77-6.99 9.68-11.99 17.4-11.07 3.49-.19 6.98-1.03 10.17-2.52-20.29-20.87-49.36-30.07-76.68-37.16-9.01,4.39-21.75,4.51-27.7-4.89-4.75-1.59-9.66-2.5-14.64-3.11zm21.97,16.6c-4.65-2.97-5.38-14.51-1.2-2.72 .4,.9 .8,1.81 1.2,2.72z"/>
<path opacity=".05" d="m468.1,164.21c-18.48-1.92-37.1-.27-55.65-1.6-87.48,3.69-172.76,25.2-257.82,44.92-12.17,2.87-24.36,5.69-36.54,8.52 17.35-.02 36.51-1.21 51.36,9.38 13.39,6.17 28.75,5.75 43.15,8.08 41.04,4.1 82.23,6.42 123.33,9.69 9.57,.34 20.11,1.71 29.05,1.28-.31-6.53 7.36-9.53 12.46-6.38 7.78,2.74 14.67,9.87 23.29,8.99 20.6-1.41 41.49-2.7 62.2-3.32 32.78-3.15 65.69-9.26 96.92-19.91 2.76-6.85 9.44-11.86 17.06-10.9 3.43-.34 9.13-1.09 10.67-3.3-20.48-21.13-49.74-30.33-77.2-37.49-8.67,4.23-21.01,4.71-26.98-4.24-4.39-2.44-10.27-2.91-15.3-3.72zm21.7,16.65c-5.28-4.39-3.98-12.02-.37-.85l.37,.85z"/>
<path opacity=".05" d="m468.18,163.68c-18.54-1.91-37.23-.26-55.77-1.61-87.76,3.73-173.48,25.39-258.86,45.17-13.4,3.15-26.79,6.26-40.19,9.36 18.77,.25 39.7-2.19 55.83,9.3 13.41,6.2 28.88,5.81 43.33,8.14 41.06,4.1 82.27,6.41 123.39,9.69 9.86,.62 19.73,1.19 29.6,1.62-.89-6.09 6.05-9.97 11.07-7.03 8.84,3.04 17.18,11.86 27.07,8.83 19.73-.66 39.52-2.43 59.33-2.87 32.94-3.21 66.15-9.2 97.34-20.16 2.69-6.69 9.17-11.57 16.61-10.65 4.13-.23 8.24-1.34 11.95-3.23-20.04-21.45-49.16-30.59-76.67-38.42-5.41,.08-11.08,4.05-17.05,2.64-5.36-.25-9.19-4.49-12.65-7.77-4.62-1.48-9.47-2.43-14.33-3.01zm21.41,16.71c-4.6-2.81-4.97-13.87 0,0z"/>
<path opacity=".05" d="m468.22,163.15c-18.47-1.93-37.09-.24-55.61-1.61-89.81,3.79-177.61,26.32-265.02,46.57-13.01,3.05-26.02,6.07-39.05,9.03 19.75,.75 41.93-3.19 59.22,8.57 13.2,6.91 29.04,6.31 43.53,8.72 41.11,4.2 82.39,6.44 123.58,9.77 10.39,.67 20.78,1.23 31.18,1.73-1.11-5.55 4.8-9.95 9.83-7.34 8.46,2.76 15.89,10.7 25.18,9.5 20.15-1.26 40.65-2.69 60.96-3.18 33.35-3.28 67.19-9.12 98.72-20.47 2.61-6.55 8.81-11.33 16.11-10.45 4.1-.24 10.09-1.49 12.59-3.89-20.45-22.14-50.4-31.15-78.61-39.23-8.45,4.17-20.64,5.34-26.58-3.57-4.43-2.94-10.72-3.2-16.03-4.15zm21.16,16.76c-3.92-1.2-4.51-12.78 0,0z"/>
<path opacity=".05" d="m468.3,162.66c-18.44-1.97-37.21-.28-55.74-1.64-88.3,3.73-174.4,25.52-260.25,45.43-16.1,3.74-32.19,7.59-48.33,11.14 19.73,1.12 41.12-3.13 59.38,6.07 13.6,9.51 31.07,8.5 46.87,11.16 41.38,4.35 83.07,6.54 124.59,9.91 10.45,.43 21.88,1.77 31.77,1.41-1.21-5.21 4.28-9.63 9.08-7.04 8.53,2.74 16.08,10.86 25.57,9.49 20.53-1.3 41.18-2.61 61.83-3.27 33.17-3.11 66.2-9.42 97.91-20.12 2.43-6.52 8.57-11.68 15.91-10.66 4.84-.25 9.49-1.71 13.72-4.01-20.66-22.76-51.12-32.08-79.89-40.21-8.23,4.13-20.19,5.39-26.07-3.31-4.12-3.26-11.16-3.32-16.35-4.35zm20.87,16.75c-4.06-1.59-2.65-8.72-.31-.7l.31,.7z"/>
<path opacity=".05" d="m468.35,162.13c-18.5-1.96-37.28-.29-55.84-1.63-86.48,3.6-171.02,24.72-255.09,44.2-19.29,4.5-38.38,9.08-57.706,13.33 18.146,1.14 36.846-1.97 54.606,2.7 10.14,2.52 17.82,10.65 28.69,10.98 48.52,7.46 97.69,8.84 146.54,13.17 12.51,.85 25.2,1.65 37.64,2.14-1.35-4.52 2.61-9.87 7.5-7.66 9.62,2.86 18.35,12.54 29.01,9.37 20.09-.71 40.26-2.39 60.38-2.97 33.02-3.17 65.79-9.5 97.28-20.12 2.36-6.5 8.39-11.65 15.64-10.58 4.93-.32 10.72-1.85 14.31-4.58-20.92-23.07-51.55-32.68-80.8-40.63-8.04,4-19.69,5.34-25.44-3.16-3.7-3.38-9.84-3-14.61-4.31-.71-.08-1.41-.17-2.11-.25zm20.6,16.8c-3.63-.65-2.21-7.61-.28-.65l.28,.65z"/>
<path opacity=".05" d="m468.42,161.6c-18.56-1.98-37.34-.28-56.01-1.64-90.67,3.87-179.02,26.68-267.14,47.07-16.27,3.84-32.59,7.55-48.881,11.26 19.531,1.88 40.011-2.18 59.041,3.3 9.5,2.87 17.05,10.34 27.5,10.64 48.53,7.47 97.71,8.85 146.57,13.18 12.75,.88 25.52,1.57 38.3,2.18-1.48-4.25 1.84-9.94 6.75-7.71 9.07,2.56 17.01,11.48 27.01,9.71 20.1-1.16 40.39-2.62 60.58-3.12 33.83-3.11 67.41-9.53 99.59-20.4 2.24-5.95 7.5-11.32 14.34-10.45 5.63-.08 11.29-1.94 16.26-4.8-20.03-22.6-49.36-32.47-77.58-40.46-5.84-2.88-11.26,3.17-17.44,2.18-5.46,.23-10.02-3.53-13.06-7.52-5.1-1.69-10.45-2.78-15.83-3.42zm20.32,16.86c-3.21,.26-1.8-6.46-.27-.62l.27,.62z"/>
<path opacity=".05" d="m468.47,161.07c-18.6-1.95-37.39-.24-56.01-1.64-89.77,3.84-177.21,26.19-264.38,46.39-17.78,4.49-35.98,7.77-53.567,12.75 21.127,2.56 43.357-2.69 63.817,4.53 8.25,3.86 15.97,9.44 25.51,9.81 48.24,7.33 97.1,8.74 145.64,13.04 12.81,.66 26.73,2.09 38.85,1.84-1.22-3.67 .92-9.24 5.6-7.56 9.42,2.54 17.47,11.75 27.78,9.85 20.69-1.2 41.69-2.51 62.47-3.27 33.24-3.19 66.26-9.58 97.9-20.31 2.24-5.81 7.19-11.27 14.03-10.34 6.11-.17 11.84-2.09 17.03-5.25-20.07-22.89-49.73-33.04-78.25-41.03-6.18-3.05-11.95,3.46-18.51,2.08-5.19,.02-9.02-4.07-11.96-7.42-5.17-1.74-10.54-2.83-15.95-3.47zm20.06,16.92c-2.73,1.51-1.95-6.62 0,0z"/>
<path opacity=".05" d="m468.55,160.55c-18.4-1.99-36.99-.2-55.41-1.66-80.36,3.16-159.15,21.83-237.2,39.82-27.02,6.53-54.06,12.44-80.957,19.05-3.737,1.18 .78,1.67 2.365,1.71 17.912,1.21 36.132-1.35 53.852,2.05 10.84,1.78 18.52,10.48 29.54,11.43 47.38,7.6 95.45,8.83 143.17,13.14 15.03,1.07 30.06,1.95 45.11,2.6-1.01-3.14-.46-9.16 4.21-8.03 9.66,2.29 17.59,11.51 28.09,10.12 11.46-1.11 23.25-1.21 34.82-2.25 14.77-.74 29.49-.61 44.11-2.98 27.92-3.61 55.53-9.56 82.21-18.61 2.12-5.28 6.36-10.87 12.74-10.22 6.67-.04 13.18-2.14 18.78-5.68-16.93-19.36-40.95-30.37-65.25-37.53-6.23-1.61-12.66-4.55-18.82-5.11-7.15,3.42-17.45,5.27-22.95-1.9-3.09-4.6-9.96-3.98-14.89-5.47-1.16-.22-2.34-.34-3.52-.48zm19.77,16.93c-2.53,1.33-.86-3.56 0,0z"/>
<path opacity=".05" d="m468.6,160.02c-17.7-2.12-35.59,.02-53.31-1.73-47.64,1.48-94.84,9.11-141.54,18.27-57.64,11.44-114.6,25.99-171.94,38.84-3.136,.83-6.892,.95-9.256,3.39 .721,.98 2.733,.92 3.969,1.13 12.067,.79 24.177,.13 36.257,.42 7.62,.17 15.37,.36 22.64,2.91 4.74,1.17 8.69,4.08 12.94,6.32 4.6,2.22 9.53,3.74 14.62,4.28 43.29,6.89 87.18,8.05 130.77,12.05 18.62,1.38 37.26,2.55 55.91,3.36-.34-2.45-1.19-5.65 .73-7.6 2.31-1.49 5.19,.31 7.44,1.19 6.56,3.12 12.71,7.7 20.07,8.69 1.87,.36 3.63-.43 5.35-.68 18.36-.27 36.63-2.73 55-2.46 35.5-2.98 70.82-9.56 104.59-21.06 1.97-3.93 4.26-8.76 9-9.73 4.61-.61 9.4-.38 13.82-2.09 3.18-.96 6.26-2.61 9.15-4.36-8.09-8.94-17.62-16.83-28.19-22.74-17.44-9.89-36.91-15.25-56.01-20.9-5.63,2.34-12.11,4.85-18.17,2.45-2.89-1.14-5.12-3.5-6.72-6.12-5.53-1.95-11.31-3.13-17.12-3.83zm19.51,16.99c-2.12,1.28-.52-1.38 0,0z"/>
<path opacity=".05" d="m468.67,159.52c-17.71-2.13-35.6,.02-53.34-1.73-39.04,1.15-77.83,6.57-116.23,13.43-67.91,12.21-134.7,29.72-202.02,44.69-1.758,.53-3.941,1.13-5.002,2.68-.106,1.52 2.156,1.39 3.202,1.7 10.53,.96 21.14,.31 31.7,.5 7.85,.16 15.83-.1 23.53,1.61 5.25,1.25 10.4,3.06 14.86,6.16 5.36,3.1 11.37,5.09 17.53,5.79 43.3,6.89 87.21,8.05 130.81,12.05 18.84,1.4 37.69,2.58 56.57,3.39-.27-2.48-1.44-5.67 .46-7.73 2.42-1.3 5.1,.61 7.33,1.51 6.55,3.17 12.79,7.74 20.21,8.5 1.77,.32 3.43-.44 5.06-.72 18.33-.22 36.58-2.72 54.92-2.45 35.63-2.97 71.07-9.57 104.95-21.09 1.99-4.06 4.42-9.24 9.46-9.82 5.28-.34 10.74-.62 15.61-2.86 2.55-1.04 4.98-2.36 7.33-3.82-11.65-13.31-26.56-23.57-42.9-30.3-13.65-5.82-27.98-9.82-42.17-14.07-5.26,2.28-11.15,4.57-16.97,2.92-3.32-1.03-5.77-3.68-7.62-6.48-5.59-1.94-11.41-3.16-17.28-3.86z"/>
<path opacity=".05" d="m468.72,158.99c-18.43-2.02-37.05-.21-55.51-1.68-74.39,2.9-147.53,19.11-219.85,35.75-32.79,7.71-65.49,15.32-98.201,22.89-1.926,.23-5.44,3.07-2.355,4.33 13.736,2.24 27.836,.42 41.706,1.14 11.64-.26 23.51,2.34 33.15,8.99 12.3,5.84 26.62,5.65 39.94,7.83 39.74,4.38 79.7,6.22 119.52,9.65 14.59,1.01 29.19,1.82 43.8,2.47-.18-2.35-2.33-8.13 1.67-8.22 9.92,2.37 18.29,11.96 29.16,10.16 16.32-.99 32.88-2.25 49.31-2.83 21.02-.29 41.9-3.96 62.56-7.82 16.9-3.57 34.04-7.66 50.11-13.7 2.02-5.22 6.08-10.71 12.48-9.69 7.3-.14 14.16-2.95 20.24-6.82-17.07-20.18-41.51-31.82-66.48-39.21-6.56-1.92-13.17-4.27-19.75-5.71-6.83,3.24-16.59,5.96-22.05-1.07-2.84-4.82-9.6-4.19-14.42-5.72-1.67-.3-3.34-.56-5.03-.74z"/>
<path opacity=".05" d="m468.8,158.47c-18.68-2-37.54-.34-56.24-1.65-89.02,3.69-175.78,25.74-262.18,45.76-18.9,4.78-38.23,8.3-56.924,13.56-3.514,.75-2.807,5.34 .729,5.04 19.985,2.47 40.705-2.05 60.315,3.43 9.24,2.96 16.77,10.03 26.95,10.58 48.94,7.64 98.55,9.01 147.83,13.38 14.08,.96 28.18,1.75 42.28,2.33-.29-2.21-2.66-9.65 2.15-7.99 9.88,3.39 19.11,12.73 30.22,9.52 19.81-.76 39.7-2.42 59.49-2.9 34.15-3.22 68.08-9.78 100.55-20.88 2.04-5.14 5.8-10.95 12.26-9.88 7.66-.12 14.68-3.11 21.02-7.21-17.96-21.6-44.57-33.51-71.15-41.08-6.9-1.2-14.01-6.85-20.69-2.63-6.53,3.01-15.47,1.75-18.67-5.33-5.75-2.03-11.84-3.34-17.94-4.05z"/>
<path opacity=".05" d="m468.85,157.94c-18.69-2-37.55-.28-56.3-1.66-89.34,3.73-176.48,25.91-263.26,46.01-18.41,4.54-37.11,8.25-55.399,13.06-3.333,.45-4.92,5.39-.971,6.05 19.33,2.91 39.47-1.34 58.58,2.93 10.61,2.22 18.65,10.84 29.87,11.39 48.96,7.64 98.59,9.01 147.89,13.39 14.29,.96 28.6,1.77 42.92,2.36 .17-2.27-2.3-6.8-.03-8.29 10.41,2.26 19.57,13.14 30.99,9.77 20.12-.62 40.22-2.42 60.33-2.91 34.28-3.2 68.28-9.82 100.87-20.95 2-4.98 5.58-10.94 11.93-9.78 7.87-.13 15.28-3.38 21.81-7.63-18.15-21.94-44.83-34.06-71.81-41.68-5.76-1.12-11.77-4.96-17.42-4.04-6.83,3.56-17.34,4.94-21.4-3.3-5.44-2.98-12.38-3.77-18.6-4.72z"/>
<path opacity=".05" d="m468.93,157.41c-18.72-2.01-37.69-.27-56.39-1.67-90.71,3.84-179.16,26.55-267.26,46.97-17.19,4.24-34.53,7.58-51.634,12.16-3.839,.56-5.243,6.29-.867,7.05 19.901,3.03 40.611-1.65 60.261,3.35 9.81,2.79 17.62,10.4 28.22,10.97 48.98,7.65 98.63,9.03 147.95,13.4 14.52,.99 29.05,1.69 43.61,2.4 .2-2.2-2.25-6.82-.34-8.3 10.5,3.03 19.99,13.18 31.67,9.74 19.78-.75 39.59-2.43 59.36-2.9 34.4-3.25 68.5-9.86 101.21-21.06 1.94-4.9 5.38-10.8 11.57-9.7 8.21-.07 15.84-3.63 22.63-8.01-17.16-20.77-41.84-33.22-67.36-40.74-7.29-1.96-14.71-5.19-21.97-6.01-6.57,3.33-16.77,5.84-21.26-1.99-4.63-4.09-12.12-4.2-18.19-5.51l-.99-.12-.22-.03z"/>
<path opacity=".05" d="m468.98,156.88c-18.74-1.99-37.69-.31-56.46-1.65-87.61,3.61-173.13,25.08-258.24,44.82-20.22,5-40.78,9.05-60.851,14.38-4.329,.69-5.586,7.16-.791,8 19.402,3 39.802-1.38 59.022,3.01 10.31,2.43 18.27,10.63 29.21,11.27 48.77,7.66 98.2,8.97 147.33,13.36 15.07,1.04 30.14,1.86 45.23,2.5 .26-2.17-2.37-7.13-.38-8.21 10.08,3.54 19.77,13.01 31.25,9.62 19.49-.64 38.81-2.44 58.27-2.8 34.8-3.16 69.44-9.91 102.53-21.22 1.98-4.68 5.02-10.8 11.2-9.6 8.52-.11 16.4-3.85 23.42-8.43-17.26-21.07-42.23-33.82-68-41.34-7.37-1.91-14.96-5.55-22.35-6-6.37,3.21-16.21,5.76-20.61-1.83-3.57-3.94-10.26-3.79-15.3-5.24-1.49-.27-2.98-.48-4.48-.64z"/>
<path opacity=".05" d="m469.05,156.39c-18.81-2.06-37.73-.3-56.55-1.7-91.44,3.85-180.57,26.9-269.42,47.43-16.57,4.15-33.49,7.29-49.896,11.83-4.786,.85-5.923,8.07-.686,9 19.502,2.99 39.682-1.39 59.022,3.01 10.06,2.22 17.67,10.3 28.26,11.08 49.43,7.87 99.58,9.2 149.37,13.63 14.96,1.03 29.94,1.82 44.92,2.47 .27-2.1-2.3-7.2-.61-8.12 9.97,3.96 19.57,12.73 30.92,9.5 19.43-.68 38.84-2.46 58.24-2.83 34.96-3.13 69.64-9.96 102.86-21.3 1.93-4.54 4.83-10.69 10.87-9.52 8.82-.05 16.91-4.14 24.2-8.78-17.16-21.11-41.94-34.12-67.73-41.71-7.76-2.06-15.7-5.66-23.42-6.38-6.33,3.33-16.61,5.87-20.59-2.14-5.14-3.83-13.37-4.32-19.76-5.47z"/>
<path opacity=".05" d="m469.1,155.86c-18.81-2.04-37.82-.33-56.62-1.68-89.83,3.73-177.38,26.08-264.65,46.3-18.25,4.55-36.75,8.05-54.859,13-4.904,.89-6.481,8.39-1.095,9.82 16.994,2.82 34.524,.01 51.624,1.74 9.06,.42 16.83,4.64 24.5,9.02 14.1,5.71 29.77,5.62 44.66,7.92 41.17,4.07 82.49,6.44 123.73,9.7 12.77,.81 25.55,1.49 38.33,2 .49-1.7-2.84-8.24-.41-7.77 9.45,4.17 19.12,12.27 30.11,9.15 19.78-.79 39.45-2.41 59.24-2.91 34.71-3.27 69.2-9.99 102.2-21.35 1.96-4.36 4.51-10.62 10.51-9.39 9.14-.08 17.46-4.37 24.98-9.2-16.8-20.8-40.95-34.05-66.3-41.65-8.47-2.4-17.2-6.15-25.7-7.1-5.93,2.83-15.18,6-19.56-1.02-3.49-4.64-10.69-4.4-16.11-5.93-1.52-.27-3.05-.49-4.58-.65z"/>
<path opacity=".05" d="m469.18,155.33c-18.88-2.06-37.85-.28-56.71-1.68-87.71,3.63-173.32,25.08-258.56,44.86-20.33,5.06-41.02,9.07-61.183,14.49-5.317,1.09-6.936,9.28-1.018,10.78 15.501,2.74 31.431,.36 47.151,1.48 10.08-.13 19.66,3.53 28.02,8.85 13.99,6.17 29.79,5.92 44.71,8.29 41.17,4.16 82.51,6.45 123.76,9.75 13.34,.9 26.62,1.47 39.98,2.1 .6-1.68-3.38-9.28 .2-7.24 8.97,4.42 18.6,11.59 29.1,8.56 19.39-.68 38.74-2.46 58.05-2.82 35.2-3.18 70.16-10.05 103.55-21.52 2.06-4.21 4.22-10.56 10.19-9.31 9.45-.06 17.98-4.63 25.77-9.59-16.35-20.21-39.44-33.69-64.08-41.32-9.52-2.79-19.2-6.86-28.79-8.12-5.99,3-15.78,6.15-19.61-1.6-5.15-4.26-13.88-4.75-20.53-5.96z"/>
<path opacity=".05" d="m469.22,154.8c-18.85-2.01-37.88-.34-56.77-1.66-86.09,3.51-170.17,24.31-253.78,43.7-21.99,5.45-44.32,9.86-66.156,15.68-5.836,1.27-7.264,10.18-.945,11.77 15.861,2.82 32.231,.26 48.241,1.55 9.75-.02 18.8,3.67 26.88,8.75 14.02,6.22 29.89,5.96 44.85,8.34 40.12,4.07 80.32,6.26 120.5,9.51 14.63,.98 29.28,1.7 43.93,2.38-.86-4.18-2.9-10.19 2.74-5.6 7.82,4.31 16.74,9.56 25.97,6.87 19.7-.76 39.31-2.41 59.04-2.89 34.96-3.3 69.66-10.06 102.86-21.53 2.05-3.94 4-10.52 9.85-9.21 9.74-.08 18.55-4.87 26.56-10.01-16.3-20.26-39.14-33.88-63.76-41.63-9.91-2.96-20.03-7.07-29.96-8.51-5.74,2.93-15.4,6.25-19.11-1.3-5.04-4.41-13.1-4.71-19.73-6.06l-.99-.12-.22-.03z"/>
</g>
<g transform="matrix(.9848 -.17366 .17366 .9848 -122.98 25.488)">
<path stroke-opacity=".198" fill="url(#radialGradient37664)" stroke="#000" fill-rule="evenodd" stroke-width=".937" d="m658.84,124.59s-21.81-34.706-108.52-41.06c-.2,.101-.38,.17-.58,.279-3.81,2.083-5.98,3.446-8.17,6.194-1.46,1.834-5.78,4.496-8.04,5.837 3.74-2.699 5.23-8.146 7.7-12.852-13.86-.662-29.24-.643-46.32,.327-75.96,4.317-212.83,53.665-286.85,82.345-1.14,1.25-2.14,2.48-2.61,3.61-1.52,3.72-1.95,.99-2.08-1.78-1.74,.68-3.59,1.39-5.25,2.04-.84,.82-1.75,1.57-2.62,2.33-1.1,.97-1.46,.5-1.42-.76-.57,.23-.99,.41-1.55,.63-1.24,3.8-2.94,4.58-4.43,1.73-19.06,7.56-30.99,12.56-30.99,12.56l22.93,27.93s9.22-.09 23.06-.34c-.32-3-.22-4.51 2.28-.05 1.32-.02 1.93-.03 3.34-.06-1.01-3.46-1.27-4.34 2.47-.06 1.02-.02 2.18-.05 3.25-.07-.06-.24-.08-.41-.15-.67-1.69-6.5 2.24-1.62 4.61,.57 1.59-.03 2.98-.07 4.65-.11-.36-1.96-1.4-4.34-1.24-4.16 .59,.68 2.08,2.42 3.84,4.1 1.47-.04 3.09-.1 4.62-.14 .1-.49 .24-.83 .57-.63 .31,.18 .61,.4 .9,.6 50.9-1.36 130.44-4.55 199.46-11.91-1.07-2.17-2-4.45-2.77-7.41-.49-1.9-3.03-11.9-1.43-8.61 2.66,5.49 4.21,3.74 7.74,7.77 3.97,4.55 6.92,4.34 10.51,6.66 7.02-.82 13.95-1.66 20.64-2.59 70.42-9.74 121.26-29.69 152.96-46.18-3.82-4.23-7.8-9.21-5.63-9.23 3.08-.03 6.12,.9 9.2,.87 3.53-.03 5.48,1.25 8.44,1.78 18.12-10.48 27.26-18.45 27.48-19.49zm-125.36-28.704c-.28,.195-.56,.383-.86,.547-1.15,.624-.38,.186 .86-.547z"/>
<path stroke-opacity=".147" fill="none" stroke="#c9c9c9" stroke-width=".97" d="m158.9,184.78c.02,.18 .03,.36 .04,.54m7.2-3.33c.31,4.65 .83,9.25 1.56,13.82m5.66-16.57c.56,9.73 2.03,19.27 4.54,28.73m2.64-31.51c.6,11.81 2.51,23.36 5.97,34.81m1.19-37.56c.54,12.7 2.59,25.12 6.44,37.43m.7-40.15c.47,13.59 2.65,26.87 6.9,40.02m.2-42.67c.4,14.45 2.71,28.57 7.37,42.55m-.29-45.16c.31,15.25 2.75,30.16 7.8,44.93m-.76-47.51c.23,16.04 2.78,31.73 8.23,47.26m-1.21-49.83c.13,16.84 2.79,33.31 8.66,49.62m-1.68-52.18c.02,17.62 2.79,34.89 9.11,51.98m-2.16-54.53c-.1,18.4 2.78,36.45 9.54,54.29m-2.62-56.7c-.21,19.12 2.78,37.91 9.96,56.47m-3.07-58.86c-.33,19.83 2.76,39.37 10.39,58.64m-3.54-61.02c-.46,20.53 2.74,40.81 10.82,60.79m-4.01-63.13c-.58,21.22 2.71,42.24 11.26,62.9m-4.48-65.26c-.71,21.9 2.67,43.65 11.67,64.99m-4.92-67.31c-.86,22.53 2.6,44.98 12.05,66.97m-5.34-69.28c-1,23.16 2.54,46.33 12.44,68.95m-5.77-71.15c-1.14,23.74 2.48,47.6 12.83,70.83m-6.21-72.94c-1.26,24.29 2.44,48.82 13.23,72.62m-6.64-74.77c-1.4,24.86 2.38,50.07 13.63,74.46m-7.07-76.56c-1.54,25.39 2.31,51.27 14.01,76.22m-7.5-78.31c-1.68,25.88 2.23,52.41 14.35,77.88m-7.88-79.97c-1.82,26.38 2.15,53.56 14.7,79.55m-8.26-81.59c-1.97,26.85 2.05,54.68 15.04,81.18m-8.65-83.25c-2.12,27.32 1.96,55.81 15.38,82.82m-9.02-84.84c-2.27,27.76 1.85,56.92 15.71,84.4m-9.41-86.24c-2.39,28.16 1.79,57.93 16.07,85.85m-9.82-87.69c-2.51,28.55 1.73,58.94 16.42,87.27m-10.2-89.09c-2.64,28.88 1.64,59.84 16.7,88.54m-10.53-90.36c-2.76,29.22 1.56,60.77 17,89.84m-10.87-91.55c-2.87,29.52 1.49,61.62 17.28,91.02m-11.21-92.7c-2.97,29.8 1.43,62.46 17.58,92.16m-11.55-93.78c-3.07,30.07 1.37,63.27 17.88,93.28m-11.89-94.92c-3.18,30.34 1.31,64.1 18.17,94.39m-12.23-95.99c-3.28,30.6 1.25,64.91 18.47,95.48m-12.6-96.92c-3.34,30.78 1.24,65.57 18.75,96.33m-12.92-97.77c-3.4,30.94 1.2,66.16 18.97,97.08m-13.18-98.48c-3.47,31.07 .56,58.86 14.05,88.13m-8.31-89.535c-3.54,31.225 1.13,67.315 19.38,98.525m-13.71-99.81c-3.57,31.33 1.14,67.82 19.61,99.14m-13.99-100.32c-3.59,31.418 1.16,68.258 19.84,99.638m-14.27-100.78c-3.6,31.505 1.2,68.695 20.08,100.12m-14.56-101.29c-3.62,31.588 1.22,69.128 20.3,100.61m-14.83-101.72c-3.63,31.622 1.24,69.432 20.44,100.91m-15.04-101.86c-3.6,31.602 1.31,69.592 20.56,101m-15.21-101.87c-3.56,31.584 1.39,69.734 20.71,101.05m-15.42-101.91c-3.51,31.553 1.49,69.853 20.84,101.08m-15.6-101.91c-3.45,31.484 1.57,69.864 20.9,100.95m-15.71-101.71c-3.39,31.379 1.65,69.769 20.91,100.7m-15.81-101.19c-3.26,31.242 1.83,69.522 20.97,100.2m-15.91-100.7c-3.15,31.105 1.99,69.265 21.02,99.705m-16.01-100.22c-3.04,30.955 2.13,68.965 21,99.155m-16.05-99.596c-2.91,30.756 2.28,68.556 20.94,98.466m-16.07-98.611c-2.72,30.521 2.51,67.961 20.91,97.501m-16.09-97.643c-2.54,30.283 2.73,67.343 20.87,96.513m-16.1-96.638c-2.36,30.038 2.95,66.708 20.8,95.498m-16.07-95.63c-2.19,29.75 3.12,65.97 20.64,94.38m-15.97-94.516c-2.02,29.466 3.3,65.256 20.49,93.286m-15.89-93.239c-1.82,29.159 3.51,64.409 20.35,92.009m-15.79-91.942c-1.64,28.832 3.71,63.542 20.18,90.712m-15.68-90.675c-1.45,28.475 3.88,62.575 19.93,89.315m-15.48-89.244c-1.27,28.114 4.04,61.624 19.69,87.924m-14.97-82.93c-1.08,27.73 3.89,55.78 19.12,81.61m-15.12-86.111c-.88,27.321 4.41,59.481 19.21,84.821m-14.94-84.512c-.68,26.872 4.58,58.292 18.91,83.122m-14.68-82.806c-.5,26.406 4.72,57.076 18.58,81.396m-14.42-81.11c-.32,25.96 4.85,55.91 18.27,79.74m-14.16-79.241c-.14,25.451 5,54.591 17.94,77.871m-13.89-77.38c.04,24.91 5.11,53.21 17.56,75.94m-13.57-75.492c.21,24.372 5.21,51.852 17.17,74.042m-13.23-73.524c.36,23.824 5.29,50.484 16.79,72.134m-12.92-71.493c.53,23.243 5.39,49.043 16.41,70.103m-12.59-69.379c.69,22.599 5.46,47.469 15.97,67.909m-12.21-67.164c.83,21.954 5.51,45.904 15.53,65.734m-11.84-65.101c.96,21.321 5.54,44.421 15.08,63.661m-11.45-62.784c1.1,20.634 5.57,42.794 14.64,61.384m-11.07-60.486c1.22,19.866 5.57,41.026 14.11,58.936m-10.61-58.072c1.32,19.122 5.54,39.332 13.6,56.572m-10.16-55.691c1.41,18.371 5.49,37.651 13.08,54.221m-9.7-53.136c1.5,17.566 3.24,29.596 10.35,45.446m-7.05-44.364c1.58,16.754 4.37,30.184 11.03,45.324m-7.8-44.268c1.64,15.968 4.73,30.138 10.95,44.568m-7.78-43.38c1.69,15.14 5.21,30.58 11,44.29m-7.9-43.03c1.72,14.24 5.06,28.67 10.4,41.58m-7.39-40.36c1.73,13.34 4.9,26.79 9.81,38.94m-6.87-37.67c1.73,12.43 4.71,24.9 9.2,36.26m-6.35-34.91c1.72,11.52 4.52,23.02 8.6,33.58m-5.83-32.2c1.69,10.6 4.3,21.14 7.99,30.9m-5.3-29.44c1.64,9.69 4.07,19.28 7.39,28.23m-4.78-26.69c1.57,8.75 3.8,17.38 6.75,25.5m-4.28-24.08c1.49,7.82 3.5,15.52 6.1,22.81m-3.7-21.21c1.38,6.84 3.17,13.57 5.4,20m-3.15-18.47c1.27,5.92 2.84,11.74 4.75,17.34m-2.59-15.69c1.12,4.99 2.47,9.9 4.06,14.65m-2.06-13.01c.97,4.1 2.11,8.15 3.4,12.08m-1.58-10.49c.81,3.26 1.73,6.48 2.75,9.63m-1.13-8.02c.64,2.42 1.33,4.82 2.08,7.18m-.81-5.94c.48,1.76 .99,3.51 1.54,5.24"/>
<g fill-rule="evenodd">
<g stroke-width=".937">
<path stroke-opacity=".328" fill="#787878" stroke="#040404" d="m658.48,124.37s-39.41-5.17-96.53-1.68c-68.93,4.21-162.36,18.14-226.68,31.31-117.62,24.08-239.12,58.3-239.12,58.3-.004,0 17.25-1.55 45.64-6.21 17.7-2.9 83.8-23.88 200.56-48.99 65.03-13.98 150.96-24.43 214.37-30.61 57.15-5.57 98.67-2.78 101.76-2.12z"/>
<path opacity=".364" stroke-opacity=".237" fill="#fff" stroke="#b0b0b0" d="m528.25,127.31c-96.5,9.17-192.12,26.58-286.31,49.53-39.62,9.39-79.05,19.51-118.38,30.01 33.04-4.06 64.55-15.42 96.85-23.02 74.35-18.95 149.22-36.56 225.4-46.4 28.59-3.95 57.23-7.33 85.95-10.42l-3.51,.3z"/>
</g>
<path d="m176.77,188.3c-1.02-1.23-3.04-1.33-3.56-3.34-.47-1.81-2.17-3.25-4.13-4.04-1.05-.42-.61,3.74-4.16-1.2 0,0 1.73,4.41-.51,.99-.6-.92-2.29,1.78-3.64,1.58-1.24-.18-1.09-4.58-5.71-.57-2.71,2.36-2.14-5.69-5.04-1.85-3.16,4.18-1.1,19.48-3.04,12.2-1.65-6.19-1.77-6.37-6.71-5.08-4.11,1.07-3.24,3.82-2.85,5.29 .23,.9-1.63,1 1.36,.79 1.12-.08-2.16,1.7-1.68,2.42 1.52,2.31-9.09,1.67-2.38,1.19 2.29-.16-4.08,2.23-5.57,3.73-3.36,3.38 13.26-4.37 5.3,1.18-.17,.12 7.76-2.02 2.52-.66-.32,.08 1.2,1.5 2.42,3.35 .21,.33 1-.07 1.51-.1 .62-.05 2.14,.45 2.8,.4-13.38,22.4 2.31-2.66-2.73,7.26-.2,1.13 4.96-5.55 3.95,.39-1.83,10.72-1.03,4.63-.1,2.59 .87-1.93 8.5-5.11 6.79-3.48-.08,.08 1.21-3.28 .84,1.77-.05,.8-.35,1.61-.52,2.42-.28,1.24 .09-5.57 .81-2.78 .26,.99 5.79,14.85 3.75,6.99-.74-2.84 4.17-6.11 4.92-3.27 .09,.38 2.21-3.47 2.54-3.5 1.02-.11 3.01,7.1 1.5,1.31-.29-1.11 1.95,1.58 2.93,2.37 .73,.59 2.47-1.2 2.53-2.08 .05-.68 1.8-.21 2.66-.12 .1,.01-3.38-3.27 2.45-.93 .65,.26 3.15-.99 4.12-1.92 1.83-1.74 6.11,.12 3.55-2.63-.19-.2-.39,.48-.59,.72-.27,.34-3.26-3.51-.33-2.76 1.86,.48 1.54-2.7 .03-2.85-14.47-1.44 4.01-4.74-3.42-2.81-5.24,1.37 8.28-2.76 2.46-2.34-.65,.04-1.29-.24-1.94-.07-1.22,.32-2.54,.53-3.74,.41-.26-.03 1.45-1.23-1.65-.43-.12,.03 .05-.29-.07-.26-4.13,1.07-6.19,3.44-4.32,1.12 .31-.38-1.3-.5-1-.88 .85-1.04-2.73-2.98 1.62-4.12 6.72-1.74 7.1-3.4 2.53-.65-5.26,3.16 9.41-4.16 .3-1.79-8.64,2.25-4.18,1.99 .82-2.77 3.24-3.09-.08-3.83 2.38-1.19z"/>
<path opacity=".28" fill="#ccc" d="m175.72,201.11c.44-.26 1.84-3.5-.41-4.19-2.84-2.29-1.77-.33-4.49,.26 1.41-1.89 6.47-3.6 3.69-6.71-2.55,.89-1.93-1.3-4.39-1.47 2.15-2.5 1.51-3.91-2.13-3.19-.06-4.4-2.86,.14-5.72-1.52-2.72-2.07-2.13-2.73-1.28,.66-3.44,1.03-.49-1.77-2.33-2.24-.17,.49-2.77-2.3-4.77,.02-2.63,.44-3.54,2.04-4.94,3.74-.58,2.3-5.47,2-7.84,.9 5.92,4.94-7.15,5.63 .96,6.89-.16,1.05-3.74,.77-3.05,3.31-4.73-.14-1.81,7.01 1.21,4.02 .78,2.23 4.66,.84 4.77,2.57-2.03,2.05-4.56,5.42-.67,6.63 2.37-.64 1.56,2.89 4.39,2.44 2.67,.62 2.06-5.37 3.24-2.42 2.08,.73 2.53,1.17 2.47,3.42 .72,3.56 6.43,1.27 4.58-1.51 3.18-.48-3.8-3.94-2.43-6.47-.95-3.39-5.8-1.04-7.1-.74-1.04-1.66 1.69-6.02-1.56-5.5 1.37-1.9-1.12-3.92-1.53-.57-1.43-1.95 .64-4.78 1.02-5.02 .75,1.64 2.26-1.06 1.46,1.66-.13,1.9 3.2,2.81 3.66-.21-.33-1.78-4.27-2.44-1.81-2.98 1.71,1.55 5.99-3.39 3.02-2.92-1.37-1.62 2.62,.63 2.82-1.57 1.04-.47 3.26-4.48 3.07-1.1 3.1,3.5 2.21,2.23 4.69,2.5-2.01,3.13 4.6-.67 1.77,1.73-1.95,1.64-4.19,1.83-3.26,4.86 1.65,1.38-1.82,2.5 .55,3.6 1.03,1.64 3.74,2.31 5.06,1.94 2.12-2.25 .25,1.63 2.14,2.64 .11-.81 3.89-2.51 5.14-3.46zm-5.66,2.92l-.15,.07 .15-.07zm6.76-.56c.5-1.8 1.7-2.02 0,0zm-2.83-.59c-.67-.12 .36-.83 0,0zm-.37-.03c-.91,.01-2.13,.22 0,0zm1.47,5.78h.26-.26zm-.43-.05c.08,.03 .37,.03 0,0zm-2.2-4.01c-2.81,1.69 .3-1.96 0,0zm-1.82,.6c.06-.21 .42,.45 0,0zm-.5-.32c-1.1-.86-.11,1.16-1.15,1.78-4.74,2.35-.45-2.34-6.81-.35-.01,1.9-2.1-.41-1.79,2.79-.75,.88-.87-.03-.54,1.91 1.23,.09 2.63,2.32 4.48,1.07 3.81,1.16 4.46,.23 3.61-2.37 1.04-.53 .6-2.04-.64-1.35 .01-.48 2.83-.77 1.4,.16 4.4,6.31 4.07,2.93 1.44-3.64zm-.15-.45c-1.01-.68 .51,.87 0,0zm-3.49-9.58c-5.17,1.5 .79-4.86 0,0zm2.61,12.3c-.35,.16 .16-.44 0,0zm-.88-2.29c.06,.11 .08-.17 0,0zm.62,2.52c-.25,.16 .12-.29 0,0zm-.01,.1c-.1,.55-.5-.14 0,0zm-4.48-11.27c-3.37-1.27 .47-3.32 0,0zm2.8,12c-.15-.05 .06-.12 0,0zm-.06,.01c-.1,.06 .02-.17 0,0zm-7.02-25.13c-.19,.21 .2-.1 0,0zm-4.78,5.95c.21-.15 .31,.49 0,0zm-3.91-.14c-.8,2.31-1.29,1.46-2.23,.51-3.2,.94 3.09-1.86 2.23-.51zm-1.14,.84c.2,.19 .23-.2 0,0zm-.82-.3c-.39-.02 .25,.21 0,0zm-.76-.67c-.08-.14 .44,.01 0,0zm4.57,18.92c-4.47,6.44 .47-6.81 0,0zm-6.18-18.67c-1.46-.77 1.39-.05 0,0zm4.08,18.67c.02,.32-.2-.19 0,0zm-5.13-18.62c-.37-.24 .32,.01 0,0zm-2.47,6.04c-1.42-2.16 .09-1.2 0,0zm3.08,12.59c-4.82,3.3 .26-5.71 0,0z"/>
<path opacity=".833" fill="#4d4d4d" d="m178.78,205.14c-5.26-.24-4.76-2.63-3.9-4.44-2.85-.4-7.7,4.71-7.4-.88-1.18-.94 .45-5.32-2.79-3.91-2.35-.25 3.81-4.55 5.87-5.74 1.61-.23-5.29-.47-.31-5.64-1.88-1.05-3.64,4.19-5.3,1.85-1.93,2.34-5.94,1.41-6.87-4.69-.43,1.43-.1,9.92-4.03,1.86-.59-2.42 1.6,8.14-2.62,1.31-1.7,4.11 1.61,8.54-2.37,11.55-3.77-.74-2.16-6.6-4.74-7.65-1.74-.45-5.87,2.03-2.21,2.64 1.64,2.73-2.33,4.64-2.1,6.84 7.69-.84-.59,3.41 3.24,3.52 4.55,.15 6.02,1.05 2.35,5.2 2.65-.31 2,4.19 4.46,1.85 2.72-2.26 5.78-.79 5.55,2.72 .37,3.66 1.56,2.19 3.6,1.06 2.95,.92 3.84-4.34 6.76-1.82 1.86,.87 2.68,2 4.01-.81 1.37-2.8 4.61,.34 6.78,.33 1.57-.89-1.53-2.02-2.96-4.04-.21-.53 6.43-1.37 4.98-1.11zm-10.06-8.87c-.01,.96 1.34-.9 0,0z"/>
<g fill="#ebebeb">
<path opacity=".243" d="m171.02,193.22c-.51,.18 .35,.2 0,0zm-.44-.43c-1.08-1.19-4.82,2.96-1.06,.89l.98-.23c.3-.06 .58-.56 .08-.66zm1.69,13.41c-.49,.51 .52,.3 0,0zm-5.52-5.08c.54,5.63 4.44-1.8 0,0zm.49,12.94c.91,.59 0-1.8 0,0zm-20.05-18.97c-5.21,2.41 3.19,3.67 0,0zm-1.42,2.99c2.49,1.58 2.12-2.18 0,0zm-10.43,.71c-.45,2.65 3.56-.54 0,0z"/>
<path opacity=".243" d="m171.82,192.95c-2.18-3.51-4.57,1.27-7.02,2.18 1.11,1.07 5.69-2.12 3.32,.72 1.32-.39 3.13-1.69 3.7-2.9zm-7.03,2.28c-.06-.03 0,.11 0,0zm8.07,4.43c-1.68,.73 .73,1.65 0,0zm-.95,3.7c-.26,.28 .32,.15 0,0zm-4.52,.72c.42,3.56 2.2-1.41 0,0zm-4.15-17.42c-.68-.94 .41,1.3 0,0zm4.43,24.45c.42,.28 0-.85 0,0zm-4.42-1.72c-1.31-1.91-.37,2.46 0,0zm-6.31,4.29c-.77-1.94-.39,.72 0,0zm-3.06-7.02c-.92-.05-.54,.24 0,0zm.03,1.83c-1.32,1.17 1.14,.94 0,0zm-4.87,.4c-1.04,.49-.96,3.2-.15,1.52 .09-.35 .26-1.45 .15-1.52zm-1.87-3.33c-2.38,.28 .43,3.08 0,0zm-1.12,.78c-.99,.69-1.9,3.4-.5,1.55 .11-.52 .34-1.03 .5-1.55zm-1.44-9.64c-3.28,1.5 2.08,1.65 0,0zm-.87,1.49c.72,1.32 1.02-1.05 0,0zm.45,1.85c-.84-1.28-3.11,1.55-.71,.64 .3-.18 1.14-.17 .71-.64zm-2.7-2.56c-.23-1.11-.32,.92 0,0zm-3.16,1.15c-.45,1.75 2.27-.6 0,0z"/>
<path opacity=".243" d="m173.71,192.14c-1.65,.86 .83,1 .05,.09l-.05-.09zm-.66,.74c-1.43,1.6-2.53,2.93-4.03,3.35-.67,1.03-2.67-.25-1.64-.63-1.57,.92-4.33,.78-3-1.26 1.65-1.05 3.76-2.03 4.62-3.82 1.69-.52 2.64,1.66 4.05,2.36zm-3.06-2.43l-.01,.02 .01-.02zm5.1,8.43c.43,1.07-1.24,.84-1.41,1.08 .31,2.05-2.47,1.55-2.9,.1-1.01-.24 2.01-.9 2.01-1.36 .1,.63 1.9-1.49 2.3,.18zm-3.5,1.66c.15-.41-.39-.98 0,0zm3.48-1.64c.05-.03-.03-.03 0,0zm-.01,4.27c.4,.33 .06,.33 .36,.88-.8-.12-.19,.13-.9-.5-.36-.21 .19,.61-.89-.35 1.85-.48 .83-.94 1.68-.63-.15,.14-.22,.38-.25,.6zm1.05,3.04c-.27,1.75-2.86,.62-2.55-.31 1.21-.15 1.89-.64 2.55,.31zm-3.3-1.76c.71-.32 1.51,.21 0,0zm-2.73-13.73c.03,.21 .29-.29 0,0zm-.19-.01c-.48,.46 .57-.12 0,0zm-.37-.02c-.62,.23 1.02,.08 0,0zm-2.38-1.33c1.3-.47 1.48-.49 0,0zm-.02-.1c1.96-1.04 .32-.17 0,0zm-.07-.13c.7-.6 1.37-.68 0,0zm3.89,13.45c.12-.83 .68-1.41 0,0zm-3.96-13.6c.73-.62 1.56-1.02 0,0zm5.12,17.73c.79,.79 1.09,1.29 0,0zm-5.23-17.89c.81-.71 1.4-1.03 0,0zm3.46,9.77c.43,1.25-1.15,1.04-2.02,1.28-1.12-2.16 1.21-.91 1-1.46 .15-.66 .96,.33 1.02,.18zm-3.57-9.92c.61-.72 1.18-.91 0,0zm5.23,18.13c.84,1.01 .98,1.27 0,0zm-5.35-18.25c.44-.64 1.52-1.46 0,0zm5.19,18.36c.62,.46 .79,1.25 0,0zm-5.33-18.51c.66-.86 .94-1 0,0zm-.16-.15c.62-.88 .9-1.03 0,0zm5.39,18.72c.73,1.15 .75,1.23 0,0zm-5.58-18.86c.85-1.1 .9-1.12 0,0zm-.13-.12c.3-.79 .95-1.23 0,0zm5.32,19.22c.6,.86 .87,1.53 0,0zm-5.51-19.34c.52-.98 .89-1.44 0,0zm.12-.68c-.56,1.43-1.06-.52-.71-.49-.13-.64 .66,.98 .91,.13l-.2,.36zm5,20.23c.53,.58 .58,1.33 0,0zm-.32,.13c.5,.74 .5,1.44 0,0zm-.15,.33c.33,.42-.56,1.47-.17-.23 .1-.04 .36,.06 .17,.23zm-2.47-7.91c-.68-1.67-.31-.96 0,0zm-.35,.15c-.82-1.72-.29-.87 0,0zm-3.72-13.74c.57,1.21-.6,2.42-1.39,.96-.55-1.42-.79,.28-1.19-.37-.15-.69 .48-.67 2.21-1.67 .17,.34 .24,.73 .37,1.08zm3.08,14.06c-.71-1.39-.49-1.17 0,0zm1.46,8.88c-.87,2.15-2.83-2.1-.7-1.16 .88-.01 .99,.2 .7,1.16zm-1.93-8.64c-.7-1.29-.6-1.17 0,0zm-.45-1.47c-.01,1.63-2.39,.25-.8-.59 .04,.25 .89,.54 .8,.59zm1.95,7.87c.16,1.94-.07,.83 0,0zm-2.81-8.75c.46-.08 .07,.48-.83,.03 .69-.91 .86-.1 .83-.03zm-1.03-.4c1.22-.58 1.34-.6 0,0zm-2.37-11.44c.03,.01 0-.06 0,0zm-.12-.18c-.23,.5 .32,.1 0,0zm-.56,.88c-.25-.53-.29-2.28 0,0zm5.05,22.28c.36,.63-1.28-.68 0,0zm-.75,.02c.79,.17 1.23,1.1 0,0zm-.16,.16c.83,.59 1.02,1 0,0zm.27,.45c-.22,.32 .1,.74-.45,.64-.06,.13-.45-.41 .14-1.04 .29,.17 1.21,1.41 .31,.4zm-1.26,.14c.99-1.08 1.03-1 0,0zm-7.35-24.76c.84-.86 1.19-1.09 0,0zm6.35,25.24c-1.85,.91-1.84-2.79-.44-3.06-.72,.31 1.38,.75 1.17,2.15 .63,.66-.39,.63-.73,.91zm-6.92-26.32c-.22,1.74-.12,.37-.43,.06-.95-.31-.4-1.16-.34-1.05-.2-.32 .33-.22 .32,.1 .19-.18 .56-.03 .45,.82 .75-.74 .4-.35 0,.07zm.19,1.05c-1.51,.32-1.3,.21 0,0zm.14,.61c-1.44,.34-1.34,.28 0,0zm.17,.72c-1.43,.36-1.34,.31 0,0zm-1.94,1c1.24-.52 1.34-.52 0,0zm-.06-.17c.7-.48 1.27-.52 0,0zm-.31-.65c.87-.53 1.6-.79 0,0zm-.17-.32c.61-.51 1.78-1.01 0,0zm-.2-.32c.72-.63 1.56-1.05 0,0zm-.06-.1c.43-.68 1.3-.95 0,0zm-.21-.28c-1.38-.67-.04-.06-.86-.93 .61,.56 .8-.75 .89,.26 .6-.33-.4,.69 .69-.09l-.36,.38-.36,.38zm7.26,24.44c-1.12,1.28-2.51-1.19-.88-1.21 .46,.26 .72,.73 .88,1.21zm-7.63-24.34c-.96-.47-1.33-1.07 0,0zm-.15,.26c-1.86-.87-.36-.57 0,0zm-.18,.44c-1.48-.6-1.09-.57 0,0zm-.14,.33c-1.52-.48-1.04-.5 0,0zm-.09,.36c-1.46-.39-1.22-.36 0,0zm-.11,.44c-1.66-.38-1.08-.36 0,0zm-.17,.92c-1.57-.25-1.16-.33 0,0zm-.14,.96c-1.45-.18-1.32-.2 0,0zm-.11,1.02c-1.57-.15-1.26-.19 0,0zm4.1,19.58c1,.72 1.24,1 0,0zm.55,4.16c-1.58,.63-1.63-2.21-1.09-3.34-.64-.18 1.07-.72 1.07,1.21 .19,.86 1.47,1.61 .02,2.13zm-2.05-8.16c.22,2.1-.78,.66-1.83,1.32 .56,.19 2.56,.09 1.69,.51 .36,.88 .13-.22-.18,1.21-.01,1.66-2.95,.41-1.71-1.01-.43-.76-1.02-2.18 .38-2.54 .55-.01 1.19,.29 1.65,.51zm-4.44-9.96c-.98-.23 1.03-1.65 0,0zm-1.29-2.03c1.28-.37 1.43-.38 0,0zm-.37-1.33c.87-.38 1.81-.54 0,0zm-.34-1.04c1.3-.48 1.48-.5 0,0zm-.03-.13c.74-.5 1.44-.51 0,0zm-.04-.11c.58-.55 1.32-.59 0,0zm-.09-.22c-.74-.26-.27-2.05-.38-.46 .9-1.5 .26,.45 1.22-.17l-.42,.32-.42,.31zm-.44-.29c-.51-.36 .01-1.32-.04-.53l.04,.53zm-.43,.04c-.45-.5-.15-1.58 0,0zm-.96,.22c-.34-1.14-.4-1.71 0,0zm3.43,15.74c-.55,1.77 .23,5.87-2.8,4.05 .23-1.82 1.13-3.36 2.8-4.05zm-4.27-15.52c-.47-1.62-.19-1.08 0,0zm-.18,.06c-.59-1.57-.24-1.14 0,0zm2.31,10.83c-.21-1.6 .42-1.29 0,0zm-2.45-10.78c-.64-1.49-.41-1.09 0,0zm-.1,.06c-.65-1.08-.64-1.42 0,0zm-.15,.08c-.74-1.3-.64-1.2 0,0zm-.15,.09c-.91-1.44-.45-1.05 0,0zm-.18,2.72c.37-1.31 1.38-.91 0,0zm.09-2.67c-1.12-.97-.29-.64 0,0zm-.09,.1c-2.04-.91 .44-.09 0,0zm-.16,.23c-1,.94-.89-.48-.47-.04-.39-.17-.7-.6 .47,.04zm3.11,12.68c.44,.69-.21,3.62-1.46,2.48-.44,1.73-1.74,2.49-2.78,.81 1.17-1.14 2.56-4.77 4.24-3.29zm-1.23-2.75c.25-1.44 .33-1.42 0,0zm-1.95-9.28c-1.86,.15-.94-.2 0,0zm.01,.11c-1.7,.27-1.02,.05 0,0zm.09,.42c-.29-.61-.12,1.55 .59,2.27-.44-.76-2.45-.56-1.61-2.12 .29,.1 .87-.37 1.02-.15zm0,2.81c-.16,.47-1.01,.55-.89-.08-.61,.22 .18-.89 .82-.2 0,.07 .06,.23 .07,.28zm.8,5.71c.05,.86-1.01-.26 .19-.8 .68,.42 .14,.59-.19,.8zm-.54-1.31c-2.74,1.5-4.49,.44-2.77-1.45 1.9-.44 .4-1.6-.7-.38-.96,.71-1.72,.65-2.74,1.67-1.07-.38-1.03-.47-.57-1.37 1.3-.27 2.33-.64 3.74-1.01-1.98,1.05-1.98-2.54-.04-1.87 .34,1 .39,1.81 1.71,1.78-.96,1.17 1.28,.32 1.41,2.26 .03,.17 .39,.25-.04,.37z"/>
</g>
<path opacity=".243" fill="#fff" d="m174.46,191.94c-.65-1.44-2.25,.81-3.14-1.54-1.26-1.43-3.29-.35-4.22,1.29-1.71,.78-5.67,3.32-2.75,5.04 .35,.34-1.64,1.82-.35,2.65 .46,2.03 2.82,.94 3.68,2.46 .29,.27 1.35-2.61 2.82-.8-.27,1.15-.68,4.98 1.1,1.85 .2-1.55 2.87-.36 2.9-2.37 2.64-.13 .95-4.44-1.15-2.7-.02-2.5-1.85,2.82-2.79,.08-1.11-1.4-2.68,1.14-3.53-.64-.27,2.23-.77,.11-1.78,.34-1.01-.98 1.09-.89 1.26-1.11 .2,.5 2.08,1.47 3.38,.19 1.75-1.02 3.57-2.65 4.78-4.08-.02-.22-.04-.5-.21-.66zm1.06,9.9c-1.28-.37-1.95,1.28-3.51,1.01 1.64,1.72-2.4,1.43 .79,3.05-1.55,.16-3.1-1.07-2.98,.94-.95,1.73 .09,2.45 1.44,2.97 .54-.3 2.29-1.57 2.51-2.29 2.09,1.73 4.62-2.15 1.58-2.61-3.09-.39 1.95,.45 1.01-.57-1.34-1.13 1.47-2.54-.84-2.5zm-1.11,1.67c.01,.05 .05,.2 0,0zm.01,.03c-.57,.57-2.43-.41 0,0zm-5.13-15.97c-.5,0-2.33-3.12-3.46-1.52-1.9,.58-1.29-2.92-3.19-1.08-1.86,.51-2.65-1.34-2.35,1.87 .94,3.28 1.09-.04 2.6,1.81 2.04-.12 1.43-.8 1.85,.02 1.11,.5-.01,1.89 2.65,1.4 .23,.19 4.26-3.7 1.9-2.5zm-2.75,9.14c-.11,.08 .13,.02 0,0zm1.5,10.37c-2.32,.23 1.09,2.3 .75,.03l-.75-.03zm.38,1.35c-.64-.48-.58,.85-.13,.49 .14-.57 .15-.61 .13-.49zm-.65,.59c-.5-.13-.09,1.01 .45,.75-.59-.73 .42-.27-.45-.75zm-.36-.65c-.47-.79-.75,.55 .16,.51-1.59,.87 .93-.03-.16-.51zm-.5,.84c-.87-1.66-1.96,.25-3.11-1.42 2.85-2.11-3.58-1.03-2.68,1.47-.25,2.59 2.05,2.34 3.4,2.03 1.92,.39 3.1,.53 2.47-1.55l.05-.27-.13-.26zm-9.29-25.16c-.4,.78-.92-1.15 .12-.83-.65,.64-1.43-1.24-2.66-.51-.7,1.1 .09,2.07-1.68,1.5-2.9,.23-2.05,3.5-3.67,4.12 1.5-.07 1.44,3.1-.93,1.53 1.12,.26-3.76-.94-3.09-.39-1.46,.81-3.04-1.04-2.42,2.28-2.3,2.12-1.65,.61-.47,2.93 .38,.88 .18,2.43 .66,2.77-.88-.61-1.79-3.1-3.34-1.17-.24,1.75-.86,2.15-2.51,2.63-1.56,2.1 1.66,3.28 2.91,1.5 .35,.07 .72,2.52 2.42,1.89 1.77-1.43 1.46,1.69 3.12,.67 .21,.53 2.95,.96 .39,1.13-.11,2.96-.49-1.41-2.08,1.96-2.13,1.43-1.49,4.64 1.24,3.87 .9-.8 2.28-2.29 1.24-.19-1.86,2.98 3.8,3.87 3.57,.56-.29-1.65 2.02-5.91-1.06-3.57-2,1.81 .42-1.87-1.3-2.37 1.44-2.2 .43-3.52-.82-4.12-.75,.46-1.27,.5-2.08-1.33-1.52-.86 .4-3.17 1.94-1.5-1.91-2.03-1.19-3.16-.82-4.76 1.01-.78 1.59,1.03 1.98,.64 1.72,3.83 3.98-1.82 1.86-2 2.82,.45 3.12-.28 3.21-1.94 .94-.57 .69-1.47 2.01-1.71 .28-1.18 .91,1.12 .83,.08 2.93-2.55-.26-1.03 2.67-3.78 .65-.9-1.08,.3-1.24,.11zm-11.56,9.43c.07,.15 .06-.01 0,0zm10.58-10.6c.52,.69 .2,.06 0,0zm6.64,25.4c.34-1.4 1.27,1.08 0,0zm.19-.76c-.47-.45 .35,.04 0,0zm-6.47-23.15c-.51,.37-.27-.31 0,0zm5.83,23.8c-1.13,.21 .76-.58 0,0zm-6.29-23.58c-.01-.1 .15,.04 0,0zm-.6,2.9c-.41-.2 .25-.37 0,0zm-.52,.23c.06,.03 0-.1 0,0zm-.04,.11c.06,.03 0-.11 0,0zm5.38,22.17c-.21-.1-.58-.37-.39-.25 .27-.71-1.22-.28-.41,.04-.09,.18 1.37,.85 .7,.82 .08,.12 .94-.3 .1-.61zm-5.72-21.98c-.08,.2 .3,.08 0,0zm-.12-.33c-.12,.23 .31,.08 0,0zm-2.27,1.46c-.62-.26-1.51-1.82-.66-1.31 1.54-.9-.47,1.22 1.23,.65l-.48,.57-.09,.09zm5.25,21.27c-2.65-.97-2.14-1.35-2.04-3.73-.4-2.96-5.72-1.27-3.71,1.61-1.13,2.13 2.96,3.9 3.34,1.33-.07,1.17-1.62,5.19 1.2,5.72 2.24,.02 1.97-2.27 1.14-3.55 1.82,.74 .45-.65 .07-1.38zm-6.29-20.7c.08-.56 .5,.21 0,0zm-.09,.15c-.32,.17 .11-.23 0,0zm2.27,19.17c1.12-2.29 2.57,1.93 0,0zm-2.71-14.15c-2.64-.32-.73,4.39 .5,1.29 .21-.33 .17-1.48-.5-1.29zm-2.15-4.28c-.13,.11-.04-.69 0,0zm-1.73,1.64c-.29-.65 .55-.09 0,0zm-.77,.91c-.7,.42 .77,.09 0,0zm1.17,12.45c-.09-2.13 1.45,.64 0,0z"/>
<g fill="#656565">
<path d="m167,206.27c-.78,2.64 2.98,1.51 0,0zm.54,3.5c-1.28,2.58 2.9,.61 0,0zm-6.92-10.56c-1.7,.6 .91,.77 0,0zm.23-.06c-.64-.04 .88,.97 0,0zm-1.69-1.06c-2.9,2.87 3.71-.03 0,0zm-10.81,5.94c-.44,.9 1.6-.25 0,0z"/>
<path d="m166.1,203.92c-.15,.51-1.01,.26 0,0zm.02,2.96c-.64,1.31 1.45,.23 0,0zm-4.01-11.56c-.19-.25-1.07-.71 0,0zm.43,5.35c-3.38,.53 2.64,2.32 0,0zm-.65-.41c.01,.25 1.02-.3 0,0z"/>
</g>
<path fill="#1a1a1a" d="m165.35,197.01c-.74,.39 .38,.45 .03,.04l-.03-.04zm-.3,.33c-.64,.73-1.14,1.33-1.82,1.52-.3,.47-1.21-.11-.74-.28-.71,.41-1.96,.35-1.36-.57 .75-.48 1.7-.92 2.09-1.74 .77-.23 1.2,.76 1.83,1.07zm-1.38-1.1l-.01,.01 .01-.01zm2.31,3.82c.19,.48-.56,.38-.64,.49 .14,.93-1.12,.7-1.31,.05-.46-.11 .91-.41 .91-.62 .04,.28 .86-.68 1.04,.08zm-1.59,.75c.07-.18-.17-.44 0,0zm1.58-.74c.02-.02-.01-.01 0,0zm-.01,1.93c.19,.15 .03,.15 .17,.4-.36-.06-.09,.06-.41-.23-.16-.09 .09,.28-.4-.15 .84-.22 .37-.43 .76-.29-.07,.06-.1,.17-.12,.27zm.48,1.38c-.12,.79-1.29,.28-1.15-.14 .54-.07 .85-.29 1.15,.14zm-1.49-.8c.32-.14 .68,.09 0,0zm-1.24-6.22c.01,.1 .13-.12 0,0zm-.09,0c-.21,.21 .26-.05 0,0zm-.16-.01c-.28,.11 .46,.04 0,0zm-1.08-.6c.59-.21 .67-.22 0,0zm-.01-.04c.89-.48 .15-.08 0,0zm-.03-.06c.32-.28 .62-.31 0,0zm1.76,6.09c.05-.38 .31-.64 0,0zm-1.79-6.16c.33-.28 .7-.46 0,0zm2.32,8.02c.35,.36 .49,.59 0,0zm-2.37-8.09c.37-.33 .63-.47 0,0zm1.56,4.42c.2,.56-.52,.47-.91,.58-.51-.98 .55-.41 .45-.66 .07-.3 .44,.15 .46,.08zm-1.61-4.49c.27-.33 .53-.41 0,0zm2.37,8.21c.38,.45 .44,.57 0,0zm-2.42-8.26c.19-.3 .68-.67 0,0zm2.34,8.31c.29,.2 .36,.56 0,0zm-2.41-8.38c.3-.39 .43-.45 0,0zm-.07-.07c.28-.4 .4-.47 0,0zm2.44,8.47c.33,.52 .34,.56 0,0zm-2.53-8.53c.39-.5 .41-.51 0,0zm-.06-.06c.14-.36 .44-.55 0,0zm2.41,8.7c.27,.39 .4,.69 0,0zm-2.49-8.75c.23-.45 .4-.65 0,0zm.05-.31c-.25,.65-.48-.23-.32-.22-.06-.29 .3,.44 .41,.06l-.09,.16zm2.27,9.15c.23,.27 .26,.61 0,0zm-.15,.06c.22,.34 .23,.66 0,0zm-.07,.15c.15,.19-.25,.67-.07-.1 .04-.02 .16,.03 .07,.1zm-1.12-3.58c-.3-.75-.13-.43 0,0zm-.16,.07c-.37-.78-.12-.39 0,0zm-1.68-6.22c.26,.55-.27,1.1-.63,.44-.25-.64-.36,.13-.53-.17-.07-.31 .21-.31 1-.76 .07,.16 .1,.33 .16,.49zm1.4,6.37c-.33-.63-.22-.54 0,0zm.66,4.02c-.4,.97-1.28-.96-.32-.53 .4,0 .45,.09 .32,.53zm-.87-3.91c-.32-.59-.28-.53 0,0zm-.21-.67c-.01,.74-1.08,.11-.36-.27 .02,.11 .4,.25 .36,.27zm.88,3.56c.07,.88-.03,.38 0,0zm-1.27-3.96c.21-.03 .03,.22-.37,.01 .31-.41 .39-.04 .37-.01zm-.46-.18c.55-.26 .6-.27 0,0zm-1.08-5.18c.02,.01 0-.02 0,0zm-.05-.08c-.11,.23 .14,.05 0,0zm-.25,.4c-.12-.24-.14-1.03 0,0zm2.28,10.08c.16,.29-.58-.31 0,0zm-.34,.01c.36,.08 .55,.5 0,0zm-.07,.08c.37,.26 .46,.45 0,0zm.12,.2c-.1,.14 .05,.33-.2,.29-.03,.05-.21-.19 .06-.47 .13,.07 .55,.64 .14,.18zm-.57,.06c.45-.49 .47-.45 0,0zm-3.33-11.2c.38-.39 .54-.5 0,0zm2.88,11.42c-.84,.41-.84-1.27-.2-1.39-.33,.14 .62,.34 .53,.98 .28,.29-.18,.28-.33,.41zm-3.13-11.91c-.1,.78-.06,.17-.2,.02-.43-.13-.18-.52-.15-.47-.09-.15 .15-.1 .14,.04 .09-.08 .26-.01 .21,.38 .33-.34 .17-.17 0,.03zm.08,.47c-.68,.15-.59,.1 0,0zm.06,.28c-.65,.15-.6,.13 0,0zm.08,.33c-.64,.16-.61,.13 0,0zm-.88,.45c.57-.24 .61-.24 0,0zm-.03-.08c.32-.22 .58-.23 0,0zm-.13-.3c.39-.23 .72-.35 0,0zm-.08-.14c.27-.23 .8-.46 0,0zm-.09-.14c.32-.29 .71-.48 0,0zm-.03-.05c.2-.31 .59-.43 0,0zm-.09-.12c-.63-.31-.02-.03-.39-.43 .27,.25 .36-.34 .4,.12 .27-.15-.18,.31 .31-.04l-.16,.17-.16,.18zm3.28,11.05c-.5,.58-1.13-.53-.39-.54 .2,.11 .32,.33 .39,.54zm-3.45-11.01c-.44-.21-.6-.49 0,0zm-.07,.12c-.84-.4-.16-.26 0,0zm-.08,.2c-.67-.28-.49-.26 0,0zm-.06,.14c-.69-.21-.47-.22 0,0zm-.04,.17c-.66-.18-.56-.17 0,0zm-.05,.2c-.76-.17-.49-.17 0,0zm-.08,.41c-.71-.11-.53-.15 0,0zm-.07,.44c-.65-.09-.59-.09 0,0zm-.05,.46c-.7-.07-.57-.09 0,0zm1.86,8.86c.45,.33 .56,.45 0,0zm.25,1.88c-.72,.29-.74-1-.49-1.51-.29-.08 .48-.33 .48,.55 .09,.39 .66,.73 .01,.96zm-.93-3.69c.1,.95-.35,.3-.83,.6 .26,.08 1.16,.04 .77,.23 .16,.4 .06-.1-.08,.55-.01,.75-1.34,.18-.78-.46-.19-.34-.46-.99 .17-1.15 .26-.01 .55,.13 .75,.23zm-2.01-4.51c-.44-.1 .47-.74 0,0zm-.58-.91c.58-.17 .65-.18 0,0zm-.17-.61c.4-.17 .82-.24 0,0zm-.15-.47c.59-.21 .67-.22 0,0zm-.02-.06c.34-.22 .66-.23 0,0zm-.02-.05c.27-.25 .6-.26 0,0zm-.04-.09c-.33-.12-.12-.94-.17-.22 .41-.67 .12,.21 .56-.07l-.2,.14-.19,.15zm-.19-.14c-.23-.16 0-.6-.02-.24l.02,.24zm-.2,.02c-.2-.23-.07-.72 0,0zm-.43,.1c-.16-.51-.18-.78 0,0zm1.55,7.12c-.25,.8 .1,2.66-1.27,1.83 .11-.82 .51-1.51 1.27-1.83zm-1.93-7.02c-.22-.73-.09-.49 0,0zm-.08,.03c-.27-.71-.11-.52 0,0zm1.04,4.9c-.09-.73 .19-.59 0,0zm-1.11-4.88c-.29-.68-.18-.5 0,0zm-.04,.03c-.3-.49-.29-.65 0,0zm-.07,.03c-.33-.59-.29-.54 0,0zm-.07,.04c-.41-.65-.2-.47 0,0zm-.08,1.24c.17-.6 .62-.42 0,0zm.04-1.21c-.51-.44-.13-.29 0,0zm-.04,.04c-.92-.41 .2-.04 0,0zm-.07,.1c-.45,.43-.41-.21-.22-.01-.17-.08-.31-.27 .22,.01zm1.4,5.74c.2,.32-.09,1.64-.65,1.13-.21,.78-.79,1.12-1.26,.36 .52-.51 1.16-2.16 1.91-1.49zm-.55-1.24c.11-.65 .15-.64 0,0zm-.89-4.2c-.84,.07-.42-.09 0,0zm.01,.05c-.77,.12-.46,.02 0,0zm.04,.19c-.13-.28-.05,.7 .27,1.03-.2-.35-1.11-.26-.73-.96 .13,.04 .39-.17 .46-.07zm0,1.27c-.07,.22-.46,.25-.4-.04-.28,.1 .08-.4 .37-.08 0,.03 .03,.1 .03,.12zm.36,2.59c.03,.39-.45-.12 .09-.36 .3,.18 .06,.26-.09,.36zm-.24-.6c-1.24,.68-2.03,.2-1.26-.65 .87-.2 .18-.73-.31-.17-.44,.32-.78,.29-1.24,.75-.49-.17-.47-.21-.26-.62 .59-.12 1.05-.29 1.69-.46-.9,.48-.89-1.15-.02-.84 .16,.45 .18,.82 .78,.8-.44,.53 .58,.15 .63,1.03 .02,.07 .18,.11-.01,.16z"/>
</g>
</g>
<g fill="#fff" fill-rule="evenodd" fill-opacity=".293" transform="matrix(.87046 -.1535 .13862 .78612 -55.45142 42.71045)">
<path opacity=".046" d="m598.47,135.66c-59.57,3.98-119.16,9.49-177.91,20.56-22.4,3.9-44.85,8.41-67.18,12.97 69.91-10.44 139.78-21.33 210.11-28.34 12.49-.14 25.05-.84 36.85-5.28l-.99,.05-.88,.04z"/>
<path opacity=".046" d="m602.03,134.94c-60.2,3.92-120.31,9.33-179.63,20.41-30.13,5.33-60.08,11.3-90.02,17.72 75.51-11.8 151.29-23.29 227.3-31.37 14.78-.71 29.89-.75 43.73-6.67 1.79-.51-1.27,.02-1.38-.09z"/>
<path opacity=".046" d="m605.25,134.22c-59.61,3.8-119.24,9-177.99,19.74-38.25,6.67-76.32,14.46-114.2,22.76 80.96-12.99 162.1-25.22 243.59-34.21 14.83-1.25 30.06-.37 44.13-5.97 .94-.44 9.1-2.93 4.47-2.32z"/>
<path opacity=".046" d="m608.09,133.57c-62.27,3.75-124.49,9.35-185.84,20.75-43.19,7.63-86.16,16.6-128.97,26.31 84.82-14.22 169.92-26.77 255.28-36.78 17.81-2.53 36.37-.19 53.32-7.15 1.17-.6 10.33-3.43 6.21-3.13z"/>
<path opacity=".046" d="m610.56,132.97c-43.75,2.38-87.84,6.14-131.45,11.79-70.19,9.88-139.68,24.62-208.7,40.59 87.14-15.78 174.89-28.17 262.76-39.23 16.19-2.23 32.51-3.24 48.74-4.08 10.47-1.31 20.71-4.4 30.22-9.1l-1,.02-.57,.01z"/>
<path opacity=".046" d="m612.72,132.38c-43.04,2.19-85.94,5.9-128.72,11.19-81.11,11.2-161.04,28.62-240.69,47.72 5.17,.93 10.57-2.75 15.96-3.12 71.14-14 143.16-23.75 214.97-33.92 35.39-4.42 70.84-10.31 106.45-11.53 11.78-1.36 23.28-4.79 33.72-10.4l-1,.04-.69,.02z"/>
<path opacity=".046" d="m612.72,131.85c-43.36,2.18-86.74,6.03-129.77,11.32-81.38,11.31-161.74,28.89-241.54,48.02 5.53,2.67 11.2-1.93 16.98-2.31 71.5-14.1 143.78-23.88 215.91-34.1 35.43-4.43 70.73-10.3 106.45-11.56 12.27-1.32 25.46-5.42 35.47-11.43-1.17-.02-2.33,.01-3.5,.06z"/>
<path opacity=".046" d="m612.69,131.32c-43.05,2.17-86.04,5.96-128.81,11.22-82.3,11.33-163.6,29.13-244.35,48.59 6.22,4.04 12.49-1.23 18.98-1.71 71.77-14.22 144.39-24.01 216.85-34.27 35.06-4.41 70.07-10.14 105.42-11.39 13.18-1.47 26.17-5.66 37.56-12.47-1.88-.07-3.77-.05-5.65,.03z"/>
<path opacity=".046" d="m612.69,130.79c-39.63,1.83-79.16,5.61-118.6,9.88-84.79,10.98-168.43,29.32-251.53,49.18-8.29,.79-1.32,2.64 2.85,3.66 22.1-6.67 45.31-9.42 68.02-13.64 78.49-12.69 157.18-24.35 236.17-33.47 16.24-2.33 33.16-.35 48.84-5.76 7.57-2.36 14.9-5.48 21.59-9.82-2.44-.14-4.9-.13-7.34-.03z"/>
<path opacity=".046" d="m612.66,130.26c-23.71,.84-47.34,3.09-70.97,5.11-22.3,1.97-44.6,4.05-66.75,7.3-49.51,7.04-98.62,16.68-147.5,27.16-30.65,6.62-61.22,13.62-91.66,21.14 3.16,1.07 6.31,2.13 9.47,3.19 6.36-2.44 13.16-3.58 19.81-5.05 32.81-6.46 65.87-11.58 98.91-16.75 55.83-8.5 111.73-16.55 167.79-23.42 12.6-1.36 25.19-3.14 37.87-3.59 17.31,.2 34.77-4.45 49.55-13.36 .52-.48 3.32-1.63 1.46-1.64-2.65-.25-5.33-.17-7.98-.09z"/>
<path opacity=".046" d="m612.66,129.76c-24.08,.85-48.08,3.14-72.08,5.2-21.95,1.94-43.9,4.02-65.71,7.21-49.87,7.1-99.34,16.8-148.59,27.38-30.91,6.68-61.73,13.77-92.44,21.36 3.87,1.22 7.71,2.67 11.57,3.78 5.99-2.4 12.45-3.45 18.74-4.87 32.69-6.5 65.65-11.59 98.58-16.76 56.26-8.57 112.6-16.69 169.09-23.62 12.58-1.36 25.15-3.13 37.81-3.59 18.05,.18 36.29-4.73 51.5-14.47 .54-.21 1.74-1.14 .56-1.37-2.97-.49-6.03-.3-9.03-.25z"/>
<path opacity=".046" d="m612.63,129.22c-39.68,1.83-79.25,5.62-118.73,9.88-84.16,10.89-167.19,29.03-249.68,48.7-3.33,1.1-10.7,2.09-11.53,3.27 4.45,1.05 9,3.87 13.4,3.87 21.46-6.42 43.98-9.14 66.03-13.25 78.99-12.79 158.17-24.55 237.67-33.73 16.34-2.35 33.33-.34 49.12-5.81 8.38-2.68 16.76-6.14 23.84-11.36-.61-2.81-5.22-1.08-7.32-1.63-.94-.02-1.87,.04-2.8,.06z"/>
<path opacity=".046" d="m612.63,128.69c-43.15,2.16-86.25,5.97-129.13,11.22-85.39,11.84-169.72,30.48-253.47,50.81 5.53,1.04 11.26,5.4 16.69,4.5 32.14-8.62 65.41-12.61 98.23-18.29 72.18-11.02 144.41-22.1 217.05-29.61 16.61-.16 33.6-1.76 48.72-9.08 4.13-2.35 9.91-3.97 12.56-7.83-1.33-3.31-7.98-1.1-10.65-1.72z"/>
<path opacity=".046" d="m612.59,128.16c-42.6,2.12-85.22,5.88-127.52,11.03-86.63,11.83-172.06,30.85-256.94,51.44 6.1,1.39 12.37,5.51 18.4,5.25 27.98-7.83 57.21-11.38 85.89-16.43 75.75-11.81 151.62-23.4 227.83-31.44 14.98-.63 30.33-.92 44.38-6.69 6.73-2.62 13.53-5.55 19.18-10.1 .08-5.07-8.27-2.42-11.22-3.06z"/>
<path opacity=".046" d="m612.59,127.63c-42.64,2.08-85.19,5.97-127.59,11.03-87.26,11.95-173.22,31.1-258.81,51.91 6.69,1.72 13.45,5.46 20.09,6.03 23.47-7.11 48.1-9.88 72.25-14.35 79.34-12.67 158.84-24.67 238.72-33.46 15.24-1.12 31.09-.55 45.56-6.28 7.58-2.76 15.29-5.93 21.53-11.07 .36-5.89-8.35-3.22-11.75-3.81z"/>
<path opacity=".046" d="m612.56,127.1c-42.81,2.17-85.91,5.97-128.61,11.16-87.54,12.06-173.87,31.36-259.67,52.21 7.34,1.88 14.84,6.06 22.09,6.66 23.14-7.05 47.46-9.81 71.27-14.22 79.6-12.68 159.45-24.76 239.64-33.59 14.61-1.15 29.65-.49 43.66-5.6 8.43-2.95 17.06-6.3 23.94-12.06 .6-6.17-7.53-4.33-11.38-4.59l-.94,.03z"/>
<path opacity=".046" d="m612.56,126.6c-42.67,2.1-85.29,5.9-127.71,11-88.48,12.14-175.76,31.71-262.47,52.78 7.98,2.12 16.11,6.5 24.02,7.31 22.87-7.07 46.81-9.68 70.31-14.09 80.05-12.83 160.13-24.89 240.63-33.75 14.67-1.21 29.73-.49 43.75-5.63 8.57-3.02 17.33-6.35 24.29-12.34 1.04-7.35-8.61-4.87-12.82-5.28z"/>
<path opacity=".046" d="m612.53,126.07c-42.69,2.1-85.33,5.89-127.74,11.03-89.11,12.18-177,31.96-264.35,53.22 8.36,2.78 16.73,5.58 25.09,8.37 16.54-6.06 34.44-7.76 51.63-11.24 83.75-13.99 167.89-26.44 252.18-36.26 17.31-2.42 35.28-.38 51.91-6.47 8.68-3.06 17.68-6.46 24.66-12.62 1.22-7.97-8.64-5.76-13.38-6.03z"/>
<path opacity=".046" d="m612.53,125.54c-42.72,2.08-85.38,5.9-127.81,11.03-89.76,12.29-178.27,32.26-266.19,53.65 9.3,2.58 18.71,7.28 27.94,8.62 19.68-6.49 40.66-8.68 61.09-12.64 81.87-13.36 163.99-25.6 246.47-34.98 15.79-1.65 32.21-.43 47.41-6 8.79-3.12 18.01-6.58 25-12.9 1.47-8.6-8.76-6.6-13.91-6.78z"/>
<path opacity=".046" d="m612.5,125.01c-41.73,1.99-83.36,5.88-124.87,10.63-91.37,12.32-181.49,32.72-271,54.49 9.65,3.23 19.3,6.49 28.96,9.69 16.21-6.12 33.94-7.71 50.77-11.17 85.3-14.27 170.84-26.93 256.73-36.8 16.2-1.83 32.94-.42 48.5-6.13 8.95-3.16 18.28-6.69 25.38-13.18 1.75-9.08-8.9-7.52-14.47-7.53z"/>
</g>
</svg>
