<svg xmlns="http://www.w3.org/2000/svg" viewBox="0 0 429.88 178.35">
<g fill-rule="evenodd">
<g transform="translate(-125.03 -313.08)">
<path fill="#008aff" stroke="#006" d="m169.33,319.47l7.19-5.89 323.63,.66 9.15,5.23 1.14,113.72-371.58,2.25 24.59-84.59 5.88-31.38z"/>
<path fill="#242321" stroke="#000" d="m143.57,454.34l3.93,36.59h5.79l4.34-36.54c-5.18,1.35-9.75,1.63-14.06-.05zm378.87-1.37l2.95,35.24c1.34,1.19 3.53,.91 6.22-.26l3.81-34.83c-4.19,.8-8.79,1.97-12.98-.15z"/>
<path fill="#0090ff" stroke="#006" d="m150.37,425.38l-1.31,4.58-1.3,17.65 1.96,9.81 383.77-1.31v-26.15l-6.54-5.23-370.04,.65h-6.54z"/>
</g>
<g stroke="#000" transform="translate(-125.03 -313.08)">
<path fill="#07f" d="m496.51,357.99v19.42l27.73,48.08 10.17,5.55-.92-55.48-1.85-9.25-35.13-8.32z"/>
<path fill="#00bfff" d="m497.18,358.54l35.66,12.64 .07,2.41 20.27-.51v-4.58l-39.96-13.73-10.86,.18-5.18,3.59z"/>
</g>
<g stroke="#006">
<g transform="translate(-125.03 -313.08)">
<path fill="#0092ff" d="m166.72,356.08l-41.19,13.08 7.19-1.97h7.84l7.2,5.89-.25-1.71 32.12-11.53-12.91-3.76z"/>
<path fill="#0084ff" d="m126.18,369.16v86.95l23.54,1.96-.66-85.64-6.53-5.89-13.08-.65-3.27,3.27z"/>
<path fill="#00a0ff" d="m532.4,371.49l2.4,85.93 15.69-.66 3.92-5.88-1.01-82.58c-7.63-1.21-10.77-3.08-21,3.19z"/>
<path fill="#00bcff" d="m503.91,382.89l18.46,6.53 7.2,7.2-124.31,1.3-12.49-12.81 11.07-4.67 84.89-.16 15.18,2.61z"/>
<path fill="#00a4ff" d="m403.88,398.85l.65,19.69 11.38,6.73 106.46-1.2 7.85-7.84-.35-19.76-125.99,2.38z"/>
<path fill="#00b2ff" d="m285.7,383.54l-11.11,14.38 129.21-.27-10.49-12.28-8.82-5.54-92.29,.27-6.5,3.44z"/>
<path fill="#008cff" d="m149.06,397.27l.66,24.84 7.84,3.35 106.22-.15 9.46-4.04-.85-23.08-123.33-.92z"/>
</g>
<g fill="#009bff" transform="translate(-125.03 -313.08)">
<path d="m272.28,398.93l.85,18.27 8.93,7.01 113.11-.46 10.25-7.55-1.66-18-131.48,.73z"/>
<path d="m176.02,383.54l-15.19,3.27-11.77,10.46h123.27l12.64-15.27-8.42-2.38-85.17-.41-15.36,4.33z"/>
</g>
<g transform="translate(-125.03 -313.08)">
<path fill="#009aff" d="m183.34,380.83l-3.05-21.89-31.64,12.82-.4,23.93 35.09-14.86z"/>
</g>
</g>
<g transform="translate(-125.03 -313.08)">
<path fill="#07f" d="m200.13,347.61c0,1.58-.73,2.86-1.64,2.86-.9,0-1.63-1.28-1.63-2.86 0-1.59 .73-2.87 1.63-2.87s1.63,1.26 1.64,2.83m35.61,.85c0,1.59-.74,2.87-1.64,2.87s-1.64-1.28-1.64-2.87c0-1.58 .74-2.86 1.64-2.86s1.63,1.26 1.64,2.83m33.56,1.26c0,1.58-.74,2.87-1.64,2.87s-1.64-1.29-1.64-2.87 .74-2.86 1.64-2.86 1.63,1.26 1.64,2.82m32.33-.37c0,1.58-.73,2.87-1.64,2.87-.9,0-1.63-1.29-1.63-2.87s.73-2.86 1.63-2.86 1.63,1.26 1.64,2.82m38.47-.78c0,1.59-.73,2.87-1.64,2.87-.9,0-1.63-1.28-1.63-2.87 0-1.58 .73-2.86 1.63-2.86s1.63,1.26 1.64,2.83m36.43,.85c0,1.58-.74,2.87-1.64,2.87-.91,0-1.64-1.29-1.64-2.87s.73-2.86 1.64-2.86c.89,0 1.62,1.26 1.63,2.82m29.88,.45c0,1.58-.73,2.87-1.64,2.87-.9,0-1.63-1.29-1.63-2.87s.73-2.86 1.63-2.86 1.63,1.26 1.64,2.82m33.97,.45c0,1.58-.73,2.87-1.64,2.87-.9,0-1.63-1.29-1.63-2.87s.73-2.86 1.63-2.86 1.63,1.25 1.64,2.82m34.79-1.19c0,1.58-.74,2.87-1.64,2.87s-1.64-1.29-1.64-2.87 .74-2.86 1.64-2.86 1.63,1.26 1.64,2.82"/>
</g>
</g>
</svg>
