<svg xmlns="http://www.w3.org/2000/svg" viewBox="0 0 30 46">
<g fill-rule="evenodd" transform="translate(-279.11 -276.32)">
<path fill="#edd400" d="m305.11,316.85l-24-12v-2l.02-.03 23.98,12.03v2z"/>
<path fill="#c4a000" d="m281.11,302.85c0-1 1-1 2-1s24,11.43 24,12-1,1-2,1-24-11-24-12z"/>
<path fill="#fce94f" d="m307.11,313.85v2l-2,1v-2l2-1z"/>
<path d="m283.12,301.34c-.5,0-1.02-.01-1.53,.16-.25,.08-.5,.23-.68,.47-.19,.24-.29,.54-.29,.87 0,1 .01,1 0,2 0,.27 .12,.38 .19,.47 .08,.09 .15,.14 .25,.22 .2,.16 .46,.33 .78,.53 .65,.41 1.57,.95 2.66,1.53 2.18,1.18 5.09,2.66 8.03,4.1s5.89,2.82 8.19,3.87c1.15,.53 2.14,.98 2.87,1.28 .37,.16 .67,.26 .91,.35 .12,.04 .22,.1 .31,.12 .09,.03 .17,.03 .31,.03 .5,0 1.03,.01 1.54-.15 .25-.09 .5-.2 .68-.44 .19-.24 .28-.57 .28-.91 0-1 .01-1 0-2 0-.27-.11-.35-.18-.43-.08-.09-.19-.17-.28-.25-.2-.16-.46-.33-.78-.54-.65-.4-1.54-.91-2.63-1.5-2.18-1.17-5.09-2.65-8.03-4.09s-5.92-2.86-8.22-3.91c-1.15-.52-2.14-.94-2.88-1.24-.36-.16-.66-.29-.9-.38-.12-.04-.22-.07-.31-.09-.09-.03-.14-.07-.29-.07zm0,1c-.08,0-.05,.02 0,.04 .06,.01 .15,.02 .26,.06 .21,.07 .51,.19 .87,.34 .72,.3 1.67,.73 2.81,1.25 2.29,1.05 5.29,2.47 8.22,3.91 2.93,1.43 5.84,2.89 8,4.06 1.08,.58 1.95,1.08 2.56,1.47 .31,.19 .55,.35 .69,.47 .05,.04 .07,.07 .09,.09v1.81c0,.17-.02,.24-.06,.28-.03,.05-.09,.09-.22,.13-.24,.08-.72,.09-1.22,.09 .09,0 .03,.02-.03,0-.05-.01-.14-.05-.25-.09-.21-.08-.48-.19-.84-.34-.72-.3-1.7-.73-2.84-1.25-2.29-1.05-5.26-2.44-8.19-3.88-2.93-1.43-5.84-2.89-8-4.06-1.08-.58-1.98-1.12-2.59-1.5-.31-.19-.55-.36-.69-.47-.04-.03-.04-.04-.07-.06v-1.85c0-.16 .03-.2 .07-.25 .03-.04 .09-.11 .22-.15 .24-.09 .71-.1 1.21-.1z"/>
</g>
<g transform="translate(-279.11 -276.32)">
<path fill="#edd400" d="m284.21,277.51l20.04,10.05-.2,25.51-19.91-9.85 .07-25.71z"/>
<path fill-rule="evenodd" d="m284.41,277.28c-.11-.01-.22-.01-.38,.03-.08,.02-.19,.06-.28,.16s-.13,.25-.13,.37c0,1 .01,24 0,25 0,.24 .09,.35 .16,.44s.13,.14 .22,.22c.18,.15 .4,.34 .69,.53 .56,.38 1.37,.84 2.31,1.38 1.89,1.07 4.37,2.4 6.88,3.65 2.5,1.26 5.01,2.43 6.9,3.25 .95,.41 1.74,.72 2.31,.91 .29,.09 .51,.16 .72,.19 .11,.01 .22,.04 .38,0 .08-.03 .18-.09 .28-.19 .09-.1 .15-.26 .15-.38 0-1 .01-24 0-25 0-.24-.11-.31-.18-.4s-.13-.18-.22-.25c-.18-.16-.41-.31-.69-.5-.57-.38-1.34-.87-2.28-1.41-1.89-1.07-4.4-2.37-6.91-3.62-2.5-1.26-5.01-2.44-6.9-3.25-.95-.41-1.74-.75-2.32-.94-.28-.1-.5-.16-.71-.19zm.21,1.1c.08,.02 .1,.03 .19,.06 .52,.17 1.29,.47 2.22,.87 1.86,.81 4.35,2.01 6.85,3.25 2.49,1.25 5.01,2.54 6.87,3.6 .93,.52 1.69,.99 2.22,1.34 .26,.18 .47,.33 .59,.44 .04,.03 .05,.04 .06,.06v24.34c-.08-.02-.11-.02-.21-.06-.52-.17-1.29-.47-2.22-.87-1.86-.81-4.35-2.01-6.85-3.25-2.49-1.25-4.98-2.57-6.84-3.63-.93-.53-1.72-.99-2.25-1.34-.26-.18-.48-.34-.59-.44-.02-.02-.02-.02-.04-.03v-24.34z"/>
<path fill="#d3d7cf" d="m6.9509,4.1595l16.061,7.9635 .068,21.73-16.264-8.098 .1349-21.596z" transform="translate(279.11 276.32)"/>
</g>
<g fill-rule="evenodd" transform="translate(-279.11 -276.32)">
<path d="m286.31,280.25c-.1,0-.22,.02-.37,.09-.16,.08-.32,.31-.32,.5 0,1.09 .01,20 0,21 0,.2 .07,.32 .13,.41s.11,.15 .19,.22c.15,.14 .33,.3 .56,.47 .46,.33 1.12,.71 1.88,1.15 1.51,.89 3.49,1.97 5.5,2.97 2,1.01 4.01,1.93 5.53,2.56 .76,.32 1.4,.56 1.87,.69 .24,.07 .43,.12 .63,.13 .1,0 .22,.01 .37-.06 .16-.08 .34-.34 .34-.54 0-1 .01-20 0-21 0-.19-.09-.28-.15-.37s-.11-.18-.19-.25c-.15-.14-.33-.27-.56-.44-.46-.33-1.09-.74-1.84-1.19-1.52-.88-3.53-1.93-5.54-2.93-2-1.01-4.01-1.96-5.53-2.6-.76-.31-1.4-.55-1.87-.68-.24-.07-.43-.12-.63-.13zm.31,1.09c.02,.01 .02,0 .04,0 .4,.12 1.01,.35 1.75,.66 1.48,.62 3.47,1.57 5.47,2.56 1.99,1 4.01,2.04 5.5,2.91 .74,.43 1.33,.83 1.74,1.12 .21,.15 .39,.26 .47,.35 .03,.02 .02,.05 .03,.06v20.38c-.03-.01-.02-.03-.06-.04-.4-.11-1.01-.34-1.75-.65-1.48-.62-3.47-1.54-5.47-2.53-1.99-1-3.98-2.07-5.46-2.94-.75-.43-1.37-.8-1.79-1.1-.2-.14-.35-.29-.43-.37-.02-.02-.02-.02-.04-.03v-20.38z"/>
<path d="m294,281.34l-.12,.07-2,1 .46,.9 1.94-.97h.34v1.1h1v-2.1h-1.62z"/>
<path d="m293.62,311.84v3.85l-2.93,4.9 .84,.5 3-5 .09-.09v-4.16h-1z"/>
<path d="m293.69,316.09l3,5 .84-.5-2.31-3.87 1.75,.59 .31-.93-3-1-.59,.71z"/>
</g>
</svg>
