<svg xmlns="http://www.w3.org/2000/svg" viewBox="0 0 365.6722 377.8522" xmlns:xlink="http://www.w3.org/1999/xlink">
<defs>
<filter width="1.058" x="-.029" y="-.118" height="1.236" color-interpolation-filters="sRGB" id="filter32163">
<feGaussianBlur stdDeviation="5.53894"/>
</filter>
<filter width="1.071" x="-.036" y="-.146" height="1.292" color-interpolation-filters="sRGB" id="filter32167">
<feGaussianBlur stdDeviation="6.84113"/>
</filter>
<filter width="1.091" x="-.046" y="-.187" height="1.374" color-interpolation-filters="sRGB" id="filter32171">
<feGaussianBlur stdDeviation="8.75274"/>
</filter>
<linearGradient gradientTransform="matrix(1.4211 0 0 1.4211 -491.15 -366.87)" id="linearGradient44759" xlink:href="#linearGradient4382" y1="703.64" y2="725.79" x1="552.17" gradientUnits="userSpaceOnUse" x2="578.75"/>
<linearGradient gradientTransform="translate(-257.89 -71.863)" id="linearGradient44761" xlink:href="#linearGradient3984" y1="742.67" y2="708.68" x1="585.39" gradientUnits="userSpaceOnUse" x2="580.99"/>
<linearGradient id="linearGradient44757" y1="748.33" y2="719.38" x1="574.06" gradientUnits="userSpaceOnUse" x2="572.18">
<stop offset="0" stop-color="#ff701c"/>
<stop offset="1" stop-color="#ff0"/>
</linearGradient>
<linearGradient gradientTransform="translate(-257.89 -71.863)" id="linearGradient44753" xlink:href="#linearGradient3984" y1="455.01" y2="478.3" x1="552.35" gradientUnits="userSpaceOnUse" x2="592"/>
<linearGradient gradientTransform="translate(-257.89 -71.863)" id="linearGradient44755" xlink:href="#linearGradient4722" y1="755.26" y2="747.71" x1="623.16" gradientUnits="userSpaceOnUse" x2="672.26"/>
<linearGradient gradientTransform="translate(-257.89 -71.863)" id="linearGradient44749" xlink:href="#linearGradient3828" y1="739.46" y2="735.01" x1="453.1" gradientUnits="userSpaceOnUse" x2="513.64"/>
<linearGradient id="linearGradient44763" xlink:href="#linearGradient4416" x1="549.66" gradientUnits="userSpaceOnUse" x2="569.14"/>
<linearGradient gradientTransform="translate(-257.89 -71.863)" id="linearGradient44751" xlink:href="#linearGradient4382" y1="713.2" y2="716.76" x1="628.47" gradientUnits="userSpaceOnUse" x2="535.89"/>
<linearGradient gradientTransform="matrix(.86842 0 0 .86842 -251.67 -107.69)" id="linearGradient44765" xlink:href="#linearGradient4382" y1="731.65" y2="731.91" x1="607.1" gradientUnits="userSpaceOnUse" x2="563.96"/>
<linearGradient gradientTransform="translate(-257.89 -71.863)" id="linearGradient8420" xlink:href="#linearGradient44727" y1="398.36" y2="783.58" x1="570.92" x2="575.32" gradientUnits="userSpaceOnUse"/>
<linearGradient id="linearGradient3488">
<stop offset="0" stop-color="#520"/>
<stop offset="1" stop-color="#a40"/>
</linearGradient>
<linearGradient id="linearGradient8450" xlink:href="#linearGradient44757" y1="748.33" y2="719.38" x1="574.06" x2="572.18" gradientUnits="userSpaceOnUse"/>
<linearGradient gradientTransform="matrix(-1 0 0 1 1080.7 -44.995)" id="linearGradient44721" xlink:href="#linearGradient3488" y1="815.48" y2="821.4" x1="140.55" gradientUnits="userSpaceOnUse" x2="413.12"/>
<linearGradient gradientTransform="translate(-257.89 -71.863)" id="linearGradient44771" xlink:href="#linearGradient4382" y1="527.15" y2="629.52" x1="563.49" gradientUnits="userSpaceOnUse" x2="557.26"/>
<linearGradient id="linearGradient44767" xlink:href="#linearGradient4714" y1="729.76" y2="727.68" x1="640.13" gradientUnits="userSpaceOnUse" x2="561.78"/>
<linearGradient id="linearGradient44769" xlink:href="#linearGradient6065" y1="473.22" y2="489.01" gradientUnits="userSpaceOnUse" x2="0"/>
<linearGradient id="linearGradient4714">
<stop offset="0" stop-color="#ff0"/>
<stop offset="1" stop-color="#5fe2f0"/>
</linearGradient>
<linearGradient gradientTransform="translate(-257.89 -71.863)" id="linearGradient44747" xlink:href="#linearGradient4722" y1="765.96" y2="757.78" x1="450.69" gradientUnits="userSpaceOnUse" x2="526.23"/>
<linearGradient gradientTransform="translate(-257.89 -71.863)" id="linearGradient44745" xlink:href="#linearGradient4382" y1="691.84" y2="555.64" x1="589.3" gradientUnits="userSpaceOnUse" x2="603.55"/>
<linearGradient id="linearGradient3828">
<stop offset="0" stop-color="#008080"/>
<stop offset="1" stop-color="#92efff"/>
</linearGradient>
<linearGradient id="linearGradient44729" xlink:href="#linearGradient3984" y1="717.82" y2="753.25" x1="569.45" gradientUnits="userSpaceOnUse" x2="572.55"/>
<linearGradient gradientTransform="translate(-257.89 -71.863)" id="linearGradient44727" y1="398.36" y2="783.58" x1="570.92" gradientUnits="userSpaceOnUse" x2="575.32">
<stop offset="0" stop-color="#ff2a2a"/>
<stop offset="1" stop-color="#1a9b9f"/>
</linearGradient>
<linearGradient gradientTransform="translate(-257.89 -71.863)" id="linearGradient44725" xlink:href="#linearGradient3828" y1="508.2" y2="399.37" x1="577.36" gradientUnits="userSpaceOnUse" x2="603.19"/>
<linearGradient id="linearGradient4382">
<stop offset="0" stop-color="#ff2a2a"/>
<stop offset="1" stop-color="#ff0"/>
</linearGradient>
<linearGradient id="linearGradient44773" xlink:href="#linearGradient31814" y1="1730.8" y2="1736.2" x1="1450.8" gradientUnits="userSpaceOnUse" x2="1231.3"/>
<linearGradient gradientTransform="translate(-257.89 -71.863)" id="linearGradient44723" xlink:href="#linearGradient4382" y1="645.29" y2="628.9" x1="436.36" gradientUnits="userSpaceOnUse" x2="635.54"/>
<linearGradient id="linearGradient31814">
<stop offset="0"/>
<stop offset="1" stop-opacity="0"/>
</linearGradient>
<linearGradient id="linearGradient3984">
<stop offset="0" stop-color="#008080"/>
<stop offset="1" stop-color="#ff0"/>
</linearGradient>
<linearGradient gradientTransform="translate(-257.89 -71.863)" id="linearGradient44731" xlink:href="#linearGradient3984" y1="660.68" y2="585.01" x1="664.97" gradientUnits="userSpaceOnUse" x2="476.25"/>
<linearGradient id="linearGradient6065">
<stop offset="0" stop-color="#dbe2e3"/>
<stop offset="1" stop-color="#2c966a"/>
</linearGradient>
<linearGradient id="linearGradient4416">
<stop offset="0" stop-color="#fc6da4"/>
<stop offset="1" stop-color="#d40000"/>
</linearGradient>
<linearGradient gradientTransform="translate(-257.89 -71.863)" id="linearGradient44743" xlink:href="#linearGradient4416" y1="627.79" y2="546.33" x1="511.71" gradientUnits="userSpaceOnUse" x2="457.42"/>
<linearGradient id="linearGradient44741" xlink:href="#linearGradient6065" y1="536.28" y2="537.61" x1="251.7" gradientUnits="userSpaceOnUse" x2="304.89"/>
<linearGradient gradientTransform="translate(-257.89 -71.863)" id="linearGradient44733" xlink:href="#linearGradient4382" y1="696.29" y2="660.68" x1="642.71" gradientUnits="userSpaceOnUse" x2="639.15"/>
<linearGradient gradientTransform="translate(-257.89 -71.863)" id="linearGradient44739" xlink:href="#linearGradient3984" y1="549.7" y2="467.76" x1="507.98" gradientUnits="userSpaceOnUse" x2="507.14"/>
<linearGradient gradientTransform="translate(-257.89 -71.863)" id="linearGradient44735" xlink:href="#linearGradient4722" y1="607.05" y2="601.86" x1="553.65" gradientUnits="userSpaceOnUse" x2="622.72"/>
<linearGradient gradientTransform="translate(-257.89 -71.863)" id="linearGradient44737" xlink:href="#linearGradient3828" y1="556.53" y2="593.03" x1="457.56" gradientUnits="userSpaceOnUse" x2="639.15"/>
<linearGradient id="linearGradient4722">
<stop offset="0" stop-color="#ff8080"/>
<stop offset="1" stop-color="#d40000"/>
</linearGradient>
</defs>
<g fill="none" stroke="#54abff" transform="matrix(.25342 0 0 .26961 -127.49684 137.52866)">
<path filter="url(#filter32171)" stroke-width="2.472" d="m2045.1,1985.1c0,31.045-103.07,56.212-230.2,56.212-127.14,0-230.2-25.167-230.2-56.212 0-31.045 103.07-56.212 230.2-56.212 127.14,0 230.2,25.167 230.2,56.212z" transform="matrix(2.1628 0 0 .78571 -2700.7 -789.76)"/>
<path filter="url(#filter32167)" stroke-width="1.932" d="m2045.1,1985.1c0,31.045-103.07,56.212-230.2,56.212-127.14,0-230.2-25.167-230.2-56.212 0-31.045 103.07-56.212 230.2-56.212 127.14,0 230.2,25.167 230.2,56.212z" transform="matrix(2.4767 0 0 1.1231 -3270.4 -1451.3)"/>
<path filter="url(#filter32163)" stroke-width="1.564" d="m2045.1,1985.1c0,31.045-103.07,56.212-230.2,56.212-127.14,0-230.2-25.167-230.2-56.212 0-31.045 103.07-56.212 230.2-56.212 127.14,0 230.2,25.167 230.2,56.212z" transform="matrix(2.9535 0 0 1.4367 -4135.7 -2061.6)"/>
<path stroke-width="1.236" d="m2045.1,1985.1c0,31.045-103.07,56.212-230.2,56.212-127.14,0-230.2-25.167-230.2-56.212 0-31.045 103.07-56.212 230.2-56.212 127.14,0 230.2,25.167 230.2,56.212z" transform="matrix(2.1628 0 0 .78571 -2700.7 -789.76)"/>
<path stroke-width=".966" d="m2045.1,1985.1c0,31.045-103.07,56.212-230.2,56.212-127.14,0-230.2-25.167-230.2-56.212 0-31.045 103.07-56.212 230.2-56.212 127.14,0 230.2,25.167 230.2,56.212z" transform="matrix(2.4767 0 0 1.1231 -3270.4 -1451.3)"/>
<path stroke-width=".782" d="m2045.1,1985.1c0,31.045-103.07,56.212-230.2,56.212-127.14,0-230.2-25.167-230.2-56.212 0-31.045 103.07-56.212 230.2-56.212 127.14,0 230.2,25.167 230.2,56.212z" transform="matrix(2.9535 0 0 1.4367 -4135.7 -2061.6)"/>
</g>
<g transform="matrix(.69456 0 0 .73447 -354.10943 -229.00775)">
<path fill="url(#linearGradient44721)" d="m810.03,311.8c5.199,0 9.4062,4.2385 9.4062,9.4375 0,3.7724-2.2335,6.9982-5.4375,8.5l57.625,415.67c35.095-.6447 116.58-22.562 116.58-22.562-23.138,35.046-36.743,54.913-90.469,64.844h-229.75c-31.742-3.2454-46.469-13.336-47.094-34.438 0,0 171.93,3.2884 239.45-6.0313l-51.47-416.67c-4.6552-.5683-8.25-4.5037-8.25-9.3125 0-5.199 4.2073-9.4375 9.4063-9.4375z"/>
</g>
<g transform="matrix(.69456 0 0 .73447 -18.41644 -212.3697)">
<path fill="url(#linearGradient44723)" d="m417.5,685.13-80.05-367.61c0,0-58.043,33.345-107.04,105.22-51.09,74.953-31.27,289.12-31.27,289.12 0,0 95.017,2.3774 141.67-4.9612 26.16-4.1153 76.687-21.779 76.687-21.779z"/>
<path fill="url(#linearGradient44725)" d="m337.46,317.51c0,0-26.22,15.092-58.281,46.781l78.375,45.469-20.094-92.25z"/>
<path fill="url(#linearGradient8420)" d="m324.11,326.32c-6.221,4.3998-14.237,10.41-23.469,18.25l-21,367c22.211-.7012 44.691-2.0661 61.156-4.6562 8.3983-1.3212 19.307-4.0439 30.25-7.125l-46.938-373.47z"/>
<path fill="url(#linearGradient44729)" d="m597.35,727.56c0,13.21-10.709,23.919-23.919,23.919-13.21,0-23.919-10.709-23.919-23.919 0-13.21 10.709-23.919 23.919-23.919 13.21,0 23.919,10.709 23.919,23.919z" transform="matrix(1.4211 0 0 1.4211 -491.15 -366.87)"/>
<path fill="url(#linearGradient44731)" d="m269.8,373.89c-12.941,13.686-26.462,29.931-39.375,48.875-31.528,46.255-36.064,145.48-34.906,214.72l207.5-18.844-39.719-182.44-93.5-62.312z"/>
<path fill="url(#linearGradient44733)" d="m397.3,592.42-87.25,6.1875 1.1875,28.375 91.75-8.3438-5.6875-26.219z"/>
<path fill="url(#linearGradient44735)" d="m297.9,392.61-13.562,236.81 77-7l-25.719-204.69-37.719-25.125z"/>
<path fill="url(#linearGradient44737)" d="m251.99,396.36c-.6342,0-1.2745,.0208-1.9062,.0312-6.2814,7.7346-12.576,16.071-18.719,25 6.6205-1.564 13.528-2.375 20.625-2.375 49.365,0 89.375,40.041 89.375,89.406 0,49.365-40.01,89.375-89.375,89.375-21.112,0-40.514-7.3244-55.812-19.562-.3795,9.1266-.6056,18.155-.7188,26.938 16.596,9.7127 35.915,15.281 56.531,15.281 61.88,0 112.03-50.151 112.03-112.03 0-61.88-50.151-112.06-112.03-112.06z"/>
<path fill="url(#linearGradient44739)" d="m251.99,437.92c-12.283,0-23.85,3.1334-33.906,8.6562-11.621,29.153-17.649,67.875-20.5,106.69 12.931,15.668 32.505,25.656 54.406,25.656 38.936,0 70.469-31.564 70.469-70.5 0-38.936-31.533-70.5-70.469-70.5z"/>
<path fill="url(#linearGradient44741)" d="m309.56,533.38c0,18.313-14.846,33.159-33.159,33.159-18.313,0-33.159-14.846-33.159-33.159 0-18.313 14.846-33.159 33.159-33.159 18.313,0 33.159,14.846 33.159,33.159z" transform="matrix(1.1208 0 0 1.1208 -63.485 -73.676)"/>
<path fill="url(#linearGradient44743)" d="m208.68,476.67c-5.7121,23.457-9.1402,50.004-11.094,76.594 12.931,15.668 32.505,25.656 54.406,25.656 38.936,0 70.469-31.564 70.469-70.5 0-11.429-2.7385-22.203-7.5625-31.75h-106.22zm37.281,16c17.207,0 31.156,13.949 31.156,31.156 0,17.207-13.949,31.156-31.156,31.156-17.207,0-31.156-13.949-31.156-31.156 0-17.207 13.949-31.156 31.156-31.156z"/>
<path fill="#fffb01" d="m294.49,452.2-6.6875,116.94c20.75-12.269 34.656-34.859 34.656-60.719 0-22.959-10.987-43.346-27.969-56.219z"/>
<path fill="url(#linearGradient44745)" d="m297.15,405.86-1.4062,24.562c27.236,15.322 45.625,44.526 45.625,78 0,37.108-22.617,68.923-54.812,82.438l-1.4062,24.625c29.969-9.2703 54.564-30.81 67.938-58.719l-15.09-120.15c-10.994-13.161-24.95-23.738-40.844-30.75z"/>
<path fill="url(#linearGradient44747)" d="m255.74,650.23-59.75,5.6562c1.0706,33.21 3.1562,56 3.1562,56 0,0 22.507,.5466 50.938,.2812l5.6562-61.938z"/>
<path fill="url(#linearGradient44749)" d="m255.74,650.23-59.75,5.6562c.097,3.0795 .1996,6.079 .3125,8.9688 .0384,.9683 .0853,2.0232 .125,2.9688 .0784,1.8679 .1676,3.5378 .25,5.3125l57.406-4.625 1.6562-18.281z"/>
<path fill="url(#linearGradient44751)" d="m361.33,622.42-77.08,6.9588-2.0137,36.854 83.75-6.75z"/>
<path fill="url(#linearGradient44753)" d="m298.86,375.7-.9688,16.906 37.719,25.125-2.8125-22.344-33.938-19.688z"/>
<path fill="url(#linearGradient44755)" d="m377.4,620.95-16.094,1.4688 9.75,77.375c23.144-6.5164 46.438-14.656 46.438-14.656l-4.75-21.812-28.594,8.125-6.75-50.5zm-15.625,81.344c-2.4252,.6292-4.8368,1.2293-7.1562,1.7812 2.3323-.5539 4.7181-1.147 7.1562-1.7812z"/>
<path fill="url(#linearGradient8450)" d="m597.35,727.56c0,13.21-10.709,23.919-23.919,23.919-13.21,0-23.919-10.709-23.919-23.919 0-13.21 10.709-23.919 23.919-23.919 13.21,0 23.919,10.709 23.919,23.919z" transform="translate(-249.7 -60.533)"/>
<path fill="url(#linearGradient44759)" d="m323.74,633.04c-18.301,0-33.231,14.474-33.969,32.594l67.25-5.4375c-3.158-15.504-16.845-27.156-33.281-27.156z"/>
<path fill="url(#linearGradient44761)" d="m323.74,643.11c-12.459,0-22.72,9.5217-23.844,21.688l47-3.7812c-2.6649-10.303-12.021-17.906-23.156-17.906z"/>
<path fill="url(#linearGradient44763)" d="m597.35,727.56c0,13.21-10.709,23.919-23.919,23.919-13.21,0-23.919-10.709-23.919-23.919 0-13.21 10.709-23.919 23.919-23.919 13.21,0 23.919,10.709 23.919,23.919z" transform="matrix(.86842 0 0 .86842 -251.67 -107.69)"/>
<path fill="url(#linearGradient44765)" d="m246.31,503.38c-2.7382,0-5.3562,.5373-7.75,1.5v7.7812c2.2102-1.4932 4.882-2.375 7.75-2.375 7.6481,0 13.844,6.2269 13.844,13.875 0,7.6481-6.1957,13.844-13.844,13.844-2.868,0-5.5398-.8818-7.75-2.375v7.7812c2.3938,.9627 5.0118,1.5 7.75,1.5 11.472,0 20.781-9.2779 20.781-20.75 0-11.4721-9.3092-20.781-20.781-20.781z"/>
<path fill="url(#linearGradient44767)" d="m597.35,727.56c0,13.21-10.709,23.919-23.919,23.919-13.21,0-23.919-10.709-23.919-23.919 0-13.21 10.709-23.919 23.919-23.919 13.21,0 23.919,10.709 23.919,23.919z" transform="matrix(.57895 0 0 .57895 -85.679 102.92)"/>
<path fill="url(#linearGradient44769)" d="m208.69,476.66c-.5555,2.281-1.112,4.6008-1.625,6.9375h85.625l.4062-6.9375h-84.406z"/>
<path fill="url(#linearGradient44771)" d="m293.08,476.67-5.2812,92.469c20.75-12.269 34.656-34.859 34.656-60.719 0-11.429-2.7385-22.203-7.5625-31.75h-21.812z"/>
</g>
<g transform="matrix(.26867 0 0 .26961 -139.74857 137.52866)">
<path opacity=".2" fill="url(#linearGradient44773)" d="m1296.2,837.56c-13.44,0-24.312,11.525-24.312,25.688 0,13.1 9.3093,23.827 21.344,25.375l5.125,43.625c-.058,.0421-.098,.0828-.1563,.125-2.2899,1.6543-4.7628,3.4515-7.3125,5.3438-.9585,.7121-1.8812,1.4104-2.875,2.1562-2.5889,1.9408-5.2755,3.9852-8.0938,6.1562-.094,.0726-.1868,.1458-.2812,.2188-.6066,.4677-1.1645,.8966-1.7812,1.375-1.1083,.8603-2.2034,1.7302-3.3438,2.625-1.7964,1.4081-3.5952,2.8186-5.4688,4.3125-1.862,1.4859-3.7525,3.0229-5.6874,4.5938-.4236,.3425-.8231,.6533-1.25,1-1.522,1.2392-3.0921,2.5526-4.6563,3.8438-1.077,.8867-2.122,1.7444-3.2187,2.6562-1.4924,1.2434-3.0041,2.5232-4.5313,3.8125-6.6409,5.595-13.609,11.56-20.875,18.062v.0937c-17.185,15.382-35.873,33.157-55.438,53.531-.026,.027-.037,.067-.062,.094-40.449,42.133-84.497,95.04-126.03,159.25-12.091,18.692-22.676,40.564-31.875,64.875-.012,.01-.019,.024-.031,.031-.9924,2.6234-1.9452,5.2582-2.9062,7.9376-.7713,2.15-1.5299,4.315-2.2813,6.5-.086,.25-.1643,.4994-.25,.75-.6951,2.031-1.3843,4.0647-2.0625,6.125-1.3802,4.1926-2.72,8.4412-4.0312,12.75-.058,.189-.1302,.3732-.1876,.5624-2.0011,6.5983-3.9054,13.338-5.75,20.188-.0112,.041-.0201,.083-.0312,.125-1.5643,5.8134-3.0758,11.708-4.5312,17.687-.2986,1.2267-.5809,2.4543-.875,3.6876-.4473,1.8759-.9067,3.734-1.3438,5.625h-.0312c-.002,.01 .002,.021 0,.031h-.0312c-.501,2.1678-.9813,4.3755-1.4688,6.5625-.3648,1.6094-.7046,3.2242-1.0625,4.8436-.0725,.3341-.1466,.6657-.2188,1-.4731,2.1544-.9547,4.3015-1.4062,6.4689h.0625c-4.8503,23.276-8.9975,47.485-12.5,72.312-.4503,3.1849-.8827,6.3589-1.3125,9.5625-1.6219,12.114-3.0942,24.362-4.4375,36.688-.1163,1.0643-.2607,2.122-.375,3.1875-.0389,.3638-.0551,.7298-.0937,1.0938-.8424,7.906-1.6391,15.852-2.375,23.812-.075,.8128-.1448,1.6243-.2188,2.4376-.2285,2.5089-.4379,5.0185-.6562,7.5312-.0271,.3123-.0668,.6252-.0937,.9375-.1151,1.3327-.2314,2.6664-.3438,4-.1531,1.8208-.2895,3.6465-.4375,5.4686-.1405,1.7281-.3016,3.4585-.4375,5.1876-.13,1.6565-.2491,3.3115-.375,4.9687-.3192,4.1983-.6134,8.393-.9062,12.594 .009,.012 .0222,.02 .0312,.031-.0175,.2505-.0451,.4995-.0625,.75-.3319,4.7841-.6385,9.5611-.9375,14.344-.8351,13.37-1.5613,26.712-2.1562,40-.0308,.6883-.0635,1.3747-.0937,2.0626-.2489,5.6678-.4475,11.33-.6562,16.969-.0522,1.4087-.1065,2.8122-.1562,4.2187-.1397,3.951-.2853,7.8805-.4062,11.813-.0835,2.7121-.1751,5.4229-.25,8.125-.1562,5.6436-.2862,11.282-.4062,16.875-.007,.3319-.0242,.6682-.0312,1-.1034,4.9011-.1728,9.769-.25,14.625-.0572,3.597-.1128,7.1803-.1562,10.75-.1254,10.304-.1988,20.493-.2188,30.531-.003,1.3775 .0009,2.7531 0,4.125-.004,5.5918 .006,11.132 .0312,16.625 .006,1.3682 .0232,2.7008 .0312,4.0625 .0234,3.9505 .0253,7.8881 .0625,11.781 .0442,4.6101 .1252,9.1632 .1875,13.687 1.6563,120.67 9.4688,209.72 9.4688,209.72 0,.0001 0,.031 0,.031 0,0 47.124,1.1876 110,.9063 30.684-.1362 65.165-.6365 99.844-1.8125 .9168-.031 1.8331-.062 2.75-.094 5.683-.1985 11.358-.4193 17.031-.6562 2.6253-.1092 5.2569-.226 7.875-.3438 .9585-.043 1.9178-.08 2.875-.125 .8896-.041 1.7679-.083 2.6563-.125 6.2493-.2981 12.459-.6172 18.625-.9687 .987-.056 1.9532-.1301 2.9374-.1875 2.5153-.1474 5.0362-.2806 7.5313-.4375 .2935-.018 .5818-.044 .875-.062 3.1915-.2023 6.3476-.4066 9.5-.625 .1365-.01 .2698-.022 .4063-.031 3.2985-.2294 6.564-.4712 9.8124-.7188 2.2031-.1671 4.3853-.3242 6.5626-.5 1.1661-.095 2.3416-.1841 3.5-.2812 9.1308-.7621 17.983-1.6034 26.531-2.5313 .7783-.085 1.5398-.1639 2.3125-.25 7.9902-.8882 15.619-1.8565 22.938-2.9063 .084-.012 .1658-.019 .25-.031 3.8886-.5595 7.7069-1.1419 11.375-1.75 6.3353-1.0502 13.281-2.464 20.562-4.0938 5.1783-1.1579 10.575-2.4228 16.094-3.8124 2.2328-.563 4.5059-1.155 6.7813-1.75 1.0923-.2854 2.2117-.5829 3.3125-.875 .2987-.079 .607-.1702 .9062-.25 3.1301-.8344 6.285-1.6797 9.4688-2.5626 .7983-.2215 1.6054-.4632 2.4062-.6874 1.7269-.4833 3.482-.9739 5.2188-1.4688 1.0027-.2858 1.9948-.5544 3-.8438 5.9008-1.6977 11.831-3.4606 17.75-5.25l8.1562,69.688c-174.57,25.388-619.03,16.437-619.03,16.437 1.6144,57.483 39.69,84.972 121.75,93.813h593.94c138.89-27.053 174.06-81.185 233.88-176.66 0,0-210.65,59.712-301.38,61.469l-9.6563-73.375c3.8505-1.2335 7.6459-2.4692 11.375-3.6874 .4382-.1432 .8451-.2635 1.2813-.4063 4.6925-1.5362 9.2608-3.051 13.688-4.5313 1.0402-.3478 1.977-.6563 3-1 1.274-.4278 2.3479-.798 3.5938-1.2187 5.1428-1.7369 10.009-3.3887 14.594-4.9687 .3897-.1343 .6773-.2421 1.0625-.375 5.1864-1.7902 10.049-3.4993 14.312-5 .2882-.1014 .4665-.1502 .75-.25 1.4924-.5258 2.1725-.7684 3.5313-1.25 6.3524-2.2499 9.2195-3.2978 12.187-4.375 1.8098-.6537 1.8409-.6455 2.8126-1 .5743-.21 2.9062-1.0626 2.9062-1.0626h.031l-37.437-181.16h.031l-102.69-497-.062-.031-14.875-72 .062,.031-51.9-251.29c0,0-.9973,.6439-1.4688,.9375-.1702,.1067-.17,.0893-.375,.2188-1.0712,.6716-2.2243,1.3977-4.75,3.0625-.074,.0485-.1127,.0757-.1874,.125-.014,.009-.017,.0218-.031,.0312-1.0658,.7026-2.2326,1.5003-3.5313,2.375-.7665,.5166-1.4977,1.0162-2.3437,1.5938l-4.8437-36.75c8.2829-4.0911 14.062-12.88 14.062-23.156 0-14.163-10.903-25.688-24.344-25.688z" transform="translate(0 -1347.6)"/>
</g>
<g transform="matrix(.69456 0 0 .73447 -354.10944 -229.00775)">
<path fill="url(#linearGradient44721)" d="m810.03,311.8c5.199,0 9.4062,4.2385 9.4062,9.4375 0,3.7724-2.2335,6.9982-5.4375,8.5l57.625,415.67c35.095-.6447 116.58-22.562 116.58-22.562-23.138,35.046-36.743,54.913-90.469,64.844h-229.75c-31.742-3.2454-46.469-13.336-47.094-34.438 0,0 171.93,3.2884 239.45-6.0313l-51.47-416.67c-4.6552-.5683-8.25-4.5037-8.25-9.3125 0-5.199 4.2073-9.4375 9.4063-9.4375z"/>
</g>
<g transform="matrix(.69456 0 0 .73447 -18.41644 -212.3697)">
<path fill="url(#linearGradient44723)" d="m417.5,685.13-80.05-367.61c0,0-58.043,33.345-107.04,105.22-51.09,74.953-31.27,289.12-31.27,289.12 0,0 95.017,2.3774 141.67-4.9612 26.16-4.1153 76.687-21.779 76.687-21.779z"/>
<path fill="url(#linearGradient44725)" d="m337.46,317.51c0,0-26.22,15.092-58.281,46.781l78.375,45.469-20.094-92.25z"/>
<path fill="url(#linearGradient8420)" d="m324.11,326.32c-6.221,4.3998-14.237,10.41-23.469,18.25l-21,367c22.211-.7012 44.691-2.0661 61.156-4.6562 8.3983-1.3212 19.307-4.0439 30.25-7.125l-46.938-373.47z"/>
<path fill="url(#linearGradient44729)" d="m597.35,727.56c0,13.21-10.709,23.919-23.919,23.919-13.21,0-23.919-10.709-23.919-23.919 0-13.21 10.709-23.919 23.919-23.919 13.21,0 23.919,10.709 23.919,23.919z" transform="matrix(1.4211 0 0 1.4211 -491.15 -366.87)"/>
<path fill="url(#linearGradient44731)" d="m269.8,373.89c-12.941,13.686-26.462,29.931-39.375,48.875-31.528,46.255-36.064,145.48-34.906,214.72l207.5-18.844-39.719-182.44-93.5-62.312z"/>
<path fill="url(#linearGradient44733)" d="m397.3,592.42-87.25,6.1875 1.1875,28.375 91.75-8.3438-5.6875-26.219z"/>
<path fill="url(#linearGradient44735)" d="m297.9,392.61-13.562,236.81 77-7l-25.719-204.69-37.719-25.125z"/>
<path fill="url(#linearGradient44737)" d="m251.99,396.36c-.6342,0-1.2745,.0208-1.9062,.0312-6.2814,7.7346-12.576,16.071-18.719,25 6.6205-1.564 13.528-2.375 20.625-2.375 49.365,0 89.375,40.041 89.375,89.406 0,49.365-40.01,89.375-89.375,89.375-21.112,0-40.514-7.3244-55.812-19.562-.3795,9.1266-.6056,18.155-.7188,26.938 16.596,9.7127 35.915,15.281 56.531,15.281 61.88,0 112.03-50.151 112.03-112.03 0-61.88-50.151-112.06-112.03-112.06z"/>
<path fill="url(#linearGradient44739)" d="m251.99,437.92c-12.283,0-23.85,3.1334-33.906,8.6562-11.621,29.153-17.649,67.875-20.5,106.69 12.931,15.668 32.505,25.656 54.406,25.656 38.936,0 70.469-31.564 70.469-70.5 0-38.936-31.533-70.5-70.469-70.5z"/>
<path fill="url(#linearGradient44741)" d="m309.56,533.38c0,18.313-14.846,33.159-33.159,33.159-18.313,0-33.159-14.846-33.159-33.159 0-18.313 14.846-33.159 33.159-33.159 18.313,0 33.159,14.846 33.159,33.159z" transform="matrix(1.1208 0 0 1.1208 -63.485 -73.676)"/>
<path fill="url(#linearGradient44743)" d="m208.68,476.67c-5.7121,23.457-9.1402,50.004-11.094,76.594 12.931,15.668 32.505,25.656 54.406,25.656 38.936,0 70.469-31.564 70.469-70.5 0-11.429-2.7385-22.203-7.5625-31.75h-106.22zm37.281,16c17.207,0 31.156,13.949 31.156,31.156 0,17.207-13.949,31.156-31.156,31.156-17.207,0-31.156-13.949-31.156-31.156 0-17.207 13.949-31.156 31.156-31.156z"/>
<path fill="#fffb01" d="m294.49,452.2-6.6875,116.94c20.75-12.269 34.656-34.859 34.656-60.719 0-22.959-10.987-43.346-27.969-56.219z"/>
<path fill="url(#linearGradient44745)" d="m297.15,405.86-1.4062,24.562c27.236,15.322 45.625,44.526 45.625,78 0,37.108-22.617,68.923-54.812,82.438l-1.4062,24.625c29.969-9.2703 54.564-30.81 67.938-58.719l-15.09-120.15c-10.994-13.161-24.95-23.738-40.844-30.75z"/>
<path fill="url(#linearGradient44747)" d="m255.74,650.23-59.75,5.6562c1.0706,33.21 3.1562,56 3.1562,56 0,0 22.507,.5466 50.938,.2812l5.6562-61.938z"/>
<path fill="url(#linearGradient44749)" d="m255.74,650.23-59.75,5.6562c.097,3.0795 .1996,6.079 .3125,8.9688 .0384,.9683 .0853,2.0232 .125,2.9688 .0784,1.8679 .1676,3.5378 .25,5.3125l57.406-4.625 1.6562-18.281z"/>
<path fill="url(#linearGradient44751)" d="m361.33,622.42-77.08,6.9588-2.0137,36.854 83.75-6.75z"/>
<path fill="url(#linearGradient44753)" d="m298.86,375.7-.9688,16.906 37.719,25.125-2.8125-22.344-33.938-19.688z"/>
<path fill="url(#linearGradient44755)" d="m377.4,620.95-16.094,1.4688 9.75,77.375c23.144-6.5164 46.438-14.656 46.438-14.656l-4.75-21.812-28.594,8.125-6.75-50.5zm-15.625,81.344c-2.4252,.6292-4.8368,1.2293-7.1562,1.7812 2.3323-.5539 4.7181-1.147 7.1562-1.7812z"/>
<path fill="url(#linearGradient8450)" d="m597.35,727.56c0,13.21-10.709,23.919-23.919,23.919-13.21,0-23.919-10.709-23.919-23.919 0-13.21 10.709-23.919 23.919-23.919 13.21,0 23.919,10.709 23.919,23.919z" transform="translate(-249.7 -60.533)"/>
<path fill="url(#linearGradient44759)" d="m323.74,633.04c-18.301,0-33.231,14.474-33.969,32.594l67.25-5.4375c-3.158-15.504-16.845-27.156-33.281-27.156z"/>
<path fill="url(#linearGradient44761)" d="m323.74,643.11c-12.459,0-22.72,9.5217-23.844,21.688l47-3.7812c-2.6649-10.303-12.021-17.906-23.156-17.906z"/>
<path fill="url(#linearGradient44763)" d="m597.35,727.56c0,13.21-10.709,23.919-23.919,23.919-13.21,0-23.919-10.709-23.919-23.919 0-13.21 10.709-23.919 23.919-23.919 13.21,0 23.919,10.709 23.919,23.919z" transform="matrix(.86842 0 0 .86842 -251.67 -107.69)"/>
<path fill="url(#linearGradient44765)" d="m246.31,503.38c-2.7382,0-5.3562,.5373-7.75,1.5v7.7812c2.2102-1.4932 4.882-2.375 7.75-2.375 7.6481,0 13.844,6.2269 13.844,13.875 0,7.6481-6.1957,13.844-13.844,13.844-2.868,0-5.5398-.8818-7.75-2.375v7.7812c2.3938,.9627 5.0118,1.5 7.75,1.5 11.472,0 20.781-9.2779 20.781-20.75 0-11.4721-9.3092-20.781-20.781-20.781z"/>
<path fill="url(#linearGradient44767)" d="m597.35,727.56c0,13.21-10.709,23.919-23.919,23.919-13.21,0-23.919-10.709-23.919-23.919 0-13.21 10.709-23.919 23.919-23.919 13.21,0 23.919,10.709 23.919,23.919z" transform="matrix(.57895 0 0 .57895 -85.679 102.92)"/>
<path fill="url(#linearGradient44769)" d="m208.69,476.66c-.5555,2.281-1.112,4.6008-1.625,6.9375h85.625l.4062-6.9375h-84.406z"/>
<path fill="url(#linearGradient44771)" d="m293.08,476.67-5.2812,92.469c20.75-12.269 34.656-34.859 34.656-60.719 0-11.429-2.7385-22.203-7.5625-31.75h-21.812z"/>
</g>
<g transform="matrix(.26867 0 0 .26961 -139.74857 137.52866)">
<path opacity=".2" fill="url(#linearGradient44773)" d="m1296.2,837.56c-13.44,0-24.312,11.525-24.312,25.688 0,13.1 9.3093,23.827 21.344,25.375l5.125,43.625c-.058,.0421-.098,.0828-.1563,.125-2.2899,1.6543-4.7628,3.4515-7.3125,5.3438-.9585,.7121-1.8812,1.4104-2.875,2.1562-2.5889,1.9408-5.2755,3.9852-8.0938,6.1562-.094,.0726-.1868,.1458-.2812,.2188-.6066,.4677-1.1645,.8966-1.7812,1.375-1.1083,.8603-2.2034,1.7302-3.3438,2.625-1.7964,1.4081-3.5952,2.8186-5.4688,4.3125-1.862,1.4859-3.7525,3.0229-5.6874,4.5938-.4236,.3425-.8231,.6533-1.25,1-1.522,1.2392-3.0921,2.5526-4.6563,3.8438-1.077,.8867-2.122,1.7444-3.2187,2.6562-1.4924,1.2434-3.0041,2.5232-4.5313,3.8125-6.6409,5.595-13.609,11.56-20.875,18.062v.0937c-17.185,15.382-35.873,33.157-55.438,53.531-.026,.027-.037,.067-.062,.094-40.449,42.133-84.497,95.04-126.03,159.25-12.091,18.692-22.676,40.564-31.875,64.875-.012,.01-.019,.024-.031,.031-.9924,2.6234-1.9452,5.2582-2.9062,7.9376-.7713,2.15-1.5299,4.315-2.2813,6.5-.086,.25-.1643,.4994-.25,.75-.6951,2.031-1.3843,4.0647-2.0625,6.125-1.3802,4.1926-2.72,8.4412-4.0312,12.75-.058,.189-.1302,.3732-.1876,.5624-2.0011,6.5983-3.9054,13.338-5.75,20.188-.0112,.041-.0201,.083-.0312,.125-1.5643,5.8134-3.0758,11.708-4.5312,17.687-.2986,1.2267-.5809,2.4543-.875,3.6876-.4473,1.8759-.9067,3.734-1.3438,5.625h-.0312c-.002,.01 .002,.021 0,.031h-.0312c-.501,2.1678-.9813,4.3755-1.4688,6.5625-.3648,1.6094-.7046,3.2242-1.0625,4.8436-.0725,.3341-.1466,.6657-.2188,1-.4731,2.1544-.9547,4.3015-1.4062,6.4689h.0625c-4.8503,23.276-8.9975,47.485-12.5,72.312-.4503,3.1849-.8827,6.3589-1.3125,9.5625-1.6219,12.114-3.0942,24.362-4.4375,36.688-.1163,1.0643-.2607,2.122-.375,3.1875-.0389,.3638-.0551,.7298-.0937,1.0938-.8424,7.906-1.6391,15.852-2.375,23.812-.075,.8128-.1448,1.6243-.2188,2.4376-.2285,2.5089-.4379,5.0185-.6562,7.5312-.0271,.3123-.0668,.6252-.0937,.9375-.1151,1.3327-.2314,2.6664-.3438,4-.1531,1.8208-.2895,3.6465-.4375,5.4686-.1405,1.7281-.3016,3.4585-.4375,5.1876-.13,1.6565-.2491,3.3115-.375,4.9687-.3192,4.1983-.6134,8.393-.9062,12.594 .009,.012 .0222,.02 .0312,.031-.0175,.2505-.0451,.4995-.0625,.75-.3319,4.7841-.6385,9.5611-.9375,14.344-.8351,13.37-1.5613,26.712-2.1562,40-.0308,.6883-.0635,1.3747-.0937,2.0626-.2489,5.6678-.4475,11.33-.6562,16.969-.0522,1.4087-.1065,2.8122-.1562,4.2187-.1397,3.951-.2853,7.8805-.4062,11.813-.0835,2.7121-.1751,5.4229-.25,8.125-.1562,5.6436-.2862,11.282-.4062,16.875-.007,.3319-.0242,.6682-.0312,1-.1034,4.9011-.1728,9.769-.25,14.625-.0572,3.597-.1128,7.1803-.1562,10.75-.1254,10.304-.1988,20.493-.2188,30.531-.003,1.3775 .0009,2.7531 0,4.125-.004,5.5918 .006,11.132 .0312,16.625 .006,1.3682 .0232,2.7008 .0312,4.0625 .0234,3.9505 .0253,7.8881 .0625,11.781 .0442,4.6101 .1252,9.1632 .1875,13.687 1.6563,120.67 9.4688,209.72 9.4688,209.72 0,.0001 0,.031 0,.031 0,0 47.124,1.1876 110,.9063 30.684-.1362 65.165-.6365 99.844-1.8125 .9168-.031 1.8331-.062 2.75-.094 5.683-.1985 11.358-.4193 17.031-.6562 2.6253-.1092 5.2569-.226 7.875-.3438 .9585-.043 1.9178-.08 2.875-.125 .8896-.041 1.7679-.083 2.6563-.125 6.2493-.2981 12.459-.6172 18.625-.9687 .987-.056 1.9532-.1301 2.9374-.1875 2.5153-.1474 5.0362-.2806 7.5313-.4375 .2935-.018 .5818-.044 .875-.062 3.1915-.2023 6.3476-.4066 9.5-.625 .1365-.01 .2698-.022 .4063-.031 3.2985-.2294 6.564-.4712 9.8124-.7188 2.2031-.1671 4.3853-.3242 6.5626-.5 1.1661-.095 2.3416-.1841 3.5-.2812 9.1308-.7621 17.983-1.6034 26.531-2.5313 .7783-.085 1.5398-.1639 2.3125-.25 7.9902-.8882 15.619-1.8565 22.938-2.9063 .084-.012 .1658-.019 .25-.031 3.8886-.5595 7.7069-1.1419 11.375-1.75 6.3353-1.0502 13.281-2.464 20.562-4.0938 5.1783-1.1579 10.575-2.4228 16.094-3.8124 2.2328-.563 4.5059-1.155 6.7813-1.75 1.0923-.2854 2.2117-.5829 3.3125-.875 .2987-.079 .607-.1702 .9062-.25 3.1301-.8344 6.285-1.6797 9.4688-2.5626 .7983-.2215 1.6054-.4632 2.4062-.6874 1.7269-.4833 3.482-.9739 5.2188-1.4688 1.0027-.2858 1.9948-.5544 3-.8438 5.9008-1.6977 11.831-3.4606 17.75-5.25l8.1562,69.688c-174.57,25.388-619.03,16.437-619.03,16.437 1.6144,57.483 39.69,84.972 121.75,93.813h593.94c138.89-27.053 174.06-81.185 233.88-176.66 0,0-210.65,59.712-301.38,61.469l-9.6563-73.375c3.8505-1.2335 7.6459-2.4692 11.375-3.6874 .4382-.1432 .8451-.2635 1.2813-.4063 4.6925-1.5362 9.2608-3.051 13.688-4.5313 1.0402-.3478 1.977-.6563 3-1 1.274-.4278 2.3479-.798 3.5938-1.2187 5.1428-1.7369 10.009-3.3887 14.594-4.9687 .3897-.1343 .6773-.2421 1.0625-.375 5.1864-1.7902 10.049-3.4993 14.312-5 .2882-.1014 .4665-.1502 .75-.25 1.4924-.5258 2.1725-.7684 3.5313-1.25 6.3524-2.2499 9.2195-3.2978 12.187-4.375 1.8098-.6537 1.8409-.6455 2.8126-1 .5743-.21 2.9062-1.0626 2.9062-1.0626h.031l-37.437-181.16h.031l-102.69-497-.062-.031-14.875-72 .062,.031-51.9-251.29c0,0-.9973,.6439-1.4688,.9375-.1702,.1067-.17,.0893-.375,.2188-1.0712,.6716-2.2243,1.3977-4.75,3.0625-.074,.0485-.1127,.0757-.1874,.125-.014,.009-.017,.0218-.031,.0312-1.0658,.7026-2.2326,1.5003-3.5313,2.375-.7665,.5166-1.4977,1.0162-2.3437,1.5938l-4.8437-36.75c8.2829-4.0911 14.062-12.88 14.062-23.156 0-14.163-10.903-25.688-24.344-25.688z" transform="translate(0 -1347.6)"/>
</g>
</svg>
