<svg xmlns="http://www.w3.org/2000/svg" viewBox="0 0 388.44 30.455">
<g transform="translate(42.792 -725.71)">
<path d="m146.86,750.11c5.81-3.48 6.24-6.11 6-12.15-.24-5.91-4.18-9.3-9.47-11.36-5.28-2.05-11.44-.39-14.2,3-2.82,3.47-2.6,7.1 .16,9.63 1.86,1.7 4.02,0 3.94-1.58-.1-2.18-4.57-1.66-1.26-5.21 2.25-2.4 6.87-2.13 9.31,.63 2.45,2.76 3.77,7.74 .47,10.42-9.54,7.73-21.22-4.19-30.29-4.11s-13.928,9.39-25.556,9c-21.094-.72-34.709-19.57-59.005-19.72-11.518-.08-28.882,16.03-37.549,17.67-20.432,3.86-31.633-10.1-32.185-9.79-.553,.32 12.7,15.31 32.816,12.31 9.7224-1.45 27.604-16.45 37.864-16.09 22.877,.79 34.431,17.89 57.428,20.03 11.866,1.11 18.937-6.86 26.817-7.1 7.89-.23 21.3,12.47 34.71,4.42z"/>
<path d="m155.99,750.11c-5.81-3.48-6.23-6.11-5.99-12.15 .24-5.91 4.18-9.3 9.47-11.36 5.28-2.05 11.43-.39 14.19,3 2.83,3.47 2.61,7.1-.15,9.63-1.87,1.7-4.03,0-3.95-1.58 .11-2.18 4.58-1.66 1.26-5.21-2.24-2.4-6.86-2.13-9.3,.63-2.45,2.76-3.78,7.74-.48,10.42 9.55,7.73 21.22-4.19 30.29-4.11 9.08,.08 13.94,9.39 25.56,9 21.1-.72 34.71-19.57 59.01-19.72 11.52-.08 28.88,16.03 37.55,17.67 20.43,3.86 31.63-10.1 32.18-9.79 .55,.32-12.7,15.31-32.81,12.31-9.73-1.45-27.61-16.45-37.87-16.09-22.87,.79-34.43,17.89-57.43,20.03-11.86,1.11-18.93-6.86-26.82-7.1-7.89-.23-21.3,12.47-34.71,4.42z"/>
<path d="m11.788,739.02c-4.0799,2.45-4.3799,4.3-4.2104,8.53 .1662,4.16 2.9364,6.54 6.6484,7.98s8.033,.28 9.972-2.1c1.984-2.44 1.828-4.99-.111-6.76-1.309-1.2-2.825,0-2.77,1.1 .076,1.53 3.213,1.17 .886,3.66-1.575,1.69-4.819,1.5-6.537-.44-1.717-1.94-2.649-5.44-.332-7.32 6.703-5.42 20.83,10.97 37.894,11.08 8.089,.06 20.283-11.25 26.37-12.41 14.349-2.71 22.212,7.1 22.602,6.87 .39-.22-8.918-10.74-23.045-8.64-6.828,1.02-19.387,11.55-26.592,11.3-16.066-.55-31.357-18.5-40.775-12.85z"/>
<path d="m288.63,739.02c4.08,2.45 4.38,4.3 4.21,8.53-.16,4.16-2.93,6.54-6.65,7.98-3.71,1.44-8.03,.28-9.97-2.1-1.98-2.44-1.83-4.99 .11-6.76 1.31-1.2 2.83,0 2.77,1.1-.07,1.53-3.21,1.17-.88,3.66 1.57,1.69 4.82,1.5 6.53-.44 1.72-1.94 2.65-5.44 .34-7.32-6.71-5.42-20.83,10.97-37.9,11.08-8.09,.06-20.28-11.25-26.37-12.41-14.35-2.71-22.21,7.1-22.6,6.87-.39-.22 8.92-10.74 23.04-8.64 6.83,1.02 19.39,11.55 26.6,11.3 16.06-.55 31.35-18.5 40.77-12.85z"/>
</g>
</svg>
