<svg xmlns="http://www.w3.org/2000/svg" viewBox="0 0 402.75 326.25" xmlns:xlink="http://www.w3.org/1999/xlink" enable-background="new 0 0 402.75 326.25">
<g fill-rule="evenodd">
<g>
<path fill="#ed1c24" d="m8.25,201.75 271.5-3.75-10.5,31.5-.75,0 0,1.5-.75,0-.75,1.5-.75,.75-.75,1.5 0,.75-.75,.75 0,.75-1.5,1.5 0,.75-.75,1.5-.75,.75 0,.75-.75,.75-.75,1.5-.75,.75 0,.75-.75,1.5-.75,.75-.75,1.5-.75,.75-.75,1.5-.75,.75-.75,.75-.75,1.5-.75,.75-.75,1.5-.75,.75-.75,1.5-3,3-.75,1.5-3,3-.75,1.5-.75,.75-1.5,.75-.75,1.5-3,3-.75,1.5-1.5,.75-.75,.75-1.5,.75-.75,1.5-.75,.75-1.5,.75-.75,.75-1.5,.75-.75,.75-1.5,.75-.75,.75-1.5,.75-1.5,1.5-1.5,.75-.75,.75-.75,0-1.5,.75-1.5,1.5-.75,0-2.25,2.25-.75,0-.75,.75-.75,0-.75,.75-3,1.5-.75,0-1.5,.75-1.5,1.5-1.5,0-.75,.75-1.5,0-1.5,.75-1.5,0-.75,.75 1.5,12.75-1.5,0-.75,.75-.75,0-.75,.75-1.5,0-.75,.75-1.5,0-1.5,.75-1.5,0-1.5,.75-1.5,0-.75,.75-1.5,0-.75,.75-3,0-1.5,.75-.75,0-.75,.75-3.75,0-1.5,.75-2.25,0-.75,.75-3.75,0-1.5,.75-8.25,0-.75,.75-7.5,0-.75-.75-9,0-.75-.75-6,0-1.5-.75-1.5,0-.75-.75-3.75,0-.75-.75-3,0-1.5-.75-3,0-.75-.75-.75,0-1.5-.75-3,0-.75-.75-2.25,0-1.5-.75-1.5,0-1.5-.75-.75,0-1.5-.75-.75,0-.75-.75-1.5,0 0-10.5-33.75-24-.75-.75-.75,0-10.5-10.5-1.5-2.25-1.5-.75-.75-1.5-.75-.75-1.5-.75 0-.75-1.5-.75 0-1.5-1.5-.75 0-.75-1.5-.75-.75-.75-.75-1.5-2.25-2.25-.75-1.5-.75-.75-.75-1.5-.75-.75 0-.75-.75-1.5-.75-.75-.75-1.5-1.5-1.5-.75-1.5-.75-.75 0-.75-.75-1.5-.75-.75 0-1.5-1.5-1.5 0-1.5-.75-.75 0-1.5-1.5-1.5 0-1.5-.75-.75 0-.75-.75-.75 0-.75-.75-.75 0-.75-.75-.75 0-1.5-.75-.75 0-.75-.75-1.5-.75-.75-.75-1.5 0-1.5-.75-1.5 0-.75-1.5-1.5 0-1.5-.75-.75 0-.75-.75-.75 0-1.5-.75-.75 0-.75-.75,0z"/>
<path fill="#f48072" d="m57,129-.75,0-.75,.75-1.5,0-1.5,.75-1.5,0-1.5,.75-.75,0-.75,.75-2.25,0-1.5,1.5-1.5,0-.75,.75-.75,0-1.5,.75-.75,.75-.75,0-1.5,.75-.75,.75-1.5,.75-.75,.75-1.5,0-.75,.75-1.5,.75-.75,.75-3,1.5-.75,1.5-.75,.75-1.5,.75-.75,.75-1.5,.75-.75,1.5-1.5,.75-3,3-.75,1.5-.75,.75-.75,1.5-1.5,.75-1.5,3-.75,.75-3.75,7.5 0,1.5-1.5,3 0,2.25-.75,1.5 0,7.5 .75,1.5 0,2.25 1.5,3 0,1.5 1.5,1.5 0,1.5 1.5,1.5 2.25,4.5 3,3 .75,1.5 1.5,.75 .75,1.5 4.5,4.5 1.5,.75 3,3 1.5,.75 4.5,4.5 3,1.5 1.5,1.5 2.25,.75 2.25,2.25 1.5,.75 2.25,1.5 1.5,.75 .75,.75 7.5,3.75 .75,.75 1.5,.75 .75,.75 1.5,0 .75,.75 1.5,.75 .75,0 .75,.75 .75,0 1.5,.75 .75,.75 1.5,0 .75,.75 1.5,0 .75,.75 2.25,0 .75,.75 1.5,0 1.5,.75 .75,0 1.5,.75 .75,0 1.5,.75 3.75,0 3,1.5 3.75,0 1.5,.75 2.25,0 2.25,.75 2.25,0 1.5,.75 2.25,0 2.25,.75 2.25,0 2.25,.75 5.25,0 2.25,.75 5.25,0 2.25,.75 13.5,0 3,.75 9,0 3-.75 12,0 3-.75 3,0 3-.75 3.75,0 3-.75 3,0 3-.75 3.75-.75 6-1.5 3.75-.75 9-2.25 2.25-.75 6-1.5 2.25-.75 3-.75 15.75-5.25 1.5-.75 2.25-.75 1.5-.75 1.5-1.5 1.5-.75 2.25-.75 3-1.5 .75-.75 4.5-2.25 .75-.75 1.5-.75 .75-.75 1.5-.75 3.75-3.75 .75,0 1.5-1.5 1.5-.75 .75-1.5 .75-.75 .75-1.5 2.25-2.25 0-.75 .75,0 0-1.5 .75-.75 0-.75 .75-1.5 0-.75 .75-1.5 0-1.5 .75-1.5 0-2.25 .75-.75 0-3.75 .75-.75 0-9-.75-1.5 0-3.75-.75-.75 0-2.25-.75-1.5 0-.75-.75-1.5 0-.75-.75-1.5-.75-.75-.75-1.5-.75-.75 0-1.5-3-3-.75-1.5-.75-.75-.75-1.5-1.5-.75-.75-.75 0-.75-.75,0 0-.75-.75-1.5-1.5-.75-.75-1.5-3-3-1.5-.75-.75-.75-1.5-.75-.75-.75-1.5-.75-.75-.75-3-1.5-.75,0-1.5-.75-.75,0-.75-.75-1.5,0-.75-.75-2.25,0-.75-.75-3,0-1.5-.75-1.5,0z"/>
<path fill="#fff" d="m15.75,207.75 .75-12 5.25-9.75-.75-12 2.25-10.5 17.25-12 12-3 3.75-10.5 0-.75 .75-.75 0-2.25 .75-.75 0-.75 .75-1.5 0-1.5 .75-.75 0-2.25 .75,0 0-4.5 0-.75 0-5.25 .75,0 18.75-5.25 20.25-.75 10.5-9 8.25-6.75 10.5-.75 5.25,1.5 9.75,3 13.5-6 16.5,2.25 7.5,9.75 4.5,8.25 21.75,9 24,9 7.5,6.75 6,9.75-3.75,12 12.75,3.75 8.25,19.5 0,17.25 9.75,8.25-1.5,3-1.5,1.5-.75,1.5-1.5,1.5-.75,0-7.5,7.5-3,1.5-.75,.75-4.5,2.25-1.5,1.5-2.25,.75-3,1.5-2.25,.75-1.5,.75-2.25,.75-1.5,1.5-2.25,.75-3,.75-9,3-3,.75-3,1.5-3,.75-2.25,.75-3.75,.75-6,1.5-3.75,.75-3,.75-3.75,.75-3.75,0-11.25,2.25-3.75,0-4.5,.75-3.75,0-3.75,.75-3.75,0-3.75,.75-21,0-3-.75-6.75,0-3-.75-3,0-3.75-.75-2.25,0-3-.75-3,0-6-1.5-2.25,0-2.25-.75-3-.75-4.5-1.5-3-.75-4.5-1.5-1.5,0-6.75-2.25-1.5-.75-2.25-.75-3-1.5-2.25-.75-6-3-.75-.75-3-1.5-.75,0-1.5-.75-.75-.75-.75,0-1.5-1.5-1.5-.75-.75,0-1.5-1.5-.75,0z"/>
<path fill="#010101" d="m60,133.5-1.5,0-.75,.75-1.5,0-1.5,.75-1.5,0-.75,.75-2.25,0-.75,.75-.75,0-1.5,.75-.75,0-1.5,.75-.75,0-1.5,.75-.75,.75-1.5,0-.75,.75-1.5,.75-1.5,0-.75,.75-1.5,.75-.75,.75-1.5,.75-1.5,.75-.75,.75-3,1.5-.75,.75-1.5,.75-.75,1.5-1.5,.75-.75,.75-1.5,.75-.75,1.5-1.5,.75-.75,1.5-.75,.75-.75,1.5-2.25,2.25-1.5,3-.75,.75-1.5,3 0,1.5-.75,1.5 0,1.5-.75,1.5 0,2.25-.75,1.5 0,8.25 .75,2.25 0,1.5 .75,1.5 .75,2.25 2.25,4.5 1.5,2.25 .75,1.5 1.5,1.5 .75,1.5 5.25,5.25 1.5,.75 3,3 4.5,3 1.5,1.5 6.75,4.5 2.25,.75 3,1.5 2.25,1.5 2.25,.75 2.25,1.5 3,1.5 3,.75 2.25,1.5 3,.75 2.25,.75 3,1.5 6,1.5 3,1.5 21,5.25 3.75,.75 3,.75 3,0 3,.75 3,0 3.75,.75 3,.75 6.75,0 3,.75 6,0 3.75,.75 18.75,0 3-.75 5.25,0 3-.75 5.25,0 3-.75 3,0 2.25-.75 3,0 2.25-.75 3-.75 2.25,0 2.25-.75 3-.75 2.25,0 6.75-2.25 3-.75 2.25,0 9-3 1.5-.75 6.75-2.25 1.5-.75 2.25-.75 1.5-.75 2.25-.75 1.5-.75 2.25-1.5 6-3 2.25-.75 2.25-2.25 3-1.5 1.5-1.5 3-1.5 .75-.75 1.5-.75 .75-1.5 .75-.75 1.5-.75 .75-1.5 .75-.75 1.5-.75 1.5-1.5 .75-1.5 .75-.75 0-.75 2.25-2.25 0-.75 .75-1.5 .75-.75 0-2.25 .75,0 0-3 .75-.75 0-1.5 .75-1.5 0-8.25-.75-1.5 0-3.75-.75-.75 0-1.5-.75-1.5 0-.75-.75-.75 0-1.5-.75-.75 0-.75-1.5-.75 0-.75 5.25-4.5 .75,0 0,.75 .75,.75 1.5,3 0,.75 .75,.75 0,.75 .75,1.5 0,.75 .75,.75 0,1.5 .75,.75 0,2.25 .75,1.5 0,6.75 .75,.75-.75,.75 0,7.5-.75,1.5 0,1.5-.75,.75 0,2.25-1.5,3-.75,.75-1.5,3-.75,.75-3,6-1.5,.75-1.5,1.5-.75,1.5-1.5,.75-5.25,5.25-.75,0-1.5,1.5-1.5,.75-.75,.75-.75,0-.75,1.5-1.5,0-1.5,1.5-1.5,.75-.75,.75-1.5,.75-.75,0-.75,.75-1.5,.75-.75,0-.75,.75-.75,0-.75,.75-.75,0-1.5,1.5-1.5,0-.75,.75-.75,0-.75,.75-1.5,0-.75,.75-.75,0-.75,.75-1.5,0-.75,.75-.75,0-1.5,.75-.75,0-.75,.75-1.5,0-.75,.75-.75,0-1.5,.75-1.5,0-.75,.75-.75,0-1.5,.75-.75,0-1.5,.75-1.5,0-.75,.75-2.25,0-1.5,.75-.75,0-1.5,.75-3,0-.75,.75-1.5,0-.75,.75-3,0-1.5,.75-2.25,0-1.5,.75-1.5,0-1.5,.75-3.75,0-1.5,.75-1.5,0-1.5,.75-4.5,0-1.5,.75-6,0-3,.75-9,0-3,.75-22.5,0-3-.75-8.25,0-3-.75-2.25,0-3-.75-5.25,0-2.25-.75-3,0-2.25-.75-2.25,0-3-.75-4.5-1.5-3,0-4.5-1.5-3-.75-2.25-.75-2.25,0-2.25-1.5-2.25,0-9-3-1.5-1.5-6.75-2.25-1.5-.75-4.5-1.5-1.5-.75-2.25-1.5-1.5-.75-2.25-.75-3-1.5-2.25-.75-1.5-1.5-1.5-.75-2.25-1.5-4.5-2.25-1.5-1.5-1.5-.75-.75-.75-1.5-.75-.75-1.5-.75-.75-1.5-.75-3.75-3.75-.75-1.5-5.25-5.25-.75-1.5-1.5-1.5-3-6-.75-.75-1.5-3 0-1.5-.75-1.5-.75-2.25 0-3.75-.75-1.5 0-6.75 .75-1.5 0-3 .75-1.5 0-1.5 .75-1.5 0-1.5 2.25-4.5 1.5-.75 0-1.5 1.5-1.5 2.25-4.5 1.5-1.5 1.5-.75 .75-1.5 5.25-5.25 2.25-.75 3-3 1.5-.75 2.25-1.5 1.5-.75 2.25-1.5 1.5-.75 2.25-.75 2.25-1.5 15.75-5.25 3-.75 2.25-.75 3,0z"/>
<path fill="#ffcb05" d="m180.75,207.75 1.5,2.25 1.5,3.75 3.75,.75 106.5-57.75 105-60.75 0-10.5-8.25-2.25z"/>
<path fill="#010101" d="m240.75,144 .75,.75 .75,0 .75,.75 1.5,0 .75,.75 .75,0 .75,.75 .75,0 .75,.75 1.5,.75 .75,0 1.5,1.5 .75,0 1.5,.75 .75,1.5 1.5,0 .75,.75 1.5,.75 .75,1.5 1.5,.75 .75,.75 1.5,.75 .75,1.5 6-3 0-.75-1.5-1.5-1.5-.75-4.5-4.5-1.5-.75-1.5-1.5-3-1.5-.75-.75-3-1.5-.75-.75-.75,0-.75-.75-.75,0-.75-.75-.75,0-.75-.75-.75,0-.75-.75-.75,0-.75-.75-1.5,0-.75-.75-1.5,0-.75-.75z"/>
<path fill="#ffcb05" d="m147.75,185.25 129-182.25 10.5,3 .75,7.5-130.5,177.75-1.5-.75-3.75-2.25z"/>
</g>
<g fill="#010101">
<path d="m24,182.25-.75-.75 0-.75-.75-1.5 0-4.5 .75-1.5 0-1.5 .75-.75 0-.75 .75-.75 0-.75 1.5-1.5 .75-1.5 1.5-.75 1.5-1.5 1.5-.75 .75-1.5 .75-.75 3-1.5 .75-.75 1.5-.75 1.5-.75 .75,0 .75-.75 3-1.5 .75,0 1.5-.75 .75,0 1.5-.75 .75,0 .75-.75 .75,0 1.5-.75 1.5,0 0-.75 1.5,0 .75-.75 1.5,0 0-1.5-.75-.75 0-3.75 .75-1.5 0-2.25 1.5-1.5 .75-1.5 .75-.75 .75-1.5 0-.75 .75-1.5 0-7.5 .75-.75 0-2.25 1.5-1.5 .75-1.5 0-.75 .75-.75 .75,0 .75-.75 1.5-.75 1.5,0 .75-.75 18.75,0 1.5-.75 2.25,0 1.5-.75 2.25,0 1.5-.75 1.5,0 1.5-.75 1.5,0 0-1.5 .75-.75 0-1.5 .75-1.5 0-.75 .75-.75 0-.75-1.5,0-1.5,.75-.75,0-1.5,.75-2.25,0-.75,.75-3,0-.75,.75-5.25,0-.75,.75-18.75,0-3,1.5-1.5,0-.75,.75-1.5,.75-3.75,3.75 0,.75-.75,.75 0,.75-.75,.75 0,2.25-.75,.75 0,8.25-.75,1.5 0,.75-.75,.75 0,.75-.75,.75 0,.75-1.5,1.5 0,1.5-.75,.75 0,.75-.75,.75 0,5.25-2.25,0-.75,.75-1.5,0-.75,.75-.75,0-.75,.75-1.5,0-.75,.75-.75,0-.75,.75-1.5,0-.75,.75-.75,0-1.5,1.5-.75,0-.75,.75-1.5,.75-.75,.75-1.5,0-3,3-.75,0-6,6-.75,1.5-.75,.75-.75,1.5-.75,.75-.75,1.5-.75,.75 0,.75-.75,1.5 0,8.25 .75,1.5 0,1.5 .75,1.5 .75,.75 0,.75 .75,.75 0,.75z"/>
<path d="m106.5,118.5 0-1.5 .75-.75 0-2.25 1.5-3 0-1.5 .75-.75 0-.75 .75-.75 0-.75 1.5-1.5 .75-2.25 1.5-.75 2.25-2.25 .75,0 .75-.75 .75,0 .75-.75 1.5,0 .75-.75 6.75,0 .75,.75 2.25,0 .75,.75 1.5,0 3,1.5 .75,.75 1.5,.75 1.5,1.5 .75-.75 .75,0 .75-.75 1.5-.75 .75,0 2.25-.75 .75-.75 1.5-.75 .75,0 .75-.75 1.5,0 .75-.75 3,0 1.5-.75 7.5,0 1.5,.75 .75,.75 1.5,0 .75,.75 1.5,.75 .75,0 .75,1.5 .75,0 .75,1.5 .75,.75 1.5,.75 0,1.5 .75,.75 0,.75 1.5,1.5 .75,1.5 .75,.75 1.5,.75 .75,.75 .75,0 1.5,1.5 1.5,.75 .75,0 1.5,1.5 2.25,0 .75,.75 6,0 .75-.75 .75,0 2.25-6-2.25,0-.75,.75-3.75,0-1.5-.75-.75-.75-.75,0-1.5-.75-.75,0-.75-.75-1.5-.75-.75-.75-1.5-.75-.75-.75-1.5-3-3-3-.75-1.5-1.5-.75-.75-1.5-3-1.5-.75-.75-4.5-2.25-1.5,0-1.5-.75-8.25,0-1.5,.75-3,0-.75,.75-1.5,0-1.5,.75-.75,.75-1.5,0-1.5,.75-.75,0-.75,.75-.75,0-.75,.75 0,.75-.75-.75-.75,0-.75-.75-.75,0-.75-.75-1.5-.75-1.5,0-.75-.75-.75,0-.75-.75-12.75,0-1.5,.75-.75,0-1.5,.75-.75,0-1.5,.75-.75,.75-1.5,0-.75,.75-.75,1.5-5.25,5.25-.75,1.5 0,.75-.75,.75-.75,1.5 0,.75-.75,.75 0,.75-.75,1.5 0,2.25-.75,.75 0,4.5z"/>
<path d="m205.5,121.5 2.25,2.25 .75,0 1.5,1.5 .75,0 1.5,.75 2.25,2.25 1.5,0 .75,.75 .75,0 .75,.75 2.25,0 .75,.75 2.25,0 .75,.75 1.5,0 1.5,.75 .75,0 1.5,.75 .75,0 1.5,.75 .75,.75 .75,0 4.5,4.5 0,2.25 1.5,1.5 0,1.5 .75,1.5 0,5.25-.75,1.5 0,.75-1.5,1.5 0,1.5-.75,.75 0,.75-.75,1.5 0,.75 .75,.75 0,1.5 .75,.75 1.5,0 1.5,.75 7.5,0 1.5,.75 0,.75 .75,0 .75,1.5 6-3.75-.75,0-3-3-1.5-.75-.75-.75-1.5-.75-5.25,0-.75-.75 0-.75 .75-.75 .75-1.5 .75-.75 0-9.75-.75-.75 0-.75-.75-1.5 0-1.5-2.25-4.5-4.5-4.5-1.5-.75-1.5-1.5-1.5-.75-.75,0-.75-.75-2.25,0-.75-.75-2.25,0-.75-.75-1.5,0-.75-.75-2.25,0-.75-.75-.75,0-.75-.75-.75,0-1.5-.75-.75,0-.75-.75-1.5-.75-.75-.75 0-.75-1.5-.75-.75-1.5z"/>
<path d="m257.25,175.5 .75,.75 0,.75 .75,.75 0,.75 .75,.75 0,2.25 .75,1.5 0,10.5-.75,.75 0,6.75 0,.75 .75,.75 0,1.5 3,1.5 .75,.75 1.5,.75 1.5,1.5 1.5,.75 0,.75 .75,.75 1.5,3 5.25-2.25 0-1.5-.75-1.5 0-.75-1.5-1.5 0-.75-1.5-.75-.75-.75-.75-1.5-3-1.5-1.5-1.5-.75-1.5 0-.75 .75-1.5 0-4.5 .75-.75 0-4.5-.75-1.5 0-5.25-.75-.75 0-2.25-.75-.75 0-.75-1.5-1.5 0-.75z"/>
<path d="m60,204 0-.75 .75,0 2.25-2.25 .75,0 .75-.75 .75,0 .75-.75 2.25,0 .75,.75 .75,0 1.5,.75 .75,0 5.25,5.25 0,.75 .75,.75 0,1.5 .75,.75 0,.75 6-1.5 0-1.5-.75-.75 0-1.5-.75-1.5-.75-.75 0-1.5-3.75-3.75-.75-1.5-6-3-8.25,0-.75,.75-1.5,0-1.5,1.5-3,1.5-.75,1.5-1.5,1.5 0,.75-.75,.75z"/>
<path d="m91.5,160.5 0-.75-.75-.75 0-.75-.75-1.5 0-.75 3.75-3.75 9,0 .75,.75 3-5.25-.75,0-.75-.75-.75,0-.75-.75-1.5,0-.75,0-1.5-.75-5.25,0-.75,.75-.75,0-1.5,.75-1.5,0-1.5,1.5-1.5,.75-1.5,1.5-1.5,3 0,6.75 .75,1.5 0,.75 2.25,2.25z"/>
<path d="m158.25,138.75-.75-.75-3.75,0-1.5-.75-.75,.75-1.5,0-.75,.75-.75,0-.75,.75-.75,1.5-1.5,1.5 0,2.25-.75,.75 0,.75 .75,.75 0,3 .75,.75 0,.75 0,.75-6,0-.75-1.5 0-3.75-.75-1.5 0-2.25 .75-1.5 0-1.5 .75-.75 .75-1.5 .75-.75 .75-1.5 2.25-2.25 3-1.5 .75,0 1.5-.75 6,0 1.5,.75 .75,0 3,1.5 1.5,0z"/>
<path d="m142.5,228.75 .75-.75 0-.75 .75,0 .75-.75 .75,0 .75-.75 1.5,0 .75-.75 1.5,0 .75-.75 6,0 1.5,.75 1.5,0 1.5,1.5 1.5,.75 0,1.5 1.5,1.5 0,.75 .75,0 0,1.5 0,.75 .75,0 6.75-.75-.75,0 0-3-.75-.75-.75-1.5 0-.75-2.25-2.25-.75-1.5-1.5-.75-2.25-2.25-.75,0-1.5-.75-.75,0-1.5-.75-.75,0-.75-.75-8.25,0-1.5,.75-1.5,0-.75,.75-1.5,0-.75,.75-.75,0-1.5,.75 0,.75-.75,0-1.5,.75-.75,.75-1.5,.75-.75,.75 0,.75-.75,.75z"/>
<path d="m216,168.75 3.75,3.75 0,.75 1.5,1.5 .75,1.5 .75,.75 .75,1.5 0,1.5 .75,1.5 0,.75 .75,0 1.5-.75 1.5-1.5 1.5-.75 .75,0 0-.75-.75-1.5 0-.75-.75-.75 0-.75-.75-1.5-.75-.75-.75-1.5-.75-.75-1.5-3-1.5-.75-.75-1.5-1.5-.75z"/>
<path d="m181.5,209.25 210-122.25 .75,.75 .75,0 .75,1.5 .75,.75 .75,1.5 0,3-211.5,119.25 4.5,5.25 213.75-120.75 .75-.75 0-4.5-.75-1.5 0-1.5-.75-1.5 0-.75-.75-.75 0-.75-.75-.75-.75-1.5-1.5-1.5-.75-.75-.75,0-1.5-1.5-.75,0-.75-.75-.75,0-.75-.75-213.75,125.25z"/>
<path d="m12,201 0,.75 .75,.75 0,1.5 .75,1.5 .75,.75 0,1.5 .75,.75 0,.75 .75,.75 0,.75 .75,1.5 0,.75 .75,1.5 .75,.75 .75,1.5 0,.75 .75,1.5 .75,.75 1.5,3 0,1.5 .75,1.5 .75,.75 1.5,3 .75,1.5 1.5,3 1.5,.75 3.75,7.5 1.5,1.5 1.5,3 1.5,1.5 1.5,3 2.25,2.25 .75,1.5 3,3 .75,1.5 3.75,3.75 .75,1.5 1.5,.75 1.5,1.5 .75,1.5 1.5,.75 4.5,4.5 .75,0 .75,1.5 1.5,0 .75,1.5 .75,0 0,.75 1.5,.75 .75,.75 .75,0 0,.75 1.5,.75 .75,.75 .75,0 3.75,3.75 .75,0 1.5,.75 2.25,2.25 1.5,0 1.5,1.5 3,1.5 .75,.75 .75,0 .75,.75 .75,0 .75,.75 .75,0 1.5,1.5 2.25,0 1.5,1.5 2.25,0 1.5,1.5 2.25,0 .75,.75 .75,0 1.5,.75 1.5,0 1.5,.75 1.5,0 1.5,.75 1.5,0 1.5,.75 1.5,0 1.5,.75 3,0 .75,.75 5.25,0 1.5,.75 3.75,0 1.5,.75 29.25,0 1.5-.75 3,0 2.25-.75 4.5,0 1.5-.75 1.5,0 1.5-.75 3.75,0 3-1.5 3,0 4.5-2.25 2.25,0 3-1.5 1.5,0 3-1.5 2.25-.75 .75-.75 2.25-.75 .75-.75 2.25-.75 .75-.75 2.25-.75 3-1.5 1.5-1.5 6-3 1.5-1.5 1.5-.75 3.75-3.75 1.5-.75 3-3 1.5-.75 .75-1.5 4.5-4.5 .75-1.5 3.75-3.75 1.5-2.25 .75-1.5 1.5-1.5 .75-1.5 1.5-1.5 1.5-3 1.5-1.5 .75-1.5 .75-.75 3-6 .75-.75 2.25-4.5 .75-.75 .75-1.5 0-.75 .75-1.5 1.5-1.5 0-1.5 .75-1.5 1.5-1.5 0-.75 .75-1.5 0-.75 .75-.75 0-.75 .75-1.5 0-1.5 .75-.75 0-1.5 .75-.75 0-1.5 .75-.75 0-1.5 .75-.75 0-2.25 .75-.75 0-.75 11.25-9.75 0,.75-.75,.75 0,1.5-.75,.75 0,1.5-.75,1.5 0,.75-.75,1.5-.75,.75 0,1.5-.75,1.5 0,1.5-2.25,4.5 0,1.5-.75,2.25-1.5,3-.75,2.25-.75,1.5-1.5,4.5-1.5,1.5-1.5,4.5-.75,1.5-1.5,2.25-.75,2.25-1.5,2.25-1.5,1.5-.75,2.25-1.5,2.25-.75,2.25-1.5,2.25-1.5,1.5-4.5,6.75-3.75,3.75-3,4.5-2.25,1.5-1.5,2.25-3.75,3.75-2.25,1.5-1.5,2.25-2.25,2.25-6.75,4.5-2.25,2.25-2.25,.75-2.25,1.5-3,1.5-2.25,1.5-1.5,1.5-6.75,2.25-1.5,.75-4.5,1.5-2.25,1.5-2.25,0-2.25,.75-1.5,.75-4.5,1.5-2.25,0-2.25,.75-1.5,.75-2.25,0-2.25,.75-2.25,0-2.25,.75-2.25,0-2.25,.75-6,0-2.25,.75-24.75,0-2.25-.75-6,0-2.25-.75-1.5,0-2.25-.75-3.75,0-1.5-.75-2.25,0-1.5-.75-1.5,0-1.5-.75-2.25,0-1.5-.75-1.5,0-3-1.5-1.5,0-1.5-.75-1.5,0-3-1.5-1.5,0-1.5-.75-.75-.75-3-1.5-1.5,0-1.5-1.5-1.5-.75-.75-.75-7.5-3.75-3.75-3.75-3-1.5-1.5-1.5-3-1.5-.75-1.5-1.5-.75-1.5-1.5-1.5-.75-.75-1.5-1.5-.75-2.25-2.25-1.5-.75-.75-1.5-1.5-.75-.75-1.5-.75-.75-1.5-.75-.75-1.5-4.5-4.5-.75-1.5-.75-.75-.75-1.5-3.75-3.75-.75-1.5-.75-.75-.75-1.5-.75-.75-1.5-3-1.5-.75-.75-1.5-.75-.75-.75-1.5-.75-.75-1.5-3-.75-.75-2.25-4.5-.75-.75-2.25-4.5-.75-.75-.75-2.25-.75-.75 0-1.5-3.75-7.5-.75-.75-.75-1.5 0-1.5-1.5-3 0-1.5-2.25-4.5 0-2.25-.75-.75-.75-2.25 0-1.5-1.5-3 0-1.5-.75-1.5 0-1.5-.75-1.5z"/>
<path d="m96.75,302.25 0,7.5 .75,0 .75,.75 .75,0 .75,.75 .75,0 .75,.75 .75,0 1.5,.75 .75,0 1.5,.75 1.5,0 .75,.75 2.25,0 .75,.75 2.25,0 .75,.75 3,0 .75,.75 1.5,0 1.5,0 .75,.75 5.25,0 .75,.75 5.25,0 1.5,.75 23.25,0 .75-.75 5.25,0 .75-.75 5.25,0 .75-.75 3.75,0 .75-.75 2.25,0 1.5-.75 1.5,0 .75-.75 3,0 .75-.75 1.5-.75 .75,0 1.5-.75 .75,0 .75-.75 1.5,0 .75-.75 .75,0 0-9.75 7.5-2.25 0,16.5-.75,0-.75,.75-.75,0-.75,.75-.75,0-.75,.75-.75,0-3,1.5-.75,0-1.5,.75-.75,0-.75,.75-1.5,0-1.5,.75-.75,0-1.5,.75-1.5,0-.75,.75-3.75,0-.75,.75-2.25,0-1.5,.75-2.25,0-1.5,.75-3.75,0-1.5,.75-10.5,0-1.5,.75-9,0-1.5-.75-11.25,0-1.5-.75-4.5,0-1.5-.75-3.75,0-1.5-.75-2.25,0-1.5-.75-3,0-1.5-.75-.75,0-.75-.75-1.5,0-.75-.75-3,0-.75-.75-.75,0-.75-.75-1.5,0-.75-.75-1.5,0-1.5-.75-.75,0-.75-.75-1.5-.75-.75,0-.75-.75-.75,0-.75-.75 0-16.5z"/>
<path d="m13.5,204 0-.75-.75-1.5 0-3.75 .75-1.5 0-1.5 .75-1.5 0-.75 .75-1.5 .75-.75 1.5-3 1.5-1.5 .75-1.5 1.5-.75 .75-.75 1.5-.75 1.5-1.5 1.5,0 .75-.75 1.5,0 .75,0 3.75,5.25-1.5,0-1.5,.75-.75,0-.75,.75-1.5,.75-.75,0-2.25,2.25-.75,1.5-1.5,1.5-.75,1.5 0,.75-1.5,1.5 0,3.75-.75,1.5 .75,1.5 0,4.5 .75,.75 0,.75z"/>
<path d="m151.5,187.5 126.75-180 .75-.75 .75,0 1.5,.75 .75,0 1.5,.75 .75,1.5 .75,.75 0,1.5-129,178.5 6.75,3.75 130.5-181.5 0-2.25-.75-1.5-.75-.75-.75-1.5-.75-.75-.75-1.5-4.5-2.25-1.5-1.5-.75,0-.75,0-.75,0-1.5-.75-4.5,0-.75,.75-129,183z"/>
<path d="m120,111-1.5,0-.75-.75-1.5-.75-.75,0-2.25-.75-1.5-.75 4.5-6 0,.75 1.5,0 .75,.75 1.5,.75 .75,0 1.5,.75z"/>
<path d="m120,122.25-.75,0-.75-.75-2.25,0-.75-.75-1.5,0-.75-.75-.75,0-1.5-.75-1.5-1.5-.75,0 1.5-6 .75,0 0,.75 1.5,0 0,.75 .75,0 .75,.75 2.25,0 .75,.75 1.5,.75 .75,0z"/>
<path d="m63.75,134.25 6.75,0 1.5,.75-2.25,6-1.5,0-1.5-.75-6,0z"/>
<path d="m69.75,151.5 0-.75-3.75,0-.75-.75-3,0-.75-.75-.75,0-1.5-.75 0-5.25 1.5,0 1.5,.75 3.75,0 .75,.75 2.25,0z"/>
<path d="m57,152.25 3.75,0 1.5,.75 .75,.75 1.5,0 .75,.75-6,3.75-.75-.75-.75,0-.75-.75-1.5,0-.75-.75-.75,0-1.5-.75-3,0z"/>
<path d="m45,156.75 3.75,0 .75,.75 1.5,0 1.5,1.5 .75,0 .75,.75 1.5,0-6.75,3.75-.75,0-.75-.75-1.5-.75-1.5,0-.75-.75-.75,0-1.5-.75-3,0z"/>
<path d="m33.75,162.75 1.5,0 1.5,.75 2.25,0 .75,.75 1.5,0 .75,.75 3,1.5-5.25,4.5-.75,0 0-.75-.75,0-1.5-.75-.75,0-.75-.75-1.5,0-1.5-.75-.75,0-1.5-.75-1.5,0z"/>
<path d="m35.25,180.75-.75,0-1.5-.75-.75,0-1.5-.75-.75,0-1.5-1.5-1.5,0-.75-.75-1.5-.75-.75,0 2.25-6 .75,0 1.5,.75 .75,.75 1.5,0 .75,.75 1.5,.75 .75,0 .75,.75 1.5,0 1.5,.75z"/>
<path d="m72.75,131.25-5.25,0-.75-.75-2.25,0 0-6 1.5,0 .75,.75 5.25,0z"/>
<path d="m29.25,213 0-.75-.75,0-.75-.75-1.5-.75-.75,0-.75-.75 0-.75-1.5-1.5-.75,0-.75-1.5-.75,0 0-7.5 3,3 1.5,.75 .75,.75 .75,0 1.5,.75 .75,.75z"/>
<path d="m30,200.25-.75-.75-.75,0-1.5-1.5-1.5-.75-.75-.75-.75,0-1.5-1.5 4.5-5.25 1.5,1.5 .75,0 1.5,.75 1.5,1.5 .75,0 .75,.75z"/>
<path d="m52.5,245.25-3.75,0-1.5-.75-.75,0-1.5-.75-1.5,0-1.5-.75-1.5,0-6-3-6.75-12 0,.75 1.5,.75 .75,0 1.5,1.5 4.5,2.25 .75,0 .75,.75 .75,0 1.5,.75 .75,.75 .75,0 .75,.75 1.5,0 .75,.75 1.5,.75 1.5,0 .75,.75z"/>
<path d="m80.25,286.5 9,0 .75-.75 15,10.5-2.25,0-.75-.75-2.25,0-1.5-.75-2.25,0-3-1.5-1.5,0-1.5-.75-.75-.75-3-1.5-.75-.75-.75,0-1.5-.75-.75-.75-.75,0z"/>
<path d="m63,258.75-6,0-1.5-.75-3,0-1.5-.75-1.5,0-1.5-.75-1.5,0-.75-.75-6.75-9 .75,.75 1.5,0 .75,.75 .75,0 1.5,.75 3,0 .75,0 .75,.75 2.25,0 1.5,.75 3,0 1.5,.75z"/>
<path d="m75,271.5-12.75,0-1.5-.75-.75,0-9-9 .75,.75 2.25,0 .75,.75 4.5,0 .75,.75 .75,0 6.75,0z"/>
<path d="m86.25,282-2.25,0-.75,.75-9,0-8.25-6.75 9.75,0 1.5,0 1.5,0z"/>
</g>
</g>
</svg>
