<svg xmlns="http://www.w3.org/2000/svg" viewBox="0 0 64 64">
<g transform="translate(0 -988.36)">
<path fill-opacity=".196" d="m42,1045.4 19-15-20-13h-10l20,13-20,15h11z"/>
</g>
<g transform="translate(0 -987.36)">
<path fill="#808080" d="m11,41 20-13 20,13-20,15-20-15z" transform="translate(0 988.36)"/>
<path fill="#ffc8c8" d="m51,1029.4v-10l-20-14v11l20,13z"/>
</g>
<g fill="#f77462" transform="translate(0 -987.36)">
<path d="m31,1016.4v-11l-20,14v10l20-13z"/>
<path d="m11,1019.4v10l20,15v-11l-20-14z"/>
</g>
<g transform="translate(0 -987.36)">
<path fill="#c4283c" d="m31,1033.4v11l20-15v-10l-20,14z"/>
</g>
<g transform="translate(0 -988.36)">
<path fill="#2ea99c" d="m10,23 21-14v10l-21,14v-10z" transform="translate(0 988.36)"/>
</g>
<g fill="#6dc5dd" transform="translate(0 -988.36)">
<path d="m10,1011.4v10l21,15v-10l-21-15z"/>
<path d="m31,9v10l21,14v-10l-21-14z" transform="translate(0 988.36)"/>
</g>
<g transform="translate(0 -988.36)">
<path fill="#2ea99c" d="m31,1026.4v10l21-15v-10l-21,15z"/>
</g>
<g transform="translate(0 -988.36)">
<path fill="#f9d97b" d="m10,1011.4 21,15 21-15-21-14-21,14z"/>
</g>
</svg>
