<svg xmlns="http://www.w3.org/2000/svg" viewBox="0 0 748.44 822.02" xmlns:xlink="http://www.w3.org/1999/xlink">
<defs>
<filter id="filter8554">
<feGaussianBlur stdDeviation="2.42247"/>
</filter>
<filter id="filter3361">
<feGaussianBlur stdDeviation="6.05465"/>
</filter>
<filter width="1.102" x="-.051" y="-.183" height="1.366" id="filter3379">
<feGaussianBlur stdDeviation="4.84058"/>
</filter>
<filter id="filter3586">
<feGaussianBlur stdDeviation="6.06146"/>
</filter>
<filter id="filter3572">
<feGaussianBlur stdDeviation="12.21247"/>
</filter>
<filter id="filter8598">
<feGaussianBlur stdDeviation="2.73455"/>
</filter>
<filter id="filter3610">
<feGaussianBlur stdDeviation="4.84314"/>
</filter>
<filter width="1.241" x="-.121" y="-.167" height="1.333" id="filter7524">
<feGaussianBlur stdDeviation="27.52824"/>
</filter>
<filter id="filter7618">
<feGaussianBlur stdDeviation="5.96504"/>
</filter>
<filter id="filter8546">
<feGaussianBlur stdDeviation="5.03881"/>
</filter>
<filter id="filter3437">
<feGaussianBlur stdDeviation="3.04518"/>
</filter>
<filter width="1.113" x="-.057" y="-.206" height="1.412" id="filter7726">
<feGaussianBlur stdDeviation="7.49549"/>
</filter>
<filter id="filter7546">
<feGaussianBlur stdDeviation="5.29878"/>
</filter>
<linearGradient id="linearGradient8558">
<stop offset="0" stop-color="#a05a2c"/>
<stop offset=".5" stop-color="#f5611f" stop-opacity=".753"/>
<stop offset="1" stop-color="#e28100" stop-opacity=".825"/>
<stop offset="1" stop-color="#a05a2c" stop-opacity="0"/>
</linearGradient>
<linearGradient gradientTransform="matrix(1 0 0 1.1087 -38 -115.98)" spreadMethod="reflect" id="linearGradient7494" xlink:href="#linearGradient7480" y1="201.47" x1="200" y2="199.88" gradientUnits="userSpaceOnUse" x2="378.12"/>
<linearGradient id="linearGradient7566">
<stop offset="0" stop-color="#d45500"/>
<stop offset="1" stop-color="#d45500" stop-opacity="0"/>
</linearGradient>
<linearGradient id="linearGradient7480">
<stop offset="0" stop-color="#c87137"/>
<stop offset=".5" stop-color="#fae576" stop-opacity=".814"/>
<stop offset="1" stop-color="#f2ab1a" stop-opacity=".608"/>
<stop offset="1" stop-color="#c87137" stop-opacity="0"/>
</linearGradient>
<linearGradient id="linearGradient8578">
<stop offset="0" stop-color="#a05a2c"/>
<stop offset=".348" stop-color="#fffa5f" stop-opacity=".763"/>
<stop offset="1" stop-color="#f5611f" stop-opacity=".753"/>
<stop offset="1" stop-color="#a05a2c" stop-opacity="0"/>
</linearGradient>
<linearGradient id="linearGradient7464">
<stop offset="0" stop-color="#ffd42a"/>
<stop offset="1" stop-color="#ffee7e" stop-opacity="0"/>
</linearGradient>
<linearGradient gradientTransform="translate(17.395 21.744)" id="linearGradient7628" xlink:href="#linearGradient7480" y1="432.07" x1="594.44" y2="534.27" gradientUnits="userSpaceOnUse" x2="664.52"/>
<linearGradient id="linearGradient3457">
<stop offset="0" stop-color="#fd5"/>
<stop offset="1" stop-color="#fd5" stop-opacity="0"/>
</linearGradient>
<linearGradient id="linearGradient7572" xlink:href="#linearGradient7566" y1="432.07" x1="594.44" y2="534.27" gradientUnits="userSpaceOnUse" x2="664.52"/>
<linearGradient gradientTransform="translate(-2 -190)" spreadMethod="reflect" id="linearGradient7498" xlink:href="#linearGradient7480" y1="170.02" x1="206.81" y2="255.19" gradientUnits="userSpaceOnUse" x2="334.8"/>
<linearGradient id="linearGradient7478" xlink:href="#linearGradient7464" y1="382.46" x1="538.52" y2="630.46" gradientUnits="userSpaceOnUse" x2="742.8"/>
<linearGradient gradientTransform="translate(19.569 126.11)" spreadMethod="reflect" id="linearGradient7514" xlink:href="#linearGradient7480" y1="283.58" x1="132.51" y2="176.54" gradientUnits="userSpaceOnUse" x2="397.03"/>
<linearGradient gradientTransform="matrix(.79875 -.60167 .60167 .79875 258.14 540.52)" spreadMethod="reflect" id="linearGradient7506" xlink:href="#linearGradient7480" y1="241.31" x1="281.69" y2="313.65" gradientUnits="userSpaceOnUse" x2="-29.581"/>
<linearGradient gradientTransform="matrix(.79875 -.60167 .60167 .79875 108.61 476.43)" spreadMethod="reflect" id="linearGradient7502" xlink:href="#linearGradient7480" y1="241.31" x1="281.69" y2="313.65" gradientUnits="userSpaceOnUse" x2="-29.581"/>
<linearGradient gradientTransform="translate(17.395 21.744)" id="linearGradient7624" xlink:href="#linearGradient7566" y1="432.07" x1="594.44" y2="534.27" gradientUnits="userSpaceOnUse" x2="664.52"/>
<linearGradient spreadMethod="reflect" id="linearGradient8564" xlink:href="#linearGradient8558" y1="92.357" x1="154.4" y2="109.96" gradientUnits="userSpaceOnUse" x2="312"/>
<linearGradient id="linearGradient3628" y1="317.9" y2="257.01" x1="105.17" gradientUnits="userSpaceOnUse" x2="500.92">
<stop offset="0" stop-color="#c87137"/>
<stop offset="1" stop-color="#c87137" stop-opacity="0"/>
</linearGradient>
<linearGradient spreadMethod="repeat" id="linearGradient8576" xlink:href="#linearGradient8578" x1="93.001" gradientUnits="userSpaceOnUse" x2="290.51"/>
<linearGradient gradientTransform="translate(-301.66 -293.36)" id="linearGradient3522" xlink:href="#linearGradient3457" y1="509.92" x1="472.73" y2="489.17" gradientUnits="userSpaceOnUse" x2="538.58"/>
<linearGradient spreadMethod="reflect" id="linearGradient7486" xlink:href="#linearGradient7480" y1="227.05" x1="210.79" y2="124.36" gradientUnits="userSpaceOnUse" x2="464.44"/>
<linearGradient spreadMethod="repeat" id="linearGradient3405" xlink:href="#linearGradient8578" y1="153.24" x1="36.046" y2="109.96" gradientUnits="userSpaceOnUse" x2="290.51"/>
<linearGradient gradientTransform="matrix(.79875 -.60167 .60167 .79875 108.61 476.43)" spreadMethod="reflect" id="linearGradient3473" xlink:href="#linearGradient7480" y1="295.74" x1="480.8" y2="295.47" gradientUnits="userSpaceOnUse" x2="258.52"/>
<linearGradient gradientTransform="translate(50.583 -245.35)" spreadMethod="reflect" id="linearGradient3526" xlink:href="#linearGradient7480" y1="170.02" x1="206.81" y2="271.79" gradientUnits="userSpaceOnUse" x2="236.17"/>
<linearGradient spreadMethod="repeat" id="linearGradient3504" xlink:href="#linearGradient8578" y1="147.31" x1="149.85" y2="115.73" gradientUnits="userSpaceOnUse" x2="270.04"/>
<linearGradient gradientTransform="matrix(.77285 -.63459 .63459 .77285 263.27 561.05)" spreadMethod="reflect" id="linearGradient3385" xlink:href="#linearGradient7480" y1="237.43" x1="161.75" y2="124.36" gradientUnits="userSpaceOnUse" x2="464.44"/>
<linearGradient gradientTransform="matrix(.77285 -.63459 .63459 .77285 431.54 602.56)" spreadMethod="reflect" id="linearGradient3401" xlink:href="#linearGradient7480" y1="240.47" x1="139.29" y2="200.04" gradientUnits="userSpaceOnUse" x2="294.94"/>
<linearGradient id="linearGradient3560" y1="541.45" y2="212.12" x1="300.72" gradientUnits="userSpaceOnUse" x2="637.06">
<stop offset="0" stop-color="#c87137"/>
<stop offset="1" stop-color="#c87137" stop-opacity="0"/>
</linearGradient>
<linearGradient gradientTransform="translate(-174.35 -74.723)" id="linearGradient3552" xlink:href="#linearGradient3457" y1="551.43" x1="481.03" y2="468.4" gradientUnits="userSpaceOnUse" x2="686.16"/>
<linearGradient gradientTransform="translate(199.61 123.29)" id="linearGradient3481" xlink:href="#linearGradient3457" x1="472.73" gradientUnits="userSpaceOnUse" x2="686.16"/>
<linearGradient gradientTransform="translate(121.33 84.148)" id="linearGradient3477" xlink:href="#linearGradient3457" x1="472.73" gradientUnits="userSpaceOnUse" x2="686.16"/>
<linearGradient spreadMethod="repeat" id="linearGradient8572" xlink:href="#linearGradient8558" y1="81.153" x1="157.52" y2="55.544" gradientUnits="userSpaceOnUse" x2="395.89"/>
<linearGradient id="linearGradient7474" xlink:href="#linearGradient7464" y1="458.46" x1="692.52" y2="530.46" gradientUnits="userSpaceOnUse" x2="606.8"/>
<linearGradient gradientTransform="matrix(.77285 -.63459 .63459 .77285 104.23 505.7)" spreadMethod="reflect" id="linearGradient3317" xlink:href="#linearGradient7480" y1="237.43" x1="161.75" y2="124.36" gradientUnits="userSpaceOnUse" x2="464.44"/>
<linearGradient gradientTransform="translate(-301.66 -293.36)" id="linearGradient3514" xlink:href="#linearGradient3457" x1="472.73" gradientUnits="userSpaceOnUse" x2="686.16"/>
<linearGradient gradientTransform="matrix(.77285 -.63459 .63459 .77285 543.62 610.86)" spreadMethod="reflect" id="linearGradient3510" xlink:href="#linearGradient7480" y1="240.47" x1="139.29" y2="200.04" gradientUnits="userSpaceOnUse" x2="294.94"/>
<linearGradient id="linearGradient3471" x1="273.7" gradientUnits="userSpaceOnUse" x2="683.91">
<stop offset="0" stop-color="#ff7f2a"/>
<stop offset="1" stop-color="#ff7f2a" stop-opacity="0"/>
</linearGradient>
<linearGradient gradientTransform="matrix(.79875 -.60167 .60167 .79875 410.73 589.35)" spreadMethod="reflect" id="linearGradient7510" xlink:href="#linearGradient7480" y1="241.31" x1="281.69" y2="313.65" gradientUnits="userSpaceOnUse" x2="-29.581"/>
<linearGradient id="linearGradient3463" xlink:href="#linearGradient3457" x1="472.73" gradientUnits="userSpaceOnUse" x2="686.16"/>
</defs>
<g fill-rule="evenodd" transform="translate(-80.359 74.874)">
<path fill="url(#linearGradient7478)" d="m96.457,59.055l-1.969,90.555v86.61l-1.968,114.17 86.87,185.04 96.2,100.4 248.03,86.61s49.21,23.62 153.55,15.75l104.33-7.88s49.21-28.54 47.24-70.86-55.12-98.43-55.12-98.43l-90.55-139.76-51.27-108.27-134.05-116.14-121.77-70.87c-45-30.328-66.92-80.704-66.92-80.704s-31.5-123.52-84.65-120.08c-53.15,3.446-127.95,133.86-127.95,133.86z"/>
<path opacity=".806" fill="#fea" d="m96.457,59.055l-1.969,90.555v86.61l-1.968,114.17 84.87,185.04 98.2,100.4 248.03,86.61s53.57,46.59 153.55,15.75c95.45-29.44 104.33-7.88 104.33-7.88s49.21-28.54 47.24-70.86-55.12-98.43-55.12-98.43l-90.55-139.76-55.27-108.27-136.05-116.14-115.77-70.87c-45-30.328-66.92-80.704-66.92-80.704s-31.5-123.52-84.65-120.08c-53.15,3.446-127.95,133.86-127.95,133.86z"/>
<path opacity=".744" fill="url(#linearGradient7474)" d="m96.457,59.055l-1.969,90.555v86.61l-1.968,114.17 58.15,155.69 124.92,129.75 248.03,86.61s52.16,35.32 153.55,9.47c100.52-25.63 97.83-26.01 97.83-26.01s40.46-10.41 53.74-46.45c-1.97-42.32-55.12-98.43-55.12-98.43l-90.55-139.76-55.27-108.27-132.05-116.14-119.77-70.87c-49.9-35.22-66.92-80.704-66.92-80.704s-31.5-123.52-84.65-120.08c-53.15,3.446-127.95,133.86-127.95,133.86z"/>
<path opacity=".733" fill="url(#linearGradient7486)" color="#000" d="m94.488,370.08s-84.646-61.02 185.04-102.36c269.68-41.34 320.86-37.41 320.86-37.41s58.06-47.33 35.44,17.72c-15.75,45.28-63,74.8-63,74.8s-119.48,36.56-187,125.99c-72.84,96.46-117.09,179.7-117.09,179.7s-86.26-77.48-126.08-139.34c-14.15-65.66-48.172-119.1-48.172-119.1z"/>
<path opacity=".733" fill="url(#linearGradient7506)" d="m449.17,690.08s19.69-70.5 75.9-155.76c61.99-65.84 92.17-61.97 92.17-61.97s29.44-9.72 82.1-23.49c29.38,43.82 54.76,86.65 54.76,86.65s-49.38,12.32-89.08,57.51c-79.32,90.25-85.03,142.14-85.03,142.14s-58.13-16-76.38-21.78c-26.26-8.31-54.44-23.3-54.44-23.3z"/>
<path opacity=".733" fill="url(#linearGradient7510)" d="m576.79,734.79s38.55-54.17 94.76-139.43c43.68-35.33 68.89-45.76 86.46-54.95 29.38,43.82 33.92,44.24 33.92,44.24s-30.13,7.46-41.47,44.99c-16.67,55.2-33.32,103.7-48.49,103.26-26.6-.77-125.18,1.89-125.18,1.89z"/>
<path opacity=".633" fill="url(#linearGradient7514)" filter="url(#filter7524)" d="m80.359,333.77s45.691-28.45 154.94-60.55c89.13-15.3 195.38-38.5 195.38-38.5s129.13,8.43 197.16-.77c-26.4,83.36-174.16,128.57-174.16,128.57s-34.05,32.02-73.61,80.12c-63.14,76.77-115.71,187.66-115.71,187.66s-123.75-135.35-131.28-162.39c-8.15-29.23-52.721-134.14-52.721-134.14z"/>
</g>
<g transform="translate(-80.359 74.874)">
<path fill="none" filter="url(#filter7546)" stroke="url(#linearGradient7572)" stroke-linejoin="round" stroke-linecap="round" stroke-width="9.149" d="m474.01,576.67s5.44-48.38 58.71-86.98c53.27-38.59 154.38-67.4 154.38-67.4" transform="matrix(1.2188 0 0 1.5414 -156.37 -222.59)"/>
</g>
<g fill-rule="evenodd" transform="translate(-80.359 74.874)">
<path opacity=".733" fill="url(#linearGradient3473)" stroke="url(#linearGradient3471)" stroke-width=".937" d="m273.7,633.62s39.52-84.22 95.73-169.48c61.99-65.85 142.53-118.44 142.53-118.44s43.86-14.29 113.3-40.27c29.38,43.82 58.65,120.22 58.65,120.22s-128.72,58.1-168.43,103.28c-79.31,90.25-74.34,165.03-74.34,165.03s-73.39-28.21-91.64-33.98c-26.26-8.32-75.8-26.36-75.8-26.36z"/>
<g opacity=".661" fill="#fff" transform="matrix(1.0396 -.60024 .56193 1.1105 58.698 404.33)">
<path opacity=".994" filter="url(#filter8554)" d="m106.52,154.76c5.21-4.14 8.37,.85 9.15,5.65 3.07,6.54 54.62-82.075 58.36-75.901 4.64-7.264-45.32,78.511-45.06,70.441 .36-6.75 3.4-17.01 9.69-19.37 2.61-.31 10.14,5.06 3.85,4.86-3.78-6.41-11.66-12.99-18.84-7.48-5.2,1.38-15.65,8.22-17.98,.68 1.71-6.92 13.52-7.73 11.96-15.99-4.01-4.07-3.08-8.21 2.91-6.54 7.45-.68 15.41,4.41 16.11,12.22 2.71,7.56 4.56,15.45 8.13,22.69 4.16-6.27-.38-13.83 1.15-20.52 4.3,1.5 10.59,6.8 16.73,4.93 4.39-3.62 14.29-5.3 15.59,1.52-8.08,1.39-10.18-9.76-15.76-13.65-3.66-5.81-8.61-11.04-12.78-16.44-1.44-9.575 11.9-5.984 12.68,1.25 4.7,7.27 103.6,41.35 108.72,48.32 .01-5.92-101.98-37.68-99.09-43.54 7.81,3.48 16.89,8.47 18.16,17.82 1.52,6.46 1.81,13.36 5.09,19.28 .14-6.7 80.49-8.87 89.88-10.47 5.92-4.75 23.03,1.06 23.48,8.39 2.86-3.89-99.48-20.59-101.7-25.32 2.3-6.89 17.46-7.78 19.74-11.84-9.81-1.31-19.78,.16-29.57-1.43-3.89-7.347 3.65-15.333-.08-22.97 2.43-8.962 8.26,1.02 10.17,4.84 3.85,8.219 12.2,10.049 20.26,10.535 7.7,1.427 15.97,50.715 23.04,54.025 6.3,.76 10.81-42.98 15.86-39.11 4.64,2.79 9.33,7.11 14.9,7.17-3.96-4.21-11.44-7-16.69-10.74-8.36-5.03-16.63-10.3-24.04-16.674 3.15-6.47 12.67-4.956 18.23-7.717 8.59,.687 15.57,6.384 23.32,9.55 5.45,2.504 14.4,8.631 17.15,9.771-6.07-7.431-10.89-15.804-14.98-24.467-2.68-6.993 11.32-9.035 11.27-9.996-7,.223-15.48-1.381-20.72-5.963-3.37-4.861-9.68-3.192-9.9,2.76-4.04,5.884-16.43,2.737-15.46,12.804-.28,2.937 2.08,70.632 1.2,70.312 1.16-9.69 .21-79.373-.43-89.171-7.33,1.93-13.92,6.769-20.56,9.797-5.39,6.089-4.75,14.729-6.12,22.24-4.06,.939-2.93-9.178-4.63-12.562-1.81-7.142-4.63-14.582-2.44-21.985-.25-7.584-8.33-2.373-7.73,2.872-.53,5.481-5.53,9.919-10,4.764-5.98-1.856-9.86,7.055-15.34,1.146-3.71-2.907-15.8-8.269-11.62,1.072 3.38,7.455 7.25,14.682 9.91,22.454 3.29,6.15-4.31,6.465-6.72,2.047-6.3-3.968-4.98-29.761-11.81-32.306-8.14,1.836-11.87,8.513-19.14,12.671-6,5.704-5.84,33.061-12.33,38.211-3.52,3.48-10.95-72.326-9.51-77.253 1.3-8.664-63.542,38.791-63.753,29.951-5.773-6.136 60.873,20.648 56.833,23.474-7.42-1.365-50.308-4.362-11.39,12.08 2.16,8.028-79.026,41.848-77.309,49.918-1.127,9.06 78.539-9.12 79.049-.23 1.33,2.87-7.212,8.56-3.39,7.83 .58-.6 1.1-1.26 1.58-1.95" transform="matrix(.70058 -.24759 .42552 .68016 51.17 201.38)"/>
<path opacity=".994" filter="url(#filter8554)" d="m106.52,154.76c5.21-4.14 8.37,.85 9.15,5.65 3.07,6.54 54.62-82.075 58.36-75.901 4.64-7.264-45.32,78.511-45.06,70.441 .36-6.75 3.4-17.01 9.69-19.37 2.61-.31 10.14,5.06 3.85,4.86-3.78-6.41-11.66-12.99-18.84-7.48-5.2,1.38-15.65,8.22-17.98,.68 1.71-6.92 13.52-7.73 11.96-15.99-4.01-4.07-3.08-8.21 2.91-6.54 7.45-.68 15.41,4.41 16.11,12.22 2.71,7.56 4.56,15.45 8.13,22.69 4.16-6.27-.38-13.83 1.15-20.52 4.3,1.5 10.59,6.8 16.73,4.93 4.39-3.62 14.29-5.3 15.59,1.52-8.08,1.39-10.18-9.76-15.76-13.65-3.66-5.81-8.61-11.04-12.78-16.44-1.44-9.575 11.9-5.984 12.68,1.25 4.7,7.27 103.6,41.35 108.72,48.32 .01-5.92-101.98-37.68-99.09-43.54 7.81,3.48 16.89,8.47 18.16,17.82 1.52,6.46 1.81,13.36 5.09,19.28 .14-6.7 80.49-8.87 89.88-10.47 5.92-4.75 23.03,1.06 23.48,8.39 2.86-3.89-99.48-20.59-101.7-25.32 2.3-6.89 17.46-7.78 19.74-11.84-9.81-1.31-19.78,.16-29.57-1.43-3.89-7.347 3.65-15.333-.08-22.97 2.43-8.962 8.26,1.02 10.17,4.84 3.85,8.219 12.2,10.049 20.26,10.535 7.7,1.427 15.97,50.715 23.04,54.025 6.3,.76 10.81-42.98 15.86-39.11 4.64,2.79 9.33,7.11 14.9,7.17-3.96-4.21-11.44-7-16.69-10.74-8.36-5.03-16.63-10.3-24.04-16.674 3.15-6.47 12.67-4.956 18.23-7.717 8.59,.687 15.57,6.384 23.32,9.55 5.45,2.504 14.4,8.631 17.15,9.771-6.07-7.431-10.89-15.804-14.98-24.467-2.68-6.993 11.32-9.035 11.27-9.996-7,.223-15.48-1.381-20.72-5.963-3.37-4.861-9.68-3.192-9.9,2.76-4.04,5.884-16.43,2.737-15.46,12.804-.28,2.937 2.08,70.632 1.2,70.312 1.16-9.69 .21-79.373-.43-89.171-7.33,1.93-13.92,6.769-20.56,9.797-5.39,6.089-4.75,14.729-6.12,22.24-4.06,.939-2.93-9.178-4.63-12.562-1.81-7.142-4.63-14.582-2.44-21.985-.25-7.584-8.33-2.373-7.73,2.872-.53,5.481-5.53,9.919-10,4.764-5.98-1.856-9.86,7.055-15.34,1.146-3.71-2.907-15.8-8.269-11.62,1.072 3.38,7.455 7.25,14.682 9.91,22.454 3.29,6.15-4.31,6.465-6.72,2.047-6.3-3.968-4.98-29.761-11.81-32.306-8.14,1.836-11.87,8.513-19.14,12.671-6,5.704-5.84,33.061-12.33,38.211-3.52,3.48-10.95-72.326-9.51-77.253 1.3-8.664-63.542,38.791-63.753,29.951-5.773-6.136 60.873,20.648 56.833,23.474-7.42-1.365-50.308-4.362-11.39,12.08 2.16,8.028-79.026,41.848-77.309,49.918-1.127,9.06 78.539-9.12 79.049-.23 1.33,2.87-7.212,8.56-3.39,7.83 .58-.6 1.1-1.26 1.58-1.95" transform="matrix(.70486 .16262 -.08222 .55191 245.44 117.41)"/>
</g>
</g>
<g fill="none" stroke-linejoin="round" stroke-linecap="round">
<g transform="translate(-80.359 74.874)">
<path filter="url(#filter7618)" stroke="#bf2b00" stroke-width="6.475" d="m465.18,614.25s59.73-91.74 113-130.34c53.27-38.59 142.54-33.33 142.54-33.33" transform="matrix(1.0079 -.1715 .15873 1.089 -101.39 85.509)"/>
</g>
<g stroke-width="9.149" transform="translate(-80.359 74.874)">
<path filter="url(#filter7618)" stroke="url(#linearGradient7624)" d="m491.41,598.41s5.43-48.38 58.7-86.97c53.27-38.6 148.82-62.89 148.82-62.89" transform="matrix(1.0079 -.1715 .15873 1.089 -17.891 168.13)"/>
<path filter="url(#filter7618)" stroke="url(#linearGradient7628)" d="m491.41,598.41s5.43-48.38 58.7-86.97c53.27-38.6 154.38-67.41 154.38-67.41" transform="matrix(.89763 -.41593 .48255 .66699 -107.66 528.82)"/>
<path filter="url(#filter7726)" stroke="url(#linearGradient7572)" d="m474.01,576.67s5.44-48.38 58.71-86.98c53.27-38.59 141.16-65.79 141.16-65.79" transform="matrix(.96785 .2893 -.59955 .94936 -14.319 -460.87)"/>
</g>
<g transform="translate(-80.359 74.874)">
<path filter="url(#filter7618)" stroke="#bf2b00" stroke-width="6.475" d="m520.66,528.82s17.9-31.29 78.72-58.91c69.92-31.75 116.62-19.14 116.62-19.14" transform="matrix(.95507 .36491 -.41714 1.0184 -175.71 -645.05)"/>
</g>
</g>
<g fill-rule="evenodd">
<g transform="translate(-80.359 74.874)">
<path opacity=".994" fill="#fff" filter="url(#filter8554)" d="m106.52,154.76c5.21-4.14 8.37,.85 9.15,5.65 3.07,6.54 54.62-82.075 58.36-75.901 4.64-7.264-45.32,78.511-45.06,70.441 .36-6.75 3.4-17.01 9.69-19.37 2.61-.31 10.14,5.06 3.85,4.86-3.78-6.41-11.66-12.99-18.84-7.48-5.2,1.38-15.65,8.22-17.98,.68 1.71-6.92 13.52-7.73 11.96-15.99-4.01-4.07-3.08-8.21 2.91-6.54 7.45-.68 15.41,4.41 16.11,12.22 2.71,7.56 4.56,15.45 8.13,22.69 4.16-6.27-.38-13.83 1.15-20.52 4.3,1.5 10.59,6.8 16.73,4.93 4.39-3.62 14.29-5.3 15.59,1.52-8.08,1.39-10.18-9.76-15.76-13.65-3.66-5.81-8.61-11.04-12.78-16.44-1.44-9.575 11.9-5.984 12.68,1.25 4.7,7.27 103.6,41.35 108.72,48.32 .01-5.92-101.98-37.68-99.09-43.54 7.81,3.48 16.89,8.47 18.16,17.82 1.52,6.46 1.81,13.36 5.09,19.28 .14-6.7 80.49-8.87 89.88-10.47 5.92-4.75 23.03,1.06 23.48,8.39 2.86-3.89-99.48-20.59-101.7-25.32 2.3-6.89 17.46-7.78 19.74-11.84-9.81-1.31-19.78,.16-29.57-1.43-3.89-7.347 3.65-15.333-.08-22.97 2.43-8.962 8.26,1.02 10.17,4.84 3.85,8.219 12.2,10.049 20.26,10.535 7.7,1.427 15.97,50.715 23.04,54.025 6.3,.76 10.81-42.98 15.86-39.11 4.64,2.79 9.33,7.11 14.9,7.17-3.96-4.21-11.44-7-16.69-10.74-8.36-5.03-16.63-10.3-24.04-16.674 3.15-6.47 12.67-4.956 18.23-7.717 8.59,.687 15.57,6.384 23.32,9.55 5.45,2.504 14.4,8.631 17.15,9.771-6.07-7.431-10.89-15.804-14.98-24.467-2.68-6.993 11.32-9.035 11.27-9.996-7,.223-15.48-1.381-20.72-5.963-3.37-4.861-9.68-3.192-9.9,2.76-4.04,5.884-16.43,2.737-15.46,12.804-.28,2.937 2.08,70.632 1.2,70.312 1.16-9.69 .21-79.373-.43-89.171-7.33,1.93-13.92,6.769-20.56,9.797-5.39,6.089-4.75,14.729-6.12,22.24-4.06,.939-2.93-9.178-4.63-12.562-1.81-7.142-4.63-14.582-2.44-21.985-.25-7.584-8.33-2.373-7.73,2.872-.53,5.481-5.53,9.919-10,4.764-5.98-1.856-9.86,7.055-15.34,1.146-3.71-2.907-15.8-8.269-11.62,1.072 3.38,7.455 7.25,14.682 9.91,22.454 3.29,6.15-4.31,6.465-6.72,2.047-6.3-3.968-4.98-29.761-11.81-32.306-8.14,1.836-11.87,8.513-19.14,12.671-6,5.704-5.84,33.061-12.33,38.211-3.52,3.48-10.95-72.326-9.51-77.253 1.3-8.664-63.542,38.791-63.753,29.951-5.773-6.136 60.873,20.648 56.833,23.474-7.42-1.365-50.308-4.362-11.39,12.08 2.16,8.028-79.026,41.848-77.309,49.918-1.127,9.06 78.539-9.12 79.049-.23 1.33,2.87-7.212,8.56-3.39,7.83 .58-.6 1.1-1.26 1.58-1.95" transform="matrix(.70058 -.24759 .42552 .68016 37.472 80.047)"/>
</g>
<g stroke-width="7.023" transform="translate(-80.359 74.874)">
<path opacity=".833" fill="url(#linearGradient3514)" filter="url(#filter3437)" stroke="#ffe680" d="m166.6,333.56s.64-23.73 51.03-89.18c37.57-48.81 84.26-73.31 84.26-73.31s-2.65,17.28-5.16,.56c-18.16,2.85-12.37-10.29-14.8-.91-15.44,59.62-90.42,74.28-115.33,162.84z" transform="matrix(.7524 .65871 -.65871 .7524 193.91 -284.42)"/>
<path opacity=".833" fill="url(#linearGradient3522)" filter="url(#filter3437)" stroke="#ffd42a" d="m185.47,271.86s-13.37-2.66 18.74-47.15c36.05-49.94 97.68-53.64 97.68-53.64s-112.43,63.28-75.6,19.73c-74.73,20.42 41.61-36.71 17.39-17.68-48.43,38.05-33.3,10.18-58.21,98.74z" transform="matrix(.34458 .93876 -.93876 .34458 358.45 -296.31)"/>
</g>
<g transform="translate(-80.359 74.874)">
<path opacity=".733" fill="url(#linearGradient7498)" d="m161.41-35.475s53.03,15.929 99.22,21.648c34.07,13.939 23.43,26.693 23.43,26.693s7.47,.881 25.33,34.387c-53.97-2.567-32.9-19.013-100.67-8.993-80.9,11.958-64.2,.638-111.25,38 4-37.446 4.42-28.246 19.52-52.745 19.86-32.249 44.42-58.99 44.42-58.99z"/>
<path fill="url(#linearGradient8564)" filter="url(#filter8546)" d="m96.441,148.58s3.226-1.25 7.829-3.04c2.33-.91 10.41,31.87 13.21,30.78 2.58-1-.13-35.87 2.44-36.87 2.81-1.09 15.66-6.09 15.66-6.09s-11.65-8.69-14.13-10.66c-2.29-1.81-18.49,7.69-20.7,5.8-2.423-2.06 9.16-15.51 7.31-17.36-3.26-3.27-5.24-5.96-4.55-7.21 .59-1.08 13.51,2.07 16.85,3.34 3.27,1.25 13.23,32.39 16.05,33.46 3.34,1.27-.54-27.55 2.21-26.5 3.47,1.32 19.56,33.99 22.2,35 3.77,1.43-6.31-28.95-3.93-28.04l9.13,3.48s-2.74-2.53-6.45-6.14c-1.92-1.88-4.11-4.04-6.3-6.3-2.08-2.15-4.17-4.38-6.07-6.52-2.24-2.54-4.2-4.95-5.54-6.974-2.57-3.889-2.85-6.314 1.63-5.294 1.88,.426 19.95,26.818 23.67,28.588 2.25,1.08-10.5-22.939-7.46-21.28 2.82,1.54 13.48,7.35 15.94,8.7 2.92,1.59 4.8,26.86 7.21,28.18 3.02,1.64 6.43-20.75 8.74-19.49 3.29,1.8 5.9,3.22 7.97,4.35 7.97,4.35-1.39-6.91-3.27-9.47-1.73-2.37 25.77-7.94 24.25-10.42-1.68-2.726-32.33-2.35-33.31-4.843-1.37-3.48-1.83-6.54-.74-8.642 1.04-2.006-1.89-19.285 2.54-19.08 2.34,.109 10.62,16.737 14.15,17.667 2.97,.779 14.03,3.692 16.53,4.348 3.13,.825-2.59,31.53-.2,32.16 3.41,.89 14.58-28.376 16.72-27.811l8.27,2.175s27.91,18.436 31.35,15.316c1.82-1.66-21.47-24.3-19.39-26.188 2.07-1.888 4.15-3.776 5.98-5.436 3.43-3.12 28.27,15.32 28.27,15.32s-19.36-23.035-15.77-25.829c2.1-1.633 4.42-3.441 6.52-5.074 3.59-2.794-17.27,.528-17.27,.528s20.18-5.677 14.31-5.799c-2.72-.057-5.93-.124-9.49-.198-2.95-.061-2.29-7.815-5.65-7.885-3.04-.063-10.07,7.558-13.33,7.49-3.1-.065-6.28-.131-9.49-.198-3.15-.066 2.13-8.588-1.03-8.654-3.2-.066-14.83,8.324-17.94,8.259-3.26-.068-16.03-.334-18.98-.395 3.31-20.678 .71-22.572-9.49-.198-5.87-.123-12.99,.546-18.45,1.705-2.61,.552-11.03-8.027-14.35-7.323-2.83,.599-.47,10.466-3.59,11.128-2.94,.622-5.95,1.262-8.97,1.902s-1.42,18.193-4.36,18.815c-3.12,.662-10.76-15.609-13.58-15.01-3.32,.705-6.37,1.351-8.97,1.903-5.46,1.159-1.28,25.734-1.28,25.734s-11.01-22.682-14.85-18.587c-1.69,1.805-3.49,4.182-5.141,7.285-1.24,2.326-3.317,16.145-3.823,19.375-.426,2.72 3.433,29.33 3.919,32.42 .441,2.82-2.868,16.15-3.014,9.6" transform="matrix(1.2749 0 0 1.2227 -25.569 5.9521)"/>
<path opacity=".733" fill="url(#linearGradient7494)" d="m99.406,84.157s-27.875-10.135 78.324-37.054c93.13,3 139.1,12.37 139.1,12.37 14.43,24.11 43.96,56.897 70.25,73.737-53.97-2.84-86.31-10.75-144.68,5.4-113.65,31.45-146.16,88.19-146.16,88.19-.004,0-1.25-54.1-2.319-75.29-1.713-33.93 5.485-67.353 5.485-67.353z"/>
</g>
<g fill="#fff" transform="translate(-80.359 74.874)">
<path opacity=".994" filter="url(#filter8554)" d="m106.52,154.76c5.21-4.14 8.37,.85 9.15,5.65 3.07,6.54 54.62-82.075 58.36-75.901 4.64-7.264-45.32,78.511-45.06,70.441 .36-6.75 3.4-17.01 9.69-19.37 2.61-.31 10.14,5.06 3.85,4.86-3.78-6.41-11.66-12.99-18.84-7.48-5.2,1.38-15.65,8.22-17.98,.68 1.71-6.92 13.52-7.73 11.96-15.99-4.01-4.07-3.08-8.21 2.91-6.54 7.45-.68 15.41,4.41 16.11,12.22 2.71,7.56 4.56,15.45 8.13,22.69 4.16-6.27-.38-13.83 1.15-20.52 4.3,1.5 10.59,6.8 16.73,4.93 4.39-3.62 14.29-5.3 15.59,1.52-8.08,1.39-10.18-9.76-15.76-13.65-3.66-5.81-8.61-11.04-12.78-16.44-1.44-9.575 11.9-5.984 12.68,1.25 4.7,7.27 103.6,41.35 108.72,48.32 .01-5.92-101.98-37.68-99.09-43.54 7.81,3.48 16.89,8.47 18.16,17.82 1.52,6.46 1.81,13.36 5.09,19.28 .14-6.7 80.49-8.87 89.88-10.47 5.92-4.75 23.03,1.06 23.48,8.39 2.86-3.89-99.48-20.59-101.7-25.32 2.3-6.89 17.46-7.78 19.74-11.84-9.81-1.31-19.78,.16-29.57-1.43-3.89-7.347 3.65-15.333-.08-22.97 2.43-8.962 8.26,1.02 10.17,4.84 3.85,8.219 12.2,10.049 20.26,10.535 7.7,1.427 15.97,50.715 23.04,54.025 6.3,.76 10.81-42.98 15.86-39.11 4.64,2.79 9.33,7.11 14.9,7.17-3.96-4.21-11.44-7-16.69-10.74-8.36-5.03-16.63-10.3-24.04-16.674 3.15-6.47 12.67-4.956 18.23-7.717 8.59,.687 15.57,6.384 23.32,9.55 5.45,2.504 14.4,8.631 17.15,9.771-6.07-7.431-10.89-15.804-14.98-24.467-2.68-6.993 11.32-9.035 11.27-9.996-7,.223-15.48-1.381-20.72-5.963-3.37-4.861-9.68-3.192-9.9,2.76-4.04,5.884-16.43,2.737-15.46,12.804-.28,2.937 2.08,70.632 1.2,70.312 1.16-9.69 .21-79.373-.43-89.171-7.33,1.93-13.92,6.769-20.56,9.797-5.39,6.089-4.75,14.729-6.12,22.24-4.06,.939-2.93-9.178-4.63-12.562-1.81-7.142-4.63-14.582-2.44-21.985-.25-7.584-8.33-2.373-7.73,2.872-.53,5.481-5.53,9.919-10,4.764-5.98-1.856-9.86,7.055-15.34,1.146-3.71-2.907-15.8-8.269-11.62,1.072 3.38,7.455 7.25,14.682 9.91,22.454 3.29,6.15-4.31,6.465-6.72,2.047-6.3-3.968-4.98-29.761-11.81-32.306-8.14,1.836-11.87,8.513-19.14,12.671-6,5.704-5.84,33.061-12.33,38.211-3.52,3.48-10.95-72.326-9.51-77.253 1.3-8.664-63.542,38.791-63.753,29.951-5.773-6.136 60.873,20.648 56.833,23.474-7.42-1.365-50.308-4.362-11.39,12.08 2.16,8.028-79.026,41.848-77.309,49.918-1.127,9.06 78.539-9.12 79.049-.23 1.33,2.87-7.212,8.56-3.39,7.83 .58-.6 1.1-1.26 1.58-1.95" transform="matrix(.70058 -.24759 .42552 .68016 51.17 201.38)"/>
<path opacity=".994" filter="url(#filter8554)" d="m106.52,154.76c5.21-4.14 8.37,.85 9.15,5.65 3.07,6.54 54.62-82.075 58.36-75.901 4.64-7.264-45.32,78.511-45.06,70.441 .36-6.75 3.4-17.01 9.69-19.37 2.61-.31 10.14,5.06 3.85,4.86-3.78-6.41-11.66-12.99-18.84-7.48-5.2,1.38-15.65,8.22-17.98,.68 1.71-6.92 13.52-7.73 11.96-15.99-4.01-4.07-3.08-8.21 2.91-6.54 7.45-.68 15.41,4.41 16.11,12.22 2.71,7.56 4.56,15.45 8.13,22.69 4.16-6.27-.38-13.83 1.15-20.52 4.3,1.5 10.59,6.8 16.73,4.93 4.39-3.62 14.29-5.3 15.59,1.52-8.08,1.39-10.18-9.76-15.76-13.65-3.66-5.81-8.61-11.04-12.78-16.44-1.44-9.575 11.9-5.984 12.68,1.25 4.7,7.27 103.6,41.35 108.72,48.32 .01-5.92-101.98-37.68-99.09-43.54 7.81,3.48 16.89,8.47 18.16,17.82 1.52,6.46 1.81,13.36 5.09,19.28 .14-6.7 80.49-8.87 89.88-10.47 5.92-4.75 23.03,1.06 23.48,8.39 2.86-3.89-99.48-20.59-101.7-25.32 2.3-6.89 17.46-7.78 19.74-11.84-9.81-1.31-19.78,.16-29.57-1.43-3.89-7.347 3.65-15.333-.08-22.97 2.43-8.962 8.26,1.02 10.17,4.84 3.85,8.219 12.2,10.049 20.26,10.535 7.7,1.427 15.97,50.715 23.04,54.025 6.3,.76 10.81-42.98 15.86-39.11 4.64,2.79 9.33,7.11 14.9,7.17-3.96-4.21-11.44-7-16.69-10.74-8.36-5.03-16.63-10.3-24.04-16.674 3.15-6.47 12.67-4.956 18.23-7.717 8.59,.687 15.57,6.384 23.32,9.55 5.45,2.504 14.4,8.631 17.15,9.771-6.07-7.431-10.89-15.804-14.98-24.467-2.68-6.993 11.32-9.035 11.27-9.996-7,.223-15.48-1.381-20.72-5.963-3.37-4.861-9.68-3.192-9.9,2.76-4.04,5.884-16.43,2.737-15.46,12.804-.28,2.937 2.08,70.632 1.2,70.312 1.16-9.69 .21-79.373-.43-89.171-7.33,1.93-13.92,6.769-20.56,9.797-5.39,6.089-4.75,14.729-6.12,22.24-4.06,.939-2.93-9.178-4.63-12.562-1.81-7.142-4.63-14.582-2.44-21.985-.25-7.584-8.33-2.373-7.73,2.872-.53,5.481-5.53,9.919-10,4.764-5.98-1.856-9.86,7.055-15.34,1.146-3.71-2.907-15.8-8.269-11.62,1.072 3.38,7.455 7.25,14.682 9.91,22.454 3.29,6.15-4.31,6.465-6.72,2.047-6.3-3.968-4.98-29.761-11.81-32.306-8.14,1.836-11.87,8.513-19.14,12.671-6,5.704-5.84,33.061-12.33,38.211-3.52,3.48-10.95-72.326-9.51-77.253 1.3-8.664-63.542,38.791-63.753,29.951-5.773-6.136 60.873,20.648 56.833,23.474-7.42-1.365-50.308-4.362-11.39,12.08 2.16,8.028-79.026,41.848-77.309,49.918-1.127,9.06 78.539-9.12 79.049-.23 1.33,2.87-7.212,8.56-3.39,7.83 .58-.6 1.1-1.26 1.58-1.95" transform="matrix(.70486 .16262 -.08222 .55191 245.44 117.41)"/>
</g>
<g transform="translate(-80.359 74.874)">
<path fill="url(#linearGradient8572)" filter="url(#filter8546)" d="m96.441,148.58s3.226-1.25 7.829-3.04c2.33-.91 10.41,31.87 13.21,30.78 2.58-1-.13-35.87 2.44-36.87 2.81-1.09 10.34-2.13 12.67-3.04 4.6-1.79-8.66-11.74-11.14-13.71-2.29-1.81-23.858,10.89-26.068,9.01-2.427-2.07 14.528-18.72 12.678-20.57-3.26-3.27-5.24-5.96-4.55-7.21 .59-1.08 3.13-1.1 8.48,.46 2.27,.66 5.03,1.61 8.37,2.88 3.27,1.25 13.23,32.39 16.05,33.46 3.34,1.27-.54-27.55 2.21-26.5 3.47,1.32 19.56,33.99 22.2,35 3.77,1.43-6.31-28.95-3.93-28.04l9.13,3.48s-10.56-10.18-12.75-12.44c-2.08-2.15-4.17-4.38-6.07-6.52-2.24-2.54-4.2-4.95-5.54-6.974-2.57-3.889-2.85-6.314 1.63-5.294 1.88,.426 19.95,26.818 23.67,28.588 2.25,1.08-10.5-22.939-7.46-21.28 2.82,1.54 5.47,2.98 7.97,4.35 2.86,1.56 5.51,3 7.97,4.35 2.92,1.59 4.8,26.86 7.21,28.18 3.02,1.64 6.43-20.75 8.74-19.49 3.29,1.8 5.9,3.22 7.97,4.35l7.97,4.35s-9.36-11.26-11.24-13.82c-1.73-2.37 25.77-7.94 24.25-10.42-1.68-2.726-32.33-2.35-33.31-4.843-1.37-3.48-1.83-6.54-.74-8.642 1.04-2.006-1.89-19.285 2.54-19.08 2.34,.109 10.62,16.737 14.15,17.667 2.97,.779 5.71,1.503 8.27,2.174 3.02,.795 5.76,1.518 8.26,2.174 3.13,.825-2.59,31.53-.2,32.16 3.41,.89 14.58-28.376 16.72-27.811l8.27,2.175s27.91,18.436 31.35,15.316c1.82-1.66-21.47-24.3-19.39-26.188 2.07-1.888 4.15-3.776 5.98-5.436 3.43-3.12 28.27,15.32 28.27,15.32s-19.36-23.035-15.77-25.829c2.1-1.633 4.42-3.441 6.52-5.074 3.59-2.794 6.52,12.532 6.52,12.532s-3.61-17.681-9.48-17.803c-2.72-.057-5.93-.124-9.49-.198-2.95-.061-2.29-7.815-5.65-7.885-3.04-.063-10.07,7.558-13.33,7.49-3.1-.065-2.52-1.732-5.72-1.798-3.16-.066-1.64-6.988-4.8-7.054-3.2-.066-13.22,1.921-16.33,1.857-3.26-.068-17.64,6.068-20.59,6.007 3.31-20.678-2.51-27.374-12.71-5-5.88-.122-11.38-.254-16.85,.905-2.6,.552-9.41-2.425-12.73-1.721-2.83,.599-.47,10.466-3.59,11.128-2.94,.622-5.95,1.262-8.97,1.902s-1.42,18.193-4.36,18.815c-3.12,.662-10.76-15.609-13.58-15.01-3.32,.705-6.37,1.351-8.97,1.903-5.46,1.159-1.28,25.734-1.28,25.734s-11.01-22.682-14.85-18.587c-1.69,1.805-3.49,4.182-5.141,7.285-1.24,2.326-2.401,5.058-3.384,8.263-.792,2.586-3.081,15.082-3.587,18.322-.426,2.71 2.894,36.56 4.053,34.81" transform="matrix(1.8199 0 0 1.2227 -64.508 95.971)"/>
<path opacity=".906" fill="url(#linearGradient8576)" filter="url(#filter8598)" d="m101.67,141.84c-.25-8.25 12.46,24.82 15.26,23.73 2.57-1 .42-25.12 2.99-26.12 2.81-1.09 5.5-2.13 7.83-3.04 4.6-1.79 7.83-3.05 7.83-3.05s-2.98-2.12-7.12-5.25c-2.12-1.59-4.53-3.44-7.01-5.41-2.29-1.81-23.858,10.89-26.068,9.01-2.427-2.07 14.528-18.72 12.678-20.57-3.26-3.27-5.24-5.96-4.55-7.21 .59-1.08 3.13-1.1 8.48,.46 2.27,.66 5.03,1.61 8.37,2.88 3.27,1.25 13.23,32.39 16.05,33.46 3.34,1.27-.54-27.55 2.21-26.5 3.47,1.32 19.56,33.99 22.2,35 3.77,1.43-6.31-28.95-3.93-28.04l9.13,3.48s-2.74-2.53-6.45-6.14c-1.92-1.88-4.11-4.04-6.3-6.3-2.08-2.15-4.17-4.38-6.07-6.52-2.24-2.54-4.2-4.95-5.54-6.974-2.57-3.889-2.85-6.314 1.63-5.294 1.88,.426 19.95,26.818 23.67,28.588 2.25,1.08-10.5-22.939-7.46-21.28 2.82,1.54 5.47,2.98 7.97,4.35 2.86,1.56 5.51,3 7.97,4.35 2.92,1.59 4.8,26.86 7.21,28.18 3.02,1.64 6.43-20.75 8.74-19.49 3.29,1.8 5.9,3.22 7.97,4.35l7.97,4.35s-2.49-2.73-5.78-6.78c-1.69-2.06-3.58-4.48-5.46-7.04-1.73-2.37 25.77-7.94 24.25-10.42-1.68-2.726-32.33-2.35-33.31-4.843-1.37-3.48-1.83-6.54-.74-8.642 1.04-2.006-1.89-19.285 2.54-19.08 2.34,.109 10.62,16.737 14.15,17.667 2.97,.779 5.71,1.503 8.27,2.174 3.02,.795 5.76,1.518 8.26,2.174 3.13,.825-2.59,31.53-.2,32.16 3.41,.89 14.58-28.376 16.72-27.811l8.27,2.175s27.91,18.436 31.35,15.316c1.82-1.66-21.47-24.3-19.39-26.188 2.07-1.888 4.15-3.776 5.98-5.436 3.43-3.12 18.63,8.378 18.63,8.378s-9.72-16.093-6.13-18.887c2.1-1.633 2.17,2.855 4.27,1.222-.01-7.824-.18,5.322-.18,5.322s-4.96-11.402-.53-16.889c-2.72-.057-5.93-.124-9.49-.198-2.95-.061-2.29-7.815-5.65-7.885-3.04-.063-10.07,7.558-13.33,7.49-3.1-.065-6.28-.131-9.49-.198-3.15-.066 2.13-8.588-1.03-8.654-3.2-.066-14.83,8.324-17.94,8.259-3.26-.068-16.03-.334-18.98-.395 3.31-20.678-18.98-.396-18.98-.396s-3.5,.744-8.96,1.903c-2.61,.552-11.03-8.027-14.35-7.323-2.83,.599-.47,10.466-3.59,11.128-2.94,.622-5.95,1.262-8.97,1.902s-1.42,18.193-4.36,18.815c-3.12,.662-10.76-15.609-13.58-15.01-3.32,.705-6.37,1.351-8.97,1.903-5.46,1.159-1.28,25.734-1.28,25.734s-11.01-22.682-14.85-18.587c-1.69,1.805-3.49,4.182-5.141,7.285-1.24,2.326-2.401,5.058-3.384,8.263-.792,2.586-1.468,5.482-1.974,8.712-.426,2.72-.731,5.68-.886,8.9-.133,2.78-.154,5.75-.042,8.94 .1,2.81 .302,5.78 .623,8.92" transform="matrix(1.8491 -1.1576 .8156 1.607 63.266 547.54)"/>
<path opacity=".733" fill="url(#linearGradient7486)" d="m93.406,218.52s26.124-37.14 122.32-71.42c89.13-15.29 180.52-9.6 180.52-9.6s89.43,52.08 155.29,101.59c-45.97,9.43-116.04,8.39-116.04,8.39s-88.2-3.39-146.95,9.55c-169.83,37.41-197.38,60.16-197.38,60.16 .002,0 4.884-34.57 3.815-53.67-1.712-30.62-1.579-45-1.579-45z"/>
<path opacity=".733" fill="url(#linearGradient3317)" d="m269.85,623.37c19.37-40.12 8.65-33.97 61.24-121.51 59.19-68.38 107.01-96.62 147.14-124.3 22-15.17 70.11-59.89 130.28-89.72 29.96,42 71.27,128.99 71.27,128.99s-136.39,60.71-168.08,111.83c-50.77,81.9-61.67,138.79-61.67,138.79s.87-10.48-10.9,24.34c-164.18-57.97-130.54-40.74-169.28-68.42z"/>
<path opacity=".339" fill="#c87137" filter="url(#filter3361)" stroke="#784421" stroke-width=".937" d="m82.652,335.29s43.398-16.13 152.65-48.24c89.13-15.29 189.84-30.19 189.84-30.19s82.08,5.66 150.11-3.54c-26.39,83.36-129.87,95.36-129.87,95.36s-56.19,34.79-95.75,82.89c-63.15,76.77-85.27,198.73-85.27,198.73-90.02-100.78-123.56-160.26-138.77-195.11-13.2-30.26-42.938-99.9-42.938-99.9z"/>
<path opacity=".833" fill="url(#linearGradient3514)" filter="url(#filter3437)" stroke="#fc0" stroke-width="7.023" d="m160.93,348.24s6.31-38.41 56.7-103.86c37.57-48.81 182.07-121.08 178.61-115.31 0,0-23.26,5.19-22.1-.39-15.65,2.09-62.24,17.98-86.46,37.01-48.43,38.05-101.84,93.99-126.75,182.55z" transform="matrix(.85901 .51196 -.51196 .85901 133.91 -165.27)"/>
<path opacity=".85" fill="#fff" filter="url(#filter3379)" d="m110.7,198.9s119.34-59.26 177.12-60.89c98.25-2.77 96.76-5.53 96.76-5.53s-114.75-2.77-165.95-2.77c-55.03,47.05-107.93,69.19-107.93,69.19z"/>
<path opacity=".733" fill="url(#linearGradient7502)" d="m434.22,694.51s22.91-64.86 79.12-150.12c61.99-65.84 65.04-68.62 65.04-68.62s38.32-5.99 107.76-31.96c29.38,43.82 61.42,87 61.42,87s-67.83,30.43-107.54,75.61c-79.31,90.25-74.34,126.29-74.34,126.29s-95.53-36.51-113.78-42.29c-26.26-8.32-17.68,4.09-17.68,4.09z"/>
<g opacity=".661" fill="#fff" transform="matrix(.76367 -.36291 .21686 1.1608 340.49 431.76)">
<path opacity=".994" filter="url(#filter8554)" d="m106.52,154.76c5.21-4.14 8.37,.85 9.15,5.65 3.07,6.54 54.62-82.075 58.36-75.901 4.64-7.264-45.32,78.511-45.06,70.441 .36-6.75 3.4-17.01 9.69-19.37 2.61-.31 10.14,5.06 3.85,4.86-3.78-6.41-11.66-12.99-18.84-7.48-5.2,1.38-15.65,8.22-17.98,.68 1.71-6.92 13.52-7.73 11.96-15.99-4.01-4.07-3.08-8.21 2.91-6.54 7.45-.68 15.41,4.41 16.11,12.22 2.71,7.56 4.56,15.45 8.13,22.69 4.16-6.27-.38-13.83 1.15-20.52 4.3,1.5 10.59,6.8 16.73,4.93 4.39-3.62 14.29-5.3 15.59,1.52-8.08,1.39-10.18-9.76-15.76-13.65-3.66-5.81-8.61-11.04-12.78-16.44-1.44-9.575 11.9-5.984 12.68,1.25 4.7,7.27 103.6,41.35 108.72,48.32 .01-5.92-101.98-37.68-99.09-43.54 7.81,3.48 16.89,8.47 18.16,17.82 1.52,6.46 1.81,13.36 5.09,19.28 .14-6.7 80.49-8.87 89.88-10.47 5.92-4.75 23.03,1.06 23.48,8.39 2.86-3.89-99.48-20.59-101.7-25.32 2.3-6.89 17.46-7.78 19.74-11.84-9.81-1.31-19.78,.16-29.57-1.43-3.89-7.347 3.65-15.333-.08-22.97 2.43-8.962 8.26,1.02 10.17,4.84 3.85,8.219 12.2,10.049 20.26,10.535 7.7,1.427 15.97,50.715 23.04,54.025 6.3,.76 10.81-42.98 15.86-39.11 4.64,2.79 9.33,7.11 14.9,7.17-3.96-4.21-11.44-7-16.69-10.74-8.36-5.03-16.63-10.3-24.04-16.674 3.15-6.47 12.67-4.956 18.23-7.717 8.59,.687 15.57,6.384 23.32,9.55 5.45,2.504 14.4,8.631 17.15,9.771-6.07-7.431-10.89-15.804-14.98-24.467-2.68-6.993 11.32-9.035 11.27-9.996-7,.223-15.48-1.381-20.72-5.963-3.37-4.861-9.68-3.192-9.9,2.76-4.04,5.884-16.43,2.737-15.46,12.804-.28,2.937 2.08,70.632 1.2,70.312 1.16-9.69 .21-79.373-.43-89.171-7.33,1.93-13.92,6.769-20.56,9.797-5.39,6.089-4.75,14.729-6.12,22.24-4.06,.939-2.93-9.178-4.63-12.562-1.81-7.142-4.63-14.582-2.44-21.985-.25-7.584-8.33-2.373-7.73,2.872-.53,5.481-5.53,9.919-10,4.764-5.98-1.856-9.86,7.055-15.34,1.146-3.71-2.907-15.8-8.269-11.62,1.072 3.38,7.455 7.25,14.682 9.91,22.454 3.29,6.15-4.31,6.465-6.72,2.047-6.3-3.968-4.98-29.761-11.81-32.306-8.14,1.836-11.87,8.513-19.14,12.671-6,5.704-5.84,33.061-12.33,38.211-3.52,3.48-10.95-72.326-9.51-77.253 1.3-8.664-63.542,38.791-63.753,29.951-5.773-6.136 60.873,20.648 56.833,23.474-7.42-1.365-50.308-4.362-11.39,12.08 2.16,8.028-61.996,28.638-60.279,36.708-1.127,9.06 61.509,4.09 62.019,12.98 1.33,2.87-7.212,8.56-3.39,7.83 .58-.6 1.1-1.26 1.58-1.95" transform="matrix(.70058 -.24759 .42552 .68016 51.17 201.38)"/>
<path opacity=".994" filter="url(#filter8554)" d="m106.52,154.76c5.21-4.14 8.37,.85 9.15,5.65 3.07,6.54 54.62-82.075 58.36-75.901 4.64-7.264-45.32,78.511-45.06,70.441 .36-6.75 3.4-17.01 9.69-19.37 2.61-.31 10.14,5.06 3.85,4.86-3.78-6.41-11.66-12.99-18.84-7.48-5.2,1.38-15.65,8.22-17.98,.68 1.71-6.92 13.52-7.73 11.96-15.99-4.01-4.07-3.08-8.21 2.91-6.54 7.45-.68 15.41,4.41 16.11,12.22 2.71,7.56 4.56,15.45 8.13,22.69 4.16-6.27-.38-13.83 1.15-20.52 4.3,1.5 10.59,6.8 16.73,4.93 4.39-3.62 14.29-5.3 15.59,1.52-8.08,1.39-10.18-9.76-15.76-13.65-3.66-5.81-8.61-11.04-12.78-16.44-1.44-9.575 11.9-5.984 12.68,1.25 4.7,7.27 103.6,41.35 108.72,48.32 .01-5.92-101.98-37.68-99.09-43.54 7.81,3.48 16.89,8.47 18.16,17.82 1.52,6.46 1.81,13.36 5.09,19.28 .14-6.7 80.49-8.87 89.88-10.47 5.92-4.75 23.03,1.06 23.48,8.39 2.86-3.89-99.48-20.59-101.7-25.32 2.3-6.89 17.46-7.78 19.74-11.84-9.81-1.31-19.78,.16-29.57-1.43-3.89-7.347 3.65-15.333-.08-22.97 2.43-8.962 8.26,1.02 10.17,4.84 3.85,8.219 12.2,10.049 20.26,10.535 7.7,1.427 15.97,50.715 23.04,54.025 6.3,.76 10.81-42.98 15.86-39.11 4.64,2.79 9.33,7.11 14.9,7.17-3.96-4.21-11.44-7-16.69-10.74-8.36-5.03-16.63-10.3-24.04-16.674 3.15-6.47 12.67-4.956 18.23-7.717 8.59,.687 15.57,6.384 23.32,9.55 5.45,2.504 14.4,8.631 17.15,9.771-6.07-7.431-10.89-15.804-14.98-24.467-2.68-6.993 11.32-9.035 11.27-9.996-7,.223-15.48-1.381-20.72-5.963-3.37-4.861-9.68-3.192-9.9,2.76-4.04,5.884-16.43,2.737-15.46,12.804-.28,2.937 2.08,70.632 1.2,70.312 1.16-9.69 .21-79.373-.43-89.171-7.33,1.93-13.92,6.769-20.56,9.797-5.39,6.089-4.75,14.729-6.12,22.24-4.06,.939-2.93-9.178-4.63-12.562-1.81-7.142-4.63-14.582-2.44-21.985-.25-7.584-8.33-2.373-7.73,2.872-.53,5.481-5.53,9.919-10,4.764-5.98-1.856-9.86,7.055-15.34,1.146-3.71-2.907-15.8-8.269-11.62,1.072 3.38,7.455 7.25,14.682 9.91,22.454 3.29,6.15-4.31,6.465-6.72,2.047-6.3-3.968-4.98-29.761-11.81-32.306-8.14,1.836-11.87,8.513-19.14,12.671-6,5.704-5.84,33.061-12.33,38.211-3.52,3.48-10.95-72.326-9.51-77.253 1.3-8.664-63.542,38.791-63.753,29.951-5.773-6.136 60.873,20.648 56.833,23.474-7.42-1.365-50.308-4.362-11.39,12.08 2.16,8.028-79.026,41.848-77.309,49.918-1.127,9.06 78.539-9.12 79.049-.23 1.33,2.87-7.212,8.56-3.39,7.83 .58-.6 1.1-1.26 1.58-1.95" transform="matrix(.70486 .16262 -.08222 .55191 245.44 117.41)"/>
</g>
<path opacity=".906" fill="url(#linearGradient8576)" filter="url(#filter8598)" d="m96.441,148.58s3.226-1.25 7.829-3.04c2.33-.91 10.41,31.87 13.21,30.78 2.58-1-.13-35.87 2.44-36.87 2.81-1.09 5.5-2.13 7.83-3.04 4.6-1.79 7.83-3.05 7.83-3.05s-2.98-2.12-7.12-5.25c-2.12-1.59-4.53-3.44-7.01-5.41-2.29-1.81-23.858,10.89-26.068,9.01-2.427-2.07 14.528-18.72 12.678-20.57-3.26-3.27-5.24-5.96-4.55-7.21 .59-1.08 3.13-1.1 8.48,.46 2.27,.66 5.03,1.61 8.37,2.88 3.27,1.25 13.23,32.39 16.05,33.46 3.34,1.27-.54-27.55 2.21-26.5 3.47,1.32 19.56,33.99 22.2,35 3.77,1.43-6.31-28.95-3.93-28.04l9.13,3.48s-2.74-2.53-6.45-6.14c-1.92-1.88-4.11-4.04-6.3-6.3-2.08-2.15-4.17-4.38-6.07-6.52-2.24-2.54-4.2-4.95-5.54-6.974-2.57-3.889-2.85-6.314 1.63-5.294 1.88,.426 19.95,26.818 23.67,28.588 2.25,1.08-10.5-22.939-7.46-21.28 2.82,1.54 5.47,2.98 7.97,4.35 2.86,1.56 5.51,3 7.97,4.35 2.92,1.59 4.8,26.86 7.21,28.18 3.02,1.64 6.43-20.75 8.74-19.49 3.29,1.8 5.9,3.22 7.97,4.35l7.97,4.35s-2.49-2.73-5.78-6.78c-1.69-2.06-3.58-4.48-5.46-7.04-1.73-2.37 25.77-7.94 24.25-10.42-1.68-2.726-32.33-2.35-33.31-4.843-1.37-3.48-1.83-6.54-.74-8.642 1.04-2.006-1.89-19.285 2.54-19.08 2.34,.109 10.62,16.737 14.15,17.667 2.97,.779 5.71,1.503 8.27,2.174 3.02,.795 5.76,1.518 8.26,2.174 3.13,.825-2.59,31.53-.2,32.16 3.41,.89 14.58-28.376 16.72-27.811l8.27,2.175s12.04,18.306 15.47,15.186c1.83-1.66-5.59-24.17-3.51-26.058 2.07-1.888 4.15-3.776 5.98-5.436 3.43-3.12 5.78,17.039 5.78,17.039s3.13-24.754 6.72-27.548c2.1-1.633 4.42-3.441 6.52-5.074 3.59-2.794-4.05-12.767-4.05-12.767s6.96,7.618 1.09,7.496c-2.72-.057-5.93-.124-9.49-.198-2.95-.061-2.29-7.815-5.65-7.885-3.04-.063-10.07,7.558-13.33,7.49-3.1-.065-6.28-.131-9.49-.198-3.15-.066 2.13-8.588-1.03-8.654-3.2-.066-14.83,8.324-17.94,8.259-3.26-.068-6.44-.134-9.49-.198-3.35-.07-6.54-.136-9.49-.197 3.31-20.678 .71-22.572-9.49-.198-5.87-.123-9.49-.198-9.49-.198s-3.5,.744-8.96,1.903c-2.61,.552-11.03-8.027-14.35-7.323-2.83,.599-.47,10.466-3.59,11.128-2.94,.622-5.95,1.262-8.97,1.902s-1.42,18.193-4.36,18.815c-3.12,.662-10.76-15.609-13.58-15.01-3.32,.705-6.37,1.351-8.97,1.903-5.46,1.159-1.28,25.734-1.28,25.734s-11.01-22.682-14.85-18.587c-1.69,1.805-3.49,4.182-5.141,7.285-1.24,2.326-2.401,5.058-3.384,8.263-.792,2.586-1.468,5.482-1.974,8.712-.426,2.72-.731,5.68-.886,8.9-.133,2.78-.154,5.75-.042,8.94 .1,2.81 .302,5.78 .623,8.92 .287,2.81 .668,5.77 1.154,8.86 .442,2.82 .969,5.75 1.591,8.8" transform="matrix(1.5601 -1.0519 1.0939 .72588 194.57 708.79)"/>
<g opacity=".661" fill="#fff" transform="matrix(.43801 -.50486 .52365 .80151 452.77 603.12)">
<path opacity=".994" filter="url(#filter8554)" d="m106.52,154.76c5.21-4.14 8.37,.85 9.15,5.65 3.07,6.54 54.62-82.075 58.36-75.901 4.64-7.264-45.32,78.511-45.06,70.441 .36-6.75 3.4-17.01 9.69-19.37 2.61-.31 10.14,5.06 3.85,4.86-3.78-6.41-11.66-12.99-18.84-7.48-5.2,1.38-15.65,8.22-17.98,.68 1.71-6.92 13.52-7.73 11.96-15.99-4.01-4.07-3.08-8.21 2.91-6.54 7.45-.68 15.41,4.41 16.11,12.22 2.71,7.56 4.56,15.45 8.13,22.69 4.16-6.27-.38-13.83 1.15-20.52 4.3,1.5 10.59,6.8 16.73,4.93 4.39-3.62 14.29-5.3 15.59,1.52-8.08,1.39-10.18-9.76-15.76-13.65-3.66-5.81-8.61-11.04-12.78-16.44-1.44-9.575 11.9-5.984 12.68,1.25 4.7,7.27 103.6,41.35 108.72,48.32 .01-5.92-101.98-37.68-99.09-43.54 7.81,3.48 16.89,8.47 18.16,17.82 1.52,6.46 1.81,13.36 5.09,19.28 .14-6.7 80.49-8.87 89.88-10.47 5.92-4.75 23.03,1.06 23.48,8.39 2.86-3.89-99.48-20.59-101.7-25.32 2.3-6.89 17.46-7.78 19.74-11.84-9.81-1.31-19.78,.16-29.57-1.43-3.89-7.347 3.65-15.333-.08-22.97 2.43-8.962 8.26,1.02 10.17,4.84 3.85,8.219 12.2,10.049 20.26,10.535 7.7,1.427 15.97,50.715 23.04,54.025 6.3,.76 10.81-42.98 15.86-39.11 4.64,2.79 9.33,7.11 14.9,7.17-3.96-4.21-11.44-7-16.69-10.74-8.36-5.03-16.63-10.3-24.04-16.674 3.15-6.47 12.67-4.956 18.23-7.717 8.59,.687 15.57,6.384 23.32,9.55 5.45,2.504 14.4,8.631 17.15,9.771-6.07-7.431-10.89-15.804-14.98-24.467-2.68-6.993 11.32-9.035 11.27-9.996-7,.223-15.48-1.381-20.72-5.963-3.37-4.861-9.68-3.192-9.9,2.76-4.04,5.884-16.43,2.737-15.46,12.804-.28,2.937 2.08,70.632 1.2,70.312 1.16-9.69 .21-79.373-.43-89.171-7.33,1.93-13.92,6.769-20.56,9.797-5.39,6.089-4.75,14.729-6.12,22.24-4.06,.939-2.93-9.178-4.63-12.562-1.81-7.142-4.63-14.582-2.44-21.985-.25-7.584-8.33-2.373-7.73,2.872-.53,5.481-5.53,9.919-10,4.764-5.98-1.856-9.86,7.055-15.34,1.146-3.71-2.907-15.8-8.269-11.62,1.072 3.38,7.455 7.25,14.682 9.91,22.454 3.29,6.15-4.31,6.465-6.72,2.047-6.3-3.968-4.98-29.761-11.81-32.306-8.14,1.836-11.87,8.513-19.14,12.671-6,5.704-5.84,33.061-12.33,38.211-3.52,3.48-10.95-72.326-9.51-77.253 1.3-8.664-63.542,38.791-63.753,29.951-5.773-6.136 60.873,20.648 56.833,23.474-7.42-1.365-50.308-4.362-11.39,12.08 2.16,8.028-27.207,15.908-25.489,23.978-1.127,9.06 26.719,16.82 27.229,25.71 1.33,2.87-7.212,8.56-3.39,7.83 .58-.6 1.1-1.26 1.58-1.95" transform="matrix(.70058 -.24759 .42552 .68016 51.17 201.38)"/>
<path opacity=".994" filter="url(#filter8554)" d="m106.52,154.76c5.21-4.14 8.37,.85 9.15,5.65 3.07,6.54 54.62-82.075 58.36-75.901 4.64-7.264-45.32,78.511-45.06,70.441 .36-6.75 3.4-17.01 9.69-19.37 2.61-.31 10.14,5.06 3.85,4.86-3.78-6.41-11.66-12.99-18.84-7.48-5.2,1.38-15.65,8.22-17.98,.68 1.71-6.92 13.52-7.73 11.96-15.99-4.01-4.07-3.08-8.21 2.91-6.54 7.45-.68 15.41,4.41 16.11,12.22 2.71,7.56 4.56,15.45 8.13,22.69 4.16-6.27-.38-13.83 1.15-20.52 4.3,1.5 10.59,6.8 16.73,4.93 4.39-3.62 14.29-5.3 15.59,1.52-8.08,1.39-10.18-9.76-15.76-13.65-3.66-5.81-8.61-11.04-12.78-16.44-1.44-9.575 11.9-5.984 12.68,1.25 4.7,7.27 103.6,41.35 108.72,48.32 .01-5.92-101.98-37.68-99.09-43.54 7.81,3.48 16.89,8.47 18.16,17.82 1.52,6.46 1.81,13.36 5.09,19.28 .14-6.7 80.49-8.87 89.88-10.47 5.92-4.75 23.03,1.06 23.48,8.39 2.86-3.89-99.48-20.59-101.7-25.32 2.3-6.89 17.46-7.78 19.74-11.84-9.81-1.31-19.78,.16-29.57-1.43-3.89-7.347 3.65-15.333-.08-22.97 2.43-8.962 8.26,1.02 10.17,4.84 3.85,8.219 12.2,10.049 20.26,10.535 7.7,1.427 15.97,50.715 23.04,54.025 6.3,.76 10.81-42.98 15.86-39.11 4.64,2.79 9.33,7.11 14.9,7.17-3.96-4.21-11.44-7-16.69-10.74-8.36-5.03-16.63-10.3-24.04-16.674 3.15-6.47 12.67-4.956 18.23-7.717 8.59,.687 15.57,6.384 23.32,9.55 5.45,2.504 14.4,8.631 17.15,9.771-6.07-7.431-10.89-15.804-14.98-24.467-2.68-6.993 11.32-9.035 11.27-9.996-7,.223-15.48-1.381-20.72-5.963-3.37-4.861-9.68-3.192-9.9,2.76-4.04,5.884-16.43,2.737-15.46,12.804-.28,2.937 2.08,70.632 1.2,70.312 1.16-9.69 .21-79.373-.43-89.171-7.33,1.93-13.92,6.769-20.56,9.797-5.39,6.089-4.75,14.729-6.12,22.24-4.06,.939-2.93-9.178-4.63-12.562-1.81-7.142-4.63-14.582-2.44-21.985-.25-7.584-8.33-2.373-7.73,2.872-.53,5.481-5.53,9.919-10,4.764-5.98-1.856-9.86,7.055-15.34,1.146-3.71-2.907-15.8-8.269-11.62,1.072 3.38,7.455 7.25,14.682 9.91,22.454 3.29,6.15-4.31,6.465-6.72,2.047-6.3-3.968-4.98-29.761-11.81-32.306-8.14,1.836-11.87,8.513-19.14,12.671-6,5.704-5.84,33.061-12.33,38.211-3.52,3.48-10.95-72.326-9.51-77.253 1.3-8.664-63.542,38.791-63.753,29.951-5.773-6.136 60.873,20.648 56.833,23.474-7.42-1.365-50.308-4.362-11.39,12.08 2.16,8.028-79.026,41.848-77.309,49.918-1.127,9.06 78.539-9.12 79.049-.23 1.33,2.87-7.212,8.56-3.39,7.83 .58-.6 1.1-1.26 1.58-1.95" transform="matrix(.70486 .16262 -.08222 .55191 245.44 117.41)"/>
</g>
<path opacity=".733" fill="url(#linearGradient3385)" d="m428.88,678.72c19.37-40.12 41.87-53.34 94.46-140.88 59.18-68.39 79.33-60.65 119.46-88.32 22-15.18-29.52-10.08 30.65-39.91 29.96,42 71.27,123.46 71.27,123.46s-42.29-.18-73.98,50.94c-50.77,81.9-61.67,138.79-61.67,138.79s.87-10.48-10.9,24.34c-164.19-57.97-130.54-40.74-169.29-68.42z"/>
<path opacity=".85" fill="#fff" filter="url(#filter3379)" d="m391.84,610.15s86.97-95.16 160.05-117.2c94.1-28.38 148.63-34.48 148.63-34.48s-135.94,18.79-197.4,41.48c-55.03,47.05-111.28,110.2-111.28,110.2z" transform="matrix(.9112 -.41196 .41196 .9112 -147.11 299.46)"/>
<path opacity=".906" fill="url(#linearGradient3405)" filter="url(#filter8598)" d="m96.441,148.58s3.226-1.25 7.829-3.04c2.33-.91 10.41,31.87 13.21,30.78 2.58-1-.13-35.87 2.44-36.87 2.81-1.09 5.5-2.13 7.83-3.04 4.6-1.79 7.83-3.05 7.83-3.05s-2.98-2.12-7.12-5.25c-2.12-1.59-4.53-3.44-7.01-5.41-2.29-1.81-23.858,10.89-26.068,9.01-2.427-2.07 14.528-18.72 12.678-20.57-3.26-3.27-5.24-5.96-4.55-7.21 .59-1.08 3.13-1.1 8.48,.46 2.27,.66 5.03,1.61 8.37,2.88 3.27,1.25 13.23,32.39 16.05,33.46 3.34,1.27-.54-27.55 2.21-26.5 3.47,1.32 19.56,33.99 22.2,35 3.77,1.43-6.31-28.95-3.93-28.04l9.13,3.48s-2.74-2.53-6.45-6.14c-1.92-1.88-4.11-4.04-6.3-6.3-2.08-2.15-4.17-4.38-6.07-6.52-2.24-2.54-4.2-4.95-5.54-6.974-2.57-3.889-2.85-6.314 1.63-5.294 1.88,.426 19.95,26.818 23.67,28.588 2.25,1.08-10.5-22.939-7.46-21.28 2.82,1.54 5.47,2.98 7.97,4.35 2.86,1.56 5.51,3 7.97,4.35 2.92,1.59 4.8,26.86 7.21,28.18 3.02,1.64 6.43-20.75 8.74-19.49 3.29,1.8 5.9,3.22 7.97,4.35l7.97,4.35s-2.49-2.73-5.78-6.78c-1.69-2.06-3.58-4.48-5.46-7.04-1.73-2.37 25.77-7.94 24.25-10.42-1.68-2.726-32.33-2.35-33.31-4.843-1.37-3.48-1.83-6.54-.74-8.642 1.04-2.006-1.89-19.285 2.54-19.08 2.34,.109 10.62,16.737 14.15,17.667 2.97,.779 5.71,1.503 8.27,2.174 3.02,.795 5.76,1.518 8.26,2.174 3.13,.825-2.59,31.53-.2,32.16 3.41,.89 14.58-28.376 16.72-27.811l8.27,2.175s3.08,14.226 6.51,11.106c1.83-1.66 3.37-20.09 5.45-21.978 2.07-1.888 4.15-3.776 5.98-5.436 3.43-3.12 13.48,3.878 13.48,3.878s-4.57-11.593-.98-14.387c2.1-1.633 4.42-3.441 6.52-5.074 3.59-2.794 6.52-5.073 6.52-5.073s-3.61-.076-9.48-.198c-2.72-.057-5.93-.124-9.49-.198-2.95-.061-2.29-7.815-5.65-7.885-3.04-.063-10.07,7.558-13.33,7.49-3.1-.065-6.28-.131-9.49-.198-3.15-.066 2.13-8.588-1.03-8.654-3.2-.066-14.83,8.324-17.94,8.259-3.26-.068-6.44-.134-9.49-.198-3.35-.07-6.54-.136-9.49-.197 3.31-20.678 .71-22.572-9.49-.198-5.87-.123-9.49-.198-9.49-.198s-3.5,.744-8.96,1.903c-2.61,.552-11.03-8.027-14.35-7.323-2.83,.599-.47,10.466-3.59,11.128-2.94,.622-5.95,1.262-8.97,1.902s-1.42,18.193-4.36,18.815c-3.12,.662-10.76-15.609-13.58-15.01-3.32,.705-6.37,1.351-8.97,1.903-5.46,1.159-1.28,25.734-1.28,25.734s1.84-13.438-2-9.344c-1.69,1.805-22.986,47.547-22.5,50.637 .442,2.82 .969,5.75 1.591,8.8" transform="matrix(.93985 -1.0597 1.6874 -.32318 357.67 881.3)"/>
<path opacity=".733" fill="url(#linearGradient3401)" d="m595.19,739.81c19.38-40.13-.45-28.64 52.14-116.18 59.18-68.38 37.35-62.42 97.53-92.25 29.96,42-1.47-20.63 30.49,47.1-58.51,67.77-68.85,151.47-68.85,151.47s-124.51,9.96-111.31,9.86z"/>
<path fill="url(#linearGradient3463)" filter="url(#filter3437)" stroke="#c87137" stroke-width="7.023" d="m459.21,649.3s9.69-46.11 60.07-111.56c37.58-48.81 164.52-108.79 164.52-108.79s-6.67,11.05-9.18-5.66c-18.16,2.85-61.06,16.72-85.28,35.75-48.43,38.05-105.22,101.7-130.13,190.26z"/>
<path opacity=".906" fill="#fff" filter="url(#filter8598)" d="m116.77,147.5s-17.103-.17-12.5-1.96c2.33-.91 21.76-47.325 24.57-48.414 2.57-1.003-.35-11.774 1.98-12.682 4.6-1.789 4.76,48.916 4.76,48.916s.29-71.418-3.85-74.543c-2.12-1.593 2.01,37.969-.47,36.007-2.29-1.814-21.35,18.166-23.2,16.316-3.26-3.27 12.34-31.742 13.03-32.997 .59-1.074-14.45,24.687-9.1,26.247 2.27,.66 21.6,35.27 24.42,36.34 3.34,1.27-.54-27.55 2.21-26.5 3.47,1.32 27.4,10.44 27.4,10.44s-23.02-23.91-24.36-25.934c-2.57-3.889-2.85-6.314 1.63-5.294 1.88,.426 19.95,26.818 23.67,28.588 2.25,1.08-10.5-22.939-7.46-21.28 2.82,1.54 37.79,20.61 39.86,21.74 7.97,4.35 5.48,1.62 2.19-2.43-1.69-2.06-3.58-4.48-5.46-7.04-1.73-2.37 25.77-7.94 24.25-10.42-1.68-2.726-32.33-2.35-33.31-4.843-1.37-3.48-35.37-28.952-34.28-31.054 1.04-2.007 31.65,3.127 36.08,3.332-34.48-17.677 10.62,16.737 14.15,17.667 2.97,.779 6.02-24.494 8.57-23.822 3.02,.795 5.46,27.514 7.96,28.17 3.13,.825 12.39,.377 14.78,1.006 3.41,.897-.4,2.778 1.74,3.343l8.27,2.175s27.53,2.436 30.96-.685c1.83-1.66-50.6-17.329-48.52-19.216 2.08-1.888 86.67,3.238 88.49,1.578 3.44-3.121-24.72,17.335-24.72,17.335s-54.27-25.464-50.68-28.258c-.25-1.612-32.66-.356 41.43-2.645 3.59-2.794 19.05,11.716 13.17,11.594-2.72-.057-22.06-16.989-25.62-17.063-2.95-.061-33.28,11.804-36.63,11.735-3.05-.064 20.91-12.062 17.65-12.13-3.1-.065-6.28-.131-9.49-.198-3.15-.066-21.23,7.792-24.38,7.726-3.2-.066-27.92-9.837-31.03-9.902-3.26-.068 30,1.647 26.95,1.583-3.35-.07-28.75-.409-31.7-.47 3.31-20.678 16.63-53.044 6.43-30.67-5.87-.122-11.63-12.224-11.63-12.224s-23.25,.502-28.71,1.66c-2.6,.552 17.15,34.987 13.83,35.691-2.83,.599-.47,10.466-3.59,11.128-26.07-50.996-12.19-1.481-15.21-.841-3.01,.64 4.82,20.936 1.88,21.558-3.12,.662-2.68-90.177-11.52-44.985-3.33,.705-6.04-10.645-8.65-10.093-5.46,1.159 2.72,25.116 2.72,25.116s-17.39,19.907-21.23,24.002c-1.69,1.805 5.82-45.038 4.16-41.934-1.24,2.325-4.3,58.375-5.28,61.58-.79,2.584 2.02-17.341 1.51-14.107-.42,2.718 9.35-1.271 9.2,1.948-.14,2.781-2.27-56.342-2.15-53.158" transform="matrix(2.2306 -1.1408 .98387 1.5837 -158.08 463.89)"/>
<path opacity=".906" fill="url(#linearGradient8576)" filter="url(#filter8598)" d="m116.77,147.5s-14.83-5.33-10.23-7.12c2.34-.91 10.45,17.72 13.25,16.64 2.58-1.01 5.63-19.7 7.96-20.61 4.6-1.79 7.83-3.05 7.83-3.05s.29-71.418-3.85-74.543c-2.12-1.593-7.8,65.853-10.28,63.883-2.29-1.81-11.54-9.71-13.39-11.56-3.26-3.27-5.24-5.96-4.55-7.21 .59-1.08 3.13-1.1 8.48,.46 2.27,.66 5.03,1.61 8.37,2.88 3.27,1.25 13.23,32.39 16.05,33.46 3.34,1.27-.54-27.55 2.21-26.5 3.47,1.32 15.89,6.05 18.27,6.96l9.13,3.48s-2.74-2.53-6.45-6.14c-1.92-1.88-4.11-4.04-6.3-6.3-2.08-2.15-4.17-4.38-6.07-6.52-2.24-2.54-4.2-4.95-5.54-6.974-2.57-3.889-2.85-6.314 1.63-5.294 1.88,.426 19.95,26.818 23.67,28.588 2.25,1.08-10.5-22.939-7.46-21.28 2.82,1.54 5.47,2.98 7.97,4.35 2.86,1.56 5.51,3 7.97,4.35 2.92,1.59 13.64,7.43 15.95,8.69 3.29,1.8 5.9,3.22 7.97,4.35 7.97,4.35 5.48,1.62 2.19-2.43-1.69-2.06-3.58-4.48-5.46-7.04-1.73-2.37 25.77-7.94 24.25-10.42-1.68-2.726-32.33-2.35-33.31-4.843-1.37-3.48-35.37-28.952-34.28-31.054 1.04-2.007 31.65,3.127 36.08,3.332-34.48-17.677 10.62,16.737 14.15,17.667 2.97,.779 5.71,1.503 8.27,2.174 3.02,.795 5.76,1.518 8.26,2.174 3.13,.825 12.39,.377 14.78,1.006 3.41,.897-.4,2.778 1.74,3.343l8.27,2.175s27.53,2.436 30.96-.685c1.83-1.66-21.08-8.299-19-10.187 2.07-1.888 57.15-5.791 58.97-7.451 3.44-3.121-24.72,17.335-24.72,17.335s-19.36-23.035-15.77-25.829c2.1-1.633 4.42-3.441 6.52-5.074 3.59-2.794 19.05,11.716 13.17,11.594-2.72-.057-22.06-16.989-25.62-17.063-2.95-.061-2.29-7.815-5.65-7.885-3.04-.063-10.07,7.558-13.33,7.49-3.1-.065-6.28-.131-9.49-.198-3.15-.066 2.13-8.588-1.03-8.654-3.2-.066-38.17-25.964-41.28-26.028-3.26-.068 16.9,34.153 13.85,34.089-3.35-.07-39.98-31.214-42.93-31.275 3.31-20.678 27.86-22.239 17.66,.135-5.87-.122-11.63-12.224-11.63-12.224s-23.25,.502-28.71,1.66c-2.6,.552 17.15,34.987 13.83,35.691-2.83,.599-.47,10.466-3.59,11.128-26.07-50.996-9.68-38.118-12.69-37.477-3.02,.64 2.3,57.572-.64,58.194-3.12,.662-2.99-128.85-11.84-83.656-3.32,.7048-5.72,28.026-8.33,28.578-5.46,1.159 2.72,25.116 2.72,25.116s-17.39,19.907-21.23,24.002c-1.69,1.805 5.82-45.038 4.16-41.934-1.24,2.325-8.51,51.017-9.492,54.222-.792,2.586 3.142,6.95 2.642,10.182-.43,2.72 2.41,18.44 2.25,21.66-.13,2.79 7.76-92.985 7.88-89.801" transform="matrix(2.2306 -1.1408 .98387 1.5837 -158.08 463.89)"/>
<path fill="url(#linearGradient3477)" filter="url(#filter3437)" stroke="#c87137" stroke-width="7.023" d="m578.58,721.71s11.65-34.38 62.03-99.83c37.58-48.8 96.47-93.48 96.47-93.48s13.33,17.67 10.83,.95c-56.85,18.97-90.57,96.26-125.3,133.21-23.16,24.63-6.98,31.24-33.77,59.56-26.79,28.31 2.2-44.69-10.26-.41z"/>
<path opacity=".967" fill="#f9f9f9" filter="url(#filter8598)" d="m143.12,193.51c4.92-5.35-9.22-56.32-9.68-61.62 9.17,92.12 67.83,64.38 59.89,65.38-5.88,1.91-88.71-77.4-85.6-83.81-1-3.39 28.59,12.48 29.39,5.48 2.69-7.56 16.66,21.05 22.03,28.04 5.09,1.06-5.47,4.22-3.05,7.64 4.35,5.8 22.47-30.61 24.45-23.47 .35,3.43-30.94,54.36-28.14,49.42 3.06-4.8 27.35,12.82 32.74,9.43 4.82-.99 18.88-18.51 21.36-22.13-4.37-3.3-60.73-26.42-67.51-28.25 5.72,52.45 90.21-7.07 89.45-.46 7.56,9.58 12.66-44.295 18.4-38.96 7.92,4.79-12.68,29.58-4.14,33.15 7.28-1.26 27.54-27.38 25.19-30.19-3.88-4.44-.94-22.387 3.49-18.592 6.21,4.515 16.17-20.986 22.25-16.227-5.8-7.362-13.64,.668-17.43-8.013-.59-6.736 35.72-17.394 36.19-23.218-3.72-2.346-4.65-1.503-9.18-3.125 24.92-26.43-1.99-15.691-8.1-9.439-4.17,4.529-55.22,26.138-59.83,28.522-5.19,3.375-10.55,7.474-17.12,7.079-5.61,.212-15.97,2.282-15.54-6.386 3.37-2.821-94.93,52.599-92.27,61.289 2.38,5.45 29.44,75.37 32.76,78.46z" transform="matrix(.56921 -.66538 .67602 -.01567 580.97 789.72)"/>
<path fill="url(#linearGradient3481)" filter="url(#filter3437)" stroke="#c87137" stroke-width="7.023" d="m682.3,719.75s7.73,10.64 26.81-27.42c27.6-55.06 74.94-107.18 74.94-107.18s9.42,19.63 6.91,2.91c-56.84,18.97-51.43,53.21-68.55,103.86-10.83,32.02-5.02,5.8-31.81,34.11-26.79,28.32 4.15-50.56-8.3-6.28z"/>
<path opacity=".906" fill="url(#linearGradient3504)" filter="url(#filter8598)" d="m140.05,201.77c4.92-5.36-21.8-26.17-20.67-54.87 9.17,92.12 81.89,49.37 73.95,50.37-5.88,1.91-88.71-77.4-85.6-83.81-1-3.39-.46,26.99 .34,19.99 2.68-7.56 45.71,6.54 51.08,13.53 5.09,1.06-34.26,41.94-31.85,45.36 4.35,5.81 51.27-68.33 53.25-61.19 .35,3.43-30.94,54.36-28.14,49.42 3.06-4.8 27.35,12.82 32.74,9.43 4.82-.99 18.88-18.51 21.36-22.13-4.37-3.3-73.77,.3-80.56-1.53 5.73,52.46 103.26-33.79 102.5-27.18 7.56,9.58 12.66-44.295 18.4-38.96 7.92,4.79 15.72,10.01 24.27,13.58 7.27-1.26-.87-7.81-3.22-10.62-3.88-4.44-.94-22.387 3.49-18.592 6.21,4.515 16.17-20.986 22.25-16.227-5.8-7.362 29.42-16.769 25.63-25.45-.59-6.737-7.34,.043-6.87-5.781-3.72-2.346-4.65-1.503-9.18-3.125 24.92-26.43-1.99-15.691-8.1-9.439-4.17,4.529-55.22,26.138-59.83,28.522-5.19,3.375-10.55,7.474-17.12,7.079-5.61,.212-15.97,2.282-15.54-6.386 3.37-2.821-94.93,52.599-92.27,61.289 2.38,5.45 26.37,83.63 29.69,86.72z" transform="matrix(.56921 -.56667 .67602 -.01335 580.97 778.83)"/>
<path opacity=".733" fill="url(#linearGradient3510)" d="m713.17,724.78c36.95-12.62-18.8-3.93 33.79-91.46 59.18-68.39-15.23-16.76 44.94-46.59 29.97,42-2.84,4.27 36.03,62.32-.1,34.62-25.38,52.91-25.38,52.91s-102.58,22.92-89.38,22.82z"/>
<path opacity=".733" fill="url(#linearGradient3526)" d="m198.77-61.766s1.83-14.514 48.03-8.794c22.99,30.543 59.7,67.498 26.95,63.156-106.72-14.151-120.93,17.244-120.93,17.244 0-.0005-12.18-10.257 2.91-34.756 19.87-32.249 43.04-36.85 43.04-36.85z"/>
</g>
<g fill="#fff" transform="translate(-80.359 74.874)">
<path opacity=".85" filter="url(#filter3379)" d="m174.2,10.133s8.13-25.934 65.36-34.074c34.54-4.913 57.17-4.143 57.17-4.143s-62.62,2.492-114.19,17.958c-9.14,22.784-8.34,20.259-8.34,20.259z" transform="matrix(1.0414 .51667 -.48988 1.0984 -29.107 -116.22)"/>
<path opacity=".85" filter="url(#filter3379)" d="m103.78,66.055s39.08-21.896 96.86-23.524c98.25-2.767 102.4-5.535 102.4-5.535s-83.02,1.384-134.22,1.384c-55.04,47.048-65.04,27.675-65.04,27.675z"/>
<path opacity=".85" filter="url(#filter3379)" d="m403.48,591.11s75.33-76.12 148.41-98.16c94.1-28.38 84.75-20.84 84.75-20.84s-72.06,5.15-133.52,27.84c-55.03,47.05-99.64,91.16-99.64,91.16z" transform="matrix(.9112 -.41196 .41196 .9112 -25.344 363.11)"/>
</g>
<g transform="translate(-80.359 74.874)">
<path opacity=".733" fill="url(#linearGradient3317)" d="m87.497,356.04c-16.932-34.92 72.003-71.07 166.1-92.19 95.16-26.87 98.71,.24 155.44-2.52 22-15.18 164.2-7.32 224.38-37.14-19.85,53.07-244.23,145.6-244.23,145.6s-92.11,210.14-123.8,261.27c-72.9-84.15-113.11-128.69-113.11-128.69s-45.29-106.18-64.783-146.33z"/>
<path fill="url(#linearGradient3552)" filter="url(#filter3437)" stroke="url(#linearGradient3560)" stroke-width="7.023" d="m284.86,629.93s17.99-101.47 68.37-166.92c37.58-48.8 128.99-82.27 128.99-82.27s38.45-28.96 76.59-60.01c38.13-31.05 75.96-64.19 74.7-72.55-9.08,1.43-62.16,54.57-110.99,86.74-48.82,32.16-98.91,65.48-113.07,71.54-18.14,7.76-87.38,122.61-124.59,223.47z"/>
<path opacity=".85" fill="#fff" filter="url(#filter3572)" d="m365.06,622.34s118.55-111.25 191.64-133.29c94.09-28.38 224.69-21.35 224.69-21.35s-215.25-14.04-289.5,30.21c-55.03,47.05-126.83,124.43-126.83,124.43z" transform="matrix(.9112 -.41196 .41196 .9112 -302.09 199.83)"/>
</g>
<g fill="#f9f9f9" transform="translate(-80.359 74.874)">
<path opacity=".528" filter="url(#filter3586)" d="m157.75,312.36l94.09-49.81s2.77,66.42 2.77,66.42l49.82,85.79-85.8-121.77-60.88,19.37z"/>
<path opacity=".528" filter="url(#filter3586)" d="m141.14,179.52l77.49-19.37-22.14,41.51 19.38,55.35-49.82-44.28-24.91-33.21z"/>
</g>
<g transform="translate(-80.359 74.874)">
<path opacity=".572" fill="url(#linearGradient3628)" filter="url(#filter3610)" d="m257.38,268.08c-15.5-3.69 149.44-7.38 224.17-11.07l35.97,30.45-27.67-19.38-94.1,110.7-96.86-24.9-41.51-85.8z"/>
</g>
</g>
</svg>
