<svg xmlns="http://www.w3.org/2000/svg" viewBox="0 0 90 90">
<g transform="translate(-13.8 -10.05)">
<path fill="#a56155" d="m13.798-100.05h90v90h-90z" transform="scale(1 -1)"/>
</g>
<g fill="#5f6367" transform="matrix(1 0 0 .92959 28.626 22.866)">
<path d="m-3.628,8.2175v-.7297h-25v-.7298h5v-10.194h-5v-.7297h15v-10.216h-15v-.73h25v-9.487h1v9.487h29v-9.487h1v9.487h29v-9.487h1v9.487h4v.73h-14.375v10.216l14.375,.0003v.7297h-24.375v10.194h24.375v.7298h-4v.7297h-1v-.7297h-29v.7297h-1v-.7297h-29v.7297h-1zm-19-1.4595h28.625l-.0001-10.194h-28.625v10.194zm29.625,0h29v-10.194h-29v10.194zm-19.625-10.924h28.625v-10.216h-28.625v10.216zm29.625,0h29v-10.216h-29v10.216z"/>
<path d="m-3.628,40.218v-.73h-25v-.73h5v-10.194h-5v-.73h15v-10.216h-15v-.73h25v-9.4872h1v9.4872h29v-9.4872h1v9.4872h29v-9.4872h1v9.4872h4v.73h-14.375v10.216h14.375v.73h-24.375v10.194h24.375v.73h-4v.73h-1v-.73h-29v.73h-1v-.73h-29v.73h-1zm-19-1.46h28.625l-.0001-10.194h-28.625v10.194zm29.625,0h29v-10.194h-29v10.194zm-19.625-10.924h28.625v-10.216h-28.625v10.216zm29.625,0h29v-10.216h-29v10.216z"/>
<path d="m-3.628,72.218v-.73h-25v-.73h5v-10.194h-5v-.73h15v-10.216h-15v-.73h25v-9.487h1v9.487h29v-9.487h1v9.487h29v-9.487h1v9.487h4v.73h-14.375v10.216h14.375v.73h-24.375v10.194h24.375v.73h-4v.73h-1v-.73h-29v.73h-1v-.73h-29v.73h-1zm-19-1.46h28.625l-.0001-10.194h-28.625v10.194zm29.625,0h29v-10.194h-29v10.194zm-19.625-10.924h28.625v-10.216h-28.625v10.216zm29.625,0h29v-10.216h-29v10.216z"/>
</g>
<g fill="#a1554d" transform="translate(-13.8 -10.05)">
<path d="m29.85,24.361v-4.75h28.5v9.5h-28.5v-4.75z"/>
<path d="m29.85,83.861v-4.75h28.5v9.5h-28.5v-4.75z"/>
<path d="m49.35,64.236v-4.625h29v9.25h-29v-4.625z"/>
</g>
<g fill="#ad7b7a" transform="translate(-13.8 -10.05)">
<path d="m39.85,44.236v-4.375h28.692l.15,.562c.083,.31 .153,2.278 .155,4.375l.003,3.813h-29v-4.375z"/>
<path d="m49.35,93.986v-4.625h29v9.25h-29v-4.625z"/>
</g>
<g fill="#9e6261" transform="translate(-13.8 -10.05)">
<path d="m19.85,34.486v-4.625h28.5v9.25h-28.5v-4.625z"/>
<path d="m19.85,64.236v-4.625h28.5v9.25h-28.5v-4.625z"/>
<path d="m59.517,58.694c-.092-.092-.167-2.229-.167-4.75v-4.583h29v9.5h-14.333c-7.884,0-14.409-.075-14.5-.167z"/>
<path d="m99.85,73.986v-4.375h3.75v8.75h-3.75v-4.375z"/>
<path d="m13.85,73.986v-4.375h24.692l.15,.562c.083,.31 .153,2.278 .155,4.375l.003,3.813h-25v-4.375z"/>
</g>
<g fill="#885854" transform="translate(-13.8 -10.05)">
<path d="m13.85,44.236v-4.375h24.692l.15,.562c.083,.31 .153,2.278 .155,4.375l.003,3.813h-25v-4.375z"/>
<path d="m99.85,44.236v-4.375h3.75v8.75h-3.75v-4.375z"/>
<path d="m79.35,93.986v-4.625h24.25v9.25h-24.25v-4.625z"/>
<path d="m13.85,93.986v-4.625h5v9.25h-5v-4.625z"/>
</g>
<g fill="#a15d52" transform="translate(-13.8 -10.05)">
<path d="m39.85,14.486v-4.375h29v8.75h-29v-4.375z"/>
<path d="m39.85,73.986v-4.375h28.692l.15,.562c.083,.31 .153,2.278 .155,4.375l.003,3.813h-29v-4.375z"/>
<path d="m79.35,64.236v-4.625h24.25v9.25h-24.25v-4.625z"/>
<path d="m13.85,64.236v-4.625h5v9.25h-5v-4.625z"/>
</g>
</svg>
