<svg xmlns="http://www.w3.org/2000/svg" viewBox="0 0 635.72 517.53">
<g stroke="#000">
<g fill="#650000" transform="translate(26.344 -111.657)">
<path d="m291.52,175.39v-17.717l61.372,35.433v17.717z"/>
<path d="m352.89,210.83v-17.717l61.372,35.433v17.717z"/>
<path d="m414.26,246.26v-17.717l61.372,35.433v17.717z"/>
<path d="m475.63,281.69v-17.717l61.372,35.433v17.717z"/>
<path d="m322.2,210.83v-17.717l61.372,35.433v17.717z"/>
<path d="m383.57,246.26v-17.717l61.372,35.433v17.717z"/>
<path d="m444.95,281.69v-17.717l61.372,35.433v17.717z"/>
<path d="m291.52,210.83v-17.717l61.372,35.433v17.717z"/>
<path d="m352.89,246.26v-17.717l61.372,35.433v17.717z"/>
<path d="m414.26,281.69v-17.717l61.372,35.433v17.717z"/>
<path d="m322.2,246.26v-17.717l61.372,35.433v17.717z"/>
<path d="m383.57,281.69v-17.717l61.372,35.433v17.717z"/>
<path d="m444.95,317.13v-17.717l61.372,35.433v17.717z"/>
<path d="m291.52,246.26v-17.717l61.372,35.433v17.717z"/>
<path d="m352.89,281.69v-17.717l61.372,35.433v17.717z"/>
<path d="m414.26,317.13v-17.717l61.372,35.433v17.717z"/>
<path d="m322.2,281.69v-17.717l61.372,35.433v17.717z"/>
<path d="m383.57,317.13v-17.717l61.372,35.433v17.717z"/>
<path d="m291.52,281.69v-17.717l61.372,35.433v17.717z"/>
<path d="m352.89,317.13v-17.717l61.372,35.433v17.717z"/>
<path d="m322.2,317.13v-17.717l61.372,35.433v17.717z"/>
<path d="m383.57,352.56v-17.717l61.372,35.433v17.717z"/>
<path d="m291.52,193.11v-17.717l30.686,17.717v17.717z"/>
<path d="m291.52,228.54v-17.717l30.686,17.717v17.717z"/>
<path d="m291.52,263.98v-17.717l30.686,17.717v17.717z"/>
<path d="m291.52,299.41v-17.717l30.686,17.717v17.717z"/>
<path d="m506.32,317.13v-17.717l30.686,17.717v17.717z"/>
<path d="m475.63,317.13v-17.717l30.686,17.717v17.717z"/>
<path d="m444.95,352.56v-17.717l30.686,17.717v17.717z"/>
<path d="m414.26,352.56v-17.717l30.686,17.717v17.717z"/>
</g>
<g fill="#c80000">
<g transform="translate(26.344 -111.657)">
<path d="m76.715,281.69v17.717l61.372-35.433v-17.717z"/>
<path d="m138.09,246.26v17.717l61.372-35.433v-17.717z"/>
<path d="m199.46,210.83v17.717l61.372-35.433v-17.717z"/>
<path d="m107.4,281.69v17.717l61.372-35.433v-17.717z"/>
<path d="m168.77,246.26v17.717l61.372-35.433v-17.717z"/>
<path d="m230.14,210.83v17.717l61.372-35.433v-17.717z"/>
<path d="m76.715,317.13v17.717l61.372-35.433v-17.717z"/>
<path d="m138.09,281.69v17.717l61.372-35.433v-17.717z"/>
<path d="m199.46,246.26v17.717l61.372-35.433v-17.717z"/>
<path d="m107.4,317.13v17.717l61.372-35.433v-17.717z"/>
<path d="m168.77,281.69v17.717l61.372-35.433v-17.717z"/>
<path d="m230.14,246.26v17.717l61.372-35.433v-17.717z"/>
<path d="m138.09,317.13v17.717l61.372-35.433v-17.717z"/>
<path d="m199.46,281.69v17.717l61.372-35.433v-17.717z"/>
<path d="m230.14,281.69v17.717l61.372-35.433v-17.717z"/>
<path d="m168.77,317.13v17.717l61.372-35.433v-17.717z"/>
<path d="m107.4,352.56v17.717l61.372-35.433v-17.717z"/>
<path d="m138.09,352.56v17.717l61.372-35.433v-17.717z"/>
<path d="m46.029,317.13v17.717l61.372-35.433v-17.717z"/>
<path d="m199.46,317.13v17.717l61.372-35.433v-17.717z"/>
<path d="m168.77,352.56v17.717l61.372-35.433v-17.717z"/>
<path d="m230.14,317.13v17.717l61.372-35.433v-17.717z"/>
<path d="m46.029,299.41v17.717l30.686-17.717v-17.717z"/>
<path d="m76.715,334.84v17.717l30.686-17.717v-17.717z"/>
<path d="m107.4,334.84v17.717l30.686-17.717v-17.717z"/>
<path d="m138.09,370.28v17.717l30.686-17.717v-17.717z"/>
<path d="m260.83,175.39v17.717l30.686-17.717v-17.717z"/>
<path d="m260.83,210.83v17.717l30.686-17.717v-17.717z"/>
<path d="m260.83,246.26v17.717l30.686-17.717v-17.717z"/>
<path d="m260.83,281.69v17.717l30.686-17.717v-17.717z"/>
</g>
<g transform="translate(26.344 -111.657)">
<path d="m291.52,494.29v17.717l30.686-17.717v-17.717z"/>
<path d="m322.2,476.57v17.717l61.372-35.433v-17.717z"/>
<path d="m291.52,512.01v17.717l61.372-35.433v-17.717z"/>
<path d="m352.89,476.57v17.717l61.372-35.433v-17.717z"/>
<path d="m291.52,529.72v17.717l30.686-17.717v-17.717z"/>
<path d="m291.52,565.16v17.717l30.686-17.717v-17.717z"/>
<path d="m291.52,600.59v17.717l30.686-17.717v-17.717z"/>
<path d="m291.52,547.44v17.717l61.372-35.433v-17.717z"/>
<path d="m291.52,582.87v17.717l61.372-35.433v-17.717z"/>
<path d="m322.2,512.01v17.717l61.372-35.433v-17.717z"/>
<path d="m322.2,547.44v17.717l61.372-35.433v-17.717z"/>
<path d="m322.2,582.87v17.717l61.372-35.433v-17.717z"/>
<path d="m352.89,547.44v17.717l61.372-35.433v-17.717z"/>
<path d="m352.89,512.01v17.717l61.372-35.433v-17.717z"/>
<path d="m383.57,441.14v17.717l61.372-35.433v-17.717z"/>
<path d="m414.26,441.14v17.717l61.372-35.433v-17.717z"/>
<path d="m383.57,476.57v17.717l61.372-35.433v-17.717z"/>
<path d="m383.57,512.01v17.717l61.372-35.433v-17.717z"/>
<path d="m383.57,547.44v17.717l61.372-35.433v-17.717z"/>
<path d="m414.26,512.01v17.717l61.372-35.433v-17.717z"/>
<path d="m414.26,476.57v17.717l61.372-35.433v-17.717z"/>
<path d="m444.95,405.71v17.717l61.372-35.433v-17.717z"/>
<path d="m475.63,405.71v17.717l61.372-35.433v-17.717z"/>
<path d="m444.95,441.14v17.717l61.372-35.433v-17.717z"/>
<path d="m444.95,476.57v17.717l61.372-35.433v-17.717z"/>
<path d="m444.95,512.01v17.717l61.372-35.433v-17.717z"/>
<path d="m475.63,476.57v17.717l61.372-35.433v-17.717z"/>
<path d="m475.63,441.14v17.717l61.372-35.433v-17.717z"/>
<path d="m506.32,370.28v17.717l61.372-35.433v-17.717z"/>
<path d="m537,370.28v17.717l61.372-35.433v-17.717z"/>
<path d="m506.32,405.71v17.717l61.372-35.433v-17.717z"/>
<path d="m506.32,441.14v17.717l61.372-35.433v-17.717z"/>
<path d="m506.32,476.57v17.717l61.372-35.433v-17.717z"/>
<path d="m537,441.14v17.717l61.372-35.433v-17.717z"/>
<path d="m537,405.71v17.717l61.372-35.433v-17.717z"/>
<path d="m291.52,476.57v17.717l61.372-35.433v-17.717z"/>
<path d="m352.89,441.14v17.717l61.372-35.433v-17.717z"/>
<path d="m414.26,405.71v17.717l61.372-35.433v-17.717z"/>
<path d="m475.63,370.28v17.717l61.372-35.433v-17.717z"/>
<path d="m537,334.84v17.717l61.372-35.433v-17.717z"/>
<path d="m567.69,334.84v17.717l30.686-17.717v-17.717z"/>
<path d="m567.69,370.28v17.717l30.686-17.717v-17.717z"/>
<path d="m567.69,405.71v17.717l30.686-17.717v-17.717z"/>
<path d="m567.69,441.14v17.717l30.686-17.717v-17.717z"/>
</g>
</g>
<g fill="#650000" transform="matrix(1 0 0 -1 -280.516 806.063)">
<path d="m291.52,494.29v17.717l30.686-17.717v-17.717z"/>
<path d="m322.2,476.57v17.717l61.372-35.433v-17.717z"/>
<path d="m291.52,512.01v17.717l61.372-35.433v-17.717z"/>
<path d="m352.89,476.57v17.717l61.372-35.433v-17.717z"/>
<path d="m291.52,529.72v17.717l30.686-17.717v-17.717z"/>
<path d="m291.52,565.16v17.717l30.686-17.717v-17.717z"/>
<path d="m291.52,600.59v17.717l30.686-17.717v-17.717z"/>
<path d="m291.52,547.44v17.717l61.372-35.433v-17.717z"/>
<path d="m291.52,582.87v17.717l61.372-35.433v-17.717z"/>
<path d="m322.2,512.01v17.717l61.372-35.433v-17.717z"/>
<path d="m322.2,547.44v17.717l61.372-35.433v-17.717z"/>
<path d="m322.2,582.87v17.717l61.372-35.433v-17.717z"/>
<path d="m352.89,547.44v17.717l61.372-35.433v-17.717z"/>
<path d="m352.89,512.01v17.717l61.372-35.433v-17.717z"/>
<path d="m383.57,441.14v17.717l61.372-35.433v-17.717z"/>
<path d="m414.26,441.14v17.717l61.372-35.433v-17.717z"/>
<path d="m383.57,476.57v17.717l61.372-35.433v-17.717z"/>
<path d="m383.57,512.01v17.717l61.372-35.433v-17.717z"/>
<path d="m383.57,547.44v17.717l61.372-35.433v-17.717z"/>
<path d="m414.26,512.01v17.717l61.372-35.433v-17.717z"/>
<path d="m414.26,476.57v17.717l61.372-35.433v-17.717z"/>
<path d="m444.95,405.71v17.717l61.372-35.433v-17.717z"/>
<path d="m475.63,405.71v17.717l61.372-35.433v-17.717z"/>
<path d="m444.95,441.14v17.717l61.372-35.433v-17.717z"/>
<path d="m444.95,476.57v17.717l61.372-35.433v-17.717z"/>
<path d="m444.95,512.01v17.717l61.372-35.433v-17.717z"/>
<path d="m475.63,476.57v17.717l61.372-35.433v-17.717z"/>
<path d="m475.63,441.14v17.717l61.372-35.433v-17.717z"/>
<path d="m506.32,370.28v17.717l61.372-35.433v-17.717z"/>
<path d="m537,370.28v17.717l61.372-35.433v-17.717z"/>
<path d="m506.32,405.71v17.717l61.372-35.433v-17.717z"/>
<path d="m506.32,441.14v17.717l61.372-35.433v-17.717z"/>
<path d="m506.32,476.57v17.717l61.372-35.433v-17.717z"/>
<path d="m537,441.14v17.717l61.372-35.433v-17.717z"/>
<path d="m537,405.71v17.717l61.372-35.433v-17.717z"/>
<path d="m291.52,476.57v17.717l61.372-35.433v-17.717z"/>
<path d="m352.89,441.14v17.717l61.372-35.433v-17.717z"/>
<path d="m414.26,405.71v17.717l61.372-35.433v-17.717z"/>
<path d="m475.63,370.28v17.717l61.372-35.433v-17.717z"/>
<path d="m537,334.84v17.717l61.372-35.433v-17.717z"/>
<path d="m567.69,334.84v17.717l30.686-17.717v-17.717z"/>
<path d="m567.69,370.28v17.717l30.686-17.717v-17.717z"/>
<path d="m567.69,405.71v17.717l30.686-17.717v-17.717z"/>
<path d="m567.69,441.14v17.717l30.686-17.717v-17.717z"/>
</g>
<g fill="#ff3c3c" transform="translate(26.344 -111.657)">
<path d="m260.83,458.86 61.372-35.433 30.686,17.717-61.372,35.433z"/>
<path d="m322.2,423.43 61.372-35.433 30.686,17.717-61.372,35.433z"/>
<path d="m383.57,387.99 61.372-35.433 30.686,17.717-61.372,35.433z"/>
<path d="m444.95,352.56 61.372-35.433 30.686,17.717-61.372,35.433z"/>
<path d="m506.32,317.13 61.372-35.433 30.686,17.717-61.372,35.433z"/>
<path d="m291.52,441.14-61.372-35.433-30.686,17.717 61.372,35.433z"/>
<path d="m230.14,405.71-61.372-35.433-30.686,17.717 61.372,35.433z"/>
<path d="m168.77,370.28-61.37-35.44-30.685,17.72 61.375,35.43z"/>
<path d="m107.4,334.84-61.371-35.43-30.686,17.72 61.372,35.43z"/>
<path d="m-15.343,299.41 61.372-35.43 30.686,17.71-61.372,35.44z"/>
<path d="m46.029,263.98 61.372-35.433 30.686,17.717-61.372,35.433z"/>
<path d="m107.4,228.54 61.372-35.433 30.686,17.717-61.372,35.433z"/>
<path d="m168.77,193.11 61.372-35.433 30.686,17.717-61.372,35.433z"/>
<path d="m230.14,157.68 61.372-35.433 30.686,17.717-61.372,35.433z"/>
<path d="m383.57,175.39-61.372-35.433-30.686,17.717 61.372,35.433z"/>
<path d="m444.95,210.83-61.372-35.433-30.686,17.717 61.372,35.433z"/>
<path d="m506.32,246.26-61.372-35.433-30.686,17.717 61.372,35.433z"/>
<path d="m567.69,281.69-61.372-35.433-30.686,17.717 61.372,35.433z"/>
</g>
</g>
</svg>
