<svg xmlns="http://www.w3.org/2000/svg" viewBox="0 0 342.594 351.735" xmlns:xlink="http://www.w3.org/1999/xlink" enable-background="new 0 0 342.594 351.735">
<g fill-rule="evenodd">
<g>
<path fill="#010101" d="m192.39,3.847c1.411-2.492 6.613-.512 6.999,1.939 .306,1.952 2.289,.915 3.619,1.395 1.593,.575 2.216,2.315 3.502,3.279 .748,.56 1.503,.524 2.391,.479 1.076-.054 1.827,.596 2.623,1.237 1.213,.977 1.472,2.898 2.809,3.417 2.076,.807 3.635,1.638 5.067,3.383 1.268,1.543 3.62,1.446 4.865,3.008 .816,1.024 .512,2.685 1.362,3.692 1.06,1.254 3.627,.105 4.125,2.555 .131,.646 .137,1.893 .995,2.045 .795,.141 1.395-.676 2.166-.52 1.521,.308 1.906,2.34 2.657,3.406 1.133,1.608 1.82-1.247 2.939-1.605 2.295-.736 4.043,.139 6.15-1.385 .604-.437 3.584-1.186 4.316-.765 .922,.53 .953,1.389 1.981,.558 .823-.667 2.076,.078 2.684-.989 .324,.324 1.977,2.503 2.422,2.337 .816-.305 1.725-1.304 2.465-1.815 2.202-1.521 4.542,.268 6.107,1.834-.379-1.803 2.338-1.913 3.481-2.081 .749-.11 1.637-1.013 2.382-.832 1.049,.255 1.124,1.63 1.989,2.127 1.158-2.041 5.167-2.056 6.458-.371 2.209,2.883 5.757-.454 7.934,2.022 .985,1.121 1.633,2.483 2.752,3.503 1.08,.985 2.56,1.168 3.674,2.072 1.431,1.162 4.136,5.28 5.883,2.196-.185,.883 .624,.771 1.202,.729 .669-.048 .339,1.003 .309,1.331-.068,.747 .611,.35 .812,.77 .359,.751-.37,1.793 .929,1.897 4.157,.333 9.592,.935 11.265,5.462 .709,1.917 1.389,3.841 2.929,5.267 1.945,1.801 1.9,4.248 1.273,6.634-.558,2.122 .088,2.903 1.245,4.604 1.496,2.198-.089,5.016-1.117,7.074 1.306,0 2.807,.321 3.712,1.34 .86,.968 .892,2.42 1.827,3.34 1.01,.993 2.603,1.061 3.674,2.114 1.108,1.09 1.399,2.865 2.51,3.809 2.668,2.268 4.751,3.851 6.131,7.275 .648,1.609 .802,3.326 1.325,4.968 .67,2.107 2.048,3.901 2.144,6.186 .081,1.907-.257,3.833-.082,5.733 .133,1.431-1.015,2.021-.479,3.356 .521,1.299 1.499,2.499 1.652,3.925 .188,1.736-1.999,2.361-1.766,4.06 .269,1.947 .515,2.687-.242,4.622-.469,1.2-.57,2.766-1.654,3.621-1.085,.855-2.73,.673-3.703,1.697-.389,.409-.418,1.17-.547,1.682-.245,.977-.952,1.765-1.249,2.731-.857,2.792 3.76,2.199 4.804,4.267 .722,1.428 .827,3.115 1.23,4.643 .533,2.018 1.638,3.088 2.823,4.702 2.096,2.853-.212,6.679 1.292,9.75 .65,1.327-.428,2.112-.684,3.332-.263,1.246 1.429,2.27 1.627,3.522 .238,1.501-.237,2.311-.929,3.548-.765,1.37-.172,2.582 .402,3.907 .651,1.506 .917,3.221 .613,4.847-.295,1.581-1.91,2.814-1.697,4.466 .16,1.239-1.334,1.434-1.655,2.471-.479,1.547-.916,3.089-1.941,4.381-1.648,2.074-4.811,2.979-6.958,4.335-1.084,.685-.856,2.29-.725,3.347 .238,1.905-.67,2.344-2.282,2.97-1.392,.54-2.89,1.313-3.369,2.845-.158,.504 .061,1.263-.413,1.649-.625,.512-1.346,.759-2.001,1.314-.858,.729-1.795,.314-1.938,1.758-.147,1.48-1.763,2.662-3.123,3.002-.716,.179-5.188,.659-3.041,1.912-.922,.922-1.713,2.034-2.908,2.632-1.031,.517-2.092,.399-3.136,.993-1.541,.876-3.446-1.59-5.078-.322-.905,.703-1.275,1.333-2.508,1.536-1.385,.229-2.817,.079-4.181,.461-1.489,.417-1.946,1.717-3.186,2.432-.917,.529-2.166,.962-3.223,1.037-1.027,.072-2.164-.997-2.861-1.633-1.168-1.063-2.118-1.682-3.713-1.907-2.882-.409-4.854-.933-6.574-3.41-1.766-2.545-4.14-3.42-6.244-5.524-2.421-2.42-2.721-6.419-2.721-9.644-1.021,.577-.502,1.943-.834,2.842-.3,.814-1.652,.623-2.295,.881-2.659,1.062-4.021,4.077-5.129,6.516-1.088,2.396-1.945,5.1-3.924,6.944-2.556,2.382-5.962,1.39-9.021,.879 .47,2.288-3.188,3.535-4.816,3.98-1.593,.435-1.303,1.263-1.498,2.647-.079,.558-.601,.845-.826,1.324-.474,1.014-.437,2.182-.785,3.235-.884,2.667-2.87,5.408-2.601,8.334 .248,2.692 3.921,2.472 5.689,1.334 .998-.643 1.028-2.229 1.219-3.278 .285-1.582 1.064-2.587 2.438-3.421 1.321-.802 3.278-1.523 4.704-.549 .92,.628 1.924,2.662 3.251,1.819 1.244-.789 1.929-1.82 3.363-2.403 1.567-.636 3.248-1.208 4.889-1.626 2.246-.572 8.906-.848 9.059,2.803 .114,2.742-4.603,3.923-6.147,5.463-1.299,1.295-1.593,3.16-2.483,4.7-.931,1.609-2.035,3.852-3.286,5.213-1.724,1.875-4.941,3.981-7.486,4.216-.9,.084-1.899-.103-2.781-.26-1.261-.226-1.571-1.062-2.547-1.377-3.099-1.002-3.802-3.749-7.369-1.718-3.722,2.12-5.248,5.623-6.214,9.631-2.031,8.427-4.088,16.887-5.312,25.474-.616,4.32-1.12,8.656-1.661,12.986 1.497,0 3.756,.171 4.915-.988 1.672-1.672 3.395,.659 4.509,1.773-.937,.532-.669,1.693-1.056,2.532-.611,1.327-2.642,1.787-3.715,2.65-2.475,1.989-4.29,5.705-4.871,8.768-.721,3.796-1.172,7.664-1.497,11.509-.332,3.921-1.215,7.731-1.436,11.673-.265,4.722-1.246,10.378-5.522,13.174-2.392,1.563-5.907,2.343-8.724,2.491-1.703,.09-3.133-.514-4.769-.809-.844-.152-1.896-1.202-2.647-.963-1.03,.327-1.136,1.614-2.098,2.107-1.111,.57-2.445,1.133-3.622,1.553-2.767,.988-5.118,.552-7.781-.306-3.048-.982-6.078,1.056-8.925,1.828-3.55,.965-7.016-.235-9.922-2.298-2.55-1.811-5.998-2.557-8.2-4.796-1.459-1.483-2.329-.585-4.09-.334-1.807,.258-3.63-.55-5.279-1.184-2.681-1.032-5.38-2.439-6.75-5.098-1.643-3.188-.976-6.871-.976-10.302 .357,1.874-.575-1.117-.632-1.655-.143-1.36-.363-2.678-.612-4.024-.729-3.942-1.409-7.894-2.047-11.853-1.215-7.534-2.234-15.096-3.287-22.654-.976-7.002-2.042-13.957-2.649-20.999-.281-3.254-1.391-4.835-4.342-6.109-2.828-1.223-4.152-2.628-7.448-1.556-1.081,.352-5.235,1.502-5.287,2.94-.039,1.055 1.878,1.83 2.543,2.405 1.294,1.12 2.349,2.497 3.258,3.939 1.455,2.308 2.667,5.358 1.618,8.085-.477,1.238-1.437,2.263-2.001,3.468-.591,1.261-1.631,1.859-2.271,3.012-.687,1.235 .324,2.931 .723,4.092 .459,1.342 .173,2.624-.413,3.87-1.402,2.977-3.621,5.316-6.144,7.382-2.422,1.984-5.014,3.942-6.639,6.679-.76,1.28-.666,2.809-1.042,4.203-.426,1.577-2.07,2.898-1.806,4.64-.472-.822-1.638-.763-1.988-1.705-.381-1.026-2.028-1.847-2.74-2.719-2.044-2.506-5.225-3.815-6.976-6.598-2.007-3.189-1.174-6.771-1.962-10.249-.816-3.598-2.713-6.513-4.579-9.601-.684-1.131-.612-2.358-.924-3.597-.426-1.691-1.421-2.919-1.375-4.76 .083-3.325 2.034-6.797 4.322-9.119 2.53-2.569 5.444-3.543 8.798-4.546 3.271-.978 5.099-3.461 7.245-5.948 1.882-2.181 3.886-4.375 6.482-5.713 1.582-.814 3.354-1.199 5.058-1.67 .65-.18 1.808-.765 2.485-.405 .741,.393 .969,.698 1.866,.771 3.257,.264 12.081,6.688 11.1-.521-.545-4.006-2.376-7.656-3.613-11.461-2.346-7.222-6.091-13.479-10.634-19.535-1.837,2.402-5.177,2.966-8.001,3.195-2.464,.201-7.578,.14-9.39-2.068-.582-.709-4.567-2.339-3.451-3.562 .906-.993 2.723-1.397 3.859-2.125 1.563-1.001 2.973-2.323 3.737-4.044 .587-1.324 .708-2.899 1.828-3.938 .685-.635 2.438-.615 2.709-1.656 .625-2.392-2.641-3.765-4.306-4.554-2.148-1.019-4.021-3.229-6.295-3.77-1.361-.323-2.837,.379-4.137,.687-2.067,.487-2.254,2.464-3.163,4.031-1.688,2.911-4.957,4.998-8.376,4.518-1.529-.215-2.597-.94-3.792,.348-1.287,1.388-2.784,1.892-4.666,1.48-1.59-.347-3.133-1.185-4.266-2.355-.921-.953-1.751-2.181-3.253-2.05-1.311,.115-7.359-.522-7.685-2.359-.508-2.873-3.562-2.025-5.459-3.274-1.147-.755-2.348-2.002-3.138-3.122-.743-1.054-.559-3.398-1.912-3.689-.933-.2-2.355-.259-3.27-.023-1.295,.334-2.09,1.645-3.238,2.266-1.334,.722-2.909,.948-4.402,.728-1.857-.275-3.172-1.594-4.951-2.018-1.288-.307-2.55,.054-3.845,.018-1.257-.035-1.994-1.15-3.168-1.091-1.306,.066-.455-1.204-.651-2.016-.284-1.17-2.221-1.014-3.105-1.093-2.687-.239-5.571-.873-6.948-3.442-.721-1.345-1.415-3.087-1.58-4.615-.132-1.219 .244-3.002-.755-3.951-1.154-1.097-2.306-2.214-3.291-3.471-1.224-1.562-1.183-3.156-1.676-4.984-.344-1.274-1.958-1.757-2.194-3.06-.21-1.155 .149-2.596 .691-3.618 .469-.882 1.454-1.234 2.005-2.032 .753-1.089 .208-2.608 .842-3.78 1.048-1.938 4.242-1.154 5.167-2.914 .954-1.817-5.224-3.952-6.275-4.18-3.147-.684-5.588-2.843-6.317-6.098-.611-2.729 1.74-4.575 2.583-6.928 .446-1.246-1.142-2.226-1.717-3.153-.797-1.283-.873-2.981-.264-4.346 .465-1.043 1.093-1.371 1.972-2.024 1.078-.802-.257-1.783-.804-2.508-1.576-2.089-.455-5.979 1.984-6.834 2.929-1.027 2.488-2.005 3.251-4.617 .528-1.809 3.384-4.638 5.456-4.203-.746-1.493-1.646-3.098-1.601-4.821 .054-2.028 1.758-2.757 3.171-3.817-2.574-2.574-3.771-4.523-1.647-7.74 1.609-2.437 .688-6.333 3.669-7.788 1.999-.976 .732-3.983 1.283-5.653 .384-1.162 1.437-1.294 2.499-1.375 2.177-.167 1.011-2.344 1.233-3.754 .523-3.304 4.703-2.841 5.887-5.407 .484-1.052 .038-2.851 1.348-3.406 1.527-.646 3.003-.564 3.97-2.123 1.445-2.332 5.44-.872 6.233-3.676 .435-1.54 1.737-1.565 3.104-1.435 1.99,.19 2.963-1.403 4.728-1.5 1.554-.086 2.836,1.203 3.866,2.155 .734,.679 1.972-1.797 2.51-2.124 1.315-.799 3.077-1.376 4.489-2.103 1.446-.744 1.459-2.594 3.162-3.103 .754-.225 1.553-.221 2.271-.577 .801-.397 1.298-1.151 2.211-1.35 1.375-.301 2.645,.592 3.973,.775 1.181,.163 2.567,.211 2.635-1.313 .029-.641-.058-1.389 .465-1.884 .519-.491 1.405-.911 1.442-1.729 .086-1.883-.383-3.176 .273-5.095 .506-1.482 .973-3.003 1.779-4.357 .708-1.189 1.664-2.291 3.028-2.677 1.94-.549 1.373-1.404 1.749-3.164 .315-1.479 .796-2.822 2.259-3.424 1.367-.563 1.466-1.836 2.348-2.861 .778-.904 1.931-1.208 3.065-1.382 1.475-.227 3.142-1.803 4.681-1.319 4.081,1.282 3.788-1.392 4.804-4.755 .401-1.329 1.394-2.88 2.771-3.374 1.436-.514 2.726,.431 4.138,.365 1.224-.057 2.099-1.117 3.081-1.708 1.539-.927 2.594-.03 3.902,.798 1.846,1.17 2.833-.205 3.796-1.724 .988-1.559 2.614-2.494 4.424-2.793 1.704-.282 2.925,.234 4.29,1.193 1.829,1.286 3.518,1.787 5.74,1.867 1.681,.06 3.584,.097 5.014,1.118 1.205,.86 1.222,2.782 2.425,3.516 .954,.582 2.424,.141 3.46,.102 1.792-.067 2.42,.881 3.699,1.927 1.594,1.305 6.581,.587 6.581-1.954 1.741,3.026 5.466-4.016 6.995-4.542 1.638-.563 3.355,.502 5.024,.353 .878-.079 1.786-.768 2.67-.564 .461,.106 .85,.58 1.332,.573 1.265-.017 1.68-2.156 3.32-2.202 1.709-.049 3.468,.928 5.164,.396 1.584-.497 1.889-2.444 3.66-2.62 1.647-.163 3.749-1.106 4.816,.753-.415-1.474 2.845-2.173 3.791-2.265 2.33-.235 3.16,2.952 4.9,3.824"/>
</g>
<g fill="#557c3e">
<path d="m138.21,97.296c-.354,1.685 1.01,1.241 2.032,.923 .448-.139 1.198,.099 1.542-.311 .218-.26 .231-.597 .623-.686 .778-.177 2.232,.677 2.742,1.207 1.054,1.096 .153,4.413 .914,5.934 .436-.758 1.571-.761 1.571-1.803 0-1.344 1.703-2.12 2.839-2.191 2.123-.134 2.271,2.823 3.443,3.995 1.404-1.404 3.483-5.735 6.057-4.521 2.877,1.357-.59,4.485-.589,6.418 .001,2.775 3.904-.521 5.054-.282 1.507,.312 1.838,2.987 1.667,4.178-.27,1.874-2.41,2.913-2.555,4.791-.133,1.735 1.186,1.221 1.848,.33 .708-.951 .907-1.576 2.241-1.61 4.184-.109 1.203,3.363-.009,5.048-.547,.76-1.34,2.21-1.215,3.157 .264,2.013 3.008-.652 3.417-1.131 .7-.821 1.892-1.746 3.059-1.271 1.592,.648 .062,4.181-.126,5.31 .689,0 3.517-.712 3.142,.785 1.277-.639 2.96-.637 3.938,.531 .604,.721 1.402,2.364 .19,2.955-.805,.392-2.597,.977-2.686,2.074-.126,1.561 2.98,2.312 3.886,3.161 1.5,1.404-3.35,3.354-1.306,4.355 1.002,.49 2.056,.271 2.98,1.085 .771,.679 1.604,2.861 .586,3.669-1.57,1.247-4.311-1.034-5.305,1.435-.398,.991-.424,2.172-1.568,2.628-1.134,.451-3.164,.554-4.102-.365-1.16-1.136-.016-2.937 .544-4.052 .915-1.819-.559-3.226-1.047-4.893-.414-1.409 .89-2.818 .249-4.189-.757-1.616-2.565-2.113-4.213-2.113 1.602,.459 1.58-1.868 1.264-2.795-.542-1.591-2.531-3.992-4.258-4.312-1.28-.237-3.376,.738-4.438,1.372-.995,.594-1.768,2.725-.354,3.428 .271,.135 1.855-2.402 2.601-2.799 1.464-.78 3.168-.642 4.132,.824 2.283,3.471-2.285,4.07-3.013,6.631-.413,1.452 1.887,.734 2.408,.393 1.258-.823 2.565-1.886 3.944-.579 3.441,3.264-3.586,4.28-3.78,6.312-.122,1.282 5.637-1.764 5.064,1.851-.228,1.438-.545,2.981-2.172,3.315-1.258,.259-3.005-.042-3.754,1.28 2.19,0 4.963,.281 4.722,3.146-.178,2.116-1.824,5.067-4.335,4.647-1.904-.319-1.371,2.782-2.501,3.614-.936,.689-4.678,.609-4.167-1.198-.393,.68-6.231,1.032-3.926,2.355-.455,.096-2.876-.773-3.257-1.044-.576-.41-1.709-2.978-1.391-3.527 .333-.575 1.764,.061 2.328-.158 1.15-.447 2.137-1.518 2.905-2.447 1.123-1.357 .565-2.74 1.314-4.167 .734-1.396 2.005-2.174 1.701-3.921-.21-1.214-.948-2.579-2.073-3.172-.259-.137-3.601-.682-3.077,.13 .403,.625 1.986,.639 2.597,1.314 .623,.688 .689,1.631 .408,2.483-.611,1.851-2.605,3.516-4.597,3.516 .498,.286 .785,.794 .785,1.367 0,.703 1.128,.769 1.57,.989-.817,.817-1.492,2.035-2.675,2.376-1.25,.361-2.607-.381-3.823,.054-1.021,.365 1.569,2.513 .842,3.506-.764,1.045-2.831,1.261-4.017,1.159-.936-.08-2.885-.503-3.454-1.365-.766-1.16-.241-1.02-1.794-1.02 .972,1.944 2.595,3.483 4.646,4.263 1.301,.495 4.793-.571 5.563-1.907 1.073,2.146 2.994,1.55 4.399,2.947 .504,.501-.229,1.416-.206,2.031 .04,1.084 .564,2.101-.026,3.142-1.539,2.71-3.596-.653-5.015,.834-.688,.72 .802,1.759 .775,2.511-.042,1.164-1.766,2.424-2.762,2.692-1.607,.433-1.117-2.292-1.103-3.115 .023-1.31-2.004-3.239-3.208-2.624-1.391,.711-2.185,2.395-3.777,2.797-2.02,.511-1.49-3.064-3.212-2.579 .276-.554 .91-1.358 .486-2.003-.48-.732-1.552-.746-1.929,.074-.774,1.682-1.197,2.283-3.295,2.548-1.578,.199-3.125-.032-4.103-1.444-.613-.884-.391-1.727-.523-2.717-.158-1.178-1.525-1.494-1.699-.121-.109,.857 1.077,3.43 1.527,4.229 1.08,1.914 4.785,2.203 6.618,1.612 2.39-.771 2.46-.46 4.072,1.351 1.548,1.739 4.227,.454 5.913-.388-.854,.854-1.652,2.662-3.141,2.356 .902,1.694 2.515-.945 3.141-1.571 0,2.595-.614,2.442-2.789,3.058-2.259,.639-2.982,3.291-5.793,2.137-1.15-.472-.585-3.386-2.243-1.67-1.43,1.48-2.259,2.642-4.613,1.881-2.059-.665-3.299-1.942-2.797-4.075 .18-.767 .11-1.93-.996-1.196-.735,.489-.59,1.775-.601,2.536-.034,2.575 1.428,3.11 3.69,3.708 1.025,.271 2.382-.042 3.449-.011 1.178,.035 2.22-1.436 3.255-.429 4.684,4.549 9.328-5.739 13.641-1.915 2.267,2.01 1.077,4.107-1.49,4.982-1.119,.381-2.567,.7-2.649-.827-.055-1.023-.785,.003-.855,.393-.303,1.69 .406,3.522-.573,5.065-1.413,2.228-4,1.395-5.362-.381-.462-.603-2.978-4.306-3.901-2.562-.771,1.456-.918,3.984-3.506,3.44 .703-.399 1.055-1.941 .835-2.657-.427-1.393-2.159,.584-2.539,.97-.919,.934-2.379,1.557-3.688,1.205-.363-.097-2.346-1.737-2.464-2.315-.202-.989-.201-2.022-1.171-2.64-1.087-.693-.369,2.469-.229,2.792 .492,1.131 1.7,2.88 2.989,3.172 .852,.193 1.392,.186 2.083,.766 .892,.75 1.3-.757 2.18-.487 .812,.249 .621,1.745 .502,2.332-.253,1.257-.706,1.189-1.597,1.8-1.219,.835-2.619,.663-4.067,.629-1.287-.031-1.585-1.21-2.468-1.932-.832-.68-1.606,1.136-1.871,1.632-.746,1.403-2.303,1.487-3.638,.795-1.185-.615-1.645-1.838-2.587-2.699-1.511-1.382-3.964-1.005-5.83-1.005 1.467-.733 3.367-1.581 3.841-3.322 .604-2.215-.754-4.584-2.271-6.102 .791-.396 1.673-.797 2.1-1.629 .396-.773-.05-1.7 .339-2.476 .623-1.243-.015-1.676-1.059-2.779-.828-.875-1.775-1.311-2.793-1.94-.153-.095-1.112-.637-.614-.916 1.446-.808 1.461-1.07 1.455-2.938-.008-2.334-1.856-2.864-2.823-4.758-.587-1.149 1.114-2.391 1.857-3.333 1.215-1.539 .358-3.033-.986-4.138-1.661-1.366-3.643-1.06-5.298-2.174-.782-.527-.741-1.426-.92-2.247-.21-.967-.954-1.394-1.748-1.851-1.38-.795-3.473-.933-3.683-2.719-.148-1.263-.28-2.502-1.72-2.813-2.757-.595-1.365-.655-1.297-2.957 .056-1.91-1.41-1.793-2.779-2.299-2.238-.827-.99-3.614-2.69-4.827-1.49-1.064-3.922-.828-5.499-.093-1.67,.779-1.94,2.91-4.039,2.91 .523-.523 .952-1.146 1.571-1.571 .667-.458 1.451-.363 1.815-1.213 .696-1.629 1.916-1.008 3.033-2.015 .942-.85 .685-2.424 .655-3.542-.036-1.346 1.508-1.555 2.365-2.169 2.801-2.006-.178-5.908 2.11-7.432 1.186-.791 2.647-1.674 3.257-3.028 .805-1.786-.825-3.642-.641-5.464 .149-1.478 1.433-1.937 2.737-1.776 1.517,.188 .882-.503 1.125-1.468 .057-.225 2.601-1.284 2.969-1.374 .819-.201 3.638,2.295 3.859,.528 .115-.913-.684-.693-1.123-.937-.353-.195-.301-1.578-.264-1.871 .126-1 1.69-2.641 2.688-2.756 2.083-.24 4.182-.043 6.271-.087 2.117-.044 3.986,.836 6.051,.836-.872,.872-3.599,2.76-1.57,3.926-.383-1.354 3.221-3.097 4.263-3.238 1.02-.139 2.225,.145 2.827,1.05 .141,.211 .981,2.188 .966,2.188 1.881,0 1.837-2.932 3.697-3.11 3.156-.302 3.814,3.757 5.523,5.466-.249-1.484 .477-5.117 2.274-5.333 2.5-.265 4.58-1.701 7.16-1.701"/>
<path d="m99.727,97.296c1.119,.235 1.994-.75 3.067-.818 .931-.06 1.477,1.018 2.43,.818h-5.493"/>
<path d="m106.01,97.296c.384-.384 2.027-1.733 .749-2.03-.547-.127-1.104-.187-1.649-.329-.795-.207-.461-.96-.882-1.445-1.169-1.347-1.897,.867-2.674,1.168-1.535,.595-3.386,.273-4.123-1.348-.671-1.477 .081-2.182 1.126-2.99 1.214-.938-.268-1.583-1.2-1.13-.955,.465-1.953,1.448-3.04,.751-.611-.392-1.613-2.306-2.443-2.071 .982-1.962-.272-2.778-1.801-1.395-1.355,1.226-3.741,.6-5.152-.216-1.068-.617-1.178-3.258-.73-4.269 .589-1.327 2.574-1.188 3.757-1.188-.605-1.211-3.596-2.188-3.108-3.844 .249-.845 4.76-3.006 4.669-3.169-.06-.107-2.729-.49-3.144-.73-1.189-.691-2.559-1.842-2.928-3.232-.33-1.244 .876-2.537 1.721-3.289 1.489-1.326 3.37-.657 5.146-.657-.944-1.643-3.343-1.514-4.049-3.343-.491-1.271-.258-2.558 .705-3.521 .949-.949 2.594,.336 3.345-.989-1.229,.253-2.597-1.211-3.068-2.194-.572-1.192 .248-3.325 .95-4.335 1.294-1.863 5.479-2.834 6.83-.539 0-1.784-.703-3.792 .511-5.357 1.186-1.531 3.142-.413 4.201,.646 .868-1.734 .633-1.405-.491-2.801-.793-.985 .047-2.713 .66-3.574 1.872-2.629 5.334,.099 6.899,1.663-.338-1.694-1.609-4.915 .472-6.002 .774-.405 2.226-.702 3.06-.398 .932,.339 .249,2.688 1.748,1.588 1.941-1.426-.767-4.632 1.333-6.137 .712-.511 2.825-1.676 3.225-.211 .273,.999 .347,2.702 1.652,1.431 .61-.594 2.547-4.157 3.661-3.295 .847,.655 .735,3.045 1.626,3.376 .418,.155 .89-1.619 .969-1.768 .766-1.461 2.118-2.666 3.495-3.539 2.267-1.438 2.863-.344 3.773,1.613 1.105,2.377 2.39-.807 3.21-1.553 .843-.768 3.186-.988 3.772,.274 .532,1.144 .227,2.8 2.144,1.677 1.053-.617 1.997-1.627 3.199-.669 1.233,.982 1.964,2.037 3.699,1.182 3.096-1.526 5.016-5.648 5.222-8.948 .125-1.998 1.927-5.617 4.57-4.043 1.164,.692 1.77,2.188 1.77,3.485 0,.346 .874,2.686 1.367,2.097 .932-1.113-.352-2.855 .932-4.071 .69-.653 2.049-1.59 2.989-.887 .773,.579 1.45,1.884 2.461,2.066 1.558,.282 .227-2.231 .022-2.646-1.817-3.701 6.325-4.799 5.594-1.32 0-2.448-.816-4.337-3.683-3.932-1.097,.155-2.182,.684-2.885,1.557-.765,.95-.655,2.155-2.083,2.375-.889,.138-1.857,0-2.677,.448-2.115,1.156-1.291-.102-3.172-.607-.588-.158-2.049-.488-2.273-.356-.569,.334-2.288,.268-2.073,1.301-2.783-1.601 2.925-2.785 3.493-3.589 .604-.858 .136-2.173 .982-2.859 .788-.64 2.08-.276 2.956-.076 2.412,.55 3.646-1.068 5.772,.53 2.508,1.887 3.523-1.638 5.067-2.852 1.719-1.351 3.715,1.668 5.213-.774 .648-1.056 1.655-1.96 2.934-2.093 .568-.059 3.731,.65 3.334,1.617-.267,.648-1.24,.836-1.48,1.458-.275,.708-.166,1.541-.577,2.208-.53,.862-1.689-.475-2.38-.508-1.298-.063-2.156,1.5-2.926,2.303-1.672,1.746-2.346,5.208-1.354,7.462 .354,.803 1.215,1.17 2.075,1.089 1.126-.106-.841-1.723-.996-2.001-1.303-2.337 .534-4.789 2.057-6.296 1.964-1.943 3.781,3.222 4.796,1.755 1.184-1.71-1.072-5.218 2.011-6.05 2.715-.735 4.959-1.584 6.124,1.564 .414,1.122 .539,.907 .019,2.135-.174,.409-.243,2.145 .677,1.566 1.959-1.232 1.153-3.972-.103-5.227 1.688,0 2.547-.279 4.101-.833 1.764-.628 1.194,1.756 1.579,2.688 1.462,3.549 3.806-.257 6.198,1.616 1.53,1.198 .587,5.991 3.493,3.855 2.174-1.598 3.808-.022 4.17,2.166 .272,1.646 .477,4.492 2.794,3.251 1.871-1.002 3.205-1.452 3.763,1.051 .171,.765 .272,2.144 1.046,2.587 .838,.481 1.835-.745 2.722-.663 1.766,.162 .451,2.742 .013,3.434-.719,1.134-1.217,2.511-.481,3.799 1.21,2.118 4.451-2.9 6.617-1.111 1.613,1.333-1.183,5.826 1.554,5.497 2.073-.249 4.473-.622 4.134,2.494-.146,1.34-1.005,2.633-2.194,3.273-1.539,.827-2.49-.399-3.918-.162-1.074,.178-.079,2.771-.607,3.511-1.471,2.063-5.451-1.237-6.37,.262-.903,1.473 2.609,3.049 3.388,4.174 .697,1.008 .183,2.277-.832,2.825-1.699,.917-3.053-.599-4.467-1.307 0,.925-.217,2.047 .582,2.72 .994,.837 2.405,1.29 1.864,2.95-.95,2.919-4.143-.518-6.051-.11-1.079,.231 .418,2.533 .479,3.061 .213,1.815-1.956,1.754-3.049,1.225-1.616-.782-2.478-2.521-4.543-1.887-2.012,.618 .57,2.164 .944,2.984 .401,.879 .689,2.595-.467,3.025-1.062,.395-2.804,1.796-3.877,1.722-1.408-.097-1.864-2.034-2.422-3.032-.727-1.302-1.957,.051-2.763,.623-.692,.491-5.252,1.271-5.079-.134 .103-.823-1.246-1.468-1.62-2.424-.243-.624-.7-1.178-.7-1.881 0-.532-1.329-.57-1.57-.989 0,2.932 1.976,5.116 3.927,7.067-1.528,.764-2.398,2.377-3.927,3.141 .975-3.838-8.488-2.189-9.408,.654-.191,.593 .261,1.125-.673,.989-.985-.142-1.895-.595-2.867-.789-.825-.165-2.2,1.308-2.585,1.958-.65,1.099 .37,2.718-.958,3.469 .895-.252 1.012,1.007-.069,.879-.704-.083-.646-1.041-.497-1.514 .278-.888 .996-1.562 1.26-2.483 .389-1.363-.549-2.286-.517-3.588 .024-.932 .876-1.409 1.245-2.175 .453-.938 .205-2.15 .571-3.149 .943-2.575 3.417-4.635 1.934-7.602 1.749,.502 1.413-2.136 .907-2.912-.456-.698-.173-1.578-.643-2.272-.623-.919-1.661-1.404-2.62-1.884 2.945-1.703-.794-4.916-.837-6.7-.03-1.224 1.204-2.491 .549-3.689-.53-.969-2.212-1.665-3.055-2.448-1.383-1.285-2.359,.455-3.79,.301-.901-.097-3.319-.893-3.706-1.795-.958-2.231-4.923-4.004-6.438-1.374 0-2.211-1.05-3.898-3.149-4.679-1.318-.491-3.884,1.057-5.119,1.536-.768,.298-2.596,3.397-1.552,3.169 1.336-.292 2.437-2.382 3.771-2.382 1.425,0 4.589-1.924 4.278,1.295-.069,.715-1.265,4.55 .997,3.213 1.086-.642 3.121-3.568 4.575-2.172 1.589,1.526-.659,4.44-.659,6.302 .406-.203 4.64-3.959 4.585-1.918-.014,.513-1.015,3.72 .899,2.515 1.47-.926 1.829-2.532 3.711-2.923 1.691-.351 3.257,1.605 3.131,3.202-.185,2.344-2.461,1.647-2.966,3.366-.615,2.095 2.396,.36 3.267,.763 4.271,1.975-5.773,5.767 .226,7.868 .512,.179 1.214,.42 1.288,1.058 .128,1.1-1.178,.833-1.68,1.502-1.555,2.073 1.193,2.777 1.365,4.401 .236,2.244-3.463,1.589-4.335,2.743-.761,1.006 1.261,2.305 1.088,3.391-.327,2.056-2.65,.388-3.317-.246-.928-.884-2.861-.574-1.87,.909 .781,1.168 2.397,2.222 1.607,3.817-.742,1.499-3.009,1.059-3.857,2.534 1.537-.32 .419,1.65 .003,2.158-1.314,1.6-3.109-.07-4.715,.198 1.446,1.446 3.293,2.08 3.431,4.373 .098,1.65-.172,3.583-.904,5.081-.738,1.511-3.421,1.862-4.916,2.206-1.878,.432-3.184-1.489-4.678-2.236 1.261,2.523 3.056,4.89 3.688,7.685 .457,2.023-2.106,2.684-3.339,3.594-2.221,1.64-4.569,.622-6.196-1.386-1.112-1.373-1.39-3.61-3.577-3.61 2.337,1.331 .205,5.688-1.979,5.937-2.089,.237-2.506-2.235-4.204-2.665-.701-.177-1.436-.054-1.742-.872-.246-.659-1.269-2.104-.212-2.5 1.3-.487 3.663-1.516 4.922-.948 .153,.069 1.46,.913 1.588,.838 1.205-.715 2.679-.732 3.963-1.239 .863-.34 1.328,.287 1.777,.907 .699,.965 1.997,.608 2.876,.153 1.754-.909 .812-3.4 2.436-4.324-1.218,.253-.805-1.919-1.571-2.356 1.703,0 3.725-.916 4.804-2.237 .938-1.148 2.558-4.577 1.997-6.035-.648-1.681-3.038-2.169-4.607-2.357-.496-.06-3.26-.222-2.256,.895 1.254,1.396 6.675-.835 5.502,2.703-.632,1.905-2.159,3.48-3.42,4.989-1.45,1.734-3.966,1.257-5.946,1.257 .984,1.288 3.688,1.261 3.932,3.147 .168,1.311-1.935,1.865-1.576,3.135-1.033-.516-2.982-2.376-4.219-1.992-1.099,.34-1.517,1.649-2.756,1.781-1.609,.171-2.58-2.525-4.09-1.923-1.093,.436-1.68,1.782-2.723,2.37-1.146,.647-2.424,.222-3.538-.278-1.062-.477-2.548-4.622-3.876-2.313 1.516-.435 2.46,3.377 3.756,3.879 1.091,.423 .993,.68 .227,1.699-.712,.947-1.331,2.064-2.403,2.657-3.428,1.893-4.09-3.488-6.818-1.804-2.598,1.603-2.915-1.039-2.443-2.925 .117-.467 .561-1.385 .383-1.873-.283-.777-1.707,.446-1.866,.748-.794,1.503-.719,4.602 .704,5.75 1.531,1.235 5.516-.69 6.005,1.923 .242,1.292-1.322,1.362-2.178,1.143-1.895-.486-3.449-2.001-4.791-3.343 .429,2.037-3.12,4.12-4.884,4.083-1.077-.023-4.67-2.956-5.324-1.727 1.556-.327 1.344,1.774 2.356,2.355-1.5-.002-3.07-.002-4.64-.002"/>
<path d="m135.06,97.296c.52,0 3.17-.6 3.15-.632 .64,1.005-2.85,.632-3.15,.632"/>
<path d="m128.78,10.129c.684-1.369 2.162-3.471 3.926-2.356 1.835,1.16 1.437,3.822 2.84,5.316 1.657,1.763 3.387-.318 5.031-.789 1.555-.445 2.375,1.561 3.053,2.567 1.002,1.487 2.187,1.118 3.746,.812 2.181-.428 3.303,2.03 1.363,3.298-1.23,.804-3.875,.397-3.405,2.606 .395,1.859 2.77,.689 3.862,.325-.545,1.638-1.189,4.988-3.164,5.508-1.494,.393-1.649-1.704-3.004-1.629-.811,.045-2.819,.382-2.47,1.619-.725-.412-.512-1.353-.787-2.002-.389-.915-2.476-1.172-3.326-1.167-1.18,.006-1.644,.723-2.645,1.085-.999,.362-1.879-.735-2.734-1.044-2.408-.872-4.232,1.32-5.813,2.755-1.308,1.188-2.492,1.412-3.541-.412-.876,1.147-2.473,2.464-4.022,2.288-1.096-.125-1.813-.757-2.977-.409-.985,.295-2.103,.893-2.917,1.518-1.092,.839-.571,3.202-1.554,3.657-1.34,.621-2.614-.448-3.876,.831-.779,.79-1.208,1.854-1.997,2.633-1.18,1.167-2.083,.086-3.396,.164-2.122,.126-5.488,4.291-2.821,5.809-1.331,0-3.681,.539-4.581,1.627-.858,1.038-.13,2.69-.13,3.87-.525-.913-1.172-.669-1.918-.199-1.051,.664-1.421,.001-2.125-.703-.658-.658-2.51-4.551 .116-3.811-1.794,.3-4.216-1.647-3.939-3.549 .148-1.019 1.211-1.843 2.094-2.229 .303-.132 2.995-1.471 1.13-1.302-2.473,.226-3.689-2.786-2.871-4.79 .981-2.403 4.287-3.836 6.728-3.836-1.028-1.815-2.674,0-4.089,0-1.795,0-3.258,1.34-4.026,2.865-.892,1.771-.035,3.222 .468,4.936 .585,1.996-.132,3.928-.277,5.926-.116,1.591 1.103,1.134 1.7,2.125 .995,1.648-1.416,1.061-2.055,.849-1.503-.5-2.7,.382-4.098,.833-1.967,.635-3.877-1.225-5.683-1.828 .758-1.337 5.325-.14 3.11-2.678-1.126-1.291-2.203-3.391-1.248-5.117 .477-.862 1.395-.803 2.244-.894 .85-.09-.415-1.812-.202-2.449 .323-.963 1.889-1.778 2.62-2.501 1.319-1.303 2.098,.731 3.532,.433 .912-.19-1.568-3.735-1.486-4.461 .172-1.535 1.335-2.032 2.643-2.327 1.703-.385 1.362-1.479 1.659-2.897 .351-1.678 1.404-1.157 2.573-.871 1.28,.313 2.068-1.027 3.287-.891 2.818,.313 4.027,.707 5.612-2.046 1.192,2.039 1.674-1.658 1.728-2.444 .108-1.586 .452-5.453 3.031-4.512 1.285,.468 2.853,2.4 4.076,.829 .561-.721 1.986-3.107 3.143-2.753 1.261,.386 .944,3.207 2.412,3.797 1.704,.685 3.572-3.764 4.459-4.718 1.467-1.578 4.641-2.793 6.443-1.102 1.007,.945 1.205,2.386 2.095,3.392 .64,.708 1.64,.443 2.46,.443"/>
</g>
<g fill="#010101">
<path d="m144.49,17.982c-.286,1.359 1.63,2.664-.198,3.573-1.787,.889-3.146,2.709-5.299,2.709 1.432-1.432 5.083-2.646 4.784-5.171-.325-2.737-4.404-1.442-5.569-3.467 2.34,0 4.61,.678 6.29,2.356"/>
<path d="m221.45,31.332c0,1.867-.616,3.656-1.24,5.391-.639,1.775-.874,3.87-1.907,5.472-1.244,1.928-1.475,2.996-1.848,5.249-.277,1.677-.633,2.52-2.299,2.771-1.672,.253-1.149,2.713-1.681,3.819-.773,1.609-1.63,2.748-3.508,2.524-2.146-.255-1.886,.482-3.37,1.521-1.111,.777-3.017,.197-3.779,1.525-.683-1.201-2.471-.676-3.018-2.044-.444-1.113-1.045-2.153-1.58-3.224-.339-.677-1.311-.364-1.685-1.015 .35,1.237-2.211,1.63-2.98,1.598-2.085-.089-4.046-.771-5.541-2.267-1.403-1.404-1.861-3.584-1.715-5.505 .094-1.233 1.225-3.696 2.384-1.679-1.321-.275-.249,1.847-1.571,1.57 1.33,2.659 2.196,6.775 5.887,6.881 1.388,.04 3.119-.392 3.96-1.593 .457-.653-.552-2.666-.101-2.844 2.049-.808 1.568,4.599 4.874,2.38 1.107-.743 1.966-1.789 2.887-2.736 .714-.734 .301-.522 .03-1.469-.163-.57-1.262-.738-1.234-1.106 .027-.363 4.172,.111 4.935-.426 1.261-.888 2.347-2.261 1.594-3.834-.252-.526-4.37-4.332-4.697-3.87 .831-1.167 3.844,.704 4.469,1.297 1.669,1.587 1.872,3.754 .58,5.632-1.135,1.647-2.926,2.472-4.211,3.931-1.194,1.355-1.826,3.104-3.692,3.702-.746,.239-3.785-.17-4.001,.711-.376,1.537 1.942,3.669 3.163,4.135 1.476,.562 3.642-.145 4.644-1.371 .488-.598 .194-3.68 1.283-3.125 1.018,.519 1.502,2.07 2.689,2.261 1.351,.217 2.153-1.742 2.487-2.722 .646-1.891 .121-1.538-1.064-2.777-1.006-1.051 2.392-.716 2.865-.922 1.38-.601 2.756-2.431 2.191-3.996-.609-1.689-1.2-2.08 .553-3.247 .961-.641 2.925-2.825 2.271-4.097-.585-1.139-2.972-.793-2.519-2.573 1.938,.97 5.072-.58 3.991-2.987-.423-.941-1.465-2.222-2.505-2.519-1.117-.319-2.229,.922-3.493,.751-2.064-.278 .062-2.19 1.17-2.095 .835,.071 2.468,.803 3.332,1.09 1.03,.333 1.81,2.138 3.02,1.832"/>
</g>
<g fill="#557c3e">
<path d="m273.28,32.903c1.49,0 2.845-1.23 4.361-.755 1.546,.485 .643,2.822 2.213,3.227 1.246,.321 1.938-1.646 3.156-1.741 1.511-.117 2.679,1.468 3.62,2.41-2.492,1.431-2.045,5.422 1.263,4.749 1.36-.277 2.14-1.929 3.635-1.784 1.255,.122 2.327,2.065 2.068,3.219-.081,.361-.545,.047-.601,.48-.09,.699 .39,1.326 .748,1.865 .932,1.401 2.369-.295 3.172-.928 1.449-1.142 2.606-.101 2.193,1.556-.48,1.923 .014,3.263 .871,4.978 1.175-1.176 2.244-2.736 3.949-3.163 2.069-.517 3.768,1.037 5.62,1.708 1.579,.573 2.735,1.17 2.339,2.931-.316,1.409-.605,1.901-1.612,2.492-.85,.498 2.483,1.627 2.604,1.641 1.531,.168 2.636,.97 2.059,2.633-1.065,3.071-2.948,1.321-5.016,.684-.401-.124-1.628-.456-1.213,.406 .712,1.477 2.263,.879 2.25,2.902-.009,1.461 1.56,2.561 .182,3.93-1.097,1.09-2.764,1.232-4.094,1.897 1.878,.976-.523,2.957-1.49,3.539-.636,.383-2.067,.527-1.654,1.607 .519,1.356 .675,2.148 .003,3.491-.291-.505-2.089-1.211-2.193-.203-.078,.743 .805,1.391-.3,1.798-.702,.259-2.112,.325-2.459-.548-.107-.27-1-2.714-.544-1.048 .241-.854-1.027-.716-.786-1.57-1.53,.88 .396,4.863 2.23,4.72 .858-.067 2.202-1.264 3.043-.67 1.177,.833-.133,1.968-.885,2.481-2.914,1.988-2.979-1.708-5.495-1.985-1.455-.16-1.281,2.884-2.004,3.675-1.663,1.821-3.841-1.524-4.957-2.338-2.361-1.721-3.535,3.06-5.609,.535-.954-1.162-1.255-2.271-2.835-2.752-1.457-.443-2.866-.732-4.221-1.465-1.589-.858-2.749-.607-4.438-.112-1.601,.469-1.528,2.043-1.528,3.408-1.31-2.281-5.589-2.874-7.531-1.37-1.552,1.201-1.668-.281-3.043-.064-1.502,.237-2.92,.762-3.82,2.015-1.729,2.405-4.612-.517-6.884-.952-.986-.189-6.073-1.15-5.422,1.157-1.099-1.915-4.3-2.356-6.282-2.356 2.099-1.195 .306-3.314-1.05-4.222-2.016-1.351-3.801-.623-3.723-3.675 .128-5.003-6.814-4.134-9.909-3.382-2.48,.603-1.036-.849-1.701-2.319-.656-1.449-3.145-1.678-4.503-1.511-1.522,.187-2.79,3.258-4.413,1.834-.733-.644-3.218-3.111-1.319-3.814 1.132-.419 2.414-.042 3.584-.194 1.531-.2 1.982-1.224 2.746-2.367 1.034-1.55 3.758-1.091 5.379-1.719 1.212-.47 .906-1.597 .787-2.616-.149-1.275 1.294-1.669 1.918-2.57 1.247-1.801 .491-4.486 2.126-5.808 .785-.635 1.2-1.476 1.725-2.314 .811-1.297 1.815-1.316 3.093-1.887 2.479-1.106 3.414-3.776 4.984-5.693 .658-.802 1.746-1.9 2.646-2.42 1.181-.683 1.943,.519 3.012,.752 .948,.208 1.394-1.034 1.739-1.663 .638-1.164 1.958-1.749 3.089-2.314 0,1.437 .491,3.835 2.388,3.695 1.562-.115 1.123-2.778 2.521-3.117 1.344-.326 1.744,2.068 2.125,2.876 1.083,2.3 2.903,.04 3.603-1.313 2.833-5.484 4.408,3.289 7.176,.443 1.017-1.046 1.666-3.059 3.497-2.439 .73,.255 3.17,2.608 3.8,1.427"/>
<path d="m77.739,47.823c.305,.61 .87,1.801 1.664,1.859 1.06,.078 1.015-2.116 1.307-2.726 1.018-2.124 7.729,.617 6.999,2.487-.571,1.462-1.952,2.154-2.121,3.911-.143,1.483 .957,2.687 .837,4.12-.119,1.416-1.674,1.801-1.534,3.498 .134,1.613 .166,2.808-.71,4.229-1.194,1.935-3.066,4.335-1.062,6.521 .604,.659 2.517,1.404 2.334,2.517-.217,1.328-2.118,1.73-2.38,3.022-.24,1.178 1.269,1.927 .876,3.121-.385,1.171-2.097-.375-2.797-.297-.976,.109-5.306,.731-4.981,2.291-1.225-.716 .049-1.52 .752-1.966 1.487-.942 1.522-2.145 1.908-3.772 .372-1.568 1.624-2.509 2.427-3.835 1.087-1.795 .167-3.315-1.024-4.754-.492-.594-1.576-2.531-2.631-1.968-1.697,.904-.058,2.082 .934,2.251 3.213,.55 .7,5.049-.795,6.192-.487-.856-2.652-1.388-2.518,.146 .116,1.322 2.461,.849 2.252,2.572-.163,1.341-2.3,3.954-3.811,3.726-1.181-.178-3.449-3.636-4.562-1.733 .845,.845 1.884,1.258 .732,2.41-.738,.738-1.11,1.798-2.206,.871-2.718-2.298-5.769-.572-7.164,2.216-1.323-1.323-2.876-1.927-4.688-1.202-1.666,.667-1.584,2.599-2.958,3.45-2.879,1.787-7.527-3.78-5.2-4.654 1.737-.652 .442-1.937-.856-1.426-1.527,.602-1.618,3.222-.986,4.466 .881,1.735 2.912,2.508 4.735,2.635 1.531,.106 1.315,.841 1.315,2.228-1.392-.696-3.745-1.18-4.736,.431-.423,.687-.424,3.542-1.395,3.262-1.777-.514-2.345-.391-3.909,.636-1.438,.944-3.124,2.101-4.932,1.777-1.122-.201-3.549-1.352-2.875-2.921 .3-.7 1.731-2.037 .257-2.343-.854-.178-2.049,.28-2.829-.057-1.708-.739-1.48-3.077 0-3.926-1.545,0-2.548,.055-3.047,1.719-.309,1.033 .647,.242 .75,1.008 .101,.751 .018,1.101 .565,1.688 1.243,1.332 2.363,1.668 2.776,3.587 .379,1.757 2.684,2.138 1.807,3.991-.531,1.122-1.691,2.192-.949,3.508 .755,1.338 2.627,2.745 .449,3.856-4.022,2.051-5.484,6.56-.782,8.913-1.282,.642-3.125,1.449-3.149,3.147-.023,1.606 1.556,2.708 2.364,3.92-1.27,.635-3.133,1.742-2.871,3.436 .275,1.778 1.785,3.632 3.656,3.632-1.053,2.107-1.242,4.804 .965,6.242 2.657,1.729 1.215,2.881-.568,4.528-1.483,1.37-.261,2.823-2.858,2.057-.648-.191-4.244-1.051-3.821,.524-1.626-1.244-2.271-3.575-4.712-2.356 1.759,1.009 .044,3.393-.996,4.232-1.712,1.382-3.35-.566-5.173-.362-1.657,.185-3.686-.824-4.367-2.38-.901-2.057 2.418-3.589 1.113-6.201-.941,1.884-3.566,6.263-6.159,6.025-2.892-.265-2.772-3.59-1.844-5.508 .683-1.409 2.896-3.972 1.915-5.634-.995-1.688-4.716-2.904-2.703-5.628 1.184-1.603 5.125-2.285 2.35-4.841-2.067-1.904-1.676-5.483 1.344-6.367 1.787-.523 4.075,.075 3.093-2.618-1.165-3.196 1.959-4.501 4.388-5.455 .665-.261 1.762-1.111 2.487-.562 .766,.581 .851,2.208 1.45,2.995 1.639,2.153 3.583-2.78 4.897,.385 .32,.77 .347,1.882 .875,2.538 .865,1.073 1.345-1.554 1.326-1.965-.053-1.174-1.03-2.419-2.261-2.419-.923,0-1.558-1.729-2.509-1.347-1.358,.546-1.255,.13-2.097-.871-.866-1.029-2.371-.856-3.404-1.618-1.968-1.451-.598-4.63 .727-6.022 2.016-2.12 4.868-1.071 5.437,1.681 .267,1.293 .188,2.363 1.456,3.106 .959,.562 1.995,.906 2.584,1.929 .879-1.552 3.007-.377 4.283-1.175 .716-.447 .895-1.49 0-1.853-1.048-.424-2.137,.5-3.246,.351-2.283-.309-3.777-.136-3.476-2.926 .159-1.472 1.943-3.969-.811-3.682-1.318,.137-3.465,.373-3.983-1.254-.725-2.274 1.947-2.988 3.194-4.206 .739-.723-.358-.855-.856-.919-1.186-.153-1.98,.553-2.76,1.333-.622,.622-.573,1.599-.907,2.358-.619,1.403-.826,1.051-.075,2.551-2.815-1.407-2.867-5.497 .785-5.497-1.405-1.074-2.134-3.363-1.202-4.957 .393-.672 .846-1.45 1.284-2.091 .562-.824 2.089-.684 2.936-.954-.542,.173-.534-3.988-.486-4.381 .323-2.646 2.744-2.029 4.416-2.782 1.135-.511-.149-1.481-.459-2.042-.461-.837 .48-2.943 1.085-3.618 .739-.824 2.156-.67 3.131-.954 1.482-.429 1.285-2.295 1.792-3.472 .386-.893 .995-2.27 2.167-2.26 1.173,.009 2.354,1.253 3.058-.433 .33-.79 .058-1.89 1.229-1.946 1.194-.058 3.637,.606 4.316-.804 .451-.938 .118-2.19 1.299-2.711 1.179-.52 2.659,1.103 3.7,.242 .489-.404 .49-1.644 1.32-1.54 .904,.114 .774,2.018 1.825,1.721-.948,.948-2.417,1.51-2.997,2.795-.574,1.272 .23,3.584 1.426,4.272-1.384,.691-2.815,1.577-3.625,2.941-.744,1.25 .126,2.161 .389,3.36 .295,1.345-1.207,1.888-1.895,2.743-.929,1.155 .145,2.847 .802,3.869 1.426,2.215 6.238,.438 2.684-.216-2.623-.482-2.19-4.66 .271-4.01 .519,.137 2.017,1.476 1.802,.094-.162-1.043-.858-.826-1.509-1.364-2.428-2.006 .163-4.942 2.677-4.979 3.558-.052-1.394-3.328-1.629-4.931-.344-2.34 4.729-3.535 6.314-3.006 0-1.282-.209-2.89 .77-3.907 1.518-1.576 3.911-.472 5.766-.804 .955-.171 .081-1.906 .648-2.473 1.047-1.047 2.563-2.56 4.208-2.233 .437,.086 1.439-1.561 2.321-1.562 2.204-.004 4.388,.771 6.625,.771 .425,0-.3-1.499 .416-1.622 1.044-.178 3.044,1.266 2.804,2.409"/>
</g>
<g>
<path fill="#010101" d="m307.04,56.461c0,1.771 .978,3.928 .475,5.693-.467,1.638-2.292,2.229-2.628,4.047-.407,2.2-2.154,3.826-3.073,5.866-.661,1.465-2.644,3.476-4.404,3.403-1.643-.068-3.324-.956-4.249-2.268-1.258-1.784-1.638-.955-2.408,.435-.57,1.037-3.346,1.782-4.479,1.945-1.862,.268-3.729,.14-4.878-1.516-.27-.389-1.845-4.324 .02-3.462 1.047,.484 .848,2.657 2.268,3.342 2.01,.969 6.668,.011 7.329-2.494 .138-.519 .178-3.136 1.228-2.053 .668,.688 1.134,.937 1.322,1.951 .179,.963 .286,2.112 1.267,2.625 1.486,.779 3.556-.195 4.884-.899 1.934-1.025 1.633-3.075 1.047-4.835-.27,.254-.531,.516-.785,.785-.382-1.526 2.954-.48 3.673-1.147 1.481-1.372-.416-3.436-1.531-4.21-2.719-1.887 .028-1.502 1.695-.934 2.363,.805 2.754-3.29 2.396-4.698-.549-2.152-2.457-3.125-4.539-3.007-.322,.018-4.834,.158-3.979-.667 .831-.802 3.256-1.379 4.354-.946 1.54,.609 3.18,3.416 4.99,3.044"/>
</g>
<g fill="#557c3e">
<path d="m197.1,65.099c1.047-.262 2.095-.523 3.142-.785-.785,.785-1.571,1.57-2.356,2.356-.26-.524-.52-1.047-.78-1.571"/>
<path d="m316.47,66.67c0,.688 .371,1.421 .118,2.105-.273,.735-2.164,1.242-2.811,1.613-.621,.356-.082,1.902-.975,1.799-.322-.078-.561-.263-.715-.556-.466-.584-1.305-.25-1.9-.25 1.607,3.216-1.531,6.282-4.712,6.282 .753-1.505 .309-3.841 1.851-4.898 1.689-1.159 2.02-3.06 3.774-4.278 .904-.628 2.109-3.62 3.449-3.285 .86,.215 .77,1.793 1.93,1.468"/>
<path d="m212.81,68.241c0,1.057-.35,2.497 .785,3.141-.14-.663 .428-1.03 .649-1.57 .441-1.075 .115-1.538 1.007-2.495 .877-.941 2.395-2.624 3.867-2.034 3.065,1.228-1.727,5.455 .759,6.884-.382-1.45 1.816-1.839 2.774-2.054 2.209-.496 3.093-2.019 5.465-1.147 1.627,.598 3.896,.991 3.718,3.267-.161,2.057-2.196,2.754-3.03,4.373-1.001,1.941 2.492-.302 2.841-.478 1.293-.653 3.396-1.671 4.693-.486 1.346,1.23 .157,3.41-.661,4.598-1.156,1.68-.468,2.589 1.302,1.541 1.097-.649 3.658-1.11 4.764-.347 2.356,1.626 .901,3.111-.273,4.844-1.552,2.289 1.87,1.027 2.553,.931 .799-.113 3.127,.251 2.188,1.546-.638,.881-2.643,2.042-1.54,3.242 1.072,1.167 2.837-.808 4.045,.285 1.019,.921 1.023,2.897 .635,4.103-.683,2.118-3.324,3.152-5.129,4.054 .966,1.681 2.601-.222 3.927,0-.604,1.209-1.586,2.616-3.142,2.356 1.064,2.129 .307,3.328-.595,5.308-.847,1.862 1.934,3.098 2.951,4.116-.728,.728-1.404,1.894-2.471,2.156-1.135,.28-1.763,.313-1.495,1.721 .36,1.895 1.35,3.903-1.512,3.861-2.389-.035-.99,2.953-1.004,4.297-.016,1.673-3.728,1.875-3.728,2.207 0,1.368-.367,2.327 .335,3.588 .595,1.067 .747,1.354-.313,1.678-1.226,.374-2,2.091-3.433,1.873-.651-.099-.943-1.249-1.78-1.571-1.27-.49-1.886-.337-1.951,1.066-.065,1.393-.779,2.066-1.964,2.74-1.383,.786-3.119,1.172-4.394-.052-1.189-1.143-.204-2.508 1.092-2.921 1.274-.406 1.977-.977 2.589-2.17 .731-1.424 2.246-1.052 3.442-1.748 1.119-.651 1.741-2.221 2.045-3.41 .4-1.573-.732-1.906 .593-3.094 1.551-1.39 4.711-2.985 5.078-5.224 .193-1.183-.09-5.571-2.124-4.998 .981-.981 2.264-1.762 2.907-3.035 .732-1.448-.55-2.126-.602-3.478-.095-2.424 4.319-3.323 3.355-5.927-.343-.929-1.879-1.913-1.213-3.029 .729-1.224 1.878-1.248 1.847-2.939-.044-2.338-3.45-4.151-5.524-4.429-.787-.105-2.417,.896-1.202,1.602 .802,.466 2.08,.021 2.96,.073 2.942,.174 2.795,4.15 .189,4.775-.812,.195-2.02,.36-2.646,.972-.716,.7 2.675,1.549 3.044,1.833 2.451,1.883-1.028,4.943-3.116,4.943 .587,1.174 3.043,5.255 .887,6.119-1.435,.575-3.05-.488-4.438,.363-1.454,.891-2.126,3.044-4.121,2.925-1.914-.114-2.928-2.339-4.892-2.339 .941,.942 3.487,3.051 4.815,3.193 1.103,.118 2.579,.457 3.627-.081 .757-.389 .921-1.69 1.899-1.666 1.24,.031 2.9,1.843 3.03,3.041 .11,1.018-.271,2.201-1.101,2.844-.459,.354-1.59,.843-1.277-.264-1.726,.863-1.88,4.109-4.178,3.972-1.174-.07-3.395-3.522-4.291-2.377-1.005,1.283-1.007,1.087-2.525,1.546-1.468,.444-2.928,1.151-4.485,.672-2.805-.862-3.65-3.813-6.509-3.813 .721,.552 .932,1.454 1.426,2.171 .642,.932 1.711,.91 2.599,1.456 1.707,1.048 4.069,2.35 6.155,1.754 .925-.264 3.24-1.98 4.153-1.118 .55,.52 1.498,.326 1.916,1.023 .459,.766 .78,1.692 .959,2.563 .203,.992-.455,2.742-1.457,3.146-.595,.24-1.094-.683-1.694-.76-.893-.115-1.525,.666-1.797,1.416-.603,1.665-1.255,2.641-3.117,1.82-.882-.389-1.29-.947-1.29-1.923 0-.735-1.021-.505-.785-1.338-1.854,.928-3.481,4.944-6.053,3.649-.877-.441-2.585-.95-2.585-2.187 0-1.234-.563-3.049 .785-3.818-.523-.262-1.047-.523-1.57-.785 .228,1.082-.993,1.78-.848,2.857 .188,1.396 .963,2.729 1.689,3.907 1.684,2.73 4.01,1.305 6.314,.358 1.733-.713 4.589,1.497 2.468,2.847-.969,.616-2.917,1.11-3.995,.586-.596-.289-2.355-1.961-2.546-.565-.206,1.515-1.961,3.952-3.775,3.854-1.643-.088-2.378-2.608-4.087-2.916-2.451-.442-1.045,4.1-4.216,4.049-1.245-.02-1.803-.763-2.482-1.649-.902-1.177-2.238-.947-3.443-1.549 0,1.152-.328,3.307-1.618,3.746-2.239,.763-3.225-2.204-3.882-3.632-1.174-2.547-2.8,.201-2.521,1.836 .362,2.122 2.728,3.139 4.494,3.885 2.452,1.037 4.213-.547 6.623-.356 2.154,.171 4.546,1.689 6.443-.101 2.208-2.083 2.687-.478 5.177-.626 2.299-.137 4.615-1.01 5.702-3.181 1.118,1.973 3.749-.068 5.354-.047 2.455,.031 2.504,.99 .92,2.491-.65,.616-.307,1.728-.981,2.214-.722,.52-1.953,.009-2.763,.096-1.768,.19-1.929,2.304-3.315,3.1 .428-.121 1.114,.587 .633,.698-.581,.133-1.246,.059-1.836,.054-1.718-.014-2.955,.771-3.867,2.262-2.466,4.029 .837,7.826 4.285,9.55-1.854,1.065-2.234,6.916 .785,6.282-2.011,1.141 .072,3.134-.468,4.713-.313,.916-1.721,1.343-2.339,2.081-.852,1.016-1.101,2.308-.959,3.601 .272,2.491 1.271,4.209-1.868,4.865-.952,.198-4.343,.833-3.789-1.124-.803,1.604-.989,3.708-2.486,4.883-1.88,1.476-3.37,.203-4.655-1.249-1.533-1.732-1.999-1.249-2.325,.775-.376,2.33-3.404,1.888-5.008,1.484-2.936-.736-2.528-.844-1.467-3.34 .916-2.152 1.519-2.468 3.632-3.493 1.561-.757 4.587-6.816 1.315-6.128 1.462,.854-.416,3.557-1.163,4.304-.521,.521-3.733,1.096-3.549,1.978-.739-1.298-6.699-2.687-3.141-4.711-1.922,0-4.211,1.698-6.008,.378-2.038-1.498-.963-4.402 .511-5.875-.523-.262-1.048-.523-1.571-.785 .559,1.945-3.482,1.848-4.53,1.828-1.428-.027-2.274-.624-2.802-1.952-.712-1.792 1.123-3.163 1.836-4.587 1.169,2.25 4.555-1.517 5.369-2.472 1.408-1.651 .845-3.152 1.195-5.068 .334-1.829 2.825-1.957 4.029-2.988 .863-.74 2.803-3 1.872-4.24-.481-.644-2.374-1.335-1.437-2.377 .748-.831 2.362-1.446 2.266-2.789-.161-2.241-1.933-4.226-3.872-5.195 .657-.377 .445-1.01 .785-1.571 .688,0 .964-.206 .867-.893-.267-1.905-1.144-3.034-3.223-3.034 1.722-1.316 2.676-4.393 1.416-6.283-1.194-1.792-3.498-2.209-5.466-2.543-.86-.146-1.74-.28-2.574-.541-1.031-.322-.269-1.681-.521-2.481-.49-1.556-3.417-1.182-4.42-2.159-.437-.426 1.178-3.739 .617-4.822-.791-1.525-3.579-.401-4.083-2.32-.436-1.659 .641-3.932-1.355-4.913-.833-.409-1.886-.16-2.662-.564-.828-.432-.811-1.9-.879-2.677-.18-2.05-.653-2.638-2.071-4.014-1.549-1.502 .958-.999 1.829-.858 1.602,.258 3.133-.119 .998-1.341-2.539-1.452-.997-3.151 1.34-3.584 .883-.164 1.785-.347 2.638,.011 .71,.298 1.505,.715 1.065-.492-.74-2.028-4.637-1.446-4.754-3.578-.071-1.283 2.073-2.998 3.055-3.66 .59-.397 1.638-1.192 2.408-1.083 .682,.096 1.191,.601 1.833,.802 .973,.304 1.966-.017 2.948-.017-1.232,.347-2.599-1.539-3.876-1.581-.887-.029-1.994-.292-2.815,.182-.139,.081-1.722,1.115-1.031-.173 .419-.781 .647-2.018 1.627-2.309 .804-.239 1.597,.124 2.398,.002 .709-.108 1.97-2.593 2.464-3.181 .5-.594 1.134-1.064 1.954-.946 .422,.061 1.78,.911 2.133,.379 .486-.735-.715-3.199-.644-4.186 .126-1.763 1.189-2.931 3.01-2.814 .613,.039 2.638,2.093 2.567,2.128 .64-.32-.6-1.9 .614-1.592 .284,.072 .95-2.177 1.283-2.557 1.459-1.663 4.457-2.594 5.718-.432 1.092,1.874 2.494,5.406 3.025,1.459 .291-2.163 4.167-4.719 5.018-1.584 .357,1.321-.386,3.315 .202,4.442 .744,1.427 1.555-1.713 1.646-1.973 .515-1.475 3.355-6.028 5.18-3.453 .404,.572 1.183,6.346 2.208,5.816 .646-.334 .385-1.992 .495-2.573 .322-1.704 1.401-3.165 2.162-4.688 1.48,.725 2.7,1.923 3.89,3.109"/>
<path d="m205.74,66.67c-.181-.639 .146-.965 .785-.785-.63-.18-.96,.146-.78,.785"/>
</g>
<g>
<path fill="#010101" d="m93.445,66.67c-.433,.865-1.571,1.452-1.571,2.519 0,.858-.509,1.714-.659,2.555-.379,2.127 4.118,1.994 5.371,1.994-1.301,1.301-4.638,3.338-2.619,5.438 2.131,2.214 5.464-.11 7.331-1.511 0,4.06-8.184,5.02-9.481,1.04-.275-.845-.253-2.094 .562-2.64 .861-.577-.321-2.181-.657-2.775-.629-1.115-1.786-2.497-1.525-3.876 .225-1.206 1.907-3.019 3.246-2.744"/>
</g>
<g fill="#557c3e">
<path d="m171.19,68.241c-1.135,2.271-3.866,2.835-1.806,5.601 1.829,2.455-1.591,4.202-3.692,3.287-3.079-1.341 .621-4.197 1.578-5.697 .625-.979 1.918-1.531 2.295-2.682 .117-.356-.203-1.055 .235-1.258 .49-.227 1.17,.371 1.39,.749"/>
<path d="m320.39,77.664c-.925,.925-2.782,3.434-.654,4.147 2.186,.733 4.452-.948 6.577,.792 .926,.758-1.237,2.569-1.17,3.481 .121,1.625 3.039,2.491 3.886,1.003-.227,.791 .458,.921 1.014,1.154 1.23,.516 .32,1.834 .576,2.778 .23,.854 1.794,1.701 2.636,1.568 .795-.125 .327,1.047 1.271,.781-.693,1.388-3.358,2.118-2.242,4.053 .554,.961 3.04,3.014 1.759,4.221-.505,.475-1.748-.148-1.946,.645-.182,.728-.115,1.616 .027,2.344 .278,1.429 3.188,.275 3.188,2.873-.459-.459-4.39-3.055-4.003-.533 .168,1.094 2.727,.452 3.218,1.318-1.655,.942-.067,2.637 .017,3.933 .118,1.83-1.664,1.104-2.373,2.349 .261-.922-1.069-.25-.772,.786 .325,1.135 1.694,2.081 1.049,3.373-1.101,2.2-4.503,3.094-5.773,.553-1.107,.647-.079,1.876 .104,2.725 .29,1.355-1.146,2.221-2.229,2.551-2.414,.736-4.439-3.455-6.512-4.491-.13,1.201 .977,2.232 .785,3.141-.393-.683-4.097-1.741-3.931-.832 .162,.888 1.822,1.417 2.469,1.848 1.283,.857 1.462,2.271 1.462,3.696-.785-.262-1.57-.523-2.355-.785 0,1.729 2.191,3.337 1.469,5.079-.741,1.789-3.07-.257-3.679,1.546-.517,1.529 .384,3.636-1.716,4.215-2.161,.596-3.111-.557-4.075-2.316-.313-.573-2.208-3.252-2.208-1.225 0,2.066 2.575,3.15 2.321,5.276-.22,1.849-2.703,1.869-4.089,1.741-1.182-.108-3.402-2.066-4.515-1.753 .715,.547 .893,1.481 1.545,2.076 .861,.787 2.572,1.065 3.691,1.065 1.969,0 4.761-1.409 5.758-3.141 0,2.906 2.968,2.894 4.106,5.002 1.486,2.753-1.539,3.961-3.733,3.294-1.635-.498-3.07-2.419-3.735,.105-.125,.475-.251,1.277-.803,1.457-1.448,.47-1.778-1.598-2.149-2.428-.284-.636-.84-.676-1.309-1.085-.45-.393-.404-1.127-.596-1.639-.734-1.968-1.044,.563-1.5,.85-.714,.447-1.914,.681-2.752,.638-.729-.036-.277-2.395-.24-2.765 .085-.853 .392-2.202-.089-2.992-.504-.829-2.112-.783-2.923-1.105-2.903-1.155 3.049-4.673 .017-6.401 1.363-.682 3.142-1.889 3.142-3.608 0-1.993-1.225-3.451 .172-5.277 1.136-1.486 .352-3.706 1.527-5.124 1.28-1.544 3.651-1.451 4.855-3.147 1.11-1.564 .149-3.075-.533-4.556-.825-1.792 1.54-2.03 2.183-3.342 1.236-2.521-1.185-6.774-3.493-7.928 1.765-.882 3.62-2.519 3.142-4.711-.386-1.767-1.756-4.29-3.927-3.927 1.942-1.943 .877-3.835-.785-5.497 3.474,0 4.149-3.9 7.083-4.64 2.013-.508 3.725-1.738 5.488-2.773 2.02-1.208 4.02-.996 6.24-.44"/>
<path d="m278.77,80.02c2.311,3.081 6.054,6.791 10.209,4.711-.397,1.407 4.707,2.432 5.587,2.778 1.478,.581 2.578-1.104 3.988-1.2 1.489-.102 2.242,1.886 3.774,1.563-.234,.469-.469,.938-.703,1.407-.217,.432-.772,.07-1.07,.367-.692,.691-2.24,1.388-2.161,2.56 .158,2.325 3.52,.302 4.557,.123 2.036-.352 2.371,3.062 1.736,4.357-.699,1.429-4.518,.75-4.443,2.917 .051,1.487 4.688,4.41 2.654,6.265-1.235,1.126-2.408,1.796-4.093,2.31-2.189,.668-2.553-2.555-2.629-3.966-.177-3.271-2.072-4.749-4.842-6.132 0,.937 .018,1.842 .888,2.397 .854,.544 2.07,.831 2.241,2.022 .099,.695-.185,1.954-1.074,1.447-1.419-.807-2.868-.369-4.41-.369 1.311,2.621 5.028,1.326 6.639,3.588 .688,.966 .752,1.864-.42,2.313-1.505,.577-1.577,1.077-.85,2.504 1.169,2.295-1.98,5.858-2.523,2.411-.437-2.769-3.498,2.21-1.275,1.748-1.812,1.812-4.653,3.031-7.191,2.137-2.518-.887-2.617-2.927-3.102-5.139-.558-2.55-1.698,1.032-1.114,2.448 .421,1.017 .881,2.141 1.722,2.879 1.31,1.15 1.134,1.604 .285,2.991-.543,.887-.687,1.203-1.777,1.579-.667,.23-1.174-1.05-1.544-1.435-.476-.493-1.87-1.646-2.636-1.352-.617,.237-.646,1.891-1.418,2.395-1.378,.9-4.084,1.412-5.554,.443-.792-.521-.563-1.968-.46-2.741 .07-.526 .84-.841 .503-1.441-.294-.523-.863-.784-1.272-1.194-1.065,2.131-3.653,4.099-5.992,2.532-.815-.547-2.205-1.531-2.523-2.504-.391-1.194 .86-2.311 .387-3.46-.698-1.699-1.965,1.882-2.027,2.463-.264,2.479 3.096,4.621 4.957,5.502 1.025,.485 1.419-.142 2.3-.487 .517-.202 2.756,.09 2.904,.786 .621,2.898 4.702,3.003 6.926,1.905 1.46-.721 1.44-1.417 2.886-.141 .823,.726 1.966,1.89 3.166,1.804 .973-.07 1.823-.705 2.669-1.125 1.537-.763 1.957-.106 3.353,.474 2.369,.985 4.555-1.067 7.084,.169 1.601,.782 3.744,.458 3.598,2.738-.211,3.309-8.927,1.408-3.503,4.716 2.187,1.333 .97,3.616-.744,4.765-1.024,.687-2.319,.775-3.307,1.522-.505,.383-.438,1.063 .176,1.273 .646,.221 1.347-.321 1.874-.594 1.736-.9 4.729,.262 5.777,1.839 1.172,1.76-1.826,2.826-3.259,2.523 .84,1.683 3.454,1.305 3.877,3.208 .2,.9 .033,1.979-.446,2.77-.798,1.317-2.031,.567-3.2,.375-3.678-.605-.315,2.712 .333,3.537 1.424,1.809-.9,4.583-2.754,4.895-1.817,.306-.504,1.809-.241,3.177 .236,1.229-4.433,2.299-5.369,2.804-.954,.514-5.442,4.373-6.259,2.116-.267-.739-.098-1.519-.222-2.273-.26-1.583-1.413-2.788-2.21-4.116 1.635-.818 2.761-3.361 4.831-3.135 1.875,.205 4.878-1.469 5.668-3.203 .771-1.692 .991-4.627-.485-6.071-.504-.493-1.596-.083-1.34,.696 .42,1.277 1.319,2.063 .947,3.509-.358,1.399-2.773,4.472-4.568,3.419-1.071-.628 .248-2.847-1.388-3.075-3.108-.433-.979,2.777-1.427,4.19-.546,1.719-3.284,1.444-4.594,2.099 .289-1.391-3.196-.631-.703,.438 2.267,.973 2.108,3.946 3.059,5.845-.976,0-2.355,.062-2.355,1.367 0,.739 2.397,.989 2.876,1.528 1.452,1.639-1.497,5.025-2.876,2.602-1.494,2.991 1.525,1.487 1.379,3.629-.096,1.406-2.247,2.156-3.404,2.147-1.582-.013-2.599-1.94-4.267-1.755-.833,.092-1.071,1.05-1.492,1.614-.815,1.094-2.417,1.063-3.498,.432-1.148-.671-3.285-2.282-2.568-3.87 .721-1.6-1.306-1.507-1.148,.758 .136,1.952 1.139,3.479 2.952,4.195 1.368,.541 3.991,1.664 4.979-.082-.223,1.057 .812,1.856 .801,2.885-.013,1.267-1.615,1.856-2.371,2.612 .205-.985-1.549-1.226-1.57-.298-.028,1.161-1.582,1.684-1.553,.216 .028-1.407-1.197-.845-1.913-.275-1.233,.98-2.106,1.623-3.641,.761-1.409-.791-1.896-1.575-3.242-.306-1.08,1.019-2.592,.974-3.882,.332-3.112-1.547-2.916-6.057-.69-8.282-2.551,0-3.731,2.188-3.329,4.514 .485,2.804 3.994,3.839 3.813,6.541-.102,1.517-.309,2.746 .464,4.15 .36,.655 1.043,2.065 .016,2.514-.837,.365-1.965,.012-2.771-.267-1.599-.553-1.812-.987-2.126-2.552-.123-.611-1.887-1.639-2.05-.808-.193,.984-.885,1.633-1.884,1.741-.987,.106-5.318-.544-5.479-1.944-.048-.418 7.659-1.717 6.279-2.698-1.077-.767-2.589,.296-3.612,.56-2.072,.533-2.884-.104-3.723-1.809-.598-1.217-.484-1.59 .445-2.614 .533-.588 .763-1.16-.224-1.212-2.048-.106-5.172,.821-5.852-1.879-.396-1.572 .644-1.87 1.666-2.65 .873-.667-1.09-1.528-1.719-1.2-2.102,1.092-.854,4.8 .172,6.101 1.179,1.495 5.549,1.856 2.49,4.577-.831,.738-2.045,.831-3.034,.377-1.434-.657-1.496-2.284-2.675-3.086-1.268-.861-3.122,.711-4.618,.029-.559-.255-2.184-2.247-1.902-2.88 .362-.813 1.682-1.593 1.515-2.599-.205-1.241-1.663-1.664-2.743-1.604-.779,.044-1.69,.33-2.102,1.053 .644-2.284-4.197-1.754-4.102-3.55 .062-1.153 .8-2.705 1.938-3.143 1.308-.503 2.416,.621 3.654,.315 2.335-.577-4.116-3.404-2.115-5.028 .814-.661 1.996-.31 2.938-.405 2.083-.21 .376-1.76-.811-1.894-2.285-.258-5.123-2.67-2.907-4.797 .812-.779 1.804-.905 2.814-1.312 .801-.322-1.971-1.094-2.175-1.127-2.722-.442-4.697-.774-5.158-4.034-.41-2.896 1.651-5.408 4.679-4.788 .594,.122 4.984,1.435 3.294-.271-.562-.568-1.896-1.104-1.86-2.057 .068-1.875 2.612-1.789 3.836-2.195 .29-.096 4.666,3.389 3.889,1.35-.355-.933-1.492-1.437-1.717-2.353-.481-1.969 2.106-2.341 3.431-2.353 3.692-.033 4.502-3.449 7.675-4.464 1.694-.542 3.619-.365 5.157-1.374 2.123-1.393 1.588-2.547 1.282-4.585-.406-2.713 4.861-2.544 4.245-5.558-.244-1.199-.961-1.059 .343-1.787 .753-.42 1.598-.966 1.985-1.776 .734-1.531 .188-3.158 1.195-4.702 .673-1.031 2.582-3.013 1.918-4.385-.298-.615-.936-.98-1.216-1.604-.444-.986 .293-2.044 .424-3.009 .287-2.112-.501-2.374 1.332-3.963 1.899-1.648-1.112-3.004-.682-4.917 .468-2.076 2.998-6.592-.629-7.322-2.932-.593-1.034-.698-.97-2.414 .061-1.615-1.771-3.437-3.419-3.161 .522-1.045 .165-3.01 1.225-3.728 .858-.582 2.235-.348 3.176-.134 1.026,.234 2.66,.933 2.769,2.165 .025,.288 .206,3.293 1.066,2.698 .258-.178 1.093-4.183 2.523-2.518 .641,.746 .365,1.551 1.485,2.198 .462,.266 1.979,.918 2.022-.133 .08-1.966-2.929-3.735 .117-4.748 3.199-1.063 2.931,3.769 4.709,3.432 1.363-.258-.377-4.098 1.375-4.667 2.817-.915 5.236,3.864 7.803,3.864-.845-1.689-1.147-3.667 .785-4.712 .775-.419 1.364-.992 2.153-.204 .67,.712 1.93-.035 2.5,.971"/>
<path d="m82.451,83.161c0,1.22 .223,2.613 .951,3.625 .968,1.344 3.097,1.408 4.506,2.054 1.025,.47 2.472,.89 2.077,2.208-.368,1.226-.235,3.097-1.398,3.883-1.395,.943-4.317,1.704-1.747,3.561 .668,.482 2.346,1.619 1.79,2.674-.573,1.089-2.209,.513-1.941,2.206 .124,.779 .957,2.142 .269,2.838-.472,.478-1.642,.37-1.965,.905-.287,.474 1.297,2.766 1.327,3.513 .054,1.337-1.03,2.212-2.109,2.738-.919,.449-2.088,.825-2.76,1.641-.852,1.036 .438,1.823 .818,2.707 .434,1.012-.536,3.417-1.002,4.354-.655,1.314-2.481,.707-3.528,.358 0,1.563 .736,4.078-.882,5.117-1.015,.651-1.598,.264-2.045,1.465-.389,1.043-2.87,.405-3.761,.88-1.077,.573-1.976,1.507-3.221,1.725-1.107,.194-2.698,.191-3.47,1.15-.462,.574-1.747,2.06-1.739,2.824 .01,.828 1.394,1.107 1.769,1.759 0-3.008 2.501-4.746 5.339-4.683 1.567,.034 3.055,.62 4.294,1.567 .693,.529 1.286,1.989 2.077,1.26 .918-.847 7.672-7.105 7.729-2.761 .023,1.742-2.975,3.882-2.121,5.542 .671,1.304 3.38-1.581 4.291-1.786 2.674-.604 .551,3.312 .073,4.007-1.114,1.617-1.717,3.234 .806,2.3 .857-.317 4.268-1.897 4.181,.125-.063,1.467-1.245,2.588-1.539,3.994-.394,1.881 1.289,1.343 2.208,.521 .757-.676-.375-.663 1.231-.663 .874,0 1.514-.065 2.269,.333 1.292,.682 1.647,.771 1.173,2.385-.296,1.005-1.275,2.702 .33,2.879 1.546,.171 3.161,.614 4.565,1.285 1.284,.613 .904,1.017 .745,2.192-.252,1.868-5.402,3.265-3.211,5.029 1.659,1.336 5.102,1.964 3.991,4.855-.428,1.113-2.41,.256-2.38,1.778 .028,1.462 1.31,2.708 2.63,3.056 1.635,.432 3.771,.8 3.293,3.026-.374,1.738-1.679,1.858-3.062,2.465-4.516,1.986 2.114,2.784 1.035,5.529-.479,1.222-2.492-.763-3.452-.201-1.067,.624-.063,3.001-.485,4.023-1.076,2.608-5.414,2.199-7.66,2.199 .131,0-.865,2.673-.865,2.938 0,.908-2.741-.666-3.141-.582 1.223-.61 1.878-1.697 2.617-2.788 .819-1.211 2.737-1.416 3.741-2.651 .693-.852 2.014-2.319 1.238-3.432-.778-1.116 .764-1.846 1.542-2.428 1.954-1.464 3.884-3.897 2.09-6.33-1.44-1.953-4.307-2.347-6.515-2.788 1.683,1.683 4.122,2.652 5.465,4.117 1.56,1.701-2.296,5.002-3.559,5.239-1.358,.255-2.8-1.234-4.028-.545-.786,.44 .873,1.839 1.285,1.982 .738,.257 2.408-.054 2.408,1.148 0,1.107-1.606,2.901-2.727,3.058-1.52,.212-2.292-.277-2.721,1.607-.226,.993-.406,2.281-1.379,2.866-1.161,.699-1.86-2.242-2.365-2.815-.69-.783-1.045,.781-1.018,1.23 .086,1.421-.713,2.34-1.881,3.127-.907,.61-3.359,.267-4.255-.263-.792-.467-.906-1.11-.842-1.946 .092-1.206-.941-1.598-1.66-2.315 0,.855-.318,1.712-.148,2.568 .184,.928 1.62,1.951 2.298,2.572 1.472,1.349 4.441,1.374 6.017,.214 .521-.384 1.115-1.465 1.918-1.115 .811,.353 .94,1.665 .895,2.407-.14,2.315-2.141,4.333-4.155,5.227-2.488,1.103-3.882-.323-5.993-1.398-2.557-1.302-1.038,1.271-2.441,2.125-1.785,1.086-4.123,1.463-5.929,.192-.848-.597-1.09-1.382-1.407-2.313-.467-1.371-1.608-2.014-2.833-2.626 .377,1.286-2.547,.98-3.163,.929-1.999-.166-2.892-.833-3.332-2.817-.26-1.173-.9-3.67-2.568-2.443-2.402,1.766-2.6,.678-4.414-.953-.55-.495-.509-1.259-.5-1.928 .018-1.23-.435-1.439-1.368-2.11-.939-.675-1.568-.897-2.73-.813-1.087,.079-1.745,.091-1.514-1.098 .371-1.911 1.016-3.265 .55-5.276-.666-2.875 1.763-4.365 1.763-7.048 1.463,1.463 3.289,3.141 5.497,3.141-.694,2.083-.559,3.086 .875,4.768 1.452,1.703 2.363,1.699 4.304,2.427 3.17,1.188 7.385,1.201 7.385-3.269-2.167,2.835-5.223,3.421-8.348,2.095-2.674-1.134-4.141-3.846-1.696-5.898 1.36-1.141-.501-.892-1.39-1.083-.997-.214-2.856-.248-3.365-1.302-.641-1.327 .123-5.991 1.865-6.281 .86-.143 1.802,.195 2.633-.184 .968-.441-1.766-1.856-2.045-2.048-1.287-.882-1.779-2.635-2.173-4.053-.547-1.975 .274-2.762 .929-4.498 .557-1.475-.323-1.246-1.225-.499-.95,.787-1.581,2.195-1.413,3.433 .163,1.205 3.368,7.911 1.18,7.708-2.864-.266 .329,4.863-4.09,3.024-3.738-1.556-.778-2.378 .709-4.127 1.321-1.552-2.684-1.881-3.517-2.166-1.558-.532-2.129-4.988-.792-6.031 1.299-1.013 2.246-.418 3.67-.363 1.651,.064-.005-1.793-.445-2.158-2.056-1.706-2.188-4.569 .005-6.381 2.789-2.304 3.729,1.817 6.099,1.776 2.002-.035-1.899-3.329-1.812-4.077 .4-3.436 3.004-1.923 5.109-1.081 .786,.314 2.486,.96 2.907-.224 .443-1.248-1.39-2.789-1.884-3.793-1.419-2.882 1.319-5.197 3.986-3.655 .85,.492 .408,1.925 .544,2.742 .261,1.558 1.463-.218 1.602-.926 .529-2.708-3.61-4.527-5.895-3.763-1.958,.654-3.577,3.64-6.023,2.804-.993-.339-1.447-1.57-1.502-2.527-.027-.478-.034-2.635-.993-1.724-1.408,1.337 .277,3.369 .937,4.673 .645,1.274 3.531,.537 4.654,.537-1.562-.448-2.159,2.889-3.75,2.963-.497,.023-.603-.607-1.166-.607-1.283,0-1.075,1.37-1.848,1.952-3.356,2.53-7.619,.363-6.725-3.955 .184-.891 .834-2.314 .469-3.208 .061,.148-3.224,.822-3.791,.758-1.9-.214-3.588-.947-2.739-3.187 .4-1.056 1.305-1.918 2.119-2.667 .369-.338 1.497-.48 1.709-.893 .092-.185-4.375-.531-4.77-.553-2.22-.123-2.124-2.6-.48-3.771 .805-.574 6.719-1.324 3.994-2.489-1.952-.834-6.4-2.265-2.783-4.781 1.347-.937 2.718-.197 4.043-.878 1.491-.766 .398-1.549-.668-1.551-1.808-.003-6.451-.656-5.677-3.514 .454-1.675 3.542-3.724 5.182-4.067 1.026-.215 4.188,.485 3.937-1.5-.067-.534-4.145-.755-4.662-1.569-1.449-2.282-1.537-2.848 .297-4.986 1.849-2.156 3.195,.025 5.326,.025 .533,0 .256-1.713 .268-2.004 .029-.735 1.176-1.225 1.731-1.498 1.675-.824 2.574,.864 3.428,2.096 .267,.385 2.556,3.361 2.368,1.227-.182-2.072-2.253-4.343-1.123-6.398 1.09-1.981 3.153-.421 4.499,.358 2.053,1.19 1.857-.673 1.789-2.406-.085-2.169 .333-5.77 3.335-5.546 .963,.071 3.479,2.788 3.997,2.378 1.782-1.414 .702-4.824 4.088-4.757 1.726,.034 1.927,7.135 4.168,2.783 .796-1.546 1.218-3.086 3.333-2.846 2.405,.272 .355,3.061 2.091,4.049 1.318-2.666 4.152-6.076 7.064-3.164"/>
<path d="m163.34,91.014c-2.157-.443-3.138,2.602-3.776,4.087-.786,1.828-3.464,5.447-5.776,5.324-.895-.047-1.27-1.519-2.276-1.743-1.45-.324-2.437,1.129-3.763,1.042-1.661-.11-1.068-3.672-3.256-3.213 1.468-1.468 1.384-1.349 3.009-.239 1.024,.7 2.594,.628 3.273,1.81 1.786-3.141 7.086-.12 8.123-4.528 .357-1.517-.472-3.365-.09-4.669 .398-1.36 2.676-1.369 3.747-1.797 0,.799-.342,1.845 .146,2.572 .29,.425 .77,.777 .65,1.359"/>
<path d="m95.8,91.014c0,2.277 1.051,4.452 3.142,5.497-2.186,1.093-1.265,2.401-2.471,4-.965,1.281-3.226,1.039-4.597,1.497 0-1.816-.824-2.333-1.38-3.858-.593-1.623 1.799-2.407 2.25-3.494 .434-1.046-.508-2.419 .018-3.374 .512-.934 2.244-.27 3.038-.27"/>
<path d="m135.06,94.155c0,3.431-2.674,3.396-5.272,2.577-1.218-.384-2.789-1.528-.796-2.331 1.61-.648 2.934-1.831 3.712-3.388 .79,1.048 1.58,2.095 2.36,3.142"/>
<path d="m122.5,97.296c-1.354,.338-2.789,1.092-4.21,.61-1.383-.469-1.384-2.039-.218-2.768 .504-.315 1.966,.336 2.207,.82 .63,1.274 .71,1.338 2.22,1.338"/>
<path d="m128,99.652c-1.047-.785-2.094-1.571-3.141-2.356 .89-1.682 3.38,1.149 3.14,2.356"/>
<path d="m123.29,97.296h.785-.79z"/>
<path d="m301.54,113.79c-.736,.962-2.496,2.494-3.807,2.312-1.777-.246-.194-3.815-1.69-4.668 1.557,.327 1.344-1.774 2.356-2.356-.35,1.69 5.96,3.1 3.14,4.72"/>
</g>
<g>
<path fill="#010101" d="m79.31,110.65c2.167,1.234-.051,3.875-1.116,5.041-.713,.78-1.796,1.355-2.175,2.397-.479,1.317 .921,2.856-.173,4.049-.692,.754-1.912,1.205-2.886,1.441-1.701,.413-1.106,.569-1.938,1.855-.696,1.077-1.56,1.888-2.91,2.019-1.551,.149-3.601-.816-4.861,.554-.746,.811-.542,1.946-1.817,2.321-1.197,.352-2.424-.456-3.363-1.09-1.137-.768-2.142-1.425-3.569-1.324-1.389,.099-2.575,.18-3.441-1.071-.387-.559-1.483-5.936 .338-4.928 .984,.544-.547,3.229 .055,4.063 .768,1.064 3.805,2.128 4.34,.303 .475-1.622 2.572,1.889 3.036,2.263 2.133,1.719 4.312-.971 3.484-3.032-.72-1.792-1.736-4.368-.139-6.106 .777-.846 .77,4.468 .832,4.831 .539,3.132 3.723,3.125 5.862,1.63 1.006-.703 1.289-1.542 .653-2.565-.531-.854-.362-2.509 1.049-1.728 .876,.484 .731,2.305 2.208,1.253 .558-.398 1.311-.698 1.698-1.297 .315-.488 .353-1.137 .908-1.456-.729-.418-.575-1.465-1.338-1.847-.878-.439-1.018-1.176-1.018-2.08 1.917,.958 4.308-.479 5.105-2.28 .374-.845 .469-2.069-.228-2.789-.153-.159-2.048-1.453-1.742-1.699 .576-.45 2.839,.75 3.146,1.29"/>
</g>
<g fill="#557c3e">
<path d="m296.83,120.07c-1.637,1.252-1.766,3.428-4.562,2.254-1.022-.429-1.721-2.877-3.136-2.153-1.179,.603-.907,2.747-2.43,2.932-1.466,.178-1.434-2.457-2.437-3.033 1.339,0 2.693-.187 3.977-.568 1.22-.362 2.463-1.547 3.71-1.622 .408-.024 1.34,.117 1.633-.301 .343-.49 .897-1.012 1.556-.793 1.18,.39 1.69,2.19 1.69,3.28"/>
<path d="m335.31,119.28c.287,1.015-1.233,.9-1.57,1.57-.486,.97-.211,2.577 .785,3.141-1.067,.534-2.033,1.758-3.354,1.572-.759-.106-1.931-.737-2.595-.063-1.179,1.197 .533,2.024 .402,3.149-.178,1.512-2.539,1.199-3.529,1.483-1.136,.326-1.02,.931-.567,1.79 .235,.447 .366,.82-.181,1.121-.66,.363-.458,1.214-.477,1.83-.055,1.739-1.375,2.218-2.884,2.336-1.698,.133-1.606,.477-1.221,1.989 .648,2.54-2.306,3.026-4.163,2.976-.765-.021-2.441,.178-2.891-.61-.643-1.129-.489-2.167 .601-2.827 1.396-.844 1.055-2.228 2.075-3.287 1.125-1.166 2.998-1.543 3.525-3.246 .396-1.277-.115-3.048 .919-4.083 1.067-1.068 .203-2.861 .203-4.13-.196,.941 3.609,1.641 4.419,1.524 2.38-.343 2.231-3.071 4.23-3.046 .983,.012 1.341-.947 2.319-.952 1.122-.006 1.558-.441 1.66-1.546 .07-.751 .016-2.055 .896-2.389 .8-.28 1.53,1.09 1.4,1.71"/>
<path d="m329.82,139.7c.828,1.439 2.106-.529 2.75,.35 .759,1.037 2.336,1.383 2.671,2.73 .432,1.74-1.244,1.098-1.62,2.292-.648,2.058 1.899,2.837 2.966,3.58 1.316,.917-1.238,2.211-1.36,3.067-.188,1.333 1.595,2.039 1.446,3.354-.22,1.935-1.847,2.524-.594,4.664 .619,1.059 3.609,4.278 2.359,5.635-.833,.906-2.4,.024-3.215,1.373-.971,1.606 1.17,2.324 2.019,3.087 1.117,1.005 .191,2.758-.98,3.226-1.936,.772-2.004,2.1-.864,3.688 .57,.795 1.024,3.019-.571,2.99-1.068-.02-1.966-.838-1.808,.898 .149,1.622 1.569,3.406-.481,4.492-1.263,.668-3.491,.283-4.287,1.689 1.875,1.078-.684,3.36-1.368,2.018-.578-1.136-.231-2.51-.988-3.588-.197-.28-.785,.353-.785-.204 0-.526-.287-.723-.785-.582 1.681-1.284 3.187-4.046 2.129-6.134-.907-1.79-3.318-1.764-4.484-3.289 0,.664-.193,1.817 .503,2.234 1.1,.659 1.942,.761 2.694,2.022 1.328,2.229-1.365,3.645-3.16,4.104-2.167,.555-3.596-.028-4.054,2.658-.225,1.316-.867,2.279-2.331,2.407-1.047,.093-1.274-1.273-2.643-.831-1.061,.342 .547,1.216 .114,1.862-.463,.689-1.743,1.161-2.542,1.231-.878,.076-2.208,.379-2.563-.729-.399-1.243-.521-1.942-1.777-.757-1.892,1.785-4.724,3.198-7.22,1.385-1.777-1.29-.562-4.63 .205-6.165-4.301,0-1.471,6.571 .381,7.947 2.034,1.511 3.101,.028 4.911-.797 1.403-.641 2.924,.328 4.261,.679 1.674,.438 3.201-.175 4.592-1.067 1.236-.794 2.526-1.168 3.8-1.834 1.282-.671 1.856-2.088 2.806-3.103 1.793-1.914 6.332-.465 4.806,2.412-.685,1.29-2.019,1.965-3.426,1.99-.353,.007-2.716-.248-2.402,.48 .69,1.604 3.092,2.022 3.831,3.501-.783,0-1.553-.186-2.339-.082-1.501,.195-.659,1.78-.957,2.804-.517,1.772-1.553,.752-2.63,.479-1.288-.326-1.215,1.434-1.868,2.032-.601,.551-3.273,.743-3.86,.11-.383-.413-.081-2.148-1.004-2.02-1.831,.256-1.947,3.536-4.053,3.498-.827-.015-2.14-.978-2.768-1.461-.618-.475 .009-3.462-.241-4.301-.573-1.917-4.127-3.176-2.446-.878 1.402,1.919 1.793,5.784-.921,6.926-2.069,.87-3.221-2.396-5.184-2.396 1.36,2.722-2.042,4.616-4.224,3.088-.794-.557-2.165-2.406-1.511-3.432 .102-.158 3.312-2.277 1.363-2.676-.743-.151-2.091,1.276-2.957,1.41-1.315,.204-2.762-.14-3.833-.934-1.092-.809-1.612-2.092-1.202-3.416 .465-1.497 2.656-2.112 2.828-3.742 .215-2.038-1.578-.646-2.062,.109-.826,1.287-2.334,3.212-2.231,4.798 .078,1.212 .901,3.053 2.011,3.668 1.06,.587 1.799,1.161 3.071,1.004 1.138-.141 1.952,.042 2.532,1.085 .735,1.323 .745,3.488 2.201,4.307 1.127,.633 3.517-1.115 4.062-.112 .687,1.261 .249,2.921 .773,4.238 .456,1.147 2.634,2.647 3.89,2.384-1.036,0-2.474,.671-3.345-.203-.696-.696-.696-2.152-1.949-2.152-1.862,0-2.129,3.294-2.835,4.492-1.281,2.174-4.466,.729-5.777-.631-.483-.5-1.027-2.518-1.842-2.295-.94,.257-1.384,1.428-2.312,1.665-1.595,.409-4.728-1.901-5.188-3.353-.396-1.246-.2-3.244-1.8-3.678-1.325-.359-2.711,.371-3.717-.896-1.915-2.412 .481-3.457 .472-5.79-.005-1.276-1.241-1.574-2.139-2.05-1.395-.738 .818-2.613 1.376-3.171-.527-.3-.909-1.062-.834-1.663 .145-1.173 2.309-.983 3.116-1.036 1.41-.091 2.707-.551 3.558-1.732 .666-.925 1.13-2.146 2.274-2.597 1.22-.479 2.584-.035 3.807-.521 1.121-.445 1.843-1.606 2.34-2.642 1.031-2.146 1.574-4.312 3.813-5.524 2.477-1.34 3.17-3.231 1.611-5.818-.306-.499-.653-.968-1.041-1.405-.838-.954-.359-.717 .285-1.614 .801-1.115 1.64-1.233 2.834-1.757 2.42-1.06 3.035-3.594 4.479-5.621 1.92-2.691 .838-4.843 .483-7.746-.259-2.109 2.221-3.005 2.414-5.04 .198-2.074 2.027-2.575 2.25-.21 .171,1.815 2.241,4.509 4.05,4.923 2.594,.594 3.975-2.631 6.9-1.918 2.884,.703 4.427-.426 5.462-3.085 .996-2.557 2.421-3.221 4.606-4.562 1.624-.996 .674-3.113 2.563-4.185 1.27-.72 3.78-1.23 4.69,.36"/>
<path d="m55.751,141.27c-2.402,0-3.642-.284-1.571-2.355 .524,.78 1.048,1.57 1.571,2.35"/>
<path d="m42.401,144.41c2.446,0 4.616-1.475 6.282-3.141 0,.934-1.162,2.462 0,3.141-4.522-.237-7.482,4.669-5.497,8.638-2.939-.618-3.119,3.546-3.143,5.47-.026,2.037 1.725,4.739 3.928,4.739-2.357,1.356-1.19,3.361-.646,5.3 .289,1.031 .297,2.74-.548,3.55-.785,.75-2.011,.205-2.801,.863-2.13,1.774 1.555,2.355 2.186,3.658 .642,1.326 1.064,4.331-.971,4.715-2.034,.383-1.871,3.448-3.753,4.199-1.525,.609-4.169,1.169-5.44-.239-1.129-1.25 1.227-4.329-.317-4.957-1.064-.434-1.993,2.619-1.843,3.329-1.084-.542-2.054,.18-3.088,.424-1.068,.251-2.173-.646-2.955-1.242-1.439-1.098-3.977-3.438-1.365-4.48 1.223-.489-1.061-1.477-1.972-.099-1.063,1.603-3.929,2.524-5.375,.713-2.113-2.645 4.061-5.806-.639-8.39-1.296-.713-3.793-1.061-4.187-2.731-.643-2.725 2.571-3.826 4.66-3.826-1.356-2.38-4.874,.016-6.555-1.857-.959-1.069-.841-2.547-.095-3.689 .618-.946 1.897-.358 2.462-1.183 1.324-1.933-1.148-4.484 2.11-5.048 .797-.138 1.715-1.035 2.504-.919 .188,.027 1.367,3.497 1.929,4.059-1.812,.905-2.547,2.722-2.274,4.674 .292,2.085 2.411,2.769 3.09,4.644 1.208,3.336 .494,7.425 5.338,7.303 1.628-.042 2.653-1.685 3.422,.428 .585,1.606 3.792,1.092 4.952,.484 1.875-.982 6.243-4.79 2.748-6.538 0,1.974-1.149,3.941-2.855,4.928-1.334,.772-3.71,1.229-4.139-.748-.188-.867 .213-4.459-1.487-2.784-1.355,1.335-2.472,3.86-4.591,2.038-1.167-1.003-3.155-3.306-1.739-4.856 .302-.331 5.125-.403 2.546-2.108-.738-.488-1.444-.391-2.229-.094-1.162,.439-1.718,.104-2.8-.424-2.588-1.263-.246-4.586 .804-6.161 .743,1.307 4.013,.805 2.624-.941-1.092-1.374-3.656-1.515-3.476-3.734 .277-3.401 6.523-.021 7.919-2.392-.785,0-1.575,.178-2.355,0-.815-.186-1.46-.935-2.356-.785 1.394-.697 3.109-1.537 3.862-2.985 .114-.219 3.327,.5 3.781,.432 .858-.128 1.433-.982 2.263-1.231 1.246-.374 2.547,.274 3.816-.015 1.972-.449 3.478-2.332 4.338-4.054 .848,1.71 2.232,3.09 3.927,3.94"/>
<path d="m182.97,147.55c1.723,.917-1.315,2.962-2.07,3.415-1.376,.822-3.617,.449-5.159,.782-1.114,.241 2.617,3.394 2.44,4.631-.145,1.012-1.281,1.216-1.567,2.133-.354,1.131-1.921,1.162-2.852,.925-2.18-.553-2.326-1.02-2.542,1.28-.172,1.824-3.453,4.021-4.747,2.05-1.128-1.717-4.147-1.34-3.06,1.308 .409,.996 1.271,1.835 .564,2.942-.89,1.394-2.612,.752-3.782,.167 .576,1.151 1.526,3.057 0,3.926 .275-1.326-.711-.611-1.214-.109-1.15,1.148-1.683,.694-3.113,.21-.803-.271-2.43-.341-3.112,.237-1.197,1.014-.815,2.018-2.77,2.018 .705-.705 1.57-1.399 1.57-2.498 0-1.144 .523-1.773 1.561-2.194 1.478-.599 3.542-2.159 3.893-3.804 .294-1.377-.273-2.638 .305-4.146 .99-2.579 2.146-.795 4.049-.394 2.292,.483 4.815-2.557 6.374-3.836 .956-.785 2.358-1.415 2.824-2.638 .289-.759 .327-1.636 .701-2.359 .306-.59 .74-.035 .738-1.033-.003-1.198 1.047-1.5 2.106-1.494 3.079,.017 4.377-.961 6.506-3.089-.26,1.22 1.91,.81 2.35,1.57"/>
<path d="m171.97,168.76c-1.199,.599-2.209,1.475-2.875,2.648-.586,1.034-.542,2.56-1.555,3.331-.872,.664-2.994,.793-3.909,.128-.854-.621 .192-2.06 .392-2.762 .365-1.281 1.167-1.504 2.099-2.401 .88-.848 .782-2.317 1.813-3.095 2.73-2.06 2.17,2.67 4.04,2.14"/>
<path d="m286.62,174.25c.547,2.605-4.192,1.57-5.497,1.57 .972,1.943 1.391,5.446-.897,6.686-1.517,.821-4.924,1.111-5.559-1.032-.218-.735-1.816,.028-1.382,.928 .702,1.453 .876,2.645-.237,3.944-1.514,1.768-5.695,.919-6.846-1.102 3.02-1.512 5.185-5.024 2.355-7.854 1.842,0 2.529,1.12 4.736,1.002 3.122-.168 4.537-3.57 5.513-6.064 .568-1.454 1.774-4.931 3.925-3.454 2,1.35 4.84,2.57 3.9,5.36"/>
</g>
<g>
<path fill="#010101" d="m318.04,171.9c.777,1.554 .437,3.088-.314,4.569-.66,1.3-2.202,.731-3.062,1.81-.89,1.116-1.307,3.058-2.804,3.564-1.324,.447-2.857-.306-3.87,.982-.961,1.223-1.101,1.835-2.875,1.805-1.469-.025-2.672-.528-3.468-1.808-.855-1.375-2.029-4.642 .688-4.642-3.594,2.069 2.355,7.462 5.107,4.528 1.327-1.414-.901-3.766 1.975-2.203 .906,.492 2.586-.077 3.288-.724 1.072-.986-.161-2.619-.161-3.957 1.441,2.527 5.497,.252 5.497-2.152 0-1.21-1.193-2.583-2.136-3.216-1.265-.847-3.267,.63-4.146-.914 .566,.119 .777-.361 1.152-.645 .761-.577 1.401,.645 2.131,.645 1.26,0 3.42,.69 3,2.36"/>
<path fill="#557c3e" d="m178.26,170.33c0,1.029-.682,2.8 .553,3.417 1.187,.594 1.939,2.08 3.403,2.08 1.119,0 1.999-.111 2.733,.857 1.228,1.62 2.523,2.179 4.305,3.069-1.019,.584-.862,2.977-2.208,3.109-1.239,.122-2.504-2.732-2.504,.031-.706-.706-1.566-1.301-2.031-2.214-.272-.536 .065-2.646-.829-2.643-1.29,.006-2.094,1.739-3.393,1.804-.733,.036-.62-.933-.724-1.39-.168-.743-1.015-.077-.947-1.22 .054-.895 1.204-.908 1.651-1.602 .553-.856-.627-1.771-1.455-1.572-.789,.189-.587,1.178-1.137,1.587-.588,.437-1.772,.909-2.492,.936-2.104,.078-4.122-1.98-3.46-4.112 .95-3.03 6.22-2.16 8.55-2.16"/>
<path fill="#010101" d="m138.21,174.25h-.785c.373-.214 .875-2.157 1.559-1.667 .43,.32-.87,1.35-.77,1.67"/>
<path fill="#83b94d" d="m162.55,177.4c1.67,6.683 2.29,13.569 3.985,20.253 1.807,7.123 3.042,14.396 4.958,21.487 .45,1.664 .927,3.331 1.136,5.047 .175,1.429-.007,2.779 .536,4.146 1.073,2.695 1.849,4.899-1.012,6.85-2.415,1.646-2.513-1.72-4.455-1.982-1.137-.153-1.84-1.198-2.938-1.451-1.574-.361-3.234,.74-4.567,1.407-1.557-8.567-3.175-17.157-5.863-25.455-2.559-7.896-4.388-16.229-9.058-23.233 .737,.208 .944-.926 2.125-.771 1.803,.235 3.263-1.519 4.134-2.846 1.017-1.55 2.911-2.852 4.447-3.853 1.397-.911 3.163-1.361 4.215-2.738-.33,1.46 1.48,2.26 2.33,3.12"/>
<path fill="#557c3e" d="m176.68,179.75c.921,1.615 3.374-.319 4.203,1.338 .478,.956 1.337,3.812 2.864,3.373-1.473,1.473-2.285,1.234-4.193,.834-2.413-.507-1.954-3.515-3.415-4.857-.99-.91-2.859,.302-4.065,.009-1.257-.306-3.669-1.907-1.676-3.053-.231-.293-.493-.555-.786-.785 .75,1.324 2.516,.785 3.723,.785 1.52,.02 2.4,1.42 3.35,2.37"/>
<path fill="#010101" d="m129.57,180.54c.873-1.52 3.057-1.628 3.926-3.142-.411,.822-.629,1.945-1.57,2.356-.82,.35-1.83-.16-2.36,.78"/>
<path fill="#83b94d" d="m179.83,189.96c2.199,.944 4.811,1.587 6.179,3.739 1.617,2.545 2.308,5.552 3.146,8.411 .943,3.214 2.197,6.328 3.187,9.527 1.026,3.318 2.665,6.649 3.306,10.059 .629,3.345-.103,6.908 .044,10.295 .149,3.479 .828,6.963 1.267,10.415 .437,3.444 .918,6.892 1.278,10.344 .223,2.14-.086,5.762 2.012,7.101 0-6.142-.838-12.242-.84-18.389-.003-5.96-.896-11.834-1.751-17.717-.858-5.908-1.301-11.889-2.43-17.756-.54-2.807-1.283-5.567-1.879-8.361-.601-2.812-.825-5.712-1.739-8.453 2.236,0 4.665,1.615 6.876,.626 1.52-.68 .91-1.609 2.479-.694 .854,.498 2.095,.604 3.062,.622 2.067,.042 2.992-2.7 4.558-3.686 3.223-2.029 2.658,2.875 2.841,4.416 .476,4.024 1.268,7.906 1.392,11.981 .127,4.155-.029,8.312-.004,12.468 .053,8.504 1.419,16.88 2.355,25.311 1.629-.905 1.175-3.772 1.045-5.273-.29-3.34-.231-6.702 .034-10.042 .596-7.461 1.663-14.918 2.513-22.354 .51-4.453 2.251-10.007 4.987-13.696 1.587-2.138 2.943,.003 4.074,1.537 1.744,2.366 3.984,4.027 6.902,2.953 2.439-.896 2.781,3.037 4.799,3.751 2.88,1.019-.325,5.149-1.201,6.896-.979,1.958-5.121,.794-6.962,1.735-2.857,1.463-4.786,4.431-6.65,6.93-1.026,1.376-5.909,12.695-.919,9.495 2.012-1.291 3.548-3.431 6.034-3.854 2.767-.471 4.651,2.29 7.332,2.29-.655,1.965-.797,4.109-1.843,5.935-1.142,1.992-2.326,3.95-2.657,6.266-.187,1.306-2.741,12.309 1.801,10.166 1.353-.637 1.83-2.494 3.406-2.762 .897-.152 1.53-.179 2.406-.526 .972-.387 .969,.197 1.818,.308 2.161,.28 1.687-3.566 2.218-4.629 .938-1.879 2.671-3.111 4.63-3.764-.24,.85 .77,.63 .881,1.376 .146,.977-.044,1.908 .78,2.645 1.262,1.126 2.866-1.325 3.575-2.075 2.985-3.154 8.682-4.896 12.825-3.516-3.555,.889-6.665,3.112-8.937,5.951-2.476,3.093-4.187,6.798-7.479,9.171-3.549,2.558-5.163-.56-8.084-2.206-2.819-1.59-6.206,.491-8.721,1.812-3.237,1.699-3.662,4.171-4.531,7.461-1.176,4.452-2.129,8.959-3.212,13.434-1.008,4.166-2.11,8.31-3.021,12.498-.898,4.134-1.071,8.445-2.059,12.537-.36,1.495-.865,2.906-2.562,3.07-1.464,.142-2.494,.57-3.427,1.752-.954,1.211-1.682,2.542-2.749,3.673-1.636,1.732-3.262,2.104-5.354,2.981-1.513,.635-2.217,2.031-2.713,3.507-.496,1.471-1.01,2.055-2.004,3.197-.693,.797-.538,2.31 .726,2.409 1.213,.096 2.422-1.036 3.266-1.765 2.484-2.146 4.67-.567 6.925,1.172 1.751,1.352 5.211,1.633 5.384,4.295 .266,4.093-.569,8.465-.773,12.566-.174,3.479 1.246,8.643-1.255,11.501-1.443,1.651-3.639,2.959-5.767,3.485-1.043,.259-2.133,.272-3.167,.576-1.126,.332-2.084,1.038-3.258,1.256-4.827,.896-3.66-6.763-4.366-9.407-.279-1.049-.624-2.604-1.501-3.336-1.228-1.025-1.536,2.691-1.542,3.178-.045,3.41 1.24,7.421-2.286,9.582-3.195,1.96-7.603,1.411-11.077,.688-1.654-.343-4.588,.164-6.217,.608-2.357,.642-3.883,2.346-6.505,2.193-3.827-.222-8.945-2.578-10.519-6.309-.866-2.053-.316-4.196-.797-6.291-.244-1.066-.789-2.064-.789-3.182 0-1.052 .339-2.471-.786-3.112 0,2.533 1.24,12.683-4.358,9.924-1.022-.504-2.008-.246-3.049-.566-1.013-.312-1.61-1.476-2.133-2.305-1.396-2.21-1.879-4.313-2.29-6.871-2.05-12.77-4.837-25.405-6.722-38.207-.906-6.15-1.737-12.314-2.354-18.501-.436-4.359 .09-9.891-3.697-12.976-2.008-1.636-4.601-2.575-6.918-3.684-2.437-1.166-5.13-2.221-7.876-2.195-2.212,.02-4.657,.623-6.51,1.863-1.151,.771-1.814,3.286-3.565,2.842 .372,1.114 .221,2.639 1.243,3.443 1.22,.96 2.853,1.247 4.174,2.049 1.393,.844 2.585,1.979 3.62,3.229 .652,.789 1.31,2.711 2.315,2.97 2.102,.541-.605,4.335-1.401,5-1.859,1.553-5.236,3.168-4.501,6.129 .667,2.693 3.237,4.387 1.776,7.388-1.344,2.762-4.267,4.578-6.351,6.738-1.021,1.058-2.017,2.144-3.115,3.123-1.039,.927-2.501,1.56-3.182,2.819-1.184,2.19-.858,4.976-.858,7.37-1.315-.657-2.448-1.616-3.763-2.273-.906-.454-.894-1.78-2.02-2.328-2.263-1.103-2.441-3.758-2.363-6.004 .182-5.221 6.786-6.469 9.16-10.437 1.603-2.679 1.263-5.046-.165-7.608-1.444-2.593 .719-2.953 2.879-3.387 6.542-1.311 5.25-9.226 3.452-13.991-.639-1.693-3.075-5.723-1.472-7.458 1.782-1.928 3.901-3.287 6.451-3.944 3.335-.861 5.977-.458 9.157,.713 2.738,1.008 6.18,3.597 9.166,2.203 1.98-.925 1.066-3.427 .773-5.044-.605-3.339-1.038-7.021-2.699-10.04-3.336-6.062-5.028-12.915-8.139-19.139 2.1,0 3.85-.297 5.847-1.006 1.856-.659 3.024-2.367 4.362-3.705 1.628,2.441 3.16,4.986 4.214,7.733 1.04,2.712 2.841,5.213 3.603,8.011 1.374,5.046 1.62,10.969 5.532,14.882 1.719-5.157-.999-9.645-2.354-14.491-1.627-5.816-2.075-11.992-3.383-17.892-.626-2.824-1.883-3.927-3.432-6.202-.683-1.004-.917-2.229-1.607-3.23-.688-.997-1.885-1.428-2.707-2.285-1.812-1.891-4.085-1.92-6.405-2.726-2.086-.724-3.15-2.584-4.456-4.218 2.479,0 4.626-.691 6.797-1.851 .788-.421 1.684-.704 2.322-1.36 .806-.83 1.064-1.598 2.331-1.776 5.189-.733 7.783,4.457 10.262,8.049 3.463,5.018 7.023,9.812 9.142,15.588 1.004,2.736 1.756,5.636 3.035,8.261 1.382,2.838 2.934,5.021 3.211,8.266 .533,6.237 1.116,12.48 1.603,18.725 .517,6.628 2.167,13.104 3.147,19.666 1.001,6.71 1.839,13.449 2.724,20.175 .397,3.021 .666,6.055 .969,9.085 .153,1.523 .005,3.054 .005,4.58 0,1.17 .986,2.123 .785,3.319 1.646-6.585-.02-13.347-.806-19.925-.854-7.149-2.187-14.233-3.019-21.386-.411-3.533-.658-7.082-1.001-10.622-.25-2.565-1.339-5.377-.79-7.951 .583-2.729 4.016-4.492 6.446-5.233 2.033-.62 4.933,.638 6.238-1.632 1.351,4.052 1.604,8.343 2.287,12.531 .807,4.949 1.302,9.942 1.706,14.938 .385,4.747 1.002,9.473 1.743,14.177 .393,2.488 .815,4.972 1.129,7.472 .206,1.636 .08,3.436 1.772,4.281 0-3.841-1.34-8.597 2.283-11.071 1.468-1.003 2.716-2.283 4.194-3.266 2.035-1.353 3.287-.707 4.942,.819 3.261,3.006 5.949,1.312 8.686-1.438 1.451-1.459 1.377-1.3 3.361-.96 1.768,.303 2.1-2.399 .877-2.146 1.455-.728 3.186-.668 4.578-1.543 1.377-.864 1.882-1.709 3.596-1.197 2.862,.853 2.212-1.898 2.047-3.982-.073-.93 2.098-7.795 .123-5.962-.661,.614-1.119,1.534-2.099,1.675-1.838,.264-2.905,2.019-4.925,1.595-2.381-.499-4.653-2.748-7.253-1.647-1.173,.496-1.477,1.648-1.584,2.809-.203,2.198-.86,2.486-2.865,3.05-1.666,.47-2.559,1.93-4.436,2.073-2.354,.18-3.829-1.329-5.954-1.821-3.266-.758-5.043,6.121-6.357,8.093-1.017-4.065-1.167-8.288-2.152-12.36-1.06-4.379-1.25-8.899-1.498-13.379-.492-8.86-2.326-17.567-3.262-26.38-.976-9.18-1.881-18.438-1.709-27.681 .039-2.094 .073-4.19-.089-6.28-.144-1.863-.851-3.669-.7-5.558 .113-1.424 1.165-2.408 2.163-.898 1.26,1.88 2.53,3.77 4.13,5.37"/>
<path fill="#557c3e" d="m261.5,185.25c2.854,0 5.184,1.741 4.665,4.8-.222,1.311-1.567,1.418-2.643,1.503-.606,.047-1.371,.29-1.958,.024-.698-.314 .28-1.148-.85-.83 .762-1.524 .763-3.188 0-4.712-.651,1.302-.808,2.827-1.71,4.008-.658,.86 .312,1.27 .07,2.189-.508,1.941-3.561,2.779-4.643,.87 1.656,.759-.1-.903-.296-1.082-.808-.729-1.671-1.399-2.465-2.143-.982-.92-.24-2.859 .4-3.733 .303-.414 1.152-.195 1.564-.208 1.009-.03 1.709-.815 2.366-1.473-.58,2.09 4.7,2.18 5.51,.78"/>
<path fill="#83b94d" d="m112.29,193.89c.457,.803 4.25,1.649 5.193,1.597 2.506-.143 3.274,1.784 5.016,3.115-2.222,0-4.311,.085-6.321,1.144-1.482,.781-3.792,2.404-5.053,.878-.731-.887-1.915-1.163-2.694-1.992-.767-.816-1.162-1.907-1.998-2.667-1.728-1.57-3.852-2.61-5.922-3.645 1.185-1.186 2.383-2.411 3.141-3.927 2.11,2.78 5.62,3.99 8.63,5.5"/>
</g>
<g fill="#557c3e">
<path d="m325.89,193.89c-.444,.781-2.244,1.523-2.471,.19-.207-1.208 .897-2.543 1.686-3.331-.063,.564 .131,1.021 .582,1.367 .47,.47 .2,1.2 .2,1.77"/>
<path d="m256.78,197.03c1.57,.262 3.142,.523 4.712,.785-1.401,1.402-3.178,2.485-4.119,4.292-1.06,2.032-1.763,4.225-2.784,6.274-.86,1.729-2.078,2.817-3.943,3.38-2.099,.633-3.489-.54-5.492-.765-1.85-.207-2.769,1.164-3.622,2.561-.623,1.018-1.406,1.879-2.335,2.628-.618,.498-1.744,.043-2.246,.68-.829,1.055-2.824-.283-3.541-.847-1.854-1.459-3.415-2.063-5.684-.927 1.046-1.046 1.851-2.359 3.141-3.142 .682-.413 1.483-.495 2.225-.741 .734-.246 1.076-.989 1.586-1.498 2.455-2.454 6.025-2.022 9.035-3.238 2.418-.976 2.581-4.108 4.07-5.923 .961-1.171 2.548-1.303 3.903-1.691 1.73-.5 3.4-1.22 5.09-1.83"/>
</g>
<g>
<path fill="#83b94d" d="m245.79,197.81c0,1.478-1.965,6.694-3.927,6.282 1.18-2.35 2.07-4.42 3.93-6.28"/>
</g>
<g fill="#557c3e">
<path d="m319.61,199.38c.375,1.497-2.451,.785-3.141,.785 1.2,.14 2.23-.97 3.14-.78"/>
<path d="m135.85,208.81c-3.543,0-6.694,1.982-9.126,4.414-.831,.83-1.255,2.101-2.416,2.56-1.703,.675-4.019,.205-5.453-.865-1.135-.846-1.634-2.304-2.858-3.053-1.534-.938-3.272-.918-4.866-.138-1.655,.809-3.162,1.877-4.769,2.771-1.855,1.033-3.841,.594-5.851,.594 1.322-1.323 2.925-2.312 4.327-3.541 1.512-1.326 1.437-2.735 2.089-4.492 .648-1.745 2.16-2.113 3.84-2.181 2.253-.089 4.277-.737 6.332-1.636 4.082-1.785 8.051-3.305 12.45-1.601 1.829,.709 2.679,2.033 4.169,3.171 1.7,1.29 1.27,2.25 2.14,4"/>
<path d="m315.68,204.88c-.781-.164-1.041,.785-1.773,.785-1.006,0-1.802-.738-2.789-.823-.748-.063-2.136-.219-2.317,.849-.144,.847 .753,1.519 .52,2.38-.978,3.615-6.188,.75-7.774-.835 .647,3.079-3.62,2.248-4.854,.782-.816-.969-.962-2.885-.215-3.939 .961-1.354 3.306-.585 4.642-1.296 1.016-.54 1.624-2.1 2.89-.389 1.165,1.572 3.327,.275 4.47-.619 1.927-1.507 3.286-.217 5.415-.146 1.23,.05 2.01,2.17 1.78,3.26"/>
<path d="m170.4,237.08c1.047-.262 2.094-.523 3.141-.785-1.293,1.294-3.043,1.506-4.778,1.639-2.132,.163-3.438,.652-5.124,1.938-4.583,3.494-1.284-4.432-2.662-5.147 .562-.987 1.678-.447 2.52-.867 1.578-1.267 1.451,.082 2.774,.082 .91,0 1.024,1.202 1.333,1.805 .54,1.05 1.72,1.34 2.8,1.34"/>
</g>
<g>
<path fill="#83b94d" d="m107.58,262.21c0,2.014 1.46,4.151 .724,6.156-.271,.737-.855-1.01-.84,.928 .007,1 .232,2.087-.759,2.747-2.138,1.423-8.055,.125-8.589,3.651-.443,2.928 3.502,3.546 3.728,6.119 .16,1.824-1.795,2.947-3.033,3.882-2.022,1.524-3.96,3.463-5.365,5.572-1.388-2.08-1.708-4.236-2.891-6.369-1.312-2.365-2.958-4.588-3.327-7.344-.365-2.728 1.029-4.47 2.062-6.822 .899-2.047 1.439-4.351 3.529-5.517 3.608-2.014 7.372-1.418 9.961-5.095 .506-.719 2.324-3.593 3.247-1.864 .55,1.02 .45,3.32 1.55,3.95"/>
</g>
<g fill="#557c3e">
<path d="m212.81,266.92c.463-.812 1.384-.785 2.192-.785 .864,0 1.228-1.063 1.734-1.57v3.927c-.953-1.675-2.417,0-3.724,0-.7,0-.988,.805-.988,1.367 0,.834-.961,.927-1.57,.988-1.549,.158-3.376-.234-4.509-1.367-.529-.529-1.443-2.007-2.56-1.773 1.523-.876 1.457-4.12 3.784-3.641 2.08,.41 3.46,2.84 5.65,2.84"/>
<path d="m204.17,270.06c.507,.507 1.57,.869 1.57,1.733 0,.809-.027,1.731 .785,2.193-1.928,0-4.612-.652-5.906,1.257-1.077,1.594-2.025,2.061-3.926,1.945-1.076-.065-1.562-.208-2.193-1.103-.65-.923-2.194-1.185-3.226-1.33-2.401-.34-4.138,1.013-5.952,2.371 .915-1.829 1.289-4.335 2.765-5.827 1.414-1.429 3.153,.382 4.417,1.049 2.007,1.061 3.866,.361 5.615-.847 1.79-1.23 3.93-1.43 6.05-1.43"/>
<path d="m226.16,298.33c-1.158,.578-2.419,1.868-2.697,3.175-.135,.63-.148,2.547-1.229,2.322 1.697,.976-.208,3.581-.965,4.552-1.131,1.449-3.92,1.401-5.475,.848-2.267-.807-3.798-2.807-6.373-2.9-.722-.027-3.513,.401-3.715-.646-.202-1.052 2.879-2.049 3.534-2.347 1.939-.88 2.697-2.33 4.331-3.621 .865-.684 2.242-.778 3.228-1.312 1.27-.687 2.585-1.371 4.032-1.579 1.482-.213 2.706,1.023 4.09,.749 .75-.14 .36,1.02 1.25,.77"/>
</g>
</g>
</svg>
