<svg width="400" xmlns="http://www.w3.org/2000/svg" viewBox="0 0 400 400" height="400">
<path fill="#2e2a29" d="m113,0l2,11v2l-2,6h174l-2-7v-2l2-10h-174z"/>
<path fill="#4b527a" d="m186,9v3h2v-3h-2m17,0v3h2v-3h-2m8,0v3h3v-3h-3m31,0v3h2v-3h-2m12,0v3h3v-3h-3m-137,1v3h2v-3h-2m51,0v2h3v-2h-3m9,0v2h3v-2h-3m5,0v2h2v-2h-2z"/>
<path fill="#9d7562" d="m113,20v1h16v3h-4v4h4v5h-4v3h4v5h-4v4h4v4h-4v4h4v7h-16v1h34v-1h-15v-1l136,1v-2h-19v-1h10v-5h1v5c3.99,.003 7.67-.598 10,3h1c-.49-4.124-1.64-6.587 3-8v-3h-5l5-5v-4h-4l3-8h-4v-5h4v-4h-4v-3h17c-14.06-5.898-37.97-.383-53-.015-39.95,.979-80.04,.015-120,.015z"/>
<path fill="#b9a291" d="m269,20v3h4v4h-4v5h4l-3,8h4v4c-3.47,.576-4.42,1.526-5,5h5v3c-5.41,.89-3.95,3.666-3,8h6v-4h7l1-4h1v7h1v-39h-18m-156,1v39h16v-7h-4v-4h4v-4h-4v-4h4v-5h-4v-3h4v-5h-4v-4h4v-3h-16m73,6l1,30h26l-1-30h-26z"/>
<path fill="#4b527a" d="m191,30v1h17v24h-2v-8l-14-2h-1v10l18,1v-26h-18z"/>
<path fill="#2e2a29" d="m234,30c1.6,7.342 11.02,5 17,5v10h-15v2h15v8h3v-25h-20m-89,1v5h16v10h-15v1h16v9h2v-25h-19z"/>
<path fill="#4b527a" d="m164,31v25h1l-1-25z"/>
<path fill="#9d7562" d="m190,31v25h15v-1h-14l-1-24z"/>
<path fill="#2e2a29" d="m191,31v5h15v9h-14v2h14v8h2v-24h-17z"/>
<path fill="#8396a5" d="m234,33c0,13.252 5.15,12 17,12v-9c-5.85,0-12.48,1.317-17-3z"/>
<path fill="#4b527a" d="m235,35v1h16l-16-1m-90,1v20h1v-8h15v8h1v-9h-16v-1h15v-10h-16z"/>
<path fill="#8396a5" d="m192,36v9h14v-9h-14z"/>
<path fill="#4b527a" d="m235,45v11h19v-1h-3v-8l-16-2z"/>
<path fill="#8396a5" d="m146,48v8h15v-8h-15z"/>
<path fill="#9d7562" d="m285,52l-1,4h-7v4h10l-2-8z"/>
<path fill="#b9a291" d="m132,59v1h34l13-2-47,1m59,0v1h33l-33-1z"/>
<path fill="#9d7562" d="m113,62v1h158v2h-158v1l174-1v-3h-174z"/>
<path fill="#b9a291" d="m113,63v2h158v-2h-158z"/>
<path fill="#9d7562" d="m113,67v1h16v3h-16v2c4.39,0 9.38-1.033 12,3h-1l-1-2-10,2v1c5.81,0 13.8-1.8 17,4h-17v6h17v3h-17v2h13v3h-13v1h17v4h-17v1h12v3h-12v2c5.77,0 12.7-1.39 17,3h-17v2h13v3h-13v6h12v3h-12v2l17-1v5l-17-1v2h12v3h-12v2l8,3h-8v2h12v2h-12v2h17v4l-17-1v2h13v3h-13v2h17v3h-17v2h13v2l-13,1v1h17v4h-17v1h13v3h-13v2h17v3h-17v2l13,3h-13v1l16,1v3h-16v2h13v4h4v4h-17v1h13v4l-13-1v2h17v4h-17v1h13v3h-13v2h17v5l-17-1v2h12v3h-11v2h16v4h-17v2h12v3h-12v2h17v4h-17v2h13c-2.81,4.81-7.98,4-13,4v1h17v4h-17v1h13v5h4v5l-17,1v1h13v3h-13v1h17v5h-17v1h13v4h-13c0,2.34-.81,6.66 1.33,8.28 4.26,3.2 22.59,.75 23.67-4.28l2,1v-3h30v1l-4,2h-7v1c5.76,4 12.25,3 19,3 12.7,0 25.33-.66 38,0v1h-68c-5.65,0-20.05-2.68-22,4h-13v32h12v4h-12v27h16v6l-16-1v8h16v5h-16v29h77v-1h-44v-41h107l-1,41h-35v1h70v-10h-13v-5c4.68,0 16.77,.75 11-7 2.58-3.77 4.38-22.8 .4-25.97-2.44-1.94-7.48-1.03-10.4-1.03v-4h12v-2h-16v-5h16v-2h-12v-4c6.57,0 11.74,.91 12-7h-13v-6h-4v-6h1v5h16v-5h-13v-5h-4v-6h16v-2h-10v-4h11v-2h-16v-4h16v-1h-12v-4l-55-1v-1l36-2 13-2-5-3h6v5h1v-5h16v-1l-11-1v-4c13.31,0 11-7.69 11-19h-11v-3h11v-1h-15l3-4-1-5h-4v-7l9,1v4h-4v4h1l11-2c-.1-8.06-3.83-8-11-8v-3h11v-2h-15v-4h15v-2h-11v-3h11v-12l-9-3 9-1v-10h-13v-4l-4-5h1c2.1,6.38 10.45,5 16,5v-2h-15v-3h14v-2h-10v-3h11v-7h-11v-1l11-1v-1l-15-1v-3h15v-1l-11-1 11-3v-6l-11-1v-3h10v-2h-14v-3h15c-.63-8.04-8.76-6-15-6 3.13-5.11 9.66-4 15-4v-1h-11v-3h11v-2h-16c4.14-4.23 10.44-3 16-3v-2h-11v-3h11v-2h-15v-3h15v-2l-13,1v-4h-4v-5h1v4h16c-.99-5.96-5.98-5-11-5v-3h11v-7h-11v-3h11v-6h-11v-3h11v-1h-12v4h-1v-3h-4v-6h1v4h16v-10h-16v-3h-158z"/>
<path fill="#b9a291" d="m271,67v3h16v-3h-16m-158,1v3h16v-3h-16m0,5v3h11c1.7-4.509-8.21-3-11-3m0,4v4h17c-2.05-6.176-11.61-4-17-4m35,5v1h18l-2,29 5,1v-32l-21,1m38-1v32h29l-2-32h-27m44,0v32l6-1-2-29c5.18,0 15.25-1.932 19.68,1.028 5.72,3.813 2.38,22.612 .32,27.972l6,1c-3.24-10.22-2.33-21.486-1-32h-29m46,1v3h11v-3h-11z"/>
<path fill="#9d7562" d="m190,110h1l1-21h15v-1h-16v-4h19c-2.32-.974-4.46-.988-7-.999-3.11-.013-8.79-1.04-11.4,1.027-4.36,3.458-1.6,20.692-1.6,25.972z"/>
<path fill="#4b527a" d="m234,83v4h1v-3h20l-21-1z"/>
<path fill="#2e2a29" d="m144,84c2.58,6.41 13.16,4 19,4v11h-17v1h17v10h2v-26h-21z"/>
<path fill="#4b527a" d="m165,84v26h1l-1-26z"/>
<path fill="#2e2a29" d="m191,84v4h16v11h-15v1h15v10h3v-26h-19m44,0v4c4.32,0 11.96-1.46 15.68,1.028 2.88,1.924 2.88,7.02 0,8.944-3.54,2.368-10.59,1.028-14.68,1.028v1h16v9h3v-25h-20z"/>
<path fill="#9d7562" d="m255,84v14h1l-1-14z"/>
<path fill="#b9a291" d="m141,85l-1,28 6-1-2-27h-3z"/>
<path fill="#4b527a" d="m144,86v24h19v-10h-17v-1h17v-11l-19-2z"/>
<path fill="#b9a291" d="m113,87v3h17v-3h-17z"/>
<path fill="#8396a5" d="m236,88v10h16v-10h-16m-90,1v9h16v-9h-16m46,0v9h15v-9h-15z"/>
<path fill="#4b527a" d="m252,89v9h1l-1-9z"/>
<path fill="#b9a291" d="m276,91v3h11v-3h-11m-163,1v3h13v-3h-13m0,4v4h17v-4h-17z"/>
<path fill="#4b527a" d="m191,98v12c10.73,0 16,2.66 16-10h-15v-1h15l-16-1m44,0v9l11-1v4h10v-12h-1v11h-3v-9h-16v-1h16l-17-1z"/>
<path fill="#b9a291" d="m113,101v3h12v-3h-12m163,0v3h11v-3h-11m-163,5v3h17c-3.15-4.86-11.77-3-17-3z"/>
<path fill="#8396a5" d="m236,106v1h10l-10-1z"/>
<path fill="#b9a291" d="m236,107v3h10v-3h-10m40,3v3h11v-3h-11m-163,1v3h13v-3h-13z"/>
<path fill="#4b527a" d="m184,116h10v-1h-2v-1h17v-2c-6.7,0-20.92-2.3-25,4z"/>
<path fill="#b9a291" d="m272,115v3h15v-3h-15m-159,5v3h12v-3h-12m163,0v3h11v-3h-11m-163,5v3l17,1v-5l-17,1m158,3h16v-3c-5.07,0-12.94-1.72-16,3z"/>
<path fill="#4b527a" d="m133,132h5v-1h-2v-1l39,1c-2.44-2.79-6.48-2-10-2-7.41,0-27.44-3.46-32,3z"/>
<path fill="#2e2a29" d="m180,129l4,3-1-3h-3z"/>
<path fill="#4b527a" d="m183,129v1h34v1h-6v1l9-3h-37m40,1v2c8.19,5.02 4,29.1 4,38h10v-3l-9,1v-36l22,1v-3h15c-9.71-4.07-31.79-2.43-42,0z"/>
<path fill="#b9a291" d="m113,130v3h12v-3h-12m163,0v3h11v-3h-11m-48,2v36l7-2-1-29h23v27l-16,1v1l12-1 7,2v-32c-10.1,0-22.98,2.26-32-3m-89,3l1,27h-1v-23h-1v29l10-3v-1h-4v-27h23l-1,30h4v-33l-31,1m46-1v33l8-2-3-1-1-30h-4m87,4h15v-4c-4.84,0-13.33-1.72-15,4m-159-3v3h8l-8-3m9,0v3h8v-3h-8z"/>
<path fill="#4b527a" d="m144,137v1h22v25h-3v-9h-18l1-13c-4.46,3.9-2,17.28-2,23h23v-27h-23m46,0v1h21l-21-1m44,0v4h1v-3h21v25h-3v-9h-18c3.04,12.74 10.02,10 22,10v-27h-23z"/>
<path fill="#2e2a29" d="m144,138v3h20v11h-19v2h18v9h3v-25h-22m46,0v3h18v11h-17v2h17v10h3v-26h-21m45,0v3h19v11h-19v2h18v9h3v-25h-21z"/>
<path fill="#b9a291" d="m184,139v23h1l-1-23m-71,1v2h12v-2h-12z"/>
<path fill="#8396a5" d="m145,152h19v-11c-11.33,0-19-2.44-19,11m90,0h18v-11c-11.16,0-18-2.06-18,11z"/>
<path fill="#4b527a" d="m253,141v11h1l-1-11z"/>
<path fill="#8396a5" d="m191,142v10h17v-10h-17z"/>
<path fill="#b9a291" d="m113,144v3l17,1v-4h-17m98,0v20l-15,1v1l19,1-1-23h-3m61,0v3h15v-3h-15m-159,5v3h13v-3h-13m163,0v3h11v-3h-11m-163,5v3h17v-3h-17z"/>
<path fill="#4b527a" d="m191,154v6h4v4h13v-10h-17z"/>
<path fill="#b9a291" d="m272,154v3l13-2-13-1m-159,8l13-1v-2c-4.1,0-11.96-1.85-13,3m163,0h11v-3c-4.19,0-8.52-.82-11,3z"/>
<path fill="#8396a5" d="m192,160l3,3-3-3z"/>
<path fill="#b9a291" d="m113,163v4h17v-4h-17m159,1v3h15v-3h-15z"/>
<path fill="#4b527a" d="m239,167c2.33,3.6 6.01,3 10,3l-10-3z"/>
<path fill="#b9a291" d="m113,168v3h13v-3h-13m163,2v1h11v-2l-11,1m-163,3v3h17v-3h-17m0,5v3h13c-2.99-4.14-8.32-3-13-3m163,0v3h11v-3h-11z"/>
<path fill="#4b527a" d="m133,181c2.99,4.14 8.31,3 13,3 10.36,0 21.88-1.41 32,1l1-4h-46m90,0l1,3 13.04-.05 26.96,.05v-1h-4v-1h9c-11.94-5.01-33-1-46-1z"/>
<path fill="#b9a291" d="m113,182v4h16v-3l-16-1z"/>
<path fill="#2e2a29" d="m130,185c11.67,3.45 35.33,3.45 47,0v-1c-10.57,0-34.56,4.4-43-2l-4,3m93-3l-3,2v2h47v-2c-12.24,0-33.2,4.01-44-2z"/>
<path fill="#9d7562" d="m225,182v2h8v-2h-8z"/>
<path fill="#b9a291" d="m272,183v3h15v-3h-15m-159,5v3h11v1h-11v4h17v-4h-4v-4h-13m115,1l1,88h4c-2.34-9.84-5.35-31.84 8-32v-2h-9v-18h24v-1h-24c2.92-9.86 2.28-22.87 1-33h25v61c0,6.83 2.24,18.41-2,24v1h5l1-89-34,1m48-1v3h11v-3h-11m-91,1v23h4v-21h23v29l-5,1v1l7,1 1-34h-30z"/>
<path fill="#9d7562" d="m113,191v1h11l-11-1z"/>
<path fill="#2e2a29" d="m142,191c2.81,6.98 17.56,4 24,4v12h-22v1h21v12h3v-29h-26m47,0c2.63,6.54 14.03,4 20,4v12h-19v1h18v12h4v-29h-23m44,0v4h22v12h-22v1h22c0,4.39-1.03,9.38 3,12v-29h-25z"/>
<path fill="#b9a291" d="m139,192v85h3l-2-39h3v-13h23v-1h-24c0-9.19 2.7-24.27-3-32z"/>
<path fill="#8396a5" d="m143,195v26l21,1 1-14h-21v-1h21v-12h-22z"/>
<path fill="#4b527a" d="m165,195v12h1l-1-12z"/>
<path fill="#8396a5" d="m209,207v-12c-4.68,0-12.42-1.49-16.68,.6-3.04,1.5-3.29,8.33-.72,10.37 3.56,2.82 13.04,1.03 17.4,1.03m25-12v3h15l4,4c-3.72,6.06-12.7,4-19,4v1h21v-12h-21z"/>
<path fill="#b9a291" d="m113,197v3l13,1v-4h-13z"/>
<path fill="#b9cad3" d="m144,197v9h20c-.74-11.53-10.78-9-20-9m47,1v8h17v-1h-3c-.28-8.65-7.11-7-14-7m43,0v8c5.84,0 16.42,2.41 19-4-5.55-5.16-11.6-4-19-4z"/>
<path fill="#b9a291" d="m113,202v4h17v-4h-17m165,1l9,3v-4l-9,1m-165,4v3h13v-3h-13z"/>
<path fill="#8396a5" d="m191,208v11l17,1v-12h-17z"/>
<path fill="#9d7562" d="m233,208l-1,16c6.38,0 23.5,3.11 26-4l-24-1-1-11z"/>
<path fill="#8396a5" d="m234,208v11h20v-11h-20z"/>
<path fill="#4b527a" d="m254,208l2,12-2-12z"/>
<path fill="#b9a291" d="m113,212v4l17,1v-5h-17m0,6v9h17v-4h-16v-2h11v-3h-12m163,0v3h11v-3h-11z"/>
<path fill="#4b527a" d="m167,223l-1,5-22-1v1l21,1c0,4.19-.82,8.52 3,11l-1-17m89,0v4h-21v2h12v1h-3v1l3,4c-4.09,.36-5.36-1.01-6-5h-1l-1,8c-3.59,.49-5.82,1.46-7,5 6.42-.28 19.93-4.28 24,2h1l1-22h-2z"/>
<path fill="#b9a291" d="m272,223v4h15v-4h-15z"/>
<path fill="#9d7562" d="m232,225l1,15 6-2 1-8h1c.34,4.32 1.58,6 6,5l-3-4v-1h3v-1h-12v-2h21v-2h-24z"/>
<path fill="#b9a291" d="m113,229v3h12v-3h-12z"/>
<path fill="#9d7562" d="m248,229v9h7v-9h-7z"/>
<path fill="#b9a291" d="m276,229v3h11v-3h-11z"/>
<path fill="#4b527a" d="m154,230v1c3.33,3.97-.28,4.77-4,4 4.6,7.1 8.61,.29 9-5h-5z"/>
<path fill="#b9a291" d="m113,234v4h17v-4h-17m159,0v4h7v-4h-7m-159,6v3h13v-3h-13m163,0v3h11v-3h-11z"/>
<path fill="#4b527a" d="m167,241v5h-24v1h24v24h1l-1-30z"/>
<path fill="#2e2a29" d="m257,241c-2.46,8.1-17.1,5-24,5v2h22v27h3l-1-34z"/>
<path fill="#9d7562" d="m237,242v1h4v2h-8v1h23v-4h-19z"/>
<path fill="#b9a291" d="m148,243v1l18,1v-2h-18m124,2v4h15v-5l-15,1m-159,0v4h17v-4h-17z"/>
<path fill="#2e2a29" d="m189,245v3h20l-1,27h4v-30h-23z"/>
<path fill="#9d7562" d="m232,246v30h1c0-8.88 3.7-22.14-1-30z"/>
<path fill="#2e2a29" d="m143,247v2h23c0,6.82-4.42,22.84 2,27l-1-29h-24z"/>
<path fill="#4b527a" d="m189,248v28h23v-1l-22-1v-11h17v5h1l1-7h-19v-12h19l-20-1m44,0v1h22l-22-1z"/>
<path fill="#b9a291" d="m144,249v3h17v9h4v-12h-21z"/>
<path fill="#4b527a" d="m165,249v12h1l-1-12z"/>
<path fill="#b9cad3" d="m190,249v12h19v-12h-19m44,0v12h21v-12h-21z"/>
<path fill="#b9a291" d="m113,250v4h11v1h-11v5h17v-5h-4v-5h-13m163,0v3h11v-3h-11z"/>
<path fill="#b9cad3" d="m144,252v9h17v-9h-17z"/>
<path fill="#9d7562" d="m113,254v1h11l-11-1z"/>
<path fill="#4b527a" d="m143,261v15h23l-1-14h-5v1h4v11l-20,1-1-14z"/>
<path fill="#8396a5" d="m144,261v14l20-1v-11h-4v-1h5l-21-1z"/>
<path fill="#4b527a" d="m233,261v15h25v-1h-3v-14h-22z"/>
<path fill="#b9a291" d="m113,262v3h13v-3h-13z"/>
<path fill="#9d7562" d="m190,263v11h18l-1-11h-17m44,0v11h20v-11h-20z"/>
<path fill="#b9a291" d="m113,266v5h17v-5h-17m0,6v4h13v-4h-13m163,0v4h11v-4h-11z"/>
<path fill="#4b527a" d="m140,281l-2-1v3l-9,3h87v-1c-17.97-3.04-40.27,5.49-57-3v-1h7l4-2c-4.34-2.5-28.93-3.01-30,2m92-3v1l7,3-3-2v-1l9,1h8l4,2-2-2v-1h3l-26-1m32,0l5,3-15,2-34,2v1l51-1-1-7h-6z"/>
<path fill="#b9a291" d="m271,278v6h16v-6h-16z"/>
<path fill="#9d7562" d="m271,284v1h16l-16-1z"/>
<path fill="#2e2a29" d="m113,285v1l16,1-16-2m156,0v2h6v4h1v-5h11l-18-1z"/>
<path fill="#b9a291" d="m113,286v4h13v-4h-13z"/>
<path fill="#9d7562" d="m276,286v4h11v-4h-11z"/>
<path fill="#b9a291" d="m271,292v4h16v-4h-16z"/>
<path fill="#4b527a" d="m231,296v1h30c-5.96-4.15-22.48-1-30-1m-49,0l-2,39 1,5v1l5,1c5.78-8.67 16.66-6 26-6l-1,5h6l-2-3v-1l4-1v-1l-7-1v-24l-1.6-8.97-21.4-1.03v34h-4v-32h-1v31h-1c0-10.65 3.11-27.2-1-37z"/>
<path fill="#b9a291" d="m276,298v4h11v-4h-11z"/>
<path fill="#4b527a" d="m142,300v34h-4v-24h-1c0,6.23 2.69,20.31-3,24l1,7h7v-5c6.17,0 24.62-3.26 25,5 4.9,.63 6-1.64 9-5v-2h-8v-34h-26z"/>
<path fill="#2e2a29" d="m143,301v2c8.49,0 22.62-3.53 23,8h1v-10h-24m47,0v2c8.85,0 27.6,1.01 17,15 1.21,5.08-.7,12.95 4,16v-33h-21m43,0v2h22c0,7.59-4.68,26.18 2,31l1-33h-25z"/>
<path fill="#8396a5" d="m143,304v14h1l-1-14z"/>
<path fill="#b9cad3" d="m144,304v14h21v-14h-21m46,0v14h18v-14h-18z"/>
<path fill="#9d7562" d="m208,304v14h1l-1-14z"/>
<path fill="#b9cad3" d="m233,304l1.03,12.4 19.97,1.6v-14h-21z"/>
<path fill="#8396a5" d="m254,304v14h1l-1-14z"/>
<path fill="#b9a291" d="m271,304v4h16v-4h-16z"/>
<path fill="#9d7562" d="m276,310v4h11v-4h-11z"/>
<path fill="#2e2a29" d="m166,312v22h1l-1-22z"/>
<path fill="#9d7562" d="m144,319c-3.05,16.44 6.78,14 20,14v-14h-20m46,0v2h14v11h-14v1h17v-14h-17z"/>
<path fill="#8396a5" d="m233,332h20v-13c-13.21,0-20-2.14-20,13m-43-11v11h14v-11h-14z"/>
<path fill="#9d7562" d="m275,321v4l12,1v-5h-12z"/>
<path fill="#b9a291" d="m113,322v4h12v-4h-12z"/>
<path fill="#4b527a" d="m227,331l-3,3v1l1,7 11.06-5.68 21.94-.32-1,5h6v-1h-2v-1l4-5c-7.56-.14-26.58-5.21-32,1l-6-4z"/>
<path fill="#b9a291" d="m265,337h9v-3l-9,3m10-3v4h12v-4h-12z"/>
<path fill="#2e2a29" d="m133,335l3,5-1-5h-2m45,1v2l5,2-1-5-4,1m45-1l4,4-4-4m-81,1v2l26,2c-2.37-7.15-19.59-4-26-4m47,0v2l23,2v-4h-23m43,1v1l26,1c-1.18-5.48-21.32-3.71-26-2z"/>
<path fill="#b9a291" d="m271,340v5h16v-5h-16m4,7v4h12v-4h-12m-160,4h10v-3c-4.06,0-7.47-.51-10,3m-2,2v5l16,1v-6h-16z"/>
<path fill="#2e2a29" d="m139,354v44h1c0-12.48 3.81-32.54-1-44z"/>
<path fill="#4b527a" d="m146,358v39h1v-13h6v-1h-6c0-6.92-2.93-19.58 6-21l1,4h1v-4h20v-1h-28v-2h105v8h1v-9h-107z"/>
<path fill="#2e2a29" d="m147,359v2c7.02,0 21.72-2.8 27.68,1.18 7.25,4.83 2.56,20.37-5.68,20.82v-9h-1v9h-6l1-4-2,4h-7l2-9c-4.58,.98-3,7.12-3,11 10.86-2.37 22.47-2.24 22,11h-6v-7h-1c-.28,5.14-1.67,7.59-7,8v-5h-1v5h-6v-11h-1v11h-7v1h33v-38l24,1 8.97,2.32 1.03,19.68h-29v1c10.11,0 29.84-4.77 30,9h1v-33c7.11,0 28.24-3.56 33.4,1.6 2.42,2.43 1.6,7.3 1.6,10.4 0,8.7-1,17.28-1,26h2l1-39h-105z"/>
<path fill="#4b527a" d="m179,360v38h-33v1h106v-26h-1v25l-2-2-29,2c0-6.05-.87-12.01 6-14v-1h-6c0-6.73-2.11-17 3-22v-1h-8v33h-1c-.06-17.5-19.05-3.48-28.57-10.03-4.71-3.24-2.43-15.93-2.43-20.97h29l-1,21 2-10-1.03-10.4-8.97-1.6-24-1z"/>
<path fill="#8396a5" d="m223,360v1h26l-26-1z"/>
<path fill="#b9cad3" d="m221,361v3l7,4c-3.02,1-4.7,1.82-4-1-5.06,1.08-3,10.69-3,15l28,1v-22h-28z"/>
<path fill="#4b527a" d="m249,361v22h1l-1-22z"/>
<path fill="#8396a5" d="m147,383h6v-1h-5v-6l8-2-2,9h7l-4-7h6l-1,7h6v-9c9,1.5 9-4.84 9-12h-22v4h-1l-1-4c-9.19,.72-6,14.1-6,21z"/>
<path fill="#9d7562" d="m183,362c0,4.75-2.02,15.55 1.03,19.4 3.53,4.46 21.55,1.6 26.97,1.6v-1h-27l-1-20z"/>
<path fill="#b9a291" d="m184,362v20h27v-20h-27z"/>
<path fill="#8396a5" d="m211,362v20h1l-1-20m9,0v21l28,1v12h1v-13l-28-1-1-20z"/>
<path fill="#b9a291" d="m168,370v-4h1l2,4 4-7c-4.82,0-16.64,2.26-7,7m53-6l2,5 5-1-7-4m-108,2v5h16v-5h-16z"/>
<path fill="#4b527a" d="m176,372l-5,2v1h3v7h-5v1c7.01-.17 9.86-4.19 7-11z"/>
<path fill="#b9cad3" d="m169,375v7h5v-7h-5z"/>
<path fill="#b9a291" d="m148,376v6h5v-6h-5z"/>
<path fill="#2e2a29" d="m157,376v2h2v-2h-2z"/>
<path fill="#4b527a" d="m158,378l2,4 3-6-5,2m6,1v2h2v-2h-2z"/>
<path fill="#8396a5" d="m147,384v1l2,1-2,11h6v-11h1v11h6v-5h1v5c5.14-1.14 6.82-2.66 7-8h1v7h1v-7l4,2c-.82-10.81-18.9-6.9-27-7z"/>
<path fill="#b9a291" d="m220,393l7-2 9,2-4-8c-7.42-3.11-11.91,.49-12,8z"/>
<path fill="#b9cad3" d="m230,385l6,8-9-2-7,2v3h28v-12l-18,1z"/>
<path fill="#b9a291" d="m184,385v11h31l-2-11h-29m90,0v5h13v-5h-13z"/>
<path fill="#2e2a29" d="m168.33,386.67l.34,.66-.34-.66z"/>
<path fill="#9d7562" d="m174,386l-3,5 3,5h1l-1-10z"/>
<path fill="#8396a5" d="m183,386v10h1l-1-10z"/>
<path fill="#b9a291" d="m170,389v7h4l-2-7h-2z"/>
<path fill="#4b527a" d="m163,396v1h4l-4-1z"/>
<path fill="#9d7562" d="m220,396v2l19-1-19-1z"/>
<path fill="#b9a291" d="m239,396v1h9l-9-1z"/>
</svg>
