<svg xmlns="http://www.w3.org/2000/svg" viewBox="0 0 24 38">
<g fill-rule="evenodd">
<path fill="#edd400" d="m2,31.5l10,5v-25l-10-5v25z"/>
<path fill="#fce94f" d="m12,36.5l10-5v-25l-10,5v25z"/>
<path fill="#fff" d="m2,6.5c0-1 9-5 10-5s10,4 10,5-9,5-10,5-10-4-10-5z"/>
<path fill="#c4a000" d="m6,6.5c0-1 4.575-3 6-3 1,0 6,2 6,3s-5,3-6,3-6-2-6-3z"/>
<path d="m12,1c-.292,0-.517,.071-.875,.1875s-.783,.3021-1.2812,.5c-.9974,.3958-2.2405,.933-3.4376,1.5-1.197,.567-2.3661,1.1572-3.25,1.6875-.4419,.2651-.8114,.5166-1.0937,.75-.1411,.1167-.2426,.215-.3437,.3438-.1012,.1287-.2188,.2812-.2188,.5312v25c0,.25 .1176,.402 .2188,.531 .1011,.129 .2026,.227 .3437,.344 .2823,.233 .6518,.485 1.0937,.75 .8839,.53 2.053,1.12 3.25,1.687 1.1971,.568 2.4402,1.105 3.4376,1.5 .4982,.198 .9232,.384 1.2812,.5 .358,.117 .583,.188 .875,.188s.517-.071 .875-.188c.358-.116 .783-.302 1.281-.5 .998-.395 2.241-.932 3.438-1.5 1.197-.567 2.366-1.157 3.25-1.687 .442-.265 .811-.517 1.094-.75 .141-.117 .242-.215 .343-.344s.219-.281 .219-.531v-25c0-.25-.118-.4025-.219-.5312-.101-.1288-.202-.2271-.343-.3438-.283-.2334-.652-.4849-1.094-.75-.884-.5303-2.053-1.1205-3.25-1.6875s-2.44-1.1042-3.438-1.5c-.498-.1979-.923-.3835-1.281-.5s-.583-.1875-.875-.1875zm0,1c-.042,0 .237,.0501 .562,.1562 .326,.1062 .765,.2448 1.25,.4376 .972,.3854 2.166,.9107 3.344,1.4687s2.322,1.1553 3.156,1.6563c.418,.2504 .755,.4794 .969,.6562 .107,.0884 .188,.1791 .219,.2188v24.812c-.031,.04-.112,.131-.219,.219-.214,.177-.551,.406-.969,.656-.834,.501-1.978,1.099-3.156,1.657-1.178,.557-2.372,1.083-3.344,1.468-.485,.193-.924,.332-1.25,.438-.325,.106-.604,.156-.562,.156s-.237-.05-.562-.156c-.326-.106-.765-.245-1.25-.438-.9719-.385-2.1663-.911-3.3442-1.468-1.178-.558-2.3214-1.156-3.1563-1.657-.4175-.25-.7549-.479-.9687-.656-.107-.088-.1876-.179-.2188-.219v-24.812c.0312-.0399 .1118-.1306 .2188-.219 .2138-.1768 .5512-.4058 .9687-.6562 .8349-.501 1.9783-1.0983 3.1563-1.6563 1.1779-.558 2.3723-1.0833 3.3442-1.4687 .485-.1928 .924-.3314 1.25-.4376 .325-.1061 .604-.1562 .562-.1562z"/>
<path d="m5,28.188v5.124l.2812,.126 4,2 .7188,.374v-5.124l-.2812-.126-4-2-.7188-.374zm1,1.624l3,1.5v2.876l-3-1.5v-2.876z"/>
<path d="m15.5,23.688l-.719,.374-2,1-.281,.126v4.124l.719-.374 2-1 .281-.126v-4.124zm-1,1.624v1.876l-1,.5v-1.876l1-.5z"/>
<path d="m15.5,17.688l-.719,.374-2,1-.281,.126v4.124l.719-.374 2-1 .281-.126v-4.124zm-1,1.624v1.876l-1,.5v-1.876l1-.5z"/>
<path d="m15.5,11.688l-.719,.374-2,1-.281,.126v4.124l.719-.374 2-1 .281-.126v-4.124zm-1,1.624v1.876l-1,.5v-1.876l1-.5z"/>
<path d="m20.5,21.188l-.719,.374-2,1-.281,.126v4.124l.719-.374 2-1 .281-.126v-4.124zm-1,1.624v1.876l-1,.5v-1.876l1-.5z"/>
<path d="m20.5,15.188l-.719,.374-2,1-.281,.126v4.124l.719-.374 2-1 .281-.126v-4.124zm-1,1.624v1.876l-1,.5v-1.876l1-.5z"/>
<path d="m20.5,9.1875l-.719,.375-2,.9995-.281,.126v4.124l.719-.374 2-1 .281-.126v-4.1245zm-1,1.6245v1.876l-1,.5v-1.876l1-.5z"/>
<path d="m8.5,23.688v4.124l.2812,.126 1.9998,1 .719,.374v-4.124l-.281-.126-2.0002-1-.7188-.374zm1,1.624l1,.5v1.876l-1-.5v-1.876z"/>
<path d="m8.5,17.688v4.124l.2812,.126 1.9998,1 .719,.374v-4.124l-.281-.126-2.0002-1-.7188-.374zm1,1.624l1,.5v1.876l-1-.5v-1.876z"/>
<path d="m8.5,11.688v4.124l.2812,.126 1.9998,1 .719,.374v-4.124l-.281-.126-2.0002-1-.7188-.374zm1,1.624l1,.5v1.876l-1-.5v-1.876z"/>
<path d="m3.5,21.188v4.124l.2812,.126 2,1 .7188,.374v-4.124l-.2812-.126-2-1-.7188-.374zm1,1.624l1,.5v1.876l-1-.5v-1.876z"/>
<path d="m3.5,15.188v4.124l.2812,.126 2,1 .7188,.374v-4.124l-.2812-.126-2-1-.7188-.374zm1,1.624l1,.5v1.876l-1-.5v-1.876z"/>
<path d="m3.5,9.1875v4.1245l.2812,.126 2,1 .7188,.374v-4.124l-.2812-.126-2-.9995-.7188-.375zm1,1.6245l1,.5v1.876l-1-.5v-1.876z"/>
</g>
</svg>
