<svg xmlns="http://www.w3.org/2000/svg" viewBox="0 0 150.78 263.24" xmlns:xlink="http://www.w3.org/1999/xlink">
<defs>
<linearGradient gradientTransform="matrix(2.2453 0 0 2.2453 -922.36 -1105.9)" id="linearGradient4044" y1="588.28" y2="587.93" x1="423.91" gradientUnits="userSpaceOnUse" x2="457.14">
<stop offset="0" stop-color="#3f3f3f"/>
<stop offset="1" stop-opacity="0"/>
</linearGradient>
<linearGradient gradientTransform="matrix(5.9345 0 0 5.9345 758.73 -460.1)" id="linearGradient3262" y1="99.851" y2="109.66" x1="-117.91" gradientUnits="userSpaceOnUse" x2="-116.85">
<stop offset="0" stop-color="#f0a408"/>
<stop offset="1" stop-color="#bb4906"/>
</linearGradient>
<radialGradient cx="-104.62" cy="105.62" gradientTransform="matrix(5.1707 0 0 5.1707 616.5 -469.92)" id="radialGradient3264" r="12.625" gradientUnits="userSpaceOnUse">
<stop offset="0" stop-color="#fdff46"/>
<stop offset="1" stop-color="#fdff46" stop-opacity="0"/>
</radialGradient>
<radialGradient cx="-201.62" cy="90.375" gradientTransform="matrix(8.1209 0 0 5.3098 1712.9 -394.49)" id="radialGradient3266" r="4.75" gradientUnits="userSpaceOnUse">
<stop offset="0" stop-color="#fff"/>
<stop offset="1" stop-color="#fff" stop-opacity="0"/>
</radialGradient>
<radialGradient cx="-201.62" cy="90.375" gradientTransform="matrix(6.6857 0 0 6.5529 1423.5 -517.3)" id="radialGradient3260" r="9.875" gradientUnits="userSpaceOnUse">
<stop offset="0" stop-color="#ed9502"/>
<stop offset="1" stop-color="#ed9502" stop-opacity="0"/>
</radialGradient>
</defs>
<g fill="#f0a408">
<path d="m15.456,118.3 16.785,33.571 2.6227,16.261 3.6718,15.736 11.015,6.2945 46.684,3.1473 13.638-4.7209 5.2455-8.3927 1.5736-16.785 4.1964-13.114 10.491-17.31 9.9662-23.08-133.76-7.3436z"/>
<path d="m148.22,76.233c0,40.15-32.548,72.698-72.698,72.698s-72.698-32.548-72.698-72.698 32.548-72.698 72.698-72.698 72.698,32.548 72.698,72.698z"/>
</g>
<path fill="url(#radialGradient3260)" d="m141.54,74.922c0,35.738-29.559,64.71-66.022,64.71s-66.022-28.972-66.022-64.71 29.559-64.71 66.022-64.71 66.022,28.972 66.022,64.71z"/>
<path fill="url(#linearGradient4044)" d="m105.07,190 3.1754,6.5492-2.9769,5.3584v2.9769l.7939,3.3738-.3969,3.1754s-2.1831,1.1908-1.3892,1.5877c.7939,.3969 1.3892,1.5877 3.1754,1.3892 1.7861-.1985-.9923,4.5646-.9923,4.5646l-1.7862,1.7861s-2.3815,1.9846-.9923,2.3815c1.3892,.3969 3.7708,1.1908 3.7708,1.1908l-1.9846,4.763 .5954,1.9846-3.5723,5.9538-12.9,12.106-6.5492,10.32-13.297,.9923-9.1292-13.297-14.289-9.3276 .3969-6.3508-2.9769-3.1754 .9923-11.312-.9923-10.32 1.9846-3.1754-3.3738-8.5338 2.3815-5.5569s11.709,2.7785 16.075,3.1754c4.3661,.3969 33.54,1.5877 37.509-.1985 3.9692-1.7862 6.7477-2.3815 6.7477-2.3815z"/>
<path fill="url(#linearGradient3262)" d="m15.456,118.3 16.785,33.571 2.6227,16.261 3.6718,15.736 11.015,6.2945 46.684,3.1473 13.638-4.7209 5.2455-8.3927 1.5736-16.785 4.1964-13.114 10.491-17.31 9.9662-23.08-133.76-7.3436z"/>
<path fill="url(#radialGradient3264)" d="m140.8,76.233c0,36.053-29.227,65.28-65.28,65.28s-65.28-29.227-65.28-65.28 29.227-65.28 65.28-65.28 65.28,29.227 65.28,65.28z"/>
<path d="m63.867,256.9c-2.3868-2.8992-4.3396-5.638-4.3396-6.0863 0-.448-2.0066-1.8407-4.4592-3.0942-2.4526-1.2534-5.8482-3.726-7.5455-5.4948-2.6701-2.7824-2.9622-3.5422-2.1659-5.6367 .6999-1.8416 .6097-2.5402-.3798-2.9196-2.6301-1.0093-4.3419-4.866-3.3351-7.514 .6278-1.652 .6278-3.2952 0-4.9473-.6999-1.8404-.6009-2.9925 .3875-4.5 1.1338-1.7306 1.1375-2.2863 .0296-3.8078-1.7726-2.4243-1.6383-3.9035 .5537-6.0954 1.8492-1.8491 1.8469-1.8656-.5923-4.3049-2.1866-2.1866-2.3948-2.9708-1.9452-7.3267 .4481-4.3424 .2005-5.2831-2.2461-8.5656-3.6751-4.9289-5.5067-11.279-6.4299-22.292-.7566-9.0261-.8508-9.2939-7.515-21.388-9.181-16.66-17.222-33.88-20.157-43.169-13.447-42.57 10.642-86.615 53.457-97.739 10.377-2.696 26.236-2.696 36.613,0 26.909,6.9914 48.059,28.144 55.022,55.028 2.4079,9.2967 2.6334,25.076 .4979,34.844-2.5705,11.758-10.113,29.069-22.304,51.193-6.5044,11.804-6.6386,12.186-7.4374,21.197-1.4499,16.356-5.0495,23.822-13.472,27.943-6.916,3.3837-25.873,4.8754-43.051,3.388-6.8413-.5923-13.601-1.3276-15.021-1.6336-2.2934-.4943-2.5817-.2854-2.5817,1.8669 0,4.3819 1.8665,4.6383 30.435,4.1816 22.287-.3567 26.826-.6649 29.366-1.9956 .9342-.4896-.108-6.1695 .5845-6.4228 2.4781-.9062 5.3294,5.0144 5.3294,7.2096 0,1.6471-.922,2.9361-3.0511,4.2641-2.8055,1.7502-2.8535,1.8568-.5972,1.3246 4.8461-1.1429 4.166,5.2679-.7576,7.1398-7.1779,2.7291-25.834,4.5972-46.763,4.6828-13.174,.0534-13.582,.1145-12.639,1.8767 .8672,1.6205 2.0352,1.821 10.611,1.821 11.079,0 32.516-1.5277 39.976-2.849 2.7976-.4955 5.7547-1.4761 6.5716-2.1793 2.5872-2.2273 5.5806-2.4898 6.1984-.5436 2.2307,7.0282-12.944,10.413-47.657,10.631-9.1619,.0534-16.654,.3157-16.649,.5733 .0296,1.3296 1.6726,2.7341 3.8468,3.2798 3.0234,.7588 37.489-1.0672 46.145-2.4448 3.497-.5567 6.9313-1.5849 7.6316-2.2853 2.1921-2.1921 5.8576-2.6585 6.5576-.8342 .6336,1.6515-1.6274,6.0397-3.1121,6.0397-.4558,0-.6059,1.6537-.3341,3.6748 .454,3.3837 .1336,4.0594-4.0497,8.531-2.4984,2.671-5.7518,5.4817-7.2297,6.246-1.512,.7819-2.4831,1.922-2.2203,2.6068 .257,.6694-1.9391,3.598-4.8798,6.5081l-5.3533,5.2909c-1.5702,1.3314-13.942,1.5012-15.206,0l-4.3395-5.2712zm19.782-2.6788 2.634-2.3173-9.1532-.0296c-5.0343-.018-9.1532,.254-9.1532,.6003 0,.3466 .6989,1.4028 1.5536,2.347 2.4696,2.7289 10.734,2.3774 14.119-.6003zm5.6498-10.04c4.0539-1.5154 6.8016-3.4637 10.823-7.6747 2.9645-3.104 5.288-5.7391 5.1633-5.8558-.1246-.1163-3.1839,.3412-6.7982,1.0174-7.5591,1.4144-46.632,3.7777-48.787,2.951-2.4546-.9419-1.6022,.4659 2.551,4.213 3.5133,3.1698 8.1778,5.3664 14.317,6.7417 1.0327,.2314 5.347,.4694 9.5874,.53 5.8064,.082 9.0511-.3923 13.143-1.9221zm-6.4161-34.598c14.639-1.0371 21.707-2.3855 21.707-4.1412 0-.8367-1.8301-.9185-7.2756-.3246-4.0015,.4362-17.309,.6724-29.573,.5258-12.263-.1473-22.297-.1821-22.296-.0772 .0005,.1051 .4819,1.245 1.0687,2.534 .8461,1.8577 1.8679,2.402 4.9286,2.6258 5.1555,.3768 15.097,.018 31.441-1.1419zm6.548-19.672c19.006-1.5722 22.703-5.6532 24.554-27.11 .8115-9.4075 1.0028-10.006 6.019-18.865 8.235-14.544 19.16-37.419 21.71-45.457 12.408-39.113-8.2928-78.89-46.982-90.274-24.824-4.9863-53.595-.1228-70.739,16.342-39.095,46.913-12.936,82.585 8.3231,122.15 3.4703,6.422 3.8819,7.9357 4.6833,17.221 1.2911,14.959 5.0741,22.036 13.14,24.58 6.0662,1.9137 24.992,2.593 39.291,1.4101z"/>
<path fill="url(#radialGradient3266)" d="m114.1,85.39c0,13.93-17.27,25.222-38.574,25.222s-38.574-11.292-38.574-25.222 17.27-25.222 38.574-25.222 38.574,11.292 38.574,25.222z"/>
<path d="m55.477,182.76c0-2.0908 .4225-2.5818 2.2266-2.5818 2.2064,0 2.2329-.121 2.915-13.36 .4593-8.9263 1.1229-13.98 1.998-15.23 1.6604-2.3707 1.6769-4.8968 .0357-5.8645-3.3935-2.0042-4.641-10.516-2.0444-13.949 .7576-1.0023 1.3918-2.5895 1.4082-3.5273 .018-.9376-4.1348-11.077-9.2248-22.531s-10.028-22.891-10.973-25.415c-1.7158-4.582-1.7153-4.5914 .3472-6.2613 2.2297-1.8056 9.6752-3.7011 14.538-3.7011 1.9269,0 3.4091-.6329 4.1098-1.755 1.5957-2.5551 5.5399-3.0452 7.4571-.9266 2.2524,2.4889 12.767,2.4899 15.438,.001 2.1868-2.0373 5.9767-1.6599 7.7019,.767 .7797,1.0964 3.0788,1.8121 7.1825,2.2356 3.3198,.3424 7.5444,1.3607 9.3879,2.2626 2.7926,1.366 3.3329,2.1096 3.2379,4.456-.0671,1.549-4.8257,13.472-10.585,26.496l-10.471,23.679 1.4313,3.4256c2.261,5.4114 1.8792,11.283-.9153,14.078-2.826,2.826-2.8247,2.805-.4694,7.4249 1.5876,3.1142 1.8775,5.5362 1.8775,15.688v12.006h2.3471c1.9345,0 2.3469,.454 2.3469,2.5817v2.5817c-14.088,1.9147-27.917,2.2751-41.307,0v-2.5817zm30.974-14.551c-.004-9.429-.2766-11.44-1.8714-13.847-2.5671-3.8763-2.3932-8.1617 .4694-11.564 1.291-1.5341 2.347-3.89 2.347-5.2354 0-2.1697-.3709-2.4462-3.2857-2.4462-2.1078,0-4.0075-.7218-5.2988-2.0129-1.8984-1.8984-1.9789-2.6096-1.4139-12.501 .33-5.7684 .8701-12.467 1.2018-14.885l.6028-4.3974h-2.944c-3.5074,0-3.4542-.5264-1.4732,14.579 2.1366,16.292 1.1359,19.218-6.5724,19.218-3.0094,0-3.3474,.2558-3.3474,2.5303 0,1.4588 1.0546,3.6312 2.4907,5.1302 2.8039,2.9266 3.1876,7.1261 .9615,10.524-.8941,1.3639-1.6002,6.1898-2.0513,14.01l-.6884,11.929h20.88l-.004-11.031zm-16.011-40.837c-.0296-1.1617-.7971-7.8154-1.6995-14.786-1.0806-8.3451-1.3499-13.475-.7884-15.021 .578-1.5889 .2926-5.5308-.8825-12.204l-1.7351-9.8573-5.6326,.295c-9.1277,.4777-12.255,1.4027-11.896,3.5188 .1704,1.0005 4.7128,11.747 10.096,23.881 5.3828,12.134 9.7853,23.012 9.7832,24.174-.002,1.2533 .5691,2.1123 1.4046,2.1123 .8518,0 1.3852-.8347 1.3501-2.1123zm14.14,.3632c0-.9621 4.4348-11.701 9.855-23.864 5.4204-12.163 9.9617-23.069 10.092-24.235 .2706-2.4142-2.0555-3.1747-12.089-3.9541l-5.7548-.4469-1.2452,7.1753c-.6846,3.9464-1.2872,11.4-1.3388,16.563-.0476,5.1633-.4469,14.141-.8788,19.949-.5762,7.7504-.4997,10.561 .2873,10.561 .5905,0 1.0724-.7872 1.0724-1.7493zm-5.9527-38.631c.6041-3.3497 1.3716-7.8857 1.7056-10.08l.6066-3.9899h-4.7515c-5.5721,0-5.4207-.5685-3.184,11.954 1.2467,6.9794 1.8703,8.7177 3.0459,8.4913 1.0181-.1958 1.8204-2.1808 2.5769-6.375z"/>
</svg>
