<svg xmlns="http://www.w3.org/2000/svg" viewBox="0 0 376.193 300.715" xmlns:xlink="http://www.w3.org/1999/xlink" enable-background="new 0 0 376.193 300.715">
<switch>
<g>
<g>
<path fill="#c19965" d="m29.632,230.95c-.957-1.427-1.613-3.906-1.834-6.959-.288-4.003-.047-5.25 1.568-8.052 1.418-2.441 2.585-3.753 4.424-4.977 1.376-.912 3.249-2.439 4.159-3.403 .94-.987 2.231-1.701 2.989-1.651 .731,.057 2.054,.096 2.936,.083 .882,0 2.634,.696 3.882,1.551 2.061,1.391 2.306,1.864 2.561,4.874 .314,3.825-.27,4.762-2.91,4.673-6.718-.224-11.009,5.958-6.261,9.02 1.035,.669 2.23,1.228 2.657,1.236 .428,.01 .971,.407 1.206,.87 .234,.473 1.129,.668 1.99,.454 .861-.212 1.714-.237 1.913-.064 .861,.806 6.19,1.166 12.827,.867 3.968-.187 7.434-.329 7.698-.336 .262,0 4.669-.284 9.789-.63 5.114-.351 10.382-.451 11.695-.226 1.321,.221 5.186,.744 8.6,1.154 3.417,.416 9.177,1.119 12.813,1.567 3.644,.439 7.576,.731 8.756,.644 1.169-.083 4.712,.271 7.867,.784 3.163,.525 8.346,.951 11.531,.962 3.185,.001 5.889,.096 6.007,.204 .121,.11 2.419,.238 5.121,.288 5.493,.092 17.104,.924 17.447,1.242 .243,.223 10.635,.513 15.181,.411 1.537-.031 5.248-.388 8.237-.786 2.995-.413 8.171-.555 11.501-.321 6.339,.433 27.269,.11 37.367-.584 3.25-.218 13.315-.552 22.374-.733 9.058-.181 18.147-.547 20.214-.824 4.952-.662 8.228-.734 14.384-.32 2.818,.179 6.313,.355 7.763,.355 1.454,.018 2.8,.181 2.992,.357 .201,.186 2.13,.059 4.311-.271 2.173-.325 4.993-.656 6.261-.722 3.7-.203 6.668-.919 8.373-2.024 .882-.566 2.636-1.047 3.901-1.065 1.266-.024 2.481-.243 2.709-.481 .214-.236 1.483-.839 2.802-1.336 2.25-.853 2.537-1.162 4.666-4.992 1.242-2.245 2.499-5.451 2.792-7.128 .656-3.852 1.246-4.446 4.338-4.426 2.138,.031 2.781,.357 4.344,2.222 3.694,4.415 5.53,11.571 4.4,17.157-.447,2.184-1.047,3.129-3.2,4.995-1.458,1.26-3.604,3.143-4.772,4.183-1.168,1.039-2.818,1.936-3.658,1.986-.835,.057-1.768,.377-2.069,.7-.304,.326-3.013,.616-6.01,.647-3,.014-7.463,.313-9.92,.637-10.293,1.379-43.628,2.315-57.404,1.627-5.411-.274-32.175-.163-59.481,.237-27.291,.407-50.562,.531-51.718,.276-1.991-.444-9.167-.772-23.148-1.057-3.46-.077-7.283-.24-8.481-.374-7.624-.838-24.773-1.306-33.75-.922-2.545,.105-5.965,0-7.606-.237-1.64-.23-4.696-.371-6.793-.287-2.102,.075-6.812-.221-10.46-.681-3.651-.445-9.519-.814-13.045-.817-6.683-.001-12.828-.883-14.048-2.021-.399-.362-1.252-.571-1.919-.461-.661,.111-2.512-.62-4.107-1.637-1.591-1.003-3.424-2.144-4.075-2.538-.637-.37-1.843-1.68-2.665-2.9z"/>
<path fill="#c19965" d="m300.14,224.83c-1.589-2.271-.913-3.14 1.6-2.037 1.599,.696 1.91,1.148 1.741,2.58-.124,.943-.496,1.804-.833,1.895-.68,.19-.65,.22-2.51-2.43zm13.86-3.28c.245-1.215 3.13-.913 4.621,.479 .621,.576 1.278,1.802 1.45,2.708 .307,1.606 .262,1.645-1.372,1.211-2.19-.58-4.95-3.16-4.7-4.4zm10.74-.47c-.391-.613-.391-1.457-.001-1.87 .751-.808 1.851,.049 3.444,2.702l.981,1.618-1.759-.447c-.959-.247-1.789-.551-1.856-.677-.05-.12-.42-.71-.8-1.32zm-254.12,5.14c-.569-1.344-.336-1.992 1.212-3.393 1.524-1.384 2.24-1.555 3.547-.823 .896,.506 1.927,1.367 2.277,1.911 .754,1.155-.9,5.461-2.393,6.183-1.174,.58-3.62-1.46-4.643-3.88zm30.447,3.02c.075-.384-.567-1.405-1.427-2.259-4.076-4.021-1.608-5.154 3.396-1.559 1.921,1.392 1.941,1.575 .457,4.188-.756,1.33-1.216,1.599-1.797,1.069-.42-.41-.7-1.05-.63-1.44zm37.47,2.94c-.177-.688-.979-1.874-1.777-2.632-1.542-1.445-1.058-2.722 1.063-2.787 2.991-.11 4.701,3.612 2.512,5.436-1.15,.96-1.54,.96-1.79-.02zm21.8-1.42c-2.184-3.135-.305-3.909 3.5-1.447 .915,.601 .574,4.074-.422,4.344-.76,.22-1.24-.23-3.08-2.89zm13.46,2.75c-1.46-1.834-.584-2.733 1.729-1.768 1.545,.646 2.24,3.172 1.196,4.296-.48,.5-.66,.34-2.93-2.53zm1.34-7.7c-1.565-1.977-1.523-4.326 .082-4.385 1.204-.043 4.12,2.484 4.508,3.902 .331,1.197-2.079,3.565-2.784,2.731-.33-.38-1.14-1.39-1.81-2.24z"/>
<path fill="#fff878" d="m51.222,217.45c-.645-2.113-1.108-11.085-.603-11.627 .218-.231 .931-2.164 1.6-4.306 .997-3.204 1.727-4.333 4.281-6.565 1.708-1.479 4.538-3.201 6.29-3.808 4.12-1.434 6.705,.214 7.484,4.799 .705,4.103-.037,5.295-4.809,7.877-5.327,2.88-5.657,3.824-2.433,6.834 2.44,2.277 2.847,2.368 9.587,2.133 8.5-.276 13.654,1.353 14.712,4.665 .973,3.053-.669,5.584-3.64,5.604-1.301-.003-4.367,.444-6.798,.988-2.432,.532-5.253,.852-6.263,.711-1.002-.15-3.535-.417-5.645-.594-2.087-.182-4.023-.537-4.295-.783-.273-.243-1.226-.462-2.122-.479-2.16-.01-6.728-3.41-7.346-5.44zm129.13-.16c-.38-1.989 .212-2.422 3.614-2.63 1.611-.103 4.676-.465 6.801-.805 2.121-.351 4.202-.318 4.615,.072 .419,.383 .973,.469 1.241,.176 .262-.285 2.33,.021 4.59,.692 2.25,.661 4.979,1.21 6.061,1.235 1.076,.009 4.81,1.057 8.289,2.31 3.492,1.254 7.012,2.506 7.846,2.786 .838,.279 1.918,.754 2.408,1.06 .481,.298 2.404,.528 4.256,.524 1.859-.018 3.995,.258 4.737,.624 .753,.347 1.608,.378 1.907,.063 .291-.325 4.085-.673 8.436-.778 4.352-.118 9.446-.768 11.344-1.458 1.9-.687 3.994-1.418 4.66-1.61 6.201-1.829 9.84-3.166 13.411-4.912 2.314-1.129 4.763-2.198 5.44-2.386 .685-.186 1.907-.615 2.71-.96 .802-.344 2.672-.703 4.15-.815 1.49-.104 3.237-.489 3.892-.854 2.068-1.16 17.956-.941 24.367,.317 1.291,.262 2.678,.114 3.103-.336 .412-.444 1.112-.474 1.545-.068 .441,.411 .978,.573 1.181,.36 .215-.219 2.888-.56 5.944-.766 5.552-.373 7.567-.865 11.188-2.716l1.938-.986-2.851-2.01c-1.571-1.102-3.94-2.656-5.262-3.458-1.327-.798-3.201-2.415-4.166-3.592-1.907-2.318-6.292-4.563-12.452-6.368-4.976-1.458-11.215-6.753-11.471-9.737-.09-1.1 .025-2.192 .257-2.444 .772-.817 10.699-.801 11.584,.03 .484,.449 4.245,2.396 8.376,4.323 4.124,1.932 7.946,3.936 8.505,4.454 .554,.521 2.271,1.407 3.803,1.971 4.206,1.563 13.221,8.519 15.25,11.792 .92,1.473 1.484,3.148 1.246,3.725-.23,.578-.092,1.354 .307,1.723 1.141,1.069-.021,4.037-2.639,6.719-1.829,1.878-3.745,2.868-8.024,4.159-3.103,.924-6.032,1.61-6.511,1.514-.484-.098-1.623,.185-2.527,.631-.91,.446-3.166,.563-5.013,.253-1.861-.308-6.692-.554-10.741-.54-4.048,.012-7.663-.25-8.041-.582-.368-.334-.853-.411-1.083-.165-.225,.245-2.118,.223-4.197-.04-2.123-.265-6.373,.201-9.7,1.068-3.251,.849-6.234,1.256-6.617,.899-.378-.361-.774-.246-.882,.245-.096,.488-.896,.976-1.775,1.08-.883,.101-3.351,1.229-5.502,2.516-4.687,2.805-9.092,4.902-10.951,5.214-.74,.121-3.691,.992-6.557,1.938-2.863,.939-5.851,1.676-6.648,1.631-.805-.048-1.647,.116-1.876,.369-1.364,1.468-16.273,2.104-19.129,.821-.403-.177-3.492-1.207-6.864-2.294-3.369-1.075-7.672-2.462-9.553-3.087-1.886-.614-4.527-1.394-5.866-1.715-3.95-.953-5.079-1.365-5.93-2.164-.443-.408-1.026-.508-1.29-.221-.27,.283-3.701,.247-7.614-.098-3.932-.342-7.814-.665-8.633-.715-3.13-.17-8.23-3.71-8.66-5.97z"/>
<path fill="#fc7859" d="m96.843,184.98c-2.131-4.116-3.117-8.519-3.106-13.862 .003-7.117 1.594-8.747 8.521-8.71 2.813,.013 5.206,.343 5.314,.746 .109,.406 .725,.762 1.365,.803 .748,.035 1.289,.519 1.497,1.288 .167,.673 .817,1.692 1.426,2.27 2.559,2.414 3.007,5.913 1.395,10.894-2.786,8.597-6.338,11.694-11.979,10.453-2.695-.59-2.764-.65-4.437-3.88zm41.647,5.61c-.868-5.322-.716-17.346 .236-18.365 .853-.917 5.625-.766 9.167,.303 6.063,1.811 16.144,9.512 15.994,12.206-.19,3.283-6.362,7.951-15.375,11.63-4.79,1.95-9.19-.58-10.03-5.77zm-52.422,1.28c-2.572-5.169-3.24-7.243-4.972-15.458-1.304-6.193-1.273-6.666 .549-8.923 1.821-2.264 2.016-2.319 4.115-1.21 2.775,1.463 3.446,2.804 5.363,10.766 .855,3.542 1.838,6.696 2.179,7.009 .339,.317 .635,1.046 .651,1.631 .064,1.602 1.589,3.666 6.365,8.618 3.969,4.122 4.707,4.621 8.571,5.75 6.345,1.852 24.489,2.835 34.548,1.876 5.283-.513 10.202-2.27 15.539-5.572l4.936-3.042 3.553-6.363c2.888-5.152 3.417-6.65 2.809-7.871-.95-1.887 .289-5.256 2.015-5.475 .672-.089 2.382,.61 3.799,1.556 1.411,.938 3.356,1.732 4.301,1.758 2.861,.078 5.501,3.275 5.299,6.395-.097,1.459-.546,3.079-1,3.593-.467,.51-1.517,2.652-2.344,4.756-.821,2.104-2.945,5.77-4.685,8.131-2.656,3.555-3.945,4.729-7.578,6.846-3.819,2.231-7.432,3.677-9.159,3.65-.306,.004-2.666,.617-5.261,1.36-2.587,.753-5.587,1.216-6.651,1.036-1.072-.189-2.257,.002-2.649,.416-.393,.416-1.432,.661-2.326,.55-.89-.115-2.21-.023-2.935,.21-1.708,.541-10.302,1.042-13.716,.785-9.933-.752-14.974-1.469-17.007-2.407-2.236-1.038-14.478-9.726-18.872-13.388-2.473-2.1-3.924-3.95-5.45-7.01zm-15.173,8.27c-2.873-5.271-3.629-7.756-4.138-13.587-.506-5.594 .041-7.687 2.884-11.137 3.646-4.436 7.651-3.304 8.283,2.351 .197,1.791 1.642,6.679 3.203,10.868 4.594,12.301 9.371,18.535 15.858,20.727 1.816,.606 3.648,1.434 4.069,1.818 .422,.388 2.897,1.1 5.508,1.581 2.6,.48 6.565,1.511 8.8,2.277 5.198,1.805 10.612,2.257 21.4,1.76 7.76-.354 18.995-2.037 19.868-2.972 .187-.199 1.762-.675 3.515-1.08 1.74-.397 5.695-1.935 8.779-3.448 3.088-1.489 5.993-2.813 6.439-2.944 .459-.13 1.067-.447 1.354-.723 .296-.277 2.162-1.621 4.154-2.991 3.429-2.34 4.693-3.711 16.602-17.947l2.102-2.52 2.375,2.098c2.419,2.156 3.186,5.276 1.684,6.892-.376,.391-.986,1.866-1.377,3.253-.686,2.503-1.139,3.26-4.648,7.812-.978,1.273-3.191,4.439-4.919,7.043-1.724,2.603-3.728,4.984-4.447,5.301-.726,.313-1.545,.892-1.803,1.279-.269,.4-.874,.648-1.345,.55-.478-.094-1.316,.317-1.87,.913-.56,.597-2.257,1.339-3.765,1.637-1.518,.306-3.468,.807-4.325,1.101-10.162,3.504-13.627,4.21-23.642,4.794-4.152,.237-7.717,.634-7.928,.864-.717,.761-22.465,1.18-26.839,.505-14.595-2.251-27.237-7.978-37.768-17.119-4.817-4.17-6.442-5.98-8.047-8.94zm141.9-1.73c-.963-1.604-2.388-3.551-3.165-4.303-1.81-1.796-2.111-8.179-.468-9.941 1.771-1.906 2.314-1.722 9.12,3.113 2.35,1.669 6.229,3.52 9.64,4.6 3.136,.991 6.935,2.4 8.455,3.122 1.502,.721 2.463,.888 2.145,.362-1.461-2.381-1.805-4.416-1.065-6.396 1.035-2.762 1.878-2.736 3.341,.116 1.441,2.813 2.396,3.243 6.04,2.724 1.557-.221 3.709-.498 4.776-.628 1.057-.127 2.807-.867 3.874-1.659 1.252-.929 2.575-1.211 3.753-.82 4.047,1.352 3.338,5.142-1.473,7.945-3.816,2.224-2.951,2.779 2.78,1.796 3.882-.67 8.096-2.375 12.828-5.164l1.959-1.162-2.259,.375c-1.971,.33-2.618,.017-4.949-2.331-2.904-2.94-3.224-4.988-.744-4.715 .827,.093 1.916,.545 2.41,1.014 1.104,1.023 2.544,.389 4.938-2.199 2.109-2.279 2.351-3.194 1.494-5.653-.938-2.683 1.471-2.696 4.346-.005 3.199,2.98 2.936,5.648-.938,9.522-1.564,1.568-2.672,3.023-2.445,3.233 .214,.204 1.929-.702 3.798-2.033 6.188-4.376 12.367-14.304 11.236-18.071-.548-1.816 1.136-2.888 4.979-3.19 4.646-.363 9.171,1.793 9.392,4.474 .133,1.609-1.444,6.327-4.443,13.249-.585,1.357-1.608,3.77-2.271,5.339-1.263,3.077-3.366,5.132-12.235,11.971-5.984,4.625-10.214,6.539-16.939,7.681-2.78,.471-6.829,1.207-8.96,1.626-2.148,.425-6.187,.615-8.98,.43-2.8-.188-6.352,.035-7.91,.495-1.915,.564-4.201,.397-7.093-.536-2.354-.741-4.476-1.139-4.718-.871-.711,.746-4.462-.111-7.149-1.646-4.24-2.43-11.24-8.76-13.1-11.87zm-85.77-32.15c-.221,.116 5.668,12.422 5.416,16.573-.066,1.094 .466,3.48 1.19,5.283 .723,1.798 1.181,4.855 1.017,6.78-.29,3.271-.457,3.572-2.567,4.527-2.521,1.138-11.311,1.813-14.014,1.073-4.609-1.266-8.454-7.416-6.975-11.134 .429-1.077 1.155-2.966 1.6-4.184 .938-2.552 7.015-12.369 8.905-14.404 .706-.751 4.378-4.317 4.478-4.393l.94-.13zm22.91,19.94c5.277-2.903 5.366-3.177 1.728-4.82-1.696-.755-3.973-1.311-5.061-1.209-1.935,.161-1.978,.247-1.627,3.887 .187,2.039 .635,3.773 .989,3.849 .37,.06 2.16-.71 3.97-1.71zm-26.09,5.63c3.978-.876 4.102-.975 4.141-3.19 .02-1.256-.249-2.551-.59-2.875-.355-.33-.717-1.538-.811-2.699-.105-1.147-.405-2.077-.666-2.08-.268,.018-1.777,1.952-3.344,4.279-1.574,2.333-3.331,4.466-3.888,4.741-1,.488-.651,2.278 .495,2.571 .3,.08 2.4-.26 4.66-.74zm-19.94-12.77c.566-.595 1.704-2.418 2.544-4.035 1.305-2.509 1.267-3.215-.217-4.753-.971-1.001-2.092-2.169-2.477-2.605-.398-.428-1.354-.282-2.125,.338-.942,.76-1.266,2.655-1,5.77 .44,5.03 1.68,7.03 3.28,5.29z"/>
<path fill="#d7fca2" d="m121.42,171.92c.301-.245-1.421-1.902-4.651-4.392-10.983-8.479-16.588-8.748-32.836-1.54-7.096,3.146-10.557,5.237-14.776,8.922-1.819,1.583-3.813,3.061-4.426,3.274-.611,.219-2.472,1.639-4.125,3.159-2.333,2.137-3.958,2.999-7.285,3.871-10.138,2.636-14.552,.443-16.676-8.265-1.209-4.993-.974-7.251 1.11-10.724l1.175-1.961-4.556-.199c-5.477-.241-15.773-2.003-16.686-2.858-.357-.333-1.993-.809-3.622-1.057-3.762-.573-6.864-2.397-9.078-5.359-2.036-2.712-4.11-7.377-4.556-10.244-.938-6.069-.414-9.844 2.101-15.224 3.335-7.123 5.104-8.936 10.746-11.03 8.411-3.109 17.175-2.288 24.853,2.337 3.784,2.286 4.003,2.521 6.112,6.748 1.994,3.998 2.068,4.507 .875,5.778-.717,.774-1.656,1.338-2.085,1.251-.436-.089-.854,.151-.935,.523-.175,.905-2.045,.343-5.72-1.746-3.792-2.143-7.423-3.346-8.527-2.808-.459,.229-2.44,.219-4.394-.03-2.993-.373-3.936-.143-5.9,1.421-1.291,1.02-2.97,2.336-3.75,2.918-2.135,1.59-1.185,6.665 2.018,10.776 3.164,4.083 5.172,4.529 12.447,2.823 6.7-1.575 10.891-1.654 15.442-.314 3.263,.978 3.822,1.372 6.055,4.278 2.825,3.646 3.39,7.354 1.825,11.935-.516,1.496-.642,2.79-.275,2.863 1.101,.216 7.598-2.705 12.398-5.563 2.474-1.469 6.354-3.653 8.617-4.85 2.276-1.195 5.106-2.922 6.312-3.843 2.771-2.133 5.647-3.516 6.208-2.996 .235,.221 .81-.008 1.283-.515 1.03-1.104 10.106-3.501 12.667-3.346 1.005,.066 2.456,.111 3.216,.104 .763,0 3.19,.503 5.379,1.128 3.441,.969 4.836,1.828 9.937,6.084 3.28,2.726 6.788,5.258 7.804,5.631 3.794,1.377 9.96-.066 12.679-2.963 1.072-1.129 8.813-4.056 9.369-3.53 .307,.277 1.961,.194 3.685-.182 4.045-.893 8.188-.842 11.868,.153 3.876,1.052 10.723,5.092 14.353,8.477 2.409,2.249 3.536,2.813 6.522,3.301 3.25,.539 4.451,.242 12.107-2.987 4.674-1.972 9.306-4.198 10.315-4.968 2.315-1.779 6.251-3.386 8.001-3.264 .765,.052 3.315,.634 5.682,1.281 3.412,.937 4.593,1.586 5.72,3.106 1.741,2.37 3.084,7.304 2.533,9.334-.555,2.076 .912,7.316 2.463,8.763 .708,.659 2.391,1.545 3.741,1.98 4.002,1.25 7.007-.31 15.814-8.177 11.806-10.551 13.802-11.643 22.38-12.229 6.604-.452 16.349-.257 18.777,.372 2.045,.533 8.109,2.631 8.418,2.91 .116,.117 2.206,.483 4.626,.818 2.418,.333 5.713,1.033 7.294,1.574 2.891,.966 2.915,.957 5.419-1.718 1.388-1.493 4.399-3.796 6.708-5.144 4.124-2.397 4.275-2.426 8.87-1.309 2.768,.676 6.072,2.069 8.116,3.433 4.584,3.075 7.312,3.736 15.49,3.815 6.298,.054 7.024-.099 8.664-1.863 1.621-1.736 1.682-2.148 .707-4.325-2.63-5.865-8.849-8.439-18.578-7.69-5.892,.455-12.68-.644-14.516-2.356-1.776-1.658 .018-9.79 2.34-10.603 .676-.233 2.651-1.025 4.407-1.751 3.729-1.57 6.362-1.83 10.701-1.083 9.614,1.652 13.423,3.31 18.767,8.151 3.802,3.445 4.466,4.354 5.82,7.991 1.934,5.185 2.424,16.619 .847,19.767-1.556,3.109-7.073,8.37-9.808,9.352-4.178,1.507-10.08,1.557-12.338,.109-1.156-.738-2.479-1.595-2.953-1.904-.479-.301-2.594-1.042-4.706-1.651-2.115-.609-5.793-1.96-8.186-3.006-4.917-2.147-5.816-1.943-8.815,1.984-2.43,3.175-3.565,3.37-11.357,1.951-2.687-.49-5.527-.667-6.329-.393-.791,.278-1.75,.21-2.116-.138-.375-.345-.938-.501-1.252-.351-.312,.16-3.181-.465-6.375-1.376-3.183-.916-7.749-1.989-10.137-2.4-2.378-.403-4.582-.962-4.88-1.25-.898-.837-13.247,.134-14.734,1.169-.756,.512-2.599,2.021-4.087,3.33-1.487,1.31-3.245,2.577-3.917,2.818-1.968,.683-8.524,5.082-10.127,6.78-2.464,2.611-11.349,6.843-16.252,7.747-4.692,.858-9.623,.222-11.451-1.492-.555-.521-1.355-.851-1.78-.729-.42,.111-1.768-.73-2.993-1.872-3.819-3.56-5.903-10.794-4.232-14.683 .531-1.236 .782-2.415 .57-2.61-.218-.208-.089-.705 .306-1.116 .835-.899-.259-2.068-1.729-1.838-.584,.088-1.705,.604-2.496,1.149-.786,.527-2.51,1.665-3.81,2.512-1.324,.856-4.997,3.876-8.173,6.729l-5.793,5.187-4.962,.055c-5.646,.068-11.767-2.237-15.675-5.889-1.288-1.193-3.059-2.362-3.935-2.585-.88-.235-4.033-2.417-7.002-4.859-4.888-3.996-5.615-4.391-7.498-4.117-3.421,.495-8.843,2.951-11.651,5.266-5.636,4.655-10.565,5.361-18.635,2.663-2.027-.682-3.238-.918-3.641-.704l-.88,.13z"/>
<path fill="#ffde76" d="m42.302,277.27c-2.469-3.4-8.064-15.252-7.895-16.728 .095-.749-.169-1.674-.565-2.061-.398-.394-.828-3.408-.956-6.714-.181-4.768 .135-6.566 1.507-8.714 2.209-3.438 4.17-4.383 7.831-3.763 1.607,.282 4.621,.042 6.686-.51 2.063-.564 4.7-1.061 5.871-1.089 4.132-.144 24.699,1.69 25.299,2.249 .339,.313 3.225,.549 6.42,.512 3.186-.033 5.906,.037 6.052,.177 .143,.133 1.982,.286 4.073,.331 2.102,.049 8.203,.193 13.559,.319 5.347,.131 11.514,.238 13.699,.24 5.358,0 12.461,1.141 13.569,2.173 .494,.46 1.458,.524 2.144,.137 .688-.384 3.527-.389 6.295-.01 2.781,.388 8.276,.641 12.215,.575 3.934-.07 10.823-.066 15.313,.007 4.471,.073 10.862,.152 14.181,.167 3.332,.015 8.445,.194 11.379,.396 2.941,.196 6.038,.226 6.886,.079 .854-.152 3.16-.085 5.134,.146 3.919,.454 85.853-2.445 99.925-3.545 16.154-1.256 20.547-1.822 24.116-3.102 1.954-.71 3.919-.948 4.365-.532 .439,.412 1.576,.764 2.527,.776 3.271,.044 4.443,3.261 4.928,13.459 .253,5.208 .231,9.709-.043,9.998-.271,.296-.465,1.988-.433,3.757 .082,4.49-5.328,16.719-9.17,20.709-2.32,2.399-6.31,4.482-12.859,6.692-5.207,1.755-9.003,2.283-19.165,2.632-6.98,.247-16.676,.749-21.533,1.114-13.346,1.003-55.815,2.462-63.282,2.183-3.611-.14-10.845-.003-16.064,.3-5.224,.292-9.83,.236-10.239-.146-.403-.374-.934-.46-1.19-.189-.642,.68-29.01,1.87-29.68,1.243-.302-.282-2.117-.504-4.021-.51-6.065-.016-20.151-.757-24.309-1.295-2.208-.274-6.067-.505-8.567-.51-2.504,0-6.868-.158-9.697-.354-2.827-.201-7.264-.295-9.85-.239-5.705,.14-9.26-.072-16.841-1.012-3.188-.396-6.291-.663-6.891-.604-1.884,.19-10.506-1.438-11.247-2.13-.663-.612-5.593-2.018-9.828-2.783-5.065-.93-15.729-8.45-19.661-13.85zm18.109,.62c2.47,.978 5.647,1.931 7.073,2.122 1.42,.189 2.762,.501 2.971,.702 .589,.559 11.99,1.718 14.887,1.523 1.419-.091 2.767,.008 3.007,.235 .813,.756 13.013,1.774 33.884,2.829 7.003,.347 24.625,.136 33.671-.407 13.14-.803 23.72-1.073 28.71-.738 9.469,.628 22.779,.872 28.855,.524 3.173-.18 8.55-.176 11.929,.014 6.277,.351 20.653-.018 32.117-.824 14.211-1.006 36.095-2.348 37.271-2.296 .684,.033 2.326-.028 3.639-.156 1.302-.128 4.6-.403 7.318-.621 2.732-.227 7.716-1.083 11.086-1.911 5.899-1.456 6.261-1.656 9.703-5.392 3.769-4.08 6.406-9.769 5.632-12.188-.254-.783-1.958-1.927-4.729-3.163-6.442-2.879-9.394-3.433-15.282-2.875-1.27,.118-4.267,.235-6.662,.241-2.4,.019-8.604,.22-13.788,.444-5.184,.229-9.676,.191-9.961-.085-.536-.494-11.23-.335-22.055,.338-7.048,.435-17.396,.613-23.355,.388-2.575-.095-9.979-.076-16.452,.052-6.476,.12-11.967,.03-12.204-.194-.247-.231-5.717-.302-12.179-.16-6.46,.136-12.328,.252-13.048,.258-.724,.015-1.443-.098-1.597-.244-.156-.141-3.891-.15-8.296-.014-9.739,.282-30.521-.15-36.246-.763-2.296-.247-6.646-.438-9.67-.418-5.798,.025-10.778-.133-19.361-.585-8.588-.47-40.454,.708-41.206,1.514-.39,.419-1.785,.926-3.101,1.129-1.33,.202-4.059,1.438-6.08,2.738-4.98,3.206-5.765,5.219-3.794,9.78 .818,1.913 1.374,3.752 1.241,4.096-.399,1.04 1.387,2.25 6.091,4.11z"/>
<path fill="#ffde76" d="m43.606,141.23c-1.309-1.558-2.814-3.858-3.331-5.123-2.199-5.38-2.536-20.011-.63-27.18 2.711-10.194 8.399-20.728 27.987-51.841 2.433-3.866 15.04-19.047 23.475-28.267 .407-.448 1.759-1.095 3.016-1.448 1.254-.356 2.969-1.284 3.802-2.066 .827-.779 2.524-1.867 3.749-2.414 1.229-.554 5.147-2.634 8.703-4.624 10.978-6.158 21.522-10.233 33.125-12.813 4.001-.888 10.084-2.317 13.522-3.183 6.643-1.665 23.067-2.725 32.398-2.075 3.101,.208 8.972,.333 13.04,.25 4.659-.079 9.346,.449 12.618,1.416 5.913,1.746 15.335,3.521 19.534,3.674 1.554,.056 3.003,.234 3.208,.403 .205,.179 1.885,.5 3.724,.732 3.371,.416 6.906,1.559 22.755,7.333 8.526,3.12 16.284,7.009 25.191,12.645 8.107,5.129 25.615,22.152 27.044,26.291 .212,.633 .939,1.713 1.61,2.394 .67,.673 1.319,1.711 1.439,2.307 .127,.585 .962,1.984 1.864,3.099 .896,1.113 2.279,3.298 3.082,4.849 .799,1.546 2.531,4.243 3.861,5.967 3.925,5.107 6.179,11.093 6.638,17.64 .241,3.316 .614,6.184 .834,6.371 .23,.179 .586,2.488 .799,5.116 .204,2.627 .769,6.363 1.253,8.297 .486,1.942 1.045,5.052 1.262,6.908 .214,1.855 .579,3.541 .816,3.738 .24,.196 .437,2.356 .428,4.805-.002,2.452 .038,5.56 .108,6.901 .106,1.948-.409,3.104-2.497,5.656-1.449,1.768-3.005,3.163-3.471,3.103-.46-.065-1.165,.269-1.556,.749-.388,.476-1.746,1.089-3.011,1.372-1.254,.28-2.634,.929-3.041,1.433-.415,.502-4.074,1.231-8.139,1.616-4.063,.375-8.54,.943-9.946,1.245-1.404,.306-4.836,1.015-7.62,1.577-2.794,.572-7.122,1.503-9.622,2.084-2.511,.584-7.511,1.148-11.13,1.24-3.62,.097-6.822,.305-7.119,.452-.283,.151-3.068,.174-6.157,.065-7.028-.268-17.309,.121-26.447,.971-8.925,.843-48.755,1.522-52.397,.901-.629-.113-2.588-.124-4.333-.027-1.757,.097-3.52-.093-3.931-.427-.405-.33-1.164-.365-1.686-.061-1.258,.718-10.976-.282-19.916-2.051-3.97-.79-8.479-1.438-10.031-1.448-5.126-.032-22.472-1.105-34.731-2.145-1.538-.137-4.308-.114-6.142,.043-4.931,.428-14.566,.237-15.217-.302-.534-.438-2.455-.443-13.796-.086-2.387,.077-7.507,.142-11.383,.13-3.87-.001-8.306,.001-9.846,.015-1.55,.01-3.111-.233-3.489-.544-.371-.304-1.346-.483-2.145-.408-2.004,.2-5.264-1.92-8.098-5.26zm24.273-6.72c3.322-.066 6.743-.114 7.621-.121 .87-.007 4.65-.31 8.402-.682 6.766-.662 11.771-.644 18.427,.091 1.902,.209 5.462,.248 7.917,.091 2.456-.164 7.085-.124 10.283,.072 3.208,.192 9.344,.442 13.634,.566 4.302,.118 11.389,.496 15.769,.838 4.37,.344 10.594,.592 13.828,.548 3.237-.038 8.389,.066 11.441,.247 17.779,1.016 21.967,1.124 30.619,.783 5.236-.203 11.261-.233 13.361-.061 2.111,.176 6.192-.061 9.075-.529 7.736-1.26 47.037-5.032 49.388-4.755 1.117,.13 3.983,.047 6.374-.201 2.387-.237 4.577-.241 4.865-.008 .629,.521 18.72-1.646 21.765-2.597 2.976-.937 5.74-4.06 8.661-9.762 2.298-4.484 2.389-5.096 1.765-12.781-.605-7.458-1.401-10.938-4.614-20.109-2.56-7.316-5.371-12.931-8.66-17.293-1.875-2.492-4.102-6.041-4.963-7.875-.958-2.065-2.743-4.381-4.667-6.055-3.677-3.197-13.847-10.439-15.846-11.285-.774-.312-2.905-1.335-4.731-2.254-1.836-.919-3.766-1.639-4.281-1.603-.531,.035-4.418-2.768-8.661-6.237-5.098-4.169-8.857-6.791-11.115-7.727-1.87-.788-6.854-2.901-11.073-4.703-6.788-2.909-14.858-5.071-24.412-6.574-3.032-.484-9.853-.489-14.842-.021-4.582,.431-17.336-.49-19.759-1.416-1.609-.626-4.229-.47-8.175,.473-3.188,.764-7.303,1.583-9.132,1.82-1.835,.234-4.778,1.052-6.534,1.829-1.762,.772-5.367,2.036-8.023,2.816-2.648,.78-5.023,1.659-5.264,1.961-.242,.299-1.585,.609-3,.715-1.399,.091-4.222,.927-6.283,1.832-2.048,.918-5.795,2.3-8.329,3.073-4.588,1.394-7.647,2.697-15.105,6.446-6.451,3.238-7.998,4.558-15.971,13.597-4.201,4.774-7.995,8.794-8.421,8.941-.433,.148-6.722,7.541-13.974,16.427-11.004,13.471-13.325,16.618-14.005,18.975-.451,1.558-1.336,3.458-1.963,4.23-1.488,1.811-3.289,7.391-5.37,16.58-1.606,7.119-1.489,9.258 .796,14.864 .342,.842 2.092,2.747 3.887,4.237 3.146,2.6 3.493,2.7 9.3,2.6z"/>
<path fill="#ffde76" d="m149.83,83.935c-.319-.985-.455-2.649-.305-3.712 .34-2.396 2.86-7.603 3.985-8.22 1.003-.547 3.814,1.931 4.513,3.98 .642,1.881-2.473,8.501-4.673,9.922-1.82,1.19-2.63,.726-3.51-1.97zm-13.59-27.022c-.092-1.055 .575-3.796 1.479-6.089l1.649-4.171 6.805-3.444c3.745-1.887 7.707-4.408 8.816-5.595 2.425-2.601 4.232-2.639 7.17-.18 3.276,2.764 2.972,4.908-1.111,7.782-6.159,4.336-8.122,6.102-7.484,6.701 .34,.317 .298,.658-.08,.756-.379,.102-1.601,1.087-2.733,2.188-4.463,4.361-11.272,6.807-13.403,4.811-.54-.467-1.02-1.711-1.13-2.759zm46.96-1.931c-.452-1.311-.306-3.559 .379-5.518 .628-1.819 .787-3.642 .341-4.053-.435-.417-.449-.847-.009-.966 .437-.119 .765-1.12 .718-2.216-.029-1.093 .245-2.641 .628-3.435 .542-1.146 1.09-1.283 2.586-.669 1.056,.424 2.6,.756 3.451,.721 3.697-.127 6.504,6.201 5.428,12.258-1.15,6.5-2.053,7.589-6.648,7.987-4.23,.357-5.59-.446-6.88-4.109zm22.1,11.964c.985-3.711 3.287-3.604 5.18,.24 .727,1.467 .594,2.1-.632,3.151-1.249,1.063-1.851,1.055-3.303-.056-1.4-1.057-1.66-1.776-1.25-3.335zm-21.85-40.783c-.266-1.85-.03-2.31 1.609-3.162 1.051-.561 3.036-.751 4.413-.443 2.115,.477 2.722,.95 4.023,3.142 1.559,2.61 2.271,5.526 1.539,6.31-.937,1.008-4.733,.37-5.583-.934-.54-.819-1.467-1.286-2.349-1.174-1.96,.255-3.27-1.099-3.65-3.739zm51.01,41.169c-.452-3.338 .27-3.445 10.638-1.596 7,1.25 8.343,1.733 10.311,3.713 1.775,1.785 2.133,2.606 1.656,3.787-.458,1.132-1.111,1.478-2.609,1.365-1.093-.083-2.183-.313-2.416-.517-.229-.202-3.947-.972-8.246-1.711-4.315-.73-8.098-1.586-8.41-1.895-.31-.32-.73-1.73-.92-3.146zm-23.4-26.113c-.385-.629-.398-2.19-.038-3.467 .601-2.137 .748-2.275 1.927-1.786 .699,.294 2.739,.823 4.54,1.171 6.037,1.187 10.909,7.751 7.682,10.347-2.33,1.872-11.73-2.314-14.11-6.265zm22.3-3.363c-2.195-3.054-2.831-5.463-1.979-7.542 .996-2.442 1.901-2.551 4.108-.498 1.971,1.833 4.074,7.37 3.428,8.993-.423,1.053-3.207,2.23-3.717,1.57-.18-.232-1.01-1.363-1.84-2.523z"/>
</g>
</g>
</switch>
</svg>
