<svg xmlns="http://www.w3.org/2000/svg" viewBox="0 0 520.14 129.53" xmlns:xlink="http://www.w3.org/1999/xlink">
<defs>
<filter color-interpolation-filters="sRGB" id="filter9859">
<feGaussianBlur stdDeviation=".63709"/>
</filter>
<filter width="1.526" x="-.263" y="-.145" height="1.29" color-interpolation-filters="sRGB" id="filter10241">
<feGaussianBlur stdDeviation=".28897"/>
</filter>
<filter width="1.258" x="-.129" y="-.036" height="1.073" color-interpolation-filters="sRGB" id="filter9769">
<feGaussianBlur stdDeviation=".56685"/>
</filter>
<filter color-interpolation-filters="sRGB" id="filter9932">
<feGaussianBlur stdDeviation=".33859"/>
</filter>
<filter color-interpolation-filters="sRGB" id="filter9936">
<feGaussianBlur stdDeviation=".33859"/>
</filter>
<filter color-interpolation-filters="sRGB" id="filter9936-5">
<feGaussianBlur stdDeviation=".33859"/>
</filter>
<linearGradient id="linearGradient9569" x1="1664.8" gradientUnits="userSpaceOnUse" x2="1689.2">
<stop offset="0" stop-color="#fff"/>
<stop offset="1" stop-color="#5b5b5b"/>
</linearGradient>
<linearGradient gradientTransform="matrix(.58405 0 0 .58405 -394.78 -384.45)" id="linearGradient9990" y1="426.9" y2="445.4" x1="1660.8" gradientUnits="userSpaceOnUse" x2="1678.5">
<stop offset="0" stop-color="#fff"/>
<stop offset="1" stop-color="#5b5b5b" stop-opacity="0"/>
</linearGradient>
<linearGradient gradientTransform="matrix(1.7616 0 0 1.7616 -795.13 886.58)" id="linearGradient10163" x1="510.89" gradientUnits="userSpaceOnUse" x2="513.5">
<stop offset="0" stop-color="#aa1a00"/>
<stop offset="1" stop-color="#4e1005"/>
</linearGradient>
<linearGradient id="linearGradient10155" x1="1853" gradientUnits="userSpaceOnUse" x2="1859.2">
<stop offset="0" stop-color="#313c4d"/>
<stop offset="1" stop-color="#404d61"/>
</linearGradient>
<linearGradient gradientTransform="matrix(1.7616 0 0 1.7616 -485.82 886.58)" id="linearGradient10382" xlink:href="#linearGradient9880" y1="-186.62" y2="-184.51" gradientUnits="userSpaceOnUse" x2="0"/>
<linearGradient gradientTransform="matrix(1.7616 0 0 1.7616 -795.13 886.58)" id="linearGradient10180" y1="-178.23" y2="-176.46" x1="794.03" gradientUnits="userSpaceOnUse" x2="793.83">
<stop offset="0" stop-color="#313c4d"/>
<stop offset="1" stop-color="#404d61"/>
</linearGradient>
<linearGradient gradientTransform="matrix(1.7616 0 0 1.7616 -795.13 888.25)" id="linearGradient10068" y1="-126.63" y2="-122.07" gradientUnits="userSpaceOnUse" x2="0">
<stop offset="0" stop-color="#343434"/>
<stop offset="1" stop-color="#9f9f9f" stop-opacity="0"/>
</linearGradient>
<linearGradient id="linearGradient10086" x1="630.91" gradientUnits="userSpaceOnUse" x2="627.76">
<stop offset="0" stop-color="#404d61"/>
<stop offset="1" stop-color="#313c4d"/>
</linearGradient>
<linearGradient id="linearGradient10078" x1="659.77" gradientUnits="userSpaceOnUse" x2="662.48">
<stop offset="0" stop-color="#404d61"/>
<stop offset="1" stop-color="#313c4d"/>
</linearGradient>
<linearGradient gradientTransform="matrix(1.7616 0 0 1.7616 -795.13 886.58)" id="linearGradient10001" y1="-186.02" y2="-119.99" gradientUnits="userSpaceOnUse" x2="0">
<stop offset="0" stop-color="#6780a6"/>
<stop offset=".114" stop-color="#8998ae"/>
<stop offset=".975" stop-color="#8998ae"/>
<stop offset="1" stop-color="#63748c"/>
</linearGradient>
<linearGradient id="linearGradient9880">
<stop offset="0" stop-color="#8998ae"/>
<stop offset="1" stop-color="#55657e"/>
</linearGradient>
<linearGradient gradientTransform="matrix(1.7616 0 0 1.7616 -795.13 886.58)" id="linearGradient9886" xlink:href="#linearGradient9880" y1="-186.62" y2="-184.51" gradientUnits="userSpaceOnUse" x2="0"/>
<radialGradient cx="1677" cy="442.86" id="radialGradient9604" r="12.25" gradientUnits="userSpaceOnUse">
<stop offset="0" stop-color="#1a1a1a"/>
<stop offset=".928" stop-color="#232323"/>
<stop offset="1" stop-color="#1a1a1a"/>
</radialGradient>
</defs>
<g color="#000">
<g transform="translate(-99.646 -557.03)">
<path fill="url(#linearGradient10382)" d="m473.124,557.03h43.814a1.3444,1.1292 0 0,1 1.344,1.129v1.728a1.3444,1.1292 0 0,1 -1.344,1.129h-43.814a1.3444,1.1292 0 0,1 -1.344-1.129v-1.728a1.3444,1.1292 0 0,1 1.344-1.129"/>
<path fill="none" filter="url(#filter9859)" stroke="#9b9898" stroke-width=".7" d="m370.83,615.67c-.3917,0-.7188,.327-.7188,.7188v22.75c0,.3917 .327,.7188 .7188,.7188h37.406c.3917,0 .7188-.327 .7188-.7188v-22.75c0-.3917-.327-.7188-.7188-.7188h-37.406zm40.375,0c-.3917,0-.6875,.327-.6875,.7188v22.75c0,.3917 .2958,.7188 .6875,.7188h37.438c.3917,0 .6875-.327 .6875-.7188v-22.75c0-.3917-.2958-.7188-.6875-.7188h-37.438zm40.406,0c-.3917,0-.7188,.327-.7188,.7188v22.75c0,.3917 .327,.7188 .7188,.7188h21.156c.3917,0 .6875-.327 .6875-.7188v-22.75c0-.3917-.2958-.7188-.6875-.7188h-21.156zm66.875,0c-.3917,0-.7188,.327-.7188,.7188v28.594c0,.3917 .327,.7188 .7188,.7188h10.156c.3917,0 .7188-.327 .7188-.7188v-28.594c0-.3917-.327-.7188-.7188-.7188h-10.156zm13.188,0c-.3917,0-.7188,.327-.7188,.7188v28.594c0,.3917 .327,.7188 .7188,.7188h37.438c.3917,0 .6875-.327 .6875-.7188v-28.594c0-.3917-.2958-.7188-.6875-.7188h-37.438zm40.406,0c-.3917,0-.7188,.327-.7188,.7188v28.594c0,.3917 .327,.7188 .7188,.7188h37.406c.3917,0 .7188-.327 .7188-.7188v-28.594c0-.3917-.327-.7188-.7188-.7188h-37.406z" transform="matrix(1.7616 0 0 1.7616 -531.14 -512.3)"/>
<path fill="#5b5b5b" fill-opacity=".135" d="m593.44,564.77c2.3662,18.986 3.8831,35.579 3.6882,61.874-.155,1.7127 .6261,2.6329 1.8719,2.4772 1.1984-.1499 10.321-4.3209 11.725-5.0646 .4541-.2017 .7099-.5591 .6602-1.156-.6987-19.562-4.1646-39.04-8.3011-58.13z"/>
<path fill="#9b9898" filter="url(#filter9769)" d="m643.42,610.91h-5.6875l.0625,.5625c1.3409,10.76 2.2025,20.147 2.0938,35.031-.0001,.0122 .0001,.019 0,.0312-.0446,.5549 .0543,1.0356 .3438,1.4062l.7814-.5938c-.081-.1037-.1615-.3469-.125-.75v-.0624c.1088-14.685-.7272-24.071-2.0312-34.625h-.0001l4.6737-.2819z" transform="matrix(1.7616 0 0 1.7616 -531.14 -512.3)"/>
<path fill="url(#linearGradient9886)" d="m163.824,557.03h43.814a1.3444,1.1292 0 0,1 1.344,1.129v1.728a1.3444,1.1292 0 0,1 -1.344,1.129h-43.814a1.3444,1.1292 0 0,1 -1.344-1.129v-1.728a1.3444,1.1292 0 0,1 1.344-1.129"/>
</g>
<g transform="matrix(1.7616 0 0 1.7616 -639.806 329.55)">
<path fill="#3d3d3d" d="m1689.2,442.86c0,6.7655-5.4845,12.25-12.25,12.25s-12.25-5.4845-12.25-12.25 5.4845-12.25 12.25-12.25 12.25,5.4845 12.25,12.25z" transform="translate(-1092.3 -568.66)"/>
<path fill="url(#radialGradient9604)" d="m1689.2,442.86c0,6.7655-5.4845,12.25-12.25,12.25s-12.25-5.4845-12.25-12.25 5.4845-12.25 12.25-12.25 12.25,5.4845 12.25,12.25z" transform="matrix(.70222 0 0 .70222 -592.95 -436.78)"/>
<path fill="url(#linearGradient9569)" d="m1689.2,442.86c0,6.7655-5.4845,12.25-12.25,12.25s-12.25-5.4845-12.25-12.25 5.4845-12.25 12.25-12.25 12.25,5.4845 12.25,12.25z" transform="matrix(.58405 0 0 .58405 -394.78 -384.45)"/>
<path fill="url(#linearGradient9990)" d="m584.69-132.94c-3.9514,0-7.1562,3.2048-7.1562,7.1562 0,2.423 1.2191,4.5268 3.0625,5.8125-1.3012-3.6567-.2666-7.5729 2.7188-9.2812 2.5186-1.4413 5.6941-.8933 8.125,1.0938-.9815-2.7813-3.6334-4.7812-6.75-4.7812z"/>
</g>
</g>
<g transform="translate(-99.646 -557.03)">
<path fill="url(#linearGradient10068)" fill-rule="evenodd" color="#000" d="m464.53,668.13h50.491v5.775h-50.491z"/>
<path fill="url(#linearGradient10001)" d="m106.36,559.09c-1.3212,0-1.7616,.2202-2.6424,2.202-.8808,1.9818-3.9636,51.82-3.9636,65.179 0,3.1863-.1101,40.076-.1101,40.076l56.04,7.4867h54.389v-15.854c0-10.003 8.0531-18.056 18.056-18.056h13.432c10.003,0 18.056,8.0531 18.056,18.056v15.854h54.279c-.69,0-1.2661-.5761-1.2661-1.2661v-93.749c0-.6901 .5761-1.2111 1.2661-1.2111h55.71c.69,0 1.2661,.521 1.2661,1.2111v93.749c0,.6901-.5761,1.2661-1.2661,1.2661h95.401v-4.8994h49.545v4.8994h36.718c-.69,0-1.2661-.5761-1.2661-1.2661v-93.749c0-.6901 .5761-1.2111 1.2661-1.2111h36.333c.69,0 1.2661,.521 1.2661,1.2111v93.749c0,.6901-.5761,1.2661-1.2661,1.2661h14.643c.6229,0 2.0818-.4931 4.1838-1.8166 2.1021-1.3235 3.1378-3.2479 3.1378-3.2479l.055-13.267h1.4313v-2.8075c0-1.5414 .4404-28.406 .4404-29.947-.727-20.356-4.4505-40.492-8.8079-60.334-.6606-2.6424-2.202-3.5232-2.202-3.5232h-494.12zm487.08,5.7252h9.6337c4.1358,19.091 7.6138,38.57 8.3125,58.132 .0493,.5969-.2065,.9543-.6606,1.156-1.4045,.7436-10.527,4.9146-11.726,5.0646-1.2453,.1557-2.0272-.7645-1.8717-2.4772 .1947-26.295-1.3222-42.889-3.6883-61.876zm-471.39,7.4317h65.949c.6893,0 1.2111,.5761 1.2111,1.2661v40.131c0,.6901-.5218,1.2111-1.2111,1.2111h-65.949c-.6893,0-1.2111-.521-1.2111-1.2111v-40.131c0-.6901 .5218-1.2661 1.2111-1.2661zm71.179,0h65.894c.6893,0 1.2661,.5761 1.2661,1.2661v40.131c0,.6901-.5768,1.2111-1.2661,1.2111h-65.894c-.69,0-1.2661-.521-1.2661-1.2111v-40.131c0-.6901 .5761-1.2661 1.2661-1.2661zm71.124,0h37.269c.6893,0 1.2661,.5761 1.2661,1.2661v40.131c0,.6901-.5768,1.2111-1.2661,1.2111h-37.269c-.69,0-1.2111-.521-1.2111-1.2111v-40.131c0-.6901 .5211-1.2661 1.2111-1.2661zm117.81,0h17.946c.69,0 1.2661,.5761 1.2661,1.2661v50.37c0,.6901-.5761,1.2661-1.2661,1.2661h-17.946c-.69,0-1.2111-.5761-1.2111-1.2661v-50.37c0-.6901 .5211-1.2661 1.2111-1.2661zm23.286,0h65.894c.69,0 1.2661,.5761 1.2661,1.2661v50.37c0,.6901-.5761,1.2661-1.2661,1.2661h-65.894c-.6893,0-1.2661-.5761-1.2661-1.2661v-50.37c0-.6901 .5768-1.2661 1.2661-1.2661zm71.124,0h65.949c.6893,0 1.2661,.5761 1.2661,1.2661v50.37c0,.6901-.5768,1.2661-1.2661,1.2661h-65.949c-.6893,0-1.2111-.5761-1.2111-1.2661v-50.37c0-.6901 .5218-1.2661 1.2111-1.2661zm77.565,10.349c-.1251,.1053-.2043,.2476-.2753,.3854 .0687-.1351 .2088-.2833 .3303-.3854-.0176,.0106-.0428-.0106-.055,0zm-.2753,72.831c.0775,.1515 .1871,.2738 .3303,.3853-.1215-.102-.2623-.2502-.3303-.3853z"/>
</g>
<g color="#000">
<g transform="matrix(1.7616 0 0 1.7616 -894.776 329.55)">
<path fill="none" filter="url(#filter9932)" stroke="#9b9898" stroke-width=".7" d="m631.01-172.75h12.219c.3175,0 .5937,.3011 .5937,.6562v40.625c0,.3551-.2762,.6562-.5937,.6562h-12.219c-.3178,0-.5625-.3011-.5625-.6562v-40.625c0-.3551 .2447-.6562 .5625-.6562z"/>
<path fill="url(#linearGradient10086)" d="m629.58-175.28c-.3917,0-.7187,.2958-.7187,.6875v53.219c0,.3917 .327,.7188 .7187,.7188h15.625v-54.625h-15.625zm1.4375,2.5312h12.219c.3175,0 .5937,.3011 .5937,.6562v40.625c0,.3551-.2763,.6562-.5937,.6562h-12.219c-.3178,0-.5625-.3011-.5625-.6562v-40.625c0-.3551 .2447-.6562 .5625-.6562z"/>
<path fill="#5b5b5b" fill-opacity=".135" d="m631.01-172.75h12.219c.3175,0 .5937,.3011 .5937,.6562v40.625c0,.3551-.2762,.6562-.5937,.6562h-12.219c-.3178,0-.5625-.3011-.5625-.6562v-40.625c0-.3551 .2447-.6562 .5625-.6562z"/>
</g>
<g transform="matrix(1.7616 0 0 1.7616 -894.776 329.55)">
<path fill="none" filter="url(#filter9936)" stroke="#9b9898" stroke-width=".7" d="m647.51-172.75h12.219c.3175,0 .5624,.3011 .5624,.6562v40.625c0,.3551-.2449,.6562-.5624,.6562h-12.219c-.3178,0-.5938-.3011-.5938-.6562v-40.625c0-.3551 .276-.6562 .5938-.6562z"/>
<path fill="url(#linearGradient10078)" d="m645.58-175.28v54.625h15.625c.3917,0 .7187-.327 .7187-.7188v-53.219c0-.3917-.327-.6875-.7187-.6875h-15.625zm1.9375,2.5312h12.219c.3175,0 .5624,.3011 .5624,.6562v40.625c0,.3551-.2449,.6562-.5624,.6562h-12.219c-.3178,0-.5938-.3011-.5938-.6562v-40.625c0-.3551 .276-.6562 .5938-.6562z"/>
<path fill="#5b5b5b" fill-opacity=".135" d="m647.51-172.75h12.219c.3175,0 .5624,.3011 .5624,.6562v40.625c0,.3551-.2449,.6562-.5624,.6562h-12.219c-.3178,0-.5938-.3011-.5938-.6562v-40.625c0-.3551 .276-.6562 .5938-.6562z"/>
</g>
<g transform="matrix(1.7616 0 0 1.7616 -2818.846 -673.07)">
<path fill="none" filter="url(#filter9936-5)" stroke="#9b9898" stroke-width=".7" d="m1858.76,396.42h16.27a.7632,.641 0 0,1 .76,.641v40.637a.7632,.641 0 0,1 -.76,.641h-16.27a.7632,.641 0 0,1 -.76-.641v-40.637a.7632,.641 0 0,1 .76-.641"/>
<path fill="url(#linearGradient10155)" d="m1856.6,393.88c-.3917,0-.7187,.2958-.7187,.6875v53.219c0,.3917 .327,.7188 .7187,.7188h20.625c.3917,0 .7187-.327 .7187-.7188v-53.219c0-.3917-.327-.6875-.7187-.6875h-20.625zm2.1875,2.5312h16.25c.4228,0 .7812,.3011 .7812,.6562v40.625c0,.3551-.3584,.6562-.7812,.6562h-16.25c-.4228,0-.7812-.3011-.7812-.6562v-40.625c0-.3551 .3584-.6562 .7812-.6562z"/>
<path fill="#5b5b5b" fill-opacity=".135" d="m1858.76,396.42h16.27a.7632,.641 0 0,1 .76,.641v40.637a.7632,.641 0 0,1 -.76,.641h-16.27a.7632,.641 0 0,1 -.76-.641v-40.637a.7632,.641 0 0,1 .76-.641"/>
</g>
<g transform="translate(-99.646 -557.03)">
<path fill="#313c4d" filter="url(#filter10241)" d="m786.89-179.31c-.7092,.0714-1.1947,1.2179-1.0625,2.5312 .1322,1.3133 .822,2.3214 1.5312,2.25 .7092-.0714 1.1947-1.2179 1.0625-2.5312-.1322-1.3133-.822-2.3214-1.5312-2.25z" transform="matrix(1.5314 0 0 1.5314 -613.85 845.85)"/>
<path fill="url(#linearGradient10180)" d="m590.93,571.17s22.41,2.891 23.451,3.1929c.9497,.2752 4.3985,.9688 5.1746,3.5232 .5061,1.6656 0,19.047 0,19.047 0,3.5559-3.4474,4.2714-3.4474,.4704v-16.848c0-.7432-.0282-1.1285-.7363-1.1285 0,0-22.24-.6606-23.341-.6606s-2.202-2.0919-2.3121-4.1838c-.1092-2.0919 .6606-3.4131 1.2111-3.4131z"/>
<path fill="url(#linearGradient10163)" d="m101.161,627.85h4.63a1.3444,1.1292 0 0,1 1.344,1.129v18.918a1.3444,1.1292 0 0,1 -1.344,1.129h-4.63a1.3444,1.1292 0 0,1 -1.344-1.129v-18.918a1.3444,1.1292 0 0,1 1.344-1.129"/>
</g>
<g fill="#5b5b5b" fill-opacity=".135" transform="translate(-99.646 -557.03)">
<path d="m122.086,572.25h65.922a1.2456,1.2456 0 0,1 1.246,1.246v40.12a1.2456,1.2456 0 0,1 -1.246,1.246h-65.922a1.2456,1.2456 0 0,1 -1.246-1.246v-40.12a1.2456,1.2456 0 0,1 1.246-1.246"/>
<path d="m193.236,572.25h65.922a1.2456,1.2456 0 0,1 1.246,1.246v40.12a1.2456,1.2456 0 0,1 -1.246,1.246h-65.922a1.2456,1.2456 0 0,1 -1.246-1.246v-40.12a1.2456,1.2456 0 0,1 1.246-1.246"/>
<path d="m264.396,572.25h37.273a1.2456,1.2456 0 0,1 1.246,1.246v40.12a1.2456,1.2456 0 0,1 -1.246,1.246h-37.273a1.2456,1.2456 0 0,1 -1.246-1.246v-40.12a1.2456,1.2456 0 0,1 1.246-1.246"/>
<path d="m476.616,572.25h65.922a1.2456,1.2456 0 0,1 1.246,1.246v50.397a1.2456,1.2456 0 0,1 -1.246,1.246h-65.922a1.2456,1.2456 0 0,1 -1.246-1.246v-50.397a1.2456,1.2456 0 0,1 1.246-1.246"/>
<path d="m405.446,572.25h65.922a1.2456,1.2456 0 0,1 1.246,1.246v50.397a1.2456,1.2456 0 0,1 -1.246,1.246h-65.922a1.2456,1.2456 0 0,1 -1.246-1.246v-50.397a1.2456,1.2456 0 0,1 1.246-1.246"/>
<path d="m382.206,572.25h17.919a1.2456,1.2456 0 0,1 1.246,1.246v50.397a1.2456,1.2456 0 0,1 -1.246,1.246h-17.919a1.2456,1.2456 0 0,1 -1.246-1.246v-50.397a1.2456,1.2456 0 0,1 1.246-1.246"/>
</g>
<g transform="matrix(1.7616 0 0 1.7616 -894.776 329.55)">
<path fill="#3d3d3d" d="m1689.2,442.86c0,6.7655-5.4845,12.25-12.25,12.25s-12.25-5.4845-12.25-12.25 5.4845-12.25 12.25-12.25 12.25,5.4845 12.25,12.25z" transform="translate(-1092.3 -568.66)"/>
<path fill="url(#radialGradient9604)" d="m1689.2,442.86c0,6.7655-5.4845,12.25-12.25,12.25s-12.25-5.4845-12.25-12.25 5.4845-12.25 12.25-12.25 12.25,5.4845 12.25,12.25z" transform="matrix(.70222 0 0 .70222 -592.95 -436.78)"/>
<path fill="url(#linearGradient9569)" d="m1689.2,442.86c0,6.7655-5.4845,12.25-12.25,12.25s-12.25-5.4845-12.25-12.25 5.4845-12.25 12.25-12.25 12.25,5.4845 12.25,12.25z" transform="matrix(.58405 0 0 .58405 -394.78 -384.45)"/>
<path fill="url(#linearGradient9990)" d="m584.69-132.94c-3.9514,0-7.1562,3.2048-7.1562,7.1562 0,2.423 1.2191,4.5268 3.0625,5.8125-1.3012-3.6567-.2666-7.5729 2.7188-9.2812 2.5186-1.4413 5.6941-.8933 8.125,1.0938-.9815-2.7813-3.6334-4.7812-6.75-4.7812z"/>
</g>
</g>
</svg>
