<svg xmlns="http://www.w3.org/2000/svg" viewBox="0 0 187.639 181.976" xmlns:xlink="http://www.w3.org/1999/xlink" enable-background="new 0 0 187.639 181.976">
<path fill-rule="evenodd" d="m140.74,33.806c6.667,.718 13.326-1.866 19.974,.667 5.567,2.119 16.024,13.424 16.645,19.972 .244,2.568-.385,5.261-1.332,7.989 1.747,4.107 5.537,3.784 7.988,7.325 7.914,11.411 1.379,30.624-5.326,38.616-3.833,1.715-7.021,4.071-11.318,5.326 .678,4.689 5.728,6.31 7.325,11.318 4.446,13.922-4.691,32.988-17.311,34.619-5.161,8.252-8.412,17.414-17.312,20.641-11.048,4.004-23.139,.301-29.96-4.659-5.989-4.359-11.256-13.624-16.645-18.645-4.107,12.517-15.257,26.433-36.619,23.971-10.685-1.233-16.271-8.686-17.975-20.641-16.956,1.631-28.857-10.067-27.963-24.634 .642-10.463 9.468-17.748 13.315-24.634-5.887-2.035-10.725-.927-15.312-3.996-7.409-4.952-11.302-22.193-7.325-31.957 1.907-4.682 6.093-6.591 7.989-9.989-10.337-27.928 22.925-39.42 48.594-31.965-.016-15.236 2.782-20.169 14.648-26.63 7.881-4.294 18.909-9.807 27.297-3.996 5.67-2.834 14.02,1.124 19.308-1.997 10.88,7.136 23.41,15.296 21.31,33.29zm-3.33-9.989c-1.744-4.248-5.618-8.97-8.655-11.982-2.898-2.88-3.506-3.148-6.656-5.326-6.705-4.638-13.042-2.254-23.304-.667-12.873-7.062-25.067,5.326-33.961,10.653-3.102,5.196-2.479,12.605-2.663,19.308 11.969,10.002 16.3,27.641 24.634,41.279 1.417-9.961-9.021-19.337-1.997-24.634 5.31,.683 5.128,6.856 6.659,11.318 3.803-.696 3.896,2.316 6.657,2.663-.22-6.688-3.322-15.211 3.329-16.645 3.931,.954 1.596,8.17 5.992,8.655 1.734-2.262 1.466-6.526 6.659-5.326 2.275,3.801-1.04,10.798 .664,13.981 7.788-9.522 11.245-23.377 21.971-29.96-.34-5.016 1.19-8.142 .68-13.317zm-87.22,10.655c-5.191-.702-12.177,.033-17.311,.664-15.513,1.907-27.462,13.093-19.308,29.96-2.037,3.956-4.573,7.415-7.989,9.989-1.905,10.115-1.945,20.936 2.663,26.635 8.479,10.484 34.741,3.129 49.934,3.329 1.376-1.73-.271-6.485 2.663-6.658 2.238-1.133 10.631,1.801 12.649-1.331h-11.982c-.672-4.435-5.776-4.432-7.325-7.989 .157-4.947 7.938-2.273 11.318-3.996-2.842-.043-3.833-1.937-3.329-5.326-2.29-1.038-4.646-2.01-5.326-4.66 1.146-.854 .826-3.17 2.663-3.33 6.51,.815 9.709,4.938 15.314,6.659-1.005-6.589-12.161-8.667-13.315-17.312 .948-.16 1.122-1.097 1.997-1.333 7.32,2.446 10.817,8.712 16.645,12.651-6.11-12.523-11.45-35.455-29.961-37.953zm123.17,16.645c-5.045-6.835-11.034-14.908-21.972-14.648-3.161,.076-6.111,2.208-9.985,1.997-12.911,8.339-19.776,25.506-28.63,37.286-1.148,1.53-3.508,3.205-3.329,5.326 5.114-2.793 6.721-12.174 13.981-10.652 1.683-1.203 1.683-4.091 3.996-4.663 2.535-.314 4.155,.282 4.659,2-1.646,5.673-6.317,8.328-9.319,12.649 5.205,.089 9.785-6.757 14.646-2.663-1.466,3.638-4.025,6.182-5.326,9.985-2.245,2.636-8.756,1.008-9.985,4.663 4.143,1.97 13.827-4.836 17.312,.664-2.62,8.113-20.969,1.243-25.301,7.325 1.568,.014 1.959-1.148 3.993-.667 14.065,4.402 40.762,15.87 57.26,7.323 5.676-6.949 12.526-21.155 7.322-32.623-2.373-5.226-7.794-5.887-9.985-10.652 1.13-4.16 1.62-7.942 .66-12.658zm-72.57,11.982c3.511-.604 2.028-8.238 0-9.319-1.66,2.484-.08,6.461 0,9.319zm-10.654,15.315c4.852-2.338 .116-8.417-1.331-10.652 .195-5.746-.742-10.357-3.995-12.652 .081,6.944 4.353,15.071 5.326,23.304zm17.974-3.996c2.213-4.096 6.155-12.486 3.329-17.311-.65,5.794-3.2,13.215-3.33,17.311zm-41.942-7.989c1.848,1.769 4.392,3.405 6.659,5.326 2.146,1.818 4.286,5.134 6.656,4.66-4.283-4.592-6.936-10.817-13.982-12.649-.148,1.259 .751,1.468 .667,2.663zm35.282,8.655c.84-2.587 2.514-6.689-.666-7.989-.74,2.024-1.436,6.927 .67,7.989zm16.65,3.994c5.427-1.452 8.415-5.345 10.652-9.986-.146-.52-.556-.775-1.33-.667-2.21,4.451-6.69,6.624-9.32,10.653zm-57.924-3.994c2.395,4.042 7.208,5.662 12.651,6.656-2.043-4.028-7.919-7.504-12.651-6.656zm41.944,3.994c.772,.561 1.786,.88 3.33,.667-.811-1.189-.122-3.874-1.333-4.66-.37,1.625-2.58,1.416-2,3.993zm16.65,7.325c7.905,.136 12.294-3.243 15.312-7.989-5.8,1.964-11.52,4.015-15.31,7.989zm-19.312,2.663c2.89-.436 4.328-3.598 3.329-5.992-3.341-.399-4.863,3.635-3.332,5.992zm11.322-.667c2.411-.276 6.377-2.465 4.659-4.66-.79,2.323-4.76,1.458-4.66,4.66zm-14.652,3.33c1.151-2.546 1.035-7.03-1.997-7.323-.544,2.617-1.804,7.369 1.997,7.323zm-9.986-5.993c-.636,3.029 2.799,4.191 4.66,2.663-.174-2.218-2.669-4.32-4.66-2.663zm-28.629,3.996c3.86,.775 7.531,2.468 10.652,0-2.939-.742-8.864-4.012-10.652,0zm42.607,4.661c2.254-.409 5.142-.185 4.659-3.33-2.66-.003-4.973,.349-4.66,3.33zm-13.978-1.333c1.282,1.349 2.68,1.549 4.66,.666 .106-2.58-3.996-2.371-4.66-.666zm-19.308,.666c-.084-1.471-2.826-.281-3.996-.666-.633,1.879 4.33,3.288 3.996,.666zm60.586,.667c-1.246,.295-4.251-1.144-3.996,1.33 4.399-.482 11.153,1.39 12.651-1.997-2.48-1.94-5.97,.03-8.65,.667zm-39.947,8.657c3.378-.396 4.551-2.996 5.326-5.993-1.861-.731-5.541,2.428-5.326,5.993zm-3.33-2.67c.667-.892 1.801-1.309 1.999-2.663-2.056-.865-3.776,1.892-1.999,2.663zm16.647,2.67c-.478-1.964-.759-4.123-1.997-5.326h-1.997c-.329,3.436 .914,5.296 3.994,5.326zm-38.618-1.33c2.614,1.225 8.926,1.138 9.988-1.33-3.835-.07-7.642-.1-9.988,1.33zm31.293,5.99c2.159-1.034 2.306-4.12 0-5.326-.764,1.71-2.149,4.22 0,5.33zm-61.919,2.66c-6.006,4.853-14.691,13.427-15.979,23.971-1.872,15.353 10.122,24.804 24.634,23.301 3.639,13.079 8.78,20.871 21.307,20.641 15.979-.298 28.831-12.392 29.96-28.63 .631-9.095-3.018-17.026 .667-27.297-2.923,.185-2.232,3.982-4.662,4.659-4.671-3.803-4.825,3.729-9.319,3.996-4.768-3.389 .162-7.522 1.997-10.652 2.267-3.874 5.147-7.951 4.66-11.318-2.642,3.81-15.537,24.401-19.308,12.649 2.257-3.515 6.248-5.294 7.989-9.322-4.389,.683-13.489,9.191-15.978,1.333 1.43-4.595 10.465-4.265 14.648-6.659 .796-.455 4.798-3.378 2.663-3.993-12.967,3.9-26.797,6.93-43.279,7.32zm99.864,3.33c-2.357,1.286-3.845-.017-6.656,0 .354,2.213 3.159,4.343 1.33,6.658-2.153,2.312-3.836-2.313-5.992,0-2.547,1.447 1.235,6.453-1.997,7.989-8.382-.051-7.731-9.135-14.648-10.652-1.395,3.382 2.281,6.887 2,11.316-4.107,4.395-7.192-2.633-9.322-1.997-5.413,2.157-3.061,13.668-1.997,16.646 1.384,3.882 2.243,9.268 3.33,11.984 1.978,4.944 10.232,14.554 13.981,17.312 16.092,11.836 40.046,2.604 41.942-15.981 2.46-1.536 5.833-2.159 9.322-2.663 6.171-4.792 11.229-13.995 9.988-23.967-.896-7.188-6.719-11.138-9.322-15.979-11.63-1.688-21.979-4.654-32.623-7.325-.518,.148-1.313,.019-1.333,.666 2.25,.42 2.14,3.19 2,5.99zm-52.593,0c.789-1.683 4.356-4.04 3.33-5.326-1.675,.8-5.14,3.26-3.33,5.33zm-17.975,1.33c5.332-.437 8.667-2.872 11.319-5.99-5.755,.02-9.815,1.73-11.319,5.99zm43.938-1.33c-.509-1.932-1.054-3.828-2.663-4.66 .32,2.12 .82,4.06 2.66,4.66zm23.97-2c-.076-2.365-2.202-2.679-4.66-2.663 .36,2.08 2.49,2.4 4.66,2.66zm-26.63,15.98c-.466-3.979-1.118-13.524-3.995-17.312 .517,6.54 .181,17.59 3.995,17.31zm-5.992-3.99c.192-2.384 1.086-10.706-1.997-11.982-.059,2.24-1.075,10.69 1.997,11.98zm18.642-7.99c-.525-1.726-3.679-4.264-4.66-3.329 .99,1.67 2.81,2.52 4.66,3.33zm2,9.32c-2.522-3.692-4.738-7.691-8.655-9.988 1.08,5.13 3.24,9.18 8.65,9.99zm-48.605-2.66c3.685,1.284 7.567-2.512 7.989-6.659-3.763,1.12-6.126,3.64-7.989,6.66zm17.977,2.66c1.961-1.314 4.806-8.279 2.663-9.322 .057,3.62-4.307,6.32-2.663,9.32zm-7.325,2.66c3.459-.637 7.361-6.838 4.663-9.322-1.375,3.29-4.465,4.86-4.663,9.32z"/>
</svg>
