<svg xmlns="http://www.w3.org/2000/svg" viewBox="0 0 200 200" xmlns:xlink="http://www.w3.org/1999/xlink">
<defs>
<filter color-interpolation-filters="sRGB" id="filter5608">
<feGaussianBlur stdDeviation="1.1964"/>
</filter>
<filter color-interpolation-filters="sRGB" id="filter5536">
<feGaussianBlur stdDeviation="4.96479"/>
</filter>
<filter width="1.112" x="-.056" y="-.256" height="1.512" color-interpolation-filters="sRGB" id="filter5568">
<feGaussianBlur stdDeviation="1.97772"/>
</filter>
<filter width="1.263" x="-.131" y="-.133" height="1.265" color-interpolation-filters="sRGB" id="filter6464">
<feGaussianBlur stdDeviation="20.57077"/>
</filter>
<filter color-interpolation-filters="sRGB" id="filter6597">
<feGaussianBlur stdDeviation="4.95529"/>
</filter>
<filter width="1.162" x="-.081" y="-.423" height="1.846" color-interpolation-filters="sRGB" id="filter6328">
<feGaussianBlur stdDeviation="4.50354"/>
</filter>
<radialGradient cx="-137.67" cy="-406.9" id="radialGradient6713" r="106.58" gradientUnits="userSpaceOnUse">
<stop offset="0" stop-color="#0c6fcd"/>
<stop offset="1" stop-color="#0065a2"/>
</radialGradient>
</defs>
<g transform="matrix(.42172 0 0 .4244 -240.61 451.46)">
<path fill="#666" filter="url(#filter6464)" d="m784.3-650.69c-57.081-33.412-100.23-73.828-136.68-118.56-27.693-29.492-38.248-63.888-15.795-99.656 29.208-57.022 81.3-102.85 130.26-131.91 31.91-22.188 55.716-16.061 85.703-.7746 58.459,35.974 101.55,75.302 133.39,129.25 25.4,43.441 15.731,72.6-25.117,120.93-14.377,18.509-31.875,36.181-52.2,52.884-26.328,18.922-48.691,37.07-74.107,50.682-15.675,8.3208-27.547,5.5858-45.46-2.8504z"/>
<path opacity=".788" fill="#b3b3b3" d="m781.45-655.68c-60.005-34.916-105.37-77.152-143.68-123.9-29.111-30.82-40.207-66.765-16.604-104.14 30.705-59.589 85.464-107.48 136.94-137.85 33.544-23.187 58.57-16.785 90.094-.8095 61.454,37.593 106.75,78.693 140.22,135.07 26.701,45.397 16.537,75.869-26.403,126.38-15.114,19.342-33.508,37.81-54.874,55.265-27.676,19.774-51.186,38.739-77.904,52.963-16.478,8.6954-28.958,5.8372-47.789-2.9787z"/>
<path opacity=".837" fill="#ececec" filter="url(#filter5536)" d="m784.3-660.69c-57.081-33.412-100.23-73.828-136.68-118.56-27.693-29.492-38.248-63.888-15.795-99.656 29.208-57.022 81.3-102.85 130.26-131.91 31.91-22.188 55.716-16.061 85.703-.7746 58.459,35.974 101.55,75.302 133.39,129.25 25.4,43.441 15.731,72.6-25.117,120.93-14.377,18.509-31.875,36.181-52.2,52.884-26.328,18.922-48.691,37.07-74.107,50.682-15.675,8.3208-27.547,5.5858-45.46-2.8504z"/>
</g>
<g fill="#fff" transform="matrix(.42172 0 0 .4244 -240.61 451.46)">
<path filter="url(#filter5568)" d="m759.54-1008.1c32.186-24.769 51.557-21.328 86.52-2.856-38.608-9.5981-55.232-10.564-86.52,2.856z"/>
<path filter="url(#filter5608)" d="m625.86-818.86c41.872,67.125 100.56,112.43 165.7,153.34-61.188-47.753-124.3-99.813-165.7-153.34z"/>
<path filter="url(#filter5608)" d="m-235.07-436.93c41.872,67.125 100.56,112.43 165.7,153.34-61.188-47.753-124.3-99.813-165.7-153.34z" transform="matrix(-1 0 0 1 755.99 -381.94)"/>
</g>
<g transform="matrix(.42172 0 0 .4244 -240.61 451.46)">
<path fill="#005393" d="m-31.327-406.9c0,58.733-47.613,106.35-106.35,106.35-58.733,0-106.35-47.613-106.35-106.35 0-58.733 47.613-106.35 106.35-106.35 50.32,0 93.753,35.269 104.08,84.518" transform="matrix(1.3112 0 0 1.3112 988.36 -311.71)"/>
<path fill="url(#radialGradient6713)" d="m-31.327-406.9c0,58.733-47.613,106.35-106.35,106.35-58.733,0-106.35-47.613-106.35-106.35 0-58.733 47.613-106.35 106.35-106.35 50.32,0 93.753,35.269 104.08,84.518" transform="matrix(1.2636 0 0 1.2636 982.74 -330.16)"/>
<g fill="#fcfcfc" filter="url(#filter6597)">
<path filter="url(#filter6328)" d="m803.35-977.63c-36.879,0-65.132,25.562-65.132,25.562 42.402-14.829 86.764-15.94 133.56,0-24.559-15.706-44.642-25.322-68.43-25.562z"/>
<path filter="url(#filter6328)" d="m-191.24-384.74c-36.879,0-65.132,25.562-65.132,25.562 42.402-14.829 86.764-15.94 133.56,0-24.559-15.706-44.642-25.322-68.43-25.562z" transform="matrix(.61958 .78493 .78493 -.61958 1126.7 -855.33)"/>
<path filter="url(#filter6328)" d="m-191.24-384.74c-36.879,0-65.132,25.562-65.132,25.562 42.402-14.829 86.764-15.94 133.56,0-24.559-15.706-44.642-25.322-68.43-25.562z" transform="matrix(.59098 -.80669 -.80669 -.59098 715.71 -1150.3)"/>
</g>
</g>
</svg>
