<svg xmlns="http://www.w3.org/2000/svg" viewBox="0 0 400 400" xmlns:xlink="http://www.w3.org/1999/xlink">
<defs>
<filter color-interpolation-filters="sRGB" id="filter6126-7">
<feGaussianBlur stdDeviation=".53036"/>
</filter>
<linearGradient id="linearGradient11732" y1="287.49" y2="367.88" x1="241.41" gradientUnits="userSpaceOnUse" x2="315.47">
<stop offset="0" stop-color="#fff"/>
<stop offset="1" stop-color="#fff" stop-opacity="0"/>
</linearGradient>
<linearGradient id="linearGradient11734" y1="300.86" y2="391.45" x1="275.61" gradientUnits="userSpaceOnUse" x2="342">
<stop offset="0" stop-color="#500"/>
<stop offset="1" stop-color="#f00"/>
</linearGradient>
<linearGradient gradientTransform="matrix(.95534 0 0 .95534 -84.897 472.67)" id="linearGradient11925" y1="286.67" x1="255.32" y2="338.82" gradientUnits="userSpaceOnUse" x2="300.27">
<stop offset="0" stop-color="#fff"/>
<stop offset="1" stop-color="#fff" stop-opacity="0"/>
</linearGradient>
<radialGradient cx="312.78" cy="386.57" gradientTransform="matrix(-.59327 -.59327 .71505 -.71505 243.27 849.03)" id="radialGradient11736" r="53.036" gradientUnits="userSpaceOnUse">
<stop offset="0" stop-color="#fff" stop-opacity=".408"/>
<stop offset="1" stop-color="#fff" stop-opacity="0"/>
</radialGradient>
</defs>
<g transform="matrix(2.9051 0 0 2.9051 -368.53 -2069.86)">
<path fill="#999" d="m356.79,346.11c0,29.291-23.745,53.036-53.036,53.036s-53.036-23.745-53.036-53.036 23.745-53.036 53.036-53.036 53.036,23.745 53.036,53.036z" transform="matrix(.97354 0 0 .97354 -100.92 445.99)"/>
<path fill="url(#linearGradient11732)" d="m356.79,346.11c0,29.291-23.745,53.036-53.036,53.036s-53.036-23.745-53.036-53.036 23.745-53.036 53.036-53.036 53.036,23.745 53.036,53.036z" transform="matrix(.9596 0 0 .9596 -96.687 450.82)"/>
<path fill="#ececec" filter="url(#filter6126-7)" d="m356.79,346.11c0,29.291-23.745,53.036-53.036,53.036s-53.036-23.745-53.036-53.036 23.745-53.036 53.036-53.036 53.036,23.745 53.036,53.036z" transform="matrix(.87355 0 0 .87355 -70.55 480.6)"/>
<path fill="#999" filter="url(#filter6126-7)" d="m356.79,346.11c0,29.291-23.745,53.036-53.036,53.036s-53.036-23.745-53.036-53.036 23.745-53.036 53.036-53.036 53.036,23.745 53.036,53.036z" transform="matrix(.83838 0 0 .83838 -59.869 492.77)"/>
<path fill="url(#linearGradient11734)" d="m356.79,346.11c0,29.291-23.745,53.036-53.036,53.036s-53.036-23.745-53.036-53.036 23.745-53.036 53.036-53.036 53.036,23.745 53.036,53.036z" transform="matrix(.80587 0 0 .80587 -49.992 504.02)"/>
<path fill="url(#radialGradient11736)" d="m356.79,346.11c0,29.291-23.745,53.036-53.036,53.036s-53.036-23.745-53.036-53.036 23.745-53.036 53.036-53.036 53.036,23.745 53.036,53.036z" transform="matrix(.75825 0 0 .75825 -34.266 522.52)"/>
<path opacity=".318" fill="url(#linearGradient11925)" d="m193.79,742.76c-13.331,.3007-26.186,7.358-33.336,19.742-7.6903,13.32-6.7139,29.266 1.1545,41.331 .8531-26.532 21.132-46.515 46.324-45.054 8.2589,.4791 16.054,3.2001 22.859,7.5908-3.2578-7.4498-8.8171-13.953-16.394-18.327-6.4867-3.7451-13.625-5.4393-20.608-5.2818z"/>
</g>
</svg>
