<svg xmlns="http://www.w3.org/2000/svg" viewBox="0 0 254.615 156.244">
<g fill-rule="evenodd">
<g stroke="#000" stroke-width=".036" stroke-miterlimit="10">
<g>
<path d="m14.434,29l4.86-3.564c2.88-.252 5.076-.432 6.732-.54 1.62-.108 2.664-.18 3.132-.072-.324-1.26-.828-2.268-1.116-3.024-.324-.864-.828-1.296-1.116-1.692-.18-1.44 .288-2.484 1.116-3.276 .828-.828 2.16-1.26 3.996-1.44 .252,.864 .54,2.052 1.008,3.42 .36,1.404 .9,2.988 1.476,4.896l4.932,.072c-.252-4.068-.576-7.704-.576-11.052-.036-3.312-.144-6.336 .072-8.928 .864-1.153 1.836-1.8 2.772-1.8 .936-.072 1.908,.468 2.916,1.62 .468,5.436 .684,9.864 .792,13.14 .108,3.312-.036,5.328-.288,6.48 15.984-.972 30.564-1.62 44.28-2.088 13.648-.504 25.238-.432 37.258-.612 11.92-.252 24.48-.432 33.66-.684 9.04-.324 15.59-.576 20.2-.9-1.08-2.016-1.62-3.636-1.77-4.716-.1-1.116 .18-1.44 1.01-1.944 .72-.684 2.41-2.772 3.67-1.8s2.34,3.384 3.64,7.524l7.34,.18-.54-15.624c.65-1.692 1.62-2.592 2.78-2.556 1.18-.036 2.55,.756 4.24,2.376l1.16,15.408c3.77,.072 7.34,.36 11.23,.468 3.74,.072 7.59,.36 11.41,.468 .39,1.152 .97,2.016 1.73,2.988 .61,.828 2.63,1.764 2.73,2.412 .11,.54-.93,.432-1.76,1.188-.97,.72-2.05,1.728-3.64,3.168l-21.56-.396c-.18,8.64-.22,18.144 .29,28.944 .39,10.728 1.15,22.32 2.26,35.208 3.42-1.8 5.8-2.88 7.42-3.24 1.51-.36 .97,.324 1.98,1.08 .97,.684 3.02,1.908 3.82,3.132 .64,1.08 .18,2.017 .39,3.636 .18,1.477 .33,3.31 .58,5.51 1.69-.58 3.13-.76 4.17-.54 .98,.21 1.55,1.04 2.02,1.65 .29,.54 .07,.04 .47,1.7 .4,1.54 .97,4.24 1.87,7.95 17.71,.36 26.57,.69 27.11,.83 .39,.07-15.19-.18-24.55,.07-9.62,.22-20.24,1.01-31.86,1.41-11.7,.32-22.18,.46-37.12,.57-15.08-.11-34.99-.43-51.8-.54-16.851-.14-29.955-.07-47.919-.07-18.072,.04-51.408-.07-59.184-.18-7.632-.4 7.128-1.01 13.32-1.3 6.192-.32 13.788-.46 23.328-.43-.036-7.31-.036-15.048 0-23.615-.072-8.641 .108-20.845-.144-27.433-.396-6.66-.72-7.272-1.8-12.096-1.116-4.932-2.808-10.62-4.932-17.208l-10.944,.288c-1.044-1.008-2.16-1.872-3.204-2.592-1.187-.755-2.159-1.367-3.347-1.834zm30.816,4.535c3.96-.396 10.548-.936 20.052-1.476 9.54-.54 24.156-1.548 36.608-1.908 12.28-.504 26.5-.576 36.69-.756 10.01-.36 15.84-.576 23.47-.648 7.63-.108 14.83,.072 22.03,.396 2.02,.936 3.64,3.132 5.26,6.732 1.51,3.492 2.84,3.996 3.99,14.544 1.08,10.584 1.81,26.568 2.31,48.528-1.08-2.735-1.98-4.5-2.7-5.436-.72-1.044-.29-.396-1.62-.144-1.51,.216-5.04,.18-6.7,1.691-1.69,1.368-2.16,4.896-2.95,7.132-.9,2.05-1.22,4.06-1.94,6.04-.83,2.02-1.55,3.96-2.56,5.98-18.43-.07-33.98-.21-47.48-.29-13.54-.18-18.72-.28-32.654-.46-13.968-.22-30.6-.36-50.472-.58-.18-13.429-.144-25.31-.18-36.218-.036-11.016 .288-21.528 .144-28.764-.254-7.307-.686-11.915-1.298-14.363z"/>
</g>
<g fill="#808080">
<path d="m178.99,114.36c1.04-3.14 2.02-6.2 2.92-9.04 .79-2.99 1.18-6.66 2.16-8.244 .86-1.62 1.9-.828 3.27-1.225 1.3-.468 3.02-.899 4.9-1.296l1.94,4.932c-.86-.252-1.66,.324-2.38,1.583-.75,1.3-1.4,3.6-2.08,5.94-.76,2.27-1.44,4.57-2.2,7.31-3.13-.14-5.33-.22-6.73-.22-1.44,0-2.09,.04-1.8,.26z"/>
<path d="m197.21,100.35c-1.34-.03-2.53,.43-3.42,1.41-1.01,.97-1.59,2.41-2.27,4.46-.8,1.98-1.48,4.54-2.2,7.67l20.2-.9c-.33-3.49-.8-5.91-1.41-7.38-.72-1.48-1.8-.47-2.41-1.3-.68-1.01-.9-3.31-1.48-4.14-.61-.79-1.36-1.042-2.41-.898-1.22-.001-2.66,.36-4.6,1.078z"/>
<path d="m204.84,94.231l.07,3.816c.29,1.044 .61,1.944 .97,2.843 .15,.83 .47,1.77 .83,2.27 .36,.36 1.19-.04 1.66,.32 .28,.33 .5,1.16 .64,1.52 .07,.25 .07,.25 0,0 1.37-.69 2.67-1.23 4.29-1.62 1.58-.47 3.09-.72 4.93-.9-.61-2.632-.97-4.504-1.08-5.908-.15-1.331 .86-1.439 .25-2.268-.79-1.08-3.42-2.952-4.43-3.528-1.04-.575-1.22-.071-1.94,.252-1.01,.252-2.2,.828-3.28,1.44-1.04,.468-2.01,1.152-2.91,1.763z"/>
<path d="m209.63,106.33c2.59-.94 4.82-1.73 6.69-2.09 1.8-.47 3.24-.5 4.47-.5 1.11-.22 1.83-.44 2.55-.08 .61,.36 1.08,.65 1.55,2.24 .4,1.51 .9,3.74 1.23,6.84-3.57-.11-6.66-.11-9.15-.15-2.56-.07-4.64-.03-6.12-.03-.11-1.73-.25-3.17-.43-4.18-.18-1.08-.54-1.76-.79-2.05z"/>
</g>
<g fill="#a16121">
<path d="m196.7,99.235l6.55-1.512c.22-1.476 .15-6.444-.21-15.048-.51-8.785-1.87-27.396-2.31-36.541-.39-9.072-.5-14.976-.18-17.712l-3.89-.072c0,1.044-.28,1.872-.86,2.088-.76,.252-1.65,.648-2.84-.468-1.23-1.26-2.81-5.076-3.93-6.588-1.22-1.692-2.01-1.368-2.77-2.772-.72-1.476-1.11-4.032-1.48-5.292-.39-1.188-.68-1.836-1.26-2.088-.79-.36-2.8-.828-3.13,.108-.25,.864 .47,2.916 1.05,4.896 .32,1.872 .39,4.536 1.33,6.444 1.01,1.872 2.45,2.232 4.17,4.68 1.55,2.304 3.75,5.256 5.19,9.396 1.19,4.104 2.12,6.408 2.81,14.976 .75,8.568 1.26,28.044 1.65,35.784 .29,7.633 .33,10.726 .11,9.721z"/>
<path d="m188.06,19.891c7.42-.468 14.01-.756 20.06-.72 5.97-.036 11.12,.252 15.73,.72 .28,.828 .61,1.584 1.11,2.268 .47,.54 1.48,1.152 1.51,1.692-.1,.432-1.11,.9-1.9,1.548-.87,.54-1.84,1.404-3.06,2.196-8.1-.288-14.15-.648-18.44-.684-4.24-.18-5.58-.036-7.2,0-1.76,0-2.8,.036-3.13,.108-1.29-1.944-2.16-3.456-2.99-4.68-.86-1.26-1.29-1.98-1.69-2.448z"/>
<path d="m195.48,17.803l-.54-14.472c.76,.936 1.62,1.368 2.45,1.44 .82,0 1.62-.468 2.52-1.404l.83,14.472c-1.73,0-3.5,0-5.26-.036z"/>
<path d="m195.69,2.359c.26-.504 .69-.72 1.3-.792 .61-.144 1.37,0 2.41,.288-.29,.936-.72,1.512-1.29,1.584-.65,.036-1.41-.324-2.42-1.08z"/>
<path d="m180.29,20.467c.03,1.224 .21,2.376 .68,3.6 .4,1.152 1.08,2.34 1.91,3.564-5.69-.612-14.19-.828-25.92-.648-11.92,.108-27.97,.9-44.28,1.548-16.382,.612-39.998,1.26-52.67,1.944-12.564,.504-19.944,1.008-22.428,1.368l-2.268-6.228c10.368-1.188 22.788-2.088 37.8-2.7 14.976-.648 36.396-1.044 51.476-1.188 14.94-.252 28.12-.288 37.59-.396 9.32-.252 15.23-.539 18.11-.864z"/>
<path d="m40.498,23.563l-.936-18.648c.9,.54 1.656,.972 2.412,.9 .684,.036 1.332-.432 1.944-1.008l.036,18.648-3.456,.108z"/>
<path d="m39.85,4.159c.396-.936 .828-1.404 1.44-1.404 .576-.036 1.188,.288 1.98,1.116-.36,.396-.756,.792-1.332,.792-.612-.036-1.26-.072-2.088-.504z"/>
<path d="m27.826,19.891c.72,.036 1.368-.216 2.088-.612 .648-.468 1.224-1.188 1.872-2.16 1.404,5.796 2.52,10.152 3.492,13.068 .864,2.88 1.224,3.672 2.052,4.32 .684,.504 1.476,.216 2.232-1.008l4.032,.072c.936,2.484 1.476,7.272 1.764,14.652 .144,7.38-.324,18.216-.288,29.16 .036,10.873 .288,22.5 .612,35.457l-5.688,.54c-.108-9.46-.252-17.313-.288-23.829-.108-6.588-.144-10.44-.108-15.048 0-4.68 .54-7.704 .252-12.564-.432-4.896-.576-9.576-2.52-16.524-2.124-7.128-5.112-15.408-9.504-25.524z"/>
<path d="m28.222,18.199c.252-.864 .648-1.332 1.188-1.548 .54-.252 1.008-.252 1.8,.144-.36,.792-.9,1.368-1.332,1.584-.468,.252-1.116,.144-1.656-.18z"/>
<path d="m29.194,26.191l-9.288,.432-3.06,2.196c1.26,.684 2.268,1.188 3.024,1.8 .756,.576 1.224,1.116 1.548,1.476 .252,.252 .252,.252 0,0l10.008-.432c-.72-1.8-1.476-3.636-2.232-5.472z"/>
</g>
<g>
<path d="m39.202,117.85c-.108,.86-.144,4.68 .036,5.76 .144,.86 .612,.93 .864,.07 .072-.97 .108-4.32-.036-5.33-.252-1.04-.72-1.44-.864-.5z"/>
<path d="m38.878,126.09c-.216,.87-.108,4.68 .036,5.76 .144,.87 .612,.94 .864,.07 .144-.97 .144-4.32 0-5.32-.216-1.05-.792-1.44-.9-.51z"/>
<path d="m38.806,134.66c-.108,.83-.144,4.75 .036,5.8 .036,.86 .684,.93 .828,.07 .144-.97 .144-4.32 0-5.33-.252-1.01-.72-1.51-.864-.54z"/>
<path d="m38.914,143.62c-.108,.87-.144,4.68 .036,5.76 .144,.87 .612,.94 .864,.08 .072-.98 .108-4.32-.036-5.33-.252-1.05-.72-1.44-.864-.51z"/>
<path d="m45.286,116.55c-.108,.83-.144,4.75 .036,5.8 .144,.86 .612,.93 .864,.07 .072-.97 .108-4.32-.036-5.33-.252-1.01-.72-1.51-.864-.54z"/>
<path d="m45.826,125.3c-.108,.83-.144,4.75 .036,5.8 .144,.86 .612,.93 .864,.07 .072-.97 .108-4.32-.036-5.33-.252-1.01-.72-1.51-.864-.54z"/>
<path d="m45.97,134.26c-.108,.83-.144,4.76 .036,5.8 .036,.9 .684,.86 .828,.04 .144-.98 .144-4.32 0-5.33-.252-1.05-.72-1.44-.864-.51z"/>
<path d="m45.682,143.84c-.108,.83-.144,4.75 .036,5.8 .036,.86 .684,.93 .828,.07 .144-.97 .144-4.32 0-5.33-.252-1.01-.72-1.51-.864-.54z"/>
<path d="m45.538,151.72c-.54,.51-2.448,2.85-2.664,3.68-.36,.64 .036,.97 .648,.54 .54-.51 2.016-2.7 2.484-3.39 .252-.9 0-1.22-.468-.83z"/>
<path d="m39.454,151.62c.072,.75 1.116,3.42 1.62,4.24 .36,.62 .864,.4 .828-.25-.18-.72-1.044-3.27-1.476-3.92-.576-.76-1.044-.83-.972-.07z"/>
<path d="m45.934,26.443c12.924-.972 25.992-1.764 39.492-2.232 13.572-.504 26.964-.828 41.144-.828-24.3,.72-42.908,1.368-56.66,1.944-13.716,.468-21.06,.9-25.092,1.152-4.068,.144-3.6,.18 1.116-.036z"/>
<path d="m91.402,27.343c22.748-1.8 40.678-2.844 54.758-3.528 13.93-.72 23.33-.684 28.62-.288-6.73,.36-16.82,.864-30.78,1.512-14.11,.648-31.32,1.368-52.598,2.304z"/>
<path d="m58.714,28.207l28.98-1.692c-4.14,.684-8.388,1.188-13.284,1.512-4.86,.324-10.044,.252-15.696,.18z"/>
<path d="m41.218,8.911l.108,10.116c.324-2.376 .648-4.464 .576-6.12 .036-1.8-.324-2.952-.684-3.996z"/>
<path d="m42.694,14.995l-.216,5.904c.18-.972 .18-1.872 .288-2.844-.036-1.044 .036-2.016-.072-3.06z"/>
<path d="m40.282,35.767c1.044,4.752 1.296,7.452 .756,7.956-.72,.432-2.448-1.224-4.212-4.824-1.728-3.708-3.672-9.108-5.976-16.776 1.8,5.796 3.42,10.188 5.004,13.752 1.548,3.384 3.42,6.948 4.248,6.948 .684-.036 .792-2.34 .18-7.056z"/>
<path d="m42.694,36.847c.72,1.584 1.044,6.084 1.116,14.076-.036,7.956-.36,18.828-.972,33.192 .504-10.476 .756-19.296 .756-27.288s-.396-14.472-.9-19.98z"/>
<path d="m38.266,43.795c1.368,2.052 2.376,5.724 2.88,11.448 .468,5.652 .54,12.96 .216,22.32-.036-8.388-.18-15.264-.72-20.916s-1.332-9.936-2.376-12.852z"/>
<path d="m41.434,45.595l.648,10.548c.216-2.916 .288-5.364 .216-7.056-.144-1.728-.432-2.988-.864-3.492z"/>
<path d="m41.218,85.916l.828,24.664c.216-5.19 .324-9.76 .18-13.864-.18-4.212-.468-7.668-1.008-10.8z"/>
<path d="m42.37,87.284l1.44,19.946c.036-4.14-.108-7.635-.288-11.019-.252-3.312-.684-6.335-1.152-8.927z"/>
<path d="m182.59,17.335c-.5,1.512-.4,3.06 .47,4.932 .79,1.8 2.27,3.744 4.43,5.976-1.8-2.88-3.1-5.148-3.89-6.948-.79-1.872-1.23-3.096-1.01-3.96z"/>
<path d="m187.52,23.095c1.23,3.132 2.41,5.76 3.71,7.884s2.7,4.5 3.81,4.608c.98-.036 1.73-1.62 2.13-4.752-.51,1.404-1.05,2.304-1.62,2.844-.54,.468-.65,1.728-1.84,.036-1.36-1.836-3.38-5.328-6.19-10.62z"/>
<path d="m189.43,31.735c1.48,.72 2.7,2.232 3.82,4.824 1.04,2.556 1.97,5.94 2.66,10.296-1.26-4.284-2.3-7.488-3.42-10.044-1.15-2.519-2.12-4.212-3.06-5.076z"/>
<path d="m196.16,7.579l.97,8.892c.22-1.188 .26-2.52 .11-3.996-.18-1.548-.54-3.132-1.08-4.896z"/>
<path d="m198,7.292l.72,5.4c.18-.972 .21-2.016 .11-2.844-.18-.973-.36-1.729-.83-2.556z"/>
<path d="m195.26,21.475c3.57-.36 7.38-.54 11.59-.54 4.15,0 8.65,.144 13.5,.576-7.95-.144-13.85-.216-18.1-.216-4.18-.072-6.56,.036-6.99,.18z"/>
<path d="m199.01,23.491l18.1,.216c-4.06,.18-7.48,.324-10.54,.288-3.03-.036-5.55-.252-7.56-.504z"/>
<path d="m199.69,36.379c.47,12.204 .76,23.148 1.26,33.12 .32,9.936 .86,18.612 1.22,26.316-1.15-16.2-1.87-29.052-2.3-38.988-.4-9.972-.5-16.74-.18-20.448z"/>
<path d="m196.77,37.639c.15,7.992 .36,16.236 .65,25.128s.65,22.897 .94,27.72c.14,4.608 .14,4.608 0,0-.11-9.287-.29-18.144-.54-27s-.65-17.424-1.05-25.848z"/>
<path d="m181.55,110c.5-.58 1.26-.94 2.27-1.62 .93-.83 2.3-2.38 2.84-2.56 .4-.1 .25,.69-.58,1.7-1.04,.86-4.24,3.27-5.04,3.74-.75,.32-.07-.79 .51-1.26z"/>
<path d="m182.55,111.66c.8-.69 4.18-3.28 4.86-3.5 .47-.21-.9,1.05-1.62,1.84-.79,.61-2.23,1.76-2.77,2.09-.61,.25-1.19,.11-.47-.43z"/>
<path d="m183.81,112.41c.11-.18 3.28-2.34 3.82-2.45 .5-.18-.29,.76-.83,1.26-.75,.33-3.09,1.37-2.99,1.19z"/>
<path d="m189.39,96.536c.58,.071 2.78,1.044 3.14,1.26 .21,.216-.33,.18-1.05,.036-.72-.288-2.63-.9-2.95-1.152-.43-.216 .18-.396 .86-.144z"/>
<path d="m187.13,97.04c.57,0 3.74,1.439 4.35,1.8 .51,.288-.29,.324-.86,.252-.69-.072-2.41-.576-2.95-.828-.58-.361-1.26-1.368-.54-1.224z"/>
<path d="m187.81,99.271c.65,.072 2.7,1.049 3.1,1.259 .21,.22-.33,.18-1.05,.04-.72-.29-2.62-.902-2.95-1.154-.36-.216 .22-.396 .9-.145z"/>
<path d="m204.08,104.02c.33,.26 .33,1.01 .83,1.44 .54,.29 1.94,.4 2.12,.62-.07,.18-.97,.68-1.73,.39-.82-.5-2.37-2.16-2.55-2.63-.29-.43 .94-.18 1.33,.18z"/>
<path d="m202.86,105.07c.32,.25 .32,1.01 .82,1.44 .47,.29 2.02,.39 2.16,.61 0,.18-1.04,.68-1.76,.4-.83-.51-2.38-2.16-2.56-2.63-.28-.43 .94-.18 1.34,.18z"/>
<path d="m201.67,106c.32,.36 .32,.94 .83,1.44 .54,.29 1.94,.4 2.12,.62 0,.21-1.04,.61-1.76,.36-.76-.51-2.34-2.16-2.52-2.63-.29-.51 .93-.11 1.33,.21z"/>
<path d="m191.34,112.56c1.15-.11 6.41-.54 7.45-.76 .83-.25-1.04-.43-2.12-.4-1.16,0-3.82,.08-4.65,.36-1.01,.26-1.83,.62-.68,.8z"/>
<path d="m190.83,111.12c.47-.11 4.54-.54 5.55-.72 .86-.22 .18-.29-.25-.22-.54-.04-1.8-.14-2.67,.07-.9,.15-3.17,.76-2.63,.87z"/>
<path d="m191.59,109.64c.54,0 3.2-.43 3.96-.47 .43-.18-.14-.14-.61-.18-.51-.07-1.59-.11-2.12,.04-.58,.03-1.77,.61-1.23,.61z"/>
<path d="m207.07,100.57c.14,.21 2.95,2.59 3.42,2.84 .32,.15-.54-1.19-1.08-1.65-.68-.47-2.48-1.52-2.34-1.19z"/>
<path d="m207.93,99.416c.19,.396 2.89,3.094 3.53,3.524 .36,.15-.03-1.33-.64-1.9-.76-.72-2.92-1.912-2.89-1.624z"/>
<path d="m211.5,100.57c.03,.47 .54,1.73 .83,2.12 .18,.36 .46,.4 .46-.03-.1-.58-.97-2.776-1.08-3.101-.25-.288-.32,.325-.21,1.011z"/>
<path d="m213.15,99.632c-.1-.036-.14,1.728 .04,2.228 .14,.4 .5,.44 .65,.11-.07-.47-.58-2.266-.69-2.338z"/>
<path d="m212.54,93.008c.79,.216 3.1,1.044 3.57,1.368 .28,.324-.58,.359-1.34,.252-.97-.36-3.06-1.477-3.49-1.8-.39-.288 .4-.181 1.26,.18z"/>
<path d="m210.49,92.972c.22,.036 2.41,1.26 2.7,1.584 .11,.108-1.12-.036-1.58-.288-.54-.396-1.37-1.332-1.12-1.296z"/>
<path d="m217.8,105.25c1.4-.33 4.75-.58 5.61-.61 .62,0 .22,.46-1.18,.72-1.52,.25-6.23,.5-7.06,.61-.76-.11 1.19-.54 2.63-.72z"/>
<path d="m215.96,106.51c1.77-.25 6.73-.61 7.96-.54 1.08,0 .68,.47-1.05,.72-1.87,.25-8.49,.36-9.61,.47-1.19-.18 .87-.4 2.7-.65z"/>
<path d="m219.27,107.88c1.41,0 4.36-.04 5.11-.11 .54-.22 .19-.36-1.22-.43-1.58-.08-6.59,.18-7.24,.32-.64,.04 1.77,.11 3.35,.22z"/>
<path d="m220.35,108.67c1.41-.07 4.15,0 4.61,.21 .36,.15-1.08,.36-2.37,.51-1.44-.11-5.48-.25-5.84-.43-.43-.18 2.16-.33 3.6-.29z"/>
<path d="m221.18,109.96c1.15-.07 3.06-.1 3.64,.04 .47,.07 .25,.36-.79,.47-1.23-.04-5.55-.15-6.02-.18-.43-.18 1.88-.29 3.17-.33z"/>
<path d="m221.4,111.22c.86-.1 3.35-.07 3.27,.11-.25,.04-4.28,.47-4.75,.47-.65-.04 .69-.5 1.48-.58z"/>
<path d="m115.67,113.06c-3.1-.76-5.91-1.3-8.43-1.76-2.55-.47-4.82-.72-6.8-.9 3.31,.57 6.3,1.26 8.82,1.65 2.55,.36 4.64,.83 6.41,1.01z"/>
<path d="m136.37,110.94c1-2.02 1.54-3.71 1.47-5.37-.18-1.69-.47-2.77-1.98-4.35-1.54-1.732-5.32-3.747-7.05-5.655-1.95-1.979-3.53-3.852-3.78-6.012-.22-2.304 .61-4.5 2.48-7.128-2.09,1.656-3.46,3.384-4.25,5.04-.75,1.584-.11,3.276-.54,4.932-.57,1.692-1.51,3.349-2.81,5.112 1.34-2.088 1.73-3.996 1.34-5.868-.62-1.979-3.86-3.312-4.04-5.508-.1-2.196 .94-4.752 3.28-7.668-2.23,.072-3.92,1.332-5.62,3.636-1.72,2.232-3.85,7.056-4.14,10.188-.21,3.132 .44,5.903 2.49,8.461-1.77,.39-3.24,.03-4.29-1.478-1.11-1.62-.82-5.796-2.19-7.271-1.41-1.477-3.64-1.765-6.41-1.152 2.66,.972 4.07,2.268 4.36,3.744 .1,1.476-2.78,2.448-2.81,5.256 0,2.811 .93,6.371 2.81,11.231 3.56,2.7 7.77,4.1 13.17,4.07 5.29-.04 11.41-1.44 18.51-4.21z"/>
<path fill="#ff0" d="m136.22,109.75c.65-1.62 .83-2.92 .69-4.29-.25-1.4-.87-2.48-1.84-3.67-1.04-1.22-2.63-2.194-4.07-3.49-1.65-1.44-3.31-3.096-4.53-4.536-1.15-1.368-1.95-2.771-2.09-4.068-.18-1.476 0-2.951 .83-4.571-.72,1.08-1.23,2.34-1.66,3.779-.39,1.44 .04,2.629-.79,4.681-.97,1.943-2.56,4.248-4.75,7.055 1.15-2.051 1.91-3.851 2.27-5.398 .28-1.585 .25-2.916-.26-3.996-.61-1.116-2.26-1.872-2.88-2.845-.64-1.188-.9-2.412-.75-3.815 .14-1.477 .68-2.952 1.62-4.716-1.59,1.439-2.88,3.168-3.89,5.04-1.04,1.979-1.84,4.031-2.23,6.155-.47,1.872-.69,3.744-.36,5.328 .29,1.477 1.44,2.521 2.19,3.817 .58,1.26 1.7,2.63 1.84,3.81 .14,1.12-.18,1.84-.97,2.56 .5-2.05 .47-3.6-.4-4.5-.93-.94-3.38-.47-4.57-1.08-1.19-.83-2.02-1.871-2.48-3.275-.47-1.439 .14-3.96-.4-4.932-.68-1.08-1.8-1.44-3.49-1.225 1.26,.828 2.05,1.872 2.23,2.736 .11,.756-.86,1.656-1.26,2.7-.54,.972-1.51,1.764-1.51,3.636-.11,1.98 .68,6.01 1.4,7.67 .69,1.44 1.95,.93 2.81,1.01 .68-.08 .65-1.37 1.84-1.12 1.15,.11 3.74,2.2 5,2.38 1.08,.03 .79-1.8 2.05-1.62 1.19,.18 3.6,2.08 5.29,2.52 1.55,.21 3.28-.29 4.36-.4 1.08-.07 1.98,.47 2.02-.18-.15-.9-2.52-3.92-2.27-4.21 .21-.22 2.27,2.3 3.67,2.7 1.33,.07 3.06-1.33 4.36-1.3 1.18,0 2.23,.65 2.98,1.66z"/>
</g>
</g>
<g fill="#ff8000">
<path d="m131.58,106.15c-.72-1.95-1.51-3.39-2.38-4.47-.94-1.11-2.52-1.11-2.95-1.94-.4-.9-.43-2.053 .29-3.456-2.16,.827-3.21,1.691-3.13,2.88 0,1.046 3.09,2.986 3.31,3.886 .07,.83-1.87,1.59-2.63,1.3-.83-.4-1.62-1.59-2.23-3.57-.69,2.16-.69,3.71 .39,4.65 1.05,.72 4.36,.47 5.62,.79 1.01,.32 .36,1.73 .97,1.73 .61-.07 1.48-.58 2.74-1.8z"/>
<path d="m116.75,98.804c-1.37-1.224-1.98-2.844-2.24-4.464-.14-1.656 .08-3.708 1.05-5.76 1.65,1.836 2.59,3.491 2.81,5.256 .18,1.691-.36,3.348-1.62,4.968z"/>
<path d="m106.13,104.92c-1.05-.9-1.7-1.94-1.8-3.13-.18-1.22 .14-2.555 .97-4.139 1.26,1.044 1.91,2.124 2.09,3.389 .14,1.26-.33,2.41-1.26,3.88z"/>
</g>
<g stroke="#000" stroke-width=".036" stroke-miterlimit="10">
<g>
<path d="m116.39,113.31c-2.24-1.47-4.97-2.41-8.21-3.09-3.39-.69-6.99-.94-11.342-.9-.864,.21-1.476,.72-1.692,1.51-.324,.79-.252,1.76 .072,3.06-1.296,.03-2.484,.11-3.708,.36-1.332,.18-2.34,.43-3.564,.75-.432,1.41-.576,2.78-.432,4.25 .072,1.48 .18,2.88 1.296,4.5 1.044,1.48 2.772,2.99 5.184,4.54 .972-.83 3.564-2.05 7.636-3.67 4.1-1.66 9.68-3.71 16.88-6.16 7.45,1.26 13.65,2.56 18.86,4.03 5.15,1.48 9.18,2.88 12.1,4.61 3.96-.9 6.44-2.48 7.74-4.61 1.26-2.19 1.04-4.93-.36-8.35l-5.47-.14c-.47-1.84-1.48-3.32-3.17-4.43-1.69-1.19-3.92-2.02-6.84-2.49-2.66,.72-6.01,1.66-10.19,2.67-4.25,1.01-9.03,2.19-14.79,3.56z"/>
</g>
<g fill="#804000">
<path d="m95.758,113.74c-.468-1.33-.54-2.26-.072-2.95 .432-.75 .432-1.08 2.628-1.11 2.126-.04 6.516,.14 9.866,1.08 3.24,.82 6.33,2.16 9.43,3.99-5-.32-9.14-.61-12.82-.72-3.74-.18-6.62-.32-9.032-.29z"/>
<path d="m88.738,115.26c1.296,.86 2.52,1.76 3.672,3.09 1.152,1.3 2.628,2.77 3.024,4.43 .216,1.58-.216,3.1-1.44,4.82 1.872-1.4 4.932-2.98 9.036-4.6 4.14-1.66 9.32-3.5 15.7-5.37 .32-.57 .54-1.11 .5-1.47-.04-.44-.22-.69-.54-.9-4.39-.44-8.57-.72-12.67-.87-4.25-.21-9.038-.43-11.99-.21-2.916,.1-4.68,.46-5.292,1.08z"/>
<path d="m156.31,114.39c-3.67-.14-7.34-.07-11.56-.07-4.24,0-9.28-.11-13.32,.22-4.03,.18-7.7,.54-10.87,1.08-.25,.18-.43,.54-.39,.93 .03,.4 .14,.83 .46,1.44 5.26,.61 10.34,1.59 15.23,3.06 4.94,1.48 9.47,3.17 14.01,5.51-1.01-2.38-1.55-4.32-1.23-5.98 .18-1.62 1.41-2.88 2.7-3.78 1.26-1.08 2.92-1.83 4.97-2.41z"/>
<path d="m117.97,113.53c4.25-.94 8.21-2.05 12.17-2.95 3.89-.94 7.63-2.06 11.23-2.96 2.66,.26 4.71,.9 6.3,1.95 1.55,1.04 2.37,2.34 2.77,4.17-5.11-.18-10.12-.18-15.3,0-5.26,.18-10.3,.54-15.55,1.08l-1.62-1.29z"/>
</g>
<g>
<path d="m137.23,112.12c1.8-.64 3.56-1.15 5.29-1.36 1.77-.33 3.35-.36 5.04-.26-2.88,.4-5,.9-6.77,1.12-1.76,.32-2.95,.36-3.56,.5z"/>
</g>
<g fill="#804000">
<path d="m88.234,116.44c-.216,1.77-.18,3.28 .108,4.54 .144,1.26 .396,1.94 1.296,3.02 .792,1.08 2.052,1.98 3.78,3.1 1.044-.94 1.656-2.02 1.548-3.24-.144-1.37-.9-2.95-1.98-4.21-1.224-1.3-2.664-2.27-4.752-3.21z"/>
<path d="m149.33,121.52c.28,1.62 .61,3.24 .93,4.9 2.23-.65 3.89-1.41 5.11-2.42 1.12-1.08 1.62-2.16 1.91-3.63 .18-1.55 .15-3.31-.39-5.44-2.6,.61-4.57,1.41-5.8,2.52-1.3,1.12-1.84,2.38-1.76,4.07z"/>
</g>
<g>
<path d="m89.35,118.82c0,1.58 .432,2.77 .9,3.96 .432,1.01 1.62,2.48 2.196,2.63 .54,.03 1.296-.97 1.152-1.91-.288-1.12-1.728-3.64-2.232-4.07-.54-.39-.972,.65-.756,1.48 .108,.72 1.08,2.84 1.404,3.02 .144,.07 .18-.72-.18-2.52 .468,1.19 .756,1.98 .864,2.52 0,.43-.18,.47-.396,.4-.288-.04-.792-.43-1.08-1.05-.468-.79-1.224-2.77-1.152-3.42 0-.75 1.116-1.18 1.692-.72 .612,.47 1.44,2.31 1.944,3.42 .324,.98 .396,2.09 .216,2.67-.324,.54-1.224,.68-1.872,.43-.72-.43-1.944-1.62-2.304-2.74-.54-1.18-.54-2.55-.396-4.1z"/>
<path d="m92.878,116.19c5.94-.39 10.332-.5 13.322-.47 2.91,.04 4.43,.22 4.39,.69-5.15-.07-9-.11-11.988-.11-2.952-.07-4.86-.11-5.724-.11z"/>
<path d="m94.534,118.03c1.908,.25 4.248,.36 7.456,.18 3.09-.25 6.76-.65 11.16-1.33-4.36,1.18-7.85,1.94-11.02,2.12-3.132,.18-5.616-.14-7.596-.97z"/>
<path d="m97.27,121.41c2.088,.18 4.39-.14 6.77-.57 2.34-.54 6.19-2.16 7.52-2.49 1.23-.47 1.23-.47 0,0-2.09,1.05-4.1,1.91-6.19,2.59-2.2,.62-5.15,1.12-6.48,1.23-1.368,.03-1.908-.22-1.62-.76z"/>
<path d="m128.81,116.05c3.74,.43 7.27,.83 10.44,1.19 3.24,.28 5.93,.57 8.64,.72-5.08-.22-9.26-.47-12.39-.76-3.27-.29-5.36-.72-6.69-1.15z"/>
<path d="m130.75,118.39c5.04,.29 8.82,.72 11.74,1.29 2.8,.54 4.64,1.12 5.36,1.88-4.03-.9-7.42-1.66-10.3-2.13-2.88-.54-5.14-.93-6.8-1.04z"/>
<path d="m136.01,115.72c3.38-.1 6.26,0 8.78,.04 2.45,.11 4.39,.14 5.98,.4-5.15-.15-8.79-.18-11.31-.26-2.48-.07-3.63-.18-3.45-.18z"/>
<path d="m111.42,112.92c-2.05-.87-4.11-1.48-6.3-1.84-2.23-.47-4.36-.5-6.662-.5 3.272,.43 5.942,.68 8.132,1.15 2.2,.36 3.68,.75 4.83,1.19z"/>
<path d="m155.19,117.09c-1.9,.4-3.16,1.19-3.92,2.38-.86,1.15-1.19,3.81-.54,4.53 .68,.54 2.27,.18 4.75-1.08-2.16,1.05-3.53,1.41-4.1,.94-.69-.5-.22-2.63 .43-3.74 .61-1.16 1.69-2.16 3.38-3.03z"/>
<path d="m154.98,118.42c-.69,.8-1.15,1.52-1.55,2.16-.5,.58-1.04,1.26-.65,1.52 .44,.14 1.55,.07 3.35-.36-1.33,.36-2.09,.1-2.27-.36-.18-.51 .15-1.62 1.12-2.96z"/>
<path d="m110.88,122.53c-.33,.32-2.27,.83-2.34,1.51-.07,.5 .75,1.26 1.91,1.69 1.04,.36 4.03,.87 4.53,.54 .4-.5-1.87-1.98-1.94-2.88-.18-.97 1.58-2.37 1.11-2.55-.61-.19-3.49,1.04-4.06,1.43-.58,.22 .93-.07 .79,.26z"/>
<path d="m115.67,121.45c-.54,.47-.22,1.37 .54,1.58 .61,.29 2.55,.22 3.2-.21 .5-.62 .94-3.03 .32-3.21-.72-.32-3.42,1.26-4.06,1.84z"/>
<path d="m121.93,121.95c-.58,.36-.29,2.63 .32,3.06 .44,.36 2.02-.07 2.67-.47 .5-.54 1.22-1.58 .75-2.01-.57-.54-3.16-1.01-3.74-.58z"/>
<path d="m128.3,121.52c-.43,.61 .54,2.77 1.41,3.56 .86,.54 3.27,.8 3.74,.18 .29-.68-.69-3.2-1.55-3.81-.93-.65-3.24-.58-3.6,.07z"/>
<path d="m135.54,123.46c-.29,.47-.18,2.27 .47,2.78 .68,.36 3.49-.08 3.7-.47 .08-.54-1.9-2.02-2.59-2.34-.83-.43-1.4-.47-1.58,.03z"/>
<path d="m106.27,55.567c.61-.432 1.62-.648 2.88-1.044 1.22-.468 2.23-.72 4.68-1.044 2.48-.36 6.98-.684 9.76-.684 2.59,0 4.6,.252 6.04,.756 1.41,.432 2.24,1.116 2.49,2.052 .1,.72 .25,2.34 .43,5.148 .22,2.772 .36,7.704 .58,11.34 .07,3.564-.04,6.697-.18,9.829-.98,.504-2.78,1.044-5.26,1.62-2.63,.468-6.44,1.62-9.94,1.512-3.53-.252-7.09-1.08-10.83-2.628-.8-7.165-1.23-12.924-1.3-17.424-.14-4.5 .07-7.597 .65-9.433z"/>
<path fill="#e0e0e0" d="m106.49,55.963s3.31-1.332 5.58-1.728c2.26-.432 6.22-.72 8.28-.792 2.05-.072 3.85-.036 5.4,.072 1.51,.072 2.8,.072 3.7,.36s1.8,1.368 1.8,1.368-.25,.972-2.01,1.512c-1.8,.504-5.47,1.296-8.89,1.44-3.39,.144-8.64-.468-10.91-.828-2.27-.396-2.95-1.404-2.95-1.404z"/>
<path fill="#616161" d="m106.34,56.719c-.47,3.024-.65,6.624-.39,10.944 .18,4.284 .72,9.144 1.62,14.725 2.41,.828 4.64,1.404 6.98,1.728 2.23,.324 3.6,.396 6.73,.072 3.06-.432 6.91-1.368 11.7-2.664-.07-3.456-.18-7.128-.32-11.412-.15-4.356-.44-8.928-.72-14.112-3.03,1.332-6.05,2.304-9.22,2.772-3.24,.36-6.91,.36-9.61,0-2.81-.397-4.97-1.081-6.77-2.053z"/>
<path d="m111.74,57.187c1.26-.432 2.92-.72 5.11-.864 2.2-.252 6.02-.288 8-.252 1.9,.036 2.87,.216 3.2,.54-4.1-.108-7.34-.036-10.12,.072-2.77,.036-4.78,.252-6.19,.504z"/>
<path d="m106.92,62.047c2.84,1.008 5.61,1.548 8.46,1.764 2.81,.108 5.43-.18 8.17-.576 2.66-.432 5.19-.972 7.7-1.764-3.13,1.26-6.15,2.052-9.21,2.52-3.13,.396-6.7,.432-9.18,.108-2.56-.324-4.54-1.008-5.94-2.052z"/>
<path d="m107.24,66.871c2.85,1.008 5.62,1.548 8.46,1.764 2.81,.108 5.44-.18 8.17-.576 2.67-.432 5.19-.972 7.71-1.764-3.13,1.26-6.16,2.052-9.22,2.52-3.13,.396-6.69,.432-9.18,.108-2.55-.324-4.53-1.008-5.94-2.052z"/>
<path d="m107.6,72.127c2.85,1.008 5.62,1.548 8.46,1.764 2.81,.108 5.44-.18 8.17-.576 2.67-.432 5.19-.972 7.71-1.764-3.13,1.26-6.16,2.052-9.22,2.52-3.13,.324-6.69,.396-9.18,.072-2.55-.324-4.53-1.044-5.94-2.016z"/>
<path d="m108,78.031c2.84,.937 5.61,1.513 8.46,1.729 2.81,.072 5.43-.108 8.17-.54 2.66-.468 5.19-.936 7.7-1.8-3.13,1.26-6.15,2.052-9.21,2.52-3.13,.396-6.7,.433-9.18,.108-2.56-.324-4.54-1.044-5.94-2.017z"/>
<path d="m116.67,61.292c-.39-1.44-.72-3.024-.97-4.896-.36-1.908-.54-4.104-.54-6.3 0-2.376 .43-5.436 .9-7.236 .4-1.764 1.12-2.628 1.87-3.168 .8-.684 1.8-.72 2.6-.504 .57,.144 .97,.684 1.18,1.62-.43-.504-.9-.756-1.54-.756-.65,0-1.77-.468-2.38,.684-.68,1.044-1.37,3.384-1.62,5.616-.36,2.16-.4,4.608-.25,7.2 .07,2.448 .32,5.075 .75,7.74z"/>
<path d="m121.53,40.519c.26,1.908 .44,4.032 .54,6.084 0,2.016 .11,4.248-.07,6.408 .18-.612 .47-1.548 .47-3.096 0-1.62-.07-4.392-.22-5.976-.14-1.656-.43-2.664-.72-3.42z"/>
<path d="m115.92,61.039c0,.288 .39,.504 .83,.468 .43-.036 .75-.288 .75-.576-.03-.288-.39-.504-.83-.468-.43,0-.79,.288-.75,.576z"/>
<path d="m119.45,11.071c-.18,6.516-.33,11.772-.44,15.912-.1,4.068-.39,6.912-.46,8.532 .18-.072 .43,.216 .61,1.008 .11,.72 .43,2.628 .43,3.348-.07,.576-.18,.396-.47,.288-.36-.216-.75-.576-1.33-1.224 0,.792 .07,1.728 .07,3.096 0,1.296-.03,2.88-.11,4.752 .47-.324 .9-.324 1.44-.396 .54,.036 1.05,0 1.66,.288 .36-4.824 .68-9.324 .97-13.788 .22-4.608 .18-10.764 .72-12.78 .36-1.98 1.15-1.584 1.98,1.044l2.38-.288c-.43-1.008-.9-1.98-1.55-2.916-.65-1.008-2.09-1.656-2.38-2.916-.32-1.368-.25-3.06 .36-5.22-.68-.468-1.4-.648-2.01-.396-.69,.216-1.26,.72-1.87,1.656z"/>
</g>
<g fill="#a16121">
<path d="m120.06,11.035c.29,.216 .5,.144 1.04,.072 .36-.216 1.05-.432 1.66-.936-.51,1.944-.58,3.384-.36,4.608 .14,1.044 1.11,1.512 1.8,2.376 .61,.9 1.4,1.944 2.23,3.132l-1.69,.072c-1.26-3.132-2.38-2.628-3.06,1.656-.72,4.284-1.3,12.204-1.44,23.904-.51-.036-.87-.108-1.08-.072-.33-.036-.47,0-.58,.108l-.14-5.616c.43,.324 .79,.504 1.08,.396 .21-.072 .36-.396 .43-.972 .07-.756 0-2.556-.07-3.312-.07-.864-.29-1.368-.51-1.512 .18-3.816 .18-7.308 .4-10.872 .04-3.564 .29-7.956 .36-10.116 .07-2.196 0-3.168-.07-2.916z"/>
<path d="m120.63,10.783c.08,0 1.01-.18 1.41-.396 .32-.216 .39-.756 .36-.792-.15-.072-.79-.108-.97,.18-.44,.216-.83,.828-.8,1.008z"/>
</g>
<g>
<path d="m120.53,15.355c-.08,2.304-.11,4.392-.11,6.12-.04,1.8-.04,3.06 0,4.32 .32-2.772 .5-5.076 .54-6.768 0-1.836-.15-2.916-.43-3.672z"/>
<path d="m121.14,12.439c-.15,1.008-.04,2.016 .32,2.88 .25,.864 .76,1.692 1.51,2.484-.61-.936-.9-1.908-1.26-2.772-.25-.936-.57-1.8-.57-2.592z"/>
<path d="m120.24,28.099l-.33,5.616c.33-1.224 .36-2.232 .51-3.168-.04-.936 .03-1.8-.18-2.448z"/>
</g>
</g>
</g>
</svg>
