<?xml version="1.0" encoding="UTF-8" standalone="no"?>
<!-- Created with Inkscape (http://www.inkscape.org/) -->
<svg xmlns:inkscape="http://www.inkscape.org/namespaces/inkscape" xmlns:rdf="http://www.w3.org/1999/02/22-rdf-syntax-ns#" xmlns="http://www.w3.org/2000/svg" xmlns:sodipodi="http://sodipodi.sourceforge.net/DTD/sodipodi-0.dtd" xmlns:ns1="http://sozi.baierouge.fr" xmlns:cc="http://creativecommons.org/ns#" xmlns:xlink="http://www.w3.org/1999/xlink" xmlns:dc="http://purl.org/dc/elements/1.1/" id="svg3923" sodipodi:docname="Nuovo documento 5" viewBox="0 0 540.52 448.46" version="1.1" inkscape:version="0.48.4 r9939">
  <defs id="defs3925">
    <filter id="filter7578" color-interpolation-filters="sRGB" inkscape:collect="always">
      <feGaussianBlur id="feGaussianBlur7580" stdDeviation="0.1360035" inkscape:collect="always"/>
    </filter>
    <linearGradient id="linearGradient3855" y2="-106.22" gradientUnits="userSpaceOnUse" x2="2575.2" y1="-207.43" x1="2543.7" inkscape:collect="always">
      <stop id="stop4359" style="stop-color:#87cdde" offset="0"/>
      <stop id="stop4361" style="stop-color:#c6e7ef" offset="1"/>
    </linearGradient>
  </defs>
  <sodipodi:namedview id="base" bordercolor="#666666" inkscape:pageshadow="2" inkscape:window-y="27" fit-margin-left="0" pagecolor="#ffffff" fit-margin-top="0" inkscape:window-maximized="1" inkscape:zoom="0.98994949" inkscape:window-x="0" inkscape:window-height="1025" showgrid="false" borderopacity="1.0" inkscape:current-layer="layer1" inkscape:cx="257.55589" inkscape:cy="133.65557" fit-margin-right="0" fit-margin-bottom="0" inkscape:window-width="1920" inkscape:pageopacity="0.0" inkscape:document-units="px"/>
  <g id="layer1" inkscape:label="Livello 1" inkscape:groupmode="layer" transform="translate(-108.92 -173.37)">
    <g id="g3773" transform="matrix(9.857 0 0 9.857 -235.41 -117.34)">
      <path id="path3775" sodipodi:nodetypes="ccccccccc" style="opacity:0.452;color:#000000;filter:url(#filter7578);fill:#1a1a1a" inkscape:connector-curvature="0" d="m47.563 58.608-8.4593 9.2551c-4.0757 3.4916-0.12742 2.7565 3.286 3.1806l29.128 3.619c6.022-0.11762 12.717-0.43845 14.512-5.7107l2.9517-14.847c0.80518-3.0166 0.82497-4.3542-2.1742-4.6793l-3.7594-0.40753z"/>
      <g id="g3777">
        <g id="g3779" transform="matrix(.051538 0 0 .051538 -70.775 46.646)">
          <path id="path3781" sodipodi:nodetypes="ccccc" style="stroke:#000000;stroke-width:1px;fill:#ff6600" inkscape:connector-curvature="0" d="m3011.5-110.97c-56.446-9.9505-67.958 7.3397-83.779-14.619v23.616l74.783 9.5587z"/>
          <g id="g3783" transform="matrix(.70566 -.014415 .014415 .70566 1002.7 -99.069)">
            <path id="path3785" d="m2925.8 367.78c0 77.634-22.836 138.04-40.452 146.19-13.636 6.3062-90.817 4.1934-93.494-8.9376-7.8711-38.61-14.928-71.144-16.007-123.19-0.3537-17.07 75.482 2.1786 75.482-15.187 0-77.634 21.919-139.44 41.327-139.44s33.142 62.935 33.142 140.57z" sodipodi:nodetypes="sssssss" style="color:#000000;fill:#1a1a1a" inkscape:connector-curvature="0"/>
            <path id="path3787" sodipodi:rx="21.366459" sodipodi:ry="95.586792" style="stroke-linejoin:round;color:#000000;stroke:#000000;stroke-linecap:round;stroke-width:1.6;fill:#e6e6e6" sodipodi:type="arc" d="m2919.3 383.57c0 52.791-9.5661 95.587-21.366 95.587s-21.366-42.796-21.366-95.587 9.5661-95.587 21.366-95.587 21.366 42.796 21.366 95.587z" transform="translate(-6 -14.102)" sodipodi:cy="383.56586" sodipodi:cx="2897.9666"/>
          </g>
          <path id="path3789" style="fill:#666666" inkscape:connector-curvature="0" d="m2852.4 264.93 53.978-101.21 75.907 14.057-75.907 157.44z" transform="translate(0 -14.102)"/>
          <path id="path3791" d="m2225.3-253.34 25.048 3.5783c-47.879 174.98-72.257 355.57-105.77 533.43l-8.3377 28.365-66.397-18.687 20.277-17.096c10.57-94.513 14.335-241.52 79.518-320.46 12.209-68.917 24.432-134.04 55.662-209.13z" sodipodi:nodetypes="cccccccc" style="stroke:#000000;stroke-width:3;fill:#ff6600" inkscape:connector-curvature="0"/>
          <path id="path3793" d="m2132.3 362.8c-0.6933 80.086 32.925 96.959 90.907 94.904 20.05 1.6356 29.749-6.4747 40.53-21.379 17.696-24.645 19.991-46.39 27.68-83.861l-26.58-49.344-125.95-8.9964z" sodipodi:nodetypes="ccccccc" style="stroke:#000000;stroke-width:1px;fill:#1a1a1a" inkscape:connector-curvature="0"/>
          <path id="path3795" d="m2142.9 275.85c191.9 27.91 383.81 35.541 575.71 42.94l25.446-539.13c-82.574-67.317-407.93-50.096-491.42-23.855-40.429 18.593-66.935 310.91-109.73 520.05z" sodipodi:nodetypes="ccccc" style="stroke:#000000;stroke-width:2;fill:#ff6600" inkscape:connector-curvature="0"/>
          <path id="path3797" d="m2747.9-243.34c39.327 0.41857 85.092-0.42951 107.09-15.048 24.675-28.502 45.83-15.461 77.312-12.026 0 0 44.835 172.51 48.598 171.72 3.7631-0.79512 24.607-14.037 39.32-8.5132 8.9163 5.334 26.586 17.429 40.063 58.66 7.8174 23.916 5.2174 75.567 9.3013 92.718-11.845-46.822-55.291-23.007-45.104 97.29l-82.5 132.77c7.1708-25.52-1.332-44.978-7.5262-68.38-26.628 6.9675-54.37 35.678-53.967 43.964-13.551 44.637-8.0542 104.56-49.49 95.378-40.471-0.15857-111.46-0.99185-111.46-0.99185z" sodipodi:nodetypes="ccczcscccccccc" style="stroke:#000000;stroke-width:3.4866;fill:#ff6600" inkscape:connector-curvature="0"/>
          <path id="path3799" d="m2734 88.884c79.453 4.7657 150.6-4.2904 198.68-51.726l114.22-100.14 1.1825 2.8112-112.45 105.2c-34.939 28.454-56.086 60.983-203.41 56.223z" sodipodi:nodetypes="ccccccc" style="stroke:#000000;stroke-width:1.0255px;fill:#ac9393" inkscape:connector-curvature="0"/>
          <path id="path3801" d="m2814.2 117.56 28.676 30.925-7.8718 7.3096 0.5623 7.8719c-34.952 22.081-58.656-23.797-31.488-46.669z" sodipodi:nodetypes="cccccc" style="stroke:#000000;stroke-width:1px;fill:#483737" inkscape:connector-curvature="0"/>
          <path id="path3803" sodipodi:rx="13.494606" sodipodi:ry="17.430532" style="color:#000000;fill:#e6e6e6" sodipodi:type="arc" d="m1286.5 42.265c0 9.6266-6.0417 17.431-13.495 17.431-7.4529 0-13.495-7.8039-13.495-17.431 0-9.6266 6.0417-17.431 13.495-17.431 7.4529 0 13.495 7.8039 13.495 17.431z" transform="matrix(1.0618 0 .51379 1 1458.2 85.561)" sodipodi:cy="42.264774" sodipodi:cx="1272.9912"/>
          <path id="path3805" d="m2759.9 126.91c-21.009 2.0052-28.398 11.345-30.126 29.184-16.776 134.7 49.382 150.77 56.62-0.74517 3.3173-17.501-12.507-28.187-26.494-28.439z" sodipodi:nodetypes="cccc" style="stroke:#000000;stroke-width:1px;fill:#800000" inkscape:connector-curvature="0"/>
          <path id="path3807" sodipodi:rx="17.360249" sodipodi:ry="14.970578" style="color:#000000;fill:#aa0000" sodipodi:type="arc" d="m1212.5 72.979c0 8.268-7.7724 14.971-17.36 14.971-9.5878 0-17.36-6.7026-17.36-14.971 0-8.268 7.7725-14.971 17.36-14.971 9.5878 0 17.36 6.7026 17.36 14.971z" transform="translate(1553.4 87.951)" sodipodi:cy="72.979057" sodipodi:cx="1195.1863"/>
          <path id="path3809" sodipodi:rx="17.360249" sodipodi:ry="14.970578" style="color:#000000;fill:#ff6600" sodipodi:type="arc" d="m1212.5 72.979c0 8.268-7.7724 14.971-17.36 14.971-9.5878 0-17.36-6.7026-17.36-14.971 0-8.268 7.7725-14.971 17.36-14.971 9.5878 0 17.36 6.7026 17.36 14.971z" transform="translate(1553.4 123.66)" sodipodi:cy="72.979057" sodipodi:cx="1195.1863"/>
          <path id="path3811" sodipodi:rx="17.360249" sodipodi:ry="14.970578" style="color:#000000;fill:#aa0000" sodipodi:type="arc" d="m1212.5 72.979c0 8.268-7.7724 14.971-17.36 14.971-9.5878 0-17.36-6.7026-17.36-14.971 0-8.268 7.7725-14.971 17.36-14.971 9.5878 0 17.36 6.7026 17.36 14.971z" transform="matrix(.80162 0 0 1.1831 1790.6 151.13)" sodipodi:cy="72.979057" sodipodi:cx="1195.1863"/>
          <path id="path3813" d="m2081.7 271.08c389.81 49.012 494.39 38.699 744.29 58.048 20.226 17.368 43.486 34.347-16.699 62.024-259.44-2.522-505.44-25.96-745.88-58.048-24.398-27.028-7.7235-45.498 18.289-62.024z" sodipodi:nodetypes="ccccc" style="stroke:#000000;stroke-width:1px;fill:#b3b3b3" inkscape:connector-curvature="0"/>
          <path id="path3815" d="m2218.5 284.6 27.036 3.1807c-0.965 10.346 0.014 18.509 0.9067 27.547 7.291-1.7008 15.684-11.452 8.6685 0.46747l-9.4808 16.107-1.2872 33.011-29.024-3.1807z" sodipodi:nodetypes="cccccccc" style="stroke:#000000;stroke-width:1px;fill:#1a1a1a" inkscape:connector-curvature="0"/>
          <path id="path3817" sodipodi:nodetypes="ccsccccc" style="stroke:#000000;stroke-width:1px;fill:#1a1a1a" inkscape:connector-curvature="0" d="m2562.4 309.05 19.681 0.59638s2.7982 13.602 4.4904 27.9c0.5689 4.8066 8.0728-12.993 8.0728-12.993l-6.7038 32.992-5.0643 34.601-27.434-3.7771z"/>
          <path id="path3819" d="m2301-228.58c62.395-15.526 260.95-7.1954 344 7.3362 31.178 3.1942 38.997 12.943 40.2 41.087 1.3617 31.982 3.7916 67.787-3.7955 100.59-5.0553 36.941-21.452 30.778-55.368 29.366-111.41-6.1211-287.66-7.7702-355.71-16.881-26.683-4.5196-20.586-12.456-18.704-30.388 3.5663-34.09 7.4284-66.75 20.222-97.06 8.1136-17.681 11.852-28.91 29.158-34.054z" sodipodi:nodetypes="ccccccccc" style="stroke:#000000;stroke-width:1px;fill:url(#linearGradient3855)" inkscape:connector-curvature="0"/>
          <path id="path3821" d="m2737-12.88c106.17 5.8421 132.53 3.3144 279.23-93.303 4.3589-0.34866 5.9936 0.081 9.818 4.0881-102.11 64.197-121.88 124.83-289.05 117.33z" sodipodi:nodetypes="ccccc" style="stroke:#000000;stroke-width:1.0255px;fill:#ff7f2a" inkscape:connector-curvature="0"/>
          <path id="path3823" d="m2201.3-32.563 529.66 19.117-3.3737 27.551-533.04-25.302z" style="stroke:#000000;stroke-width:1px;fill:#ff7f2a" inkscape:connector-curvature="0"/>
          <path id="path3825" d="m2487 253.11c-57.687-3.4079-115.75-4.9198-172.63-16.062-41.431-5.9204-26.514-42.32-22.847-63.143 5.8748-22.311 7.961-68.199 13.995-90.435 2.9874-12.412 14.127-22.111 27.096-22.178 68.57 3.8702 132.57 7.7703 194.88 11.585 13.199-3.0616 32.678 14.441 34.186 25.204 5.5733 33.876 0.3759 68.314-3.1153 102.14-7.1122 53.761-27.455 53.4-71.573 52.887z" sodipodi:nodetypes="ccccccccc" style="stroke:#000000;stroke-width:1px;fill:none" inkscape:connector-curvature="0"/>
          <path id="path3827" d="m2326.3 79.764 213.9 12.404-11.1 143.6-220.6-18.01z" sodipodi:nodetypes="ccccc" style="stroke:#000000;stroke-width:1.342px;fill:#552200" inkscape:connector-curvature="0"/>
          <path id="path3829" d="m2842-217.6c11.061 41.5 25.586 121.2 21.941 162.45-6.0088 12.594-17.101 15.199-22.975 18.278-35.599 30.974-29.619-138.36-29.562-177.29-0.2062-31.031 29.562-24.557 30.596-3.436z" sodipodi:nodetypes="ccccc" style="opacity:.93091;stroke-width:1px;color:#000000;stroke:#000000;fill:url(#linearGradient3855)" inkscape:connector-curvature="0"/>
          <path id="path3831" d="m2854.7-249.6c21.363-12.619 42.623-25.505 74.22-11.808l37.11 159.69-80.968 47.793c-13.387-64.68-25.838-129.52-30.363-195.67z" sodipodi:nodetypes="ccccc" style="opacity:.93091;stroke-width:1px;color:#000000;stroke:#000000;fill:url(#linearGradient3855)" inkscape:connector-curvature="0"/>
          <path id="path3833" d="m2154.1 121.36c-8.0149 84.793-21.261 107.91-30.601 100.03-18.856 3.6482-15.513-104.47-4.8997-110.03 14.885-14.194 31.705-10.571 35.501 10.002z" sodipodi:nodetypes="cccc" style="stroke:#000000;stroke-width:1px;fill:#800000" inkscape:connector-curvature="0"/>
          <path id="path3835" sodipodi:rx="17.360249" sodipodi:ry="14.970578" style="color:#000000;fill:#aa0000" sodipodi:type="arc" d="m1212.5 72.979c0 8.268-7.7724 14.971-17.36 14.971-9.5878 0-17.36-6.7026-17.36-14.971 0-8.268 7.7725-14.971 17.36-14.971 9.5878 0 17.36 6.7026 17.36 14.971z" transform="matrix(.87976 0 0 .97088 1073.4 57.96)" sodipodi:cy="72.979057" sodipodi:cx="1195.1863"/>
          <path id="path3837" sodipodi:rx="17.360249" sodipodi:ry="14.970578" style="color:#000000;fill:#ff6600" sodipodi:type="arc" d="m1212.5 72.979c0 8.268-7.7724 14.971-17.36 14.971-9.5878 0-17.36-6.7026-17.36-14.971 0-8.268 7.7725-14.971 17.36-14.971 9.5878 0 17.36 6.7026 17.36 14.971z" transform="matrix(.87976 0 0 .97088 1073.4 92.624)" sodipodi:cy="72.979057" sodipodi:cx="1195.1863"/>
          <path id="path3839" sodipodi:rx="17.360249" sodipodi:ry="14.970578" style="color:#000000;fill:#aa0000" sodipodi:type="arc" d="m1212.5 72.979c0 8.268-7.7724 14.971-17.36 14.971-9.5878 0-17.36-6.7026-17.36-14.971 0-8.268 7.7725-14.971 17.36-14.971 9.5878 0 17.36 6.7026 17.36 14.971z" transform="matrix(.70524 0 0 1.1486 1282.1 119.3)" sodipodi:cy="72.979057" sodipodi:cx="1195.1863"/>
          <path id="path3841" d="m2251.1-240.94c14.63-28.043 391.62-48.491 493.4 19.181-4.7784-5.7287 25.873-26.728 67.389-23.64 17.735 3.654 30.652-5.268 42.928-15.548 29.209-24.343 55.902-17.057 78.549-7.8243-58.516-67.702-349.07-64.361-478.7-61.229-36.767-0.67508-96.784 8.5749-144.28 25.46-73.423 26.104-112.48 62.517-59.289 63.6z" sodipodi:nodetypes="ccccccsc" style="stroke:#000000;stroke-width:3;fill:#ff6600" inkscape:connector-curvature="0"/>
          <g id="g3843" transform="matrix(.99889 .047029 -.047029 .99889 20.663 -138.43)">
            <path id="path3845" sodipodi:nodetypes="sssssss" style="color:#000000;fill:#1a1a1a" inkscape:connector-curvature="0" d="m2925.8 367.78c0 77.634-22.836 138.04-40.452 146.19-13.636 6.3062-77.195 6.4482-87.759-10.173-21.137-33.255-20.662-69.908-21.741-121.96-0.3537-17.07 75.482 2.1786 75.482-15.187 0-77.634 21.919-139.44 41.327-139.44s33.142 62.935 33.142 140.57z"/>
            <path id="path3847" sodipodi:rx="21.366459" sodipodi:ry="95.586792" style="stroke-linejoin:round;color:#000000;stroke:#000000;stroke-linecap:round;stroke-width:1.6;fill:#e6e6e6" sodipodi:type="arc" d="m2919.3 383.57c0 52.791-9.5661 95.587-21.366 95.587s-21.366-42.796-21.366-95.587 9.5661-95.587 21.366-95.587 21.366 42.796 21.366 95.587z" transform="translate(-6 -14.102)" sodipodi:cy="383.56586" sodipodi:cx="2897.9666"/>
          </g>
        </g>
      </g>
    </g>
  </g>
  <metadata>
    <rdf:RDF>
      <cc:Work>
        <dc:format>image/svg+xml</dc:format>
        <dc:type rdf:resource="http://purl.org/dc/dcmitype/StillImage"/>
        <cc:license rdf:resource="http://creativecommons.org/licenses/publicdomain/"/>
        <dc:publisher>
          <cc:Agent rdf:about="http://openclipart.org/">
            <dc:title>Openclipart</dc:title>
          </cc:Agent>
        </dc:publisher>
      </cc:Work>
      <cc:License rdf:about="http://creativecommons.org/licenses/publicdomain/">
        <cc:permits rdf:resource="http://creativecommons.org/ns#Reproduction"/>
        <cc:permits rdf:resource="http://creativecommons.org/ns#Distribution"/>
        <cc:permits rdf:resource="http://creativecommons.org/ns#DerivativeWorks"/>
      </cc:License>
    </rdf:RDF>
  </metadata>
</svg>
