<svg xmlns="http://www.w3.org/2000/svg" viewBox="0 0 283.46 389.76" xmlns:xlink="http://www.w3.org/1999/xlink">
<defs>
<filter width="1.126" x="-.063" y="-.399" height="1.797" id="filter3220">
<feGaussianBlur stdDeviation="8.72405"/>
</filter>
<linearGradient gradientTransform="matrix(.63919 0 0 .63919 66.883 226.15)" id="linearGradient2276" y1="1675.9" y2="814.71" gradientUnits="userSpaceOnUse" x2="0">
<stop offset="0" stop-color="#2e3436"/>
<stop offset="1" stop-color="#2e3436" stop-opacity="0"/>
</linearGradient>
<radialGradient cx="291.09" cy="722.74" gradientTransform="matrix(.66214 0 0 1.4195 61.93 -363.56)" id="radialGradient2272" r="201.43" gradientUnits="userSpaceOnUse">
<stop offset="0" stop-color="#ededed"/>
<stop offset="1" stop-color="#dfdfdb"/>
</radialGradient>
<radialGradient cx="284.29" cy="771.46" gradientTransform="matrix(.79684 0 0 1.3876 22.067 -340.6)" id="radialGradient2266" r="201.43" gradientUnits="userSpaceOnUse">
<stop offset="0" stop-color="#fff"/>
<stop offset="1" stop-color="#e9e9e6"/>
</radialGradient>
</defs>
<g transform="translate(-145.21 -502.7)">
<path opacity=".256" fill="#2e3436" filter="url(#filter3220)" d="m545.48,993.77a165.67,26.264 0 1,1 -331.33,0 165.67,26.264 0 1,1 331.33,0z" transform="matrix(.63919 0 0 .63919 44.171 229.69)"/>
</g>
<g stroke="#d3d7cf" stroke-linejoin="round" stroke-linecap="round" stroke-width=".639">
<g transform="translate(-145.21 -502.7)">
<path fill="url(#radialGradient2272)" d="m411.38,680.58l-.19,.5-4.59-9.31-5.37,.66-3.04-6.44 .82-7.31 1-8.16-6.22-.87-3.85,5.06-6.46,5-6.75-1-6.82-7.66-8.4,6.53-5.1-5.84-7.93,4.69-5.72,1.4-4.19-9.09-6.38-4.78-7.53,6.19-4.75-6.69-6.28,3.81-4.09,4.94-4.28,1-7.03-2.69-9.1,3.72-3.44-4.03-5.62-1.66-2.78-4.87-2.75-5.41-2.44,4.22-1.97,2.62-7.22,2.16-5.18-3.34-6.32-.66-3.43,5.41-2.94-6.69-5.25,4.09-6.53,2.22-2.5-4.72-5.22,9.94-4.88-2.44-4.87-.78-5.69,8.25-2.31-8.81-7.56,9.72-6.13-1.78-7.28,6.15-6.28-.75-1.28,9.13-5.32,.62-2.81-3.65-8.81,12.5c-2.59,15.56-4.13,31.18-4.13,46.37 0,98.29 57.68,141.53 128.75,141.53s128.75-43.24 128.75-141.53c0-15.55-1.6-31.55-4.31-47.47z"/>
</g>
<g fill="none" transform="translate(-145.21 -502.7)">
<path d="m184.94,694.78l-1.42-2.32 .35-5.36-2.68-3.3-.09-4.11-1.78-3.39-.07-4.13"/>
<path d="m342.93,657.82l.27,4.82-1.88,3.89 1.43,3.73-1.3,5.66 .58,6.18-2.4,3.89"/>
<path d="m248.03,648.54l-2.27,4.98 4.79,3.78-2.52,5.56 2.27,4.04 2.02,6.82"/>
</g>
<g transform="translate(-145.21 -502.7)">
<path fill="url(#radialGradient2266)" d="m411.44,680.96l-6.28,13.53-3.84-7.7-4.94-2.27-5.22,1.09-4.68-2.15-3.85,2.84-2.72,3.22-6.97,2.53-5.18-3.44-3.16-8.53-4.87,8.75-4.94-.31-4.69,1.94-6.53-2.28-2.97-4.44-5.9-5.19-4.99,8.05-2.67,8.44-1.72-5.24-.77-4.81-3.51-5.41-6.91,2.5-7.47-4.25-5.22,3.88-6.62,1.28-2.63-5.91-7.25,2.25-5.75-1.09-3.78-3.69-8.72,4.56-8.95,4.04-5.16,5.81-6.5-2.28-2.37,10.87-1.19-15.19-9.06-.31-6.03,3.94-5.03-8.66-5.56,1.94-5.25-1.59-9.85-4.19-5.12,4.5-.93,.75-6.28,3-3.97,3.94-1.03,7-4.78,7.22-2.59-11.35 1.28-8.31-2.31-6.41-.53-8.72-5.75,4.94-4.41,2.22-3.38,11.69c-2.35,14.8-3.75,29.64-3.75,44.09 0,98.29 57.68,141.53 128.75,141.53s128.75-43.24 128.75-141.53c0-15.43-1.57-31.29-4.25-47.09z"/>
</g>
<g fill="none" transform="translate(-145.21 -502.7)">
<path d="m243.73,697.45l-1.78,4.97 2.5,3.75-.89,7.32 2.67,4.29-.89,8.57 4.47,3.39 1.25,5.89 3.92,6.25 .54,7.68"/>
<path d="m179.54,700.01l2.7,5.29-1.61,3.75 1.37,2.94 1.29,2.72-1.98,6.27 2.44,2.65 .89,4.83"/>
<path d="m327.11,694.61l-.88,4.95-1.04,2.8 1.04,2.92-1.78,3.21 1.61,5.71-2.68,4.65 2.14,4.28"/>
<path d="m403.91,706.92l-.15-4.14 1.42-3.76v-4.54"/>
<path d="m252.8,689.04l4.8,.58 3.5,2.51"/>
</g>
</g>
<g transform="translate(-145.21 -502.7)">
<path opacity=".506" fill="url(#linearGradient2276)" d="m415.7,728.05c0,98.29-57.68,141.54-128.75,141.54s-128.75-43.25-128.75-141.54 57.68-214.58 128.75-214.58 128.75,116.29 128.75,214.58z"/>
</g>
</svg>
