<svg xmlns="http://www.w3.org/2000/svg" viewBox="0 0 374.891 281.508" xmlns:xlink="http://www.w3.org/1999/xlink" enable-background="new 0 0 374.891 281.508">
<g fill-rule="evenodd">
<g>
<path fill="#010101" d="m325.83,1.817c4.057,.812 7.834,2.243 11.547,4.038 3.638,1.759 7.334,3.328 10.209,6.264 5.106,5.214 7.542,12.512 10.015,19.214 2.445,6.627 3.836,15.47 8.937,20.705 2.149,2.205 5.206,3.548 6.472,6.517 1.371,3.216 .287,8.041-.923,11.172-2.874,7.435-8.973,13.783-14.109,19.711-2.397,2.768-4.339,5.982-7.237,8.274-3.091,2.445-6.656,2.912-10.368,3.806-1.597,.385-4.143,4.374-3.047,5.928 .543,.771 1.912,.964 2.75,1.189 1.432,.385 2.743,1.21 3.898,2.122 4.966,3.917 7.304,10.199 10.015,15.696 7.611,15.436 12.684,31.758 17.297,48.296 3.775,13.534 8.357,31.884-8.021,38.75-3.427,1.437-7.024,2.799-10.615,3.756-3.688,.983-6.877,.772-8.332,5.011-.663,1.931-1.281,3.851-2.054,5.744-.709,1.739-1.186,4.008-2.223,5.565-1.984,2.98-3.745,5.193-6.593,7.43-3.146,2.469-5.616,3.284-9.467,4.122-4.165,.906-9.312,.888-13.506,.108-6.716-1.247-13.896-3.421-17.174-9.976-.397-.796-.195-1.624-.471-2.442-.184-.545-.766-.781-1.016-1.281-.539-1.078-.829-2.291-1.577-3.26-.948-1.228-2.703-.929-4.067-.966-1.997-.055-3.996-1.056-5.711-2.016-2.772-1.553-4.706-3.552-6.596-6.032-.812-1.066-1.363-1.65-2.718-1.055-1.906,.839-4.358,.359-6.393,.359h-6.333c-1.17,0-3.758-.52-4.734,.189-1.647,1.196-2.188,4.343-2.688,6.169-1.59,5.79-4.094,12.926-9.681,15.99-3.204,1.758-6.402,2.042-9.916,2.639-4.279,.727-8.206,.383-12.506,.555-7.791,.312-15.385-3.658-20.435-9.381-2.526-2.862-4.616-5.565-6.097-9.106-.651-1.56-1.754-2.595-2.664-3.976-1.072-1.625-1.744-2.653-3.819-2.491-3.432,.268-6.992,.306-10.425-.022-1.99-.189-5.028-1.059-6.068,1.089-1.509,3.116-4.134,4.401-7.14,5.884-1.48,.729-2.255,2.058-3.025,3.454-.983,1.782-2.181,3.359-3.553,4.863-2.372,2.6-5.011,5.21-7.95,7.161-3.501,2.325-7.331,2.929-11.398,3.614-7.412,1.25-16.338,.266-23.066-3.244-3.051-1.593-6.039-4.013-8.625-6.269-2.622-2.287-3.675-4.756-5.325-7.697-.877-1.564-1.853-3.079-2.564-4.73-.543-1.259-.583-3.071-1.273-4.196-.572-.932-2.086-.741-3.003-.871-2.142-.304-3.947-1.544-5.813-2.515-2.993-1.558-6.513-2.701-8.97-5.085-2.21-2.145-6.174-5.114-6.597-8.375-.252-1.948-1.259-3.562-1.686-5.434-.408-1.79-.05-3.844-.104-5.671-.132-4.505 .195-8.802 1.186-13.207 .89-3.957 2.087-7.834 3.113-11.756 1.139-4.351 1.937-8.762 3.266-13.066 2.594-8.403 5.721-16.662 8.473-25.016 1.156-3.508 2.298-6.669 4.851-9.43 2.68-2.898 6.009-5.27 9.588-6.927 1.664-.77 3.41-1.406 5.23-1.673 1.724-.253 3.529,.144 5.216-.186 3.714-.726 2.547-3.639-.021-4.845-2.438-1.146-5.152-1.306-7.638-2.303-3.375-1.354-6.914-3.546-9.549-6.049-2.57-2.441-4.506-5.453-6.91-8.048-2.732-2.951-4.781-5.856-6.819-9.309-1.957-3.316-3.534-6.515-4.906-10.109-.641-1.678-1.819-3.221-2.112-5.019-.305-1.872 .889-4.375 1.814-5.952 1.515-2.583 5.914-2.143 7.56-5.092 .741-1.327 .5-2.984 .708-4.433 .316-2.209 .693-4.643 1.355-6.776 2.287-7.363 5.731-14.371 9.682-20.964 3.424-5.715 7.68-11.811 14.574-13.363 3.771-.849 7.534-1.997 11.31-2.741 4.468-.879 9.107-.874 13.637-1.196 18.118-1.289 36.395-2.863 54.565-2.623 8.921,.118 17.785-.952 26.708-1.021 8.927-.069 17.851,.279 26.777,.307 9.005,.027 18.011,.005 27.016-.044 4.216-.023 8.364,.418 12.564,.687 4.654,.297 9.362,.109 14.024,.109 10.5,.043 20.87,.793 31.3,.793"/>
<path fill="#fcd8d0" d="m328.08,5.567c2.197,1.099 4.639,1.323 6.855,2.293 2.097,.917 4.026,2.546 5.986,3.735 2.083,1.264 3.643,3.139 5.456,4.727 2.079,1.821 2.217,3.544 3.145,6.006 2.033,5.398 4.745,10.796 6.006,16.443 .489,2.187 1.228,4.57 1.418,6.794 .113,1.331-.274,4.198 1.134,5.001-18.536,0-37.078-.193-55.614-.027-9.03,.081-18.037,.839-27.064,1.026-9.214,.191-18.432-.243-27.646-.25-18.347-.015-36.646,.087-54.98,.792-18.442,.71-36.876-.66-55.324,.199-8.555,.399-17.089,.41-25.647,.538-4.155,.062-8.278,.721-12.435,.721-4.518,0-9.083-.141-13.538,.75 2.059-8.234 5.51-16.098 9.42-23.606 1.95-3.744 4.247-7.247 6.507-10.804 2.045-3.219 3.818-6.988 7.109-9.143 3.054-1.999 7.106-1.5 10.583-2.137 4.49-.824 8.883-.81 13.424-1.073 9.123-.529 18.209-1.25 27.342-1.654 18.114-.803 36.232-1.833 54.359-1.833 4.08,0 8.191,.445 12.267,.217 4.598-.257 9.005-1.027 13.653-.981 9.282,.091 18.568,.014 27.851,.014 5.106,0 10.224,.106 15.328-.035 4.783-.132 9.547,.898 14.341,.939 10.04,.09 20.01,1.348 30.05,1.348"/>
<path fill="#010101" d="m268.08,16.067c2.929-.29 4.146,2.646 5.889,4.389 1.888,1.888 1.805,6.125 1.305,8.556-.773,3.76-3.931,3.733-7.137,3.604-3.638-.146-6.667,.802-10.286-.259-1.68-.492-1.809-.365-3.045,.687-.796,.677-3.534,.607-4.597,.781-1.836,.301-3.701,.243-5.554,.243-2.028,0-3.756-.77-5.838-.735-4.032,.067-7.706,.818-11.621,1.676-3.552,.778-8,1.811-11.585,.962-3.87-.916-7.656-2.584-11.715-2.16-1.614,.168-2.766,1.032-4.252,1.551-.729,.254-1.411,.094-2.145,.249-.959,.202-1.813,.861-2.829,.792-1.667-.112-3.066-1.483-4.828-1.642-1.842-.167-3.477,.174-5.278,.447-3.7,.56-8.127,1.815-11.696,.199-1.169-.529-2.876-1.469-3.436-2.711-.519-1.152 .372-2.908 .653-4.011 .777-3.05 1.508-6.751 4.008-8.926 5.692-4.952 14.579-.248 21.168-.608 3.22-.176 6.349-1.038 9.551-1.379 3.311-.353 6.66-.202 9.984-.202 1.357,0 2.682,.453 4.042,.314 1.511-.155 3.016-.717 4.5-1.032 3.146-.668 6.085-.826 9.259-.309 1.253,.204 2.846,.003 3.973,.636 1.106,.622 1.936,1.489 3.299,.884 3.175-1.409 5.474-2.041 9.032-2.024 3.185,.014 6.158,.604 9.305,.874 3.66,.308 6.38-.059 9.92-.846"/>
<path fill="#fff1e4" d="m270.33,18.317c1.032,1.549 2.46,2.944 2.925,4.803 .591,2.356 .35,4.823 .825,7.197-.687-.145-1.211,.371-1.793,.605-.956,.387-2.074,.23-3.071,.171-2.281-.135-4.596-.027-6.88-.027-2.076,0-4.219-.524-6.281-.241-2.543,.349-4.943,.937-7.522,1.005-2.229,.059-4.561,.437-6.782,.161-2.315-.287-4.17-.989-6.523-.5-5.12,1.063-10.217,2.5-15.416,3.134-2.201,.269-4.553,.301-6.695-.347-1.988-.601-3.753-1.82-5.793-2.261-2.312-.5-4.527,.067-6.732,.744-1.406,.432-4.467,2.38-5.825,1.95-1.102-.348-2.202-1.352-3.365-1.435-2.662-.19-5.263,.261-7.898,.541-4.312,.457-8.95,.735-12.921-1.251 1.322-.753 .74-2.818 .861-4.033 .198-1.993 1.538-4.418 2.76-5.961 2.285-2.883 6.855-3.28 10.235-2.886 1.742,.204 3.372,.86 5.108,1.097 2.357,.322 4.746,.141 7.088-.209 4.701-.705 9.405-2.131 14.204-1.653 2.212,.22 4.271,1.259 6.519,.939 2.63-.374 5.058-1.505 7.73-1.733 2.621-.223 5.428-.084 8.043,.176 2.112,.21 4.544,1.84 6.656,1.173 .759-.24 1.388-.744 2.142-.994 1.065-.354 2.299-.172 3.402-.391 2.839-.565 5.016-.396 7.855,.118 5.63,1.023 11.46,.624 17.13,.108"/>
<path fill="#fcd8d0" d="m359.58,52.817c2.732,1.366 6.95,2.4 8.016,5.692 .853,2.635-1.361,7.393-2.473,9.746-1.65,3.496-4.165,6.422-6.299,9.608-1.04,1.554-1.713,3.306-2.686,4.897-1.061,1.735-2.632,3.204-4.1,4.593-2.494,2.359-5.288,4.463-8.447,5.845-1.58,.691-3.243,1.192-4.948,1.454-2.13,.328-3.404,.7-5.313,1.665-.268,.135-.697-.128-.888,.066-.428,.436-.477,1.156-.859,1.636-.967,1.214-2.892,1.511-4.333,1.56-1.673,.056-3.333-.199-5.003-.241-2.074-.051-3.286-.849-5.167-1.555-3.67-1.377-7.768-1.619-11.649-1.634-2.115-.008-4.229,.07-6.345,.122-1.739,.043-3.687-.237-5.09,1.018-1.101,.984-2.018,2.363-3.524,2.754-1.56,.405-3.195,.023-4.775,.023-4.563,0-9.159-.181-13.718,.041-4.165,.203-8.217,.913-12.405,.84-4.641-.081-9.276-.131-13.919-.131-2.019,0-4.077,.115-6.092-.033-1.044-.076-2.707,1.045-3.5,.585-2.85-1.653-6.078-3.042-9.289-4.093-2.643-.865-5.631-.922-8.386-.954-1.339-.016-2.28,.302-3.551,.627-1.448,.371-2.968-.147-4.435,.201-1.105,.263-1.936,1.12-3.043,1.358-1.507,.324-2.443,.536-3.879,1.203-2.552,1.188-5.862,.184-8.569,.379-1.254,.091-2.41,.518-3.641,.725-1.428,.24-2.882-.083-4.298,.302-1.976,.537-.841,.955 .358,1.071 4.375,.423 8.864,.128 13.25,.128-1.54,1.76-2.944,3.762-4.58,5.424-1.609,1.636-5.291,.576-7.342,.576-1.274,0-2.559-.211-3.828,0-1.61,.268-2.953,.75-4.618,.75-3.084,0-6.288-.249-9.359,.05-2.675,.261-4.875,.616-7.58,.308-2.429-.277-5.392,.172-7.713-.543-1.524-.47-1.864-2.746-3.553-2.751-1.862-.005-2.746-1.882-3.927-3.063h6.398c.816,0 2.469,.524 3.081-.261 1.636-2.099-2.864-2.099-3.791-2.144-2.059-.101-3.992-.422-6.016-.599-1.911-.167-3.843,.232-5.725-.252-2.292-.59-4.324-1.27-6.735-1.197-3.715,.112-7.738,.769-11.28,1.905-1.699,.545-3.371,1.232-4.908,2.142-1.093,.646-2.955,2.848-4.344,2.294-2.318-.924-3.652-4.459-5.456-6.102-1.197-1.09-2.614-1.619-4.206-1.819-2.444-.308-4.207-.972-6.203-2.451-6.553-4.855-11.671-10.896-15.908-17.841-2.462-4.037-6.834-9.988-5.629-14.995 .706-2.934 3.588-3.955 6.179-4.722 4.062-1.203 7.664-1 11.831-1.147 4.021-.143 7.911-.812 11.97-.812h14.555c18.363,0 36.701,.918 55.064,.643 18.486-.277 36.977-.354 55.464-.515 9.011-.078 18.125,.265 27.11-.451 9.082-.724 18.295-.987 27.405-1.282 18.224-.591 36.507-.644 54.744-.644 5.99,.005 11.96,.005 17.92,.005"/>
<path fill="#010101" d="m259.83,58.067c.904,1.809-.325,2.192-1.199,3.58-.846,1.341-.108,3.175 .719,4.344 1.726,2.44 5.291,2.556 7.985,2.574 1.325,.008 2.796-.6 3.715-1.613 .911-1.004 .666-2.557 1.188-3.733 1.02-2.29-1.094-1.611-1.241-3.138-.115-1.186 1.852-.935 1.583-2.015 2.587,1.293 3.533,4.475 6.155,5.714 3.446,1.63 7.856,.255 11.498,.353 4.199,.113 8.408,.303 12.604-.003 4.53-.331 9.048-.935 13.598-.924 4.096,.01 8.193,.012 12.285,.209 4.338,.21 8.607-.85 12.938-.85h6.333c1.04,0 2.667-.672 3.533,.194 2.656,2.656 2.364,6.46 .896,9.643-1.477,3.201-3.265,6.472-5.447,9.247-2.467,3.137-6.056,5.458-9.211,7.851-2.003,1.519-6.244,4.012-8.898,3.184-.473-.147-.677-.529-1.078-.765-.597-.35-1.851-.103-2.506-.103-2.497,0-4.995,.003-7.493-.002-9.095-.021-18.203-.268-27.296-.066-8.977,.199-17.904,1.121-26.892,.995-8.989-.125-17.976-.441-26.966-.187-8.995,.254-17.971,.719-26.973,.767-18.249,.096-36.477,1.724-54.72,1.676-4.358-.011-8.722-.279-13.08-.123-4.744,.17-9.465,.67-14.215,.727-4.328,.051-8.673,.032-13-.095-2.101-.062-4.221-.172-6.315,.06-1.996,.221-2.752,1.198-4.182-.677-1.964-2.576-4.327-4.75-6.395-7.247-2.575-3.11-4.483-6.444-6.028-10.161-1.198-2.881-2.397-6.152-.132-8.824 2.211-2.608 5.506-3.318 8.663-4.135 3.894-1.007 7.889-1.092 11.887-1.094 1.933-.001 3.832-.382 5.74-.644 2.09-.287 4.111,.531 6.191,.531 9.182,0 18.344,.75 27.527,.75 1.938,0 3.884-.051 5.82,.029 1.479,.061 2.86-.567 4.295-.842 2.471-.475 4.454-4.337 7.164-3.654 1.017,.257-2.168,2.543-2.479,2.75-2.747,1.826 1.085,4.928 3.127,5.381 3.504,.778 6.945,1.208 10.541,1.01 1.353-.075 2.385-.66 2.535-2.101 .104-1.003 2.179-2.705 1.289-3.677-.347-.379-2.389-1.637-.741-2.052 1.475-.372 2.246,1.184 3.11,1.985 2.402,2.228 6.361,2.941 9.537,2.821 2.047-.078 3.999-.752 6.037-.878 2.005-.124 4.034-.021 6.041-.021h27.403c4.37,0 9.35,.665 13.641-.194 1.049-.209 2.104-.558 3.185-.522 1.112,.037 2.483,.374 3.366-.526 1.72-1.75 1.97-4.312 4.36-5.509"/>
</g>
<g fill="#fcd8d0">
<path d="m164.58,68.567c.66,1.319 1.852,1.505 2.983,2.261 1.268,.847 2.19,1.968 3.769,2.25 3.091,.552 7.306,.434 9.976-1.105 1.376-.793 3.001-.97 4.495-1.437 1.334-.417 2.312-1.367 3.747-1.396 3.875-.078 7.806,.177 11.692,.177 17.567,0 35.22,1.689 52.793,.725 1.806-.099 3.255-.135 4.915,.663 1.797,.862 3.551,1.621 5.568,1.756 3.074,.207 6.607-.441 9.399-1.654 1.581-.687 2.291-1.406 3.537-2.503 1.179-1.037 2.907,.263 4.306,.263h14.373c8.946,0 18.138-.639 27.057-.094 1.773,.108 2.565,7.025 2.826,8.286 .871,4.207 .705,8.556 1.312,12.808-4.308,0-8.598,.422-12.896,.633-4.699,.231-9.405-.156-14.104,.117-8.969,.522-17.829,.75-26.818,.75-9.252,0-18.483,.763-27.737,.673-9.24-.09-18.448-.028-27.672,.551-9.234,.579-18.435,.151-27.672,.084-8.913-.065-17.799,.878-26.709,.985-9.025,.108-18.059,.021-27.084-.053-8.947-.073-17.733,.259-26.662,.714-.929,.047-2.42,.548-2.456-.76-.028-1.01 .231-2.034 .449-3.013 .785-3.531 1.11-7.148 2.025-10.654 1.208-4.625 2.97-12.928 8.938-12.93 7.188-.002 14.384,.819 21.546,1.254 3.585,.218 7.43,1.039 11.014,.588 3.929-.494 7.744-1.228 11.587-2.189-.261,1.047 .673,.273 .836,.966 .13,.605-.51,1.527 .65,1.284"/>
<path d="m112.83,67.817c-1.061,1.415-2.089,2.862-2.939,4.416-1.079,1.971-1.2,4.25-1.9,6.35-1.345,4.036-2.661,8.186-2.661,12.484-6.495-3.246-10.05-12.349-6.852-18.959 2.422-4.991 9.782-4.291 14.352-4.291"/>
<path d="m346.83,70.067c.215,.431 1.3,1.634 .426,1.99-.691,.281 .818,1.672 .844,2.208 .1,2.123-2.573,3.809-3.82,5.198-4.469,4.976-8.798,8.441-15.449,10.104 0-3.826-.235-7.654-.777-11.442-.227-1.583-.27-3.193-.625-4.758-.411-1.809-1.535-3.176-2.348-4.8 7.16,0 15.29-2.815 21.76,1.5"/>
</g>
<g fill="#fffdeb">
<path d="m321.33,104.57c2.814,1.407 2.979,4.47 4.564,6.847 2.257,3.386 3.985,7.208 5.153,11.102 1.831,6.104 3.677,16.663-2.726,20.944-6.142,4.106-14.428,2.553-21.105,4.658-1.893,.596-2.92,.57-4.812,.106-1.365-.335-2.777,.044-4.158,.033-1.403-.011-2.367-.898-3.706-1.191-1.833-.401-3.653-.713-5.479-1.158-3.176-.772-6.653-1.213-9.175-3.482-2.485-2.237-4.38-5.144-4.431-8.56-.053-3.53 1.076-6.966 1.931-10.353 .998-3.952 2.182-7.542 4.469-10.947 2.245-3.34 4.496-6.242 7.839-8.515 2.76-1.875 5.073-4.206 8.438-4.948 5.443-1.202 11.113-.403 16.428,1.019 1.72,.45 7.4,1.72 6.79,4.44"/>
<path d="m239.58,106.82c1.997,2.994 3.883,6.538 5.213,9.881 1.383,3.475 1.618,7.119 3.079,10.55 2.128,4.992 3.155,12.468-.701,16.923-2.138,2.469-5.517,3.313-8.3,4.804-1.196,.641-2.256,1.574-3.678,1.047-1.922-.712-3.732-1.529-5.714-2.112-6.938-2.042-15.925-3.744-22.848-.656-3.433,1.531-7.394-.759-10.368-2.415-1.45-.808-1.732-1.888-2.787-3.024-1.123-1.211-2.407-1.962-2.971-3.598-2.259-6.555 .754-14.406 3.585-20.287 1.687-3.505 3.353-7.138 5.801-10.192 1.106-1.379 2.232-2.691 3.815-3.494 1.981-1.005 2.734-2.745 5.107-3.327 3.734-.917 7.322-1.979 11.201-1.709 4.158,.289 8.017,1.613 11.88,3.092 2.8,1.07 5.55,2.38 7.69,4.52"/>
</g>
<g>
<path fill="#010101" d="m223.83,103.07v.75c-1.424-2.497-4.666-.828-6.47,.14-2.733,1.467-6.171,2.322-8.358,4.618-3.336,3.501-3.791,9.427-8.422,11.742 .68-1.357 1.597-2.572 2.431-3.834 1.103-1.669 1.663-3.508 2.471-5.318 1.215-2.722 3.51-4.586 6.045-6.031 2.597-1.48 5.278-3.596 8.299-4.062 1.44-.23 4.49-.26 4.01,1.99"/>
<path fill="#fcd8d0" d="m282.33,106.82c-4.267,0-8.534,.099-12.801-.009-3.962-.1-7.527,.268-11.437,.715-3.606,.413-7.754,.503-11.381,.286-3.46-.208-4.276-3.314-7.132-4.742h23.897c1.305,0 2.468-.75 3.772-.75h19.58l-4.5,4.5"/>
<path fill="#fffdeb" d="m153.33,112.07c4.346,6.084 7.451,13.181 8.115,20.679 .167,1.894 .14,3.795 .138,5.695-.001,1.5 .323,3.402-.447,4.771-1.644,2.923-6.452,4.418-9.312,5.821-1.758,.862-3.35,1.188-5.292,1.3-1.582,.091-3.44,.998-4.964,.268-3.769-1.805-7.175-3.181-11.405-3.317-3.73-.12-8.134-.618-11.766,.43-1.081,.312-2.789,1.31-3.859,.525-1.423-1.043-2.363-1.021-4.022-1.583-5.47-1.854-6.034-9.271-5.164-14.059 .702-3.862 2.315-7.567 3.744-11.205 1.446-3.68 2.999-7.768 5.822-10.632 2.3-2.334 5.282-5.026 8.251-6.445 3.26-1.559 7.414-2.106 10.987-2.341 7.27-.49 15.21,4.12 19.18,10.09"/>
<path fill="#010101" d="m311.58,103.82c-.489,.874-3.222-.03-4.169,.056-1.657,.15-2.887,.895-4.241,1.799-3.165,2.113-6.521,4.019-9.2,6.765-2.737,2.806-4.689,6.269-6.68,9.614-1.19,2-2.099,6.802-4.21,8.016-1.378-2.755 1.035-6.328 2.364-8.63 2.015-3.491 4.258-6.724 6.687-9.94 2.093-2.772 6.132-5.652 9.359-6.944 3.25-1.31 7.03-3.81 10.09-.74"/>
<path fill="#fcd8d0" d="m330.33,103.07v4.5c-.728-.952-1.975-1.226-2.806-2.056-.874-.875-1.158-2.121-1.694-3.194 1.5,.25 3,.5 4.5,.75"/>
<path fill="#010101" d="m135.33,106.07c-5.421,0-10.713,2.382-14.49,6.237-1.936,1.976-3.363,4.346-4.86,6.652-1.493,2.3-1.94,5.401-3.899,7.36 0-1.371 1.091-2.938 1.459-4.255 .588-2.101 1.465-4.126 2.27-6.154 1.367-3.443 5.25-6.24 8.328-8.114 1.19-.73 12.22-6.61 11.19-1.73"/>
<path fill="#fcd8d0" d="m280.83,109.07c-6.552,8.735-14.362,22.603-5.958,32.67 5.1,6.109 13.062,7.212 20.338,9.094 7.703,1.992 15.8,.388 23.475-.983 6.303-1.127 14.769-3.091 17.69-9.414 3.182-6.887 2.709-14.515-.145-21.425-.689-1.668-1.562-3.221-2.389-4.819-.439-.85-1.926-2.377-1.991-3.302-.035-.488 3.045-.418 3.414-.436 2.141-.101 3.701,.425 5.282,1.909 6.079,5.703 9.855,12.541 13.049,20.138 1.551,3.691 2.564,7.602 3.863,11.385 1.506,4.385 3.194,8.689 4.83,13.025 3.02,8.002 5.305,16.461 6.855,24.873 1.175,6.375 2.851,16.34-2.348,21.363-4.967,4.799-11.97,7.101-18.497,8.852-1.94,.521-3.913,.909-5.883,1.304-1.943,.389-3.95,.056-5.889,.496-1.858,.422-3.762,.078-5.641,.22-2.349,.177-4.656,.718-7.011,.834-8.902,.438-17.812-.032-26.719-.032-1.74,0-1.827-2.742-2.362-4.206-.132-.36-.951-2.223-.336-2.493 1.68-.739 4.944-.051 6.773-.051 8.378,0 16.542-.747 24.862-1.726 4.953-.583 9.872-1.71 14.842-2.001 4.828-.283 10.006-2.36 14.416-4.309 3.997-1.767 7.9-4.149 10.615-7.644 3.394-4.367 2.7-8.891 .361-13.571-.84,1.681-.604,3.584-.599,5.394 .005,2.196-.729,4.203-1.671,6.16-1.796,3.729-5.303,6.05-8.993,7.617-7.863,3.34-16.94,5.489-25.472,6.283-2.301,.215-4.63,.589-6.919,.751-2.305,.163-4.612-.232-6.92-.192-2.219,.038-4.232,.912-6.431,1.037-2.294,.132-4.619-.05-6.916-.05-2.042,0-4.535-.417-6.454,.378-1.814,.751-2.987-.619-4.707-.335-1.806,.298-2.945,4.186-.669,3.707-1.539,3.074-4.766,5.658-8.441,4.723-3.979-1.014-5.478-5.716-4.309-9.223-4.208,0-8.376,.75-12.585,.75h-96.938c-1.162,0-1.91-.294-2.804,.546-.642,.603-1.984-.405-2.501,.488-.568,.98-.156,2.442-.771,3.565-.805,1.473-2.147,2.759-3.694,3.426-2.928,1.265-6.125,.159-8.558-1.39-.559-.356-1.202-.688-1.6-1.241-.079-.11-.646-1.59-.083-1.473 .608,.127 1.93-2.072 1.873-2.667-.191-1.99-6.419-1.255-7.314-1.255-4.456,0-8.918,.248-13.372,.126-4.257-.117-8.488-.719-12.748-.843-4.507-.132-8.826-.236-13.312-.687-3.229-.325-6.515,.102-9.76-.118-2.579-.174-5.491-.594-7.495-2.213-2.382-1.924-4.45-3.332-6.299-5.879-2.131-2.934-2.659-5.663-3.222-9.172-.511-3.191-.032-6.749-1.171-9.811-.766-2.058-.994,1.258-.962,1.848 .136,2.547-.686,4.853-.686,7.368 0,5.612 3.004,13.229 7.881,16.283 .96,.602 1.364,1.42 2.551,1.779 1.631,.493 3.386,.643 5.054,.975 3.577,.712 7.113,1.665 10.721,2.211 3.782,.572 7.643,.428 11.452,.798 3.93,.383 7.81,.336 11.751,.326 7.091-.019 14.028-.742 21.09-.742-.855,1.71-1.543,3.401-2.212,5.188-.672,1.793-2.098,1.486-3.712,1.688-1.788,.223-3.534,.63-5.344,.382-1.897-.26-3.659-.667-5.588-.652-8.547,.067-16.989,.479-25.499-.571-7.562-.934-15.075-1.438-21.798-5.377-2.536-1.485-4.812-3.005-6.091-5.698-1.516-3.195-1.83-8.133-1.843-11.643-.015-3.985 1-7.979 1.613-11.901 .663-4.244 1.424-8.458 2.405-12.64 1.859-7.932 3.57-15.932 6.283-23.629 1.416-4.019 3.31-7.843 5.016-11.742 1.415-3.232 2.235-6.74 4.098-9.768 1.779-2.892 4.616-5.583 7.824-6.788 1.337-.503 3.393-.67 4.535-1.522 .817-.61 3.277-1.406 4.313-1.325-3.51,7.017-7.322,15.596-6.67,23.594 .527,6.454 4.045,12.531 10.42,14.656-1.865,1.865-4.41,2.922-5.838,5.226-1.949,3.146-3.736,6.387-5.708,9.52-3.459,5.496-6.769,11.592-7.699,18.106-1.758,12.313 18.428,16.639 27.143,16.688 6.984,.038 13.803,1.579 20.755,.005 3.52-.798 6.874-2.389 10.036-4.099 2.992-1.617 5.454-2.763 7.588-5.461 2.059-2.603 1.935-5.519 1.256-8.611-.732-3.336-1.266-6.796-2.449-10.011-1.21-3.288-2.703-6.776-4.452-9.814-1.64-2.848-3.035-6.201-5.382-8.548 2.368,0 4.768-.052 6.897-1.224 2.097-1.155 4.618-1.348 6.576-2.783 1.918-1.405 3.321-3.326 4.766-5.183 1.404-1.805 1.275-3.762 1.257-5.922-.074-9.19-1.441-19.332-8.247-26.138 2.964,0 6.014,.246 8.875-.708 2.306-.77 5.848-.042 8.254-.042 3.15,0 6.231-.303 9.351-.715 3.202-.422 6.312-.035 9.52-.035-3.684,7.365-7.965,16.32-7.48,24.727 .198,3.423 1.031,7.048 3.648,9.459 2.421,2.23 6.378,5.563 9.832,5.563-3.849,5.13-8.55,9.662-11.442,15.458-3.194,6.403-6.162,13.81-4.758,21.081 .582,3.012 2.687,5.044 5.034,6.828 2.565,1.951 4.938,4.325 8.047,5.401 7.066,2.446 15.035,2.978 22.444,2.982 7.133,.005 14.231,.498 21.1-1.709 6.418-2.063 11.607-5.948 14.091-12.461 2.431-6.374-.349-13.354-3.315-19.03-3.256-6.229-7.217-12.069-12.199-17.051 7.086-1.771 12.796-7.18 13.992-14.521 .782-4.799-.791-9.751-1.772-14.417-.982-4.664-3.359-8.842-5.47-13.062 11.52-.28 23.02-.53 34.52-.78"/>
</g>
<g fill="#fffdeb">
<path d="m226.83,150.32c12.527,3.132 20.682,15.487 23.631,27.39 1.535,6.197 1.924,11.81-3.461,16.177-5.954,4.828-12.611,4.959-19.904,5.462-8.496,.588-17.018-.343-25.271-2.405-1.583-.397-2.775-1.653-4.398-2.091-1.559-.421-2.855-1.066-4.097-2.104-3.003-2.514-4.882-5.286-4.925-9.269-.085-7.799 2.663-15.204 7.078-21.56 4.171-6.004 8.958-11.365 16.605-12.208 2.459-.271 5.002-.224 7.476-.319 2.53-.1 4.77,.93 7.27,.93"/>
<path d="m142.08,153.32c5.297,5.297 8.018,12.131 10.403,19.091 1.252,3.655 2.633,7.326 3.003,11.202 .388,4.076-.186,6.21-3.868,8.403-1.472,.877-3.231,1.026-4.645,2.037-1.462,1.047-2.672,1.818-4.414,2.362-1.772,.553-3.579,.929-5.438,.997-2.174,.081-4.276,.793-6.398,.849-1.811,.048-3.53-.665-5.333-.742-1.856-.079-3.698,.188-5.543-.124-1.808-.306-3.679-.62-5.455-1.075-1.867-.479-3.725-1.532-5.66-1.627-.702-.034-1.418-.007-2.111-.148-.587-.121-1.046-.713-1.622-.753-.513-.035-1.137,.243-1.567-.186-.371-.369-.382-.607-1.02-.573-2.745,.147-3.915-4.759-4.344-6.748-1.529-7.077 3.461-14.68 6.409-20.806 3.061-6.362 7.383-12.034 14.222-14.524 3.746-1.364 7.768-1.738 11.722-1.348 3.284,.324 8.611,.854 11.188,3.181 .18,.18 .34,.36 .49,.54"/>
</g>
<g fill="#010101">
<path d="m129.33,153.32c.274,1.205-1.704,.799-2.322,.886-.775,.109-1.539,.369-2.253,.681-.703,.307-1.764,1.432-2.51,1.454-3.232,.096-6.891,4.705-8.689,7.239-2.605,3.671-5.2,7.688-7.211,11.713-.248,.497-1.11,5.602-1.701,3.763-.92-2.863 1.623-6.777 2.885-9.217 2.1-4.059 4.614-8.154 7.704-11.547 1.48-1.62 12.26-8.15 14.09-4.96"/>
<path d="m221.58,154.07c-4.021,0-7.893,.571-11.521,2.386-3.515,1.757-5.39,4.946-8.165,7.443-1.21,1.089-1.52,2.801-2.239,4.214-.915,1.796-1.814,3.62-3.072,5.202-1.195,1.505-1.71,2.82-2.097,4.688-.051,.245-.683,2.161-.645,2.208-.045-.211-.048-.425-.011-.641 0,.461 .39,3.148-.301,3.208-1.147,.101-.337-3.838-.219-4.384 .727-3.341 2.302-5.95 3.895-8.907 1.455-2.701 2.564-5.529 4.464-7.973 2.864-3.686 7.441-7.526 12.094-8.619 1.29-.31 8.43-1.69 7.83,1.17"/>
<path d="m354.33,185.57c0,6.613-6.242,11.138-12.014,12.845-3.275,.97-6.657,2.39-10.101,2.352-2.008-.021-3.777,.354-5.741,.696-2.299,.399-4.674,.047-6.98-.089-1.823-.107-3.58,.378-5.365,.65-1.932,.295-3.832,.052-5.748-.253-4.263-.681-8.441-1.953-12.557-3.238-6.442-2.013-15.086-7.128-17.432-13.875-.647-1.861-.461-3.8-.742-5.719-.246-1.685-.632-3.156-.402-4.882 .52-3.906 2.892-6.476 5.856-8.842 6.177-4.927 13.49-7.766 21.137-9.484 14.454-3.248 31.308-2.089 42.261,9.061 5.38,5.48 6.89,13.4 7.81,20.77"/>
</g>
<g fill="#fcd8d0">
<path d="m340.83,166.07c2.366,2.366 5.114,4.574 6.467,7.727 1.393,3.248 1.334,7.062 1.178,10.526-.139,3.085-.215,6.581-2.802,8.726-1.264,1.048-3.173,1.966-4.788,2.262-2.23,.408-4.45-1.159-6.416-2.007-7.837-3.379-15.881-5.206-24.398-3.663-3.754,.681-7.819,1.616-11.398,2.95-3.592,1.339-5.349,2.445-8.923,.198-6.022-3.786-10.364-8.816-8.45-16.283 1.821-7.106 7.515-11.232 13.854-14.121 3.38-1.54 6.815-2.017 10.417-2.757 3.893-.799 7.904-1.156 11.888-1.033 8.6,.25 15.85,3.7 23.37,7.46"/>
<path d="m332.58,196.82c.301,1.203-3.064,.898-3.609,.869-2.714-.147-5.342,.068-8.047,.373-7.023,.792-14.553,1.022-21.344-1.242 2.662-.888 5.253-2.25 8.125-2.25 2.959,0 5.681-1.464 8.676-1.508 2.866-.042 5.812-.205 8.574,.716 1.266,.423 2.684,.098 3.875,.792 1.27,.73 2.46,1.59 3.76,2.25"/>
<path d="m274.83,208.07c-1.117,2.236-1.178,5.986-4.243,6.009-5.636,.042-11.271,.081-16.906,.121-11.468,.081-22.936,.164-34.403,.245l-34.317,.246c-5.888,.041-11.775,.082-17.663,.126-1.858,.013-1.701-5.548-1.967-6.747h109.5"/>
</g>
<g>
<path fill="#010101" d="m89.583,235.07c.57,1.712 1.664,2.699 2.556,4.179 .783,1.3 .8,2.947 1.29,4.36 .638,1.844 1.617,3.552 1.948,5.495 .353,2.076 .26,4.27 .159,6.365-.383,7.909-5.354,13.258-11.751,17.296-3.504,2.212-6.723,3.797-10.785,4.729-1.829,.42-3.611,.973-5.429,1.432-2.028,.513-4.052,.206-6.079,.636-3.771,.799-7.871,1.246-11.719,1.479-4.573,.275-8.981,.695-13.581,.325-3.91-.313-7.638-1.197-11.39-2.286-1.555-.451-2.812-1.541-4.343-2.052-1.725-.574-3.184-.994-4.48-2.335-1.038-1.072-2.479-.98-3.581-2.048-1.376-1.333-2.807-2.607-4.206-3.916-2.751-2.573-5.373-5.153-6.605-8.792-2.61-7.712-1.549-15.264-.028-23.046 .716-3.661 1.361-7.352 3.159-10.667 1.883-3.472 4.652-6.286 7.509-8.963 5.689-5.329 12.273-6.951 19.762-8.344 7.293-1.357 14.673-1.818 21.99-.181 15.1,3.39 25.209,15.95 35.604,26.35"/>
</g>
<g fill="#fcd8d0">
<path d="m151.08,216.32c1.055,0 3.159,1.325 4.068,.556 .896-.759 2.133-.006 2.876-.75 .95-.95 2.33-.775 3.358-1.865 .923-.979 1.99-1.837 3.197-2.44 1.118,3.356-.796,4.627-1.893,7.44-.893,2.29-5.194,2.171-7.169,2.272-3.374,.172-6.983-1.487-9.221-3.979-2.216-2.466-1.863-5.192-.467-7.984 .92,2.79 3.23,4.73 5.24,6.75"/>
<path d="m281.58,216.32c1.647,0 2.601,.2 4.139-.569 1.412-.706 2.983-1.312 4.29-2.201 1.498-1.021 4.522-2.97 4.062,.604-.145,1.113-1.21,1.761-1.249,3.015-.036,1.137-.214,2.323-1.064,3.157-2.129,2.089-5.443,1.994-8.186,1.994-1.12,0-2.169-.835-3.268-1.071-1.146-.246-2.138-.613-2.964-1.482-.603-.635-1.336-1.166-1.783-1.937-.685-1.176 1.09-1.511 .77-2.536-.353-1.13-1.44-1.286-1.527-2.653-.061-.94 1.531-2.059 1.531-.626 0,3.04 4.21,2.49 5.25,4.32"/>
</g>
<g>
<path fill="#fffdeb" d="m88.833,242.57c.865,1.442 2.201,2.721 2.383,4.478 .188,1.823-.101,3.722-.077,5.557 .039,3.076-.899,6.572-3.696,8.259-2.526,1.522-3.071,4.916-5.909,6.076-1.729,.708-3.117,1.994-4.697,2.956-1.833,1.114-3.947,1.636-5.808,2.695-6.908,3.935-15.32,4.112-23.019,5.093-8.079,1.03-16.665,.456-24.354-2.351-12.241-4.469-19.266-17.075-19.084-29.757 .102-7.117 2.411-14.15 6.792-19.785 4.752-6.111 11.378-9.556 18.366-12.5 5.355-2.256 12.114-2.155 17.839-1.55 6.453,.682 12.289,4.01 17.876,7.072 4.666,2.558 8.862,5.773 12.512,9.648 4.062,4.3 8.206,8.76 10.876,14.1"/>
<path fill="#010101" d="m42.333,217.07c-10.639,0-20.483,6.6-25.216,16.066-2.349,4.697-3.284,9.628-3.284,14.84 0,.456 .862,4.621 .245,4.507-.888-.165-1.35-2.556-1.542-3.237-1.111-3.936 .15-8.486 1.6-12.18 2.084-5.31 4.034-10.001 8.58-13.632 4.083-3.261 8.132-5.37 13.084-7.054 1.267-.44 7.17-2.35 6.533,.68"/>
</g>
<g fill="#fcd8d0">
<path d="m125.58,220.82c6.125,3.063 13.157,5.253 17.722,10.659 1.462,1.73 5.152,5.415 2.155,7.3-2.866,1.802-6.893,1.634-10.107,2.507-6.762,1.837-16.245,1.185-22.283-2.47-6.815-4.125-9.57-11.913-12.986-18.746h6.542c2.038,0 3.988,.75 6.026,.75h12.93"/>
<path d="m236.58,228.32c1.432,1.432 3.468,2.861 3.537,5.095 .07,2.262-1.48,4.809-3.558,5.731-2.487,1.106-5.121,1.026-7.771,1.092-3.191,.08-6.261,.982-9.475,.833-5.771-.27-11.292-1.92-15.947-5.411-.843-.633-1.888-1.039-2.58-1.859-.773-.917-1.098-2.102-1.684-3.128-1.634-2.86-3.446-5.613-5.272-8.353 1.695-.565 3.496-.536 5.25-.75 1.877-.228 3.72-.75 5.621-.75 3.769,0 7.547-.436 11.311-.064 1.615,.159 3.054,.646 4.564,1.209 1.758,.655 3.609,.115 5.313,.762 3.78,1.43 7.34,3.35 10.69,5.59"/>
<path d="m322.08,224.57c3.386,1.13 6.51,4.371 8.523,7.208 .816,1.149 1.88,2.562 1.879,4.044-.001,1.886-2.789,3.111-4.247,3.709-8.05,3.301-18.401,3.488-26.378,.001-3.411-1.491-4.875-4.096-6.402-7.269-.617-1.283-1.323-2.587-1.721-3.961-.383-1.325 2.474-2.139 3.361-2.79 1.468-1.077 2.106-3.156 3.966-3.718 1.594-.48 4.228-1.21 5.799-.688 2.403,.797 4.947,.221 7.415,.824 2.67,.66 5.2,1.78 7.8,2.65"/>
</g>
</g>
</svg>
