<svg xmlns="http://www.w3.org/2000/svg" viewBox="0 0 147.85 388.01" xmlns:xlink="http://www.w3.org/1999/xlink">
<defs>
<linearGradient gradientTransform="matrix(.35269 0 0 .44654 -17.203 44.481)" id="linearGradient6434" y1="583.67" y2="796.87" x1="368.26" gradientUnits="userSpaceOnUse" x2="370.02">
<stop offset="0" stop-color="#808000"/>
<stop offset="1" stop-color="#808000" stop-opacity="0"/>
</linearGradient>
</defs>
<g fill="#008000" transform="translate(-13.746 -13.406)">
<path d="m83.919,89.1 .8064-10.785 1.1539,90.841 .4258,15.471 .1577,86.715-.2568,13.847-.3267,41.667h-4.67l-1.2774-79.123 .9016-16.281z"/>
<path d="m81.763,235.66c26.984-31.044 63.633-68.385 79.829-14.764-13.495-56.284-30.811-31.428-76.694,26.047z"/>
<path d="m85.206,156.07c-19.776-31.04-37.231-60.796-52.675-22.02 15.458-27.402 16.268-35.186 50.377,27.184z"/>
<path d="m83.753,118.08c14.297-21.43 26.217-60.975 49.957-40.543-20.61-10.467-25.44,2.538-48.779,45.273z"/>
</g>
<g transform="matrix(.13257 0 0 .27277 35.90913 52.19994)">
<path fill="none" stroke="#808000" stroke-width="2.166" d="m261.47,60.418c2.5378-8.5208 14.397-42.685 17.277-50.479 66.78-180.71 220.54-170.3 223.34-170.1"/>
</g>
<g fill="#89a02c" transform="matrix(.13257 0 0 .27277 35.90913 52.19994)">
<path d="m298.57-13.237c9.8272-3.8503 18.603-4.9062 19.601-2.3584 .9983,2.5478-6.1591,7.7345-15.986,11.585-9.8272,3.8503-18.603,4.9062-19.601,2.3584-.9982-2.5478 6.1591-7.7345 15.986-11.585z"/>
<path d="m311.42-39.525c9.8272-3.8503 18.603-4.9062 19.601-2.3584 .9982,2.5478-6.1591,7.7345-15.986,11.585-9.8272,3.8503-18.603,4.9062-19.601,2.3584-.9982-2.5478 6.1591-7.7345 15.986-11.585z"/>
<path d="m323.78-62.061c9.8272-3.8503 18.603-4.9062 19.601-2.3584 .9983,2.5478-6.1591,7.7345-15.986,11.585-9.8272,3.8503-18.603,4.9062-19.601,2.3584-.9982-2.5478 6.1591-7.7345 15.986-11.585z"/>
<path d="m345.83-85.65c10.29-2.3485 19.125-2.0897 19.734,.5781 .6089,2.6678-7.2392,6.7343-17.529,9.0828s-19.125,2.0897-19.734-.5781c-.6089-2.6678 7.2392-6.7343 17.529-9.0828z"/>
<path d="m366.32-106.07c10.45-1.485 19.233-.4927 19.618,2.2165 .385,2.7092-7.7739,6.1092-18.224,7.5942s-19.233,.4927-19.618-2.2165c-.385-2.7092 7.774-6.1092 18.224-7.5942z"/>
<path d="m392.82-125.63c10.544-.4617 19.19,1.3802 19.309,4.1139 .1197,2.7338-8.3313,5.3242-18.876,5.7859-10.544,.4617-19.19-1.3802-19.309-4.1139-.1197-2.7338 8.3313-5.3242 18.876-5.7859z"/>
<path d="m428.48-144.91c10.551,.2865 19.043,2.7362 18.969,5.4716-.0743,2.7354-8.6875,4.7206-19.238,4.4341-10.551-.2865-19.043-2.7362-18.969-5.4716 .0743-2.7354 8.6875-4.7206 19.238-4.4341z"/>
<path d="m471.61-156.35c10.372,1.957 18.368,5.7232 17.861,8.4121-.5073,2.689-9.3265,3.2823-19.698,1.3254-10.372-1.957-18.368-5.7232-17.861-8.4121 .5074-2.6889 9.3265-3.2823 19.698-1.3253z"/>
<path d="m507.95-165.14c10.553,.1926 19.067,2.5666 19.017,5.3025-.0499,2.7359-8.6451,4.7977-19.198,4.6052-10.553-.1925-19.067-2.5666-19.017-5.3025 .0499-2.7359 8.6452-4.7977 19.198-4.6052z"/>
<path d="m287.88-36.26c-3.5396-9.9434-8.4988-17.26-11.077-16.343-2.5779,.9176-1.7984,9.7223 1.7412,19.666 3.5396,9.9434 8.4988,17.26 11.077,16.343 2.5779-.9177 1.7983-9.7223-1.7412-19.666z"/>
<path d="m305.18-58.425c1.0052,10.507-.3881,19.235-3.112,19.496-2.724,.2606-5.747-8.0454-6.7523-18.552-1.0052-10.507 .3881-19.235 3.112-19.496 2.7239-.2606 5.747,8.0454 6.7522,18.552z"/>
<path d="m322.49-84.401c.4695,10.544-1.3659,19.191-4.0996,19.312-2.7336,.1218-5.3304-8.3273-5.7999-18.871-.4696-10.544 1.3659-19.191 4.0996-19.312 2.7337-.1217 5.3303,8.3273 5.7999,18.872z"/>
<path d="m344.11-108.6c-.9249,10.514-3.8844,18.843-6.6103,18.603-2.7258-.2398-4.1858-8.9574-3.2608-19.471 .9249-10.514 3.8844-18.843 6.6103-18.603 2.7258,.2398 4.1857,8.9575 3.2608,19.471z"/>
<path d="m371.05-128.46c-2.3033,10.3-6.3353,18.166-9.0058,17.569-2.6704-.5971-2.968-9.4312-.6647-19.731s6.3353-18.166 9.0058-17.569c2.6704,.5972 2.968,9.4312 .6647,19.731z"/>
<path d="m409.12-147.79c-5.0704,9.2569-11.126,15.695-13.526,14.381-2.4-1.3146-.2351-9.8844 4.8354-19.141 5.0704-9.2569 11.126-15.695 13.526-14.381 2.3999,1.3146 .235,9.8845-4.8354,19.141z"/>
<path d="m448.49-161.58c-7.1162,7.7948-14.523,12.618-16.544,10.773-2.0209-1.8449 2.1097-9.6595 9.2259-17.454 7.1162-7.7948 14.523-12.618 16.544-10.773 2.0209,1.845-2.1098,9.6595-9.226,17.454z"/>
<path d="m486.95-172.49c-5.8682,8.773-12.469,14.652-14.744,13.13-2.2745-1.5214 .6388-9.8666 6.5069-18.639 5.8682-8.773 12.469-14.652 14.744-13.13 2.2744,1.5214-.6389,9.8666-6.507,18.64z"/>
</g>
<g transform="matrix(.07956 .05869 -.04209 .17993 52.74647 38.73933)">
<path fill="none" stroke="#808000" stroke-width="2.166" d="m261.47,60.418c2.5378-8.5208 14.397-42.685 17.277-50.479 66.78-180.71 220.54-170.3 223.34-170.1"/>
</g>
<g fill="#89a02c" transform="matrix(.07956 .05869 -.04209 .17993 52.74647 38.73933)">
<path d="m298.57-13.237c9.8272-3.8503 18.603-4.9062 19.601-2.3584 .9983,2.5478-6.1591,7.7345-15.986,11.585-9.8272,3.8503-18.603,4.9062-19.601,2.3584-.9982-2.5478 6.1591-7.7345 15.986-11.585z"/>
<path d="m311.42-39.525c9.8272-3.8503 18.603-4.9062 19.601-2.3584 .9982,2.5478-6.1591,7.7345-15.986,11.585-9.8272,3.8503-18.603,4.9062-19.601,2.3584-.9982-2.5478 6.1591-7.7345 15.986-11.585z"/>
<path d="m323.78-62.061c9.8272-3.8503 18.603-4.9062 19.601-2.3584 .9983,2.5478-6.1591,7.7345-15.986,11.585-9.8272,3.8503-18.603,4.9062-19.601,2.3584-.9982-2.5478 6.1591-7.7345 15.986-11.585z"/>
<path d="m345.83-85.65c10.29-2.3485 19.125-2.0897 19.734,.5781 .6089,2.6678-7.2392,6.7343-17.529,9.0828s-19.125,2.0897-19.734-.5781c-.6089-2.6678 7.2392-6.7343 17.529-9.0828z"/>
<path d="m366.32-106.07c10.45-1.485 19.233-.4927 19.618,2.2165 .385,2.7092-7.7739,6.1092-18.224,7.5942s-19.233,.4927-19.618-2.2165c-.385-2.7092 7.774-6.1092 18.224-7.5942z"/>
<path d="m392.82-125.63c10.544-.4617 19.19,1.3802 19.309,4.1139 .1197,2.7338-8.3313,5.3242-18.876,5.7859-10.544,.4617-19.19-1.3802-19.309-4.1139-.1197-2.7338 8.3313-5.3242 18.876-5.7859z"/>
<path d="m428.48-144.91c10.551,.2865 19.043,2.7362 18.969,5.4716-.0743,2.7354-8.6875,4.7206-19.238,4.4341-10.551-.2865-19.043-2.7362-18.969-5.4716 .0743-2.7354 8.6875-4.7206 19.238-4.4341z"/>
<path d="m471.61-156.35c10.372,1.957 18.368,5.7232 17.861,8.4121-.5073,2.689-9.3265,3.2823-19.698,1.3254-10.372-1.957-18.368-5.7232-17.861-8.4121 .5074-2.6889 9.3265-3.2823 19.698-1.3253z"/>
<path d="m507.95-165.14c10.553,.1926 19.067,2.5666 19.017,5.3025-.0499,2.7359-8.6451,4.7977-19.198,4.6052-10.553-.1925-19.067-2.5666-19.017-5.3025 .0499-2.7359 8.6452-4.7977 19.198-4.6052z"/>
<path d="m287.88-36.26c-3.5396-9.9434-8.4988-17.26-11.077-16.343-2.5779,.9176-1.7984,9.7223 1.7412,19.666 3.5396,9.9434 8.4988,17.26 11.077,16.343 2.5779-.9177 1.7983-9.7223-1.7412-19.666z"/>
<path d="m305.18-58.425c1.0052,10.507-.3881,19.235-3.112,19.496-2.724,.2606-5.747-8.0454-6.7523-18.552-1.0052-10.507 .3881-19.235 3.112-19.496 2.7239-.2606 5.747,8.0454 6.7522,18.552z"/>
<path d="m322.49-84.401c.4695,10.544-1.3659,19.191-4.0996,19.312-2.7336,.1218-5.3304-8.3273-5.7999-18.871-.4696-10.544 1.3659-19.191 4.0996-19.312 2.7337-.1217 5.3303,8.3273 5.7999,18.872z"/>
<path d="m344.11-108.6c-.9249,10.514-3.8844,18.843-6.6103,18.603-2.7258-.2398-4.1858-8.9574-3.2608-19.471 .9249-10.514 3.8844-18.843 6.6103-18.603 2.7258,.2398 4.1857,8.9575 3.2608,19.471z"/>
<path d="m371.05-128.46c-2.3033,10.3-6.3353,18.166-9.0058,17.569-2.6704-.5971-2.968-9.4312-.6647-19.731s6.3353-18.166 9.0058-17.569c2.6704,.5972 2.968,9.4312 .6647,19.731z"/>
<path d="m409.12-147.79c-5.0704,9.2569-11.126,15.695-13.526,14.381-2.4-1.3146-.2351-9.8844 4.8354-19.141 5.0704-9.2569 11.126-15.695 13.526-14.381 2.3999,1.3146 .235,9.8845-4.8354,19.141z"/>
<path d="m448.49-161.58c-7.1162,7.7948-14.523,12.618-16.544,10.773-2.0209-1.8449 2.1097-9.6595 9.2259-17.454 7.1162-7.7948 14.523-12.618 16.544-10.773 2.0209,1.845-2.1098,9.6595-9.226,17.454z"/>
<path d="m486.95-172.49c-5.8682,8.773-12.469,14.652-14.744,13.13-2.2745-1.5214 .6388-9.8666 6.5069-18.639 5.8682-8.773 12.469-14.652 14.744-13.13 2.2744,1.5214-.6389,9.8666-6.507,18.64z"/>
</g>
<g transform="matrix(-.10921 -.03393 -.00872 .23213 99.82708 61.8889)">
<path fill="none" stroke="#808000" stroke-width="2.166" d="m261.47,60.418c2.5378-8.5208 14.397-42.685 17.277-50.479 66.78-180.71 220.54-170.3 223.34-170.1"/>
</g>
<g fill="#89a02c" transform="matrix(-.10921 -.03393 -.00872 .23213 99.82708 61.8889)">
<path d="m298.57-13.237c9.8272-3.8503 18.603-4.9062 19.601-2.3584 .9983,2.5478-6.1591,7.7345-15.986,11.585-9.8272,3.8503-18.603,4.9062-19.601,2.3584-.9982-2.5478 6.1591-7.7345 15.986-11.585z"/>
<path d="m311.42-39.525c9.8272-3.8503 18.603-4.9062 19.601-2.3584 .9982,2.5478-6.1591,7.7345-15.986,11.585-9.8272,3.8503-18.603,4.9062-19.601,2.3584-.9982-2.5478 6.1591-7.7345 15.986-11.585z"/>
<path d="m323.78-62.061c9.8272-3.8503 18.603-4.9062 19.601-2.3584 .9983,2.5478-6.1591,7.7345-15.986,11.585-9.8272,3.8503-18.603,4.9062-19.601,2.3584-.9982-2.5478 6.1591-7.7345 15.986-11.585z"/>
<path d="m345.83-85.65c10.29-2.3485 19.125-2.0897 19.734,.5781 .6089,2.6678-7.2392,6.7343-17.529,9.0828s-19.125,2.0897-19.734-.5781c-.6089-2.6678 7.2392-6.7343 17.529-9.0828z"/>
<path d="m366.32-106.07c10.45-1.485 19.233-.4927 19.618,2.2165 .385,2.7092-7.7739,6.1092-18.224,7.5942s-19.233,.4927-19.618-2.2165c-.385-2.7092 7.774-6.1092 18.224-7.5942z"/>
<path d="m392.82-125.63c10.544-.4617 19.19,1.3802 19.309,4.1139 .1197,2.7338-8.3313,5.3242-18.876,5.7859-10.544,.4617-19.19-1.3802-19.309-4.1139-.1197-2.7338 8.3313-5.3242 18.876-5.7859z"/>
<path d="m428.48-144.91c10.551,.2865 19.043,2.7362 18.969,5.4716-.0743,2.7354-8.6875,4.7206-19.238,4.4341-10.551-.2865-19.043-2.7362-18.969-5.4716 .0743-2.7354 8.6875-4.7206 19.238-4.4341z"/>
<path d="m471.61-156.35c10.372,1.957 18.368,5.7232 17.861,8.4121-.5073,2.689-9.3265,3.2823-19.698,1.3254-10.372-1.957-18.368-5.7232-17.861-8.4121 .5074-2.6889 9.3265-3.2823 19.698-1.3253z"/>
<path d="m507.95-165.14c10.553,.1926 19.067,2.5666 19.017,5.3025-.0499,2.7359-8.6451,4.7977-19.198,4.6052-10.553-.1925-19.067-2.5666-19.017-5.3025 .0499-2.7359 8.6452-4.7977 19.198-4.6052z"/>
<path d="m287.88-36.26c-3.5396-9.9434-8.4988-17.26-11.077-16.343-2.5779,.9176-1.7984,9.7223 1.7412,19.666 3.5396,9.9434 8.4988,17.26 11.077,16.343 2.5779-.9177 1.7983-9.7223-1.7412-19.666z"/>
<path d="m305.18-58.425c1.0052,10.507-.3881,19.235-3.112,19.496-2.724,.2606-5.747-8.0454-6.7523-18.552-1.0052-10.507 .3881-19.235 3.112-19.496 2.7239-.2606 5.747,8.0454 6.7522,18.552z"/>
<path d="m322.49-84.401c.4695,10.544-1.3659,19.191-4.0996,19.312-2.7336,.1218-5.3304-8.3273-5.7999-18.871-.4696-10.544 1.3659-19.191 4.0996-19.312 2.7337-.1217 5.3303,8.3273 5.7999,18.872z"/>
<path d="m344.11-108.6c-.9249,10.514-3.8844,18.843-6.6103,18.603-2.7258-.2398-4.1858-8.9574-3.2608-19.471 .9249-10.514 3.8844-18.843 6.6103-18.603 2.7258,.2398 4.1857,8.9575 3.2608,19.471z"/>
<path d="m371.05-128.46c-2.3033,10.3-6.3353,18.166-9.0058,17.569-2.6704-.5971-2.968-9.4312-.6647-19.731s6.3353-18.166 9.0058-17.569c2.6704,.5972 2.968,9.4312 .6647,19.731z"/>
<path d="m409.12-147.79c-5.0704,9.2569-11.126,15.695-13.526,14.381-2.4-1.3146-.2351-9.8844 4.8354-19.141 5.0704-9.2569 11.126-15.695 13.526-14.381 2.3999,1.3146 .235,9.8845-4.8354,19.141z"/>
<path d="m448.49-161.58c-7.1162,7.7948-14.523,12.618-16.544,10.773-2.0209-1.8449 2.1097-9.6595 9.2259-17.454 7.1162-7.7948 14.523-12.618 16.544-10.773 2.0209,1.845-2.1098,9.6595-9.226,17.454z"/>
<path d="m486.95-172.49c-5.8682,8.773-12.469,14.652-14.744,13.13-2.2745-1.5214 .6388-9.8666 6.5069-18.639 5.8682-8.773 12.469-14.652 14.744-13.13 2.2744,1.5214-.6389,9.8666-6.507,18.64z"/>
</g>
<g transform="matrix(-.04917 -.04751 -.01428 .16358 83.91261 62.4245)">
<path fill="none" stroke="#808000" stroke-width="2.166" d="m261.47,60.418c2.5378-8.5208 14.397-42.685 17.277-50.479 66.78-180.71 220.54-170.3 223.34-170.1"/>
</g>
<g fill="#89a02c" transform="matrix(-.04917 -.04751 -.01428 .16358 83.91261 62.4245)">
<path d="m298.57-13.237c9.8272-3.8503 18.603-4.9062 19.601-2.3584 .9983,2.5478-6.1591,7.7345-15.986,11.585-9.8272,3.8503-18.603,4.9062-19.601,2.3584-.9982-2.5478 6.1591-7.7345 15.986-11.585z"/>
<path d="m311.42-39.525c9.8272-3.8503 18.603-4.9062 19.601-2.3584 .9982,2.5478-6.1591,7.7345-15.986,11.585-9.8272,3.8503-18.603,4.9062-19.601,2.3584-.9982-2.5478 6.1591-7.7345 15.986-11.585z"/>
<path d="m323.78-62.061c9.8272-3.8503 18.603-4.9062 19.601-2.3584 .9983,2.5478-6.1591,7.7345-15.986,11.585-9.8272,3.8503-18.603,4.9062-19.601,2.3584-.9982-2.5478 6.1591-7.7345 15.986-11.585z"/>
<path d="m345.83-85.65c10.29-2.3485 19.125-2.0897 19.734,.5781 .6089,2.6678-7.2392,6.7343-17.529,9.0828s-19.125,2.0897-19.734-.5781c-.6089-2.6678 7.2392-6.7343 17.529-9.0828z"/>
<path d="m366.32-106.07c10.45-1.485 19.233-.4927 19.618,2.2165 .385,2.7092-7.7739,6.1092-18.224,7.5942s-19.233,.4927-19.618-2.2165c-.385-2.7092 7.774-6.1092 18.224-7.5942z"/>
<path d="m392.82-125.63c10.544-.4617 19.19,1.3802 19.309,4.1139 .1197,2.7338-8.3313,5.3242-18.876,5.7859-10.544,.4617-19.19-1.3802-19.309-4.1139-.1197-2.7338 8.3313-5.3242 18.876-5.7859z"/>
<path d="m428.48-144.91c10.551,.2865 19.043,2.7362 18.969,5.4716-.0743,2.7354-8.6875,4.7206-19.238,4.4341-10.551-.2865-19.043-2.7362-18.969-5.4716 .0743-2.7354 8.6875-4.7206 19.238-4.4341z"/>
<path d="m471.61-156.35c10.372,1.957 18.368,5.7232 17.861,8.4121-.5073,2.689-9.3265,3.2823-19.698,1.3254-10.372-1.957-18.368-5.7232-17.861-8.4121 .5074-2.6889 9.3265-3.2823 19.698-1.3253z"/>
<path d="m507.95-165.14c10.553,.1926 19.067,2.5666 19.017,5.3025-.0499,2.7359-8.6451,4.7977-19.198,4.6052-10.553-.1925-19.067-2.5666-19.017-5.3025 .0499-2.7359 8.6452-4.7977 19.198-4.6052z"/>
<path d="m287.88-36.26c-3.5396-9.9434-8.4988-17.26-11.077-16.343-2.5779,.9176-1.7984,9.7223 1.7412,19.666 3.5396,9.9434 8.4988,17.26 11.077,16.343 2.5779-.9177 1.7983-9.7223-1.7412-19.666z"/>
<path d="m305.18-58.425c1.0052,10.507-.3881,19.235-3.112,19.496-2.724,.2606-5.747-8.0454-6.7523-18.552-1.0052-10.507 .3881-19.235 3.112-19.496 2.7239-.2606 5.747,8.0454 6.7522,18.552z"/>
<path d="m322.49-84.401c.4695,10.544-1.3659,19.191-4.0996,19.312-2.7336,.1218-5.3304-8.3273-5.7999-18.871-.4696-10.544 1.3659-19.191 4.0996-19.312 2.7337-.1217 5.3303,8.3273 5.7999,18.872z"/>
<path d="m344.11-108.6c-.9249,10.514-3.8844,18.843-6.6103,18.603-2.7258-.2398-4.1858-8.9574-3.2608-19.471 .9249-10.514 3.8844-18.843 6.6103-18.603 2.7258,.2398 4.1857,8.9575 3.2608,19.471z"/>
<path d="m371.05-128.46c-2.3033,10.3-6.3353,18.166-9.0058,17.569-2.6704-.5971-2.968-9.4312-.6647-19.731s6.3353-18.166 9.0058-17.569c2.6704,.5972 2.968,9.4312 .6647,19.731z"/>
<path d="m409.12-147.79c-5.0704,9.2569-11.126,15.695-13.526,14.381-2.4-1.3146-.2351-9.8844 4.8354-19.141 5.0704-9.2569 11.126-15.695 13.526-14.381 2.3999,1.3146 .235,9.8845-4.8354,19.141z"/>
<path d="m448.49-161.58c-7.1162,7.7948-14.523,12.618-16.544,10.773-2.0209-1.8449 2.1097-9.6595 9.2259-17.454 7.1162-7.7948 14.523-12.618 16.544-10.773 2.0209,1.845-2.1098,9.6595-9.226,17.454z"/>
<path d="m486.95-172.49c-5.8682,8.773-12.469,14.652-14.744,13.13-2.2745-1.5214 .6388-9.8666 6.5069-18.639 5.8682-8.773 12.469-14.652 14.744-13.13 2.2744,1.5214-.6389,9.8666-6.507,18.64z"/>
</g>
<g transform="translate(-13.746 -13.406)">
<path fill="#008000" d="m84.509,104.48c-10.259-16.87-18.814-48.009-35.853-31.92 14.79-8.243 17.739,4.479 35.185,35.72z"/>
</g>
<g fill="#008000">
<g transform="matrix(.11049 .04864 -.03842 .13989 6.181 181.644)">
<path d="m809.2,431.65c76.51-69.52 180.42-153.14 226.3-33.06-38.22-126.05-87.32-70.38-217.41,58.33z"/>
<path d="m815.31,103.45 2.2864-24.153 3.2718,203.43 1.2072,34.646 .447,194.19-.7281,31.009-.9262,93.311h-13.241l-3.6217-177.19 2.5563-36.461z"/>
<path d="m818.96,253.43c-56.07-69.52-105.56-136.16-149.35-49.32 43.83-61.36 46.13-78.79 142.84,60.88z"/>
<path d="m814.84,168.34c40.54-47.99 74.34-136.54 141.66-90.789-58.44-23.44-72.14,5.685-138.32,101.38z"/>
<path d="m816.99,137.9c-29.09-37.79-53.35-107.52-101.66-71.495 41.934-18.458 48.814,9.6416 98.277,79.601z"/>
<path d="m815.43,508.02c-174.17-122.06-157.28,1.09-199.08,69.44 19.52-91.92 46.5-195.55 190.19-44.17z"/>
<path d="m817.66,354.91c-60.76-69.52-155.62-153.14-179.75-33.06 30.388-126.05 74.857-49.826 168.58,41.887z"/>
<path d="m809.2,300.1c60.76-69.52 155.61-153.14 179.75-33.06-30.39-126.05-74.86-49.83-168.58,41.88z"/>
<path d="m818.37,104.92c20.58-33.101 46.26-97.896 58.43-56.735-13.92-28.433-24.81,4.09-61.08,65.925z"/>
</g>
<g transform="translate(-13.746 -13.406)">
<path d="m83.961,269.76c-61.428-54.504-55.471,.4866-70.215,31.01 6.8858-41.048 16.4-87.324 67.08-19.727z"/>
<path d="m84.306,87.793c10.191-18.068 24.124-53.963 30.154-31.493-6.89-15.522-12.29,2.233-30.246,35.987z"/>
<path d="m85.619,201.56c-21.43-31.04-54.884-68.38-63.397-14.76 10.718-56.28 26.402-22.25 59.457,18.7z"/>
<path d="m81.763,176.91c21.427-31.04 54.887-68.38 63.397-14.76-10.72-56.28-26.4-22.25-59.458,18.7z"/>
</g>
<g transform="matrix(-.11049 .04864 .03842 .13989 133.704 181.734)">
<path d="m809.2,431.65c76.51-69.52 180.42-153.14 226.3-33.06-38.22-126.05-87.32-70.38-217.41,58.33z"/>
<path d="m815.31,103.45 2.2864-24.153 3.2718,203.43 1.2072,34.646 .447,194.19-.7281,31.009-.9262,93.311h-13.241l-3.6217-177.19 2.5563-36.461z"/>
<path d="m818.96,253.43c-56.07-69.52-105.56-136.16-149.35-49.32 43.83-61.36 46.13-78.79 142.84,60.88z"/>
<path d="m814.84,168.34c40.54-47.99 74.34-136.54 141.66-90.789-58.44-23.44-72.14,5.685-138.32,101.38z"/>
<path d="m816.99,137.9c-29.09-37.79-53.35-107.52-101.66-71.495 41.934-18.458 48.814,9.6416 98.277,79.601z"/>
<path d="m815.43,508.02c-174.17-122.06-157.28,1.09-199.08,69.44 19.52-91.92 46.5-195.55 190.19-44.17z"/>
<path d="m817.66,354.91c-60.76-69.52-155.62-153.14-179.75-33.06 30.388-126.05 74.857-49.826 168.58,41.887z"/>
<path d="m809.2,300.1c60.76-69.52 155.61-153.14 179.75-33.06-30.39-126.05-74.86-49.83-168.58,41.88z"/>
<path d="m818.37,104.92c20.58-33.101 46.26-97.896 58.43-56.735-13.92-28.433-24.81,4.09-61.08,65.925z"/>
</g>
</g>
<g fill="none" stroke="#808000" stroke-linejoin="round" stroke-linecap="round" stroke-width="3.702">
<g transform="matrix(.30707 0 0 .33683 -16.1954 96.124)">
<path d="m280.44,634.36c-11.123,12.161-16.564,24.611-19.72,38.759-4.3651,19.568 5.2731,40.352 1.9053,60.115-4.6771,27.447-29.175,59.249-30.146,77.897"/>
<path d="m281.55,633.86c-10.18,12.961-14.672,25.784-16.759,40.129-2.8856,19.84 8.2837,39.843 6.4072,59.803-2.606,27.72-24.65,61.27-24.221,79.938"/>
<path d="m281.7,635.34c10.18,12.961 14.672,25.784 16.759,40.129 2.8856,19.84-8.2837,39.843-6.4072,59.803 2.606,27.72 24.65,61.27 24.221,79.938"/>
<path d="m281.35,634.16c12.163,11.121 18.692,23.037 23.097,36.847 6.0921,19.1-1.6548,40.661 3.4616,60.046 7.1053,26.92 34.34,56.413 36.971,74.899"/>
</g>
<g transform="matrix(.29947 -.07446 .06788 .3285 -56.60581 122.44457)">
<path d="m281.7,635.34c10.18,12.961 14.672,25.784 16.759,40.129 2.8856,19.84-8.2837,39.843-6.4072,59.803 2.606,27.72 24.65,61.27 24.221,79.938"/>
<path d="m281.35,634.16c12.163,11.121 18.692,23.037 23.097,36.847 6.0921,19.1-1.6548,40.661 3.4616,60.046 7.1053,26.92 34.34,56.413 36.971,74.899"/>
</g>
<g transform="matrix(-.29947 -.07446 -.06788 .3285 196.95724 122.12526)">
<path d="m281.7,635.34c10.18,12.961 14.672,25.784 16.759,40.129 2.8856,19.84-8.2837,39.843-6.4072,59.803 2.606,27.72 24.65,61.27 24.221,79.938"/>
<path d="m281.35,634.16c12.163,11.121 18.692,23.037 23.097,36.847 6.0921,19.1-1.6548,40.661 3.4616,60.046 7.1053,26.92 34.34,56.413 36.971,74.899"/>
</g>
<g transform="matrix(.30707 0 0 .33683 -16.1954 96.124)">
<path d="m279.33,632.97c6.8219,12.961 9.8319,25.784 11.23,40.129 1.9337,19.84-5.551,39.843-4.2935,59.803 1.7463,27.72 16.518,61.27 16.231,79.938"/>
<path d="m279.33,634.39c3.1697,12.961 4.5683,25.784 5.2179,40.129 .8985,19.84-2.5792,39.843-1.9949,59.803 .8114,27.72 7.675,61.27 7.5414,79.938"/>
<path d="m281.55,633.86c-4.73,12.961-6.817,25.784-7.7864,40.129-1.3407,19.84 3.8488,39.843 2.9769,59.803-1.2108,27.72-11.453,61.27-11.254,79.938"/>
</g>
</g>
<g transform="translate(-13.746 -13.406)">
<path fill="#808000" stroke="#808000" stroke-linejoin="round" stroke-linecap="round" stroke-width=".991" d="m30.474,323.03h109.36v3.387h-109.36z"/>
<path fill="url(#linearGradient6434)" d="m30.474,323.03h109.36v78.388h-109.36z"/>
</g>
</svg>
