<svg xmlns="http://www.w3.org/2000/svg" viewBox="0 0 99.665283 56.832283" enable-background="new 0 0 612 792">
<g stroke="#000">
<g>
<path fill="#ff3" d="m88.915,35.668s-1.124,1.392-3.25,.5c-2.583-1.083-3.417-3.25-3.417-3.25l.167-2.5-19-14.5-18.25-14s-2.5-2-5-1.25-16.75,4.75-16.75,4.75l-10.75,4-4.75,2.75s0,.5 1.75,1.75 9.5,6.5 9.5,6.5 .698-.603 2.5-1.75c.917-.583 3.134-1.152 4.5-.75 1.417,.417 2.083,.5 3.75,1.833 0,0 1.75,1.167 2.75,4.667 .651,2.278-.25,3.667-.583,4.25-.38,.65 .58,.5 .58,.5s1.75,1.5 3.5,2.75 13.974,10.071 14.75,10.75c.667,.583 5.583,4.5 5.583,4.5s1.25-1.417 2.25-1.667 2.917,.084 3.667,.584 1.75,1.333 2.25,2.583-.5,3-.5,3 2.5,3 3.5,3.5 3,.75 3,.75l15.25-8 9.5-5.25 .25-1.75-6.75-5.24z"/>
<path fill="#fc3" d="m28.585,50.998s-27.167-1.833-27.917-2.833 1.25-16.417 1.25-16.417l.833-.833s1.56-.043 2.667-1.25c.917-1 1.417-3.333 1.417-3.333 0-.833 0-2.084-1.167-4.417-.316-.633 .5-6 .5-6l1.5-3.375 11.5,7.875s-.75,2.25-.5,3.75 .549,3.104 1.25,4.333c.667,1.167 1,1.584 3.833,2.667 2.742,1.048 6.25-.5 7-1s1.167-1 1.167-1l24.583,18.25s-.622,.96-.083,2.667c.5,1.583 3.303,3.333 5.167,3.333 .416,0 2.333-1.25 2.333-1.25l3.75,3 2.25,1.167s-27.917-1.917-28-3.417c-.087-1.579-.574-3.647-3.25-5.333-2.25-1.417-3.75-1.084-4.75-1.167-.875-.072-3.22,1.104-3.833,2-1.09,1.57-1.5,2.57-1.5,2.57z"/>
<ellipse fill="#c90" cx="274.88" cy="413.62" rx="4.125" ry="3.375" transform="translate(-265.33 -372.83)"/>
</g>
<g fill="#fc3">
<ellipse cx="307.12" cy="382.38" rx="4.875" ry="4.125" transform="translate(-265.33 -372.83)"/>
<ellipse cx="319.38" cy="400.5" rx="7.125" ry="4.75" transform="translate(-265.33 -372.83)"/>
</g>
<g fill="#c90">
<ellipse cx="290.5" cy="398.33" rx="8.438" ry="7.625" transform="translate(-265.33 -372.83)"/>
<ellipse cx="325.88" cy="421.88" rx="4.875" ry="4.25" transform="translate(-265.33 -372.83)"/>
</g>
<g>
<ellipse fill="#fff" cx="351.88" cy="405.69" rx="4.875" ry="4.313" transform="translate(-265.33 -372.83)"/>
</g>
</g>
<path fill="#fff" stroke="#fff" d="m355.5,395-8.38,6.5 1.13,1.25 7.5,6 8.75-6.87z" transform="translate(-265.33 -372.83)"/>
</svg>
