<svg xmlns="http://www.w3.org/2000/svg" viewBox="0 0 199.652 121.028" xmlns:xlink="http://www.w3.org/1999/xlink" enable-background="new 0 0 199.652 121.028">
<g fill-rule="evenodd" stroke="#000" stroke-width=".036" stroke-miterlimit="10">
<g>
<path d="m22.122,46.744c-.828,.216-1.62,.612-1.98,1.044-.36,.396-.36,1.512-.684,1.548-.576-.036-1.404-1.368-2.34-1.368-.936-.108-2.196,.972-3.096,1.008-1.008-.036-1.872-.324-2.592-1.008-.756-.864-1.116-3.06-2.052-3.528-1.152-.396-3.312,1.08-4.392,.936-1.116-.36-1.368-2.196-2.124-2.592-.864-.432-1.764-.504-2.844-.072-.432,3.24 .288,7.272 2.16,12.384 1.836,5.148 6.912,13.896 8.964,17.893 1.908,3.814 2.808,5.398 2.7,4.895-2.34,1.766-3.924,3.529-5.148,5.148-1.296,1.512-1.512,2.953-1.908,4.607-.432,1.621-.792,4.861-.252,5.437 .576,.504 2.592-2.449 3.528-2.197 .648,.252 .36,3.098 1.368,3.529 1.116,.287 3.672-1.873 5.148-1.621 1.332,.252 1.8,2.736 2.952,2.736 1.044-.252 2.448-3.852 3.528-3.564 1.044,.289 1.908,4.789 2.736,5.186 .684,.215 .576-3.602 1.62-3.529 .972,0 2.844,3.348 4.068,3.781 1.116,.18 1.836-1.873 2.448-1.873 .468,.037 .828,.756 .792,2.16-1.872,3.275-4.536,5.615-7.848,7.309-3.492,1.656-12.42,1.223-12.204,2.447 .252,1.08 8.928,3.457 13.824,4.068 4.896,.469 9.828,.287 15.192-.828 .216,1.836 .576,2.881 1.368,3.275 .72,.252 1.764-1.727 2.988-1.08 1.116,.613 2.52,4.609 4.068,4.609 1.548-.109 3.132-5.438 5.148-5.438 1.944-.143 5.04,4.176 6.516,4.609 1.404,.324 1.98-.576 1.872-2.701 1.008,4.32 2.052,6.625 3.276,7.057 1.188,.359 1.944-3.348 3.78-4.896 1.728-1.656 3.852-3.096 6.516-4.607 5.184-1.117 9.216-1.836 12.492-2.16 3.168-.396 5.472-.396 6.768,0-.468,1.404 .612,2.447 3.528,2.988 2.951,.539 9.793,.576 13.572,.252 3.6-.504 6.119-1.08 8.137-2.701 1.906-1.764 3.959-4.211 3.527-7.344-.469-3.275-2.736-6.982-6.516-11.664l8.387-.539c.145,2.123 .828,3.203 1.908,3.527 .973,.217 3.709-2.268 4.609-1.908 .791,.289-.182,3.602 .826,3.816 .9,.107 3.637-3.061 5.148-2.699 1.439,.395 2.377,4.283 4.068,4.859 1.656,.324 5.221-.539 5.977-2.16 .684-1.656 .143-3.959-1.621-7.309 4.752,2.018 10.08,3.098 16.273,3.24 6.264,.037 16.738-1.332 20.592-2.447 3.672-1.26 .756-3.023 1.656-4.32 .826-1.367 3.023-1.439 3.527-3.275 .359-1.908-1.404-6.48-1.117-7.596 .145-1.152 2.125,1.764 2.736,.828 .613-1.08 0-5.006 1.08-6.77 1.008-1.836 4.572-2.268 4.861-3.527 .07-1.404-3.637-2.629-3.781-3.816-.143-1.116 2.664-1.836 2.988-2.988 .18-1.368-1.477-2.952-1.367-4.32 .072-1.404 2.23-2.628 1.908-3.816-.541-1.368-3.744-2.088-4.357-3.528-.611-1.548 4.572-2.988 1.117-4.86-3.564-1.836-10.801-3.78-21.996-5.976 2.988-3.024 3.311-4.968 1.367-5.976-2.16-1.008-7.883,.612-13.572,0-5.76-.72-14.111-2.124-20.34-4.068-6.229-2.016-11.592-4.5-16.523-7.596 5.291-4.608 8.496-7.812 9.756-9.756 1.115-1.944-2.016-1.008-2.447-1.908-.396-1.044 .576-3.744 0-4.068-.721-.36-2.773,1.8-4.068,1.908-1.297-.036-2.52-1.692-3.816-1.62-1.512,.072-3.096,2.052-4.607,1.908-1.549-.324-2.34-3.816-4.609-3.528-2.375,.36-5.543,2.016-9.504,5.4-.719-3.528-1.619-5.472-2.699-5.976-1.332-.54-2.88,2.628-4.068,2.988-1.152,.324-1.872-1.836-2.448-1.08-.54,.684-.108,4.392-1.08,5.148-1.26,.648-4.68-1.368-5.688-.792-1.044,.576 .288,3.276-.288,4.068-.72,.684-1.764,.684-3.528,0-.756-2.124-2.52-2.808-5.148-1.908-2.7,.864-6.264,3.168-10.836,7.056-1.692-1.764-3.096-2.808-4.356-2.988-1.332-.252-2.088,2.088-3.24,1.62-1.224-.684-2.808-4.716-3.78-4.86-1.008-.108-1.224,4.032-2.196,4.068-1.116-.216-2.34-5.004-4.068-4.644-1.8,.468-3.924,2.7-6.516,7.092l-7.308-9.252c-2.088,2.808-3.492,5.112-4.068,7.056-.648,1.908-.612,3.312 .252,4.356-1.8,.936-3.24,1.296-4.32,1.08-1.116-.36-1.98-2.34-2.448-2.448-.54-.18-.432,1.944-1.08,1.908-.864-.144-2.88-2.016-3.816-2.16-1.008-.108-1.08,1.26-2.16,1.332-1.26-.072-3.708-1.62-4.86-1.332-1.296,.216-2.304,1.62-2.196,2.952 .072,1.224 .936,2.988 2.736,4.896-4.356,2.16-7.02,4.284-8.136,6.228-1.188,1.908-.792,3.672 1.332,5.436 2.124,1.728 8.892,2.988 11.124,4.896 2.028,1.758 2.388,3.809 1.2,6.006z"/>
<path fill="#e4e877" d="m30.114,76.803c-8.064-2.447-12.096-2.412-14.616-4.066-2.52-1.801-1.368-5.508-.576-6.266 .792-.719 3.672,2.232 4.896,1.656 .972-.863 .36-5.076 1.368-5.975 1.044-.865 3.096,1.943 4.608,1.08 1.404-1.152 2.664-5.545 3.78-6.769 .972-1.116 1.332,.828 2.448,0 1.116-1.044 2.52-5.256 4.068-5.976 1.368-.792 3.276,2.124 4.356,1.368 .936-.936 .684-5.112 1.872-6.264 1.188-1.224 3.456,.54 5.436-.54 1.8-1.152 2.952-5.04 5.976-5.976 3.06-1.008 9.396,.288 12.204,0 2.628-.432-.648-2.484 3.78-2.412 4.32,0 16.596,.756 22.248,2.7 5.508,1.872 8.568,6.48 11.124,8.388 2.447,1.656 2.844,1.548 3.816,2.448 .9,1.008 1.115,2.232 1.619,3.276 .504,.756 1.008,.972 1.08,2.16-.18,1.26-2.016,3.672-1.619,5.148 .324,1.259 3.203,1.98 3.779,2.988 .432,1.008-1.08,1.908-.791,3.24 .252,1.225 2.447,2.627 2.412,4.068-.252,1.188-2.629,2.268-2.953,3.816-.324,1.512 1.691,4.104 1.332,5.436-.469,1.223-3.527,.828-3.779,2.412-.396,1.584 1.908,5.184 1.908,7.055-.109,1.693-1.621,1.945-1.908,3.529-.396,1.512 .576,4.428 0,5.688-.648,1.115-2.521,.828-3.529,1.656-1.043,.791 .973,3.313-2.699,3.24-3.924-.18-13.68-1.26-20.088-4.068-6.552-2.881-9.828-8.893-18.432-12.744-8.79-3.994-25.062-7.846-33.126-10.295z"/>
<path d="m21.438,68.92c1.26,.324 10.08,1.512 16.452,3.131 6.156,1.404 9.864,3.205 20.844,6.229 11.088,3.061 38.88,10.908 44.639,12.275 5.438,1.189-4.175-2.447-11.483-4.68-7.56-2.375-21.96-5.904-32.364-8.639-10.44-2.809-22.5-6.156-28.944-7.561-6.513-1.368-10.257-1.296-9.141-.755z"/>
<path d="m73.53,88.18c.288,.324 20.412,8.893 24.408,10.297 3.744,1.26 2.736-.434-1.368-2.16-4.248-1.874-23.22-8.426-23.04-8.137z"/>
<path d="m29.322,62.691c1.368,.396 19.44,5.977 26.856,7.848 7.272,1.908 17.64,3.961 16.524,3.529-1.404-.613-16.848-4.572-24.12-6.48-7.344-1.908-20.52-5.436-19.26-4.897z"/>
<path d="m39.078,58.083c14.724,3.6 23.04,5.401 24.948,5.688 1.836,.145-8.892-3.348-13.572-4.356-4.752-1.08-9.396-1.656-14.364-1.872l2.988,.54z"/>
<path d="m75.15,58.624c-.072,.216 11.772,3.781 17.352,5.437 5.4,1.512 14.688,3.887 14.939,3.779 .072-.289-8.711-3.348-14.111-4.896-5.435-1.62-18.071-4.536-18.179-4.32z"/>
<path d="m82.206,52.647c-1.296-.072-16.128-2.952-21.168-4.068-5.22-1.224-10.008-3.096-8.928-2.988 1.152,.108 10.836,1.944 15.984,3.276 5.076,1.189 15.156,3.745 14.112,3.78z"/>
<path d="m88.434,46.671c5.328,1.296 7.812,1.8 7.596,1.656-.396-.288-6.156-2.268-9.216-2.736-3.168-.468-8.1-.144-8.964,0-.864,.072 .36,.072 3.816,.288l6.768,.792z"/>
<path fill="#e4e877" d="m78.426,35.295c-1.26-1.296-1.26-3.06 0-5.148 1.116-2.232 3.132-4.068 7.308-7.596 4.176-3.636 13.896-10.62 17.891-13.572 3.781-2.952 3.926-2.592 5.689-3.78 1.799-1.26 3.527-3.276 5.184-3.276 1.332-.072 2.268,2.916 3.779,3.276 1.512,.324 3.924-1.476 5.438-1.368 1.295-.036 1.871,1.26 2.986,1.368 1.117,.036 3.025-1.44 3.781-1.08 .576,.324-.396,2.232 0,2.952 .324,.54 2.16,.036 2.16,.828-.109,.684-.541,1.62-2.701,3.78-2.34,2.088-5.076,4.284-10.836,8.964-5.904,4.716-13.5,10.728-23.616,18.72-2.268-.936-4.752-1.8-7.596-2.448-2.91-.719-5.934-1.259-9.462-1.62z"/>
<path d="m83.826,30.399c.072-.396 7.164-6.336 11.124-9.216 3.816-2.952 11.591-8.532 11.664-8.136-.143,.288-8.135,7.056-11.916,10.044-3.848,2.917-10.94,7.489-10.868,7.308z"/>
<path d="m108.23,17.404c1.871-1.944 4.463-3.852 6.803-5.436 2.197-1.584 8.209-5.4 6.518-3.528-1.945,1.8-15.193,12.744-17.389,14.364-2.26,1.404 2.2-3.637 4.07-5.4z"/>
<path fill="#e4e877" d="m120.44,21.472c1.404,1.62 2.088,3.204 2.449,4.608 .252,1.44-1.404,2.7-.793,3.78 .611,.9 3.492,.756 4.32,1.908 .611,1.044-.721,3.6-.252,4.608 .504,.936 2.736-.18 3.24,1.08 .324,1.116-1.98,4.5-1.08,5.976 .791,1.404 6.443,.648 5.977,2.448-.648,1.836-5.617,5.148-9.217,8.136-3.6,2.808-7.633,5.832-12.24,8.928-1.801-.324-2.881-1.043-3.24-2.16-.359-1.188 1.117-3.096 1.08-4.608-.107-1.62-1.439-3.204-1.908-4.608-.611-1.44-.359-3.168-1.332-4.068-.971-1.044-2.699-.756-4.355-1.908-1.691-1.26-3.78-2.844-5.976-5.148 7.766-6.3 15.536-12.636 23.316-18.972z"/>
<path d="m108.52,41.523c.973-1.116 10.729-9 11.916-9.756 1.045-.72-3.816,3.996-5.688,5.688-2.09,1.621-7.13,4.968-6.23,4.068z"/>
<path d="m110.14,48.328c.936-1.08 10.799-9.072 11.951-9.792 .936-.756-3.744,4.068-5.725,5.724-2.08,1.619-7.12,4.968-6.22,4.068z"/>
<path d="m111.76,57.255c.936-1.116 10.801-9 11.953-9.756 1.008-.72-3.709,3.996-5.689,5.688-2.04,1.621-7.23,4.969-6.26,4.068z"/>
<path fill="#e4e877" d="m128.86,31.479c4.428-.9 9.541-1.08 15.732-.54 6.121,.396 14.652,2.268 20.881,3.528 6.047,1.224 10.512,2.628 15.479,4.068 4.896,1.332 11.773,2.736 13.824,4.068 1.873,1.116-2.879,2.16-2.447,3.276 .359,1.116 4.211,2.34 4.896,3.528 .539,1.044-1.117,1.98-1.08,3.24-.109,1.224 1.404,2.808 1.08,4.068-.434,1.152-2.773,1.692-2.988,2.988-.252,1.26 1.584,3.492 1.619,4.609-.18,.936-1.332,.646-1.908,1.906-.504,1.369-.756,4.789-1.332,5.977-.756,.973-2.268-1.08-2.734,.252-.469,1.332 .504,5.58 0,7.596-.758,1.836-2.809,2.412-3.529,3.816-.648,1.477 2.088,3.061-.252,4.32-2.557,1.043-9.072,1.908-14.4,1.908-5.328-.072-7.596,.18-17.352-2.449-10.008-2.734-23.652-7.344-41.76-13.822 2.016-1.117 3.096-2.16 3.24-3.277 .035-1.26-2.305-2.484-2.699-3.527-.469-1.08-.469-1.98 0-2.699 7.883-5.041 13.535-9.145 17.352-12.457 3.707-3.348 5.148-5.796 5.148-7.344-.072-1.692-4.43-1.116-5.148-2.448-.756-1.476 1.188-4.572 .828-5.688-.504-1.152-2.844-.036-3.277-.828-.43-.901-.1-2.125 .83-4.069z"/>
<path d="m122.2,69.459c1.297,.576 19.045,7.092 26.316,9.541 7.092,2.303 17.424,5.076 16.271,4.572-1.439-.648-16.451-5.689-23.65-8.029-7.13-2.412-20.2-6.66-18.94-6.084z"/>
<path d="m145.31,37.06c1.26,.36 19.656,5.58 27,7.344 7.307,1.8 17.748,3.564 16.596,3.204-1.477-.576-16.885-4.248-24.264-6.012-7.38-1.872-20.63-5.004-19.34-4.536z"/>
<path d="m169.54,49.66c-1.295-.072-16.127-2.952-21.168-4.068-5.219-1.224-10.008-3.096-8.928-2.988 1.152,.108 10.836,1.944 15.984,3.276 5.09,1.187 15.17,3.744 14.12,3.78z"/>
<path d="m186.35,64.852c-1.332-.072-16.055-2.951-21.131-4.068-5.186-1.224-10.117-3.096-8.965-2.988s10.836,1.944 15.984,3.277c5.08,1.187 15.16,3.743 14.11,3.779z"/>
<path d="m153.12,72.34c-1.295-.252-15.73-4.537-20.664-6.191-4.932-1.693-9.791-4.141-8.604-3.889 1.225,.072 10.584,3.168 15.588,4.859 4.93,1.656 14.72,5.293 13.67,5.221z"/>
<path d="m150.82,64.061c-.072,.107 11.771,3.852 17.352,5.398 5.4,1.477 14.688,3.996 14.939,3.816 .072-.287-8.711-3.348-14.111-4.896-5.43-1.619-18.07-4.535-18.18-4.318z"/>
</g>
<g fill="#e4e877">
<path d="m124.25,17.944l-2.447,2.988c1.402,1.908 2.088,3.312 2.447,4.608 .18,1.152-1.584,1.872-.828,2.7 .684,.792 2.447,1.512 5.148,2.16 2.268-.828 5.436-1.224 9.791-1.332 4.285-.072 9.613,.144 15.984,.792-6.264-.648-11.771-1.728-16.813-3.78-5.03-2.017-9.46-4.681-13.28-8.136z"/>
<path d="m155.43,29.859c3.852,.648 7.201,1.008 10.332,1.08 3.133,0 6.768-1.368 8.137-.792 1.223,.576 .9,1.836-.828,4.068-3.6-.54-6.805-1.224-9.756-1.908-2.98-.72-5.61-1.583-7.88-2.448z"/>
<path d="m113.42,76.264l7.561,12.744 9.252-.289c.143,1.98 .684,3.061 1.619,3.24 .9,.072 2.809-2.268 3.781-2.16 .826,.109 .504,2.629 1.367,2.988 .828,.252 2.053-1.764 3.527-1.332 1.297,.324 3.385,2.736 4.609,3.492 1.08,.648 1.619,.973 2.447,.828 .791-.18 2.305-.252 2.447-1.619 .109-1.441-.576-3.709-1.908-6.805-8.711-2.52-15.947-4.68-21.707-6.48-5.8-1.943-10.09-3.348-13-4.607z"/>
<path d="m110.14,82.492c5.111,4.428 8.855,8.352 11.375,11.916 2.52,3.492 3.709,6.623 3.564,9.252-.289,2.484-2.016,4.643-5.184,5.939-3.313,1.152-10.836,1.332-14.113,1.367-3.348,.072-4.318-.432-5.399-1.367-1.116-1.08-1.62-2.844-1.368-5.148 3.023,.684 5.148,.648 6.228,.289 .936-.648-.359-2.16 .287-2.988 .756-.756 3.277-.107 4.068-1.369 .576-1.367-.252-5.111 0-6.516 .252-1.512 1.439-.287 1.621-2.16 .03-1.94-.33-4.964-1.09-9.212z"/>
<path d="m37.998,95.523c-.972,3.924-.972,6.947-.288,8.928 .72,1.836 3.276,1.908 4.608,2.988 1.188,1.152 1.908,3.168 2.988,3.816 1.008,.504 2.556-1.26 3.528-.576s1.332,4.355 2.448,4.355c1.008-.215 2.268-4.896 4.068-5.148s4.932,3.098 6.768,3.529c1.656,.287 1.728,1.26 3.528-1.656 1.8-3.096 4.104-8.316 7.056-16.236-2.556-3.275-4.68-5.184-6.516-5.725-1.8-.539-3.06,2.27-4.32,2.449-1.584,.035-2.844-2.268-4.068-1.908-1.188,.287-1.62,3.455-2.7,3.816-1.152,.324-2.232-2.305-4.068-1.908-1.944,.287-5.688,3.6-7.344,3.816-1.872,.035-2.304-2.594-3.24-2.736-.936-.109-1.8,.576-2.448,2.195z"/>
</g>
<g>
<path d="m55.602,104.67c.432-1.297 4.644-10.98 5.292-11.557 .396-.684-1.44,5.545-2.304,7.561-1.008,1.91-3.348,5.19-2.988,4z"/>
<path d="m60.498,110.68c.432-1.404 5.976-14.256 6.912-15.66 .684-1.332-1.188,4.787-2.304,7.523-1.296,2.7-4.968,9.26-4.608,8.14z"/>
<path d="m46.098,108.48c.324-1.404 4.68-10.873 5.292-11.594 .36-.684-1.368,5.545-2.268,7.561-.972,1.87-3.456,5.26-3.024,4.03z"/>
</g>
<g fill="#e4e877">
<path d="m74.322,97.145c-3.384,6.551-5.544,11.52-6.48,14.902-1.044,3.313-.36,4.934 .54,5.148 .72,0 1.98-2.736 4.32-4.32 2.16-1.656 5.328-4.031 9.504-4.895 4.248-.9 9.396-.938 15.732-.252l-1.62-2.988c-4.572,.143-8.496-.361-12.204-1.656-3.672-1.29-6.984-3.273-9.792-5.935z"/>
<path d="m35.298,99.303c-.324,2.053-1.368,3.637-2.988,4.896-1.764,1.225-5.04,1.801-7.056,2.412-2.016,.432-4.572,.107-4.896,.541-.324,.359 .432,1.367 2.7,1.908 2.124,.432 6.768,.971 10.044,1.078 3.132,.072 5.976-.107 8.676-.539-.9-.539-1.98-1.115-2.952-1.871-1.044-.828-2.736-1.369-3.276-2.736-.648-1.47-.684-3.27-.252-5.687z"/>
<path d="m21.438,76.803c-3.024,.504-5.508,1.225-7.596,2.701-2.196,1.295-3.816,3.564-4.86,5.436-1.116,1.873-1.62,4.789-1.368,5.688 .216,.756 1.908-1.404 2.988-1.08 1.008,.182 2.088,2.088 3.24,2.412 1.224,.252 2.448-1.08 3.528-.791 .9,.252 .936,2.268 1.908,2.16 .9-.361 2.448-3.744 3.528-3.781 .864-.07 1.548,2.953 2.448,3.24 .936,.072 2.016-2.592 3.24-2.16 1.044,.541 1.476,4.537 3.528,4.896 2.124,.107 6.588-3.527 8.676-3.816 1.908-.287 1.98,2.053 2.988,2.16 .936,0 1.8-1.332 2.988-1.908 1.188-.719 2.736-1.584 4.068-1.619 1.26-.072 2.196,1.908 3.24,1.619 .792-.432 1.332-3.168 2.448-3.492 1.152-.395 3.384,1.297 4.608,1.332 1.116-.035 1.98-.432 2.448-1.332-5.004-2.051-10.872-3.996-17.892-5.975-7.092-2.016-15.048-3.817-24.156-5.69z"/>
</g>
<g>
<path d="m18.99,91.096c0-.9 1.296-10.045 1.656-11.053 .252-1.043 .252,2.988 0,4.896-.36,1.874-1.656,6.84-1.656,6.157z"/>
<path d="m24.678,90.555c0-.898 1.296-10.043 1.656-11.051 .252-1.045 .252,2.988 0,4.896-.36,1.871-1.656,6.84-1.656,6.155z"/>
<path d="m32.022,92.967c.036-.936 1.224-9.971 1.62-11.016 .252-1.008 .252,2.881 0,4.861-.396,1.872-1.584,6.84-1.62,6.155z"/>
<path d="m40.158,89.26c-.18-.541-.18-5.4 0-5.977 .108-.611 .756,1.693 .828,2.736-.072,1.116-.72,3.493-.828,3.241z"/>
<path d="m13.518,85.768c-.108-.504 .9-4.283 1.224-4.68 .144-.359 .396,1.439 .216,2.34-.216,.828-1.476,2.627-1.44,2.34z"/>
<path fill="#e4e877" d="m10.602,69.207c-2.088-2.951-3.852-6.479-5.436-10.583-1.656-4.176-2.88-8.784-4.068-14.112 2.088,1.224 3.672,2.088 4.896,2.448 1.116,.36 1.368-1.08 2.16-.288 .648,.612 .72,3.816 2.16,4.356 1.296,.504 4.68-1.476 6.264-1.368 1.512-.036 2.124,1.584 2.952,1.368 .72-.36 .936-2.7 1.908-2.988 .9-.324 3.132,1.152 4.068,1.368 .972,.072 .828-.756 1.656-.54 .72,.288 1.764,1.656 2.7,1.872 .864-.072 1.728-1.584 2.448-1.62 .648-.036 1.044,.504 1.332,1.62-.252,1.944-1.008,3.348-1.872,4.068-1.008,.612-2.736-.864-3.816,.288-1.152,1.116-1.404,5.508-2.7,6.516-1.404,.865-3.996-1.764-5.148-1.08-1.152,.576-.864,4.14-1.656,4.859-.936,.648-2.484-.826-3.528-.539-1.188,.217-2.268,1.26-2.7,2.16-.468,.756 .504,2.627 .288,2.988-.288,.324-.972,.107-1.908-.793z"/>
<path d="m7.794,51.855c.36,.792 2.88,9.54 3.24,10.691 .144,1.045-1.62-2.699-2.088-4.427-.612-1.835-1.548-7.019-1.152-6.264z"/>
<path d="m12.942,51.784c.432,.72 4.32,9 4.716,10.117 .252,.936-1.944-2.413-2.7-4.069-.9-1.728-2.448-6.804-2.016-6.048z"/>
<path d="m18.054,52.288c.288,.504 3.024,6.336 3.348,7.2 .144,.576-1.332-1.692-1.908-2.916-.648-1.332-1.728-4.752-1.44-4.284z"/>
<path fill="#e4e877" d="m32.31,20.932c-1.656-1.152-2.88-1.836-3.816-1.908-.936-.144-.828,1.188-1.62,1.08-.972-.324-2.7-2.016-3.528-2.16-.792-.18-.324,1.368-1.368,1.332-1.224-.108-4.5-2.124-5.4-1.872-1.044,.252-1.188,1.332-.288,3.24 .864,1.8 2.304,2.844 5.688,7.596 3.42,4.644 8.028,11.376 14.4,20.34 1.548,1.188 2.448,1.548 3.24,1.08 .648-.612 .324-2.988 .828-4.068 .396-1.116 .972-1.836 1.872-2.16 .936-.396 2.016-.396 3.528,0-2.412-2.088-4.392-4.932-6.228-8.964-1.872-4.068-3.312-8.892-4.608-14.904-.9,.432-1.8,.899-2.7,1.368z"/>
<path d="m21.186,21.543c.684,.504 6.048,7.956 6.768,8.892 .36,.828-2.304-1.98-3.528-3.42-1.26-1.583-3.816-6.047-3.24-5.472z"/>
<path d="m27.594,23.127c.576,.612 5.256,8.46 5.868,9.504 .432,.864-2.232-2.124-3.132-3.708-1.08-1.692-3.24-6.407-2.736-5.796z"/>
</g>
<g fill="#e4e877">
<path d="m17.37,25.251c-3.384,1.584-5.508,2.988-6.516,4.608-1.08,1.512-1.404,3.096 .576,4.608 1.908,1.404 8.892,1.98 11.088,4.068 2.16,2.052 2.664,4.716 1.656,8.136 .72,0 1.476,.18 2.412,.54 .936,.324 2.124,1.62 2.988,1.656 .648-.18 .504-1.836 1.368-1.908 .9-.072 2.016,.468 3.78,1.62-2.556-3.744-5.22-7.488-8.136-11.376-2.916-3.959-5.94-7.811-9.216-11.952z"/>
<path d="m46.962,41.812c-1.908-1.836-3.636-4.14-5.184-7.056-1.692-3.024-3.276-7.2-4.32-10.584-1.152-3.528-2.16-7.236-1.908-9.756 .288-2.556 1.368-4.14 3.528-5.148 1.26,1.656 3.384,4.14 6.228,7.308s7.164,8.352 10.872,11.664c3.636,3.204 7.2,5.688 10.836,7.596-.288,1.116-1.188,1.8-2.7,1.908-1.656,.108-4.248-1.224-6.516-1.08-2.412,.036-5.22,.72-7.056,1.62s-3.096,1.944-3.78,3.528z"/>
</g>
<g>
<path d="m45.198,27.304c.648,.468 6.768,7.38 7.524,8.244 .612,.792-2.592-1.764-3.78-3.096-1.332-1.476-4.392-5.653-3.744-5.148z"/>
<path d="m41.706,27.771c.576,.648 5.256,8.388 5.868,9.468 .396,.864-2.232-2.124-3.168-3.708-1.044-1.619-3.24-6.407-2.7-5.76z"/>
<path d="m49.59,26.512c.756,.396 8.1,5.688 9,6.552 .684,.576-2.844-1.152-4.32-2.268-1.512-1.224-5.472-4.645-4.68-4.284z"/>
</g>
<g fill="#e4e877">
<path d="m104.45,6.532c-.252-2.736-.611-4.32-1.367-4.608-.793-.252-2.16,2.232-2.988,2.736-.972,.324-1.692-1.296-2.16-.54-.576,.648 .252,3.888-.828,4.572-1.152,.54-4.716-1.476-5.688-.792-1.008,.684 .792,4.068 0,4.896-.936,.72-2.52,.54-5.148-.54v8.136c2.016-2.088 4.5-4.212 7.596-6.516 3.032-2.413 6.558-4.716 10.588-7.344z"/>
<path d="m68.382,34.468c-2.232-.54-4.896-2.34-8.424-5.4-3.528-3.204-7.632-7.488-12.456-13.284 1.332-2.916 2.592-4.464 4.068-4.644 1.404-.252 3.024,3.24 4.32,3.528 1.044,.18 1.584-2.484 2.736-2.16 1.152,.216 2.916,3.708 4.32,4.068 1.224,.324 1.944-2.484 3.528-1.908s4.032,2.808 5.976,5.148c1.8,2.16 3.564,4.932 5.148,8.172-1.044,.756-1.728,1.692-1.908,2.952-.288,1.224-.108,2.628 .54,4.356-2.592-.253-5.22-.541-7.848-.828z"/>
</g>
<g>
<path d="m54.954,16.432c.648,.504 6.768,7.272 7.524,8.244 .612,.864-2.592-1.728-3.78-3.06-1.332-1.584-4.392-5.58-3.744-5.184z"/>
<path d="m63.378,18.087c.648,.468 6.768,7.38 7.524,8.244 .612,.792-2.592-1.764-3.78-3.096-1.332-1.475-4.392-5.652-3.744-5.148z"/>
<path fill="#e4e877" d="m78.678,27.16c-.216-1.98-.936-3.924-2.16-5.688-1.296-1.8-3.06-3.564-5.436-5.148 2.772-2.052 5.076-3.6 7.056-4.644 1.836-1.116 3.42-1.656 4.608-1.62 1.116-.036 1.98,.504 2.448,1.62l-.288,8.964c-1.944,1.476-3.24,2.7-4.32,3.816-1.044,1.043-1.728,1.944-1.908,2.7z"/>
</g>
</g>
</svg>
