<svg xmlns="http://www.w3.org/2000/svg" viewBox="0 0 431.23 450.33" xmlns:xlink="http://www.w3.org/1999/xlink">
<defs>
<filter width="1.31" x="-.155" y="-.531" height="2.062" color-interpolation-filters="sRGB" id="filter5884-4-0-05">
<feGaussianBlur stdDeviation="2.43526"/>
</filter>
<filter width="1.498" x="-.249" y="-.231" height="1.463" color-interpolation-filters="sRGB" id="filter7043-5-6">
<feGaussianBlur stdDeviation=".13869"/>
</filter>
<filter width="1.498" x="-.249" y="-.231" height="1.463" color-interpolation-filters="sRGB" id="filter7043-69-1">
<feGaussianBlur stdDeviation=".13869"/>
</filter>
<filter width="1.215" x="-.107" y="-.138" height="1.276" color-interpolation-filters="sRGB" id="filter5523-7-1-4">
<feGaussianBlur stdDeviation="2.10216"/>
</filter>
<filter width="1.498" x="-.249" y="-.231" height="1.463" color-interpolation-filters="sRGB" id="filter7043-6-2">
<feGaussianBlur stdDeviation=".13869"/>
</filter>
<filter width="1.498" x="-.249" y="-.231" height="1.463" color-interpolation-filters="sRGB" id="filter7043-64-5">
<feGaussianBlur stdDeviation=".13869"/>
</filter>
<filter width="1.498" x="-.249" y="-.231" height="1.463" color-interpolation-filters="sRGB" id="filter7043-20">
<feGaussianBlur stdDeviation=".13869"/>
</filter>
<filter width="1.498" x="-.249" y="-.231" height="1.463" color-interpolation-filters="sRGB" id="filter7043-2-8">
<feGaussianBlur stdDeviation=".13869"/>
</filter>
<filter width="1.498" x="-.249" y="-.231" height="1.463" color-interpolation-filters="sRGB" id="filter7043-26-4">
<feGaussianBlur stdDeviation=".13869"/>
</filter>
<filter width="1.498" x="-.249" y="-.231" height="1.463" color-interpolation-filters="sRGB" id="filter7043-262-2">
<feGaussianBlur stdDeviation=".13869"/>
</filter>
<filter width="1.498" x="-.249" y="-.231" height="1.463" color-interpolation-filters="sRGB" id="filter7043-68-4">
<feGaussianBlur stdDeviation=".13869"/>
</filter>
<filter width="1.498" x="-.249" y="-.231" height="1.463" color-interpolation-filters="sRGB" id="filter7043-4-7">
<feGaussianBlur stdDeviation=".13869"/>
</filter>
<filter width="1.498" x="-.249" y="-.231" height="1.463" color-interpolation-filters="sRGB" id="filter7043-1-8">
<feGaussianBlur stdDeviation=".13869"/>
</filter>
<filter width="1.498" x="-.249" y="-.231" height="1.463" color-interpolation-filters="sRGB" id="filter7043-7-1">
<feGaussianBlur stdDeviation=".13869"/>
</filter>
<filter width="1.498" x="-.249" y="-.231" height="1.463" color-interpolation-filters="sRGB" id="filter7043-25-5">
<feGaussianBlur stdDeviation=".13869"/>
</filter>
<radialGradient cx="657.95" cy="824.19" gradientTransform="matrix(1 0 0 .77767 0 183.24)" id="radialGradient12758" r="23.511" gradientUnits="userSpaceOnUse">
<stop offset="0" stop-color="#e1d8b9"/>
<stop offset="1" stop-color="#e1d8b9" stop-opacity="0"/>
</radialGradient>
<radialGradient cx="384.35" cy="1095.9" gradientTransform="matrix(1 0 0 1.0669 0 -73.32)" id="radialGradient12760" r=".755" gradientUnits="userSpaceOnUse">
<stop offset="0" stop-color="#fff"/>
<stop offset="1" stop-color="#fff" stop-opacity="0"/>
</radialGradient>
</defs>
<g color="#000">
<g fill="none" transform="matrix(9.4657 0 0 9.4657 -541.377 -5410.351)">
<path fill="#000" filter="url(#filter5884-4-0-05)" fill-opacity=".222" d="m659.82,975.81c.9724,.2455 2.9458-.2677 3.9198,.083 .0868,.0312 .185-.0103 .2767,0 .2959,.0333 .7196,.1721 .9684,.332 .1218,.0783 .2098,.2001 .3228,.2905 .4233,.3387 .9203,.554 1.2912,.9546 .2493,.2693 .3559,.6523 .6456,.9131 .1042,.0938 .2647,.1553 .3689,.249 .1839,.1655 .2486,.3961 .4611,.5395 .2698,.1821 .581,.2101 .7378,.5395 .1212,.2545 .0664,.5712 .1383,.8301 .0544,.1959 .1728,.4465 .0922,.6641-.1733,.468-.7789,.6057-1.1529,.8301-.2283,.137-.4575,.3361-.6917,.4565-.056,.0288-.1349,.003-.1845,.0415-.0811,.0639-.1077,.1799-.1845,.249-.2002,.1802-1.4289,.5394-1.7063,.5811-.0568,.009-.1981,.112-.2306,.1245-.6114,.2358 .325-.2085-.415,.1245-.2181,.0981-.4173,.255-.6456,.332-.3495,.1179-.7043,.2819-1.0607,.3735-.2807,.0722-.5579,.096-.8301,.166-.134,.0345-.2801-.0304-.415,0-.0403,.009-.0615,.0553-.0922,.083-.0615,.0138-.1218,.0345-.1845,.0415-.1463,.0164-.3194-.001-.4611,.0415-.1313,.006-.2082,.1273-.3228,.166-.2245,.0758-.4654,.0838-.6917,.1245-.4006,.0721-.767,.2578-1.1529,.3735-.1136,.0866-.2491,.0107-.3689,.0415-.212,.0545-.4206,.167-.6456,.2075-.2682,.0483-.5611-.044-.8301,0-.6423,.1051-1.286,.2669-1.9369,.332-.2435,.0244-.4943-.0244-.7378,0-.6025,.0602-1.1884,.083-1.7985,.083-.346,0-.7169-.0387-1.0607,0-.401,.0451-.7987,.1146-1.199,.166-.6585,.0847-1.434,.006-2.1213,.083-.756,.0851-1.4574,.4008-2.2136,.4981-.7696,.0989-1.7884,0-2.5825,0h-2.0752c-.3244,0-.6937,.0481-1.0146,0-.3651-.0548-.7386-.0772-1.1068-.1245-.1822-.0234-.2981-.1241-.4612-.166-.2069-.0532-.4775-.009-.6917-.0415-.7851-.1178-1.5721-.2151-2.3519-.332-.4655-.0698-.8479-.384-1.2912-.4981-.904-.2325-1.7796-.5974-2.5825-1.0791-.0413-.0248-.1075-.005-.1383-.0415-.2392-.287 .5644-2.1366 .7378-2.4487 .0615-.1107 .0972-.2404 .1845-.332 .0465-.0488 .1343-.0379 .1845-.083 .2372-.2134 .3837-.562 .5995-.7886 .1023-.1074 .2524-.1572 .3689-.249 .6287-.4951 1.2872-.9117 2.0291-1.1621 .3253-.1098 .7921-.467 1.0607-.5395 .1638-.0442 .3425-.001 .5073-.0415 .7274-.1785 1.442-.403 2.1674-.5811 .4653-.1142 .9594-.1168 1.4296-.2075 .6078-.1172 1.1927-.2298 1.7985-.332 .5442-.0918 1.0747-.1785 1.614-.2905 .2124-.0441 .4349-.0313 .6456-.083 .2905-.0713 .5772-.1892 .8762-.249 .1992-.0399 .407-.018 .5995-.083 .304-.1026 .0607-.0741 .3689-.1245 .6483-.1061 1.2888-.0662 1.9369-.1245 .3859-.0347 .7655-.1273 1.1529-.166 .6536-.0654 1.2919-.1108 1.9369-.2075 .3471-.0521 .7116-.007 1.0607-.0415 .5798-.058 1.1338-.176 1.7063-.2905 .3831-.0766 .8108,.0499 1.199,0 2.0022-.2574 2.2805-.1036 4.2426-.2075z" transform="matrix(.83493 0 0 .83493 -460.76 -209.61)"/>
</g>
<g fill="#000" transform="matrix(9.4657 0 0 9.4657 -541.377 -5410.351)">
<path d="m60.869,593.35c.3898-.4851 .8375-.9157 1.2786-1.353 .1025-.0869 .2199-.1658 .3585-.1409 .151,.0312 .2949,.0878 .4369,.1467 .1397,.0413 .2567,.1125 .3716,.2003 .1329,.1139 .211,.2748 .3033,.4204 .1157,.183 .1895,.3845 .2654,.5854 .0533,.1492 .1275,.2884 .2027,.4273 .0742,.1199 .0989,.2594 .1311,.3944 .0316,.1112 .0315,.2357 .1035,.3304 .0397,.0464 .0761,.0928 .1016,.1497 .0721,.0755 .0594,.0735 .107,.009-.066,.0466 .2267-.23 .1696-.1729-1.1359,1.1362-.1634,.1005 .2575-.2218 .1448-.1007 .264-.2337 .4211-.3162 .1368-.0473 .2865-.0534 .4301-.0467 .1403-.002 .2769,.0299 .4147,.0508 .1296,.029 .2402,.1037 .3673,.1423 .1545,.0443 .2933,.1233 .4365,.1942 .1465,.0853 .2895,.175 .4264,.2749 .1602,.1103 .321,.2171 .4909,.3118 .1298,.0546 .2327,.1389 .3366,.231 .0697,.083 .1184,.1784 .1848,.2643 .061,.084 .1106,.1774 .1808,.2541 .0392,.0688 .0946,.1229 .1448,.1834 .0553,.0519 .0695,.1227 .0962,.1897-.0007,.0438 .0155,.0884 .003,.1315 0,.002-.0165,.0387-.0195,.0369-.0316-.0191-.0292-.0276-.0338-.0538-.1575,.1527-.315,.3055-.4724,.4582 .1109-.1546 .2097-.3172 .3242-.4694 .2769-.3292 .5855-.6317 .9356-.8814 .137-.0913 .2859-.16 .4366-.2247 .0946-.0504 .1955-.0732 .3021-.0691 .1532-.01 .3113,.008 .462,.0391 .1527,.008 .2998,.0336 .4476,.0716 .1768,.0427 .332,.1223 .4755,.2322 .1589,.1176 .2827,.2695 .4169,.4124 .0786,.1165 .1747,.2176 .2466,.3388 .0762,.1134 .1232,.2422 .1846,.3635 .015,.0813 .072,.1508 .0792,.2325 .0002,.0339-.014,.0337 .0107,.0559 .0837-.0437 .1697-.1242 .2428-.1912 .2893-.2829-.1728,.1773-.2621,.2629-.0429,.0411 .0821-.0858 .1221-.1297 .1167-.128 .2277-.2614 .341-.3925 .2965-.3394 .5785-.7233 .9608-.9684 .1433-.093 .3077-.1422 .4628-.2103 .1332-.0573 .2766-.0626 .419-.0754 .1644-.01 .3249,.0151 .4861,.0428 .2038,.009 .405,.0335 .6065,.0633 .2085,.0278 .3847,.1459 .5653,.2445 .1677,.1147 .3419,.2306 .4765,.3846 .1735,.1971 .3186,.4111 .5202,.5827 .2208,.2196 .4821,.3895 .7411,.5595 .1208,.0823 .2453,.1613 .3748,.2295 .006,.002 .0163,.0135 .0169,.008 .0231-.2266-.3468,.2952-.5185,.4449-.0251,.0218 .0387-.0539 .057-.0815 .0331-.0502 .1024-.1646 .1322-.2133 .1845-.2997 .4104-.569 .6519-.8238 .3606-.3605 .7077-.7393 1.1095-1.0553 .1432-.1158 .3177-.1743 .4912-.2272 .1766-.0444 .3475-.1065 .5237-.1522 .1299-.0452 .2608-.0793 .394-.1097 .1539-.009 .3148,.0255 .4644,.0625 .2823,.1283 .5383,.2974 .7794,.491 .2433,.2131 .482,.4312 .7114,.6592 .0827,.0683 .1577,.1493 .2227,.2325 .01,.0371 .008-.0297 .004-.0373-1.0053,1.1528-.3789,.2729-.1693-.0159 .2121-.293 .4429-.5704 .6905-.8338 .3587-.405 .7497-.7672 1.1821-1.0876 .176-.1345 .3653-.2495 .5688-.3368 .1798-.0742 .3726-.1041 .5652-.1215 .2131-.0228 .4222,.004 .629,.0539 .2117,.0622 .4213,.1321 .6232,.2211 .1434,.0679 .2377,.1925 .3195,.3237 .1118,.1535 .2244,.3104 .3638,.4403 .0657,.111 .197,.1725 .2669,.2771 .0106,.005 .0168,.0159 .0251,.0239 .0592,.0413 .1391,.044 .1993,.0784 .0361,.0136 .0655,.0366 .0989,.058 .0756,.0291 .1327,.0627 .1786-.0291-.1479,.143-.2862,.2966-.4438,.4289-.0503,.0422 .0392-.1258 .0497-.1907 .0256-.1592 .0536-.3173 .084-.4758 .0714-.3546 .1631-.7055 .3139-1.035 .2411-.3845 .5818-.7132 .9852-.9215 .1717-.0797 .3487-.1471 .5364-.1752 .1684-.0266 .3384-.0379 .5079-.057 .1987-.0215 .3911-.0738 .5855-.1168 .0944-.0226 .1822-.0643 .2764-.086 .1189-.009 .2313,.0149 .3442,.0494 .1484,.0409 .2964,.1048 .4277,.1862 .1027,.0554 .2085,.093 .3219,.1193 .0672,.0225 .1146,.0814 .1584,.135 .0662,.0233 .1291,.0583 .1946,.0786 .0221,.0142 .0155,.0115 .036,.0357-.0276-.217 .6981-.5939-.4618,.3914-.026,.0221 .0373-.0573 .054-.0871 .0514-.0919 .0561-.1132 .0958-.2125 .0855-.2704 .1582-.544 .2624-.8079 .2123-.4315 .5734-.7926 .9577-1.0738 .1428-.0987 .2924-.1804 .4552-.24 .1608-.0557 .3288-.0747 .4979-.0805 .1282,.018 .2575,.01 .3858,.0194-.009,.0761-.1398,.2139-.1901,.275 0,0-.0276,.0308-.0276,.0308-.0571,.0593-.1867,.2284-.2797,.2552-.1085-.0357-.211-.0756-.3295-.0596-.165,.008-.3291,.0357-.4827,.0984-.158,.068-.3064,.1555-.4447,.2578-.2296,.1855-.127,.108 .3119-.3342 .1612-.1624-.5004,.5119-.3001,.4138-.1052,.2601-.1712,.5323-.2545,.7995-.1061,.3069-.4135,1.0744-.774,.8664-.008-.002-.0177,.0002-.0251-.004-.0617-.0343-.1038-.0878-.1577-.1345-.0564-.0308-.095-.0807-.1492-.1138-.0988-.0535-.1986-.1046-.297-.1586-.1379-.0609-.2675-.1399-.414-.1804-.1076-.0258-.2203-.0472-.3303-.0228-.0767,.007-.1523,.017-.2279,.0334-.1958,.0497-.3943,.0922-.5949,.1176-.1701,.021-.3406,.0372-.5095,.0655-.1852,.0427-.3664,.1014-.531,.1989-.0953,.0556-.1116,.062-.2016,.127-.0315,.0228-.1184,.1001-.0924,.0711 .6549-.7315 .3107-.3241 .186-.1532-.1596,.3208-.2414,.6718-.321,1.0196-.016,.0833-.056,.6109-.0917,.6548-.1543,.19-.3315,.3602-.4973,.5403-.0796,.0408-.1768,.0276-.2623,.008-.0427-.009-.0842-.0156-.1244-.0287-.0711-.0151-.1367-.0637-.2123-.071-.0325-.0179-.0336-.009-.0495-.0448-.0978-.0786-.1484-.2139-.2557-.2859-.1261-.1485-.2647-.2866-.3722-.4496-.0833-.1126-.1641-.2287-.2831-.3072-.1814-.108-.3746-.1908-.5803-.2407-.2037-.0415-.4089-.0579-.6163-.0342-.1853,.0209-.3692,.0547-.5417,.1287-.1965,.0946-.3811,.2103-.5546,.3425-.1129,.0842-.2246,.1682-.3303,.2616-.0396,.035-.1532,.1453-.1168,.1071 .0283-.0297 .6184-.6231 .2493-.2519-.2305,.2517-.4517,.5107-.6474,.7909-.3047,.4177-.4647,.8148-.9418,1.1328-.0491-.005-.0692-.007-.0961-.0501-.0564-.0867-.1206-.1732-.1773-.2621-.2031-.2468-.4369-.4676-.6847-.669-.2349-.1855-.4839-.3664-.7707-.4617-.1349-.0588-.2634-.0995-.4116-.0671-.1251,.0154-.2452,.0643-.3685,.09-.1708,.0546-.344,.0993-.5165,.1483-.1695,.064-.3395,.1236-.477,.2477-.0947,.0781-.1879,.1567-.278,.2402-.0377,.035-.1481,.1429-.1125,.1057 .007-.007 .6093-.6153 .2434-.2459-.2299,.24-.4489,.4911-.6176,.7792-.1747,.2878-.4796,1.0145-.8208,.8511-.094-.1058-.2068-.1957-.3214-.2776-.2572-.1791-.5188-.3555-.7508-.567-.178-.1929-.3706-.3767-.5136-.5982-.1294-.15-.2503-.3049-.4255-.4062-.1666-.1092-.3373-.2106-.5387-.238-.1999-.0367-.4056-.0225-.6051-.0634-.1596-.0204-.3195-.0473-.4804-.0286-.1406,.006-.2802,.0305-.4075,.0926-.1571,.0538-.3075,.1253-.447,.2155-.2279,.1777-.0956,.0806 .2901-.3166 .0272-.0281-.0563,.0543-.0832,.0825-.0928,.0972-.1741,.2041-.2612,.3063-.3568,.4197-.718,.8339-1.1324,1.2004-.0932,.0777-.2033,.2001-.3357,.1602-.0267-.0142-.0684-.0241-.0885-.0533-.0437-.0652-.0336-.1575-.0793-.2241-.0402-.128-.1095-.2455-.1599-.3697-.0723-.1165-.1454-.2322-.2298-.3404-.1086-.1552-.2432-.2948-.3834-.4207-.1347-.1004-.2767-.1875-.4422-.2267-.1412-.0373-.2855-.0558-.4296-.0794-.1509-.0112-.3005-.0387-.4521-.0281-.0968,.0177-.1917,.0361-.2808,.0796-.1457,.0653-.29,.1345-.4205,.2276-.0726,.0534-.0979,.0709-.1682,.1278-.0262,.0212-.1006,.0894-.0774,.065 .7335-.7718 .4351-.4489 .2795-.2734-.1133,.1448-.2106,.2998-.3066,.4564-1.0946,1.1168-.2677,.5663-.6642,.5366-.024-.0291-.0334-.0659-.0397-.1056 .002-.0642-.0271-.1104-.0624-.1625-.0473-.064-.1067-.1159-.1522-.1814-.0513-.0914-.1232-.1695-.182-.2562-.0536-.0895-.1065-.1774-.1727-.2574-.0793-.1038-.1788-.1801-.299-.2328-.1702-.0976-.3384-.2001-.4959-.3173-.1385-.0904-.2701-.1921-.4161-.2707-.1373-.0751-.2799-.1401-.4301-.1852-.1168-.0495-.2325-.1066-.3562-.1356-.1315-.0325-.2676-.0383-.4025-.0413-.1345,.004-.2742,.0008-.3933,.074-.1474,.1039-.2788,.2283-.4236,.3358-.0291,.0235-.1129,.0978-.0871,.0707 .1634-.172 .6706-.6715 .5006-.506-.2689,.2618-.5502,.5965-.8625,.8388-.0912,.0231-.1384-.0389-.1998-.0987-.0418-.0443-.0704-.0947-.1152-.1367-.066-.112-.1009-.23-.12-.3592-.0251-.13-.0604-.258-.1107-.3806-.0765-.1455-.1631-.2851-.1997-.4479-.0644-.1998-.1317-.4026-.2458-.5802-.0817-.1432-.1605-.2927-.274-.4136-.0941-.096-.2023-.1625-.3315-.2028-.1355-.0521-.2718-.1103-.4165-.1304-.1178,.0149-.2073,.0786-.2936,.1599 1.0534-1.0593-.0522,.0378-.2251,.2898l-.6052,.4491z"/>
<path d="m61.74,592.8c.181,.5318 .4272,1.0384 .6469,1.5549 .2258,.481 .3814,.9899 .5368,1.4967 .1741,.5069 .3199,1.0214 .4449,1.5424 .1516,.5976 .2887,1.1986 .4536,1.7928 .1582,.5823 .341,1.1574 .5101,1.7366 .1664,.5311 .2582,1.08 .3109,1.6329 .0346,.4997 .1167,.9922 .2237,1.4808 .1166,.5325 .3021,1.0464 .4964,1.5546 .1667,.4458 .3529,.8837 .5341,1.3235 .1306,.335 .2432,.6767 .363,1.0157 .179,.444 .333,.8973 .4953,1.3477 .1238,.357 .2384,.7186 .4133,1.0545 .0764,.1527 .1508,.3069 .2348,.4557 .1736,.2295-.0538,.3587-.1921,.5537l-.0271,.0312c-.1807,.1357-.3761,.4034-.5375,.1374-.0981-.1468-.1553-.3108-.2416-.4643-.1554-.3509-.2996-.7055-.4101-1.0736-.1514-.4542-.321-.901-.4929-1.3478-.1257-.3353-.2363-.6758-.3634-1.0105-.1754-.4447-.3588-.8863-.5262-1.3342-.1892-.5148-.386-1.0282-.5068-1.5648-.1092-.4935-.1887-.9925-.2235-1.4971-.0552-.551-.1282-1.0978-.2863-1.6308-.1611-.5846-.3405-1.1641-.4981-1.7497-.1529-.602-.3095-1.2033-.436-1.8116-.1245-.5194-.2708-1.0319-.4406-1.5385-.1553-.51-.3004-1.0231-.4993-1.5185-.2161-.5249-.4446-1.045-.625-1.5838l.6428-.586z"/>
<path d="m67.206,610.97c.3883,.2863 .7921,.5521 1.2204,.7747 .2743,.1356 .5453,.2786 .8285,.395 .2509,.1113 .5056,.2137 .766,.3012 .3191,.0999 .6394,.1945 .9639,.2751 .4074,.0999 .8245,.1414 1.2404,.186 .463,.0484 .9241,.1126 1.3854,.1752 .3654,.0506 .7321,.095 1.1003,.1195 .2739,.0246 .5491,.0198 .8237,.0317 .2948,.0105 .5899,.0199 .8845,.0352 .3092,.009 .6179,.0301 .9273,.0327 .2733,.0101 .5469,.006 .8203,.008 .3102,.0007 .62-.0159 .9298-.0308 .3324-.0254 .6651-.0498 .9966-.0843 .2805-.031 .559-.0782 .839-.1126 .2799-.0455 .5589-.0964 .8388-.1423 .2359-.038 .471-.0801 .704-.1335 .2016-.0334 .4014-.0739 .5992-.125 .1897-.0467 .3774-.0993 .5639-.1576 .2338-.0826 .4716-.153 .7099-.221 .2269-.0784 .4601-.1355 .6924-.1951 .2365-.0716 .4788-.1218 .7182-.1826 .2557-.0706 .5088-.15 .7567-.2446 .2624-.1099 .5255-.2174 .783-.3385 .2895-.1548 .5928-.28 .8965-.4033 .2421-.086 .4772-.1879 .7079-.3005 .1486-.0853 .2981-.1685 .4547-.2382 .1748-.0722 .3521-.138 .5273-.2093 .1571-.0628 .319-.1127 .476-.1756 .3184-.149 .1819-.0221-.008,.2327-.0166,.0256-.0332,.0513-.0498,.0769 0,0-.0245,.0334-.0245,.0334-.0357,.0426-.0713,.0852-.107,.1278-.1729,.2042-.2971,.3945-.5566,.4695-.1591,.0574-.3177,.1165-.4755,.1774-.1758,.0671-.3506,.1371-.522,.2148-.1521,.0752-.296,.1655-.4506,.2355-.2327,.112-.4761,.198-.7146,.2967-.3011,.1239-.5987,.2561-.8892,.4033-.2624,.1211-.5283,.2352-.7971,.3412-.2523,.0923-.5089,.1724-.7694,.2386-.2404,.0589-.4825,.1118-.7191,.1854-.2305,.0605-.4601,.1231-.6873,.1955-.2379,.0734-.476,.1463-.712,.2258-.188,.0576-.3782,.1076-.5695,.1534-.1994,.0473-.4014,.0805-.6021,.1218-.2335,.0448-.4681,.0833-.7024,.1236-.2799,.0475-.5597,.0962-.8404,.1391-.2785,.043-.5587,.078-.8392,.1054-.3322,.0308-.6644,.0616-.9977,.0775-.3119,.0186-.6241,.0352-.9366,.0286-.275,.0008-.5498-.004-.8247-.008-.3067-.0151-.6136-.0265-.9203-.0428-.2954-.008-.5906-.0192-.8859-.0317-.2769-.004-.5534-.0113-.8295-.0358-.3659-.0403-.7326-.0744-1.096-.1345-.4587-.0708-.9191-.1278-1.3808-.1746-.4198-.0489-.8426-.0882-1.2526-.1962-.3269-.0835-.6512-.1784-.9723-.2818-.2599-.0954-.5144-.2038-.769-.3121-.2764-.1336-.5511-.2708-.8215-.4162-.4212-.2428-.8246-.5113-1.223-.7899 0,0 .7916-.8199 .7916-.8199z"/>
<path d="m95.732,591.07c-.01,.7226-.1496,1.433-.339,2.1276-.2002,.6644-.4855,1.2983-.7411,1.9424-.2259,.539-.4323,1.0861-.614,1.6415-.1985,.5927-.378,1.1912-.5364,1.7958-.1714,.6533-.3248,1.3106-.5132,1.9594-.1791,.5705-.3708,1.1368-.547,1.7083-.1732,.5838-.3298,1.1724-.4723,1.7644-.0802,.3782-.1761,.7524-.2819,1.1242-.0992,.3514-.1782,.708-.2666,1.0622-.0963,.3684-.2026,.734-.3079,1.0998-.068,.2616-.1412,.5217-.225,.7787-.0561,.1895-.1223,.3756-.1878,.562-.0615,.1657-.1211,.3321-.178,.4993-.0492,.1269-.0716,.2607-.0953,.394-.0356,.3592-.1332,.4702-.3936,.7422-.0392,.0458-.0785,.0916-.1177,.1374l-.032,.0263c-.0332,.0139-.0665,.0279-.0996,.0418-.4,.2363-.2713,.0927-.2572-.2014 .016-.1373 .0379-.2748 .0771-.4076 .0586-.1662 .1162-.3327 .1745-.4991 .0709-.1863 .14-.3735 .1983-.5642 .0817-.2595 .1678-.5179 .2347-.7818 .1051-.3687 .2246-.7333 .3198-1.1049 .0911-.3547 .1733-.7116 .2661-1.066 .1066-.3764 .2164-.7517 .3003-1.134 .1502-.5936 .2984-1.1881 .4754-1.7745 .1714-.5765 .3686-1.1446 .5566-1.7158 .2036-.6514 .366-1.3137 .5367-1.9744 .1685-.6045 .34-1.208 .5368-1.804 .1886-.5567 .3884-1.1095 .6155-1.6518 .2715-.6442 .5543-1.2856 .7712-1.9509 .1978-.6905 .367-1.3945 .3703-2.1174l.7722-.6595z"/>
<path d="m64.907,594.74c.198,.8986 .3962,1.797 .5757,2.6996 .2444,1.3343 .4562,2.6742 .6551,4.0159 .2262,1.5559 .4074,3.1178 .5947,4.6786 .1531,1.3714 .2924,2.744 .4822,4.111 .0639,.6376 .1802,1.2772 .1987,1.9191 .0151,.5229-.0556,.1923 .055,.5818l-.0307,.0277c-.1314-.4625 .0345,.0248-.2195-.4351-.2801-.5072-.3558-1.1193-.4812-1.6738-.1946-1.3612-.3194-2.7313-.5037-4.0939-.1839-1.5559-.3815-3.1102-.6134-4.6598-.1957-1.339-.4056-2.676-.6633-4.0047-.167-.9042-.3482-1.8055-.5788-2.6958l.5291-.4706z"/>
<path d="m68.478,596.75c.4062,.9912 .6463,2.0409 .8619,3.0871 .3255,1.6719 .3647,3.3786 .3838,5.0761 .006,1.6911-.008,3.3837-.0887,5.0731-.0998,.877-.0492,.4501-.1513,1.281l-.0314,.027c-.1573-.6203-.0873-.2947-.2038-.9782-.0706-1.6677 .0419-3.3371 .0118-5.0059-.0332-1.6857-.0797-3.3801-.4072-5.0396-.2227-1.0346-.4808-2.0629-.8886-3.0426l.5134-.478z"/>
<path d="m72.865,595.66c.116,1.0749 .1328,2.1566 .1534,3.2365 .0378,1.863-.0825,3.721-.2644,5.5736-.2118,1.9258-.5059,3.841-.7587,5.7615-.1042,.6373-.1127,1.2873-.2159,1.9246-.0003,.002-.2028,.9775-.2128,1.0255l-.0314,.027c-.0843-.2202-.1809-.4348-.2047-.674-.0616-.6209 .0978-1.2493 .1376-1.8645 .2481-1.92 .5512-3.833 .7584-5.7583 .1784-1.8511 .3005-3.707 .2696-5.5681-.008-1.0719-.01-2.1507-.1644-3.2136l.5333-.4702z"/>
<path d="m78.238,596.98c-.0301,1.1216-.1221,2.2397-.2259,3.3565-.1847,2.0839-.4173,4.1625-.6898,6.2366-.241,1.6172-.4039,3.2485-.8164,4.8334l-.0318,.0266c-.1106-1.5175 .289-3.0148 .4372-4.5181 .2685-2.0624 .4983-4.1297 .6548-6.2039 .0797-1.1039 .1753-2.2087 .1842-3.316l.4877-.4151z"/>
<path d="m83.826,595.8c.0503,1.2224-.0998,2.4421-.24,3.6539-.2763,2.3221-.6385,4.6328-.9853,6.9451-.2361,1.1814-.2529,2.4057-.5085,3.5835-.0575,.2652-.252,.8629-.3417,1.1467l-.0318,.0266c-.0488-.2351-.1196-.5291-.1168-.7651 .003-.2241 .0391-.4467 .0648-.6693 .1116-.9665 .2755-1.926 .4112-2.8891 .3513-2.3019 .6966-4.6054 .9589-6.9195 .1243-1.189 .2516-2.386 .178-3.583l.6112-.5298z"/>
<path d="m88.693,595.47c-.2852,1.0486-.5301,2.1075-.7754,3.1661-.4146,1.841-.7597,3.6959-1.1848,5.5348-.3499,1.4333-.6798,2.8754-1.1304,4.2818-.441,1.2678-.2418,.6573-.6032,1.8295l-.0322,.026c.5162-2.0872-.1272,.5683 .3612-1.6335 .3113-1.4033 .7244-2.7828 1.0203-4.1898 .3944-1.8418 .7619-3.6892 1.1747-5.527 .2414-1.0659 .4959-2.1301 .7919-3.1822l.3779-.3057z"/>
<path d="m92.942,593.13c-.5816,1.3299-1.0696,2.698-1.5441,4.0689-.7962,2.3638-1.6144,4.72-2.4424,7.0729-.7146,1.8459-1.2289,3.7696-1.9698,5.6056-.1182,.2929-.2562,.5775-.3843,.8662-.1216,.2492-.2431,.4984-.3647,.7476l-.0324,.0258c.0297-.176 .0595-.3519 .0892-.5279 .5028-2.1368 1.4186-4.1578 2.0746-6.249 .8277-2.3468 1.6277-4.7029 2.4264-7.0597 .4709-1.3509 .9371-2.7046 1.4829-4.0277l.6646-.5227z"/>
<path d="m95.343,591.56c-.0529-.5171-.1495-1.0277-.2545-1.5363-.0935-.4486-.2047-.8932-.31-1.3392-.1015-.4805-.193-.9631-.3105-1.4401-.1186-.4927-.2897-.9706-.4958-1.4329-.1709-.4157-.3726-.8171-.5875-1.2115-.1559-.3102-.3256-.6143-.5196-.9022-.1851-.2901-.3697-.5806-.5472-.8754-.2021-.332-.423-.6521-.6439-.9717-.2128-.3199-.4341-.634-.6532-.9497-.1851-.2901-.3889-.5669-.5961-.8415-.1912-.2547-.4012-.4943-.6051-.7387-.1607-.1781-.3332-.3461-.5105-.5077-.1307-.1401-.2753-.2634-.4255-.3816-.181-.1455-.3567-.2952-.546-.43-.2212-.152-.4652-.2649-.7067-.38-.3082-.1436-.6162-.2879-.925-.4301-.2961-.1371-.5971-.2628-.8981-.3886-.2198-.0918-.4371-.189-.6705-.2402-.2556-.0465-.5124-.0842-.7665-.139-.2889-.0614-.5792-.1122-.8711-.1571-.2893-.0386-.58-.0667-.8699-.1008-.2098-.0178-.4183-.0456-.6286-.0569-.2118-.0162-.4248-.0216-.6372-.0207-.238-.0008-.4759-.003-.714-.003-.2816-.002-.563-.005-.843,.0276-.2704,.0434-.5432,.068-.8139,.1084-.3268,.0435-.6515,.1032-.9771,.1559-.337,.0453-.6736,.0921-1.0099,.1421-.358,.0575-.7123,.1352-1.067,.2095-.3055,.063-.598,.1732-.8984,.2551-.2898,.0855-.5792,.1706-.8735,.2393-.3154,.0693-.6312,.1364-.9474,.2018-.3402,.0529-.67,.1477-.9951,.2587-.3112,.0995-.6197,.2047-.9226,.327-.2637,.1156-.5155,.2555-.7658,.3972-.2579,.1522-.5211,.2949-.7744,.4548-.2498,.1596-.4958,.3242-.7335,.5012-.2412,.1834-.4978,.3446-.7465,.5172-.2473,.1666-.4915,.3379-.7366,.5077-.2183,.1433-.427,.3002-.6405,.4504-.2278,.1548-.4547,.3104-.6781,.4716-.246,.186-.4944,.3686-.7379,.5579-.2281,.1965-.4543,.3952-.6752,.5998-.406,.42 .1379-.144 .6905-.684 .0329-.0322-.0615,.0685-.0907,.104-.0833,.101-.1602,.208-.2375,.3135-.1516,.2001-.2544,.4295-.3732,.649-.1123,.2132-.2394,.4179-.3756,.6165-.1314,.1802-.2386,.3763-.3478,.5703-.1144,.2147-.2576,.4105-.4011,.6061-.1503,.2157-.3003,.4316-.4536,.6452-.1967,.2507-.3368,.5362-.4686,.8244-.1385,.3062-.2477,.6243-.3565,.9419-.062,.1953-.1407,.3846-.2045,.5792-.0675,.2088-.1084,.4248-.1543,.6391-.0379,.2162-.0853,.4305-.1321,.6448-.04,.1768-.0763,.3542-.1078,.5327-.028,.145-.0326,.2932-.0484,.4398-.0134,.1584-.0385,.3155-.058,.4733-.0246,.1365-.0298,.2751-.041,.4129-.003,.139 .002,.2781-.003,.417 .009,.1183 .004,.238 .0189,.3558 .017,.1155 .0445,.229 .0492,.346 .004,.0722-.0125,.1435-.0177,.2154 .0125,.2183 .1047,.4278 .1781,.6319 .1089,.3367 .2972,.6506 .359,1.0004 .0277,.2103-.122,.366-.1745,.5627l-.0298,.0286c-.2094,.0198-.3031,.1576-.4791,.0543-.2704-.2228-.3322-.594-.4901-.8939-.0928-.2021-.199-.3987-.251-.6164-.0111-.0534-.0291-.102-.0421-.1543-.0239-.1096-.0354-.2219-.0653-.3303-.0165-.1222-.0205-.2455-.0294-.3684-.004-.1405 .0002-.2815 .002-.422-.003-.1389 .008-.2777 .0236-.4157 .0226-.1571 .0448-.3145 .0647-.4718 .0105-.1475 .0242-.2946 .0361-.4419 .0282-.1827 .0766-.3621 .1105-.5438 .0478-.2141 .0972-.4279 .1363-.6437 .0371-.2187 .0878-.4345 .1408-.6499 .066-.1952 .1321-.3898 .2054-.5825 .1144-.3203 .22-.644 .3564-.9559 .1279-.2887 .2506-.5833 .4424-.8371 .1542-.2115 .3074-.4233 .45-.6429 .1395-.194 .2942-.3781 .4048-.5913 .1133-.1949 .2183-.3948 .3422-.5834 .1459-.192 .2739-.3956 .3901-.6069 .1209-.22 .2209-.4521 .3624-.66 .4013-.5813 .8972-1.0778 1.4293-1.5475 .2233-.2033 .4489-.4045 .6842-.5939 .2443-.1887 .4931-.3714 .7415-.5547 .2238-.1599 .451-.3146 .6774-.4707 .2116-.1547 .4258-.3054 .6436-.4511 .2462-.1709 .4923-.3418 .74-.5104 .2511-.1677 .5007-.3376 .7424-.5189 .242-.1736 .4904-.338 .7427-.4962 .2582-.1547 .5203-.3028 .7806-.454 .2542-.1402 .5108-.2786 .7802-.3876 .3052-.1183 .6164-.2186 .9275-.3202 .3315-.1026 .6645-.1965 1.0078-.2521 .3144-.0673 .6298-.1303 .9431-.2025 .2934-.0727 .5815-.1643 .8725-.2459 .3006-.0868 .5977-.1871 .905-.2491 .3554-.0735 .7109-.1473 1.0697-.2021 .3373-.054 .677-.0906 1.0138-.1476 .3269-.0508 .652-.1121 .9802-.1545 .273-.0318 .5441-.0772 .8177-.1045 .2837-.019 .5671-.0234 .8515-.0193 .2401-.0008 .4801-.003 .7202-.002 .2161,.005 .4323,.005 .648,.0225 .2084,.0228 .4183,.0337 .6256,.0668 .2904,.0319 .5807,.0642 .8697,.1068 .2945,.0398 .5861,.0954 .8761,.1598 .26,.0418 .5196,.0873 .778,.1373 .236,.0645 .4616,.1571 .6851,.2561 .2986,.1322 .5995,.2592 .8958,.3966 .3084,.1449 .6208,.281 .9289,.4263 .2505,.1149 .4977,.2368 .725,.394 .1927,.1338 .3661,.2928 .5527,.435 .151,.1232 .2915,.2584 .4318,.3936 .1689,.1767 .3524,.3405 .5048,.5328 .2034,.2482 .4092,.4945 .5999,.7527 .2059,.2792 .3987,.5672 .5868,.8587 .211,.3216 .4323,.6361 .6454,.9562 .2184,.3239 .4455,.642 .6509,.9745 .1785,.2938 .3486,.5928 .541,.878 .1799,.3044 .3595,.6078 .5073,.9298 .1929,.4123 .3921,.8218 .5669,1.2424 .188,.4783 .3823,.9557 .4965,1.4585 .1074,.4812 .2018,.9649 .3045,1.4469 .0954,.4495 .2141,.8934 .3093,1.343 .1017,.5107 .1785,1.0258 .2631,1.5395l-.8676,.7605z"/>
</g>
<g fill="none">
<g transform="matrix(9.4657 0 0 9.4657 -541.377 -5410.351)">
<path fill="#d3c598" d="m65.949,606.86c-.0524-.1698-.2917-.854-.5318-1.5204-.2401-.6664-.5233-1.7921-.6292-2.5015-.2115-1.416-.8262-3.7562-1.9899-7.5757-.4173-1.3698-.7178-2.5315-.6676-2.5817 .229-.229 .7166,.3693 1.1244,1.3796 .2624,.6502 .5641,1.1277 .7331,1.1605 .1579,.0306 .3338,.2636 .3908,.5176 .057,.254 .17,.7335 .251,1.0656 .4317,1.7688 1.6472,10.132 1.4947,10.285-.0441,.0441-.1231-.0587-.1755-.2285z"/>
<path fill="#dee1b9" d="m69.869,612.27c-1.6306-.6063-2.2304-1.0439-2.4505-1.7881-.1059-.3579-.3944-2.3974-.6412-4.5324-.6319-5.4668-1.505-10.708-1.8608-11.171-.1252-.1628-.021-.2156 .4254-.2156 1.279,0 3.622,2.145 2.6858,2.4588-.1658,.0556-.1466,.2682 .083,.9201 .7515,2.1335 .8531,2.9861 .9685,8.1224 .0622,2.7675 .1713,5.09 .2424,5.1612 .3162,.316 .3919-.3713 .4497-4.0811 .0774-4.9693-.1316-6.922-1.0972-10.252-.1535-.5293 .785-1.4664 1.4686-1.4664 .7419,0 1.1087,.2313 1.5696,.9898 .217,.357 .4676,.6992 .557,.7604 .3039,.2081 .009,6.7511-.4731,10.499-.2503,1.9451-.4969,3.8666-.5481,4.2698-.0512,.4033-.1466,.7292-.2119,.7242-.0654-.005-.5906-.1844-1.1672-.3988z"/>
<path fill="#e5dec3" d="m69.537,612.06c-.5693-.2358-1.2535-.6465-1.5204-.9126-.5289-.5273-.5122-.436-1.7558-9.5682-.2562-1.8808-.639-4.1904-.8507-5.1324l-.385-1.7127h.4539c.4832,0 1.8161,.7666 2.2466,1.292 .1423,.1737 .2642,.6722 .2708,1.1077 .007,.4355 .1842,1.4129 .3945,2.172 .3207,1.157 .4103,2.1191 .5542,5.9519 .1853,4.9342 .276,6.0381 .4961,6.0381 .2872,0 .3499-.8657 .3522-4.8611 .003-4.3143-.1349-5.8857-.7185-8.2187-.2688-1.0744-.3144-1.5328-.1814-1.8246 .2242-.492 1.1328-.9412 1.6888-.8349 .535,.1023 1.4531,1.2453 1.6299,2.0293 .148,.6562-.0606,5.906-.3426,8.6208-.2477,2.3852-.6882,5.8211-.7796,6.0812-.106,.3017-.3675,.2633-1.553-.2277z"/>
<path fill="#dcd1ad" d="m73.356,612.98-1.5296-.1701 .1179-1.228c.0648-.6754 .3119-2.6254 .5491-4.3333 .3042-2.1902 .4606-4.2636 .5308-7.0356l.0996-3.9303 .506-.4258c.3707-.3119 .7096-.4258 1.2673-.4258 .6758,0 .8728,.1011 1.7551,.9003l.9938,.9003-.0524,1.3856c-.0717,1.896-.4848,6.1094-.8983,9.1632-.3735,2.7578-.4317,3.8591-.1906,3.6 .3313-.356 1.3476-7.7982 1.6773-12.283 .0645-.8777 .1801-1.5958 .2568-1.5958 .0767,0 .3852-.3571 .6855-.7935 .9669-1.4053 2.1758-1.6372 3.2896-.631l.7147,.6457-.1084,1.8989c-.0596,1.0444-.4198,4.029-.8005,6.6324-.3807,2.6034-.6921,4.986-.6921,5.2947 0,.8379 .2751,.8478 .4984,.0179 .228-.8471 1.674-11.115 1.851-13.143 .1178-1.3504 .1329-1.3854 .9471-2.1996 1.1159-1.1158 2.0476-1.1356 2.9474-.0626l.4647,.5541-.3408,1.3303c-.1874,.7316-.6444,2.7445-1.0155,4.473-.3711,1.7285-.9541,4.3038-1.2957,5.723-.3416,1.4192-.5978,2.7389-.5694,2.9328 .0742,.5074 1.2831-3.6728 1.9685-6.807 1.4602-6.6776 1.6321-7.3184 2.0483-7.6362 .2421-.1848 .4797-.6431 .6056-1.1681 .2387-.9952 .4516-1.1506 1.7919-1.3082 .9285-.1091 1.1606-.003 .818,.3738-.1756,.1932-.578,1.3022-3.3453,9.2211-1.144,3.2735-2.2532,6.6099-2.4649,7.4142l-.385,1.4624-1.6152,.4688c-3.3324,.9672-7.0651,1.2317-11.081,.7852z"/>
<path fill="#cebf8c" d="m86.358,611.54c0-.0488 .1255-.3315 .279-.6282 .3019-.5839 1.147-2.939 3.5144-9.7944 2.5732-7.4513 2.5596-7.4183 3.0469-7.4183 .3486,0 .4994-.1695 .8441-.9488 .2308-.5219 .5088-.9488 .6178-.9488 .3425,0 .0407,1.37-.7993,3.6274-.7996,2.1491-1.6648,4.9942-3.1987,10.519-1.2628,4.5483-1.1592,4.3074-2.0106,4.6793-.4075,.178-1.0902,.4762-1.5172,.6626-.427,.1864-.7763,.299-.7763,.2502z"/>
<path fill="#b1974b" d="m77.487,595.79c-.7303-.6614-1.1135-.8764-1.7248-.9681-1.0636-.1595-1.5369-.0114-2.2534,.7052-.4161,.4161-.6071,.5207-.6071,.3324 0-.1511-.08-.2253-.1777-.1649-.0977,.0604-.4498-.1291-.7823-.4211-.7665-.673-1.6545-.7143-2.5335-.1177l-.6088,.4132-.339-.4585c-.4047-.5474-2.0233-1.4029-2.6542-1.4029-.2468,0-.6534,.1611-.9037,.3579-.4324,.3401-.4605,.3423-.5641,.0432-.5925-1.7104-1.2303-2.4125-2.0494-2.256-.62,.1185-.6976-.3976-.3599-2.396 .3481-2.0607 .7852-3.1522 2.0948-5.2314 1.296-2.0577 1.7664-2.5204 4.3572-4.2851 2.5699-1.7505 2.9496-1.921 5.9871-2.6882 5.9603-1.5053 9.0833-1.4442 12.611,.2469 2.0485,.982 2.7884,1.7026 4.7128,4.5899 1.6478,2.4722 2.3492,3.9416 2.8475,5.9653 .6302,2.5592 .6953,3.0657 .3938,3.0657-.2563,0-1.3968,1.1519-1.5269,1.5421-.055,.1651-.169,.1658-.5254,.003-.3452-.1573-.716-.1614-1.5352-.0171-1.225,.2158-1.9245,.7463-2.2386,1.6978l-.1919,.5815-.6752-.61c-.5395-.4874-.816-.61-1.3761-.61-.8974,0-1.2545,.1902-2.344,1.2486l-.8895,.864-.6919-.556c-1.1384-.9148-2.2668-.7006-3.6628,.6953-.3745,.3745-.7189,.6809-.7653,.6809-.0464,0-.5069-.3826-1.0233-.8502z"/>
</g>
<g transform="matrix(9.4657 0 0 8.16473 -3791.04647 -5354.26199)">
<path fill="#611020" stroke="#60101f" stroke-width=".174" d="m422.11,1092.3c-.2971,.033-.5638,.1594-.813,.3173-.1273,.096-.1274,.091-.245,.2001-.039,.036-.154,.1463-.1142,.1111 .0503-.044 .0877-.1054 .1459-.1391 .0452-.026-.0709,.077-.1056,.1158-.0364,.041-.0719,.082-.1078,.1238-.2188,.2447-.3835,.5212-.4925,.8297-.0948,.3111-.1198,.6369-.1077,.9603 .0107,.2638 .0927,.5125 .1895,.7552 .0958,.2295 .2313,.4359 .3881,.6274 .1885,.2204 .4258,.3864 .6725,.5346 .2892,.1677 .6021,.2869 .9235,.3755 .3237,.09 .6563,.12 .9908,.1223 .3902-.01 .764-.1237 1.1287-.2526 .2912-.1021 .5556-.2554 .7818-.4643-.5751,.5978-.2418,.2385-.1389,.086 .0762-.1133 .1413-.2332 .2057-.3534 .1122-.215 .2032-.4407 .2697-.6738 .0482-.1787 .0649-.3631 .0719-.5474 .004-.1995-.005-.3986-.0292-.5966-.0303-.2086-.1113-.4024-.2021-.5908-.0874-.1934-.2241-.3528-.3653-.5083-.1639-.1804-.3625-.3233-.5625-.4604-.2052-.1449-.4309-.2559-.6585-.3605-.2676-.1108-.546-.1928-.8271-.2608-.3465-.088-.7013-.105-1.0564-.082-.1965,.016-.3893,.058-.5836,.089-.0573,.01-.1151,.036-.1722,.025-.0376-.01-.0592-.048-.0888-.072l.0132-.017c.114-.081 .2222-.1712 .342-.2434 .2653-.1598 .5832-.2128 .8847-.2499 .3629-.021 .7239,0 1.0782,.085 .284,.071 .5668,.1515 .8359,.2682 .2325,.1032 .4554,.2248 .6648,.37 .2038,.1402 .4007,.2915 .5707,.4723 .146,.1591 .2794,.3319 .3712,.5285 .0895,.1987 .166,.404 .1956,.6213 .0287,.2036 .0305,.409 .0234,.6143-.007,.1904-.0271,.3806-.0735,.5658-.0653,.2407-.1611,.4711-.275,.693-.2115,.4041-.4463,.734-.8127,1.0316-.2298,.1979-.4944,.3348-.7823,.4308-.3685,.1239-.7447,.2309-1.1368,.2355-.3381,0-.6728-.04-.9985-.1346-.3214-.099-.6351-.2195-.9237-.3945-.2486-.1554-.4875-.3265-.6741-.5559-.1594-.1964-.2953-.4093-.3899-.645-.1026-.2489-.1772-.507-.189-.7779 0-.3342 .0266-.6684 .1209-.9909 .1112-.3225 .2812-.6094 .5112-.8632 .2807-.3247 .5752-.6466 .9283-.8935 .2518-.1526 .5188-.266 .8147-.2969 0,0-.1969,.2356-.1969,.2356z" transform="translate(0 -435.83)"/>
<path fill="#9e122d" d="m422.84,1097.1c-1.024-.1468-1.9866-.8116-2.3296-1.6089-.1595-.3707-.1898-.5722-.1565-1.0385 .0228-.3182 .1093-.7099 .1923-.8704 .2276-.4401 .7263-.9539 1.0478-1.0797 .1575-.062 .4172-.171 .5772-.2431 .2597-.117 .3546-.1155 .8839,.014 2.0919,.5138 3.0185,1.7802 2.4947,3.4093-.2431,.7561-.4469,.9882-1.0686,1.2172-.6125,.2256-1.0711,.2814-1.6412,.1996z" transform="translate(0 -435.83)"/>
</g>
<g transform="matrix(9.4657 0 0 9.4657 -541.377 -5410.351)">
<path opacity=".619" fill="url(#radialGradient12758)" filter="url(#filter5523-7-1-4)" d="m681.46,824.19c0,10.098-10.526,18.284-23.511,18.284s-23.511-8.1859-23.511-18.284 10.526-18.284 23.511-18.284 23.511,8.1859 23.511,18.284z" transform="matrix(.55161 0 0 .46498 -289.99 202.01)"/>
</g>
<g transform="matrix(9.4657 0 0 9.4657 -3738.51183 -6217.30192)">
<path fill="#121210" stroke="#0c0b0b" stroke-width=".174" d="m417.97,1099.1c-.3924,.086-.7653,.234-1.1215,.4172-.1229,.076-.1755,.1027-.2862,.1921-.0394,.032-.148,.1383-.1133,.1014 .3393-.3613 .0524-.01-.0009,.078-.1473,.2539-.2212,.5383-.2763,.8241-.0517,.2744-.0195,.5443 .0676,.8068 .0761,.2106 .2072,.3882 .3578,.5506 .1349,.1288 .3032,.2018 .476,.264 .1885,.063 .3884,.093 .5871,.088 .0917,0 .1794-.024 .2689-.039 .1624,.01 .321,.049 .4812,.075 .252,.045 .5076,.062 .7625,.037 .0906-.02 .2022-.027 .2784-.088 .0122-.01 .0432-.045 .0319-.034-.0987,.094-.196,.189-.2941,.2835 .0489-.1462 .0202-.3087 .004-.4589-.0219-.1708-.0504-.3412-.0572-.5135-.009-.1349 .007-.2666 .0486-.3949 .036-.1005 .0926-.1911 .1442-.2839 .0386-.063 .0626-.1322 .0678-.206 .0007-.083-.0239-.1636-.048-.2426-.0209-.077-.0428-.1541-.0676-.2302-.028-.08-.0653-.1562-.1026-.2324-.036-.092-.0852-.1755-.151-.2488-.0778-.091-.1661-.1714-.2525-.2537-.0788-.069-.1527-.1452-.2355-.2098-.0652-.052-.14-.087-.2113-.1287-.0898-.051-.1823-.094-.281-.1252-.0398-.023-.2146-.058-.2084-.1271 .005-.056 .0378-.105 .0567-.1575 0,0 .0141-.016 .0141-.016 .2405-.1507 .2444-.1657 .4967-.093 .1003,.037 .2023,.071 .2958,.1235 .0752,.041 .1501,.084 .2179,.1359 .0806,.07 .1615,.1388 .2388,.2121 .088,.084 .1789,.1666 .2554,.2616 .0588,.084 .1136,.1682 .1524,.2636 .0383,.079 .0818,.1568 .1026,.243 .0237,.078 .0339,.1598 .0626,.2365 .0225,.084 .0522,.1675 .0575,.2551 .001,.083-.0182,.1582-.0596,.2309-.0516,.094-.1129,.1832-.1551,.2823-.0482,.1219-.0677,.2492-.0619,.3805 .0108,.1721 .0312,.3426 .0534,.5136 .0153,.1678 .0292,.3403-.0125,.5056-.3186,.3373-.2793,.4078-.6496,.4359-.254,.01-.5074-.01-.7573-.058-.1551-.03-.3132-.073-.4722-.065-.0894,.013-.178,.031-.2691,.027-.1984-.024-.3985-.037-.5892-.1031-.1771-.064-.345-.1499-.4801-.2844-.1601-.1609-.2859-.352-.367-.5647-.0869-.2699-.1243-.5443-.0721-.8266 .0485-.2874 .1208-.5716 .2613-.8294 .2211-.3662 .5408-.6714 .9136-.8804 .3623-.1808 .74-.3319 1.1364-.4197l-.2377,.2896z" transform="translate(0 -435.83)"/>
<path fill="#382410" d="m418.55,1102.5c-.0246-.025-.3395-.057-.6997-.071-.7656-.031-1.1047-.1719-1.3735-.5711-.2822-.4192-.3349-.8763-.161-1.3949 .1848-.551 .3398-.7284 .8263-.946 .7437-.3327 .8467-.3382 1.2719-.069 .4381,.2778 .697,.6047 .848,1.0704 .0843,.26 .0768,.3778-.0422,.6626-.1052,.2519-.1302,.4852-.0916,.8549l.0532,.5085h-.2933c-.1613,0-.3134-.02-.338-.045z" transform="translate(0 -435.83)"/>
</g>
<g transform="matrix(9.4657 0 0 9.4657 -3848.31395 -6133.13292)">
<path fill="#121210" stroke="#0c0b0b" stroke-width=".174" d="m423.07,1097.3c-.2476-.015-.4922,.019-.7059,.1486-.2074,.1933 .1059-.099 .117-.1061 .0271-.017-.0347,.054-.0482,.083-.0377,.081-.0503,.1684-.0596,.2561-.006,.1759 .0831,.3011 .2137,.4076 .1714,.115 .3777,.1606 .5741,.2152 .143,.04 .278,.1048 .3895,.2035 .074,.059 .1384,.126 .2212,.1729 .1531,.076 .3248,.1109 .4911,.1475 .1762,.04 .3554,.045 .5344,.027 .0563-.011 .1137-.03 .1572-.069 .0121-.011 .0438-.049 .0317-.038-.2319,.2108-.262,.3126-.2071,.1658 .0347-.1374 .0276-.2819 .0222-.4224-.009-.1058-.007-.2122-.023-.3173-.008-.077-.0205-.1556-.0194-.2334 .002-.063 .003-.1264 .001-.1897-.006-.074-.0487-.1342-.0934-.1912-.0878-.084-.194-.1443-.3007-.2003-.1006-.055-.2019-.1097-.2935-.1787-.0717-.057-.1549-.093-.236-.1343-.0758-.033-.1564-.049-.237-.065-.0808-.017-.1624-.022-.2446-.016-.0877,.016-.167,.064-.2545,.079 .0323-.079 .0221-.043 .0357-.1071l.013-.017c.1224-.1138 .0582-.053 .1923-.1811 .0876-.047 .1844-.079 .2831-.094 .0863,0 .1733,.0002 .258,.018 .0826,.019 .1658,.036 .2431,.072 .086,.036 .1676,.084 .2436,.1376 .094,.062 .1877,.1248 .2867,.1792 .1078,.064 .2238,.1202 .3087,.2147 .0526,.062 .1001,.13 .1077,.2132 .005,.066-.006,.1316-.007,.1976 .002,.076 .005,.1509 .0205,.2255 .0133,.1116 .0185,.2229 .01,.3353-.002,.1474 .005,.2966-.0246,.4418-.0698,.2083-.2621,.4063-.4848,.4237-.178,.0003-.3562-.01-.5313-.043-.1731-.035-.348-.07-.5096-.1439-.0791-.054-.1469-.1186-.2189-.181-.1163-.085-.2306-.1701-.3762-.1982-.205-.052-.418-.092-.5972-.2107-.1368-.1119-.2405-.2411-.2414-.4263 .0157-.3257 .1967-.5413 .4699-.7368 .2255-.1246 .4768-.1507 .7321-.1477 0,0-.2439,.2828-.2439,.2828z" transform="translate(0 -435.83)"/>
<path fill="#382410" d="m423.87,1098.6c-.1701-.094-.4486-.234-.6187-.3099-.6985-.3117-.7513-.3557-.7513-.6261 0-.2255 .0368-.2659 .2652-.291 .1458-.016 .3524-.1104 .4591-.2097 .2316-.2155 .4828-.1746 1.0287,.1672 .4796,.3004 .4979,.3346 .4995,.9335l.001,.5082-.2873-.0001c-.158-.0001-.4265-.078-.5966-.1721z" transform="translate(0 -435.83)"/>
</g>
<g transform="matrix(9.4657 0 0 9.4657 -3866.20412 -6064.08064)">
<path fill="#121210" stroke="#0c0b0b" stroke-width=".174" d="m430.62,1096.4c-.1477,.2113-.2743,.4385-.3233,.6932-.029,.2244 .0822,.3737 .2499,.5048 .2232,.1515 .4877,.2042 .7509,.2347 .2753,.023 .5471-.026 .8076-.1118 .0925-.035 .1859-.074 .2679-.13 .0953-.066 .3418-.3179-.0652,.073 .0983-.114 .1275-.254 .1447-.3989 .0111-.1266-.0229-.2323-.0838-.3405-.0738-.1114-.1719-.2032-.2679-.2949-.0867-.072-.1781-.1385-.2681-.2064-.0784-.071-.1669-.1223-.2677-.1535-.063-.024-.1286-.028-.1942-.034-.0453,0-.0862,0-.1276-.019-.0629-.024-.1224-.055-.1845-.08-.0577-.024-.1162-.046-.1773-.058-.0608-.016-.1089,0-.1577,.034-.1114,.099-.0841,.075 .2172-.2166 .0127-.012-.0243,.026-.0363,.039-.0371,.041-.0731,.083-.1089,.1245-.1587,.1804-.3261,.3519-.5274,.4832 .0693-.098-.246,.217-.1592,.1304 .269-.2684 .3207-.3307 .2181-.2108-.0794,.11-.1859,.1954-.28,.2923l-.017,.013c.008-.06 .007,.01-.0543,0-.0242,0 .0617-.073 .0344-.065 .1339-.1838 .3095-.3429 .4974-.4717 .0322-.022 .0582-.039 .0894-.062 .0135-.01 .0515-.043 .04-.031-.4328,.4585-.2609,.2617-.163,.1636 .1522-.1753 .304-.36 .4898-.499 .0605-.03 .1179-.032 .1834-.016 .0626,.017 .1241,.036 .1845,.061 .0599,.027 .1185,.056 .1773,.085 .0378,.01 .0747,.018 .1141,.018 .0684,0 .1355,.027 .2018,.041 .1007,.04 .1993,.086 .2803,.1597 .0841,.075 .1754,.1417 .2587,.2179 .1058,.087 .2003,.1895 .2777,.3023 .0666,.112 .0915,.2355 .0899,.3658-.0113,.1507-.0471,.2971-.1373,.4216-.2216,.227-.3807,.4263-.6866,.5137-.2623,.076-.5287,.1165-.8026,.086-.2696-.033-.5305-.092-.7561-.2522-.1715-.1354-.2847-.298-.272-.5259 .0402-.2551 .1612-.4816 .3046-.6943l.2382-.1799z" transform="translate(0 -435.83)"/>
<path fill="#382410" d="m431.04,1097.8c-.3042-.072-.7234-.402-.7234-.5699 0-.053 .0773-.2406 .1717-.4168 .0945-.1763 .1532-.3391 .1304-.3618-.0227-.023 .0147-.088 .0832-.1446 .1996-.1657 .9098,.069 1.3038,.4315 .3269,.3004 .3761,.4021 .3541,.7316-.0174,.261-.7917,.4546-1.32,.33z" transform="translate(0 -435.83)"/>
</g>
<g transform="matrix(9.4657 0 0 9.4657 -3725.63848 -6138.23493)">
<path fill="#121210" stroke="#0c0b0b" stroke-width=".174" d="m428.01,1100c-.3164,.2534-.2133,.1079-.3863,.3754-.1125,.1849-.0904,.3597 .0215,.5353 .115,.155 .2868,.2438 .4401,.3533 .0955,.069 .1625,.1629 .2283,.258 .0604,.09 .0896,.194 .1364,.2908 .0632,.1445 .174,.2483 .3051,.331 .1409,.083 .2971,.1183 .4581,.1332 .1983,.019 .3889-.024 .5713-.099 .0927-.047 .1819-.1 .2625-.1658 .0204-.017 .0776-.072 .059-.053-.1781,.1802-.1738,.1804-.1045,.086 .0537-.089 .0761-.1926 .0868-.295 .0007-.093 .0105-.1844 .006-.2775-.008-.092-.0455-.1734-.092-.2513-.0518-.073-.104-.1465-.1538-.2214-.043-.067-.0815-.136-.0997-.2135-.0105-.086 .0364-.1606 .072-.2352 .0334-.069 .0761-.1343 .0947-.2097 .0165-.062-.007-.1103-.0452-.1586-.0665-.08-.167-.1136-.2604-.1516-.1195-.049-.2395-.099-.3649-.1303-.0742-.017-.1497-.04-.2263-.042-.0725,.014-.1409,.047-.2108,.072-.1061,.028-.2041,.077-.3065,.1151-.0748,.026-.1494,.05-.2273,.064-.082,.016-.1657,.022-.2489,.026-.0915,.01-.1826,.015-.2738,.024-.0742-.011 .0127-.1076 .027-.1319l.0136-.016c.0646-.061 .1215-.1294 .2098-.1527 .0924-.014 .1856-.019 .2786-.026 .0824-.01 .1653-.011 .2459-.031 .0743-.016 .1476-.038 .2189-.064 .1018-.041 .2032-.082 .3079-.1157 .0738-.027 .1462-.066 .2264-.067 .0817,0 .1618,.017 .2406,.04 .125,.039 .2486,.081 .3687,.133 .1005,.04 .2064,.079 .2826,.1589 .046,.056 .0898,.1169 .0671,.1921-.0252,.087-.0693,.1646-.1187,.2403-.0408,.069-.0863,.1407-.0958,.2216 .01,.072 .073,.1276 .1011,.1936 .0453,.078 .1018,.1472 .1551,.2196 .0559,.082 .1025,.1721 .0968,.2747 .0001,.1015-.0121,.2021-.0274,.3024-.0148,.1237-.0457,.2376-.119,.3412-.152,.2107-.348,.3914-.5904,.4874-.1873,.072-.3805,.1143-.5827,.095-.1628-.02-.3242-.054-.466-.1407-.1339-.086-.2456-.1938-.3157-.3392-.0449-.096-.0854-.1941-.1353-.2876-.0572-.097-.1285-.1866-.2186-.2551-.1538-.1134-.3209-.2123-.4437-.3617-.1203-.179-.1503-.355-.0432-.5522 .1809-.29 .4488-.5142 .7229-.7137 0,0-.1477,.1946-.1477,.1946z" transform="translate(0 -435.83)"/>
<path fill="#382410" d="m428.93,1102.1c-.1551-.068-.3802-.2791-.5-.4689-.1199-.1899-.3362-.4448-.4807-.5664-.3627-.3052-.4259-.5504-.2001-.7762 .0997-.1 .2757-.1813 .3911-.1813 .1154,0 .3663-.055 .5575-.1226 .2901-.1023 .4034-.1034 .6851-.01 .4623,.1589 .5205,.2354 .3929,.5156-.0925,.203-.0806,.2848 .0842,.5779 .2323,.4133 .2418,.6376 .0372,.875-.2065,.2396-.6209,.3054-.9671,.1535z" transform="translate(0 -435.83)"/>
</g>
<g transform="matrix(9.4657 0 0 9.4657 -3758.3898 -6218.18224)">
<path fill="#121210" stroke="#0c0b0b" stroke-width=".174" d="m424.24,1103c-.0448,.038-.1837,.1501-.2111,.1956-.0176,.029 .0542-.041 .0813-.062-.0329,.048-.0685,.093-.0988,.1423-.0729,.1184-.0862,.1638-.1387,.2899-.089,.2368-.1153,.4262-.002,.6551 .1182,.1833 .3027,.2771 .5016,.3483 .1946,.063 .3986,.088 .5982,.1306 .1642,.035 .3177,.1038 .4683,.1763 .1437,.058 .2916,.1122 .4463,.1297 .215,.034 .4476-.2551 .1187,.064 .1096-.1324 .1576-.2973 .1881-.4633 .0206-.1561-.009-.308-.0474-.4583-.0242-.089-.0507-.1763-.0553-.2691-.004-.062-.003-.1244-.0129-.1863-.002-.074-.0207-.1381-.0649-.1981-.0658-.063-.1385-.1192-.2055-.1822-.0418-.039-.0812-.079-.119-.1214-.0199-.035-.0162-.076-.0204-.1143-.005-.063-.0423-.1099-.0838-.1542-.0755-.066-.1685-.105-.2636-.1337-.1194-.038-.2456-.043-.3698-.051-.1033,0-.2073-.01-.3079,.017 .008-.047-.1508,.1162-.117,.082 .4694-.4675 .2761-.2798 .1785-.1686-.105,.1129-.4482,.5023-.475,.4656 .0116-.021 .0232-.042 .0349-.063l.0125-.017c.0392-.049 .0785-.097 .1177-.1454 .1514-.1732 .0899-.099-.1703,.1584-.0934,.092 .2424-.2398 .147-.1529 .1573-.1798 .3043-.3997 .534-.4814 .1047-.022 .2106-.015 .3168-.01 .129,0 .2582,.016 .3823,.054 .1003,.036 .2001,.072 .28,.1452 .0561,.053 .1012,.1091 .095,.1908-.006,.04-.0115,.079-.0194,.1186 .0142,.046 .0812,.079 .1073,.1188 .0695,.063 .1366,.1279 .201,.1958 .0491,.064 .0755,.1306 .0778,.2119 .005,.064 .005,.127 .009,.1907 .0125,.091 .022,.182 .0466,.2702 .036,.1619 .0575,.3273 .0283,.4923-.0309,.1716-.0757,.3411-.1841,.4818-.1788,.1807-.2862,.37-.5485,.3256-.1494-.039-.2982-.079-.4364-.1505-.1522-.064-.3003-.1398-.4633-.1736-.1994-.044-.4033-.069-.5965-.138-.2013-.077-.3988-.1687-.5192-.357-.1255-.218-.0928-.4443-.009-.6749 .1565-.3907 .4073-.6907 .7399-.9519 0,0-.1705,.2265-.1705,.2265z" transform="translate(0 -435.83)"/>
<path fill="#382410" d="m424.98,1104.7c-.8842-.2854-1.1163-.4485-1.1109-.7807 .003-.2061 .3372-.9526 .3461-.7739 .002,.041 .1261-.029 .2756-.1547 .1496-.1258 .2987-.2286 .3315-.2283 .1851,0 .7224,.1964 .7224,.262 0,.043 .1002,.1965 .2226,.342 .4042,.4804 .4802,1.6275 .1057,1.5962-.0591,0-.4609-.1231-.8931-.2626z" transform="translate(0 -435.83)"/>
</g>
<g transform="matrix(9.4657 0 0 9.4657 -3747.40959 -6207.18309)">
<path fill="#121210" stroke="#0c0b0b" stroke-width=".174" d="m419.42,1106.7c-.1598,.1671-.2962,.3524-.2987,.5901 .0372,.2266 .1953,.3734 .3842,.4849 .1789,.1059 .3833,.144 .5838,.1865 .1925,.035 .3834,.077 .5738,.122 .1676,.039 .3354,.076 .5079,.08 .0852,0 .1662,0 .2333-.052 .1164-.1266-.0567,.063-.1956,.1886-.0162,.015 .0269-.035 .0393-.053 .0452-.065 .0815-.1344 .1163-.2057 .0542-.108 .0969-.2213 .1505-.3295 .0466-.087 .106-.1653 .144-.2567 .0306-.08 .037-.1663 .0343-.2509-.006-.063-.0278-.1277-.0571-.1841-.0227-.065-.0559-.1253-.0983-.1798-.063-.069-.1263-.1359-.1994-.1939-.053-.046-.1106-.087-.1723-.1208-.0565-.04-.1172-.071-.1774-.1048-.0618-.034-.1254-.066-.1832-.1061-.0815-.068-.1651-.1358-.2578-.1884-.1063-.058-.2251-.07-.3431-.084-.1737,0-.4286,.3169 .0367-.1416-.0492,.052-.0814,.1172-.1255,.1734-.1261,.1438-.2548,.2926-.4169,.3962-.055,.033-.1173,.05-.1741,.079-.0682,.04-.1327,.085-.2008,.1253-.1194,.063-.3002,.2446 .1394-.1654 .0225-.021-.0345,.051-.0491,.078-.0476,.096-.1246,.1743-.1867,.262l-.0166,.013c-.045-.035-.1015,.02-.0748-.058 .0721-.1873 .2386-.3242 .4106-.4215 .0691-.042 .1343-.091 .2066-.1272 .0587-.026 .119-.051 .173-.087 .326-.2411-.3285,.3283-.1135,.1304 .0452-.055 .0809-.1162 .1227-.174 .1552-.157 .2862-.3838 .5272-.3797 .1239,.01 .2479,.034 .3587,.092 .0934,.056 .1742,.1269 .2604,.192 .0546,.044 .1129,.077 .1784,.1028 .0622,.032 .1208,.07 .1815,.105 .0571,.044 .1213,.077 .1773,.1227 .0715,.063 .1452,.1254 .2049,.2 .0445,.055 .0854,.1131 .1146,.1784 .0247,.066 .0596,.1284 .0656,.2002-.005,.095-.0236,.188-.0487,.2803-.0324,.097-.0913,.1761-.1442,.2623-.0563,.1056-.0919,.2207-.1477,.3268-.1215,.239-.2541,.4441-.4891,.6047-.0741,.037-.1372,.01-.2142-.01-.1627-.039-.3286-.063-.4909-.1043-.1885-.044-.3768-.088-.5659-.1299-.2031-.042-.4058-.092-.5866-.1982-.1858-.1285-.3512-.2781-.396-.5107-.002-.2465 .1303-.4348 .2935-.6115l.2052-.1493z" transform="translate(0 -435.83)"/>
<path fill="#382410" d="m420.35,1108c-.6448-.1412-1.0542-.357-1.13-.5955-.0526-.1657 .2104-.7671 .3354-.7671 .0359,0 .2011-.1193 .3672-.2652 .1661-.1458 .3305-.2651 .3654-.2651 .1911,0 1.1389,.6901 1.2543,.9133 .126,.2436 .1214,.2915-.0655,.6907-.2254,.4812-.236,.4839-1.1269,.2889z" transform="translate(0 -435.83)"/>
</g>
<g transform="matrix(9.4657 0 0 9.4657 -3803.63585 -6215.9294)">
<path fill="#121210" stroke="#0c0b0b" stroke-width=".174" d="m410.89,1104.6c-.0351,.029-.2068,.1682-.2232,.2004-.0225,.044 .1165-.1482 .1116-.099-.006,.062-.0797,.097-.1164,.1475-.0954,.132-.1092,.1682-.1856,.3091-.1404,.2709-.1924,.5488-.1022,.8415 .1329,.2796 .3992,.3939 .681,.4727 .2242,.053 .4552,.065 .6842,.082 .2017,.024 .4039,.024 .6066,.016 .2102-.023 .424-.066 .5837-.212-.3878,.3986-.2121,.2278-.1656,.074 .0232-.077 .0307-.1543 .0374-.2338 .0105-.1307-.0156-.2588-.0593-.3813-.0446-.1203-.0966-.2381-.1591-.3502-.0663-.1245-.1161-.2579-.1926-.3766-.0707-.09-.1315-.1816-.1685-.2905-.0219-.087-.0115-.1763-.005-.2644 .007-.063-.0139-.108-.0625-.1466-.08-.046-.1756-.047-.2655-.05-.1733,.01-.3459,.026-.5173,.052-.1388,.015-.2711,.033-.384,.119-.1588,.1647 .0738-.078 .2031-.1958 .0183-.017-.031,.039-.0462,.058-.0473,.061-.0942,.1224-.1423,.1829-.0909,.1068-.2043,.1932-.3093,.2856l-.0171,.013c-.0478,.01-.0991,.034-.0177-.042 .1823-.2275 .3496-.4691 .5891-.645 .1224-.075 .2601-.088 .4002-.1074 .1733-.021 .3471-.045 .522-.047 .1014,0 .2079,0 .2971,.057 .0638,.05 .1061,.101 .0872,.1866-.0182,.089-.0359,.1786-.026,.2695 .0202,.1112 .0973,.1906 .1612,.2806 .0728,.1232 .1288,.2531 .192,.3812 .0569,.1166 .12,.2305 .165,.3525 .0451,.1264 .0798,.2552 .0745,.3909-.022,.3622-.126,.4677-.422,.7404-.1676,.1227-.3712,.1502-.5748,.1627-.2026,.01-.4046,0-.6058-.024-.228-.023-.4576-.04-.6804-.096-.2892-.087-.5647-.2083-.7012-.4967-.1132-.3085-.0597-.5629 .0785-.8564 .2145-.4072 .5186-.75 .8811-1.0354 0,0-.2054,.2745-.2054,.2745z" transform="translate(0 -435.83)"/>
<path fill="#382410" d="m411.23,1106.4c-.9701-.194-1.1243-.865-.3801-1.654 .2941-.3119 .356-.3379 .8087-.3393 .4736,0 .4921,.01 .5468,.2635 .0311,.1459 .1625,.4727 .2919,.7263 .2666,.5224 .3062,.9512 .0955,1.032-.1782,.068-.96,.052-1.3628-.028z" transform="translate(0 -435.83)"/>
</g>
<g transform="matrix(9.4657 0 0 9.4657 -3763.78525 -6300.39184)">
<path fill="#121210" stroke="#0c0b0b" stroke-width=".174" d="m412.82,1109.9c-.1289,.038-.2484,.097-.3534,.1814-.0381,.031-.1443,.1321-.1073,.1001 .2014-.1739 .2323-.2419 .0966-.039-.1127,.2058-.205,.4313-.1975,.6692 .0279,.1684 .1765,.2331 .3211,.2864 .1805,.066 .371,.094 .5611,.1136 .2192,.023 .4398,.016 .6592,0 .179-.016 .3574-.037 .5362-.054 .1277-.022 .2751-.022 .3911-.087 .0763-.1479-.0289,.063-.285,.244-.0143,.01-.005-.035-.007-.052-.0109-.066-.0286-.1297-.0447-.1942-.0385-.1602-.0558-.3235-.0516-.488 .003-.1026 .0232-.2029 .0448-.3027 .0141-.064 .0322-.1279 .0337-.1938 .005-.065-.0288-.1122-.0591-.1654-.0544-.063-.1144-.1208-.1776-.175-.0763-.062-.163-.108-.2503-.1516-.0423-.021-.0856-.043-.1323-.052-.0437-.015-.0908-.022-.1367-.029-.0617-.016-.1261-.021-.1897-.026-.0729-.01-.1469,0-.2191,.01-.0914,.022-.1708,.075-.247,.1282-.0924,.081-.1863,.1588-.2884,.2274-.0182,.01-.1317,.1061-.1573,.074-.009-.012 .001-.03 .002-.046l.0127-.017c.1234-.1285 .2441-.2595 .3989-.3512 .1024-.073 .1944-.1592 .295-.2349 .0819-.053 .1662-.1042 .2644-.1182 .076-.01 .1522-.01 .2284,0 .0632,.01 .1269,.018 .1899,.03 .0473,.011 .0956,.016 .142,.03 .0461,.02 .0963,.03 .1424,.05 .0926,.042 .1798,.096 .2597,.1582 .0677,.055 .1348,.1122 .1917,.1786 .0433,.053 .0851,.1137 .082,.1851-.005,.073-.027,.1431-.0456,.2135-.023,.099-.0442,.1982-.0534,.2995-.008,.1601 .006,.3211 .0447,.477 .0736,.2685 .1508,.4548-.2607,.6401-.1139,.031-.2359-.01-.3515,.02-.1786,.017-.3567,.04-.5358,.052-.2213,.013-.4439,.017-.6647-.01-.192-.025-.3849-.051-.5664-.122-.1556-.066-.3098-.1345-.35-.3156-.0172-.2344 .0519-.4591 .158-.6673 .2165-.3517 .5355-.6733 .9365-.7973 0,0-.2602,.3172-.2602,.3172z" transform="translate(0 -435.83)"/>
<path fill="#382410" d="m412.67,1111.1c-.1556-.046-.3076-.1234-.3377-.1722-.1132-.1832 .15-.6795 .5279-.9954 .4571-.3821 .8137-.4239 1.2099-.1418 .2494,.1776 .2594,.2106 .2346,.7734l-.0259,.5879-.6629,.016c-.3646,.01-.7902-.022-.9458-.068z" transform="translate(0 -435.83)"/>
</g>
<g transform="matrix(9.4657 0 0 9.4657 -3841.5933 -6209.04783)">
<path fill="#121210" stroke="#0c0b0b" stroke-width=".174" d="m422.76,1110.4c-.1775,.2876-.3404,.5843-.4941,.8852-.0943,.1969-.1892,.3976-.2065,.6176 .006,.161 .1183,.2739 .2185,.3878 .1383,.1388 .3169,.2025 .5019,.251 .1775,.047 .3547,.063 .5325,.015 .1646-.066 .3-.1818 .4307-.2983 .1199-.1107 .4748-.4687-.0323,.037 .0651-.064 .1013-.1415 .1273-.2277 .0454-.1575 .0631-.321 .0824-.4833 .0187-.1702 .0338-.3407 .0371-.512 .0004-.095-.009-.19-.007-.285 .008-.076 .0234-.1507 .0339-.2264 .009-.051-.006-.096-.024-.1424-.0226-.059-.0737-.078-.1294-.096-.1027-.028-.2095-.035-.3148-.047-.0965-.012-.1916-.021-.288-.01-.0838,.01-.1568,.045-.2295,.086-.0808,.045-.1644,.085-.249,.1219-.0685,.028-.0116-.058-.0005-.081l.0129-.017c.0734-.078 .1437-.1625 .2347-.2215 .0862-.052 .1781-.093 .2654-.1434 .0786-.04 .1583-.074 .2475-.083 .1005-.01 .2011,0 .3013,.01 .109,.011 .2183,.024 .3253,.048 .069,.02 .1327,.046 .1677,.1122 .0301,.058 .0291,.1215 .0161,.1844-.0121,.078-.0339,.1534-.0465,.2309-.005,.094 .007,.1879 .008,.2823-.004,.1763-.023,.3519-.0476,.5264-.0204,.1622-.037,.3256-.0736,.4851-.0288,.096-.0604,.186-.1341,.2577-.1654,.1653-.3283,.3336-.5027,.4897-.1296,.1085-.262,.2229-.4288,.2677-.1815,.035-.364,.01-.5438-.027-.1913-.05-.3718-.1245-.5284-.2486-.1287-.1014-.2418-.2215-.263-.391 .006-.2188 .0953-.4251 .185-.6218 .1519-.2965 .3093-.5903 .4786-.8774l.336-.2563z" transform="translate(0 -435.83)"/>
<path fill="#382410" d="m422.43,1112.3c-.3586-.2821-.3659-.4637-.0443-1.1136 .3431-.6935 .6688-.9485 1.1244-.8802 .166,.025 .3306,.076 .3658,.1147 .0352,.038 .0351,.418-.0002,.8441-.0528,.6367-.101,.8137-.2707,.9944-.2666,.2837-.8406,.3036-1.175,.041z" transform="translate(0 -435.83)"/>
</g>
<g transform="matrix(9.4657 0 0 9.4657 -3979.22458 -6188.91429)">
<path fill="#121210" stroke="#0c0b0b" stroke-width=".174" d="m428.6,1107.7c-.1186,.082-.2383,.1705-.3322,.2815-.003,0 .0104,.01 .008,.012-.2511,.4583 .0695-.1902-.1427,.2484-.0958,.2446-.0625,.3885 .1147,.5731 .2175,.1736 .4837,.2094 .7523,.228 .291,.0009 .5808-.028 .8697-.06 .2086-.022 .4164-.051 .6252-.072 .1639-.011 .3286-.01 .4929-.01 .1025-.014 .2177-.01 .3136-.052 .0808-.072 .2293-.1835-.1404,.1405-.01,.01 .0139-.022 .0187-.034 .01-.024 .0169-.072 .0213-.095 .0211-.1376 .004-.2745-.0127-.4111-.0159-.1249-.0484-.2447-.0966-.3607-.0349-.098-.0935-.1779-.1675-.2492-.0964-.086-.2065-.1534-.315-.2225-.1103-.078-.2331-.1339-.3561-.188-.1042-.046-.2112-.086-.32-.1192-.1131-.04-.2284-.072-.3421-.1103-.101-.035-.2009-.066-.3074-.078-.1273-.019-.2531,0-.3772,.025-.1148,.026-.2158,.074-.309,.1451-.16,.151 .1203-.1245 .1838-.1834 .0197-.018-.0354,.04-.0521,.061-.0536,.067-.1019,.1381-.1495,.2093-.0755,.1163-.1422,.2377-.2285,.3465-.0681,.071-.1197,.152-.1569,.2429-.051,.1924-.0601,.2093-.2158,.3691-.003,.014-.007,.027-.0103,.041l-.0165,.013c.003-.014 .007-.027 .0103-.041-.0397,.022-.0762,.052-.1192,.067-.0143,.01-.009-.018-.0006-.06 .01-.046 .0202-.093 .0342-.138 .0341-.094 .0765-.1817 .1488-.2525 .0892-.1084 .1635-.2253 .2342-.3466 .1662-.2422 .337-.4755 .5811-.6523 .098-.066 .2057-.1102 .3215-.1348 .1288-.027 .2589-.036 .3899-.019 .1075,.016 .212,.042 .3125,.084 .1146,.037 .2293,.073 .3443,.1088 .107,.042 .219,.07 .3222,.1218 .1246,.056 .2457,.1181 .3599,.1932 .1092,.072 .2143,.1505 .3134,.2356 .0764,.076 .1529,.1548 .1843,.2607 .0278,.1296 .0593,.2589 .073,.3908 .0176,.1464 .019,.2938-.005,.4398-.0334,.1842-.1522,.355-.3361,.4257-.0916,.019-.1856,0-.2779,0-.1637,0-.3276-.01-.4909,.01-.2062,.014-.4113,.042-.6169,.063-.2859,.028-.5733,.061-.8609,.044-.2713-.018-.5538-.047-.7658-.2352-.1776-.198-.1996-.3617-.1029-.612 .1532-.3183 .4068-.5718 .6946-.773l-.0997,.1316z" transform="translate(0 -435.83)"/>
<path fill="#382410" d="m428.35,1108.8c-.3068-.2441-.2677-.5244 .131-.9388 .1679-.1746 .2268-.2907 .1588-.3133-.0766-.026-.0642-.08 .0428-.1868 .3323-.3322 1.5437-.043 2.1276,.5072 .2407,.227 .3086,.3606 .3086,.6069 0,.1737-.0318,.3354-.0706,.3594s-.6056,.071-1.2595,.1039c-1.1456,.058-1.198,.053-1.4386-.1385z" transform="translate(0 -435.83)"/>
</g>
<g transform="matrix(9.4657 0 0 9.4657 -3803.44653 -6208.95318)">
<path fill="#121210" stroke="#0c0b0b" stroke-width=".174" d="m434.7,1103.9c-.1795,.2482-.3235,.5184-.456,.7938-.0894,.1984-.173,.4031-.1515,.6237 .0363,.1789 .1896,.2521 .3383,.3279 .1788,.071 .3656,.1105 .5567,.1273 .1731,.011 .335,0 .4769-.1074 .1733-.1738-.1031,.1044-.1657,.154-.0211,.017 .0295-.045 .0429-.068 .0439-.076 .0755-.1554 .1042-.2384 .0496-.1511 .0903-.3052 .1163-.4622 .0169-.1311 .0536-.2584 .084-.3868 .0277-.101 .0442-.1892-.0124-.2814-.0608-.088-.1544-.1491-.2496-.195-.0861-.038-.177-.064-.2682-.087-.0683-.022-.1395-.024-.2098-.032-.0376-.01-.0765,0-.1143-.012-.0413-.0003-.078,.012-.1164,.026-.0579,.031-.1151,.065-.1737,.096-.0259,.014-.2038,.1098-.211,.1017-.008-.01 .006-.024 .009-.037 .001-.01 .003-.014 .004-.021l.0125-.017c.0278-.032 .0557-.063 .0835-.095 .1025-.1032 .2101-.1835 .3428-.2439 .0605-.032 .1169-.071 .1816-.095 .0397-.01 .0843-.025 .1251-.015 .0402,0 .0788,.01 .1191,.01 .0712,.01 .1418,.022 .2117,.038 .0934,.023 .1843,.056 .2721,.095 .1027,.054 .1968,.113 .2683,.2069 .0633,.1 .0738,.1877 .0377,.3024-.0362,.1271-.0733,.2542-.0881,.386-.0303,.1586-.0604,.3178-.1157,.4702-.1065,.2896-.2463,.5191-.5222,.7045-.1499,.088-.3123,.096-.483,.075-.1944-.017-.3892-.053-.5681-.1336-.1649-.07-.3139-.1655-.3768-.3425-.0393-.2235 .0368-.4322 .1294-.6345 .1271-.2738 .2712-.5402 .4403-.7905l.3257-.2453z" transform="translate(0 -435.83)"/>
<path fill="#382410" d="m434.6,1105.6c-.1043-.02-.2574-.1119-.3401-.2034-.1252-.1383-.1342-.2154-.0533-.4591 .2739-.8252 .5933-1.0265 1.162-.7324 .3047,.1575 .3032,.146 .1174,.8855-.1393,.5546-.1511,.5703-.4198,.5586-.1521-.01-.3619-.029-.4662-.049z" transform="translate(0 -435.83)"/>
</g>
<g transform="matrix(9.4657 0 0 9.4657 -3843.29713 -6113.87969)">
<path fill="#121210" stroke="#0c0b0b" stroke-width=".174" d="m435.55,1098.7c-.2833,.017-.5375,.1115-.7666,.2751-.0326,.029-.1286,.1199-.0979,.088 .0443-.045 .0802-.1063 .1389-.1305 .0418-.017-.057,.07-.0827,.1074-.0779,.1122-.1302,.2311-.1792,.3577-.0665,.2242-.067,.4115 .066,.6071 .0953,.1262 .2439,.1712 .3905,.2092 .1461,.028 .2912,.062 .4373,.091 .1448,.027 .2919,.037 .4384,.049 .0814,0 .1537,0 .2272-.04 .0148-.01 .03-.018 .0443-.029 .0287-.021 .2805-.2608 .1492-.1366-.1676,.1585-.2132,.2205-.1225,.1062 .0481-.072 .0882-.1487 .143-.216 .1342-.1812 .278-.2657 .4562-.3726 .0479-.028 .093-.058 .1309-.098 .0807-.087 .2075-.1771-.2022,.1953-.009,.01 .0132-.021 .0193-.032 .0227-.041 .0198-.038 .0364-.082 .0414-.1042 .0423-.2164 .0422-.3268-.007-.1-.0243-.1983-.0518-.2945-.0169-.069-.0298-.1393-.0461-.2087-.0182-.066-.0594-.1066-.1103-.1508-.0616-.051-.1331-.08-.2102-.097-.0836-.017-.169-.014-.2538-.014-.1034,0-.2063,.02-.3071,.043-.0917,.017-.1816,.042-.2729,.06-.1252,.031-.0695-.022-.0289-.096l.0128-.017c.0774-.082 .1463-.1709 .2628-.1899 .0903-.023 .1819-.04 .2732-.059 .1032-.02 .2073-.035 .3125-.038 .0869,0 .1748,0 .26,.022 .0817,.023 .16,.051 .225,.1078 .0563,.049 .1103,.1067 .1089,.1858 .0131,.069 .0255,.1379 .047,.2049 .0267,.1005 .0487,.2024 .0508,.3068 .007,.1137 .002,.228-.0334,.3373-.0621,.1773-.1704,.3167-.3429,.4246-.0362,.02-.0712,.042-.1091,.059-.116,.065-.4282,.3042-.0237-.052-.0628,.065-.1024,.1441-.1516,.2194-.1276,.1801-.3024,.3507-.4916,.4692-.0725,.024-.149,.029-.2248,.017-.1468-.01-.2921-.029-.4367-.055-.1487-.023-.2973-.05-.4429-.088-.1553-.039-.2962-.1007-.4036-.2249-.1212-.1873-.1682-.387-.1071-.6068 .1164-.3661 .354-.6413 .6603-.879 .2379-.1595 .4987-.2422 .7842-.2689 0,0-.2178,.2592-.2178,.2592z" transform="translate(0 -435.83)"/>
<path fill="#382410" d="m435.32,1100.3c-.458-.1008-.6547-.2323-.7076-.4731-.073-.3323 .1466-.7433 .4603-.8617 .8494-.3204 1.3474-.3713 1.526-.156 .0589,.071 .125,.2798 .1468,.464 .0351,.2964-.002,.3781-.3205,.7106-.363,.3786-.5623,.4356-1.105,.3162z" transform="translate(0 -435.83)"/>
</g>
<g transform="matrix(9.4657 0 0 9.4657 -541.377 -5410.351)">
<path opacity=".276" fill="url(#radialGradient12760)" filter="url(#filter7043-20)" d="m385.02,1095.9c0,.3971-.2993,.719-.6685,.719s-.6685-.3219-.6685-.719 .2993-.719 .6685-.719 .6685,.3219 .6685,.719z" transform="matrix(1.121 0 0 .86036 -351.14 -363.39)"/>
<path opacity=".444" fill="url(#radialGradient12760)" filter="url(#filter7043-6-2)" d="m385.02,1095.9c0,.3971-.2993,.719-.6685,.719s-.6685-.3219-.6685-.719 .2993-.719 .6685-.719 .6685,.3219 .6685,.719z" transform="matrix(2.0453 0 0 1.6939 -707.12 -1282.5)"/>
<path opacity=".276" fill="url(#radialGradient12760)" filter="url(#filter7043-64-5)" d="m385.02,1095.9c0,.3971-.2993,.719-.6685,.719s-.6685-.3219-.6685-.719 .2993-.719 .6685-.719 .6685,.3219 .6685,.719z" transform="matrix(1.121 0 0 .86036 -358.14 -362.46)"/>
<path opacity=".276" fill="url(#radialGradient12760)" filter="url(#filter7043-5-6)" d="m385.02,1095.9c0,.3971-.2993,.719-.6685,.719s-.6685-.3219-.6685-.719 .2993-.719 .6685-.719 .6685,.3219 .6685,.719z" transform="matrix(1.121 0 0 .86036 -364.01 -358.68)"/>
<path opacity=".276" fill="url(#radialGradient12760)" filter="url(#filter7043-2-8)" d="m385.02,1095.9c0,.3971-.2993,.719-.6685,.719s-.6685-.3219-.6685-.719 .2993-.719 .6685-.719 .6685,.3219 .6685,.719z" transform="matrix(1.121 0 0 .86036 -356.97 -357.35)"/>
<path opacity=".276" fill="url(#radialGradient12760)" filter="url(#filter7043-26-4)" d="m385.02,1095.9c0,.3971-.2993,.719-.6685,.719s-.6685-.3219-.6685-.719 .2993-.719 .6685-.719 .6685,.3219 .6685,.719z" transform="matrix(1.121 0 0 .86036 -364.77 -353.17)"/>
<path opacity=".276" fill="url(#radialGradient12760)" filter="url(#filter7043-262-2)" d="m385.02,1095.9c0,.3971-.2993,.719-.6685,.719s-.6685-.3219-.6685-.719 .2993-.719 .6685-.719 .6685,.3219 .6685,.719z" transform="matrix(1.121 0 0 .86036 -356.39 -351.85)"/>
<path opacity=".276" fill="url(#radialGradient12760)" filter="url(#filter7043-68-4)" d="m385.02,1095.9c0,.3971-.2993,.719-.6685,.719s-.6685-.3219-.6685-.719 .2993-.719 .6685-.719 .6685,.3219 .6685,.719z" transform="matrix(1.121 0 0 .86036 -349.37 -356)"/>
<path opacity=".276" fill="url(#radialGradient12760)" filter="url(#filter7043-25-5)" d="m385.02,1095.9c0,.3971-.2993,.719-.6685,.719s-.6685-.3219-.6685-.719 .2993-.719 .6685-.719 .6685,.3219 .6685,.719z" transform="matrix(1.121 0 0 .86036 -350.97 -350.88)"/>
<path opacity=".276" fill="url(#radialGradient12760)" filter="url(#filter7043-7-1)" d="m385.02,1095.9c0,.3971-.2993,.719-.6685,.719s-.6685-.3219-.6685-.719 .2993-.719 .6685-.719 .6685,.3219 .6685,.719z" transform="matrix(1.121 0 0 .86036 -344.11 -353.94)"/>
<path opacity=".276" fill="url(#radialGradient12760)" filter="url(#filter7043-69-1)" d="m385.02,1095.9c0,.3971-.2993,.719-.6685,.719s-.6685-.3219-.6685-.719 .2993-.719 .6685-.719 .6685,.3219 .6685,.719z" transform="matrix(1.121 0 0 .86036 -346 -360.41)"/>
<path opacity=".276" fill="url(#radialGradient12760)" filter="url(#filter7043-1-8)" d="m385.02,1095.9c0,.3971-.2993,.719-.6685,.719s-.6685-.3219-.6685-.719 .2993-.719 .6685-.719 .6685,.3219 .6685,.719z" transform="matrix(1.121 0 0 .86036 -340.93 -358.23)"/>
<path opacity=".276" fill="url(#radialGradient12760)" filter="url(#filter7043-4-7)" d="m385.02,1095.9c0,.3971-.2993,.719-.6685,.719s-.6685-.3219-.6685-.719 .2993-.719 .6685-.719 .6685,.3219 .6685,.719z" transform="matrix(1.121 0 0 .86036 -338.59 -355)"/>
</g>
</g>
</g>
</svg>
