<svg xmlns="http://www.w3.org/2000/svg" viewBox="0 0 557.44 557.44">
<g stroke="#2c3a4e" transform="translate(-72.424 -203.08)">
<path fill="#fff" fill-rule="evenodd" stroke-width="26" d="m465.71,426.65c0,146.75-118.96,265.71-265.71,265.71s-265.71-118.96-265.71-265.71 118.96-265.71 265.71-265.71 265.71,118.96 265.71,265.71z" transform="translate(151.14 55.143)"/>
<g fill="none" stroke-miterlimit="0">
<g stroke-width="23">
<path d="m95.143,483.51h100"/>
<path d="m507.14,483.51h100"/>
<path d="m351.14,225.51v100"/>
<path d="m351.14,637.51v100"/>
</g>
<g stroke-width="20">
<path d="m454.11,660.12 25.774,44.642"/>
<path d="m224.11,259.68 25.774,44.642"/>
<path d="m130.21,352.77 44.642,25.774"/>
<path d="m528.47,583.47 44.642,25.774"/>
<path d="m528.53,380.5 44.642-25.774"/>
<path d="m128.89,608.72 44.642-25.774"/>
<path d="m453.86,304.94 25.774-44.642"/>
<path d="m223.5,703.69 25.774-44.642"/>
<path stroke-linecap="square" d="m349.86,482.51 66.43-178.58"/>
</g>
<path stroke-linecap="square" stroke-width="23" d="m434.29,539.51-82.86-57.15"/>
</g>
</g>
</svg>
