<?xml version="1.0" encoding="UTF-8" standalone="no"?>
<!-- Created with Inkscape (http://www.inkscape.org/) -->

<svg
   xmlns:dc="http://purl.org/dc/elements/1.1/"
   xmlns:cc="http://creativecommons.org/ns#"
   xmlns:rdf="http://www.w3.org/1999/02/22-rdf-syntax-ns#"
   xmlns:svg="http://www.w3.org/2000/svg"
   xmlns="http://www.w3.org/2000/svg"
   xmlns:sodipodi="http://sodipodi.sourceforge.net/DTD/sodipodi-0.dtd"
   xmlns:inkscape="http://www.inkscape.org/namespaces/inkscape"
   width="210mm"
   height="297mm"
   viewBox="0 0 744.09448819 1052.3622047"
   id="svg4646"
   version="1.1"
   inkscape:version="0.91 r13725"
   sodipodi:docname="lab coat.svg">
  <defs
     id="defs4648">
    <clipPath
       id="clipEmfPath1"
       clipPathUnits="userSpaceOnUse">
      <path
         inkscape:connector-curvature="0"
         id="path5199"
         d="m -1.25029,-1.25029 103.77329,0 0,156.28529 -103.77329,0 z" />
    </clipPath>
    <pattern
       y="0"
       x="0"
       height="6"
       width="6"
       patternUnits="userSpaceOnUse"
       id="EMFhbasepattern" />
    <clipPath
       id="clipEmfPath1-1"
       clipPathUnits="userSpaceOnUse">
      <path
         inkscape:connector-curvature="0"
         id="path5244"
         d="m 7.50172,-3.75086 635.14528,0 0,1094.00086 -635.14528,0 z" />
    </clipPath>
    <pattern
       y="0"
       x="0"
       height="6"
       width="6"
       patternUnits="userSpaceOnUse"
       id="EMFhbasepattern-5" />
    <clipPath
       id="clipEmfPath1-10"
       clipPathUnits="userSpaceOnUse">
      <path
         inkscape:connector-curvature="0"
         id="path5457"
         d="" />
    </clipPath>
    <clipPath
       id="clipEmfPath2"
       clipPathUnits="userSpaceOnUse">
      <path
         inkscape:connector-curvature="0"
         id="path5460"
         d="m 7.50172,-3.75086 426.34728,0 0,1027.73086 -426.34728,0 z" />
    </clipPath>
    <pattern
       y="0"
       x="0"
       height="6"
       width="6"
       patternUnits="userSpaceOnUse"
       id="EMFhbasepattern-3" />
    <clipPath
       id="clipEmfPath1-9"
       clipPathUnits="userSpaceOnUse">
      <path
         inkscape:connector-curvature="0"
         id="path5642"
         d="m 10.0023,6.25143 553.8767,0 0,871.44957 -553.8767,0 z" />
    </clipPath>
    <pattern
       y="0"
       x="0"
       height="6"
       width="6"
       patternUnits="userSpaceOnUse"
       id="EMFhbasepattern-6" />
  </defs>
  <sodipodi:namedview
     id="base"
     pagecolor="#ffffff"
     bordercolor="#666666"
     borderopacity="1.0"
     inkscape:pageopacity="0.0"
     inkscape:pageshadow="2"
     inkscape:zoom="0.35"
     inkscape:cx="-46.428571"
     inkscape:cy="458.43751"
     inkscape:document-units="px"
     inkscape:current-layer="layer1"
     showgrid="false"
     inkscape:window-width="1366"
     inkscape:window-height="706"
     inkscape:window-x="-8"
     inkscape:window-y="-8"
     inkscape:window-maximized="1" />
  <metadata
     id="metadata4651">
    <rdf:RDF>
      <cc:Work
         rdf:about="">
        <dc:format>image/svg+xml</dc:format>
        <dc:type
           rdf:resource="http://purl.org/dc/dcmitype/StillImage" />
        <dc:title></dc:title>
      </cc:Work>
    </rdf:RDF>
  </metadata>
  <g
     inkscape:label="Layer 1"
     inkscape:groupmode="layer"
     id="layer1">
    <path
       inkscape:connector-curvature="0"
       id="path5645"
       d="m 262.45455,291.28472 -39.51007,44.46277 -39.08952,169.25858 -57.61653,-51.90912 0.28067,-1.21771 20.07099,-115.12938 75.23172,-156.01292 70.17769,-30.64402 0.071,31.21687 42.80875,65.44064 31.22889,24.34383 34.59849,-27.7092 32.91366,-52.83913 6.3162,-37.94707 85.19626,30.71568 87.72351,127.87475 0,40.95357 -32.56346,125.29789 -60.14256,15.32151 27.57999,-132.95774 -2.52629,-23.05466 -58.10751,-51.33646 48.07237,493.81393 -9.40468,122.36133 -319.45207,5.51307 40.56353,-437.32267 15.57898,-178.49434 z"
       style="fill:#fbfbfb;fill-opacity:1;fill-rule:evenodd;stroke:none" />
    <path
       transform="matrix(0.89807903,0,0,0.91624851,110.02719,129.9022)"
       inkscape:connector-curvature="0"
       id="path5647"
       d="m 169.726,176.134 -43.994,48.527 -43.5257,184.73 -64.1553,-56.654 0.3126,-1.329 22.3488,-125.653 83.7696,-170.2736 78.142,-33.4451 0.079,34.0703 47.667,71.4224 34.773,26.569 38.525,-30.242 36.649,-57.669 7.033,-41.4157 94.865,33.5233 97.679,139.5634 0,44.697 -36.259,136.751 -66.968,16.722 30.71,-145.111 -2.813,-25.162 -64.702,-56.029 53.528,538.952 -10.472,133.546 -355.706,6.017 45.167,-477.297 17.347,-194.81 z"
       clip-path="url(#clipEmfPath1-9)"
       style="fill:none;stroke:#000000;stroke-width:3.36014342px;stroke-linecap:butt;stroke-linejoin:round;stroke-miterlimit:4;stroke-dasharray:none;stroke-opacity:1" />
    <path
       inkscape:connector-curvature="0"
       id="path5649"
       d="m 368.56439,886.1233 c -89.61751,0 -162.25235,9.88084 -162.25235,21.9808 0,12.17146 72.63484,21.98086 162.25235,21.98086 89.61839,0 162.18319,-9.8094 162.18319,-21.98086 0,-12.09996 -72.5648,-21.9808 -162.18319,-21.9808 z"
       style="fill:#f5f5f5;fill-opacity:1;fill-rule:evenodd;stroke:none" />
    <path
       transform="matrix(0.89807903,0,0,0.91624851,110.02719,129.9022)"
       inkscape:connector-curvature="0"
       id="path5651"
       d="m 287.878,825.345 c -99.788,0 -180.666,10.784 -180.666,23.99 0,13.284 80.878,23.99 180.666,23.99 99.789,0 180.589,-10.706 180.589,-23.99 0,-13.206 -80.8,-23.99 -180.589,-23.99"
       clip-path="url(#clipEmfPath1-9)"
       style="fill:none;stroke:#000000;stroke-width:3.36014342px;stroke-linecap:butt;stroke-linejoin:round;stroke-miterlimit:4;stroke-dasharray:none;stroke-opacity:1" />
    <path
       inkscape:connector-curvature="0"
       id="path5653"
       d="m 578.25776,449.08743 c -10.17524,-8.80698 -30.2464,-1.71888 -44.84377,15.89508 -14.66745,17.54156 -18.31635,38.94879 -8.14111,47.68432 10.17614,8.80607 30.24732,1.71797 44.8447,-15.82362 14.66742,-17.61302 18.31632,-38.94971 8.14018,-47.75578 z"
       style="fill:#f5f5f5;fill-opacity:1;fill-rule:evenodd;stroke:none" />
    <path
       inkscape:connector-curvature="0"
       id="path5655"
       d="m 578.25776,449.08743 c -10.17524,-8.80698 -30.2464,-1.71888 -44.84377,15.89508 -14.66745,17.54156 -18.31635,38.94879 -8.14111,47.68432 10.17614,8.80607 30.24732,1.71797 44.8447,-15.82362 14.66742,-17.61302 18.31632,-38.94971 8.14018,-47.75578"
       style="fill:none;stroke:#000000;stroke-width:3.04804754px;stroke-linecap:butt;stroke-linejoin:round;stroke-miterlimit:4;stroke-dasharray:none;stroke-opacity:1" />
    <path
       inkscape:connector-curvature="0"
       id="path5657"
       d="m 129.32628,449.44569 c -9.26358,8.01901 -5.40374,28.20947 8.63199,45.03542 14.03563,16.82509 32.91369,23.98467 42.17721,15.96566 9.26358,-8.0905 5.40374,-28.20947 -8.63189,-45.03455 -14.03573,-16.82596 -32.91379,-23.98554 -42.17731,-15.96653 z"
       style="fill:#f5f5f5;fill-opacity:1;fill-rule:evenodd;stroke:none" />
    <path
       transform="matrix(0.89807903,0,0,0.91624851,110.02719,129.9022)"
       inkscape:connector-curvature="0"
       id="path5659"
       d="m 21.4893,348.752 c -10.3149,8.752 -6.017,30.788 9.6116,49.152 15.6285,18.363 36.649,26.177 46.9638,17.425 10.3149,-8.83 6.017,-30.788 -9.6115,-49.151 C 52.8246,347.814 31.8041,340 21.4893,348.752"
       clip-path="url(#clipEmfPath1-9)"
       style="fill:none;stroke:#000000;stroke-width:3.36014342px;stroke-linecap:butt;stroke-linejoin:round;stroke-miterlimit:4;stroke-dasharray:none;stroke-opacity:1" />
    <path
       inkscape:connector-curvature="0"
       id="path5661"
       d="M 463.51648,184.53167 439.65543,144.5082 396.28541,241.88152 Z"
       style="fill:#ffffff;fill-opacity:1;fill-rule:evenodd;stroke:none" />
    <path
       transform="matrix(0.89807903,0,0,0.91624851,110.02719,129.9022)"
       inkscape:connector-curvature="0"
       id="path5663"
       d="M 393.606,59.623 367.037,15.9411 318.745,122.215 Z"
       clip-path="url(#clipEmfPath1-9)"
       style="fill:none;stroke:#000000;stroke-width:3.36014342px;stroke-linecap:butt;stroke-linejoin:miter;stroke-miterlimit:8;stroke-dasharray:none;stroke-opacity:1" />
    <path
       inkscape:connector-curvature="0"
       id="path5665"
       d="m 427.37419,243.88626 -14.17615,-32.71996 -42.0364,59.28291 z"
       style="fill:#ffffff;fill-opacity:1;fill-rule:evenodd;stroke:none" />
    <path
       inkscape:connector-curvature="0"
       id="path5667"
       d="m 427.37419,243.88626 -14.17615,-32.71996 -42.0364,59.28291 z"
       style="fill:none;stroke:#000000;stroke-width:3.04804754px;stroke-linecap:butt;stroke-linejoin:miter;stroke-miterlimit:8;stroke-dasharray:none;stroke-opacity:1" />
    <path
       inkscape:connector-curvature="0"
       id="path5669"
       d="m 264.98084,183.45774 28.77357,-41.52704 41.96632,97.94604 z"
       style="fill:#ffffff;fill-opacity:1;fill-rule:evenodd;stroke:none" />
    <path
       transform="matrix(0.89807903,0,0,0.91624851,110.02719,129.9022)"
       inkscape:connector-curvature="0"
       id="path5671"
       d="M 172.539,58.4509 204.578,13.128 251.307,120.027 Z"
       clip-path="url(#clipEmfPath1-9)"
       style="fill:none;stroke:#000000;stroke-width:3.36014342px;stroke-linecap:butt;stroke-linejoin:miter;stroke-miterlimit:8;stroke-dasharray:none;stroke-opacity:1" />
    <path
       inkscape:connector-curvature="0"
       id="path5673"
       d="m 306.87806,242.31123 14.66741,-32.07575 40.35249,60.42904 z"
       style="fill:#ffffff;fill-opacity:1;fill-rule:evenodd;stroke:none" />
    <path
       inkscape:connector-curvature="0"
       id="path5675"
       d="m 306.87806,242.31123 14.66741,-32.07575 40.35249,60.42904 z"
       style="fill:none;stroke:#000000;stroke-width:3.04804754px;stroke-linecap:butt;stroke-linejoin:miter;stroke-miterlimit:8;stroke-dasharray:none;stroke-opacity:1" />
    <path
       inkscape:connector-curvature="0"
       id="path5677"
       d="m 364.70445,272.95515 27.58091,40.88303"
       style="fill:none;stroke:#000000;stroke-width:3.04804754px;stroke-linecap:butt;stroke-linejoin:round;stroke-miterlimit:10;stroke-dasharray:none;stroke-opacity:1" />
    <path
       inkscape:connector-curvature="0"
       id="path5679"
       d="m 391.44295,311.33223 40.07137,467.82365"
       style="fill:none;stroke:#000000;stroke-width:3.04804754px;stroke-linecap:butt;stroke-linejoin:round;stroke-miterlimit:10;stroke-dasharray:none;stroke-opacity:1" />
    <path
       inkscape:connector-curvature="0"
       id="path5681"
       d="m 431.51432,773.28456 -9.0526,126.2279"
       style="fill:none;stroke:#000000;stroke-width:3.04804754px;stroke-linecap:butt;stroke-linejoin:round;stroke-miterlimit:10;stroke-dasharray:none;stroke-opacity:1" />
    <path
       inkscape:connector-curvature="0"
       id="path5683"
       d="m 272.56065,819.89505 -5.68486,71.38309 154.81358,12.81647 5.68482,-71.384 z"
       style="fill:#fbfbfb;fill-opacity:1;fill-rule:evenodd;stroke:none" />
    <path
       inkscape:connector-curvature="0"
       id="path5685"
       d="m 272.56065,819.89505 -5.68486,71.38309 154.81358,12.81647 5.68482,-71.384 z"
       style="fill:none;stroke:#000000;stroke-width:3.04804754px;stroke-linecap:butt;stroke-linejoin:miter;stroke-miterlimit:8;stroke-dasharray:none;stroke-opacity:1" />
    <path
       inkscape:connector-curvature="0"
       id="path5687"
       d="m 270.38461,817.67496 -5.68396,71.384 154.81355,12.81559 5.68485,-71.38309 z"
       style="fill:#fbfbfb;fill-opacity:1;fill-rule:evenodd;stroke:none" />
    <path
       inkscape:connector-curvature="0"
       id="path5689"
       d="m 349.68677,346.62979 c -6.73739,0 -12.14113,5.58543 -12.14113,12.45822 0,6.87369 5.40374,12.45824 12.14113,12.45824 6.73738,0 12.21119,-5.58455 12.21119,-12.45824 0,-6.87279 -5.47381,-12.45822 -12.21119,-12.45822 z"
       style="fill:#f5f5f5;fill-opacity:1;fill-rule:evenodd;stroke:none" />
    <path
       inkscape:connector-curvature="0"
       id="path5691"
       d="m 349.68677,346.62979 c -6.73739,0 -12.14113,5.58543 -12.14113,12.45822 0,6.87369 5.40374,12.45824 12.14113,12.45824 6.73738,0 12.21119,-5.58455 12.21119,-12.45824 0,-6.87279 -5.47381,-12.45822 -12.21119,-12.45822"
       style="fill:none;stroke:#000000;stroke-width:3.04804754px;stroke-linecap:butt;stroke-linejoin:round;stroke-miterlimit:10;stroke-dasharray:none;stroke-opacity:1" />
    <path
       inkscape:connector-curvature="0"
       id="path5693"
       d="m 346.31809,348.27719 c -6.73738,0 -12.21119,5.58455 -12.21119,12.45824 0,6.87279 5.47381,12.38585 12.21119,12.38585 6.73739,0 12.14112,-5.51306 12.14112,-12.38585 0,-6.87369 -5.40373,-12.45824 -12.14112,-12.45824 z"
       style="fill:#ffffff;fill-opacity:1;fill-rule:evenodd;stroke:none" />
    <path
       inkscape:connector-curvature="0"
       id="path5695"
       d="m 346.31809,348.27719 c -6.73738,0 -12.21119,5.58455 -12.21119,12.45824 0,6.87279 5.47381,12.38585 12.21119,12.38585 6.73739,0 12.14112,-5.51306 12.14112,-12.38585 0,-6.87369 -5.40373,-12.45824 -12.14112,-12.45824"
       style="fill:none;stroke:#000000;stroke-width:3.04804754px;stroke-linecap:butt;stroke-linejoin:round;stroke-miterlimit:10;stroke-dasharray:none;stroke-opacity:1" />
    <path
       inkscape:connector-curvature="0"
       id="path5697"
       d="m 358.24817,459.46944 c -6.73649,0 -12.21119,5.58452 -12.21119,12.45822 0,6.87278 5.4747,12.38584 12.21119,12.38584 6.73739,0 12.21117,-5.51306 12.21117,-12.38584 0,-6.8737 -5.47378,-12.45822 -12.21117,-12.45822 z"
       style="fill:#f5f5f5;fill-opacity:1;fill-rule:evenodd;stroke:none" />
    <path
       inkscape:connector-curvature="0"
       id="path5699"
       d="m 358.24817,459.46944 c -6.73649,0 -12.21119,5.58452 -12.21119,12.45822 0,6.87278 5.4747,12.38584 12.21119,12.38584 6.73739,0 12.21117,-5.51306 12.21117,-12.38584 0,-6.8737 -5.47378,-12.45822 -12.21117,-12.45822"
       style="fill:none;stroke:#000000;stroke-width:3.04804754px;stroke-linecap:butt;stroke-linejoin:round;stroke-miterlimit:10;stroke-dasharray:none;stroke-opacity:1" />
    <path
       inkscape:connector-curvature="0"
       id="path5701"
       d="m 354.80942,461.11593 c -6.73649,0 -12.14023,5.51307 -12.14023,12.38676 0,6.87278 5.40374,12.45824 12.14023,12.45824 6.73739,0 12.21117,-5.58546 12.21117,-12.45824 0,-6.87369 -5.47378,-12.38676 -12.21117,-12.38676 z"
       style="fill:#ffffff;fill-opacity:1;fill-rule:evenodd;stroke:none" />
    <path
       inkscape:connector-curvature="0"
       id="path5703"
       d="m 354.80942,461.11593 c -6.73649,0 -12.14023,5.51307 -12.14023,12.38676 0,6.87278 5.40374,12.45824 12.14023,12.45824 6.73739,0 12.21117,-5.58546 12.21117,-12.45824 0,-6.87369 -5.47378,-12.38676 -12.21117,-12.38676"
       style="fill:none;stroke:#000000;stroke-width:3.04804754px;stroke-linecap:butt;stroke-linejoin:round;stroke-miterlimit:10;stroke-dasharray:none;stroke-opacity:1" />
    <path
       inkscape:connector-curvature="0"
       id="path5705"
       d="m 365.40675,568.94281 c -6.73738,0 -12.14112,5.51307 -12.14112,12.38676 0,6.87369 5.40374,12.45825 12.14112,12.45825 6.73739,0 12.2112,-5.58456 12.2112,-12.45825 0,-6.87369 -5.47381,-12.38676 -12.2112,-12.38676 z"
       style="fill:#f5f5f5;fill-opacity:1;fill-rule:evenodd;stroke:none" />
    <path
       inkscape:connector-curvature="0"
       id="path5707"
       d="m 365.40675,568.94281 c -6.73738,0 -12.14112,5.51307 -12.14112,12.38676 0,6.87369 5.40374,12.45825 12.14112,12.45825 6.73739,0 12.2112,-5.58456 12.2112,-12.45825 0,-6.87369 -5.47381,-12.38676 -12.2112,-12.38676"
       style="fill:none;stroke:#000000;stroke-width:3.04804754px;stroke-linecap:butt;stroke-linejoin:round;stroke-miterlimit:10;stroke-dasharray:none;stroke-opacity:1" />
    <path
       inkscape:connector-curvature="0"
       id="path5709"
       d="m 362.03804,570.51784 c -6.73738,0 -12.21116,5.58452 -12.21116,12.45825 0,6.87369 5.47378,12.45821 12.21116,12.45821 6.73742,0 12.14116,-5.58452 12.14116,-12.45821 0,-6.87373 -5.40374,-12.45825 -12.14116,-12.45825 z"
       style="fill:#ffffff;fill-opacity:1;fill-rule:evenodd;stroke:none" />
    <path
       inkscape:connector-curvature="0"
       id="path5711"
       d="m 362.03804,570.51784 c -6.73738,0 -12.21116,5.58452 -12.21116,12.45825 0,6.87369 5.47378,12.45821 12.21116,12.45821 6.73742,0 12.14116,-5.58452 12.14116,-12.45821 0,-6.87373 -5.40374,-12.45825 -12.14116,-12.45825"
       style="fill:none;stroke:#000000;stroke-width:3.04804754px;stroke-linecap:butt;stroke-linejoin:round;stroke-miterlimit:10;stroke-dasharray:none;stroke-opacity:1" />
  </g>
</svg>
