<svg xmlns="http://www.w3.org/2000/svg" viewBox="0 0 744.09 1052.4">
<g stroke="#000" transform="matrix(.49376 -.04112 .03382 .60025 322.87 137.61)">
<path fill="#520" stroke-width=".612" d="m101.56,420.32s10.641,60.513 6.9772,90.605c-4.4047,36.174-15.862,72.349-34.391,104.64-24.723,43.09-62.236,79.602-99.786,114.27-46.435,42.872-153.63,114.46-153.63,114.46-91.317,64.387-401.32,201.62-342.57,249.51l-161.16,2.3301c87.381-72.723 183.09-128.98 286.25-180.06 0,0 94.162-46.026 139.77-71.304 54.215-30.044 109.13-59.645 158.94-95.397 43.053-30.902 87.028-62.506 120.01-102.29 24.294-29.304 42.224-63.194 55.224-97.893 8.1128-21.655 13.069-44.609 13.701-67.469 .5783-20.922-9.112-62.24-9.112-62.24z"/>
<path fill="#447821" d="m-160.34,54.25c31.19,21.515 62.763,42.784 97.031,59.156 15.966,7.7982 32.497,14.391 48.812,21.406-30.452-10.452-60.767-21.775-89.094-37.219-16.155-8.638-32.166-17.575-48.25-26.344l144.75,79.906-125.25-54.062 143.69,75.281-135.28-43.594 150.25,64.781-139.12-9.5938 144.06,23.375-111,11.906 115.72,2.9062-83.188,24.875c-40.899-12.173-86.972-7.0299-121.97,17.062-15.353,10.366-27.509,24.591-38.406,39.469-7.7662,10.02-15.298,20.646-25.531,28.25-11.212,6.4278-26.375,3.7382-35.594-5.5-1.3558-.8463-.0858,.5435 .0937,.9688 8.0834,12.251 21.433,22.794 36.531,22.281 13.556-2.0927 22.753-13.79 28.656-25.344 10.319-19.321 22.062-38.849 40.094-51.75-21.069,20.386-32.403,48.164-44.75,74.344-4.7152,10.716-13.736,21.213-26.125,22-8.0832,.3942-15.981-2.4496-23.25-5.9062 11.931,13.573 34.085,18.241 48.875,7.5625 8.8214-8.4353 13.162-20.327 18.219-31.25 8.1773-19.601 17.521-39.429 33.281-53.969 4.5645-4.3053 9.5938-8.1402 15.062-11.219-21.021,17.531-32.715,43.548-40.406,69.5-5.0187,16.433-9.3241,34.553-22.594,46.312-9.0832,7.5587-21.267,10.08-32.906,10.031 21.492,7.2894 45.915-5.3024 54.844-25.469 7.1622-16.168 9.6748-34.185 18-49.875 11.145-22.198 29.519-41.549 53.219-49.812-16.601,10.244-31.511,24.033-40.281,41.812-12.068,22.652-15.859,48.494-21.25,73.406-1.2794,5.1607-3.0056,10.392-5.3125,15.312-68.723,45.865-105.34,81.664-115.31,195.53l23.77-67.72c-7.4296,42.539-.6954,62.836-8.125,105.38 16.229-44.792 18.302-67.365 34.531-112.16-1.8212,45.218 12.509,66.189 10.688,111.41 10.336-48.054 8.5707-85.977 18.906-134.03 10.056,39.469 14.038,62.75 24.094,102.22-4.1517-40.504-.2233-78.965-4.375-119.47 15.752,28.361 25.436,84.983 41.188,113.34-9.6629-29.947-11.243-102.3-20.906-132.25 16.917,26.148 25.771,94.727 42.688,120.88-1.6618-4.7665-3.2775-9.5763-4.8438-14.375l14.25,37.531c-9.6393-38.317-21.298-117.06-30.938-155.38 13.518,31.195 29.076,102.8 42.594,134-5.9715-32.877-11.966-98.092-17.938-130.97 9.5213,31.356 19.041,95.05 28.562,126.41-4.2128-25.901-9.2318-90.412-10.562-116.62 4.7438,31.702 11.506,101.8 16.25,133.5 1.1335-40.278-7.8523-108.85-6.7188-149.12 2.945,31.421 15.992,91.141 18.938,122.56 1.9387-33.06 1.8738-80.283 3.8125-113.34 .8146,37.891 3.6542,89.953 4.4688,127.84l17.094-116.75 .5938,83.156 14.375-87.031 1.4688,116 17.899-108.85-8.5,91.06 34.375-121.28-19.125,100.4 27.938-92.68-15.188,97.59 4.5312-11.91 15.438-6.78-3.594,15.54 5.25-16.25 17.438-7.6875-.3125,3-56.188,58.25 46.469-38.344c-13.25,18.677-25.901,38.171-33.594,59.875-6.5252,27.829-19.693,53.44-28.562,80.5-1.7416,5.1042-3.3568,10.239-5,15.375l31.094-55.156-34.062,105.12c10.923-32.302 26.886-62.536 42.25-92.875-2.2872,19.806-6.9559,39.262-9.0625,59.094-4.7936,37.946-5.56,76.277-4.2812,114.47 2.8874-35.532 7.5868-70.921 14.625-105.88 .6694-3.3223 1.2998-6.6403 1.9375-9.9688-1.0634,22.058-2.3317,44.098-2.4062,66.188 5.6799-33.954 13.228-67.55 20.062-101.28 .7366-3.4434 1.3868-6.8881 2.0625-10.344 .4895,19.408 1.0571,38.798 2.5938,58.156l.31-133.19 17.062,79.06-5.593-102.88c4.5453,16.574 8.5312,33.291 13.156,49.844 .4568-24.367 .8693-48.832 4.5625-72.969 .8204-1.4402 2.0746-2.5484 3.2812-3.6562 3.1923,8.1208 5.5687,16.537 8.5,24.75 6.1252-14.51 13.703-28.3 22.094-41.594 5.9811-3.5534 11.964-7.0957 18.031-10.5 2.4934,18.13 1.7773,37.149-5.1562,54.281-1.1236,.8502 1.299,1.3034 .875,.0625 7.0729-9.786 12.014-21.034 14.969-32.719 10.547,29.386 13.826,60.611 19,91.219 2.934,18.65 7.5355,36.972 12.188,55.25 1.8356,8.7389 2.8262,17.689 2.5938,26.625 1.9759-5.6323 3.2707-11.47 4.5938-17.281 1.9469,19.774-2.216,39.421-5.875,58.75-.3477,1.6768-.7768,3.3458-.875,5.0625 10.638-15.91 22.28-31.698 27.875-50.25 4.9251-16.763 4.3644-34.476 3.1562-51.719 .7162-.7091 1.1711,1.1874 1.75,1.5625 12.883,17.744 20.212,39.924 18.344,61.938-1.7928,23.526-10.4,45.719-15.375,68.625-2.1169,9.4993-2.9432,19.382-1.3438,29.031 2.1875,14.553 8.914,28.558 19.625,38.75-.0156,1.5004 2.9617,.6608 1.6562-.5-10.484-16.368-13.366-36.95-9.5-55.844 2.7859-12.711 7.4105-24.92 10.906-37.438 4.7475-15.478 9.1458-31.136 11.281-47.219 1.1155,22.9-3.5516,45.52-7.0312,68.031-1.1814,7.2215-1.9969,14.498-2.25,21.812 7.3501-25.919 15.733-51.76 18.688-78.656 2.6842-23.292-.3251-47.558-10.594-68.781-11.55-24.87-26.61-47.89-41.91-70.58 19.851,21.345 39.721,42.671 59.656,63.938-22.819-26.749-42.596-55.896-62.562-84.781-3.705-4.8322-7.7102-9.427-12.125-13.625 20.246,11.61 36.526,28.638 52.656,45.219-6.0647-10.54-12.23-21.081-19.188-31.062 7.8416-6.9088 15.453-13.847 23.062-20.781 7.3987,13.084-.9764,26.338 1.0625,39.5-.3984,9.6739-.5934,19.357-.625,29.031 8.3733-13.036 16.752-26.089 25.125-39.125-2.1206,25.003-2.3047,50.039-5.5938,75.031 .5477-.1187 .7722-1.3573 1.1875-1.875 8.9746-16.798 17.265-33.613 25.719-50.438-.501,29.975-.999,59.931-1.5,89.906 6.6557-13.372 13.313-26.722 19.969-40.094 1.7892,27.632 3.5858,55.243 5.375,82.875 8.4688-17.424 16.937-34.826 25.406-52.25-5.9162,30.557-11.834,61.099-17.75,91.656 13.504-25.239 29.862-50.371 37.562-75.875 5.822-18.467 5.0858-37.191-5.0625-55.5 26.444,17.796 39.586,37.17 48.438,56.5 2.6021,5.4989 4.6782,11.007 6.6562,16.531-2.8538-23.691-8.5828-47.57-29-70.5-1.7421-2.1183-3.9402-4.2024-5.7812-6.3125 17.787,11.672 31.539,23.911 43.438,36.281-13.818-22.759-34.058-45.159-61.469-66.688 1.0222-.0661 2.8609,.9715 4.0938,1.3125 20.92,8.1759 37.863,17.23 55.875,26.031l-121.77-78.17c30.058,13.648 60.129,27.289 90.188,40.938l-102.06-67.25c21.279,8.4546 42.565,16.92 63.844,25.375-11.617-8.0201-23.226-16.042-34.844-24.062l2.625-19.094 2.375,.4375-2.3438-.5625 8.625-62.656 .0937,.125 5.6875,73.781 7.1562-81.406 8.5625,97.125 18.562-80-7.125,94.281 31.406-102.84-2.8438,70 18.562-68.562 5.7188,95.688 14.281-94.281 2.875,78.594 11.406-75.719 8.5938,97.125 10-94.281 4.2812,77.156 14.281-75.719 7.125,75.719 14.312-77.156 5.6875,91.438 11.438-92.875 10,65.719 5.7188-67.125 34.281,61.406-18.562-65.688 70,75.688-55.719-80 115.72,67.156-92.875-70 127.16,60-102.84-61.44 138.56,64.28-122.88-71.4 147.16,71.4c-83.05-59.01-169.3-98.68-260.72-112.53l-25.375-88.344 34.938,56.562-21.031-64.031 55.594,43.125-42.812-53.219 94.062,42.281-82.594-51.812 132.78,16.5-112.84-28.06 140.47,5.47-118.69-16.281 152.66,4.9375-141-17.656 163.38,8.125c-144.29-31.619-278.86-23.177-401.5,45.844l-42.57-27.46 55.844,10.531-55.5-19.812 80.688,1.7188-80.62-10.44 93.84-32-90.19,19.59 100.31-53.81-93.78,40.81 119.16-70.34-118.47,58.312 135.66-76.25-5.4062,.5938c-22.984,3.816-43.815,15.142-63.25,27.5-22.7,14.77-45.554,29.496-69.938,41.375-17.072,8.8353-34.178,18.66-46.938,33.344-15.755,17.913-26.086,39.632-37.719,60.25-4.4308,8.0806-8.9988,16.089-13.531,24.125l-9.25,8.1562 56.562-119.19-36.344,62.625 46.47-113.16-46.46,72.75 6.06-155.56-28.28,226.25-14.16-147.47-2.03,193.93-.35-1.78c-1.43-22.51-4.27-44.95-10.93-66.56-1.624-5.0812-3.4282-10.109-5.4062-15.062l-9.5625-47.906 4.9375,37.156c-7.45-16.19-16.73-31.53-27.66-45.6-18.407-23.4-40.897-43.34-65.219-60.4-19.099-13.45-39.42-25.17-60.593-35.03-26.974-12.68-53.812-25.707-80.248-39.472-17.56-8.897-35.15-17.693-52.78-26.438zm203.44,181.66-61.906,22.188c-6.6989-3.1103-13.525-5.9323-20.438-8.4375-.85-.3056-1.7071-.5848-2.5625-.875l84.906-12.875zm6.875,14.688l-48.319,18.15c-3.0381-1.7602-6.114-3.4623-9.2188-5.0938l57.531-13.062zm6.9,17.46-35.187,13.6c-2.53-1.81-5.094-3.58-7.688-5.28l42.875-8.3125zm205.06,11.219 44.5,20.156c-3.1367,1.7735-6.2539,3.5842-9.375,5.4375l-35.125-25.594zm-196.91,2.84-29.156,10.44c-1.2659-1.049-2.557-2.0704-3.8438-3.0938l33-7.3438zm-155.12,4.4688c-30.591,19.18-49.797,53.734-53.688,89.75-.6193,4.5834-1.1401,9.1793-1.625,13.781-5.3511,1.0959-10.678,2.3293-15.969,3.7188-2.6105,1.6968-5.0641,3.311-7.5938,4.9688 .189-.534 .3921-1.0545 .5625-1.5938 6.6974-24.864 10.143-51.532 24.688-73.25 12.265-18.685 31.493-33.108 53.625-37.375zm348.81,1.4375 34.531,19.125c-2.23,1.3502-4.4656,2.7334-6.6875,4.125l-27.844-23.25zm-185.47,7.125-24.344,9.0625c-.9929-.9524-1.9907-1.9087-3-2.8438l27.344-6.22zm-147.62,.0625c-26.977,13.497-43.958,43.026-45.219,73.25-.5081,5.8245-.6991,11.675-.6562,17.531-8.1923,1.0229-16.345,2.3314-24.438,3.9688 3.0416-20.755 6.9162-41.581 17.812-59.562 11.09-19.001 31.571-30.388 52.5-35.188zm327.94,3.4062 28.469,15.531c-2.2096,1.4157-4.4234,2.8553-6.625,4.3125l-21.86-19.85zm-173.94,5.8438-21.656,8.875c-.8684-.9293-1.7415-1.8663-2.625-2.7812l24.276-6.09zm167.34,2.4062 23.75,14.719c-1.207,.8173-2.4204,1.6388-3.625,2.4688l-20.125-17.188zm-316.38,2.6562c-11.214,21.386-19.803,44.47-22.781,68.719-.2541,1.7907-.4732,3.5794-.6875,5.375-8.2393,.4172-16.466,1.1046-24.656,2.0625 4.7316-23.993 14.753-47.189 32.469-64 4.867-4.4677 9.7261-9.1224 15.656-12.156zm308.22,5.0312 22.281,13.719c-1.5219,1.079-3.0446,2.1817-4.5625,3.2812l-17.719-17zm199.88,.6562 40.25,80.281c-14.854-2.2397-29.833-3.8085-44.969-4.6562l-14.44-65.91 36.22,66.87-17.06-76.59zm-353.63,2.52-16.406,7.87c-.7668-.9477-1.5618-1.8775-2.3438-2.8125l18.75-5.0625zm-148.19,1-11.406,64.344c-2.4072,.017-4.8115,.0993-7.2188,.1562l18.625-64.5zm295.28,1.5938 20.281,14.219c-1.228,.9067-2.4621,1.7984-3.6875,2.7188l-16.594-16.938zm-143.02,7.41-12.937,7.75c-.6947-.9641-1.3838-1.9226-2.0938-2.875l15.031-4.87zm-145.88,1.2812-7.4688,54c-1.3328,.019-2.6697,.0263-4,.0625-.4791-.003-.9583,.002-1.4375,0l12.912-54.06zm280.62,.625l18.14,12.78c-1.7904,1.3868-3.5903,2.7711-5.375,4.1875l-12.75-16.969zm178,1.2188 29.469,59.812c-3.7627-.1901-7.5317-.3043-11.312-.4062l-18.14-59.4zm-18.188,4.625 29.125,54.625c-5.0048-.06-10.025-.065-15.062,.0312l-14.05-54.65zm-166.83,1.5 15.16,13.38c-1.3895,1.126-2.7702,2.2621-4.1562,3.4062l-11-16.781zm152.56,1.4688 24.281,51.781c-3.6077,.099-7.2192,.2575-10.844,.4375l-13.438-52.219zm-407,4.7812-6.4688,40.188c-4.6151-.2548-9.2338-.3754-13.844-.4062 .4429-1.8282 .8621-3.6426 1.3125-5.4688 3.7084-12.691 9.9583-24.734 19-34.312zm23.344,1.3125c-11.821,10.039-19.465,24.143-23.031,39.312-.9788-.0788-1.958-.1508-2.9375-.2188 2.0961-6.1872 4.538-12.266 7.4375-18.188 4.0023-8.6109 11.025-15.171 18.406-20.875l.125-.0312zm16.5,.0625c-4.812,9.4979-9.6255,19.002-14.438,28.5 5.8475-11.322 15.025-20.692 25.812-27.281-2.3362,10.592-5.034,21.108-7.4688,31.688l-14,8.4062 13.438-5.9062c-.7949,3.5215-1.5456,7.0534-2.25,10.594-8.6584-2.266-17.483-3.9644-26.375-5.1875 6.935-14.51 15.258-28.29 25.288-40.82zm348.19,.375 23,46.25c-5.449,.3751-10.918,.8462-16.406,1.4062l-6.58-47.66zm-266,.4375-1.125,.625c-.0201-.0317-.0424-.0621-.0625-.0937l1.1875-.5312zm251,4.375 16.375,43.375c-3.8661,.4351-7.7394,.9409-11.625,1.4688l-4.75-44.844zm-124.38,3.6875 7.8438,7.7812c-.4307,.3698-.8509,.7535-1.2812,1.125l-6.55-8.92zm-104.16,7.1875-12.719,4.9688c-.2104-.4359-.4123-.8775-.625-1.3125l13.344-3.6562zm83.25,0 16.312,11.562c-.9264,.8392-1.8565,1.6835-2.7812,2.5312l-13.656-13.938 .125-.1562zm-136.02,1.21-.344,.71-.219,.13c.1836-.2838 .3789-.56 .5625-.8438zm230.62,.1562 20.562,38.531c-2.4972,.5116-4.9946,1.0437-7.5,1.5938l-13.05-40.13zm-238.53,.1562-3.4375,6.5938-1.7812,1 4.2812-7.1875 .9375-.4062zm270.22,5 9.9688,29.5c-1.5508,.2533-3.1023,.5131-4.6562,.7812l-5.3125-30.281zm-129.38,2.9688 12.094,8.7812c-.7827,.7314-1.5622,1.4812-2.3438,2.2188l-9.75-11zm-84.594,.3125-4.9062,2.375c-.1352-.3012-.27-.6054-.4062-.9062l5.3125-1.4688zm173.25,3.1562 15.562,30c-2.3164,.5381-4.6452,1.1164-6.9688,1.6875l-8.5938-31.688zm-228.56,3.4062-3.8438,8.375-5.875,2.2812c2.0904-3.2311 4.1908-6.4564 6.2812-9.6875l3.4375-.9688zm23.125,2.375c-2.4809,3.3838-4.9566,6.7725-7.4375,10.156l-4.1875,2c3.4981-3.95 7.0019-7.8937 10.5-11.844l1.125-.3125zm-33.275,.38-5.281,10.13-1.719,.65 1.594-.43-4.344,8.34c-.904-.3667-1.8093-.7103-2.7188-1.0625l10.094-16.97 2.375-.66zm5.5312,7.3125-6.9062,15.031c-1.9314-.9009-3.8837-1.7639-5.8438-2.5938 2.3369-3.612 4.6631-7.2318 7-10.844l5.75-1.5938zm130.31,.625 11.375,5.5938c-.803,.7987-1.6045,1.6008-2.4062,2.4062l-9.3438-7.4375 .375-.5625zm73.656,.75 5.3438,5.2812 12.656,16.75c-2.2851,.6486-4.5517,1.3194-6.8438,2l-11.16-24.03zm-132.84,4.47c-2.3444,.7815-4.6869,1.5622-7.0312,2.3438-.1471-.4061-.2889-.8132-.4375-1.2188l7.47-1.12zm56.219,2.625 7.5938,4.5625c-.5498,.5623-1.107,1.122-1.6562,1.6875l-5.9375-6.25zm68.625,.0625 12.062,19.031c-1.8808,.5837-3.7708,1.176-5.6562,1.7812l-6.4-20.8zm-155.22,1.9062-2.9375,6.5c-1.5629,.521-3.1246,1.0415-4.6875,1.5625l6.125-7.8438 1.5-.2188zm-16.125,2.4375-5.25,10.219c-2.335,.7784-4.665,1.5654-7,2.3438-1.5601-.8711-3.1139-1.7763-4.6562-2.6875l8.2812-8.5938 8.625-1.2812zm-13.438,2c-1.6926,2.3085-3.3699,4.629-5.0625,6.9375-.1048-.0631-.2078-.1242-.3125-.1875-1.0861-.6226-2.1836-1.2468-3.2812-1.8438 1.228-1.3866 2.4595-2.7696 3.6875-4.1562l4.9688-.75zm167.69,.9375 10.312,17.906c-2.095,.7245-4.1804,1.4988-6.2812,2.25l-2.0938-10.406 2.4375,1.1875-2.8125-3.1875-1.5625-7.75zm-60.031,2.75 6.4375,4.25-2.3125,1.3125-4.1875-5.4688 .0625-.0937zm-83.094,2.9375-4.875,10.781-2.5312,1.3125c-1.6985-.7949-3.3797-1.6383-5.0625-2.4688l6.375-8.1562 6.0938-1.4688zm10.688,1.7188c-.119,.3945-.2248,.793-.3438,1.1875l-.8125,.4062c.3856-.5309 .7707-1.0628 1.1562-1.5938zm-28.474,2.59-1.062,2.09c-.7884-.4174-1.5595-.8545-2.3438-1.2812l3.406-.81zm54.062,1.4375-1.3125,.875c-.0442-.145-.0807-.2926-.125-.4375l1.4375-.4375zm-20,6c-.1356,2.4854-.2568,4.9821-.375,7.4688l-2.5312,1.6875c-.6136-.2389-1.2314-.477-1.8438-.7188 1.5909-2.808 3.1591-5.6295 4.75-8.4375zm114.25,.3438 3.4688,7.2188c-1.1,.42-2.18,.85-3.28,1.28l-.1875-8.5zm-123.66,2.2812c-.3549,1.1767-.7076,2.3546-1.0625,3.5312-1.4996-.6201-2.9783-1.2964-4.4688-1.9375l5.5312-1.5938zm111.6,6.09l.0937,.0625 1.2812,4.375c-1.0758,.4388-2.1414,.8667-3.2188,1.3125l1.8438-5.75zm-16.469,8.5312 .0312,.0312 1.4375,2.8125c-.2467,.108-.5032,.2041-.75,.3125l-.72-3.14zm-142.84,8.6-18.626,80.34-16.906,13.22 35.532-93.56zm224,.4062 15.969,63.906-14-3.3438-1.0625-33.188 .7188,1.2812-.7812-2.5-.8438-26.156zm-204.59,7.6562 1.1875,34.125c-3.5283,1.3643-7.04,2.7645-10.531,4.2188l9.3438-38.344zm176,.9062 1.4688,12.219-1.9688-9.8125 .5-2.4062zm18.594,0 8.3438,51.125-13.312-3.2188 4.9688-47.906zm-207.88,.77-4.218,40.19c-2.4697,1.1158-4.9436,2.2679-7.375,3.4688l7.1562-1.3438-1.4375,13.5-16.188,12.65 22.062-68.47zm51.219,7.34 1.219,8.82-2,1.34 .781-10.16zm-25.719,1.8438 4.5625,17.406c-1.7222,.6274-3.439,1.2463-5.1562,1.875-.6971,.2599-1.3969,.5203-2.0938,.7812l2.6875-20.062zm10.906,.7188 8.5312,11.188c-2.639,.9977-5.2919,1.966-7.9375,2.9375l-.5938-14.125zm150.59,.2812 4.8125,10.062 3.0312,24.938-14.375-3.4375 6.5312-31.562zm-16.281,.4688 1.3125,29.062-11.812-2.8125 10.5-26.25zm-14.28,2.85-2.66,21.84-13.34-3.18 16-18.66zm-18.562,1.4375 1.2812,16.906-4.125-1 2.8438-15.906zm-85.188,2.9688v.1875c-.7932,.3146-1.5799,.6586-2.375,.9688l.0625-.875 2.3125-.2812zm66.594,4.1562 1.9062,5.4688-3.2188-.7812 1.3125-4.6875zm-15.73,15.68l8.5938,10.031 .9062-3.3125c5.6185,5.0436 10.087,10.18 12.219,15.531 .5664,1.19 1.1277,2.3721 1.6875,3.5625-1.3452-1.1428-2.6925-2.2564-4.0625-3.3438-6.3435-5.2218-13.027-10.137-19.406-15.375 .0207-2.3635 .0363-4.7303 .0625-7.0938zm-88.875,.9688 .0312,.9688-14.25,11.156 2.4062-9.9062 11.812-2.2188zm188,10.625 13.812,2.5625 1.4688,9.0625c-5.1344-3.5446-10.272-7.0804-15.406-10.625l.125-1zm17.219,3.2188 14.094,2.5938 5.0625,20.375c-6.2807-4.3359-12.563-8.6641-18.844-13l-.3125-9.9688zm-222.71,14.44-.906,.94 .156-.6 .75-.34zm116.53,11.281c8.0988,1.519 15.766,4.4768 23.281,7.7812 3.5319,8.5088 6.7019,17.054 9.375,25.594-1.1877-1.6639-2.386-3.3095-3.625-4.9375-6.6685-8.5503-14.467-16.131-22.812-23.031l-6.2188-5.4062zm75.5,119.81c.008,.0159-.0007,.0549 .0625,.0937 .0875-.0366-.003-.0796-.0625-.0937z"/>
</g>
</svg>
