<svg xmlns="http://www.w3.org/2000/svg" viewBox="0 0 220.1 300.42">
<path d="m94.249,285.94c-.118-15.3-.349-16.1-4.892-16.87-1.582-.27-8.181-2.27-14.665-4.44-15.582-5.23-36.71-26.38-46.683-46.74-12.764-26.05-24.442-69.02-27.303-100.46-1.7782-19.549-.5018-24.507 7.3552-28.57 4.8288-2.497 6.5898-5.703 9.4118-17.135 7.501-30.398 24.102-55.181 43.58-65.059 10.879-5.5175 28.99-7.965 35.027-4.7339 2.538,1.3583 6.58,6.9833 8.99,12.5 3.77,8.656 4.22,12.968 3.22,31.464-.64,11.789-1.81,23.122-2.6,25.185-1.18,3.061-.26,3.751 4.98,3.751 7.98,0 9.46-3.481 7.06-16.632-1.02-5.588-2.52-18.56-3.34-28.827-1.44-18.067-1.31-18.842 3.96-24.113 19.98-19.984 72.21,20.305 84.06,64.853 2.23,8.387 6.62,17.933 10.55,22.938 3.7,4.716 6.9,10.989 7.11,13.929 .66,9.35-8.31,60.38-13.94,79.27-9.55,32.06-21.67,50.58-45.21,69.11-6.89,5.42-24.13,13.78-31.89,15.45-7.36,1.59-9.25,5.43-9.3,18.9-.02,5.33-1.01,8.04-2.94,8.04-1.61,0-7.31,.6-12.67,1.33l-9.76,1.34-.111-14.48zm15.001,3.13c-1.79-8.78-5.12-8.99-6.87-.43-1.27,6.21-.91,6.96 3.39,6.96 4.23,0 4.66-.79 3.48-6.53zm9.78-50.83c-.53-2.05-.95,.13-.93,4.85 .02,4.71 .46,6.39 .98,3.73 .51-2.67 .49-6.53-.05-8.58zm-42.835-3.14c-3.87-10.42-8.023-31.91-7.749-40.09 .179-5.35 .239-5.32 2.083,.86 1.044,3.49 2.274,9.76 2.733,13.93 1.136,10.32 7.683,31.85 10.144,33.38 2.795,1.72 2.52-.09-1.404-9.27-1.873-4.38-3.914-16.65-4.534-27.26-1.223-20.93 .478-24.37 2.552-5.16 1.443,13.36 6.461,33.82 8.81,35.93 .852,.76 .96-.26 .241-2.27-.72-2.01-1.789-13.58-2.377-25.72-1.14-23.56-.817-22.64 6.149,17.58l3.156,18.22-1.186-22.5c-.652-12.38-2.051-28.78-3.109-36.44s-1.855-16.83-1.772-20.36c.22-9.38 5.066,19.39 8.425,50.01 3.423,31.23 6.273,28.42 3.993-3.93-2.29-32.47-6.413-73.78-7.465-74.83-2.019-2.02-3.201,1.91-3.389,11.27-.109,5.44-1.087,9.34-2.174,8.67-1.086-.67-1.817-2.82-1.625-4.78 .796-8.12-.281-15.35-2.288-15.35-1.179,0-2.257,2.65-2.397,5.9l-.253,5.89-1.354-6.31c-1.583-7.37-4.512-8.34-6.882-2.26-1.583,4.05-1.681,4.02-1.824-.54-.146-4.69-4.168-6.98-4.705-2.68-.147,1.18-.388,3.03-.536,4.11-.753,5.52-3.483,4.27-3.483-1.61 0-4.6-1.034-6.79-3.215-6.79-2.308,0-3.297,2.58-3.507,9.11-.169,5.27-.647,6.86-1.136,3.75-1.831-11.62-3.039-15-5.366-15-7.193,0 8.969,94.72 17.722,103.87 1.081,1.12 .592-2.73-1.088-8.58-1.68-5.84-3.571-16.89-4.204-24.56l-1.149-13.93 2.992,11.74c1.646,6.46 3.468,15.14 4.049,19.29 .581,4.16 1.692,9.48 2.467,11.84 3.655,11.11 5.965,16.12 6.965,15.12 .601-.6-.438-5.21-2.31-10.25zm32.005-30.06c-.76-21.51-2.01-45.29-2.77-52.84-.92-9.04-.65-13.27 .78-12.39 2.47,1.53 5.24,42.53 5.21,77.46-.01,18.31 .49,22.46 2.2,18.32 1.46-3.53 1.69-20.4 .66-49.3-.86-24.17-1.59-45.15-1.64-46.62-.08-2.5-10.31-3.88-12.51-1.68-.55,.55 .25,14.29 1.78,30.54 1.52,16.25 3.21,34.37 3.75,40.26 .54,5.9 1.02,16.27 1.08,23.05s.72,12.32 1.48,12.32c.75,0 .74-17.6-.02-39.12zm-47.272,22.78c-4.656-11.98-12.053-50.66-13.272-69.39-1.348-20.7-2.917-30.78-4.539-29.16-3.249,3.25 2.985,66.84 7.713,78.68 1.128,2.82 4.191,10.71 6.807,17.53 2.615,6.82 5.152,12.01 5.636,11.52 .485-.48-.571-4.61-2.345-9.18zm-7.404,2.91c-2.117-2.1-2.363-1.86-1.2,1.2 .805,2.11 2.004,3.3 2.664,2.64s.001-2.39-1.464-3.84zm67.566-46.58c-.17-24.76 .41-45.01 1.29-45.01 1.58-.01 2.7,42.45 1.77,67.2-.31,8.47 .28,12.08 1.83,11.12 1.5-.92 2.3-15.15 2.3-40.94v-39.53h-13.45l1.42,21.97c.79,12.08 1.48,31.51 1.55,43.16 .1,18.79 1.02,27.04 2.98,27.04 .34,0 .48-20.26 .31-45.01zm5.93,38.61c-1.39-1.39-2.11-.67-2.11,2.11s.72,3.5 2.11,2.11c1.39-1.38 1.39-2.83 0-4.22zm-77.818-4.71c-3.167-9.63-8.204-45.35-9.993-70.88-1.137-16.23-2.164-20.9-4.595-20.9-2.576,0-2.88,2.57-1.714,14.47 2.385,24.35 9.57,65.35 13.326,76.04 3.968,11.31 6.655,12.45 2.976,1.27zm86.668-45.16c1.12-26.14 .88-35.9-.89-35.9-1.33,0-2.45,.72-2.5,1.61-.05,.88-.36,20.9-.69,44.47-.7,49.22 1.8,42.97 4.08-10.18zm5.12,14.65c.08-11.69-.2-20.85-.63-20.36s-1.3,11.98-1.93,25.54c-.65,13.86-.37,22.77 .63,20.36 .98-2.36 1.84-13.85 1.93-25.54zm7.96-18.4c.78-23.54 .45-34.65-.97-33.22-1.2,1.2-2.54,19.57-3.05,41.8-.56,24.65-.19,37.22 .98,33.22 1.03-3.54 2.4-22.35 3.04-41.8zm-109.4,38.05c-2.86-10.24-9.842-61.11-9.855-71.81-.008-6.19-.979-11.25-2.158-11.25-1.178,0-2.137,3.14-2.129,6.97 .02,9.73 8.099,62.8 11.07,72.72 2.579,8.6 5.4,11.7 3.072,3.37zm115.8-31.62c1.87-37.1 5.06-45.49 4.07-10.71-.71,24.99-.57,26.59 1.02,11.78 4.54-42.47 4.57-41.79-1.99-41.79h-5.86l-.41,31.61c-.23,17.39-.87,34.99-1.43,39.12l-1.01,7.5 2.18-6.43c1.2-3.54 2.74-17.52 3.43-31.08zm8.15,27.87c5.54-31.13 8.35-68.59 5.15-68.59-.99,0-1.82,3.61-1.86,8.04-.11,13.24-2.22,37.28-4.35,49.69-2.11,12.21-2.61,20.76-1.14,19.25 .48-.49 1.47-4.27 2.2-8.39zm-133.64-4.51c-1.13-2.83-2.115-4.01-2.19-2.63-.181,3.34 2.316,9.69 3.39,8.61 .469-.47-.071-3.16-1.2-5.98zm140.44-1.34c-.72-.72-1.22,.55-1.13,2.81 .1,2.5 .61,3 1.3,1.29 .62-1.54 .54-3.39-.17-4.1zm2.26-11.84c-.59-1.47-1.08-.26-1.08,2.68 0,2.95 .49,4.16 1.08,2.68 .6-1.47 .6-3.88 0-5.36zm-149.24-32.55c-1.401-13.04-3.057-25.88-3.681-28.53-1.637-6.96-5.263-5.96-3.886,1.07 .634,3.24 1.631,12.16 2.214,19.82 1.307,17.18 6.073,40.84 7.126,35.38 .425-2.21-.372-14.69-1.773-27.74zm153.7-2.28c-.04-17.81-.17-18.39-1.68-7.5-2.22,16.08-2.15,42.03 .09,33.22 .9-3.53 1.62-15.11 1.59-25.72zm4.1,21.93c-.58-1.45-1.03,.26-.98,3.79 .04,3.54 .52,4.73 1.06,2.64 .55-2.08 .51-4.98-.08-6.43zm23.47-3.13c-.71-.71-1.22,.56-1.12,2.82 .1,2.49 .61,3 1.29,1.29 .62-1.55 .54-3.4-.17-4.11zm-21.32-9.73c-.59-1.45-1.03,.26-.99,3.79 .04,3.54 .52,4.73 1.07,2.64 .54-2.08 .51-4.98-.08-6.43zm28.21-26.21c-.07-2.36-1.41,1.98-2.98,9.64s-2.8,16.34-2.72,19.29 1.42-1.39 2.98-9.64c1.57-8.26 2.79-16.94 2.72-19.29zm-71.19,20.94c-.71-.71-1.22,.55-1.13,2.81 .11,2.5 .61,3.01 1.3,1.3 .62-1.55 .54-3.4-.17-4.11zm45.71-15.41c.2-12.97-1.14-10.36-2.66,5.18-.8,8.17-.57,11.3 .62,8.58 1.04-2.36 1.96-8.55 2.04-13.76zm8.05,2.48c-.53-2.05-.95,.13-.93,4.85 .02,4.71 .46,6.39 .98,3.72 .51-2.66 .49-6.52-.05-8.57zm-182.85-7.48c-.748-8.55-2.0077-16.26-2.7992-17.14-1.4284-1.6-1.0658,6.08 1.114,23.57 1.8792,15.08 3.1452,10.25 1.6852-6.43zm130.56,9.11c.61-2.35 .24-4.82-.82-5.48-1.07-.66-1.95,1.27-1.95,4.28 0,6.57 1.23,7.1 2.77,1.2zm54.44-16.61c-.54-2.06-.98-.38-.98,3.75s.44,5.81 .98,3.75 .54-5.44 0-7.5zm-27.98,2.55c8.62-1.78 19.73-4.67 24.69-6.42 7.22-2.55 9.39-2.64 10.93-.46 1.51,2.13 1.76,2.08 1.14-.21-.43-1.62 1.91-5.82 5.2-9.34 6.79-7.27 7.17-9.55 2.61-15.581-2.77-3.664-3.52-3.818-5.23-1.072-1.09,1.762-1.59,5.453-1.1,8.193 .77,4.26-.73,5.71-10.24,9.9-6.13,2.71-16.25,6.01-22.5,7.34-13.58,2.89-55.4,3.24-57.11,.47-.67-1.07-1.42-4.45-1.67-7.5-.25-3.06-.79-5.55-1.2-5.55-3.5,0-8.8,5.2-9.94,9.73-1.34,5.31-2,5.54-14.47,5.03-37.966-1.55-76.745-15.19-76.782-27.02-.009-3.115-1.016-4.372-2.9157-3.643-1.7451,.67-2.8127,4.121-2.6792,8.663 .201,6.83 1.3177,8.15 11.824,13.95 12.224,6.76 24.509,10.42 52.7,15.71 20.844,3.91 72.923,2.73 96.743-2.19zm40.08-25.8c0-1.65 1.28-3.01 2.86-3.01 1.57,0 2.85,.86 2.85,1.92 0,1.05-1.28,2.4-2.85,3.01-1.58,.6-2.86-.26-2.86-1.92zm5.71,21.52c0-.52-.96-.95-2.14-.95s-2.14,1.02-2.14,2.27 .96,1.67 2.14,.95c1.18-.73 2.14-1.75 2.14-2.27zm-43.27-6.07c8.62-1.65 16.34-3.72 17.15-4.6s-1.26-.94-4.6-.14c-3.98,.96-5.6,.69-4.7-.77 .76-1.23 2.71-2.23 4.34-2.23s3.66-1.11 4.5-2.48c1.09-1.77-.4-2.09-5.23-1.12-3.72,.74-6.77,.47-6.77-.6s2.58-2.25 5.73-2.62c3.15-.38 6.11-1.84 6.57-3.25 .59-1.793-1.62-2.289-7.33-1.645l-8.18,.925 8.03-2.321c10.88-3.137 10.2-6.471-1.07-5.212l-9.11,1.017 9.11-2.368c12.23-3.178 11.58-6.198-1.07-5-9.35,.886-9.52,.823-2.12-.779 11.45-2.477 12.99-5.369 2.12-3.981-5.2,.663-8.59,.329-7.91-.777 .66-1.067 3.31-1.955 5.89-1.973 2.59-.018 6.15-1.059 7.92-2.314 2.4-1.704 .77-2.029-6.43-1.286l-9.65,.996 6.97-2.974c3.83-1.636 6.96-3.769 6.96-4.741 0-.971-3.13-1.474-6.96-1.118-5.48,.509-5.91,.315-2.02-.907 6.87-2.158 4.99-5.751-2.81-5.366-3.7,.182-4.61-.132-2.14-.741 2.36-.582 5.73-1.636 7.5-2.344 1.77-.707 3.94-1.133 4.82-.946 .89,.187 1.61-.624 1.61-1.803 0-2.569-.88-2.583-11.25-.175-4.42,1.027-8.04,1.127-8.04,.223s4.02-2.286 8.92-3.07c6.49-1.038 8.28-2.07 6.57-3.784-1.68-1.676-4.88-1.718-11.07-.147-4.79,1.216-8.71,1.469-8.71,.563 0-.907 2.79-2.204 6.18-2.884 3.4-.68 8.95-1.843 12.33-2.585 4.55-.999 5.33-.779 2.99,.853-2.72,1.898-2.65,2.397 .53,3.618 2.03,.779 3.7,2.76 3.7,4.402s.96,2.986 2.14,2.986 2.14,1.447 2.14,3.215 .76,3.215 1.69,3.215c.92,0 1.76,1.688 1.85,3.751 .34,7.504 8.3,34.817 10.15,34.827 4.17,.01-.36-26.928-6.72-40.018-12.86-26.441-26.15-41.456-44.48-50.254-14.66-7.0396-21.55-7.7067-27.16-2.6305-5.57,5.0445-4.98,15.404 2.57,44.986 5.01,19.63 6.44,29.804 6.29,44.704-.1,10.612-.13,20.352-.05,21.642 .2,3.47 20.3,3.49 38.31,.03zm-31.75-1.31c-1.76-1.14-2.2-2.09-.97-2.11 2.49-.04 2.5-28.943 0-40.296-1.37-6.26-1.05-6.869 3.48-6.643 3.88,.193 4.12,.475 1.09,1.258-3.78,.977-3.78,1.107 0,3.97 2.93,2.219 3.13,2.978 .82,3.029-2.23,.049-1.93,.946 1.07,3.215 3.22,2.438 3.44,3.196 .94,3.365-2.18,.149-1.84,.807 1.08,2.061 3.66,1.576 3.74,1.864 .53,1.993-2.06,.083-3.75,1.045-3.75,2.137s1.69,2.427 3.75,2.967c3.57,.933 3.57,.992 0,1.228-5.5,.365-4.58,4.493 1.07,4.784 3.63,.188 3.9,.492 1.08,1.229-2.07,.543-3.76,1.973-3.76,3.193s1.45,1.66 3.22,.98c1.77-.67 3.21-.29 3.21,.85s-1.44,2.07-3.21,2.07c-4.45,0-4.05,3.76 .54,4.96 3.35,.87 3.33,1-.27,1.22-3.32,.21-3.55,.81-1.34,3.47s1.98,3.21-1.35,3.18c-2.2-.02-5.46-.97-7.23-2.11zm-3.7-54.88c.71-.712 2.56-.788 4.11-.169 1.71,.684 1.2,1.192-1.3,1.295-2.26,.093-3.52-.413-2.81-1.126zm-7.02-22.294c-1.26-2.364-2.71-10.321-3.2-17.683-.93-13.809-.56-13.071 3.49,6.978 1.31,6.484 3.47,12.497 4.8,13.363 1.74,1.136 1.69,1.584-.18,1.608-1.44,.018-3.64-1.902-4.91-4.266zm25.73,3.559c0-1.473 22.12-7.864 23.26-6.722 .5,.502-1.39,1.78-4.21,2.842-7.33,2.765-19.05,5.151-19.05,3.88zm1.07-7.692c2.36-.951 7.66-2.366 11.79-3.145l7.5-1.416-7.21,3.281c-3.97,1.805-9.27,3.22-11.79,3.146-4.44-.132-4.45-.186-.29-1.866zm-8.39-6.376c1.08-.985 6.3-2.395 11.6-3.133 5.79-.805 8.36-.603 6.44,.506-4.39,2.52-20.49,4.865-18.04,2.627zm.89-6.626c2.95-.944 7.29-1.745 9.64-1.779 4.29-.063 4.29-.063 0,1.779-2.35,1.013-6.69,1.814-9.64,1.779l-5.36-.063 5.36-1.716zm-4.29-6.43c7.7-2.465 11.17-2.465 9.65,0-.73,1.178-4.41,2.047-8.17,1.929-6.53-.204-6.6-.291-1.48-1.929zm-8.57-2.344c0-1.069 1.2-2.019 2.68-2.112 2.14-.136 2.14-.386 0-1.251-1.48-.594-2.68-1.9989-2.68-3.121 0-1.2067 1.75-1.1029 4.28,.254 2.36,1.2618 4.29,3.112 4.29,4.112s-1.93,2.323-4.29,2.939c-2.35,.617-4.28,.247-4.28-.821zm79.3,104.15c0-1.77-.38-3.21-.84-3.21s-1.4,1.44-2.08,3.21c-.67,1.77-.29,3.22 .85,3.22s2.07-1.45 2.07-3.22zm-147.89-2.14l-9.646-2.8 9.646-.55c8.229-.47 8.622-.68 2.679-1.42-3.831-.47-6.966-1.6-6.966-2.5s3.135-1.21 6.966-.68c7.536,1.02 6.239-2.57-1.608-4.45-2.729-.66-1.709-1.13 2.806-1.28 7.757-.28 7.54-4.373-.253-4.794-3.602-.194-3.199-.616 1.734-1.812l6.43-1.558-5.358-2.339-5.359-2.339 5.359-.35 5.358-.349-5.358-1.552-5.359-1.551 5.224-1.722c5.002-1.648 5.053-1.846 1.198-4.665-3.828-2.798-3.774-2.943 1.08-2.943 4.95,0 4.979-.096 .946-3.147-4.106-3.106-4.105-3.15 .126-3.384 2.358-.131 3.081-.724 1.607-1.319-3.858-1.557-3.295-4.535 1.072-5.676 2.564-.67 2.055-1.07-1.607-1.262-4.132-.217-4.646-.732-2.246-2.251 1.712-1.083 3.882-1.493 4.823-.912 .94,.581 1.709,.035 1.709-1.213 0-1.249-1.688-2.285-3.751-2.303-3.111-.027-3.22-.369-.638-2.002 1.712-1.083 3.882-1.494 4.823-.912 .94,.581 1.71,.035 1.71-1.214 0-1.248-2.17-2.384-4.823-2.523-3.899-.205-3.591-.567 1.608-1.89 5.198-1.323 5.506-1.685 1.607-1.89-2.652-.139-4.822-1.212-4.822-2.383 0-1.172 2.17-1.726 4.822-1.231 2.653,.494 5.459,.971 6.236,1.058 .778,.088 .179,4.84-1.33,10.56s-2.599,12.713-2.422,15.54c.176,2.826-.672,5.862-1.885,6.746-1.425,1.038-1.067,2.355 1.009,3.718 1.768,1.161 2.122,2.126 .786,2.144s-2.518,2.685-2.626,5.927-.521,11.923-.918,19.293c-.625,11.63-.223,13.39 3.05,13.39 3.347,0 3.78-2.46 3.858-21.966 .048-12.083 .52-23.899 1.049-26.257 10.768-48.057 12.045-60.843 6.551-65.405-4.172-3.4629-21.035-1.6043-31.734,3.4979-7.476,3.5651-10.392,7.2511-5.737,7.2511 1.179,0 2.143,1.082 2.143,2.405 0,1.634-1.06,1.527-3.303-.335-2.778-2.306-4.453-1.626-10.543,4.277l-7.24,7.017 5.72,5.039c3.147,2.771 4.634,5.069 3.304,5.106-1.329,.038-3.617-1.379-5.085-3.147-3.734-4.5-5.793-4.037-9.894,2.223-3.404,5.195-3.342,5.674 1.395,10.717 3.01,3.204 3.867,5.279 2.18,5.279-2.227,0-2.25,.638-.111,3.215 1.468,1.768 1.827,3.184 .798,3.147-2.391-.087-9.372-5.351-9.372-7.067 0-.717 1.688-.671 3.751,.102 3.342,1.252 3.416,.993 .679-2.369-2.889-3.548-3.236-3.462-5.806,1.443-1.503,2.869-4.365,13.519-6.359,23.667l-3.625,18.45 5.144,4.28c2.83,2.36 6.833,4.32 8.896,4.36s3.751,1.38 3.751,2.99c0,3.74 24.449,11.54 36.437,11.62 3.453,.03 1.928-.95-4.286-2.75zm-20.363-5.36c-1.676-2.71 1.161-2.71 5.359,0 2.771,1.79 2.714,2.08-.41,2.11-1.993,.02-4.22-.93-4.949-2.11zm-20.898-11.943c-3.242-1.759-5.894-4.099-5.894-5.2 0-1.102 3.376-.011 7.502,2.423 11.024,6.5 9.647,8.88-1.608,2.777zm1.608-6.436c-2.358-1.781-4.478-5.713-4.712-8.737-.421-5.443-.377-5.458 4.286-1.539 2.592,2.178 5.195,4.332 5.784,4.785 .59,.454-1.098,.158-3.751-.657-6.94-2.133-5.935,.335 2.144,5.26 3.831,2.336 5.519,4.22 3.751,4.187-1.769-.033-5.145-1.517-7.502-3.299zm-.123-14.668c-2.287-1.672-3.677-3.518-3.089-4.103 .588-.584 3.345,.784 6.128,3.04 5.821,4.719 3.21,5.632-3.039,1.063zm2.802-6.76c-3.242-1.759-5.894-3.649-5.894-4.201 0-2.244 4.107-.757 8.872,3.212 6.031,5.025 5.057,5.348-2.978,.989zm1.072-5.677c-2.653-1.279-4.823-3.143-4.823-4.142 0-3.13 3.466-1.988 7.502,2.471 4.359,4.817 4.134,4.957-2.679,1.671zm3.751-19.89c-1.489-1.793-1.721-3.215-.525-3.215 1.179,0 3.344,1.447 4.811,3.215 1.489,1.794 1.721,3.216 .525,3.216-1.179,0-3.344-1.447-4.811-3.216zm4.286-4.286c-1.488-1.794-1.72-3.215-.524-3.215 1.178,0 3.344,1.446 4.811,3.215 1.489,1.793 1.721,3.215 .525,3.215-1.179,0-3.344-1.447-4.812-3.215zm43.94-3.215c-3.954-1.699-3.87-1.867 1.072-2.162 2.947-.176 4.153-.807 2.679-1.401-1.474-.595-2.679-2.069-2.679-3.276 0-1.206 1.447-1.638 3.215-.96 1.768,.679 3.215,.3 3.215-.842s-1.688-2.153-3.751-2.246c-2.356-.106-2.728-.58-1.001-1.274 1.513-.607 4.13-.575 5.817,.073 2.448,.939 2.608,2.492 .791,7.704-2.442,7.006-2.831,7.188-9.358,4.384zm-36.641-6.966l-4.084-4.823 4.823,4.083c4.532,3.837 5.799,5.562 4.083,5.562-.406,0-2.577-2.17-4.822-4.822zm2.347-3.751c-.729-1.179-.36-2.144 .818-2.144 1.179,0 2.74,.965 3.468,2.144 .729,1.178 .361,2.143-.818,2.143s-2.74-.965-3.468-2.143zm4.286-4.287c-.728-1.179-.36-2.144 .819-2.144s2.74,.965 3.468,2.144c.729,1.179 .36,2.143-.818,2.143-1.179,0-2.74-.964-3.469-2.143zm35.367-2.144c-2.858-1.847-2.858-2.077 0-2.077 1.768,0 4.662,.935 6.43,2.077 2.858,1.847 2.858,2.078 0,2.078-1.768,0-4.662-.935-6.43-2.078zm2.143-5.917c5.037-.984 5.101-1.159 1.072-2.905-3.999-1.733-4.011-1.823-.178-1.341 6.862,.865 6.7,5.915-.18,5.585-5.848-.281-5.874-.331-.714-1.339zm-22.506-2.656c-.728-1.179-.303-2.144 .946-2.144 1.248,0 2.269,.965 2.269,2.144s-.425,2.143-.945,2.143-1.541-.964-2.27-2.143zm6.43-2.144c-.728-1.1785-.303-2.143 .946-2.143 1.248,0 2.27,.9645 2.27,2.143 0,1.179-.426,2.144-.946,2.144-.519,0-1.541-.965-2.27-2.144zm22.67,99.13c.09-4.42 .588-9.964 1.105-12.322 1.989-9.062 7.215-49.557 7.055-54.657-.55-17.087-12.593,42.854-12.604,62.699-.007,13.4 4.176,17.44 4.444,4.28zm29.48-21.967c-.04-10.021-.69-20.442-1.46-23.158-.76-2.717-1.52,7.41-1.68,22.505-.16,15.88 .45,25.64 1.46,23.16 .96-2.36 1.71-12.487 1.68-22.507zm-13.51,17.557c-.66-.66-2.39,0-3.84,1.47-2.11,2.11-1.86,2.36 1.19,1.2 2.12-.81 3.31-2.01 2.65-2.67zm1.01-5.919c0-.59-1.93-.04-4.28,1.219-2.36,1.27-4.29,2.78-4.29,3.37s1.93,.04 4.29-1.22c2.35-1.27 4.28-2.78 4.28-3.369zm83.6-1.048c0-1.109-.97-2.017-2.15-2.017s-2.14,1.504-2.14,3.342c0,1.842 .96,2.742 2.14,2.012 1.18-.72 2.15-2.227 2.15-3.337zm-83.6-4.568c0-2.817-4.87-1.053-5.94,2.151-.52,1.566 .46,2.045 2.55,1.244 1.87-.716 3.39-2.244 3.39-3.395zm81.45-1.735c0-1.179-1.02-2.144-2.27-2.144s-1.67,.965-.94,2.144c.73,1.178 1.75,2.143 2.27,2.143s.94-.965 .94-2.143zm-80.63-5.461c.83-2.164-.05-2.465-3.49-1.191-2.54,.936-4.95,2.74-5.38,4.008-1.13,3.395 7.54,.64 8.87-2.817zm-2.96-5.256c2.77-1.791 2.71-2.083-.41-2.111-1.99-.018-4.22,.932-4.95,2.111-1.68,2.712 1.16,2.712 5.36,0z"/>
</svg>
