<svg xmlns="http://www.w3.org/2000/svg" viewBox="0 0 744.09 1052.4" xmlns:xlink="http://www.w3.org/1999/xlink">
<defs>
<filter width="1.152" x="-.076" y="-.187" height="1.373" id="filter7624">
<feGaussianBlur stdDeviation="4.4509"/>
</filter>
<filter width="1.067" x="-.034" y="-.106" height="1.212" id="filter4057">
<feGaussianBlur stdDeviation=".93283"/>
</filter>
<filter id="filter3910">
<feGaussianBlur stdDeviation="1.54659"/>
</filter>
<filter width="1.556" x="-.278" y="-.456" height="1.911" id="filter4401">
<feGaussianBlur stdDeviation="3.06039"/>
</filter>
<filter width="1.119" x="-.06" y="-.171" height="1.342" id="filter4009">
<feGaussianBlur stdDeviation="2.84955"/>
</filter>
<filter id="filter3994">
<feGaussianBlur stdDeviation=".3397"/>
</filter>
<filter id="filter6184">
<feGaussianBlur stdDeviation="7.98376"/>
</filter>
<filter width="1.325" x="-.163" y="-1.478" height="3.956" id="filter7528">
<feGaussianBlur stdDeviation="9.30111"/>
</filter>
<filter id="filter6275">
<feGaussianBlur stdDeviation="4.42897"/>
</filter>
<filter width="1.169" x="-.084" y="-.13" height="1.26" id="filter7586">
<feGaussianBlur stdDeviation="5.16326"/>
</filter>
<filter width="1.259" x="-.13" y="-.057" height="1.114" id="filter6373">
<feGaussianBlur stdDeviation="3.03718"/>
</filter>
<filter width="1.089" x="-.044" y="-.123" height="1.245" id="filter5127">
<feGaussianBlur stdDeviation="1.81831"/>
</filter>
<filter id="filter3884">
<feGaussianBlur stdDeviation="2.27406"/>
</filter>
<filter width="1.219" x="-.11" y="-.068" height="1.135" id="filter7985">
<feGaussianBlur stdDeviation="10.98815"/>
</filter>
<filter width="1.162" x="-.081" y="-.328" height="1.657" id="filter9045">
<feGaussianBlur stdDeviation="4.23696"/>
</filter>
<filter width="1.247" x="-.123" y="-.239" height="1.478" id="filter7787">
<feGaussianBlur stdDeviation="4.01516"/>
</filter>
<filter width="2.402" x="-.701" y="-.045" height="1.089" id="filter7669">
<feGaussianBlur stdDeviation="3.91955"/>
</filter>
<filter id="filter9061">
<feGaussianBlur stdDeviation="4.41149"/>
</filter>
<filter width="1.043" x="-.021" y="-.136" height="1.272" id="filter8161">
<feGaussianBlur stdDeviation="4.25481"/>
</filter>
<filter width="2.37" x="-.685" y="-.034" height="1.068" id="filter8309">
<feGaussianBlur stdDeviation="5.13224"/>
</filter>
<filter width="1.134" x="-.067" y="-.181" height="1.363" id="filter3732">
<feGaussianBlur stdDeviation="1.18491"/>
</filter>
<filter width="1.139" x="-.07" y="-.365" height="1.731" id="filter7603">
<feGaussianBlur stdDeviation="20.15727"/>
</filter>
<filter width="1.662" x="-.331" y="-.03" height="1.061" id="filter7804">
<feGaussianBlur stdDeviation="4.64917"/>
</filter>
<filter id="filter8133">
<feGaussianBlur stdDeviation="4.91308"/>
</filter>
<filter id="filter7996">
<feGaussianBlur stdDeviation="1.26419"/>
</filter>
<filter width="1.199" x="-.1" y="-.116" height="1.231" id="filter9636">
<feGaussianBlur stdDeviation="1.06054"/>
</filter>
<linearGradient id="linearGradient9269">
<stop offset="0" stop-color="#373337" stop-opacity="0"/>
<stop offset=".5" stop-color="#7d888e"/>
<stop offset="1" stop-color="#747474" stop-opacity="0"/>
</linearGradient>
<linearGradient id="linearGradient6142">
<stop offset="0" stop-color="#d1f3ff"/>
<stop offset="1" stop-color="#b1b1b1" stop-opacity="0"/>
</linearGradient>
<linearGradient id="linearGradient7249">
<stop offset="0" stop-color="#322929" stop-opacity=".112"/>
<stop offset=".5"/>
<stop offset="1" stop-color="#fff" stop-opacity="0"/>
</linearGradient>
<linearGradient gradientTransform="matrix(.15383 0 0 .0714 505 549.4)" id="linearGradient2716" y1="433.53" x1="-2006.8" y2="424.36" gradientUnits="userSpaceOnUse" x2="-1846">
<stop offset="0"/>
<stop offset="1" stop-opacity="0"/>
</linearGradient>
<linearGradient id="linearGradient2681" x1="-4120.3" gradientUnits="userSpaceOnUse" x2="-4219">
<stop offset="0" stop-color="#b6dbe8"/>
<stop offset="1" stop-color="#b3ae99" stop-opacity="0"/>
</linearGradient>
<linearGradient gradientTransform="matrix(.58921 0 0 .58921 2731.3 5468.4)" id="linearGradient2702" y1="-8767.4" x1="-4388.5" y2="-8760" gradientUnits="userSpaceOnUse" x2="-4321.8">
<stop offset="0" stop-color="#6a6a6a" stop-opacity=".837"/>
<stop offset="1" stop-color="#fff" stop-opacity="0"/>
</linearGradient>
<linearGradient id="linearGradient2683" y1="-8959.2" y2="-8911.5" x1="-4108.8" gradientUnits="userSpaceOnUse" x2="-4213.4">
<stop offset="0" stop-color="#1d1d1d"/>
<stop offset="1" stop-color="#1d1d1d" stop-opacity="0"/>
</linearGradient>
<linearGradient gradientTransform="matrix(1.0258 0 0 1 70.454 -13.561)" spreadMethod="reflect" id="linearGradient2675" y1="-8375.5" x1="-4271.8" y2="-8339.3" gradientUnits="userSpaceOnUse" x2="-4070.9">
<stop offset="0" stop-color="#e0e7f0"/>
<stop offset="1" stop-color="#c1cfe2" stop-opacity="0"/>
</linearGradient>
<linearGradient gradientTransform="matrix(.58921 0 0 .58921 2731.3 5468.4)" id="linearGradient2708" y1="-8491.9" x1="-4427.4" y2="-8443.4" gradientUnits="userSpaceOnUse" x2="-4141.1">
<stop offset="0" stop-color="#322929" stop-opacity="0"/>
<stop offset=".5" stop-color="#fff"/>
<stop offset="1" stop-color="#fff" stop-opacity="0"/>
</linearGradient>
<linearGradient gradientTransform="matrix(.58921 0 0 .58921 2731.3 5468.4)" id="linearGradient2705" y1="-8689.7" x1="-4221.1" y2="-8650.1" gradientUnits="userSpaceOnUse" x2="-4321.8">
<stop offset="0" stop-color="#fff"/>
<stop offset="1" stop-color="#fff" stop-opacity="0"/>
</linearGradient>
<linearGradient id="linearGradient2651" y1="-8396.1" y2="-8571.6" x1="-4190.6" gradientUnits="userSpaceOnUse" x2="-4125.1">
<stop offset="0" stop-color="#cfe9ff" stop-opacity=".737"/>
<stop offset="1" stop-color="#ccc" stop-opacity="0"/>
</linearGradient>
<linearGradient gradientTransform="matrix(.58921 0 0 .58921 2731.3 5468.4)" id="linearGradient2742" y1="-8899.5" x1="-3817.7" y2="-8833.6" gradientUnits="userSpaceOnUse" x2="-3761.5">
<stop offset="0" stop-color="#07000b"/>
<stop offset="1" stop-color="#07000b" stop-opacity="0"/>
</linearGradient>
<linearGradient gradientTransform="matrix(.58921 0 0 .58921 2731.3 5468.4)" id="linearGradient2772" xlink:href="#linearGradient7249" x1="-4102.3" gradientUnits="userSpaceOnUse" x2="-3979.7"/>
<linearGradient gradientTransform="matrix(.58921 0 0 .58921 2731.3 5468.4)" id="linearGradient2794" y1="-8842.9" x1="-4471.5" y2="-8755.6" gradientUnits="userSpaceOnUse" x2="-4379.9">
<stop offset="0" stop-color="#b2b9ca"/>
<stop offset="1" stop-color="#999faf" stop-opacity="0"/>
</linearGradient>
<linearGradient gradientTransform="matrix(.58921 0 0 .58921 2731.3 5468.4)" id="linearGradient2775" x1="-4351" gradientUnits="userSpaceOnUse" x2="-4239.8">
<stop offset="0" stop-color="#fff" stop-opacity="0"/>
<stop offset=".5" stop-color="#fff"/>
<stop offset="1" stop-color="#fff" stop-opacity="0"/>
</linearGradient>
<linearGradient gradientTransform="matrix(.58921 0 0 .58921 2731.3 5468.4)" id="linearGradient2801" y1="-8657.5" x1="-4388.5" y2="-8664.6" gradientUnits="userSpaceOnUse" x2="-4321.8">
<stop offset="0" stop-color="#d3e3ef"/>
<stop offset="1" stop-color="#c1cfe2" stop-opacity="0"/>
</linearGradient>
<linearGradient gradientTransform="matrix(.58921 0 0 .58921 2731.3 5468.4)" id="linearGradient2781" xlink:href="#linearGradient9269" x1="-4351" gradientUnits="userSpaceOnUse" x2="-4302.7"/>
<linearGradient gradientTransform="matrix(.58921 0 0 .58921 2731.3 5468.4)" spreadMethod="reflect" id="linearGradient2778" xlink:href="#linearGradient9269" x1="-3562.7" gradientUnits="userSpaceOnUse" x2="-3957.2"/>
<linearGradient gradientTransform="matrix(.58921 0 0 .58921 2731.3 5468.4)" id="linearGradient2790" y1="-8449.7" x1="-4395" y2="-8443.4" gradientUnits="userSpaceOnUse" x2="-3837.8">
<stop offset="0" stop-color="#95a7b4" stop-opacity=".706"/>
<stop offset=".135" stop-color="#fff"/>
<stop offset=".224" stop-color="#ececec"/>
<stop offset=".404" stop-color="#b2afb3" stop-opacity=".71"/>
<stop offset=".515" stop-color="#97a7be" stop-opacity=".255"/>
<stop offset=".626" stop-color="#9199a4" stop-opacity=".247"/>
<stop offset=".682" stop-color="#8e9297" stop-opacity=".243"/>
<stop offset=".71" stop-color="#8c8e91" stop-opacity=".243"/>
<stop offset=".738" stop-color="#8b8b8b" stop-opacity=".245"/>
<stop offset=".875" stop-opacity=".602"/>
<stop offset=".938" stop-color="#0f0f19" stop-opacity=".271"/>
<stop offset=".969" stop-color="#171726" stop-opacity=".133"/>
<stop offset=".984" stop-color="#1b1b2c" stop-opacity=".067"/>
<stop offset="1" stop-color="#1f1f33" stop-opacity="0"/>
</linearGradient>
<linearGradient gradientTransform="matrix(.58921 0 0 .58921 2704.4 5479)" id="linearGradient2719" x1="659.89" gradientUnits="userSpaceOnUse" x2="660.67">
<stop offset="0" stop-color="#fff"/>
<stop offset="1" stop-color="#ffbe1e" stop-opacity="0"/>
</linearGradient>
<linearGradient gradientTransform="matrix(.58921 0 0 .58921 2731.3 5468.4)" id="linearGradient2811" xlink:href="#linearGradient7249" y1="-7967.8" x1="-4260" y2="-8215.9" gradientUnits="userSpaceOnUse" x2="-4296.5"/>
<linearGradient gradientTransform="matrix(.58921 0 0 .58921 2731.3 5468.4)" id="linearGradient2805" y1="-8703.1" x1="-4011.9" y2="-8554.6" gradientUnits="userSpaceOnUse" x2="-4111.3">
<stop offset="0" stop-color="#5a6671" stop-opacity=".408"/>
<stop offset="1" stop-color="#a3c1c2" stop-opacity="0"/>
</linearGradient>
<linearGradient gradientTransform="matrix(.58921 0 0 .58921 2731.3 5468.4)" id="linearGradient2784" x1="-4351" gradientUnits="userSpaceOnUse" x2="-4302.7">
<stop offset="0" stop-color="#687071"/>
<stop offset="1" stop-color="#747474" stop-opacity="0"/>
</linearGradient>
<radialGradient cx="-4156.3" cy="-7989.6" gradientTransform="matrix(2.5675 -1.9871 1.5365 1.9853 18761 -269.03)" id="radialGradient2687" r="120.22" gradientUnits="userSpaceOnUse">
<stop offset="0" stop-color="#4c1f1f"/>
<stop offset="1" stop-color="#1d1d1d" stop-opacity="0"/>
</radialGradient>
<radialGradient cx="-4044.5" cy="-8660.6" gradientTransform="matrix(.60276 -.01833 .00762 .25064 2851.3 2543)" id="radialGradient2787" r="248.75" gradientUnits="userSpaceOnUse">
<stop offset="0" stop-color="#1f1f1f"/>
<stop offset="1" stop-color="#443232" stop-opacity="0"/>
</radialGradient>
<radialGradient cx="-4389.8" cy="-8235.5" gradientTransform="matrix(-1.1515 1.1178 -1.9221 -1.9801 -20742 -10858)" id="radialGradient2797" r="40.673" gradientUnits="userSpaceOnUse">
<stop offset="0" stop-color="#b8cbdb" stop-opacity=".806"/>
<stop offset="1" stop-color="#8f6e70" stop-opacity="0"/>
</radialGradient>
<radialGradient cx="-4260.6" cy="-8896.4" gradientTransform="matrix(.37103 1.1016 -1.3643 .4595 -14829 -125.78)" id="radialGradient2679" r="105.49" gradientUnits="userSpaceOnUse">
<stop offset="0" stop-color="#edf7ff"/>
<stop offset="1" stop-color="#b1b1b1" stop-opacity="0"/>
</radialGradient>
<radialGradient cx="-4524.8" cy="-8363.9" gradientTransform="matrix(.56717 .14162 -1.0994 4.4027 -11000 29356)" id="radialGradient2647" r="111.1" gradientUnits="userSpaceOnUse">
<stop offset="0" stop-color="#f3ffff"/>
<stop offset="1" stop-color="#b1b1b1" stop-opacity="0"/>
</radialGradient>
<radialGradient cx="-4004.8" cy="-8694.5" gradientTransform="matrix(1.1804 0 0 3.4065 5098.9 29963)" id="radialGradient2753" r="109.55" gradientUnits="userSpaceOnUse">
<stop offset="0" stop-color="#b3ac8a" stop-opacity=".622"/>
<stop offset="1" stop-color="#8e8e8e" stop-opacity="0"/>
</radialGradient>
<radialGradient cx="-4357.3" cy="-8243.2" gradientTransform="matrix(1.2381 3.1549 -1.6534 .64885 -12592 10768)" id="radialGradient2643" xlink:href="#linearGradient6142" r="111.1" gradientUnits="userSpaceOnUse"/>
<radialGradient cx="-4255.2" cy="-8316.9" gradientTransform="matrix(.19144 -.55724 1.5312 .52603 13804 2570.4)" id="radialGradient2816" xlink:href="#linearGradient6142" r="111.1" gradientUnits="userSpaceOnUse"/>
<radialGradient cx="-4125.9" cy="-7748.4" gradientTransform="matrix(.98632 .05763 .01845 .45934 167.77 -3971.2)" id="radialGradient2641" r="347.9" gradientUnits="userSpaceOnUse">
<stop offset="0" stop-color="#594c36"/>
<stop offset="1" stop-color="#070000" stop-opacity="0"/>
</radialGradient>
</defs>
<g fill-rule="evenodd">
<g>
<path fill="#837f7f" d="m73.607,210.66l64.113-16.19 10.36-13.6 144.42-22.02-17.49-71.885 40.8-11.009 41.45,9.714-14.25,78.36 56.99,3.24 51.8,15.54 12.96-8.42 94.55-3.24v46.63l-8.42,27.2-55.7,18.78-31.64,182.53-11.28,26.74-20.25,18.09-1.44,25.63-119.95,21.59-137.29-29.79-3.89-9.71-2.5-51.44-6.37-18.54-13.15-40.11-25.25-31.74-48.573-90.66-33.028-15.54-3.238-11.66 18.133-18.13 14.895-5.83 3.238-4.53z"/>
<path fill="#a1a1a1" d="m364.49,468.86s28.43-1.04 55.68-5.8c27.63-4.82 40.97-14.64 40.97-14.64l32.45-218.78-121.19,25.92-7.91,213.3z"/>
<path fill="url(#radialGradient2753)" d="m364.49,468.86s28.43-1.04 55.68-5.8c27.63-4.82 40.97-14.64 40.97-14.64l32.45-218.78-121.19,25.92-7.91,213.3z"/>
<path fill="url(#linearGradient2805)" d="m225.08,463.31s38.66,13.14 64.36,14.24c25.72,1.11 74.05-9.15 74.05-9.15l4.04-210.49s-151.69-12.68-155.58-7.19c-3.49,4.93 13.13,212.59 13.13,212.59z"/>
<path opacity=".76" fill="url(#radialGradient2641)" filter="url(#filter7603)" d="m-3696.8-7734.1c0,42.3-155.7,76.7-347.9,76.7-192.1,0-347.8-34.4-347.8-76.7 0-42.4 155.7-76.8 347.8-76.8 192.2,0 347.9,34.4 347.9,76.8z" transform="matrix(.86245 -.08717 0 .95395 3929.3 7774.3)"/>
<path fill="#1d0f0f" filter="url(#filter9061)" d="m-3698.4-7725.6c-11.9,31.7-89,59.4-202.3,72.6-113.2,13.1-245.4,9.8-346.5-8.7-101.2-18.6-155.9-49.5-143.6-81.2" transform="matrix(.53412 0 0 .95395 2476.9 8100.6)"/>
<path fill="#625d5d" d="m314.86,600.58c-88.77,0-155.82-45.93-155.82-81.35 0-13.71 14.24-5.54 14.31-25.97 0,0 264.64-7.48 280.59,9.55 12.12,12.94 17.53,21.48 18.9,37.03 2,22.64-82.35,55.87-157.98,60.74z"/>
<path fill="#b5b5b5" d="m158.73,517.86l-27.55,194.15s.31,.63 6.06,17.93c5.74,17.3 17.31,27.68 17.31,27.68l19.15-158.92-19.34,159.33s17.65,13.43 45.24,22.93c27.78,9.58 78.74,13.34 79.99,13.76l7.79-218.38s-37.31-19.28-54.96-22c-27.81-4.28-51.67-.88-53.31-.63v-.03s-3.81-17.18-8.38-23.42-12-12.4-12-12.4zm313.43,21.01s-12.21,.39-26.88,6.43c-25.57,10.54-36.75,27.36-36.75,27.36l13.94,213.57s26.92-11.65 47.14-26.37c23.65-17.22 31.39-26.14 31.39-26.14l-28.84-194.85zm-125.46,27.36c-25.72,0-59.09,9.65-59.09,9.65l-8.13,218.97s51.02,3.01 82.52-.74c39.39-4.68 60.4-8.25 60.4-8.25l-13.74-213.5s-36.24-6.13-61.96-6.13z"/>
<path fill="#cdcfd1" d="m179.04,554.11s23.93-3.87 52.78,.57c17.64,2.72 54.96,22.01 54.96,22.01l-6.96,218.37s-52.21-4.19-79.99-13.76c-27.59-9.51-43.98-23.34-43.98-23.34l23.19-203.85z"/>
<path fill="url(#radialGradient2643)" filter="url(#filter8133)" d="m-4331.8-8340.5s40.6-6.6 89.6,.9c29.9,4.7 93.3,37.4 93.3,37.4l-11.8,370.6s-88.6-7.1-135.8-23.3c-46.8-16.2-74.6-39.6-74.6-39.6l39.3-346z" transform="matrix(.58921 0 0 .58921 2731.3 5468.4)"/>
<path fill="url(#radialGradient2816)" d="m179.04,554.11s23.93-3.87 52.78,.57c17.64,2.72 54.96,22.01 54.96,22.01l-6.96,218.37s-52.21-4.19-79.99-13.76c-27.59-9.51-43.98-23.34-43.98-23.34l23.19-203.85z"/>
<path fill="url(#radialGradient2647)" filter="url(#filter6184)" d="m-4331.8-8340.5s40.6-6.6 89.6,.9c29.9,4.7 93.3,37.4 93.3,37.4l-11.8,370.6s-88.6-7.1-135.8-23.3c-46.8-16.2-74.6-39.6-74.6-39.6l39.3-346z" transform="matrix(.58921 0 0 .58921 2731.3 5468.4)"/>
<path opacity=".302" fill="#fff" d="m179.04,554.11s23.93-3.87 52.78,.57c17.64,2.72 54.96,22.01 54.96,22.01l-6.96,218.37s-52.21-4.19-79.99-13.76c-27.59-9.51-43.98-23.34-43.98-23.34l23.19-203.85z"/>
<path opacity=".239" fill="url(#linearGradient2811)" d="m179.04,554.11s23.93-3.87 52.78,.57c17.64,2.72 54.96,22.01 54.96,22.01l-6.96,218.37s-52.21-4.19-79.99-13.76c-27.59-9.51-43.98-23.34-43.98-23.34l23.19-203.85z"/>
<path fill="#707070" d="m225.08,463.31s38.66,13.14 64.36,14.24c25.72,1.11 74.05-9.15 74.05-9.15l4.04-210.49s-151.69-12.68-155.58-7.19c-3.49,4.93 13.13,212.59 13.13,212.59z"/>
<path fill="url(#linearGradient2651)" filter="url(#filter7996)" d="m-4253.6-8494.6s65.6,22.3 109.2,24.1c43.6,1.9 125.7-15.5 125.7-15.5l6.8-357.2s-257.4-21.6-264-12.2c-5.9,8.3 22.3,360.8 22.3,360.8z" transform="matrix(.58921 0 0 .58921 2731.3 5468.4)"/>
<path fill="#d7dee7" fill-opacity=".739" d="m145.63,385.73s6.96,30.64 13.7,46.94c5.32,12.86 10.9,15.34 10.9,15.34l54.03,15.67-14.4-214.85-58.55-15.81-5.68,152.71z"/>
<path fill="url(#linearGradient2801)" d="m145.63,385.73s6.96,30.64 13.7,46.94c5.32,12.86 10.9,15.34 10.9,15.34l54.03,15.67-14.4-214.85-58.55-15.81-5.68,152.71z"/>
<path fill="#b1b1b1" d="m158.95,518.21s7.44,6.15 12.01,12.39 8.38,23.41 8.38,23.41l-24.55,203.95s-11.57-10.37-17.32-27.67c-5.74-17.29-6.06-17.94-6.06-17.94l27.54-194.14z"/>
<path fill="url(#radialGradient2797)" d="m158.95,518.21s7.44,6.15 12.01,12.39 8.38,23.41 8.38,23.41l-24.55,203.95s-11.57-10.37-17.32-27.67c-5.74-17.29-6.06-17.94-6.06-17.94l27.54-194.14z"/>
<path fill="url(#linearGradient2794)" d="m150.68,233.88l-6.58,151.35-11.78-8.26-58.492-107.22c22.675-19.31 47.232-33.91 76.852-35.87z"/>
<path fill="#757584" d="m167.71,446.42c54.08,31.04 96.62,32.89 143.36,32.96 49.34,.08 99.98-3.26 149.76-26.29l-2.5,49.68c-35.27,27.46-100.08,37.42-149.62,37.78-48.21,.34-121.66-11.13-141-44.45v-49.68z"/>
<path fill="url(#linearGradient2790)" d="m167.71,446.42c54.08,31.04 96.62,32.89 143.36,32.96 49.34,.08 99.98-3.26 149.76-26.29l-2.5,49.68c-35.27,27.46-100.08,37.42-149.62,37.78-48.21,.34-121.66-11.13-141-44.45v-49.68z"/>
<path fill="url(#radialGradient2787)" d="m167.71,446.42c54.08,31.04 96.62,32.89 143.36,32.96 49.34,.08 99.98-3.26 149.76-26.29l-2.5,49.68c-35.27,27.46-100.08,37.42-149.62,37.78-48.21,.34-121.66-11.13-141-44.45v-49.68z"/>
<path fill="url(#linearGradient2784)" d="m167.71,446.42c54.08,31.04 96.62,32.89 143.36,32.96 49.34,.08 99.98-3.26 149.76-26.29l-2.5,49.68c-35.27,27.46-100.08,37.42-149.62,37.78-48.21,.34-121.66-11.13-141-44.45v-49.68z"/>
<path fill="url(#linearGradient2781)" d="m167.71,446.42c54.08,31.04 96.62,32.89 143.36,32.96 49.34,.08 99.98-3.26 149.76-26.29l-2.5,49.68c-35.27,27.46-100.08,37.42-149.62,37.78-48.21,.34-121.66-11.13-141-44.45v-49.68z"/>
<path fill="url(#linearGradient2778)" d="m167.71,446.42c54.08,31.04 96.62,32.89 143.36,32.96 49.34,.08 99.98-3.26 149.76-26.29l-2.5,49.68c-35.27,27.46-100.08,37.42-149.62,37.78-48.21,.34-121.66-11.13-141-44.45v-49.68z"/>
<path fill="url(#linearGradient2775)" d="m167.71,446.42c54.08,31.04 96.62,32.89 143.36,32.96 49.34,.08 99.98-3.26 149.76-26.29l-2.5,49.68c-35.27,27.46-100.08,37.42-149.62,37.78-48.21,.34-121.66-11.13-141-44.45v-49.68z"/>
<path opacity=".31" fill="url(#linearGradient2772)" d="m167.71,446.42c54.08,31.04 96.62,32.89 143.36,32.96 49.34,.08 99.98-3.26 149.76-26.29l-2.5,49.68c-35.27,27.46-100.08,37.42-149.62,37.78-48.21,.34-121.66-11.13-141-44.45v-49.68z"/>
<path fill="url(#linearGradient2675)" filter="url(#filter8161)" d="m-4377.8-8424.4c45.4,30.2 172.4,115.2 469.5,14.3 14.3-4.8-20.3,12.6-8.6,9.2-258.2,96.7-405.6,40.2-457.6-3.4l-3.3-20.1z" transform="matrix(.57438 0 0 .58921 2690.9 5476.4)"/>
<path fill="#918c89" d="m408.76,571.16s11.18-16.83 36.75-27.37c14.67-6.04 26.9-6.43 26.9-6.43l28.82,194.84s-7.74,8.93-31.39,26.16c-20.21,14.72-47.14,26.37-47.14,26.37l-13.94-213.57z"/>
<path fill="#868686" d="m287.84,576.23s33.38-9.66 59.1-9.66 60.7,4.89 60.7,4.89l14.99,214.75s-21.02,3.56-60.4,8.25c-31.51,3.74-81.26-.1-81.26-.1l6.87-218.13z"/>
<path fill="#8e8e8e" d="m493.84,216.58l27.14-1.77 39.14,1.18-6.74,26.17-64.84,23.57 5.3-49.15z"/>
<path fill="#544040" fill-opacity=".739" d="m513.16,177.88l4.23,6.13-15.78-5.21 11.55-.92z"/>
<path fill="#241c1c" fill-opacity=".388" d="m69.861,231.18c-24.8,9.92-24.748,16.29-29.018,17.09l-1.814-6.28s6.284-8.42 14.256-15.22c7.973-6.8 17.634-11.97 17.634-11.97l2.854,4.81 27.707-.73-6.833,3.95-10.192,2.01 2.014,4.61"/>
<path fill="#a5a4a1" d="m109.96,210.7l70.7-17.67-24.74,26.51-56.081,10.22-2.844-6.68 12.965-12.38z"/>
<path fill="#88877f" d="m148.84,180.06l130.81-19.44-97.81,32.41-70.44,17.31-7.44-5.33 33.1-11.4 11.78-13.55z"/>
</g>
<g fill="#fff">
<path filter="url(#filter4057)" d="m-4511-8923.4s25.5-9.5 56-4c20.2,3.7-11,19-11,19s-31.8,1.8-43-2c-11.3-3.7-2-13-2-13z" transform="matrix(.58921 0 0 .58921 2731.3 5468.4)"/>
<path filter="url(#filter4009)" fill-opacity=".388" d="m-4370.3-8900.2c18.1,2.2 24.4,9.2 68.1,20.7 34.1,9 35.9,18.7 24.1,18.9-13.4,.2-37.8-8.1-37.8-8.1-4.4,8.8-31-9-58.7-19.6-18.3-6.9-13.8-14.1 4.3-11.9z" transform="matrix(.58921 0 0 .58921 2731.3 5468.4)"/>
</g>
<g>
<path fill="#7e7b7b" d="m472.8,189.99l20.4,10.61 6.76,24 10.41,1.17c1.05,13.73 13.17,14.12 24.19,14.12 11.73,0 25.33-16.17 25.33-31.16 0-13.26-10.14-14.72-16.44-17.1 0,0-57.23-2.51-70.65-1.64z"/>
<path fill="#a5a5a5" d="m451.42,181.82l15.33-5.5 86.89-5.11 4.3,27.35s-.61-8.69-19.88-10.01c-19.26-1.33-57.18,4.71-57.18,4.71l-29.46-11.44z"/>
</g>
</g>
<path fill="none" filter="url(#filter3884)" stroke="#000" stroke-width="6.986" d="m-3798.4-8895.5l-211.4,46.6-273.6-9.3-99.5-31.1-115-3.1 21.8-18.7-34.2,6.2v3.1" transform="matrix(.58921 0 0 .58921 2731.3 5468.4)"/>
<g fill-rule="evenodd">
<path fill="#fffaea" filter="url(#filter4401)" d="m-4534.2-8904s10.2-7.2 22.3-3c8,2.7-4.4,14.5-4.4,14.5s-12.6,1.3-17.1-1.6c-4.4-2.8-.8-9.9-.8-9.9z" transform="matrix(.44199 0 0 .42852 2090.5 4040.7)"/>
<path fill="#aeaca2" d="m460.6,227.57l-89.44,19.01-159.38-8.64-55.59-15.75 16.85-26.56 103.18-35.04-123.6,18.81 133.37-19.79 108.37,9.44 54.21,13.73 53.52,19.79-9.87,16.88-31.62,8.12z"/>
<path fill="#1d1d1d" d="m317.05,67.014l-27.68,10.367-15.95,6.064 .53,6.827-.14-.043 .16,.435 .02,.087 .02,.011 18.12,73.208s21.2,5.23 27.67,5.07c6.48-.15 21.62-3.21 21.62-3.21l18.04-75.601-1.08,.261 1.51-.577-.56-7.306-16.86-5.749-25.42-9.844z"/>
</g>
<path fill="none" filter="url(#filter5127)" stroke="#fff" stroke-linecap="round" stroke-width="9" d="m-4417.7-8903.6l89,24.9 .6,5.9" transform="matrix(.58921 -.0094 0 .58921 2759.1 5430.5)"/>
<g fill-rule="evenodd">
<path opacity=".744" fill="url(#radialGradient2679)" filter="url(#filter6275)" d="m-4271.3-8877.8l98.3-81-182.7,54.3 84.4,26.7z" transform="matrix(.58921 0 0 .58921 2731.3 5468.4)"/>
<path opacity=".744" fill="url(#linearGradient2681)" filter="url(#filter6373)" d="m-4120.3-9002.2l-15.5-117.2-40.7-11 38.4,128.2h17.8z" transform="matrix(.58921 0 0 .58921 2731.3 5468.4)"/>
</g>
<path fill="none" filter="url(#filter7528)" stroke="#fff" stroke-width="4" d="m-4206.5-9146.2l37.8,6.7 51.1,2.2 44.4-8.9-2.2-2.2" transform="matrix(.59074 0 0 .48983 2762.3 4561.6)"/>
<path opacity=".678" fill="url(#linearGradient2683)" filter="url(#filter7586)" fill-rule="evenodd" d="m-4096.7-8905.2l47-9.7 27.1-5.7-.9-6.4 .2,.1-.3-.4v-.1c-18.3-12.2-30.2-32.7-30.8-68.5 0,0-35.9-24.9-46.9-24.7-11,.1-36.7,9.6-36.7,9.6l-30.6,84.1 1.8-.3-2.6,.6 1,6.8 28.6,5.4 43.1,9.2z" transform="matrix(.58921 0 0 .58921 2731.3 5468.4)"/>
<path fill="none" filter="url(#filter7624)" stroke="#fff" stroke-width="3" d="m-3820.3-8954.7l41.8-4h55.2s26.1,2 33.9,14.2c7.7,12.2 6.6,37.8 6.6,37.8s-1.6,1.7-2.2,2.2" transform="matrix(.58921 0 0 .58921 2731.3 5468.4)"/>
<g fill-rule="evenodd">
<path fill="#1d1d1d" d="m607.22,165.53c11.41,3.27 63.74,69.97 64.42,82.65 .6,11.34-68.28,196.25-68.28,196.25s-65.45,22.23-71.12,21.11c-8.07,0-17.94-41.27-13.11-51.16 2.22-4.57 26.74,9.32 26.74,9.32s19.66-.66 29.16-17.17c11.4-19.8 3.45-38.31 10.99-77.95 10.89-57.24 29.27-63.79 26.87-78.91-1.57-9.91-10.83-15.77-23.27-16.31-10.29-.45-37.93,10.67-37.93,10.67s5.23-15.5 6.97-26.44c1.74-10.93-.02-17.31-.02-17.31l-3.78-29.97"/>
<path opacity=".678" fill="url(#linearGradient2742)" d="m495.79,216.41l13.9,.54c.79,12.39 11.57,18.79 24.58,23.86l-.54,9.84-36.09,12.95-1.85-47.19z"/>
</g>
<g fill="none">
<path filter="url(#filter7669)" stroke="#dbe0e5" stroke-width="4" d="m-4387.8-8662.4l9.4-207.3" transform="matrix(.58921 0 0 .58921 2731.3 5468.4)"/>
<path filter="url(#filter7787)" stroke="#000" stroke-width="5.8" d="m-3863.3-8970.2l41.6,19.6 35.4,14.2" transform="matrix(.58921 0 0 .58921 2731.3 5468.4)"/>
</g>
<path fill="url(#radialGradient2687)" filter="url(#filter7985)" fill-rule="evenodd" d="m-4147.1-8303s56.6-16.4 100.3-16.4c43.6,0 103,8.3 103,8.3l25.4,364.5s-35.6,6-102.5,14c-53.4,6.3-137.9-.2-137.9-.2l11.7-370.2z" transform="matrix(.58921 0 0 .58921 2731.3 5468.4)"/>
<g fill="none">
<path filter="url(#filter8309)" stroke="#797979" stroke-width="11.7" d="m-4007.8-8841.4l-6.2,348.6" transform="matrix(.58921 0 0 .58921 2731.3 5468.4)"/>
<path filter="url(#filter9045)" stroke="#000" stroke-linejoin="round" stroke-linecap="round" stroke-width="2.7" d="m-4472.6-8898l91.1-6.2 31.4-22" transform="matrix(.58921 0 0 .58921 2731.3 5468.4)"/>
</g>
<g fill-rule="evenodd">
<g>
<path filter="url(#filter3732)" fill-opacity=".459" d="m-3792.7-8976.3l-34.1-.2 46.9,15.9-12.8-15.7z" transform="matrix(.58921 0 0 .58921 2731.3 5468.4)"/>
<path filter="url(#filter9636)" fill-opacity=".412" d="m-3710-8910.3l-33.2-3c.4,11.6 7.2,15.6 14.4,16.4 13.5,1.6 18.8-13.4 18.8-13.4z" transform="matrix(.58921 0 0 .58921 2731.3 5468.4)"/>
<path fill="#b78e2a" d="m244.54,572.54l-1.61,24.36-17.78,11.06-21.69-3.37-8.18-14.16 1.49-22.2 13.33-12.84 21.53,1.33 12.91,15.82z"/>
<path fill="#c8b79b" fill-opacity=".541" d="m224.35,555.91c3.48,5.92 7.16,11.87 13.06,17.99l8.43,.67-12.52-16.81-8.97-1.85z"/>
<path fill="#656528" d="m218.9,567.27c7.22,.57 12.55,7.7 11.9,15.93-.65,8.22-7.03,14.43-14.24,13.86-.5-.04-.99-.11-1.47-.21 1.34-.19 2.63-.61 3.82-1.23 .02-.01 .03-.02 .04-.02 4.42-2.14 7.7-6.92 8.16-12.7 .59-7.5-3.8-14.1-10.07-15.62 .62-.05 1.24-.06 1.86-.01zm-1.86,.01c-.22,.01-.45,.04-.68,.07-.48-.1-.97-.17-1.47-.21-2.08-.16-4.1,.24-5.92,1.09 1.91-.96 4.04-1.42 6.24-1.25 .63,.05 1.24,.15 1.83,.3z"/>
<path fill="#b78e2a" d="m223,582.4c-.43,5.5-4.7,9.66-9.53,9.28-4.82-.38-8.39-5.15-7.95-10.66 .43-5.5 4.69-9.65 9.52-9.27s8.39,5.15 7.96,10.65z"/>
<path fill="#cd9c47" d="m213.48,570.97c-4.82-.38-9.09,3.77-9.52,9.28-.44,5.5 3.13,10.27 7.95,10.65 .34,.02 .67,.03 .99,.01-.86-.27-1.66-.68-2.39-1.21-.01-.01-.02-.01-.02-.02-2.7-1.87-4.37-5.38-4.06-9.24 .39-5.02 3.99-8.92 8.28-9.28-.4-.09-.81-.16-1.23-.19zm1.23,.19c.15,.04 .3,.08 .44,.13 .33-.02 .66-.02 1,.01 1.39,.11 2.68,.59 3.8,1.34-1.17-.83-2.52-1.36-4-1.48-.42-.03-.83-.03-1.24,0z"/>
</g>
<g fill="#875323">
<path fill-opacity=".809" d="m237.08,573.94s-1.03,4.89-1.86,10.44-.36,11.5-.36,11.5l8.39,.71 2.34-22.34-8.51-.31z"/>
<path fill-opacity=".424" d="m249.94,574.95s.83,5.06-.19,10.57c-1.13,6.06-4.01,12.36-4.01,12.36l-2.4-1.28 1.41-22.42 5.19,.77z"/>
</g>
<g>
<path fill="#c8b79b" fill-opacity=".541" d="m249.99,574.89c-2.93-5.88-7.91-11.46-12.91-17.51l-5.35-.89 10.57,16.65 7.69,1.75z"/>
<path fill="#c89a19" fill-opacity=".37" d="m246.77,596.59c-4.25,4.09-9.29,6.69-14.69,9.78l-6.37,1.14 17.35-10.64 3.71-.28z"/>
<path fill="url(#linearGradient2719)" filter="url(#filter3994)" d="m211.59,567.35c-6.34-.5-12,5.56-12.63,13.53s4.01,14.84 10.35,15.34c.44,.03 .87,.03 1.3,0-1.13-.37-2.18-.96-3.13-1.72l-.03-.03c-3.52-2.68-7.34-7.41-6.66-12.98 1.32-10.93 6.76-13.31 12.41-13.87-.53-.13-1.06-.22-1.61-.27zm1.61,.27c.19,.06 .39,.12 .58,.18 .43-.03 .87-.03 1.31,.01 1.83,.14 3.52,.82 4.98,1.9-1.52-1.2-3.3-1.95-5.24-2.1-.55-.04-1.09-.04-1.63,.01z"/>
<path fill="url(#linearGradient2716)" d="m222.39,582.38c0,5.52-3.92,9.99-8.76,9.99-4.85,0-8.77-4.47-8.77-9.99s3.92-10 8.77-10c4.84,0 8.76,4.48 8.76,10z"/>
<path fill="#bbbc34" d="m218.26,581.31c0,3.61-2.49,6.54-5.56,6.54s-5.56-2.93-5.56-6.54c0-3.62 2.49-6.55 5.56-6.55s5.56,2.93 5.56,6.55z"/>
</g>
</g>
<path fill="none" filter="url(#filter7804)" stroke="#b9e6ff" stroke-linejoin="round" stroke-linecap="round" stroke-width="4.7" d="m-4282.4-8856.5l29.2,361.5" transform="matrix(.58921 0 0 .58921 2731.3 5468.4)"/>
<path filter="url(#filter8161)" fill-rule="evenodd" fill-opacity=".191" d="m-4436.6-8446.7c33.6,22.4 228.7,37.4 315.8,39.4 30.3,.7 3.7,46.4 24.2,44.4 15.1-1.4-61.6,8.2-49.9,4.8-48.5,13.1-94.8,15.1-82.2,21.4l-207.9-110z" transform="matrix(.3736 -.14287 0 .44364 1990.4 3658.5)"/>
<path fill="none" stroke="#7f7f7f" stroke-width="3.334" d="m408.29,571.82l14.32,213.78"/>
<g fill-rule="evenodd">
<path fill="#bcbcbc" d="m153.12,232.56l-78.113,36.02-33.039-18.16s9.684-8.37 20.943-14.98c14.48-8.51 90.209-2.88 90.209-2.88z"/>
<path opacity=".907" fill="url(#linearGradient2708)" d="m167.71,446.42c54.08,31.04 96.62,32.89 143.36,32.96 49.34,.08 99.98-3.26 149.76-26.29l-2.5,49.68c-35.27,27.46-100.08,37.42-149.62,37.78-48.21,.34-121.66-11.13-141-44.45v-49.68z"/>
<path fill="url(#linearGradient2705)" d="m145.63,385.73s6.96,30.64 13.7,46.94c5.32,12.86 10.9,15.34 10.9,15.34l54.03,15.67-14.4-214.85-58.55-15.81-5.68,152.71z"/>
<path fill="url(#linearGradient2702)" d="m145.63,385.73s6.96,30.64 13.7,46.94c5.32,12.86 10.9,15.34 10.9,15.34l54.03,15.67-14.4-214.85-58.55-15.81-5.68,152.71z"/>
</g>
<path fill="none" filter="url(#filter3910)" stroke="#000" stroke-width="2" d="m176.02,508.87c74,46.51 207.53,41.43 279.46-3.09"/>
</svg>
