<svg xmlns="http://www.w3.org/2000/svg" viewBox="0 0 207.04 161.49" xmlns:xlink="http://www.w3.org/1999/xlink">
<defs>
<linearGradient gradientTransform="translate(.23159)" id="linearGradient4323" y1="4.025" y2="59.811" x1=".326" gradientUnits="userSpaceOnUse" x2="188.56">
<stop offset="0" stop-color="#515151"/>
<stop offset="1" stop-color="#202020"/>
</linearGradient>
<linearGradient id="linearGradient4325" y1="97.654" y2="96.349" x1="3.589" gradientUnits="userSpaceOnUse" x2="173.56">
<stop offset="0" stop-color="#712020"/>
<stop offset="1" stop-color="#411000"/>
</linearGradient>
<linearGradient gradientTransform="matrix(.79858 0 0 .54476 20.948 -35.203)" id="linearGradient4327" y1="186.39" y2="276.11" x1="84.169" gradientUnits="userSpaceOnUse" x2="85.147">
<stop offset="0" stop-color="#515151"/>
<stop offset="1" stop-color="#e3e3e3"/>
</linearGradient>
<linearGradient gradientTransform="matrix(.98787 0 0 .99653 -17.525 -203.74)" id="linearGradient4329" y1="262.79" y2="240.87" gradientUnits="userSpaceOnUse" x2="0">
<stop offset="0" stop-opacity="0"/>
<stop offset="1" stop-color="#929292"/>
</linearGradient>
<linearGradient gradientTransform="matrix(.98611 0 0 .99653 -17.207 -198.48)" id="linearGradient4331" y1="226.76" y2="239.91" gradientUnits="userSpaceOnUse" x2="0">
<stop offset="0" stop-opacity="0"/>
<stop offset="1" stop-color="#c3c3c3"/>
</linearGradient>
</defs>
<g transform="translate(-.23159)">
<path fill="url(#linearGradient4323)" d="m154.27,23.721c27.453,5.6815 27.409,28.762 34.341,51 2.797,8.9712 7.458,25.117 18.659,26-.994-8.9809-9.411-14.58-12.251-23-4.655-13.801-4.56-31.912-13.129-44-8.411-11.866-18.313-11.568-30.62-16.613l-23-9.2384c-19.46-7.8188-44.673-.352-64.996,2.5514-20.385,2.9126-33.668-1.705-52-9.3364-3.5088-1.4607-9.5669-2.1792-10.639,2.7454-3.7206,17.092 19.416,17.121 23.761,26.896 3.8191,8.5908-1.0803,12.754-7.0139,18.571-2.5656,2.5152-5.4957,6.565-1.787,9.5664 5.5996,4.5317 20.643,2.3442 27.678,3.0278 29.048,2.8222 58.956,4.9456 88,.4205 7.241-1.1281 26.505,1.6633 31.396-4.0239 5.936-6.9025-9.616-12.92-11.755-18.566-1.947-5.1412 2.466-10.978 3.359-16z"/>
<path fill="url(#linearGradient4325)" stroke="#511010" stroke-width=".332" d="m81.47,161.16c-18.796-1.37-35.944-7.64-50.353-18.41-3.908-2.92-11.49-10.4-14.238-14.05-10.384-13.78-15.046-29.572-13.347-45.2 .446-4.1039 1.7503-9.9936 3.0217-13.645 1.1521-3.3086 4.0553-9.5091 5.7874-12.361l1.2035-1.9812 1.2866,1.339c.9641,1.0033 1.8455,1.5116 3.5162,2.0276 3.5259,1.089 6.0168,1.3152 14.561,1.3223 6.0454,.005 10.783,.2473 19.406,.9927 14.986,1.2953 19.188,1.5737 30.483,2.0189 14.537,.5731 31.192-.1003 42.793-1.7302 3.5447-.498 7.8208-.7497 16.255-.9568 14.772-.3627 17.933-.9355 20.593-3.7309l1.1116-1.1682 1.1202,1.8596c4.2908,7.123 7.3742,15.718 8.5329,23.786 .6127,4.2666 .6107,12.656-.004,16.98-1.9778,13.912-8.6014,26.735-19.378,37.515-14.316,14.321-34.764,23.4-56.924,25.274-3.6816,.3114-11.917,.3747-15.425,.1187z"/>
<path opacity=".13" fill="url(#linearGradient4327)" d="m25.24,66.333c-.8859,1.1577-1.7274,2.3452-2.1961,3.1715-1.0153,1.7901-2.0645,4.6833-2.4207,6.6954-1.3564,7.662 2.3636,15.396 10.656,22.155 2.1945,1.7886 8.2591,5.4627 11.38,6.8946 11.506,5.2795 25.194,8.3516 40.204,9.0242 2.8016,.1256 9.3881,.0914 12.328-.0613 17.697-.9189 34.012-5.3736 45.444-12.395 8.6064-5.2855 13.918-11.565 15.498-18.386 .4909-2.1201 .4893-6.2429 0-8.3348-.6819-2.915-2.2202-5.9603-4.3423-8.7638h-56.649c-1.5092,.0108-3.0158,.007-4.517,0h-65.384z"/>
</g>
<g fill="#823030" transform="translate(-.23159)">
<path opacity=".3" d="m8.2051,95.28c3.7512,11.409 7.9218,22.668 16.543,32.813 1.418,1.6685 3.8728,5.3581 6.6397,6.625 1.3567,.6212 2.0951-2.1407 .5899-4.1971-1.1045-1.509-2.8752-3.7468-3.454-4.4279-8.1219-9.5571-12.486-21.604-16.1-30.813-.5292-1.3484-4.6691-1.3698-4.2188,0z"/>
<path opacity=".3" d="m17.19,97.322c5.0364,11.409 10.475,22.668 20.239,32.813 1.6059,1.6685 4.4763,5.3581 7.3859,6.625 1.4267,.6212 1.854-2.1407 .1172-4.1971-1.2744-1.509-3.2972-3.7468-3.9527-4.4279-9.1985-9.5571-14.919-21.604-19.571-30.813-.6811-1.3484-4.8234-1.3698-4.2188,0z"/>
</g>
<g transform="translate(-.23159)">
<path opacity=".17" fill="url(#linearGradient4329)" d="m26.713,37.907c-.2703,3.363-2.2407,6.022-4.8776,8.782 .3063,.1104 .6431,.1557 .9879,.1557h128.27c1.3344,0 2.4374-.8842 2.7784-2.1176-1.6154-1.4401-2.9365-2.8479-3.4576-4.2353-.318-.847-.4459-1.7073-.4631-2.5848h-123.24z"/>
<path opacity=".17" fill="url(#linearGradient4331)" d="m25.201,30.921c.1058,.1961 .1874,.3873 .2773,.5917 1.0721,2.4371 1.4439,4.5185 1.2943,6.384h123.02c-.0442-2.2608 .7429-4.6063 1.6332-6.9135-.1611-.0279-.3239-.0623-.4931-.0623h-125.73z"/>
</g>
</svg>
