<svg xmlns="http://www.w3.org/2000/svg" viewBox="0 0 1052.4 744.09">
<g fill-rule="evenodd">
<g fill="#ca2323">
<g>
<path stroke="#de1c1c" stroke-width="1.037" d="m540.16,237.46c6.87,4.49 13.75,9.64 20.63,15.52 54.69,79.11-6.07,119.21-66.21,159.53-55.54,30.85-105.26,38.05-153.01,37.28 43.24-71.15 34.23-113.22 2.95-132.7 15.37-41.04 2.15-63.19-7.36-76.04 67.67-27.38 135.33-47.73 203-3.59"/>
</g>
<g stroke="#ca2323">
<path d="m155,266.24c61.91-30.95 249.7-90.84 193.57,54.28 111.61,92.21-109.58,202.66-205,178.57-21.72-84.52-15.46-151.9 11.43-232.85z"/>
<path d="m544.6,236.88c56.81-2.1 113.97-16.47 163.4,2.65 5.82,26.84-8.9,37.93-21.88,50.35 75.73-34.09 153.94-68.49 188.17-1.28-21.39,75.78-87.5,126.79-141.49,188.68-37.97,27.4-79.26,13.48-121.07-6.99-20.31-11.69 36.46-65.73 30.63-61.54-5.83,4.2-58.35,36.36-58.35,36.36l7.3-55.94-42.3,62.94c-43.87,5.2-83.8,.85-100.44-12.59 24.38-1.53 118.72-57.74 129.61-79.72 62.85-109.08-7.83-91.98-33.58-122.92z"/>
</g>
</g>
<g>
<path d="m480.5,176.16c-23.86,.25-30.77-2.34-77.18,16.38-8.33,3.36-6.3,6.45-3.74,5.41 11.93-4.85 9.11-3.8 11.78-4.51 64.81-17.3 105.72-10.39 147.02,11.5 2.44,1.29 5.47,.36 6.76-2.08 1.3-2.44 .36-5.47-2.08-6.77-24.56-13.01-51.89-20.26-82.56-19.93z"/>
</g>
</g>
<path opacity=".99" stroke="#000" stroke-linejoin="round" stroke-linecap="round" stroke-width="10" d="m462.86,329.27a23.214,12.321 0 1,1 -.07-.9" transform="matrix(1.2223 -.33193 .43221 1.3356 -235.96 32.211)"/>
<g fill-rule="evenodd">
<g>
<path d="m698.65,178.95c-10.96-.11-15.99-1.64-47.72,7.09-5.36,1.48-6.17,3.38-4.58,2.73 1.82,.73 7.9-.9 9.55-1.27 40.07-8.95 65.36,.47 90.89,22.55 1.51,1.31 3.39,.79 4.19-1.16s1.74-3.83 .23-5.14c-15.19-13.13-33.6-22.4-52.56-24.8z"/>
<path d="m682.65,209.02c-14.14-.09-20.63-1.37-61.54,5.98-6.92,1.24-7.95,2.84-5.91,2.29 2.35,.62 10.19-.76 12.32-1.07 51.68-7.53 84.29,.4 117.21,18.99 1.95,1.1 4.37,.67 5.4-.98 1.03-1.64 2.24-3.22 .3-4.32-19.59-11.06-43.33-18.86-67.78-20.89z"/>
<path d="m209.04,197.34c15.99-4.23 23.86-5.23 70.14-11.12 7.83-1 9,.03 6.69,.17-2.66,1.21-11.53,2.36-13.94,2.73-58.4,8.98-96.82,24.41-132.59,50.27-2.2,1.48-4.94,1.83-6.1,.76-1.17-1.06-2.29-1.74-.34-3.51 18.46-16.83 45.84-31.4 76.14-39.3z"/>
</g>
<g stroke="#000">
<path d="m110.11,275.89c-25.9,64.53-24.936,77.46-27.906,134.85-.058,1.13-.085,2.88-.129,4.42 3.363,1.47 3.016-7.19 3.449-13.03 3.216-43.27 7.819-64.68 18.886-101.64 2.26-7.54 2.68-15.38 5.7-24.6z"/>
<path stroke-width="1.028" d="m130.04,276.21c-17.05,49.97-18.53,79.04-17.84,136.21 .03,3.01 .66,2.86 .75,4.39 3.68,1.15 2.05-7.41 2.01-13.23-.26-44.07 3.21-69.15 11.19-102.47 5.4-22.54 6.27-31.85 3.89-24.9z"/>
</g>
<g>
<path d="m656.59,223.12c-23.9-.34-48.29,4.41-58.15,7.66l7.92,15.06c10.17-3.35 29.96-1.98 56.27-2.79 6.58-.21 15.98-1.48 23.01,1.99 4.94,2.44 9.14,2.76 10.18,7 2.08,8.48-1.86,19.16-14.76,45.4-3.29,2.42-2.44,4.9-.8,6.72 1.65,1.81 5.37,1.92 7.43,.59 63.66-30.03 118.4-37.13 136.46-33.35 16.11,3.38 10.6-.8 22.5,8.1 7.6,5.7 12.75,5.76 10.39,21.13l24.06,11.83c6.46-12.79 .93-37.12-7.66-46.34-8.59-9.21-22.93-14.81-41.28-16.56-32.58-3.1-78.48,6.26-130.07,35 8.41-14.38 11.12-25.99 8.75-35.65-1.66-6.81-5.97-12.19-11.5-15.94-5.52-3.75-12.25-6.08-19.56-7.56-7.31-1.49-15.22-2.17-23.19-2.29z"/>
</g>
</g>
<path fill="none" stroke="#000" stroke-width="3" d="m598.17,227.9c34.88-9.24 155.86-18.78 108.57,48.57 114.12-62.78 197.68-27.38 174.97,20.37-.85,1.79 5.36-2.43 5.03-.37"/>
<g fill-rule="evenodd">
<g>
<path d="m145.97,261.15c-30.66,73.03-36.06,169.24-12.48,242.45l22.76-3.69c-21.9-78.43-16.4-157.58 13.08-227.82l-23.36-10.94z"/>
<path d="m115.81,290.78c-26.64,83.21-24.225,151.63 6.25,205.53l4.38-2.43c-28.302-54.2-29.617-127.34-5.88-201.57l-4.75-1.53z"/>
<path d="m327.18,464.42l-3.32,1.31c0,.01-.02,.1-.17,.35-.34,.53-1.11,1.43-2.32,2.52-2.44,2.17-6.68,5.14-13.05,8.74-12.73,7.2-34,16.95-67.03,28.89-20.48,7.4-38.14,8.67-52.61,9.5-14.46,.83-23.72-.56-32.09-3.01l-2.73,4.19c7.85,5.1 19.7,7.22 34.8,6.35 15.11-.86 34.93-3.94 55.77-11.47 33.21-12 53.24-22.68 66.36-30.1 6.56-3.71 11.53-6.56 14.41-9.13 .95-.85 2.15-1.13 2.78-1.9l1.49-1.13c1.9-4.01 .59-4.25-.66-4.54l-.1,.01c-.02-.14-.57,.53-1.53-.58z"/>
</g>
<g stroke="#000">
<path d="m222.23,310.74c-3.55,8.75-5.78,20.29 8.08,26.26 11.62,.42 20.72-6.71 31.07-10.1 17.36-14.12 12.11-25.54-5.56-26.77-9.77-.66-22.47,5.21-33.59,10.61z"/>
<path d="m226.27,382.22c-2.8,10.53-1.75,17.51 8.08,26.27 11.62,.42 22.99-4.19 32.33-10.1 17.61-10.34 8.32-25.55-6.82-26.77-9.77-.66-22.47,5.2-33.59,10.6z"/>
<path d="m497.86,428.02c22.99,2.37 45.22,2.96 60.71,4.29 10.53-16.54 22.45-32.03 36.79-45.72 6.33-8.34 12.08-13.18 14.64,1.08l-5.71,34.64 4.64,2.14c15.51-9.64 29.84-19.28 48.93-28.93 12.63-5.44 15.35,.57 15.71,9.29l-42.14,58.57c-.26,1.83 61.54,14.66 79.64,12.5 6.85-.82 35.2-8.82 32.86-12.5 51.94-68.73 96.37-129.95 114.28-164.64l23.22,11.43c-23.04,55.68-75.47,117.04-125.72,175l-22.85,12.14c-15.35,4.55-17.81,8.88-104.29-8.22-13.61-3.47-28.43-6.1-23.57-22.5l6.07-17.85c-8.29,14.74-15.87,16.1-23.21,12.85-6.12-3.59-3.63-10.06-4.65-15.35-15.56,12.77-35.55,20.51-65.35,17.14-23.99-1.72-45.05-7.46-61.43-19.64l41.43-15.72z"/>
</g>
<g>
<path d="m664.83,515.28c13.3,.85 19.34,3.38 58.18-1.73 6.57-.87 7.62-1.88 5.67-2.87-2.18-.74-9.61,.46-11.64,.4-24.32-.71-44.21-.41-62.33-5.65-16.67-4.82-32.47-9.82-47.05-19.68-1.78-1.2-4.08-.9-5.13,.69-1.04,1.58-2.26,3.09-.48,4.3 17.9,12.11 39.87,21.19 62.78,24.54z"/>
<path d="m498.92,471.77c9.3,.62 13.53,2.47 40.71-1.26 4.59-.64 5.33-1.37 3.97-2.09-1.53-.55-6.73,.33-8.15,.29-17.02-.52-30.93-.3-43.61-4.12-11.66-3.52-22.72-7.16-32.92-14.35-1.25-.88-2.85-.66-3.58,.5-.74,1.15-1.59,2.25-.34,3.13 12.52,8.83 27.89,15.45 43.92,17.9z"/>
<path d="m401.91,474.17c10.91-2.15 16.44-1.74 46.26-12.89 5.04-1.89 5.62-2.75 3.79-2.99-1.95-.04-7.6,2.24-9.25,2.61-19.72,4.47-35.61,8.69-51.56,8.99-14.67,.28-28.7,.26-43.04-3.12-1.76-.41-3.52,.25-3.93,1.48-.42,1.23-.99,2.45 .76,2.86 17.61,4.15 37.68,5.54 56.97,3.06z"/>
<path d="m591.42,373.98c-10.67,10.17-15.26,16.85-51.85,40.11-6.2,3.93-11.09,5.84-10.14,3.62 1.32-2.18 11.71-8.53 13.44-9.95 20.89-17.12 36.7-31.42 49.88-48.29 11.89-15.22 19.55-32.13 24.9-50.83 .65-2.29 3.32-5.17 5.33-4.58 2.02,.6 3.49,2.5 2.97,4.82-5.09,22.96-14.97,45.99-34.53,65.1z"/>
</g>
<g stroke="#000">
<path stroke-linejoin="round" stroke-linecap="round" d="m146.09,261.49c9.11-8.11 4.91-4.77 7.48-6.84 68.84-41.41 111.02-43.51 154.44-37.81 45.8,6.02 69.73,37.1 59.18,99.96l-44.95,12.12c47.45-29.29 46.08-157.94-154.55-53.54l-21.6-13.89z"/>
<path d="m379.47,424.7c.46-7.17 30.39-47.64 22.54-73.13 .05-.75-1.76-6.83 4.09,.87 7.83,12.06 4.59,31.84-16.26,65.22-6.06,6.58-9.25,7.48-10.37,7.04z"/>
<path stroke-linejoin="round" stroke-linecap="round" stroke-width="2" d="m153.04,489.03c215.4,7.18 273.87-164.4 170.21-160.61l46.97-10.61c102.19,56.33-103.56,228.58-237.89,186.88l19.19-23.24"/>
</g>
<g>
<path d="m379.31,485.24c7.22-.8 10.86-.42 30.73-5.4 3.36-.84 3.75-1.27 2.55-1.45-1.28-.08-5.05,.95-6.14,1.09-13.08,1.76-23.63,3.51-34.14,3.19-9.67-.29-18.91-.71-28.29-2.92-1.14-.27-2.32,.02-2.62,.66-.3,.63-.7,1.26 .45,1.53 11.51,2.71 24.7,4.03 37.46,3.3z"/>
</g>
<g stroke="#000">
<path d="m148.57,246.24c60.67-34.09 53.67-31.37 87.86-41.43 36.03-10.6 88.3-4.45 103.21-.36l21.07,7.5c1.32,3.7 3.55,9.74-1.78,5.36l-26.07-9.29c-94.58-11.82-139.56,15.77-182.15,45-3.46-.29-5.3-1.76-2.14-6.78z"/>
<path stroke-width=".766" d="m374.02,315.45c-1.05-6.5 9.86-48.62 .3-69.86-.11-.68-2.36-5.76 2.67-.03 7.07,9.23 8.74,27.56 2.11,61.54-2.51,7.08-4.31,8.52-5.08,8.35z"/>
<path d="m360,234.09c-.36-5.56 2.65-8.19 6.79-4.28 2.85,8.1 5.34,18.01 6.42,29.64l-3.21-.36c-3.11-10.53-6-18.02-10-25z"/>
<path d="m822.77,224.88c42.94,3.32 64.92,15.04 74.25,31.82 .39-7.98-5.94-16.63-32.33-27.28-19.04-5.57-29.08-3.93-41.92-4.54z"/>
<path d="m730.34,248.11s3.5,4.43 1.52,4.04c-.16-.03 40.73-13.42 46.46-13.64 75.44-5.45 69.86,1.99 104.55,10.61l1.01-2.02c-24.71-12.65-50.65-17.05-100-14.14-19.43,2.31-38.11,4.83-53.54,15.15z"/>
<path d="m903.08,269.32c-1.72-4.64-4.53-8.01 2.22-1.36 2.56,3.34 4.46,8.98 6.06,15.65 .8,17.52-14.56,36.88-24.95,47.33 13.64-19.73 29.13-39.28 16.67-61.62z"/>
<path d="m752.14,495.52c6.13,1.23 117.98-136.16 118.93-136.78 6.74-4.41-26.69,42.28-45.71,65.71-.83,1.02-17.71,19.55-21.07,22.86-1.8,1.77-51.68,56.47-52.15,48.21z"/>
<path fill-opacity=".997" d="m385,249.81c44.28-19.9 73.36-23.38 118.38-18.81 124.11,12.61 101.83,167.08-106.17,193.6-8.28,1.05-11.84,5.42-19.35,6.64l-10.72,15.71c33.78,10.2 78.19-2.22 127.15-24.28 64.68-26.61 87.55-54.04 100.07-80.87 71.82-153.88-165.48-162.58-225.79-116.28 0,0 17.86,21.43 16.43,24.29z"/>
<path stroke-width="1.55" d="m909.88,252.41c-4.27-6.14-9.99-10.27 3.29-2.39 5.27,4.15 10.15,11.65 14.86,20.67 6.66,24.41-13.02,54.88-27.14,71.78 16.71-30.62 36.54-61.38 8.99-90.06z"/>
</g>
</g>
</svg>
