<svg xmlns="http://www.w3.org/2000/svg" viewBox="0 0 903 675.8">
<g transform="matrix(.89613 0 0 .70204 -90.048 -172.562)">
<path d="m284.39,795.16c-10.06-.5772-17.619-3.1684-28.913-3.8183l-6.9464-36.299c-17.625,1.9431-29.186,9.4902-29.18,16.376l-1.6525,15.115c-19.621-1.7649-21.559-5.4761-38.818-5.4761 19.941-82.616 26.269-135.46 29.813-142.34l44.161-16.875 .579,.6455c9.7943,24.522 19.945,71.468 30.956,172.67zm-52.69-107.1l-4.8479,31.156 11.961-2.0325-.002-2.108-5.3598-27.157-1.7506,.1411"/>
<path d="m367.79,593.69c12.513,45.407 37.542,135.46 37.295,216.85-24.913-2.6337-8.6265-.7078-33.856-3.0245l-6.5644-55.244c-12.151,1.746-24.268,3.8735-26.115,13.017-4.8496,24.02-2.1515,21.686-3.7055,36.585l-1.7541-.2297c-5.7452-.7522-17.463-1.454-41.63-6.1406 19.733-105.08 36.333-184.53 39.862-193l36.468-11.403m-19.17,87.536l-4.7811,38.378 11.961-2.0325-.007-2.6206-5.4219-33.866-1.7506,.1411"/>
<path d="m484.55,568.28c25.254,82.706 34.91,171.95 39.946,257.33 0,0-16.79-2.3145-34.813-4.3558l-7.9763-63.969c-10.558,1.9663-19.07-.3398-24.681,6.0011-3.5658,17.083-3.5288,36.103-5.0438,53.92 0,0-1.7541-.2297-1.7541-.2297-5.7452-.7522-9.2368-.1953-38.608-4.3548 19.525-127.55 27.24-223.8 30.755-233.86l42.175-15.667m-19.022,106.11l-4.7142,45.599 11.961-2.0325-.0119-3.1332-5.4841-40.575-1.7506,.1411"/>
<path d="m590.57,540.44l6.1572-1.375c17.754-.2572 26.693,12.602 26.816,38.463 0,0 .0212,4.457 .0212,4.457l-8.171,44.882-16.478,64.803 62.537,102.05-14.108,44.49c-15.201-1.9124-39.967-28.257-74.272-76.237 0,0 2.2831,50.376 2.2831,50.376l.0566,12.61s-4.0043,7.8778-4.0043,7.8778-2.0591-.2696-2.0591-.2696c-17.795-2.3299-26.721-10.22-26.779-23.67-8.6458-97.974-13.019-159.92-13.135-187.38l-.117-47.244c23.913-31.332 44.327-30.061 61.253-33.841m-18.079,91.866l.2064,46.122 2.0555-.1206 14.411-55.909-16.672,9.908"/>
<path d="m720.41,511.45s19.156-4.2778 19.156-4.2778c6.2665,4.8901 15.23,34.924 26.9,91.026 0,0-2.4026,6.256-2.4026,6.256l-14.411-4.1207c-58.905,15.198-68.809,113.6-51.918,164.6 3.8586,10.611 26.946-8.1115 23.912-16.454l2.5025-20.499-14.611-8.2448c3.0012-38.228 6.0995-57.545 9.2968-57.759 28.83,8.388 43.272,17.591 43.324,27.16-12.556,111.54-29.878,164.77-51.943,161.88l-14.414-1.8872c-19.356-29.921-38.244-90.815-38.524-147.24 7.0578-132.03 34.146-183.96 63.133-190.44"/>
<path d="m818.77,490.5l.0317,5.6667-3.3111,170.64c11.34-5.8 16.992-11.882 16.957-18.163l-1.8568-155.41c-.5541-.0693 15.874-16.121 40.314-13.066 0,0 1.3305,16.322 1.3305,16.322-13.318,235.59 1.004,366.23-2.8201,372.69l-32.382-2.09c-13.548-26.421-5.9986-90.558-6.1687-120.79l-17.002,11.147 .0627,11.265c.3351,60.214-7.198,93.822-7.198,93.822s-11.563-.3942-11.563-.3942l-13.045-1.8662s-11.049-98.752-12.104-293.82l-1.5312-53.796c-.0626-11.58 17.564-12.01 50.285-22.166"/>
<path d="m987.59,444.86s2.2711,5.4426 2.2711,5.4426 .0415,5.7364 .0415,5.7364c-14.194,201.95-22.674,301.37-25.404,301.45 0,0-20.62,6.354-20.62,6.354l-4.5604,.1081c-3.0403,.0723-4.6-5.5594-4.6791-16.895 0,0-15.503-277.11-15.503-277.11l62.121-24.761m-16.268,381.74l4.7788,17.507 .2063,29.18-4.5762,11.252-27.574-1.6495-4.643-11.513s-.1983-28.445-.1983-28.445l4.4845-11.131s16.11,.3873 16.11,.3873l11.412-5.589"/>
</g>
<g transform="translate(-69.828 -11.202)">
<path opacity=".97" fill="none" stroke="#000" stroke-width="11.2" d="m77.673,330.99c-6.5047,45.734 1.3277,79.45 20.905,113.9 31.961,56.237 132.25,107.33 174.53,112.24 0,0-20.496,39.135-168.41,124.27 77.975-6.9038 162.71-36.116 264.9-100.21 251.45,57.91 624.9-8.56 596.05-352.86-29.93-396.5-850.4-161.53-887.98,102.66z"/>
</g>
</svg>
