<svg xmlns="http://www.w3.org/2000/svg" viewBox="0 0 800 500" xmlns:xlink="http://www.w3.org/1999/xlink">
<defs>
<linearGradient gradientTransform="matrix(.98076 0 0 .98076 .85541 71.512)" id="linearGradient3052" y1="477.5" x1="329.17" y2="223.33" gradientUnits="userSpaceOnUse" x2="321.67">
<stop offset="0" stop-color="#e6e6e6" stop-opacity="0"/>
<stop offset="1" stop-color="#e6e6e6"/>
</linearGradient>
<linearGradient gradientTransform="matrix(.98076 0 0 .98076 .85541 71.512)" id="linearGradient3067" y1="135.67" x1="654.07" y2="190.47" gradientUnits="userSpaceOnUse" x2="688.84">
<stop offset="0" stop-color="#fff"/>
<stop offset="1"/>
</linearGradient>
<linearGradient gradientTransform="matrix(.98076 0 0 .98076 .85541 71.512)" id="linearGradient3063" y1="128.33" x1="786.88" y2="118.54" gradientUnits="userSpaceOnUse" x2="779.17">
<stop offset="0" stop-color="#333"/>
<stop offset="1" stop-color="#333" stop-opacity="0"/>
</linearGradient>
<radialGradient cx="355.47" cy="311.72" gradientTransform="matrix(.99947 -.03255 .08015 2.4422 -28.598 -506.54)" id="radialGradient3045" r="190.83" gradientUnits="userSpaceOnUse">
<stop offset="0" stop-color="#201f25"/>
<stop offset="1" stop-color="#ececec"/>
</radialGradient>
<radialGradient cx="644.8" cy="150.31" gradientTransform="matrix(1.3219 -.5753 .05893 .13541 -233.85 590.72)" id="radialGradient3070" r="110.17" gradientUnits="userSpaceOnUse">
<stop offset="0" stop-color="#fff"/>
<stop offset="1" stop-color="#fff" stop-opacity="0"/>
</radialGradient>
</defs>
<g stroke="#fff" stroke-width=".981" transform="translate(0 -100)">
<path fill="#666" d="m480.61,252.95c-157.97-45.21-269.82-25.5-369.42,11.44-92.715,53.785-81.809,105.04 4.0865,154.47 138.86,47.299 279.63,60.115 425-9.8076 84.963-70.984 35.208-117.62-59.663-156.1z"/>
<path fill="#1a1a1a" d="m480.61,252.95c-157.97-45.21-269.82-25.5-369.42,11.44-92.715,53.785-80.076,109.09 5.8203,158.52 138.86,47.299 277.89,56.07 423.26-13.853 84.963-70.984 35.208-117.62-59.663-156.1z"/>
</g>
<g transform="translate(0 -100)">
<path fill="#1a1a1a" d="m536.6,278.7 22.476-13.077c67.921-36.996 139.45-65.878 211.68-93.172 10.337,.6967 15.539,6.5284 13.894,19.207-7.412,7.633-17.624,8.7316-22.067,23.293-54.605,37.267-94.381,47.348-136.49,61.706-6.9893,1.8648-10.927,6.7808-14.711,11.851l-13.894,5.7211-26.971,14.711z"/>
<path fill="#b3b3b3" d="m580.55,254.27c-7.1925,3.7057-14.368,7.4637-21.485,11.34l-22.466,13.087 33.928,30.25 26.971-14.711 2.3906-.9808c2.0692-16.952-3.9276-30.15-19.339-38.985z"/>
<path fill="url(#radialGradient3070)" d="m766.34,174.12c-70.732,26.804-140.74,55.245-207.28,91.487l-.4291,.2452c5.315,5.8022 12.29,13.669 12.29,13.669 64.843-35.807 131.19-64.15 198.21-89.096 9.8565-8.8851 5.3139-13.167-2.789-16.305z"/>
<path opacity=".35" fill="url(#linearGradient3067)" d="m567.65,275.84c3.7251,3.7978 8.7096,5.7066 9.5937,13.766l207.82-97.14-1.23-11.44c-71.75,29.47-143.37,58-216.18,94.81z"/>
<path fill="#b3b3b3" d="m770.75,172.44c-8.7024,3.2883-17.405,6.615-26.082,9.9609 12.097,7.2768 18.461,17.395 18.543,30.679 4.7219-12.789 14.345-14.134 21.424-21.424 1.6446-12.678-3.5471-18.52-13.884-19.217z"/>
<path fill="url(#linearGradient3063)" d="m783.14,179.06-27.063,13.056c4.6631,5.8458 7.0912,12.804 7.1412,20.964 4.7219-12.789 14.345-14.134 21.424-21.424 .7012-5.4052 .1512-9.5456-1.5018-12.597z"/>
<path d="m542.5,359.17a190.83,73.333 0 1,1 -381.67,0 190.83,73.333 0 1,1 381.67,0z" transform="matrix(1.1713 0 0 1.1758 -90.277 -12.842)"/>
<path opacity=".55" fill="url(#radialGradient3045)" d="m542.5,359.17a190.83,73.333 0 1,1 -381.67,0 190.83,73.333 0 1,1 381.67,0z" transform="matrix(1.1713 0 0 1.1758 -90.277 -12.842)"/>
<path opacity=".55" d="m542.5,359.17a190.83,73.333 0 1,1 -381.67,0 190.83,73.333 0 1,1 381.67,0z" transform="matrix(1.1537 0 0 1.0443 -83.486 24.96)"/>
<path d="m46.931,338.16c61.022,156.87 541.47,130.46 535.74-4.6995l1.6346,7.2535c35.688,250.93-557.95,258.75-539.42,8.173z"/>
<path opacity=".55" fill="none" stroke="#fff" stroke-width="2.53" d="m590.83,285a247.92,88.333 0 1,1 -495.83,0 247.92,88.333 0 1,1 495.83,0z" transform="matrix(1.0747 0 0 1.2583 -53.839 -20.673)"/>
<path fill="url(#linearGradient3052)" d="m46.931,338.16c41.197,165.88 541.47,130.46 535.74-4.6995l1.6346,7.2535c35.688,250.93-557.95,258.75-539.42,8.173z"/>
</g>
</svg>
