<svg xmlns="http://www.w3.org/2000/svg" viewBox="0 0 209.84 919.7">
<g transform="translate(-395.11 -41.125)">
<path fill="#ede5d1" d="m499.94,41.125c-32.992,1.6137-63.654,20.837-81.781,48.094-14.505,21.828-22.007,48.059-22.945,74.093-1.1034,35.298 7.1776,70.623 24.571,101.41 15.429,29.687 34.092,58.112 43.218,90.686 8.8829,28.841 12.547,59.075 11.758,89.25-.1013,57.377 .3491,114.82-3.6816,172.09-3.4934,82.968-5.7901,166.17-.7639,249.13 2.3701,25.522 3.5415,52.419 15.5,75.5 5.4821,9.0291 14.246,20.336 26.219,17.75 16.557-4.6192 23.585-22.793 26.844-38.094 5.7719-36.725 5.9698-74.245 5.9726-111.41-.9694-100.72-11.8-200.99-15.14-301.61-.8182-30.041-3.0961-60.145-1.7402-90.186 2.6655-28.828 7.5175-57.822 19.924-84.204 12.76-31.644 29.448-61.647 42.143-93.247 13.497-35.1 17.234-74.002 11.716-111.25-7.6241-48.315-52.952-87.491-101.81-88zm5.4688,838.19c8.66,.1529 17.297,7.9366 15.25,17.094-.5246,7.7236-8.1026,14.827-16.031,12.062-10.485-1.9657-16.702-17.599-7.6875-24.812 2.2771-2.2325 5.1724-4.2698 8.4688-4.3438z"/>
<path fill="#e9dcc5" d="m499.16,42.656c-38.514,1.399-72.196,28.927-88.754,62.679-18.833,39.029-17.575,85.376-4.2774,125.82 14.743,42.639 44.968,78.476 57.25,122.19 10.768,32.247 13.721,66.464 13.047,100.34 .2376,55.266-.3499,110.56-4.1484,165.71-3.5018,79.189-5.3505,158.58-1.5239,237.79 1.9405,24.417 3.5664,49.33 10.75,72.75 4.763,12.096 12.197,26.79 26.5,28.906 14.127-1.201 23.659-14.534 27.406-27.188 7.2394-25.209 6.8718-51.83 8.0482-77.874 2.2924-87.413-4.6896-174.66-10.466-261.8-2.8907-54.881-6.3209-109.82-5.7697-164.8 1.182-30.71 5.2976-61.835 18.309-89.949 12.6-31.985 29.561-62.11 42.488-93.913 14.472-37.439 19.826-79.29 11.82-118.83-7.71-36.467-36.84-66.324-71.9-77.688-9.31-3.023-18.97-4.492-28.78-4.156zm78.625,142.38c4.4221,.0637 6.3558,5.4639 6.3125,8.6875 3.2262-.6154 7.8667,.985 6.5,5.0312-1.7889,2.918 3.5757,3.1813 2.1562,6.4688-1.3763,4.0701-7.0817,4.7111-10.344,3.8438-1.527,.9997-3.0139,.7862-1.3438,2.4688 3.2572,2.2692 7.9476,4.6614 6.7188,9.5625-3.7913,14.121-12.002,26.852-21.25,38.125-10.605,12.474-24.18,22.181-39.705,27.509-4.7418,1.9085-12.451,4.5305-16.045-.5711 2.7633,6.8862-4.2078,4.5389-8.5625,4.6875-2.7398,.2384-6.2386-.5295-8-2-4.4744,2.9547-12.716,.8284-12.844-5.375 .1044-2.1945-1.9736,2.2808-3.4688,.3125-2.1896-5.0103 1.1636-10.489 2.3125-15.438 1.8977-3.8292 6.8614-.5173 5.7812,3.0625-.0125,1.7425-2.5755,6.6515-.023,3.0385 1.4506-2.9857 6.5396,7.1709 5.4293,2.6177-.9109-3.918-3.8362-6.7021-4.4688-10.688-2.4471-6.2667-6.1015-14.897-1.4688-20.938 3.848-3.2993 5.6183,3.3333 6.5625,5.9375 1.5656,3.6246 3.15,7.2132 5.0312,10.656-1.5909-4.5996-3.2371-9.5436-3.5312-14.219-3.041-3.4088 1.37-10.683 5.25-6.5312 2.7135-4.9251 8.1377,1.0373 5.1562,4.2188 1.9784,.0424 2.3565,4.1963 3.3438,3.4688-1.718-3.094 3.2338-6.2982-.0312-8.625-4.6276-5.7321 5.4281-14.089 9.875-7.9688 2.561,3.1714 4.9168,8.3758 8.3125,9.2812 .1825-5.5324-2.6005-11.842 .0312-17.281 3.2833-3.924 10.325-5.2668 13.469-.3125 2.1821,1.4753 4.9471,7.5194 7.6875,3.875 2.6653-3.0919-2.6741-5.0068-2.25-8.3438-1.0256-3.8054 3.0048-6.2922 6.125-6.1875 .2832-5.0393 2.9162-9.5212 4.8438-14.094 4.1167,5.2412 2.8719,1.011 2.0938-2.625-1.5589-3.4238 2.6994-9.0697 5.9062-5.2812 2.7003,3.8268 6.9961,8.4969 9.7812,10.688 .9189-5.4565-.4443-12.618 3.6875-16.844 .3136-.1003 .6253-.2859 .9688-.2188zm-1.25,21c.2435,3.1744 1.9064-1.3855 0,0zm-67.59,45.84c.3828,3.866 1.8857,.206 0,0zm-5.5938,21.938c3.2284,4.6684-1.7448-2.8878 0,0zm1.9688,604.78c10.849-.6861 19.687,11.356 15.438,21.562-2.1576,8.1603-12.365,12.596-19.625,7.8438-11.026-4.635-12.397-23.464-.625-28.188 1.5085-.7072 3.1527-1.1292 4.8125-1.2188z"/>
<path fill="#e4d3b6" d="m499.38,43.25c-41.48,1.5497-77.844,32.785-92.077,70.715-10.796,25.567-11.895,54.148-8.8693,81.43 3.5728,25.031 11.702,49.198 24.009,71.233 15.393,29.264 33.558,57.569 42.593,89.747 9.1414,30.102 12.526,61.623 11.677,93.031-.2003,47.079 .4201,94.226-2.1435,141.25-3.6622,56.689-5.4417,113.48-5.4268,170.28 .3558,52.251-.2153,105.03 9.2054,156.56 3.526,15.726 10.624,33.355 26.062,40.656 12.395,2.428 23.053-9.0741 27.844-19.406 9.6314-23.214 9.1118-49.139 10.514-73.935 1.9966-70.047-.6328-140.13-5.9322-209.99-5.3298-75.581-9.5788-151.3-10.191-227.08 1.2641-31.778 6.2181-63.849 19.582-92.923 14.948-38.035 36.652-73.386 48.593-112.41 8.2938-28.9 9.8525-59.856 6.2465-89.666-5.87-45.116-45.3-83.41-90.15-89.115-3.83-.404-7.69-.532-11.53-.375zm84.594,116.53c7.9439-.0924 1.7013,11.396 8.9062,12.469 7.4254-.7685 5.1565,5.776 4.8231,10.885-1.4682,15.729-5.6721,31.329-11.447,46.029-11.86,27.762-34.851,52.677-64.786,60.227-17.962,4.2046-38.27,3.6592-54.434-5.3602-3.3571,.574-5.6346-2.8252-7.3125-4.5-4.6121,1.7287-7.727-5.4521-4.9688-8.8125-3.6492-.8571 .3265-6.2585 3.1562-6.9688 3.5582,.8373 .619-4.8696 1.0312-6.8438-1.2433-3.8664-.5755-7.4941 .7812-10.875 2.1017-2.9832 4.8417,1.7357 6.2812-1 1.5721-1.9898 4.6742,1.8915 3.625-1.5625-.472-4.3744-2.4603-11.105 2.0312-13.906 3.0747-.8451 4.691,4.3154 6,4.25 2.1858-4.161-1.0549-10.908 3.0625-13.875 4.6567-.7667 4.3917,5.7087 6.3125,7.9688 1.4063-1.3237 2.9885-3.8866 4.5-4.5-1.3709-3.6355 2.0872-7.9229 5.4062-9.2188 2.621-.7209 2.5871,2.804 3.5,3.5312 .4488-3.3823 1.1539-6.956 3.4688-9.4062 .4824-2.5191 1.2596-4.6065 1.7188-7.125 2.9051-2.9674 4.9142,1.9924 4.2188,4.25 2.2505,2.0914 1.7094,5.3467 4.2188,7.1562 1.7352,.6581-.5359-2.6592-.0312-4.0312 .7683-5.1736 1.5678-12.05 6.4688-14.875 2.0992-.1221 4.0821,.7039 4.5844-2.2632 2.91-8.1332 4.5101-5.9948 5.3218,1.5757 1.0732,3.7658 2.3741,9.7665 3.6562,12.062 1.7083-3.698 .8632-11.548 6.3438-11.781 2.7469,2.6353 2.9498-4.2341 4.1562-5.7812 .3141-3.0524 3.5856-4.319 5.5-5 1.2018-3.5008 3.0738-6.7343 2.9062-10.625-.275-3.6065 4.525-6.9773 6.7188-3.0625 1.4911,2.5888 2.2006,5.5488 2.3125,8.5312-.3474-6.1325 4.9659-11.146 9.9688-13.688 2.249-.8216 4.3467,3.03 5.0938,2.875 1.0334-3.0417 3.5591-6.289 6.9062-6.75zm-79.062,718.41c9.9878-.5829 18.744,8.8638 16.875,18.844-.3271,7.7242-7.2955,13.888-15.062,12.906-11.498-.0995-18.5-15.581-12.656-24.844 2.7676-3.1586 6.4062-6.651 10.844-6.9062z"/>
<path fill="#d8c8aa" d="m504.99,960.07c-11.869-3.6105-22.136-17.571-27.049-36.784-2.8078-10.978-5.8183-32.79-7.48-54.194-3.1-39.98-3.78-129.05-1.43-188.09 .5361-13.475 1.4321-36.2 1.991-50.5 .5589-14.3 1.4801-30.275 2.047-35.5 2.5931-23.9 3.9453-151.67 1.8701-176.7-3.772-45.494-14.748-80.489-38.318-122.17-26.689-47.201-35.506-69.187-39.556-98.63-6.9688-50.666 5.8861-95.57 35.9-125.41 15.06-14.971 31.316-23.81 52.548-28.573 22.724-5.0976 50.251,1.1983 71.477,16.348 16.141,11.52 32.181,31.075 38.672,47.146 14.505,35.912 11.821,91.594-6.6514,137.96-2.1795,5.4707-9.4208,21.309-16.092,35.195-13.011,27.084-27.824,60.993-32.714,74.887-5.0319,14.296-9.6231,39.926-11.723,65.443-1.5653,19.019 3.4585,140.45 9.019,218 5.8061,80.974 7.5367,119.24 7.7187,170.66 .2475,69.909-2.2119,104.9-8.739,124.34-4.1348,12.314-13.131,22.83-22.164,25.908-5.1114,1.7416-5.6372,1.7787-9.3225,.6577zm7.5167-52.505c1.8953-.7919 4.3542-2.9294 5.4642-4.75 2.5435-4.1718 2.6875-11.881 .2975-15.927-2.03-3.43-8.57-6.88-13.05-6.88-3.9818,0-9.6722,4.813-11.214,9.4849-2.2619,6.8538 2.2704,15.451 9.495,18.01 5.0415,1.7861 4.8938,1.785 9.0102,.0651zm3.3857-618.06c11.445-2.0656 27.032-9.1388 35.769-16.231 8.4876-6.8898 16.335-14.394 16.335-15.621 0-.5092 1.7652-2.8408 3.9228-5.1815 6.9268-7.5148 16.211-28.572 21.59-48.968 5.1886-19.674 5.9516-43.979 1.6312-51.961-1.19-2.18-2.15-4.53-2.15-5.23 0-.6982-1.0919-1.5436-2.4264-1.8785-3.4272-.8602-5.3643-3.3649-5.7454-7.4291-.2554-2.7239-.7716-3.5-2.3282-3.5-1.3333,0-2.11,.7767-2.33,2.33-.1815,1.2815-1.2241,3.2241-2.3169,4.3169-1.5938,1.5938-1.7476,2.2752-.7775,3.4441 .6652,.8015 .8829,1.7839 .4839,2.1831-1.2525,1.2531-5.5595,.883-5.5595-.4777 0-2.1761-1.9285-1.4622-5.5496,2.0546-2.0258,1.9674-3.4561,4.3415-3.4641,5.75-.02,3.44-1.08,6.9-2.11,6.9-.48,0-.88-1.05-.88-2.33 0-3.2848-1.0386-3.9417-3.175-2.0083-1.0105,.9145-2.1056,1.3944-2.4337,1.0663-.9404-.9404-9.5915,16.311-8.9794,17.906 .34,.886-.4299,1.8756-2.0244,2.6021-2.2712,1.0348-2.7857,.8904-4.386-1.2311-2.4936-3.3058-4.6233-1.4119-5.3856,4.7896-.7841,6.3785-1.1371,8.0628-1.8364,8.7622-.656,.656-3.7586-9.2723-3.815-12.208-.0195-1.0154-.6619-2.9711-1.4277-4.3461-1.33-2.3881-1.4258-2.4105-2.1416-.5-1.0203,2.7232-2.5716,3.5986-4.1117,2.3204-.87-.72-1.28-.73-1.28-.03 0,.5715 .531,1.2161 1.1799,1.4324 .745,.2483 .8924,1.1084 .3998,2.3333-.744,1.8503-.8202,1.836-1.6477-.31-1.4409-3.7367-3.0405-2.6062-2.8299,2 .1332,2.9138-.5239,5.449-2.0903,8.0637-2.6565,4.4345-3.6258,3.9152-4.3183-2.3137-1.2269-11.036-3.4358-14.463-5.8326-9.0483-.7421,1.6766-1.7382,3.0483-2.2136,3.0483-.4754,0-.5889,1.0974-.2522,2.4387 .3367,1.3413 .2101,2.6872-.2812,2.9908-.4913,.3037-1.4705,3.456-2.176,7.0052l-1.2827,6.4531-2.9396-2.4735c-2.2962-1.9321-3.2434-2.2213-4.3277-1.3215-.7635,.6336-1.3949,1.8844-1.4032,2.7796-.0257,2.7799-2.7137,9.5372-3.959,9.9522-.6512,.2171-1.8517-.5586-2.6678-1.7236-1.6498-2.3554-2.8055-1.706-5.1595,2.899-3.0685,6.0028-4.244,7.5001-5.8901,7.5023-2.0538,.003-4.2729,3.908-4.2939,7.5565-.0171,2.9673-2.4842,6.805-3.635,5.6542-.4311-.4311-.6763-2.3797-.5449-4.3302 .1511-2.2438-.142-3.3111-.798-2.9056-.5703,.3524-1.0368,2.8642-1.0368,5.5818 0,4.7851-1.1839,6.5101-2.3616,3.441-1.2546-3.2693-2.3792-1.1292-3.4737,6.6099-.6308,4.4604-.9204,8.4764-.6435,8.9243 .2768,.4479-.2205,.961-1.1052,1.1401-2.1042,.426-4.6927,7.7873-3.32,9.4414 .6758,.8143 .6388,1.4302-.114,1.8954-1.4655,.9057-1.9159,.3668-3.4693-4.1517-1.5194-4.4197-3.0678-5.3365-4.0083-2.3734-.4022,1.2673-1.8197,2.327-3.5849,2.68-2.2176,.4435-2.9196,1.1408-2.9196,2.8999 0,3.1309 1.8189,4.049 3.5347,1.7842 1.3105-1.7298 1.4037-1.6693 1.4335,.9312 .0175,1.5298 .6662,3.0248 1.4416,3.3224 .7754,.2975 1.6838,1.5209 2.0188,2.7186 1.5859,5.6709 24.569,19.011 37.606,21.829 5.7219,1.2365 20.032,2.5217 23.465,2.1074 1.1-.1328 5.7782-.9233 10.396-1.7567zm-65.9-50.56c0-1.1325-.45-1.7809-1-1.441-.55,.3399-1,1.2665-1,2.059 0,.7925 .45,1.441 1,1.441s1-.9266 1-2.059z"/>
<path fill="#d5c19c" d="m501.22,958.55c-1.8042-.8144-5.4135-3.6708-8.0208-6.3476-15.441-15.852-20.558-41.704-23.696-119.7-2.4312-60.435-1.4852-144.51 1.9973-177.51 .8247-7.8146 1.5323-22.823 1.5724-33.351 .0402-10.529 .5112-21.618 1.0468-24.643 1.3335-7.531 2.9395-68.568 3.1575-120 .2817-66.451-1.8543-84.609-14.744-125.34-6.6332-20.961-14.267-37.556-27.399-59.56-4.5003-7.5408-20.308-38.565-22.215-43.597-.4167-1.1-1.8619-4.475-3.2116-7.5s-3.8633-10.675-5.5858-17-3.5686-12.852-4.1025-14.504c-3.8612-11.95-4.8764-53.473-1.6745-68.496 2.4359-11.429 8.2168-29.141 11.913-36.5 11.115-22.129 29.884-41.642 49.363-51.32 11.276-5.6025 30.84-11.186 39.143-11.171 7.9476,.0139 25.81,2.7203 29.065,4.4037 1.689,.8734 3.6358,1.588 4.3261,1.588 2.6179,0 17.533,7.5193 21.844,11.012 2.475,2.0054 5.85,4.4734 7.5,5.4844s5.7,4.6111 9,8.0002c17.818,18.3 24.277,29.662 30.269,53.253 2.6445,10.41 2.7289,11.586 2.6762,37.25-.0592,28.85-.7736,35.054-6.5583,56.96-4.1478,15.707-9.9992,30.108-24.395,60.04-14.014,29.137-28.154,61.878-33.038,76.5-6.8591,20.533-11.458,52.655-11.446,79.943 .0169,37.477 4.3797,137.24 8.465,193.56 1.3763,18.975 3.6665,53.4 5.0892,76.5 4.7434,77.017 4.2417,175.38-1.0618,208.17-3.3612,20.782-9.9562,34.29-19.995,40.956-6.504,4.3184-13.759,5.4182-19.285,2.9236zm12.813-51.069c6.1798-3.1957 8.6864-15.351 4.3627-21.157-8.8605-11.898-26.749-6.0288-25.14,8.2484 1.1968,10.618 12.103,17.394 20.777,12.909zm-12.45-615.31c3.8033,.0349 8.7151-.4 10.915-.9665 2.2-.5665 6.475-1.5865 9.5-2.2668 7.5595-1.6999 22.269-8.9053 29.5-14.451 6.608-5.0676 10.137-6.9046 12.665-6.5937 1.2212,.1502 2.0985-1.2866 3.2917-5.3911 .9554-3.2864 2.3318-5.8544 3.335-6.2222 .9396-.3445 3.6237-2.466 5.9648-4.7144 3.4431-3.3067 4.569-5.328 5.8916-10.576 .8993-3.5685 2.4713-7.5614 3.4934-8.8731s1.8584-3.627 1.8584-5.1453c0-1.5182 1.35-5.9329 3-9.8103s3-8.1179 3-9.4232 .6479-4.5925 1.4398-7.3048c2.8479-9.7544 4.5195-28.177 3.5326-38.932-1.2834-13.986-3.3094-23.153-5.696-25.773-1.1155-1.2246-2.7966-4.0266-3.7358-6.2266-4.7245-11.067-4.3047-10.501-7.7746-10.485-4.9797,.0233-6.0362,1.17-5.9305,6.4365 .0905,4.5104-.001,4.6633-2.6124,4.3612-1.729-.2-2.8383-1.0087-3.0721-2.2396-.2012-1.0596-1.3301-2.7096-2.5086-3.6666-1.9558-1.5882-2.222-1.5992-3.0524-.1266-.5991,1.0624-.5138,1.7453 .25,1.9999 1.6544,.5515 1.4346,4.8023-.3402,6.5771-.825,.825-1.5,2.7922-1.5,4.3714 0,4.9438-5.503,7.7038-6.1804,3.0998-.8418-5.7212-5.7024-2.0833-6.2418,4.6717-.2196,2.75-1.3394,7.658-2.4885,10.907-1.1491,3.2486-2.0893,7.1861-2.0893,8.75 0,3.0318-1.4067,3.832-2.3616,1.3434-1.0815-2.8182-2.6383-1.5057-2.6688,2.25-.0245,3.0226-.2273,3.412-1.0455,2.0074-.5583-.9584-.8877-2.3084-.7321-3 .1557-.6916-.5608-3.4597-1.5922-6.1515-1.8513-4.8315-1.8922-4.8635-3.2021-2.5-.7298,1.3167-1.3428,2.9887-1.3623,3.7155-.0455,1.6978-2.7574,4.4375-3.3859,3.4206-.2629-.4253-.9758-4.3531-1.5844-8.7283-1.2337-8.87-2.5157-11.292-3.5307-6.671-.552,2.5133-1.2197,3.0939-3.8512,3.3488-2.9102,.2819-3.1622,.5824-2.9372,3.5018 .1354,1.7564-.2021,3.4704-.75,3.809-.54,.34-.99,1.44-.99,2.44 0,2.0708-4.778,3.4771-6.6252,1.95-.6189-.5116-1.4117-2.7217-1.7618-4.9113-.35-2.19-1.13-3.98-1.73-3.98-.6023,0-.8192,.7192-.4819,1.5982 .3713,.9677-.5727,3.0956-2.393,5.3939-1.6534,2.0876-3.0063,4.2384-3.0063,4.7794 0,.541-.6261,1.5032-1.3912,2.1383-1.7764,1.4742-2.646,7.0613-1.4539,9.3403 .5035,.9625 .6343,1.75 .2906,1.75-1.1662,0-4.3788-4.4912-4.4122-6.1682-.05-2.74-1.16-4.83-2.55-4.83-.9595,0-1.2394,1.6053-1.0532,6.04 .1395,3.322-.0854,6.2495-.4997,6.5055-.4143,.2561-1.7148,2.4517-2.8899,4.8791s-2.803,4.9666-3.6175,5.6426c-1.2347,1.0247-1.6785,.7056-2.6692-1.9191-1.12-2.96-2.75-4.28-2.75-2.22 0,.5129-.7971,1.1856-1.7714,1.4948-1.8103,.5746-4.3406,7.9206-4.2727,12.404 .0507,3.3511-2.2724,2.1643-3.0318-1.5489-1.3695-6.696-2.0595-7.0524-3.4524-1.783-.7269,2.75-1.6235,7.1434-1.9923,9.763l-.6706,4.763-3.5589-.3922c-2.2566-.2487-4.2145-1.2598-5.3504-2.763-2.4329-3.2197-4.4442-1.434-2.9151,2.588 1.1447,3.0107-.034,5.5412-2.5811,5.5412-1.9678,0-4.2962,5.1089-3.7148,8.1507 .2749,1.4382-.0225,2.9376-.6608,3.3322-1.6705,1.0324-2.3047,.0282-2.5517-4.0404-.3358-5.531-2.1324-6.5089-3.953-2.1517-.8376,2.0047-1.523,5.0041-1.523,6.6653 0,2.5361-.3607,2.9821-2.25,2.7821-1.7575-.1861-2.2325,.2554-2.1701,2.0166 .0539,1.521-.4342,2.1719-1.5,2-1.173-.1892-1.4988,.4408-1.2648,2.4461 .2186,1.8738-.3172,3.0958-1.75,3.9906-2.56,1.5988-2.6309,3.297-.2086,5.0019 1.0211,.7187 2.1732,2.3091 2.5602,3.5342 .9414,2.9799 7.0616,10.223 11.034,13.059 1.7618,1.2576 5.5868,4.5245 8.5001,7.2596s7.3786,6.0191 9.923,7.2976 5.5261,2.7993 6.6261,3.3795 3.575,1.7464 5.5,2.5917c1.925,.8452 5.3,2.3338 7.5,3.308 2.2,.9742 4.9853,1.6539 6.1895,1.5105 1.2042-.1434 3.451,.4002 4.9929,1.2081 1.7561,.9201 3.3981,1.1506 4.3954,.6168 .8756-.4686 4.7038-.8234 8.5071-.7885zm-55.722-75.329c.4591-1.2411 .3407-3.1294-.2785-4.4415-1.039-2.2015-1.1158-2.1515-2.1666,1.409-.5992,2.0303-.9118,4.029-.6947,4.4415 .7599,1.4438 2.3482,.731 3.1398-1.409zm32.14-31.72c0-1.0424-.8931-2.1169-2-2.4064-1.2999-.3399-2-.0307-2,.8834 0,.7735 .675,1.4064 1.5,1.4064s1.5,.45 1.5,1 .225,1 .5,1 .5-.8475 .5-1.8834z"/>
<path fill="#cbb694" d="m501.22,958.55c-4.73-2.13-12.27-10.27-15.87-17.13-8.57-16.34-12.73-42.4-14.35-89.92-.54-15.95-1.21-30.27-1.48-31.82-.59-3.34-.61-94.52-.03-109.68 .7614-19.818 2.4862-45.505 3.4656-51.612 1.9537-12.183 2.7859-29.175 2.0181-41.204-.6784-10.628-.5395-12.99 1.0282-17.486 1.4586-4.1829 1.7703-7.8341 1.5961-18.698-.1191-7.425 .1314-14.789 .5565-16.365 .4251-1.5755 1.0096-6.2229 1.2989-10.328 .2892-4.1047 .7946-7.8978 1.123-8.4292 .3284-.5314 .0971-1.5687-.514-2.3051-.6345-.7646-1.1024-5.1424-1.0908-10.206 .0112-4.877 .004-9.9923-.0163-11.367-.0202-1.375 .3737-5.2 .8752-8.5 .5178-3.4072 .5357-6.4105 .0414-6.95-1.3751-1.5008-1.0138-5.5578 .5483-6.1572 1.0104-.3877 1.4543-2.4656 1.5421-7.2186 .0678-3.6708 .1637-8.9242 .2131-11.674 .0867-4.8273-.6312-16.179-1.6128-25.5-1.1551-10.969-1.2963-16.046-.4606-16.562 1.23-.75 1.14-4.43-.1-4.43-1.4367,0-1.2314-3.7447 .3751-6.8457 .7563-1.4599 2.0306-4.2044 2.8316-6.0991l1.4564-3.4448 2.6684,3.9269c1.4676,2.1598 2.6684,3.399 2.6684,2.7538 0-.6452-.45-1.4512-1-1.7912-.55-.3399-1-1.9659-1-3.6132 0-1.9253-1.0363-4.104-2.901-6.0993-3.2023-3.4265-5.6504-12.742-4.5258-17.223 .563-2.243 .1982-2.7623-2.8288-4.027-2.8721-1.2-3.5823-2.1101-4.0933-5.2448-.34-2.0861-1.7465-7.33-3.1255-11.653-1.379-4.3232-2.2476-8.2804-1.9302-8.794 .3174-.5135-.0808-1.9377-.8848-3.1648-.804-1.2271-3.099-7.3518-5.1-13.61-3.3932-10.613-3.5334-11.539-2.0818-13.755 1.5065-2.2992 1.4789-2.3558-.8615-1.7684-1.9967,.5011-2.6009,.1144-3.4688-2.2203-3.19-8.58-8.82-19.73-17.83-35.33-9.91-17.14-23.37-43.55-23.37-45.84 0-2.3908 1.8854-1.0344 2.9201,2.1008 1.2362,3.7456 4.3802,6.0988 7.0263,5.259 1.3569-.4307 1.9856,.0763 2.4654,1.9878 .3657,1.4569 1.7236,2.9764 3.1417,3.5155 1.3737,.5223 2.7645,1.6448 3.0905,2.4944 .3561,.928 1.2914,1.3231 2.3423,.9895 2.9762-.9446 6.812,1.2339 9.6057,5.4554 1.4706,2.2222 3.328,4.0403 4.1277,4.0403 .7997,0 1.9636,1.35 2.5864,3 .8275,2.1922 1.8138,3.0265 3.6631,3.0985 7.6693,.2986 7.5142,.2216 7.8521,3.9015 .434,4.728 1.7649,5.8189 2.5162,2.0625 .8087-4.0433 1.8947-3.8635 4.1526,.6875 1.4121,2.8463 1.959,3.315 2.2692,1.9447 .7954-3.5135 2.7435-1.0215 2.4726,3.1631-.228,3.5225 .0215,4.1423 1.6682,4.1423 3.0831,0 5.0148,1.0582 4.4793,2.4537-.5868,1.5292 2.2892,2.8916 3.1531,1.4937 .3281-.5309 .3209-1.8338-.016-2.8954-.8782-2.7668 2.9959-4.8316 4.3429-2.3147 .5189,.9695 .8752,2.0627 .792,2.4294-.0833,.3667 .1861,1.0042 .5986,1.4167s.75-.1923 .75-1.3441 1.2375-3.0697 2.75-4.2621c2.353-1.855 2.7967-1.9377 3.0733-.5726 .2439,1.2034 1.5456,1.5954 5.2978,1.5954 4.1072,0 5.4062-.4659 7.4512-2.6725 1.8168-1.9603 3.6028-2.7373 6.7022-2.9158 5.1506-.2966 9.5857-1.73 16.475-5.3248 .9625-.5022 4.45-2.1412 7.75-3.6422s7.0051-3.6366 8.2336-4.7458c2.7487-2.4819 11.825-6.0133 15.428-6.0027 2.2898,.007 2.8316-.5999 3.88-4.3442 .8742-3.1225 1.7396-4.352 3.0628-4.352 1.0695,0 2.5502-1.3654 3.5245-3.25 .9241-1.7875 2.8946-4.825 4.379-6.75 2.9258-3.7944 7.0245-13.892 11.871-29.246 7.0482-22.331 10.555-45.029 9.5415-61.754-1.213-20.012-2.1272-26.813-3.9946-29.715-.77-1.22-1.41-2.67-1.41-3.23 0-.5531-1.0595-3.3814-2.3545-6.2852s-2.6279-6.0596-2.9621-7.0128c-.3342-.9532-1.2165-1.4995-1.9606-1.214-1.3838,.531-4.9258-2.481-7.8721-6.6943l-1.6493-2.3586-2.6007,2.4243c-1.43,1.34-2.6,2.95-2.6,3.58 0,.6333-1.0382,2.1267-2.307,3.3187-2.6751,2.5131-4.693,1.3943-4.693-2.602 0-3.8737-2.2249-2.0229-4.0208,3.3447-1.5689,4.689-1.8286,4.9344-5.1402,4.8562-1.9183-.0453-3.9976-.3975-4.6208-.7827-1.5318-.9467-4.2584,4.4954-3.5704,7.1263 .3779,1.445-.1088,2.4152-1.6161,3.2219-1.3164,.7045-2.0893,2.0043-1.9836,3.3356 .0953,1.1997 .0888,2.4063-.0145,2.6813-.1033,.275-.3905,3.6399-.6383,7.4776-.2478,3.8377-.9068,7.4339-1.4645,7.9916-1.4869,1.4869-2.8972-1.2556-2.9155-5.6695-.0102-2.47-.596-4.0253-1.7618-4.6777-1.4767-.8264-1.5749-1.4322-.6356-3.9206 1.0322-2.7345 .961-2.9056-1.0035-2.4128-1.1629,.2917-2.4743,1.1336-2.9141,1.8709-1.238,2.0752-4.3547,1.5976-8.8084-1.3497-4.7763-3.1608-7.526-2.325-7.1894,2.1852 .1643,2.201-.1499,2.6213-1.6638,2.2254-1.2228-.3198-2.0284,.1318-2.3364,1.3095-.3059,1.1699 .1877,1.9696 1.4137,2.2902 1.0884,.2846 1.8838,1.3767 1.8838,2.5862 0,2.548-1.5273,2.727-2.932,.3436-.8995-1.5263-1.1596-1.5582-2.0344-.25-.5516,.825-1.0099,2.3141-1.0183,3.309-.0322,3.7986-1.8115,.4777-2.4402-4.5544-.7664-6.1342-2.5351-9.9376-2.5598-5.5046-.0166,2.9847-.9106,3.4547-2.8611,1.5042-.9944-.9944-1.1861-.3603-.95,3.1422 .3256,4.8308-1.0063,6.1586-3.5881,3.5768-1.4881-1.4881-1.6319-1.1551-1.8157,4.2054-.1098,3.2018-.156,7.0589-.1026,8.5714 .073,2.0679-.3736,2.75-1.8004,2.75-1.07,0-1.9-.7-1.9-1.59 0-1.4236-3.814-7.2382-4.1276-6.2926-.0702,.2117-.2717,1.2849-.4479,2.3849-1.5422,9.6308-2.9962,15.5-3.84,15.5-.5551,0-1.9821,1.22-3.1711,2.7111l-2.1617,2.7111-.7183-3.2702c-.6712-3.0558-.9253-3.2259-3.8758-2.5935-4.4071,.9445-4.7411,1.2606-4.0868,3.8673 .3757,1.497 .0767,2.4956-.8541,2.8528-.7877,.3023-1.7268,2.0226-2.0869,3.823-1.0317,5.1585-2.6375,2.1932-3.3382-6.1644-.5128-6.1171-.781-6.9523-1.5746-4.9048-.5261,1.3572-1.4001,3.4268-1.9422,4.599-1.0382,2.2451-.2481,7.6376 1.5381,10.498 .8094,1.2961 .4854,2.7808-1.3772,6.3107-1.5575,2.9516-2.559,4.0294-2.7779,2.9894-.4705-2.2355-4.2764-6.474-5.2647-5.8632-.4431,.2739-.5451,1.1769-.2266,2.0068 .3184,.8299 .1863,1.4372-.2937,1.3496-2.1489-.3923-3.2841,.223-3.8809,2.1035-.4692,1.4782-1.3662,1.9514-3.3174,1.75-2.1931-.2263-2.7313,.1739-2.9909,2.224-.1741,1.375-.7812,4.2886-1.3491,6.4748-.983,3.7842-1.1028,3.8801-2.4983,2-1.4462-1.9484-1.4916-1.9432-3.4009,.386-1.0643,1.2984-1.9352,3.1886-1.9352,4.2003s-.7875,2.2982-1.75,2.8588c-.9625,.5606-1.2016,1.033-.5314,1.0497 1.7111,.0427 .4335,3.054-2.4567,5.7907-1.7488,1.6559-2.3035,3.1194-2.0745,5.4732 .2771,2.8482-.111,3.4145-3.418,4.9885-2.3558,1.1212-3.9614,2.6948-4.3567,4.2699-.9395,3.7434-2.4127,1.9756-2.4127-2.8953 0-3.0682-.6744-5.0703-2.3744-7.0487-3.0028-3.4946-3.8037-2.2606-3.2171,4.9564 .5376,6.6149-1.3987,7.2663-2.7342,.9198-.4541-2.1582-1.6951-7.3658-2.7577-11.572-1.0626-4.2065-1.6568-8.3652-1.3205-9.2416 .3619-.943-.006-1.8302-.9008-2.1736-2.3282-.8934-3.4798-4.9907-4.6198-16.437-1.7471-17.54-1.8598-21.946-.9343-36.5 2.316-36.418 17.558-69.175 42.002-90.268 12.493-10.78 29.2-18.754 48.669-23.228 13.309-3.0588 34.337-.4549 48.687,6.0292 2.2,.994 6.0835,2.7572 8.6299,3.9181 2.5465,1.1609 7.1851,4.3468 10.308,7.0797 3.13,2.734 6.06,4.97 6.52,4.97 1.28,0 7.05,5.653 7.05,6.901 0,.605 .67,1.099 1.49,1.099 .8176,0 2.0979,1.4625 2.8451,3.25 1.4159,3.3874 4.5422,6.6135 5.572,5.75 .328-.275 .7414,.7656 .9188,2.3123 .2491,2.1725 .617,2.5678 1.6173,1.7377 2.3493-1.9498 3.8931,1.3834 3.1689,6.8423-.5302,3.9966-.3495,4.9932 .9988,5.5106 .9053,.3474 2.2748,.1098 3.0434-.5281 1.6566-1.3749 1.5524-1.4677 4.1594,3.7046 3.4135,6.7722 9.0073,27.837 10.278,38.705 1.4671,12.545 .616,43.175-1.5758,56.716-4.2038,25.97-10.194,42.833-29.416,82.808-18.435,38.339-32.406,71.886-36.031,86.519-5.0686,20.461-8.0679,46.567-8.0614,70.167 .0102,37.435 4.2667,134.31 8.4804,193.01 5.816,81.018 7.6216,118.08 8.1846,168 .4334,38.422 .2001,55.279-1.0804,78.084-2.339,41.657-5.2066,56.324-13.529,69.201-7.3196,11.325-19.798,16.849-28.841,12.767zm12.681-51.001c3.6374-1.881 5.6749-5.0824 6.5568-10.302 1.3884-8.2179-3.1667-15.016-11.579-17.281-3.4058-.9171-4.5991-.7915-7.7045,.8107-5.5906,2.8845-8.4481,7.6972-7.9227,13.344 1.01,10.855 11.914,17.946 20.649,13.429zm-27.4-459.04c-.0143-4.5584-.3825-6.0584-1.5421-6.2817-1.1988-.2309-1.574,.9159-1.7609,5.383-.1306,3.122 .0279,6.5127 .3523,7.5348 1.1525,3.6311 2.9701-.4567 2.9507-6.6361zm5.108-55.577c-.3354-2.0977-.1904-4.0733 .3224-4.3902 .5127-.3169 .7697-1.8066 .5711-3.3104-.1986-1.5038-.3922-3.0717-.4301-3.4842-.0379-.4125-.6791-.75-1.425-.75-1.0383,0-1.3011,1.6988-1.1215,7.25 .3201,9.8944 .3312,9.9586 1.5854,9.1834 .6822-.4216 .8734-2.1499 .4978-4.4987zm-4.8347-2.7473c.21-.65-.33-1.18-1.2-1.18s-1.58,.71-1.58,1.58c0,1.7659 2.1528,1.4584 2.7708-.3958zm15.853-19.897c-1.0506-1.0506-1.73,.3219-2.1561,4.3552l-.4072,3.8542 1.5936-3.7927c.8765-2.086 1.3128-4.0735 .9697-4.4167zm4.37-7.28c0-.55-.45-1-1-1s-1,.45-1,1 .45,1 1,1 1-.45 1-1zm-39-16c0-3.3963 2.2098-4.0842 4.0157-1.25 .8881,1.3938 1.0022,.9358 .5607-2.25-.3049-2.2-.5593-5.3235-.5654-6.9411-.0105-2.8013-.0808-2.8488-1.4792-1-.8075,1.0676-1.4825,2.9536-1.5,4.1911-.0186,1.3192-.6523,2.25-1.5318,2.25-1.0833,0-1.5,1.1111-1.5,4 0,2.2 .45,4 1,4s1-1.35 1-3zm9.7211-8.0282c.6569-2.7655 .9229-5.736 .5909-6.6009-.3319-.865-.0415-1.92 .6455-2.3446 .9565-.5912 .9824-1.27 .1105-2.8991-.63-1.16-1.53-2.12-2-2.12-1.4906,0-2.1545,3.1954-.9623,4.6319 1.1655,1.4043 .7939,9.2786-.5954,12.618-.4004,.9625-.3364,1.75 .1423,1.75s1.4078-2.2627 2.0648-5.0282zm.962-19.159c-.3192-.7977-.5562-.5608-.6042,.6042-.0434,1.0542 .1929,1.6448 .5252,1.3125 .3323-.3323 .3678-1.1948 .0789-1.9167zm-3.68-.81c0-.55-.4766-1-1.059-1-.5825,0-.7809,.45-.441,1s.8165,1 1.059,1c.2425,0 .441-.45 .441-1zm12-3c0-.55-.45-1-1-1s-1,.45-1,1 .45,1 1,1 1-.45 1-1zm-3-146.56c0-.8575-.45-1.2809-1-.941s-1,1.0415-1,1.559c0,.5175 .45,.941 1,.941s1-.7016 1-1.559zm43-37.382c0-1.8304-1.6691-3.7232-2.5269-2.8655-.68,.69 .72,4.81 1.65,4.81 .48,0 .88-.87 .88-1.94zm10.101-5.7713c-.9606-1.6506-1.0427-1.6279-1.0708,.2956-.0338,2.3149 1.2352,4.1198 1.7695,2.5168 .1879-.5637-.1266-1.8293-.6988-2.8125zm20.648-16.538 1.1876-3.25-1.9684,2.3608c-2.05,2.46-2.53,4.14-1.19,4.14 .4294,0 1.3152-1.4625 1.9684-3.25zm29.918-7.206c0-.8008-.375-1.2242-.8333-.941-.46,.29-.84-.05-.84-.74 0-1.0027-.2528-1.0062-1.2416-.0174-.9889,.9889-.938,1.4336 .25,2.1847 2.0733,1.3108 2.6583,1.2046 2.6583-.4823zm-142.67,99.52c0-2.187 1.562-3.5767 2.4342-2.1656 .73,1.19-.36,4.11-1.54,4.11-.49,0-.89-.87-.89-1.94z"/>
<path fill="#c4ab87" d="m501.5,958.12c-10.307-4.7195-20.333-21.373-23.441-38.935-5.0005-28.263-7.1401-65.101-7.7064-132.69-.4734-56.49-.4351-59.478 .7919-61.771 .6967-1.3018 .9242-4.9708 .5991-9.6639-.5057-7.3023-.2887-9.79 2.2738-26.065 .6495-4.125 1.3098-11.325 1.4675-16 .1577-4.675 .788-9.7668 1.4007-11.315 .6127-1.5483 1.114-3.6333 1.114-4.6334 0-1 .9-2.0536 2-2.3413 1.6425-.4295 2-1.364 2-5.2274v-4.7044l-1.9257,2.3608c-1.7392,2.1322-1.9918,2.1911-2.6078,.6085-.3752-.9637-.3232-2.9887 .1155-4.5s.6839-4.1498 .545-5.8634c-.143-1.7631 .4094-3.7777 1.2723-4.6406 1.693-1.693 1.5644-8.5302-.1806-9.6087-.5707-.3527-1.0612-1.7649-1.09-3.1382s-.3465-4.2082-.706-6.2999c-.4443-2.5846-.0898-5.2796 1.1064-8.4119 1.3608-3.5633 1.8001-8.0316 1.9362-19.697 .23-18.99 1.39-30.59 3.08-30.59 .9039,0 1.0394-.9354 .4889-3.3761-1.3948-6.1843-.4239-42.556 1.3005-48.719 .861-3.0772 1.331-6.4912 1.0446-7.5866-.6704-2.5636 4.2044-6.141 5.9666-4.3788 .8345,.8345 .5739,1.2702-1.0067,1.6835-2.1872,.572-3.8525,5.9377-2.1662,6.9799 .4583,.2832 .8333-.1977 .8333-1.0688 0-1.73 3.5672-3.4614 6.5916-3.1995 1.3187,.1142 2.0134-.5838 2.2506-2.2614 .5041-3.5646 2.9461-6.8212 6.411-8.5498 3.9547-1.9728 4.4847-1.9247 5.2468,.4764 1.386,4.3669 2.0742,1.502 2.1017-8.75 .017-6.2954-.3979-11.037-1.0012-11.442-.5666-.3805-.9578-2.5064-.8693-4.7244 .1952-4.8951-.7756-5.6838-3.877-3.1495-1.8887,1.5433-2.107,2.1749-1.1042,3.1946 1.4746,1.4993 1.672,4.871 .2852,4.871-1.4185,0-3.2404-3.8589-2.4363-5.16 .3803-.6153 .6418-4.0324 .5811-7.5936-.0823-4.8303-.539-6.7884-1.7979-7.7089-2.163-1.5816-.8306-3.888 1.8422-3.189 1.9062,.4985 1.9672,.1876 1.3198-6.7206-.7-7.38-.05-12.63 1.56-12.63 .4904,0 .8985,1.0125 .9069,2.25 .008,1.2375 .4089,2.8714 .89,3.631 .6155,.9718 1.0814,.1571 1.5726-2.75 .5432-3.215 1.1368-4.131 2.6774-4.131 1.9614,0 1.981-.7368 .15-5.6211-.2311-.6166 .2806-1.8219 1.1372-2.6786 1.7721-1.7721 2.0972-7.2488 .4893-8.2425-.5875-.3631-.8266-1.2896-.5314-2.059 .37-.97-.23-1.4-1.93-1.4-2.9902,0-3.1357-1.0864-.4686-3.5 2.1862-1.9785 2.6682-4.5 .8602-4.5-.6269,0-1.7216,.7875-2.4327,1.75-.9501,1.286-1.5919,1.4556-2.4206,.6397-.8335-.8207-.38-1.7394 1.7381-3.5217 1.5762-1.3262 3.1838-3.2402 3.5725-4.2531 .4673-1.2177 1.3686-1.6687 2.6598-1.331 1.3334,.3487 2.1475-.102 2.566-1.4204 .3371-1.0621 1.4108-2.7034 2.3861-3.6473 2.0936-2.0262 4.762-13.136 7.1372-29.716 .5515-3.85 1.4347-8.575 1.9625-10.5 .5278-1.925 .9691-5.075 .9806-7 .0323-5.4191 1.2023-6.4677 3.9512-3.5415 2.3893,2.5433 4.039,2.5361 4.039-.0175 0-.79-.73-1.44-1.61-1.44-1.3198,0-1.4843-.6771-.9092-3.7424 .8721-4.6489 1.2435-5.2576 3.2073-5.2576 1.2798,0 1.4465,.7649 .9048,4.1525-.5853,3.6604-.4819,4.0014 .8722,2.8776 .84-.7 1.53-2.12 1.53-3.15 0-1.04 .45-1.88 1-1.88s1-1.125 1-2.5-.4655-2.5-1.0344-2.5c-.6671,0-.7918-1.829-.3511-5.151 .4621-3.4831 .3452-4.9421-.3608-4.5057-1.1991,.7411-2.2683-1.5085-2.2218-4.675 .0296-2.0154 .1255-2.0448 1.3602-.4182 1.8722,2.4663 2.2968,2.2221 3.042-1.75 .7287-3.8841 .8423-3.9577 3.7264-2.4142 1.7786,.9519 1.9505,.8389 1.3936-.9158-.9597-3.0238 1.4442-3.8239 3.4599-1.1516l1.7394,2.306 1.3119-3.6281c.9406-2.6012 1.6456-3.3512 2.4907-2.6498 1.5745,1.3067 2.8195-.3363 4.8656-6.4206 .9015-2.6808 2.3005-5.8184 3.1088-6.9725 .8083-1.154 1.4697-3.5363 1.4697-5.294 0-4.8003 .9271-6.6647 2.6167-5.2624 1.1099,.9211 1.6795,.4386 2.8832-2.4424 .8251-1.9746 1.5001-3.9673 1.5001-4.4281 0-.4608 1.0952-2.3224 2.4339-4.1368 3.7333-5.0602 10.926-23.884 15.508-40.59 3.4414-12.545 3.8129-14.284 5.661-26.5 2.0675-13.666 3.8032-17.004 2.8602-5.5-2.4929,30.414-8.9733,50.72-30.477,95.5-10.778,22.444-16.178,34.565-26.506,59.5-8.7854,21.209-11.99,33.885-15.597,61.699-1.9497,15.033-2.0712,19.452-1.5614,56.801 .6464,47.357 3.4831,110.26 7.6668,170 7.021,100.26 8.1595,125.14 8.3283,182 .2845,95.831-3.4751,124.28-18.589,140.68-4.8386,5.2492-12.274,9.3296-16.944,9.2983-1.8058-.0121-5.0832-.8461-7.2832-1.8535zm10.782-49.496c5.802-2.4722 8.0854-5.9501 8.4768-12.911 .4386-7.8-1.6389-11.513-8.2256-14.702-6.4747-3.1344-10.87-2.3237-15.783,2.911-3.2349,3.4466-3.75,4.6411-3.75,8.6963 0,6.5672 3.8673,12.959 9.346,15.446 5.0058,2.2729 5.8078,2.318 9.9361,.559zm-28.92-250.12c.3166-.825 .1397-1.5-.393-1.5-.5327,0-.9686,.675-.9686,1.5s.1769,1.5 .393,1.5c.2162,0 .652-.675 .9686-1.5zm.64-15.88c0-1.6041-2.7817-4.1741-3.6155-3.3403-.3119,.3119-.2707,1.501 .0916,2.6425 .7324,2.3077 3.5239,2.8604 3.5239,.6978zm11.52-108.37c.1911-2.479-.149-3.25-1.4333-3.25-2.54,0-3.8422,1.8124-3.3085,4.6044 .7465,3.9052 4.4172,2.8567 4.7418-1.3544zm-1.6877-7.6023c.2544-1.3211-.156-1.7314-1.477-1.477-1.0061,.1938-1.9879,1.1755-2.1816,2.1816-.2544,1.3211 .156,1.7314 1.477,1.477 1.0061-.1938 1.9879-1.1755 2.1816-2.1816zm21.155-13.839c.008-1.48-.4778-2.9958-1.0805-3.3682-.6905-.4267-.8577-2.2652-.452-4.9704 .3541-2.3612 .2297-4.549-.2764-4.8618-1.3028-.8052-2.2091,8.6303-.9728,10.129 .5615,.6805 .7353,1.9814 .3863,2.8909-.349,.9095-.3501,2.5497-.003,3.6449 .5019,1.5812 .8122,1.7066 1.5074,.6091 .4814-.7602 .8823-2.5931 .8907-4.0731zm-23.98-.81c0-2.2-.3807-4-.8459-4s-.7168,1.6875-.559,3.75c.3452,4.5117 .2895,4.25 .905,4.25 .275,0 .5-1.8 .5-4zm6-1c0-.55-.4766-1-1.059-1-.5825,0-.7809,.45-.441,1s.8165,1 1.059,1c.2425,0 .441-.45 .441-1zm0-8.5c0-1.8601-.4007-3.6296-.8904-3.9322-1.059-.6545-2.4804,6.0233-1.5891,7.4656 1.13,1.83 2.48-.1 2.48-3.53zm56-198.06c0-2.7375-.3934-4.3159-.9847-3.9504-.5416,.3347-.9307,1.5988-.8647,2.809 .066,1.2102-.214,2.9879-.6223,3.9504-.5296,1.2486-.2819,1.75 .8647,1.75 1.241,0 1.607-1.0383 1.607-4.559zm-51,175.62c0-1.13 .38-2.06 .84-2.06 .4629,0 1.3896-1.8286 2.0592-4.0636 1.4481-4.8334 3.6195-4.7406 3.552,.1519-.0378,2.7352-.4839,3.4751-2.25,3.7312-1.2116,.1757-2.2029,.9367-2.2029,1.691 0,.7543-.45,1.6496-1,1.9895-.55,.3399-1-.3085-1-1.441zm-3.62-18.511c-.8161-2.1267 .631-4.1386 1.7297-2.4046 1.1792,1.861 1.1062,3.8568-.1411,3.8568-.5673,0-1.2821-.6535-1.5886-1.4521zm-8.36-4.8c.0182-3.8586 1.324-6.2763 2.8729-5.3191 1.4258,.8812 1.4101,2.8203-.0487,6.022-1.5956,3.5021-2.8425,3.1917-2.8242-.7029zm7.6242-5.4438c-1.13-1.13-.69-2.31 .86-2.31 .825,0 1.5,.4234 1.5,.941 0,1.261-1.5616,2.1641-2.3605,1.3652zm-6.1294-20.29c-.74-1.2 .2-3.02 1.55-3.02 1.2168,0 1.2247,2.7066 .0101,3.4573-.512,.3164-1.2136,.118-1.559-.441zm24.49-65.46c0-.7925 .45-1.7191 1-2.059 .55-.3399 1,.3085 1,1.441s-.45,2.059-1,2.059-1-.6484-1-1.441zm-33-.8365c0-.94-.5-1.72-1.12-1.72-.6221,0-.8864-.8805-.5967-1.9881 .2951-1.1285-.3031-3.0344-1.3834-4.4077-2.29-2.91-2.43-4.6-.4-4.6 .825,0 1.5,.45 1.5,1s.6053,1 1.345,1c.7398,0 2.1303,.8678 3.0901,1.9283 1.8536,2.0483 1.5063,4.8223-1.0698,8.5442-1.1952,1.7268-1.3653,1.7579-1.3653,.25zm12-5.5385c0-.5771-.8538-1.3202-1.8973-1.6514-2.3838-.7566-1.6989-4.2086 1.0052-5.0669 2.0116-.6384 2.652-3.4657 .785-3.4657-.6728,0-.8134-.6864-.3584-1.75 .4117-.9625 .6771-4.675 .5896-8.25-.1619-6.6178 .8225-9.769 2.691-8.6142 1.0649,.6581 2.2248,3.8268 4.187,11.438 .917,3.5571 1.3652,4.1161 2.5271,3.1518 .7768-.6447 1.313-2.0908 1.1916-3.2137-.1214-1.1229 .3417-2.2412 1.0292-2.4851 1.3342-.4734 1.7805,5.1772 .643,8.1413-.7,1.85-3.39,2.15-3.39,.39 0-.911-.2991-.901-1.2416,.0416-.9889,.9889-.938,1.4305 .25,2.1695 1.2287,.7643 1.2713,1.2834 .2416,2.9448-.6875,1.1093-1.25,2.923-1.25,4.0305s-.5625,2.0197-1.25,2.0272c-.6875,.008-2.2625,.285-3.5,.6166-1.2868,.3449-2.25,.1538-2.25-.4463zm17.139-7.0636c-1.2447-1.0795-1.736-2.088-1.1176-2.2942 .7701-.2567 .8046-1.1541 .1141-2.9701-.6802-1.7889-.6487-2.9429 .1007-3.6923 1.7964-1.7964 .9089-24.079-1.0532-26.443-.7087-.8539-.9359-2.7058-.5616-4.5773 .5-2.49 .29-3.14-1-3.14-2.344,0-2.0239-3.6624 .375-4.2898 1.6172-.4229 2-1.364 2-4.9166 0-6.989 2.9164-8.6291 7.6098-4.2794 2.4186,2.2415 2.5765,2.7691 1.4554,4.8638-1.0453,1.9531-.9812,2.8838 .3795,5.5152 .9003,1.741 1.3798,3.5816 1.0656,4.0901-.3143,.5085-.7068,3.1886-.8724,5.9557-.1787,2.9873-.998,5.8014-2.0169,6.9272-1.605,1.7735-1.6076,2.0044-.0408,3.5712 1.2474,1.2474 1.4344,2.2147 .7323,3.7882-.8984,2.0134 .2811,7.3748 2.9465,13.393 1.2324,2.7826 .5856,5.8814-1.2276,5.8814-.7927,0-1.6865-1.0225-1.9863-2.2722-.5158-2.1501-.6668-2.1867-2.8118-.6816-2.1492,1.5081-2.2241,4.1842-.0801,2.8591 .6032-.3728 .8794,.2989 .6809,1.6554-.4459,3.0467-1.9999,3.3974-4.6953,1.0597zm-29.14-3.43c0-.812 .7077-1.7479 1.5726-2.0798 1.0967-.4208 1.475-.1 1.25,1.0601-.41,2.12-2.82,2.99-2.82,1.02zm40.688-10.336c-1.22-1.22-.73-5.07 .81-6.35 1.6482-1.3679 1.6425-1.3782 1.7727,3.1894 .0876,3.0726-1.1556,4.5944-2.5852,3.1648zm-26.69-10.79c0-.86 .45-1.56 1-1.56s1,.4234 1,.941-.45,1.2191-1,1.559c-.55,.3399-1-.0835-1-.941zm26-.059c0-.825 .45-1.5 1-1.5s1,.675 1,1.5-.45,1.5-1,1.5-1-.675-1-1.5zm9.0942-8c.1229-4.4-.2813-9.8-.8984-12-1.6741-5.9692 .5542-20.836 3.1986-21.341 1.7976-.343 1.8542,.1418 1.1076,9.4897-.4328,5.4181-.8913,14.272-1.0189,19.676-.1411,5.9751-.6984,10.285-1.4222,11-.9193,.9079-1.1393-.6456-.9667-6.8244zm5.11-3.7c-1.6332-1.6332-1.5082-2.8 .3-2.8 .8333,0 1.5,.8889 1.5,2 0,2.331-.1862,2.4138-1.8,.8zm-12.2-8.89c0-2.2526-.5437-3.2358-2-3.6166-2.3863-.624-2.4766-1.2774-.5318-3.8486 .8075-1.0676 1.4825-2.9911 1.5-4.2745 .0379-2.7833 2.3979-2.4334 2.8071,.4162 .1514,1.0544 .7472,3.4921 1.324,5.4171 .7317,2.4421 .7316,4.3312-.0005,6.25-1.4,3.68-3.1,3.49-3.1-.34zm-72-.91c0-.55 .45-1 1-1s1,.45 1,1-.45,1-1,1-1-.45-1-1zm12.128-2.5649c-1.97-2.51-2.06-4.44-.19-4.44 1.0185,0 3.5247,5.8709 2.8109,6.5847-.2863,.2863-1.4658-.681-2.621-2.1496zm28.404-1.7283c-.4281-.9862-.4977-2.0737-.1548-2.4167 1.0155-1.0155 1.8341,.4109 1.3667,2.3815-.4144,1.747-.4683,1.7485-1.2119,.0351zm-52.475-6.0371c-.9871-2.9909-.7491-8.8511 .5096-12.546 .2579-.7572 .0107-1.9288-.5493-2.6036-1.12-1.35-.24-10.52 1.01-10.52 1.081,0 2.0886,3.0008 1.3881,4.1342-.3242,.5245 .0768,1.9705 .891,3.2132 1.68,2.564 2.1489,13.397 .6576,15.194-.5299,.6385-1.0621,2.3528-1.1827,3.8097-.2983,3.6048-1.4036,3.3286-2.727-.6814zm15.611-.3364c-1.4392-1.4392-.53-4.3595 2.3333-7.4945l3-3.2846v4.1514c0,5.0294-3.0908,8.8702-5.3333,6.6276zm90.52-.54c-1.557-1.557-1.5128-3.8679 .121-6.3205 .7227-1.0849 1.3635-2.8725 1.424-3.9725 .1336-2.4284 2.161-7.9344 2.7169-7.3785 .2194,.2194 .6221,3.611 .8949,7.5369 .4474,6.4394 .2777,7.343-1.7339,9.2328-1.727,1.6225-2.4988,1.8258-3.4228,.9018zm-5.19-6.71c0-3.93 .92-6.08 2.61-6.08 1.7077,0 1.7537,1.3604 .1921,5.679-1.4829,4.1009-2.7991,4.2903-2.7991,.4028zm-107.22-.2972c-2.7862-2.1135-3.9507-6.401-2.1455-7.8992 1.0759-.8929 2.0062-.9688 3.1363-.256 1.7162,1.0825 2.9808,3.6223 1.5694,3.1518-.9787-.3262-1.2971,1.1767-.6221,2.9358 .8867,2.3107-.1541,3.421-1.9382,2.0676zm14.799-2.6504c-.4308-.697-.5132-1.5373-.1831-1.8674 .895-.895 1.8708,.4213 1.3874,1.8714-.3387,1.0162-.5743,1.0154-1.2043-.004zm-33.56-65.88c-.0174-3.6924-2.3777-4.4582-4.6233-1.5-.8419,1.109-1.3401,1.2831-1.3602,.4752-.0175-.7011-1.1568-1.7025-2.5318-2.2252-1.9536-.7428-2.5064-1.6662-2.5291-4.2252-.016-1.8011-.9177-6.4248-2.0038-10.275-4.6304-16.414-5.3059-20.881-5.2928-35 .0151-16.137 1.3133-25.647 5.5224-40.453 8.7615-30.82 28.237-56.393 53.879-70.746 7.9038-4.4242 21.903-9.1709 32.424-10.994 7.6682-1.3287 10.702-1.3796 20.5-.3442 6.325,.6684 13.698,2.0753 16.383,3.1264 2.68,1.04 5.24,1.9 5.69,1.9 .4447,0 4.624,1.8216 9.2874,4.048 9.3914,4.4837 26.2,18.359 27.235,22.483 .3208,1.2783 1.1994,2.5606 1.9524,2.8496 .753,.2889 2.5183,2.7932 3.9228,5.565 2.1632,4.269 2.362,5.3465 1.3001,7.047-1.64,2.6261-2.2089,2.5394-4.7787-.7276-1.9471-2.4753-2.2439-2.5696-3.126-.9934-.7515,1.3428-1.4053,1.5111-2.8555,.735-2.4778-1.3261-2.1946-1.4151-5.8322,1.8326-1.75,1.561-3.18,3.559-3.18,4.44 0,.881-.4778,1.8971-1.0617,2.2579-.5839,.3609-1.468,1.7247-1.9645,3.0308-.4966,1.306-2.4445,3.0188-4.3288,3.8061-3.4772,1.4528-4.5693,3.4859-6.1822,11.508-.4332,2.1547-.9584,2.9329-1.4466,2.1431-.488-.7897-1.8208-1.0084-3.6697-.6024-3.85,.85-7.35-2.29-7.35-6.58 0-2.571-.2394-2.8848-1.4406-1.8879-.7924,.6576-1.5798,2.3655-1.75,3.7953-.4136,3.4756-2.4123,3.9723-3.2091,.7975-.68-2.71-2.6-3.52-2.6-1.09 0,.7977-.5632,1.8102-1.2516,2.25-1.2174,.7778-2.8355,3.7306-4.2741,7.7997-.4719,1.3346-.8683,1.5665-1.1917,.697-.3606-.9695-.8428-.8416-1.8843,.5-1.2331,1.5884-1.5104,1.6201-2.329,.2669-.8029-1.3272-2.4208-1.5572-7.3515-1.0452-1.624,.1687-2.5177,4.5561-1.0961,5.3809 3.1878,1.8496 .385,6.3094-2.8703,4.5672-1.5553-.8324-2.2334-.6238-3.4035,1.0468-.8037,1.1474-2.0804,2.0863-2.8372,2.0863-.7568,0-1.6616,.9-2.0107,2-.3491,1.1-1.2794,2-2.0674,2-.7879,0-1.4326,.6575-1.4326,1.461 0,.8036-.9388,2.3357-2.0862,3.4046-1.6982,1.5822-1.8827,2.3239-.9917,3.9887 .8807,1.6456 .6123,2.9088-1.3747,6.4678-1.358,2.4325-2.1493,4.7667-1.7583,5.1872 .391,.4205 .1012,.5746-.6441,.3426-1.233-.3839-3.0243-4.2488-5.0296-10.852-.4176-1.375-1.1769-2.5-1.6873-2.5-.5104,0-1.0838,1.125-1.2743,2.5-.1904,1.375-.9779,2.8599-1.75,3.2997-.77,.44-1.4,1.46-1.4,2.27 0,2.29-2.41,9.43-3.18,9.43-.3812,0-.8353-1.4625-1.009-3.25l-.3158-3.25-1.7475,3.2003c-.96,1.76-1.75,4.1-1.75,5.19 0,1.0949-.45,2.2688-1,2.6087-.55,.3399-1-.282-1-1.382 0-3.0026-1.5629-3.3728-2.7977-.6626-.8514,1.8687-.774,2.6552 .3538,3.5911 1.713,1.4217 1.9013,4.5528 .3322,5.5226-1.5319,.9468-3.018-1.5881-2.546-4.343 .9224-5.384-4.3809-3.7291-6.4776,2.0213-1.081,2.9648-2.1223,4.2448-3.4559,4.248-1.4262,.003-1.8539,.6366-1.6917,2.5046 .1477,1.7015-.6182,3.1095-2.3978,4.4082-2.4175,1.7642-2.7063,1.783-3.8273,.25-1.6779-2.2946-2.1908-2.09-2.737,1.0918-.2596,1.5125-.8372,3.6113-1.2834,4.664-.5455,1.2868-.4567,1.6948 .2711,1.2451 .5953-.368-1.2389,3.8278-4.0762,9.3239-4.0032,7.7546-5.7755,10.208-7.9125,10.953-1.9211,.6697-2.7585,1.6561-2.7692,3.262-.008,1.2661-.4515,2.977-.9847,3.802-.7356,1.1383-.9731,.7162-.9847-1.75zm19.98-21.19c0-.5175 .45-1.2191 1-1.559 .55-.3399 1,.0835 1,.941 0,.8575-.45,1.559-1,1.559s-1-.4234-1-.941zm11.16-9.06c0-1.375 .227-1.9375 .5044-1.25s.2774,1.8125 0,2.5-.5044,.125-.5044-1.25zm154.92-16.583c.048-1.165 .2849-1.4019 .6042-.6042 .2889,.7219 .2533,1.5844-.0789,1.9167-.3323,.3323-.5686-.2583-.5252-1.3125zm.23-18.92c.006-3.3 .1923-4.5294 .4149-2.7321 .2226,1.7974 .218,4.4974-.0102,6-.2282,1.5026-.4103,.0321-.4047-3.2679zm-9.7939-35.75c-1.0668-4.5973-.9882-9.0422 .1672-9.4522 .7717-.2738 1.1394,.7317 1.0573,2.8912-.0692,1.8211 .2346,4.5486 .6752,6.0611 .5265,1.8073 .4277,2.75-.2882,2.75-.5992,0-1.3243-1.0125-1.6115-2.25zm-19.373-17.631c-.7906-.5065-1.1019-1.6731-.7459-2.7948 .72-2.2686 7.3373-4.9899 8.735-3.5921 1.3756,1.3756-.1275,4.4836-1.849,3.823-.8023-.3079-2.2068,.3387-3.121,1.4368-1.1103,1.3336-2.1127,1.7079-3.0192,1.1272z"/>
<path fill="#b9a686" d="m501.5,958.12c-7.8959-3.6154-16.045-14.676-20.629-27.999-4.5644-13.267-7.5344-42.512-8.4418-83.126-.3994-17.875-.7031-34.075-.6749-36 .039-2.6632 .1332-59.739 .1123-68-.002-.825 .4663-3.6532 1.041-6.2848 .5746-2.6316 1.2772-9.1566 1.5612-14.5 .6224-11.71 1.2313-14.886 2.9821-15.558 .7309-.2805 2.0543-1.9639 2.9408-3.7409 1.3579-2.722 1.4404-4.2151 .5238-9.4785-.8319-4.7772-.7985-6.7884 .142-8.5458 .6765-1.2641 1.3519-3.8944 1.5009-5.8451 .4053-5.3066 2.3713-15.15 3.6997-18.524 .6447-1.6373 1.0399-6.1458 .8783-10.019-.2188-5.244 .2658-8.6594 1.8982-13.376 1.7641-5.0974 1.9743-6.8124 1.0764-8.7829-1.25-2.73-.39-16.34 1.03-16.34 .471,0 .8564,.81 .8564,1.8s.4187,2.2275 .9304,2.75c.55,.5616 .603,3.6075 .1296,7.45-.4404,3.575-.4091,7.2579 .0696,8.1843 1.516,2.9337 .9458,6.6676-1.344,8.8009-2.1364,1.9904-2.156,2.1766-.5539,5.289 1.5254,2.9634 1.6991,10.612 .3266,14.377-.2309,.6332 .3366,1.0423 1.261,.909 1.2533-.1807 1.8236-1.618 2.2424-5.6514 .3089-2.9749 1.3972-7.0807 2.4185-9.1239 1.4105-2.8219 1.615-4.257 .8506-5.9701-1.2166-2.7265 .1966-9.4389 2.5624-12.17 1.0856-1.2534 1.5385-3.4432 1.3961-6.75-.1623-3.767 .1329-4.8946 1.2814-4.8946 .8207,0 1.7503,.6724 2.0656,1.4943 .3154,.8218 .9732,1.2472 1.4618,.9452 1.1191-.6917 .5141-7.9688-.8038-9.6687-1.127-1.4536-1.1466-33.252-.0212-34.377 1.2201-1.2201 .8156-3.6385-.9316-5.5691-1.3614-1.5043-1.451-2.2886-.5-4.3758 1.42-3.12 1.52-8.45 .16-8.45-.55,0-1-.4697-1-1.0438 0-.5741 .7408-.9116 1.6463-.75 .9054,.1616 1.8429-.2687 2.0833-.9562 .25-.72-.38-1.25-1.49-1.25-2.12,0-4.24-3.73-4.24-7.49 0-3.8328 1.7367-3.8397 3-.012 1.4492,4.3911 2.386,3.8649 3.9605-2.2242 2.0733-8.0182 1.8645-7.6658 3.6595-6.1761 1.3523,1.1223 1.8137,1.0277 3.0176-.6188 1.1753-1.6073 1.2863-5.0624 .6418-19.962-1.5837-36.61-.4426-83.316 2.7026-110.62 .9885-8.581 1.583-16.722 1.3212-18.092-.2945-1.5407 .1749-3.1413 1.231-4.1974 .9389-.9389 2.9553-6.7474 4.4809-12.908 1.5256-6.1604 3.4259-13.062 4.2229-15.336 .797-2.2746 1.2626-5.6496 1.0346-7.5-.319-2.5893-.1677-3.0188 .6564-1.8644 .9519,1.3333 1.1803,1.3333 2.0555,0 .5416-.825 .9916-2.7217 1-4.2148 .009-1.6082 .7708-3.1191 1.8687-3.7067 2.5401-1.3594 9.4231-14.674 10.121-19.578 .4379-3.0763 .9896-3.9644 2.3892-3.8458 2.1431,.1816 5.58-6.5593 5.6142-11.011 .0165-2.1472 .4015-2.7113 1.5499-2.2707 1.5259,.5855 1.9099-.1064 10.856-19.56 1.4387-3.1284 2.6158-6.3686 2.6158-7.2003 0-.8317 .6471-1.8744 1.4381-2.317 2.3156-1.2959 14.35-28.549 19.56-44.295 2.6386-7.975 5.7572-19.45 6.9301-25.5s2.5149-12.8 2.9822-15l.8496-4 .1026,4c.123,4.7944-1.9587,17.75-4.7716,29.696-3.6673,15.575-12.794,38.254-26.068,64.778-9.8766,19.735-26.629,58.783-32.09,74.8-3.689,10.818-6.4451,24.35-9.0488,44.425-1.9497,15.033-2.0712,19.452-1.5614,56.801 .6464,47.357 3.4831,110.26 7.6668,170 7.021,100.26 8.1595,125.14 8.3283,182 .2845,95.831-3.4751,124.28-18.589,140.68-4.8386,5.2492-12.274,9.3296-16.944,9.2983-1.8058-.0121-5.0832-.8461-7.2832-1.8535zm11.3-49.53c5.5416-2.8833 7.583-6.1861 7.9593-12.877 .4386-7.8-1.6389-11.513-8.2256-14.702-6.4747-3.1344-10.87-2.3237-15.783,2.911-3.2349,3.4466-3.75,4.6411-3.75,8.6963 0,6.5672 3.8673,12.959 9.346,15.446 5.0059,2.273 6.9104,2.3686 10.454,.5251zm-19.75-237.71c1.8452-5.0385 1.8621-5.4554 .269-6.6268-3.7052-2.7244-4.6221-1.0626-3.7359,6.7709 .3763,3.3256 .8672,5.8634 1.091,5.6396 .2238-.2238 1.293-2.8264 2.3759-5.7837zm18.95-10.5c0-.825-.45-1.2219-1-.882-.55,.3399-1,1.293-1,2.118s.45,1.2219 1,.882c.55-.3399 1-1.293 1-2.118zm1.9686-31.073c.02-.66-.42-1.47-.97-1.81-.55-.3399-1-2.2629-1-4.2733 0-3.4093-.112-3.5433-1.6641-1.9912-1.364,1.364-1.4352,1.9399-.3949,3.1934 .972,1.1712 1.0104,2.2716 .1641,4.6994-.61,1.74-1.11,3.57-1.11,4.07 0,1.3492 4.9322-2.5092 4.9686-3.8869zm.03-15.81c0-1.4902-.5722-2.5-1.4167-2.5-.7792,0-1.6436-.5625-1.921-1.25-.2774-.6875-.5399-.1025-.5833,1.3-.0765,2.4709 1.4866,4.95 3.121,4.95 .44,0 .8-1.125 .8-2.5zm3-5.441c0-1.3504-1.8229-2.2865-3.0163-1.5489-.559,.3455-.7574,1.047-.441,1.559 .75,1.21 3.46,1.21 3.46-.01zm-6.8-22.26c-.9333-.9333-1.2-.6667-1.2,1.2s.2667,2.1333 1.2,1.2c.9333-.9333 .9333-1.4667 0-2.4zm6.8,.641c0-.79-.45-1.44-1-1.44s-1,.9266-1,2.059c0,1.1325 .45,1.7809 1,1.441 .55-.3399 1-1.2665 1-2.059zm-7.3958-28.17c-1.0165-1.0165-1.8552,.5139-1.0212,1.8634 .63,1.0194 .8656,1.0202 1.2043,.004 .2316-.6948 .1492-1.5351-.1831-1.8674zm-32.893,143.11c-1.0345-1.0345-.872-6.1608 .2166-6.8336 .5104-.3155 1.195,.2678 1.5214,1.296 .6915,2.1787-.6912,6.5843-1.738,5.5375zm.45-10.38c0-1.375 .227-1.9375 .5044-1.25s.2774,1.8125 0,2.5-.5044,.125-.5044-1.25zm17.84-84.5c0-.825 .45-1.5 1-1.5s1,.675 1,1.5-.45,1.5-1,1.5-1-.675-1-1.5zm-4.3681-3.2866c-.6195-1.0024 .0581-10.237 .806-10.985 .2359-.2359 .8976-.1393 1.4704,.2147 .6291,.3888 .8021,2.5069 .4369,5.3501-.6314,4.9155-1.7026,7.0553-2.7134,5.4199zm3.8142-15.301c-.3695-.5979-.1711-1.5879 .441-2.2 .82-.81 1.12-.53 1.12,1.09 0,2.4145-.5195,2.7866-1.5538,1.1129zm-2.7795-5.5795c-.3667-.3667-.6694-1.3792-.6728-2.25-.003-.8708-.6784-2.8723-1.5-4.4476-1.5108-2.8968-2.1398-17.789-.8891-21.048 .86-2.21 2.4-.94 2.4,1.98 0,1.5031 .5763,2.441 1.5,2.441 .825,0 1.5,.1448 1.5,.3219 0,1.101-3.45,10.391-4.2278,11.384-1.0197,1.3024-.2417,3.2938 1.2868,3.2938 .5175,0 .941-.5578 .941-1.2395 0-1.9252 3.4096-9.7526 4.25-9.7568 1.1175-.006 .907,3.7812-.25,4.4962-.55,.3399-1,1.3435-1,2.2303 0,.8867-.7447,2.4352-1.655,3.441-1.5416,1.7035-1.5354,1.9608 .0901,3.7571 2.4231,2.6775 .7173,7.8908-1.7685,5.405zm11.469-45.928c.1141-2.1481 .0176-4.5699-.2144-5.3819-.2582-.9036 .3756-1.5995 1.6339-1.7941 1.3029-.2014 2.4014-1.4677 3-3.458 1.2688-4.2191 2.9995-4.5326 4.8857-.8851 2.2147,4.2828 2.0595,7.0572-.3593,6.4246-1.4115-.3691-2.0056,.086-2.25,1.7238-.1826,1.2239-1.8105,3.3618-3.6176,4.7508l-3.2856,2.5255 .2073-3.9056zm-45.13-243.66c0-.825 .675-2.0602 1.5-2.7449 1.22-1.0125 1.5-.9648 1.5,.2551 0,.825-.675,2.0602-1.5,2.7449-1.22,1.0125-1.5,.9648-1.5-.2551zm-51.33-80.41c-.37-.36-.67-1.47-.67-2.47 0-.9913-1.1416-5.2995-2.5368-9.5737-10.659-32.653-5.4061-74.553 13.19-105.21 20.702-34.125 55.516-53.453 91.525-50.812 20.044,1.4701 36.212,8.4407 49.99,21.552 8.45,8.047 8.83,8.593 8.83,12.733 0,4.2771-.0424,4.3295-3.75,4.6363-2.7563,.2281-4.0116,.9066-4.7371,2.5604-.5429,1.2375-1.7917,2.25-2.775,2.25-1.1893,0-1.9902,1.0114-2.392,3.0208-.7568,3.7838-2.3061,4.8473-3.0298,2.0798-.53-2.019-2.32-2.993-2.32-1.262 0,.4617-1.1316,1.3551-2.5147,1.9853-1.3831,.6302-3.0141,2.3899-3.6245,3.9105-2.4607,6.1302-3.1367,7.0961-4.5792,6.5425-1.1253-.4318-1.3141-1.5752-.8125-4.9202 .54-3.586 .37-4.357-.93-4.357-.8723,0-2.053,1.2283-2.6238,2.7296-1.2813,3.37-2.9458,4.4878-4.6173,3.1005-.9281-.7703-1.4389-.6197-1.8905,.5572-.35,.88-1.17,1.61-1.84,1.61-2,0-5.57,4.45-5.57,6.94 0,1.8882-.2602,2.0921-1.4303,1.121-1.1445-.9498-1.6532-.7704-2.5462,.8982-.6138,1.1469-.8436,2.5259-.5107,3.0646 .3329,.5386 .1812,.9793-.3371,.9793s-1.1777-.9-1.4654-2c-.68-2.59-2.71-2.59-2.71,0 0,2.4655-2.5353,2.6272-3.9199,.25-.5606-.9625-1.033-1.2729-1.0497-.6898-.0167,.5831-1.2787,2.3831-2.8044,4s-3.653,4.6273-4.7274,6.6898c-1.8919,3.632-4.4618,5.049-4.534,2.5-.0195-.6875-.6345-.169-1.3666,1.1521-.7321,1.3212-1.1246,3.1921-.8721,4.1575 .6219,2.3781-3.3916,6.261-5.8161,5.627-1.4209-.3716-2.3162,.3676-3.5215,2.9076-1.5731,3.3151-3.1504,4.8342-2.0547,1.9789 .3012-.7848-.1753-2.0223-1.0589-2.75-1.4257-1.1742-1.5294-1.0137-.9215,1.4269 .8557,3.4356-.6412,3.608-2.1712,.25-1.6495-3.6204-2.9487-3.0842-4.2406,1.75-1.1932,4.4652-3.7259,7.6552-5.5856,7.0352-.6056-.2019-1.3485,.5791-1.6509,1.7355-.3429,1.3113-1.2058,1.9853-2.2931,1.7909-1.2073-.2158-2.0046,.6107-2.593,2.6884-.4674,1.65-2.0048,4.35-3.4167,6-2.2297,2.6058-2.4815,2.7044-1.9171,.75 .3574-1.2375 .2393-2.25-.2626-2.25-1.7995,0-4.126,3.6111-5.4033,8.3866-.715,2.6734-1.9793,5.0783-2.8096,5.3442-7.3079,2.3402-10.502,5.1327-12.528,10.953-.9638,2.7685-1.8152,3.7232-3.1011,3.4773-1.4245-.2723-1.5424-.0615-.6001,1.0738 1.3147,1.5842-.1218,3.7651-2.48,3.7651-.715,0-1.3,.9551-1.3,2.1224 0,1.7321-.2643,1.9031-1.4374,.9295-1.19-.9876-1.8566-.2773-3.8732,4.1276-1.3397,2.9263-2.7232,6.1586-3.0745,7.1831-.5283,1.5409-.9011,1.6448-2.1581,.6016-1.2508-1.0381-1.7735-.9254-2.9564,.6374-.7903,1.0441-1.4512,2.2359-1.4688,2.6484-.0394,.9293-2.4593,.9892-3.3651,.0833zm15.33-4.28c0-2.09 2.4-6.05 3.66-6.05 1.7835,0 1.6903,1.535-.2755,4.5352-1.62,2.48-3.38,3.27-3.38,1.51zm77.5-76.05c-.3399-.55-.1415-1 .441-1s1.059,.45 1.059,1-.1984,1-.441,1-.7191-.45-1.059-1z"/>
<path fill="#b9a17c" d="m501.25,957.47c-8.3513-4.2171-14.7-12.855-19.443-26.451-1.9567-5.6095-4.0269-18.589-5.7964-36.34-.5383-5.3998-1.2297-10.224-1.5365-10.72-.3068-.4964-.5646-11.603-.5729-24.682-.008-13.079-.5212-28.505-1.1397-34.28-.6185-5.775-1.0871-12.075-1.0413-14 .0617-2.5948 .1749-55.935 .1443-68-.002-.825 .4864-3.75 1.0855-6.5 .5991-2.75 1.2395-7.925 1.423-11.5 .1835-3.575 .6545-7.2412 1.0466-8.147 .3921-.9059 .6293-2.2559 .527-3-.4523-3.2905 .2325-5.1888 2.801-7.7655 5.4136-5.4307 5.5185-5.6676 3.8986-8.8002-2.7345-5.2879-2.9897-9.619-.797-13.523 1.1054-1.9681 1.7775-4.4668 1.4936-5.5526-.4906-1.8761 2.89-6.2117 4.8435-6.2117 1.2563,0 .9572,5.4542-.3719,6.7833-.6508,.6508-.8142,1.5283-.3631,1.95 .4511,.4217 1.0211,.2042 1.2667-.4833 .5021-1.4059 4.2798-1.7347 4.2798-.3724 0,.4827-.675,1.4378-1.5,2.1224-.825,.6847-1.5,2.2597-1.5,3.5s.675,2.8153 1.5,3.5c.825,.6847 1.5,1.8914 1.5,2.6815 0,.7901 .4683,1.1472 1.0407,.7934 .5724-.3537 .767-1.5053 .4326-2.559-.46-1.46-.12-1.91 1.46-1.91 2.1231,0 2.8538-2.3959 1.0674-3.5-.55-.3399-1-1.7165-1-3.059 0-1.46-.58-2.44-1.44-2.44-.7925,0-1.6716-.3732-1.9535-.8293-.7135-1.1544 2.1094-10.187 3.781-12.098 2.0373-2.3294 4.0634-15.177 2.5419-16.117-.6957-.4299-.8474-1.2777-.3677-2.0539 .4493-.727 .7264-4.5723 .6158-8.5452-.1847-6.6332 .4645-8.672 2.8235-8.8674 1.3954-.1156 3.8421-2.2444 4.9042-4.2672 1.2851-2.4474 3.0958-2.1402 3.0958,.5252 0,2.0506-4.1504,8.2369-5.5322,8.246-.5778,.004-1.0683,2.5048-1.1142,5.6814-.0856,5.9194 .2717,5.9508 3.6966,.3255 .8118-1.3333 1.0247-1.3333 1.9162,0 1.4188,2.1219 1.3261,2.4989-1.416,5.7578-1.6686,1.983-2.2636,3.6227-1.8662,5.1424 .3209,1.2272 .1071,3.2141-.475,4.4155s-1.258,3.4378-1.502,4.97c-.4246,2.6669-.3635,2.7133 1.4308,1.0895 2.4626-2.2286 3.495-1.0597 1.987,2.2499-1.6021,3.5161-1.0589,3.788 3.3591,1.6812l3.7317-1.7795-.7123-13.513c-.3918-7.4323-1.1934-14.103-1.7814-14.825-.8009-.9825-.3985-1.9333 1.6044-3.7905 3.0094-2.7905 3.1919-3.5951 1.4484-6.3868-1.0305-1.6501-.9157-2.1878 .7228-3.3859 1.6979-1.2415 1.7838-1.7308 .6696-3.8126-1.0892-2.0352-.976-3.0933 .7657-7.1565 2.1573-5.0327 2.079-3.166 2.019-48.156-.0158-11.831-.4823-32.35-1.2732-56-.1655-4.95-.786-9.9-1.3789-11-1.1154-2.0695-1.0176-38.792 .1479-55.5 2.6305-37.71 3.9467-46.893 9.9352-69.316 2.0294-7.5987 5.0235-17.173 6.6534-21.276 1.63-4.1032 2.9635-7.9821 2.9635-8.6198 0-.6377 .8431-2.0885 1.8736-3.224 2.89-3.19 10.13-17.62 10.13-20.21 0-1.5906 .4441-2.1313 1.4374-1.7502 1.475,.566 5.5626-6.0459 5.5626-8.9978 0-.8047 1.0751-2.7408 2.389-4.3023 1.314-1.5616 3.8352-5.8999 5.6026-9.6408 1.7675-3.7408 3.3964-6.6188 3.6198-6.3953 .2234,.2234-1.008,3.5148-2.7364,7.314-3.6091,7.9331-5.7552,13.057-17.425,41.601-11.341,27.74-15.046,43.392-18.564,78.413-2.4124,24.018 2.1439,141.48 9.1309,235.39 1.6588,22.297 4.9877,79.051 5.9826,102 2.1492,49.571 .4813,139.35-3.0034,161.68-3.5505,22.747-11.807,38.221-23.298,43.663-6.3997,3.0312-9.6493,3.0588-15.447,.1314zm10.75-48c6.4571-1.7865 10.777-9.8826 9.5498-17.896-.7359-4.804-2.7622-7.615-7.5498-10.474-11.192-6.6828-24.424,3.1879-21.053,15.705 1.9132,7.105 10.436,14.878 15.053,13.729 .825-.2053 2.625-.6846 4-1.065zm9.3492-106c-.8562-2.2313-3.2102-1.424-5.1368,1.7618-1.5617,2.5822-1.546,2.8061 .2907,4.1491 1.7629,1.2891 2.1026,1.1546 3.6942-1.4627 .9641-1.5852 1.4824-3.5869 1.1519-4.4482zm-2.35-14.47c0-.55-.4766-1-1.059-1-.5825,0-.7809,.45-.441,1s.8165,1 1.059,1c.2425,0 .441-.45 .441-1zm7-135.14c0-2.775-.3881-3.895-1.25-3.6076-1.1924,.3975-1.9823,6.4064-1.0538,8.0163 1.0237,1.7749 2.3038-.6747 2.3038-4.4087zm-49.98,44.89c.008-1.2375 .4515-2.925 .9847-3.75 .721-1.1158 .9733-.5394 .9847,2.25 .008,2.0625-.4347,3.75-.9847,3.75s-.9931-1.0125-.9847-2.25zm9.3516-31.835c.9976-4.9879 2.5856-5.9485 2.2938-1.3874-.1382,2.1596-.8389,4.0316-1.6048,4.2869-1.0482,.3494-1.206-.3146-.689-2.8995zm21.63-9.81c0-2.4577 2.5071-7.2739 3.3485-6.4325 1.0924,1.0924 .7264,5.8434-.5485,7.1182-1.7362,1.7362-2.8,1.4758-2.8-.6857zm-18.928-2.4239c-1.0374-2.7286-.6067-10.379 .9397-16.69 1.325-5.4075 2.6834-7.0967 4.0142-4.9916 1.5135,2.3939 1.127,4.8383-1.12,7.0854-1.728,1.728-1.9584,2.7324-1.3193,5.75 .6549,3.0917 .8596,7.3451 .5009,10.406-.1928,1.6454-2.1896,.6127-3.0155-1.5596zm2.5943-25.357c-1.05-1.05-.77-6.33 .34-6.33 .55,0 1,1.575 1,3.5 0,3.5967-.1824,3.9843-1.3333,2.8333zm12.412-9.9167c.048-1.165 .2849-1.4019 .6042-.6042 .2889,.7219 .2534,1.5844-.0789,1.9167-.3323,.3323-.5686-.2583-.5252-1.3125zm5.29-2.41c.0577-2.2 .4142-4 .7924-4 .9895,0 2.1134,5.7589 1.3615,6.9756-1.3288,2.1501-2.2547,.8709-2.1538-2.9756zm2.672-12.143c-.03-2.56 1.5-3.86 4.55-3.86 .78,0 1.42,.45 1.42,1s-.4904,1-1.0897,1c-.5993,0-1.9344,1.0125-2.9667,2.25l-1.877,2.25-.0333-2.643zm-5.018-2.0237c.008-1.2833 .4342-2.9957 .9462-3.8053 .802-1.2682 1.0193-1.2417 1.5693,.1916 .8718,2.2718 .2339,5.0265-1.2808,5.5309-.7642,.2544-1.244-.4907-1.2347-1.9171zm4.4517-5.8867c-.358-.5793-.3447-3.6922 .0296-6.9174 .6028-5.1935 .4567-5.9839-1.2775-6.912-3.5336-1.8911-3.4828-22.074 .0557-22.109 .4261-.004 1.2768-1.2453 1.8903-2.7578l1.1156-2.75 .76,2.5c1.1348,3.7329 1.0982,11.505-.0686,14.574-1.0955,2.8814-.407,4.7483 .9446,2.5614 .8088-1.3086 .4149,19.259-.414,21.615-.5365,1.5246-2.1502,1.6292-3.0356,.1966zm-.0525-19.295c.4895-2.0723 .3277-2.7329-.5942-2.4256-.6968,.2323-1.3407,1.8906-1.431,3.6852-.1876,3.7298 1.0247,2.9758 2.0252-1.2597zm-18.91,17.34c.3399-.55 .8165-1 1.059-1 .2425,0 .441,.45 .441,1s-.4766,1-1.059,1c-.5825,0-.7809-.45-.441-1zm-.5062-14.75c-.003-.9625-.6784-3.0389-1.5-4.6143-1.5108-2.8968-2.1398-17.789-.8891-21.048 .86-2.22 2.4-.95 2.4,1.97 0,1.5031 .5763,2.441 1.5,2.441 .825,0 1.5,.1448 1.5,.3219 0,1.101-3.45,10.391-4.2278,11.384-1.0197,1.3024-.2417,3.2938 1.2868,3.2938 .5175,0 .941-.5578 .941-1.2395 0-1.9252 3.4096-9.7526 4.25-9.7568 1.1175-.006 .907,3.7812-.25,4.4962-.55,.3399-1,1.3435-1,2.2303 0,.8867-.7198,2.4076-1.5996,3.3798-1.4387,1.5897-1.4463,1.9864-.0754,3.9435 .8383,1.1968 1.285,2.7994 .9926,3.5612-.7637,1.9901-3.3164,1.71-3.3237-.3648zm19.01-28.25c0-1.8667 .2667-2.1333 1.2-1.2 .9333,.9333 .9333,1.4667 0,2.4-.9333,.9333-1.2,.6667-1.2-1.2zm-2.3314-22.25c.6803-3.5738 1.0743-4.3404 1.8383-3.5764 .78,.78-.65,6.83-1.61,6.83-.4675,0-.5716-1.4625-.2314-3.25zm59.33-244.64c0-.7226 1.9312-4.9815 4.2917-9.4643 2.3604-4.4828 5.5816-11.076 7.1582-14.65 1.5766-3.575 4.079-9.2 5.561-12.5 2.915-6.4912 5.254-13.074 9.5173-26.787 1.5025-4.8326 2.9391-8.5794 3.1923-8.3262 .932,.932-3.7306,16.839-8.297,28.307-5.9742,15.003-18.159,41.352-20.01,43.27-1.0907,1.1302-1.4131,1.1645-1.4131,.1505zm-160.37-74.28c-8.6424-31.15-10.06-44.024-7.1228-64.687 5.7332-40.335 26.203-72.489 57.552-90.402 2.508-1.4331 9.933-4.5287 16.5-6.8791l11.94-4.269 16,.0401c14.305,.0359 16.85,.3097 24.025,2.5843 13.459,4.2666 23.882,10.316 33.309,19.331 7.8993,7.5541 8.372,8.2385 7.7249,11.185-.5299,2.4124-1.3651,3.2868-3.6105,3.78-1.6067,.3529-3.8618,1.9625-5.0113,3.5769-1.1496,1.6144-2.4586,2.7076-2.9089,2.4293-.95-.586-2.03,1.811-2.03,4.506 0,2.7159-2.0412,3.5356-2.6839,1.0778-.6539-2.5005-.9907-2.5689-2.9589-.6006-2.306,2.306-4.1904,1.7881-4.5477-1.25l-.3234-2.75-1.3462,2.3772c-1.0413,1.8388-1.0722,2.5466-.1361,3.1251 .8129,.5024 .969,1.8557 .4755,4.1228-1.0281,4.7231-2.7376,6.9513-4.4981,5.8632-1.1748-.726-1.2204-1.631-.2616-5.1839 .9809-3.6348 .9189-4.5377-.3988-5.8043-1.1865-1.1405-1.6715-1.2004-2.0239-.25-.2549,.6875-1.0752,1.25-1.8229,1.25-2.5216,0-7.9574,3.9246-10.353,7.4744-2.619,3.8814-6.8214,4.7965-9.1487,1.9923-1.6827-2.0276-3.2836-1.3845-3.9886,1.6022-.3143,1.3313-1.3549,2.5715-2.3124,2.7559-2.6525,.5108-6.6713,4.6583-6.6713,6.8849 0,1.0892-.9084,2.8024-2.0187,3.8072-1.9587,1.7726-2.0134,1.7698-1.8416-.095 .34-3.68-.15-6.42-1.14-6.42-.55,0-1.003,.7875-1.0066,1.75-.007,1.9662-3.2709,7.3251-4.6176,7.5825-2.1577,.4123-6.3758,6.6276-6.3758,9.3945 0,1.6296-.8417,3.7247-1.8703,4.6556-1.5811,1.4309-2.2883,1.5022-4.573,.4612-2.5027-1.1403-2.8889-.9935-5.2202,1.9854-1.3846,1.7692-3.2393,3.094-4.1215,2.9438-.8863-.1509-2.1733,.8456-2.8763,2.227-.6998,1.375-1.8498,2.5-2.5555,2.5-1.8503,0-3.7144,2.6314-3.7514,5.2954-.0389,2.8068-4.2333,7.2046-6.8713,7.2046-1.9549,0-5.1586,3.8565-5.1627,6.2148-.001,.7529-1.3206,1.3332-3.1856,1.401-4,.14-8.81,5.16-8.81,9.2 0,2.68-1.54,5.18-3.2,5.18-.44,0-.8-.675-.8-1.5s-.675-1.5-1.5-1.5-1.5,.8788-1.5,1.953c0,3.1861-2.1424,7.3037-5.8663,11.275-3.1547,3.364-3.3734,3.956-2.2421,6.0698 1.0773,2.013 .9352,2.882-1.0108,6.1802l-2.2644,3.8379-1.1474-3.4077c-.63-1.88-1.77-3.41-2.53-3.41-1.999,0-4.1004,4.6021-2.8109,6.1559 .5633,.6787 .8771,2.236 .6974,3.4607-.3704,2.5244-2.6341,3.7403-3.1956,1.7165zm47.37-58.33c0-4.1088-1.6307-4.6015-3.0319-.9161-1.1,2.9-.56,4.42 1.59,4.42 .98,0 1.44-1.12 1.44-3.5zm143.14,57c0-1.65 .3867-3.9 .8594-5 .7327-1.7051 .8594-1.5576 .8594,1 0,1.65-.3867,3.9-.8594,5-.7327,1.7051-.8594,1.5576-.8594-1z"/>
<path fill="#ad9671" d="m501.25,957.47c-11.83-5.97-20.38-21.88-22.28-41.47-.5065-5.225-1.4684-14.9-2.1376-21.5-1.3632-13.445-1.4153-16.201-.5475-28.972 .4147-6.1027 .2551-9.1915-.4991-9.6576-.8005-.4947-.7525-1.5455 .1724-3.7786 .9134-2.205 .9757-3.4614 .2171-4.3755-.6999-.8433-.7612-2.6402-.1792-5.2491 .9193-4.1207 .7382-10.315-.4869-16.655-.5174-2.6776-.2742-4.3145 .887-5.9725 .8799-1.2562 1.5998-3.3272 1.5998-4.6024 0-1.2751 .8602-5.1125 1.9116-8.5275 1.6946-5.5043 3.2969-16.95 4.5095-32.212 .2186-2.7517 1.163-6.9163 2.0986-9.2546 1.1089-2.7714 1.4779-5.4413 1.06-7.669-.3716-1.9807-.2078-3.6852 .3896-4.0544 .6326-.391 1.0307,.7148 1.0307,2.863 0,4.0424 1.5534,5.4932 3.6435,3.4031 1.1302-1.1302 1.461-4.6435 1.4942-15.868 .06-16.37 .3-17.92 2.81-17.92 2.3418,0 4.4423,2.5486 3.6983,4.4873-.3655,.9525-.002,1.5127 .9817,1.5127 .8592,0 1.8001-.9095 2.0908-2.0211 .3544-1.3553 .9001-1.7163 1.6564-1.0958 .6203,.5089 2.2529,1.0809 3.6279,1.2711 2.4137,.3339 2.5,.6047 2.5,7.8458v7.5l-3.8125-.3011c-3.5282-.2786-3.7333-.1531-2.7504,1.6835 .5842,1.0915 2.2998,2.127 3.8125,2.3011 3.9565,.4552 4.4142,4.4235 .6741,5.8454l-2.7149,1.0322 2.0206,2.2194c1.1113,1.2207 2.5692,3.2814 3.2396,4.5794l1.219,2.36 2.0202-3.3219c1.6015-2.6334 1.8982-4.3512 1.4319-8.2887-.3235-2.7318-.1942-5.4489 .2873-6.0381 1.1442-1.3998 3.1715-18.15 2.4305-20.081-.3146-.8197-.2448-2.2779 .1551-3.2404 1.1049-2.6598 1.2257-7.6024 .2188-8.9519-.5397-.7233-.4058-3.3958 .3362-6.7115 1.0277-4.5921 1.57-5.4744 3.2564-5.2981 1.8623,.1947 2.0294-.3787 2.0995-7.202 .0483-4.7071-.3387-7.553-1.0602-7.7954-1.3018-.4375-3.3637,4.7879-3.3637,8.5249 0,1.3846-.3375,2.1799-.75,1.7674-.785-.785-1.2742-4.6774-1.328-10.565-.0175-1.9151-.7256-4.2486-1.5736-5.1856-1.291-1.4266-1.363-2.5371-.4425-6.8291 .7432-3.4654 .7745-5.7321 .0967-6.9987-1.3963-2.6089-1.4074-2.5969 2.4975-2.7076 1.925-.0546 3.5,.3062 3.5,.8018 0,1.5496 1.8852,.9841 2.873-.8618 1.8868-3.5256 2.0741-11.943 .4946-22.237-.8861-5.775-2.1635-11.291-2.8387-12.257-.8158-1.1679-1.0704-4.2068-.759-9.0593 .3426-5.3378 .1003-7.6894-.9007-8.7426-1.0632-1.1187-1.3904-6.1344-1.4636-22.441-.2068-46.04-1.5094-93.92-2.5905-95.223-2.4314-2.9296-.4037-69.614 2.8362-93.277 2.6789-19.566 7.8136-39.09 14.99-57 .9918-2.475 4.4906-9.225 7.7752-15s7.8068-14.1 10.049-18.5c4.0078-7.8639 8.523-15.519 8.5303-14.462 .002,.2957-1.5967,4.3458-3.5528,9-23.458,55.815-26.615,66.926-30.581,107.65-1.934,19.857 1.7405,130.63 6.6281,199.81 3.5806,50.682 4.542,65.159 5.5453,83.5 .5867,10.725 1.5104,25.35 2.0527,32.5 .5424,7.15 1.2596,36.238 1.5938,64.64 .8136,69.136-1.1492,110.54-6.1832,130.44-4.0423,15.977-11.494,27.356-20.8,31.764-6.3997,3.0312-9.6493,3.0588-15.447,.1314zm13.662-49.259c5.0214-3.749 6.5852-6.9639 6.5852-13.538 0-7.3214-2.3678-11.437-8.1616-14.186-5.7267-2.7175-10.42-2.4282-14.8,.9122-7.079,5.3994-8.1088,13.234-2.8132,21.401 5.0236,7.7476 13.034,10.006 19.189,5.4111zm4.9307-70.662c.221-1.14-.1394-1.6208-1-1.3343-.74,.2464-1.501,1.2501-1.691,2.2303-.221,1.14 .1394,1.6208 1,1.3343 .74-.2464 1.501-1.2501 1.691-2.2303zm.16-8.11c0-.8575-.45-1.2809-1-.941s-1,1.0415-1,1.559c0,.5175 .45,.941 1,.941s1-.7016 1-1.559zm-10-10.44c0-.55-.7016-1-1.559-1-.8575,0-1.2809,.45-.941,1s1.0415,1 1.559,1c.5175,0 .941-.45 .941-1zm-5.5-2c-.3399-.55-1.293-1-2.118-1s-1.2219,.45-.882,1c.3399,.55 1.293,1 2.118,1s1.2219-.45 .882-1zm12.652-1.2479c1.6817,1.6817 6.8479-.5179 6.8479-2.9157 0-1.0824 .4521-2.8126 1.0046-3.845 .6922-1.2935 .6429-2.671-.1587-4.4302-.9565-2.0992-.8684-2.8789 .4954-4.3859 .9123-1.008 1.6587-2.3599 1.6587-3.0041 0-1.4363-3.6409-1.5614-4.5101-.1549-.3455,.559-1.0689,.7439-1.6076,.411-.5733-.3543-.6165-1.0868-.1041-1.7663 .9406-1.2474 .7738-8.7756-.3316-14.973-.4968-2.7853-1.0746-3.6608-2.1451-3.25-.8,.31-1.88,.56-2.38,.56-.51,0-.92,2.6-.92,5.78 0,4.5403-.4284,6.1445-2,7.4902-2.3616,2.0221-2.5614,4.4543-.5485,6.6784 1.2045,1.331 1.2697,2.8288 .3831,8.8028-1.228,8.274-.6817,11.199 1.7196,9.2058 1.0848-.9003 1.8414-.9594 2.5979-.2029zm-23.15-14.26c0-.8325 .4845-2.295 1.0767-3.25 1.6884-2.723-.393-7.228-3.0218-6.5405-2.4492,.6405-2.8101,4.3041-.4241,4.3041 1.3053,0 1.5175,.6986 1.0629,3.5-.3124,1.925-.1463,3.5 .3692,3.5s.9371-.6811 .9371-1.5136zm6-22.746c0-1.2427-.9174-2.8324-2.0388-3.5327-1.7041-1.0642-2.3053-1.0067-3.6622,.3502-1.3415,1.3415-1.3865,1.7699-.259,2.4667 .7504,.4638 1.7234,.6214 2.1622,.3502 .4388-.2712 .7978,.2085 .7978,1.066 0,.8575 .675,1.559 1.5,1.559 .8908,0 1.5-.9177 1.5-2.2594zm6.6433-11.253c.58-1.5-1.18-4.49-2.65-4.49-.4202,0-.9622,1.35-1.2044,3-.3544,2.415-.078,3 1.4179,3 1.022,0 2.1194-.6807 2.4387-1.5127zm17.05-2.2182c-.2535-.973-.4777-.419-.498,1.231-.0204,1.65 .1871,2.4461 .461,1.769 .2739-.677 .2906-2.027 .0371-3zm-31.69,1.29c0-.7925-.4029-1.69-.8952-1.9943-1.0294-.6362-2.2706,1.936-1.3692,2.8375 1.073,1.073 2.2644,.6294 2.2644-.8432zm31.417-13.202c.3468-.9037 .4249-1.8488 .1735-2.1001-.79-.8-2.59,.8-2.59,2.3 0,1.9615 1.6389,1.8244 2.4166-.2021zm-23.42-1.36c0-.55-.1984-1-.441-1s-.7191,.45-1.059,1c-.3399,.55-.1415,1 .441,1s1.059-.45 1.059-1zm2.4352-5.8952c.3043-.4924-.1836-1.178-1.0841-1.5235-1.9468-.7471-2.8089-.131-1.8922,1.3522 .8037,1.3004 2.2279,1.3824 2.9764,.1713zm23.32-8.6c.5876-3.85 1.0106-8.0427 .9401-9.3172-.1187-2.147-.2233-2.1871-1.423-.5463-.7122,.974-1.2378,3.3667-1.168,5.3172s-.1802,6.0213-.5555,9.0463c-.9831,7.9241 .8949,4.0939 2.2064-4.5zm-26.076-.6875c-.3192-.7977-.5562-.5608-.6042,.6042-.0434,1.0542 .1929,1.6448 .5252,1.3125 .3323-.3323 .3678-1.1948 .0789-1.9167zm7.3016-.0625c-.012-1.7567-.2167-1.9316-.934-.7977-.5053,.7987-.6968,1.8112-.4257,2.25 .8674,1.4034 1.3754,.8608 1.3597-1.4522zm18.408-16.332c.81-2.1 .77-2.42-.27-2.42-.4859,0-1.1187,.9-1.4064,2-.6176,2.3616 .8017,2.7143 1.6828,.4182zm.4478-9.4088c.3116-2.1338 .2044-2.1975-1.25-.7431-1.894,1.894-2.1066,4.0702-.3408,3.4887 .6875-.2264 1.4034-1.4619 1.5908-2.7456zm1.1868-26.061c1.7796-3.3252 .854-6.49-1.8145-6.2042-2.6292,.2815-3.978-2.1176-2.3163-4.1199 .9021-1.0869 .6313-1.2567-1.3881-.8707-2.2704,.434-2.5087,.9436-2.5087,5.363 0,3.7186 .3653,4.8834 1.5314,4.8834 .8423,0 1.7904,.675 2.107,1.5 .8211,2.1398 3.1023,1.8531 4.3892-.5516zm-4.9487-3.5318c.048-1.165 .2849-1.4019 .6042-.6042 .2889,.7219 .2533,1.5844-.0789,1.9167-.3323,.3323-.5686-.2583-.5252-1.3125zm-47.449,127.06c-.9242-2.4085 .4387-4.1065 1.6125-2.009 .6214,1.1104 .6194,2.0706-.006,2.6956-.6278,.6278-1.1956,.3852-1.6069-.6866zm1.37-28.36c0-.55 .45-1.2781 1-1.618 .55-.3399 1-.168 1,.382s-.45,1.2781-1,1.618c-.55,.3399-1,.168-1-.382zm12-33.045c0-3.1941 .5701-3.632 2.8484-2.1882 1.8143,1.1498 1.0575,4.5093-1.1099,4.9267-1.35,.25-1.74-.37-1.74-2.75zm-.3417-7.8089c-.3311-2.0704-.3386-4.7715-.0167-6.0023 .3219-1.2308-.1713-4.1286-1.096-6.4396-2.1679-5.4182-1.0561-16.874 1.4852-15.303 .491,.3034 .5634,1.5483 .1609,2.7663s-.4978,4.6896-.2118,7.7146c.4398,4.6515 .8285,5.5028 2.52,5.5184 2.1337,.0196 2.1499,.1726 .9232,8.7156-.9225,6.4245-2.96,8.0646-3.7649,3.0305zm-5.66-10.21c0-.5175 .45-1.2191 1-1.559 .55-.3399 1,.0835 1,.941 0,.8575-.45,1.559-1,1.559s-1-.4234-1-.941zm29.497-1.2309c-.7949-2.0405 1.2092-6.0927 2.7579-5.5764 1.9334,.6445 1.8811,2.359-.148,4.8469-1.7103,2.0969-2.0412,2.1894-2.6099,.7295zm-10.16-17.58c-.0187-3.1625-.374-7.7762-.7896-10.253-.6439-3.8373-.4542-4.7752 1.2837-6.348 3.4651-3.1358 4.1364-1.3203 3.6712,9.9283-.46,10.94-.8,12.42-2.88,12.42-.8555,0-1.2644-1.826-1.2877-5.75zm-7.34-2.19c0-.5175 .45-1.2191 1-1.559 .55-.3399 1,.0835 1,.941 0,.8575-.45,1.559-1,1.559s-1-.4234-1-.941zm6.5-20.06c-.3399-.55-.1415-1 .441-1s1.059,.45 1.059,1-.1984,1-.441,1-.7191-.45-1.059-1zm17.5-38c0-1.1 .45-2 1-2s1,.9 1,2-.45,2-1,2-1-.9-1-2zm50-365.65c0-1.5727 3.8841-9.1648 5.0607-9.892 .5915-.3656-.1343,1.7433-1.6129,4.6864-2.98,5.94-3.45,6.65-3.45,5.21zm8-17.236c0-.55 .45-1.2781 1-1.618 .55-.3399 1-.168 1,.382s-.45,1.2781-1,1.618c-.55,.3399-1,.168-1-.382zm5.03-9.61c0-.55 .4362-1.675 .9694-2.5s.9694-1.05 .9694-.5-.4362,1.675-.9694,2.5-.9694,1.05-.9694,.5zm2.9847-7.691c-.008-.93 .4347-1.9691 .9847-2.309 1.2656-.7822 1.2656,.5416 0,2.5-.8354,1.2927-.9715,1.2663-.9847-.191zm8.67-23.31c.3274-1.65 1.1901-4.35 1.9171-6l1.3217-3-.5954,3c-.3274,1.65-1.1901,4.35-1.9171,6l-1.3217,3 .5954-3zm-185.18-17.5c.3399-.55 .8165-1 1.059-1 .2425,0 .441,.45 .441,1s-.4766,1-1.059,1c-.5825,0-.7809-.45-.441-1zm-1.8333-6.6667c-.37-.36-.67-1.51-.67-2.55 0-1.0356-.637-3.1148-1.4156-4.6204-4.3919-8.493-6.1052-33.39-3.5416-51.466 5.3517-37.734 27.97-72.312 57.457-87.839 8.4508-4.4498 23.526-9.3599 33.335-10.857 10.072-1.5377 25.274-.0857 36.54,3.49 17.761,5.6369 34.565,18.197 32.895,24.586-.5345,2.0441 1.2914,2.74 1.9562,.7456 .4379-1.3136 2.7743-.2517 2.7743,1.2608 0,.5311-1.2375,1.4346-2.75,2.0076-1.5125,.573-3.7508,1.9793-4.9739,3.125-1.9319,1.8097-2.3036,1.8755-2.8308,.5016-.7849-2.0453-3.903-1.9165-9.1079,.3764-3.1922,1.4062-4.3181,2.5415-4.8295,4.8696-.78,3.482-2.1,3.936-3.02,1.03-.8646-2.7241-2.9337-2.5133-4.908,.5-.9009,1.375-2.4931,2.5-3.5381,2.5s-3.2047,1.3047-4.7993,2.8993c-2.7669,2.7669-2.9534,2.8126-4.0854,1-1.5143-2.4248-2.7607-2.3992-4.9012,.1007-.9419,1.1-2.2177,2-2.8352,2-1.94,0-4.43,3.55-4.43,6.33 0,2.11-.48,2.67-2.28,2.67-1.5544,0-3.0936,1.2601-4.8522,3.9722l-2.5756,3.9722-1.1728-2.5739c-.9664-2.1209-1.4324-2.3585-2.6478-1.3497-.81,.67-1.47,2.35-1.47,3.72 0,2.0366-.3829,2.394-2.0872,1.9484-1.5664-.4096-2.5021,.1835-3.75,2.377-.9146,1.6076-2.0003,2.9257-2.4128,2.9292-.4125,.003-.75,.8163-.75,1.8063 0,.99-.4154,2.2275-.923,2.75s-1.0702,2.2653-1.25,3.8729c-.4881,4.3632-2.827,4.5448-2.827,.2195 0-1.9384-.359-3.7462-.7978-4.0174-1.2358-.7638-2.9318,.6686-3.3398,2.8209-.2029,1.0702-1.8396,2.8048-3.6372,3.8546-2.6265,1.534-3.5585,1.6678-4.7467,.6817-1.2333-1.0235-1.4838-.8336-1.5103,1.1454-.0343,2.5563-2.0916,5.8724-3.6432,5.8724-.525,0-1.7137,1.5919-2.6415,3.5376-1.4012,2.9384-2.1512,3.4889-4.4283,3.25-2.3601-.2476-3.0883,.3676-5.2368,4.4241-1.5214,2.8726-3.2806,4.8242-4.5069,5-1.2092,.1733-2.139,1.1857-2.331,2.5383-.1757,1.2375-.891,2.25-1.5895,2.25-.6985,0-1.8317,1.233-2.5184,2.74-1.1467,2.5168-1.3521,2.5982-2.5208,1-1.6933-2.3158-2.3483-2.1935-2.7323,.51-.2054,1.446-1.1236,2.3642-2.5696,2.5696-1.5839,.225-2.287,1.0391-2.375,2.75-.158,3.0713-.2359,3.3518-1.8569,6.6804-1.4922,3.0642-2.79,3.5079-3.6565,1.25-2.1652-5.6425-5.6671,3.7652-6.2753,16.858-.0689,1.4836-.6025,1.7288-2.646,1.216-2.2692-.5695-2.7516-.1857-4.25,3.3814-1.698,4.0422-2.2907,4.6104-3.5236,3.3775z"/>
<path fill="#9a8866" d="m505.23,959c-8.7355-2.0052-17.688-12.389-21.74-25.216-2.6509-8.3916-3.1235-15.566-1.6636-25.255 .61-4.0486 .4971-8.8877-.3502-15-1.0773-7.7722-1.0483-9.1398 .2096-9.8638 1.2649-.728 1.2448-1.0788-.1497-2.6196-2.5469-2.8143-2.4598-12.409 .1387-15.265 16.527-109.72 22.404,19.431 41.795-5.7258 .3627-.5869 .3627-2.002 0-3.1448-.6593-2.0771-.6601-2.0771-2.7473,.1633-1.9989,2.1456-2.1173,2.1599-2.7795,.3367-.3804-1.0474-.2668-2.7209 .2525-3.7189 .7461-1.4341 1.2413-1.5679 2.3616-.6381 2.4242,2.0119 4.6901,.3544 3.9739-2.9067-.4256-1.9375-.002-3.9552 1.3135-6.2508 2.2252-3.8844 2.8074-7.4162 4.1485-25.166 .5309-7.0272 1.4712-13.722 2.0895-14.877 .6971-1.3026 .7617-2.3371 .1699-2.7233-1.2978-.8471-2.1878-6.0447-1.1453-6.6889 1.3609-.8411 3.0505-8.3627 2.3642-10.525-.4599-1.449-1.1784-1.8193-2.6338-1.3574-1.9595,.6219-1.984,.3667-1.1694-12.208 .772-11.917 1.0722-45.92 .5592-63.343-.1214-4.125-.2119-8.625-.2011-10 .1328-16.848-1.1159-53.964-1.985-59-.617-3.575-1.2624-8.975-1.4343-12-1.0368-18.25-1.9607-27.648-2.8236-28.722-1.3399-1.6675-1.6498-10.514-2.2071-62.993-.3189-30.03-.8739-46.654-1.6527-49.5-1.6284-5.951-1.9473-24.639-.8239-48.285 1.8061-38.017 5.6016-59.085 15.238-84.586 4.7487-12.566 16.96-34.95 18.322-33.587 .2432,.2432-2.2487,7.1316-5.5376,15.308-10.278,25.55-11.774,30.309-15.054,47.865-5.2032,27.853-6.1418,53.542-4.0594,111.1 1.2097,33.437 4.7677,107.08 5.4788,113.4 .6175,5.4872 4.7687,68.498 7.4776,113.5 2.9599,49.173 3.6648,116.39 1.6256,155-1.7297,32.752-3.2831,45.173-7.2106,57.657-5.6063,17.82-18.692,29.468-30.15,26.838zm5.937-47.88c8.4541-3.6782 12.305-10.234 11.152-18.984-.7875-5.9739-3.2813-9.4499-8.6413-12.045-5.8632-2.8383-10.237-2.6632-14.943,.5984-9.0443,6.2677-9.0877,16.384-.1128,26.318 3.155,3.4922 4.7924,4.6998 8.0458,5.934 .0919,.0349 2.1169-.7849 4.5-1.8218zm-3.14-49.12c1.1502,0 1.8131-.45 1.4732-1-.3399-.55-1.4433-1-2.452-1-1.8984,0-3.0946,1.9366-2.9846,4.8318 .0449,1.1807 .3277,1.0106 .9678-.5818 .5337-1.3278 1.7616-2.25 2.9956-2.25zm-28.03-2.94c0-.5175 .45-1.2191 1-1.559 .55-.3399 1,.0835 1,.941 0,.8575-.45,1.559-1,1.559s-1-.4234-1-.941zm-77-670.31c-2.12-4.97-4-16.33-4-24.13 0-8.7056 2.2086-27.38 4.0358-34.124 9.4163-34.756 29.759-61.888 56.464-75.311 3.3-1.6587 10.725-4.5172 16.5-6.3522 10.099-3.2089 11.092-3.3334 26-3.2609 13.985,.0681 16.29,.3361 23.585,2.7413 11.538,3.8047 23.032,10.248 27.873,15.625 2.3742,2.6373 1.0047,5.6996-2.3768,5.3148-1.4997-.1707-2.4297,.5298-3.1224,2.3517-.6184,1.6266-1.5137,2.3924-2.3995,2.0525-.7771-.2982-1.951,.106-2.6085,.8983-.65,.794-1.78,1.442-2.51,1.442-.7303,0-1.7866,.7875-2.3472,1.75-.5657,.9712-1.0328,1.1937-1.0497,.5-.0676-2.7788-3.721-1.122-5.4304,2.4627l-1.7705,3.7127-1.877-2.4627-1.877-2.4627-1.6278,2.2977c-1.2785,1.8046-1.9256,2.0505-3.0155,1.146-1.1035-.9158-2.6478-.0113-7.5405,4.4163-3.3841,3.0624-6.7887,6.4758-7.5658,7.5853-1.199,1.7118-1.7159,1.8308-3.4136,.786-1.6951-1.0432-2.2613-.917-3.7064,.8262-.9381,1.1316-2.9432,2.5844-4.4557,3.2286-1.5125,.6441-2.75,1.6783-2.75,2.2982 0,.6199-1.0125,2.3459-2.25,3.8355s-3.1141,3.8768-4.1702,5.3049c-1.6016,2.1658-2.3206,2.4443-4.3339,1.6788-3.07-1.16-4.25-.42-4.25,2.68 0,1.672-.7608,2.755-2.3636,3.3644-1.3,.4942-2.6553,1.6588-3.0118,2.5879-.5173,1.348-.94,1.4471-2.0926,.4905-1.9861-1.6483-2.8463-.8905-5.6193,4.9504-1.4267,3.005-2.9011,4.8578-3.6401,4.5742-.6832-.2621-1.7264,.4282-2.3182,1.5342-.6522,1.2186-1.7416,1.8168-2.7652,1.5184-1.2636-.3684-2.4381,1.0125-4.6623,5.4818-2.8866,5.8003-3.0188,5.9138-4.5383,3.8994-1.68-2.22-2.99-1.74-2.99,1.12 0,2.6491-2.9221,5.2143-4.4733,3.927-1.449-1.2026-2.8672,.1246-3.9667,3.712-.3766,1.2288-2.6817,3.8705-5.1224,5.8705s-4.4376,4.2046-4.4376,4.8992c0,1.2429-3.4348,2.8289-5.6137,2.5921-.6522-.0709-.9239,.8717-.6558,2.2743 .2518,1.3174-.0345,2.6996-.6363,3.0716-.6018,.3719-1.0942,2.0293-1.0942,3.683s-.5236,3.9896-1.1635,5.191c-1.2762,2.3959-9.873,10.657-11.108,10.674-.4243,.006-1.2024-1.0018-1.7291-2.2393z"/>
<path fill="#8a7453" d="m500.93,957.02c-6.7186-3.5518-15.885-16.42-15.917-22.344-.0144-2.6837 4.8733-10.551 7.3486-11.829 1.1779-.608 3.1194-2.2853 4.3146-3.7272 2.0819-2.5117 2.2037-2.5378 2.9052-.6216 1.3718,3.747 2.4662,4.5466 4.6341,3.3864 1.4314-.7661 2.3139-.7601 3.095,.021 1.973,1.973 4.4124,1.1488 7.1248-2.4074 1.6718-2.1919 3.5198-3.5 4.9444-3.5 6.7347,0 12.417-17.489 8.1234-25-2.1197-3.7081-1.8731-10.256 .5-13.273 2.3447-2.9808 2.5804-5.5672 .5773-6.3358-2.2529-.8645-2.6418-3.1647-1.1257-6.659 2.7524-6.3439 2.9614-7.3232 3.1434-14.732 .1014-4.125 .6572-9.75 1.235-12.5 .5779-2.75 1.0775-7.6033 1.1103-10.785 .0328-3.1818 .6923-6.7818 1.4656-8 1.2623-1.9884 3.4275-21.656 2.6659-24.215-.1637-.55-.7373-7.75-1.2746-16-.5373-8.25-1.1604-17.475-1.3846-20.5-.2242-3.025-.5568-12.7-.7392-21.5-1.3201-63.684-1.9266-84.001-2.7167-91-.4967-4.4-1.149-12.05-1.4495-17-.9101-14.988-3.4706-43.621-4.4713-50-.5177-3.3-.9469-11.85-.9538-19-.0369-38.385-1.0676-78.792-2.181-85.5-1.8544-11.173-1.6501-49.522 .3543-66.5 3.1271-26.488 8.6768-47.959 16.842-65.161 4.1139-8.6664 9.9658-18.609 10.587-17.988 .2051,.2051-2.5354,7.7473-6.0899,16.761-9.1508,23.204-12.603,37.872-16.096,68.388-1.2942,11.308-1.4918,20.345-1.0279,47 1.0681,61.361 2.5162,91.917 9.0046,190 5.7722,87.257 6.5047,103.16 7.1368,155 .8413,68.996-1.4126,109.54-7.1952,129.43-5.9973,20.63-21.969,32.712-34.491,26.092zm-15.59-39.587c-.8208-2.1389 .3161-11.049 1.6832-13.192 .9095-1.4253 1.0154-1.1571 .5792,1.4671-.5469,3.2897 1.0229,5.518 2.3614,3.3522 .8044-1.3015 .4911-4.3383-1.0986-10.647-.7266-2.8837-.6993-5.3078 .093-8.25 1.5369-5.7076 2.6612-5.2269 2.5977,1.1106-.0312,3.1092 .7133,6.9784 1.8122,9.4183 1.8555,4.12 1.8539,4.1532-.3118,6.4729-1.6977,1.8185-2.0401,3.0637-1.5555,5.6575 .7021,3.7579-.727,6.1742-3.6515,6.1742-1.0499,0-2.1791-.7039-2.5092-1.5643zm10.66-37.25c0-1.2086 1.8972-2.6176 2.5907-1.9241 .2517,.2517-.2282,1.0269-1.0665,1.7226-.95,.79-1.52,.86-1.52,.2zm-94.43-703.75c-1.9044-1.9044-2.1741-18.107-.5236-31.455 3.7819-30.583 20.173-61.036 42.303-78.594 10.369-8.2266 16.685-11.66 29.149-15.843 14.622-4.908 24.463-6.1196 36.866-4.5389 16.606,2.1162 33.473,8.5949 32.832,12.611-.1659,1.0403-.4047,3.3302-.5307,5.0888-.256,3.5741-1.6237,5.7034-1.7466,2.7193-.0434-1.0542-.3037-1.3609-.5784-.6815-.3804,.9407-1.2412,.8515-3.6114-.3741-2.9369-1.5187-3.2008-1.4995-4.6916,.3415-.8688,1.0729-2.0535,1.7928-2.6327,1.5998-.5792-.1931-1.8774,.5599-2.885,1.6733-1,1.109-2.41,2.02-3.14,2.02-.7233,0-2.3304,1.3732-3.5712,3.0516-1.7212,2.328-2.7925,2.917-4.5179,2.484-1.2439-.3122-3.2796-.0405-4.5238,.6038-1.2441,.6443-2.9371,1.4686-3.7621,1.8318-.825,.3632-2.175,2.0835-3,3.8229-1.0211,2.1528-2.2184,3.1695-3.75,3.1843-1.23,.012-2.24,.472-2.24,1.022s-.6139,1-1.3641,1c-.7503,0-2.1635,2.1375-3.1405,4.75-1.9348,5.1737-3.2573,7.25-4.6178,7.25-.49,0-.88-.723-.88-1.607 0-1.0545-.5438-1.3983-1.5818-1-.87,.334-2.17,.607-2.88,.607-.7108,0-3.0898,2.9509-5.2865,6.5576-3.2781,5.382-4.0905,6.1888-4.5322,4.5-.7103-2.7162-2.5557-2.619-3.6532,.1924-1.531,3.9218-11.649,12.127-15.06,12.213-.9761,.0245-1.787,1.6707-2.3582,4.7873-.7572,4.132-1.1881,4.75-3.3119,4.75-3.6383,0-8.0081,2.6144-8.6829,5.195-.5869,2.2442-.6149,2.2482-2.0653,.2901-1.466-1.9793-1.4748-1.9792-2.999,.0149-.8408,1.1-2.2225,3.4263-3.0706,5.1696-.8481,1.7433-1.9181,3.3183-2.3779,3.5-.4598,.1817-1.4726,1.6767-2.2508,3.3222-.8489,1.7951-2.411,3.1951-3.9053,3.5-3.2236,.6577-6.9904,3.9784-6.9904,6.1623 0,.9403-1.2988,2.6345-2.8863,3.7649-1.8824,1.3404-3.1221,3.3121-3.5642,5.6688-.92,4.91-3.65,10.41-5.16,10.41-.6839,0-1.9505-.7071-2.8148-1.5714zm142.56-111.77c-1.6679-2.0098-.2198-4.9501 1.8178-3.6908 1.0562,.6528 1.1715,1.4409 .4478,3.0627-.8657,1.94-1.1185,2.0101-2.2656,.628z"/>
<path fill="#766447" d="m503.2,958c-4.1737-1.772-9.0952-6.1273-12.171-10.771-2.8182-4.2546-4.1435-9.0392-2.1652-7.8166 .4765,.2945 1.685-.3691 2.6855-1.4747 1.8129-2.0033 1.8269-2.0006 4.0639,.7736 1.9693,2.4422 2.497,2.6304 4.3009,1.5338 2.5704-1.5626 7.3132-1.6201 8.8262-.1071 .8572,.8572 1.8446-.3301 3.95-4.75 2.4813-5.209 3.1122-5.8574 5.4365-5.5872 7.3492,.8546 12.089-12.396 13.345-37.306 1.0623-21.07 1.3159-24.347 2.5151-32.5 1.3805-9.3866 3.0526-28.391 3.6514-41.5 .7431-16.268 2.0655-17.054 3.152-1.8733 1.6698,23.331-.0331,81.724-2.9419,100.87-2.6828,17.662-9.7263,31.644-18.91,37.537-5.3485,3.4322-11.786,4.6458-15.739,2.9674zm35.34-188.93c-.3164-.512-.118-1.2136 .441-1.559 .559-.3455 1.0163,.0734 1.0163,.9309 0,1.7565-.6001,2.0152-1.4573,.6281zm-.5123-14.619c.0267-2.5861 .1628-2.7222 1.1036-1.1036 .7692,1.3233 .7605,2.159-.0304,2.95-.8048,.8048-1.0954,.3049-1.0732-1.8464zm-1.1347-18.2c-.0574-3.1625-.1698-8.7874-.25-12.5-.0801-3.7123 .1918-6.7498 .6043-6.75 .4125-.0002 .7714,1.0122 .7975,2.2497 .0261,1.2375 .2924,6.8625 .5917,12.5 .3755,7.0731 .2059,10.25-.5475,10.25-.6503,0-1.1339-2.3249-1.196-5.75zm-1.2383-30.75c-.3946-5.5-.9548-12.925-1.2448-16.5-.7599-9.3666-.7517-9.1298-.4678-13.5l.2599-4 1.0429,3.5c.5736,1.925 1.315,10.475 1.6476,19 .7128,18.27-.1662,26.436-1.2378,11.5zm-5.99-104.17c-1.05-1.04-.78-5.33 .33-5.33 .55,0 1,1.35 1,3 0,3.1069-.2036,3.4631-1.3333,2.3333zm-6.01-143.14c-1.05-4.12-1.15-25.3-.21-43.19 1.4499-27.569 8.8742-57.913 19.114-78.119 4.5182-8.9162 3.8104-4.4234-1.3874,8.8064-7.131,18.151-10.326,31.845-14.305,61.313-.6313,4.675-1.4223,18.85-1.7578,31.5-.4115,15.517-.8841,21.923-1.4526,19.69zm-121.44-290.94c-1.1492-2.7986-.6384-24.185 .7345-30.75 6.5875-31.503 24.002-58.949 47.198-74.386 10.085-6.7117 20.42-11.091 33.641-14.256 11.955-2.8615 27.432-2.2677 38.11,1.4621 4.0716,1.4222 7.8651,3.0479 8.4298,3.6127 1.27,1.284-1.05,6.08-2.94,6.08-.7009,0-1.9875,1.0125-2.8592,2.25-1.3372,1.8983-1.7303,2.0169-2.5151,.7584-.7408-1.188-1.183-1.2389-2.1718-.25-.68,.683-1.98,1.242-2.89,1.242-.9048,0-2.4595,.9-3.455,2-.9955,1.1-2.6643,2-3.7084,2-2.2705,0-8.7915,4.9876-8.7916,6.7243 0,1.35-5.05,4.276-7.38,4.276-1.7161,0-9.3491,7.6792-10.188,10.25-.3142,.9625-1.1614,1.75-1.8826,1.75-1.1826,0-2.1784,1.8458-3.972,7.3626-.4953,1.5235-.8766,1.6377-2.0937,.6276-.81-.68-1.48-1.926-1.48-2.769 0-1.7133-3.9665,2.4071-6.7655,7.028-.9162,1.5125-2.4136,2.75-3.3277,2.75-.9141,0-2.2222,.675-2.9068,1.5-.6847,.825-2.3209,1.5-3.636,1.5-1.9233,0-2.8776,1.0635-4.8776,5.4359-1.3675,2.9898-2.4864,6.2095-2.4864,7.155 0,1.6021-.1245,1.6064-1.8287,.0641-2.4211-2.1911-3.8986-2.0894-4.6636,.3209-.3449,1.0868-2.8768,3.2242-5.6264,4.75-3.6444,2.0223-5.1536,3.5242-5.5688,5.5418-.4677,2.2728-1.0384,2.7198-3.191,2.5-2.0574-.2101-2.6902,.2165-2.941,1.9823-.1757,1.2375-.89,2.25-1.5872,2.25-2.1294,0-9.622,7.7614-9.0163,9.3398 .3546,.9239-1.0975,2.6279-4.0404,4.7413-4.3282,3.1083-5.7229,5.4331-5.3506,8.9188 .2617,2.4496-1.3634,8-2.3423,8-.4985,0-1.2298-.7875-1.625-1.75z"/>
<path fill="#685439" d="m505.17,957.98c-4.1279-.9457-10.045-5.6291-12.581-9.9573-1.8817-3.2121-1.8817-3.2533 0-2.6663 1.0512,.328 5.1359,1.0493 9.077,1.603 5.834,.8196 7.6924,.732 10-.4716 1.5589-.813 3.5093-1.4892 4.3343-1.5025 2.1729-.035 7.4431-6.7819 9.7894-12.532 5.2611-12.894 6.9252-21.119 8.1849-40.456 .9799-15.041 3.1113-31 4.1403-31 1.2786,0 1.3828,2.5802 .8075,20-.6928,20.977-2.5115,40.362-4.5333,48.317-3.1135,12.252-9.2391,21.805-16.712,26.065-5.1719,2.9482-8.2204,3.582-12.507,2.6zm-100.53-814.5c-1.7955-1.3129-1.801-1.6382-.156-9.1682 5.0508-23.12 14.953-42.188 30.429-58.593 6.8261-7.236 10.614-10.204 21.276-16.671 7.9288-4.8094 24.559-10.561 34.212-11.832 8.2778-1.0902 23.853,.1597 29.05,2.3314 3.8298,1.6002 4.2986,3.6887 .9704,4.3235-1.0544,.2011-2.2632,.8761-2.6861,1.5-.5379,.7935-1.172,.6084-2.1102-.6157-1.806-2.3564-2.6177-2.2024-2.6361,.5-.0226,3.3158-1.5036,5.1486-3.5316,4.3704-1.2855-.4933-3.0317,.7266-6.5909,4.6043-2.66,2.898-4.57,4.484-4.24,3.522 .43-1.259 .06-1.75-1.29-1.75-2.08,0-6.33,2.641-6.33,3.931 0,.4497-1.6265,2.5617-3.6144,4.6933s-4.2311,5.3074-4.9848,7.0573c-1.82,4.216-3.4,5.091-3.4,1.877 0-3.353-2.73-3.393-4-.059-.52,1.375-1.64,2.5-2.48,2.5-.83,0-1.52,.519-1.52,1.154 0,.6347-1.8118,2.7049-4.0262,4.6004s-4.6699,4.691-5.4566,6.2122c-.9109,1.7616-2.526,2.9851-4.4477,3.3694-2.2457,.4491-3.3947,1.5064-4.4924,4.1337-1.0186,2.4379-2.1194,3.5302-3.5574,3.5302-1.1453,0-2.3244,.6307-2.6202,1.4015-.2958,.7708-1.2942,1.678-2.2186,2.016-3.0461,1.1137-6.3059,3.3078-9.5164,6.4055-1.7404,1.6793-4.5246,4.3186-6.187,5.8651-1.6624,1.5466-3.6874,3.7635-4.5,4.9266-2.2474,3.2169-13.972,12.724-14.742,11.954-.3726-.3726-.0192-1.0842 .7853-1.5814 1.1436-.7068 1.199-1.1677 .2538-2.1128-1.3258-1.3258-1.965-.3684-2.5704,3.8498-.4385,3.0554-.9139,3.3267-3.0687,1.7511z"/>
<path fill="#58462e" d="m501.5,956.13c-1.65-1.0248-4.0909-3.0481-5.4243-4.4963l-2.43-2.63 2.4243,.0435c1.3334,.024 4.3516,.4162 6.7072,.8718 11.428,2.2098 19.166-3.4156 25.677-18.665 2.1722-5.0875 4.3073-9.25 4.7446-9.25 2.6602,0-2.6563,17.457-7.5436,24.77-6.4769,9.6914-17.039,13.783-24.161,9.3595zm-89.05-836.56c.0421-4.3164 .4247-5.4702 2.0517-6.187 1.5091-.6649 1.9252-1.6622 1.6951-4.0628-.3597-3.7538 3.0165-10.909 6.4052-13.575 1.2934-1.0174 2.8916-3.6522 3.5516-5.8551 .66-2.2029 1.9769-4.4211 2.9263-4.9292 .9495-.5081 3.4346-3.2941 5.5225-6.191 4.0667-5.6425 9.2097-10.66 10.994-10.726 .6023-.0224 1.9523-.9946 3-2.1604 8.2186-9.1453 38.227-20.007 50.899-18.424 3.0281,.3783 5.5057,1.1485 5.5057,1.7116 0,.563-.949,2.3564-2.1089,3.9853-1.5828,2.2229-2.7677,2.885-4.75,2.6544-2.3252-.2705-2.6186,.0217-2.4528,2.4427 .1355,1.9788-.2852,2.7582-1.5,2.7793-2.248,.039-7.6652,5.0585-9.6946,8.9829-1.1273,2.1799-2.117,2.9626-3.2139,2.5417-.8718-.3345-3.0217-.1341-4.7776,.4454-2.9772,.9826-4.4531,2.8163-5.9208,7.3568-.4387,1.3572-1.2208,1.7003-2.9098,1.2763-1.9495-.4893-2.5793,.0309-4.0366,3.334-1.4094,3.1946-2.3013,3.9707-4.8538,4.2237-2.6941,.267-3.3224,.8986-4.5381,4.562-1.0842,3.2673-2.0284,4.3867-4.077,4.8335-4.7074,1.0268-4.9662,1.2284-5.666,4.4144-.7764,3.5351-2.8311,4.8-4.9458,3.045-1.1226-.9317-1.8536-.7455-3.4873,.8881-1.14,1.13-2.07,2.96-2.07,4.06 0,2.2276-1.9598,2.6402-3.8,.8-.9333-.9333-1.2-.7111-1.2,1 0,1.5333-.6061,2.2-2,2.2-1.1,0-2,.589-2,1.3089 0,.7199-.5975,2.126-1.3277,3.1246-1.2308,1.6832-1.4996,1.533-3.683-2.0589-1.9721-3.2441-2.418-3.5492-2.7402-1.8746-.508,2.6398-3.0976,8.2884-4.0775,8.894-.4262,.2634-.7517-1.9087-.7232-4.8269z"/>
</g>
</svg>
