<svg xmlns="http://www.w3.org/2000/svg" viewBox="0 0 263.684 271.696" xmlns:xlink="http://www.w3.org/1999/xlink" enable-background="new 0 0 263.684 271.696">
<g fill-rule="evenodd">
<path d="m159.06,24.09c-6.107-5.596-9.423-13.925-18.933-15.536-1.776-.301-3.318,.742-5.342-.485 9.364-3.204 14.33,2.884 18.936,7.768 1.8,1.922 4.23,5.457 5.33,8.253z"/>
<path d="m132.84,8.554c-5.84,3.866-10.11,9.302-14.56,14.566 .693-3.973 5.69-9.793 9.709-13.108 .92-.762 2.78-1.342 4.85-1.458z"/>
<path d="m139.15,22.148c.564-.079 .865,.107 .972,.485 .21,3.837 .737,7.355 .486,11.652 .236,2.286-.875,1.174-.486-.486v-3.399c-.44-2.629-.7-5.439-.97-8.252z"/>
<path d="m140.12,38.169c.405,.068 1.468,5.78 .486,7.282-1.12-1.469-.17-5.007-.49-7.282z"/>
<path d="m147.89,76.038c1.323,.826 .403,4.54 .972,7.283-.568,.078-.41,.885-.485,1.457-1.12-1.952-.17-5.983-.49-8.74z"/>
<path d="m63.417,98.37c2.038,.551 3.146,2.033 4.855,2.913-1.327,.66-4.373-1.11-4.855-2.91z"/>
<path d="m158.09,155.17c.784-1.219 2.337,.863 3.4,.97-1.08,1.52-2.25-.95-3.4-.97z"/>
<path d="m7.1,185.76c.638,.17 .764,.854 1.457,.973-1.455,6.835-2.13,14.049 .971,19.904 3.875,7.315 11.37,9.631 19.905,12.138-1.348,1.847-5.876,.352-8.252-.486-2.563-.904-4.806-2.892-7.283-2.914-4.973-3.562-8.834-9.403-8.74-19.419 .034-3.55 1.278-7.21 1.942-10.19z"/>
<path d="m138.67,207.61c.699,.109 .17,1.448 .972,1.456-.074,1.126 .093,3.999 0,6.312-.064,1.634-.02,5.364-.485,2.429 .35-3.93-.79-6.34-.49-10.2z"/>
<path d="m138.67,224.11c1.023,.396 1.334,2.558 .486,3.397-1.09-.21-.2-2.39-.49-3.4z"/>
<path d="m177.99,70.698c2.669-.196 4.52-2.491 6.798-3.885 6.281-3.845 16.447-7.441 26.7-7.768 18.502-.588 29.921,10.218 39.812,18.449-1.049,14.888-.041,29.177-7.283,40.295-1.612,2.476-4.639,4.77-6.796,7.283-5.3,6.175-9.794,9.992-17.963,13.594 5.367,4.02 10.895,7.88 16.505,11.653 6.151,6.785 14.836,16.744 20.877,25.729 3.064,4.557 4.88,8.99 6.312,14.566 2.543,9.884-1.883,20.944-8.251,27.673-12.489,6.725-28.816,7.562-45.638,5.826-12.706-1.312-23.113-8.485-32.528-11.653 .983,11.801-2.13,23.968-6.312,33.014-4.113,8.897-13.314,18.588-23.789,23.305-2.941,1.326-7.453,2.993-8.739,2.914-1.981-.125-4.052-2.588-6.797-3.884-2.531-1.199-5.125-1.51-6.796-2.43-15.559-8.56-29.593-32.268-24.275-60.201-4.274,.716-6.975,4.799-10.681,7.282-10.478,7.028-26.987,11.86-43.208,13.109-11.167,.86-21.096-1.67-29.616-4.37-3.427-1.087-7.836-1.871-10.195-3.397-9.089-5.888-6.444-20.285-2.427-32.043 6.419-18.786 17.099-29.474 31.557-40.781 3.017-2.359 7.5-4.915 11.167-6.796 .061-2.386-2.519-3.604-3.885-4.856-8.639-7.94-16.4-22.06-16.492-39.32-.032-5.942 .683-11.234-.971-16.992 1.851-3.046 5.886-3.159 9.225-4.854 3.147-1.6 5.07-4.112 9.223-5.341 2.568-.759 6.052-1.144 9.225-1.942 5.827-1.464 10.351-2.721 17.964-1.942 9.882,1.013 17.991,6.15 25.731,9.71 2.636-7.846 1.694-16.386 3.884-24.274 1.91-6.881 6.795-14.616 10.195-20.877 4.044-7.447 8.658-12.467 14.079-18.934 2.69-3.21 5.575-7.399 10.681-8.253 11.721-1.961 17.163,6.042 22.335,13.108 10.96,15.002 20.12,32.209 20.37,57.289zm5.83,52.922c-10.02,4.868-20.688,9.087-29.128,15.536 13.21-2.814 26.982,1.788 38.354,2.428 11.28,.633 20.944-2.571 29.131-7.282 18.552-10.679 28.842-25.632 25.729-55.347-7.155-6.217-14.425-15.177-26.215-16.992-7.546-1.161-15.846-.541-21.849,.971-6.936,1.748-12.132,4.897-16.507,8.253-9.741,7.476-18.592,19.914-22.331,32.528-5.377,8.381-9.099,18.413-14.565,26.702 8.074-3.362 14.803-9.613 21.361-14.079 2.347-1.598 4.622-3.578 7.281-3.884-4.793,4.136-9.656,8.403-15.049,12.137-5.386,3.729-11.695,6.687-16.021,11.652 3.805,.049 6.657-2.913 9.71-4.855 3.204-2.038 6.752-3.986 10.195-5.827 6.93-3.703 13.36-8.612 20.877-11.166-5.708,4.875-12.671,8.793-19.419,12.623-6.891,3.908-14.177,7.558-19.421,13.107 3.119-.489 5.77-2.789 8.739-4.368 9.437-5.021 19.642-9.99 29.614-12.138h-.47zm-35.44-.98c3.152-5.069 5.478-10.443 8.253-16.021 1.97-3.959 3.43-8.173 5.34-12.138 3.762-7.805 8.341-14.705 13.594-20.875 .379-11.372-1.531-18.729-3.884-27.674-1.486-5.656-3.566-11.305-5.826-16.021-5.217-10.891-14.101-23.029-23.788-28.158-10.164-.759-14.981,6.091-19.42,11.166-12.704,14.525-22.899,36.384-23.304,61.172 6.513,5.523 13.151,9.76 18.449,16.507 5.546,7.062 7.766,15.01 10.68,24.275 .79,2.512 1.348,5.927 3.885,7.768 .424-9.645-2.636-21.64-3.399-33.013-.425-6.354 .196-12.974 0-18.934-.103-3.117-1.332-6.228 .485-8.739 .973,16.297 .671,34.333 4.856,48.549 .78-1.965 .845-4.047 1.455-6.312 .486-1.802 1.626-3.531 1.942-5.339 .913-5.219 .166-11.368 .486-16.993 .422-7.428 1.738-14.448 2.428-20.876 .213,13.322-.538,25.678-.973,38.354 .807,1.591 1.838,1.623 2.429,3.884 .835,3.201-1.058,8.371 1.455,10.195 2.45-8.393 1.62-20.066 4.856-27.672 .924,14.383-4.394,26.586-3.398,40.781 2.4,.35 2.58-2.57 3.4-3.89zm-36.9-4.85c6.74,4.725 12.659,10.949 20.392,14.565 2.104-5.125-2.647-8.884-4.37-13.594-1.76-4.816-2.306-9.836-4.369-14.565-3.729-8.545-10.353-17.039-16.992-22.333-2.969-2.366-7.781-4.912-12.138-7.282-7.986-4.343-17.324-10.314-29.615-9.225-12.136,1.076-23.699,4.71-32.043,10.681-.637,1.305-3.751,.132-3.884,1.942 .772,5.067-.537,12.078 0,18.449 1.002,11.853 5.515,22.279 11.167,29.616 6.13,7.956 13.526,14.141 23.304,18.448 20.221,8.909 40.977,.475 62.629-2.912-2.26-2.998-6.632-4.373-10.196-5.826-4.047-1.648-8.479-2.617-12.622-3.884-4.129-1.264-7.793-3.308-11.652-4.855-3.92-1.571-8.851-1.669-11.167-5.341 12.563,4.472 26.301,9.08 37.869,13.594 4.167,1.626 8.296,3.584 12.623,3.884-1.364-2.546-4.504-3.082-6.797-4.37-11.763-6.606-24.587-13.403-34.955-20.391 15.513,6.495 28.625,15.393 43.694,22.333 .407-2.669-2.92-2.899-4.37-3.884-1.884-1.279-3.486-3-5.341-4.37-10.806-7.969-22.506-15.905-32.042-24.76 6.991,4.86 13.982,9.25 20.882,14.08zm25.25,.97c-.355,4.169-2.999,9.575-.973,15.05-.025-.835 .376-1.245 .973-1.456 .055,1.724-.352,3.911 1.456,3.884 2.436-.209 2.22-2.619 4.369-1.942 1.476-8.985-1.74-16.869-2.428-25.246-.261-3.18 .139-4.958-1.941-5.827-1.94,5.13-1.01,10.27-1.46,15.55zm5.34,21.36c-.737,1.367-2.3,1.909-1.942,4.37 3.307-.549 3.192-3.773 3.397-6.31-.572-.237-1.1-.518-1.455-.972-1.915-.135-1.484,2.074-3.4,1.941-1.209-.406-1.02-2.214-2.912-1.941-.87,2.7 4.67,2.27 6.3,2.91zm-45.639,10.2c-10.149,1.596-22.194,.73-30.101-1.944-.617-.207-.762-1.122-1.457-1.456-2.646-1.27-6.15-1.551-7.768-2.428-2.062-1.116-5.072-5.821-8.253-4.37-5.188,2.371-8.428,4.401-13.108,7.768-2.78,2.004-5.908,3.572-8.253,5.828-10.674,10.269-20.664,25.568-24.274,38.838-3.052,11.217-1.044,21.515 7.769,25.247 2.376,1.007 6.503,1.536 10.195,2.428 14.802,3.565 34.132,2.364 47.577-1.456 4.553-1.294 9.012-3.833 12.138-5.342 1.66-.8 3.63-.763 4.855-1.456 2.035-1.149 4.463-3.625 6.797-5.34 2.607-1.916 5.735-3.604 7.282-5.342 2.054-2.307 2.598-5.97 3.884-8.739 2.892-6.223 6.628-11.995 10.681-16.991 5.481-6.756 12.352-12.163 15.536-21.847-19.859,10.241-34.133,26.068-55.346,34.954 8.153-6.089 17.929-12.113 25.731-17.961 2.874-2.157 7.037-3.82 7.282-6.8-3.392-2.742-7.322,.33-10.195,1.944-9.614,5.396-19.96,10.991-31.071,14.079 7.295-5.131 16.637-8.327 24.274-12.138 2.795-1.396 5.03-3.109 7.768-4.855 4.346-2.771 9.392-4.508 11.167-9.224-20.022,6.031-39.936,12.173-58.745,19.419 13.834-8.341 30.182-13.022 46.607-17.963 5.659-1.703 11.042-4.376 16.992-4.854 1.002-2.236 4.212-2.263 4.37-5.342-8.09,.89-14.33,4.07-22.329,5.33zm42.719-3.4c1.29-1.764-1.12-3.185-.97-5.34-1.377-.083-2.023-.889-3.4-.972 2.04,1.53 1.43,5.69 4.37,6.31zm28.65,16.51c2.781,5.149 13.84,8.812 16.021,14.564-8.253-5.989-17.596-10.887-24.274-18.449-4.944-.719-7.353-3.975-12.138-4.855 7.771,19.903 25.608,29.741 28.645,54.375 13.69,7.266 30.221,15.5 50.978,12.623 .871-1.161-.846-3.429 1.456-3.883 6.254,.146 12.791,.059 17.479-3.398 3.12-2.302 9.054-11.738 10.193-15.051 2.767-8.026-2.917-13.687-2.911-20.875 1.414,.197 1.939,1.752 2.428,2.912 1.294,3.087 2.69,8.583 2.914,11.651 .227,3.164-.431,7.749-1.944,10.681-.64,1.239-2.532,2.091-3.397,3.4-1.06,1.598-1.108,3.716-1.942,4.854-4.759,6.497-13.293,6.819-19.421,9.709 9.969-.229 17.412-2.98 23.305-7.281 3.219-5.863 7.983-12.878 6.312-23.305-.601-3.743-3.026-6.478-4.855-9.709-3.828-6.772-8.084-13.395-12.623-18.934-1.462-1.789-3.789-3.164-5.34-4.855-1.97-2.153-3.159-4.392-4.854-5.828-3.635-3.073-14.575-11.032-19.905-11.165-2.26-.056-4.453,1.481-6.798,1.942-13.811,2.718-29.937-2.644-44.182-1.456-3.332,.276-7.386-.438-10.679,1.456 9.699,6.609 23.062,11.534 33.983,16.507 3.667,1.669 8.358,2.558 10.196,5.825-9.681-2.941-17.586-7.66-27.187-10.679 3.979,7.376 12.247,9.95 19.419,14.077 4.18,2.406 8.044,4.964 10.679,7.768-10.98-3.77-17.66-13.28-31.57-12.62zm-50.98-12.14c-1.333,1.179-3.898,2.144-3.884,4.37 3.796-1.259 6.348-4.521 9.225-6.798 3.055-2.418 6.519-3.945 9.225-6.796-6.9,.92-10.7,5.82-14.56,9.23zm16.02-8.25c-7.515,4.946-14.4,10.521-21.362,16.021-1.276,.144-.382-1.883-1.942-1.456-.37,1.41-2.3,1.259-1.942,3.397 6.722,1.023 11.43-4.081 16.021-6.795 .044-1.326-.808-.979 0-1.944 4.07-2.24 8.807-3.816 11.165-7.768-.93-.2-.38-1.88-1.94-1.45zm14.08,5.82c-1.209,.346-1.995-2.138-2.912-.486 5.089,4.698 13.024,8.882 20.877,9.226 .367,1.572 1.9,1.981 3.884,1.941 1.213,.892 1.559,2.649 3.397,2.914 1.699-1.806-1.007-2.378-1.941-3.399-2.345-2.562-4.917-4.927-7.284-6.798-3.226,.154-5.562-.585-6.795-2.426 1.813-.52 1.383,1.205 2.911,.97-2.735-5.327-8.639-5.419-14.562-6.798-2.05,2.79 2.05,2.95 2.41,4.87zm-18.93,44.67c1.63-14.553 8.008-26.945 6.312-43.207-2.664,5.428-6.06,10.122-8.254,16.021-12.271,13.907-24.81,29.233-24.761,51.947 .034,15.357 5.828,27.517 13.108,34.954 5.42,5.539 8.951,8.465 15.536,11.653 2.552,1.234 5.033,2.422 7.768,3.884 8.761-2.242 16.147-5.861 21.847-11.167 2.273-4.681 4.772-5.903 6.798-9.224 5.653-9.277 8.623-23.7 7.768-35.442-.848-11.64-4.961-21.71-11.168-29.614-6.173-7.864-12.99-15.978-16.505-24.759-1.138-2.845-1.175-6.649-3.399-7.77-5.118,16.29 6.87,29.354 4.855,45.636-.83-14.22-7.366-22.733-8.254-36.896-1.576,16.28 .952,32.323-.972,47.094-.023-13.611-1.479-28.548-1.454-42.239 .008-4.856 1.481-11.023 0-15.05-1.11,14.99-4.22,31.61-9.26,44.19z"/>
<path d="m84.78,111.96c.604-.884 2.479,1.048 3.397,1.456-.945,1.23-2.289-1.24-3.397-1.46z"/>
<path d="m149.35,150.32c2.296-.184 5.479,2.928 8.254,3.884-2.43,.33-5.76-2.65-8.25-3.88z"/>
<path d="m204.21,178.96c1.256-.907 3.707,1.13 4.855,1.941-1.2,.86-3.41-1.42-4.85-1.94z"/>
<path d="m32.832,195.47c-2.984,1.547-6.583,2.479-9.225,4.369 .895-1.7 5.327-4.06 9.225-4.37z"/>
</g>
</svg>
