<svg xmlns="http://www.w3.org/2000/svg" viewBox="0 0 386.581 260.65" xmlns:xlink="http://www.w3.org/1999/xlink" enable-background="new 0 0 386.581 260.65">
<g fill-rule="evenodd">
<g>
<path fill="#f9d467" d="m142.61,18.133s1.663-6.744-.092-9.146-7.668-7.021-7.668-7.021l-3.511-1.293s-6.282,3.418-4.804,6.836 4.342,11.271 7.945,12.103 8.13-1.479 8.13-1.479z"/>
<path fill="#db752f" d="m81.948,227.02s31.962,33.597 78.038,30.101 61.688-9.29 61.688-9.29l55.369-20.438 37.533-8.547 9.29-9.29s112.21-42.495 33.816-127.46c-66.518-72.092-129.32-3.344-134.9,45.708-3.148,27.703-31.215,52.397-31.215,52.397l-109.63,46.82z"/>
<path fill="#fadb86" d="m80.602,38.453c1.236-2.652 7.225-7.522 9.112-4.906-3.737,.935-4.836,4.509-9.112,4.906z"/>
<path d="m115.65,44.06c1.871,1.026-.293,3.846-2.103,3.504 .41-1.458 1.47-2.265 2.1-3.504z"/>
<path fill="#fadb86" d="m77.799,59.479c.846,.242 2.24,.716 .701,2.804-1.351-1.298-.554-1.284-2.804-.701-.327-1.795 2.479-3.974 .701-4.906 1.525-1.408 2.439-1.291 2.803-4.906 .682,.019 .544,.858 .701,1.402 .596,.128 .661-.273 .701-.701 1.163,1.666-2.225,4.757-2.803,7.008z"/>
<path d="m109.34,56.676c2.772,.748-.178,2.125 0,4.205-1.56-.295-.55-3.719 0-4.205z"/>
<path d="m301.38,57.376c2.687-1.954 6.994,.458 9.812,.701-1.69,.966-7.21-.234-9.81-.701z"/>
<path d="m317.5,60.881c2.02,1.485 6.584,.425 7.009,3.504-2.22-1.284-6.06-.948-7.01-3.504z"/>
<path d="m117.75,170.22c-3.508-1.519-2.467-10.123-6.308-9.112-4.256-9.503 .047-22.373-3.504-30.138 2.08-1.892 3.192-4.751 4.205-7.71-2.439-22.086 14.367-40.078 14.719-61.678 3.783,9.575-2.2,20.607-5.607,30.138-7.128,19.937-13.866,45.111-4.906,67.986-1.96,4.45 1.23,6.29 1.41,10.51z"/>
</g>
<g fill="#fadb86">
<path d="m64.482,64.385c1.93,1.085 .068,4.207-.701,4.906-1.778-.932 1.028-3.11 .701-4.906z"/>
<path d="m297.18,67.189c-1.066,2.337-6.044,4.303-7.709,2.804-.59-.532 5.16-5.163 7.71-2.804z"/>
<path d="m290.87,73.497c2.136-3.939 6.99-5.159 12.616-5.607-3.63,2.449-8.31,3.844-12.62,5.607z"/>
<path d="m70.79,72.796c1.116,1.163 .201,6.241-2.103,6.308 .834-1.97 1.577-4.03 2.103-6.308z"/>
<path d="m82.705,74.198c2.296,2.571-1.402,5.109-.701,8.411-2.695-1.061 .725-5.628 .701-8.411z"/>
<path d="m291.57,75.6c-.466,2.835-2.106,1.223-3.505,2.103-5.33,2.613-8.171,7.715-13.316,10.513 3.09-6.037 11.33-13.579 16.83-12.616z"/>
</g>
<g>
<path d="m335.72,74.898c2.354-.928 7.87,.991 8.411,4.206-2.81-1.387-5.48-2.927-8.41-4.206z"/>
</g>
<g fill="#fadb86">
<path d="m254.42,80.506c-1.904-1.5 .912-4.181 2.804-4.206-.86,1.473-1.93,2.733-2.8,4.206z"/>
<path d="m262.13,77.001c-2.304,1.435-3.723,3.753-7.009,4.205 .78-3.065 3.5-5.963 7.01-4.205z"/>
<path d="m60.978,77.001c.967,3.319-1.435,9.3-2.103,13.317-1.575-3.927 1.008-9.726 2.103-13.317z"/>
</g>
<g>
<path d="m347.64,78.403c1.992,3.148 4.477,5.803 6.309,9.111-3.46-1.684-5.83-4.454-6.31-9.111z"/>
<path d="m336.43,79.805c1.143-1.322 5.549,.018 5.607,2.103-3.03,.456-3.94-1.211-5.61-2.103z"/>
<path d="m336.43,88.215c-1.424,1.613-4.193,1.881-7.009,2.103 1.96-.928 4.75-3.674 7.01-2.103z"/>
</g>
<g fill="#fadb86">
<path d="m63.781,90.318c-.31,17.492-6.104,40.11-2.803,57.473-5.339-16.46-.926-39.43 2.803-57.472z"/>
<path d="m59.576,91.019c2.314,.942-.237,8.448 0,11.915-2.241-1.03-.856-5.686-2.103-7.709 2.186,2.107 1.075-3.04 2.103-4.202z"/>
<path d="m65.884,91.72c2.023,3.912-1.174,8.625-1.402,12.616-1.717-3.61 1.228-8.574 1.402-12.62z"/>
<path d="m304.89,96.626c-2.006-2.738 2.74-4.712 5.607-4.906-.85,2.659-4.87,2.147-5.61,4.906z"/>
<path d="m271.94,92.421c-.894,1.442-1.118,3.555-3.505,3.504 1.3-1.038 1.05-3.622 3.5-3.504z"/>
</g>
<g>
<path d="m346.94,98.028c2.334,1.14 4.709-3.682 7.709-4.205-1.802,3.104-5.226,4.586-7.709,7.009-4.393-1.427-5.067,.951-9.111,1.402 3.635-4.075 9.719-5.7 14.018-9.112-1.35,1.934-2.98,3.57-4.91,4.91z"/>
<path fill="#fadb86" d="m131.07,95.225c-.487,5.592-2.961,15.257-6.308,20.326 .84-7.17 3.95-12.99 6.31-20.325z"/>
<path d="m353.25,96.626c3.246,1.666-2.024,6.175-4.906,6.308 1.3-2.43 5.12-2.35 4.91-6.304z"/>
</g>
<g fill="#fadb86">
<path d="m53.969,98.028c1.377,3.034-.848,8.482 0,13.317-2.248-2.54-.292-9.1 0-13.312z"/>
<path d="m256.52,98.028c2.225,2.499-2.375,4.136-2.103,7.009-2.21-2.49 1.84-4.68 2.1-7.012z"/>
</g>
<g>
<path d="m311.9,98.028c1.248,.514 .102,1.274 0,2.103-10.085,5.334-18.075,12.764-25.933,20.326 3.86-9.45 15.81-16.9 25.93-22.432z"/>
<path fill="#fadb86" d="m244.61,105.74c.425-2.145 1.488-3.652 2.104-5.607 2.65,.76 .53,5.8-2.1,5.61z"/>
<path d="m337.13,100.83c-1.307,1.964-3.839,2.703-6.309,3.504 1.56-1.71 3.42-3.12 6.31-3.5z"/>
<path d="m355.35,100.83c1.32,4.667-6.851,13.142-4.205,16.821-.098,2.005-2.924,1.282-4.906,1.402 4.98-4.14 5.55-12.67 9.12-18.22z"/>
<path d="m67.986,101.53c.968,.342 1.701,6.318-.701,5.607-.154-2.26 1.24-2.97 .701-5.61z"/>
<path d="m360.96,102.23c.977,3.097-.124,10.143-2.804,11.915 1.65-3.24 1.29-8.5 2.8-11.91z"/>
<path d="m90.415,102.93c.815-.114 1.247,.155 1.402,.701-.99,4.866 .021,8.28-2.103,12.616 .406,1.427-.478,5.523-.701,2.103v-2.803c.315-4.36 .956-8.39 1.402-12.62z"/>
</g>
<g fill="#fadb86">
<path d="m278.95,103.64c-2.212,1.059-1.946,4.596-4.906,4.906 .9-2.38 1.86-4.69 4.91-4.91z"/>
<path d="m58.174,104.34c1.814,4.797-1.335,14.003-1.402,21.728-2.625-7.23 .346-14.44 1.402-21.73z"/>
</g>
<g>
<path d="m371.47,104.34c3.139,1.066 2.467,5.944 2.803,9.812-1.23-2.97-1.87-6.54-2.8-9.81z"/>
<path fill="#fadb86" d="m264.94,107.14c3.677,3.45-2.819,7.586-3.505,11.214-1.49-3.6 3.23-7.02 3.5-11.21z"/>
<path d="m342.73,107.84c-1.626,3.982-5.411,5.804-9.112,7.71 1.208-2.296 4.042-2.967 5.607-4.906-.638-1.917-2.456,1.244-3.505-.701 1.36-1.53 5.26-3.16 7.01-2.1z"/>
<path d="m365.86,107.14c2.203,.284 2.562,4.517 .701,4.906-1.56-.31-.28-3.46-.7-4.91z"/>
<path d="m122.66,110.64c.984,2.177-.938,7.453-1.401,10.513-1.13-2.31 .7-7.67 1.4-10.51z"/>
</g>
<g fill="#fadb86">
<path d="m281.06,114.85c-2.116-1.49 2.008-2.61 2.103-4.205 2.12,1.49-2.01,2.61-2.1,4.21z"/>
<path d="m229.19,111.34c2.035,1.631-1.316,3.776-.701,6.308-2.07-1.66 .85-4.24 .7-6.31z"/>
<path d="m272.65,112.05c1.228,1.961-2.45,5.002-3.505,7.009-1.23-1.97 2.45-5.01 3.51-7.01z"/>
</g>
<g>
<path d="m318.9,114.15c1.911,.645-.979,2.191 0,4.205-3.76-.07-.77-2.84 0-4.21z"/>
<path fill="#fadb86" d="m53.268,114.85c1.242,9.337 1.537,16.58 2.103,25.933-2.962-7.5-2.96-16.98-2.103-25.93z"/>
<path d="m369.37,116.95c4.684,2.217 3.399,9.612 2.104,14.719-.45-4.96-1.07-8.7-2.1-14.72z"/>
<path d="m366.56,117.65c.902,.723 1.803,7.371-.701,7.009-.49-3.06 1.2-3.95 .7-7.01z"/>
</g>
<g fill="#fadb86">
<path d="m126.16,120.46c2.26,2.534-.95,5.561-.701,8.411-2.26-2.54 .95-5.56 .7-8.41z"/>
<path d="m321.01,120.46c-4.283,3.893-9.069,7.284-14.018,10.513 4.31-3.87 6.65-9.71 14.02-10.51z"/>
</g>
<g>
<path d="m117.05,122.56c1.514,.143 .322,9.007 .701,12.616-1.51-.15-.32-9.01-.7-12.62z"/>
</g>
<g fill="#fadb86">
<path d="m230.59,125.36c1.169,4.451-3.311,9.296-2.804,15.42-3.445,2.561-8.831,8.509-6.308,12.616-4.915,1.158-5.77,6.378-9.111,9.111 5.19-10.47 14.09-23.29 18.22-37.15z"/>
<path d="m317.5,126.76c-.404,1.698-2.646,1.559-4.205,2.103 .83-1.35 2.4-3.82 4.2-2.1z"/>
<path d="m82.004,126.76c1.871,7.011 .566,15.933 2.103,24.531-3.572-5.97-4.163-16.77-2.103-24.53z"/>
<path d="m281.06,127.46c-5.24,9.711-12.519,17.385-19.625,25.232 4.29-7.84 12.14-18.22 19.62-25.23z"/>
<path d="m284.56,128.17c-1.671,2.535-1.99,6.421-5.607,7.009 .89-3.32 2.25-6.17 5.61-7.01z"/>
<path d="m291.57,128.17c-.009,1.393-1.912,.892-1.402,2.804-1.305,.67-2.342-2.099-2.803,0-1.92-1.51 1.53-3.56 4.2-2.8z"/>
</g>
<g>
<path d="m105.83,129.57c1.761,1.69 .913,6.849 .701,10.513-.966,2.231-.694-2.477-.701-3.504-1.52-.118-.317,2.485-.701,3.504-4.27-3.11 2.65-5.26 .7-10.51z"/>
</g>
<g fill="#fadb86">
<path d="m124.76,130.27c2.467,1.372 .513,3.517 .701,6.309-1.59-.75-.27-4.41-.7-6.31z"/>
<path d="m223.58,130.97c1.694,1.515-1.476,4.092-1.401,6.308-1.77-1.59 .93-4.64 1.4-6.31z"/>
</g>
<g>
<path d="m373.57,132.37c1.412,1.46 .976,7.016-1.402,7.009 .96-1.85 .83-4.78 1.4-7.01z"/>
</g>
<g fill="#fadb86">
<path d="m49.763,133.07c2.209,1.189 .872,3.26 .701,5.607-1.581-.52-.274-3.93-.701-5.61z"/>
<path d="m74.995,133.07c2.562,6.783 1.438,17.252 2.103,25.933-3.737-4.61-2.857-18.69-2.103-25.93z"/>
<path d="m84.808,137.98c1.591,2.389 .794,3.982 .701,7.009-1.599-.97-.262-4.88-.701-7.01z"/>
<path d="m360.26,142.88c1.656,1.477-.097,5.471-2.103,5.607 .94-1.63 1.15-3.98 2.1-5.61z"/>
</g>
<g>
<path d="m105.83,144.29c2.431,.415 1.73,3.46 1.402,4.906-.821-.113-.591-1.277-.701-2.103-.564,.371-1.138,.731-2.103,.701v-2.804c.567,.134 .698,.703 1.401,.701v-1.41z"/>
<path d="m96.021,146.39c2.495,1.945 .553,8.326 2.103,11.215-1.427-.208-1.867-1.404-2.804-2.103 2.441-2.36 .271-4.96 .701-9.11z"/>
<path fill="#fadb86" d="m304.89,149.19h-3.504c.788-.461 2.716-3.248 3.504-1.401v1.4z"/>
<path d="m98.825,148.49h2.103c.472,3.508-.649,5.425-.701,8.41-2.474-3.29 1.14-4.8-1.405-8.41z"/>
<path d="m103.03,151.3c2.578,1.861 1.454,7.425 2.103,11.215-1.15-3.3-2.46-6.42-2.1-11.22z"/>
<path d="m332.22,152c.664,2.533-2.761,.978-4.205,1.402 .07-1.79 2.34-1.39 4.2-1.4z"/>
<path fill="#fadb86" d="m222.18,153.4c2.063,1.883-1.69,3.876-2.103,5.606-2.26-2.08 2.11-3.46 2.1-5.61z"/>
<path d="m105.83,154.8c2.532,.506 .324,5.75 2.103,7.009-2.17,1.9-2.26-4.25-2.1-7.01z"/>
<path d="m33.643,159c4.39,15.937 10.214,30.438 23.129,37.848-15.444-4.88-20.026-20.62-23.129-37.85z"/>
</g>
<g fill="#fadb86">
<path d="m230.59,164.61c-2.189-2.01 2.479-3.088 2.804-4.906 1.99,1.81-2.54,3.03-2.8,4.91z"/>
<path d="m67.986,161.11c3.208-1.32 2.869,6.93 3.504,10.514-2.314-2.36-2.001-7.34-3.504-10.51z"/>
<path d="m236.2,161.11c-1.169,3.504-3.965,5.381-7.009,7.009 2.35-2.32 2.57-6.78 7.01-7.01z"/>
<path d="m74.294,162.51c.128,.949 4.973,10.26 2.103,11.915-1.352-1.55-2.198-6.89-2.103-11.91z"/>
</g>
<g>
<path d="m24.531,163.21c4.133,3.889 1.936,10.525 5.607,15.419-3.799-.41-3.857-10.62-5.607-15.42z"/>
<path fill="#fadb86" d="m360.96,163.21c-.461,3.52-5.251,8.759-9.812,10.513 1.89-4.88 6.25-7.29 9.81-10.51z"/>
<path d="m39.25,163.91c4.492,8.357 7.521,18.178 14.719,23.83-10.172-2.68-11.508-14.19-14.719-23.83z"/>
<path fill="#fadb86" d="m130.36,165.31c2.393,.177 1.427,3.712 3.504,4.205-1.55,1.74-3.73-1.83-3.5-4.21z"/>
<path d="m4.206,166.01c1.971-.102 2.021,1.717 2.103,3.505-1.972,.1-2.022-1.72-2.103-3.51z"/>
<path d="m117.75,166.01c4.375,2.635 4.815,9.203 8.411,12.616-4.49,.28-5.6-8.88-8.41-12.62z"/>
<path d="m45.558,166.72c2.546,1.192 2.932,4.544 4.205,7.009-2.617-1.13-4.432-3.05-4.205-7.01z"/>
</g>
<g fill="#fadb86">
<path d="m82.004,173.02c2.23-1.267 3.191,4.731 3.504,7.71-2.729-1.01-1.996-5.48-3.504-7.71z"/>
<path d="m267.04,174.42c-2.873,6.476-13.314,11.447-21.026,15.419 6.72-5.43 14.89-9.41 21.03-15.42z"/>
<path d="m86.91,179.33c2.794,.477 3.134,3.407 3.504,6.308-1.833-1.44-2.357-4.18-3.504-6.31z"/>
<path d="m64.482,180.03c1.662,1.399 4.41,5.371 3.504,7.01-2.679-.82-2.91-4.1-3.504-7.01z"/>
<path d="m258.63,200.36c8.865-8.189 21.169-12.94 30.839-20.326 1.792-.03 .854,.521 .7,1.402-10.06,6.77-19.59,14.06-31.54,18.93z"/>
<path d="m175.22,183.54c-.102-1.971 1.717-2.021 3.505-2.103 .26,2.12-2.28,1.45-3.5,2.1z"/>
<path d="m89.013,198.96c-1.405-1.165-3.258-1.883-3.504-4.206 2.351,.22 2.795,2.35 3.504,4.21z"/>
</g>
<g>
<path d="m138.08,194.75c5.831,2.58 12.999,3.823 20.325,4.906-6.22,.61-16.97-.32-20.32-4.91z"/>
</g>
<g fill="#fadb86">
<path d="m183.63,198.96c-1.182,2.089-4.764,1.778-7.71,2.103 2.02-1.26 4.31-2.24 7.71-2.1z"/>
<path d="m200.45,204.56c2.575-2.097 6.249-3.096 9.812-4.205-1.56,3.11-6.12,3.21-9.81,4.2z"/>
<path d="m101.63,202.46c2.465,.807 2.566,3.975 4.906,4.906-2.03,1.52-4-2.99-4.91-4.91z"/>
<path d="m320.31,206.66c-.996,2.042-4.151,1.924-6.308,2.804 .99-2.03 4.15-1.92 6.31-2.8z"/>
<path d="m307.69,210.87c-3.033,2.628-10.207,3.879-14.018,3.504 3.32-2.52 9.6-2.08 14.02-3.5z"/>
</g>
<g>
<path fill="#fff" d="m11.214,214.38c3.305-.033 5.311,1.231 8.411,1.402-.808,1.865-5.52-.97-3.504,1.401-1.437,1.62-4.785-.78-4.907-2.8z"/>
<path fill="#fadb86" d="m140.88,215.08c2.629-1.436 7.516,.875 10.513,1.401-2.18,.98-7.45-.94-10.51-1.4z"/>
</g>
<g fill="#fff">
<path d="m12.616,220.68c2.881,.155 6.641-.567 7.009,2.103-2.886-.551-3.597,1.075-6.308,.7-.545-.62-.754-1.58-.701-2.8z"/>
<path d="m42.754,220.68c4.01-1.06 13.66,4.631 2.103,2.103-1.049-.22-2.427-.11-2.103-2.1z"/>
</g>
<g fill="#fadb86">
<path d="m148.59,222.79c.342-.969 6.318-1.701 5.607,.7-2.6,.49-3.01-1.2-5.61-.7z"/>
<path d="m192.04,223.49c-5.855,.92-11.661,1.89-18.223,2.104-2.227-.589 1.244-.925 2.103-.701 4.914-.927 10.743-.938 14.719-2.804 1.19-.26 1.32,.54 1.4,1.4z"/>
<path d="m161.9,225.59c-2.987-.284-7.221,.678-9.112-.701 2.06-1.63 7.83-2.06 9.11,.7z"/>
<path d="m165.41,227.69c-5.991,1.539-18.863,.184-21.027-2.103 4.77,.23 15.89-.07 21.03,2.1z"/>
<path d="m170.32,225.59c-6.06,2.57-5.52-1.83 0,0z"/>
<path d="m250.92,226.29c.41,1.721-4.616,3.404-4.205,.701 1.64,.02 2.06-1.21 4.2-.7z"/>
<path d="m106.54,227.69c4.865-1.35 9.037,4.038 14.018,4.906-4.79,1.26-10.1-2.98-14.02-4.91z"/>
<path d="m224.28,236.8c3.557,1.204 7.312-3.423 11.915-3.505-2.788,4.122-7.103,4.967-11.214,6.309 2.041-3.055-2.098,.836-1.402-2.103-2.082,.487-2.839,2.3-4.205,3.504-13.308-.158-22.232,9.96-39.951,7.71 .342,2.228 6.318-1.179 5.607,2.103-4.229,.443-8.352,.993-13.317,.701 .93-2.107 5.556-.519 7.009-2.103-.361-.766-4.58,.514-7.009,0 24.715-3.801 43.611-10.484 65.183-18.224-3.96,2.11-7.94,4.2-12.62,5.6z"/>
</g>
<g>
<path d="m159.1,232.6c1.659-1.612 6.291-.251 9.111-.701-1.66,1.61-6.29,.25-9.11,.7z"/>
</g>
<g fill="#fadb86">
<path d="m147.89,238.2c8.095-1.021 24,.307 33.643,0-1.617,2.589-5.713-.216-9.812,.701 .651,1.686 5.097-.424 4.206,2.804h-7.009c-.328-1.496 1.001-1.335 2.103-1.402-6.97-1.44-16.67-.14-23.13-2.1z"/>
<path d="m188.54,241.01c-3.767,.822-8.542,3.868-12.616,2.103 3.58-1.33 7.57-2.24 12.62-2.1z"/>
</g>
<g>
<path d="m124.06,243.81c1.296-2.141 3.33,.809 5.607,0-.8,2.88-3.01-.54-5.61,0z"/>
</g>
<g fill="#fadb86">
<path d="m119.85,245.21c1.922-.497 7.868,.993 9.111,3.505-3.3-.9-6.07-2.33-9.11-3.51z"/>
<path d="m159.8,250.82c-1.227-1.94 6.381,.2 4.906,0 3.603,.489 5.995,.482 2.103,.701-2.46,.14-6.43,.21-7.01-.7z"/>
</g>
<g>
<path d="m58.875,189.14c.133-.796 .704-.39 .701,0 2.147,.12-.313-4.058-.701-1.402-10.172-25.855-15.014-64.166-9.111-97.423 4.598-25.905 16.238-46.79 32.942-58.174 1.393-1.167 .891,.063 2.803,0 1.916-2.057 3.272-4.671 7.71-4.205-.903,1.433-3.933,.739-4.206,2.803 2.285-1.219 5.312-1.697 8.411-2.103 .224-1.859-3.926,.656-2.803-2.103 2.179-.737 6.087-2.727 7.709,0 2.942-4.535 9.357-5.596 14.018-8.411 4.349-4.762 6.578-11.645 9.812-17.522 1.963-.806 3.644-.806 5.607,0-3.27,3.69 .583,6.935 2.803,10.514-2.618,.749-1.998-1.741-4.205-1.402 1.773,5.478 6.596,4.001 10.513,7.709 1.009-.392 1.71-1.093 2.103-2.103-.651-6.2-8.08-9.105-8.411-13.317 11.712,2.33 13.458,21.749 2.103,25.232-2.288,4.019 .665,9.642 0,14.719 3.582,4.978 8.674,11.787 9.111,21.026 .288,6.074-2.633,11.544-4.205,17.522-5,19.012-16.201,40.912-14.018,64.481 1.602,17.296 9.754,36.322 25.933,38.549 10.904,1.501 26.238-2.657 33.643-9.111 25.626-9.205 31.843-41.212 40.651-66.584 6.394-18.417 17.758-35.571 32.942-46.258 10.412-7.329 26.787-13.788 45.558-11.214 7.3,1.001 12.607,4.756 18.924,6.308 14.142,3.474 25.067,13.502 33.643,23.83-1.412,2.53 .069,3.393 .7,5.607-9.447-8.928-15.494-18.459-30.138-21.026 3.236-1.58 7.068,2.261 10.514,2.803-4.173-5.886-16.312-6.941-25.232-11.214 1.59-1.77 4.642,.925 6.308,1.401-.794-3.298-5.275-2.97-8.41-2.103 .803-2.205-1.101-1.703-1.401-2.803-10.498-1.05-18.29-2.475-26.634,1.401 4.816,1.927 14.454-4.592 19.625,0-17.702-.88-28.703,4.94-39.25,11.214 9.279-.791 20.761-12.85 33.643-7.71-14.362-1.488-22.926,6.479-31.54,8.411-3.181,3.696-6.616,3.452-9.111,7.009 .133,.567 .703,.698 .701,1.401 5.312,2.496 9.659-2.012 11.214-5.607 1.099,.248-.613,1.234 .701,1.402 8.602-7.839 31.964-14.536 45.558-6.308-1.621,1.65-6.602-.06-8.411,1.402 6.671,4.686 12.692,.836 21.026,4.206-2.916,1.66-6.213-.844-8.41-.701 .217,3.351-2.492,1.304-3.505,4.206 4.494,2.905 11.948-1.31 15.42,2.103-15.341-.855-23.184,5.787-32.241,11.214 1.565,1.29 3.907-2.604 7.009-2.103-1.454,1.35-4.076,1.531-4.906,3.504 9.974-1.475 17.249-5.646 27.335-7.009-7.637,1.543-14.04,6.412-21.026,7.71-3.304,.614-6.269-.33-9.111,.701-5.208,1.887-7.391,7.527-14.019,8.411-.341,8.013-10.893,10.772-12.615,19.625 6.555-5.126 9.714-13.649 17.521-17.522-.206,1.429-1.896,1.374-2.103,2.803 2.433-.604 3.89-2.185 5.607-3.504 2.486,2.989-3.643,3.34-4.205,5.607 1.488-.151 9.109-3.914 6.308-4.906 6.749-1.803 8.458-11.909 17.522-9.112 5.56-2.851 12.086-4.735 18.223-7.009-5.097,6.618-19.167,7.814-26.634,12.616-7.136,4.589-17.399,10.763-22.428,18.924 12.058-8.943 26.778-23.532 46.258-25.232-19.602,5.63-35.663,14.801-45.558,30.138-.287,1.688 1.28,1.523 .701,3.504 7.585-5.306 13.426-11.786 21.026-18.223 10.027-8.492 24.534-11.423 37.147-16.821-10.153,8.537-29.648,7.732-37.147,18.924 9.162-3.454 16.623-8.609 25.933-11.915-5.268,6.414-14.814,8.548-21.727,13.317 .431-.624 .847-1.253 0-1.402-3.884,3.054-9.175,2.494-11.215,8.411 1.967,1.113 4.459-3.296 7.71-1.402 9.405-9.053 25.762-14.888 36.446-20.326-14.261,9.57-33.044,14.617-42.754,28.736 4.729-3.214 8.972-6.915 13.316-10.513-2.845,6.737-13.754,11.475-18.223,18.924 6.435-3.848 14.491-12.141 21.026-18.224 .197-1.252-.662-1.438-.701-.701-.109-1.998 5.444-4.354 8.411-5.607-.371,.563-.731,1.138-.701,2.103 4.72-1.588 9.842-2.774 13.316-5.607 1.84,2.802-5.117,2.804-5.606,5.607-15.125,.294-18.903,11.936-28.036,18.223 3.867-.813 8.4-7.013 12.616-9.812-1.516,4.331-9.143,8.609-12.616,13.317 7.477-3.741 14.965-13.537 26.634-15.419 .063,1.912-1.167,1.411 0,2.803-.132,2.672-3.911,1.696-4.205,4.206 1.396,1.539 5.065-1.336 6.308,1.402 1.977-.126 .875-3.332 3.505-2.804-.501,2.536-2.302,3.772-2.804,6.308 5.286-1.256 8.607-4.476 12.616-7.009-8.788,12.94-27.749,21.78-39.95,33.642 12.833-7.726 24.488-16.63 37.146-24.53-5.724,8.293-15.198,12.837-21.728,20.325 12.373-6.084 20.3-16.613 30.839-24.531-6.329,6.755-12.661,13.506-19.625,19.625 10.135-4.818 16.622-13.283 23.13-21.728 2.192,2.794-6.16,6.824-7.009,11.214 5.076-.297 6.15-4.597 8.41-7.709 2.599,1.61-2.778,5.638-4.906,7.009-.508,2.144 1.21,2.062 .701,4.205-2.544,.675-.589-3.149-2.804-2.804-7.43,7.056-16.18,12.79-27.335,16.12-1.232,.169-1.597,1.206-1.401,2.804-1.548-.087-.298-2.973-.701-4.205-9.039,5.679-16.823,12.614-25.933,18.223 4.913-5.366 12.062-8.497 16.821-14.018-15.374,10.56-33.423,24.517-50.464,35.745 12.361-11.236 30.663-22.604 44.156-35.044-21.931,15.684-44.533,30.695-65.183,47.66 6.812-3.701 13.095-7.932 18.924-12.616 .009,3.99-7.99,6.021-10.513,9.812 15.286-10.178 31.431-19.5 44.856-31.54 3.039,.961-.054,2.887-.701,4.206 8.313-4.681 13.829-12.134 22.429-14.719-2.63,6.521 8.972-2.184 9.812,1.401 .852-3.1 2.608-5.018 6.308-3.504-8.408,6.311-16.046,13.392-25.231,18.924 11.182-3.539 21.409-14.101 31.539-21.026-3.166,4.31-8.263,6.688-11.214,11.214 15.764-12.038 30.611-24.992 39.25-44.156-3.863,18.799-21.72,29.678-33.643,42.754 1.184,1.361 5.324-3.966 6.308-2.804-.727,2.543-3.11,3.431-4.205,5.606 2.435-.135 2.661-2.479 4.906-2.803-.539-2.642 .854-3.351 .701-5.607 7.199-5.884 13.226-12.941 19.624-19.625-4.145,8.938-12.509,13.657-18.223,21.026 6.408-3.638 11.44-8.651 16.12-14.018 1.078,2.734-3.294,6.035-4.205,9.111-1.04-.306 .276-.896 0-2.103-10.207,5.448-17.622,19.758-32.941,22.429-3.518,1.622-4.906,5.373-9.111,6.308-.208,1.843 2.719,.552 2.103,2.804-10.964,6.228-23.758,6.315-31.54,15.42 2.036,.38 6.693-2.637 9.111-4.206 28.727-2.127 50.267-17.475 60.978-39.95 1.248,.514 .101,1.274 0,2.103 2.863-1.321 10.898-9.514 7.709-14.719 1.776-.865 1.761,1.35 4.906,0 1.398-2.106 .938-6.071 2.103-8.41 2.098,4.682-2.803,8.399-2.803,13.316 5.752-2.658 3.812-13.008 7.709-17.521-.326,7.383-3.713,11.705-4.906,18.223-2.533,1.064-5.084-.484-5.606,3.504 .169,1.808 1.206-.962 2.804,0-2.269,1.938-2.875,5.536-6.309,6.309 .754-1.816 2.534-2.605 2.804-4.906-5.896,.248-9.464,8.706-13.316,13.316 3.243-.039 5.932-6.675 9.111-9.111-1.95,7.632-11.967,13.264-16.821,20.326 2.682-1.057 4.573-2.902 6.308-4.906 1.769,.923-1.838,2.301-1.401,4.205 5.348-4.23 8.274-10.883 13.316-15.42-3.763,6.517-8.104,12.456-13.316,17.522 7.829-1.986 11.374-14.322 18.924-18.924-.365,1.037-1.037,1.767-1.402,2.804 10.213-3.259 4.903-17.896 11.215-24.531-1.18,4.193-1.604,9.144-2.804,13.316 3.263-1.877 3.151-7.128 4.205-11.214 1.019,5.933-2.837,13.045-4.906,18.224 4.396-3.549 6.303-9.584 7.009-16.821-1.244,20.483-15.811,33.718-27.334,46.258 12.077-6.381 22.018-20.97 27.334-36.446-.104,9.711-7.84,17.857-12.615,25.232 .113,.821 1.277,.591 2.103,.701-4.779,2.268-7.817,10.811-14.018,11.214-.65,1.463-.405,3.112-3.505,3.505-.956,9.323-12.213,8.346-16.821,14.018 12.597-4.693 26.2-14.45 36.446-23.83v-3.505c8.772-8.282 15.316-18.793 14.719-36.446-.862,.307-1.439,.897-1.402,2.103-.971-3.555 2.121-9.082 1.402-14.718 1.967,7.41 1.133,16.083 .7,25.933 5.714-13.362 2.043-34.328-3.504-44.857-1.956,1.33 .13,4.488 .701,5.607v8.411c-1.604-1.2-.258-5.35-.701-7.709-.474-1.863-1.104-3.569-2.103-4.906-.511-1.913 1.393-1.411 1.401-2.804-3.982-7.232-6.637-15.792-14.719-18.924 1.851-3.312-2.888-5.31-2.804-9.112 6.168,2.944 7.204,11.02 13.317,14.018 7.298,15.094 15.628,30.778 13.316,50.464-2.272,19.363-15.299,32.808-25.231,44.155-10.769,7.455-21.582,14.864-35.045,19.625 2.229,3.611 12.409-.727 14.719,2.804-.315,7.379-7.702,7.568-14.719,11.915-2.058,1.275-3.189,3.869-4.906,4.906-2.606,1.575-8.912,2.349-14.718,4.205-5.308,1.697-9.727,4.803-16.121,5.607-4.269,.537-8.12-.067-10.513,2.804-23.851,2.378-48.333,6.073-73.594,11.915-54.143,12.521-116.35,7-165.41-6.309-.807-.828-.793-2.477-.701-4.205-6.027,.187-12.07,.389-14.719-2.804-.257-1.191 .547-1.322 1.402-1.401-2.12-2.691-9.431-3.463-7.709-7.71-3.192-1.246-7.35-1.528-9.112-4.205 2.279-1.316 6.346,1.576 9.112,2.103-4.233-5.346-14.333-4.824-16.821-11.915 3.799-.295 3.857,3.151 7.009,3.505 1.236-.634 2.17-1.568 2.804-2.804-2.222-4.086-8.492-4.124-10.514-8.411 3.772-.034 4.181,3.296 7.71,3.505-1.188-4.887-8.961-3.188-9.112-9.111 6.227,2.418 7.544,9.744 16.121,9.812-4.087-4.79-11.051-6.704-14.018-12.615 2.437-1.474 3.548,4.374 6.308,4.906-.551-5.063-6.622-10.662-6.308-18.924 5.183,9.637 7.36,25.677 23.129,22.428 7.585,4.331 17.492,6.339 27.335,8.411 .51,1.912-1.393,1.41-1.402,2.804 5.745,2.666 11.12,5.701 19.625,5.606 .416,2.236-1.315,2.168 0,3.505 6.017-1.301 11.319,3.875 14.018-.701 21.511,21.219 68.226,34.991 108.64,23.129 2.08,3.387 5.646-.47 9.112,0 .118-1.52-2.486-.317-3.505-.7 1.814-.421 9.005-3.842 7.71-.701 2.317-.528 3.525-1.664 3.505-2.804 28.295-7.135 52.723-23.636 82.003-28.736 10.329-1.799 20.859-6.028 31.54-10.514-14.904,5.594-30.77,5.789-46.258,9.812-15.489,4.024-30.521,14.325-46.259,20.326-12.742,4.859-28.021,10.643-42.053,13.316-35.241,6.718-70.822-1.225-93.919-17.521 .637-1.696 2.068,1.589 4.206,.7-.803-2.001-4.031-1.576-4.906-3.504-1.099,.247 .613,1.233-.701,1.401-4.154-2.153-7.6-5.016-11.214-7.709-2.07,.609 1.626,1.049 .701,2.803-11.43-9.78-18.944-23.53-24.542-39.19zm211.66-128.26c3.946-1.204 10.979-3.023 11.214-5.607-3.82,1.78-8.31,2.902-11.21,5.607zm39.95,2.804c-5.67-2.266-15.753-2.559-21.026,0 1.305,.096 2.342,.461 2.803,1.402-8.602,.046-13.743,7.278-19.624,7.709 4.379-3.564 10.548-5.338 14.719-9.111-7.247,.93-11.559,4.796-16.121,8.411-.157,1.325 .79,1.546 .701,2.803-10.596,6.927-16.251,18.794-22.429,30.138-.117-.816-1.107-.761-2.103-.701-3.541,10.243-10.74,16.828-13.316,28.035 1.206,.277 1.797-1.04 2.103,0-.212,2.125-2.704,1.969-2.804,4.206 1.01,1.551 1.71-.883 2.103,.7-6.652,16.477-14.663,31.596-28.736,40.651-10.036,3.05-16.458,13.444-28.035,12.616 6.209-1.967 12.187-4.167 16.821-7.71-7.463,2.124-14.722,6.742-18.924,6.309 3.322,1.711-11.5,2.786-12.616,4.205 5.884,.966 11.441-2.095 15.419-.701-8.72,1.946-24.462,4.411-30.138-2.103 4.145,2.363 15.324,2.664 20.326,.701 11.984-4.704 30.951-11.65 32.241-18.924-1.477,2.495-4.454,3.489-7.009,4.906 .21-1.894 2.948-1.258 3.505-2.804-5.826,1.021-8.82,4.255-13.317,4.906 .825,.109 1.99-.121 2.103,.7-1.558,.545-2.733,1.473-4.906,1.402 1.091,3.922-5.497,4.896-9.812,5.607-.214-1.617 2.025-.779 2.103-2.104-12.787,4.033-24.547,2.725-34.343-.7-.267,3.304 4.064,2.01 4.205,4.906-4.66-1.415-7.365-4.783-10.513-7.71-.462-8.06-13.021-13.53-11.214-23.83 3.09,4.52 5.299,12.501 10.514,16.821-1.341-5.858-8.422-11.217-5.607-16.821-4.925-.682-1.798-9.416-4.906-11.915-1.633,2.592 2.588,8.428 .701,11.214-.736-2.769-.755-6.254-2.804-7.71-1.393,3.765 3.011,5.354 .701,7.71-1.297-5.951-3.935-14.28-2.804-20.325 .776,2.728 .346,6.662 2.103,8.41-.143-7.114-1.805-15.164 .701-21.026 1.486,6.447-2.076,13.979 1.401,20.325-1.888-14.042 2.076-30.131 2.804-41.352-.07,4.602-4.375,4.97-5.607,8.411-.22-3.05 2.642-6.667 .701-9.111-1.572,2.166-1.163,6.313-3.504,7.709 1.354-3.786 .77-9.509 4.206-11.214 .096,2.911 .461,.142 1.401,0-1.248,7.818 2.545-2.921-2.103-1.402 4.776-13.448 10.094-25.119 10.513-41.353 2.898,13.212-3.748,22.86-5.607,33.643 6.711-6.36 5.961-20.72 8.411-29.437 .751,4.507-1.181,10.01 0,12.616 4.11-3.708 1.466-11.568 2.804-16.821 .158,5.216 2.26,8.487 1.402,14.719h-2.103c.468,6.084-3.49,11.451-2.803,15.419 .896-2.609 1.188-5.82 3.504-7.009-1.725,2.714-.354,8.523-5.607,7.71-1.626,4.916-4.05,9.033-4.906,14.718 .551,.505 2.172-3.867 2.103-6.308 2.639-1.566 2.256-6.154 4.906-7.71 .521,2.664-2.869,5.021-.701,7.009 3.583-14.421 13.223-23.773 9.112-40.651-5.296,1.187-1.048-4.454-2.804-5.607-2.492-1.09-.423,2.38-2.103,2.103-1.606-.73-1.948-2.725-3.504-3.504-.494,2.409 3.19,4.223 .701,6.308-1.042-2.019-1.365-8.416-4.206-6.308 2.153,1.527 1.471,2.209-.701,.701 2.155,3.913-.068,2.074-1.402,4.906-.121-3.383-.314-6.694-2.803-7.709-.074,3.111 1.96,4.113 1.401,7.709-3.516-1.857-6.53-4.217-7.009-9.111-1.163-1.174-4.115-.558-6.308-.701 2.211,.406 .539,5.042-1.401,4.206 .915-2.203 .488-2.958 0-5.607-11.117-.306-17.802,15.287-20.326,21.026 2.244-4.063 4.817-7.798 9.111-9.812-.603,3.152-5.642,5.549-4.906,7.71 .788-.461 2.716-3.249 3.504-1.402-7.968,10.443-16.978,23.626-17.495,39.23 3.16-12.12 6.58-22.496 14.718-30.839 .008,.926 1.229,.641 1.402,1.402-7.395,8.024-7.475,23.364-12.616,33.643 .591-9.458 5.373-18.453 5.607-25.933-4.602,9.883-7.662,21.309-9.812,33.643-.965,.031-1.539-.33-2.103-.701-.028,8.157-1.759,12.428-4.205,16.821-.388-1.248-.36-2.911-1.402-3.504 .466,2.931-.799,5.476-2.103,2.803-.964,7.456-2.07,20.626 2.103,25.232 .556-9.684-.603-12.137-1.402-21.728 1.302,.566 2.832,.906 3.504,2.103 .704-.932 .663-2.608 2.103-2.804-.332,13.541 1.225,29.36 2.804,41.353-1.296-2.209-.578-6.432-2.804-7.71 .669,15.002 7.464,29.903 15.419,39.95-.786,.148-1.091,.778-1.401,1.402 1.206,.276 1.796-1.04 2.103,0 6.21,6.408 12.438,16.528 22.428,16.821-18.705-9.564-29.767-26.771-35.044-49.763 .703-.003 .834,.567 1.402,.7-.533-7.648-3.306-16.78-2.103-23.83 .478,1.757 1.508,11.338 1.402,7.009 .09-4.062-.123-7.82-1.402-10.513-.12,1.049 .25,2.586-.701,2.803-.48-4.886-2.159-13.296-.701-20.325 .073-.351 2.706-1.831 2.804-2.103 2.554-7.117 .952-14.702 3.504-18.223-1.177,1.623 2.591-1.958 2.103-1.402-1.068,7.078-4.273,15.911-1.402,25.232 1.402-13.725 .164-27.982 5.607-37.147-1.786,12.461-5.892,29.304-3.504,41.353 .074-1.795 .396-3.342 1.401-4.205-.192,3.354 .549,19.763-.701,19.624-.119-.013 .287-7.044-.701-3.504-.44,2.13 .897,6.037-.701,7.009 .109-2.679-.036-5.104-1.402-6.309-1.426,3.511 1.191,7.203 1.402,11.215-2.157,.521-1.347-1.924-3.504-1.402 1.998,9.684 5.062,18.301 9.111,25.934 .67-1.306-2.099-2.343 0-2.804 1.563,2.11 1.281,2.9 0,4.906 9.766,19.905 27.487,35.593 51.866,38.549-19.191-4.873-34.933-16.933-44.156-29.438 2.257,1.247 2.572,4.437 6.308,4.205 5.062,6.088 15.768,18.346 23.129,14.018-7.802-3.882-14.667-12.43-21.026-15.419 .878,2.414 5.966,4.284 4.906,6.308-5.184-2.867-5.583-6.794-8.411-11.214 7.028,1.435 9.896,10.592 16.121,10.513 .782-3.843-6.339-3.441-4.906-5.606 6.322,3.96 14.739,9.555 18.924,13.316-4.762-2.48-8.724-5.762-13.317-8.41 8.893,11.264 32.497,18.022 51.165,12.615 8.208-.67 17.778,.022 22.429-4.205-3.631-.149-9.653,2.482-11.214,0 .022,1.147-.52,1.874-1.402,2.103-13.649,3.545-34.754-2.243-45.558-5.606 13.4,4.024 36.802,4.786 45.558,3.504-.544-.156-1.382-.02-1.402-.701 8.925-1.588 16.433-4.593 23.129-8.41-2.423-.279-4.855,3.034-6.308,1.401 1.734-1.302 4.828-1.246 6.308-2.803-14.991,4.149-36.63,7.881-54.669,5.606 1.304-3.173-2.52-1.219-2.804-2.804 8.547,1.267 20.426,.307 28.035-.7-4.352,.019 .224-.966 .701-2.103-1.049-.12-2.587,.25-2.804-.701 4.972,.055 9.095-4.44 13.317-2.804-1.305,.097-2.342,.461-2.803,1.401 4.153-2.933 13.201-5.607 15.419-9.812-1.474,1.355-5.329,3.979-7.009,2.803 4.063-1.711 7.9-4.383 11.915-4.205 8.853-10.539 22.057-16.727 27.335-30.839 1.427,1.406 1.867,.183 2.804-.701 .331-3.699-1.887,1.629-2.103-.7 3.856-6.66 10.339-14.423 10.513-22.429-3.9,8.481-7.495,17.269-14.018,23.129 17.45-24.604 20.668-63.438 46.96-79.2-5.49,7.128-15.532,13.436-16.821,22.429 6.371-10.684 16.388-17.722 25.231-25.933-1.306-.67-2.343,2.099-2.804,0 8.55-4.716 18.69-6.855 29.41-7.751zm-49.06,17.522c-5.386,5.128-9.052,11.975-11.915,19.625 4.82-5.227 9.2-14.621 11.91-19.623zm-14.72,18.923c-.615,1.955-1.679,3.462-2.104,5.607 2.63,.19 4.75-4.85 2.1-5.61zm-24.53,58.17c-2.561,4.214-6.028,7.521-9.111,11.214 .543,.157 1.382,.02 1.401,.701-2.948,1.724-5.481,3.863-7.71,6.308 6.97-3.33 15.1-12.89 15.42-18.22zm-19.62,18.93c3.552-1.133 8.595-4.473 7.71-7.71-2.5,2.65-5.67,4.61-7.71,7.71zm-23.83,4.2c-1.788,.081-3.606,.132-3.505,2.103 1.22-.64 3.76,.03 3.51-2.1zm-49.07-93.915c.341-4.183 5.581-9.865 2.804-12.616-.05,4.63-3.92,9.143-2.8,12.616zm-42.75-16.822c-1.199,2.597-2.203,9.282-1.402,7.71 2.945-5.232 5.01-11.344 8.411-16.121-1.514,1.366-5.504,5.152-7.009,8.411zm-1.402,124.06c.247,2.323 2.1,3.041 3.504,4.206-.708-1.86-1.152-3.99-3.504-4.21zm2.804,9.81c-1.466-.435-2.634-3.595-3.504-.7 14.355,19.701 44.203,31.716 76.396,30.839 16.531-.451 32.3-2.996 45.558-9.111-1.934-.243-4.922,2.012-6.308,0 25.406-7.302 47.965-17.452 64.481-33.643-8.707,2.642-15.795,8.03-23.83,12.615-6.941,3.961-12.83,6.596-20.326,9.111-7.083,2.379-15.094,3.938-21.026,9.112 9.728-1.256 18.649-7.046 26.634-7.71-11.106,5.715-24.783,8.859-37.848,12.616 4.799,.812 6.957-2.328 11.214-.701-8.133,.739-14.287,4.894-21.026,1.401 .167-1 1.154-1.182 1.401-2.103-3.57-.299-6.477,.064-7.709,2.103 2.089,.188 4.268-1.961 4.906,.701-20.166,1.636-43.475,.541-56.772-7.009-20.891-2.088-31.604-20.2-41.353-35.745-.119,1.049 .25,2.587-.701,2.804 .002-.39-.567-.796-.701,0 3.956,4.71 6.653,10.66 10.537,15.42zm157-3.5c-6.073,1.636-9.979,5.44-14.719,8.41 5.99-1.72 10.35-5.07 14.72-8.41zm-58.17,8.41c8.195-.477 16.234-3.964 22.428-4.205-3.649-.536 2.487-1.108 2.103-2.804-8.14,3.62-17.49,3.58-24.53,7.01zm23.13-9.11c-3.563,1.109-7.237,2.108-9.812,4.205 3.68-.99 8.24-1.09 9.81-4.2zm14.71-21.03c-11.326,4.796-21.802,14.176-33.643,16.12 4.838-.769 8.06-3.154 11.214-5.607-1.635-.6-3.02,2.451-3.505,.701 2.058-1.235 7.171-3.081 6.309-4.906-5.477,4.103-11.975,7.184-17.522,11.214 3.027,.987 4.62-.924 7.009,.701-4.341,2.322-14.5,3.014-15.419,5.607 7.318-2.027 15.261-3.43 21.727-6.309-2.143,2.229 2.592,1.403 2.804,0-.824-.109-1.989,.121-2.103-.7 2.745-.316 6.521-3.259 8.411-2.103-1.986,.817-4.636,.972-5.607,2.803 17.141-6.456 31.917-15.275 45.558-25.231 10.614-11.582 26.429-21.698 31.54-36.446-6.329,8.859-14.555,19.554-22.429,24.531 3.009-4.701 8.153-7.267 10.514-12.616-10.1,6.021-14.877,17.364-25.232,23.13-.08-1.996 5.115-2.299 2.804-4.206-3.067,3.24-7.497,5.119-10.513,8.411 3.135,.074 5.408-4.372 7.009-3.505-14.609,10.156-31.038,18.491-48.361,25.933 8.93-6.24 23.48-10.62 29.44-17.5zm22.43-49.06c4.67-11.216 9.22-22.553 14.018-33.643 3.533-4.182 9.169-9.982 10.514-14.018-11.88,11.717-21.44,29.481-24.53,47.661zm29.44-50.465c4.049-2.96 8.627-5.39 11.915-9.111-4.48,2.519-9.26,4.756-11.91,9.111zm-23.13,41.355c7.002-17.069 19.28-36.312 30.138-44.857-14.91,9.621-25.89,26.907-30.14,44.857zm21.03-32.945c5.146-2.798 7.986-7.9 13.316-10.513 1.398-.879 3.039,.732 3.505-2.103-5.51-.962-13.75,6.58-16.83,12.616zm14.72-18.222c1.665,1.5 6.643-.467 7.709-2.804-2.55-2.359-8.3,2.272-7.71,2.804zm14.01-2.103c-5.626,.448-10.48,1.668-12.616,5.607 4.32-1.763 9-3.158 12.62-5.607zm-16.12,17.522c.168,1.233 1.205,1.598 2.803,1.402 5.863-7.22 14.697-11.47 25.934-13.317-2.506-7.477-16.862-3.29-20.326,0 1.748,.499 2.88-3.085 4.205-.701-15.104,7.342-25.176,17.301-34.343,31.54 7.803-5.513 10.869-15.764 19.624-20.326-4.868,7.283-14.458,13.574-16.12,21.728 5.42-7.449 12.95-12.769 18.24-20.328zm-4.9,10.513c6.183-6.433 13.74-11.492 22.428-15.419 .003,.703-.567,.834-.7,1.402 5.046-1.963 10.006-4.012 14.718-6.308-6.792-.233-15.138,4.995-19.624,6.308-.497,.145-1.955-1.549-2.804-.701-.477,.477 2.476,1.179 2.103,1.402-9.049,5.412-18.359,8.636-22.429,18.223 1.431-.485 4.385-3.029 4.906-2.103-.206,1.429-1.896,1.374-2.103,2.803 4.354-3.128 10.3-8.383 11.915-11.915-3.03,1.431-6.29,6.326-8.42,6.31zm.7,14.715c-.095,1.595-4.219,2.715-2.103,4.205 .09-1.59 4.22-2.71 2.1-4.2zm29.44,34.35c8.344-4.739 15.117-11.049 23.129-16.12-.109-.825 .121-1.99-.7-2.103-5.49,7.59-18.93,10.97-22.43,18.22zm-.7,7.01c7.658-4.023 14.672-8.691 20.326-14.719-.544,.157-1.383,.02-1.402,.701-6.6,4.39-12.99,8.98-18.93,14.02zm-53.97,33.64c-5.021,2.455-10.707,4.246-13.317,9.111 5.1-2.37 9.24-5.71 13.32-9.11zm65.88-13.32c.624-1.292 5.258-2.156 3.505-3.505-.33,1.59-6.06,1.35-3.51,3.5zm42.05-11.91c-3.652,7.097-10.896,14.332-13.317,20.325 4.82-5.51 12.79-15.21 13.32-20.33zm-256.52-124.76c.205-.43 1.744-2.698 0-2.803-1.194,3.113 .706-2.661-2.103-2.103 2.863-4.379 9.833-4.652 12.616-9.111-5.02,2.634-20.124,7.652-10.52,14.017zm9.11-10.513c-.745,2.526-5.362,1.18-6.308,3.504 2.72-.107 7.45-1.864 6.31-3.504zm-7.71,11.915c2.595,.492 1.209-2.997 2.804-3.504 1.551,1.541-1.229,2.329-1.402,4.206 2.205,.803 1.703-1.101 2.804-1.402 .157,1.325-.79,1.546-.701,2.803 2.492-.108 3.821-5.016 5.607-3.504-.812,1.759-2.793,2.347-2.804,4.906 3.72,.917 1.702-3.905 4.206-4.205 .542,1.791-2.743,3.222-.701,4.205 .817-1.285 1.832-2.373 2.804-3.504 .344,2.26-3.271,4.142-1.402,5.607 1.366-1.438 .979-4.628 3.504-4.906-.338,2.231-2.207,2.933-2.103,5.607 2.821,.484 1.721-2.952 4.205-2.804-.365,1.037-1.037,1.767-1.402,2.804 2.398,.295 2.106-2.099 3.504-2.804 .538,1.72-3.355,4.042 0,4.206 .601-.648 .438-4.779 4.206-4.206 .276,1.206-1.041,1.797 0,2.103 1.174-1.163 .558-4.115 .701-6.308-2.268-.866-.536,2.268-2.803,1.402 .105-1.741-.362-2.909-1.402-3.505-.157,.544-.02,1.383-.701,1.402v-3.504c-2.758-1.123-.244,3.027-2.103,2.804-.283-1.353-3.209-.061-2.103-2.804-2.045-.176-2.418,1.32-3.504,2.103 .338-4.113 6.274-6.324 4.205-10.513-1.445,3.928-4.236,6.511-7.009,9.112-.947-1.701-1.401-.437-2.103-1.402 2.54-1.349 7.563-7.184 6.308-7.71-3.52,5.141-10.93,6.377-12.64,13.315zm-39.95,16.821c.987-.929 2.371-5.042 3.504-3.504-1.223,2.764-5.595,6.065-4.206,9.111 .411-.624 1.473-3.998 2.103-2.103-3.542,8.141-9.166,17.932-7.709,28.736 3.58-17.914 9.988-32.999 21.728-42.754-2.042,2.631-4.523,4.822-6.308,7.709 5.761-2.607 6.275-8.481 9.812-11.915-.63,1.239-1.692,2.046-2.103,3.504 2.789-1.416 4.909-3.501 7.009-5.607-10.688-.68-13.869,11.691-21.027,16.823 5.653-9.533 12.724-17.648 23.83-21.728-14.303,2.176-21.138,14.74-26.633,21.728zm18.924-20.326c-1.887-2.616-7.875,2.254-9.112,4.906 4.276-.396 5.375-3.97 9.112-4.906zm6.307,4.907c-5.223,2.724-11.391,8.227-11.915,13.317 .207-.623 1.896-3.069 2.103-1.402-2.697,3.092-8.625,9.015-4.906,14.018 2.138-9.543 7.205-16.158 14.718-20.326-1.121,2.617-4.36,3.116-4.906,6.308 1.377-.21 1.39,.946 2.103,1.402-.925-1.754 2.771-2.194 .701-2.804-.168,.762-1.154,1.683-1.402,.701 2.508-4.268 6.12-7.431 11.214-9.112-.101,.828-1.248,1.589 0,2.103 .177-2.393 3.713-1.427 4.206-3.504-6.282,.733-14.252,1.701-18.223,5.607 1.711-2.042 6.665-4.523 6.304-6.308zm-15.419,14.017c-.04,.428-.104,.83-.701,.701-.157-.544-.02-1.383-.701-1.402-.364,3.616-1.278,3.498-2.803,4.906 1.778,.933-1.028,3.111-.701,4.906 2.25-.583 1.453-.597 2.804,.701 1.539-2.088 .145-2.562-.701-2.804 .578-2.25 3.966-5.341 2.803-7.008zm4.206,13.317c-2.156-2.996 2.899-6.309 1.402-8.411-1.934,9.049-14.896,10.8-12.616,21.728 1.298-3.608 2.535-7.277 4.206-10.513 1.206-.038 1.796,.54 2.103,1.402-.654,.748-2.585,.218-2.103,2.103 1.325-.157 1.546,.79 2.803,.701 1.081-2.19 .727-5.814 2.804-7.009-.161,4.837 1.104-.173 2.103,3.504 3.131-4.616 3.694-11.219 4.906-15.419-2.354,3.487-3.958,7.725-5.608,11.914zm-21.027,3.505c.769-.699 2.631-3.821 .701-4.906 .327,1.795-2.479,3.973-.701,4.906zm-7.71,18.223c2.01-6.639 5.706-15.314 5.607-21.728-2.696,5.953-6.089,14.932-5.607,21.728zm12.616-8.411c2.304-.067 3.219-5.145 2.103-6.308-.526,2.278-1.269,4.338-2.103,6.308zm13.317,3.504c-.701-3.302 2.997-5.84 .701-8.411 .024,2.784-3.396,7.351-.701,8.411zm-5.607,7.009c3.509-2.34 4.181-11.228 4.205-14.719-.59,5.718-4.046,8.571-4.205,14.719zm178.72-8.41c3.286-.452 4.705-2.771 7.009-4.205-3.51-1.759-6.23,1.139-7.01,4.205zm2.11-4.907c-1.892,.024-4.708,2.705-2.804,4.206 .86-1.473 1.93-2.733 2.8-4.206zm-198.36,14.018c.668-4.017 3.07-9.998 2.103-13.317-1.095,3.591-3.678,9.39-2.103,13.317zm7.009,51.162c-.86-12.144-1.343-24.029 2.103-33.643 .439,2.13-.897,6.037 .701,7.009 2.285-11.982 2.791-19.892 2.103-29.437-4.112,15.307-9.063,37.157-4.907,56.067zm10.513-33.64c.04,.428 .104,.83 .701,.701 1.244-6.47 4.26-14.89 2.804-21.727-1.331,6.844-3.596,14.907-3.505,21.027zm-15.419,39.95c-3.301-17.362 2.493-39.981 2.803-57.473-3.729,18.043-8.142,41.013-2.803,57.473zm-3.505-52.565c1.247,2.024-.138,6.679 2.103,7.709-.237-3.467 2.314-10.973 0-11.915-1.028,1.166 .083,6.313-2.103,4.21zm7.009,9.115c.228-3.992 3.425-8.705 1.402-12.616-.174,4.042-3.119,9.006-1.402,12.616zm203.96-8.415c2.387,.05 2.611-2.062 3.505-3.504-2.45-.118-2.2,2.466-3.5,3.504zm-143.68,19.625c3.346-5.069 5.82-14.733 6.308-20.326-2.36,7.336-5.47,13.156-6.31,20.326zm-70.791-4.21c-.848-4.835 1.377-10.283 0-13.317-.292,4.217-2.248,10.777 0,13.317zm200.45-6.3c-.272-2.873 4.327-4.51 2.103-7.009-.26,2.329-4.31,4.519-2.1,7.009zm-180.83,8.41c1.385-3.3 1.725-11.342 1.402-14.018-1.505,3.178-2.798,10.268-1.402,14.018zm200.46-4.91c2.96-.31 2.694-3.847 4.906-4.906-3.06,.23-4.02,2.54-4.91,4.91zm-217.28,17.52c.066-7.725 3.216-16.931 1.402-21.728-1.056,7.3-4.027,14.51-1.402,21.73zm204.66-7.71c.686-3.627 7.182-7.764 3.505-11.214-.27,4.19-4.99,7.61-3.51,11.21zm-32.94-.7c-.615-2.532 2.736-4.677 .701-6.308 .15,2.07-2.77,4.65-.7,6.31zm40.65,1.41c1.055-2.007 4.732-5.048 3.505-7.009-1.05,2-4.73,5.04-3.5,7.01zm-213.77,21.72c-.566-9.354-.86-16.596-2.103-25.933-.856,8.95-.858,18.43 2.103,25.93zm207.46-14.72c1.766-1.271 3.078-2.996 3.504-5.607-3.41,2.197-5.61,5.603-7.709,9.112 .824,.109 1.989-.121 2.103,.7-8.577,9.413-15.841,20.139-24.531,29.438 11.641-3.779 18.404-12.435 25.231-21.026 1.913-.063 1.411,1.167 2.804,0 2.989-9.036 11.812-14.32 11.915-22.429-5.16,2.55-8.9,6.52-13.31,9.82zm-26.63,32.24c.664-2.166 4.668-4.643 3.504-6.309-.75,2.08-5.34,3.97-3.5,6.31zm-8.41,14.72c3.213-1.927 4.876-5.404 8.411-7.009 .03,.965-.33,1.539-.701,2.103 5.291-3.587 9.67-8.086 14.018-12.615-5.506,1.741-8.188,10.027-13.316,9.812 2.495-2.411 5.216-4.597 7.009-7.71-5.93,3.89-12.7,10.66-15.42,15.42zm1.4-4.9c3.044-1.628 5.84-3.505 7.009-7.009-4.44,.23-4.66,4.69-7.01,7.01zm4.21-8.41c-.324,1.818-4.993,2.896-2.804,4.906 .25-1.89 4.78-3.11 2.8-4.91zm70.79-43.46c-3.383,.123-3.627,3.382-7.01,3.504 .458-2.793-2.664-2.008-4.906-2.103-.865,2.268 2.269,.536 1.402,2.804-3.224,1.587-9.401,3.493-8.411,7.009 9.3,1.4 12.68-7.41 18.93-11.21zm23.12,2.1c-2.642-.539-3.351,.855-5.607,.701-4.11,8.78 1.97,1.55 5.61-.7zm-201.85,10.52c-.25-2.85 2.96-5.877 .701-8.411 .25,2.85-2.96,5.87-.7,8.41zm181.53,2.1c4.948-3.229 9.734-6.62 14.018-10.513-7.37,.8-9.71,6.64-14.02,10.51zm-68.69,18.92c-1.18,.002-3.58,3.818-2.103,2.103 8.084-7.569 13.526-17.78 18.924-28.035-6.82,7.43-11.81,16.69-16.82,25.93zm-171.72,20.33c-1.701,.995-3.275,4.164-.701,5.606 .912-1.74-2.057-2.908 0-3.504 3.182,9.984 8.01,18.467 11.214,26.634-2.034-.108-1.992-5.897-4.205-3.505 6.725,10.098 14.739,22.64 25.232,26.634-7.613-6.639-14.553-13.949-20.326-22.429 .155-.546 .587-.814 1.401-.7-6.074-14.802-14.844-29.984-15.419-46.259-.196,1.598 .169,2.635 1.402,2.804v-6.309c.965-.03 1.539,.33 2.103,.701-.01-1.858 .389-4.127-1.401-4.205-.16,1.242 .706,3.51-1.402,2.804-1.104-8.043-1.52-14.869-2.804-23.831-1.685,6.643-.084,18.865 2.103,25.933-3.107,.894-4.583,10.722-1.402,9.111 1.371,3.55 1.294,8.53 4.205,10.53zm198.36-9.81c-2.303,5.179-11.201,7.481-11.915,11.915 3.718-3.058 7.766-5.785 11.915-8.411 .002,.703-.567,.834-.701,1.402 4.404-.28 6.508-6.561 10.514-4.906-3.364,1.074-3.351,5.527-7.009,6.308-.104-.934 2.85-2.115 .7-2.804-4.833,2.121-1.154,4.467-2.803,9.111 3.676,.019 5.133-2.606 2.803-4.906 8.245-.079 14.271-6.161 21.728-9.111 .31-4.597 3.109-6.703 7.009-7.71 1.028-1.542-.083-5.223 2.104-5.606 7.75,.608 12.877-3.899 13.316-8.411 7.223-2.59 15.031-4.594 17.522-11.915-11.577-2.279-19.102,7.396-26.634,13.317-7.373-3.706-10.89,7.514-16.12,10.513-4.885-3.312-13.747,3.336-11.915,9.112-4.504-4.355-6.914,2.602-10.514,3.504 .6-1.21 2.33-2.69-.01-1.39zm-52.57,2.1c3.342-2.733 4.196-7.953 9.111-9.111-2.523-4.107 2.862-10.056 6.308-12.616-.507-6.124 3.973-10.969 2.804-15.42-4.13,13.86-13.03,26.68-18.22,37.15zm31.54-32.24c.582-1.754 1.92-2.752 2.103-4.906-1.99-.08-2.74,4.68-2.1,4.91zm69.39-1.4c1.559-.544 3.801-.405 4.205-2.103-1.8-1.73-3.37,.74-4.2,2.1zm-229.19,22.43c-1.536-8.598-.232-17.52-2.103-24.531-2.059,7.75-1.468,18.55 2.103,24.53zm194.14-24.54c-3.918,3.33-8.595,9.621-9.812,13.317 2.83-4.88 7.69-7.73 9.81-13.32zm-16.82,25.94c7.106-7.847 14.385-15.521 19.625-25.232-7.48,7-15.33,17.38-19.63,25.23zm17.52-17.52c3.617-.588 3.937-4.474 5.607-7.009-3.36,.84-4.72,3.69-5.61,7.01zm8.41-4.21c.461-2.099 1.498,.67 2.803,0-.51-1.912 1.394-1.411 1.402-2.804-2.66-.76-6.11,1.29-4.2,2.8zm-161.9,5.61c-.188-2.792 1.766-4.937-.701-6.309 .43,1.9-.89,5.56 .7,6.31zm96.72,.7c-.074-2.216 3.096-4.793 1.401-6.308-.47,1.67-3.17,4.72-1.4,6.31zm-171.72,1.4c.171-2.348 1.508-4.418-.701-5.607 .427,1.68-.88,5.09 .701,5.61zm26.634,20.32c-.665-8.681 .459-19.149-2.103-25.933-.754,7.24-1.634,21.32 2.103,25.93zm171.01-16.12c1.353-2.854 4.832-3.579 5.607-7.009-2.92,.84-6.14,5.06-5.61,7.01zm-162.6,2.11c.093-3.026 .891-4.62-.701-7.009 .44,2.13-.897,6.04 .701,7.01zm130.36,4.9c.699-2.132 4.761-4.549 2.804-7.009-.54,2.29-4.01,5.29-2.8,7.01zm10.52,2.11c1.908-1.597 3.693-3.315 4.205-6.308-2.95-.14-4.35,7.96-4.21,6.31zm46.26,.7c-1.198,.451-5.116,4.521-2.103,2.804 .89-2.381 3.887-2.655 4.205-5.607 2.417-.386 3.062-2.546 4.205-4.205-2.84,1.61-4.84,4.06-6.31,7.02zm-44.86,25.93c12.917-9.512 24.85-20.007 35.045-32.241-11.53,10.44-26.24,21.42-35.05,32.24zm77.1-30.84c-.788-1.847-2.716,.94-3.504,1.401h3.504v-1.4zm-84.81,11.21c.412-1.73 4.166-3.724 2.103-5.606 .01,2.16-4.36,3.54-2.1,5.61zm-148.59,12.62c-.636-3.584-.296-11.834-3.504-10.514 1.502,3.17 1.189,8.15 3.504,10.51zm4.906,2.8c2.87-1.655-1.975-10.966-2.103-11.915-.095,5.03 .751,10.37 2.103,11.92zm234.09-12.61c-8.381,1.896-14.272,9.098-21.026,14.018-7.474,5.444-17.28,12.714-23.83,14.018 1.743,.105 .204,2.374 0,2.804 16.21-9.03 31.27-19.2 44.86-30.84zm-1.4,4.91c2.405-1.793-5.259,1.698-7.71,3.505-3.424,2.521-6.692,6.696-8.411,8.41 5.83-3.52 11.4-7.29 16.12-11.91zm-114.24,7c4.45-2.331 10.713-6.567 11.214-10.513-3.78,3.46-7.56,6.93-11.21,10.51zm156.29,0c4.562-1.754 9.352-6.993 9.812-10.513-3.55,3.22-7.91,5.63-9.81,10.51zm-217.27-4.2c-2.077-.493-1.111-4.028-3.504-4.205-.24,2.37 1.94,5.94 3.5,4.2zm69.39,4.2c3.63-1.977 6.339-4.875 8.41-8.41-3.87,1.74-5.87,5.35-8.41,8.41zm105.83-4.2c1.271-1.767 4.082-1.992 4.906-4.205-2.07,.53-5.92,2.92-4.91,4.2zm-35.74,1.4c2.836-.902 4.232-3.243 6.309-4.906-2.04,1.71-6.45,1.04-6.31,4.91zm-40.66,18.22c10.747-7.01 21.662-13.85 31.54-21.728-11.84,5.45-23.53,14.78-31.54,21.73zm16.83-9.11c-9.449,6.204-19.393,11.914-28.736,18.224 16.301-7.997 31.899-16.696 44.857-28.035-6.07-.15-11.14,6.56-16.12,9.81zm50.46,2.11c6.086-3.26 11.709-6.981 16.121-11.915-5.89,3.45-11.25,7.44-16.12,11.92zm-1.4,2.8c3.804-1.113 10.435-3.101 9.812-6.308-3.06,2.31-7.39,3.36-9.81,6.31zm-213.07-4.21c-.313-2.979-1.274-8.977-3.504-7.71 1.508,2.23 .775,6.7 3.504,7.71zm160.5,9.11c7.712-3.972 18.153-8.943 21.026-15.419-6.14,6.01-14.31,9.99-21.03,15.42zm86.91,2.11c-5.969,3.38-13.79,8.634-20.326,9.111 .544-.157 1.383-.02 1.402-.701-1.796,.074-3.342,.396-4.206,1.401 .825,.11 1.989-.12 2.103,.701-4.749,.624-8.961,1.786-12.615,3.505 .313-2.023 3.016-1.657 3.504-3.505-8.578,2.947-18.768,3.413-25.933,9.111 .816,.118 .761,1.108 .701,2.103 8.171-.006 12.199-4.153 18.223-6.308-.168,1-1.154,1.183-1.401,2.103 7.603-1.045 16.002-5.019 22.428-4.906-8.953,2.962-18.638,5.192-28.035,7.71 21.53-.898 35.74-9.116 49.763-17.522 3.311-7.206 14.364-10.396 12.616-20.325-4.104,6.816-15.089,9.903-16.821,16.821-2.157,.521-1.347-1.924-3.505-1.402-1.483,1.117-5.653,3.184-4.205,4.906 1.27-1.34 4.27-4.58 6.32-2.8zm-192.74-9.81c1.25-3.13-5.028-4.141-6.308-7.01 1.69,2.75 2.75,6.12 6.31,7.01zm71.49,2.8c3.936-2.606 8.756-4.327 11.214-8.41-4.06,2.02-10.47,5.4-11.21,8.41zm68.68,5.6c6.207-2.209 17.771-8.857 21.027-14.018-7.01,4.67-14.85,8.52-21.03,14.02zm-67.98-9.11c2.697-.807 3.959-3.05 6.308-4.205-3.24,.27-4.82,2.2-6.31,4.21zm-124.76,39.95c-6.62-4.13-10.992-14.236-16.821-16.821 11.231,15.403 24.204,29.063 44.156,35.745 .521-3.782 4.606-1.052 6.308,0-1.232,.403-4.118-.847-4.206,.701 12.778,6.755 29.556,9.333 51.866,8.411-1.989-2.356-14.263,1.144-17.522-2.104 12.428,1.584 18.838-2.765 31.54-.7 2.897-2.943 9.13-2.552 12.616-4.906-22.437,5.398-51.527,1.722-71.491-2.804 1.049-.119 2.587,.25 2.804-.701-11.035,.224-25.086-7.654-32.942-14.018-14.738-11.92-25.968-30.99-32.95-45.55 4.611,18.05 17.666,31.39 26.633,42.75zm2.804-35.74c-.37-2.9-.71-5.831-3.504-6.308 1.146,2.13 1.67,4.87 3.504,6.31zm-22.429,1.4c.905-1.639-1.842-5.61-3.504-7.01 .594,2.91 .825,6.19 3.504,7.01zm222.18-5.61c.154-.881 1.092-1.433-.7-1.402-9.67,7.386-21.974,12.137-30.839,20.326 11.95-4.87 21.48-12.16 31.54-18.93zm35.74,6.31c.073,.398 10.463-4.381 9.812-7.009-3.25,2.35-6.56,4.65-9.81,7.01zm-178.72-4.2c-1.792,.102-3.83-3.104-4.906-1.401 1.67,.02 3.34,3.59 4.91,1.4zm-56.074,7.71c-1.981-1.757-2.224-5.252-4.206-7.009 1.264,2.03 1.372,8.88 4.206,7.01zm196.94-.71c2.081-1.891 5.948-1.995 7.71-4.205-3.15,.82-7.23,.71-7.71,4.2zm-65.18,.71c3.075-.663 4.854-2.622 7.009-4.205-2.51,1.23-5.37,2.11-7.01,4.21zm-17.52,7.71c5.536-1.945 14.997-3.687 16.12-7.71-4.82,3.12-12.12,3.77-16.12,7.71zm-3.5,16.82c10.04-1.408 17.045-5.852 25.933-8.411 4.001-6.746 13.997-7.497 16.121-16.12-9.006,3.688-15.961,12.108-26.634,11.915-6.058,7.916-24.806,8.699-35.746,14.018 .825,.109 1.99-.12 2.103,.701-3.23-.859-6.218,2.146-8.411,0 1.019-.384 3.623,.818 3.505-.701-13.017,.795-32.505,2.874-44.156-2.804 5.902,8.476 23.391,4.462 35.044,5.607-1.578,1.225-5.249,.358-6.308,2.103 3.725,.081 .563,.132 .701,2.103 5.325-2.599 17.579-1.874 25.232-4.205-.544-.157-1.382-.02-1.402-.701 3.61-2.24 16.56-1.51 14.04-3.5zm111.44-17.52c2.296-1.459 8.201-2.99 7.709-4.906-2,1.75-8.37,2.83-7.71,4.91zm-32.24,6.3c8.992-3.391 18.824-5.94 26.634-10.513-9.65,2.73-18.58,6.18-26.63,10.51zm-37.85,7.71c10.581-5.306 21.393-10.381 30.138-17.522-6.163,2.014-10.365,5.988-16.12,8.411-.03-.965 .33-1.539 .701-2.103-2.807,.932-5.664,1.812-7.009,4.205 .544,.157 1.382,.02 1.401,.701-2.27,2.87-7.12,3.16-9.11,6.31zm-145.08-10.51c-1.789-1.503-3.667-6.583-5.607-5.606 1.499,1.79 3.782,6.47 5.607,5.61zm169.62,0c4.845-.762 7.219-3.995 10.513-6.308-3.36,1.53-8.36,1.96-10.51,6.31zm-49.76,0c4.044-.862 7.153-2.659 9.812-4.906-3.37,1.55-7.65,2.16-9.81,4.91zm-42.06-.7c2.946-.324 6.528-.014 7.71-2.103-3.4-.14-5.69,.84-7.71,2.1zm89.72,3.5c.009-1.393 1.912-.891 1.401-2.804-9.952,3.599-14.475,12.627-28.035,12.616-1.907,1.617-5.01,5.712-7.71,4.205 2.091-.479 4.29-.85 4.906-2.803-6.047,1.914-12.956,5.048-15.42,8.41-13.609,6.335-30.919,9.993-46.959,11.915 17.769,5.527 38.898-5.811 53.968-9.111-2.108,1.162-5.714,.827-6.308,3.504 3.181-1.491 7.632-1.713 9.111-4.905-1.206-.277-1.797,1.04-2.103,0 11.189-5.166 22.681-10.027 31.54-17.522 .109,.824-.12,1.989 .701,2.103 3.339-3.272 12.386-8.078 13.316-9.111-3.19,.79-5.31,2.64-8.41,3.51zm-159.1,2.81c-2.34-.932-2.441-4.1-4.906-4.906 .91,1.92 2.88,6.43 4.91,4.91zm207.46,2.1c2.156-.88 5.312-.762 6.308-2.804-2.16,.87-5.32,.76-6.31,2.8zm-195.55,10.51c-3.989-3.025-9.831-7.917-13.317-9.111 2.97,4.51 8.62,6.34 13.32,9.11zm175.22-5.6c3.811,.375 10.984-.876 14.018-3.504-4.42,1.41-10.7,.97-14.02,3.5zm-46.96,11.21c2.714,.377 2.886-1.787 4.905-2.104-.062,1.913 1.168,1.411 0,2.804 4.455-1.152 8.712-2.503 11.915-4.906-3.808,.18-8.186,3.476-10.513,2.804-1.065-2.941 4.996-5.489 8.41-4.205 2.574-4.202 9.18-4.372 12.616-7.71-10.87-.01-19.99,7.53-27.35,13.32zm-230.59-8.41c-2.015-2.371 2.697,.464 3.504-1.401-3.1-.171-5.106-1.436-8.411-1.402 .122,2.02 3.47,4.42 4.907,2.8zm135.27-.7c-2.997-.526-7.884-2.837-10.513-1.401 3.06,.46 8.33,2.38 10.51,1.4zm125.46,.7c-8.17,.6-5.37,3.4 0,0zm-263.53,6.31c2.711,.375 3.422-1.251 6.308-.7-.368-2.67-4.127-1.947-7.009-2.103-.053,1.21 .156,2.17 .701,2.8zm31.54-.7c11.557,2.528 1.908-3.162-2.103-2.103-.324,1.98 1.054,1.87 2.103,2.1zm109.34,.7c.711-2.401-5.265-1.669-5.607-.7 2.6-.5 3.01,1.19 5.61,.7zm40.65,.7c-1.375,.188-6.846,.062-7.009,2.103 3.28-1.07 11.53-2.72 7.01-2.1zm-4.21-2.11c-3.976,1.865-9.805,1.877-14.719,2.804-.859-.224-4.329,.112-2.103,.701 6.562-.214 12.368-1.184 18.223-2.104-.08-.85-.21-1.65-1.4-1.4zm45.56,5.61c2.411-1.261 7.925-3.679 6.308-4.906-11.157,6.364-24.043,11.001-36.446,16.12 10.61-2.01 21.6-6.74 30.14-11.21zm-83.41-2.8c1.891,1.379 6.125,.417 9.112,.701-1.28-2.76-7.05-2.33-9.11-.7zm-8.41,.7c2.164,2.286 15.036,3.642 21.027,2.103-5.14-2.17-16.26-1.87-21.03-2.1zm25.94,0c-5.52-1.83-6.06,2.57 0,0zm76.39,1.4c-.411,2.703 4.615,1.02 4.205-.701-2.14-.51-2.56,.72-4.21,.7zm-126.16,5.61c-4.981-.868-9.153-6.256-14.018-4.906 3.93,1.93 9.24,6.17 14.02,4.91zm117.05,1.4c1.646-2.794 7.158-1.72 7.009-6.308-3.788-.284-4.652,2.356-7.709,2.803 2.39,.3-1.06,3.85 .7,3.51zm-.7-2.8c-21.572,7.739-40.468,14.423-65.183,18.224 2.43,.514 6.648-.766 7.009,0-1.453,1.584-6.079-.005-7.009,2.103 4.965,.292 9.087-.258 13.317-.701 .711-3.281-5.265,.125-5.607-2.103 17.718,2.25 26.643-7.868 39.951-7.71 1.366-1.204 2.123-3.017 4.205-3.504-.695,2.938 3.443-.952 1.402,2.103 4.111-1.342 8.426-2.187 11.214-6.309-4.603,.082-8.358,4.709-11.915,3.505 4.68-1.4 8.66-3.49 12.62-5.6zm-65.88,9.11c-1.102,.067-2.43-.094-2.103,1.402h7.009c.892-3.228-3.555-1.118-4.206-2.804 4.1-.917 8.195,1.888 9.812-.701-9.643,.307-25.547-1.021-33.643,0 6.46,1.95 16.16,.65 23.13,2.1zm4.9,2.8c4.073,1.766 8.849-1.28 12.616-2.103-5.05-.14-9.04,.77-12.62,2.1zm-46.96,5.61c-1.244-2.512-7.189-4.002-9.111-3.505 3.04,1.17 5.81,2.6 9.11,3.5zm37.85,2.8c3.892-.219 1.5-.212-2.103-.701 1.475,.2-6.133-1.94-4.906,0 .58,.91 4.55,.84 7.01,.7zm191.34-103.03c2.006-.137 3.759-4.131 2.103-5.607-.94,1.63-1.15,3.98-2.1,5.61zm-47.66-56.77c-2.867,.194-7.613,2.168-5.607,4.906 .75-2.759 4.77-2.247 5.61-4.906z"/>
<path d="m278.95,63.685c-.261,1.396-5.153,4.176-8.41,4.906 2.18-2.26 5.56-3.321 8.41-4.906z"/>
</g>
<g fill="#fadb86">
<path d="m281.76,55.274c-.234,2.583-7.268,4.403-11.214,5.607 2.89-2.705 7.38-3.827 11.21-5.607z"/>
<path d="m249.52,100.83c2.863-7.65 6.529-14.497 11.915-19.625-2.72,5.004-7.1,14.398-11.92,19.625z"/>
<path d="m281.06,71.394c.461,2.099 1.498-.67 2.804,0-8.844,8.211-18.86,15.25-25.231,25.933 1.289-8.993 11.331-15.3 16.821-22.429-26.292,15.762-29.51,54.597-46.96,79.2 6.522-5.86 10.117-14.647 14.018-23.129-.174,8.006-6.656,15.769-10.513,22.429 .216,2.329 2.434-2.999 2.103,.7-.937,.884-1.377,2.107-2.804,.701-5.278,14.112-18.482,20.3-27.335,30.839-4.015-.178-7.852,2.494-11.915,4.205 1.68,1.177 5.535-1.447 7.009-2.803-2.218,4.204-11.266,6.879-15.419,9.812 .461-.94 1.498-1.305 2.803-1.401-4.222-1.637-8.345,2.858-13.317,2.804 .217,.951 1.755,.581 2.804,.701-.478,1.137-5.053,2.121-.701,2.103-7.609,1.007-19.488,1.967-28.035,.7 .284,1.585 4.108-.369 2.804,2.804 18.039,2.274 39.678-1.457 54.669-5.606-1.479,1.557-4.573,1.501-6.308,2.803 1.452,1.633 3.885-1.681 6.308-1.401-6.696,3.817-14.204,6.822-23.129,8.41 .02,.682 .858,.545 1.402,.701-8.755,1.282-32.158,.521-45.558-3.504 10.803,3.363 31.909,9.151 45.558,5.606 .882-.229 1.424-.955 1.402-2.103 1.562,2.482 7.583-.149 11.214,0-4.651,4.228-14.221,3.535-22.429,4.205-18.668,5.407-42.271-1.352-51.165-12.615 4.593,2.648 8.555,5.93 13.317,8.41-4.185-3.762-12.602-9.356-18.924-13.316-1.433,2.165 5.688,1.764 4.906,5.606-6.225,.079-9.092-9.078-16.121-10.513 2.828,4.42 3.227,8.347 8.411,11.214 1.06-2.023-4.028-3.894-4.906-6.308 6.359,2.989 13.225,11.537 21.026,15.419-7.361,4.328-18.067-7.93-23.129-14.018-3.736,.231-4.051-2.958-6.308-4.205 9.223,12.505 24.964,24.564 44.156,29.438-24.379-2.956-42.1-18.644-51.866-38.549 1.281-2.006 1.563-2.796 0-4.906-2.099,.461 .67,1.498 0,2.804-4.049-7.633-7.113-16.25-9.111-25.934 2.158-.521 1.347,1.924 3.504,1.402-.21-4.012-2.828-7.704-1.402-11.215 1.366,1.205 1.511,3.63 1.402,6.309 1.598-.972 .261-4.879 .701-7.009 .987-3.54 .582,3.491 .701,3.504 1.25,.139 .509-16.271 .701-19.624-1.005,.863-1.328,2.41-1.401,4.205-2.388-12.049 1.719-28.892 3.504-41.353-5.443,9.165-4.206,23.423-5.607,37.147-2.872-9.321 .334-18.155 1.402-25.232 .488-.556-3.279,3.024-2.103,1.402-2.553,3.521-.95,11.106-3.504,18.223-.098,.272-2.731,1.751-2.804,2.103-1.458,7.029 .22,15.439 .701,20.325 .952-.217 .582-1.754 .701-2.803 1.279,2.692 1.492,6.45 1.402,10.513 .106,4.329-.924-5.252-1.402-7.009-1.203,7.05 1.57,16.182 2.103,23.83-.567-.133-.699-.703-1.402-.7 5.278,22.991 16.339,40.198 35.044,49.763-9.99-.293-16.218-10.413-22.428-16.821-.306-1.04-.897,.276-2.103,0 .311-.624 .615-1.254 1.401-1.402-7.955-10.047-14.75-24.948-15.419-39.95 2.226,1.278 1.508,5.501 2.804,7.71-1.579-11.992-3.136-27.812-2.804-41.353-1.44,.196-1.398,1.872-2.103,2.804-.673-1.196-2.202-1.536-3.504-2.103 .799,9.591 1.958,12.044 1.402,21.728-4.173-4.606-3.067-17.776-2.103-25.232 1.304,2.673 2.568,.127 2.103-2.803 1.042,.594 1.014,2.256 1.402,3.504 2.446-4.393 4.177-8.664 4.205-16.821 .564,.371 1.138,.731 2.103,.701 2.151-12.334 5.211-23.759 9.812-33.643-.234,7.48-5.016,16.475-5.607,25.933 5.141-10.278 5.221-25.618 12.616-33.643-.173-.761-1.394-.476-1.402-1.402-8.139,8.343-11.558,18.719-14.718,30.839 .517-15.604 9.527-28.787 17.522-39.25-.788-1.847-2.716,.941-3.504,1.402-.735-2.161 4.303-4.558 4.906-7.71-4.294,2.014-6.867,5.749-9.111,9.812 2.524-5.74 9.208-21.332 20.326-21.026 .488,2.649 .915,3.404 0,5.607 1.94,.837 3.612-3.8 1.401-4.206 2.193,.144 5.146-.473 6.308,.701 .479,4.895 3.493,7.254 7.009,9.111 .559-3.596-1.476-4.598-1.401-7.709 2.489,1.016 2.682,4.327 2.803,7.709 1.333-2.832 3.557-.994 1.402-4.906 2.172,1.508 2.854,.826 .701-.701 2.84-2.107 3.163,4.29 4.206,6.308 2.489-2.085-1.194-3.899-.701-6.308 1.556,.78 1.898,2.774 3.504,3.504 1.68,.278-.389-3.192 2.103-2.103 1.756,1.153-2.493,6.794 2.804,5.607 4.111,16.878-5.529,26.23-9.112,40.651-2.167-1.988 1.222-4.345 .701-7.009-2.65,1.556-2.268,6.144-4.906,7.71 .069,2.44-1.552,6.812-2.103,6.308 .856-5.686 3.28-9.803 4.906-14.718 5.253,.813 3.882-4.996 5.607-7.71-2.316,1.188-2.609,4.4-3.504,7.009-.687-3.969 3.271-9.335 2.803-15.419h2.103c.858-6.231-1.244-9.503-1.402-14.719-1.338,5.253 1.306,13.113-2.804,16.821-1.181-2.605 .751-8.109 0-12.616-2.449,8.717-1.7,23.077-8.411,29.437 1.859-10.783 8.505-20.43 5.607-33.643-.419,16.234-5.737,27.904-10.513,41.353 4.647-1.519 .854,9.22 2.103,1.402-.94,.142-1.305,2.911-1.401,0-3.436,1.705-2.852,7.428-4.206,11.214 2.342-1.396 1.933-5.543 3.504-7.709 1.941,2.444-.921,6.061-.701,9.111 1.232-3.44 5.537-3.809 5.607-8.411-.728,11.221-4.692,27.31-2.804,41.352-3.478-6.346 .085-13.878-1.401-20.325-2.506,5.862-.844,13.912-.701,21.026-1.756-1.748-1.326-5.683-2.103-8.41-1.131,6.045 1.507,14.374 2.804,20.325 2.31-2.356-2.094-3.945-.701-7.71 2.049,1.456 2.067,4.941 2.804,7.71 1.887-2.786-2.334-8.622-.701-11.214 3.108,2.499-.019,11.233 4.906,11.915-2.815,5.604 4.267,10.963 5.607,16.821-5.215-4.32-7.424-12.302-10.514-16.821-1.806,10.3 10.752,15.771 11.214,23.83 3.148,2.927 5.854,6.295 10.513,7.71-.141-2.896-4.472-1.603-4.205-4.906 9.796,3.425 21.557,4.733 34.343,.7-.078,1.324-2.317,.486-2.103,2.104 4.315-.712 10.904-1.686 9.812-5.607 2.173,.07 3.348-.857 4.906-1.402-.113-.821-1.278-.591-2.103-.7 4.498-.651 7.492-3.885 13.317-4.906-.557,1.546-3.295,.91-3.505,2.804 2.555-1.417 5.532-2.411 7.009-4.906-1.29,7.273-20.257,14.22-32.241,18.924-5.002,1.963-16.181,1.662-20.326-.701 5.676,6.514 21.418,4.049 30.138,2.103-3.978-1.394-9.536,1.667-15.419,.701 1.115-1.419 15.938-2.494 12.616-4.205 4.202,.434 11.461-4.185 18.924-6.309-4.635,3.543-10.612,5.743-16.821,7.71 11.578,.828 17.999-9.566 28.035-12.616 14.073-9.056 22.084-24.175 28.736-40.651-.393-1.583-1.093,.851-2.103-.7 .1-2.237 2.592-2.081 2.804-4.206-.306-1.04-.896,.277-2.103,0 2.576-11.207 9.775-17.792 13.316-28.035 .995-.06 1.985-.116 2.103,.701 6.178-11.344 11.833-23.211 22.429-30.138 .089-1.257-.858-1.478-.701-2.803 4.562-3.614 8.874-7.48 16.121-8.411-4.171,3.773-10.34,5.547-14.719,9.111 5.881-.432 11.022-7.663 19.624-7.709-.461-.941-1.498-1.306-2.803-1.402 5.273-2.559 15.356-2.266 21.026,0-10.75,.973-20.89,3.112-29.46,7.786zm-140.88,3.504c.217-4.886 1.024-8.952 0-14.718 .52,4.971-2.14,10.466 0,14.718zm-23.83,84.812c-8.96-22.875-2.222-48.05 4.906-67.986 3.407-9.53 9.39-20.563 5.607-30.138-.352,21.6-17.158,39.592-14.719,61.678-1.013,2.959-2.125,5.818-4.205,7.71 3.551,7.765-.752,20.635 3.504,30.138 3.841-1.011 2.799,7.594 6.308,9.112-.18-4.22-3.37-6.06-1.4-10.51zm9.81,18.92c-3.595-3.413-4.036-9.981-8.411-12.616 2.81,3.74 3.92,12.9 8.41,12.62zm-12.62-131.07c1.809,.341 3.973-2.479 2.103-3.504-.62,1.239-1.68,2.046-2.1,3.504zm-8.41,8.411c1.013-1.089 1.474-2.731 2.103-4.205-2.45-.771-2.75,4.174-2.1,4.205zm-.7,5.607c-2.345,.486-4.941,4.368-4.206,5.607 1.155-1.182 1.523-3.15 2.804-4.206 .541,4.065-3.752,6.97-2.103,9.812 2.592-4.89 6.257-12.426 6.308-17.522-1.2,3.134-5.76,4.721-2.8,6.309zm4.91-.701c-.178-2.08 2.772-3.458 0-4.205-.55,.486-1.56,3.91 0,4.205zm5.61,10.513c1.717-2.956 1.127-8.218 2.103-11.915-3.24,2.532-1.52,9.493-2.1,11.915zm-7.01,42.756c2.667-7.846 4.207-16.819 6.308-25.232 5.478-1.805 10.334-22.942 8.411-28.736-.95,3.021-1.589,6.354-3.504,8.411 .599-1.428-.61-4.354-1.402-2.103-.442,4.705-2.025,14.323-7.009,16.821 .28-3.94 4.617-7.513 2.804-11.214-2.824,13.998-14.481,22.897-14.719,37.147 2.202-5.047 3.037-15.178 7.009-16.121-1.944,8.266-8.261,15.061-3.504,24.531-1.042,1.061-1.129,3.076-1.402,4.906 5.391-9.328 6.204-23.233 11.915-32.241-2.29,8.345-4.7,16.771-4.92,23.831zm.7-37.149c.257-1.211 2.119-4.333 .701-4.906-.109,2.747-3.412,6.4-.701,7.709-2.687-.771-3.362,4.051-2.804,4.206 3.633-1.606 7.176-10.446 6.308-11.915-.76,1.621-1.96,6.415-3.51,4.906zm-15.422,16.121c1.255-2.192 5.314-8.461 3.504-9.111-.099,3.655-4.423,6.767-3.504,9.111zm4.907-6.308c-1.697,4.151-5.794,9.614-4.906,14.018 1.108-4.356 5.841-12.254 4.906-14.016zm-1.402,16.826c1.791,1.581 2.21-4.715 3.504-7.71 1.463-3.384 5.565-7.021 3.504-9.812-1.69,6.482-5.091,11.256-7.007,17.522zm-1.402,4.2c-2.271-1.642 2.479-5.86 0-7.709-1.576,2.37-1.102,10.35 0,7.71zm-6.308,7.71v2.803c.224,3.42 1.107-.675 .701-2.103 2.124-4.336 1.112-7.75 2.103-12.616-.155-.546-.587-.815-1.402-.701-.446,4.23-1.087,8.26-1.402,12.62zm3.504,32.94c-1.167-4.449-1.167-13.774 0-18.224 .909,2.035 .909,4.975 0,7.009 .939,1.232 .831,7.716 1.402,4.206 1.476-9.062 .716-25.238 1.402-30.839-1.514,1.523 .24,6.314-2.103,7.009-.923-2.172 2.077-3.888 0-4.906-2.896,8.23-4.733,28.69-.701,35.74zm28.733-27.33c.463-3.06 2.385-8.336 1.401-10.513-.69,2.83-2.52,8.19-1.4,10.51zm-16.12,3.5c2.684-.674 1.931-6.986 1.402-6.308-.17,2.4-1.77,3.37-1.4,6.31zm12.62,10.52c-.378-3.608 .813-12.473-.701-12.616 .38,3.61-.81,12.47 .7,12.62zm-12.62,4.9c.383-1.019-.819-3.622 .701-3.504 .007,1.027-.265,5.735 .701,3.504 .212-3.664 1.06-8.822-.701-10.513 1.95,5.25-4.97,7.4-.7,10.51zm.7,5.61c-.703,.002-.834-.567-1.401-.701v2.804c.965,.03 1.539-.33 2.103-.701 .109,.825-.121,1.989 .701,2.103 .329-1.446 1.029-4.491-1.402-4.906v1.41zm-10.509,9.81c.937,.698 1.376,1.895 2.804,2.103-1.55-2.889 .392-9.27-2.103-11.215-.431,4.16 1.739,6.76-.701,9.12zm4.909,1.4c.052-2.985 1.172-4.902 .701-8.41h-2.103c2.543,3.61-1.071,5.12 1.403,8.41zm4.9,5.61c-.649-3.79 .476-9.354-2.103-11.215-.36,4.8 .95,7.92 2.1,11.21zm2.81-.7c-1.779-1.259 .429-6.503-2.103-7.009-.17,2.76-.08,8.91 2.1,7.01zm-5.61,18.92c-6.234-4.98-8.548-13.88-11.915-21.728 1.755,6.89 2.439,14.85 6.308,19.625-.127-1.529 .574-2.229 2.103-2.103 .346,1.8 2.074,5.82 3.504,4.21zm4.91,.7c2.22,2.111 3.945,8.502 7.71,4.906-5.054-5.997-8.857-15.146-11.915-21.026-.197,5.112 .991,10.485 4.205,14.718 .67-1.305-2.099-2.342 0-2.803 .25,1.665 3.383,4.03 1.402,5.606-.37-.28-1.04-3.41-1.4-1.41zm3.5-8.41c1.236,2.056 2.229,8.022 5.607,5.607-1.445-.19-.167-3.104-2.103-2.804-.157,.544-.019,1.383-.701,1.402-.586-3.826-.768-6.867-2.804-10.514-1.551,1.01 .882,1.71-.701,2.103-.828-1.041-.606-3.132-2.804-2.804-.727,8.489 4.96,16.495 11.214,20.326-.039,.896-.898,.971-.701,2.103 1.967,.955 8.13,6.603 8.411,.701-4.743-.14-4.879-7.266-10.513-8.411-1.314,.168 .398,1.154-.701,1.402-2.58-1.43-5.88-5.8-4.22-9.12zm35.04,14.72c7.5,3.51 18.586,2.788 25.933-.7-7.57,2.56-19.79,2.17-25.93,.7zm.7,16.12c3.871,.38-3.45-.681-3.504-.701-5.059-1.932-13.417-8.419-17.522-8.411 6.3,3.74 11.62,8.47 21.02,9.11zm11.92-4.2c-7.327-1.083-14.495-2.326-20.325-4.906 3.35,4.59 14.1,5.52 20.32,4.91zm-14.72,5.6c-7.551-1.798-15.282-7.142-20.326-9.111 5.05,4.3 13.05,9.38 20.33,9.11z"/>
<path d="m206.76,176.53c2.229-2.444 4.762-4.584 7.71-6.308-.02-.682-.858-.544-1.401-.701 3.083-3.692 6.551-7 9.111-11.214-.32,5.32-8.45,14.88-15.42,18.22z"/>
<path d="m210.27,169.52c.885,3.237-4.158,6.577-7.71,7.71 2.04-3.1 5.21-5.06 7.71-7.71z"/>
<path d="m132.47,74.898c2.777,2.751-2.463,8.434-2.804,12.616-1.13-3.472 2.74-7.985 2.8-12.616z"/>
<path d="m93.919,62.283c-3.4,4.776-5.466,10.888-8.411,16.121-.801,1.572 .203-5.113 1.402-7.71 1.505-3.26 5.495-7.046 7.009-8.411z"/>
<path d="m77.799,189.14c.133-.796 .703-.39 .701,0 .951-.217 .582-1.755 .701-2.804 9.749,15.545 20.461,33.657 41.353,35.745 13.297,7.55 36.606,8.645 56.772,7.009-.639-2.662-2.817-.513-4.906-.701 1.232-2.038 4.14-2.401 7.709-2.103-.248,.921-1.234,1.103-1.401,2.103 6.739,3.492 12.894-.662 21.026-1.401-4.258-1.627-6.415,1.513-11.214,.701 13.065-3.757 26.742-6.901 37.848-12.616-7.984,.664-16.906,6.454-26.634,7.71 5.933-5.175 13.943-6.733 21.026-9.112 7.496-2.516 13.385-5.15 20.326-9.111 8.035-4.585 15.123-9.974 23.83-12.615-16.517,16.19-39.075,26.341-64.481,33.643 1.386,2.012 4.374-.243 6.308,0-13.257,6.115-29.027,8.66-45.558,9.111-32.193,.877-62.041-11.138-76.396-30.839 .87-2.895 2.038,.266 3.504,.7-3.9-4.75-6.597-10.7-10.529-15.41zm17.522,21.73c-2.526-1.446-3.782-4.161-6.308-5.607 1.274,2.25 4.56,6.16 6.308,5.61zm7.709,6.31c-2.289-.513-6.225-6.073-7.009-3.505 2.628,.43 4.909,4.87 7.009,3.5zm7.01,4.2c-2.252-.348-4.903-3.935-6.308-2.804 1.66,.94 4.71,4.13 6.31,2.8zm8.41,4.21c-2.009-.362-4.94-3.425-6.308-2.104 1.1,1.13 9.09,3.75 6.31,2.1zm49.76,6.31c-2.821,.45-7.453-.911-9.111,.701 2.82-.45 7.45,.91 9.11-.7z"/>
<path d="m230.59,209.47c4.739-2.97 8.646-6.774 14.719-8.41-4.37,3.34-8.73,6.69-14.72,8.41z"/>
<path d="m211.67,202.46c.385,1.695-5.752,2.268-2.103,2.804-6.194,.241-14.233,3.729-22.428,4.205 7.04-3.42 16.39-3.38 24.53-7z"/>
<path d="m195.55,196.85c17.323-7.441 33.752-15.776 48.361-25.933-1.601-.867-3.874,3.579-7.009,3.505 3.016-3.292 7.445-5.171 10.513-8.411 2.312,1.907-2.884,2.21-2.804,4.206 10.355-5.766 15.133-17.108 25.232-23.13-2.36,5.35-7.505,7.915-10.514,12.616 7.874-4.978 16.1-15.672 22.429-24.531-5.111,14.748-20.926,24.864-31.54,36.446-13.641,9.956-28.417,18.775-45.558,25.231 .972-1.831 3.621-1.985 5.607-2.803-1.89-1.156-5.666,1.786-8.411,2.103 .113,.821 1.278,.591 2.103,.7-.212,1.403-4.946,2.229-2.804,0-6.466,2.879-14.409,4.281-21.727,6.309 .919-2.594 11.079-3.285 15.419-5.607-2.389-1.625-3.982,.286-7.009-.701 5.548-4.03 12.046-7.111 17.522-11.214 .862,1.825-4.251,3.671-6.309,4.906 .485,1.75 1.87-1.301 3.505-.701-3.154,2.453-6.376,4.839-11.214,5.607 11.841-1.944 22.317-11.324 33.643-16.12-5.97,6.86-20.52,11.24-29.44,17.5z"/>
<path d="m271.94,82.608c-1.345,4.036-6.98,9.836-10.514,14.018-4.798,11.089-9.348,22.426-14.018,33.643 3.09-18.18 12.65-35.944 24.53-47.662z"/>
<path d="m283.86,76.3c-10.857,8.545-23.136,27.788-30.138,44.857 4.25-17.95 15.23-35.236 30.14-44.86z"/>
<path d="m288.77,70.693c-3.288,3.721-7.866,6.151-11.915,9.111 2.64-4.354 7.42-6.591 11.91-9.111z"/>
<path d="m269.14,105.74c1.662-8.154 11.252-14.445 16.12-21.728-8.755,4.562-11.821,14.812-19.624,20.326 9.167-14.239 19.238-24.198 34.343-31.54-1.325-2.384-2.457,1.2-4.205,.701 3.464-3.29 17.82-7.477 20.326,0-11.236,1.847-20.07,6.097-25.934,13.317-1.598,.196-2.635-.169-2.803-1.402-5.31,7.555-12.84,12.875-18.24,20.324z"/>
<path d="m290.87,89.617c-1.615,3.532-7.562,8.787-11.915,11.915 .206-1.429 1.896-1.374 2.103-2.803-.521-.926-3.476,1.617-4.906,2.103 4.069-9.587 13.38-12.812 22.429-18.223 .373-.223-2.579-.925-2.103-1.402 .849-.848 2.307,.846 2.804,.701 4.486-1.313 12.832-6.542 19.624-6.308-4.712,2.296-9.672,4.345-14.718,6.308 .133-.568 .703-.699 .7-1.402-8.688,3.928-16.245,8.987-22.428,15.419 2.14,.018 5.4-4.877 8.42-6.306z"/>
<path d="m335.02,126.76c.821,.113 .591,1.278 .7,2.103-8.012,5.071-14.785,11.381-23.129,16.12 3.51-7.24 16.95-10.62 22.43-18.22z"/>
<path d="m330.82,137.98c.02-.682 .858-.544 1.402-.701-5.654,6.027-12.668,10.695-20.326,14.719 5.95-5.04 12.34-9.63 18.93-14.02z"/>
<path d="m244.61,194.75c2.61-4.865 8.296-6.656 13.317-9.111-4.08,3.4-8.22,6.74-13.32,9.11z"/>
<path d="m327.31,168.82c1.753,1.349-2.881,2.213-3.505,3.505-2.54-2.15 3.19-1.91 3.51-3.5z"/>
<path d="m352.55,180.73c2.421-5.993 9.665-13.229 13.317-20.325-.54,5.13-8.51,14.83-13.32,20.33z"/>
<path d="m119.85,21.631c-2.784,4.459-9.753,4.732-12.616,9.111 2.809-.558 .909,5.216 2.103,2.103 1.744,.105 .205,2.373 0,2.803-9.594-6.364 5.51-11.382 10.52-14.017z"/>
<path d="m112.14,28.64c.946-2.325 5.563-.978 6.308-3.504 1.14,1.64-3.59,3.397-6.31,3.504z"/>
<path d="m123.36,23.734c1.255,.526-3.768,6.361-6.308,7.71 .702,.965 1.155-.299 2.103,1.402 2.773-2.601 5.563-5.184 7.009-9.112 2.069,4.189-3.867,6.4-4.205,10.513 1.086-.783 1.459-2.278 3.504-2.103-1.107,2.743 1.82,1.451 2.103,2.804 1.859,.223-.655-3.927 2.103-2.804v3.504c.682-.019 .544-.858 .701-1.402 1.04,.596 1.507,1.764 1.402,3.505 2.268,.866 .536-2.268 2.803-1.402-.143,2.193 .473,5.145-.701,6.308-1.041-.306 .276-.896 0-2.103-3.768-.573-3.605,3.558-4.206,4.206-3.355-.164 .538-2.486 0-4.206-1.398,.705-1.106,3.099-3.504,2.804 .365-1.037 1.037-1.767 1.402-2.804-2.484-.148-1.384,3.288-4.205,2.804-.104-2.674 1.764-3.375 2.103-5.607-2.526,.277-2.139,3.468-3.504,4.906-1.87-1.465 1.746-3.347 1.402-5.607-.972,1.131-1.986,2.219-2.804,3.504-2.042-.983 1.243-2.415 .701-4.205-2.503,.3-.485,5.122-4.206,4.205 .011-2.559 1.992-3.147 2.804-4.906-1.786-1.512-3.115,3.396-5.607,3.504-.089-1.257 .858-1.478 .701-2.803-1.101,.301-.599,2.205-2.804,1.402 .173-1.877 2.953-2.665 1.402-4.206-1.595,.508-.209,3.997-2.804,3.504 1.73-6.936 9.14-8.172 12.64-13.315z"/>
<path d="m97.423,32.145c-11.106,4.079-18.177,12.194-23.83,21.728 7.158-5.132 10.339-17.503 21.027-16.821-2.1,2.106-4.22,4.191-7.009,5.607 .411-1.458 1.473-2.265 2.103-3.504-3.537,3.434-4.051,9.308-9.812,11.915 1.785-2.887 4.267-5.078 6.308-7.709-11.739,9.755-18.148,24.84-21.728,42.754-1.456-10.804 4.167-20.595 7.709-28.736-.63-1.895-1.692,1.479-2.103,2.103-1.39-3.046 2.982-6.347 4.206-9.111-1.133-1.538-2.518,2.576-3.504,3.504 5.495-6.991 12.33-19.555 26.633-21.73z"/>
<path d="m89.714,44.761c3.971-3.906 11.941-4.874 18.223-5.607-.493,2.078-4.029,1.111-4.206,3.504-1.248-.514-.101-1.274 0-2.103-5.095,1.681-8.706,4.844-11.214,9.112 .248,.981 1.234,.061 1.402-.701 2.07,.609-1.626,1.049-.701,2.804-.713-.456-.725-1.612-2.103-1.402 .546-3.192 3.785-3.691 4.906-6.308-7.513,4.168-12.58,10.783-14.718,20.326-3.719-5.002 2.209-10.926 4.906-14.018-.207-1.667-1.896,.779-2.103,1.402 .524-5.09 6.692-10.592 11.915-13.317 .362,1.785-4.592,4.266-6.306,6.308z"/>
</g>
<g>
<path d="m140.18,60.18c1.024,5.767 .217,9.832 0,14.718-2.14-4.252 .52-9.747 0-14.718z"/>
<path d="m107.24,51.77c-.628,1.474-1.089,3.116-2.103,4.205-.66-.031-.36-4.976 2.1-4.205z"/>
<path fill="#fadb86" d="m90.415,53.872c-1.212,4.201-1.775,10.803-4.906,15.419-.999-3.677-2.264,1.333-2.103-3.504-2.077,1.194-1.723,4.818-2.804,7.009-1.257,.089-1.478-.858-2.803-.701-.483-1.885 1.449-1.355 2.103-2.103-.306-.862-.897-1.439-2.103-1.402-1.67,3.236-2.908,6.905-4.206,10.513-2.28-10.928 10.682-12.678 12.616-21.728 1.497,2.102-3.558,5.415-1.402,8.411 1.651-4.188 3.255-8.426 5.608-11.914z"/>
<path d="m107.24,55.274c-.051,5.096-3.716,12.632-6.308,17.522-1.649-2.843 2.644-5.748 2.103-9.812-1.281,1.056-1.649,3.024-2.804,4.206-.736-1.239 1.861-5.121 4.206-5.607-2.97-1.589 1.59-3.176 2.8-6.309z"/>
<path d="m117.05,59.479c-.976,3.697-.386,8.959-2.103,11.915 .58-2.422-1.14-9.383 2.1-11.915z"/>
<path d="m112.84,90.318c-5.711,9.007-6.524,22.913-11.915,32.241 .273-1.83 .36-3.846 1.402-4.906-4.757-9.471 1.561-16.266 3.504-24.531-3.972,.942-4.807,11.074-7.009,16.121 .237-14.25 11.895-23.149 14.719-37.147 1.813,3.702-2.524,7.274-2.804,11.214 4.984-2.498 6.566-12.117 7.009-16.821 .792-2.252 2.001,.675 1.402,2.103 1.915-2.057 2.554-5.39 3.504-8.411 1.924,5.794-2.933,26.931-8.411,28.736-2.101,8.413-3.64,17.386-6.308,25.232 .24-7.06 2.65-15.486 4.92-23.832zm.7-4.906c.022-1.438 3.98-4.628 .701-4.906 .63,2.089-2.18,4.267-.7,4.906zm-6.3,9.111c.148-.786 .778-1.091 1.402-1.402-1.375,7.273-7.172,13.85-5.607,21.728 1.854-10.297 7.652-20.38 9.111-28.736-.41,5.049-5.42,5.659-4.9,8.409z"/>
</g>
<g fill="#fadb86">
<path d="m114.24,80.506c3.28,.278-.679,3.468-.701,4.906-1.48-.639 1.33-2.817 .7-4.906z"/>
<path d="m61.678,65.787c.099,6.413-3.597,15.089-5.607,21.728-.482-6.796 2.911-15.775 5.607-21.728z"/>
</g>
<g>
<path d="m112.14,72.095c.868,1.469-2.675,10.309-6.308,11.915-.559-.154 .117-4.976 2.804-4.206-2.711-1.31 .592-4.962 .701-7.709 1.418,.573-.443,3.695-.701,4.906 1.56,1.509 2.76-3.285 3.51-4.906z"/>
<path fill="#fadb86" d="m80.602,74.898c-.024,3.491-.696,12.379-4.205,14.719 .159-6.148 3.615-9.001 4.205-14.719z"/>
<path d="m325.91,79.104c-6.137,.404-9.89,3.193-15.419,4.206 3.27-2.434 12.77-5.809 15.42-4.206z"/>
<path d="m96.723,84.01c1.81,.65-2.249,6.919-3.504,9.111-.92-2.343 3.404-5.455 3.504-9.111z"/>
<path d="m93.218,100.83c-.888-4.403 3.209-9.866 4.906-14.018 .936,1.764-3.797,9.662-4.906,14.018z"/>
<path d="m103.73,86.113c2.061,2.791-2.042,6.428-3.504,9.812-1.294,2.995-1.714,9.291-3.504,7.71 1.913-6.266 5.314-11.04 7.004-17.527z"/>
</g>
<g fill="#fadb86">
<path d="m112.14,86.113c-1.459,8.356-7.258,18.439-9.111,28.736-1.565-7.878 4.232-14.454 5.607-21.728-.624,.311-1.253,.616-1.402,1.402-.52-2.751 4.49-3.361 4.9-8.411z"/>
<path d="m79.901,86.814c1.457,6.837-1.56,15.257-2.804,21.727-.596,.129-.661-.273-.701-.701-.09-6.12 2.175-14.183 3.505-21.026z"/>
<path d="m74.995,99.43c.323,2.675-.017,10.718-1.402,14.018-1.396-3.75-.103-10.84 1.402-14.02z"/>
</g>
<g>
<path d="m95.321,100.13c2.479,1.849-2.271,6.068 0,7.709-1.102,2.64-1.576-5.34 0-7.71z"/>
<path d="m363.06,104.34c2.042-.003 .701,4.843 0,6.308-.87,1.99 .54-4.15 0-6.31z"/>
<path d="m356.75,105.04c1.44,2.404-.966,6.957-2.104,9.112-.73-1.69 1.67-6.25 2.1-9.11z"/>
<path d="m93.218,112.75c2.077,1.019-.923,2.734 0,4.906 2.343-.694 .589-5.485 2.103-7.009-.686,5.601 .074,21.778-1.402,30.839-.571,3.51-.463-2.974-1.402-4.206 .909-2.034 .909-4.974 0-7.009-1.167,4.449-1.167,13.774 0,18.224-4.032-7.05-2.195-27.51 .701-35.74z"/>
<path d="m346.24,113.45c.325-.835-4.264,4.905-7.009,5.607 1.5-2.72 4.17-4.24 7.01-5.61z"/>
</g>
<g fill="#fadb86">
<path d="m276.15,116.25c-.103,8.108-8.926,13.393-11.915,22.429-1.393,1.167-.891-.063-2.804,0-6.827,8.592-13.591,17.247-25.231,21.026 8.69-9.299 15.954-20.024 24.531-29.438-.113-.821-1.278-.591-2.103-.7 2.099-3.509 4.299-6.915 7.709-9.112-.426,2.611-1.738,4.335-3.504,5.607 4.39-3.31 8.13-7.28 13.3-9.82z"/>
<path d="m239.7,152c1.164,1.666-2.84,4.143-3.504,6.309-1.84-2.35 2.75-4.24 3.5-6.31z"/>
<path d="m243.21,157.6c-1.793,3.113-4.514,5.299-7.009,7.71 5.129,.215 7.811-8.071 13.316-9.812-4.348,4.529-8.727,9.028-14.018,12.615 .371-.563 .731-1.138 .701-2.103-3.535,1.604-5.198,5.082-8.411,7.009 2.72-4.77 9.49-11.54 15.42-15.43z"/>
<path d="m285.26,127.46c-.99-3.516 5.188-5.421 8.411-7.009 .866-2.268-2.268-.536-1.402-2.804 2.242,.095 5.364-.691 4.906,2.103 3.383-.122 3.627-3.382 7.01-3.504-6.25,3.8-9.63,12.61-18.93,11.21z"/>
</g>
<g>
<path d="m106.54,118.35c.529-.678 1.282,5.634-1.402,6.308-.38-2.94 1.22-3.91 1.4-6.31z"/>
</g>
<g fill="#fadb86">
<path d="m321.71,119.06c2.257,.154 2.966-1.24 5.607-.701-3.65,2.24-9.73,9.47-5.61,.7z"/>
<path d="m255.12,123.96c-5.397,10.255-10.84,20.466-18.924,28.035-1.478,1.716 .923-2.101 2.103-2.103 5.01-9.25 10-18.51 16.82-25.94z"/>
<path d="m62.379,159.71c-3.181,1.61-1.705-8.218 1.402-9.111-2.187-7.068-3.787-19.29-2.103-25.933 1.284,8.961 1.7,15.788 2.804,23.831 2.108,.706 1.242-1.562 1.402-2.804 1.791,.078 1.391,2.347 1.401,4.205-.563-.371-1.138-.731-2.103-.701v6.309c-1.233-.169-1.598-1.206-1.402-2.804 .575,16.274 9.345,31.457 15.419,46.259-.814-.114-1.247,.154-1.401,.7 5.772,8.479 12.713,15.79 20.326,22.429-10.493-3.994-18.507-16.536-25.232-26.634 2.213-2.393 2.171,3.396 4.205,3.505-3.204-8.167-8.032-16.649-11.214-26.634-2.057,.596 .912,1.764 0,3.504-2.575-1.442-1-4.611 .701-5.606-2.911-2.02-2.834-7-4.205-10.53z"/>
<path d="m264.94,161.81c3.6-.902 6.01-7.859 10.514-3.504-1.832-5.776 7.03-12.425 11.915-9.112 5.23-2.999 8.747-14.219 16.12-10.513 7.532-5.922 15.057-15.597 26.634-13.317-2.491,7.321-10.3,9.325-17.522,11.915-.439,4.512-5.566,9.02-13.316,8.411-2.187,.384-1.075,4.064-2.104,5.606-3.899,1.007-6.699,3.113-7.009,7.71-7.457,2.95-13.482,9.032-21.728,9.111 2.33,2.3 .873,4.925-2.803,4.906 1.648-4.645-2.03-6.99 2.803-9.111 2.149,.688-.805,1.87-.7,2.804 3.658-.78 3.645-5.233 7.009-6.308-4.006-1.654-6.109,4.626-10.514,4.906 .134-.568 .703-.699 .701-1.402-4.149,2.626-8.197,5.354-11.915,8.411 .714-4.434 9.612-6.736 11.915-11.915 2.34-1.31 .61,.17 0,1.39z"/>
<path d="m246.01,125.36c-.183,2.154-1.521,3.152-2.103,4.906-.64-.23 .11-4.99 2.1-4.91z"/>
<path d="m268.44,140.08c1.218-3.696 5.895-9.987 9.812-13.317-2.12,5.59-6.98,8.44-9.81,13.32z"/>
<path d="m253.72,135.88c-.775,3.43-4.255,4.155-5.607,7.009-.53-1.96 2.69-6.18 5.61-7.01z"/>
</g>
<g>
<path d="m360.96,136.58c1.676-1.326-.936,3.211-1.402,4.205-2.31-1.46 1.18-2.95 1.4-4.2z"/>
</g>
<g fill="#fadb86">
<path d="m218.68,142.88c1.957,2.46-2.104,4.877-2.804,7.009-1.22-1.72 2.25-4.72 2.8-7.01z"/>
<path d="m230.59,145.69c-.512,2.992-2.297,4.711-4.205,6.308-.13,1.65 1.27-6.45 4.21-6.31z"/>
<path d="m278.95,145.69c-1.144,1.659-1.788,3.819-4.205,4.205-.318,2.952-3.315,3.227-4.205,5.607-3.014,1.718 .904-2.353 2.103-2.804 1.48-2.97 3.48-5.42 6.31-7.02z"/>
<path d="m262.83,146.39c-10.195,12.234-22.128,22.729-35.045,32.241 8.82-10.82 23.53-21.8 35.05-32.24z"/>
</g>
<g>
<path d="m376.38,152.7c2.017,10.431-6.887,16.007-10.514,23.129-1.91-.645 .979-2.191 0-4.205 6.53-3.27 9.19-10.42 10.51-18.92z"/>
<path d="m98.825,176.53c-1.529-.127-2.23,.573-2.103,2.103-3.869-4.775-4.553-12.735-6.308-19.625 3.367,7.848 5.681,16.747 11.915,21.728-1.43,1.61-3.158-2.41-3.505-4.2z"/>
</g>
<g fill="#fadb86">
<path d="m265.64,192.65c.204-.43 1.743-2.698 0-2.804 6.55-1.304 16.356-8.573 23.83-14.018 6.754-4.92 12.646-12.122 21.026-14.018-13.6,11.64-28.66,21.81-44.86,30.84z"/>
<path d="m292.97,178.63c1.719-1.714 4.987-5.889 8.411-8.41 2.451-1.807 10.115-5.298 7.71-3.505-4.72,4.62-10.29,8.39-16.12,11.91z"/>
<path d="m206.06,163.21c-.501,3.945-6.764,8.182-11.214,10.513 3.65-3.58 7.43-7.05 11.21-10.51z"/>
</g>
<g>
<path d="m108.64,182.84c1.981-1.576-1.152-3.941-1.402-5.606-2.099,.461 .67,1.498 0,2.803-3.214-4.232-4.402-9.605-4.205-14.718 3.058,5.88 6.861,15.029 11.915,21.026-3.765,3.596-5.49-2.795-7.71-4.906 .35-2 1.02,1.13 1.39,1.41z"/>
<path d="m114.95,182.14c1.099-.248-.614-1.234 .701-1.402 5.634,1.146 5.77,8.271 10.513,8.411-.28,5.901-6.444,.254-8.411-.701-.197-1.132 .663-1.207 .701-2.103-6.254-3.831-11.941-11.837-11.214-20.326 2.197-.328 1.976,1.763 2.804,2.804 1.583-.393-.85-1.093 .701-2.103 2.036,3.646 2.218,6.688 2.804,10.514 .682-.02 .544-.858 .701-1.402 1.936-.3 .658,2.613 2.103,2.804-3.378,2.415-4.371-3.552-5.607-5.607-1.65,3.32 1.65,7.69 4.22,9.12z"/>
</g>
<g fill="#fadb86">
<path d="m211.67,165.31c-2.071,3.535-4.78,6.434-8.41,8.41 2.54-3.06 4.54-6.67 8.41-8.41z"/>
<path d="m314,165.31c-.824,2.213-3.636,2.438-4.906,4.205-1.01-1.28 2.84-3.67 4.91-4.21z"/>
<path d="m279.65,166.01c-2.076,1.663-3.473,4.004-6.309,4.906-.13-3.87 4.28-3.2 6.31-4.91z"/>
<path d="m264.23,167.42c-9.878,7.878-20.793,14.718-31.54,21.728 8.01-6.96 19.7-16.29 31.54-21.73z"/>
<path d="m265.64,170.22c-12.958,11.339-28.557,20.038-44.857,28.035 9.344-6.31 19.287-12.02 28.736-18.224 4.98-3.26 10.05-9.97 16.12-9.82z"/>
</g>
<g>
<path d="m8.411,193.35c3.062,1.845 3.635,6.177 7.009,7.71-3.524-8.42-9.681-17.849-8.411-28.736 3.541,15.149 7.219,30.161 21.026,35.044-1.184-4.189-6.487-4.26-9.111-7.009-1.73-8.97-7.84-18.492-9.112-30.138 4.598,8.719 6.15,20.483 11.915,28.035 1.505-1.101-2.111-2.982-1.401-5.607 4.108,2.667 4.46,9.09 9.812,10.514-.603-7.673-12.013-18.078-14.018-30.839 3.68,3.796 4.605,10.347 7.71,14.719 2.543-.544-2.347-4.518 1.401-4.206-1.102,8.643 6.276,12.327 6.308,17.522 5.972,3.417 12.294,10.075 19.625,9.812-5.204-5.31-15.109-5.918-18.223-13.317 7.17,3.344 10.806,10.222 21.027,10.514-.703,2.335-3.136,2.938-2.103,7.009-12.392,3.032-22.536-7.654-35.044-9.111-2.238-4.5-6.748-6.77-8.41-11.88z"/>
</g>
<g fill="#fadb86">
<path d="m316.1,170.22c-4.412,4.934-10.035,8.655-16.121,11.915 4.87-4.48 10.23-8.47 16.12-11.92z"/>
<path d="m308.39,178.63c.622,3.207-6.009,5.194-9.812,6.308 2.42-2.95 6.75-4 9.81-6.31z"/>
<path d="m326.61,194.75c-1.448-1.723 2.722-3.789 4.205-4.906 2.158-.521 1.348,1.924 3.505,1.402 1.732-6.918 12.717-10.005 16.821-16.821 1.748,9.929-9.306,13.119-12.616,20.325-14.022,8.406-28.232,16.624-49.763,17.522 9.397-2.518 19.082-4.748 28.035-7.71-6.426-.112-14.825,3.861-22.428,4.906 .247-.92 1.233-1.103 1.401-2.103-6.023,2.154-10.052,6.302-18.223,6.308 .06-.994 .115-1.984-.701-2.103 7.165-5.698 17.354-6.164 25.933-9.111-.488,1.848-3.19,1.481-3.504,3.505 3.654-1.719 7.866-2.881 12.615-3.505-.113-.821-1.277-.591-2.103-.701 .864-1.005 2.41-1.327 4.206-1.401-.02,.682-.858,.544-1.402,.701 6.536-.478 14.357-5.731 20.326-9.111-2.07-1.78-5.07,1.46-6.33,2.8z"/>
<path d="m133.87,175.12c1.28,2.869 7.559,3.88 6.308,7.01-3.56-.88-4.62-4.25-6.31-7.01z"/>
<path d="m222.88,176.53c-2.458,4.083-7.278,5.804-11.214,8.41 .74-3.01 7.15-6.39 11.21-8.41z"/>
<path d="m301.38,176.53c-3.257,5.16-14.82,11.809-21.027,14.018 6.18-5.51 14.02-9.36 21.03-14.02z"/>
<path d="m218.68,177.23c-2.349,1.155-3.61,3.398-6.308,4.205 1.49-2.02 3.07-3.95 6.31-4.21z"/>
<path d="m60.978,178.63c6.983,14.563 18.212,33.627 32.941,45.558 7.856,6.363 21.907,14.241 32.942,14.018-.217,.951-1.755,.582-2.804,.701 19.964,4.525 49.054,8.202 71.491,2.804-3.486,2.354-9.719,1.963-12.616,4.906-12.702-2.064-19.112,2.284-31.54,.7 3.26,3.247 15.533-.253 17.522,2.104-22.31,.922-39.088-1.656-51.866-8.411 .087-1.548 2.973-.298 4.206-.701-1.702-1.052-5.787-3.782-6.308,0-19.952-6.682-32.925-20.342-44.156-35.745 5.83,2.585 10.202,12.691 16.821,16.821-8.961-11.36-22.016-24.7-26.627-42.75zm68.682,65.18c-2.277,.809-4.311-2.141-5.607,0 2.61-.54 4.82,2.88 5.61,0zm-23.12-10.51c-6.903-1.512-11.922-8.632-16.821-9.812 5.063,3.34 10.321,10.22 16.821,9.81z"/>
<path d="m335.72,180.73c.65,2.628-9.739,7.407-9.812,7.009 3.25-2.36 6.56-4.66 9.81-7.01z"/>
<path d="m142.28,182.14c1.076-1.703 3.114,1.503 4.906,1.401-1.57,2.19-3.24-1.38-4.91-1.4z"/>
<path d="m86.91,184.24c1.981,1.757 2.224,5.252 4.206,7.009-2.834,1.87-2.942-4.98-4.206-7.01z"/>
<path d="m295.77,186.34c-1.762,2.21-5.629,2.314-7.71,4.205 .48-3.49 4.56-3.38 7.71-4.2z"/>
</g>
<g>
<path d="m171.72,187.04c-7.347,3.488-18.432,4.21-25.933,.7 6.13,1.47 18.35,1.86 25.93-.7z"/>
</g>
<g fill="#fadb86">
<path d="m229.89,187.04c-2.154,1.583-3.934,3.542-7.009,4.205 1.64-2.09 4.5-2.97 7.01-4.2z"/>
<path d="m221.48,191.25c-1.123,4.023-10.584,5.765-16.12,7.71 4-3.94 11.3-4.59 16.12-7.71z"/>
<path d="m187.84,219.28c.02,.682 .858,.544 1.402,.701-7.653,2.331-19.907,1.606-25.232,4.205-.138-1.971 3.024-2.021-.701-2.103 1.06-1.744 4.73-.878 6.308-2.103-11.653-1.146-29.142,2.868-35.044-5.607 11.651,5.678 31.139,3.599 44.156,2.804 .118,1.52-2.486,.317-3.505,.701 2.193,2.146 5.181-.859 8.411,0-.113-.821-1.278-.592-2.103-.701 10.94-5.318 29.688-6.102 35.746-14.018 10.673,.193 17.628-8.228 26.634-11.915-2.124,8.623-12.12,9.374-16.121,16.12-8.888,2.56-15.893,7.003-25.933,8.411 2.5,2-10.45,1.27-14.04,3.51z"/>
<path d="m321.01,193.35c.492,1.916-5.413,3.447-7.709,4.906-.66-2.08 5.71-3.16 7.71-4.91z"/>
</g>
<g>
<path d="m125.46,194.75c4.105-.008 12.463,6.479 17.522,8.411 .054,.021 7.375,1.081 3.504,.701-9.4-.64-14.72-5.37-21.02-9.11z"/>
</g>
<g fill="#fadb86">
<path d="m307.69,194.05c-7.81,4.572-17.642,7.122-26.634,10.513 8.05-4.33 16.98-7.78 26.63-10.51z"/>
<path d="m252.32,205.96c-.02-.682-.857-.544-1.401-.701 1.345-2.394 4.202-3.273 7.009-4.205-.371,.563-.731,1.138-.701,2.103 5.755-2.423 9.957-6.397 16.12-8.411-8.745,7.142-19.557,12.217-30.138,17.522 1.99-3.15 6.84-3.44 9.11-6.31z"/>
<path d="m92.517,196.15c1.94-.977 3.819,4.104 5.607,5.606-1.824,.86-4.107-3.82-5.607-5.61z"/>
</g>
<g>
<path d="m123.36,196.15c5.043,1.97 12.775,7.313 20.326,9.111-7.29,.27-15.29-4.81-20.33-9.11z"/>
</g>
<g fill="#fadb86">
<path d="m278.25,195.45c-3.294,2.312-5.668,5.546-10.513,6.308 2.15-4.35 7.15-4.78 10.51-6.31z"/>
<path d="m227.79,196.85c-2.659,2.247-5.769,4.044-9.812,4.906 2.16-2.75 6.44-3.36 9.81-4.91z"/>
</g>
<g>
<path d="m49.763,199.66c.355,2.215 2.063,3.077 2.103,5.607-10.286-4.433-20.347-9.09-23.129-21.026 3.502,1.17 1.958,7.388 6.308,7.71-.886-3.086-2.668-5.275-4.205-7.71 4.634,.979 6.312,10.971 12.616,12.615-4.847-8.002-11.404-14.294-13.317-25.231 5.519,7.331 6.142,19.558 16.121,22.429-.484,6.792 8.956,3.659 10.513,8.41-3.05-.23-4.436-2.12-7.01-2.81z"/>
<path fill="#fadb86" d="m274.05,201.06c-.931,1.033-9.978,5.839-13.316,9.111-.821-.113-.592-1.278-.701-2.103-8.859,7.495-20.351,12.356-31.54,17.522 .306,1.04 .896-.277 2.103,0-1.479,3.192-5.931,3.414-9.111,4.905 .594-2.677 4.199-2.342 6.308-3.504-15.069,3.301-36.199,14.639-53.968,9.111 16.04-1.922 33.35-5.58 46.959-11.915 2.464-3.362 9.373-6.496 15.42-8.41-.616,1.953-2.815,2.324-4.906,2.803 2.7,1.507 5.803-2.588 7.71-4.205 13.561,.011 18.083-9.018 28.035-12.616 .511,1.913-1.393,1.411-1.401,2.804 3.1-.87 5.22-2.72 8.41-3.5z"/>
<path d="m89.013,205.26c2.526,1.446 3.782,4.161 6.308,5.607-1.748,.55-5.034-3.36-6.308-5.61z"/>
</g>
<g fill="#fadb86">
<path d="m105.13,210.87c3.486,1.194 9.328,6.086 13.317,9.111-4.7-2.77-10.35-4.6-13.32-9.11z"/>
<path d="m274.05,212.27c-3.437,3.338-10.042,3.508-12.616,7.71-3.414-1.284-9.476,1.264-8.41,4.205 2.327,.672 6.705-2.624 10.513-2.804-3.203,2.403-7.46,3.754-11.915,4.906 1.168-1.393-.062-.891 0-2.804-2.02,.316-2.191,2.48-4.905,2.104 7.35-5.79 16.47-13.33 27.33-13.32z"/>
</g>
<g>
<path d="m96.021,213.67c.785-2.568 4.721,2.992 7.009,3.505-2.1,1.37-4.381-3.07-7.009-3.51z"/>
<path fill="#fadb86" d="m276.85,217.18c-5.37,3.4-8.17,.6 0,0z"/>
<path d="m103.73,218.58c1.405-1.131 4.056,2.456 6.308,2.804-1.6,1.33-4.65-1.86-6.31-2.8z"/>
<path fill="#fadb86" d="m187.84,226.29c.163-2.041 5.633-1.915 7.009-2.103 4.52-.62-3.73,1.03-7.01,2.1z"/>
<path d="m89.714,223.49c4.899,1.181 9.918,8.301 16.821,9.812-6.5,.41-11.758-6.47-16.826-9.81z"/>
<path d="m112.14,223.49c1.368-1.321 4.299,1.741 6.308,2.104 2.78,1.65-5.21-.97-6.31-2.1z"/>
</g>
<g fill="#fadb86">
<path d="m206.06,238.91c12.403-5.119 25.289-9.756 36.446-16.12 1.617,1.228-3.896,3.646-6.308,4.906-8.54,4.46-19.53,9.19-30.14,11.21z"/>
<path d="m236.9,230.5c3.057-.446 3.921-3.087 7.709-2.803 .149,4.588-5.363,3.514-7.009,6.308-1.76,.33 1.69-3.22-.7-3.51z"/>
<path d="m70.79,85.412c.688,9.545 .182,17.455-2.103,29.437-1.598-.972-.261-4.878-.701-7.009-3.445,9.614-2.963,21.5-2.103,33.643-4.155-18.91 .796-40.76 4.907-56.068zm-3.505,21.728c2.402,.711 1.669-5.265 .701-5.607 .539,2.64-.855,3.35-.701,5.61z"/>
</g>
</g>
</svg>
