<svg xmlns="http://www.w3.org/2000/svg" viewBox="0 0 501.76 465">
<g transform="translate(1296.9 -1785.9)">
<path fill="#c3a985" d="m-862.42,2022c-1.5392,14.475-.9176,18.454-2.4569,32.929 16.069,.516 29.878,2.9513 45.75,8.3747-5.4944,7.414-16.422,15.78-25.011,19.877-7.3305,3.4967-15.123,4.0505-22.776,4.698-3.4886,12.022-6.9771,24.045-10.466,36.067 18.426-3.4624 35.574-9.8769 52.248-21.864 11.858-8.5254 18.011-18.619 24.901-29.767 3.4267-5.5451 5.0352-9.1371 5.0352-13.75 0-10.444 .6994-11.886-3.028-19.971-2.3289-5.0517-10.393-8.1663-14.108-8.8704-18.901-3.5816-32.88-5.0337-50.088-7.7243z"/>
</g>
<g color="#000" transform="translate(1296.9 -1785.9)">
<path fill="#c3a985" d="m-867.36,55.548c0,125.12-101.43,226.55-226.55,226.55s-226.55-101.43-226.55-226.55 101.43-226.55 226.55-226.55 226.55,101.43 226.55,226.55z" transform="matrix(.9846 0 0 .94311 3.2227 1947.2)"/>
<path fill="#d9c9b3" d="m-867.36,55.548c0,125.12-101.43,226.55-226.55,226.55s-226.55-101.43-226.55-226.55 101.43-226.55 226.55-226.55 226.55,101.43 226.55,226.55z" transform="matrix(.9846 0 0 .94311 3.2227 1947.2)"/>
</g>
<g transform="translate(1296.9 -1785.9)">
<path fill="#d0bca0" d="m-845.22,2026.2c-4.2154-.4809-7.5273,25.438-2.6147,26.788 11.434,3.1431 15.974,3.6493 29.012,5.7508 5.515,.8889 13.608,2.7591 17.732-.1098 4.1238-2.8689 2.1878-16.106 .8296-19.195-1.6777-3.6392-9.1576-6.7122-11.346-7.1269-13.662-3.2092-23.703-4.9766-33.612-6.1071z"/>
</g>
<g color="#000">
<g transform="translate(1296.9 -1785.9)">
<path fill="#e4d9c9" d="m-1073,1789.1c-121.25,0-220.11,97.698-220.11,213.84s98.409,207.75 219.66,207.75c99.196,0 184.72-61.8 206.66-147.22 .333-1.2969-1.2572-3.5225-1.9062-1.4682-27.286,86.36-108.34,144.56-204.75,144.56-117.9,0-213.88-91.664-213.88-204.59s95.569-206.19 213.47-206.19c76.359,0 146.83,39.402 184.67,98 1.3635,2.1116 5.9808,1.6189 4.2188-1.375-36.8-62.528-107.99-103.3-188.02-103.3z"/>
<path fill="#c3a985" d="m-860.36,2002c0,112.93-95.576,204.48-213.48,204.48s-213.48-91.548-213.48-204.48 95.576-204.48 213.48-204.48 213.48,91.548 213.48,204.48z"/>
<path fill="#d9c9b3" d="m-949.95,673.43c0,75.225-60.982,136.21-136.21,136.21-75.225,0-136.21-60.982-136.21-136.21 0-75.225 60.982-136.21 136.21-136.21 75.225,0 136.21,60.982 136.21,136.21z" transform="matrix(1.551 0 0 1.4318 610.81 1046.8)"/>
</g>
<g fill="#c3a985" transform="translate(1296.9 -1785.9)">
<path d="m-1296.7,2007.5c-.1,2.8822-.187,5.7584-.187,8.6662 0,129.66 99.882,234.8 223.07,234.8s223.04-105.13 223.04-234.8c0-2.9078-.0558-5.784-.1558-8.6662-6.7167,115.94-102.45,204.09-222.89,204.09s-214.34-90.864-222.89-204.09z"/>
<path d="m-874.16,1301c0,108.44-87.91,196.35-196.35,196.35s-196.35-87.91-196.35-196.35 87.91-196.35 196.35-196.35 196.35,87.91 196.35,196.35z" transform="matrix(.95046 0 0 .73684 -55.079 990.96)"/>
</g>
<g transform="translate(1296.9 -1785.9)">
<path fill="#ceba9d" d="m-899.63,2031.5c10.35,25.055 6.7803,36.377-7.5131,47.604-16.673,13.401-21.219,46.514-41.778,70.667-13.43,25.525-34.613,24.579-44.952,28.832-21.723,18.854-46.8,7.4927-76.527-.6835-14.44-6.028-45.064,15.066-73.636,.4789-28.21-1.855-46.129-21.101-52.956-42.719-19.004-5.3294-24.745-32.242-26.037-59.966-12.189-10.146-27.848-24.853-17.707-45.076 6.3665-14.686 25.672-57.294 24.872-82.322-.5199-25.513 8.052-31.738 23.285-36.328 5.0781-18.297 52.683-51.81 66.641-51.638 30.207-5.8447 31.822-10.316 46.873-3.4944 16.059,7.8546 50.684-7.4777 81.202,1.6173 13.833-.084 36.171,29.701 48.403,54.958 5.9736,20.346 31.029,33.135 29.057,51.652 1.708,28.09 20.97,17.491 26.767,49.371 3.0975-10.071-12.316,26.864-7.9826,17.26"/>
<path fill="#b6966b" d="m-875.99,2124.7c-48.303,72.923-140.37,117.47-226.25,107.52-66.95-7.7617-131.77-50.621-169.07-107.49 34.286,72.875 110.74,124.05 191.72,126.16 71.459,1.8588 141.72-34.158 182.96-92.112 7.8192-10.751 14.724-22.167 20.631-34.075z"/>
</g>
</g>
<g transform="translate(1314.537 -455.4)">
<path fill="#b6966b" color="#000" d="m-1000.1,3.7655c0,41.111-33.327,74.437-74.437,74.437-41.111,0-74.438-33.327-74.438-74.437 0-41.111 33.327-74.437 74.438-74.437s74.437,33.327 74.437,74.437z" transform="matrix(1.0723 0 0 1.0723 64.62 699.51)"/>
</g>
<g color="#000">
<g transform="translate(1314.537 -455.4)">
<path fill="#ceba9d" d="m-1000.1,3.7655c0,41.111-33.327,74.437-74.437,74.437-41.111,0-74.438-33.327-74.438-74.437 0-41.111 33.327-74.437 74.438-74.437s74.437,33.327 74.437,74.437z" transform="matrix(1.0267 0 0 1.0267 15.584 699.68)"/>
</g>
<g fill="#e4d9c9" transform="translate(1314.537 -455.4)">
<path d="m-1162.1,674.68c-36.981,68.059 22.818,98.513 32.777,97.359-30.81-18.024-45.882-58.158-34.663-92.023 .5649-1.8005 1.1909-3.5818 1.8859-5.3364z"/>
<path d="m-1009.6,720.25c-6.8925,35.222-40.421,63.491-76.022,63.086 28.978,11.268 73.674-15.053 75.312-53.127 .4527-3.2998 .6756-6.6291 .7099-9.959z"/>
</g>
<g transform="translate(1314.537 -455.4)">
<path fill="#c3a985" d="m-1073,628.54c-41.426-7.8008-81.462,18.647-89.434,59.081-.488,2.4783-.8316,4.9487-1.065,7.4094 9.7876-38.839 45.544-71.144 91.904-60.412 44.288,10.253 62.985,49.969 57.332,88.514 .7229-2.3684 1.34-4.7875 1.8288-7.2656 7.9726-40.434-19.14-79.526-60.566-87.327z"/>
</g>
</g>
<g transform="translate(1296.9 -1785.9)">
<path fill="#e4d9c9" d="m-844.12,2031.9c-1.096,.2602-3.4137,4.9279-3.2578,6.0766 .4581,3.3756 .3736,3.8491 2.1754,6.0716 3.5543,4.384 11.292,3.4654 14.438,4.1447 8.4878,1.8329 13.249-.834 14.086-4.4646 .9063-3.9316-2.7954-9.0215-11.264-10.825-3.1695-.6752-10.295-2.3994-16.178-1.003z"/>
<path fill="#b6966b" d="m-819.12,2063.3c-5.4944,7.414-16.442,15.778-25.031,19.875-5.5275,2.6367-11.306,3.5984-17.094,4.1875-2.3268,7.7026-2.6586,9.6393-5.6983,16.974 9.4283-3.2086 27.589-8.8289 38.596-16.507 11.279-7.8682 18.321-17.908 20.946-23.592-2.9139-.2432-5.9927-.5511-8.8125-.75-.0106-.0001-.0207,.0002-.0312,0-1.0047-.016-1.97-.071-2.875-.1875z"/>
<path fill="#e4d9c9" d="m-806.33,2041.3c-4.0996-2.1305-5.1222,4.9255-2.7372,7.2046 .84,.8027 2.5436,1.095 3.5295,1.3799 .8789,.2539 1.8687,.7642 2.233,.1409 .573-.9805 .9008-4.3975-.2161-5.4648-1.1226-1.0727-2.0235-1.6586-2.8092-3.2606z"/>
</g>
<g color="#000">
<g transform="translate(1303.7097 -1108.77)">
<path fill="#410000" d="m-984.05,1385.3c0,149.77-121.41,271.19-271.19,271.19-149.77,0-271.19-121.41-271.19-271.19 0-149.77 121.41-271.19 271.19-271.19 149.77,0 271.19,121.41 271.19,271.19z" transform="matrix(.70985 0 0 .71353 -189.66 346.97)"/>
<path fill="#300" d="m-984.05,1385.3c0,149.77-121.41,271.19-271.19,271.19-149.77,0-271.19-121.41-271.19-271.19 0-149.77 121.41-271.19 271.19-271.19 149.77,0 271.19,121.41 271.19,271.19z" transform="matrix(.66903 0 0 .67251 -240.89 403.8)"/>
<path fill="#5f0000" fill-opacity=".233" d="m-1040.8,1271.5c-23.147,.1182-47.281,4.3337-70.844,13.125-83.778,31.258-128.67,108.35-100.25,172.19 17.763,39.899 59.964,65.189 109.56,70.906 1.24,.1429 2.4698,.2566 3.7188,.375 1.249,.1183 2.5238,.2187 3.7812,.3124 1.2575,.094 2.5159,.1812 3.7813,.25 .3954,.021 .7915,.044 1.1875,.063 1.403,.066 2.8081,.1203 4.2188,.1562 1.651,.042 3.3075,.062 4.9687,.062 .3654,.0002 .7278,0 1.0937,0 1.2939-.01 2.5874-.03 3.875-.062 1.6511-.042 3.297-.1039 4.9376-.1875 1.6405-.084 3.2768-.1879 4.9062-.3125 72.829-5.5702 134.33-51.856 162-116.28 6.2596-22.782 5.1937-46.414-4.625-68.469-20.427-45.884-73.159-72.427-132.31-72.125z"/>
<path fill="#6e3617" d="m-1121.5,1157.7c-25.76,6.7326-38.635,13.568-57.522,28.271-23.976,14.589-34.61,31.787-47.254,50.498-12.024,20.621-32.856,42.612-32.34,65.165-4.9717,24.473-.255,48.271 .3546,73.901 4.4894,23.787 22.016,46.322 31.223,66.188 14.163,18.176 25.588,35.34 49.925,46.585 17.123,13.937 44.581,21.638 63.164,26.561 23.324,3.22 48.225,3.9771 75.076-2.8943 19.852-4.8287 57.609-16.456 72.465-29.754 17.522-14.353 28.738-30.069 45.17-51.198 7.568-18.762 25.963-41.912 26.636-63.745 5.7799-22.666-2.024-49.111-7.8484-72.593-.7208-25.814-17.881-43.789-29.617-64.44-11.105-18.986-30.635-35.588-52.59-48.51-20.716-13.286-38.146-21.295-56.459-26.606-27.925-3.0006-50.728-4.3222-79.973,1.9791 3.8244-1.456 4.6574-.6863 9.0992-1.2118m-2.3881,24.389c22.846-6.0533 41.735-2.5548 66.222-.2435 16.057,5.1404 32.805,9.9685 52.999,20.901 21.588,9.5136 26.301,27.096 42.278,43.483 10.201,18.026 23.432,35.508 33.074,55.726 .3634,21.774 3.1683,41.739 2.2455,62.183-7.5441,21.626-13.144,41.323-24.654,57.521-8.2769,15.635-18.489,30.881-39.099,43.056-11.751,10.742-42.805,21.792-61.572,26.901-23.135,6.0909-39.705,3.456-59.756-1.2744-19.478-4.8454-36.236-10.903-56.087-20.306-14.165-12.286-42.078-23.123-50.747-41.288-15.964-15.27-15.555-37.732-16.04-59.431-9.5108-20.026-14.271-40.153-8.545-61.7 4.2556-19.292 11.618-40.315 25.442-57.224 6.0666-16.332 26.549-29.632 43.619-42.652 16.088-10.773 31.396-20.642 55.061-26.789-2.2608-.4232-7.4835,2.361-3.7717,.9006"/>
</g>
<g transform="matrix(.13946 -.03118 .02304 .10308 77.7097 -11.77)">
<path fill="#8f451e" d="m-539.6,2103.2c0,31.37-25.43,56.8-56.8,56.8s-56.8-25.43-56.8-56.8 25.43-56.8 56.8-56.8 56.8,25.43 56.8,56.8z"/>
<path fill="#210000" d="m-539.6,2103.2c0,31.37-25.43,56.8-56.8,56.8s-56.8-25.43-56.8-56.8 25.43-56.8 56.8-56.8 56.8,25.43 56.8,56.8z" transform="matrix(.8913 0 0 .8913 -64.826 228.6)"/>
</g>
<g fill="#e3b7b7" fill-opacity=".539" transform="matrix(.13946 -.03118 .02304 .10308 77.7097 -11.77)">
<path d="m-539.6,2103.2c0,31.37-27.443,8.7009-58.813,8.7009s-54.786,22.669-54.786-8.7009 22.764-71.662 54.134-71.662 59.466,40.293 59.466,71.662z" transform="matrix(.32635 -.13565 .05895 .14182 -539.77 1692)"/>
<path d="m-566.35,2116.5c-2.7224,.2265-6.4303,6.6284-11.431,10.226-4.6663,3.3564-10.177,5.3899-15.723,6.8483-6.1502,1.6175-11.339-.044-11.959,1.6149-2.1713,3.3216-.9641,7.7234 1.5637,10.48 3.65,4.0111 9.3861,5.0274 14.572,5.0309 11.312-.2755 22.2-6.6424 28.343-16.088 2.5046-3.8858 4.2438-9.0053 2.1664-13.455-1.4341-3.2275-4.0302-5.1658-7.5331-4.6562z"/>
</g>
<g transform="matrix(.12107 -.02707 .02 .08949 81.8097 58.33)">
<path fill="#8f451e" d="m-539.6,2103.2c0,31.37-25.43,56.8-56.8,56.8s-56.8-25.43-56.8-56.8 25.43-56.8 56.8-56.8 56.8,25.43 56.8,56.8z"/>
<path fill="#210000" d="m-539.6,2103.2c0,31.37-25.43,56.8-56.8,56.8s-56.8-25.43-56.8-56.8 25.43-56.8 56.8-56.8 56.8,25.43 56.8,56.8z" transform="matrix(.8913 0 0 .8913 -64.826 228.6)"/>
</g>
<g fill="#e3b7b7" fill-opacity=".539" transform="matrix(.12107 -.02707 .02 .08949 81.8097 58.33)">
<path d="m-539.6,2103.2c0,31.37-27.443,8.7009-58.813,8.7009s-54.786,22.669-54.786-8.7009 22.764-71.662 54.134-71.662 59.466,40.293 59.466,71.662z" transform="matrix(.32635 -.13565 .05895 .14182 -539.77 1692)"/>
<path d="m-566.35,2116.5c-2.7224,.2265-6.4303,6.6284-11.431,10.226-4.6663,3.3564-10.177,5.3899-15.723,6.8483-6.1502,1.6175-11.339-.044-11.959,1.6149-2.1713,3.3216-.9641,7.7234 1.5637,10.48 3.65,4.0111 9.3861,5.0274 14.572,5.0309 11.312-.2755 22.2-6.6424 28.343-16.088 2.5046-3.8858 4.2438-9.0053 2.1664-13.455-1.4341-3.2275-4.0302-5.1658-7.5331-4.6562z"/>
</g>
<g transform="matrix(.19359 -.04328 .03199 .14309 108.6097 -25.07)">
<path fill="#8f451e" d="m-539.6,2103.2c0,31.37-25.43,56.8-56.8,56.8s-56.8-25.43-56.8-56.8 25.43-56.8 56.8-56.8 56.8,25.43 56.8,56.8z"/>
<path fill="#210000" d="m-539.6,2103.2c0,31.37-25.43,56.8-56.8,56.8s-56.8-25.43-56.8-56.8 25.43-56.8 56.8-56.8 56.8,25.43 56.8,56.8z" transform="matrix(.8913 0 0 .8913 -64.826 228.6)"/>
</g>
<g fill="#e3b7b7" fill-opacity=".539" transform="matrix(.19359 -.04328 .03199 .14309 108.6097 -25.07)">
<path d="m-539.6,2103.2c0,31.37-27.443,8.7009-58.813,8.7009s-54.786,22.669-54.786-8.7009 22.764-71.662 54.134-71.662 59.466,40.293 59.466,71.662z" transform="matrix(.32635 -.13565 .05895 .14182 -539.77 1692)"/>
<path d="m-566.35,2116.5c-2.7224,.2265-6.4303,6.6284-11.431,10.226-4.6663,3.3564-10.177,5.3899-15.723,6.8483-6.1502,1.6175-11.339-.044-11.959,1.6149-2.1713,3.3216-.9641,7.7234 1.5637,10.48 3.65,4.0111 9.3861,5.0274 14.572,5.0309 11.312-.2755 22.2-6.6424 28.343-16.088 2.5046-3.8858 4.2438-9.0053 2.1664-13.455-1.4341-3.2275-4.0302-5.1658-7.5331-4.6562z"/>
</g>
<g transform="matrix(.252 -.05634 .04164 .18626 123.4097 -246.58)">
<path fill="#8f451e" d="m-539.6,2103.2c0,31.37-25.43,56.8-56.8,56.8s-56.8-25.43-56.8-56.8 25.43-56.8 56.8-56.8 56.8,25.43 56.8,56.8z"/>
<path fill="#210000" d="m-539.6,2103.2c0,31.37-25.43,56.8-56.8,56.8s-56.8-25.43-56.8-56.8 25.43-56.8 56.8-56.8 56.8,25.43 56.8,56.8z" transform="matrix(.8913 0 0 .8913 -64.826 228.6)"/>
</g>
<g fill="#e3b7b7" fill-opacity=".539" transform="matrix(.252 -.05634 .04164 .18626 123.4097 -246.58)">
<path d="m-539.6,2103.2c0,31.37-27.443,8.7009-58.813,8.7009s-54.786,22.669-54.786-8.7009 22.764-71.662 54.134-71.662 59.466,40.293 59.466,71.662z" transform="matrix(.32635 -.13565 .05895 .14182 -539.77 1692)"/>
<path d="m-566.35,2116.5c-2.7224,.2265-6.4303,6.6284-11.431,10.226-4.6663,3.3564-10.177,5.3899-15.723,6.8483-6.1502,1.6175-11.339-.044-11.959,1.6149-2.1713,3.3216-.9641,7.7234 1.5637,10.48 3.65,4.0111 9.3861,5.0274 14.572,5.0309 11.312-.2755 22.2-6.6424 28.343-16.088 2.5046-3.8858 4.2438-9.0053 2.1664-13.455-1.4341-3.2275-4.0302-5.1658-7.5331-4.6562z"/>
</g>
<g transform="matrix(.17175 -.0384 .02838 .12694 107.7097 -91.67)">
<path fill="#8f451e" d="m-539.6,2103.2c0,31.37-25.43,56.8-56.8,56.8s-56.8-25.43-56.8-56.8 25.43-56.8 56.8-56.8 56.8,25.43 56.8,56.8z"/>
<path fill="#210000" d="m-539.6,2103.2c0,31.37-25.43,56.8-56.8,56.8s-56.8-25.43-56.8-56.8 25.43-56.8 56.8-56.8 56.8,25.43 56.8,56.8z" transform="matrix(.8913 0 0 .8913 -64.826 228.6)"/>
</g>
<g fill="#e3b7b7" fill-opacity=".539" transform="matrix(.17175 -.0384 .02838 .12694 107.7097 -91.67)">
<path d="m-539.6,2103.2c0,31.37-27.443,8.7009-58.813,8.7009s-54.786,22.669-54.786-8.7009 22.764-71.662 54.134-71.662 59.466,40.293 59.466,71.662z" transform="matrix(.32635 -.13565 .05895 .14182 -539.77 1692)"/>
<path d="m-566.35,2116.5c-2.7224,.2265-6.4303,6.6284-11.431,10.226-4.6663,3.3564-10.177,5.3899-15.723,6.8483-6.1502,1.6175-11.339-.044-11.959,1.6149-2.1713,3.3216-.9641,7.7234 1.5637,10.48 3.65,4.0111 9.3861,5.0274 14.572,5.0309 11.312-.2755 22.2-6.6424 28.343-16.088 2.5046-3.8858 4.2438-9.0053 2.1664-13.455-1.4341-3.2275-4.0302-5.1658-7.5331-4.6562z"/>
</g>
<g transform="matrix(.19427 -.04343 .0321 .14359 122.1097 -90.67)">
<path fill="#8f451e" d="m-539.6,2103.2c0,31.37-25.43,56.8-56.8,56.8s-56.8-25.43-56.8-56.8 25.43-56.8 56.8-56.8 56.8,25.43 56.8,56.8z"/>
<path fill="#210000" d="m-539.6,2103.2c0,31.37-25.43,56.8-56.8,56.8s-56.8-25.43-56.8-56.8 25.43-56.8 56.8-56.8 56.8,25.43 56.8,56.8z" transform="matrix(.8913 0 0 .8913 -64.826 228.6)"/>
</g>
<g fill="#e3b7b7" fill-opacity=".539" transform="matrix(.19427 -.04343 .0321 .14359 122.1097 -90.67)">
<path d="m-539.6,2103.2c0,31.37-27.443,8.7009-58.813,8.7009s-54.786,22.669-54.786-8.7009 22.764-71.662 54.134-71.662 59.466,40.293 59.466,71.662z" transform="matrix(.32635 -.13565 .05895 .14182 -539.77 1692)"/>
<path d="m-566.35,2116.5c-2.7224,.2265-6.4303,6.6284-11.431,10.226-4.6663,3.3564-10.177,5.3899-15.723,6.8483-6.1502,1.6175-11.339-.044-11.959,1.6149-2.1713,3.3216-.9641,7.7234 1.5637,10.48 3.65,4.0111 9.3861,5.0274 14.572,5.0309 11.312-.2755 22.2-6.6424 28.343-16.088 2.5046-3.8858 4.2438-9.0053 2.1664-13.455-1.4341-3.2275-4.0302-5.1658-7.5331-4.6562z"/>
</g>
<g transform="matrix(.1818 -.04064 .03004 .13437 123.3097 -50.07)">
<path fill="#8f451e" d="m-539.6,2103.2c0,31.37-25.43,56.8-56.8,56.8s-56.8-25.43-56.8-56.8 25.43-56.8 56.8-56.8 56.8,25.43 56.8,56.8z"/>
<path fill="#210000" d="m-539.6,2103.2c0,31.37-25.43,56.8-56.8,56.8s-56.8-25.43-56.8-56.8 25.43-56.8 56.8-56.8 56.8,25.43 56.8,56.8z" transform="matrix(.8913 0 0 .8913 -64.826 228.6)"/>
</g>
<g fill="#e3b7b7" fill-opacity=".539" transform="matrix(.1818 -.04064 .03004 .13437 123.3097 -50.07)">
<path d="m-539.6,2103.2c0,31.37-27.443,8.7009-58.813,8.7009s-54.786,22.669-54.786-8.7009 22.764-71.662 54.134-71.662 59.466,40.293 59.466,71.662z" transform="matrix(.32635 -.13565 .05895 .14182 -539.77 1692)"/>
<path d="m-566.35,2116.5c-2.7224,.2265-6.4303,6.6284-11.431,10.226-4.6663,3.3564-10.177,5.3899-15.723,6.8483-6.1502,1.6175-11.339-.044-11.959,1.6149-2.1713,3.3216-.9641,7.7234 1.5637,10.48 3.65,4.0111 9.3861,5.0274 14.572,5.0309 11.312-.2755 22.2-6.6424 28.343-16.088 2.5046-3.8858 4.2438-9.0053 2.1664-13.455-1.4341-3.2275-4.0302-5.1658-7.5331-4.6562z"/>
</g>
<g transform="matrix(.15384 -.03439 .02542 .11371 133.8097 75.03)">
<path fill="#8f451e" d="m-539.6,2103.2c0,31.37-25.43,56.8-56.8,56.8s-56.8-25.43-56.8-56.8 25.43-56.8 56.8-56.8 56.8,25.43 56.8,56.8z"/>
<path fill="#210000" d="m-539.6,2103.2c0,31.37-25.43,56.8-56.8,56.8s-56.8-25.43-56.8-56.8 25.43-56.8 56.8-56.8 56.8,25.43 56.8,56.8z" transform="matrix(.8913 0 0 .8913 -64.826 228.6)"/>
</g>
<g fill="#e3b7b7" fill-opacity=".539" transform="matrix(.15384 -.03439 .02542 .11371 133.8097 75.03)">
<path d="m-539.6,2103.2c0,31.37-27.443,8.7009-58.813,8.7009s-54.786,22.669-54.786-8.7009 22.764-71.662 54.134-71.662 59.466,40.293 59.466,71.662z" transform="matrix(.32635 -.13565 .05895 .14182 -539.77 1692)"/>
<path d="m-566.35,2116.5c-2.7224,.2265-6.4303,6.6284-11.431,10.226-4.6663,3.3564-10.177,5.3899-15.723,6.8483-6.1502,1.6175-11.339-.044-11.959,1.6149-2.1713,3.3216-.9641,7.7234 1.5637,10.48 3.65,4.0111 9.3861,5.0274 14.572,5.0309 11.312-.2755 22.2-6.6424 28.343-16.088 2.5046-3.8858 4.2438-9.0053 2.1664-13.455-1.4341-3.2275-4.0302-5.1658-7.5331-4.6562z"/>
</g>
<g transform="matrix(.12638 -.02825 .02088 .09341 131.3097 140.93)">
<path fill="#8f451e" d="m-539.6,2103.2c0,31.37-25.43,56.8-56.8,56.8s-56.8-25.43-56.8-56.8 25.43-56.8 56.8-56.8 56.8,25.43 56.8,56.8z"/>
<path fill="#210000" d="m-539.6,2103.2c0,31.37-25.43,56.8-56.8,56.8s-56.8-25.43-56.8-56.8 25.43-56.8 56.8-56.8 56.8,25.43 56.8,56.8z" transform="matrix(.8913 0 0 .8913 -64.826 228.6)"/>
</g>
<g fill="#e3b7b7" fill-opacity=".539" transform="matrix(.12638 -.02825 .02088 .09341 131.3097 140.93)">
<path d="m-539.6,2103.2c0,31.37-27.443,8.7009-58.813,8.7009s-54.786,22.669-54.786-8.7009 22.764-71.662 54.134-71.662 59.466,40.293 59.466,71.662z" transform="matrix(.32635 -.13565 .05895 .14182 -539.77 1692)"/>
<path d="m-566.35,2116.5c-2.7224,.2265-6.4303,6.6284-11.431,10.226-4.6663,3.3564-10.177,5.3899-15.723,6.8483-6.1502,1.6175-11.339-.044-11.959,1.6149-2.1713,3.3216-.9641,7.7234 1.5637,10.48 3.65,4.0111 9.3861,5.0274 14.572,5.0309 11.312-.2755 22.2-6.6424 28.343-16.088 2.5046-3.8858 4.2438-9.0053 2.1664-13.455-1.4341-3.2275-4.0302-5.1658-7.5331-4.6562z"/>
</g>
<g transform="matrix(.21545 -.04816 .0356 .15924 131.9097 -229.78)">
<path fill="#8f451e" d="m-539.6,2103.2c0,31.37-25.43,56.8-56.8,56.8s-56.8-25.43-56.8-56.8 25.43-56.8 56.8-56.8 56.8,25.43 56.8,56.8z"/>
<path fill="#210000" d="m-539.6,2103.2c0,31.37-25.43,56.8-56.8,56.8s-56.8-25.43-56.8-56.8 25.43-56.8 56.8-56.8 56.8,25.43 56.8,56.8z" transform="matrix(.8913 0 0 .8913 -64.826 228.6)"/>
</g>
<g fill="#e3b7b7" fill-opacity=".539" transform="matrix(.21545 -.04816 .0356 .15924 131.9097 -229.78)">
<path d="m-539.6,2103.2c0,31.37-27.443,8.7009-58.813,8.7009s-54.786,22.669-54.786-8.7009 22.764-71.662 54.134-71.662 59.466,40.293 59.466,71.662z" transform="matrix(.32635 -.13565 .05895 .14182 -539.77 1692)"/>
<path d="m-566.35,2116.5c-2.7224,.2265-6.4303,6.6284-11.431,10.226-4.6663,3.3564-10.177,5.3899-15.723,6.8483-6.1502,1.6175-11.339-.044-11.959,1.6149-2.1713,3.3216-.9641,7.7234 1.5637,10.48 3.65,4.0111 9.3861,5.0274 14.572,5.0309 11.312-.2755 22.2-6.6424 28.343-16.088 2.5046-3.8858 4.2438-9.0053 2.1664-13.455-1.4341-3.2275-4.0302-5.1658-7.5331-4.6562z"/>
</g>
<g transform="matrix(.19508 -.04361 .03223 .14419 179.2097 38.53)">
<path fill="#8f451e" d="m-539.6,2103.2c0,31.37-25.43,56.8-56.8,56.8s-56.8-25.43-56.8-56.8 25.43-56.8 56.8-56.8 56.8,25.43 56.8,56.8z"/>
<path fill="#210000" d="m-539.6,2103.2c0,31.37-25.43,56.8-56.8,56.8s-56.8-25.43-56.8-56.8 25.43-56.8 56.8-56.8 56.8,25.43 56.8,56.8z" transform="matrix(.8913 0 0 .8913 -64.826 228.6)"/>
</g>
<g fill="#e3b7b7" fill-opacity=".539" transform="matrix(.19508 -.04361 .03223 .14419 179.2097 38.53)">
<path d="m-539.6,2103.2c0,31.37-27.443,8.7009-58.813,8.7009s-54.786,22.669-54.786-8.7009 22.764-71.662 54.134-71.662 59.466,40.293 59.466,71.662z" transform="matrix(.32635 -.13565 .05895 .14182 -539.77 1692)"/>
<path d="m-566.35,2116.5c-2.7224,.2265-6.4303,6.6284-11.431,10.226-4.6663,3.3564-10.177,5.3899-15.723,6.8483-6.1502,1.6175-11.339-.044-11.959,1.6149-2.1713,3.3216-.9641,7.7234 1.5637,10.48 3.65,4.0111 9.3861,5.0274 14.572,5.0309 11.312-.2755 22.2-6.6424 28.343-16.088 2.5046-3.8858 4.2438-9.0053 2.1664-13.455-1.4341-3.2275-4.0302-5.1658-7.5331-4.6562z"/>
</g>
<g transform="matrix(.22754 -.05087 .0376 .16818 156.9097 -275.57)">
<path fill="#8f451e" d="m-539.6,2103.2c0,31.37-25.43,56.8-56.8,56.8s-56.8-25.43-56.8-56.8 25.43-56.8 56.8-56.8 56.8,25.43 56.8,56.8z"/>
<path fill="#210000" d="m-539.6,2103.2c0,31.37-25.43,56.8-56.8,56.8s-56.8-25.43-56.8-56.8 25.43-56.8 56.8-56.8 56.8,25.43 56.8,56.8z" transform="matrix(.8913 0 0 .8913 -64.826 228.6)"/>
</g>
<g fill="#e3b7b7" fill-opacity=".539" transform="matrix(.22754 -.05087 .0376 .16818 156.9097 -275.57)">
<path d="m-539.6,2103.2c0,31.37-27.443,8.7009-58.813,8.7009s-54.786,22.669-54.786-8.7009 22.764-71.662 54.134-71.662 59.466,40.293 59.466,71.662z" transform="matrix(.32635 -.13565 .05895 .14182 -539.77 1692)"/>
<path d="m-566.35,2116.5c-2.7224,.2265-6.4303,6.6284-11.431,10.226-4.6663,3.3564-10.177,5.3899-15.723,6.8483-6.1502,1.6175-11.339-.044-11.959,1.6149-2.1713,3.3216-.9641,7.7234 1.5637,10.48 3.65,4.0111 9.3861,5.0274 14.572,5.0309 11.312-.2755 22.2-6.6424 28.343-16.088 2.5046-3.8858 4.2438-9.0053 2.1664-13.455-1.4341-3.2275-4.0302-5.1658-7.5331-4.6562z"/>
</g>
<g transform="matrix(.14715 -.0329 .02431 .10876 141.3097 -120.4)">
<path fill="#8f451e" d="m-539.6,2103.2c0,31.37-25.43,56.8-56.8,56.8s-56.8-25.43-56.8-56.8 25.43-56.8 56.8-56.8 56.8,25.43 56.8,56.8z"/>
<path fill="#210000" d="m-539.6,2103.2c0,31.37-25.43,56.8-56.8,56.8s-56.8-25.43-56.8-56.8 25.43-56.8 56.8-56.8 56.8,25.43 56.8,56.8z" transform="matrix(.8913 0 0 .8913 -64.826 228.6)"/>
</g>
<g fill="#e3b7b7" fill-opacity=".539" transform="matrix(.14715 -.0329 .02431 .10876 141.3097 -120.4)">
<path d="m-539.6,2103.2c0,31.37-27.443,8.7009-58.813,8.7009s-54.786,22.669-54.786-8.7009 22.764-71.662 54.134-71.662 59.466,40.293 59.466,71.662z" transform="matrix(.32635 -.13565 .05895 .14182 -539.77 1692)"/>
<path d="m-566.35,2116.5c-2.7224,.2265-6.4303,6.6284-11.431,10.226-4.6663,3.3564-10.177,5.3899-15.723,6.8483-6.1502,1.6175-11.339-.044-11.959,1.6149-2.1713,3.3216-.9641,7.7234 1.5637,10.48 3.65,4.0111 9.3861,5.0274 14.572,5.0309 11.312-.2755 22.2-6.6424 28.343-16.088 2.5046-3.8858 4.2438-9.0053 2.1664-13.455-1.4341-3.2275-4.0302-5.1658-7.5331-4.6562z"/>
</g>
<g transform="matrix(.18009 -.04026 .02976 .13311 165.8097 43.93)">
<path fill="#8f451e" d="m-539.6,2103.2c0,31.37-25.43,56.8-56.8,56.8s-56.8-25.43-56.8-56.8 25.43-56.8 56.8-56.8 56.8,25.43 56.8,56.8z"/>
<path fill="#210000" d="m-539.6,2103.2c0,31.37-25.43,56.8-56.8,56.8s-56.8-25.43-56.8-56.8 25.43-56.8 56.8-56.8 56.8,25.43 56.8,56.8z" transform="matrix(.8913 0 0 .8913 -64.826 228.6)"/>
</g>
<g fill="#e3b7b7" fill-opacity=".539" transform="matrix(.18009 -.04026 .02976 .13311 165.8097 43.93)">
<path d="m-539.6,2103.2c0,31.37-27.443,8.7009-58.813,8.7009s-54.786,22.669-54.786-8.7009 22.764-71.662 54.134-71.662 59.466,40.293 59.466,71.662z" transform="matrix(.32635 -.13565 .05895 .14182 -539.77 1692)"/>
<path d="m-566.35,2116.5c-2.7224,.2265-6.4303,6.6284-11.431,10.226-4.6663,3.3564-10.177,5.3899-15.723,6.8483-6.1502,1.6175-11.339-.044-11.959,1.6149-2.1713,3.3216-.9641,7.7234 1.5637,10.48 3.65,4.0111 9.3861,5.0274 14.572,5.0309 11.312-.2755 22.2-6.6424 28.343-16.088 2.5046-3.8858 4.2438-9.0053 2.1664-13.455-1.4341-3.2275-4.0302-5.1658-7.5331-4.6562z"/>
</g>
<g transform="matrix(.17225 -.03851 .02846 .12732 204.2097 90.73)">
<path fill="#8f451e" d="m-539.6,2103.2c0,31.37-25.43,56.8-56.8,56.8s-56.8-25.43-56.8-56.8 25.43-56.8 56.8-56.8 56.8,25.43 56.8,56.8z"/>
<path fill="#210000" d="m-539.6,2103.2c0,31.37-25.43,56.8-56.8,56.8s-56.8-25.43-56.8-56.8 25.43-56.8 56.8-56.8 56.8,25.43 56.8,56.8z" transform="matrix(.8913 0 0 .8913 -64.826 228.6)"/>
</g>
<g fill="#e3b7b7" fill-opacity=".539" transform="matrix(.17225 -.03851 .02846 .12732 204.2097 90.73)">
<path d="m-539.6,2103.2c0,31.37-27.443,8.7009-58.813,8.7009s-54.786,22.669-54.786-8.7009 22.764-71.662 54.134-71.662 59.466,40.293 59.466,71.662z" transform="matrix(.32635 -.13565 .05895 .14182 -539.77 1692)"/>
<path d="m-566.35,2116.5c-2.7224,.2265-6.4303,6.6284-11.431,10.226-4.6663,3.3564-10.177,5.3899-15.723,6.8483-6.1502,1.6175-11.339-.044-11.959,1.6149-2.1713,3.3216-.9641,7.7234 1.5637,10.48 3.65,4.0111 9.3861,5.0274 14.572,5.0309 11.312-.2755 22.2-6.6424 28.343-16.088 2.5046-3.8858 4.2438-9.0053 2.1664-13.455-1.4341-3.2275-4.0302-5.1658-7.5331-4.6562z"/>
</g>
<g transform="matrix(.19415 -.0434 .03208 .1435 118.6097 -44.57)">
<path fill="#8f451e" d="m-539.6,2103.2c0,31.37-25.43,56.8-56.8,56.8s-56.8-25.43-56.8-56.8 25.43-56.8 56.8-56.8 56.8,25.43 56.8,56.8z"/>
<path fill="#210000" d="m-539.6,2103.2c0,31.37-25.43,56.8-56.8,56.8s-56.8-25.43-56.8-56.8 25.43-56.8 56.8-56.8 56.8,25.43 56.8,56.8z" transform="matrix(.8913 0 0 .8913 -64.826 228.6)"/>
</g>
<g fill="#e3b7b7" fill-opacity=".539" transform="matrix(.19415 -.0434 .03208 .1435 118.6097 -44.57)">
<path d="m-539.6,2103.2c0,31.37-27.443,8.7009-58.813,8.7009s-54.786,22.669-54.786-8.7009 22.764-71.662 54.134-71.662 59.466,40.293 59.466,71.662z" transform="matrix(.32635 -.13565 .05895 .14182 -539.77 1692)"/>
<path d="m-566.35,2116.5c-2.7224,.2265-6.4303,6.6284-11.431,10.226-4.6663,3.3564-10.177,5.3899-15.723,6.8483-6.1502,1.6175-11.339-.044-11.959,1.6149-2.1713,3.3216-.9641,7.7234 1.5637,10.48 3.65,4.0111 9.3861,5.0274 14.572,5.0309 11.312-.2755 22.2-6.6424 28.343-16.088 2.5046-3.8858 4.2438-9.0053 2.1664-13.455-1.4341-3.2275-4.0302-5.1658-7.5331-4.6562z"/>
</g>
<g transform="matrix(.28967 -.06476 .04786 .2141 264.2097 -93.87)">
<path fill="#8f451e" d="m-539.6,2103.2c0,31.37-25.43,56.8-56.8,56.8s-56.8-25.43-56.8-56.8 25.43-56.8 56.8-56.8 56.8,25.43 56.8,56.8z"/>
<path fill="#210000" d="m-539.6,2103.2c0,31.37-25.43,56.8-56.8,56.8s-56.8-25.43-56.8-56.8 25.43-56.8 56.8-56.8 56.8,25.43 56.8,56.8z" transform="matrix(.8913 0 0 .8913 -64.826 228.6)"/>
</g>
<g fill="#e3b7b7" fill-opacity=".539" transform="matrix(.28967 -.06476 .04786 .2141 264.2097 -93.87)">
<path d="m-539.6,2103.2c0,31.37-27.443,8.7009-58.813,8.7009s-54.786,22.669-54.786-8.7009 22.764-71.662 54.134-71.662 59.466,40.293 59.466,71.662z" transform="matrix(.32635 -.13565 .05895 .14182 -539.77 1692)"/>
<path d="m-566.35,2116.5c-2.7224,.2265-6.4303,6.6284-11.431,10.226-4.6663,3.3564-10.177,5.3899-15.723,6.8483-6.1502,1.6175-11.339-.044-11.959,1.6149-2.1713,3.3216-.9641,7.7234 1.5637,10.48 3.65,4.0111 9.3861,5.0274 14.572,5.0309 11.312-.2755 22.2-6.6424 28.343-16.088 2.5046-3.8858 4.2438-9.0053 2.1664-13.455-1.4341-3.2275-4.0302-5.1658-7.5331-4.6562z"/>
</g>
<g transform="matrix(.15363 -.03435 .02539 .11355 256.7097 129.83)">
<path fill="#8f451e" d="m-539.6,2103.2c0,31.37-25.43,56.8-56.8,56.8s-56.8-25.43-56.8-56.8 25.43-56.8 56.8-56.8 56.8,25.43 56.8,56.8z"/>
<path fill="#210000" d="m-539.6,2103.2c0,31.37-25.43,56.8-56.8,56.8s-56.8-25.43-56.8-56.8 25.43-56.8 56.8-56.8 56.8,25.43 56.8,56.8z" transform="matrix(.8913 0 0 .8913 -64.826 228.6)"/>
</g>
<g fill="#e3b7b7" fill-opacity=".539" transform="matrix(.15363 -.03435 .02539 .11355 256.7097 129.83)">
<path d="m-539.6,2103.2c0,31.37-27.443,8.7009-58.813,8.7009s-54.786,22.669-54.786-8.7009 22.764-71.662 54.134-71.662 59.466,40.293 59.466,71.662z" transform="matrix(.32635 -.13565 .05895 .14182 -539.77 1692)"/>
<path d="m-566.35,2116.5c-2.7224,.2265-6.4303,6.6284-11.431,10.226-4.6663,3.3564-10.177,5.3899-15.723,6.8483-6.1502,1.6175-11.339-.044-11.959,1.6149-2.1713,3.3216-.9641,7.7234 1.5637,10.48 3.65,4.0111 9.3861,5.0274 14.572,5.0309 11.312-.2755 22.2-6.6424 28.343-16.088 2.5046-3.8858 4.2438-9.0053 2.1664-13.455-1.4341-3.2275-4.0302-5.1658-7.5331-4.6562z"/>
</g>
<g transform="matrix(.15333 -.03428 .02534 .11333 287.4097 143.93)">
<path fill="#8f451e" d="m-539.6,2103.2c0,31.37-25.43,56.8-56.8,56.8s-56.8-25.43-56.8-56.8 25.43-56.8 56.8-56.8 56.8,25.43 56.8,56.8z"/>
<path fill="#210000" d="m-539.6,2103.2c0,31.37-25.43,56.8-56.8,56.8s-56.8-25.43-56.8-56.8 25.43-56.8 56.8-56.8 56.8,25.43 56.8,56.8z" transform="matrix(.8913 0 0 .8913 -64.826 228.6)"/>
</g>
<g fill="#e3b7b7" fill-opacity=".539" transform="matrix(.15333 -.03428 .02534 .11333 287.4097 143.93)">
<path d="m-539.6,2103.2c0,31.37-27.443,8.7009-58.813,8.7009s-54.786,22.669-54.786-8.7009 22.764-71.662 54.134-71.662 59.466,40.293 59.466,71.662z" transform="matrix(.32635 -.13565 .05895 .14182 -539.77 1692)"/>
<path d="m-566.35,2116.5c-2.7224,.2265-6.4303,6.6284-11.431,10.226-4.6663,3.3564-10.177,5.3899-15.723,6.8483-6.1502,1.6175-11.339-.044-11.959,1.6149-2.1713,3.3216-.9641,7.7234 1.5637,10.48 3.65,4.0111 9.3861,5.0274 14.572,5.0309 11.312-.2755 22.2-6.6424 28.343-16.088 2.5046-3.8858 4.2438-9.0053 2.1664-13.455-1.4341-3.2275-4.0302-5.1658-7.5331-4.6562z"/>
</g>
<g transform="matrix(.25649 -.05734 .04238 .18958 339.4197 -36.07)">
<path fill="#8f451e" d="m-539.6,2103.2c0,31.37-25.43,56.8-56.8,56.8s-56.8-25.43-56.8-56.8 25.43-56.8 56.8-56.8 56.8,25.43 56.8,56.8z"/>
<path fill="#210000" d="m-539.6,2103.2c0,31.37-25.43,56.8-56.8,56.8s-56.8-25.43-56.8-56.8 25.43-56.8 56.8-56.8 56.8,25.43 56.8,56.8z" transform="matrix(.8913 0 0 .8913 -64.826 228.6)"/>
</g>
<g fill="#e3b7b7" fill-opacity=".539" transform="matrix(.25649 -.05734 .04238 .18958 339.4197 -36.07)">
<path d="m-539.6,2103.2c0,31.37-27.443,8.7009-58.813,8.7009s-54.786,22.669-54.786-8.7009 22.764-71.662 54.134-71.662 59.466,40.293 59.466,71.662z" transform="matrix(.32635 -.13565 .05895 .14182 -539.77 1692)"/>
<path d="m-566.35,2116.5c-2.7224,.2265-6.4303,6.6284-11.431,10.226-4.6663,3.3564-10.177,5.3899-15.723,6.8483-6.1502,1.6175-11.339-.044-11.959,1.6149-2.1713,3.3216-.9641,7.7234 1.5637,10.48 3.65,4.0111 9.3861,5.0274 14.572,5.0309 11.312-.2755 22.2-6.6424 28.343-16.088 2.5046-3.8858 4.2438-9.0053 2.1664-13.455-1.4341-3.2275-4.0302-5.1658-7.5331-4.6562z"/>
</g>
<g transform="matrix(.2261 -.05055 .03736 .16712 353.8697 -10.17)">
<path fill="#8f451e" d="m-539.6,2103.2c0,31.37-25.43,56.8-56.8,56.8s-56.8-25.43-56.8-56.8 25.43-56.8 56.8-56.8 56.8,25.43 56.8,56.8z"/>
<path fill="#210000" d="m-539.6,2103.2c0,31.37-25.43,56.8-56.8,56.8s-56.8-25.43-56.8-56.8 25.43-56.8 56.8-56.8 56.8,25.43 56.8,56.8z" transform="matrix(.8913 0 0 .8913 -64.826 228.6)"/>
</g>
<g fill="#e3b7b7" fill-opacity=".539" transform="matrix(.2261 -.05055 .03736 .16712 353.8697 -10.17)">
<path d="m-539.6,2103.2c0,31.37-27.443,8.7009-58.813,8.7009s-54.786,22.669-54.786-8.7009 22.764-71.662 54.134-71.662 59.466,40.293 59.466,71.662z" transform="matrix(.32635 -.13565 .05895 .14182 -539.77 1692)"/>
<path d="m-566.35,2116.5c-2.7224,.2265-6.4303,6.6284-11.431,10.226-4.6663,3.3564-10.177,5.3899-15.723,6.8483-6.1502,1.6175-11.339-.044-11.959,1.6149-2.1713,3.3216-.9641,7.7234 1.5637,10.48 3.65,4.0111 9.3861,5.0274 14.572,5.0309 11.312-.2755 22.2-6.6424 28.343-16.088 2.5046-3.8858 4.2438-9.0053 2.1664-13.455-1.4341-3.2275-4.0302-5.1658-7.5331-4.6562z"/>
</g>
<g transform="matrix(.28008 -.06261 .04628 .20701 354.6797 -405.54)">
<path fill="#8f451e" d="m-539.6,2103.2c0,31.37-25.43,56.8-56.8,56.8s-56.8-25.43-56.8-56.8 25.43-56.8 56.8-56.8 56.8,25.43 56.8,56.8z"/>
<path fill="#210000" d="m-539.6,2103.2c0,31.37-25.43,56.8-56.8,56.8s-56.8-25.43-56.8-56.8 25.43-56.8 56.8-56.8 56.8,25.43 56.8,56.8z" transform="matrix(.8913 0 0 .8913 -64.826 228.6)"/>
</g>
<g fill="#e3b7b7" fill-opacity=".539" transform="matrix(.28008 -.06261 .04628 .20701 354.6797 -405.54)">
<path d="m-539.6,2103.2c0,31.37-27.443,8.7009-58.813,8.7009s-54.786,22.669-54.786-8.7009 22.764-71.662 54.134-71.662 59.466,40.293 59.466,71.662z" transform="matrix(.32635 -.13565 .05895 .14182 -539.77 1692)"/>
<path d="m-566.35,2116.5c-2.7224,.2265-6.4303,6.6284-11.431,10.226-4.6663,3.3564-10.177,5.3899-15.723,6.8483-6.1502,1.6175-11.339-.044-11.959,1.6149-2.1713,3.3216-.9641,7.7234 1.5637,10.48 3.65,4.0111 9.3861,5.0274 14.572,5.0309 11.312-.2755 22.2-6.6424 28.343-16.088 2.5046-3.8858 4.2438-9.0053 2.1664-13.455-1.4341-3.2275-4.0302-5.1658-7.5331-4.6562z"/>
</g>
<g transform="matrix(.15028 -.0336 .02483 .11108 383.3997 86.53)">
<path fill="#8f451e" d="m-539.6,2103.2c0,31.37-25.43,56.8-56.8,56.8s-56.8-25.43-56.8-56.8 25.43-56.8 56.8-56.8 56.8,25.43 56.8,56.8z"/>
<path fill="#210000" d="m-539.6,2103.2c0,31.37-25.43,56.8-56.8,56.8s-56.8-25.43-56.8-56.8 25.43-56.8 56.8-56.8 56.8,25.43 56.8,56.8z" transform="matrix(.8913 0 0 .8913 -64.826 228.6)"/>
</g>
<g fill="#e3b7b7" fill-opacity=".539" transform="matrix(.15028 -.0336 .02483 .11108 383.3997 86.53)">
<path d="m-539.6,2103.2c0,31.37-27.443,8.7009-58.813,8.7009s-54.786,22.669-54.786-8.7009 22.764-71.662 54.134-71.662 59.466,40.293 59.466,71.662z" transform="matrix(.32635 -.13565 .05895 .14182 -539.77 1692)"/>
<path d="m-566.35,2116.5c-2.7224,.2265-6.4303,6.6284-11.431,10.226-4.6663,3.3564-10.177,5.3899-15.723,6.8483-6.1502,1.6175-11.339-.044-11.959,1.6149-2.1713,3.3216-.9641,7.7234 1.5637,10.48 3.65,4.0111 9.3861,5.0274 14.572,5.0309 11.312-.2755 22.2-6.6424 28.343-16.088 2.5046-3.8858 4.2438-9.0053 2.1664-13.455-1.4341-3.2275-4.0302-5.1658-7.5331-4.6562z"/>
</g>
<g transform="matrix(.07433 -.01662 .01228 .05494 368.8597 234.23)">
<path fill="#8f451e" d="m-539.6,2103.2c0,31.37-25.43,56.8-56.8,56.8s-56.8-25.43-56.8-56.8 25.43-56.8 56.8-56.8 56.8,25.43 56.8,56.8z"/>
<path fill="#210000" d="m-539.6,2103.2c0,31.37-25.43,56.8-56.8,56.8s-56.8-25.43-56.8-56.8 25.43-56.8 56.8-56.8 56.8,25.43 56.8,56.8z" transform="matrix(.8913 0 0 .8913 -64.826 228.6)"/>
</g>
<g fill="#e3b7b7" fill-opacity=".539" transform="matrix(.07433 -.01662 .01228 .05494 368.8597 234.23)">
<path d="m-539.6,2103.2c0,31.37-27.443,8.7009-58.813,8.7009s-54.786,22.669-54.786-8.7009 22.764-71.662 54.134-71.662 59.466,40.293 59.466,71.662z" transform="matrix(.32635 -.13565 .05895 .14182 -539.77 1692)"/>
<path d="m-566.35,2116.5c-2.7224,.2265-6.4303,6.6284-11.431,10.226-4.6663,3.3564-10.177,5.3899-15.723,6.8483-6.1502,1.6175-11.339-.044-11.959,1.6149-2.1713,3.3216-.9641,7.7234 1.5637,10.48 3.65,4.0111 9.3861,5.0274 14.572,5.0309 11.312-.2755 22.2-6.6424 28.343-16.088 2.5046-3.8858 4.2438-9.0053 2.1664-13.455-1.4341-3.2275-4.0302-5.1658-7.5331-4.6562z"/>
</g>
<g transform="matrix(.12749 -.0285 .02107 .09423 347.4497 -134.4)">
<path fill="#8f451e" d="m-539.6,2103.2c0,31.37-25.43,56.8-56.8,56.8s-56.8-25.43-56.8-56.8 25.43-56.8 56.8-56.8 56.8,25.43 56.8,56.8z"/>
<path fill="#210000" d="m-539.6,2103.2c0,31.37-25.43,56.8-56.8,56.8s-56.8-25.43-56.8-56.8 25.43-56.8 56.8-56.8 56.8,25.43 56.8,56.8z" transform="matrix(.8913 0 0 .8913 -64.826 228.6)"/>
</g>
<g fill="#e3b7b7" fill-opacity=".539" transform="matrix(.12749 -.0285 .02107 .09423 347.4497 -134.4)">
<path d="m-539.6,2103.2c0,31.37-27.443,8.7009-58.813,8.7009s-54.786,22.669-54.786-8.7009 22.764-71.662 54.134-71.662 59.466,40.293 59.466,71.662z" transform="matrix(.32635 -.13565 .05895 .14182 -539.77 1692)"/>
<path d="m-566.35,2116.5c-2.7224,.2265-6.4303,6.6284-11.431,10.226-4.6663,3.3564-10.177,5.3899-15.723,6.8483-6.1502,1.6175-11.339-.044-11.959,1.6149-2.1713,3.3216-.9641,7.7234 1.5637,10.48 3.65,4.0111 9.3861,5.0274 14.572,5.0309 11.312-.2755 22.2-6.6424 28.343-16.088 2.5046-3.8858 4.2438-9.0053 2.1664-13.455-1.4341-3.2275-4.0302-5.1658-7.5331-4.6562z"/>
</g>
<g transform="matrix(.20006 -.04473 .03306 .14787 369.8697 -237.39)">
<path fill="#8f451e" d="m-539.6,2103.2c0,31.37-25.43,56.8-56.8,56.8s-56.8-25.43-56.8-56.8 25.43-56.8 56.8-56.8 56.8,25.43 56.8,56.8z"/>
<path fill="#210000" d="m-539.6,2103.2c0,31.37-25.43,56.8-56.8,56.8s-56.8-25.43-56.8-56.8 25.43-56.8 56.8-56.8 56.8,25.43 56.8,56.8z" transform="matrix(.8913 0 0 .8913 -64.826 228.6)"/>
</g>
<g fill="#e3b7b7" fill-opacity=".539" transform="matrix(.20006 -.04473 .03306 .14787 369.8697 -237.39)">
<path d="m-539.6,2103.2c0,31.37-27.443,8.7009-58.813,8.7009s-54.786,22.669-54.786-8.7009 22.764-71.662 54.134-71.662 59.466,40.293 59.466,71.662z" transform="matrix(.32635 -.13565 .05895 .14182 -539.77 1692)"/>
<path d="m-566.35,2116.5c-2.7224,.2265-6.4303,6.6284-11.431,10.226-4.6663,3.3564-10.177,5.3899-15.723,6.8483-6.1502,1.6175-11.339-.044-11.959,1.6149-2.1713,3.3216-.9641,7.7234 1.5637,10.48 3.65,4.0111 9.3861,5.0274 14.572,5.0309 11.312-.2755 22.2-6.6424 28.343-16.088 2.5046-3.8858 4.2438-9.0053 2.1664-13.455-1.4341-3.2275-4.0302-5.1658-7.5331-4.6562z"/>
</g>
<g transform="matrix(.25284 -.05652 .04178 .18688 430.9497 -111.99)">
<path fill="#8f451e" d="m-539.6,2103.2c0,31.37-25.43,56.8-56.8,56.8s-56.8-25.43-56.8-56.8 25.43-56.8 56.8-56.8 56.8,25.43 56.8,56.8z"/>
<path fill="#210000" d="m-539.6,2103.2c0,31.37-25.43,56.8-56.8,56.8s-56.8-25.43-56.8-56.8 25.43-56.8 56.8-56.8 56.8,25.43 56.8,56.8z" transform="matrix(.8913 0 0 .8913 -64.826 228.6)"/>
</g>
<g fill="#e3b7b7" fill-opacity=".539" transform="matrix(.25284 -.05652 .04178 .18688 430.9497 -111.99)">
<path d="m-539.6,2103.2c0,31.37-27.443,8.7009-58.813,8.7009s-54.786,22.669-54.786-8.7009 22.764-71.662 54.134-71.662 59.466,40.293 59.466,71.662z" transform="matrix(.32635 -.13565 .05895 .14182 -539.77 1692)"/>
<path d="m-566.35,2116.5c-2.7224,.2265-6.4303,6.6284-11.431,10.226-4.6663,3.3564-10.177,5.3899-15.723,6.8483-6.1502,1.6175-11.339-.044-11.959,1.6149-2.1713,3.3216-.9641,7.7234 1.5637,10.48 3.65,4.0111 9.3861,5.0274 14.572,5.0309 11.312-.2755 22.2-6.6424 28.343-16.088 2.5046-3.8858 4.2438-9.0053 2.1664-13.455-1.4341-3.2275-4.0302-5.1658-7.5331-4.6562z"/>
</g>
<g transform="matrix(.15071 -.03369 .0249 .11139 442.5897 -23.47)">
<path fill="#8f451e" d="m-539.6,2103.2c0,31.37-25.43,56.8-56.8,56.8s-56.8-25.43-56.8-56.8 25.43-56.8 56.8-56.8 56.8,25.43 56.8,56.8z"/>
<path fill="#210000" d="m-539.6,2103.2c0,31.37-25.43,56.8-56.8,56.8s-56.8-25.43-56.8-56.8 25.43-56.8 56.8-56.8 56.8,25.43 56.8,56.8z" transform="matrix(.8913 0 0 .8913 -64.826 228.6)"/>
</g>
<g fill="#e3b7b7" fill-opacity=".539" transform="matrix(.15071 -.03369 .0249 .11139 442.5897 -23.47)">
<path d="m-539.6,2103.2c0,31.37-27.443,8.7009-58.813,8.7009s-54.786,22.669-54.786-8.7009 22.764-71.662 54.134-71.662 59.466,40.293 59.466,71.662z" transform="matrix(.32635 -.13565 .05895 .14182 -539.77 1692)"/>
<path d="m-566.35,2116.5c-2.7224,.2265-6.4303,6.6284-11.431,10.226-4.6663,3.3564-10.177,5.3899-15.723,6.8483-6.1502,1.6175-11.339-.044-11.959,1.6149-2.1713,3.3216-.9641,7.7234 1.5637,10.48 3.65,4.0111 9.3861,5.0274 14.572,5.0309 11.312-.2755 22.2-6.6424 28.343-16.088 2.5046-3.8858 4.2438-9.0053 2.1664-13.455-1.4341-3.2275-4.0302-5.1658-7.5331-4.6562z"/>
</g>
<g transform="matrix(.17301 -.03868 .02859 .12787 428.7397 -22.17)">
<path fill="#8f451e" d="m-539.6,2103.2c0,31.37-25.43,56.8-56.8,56.8s-56.8-25.43-56.8-56.8 25.43-56.8 56.8-56.8 56.8,25.43 56.8,56.8z"/>
<path fill="#210000" d="m-539.6,2103.2c0,31.37-25.43,56.8-56.8,56.8s-56.8-25.43-56.8-56.8 25.43-56.8 56.8-56.8 56.8,25.43 56.8,56.8z" transform="matrix(.8913 0 0 .8913 -64.826 228.6)"/>
</g>
<g fill="#e3b7b7" fill-opacity=".539" transform="matrix(.17301 -.03868 .02859 .12787 428.7397 -22.17)">
<path d="m-539.6,2103.2c0,31.37-27.443,8.7009-58.813,8.7009s-54.786,22.669-54.786-8.7009 22.764-71.662 54.134-71.662 59.466,40.293 59.466,71.662z" transform="matrix(.32635 -.13565 .05895 .14182 -539.77 1692)"/>
<path d="m-566.35,2116.5c-2.7224,.2265-6.4303,6.6284-11.431,10.226-4.6663,3.3564-10.177,5.3899-15.723,6.8483-6.1502,1.6175-11.339-.044-11.959,1.6149-2.1713,3.3216-.9641,7.7234 1.5637,10.48 3.65,4.0111 9.3861,5.0274 14.572,5.0309 11.312-.2755 22.2-6.6424 28.343-16.088 2.5046-3.8858 4.2438-9.0053 2.1664-13.455-1.4341-3.2275-4.0302-5.1658-7.5331-4.6562z"/>
</g>
<g transform="matrix(.12867 -.02877 .02126 .09511 422.0697 72.23)">
<path fill="#8f451e" d="m-539.6,2103.2c0,31.37-25.43,56.8-56.8,56.8s-56.8-25.43-56.8-56.8 25.43-56.8 56.8-56.8 56.8,25.43 56.8,56.8z"/>
<path fill="#210000" d="m-539.6,2103.2c0,31.37-25.43,56.8-56.8,56.8s-56.8-25.43-56.8-56.8 25.43-56.8 56.8-56.8 56.8,25.43 56.8,56.8z" transform="matrix(.8913 0 0 .8913 -64.826 228.6)"/>
</g>
<g fill="#e3b7b7" fill-opacity=".539" transform="matrix(.12867 -.02877 .02126 .09511 422.0697 72.23)">
<path d="m-539.6,2103.2c0,31.37-27.443,8.7009-58.813,8.7009s-54.786,22.669-54.786-8.7009 22.764-71.662 54.134-71.662 59.466,40.293 59.466,71.662z" transform="matrix(.32635 -.13565 .05895 .14182 -539.77 1692)"/>
<path d="m-566.35,2116.5c-2.7224,.2265-6.4303,6.6284-11.431,10.226-4.6663,3.3564-10.177,5.3899-15.723,6.8483-6.1502,1.6175-11.339-.044-11.959,1.6149-2.1713,3.3216-.9641,7.7234 1.5637,10.48 3.65,4.0111 9.3861,5.0274 14.572,5.0309 11.312-.2755 22.2-6.6424 28.343-16.088 2.5046-3.8858 4.2438-9.0053 2.1664-13.455-1.4341-3.2275-4.0302-5.1658-7.5331-4.6562z"/>
</g>
<g transform="matrix(.18349 -.04102 .03032 .13563 418.9497 -175.48)">
<path fill="#8f451e" d="m-539.6,2103.2c0,31.37-25.43,56.8-56.8,56.8s-56.8-25.43-56.8-56.8 25.43-56.8 56.8-56.8 56.8,25.43 56.8,56.8z"/>
<path fill="#210000" d="m-539.6,2103.2c0,31.37-25.43,56.8-56.8,56.8s-56.8-25.43-56.8-56.8 25.43-56.8 56.8-56.8 56.8,25.43 56.8,56.8z" transform="matrix(.8913 0 0 .8913 -64.826 228.6)"/>
</g>
<g fill="#e3b7b7" fill-opacity=".539" transform="matrix(.18349 -.04102 .03032 .13563 418.9497 -175.48)">
<path d="m-539.6,2103.2c0,31.37-27.443,8.7009-58.813,8.7009s-54.786,22.669-54.786-8.7009 22.764-71.662 54.134-71.662 59.466,40.293 59.466,71.662z" transform="matrix(.32635 -.13565 .05895 .14182 -539.77 1692)"/>
<path d="m-566.35,2116.5c-2.7224,.2265-6.4303,6.6284-11.431,10.226-4.6663,3.3564-10.177,5.3899-15.723,6.8483-6.1502,1.6175-11.339-.044-11.959,1.6149-2.1713,3.3216-.9641,7.7234 1.5637,10.48 3.65,4.0111 9.3861,5.0274 14.572,5.0309 11.312-.2755 22.2-6.6424 28.343-16.088 2.5046-3.8858 4.2438-9.0053 2.1664-13.455-1.4341-3.2275-4.0302-5.1658-7.5331-4.6562z"/>
</g>
<g transform="matrix(.20404 -.04561 .03372 .15081 441.0497 -177.9)">
<path fill="#8f451e" d="m-539.6,2103.2c0,31.37-25.43,56.8-56.8,56.8s-56.8-25.43-56.8-56.8 25.43-56.8 56.8-56.8 56.8,25.43 56.8,56.8z"/>
<path fill="#210000" d="m-539.6,2103.2c0,31.37-25.43,56.8-56.8,56.8s-56.8-25.43-56.8-56.8 25.43-56.8 56.8-56.8 56.8,25.43 56.8,56.8z" transform="matrix(.8913 0 0 .8913 -64.826 228.6)"/>
</g>
<g fill="#e3b7b7" fill-opacity=".539" transform="matrix(.20404 -.04561 .03372 .15081 441.0497 -177.9)">
<path d="m-539.6,2103.2c0,31.37-27.443,8.7009-58.813,8.7009s-54.786,22.669-54.786-8.7009 22.764-71.662 54.134-71.662 59.466,40.293 59.466,71.662z" transform="matrix(.32635 -.13565 .05895 .14182 -539.77 1692)"/>
<path d="m-566.35,2116.5c-2.7224,.2265-6.4303,6.6284-11.431,10.226-4.6663,3.3564-10.177,5.3899-15.723,6.8483-6.1502,1.6175-11.339-.044-11.959,1.6149-2.1713,3.3216-.9641,7.7234 1.5637,10.48 3.65,4.0111 9.3861,5.0274 14.572,5.0309 11.312-.2755 22.2-6.6424 28.343-16.088 2.5046-3.8858 4.2438-9.0053 2.1664-13.455-1.4341-3.2275-4.0302-5.1658-7.5331-4.6562z"/>
</g>
<g transform="matrix(.17475 -.03907 .02888 .12916 438.1197 -108.97)">
<path fill="#8f451e" d="m-539.6,2103.2c0,31.37-25.43,56.8-56.8,56.8s-56.8-25.43-56.8-56.8 25.43-56.8 56.8-56.8 56.8,25.43 56.8,56.8z"/>
<path fill="#210000" d="m-539.6,2103.2c0,31.37-25.43,56.8-56.8,56.8s-56.8-25.43-56.8-56.8 25.43-56.8 56.8-56.8 56.8,25.43 56.8,56.8z" transform="matrix(.8913 0 0 .8913 -64.826 228.6)"/>
</g>
<g fill="#e3b7b7" fill-opacity=".539" transform="matrix(.17475 -.03907 .02888 .12916 438.1197 -108.97)">
<path d="m-539.6,2103.2c0,31.37-27.443,8.7009-58.813,8.7009s-54.786,22.669-54.786-8.7009 22.764-71.662 54.134-71.662 59.466,40.293 59.466,71.662z" transform="matrix(.32635 -.13565 .05895 .14182 -539.77 1692)"/>
<path d="m-566.35,2116.5c-2.7224,.2265-6.4303,6.6284-11.431,10.226-4.6663,3.3564-10.177,5.3899-15.723,6.8483-6.1502,1.6175-11.339-.044-11.959,1.6149-2.1713,3.3216-.9641,7.7234 1.5637,10.48 3.65,4.0111 9.3861,5.0274 14.572,5.0309 11.312-.2755 22.2-6.6424 28.343-16.088 2.5046-3.8858 4.2438-9.0053 2.1664-13.455-1.4341-3.2275-4.0302-5.1658-7.5331-4.6562z"/>
</g>
<g transform="matrix(.12213 -.0273 .02018 .09027 429.3797 -.67)">
<path fill="#8f451e" d="m-539.6,2103.2c0,31.37-25.43,56.8-56.8,56.8s-56.8-25.43-56.8-56.8 25.43-56.8 56.8-56.8 56.8,25.43 56.8,56.8z"/>
<path fill="#210000" d="m-539.6,2103.2c0,31.37-25.43,56.8-56.8,56.8s-56.8-25.43-56.8-56.8 25.43-56.8 56.8-56.8 56.8,25.43 56.8,56.8z" transform="matrix(.8913 0 0 .8913 -64.826 228.6)"/>
</g>
<g fill="#e3b7b7" fill-opacity=".539" transform="matrix(.12213 -.0273 .02018 .09027 429.3797 -.67)">
<path d="m-539.6,2103.2c0,31.37-27.443,8.7009-58.813,8.7009s-54.786,22.669-54.786-8.7009 22.764-71.662 54.134-71.662 59.466,40.293 59.466,71.662z" transform="matrix(.32635 -.13565 .05895 .14182 -539.77 1692)"/>
<path d="m-566.35,2116.5c-2.7224,.2265-6.4303,6.6284-11.431,10.226-4.6663,3.3564-10.177,5.3899-15.723,6.8483-6.1502,1.6175-11.339-.044-11.959,1.6149-2.1713,3.3216-.9641,7.7234 1.5637,10.48 3.65,4.0111 9.3861,5.0274 14.572,5.0309 11.312-.2755 22.2-6.6424 28.343-16.088 2.5046-3.8858 4.2438-9.0053 2.1664-13.455-1.4341-3.2275-4.0302-5.1658-7.5331-4.6562z"/>
</g>
</g>
<g transform="matrix(.99378 .11139 -.11139 .99378 601.5097 -2314.67)">
<path fill="#6e3617" color="#000" d="m-66.489,2419.9c-2.1655,8.8431 13.543,5.8481 5.6439,16.247 3.8873,3.5569-.2043,12.404 1.484,16.641-10.129,10.371-26.459,22.493-32.764,27.341-3.4885,3.6222-14.118,11.618-18.831,14.673-15.447,7.1488-33.538,15.395-37.783,14.391-13.55,5.0598-22.911,5.7535-24.414,1.9071-4.4938-3.1511-15.284-3.6373-24.841-4.1189-.1346-6.5321-5.4089-12.149-12.736-14.822-9.6221-2.5383 12.015-18.508 6.3879-21.666-3.7538-4.983 5.6755-15.197 6.2867-19.404 1.0839-6.0693 8.6187-13.539 22.394-22.584 .9187-2.8856 15.571-14.239 27.555-19.35 3.3121-1.9659 15.04-5.5402 31.554-11.53 7.247-2.0003 19.551-2.3242 21.054,1.5155 14.937-2.475 12.253,3.425 24.558,3.8719 11.141-.1416-3.2146,14.559 5.097,16.88"/>
</g>
<g color="#000">
<g transform="matrix(.25978 .02912 -.02152 .19202 349.35733 -286.42847)">
<path fill="#8f451e" d="m-539.6,2103.2c0,31.37-25.43,56.8-56.8,56.8s-56.8-25.43-56.8-56.8 25.43-56.8 56.8-56.8 56.8,25.43 56.8,56.8z"/>
<path fill="#210000" d="m-539.6,2103.2c0,31.37-25.43,56.8-56.8,56.8s-56.8-25.43-56.8-56.8 25.43-56.8 56.8-56.8 56.8,25.43 56.8,56.8z" transform="matrix(.8913 0 0 .8913 -64.826 228.6)"/>
</g>
<g fill="#e3b7b7" fill-opacity=".539" transform="matrix(.25978 .02912 -.02152 .19202 349.35733 -286.42847)">
<path d="m-539.6,2103.2c0,31.37-27.443,8.7009-58.813,8.7009s-54.786,22.669-54.786-8.7009 22.764-71.662 54.134-71.662 59.466,40.293 59.466,71.662z" transform="matrix(.32635 -.13565 .05895 .14182 -539.77 1692)"/>
<path d="m-566.35,2116.5c-2.7224,.2265-6.4303,6.6284-11.431,10.226-4.6663,3.3564-10.177,5.3899-15.723,6.8483-6.1502,1.6175-11.339-.044-11.959,1.6149-2.1713,3.3216-.9641,7.7234 1.5637,10.48 3.65,4.0111 9.3861,5.0274 14.572,5.0309 11.312-.2755 22.2-6.6424 28.343-16.088 2.5046-3.8858 4.2438-9.0053 2.1664-13.455-1.4341-3.2275-4.0302-5.1658-7.5331-4.6562z"/>
</g>
<g transform="matrix(.23602 .02646 -.01955 .17446 322.60348 -232.87512)">
<path fill="#8f451e" d="m-539.6,2103.2c0,31.37-25.43,56.8-56.8,56.8s-56.8-25.43-56.8-56.8 25.43-56.8 56.8-56.8 56.8,25.43 56.8,56.8z"/>
<path fill="#210000" d="m-539.6,2103.2c0,31.37-25.43,56.8-56.8,56.8s-56.8-25.43-56.8-56.8 25.43-56.8 56.8-56.8 56.8,25.43 56.8,56.8z" transform="matrix(.8913 0 0 .8913 -64.826 228.6)"/>
</g>
<g fill="#e3b7b7" fill-opacity=".539" transform="matrix(.23602 .02646 -.01955 .17446 322.60348 -232.87512)">
<path d="m-539.6,2103.2c0,31.37-27.443,8.7009-58.813,8.7009s-54.786,22.669-54.786-8.7009 22.764-71.662 54.134-71.662 59.466,40.293 59.466,71.662z" transform="matrix(.32635 -.13565 .05895 .14182 -539.77 1692)"/>
<path d="m-566.35,2116.5c-2.7224,.2265-6.4303,6.6284-11.431,10.226-4.6663,3.3564-10.177,5.3899-15.723,6.8483-6.1502,1.6175-11.339-.044-11.959,1.6149-2.1713,3.3216-.9641,7.7234 1.5637,10.48 3.65,4.0111 9.3861,5.0274 14.572,5.0309 11.312-.2755 22.2-6.6424 28.343-16.088 2.5046-3.8858 4.2438-9.0053 2.1664-13.455-1.4341-3.2275-4.0302-5.1658-7.5331-4.6562z"/>
</g>
<g transform="matrix(.13693 .01535 -.01134 .10121 242.55026 -63.33658)">
<path fill="#8f451e" d="m-539.6,2103.2c0,31.37-25.43,56.8-56.8,56.8s-56.8-25.43-56.8-56.8 25.43-56.8 56.8-56.8 56.8,25.43 56.8,56.8z"/>
<path fill="#210000" d="m-539.6,2103.2c0,31.37-25.43,56.8-56.8,56.8s-56.8-25.43-56.8-56.8 25.43-56.8 56.8-56.8 56.8,25.43 56.8,56.8z" transform="matrix(.8913 0 0 .8913 -64.826 228.6)"/>
</g>
<g fill="#e3b7b7" fill-opacity=".539" transform="matrix(.13693 .01535 -.01134 .10121 242.55026 -63.33658)">
<path d="m-539.6,2103.2c0,31.37-27.443,8.7009-58.813,8.7009s-54.786,22.669-54.786-8.7009 22.764-71.662 54.134-71.662 59.466,40.293 59.466,71.662z" transform="matrix(.32635 -.13565 .05895 .14182 -539.77 1692)"/>
<path d="m-566.35,2116.5c-2.7224,.2265-6.4303,6.6284-11.431,10.226-4.6663,3.3564-10.177,5.3899-15.723,6.8483-6.1502,1.6175-11.339-.044-11.959,1.6149-2.1713,3.3216-.9641,7.7234 1.5637,10.48 3.65,4.0111 9.3861,5.0274 14.572,5.0309 11.312-.2755 22.2-6.6424 28.343-16.088 2.5046-3.8858 4.2438-9.0053 2.1664-13.455-1.4341-3.2275-4.0302-5.1658-7.5331-4.6562z"/>
</g>
<g transform="matrix(.14984 .0168 -.01241 .11076 296.27883 -159.45023)">
<path fill="#8f451e" d="m-539.6,2103.2c0,31.37-25.43,56.8-56.8,56.8s-56.8-25.43-56.8-56.8 25.43-56.8 56.8-56.8 56.8,25.43 56.8,56.8z"/>
<path fill="#210000" d="m-539.6,2103.2c0,31.37-25.43,56.8-56.8,56.8s-56.8-25.43-56.8-56.8 25.43-56.8 56.8-56.8 56.8,25.43 56.8,56.8z" transform="matrix(.8913 0 0 .8913 -64.826 228.6)"/>
</g>
<g fill="#e3b7b7" fill-opacity=".539" transform="matrix(.14984 .0168 -.01241 .11076 296.27883 -159.45023)">
<path d="m-539.6,2103.2c0,31.37-27.443,8.7009-58.813,8.7009s-54.786,22.669-54.786-8.7009 22.764-71.662 54.134-71.662 59.466,40.293 59.466,71.662z" transform="matrix(.32635 -.13565 .05895 .14182 -539.77 1692)"/>
<path d="m-566.35,2116.5c-2.7224,.2265-6.4303,6.6284-11.431,10.226-4.6663,3.3564-10.177,5.3899-15.723,6.8483-6.1502,1.6175-11.339-.044-11.959,1.6149-2.1713,3.3216-.9641,7.7234 1.5637,10.48 3.65,4.0111 9.3861,5.0274 14.572,5.0309 11.312-.2755 22.2-6.6424 28.343-16.088 2.5046-3.8858 4.2438-9.0053 2.1664-13.455-1.4341-3.2275-4.0302-5.1658-7.5331-4.6562z"/>
</g>
<g transform="matrix(.31501 .03531 -.0261 .23283 421.26165 -384.12741)">
<path fill="#8f451e" d="m-539.6,2103.2c0,31.37-25.43,56.8-56.8,56.8s-56.8-25.43-56.8-56.8 25.43-56.8 56.8-56.8 56.8,25.43 56.8,56.8z"/>
<path fill="#210000" d="m-539.6,2103.2c0,31.37-25.43,56.8-56.8,56.8s-56.8-25.43-56.8-56.8 25.43-56.8 56.8-56.8 56.8,25.43 56.8,56.8z" transform="matrix(.8913 0 0 .8913 -64.826 228.6)"/>
</g>
<g fill="#896262" transform="matrix(.31501 .03531 -.0261 .23283 421.26165 -384.12741)">
<path d="m-539.6,2103.2c0,31.37-27.443,8.7009-58.813,8.7009s-54.786,22.669-54.786-8.7009 22.764-71.662 54.134-71.662 59.466,40.293 59.466,71.662z" transform="matrix(.32635 -.13565 .05895 .14182 -539.77 1692)"/>
<path d="m-566.35,2116.5c-2.7224,.2265-6.4303,6.6284-11.431,10.226-4.6663,3.3564-10.177,5.3899-15.723,6.8483-6.1502,1.6175-11.339-.044-11.959,1.6149-2.1713,3.3216-.9641,7.7234 1.5637,10.48 3.65,4.0111 9.3861,5.0274 14.572,5.0309 11.312-.2755 22.2-6.6424 28.343-16.088 2.5046-3.8858 4.2438-9.0053 2.1664-13.455-1.4341-3.2275-4.0302-5.1658-7.5331-4.6562z"/>
</g>
<g transform="matrix(.23361 .02618 -.01935 .17267 358.43516 -237.51273)">
<path fill="#8f451e" d="m-539.6,2103.2c0,31.37-25.43,56.8-56.8,56.8s-56.8-25.43-56.8-56.8 25.43-56.8 56.8-56.8 56.8,25.43 56.8,56.8z"/>
<path fill="#210000" d="m-539.6,2103.2c0,31.37-25.43,56.8-56.8,56.8s-56.8-25.43-56.8-56.8 25.43-56.8 56.8-56.8 56.8,25.43 56.8,56.8z" transform="matrix(.8913 0 0 .8913 -64.826 228.6)"/>
</g>
<g fill="#e3b7b7" fill-opacity=".539" transform="matrix(.23361 .02618 -.01935 .17267 358.43516 -237.51273)">
<path d="m-539.6,2103.2c0,31.37-27.443,8.7009-58.813,8.7009s-54.786,22.669-54.786-8.7009 22.764-71.662 54.134-71.662 59.466,40.293 59.466,71.662z" transform="matrix(.32635 -.13565 .05895 .14182 -539.77 1692)"/>
<path d="m-566.35,2116.5c-2.7224,.2265-6.4303,6.6284-11.431,10.226-4.6663,3.3564-10.177,5.3899-15.723,6.8483-6.1502,1.6175-11.339-.044-11.959,1.6149-2.1713,3.3216-.9641,7.7234 1.5637,10.48 3.65,4.0111 9.3861,5.0274 14.572,5.0309 11.312-.2755 22.2-6.6424 28.343-16.088 2.5046-3.8858 4.2438-9.0053 2.1664-13.455-1.4341-3.2275-4.0302-5.1658-7.5331-4.6562z"/>
</g>
<g transform="matrix(.20796 .02331 -.01723 .15371 329.48805 -186.62025)">
<path fill="#8f451e" d="m-539.6,2103.2c0,31.37-25.43,56.8-56.8,56.8s-56.8-25.43-56.8-56.8 25.43-56.8 56.8-56.8 56.8,25.43 56.8,56.8z"/>
<path fill="#210000" d="m-539.6,2103.2c0,31.37-25.43,56.8-56.8,56.8s-56.8-25.43-56.8-56.8 25.43-56.8 56.8-56.8 56.8,25.43 56.8,56.8z" transform="matrix(.8913 0 0 .8913 -64.826 228.6)"/>
</g>
<g fill="#e3b7b7" fill-opacity=".539" transform="matrix(.20796 .02331 -.01723 .15371 329.48805 -186.62025)">
<path d="m-539.6,2103.2c0,31.37-27.443,8.7009-58.813,8.7009s-54.786,22.669-54.786-8.7009 22.764-71.662 54.134-71.662 59.466,40.293 59.466,71.662z" transform="matrix(.32635 -.13565 .05895 .14182 -539.77 1692)"/>
<path d="m-566.35,2116.5c-2.7224,.2265-6.4303,6.6284-11.431,10.226-4.6663,3.3564-10.177,5.3899-15.723,6.8483-6.1502,1.6175-11.339-.044-11.959,1.6149-2.1713,3.3216-.9641,7.7234 1.5637,10.48 3.65,4.0111 9.3861,5.0274 14.572,5.0309 11.312-.2755 22.2-6.6424 28.343-16.088 2.5046-3.8858 4.2438-9.0053 2.1664-13.455-1.4341-3.2275-4.0302-5.1658-7.5331-4.6562z"/>
</g>
<g transform="matrix(.44583 .04997 -.03694 .32953 514.4716 -518.48136)">
<path fill="#8f451e" d="m-539.6,2103.2c0,31.37-25.43,56.8-56.8,56.8s-56.8-25.43-56.8-56.8 25.43-56.8 56.8-56.8 56.8,25.43 56.8,56.8z"/>
<path fill="#210000" d="m-539.6,2103.2c0,31.37-25.43,56.8-56.8,56.8s-56.8-25.43-56.8-56.8 25.43-56.8 56.8-56.8 56.8,25.43 56.8,56.8z" transform="matrix(.8913 0 0 .8913 -64.826 228.6)"/>
</g>
<g fill="#e3b7b7" fill-opacity=".539" transform="matrix(.44583 .04997 -.03694 .32953 514.4716 -518.48136)">
<path d="m-539.6,2103.2c0,31.37-27.443,8.7009-58.813,8.7009s-54.786,22.669-54.786-8.7009 22.764-71.662 54.134-71.662 59.466,40.293 59.466,71.662z" transform="matrix(.32635 -.13565 .05895 .14182 -539.77 1692)"/>
<path d="m-566.35,2116.5c-2.7224,.2265-6.4303,6.6284-11.431,10.226-4.6663,3.3564-10.177,5.3899-15.723,6.8483-6.1502,1.6175-11.339-.044-11.959,1.6149-2.1713,3.3216-.9641,7.7234 1.5637,10.48 3.65,4.0111 9.3861,5.0274 14.572,5.0309 11.312-.2755 22.2-6.6424 28.343-16.088 2.5046-3.8858 4.2438-9.0053 2.1664-13.455-1.4341-3.2275-4.0302-5.1658-7.5331-4.6562z"/>
</g>
<g transform="matrix(.09463 .01061 -.00784 .06995 276.47527 -72.71609)">
<path fill="#8f451e" d="m-539.6,2103.2c0,31.37-25.43,56.8-56.8,56.8s-56.8-25.43-56.8-56.8 25.43-56.8 56.8-56.8 56.8,25.43 56.8,56.8z"/>
<path fill="#210000" d="m-539.6,2103.2c0,31.37-25.43,56.8-56.8,56.8s-56.8-25.43-56.8-56.8 25.43-56.8 56.8-56.8 56.8,25.43 56.8,56.8z" transform="matrix(.8913 0 0 .8913 -64.826 228.6)"/>
</g>
<g fill="#e3b7b7" fill-opacity=".539" transform="matrix(.09463 .01061 -.00784 .06995 276.47527 -72.71609)">
<path d="m-539.6,2103.2c0,31.37-27.443,8.7009-58.813,8.7009s-54.786,22.669-54.786-8.7009 22.764-71.662 54.134-71.662 59.466,40.293 59.466,71.662z" transform="matrix(.32635 -.13565 .05895 .14182 -539.77 1692)"/>
<path d="m-566.35,2116.5c-2.7224,.2265-6.4303,6.6284-11.431,10.226-4.6663,3.3564-10.177,5.3899-15.723,6.8483-6.1502,1.6175-11.339-.044-11.959,1.6149-2.1713,3.3216-.9641,7.7234 1.5637,10.48 3.65,4.0111 9.3861,5.0274 14.572,5.0309 11.312-.2755 22.2-6.6424 28.343-16.088 2.5046-3.8858 4.2438-9.0053 2.1664-13.455-1.4341-3.2275-4.0302-5.1658-7.5331-4.6562z"/>
</g>
<g transform="matrix(.12192 .01367 -.0101 .09011 298.90146 -95.05716)">
<path fill="#8f451e" d="m-539.6,2103.2c0,31.37-25.43,56.8-56.8,56.8s-56.8-25.43-56.8-56.8 25.43-56.8 56.8-56.8 56.8,25.43 56.8,56.8z"/>
<path fill="#210000" d="m-539.6,2103.2c0,31.37-25.43,56.8-56.8,56.8s-56.8-25.43-56.8-56.8 25.43-56.8 56.8-56.8 56.8,25.43 56.8,56.8z" transform="matrix(.8913 0 0 .8913 -64.826 228.6)"/>
</g>
<g fill="#e3b7b7" fill-opacity=".539" transform="matrix(.12192 .01367 -.0101 .09011 298.90146 -95.05716)">
<path d="m-539.6,2103.2c0,31.37-27.443,8.7009-58.813,8.7009s-54.786,22.669-54.786-8.7009 22.764-71.662 54.134-71.662 59.466,40.293 59.466,71.662z" transform="matrix(.32635 -.13565 .05895 .14182 -539.77 1692)"/>
<path d="m-566.35,2116.5c-2.7224,.2265-6.4303,6.6284-11.431,10.226-4.6663,3.3564-10.177,5.3899-15.723,6.8483-6.1502,1.6175-11.339-.044-11.959,1.6149-2.1713,3.3216-.9641,7.7234 1.5637,10.48 3.65,4.0111 9.3861,5.0274 14.572,5.0309 11.312-.2755 22.2-6.6424 28.343-16.088 2.5046-3.8858 4.2438-9.0053 2.1664-13.455-1.4341-3.2275-4.0302-5.1658-7.5331-4.6562z"/>
</g>
<g transform="matrix(.13321 .01493 -.01104 .09846 307.20733 -90.20174)">
<path fill="#8f451e" d="m-539.6,2103.2c0,31.37-25.43,56.8-56.8,56.8s-56.8-25.43-56.8-56.8 25.43-56.8 56.8-56.8 56.8,25.43 56.8,56.8z"/>
<path fill="#210000" d="m-539.6,2103.2c0,31.37-25.43,56.8-56.8,56.8s-56.8-25.43-56.8-56.8 25.43-56.8 56.8-56.8 56.8,25.43 56.8,56.8z" transform="matrix(.8913 0 0 .8913 -64.826 228.6)"/>
</g>
<g fill="#e3b7b7" fill-opacity=".539" transform="matrix(.13321 .01493 -.01104 .09846 307.20733 -90.20174)">
<path d="m-539.6,2103.2c0,31.37-27.443,8.7009-58.813,8.7009s-54.786,22.669-54.786-8.7009 22.764-71.662 54.134-71.662 59.466,40.293 59.466,71.662z" transform="matrix(.32635 -.13565 .05895 .14182 -539.77 1692)"/>
<path d="m-566.35,2116.5c-2.7224,.2265-6.4303,6.6284-11.431,10.226-4.6663,3.3564-10.177,5.3899-15.723,6.8483-6.1502,1.6175-11.339-.044-11.959,1.6149-2.1713,3.3216-.9641,7.7234 1.5637,10.48 3.65,4.0111 9.3861,5.0274 14.572,5.0309 11.312-.2755 22.2-6.6424 28.343-16.088 2.5046-3.8858 4.2438-9.0053 2.1664-13.455-1.4341-3.2275-4.0302-5.1658-7.5331-4.6562z"/>
</g>
<g transform="matrix(.34443 .03861 -.02854 .25459 477.16061 -366.69231)">
<path fill="#8f451e" d="m-539.6,2103.2c0,31.37-25.43,56.8-56.8,56.8s-56.8-25.43-56.8-56.8 25.43-56.8 56.8-56.8 56.8,25.43 56.8,56.8z"/>
<path fill="#210000" d="m-539.6,2103.2c0,31.37-25.43,56.8-56.8,56.8s-56.8-25.43-56.8-56.8 25.43-56.8 56.8-56.8 56.8,25.43 56.8,56.8z" transform="matrix(.8913 0 0 .8913 -64.826 228.6)"/>
</g>
<g fill="#e3b7b7" fill-opacity=".539" transform="matrix(.34443 .03861 -.02854 .25459 477.16061 -366.69231)">
<path d="m-539.6,2103.2c0,31.37-27.443,8.7009-58.813,8.7009s-54.786,22.669-54.786-8.7009 22.764-71.662 54.134-71.662 59.466,40.293 59.466,71.662z" transform="matrix(.32635 -.13565 .05895 .14182 -539.77 1692)"/>
<path d="m-566.35,2116.5c-2.7224,.2265-6.4303,6.6284-11.431,10.226-4.6663,3.3564-10.177,5.3899-15.723,6.8483-6.1502,1.6175-11.339-.044-11.959,1.6149-2.1713,3.3216-.9641,7.7234 1.5637,10.48 3.65,4.0111 9.3861,5.0274 14.572,5.0309 11.312-.2755 22.2-6.6424 28.343-16.088 2.5046-3.8858 4.2438-9.0053 2.1664-13.455-1.4341-3.2275-4.0302-5.1658-7.5331-4.6562z"/>
</g>
<g transform="matrix(.29132 .03265 -.02413 .21532 458.05148 -362.69598)">
<path fill="#8f451e" d="m-539.6,2103.2c0,31.37-25.43,56.8-56.8,56.8s-56.8-25.43-56.8-56.8 25.43-56.8 56.8-56.8 56.8,25.43 56.8,56.8z"/>
<path fill="#210000" d="m-539.6,2103.2c0,31.37-25.43,56.8-56.8,56.8s-56.8-25.43-56.8-56.8 25.43-56.8 56.8-56.8 56.8,25.43 56.8,56.8z" transform="matrix(.8913 0 0 .8913 -64.826 228.6)"/>
</g>
<g fill="#e3b7b7" fill-opacity=".539" transform="matrix(.29132 .03265 -.02413 .21532 458.05148 -362.69598)">
<path d="m-539.6,2103.2c0,31.37-27.443,8.7009-58.813,8.7009s-54.786,22.669-54.786-8.7009 22.764-71.662 54.134-71.662 59.466,40.293 59.466,71.662z" transform="matrix(.32635 -.13565 .05895 .14182 -539.77 1692)"/>
<path d="m-566.35,2116.5c-2.7224,.2265-6.4303,6.6284-11.431,10.226-4.6663,3.3564-10.177,5.3899-15.723,6.8483-6.1502,1.6175-11.339-.044-11.959,1.6149-2.1713,3.3216-.9641,7.7234 1.5637,10.48 3.65,4.0111 9.3861,5.0274 14.572,5.0309 11.312-.2755 22.2-6.6424 28.343-16.088 2.5046-3.8858 4.2438-9.0053 2.1664-13.455-1.4341-3.2275-4.0302-5.1658-7.5331-4.6562z"/>
</g>
<g transform="matrix(.2421 .02714 -.02006 .17895 413.79782 -265.62093)">
<path fill="#8f451e" d="m-539.6,2103.2c0,31.37-25.43,56.8-56.8,56.8s-56.8-25.43-56.8-56.8 25.43-56.8 56.8-56.8 56.8,25.43 56.8,56.8z"/>
<path fill="#210000" d="m-539.6,2103.2c0,31.37-25.43,56.8-56.8,56.8s-56.8-25.43-56.8-56.8 25.43-56.8 56.8-56.8 56.8,25.43 56.8,56.8z" transform="matrix(.8913 0 0 .8913 -64.826 228.6)"/>
</g>
<g fill="#e3b7b7" fill-opacity=".539" transform="matrix(.2421 .02714 -.02006 .17895 413.79782 -265.62093)">
<path d="m-539.6,2103.2c0,31.37-27.443,8.7009-58.813,8.7009s-54.786,22.669-54.786-8.7009 22.764-71.662 54.134-71.662 59.466,40.293 59.466,71.662z" transform="matrix(.32635 -.13565 .05895 .14182 -539.77 1692)"/>
<path d="m-566.35,2116.5c-2.7224,.2265-6.4303,6.6284-11.431,10.226-4.6663,3.3564-10.177,5.3899-15.723,6.8483-6.1502,1.6175-11.339-.044-11.959,1.6149-2.1713,3.3216-.9641,7.7234 1.5637,10.48 3.65,4.0111 9.3861,5.0274 14.572,5.0309 11.312-.2755 22.2-6.6424 28.343-16.088 2.5046-3.8858 4.2438-9.0053 2.1664-13.455-1.4341-3.2275-4.0302-5.1658-7.5331-4.6562z"/>
</g>
<g transform="matrix(.06899 .00773 -.00572 .05099 281.53309 10.0627)">
<path fill="#8f451e" d="m-539.6,2103.2c0,31.37-25.43,56.8-56.8,56.8s-56.8-25.43-56.8-56.8 25.43-56.8 56.8-56.8 56.8,25.43 56.8,56.8z"/>
<path fill="#210000" d="m-539.6,2103.2c0,31.37-25.43,56.8-56.8,56.8s-56.8-25.43-56.8-56.8 25.43-56.8 56.8-56.8 56.8,25.43 56.8,56.8z" transform="matrix(.8913 0 0 .8913 -64.826 228.6)"/>
</g>
<g fill="#e3b7b7" fill-opacity=".539" transform="matrix(.06899 .00773 -.00572 .05099 281.53309 10.0627)">
<path d="m-539.6,2103.2c0,31.37-27.443,8.7009-58.813,8.7009s-54.786,22.669-54.786-8.7009 22.764-71.662 54.134-71.662 59.466,40.293 59.466,71.662z" transform="matrix(.32635 -.13565 .05895 .14182 -539.77 1692)"/>
<path d="m-566.35,2116.5c-2.7224,.2265-6.4303,6.6284-11.431,10.226-4.6663,3.3564-10.177,5.3899-15.723,6.8483-6.1502,1.6175-11.339-.044-11.959,1.6149-2.1713,3.3216-.9641,7.7234 1.5637,10.48 3.65,4.0111 9.3861,5.0274 14.572,5.0309 11.312-.2755 22.2-6.6424 28.343-16.088 2.5046-3.8858 4.2438-9.0053 2.1664-13.455-1.4341-3.2275-4.0302-5.1658-7.5331-4.6562z"/>
</g>
<g transform="matrix(.11456 .01284 -.00949 .08468 311.14774 -42.0631)">
<path fill="#8f451e" d="m-539.6,2103.2c0,31.37-25.43,56.8-56.8,56.8s-56.8-25.43-56.8-56.8 25.43-56.8 56.8-56.8 56.8,25.43 56.8,56.8z"/>
<path fill="#210000" d="m-539.6,2103.2c0,31.37-25.43,56.8-56.8,56.8s-56.8-25.43-56.8-56.8 25.43-56.8 56.8-56.8 56.8,25.43 56.8,56.8z" transform="matrix(.8913 0 0 .8913 -64.826 228.6)"/>
</g>
<g fill="#e3b7b7" fill-opacity=".539" transform="matrix(.11456 .01284 -.00949 .08468 311.14774 -42.0631)">
<path d="m-539.6,2103.2c0,31.37-27.443,8.7009-58.813,8.7009s-54.786,22.669-54.786-8.7009 22.764-71.662 54.134-71.662 59.466,40.293 59.466,71.662z" transform="matrix(.32635 -.13565 .05895 .14182 -539.77 1692)"/>
<path d="m-566.35,2116.5c-2.7224,.2265-6.4303,6.6284-11.431,10.226-4.6663,3.3564-10.177,5.3899-15.723,6.8483-6.1502,1.6175-11.339-.044-11.959,1.6149-2.1713,3.3216-.9641,7.7234 1.5637,10.48 3.65,4.0111 9.3861,5.0274 14.572,5.0309 11.312-.2755 22.2-6.6424 28.343-16.088 2.5046-3.8858 4.2438-9.0053 2.1664-13.455-1.4341-3.2275-4.0302-5.1658-7.5331-4.6562z"/>
</g>
<g transform="matrix(.13452 .01508 -.01114 .09943 363.24466 -126.18382)">
<path fill="#8f451e" d="m-539.6,2103.2c0,31.37-25.43,56.8-56.8,56.8s-56.8-25.43-56.8-56.8 25.43-56.8 56.8-56.8 56.8,25.43 56.8,56.8z"/>
<path fill="#210000" d="m-539.6,2103.2c0,31.37-25.43,56.8-56.8,56.8s-56.8-25.43-56.8-56.8 25.43-56.8 56.8-56.8 56.8,25.43 56.8,56.8z" transform="matrix(.8913 0 0 .8913 -64.826 228.6)"/>
</g>
<g fill="#e3b7b7" fill-opacity=".539" transform="matrix(.13452 .01508 -.01114 .09943 363.24466 -126.18382)">
<path d="m-539.6,2103.2c0,31.37-27.443,8.7009-58.813,8.7009s-54.786,22.669-54.786-8.7009 22.764-71.662 54.134-71.662 59.466,40.293 59.466,71.662z" transform="matrix(.32635 -.13565 .05895 .14182 -539.77 1692)"/>
<path d="m-566.35,2116.5c-2.7224,.2265-6.4303,6.6284-11.431,10.226-4.6663,3.3564-10.177,5.3899-15.723,6.8483-6.1502,1.6175-11.339-.044-11.959,1.6149-2.1713,3.3216-.9641,7.7234 1.5637,10.48 3.65,4.0111 9.3861,5.0274 14.572,5.0309 11.312-.2755 22.2-6.6424 28.343-16.088 2.5046-3.8858 4.2438-9.0053 2.1664-13.455-1.4341-3.2275-4.0302-5.1658-7.5331-4.6562z"/>
</g>
<g transform="matrix(.1823 .02043 -.0151 .13475 396.54286 -180.31178)">
<path fill="#8f451e" d="m-539.6,2103.2c0,31.37-25.43,56.8-56.8,56.8s-56.8-25.43-56.8-56.8 25.43-56.8 56.8-56.8 56.8,25.43 56.8,56.8z"/>
<path fill="#210000" d="m-539.6,2103.2c0,31.37-25.43,56.8-56.8,56.8s-56.8-25.43-56.8-56.8 25.43-56.8 56.8-56.8 56.8,25.43 56.8,56.8z" transform="matrix(.8913 0 0 .8913 -64.826 228.6)"/>
</g>
<g fill="#e3b7b7" fill-opacity=".539" transform="matrix(.1823 .02043 -.0151 .13475 396.54286 -180.31178)">
<path d="m-539.6,2103.2c0,31.37-27.443,8.7009-58.813,8.7009s-54.786,22.669-54.786-8.7009 22.764-71.662 54.134-71.662 59.466,40.293 59.466,71.662z" transform="matrix(.32635 -.13565 .05895 .14182 -539.77 1692)"/>
<path d="m-566.35,2116.5c-2.7224,.2265-6.4303,6.6284-11.431,10.226-4.6663,3.3564-10.177,5.3899-15.723,6.8483-6.1502,1.6175-11.339-.044-11.959,1.6149-2.1713,3.3216-.9641,7.7234 1.5637,10.48 3.65,4.0111 9.3861,5.0274 14.572,5.0309 11.312-.2755 22.2-6.6424 28.343-16.088 2.5046-3.8858 4.2438-9.0053 2.1664-13.455-1.4341-3.2275-4.0302-5.1658-7.5331-4.6562z"/>
</g>
<g transform="matrix(.31693 .03552 -.02626 .23424 498.02641 -357.30966)">
<path fill="#8f451e" d="m-539.6,2103.2c0,31.37-25.43,56.8-56.8,56.8s-56.8-25.43-56.8-56.8 25.43-56.8 56.8-56.8 56.8,25.43 56.8,56.8z"/>
<path fill="#210000" d="m-539.6,2103.2c0,31.37-25.43,56.8-56.8,56.8s-56.8-25.43-56.8-56.8 25.43-56.8 56.8-56.8 56.8,25.43 56.8,56.8z" transform="matrix(.8913 0 0 .8913 -64.826 228.6)"/>
</g>
<g fill="#e3b7b7" fill-opacity=".539" transform="matrix(.31693 .03552 -.02626 .23424 498.02641 -357.30966)">
<path d="m-539.6,2103.2c0,31.37-27.443,8.7009-58.813,8.7009s-54.786,22.669-54.786-8.7009 22.764-71.662 54.134-71.662 59.466,40.293 59.466,71.662z" transform="matrix(.32635 -.13565 .05895 .14182 -539.77 1692)"/>
<path d="m-566.35,2116.5c-2.7224,.2265-6.4303,6.6284-11.431,10.226-4.6663,3.3564-10.177,5.3899-15.723,6.8483-6.1502,1.6175-11.339-.044-11.959,1.6149-2.1713,3.3216-.9641,7.7234 1.5637,10.48 3.65,4.0111 9.3861,5.0274 14.572,5.0309 11.312-.2755 22.2-6.6424 28.343-16.088 2.5046-3.8858 4.2438-9.0053 2.1664-13.455-1.4341-3.2275-4.0302-5.1658-7.5331-4.6562z"/>
</g>
<g transform="matrix(.1537 .01723 -.01273 .1136 369.0166 -93.94013)">
<path fill="#8f451e" d="m-539.6,2103.2c0,31.37-25.43,56.8-56.8,56.8s-56.8-25.43-56.8-56.8 25.43-56.8 56.8-56.8 56.8,25.43 56.8,56.8z"/>
<path fill="#210000" d="m-539.6,2103.2c0,31.37-25.43,56.8-56.8,56.8s-56.8-25.43-56.8-56.8 25.43-56.8 56.8-56.8 56.8,25.43 56.8,56.8z" transform="matrix(.8913 0 0 .8913 -64.826 228.6)"/>
</g>
<g fill="#e3b7b7" fill-opacity=".539" transform="matrix(.1537 .01723 -.01273 .1136 369.0166 -93.94013)">
<path d="m-539.6,2103.2c0,31.37-27.443,8.7009-58.813,8.7009s-54.786,22.669-54.786-8.7009 22.764-71.662 54.134-71.662 59.466,40.293 59.466,71.662z" transform="matrix(.32635 -.13565 .05895 .14182 -539.77 1692)"/>
<path d="m-566.35,2116.5c-2.7224,.2265-6.4303,6.6284-11.431,10.226-4.6663,3.3564-10.177,5.3899-15.723,6.8483-6.1502,1.6175-11.339-.044-11.959,1.6149-2.1713,3.3216-.9641,7.7234 1.5637,10.48 3.65,4.0111 9.3861,5.0274 14.572,5.0309 11.312-.2755 22.2-6.6424 28.343-16.088 2.5046-3.8858 4.2438-9.0053 2.1664-13.455-1.4341-3.2275-4.0302-5.1658-7.5331-4.6562z"/>
</g>
</g>
<g transform="translate(1303.7097 -1108.77)">
<path opacity=".7" fill="#6e3617" color="#000" d="m-1055.9,1477.4c51.85-7.5188 98.869-44.75 116.62-91.888 12.453-31.802 17.807-36.875 3.8063-66.561-4.0747-6.1963-12.817-4.4598-18.682-.8324-67.208,71.62-210.45,9.1692-242.54,71.055-3.9149,7.55-3.3428,18.888 1.0489,24.171 25.109,46.818 82.854,73.507 139.75,64.055z"/>
</g>
</svg>
