<svg xmlns="http://www.w3.org/2000/svg" viewBox="0 0 522.71 408.96" xmlns:xlink="http://www.w3.org/1999/xlink">
<defs>
<filter id="filter3249">
<feGaussianBlur stdDeviation="2.87956"/>
</filter>
<filter width="1.351" x="-.175" y="-.747" height="2.495" id="filter3428">
<feGaussianBlur stdDeviation="45.86686"/>
</filter>
<filter id="filter3172">
<feGaussianBlur stdDeviation="6.66667"/>
</filter>
<linearGradient id="linearGradient3136">
<stop offset="0" stop-color="#c8c8a2"/>
<stop offset=".5" stop-color="#d8d3be"/>
<stop offset="1" stop-color="#c8ae8b"/>
</linearGradient>
<linearGradient gradientTransform="matrix(.82733 0 0 .82733 52.739 65.076)" id="linearGradient3162" y1="342.92" x1="230.26" y2="235.18" gradientUnits="userSpaceOnUse" x2="271.06">
<stop offset="0" stop-color="#d9c09b"/>
<stop offset="1" stop-color="#f8ecd1" stop-opacity=".556"/>
</linearGradient>
<linearGradient gradientTransform="matrix(.6937 0 0 .5153 90.156 170.71)" id="linearGradient3184" y1="342.92" x1="230.26" y2="235.18" gradientUnits="userSpaceOnUse" x2="271.06">
<stop offset="0" stop-color="#4a2600"/>
<stop offset="1" stop-color="#673100"/>
</linearGradient>
<linearGradient id="linearGradient3432" y1="850.19" y2="788.82" x1="157.41" gradientUnits="userSpaceOnUse" x2="477.9">
<stop offset="0" stop-color="#f3d6c4"/>
<stop offset="1" stop-color="#c78e6f"/>
</linearGradient>
<linearGradient gradientTransform="matrix(-.6937 0 .34846 .57012 422.94 151.7)" id="linearGradient3255" y1="330.36" x1="266.85" y2="237.22" gradientUnits="userSpaceOnUse" x2="189.25">
<stop offset="0" stop-color="#985f36"/>
<stop offset="1" stop-color="#673100"/>
</linearGradient>
<radialGradient fx="291.43" fy="224.85" cx="245.71" cy="400.65" gradientTransform="matrix(.82733 0 0 .61853 52.739 153.7)" spreadMethod="reflect" id="radialGradient3142" xlink:href="#linearGradient3136" r="240" gradientUnits="userSpaceOnUse"/>
<radialGradient cx="106.71" cy="309.01" gradientTransform="matrix(.80244 .23073 -.39355 1.444 172.24 -149.54)" id="radialGradient3201" xlink:href="#linearGradient3136" r="71.787" gradientUnits="userSpaceOnUse"/>
</defs>
<g transform="translate(-44.086 -201.15)">
<path fill="url(#linearGradient3432)" filter="url(#filter3428)" d="m655.24,788.82a261.74,61.373 0 1,1 -523.47,0 261.74,61.373 0 1,1 523.47,0z" transform="matrix(.80736 0 0 .5475 -7.3523 109.33)"/>
<path fill="url(#radialGradient3201)" fill-rule="evenodd" d="m204.49,267.41c-10.8-41.42-44.51-30.32-75.81-27.39-47.87,1.74-60.923,132.85 10.68,186.63-26.21-147.7-8.45-221.87 29.88-148.17 15.04,13.66 28.69-5.37 35.25-11.07z"/>
<path fill="none" filter="url(#filter3249)" stroke="#fff" stroke-width="3.8" d="m150.44,242.37c-68.755-80.49-143.7,52.99-41.49,172.13" transform="matrix(.83863 0 0 .86137 45.927 59.34)"/>
<path fill="url(#radialGradient3142)" d="m513.68,348.56c0,105.69-88.95,201.4-198.56,201.4-109.6,0-198.56-95.71-198.56-201.4 0-75.91 86.46-95.5 198.56-95.5s198.56,15.45 198.56,95.5z"/>
<path fill="#f9f9f9" filter="url(#filter3172)" d="m531.57,287.39c0,37.85-94.72,75.11-211.43,75.11s-211.43-37.26-211.43-75.11 94.72-62.03 211.43-62.03 211.43,24.18 211.43,62.03z" transform="matrix(.82733 0 0 .82733 52.739 70.04)"/>
<path fill="url(#linearGradient3162)" stroke="#fefcfc" stroke-width="1.489" d="m482.95,307.43c0,28.71-75.19,56.97-167.83,56.97s-167.83-28.26-167.83-56.97 75.19-47.04 167.83-47.04 167.83,18.33 167.83,47.04z"/>
<path fill="url(#linearGradient3184)" d="m464.94,327.06c-11.58,20.2-74.62,33.39-152.3,33.39s-133.28-14.74-146.51-31.85c-12.03-39.2 308.86-37.64 298.81-1.54z"/>
<path opacity=".91" fill="url(#linearGradient3255)" d="m291.44,305.21c-40.23,3.81-84.54,38.79-12.29,48.28 79.59,10.45 199.46-10.77 176.54-27.96-27.17-22.2-136.91-26.81-164.25-20.32z"/>
</g>
</svg>
