<svg xmlns="http://www.w3.org/2000/svg" viewBox="0 0 266.88 292.8" xmlns:xlink="http://www.w3.org/1999/xlink" enable-background="new 0 0 266.88 292.8">
<g fill-rule="evenodd">
<g>
<path fill="#fff" d="m123.84,1.92c-10.007,4.073-15.319,12.841-16.8,25.44h-3.84c-13.159-1.798-15.293,11.586-19.68,20.16 .554,2.486 1.313,4.767 .96,8.16h-7.68c-10.975-1.374-8.963,14.396-23.52,11.04-.583,1.343 2.796,8.984-2.88,7.68 3,4.818 3.627,14.796-1.44,17.76-2.518,.522-5.51,.571-6.72,2.4 .989,4.506 4.234,6.627 1.92,12-2.09,.31-5.426-.626-6.72,.48h-.48c-.949,3.225-4.239,2.612-6.24,4.32-2.151,1.836-4.221,7.558-6.24,9.12v-118.56h99.36z"/>
<path fill="#fc9f83" d="m124.8,2.4c1.113-.153 1.843,.077 2.4,.48 .639,.961 2.13,1.069 3.36,1.44 .841,.759 2.557,.643 3.84,.96 .006,.635 .842,.439 .96,.96 2.025,2.455 4.157,4.803 7.2,6.24h.479c-.505,6.196 6.333,6.754 10.561,4.32 2.12-.6 4.476-.964 6.24-1.92 2.438-.818 4.563,.211 7.199,.48 .197,.604 .619,.981 1.44,.96 1.98,2.18 5.209,3.111 6.72,5.76-1.54,3.276-2.377,11.228-.479,14.88v1.44c-1.896,1.145-2.859,3.221-5.76,3.36 .949,3.371 2.229,6.411 3.359,9.6-1.184,2.016-5.704,.696-7.68,1.92h-.96c-6.406,.452-14.156,1.167-18.72-1.44 .337-4.586 4.427-11.321-.961-13.44v-3.84c-1.393-.527-3.406-.434-4.8-.96-.824-.616-.01-2.871-1.439-2.88v-1.92c1.094-.666 .179-3.341 .479-4.8-2.684,1.796-2.545,6.415-6.24,7.2-2.47-.25-2.542-2.897-3.84-4.32-.745-4.535-2.302-8.258-3.36-12.48-.451-3.389-1.888-5.792-1.44-10.08 .14-.978 .96-1.278 1.44-1.92z"/>
<path fill="#d8cbce" d="m108.48,24.48c1.041,.081 .217-1.703 .48-2.4 2.936,.584 2.658,4.382 3.36,7.2-1.778,.019-2.783-.737-3.84-1.44v-3.36z"/>
<path fill="#fc9f83" d="m96.96,28.8c8.276,.684 9.068,8.853 19.2,7.68 1.77,1.59 3.717,3.003 3.36,6.72-4.435,1.426-6.602-3.327-9.6-5.28-3.805-2.478-8.723-3.588-12-6.72 .026-.826-.37-1.23-.96-1.44v-.96z"/>
<path fill="#ebd4db" d="m115.2,49.44c-8.001,5.519-22.705,1.966-24-7.68 9.2-.538 18.56,2.865 24,7.68z"/>
<path fill="#fc9f83" d="m121.44,56.16c-.178-10.486 13.603-2.67 20.64-2.4-2.655,2.784-6.499,4.381-9.6,6.72-2.606-.753-3.048-3.672-6.72-3.36-1.55-.214-2.6-.92-4.32-.96z"/>
</g>
<g fill="#ebd4db">
<path d="m156.96,60.96c-3.031,3.843-12.244,1.495-14.881-.96 2.12-7.11 11.28-.653 14.88,.96z"/>
<path d="m193.92,67.68c2.646,.735 4.873,1.749 8.159,.96-.813,1.106-1.207,2.632-3.359,2.4 .296,1.304 .952,2.248 1.92,2.88-.774,1.5-1.521-.985-2.4-.96-1.089,.511-.183,3.017-.479,4.32-2.006-.075-.894-3.267-1.92-4.32-1.004,.276-1.37,1.19-2.88,.96 1.51-1.983 2.26-3.392 .96-6.24zm1.92,4.8c1.027-.893 2.863-.977 2.88-2.88h-2.88c.67,1.379-1.31,2.438 0,2.88z"/>
</g>
<g>
<path fill="#f2edf0" d="m195.84,69.6h2.88c-.017,1.903-1.853,1.987-2.88,2.88-1.31-.442 .67-1.501 0-2.88z"/>
<path fill="#aeb0cd" d="m125.76,79.2c-.081,1.041 1.703,.218 2.4,.48 2.095-2.057-2.816-2.022-1.44-3.36 8.857-2.502 18.855-3.864 29.279-4.8-16.268,12.748-42.808,29.022-71.04,26.88-9.721-.737-18.341-3.352-23.52-9.6 .213-1.387 3.627,.427 3.84-.96h.48c9.031-.311 16.443-.292 24-.96 13.521-1.195 21.559-7.748 35.52-7.68h.48z"/>
<path fill="#ebd4db" d="m74.4,72.96c2.25-.271 4.242,1.094 8.16,.96-.09,1.35-.835,2.045-2.4,1.92-.629,2.389 1.478,2.042 1.44,3.84-1.132-.148-.893-1.667-2.4-1.44-1.083,.357-.188,2.692-.48,3.84-2.081,.321-1.292-2.228-1.44-3.84-2.089-.685-2.207,1.641-3.36,.48 1.866-1.266 2.351-3.92 .48-5.76zm2.4,4.32c1.388-.212 2.188-1.012 2.4-2.4-1.157,.197-1.043-.876-2.4-.48v2.88z"/>
<path fill="#f2edf0" d="m76.8,74.4c1.357-.396 1.244,.677 2.4,.48-.212,1.388-1.012,2.188-2.4,2.4v-2.88z"/>
<path fill="#aeb0cd" d="m212.64,78.72c1.25,1.63 2.514,3.246 3.359,5.28-.504,2.215-2.317,3.123-5.279,2.88-1.762-2.093-.977-6.921 .96-8.16h.479s.32,0 .48,0z"/>
</g>
<g fill="#ebd4db">
<path d="m157.44,79.68c2.264,.699 4.432,1.523 6.72,.96 1.482,1.052-.675,2.487-1.92,2.4 .296,1.304 .952,2.248 1.92,2.88-.774,1.5-1.52-.985-2.399-.96-2.295,.54 .451,3.265-.96,4.32-.833-.767-1.04-2.16-.96-3.84-.698,.263-2.481-.561-2.4,.48-.37-2.148 1.46-3.051 0-6.24zm1.44,4.8c1.348-.572 3.06-.78 2.88-2.88h-2.4c.35,1.467-.49,1.749-.48,2.88z"/>
<path d="m53.28,80.64c.796,.828 .796,4.932 0,5.76v-5.76z"/>
</g>
<g>
<path fill="#f2edf0" d="m159.36,81.6h2.4c.18,2.1-1.532,2.308-2.88,2.88-.01-1.131 .83-1.413 .48-2.88z"/>
<path fill="#cac3cf" d="m186.72,92.64c-7.24,5.764-20.559,7.862-32.641,7.2 4.1-9.172 23.09-15.113 32.64-7.2zm-30.72,7.2c9.668-2.493 23.191-1.129 28.801-7.68-9.88-5.681-26.06,.425-28.8,7.68z"/>
<path fill="#aeb0cd" d="m183.84,93.12c-6.7,4.18-17.958,3.802-26.4,6.24 2.25-6.431 18.71-12.453 26.4-6.24z"/>
<path fill="#cac3cf" d="m133.92,96.96c-2.881,7.39-13.749,10.719-23.521,8.16 2.6-7.489 15.3-15.271 23.52-8.16zm-.96,.48c-7.163-6.089-18.738,.868-20.64,7.68 8.53-.91 17.46-1.42 20.64-7.68z"/>
<path fill="#aeb0cd" d="m113.28,104.64c2.644-5.668 10.949-11.752 18.72-7.68-2.44,6.36-11.25,6.35-18.72,7.68z"/>
</g>
<g fill="#ebd4db">
<path d="m201.6,96.96c-4.376,8.424-11.731,13.869-22.08,16.32 5.922-6.558 13.75-11.21 20.64-16.8 .78-.135 .83,.454 1.44,.48z"/>
<path d="m55.68,100.8c2.9,.731 4.595,1.976 7.68,1.44 .292,1.892-1.074,2.126-2.4,2.4-.132,2.052 1.394,2.446 2.4,3.36-1.258,1.535-1.652-1.836-3.36-1.44-1.089,.511-.183,3.017-.48,4.32-1.109-.491-.993-2.207-.96-3.84-1.559-.278-2.233,.327-3.36,.48 1.55-1.84 1.688-4.3 .48-6.72zm2.4,5.28c.935-.985 2.667-1.173 2.88-2.88h-2.88c-.376,.33-1.068,2.68 0,2.88z"/>
<path d="m98.4,101.76c2.097,.623 4.478,.962 7.2,.96 .115,1.875-1.783,1.737-2.88,2.4 .484,.956 .83,2.05 1.92,2.4-.72,1.586-1.174-.998-2.4-.48-1.089,.51-.183,3.017-.48,4.32-1.633-.286-1.04-2.8-1.44-4.32-.76,.04-1.831-.231-1.92,.48-1.118-1.61 1.343-3.54 0-5.76zm1.44,4.32c1.508-.092 2.308-.892 2.4-2.4-.649-.151-.917-.684-1.92-.48-.553,.57-.543,1.7-.48,2.88z"/>
<path d="m223.2,102.72c-.16,2.399-1.425,3.695-3.359,4.32 .41-2.15 .81-4.31 3.36-4.32z"/>
</g>
<g fill="#f2edf0">
<path d="m58.08,103.2h2.88c-.213,1.708-1.945,1.896-2.88,2.88-1.068-.2-.376-2.55 0-2.88z"/>
<path d="m100.32,103.2c1.003-.203 1.271,.329 1.92,.48-.092,1.508-.892,2.308-2.4,2.4-.063-1.18-.073-2.31 .48-2.88z"/>
</g>
<g>
<path fill="#aeb0cd" d="m37.92,107.52h2.4c.752,1.649-3.214,2.278-2.88,.48 .293-.03 .568-.07 .48-.48z"/>
<path fill="#cac3cf" d="m116.64,113.28c-5.698,7.582-17.29,9.271-31.2,8.64 1.509-4.571 8.036-4.124 9.6-8.64 7.49,2.35 15.64-5.16 21.6,0zm-8.64,3.84c2.8-.56 5.487-1.233 6.72-3.36-6.886-2.138-12.491,3.385-19.68,.96-.637,2.883-3.139,3.901-4.8,5.76 6.747-.134 12.478-1.282 17.28-3.36h.48z"/>
<path fill="#aeb0cd" d="m108,117.12h-.48c-4.755,1.005-9.551,1.969-14.4,2.88-1.879-.521 2.165-2.78 2.4-4.32 7.392,.832 11.107-2.013 17.76-1.92-.38,2.5-4.13,1.63-5.28,3.36z"/>
<path fill="#ebd4db" d="m210.72,114.24c2.752,.896 3.8,1.221 7.68,1.44-.09,1.35-.835,2.045-2.4,1.92-.55,1.99 1.01,1.87 .96,3.36-.979-.141-.94-1.299-1.92-1.44-1.094,.666-.179,3.341-.479,4.8-1.438-.482-.947-2.893-1.44-4.32-1.467-.347-1.749,.491-2.88,.48 1.48-1.9 1.51-3.66 .48-6.24zm1.92,4.8c1.769,.008 2.121-1.398 2.88-2.4-.558-.403-1.287-.633-2.4-.48-.55,.57-.54,1.7-.48,2.88z"/>
<path fill="#f2edf0" d="m213.12,116.16c1.113-.153 1.843,.077 2.4,.48-.759,1.001-1.111,2.408-2.88,2.4-.06-1.18-.07-2.31 .48-2.88z"/>
<path fill="#cac3cf" d="m80.16,120.48c-1.979,6.571-13.579,3.181-18.24,1.44 1.124-6.32 15.135-5.22 18.24-1.44zm-2.4,.96c-1.075-3.89-11.679-3.094-12.96,0 3.861,.76 9.768,2.77 12.96,0z"/>
<path fill="#aeb0cd" d="m66.72,120.96c1.8-1.708 9.095-2.583 10.08,.48-3.092,1.27-7.002,.63-10.08-.48z"/>
<path fill="#ebd4db" d="m167.52,120.48c1.89,1.423 4.83,1.769 7.2,1.44 1.481,1.053-.676,2.487-1.92,2.4-.437,2.356 2.012,1.828 1.92,3.84-1.302-.298-1.195-2.005-2.88-1.92-1.083,.357-.188,2.692-.48,3.84-1.591-.009-.487-2.713-1.439-3.36-1.665-.385-1.846,.715-3.36,.48 2.2-1.44 1.91-3.95 .96-6.72zm1.92,5.28c1.674-.406 2.822-1.337 3.36-2.88h-2.88c-.55,.57-.54,1.7-.48,2.88z"/>
<path fill="#f2edf0" d="m169.92,122.88h2.88c-.538,1.542-1.687,2.474-3.36,2.88-.06-1.18-.07-2.31 .48-2.88z"/>
<path fill="#cac3cf" d="m65.76,131.04c1.294-1.106 4.63-.17 6.72-.48v.48h-6.72z"/>
<path fill="#f2edf0" d="m246.72,142.56v-7.68h.479v7.68h-.48z"/>
<path fill="#bab8cd" d="m192.48,138.72c1.611-1.109 5.271-.168 7.68-.48-1.61,1.11-5.27,.17-7.68,.48z"/>
<path fill="#838ca8" d="m52.8,141.6c2.453-.213 1.085,3.395 1.44,5.28 3.572,1.634 6.016-1.102 9.12-1.44-1.437,9.283-2.867,18.573-7.2,24.96-2.064-8.66-3.724-17.72-3.36-28.8z"/>
<path fill="#cac3cf" d="m103.68,147.36c-.026,.613-.615,.665-.48,1.44-1.931,.33-2.74-.46-4.32-.48 .87-1.05 3.76-.08 4.8-.96z"/>
</g>
<g fill="#949ab1">
<path d="m94.56,150.24c3.233-.914 4.522-1.668 8.64-.96 .925-.195 .379-1.86 1.92-1.439-.534,1.226-1.466,2.054-2.88,2.399-.348,1.469 .828,1.412 .48,2.88-6.355,2.925-.008,18.553-7.68,20.16 .292-7.172-5.116-8.644-3.84-16.8 3.732-.748 5.544-3.416 8.64-4.8-1.8-3.214-7.331,.945-12-.48h-.48v-.479c2.249-.31 5.748,.63 7.2-.48zm2.4,21.12c-.01-6.57 1.875-11.245 2.4-17.28-7.519,.34-4.268,12.77-2.4,17.28z"/>
<path d="m220.32,147.84c.775-.136 .826,.453 1.44,.479 3.178,14.367-7.437,26.58-8.641,41.28-1.799-12.336 4.592-29.356-2.88-37.92 2.146-1.328 4.041,1.706 5.76,2.399 2.74-.78 3.57-3.47 4.32-6.24z"/>
</g>
<g>
<path fill="#838ca8" d="m120,150.24v-.479c2.567,.313 6.39-.631 8.16,.479h-8.16z"/>
<path fill="#6b7695" d="m179.52,149.76c6.677,.401 7.087,8.531 8.64,14.399 2.005,7.576 4.919,15.55 2.88,23.04-.887,3.26-4.188,5.757-4.8,8.641-.67,3.155 .222,6.675 0,9.6-.815,10.752-6.79,20.224-5.279,31.68-2.202,2.438-4.939,4.341-9.12,4.8 1.196-19.631-2.01-41.276 3.84-57.6 2.055-5.735 4.071-15.079 3.359-24-.26-3.3-2.45-7.38 .48-10.56z"/>
<path fill="#697591" d="m48.96,150.72c-.255,3.017 1.23,5.619 0,8.16h-.48c1.316-2.48-1.023-5.75 .48-8.16z"/>
<path fill="#64728b" d="m130.56,154.08c2.256-4.4 10.262-1.232 14.88-.96 .567,.553 1.696,.544 2.88,.48 .06,1.06 2.036,.204 2.88,.479-1.068,3.731-3.397,6.203-7.68,6.721-2.775-2.025-3.093-6.508-6.72-7.681-.562,10.546 2.69,25.423 2.88,38.4v10.08c-1.095,.665-.179,3.341-.48,4.8v.96c-.737,2.462-.841,5.559-.96,8.64-.867,7.73-.343,15.104 0,22.08 .313,7.674-1.232,13.488-4.8,17.28h-.96c-4.716-3.124-3.772-11.908-4.8-18.72 3.425-17.767-.306-38 .48-57.601 .57-8.55 1.48-16.76 2.4-24.96z"/>
<path fill="#697591" d="m39.36,155.52c-1.078-.202-.013-2.547-.96-2.88-.603,.196-.981,.619-.96,1.439h-.48v-.479c-.145-1.265 .665-1.575 1.92-1.44 .662,.62 .475,2.08 .48,3.36z"/>
</g>
<g fill="#6b7695">
<path d="m203.04,152.16c11.997,4.535 3.836,23.305 2.881,34.08-2.28,.921-3.821,2.579-7.2,2.4-3.16-13.06 5.88-21.86 4.32-36.48z"/>
<path d="m153.12,159.84c1.487-1.713 .996-5.405 2.4-7.2 15.903,9.28 16.167,47.187 6.24,63.359 1.802,8.123 2.983,21.941-2.88,26.4-3.288,.488-4.755-4.787-7.681-6.24 .494-25.426-1.391-53.23 1.92-75.84v-.48z"/>
</g>
<g>
<path fill="#aeb0cd" d="m99.36,154.08c-.525,6.035-2.41,10.71-2.4,17.28-1.868-4.51-5.119-16.94 2.4-17.28z"/>
<path fill="#949ab1" d="m200.64,158.4c-1.359,7.937-1.024,20.075-6.72,22.08 1.197-10.064-.074-20.771-6.721-24.48 2.52-.93 9.1,4.91 13.44,2.4z"/>
<path fill="#838ca8" d="m127.68,155.52c1.298,1.583-.236,3.986-.48,6.72-.672,7.534 1.1,18.897-5.28,20.641-3.21-11.73-6.68-22.57 5.76-27.36zm-8.16,8.16c-1.297,4.562 3.357,12.537 3.36,17.279 4.357-4.442 2.745-14.855 3.84-22.56-2.56,1.78-6.34,2.24-7.2,5.28z"/>
</g>
<g fill="#949ab1">
<path d="m126.72,158.4c-1.096,7.704 .517,18.117-3.84,22.56-.003-4.742-4.657-12.718-3.36-17.279 .86-3.04 4.64-3.5 7.2-5.28z"/>
<path d="m152.64,160.8c-4.384,6.016 .419,21.219-9.12,22.08-.029-5.221 2.077-13.668-.48-19.2 4.553,.33 5.653-5.143 9.601-3.84v.479s0,.32 0,.48z"/>
<path d="m178.56,163.2v.48c-1.936,5.425-1.535,13.185-3.36,18.72v.48c-.957,.482-.757,2.122-2.399,1.92-1.446-7.674-1.718-16.523-4.32-23.04 3.47,.37 8.74-1.06 10.08,1.44z"/>
</g>
<g fill="#697591">
<path d="m128.16,179.04c-.786,19.601 2.945,39.834-.48,57.601 2.26-18.52-1.29-38.42 .48-57.6z"/>
<path d="m73.44,179.52c1.099,.821 .176,3.664 .48,5.28-1.098-.82-.176-3.66-.48-5.28z"/>
<path d="m56.64,181.92h2.88c.195,10.588 2.466,21.45 1.44,31.681-4.392-7.61-3.476-20.52-4.32-31.68zm3.84,29.28c.092-8.271-.579-19.887-1.92-28.319h-1.44c.981,9.58 .227,20.89 3.36,28.32z"/>
</g>
<g>
<path fill="#6b7695" d="m57.12,182.88h1.44c1.341,8.433 2.012,20.049 1.92,28.319-3.133-7.43-2.379-18.74-3.36-28.32z"/>
</g>
<g fill="#697591">
<path d="m73.92,185.28c1.01,14.753-1.024,31.881 .96,46.561-2.681-13.64-1.025-31.36-.96-46.56z"/>
<path d="m81.6,185.76c1.098,.821 .176,3.664 .48,5.279-1.099-.82-.176-3.66-.48-5.28z"/>
<path d="m139.68,201.6c-.301,1.459 .614,4.135-.48,4.8 .3-1.46-.62-4.14 .48-4.8z"/>
<path d="m83.04,203.52c1.098,.821 .176,3.664 .48,5.28-1.099-.82-.176-3.66-.48-5.28z"/>
</g>
<g fill="#7c849e">
<path d="m140.16,206.88c-.301,1.459 .615,4.134-.479,4.8 .3-1.46-.61-4.14 .48-4.8z"/>
<path d="m139.68,212.64c-2.414,13.915 4.474,33.251-2.88,43.2h-2.88c11.036-5.269 1.456-30.317 5.279-43.2h.48z"/>
</g>
<g fill="#697591">
<path d="m114.72,228v9.601c-.8-2.09-.8-7.51 0-9.6z"/>
<path d="m74.88,232.8c.713,.406 .695,1.545 .96,2.399 2.038,.118 2.584-1.255 4.8-.96-1.378,.862-2.949,1.531-5.28,1.44 .011-1.13-.827-1.41-.48-2.88z"/>
</g>
<g>
<path fill="#949ab1" d="m131.52,256.32v-.479h5.28c.372,.107 .946,.013 .96,.479h-6.24z"/>
</g>
<g fill="#f2edf0">
<path d="m131.52,257.28v-.479h4.8v.479h-4.8z"/>
<path d="m107.04,27.36c1.481-12.599 6.792-21.367 16.8-25.44h3.36c.295,.427 .58,.858 0,.96-.557-.403-1.287-.633-2.4-.48-4.736,2.144-9.155,4.605-12,8.64-.703,1.537-2.351,2.129-1.92,4.8-1.629,2.051-2.206,5.155-2.4,8.64v.48c-1.36-.084 .58,3.14-1.44,2.4z"/>
<path d="m103.2,27.36c-2.219,.021-4.748-.268-5.76,.96h-.48c-4.396,2.483-8.259,5.5-9.12,11.52-1.264,3.318-5.34,6.943-2.88,11.04v5.28h-7.2c-.408,.088-.453-.187-.48-.479h7.2c.353-3.394-.406-5.674-.96-8.16 4.387-8.575 6.521-21.959 19.68-20.161z"/>
<path d="m37.44,107.04c1.294-1.106 4.63-.17 6.72-.48 2.314-5.373-.931-7.494-1.92-12 1.21-1.83 4.203-1.878 6.72-2.4 5.067-2.963 4.44-12.941 1.44-17.76 5.676,1.304 2.297-6.337 2.88-7.68 14.557,3.356 12.545-12.414 23.52-11.04-5.228,.531-8.401,3.118-10.08,7.2-2.545,3.215-6.312,5.208-12.96,4.32-.207,1 1.201,4.926 0,7.2v.48h-2.88c.723,1.997 1.677,3.763 2.4,5.76v5.76c-.957,3.203-2.785,5.535-5.76,6.72-2.666-.426-3.719,.76-4.8,1.92 1.625,3.907 4.255,7.311 1.44,12h-6.72z"/>
<path d="m36.96,107.04v.96c-.816,1.423-2.159,2.32-3.84,2.88 .147,1.107-1.387,.533-1.44,1.44-2.192,2.608-4.487,5.114-6.24,8.16-1.041-.081-.217,1.703-.48,2.4h-.48v-2.4c2.019-1.562 4.089-7.284 6.24-9.12 2.001-1.71 5.291-1.1 6.24-4.32z"/>
<path d="m246.24,132.96c.291-2.531-.677-3.803-2.399-4.32h-.48c.203-1.003-.329-1.271-.479-1.92 .559-2.639-1.823-2.337-2.4-3.84-.254-.386-.501-.779-.48-1.44 1.463,.778 2.07,2.41 3.841,2.88-1.283,5.283 3.909,4.091 2.88,9.12h-.48v-.48z"/>
</g>
<g>
<path fill="#fff" d="m239.52,120.48c-1.134-1.586-1.003-4.437-3.36-4.8 .089-.409-.187-.453-.479-.48-1.321-2.519-2.184-5.497-4.32-7.2v-.48c-.525-3.073 1.327-5.542-.479-7.2v-.48c-4.958-9.922-9.233-20.527-21.601-23.04-1.655-20.425-20.594-23.566-35.04-31.2-1.808-7.743 6.058-12.09 5.28-18.72-.43-3.665-6.124-9.584-10.08-11.52-2.85-1.395-7.051-1.821-10.56-.96-.876,.373 .287,.516 .96,.48-1.765,.956-4.12,1.32-6.24,1.92-1.365-1.017-5.585,1.748-7.68,0-3.604-5.358-7.4-13.078-15.36-12.48-1.229-.371-2.721-.479-3.36-1.44 .58-.102 .295-.533 0-.96h120v132.96h-.479v-1.44c1.029-5.029-4.163-3.837-2.88-9.12-1.771-.47-2.378-2.102-3.841-2.88 .08-.56-.11-.85-.48-.96z"/>
</g>
<g fill="#f2edf0">
<path d="m235.68,115.2c-2.592-.929-1.759-5.281-4.32-6.24v-.96c2.14,1.7 3,4.68 4.32,7.2z"/>
<path d="m230.88,100.32c1.807,1.658-.046,4.127 .479,7.2-1.47-2.16 .64-5.09-.48-7.2z"/>
<path d="m229.92,99.84c-3.114-8.086-6.755-15.646-13.921-19.68-.077-.563-.875-.405-1.439-.479-.267-2.614-4.745-1.016-5.76-2.88 .224-6.464-2.186-10.294-5.761-12.96 .136-.775-.453-.826-.479-1.44-1.399-1.801-2.999-3.401-4.8-4.8-5.133-3.508-11.145-6.136-17.761-8.16-1.823-1.537-4.601-2.119-6.239-3.84-.151-2.711 .126-4.994 .96-6.72v-.48s0-.32 0-.48c2.564-4.72 7.165-12.867 .479-16.32v-.48c-2.042-2.598-4.462-4.818-8.16-5.76-2.637-.269-4.761-1.298-7.199-.48-.673,.036-1.836-.107-.96-.48 3.509-.861 7.71-.435 10.56,.96 3.956,1.936 9.65,7.855 10.08,11.52 .777,6.63-7.088,10.977-5.28,18.72 14.446,7.634 33.385,10.775 35.04,31.2 12.367,2.513 16.643,13.118 21.601,23.04-.32-.001-.64-.001-.96-.001z"/>
<path d="m130.56,4.32c7.96-.598 11.757,7.122 15.36,12.48 2.095,1.748 6.314-1.017 7.68,0-4.228,2.435-11.065,1.876-10.561-4.32-2.524-2.755-4.755-5.805-8.64-7.2-1.28-.318-3-.201-3.84-.96z"/>
</g>
<g>
<path fill="#ebd4db" d="m134.4,5.28c3.885,1.395 6.115,4.445 8.64,7.2h-.479c-2.606-1.874-4.151-4.809-7.2-6.24-.12-.521-.95-.325-.96-.96z"/>
</g>
<g fill="#d8cbce">
<path d="m135.36,6.24c3.049,1.431 4.594,4.367 7.2,6.24-3.04-1.437-5.18-3.785-7.2-6.24z"/>
<path d="m168.48,16.32c2.851,.989 4.492,3.188 6.72,4.8v.48c.033,3.335-2.057,10.416-.479,15.36-1.897-3.652-1.061-11.604 .479-14.88-1.51-2.649-4.74-3.58-6.72-5.76z"/>
<path d="m164.64,53.28c1.976-1.224 6.496,.096 7.68-1.92-1.131-3.189-2.41-6.229-3.359-9.6 2.9-.139 3.864-2.215 5.76-3.36v.48c-1.631,1.25-2.947,2.813-4.8,3.84 .649,3.511 2.393,5.927 2.88,9.6-1.77,1.266-5.14,.942-8.16,.96z"/>
<path d="m144,38.4c5.388,2.119 1.298,8.854 .961,13.44 4.563,2.607 12.313,1.892 18.72,1.44-1.586,.495-3.078,1.082-2.4,3.84 .768,2.752 7.106-.066 6.24,4.32 4.457-.823 4.792-5.768 9.12-6.72 1.69,.709 1.629,3.171 3.359,3.84 1.25-2.979-2.079-5.186-1.439-9.12h1.439c6.616,2.024 12.628,4.652 17.761,8.16 1.398,1.801 2.999,3.401 4.8,4.8 .026,.614 .615,.665 .479,1.44 3.344,2.897 5.107,7.374 5.761,12.96 1.015,1.865 5.493,.266 5.76,2.88-.631-.17-.755-.845-1.44-.96h-.479s-.32,0-.48,0c-.013-.467-.587-.372-.96-.48h-1.439c-7.103,5.299 3.625,16.213 8.16,7.68 .458-3.018-.724-4.396-1.921-5.76 7.166,4.035 10.807,11.594 13.921,19.68 1.982,2.095-.872,6.861 1.439,9.12 2.562,.959 1.729,5.311 4.32,6.24 .293,.027 .568,.072 .479,.48h-.96c-.389-.091-.479-.482-.96-.48-2.426,3.494-3.612,8.228-7.68,10.08-1.7-.26-1.181,1.7-2.88,1.44-9.916,2.609-13.801,9.725-25.44,11.04-2.275,.257-5.316-.784-6.72,.96-.408-.088-.453,.188-.48,.48-1.519-.079-1.604,1.276-3.359,.96 .118-.521 .954-.325 .96-.96-5.32,2.04-10.442,4.278-14.4,7.681-1.504,.256-1.543,1.977-3.84,1.439h-1.439c-7.731,1.188-17.142,.285-23.521-1.439 5.141-5.986 23.977-5.125 18.72-16.8-18.513,6.126-42.896,6.384-57.12,16.8-.386,.254-.779,.5-1.44,.479h-1.92c-1.042,.878-3.931-.091-4.8,.96h-1.44c-2.282,.278-4.426,.694-7.2,.48 8.022-3.212 12.477-10.394 22.08-11.041 3.736-.251 8.1,.632 12.48,0 9.081-1.311 18.172-6.845 26.4-11.52 8.456-4.804 17.831-8.679 22.561-14.88-10.1-2.959-13.109,7.566-22.561,5.28-2.021-.103-1.69,2.148-2.88,2.88-28.129,.51-49.269,8.011-74.88,11.04h-.96c-2.09,.31-5.426-.626-6.72,.48h-.48c-5.238,.842-9.95,2.209-16.32,1.92-3.405-6.569 5.088-8.4 5.76-12.48 1.25-7.593-8.303-8.451-16.8-8.64 .001-2.691 5.809-1.688 4.32-4.32 6.674-1.738 2.208-8.473 1.44-12.96 .767-.994 2.929-.591 3.84-1.44 2.975-1.186 4.803-3.517 5.76-6.72 .796-.828 .796-4.932 0-5.76-.723-1.998-1.677-3.763-2.4-5.76h2.88v-.48c3.619-4.542 9.465-6.855 12.96-11.52 1.678-4.082 4.852-6.668 10.08-7.2h.48c.027,.292 .072,.568 .48,.479 1.453,1.108 4.951,.169 7.2,.48 .637-.987 .91-4.818 0-5.76-2.46-4.097 1.616-7.722 2.88-11.04 .997-.123 .131-2.109 .96-2.4 10.429-1.063 14.839,8.726 24.48,5.28-3.75-6.01-13.255-6.264-16.32-12.96 .59,.209 .986,.614 .96,1.44 3.277,3.132 8.195,4.242 12,6.72 2.999,1.953 5.166,6.706 9.6,5.28 .357-3.717-1.59-5.13-3.36-6.72-10.132,1.172-10.924-6.997-19.2-7.68v-.48h.48c8.126,.674 9.027,8.573 18.72,7.68 2.076,.004 1.896,2.264 3.36,2.88 8.199-6.75-8.833-14.211-8.64-23.04-.431-2.671 1.217-3.263 1.92-4.8 2.026-2.853 7.931-6.935 9.6-.96 1.412-.828-.452-4.932 .96-5.76-.448,4.288 .989,6.691 1.44,10.08-.961-.639-1.069-2.131-1.44-3.36 .715,2.878-2.432,8.991-2.4,11.04 .083,5.239 7.255,6.805 5.76,15.36 5.705,3.255 9.965,7.955 13.439,13.44 6.75,1.326 7.04-9.695 3.84-12.479zm-52.8,3.36c1.295,9.646 15.999,13.199 24,7.68-5.44-4.815-14.8-8.218-24-7.68zm30.24,14.4c-3.588-5.047-19.959-5.204-18.72,4.32 6.2,2.6 16.233,1.367 21.12,5.28 1.79-.29 1.954-2.206 3.84-2.4-.243,2.157-2.715,2.085-2.4,4.8 4.356-.734 14.94,4.592 17.28-1.44-1.528-2.952-2.986-5.974-4.32-9.12-3.063,.297-3.177,3.542-6.24,3.84-1.427-2.093-3.731-3.309-6.24-4.32 3.672-.313 4.114,2.606 6.72,3.36 3.101-2.339 6.944-3.936 9.6-6.72-7.04-.27-20.82-8.087-20.64,2.4zm20.64,3.84c2.637,2.455 11.85,4.803 14.881,.96-3.6-1.613-12.76-8.07-14.88-.96zm50.88,13.92c1.51,.23 1.876-.684 2.88-.96 1.026,1.053-.086,4.245 1.92,4.32 .297-1.303-.609-3.809 .479-4.32 .88-.025 1.626,2.46 2.4,.96-.968-.632-1.624-1.576-1.92-2.88 2.152,.232 2.547-1.293 3.359-2.4-3.286,.789-5.514-.225-8.159-.96 1.3,2.848 .55,4.257-.96,6.24zm-48-1.92c-9.618,1.865-21.17-.418-24.96,5.76-7.07-1.206-11.47,1.903-17.28,3.84-13.24,4.413-28.147,3.707-43.68,5.76 12.308,22.062 53.398,11.378 72,2.4 11.263-5.436 22.543-11.48 28.8-19.2-3.49-4.77-9.03,.306-14.88,1.44zm-71.04,6.72c1.153,1.161 1.271-1.165 3.36-.48 .148,1.612-.641,4.161 1.44,3.84 .292-1.148-.603-3.483 .48-3.84 1.507-.227 1.268,1.292 2.4,1.44 .038-1.798-2.069-1.451-1.44-3.84 1.565,.125 2.31-.57 2.4-1.92-3.918,.134-5.91-1.231-8.16-.96 1.871,1.84 1.386,4.494-.48,5.76zm83.52,7.2c-.081-1.041 1.702-.217 2.4-.48-.08,1.68 .127,3.073 .96,3.84 1.411-1.055-1.335-3.78 .96-4.32 .88-.025 1.625,2.46 2.399,.96-.968-.632-1.624-1.576-1.92-2.88 1.245,.087 3.402-1.348 1.92-2.4-2.288,.563-4.456-.261-6.72-.96 1.46,3.189-.37,4.092 0,6.24zm-3.36,13.92c12.082,.662 25.4-1.436 32.641-7.2-9.55-7.913-28.54-1.972-32.64,7.2zm-43.68,5.28c9.771,2.559 20.64-.77 23.521-8.16-8.22-7.111-20.92,.671-23.52,8.16zm89.76-8.64c-6.89,5.59-14.718,10.242-20.64,16.8 10.349-2.451 17.704-7.896 22.08-16.32-.61-.026-.66-.615-1.44-.48zm-144.96,11.04c1.126-.153 1.801-.758 3.36-.48-.033,1.633-.149,3.349 .96,3.84 .297-1.303-.609-3.809 .48-4.32 1.708-.396 2.102,2.975 3.36,1.44-1.006-.914-2.532-1.308-2.4-3.36 1.326-.274 2.692-.508 2.4-2.4-3.085,.536-4.779-.709-7.68-1.44 1.208,2.42 1.07,4.88-.48,6.72zm43.2,0c.089-.711 1.16-.44 1.92-.48 .4,1.52-.193,4.034 1.44,4.32 .297-1.303-.609-3.81 .48-4.32 1.227-.518 1.68,2.066 2.4,.48-1.09-.35-1.436-1.444-1.92-2.4 1.097-.663 2.995-.525 2.88-2.4-2.723,.002-5.103-.337-7.2-.96 1.343,2.22-1.118,4.15 0,5.76zm121.44-.48c1.935-.625 3.199-1.921 3.359-4.32-2.55,.01-2.95,2.17-3.36,4.32zm-124.8,6.24c-1.564,4.516-8.091,4.069-9.6,8.64 13.911,.63 25.502-1.058 31.2-8.64-5.96-5.16-14.11,2.35-21.6,0zm115.2,7.2c1.131,.011 1.413-.827 2.88-.48 .493,1.427 .003,3.837 1.44,4.32 .301-1.459-.614-4.134 .479-4.8 .979,.141 .941,1.299 1.92,1.44 .05-1.49-1.51-1.37-.96-3.36 1.565,.125 2.311-.57 2.4-1.92-3.88-.22-4.928-.545-7.68-1.44 1.03,2.58 1,4.34-.48,6.24zm-148.32,1.44c4.662,1.741 16.261,5.131 18.24-1.44-3.105-3.78-17.116-4.88-18.24,1.44zm104.64,5.28c1.515,.235 1.695-.865 3.36-.48 .952,.647-.151,3.351 1.439,3.36 .292-1.148-.603-3.483 .48-3.84 1.685-.085 1.578,1.622 2.88,1.92 .092-2.012-2.356-1.483-1.92-3.84 1.244,.087 3.401-1.347 1.92-2.4-2.37,.329-5.311-.017-7.2-1.44 .95,2.77 1.24,5.28-.96,6.72z"/>
<path d="m137.76,30.72c1.43,.01 .615,2.265 1.439,2.88 1.394,.526 3.407,.433 4.8,.96v3.36c-.651-.148-.397-1.202-.479-1.92-1.72-1.965-6.16-1.205-5.76-5.28z"/>
<path d="m128.16,26.88c1.297,1.423 1.37,4.07 3.84,4.32 3.695-.785 3.556-5.403 6.24-7.2-.301,1.459 .614,4.134-.479,4.8v-3.36c-.34,5.368-9.07,9.419-9.6,1.44z"/>
</g>
<g fill="#ebd4db">
<path d="m197.76,57.6c1.801,1.399 3.4,2.999 4.8,4.8-1.8-1.399-3.4-2.999-4.8-4.8z"/>
<path d="m203.04,63.84c3.575,2.666 5.984,6.496 5.761,12.96-.65-5.587-2.42-10.063-5.76-12.96z"/>
<path d="m229.92,99.84h.96v.48c1.117,2.113-.991,5.043 .479,7.2v1.44c-2.31-2.26 .54-7.02-1.44-9.12z"/>
</g>
<g fill="#cac3cf">
<path d="m226.56,125.28c4.067-1.852 5.254-6.586 7.68-10.08 .481-.001 .571,.389 .96,.48v.479c-1.525,.395-1.779,2.061-2.399,3.36-.161,1.12-.492,2.068-1.44,2.4-1.163,.757-2.123,1.717-2.88,2.88-.014,.467-.588,.373-.96,.48h-.96z"/>
<path d="m191.52,138.72c1.403-1.744 4.444-.703 6.72-.96 11.64-1.315 15.524-8.431 25.44-11.04v.48h-.96c-1.531-.411-1.484,.756-2.4,.96-5.45,4.47-11.829,8.011-19.68,10.08h-.48c-2.408,.312-6.068-.629-7.68,.48h-.96z"/>
<path d="m174.24,146.88c3.958-3.403 9.08-5.641 14.4-7.681-.006,.635-.842,.439-.96,.96-1.004,.917-2.292,1.548-3.84,1.92-1.393,.367-2.761,.759-3.36,1.92-1.84,1.2-3.6,2.48-6.24,2.88z"/>
<path d="m107.04,146.88c14.224-10.417 38.607-10.674 57.12-16.8 5.257,11.675-13.579,10.814-18.72,16.8 6.379,1.725 15.789,2.628 23.521,1.439-.908,.532-1.684,1.197-2.881,1.44-8.363,.203-16.152-.168-22.08-2.4 4.288-7.073 16.827-5.893 21.12-12.96-19.742-1.64-39.767,4.696-54.24,11.52-.77,.83-2.16,1.04-3.84,.96z"/>
<path d="m73.44,130.56c25.611-3.029 46.75-10.53 74.88-11.04 1.189-.731 .858-2.982 2.88-2.88 9.451,2.286 12.461-8.239 22.561-5.28-4.729,6.201-14.104,10.076-22.561,14.88-8.228,4.675-17.319,10.209-26.4,11.52-4.38,.632-8.744-.251-12.48,0-9.603,.647-14.058,7.829-22.08,11.041 2.774,.214 4.918-.202 7.2-.48-1.631,2.529-7.273,1.047-11.04,1.44h-.48c-1.617-1.584-4.552-1.848-4.8-4.8 2.612-.533 1.533,2.626 3.84,2.4 12.321-.017 17.854-9.628 29.28-11.04 3.478-.43 7.391,.479 11.52,0 8.534-.99 17.246-6.384 24.48-10.56 7.828-4.518 15.122-9.361 21.12-13.92-4.987,.773-8.869,2.65-12.479,4.8h-.48c-7.433,4.336-18.174,3.518-27.36,5.28h-.48c-20.45,1.52-36.465,8.77-57.12,8.64z"/>
<path d="m65.28,131.04c-.119,.521-.954,.326-.96,.96h-.48c-5.238,.202-8.624,2.256-14.4,1.92h-.48c-1.533-2.068-.73-5.317-.48-8.16 1.447-2.712 4.003-4.317 5.76-6.72-1.446-3.034-4.347-4.613-8.16-5.28-1.811-.589-3.833-.968-6.24-.96-.361-1.238-3.55,.351-3.36-1.44 .369-2.511 4.9-.86 4.8-3.84h.96c1.489,2.631-4.318,1.629-4.32,4.32 8.498,.189 18.05,1.047 16.8,8.64-.672,4.08-9.165,5.911-5.76,12.48 6.37,.29 11.082-1.08 16.32-1.92z"/>
</g>
<g fill="#ebd4db">
<path d="m37.44,107.04h6.72c2.815-4.689 .185-8.093-1.44-12 1.081-1.16 2.134-2.346 4.8-1.92-.911,.849-3.073,.446-3.84,1.44 .768,4.487 5.234,11.222-1.44,12.96h-4.32c-.389,.091-.479,.481-.96,.48v-.96h.48z"/>
<path d="m53.76,74.4c1.201-2.274-.207-6.2 0-7.2 6.649,.889 10.415-1.105 12.96-4.32-3.495,4.665-9.342,6.978-12.96,11.52z"/>
<path d="m84.96,50.88c.91,.942 .637,4.773 0,5.76-2.249-.311-5.748,.627-7.2-.48h7.2v-5.28z"/>
<path d="m87.84,39.84c.861-6.02 4.724-9.037 9.12-11.52v1.44c3.064,6.696 12.57,6.95 16.32,12.96-9.641,3.446-14.051-6.343-24.48-5.28-.829,.291 .037,2.277-.96,2.4z"/>
<path d="m112.8,11.04c2.845-4.035 7.264-6.497 12-8.64-.479,.642-1.297,.942-1.44,1.92-1.412,.828 .452,4.932-.96,5.76-1.67-5.975-7.57-1.893-9.6,.96z"/>
<path d="m167.04,15.36c3.698,.942 6.118,3.162 8.16,5.76-2.228-1.613-3.869-3.811-6.72-4.8-.82,.021-1.24-.357-1.44-.96z"/>
<path d="m108.48,24.48c.194-3.485 .771-6.589 2.4-8.64-.193,8.829 16.839,16.291 8.64,23.04-1.464-.616-1.284-2.875-3.36-2.88-9.693,.893-10.594-7.006-18.72-7.68 1.012-1.228 3.541-.939 5.76-.96h3.84c2.02,.74 .076-2.484 1.44-2.4v2.88c1.057,.703 2.062,1.458 3.84,1.44-.702-2.818-.424-6.616-3.36-7.2-.26,.697 .56,2.481-.48,2.4z"/>
<path d="m174.72,36.96c-1.577-4.944 .513-12.025 .479-15.36 6.686,3.453 2.085,11.6-.479,16.32v-.96z"/>
<path d="m164.64,53.28c3.022-.018 6.386,.306 8.16-.96-.487-3.673-2.23-6.089-2.88-9.6 1.853-1.027 3.169-2.59 4.8-3.84-.834,1.726-1.111,4.009-.96,6.72 1.639,1.721 4.416,2.303 6.239,3.84h-1.439c-.64,3.934 2.689,6.141 1.439,9.12-1.73-.669-1.669-3.131-3.359-3.84-4.328,.952-4.663,5.897-9.12,6.72 .866-4.386-5.473-1.568-6.24-4.32-.678-2.758 .814-3.346 2.4-3.84h.96z"/>
</g>
<g>
<path fill="#cac3cf" d="m159.84,70.56c-6.257,7.72-17.537,13.764-28.8,19.2-18.602,8.979-59.692,19.662-72-2.4 15.533-2.053 30.44-1.347 43.68-5.76 5.81-1.937 10.21-5.046 17.28-3.84 3.79-6.178 15.342-3.895 24.96-5.76 5.85-1.134 11.39-6.21 14.88-1.44zm-94.56,17.28h-4.32c5.679,9.93 21.398,12.595 36,11.04 24.118-2.569 46.432-15.778 60.48-27.84-11.713,1.407-25.16,1.08-32.64,6.72 1.358,.083 3.293-.413 3.36,.96-.557,.403-1.287,.633-2.4,.48h-.48c-13.438-1.465-22.012,5.986-35.04,7.2-8.109,.755-15.503,.176-24.48,1.44h-.48z"/>
</g>
<g fill="#bab8cd">
<path d="m125.28,79.2c-13.961-.068-21.999,6.485-35.52,7.68-7.557,.668-14.969,.649-24,.96 8.977-1.264 16.371-.685 24.48-1.44 13.03-1.214 21.6-8.665 35.04-7.2z"/>
<path d="m65.28,87.84c-.213,1.387-3.626-.427-3.84,.96 5.179,6.248 13.799,8.863 23.52,9.6 28.231,2.142 54.772-14.132 71.04-26.88-10.424,.936-20.422,2.297-29.279,4.8-1.376,1.338 3.535,1.303 1.44,3.36-.698-.263-2.481,.561-2.4-.48 1.113,.153 1.843-.077 2.4-.48-.067-1.373-2.002-.877-3.36-.96 7.48-5.64 20.927-5.313 32.64-6.72-14.048,12.062-36.362,25.271-60.48,27.84-14.602,1.555-30.321-1.11-36-11.04h4.32z"/>
<path d="m213.12,78.72c1.498,1.542 2.676,3.405 3.84,5.28-.843,2.357-2.702,3.697-5.76,3.84-.013-.467-.587-.373-.96-.48-1.892-2.4-.817-7.494 .96-9.12 .373,.108 .947,.013 .96,.48h-.479c-1.937,1.239-2.722,6.067-.96,8.16 2.962,.243 4.775-.665 5.279-2.88-.846-2.034-2.109-3.65-3.359-5.28h.48z"/>
</g>
<g>
<path fill="#cac3cf" d="m211.2,78.24c-1.777,1.626-2.852,6.72-.96,9.12 .373,.107 .947,.013 .96,.48 3.058-.143 4.917-1.483 5.76-3.84-1.164-1.875-2.342-3.738-3.84-5.28 .686,.115 .81,.791 1.44,.96 .564,.075 1.362-.083 1.439,.479 1.197,1.364 2.379,2.742 1.921,5.76-4.535,8.533-15.263-2.381-8.16-7.68 .48,.001 .96,.001 1.44,.001z"/>
</g>
<g fill="#bab8cd">
<path d="m184.8,92.16c-5.609,6.551-19.133,5.188-28.801,7.68 2.74-7.255 18.92-13.361 28.8-7.68zm-27.36,7.2c8.442-2.438 19.7-2.06 26.4-6.24-7.69-6.213-24.15-.191-26.4,6.24z"/>
<path d="m112.32,105.12c1.902-6.813 13.478-13.769 20.64-7.68-3.18,6.26-12.11,6.77-20.64,7.68zm19.68-8.16c-7.771-4.072-16.077,2.012-18.72,7.68 7.47-1.33 16.28-1.32 18.72-7.68z"/>
<path d="m33.12,110.88c1.681-.56 3.023-1.457 3.84-2.88 .481,.001 .571-.389 .96-.48 .088,.408-.187,.453-.48,.48-.334,1.798 3.632,1.169 2.88-.48h.96c.1,2.98-4.431,1.329-4.8,3.84-.19,1.791 2.999,.202 3.36,1.44-1.878-.042-4.211,.372-3.84-1.92h-2.88z"/>
<path d="m46.08,113.76c3.813,.667 6.714,2.246 8.16,5.28-1.757,2.403-4.313,4.007-5.76,6.72-.67-3.729 5.25-4.577 5.28-6.72 .034-2.462-4.351-3.345-7.2-4.8h-.48v-.48z"/>
</g>
<g>
<path fill="#aeb0cd" d="m33.12,110.88h2.88c-.372,2.292 1.961,1.878 3.84,1.92 2.408-.008 4.43,.371 6.24,.96v.48c-2.537-.035-5.811-1.854-8.16-.48h-1.44c-.511-1.777-2.878-2.439-4.8-1.44 .053-.91 1.587-.33 1.44-1.44z"/>
<path fill="#bab8cd" d="m158.88,116.64c3.61-2.15 7.492-4.027 12.479-4.8-5.998,4.559-13.292,9.402-21.12,13.92-7.234,4.176-15.946,9.57-24.48,10.56-4.129,.479-8.042-.43-11.52,0-11.426,1.412-16.959,11.023-29.28,11.04-2.307,.227-1.228-2.933-3.84-2.4 .248,2.953 3.183,3.216 4.8,4.8-2.516-.779-6.621-2.21-4.8-5.76 1.698,.376 3.344,2.618 5.28,2.88 6.768,.916 14.116-7.771 21.12-10.081 5.904-1.947 12.275-.287 17.76-.96 15.718-1.929 31.563-16.421 43.2-22.56-3.73,.59-6.12,2.52-9.6,3.36z"/>
</g>
<g fill="#7c849e">
<path d="m32.16,118.08c.344-1.417 .548-2.972 1.44-3.84 3.975-.766 7.541,1.408 10.08,.48h.96c.697,2.503 3.504,2.896 3.84,5.76-.448,.352-.727,.873-.96,1.44h-.48v-.96c.427-.213 .858-.421 .96-.96-.707-2.013-3.208-2.232-3.36-4.8-3.344,1.27-6.185-1.269-10.56-.48-1.609,.15-.484,3.04-1.92,3.36z"/>
<path d="m32.16,118.56c.691,.108 .167,1.433 .96,1.44-.078,.558 .106,.854 .48,.96-.385,1.665 .715,1.845 .48,3.36-.942-1.62-1.44-3.68-1.92-5.76z"/>
<path d="m34.08,124.8c3.726,8.274 10.853,13.147 20.64,15.36-.093,2.333-.109,4.589 .96,5.76 4.435,.595 5.672-2.008 9.12-2.4-2.062,11.058-2.271,23.968-10.08,29.28-2.711-8.649-.098-22.623-5.28-28.8-2.919,7.321 .588,21.068-6.24,24.48-2.335-5.025-2.845-11.875-3.84-18.24-1.701-.077-3.678,2.051-2.4,3.36v.479c-.309,1.452-.75,2.771-2.4,2.88-2.341,.101-1.931-2.549-1.92-4.8-1.786-.505-.941,1.619-1.92,1.92-.071-1.19-.09-2.329 .96-2.399 2.52-.12 1.217,3.583 2.4,4.8 3.905-.255 .081-8.239 5.76-6.72 .985,5.895 1.503,12.257 3.36,17.279 6.589-4.61 2.796-19.603 6.24-27.359-6.646-3.43-13.142-7.02-15.36-14.88zm22.08,45.6c4.333-6.387 5.763-15.677 7.2-24.96-3.104,.338-5.548,3.074-9.12,1.44-.355-1.885 1.013-5.493-1.44-5.28-.364,11.08 1.296,20.14 3.36,28.8z"/>
<path d="m30.72,156.96c2.271,2.369 .936,8.345 2.4,11.521v3.36c-.563-.078-.405-.876-.48-1.44-.64-4.48-1.07-9.17-1.92-13.44z"/>
</g>
<g>
<path fill="#bab8cd" d="m108,117.12c1.15-1.73 4.899-.861 5.28-3.36-6.653-.093-10.368,2.752-17.76,1.92-.235,1.54-4.279,3.799-2.4,4.32 4.849-.911 9.645-1.875 14.4-2.88-4.802,2.078-10.534,3.226-17.28,3.36 1.661-1.859 4.163-2.877 4.8-5.76 7.189,2.425 12.794-3.098 19.68-.96-1.23,2.13-3.92,2.8-6.72,3.36z"/>
<path fill="#aeb0cd" d="m158.88,116.64c3.48-.84 5.871-2.769 9.6-3.36-11.637,6.139-27.482,20.631-43.2,22.56-5.484,.673-11.856-.987-17.76,.96-7.004,2.31-14.353,10.997-21.12,10.081-1.936-.263-3.582-2.504-5.28-2.88-1.821,3.55 2.284,4.981 4.8,5.76h.48c1.77,1.11 5.593,.167 8.16,.479-1.452,1.107-4.951,.169-7.2,.48h-.96c-5.535-1.666-8.627-5.773-9.6-12 3.434-.096 7.184,3.052 10.08,.48-.625-9.273-14.089-7.25-23.04-6.72v-.48h.48c1.472-1.088 5.349,.229 6.72-.96h1.44c21.234,.151 38.369-6.329 58.08-9.12h.48c9.986-.856 20.974,.056 27.36-5.28h.48z"/>
<path fill="#949ab1" d="m86.4,150.72c-7.351-1.751-5.916,5.284-10.08,6.72-.822-.617-1.302-1.577-1.44-2.88 1.09-1.95 4.465-1.615 5.28-3.84 .074-2.795-.388-5.053-2.4-5.76-.427-.373-1.083-.516-1.92-.48-.168-2.466-1.346-5.133-.48-7.2 4.29-.609 5.73,1.63 9.12,1.92 .327-7.209-10.141-6.176-15.36-6.24h-1.92c-2.418,.942-6.818-.098-8.16,1.92-3.174,1-8.837,1.482-12.48,.48-.039-2.977-.986-5.474 0-8.16 1.597-1.763 .491-6.229 2.88-7.2-.872-2.489-1.283-5.437-4.8-5.28h-.96c-1.417-.824-3.462-1.018-5.76-.96 2.35-1.374 5.624,.445 8.16,.48h.48c7.395,2.548-.717,11.378 0,16.8 .396,2.997 4.58,6.457 8.64,2.88 3.092-.268 5.643-1.077 8.64-1.44 8.951-.531 22.415-2.554 23.04,6.72-2.896,2.572-6.646-.576-10.08-.48 .973,6.23 4.065,10.33 9.6,12z"/>
</g>
<g fill="#bab8cd">
<path d="m64.32,132c.006-.634 .841-.439 .96-.96h5.76c-1.371,1.19-5.248-.13-6.72,.96z"/>
<path d="m73.44,130.56c20.655,.13 36.674-7.117 57.12-8.64-19.711,2.792-36.846,9.271-58.08,9.12v-.48h.96z"/>
<path d="m158.4,116.64c-6.386,5.335-17.374,4.424-27.36,5.28 9.19-1.76 19.93-.94 27.36-5.28z"/>
</g>
<g>
<path fill="#6b7695" d="m32.16,118.08c1.436-.324 .311-3.209 1.92-3.36 4.375-.789 7.216,1.75 10.56,.48 .152,2.568 2.653,2.787 3.36,4.8-.102,.539-.533,.747-.96,.96-.047-3.313-2.492-4.228-5.28-4.8h-.48c-1.355-.725-3.313-.847-5.28-.96-2.679-.118-2.808,2.313-2.88,4.8-.793-.007-.269-1.332-.96-1.44v-.48z"/>
<path fill="#697591" d="m36,115.2c1.967,.113 3.925,.235 5.28,.96-2.108,.03-3.967-.19-5.28-.96z"/>
<path fill="#838ca8" d="m47.04,121.92h.48c.233-.567 .512-1.088 .96-1.44-.336-2.864-3.143-3.257-3.84-5.76 3.517-.157 3.928,2.792 4.8,5.28-2.389,.971-1.283,5.437-2.88,7.2v-1.44c1.083-.36 .188-2.69 .48-3.84z"/>
</g>
<g fill="#697591">
<path d="m41.76,116.16c2.788,.572 5.233,1.487 5.28,4.8v.96c-.292,1.147 .603,3.482-.48,3.84 .873-5.67-.997-8.6-4.8-9.6z"/>
<path d="m35.04,124.8c2.524,4.196 6.003,7.437 9.12,11.04-3.597-3.12-7.122-6.32-9.12-11.04z"/>
</g>
<g>
<path fill="#bab8cd" d="m235.2,116.16v-.479h.96c2.357,.363 2.227,3.213 3.36,4.8-1.746-.814-1.41-3.71-3.36-4.32h-.479s-.32,0-.48,0z"/>
</g>
<g fill="#aeb0cd">
<path d="m236.16,116.16c1.95,.61 1.614,3.506 3.36,4.32 .374,.106 .558,.402 .479,.96-2.37-.67-2.59-3.49-3.84-5.28z"/>
<path d="m240.48,122.88c.577,1.503 2.959,1.201 2.4,3.84-.47-1.61-2.08-2.08-2.4-3.84z"/>
<path d="m237.6,172.8c-.088,3.432-1.374,5.666-1.44,9.119-1.592,.809 .116,4.916-1.92,5.28 .63-5.29 1.58-10.26 3.36-14.4z"/>
</g>
<g>
<path fill="#949ab1" d="m235.68,116.16h.479c1.247,1.794 1.469,4.612 3.84,5.28-.021,.661 .227,1.054 .48,1.44 .323,1.757 1.929,2.232 2.4,3.84 .15,.649 .683,.917 .479,1.92 1.989,5.669-1.782,9.3-3.84,12.48 3.3,5.885 2.422,17.388 .96,23.04-.263,.697 .561,2.481-.48,2.4-1.798,1.082-1.995,3.765-2.399,6.24-1.779,4.141-2.733,9.106-3.36,14.399 .133,4.933-2.078,7.522-2.88,11.521-1.586,1.453-2.268,3.812-2.88,6.239-1.109,.491-.993,2.207-.96,3.841-2.136,2.184-2.885,5.755-4.8,8.159-1.482,1.718-2.835,3.565-3.84,5.761-.758,1.162-1.718,2.122-2.881,2.88-2.675,1.165-4.192,3.487-5.279,6.24-1.521,1.68-2.958,3.442-5.28,4.319-1.765,.315-2.391,1.77-3.36,2.88-1.537,.223-1.692,1.828-3.359,1.92 7.726-6.696 12.316-11.121 19.68-20.64 5.697-7.365 9.104-14.251 7.68-25.92 1.555-.979 3.272-1.056 5.28-.48 .717-2.803 2.463-4.576 2.4-8.159-2.602-.201-2.178,2.622-3.84,3.359-.742-5.499 2.633-11.393 4.8-16.8 2.315-5.779 4.55-11.605 5.279-18.24-9.251,3.229-7.502,17.458-12.479,24.96 .587-10.897 .851-25.761-3.84-34.08 2.777-.377 3.463,1.337 6.24,.96 3.077-.922 1.159-6.841 2.88-9.12 2.667-.427 3.558,.922 5.76,.96-1.829-4.173 2.825-6.684 2.88-9.6 .075-4.042-4.513-3.848-5.76-8.16-10.776,9.224-21.913,18.087-39.36,20.64-.997,.123-.131,2.108-.96,2.4-12.416,3.264-22.737,8.622-38.399,8.64h-1.921c-3.783-.057-7.419-.261-10.079-1.44-2.521-.999-6.887-.153-9.12-1.439 11.426-.19 25.68,5.943 34.56-.48 2.297,.537 2.336-1.184 3.84-1.439 2.642-.399 4.396-1.684 6.24-2.88 1.393-.368 2.761-.759 3.36-1.92 1.548-.372 2.836-1.003 3.84-1.92 1.756,.316 1.841-1.039 3.359-.96 15.731,1.171 24.364-4.756 31.681-12h.96c2.004,.084 2.353-1.487 3.84-1.92 .372-.107 .946-.013 .96-.48 1.552-.368 2.512-1.328 2.88-2.88 .948-.332 1.279-1.28 1.44-2.4 1.39-.69 1.85-2.31 2.88-3.36z"/>
<path fill="#aeb0cd" d="m235.68,116.16c-1.028,1.052-1.494,2.667-2.88,3.36 .62-1.3 .874-2.966 2.399-3.36h.48z"/>
<path fill="#bab8cd" d="m64.8,121.44c1.281-3.094 11.885-3.89 12.96,0-3.192,2.77-9.099,.76-12.96,0zm12,0c-.985-3.063-8.28-2.188-10.08-.48 3.078,1.11 6.988,1.75 10.08,.48z"/>
<path fill="#838ca8" d="m140.16,206.4c1.541-14.953 3.327-33.94-1.439-46.56 2.034-.397 1.681,1.96 3.84,2.399 4.566,.931 8.106-5.343 10.56-2.399v.479h-.479v-.479c-3.947-1.303-5.048,4.17-9.601,3.84 2.558,5.532 .451,13.979 .48,19.2 9.539-.861 4.736-16.064 9.12-22.08-4.002,14.264-2.474,42.404-3.36,61.92-.491,10.827 .533,17.65 7.2,22.08 14.946-4.414 1.434-37.286 14.4-43.681-1.941-18.219-1.238-39.082-11.521-48.96-.697-.263-2.48,.562-2.399-.479 15.662-.019 25.983-5.376 38.399-8.64 .829-.292-.037-2.277 .96-2.4 17.447-2.553 28.584-11.417 39.36-20.64 1.247,4.312 5.835,4.118 5.76,8.16-.055,2.916-4.709,5.427-2.88,9.6-2.202-.038-3.093-1.387-5.76-.96-1.721,2.279 .197,8.198-2.88,9.12-2.777,.377-3.463-1.337-6.24-.96 4.69,8.319 4.427,23.182 3.84,34.08 4.978-7.502 3.229-21.731 12.479-24.96-.729,6.635-2.964,12.461-5.279,18.24-2.167,5.407-5.542,11.301-4.8,16.8 1.662-.737 1.238-3.561 3.84-3.359 .063,3.583-1.684,5.356-2.4,8.159-2.008-.575-3.726-.499-5.28,.48 1.424,11.669-1.982,18.555-7.68,25.92-7.363,9.519-11.954,13.943-19.68,20.64-1.086,.515-2.111,1.09-2.88,1.921-6.798,4.082-14.119,7.641-24,8.64h-.96c-4.563-.083-8.606,.354-11.521,1.92-.545,.091-.267,.481 0,.479-2.618,1.063-7.086,.274-9.6,1.44h-1.92c-1.616,.304-4.459-.618-5.28,.48-1.665-.386-1.845,.715-3.36,.479h-1.439c-.014-.467-.588-.372-.96-.479 7.354-9.949 .466-29.285 2.88-43.2v-.96c1.095-.666 .179-3.341 .479-4.8v-.48zm75.84-52.32c-1.719-.693-3.614-3.728-5.76-2.399 7.472,8.563 1.081,25.584 2.88,37.92 1.204-14.7 11.818-26.913 8.641-41.28-.614-.026-.665-.615-1.44-.479-.75,2.77-1.58,5.46-4.32,6.24zm-37.44,9.12c-1.345-2.495-6.613-1.066-10.08-1.439 2.603,6.517 2.874,15.366 4.32,23.04 1.643,.202 1.442-1.438 2.399-1.92-4.792,16.447-5.592,39.043-4.319,60 5.762,.481 8.104-2.455 11.04-4.801-.641-10.743 4.422-20.849 5.279-32.16 .183-2.398-.572-5.227 0-7.68 .946-4.057 4.274-6.675 4.8-12 1.268-12.834-2.447-25.788-6.239-33.12-1.644-3.177-3.466-5.501-6.721-4.319-4.75,1.72-1.16,10.16-.48,14.4zm24-5.76c.419,5.173-2.4,15.469-4.32,20.64-1.046,2.819-2.772,3.921-2.88,6.24-.43,9.28 9.114,6.896 12,1.92 2.254-11.646 9.541-34.873-6.24-36.96-1.69,3.56 1.15,4.61 1.44,8.16zm-15.36-1.44c6.646,3.71 7.918,14.416 6.721,24.48 5.695-2.005 5.36-14.144 6.72-22.08-4.34,2.51-10.92-3.33-13.44-2.4z"/>
<path fill="#7c849e" d="m156.96,151.68c-.081,1.041 1.702,.217 2.399,.479 10.282,9.878 9.579,30.741 11.521,48.96-12.967,6.395 .546,39.267-14.4,43.681-6.667-4.43-7.691-11.253-7.2-22.08 .887-19.516-.642-47.656 3.36-61.92v-.48h.479c-3.311,22.609-1.426,50.414-1.92,75.84 2.926,1.453 4.393,6.729 7.681,6.24 5.863-4.459 4.682-18.277 2.88-26.4 9.927-16.173 9.663-54.079-6.24-63.359-1.404,1.795-.913,5.487-2.4,7.2-2.453-2.943-5.993,3.33-10.56,2.399-2.159-.439-1.806-2.797-3.84-2.399 4.767,12.619 2.98,31.606 1.439,46.56 .621-18.589 1.419-35.187-2.399-50.88 2.813,2.087 2.392,5.801 6.239,6.24 4.107,.468 8.295-3.74 8.641-8.641-3.87-.646-7.016,.058-9.12-2.88-7.517-.606-16.167,2.129-22.08,0h6.72c2.102-.778 5.377-.383 7.2-1.439h.48c2.233,1.286 6.599,.44 9.12,1.439 .637,2.89 7.46,2.131 10.079,1.44h1.92z"/>
<path fill="#bab8cd" d="m228.48,124.8c.757-1.163 1.717-2.123 2.88-2.88-.37,1.55-1.33,2.51-2.88,2.88z"/>
<path fill="#aeb0cd" d="m222.72,127.2c-7.316,7.244-15.949,13.171-31.681,12 .027-.292 .072-.568 .48-.48h.96c2.408-.312 6.069,.629 7.68-.48h.48c8.751-1.169 14.928-4.912 19.68-10.08 .92-.2 .87-1.37 2.4-.96z"/>
<path fill="#bab8cd" d="m223.68,126.72c1.699,.26 1.18-1.7 2.88-1.44h.96c-1.487,.433-1.836,2.004-3.84,1.92v-.48z"/>
<path fill="#aeb0cd" d="m48.48,125.76c-.25,2.843-1.053,6.092 .48,8.16h.48v.48c2.27,.189 4.006-.154 5.76-.48-4.06,3.577-8.244,.117-8.64-2.88-.717-5.422 7.395-14.252 0-16.8 2.849,1.456 7.234,2.338 7.2,4.8-.03,2.14-5.95,2.99-5.28,6.72z"/>
<path fill="#7c849e" d="m58.08,135.84c-3.447,.713-7.88,.44-12,.48-.839-2.041-.357-5.402-.48-8.16 .521-.119 .326-.954 .96-.96-.986,2.686-.039,5.183 0,8.16 3.643,1.002 9.306,.52 12.48-.48-.213,.43-.421,.86-.96,.96z"/>
<path fill="#bab8cd" d="m200.64,138.24c7.851-2.069 14.229-5.61 19.68-10.08-4.75,5.17-10.93,8.91-19.68,10.08z"/>
</g>
<g fill="#697591">
<path d="m63.84,142.56c-2.391,1.129-4.193,2.846-7.68,2.88-.757-1.226-.757-5.014 0-6.24-.796-.804-2.818-.382-4.32-.48-.135-1.255 .175-2.064 1.44-1.92-.119,.521-.954,.326-.96,.96 1.447,1.015 2.273-.135 4.32,.48-.058,2.061-1.196,4.929 0,6.72 3.364,.16 4.082-2.32 7.2-2.4z"/>
<path d="m64.32,142.56c.79-1.368 2.604,.23 3.36,.48-1.341,2.66-1.944,6.056-3.36,8.64 .228-3.292 1.727-5.313 2.4-8.16-.408-.71-1.208-1.03-2.4-.96z"/>
<path d="m63.36,156.96c-.922,3.715-1.507,10.476-3.84,13.921-.748,1.104-4.691,5.783-5.76,1.439 .448,.352 .728,.873 .96,1.44 6.617-1.86 6.027-10.93 8.64-16.8z"/>
<path d="m48.96,148.8c4.143-2.194 3.019,17.577 4.8,23.04-3.364-5.92 .085-18.64-4.8-23.04z"/>
</g>
<g fill="#838ca8">
<path d="m69.12,132.96c5.219,.064 15.687-.969 15.36,6.24-3.39-.29-4.831-2.529-9.12-1.92-.866,2.067 .312,4.734 .48,7.2-.977-.463-1.037-1.843-.96-3.36-.041-1.72-.747-2.774-.96-4.32 .904-.696 2.495-.706 2.88-1.92-1.036-2.16-6.483,.08-7.68-1.92z"/>
<path d="m59.04,134.88c1.342-2.018 5.742-.978 8.16-1.92v.48c-.854,1.226-4.479-.319-5.28,.96-1.468-.35-1.412,.83-2.88,.48z"/>
</g>
<g>
<path fill="#aeb0cd" d="m240.48,164.16c1.462-5.651 2.34-17.154-.96-23.04 2.058-3.18 5.829-6.811 3.84-12.48h.48c1.179,1.061 1.727,2.753 2.399,4.32v10.08c-1.089,.51-.183,3.017-.479,4.32-.863,1.058-.42,3.421-.96,4.8-1.172,2.509-.623,6.737-2.4,8.641-.591,.209-.985,.614-.96,1.439-.25,.71-.71,1.21-.96,1.92z"/>
<path fill="#cac3cf" d="m243.84,128.64c1.723,.517 2.69,1.789 2.399,4.32-.67-1.57-1.22-3.26-2.4-4.32z"/>
<path fill="#bab8cd" d="m166.08,149.76c-7.724,1.161-17.743,.465-23.04-2.4 3.647-7.553 16.544-5.856 20.641-12.96-19.735-.371-37.375,5.501-52.32,11.52h-.48c14.473-6.824 34.498-13.16 54.24-11.52-4.293,7.067-16.832,5.887-21.12,12.96 5.93,2.23 13.72,2.6 22.08,2.4z"/>
</g>
<g fill="#f2edf0">
<path d="m30.24,164.16c-1.573-1.476-1.043-7.584-.96-9.12-.078,.559 .106,.854 .48,.96v.48c.31,2.09-.626,5.426 .48,6.72v.96z"/>
<path d="m30.24,165.12c.829,1.571 .726,4.075 1.44,5.761-1.202-1.2-1.455-3.34-1.44-5.76z"/>
<path d="m35.52,190.08c-.688-1.092-.804-5.247-.48-5.76-.078,.559 .106,.854 .48,.96v4.8z"/>
</g>
<g>
<path fill="#ebd4db" d="m56.64,231.84c-1.99-1.531-4.366-2.675-5.28-5.28 2.186,2.134 4.783,3.857 6.72,6.24-.63-.17-.755-.84-1.44-.96z"/>
<path fill="#f2edf0" d="m63.36,237.12c2.721,1.119 4.612,3.068 7.2,4.32v.479c-2.877-1.12-5.276-2.72-7.2-4.8z"/>
<path fill="#fff" d="m70.56,241.92c1.201,.399 1.885,1.315 3.36,1.44 1.599,.802 3.509,1.292 4.8,2.4 1.003,.916 2.292,1.548 3.84,1.92 2.504,1.336 5.462,2.218 8.16,3.359 .06,1.061 2.036,.204 2.88,.48 .357,1.082 2.692,.188 3.84,.479 .484,1.117 1.652,1.548 3.36,1.44 .511,1.089 3.018,.183 4.32,.479 .108,.691 1.433,.168 1.44,.961 1.784,1.415 5.554,.846 8.64,.96 2.961-.562 3.432,1.367 6.24,.96h.96v.479h-97.92v-128.16h.48c-.088,.408 .187,.453 .48,.48 .953,6.567 2.231,12.809 3.84,18.72v6.72c-.083,1.536-.613,7.645 .96,9.12v.96c-.015,2.415 .238,4.563 1.44,5.761 .562,.718 .597,1.963 1.44,2.399 .502,2.538 1.214,4.865 1.44,7.68 .661,.619 .475,2.085 .48,3.36-.324,.513-.208,4.668 .48,5.76 1.303-.343-.343,2.264 .96,1.92 .35,1.091-.865,3.745 .96,3.36v1.44c.754,3.245 1.796,6.203 2.88,9.119 2.859,7.701 7.789,13.332 11.04,20.641 .915,2.605 3.291,3.749 5.28,5.28 .692,1.548 2.35,2.13 3.84,2.88 1.144,.616 1.938,1.581 2.88,2.399 1.924,2.08 4.323,3.68 7.2,4.8z"/>
<path fill="#7c849e" d="m67.2,133.44v-.48h1.92c1.197,2.003 6.644-.244 7.68,1.92-.385,1.214-1.976,1.224-2.88,1.92 .213,1.546 .919,2.601 .96,4.32-2-3.12-2.86-7.38-7.68-7.68z"/>
<path fill="#697591" d="m66.72,134.4c3.976-.771 6.219,4.336 7.68,7.68-2.526-2.59-3.07-7.17-7.68-7.68z"/>
<path fill="#aeb0cd" d="m111.36,145.92c14.945-6.019 32.585-11.891 52.32-11.52-4.097,7.104-16.993,5.407-20.641,12.96 5.297,2.865 15.316,3.562 23.04,2.4 1.197-.243 1.973-.908 2.881-1.44h1.439c-8.88,6.424-23.134,.29-34.56,.48h-.48c-8.819,2.177-16.617-2.296-22.56-2.88h-1.44z"/>
<path fill="#949ab1" d="m112.8,145.92c5.943,.584 13.741,5.057 22.56,2.88-1.822,1.057-5.098,.661-7.2,1.439-1.77-1.11-5.593-.167-8.16-.479-3.18-.5-3.49-3.87-7.2-3.84z"/>
</g>
<g fill="#697591">
<path d="m71.52,162.72c-1.845-3.793-4.239-15.848 1.44-17.28 .043,2.837-.6,6.36 2.88,5.76-2.452,1.635-3.881-1.865-3.36-4.8-4.725,2.63-1.397,11.64-.96,16.32z"/>
<path d="m83.52,210.72c.826,5.948 .953,22.979-2.4,23.52 3.141-5.5 2.168-15.11 2.4-23.52z"/>
<path d="m82.08,192c.851,2.83 1.012,6.349 .96,10.08-.742-2.94-.81-6.55-.96-10.08z"/>
<path d="m89.76,163.2c-2.196-1.804 .313-8.313-1.92-10.08-7.299,5.182-5.958,19.002-6.24,31.2-1.043-11.444-.956-25.915 5.28-31.68 4.235,.24 1.48,7.48 2.88,10.56z"/>
<path d="m92.64,182.4c.725,1.355 .847,3.313 .96,5.28-.767-1.31-.988-3.17-.96-5.28z"/>
<path d="m93.6,188.16c6.662,18.827-7.21,50.89 7.68,61.92 4.548-7.611 3.823-20.497 3.84-32.64 1.084,11.325 .899,25.538-3.36,33.12-6.593-1.738-7.733-9.472-8.16-15.84-.972-14.5 3.456-32.9 0-46.56z"/>
<path d="m102.72,169.44c-.847,17.486 1.61,31.669 2.4,47.52-1.54-14.78-4.12-31.08-2.4-47.52z"/>
<path d="m105.12,157.44c-.792,3.848-1.325,7.955-2.4,11.52 .34-4.3 .85-8.43 2.4-11.52z"/>
<path d="m127.2,151.68v-.48c2.49,1.371-1.627,2.724-2.4,3.84 .45-1.47 2.34-1.5 2.4-3.36z"/>
<path d="m112.8,152.64c-.135-.775 .454-.826 .48-1.44 4.255,.386 2.773,6.507 6.24,7.681 1.66,.38 2.026-.534 2.88-.961-4.918,5.484-6.028-6.372-9.12-5.76 .09,.41-.19,.45-.48,.48z"/>
<path d="m112.8,161.76c1.089,.511 .183,3.017 .48,4.319 5.572,11.66 5.601,28.246 3.36,42.24-1.426-6.116 1.571-15.167 1.44-21.6-.18-8.78-5.87-14.58-5.28-24.96z"/>
<path d="m115.68,242.88c.889,1.338 1.299,4.438 1.44,7.199 .088,1.729 1.897,5.403-1.44,4.801 .077-.563 .875-.405 1.44-.48-.13-4.19-1.1-7.54-1.44-11.52z"/>
</g>
<g>
<path fill="#6b7695" d="m48.48,158.88c-.715,4.084-2.092,7.508-3.84,10.56-5.41-.991-3.153-9.647-5.28-13.92-.005-1.275 .182-2.741-.48-3.36-1.255-.135-2.064,.176-1.92,1.44-1.278-1.31 .699-3.438 2.4-3.36 .996,6.365 1.505,13.215 3.84,18.24 6.828-3.412 3.321-17.159 6.24-24.48 5.183,6.177 2.569,20.151 5.28,28.8 7.808-5.313 8.018-18.223 10.08-29.28-3.447,.392-4.685,2.995-9.12,2.4-1.069-1.171-1.053-3.427-.96-5.76-9.787-2.212-16.914-7.086-20.64-15.36v-.48c.235-1.515-.865-1.695-.48-3.36 .651,1.108 1.38,2.14 1.44,3.84 1.998,4.722 5.523,7.917 9.12,11.04h.48c1.757-2.035-1.529-6.255 .96-7.68 .123,2.758-.359,6.12 .48,8.16 4.12-.04 8.553,.233 12-.48-1.092,.828-2.813,1.027-4.8,.96-1.265-.145-1.575,.665-1.44,1.92 1.502,.098 3.524-.324 4.32,.48-.757,1.226-.757,5.014 0,6.24 3.486-.034 5.289-1.751 7.68-2.88h.48c1.192-.072 1.992,.248 2.4,.96-.673,2.847-2.172,4.868-2.4,8.16 .016,2.096-.417,3.743-.96,5.279-2.613,5.867-2.023,14.938-8.64,16.801-.233-.567-.512-1.089-.96-1.44v-.479c-1.781-5.463-.657-25.234-4.8-23.04v1.92c-1.503,2.41 .836,5.68-.48,8.16z"/>
<path fill="#bab8cd" d="m180.48,144c.6-1.161 1.968-1.553 3.36-1.92-.6,1.16-1.97,1.55-3.36,1.92z"/>
</g>
<g fill="#f2edf0">
<path d="m139.2,256.32c1.516,.235 1.695-.865 3.36-.479 1.616-.305 4.458,.618 5.28-.48h2.399c-2.539,1.621-7.701,.618-11.04,1.44v-.48z"/>
<path d="m166.08,252.96c.857-.582 2.793-.087 3.36-.96 .682,.042 1.359,.08 1.44-.479h.96c-.881,1.679-4.008,1.112-5.761,1.92v-.48z"/>
<path d="m195.84,242.88c.769-.831 1.794-1.406 2.88-1.921 1.667-.092 1.822-1.697 3.359-1.92h.48c-1.47,2.05-4.22,2.82-6.72,3.84z"/>
<path d="m210.72,231.84c1.087-2.753 2.604-5.075 5.279-6.24-1.87,1.97-3.5,4.18-5.28,6.24z"/>
</g>
<g>
<path fill="#fff" d="m210.72,231.84c1.78-2.06 3.411-4.269 5.279-6.24 1.163-.758 2.123-1.718 2.881-2.88 1.779-1.421 3.293-3.106 3.84-5.761 1.915-2.404 2.664-5.976 4.8-8.159 1.135-.625 .926-2.595 1.439-3.841-.077-.558 .106-.854 .48-.96 3.802-4.84 5.646-15.793 7.68-24 .499-4.94 1.576-9.304 2.88-13.439 1.041,.081 .218-1.703 .48-2.4 .25-.71 .71-1.21 .96-1.92 1.893-1.468 4.051-2.669 3.36-6.72v-.48c.921-1.959 1.562-4.197 1.439-7.199v-4.8c.408,.088 .453-.188 .48-.48h.479v114.72h-110.88v-.479h2.88c3.339-.822 8.501,.181 11.04-1.44h-.479c2.514-1.166 6.981-.378 9.6-1.44h2.4c1.93,.331 2.74-.459 4.319-.479 1.753-.808 4.88-.241 5.761-1.92 9.881-.999 17.202-4.558 24-8.64 2.497-1.023 5.253-1.787 6.72-3.841 .968-.951 1.929-1.911 2.88-2.88 2.32-.88 3.76-2.64 5.28-4.32z"/>
</g>
<g fill="#f2edf0">
<path d="m222.72,216.96c-.547,2.654-2.061,4.34-3.84,5.761 1-2.2 2.36-4.04 3.84-5.76z"/>
<path d="m237.12,180c-2.034,8.207-3.878,19.16-7.68,24 .253-2.146 1.77-3.03 1.92-5.279 .802-3.998 3.013-6.588 2.88-11.521 2.036-.364 .328-4.472 1.92-5.28 1.3,.34-.34-2.26 .96-1.92z"/>
<path d="m242.4,160.8c2.188-.373 1.477-3.645 2.4-5.28 .69,4.051-1.468,5.252-3.36,6.72-.02-.82 .37-1.23 .96-1.44z"/>
<path d="m245.28,152.16c.404-1.196 .629-2.571 .48-4.319h.479c.122,3.002-.519,5.24-1.439,7.199-.35-1.47 .49-1.75 .48-2.88z"/>
</g>
<g>
<path fill="#7c849e" d="m117.12,149.76c-10.93-9.193-15.161,13.072-15.84,23.04-1.724,25.278 8.355,57.082 0,76.319-11.183-7.743-4.123-30.821-5.28-49.439-.881-14.19-4.812-25.095-5.76-36.48-.465-5.582 .68-11.277-3.84-11.04-5.021,.265-6.398,18.426-6.24,24.96 .465,19.21 5.143,38.868 .96,56.16-2.274-.354-3.3,.54-5.28,.48-1.097-28.184-1.194-57.365-4.32-83.521 1.568,1.83 4.733,2.655 6.72,.48 .218-2.938-.351-5.089-2.4-5.76v-.48c.836-.036 1.493,.107 1.92,.48 4.554,3.919-.116,8.409-4.32,9.12-.087,3.926 2.222,5.224 4.32,4.801 3.004-.607 2.82-6.951 5.28-7.681h4.8c1.622,.938 3.951,1.17 6.24,1.44-7.218,5.335-.377,15.306 .48,22.56 8.2-.048 4.492-10.148 5.76-16.8 .738-3.873 3.867-5.414 2.88-8.16 2.138,.538 1.726-1.474 2.4-2.399v-.48c.661,.021 1.054-.226 1.44-.479 1.679,.079 3.073-.128 3.84-.96h1.92c3.708-.028 4.021,3.339 7.2,3.84v.479h-1.92c-.01-.47-.59-.37-.96-.48z"/>
</g>
<g fill="#838ca8">
<path d="m77.76,144.96c2.013,.708 2.475,2.965 2.4,5.76-.815,2.225-4.19,1.89-5.28,3.84 .138,1.303 .618,2.263 1.44,2.88 4.165-1.436 2.729-8.471 10.08-6.72h.96v.479h-4.32c-2.46,.729-2.276,7.073-5.28,7.681-2.098,.423-4.407-.875-4.32-4.801 4.204-.71 8.873-5.2 4.32-9.12z"/>
<path d="m87.84,151.2c4.669,1.426 10.2-2.733 12,.48-3.096,1.384-4.908,4.052-8.64,4.8-1.276,8.156 4.132,9.628 3.84,16.8 7.672-1.607 1.325-17.235 7.68-20.16 .348-1.468-.829-1.411-.48-2.88 1.414-.346 2.347-1.174 2.88-2.399h.48c-.674,.926-.262,2.938-2.4,2.399 .986,2.746-2.142,4.287-2.88,8.16-1.268,6.651 2.44,16.752-5.76,16.8-.857-7.254-7.698-17.225-.48-22.56-2.289-.27-4.619-.5-6.24-1.44z"/>
</g>
<g>
<path fill="#6b7695" d="m75.84,144.48v.48c2.049,.671 2.618,2.823 2.4,5.76-1.986,2.175-5.152,1.35-6.72-.48 3.125,26.155 3.223,55.337 4.32,83.521 1.98,.06 3.006-.835 5.28-.48 4.183-17.292-.495-36.95-.96-56.16-.158-6.534 1.219-24.695 6.24-24.96 4.52-.237 3.375,5.458 3.84,11.04 .948,11.386 4.879,22.29 5.76,36.48 1.157,18.618-5.903,41.696 5.28,49.439 8.355-19.237-1.724-51.041 0-76.319 .68-9.968 4.91-32.233 15.84-23.04-6.527-4.877-10.723,1.816-12,7.68-1.552,3.089-2.064,7.216-2.4,11.52v.48c-1.722,16.442 .863,32.736 2.4,47.52v.48c-.017,12.143 .708,25.028-3.84,32.64-14.89-11.03-1.018-43.093-7.68-61.92v-.479c-.113-1.967-.235-3.925-.96-5.28-1.526-5.834-2.148-12.571-2.88-19.2-1.399-3.08 1.355-10.314-2.88-10.56-6.235,5.765-6.323,20.235-5.28,31.68v1.44c.304,1.615-.619,4.458 .48,5.279v.96c.15,3.53 .218,7.143 .96,10.08v1.44c.304,1.616-.619,4.458 .48,5.28v1.92c-.232,8.407 .741,18.021-2.4,23.52h-.48c-2.216-.295-2.762,1.078-4.8,.96-.265-.854-.247-1.993-.96-2.399v-.96c-1.984-14.68 .05-31.808-.96-46.561v-.479c-.304-1.616 .619-4.459-.48-5.28-.146-6.094-1.586-10.894-1.92-16.8-.438-4.686-3.765-13.692 .96-16.32-.521,2.935 .908,6.435 3.36,4.8 .979-.141 .941-1.299 1.92-1.439 .042-3.723-3.386-3.974-3.36-7.68-1.461-3.344-3.704-8.451-7.68-7.68h-4.8c.801-1.279 4.426,.266 5.28-.96 4.82,.3 5.68,4.56 7.68,7.68-.077,1.52-.017,2.9 .96,3.36z"/>
<path fill="#bab8cd" d="m98.88,148.32c1.58,.021 2.39,.811 4.32,.48-.135-.775 .454-.827 .48-1.44h1.92v.48h-.48c-1.541-.421-.995,1.244-1.92,1.439-4.118-.708-5.407,.046-8.64,.96-2.567-.313-6.39,.631-8.16-.479 3.767-.394 9.409,1.089 11.04-1.44h1.44z"/>
<path fill="#838ca8" d="m155.04,151.68c-2.619,.69-9.442,1.449-10.079-1.44 2.66,1.18 6.3,1.38 10.08,1.44z"/>
<path fill="#7c849e" d="m178.56,163.2c-.679-4.238-4.272-12.675 .479-14.399 3.255-1.182 5.077,1.143 6.721,4.319 3.792,7.332 7.507,20.286 6.239,33.12-.525,5.325-3.854,7.943-4.8,12-.572,2.453 .183,5.281 0,7.68-.857,11.312-5.92,21.417-5.279,32.16-2.936,2.346-5.278,5.282-11.04,4.801-1.272-20.957-.473-43.553 4.319-60v-.48c2.651-4.709 2.424-12.296 3.36-18.72v-.48zm.48-2.88c.712,8.921-1.305,18.265-3.359,24-5.85,16.323-2.644,37.969-3.84,57.6 4.181-.459 6.918-2.361 9.12-4.8-1.511-11.456 4.464-20.928 5.279-31.68 .222-2.925-.67-6.444 0-9.6 .612-2.884 3.913-5.381 4.8-8.641 2.039-7.49-.875-15.464-2.88-23.04-1.553-5.868-1.963-13.998-8.64-14.399-2.93,3.18-.74,7.26-.48,10.56z"/>
<path fill="#838ca8" d="m178.56,163.68c-.937,6.424-.709,14.011-3.36,18.72 1.82-5.54 1.42-13.3 3.36-18.72z"/>
<path fill="#6b7695" d="m121.44,150.24c5.913,2.129 14.563-.606 22.08,0 2.104,2.938 5.25,2.233 9.12,2.88-.346,4.9-4.533,9.108-8.641,8.641-3.848-.439-3.427-4.153-6.239-6.24 3.818,15.693 3.021,32.291 2.399,50.88v.48c-1.094,.665-.179,3.341-.479,4.8v.96h-.48c-3.823,12.883 5.757,37.932-5.279,43.2h-3.84c-7.086-30.356-3.935-71.318 0-102.72-6.124-.044-5.534,6.626-10.56,7.681-3.313-1.168-2.469-6.491-6.24-7.2-1.105,12.232 5.65,20.535 6.24,33.12 .792,16.88-6.146,33.931-4.32,50.88 .608,5.646 4.676,11.108 2.88,17.28-.567,.552-1.697,.543-2.88,.479h-.96c-.665-1.095-3.341-.179-4.8-.479v-.48c2.387-.147 4.404,.076 6.24,.48 3.337,.603 1.528-3.071 1.44-4.801-.141-2.761-.551-5.861-1.44-7.199-.585-1.495-1.118-3.043-.96-5.28v-9.601c-.029-7.229 1.693-12.706 1.92-19.68 2.241-13.994 2.212-30.58-3.36-42.24-.297-1.303 .609-3.809-.48-4.319-.29-2.552-1.099-6.735 0-9.12 .293-.027 .568-.072 .48-.48 3.092-.612 4.202,11.244 9.12,5.76 .74-1.02 1.732-1.787 2.4-2.88 .773-1.116 4.891-2.469 2.4-3.84v.48c-3.8,.279-6.637-.403-9.12-1.44h3.36zm18.24,41.28c1.546-12.129-3.437-26.934-1.92-37.44 2.996,8.684 11.87,8.92 14.399-.479h-3.84c-1.184,.063-2.313,.072-2.88-.48-3.378-1.286-13.595-4.221-14.88,.96-.924,8.196-1.834,16.406-2.4,24.96-1.774,19.186 1.779,39.081-.48,57.601 1.028,6.812 .083,15.596 4.8,18.72h.96c4.495-2.547 6.167-10.47 4.8-17.28-.343-6.976-.867-14.35 0-22.08 .815-2.384 1.003-5.397 .96-8.64v-.96c1.095-.665 .18-3.341 .48-4.8v-10.08z"/>
<path fill="#7c849e" d="m201.12,149.28c15.781,2.087 8.494,25.314 6.24,36.96-2.886,4.976-12.43,7.36-12-1.92 .107-2.319 1.834-3.421 2.88-6.24 1.92-5.171 4.739-15.467 4.32-20.64-.29-3.55-3.13-4.6-1.44-8.16zm-2.4,39.36c3.379,.179 4.92-1.479 7.2-2.4 .955-10.775 9.116-29.545-2.881-34.08 1.56,14.62-7.48,23.42-4.32,36.48z"/>
</g>
<g fill="#697591">
<path d="m148.32,153.6h3.84c-2.529,9.399-11.403,9.163-14.399,.479-1.517,10.507 3.466,25.312 1.92,37.44-.189-12.978-3.441-27.854-2.88-38.4 3.627,1.173 3.944,5.655 6.72,7.681 4.282-.518 6.611-2.989 7.68-6.721-.84-.28-2.82,.58-2.88-.48z"/>
<path d="m130.56,154.08c1.285-5.181 11.502-2.246 14.88-.96-4.62-.27-12.62-3.44-14.88,.96z"/>
<path d="m139.2,207.36c.043,3.242-.145,6.256-.96,8.64 .12-3.08 .22-6.18 .96-8.64z"/>
<path d="m138.24,238.08c1.367,6.811-.305,14.733-4.8,17.28 3.57-3.79 5.11-9.61 4.8-17.28z"/>
</g>
<g>
<path fill="#6b7695" d="m36.96,154.08h.48v2.88c-1.381,.859-3.813,.667-5.28,1.44 .606,3.074 1.102,6.258 .96,10.08-1.464-3.176-.129-9.151-2.4-11.521v-2.88c.979-.301 .134-2.425 1.92-1.92-.011,2.251-.421,4.9 1.92,4.8 1.65-.11 2.091-1.43 2.4-2.88z"/>
<path fill="#7c849e" d="m115.2,255.36c1.183,.063 2.313,.072 2.88-.479 1.796-6.172-2.272-11.634-2.88-17.28-1.826-16.949 5.111-34 4.32-50.88-.59-12.585-7.346-20.888-6.24-33.12 3.771,.709 2.927,6.032 6.24,7.2 5.026-1.055 4.436-7.725 10.56-7.681-3.935,31.402-7.086,72.364 0,102.72h1.44v.479c-.681-.041-1.359-.079-1.44,.48h-2.88c-.232-1.853-5.371-1.108-5.76,0-2.808,.407-3.278-1.521-6.24-.96v-.48zm6.72-72.48c6.38-1.743 4.608-13.106 5.28-20.641 .244-2.733 1.778-5.137 .48-6.72-12.44,4.79-8.97,15.63-5.76,27.36z"/>
<path fill="#d8cbce" d="m242.4,160.8c1.777-1.903 1.229-6.132 2.4-8.641h.479c.011,1.131-.826,1.413-.479,2.88v.48c-.92,1.64-.21,4.91-2.4,5.28z"/>
<path fill="#838ca8" d="m32.64,170.4c-1.548-1.652-.913-5.487-2.4-7.2v-6.72c2.116-15.597-8.288-34.49 2.88-43.2 1.515-.235 1.695,.865 3.36,.48h1.44c2.298-.058 4.344,.136 5.76,.96-2.539,.928-6.105-1.246-10.08-.48-.892,.868-1.096,2.424-1.44,3.84v.48c.48,2.08 .978,4.142 1.92,5.76v.48c2.218,7.861 8.714,11.446 15.36,14.88-3.443,7.757 .349,22.749-6.24,27.359-1.857-5.022-2.375-11.385-3.36-17.279-5.679-1.52-1.855,6.465-5.76,6.72-1.183-1.217 .12-4.92-2.4-4.8-1.05,.07-1.031,1.209-.96,2.399v2.88c.85,4.27 1.28,8.96 1.92,13.44z"/>
<path fill="#aeb0cd" d="m228.48,204.96c.612-2.428 1.294-4.786 2.88-6.239-.15,2.249-1.667,3.133-1.92,5.279-.374,.106-.558,.402-.48,.96h-.48z"/>
<path fill="#bab8cd" d="m202.08,239.04c.97-1.11 1.596-2.564 3.36-2.88-.951,.969-1.912,1.929-2.88,2.88h-.48z"/>
<path fill="#949ab1" d="m58.08,232.8c.956,.484 2.05,.829 2.4,1.92-1.49-.75-3.148-1.332-3.84-2.88 .685,.12 .81,.79 1.44,.96z"/>
</g>
<g fill="#ebd4db">
<path d="m124.8,14.4c1.059,4.222 2.615,7.945 3.36,12.48 .528,7.979 9.265,3.928 9.6-1.44v5.28c-.396,4.075 4.045,3.315 5.76,5.28 .082,.718-.172,1.771 .479,1.92v.48c3.199,2.784 2.907,13.805-3.84,12.48-3.475-5.485-7.735-10.185-13.439-13.44 1.495-8.555-5.677-10.121-5.76-15.36-.032-2.049 3.115-8.162 2.4-11.04 .37,1.229 .48,2.721 1.44,3.36z"/>
<path d="m121.44,56.16c1.72,.041 2.773,.747 4.32,.96 2.509,1.011 4.813,2.227 6.24,4.32 3.063-.297 3.177-3.542 6.24-3.84 1.334,3.146 2.792,6.168 4.32,9.12-2.34,6.032-12.924,.706-17.28,1.44-.314-2.714 2.157-2.643 2.4-4.8-1.886,.194-2.05,2.11-3.84,2.4-4.887-3.913-14.92-2.68-21.12-5.28-1.24-9.524 15.13-9.367 18.72-4.32z"/>
</g>
<g>
<path fill="#aeb0cd" d="m25.44,120.48v9.12c-.293-.027-.568-.072-.48-.48v-6.24c.263-.7-.561-2.48 .48-2.4z"/>
<path fill="#64728b" d="m46.56,127.2c-.634,.006-.439,.841-.96,.96-2.489,1.425 .797,5.645-.96,7.68h-.48c-3.117-3.603-6.596-6.844-9.12-11.04-.06-1.7-.789-2.731-1.44-3.84-.374-.106-.558-.402-.48-.96 .072-2.488 .201-4.918 2.88-4.8 1.313,.767 3.172,.988 5.28,.96h.48c3.804,.997 5.673,3.928 4.8,9.6v1.44z"/>
<path fill="#cac3cf" d="m24.96,122.88v6.24h-.48v-6.24h.48z"/>
<path fill="#bab8cd" d="m49.44,133.92c5.776,.336 9.162-1.718 14.4-1.92v.48c-2.997,.363-5.548,1.172-8.64,1.44-1.754,.326-3.491,.669-5.76,.48v-.48z"/>
<path fill="#cac3cf" d="m246.72,134.88v7.68c-.027,.292-.072,.568-.48,.48v-9.6h.48v1.44z"/>
<path fill="#d8cbce" d="m245.76,147.36c.297-1.303-.609-3.81 .479-4.32v4.8h-.479v-.48z"/>
<path fill="#949ab1" d="m29.28,148.32c-1.609-5.911-2.887-12.153-3.84-18.72v-9.12c1.753-3.046 4.048-5.552 6.24-8.16 1.922-.999 4.289-.337 4.8,1.44-1.665,.385-1.845-.715-3.36-.48-11.168,8.71-.764,27.603-2.88,43.2h-.48v-.48c-.312-2.41 .629-6.07-.48-7.68z"/>
<path fill="#cac3cf" d="m245.76,147.84c.148,1.748-.076,3.123-.48,4.319h-.479c.54-1.379 .097-3.742 .96-4.8v.48z"/>
</g>
<g fill="#aeb0cd">
<path d="m29.76,156c-.374-.105-.558-.401-.48-.96v-6.72c1.109,1.61 .168,5.27 .48,7.68z"/>
<path d="m30.24,163.2c-1.106-1.294-.17-4.63-.48-6.72h.48v6.72z"/>
</g>
<g fill="#cac3cf">
<path d="m31.68,170.88c-.715-1.686-.612-4.189-1.44-5.761v-1.92c1.488,1.713 .853,5.548 2.4,7.2 .075,.564-.083,1.362 .48,1.44v1.439c-.843-.44-.878-1.68-1.44-2.4z"/>
<path d="m240,166.56c-1.304,4.136-2.381,8.499-2.88,13.439-1.303-.343 .344,2.264-.96,1.92 .066-3.453 1.353-5.688 1.44-9.119 .4-2.48 .6-5.16 2.4-6.24z"/>
</g>
<g fill="#949ab1">
<path d="m35.04,184.32c-.005-1.275 .181-2.741-.48-3.36 1.946-.186 .529,2.992 .96,4.32-.374-.11-.558-.4-.48-.96z"/>
<path d="m36.48,192c.743,.698 1.008,1.873 .96,3.36-1.825,.38-.61-2.27-.96-3.36z"/>
<path d="m37.44,196.8c1.927,2.072 2.342,5.658 2.88,9.119-1.084-2.92-2.126-5.88-2.88-9.12z"/>
</g>
<g fill="#bab8cd">
<path d="m228.96,204.96c-.514,1.246-.305,3.216-1.439,3.841-.033-1.634-.149-3.35 .96-3.841h.48z"/>
<path d="m70.56,241.44c1.755,.005 2.571,.948 3.36,1.92-1.475-.125-2.159-1.041-3.36-1.44v-.48z"/>
<path d="m78.72,245.76c1.798,.122 3.086,.753 3.84,1.92-1.548-.37-2.836-1-3.84-1.92z"/>
</g>
<g>
<path fill="#6b7695" d="m90.72,251.04c4.082-.354 10.434,.553 2.88,.48-.844-.28-2.82,.58-2.88-.48z"/>
<path fill="#949ab1" d="m159.36,253.44c2.914-1.566 6.957-2.003 11.521-1.92-.081,.56-.759,.521-1.44,.479-4.04-.2-6.51,1.17-10.08,1.44z"/>
</g>
<g fill="#bab8cd">
<path d="m159.36,253.44c3.573-.268 6.037-1.643 10.08-1.44-.567,.873-2.503,.378-3.36,.96-1.618,.143-3.278,.241-4.319,.96h-2.4c-.27,0-.54-.39 0-.48z"/>
<path d="m97.44,252c1.915-.475 1.445,1.435 3.36,.96v.48c-1.708,.11-2.876-.32-3.36-1.44z"/>
</g>
<g>
<path fill="#ebd4db" d="m161.76,253.92c1.041-.719 2.701-.817 4.319-.96v.48c-1.58,.02-2.39,.81-4.32,.48z"/>
<path fill="#64728b" d="m109.44,254.4c-1.977,.377-2.463-.736-4.32-.48-1.303-.297-3.81,.609-4.32-.479v-.48c-1.915,.475-1.445-1.435-3.36-.96-1.147-.292-3.482,.603-3.84-.479 7.554,.072 1.202-.835-2.88-.48-2.698-1.142-5.656-2.023-8.16-3.359-.753-1.167-2.042-1.798-3.84-1.92-1.292-1.108-3.202-1.599-4.8-2.4-.789-.972-1.605-1.915-3.36-1.92-2.588-1.252-4.479-3.201-7.2-4.32-.941-.818-1.736-1.783-2.88-2.399-.35-1.091-1.444-1.436-2.4-1.92-1.938-2.383-4.534-4.106-6.72-6.24-3.251-7.309-8.181-12.939-11.04-20.641-.538-3.461-.953-7.047-2.88-9.119v-1.44c.048-1.487-.217-2.662-.96-3.36-1.303,.344 .343-2.263-.96-1.92v-4.8c-.431-1.328 .986-4.506-.96-4.32-.226-2.814-.938-5.142-1.44-7.68v-4.799c.142-3.822-.354-7.006-.96-10.08 1.467-.773 3.899-.581 5.28-1.44v-2.88c-.021-.82 .357-1.243 .96-1.439 .947,.333-.118,2.678 .96,2.88 2.127,4.272-.129,12.929 5.28,13.92 1.748-3.052 3.125-6.476 3.84-10.56h.48c1.23-2.541-.255-5.144 0-8.16v-1.92c4.885,4.395 1.436,17.124 4.8,23.04v.479c1.069,4.344 5.013-.336 5.76-1.439 2.333-3.445 2.918-10.206 3.84-13.921 .543-1.536 .976-3.184 .96-5.279 1.417-2.584 2.02-5.98 3.36-8.64-.756-.25-2.571-1.848-3.36-.48h-.48c-3.118,.082-3.836,2.564-7.2,2.4-1.196-1.792-.058-4.659 0-6.72-2.047-.615-2.874,.535-4.32-.48 .006-.634 .841-.438 .96-.96 1.987,.067 3.708-.132 4.8-.96 .539-.102 .747-.533 .96-.96 1.468,.348 1.412-.828 2.88-.48h4.8c4.61,.51 5.154,5.086 7.68,7.68-.026,3.706 3.402,3.958 3.36,7.68-.979,.141-.941,1.299-1.92,1.439-3.48,.601-2.837-2.923-2.88-5.76-5.679,1.433-3.285,13.487-1.44,17.28 .333,5.906 1.774,10.706 1.92,16.8 .304,1.616-.618,4.458 .48,5.28v.479c-.064,15.195-1.721,32.917 .96,46.561v.96c-.347,1.467 .491,1.749 .48,2.88 2.332,.091 3.902-.578 5.28-1.44h.48c3.353-.541 3.226-17.571 2.4-23.52v-1.92c-.304-1.616 .618-4.459-.48-5.28v-1.44c.052-3.731-.109-7.25-.96-10.08v-.96c-.304-1.615 .618-4.458-.48-5.279v-1.44c.281-12.198-1.059-26.019 6.24-31.2 2.233,1.767-.276,8.276 1.92,10.08 .732,6.629 1.354,13.366 2.88,19.2-.028,2.108 .193,3.967 .96,5.28v.479c3.456,13.655-.972,32.064 0,46.561 .427,6.368 1.566,14.102 8.16,15.84 4.259-7.582 4.444-21.795 3.36-33.12v-.48c-.79-15.851-3.247-30.033-2.4-47.52v-.48c1.075-3.564 1.607-7.672 2.4-11.52 1.277-5.863 5.473-12.557 12-7.68 .373,.107 .947,.013 .96,.479 2.483,1.037 5.32,1.72 9.12,1.44-.064,1.855-1.947,1.893-2.4,3.359-.667,1.093-1.66,1.86-2.4,2.88-.854,.427-1.22,1.341-2.88,.961-3.467-1.174-1.985-7.295-6.24-7.681-.026,.614-.615,.665-.48,1.44-1.099,2.385-.29,6.568 0,9.12-.591,10.38 5.101,16.177 5.28,24.96 .131,6.433-2.866,15.483-1.44,21.6-.227,6.974-1.949,12.451-1.92,19.68-.799,2.092-.799,7.509 0,9.601-.158,2.237 .375,3.785 .96,5.28 .337,3.982 1.307,7.333 1.44,11.52-.565,.075-1.363-.082-1.44,.48-1.84-.4-3.85-.63-6.24-.48zm-48.48-40.8c1.026-10.23-1.245-21.093-1.44-31.681h-2.88c.844,11.16-.072,24.07 4.32,31.68z"/>
<path fill="#949ab1" d="m105.12,253.92c1.856-.256 2.343,.857 4.32,.48v.48h-2.88c-.01-.79-1.33-.27-1.44-.96z"/>
<path fill="#aeb0cd" d="m109.44,254.88c1.459,.301 4.135-.615 4.8,.479-1.773-.307-4.781,.622-5.76-.479h.96z"/>
<path fill="#f2edf0" d="m108.48,254.88c.979,1.102 3.986,.173 5.76,.479h.96v.48c-3.086-.114-6.856,.455-8.64-.96h1.92z"/>
<path fill="#949ab1" d="m142.56,255.84c.821-1.099 3.664-.177 5.28-.48-.82,1.1-3.66,.18-5.28,.48z"/>
<path fill="#aeb0cd" d="m127.2,256.8h-5.76c.39-1.11 5.53-1.85 5.76,0z"/>
<path fill="#cac3cf" d="m131.52,256.32h7.679v.48h-9.12c.08-.56 .76-.52 1.44-.48z"/>
<path fill="#d8cbce" d="m127.2,256.8h4.32v.479h-9.12v-.479h4.8z"/>
</g>
</g>
</svg>
