<?xml version="1.0" encoding="UTF-8" standalone="no"?>
<!-- Created with Serif DrawPlus 11, 0, 0, 18 (Jul  5, 11:10:22) (http://www.serif.com) -->
<svg version="1.1" xmlns="http://www.w3.org/2000/svg" xmlns:xlink="http://www.w3.org/1999/xlink" width="1024" height="768">
	<g id="Layer_1">
		<path id="dp_path001" fill="#f9f9f9" fill-rule="evenodd" fill-opacity="0" d="M 0,109.321 L 1024,109.321 L 1024,658.679 L 0,658.679 Z "/>
		<g id="dp_group002">
			<path id="dp_path003" fill="#3783c8" fill-rule="evenodd" d="M 927.405,423.179 C 919.773,422.687 913.108,424.577 906.937,428.973 C 903.968,431.087 898.98,435.792 898.98,436.483 C 898.98,436.731 899.655,436.395 900.479,435.733 C 908.027,429.68 915.559,426.72 921.871,427.329 C 926.121,427.74 930.999,429.157 936.961,431.712 C 943.725,434.608 945.724,435.164 946.951,434.508 C 949.416,433.189 946.663,429.177 941.604,426.709 C 937.563,424.74 932.613,423.513 927.405,423.179 Z "/>
			<path id="dp_path004" fill="#3783c8" fill-rule="evenodd" d="M 893.509,284.804 C 889.101,285.163 887.2,286.341 880.667,292.819 C 873.615,299.811 870.371,303.731 865.46,311.168 C 852.833,330.289 845.765,349.059 841.964,373.625 C 840.817,381.043 840.704,383.083 840.523,398.764 C 840.367,412.356 840.475,417.273 841.071,422.937 C 842.441,435.973 844.907,449.475 847.888,460.328 C 848.688,463.235 849.415,465.393 849.503,465.128 C 849.592,464.863 849.048,460.501 848.292,455.441 C 845.875,439.265 845.332,432.339 845.352,417.215 C 845.375,399.673 846.285,389.044 848.768,377.085 C 851.957,361.724 857.809,347.079 865.92,334.188 C 871.101,325.955 878.345,318.323 888.089,310.795 C 898.72,302.581 902.681,297.561 902.807,292.2 C 902.853,287.869 898.477,284.445 893.511,284.805 Z M 984.651,368.739 C 980.659,368.248 977.793,372.063 978.784,377.287 C 979.035,378.609 980.393,382.627 981.811,386.224 C 983.228,389.82 984.499,393.705 984.636,394.857 C 985.176,399.392 982.895,405.516 979,409.949 C 976.481,412.817 976.899,413.063 980.052,410.569 C 986.004,405.864 989.535,397.964 991.483,385.013 C 992.009,381.516 992.059,379.801 991.684,377.46 C 990.852,372.248 989.835,370.655 986.423,369.229 C 985.815,368.975 985.22,368.809 984.651,368.739 Z M 874.551,406.864 C 873.801,406.897 873.033,407.119 872.244,407.527 C 870.595,408.38 869.952,409.524 869.952,411.563 C 869.952,413.831 871.549,415.715 877.664,420.673 C 884.416,426.149 885.699,428.239 885.793,433.891 C 885.827,435.883 885.697,438.08 885.505,438.777 C 885.037,440.477 885.428,440.379 886.428,438.547 C 887.596,436.405 887.579,427.109 886.399,423.209 C 885.14,419.048 883.392,415.257 881.152,411.823 C 878.905,408.375 876.796,406.763 874.551,406.864 Z "/>
			<path id="dp_path005" fill="#3783c8" fill-rule="evenodd" d="M 260.679,289.511 C 253.487,289.344 247.461,291.631 245.328,295.752 C 244.577,297.201 244.299,298.555 244.291,300.768 C 244.265,307.148 247.597,311.063 259.007,318.036 C 267.512,323.235 276.063,329.527 280.052,333.532 C 286.972,340.477 295.531,355.861 299.988,369.352 C 305.221,385.196 307.633,396.541 310.293,417.668 C 311.567,427.788 311.569,427.895 311.548,455.953 C 311.523,486.775 311.308,490.471 308.117,513.841 C 303.421,548.223 294.599,581.505 285.184,600.325 C 281.536,607.62 274.377,615.868 268.867,619.123 C 265.801,620.932 264.453,621.151 258.301,620.88 C 253.727,620.68 247.853,617.404 246.367,614.221 C 245.876,613.172 244.899,609.015 244.189,604.983 C 243.177,599.216 242.673,597.381 241.84,596.391 C 240.103,594.385 235.907,594.301 238.655,598.337 C 242.788,605.895 242.872,606.533 240.428,611.757 C 238.613,615.633 236.705,617.716 233.509,619.281 C 229.375,621.287 224.044,621.16 219.325,619.468 C 212.488,615.747 209.967,606.957 213.647,599.605 C 215.651,595.551 219.705,590.895 223.145,588.693 C 224.889,587.579 227.428,586.652 231.909,585.493 C 242.237,582.823 244.78,580.952 245.257,575.692 C 245.56,572.285 244.109,569.369 239.073,570.864 C 235.211,572.175 233.285,573.667 218.432,586.892 C 210.228,594.197 207.84,595.088 201.841,593.119 C 194.603,590.743 190.861,582.781 191.579,571.268 C 192.249,560.484 195.54,550.136 203.6,533.444 C 215.844,508.089 228.791,491.98 246.872,479.621 C 254.376,474.492 257.051,471.951 257.797,469.257 C 260.605,458.167 251.735,459.919 243.312,468.695 C 228.159,484.361 209.928,511.669 195.803,539.859 C 191.997,547.452 188.639,553.756 188.336,553.856 C 187.297,554.197 187.096,550.537 187.096,531.6 C 187.093,506.607 188.221,494.328 192.156,476.941 C 195.865,460.541 197.871,454.436 202.965,443.961 C 206.949,435.772 209.703,431.611 214.439,426.577 C 219.323,421.389 222.252,419.219 230.281,414.873 C 240.54,409.323 242.579,407.647 243.571,403.961 C 245.191,397.945 241.048,394.665 231.78,394.621 C 227.715,394.603 226.853,394.757 224.529,395.847 C 216.089,399.801 209.007,407.021 203.989,416.791 C 199.753,425.035 197.125,433.516 192.14,454.903 C 190.501,461.932 188.828,468.328 188.421,469.115 C 187.795,470.325 187.449,470.519 186.201,470.397 C 184.972,470.279 184.567,469.911 183.708,468.177 C 182.727,466.199 182.661,465.407 182.411,451.111 C 181.985,426.923 181.189,421.361 177.336,415.768 C 172.7,409.036 163.517,410.487 159.607,418.564 C 158.223,421.424 158.26,429.997 159.679,434.376 C 160.236,436.093 164.796,445.623 169.812,455.551 C 174.828,465.479 179.457,475.144 180.089,477.028 C 181.672,481.859 182.356,485.656 180.811,490.073 C 178.896,494.028 175.404,494.511 169.971,491.559 C 167.027,489.959 166.233,488.896 155.903,472.704 C 152.204,466.907 146.119,460.453 140.091,455.912 C 132.529,450.216 127.72,448.273 118.872,447.379 C 104.84,445.957 94.1013,449.445 94.0947,455.421 C 94.092,457.176 95.3747,459.783 96.5453,460.408 C 98.0867,461.233 101.784,460.949 108.393,459.487 C 112.98,458.471 116.443,458.024 121.54,457.8 C 131.689,457.325 138.311,461.82 146.26,469.403 C 157.989,481.553 164.859,496.749 168.544,518.685 C 170.281,529.025 170.548,541.653 169.221,550.267 C 168.217,556.791 167.613,554.784 163.96,532.999 C 160.18,510.456 158.417,502.697 154.764,492.509 C 148.963,476.328 140.701,468.753 133.287,472.82 C 130.549,474.321 129.487,476.375 129.784,479.58 C 130.109,483.076 131.739,485.683 138.563,493.633 C 145.155,501.315 148.313,505.455 151.233,510.253 C 158.833,522.745 162.04,535.823 162.072,554.433 C 162.091,565.317 160.891,572.503 157.676,580.927 C 151.207,597.879 138.784,612.249 123.615,620.307 C 97.664,634.091 42.112,648.609 4.03867,651.556 L -0.008,651.849 L -0.008,658.652 L 1023.99,658.652 L 1023.99,651.733 L 1005.2,651.719 C 977.007,651.695 951.263,650.987 946.269,650.104 C 935.825,648.257 924.815,645.113 917.989,642.017 C 909.931,638.364 899.816,629.831 895.099,622.717 C 890.063,615.121 885.476,600.697 883.797,587.172 C 882.005,572.727 885.156,559.667 892.417,551.512 C 896.256,547.2 898.939,545.027 906.601,540.037 C 909.899,537.889 913.168,535.461 913.865,534.632 C 915.613,532.553 915.577,530.347 913.78,528.549 C 911.091,525.861 906.992,527.036 901.844,531.98 C 897.168,536.471 892.248,543.695 885.628,555.792 C 881.175,563.933 878.565,568.247 878.089,568.247 C 877.417,568.247 878.108,564.805 879.835,559.641 C 886.119,540.832 900.304,525.131 914.371,521.385 C 919.712,519.963 923.411,520.707 931.84,524.932 C 937.768,527.903 939.153,528.191 940.244,526.632 C 944.015,521.251 931.005,514.597 919.617,516.081 C 912.287,517.036 907.921,519.22 898.299,526.763 C 891.603,532.011 889.511,533.163 886.652,533.177 C 883.219,533.195 881.673,530.573 883.064,527.08 C 884.241,524.119 886.563,521.315 895.589,511.96 C 905.111,502.093 907.493,499.324 908.448,497.041 C 909.311,494.976 909.343,491.204 908.505,489.2 C 907.772,487.445 905.219,485.683 903.417,485.683 C 898.479,485.683 895.111,490.571 890.243,504.781 C 888.687,509.321 887.107,513.629 886.725,514.367 C 885.817,516.123 884.404,517.509 883.525,517.509 C 882.076,517.509 881.872,515.352 882.647,508.112 C 883.056,504.273 883.428,496.776 883.468,491.449 L 883.54,481.763 L 882.027,477.453 C 879.417,469.98 875.648,465.627 870.725,464.436 C 864.855,463.017 861.003,466.112 863.244,470.448 C 863.621,471.177 866.115,474.341 868.793,477.467 C 875.969,485.839 877.728,490.04 878.783,501.367 C 879.716,511.387 878.197,527.507 875.208,539.304 C 872.941,548.251 866.717,565.48 865.753,565.48 C 865.308,565.48 865.16,564.757 863.72,555.708 C 860.945,538.261 856.616,522.153 851.051,508.559 C 848.444,502.189 845.837,499.052 843.728,499.723 C 841.833,500.324 841.192,504.381 842.56,507.044 C 842.977,507.856 844.764,510.561 846.539,513.069 C 852.832,521.961 857.189,532.224 859.281,543.108 C 860.749,550.749 861.164,555.623 861.169,565.091 C 861.173,572.343 861.025,574.149 860.261,576.621 C 858.093,583.633 853.02,587.891 847.965,586.941 C 845.605,586.499 843.439,584.011 839.303,576.981 C 835.112,569.861 834.357,568.805 832.657,567.685 C 830.087,565.989 827.944,567.292 827.973,570.539 C 827.991,572.556 828.907,573.631 833.783,577.343 C 838.08,580.615 840.153,583.188 841.119,586.437 C 843.845,595.619 836.936,602.395 828.924,598.401 C 825.563,596.727 823.807,594.229 823.807,591.152 L 823.807,588.831 L 822.539,590.027 C 819.643,592.744 812.479,596.377 807.303,597.753 C 806.216,598.043 802.168,598.276 798.308,598.272 C 790.171,598.261 788.335,597.849 782.064,594.625 C 778.708,592.9 777.063,591.647 773.501,588.096 C 763.748,578.368 757.067,566.773 753.553,553.487 C 752.215,548.428 752.152,547.668 751.968,537.04 C 751.741,523.996 751.951,522.568 755.052,516.255 C 758.616,509 762.667,503.737 773.228,492.616 C 779.771,485.727 781.265,483.757 782.497,480.451 C 784.161,475.98 782.284,472.243 777.683,470.865 C 771.748,469.087 765.035,474.991 759.001,487.297 C 754.201,497.088 751.335,506.395 746.129,529.04 C 742.912,543.041 741.112,550.087 740.623,550.576 C 739.973,551.225 739.673,550.055 739.384,545.747 C 739.037,540.597 739.541,528.451 740.32,523.173 C 741.291,516.612 744.236,505.84 747.037,498.597 C 751.637,486.707 755.845,479.801 763.931,470.864 C 767.949,466.424 770.939,463.972 775.376,461.467 C 785.279,455.875 791.141,455.471 804.968,459.463 C 809.123,460.661 812.587,461.385 814.28,461.408 C 816.757,461.443 817.08,461.333 818.301,459.967 C 820.025,458.037 820.383,456.515 819.584,454.417 C 818.221,450.837 812.679,448.191 804.824,447.355 C 796.797,446.5 788.376,447.613 781.776,450.396 C 771.539,454.713 762.267,463.364 752.284,477.899 C 746.499,486.324 741.643,490.367 737.323,490.367 C 733.596,490.367 730.92,488.092 730.375,484.457 C 729.621,479.435 733.367,470.945 744.645,452.097 C 752.532,438.919 755.445,433.367 756.984,428.66 C 759.521,420.901 757.096,412.843 751.261,409.705 C 749.331,408.668 744.328,408.669 742.353,409.705 C 737.912,412.036 734.647,419.429 733.445,429.9 C 733.171,432.296 732.621,439.443 732.22,445.784 C 731.308,460.204 730.48,464.601 728.343,466.527 C 727.423,467.356 727.237,467.368 726.123,466.743 C 724.521,465.844 724.233,464.737 721.655,449.849 C 718.727,432.947 717.507,427.417 715.197,420.416 C 710.641,407.041 697.629,384.369 677.359,390.016 C 674.972,391.268 673.711,393.423 673.771,396.156 C 673.873,400.913 676.108,403.363 684.941,408.409 C 700.756,417.444 708.348,427.551 715.109,448.552 C 717.637,456.4 719.584,465.612 721.509,478.764 C 722.496,485.493 722.563,487.352 722.563,510.36 C 722.563,531.089 722.439,535.892 721.727,541.941 C 720.827,549.577 720.528,550.724 719.693,549.711 C 718.713,548.523 715.932,542.573 714.245,538.036 C 712.256,532.685 703.611,514.732 698.491,505.315 C 690.917,491.389 680.268,474.992 672.4,465.157 C 663.525,454.064 661.208,452.449 656.545,455.845 C 650.564,460.201 661.836,469.397 666.535,473.517 C 681.301,485.448 688.231,493.895 697.539,511.311 C 705.591,526.376 711.828,542.661 714.764,556.269 C 715.92,561.625 715.928,571.908 714.779,576.06 C 712.44,584.508 707.963,588.579 700.609,588.932 C 695.168,589.193 694.519,588.724 682.188,575.844 C 679.025,572.54 674.701,568.407 672.573,566.648 C 670.445,564.889 668.901,563.384 669.143,563.304 C 669.384,563.223 673.257,564.296 677.763,565.696 C 687.591,568.752 689.057,568.86 691.24,566.676 C 694.528,563.389 692.633,559.136 686.7,556.472 C 682.127,554.417 675.288,553.641 667.485,554.295 C 660.44,554.885 657.74,555.667 651.919,558.763 C 644.343,562.793 639.504,567.312 629.821,579.361 C 621.937,589.173 619.259,591.515 614.931,592.449 C 611.148,593.267 607.777,591.076 607.233,587.448 C 606.411,581.96 611.909,570.708 623.104,554.973 C 629.656,545.764 634.516,536.543 635.227,531.983 C 636.169,525.92 635.1,521.659 631.853,518.605 C 626.3,513.385 619.384,515.272 615.853,522.973 C 613.284,528.576 612.096,533.72 611.155,543.34 C 609.259,562.703 609.025,564.191 607.176,567.903 C 606.069,570.121 605.371,570.472 603.773,569.617 C 602.433,568.9 601.668,565.515 599.868,552.104 C 597.608,535.272 596.225,527.632 594.52,522.54 C 590.384,510.189 582.917,500.087 574.931,496.032 C 571.425,494.253 571.249,494.209 566.469,494.216 C 561.139,494.227 559.504,494.759 557.72,497.027 C 554.232,501.461 557.431,507.395 566.095,512.565 C 577.225,519.207 582.871,525.265 588.12,536.191 C 594.893,550.291 597.644,565.169 596.495,581.523 C 595.903,589.928 595.032,594.216 592.531,601.097 C 589.564,609.261 586.968,613.716 582.397,618.453 C 577.095,623.948 573.291,625.759 566.196,626.193 C 562.591,626.415 561.5,626.291 557.893,625.228 C 550.54,623.06 538.381,616.347 530.607,610.164 C 526.363,606.789 520.985,600.852 519.076,597.436 C 518.145,595.773 516.604,592.4 515.645,589.927 L 513.901,585.429 L 514.291,575.109 C 514.651,565.561 514.784,564.46 516.049,560.407 C 519.225,550.228 523.279,542.524 528.575,536.593 C 529.735,535.295 534.595,530.145 539.372,525.148 C 550.013,514.015 551.073,512.084 548.915,507.851 C 547.125,504.344 543.1,502.932 539.472,504.536 C 534.668,506.661 530.229,511.772 525.952,520.103 C 521.604,528.571 519.193,535.537 513.137,557.176 C 504.948,586.439 503.207,590.387 498.536,590.387 C 492.919,590.387 489.756,585.853 483.891,569.399 C 478.905,555.416 475.104,546.563 468.64,533.883 C 457.719,512.457 446.824,494.779 440.705,488.579 C 437.403,485.253 432.651,480.401 429.924,487.815 C 429.079,492.367 429.727,493.272 442.911,505.645 C 455.183,517.161 461.743,526.62 469.707,544.261 C 475.795,557.747 478.811,566.759 481.368,579.144 C 482.924,586.677 483.12,595.431 481.844,600.031 C 480.056,606.472 476.956,610.604 472.403,612.613 C 469.688,613.812 465.28,613.945 463.336,612.888 C 460.925,611.576 456.751,607.519 451.097,600.981 C 443.107,591.74 438.979,588.543 435.055,588.543 C 432.784,588.543 431.712,589.677 431.408,592.376 C 431.092,595.18 432.488,598.233 434.911,599.987 C 435.941,600.733 439.335,602.207 442.449,603.273 C 449.007,605.519 451.761,607.357 454.932,611.576 C 461.511,620.327 462.017,628.668 456.273,633.847 C 452.835,636.945 448.197,638.04 443.027,636.973 C 438.327,636.005 435.241,633.793 433.325,630.012 C 431.037,625.28 437.881,611.724 433.383,612.643 C 432.467,613.453 431.861,615.043 430.587,619.908 C 427.836,630.403 425.995,633.039 421.535,632.881 C 415.592,632.671 400.951,626.772 389.607,620.009 C 381.025,614.892 369.605,605.443 362.969,597.971 C 356.771,590.991 345.188,574.667 341.693,567.988 C 338.2,561.311 334.519,549.015 333.549,540.803 C 330.101,511.591 336.795,476.637 351.308,448.035 C 357.521,435.788 361.613,429.724 370.017,420.301 C 377.751,411.632 382.801,407.817 395.503,401.015 C 398.781,399.259 402.016,397.255 402.695,396.575 C 404.404,394.865 405.295,391.579 404.54,389.757 C 403.847,388.083 402.787,387.711 400,388.128 C 394.899,388.893 382.819,396.933 373.767,405.584 C 368.073,411.025 364.184,415.649 356.527,426.111 C 349.411,435.832 344.829,440.527 340.296,442.759 C 334.661,445.532 329.208,445.096 326.155,441.62 C 323.62,438.732 323.212,434.743 324.728,427.883 C 326.713,418.903 329.657,413.337 343.251,392.885 C 366.065,358.557 367.837,354.949 367.841,342.695 C 367.536,330.328 344.88,320.068 339.388,330.573 S 335.301,337.541 333.045,346.068 C 330.96,353.952 330.245,359.607 328.664,380.993 C 328.279,386.205 327.656,392.241 327.28,394.399 C 325.06,407.125 320.552,412.493 316.959,406.68 C 315.601,404.483 315.239,402.463 313.456,386.903 C 310.852,364.165 308.391,348.929 305.529,337.851 C 304.327,333.197 300.372,323.368 297.557,318.017 C 293.621,310.532 291.091,307.132 284.643,300.707 C 277.987,294.073 274.876,292.145 268.167,290.501 C 265.615,289.876 263.083,289.548 260.687,289.492 Z M 623.729,438.267 C 622.885,438.28 622.028,438.469 621.208,438.859 C 616.096,441.391 618.74,450.817 621.28,455.621 C 624.136,461.448 625.209,467.883 622.188,474.173 C 621.405,475.641 619.737,478.011 618.469,479.433 C 615.899,482.317 616.056,482.708 618.944,480.616 C 621.837,478.52 624.372,475.751 625.82,473.077 C 630.799,463.885 632.933,448.487 630.057,442.548 C 628.728,439.8 626.264,438.227 623.729,438.267 Z M 497.552,498.88 C 494.516,498.912 493.132,499.808 490.807,503.291 C 488.6,506.593 487.304,509.955 486.092,515.456 C 484.376,523.392 484.769,530.075 486.769,537.568 C 487.467,539.076 488.569,541.008 489.22,541.863 C 489.872,542.717 490.489,543.333 490.589,543.232 C 490.691,543.132 490.223,541.719 489.552,540.089 C 487.423,534.835 487.347,530.043 489.393,524.681 C 490.568,522.22 492.128,520.243 496.572,515.644 C 498.867,513.264 510.588,500.652 497.552,498.88 Z M 665.967,562.519 C 663.187,564.907 661.684,565.996 662.103,569.784 C 662.729,574.507 665.272,576.5 674.471,579.513 C 682.176,582.037 685.023,583.811 688.121,588.017 C 693.065,594.729 694.635,600.231 693.224,605.833 C 690.476,615.9 677.688,616.496 671.3,613.501 C 668.572,611.937 666.945,610.136 665.247,606.828 C 661.837,600.095 668.141,594.579 667.249,588.968 C 666.961,587.152 663.921,589.448 662.637,592.413 C 661.419,595.231 660.855,597.725 659.596,606.092 C 657.825,617.863 655.543,623.567 650.861,627.901 C 648.048,630.505 643.572,632.953 640.224,633.724 C 637.1,634.444 632.371,634.339 630.768,633.508 C 627.54,631.835 624.609,627.549 623.864,623.404 C 623.683,622.397 623.548,618.661 623.561,615.101 C 623.588,607.668 624.524,603.121 627.669,595.108 C 631.64,584.993 635.939,578.927 644.779,570.964 C 649.845,566.4 657.876,563.069 662.783,562.733 L 665.968,562.517 Z M 827.724,581.315 C 827.539,581.263 827.279,581.305 826.917,581.445 C 826.204,581.719 825.187,583.905 825.187,585.179 C 825.187,586.147 825.457,585.949 826.989,583.867 C 828.04,582.437 828.279,581.472 827.724,581.315 Z "/>
			<path id="dp_path006" fill="#3783c8" fill-rule="evenodd" d="M 90.896,213.736 C 85.448,213.579 81.2133,214.219 78.0813,215.639 C 74.1507,217.423 73.34,218.507 73.34,222.053 C 73.34,224.727 73.488,225.232 74.7093,226.623 C 75.4627,227.481 77.3733,228.771 78.9467,229.476 C 82.6067,231.12 90.84,232.589 96.172,232.561 C 129.577,232.387 163.679,241.919 188.793,258.435 C 201.337,266.683 210.943,274.595 219.827,284.02 C 232.111,297.053 239.444,307.14 250.745,326.5 C 252.977,330.321 254.889,333.369 254.984,333.275 C 255.079,333.179 254.095,330.988 252.807,328.416 C 239.525,301.885 221.788,279.156 199.028,259.488 C 178.327,241.597 154.951,228.892 128.556,221.189 C 112.4,216.475 99.9733,214 90.892,213.737 Z "/>
			<path id="dp_path007" fill="#3783c8" fill-rule="evenodd" d="M 394.676,165.855 C 387.088,165.557 377.807,168.283 372.233,170.221 C 355.675,176.613 349.595,180.441 338.921,191.18 C 325.759,204.423 319.611,216.181 316.104,234.783 C 314.961,240.837 314.949,262.221 316.089,269.276 C 317.024,275.059 318.952,283.756 320.183,287.741 C 320.684,289.361 321.152,290.611 321.221,290.523 C 321.289,290.435 320.955,286.213 320.472,281.139 C 318.675,262.257 320.121,248.229 325.2,235.417 C 332.096,218.017 343.197,206.579 361.437,198.056 C 367.74,195.109 369.553,194.489 379.613,191.872 C 383.872,190.756 408.143,186.268 406.769,173.825 C 405.459,168.153 400.579,166.085 394.676,165.855 Z M 748.507,195.317 C 748.059,195.256 747.629,195.26 747.239,195.347 C 745.487,195.731 743.561,197.887 743.245,199.829 C 742.679,203.32 744.792,210.52 748.608,218.149 C 755.829,232.588 761.289,249.888 762.964,263.612 C 763.672,269.408 763.217,289.291 762.229,295.9 C 759.479,314.287 751.404,333.739 737.855,354.58 C 736.168,357.173 734.789,359.456 734.799,359.653 C 734.865,361.045 743.44,348.692 748.477,339.949 C 763.303,314.221 770.005,289.591 769.997,260.844 C 769.995,250.499 769.592,245.581 767.951,236.167 C 766.065,225.351 761.572,210.121 758.624,204.585 C 755.977,199.611 751.643,195.747 748.505,195.316 Z M 660.133,222.517 C 656.483,222.945 654.737,224.056 651.715,227.864 C 649.632,230.489 645.773,237.139 644.753,239.857 C 644.324,240.999 643.128,244.005 642.087,246.531 C 639.428,252.972 635.735,265.437 634.707,271.453 C 631.852,288.14 631.761,307.815 634.461,324.499 C 635.68,332.032 638.983,345.031 642.735,357.045 C 646.52,369.167 656.199,389.344 664.789,403.013 C 666.097,405.095 667.237,406.733 667.312,406.66 C 667.385,406.587 665.957,403.321 664.155,399.409 C 658.715,387.611 657.463,384.627 653.92,375.121 C 646.592,355.453 643.263,340.759 642.028,322.683 C 640.913,306.357 642.475,288.728 646.049,277.451 C 649.411,266.849 653.411,259.093 660.248,249.861 C 665.953,242.117 677.677,221.792 660.132,222.517 Z "/>
		</g>
	</g>
</svg>