<svg xmlns="http://www.w3.org/2000/svg" viewBox="0 0 265.67 287.93">
<g transform="translate(-432.691 -429.122)">
<path d="m466.54,715.63c-3.11-3.23-7.72-4.76-11.33-7.49-8.32-5.18-13.08-14.19-17.43-22.66-6.07-13.13-6.18-26.39-3.09-40.24 4.35-17.42 15.43-30.72 28.93-41.93 15.52-11.71 34.18-16.19 52.89-19.75 19.09-2.71 37.88-6.75 56.06-13.18 15.93-5.75 29.11-15.52 38.96-29.21 5.67-9.35 7.19-18.87 1.39-28.31-8.59-10.94-21.86-13.62-35-14.64-14.63,.2-28.1,4.56-37.74,15.78-2.18,3.26-3.65,6.13-4.6,9.92-.24,.97-.82,1.21-1.38,.37-4.13-6.21-5.54-10.37-.69-16.94 12.23-11.01 28.65-13.61 44.71-13.63 15.23,.88 31.06,2.99 41.69,15.1 7.03,12.66 5.15,24.63-4,35.9-11.67,12.96-25.9,22.56-42.47,28.31-18.52,5.73-37.51,8.93-56.66,11.93-18.47,3.51-36.91,7.91-52.24,19.45-13.33,11.04-24.07,23.81-27.83,41.17-1.52,12.9-.58,25.59 6.4,36.93 4.26,7.08 9.29,13.37 16.2,18.02 3.57,.78 4.92,.51 7.23-2.38 7.72-9.64 8.57,26.38 0,17.48z"/>
<path d="m462.12,683.75c-3.83,.35-6.66-1.94-9.5-4.28-6.48-7.34-8.09-16.73-7.97-26.2 1.58-14.71 11-25.88 20.18-36.78 .65-.78 1.74,.15 1.09,.92-8.74,10.37-15.46,21.51-15,35.61 .8,7.47 2.89,13.91 8.81,18.92 1.73,2.02 3.94,3.79 4.86,6.31 1.48,4.01 1.78,5.12-2.47,5.5z"/>
<path d="m534.53,534.02c1.44-1.36 3.63-1.08 5.59-1.41 6.39-1.3 11.48-5.57 16.06-9.98 6.84-6.2 12.25-13.78 17.77-21.13 5.9-8.19 11.63-16.54 18.29-24.14 6.14-6.96 13.97-11.64 22.64-14.7 8.72-2.87 17.05-2.03 25.2,1.9 8.53,5.14 12,13.69 14.64,22.83 2.48,9.72 2.19,19.63 .84,29.47-2,10.12-7.23,18.56-14.25,25.91-7.91,7.61-17.6,11.7-27.92,14.81-13.08,2.93-26.39,4.68-39.75,5.5-14.74,.88-29.49,1.04-44.24,1.76-13.79,.85-27.57,2.45-41.19,4.85-10.02,1.58-19.55,4.81-28.31,9.9-7.35,4.63-13.22,10.82-16.97,18.64-3.85,8.47-2.82,17.26-.7,26.01 2.49,10.24 8.63,18.6 15.42,26.42 .66,.76-.42,1.7-1.08,.93-6.95-8.02-12.68-16.93-17.67-26.29-3.82-9.76-4.68-19.49-.29-29.31 4.69-8.43 10.32-15.9 18.94-20.67 9.46-4.93 19.66-7.23 30.23-8.49 13.8-1.76 27.61-3.19 41.49-4.16 14.68-1.07 29.39-1.64 44.06-2.87 12.93-1.63 26.07-2.82 38.45-7.14 9.13-3.22 18.09-7.28 25.11-14.11 6.23-6.5 11.19-13.67 12.99-22.67 1.92-8.96 2.01-18.08-.24-27.01-2.2-7.45-5.49-14.56-12.18-19.02-6.6-3.37-13.56-4.15-20.78-2.13-7.83,2.82-14.82,7.02-20.71,12.99-6.74,7.3-12.75,15.15-18.18,23.48-5.26,8.07-10.53,16.18-17.17,23.21-5.55,5-11.29,9.74-18.17,12.83-3.6,1.51-7.02,2.9-10.35,.44-4.02-2.98-1.21-3.22 2.43-6.65z"/>
<path d="m649.2,486.4c-.09-1.86 .45-3.72 .86-5.52 .84-3.08 2.28-5.98 3.6-8.9 1.18-3.46 2.72-6.74 4.41-9.97 1.82-2.86 4.43-5 7.05-7.08 2.43-1.65 5.05-2.59 7.88-3.3 2.5-.49 4.57,.19 6.81,1.2 1.87,1.5 2.77,3.35 3.6,5.47 .74,2.44 1.1,5 1.57,7.51 .99,2.82 2.56,4.88 4.65,6.94 3.11,2.5 4.63,5.35 5.95,9 .67,3.29 1.86,6.26 2.43,9.58 .49,4.53 .79,8.71-1.36,12.83-4.05,5.11-10.32,6.68-15.01,11.08-.73,.69-.68,.7-1.42,.02-4.81-4.36-11.24-6.08-15.08-11.51-1.62-3.54-1.67-6.83-1.38-10.66 .22-3.96 .71-7.81 2.05-11.58 1.56-2.85 3.86-5.14 5.3-8.13 1.84-2.96 3.27-6.21 5.53-8.83 .88-1.55 1.92-3.03 2.15-4.84-.43-1.1-.68-2.35-1.59-3.15-1.14-.62-2.04-1.49-3.63-1.19-2.26,.48-4.59,.78-6.44,2.39-2.35,1.73-4.27,3.48-5.47,6.23-1.56,3.06-2.97,6.17-4.04,9.45-.82,2.78-1.73,5.54-2.08,8.42-.04,1.49-.08,2.97 .1,4.43 .56,4.53-6.23,4.66-6.44,.11z"/>
<path d="m618.15,463.41c-1.15-.56-2.25-1.19-3.38-1.85-2.23-1.12-3.39-3.1-4.7-5.11-1.37-2.64-2.96-5.15-4.24-7.85-1.72-2.7-3.55-5.29-5.58-7.76-1.94-2.18-4.23-3.85-6.61-5.47-2.3-1.63-5.02-2.29-7.7-2.96-3.33-.12-5.26,1.59-7.54,3.71-1.84,4.51-5.02,8.06-7.95,11.86-4.52,8.07-11.19,5.82-18.39,8.64-.94,.37-1.41-.15-.96-1.05 3.21-6.47 1.11-13.14 8.35-17.62 4.69-4.46 9.09-8.76 16.04-8.6 3.7-.4 7.35-.36 10.91,.86 2.96,.77 5.8,1.7 8.45,3.3 2.53,1.76 5.01,3.62 6.87,6.12 2.02,2.58 4.16,5.11 5.69,8.03 1.71,2.42 3.05,5.02 4.91,7.33 1.13,1.67 2.23,3.37 3.45,4.97 1.08,.34 2.18,.86 3.35,.8 2-.1 .82,3.54-.97,2.65z"/>
<path d="m640.45,543.04c-.32,1.55-.31,3.12-.38,4.69-.16,2.06-.12,4.08 .02,6.14 1.28,3.27 4.19,4.51 7.08,6.11 4.83,1.47 3.21,5.34 2.08,9.58-2.68,7.08-9.87,6.04-16.33,6.57-1.01,.08-.58,.16-1.34-.5-4.41-3.82-8.82-6.35-10.33-11.83 .44-3 .95-5.21 4.04-6.69 3.25-.54 6.23-.81 8.12-3.79 .46-1.92 .84-3.79 .78-5.79 .04-1.64 .12-3.29 .02-4.94-.29-4.42 7.13-3.88 6.24,.45z"/>
<path d="m491.07,608.91c-.84,2.04-.93,1.75-3.33,2.32-.76,.09-1.52,.18-2.28,.26-1.01,.11-.48,.21-1.42-.16-.73-.28-1.45-.56-2.17-.84-2.1-1.4-2.37-1.15-2.44-3.53-.24-8.35 14.82-5.77 11.64,1.95z"/>
<path d="m487.45,619.96c-.55,2.52-4.48,2.55-6.68,3.36-.95,.35-.45,.46-1.42,.18-3.64-1.09-7.23-1.46-6.63-5.82 1.43-10.44 16.96-8.02 14.73,2.28z"/>
<path d="m504.58,612.55c.05,3.37-3.87,3.83-6.51,5.01-.92,.41-.53,.42-1.43-.05-2.73-1.46-6.51-2.05-6.16-5.61 .98-9.93 13.97-9.33 14.1,.65z"/>
<path d="m499.91,626.67c-1.25,2.63-3.55,3.41-6.14,4.72-.9,.46-.53,.43-1.43-.04-2.51-1.3-4.82-2.1-6.02-4.68-4.07-8.7 17.69-8.69 13.59,0z"/>
</g>
</svg>
