<svg xmlns="http://www.w3.org/2000/svg" viewBox="0 0 274.43 476.48">
<g transform="translate(-212.79 -294.12)">
<path fill="#382509" d="m468.84,430.43c-.7327,.0372-1.5737,.3576-2.4688,1l-45.375,32.594c-2.8642,2.0558-5.1562,6.5369-5.1562,10.062v115.97c0,1.42 .366,2.461 1,3.0625v42.938c0,3.5256 2.8181,6.375 6.3438,6.375 3.5256,0 6.375-2.8494 6.375-6.375v-49.5l2.2812-1.625v73.125c0,3.5256 2.8181,6.375 6.3438,6.375 3.5256,0 6.375-2.8494 6.375-6.375v-82.25l1.2812-.9375v39.188c0,3.5256 2.5951,6.375 5.8438,6.375 3.2486,0 5.875-2.8494 5.875-6.375v-47.594l2.2812-1.625v19.219c0,3.5256 2.5951,6.375 5.8438,6.375 3.2486,0 5.875-2.8494 5.875-6.375v-149.97c0-2.4239-1.1069-3.738-2.7188-3.6562z"/>
</g>
<g fill="#fff" transform="translate(-212.79 -294.12)">
<path d="m-430.593,479.92a.7071,3.9449 0 0,1 .707,3.945v143.77a.7071,3.9449 0 0,1 -.707,3.945 .7071,3.9449 0 0,1 -.707-3.945v-143.77a.7071,3.9449 0 0,1 .707-3.945" transform="scale(-1 1)"/>
<path d="m-444.713,540.03a.7071,1.7009 0 0,1 .707,1.701v61.99a.7071,1.7009 0 0,1 -.707,1.701 .7071,1.7009 0 0,1 -.707-1.701v-61.99a.7071,1.7009 0 0,1 .707-1.701" transform="scale(-1 1)"/>
</g>
<g fill="#382509" transform="translate(-212.79 -294.12)">
<path stroke="#fff" stroke-linejoin="round" stroke-width="2.053" d="m-524,14.362c0,28.719-23.281,52-52,52s-52-23.281-52-52 23.281-52 52-52 52,23.281 52,52z" transform="matrix(1.4615 0 0 1.4615 1149.7 428.98)"/>
<path d="m271.701,497.66a7.071,7.0711 0 0,1 7.071,7.071v121.618a7.071,7.0711 0 0,1 -7.071,7.071 7.071,7.0711 0 0,1 -7.071-7.071v-121.618a7.071,7.0711 0 0,1 7.071-7.071"/>
<path d="m294.333,520.29a4.2427,7.7782 0 0,1 4.242,7.778v234.764a4.2427,7.7782 0 0,1 -4.242,7.778 4.2427,7.7782 0 0,1 -4.243-7.778v-234.764a4.2427,7.7782 0 0,1 4.243-7.778"/>
<path d="m313.194,483.44a6.364,6.364 0 0,1 6.364,6.364v115.962a6.364,6.364 0 0,1 -6.364,6.364 6.364,6.364 0 0,1 -6.364-6.364v-115.962a6.364,6.364 0 0,1 6.364-6.364"/>
<path d="m372.824,361.9a6.364,6.364 0 0,1 6.364,6.364v231.932a6.364,6.364 0 0,1 -6.364,6.364 6.364,6.364 0 0,1 -6.364-6.364v-231.932a6.364,6.364 0 0,1 6.364-6.364"/>
<path d="m255.417,477.05h1.411a3.5375,3.5375 0 0,1 3.537,3.538v106.764a3.5375,3.5375 0 0,1 -3.537,3.538h-1.411a3.5375,3.5375 0 0,1 -3.537-3.538v-106.764a3.5375,3.5375 0 0,1 3.537-3.538"/>
</g>
<g stroke-linejoin="round">
<g fill="#382509">
<g stroke="#fff" transform="translate(-212.79 -294.12)">
<path stroke-width="5.001" d="m-524,14.362c0,28.719-23.281,52-52,52s-52-23.281-52-52 23.281-52 52-52 52,23.281 52,52z" transform="matrix(.59985 0 0 .59985 722.85 505.43)"/>
<path stroke-width="9.545" d="m-524,14.362c0,28.719-23.281,52-52,52s-52-23.281-52-52 23.281-52 52-52 52,23.281 52,52z" transform="matrix(.31429 0 0 .31429 558.37 509.54)"/>
</g>
<g transform="translate(-212.79 -294.12)">
<path stroke="#382509" stroke-width="6.323" d="m281,276.36c0,27.062-21.938,49-49,49s-49-21.938-49-49 21.938-49 49-49 49,21.938 49,49z" transform="matrix(1.898 0 0 1.898 -52.112 -131.4)"/>
</g>
<g stroke="#fff" transform="translate(-212.79 -294.12)">
<path stroke-width="7.84" d="m281,276.36c0,27.062-21.938,49-49,49s-49-21.938-49-49 21.938-49 49-49 49,21.938 49,49z" transform="matrix(1.5306 0 0 1.5306 33.112 -29.883)"/>
<path stroke-width="6" d="m281,276.36c0,27.062-21.938,49-49,49s-49-21.938-49-49 21.938-49 49-49 49,21.938 49,49z" transform="translate(156.21 116.76)"/>
<path stroke-width="7.171" d="m281,276.36c0,27.062-21.938,49-49,49s-49-21.938-49-49 21.938-49 49-49 49,21.938 49,49z" transform="matrix(.41837 0 0 .41837 291.15 277.5)"/>
</g>
</g>
<g transform="translate(-212.79 -294.12)">
<path fill="#fff" stroke="#fff" stroke-width="11.345" d="m281,276.36c0,27.062-21.938,49-49,49s-49-21.938-49-49 21.938-49 49-49 49,21.938 49,49z" transform="matrix(1.0578 0 0 1.0578 44.815 220.8)"/>
</g>
<g fill="#382509">
<g transform="translate(-212.79 -294.12)">
<path stroke="#382509" stroke-width="14.068" d="m281,276.36c0,27.062-21.938,49-49,49s-49-21.938-49-49 21.938-49 49-49 49,21.938 49,49z" transform="matrix(.85303 0 0 .85303 92.312 277.38)"/>
</g>
<g stroke="#fff" transform="translate(-212.79 -294.12)">
<path stroke-width="10.766" d="m281,276.36c0,27.062-21.938,49-49,49s-49-21.938-49-49 21.938-49 49-49 49,21.938 49,49z" transform="matrix(.55731 0 0 .55731 160.92 359.1)"/>
<path stroke-width="9.42" d="m281,276.36c0,27.062-21.938,49-49,49s-49-21.938-49-49 21.938-49 49-49 49,21.938 49,49z" transform="matrix(.31846 0 0 .31846 216.33 425.11)"/>
<path stroke-width="7.429" d="m-524,14.362c0,28.719-23.281,52-52,52s-52-23.281-52-52 23.281-52 52-52 52,23.281 52,52z" transform="matrix(.40385 0 0 .40385 480.37 349.53)"/>
<path stroke-width="14.182" d="m-524,14.362c0,28.719-23.281,52-52,52s-52-23.281-52-52 23.281-52 52-52 52,23.281 52,52z" transform="matrix(.21154 0 0 .21154 347.13 307.22)"/>
<path stroke-width="16.274" d="m-524,14.362c0,28.719-23.281,52-52,52s-52-23.281-52-52 23.281-52 52-52 52,23.281 52,52z" transform="matrix(.18434 0 0 .18434 477.84 615.91)"/>
</g>
<g transform="translate(-212.79 -294.12)">
<path stroke="#382509" stroke-width="20.372" d="m-524,14.362c0,28.719-23.281,52-52,52s-52-23.281-52-52 23.281-52 52-52 52,23.281 52,52z" transform="matrix(.10955 0 0 .19794 317.73 603.7)"/>
</g>
</g>
</g>
</svg>
