<svg xmlns="http://www.w3.org/2000/svg" viewBox="0 0 64 64" xmlns:xlink="http://www.w3.org/1999/xlink">
<defs>
<filter id="filter5479">
<feGaussianBlur stdDeviation=".89094"/>
</filter>
<filter id="filter5441">
<feGaussianBlur stdDeviation=".86985"/>
</filter>
<radialGradient cx="49.636" cy="49.328" gradientTransform="matrix(-.63783 -.79374 .69082 -.55512 49.401 117.24)" id="radialGradient5469" r="25.655" gradientUnits="userSpaceOnUse">
<stop offset="0" stop-color="#2e3436"/>
<stop offset="1" stop-color="#2e3436" stop-opacity="0"/>
</radialGradient>
<radialGradient cx="108.43" cy="1031.8" gradientTransform="matrix(.01417 -.05451 .07406 .03235 -46.541 28.48)" id="radialGradient4884" r="574.1" gradientUnits="userSpaceOnUse">
<stop offset="0" stop-color="#c00"/>
<stop offset="1" stop-color="#f57900"/>
</radialGradient>
</defs>
<path fill="#f57900" filter="url(#filter5479)" d="m46.51,17.365s-.0657,.102-.1697,.2723c-3.1716,1.4676-7.4278,2.3013-14.866,2.5375-4.3161-.4496-8.616-.8731-13.206-2.312-.1403-.2337-.2352-.38-.2352-.38l.1285,.3602-.0668-.0113 1.4474,4.2046c-.0543,.114-.129,.214-.2288,.295-5.056,4.106-11.825,10.607-10.453,17.873 8.811,19.342 43.136,14.474 46.826-.117 1.371-7.267-5.399-13.766-10.456-17.872-.0917-.0745-.1616-.1653-.2147-.268l1.5387-4.3492-.135,.0241z"/>
<g stroke="#915417">
<path fill="url(#radialGradient5469)" d="m45.899,11.775s-.0713,.1301-.1841,.3471c-3.4405,1.8708-6.0575,2.9336-14.126,3.2347-4.682-.5732-9.3464-1.113-14.325-2.9472-.1522-.2979-.2552-.4845-.2552-.4845l.1394,.4591-.0725-.0145 1.5701,5.3598c-.059,.145-.14,.272-.248,.375-5.487,5.235-12.829,13.522-11.341,22.784 9.558,24.656 46.793,18.451 50.795-.15 1.488-9.262-5.856-17.548-11.342-22.782-.099-.095-.175-.211-.233-.342l-.3309-5.5442-.1464,.0307z"/>
<path fill="url(#radialGradient4884)" d="m47.717,11.593s-.0713,.1301-.1841,.3471c-3.4405,1.8708-8.0575,2.9336-16.126,3.2347-4.682-.5732-9.3464-1.113-14.325-2.9472-.1522-.2979-.2552-.4845-.2552-.4845l.1394,.4591-.0725-.0145 1.5701,5.3598c-.059,.1454-.14,.2727-.2482,.376-5.486,5.234-12.829,13.521-11.341,22.784 9.5583,24.656 46.793,18.45 50.795-.15 1.4879-9.2629-5.8559-17.548-11.342-22.782-.0995-.095-.1753-.2107-.2329-.3417l.5782-4.8169-.1464,.2126z"/>
</g>
<path fill="#2e3436" d="m48.545,12.636a18.455,3.7273 0 1,1 -36.909,0 18.455,3.7273 0 1,1 36.909,0z" transform="matrix(.83498 0 0 .81726 6.7822 1.4946)"/>
<g stroke="#915417" transform="translate(2 3)">
<path opacity=".166" fill="#eeeeec" filter="url(#filter5441)" stroke-width=".904" d="m24.545,49.091c-5.977-2.026-11.859-5.593-16.727-12.909-2.6523-3.987 6.306-12.473 10-16.182l8.182,5.455-8.7273,2.7273 10.364,4.5455-10.545,4 13.818,3.8182s-6.7273,4.5455-5.8182,4.3636c.9091-.1818 8,5.2727 8,5.2727z" transform="matrix(1 0 0 1.2239 -.18182 -8.4142)"/>
<path opacity=".039" fill="none" d="m8.7273,23.455s14.651,5.2241 22.364,5.0909c7.0854-.1224 19.455-6.1818 19.455-6.1818"/>
</g>
</svg>
