<svg xmlns="http://www.w3.org/2000/svg" viewBox="0 0 200 100" xmlns:xlink="http://www.w3.org/1999/xlink">
<defs>
<filter width="1.229" x="-.114" y="-.24" height="1.481" id="filter3409">
<feGaussianBlur stdDeviation="13.51957"/>
</filter>
<linearGradient gradientTransform="matrix(.60594 0 0 .65796 64.317 224.88)" id="linearGradient4488" y1="769.11" y2="666.58" x1="257.19" gradientUnits="userSpaceOnUse" x2="279.78">
<stop offset="0" stop-color="#a40"/>
<stop offset="1" stop-color="#ff8840"/>
</linearGradient>
</defs>
<g stroke="#000">
<g transform="translate(-7.7922 -9.8701)">
<path fill="#008000" stroke-width="1.448" d="m172.16,103.02c-26.72,10.97-28.36-6.574-32.39-4.777-12.49,5.567-46.513,3.227-34.71-7.804-44.423,22.191-44.398-2.027-39.185-8.337 1.073-1.299-37.11,2.898-38.247-8.743 .878-4.668-28.139-8.686 1.818-14.185-17.34-3.041 4.857-22.323 25.442-14.085 15.812-8.153 49.152-5.442 41.131,3.699 13.181-27.302 39.051-13.208 39.341-6.529 4.37-7.807 84.49,.44 39.31,23.546 41.71,5.145 33.28,23.347 5.6,24.644-10.63,.498 3.51,7.426-8.11,12.571z"/>
<g filter="url(#filter3409)" stroke-width="2.526" transform="matrix(.49888 .13729 -.13729 .49888 51.895 -336.04)">
<path d="m432.33,676.04c-7.84,0-14.22,6.92-14.22,15.44 0,.19 .01,.38 .02,.57h-103.2v33.15h98.75c2.56,7.91 10.88,13.73 20.75,13.73 11.92,0 21.59-8.46 21.59-18.87 0-7.99-5.69-14.81-13.73-17.56 2.63-2.8 4.26-6.71 4.26-11.02 0-8.52-6.37-15.44-14.22-15.44z"/>
<path d="m354.94,721.78c10.53,17.08-63.94,44.59-108.98,44.59-45.05,0-81.61-24.08-81.61-53.74 0-22.2 20.47-41.26 49.65-49.46 9.81-2.75 20.62-4.28 31.96-4.28 36.93,0 90.6,19.33 112.72,34.93 3.66,2.59-3.74,22.61-3.74,27.96z"/>
</g>
</g>
<g stroke-width="2.526" transform="matrix(.49888 .13729 -.13729 .49888 45.6578 -354.4701)">
<path fill="#e9c6af" d="m432.33,676.04c-7.84,0-14.22,6.92-14.22,15.44 0,.19 .01,.38 .02,.57h-103.2v33.15h98.75c2.56,7.91 10.88,13.73 20.75,13.73 11.92,0 21.59-8.46 21.59-18.87 0-7.99-5.69-14.81-13.73-17.56 2.63-2.8 4.26-6.71 4.26-11.02 0-8.52-6.37-15.44-14.22-15.44z"/>
<path fill="url(#linearGradient4488)" d="m354.94,721.78c10.53,17.08-63.94,44.59-108.98,44.59-45.05,0-81.61-24.08-81.61-53.74 0-22.2 20.47-41.26 49.65-49.46 9.81-2.75 20.62-4.28 31.96-4.28 36.93,0 90.6,19.33 112.72,34.93 3.66,2.59-3.74,22.61-3.74,27.96z"/>
</g>
</g>
</svg>
