<svg xmlns="http://www.w3.org/2000/svg" viewBox="0 0 298.393 254.325" xmlns:xlink="http://www.w3.org/1999/xlink" enable-background="new 0 0 298.393 254.325">
<switch>
<g>
<g>
<path fill="#fff" d="m184.39,2.765c-3.72,3.49-5.07-2.728 0,0z"/>
<path fill="#fff" d="m168.39,48.765c.325,1.107 3.734,20.108-1,22 1.39-10.193-.35-10.694 1-22z"/>
<path fill="#fff" d="m171.39,73.765c-6.77-.084-12.913,5.731-15,7-3.759-1.504 5.976-5.724 8-8 3.47-.803 3.85,1.489 7,1z"/>
<path fill="#fff" d="m150.39,80.765c2.006-.34 3.128,.205 3,2h-3v-2z"/>
<path d="m170.39,91.765c.366,1.701-.781,1.887-2,2 .183-.851-.391-.944-1-1 .16-1.172 1.82-.844 3-1z"/>
<path fill="#fff" d="m211.39,99.765c2.917-1.47 2.917,4.47 0,3v-2.995z"/>
<path fill="#fff" d="m159.39,105.76c1.016,.65 1.033,2.299 3,2-.161,1.172-1.823,.843-3,1v-3z"/>
<path fill="#fff" d="m124.39,146.76c2.006-.341 3.128,.204 3,2h-3v-2z"/>
<path fill="#fff" d="m32.392,150.76c3.488,8.927 .375,10.623 1,24-3.953-5.04 .328-12.29-1-24z"/>
<path d="m162.39,158.76c-2.19,3.06-6.4-1.15 0,0z"/>
<path fill="#fff" d="m22.392,160.76c1.939-.396 1.46,4.555-1,3v-2c.85,.19 .943-.38 1-1z"/>
<path d="m150.39,161.76c1.063-2.271 6.286-.382 9-1-1.06,2.27-6.29,.39-9,1z"/>
<path fill="#fff" d="m22.392,171.76c-3.06-1.53 1.786-13.06 0,0z"/>
<path fill="#fff" d="m10.392,166.76c1.916-2.175 .631,7.312 1,10-3.435-2.92-.7-3.93-1-10z"/>
<path d="m122.39,166.76c1.342,.657 1.861,2.138 2,4-1.76-.24-2.28-1.72-2-4z"/>
<path d="m70.392,167.76c-2.197,3.06-6.406-1.15 0,0z"/>
<path d="m71.392,168.76c-.169-2.169 3.547-.453 5-1 .168,2.17-3.548,.46-5,1z"/>
<path d="m89.392,168.76c.124-2.209 4.241-.425 6-1-.125,2.21-4.243,.43-6,1z"/>
<path d="m95.392,169.76c-2.197,3.06-6.406-1.15 0,0z"/>
<path d="m100.39,169.76c-2.195,3.06-6.404-1.15 0,0z"/>
<path d="m158.39,169.76c3.661,2.151-2.899,2.317-5,2 1.13-3.41 3.88,.32 5-2z"/>
<path fill="#fff" d="m43.392,173.76c.381-1.903 1.271,.639 1,2-.382,1.91-1.273-.64-1-2z"/>
<path d="m146.39,174.76c-2.392-.608-7.256,1.255-8-1 2.39,.61 7.26-1.25 8,1z"/>
<path d="m52.392,174.76c1.085,.247 .678,1.987 2,2-.311,1.356-2.504,.829-4,1 .649-1.01 2.298-1.03 2-3z"/>
<path fill="#fff" d="m109.39,175.76c-7.16,2.99-11.478-1.11 0,0z"/>
<path fill="#fff" d="m106.39,177.76c-2.19,3.06-6.404-1.15 0,0z"/>
<path fill="#fff" d="m161.39,179.76c-2.19,3.06-6.4-1.15 0,0z"/>
<path fill="#fff" d="m47.392,185.76c-3.281-2.42 2.78-4.78 0,0z"/>
<path fill="#fff" d="m177.39,186.76c-2.2,3.06-6.41-1.15 0,0z"/>
<path fill="#fff" d="m213.39,199.76c-2.42,3.28-4.78-2.78 0,0z"/>
<path fill="#fff" d="m69.392,205.76c-.169-2.169 3.547-.453 5-1 .168,2.17-3.548,.46-5,1z"/>
<path d="m273.39,241.76c.381-1.903 1.271,.639 1,2-.38,1.91-1.27-.64-1-2z"/>
<path fill="#fff" d="m251.39,246.76c2.511-4.022 6.672,3.862 1,3-2.21-1.44 1.26-2.44-1-3z"/>
<path d="m188.39,67.765c7.447,8.517 15.244,18.703 31,16 2.227,4.608 1.464,5.909 1,11-1.314,1.02-3.688,.98-5,2v9c-2.486,1.848-5.646,3.023-7,6 2.521,5.942-.634,10.768 0,18 .541,6.177 3.609,16.187 10,19 5.325,2.346 12.909,3.397 19,5 23.772,6.254 45.374,12.161 54,36 6.752,18.659 5.529,36.284 7,59-17.719,5.151-32.873,7.894-48,3-1.865-20.196-.104-42.079-17-49-26.387-1.181-45.442,9.389-71,7-6.975-.651-13.539-3.526-22-5-7.299-1.271-12.953-2.353-20,0-5.027,1.677-8.202,6.552-15,7-17.428,1.149-42.969-5.699-61-4-2.636,.302-3.282-1.386-3-4-2.349,.317-2.239,3.094-4,4-2.135,.467-1.905-1.429-2-3-2.183-.183-3.183,.817-3,3-2.056-.279-1.996-2.671-3-4-3.161-.494-.372,4.962-4,4-.777-.89-1.076-2.259-1-4-1.726,2.729-5.933,4.663-6-1-2.652-.319 .935,5.603-3,4-3.36,1.026-1.558-3.111-2-5-2.211,.789-2.502,3.497-4,5-2.187-.147-2.147-2.521-2-5-2.211-.429-2.502,6.008-4,3-5.044-.909-2.955-7.742-3-13-.133-15.345-.249-39.233 1-46 1.692-1 2.612,2.007 3,2 1.059-.021 2.26-2.986 2-3 3.408,.187 3.033,4.804 7,0v3c3.384,.384 1.572-4.429 6-3-.53,.805-1.044,1.622-1,3 4.256-4.521 6.018,.243 10-4 .521,3.008 6.856,3.397 8,0 2.306-.306 1.109,2.889 3,3 1.849-.149 .613-3.388 2-4 1.229,.437 2.053,1.278 2,3 5.006-5.079 24.076-3.306 39-4 10.622-.494 19.755-1.319 29-2 3.382,.95 5.255,3.411 8,5 24.167,4.167 23.101-16.899 24-36-7.602-3.193-1.24-15.191-8-18 .335-5.856-.049-6.214 2-10 15.369,2.703 17.763-7.57 28-10 .822-12.954 .28-16.743 1-30-10.356-15.845-35.013-2.509-52-3-13.562-6.546-13.442-32.904 11-30 9.14,1.086 17.913,6.443 28,5 13.728-1.965 20.005-16.177 32-12 8.567,5.758 9.295,11.603 20,13 14.255,1.861 27.525-10.4 39-7 9.341,2.769 15.708,19.235 7,29-18.678,8.137-45.346-11.769-60,5 .389,8.139-2.104,15.648 0,24-1.07,.937-.31,3.694-3,3.005zm14-49c-3.021-1.181-5.958-2.436-9-1-2.324-3.009-4.447-6.221-7-9-4.956,.08-8.665,2.272-14,3-.156,1.177 .172,2.838-1,3-4.602,1.068-2.72,2.688-5,5 .498-.505-1.707-1.206-1,1 3.867-.868 4.325,1.673 6,3-4.616-.856 1.931,3.977 2,4 .326,.111 .442,2.01 3-1-.076,1.742 .223,3.11 1,4 3.703-.516 2.515-1.704 2,2 2.728,.729 2.012-1.987 4-2-.693,1.763-1.105,3.097 0,4 .979-1.615 2.668-2.301 4-1 .427-7.074 4.924-4.731 5-10 4.36-1.514 8.385-1.284 12-2-6.547-.724 5.075-.892 1-2-4.205,.423-5.38,3.072-9,0 3.54-.88 5.15,2.568 6-1zm-18-16c-5.07-2.728-3.72,3.49 0,0zm51,22c4.239,3.154 6.833-1.577 9,0 1.548-6.167 .543-3.155 0-10-9.542-5.386-20.725,3.338-35,4 .116,1.022-4.314,2.022-1,3 1.067-1.957 1.268,1.418 3,2 3.272,1.099 13.438-2.031 13,1 3.845-1.282 5.786,1.331 8-2 1.318,2.503-3.953,3.13-1,4 2.025,.375 1.372-2.675 4-4 .904,2.741 3.681-1.952 4,2-.86-.741-6.44-.741-4,0zm-79-5c-3.089-1.004 2.872-.946 2-3-17.656,4.992-25.63-6.768-44-2-1.403,1.263-.058,5.276-4,4 1.814,4.137 1.963,5.156 5,9 5.376-3.507 2.038,1.864 6-2 .224,.776 .026,1.973 1,2 .236-3.222 2.781-1.539 4,0 3.411-6.006 13.496,1.223 16-6 .137,4.153 .656,.202 2,0 2.49,2.924 8.57-1.823 12-2zm22,52c2.242,2.987 6.589-1.919 7,2-4.024,.642-10.636-1.3-13,1 3.136,2.172 9.873-1.673 14,3-3.354-1.557-6.567,4.431-13,3-5.439,6.024-10.175-1.096-15,5 16.041-4.411 31.852,3.469 46,0-2.288-4.046-7.865-4.803-10-9-.804,3.468 1.488,3.843 1,7-4.352,.034-6.429-2.962-8-8 3.766-1.755 4.553,1.275 6,0-2.119-2.547-7.832-1.501-9-5 1.674-10.205-2.586-20.362 0-30-1.759,.575-5.875-1.208-6,1 2.21,.789 2.502,3.498 4,5-4.118,6.85-1.805,14.664-3,23 .002-.555-.812-1.136-1,0 1.21,.211 .62,1.11 0,2zm-11-1c4.734-1.892 1.325-20.893 1-22-1.35,11.306 .39,11.807-1,22zm21-14c-2.897,1.119 1.533,1.078 1-1-.891-.558-4.378-3.009-2-1 0,1.003 .81,1.189 1,2zm-24,16c-2.024,2.276-11.759,6.496-8,8 2.087-1.269 8.23-7.084 15-7-3.15,.489-3.53-1.803-7-1zm-14,10h3c.128-1.795-.994-2.34-3-2v2zm-6,8h-2c.317-1.225-.161-6.176-1-3-.225,.776-.027,1.973-1,2 1.145-2.052-1.57-4.767-2-2 1.705,.41-.21,1.29 0,3 2.87-1.398 5.08,2.725 6,0zm26-4h-11c.534,3.868-1.786,4.882-1,9 13.612,.625 15.48,.267 26,1-.17-1.496 .355-3.69-1-4-.156,1.177 .172,2.838-1,3-.14-4.153-.659-.202-2,0 .073-1.742-.225-3.111-1-4-3.45,1.091-11.99,2.289-9-5zm27,2v8c6.044-.289 11.882-.784 15-4-5.91-3.52-4.63-7.808-15-4zm-55,12.995c.58-2.036-.683-7.88-1-3-.792,2.269 1.11,6.693 2,4-.61-.05-1.18-.14-1-1zm31,7c-1.429-.39-1.688-1.2-3,0-1.469,.01-8.184-.378-5,1 14.26-.382 21.845,2.654 38-2-3.508-.272 1.806-4.428-1-4-2.655,2.188 2.652-1.895 0-3-8.017,2.325-16.883-2.936-22-1-1.794,.678-1.832,3.72-3,4 .26-.062-.252-3.791-1-3-1.302,1.373 1.726,5.994-2,4 1.281-.163 1.281-6.104 0-3-.32,2.35-1.58,3.76-1,7zm38-6c2.917,1.47 2.917-4.47 0-3v3zm-52,6c1.177-.157 2.839,.172 3-1-1.967,.299-1.984-1.35-3-2v3zm-15,15c1.646,2.603-1.492,6.015 1,9-3.135,.067-1.27,2.286-1,4-1.377-.044-2.196,.471-3,1 .137,1.862 .656,3.342 2,4-.122-5.3 7.251-12.8 2-14 4.385-.408 1.683-6.361 2-8 .113-.587 2.056,.283 2-1-.022-.488-5.582-2.428-1-4-.776-.224-1.974-.027-2-1 1.556,.08 .692-2.908 0-1-2.71,1.94 1.78,14.02-2,11zm59-5c-4.104,.458 .405-2.137-1-5-3.458,.792-4.224-1.112-6-2-.225,.776-.027,1.973-1,2-6.794,.023-14.989-1.023-22,1 4.183-.377 1.091,3.635 0,4 1.177,.157 2.839-.172 3,1-7.124-.203 3.784,1.638-1,5 1.57,.095 3.466-.134 3,2-1.687-1.702-4.494,.581-6,2 2.502-.125 3.131-1.909 4,1-4.394-1.247-5.705,.995 0,2-6.727-.127-11.559,.002-4,2-1.453,.547-5.169-1.169-5,1 2.994,3.146-1.315,2.414-1,4-.02-.091 4.911,.444 1,2 2.759,.347 7.021-2.871 9,0v2c-6.962,.462-3.243-3.634-8,1 2.39,.608 7.255-1.255 8,1-9.606,.049-5.299,.446 0,2-3.04,.627-8.614-1.28-10,1 3.366,.633 9.288-1.288 11,1-6.144-.476-11.481-.147-14,3-.104-1.122 1.453-1.558 0-2-.24,1.875-1.647-.567-2,1 4.394,1.666-7.396,.334-3,2 1.453,.547 5.168-1.169 5,1h-10c-6.105,1.663 5.214-.084 5,2-1.468,.01-8.185-.378-5,1 1.177,.155 2.838-.173 3,1-1.871-.054-2.118,.771-1,2-4.014,.206-4.474-.255-2-2h-5c.053,1.721-.771,2.563-2,3-.982-1.353-2.668-1.999-4-3-.444,3.926-4.573-2.089-7,2 .145-2.812-2.449-2.884-5-3-1.903,4.394-9.926,1.506-17-1-.31,4.804-2.719,17.226 1,25 .238-1.086 1.646-2.401 2-1-.557-.003-1.137,.81 0,1 1.386-.613 .149-3.851 2-4 2.039,2.009 1.96-.442 4-1 .09,3.735 1.121,2.851 0,6 4.802-.175 6.564,1.885 9,0-2.262-1.388 4.675-.847 0-3 2.606-.324 5.429-5.779 11-2-.557-.003-1.137,.81 0,1 2.36-2.579 6.503-5.449 8-1 6.47-4.704 3.171-.205 2,0 5.272-.101 3.408,.452 1,2 5.455-.185 12.127,1.245 11-3-.24,4.202 3.714-1.416 6-1 .533,1.44-3.897,2.44-1,3 1.148-3.38 7.78-1.304 2-4 4.646,.089 13.405-.55 13,1-.439,1.668-9.799-2.28-5,1h11c-1.581,3.913 2.597,2.069 3,4-1.402-.075-3.824,.224-2,1 1.495,.171 3.688-.356 4,1-9.05,.302 4.39,1.039-3,3 3.395-.271 8.105,.774 10-1-1.331-4.521-.938-4.287 0-6-1.453-.548-5.169,1.168-5-1 5.123-.185 10.057,1.896 8,1-1.165-.169-1.086-1.582-1-3 2.034,2.006 2.664,.26 4-1 1.472,3.7 2.137,1.726-1,4 4.378,.319 7.46,.055 7-2 4.664,2.548 4.438-.827 5,4 1.386-.613 .148-3.851 2-4 .127,4.729 1.251-2.205 5,0-4.242,7.255 2.049-.513 4,1 .222,.172-.225,2.967 0,3 2.302,.349 3.462,.239 5-2 1.917,4.329-4.888,5.006-3,6 3.438-1.093 8.147-.937 3-3 4.095,.43 6.405-.929 9-2 .209,1.991-4.24,4.271-2,5 1.989-1.009 2.281-3.718 4-5 .094,3.905 4.041,3.959 6,6 1.273-2.503-.511-3.132 1-4 3.271,4.756 7.4,7.385 8,10 5.812-2.94 1.511,11.231 5,9-1.054-.056-.788-1.282 1-1-.479,3.264-1.027,10.038 0,9 .484-1.183 1.064-2.267 2-3 .439,2.224-3.089,5.423-1,6 .293-.935 2.706-.935 3,0-3.057,2.729 1.106,.196-3,5 .302,1.024 3.473,2.909 3,5-.819,3.62-1.971-.494 0,3 2.01,3.563-.717,3.452-1,5-.031,.168 2.339-.021 2,1-.231,.692-2.081-.366-2,1-.008-.111 1.855,.51 2,1 .609,2.104 1.681,7.38-1,11 .516-.698-.985-2.095-1-2-.333,2.056-.073,6.118 1,6 .155-1.179-.174-2.841 1-3-1.739,6.903 3.539,4.155 1,8 8.352,1.019 11.951-2.714 19-3 3.093-4.903-3.69-5.517 1-10-.777-.224-1.975-.026-2-1 .775-.224 1.973-.026 2-1-4.183,.409 3.081-3.669-2-5 .775-.224 1.973-.026 2-1-4.142,1.071 .114-1.306 0-2-.031-.183-1.807-.263-2-1-.776-2.933 1.635-4.113 1-6-.299,2.381-2.003-1.815-3-2 2.503-2.021-4.411-6.337 2-9-4.799,.38-.852-1.733-4-3 3.902,.015 .433-1.267 0-2-.144-.24-2.041-5.654-2-6 .049-.416 2.461,.163 2-1-.251-.63-2.243,.323-2-1 .343-1.878-2.123-1.97-4-5 .339,.548 1.968-4.468-1-2 .764,2.334-2.375-5.815-1-8-5.219,.526-1.827-4.392-5-2 3.673-5.767-6.027-5.233-1-5-.156,1.177 .172,2.839-1,3-1.622-3.046-5.021-4.312-6-8-4.628,1.963-1.391-.944-3-2-.294,.889-2.707,4.378-3,2 1.085-.24 2.4-1.646 1-2-1.647,1.495-3.786-1.921-5-4-1.396,1.231-4.107,1.014-4-1-.486,1.78-1.067-.435-2-1-.098,1.571 .133,3.467-2,3 1.021-4.351 1.135-1.82-3-2 .492-4.118-3.448,.962-1-3-3.087,1.997-7.684,2.362-7-1-5.812,2.38-6.017-1.923-10,1-.156-1.179 .172-2.839-1-3-.115,4.204-5.354-1.328-9,0 .155-3.282-4.084-4.8-6-3 .071-2.996-2.942-5.074-5-3 .229-3.897-2.148-5.185-3-8 4.571-3.53 1.01-9.591-1-11 2.802-.073-.484-4.111-1-8 3.533-.112-.104-1.833 3-3-1.44-2.212-2.44,1.259-3-1 1.12-.21 1.56-1.1 2-2zm50,65c2.258-.534-1.214,3.896 1,1 3.31,.12-1.12-4.31-1-1zm8,9c.056-.611 .147-1.185 1-1 .394,1.721-1.485,2.563 0,3 .011-1.321 1.752-.915 2-2-1.11-1.97-5.19-1.97-3,0zm-131-46c2.599-.384 6.521-.579 5-3-.64,2.03-4.67,.66-5,3zm-12,2c-.716-2.716 4.715,.716 4-2-3.457,1.362-4.713-4.493-7-1 1.72-.054 2.562,.771 3,2-.55,0-1.13,.82 0,1zm-68.998,3c2.073-1.986-1.066-2.288-2-4 1.492,6.342-2.848,23.014 1,24 1.654-3.315 5.878,3.731 6-1 1.896,4.006 6.211-.351 8,3-.094-4.175 2.457-.157 4,0 4.293,.438 12.526-.556 22,0 4.363,.022 .168-1.724-2-1-2.072-.595-6.569,1.235-7-1 6.336,.858 14.002-1.158 18,0 .674,.194-.344,2.034 1,2-.032,.001 .374-1.877 1-2 2.466-.49 8.692,1.091 8-1-1.497-.171-3.69,.356-4-1 5.474-.915-2.201-.345-2-2 2.881,.118 6.546-.546 8,1 .105-8.396 2.025-15.065 1-22 .719,5.729-5.194-.062-6,0 .099-.009-.516,1.853-1,2-7.113,2.176-18.557-3.25-26,2 2.313-3.604-5.22-1.544-6-3-.157,1.177 .172,2.839-1,3-.211-1.208-1.11-.615-2,0 .053-5.382-.743-.923-2-1-.168-.011-2.355-2.358-3-2-.484,.271 .176,2.389-1,2-.633-.209 .333-2.228-1-2-.048,.008-.44,1.806-1,2-.281,.099-4.578-.304-5,0-.802,.573 .381,1.789-1,2-2.716,.411-2.157-1.315-3-2-.21,1.13-1.109,1.56-1.998,2zm74.998-3h3c.128-1.796-.994-2.341-3-2v2zm-90.998,26c-.625-13.377 2.488-15.073-1-24 1.328,11.71-2.953,18.96 1,24zm12-12c-1.695-1.425 2.214-10.577-2-12 .307,3.74-1.155,14.44 2,12zm-23-4c.36-1.882 2.153-4.63-1-6 .393,3.16 1.032,7.66 1,6zm4,16c2.259-.534-1.213,3.896 1,1 1.413-2.908 .931-14.599 1-22-4.929,4.11-.095,16.09-2,21zm11-18c1.29,6.164-.196,13.384 0,19 4.146-1.183 .48-17.374 3-20-1.406,.079-1.141-2.907-2-1 .218,1.26 1.557,2.05-1,2zm-22,20c3.662-.361 1.926-5.63 2-8 .165-5.3-.031-10.97-2-14 .819,9.42-.099,10.74 0,22zm-4-12c-1.373-2.279 2.578-3.759 0-4-.293,.62-2.488,3.85 0,4zm10-3v2c2.46,1.555 2.939-3.396 1-3-.057,.62-.15,1.19-1,1zm1,10c1.786-13.06-3.06-1.53 0,0zm-11,5c-.369-2.688 .916-12.175-1-10 .3,6.07-2.435,7.08 1,10zm33-1c.271-1.361-.619-3.903-1-2-.273,1.36 .618,3.91 1,2zm7,0h-5c.574,1.758-1.209,5.875 1,6 1.92-4.612 3.86,2.157 6-3-.145,1.181-1.781,2.267 0,3-.055-1.722 .77-2.563 2-3-1.889,3.194 .984,7.274 0,5v-2c1.427,.313 7.794,2.362 11,0-1.535-.24-.147-1.646 1-2 5.402,2.153 15.348-.69 21,3-.753-.492-3.164,.325-3,1 5.137,1.099 10.669-2.612 9-5-.211,1.207-1.11,.614-2,0-.421,1.911-.363,4.305-3,4 .238-1.429 1.646-1.687 2-3 1.613-1.363-3.896,.974-5-1-.381-.681-8.428,1.206-11,0-.773-.362 .384-1.905-1-2 .221,.014-.516,1.905-1,2-1.591,.31-4.412-4.367-2,0-4.652-4.255-9.493,.558-13-2 1.063-2.271 6.286-.382 9-1-1.669-2.665-9.223,.555-11-2-3.042,1.763 2.729,3.097 0,4 2.902-5.56-16.826-4.23-5-2zm41,8c3.641-2.36 13.055,1.055 14-4-4.479-1.478-3.072,2.929-7,2 1.664-3.12-3.72-4.843-1-3 1.86,5.53-6.35,.99-5.998,5zm16.998-8c-11.478-1.11-7.16,2.99 0,0zm-3,2c-6.404-1.15-2.19,3.06 0,0zm1,7c5.032-.81-.751-9.138 1-6-2.43,2.11 .89,4.45-1,6zm47-3c-7.44,1.616 5.506-2.776 1-2-10.77,2.03 .55,1.67-1,2zm7-2c-6.4-1.15-2.19,3.06 0,0zm-114,6c2.78-4.78-3.281-2.42 0,0zm130,1c-6.41-1.15-2.2,3.06 0,0zm36,13c-4.78-2.78-2.42,3.28 0,0zm-74,2c-1.967,.298-1.983-1.351-3-2-.88,2.06 2.59,4.49 3,2zm14,4c2.766,1.319 3.433-3.953 2-1-1.4-.07-3.82,.23-2,1zm-78.998-1c-1.453,.547-5.169-1.169-5,1 1.452-.54 5.168,1.17 5-1zm8,2c-.262-1.407-2.194-1.14-3-2-.013,1.321-1.753,.914-2,2 3.022,2.29 12.831-2.07 5,0zm87.998,0c-.777,.224-1.975,.026-2,1 3.188,.593 3.093-1.878 5,0 .313-2.728-5.812-4.082-7-2 1.5,.18 3.69-.35 4,1zm80,19c4.77,4.522 .575-2.726 1-4-1.74,2.04 .75,1.96-1,4zm0,8c4.527,.702-1.078,5.747 3,6 .317-3.319 .15-6.151-2-7 1.72,.054 2.562-.771 3-2-1.322-.013-.915-1.753-2-2 .86,3.19-1.57,3.1-2,5zm2,16c5.672,.862 1.511-7.022-1-3 2.26,.56-1.21,1.56 1,3z"/>
<path fill="#fff" d="m196.39,19.765c3.62,3.072 4.795,.423 9,0 4.075,1.108-7.547,1.276-1,2-3.615,.716-7.64,.486-12,2-.076,5.269-4.573,2.926-5,10-1.332-1.301-3.021-.615-4,1-1.105-.903-.693-2.237 0-4-1.988,.013-1.272,2.729-4,2 .515-3.704 1.703-2.516-2-2-.777-.89-1.076-2.258-1-4-2.558,3.01-2.674,1.111-3,1-.069-.023-6.616-4.856-2-4-1.675-1.327-2.133-3.868-6-3-.707-2.206 1.498-1.505 1-1 2.28-2.312 .398-3.932 5-5 1.172-.162 .844-1.823 1-3 5.335-.728 9.044-2.92 14-3 2.553,2.779 4.676,5.991 7,9 3.042-1.436 5.979-.181 9,1-.85,3.568-2.46,.12-6,1z"/>
<path fill="#fff" d="m239.39,24.765c-.319-3.952-3.096,.741-4-2-2.628,1.325-1.975,4.375-4,4-2.953-.87 2.318-1.497 1-4-2.214,3.331-4.155,.718-8,2 .438-3.031-9.728,.099-13-1-1.732-.582-1.933-3.957-3-2-3.314-.978 1.116-1.978 1-3 14.275-.662 25.458-9.386 35-4 .543,6.845 1.548,3.833 0,10-2.167-1.577-4.761,3.154-9,0-2.44-.741 3.14-.741 4,0z"/>
<path fill="#fff" d="m144.39,21.765c-1.344,.202-1.863,4.153-2,0-2.504,7.223-12.589-.006-16,6-1.219-1.539-3.764-3.222-4,0-.974-.027-.776-1.224-1-2-3.962,3.864-.624-1.507-6,2-3.037-3.844-3.186-4.863-5-9 3.942,1.276 2.597-2.737 4-4 18.37-4.768 26.344,6.992 44,2 .872,2.054-5.089,1.996-2,3-3.43,.177-9.51,4.924-12,2z"/>
<path fill="#fff" d="m178.39,69.765c.188-1.136 1.002-.555 1,0 1.195-8.336-1.118-16.15 3-23-1.498-1.502-1.79-4.211-4-5 .125-2.208 4.241-.425 6-1-2.586,9.638 1.674,19.795 0,30 1.168,3.499 6.881,2.453 9,5-1.447,1.275-2.234-1.755-6,0 1.571,5.038 3.648,8.034 8,8 .488-3.157-1.804-3.532-1-7 2.135,4.197 7.712,4.954 10,9-14.148,3.469-29.959-4.411-46,0 4.825-6.096 9.561,1.024 15-5 6.433,1.431 9.646-4.557 13-3-4.127-4.673-10.864-.828-14-3 2.364-2.3 8.976-.358 13-1-.411-3.919-4.758,.987-7-2 .62-.89 1.21-1.789 0-2z"/>
<path fill="#fff" d="m187.39,54.765c-2.378-2.009 1.109,.442 2,1 .533,2.078-3.897,2.119-1,1-.19-.811-1-.997-1-2z"/>
<path fill="#fff" d="m138.39,90.765c-.21-1.71 1.705-2.59 0-3 .43-2.767 3.145-.052 2,2 .973-.027 .775-1.224 1-2 .839-3.176 1.317,1.775 1,3h2c-.92,2.725-3.13-1.398-6,0z"/>
<path fill="#fff" d="m179.39,91.765c.775,.889 1.073,2.258 1,4 1.341-.202 1.86-4.153 2,0 1.172-.162 .844-1.823 1-3 1.355,.31 .83,2.504 1,4-10.52-.733-12.388-.375-26-1-.786-4.118 1.534-5.132 1-9h11c-2.99,7.289 5.55,6.091 9,5zm-12,1c.609,.056 1.183,.149 1,1 1.219-.113 2.366-.299 2-2-1.18,.156-2.84-.172-3,1z"/>
<path fill="#fff" d="m212.39,92.765c-3.118,3.216-8.956,3.711-15,4v-8c10.37-3.808 9.09,.48 15,4z"/>
<path fill="#fff" d="m143.39,102.76c-.89,2.693-2.792-1.731-2-4 .317-4.88 1.58,.964 1,3-.18,.86 .39,.95 1,1z"/>
<path fill="#fff" d="m174.39,101.76c1.281-3.104 1.281,2.837 0,3 3.726,1.994 .698-2.627 2-4 .748-.791 1.26,2.938 1,3 1.168-.28 1.206-3.322 3-4 5.117-1.936 13.983,3.325 22,1 2.652,1.105-2.655,5.188 0,3 2.806-.428-2.508,3.728 1,4-16.155,4.654-23.74,1.618-38,2-3.184-1.378 3.531-.99 5-1 1.312-1.2 1.571-.39 3,0-.58-3.24 .68-4.65 1-7z"/>
<path fill="#fff" d="m146.39,112.76c.692-1.908 1.556,1.08 0,1 .026,.973 1.224,.776 2,1-4.582,1.572 .978,3.512 1,4 .056,1.283-1.887,.413-2,1-.317,1.639 2.385,7.592-2,8 5.251,1.2-2.122,8.7-2,14-1.344-.658-1.863-2.138-2-4 .804-.529 1.623-1.044 3-1-.27-1.714-2.135-3.933 1-4-2.492-2.985 .646-6.397-1-9 3.78,3.02-.71-9.06 2-11z"/>
<path fill="#fff" d="m201.39,120.76c.56,2.259 1.56-1.212 3,1-3.104,1.167 .533,2.888-3,3 .516,3.889 3.802,7.927 1,8 2.01,1.409 5.571,7.47 1,11 .852,2.815 3.229,4.103 3,8 2.058-2.074 5.071,.004 5,3 1.916-1.8 6.155-.282 6,3 3.646-1.328 8.885,4.204 9,0 1.172,.161 .844,1.821 1,3 3.983-2.923 4.188,1.38 10-1-.684,3.362 3.913,2.997 7,1-2.448,3.962 1.492-1.118 1,3 4.135,.18 4.021-2.351 3,2 2.133,.467 1.902-1.429 2-3 .933,.565 1.514,2.78 2,1-.107,2.014 2.604,2.231 4,1 1.214,2.079 3.353,5.495 5,4 1.4,.354 .085,1.76-1,2 .293,2.378 2.706-1.111 3-2 1.609,1.056-1.628,3.963 3,2 .979,3.688 4.378,4.954 6,8 1.172-.161 .844-1.823 1-3-5.027-.233 4.673-.767 1,5 3.173-2.392-.219,2.526 5,2-1.375,2.185 1.764,10.334 1,8 2.968-2.468 1.339,2.548 1,2 1.877,3.03 4.343,3.122 4,5-.243,1.323 1.749,.37 2,1 .461,1.163-1.951,.584-2,1-.041,.346 1.856,5.76 2,6 .433,.733 3.902,2.015 0,2 3.148,1.267-.799,3.38 4,3-6.411,2.663 .503,6.979-2,9 .997,.185 2.701,4.381 3,2 .635,1.887-1.776,3.067-1,6 .193,.737 1.969,.817 2,1 .114,.694-4.142,3.071 0,2-.027,.974-1.225,.776-2,1 5.081,1.331-2.183,5.409 2,5-.027,.974-1.225,.776-2,1 .025,.974 1.223,.776 2,1-4.69,4.483 2.093,5.097-1,10-7.049,.286-10.648,4.019-19,3 2.539-3.845-2.739-1.097-1-8-1.174,.159-.845,1.821-1,3-1.073,.118-1.333-3.944-1-6 .015-.095 1.516,1.302 1,2 2.681-3.62 1.609-8.896 1-11-.145-.49-2.008-1.111-2-1-.081-1.366 1.769-.308 2-1 .339-1.021-2.031-.832-2-1 .283-1.548 3.01-1.437 1-5-1.971-3.494-.819,.62 0-3 .473-2.091-2.698-3.976-3-5 4.106-4.804-.057-2.271 3-5-.294-.935-2.707-.935-3,0-2.089-.577 1.439-3.776 1-6-.936,.733-1.516,1.817-2,3-1.027,1.038-.479-5.736 0-9-1.788-.282-2.054,.944-1,1-3.489,2.231 .812-11.94-5-9-.6-2.615-4.729-5.244-8-10-1.511,.868 .273,1.497-1,4-1.959-2.041-5.906-2.095-6-6-1.719,1.282-2.011,3.991-4,5-2.24-.729 2.209-3.009 2-5-2.595,1.071-4.905,2.43-9,2 5.147,2.063 .438,1.907-3,3-1.888-.994 4.917-1.671 3-6-1.538,2.239-2.698,2.349-5,2-.225-.033 .222-2.828 0-3-1.951-1.513-8.242,6.255-4-1-3.749-2.205-4.873,4.729-5,0-1.852,.149-.614,3.387-2,4-.562-4.827-.336-1.452-5-4 .46,2.055-2.622,2.319-7,2 3.137-2.274 2.472-.3 1-4-1.336,1.26-1.966,3.006-4,1-.086,1.418-.165,2.831 1,3 2.057,.896-2.877-1.185-8-1-.169,2.168 3.547,.452 5,1-.938,1.713-1.331,1.479 0,6-1.895,1.774-6.605,.729-10,1 7.39-1.961-6.05-2.698 3-3-.312-1.356-2.505-.829-4-1-1.824-.776 .598-1.075 2-1-.403-1.931-4.581-.087-3-4h-11c-4.799-3.28 4.561,.668 5-1 .405-1.55-8.354-.911-13-1 5.78,2.696-.852,.62-2,4-2.897-.56 1.533-1.56 1-3-2.286-.416-6.24,5.202-6,1 1.127,4.245-5.545,2.815-11,3 2.408-1.548 4.272-2.101-1-2 1.171-.205 4.47-4.704-2,0-1.497-4.449-5.64-1.579-8,1-1.137-.19-.557-1.003 0-1-5.571-3.779-8.394,1.676-11,2 4.675,2.153-2.262,1.612 0,3-2.436,1.885-4.198-.175-9,0 1.121-3.149 .09-2.265 0-6-2.04,.558-1.961,3.009-4,1-1.851,.149-.614,3.387-2,4-1.137-.19-.557-1.003 0-1-.354-1.401-1.762-.086-2,1-3.719-7.774-1.31-20.196-1-25 7.074,2.506 15.097,5.394 17,1 2.551,.116 5.145,.188 5,3 2.427-4.089 6.556,1.926 7-2 1.332,1.001 3.018,1.647 4,3 1.229-.437 2.053-1.279 2-3h5c-2.474,1.745-2.014,2.206 2,2-1.118-1.229-.871-2.054 1-2-.162-1.173-1.823-.845-3-1-3.185-1.378 3.532-.99 5-1 .214-2.084-11.105-.337-5-2h10c.168-2.169-3.547-.453-5-1-4.396-1.666 7.394-.334 3-2 .353-1.567 1.76,.875 2-1 1.453,.442-.104,.878 0,2 2.519-3.147 7.856-3.476 14-3-1.712-2.288-7.634-.367-11-1 1.386-2.28 6.96-.373 10-1-5.299-1.554-9.606-1.951 0-2-.745-2.255-5.61-.392-8-1 4.757-4.634 1.038-.538 8-1v-2c-1.979-2.871-6.241,.347-9,0 3.911-1.556-1.02-2.091-1-2-.315-1.586 3.994-.854 1-4-.169-2.169 3.547-.453 5-1-7.559-1.998-2.727-2.127 4-2-5.705-1.005-4.394-3.247 0-2-.869-2.909-1.498-1.125-4-1 1.506-1.419 4.313-3.702 6-2 .466-2.134-1.43-1.905-3-2 4.784-3.362-6.124-5.203 1-5-.161-1.172-1.823-.843-3-1 1.091-.365 4.183-4.377 0-4 7.011-2.023 15.206-.977 22-1 .973-.027 .775-1.224 1-2 1.776,.888 2.542,2.792 6,2 1.405,2.863-3.104,5.458 1,5-.44,.9-.88,1.79-2,2zm-63,53c.744,2.255 5.608,.392 8,1-.74-2.25-5.61-.39-8-1zm38-38c-3.679-.578-4.981-1.078-7,0 2.68,1.98 4.43,2.62 7,0zm-12,22c2.766,1.319 3.433-3.953 2-1-1.4-.07-3.82,.23-2,1zm0,2c2.609-.39 5.484-.515 7-2-1.98-1.58-7.79,1.44-7,2zm-2-1c-6.4-1.15-2.19,3.06 0,0zm-3,2c-2.714,.618-7.937-1.271-9,1 2.71-.61 7.94,1.27 9-1zm5,2c-1.157-.767-8.762,.528-13,0-3.295,2.401 7.139-.554 7,2-12.497,.411-1.568,.446 3,2-1.178,.155-2.839-.173-3,1 1.89,.442 6.025-1.361 5,2-1.183-.146-2.269-1.78-3,0 2.502-1.32 3.131,3.952 4,1-1.905-2.044 2.61-4.157 2-1 2.104-3.419 3.089-6.419-1-9-.22,.78-.03,1.98-1,2zm-40,8c-.139-1.862-.658-3.343-2-4-.28,2.28 .24,3.76 2,4zm28,0c-.776-.224-1.974-.026-2-1 1.177-.157 2.838,.172 3-1-5.05,1.339-9.61-2.999-13,0 3.078-.745 1.922,2.745 5,2 .224-.776 .026-1.974 1-2 1.08,1.79 1.5,4.3 6,2zm1,1c2.101,.317 8.661,.151 5-2-1.12,2.32-3.87-1.41-5,2zm121,72c.271-1.361-.619-3.903-1-2-.27,1.36 .62,3.91 1,2z"/>
<path fill="#fff" d="m254.39,184.76c-2.214,2.896 1.258-1.534-1-1-.12-3.31 4.31,1.12 1,1z"/>
<path fill="#fff" d="m264.39,192.76c-.248,1.085-1.989,.679-2,2-1.485-.437 .394-1.279 0-3-.853-.185-.944,.389-1,1-2.19-1.97 1.89-1.97 3,0z"/>
<path d="m169.39,135.76c2.019-1.078 3.321-.578 7,0-2.57,2.62-4.32,1.98-7,0z"/>
<path fill="#fff" d="m135.39,143.76c1.521,2.421-2.401,2.616-5,3 .33-2.34 4.36-.97 5-3z"/>
<path fill="#fff" d="m118.39,147.76c-.438-1.229-1.28-2.054-3-2 2.287-3.493 3.543,2.362 7,1 .715,2.716-4.716-.716-4,2-1.13-.18-.55-1 0-1z"/>
<path fill="#fff" d="m51.392,149.76c.843,.685 .284,2.411 3,2 1.381-.211 .198-1.427 1-2 .422-.304 4.719,.099 5,0 .56-.194 .952-1.992 1-2 1.333-.228 .367,1.791 1,2 1.176,.389 .516-1.729 1-2 .645-.358 2.832,1.989 3,2 1.257,.077 2.053-4.382 2,1 .89-.615 1.789-1.208 2,0 1.172-.161 .843-1.823 1-3 .78,1.456 8.313-.604 6,3 7.443-5.25 18.887,.176 26-2 .484-.147 1.099-2.009 1-2 .806-.062 6.719,5.729 6,0 1.025,6.935-.895,13.604-1,22-1.454-1.546-5.119-.882-8-1-.201,1.655 7.474,1.085 2,2 .31,1.356 2.503,.829 4,1 .692,2.091-5.534,.51-8,1-.626,.123-1.032,2.001-1,2-1.344,.034-.326-1.806-1-2-3.998-1.158-11.664,.858-18,0 .431,2.235 4.928,.405 7,1 2.168-.724 6.363,1.022 2,1-9.474-.556-17.707,.438-22,0-1.543-.157-4.094-4.175-4,0-1.789-3.351-6.104,1.006-8-3-.122,4.731-4.346-2.315-6,1-3.848-.986 .492-17.658-1-24 .934,1.712 4.073,2.014 2,4 .891-.44 1.79-.87 2.002-2zm4,18c-3.375,2.625 5.323-1.496-1-1 .609,.06 1.183,.16 1,1zm24,0c-6.819-.4 7.336,1.86 0,0zm-9,0c-6.406-1.15-2.197,3.06 0,0zm6,0c-1.453,.547-5.169-1.169-5,1 1.452-.54 5.168,1.17 5-1zm19,0c-1.759,.575-5.876-1.209-6,1 1.757-.57 5.875,1.21 6-1zm0,2c-6.406-1.15-2.197,3.06 0,0zm4.998,0c-6.404-1.15-2.195,3.06 0,0z"/>
<path fill="#fff" d="m43.392,150.76c4.214,1.423 .305,10.575 2,12-3.155,2.44-1.693-8.26-2-12z"/>
<path fill="#fff" d="m21.392,152.76c3.153,1.37 1.36,4.118 1,6 .032,1.66-.607-2.84-1-6z"/>
<path fill="#fff" d="m28.392,153.76c-.069,7.401 .413,19.092-1,22-2.213,2.896 1.259-1.534-1-1 1.905-4.91-2.929-16.89 2-21z"/>
<path fill="#fff" d="m38.392,154.76c.859-1.907 .594,1.079 2,1-2.52,2.626 1.146,18.817-3,20-.196-5.616 1.29-12.836 0-19 2.557,.05 1.218-.74 1-2z"/>
<path fill="#fff" d="m15.392,154.76c1.969,3.03 2.165,8.7 2,14-.074,2.37 1.662,7.639-2,8-.099-11.26 .819-12.58 0-22z"/>
<path d="m166.39,156.76c1.433-2.953 .766,2.319-2,1-1.82-.77 .6-1.07 2-1z"/>
<path d="m171.39,157.76c-1.516,1.485-4.391,1.61-7,2-.79-.56 5.02-3.58 7-2z"/>
<path fill="#fff" d="m11.392,160.76c2.578,.241-1.373,1.721 0,4-2.488-.15-.293-3.38 0-4z"/>
<path d="m165.39,160.76c4.089,2.581 3.104,5.581 1,9 .61-3.157-3.905-1.044-2,1-.869,2.952-1.498-2.32-4-1 .731-1.78 1.817-.146 3,0 1.025-3.361-3.11-1.558-5-2 .161-1.173 1.822-.845 3-1-4.568-1.554-15.497-1.589-3-2 .139-2.554-10.295,.401-7-2 4.238,.528 11.843-.767 13,0 .97-.02 .78-1.22 1-2zm-6,4c2.729,.319 9.946,.055 7-2-1.18,1.93-4.95-.79-7,2z"/>
<path fill="#fff" d="m166.39,162.76c2.946,2.055-4.271,2.319-7,2 2.05-2.79 5.82-.07 7-2z"/>
<path d="m54.392,166.76c6.323-.496-2.375,3.625 1,1 .183-.84-.391-.94-1-1z"/>
<path d="m79.392,167.76c7.336,1.86-6.819-.4 0,0z"/>
<path d="m146.39,168.76c-.974,.026-.776,1.224-1,2-3.078,.745-1.922-2.745-5-2 3.39-2.999 7.95,1.339 13,0-.162,1.172-1.823,.843-3,1 .026,.974 1.224,.776 2,1-4.5,2.3-4.92-.21-6-2z"/>
<path fill="#fff" d="m56.392,177.76c2.729-.903-3.042-2.237 0-4 1.777,2.555 9.331-.665 11,2-2.714,.618-7.937-1.271-9,1 3.507,2.558 8.348-2.255 13,2-2.412-4.367 .409,.31 2,0 .484-.095 1.221-1.986 1-2 1.384,.095 .227,1.638 1,2 2.572,1.206 10.619-.681 11,0 1.104,1.974 6.613-.363 5,1-.354,1.313-1.762,1.571-2,3 2.637,.305 2.579-2.089 3-4 .89,.614 1.789,1.207 2,0 1.669,2.388-3.863,6.099-9,5-.164-.675 2.247-1.492 3-1-5.652-3.69-15.598-.847-21-3-1.147,.354-2.535,1.76-1,2-3.206,2.362-9.573,.313-11,0v2c.984,2.274-1.889-1.806 0-5-1.23,.437-2.055,1.278-2,3-1.781-.733-.145-1.819 0-3-2.14,5.157-4.08-1.612-6,3-2.209-.125-.426-4.242-1-6h5c-11.826-2.23 7.902-3.56 5,2zm7,3c-.776,.224-1.974,.026-2,1 3.141,.476 4.085-1.248 5-3-2.503,1.274-3.131-.509-4,1 .609,.06 1.183,.16 1,1zm-13-3c1.496-.171 3.689,.356 4-1-1.322-.013-.915-1.753-2-2 .298,1.97-1.351,1.99-2,3z"/>
<path fill="#fff" d="m98.392,178.76c-2.72-1.843 2.664-.12 1,3 3.928,.929 2.521-3.478 7-2-.945,5.055-10.359,1.64-14,4-.35-4.01 7.86,.53 6.002-5z"/>
<path d="m62.392,179.76c.869-1.509 1.497,.274 4-1-.915,1.752-1.859,3.476-5,3 .026-.974 1.224-.776 2-1 .183-.84-.391-.94-1-1z"/>
<path fill="#fff" d="m108.39,178.76c-1.751-3.138 4.032,5.19-1,6 1.89-1.55-1.43-3.89 1-6z"/>
<path fill="#fff" d="m155.39,179.76c4.506-.776-8.44,3.616-1,2 1.55-.33-9.77,.03 1-2z"/>
<path fill="#fff" d="m136.39,199.76c1.017,.649 1.033,2.298 3,2-.41,2.49-3.88,.06-3-2z"/>
<path fill="#fff" d="m155.39,204.76c1.433-2.953 .766,2.319-2,1-1.82-.77 .6-1.07 2-1z"/>
<path fill="#fff" d="m77.392,206.76c.247-1.086 1.987-.679 2-2 .806,.86 2.738,.593 3,2 7.831-2.07-1.978,2.29-5,0z"/>
<path fill="#fff" d="m166.39,205.76c1.188-2.082 7.313-.728 7,2-1.907-1.878-1.812,.593-5,0 .025-.974 1.223-.776 2-1-.31-1.35-2.5-.82-4-1z"/>
<path fill="#fff" d="m251.39,221.76c-.425,1.274 3.77,8.522-1,4 1.75-2.04-.74-1.96 1-4z"/>
<path fill="#fff" d="m252.39,228.76c1.085,.247 .678,1.987 2,2-.438,1.229-1.28,2.054-3,2 2.15,.849 2.317,3.681 2,7-4.078-.253 1.527-5.298-3-6 .43-1.9 2.86-1.81 2-5z"/>
</g>
</g>
</switch>
</svg>
