<svg xmlns="http://www.w3.org/2000/svg" viewBox="0 0 212.59 227.06" xmlns:xlink="http://www.w3.org/1999/xlink">
<defs>
<filter width="1.203" x="-.102" y="-.247" height="1.494" id="filter3383">
<feGaussianBlur stdDeviation="8.56245"/>
</filter>
<linearGradient id="linearGradient2463">
<stop offset="0" stop-color="#fff"/>
<stop offset="1" stop-color="#4d4d4d"/>
</linearGradient>
<linearGradient id="linearGradient2479">
<stop offset="0" stop-color="#c8beb7"/>
<stop offset="1" stop-color="#808080"/>
</linearGradient>
<linearGradient id="linearGradient3518" xlink:href="#linearGradient2463" x1="215.87" gradientUnits="userSpaceOnUse" x2="206.95"/>
<linearGradient id="linearGradient3275" y1="60.684" y2="175.09" x1="359.63" gradientUnits="userSpaceOnUse" x2="481.77">
<stop offset="0" stop-color="#e9c6af"/>
<stop offset="1" stop-color="#28170b"/>
</linearGradient>
<linearGradient id="linearGradient3618" y1="21.913" y2="196.28" x1="349.77" gradientUnits="userSpaceOnUse" x2="553.01">
<stop offset="0" stop-color="#c87137"/>
<stop offset="1" stop-color="#2b1100"/>
</linearGradient>
<linearGradient id="linearGradient3620" y1="12.409" y2="212.42" x1="334.82" gradientUnits="userSpaceOnUse" x2="567.96">
<stop offset="0" stop-color="#c87137"/>
<stop offset="1" stop-color="#2b1100"/>
</linearGradient>
<linearGradient gradientTransform="translate(-106.21 -28.693)" id="linearGradient2482" xlink:href="#linearGradient2463" y1="84.241" x1="129" y2="213.98" gradientUnits="userSpaceOnUse" x2="289.7"/>
<linearGradient id="linearGradient3624" y1="-15.095" y2="259.14" x1="291.57" gradientUnits="userSpaceOnUse" x2="611.21">
<stop offset="0" stop-color="#c87137"/>
<stop offset="1" stop-color="#2b1100"/>
</linearGradient>
<linearGradient gradientTransform="translate(-106.21 -28.693)" id="linearGradient2476" xlink:href="#linearGradient2463" y1="98.247" x1="172.49" y2="207.34" gradientUnits="userSpaceOnUse" x2="295.59"/>
<linearGradient id="linearGradient3622" y1="-.373" y2="234.13" x1="314.72" gradientUnits="userSpaceOnUse" x2="588.06">
<stop offset="0" stop-color="#c87137"/>
<stop offset="1" stop-color="#2b1100"/>
</linearGradient>
<linearGradient gradientTransform="translate(-106.21 -28.693)" id="linearGradient2471" y1="131.35" x1="219.51" y2="131.87" gradientUnits="userSpaceOnUse" x2="202.24">
<stop offset="0" stop-color="#fff"/>
<stop offset="1"/>
</linearGradient>
<linearGradient id="linearGradient3411" x1="280.45" gradientUnits="userSpaceOnUse" x2="510.78">
<stop offset="0" stop-color="#f4eed7"/>
<stop offset="1" stop-color="#28220b"/>
</linearGradient>
<radialGradient cx="158.83" cy="115.75" gradientTransform="matrix(.57079 1.0019 -1.1289 .64314 100.39 -131.58)" id="radialGradient2480" xlink:href="#linearGradient2479" r="106.29" gradientUnits="userSpaceOnUse"/>
<radialGradient cx="163.38" cy="92.206" gradientTransform="matrix(.76668 1.2751 -1.0111 .60792 61.89 -174.92)" id="radialGradient2474" xlink:href="#linearGradient2479" r="106.29" gradientUnits="userSpaceOnUse"/>
<radialGradient cx="362.32" cy="27.558" gradientTransform="matrix(.67954 1.265 -1.1971 .64308 174.24 -388.32)" id="radialGradient3267" r="84.165" gradientUnits="userSpaceOnUse">
<stop offset="0" stop-color="#784421"/>
<stop offset="1" stop-color="#28170b"/>
</radialGradient>
</defs>
<g stroke-width=".315">
<g fill="none" stroke="#784421">
<path d="m512.31,117.78a83.665,83.665 0 1,1 -167.33,0 83.665,83.665 0 1,1 167.33,0z" transform="matrix(.84363 0 0 .84363 -255.32 6.9442)"/>
<path d="m512.31,117.78a83.665,83.665 0 1,1 -167.33,0 83.665,83.665 0 1,1 167.33,0z" transform="matrix(.90519 0 0 .90519 -281.71 -.30619)"/>
<path d="m512.31,117.78a83.665,83.665 0 1,1 -167.33,0 83.665,83.665 0 1,1 167.33,0z" transform="matrix(.95355 0 0 .95355 -302.44 -6.0029)"/>
</g>
<g>
<path fill="url(#radialGradient3267)" stroke="url(#linearGradient3275)" fill-rule="evenodd" d="m512.31,117.78a83.665,83.665 0 1,1 -167.33,0 83.665,83.665 0 1,1 167.33,0z" transform="matrix(.95355 0 0 .95355 -302.44 -6.0029)"/>
</g>
</g>
<g fill="none">
<g transform="translate(-366.47 13.006)">
<path stroke="url(#linearGradient3618)" stroke-width=".424" d="m552.51,86.525a101.12,101.12 0 1,1 -202.24,0 101.12,101.12 0 1,1 202.24,0z" transform="matrix(.70763 0 0 .70763 153.34 32.073)"/>
<path stroke="url(#linearGradient3620)" stroke-width=".486" d="m552.51,86.525a101.12,101.12 0 1,1 -202.24,0 101.12,101.12 0 1,1 202.24,0z" transform="matrix(.61689 0 0 .61689 194.3 39.925)"/>
<path stroke="url(#linearGradient3622)" stroke-width=".57" d="m552.51,86.525a101.12,101.12 0 1,1 -202.24,0 101.12,101.12 0 1,1 202.24,0z" transform="matrix(.52615 0 0 .52615 235.26 47.776)"/>
<path stroke="url(#linearGradient3624)" stroke-width=".667" d="m552.51,86.525a101.12,101.12 0 1,1 -202.24,0 101.12,101.12 0 1,1 202.24,0z" transform="matrix(.44993 0 0 .44993 269.67 54.371)"/>
</g>
<g stroke="#784421" stroke-width=".315">
<g>
<path d="m512.31,117.78a83.665,83.665 0 1,1 -167.33,0 83.665,83.665 0 1,1 167.33,0z" transform="matrix(.84363 0 0 .84363 -255.32 6.9442)"/>
</g>
<g transform="translate(-106.21 -28.693)">
<path d="m512.31,117.78a83.665,83.665 0 1,1 -167.33,0 83.665,83.665 0 1,1 167.33,0z" transform="matrix(.95355 0 0 .95355 -196.24 22.69)"/>
<path d="m512.31,117.78a83.665,83.665 0 1,1 -167.33,0 83.665,83.665 0 1,1 167.33,0z" transform="matrix(.90519 0 0 .90519 -175.5 28.386)"/>
<path d="m512.31,117.78a83.665,83.665 0 1,1 -167.33,0 83.665,83.665 0 1,1 167.33,0z" transform="matrix(.84363 0 0 .84363 -149.12 35.637)"/>
<path d="m512.31,117.78a83.665,83.665 0 1,1 -167.33,0 83.665,83.665 0 1,1 167.33,0z" transform="matrix(.66335 0 0 .66335 -71.842 56.87)"/>
</g>
</g>
<g>
<path stroke="#2e1a0c" stroke-width="1.5" d="m182.75,118.21c12.34,42.6-54.24,96.95-18.43,108.35"/>
<path stroke="#784421" stroke-width=".315" d="m512.31,117.78a83.665,83.665 0 1,1 -167.33,0 83.665,83.665 0 1,1 167.33,0z" transform="matrix(.84363 0 0 .84363 -255.32 6.9442)"/>
</g>
</g>
<g fill-rule="evenodd">
<g>
<path fill="url(#radialGradient2480)" stroke="url(#linearGradient2482)" stroke-width=".927" d="m106.29,.4636c-27.091,0-54.183,10.342-74.84,31-41.315,41.314-41.315,108.38 0,149.69 41.314,41.32 108.37,41.32 149.69,0 41.31-41.31 41.31-108.37 0-149.69-20.66-20.654-47.75-30.996-74.85-30.996zm-45.684,31.093c7.628,0 15.246,2.903 21.062,8.719 11.633,11.633 11.633,30.493 0,42.125-11.632,11.633-30.524,11.633-42.156,0-11.632-11.632-11.632-30.492 0-42.125 5.816-5.816 13.465-8.719 21.094-8.719zm90.654,0c7.63,0 15.25,2.903 21.06,8.719 11.64,11.633 11.64,30.493 0,42.125-11.63,11.633-30.49,11.633-42.12,0-11.63-11.632-11.63-30.492 0-42.125 5.82-5.816 13.43-8.719 21.06-8.719zm-44.97,50.907c6.11,0 12.19,2.347 16.85,7 9.3,9.304 9.3,24.386 0,33.686-9.31,9.31-24.386,9.31-33.69,0-9.305-9.3-9.305-24.382 0-33.686 4.652-4.653 10.74-7 16.84-7zm-45.684,39.746c7.628,0 15.246,2.91 21.062,8.72 11.633,11.63 11.633,30.53 0,42.16-11.632,11.63-30.524,11.63-42.156,0s-11.632-30.53 0-42.16c5.816-5.81 13.465-8.72 21.094-8.72zm90.654,0c7.63,0 15.25,2.91 21.06,8.72 11.64,11.63 11.64,30.53 0,42.16-11.63,11.63-30.49,11.63-42.12,0s-11.63-30.53 0-42.16c5.82-5.81 13.43-8.72 21.06-8.72z"/>
<path fill="#f00" stroke="#000" stroke-width=".238" d="m106.29,79.182c-6.944,0-13.887,2.641-19.184,7.938-10.594,10.594-10.594,27.78 0,38.37 10.594,10.6 27.784,10.6 38.374,0 10.59-10.59 10.59-27.776 0-38.37-5.3-5.297-12.24-7.938-19.19-7.938zm0,3.282c6.11,0 12.19,2.347 16.85,7 9.3,9.304 9.3,24.386 0,33.686-9.31,9.31-24.386,9.31-33.69,0-9.305-9.3-9.305-24.382 0-33.686 4.652-4.653 10.74-7 16.84-7z"/>
<path fill="url(#radialGradient2474)" stroke="url(#linearGradient2476)" stroke-width=".9" d="m106.29,78.432c-15.39,0-27.872,12.482-27.872,27.878 0,15.39 12.482,27.87 27.872,27.87 15.4,0 27.88-12.48 27.88-27.87 0-15.396-12.48-27.878-27.88-27.878zm-10.278,11.032c1.718,0 3.409,.658 4.718,1.968 2.62,2.62 2.62,6.881 0,9.498-2.619,2.62-6.848,2.62-9.468,0-2.62-2.617-2.62-6.878 0-9.498 1.31-1.31 3.032-1.968 4.75-1.968zm20.408,0c1.72,0 3.44,.658 4.75,1.968 2.62,2.62 2.62,6.881 0,9.498-2.62,2.62-6.88,2.62-9.5,0-2.62-2.617-2.62-6.878 0-9.498 1.31-1.31 3.03-1.968 4.75-1.968zm-10.13,14.376c.64,0 1.27,.24 1.75,.72 .97,.96 .97,2.53 0,3.5-.96,.96-2.53,.96-3.5,0-.96-.97-.96-2.54 0-3.5 .49-.48 1.12-.72 1.75-.72zm-10.278,6.06c1.718,0 3.409,.66 4.718,1.97 2.62,2.62 2.62,6.85 0,9.47-2.619,2.62-6.848,2.62-9.468,0s-2.62-6.85 0-9.47c1.31-1.31 3.032-1.97 4.75-1.97zm20.408,0c1.72,0 3.44,.66 4.75,1.97 2.62,2.62 2.62,6.85 0,9.47s-6.88,2.62-9.5,0-2.62-6.85 0-9.47c1.31-1.31 3.03-1.97 4.75-1.97z"/>
<path fill="#a39e9b" stroke="url(#linearGradient2471)" stroke-width=".968" d="m103.9,8.8202h.43c1.47,0 2.66,1.1908 2.66,2.6698v57.762c0,1.479-1.19,2.67-2.66,2.67h-.43c-1.48,0-2.67-1.191-2.67-2.67v-57.762c0-1.479 1.19-2.6698 2.67-2.6698zm2.27,131.88h.24c1.53,0 2.76,1.23 2.76,2.76v59.65c0,1.53-1.23,2.76-2.76,2.76h-.24c-1.52,0-2.75-1.23-2.75-2.76v-59.65c0-1.53 1.23-2.76 2.75-2.76z"/>
</g>
<g fill="#a8a39f" stroke="url(#linearGradient3518)" transform="matrix(0 1 -1 0 241.25 -104.06)">
<path stroke-width=".968" d="m210.11,37.513h.426a2.6697,2.6697 0 0,1 2.67,2.6697v57.7626a2.6697,2.6697 0 0,1 -2.67,2.6697h-.426a2.6697,2.6697 0 0,1 -2.67-2.6697v-57.7626a2.6697,2.6697 0 0,1 2.67-2.6697"/>
<path stroke-width=".982" d="m212.377,169.39h.237a2.7573,2.7573 0 0,1 2.757,2.757v59.658a2.7573,2.7573 0 0,1 -2.757,2.757h-.237a2.7573,2.7573 0 0,1 -2.757-2.757v-59.658a2.7573,2.7573 0 0,1 2.757-2.757"/>
</g>
<g transform="matrix(.15503 -.06897 .06897 .15503 -35.071 117.7)">
<path fill="#decd87" stroke="url(#linearGradient3411)" stroke-width="1.163" d="m310.14,54.096h170.96c16.12,0 29.1,12.979 29.1,29.1v52.134c0,16.13-12.98,29.1-29.1,29.1h-170.96c-16.13,0-29.1-12.97-29.1-29.1v-52.134c0-16.121 12.97-29.1 29.1-29.1z"/>
<path opacity=".813" fill="#fff6d5" filter="url(#filter3383)" d="m477.12,67.688c-58.04,1.996-116.19-2.014-174.18,2.093-10.34,6.387-8.72,20.286-7.5,30.629 .15,15.05-3.83,31.75 3.97,45.5 10.78,8.73 25.4,3.19 37.93,4.33 50.45-.5 100.98,2.26 151.35-1.71 10.16-6.62 8.03-20.41 7.09-30.72-.15-15.08 3.95-31.945-4.22-45.591-3.93-3.395-9.28-4.788-14.44-4.531z"/>
</g>
</g>
<g transform="matrix(.15503 -.06897 .06897 .15503 -35.071 117.7)">
<path fill="#333" d="m315.37,127.26v-37.263h16.52c3.33,0 5.85,.339 7.58,1.017 1.73,.661 3.11,1.839 4.14,3.533 1.04,1.695 1.55,3.567 1.55,5.613 0,2.65-.85,4.88-2.56,6.69-1.72,1.81-4.36,2.96-7.93,3.46 1.3,.62 2.29,1.24 2.97,1.85 1.44,1.32 2.8,2.98 4.09,4.96l6.48,10.14h-6.2l-4.93-7.75c-1.44-2.24-2.63-3.95-3.56-5.14-.93-1.18-1.77-2.01-2.51-2.49-.73-.47-1.48-.8-2.24-.99-.56-.12-1.48-.18-2.75-.18h-5.72v16.55h-4.93m4.93-20.82h10.6c2.26,0 4.02-.23 5.29-.68 1.27-.48 2.24-1.22 2.9-2.24 .66-1.03 .99-2.15 .99-3.36 0-1.758-.64-3.207-1.93-4.342-1.27-1.135-3.29-1.703-6.05-1.703h-11.8v12.325m32.72,20.82v-37.263h26.94v4.398h-22.01v11.415h20.61v4.37h-20.61v12.68h22.87v4.4h-27.8m34.77,0v-37.263h26.94v4.398h-22.01v11.415h20.61v4.37h-20.61v12.68h22.88v4.4h-27.81m34.47,0v-37.263h4.93v32.863h18.35v4.4h-23.28m57.06,0h-4.58v-29.154c-1.1,1.05-2.55,2.104-4.34,3.154-1.78,1.05-3.38,1.84-4.81,2.36v-4.421c2.56-1.204 4.8-2.661 6.71-4.372 1.92-1.712 3.27-3.372 4.07-4.982h2.95v37.415"/>
</g>
</svg>
