<svg xmlns="http://www.w3.org/2000/svg" viewBox="0 0 447.55 596.5">
<g transform="translate(-396.91 430.31)">
<path fill="#ff0004" stroke="#f00" fill-rule="evenodd" d="m416.75,533.62c13.524,59.513-1,119.56-1,119.56-25.88-20.537-41.452-44.412-45.094-59.281-18.704,25.095-8.6167,110.84 0,137.78-23.206-13.328-19.237-18.178-41.25-72.156-13.718,71.114 14.897,146.5 41.254,188.82 22.043,0 30.998,0 54.361,0 58.712-32.911 102.22-102.75 109.1-178.63-13.678,5.4452-18.035,26.778-57.5,29.875 10.301-20.966 25.5-83.556 21.938-113.34-12.995,32.042-14.686,53.692-38.344,56.656-5.36-49.3-22.82-85.57-43.46-109.28z" transform="translate(196.32 -683.81)"/>
<path stroke="#000" d="m413.47,254c-61.656,30.741-21.947,101.41-42.809,160.51 0,0-22.645-65.892-66.472-60.856 6.6165,11.248 16.184,22.473 22.062,33.812 20.737,40.005 6.8438,110.97 6.8438,110.97s-49.32-41.902-88.531-41.875c20.654,42.149 47.526,77.286 29.062,128.69-5.3864-2.8936-43.92-16.72-72.531-18.906 66.992,108.31 1.4014,263.64 169.56,283.16-26.975-41.759-55.315-117.06-41.254-189.95 22.013,53.979 18.051,58.806 41.257,72.133-8.6167-26.938-18.704-112.67 0-137.77 3.6416,14.869 19.2,38.729 45.08,59.266 0,0 14.526-60.043 1.0018-119.56 20.644,23.703 38.11,59.976 43.483,109.28 23.658-2.964 25.357-24.601 38.352-56.643 3.5624,29.788-11.639,92.363-21.939,113.33 39.465-3.0968 43.799-24.429 57.477-29.874-6.89,75.87-50.66,146.87-109.37,179.78 107.41-1.1477 137.59-21.569 166.86-90.385 7.2252-16.986 9.7061-36.286 17.158-56.338 16.098-43.317 31.1-59.986 38.871-104.83-16.691,18.061-52.423,24.308-52.423,24.308s22.188-109.75-25.812-140.03c.5684,18.514 5.3226,72.94-20.781,75.688 .6769-58.843 3.3622-168.55-70.781-188.19 1.3959,9.4923 4.3126,16.048 6.4062,22.469 1.9436,7.4061 8.7084,32.46-1,33.781-16.58-57.57-51.23-50.89-69.79-171.98z" transform="translate(196.32 -683.81)"/>
</g>
</svg>
