<svg xmlns="http://www.w3.org/2000/svg" viewBox="0 0 161.47 100.69">
<g stroke-miterlimit="10">
<g stroke="#e1e1e1" stroke-linejoin="round" stroke-width="2.5">
<g fill="#d94723" fill-rule="evenodd" transform="translate(-630.34 -504.88)">
<path d="m686.1,506.24h48.491c1.3818,0 2.5,1.123 2.5,2.5v19.316c0,1.3818-1.1182,2.5-2.5,2.5h-48.491c-1.3818,0-2.5-1.1182-2.5-2.5v-19.316c0-1.377 1.1182-2.5 2.5-2.5"/>
<path d="m739.55,506.28h48.491c1.3818,0 2.5,1.1182 2.5,2.5v19.316c0,1.377-1.1182,2.5-2.5,2.5h-48.491c-1.3818,0-2.5-1.123-2.5-2.5v-19.316c0-1.3818 1.1182-2.5 2.5-2.5"/>
<path d="m659.98,530.53h48.491c1.3818,0 2.5,1.123 2.5,2.5v19.316c0,1.3818-1.1182,2.5-2.5,2.5h-48.491c-1.3818,0-2.5-1.1182-2.5-2.5v-19.316c0-1.377 1.1182-2.5 2.5-2.5"/>
<path d="m713.43,530.57h48.491c1.3818,0 2.5,1.1182 2.5,2.5v19.316c0,1.377-1.1182,2.5-2.5,2.5h-48.491c-1.3818,0-2.5-1.123-2.5-2.5v-19.316c0-1.3818 1.1182-2.5 2.5-2.5"/>
<path d="m686.05,554.84h48.491c1.3818,0 2.5,1.1182 2.5,2.5v19.312c0,1.3818-1.1182,2.5-2.5,2.5h-48.491c-1.3818,0-2.5-1.1182-2.5-2.5v-19.312c0-1.3818 1.1182-2.5 2.5-2.5"/>
<path d="m739.5,554.87h48.491c1.3818,0 2.5,1.1182 2.5,2.5v19.316c0,1.3818-1.1182,2.5-2.5,2.5h-48.491c-1.3818,0-2.5-1.1182-2.5-2.5v-19.316c0-1.3818 1.1182-2.5 2.5-2.5"/>
<path d="m659.98,579.15h48.491c1.377,0 2.5,1.123 2.5,2.5v19.316c0,1.3818-1.123,2.5-2.5,2.5h-48.491c-1.3818,0-2.5-1.1182-2.5-2.5v-19.316c0-1.377 1.1182-2.5 2.5-2.5"/>
<path d="m713.43,579.19h48.491c1.3818,0 2.5,1.1182 2.5,2.5v19.312c0,1.3818-1.1182,2.5-2.5,2.5h-48.491c-1.3818,0-2.5-1.1182-2.5-2.5v-19.312c0-1.3818 1.1182-2.5 2.5-2.5"/>
<path d="m767.18,530.6h20.801c1.3818,0 2.5,1.1182 2.5,2.5v19.312c0,1.3818-1.1182,2.5-2.5,2.5h-20.801c-1.3818,0-2.5-1.1182-2.5-2.5v-19.312c0-1.3818 1.1182-2.5 2.5-2.5"/>
<path d="m766.91,579.16h21.104c1.3818,0 2.5,1.1182 2.5,2.5v19.316c0,1.377-1.1182,2.5-2.5,2.5h-21.104c-1.3818,0-2.5-1.123-2.5-2.5v-19.316c0-1.3818 1.1182-2.5 2.5-2.5"/>
<path d="m659.92,554.8h21.104c1.3818,0 2.5,1.123 2.5,2.5v19.316c0,1.3818-1.1182,2.5-2.5,2.5h-21.104c-1.377,0-2.5-1.1182-2.5-2.5v-19.316c0-1.377 1.123-2.5 2.5-2.5"/>
</g>
<g fill="none" transform="translate(-630.34 -504.88)">
<path d="m657.47,542.9v42.095"/>
<path d="m773.91,603.45-85.532-.01"/>
<path d="m757.01,506.23-38.467-.1173"/>
<path d="m790.46,541.24v42.09"/>
<path d="m790.57,514.06v42.09"/>
</g>
</g>
<g fill-rule="evenodd" stroke-width="1.25" transform="translate(-630.34 -504.88)">
<path fill="#ee1e14" stroke="#ee1e14" d="m644.11,539.7 6.7285-10.991 6.0498-7.666 3.999-5.0244 6.3916-6.9873-.7665,6.1328-.17,4.7705 .17,4.2578 .5127,3.0664 .7665,2.3047 1.1085,3.1494 1.787,3.4082 2.3828,3.75 2.4708,3.7451 2.6416,2.9834 3.0713,4.3457 2.9785,3.916 3.2373,5.9619 3.5791-5.1074-.0875,4.3408 .17,4.3457 .9375,5.8789-.4248,6.2207-.8495,4.7705-2.2168,7.3242-2.7246,4.9414-4.2627,4.5996-3.5742,2.8125-6.0498,2.8125-4.5166,1.1035-5.0244,.088-3.3249-.3419-4.4287-1.5332-4.0039-2.0459-3.4912-3.2373-3.4082-4.0039-2.8125-3.833-3.0664-6.6455-1.704-5.9619-1.1035-6.2158 .0825-5.5371 .3418-6.2207 .5077-5.2832v-7.9199l-.7668-3.9209-1.3622-3.916-2.2168-3.8379 3.0664,.9375 4.9463,2.0459z"/>
<path fill="#f38f19" stroke="#f38f19" d="m641.6,542.49 3.4278,3.2617 3.0908,3.4228 2.4902,3.0957 2.539,3.8672 1.0498,2.1533 .8252-1.1621 .498-2.5391 .4005-5.0586-.288-7.5391 .6203-7.3779 2.8564-6.7041 2.9834-4.751 2.0995-3.3154-1.1035,3.2031 .4443,8.5644 .8935,3.8867 1.4258,3.0713 9.668,17.012 1.5968,3.7598 .669,3.7012 .22,3.9209 .2735,2.7051 .3858,2.6514 .5517,1.8213 1.7138,.9424h2.1582l1.709-.664 .9523-1.25 .8837-2.3194 .5517-3.4228 .5517,3.0908 .664,4.3115-.4443,7.0703-1.3232,6.626-2.6514,5.9668-3.0957,3.3154-4.5264,3.0908-4.3066,2.3242-3.7598,1.2109-3.311,.332-2.7637,.1123-3.0908-.332-3.0957-1.1035-2.9834-1.8799-2.8711-1.9873-2.6123-3.169-3.3691-5.8594-1.753-4.7803-.7325-3.8916-.4835-4.1748-.3468-4.3848 .1125-3.9209 .498-3.3692 .7178-3.8135 .9375-3.2617 1.1622-3.7549 .4443-3.0371-.17-2.8174-1.2158-3.6475z"/>
<path fill="#f3b326" stroke="#f3b326" d="m658.53,537.69 5.0342,8.081 4.0137,8.2422 2.7197,6.0156 2.5098,6.3037 2.4318,7.2363 1.4355,6.3037 .4298,4.7998-.215,3.7256-.6445,4.082-1.2208,2.793-1.499,3.5108-1.9385,2.29-2.2168,1.5772-2.9394,1.3623-3.1348,.7422-2.5976-.2392-2.9346-1.2207-3.0078-1.8604-2.1485-3.3692-1.0058-3.3642-.5712-2.2949-.1475-3.6524 .0725-4.2969 .791-4.5166 2.0752-5.1562 2.5098-4.3701 3.0078-6.0156 1.6455-4.6582 .5712-3.5108-.2832-4.4385-.7178-6.377z"/>
<path fill="#facc7d" stroke="#facc7d" d="m653.45,586.58 1.328-4.917 1.875-4.2969 1.5625-3.6719 1.875-3.9062 2.1092-3.5156 2.6025-3.4814-.8057,3.6377v3.5938l.4688,3.125 1.5625,2.1875 2.422,3.2031 2.3438,3.5156 1.25,2.9688 1.0108,3.5888 .3908,2.6562-.1525,3.6719-.9375,2.7344-1.9532,2.7344-3.125,2.5781-2.3438,1.1719-1.7968,.3906-2.1875-.3906-2.5781-1.4844-2.1095-2.6562-1.4062-3.125-1.3282-4.1406-.5467-2.9688z"/>
</g>
</g>
</svg>
