<svg xmlns="http://www.w3.org/2000/svg" viewBox="0 0 607.25 832.86" xmlns:xlink="http://www.w3.org/1999/xlink">
<g transform="matrix(.94926 0 0 .94926 1428.46 -113.182)">
<path d="m-1332.6,974.35h301.52l8.434-229.83 56.93-69.58 35.844-175.01-94.883,84.34-69.58-67.472-128.62-27.41 78.014,94.882 42.17,111.75 21.085,23.194-33.736,16.868 2.1085,172.9-27.41-193.98-44.278-4.217 59.038-37.953-130.73-200.31-90.666-35.844 23.194-10.542 18.976-29.519-6.3255-31.627 54.821,50.604 94.882-23.194 10.542-56.929-196.09-88.557-141.27,208.74 187.66,269.89-31.628,248.8z"/>
<path d="m-1246.1,141.49-78.014,103.32 103.32,44.278 59.038-99.099-84.34-48.495z"/>
<path d="m-1149.1,196.31-61.146,94.882 71.689,40.061-10.542,52.712 37.953-25.302 67.472-96.991-105.42-65.363z"/>
<path d="m-1050,286.98 92.774,63.255-130.73,160.25-84.34-40.061 122.29-183.44z"/>
<path d="m-946.72,358.67 65.363,84.34-143.38,128.62-56.93-50.604 134.94-162.35z"/>
<path d="m-1166,413.49-35.844,61.146-59.038-33.736 94.882-27.41z"/>
</g>
</svg>
