<svg xmlns="http://www.w3.org/2000/svg" viewBox="0 0 222.96 479.28" xmlns:xlink="http://www.w3.org/1999/xlink" enable-background="new">
<g transform="translate(161.02 66.782)">
<path fill="#a2271b" d="m774.19-365.44c-15.748,27.749-56.034,98.945-47.5,45.938-22.639,23.936-43.221,72.276-45.188,106.12-1.9026,32.75 1.6762,52.595 14.5,80.75 14.294,31.382 24.21,55.53 30.438,74.031 1.2912,3.8359 3.6438,10.526 5.2188,14.875 5.6014,15.469 8.0208,27.62 12.75,63.969l.9688,7.4375 .2188,17.844c.318,26.99 1.304,44.803 3.3125,59.219 .6069,4.3562 1.4098,8.1954 1.75,8.4062 1.3931,.8634 8.0789-2.1797 12.281-5.5938 2.6509-2.1537 5.5252-5.996 6.7812-9.0938l.5312-1.375 .9688,.8438c2.5434,2.1831 4.3318,1.918 5.5312-.7812 2.7417-6.1703 9.2421-12.753 18.938-19.188 4.426-3.7153 6.1289,2.793 11.188,2.9375 8.8406-23.533 38.651-63.502 53.781-76.938 44.552-38.048 55.414-97.476 27.781-152.16-6.4774-12.818-13.277-21.095-29.25-40.75-19.353-23.814-29.331-43.872-27.125-58.094 .2853-5.5358 9.4116,5.9866 7.7812,.5312-5.4628-17.153 2.9079-53.482-9.2188-63.531-1.4542-1.0781-1.3941-1.3238-1.4062,7.5625-.0363,26.625-3.7453,30.975-12.156,14.25-1.216-2.4181-1.2921-2.3348-3.5625,3.3125-14.551,36.193-16.453,73.158-4.9688,97.281 14.169,29.764 19.749,73.751 11.75,92.719l-.3438,.8438-1.24-3.933c-3.0359-9.534-14.341-42.372-24.125-70.094-3.3029-9.3579-7.0883-20.352-8.4062-24.438-1.318-4.0859-2.9926-9.1724-3.7188-11.281-14.267-41.43-16.674-52.435-16.656-75.719 .0116-15.051 .7898-21.217 5.1562-40.625 4.9682-22.082 6.0154-34.277 3.875-44.5-.1039-.4965-.2944-.7598-.625-.7812zm55.031,405.91c.0123,.0124-.0701,.1225-.2188,.3125-.3122,.3992-.5,.5097-.5,.3125 0-.0498 .1762-.2253 .4062-.4062 .1895-.149 .3002-.2311 .3125-.2188z" transform="translate(-841.82 298.92)"/>
<path fill="#b1191c" fill-opacity=".591" d="m428.95,1061c-9.7542-10.151-14.51-38.572-26.466-20.27-13.38-17.572-10.536,29.915-23.75,3.4761-22.534-42.48-46.936-84.284-77.471-121.5-10.794-25.209-42.425-38.466-48.538-64.569-23.02-16.598-43.288-41.225-47.469-71.915-5.8031-29.663-22.392-56.64-21.722-87.672-3.3881-29.192-9.3005-57.337-3.5994-86.694 .9781-23.408 4.4494-41.635 6.1916-66.509 .597-12.283-1.1369-60.43 5.5937-24.971 3.8257,36.598 27.265,67.71 53.778,91.45-9.844-11.358 30.658-28.964 14.959-36.105-2.1976-21.136 30.351-48.349 37.404-72.946 5.0765-19.111 6.5805,20.89 16.992-3.0862 8.0017-16.706 10.665-33.601 9.0089-54.667-2.336-35.043 6.3333,21.484 2.1214,30.967-6.1355,73.829 11.598,146.88 25.977,218.79 25.049,110.61 58.515,219.53 103.2,323.8 4.3833,16.12 11.453,33.414 6.3273,34.387 8.6487,26.862-10.377-19.268-5.9782,5.3589-16.933-18.715 .7792,17.062-15.817,.8588 5.7305,9.1717-9.9416,10.546-10.744,1.8084zm232.38-202.55c-9.9566-9.6902-11.858-23.141-22.688-37.529-5.93-17.49-5.7-30.99-10.64-48.59 11.366,16.023 13.573,47.646 32.215,54.245 24.102-9.9981 32.608,11.176 14.203,26.091-29.387,6.059 21.421,1.8615-9.2093,6.913l-3.8822-1.1353zm-1.4099-3.7298c-12.272-10.269-.4143,1.7027 0,0zm-337.73-427.22c1.0899-4.7491 .5864,6.0235 0,0zm-1.116-5.0833c.6433-3.854 1.0144,4.5516 0,0z" transform="matrix(.23897 0 0 .23964 -161.01 -66.791)"/>
<path fill="#cd5a26" d="m113.15,32.863c-8.7749,16.635-14.313,35.538-12.062,54.656 1.8181,16.76 7.9304,40.969 10.138,57.543-3.2569,25.689 8.8422,50.334 16.835,74.219 6.8568,16.16 8.341,36.083 20.007,49.512 9.6676-.4077 6.6895-8.2814 2.6992-17.354-.7681-.6986-5.0474,3.6209-8.2884-6.3561-6.7657-13.995-13.22-29.334-9.5725-45.125-7.0141-28.4-15.663-40.215-17.429-56.074 4.9883-10.303-11.058-48.52-9.3894-65.616 1.2422-15.318 3.3755-30.473 7.0625-45.406zm45.38,43.575c-4.5549,7.7489-2.3619,12.048-2.5625,22.906-.5379,24.871-2.2407,49.432-3.4375,74.031 .1902,7.0684 3.9071,16.17 9.2188,19.719 5.0341,.2704 .8405-13.936 4.6875-19.562 .4642-12.594-11.801-31.891-1.9688-41.969 5.3951-13.999 1.4258-30.644-1.9375-45.094-4.6551-10.66-.2362-3.9945-3.4375-9.375 .0188,1.002-.542-.683-.5625-.6562zm2.8438,4.75l1.375,2.1562zm-93.75,8.9375c-.1632,.1366-.2667,.3923-.375,.6875 .1263-.2269 .2524-.4583 .375-.6875zm-.375,.6875c-9.8362,17.675-30.569,28.729-33.312,50.219-3.9498,26.115-1.5285,53.574 7.25,78.5 16.193,39.58 31.431,79.71 42.411,121.03 4.8318,21.104 9.7731,42.43 8.3438,64.25 .8428,21.523-2.1738,43.532 2.25,64.719 7.7364-2.8115 13.257-15.434 20.156-18.031 8.3016,11.928 9.3194-16.686 15.438-20.5 7.6956-14.723 .4482,6.1552 8.875,6.1562 13.089-10.835 15.873-34.026 32.406-42.969 17.525-6.83 24.539-27.276 35.219-41.5 6.5727-8.5897 11.284-19.974 21.531-24.5 10.083-8.7005 7.0553-22.738 2.9375-33.438-2.0194-15.857-4.7932-31.621-7.8125-47.281-1.4717-16.358-1.961-34.805-9.0625-49.031-3.7202-3.4123-5.1814-.0793-7.75,4.25-.5869,8.0347-8.2722,9.8806-12.094,15.844-4.8153,15.284-16.239-1.8435-21.719-5.1875-6.5365-4.7525-3.4162,12.314-5.375,19.688-.4252,18.241 13.09,22.808 16.062,39.312 3.0648,10.668 4.5855,37.492-13.062,32.812-12.864,.2384-18.791-11.515-26.438-20-6.3897-8.3173-13.681-15.879-23.625-19.344-7.3807-5.5989-12.24-21.147-22.438-19.125-7.5074,.6331 2.402,28.915-9.5,14.781-8.015-11.74-15.371-24.37-20.181-37.77-4.6094-21.115-4.1219-42.893-6.8125-64.25-.1825-22.313-1.735-45.177 6.3125-66.375-.482,1.3932-.5129-.9366-.0312-2.25zm-14.469,22.875c.398,.0236 .0516,.8972-1.4062,2.9688-3.8471,4.154-7.3475,24.011-12.469,16.875-3.278-4.0399 12.15-19.946 13.875-19.844z" transform="translate(-180.69 -70.721)"/>
<path fill="#d59659" d="m952.22-110.56c-7.4956,8.4066-10.56,19.621-15.144,29.687-6.944,6.563-7.6677,16.604-13.168,24.076-8.3806,6.8704-20.449,.5928-29.562-.3252-10.262-6.4046-18.806-17.126-31.206-19.198-6.9127-1.3193-13.923-2.9289-11.794,6.6978-1.0398,13.049-.6548,26.17-.1486,39.186-1.8452,11.761-9.4053-6.7639-12.017-10.621-6.0455-10.02-10.628-21.184-18.478-29.894-7.563-2.8873-.8449,13.57-.8061,17.909 4.498,23.696 10.635,47.282 10.379,71.588 .9279,20.555 .8063,41.205 2.8835,61.676 1.8267,2.6473 6.7476,5.9843 12.406,5.5938 4.4672-4.1995 7.0904-5.3896 11.2,.1707 5.1935-14.456 9.7232-29.57 19.019-42.014 10.131-1.4581-1.7238,14.215-1.1818,20.103-.2206,11.599 8.4726-.6142 9.7738-5.6122 7.0603-11.582 14.955-22.853 24.118-32.867 9.4-2.84 16.93-9.692 21.7-18.534 9.5356-15.684 18.544-31.885 26.375-48.406 .5906-17.128 .9195-34.444 .4688-51.625-1.9698-5.6096 .07-13.499-4.8126-17.594z" transform="translate(-915.13 278.62)"/>
</g>
<g fill="#fff" transform="translate(161.02 66.782)">
<path fill-opacity=".929" d="m411.18,1760c-12.631-23.736-48.457,7.9999-52.991-20.759-10.662-28.962-3.2634-60.516-3.4707-90.555 1.2384-31.497 1.3722-63.032 2.8142-94.52 14.96-2.5651 22.384,34.68 37.592,9.8989 32.373-28.411 60.336-66.772 61.652-111.36 5.8934-18.59 20.184-33.727 27.945-51.878 12.187-14.381 11.956-34.864 22.15-49.475 18.433-8.8209 32.414,15.352 51.003,15.863 19.051,.7604 32.842,15.159 37.43,32.606 9.2082,25.143 11.485,52.385 15.935,78.635 .2601,3.2302 2.1892-11.451 .927,3.0397-3.7333,11.521-4.0315,27.73-12.981,39.739-1.919,14.268-13.16,28.53-20.277,41.926-8.3049,14.102-17.876,28.855-26.13,43.49-7.6325,10.819-11.444,30.861-24.943,34.608-26.217-.6418-55.475,2.675-73.713,23.671-12.578,21.77-15.99,47.51-26.241,70.422-4.0953,4.8015-8.9605,36.829-16.701,24.651zm199.5-275.15c-1.7619-1.8968 .6307,5.7705 0,0z" transform="matrix(.23897 0 0 .23964 -157.01 -90.791)"/>
<path d="m411.18,1760c-12.631-23.736-48.457,7.9999-52.991-20.759-10.662-28.962-3.2634-60.516-3.4707-90.555 1.2384-31.497 1.3722-63.032 2.8142-94.52 14.96-2.5651 22.384,34.68 37.592,9.8989 32.373-28.411 60.336-66.772 61.652-111.36 5.8934-18.59 20.184-33.727 27.945-51.878 12.187-14.381 11.956-34.864 22.15-49.475 18.433-8.8209 32.414,15.352 51.003,15.863 19.051,.7604 32.842,15.159 37.43,32.606 9.2082,25.143 11.485,52.385 15.935,78.635 .2601,3.2302 2.1892-11.451 .927,3.0397-3.7333,11.521-4.0315,27.73-12.981,39.739-1.919,14.268-13.16,28.53-20.277,41.926-8.3049,14.102-17.876,28.855-26.13,43.49-7.6325,10.819-11.444,30.861-24.943,34.608-26.217-.6418-55.475,2.675-73.713,23.671-12.578,21.77-15.99,47.51-26.241,70.422-4.0953,4.8015-8.9605,36.829-16.701,24.651zm199.5-275.15c-1.7619-1.8968 .6307,5.7705 0,0z" transform="matrix(.05974 0 0 .05991 -68.533 186.88)"/>
</g>
</svg>
