<svg xmlns="http://www.w3.org/2000/svg" viewBox="0 0 578.41 702.32" xmlns:xlink="http://www.w3.org/1999/xlink">
<defs>
<linearGradient gradientTransform="translate(-164.43 -280.5)" id="linearGradient2503" y1="489.43" x1="336.6" y2="419.78" gradientUnits="userSpaceOnUse" x2="280.5">
<stop offset="0"/>
<stop offset="1" stop-opacity="0"/>
</linearGradient>
<linearGradient id="linearGradient2927">
<stop offset="0" stop-color="#f9f9f9"/>
<stop offset="1" stop-color="#f9f9f9" stop-opacity="0"/>
</linearGradient>
<linearGradient id="linearGradient2507" xlink:href="#linearGradient2927" y1="226.49" x1="277.74" y2="313.39" gradientUnits="userSpaceOnUse" x2="212.45"/>
<linearGradient id="linearGradient2505" xlink:href="#linearGradient2927" y1="230.14" x1="405.6" y2="312.02" gradientUnits="userSpaceOnUse" x2="227.3"/>
<radialGradient cx="372.39" cy="904.37" gradientTransform="matrix(1 0 0 .45838 0 489.83)" id="radialGradient2499" r="289.31" gradientUnits="userSpaceOnUse">
<stop offset="0" stop-color="#77bbb0"/>
<stop offset="1" stop-color="#77bbb0" stop-opacity="0"/>
</radialGradient>
<radialGradient cx="372.39" cy="904.37" gradientTransform="matrix(1 0 0 .45819 0 490)" id="radialGradient2501" r="289.21" gradientUnits="userSpaceOnUse">
<stop offset="0" stop-color="#59a09a"/>
<stop offset="1" stop-color="#59a09a" stop-opacity="0"/>
</radialGradient>
</defs>
<g transform="translate(81.252 -11.51)">
<path fill="url(#radialGradient2499)" d="m661.6,904.37a289.21,132.51 0 1,1 -578.42,0 289.21,132.51 0 1,1 578.42,0z" transform="matrix(.15719 0 0 .16788 318.92 196.78)"/>
<path fill="url(#radialGradient2501)" d="m661.6,904.37a289.21,132.51 0 1,1 -578.42,0 289.21,132.51 0 1,1 578.42,0z" transform="translate(-164.43 -323.06)"/>
</g>
<g fill-rule="evenodd">
<g transform="translate(81.252 -11.51)">
<path fill="#59a09a" stroke="#59a09a" stroke-width="1.319" d="m127.06,581.74c21.22-60.59 47.02-111.64 70.53-167.46 7.28-20.63 7.02-41.27 4.37-61.9-3.19-28.31-15.71-51.75-24.96-76.89l-19.98-35.84c-14.44-29.42-31.53-47.77-47.44-71.03-4.53,11.33-8.73,22.44-18.101,37.14-7.201,15.06-19.827,20.68-31.834,27.37-13.293,4.87-26.985,11.83-38.701,8.47-30.103-4.04-39.873-22.95-54.306-38.44-14.955-19.77-10.878-39.53-11.86-59.3 7.367-30.48 21.372-49.407 38.701-62.554 19.35-15.014 38.701-19.19 58.051-26.064 36.236-5.749 67.74,3.33 89.89,41.703l54.93,97.095c17.97,26.83 35.71,53.82 61.79,75.58l29.34,19.55c34.05-12.63 57.96-26.58 78.03-48.87 29.09-38.23 26.69-76.46 38.07-114.68 2.17-26.336 6.97-51.571 25.59-71.03 8.54-7.006 17.07-6.909 25.6-7.168 10.68,1.835 17.36,6.451 23.09,11.729 6.86,7.823 7.82,17.182 8.12,26.716-3.11,31.063-19.53,62.123-31.84,93.183-11.54,21.07-21.48,42.14-39.32,63.2l-48.69,38.45-56.8,27.37c-7.39,1.68-8.5,6.64-9.37,11.73-6.05,13.23-3.18,31.13-3.12,47.56 3.26,38.45 5.58,76.89 .63,115.34 .93,38.51-10.31,74.48-16.86,111.43-67.67,39.49-136.62,28.34-153.55-12.39z"/>
</g>
<g fill="#77bbb0" stroke="#000">
<g stroke-width=".264" transform="translate(81.252 -11.51)">
<path d="m226.31,613.67c2.08-14.33 7.64-28.67 1.25-43-12.21-17.09-31.96-27.69-45.57-36.82-11.15-11.4-6.56-25.41 2.5-35.19 16.23-10.6 32.45-1.07 48.68,12.71 10.75,12.86 23.37,24.55 26.22,42.36 .69,18.02 .1,36.05-4.99,54.08l-28.09,5.86z"/>
<path d="m206.65,616.28c-6.04-28.05-27.69-48.73-68.67-60.27-3.56,4.49-6.65,9.23-5.3,16.29l29.65,8.47c7.6,1.94 26.38,13.18 21.22,19.22-2.08,4.78-35.91-12.1-51.81-12.71 16.93,31.9 65.87,34.49 74.91,29z"/>
<path d="m187.61,438.39l11.23-25.74c31.5,38.27 72.71,67.05 93.63,115.01-.08,20.5-7.77,44.1-11.54,66.14l-14.05,7.82c14.48-30.83 10.74-60.5-2.18-89.6-24.94-25.93-49.01-53.44-77.09-73.63z"/>
<path d="m249.72,404.51c19.25-20.71-2.47-33.12-8.43-34.87-41.72,8.36-27.82,63.81 13.73,59.95 42.88-12.01 40.87-58.23 15.29-86.34-33.52-24.64-50.45-11.77-69.59-3.91l3.43,24.44c26.94-10.84 39.89-23.32 62.42,1.96 12.9,13.1 3.76,48.09-16.85,38.77z"/>
<path d="m297.16,363.13c-18.1-19.26-23.91-43.64-27.47-67.12 8.69,10.11 14.49,27.01 26.22,29.98l1.25,37.14z"/>
<path d="m271.87,279.4c-7.19,29.31-104.01,34.12-56.49,5.86-24.94-4.31-27.88-20.88-33.08-29.65-11.54-28.16 5.73-49.52 16.54-57.34l7.18,10.43c-25.25,29.35-2.5,73.87 34.33,64.18l12.8-8.8 18.72,15.32z"/>
<path d="m215.7,222.71c-10.52,22.91 3.6,29.07 23.4,28.99l-23.4-28.99z"/>
<path d="m150.47,115.52c-35.83,32.32-20.46,76.77 22.78,39.74l-22.78-39.74z"/>
<path d="m54.963,115.52c-50.726-51.32-84.582,54.66-9.987,69.72 42.087-14.01 57.554-50.24 84.894-76.57l-19.98,59.3c-12.179,27.41-21.271,57.82-60.545,67.77-34.184,26.19-74.779-16.77-27.465-34.86-36.507-11.01-35.976-23.03-42.446-34.86-4.069-21.61-4.8-41.9 4.37-58.32 7.6915-12.826 18.333-22.569 34.331-26.72 140.56-16.751-11.03,138.12 6.242,34.54 9.211-9.26 19.724-6.27 30.586,0z"/>
<path d="m321.5,273.86c3.66,7.46 14.92,9.52 24.34,10.1 13.38-37.37 37.96-30.08 63.36-42.68 9.32-5.37 13.89-9.12 16.85-15.32-13.83-7.35-30.48-14.57-44.31-14.98-10.38,27.43-33.28,45.84-60.24,62.88z"/>
<path d="m391.41,180.03l45.88,28.34 20.29-38.77c-68.92-3.02-21.62-73.294 26.84-72.655l.62-15.639c-85.1-9.44-82.5,50.034-93.63,98.724z"/>
</g>
<g transform="translate(81.252 -11.51)">
<path stroke-width=".272" d="m410.14,92.793c20.8-14.857 44.46-27.153 70.22-29.161-5.79-13.535-22.2-15.842-38.7-15.623-16.17,6.605-28.25,22.624-31.21,43.049l-.31,1.735z"/>
</g>
</g>
<g transform="translate(81.252 -11.51)">
<path fill="#59a09a" stroke="#59a09a" stroke-width="1.319" d="m196.35,193.38c10.15-48.67 25.66-97.482 42.44-142.7 8.08-42.861-33.66-56.032-44.63-7.819-13.12,34.546-18.05,75.909-20.38,115.64l22.57,34.88z"/>
</g>
<g fill="#77bbb0" stroke="#000" stroke-width=".264" transform="translate(81.252 -11.51)">
<path d="m182.61,86.845c15.46,.397 29.83,2.882 38.7,11.077l4.37-13.032c-10.72-12.997-25.08-13.107-39.01-15.313l-4.06,17.268z"/>
<path d="m180.12,103.46c11.92-2.44 27.58-5.401 38.7,4.89l-7.81,22.8c-12.07-.45-26.89,8.4-38.2,14.34l7.31-42.03z"/>
</g>
<g transform="translate(81.252 -11.51)">
<path fill="#59a09a" stroke="#59a09a" stroke-width="1.319" d="m347.98,604.24c-6.52-32.02-3.03-64.91-22.07-95.84 .6-5.37 6.41-7.47 12.8-9.21 13.95,3.76 27.26,5.74 44.58,18.89 8.07-2.99 17.85,7.35 23.84-11.98-3.42-32.5-54.47-27.68-75.92-23.04-15.98,9.06-21.23,23.15-18.54,41.01 4.16,8.97 1.39,21.54 1.32,32.71-4.37,13.87-6.78,29.78-8.82,46.08 11.99,8.53 24.99,13.52 42.81,1.38z"/>
</g>
<g fill="#77bbb0" stroke="#000" stroke-width=".264" transform="translate(81.252 -11.51)">
<path d="m310.9,605.16c20.11-14.74 19.59-29.49 12.8-44.23-9.61-17.03-8.61-36.87 13.69-22.58 3.27,16.43 8.28,29.86 7.06,47.46l-12.8,13.82 13.68-5.53 1.33,10.14c-11.92,5.55-23.84,10.98-35.76,.92z"/>
<path d="m378.88,481.68l9.27,1.38-11.48,30.41-11.03-5.99c8.45-2.65 16.36-13.48 13.24-25.8z"/>
</g>
<g transform="translate(81.252 -11.51)">
<path fill="#59a09a" stroke="#59a09a" stroke-width="1.319" d="m388.59,611.15c5.24-29.16 21.08-44.81 36.63-60.82 12.45-11.67 39.71,2.15 22.51,20.28-12.01,14.59-36.64,22.68-38.4,40.54h-20.74z"/>
<path fill="#77bbb0" stroke="#000" stroke-width=".264" d="m419.04,557.7c8.89,2.88 16.07,12.71 20.31,21.66l-7.07,3.23c-4.21-7.21-9.96-13.34-21.18-15.67l7.94-9.22z"/>
<path fill="#59a09a" stroke="#59a09a" stroke-width="1.319" d="m102.57,606.55c-36.845,19.46-53.847,10.31-66.204-5.53 14.75-31.18 32.032-62.36 33.103-93.54-1.371-29.7-16.593-48.89-30.455-69.11l-14.124-8.3c-16.919,73.28-94.92,30.19-34.428-25.8 39.602-18.9 57.638,6.7 80.773,36.4 40.905,55.57 46.525,98.05 31.335,165.88z"/>
</g>
<g fill="#77bbb0" stroke="#000" stroke-width=".264" transform="translate(81.252 -11.51)">
<path d="m41.662,608.39c16.393-26.86 38.928-44.1 67.088-52.53l-.88,18.89c-19.824,7.15-35.472,23.01-49.435,42.39l-16.773-8.75z"/>
<path d="m95.952,478.45c-37.14-1.41-39.025-25.72-37.076-51.14"/>
<path d="m62.849,542.96c14.994,2.85 20.116-11.49 28.689-19.81-5.496,24.69-26.911,43-47.227,61.74l18.538-43.77v1.84z"/>
<path d="m29.304,431.92c-22.215,16.41-40.233,20.29-55.173-5.07 2.269-16.58 37.276-48.2 73.711-14.28-.663,9.47-2.089,18.41-9.711,23.03l-8.827-3.68z"/>
</g>
<g transform="translate(81.252 -11.51)">
<path fill="#59a09a" stroke="#59a09a" stroke-width="1.319" d="m109.19,513.47l19.87-11.52c-9.94-24.41-23.65-46-26.05-76.02 5.79-27.76 20.1-52.84 15.45-83.86-7.23-24.58-17.69-44.77-36.632-53.45-47.668-36.27-78.338,45.06-7.504,29.49 43.046,31.76 21.563,59.38 0,105.05l-2.648,19.35c17.111,18.85 27.297,44.92 37.514,70.96z"/>
</g>
<g fill="#77bbb0" stroke="#000" stroke-width=".264" transform="translate(81.252 -11.51)">
<path d="m83.152,405.19c13.112,1.16 18.948,8.39 20.308,19.35-7.3-4.35-18.443-2.01-29.136-.46l8.828-18.89z"/>
<path d="m72.118,292.77c-5.243-3.88-11.791-6.42-20.304-4.61-21.691,14.65-4.134,37.12 17.214,24.42l6.621-12.44c-5.434,16.3-18.019,5-22.952,1.84 .257-8.2 11.111-10.61 19.421-9.21z"/>
</g>
<g transform="translate(81.252 -11.51)">
<path fill="#59a09a" stroke="#59a09a" stroke-width="1.319" d="m358.99,354.88c6.64-25.36 55.33-63.04 43.69-23.5-3.12,11.07-23.12,10.14-27.8,25.35l-15.89-1.85z"/>
<path opacity=".454" fill="url(#linearGradient2503)" d="m9.4227,202.5c40.785-38.84 26.208,30.03 129.44-74.78 41.65,20.31 38.72,49.1 64.22,75.15-39.64,12.75-31.47,16.75-42.07,41.8-48.96-79.91-41.15-60.2-53.27-75.52-8.587,60.72-107.48,111.2-98.317,33.35z"/>
</g>
</g>
<g transform="translate(81.252 -11.51)">
<path fill="url(#linearGradient2505)" d="m290.17,289.21a62.871,39.657 0 1,1 -125.74,0 62.871,39.657 0 1,1 125.74,0z" transform="matrix(.80355 0 0 1.777 -115.16 -389.01)"/>
<path fill="url(#linearGradient2507)" d="m290.17,289.21a62.871,39.657 0 1,1 -125.74,0 62.871,39.657 0 1,1 125.74,0z" transform="matrix(.40769 0 0 .80488 -96.33 200.4)"/>
</g>
</svg>
