<svg xmlns="http://www.w3.org/2000/svg" viewBox="0 0 480 550" xmlns:xlink="http://www.w3.org/1999/xlink">
<defs>
<filter color-interpolation-filters="sRGB" id="filter5623">
<feGaussianBlur stdDeviation="6.43612"/>
</filter>
<filter width="1.279" x="-.14" y="-.081" height="1.162" color-interpolation-filters="sRGB" id="filter5619">
<feGaussianBlur stdDeviation="6.43612"/>
</filter>
<filter width="1.344" x="-.172" y="-.076" height="1.152" color-interpolation-filters="sRGB" id="filter5615">
<feGaussianBlur stdDeviation="6.43612"/>
</filter>
<filter width="1.637" x="-.319" y="-.084" height="1.168" color-interpolation-filters="sRGB" id="filter5611">
<feGaussianBlur stdDeviation="6.43612"/>
</filter>
<filter width="3.875" x="-1.438" y="-.188" height="1.376" color-interpolation-filters="sRGB" id="filter5085">
<feGaussianBlur stdDeviation="15.5266"/>
</filter>
<filter color-interpolation-filters="sRGB" id="filter6656">
<feGaussianBlur stdDeviation="2.92016"/>
</filter>
<filter width="3.47" x="-1.235" y="-.299" height="1.598" color-interpolation-filters="sRGB" id="filter5061">
<feGaussianBlur stdDeviation="15.5266"/>
</filter>
<filter width="1.716" x="-.358" y="-.317" height="1.634" color-interpolation-filters="sRGB" id="filter5057">
<feGaussianBlur stdDeviation="15.5266"/>
</filter>
<filter width="1.32" x="-.16" y="-.213" height="1.426" color-interpolation-filters="sRGB" id="filter5069">
<feGaussianBlur stdDeviation="15.5266"/>
</filter>
<filter width="3.771" x="-1.385" y="-.288" height="1.576" color-interpolation-filters="sRGB" id="filter5065">
<feGaussianBlur stdDeviation="15.5266"/>
</filter>
<filter width="3.696" x="-1.348" y="-.174" height="1.348" color-interpolation-filters="sRGB" id="filter5081">
<feGaussianBlur stdDeviation="15.5266"/>
</filter>
<filter width="1.476" x="-.238" y="-.124" height="1.249" color-interpolation-filters="sRGB" id="filter5093">
<feGaussianBlur stdDeviation="15.5266"/>
</filter>
<filter width="1.188" x="-.094" y="-.16" height="1.321" color-interpolation-filters="sRGB" id="filter5097">
<feGaussianBlur stdDeviation="15.5266"/>
</filter>
<filter width="1.462" x="-.231" y="-.154" height="1.308" color-interpolation-filters="sRGB" id="filter5073">
<feGaussianBlur stdDeviation="15.5266"/>
</filter>
<filter width="1.55" x="-.275" y="-.077" height="1.154" color-interpolation-filters="sRGB" id="filter5607">
<feGaussianBlur stdDeviation="6.43612"/>
</filter>
<filter width="1.116" x="-.058" y="-.169" height="1.338" color-interpolation-filters="sRGB" id="filter5945">
<feGaussianBlur stdDeviation="6.48838"/>
</filter>
<filter width="2.343" x="-.671" y="-.151" height="1.302" color-interpolation-filters="sRGB" id="filter5077">
<feGaussianBlur stdDeviation="15.5266"/>
</filter>
<filter width="1.161" x="-.081" y="-.288" height="1.577" color-interpolation-filters="sRGB" id="filter5101">
<feGaussianBlur stdDeviation="15.5266"/>
</filter>
<filter width="1.483" x="-.241" y="-.108" height="1.216" color-interpolation-filters="sRGB" id="filter5089">
<feGaussianBlur stdDeviation="15.5266"/>
</filter>
<linearGradient gradientTransform="matrix(.42279 0 0 .54157 98.98 152.52)" id="linearGradient4067" xlink:href="#linearGradient4069" y1="400.9" x1="283.31" y2="504.55" gradientUnits="userSpaceOnUse" x2="221.12"/>
<linearGradient gradientTransform="matrix(.42279 0 0 .54157 98.98 152.52)" id="linearGradient4915" y1="645.05" x1="361.62" y2="366.35" gradientUnits="userSpaceOnUse" x2="246.45">
<stop offset="0" stop-color="#452baa"/>
<stop offset="1" stop-color="#ff9bff"/>
</linearGradient>
<linearGradient gradientTransform="matrix(.42279 0 0 .54157 98.98 152.52)" id="linearGradient4913" xlink:href="#linearGradient4069" y1="456.18" x1="426.11" y2="601.29" gradientUnits="userSpaceOnUse" x2="257.97"/>
<linearGradient gradientTransform="matrix(.42279 0 0 .54157 98.98 152.52)" id="linearGradient4911" xlink:href="#linearGradient4069" y1="269.61" x1="631.11" y2="440.06" gradientUnits="userSpaceOnUse" x2="345.5"/>
<linearGradient gradientTransform="matrix(.42279 0 0 .54157 98.98 152.52)" id="linearGradient4081" y1="430.84" x1="520.55" y2="504.55" gradientUnits="userSpaceOnUse" x2="294.82">
<stop offset="0" stop-color="#683bc2"/>
<stop offset="1" stop-color="#f0f"/>
</linearGradient>
<linearGradient gradientTransform="matrix(.42279 0 0 .65617 98.98 85.992)" id="linearGradient4105" y1="645.05" x1="147.41" y2="891.51" gradientUnits="userSpaceOnUse" x2="149.71">
<stop offset="0" stop-color="#927571"/>
<stop offset="1" stop-color="#cf9"/>
</linearGradient>
<linearGradient gradientTransform="matrix(.42279 0 0 .54157 98.98 152.52)" id="linearGradient4935" y1="338.71" x1="-66.796" y2="488.43" gradientUnits="userSpaceOnUse" x2="375.44">
<stop offset="0" stop-color="#452baa"/>
<stop offset="1" stop-color="#ff9bff"/>
</linearGradient>
<linearGradient gradientTransform="matrix(.42279 0 0 .54157 98.98 152.52)" id="linearGradient4053" y1="133.72" x1="6.91" y2="486.12" gradientUnits="userSpaceOnUse" x2="147.41">
<stop offset="0" stop-color="#6c46d1"/>
<stop offset="1" stop-color="#ff9bff"/>
</linearGradient>
<linearGradient id="linearGradient5955" y1="476.91" y2="527.58" x1="198.08" gradientUnits="userSpaceOnUse" x2="193.48">
<stop offset="0" stop-color="#ff9bff"/>
<stop offset="1" stop-color="#60c"/>
</linearGradient>
<linearGradient id="linearGradient5665" y1="564.42" x1="-538.9" y2="619.75" gradientUnits="userSpaceOnUse" x2="-480.89">
<stop offset="0" stop-color="#8361d6"/>
<stop offset="1" stop-color="#eee"/>
</linearGradient>
<linearGradient gradientTransform="matrix(.42279 0 0 .54157 98.98 152.52)" id="linearGradient4097" y1="649.66" x1="331.68" y2="502.25" gradientUnits="userSpaceOnUse" x2="248.76">
<stop offset="0" stop-color="#60c"/>
<stop offset="1" stop-color="#f0f"/>
</linearGradient>
<linearGradient gradientTransform="matrix(.45639 0 0 .54157 90.495 193.69)" id="linearGradient5967" y1="723.36" x1="301.73" y2="879.99" gradientUnits="userSpaceOnUse" x2="168.14">
<stop offset="0" stop-color="#015a01"/>
<stop offset="1" stop-color="#390"/>
</linearGradient>
<linearGradient id="linearGradient4069">
<stop offset="0" stop-color="#683bc2"/>
<stop offset="1" stop-color="#ff9bff"/>
</linearGradient>
<linearGradient gradientTransform="translate(-34.55 145.11)" id="linearGradient6446" y1="524.36" x1="272.53" y2="408.6" gradientUnits="userSpaceOnUse" x2="365.55">
<stop offset="0" stop-color="#54bd20"/>
<stop offset="1" stop-color="#98fc66"/>
</linearGradient>
<linearGradient gradientTransform="matrix(1.0799 0 0 1.0831 -82.048 115.37)" id="linearGradient6454" y1="569.04" x1="255.67" y2="449.27" gradientUnits="userSpaceOnUse" x2="253.36">
<stop offset="0" stop-color="#327a0e"/>
<stop offset="1" stop-color="#98fc66"/>
</linearGradient>
<linearGradient gradientTransform="matrix(.42279 0 0 .54157 98.98 152.52)" id="linearGradient5987" y1="1071.2" x1="117.47" y2="951.39" gradientUnits="userSpaceOnUse" x2="119.77">
<stop offset="0" stop-color="#5b6360"/>
<stop offset="1" stop-color="#390"/>
</linearGradient>
</defs>
<g stroke="#39a10e" transform="translate(0 -194.09)">
<path fill="url(#linearGradient6446)" filter="url(#filter6656)" stroke-width=".999" d="m417.53,564.7c-80.86,24.73-165.84,43.52-205.99,126.91l57.454,22.358s5.3397-54.821 42.817-88.229c30.375-27.077 105.72-61.038 105.72-61.038z" transform="matrix(-1.0431 -.28033 -.2795 1.0462 621.76 63.089)"/>
<path opacity=".795" fill="url(#linearGradient6454)" stroke-width="1.081" d="m142.26,512.05s57.072,101.81 66.916,171.57c2.7026,19.151-12.994,59.557-12.994,59.557l-48.441-7.517s41.433-50.298 37.134-93.01c-4.5861-45.574-42.615-130.6-42.615-130.6z"/>
</g>
<g stroke="#000">
<g stroke-width=".479" transform="translate(0 -194.09)">
<path fill="url(#linearGradient4053)" d="m169.1,417.04-15.581-12.474s-28.96-58.95-48.691-82.328c-15.005-17.778-32.619-32.738-51.613-42.411-16.269-8.2857-45.745,8.6554-51.613-12.474-4.5545-16.402 14.956-30.315 26.293-39.916 7.3657-6.2385 16.533-8.8565 25.319-9.9791 9.7385-1.2443 19.43,3.9931 29.215,3.7421 20.975-.5379 41.604-7.0197 62.325-11.226 11.069-2.2473 21.986-5.7407 33.11-7.4844 9.3661-1.468 19.03-5.1221 28.241-2.4948 3.2621,.9306 7.2928,2.3934 8.7644,6.237 12.291,32.101-4.3363,71.901-12.66,106.03-4.4157,18.105-13.925,33.559-19.476,51.143-5.5034,17.432-13.633,53.638-13.633,53.638z"/>
<path fill="url(#linearGradient4067)" d="m171.04,414.54c-6.3296-23.63 11.039-48.02 18.503-71.101 5.2776-16.321 13.718-30.833 18.503-47.401 5.1079-17.687 9.6087-36.08 10.712-54.885 .5131-8.7466-.0598-17.764-1.9477-26.195-1.2006-5.3623-8.5905-10.64-5.8429-14.969 11.226-17.685 34.514,11.152 51.613,17.464 15.686,5.79 30.782,14.328 46.743,18.711 7.9919,2.1943 16.177,3.3662 24.346,3.7422 6.8201,.314 9.7383-3.7422 20.45-1.2474s12.66,8.7317 12.66,13.721c0,4.9896-8.8862,10.299-13.633,14.969-10.926,10.747-21.603,22.469-34.084,29.937-7.6352,4.569-17.103,3.2127-24.346,8.7317-13.218,10.073-21.713,27.925-32.136,42.411-2.3386,3.2501-9.3223,6.9401-6.8168,9.9791 13.834,16.78 25.285-37.16 40.901-51.143 14.161-12.68 31.944-17.27 46.744-28.69 9.3427-7.2093 15.576-22.353 26.293-24.948 12.225-2.9595 24.473,6.5782 36.031,12.474 4.4527,2.2712 8.8145,5.0671 12.66,8.7318 3.3147,3.1591 5.3152,8.3132 8.7644,11.226 2.9187,2.4653 9.6642,.5123 9.7382,4.9896 .4522,27.351-38.959,22.436-58.429,33.68-20.132,11.625-40.037,23.914-60.377,34.927-22.82,12.356-47.864,18.672-69.141,34.927-6.9251,5.2903-12.405,13.2-18.503,19.958-5.9119,6.552-17.529,19.958-17.529,19.958l-1.9476,8.7318-12.66-2.4948-5.843-13.721s-6.6798-.8721-9.7382-2.4948c-4.3252-2.2948-10.167-4.307-11.686-9.9791z"/>
<path fill="url(#linearGradient4081)" d="m210.97,437 32.136-42.411 34.084-17.463 45.77-21.206 29.215-19.958 16.555-12.474 38.953-9.9791 23.372-8.7317 5.8429-16.216 18.503,28.69 1.9476,17.463 14.607,11.227 .9738,17.463 6.8167,22.453-9.7382,23.7-4.8692,12.474-18.503,2.4948-15.581,7.4844-43.822-16.216-37.979-9.9791-8.7644-9.9791-49.665,16.216-37.005,22.453-17.529,9.9792-17.529,1.2474z"/>
<path fill="none" d="m211.94,440.74z"/>
<path fill="#452baa" d="m162.28,418.29s-23.405,15.034-36.031,14.969c-6.1589-.0319-11.519-9.2076-17.529-7.4844-9.6342,2.7622-11.553,25.985-21.424,26.195-12.183,.2598-23.487-16.347-27.267-31.185-1.4418-5.6596 .5563-12.339 2.9215-17.463 3.279-7.1047 12.904-8.2562 14.607-16.216 .5426-2.5362-.4192-5.7288-1.9476-7.4844-9.1486-10.508-24.972-3.1196-36.031-9.9791-12.871-7.98-25.112-19.75-33.113-34.93-3.619-6.87-7.4736-15.68-5.8427-23.7 1.9108-9.39 13.064-11.34 16.555-19.96 1.0575-2.6095-.7221-6.7505 .9739-8.7318 9.6055-11.222 26.46-7.1029 38.953-2.4948 11.423,4.2135 19.673,17.114 29.215,26.195 10.946,10.418 22.99,19.475 32.136,32.432 8.5155,12.064 20.45,41.164 20.45,41.164z"/>
<path fill="url(#linearGradient4097)" d="m178.83,424.52c-6.9086-.8353-13.586-6.2928-20.45-4.9895-7.6122,1.4452-16.127,5.5669-20.45,13.721-3.4842,6.5716-4.2521,16.325-1.9476,23.7 3.166,10.133 13.396,13.56 19.476,21.206 5.2517,6.6038 9.0132,15.08 14.607,21.206 3.2172,3.5226 7.029,6.0607 10.712,8.7318 7.5795,5.497 15.009,11.849 23.372,14.969 9.0864,3.3893 18.824,4.9512 28.241,3.7422 5.4143-.6952 12.358-.6213 15.581-6.2369 1.1537-2.01-1.4861-5.8718 0-7.4844 4.5197-4.9044 11.612,3.3684 17.529,3.7421 9.748,.616 20.733,3.6903 29.215-2.4948 5.4773-3.9942 7.0569-13.381 10.712-19.958 4.4429-7.9944 9.6335-15.331 13.633-23.7 2.6529-5.5507 4.0198-12.03 6.8168-17.463 3.0431-5.9113 6.1346-12.246 10.712-16.216 4.25-3.6858 12.137-.4739 14.607-6.237 3.8643-9.017-5.8429-29.937-5.8429-29.937l-7.7906-6.237-30.189,13.721s-26.1,11.182-38.953,17.463c-9.5183,4.6521-18.332,11.936-28.241,14.969-8.2329,2.5199-17.799,7.4709-25.319,2.4948-1.6817-1.1127-1.0748-5.705-2.9215-6.237-3.4256-.9867-5.2704,7.9275-8.7644,7.4844-3.6546-.4636-5.2816-6.5439-7.7906-9.9792-2.3574-3.2277-3.6745-8.1527-6.8168-9.9791-2.956-1.7181-6.5065,.3907-9.7382,0z"/>
</g>
<g transform="translate(0 -194.09)">
<path fill="url(#linearGradient4105)" stroke-width=".527" d="m146.7,466.93-4.8691,126.95 2.9214,45.341 15.581-4.5341 45.77-120.16-29.215-10.196z"/>
</g>
</g>
<g stroke-width=".479">
<g transform="translate(0 -194.09)">
<path fill="url(#linearGradient4053)" stroke="#502a74" d="m169.1,417.04-15.581-12.474s-28.96-58.95-48.691-82.328c-15.005-17.778-32.619-32.738-51.613-42.411-16.269-8.2857-45.745,8.6554-51.613-12.474-4.5545-16.402 14.956-30.315 26.293-39.916 7.3657-6.2385 16.533-8.8565 25.319-9.9791 9.7385-1.2443 19.43,3.9931 29.215,3.7421 20.975-.5379 41.604-7.0197 62.325-11.226 11.069-2.2473 21.986-5.7407 33.11-7.4844 9.3661-1.468 19.03-5.1221 28.241-2.4948 3.2621,.9306 7.2928,2.3934 8.7644,6.237 12.291,32.101-4.3363,71.901-12.66,106.03-4.4157,18.105-13.925,33.559-19.476,51.143-5.5034,17.432-13.633,53.638-13.633,53.638z"/>
<path fill="url(#linearGradient4913)" stroke="#713798" d="m171.04,414.54c-6.3296-23.63 11.039-48.02 18.503-71.101 5.2776-16.321 13.718-30.833 18.503-47.401 5.1079-17.687 9.6087-36.08 10.712-54.885 .5131-8.7466-.0598-17.764-1.9477-26.195-1.2006-5.3623-8.5905-10.64-5.8429-14.969 11.226-17.685 34.514,11.152 51.613,17.464 15.686,5.79 30.782,14.328 46.743,18.711 7.9919,2.1943 16.177,3.3662 24.346,3.7422 6.8201,.314 9.7383-3.7422 20.45-1.2474s12.66,8.7317 12.66,13.721c0,4.9896-8.8862,10.299-13.633,14.969-10.926,10.747-21.603,22.469-34.084,29.937-7.6352,4.569-17.103,3.2127-24.346,8.7317-13.218,10.073-21.713,27.925-32.136,42.411-2.3386,3.2501-3.7901,12.102-6.8168,9.9791-2.3518-1.6494 19.089-44.215 40.901-51.143 16.77-5.3266 31.944-17.27 46.744-28.69 9.3427-7.2093 15.576-22.353 26.293-24.948 12.225-2.9595 24.473,6.5782 36.031,12.474 4.4527,2.2712 8.8145,5.0671 12.66,8.7318 3.3147,3.1591 5.3152,8.3132 8.7644,11.226 2.9187,2.4653 9.6642,.5123 9.7382,4.9896 .4522,27.351-38.959,22.436-58.429,33.68-20.132,11.625-40.037,23.914-60.377,34.927-22.82,12.356-47.864,18.672-69.141,34.927-6.9251,5.2903-12.405,13.2-18.503,19.958-5.9119,6.552-17.529,19.958-17.529,19.958l-1.9476,8.7318-12.66-2.4948-5.843-13.721s-6.6798-.8721-9.7382-2.4948c-4.3252-2.2948-10.167-4.307-11.686-9.9791z"/>
</g>
<g stroke="#000" transform="translate(0 -194.09)">
<path fill="url(#linearGradient4911)" d="m210.97,437 32.136-42.411 34.084-17.463 45.77-21.206 29.215-19.958 16.555-12.474 38.953-9.9791 23.372-8.7317 5.8429-16.216s14.588,17.344 18.503,28.69c1.8558,5.3784-.5917,12.565 1.9476,17.463 3.141,6.0595 11.635,5.0289 14.607,11.227 2.3847,4.9727-.0254,11.77 .9738,17.463 1.3748,7.8349 7.1726,14.436 6.8167,22.453-.3956,8.9131-6.5565,15.757-9.7382,23.7-1.6568,4.1361-1.8862,9.826-4.8692,12.474-5.0972,4.5248-12.467,.6697-18.503,2.4948-5.3985,1.6324-10.038,7.209-15.581,7.4844-15.193,.7548-43.822-16.216-43.822-16.216l-37.979-9.9791-8.7644-9.9791-49.665,16.216-37.005,22.453-17.529,9.9792-17.529,1.2474z"/>
<path fill="none" d="m211.94,440.74z"/>
</g>
<g transform="translate(0 -194.09)">
<path fill="url(#linearGradient4935)" stroke="#823bb7" d="m162.28,418.29s-23.405,15.034-36.031,14.969c-6.1589-.0319-11.519-9.2076-17.529-7.4844-9.6342,2.7622-11.553,25.985-21.424,26.195-12.183,.2598-23.487-16.347-27.267-31.185-1.4418-5.6596 .5563-12.339 2.9215-17.463 3.279-7.1047 12.904-8.2562 14.607-16.216 .5426-2.5362-.4192-5.7288-1.9476-7.4844-9.1486-10.508-24.972-3.1196-36.031-9.9791-12.871-7.98-25.112-19.75-33.113-34.93-3.619-6.87-7.4736-15.68-5.8427-23.7 1.9108-9.39 13.064-11.34 16.555-19.96 1.0575-2.6095-.7221-6.7505 .9739-8.7318 9.6055-11.222 26.46-7.1029 38.953-2.4948 11.423,4.2135 19.673,17.114 29.215,26.195 10.946,10.418 22.99,19.475 32.136,32.432 8.5155,12.064 20.45,41.164 20.45,41.164z"/>
</g>
</g>
<g transform="translate(0 -194.09)">
<path fill="url(#linearGradient4915)" stroke="#b22cc8" stroke-width=".478" d="m178.83,424.52c-6.9086-.8353-13.586-6.2928-20.45-4.9895-7.6122,1.4452-16.127,5.5669-20.45,13.721-3.4842,6.5716-4.2521,16.325-1.9476,23.7 3.166,10.133 13.396,13.56 19.476,21.206 5.2517,6.6038 9.0132,15.08 14.607,21.206 3.2172,3.5226 7.029,6.0607 10.712,8.7318 7.5795,5.497 15.009,11.849 23.372,14.969 9.0864,3.3893 18.824,4.9512 28.241,3.7422 5.4143-.6952 12.358-.6213 15.581-6.2369 1.1537-2.01-1.4861-5.8718 0-7.4844 4.5197-4.9044 11.612,3.3684 17.529,3.7421 9.748,.616 20.733,3.6903 29.215-2.4948 5.4773-3.9942 7.0569-13.381 10.712-19.958 4.4429-7.9944 9.6335-15.331 13.633-23.7 2.6529-5.5507 4.0198-12.03 6.8168-17.463 3.0431-5.9113 6.1346-12.246 10.712-16.216 4.25-3.6858 12.137-.4739 14.607-6.237 3.8643-9.017-5.8429-29.937-5.8429-29.937l-7.7906-6.237-39.927,13.721s-16.362,11.182-29.215,17.463c-9.5183,4.6521-18.332,11.936-28.241,14.969-8.2329,2.5199-17.799,7.4709-25.319,2.4948-1.6817-1.1127-1.0748-5.705-2.9215-6.237-3.4256-.9867-5.2704,7.9275-8.7644,7.4844-3.6546-.4636-5.2816-6.5439-7.7906-9.9792-2.3574-3.2277-3.6745-8.1527-6.8168-9.9791-2.956-1.7181-6.5065,.3907-9.7382,0z"/>
</g>
<g stroke="#5e2a71" stroke-width="1.298">
<g fill="#4b1b93" transform="translate(0 -194.09)">
<path filter="url(#filter5089)" d="m181.96,476.91 119.77-214.21 34.55-108.25-119.77,345.49z" transform="matrix(.42279 0 0 .54156 98.98 152.52)"/>
<path filter="url(#filter5073)" d="m135.9,453.88c-34.8-92.66-75.287-179.62-140.51-241.85 64.696,60.07 114.81,144.42 161.23,234.94z" transform="matrix(.42279 0 0 .54156 98.98 152.52)"/>
<path filter="url(#filter5077)" d="m87.526,191.3c25.919,77.656 58.541,151.29 55.279,246.45l-23.033-2.3033c-2.82-86.67-11.07-169.72-32.244-244.15z" transform="matrix(.42279 0 0 .54156 98.98 152.52)"/>
<path filter="url(#filter5081)" d="m172.75,414.72-27.64-214.21z" transform="matrix(.42279 0 0 .54156 98.98 152.52)"/>
<path filter="url(#filter5085)" d="m179.66,389.39c24.646-66.028 5.6757-132.06-4.6066-198.08 9.1625,67.803 17.658,135.38-9.2132,191.17z" transform="matrix(.42279 0 0 .54156 98.98 152.52)"/>
<path filter="url(#filter5069)" d="m101.37,457.58c-62.182-81.85-142.66-126.25-232.68-151.13 95.062,35.56 173.21,90.44 225.32,175.09z" transform="matrix(.42279 0 0 .54156 98.98 152.52)"/>
<path filter="url(#filter5065)" d="m224.98,548.75c-2.3033,11.517 2.3033,99.042 2.3033,99.042s-34.55-138.2-25.336-128.99c9.2132,9.2132 23.033,29.943 23.033,29.943z" transform="matrix(.42279 0 0 .54156 98.98 152.52)"/>
<path filter="url(#filter5061)" d="m290.44,666.04-16.12-124.38s-16.123-2.3033-13.82,6.9099c2.3033,9.2132 29.943,117.47 29.943,117.47z" transform="matrix(.42279 0 0 .54156 98.98 152.52)"/>
<path filter="url(#filter5057)" d="m433.42,661.18-71.41-117.47s-43.763,9.2132-29.943,16.123c13.82,6.9099 101.35,101.35 101.35,101.35z" transform="matrix(.42279 0 0 .54156 98.98 152.52)"/>
</g>
<g transform="translate(0 -194.09)">
<path fill="#ff9bff" filter="url(#filter5093)" d="m398.47,191.3c-27.76,101.94-57.27,203.52-115.16,299.43l-87.53-32.25c68.34-55.45 158.28-169.85 202.69-267.18z" transform="matrix(.42279 0 0 .54156 98.98 152.52)"/>
<path fill="#4b1b93" filter="url(#filter5101)" d="m799.35,352.43c-137.53,24.76-276.66,55.93-426.32,129.19l-35.07-11.25c159.12-63.28 314.51-109.75 461.39-117.94z" transform="matrix(.42279 0 0 .54156 98.98 152.52)"/>
<path fill="#ff9bff" filter="url(#filter5097)" d="m679.36,242.09-373.51,232.41-22.43-29.76c123.66-32.62 283.39-136.69 395.94-202.65z" transform="matrix(.42279 0 0 .54156 98.98 152.52)"/>
</g>
</g>
<g fill="none" stroke="#5d239f" stroke-width="3.6" transform="translate(0 -194.09)">
<path filter="url(#filter5623)" d="m-76.009,163.66s86.425,64.368 119.77,105.95c25.799,32.172 59.886,108.26 59.886,108.26" transform="matrix(.42279 0 0 .54156 98.98 152.52)"/>
<path filter="url(#filter5615)" d="m39.156,159.05s52.894,67.026 69.099,105.95c12.675,30.445 20.73,96.739 20.73,96.739" transform="matrix(.42279 0 0 .54156 98.98 152.52)"/>
<path filter="url(#filter5607)" d="m128.99,149.84s48.76,68.266 55.279,108.26c4.9971,30.65-13.82,92.132-13.82,92.132" transform="matrix(.42279 0 0 .54156 98.98 152.52)"/>
<path filter="url(#filter5611)" d="m94.436,163.66s33.301,54.703 41.46,85.222c8.5468,31.972 6.9099,99.042 6.9099,99.042" transform="matrix(.42279 0 0 .54156 98.98 152.52)"/>
<path filter="url(#filter5619)" d="m2.3033,163.66 94.436,145.11 16.121,46.07" transform="matrix(.42279 0 0 .54156 98.98 152.52)"/>
<path filter="url(#filter5623)" d="m105.55,134.99s-3.4067,47.698 29.941,89.282c25.799,32.172 44.166,128.26 44.166,128.26" transform="matrix(.43362 0 0 .37414 99.027 170.63)"/>
<path filter="url(#filter5615)" d="m115.17,133.72s52.894,67.026 69.099,105.95c12.675,30.445 18.484,186.76 18.484,186.76" transform="matrix(.43362 0 0 .37414 99.027 170.63)"/>
<path filter="url(#filter5607)" d="m204.99,124.5s48.76,68.266 55.279,108.26c4.9971,30.65-13.82,92.132-13.82,92.132" transform="matrix(.43362 0 0 .37414 99.027 170.63)"/>
<path filter="url(#filter5611)" d="m170.44,138.32s33.301,54.703 41.46,85.222c8.5468,31.972 9.1557,159.05 9.1557,159.05" transform="matrix(.43362 0 0 .37414 99.027 170.63)"/>
<path filter="url(#filter5619)" d="m78.312,138.32 94.436,145.11 13.877,146.09" transform="matrix(.43362 0 0 .37414 99.027 170.63)"/>
<path filter="url(#filter5623)" d="m0,138.32s86.425,64.368 119.77,105.95c25.799,32.172 59.886,108.26 59.886,108.26" transform="matrix(-.43362 0 0 .37414 334.96 205.56)"/>
<path filter="url(#filter5615)" d="m115.17,133.72s52.894,67.026 69.099,105.95c12.675,30.445 20.73,96.739 20.73,96.739" transform="matrix(-.43362 0 0 .37414 334.96 205.56)"/>
<path filter="url(#filter5607)" d="m204.99,124.5s48.76,68.266 55.279,108.26c4.9971,30.65-13.82,92.132-13.82,92.132" transform="matrix(-.43362 0 0 .37414 334.96 205.56)"/>
<path filter="url(#filter5611)" d="m170.44,138.32s33.301,54.703 41.46,85.222c8.5468,31.972 6.9099,99.042 6.9099,99.042" transform="matrix(-.43362 0 0 .37414 334.96 205.56)"/>
<path filter="url(#filter5619)" d="m78.312,138.32 94.436,145.11 16.123,46.066" transform="matrix(-.43362 0 0 .37414 334.96 205.56)"/>
<path filter="url(#filter5623)" d="m0,138.32s86.425,64.368 119.77,105.95c25.799,32.172 59.886,108.26 59.886,108.26" transform="matrix(-.41885 -.14376 -.0756 .36139 413.38 277.26)"/>
<path filter="url(#filter5615)" d="m115.17,133.72s52.894,67.026 69.099,105.95c12.675,30.445 20.73,96.739 20.73,96.739" transform="matrix(-.41885 -.14376 -.0756 .36139 413.38 277.26)"/>
<path filter="url(#filter5607)" d="m204.99,124.5s48.76,68.266 55.279,108.26c4.9971,30.65-13.82,92.132-13.82,92.132" transform="matrix(-.41885 -.14376 -.0756 .36139 413.38 277.26)"/>
<path filter="url(#filter5611)" d="m170.44,138.32s33.301,54.703 41.46,85.222c8.5468,31.972 6.9099,99.042 6.9099,99.042" transform="matrix(-.41885 -.14376 -.0756 .36139 413.38 277.26)"/>
<path filter="url(#filter5619)" d="m78.312,138.32 94.436,145.11 16.123,46.066" transform="matrix(-.41885 -.14376 -.0756 .36139 413.38 277.26)"/>
</g>
<g stroke="#500f9b" stroke-linecap="round" stroke-width="5.2">
<g transform="translate(0 -194.09)">
<path opacity=".454" fill="url(#linearGradient5665)" d="m-442.23,585.17c0,21.625-26.296,39.156-58.734,39.156s-58.734-17.531-58.734-39.156 26.296-39.156 58.734-39.156 58.734,17.531 58.734,39.156z" transform="matrix(.15338 0 0 .16728 121.77 151.38)"/>
<path opacity=".454" fill="url(#linearGradient5665)" d="m-442.23,585.17c0,21.625-26.296,39.156-58.734,39.156s-58.734-17.531-58.734-39.156 26.296-39.156 58.734-39.156 58.734,17.531 58.734,39.156z" transform="matrix(.15338 0 0 .16728 152.94 123.94)"/>
<path opacity=".454" fill="url(#linearGradient5665)" d="m-442.23,585.17c0,21.625-26.296,39.156-58.734,39.156s-58.734-17.531-58.734-39.156 26.296-39.156 58.734-39.156 58.734,17.531 58.734,39.156z" transform="matrix(.15338 0 0 .16728 184.1 123.94)"/>
<path opacity=".21" fill="url(#linearGradient5665)" d="m-442.23,585.17c0,21.625-26.296,39.156-58.734,39.156s-58.734-17.531-58.734-39.156 26.296-39.156 58.734-39.156 58.734,17.531 58.734,39.156z" transform="matrix(.15338 0 0 .16728 250.32 348.47)"/>
<path opacity=".21" fill="url(#linearGradient5665)" d="m-442.23,585.17c0,21.625-26.296,39.156-58.734,39.156s-58.734-17.531-58.734-39.156 26.296-39.156 58.734-39.156 58.734,17.531 58.734,39.156z" transform="matrix(.24267 0 0 .17956 312.09 356.87)"/>
</g>
<g fill="#60c" transform="translate(0 -194.09)">
<path opacity=".21" d="m-442.23,585.17c0,21.625-26.296,39.156-58.734,39.156s-58.734-17.531-58.734-39.156 26.296-39.156 58.734-39.156 58.734,17.531 58.734,39.156z" transform="matrix(.22742 0 0 .13432 356.06 385.21)"/>
<path opacity=".21" d="m-442.23,585.17c0,21.625-26.296,39.156-58.734,39.156s-58.734-17.531-58.734-39.156 26.296-39.156 58.734-39.156 58.734,17.531 58.734,39.156z" transform="matrix(.22742 0 0 .13432 395.99 362.76)"/>
</g>
<g transform="translate(0 -194.09)">
<path opacity=".307" fill="url(#linearGradient5665)" d="m-442.23,585.17c0,21.625-26.296,39.156-58.734,39.156s-58.734-17.531-58.734-39.156 26.296-39.156 58.734-39.156 58.734,17.531 58.734,39.156z" transform="matrix(-.07669 0 0 .08364 232.44 197.2)"/>
<path opacity=".307" fill="url(#linearGradient5665)" d="m-442.23,585.17c0,21.625-26.296,39.156-58.734,39.156s-58.734-17.531-58.734-39.156 26.296-39.156 58.734-39.156 58.734,17.531 58.734,39.156z" transform="matrix(-.07669 0 0 .08364 216.86 183.48)"/>
<path opacity=".307" fill="url(#linearGradient5665)" d="m-442.23,585.17c0,21.625-26.296,39.156-58.734,39.156s-58.734-17.531-58.734-39.156 26.296-39.156 58.734-39.156 58.734,17.531 58.734,39.156z" transform="matrix(-.07669 0 0 .08364 201.28 183.48)"/>
<path opacity=".307" fill="url(#linearGradient5665)" d="m-442.23,585.17c0,21.625-26.296,39.156-58.734,39.156s-58.734-17.531-58.734-39.156 26.296-39.156 58.734-39.156 58.734,17.531 58.734,39.156z" transform="matrix(-.07669 0 0 .08364 71.76 209.68)"/>
<path opacity=".307" fill="url(#linearGradient5665)" d="m-442.23,585.17c0,21.625-26.296,39.156-58.734,39.156s-58.734-17.531-58.734-39.156 26.296-39.156 58.734-39.156 58.734,17.531 58.734,39.156z" transform="matrix(-.07669 0 0 .08364 56.178 195.96)"/>
<path opacity=".307" fill="url(#linearGradient5665)" d="m-442.23,585.17c0,21.625-26.296,39.156-58.734,39.156s-58.734-17.531-58.734-39.156 26.296-39.156 58.734-39.156 58.734,17.531 58.734,39.156z" transform="matrix(-.07669 0 0 .08364 40.597 195.96)"/>
<path opacity=".454" fill="url(#linearGradient5665)" d="m-442.23,585.17c0,21.625-26.296,39.156-58.734,39.156s-58.734-17.531-58.734-39.156 26.296-39.156 58.734-39.156 58.734,17.531 58.734,39.156z" transform="matrix(.15586 0 0 .13683 157.22 323.87)"/>
<path opacity=".454" fill="url(#linearGradient5665)" d="m-442.23,585.17c0,21.625-26.296,39.156-58.734,39.156s-58.734-17.531-58.734-39.156 26.296-39.156 58.734-39.156 58.734,17.531 58.734,39.156z" transform="matrix(.15586 0 0 .13683 188.89 301.42)"/>
<path opacity=".307" fill="url(#linearGradient5665)" d="m-442.23,585.17c0,21.625-26.296,39.156-58.734,39.156s-58.734-17.531-58.734-39.156 26.296-39.156 58.734-39.156 58.734,17.531 58.734,39.156z" transform="matrix(-.07793 0 0 .06842 90.567 360.33)"/>
<path opacity=".307" fill="url(#linearGradient5665)" d="m-442.23,585.17c0,21.625-26.296,39.156-58.734,39.156s-58.734-17.531-58.734-39.156 26.296-39.156 58.734-39.156 58.734,17.531 58.734,39.156z" transform="matrix(-.07793 0 0 .06842 74.734 360.33)"/>
<path opacity=".454" fill="url(#linearGradient5665)" d="m-442.23,585.17c0,21.625-26.296,39.156-58.734,39.156s-58.734-17.531-58.734-39.156 26.296-39.156 58.734-39.156 58.734,17.531 58.734,39.156z" transform="matrix(.07936 0 0 .05495 241.35 390.5)"/>
<path opacity=".454" fill="url(#linearGradient5665)" d="m-442.23,585.17c0,21.625-26.296,39.156-58.734,39.156s-58.734-17.531-58.734-39.156 26.296-39.156 58.734-39.156 58.734,17.531 58.734,39.156z" transform="matrix(.07793 0 0 .06842 269.12 357.05)"/>
<path opacity=".307" fill="url(#linearGradient5665)" d="m-442.23,585.17c0,21.625-26.296,39.156-58.734,39.156s-58.734-17.531-58.734-39.156 26.296-39.156 58.734-39.156 58.734,17.531 58.734,39.156z" transform="matrix(-.03897 0 0 .03421 219.96 386.5)"/>
<path opacity=".307" fill="url(#linearGradient5665)" d="m-442.23,585.17c0,21.625-26.296,39.156-58.734,39.156s-58.734-17.531-58.734-39.156 26.296-39.156 58.734-39.156 58.734,17.531 58.734,39.156z" transform="matrix(-.03897 0 0 .03421 212.04 386.5)"/>
<path opacity=".454" fill="url(#linearGradient5665)" d="m-442.23,585.17c0,21.625-26.296,39.156-58.734,39.156s-58.734-17.531-58.734-39.156 26.296-39.156 58.734-39.156 58.734,17.531 58.734,39.156z" transform="matrix(.1488 0 0 .04273 265.74 385.56)"/>
<path opacity=".454" fill="url(#linearGradient5665)" d="m-442.23,585.17c0,21.625-26.296,39.156-58.734,39.156s-58.734-17.531-58.734-39.156 26.296-39.156 58.734-39.156 58.734,17.531 58.734,39.156z" transform="matrix(.1488 0 0 .04273 294.02 371.07)"/>
<path opacity=".307" fill="url(#linearGradient5665)" d="m-442.23,585.17c0,21.625-26.296,39.156-58.734,39.156s-58.734-17.531-58.734-39.156 26.296-39.156 58.734-39.156 58.734,17.531 58.734,39.156z" transform="matrix(-.0744 0 0 .02136 200.15 389.46)"/>
<path opacity=".307" fill="url(#linearGradient5665)" d="m-442.23,585.17c0,21.625-26.296,39.156-58.734,39.156s-58.734-17.531-58.734-39.156 26.296-39.156 58.734-39.156 58.734,17.531 58.734,39.156z" transform="matrix(-.1939 0 0 -.2808 198.72 638.33)"/>
<path opacity=".454" fill="url(#linearGradient5665)" d="m-442.23,585.17c0,21.625-26.296,39.156-58.734,39.156s-58.734-17.531-58.734-39.156 26.296-39.156 58.734-39.156 58.734,17.531 58.734,39.156z" transform="matrix(.0744 0 0 .02136 237.45 388.83)"/>
<path opacity=".454" fill="url(#linearGradient5665)" d="m-442.23,585.17c0,21.625-26.296,39.156-58.734,39.156s-58.734-17.531-58.734-39.156 26.296-39.156 58.734-39.156 58.734,17.531 58.734,39.156z" transform="matrix(.05625 0 0 .11391 242.5 334.91)"/>
<path opacity=".307" fill="url(#linearGradient5665)" d="m-442.23,585.17c0,21.625-26.296,39.156-58.734,39.156s-58.734-17.531-58.734-39.156 26.296-39.156 58.734-39.156 58.734,17.531 58.734,39.156z" transform="matrix(-.06137 0 0 -.11976 205.44 490.65)"/>
<path opacity=".307" fill="url(#linearGradient5665)" d="m-442.23,585.17c0,21.625-26.296,39.156-58.734,39.156s-58.734-17.531-58.734-39.156 26.296-39.156 58.734-39.156 58.734,17.531 58.734,39.156z" transform="matrix(-.0372 0 0 .01068 186.38 394.52)"/>
<path opacity=".454" fill="url(#linearGradient5665)" d="m-442.23,585.17c0,21.625-26.296,39.156-58.734,39.156s-58.734-17.531-58.734-39.156 26.296-39.156 58.734-39.156 58.734,17.531 58.734,39.156z" transform="matrix(.0744 0 0 .02136 421.5 370.12)"/>
<path opacity=".454" fill="url(#linearGradient5665)" d="m-442.23,585.17c0,21.625-26.296,39.156-58.734,39.156s-58.734-17.531-58.734-39.156 26.296-39.156 58.734-39.156 58.734,17.531 58.734,39.156z" transform="matrix(.0744 0 0 .02136 436.62 366.61)"/>
<path opacity=".307" fill="url(#linearGradient5665)" d="m-442.23,585.17c0,21.625-26.296,39.156-58.734,39.156s-58.734-17.531-58.734-39.156 26.296-39.156 58.734-39.156 58.734,17.531 58.734,39.156z" transform="matrix(-.0372 0 0 .01068 389.68 375.81)"/>
<path opacity=".307" fill="url(#linearGradient5665)" d="m-442.23,585.17c0,21.625-26.296,39.156-58.734,39.156s-58.734-17.531-58.734-39.156 26.296-39.156 58.734-39.156 58.734,17.531 58.734,39.156z" transform="matrix(-.0372 0 0 .01068 382.12 375.81)"/>
<path opacity=".454" fill="url(#linearGradient5665)" d="m-442.23,585.17c0,21.625-26.296,39.156-58.734,39.156s-58.734-17.531-58.734-39.156 26.296-39.156 58.734-39.156 58.734,17.531 58.734,39.156z" transform="matrix(.1488 0 0 .13004 456.61 304.81)"/>
<path opacity=".454" fill="url(#linearGradient5665)" d="m-442.23,585.17c0,21.625-26.296,39.156-58.734,39.156s-58.734-17.531-58.734-39.156 26.296-39.156 58.734-39.156 58.734,17.531 58.734,39.156z" transform="matrix(.1488 0 0 .13004 486.84 283.48)"/>
<path opacity=".307" fill="url(#linearGradient5665)" d="m-442.23,585.17c0,21.625-26.296,39.156-58.734,39.156s-58.734-17.531-58.734-39.156 26.296-39.156 58.734-39.156 58.734,17.531 58.734,39.156z" transform="matrix(-.0744 0 0 .06502 392.97 339.47)"/>
<path opacity=".307" fill="url(#linearGradient5665)" d="m-442.23,585.17c0,21.625-26.296,39.156-58.734,39.156s-58.734-17.531-58.734-39.156 26.296-39.156 58.734-39.156 58.734,17.531 58.734,39.156z" transform="matrix(-.0744 0 0 .06502 377.85 339.47)"/>
<path opacity=".21" fill="url(#linearGradient5665)" d="m-442.23,585.17c0,21.625-26.296,39.156-58.734,39.156s-58.734-17.531-58.734-39.156 26.296-39.156 58.734-39.156 58.734,17.531 58.734,39.156z" transform="matrix(.09263 0 0 .12981 310.24 401.94)"/>
<path opacity=".454" fill="url(#linearGradient5665)" d="m-442.23,585.17c0,21.625-26.296,39.156-58.734,39.156s-58.734-17.531-58.734-39.156 26.296-39.156 58.734-39.156 58.734,17.531 58.734,39.156z" transform="matrix(.09413 0 0 .10618 254.02 382.85)"/>
<path opacity=".454" fill="url(#linearGradient5665)" d="m-442.23,585.17c0,21.625-26.296,39.156-58.734,39.156s-58.734-17.531-58.734-39.156 26.296-39.156 58.734-39.156 58.734,17.531 58.734,39.156z" transform="matrix(.09413 0 0 .10618 318.92 379.15)"/>
<path opacity=".307" fill="url(#linearGradient5665)" d="m-442.23,585.17c0,21.625-26.296,39.156-58.734,39.156s-58.734-17.531-58.734-39.156 26.296-39.156 58.734-39.156 58.734,17.531 58.734,39.156z" transform="matrix(-.04706 0 0 .05309 261.49 462.29)"/>
<path opacity=".307" fill="url(#linearGradient5665)" d="m-442.23,585.17c0,21.625-26.296,39.156-58.734,39.156s-58.734-17.531-58.734-39.156 26.296-39.156 58.734-39.156 58.734,17.531 58.734,39.156z" transform="matrix(-.04706 0 0 .05309 261.66 411.14)"/>
<path opacity=".454" fill="url(#linearGradient5665)" d="m-442.23,585.17c0,21.625-26.296,39.156-58.734,39.156s-58.734-17.531-58.734-39.156 26.296-39.156 58.734-39.156 58.734,17.531 58.734,39.156z" transform="matrix(.07669 0 0 .08364 267.41 433.17)"/>
<path opacity=".454" fill="url(#linearGradient5665)" d="m-442.23,585.17c0,21.625-26.296,39.156-58.734,39.156s-58.734-17.531-58.734-39.156 26.296-39.156 58.734-39.156 58.734,17.531 58.734,39.156z" transform="matrix(.07669 0 0 .08364 282.99 419.45)"/>
<path opacity=".454" fill="url(#linearGradient5665)" d="m-442.23,585.17c0,21.625-26.296,39.156-58.734,39.156s-58.734-17.531-58.734-39.156 26.296-39.156 58.734-39.156 58.734,17.531 58.734,39.156z" transform="matrix(.07669 0 0 .08364 298.57 419.45)"/>
<path opacity=".307" fill="url(#linearGradient5665)" d="m-442.23,585.17c0,21.625-26.296,39.156-58.734,39.156s-58.734-17.531-58.734-39.156 26.296-39.156 58.734-39.156 58.734,17.531 58.734,39.156z" transform="matrix(-.03834 0 0 .04182 242.4 462.32)"/>
<path opacity=".307" fill="url(#linearGradient5665)" d="m-442.23,585.17c0,21.625-26.296,39.156-58.734,39.156s-58.734-17.531-58.734-39.156 26.296-39.156 58.734-39.156 58.734,17.531 58.734,39.156z" transform="matrix(-.03834 0 0 .04182 234.61 455.46)"/>
<path opacity=".307" fill="url(#linearGradient5665)" d="m-442.23,585.17c0,21.625-26.296,39.156-58.734,39.156s-58.734-17.531-58.734-39.156 26.296-39.156 58.734-39.156 58.734,17.531 58.734,39.156z" transform="matrix(-.03834 0 0 .04182 226.82 455.46)"/>
<path opacity=".454" fill="url(#linearGradient5665)" d="m-442.23,585.17c0,21.625-26.296,39.156-58.734,39.156s-58.734-17.531-58.734-39.156 26.296-39.156 58.734-39.156 58.734,17.531 58.734,39.156z" transform="matrix(.08469 0 0 .09236 234.73 424.89)"/>
<path opacity=".454" fill="url(#linearGradient5665)" d="m-442.23,585.17c0,21.625-26.296,39.156-58.734,39.156s-58.734-17.531-58.734-39.156 26.296-39.156 58.734-39.156 58.734,17.531 58.734,39.156z" transform="matrix(.08469 0 0 .09236 251.94 409.74)"/>
<path opacity=".454" fill="url(#linearGradient5665)" d="m-442.23,585.17c0,21.625-26.296,39.156-58.734,39.156s-58.734-17.531-58.734-39.156 26.296-39.156 58.734-39.156 58.734,17.531 58.734,39.156z" transform="matrix(.08469 0 0 .09236 269.14 409.74)"/>
<path opacity=".307" fill="url(#linearGradient5665)" d="m-442.23,585.17c0,21.625-26.296,39.156-58.734,39.156s-58.734-17.531-58.734-39.156 26.296-39.156 58.734-39.156 58.734,17.531 58.734,39.156z" transform="matrix(-.04235 0 0 .04618 207.12 457.08)"/>
<path opacity=".307" fill="url(#linearGradient5665)" d="m-442.23,585.17c0,21.625-26.296,39.156-58.734,39.156s-58.734-17.531-58.734-39.156 26.296-39.156 58.734-39.156 58.734,17.531 58.734,39.156z" transform="matrix(-.04235 0 0 .04618 198.51 449.5)"/>
<path opacity=".307" fill="url(#linearGradient5665)" d="m-442.23,585.17c0,21.625-26.296,39.156-58.734,39.156s-58.734-17.531-58.734-39.156 26.296-39.156 58.734-39.156 58.734,17.531 58.734,39.156z" transform="matrix(-.04235 0 0 .04618 189.91 449.5)"/>
<path opacity=".21" fill="url(#linearGradient5665)" d="m-442.23,585.17c0,21.625-26.296,39.156-58.734,39.156s-58.734-17.531-58.734-39.156 26.296-39.156 58.734-39.156 58.734,17.531 58.734,39.156z" transform="matrix(-.2344 -.08045 .03628 -.17344 212.34 323.68)"/>
<path opacity=".21" fill="#60c" d="m-442.23,585.17c0,21.625-26.296,39.156-58.734,39.156s-58.734-17.531-58.734-39.156 26.296-39.156 58.734-39.156 58.734,17.531 58.734,39.156z" transform="matrix(-.21967 -.0754 .02714 -.12975 175.59 281.73)"/>
<path opacity=".307" fill="url(#linearGradient5665)" d="m-442.23,585.17c0,21.625-26.296,39.156-58.734,39.156s-58.734-17.531-58.734-39.156 26.296-39.156 58.734-39.156 58.734,17.531 58.734,39.156z" transform="matrix(.20647 .1087 -.09594 .12669 412.24 192.49)"/>
<path opacity=".21" fill="url(#linearGradient5665)" d="m-442.23,585.17c0,21.625-26.296,39.156-58.734,39.156s-58.734-17.531-58.734-39.156 26.296-39.156 58.734-39.156 58.734,17.531 58.734,39.156z" transform="matrix(-.08947 -.03071 .02623 -.12538 214.46 280.76)"/>
<path opacity=".454" fill="url(#linearGradient5665)" d="m-442.23,585.17c0,21.625-26.296,39.156-58.734,39.156s-58.734-17.531-58.734-39.156 26.296-39.156 58.734-39.156 58.734,17.531 58.734,39.156z" transform="matrix(-.07408 -.02542 .0169 -.08079 270.92 271.29)"/>
<path opacity=".454" fill="url(#linearGradient5665)" d="m-442.23,585.17c0,21.625-26.296,39.156-58.734,39.156s-58.734-17.531-58.734-39.156 26.296-39.156 58.734-39.156 58.734,17.531 58.734,39.156z" transform="matrix(-.07408 -.02542 .0169 -.08079 253.09 272.88)"/>
<path opacity=".454" fill="url(#linearGradient5665)" d="m-442.23,585.17c0,21.625-26.296,39.156-58.734,39.156s-58.734-17.531-58.734-39.156 26.296-39.156 58.734-39.156 58.734,17.531 58.734,39.156z" transform="matrix(-.07408 -.02057 .0169 -.06536 236.1 261.72)"/>
<path opacity=".307" fill="url(#linearGradient5665)" d="m-442.23,585.17c0,21.625-26.296,39.156-58.734,39.156s-58.734-17.531-58.734-39.156 26.296-39.156 58.734-39.156 58.734,17.531 58.734,39.156z" transform="matrix(.14089 -.02488 .03214 .07907 339.91 177.25)"/>
<path opacity=".307" fill="url(#linearGradient5665)" d="m-442.23,585.17c0,21.625-26.296,39.156-58.734,39.156s-58.734-17.531-58.734-39.156 26.296-39.156 58.734-39.156 58.734,17.531 58.734,39.156z" transform="matrix(.03704 .01271 .00845 -.0404 314.63 263.22)"/>
<path opacity=".454" fill="url(#linearGradient5665)" d="m-442.23,585.17c0,21.625-26.296,39.156-58.734,39.156s-58.734-17.531-58.734-39.156 26.296-39.156 58.734-39.156 58.734,17.531 58.734,39.156z" transform="matrix(-.0818 -.02808 .01866 -.08922 300.81 283.63)"/>
<path opacity=".454" fill="url(#linearGradient5665)" d="m-442.23,585.17c0,21.625-26.296,39.156-58.734,39.156s-58.734-17.531-58.734-39.156 26.296-39.156 58.734-39.156 58.734,17.531 58.734,39.156z" transform="matrix(-.0818 -.02808 .01866 -.08922 281.12 292.56)"/>
<path opacity=".454" fill="url(#linearGradient5665)" d="m-442.23,585.17c0,21.625-26.296,39.156-58.734,39.156s-58.734-17.531-58.734-39.156 26.296-39.156 58.734-39.156 58.734,17.531 58.734,39.156z" transform="matrix(-.0818 -.02808 .01866 -.08922 264.5 286.86)"/>
<path opacity=".307" fill="url(#linearGradient5665)" d="m-442.23,585.17c0,21.625-26.296,39.156-58.734,39.156s-58.734-17.531-58.734-39.156 26.296-39.156 58.734-39.156 58.734,17.531 58.734,39.156z" transform="matrix(.0409 .01404 .00933 -.04461 333.98 268.19)"/>
<path opacity=".307" fill="url(#linearGradient5665)" d="m-442.23,585.17c0,21.625-26.296,39.156-58.734,39.156s-58.734-17.531-58.734-39.156 26.296-39.156 58.734-39.156 58.734,17.531 58.734,39.156z" transform="matrix(.0409 .01404 .00933 -.04461 340.76 271.86)"/>
<path opacity=".307" fill="url(#linearGradient5665)" d="m-442.23,585.17c0,21.625-26.296,39.156-58.734,39.156s-58.734-17.531-58.734-39.156 26.296-39.156 58.734-39.156 58.734,17.531 58.734,39.156z" transform="matrix(.0409 .01404 .00933 -.04461 349.07 274.71)"/>
</g>
</g>
<g stroke="#000" transform="translate(0 -194.09)">
<path fill="url(#linearGradient5955)" filter="url(#filter5945)" d="m124.38,453.88 25.336,52.976 64.493,2.3033 36.853,23.033 52.976,9.2132 80.616-18.426 9.2132-36.853-43.763,27.64-2.3033-29.943-55.279,20.73v-23.033l-32.246,27.64-46.066-18.426v-41.46l-20.73,32.246z" transform="matrix(.42279 0 0 .54156 98.98 152.52)"/>
<path fill="#390" stroke-width=".479" d="m144.75,493.13c-8.6706,43.585-12.115,126.55-7.7906,173.39l8.7644-7.4844c-1.6275-46.345 .6924-132.8-.9738-165.9z"/>
<path fill="url(#linearGradient5967)" stroke-width=".497" d="m135.77,652.8s.0603-51.945 9.3381-63.617c13.138-16.528 48.374-23.035 54.121-26.195 16.739-9.2056 52.637-24.948 52.637-24.948-32.958,28.208-78.308-7.4218-93.511,113.51z"/>
<path fill="url(#linearGradient5987)" stroke-width=".479" d="m136.96,651.55 16.555-2.4948 .9738,93.554-15.581,1.2474z"/>
</g>
</svg>
