<svg xmlns="http://www.w3.org/2000/svg" viewBox="0 0 300 400" xmlns:xlink="http://www.w3.org/1999/xlink" enable-background="new 0 0 300 400">
<defs>
<path id="SVGID_2_" d="m154.16,195.9c-16.536-3.89-28.355-5.713-42.227-15.217-10.434-7.153-25.406-16.023-32.898-26.453-9.404-13.116-19.687-36.053 .269-43.681 15.283-5.851 23.953-.061 34.126,10.112-3.912-14.354 18.484-10.27 24.824-6.538 10.461,6.162 17.017,19.724 22.324,29.555-2.649-13.318 1.692-38.298 17.237-42.622 16.079-4.462 21.078,10.89 23.96,23.66 5.591-10.952 5.164-32.421 23.492-30.269 14.999,1.765 22.263,23.222 19.886,36.243-4.298,23.499-26.138,46.858-46.423,58.354-16.26,9.22-27.41,8-44.57,6.86"/>
<pattern width="69" x="-50" overflow="visible" height="69" viewBox="2.125 -70.896 69 69" patternUnits="userSpaceOnUse" id="Unnamed_Pattern">
<path fill="none" d="m71.125-1.896-69,0 0-69 69,0z"/>
<path fill="#f6bb60" d="m71.125-1.896-69,0 0-69 69,0z"/>
<path fill="#fff" d="m61.772-71.653c.018,.072 .007,.127-.026,.19-.053,.101-.112,.063-.165,.128-.05,.063-.099,.276-.079,.362-.169,.058-.01,.227-.015,.35-.002,.05-.041,.105-.045,.161-.01,.119 .017,.266 .068,.37 .097,.198 .268,.413 .435,.544 .19,.148 .365,.572 .608,.631 .177,.042 .384-.104 .543-.143 .18-.043 .397,.01 .571-.053 .222-.079 .127-.337 .288-.45 .104-.074 .287-.01 .406-.051 .2-.069 .339-.263 .376-.46 .016-.082 .01-.145 .039-.221 .039-.103 .111-.16 .09-.293-.01-.062-.052-.12-.064-.187-.022-.114 .002-.224 0-.337-.003-.2 .017-.379-.078-.55-.38-.688-1.236-.929-1.975-.789-.18,.034-.287,.126-.442,.207-.17,.088-.139,.166-.318,.224-.081,.026-.216,.124-.215,.224 .001,.115 .005,.051 .012,.169-.021,.011-.021-.005-.03-.025"/>
<path fill="#fff" d="m54.105-71.653c.018,.072 .007,.127-.026,.19-.053,.101-.112,.063-.165,.128-.05,.063-.099,.276-.079,.362-.169,.058-.01,.227-.015,.35-.002,.05-.041,.105-.045,.161-.01,.119 .017,.266 .068,.37 .097,.198 .268,.413 .435,.544 .19,.148 .365,.572 .608,.631 .177,.042 .384-.104 .543-.143 .18-.043 .397,.01 .571-.053 .222-.079 .127-.337 .288-.45 .104-.074 .287-.01 .406-.051 .2-.069 .339-.263 .376-.46 .016-.082 .01-.145 .039-.221 .039-.103 .111-.16 .09-.293-.01-.062-.052-.12-.064-.187-.022-.114 .002-.224 0-.337-.003-.2 .017-.379-.078-.55-.38-.688-1.236-.929-1.975-.789-.18,.034-.287,.126-.442,.207-.17,.088-.139,.166-.318,.224-.081,.026-.216,.124-.215,.224 .001,.115 .005,.051 .012,.169-.021,.011-.021-.005-.03-.025"/>
<path fill="#fff" d="m46.439-71.653c.018,.072 .007,.127-.026,.19-.053,.101-.112,.063-.165,.128-.05,.063-.099,.276-.079,.362-.169,.058-.01,.227-.015,.35-.002,.05-.041,.105-.045,.161-.01,.119 .017,.266 .068,.37 .097,.198 .268,.413 .435,.544 .19,.148 .365,.572 .608,.631 .177,.042 .384-.104 .543-.143 .18-.043 .397,.01 .571-.053 .222-.079 .127-.337 .288-.45 .104-.074 .287-.01 .406-.051 .2-.069 .339-.263 .376-.46 .016-.082 .01-.145 .039-.221 .039-.103 .111-.16 .09-.293-.01-.062-.052-.12-.064-.187-.022-.114 .002-.224 0-.337-.003-.2 .017-.379-.078-.55-.38-.688-1.236-.929-1.975-.789-.18,.034-.287,.126-.442,.207-.17,.088-.139,.166-.318,.224-.081,.026-.216,.124-.215,.224 .001,.115 .005,.051 .012,.169-.021,.011-.021-.005-.03-.025"/>
<path fill="#fff" d="m38.772-71.653c.018,.072 .007,.127-.026,.19-.053,.101-.112,.063-.165,.128-.05,.063-.099,.276-.079,.362-.169,.058-.01,.227-.015,.35-.002,.05-.041,.105-.045,.161-.01,.119 .017,.266 .068,.37 .097,.198 .268,.413 .435,.544 .19,.148 .365,.572 .608,.631 .177,.042 .384-.104 .543-.143 .18-.043 .397,.01 .571-.053 .222-.079 .127-.337 .288-.45 .104-.074 .287-.01 .406-.051 .2-.069 .339-.263 .376-.46 .016-.082 .01-.145 .039-.221 .039-.103 .111-.16 .09-.293-.01-.062-.052-.12-.064-.187-.022-.114 .002-.224 0-.337-.003-.2 .017-.379-.078-.55-.38-.688-1.236-.929-1.975-.789-.18,.034-.287,.126-.442,.207-.17,.088-.139,.166-.318,.224-.081,.026-.216,.124-.215,.224 .001,.115 .005,.051 .012,.169-.021,.011-.021-.005-.03-.025"/>
<path fill="#fff" d="m31.105-71.653c.018,.072 .007,.127-.026,.19-.053,.101-.112,.063-.165,.128-.05,.063-.099,.276-.079,.362-.169,.058-.01,.227-.015,.35-.002,.05-.041,.105-.045,.161-.01,.119 .017,.266 .068,.37 .097,.198 .268,.413 .435,.544 .19,.148 .365,.572 .608,.631 .177,.042 .384-.104 .543-.143 .18-.043 .397,.01 .571-.053 .222-.079 .127-.337 .288-.45 .104-.074 .287-.01 .406-.051 .2-.069 .339-.263 .376-.46 .016-.082 .01-.145 .039-.221 .039-.103 .111-.16 .09-.293-.01-.062-.052-.12-.064-.187-.022-.114 .002-.224 0-.337-.003-.2 .017-.379-.078-.55-.38-.688-1.236-.929-1.975-.789-.18,.034-.287,.126-.442,.207-.17,.088-.139,.166-.318,.224-.081,.026-.216,.124-.215,.224 .001,.115 .005,.051 .012,.169-.021,.011-.021-.005-.03-.025"/>
<path fill="#fff" d="m23.439-71.653c.018,.072 .007,.127-.026,.19-.053,.101-.112,.063-.165,.128-.05,.063-.099,.276-.079,.362-.169,.058-.01,.227-.015,.35-.002,.05-.041,.105-.045,.161-.01,.119 .017,.266 .068,.37 .097,.198 .268,.413 .435,.544 .19,.148 .365,.572 .608,.631 .177,.042 .384-.104 .543-.143 .18-.043 .397,.01 .571-.053 .222-.079 .127-.337 .288-.45 .104-.074 .287-.01 .406-.051 .2-.069 .339-.263 .376-.46 .016-.082 .01-.145 .039-.221 .039-.103 .111-.16 .09-.293-.01-.062-.052-.12-.064-.187-.022-.114 .002-.224 0-.337-.003-.2 .017-.379-.078-.55-.38-.688-1.236-.929-1.975-.789-.18,.034-.287,.126-.442,.207-.17,.088-.139,.166-.318,.224-.081,.026-.216,.124-.215,.224 .001,.115 .005,.051 .012,.169-.021,.011-.021-.005-.03-.025"/>
<path fill="#fff" d="m15.772-71.653c.018,.072 .007,.127-.026,.19-.053,.101-.112,.063-.165,.128-.05,.063-.099,.276-.079,.362-.169,.058-.01,.227-.015,.35-.002,.05-.041,.105-.045,.161-.01,.119 .017,.266 .068,.37 .097,.198 .268,.413 .435,.544 .19,.148 .365,.572 .608,.631 .177,.042 .384-.104 .543-.143 .18-.043 .397,.01 .571-.053 .222-.079 .127-.337 .288-.45 .104-.074 .287-.01 .406-.051 .2-.069 .339-.263 .376-.46 .016-.082 .01-.145 .039-.221 .039-.103 .111-.16 .09-.293-.01-.062-.052-.12-.064-.187-.022-.114 .002-.224 0-.337-.003-.2 .017-.379-.078-.55-.38-.688-1.236-.929-1.975-.789-.18,.034-.287,.126-.442,.207-.17,.088-.139,.166-.318,.224-.081,.026-.216,.124-.215,.224 .001,.115 .005,.051 .012,.169-.021,.011-.021-.005-.03-.025"/>
<path fill="#fff" d="m8.105-71.653c.018,.072 .007,.127-.026,.19-.053,.101-.112,.063-.165,.128-.05,.063-.099,.276-.079,.362-.169,.058-.01,.227-.015,.35-.002,.05-.041,.105-.045,.161-.01,.119 .017,.266 .068,.37 .097,.198 .268,.413 .435,.544 .19,.148 .365,.572 .608,.631 .177,.042 .384-.104 .543-.143 .18-.043 .397,.01 .571-.053 .222-.079 .127-.337 .288-.45 .104-.074 .287-.01 .406-.051 .2-.069 .339-.263 .376-.46 .016-.082 .01-.145 .039-.221 .039-.103 .111-.16 .09-.293-.01-.062-.052-.12-.064-.187-.022-.114 .002-.224 0-.337-.003-.2 .017-.379-.078-.55-.38-.688-1.236-.929-1.975-.789-.18,.034-.287,.126-.442,.207-.17,.088-.139,.166-.318,.224-.081,.026-.216,.124-.215,.224 .001,.115 .005,.051 .012,.169-.021,.011-.021-.005-.03-.025"/>
<path fill="#fff" d="m.439-71.653c.018,.072 .008,.127-.026,.19-.052,.101-.113,.063-.165,.128-.051,.063-.099,.276-.079,.362-.169,.058-.01,.227-.015,.35-.002,.05-.041,.105-.045,.161-.01,.119 .017,.266 .068,.37 .097,.198 .268,.413 .435,.544 .19,.148 .365,.572 .608,.631 .177,.042 .384-.104 .543-.143 .18-.043 .397,.01 .571-.053 .222-.079 .127-.337 .288-.45 .104-.074 .287-.01 .406-.051 .2-.07 .339-.263 .376-.46 .016-.082 .01-.145 .039-.221 .038-.103 .111-.16 .09-.293-.01-.062-.051-.12-.064-.187-.021-.114 .002-.224 0-.337-.003-.2 .017-.379-.078-.55-.38-.688-1.236-.929-1.975-.789-.18,.034-.287,.126-.442,.207-.17,.088-.139,.166-.318,.224-.081,.026-.215,.124-.215,.224 .002,.115 .005,.051 .012,.169-.021,.011-.021-.005-.03-.025"/>
<path fill="#fff" d="m69.439-71.653c.018,.072 .008,.127-.026,.19-.052,.101-.113,.063-.165,.128-.051,.063-.099,.276-.079,.362-.169,.058-.01,.227-.015,.35-.002,.05-.041,.105-.045,.161-.01,.119 .017,.266 .068,.37 .097,.198 .268,.413 .435,.544 .19,.148 .365,.572 .608,.631 .177,.042 .384-.104 .543-.143 .18-.043 .397,.01 .571-.053 .222-.079 .127-.337 .288-.45 .104-.074 .287-.01 .406-.051 .2-.07 .339-.263 .376-.46 .016-.082 .01-.145 .039-.221 .038-.103 .111-.16 .09-.293-.01-.062-.051-.12-.064-.187-.021-.114 .002-.224 0-.337-.003-.2 .017-.379-.078-.55-.38-.688-1.236-.929-1.975-.789-.18,.034-.287,.126-.442,.207-.17,.088-.139,.166-.318,.224-.081,.026-.215,.124-.215,.224 .002,.115 .005,.051 .012,.169-.021,.011-.021-.005-.03-.025"/>
<path fill="#fff" d="m.495-71.653c.018,.072 .008,.127-.026,.19-.052,.101-.113,.063-.165,.128-.051,.063-.099,.276-.079,.362-.169,.058-.01,.227-.015,.35-.002,.05-.041,.105-.045,.161-.01,.119 .017,.266 .068,.37 .097,.198 .268,.413 .435,.544 .19,.148 .365,.572 .608,.631 .177,.042 .384-.104 .543-.143 .18-.043 .397,.01 .571-.053 .222-.079 .127-.337 .288-.45 .104-.074 .287-.01 .406-.051 .2-.07 .339-.263 .376-.46 .016-.082 .01-.145 .039-.221 .038-.103 .111-.16 .09-.293-.01-.062-.051-.12-.064-.187-.021-.114 .002-.224 0-.337-.003-.2 .017-.379-.078-.55-.38-.688-1.236-.929-1.975-.789-.18,.034-.287,.126-.442,.207-.17,.088-.139,.166-.318,.224-.081,.026-.215,.124-.215,.224 .003,.116 .006,.052 .013,.17-.021,.011-.021-.005-.03-.025"/>
<path fill="#fff" d="m69.439-64.001c.018,.072 .007,.127-.026,.19-.053,.101-.112,.063-.165,.128-.05,.063-.099,.276-.079,.362-.169,.058-.01,.227-.015,.35-.002,.05-.041,.105-.045,.161-.01,.119 .017,.266 .068,.37 .097,.198 .268,.413 .435,.544 .19,.148 .365,.572 .608,.631 .177,.042 .384-.104 .543-.143 .18-.043 .397,.01 .571-.053 .222-.079 .127-.337 .288-.45 .104-.074 .287-.01 .406-.051 .2-.069 .339-.263 .376-.46 .016-.082 .01-.145 .039-.221 .039-.103 .111-.16 .09-.293-.01-.062-.052-.12-.064-.187-.022-.114 .002-.224 0-.337-.003-.2 .017-.379-.078-.55-.38-.688-1.236-.929-1.975-.789-.18,.034-.287,.126-.442,.207-.17,.088-.139,.166-.318,.224-.081,.026-.216,.124-.215,.224 .001,.115 .005,.051 .012,.169-.021,.011-.021-.005-.03-.025"/>
<path fill="#fff" d="m61.778-64.001c.018,.072 .007,.127-.026,.19-.053,.101-.112,.063-.165,.128-.05,.063-.099,.276-.079,.362-.169,.058-.009,.227-.015,.35-.002,.05-.041,.105-.045,.161-.01,.119 .017,.266 .068,.37 .097,.198 .268,.413 .435,.544 .19,.148 .365,.572 .608,.631 .177,.042 .384-.104 .543-.143 .18-.043 .397,.01 .571-.053 .222-.079 .127-.337 .288-.45 .104-.074 .287-.01 .406-.051 .2-.069 .339-.263 .376-.46 .016-.082 .01-.145 .039-.221 .039-.103 .111-.16 .09-.293-.01-.062-.052-.12-.064-.187-.022-.114 .002-.224 0-.337-.003-.2 .017-.379-.078-.55-.38-.688-1.236-.929-1.975-.789-.18,.034-.287,.126-.442,.207-.17,.088-.139,.166-.318,.224-.081,.026-.216,.124-.215,.224 .001,.115 .005,.051 .012,.169-.021,.011-.021-.005-.03-.025"/>
<path fill="#fff" d="m54.118-64.001c.018,.072 .007,.127-.026,.19-.053,.101-.112,.063-.165,.128-.05,.063-.099,.276-.079,.362-.169,.058-.009,.227-.015,.35-.002,.05-.041,.105-.045,.161-.01,.119 .017,.266 .068,.37 .097,.198 .268,.413 .435,.544 .19,.148 .365,.572 .608,.631 .177,.042 .384-.104 .543-.143 .18-.043 .397,.01 .571-.053 .222-.079 .127-.337 .288-.45 .104-.074 .287-.01 .406-.051 .2-.069 .339-.263 .376-.46 .016-.082 .01-.145 .039-.221 .039-.103 .111-.16 .09-.293-.01-.062-.052-.12-.064-.187-.022-.114 .002-.224 0-.337-.003-.2 .017-.379-.078-.55-.38-.688-1.236-.929-1.975-.789-.18,.034-.287,.126-.442,.207-.17,.088-.139,.166-.318,.224-.081,.026-.216,.124-.215,.224 .001,.115 .005,.051 .012,.169-.021,.011-.021-.005-.03-.025"/>
<path fill="#fff" d="m46.458-64.001c.018,.072 .007,.127-.026,.19-.053,.101-.112,.063-.165,.128-.05,.063-.099,.276-.079,.362-.169,.058-.009,.227-.015,.35-.002,.05-.041,.105-.045,.161-.01,.119 .017,.266 .068,.37 .097,.198 .268,.413 .435,.544 .19,.148 .365,.572 .608,.631 .177,.042 .384-.104 .543-.143 .18-.043 .397,.01 .571-.053 .222-.079 .127-.337 .288-.45 .104-.074 .287-.01 .406-.051 .2-.069 .339-.263 .376-.46 .016-.082 .01-.145 .039-.221 .039-.103 .111-.16 .09-.293-.01-.062-.052-.12-.064-.187-.022-.114 .002-.224 0-.337-.003-.2 .017-.379-.078-.55-.38-.688-1.236-.929-1.975-.789-.18,.034-.287,.126-.442,.207-.17,.088-.139,.166-.318,.224-.081,.026-.216,.124-.215,.224 .001,.115 .005,.051 .012,.169-.021,.011-.021-.005-.03-.025"/>
<path fill="#fff" d="m38.797-64.001c.018,.072 .007,.127-.026,.19-.053,.101-.112,.063-.165,.128-.05,.063-.099,.276-.079,.362-.169,.058-.009,.227-.015,.35-.002,.05-.041,.105-.045,.161-.01,.119 .017,.266 .068,.37 .097,.198 .268,.413 .435,.544 .19,.148 .365,.572 .608,.631 .177,.042 .384-.104 .543-.143 .18-.043 .397,.01 .571-.053 .222-.079 .127-.337 .288-.45 .104-.074 .287-.01 .406-.051 .2-.069 .339-.263 .376-.46 .016-.082 .01-.145 .039-.221 .039-.103 .111-.16 .09-.293-.01-.062-.052-.12-.064-.187-.022-.114 .002-.224 0-.337-.003-.2 .017-.379-.078-.55-.38-.688-1.236-.929-1.975-.789-.18,.034-.287,.126-.442,.207-.17,.088-.139,.166-.318,.224-.081,.026-.216,.124-.215,.224 .001,.115 .005,.051 .012,.169-.021,.011-.021-.005-.03-.025"/>
<path fill="#fff" d="m31.137-64.001c.018,.072 .007,.127-.026,.19-.053,.101-.112,.063-.165,.128-.05,.063-.099,.276-.079,.362-.169,.058-.009,.227-.015,.35-.002,.05-.041,.105-.045,.161-.01,.119 .017,.266 .068,.37 .097,.198 .268,.413 .435,.544 .19,.148 .365,.572 .608,.631 .177,.042 .384-.104 .543-.143 .18-.043 .397,.01 .571-.053 .222-.079 .127-.337 .288-.45 .104-.074 .287-.01 .406-.051 .2-.069 .339-.263 .376-.46 .016-.082 .01-.145 .039-.221 .039-.103 .111-.16 .09-.293-.01-.062-.052-.12-.064-.187-.022-.114 .002-.224 0-.337-.003-.2 .017-.379-.078-.55-.38-.688-1.236-.929-1.975-.789-.18,.034-.287,.126-.442,.207-.17,.088-.139,.166-.318,.224-.081,.026-.216,.124-.215,.224 .001,.115 .005,.051 .012,.169-.021,.011-.021-.005-.03-.025"/>
<path fill="#fff" d="m23.477-64.001c.018,.072 .007,.127-.026,.19-.053,.101-.112,.063-.165,.128-.05,.063-.099,.276-.079,.362-.169,.058-.009,.227-.015,.35-.002,.05-.041,.105-.045,.161-.01,.119 .017,.266 .068,.37 .097,.198 .268,.413 .435,.544 .19,.148 .365,.572 .608,.631 .177,.042 .384-.104 .543-.143 .18-.043 .397,.01 .571-.053 .222-.079 .127-.337 .288-.45 .104-.074 .287-.01 .406-.051 .2-.069 .339-.263 .376-.46 .016-.082 .01-.145 .039-.221 .039-.103 .111-.16 .09-.293-.01-.062-.052-.12-.064-.187-.022-.114 .002-.224 0-.337-.003-.2 .017-.379-.078-.55-.38-.688-1.236-.929-1.975-.789-.18,.034-.287,.126-.442,.207-.17,.088-.139,.166-.318,.224-.081,.026-.216,.124-.215,.224 .001,.115 .005,.051 .012,.169-.021,.011-.021-.005-.03-.025"/>
<path fill="#fff" d="m15.816-64.001c.018,.072 .007,.127-.026,.19-.053,.101-.112,.063-.165,.128-.05,.063-.099,.276-.079,.362-.169,.058-.009,.227-.015,.35-.002,.05-.041,.105-.045,.161-.01,.119 .017,.266 .068,.37 .097,.198 .268,.413 .435,.544 .19,.148 .365,.572 .608,.631 .177,.042 .384-.104 .543-.143 .18-.043 .397,.01 .571-.053 .222-.079 .127-.337 .288-.45 .104-.074 .287-.01 .406-.051 .2-.069 .339-.263 .376-.46 .016-.082 .01-.145 .039-.221 .039-.103 .111-.16 .09-.293-.01-.062-.052-.12-.064-.187-.022-.114 .002-.224 0-.337-.003-.2 .017-.379-.078-.55-.38-.688-1.236-.929-1.975-.789-.18,.034-.287,.126-.442,.207-.17,.088-.139,.166-.318,.224-.081,.026-.216,.124-.215,.224 .001,.115 .005,.051 .012,.169-.021,.011-.021-.005-.03-.025"/>
<path fill="#fff" d="m8.156-64.001c.018,.072 .007,.127-.026,.19-.053,.101-.112,.063-.165,.128-.05,.063-.099,.276-.079,.362-.169,.058-.009,.227-.015,.35-.002,.05-.041,.105-.045,.161-.01,.119 .017,.266 .068,.37 .097,.198 .268,.413 .435,.544 .19,.148 .365,.572 .608,.631 .177,.042 .384-.104 .543-.143 .18-.043 .397,.01 .571-.053 .222-.079 .127-.337 .288-.45 .104-.074 .287-.01 .406-.051 .2-.069 .339-.263 .376-.46 .016-.082 .01-.145 .039-.221 .039-.103 .111-.16 .09-.293-.01-.062-.052-.12-.064-.187-.022-.114 .002-.224 0-.337-.003-.2 .017-.379-.078-.55-.38-.688-1.236-.929-1.975-.789-.18,.034-.287,.126-.442,.207-.17,.088-.139,.166-.318,.224-.081,.026-.216,.124-.215,.224 .001,.115 .005,.051 .012,.169-.021,.011-.021-.005-.03-.025"/>
<path fill="#fff" d="m.495-64.001c.018,.072 .007,.127-.026,.19-.053,.101-.112,.063-.165,.128-.05,.063-.099,.276-.079,.362-.169,.058-.01,.227-.015,.35-.002,.05-.041,.105-.045,.161-.01,.119 .017,.266 .068,.37 .097,.198 .268,.413 .435,.544 .19,.148 .365,.572 .608,.631 .177,.042 .384-.104 .543-.143 .181-.042 .398,.011 .572-.052 .222-.079 .127-.337 .288-.45 .104-.074 .287-.01 .406-.051 .2-.069 .339-.263 .376-.46 .016-.082 .01-.145 .039-.221 .039-.103 .111-.16 .09-.293-.01-.062-.052-.12-.064-.187-.022-.114 .002-.224 0-.337-.003-.2 .017-.379-.078-.55-.38-.688-1.236-.929-1.975-.789-.18,.034-.287,.126-.442,.207-.17,.088-.139,.166-.318,.224-.081,.026-.216,.124-.215,.224 .001,.115 .005,.051 .012,.169-.021,.011-.021-.005-.03-.025"/>
<path fill="#fff" d="m69.439-56.348c.018,.072 .007,.127-.026,.19-.053,.101-.112,.063-.165,.128-.05,.063-.099,.276-.079,.362-.169,.058-.01,.227-.015,.35-.002,.05-.041,.105-.045,.161-.01,.119 .017,.266 .068,.37 .097,.198 .268,.413 .435,.544 .19,.148 .365,.572 .608,.631 .177,.042 .384-.104 .543-.143 .18-.043 .397,.01 .571-.053 .222-.079 .127-.337 .288-.45 .104-.074 .287-.01 .406-.051 .2-.069 .339-.263 .376-.46 .016-.082 .01-.145 .039-.221 .039-.103 .111-.16 .09-.293-.01-.062-.052-.12-.064-.187-.022-.114 .002-.224 0-.337-.003-.2 .017-.379-.078-.55-.38-.688-1.236-.929-1.975-.789-.18,.034-.287,.126-.442,.207-.17,.088-.139,.166-.318,.224-.081,.026-.216,.124-.215,.224 .001,.115 .005,.051 .012,.169-.021,.011-.021-.005-.03-.025"/>
<path fill="#fff" d="m61.778-56.348c.018,.072 .007,.127-.026,.19-.053,.101-.112,.063-.165,.128-.05,.063-.099,.276-.079,.362-.169,.058-.009,.227-.015,.35-.002,.05-.041,.105-.045,.161-.01,.119 .017,.266 .068,.37 .097,.198 .268,.413 .435,.544 .19,.148 .365,.572 .608,.631 .177,.042 .384-.104 .543-.143 .18-.043 .397,.01 .571-.053 .222-.079 .127-.337 .288-.45 .104-.074 .287-.01 .406-.051 .2-.069 .339-.263 .376-.46 .016-.082 .01-.145 .039-.221 .039-.103 .111-.16 .09-.293-.01-.062-.052-.12-.064-.187-.022-.114 .002-.224 0-.337-.003-.2 .017-.379-.078-.55-.38-.688-1.236-.929-1.975-.789-.18,.034-.287,.126-.442,.207-.17,.088-.139,.166-.318,.224-.081,.026-.216,.124-.215,.224 .001,.115 .005,.051 .012,.169-.021,.011-.021-.005-.03-.025"/>
<path fill="#fff" d="m54.118-56.348c.018,.072 .007,.127-.026,.19-.053,.101-.112,.063-.165,.128-.05,.063-.099,.276-.079,.362-.169,.058-.009,.227-.015,.35-.002,.05-.041,.105-.045,.161-.01,.119 .017,.266 .068,.37 .097,.198 .268,.413 .435,.544 .19,.148 .365,.572 .608,.631 .177,.042 .384-.104 .543-.143 .18-.043 .397,.01 .571-.053 .222-.079 .127-.337 .288-.45 .104-.074 .287-.01 .406-.051 .2-.069 .339-.263 .376-.46 .016-.082 .01-.145 .039-.221 .039-.103 .111-.16 .09-.293-.01-.062-.052-.12-.064-.187-.022-.114 .002-.224 0-.337-.003-.2 .017-.379-.078-.55-.38-.688-1.236-.929-1.975-.789-.18,.034-.287,.126-.442,.207-.17,.088-.139,.166-.318,.224-.081,.026-.216,.124-.215,.224 .001,.115 .005,.051 .012,.169-.021,.011-.021-.005-.03-.025"/>
<path fill="#fff" d="m46.458-56.348c.018,.072 .007,.127-.026,.19-.053,.101-.112,.063-.165,.128-.05,.063-.099,.276-.079,.362-.169,.058-.009,.227-.015,.35-.002,.05-.041,.105-.045,.161-.01,.119 .017,.266 .068,.37 .097,.198 .268,.413 .435,.544 .19,.148 .365,.572 .608,.631 .177,.042 .384-.104 .543-.143 .18-.043 .397,.01 .571-.053 .222-.079 .127-.337 .288-.45 .104-.074 .287-.01 .406-.051 .2-.069 .339-.263 .376-.46 .016-.082 .01-.145 .039-.221 .039-.103 .111-.16 .09-.293-.01-.062-.052-.12-.064-.187-.022-.114 .002-.224 0-.337-.003-.2 .017-.379-.078-.55-.38-.688-1.236-.929-1.975-.789-.18,.034-.287,.126-.442,.207-.17,.088-.139,.166-.318,.224-.081,.026-.216,.124-.215,.224 .001,.115 .005,.051 .012,.169-.021,.011-.021-.005-.03-.025"/>
<path fill="#fff" d="m38.797-56.348c.018,.072 .007,.127-.026,.19-.053,.101-.112,.063-.165,.128-.05,.063-.099,.276-.079,.362-.169,.058-.009,.227-.015,.35-.002,.05-.041,.105-.045,.161-.01,.119 .017,.266 .068,.37 .097,.198 .268,.413 .435,.544 .19,.148 .365,.572 .608,.631 .177,.042 .384-.104 .543-.143 .18-.043 .397,.01 .571-.053 .222-.079 .127-.337 .288-.45 .104-.074 .287-.01 .406-.051 .2-.069 .339-.263 .376-.46 .016-.082 .01-.145 .039-.221 .039-.103 .111-.16 .09-.293-.01-.062-.052-.12-.064-.187-.022-.114 .002-.224 0-.337-.003-.2 .017-.379-.078-.55-.38-.688-1.236-.929-1.975-.789-.18,.034-.287,.126-.442,.207-.17,.088-.139,.166-.318,.224-.081,.026-.216,.124-.215,.224 .001,.115 .005,.051 .012,.169-.021,.011-.021-.005-.03-.025"/>
<path fill="#fff" d="m31.137-56.348c.018,.072 .007,.127-.026,.19-.053,.101-.112,.063-.165,.128-.05,.063-.099,.276-.079,.362-.169,.058-.009,.227-.015,.35-.002,.05-.041,.105-.045,.161-.01,.119 .017,.266 .068,.37 .097,.198 .268,.413 .435,.544 .19,.148 .365,.572 .608,.631 .177,.042 .384-.104 .543-.143 .18-.043 .397,.01 .571-.053 .222-.079 .127-.337 .288-.45 .104-.074 .287-.01 .406-.051 .2-.069 .339-.263 .376-.46 .016-.082 .01-.145 .039-.221 .039-.103 .111-.16 .09-.293-.01-.062-.052-.12-.064-.187-.022-.114 .002-.224 0-.337-.003-.2 .017-.379-.078-.55-.38-.688-1.236-.929-1.975-.789-.18,.034-.287,.126-.442,.207-.17,.088-.139,.166-.318,.224-.081,.026-.216,.124-.215,.224 .001,.115 .005,.051 .012,.169-.021,.011-.021-.005-.03-.025"/>
<path fill="#fff" d="m23.477-56.348c.018,.072 .007,.127-.026,.19-.053,.101-.112,.063-.165,.128-.05,.063-.099,.276-.079,.362-.169,.058-.009,.227-.015,.35-.002,.05-.041,.105-.045,.161-.01,.119 .017,.266 .068,.37 .097,.198 .268,.413 .435,.544 .19,.148 .365,.572 .608,.631 .177,.042 .384-.104 .543-.143 .18-.043 .397,.01 .571-.053 .222-.079 .127-.337 .288-.45 .104-.074 .287-.01 .406-.051 .2-.069 .339-.263 .376-.46 .016-.082 .01-.145 .039-.221 .039-.103 .111-.16 .09-.293-.01-.062-.052-.12-.064-.187-.022-.114 .002-.224 0-.337-.003-.2 .017-.379-.078-.55-.38-.688-1.236-.929-1.975-.789-.18,.034-.287,.126-.442,.207-.17,.088-.139,.166-.318,.224-.081,.026-.216,.124-.215,.224 .001,.115 .005,.051 .012,.169-.021,.011-.021-.005-.03-.025"/>
<path fill="#fff" d="m15.816-56.348c.018,.072 .007,.127-.026,.19-.053,.101-.112,.063-.165,.128-.05,.063-.099,.276-.079,.362-.169,.058-.009,.227-.015,.35-.002,.05-.041,.105-.045,.161-.01,.119 .017,.266 .068,.37 .097,.198 .268,.413 .435,.544 .19,.148 .365,.572 .608,.631 .177,.042 .384-.104 .543-.143 .18-.043 .397,.01 .571-.053 .222-.079 .127-.337 .288-.45 .104-.074 .287-.01 .406-.051 .2-.069 .339-.263 .376-.46 .016-.082 .01-.145 .039-.221 .039-.103 .111-.16 .09-.293-.01-.062-.052-.12-.064-.187-.022-.114 .002-.224 0-.337-.003-.2 .017-.379-.078-.55-.38-.688-1.236-.929-1.975-.789-.18,.034-.287,.126-.442,.207-.17,.088-.139,.166-.318,.224-.081,.026-.216,.124-.215,.224 .001,.115 .005,.051 .012,.169-.021,.011-.021-.005-.03-.025"/>
<path fill="#fff" d="m8.156-56.348c.018,.072 .007,.127-.026,.19-.053,.101-.112,.063-.165,.128-.05,.063-.099,.276-.079,.362-.169,.058-.009,.227-.015,.35-.002,.05-.041,.105-.045,.161-.01,.119 .017,.266 .068,.37 .097,.198 .268,.413 .435,.544 .19,.148 .365,.572 .608,.631 .177,.042 .384-.104 .543-.143 .18-.043 .397,.01 .571-.053 .222-.079 .127-.337 .288-.45 .104-.074 .287-.01 .406-.051 .2-.069 .339-.263 .376-.46 .016-.082 .01-.145 .039-.221 .039-.103 .111-.16 .09-.293-.01-.062-.052-.12-.064-.187-.022-.114 .002-.224 0-.337-.003-.2 .017-.379-.078-.55-.38-.688-1.236-.929-1.975-.789-.18,.034-.287,.126-.442,.207-.17,.088-.139,.166-.318,.224-.081,.026-.216,.124-.215,.224 .001,.115 .005,.051 .012,.169-.021,.011-.021-.005-.03-.025"/>
<path fill="#fff" d="m.495-56.348c.018,.072 .007,.127-.026,.19-.053,.101-.112,.063-.165,.128-.05,.063-.099,.276-.079,.362-.169,.058-.01,.227-.015,.35-.002,.05-.041,.105-.045,.161-.01,.119 .017,.266 .068,.37 .097,.198 .268,.413 .435,.544 .19,.148 .365,.572 .608,.631 .177,.042 .384-.104 .543-.143 .18-.043 .397,.01 .571-.053 .222-.079 .127-.337 .288-.45 .104-.074 .287-.01 .406-.051 .2-.069 .339-.263 .376-.46 .016-.082 .01-.145 .039-.221 .039-.103 .111-.16 .09-.293-.01-.062-.052-.12-.064-.187-.022-.114 .002-.224 0-.337-.003-.2 .017-.379-.078-.55-.38-.688-1.236-.929-1.975-.789-.18,.034-.287,.126-.442,.207-.17,.088-.139,.166-.318,.224-.081,.026-.216,.124-.215,.224 .003,.117 .006,.053 .013,.171-.021,.011-.021-.005-.03-.025"/>
<path fill="#fff" d="m69.439-48.695c.018,.072 .007,.127-.026,.19-.053,.101-.112,.063-.165,.128-.05,.063-.099,.276-.079,.362-.169,.058-.01,.227-.015,.35-.002,.05-.041,.105-.045,.161-.01,.119 .017,.266 .068,.37 .097,.198 .268,.413 .435,.544 .19,.148 .365,.572 .608,.631 .177,.042 .384-.104 .543-.143 .18-.043 .397,.01 .571-.053 .222-.079 .127-.337 .288-.45 .104-.074 .287-.01 .406-.051 .2-.069 .339-.263 .376-.46 .016-.082 .01-.145 .039-.221 .039-.103 .111-.16 .09-.293-.01-.062-.052-.12-.064-.187-.022-.114 .002-.224 0-.337-.003-.2 .017-.379-.078-.55-.38-.688-1.236-.929-1.975-.789-.18,.034-.287,.126-.442,.207-.17,.088-.139,.166-.318,.224-.081,.026-.216,.124-.215,.224 .001,.115 .005,.051 .012,.169-.021,.011-.021-.005-.03-.025"/>
<path fill="#fff" d="m61.778-48.695c.018,.072 .007,.127-.026,.19-.053,.101-.112,.063-.165,.128-.05,.063-.099,.276-.079,.362-.169,.058-.009,.227-.015,.35-.002,.05-.041,.105-.045,.161-.01,.119 .017,.266 .068,.37 .097,.198 .268,.413 .435,.544 .19,.148 .365,.572 .608,.631 .177,.042 .384-.104 .543-.143 .18-.043 .397,.01 .571-.053 .222-.079 .127-.337 .288-.45 .104-.074 .287-.01 .406-.051 .2-.069 .339-.263 .376-.46 .016-.082 .01-.145 .039-.221 .039-.103 .111-.16 .09-.293-.01-.062-.052-.12-.064-.187-.022-.114 .002-.224 0-.337-.003-.2 .017-.379-.078-.55-.38-.688-1.236-.929-1.975-.789-.18,.034-.287,.126-.442,.207-.17,.088-.139,.166-.318,.224-.081,.026-.216,.124-.215,.224 .001,.115 .005,.051 .012,.169-.021,.011-.021-.005-.03-.025"/>
<path fill="#fff" d="m54.118-48.695c.018,.072 .007,.127-.026,.19-.053,.101-.112,.063-.165,.128-.05,.063-.099,.276-.079,.362-.169,.058-.009,.227-.015,.35-.002,.05-.041,.105-.045,.161-.01,.119 .017,.266 .068,.37 .097,.198 .268,.413 .435,.544 .19,.148 .365,.572 .608,.631 .177,.042 .384-.104 .543-.143 .18-.043 .397,.01 .571-.053 .222-.079 .127-.337 .288-.45 .104-.074 .287-.01 .406-.051 .2-.069 .339-.263 .376-.46 .016-.082 .01-.145 .039-.221 .039-.103 .111-.16 .09-.293-.01-.062-.052-.12-.064-.187-.022-.114 .002-.224 0-.337-.003-.2 .017-.379-.078-.55-.38-.688-1.236-.929-1.975-.789-.18,.034-.287,.126-.442,.207-.17,.088-.139,.166-.318,.224-.081,.026-.216,.124-.215,.224 .001,.115 .005,.051 .012,.169-.021,.011-.021-.005-.03-.025"/>
<path fill="#fff" d="m46.458-48.695c.018,.072 .007,.127-.026,.19-.053,.101-.112,.063-.165,.128-.05,.063-.099,.276-.079,.362-.169,.058-.009,.227-.015,.35-.002,.05-.041,.105-.045,.161-.01,.119 .017,.266 .068,.37 .097,.198 .268,.413 .435,.544 .19,.148 .365,.572 .608,.631 .177,.042 .384-.104 .543-.143 .18-.043 .397,.01 .571-.053 .222-.079 .127-.337 .288-.45 .104-.074 .287-.01 .406-.051 .2-.069 .339-.263 .376-.46 .016-.082 .01-.145 .039-.221 .039-.103 .111-.16 .09-.293-.01-.062-.052-.12-.064-.187-.022-.114 .002-.224 0-.337-.003-.2 .017-.379-.078-.55-.38-.688-1.236-.929-1.975-.789-.18,.034-.287,.126-.442,.207-.17,.088-.139,.166-.318,.224-.081,.026-.216,.124-.215,.224 .001,.115 .005,.051 .012,.169-.021,.011-.021-.005-.03-.025"/>
<path fill="#fff" d="m38.797-48.695c.018,.072 .007,.127-.026,.19-.053,.101-.112,.063-.165,.128-.05,.063-.099,.276-.079,.362-.169,.058-.009,.227-.015,.35-.002,.05-.041,.105-.045,.161-.01,.119 .017,.266 .068,.37 .097,.198 .268,.413 .435,.544 .19,.148 .365,.572 .608,.631 .177,.042 .384-.104 .543-.143 .18-.043 .397,.01 .571-.053 .222-.079 .127-.337 .288-.45 .104-.074 .287-.01 .406-.051 .2-.069 .339-.263 .376-.46 .016-.082 .01-.145 .039-.221 .039-.103 .111-.16 .09-.293-.01-.062-.052-.12-.064-.187-.022-.114 .002-.224 0-.337-.003-.2 .017-.379-.078-.55-.38-.688-1.236-.929-1.975-.789-.18,.034-.287,.126-.442,.207-.17,.088-.139,.166-.318,.224-.081,.026-.216,.124-.215,.224 .001,.115 .005,.051 .012,.169-.021,.011-.021-.005-.03-.025"/>
<path fill="#fff" d="m31.137-48.695c.018,.072 .007,.127-.026,.19-.053,.101-.112,.063-.165,.128-.05,.063-.099,.276-.079,.362-.169,.058-.009,.227-.015,.35-.002,.05-.041,.105-.045,.161-.01,.119 .017,.266 .068,.37 .097,.198 .268,.413 .435,.544 .19,.148 .365,.572 .608,.631 .177,.042 .384-.104 .543-.143 .18-.043 .397,.01 .571-.053 .222-.079 .127-.337 .288-.45 .104-.074 .287-.01 .406-.051 .2-.069 .339-.263 .376-.46 .016-.082 .01-.145 .039-.221 .039-.103 .111-.16 .09-.293-.01-.062-.052-.12-.064-.187-.022-.114 .002-.224 0-.337-.003-.2 .017-.379-.078-.55-.38-.688-1.236-.929-1.975-.789-.18,.034-.287,.126-.442,.207-.17,.088-.139,.166-.318,.224-.081,.026-.216,.124-.215,.224 .001,.115 .005,.051 .012,.169-.021,.011-.021-.005-.03-.025"/>
<path fill="#fff" d="m23.477-48.695c.018,.072 .007,.127-.026,.19-.053,.101-.112,.063-.165,.128-.05,.063-.099,.276-.079,.362-.169,.058-.009,.227-.015,.35-.002,.05-.041,.105-.045,.161-.01,.119 .017,.266 .068,.37 .097,.198 .268,.413 .435,.544 .19,.148 .365,.572 .608,.631 .177,.042 .384-.104 .543-.143 .18-.043 .397,.01 .571-.053 .222-.079 .127-.337 .288-.45 .104-.074 .287-.01 .406-.051 .2-.069 .339-.263 .376-.46 .016-.082 .01-.145 .039-.221 .039-.103 .111-.16 .09-.293-.01-.062-.052-.12-.064-.187-.022-.114 .002-.224 0-.337-.003-.2 .017-.379-.078-.55-.38-.688-1.236-.929-1.975-.789-.18,.034-.287,.126-.442,.207-.17,.088-.139,.166-.318,.224-.081,.026-.216,.124-.215,.224 .001,.115 .005,.051 .012,.169-.021,.011-.021-.005-.03-.025"/>
<path fill="#fff" d="m15.816-48.695c.018,.072 .007,.127-.026,.19-.053,.101-.112,.063-.165,.128-.05,.063-.099,.276-.079,.362-.169,.058-.009,.227-.015,.35-.002,.05-.041,.105-.045,.161-.01,.119 .017,.266 .068,.37 .097,.198 .268,.413 .435,.544 .19,.148 .365,.572 .608,.631 .177,.042 .384-.104 .543-.143 .18-.043 .397,.01 .571-.053 .222-.079 .127-.337 .288-.45 .104-.074 .287-.01 .406-.051 .2-.069 .339-.263 .376-.46 .016-.082 .01-.145 .039-.221 .039-.103 .111-.16 .09-.293-.01-.062-.052-.12-.064-.187-.022-.114 .002-.224 0-.337-.003-.2 .017-.379-.078-.55-.38-.688-1.236-.929-1.975-.789-.18,.034-.287,.126-.442,.207-.17,.088-.139,.166-.318,.224-.081,.026-.216,.124-.215,.224 .001,.115 .005,.051 .012,.169-.021,.011-.021-.005-.03-.025"/>
<path fill="#fff" d="m8.156-48.695c.018,.072 .007,.127-.026,.19-.053,.101-.112,.063-.165,.128-.05,.063-.099,.276-.079,.362-.169,.058-.009,.227-.015,.35-.002,.05-.041,.105-.045,.161-.01,.119 .017,.266 .068,.37 .097,.198 .268,.413 .435,.544 .19,.148 .365,.572 .608,.631 .177,.042 .384-.104 .543-.143 .18-.043 .397,.01 .571-.053 .222-.079 .127-.337 .288-.45 .104-.074 .287-.01 .406-.051 .2-.069 .339-.263 .376-.46 .016-.082 .01-.145 .039-.221 .039-.103 .111-.16 .09-.293-.01-.062-.052-.12-.064-.187-.022-.114 .002-.224 0-.337-.003-.2 .017-.379-.078-.55-.38-.688-1.236-.929-1.975-.789-.18,.034-.287,.126-.442,.207-.17,.088-.139,.166-.318,.224-.081,.026-.216,.124-.215,.224 .001,.115 .005,.051 .012,.169-.021,.011-.021-.005-.03-.025"/>
<path fill="#fff" d="m.495-48.695c.018,.072 .007,.127-.026,.19-.053,.101-.112,.063-.165,.128-.05,.063-.099,.276-.079,.362-.169,.058-.01,.227-.015,.35-.002,.05-.041,.105-.045,.161-.01,.119 .017,.266 .068,.37 .097,.198 .268,.413 .435,.544 .19,.148 .365,.572 .608,.631 .177,.042 .384-.104 .543-.143 .18-.043 .397,.01 .571-.053 .222-.079 .127-.337 .288-.45 .104-.074 .287-.01 .406-.051 .2-.069 .339-.263 .376-.46 .016-.082 .01-.145 .039-.221 .039-.103 .111-.16 .09-.293-.01-.062-.052-.12-.064-.187-.022-.114 .002-.224 0-.337-.003-.2 .017-.379-.078-.55-.38-.688-1.236-.929-1.975-.789-.18,.034-.287,.126-.442,.207-.17,.088-.139,.166-.318,.224-.081,.026-.216,.124-.215,.224 .001,.115 .005,.051 .012,.169-.021,.011-.021-.005-.03-.025"/>
<path fill="#fff" d="m69.439-41.042c.018,.072 .007,.127-.026,.19-.053,.101-.112,.063-.165,.128-.05,.063-.099,.276-.079,.362-.169,.058-.01,.227-.015,.35-.002,.05-.041,.105-.045,.161-.01,.119 .017,.266 .068,.37 .097,.198 .268,.413 .435,.544 .19,.148 .365,.572 .608,.631 .177,.042 .384-.104 .543-.143 .18-.043 .397,.01 .571-.053 .222-.079 .127-.337 .288-.45 .104-.074 .287-.01 .406-.051 .2-.069 .339-.263 .376-.46 .016-.082 .01-.145 .039-.221 .039-.103 .111-.16 .09-.293-.01-.062-.052-.12-.064-.187-.022-.114 .002-.224 0-.337-.003-.2 .017-.379-.078-.55-.38-.688-1.236-.929-1.975-.789-.18,.034-.287,.126-.442,.207-.17,.088-.139,.166-.318,.224-.081,.026-.216,.124-.215,.224 .001,.115 .005,.051 .012,.169-.021,.011-.021-.005-.03-.025"/>
<path fill="#fff" d="m61.778-41.042c.018,.072 .007,.127-.026,.19-.053,.101-.112,.063-.165,.128-.05,.063-.099,.276-.079,.362-.169,.058-.009,.227-.015,.35-.002,.05-.041,.105-.045,.161-.01,.119 .017,.266 .068,.37 .097,.198 .268,.413 .435,.544 .19,.148 .365,.572 .608,.631 .177,.042 .384-.104 .543-.143 .18-.043 .397,.01 .571-.053 .222-.079 .127-.337 .288-.45 .104-.074 .287-.01 .406-.051 .2-.069 .339-.263 .376-.46 .016-.082 .01-.145 .039-.221 .039-.103 .111-.16 .09-.293-.01-.062-.052-.12-.064-.187-.022-.114 .002-.224 0-.337-.003-.2 .017-.379-.078-.55-.38-.688-1.236-.929-1.975-.789-.18,.034-.287,.126-.442,.207-.17,.088-.139,.166-.318,.224-.081,.026-.216,.124-.215,.224 .001,.115 .005,.051 .012,.169-.021,.011-.021-.005-.03-.025"/>
<path fill="#fff" d="m54.118-41.042c.018,.072 .007,.127-.026,.19-.053,.101-.112,.063-.165,.128-.05,.063-.099,.276-.079,.362-.169,.058-.009,.227-.015,.35-.002,.05-.041,.105-.045,.161-.01,.119 .017,.266 .068,.37 .097,.198 .268,.413 .435,.544 .19,.148 .365,.572 .608,.631 .177,.042 .384-.104 .543-.143 .18-.043 .397,.01 .571-.053 .222-.079 .127-.337 .288-.45 .104-.074 .287-.01 .406-.051 .2-.069 .339-.263 .376-.46 .016-.082 .01-.145 .039-.221 .039-.103 .111-.16 .09-.293-.01-.062-.052-.12-.064-.187-.022-.114 .002-.224 0-.337-.003-.2 .017-.379-.078-.55-.38-.688-1.236-.929-1.975-.789-.18,.034-.287,.126-.442,.207-.17,.088-.139,.166-.318,.224-.081,.026-.216,.124-.215,.224 .001,.115 .005,.051 .012,.169-.021,.011-.021-.005-.03-.025"/>
<path fill="#fff" d="m46.458-41.042c.018,.072 .007,.127-.026,.19-.053,.101-.112,.063-.165,.128-.05,.063-.099,.276-.079,.362-.169,.058-.009,.227-.015,.35-.002,.05-.041,.105-.045,.161-.01,.119 .017,.266 .068,.37 .097,.198 .268,.413 .435,.544 .19,.148 .365,.572 .608,.631 .177,.042 .384-.104 .543-.143 .18-.043 .397,.01 .571-.053 .222-.079 .127-.337 .288-.45 .104-.074 .287-.01 .406-.051 .2-.069 .339-.263 .376-.46 .016-.082 .01-.145 .039-.221 .039-.103 .111-.16 .09-.293-.01-.062-.052-.12-.064-.187-.022-.114 .002-.224 0-.337-.003-.2 .017-.379-.078-.55-.38-.688-1.236-.929-1.975-.789-.18,.034-.287,.126-.442,.207-.17,.088-.139,.166-.318,.224-.081,.026-.216,.124-.215,.224 .001,.115 .005,.051 .012,.169-.021,.011-.021-.005-.03-.025"/>
<path fill="#fff" d="m38.797-41.042c.018,.072 .007,.127-.026,.19-.053,.101-.112,.063-.165,.128-.05,.063-.099,.276-.079,.362-.169,.058-.009,.227-.015,.35-.002,.05-.041,.105-.045,.161-.01,.119 .017,.266 .068,.37 .097,.198 .268,.413 .435,.544 .19,.148 .365,.572 .608,.631 .177,.042 .384-.104 .543-.143 .18-.043 .397,.01 .571-.053 .222-.079 .127-.337 .288-.45 .104-.074 .287-.01 .406-.051 .2-.069 .339-.263 .376-.46 .016-.082 .01-.145 .039-.221 .039-.103 .111-.16 .09-.293-.01-.062-.052-.12-.064-.187-.022-.114 .002-.224 0-.337-.003-.2 .017-.379-.078-.55-.38-.688-1.236-.929-1.975-.789-.18,.034-.287,.126-.442,.207-.17,.088-.139,.166-.318,.224-.081,.026-.216,.124-.215,.224 .001,.115 .005,.051 .012,.169-.021,.011-.021-.005-.03-.025"/>
<path fill="#fff" d="m31.137-41.042c.018,.072 .007,.127-.026,.19-.053,.101-.112,.063-.165,.128-.05,.063-.099,.276-.079,.362-.169,.058-.009,.227-.015,.35-.002,.05-.041,.105-.045,.161-.01,.119 .017,.266 .068,.37 .097,.198 .268,.413 .435,.544 .19,.148 .365,.572 .608,.631 .177,.042 .384-.104 .543-.143 .18-.043 .397,.01 .571-.053 .222-.079 .127-.337 .288-.45 .104-.074 .287-.01 .406-.051 .2-.069 .339-.263 .376-.46 .016-.082 .01-.145 .039-.221 .039-.103 .111-.16 .09-.293-.01-.062-.052-.12-.064-.187-.022-.114 .002-.224 0-.337-.003-.2 .017-.379-.078-.55-.38-.688-1.236-.929-1.975-.789-.18,.034-.287,.126-.442,.207-.17,.088-.139,.166-.318,.224-.081,.026-.216,.124-.215,.224 .001,.115 .005,.051 .012,.169-.021,.011-.021-.005-.03-.025"/>
<path fill="#fff" d="m23.477-41.042c.018,.072 .007,.127-.026,.19-.053,.101-.112,.063-.165,.128-.05,.063-.099,.276-.079,.362-.169,.058-.009,.227-.015,.35-.002,.05-.041,.105-.045,.161-.01,.119 .017,.266 .068,.37 .097,.198 .268,.413 .435,.544 .19,.148 .365,.572 .608,.631 .177,.042 .384-.104 .543-.143 .18-.043 .397,.01 .571-.053 .222-.079 .127-.337 .288-.45 .104-.074 .287-.01 .406-.051 .2-.069 .339-.263 .376-.46 .016-.082 .01-.145 .039-.221 .039-.103 .111-.16 .09-.293-.01-.062-.052-.12-.064-.187-.022-.114 .002-.224 0-.337-.003-.2 .017-.379-.078-.55-.38-.688-1.236-.929-1.975-.789-.18,.034-.287,.126-.442,.207-.17,.088-.139,.166-.318,.224-.081,.026-.216,.124-.215,.224 .001,.115 .005,.051 .012,.169-.021,.011-.021-.005-.03-.025"/>
<path fill="#fff" d="m15.816-41.042c.018,.072 .007,.127-.026,.19-.053,.101-.112,.063-.165,.128-.05,.063-.099,.276-.079,.362-.169,.058-.009,.227-.015,.35-.002,.05-.041,.105-.045,.161-.01,.119 .017,.266 .068,.37 .097,.198 .268,.413 .435,.544 .19,.148 .365,.572 .608,.631 .177,.042 .384-.104 .543-.143 .18-.043 .397,.01 .571-.053 .222-.079 .127-.337 .288-.45 .104-.074 .287-.01 .406-.051 .2-.069 .339-.263 .376-.46 .016-.082 .01-.145 .039-.221 .039-.103 .111-.16 .09-.293-.01-.062-.052-.12-.064-.187-.022-.114 .002-.224 0-.337-.003-.2 .017-.379-.078-.55-.38-.688-1.236-.929-1.975-.789-.18,.034-.287,.126-.442,.207-.17,.088-.139,.166-.318,.224-.081,.026-.216,.124-.215,.224 .001,.115 .005,.051 .012,.169-.021,.011-.021-.005-.03-.025"/>
<path fill="#fff" d="m8.156-41.042c.018,.072 .007,.127-.026,.19-.053,.101-.112,.063-.165,.128-.05,.063-.099,.276-.079,.362-.169,.058-.009,.227-.015,.35-.002,.05-.041,.105-.045,.161-.01,.119 .017,.266 .068,.37 .097,.198 .268,.413 .435,.544 .19,.148 .365,.572 .608,.631 .177,.042 .384-.104 .543-.143 .18-.043 .397,.01 .571-.053 .222-.079 .127-.337 .288-.45 .104-.074 .287-.01 .406-.051 .2-.069 .339-.263 .376-.46 .016-.082 .01-.145 .039-.221 .039-.103 .111-.16 .09-.293-.01-.062-.052-.12-.064-.187-.022-.114 .002-.224 0-.337-.003-.2 .017-.379-.078-.55-.38-.688-1.236-.929-1.975-.789-.18,.034-.287,.126-.442,.207-.17,.088-.139,.166-.318,.224-.081,.026-.216,.124-.215,.224 .001,.115 .005,.051 .012,.169-.02,.012-.021-.004-.03-.024"/>
<path fill="#fff" d="m.495-41.042c.018,.072 .007,.127-.026,.19-.053,.101-.112,.063-.165,.128-.05,.063-.099,.276-.079,.362-.169,.058-.01,.227-.015,.35-.002,.05-.041,.105-.045,.161-.01,.119 .017,.266 .068,.37 .097,.198 .268,.413 .435,.544 .19,.148 .365,.572 .608,.631 .177,.042 .384-.104 .543-.143 .18-.043 .397,.01 .571-.053 .222-.079 .127-.337 .288-.45 .104-.074 .287-.01 .406-.051 .2-.069 .339-.263 .376-.46 .016-.082 .01-.145 .039-.221 .039-.103 .111-.16 .09-.293-.01-.062-.052-.12-.064-.187-.022-.114 .002-.224 0-.337-.003-.2 .017-.379-.078-.55-.38-.688-1.236-.929-1.975-.789-.18,.034-.287,.126-.442,.207-.17,.088-.139,.166-.318,.224-.081,.026-.216,.124-.215,.224 .001,.115 .005,.051 .012,.169-.021,.011-.021-.005-.03-.025"/>
<path fill="#fff" d="m69.439-33.39c.018,.072 .007,.127-.026,.19-.053,.101-.112,.063-.165,.128-.05,.063-.099,.276-.079,.362-.169,.058-.01,.227-.015,.35-.002,.05-.041,.105-.045,.161-.01,.119 .017,.266 .068,.37 .097,.198 .268,.413 .435,.544 .19,.148 .365,.572 .608,.631 .177,.042 .384-.104 .543-.143 .18-.043 .397,.01 .571-.053 .222-.079 .127-.337 .288-.45 .104-.074 .287-.01 .406-.051 .2-.069 .339-.263 .376-.46 .016-.082 .01-.145 .039-.221 .039-.103 .111-.16 .09-.293-.01-.062-.052-.12-.064-.187-.022-.114 .002-.224 0-.337-.003-.2 .017-.379-.078-.55-.38-.688-1.236-.929-1.975-.789-.18,.034-.287,.126-.442,.207-.17,.088-.139,.166-.318,.224-.081,.026-.216,.124-.215,.224 .001,.115 .005,.051 .012,.169-.021,.011-.021-.005-.03-.025"/>
<path fill="#fff" d="m61.778-33.39c.018,.072 .007,.127-.026,.19-.053,.101-.112,.063-.165,.128-.05,.063-.099,.276-.079,.362-.169,.058-.009,.227-.015,.35-.002,.05-.041,.105-.045,.161-.01,.119 .017,.266 .068,.37 .097,.198 .268,.413 .435,.544 .19,.148 .365,.572 .608,.631 .177,.042 .384-.104 .543-.143 .18-.043 .397,.01 .571-.053 .222-.079 .127-.337 .288-.45 .104-.074 .287-.01 .406-.051 .2-.069 .339-.263 .376-.46 .016-.082 .01-.145 .039-.221 .039-.103 .111-.16 .09-.293-.01-.062-.052-.12-.064-.187-.022-.114 .002-.224 0-.337-.003-.2 .017-.379-.078-.55-.38-.688-1.236-.929-1.975-.789-.18,.034-.287,.126-.442,.207-.17,.088-.139,.166-.318,.224-.081,.026-.216,.124-.215,.224 .001,.115 .005,.051 .012,.169-.021,.011-.021-.005-.03-.025"/>
<path fill="#fff" d="m54.118-33.39c.018,.072 .007,.127-.026,.19-.053,.101-.112,.063-.165,.128-.05,.063-.099,.276-.079,.362-.169,.058-.009,.227-.015,.35-.002,.05-.041,.105-.045,.161-.01,.119 .017,.266 .068,.37 .097,.198 .268,.413 .435,.544 .19,.148 .365,.572 .608,.631 .177,.042 .384-.104 .543-.143 .18-.043 .397,.01 .571-.053 .222-.079 .127-.337 .288-.45 .104-.074 .287-.01 .406-.051 .2-.069 .339-.263 .376-.46 .016-.082 .01-.145 .039-.221 .039-.103 .111-.16 .09-.293-.01-.062-.052-.12-.064-.187-.022-.114 .002-.224 0-.337-.003-.2 .017-.379-.078-.55-.38-.688-1.236-.929-1.975-.789-.18,.034-.287,.126-.442,.207-.17,.088-.139,.166-.318,.224-.081,.026-.216,.124-.215,.224 .001,.115 .005,.051 .012,.169-.021,.011-.021-.005-.03-.025"/>
<path fill="#fff" d="m46.458-33.39c.018,.072 .007,.127-.026,.19-.053,.101-.112,.063-.165,.128-.05,.063-.099,.276-.079,.362-.169,.058-.009,.227-.015,.35-.002,.05-.041,.105-.045,.161-.01,.119 .017,.266 .068,.37 .097,.198 .268,.413 .435,.544 .19,.148 .365,.572 .608,.631 .177,.042 .384-.104 .543-.143 .18-.043 .397,.01 .571-.053 .222-.079 .127-.337 .288-.45 .104-.074 .287-.01 .406-.051 .2-.069 .339-.263 .376-.46 .016-.082 .01-.145 .039-.221 .039-.103 .111-.16 .09-.293-.01-.062-.052-.12-.064-.187-.022-.114 .002-.224 0-.337-.003-.2 .017-.379-.078-.55-.38-.688-1.236-.929-1.975-.789-.18,.034-.287,.126-.442,.207-.17,.088-.139,.166-.318,.224-.081,.026-.216,.124-.215,.224 .001,.115 .005,.051 .012,.169-.021,.011-.021-.005-.03-.025"/>
<path fill="#fff" d="m38.797-33.39c.018,.072 .007,.127-.026,.19-.053,.101-.112,.063-.165,.128-.05,.063-.099,.276-.079,.362-.169,.058-.009,.227-.015,.35-.002,.05-.041,.105-.045,.161-.01,.119 .017,.266 .068,.37 .097,.198 .268,.413 .435,.544 .19,.148 .365,.572 .608,.631 .177,.042 .384-.104 .543-.143 .18-.043 .397,.01 .571-.053 .222-.079 .127-.337 .288-.45 .104-.074 .287-.01 .406-.051 .2-.069 .339-.263 .376-.46 .016-.082 .01-.145 .039-.221 .039-.103 .111-.16 .09-.293-.01-.062-.052-.12-.064-.187-.022-.114 .002-.224 0-.337-.003-.2 .017-.379-.078-.55-.38-.688-1.236-.929-1.975-.789-.18,.034-.287,.126-.442,.207-.17,.088-.139,.166-.318,.224-.081,.026-.216,.124-.215,.224 .001,.115 .005,.051 .012,.169-.021,.011-.021-.005-.03-.025"/>
<path fill="#fff" d="m31.137-33.39c.018,.072 .007,.127-.026,.19-.053,.101-.112,.063-.165,.128-.05,.063-.099,.276-.079,.362-.169,.058-.009,.227-.015,.35-.002,.05-.041,.105-.045,.161-.01,.119 .017,.266 .068,.37 .097,.198 .268,.413 .435,.544 .19,.148 .365,.572 .608,.631 .177,.042 .384-.104 .543-.143 .18-.043 .397,.01 .571-.053 .222-.079 .127-.337 .288-.45 .104-.074 .287-.01 .406-.051 .2-.069 .339-.263 .376-.46 .016-.082 .01-.145 .039-.221 .039-.103 .111-.16 .09-.293-.01-.062-.052-.12-.064-.187-.022-.114 .002-.224 0-.337-.003-.2 .017-.379-.078-.55-.38-.688-1.236-.929-1.975-.789-.18,.034-.287,.126-.442,.207-.17,.088-.139,.166-.318,.224-.081,.026-.216,.124-.215,.224 .001,.115 .005,.051 .012,.169-.021,.011-.021-.005-.03-.025"/>
<path fill="#fff" d="m23.477-33.39c.018,.072 .007,.127-.026,.19-.053,.101-.112,.063-.165,.128-.05,.063-.099,.276-.079,.362-.169,.058-.009,.227-.015,.35-.002,.05-.041,.105-.045,.161-.01,.119 .017,.266 .068,.37 .097,.198 .268,.413 .435,.544 .19,.148 .365,.572 .608,.631 .177,.042 .384-.104 .543-.143 .18-.043 .397,.01 .571-.053 .222-.079 .127-.337 .288-.45 .104-.074 .287-.01 .406-.051 .2-.069 .339-.263 .376-.46 .016-.082 .01-.145 .039-.221 .039-.103 .111-.16 .09-.293-.01-.062-.052-.12-.064-.187-.022-.114 .002-.224 0-.337-.003-.2 .017-.379-.078-.55-.38-.688-1.236-.929-1.975-.789-.18,.034-.287,.126-.442,.207-.17,.088-.139,.166-.318,.224-.081,.026-.216,.124-.215,.224 .001,.115 .005,.051 .012,.169-.021,.011-.021-.005-.03-.025"/>
<path fill="#fff" d="m15.816-33.39c.018,.072 .007,.127-.026,.19-.053,.101-.112,.063-.165,.128-.05,.063-.099,.276-.079,.362-.169,.058-.009,.227-.015,.35-.002,.05-.041,.105-.045,.161-.01,.119 .017,.266 .068,.37 .097,.198 .268,.413 .435,.544 .19,.148 .365,.572 .608,.631 .177,.042 .384-.104 .543-.143 .18-.043 .397,.01 .571-.053 .222-.079 .127-.337 .288-.45 .104-.074 .287-.01 .406-.051 .2-.069 .339-.263 .376-.46 .016-.082 .01-.145 .039-.221 .039-.103 .111-.16 .09-.293-.01-.062-.052-.12-.064-.187-.022-.114 .002-.224 0-.337-.003-.2 .017-.379-.078-.55-.38-.688-1.236-.929-1.975-.789-.18,.034-.287,.126-.442,.207-.17,.088-.139,.166-.318,.224-.081,.026-.216,.124-.215,.224 .001,.115 .005,.051 .012,.169-.021,.011-.021-.005-.03-.025"/>
<path fill="#fff" d="m8.156-33.39c.018,.072 .007,.127-.026,.19-.053,.101-.112,.063-.165,.128-.05,.063-.099,.276-.079,.362-.169,.058-.009,.227-.015,.35-.002,.05-.041,.105-.045,.161-.01,.119 .017,.266 .068,.37 .097,.198 .268,.413 .435,.544 .19,.148 .365,.572 .608,.631 .177,.042 .384-.104 .543-.143 .18-.043 .397,.01 .571-.053 .222-.079 .127-.337 .288-.45 .104-.074 .287-.01 .406-.051 .2-.069 .339-.263 .376-.46 .016-.082 .01-.145 .039-.221 .039-.103 .111-.16 .09-.293-.01-.062-.052-.12-.064-.187-.022-.114 .002-.224 0-.337-.003-.2 .017-.379-.078-.55-.38-.688-1.236-.929-1.975-.789-.18,.034-.287,.126-.442,.207-.17,.088-.139,.166-.318,.224-.081,.026-.216,.124-.215,.224 .001,.115 .005,.051 .012,.169-.021,.011-.021-.005-.03-.025"/>
<path fill="#fff" d="m.495-33.39c.018,.072 .007,.127-.026,.19-.053,.101-.112,.063-.165,.128-.05,.063-.099,.276-.079,.362-.169,.058-.01,.227-.015,.35-.002,.05-.041,.105-.045,.161-.01,.119 .017,.266 .068,.37 .097,.198 .268,.413 .435,.544 .19,.148 .365,.572 .608,.631 .177,.042 .384-.104 .543-.143 .18-.043 .397,.01 .571-.053 .222-.079 .127-.337 .288-.45 .104-.074 .287-.01 .406-.051 .2-.069 .339-.263 .376-.46 .016-.082 .01-.145 .039-.221 .039-.103 .111-.16 .09-.293-.01-.062-.052-.12-.064-.187-.022-.114 .002-.224 0-.337-.003-.2 .017-.379-.078-.55-.38-.688-1.236-.929-1.975-.789-.18,.034-.287,.126-.442,.207-.17,.088-.139,.166-.318,.224-.081,.026-.216,.124-.215,.224 .003,.117 .006,.053 .013,.171-.021,.011-.021-.005-.03-.025"/>
<path fill="#fff" d="m69.439-25.736c.018,.072 .007,.127-.026,.19-.053,.101-.112,.063-.165,.128-.05,.063-.099,.276-.079,.362-.169,.058-.01,.227-.015,.35-.002,.05-.041,.105-.045,.161-.01,.119 .017,.266 .068,.37 .097,.198 .268,.413 .435,.544 .19,.148 .365,.572 .608,.631 .177,.042 .384-.104 .543-.143 .18-.043 .397,.01 .571-.053 .222-.079 .127-.337 .288-.45 .104-.074 .287-.01 .406-.051 .2-.069 .339-.263 .376-.46 .016-.082 .01-.145 .039-.221 .039-.103 .111-.16 .09-.293-.01-.062-.052-.12-.064-.187-.022-.114 .002-.224 0-.337-.003-.2 .017-.379-.078-.55-.38-.688-1.236-.929-1.975-.789-.18,.034-.287,.126-.442,.207-.17,.088-.139,.166-.318,.224-.081,.026-.216,.124-.215,.224 .001,.115 .005,.051 .012,.169-.021,.011-.021-.005-.03-.025"/>
<path fill="#fff" d="m61.778-25.736c.018,.072 .007,.127-.026,.19-.053,.101-.112,.063-.165,.128-.05,.063-.099,.276-.079,.362-.169,.058-.009,.227-.015,.35-.002,.05-.041,.105-.045,.161-.01,.119 .017,.266 .068,.37 .097,.198 .268,.413 .435,.544 .19,.148 .365,.572 .608,.631 .177,.042 .384-.104 .543-.143 .18-.043 .397,.01 .571-.053 .222-.079 .127-.337 .288-.45 .104-.074 .287-.01 .406-.051 .2-.069 .339-.263 .376-.46 .016-.082 .01-.145 .039-.221 .039-.103 .111-.16 .09-.293-.01-.062-.052-.12-.064-.187-.022-.114 .002-.224 0-.337-.003-.2 .017-.379-.078-.55-.38-.688-1.236-.929-1.975-.789-.18,.034-.287,.126-.442,.207-.17,.088-.139,.166-.318,.224-.081,.026-.216,.124-.215,.224 .001,.115 .005,.051 .012,.169-.021,.011-.021-.005-.03-.025"/>
<path fill="#fff" d="m54.118-25.736c.018,.072 .007,.127-.026,.19-.053,.101-.112,.063-.165,.128-.05,.063-.099,.276-.079,.362-.169,.058-.009,.227-.015,.35-.002,.05-.041,.105-.045,.161-.01,.119 .017,.266 .068,.37 .097,.198 .268,.413 .435,.544 .19,.148 .365,.572 .608,.631 .177,.042 .384-.104 .543-.143 .18-.043 .397,.01 .571-.053 .222-.079 .127-.337 .288-.45 .104-.074 .287-.01 .406-.051 .2-.069 .339-.263 .376-.46 .016-.082 .01-.145 .039-.221 .039-.103 .111-.16 .09-.293-.01-.062-.052-.12-.064-.187-.022-.114 .002-.224 0-.337-.003-.2 .017-.379-.078-.55-.38-.688-1.236-.929-1.975-.789-.18,.034-.287,.126-.442,.207-.17,.088-.139,.166-.318,.224-.081,.026-.216,.124-.215,.224 .001,.115 .005,.051 .012,.169-.021,.011-.021-.005-.03-.025"/>
<path fill="#fff" d="m46.458-25.736c.018,.072 .007,.127-.026,.19-.053,.101-.112,.063-.165,.128-.05,.063-.099,.276-.079,.362-.169,.058-.009,.227-.015,.35-.002,.05-.041,.105-.045,.161-.01,.119 .017,.266 .068,.37 .097,.198 .268,.413 .435,.544 .19,.148 .365,.572 .608,.631 .177,.042 .384-.104 .543-.143 .18-.043 .397,.01 .571-.053 .222-.079 .127-.337 .288-.45 .104-.074 .287-.01 .406-.051 .2-.069 .339-.263 .376-.46 .016-.082 .01-.145 .039-.221 .039-.103 .111-.16 .09-.293-.01-.062-.052-.12-.064-.187-.022-.114 .002-.224 0-.337-.003-.2 .017-.379-.078-.55-.38-.688-1.236-.929-1.975-.789-.18,.034-.287,.126-.442,.207-.17,.088-.139,.166-.318,.224-.081,.026-.216,.124-.215,.224 .001,.115 .005,.051 .012,.169-.021,.011-.021-.005-.03-.025"/>
<path fill="#fff" d="m38.797-25.736c.018,.072 .007,.127-.026,.19-.053,.101-.112,.063-.165,.128-.05,.063-.099,.276-.079,.362-.169,.058-.009,.227-.015,.35-.002,.05-.041,.105-.045,.161-.01,.119 .017,.266 .068,.37 .097,.198 .268,.413 .435,.544 .19,.148 .365,.572 .608,.631 .177,.042 .384-.104 .543-.143 .18-.043 .397,.01 .571-.053 .222-.079 .127-.337 .288-.45 .104-.074 .287-.01 .406-.051 .2-.069 .339-.263 .376-.46 .016-.082 .01-.145 .039-.221 .039-.103 .111-.16 .09-.293-.01-.062-.052-.12-.064-.187-.022-.114 .002-.224 0-.337-.003-.2 .017-.379-.078-.55-.38-.688-1.236-.929-1.975-.789-.18,.034-.287,.126-.442,.207-.17,.088-.139,.166-.318,.224-.081,.026-.216,.124-.215,.224 .001,.115 .005,.051 .012,.169-.021,.011-.021-.005-.03-.025"/>
<path fill="#fff" d="m31.137-25.736c.018,.072 .007,.127-.026,.19-.053,.101-.112,.063-.165,.128-.05,.063-.099,.276-.079,.362-.169,.058-.009,.227-.015,.35-.002,.05-.041,.105-.045,.161-.01,.119 .017,.266 .068,.37 .097,.198 .268,.413 .435,.544 .19,.148 .365,.572 .608,.631 .177,.042 .384-.104 .543-.143 .18-.043 .397,.01 .571-.053 .222-.079 .127-.337 .288-.45 .104-.074 .287-.01 .406-.051 .2-.069 .339-.263 .376-.46 .016-.082 .01-.145 .039-.221 .039-.103 .111-.16 .09-.293-.01-.062-.052-.12-.064-.187-.022-.114 .002-.224 0-.337-.003-.2 .017-.379-.078-.55-.38-.688-1.236-.929-1.975-.789-.18,.034-.287,.126-.442,.207-.17,.088-.139,.166-.318,.224-.081,.026-.216,.124-.215,.224 .001,.115 .005,.051 .012,.169-.021,.011-.021-.005-.03-.025"/>
<path fill="#fff" d="m23.477-25.736c.018,.072 .007,.127-.026,.19-.053,.101-.112,.063-.165,.128-.05,.063-.099,.276-.079,.362-.169,.058-.009,.227-.015,.35-.002,.05-.041,.105-.045,.161-.01,.119 .017,.266 .068,.37 .097,.198 .268,.413 .435,.544 .19,.148 .365,.572 .608,.631 .177,.042 .384-.104 .543-.143 .18-.043 .397,.01 .571-.053 .222-.079 .127-.337 .288-.45 .104-.074 .287-.01 .406-.051 .2-.069 .339-.263 .376-.46 .016-.082 .01-.145 .039-.221 .039-.103 .111-.16 .09-.293-.01-.062-.052-.12-.064-.187-.022-.114 .002-.224 0-.337-.003-.2 .017-.379-.078-.55-.38-.688-1.236-.929-1.975-.789-.18,.034-.287,.126-.442,.207-.17,.088-.139,.166-.318,.224-.081,.026-.216,.124-.215,.224 .001,.115 .005,.051 .012,.169-.021,.011-.021-.005-.03-.025"/>
<path fill="#fff" d="m15.816-25.736c.018,.072 .007,.127-.026,.19-.053,.101-.112,.063-.165,.128-.05,.063-.099,.276-.079,.362-.169,.058-.009,.227-.015,.35-.002,.05-.041,.105-.045,.161-.01,.119 .017,.266 .068,.37 .097,.198 .268,.413 .435,.544 .19,.148 .365,.572 .608,.631 .177,.042 .384-.104 .543-.143 .18-.043 .397,.01 .571-.053 .222-.079 .127-.337 .288-.45 .104-.074 .287-.01 .406-.051 .2-.069 .339-.263 .376-.46 .016-.082 .01-.145 .039-.221 .039-.103 .111-.16 .09-.293-.01-.062-.052-.12-.064-.187-.022-.114 .002-.224 0-.337-.003-.2 .017-.379-.078-.55-.38-.688-1.236-.929-1.975-.789-.18,.034-.287,.126-.442,.207-.17,.088-.139,.166-.318,.224-.081,.026-.216,.124-.215,.224 .001,.115 .005,.051 .012,.169-.021,.011-.021-.005-.03-.025"/>
<path fill="#fff" d="m8.156-25.736c.018,.072 .007,.127-.026,.19-.053,.101-.112,.063-.165,.128-.05,.063-.099,.276-.079,.362-.169,.058-.009,.227-.015,.35-.002,.05-.041,.105-.045,.161-.01,.119 .017,.266 .068,.37 .097,.198 .268,.413 .435,.544 .19,.148 .365,.572 .608,.631 .177,.042 .384-.104 .543-.143 .18-.043 .397,.01 .571-.053 .222-.079 .127-.337 .288-.45 .104-.074 .287-.01 .406-.051 .2-.069 .339-.263 .376-.46 .016-.082 .01-.145 .039-.221 .039-.103 .111-.16 .09-.293-.01-.062-.052-.12-.064-.187-.022-.114 .002-.224 0-.337-.003-.2 .017-.379-.078-.55-.38-.688-1.236-.929-1.975-.789-.18,.034-.287,.126-.442,.207-.17,.088-.139,.166-.318,.224-.081,.026-.216,.124-.215,.224 .001,.115 .005,.051 .012,.169-.021,.011-.021-.005-.03-.025"/>
<path fill="#fff" d="m.495-25.736c.018,.072 .007,.127-.026,.19-.053,.101-.112,.063-.165,.128-.05,.063-.099,.276-.079,.362-.169,.058-.01,.227-.015,.35-.002,.05-.041,.105-.045,.161-.01,.119 .017,.266 .068,.37 .097,.198 .268,.413 .435,.544 .19,.148 .365,.572 .608,.631 .177,.042 .384-.104 .543-.143 .18-.043 .397,.01 .571-.053 .222-.079 .127-.337 .288-.45 .104-.074 .287-.01 .406-.051 .2-.069 .339-.263 .376-.46 .016-.082 .01-.145 .039-.221 .039-.103 .111-.16 .09-.293-.01-.062-.052-.12-.064-.187-.022-.114 .002-.224 0-.337-.003-.2 .017-.379-.078-.55-.38-.688-1.236-.929-1.975-.789-.18,.034-.287,.126-.442,.207-.17,.088-.139,.166-.318,.224-.081,.026-.216,.124-.215,.224 .001,.115 .005,.051 .012,.169-.021,.011-.021-.005-.03-.025"/>
<path fill="#fff" d="m69.439-18.084c.018,.072 .007,.127-.026,.19-.053,.101-.112,.063-.165,.128-.05,.063-.099,.276-.079,.362-.169,.058-.01,.227-.015,.35-.002,.05-.041,.105-.045,.161-.01,.119 .017,.266 .068,.37 .097,.198 .268,.413 .435,.544 .19,.148 .365,.572 .608,.631 .177,.042 .384-.104 .543-.143 .18-.043 .397,.01 .571-.053 .222-.079 .127-.337 .288-.45 .104-.074 .287-.01 .406-.051 .2-.069 .339-.263 .376-.46 .016-.082 .01-.145 .039-.221 .039-.103 .111-.16 .09-.293-.01-.062-.052-.12-.064-.187-.022-.114 .002-.224 0-.337-.003-.2 .017-.379-.078-.55-.38-.688-1.236-.929-1.975-.789-.18,.034-.287,.126-.442,.207-.17,.088-.139,.166-.318,.224-.081,.026-.216,.124-.215,.224 .001,.115 .005,.051 .012,.169-.021,.011-.021-.005-.03-.025"/>
<path fill="#fff" d="m61.778-18.084c.018,.072 .007,.127-.026,.19-.053,.101-.112,.063-.165,.128-.05,.063-.099,.276-.079,.362-.169,.058-.009,.227-.015,.35-.002,.05-.041,.105-.045,.161-.01,.119 .017,.266 .068,.37 .097,.198 .268,.413 .435,.544 .19,.148 .365,.572 .608,.631 .177,.042 .384-.104 .543-.143 .18-.043 .397,.01 .571-.053 .222-.079 .127-.337 .288-.45 .104-.074 .287-.01 .406-.051 .2-.069 .339-.263 .376-.46 .016-.082 .01-.145 .039-.221 .039-.103 .111-.16 .09-.293-.01-.062-.052-.12-.064-.187-.022-.114 .002-.224 0-.337-.003-.2 .017-.379-.078-.55-.38-.688-1.236-.929-1.975-.789-.18,.034-.287,.126-.442,.207-.17,.088-.139,.166-.318,.224-.081,.026-.216,.124-.215,.224 .001,.115 .005,.051 .012,.169-.021,.011-.021-.005-.03-.025"/>
<path fill="#fff" d="m54.118-18.084c.018,.072 .007,.127-.026,.19-.053,.101-.112,.063-.165,.128-.05,.063-.099,.276-.079,.362-.169,.058-.009,.227-.015,.35-.002,.05-.041,.105-.045,.161-.01,.119 .017,.266 .068,.37 .097,.198 .268,.413 .435,.544 .19,.148 .365,.572 .608,.631 .177,.042 .384-.104 .543-.143 .18-.043 .397,.01 .571-.053 .222-.079 .127-.337 .288-.45 .104-.074 .287-.01 .406-.051 .2-.069 .339-.263 .376-.46 .016-.082 .01-.145 .039-.221 .039-.103 .111-.16 .09-.293-.01-.062-.052-.12-.064-.187-.022-.114 .002-.224 0-.337-.003-.2 .017-.379-.078-.55-.38-.688-1.236-.929-1.975-.789-.18,.034-.287,.126-.442,.207-.17,.088-.139,.166-.318,.224-.081,.026-.216,.124-.215,.224 .001,.115 .005,.051 .012,.169-.021,.011-.021-.005-.03-.025"/>
<path fill="#fff" d="m46.458-18.084c.018,.072 .007,.127-.026,.19-.053,.101-.112,.063-.165,.128-.05,.063-.099,.276-.079,.362-.169,.058-.009,.227-.015,.35-.002,.05-.041,.105-.045,.161-.01,.119 .017,.266 .068,.37 .097,.198 .268,.413 .435,.544 .19,.148 .365,.572 .608,.631 .177,.042 .384-.104 .543-.143 .18-.043 .397,.01 .571-.053 .222-.079 .127-.337 .288-.45 .104-.074 .287-.01 .406-.051 .2-.069 .339-.263 .376-.46 .016-.082 .01-.145 .039-.221 .039-.103 .111-.16 .09-.293-.01-.062-.052-.12-.064-.187-.022-.114 .002-.224 0-.337-.003-.2 .017-.379-.078-.55-.38-.688-1.236-.929-1.975-.789-.18,.034-.287,.126-.442,.207-.17,.088-.139,.166-.318,.224-.081,.026-.216,.124-.215,.224 .001,.115 .005,.051 .012,.169-.021,.011-.021-.005-.03-.025"/>
<path fill="#fff" d="m38.797-18.084c.018,.072 .007,.127-.026,.19-.053,.101-.112,.063-.165,.128-.05,.063-.099,.276-.079,.362-.169,.058-.009,.227-.015,.35-.002,.05-.041,.105-.045,.161-.01,.119 .017,.266 .068,.37 .097,.198 .268,.413 .435,.544 .19,.148 .365,.572 .608,.631 .177,.042 .384-.104 .543-.143 .18-.043 .397,.01 .571-.053 .222-.079 .127-.337 .288-.45 .104-.074 .287-.01 .406-.051 .2-.069 .339-.263 .376-.46 .016-.082 .01-.145 .039-.221 .039-.103 .111-.16 .09-.293-.01-.062-.052-.12-.064-.187-.022-.114 .002-.224 0-.337-.003-.2 .017-.379-.078-.55-.38-.688-1.236-.929-1.975-.789-.18,.034-.287,.126-.442,.207-.17,.088-.139,.166-.318,.224-.081,.026-.216,.124-.215,.224 .001,.115 .005,.051 .012,.169-.021,.011-.021-.005-.03-.025"/>
<path fill="#fff" d="m31.137-18.084c.018,.072 .007,.127-.026,.19-.053,.101-.112,.063-.165,.128-.05,.063-.099,.276-.079,.362-.169,.058-.009,.227-.015,.35-.002,.05-.041,.105-.045,.161-.01,.119 .017,.266 .068,.37 .097,.198 .268,.413 .435,.544 .19,.148 .365,.572 .608,.631 .177,.042 .384-.104 .543-.143 .18-.043 .397,.01 .571-.053 .222-.079 .127-.337 .288-.45 .104-.074 .287-.01 .406-.051 .2-.069 .339-.263 .376-.46 .016-.082 .01-.145 .039-.221 .039-.103 .111-.16 .09-.293-.01-.062-.052-.12-.064-.187-.022-.114 .002-.224 0-.337-.003-.2 .017-.379-.078-.55-.38-.688-1.236-.929-1.975-.789-.18,.034-.287,.126-.442,.207-.17,.088-.139,.166-.318,.224-.081,.026-.216,.124-.215,.224 .001,.115 .005,.051 .012,.169-.021,.011-.021-.005-.03-.025"/>
<path fill="#fff" d="m23.477-18.084c.018,.072 .007,.127-.026,.19-.053,.101-.112,.063-.165,.128-.05,.063-.099,.276-.079,.362-.169,.058-.009,.227-.015,.35-.002,.05-.041,.105-.045,.161-.01,.119 .017,.266 .068,.37 .097,.198 .268,.413 .435,.544 .19,.148 .365,.572 .608,.631 .177,.042 .384-.104 .543-.143 .18-.043 .397,.01 .571-.053 .222-.079 .127-.337 .288-.45 .104-.074 .287-.01 .406-.051 .2-.069 .339-.263 .376-.46 .016-.082 .01-.145 .039-.221 .039-.103 .111-.16 .09-.293-.01-.062-.052-.12-.064-.187-.022-.114 .002-.224 0-.337-.003-.2 .017-.379-.078-.55-.38-.688-1.236-.929-1.975-.789-.18,.034-.287,.126-.442,.207-.17,.088-.139,.166-.318,.224-.081,.026-.216,.124-.215,.224 .001,.115 .005,.051 .012,.169-.021,.011-.021-.005-.03-.025"/>
<path fill="#fff" d="m15.816-18.084c.018,.072 .007,.127-.026,.19-.053,.101-.112,.063-.165,.128-.05,.063-.099,.276-.079,.362-.169,.058-.009,.227-.015,.35-.002,.05-.041,.105-.045,.161-.01,.119 .017,.266 .068,.37 .097,.198 .268,.413 .435,.544 .19,.148 .365,.572 .608,.631 .177,.042 .384-.104 .543-.143 .18-.043 .397,.01 .571-.053 .222-.079 .127-.337 .288-.45 .104-.074 .287-.01 .406-.051 .2-.069 .339-.263 .376-.46 .016-.082 .01-.145 .039-.221 .039-.103 .111-.16 .09-.293-.01-.062-.052-.12-.064-.187-.022-.114 .002-.224 0-.337-.003-.2 .017-.379-.078-.55-.38-.688-1.236-.929-1.975-.789-.18,.034-.287,.126-.442,.207-.17,.088-.139,.166-.318,.224-.081,.026-.216,.124-.215,.224 .001,.115 .005,.051 .012,.169-.021,.011-.021-.005-.03-.025"/>
<path fill="#fff" d="m8.156-18.084c.018,.072 .007,.127-.026,.19-.053,.101-.112,.063-.165,.128-.05,.063-.099,.276-.079,.362-.169,.058-.009,.227-.015,.35-.002,.05-.041,.105-.045,.161-.01,.119 .017,.266 .068,.37 .097,.198 .268,.413 .435,.544 .19,.148 .365,.572 .608,.631 .177,.042 .384-.104 .543-.143 .18-.043 .397,.01 .571-.053 .222-.079 .127-.337 .288-.45 .104-.074 .287-.01 .406-.051 .2-.069 .339-.263 .376-.46 .016-.082 .01-.145 .039-.221 .039-.103 .111-.16 .09-.293-.01-.062-.052-.12-.064-.187-.022-.114 .002-.224 0-.337-.003-.2 .017-.379-.078-.55-.38-.688-1.236-.929-1.975-.789-.18,.034-.287,.126-.442,.207-.17,.088-.139,.166-.318,.224-.081,.026-.216,.124-.215,.224 .001,.115 .005,.051 .012,.169-.021,.011-.021-.005-.03-.025"/>
<path fill="#fff" d="m.495-18.084c.018,.072 .007,.127-.026,.19-.053,.101-.112,.063-.165,.128-.05,.063-.099,.276-.079,.362-.169,.058-.01,.227-.015,.35-.002,.05-.041,.105-.045,.161-.01,.119 .017,.266 .068,.37 .097,.198 .268,.413 .435,.544 .19,.148 .365,.572 .608,.631 .177,.042 .384-.104 .543-.143 .18-.043 .397,.01 .571-.053 .222-.079 .127-.337 .288-.45 .104-.074 .287-.01 .406-.051 .2-.069 .339-.263 .376-.46 .016-.082 .01-.145 .039-.221 .039-.103 .111-.16 .09-.293-.01-.062-.052-.12-.064-.187-.022-.114 .002-.224 0-.337-.003-.2 .017-.379-.078-.55-.38-.688-1.236-.929-1.975-.789-.18,.034-.287,.126-.442,.207-.17,.088-.139,.166-.318,.224-.081,.026-.216,.124-.215,.224 .003,.117 .006,.052 .013,.17-.021,.011-.021-.005-.03-.025"/>
<path fill="#fff" d="m69.439-10.431c.018,.072 .007,.127-.026,.19-.053,.101-.112,.063-.165,.128-.05,.063-.099,.276-.079,.362-.169,.059-.01,.228-.015,.351-.002,.05-.041,.105-.045,.161-.01,.119 .017,.266 .068,.37 .097,.198 .268,.413 .435,.544 .19,.148 .365,.572 .608,.631 .177,.042 .384-.104 .543-.143 .18-.043 .397,.01 .571-.053 .222-.079 .127-.337 .288-.45 .104-.074 .287-.01 .406-.051 .2-.069 .339-.263 .376-.46 .016-.082 .01-.145 .039-.221 .039-.103 .111-.16 .09-.293-.01-.062-.052-.12-.064-.187-.022-.114 .002-.224 0-.337-.003-.2 .017-.379-.078-.55-.38-.688-1.236-.929-1.975-.789-.18,.034-.287,.126-.442,.207-.17,.088-.139,.166-.318,.224-.081,.026-.216,.124-.215,.224 .001,.115 .005,.051 .012,.169-.021,.011-.021-.005-.03-.025"/>
<path fill="#fff" d="m61.778-10.431c.018,.072 .007,.127-.026,.19-.053,.101-.112,.063-.165,.128-.05,.063-.099,.276-.079,.362-.169,.058-.009,.227-.015,.35-.002,.05-.041,.105-.045,.161-.01,.119 .017,.266 .068,.37 .097,.198 .268,.413 .435,.544 .19,.148 .365,.572 .608,.631 .177,.042 .384-.104 .543-.143 .18-.043 .397,.01 .571-.053 .222-.079 .127-.337 .288-.45 .104-.074 .287-.01 .406-.051 .2-.069 .339-.263 .376-.46 .016-.082 .01-.145 .039-.221 .039-.103 .111-.16 .09-.293-.01-.062-.052-.12-.064-.187-.022-.114 .002-.224 0-.337-.003-.2 .017-.379-.078-.55-.38-.688-1.236-.929-1.975-.789-.18,.034-.287,.126-.442,.207-.17,.088-.139,.166-.318,.224-.081,.026-.216,.124-.215,.224 .001,.115 .005,.051 .012,.169-.021,.011-.021-.005-.03-.025"/>
<path fill="#fff" d="m54.118-10.431c.018,.072 .007,.127-.026,.19-.053,.101-.112,.063-.165,.128-.05,.063-.099,.276-.079,.362-.169,.058-.009,.227-.015,.35-.002,.05-.041,.105-.045,.161-.01,.119 .017,.266 .068,.37 .097,.198 .268,.413 .435,.544 .19,.148 .365,.572 .608,.631 .177,.042 .384-.104 .543-.143 .18-.043 .397,.01 .571-.053 .222-.079 .127-.337 .288-.45 .104-.074 .287-.01 .406-.051 .2-.069 .339-.263 .376-.46 .016-.082 .01-.145 .039-.221 .039-.103 .111-.16 .09-.293-.01-.062-.052-.12-.064-.187-.022-.114 .002-.224 0-.337-.003-.2 .017-.379-.078-.55-.38-.688-1.236-.929-1.975-.789-.18,.034-.287,.126-.442,.207-.17,.088-.139,.166-.318,.224-.081,.026-.216,.124-.215,.224 .001,.115 .005,.051 .012,.169-.021,.011-.021-.005-.03-.025"/>
<path fill="#fff" d="m46.458-10.431c.018,.072 .007,.127-.026,.19-.053,.101-.112,.063-.165,.128-.05,.063-.099,.276-.079,.362-.169,.058-.009,.227-.015,.35-.002,.05-.041,.105-.045,.161-.01,.119 .017,.266 .068,.37 .097,.198 .268,.413 .435,.544 .19,.148 .365,.572 .608,.631 .177,.042 .384-.104 .543-.143 .18-.043 .397,.01 .571-.053 .222-.079 .127-.337 .288-.45 .104-.074 .287-.01 .406-.051 .2-.069 .339-.263 .376-.46 .016-.082 .01-.145 .039-.221 .039-.103 .111-.16 .09-.293-.01-.062-.052-.12-.064-.187-.022-.114 .002-.224 0-.337-.003-.2 .017-.379-.078-.55-.38-.688-1.236-.929-1.975-.789-.18,.034-.287,.126-.442,.207-.17,.088-.139,.166-.318,.224-.081,.026-.216,.124-.215,.224 .001,.115 .005,.051 .012,.169-.021,.011-.021-.005-.03-.025"/>
<path fill="#fff" d="m38.797-10.431c.018,.072 .007,.127-.026,.19-.053,.101-.112,.063-.165,.128-.05,.063-.099,.276-.079,.362-.169,.058-.009,.227-.015,.35-.002,.05-.041,.105-.045,.161-.01,.119 .017,.266 .068,.37 .097,.198 .268,.413 .435,.544 .19,.148 .365,.572 .608,.631 .177,.042 .384-.104 .543-.143 .18-.043 .397,.01 .571-.053 .222-.079 .127-.337 .288-.45 .104-.074 .287-.01 .406-.051 .2-.069 .339-.263 .376-.46 .016-.082 .01-.145 .039-.221 .039-.103 .111-.16 .09-.293-.01-.062-.052-.12-.064-.187-.022-.114 .002-.224 0-.337-.003-.2 .017-.379-.078-.55-.38-.688-1.236-.929-1.975-.789-.18,.034-.287,.126-.442,.207-.17,.088-.139,.166-.318,.224-.081,.026-.216,.124-.215,.224 .001,.115 .005,.051 .012,.169-.021,.011-.021-.005-.03-.025"/>
<path fill="#fff" d="m31.137-10.431c.018,.072 .007,.127-.026,.19-.053,.101-.112,.063-.165,.128-.05,.063-.099,.276-.079,.362-.169,.058-.009,.227-.015,.35-.002,.05-.041,.105-.045,.161-.01,.119 .017,.266 .068,.37 .097,.198 .268,.413 .435,.544 .19,.148 .365,.572 .608,.631 .177,.042 .384-.104 .543-.143 .18-.043 .397,.01 .571-.053 .222-.079 .127-.337 .288-.45 .104-.074 .287-.01 .406-.051 .2-.069 .339-.263 .376-.46 .016-.082 .01-.145 .039-.221 .039-.103 .111-.16 .09-.293-.01-.062-.052-.12-.064-.187-.022-.114 .002-.224 0-.337-.003-.2 .017-.379-.078-.55-.38-.688-1.236-.929-1.975-.789-.18,.034-.287,.126-.442,.207-.17,.088-.139,.166-.318,.224-.081,.026-.216,.124-.215,.224 .001,.115 .005,.051 .012,.169-.021,.011-.021-.005-.03-.025"/>
<path fill="#fff" d="m23.477-10.431c.018,.072 .007,.127-.026,.19-.053,.101-.112,.063-.165,.128-.05,.063-.099,.276-.079,.362-.169,.058-.009,.227-.015,.35-.002,.05-.041,.105-.045,.161-.01,.119 .017,.266 .068,.37 .097,.198 .268,.413 .435,.544 .19,.148 .365,.572 .608,.631 .177,.042 .384-.104 .543-.143 .18-.043 .397,.01 .571-.053 .222-.079 .127-.337 .288-.45 .104-.074 .287-.01 .406-.051 .2-.069 .339-.263 .376-.46 .016-.082 .01-.145 .039-.221 .039-.103 .111-.16 .09-.293-.01-.062-.052-.12-.064-.187-.022-.114 .002-.224 0-.337-.003-.2 .017-.379-.078-.55-.38-.688-1.236-.929-1.975-.789-.18,.034-.287,.126-.442,.207-.17,.088-.139,.166-.318,.224-.081,.026-.216,.124-.215,.224 .001,.115 .005,.051 .012,.169-.021,.011-.021-.005-.03-.025"/>
<path fill="#fff" d="m15.816-10.431c.018,.072 .007,.127-.026,.19-.053,.101-.112,.063-.165,.128-.05,.063-.099,.276-.079,.362-.169,.058-.009,.227-.015,.35-.002,.05-.041,.105-.045,.161-.01,.119 .017,.266 .068,.37 .097,.198 .268,.413 .435,.544 .19,.148 .365,.572 .608,.631 .177,.042 .384-.104 .543-.143 .18-.043 .397,.01 .571-.053 .222-.078 .128-.336 .289-.449 .104-.074 .287-.01 .406-.051 .2-.069 .339-.263 .376-.46 .016-.082 .01-.145 .039-.221 .039-.103 .111-.16 .09-.293-.01-.062-.052-.12-.064-.187-.022-.114 .002-.224 0-.337-.003-.2 .017-.379-.078-.55-.38-.688-1.236-.929-1.975-.789-.18,.034-.287,.126-.442,.207-.17,.088-.139,.166-.318,.224-.081,.026-.216,.124-.215,.224 .001,.115 .005,.051 .012,.169-.021,.011-.021-.005-.03-.025"/>
<path fill="#fff" d="m8.156-10.431c.018,.072 .007,.127-.026,.19-.053,.101-.112,.063-.165,.128-.05,.063-.099,.277-.079,.363-.169,.058-.01,.227-.015,.35-.003,.049-.041,.105-.045,.161-.01,.119 .017,.266 .068,.37 .097,.198 .268,.413 .435,.544 .19,.148 .365,.572 .608,.631 .177,.042 .384-.105 .543-.143 .18-.043 .397,.01 .571-.053 .222-.079 .127-.337 .288-.45 .104-.074 .287-.01 .406-.051 .2-.069 .339-.263 .376-.46 .016-.082 .01-.145 .039-.221 .039-.103 .111-.16 .09-.293-.01-.062-.052-.12-.064-.187-.022-.114 .002-.224 0-.337-.003-.2 .017-.379-.078-.55-.38-.688-1.236-.929-1.975-.789-.18,.034-.287,.126-.442,.207-.17,.088-.139,.166-.318,.224-.081,.026-.216,.124-.215,.224 .001,.115 .005,.051 .012,.169-.021,.011-.021-.005-.03-.025"/>
<path fill="#fff" d="m.495-10.431c.018,.072 .007,.127-.026,.19-.053,.101-.112,.063-.165,.128-.05,.063-.099,.277-.079,.363-.169,.058-.01,.227-.015,.35-.002,.05-.041,.105-.045,.161-.01,.119 .017,.266 .068,.37 .097,.198 .268,.413 .435,.544 .19,.148 .365,.572 .608,.631 .178,.042 .384-.105 .543-.143 .181-.043 .398,.01 .572-.053 .222-.079 .127-.337 .288-.45 .104-.074 .287-.01 .406-.051 .2-.069 .339-.263 .376-.46 .016-.082 .01-.144 .039-.22 .039-.103 .111-.16 .09-.293-.01-.062-.052-.12-.064-.187-.022-.114 .002-.224 0-.337-.003-.2 .017-.379-.078-.55-.38-.688-1.236-.929-1.975-.789-.18,.034-.287,.126-.442,.207-.17,.088-.139,.166-.318,.224-.081,.026-.216,.124-.215,.224 .001,.115 .005,.051 .012,.169-.021,.011-.021-.005-.03-.025"/>
<path fill="#fff" d="m69.439-2.778c.018,.072 .008,.127-.026,.19-.052,.101-.113,.063-.165,.128-.051,.063-.099,.276-.079,.362-.169,.058-.01,.227-.015,.35-.002,.05-.041,.105-.045,.161-.01,.119 .017,.266 .068,.37 .097,.198 .268,.413 .435,.544 .19,.148 .365,.572 .608,.631 .177,.042 .384-.104 .543-.143 .18-.043 .397,.01 .571-.053 .222-.079 .127-.337 .288-.45 .104-.074 .287-.01 .406-.051 .2-.07 .339-.263 .376-.46 .016-.082 .01-.145 .039-.221 .038-.103 .111-.16 .09-.293-.01-.062-.051-.12-.064-.187-.021-.114 .002-.224 0-.337-.003-.2 .017-.379-.078-.55-.38-.688-1.236-.929-1.975-.789-.18,.034-.287,.126-.442,.207-.17,.088-.139,.166-.318,.224-.081,.026-.215,.124-.215,.224 .002,.115 .005,.051 .012,.169-.021,.011-.021-.005-.03-.025"/>
<path fill="#fff" d="m61.778-2.778c.018,.072 .007,.127-.026,.19-.052,.101-.112,.063-.165,.128-.05,.063-.099,.276-.079,.362-.169,.058-.01,.227-.015,.35-.002,.05-.041,.105-.045,.161-.01,.119 .017,.266 .068,.37 .097,.198 .268,.413 .435,.544 .19,.148 .365,.572 .608,.631 .178,.042 .384-.104 .544-.143 .18-.043 .397,.01 .571-.053 .222-.079 .127-.337 .288-.45 .104-.074 .287-.01 .406-.051 .2-.069 .339-.263 .376-.46 .016-.082 .01-.145 .039-.221 .039-.103 .111-.16 .09-.293-.01-.062-.052-.12-.064-.187-.022-.114 .002-.224 0-.337-.003-.2 .017-.379-.078-.55-.38-.688-1.236-.929-1.975-.789-.18,.034-.287,.126-.442,.207-.17,.088-.139,.166-.318,.224-.081,.028-.216,.125-.215,.225 .001,.115 .005,.051 .012,.169-.021,.011-.021-.005-.03-.025"/>
<path fill="#fff" d="m54.118-2.778c.018,.072 .007,.127-.026,.19-.052,.101-.112,.063-.165,.128-.05,.063-.099,.276-.079,.362-.169,.058-.01,.227-.015,.35-.002,.05-.041,.105-.045,.161-.01,.119 .017,.266 .068,.37 .097,.198 .268,.413 .435,.544 .19,.148 .365,.572 .608,.631 .178,.042 .384-.104 .543-.143 .18-.043 .397,.01 .571-.053 .222-.079 .127-.337 .288-.45 .104-.074 .287-.01 .406-.051 .2-.069 .339-.263 .376-.46 .016-.082 .01-.145 .039-.221 .039-.103 .111-.16 .09-.293-.01-.062-.052-.12-.064-.187-.022-.114 .002-.224 0-.337-.003-.2 .017-.379-.078-.55-.38-.688-1.236-.929-1.975-.789-.18,.034-.287,.126-.442,.207-.17,.088-.139,.166-.318,.224-.08,.028-.215,.125-.214,.225 .001,.115 .005,.051 .012,.169-.021,.011-.021-.005-.03-.025"/>
<path fill="#fff" d="m46.458-2.778c.018,.072 .007,.127-.026,.19-.053,.101-.112,.063-.165,.128-.05,.063-.099,.276-.079,.362-.169,.058-.01,.227-.015,.35-.002,.05-.041,.105-.045,.161-.01,.119 .017,.266 .068,.37 .097,.198 .268,.413 .435,.544 .19,.148 .365,.572 .608,.631 .177,.042 .384-.104 .543-.143 .18-.043 .397,.01 .571-.053 .222-.079 .127-.337 .288-.45 .104-.074 .287-.01 .406-.051 .2-.069 .339-.263 .376-.46 .016-.082 .01-.145 .039-.221 .039-.103 .111-.16 .09-.293-.01-.062-.052-.12-.064-.187-.022-.114 .002-.224 0-.337-.003-.2 .017-.379-.078-.55-.38-.688-1.236-.929-1.975-.789-.18,.034-.287,.126-.442,.207-.17,.088-.139,.166-.318,.224-.081,.028-.216,.125-.215,.225 .001,.115 .005,.051 .012,.169-.021,.011-.021-.005-.03-.025"/>
<path fill="#fff" d="m38.797-2.778c.018,.072 .007,.127-.026,.19-.053,.101-.112,.063-.165,.128-.05,.063-.099,.276-.079,.362-.169,.058-.01,.227-.015,.35-.002,.05-.041,.105-.045,.161-.01,.119 .017,.266 .068,.37 .097,.198 .268,.413 .435,.544 .19,.148 .365,.572 .608,.631 .178,.042 .384-.104 .544-.143 .18-.043 .397,.01 .571-.053 .222-.079 .127-.337 .288-.45 .104-.074 .287-.01 .406-.051 .2-.069 .339-.263 .376-.46 .016-.082 .01-.145 .039-.221 .039-.103 .111-.16 .09-.293-.01-.062-.052-.12-.064-.187-.022-.114 .002-.224 0-.337-.003-.2 .017-.379-.078-.55-.38-.688-1.236-.929-1.975-.789-.18,.034-.287,.126-.442,.207-.17,.088-.139,.166-.318,.224-.081,.028-.216,.125-.215,.225 .001,.115 .005,.051 .012,.169-.021,.011-.021-.005-.03-.025"/>
<path fill="#fff" d="m31.137-2.778c.018,.072 .007,.127-.026,.19-.053,.101-.112,.063-.165,.128-.05,.063-.099,.276-.079,.362-.169,.058-.01,.227-.015,.35-.002,.05-.041,.105-.045,.161-.01,.119 .017,.266 .068,.37 .097,.198 .268,.413 .435,.544 .19,.148 .365,.572 .608,.631 .177,.042 .384-.104 .543-.143 .18-.043 .397,.01 .571-.053 .222-.079 .127-.337 .288-.45 .104-.074 .287-.01 .406-.051 .2-.069 .339-.263 .376-.46 .016-.082 .01-.145 .039-.221 .039-.103 .111-.16 .09-.293-.01-.062-.052-.12-.064-.187-.022-.114 .002-.224 0-.337-.003-.2 .017-.379-.078-.55-.38-.688-1.236-.929-1.975-.789-.18,.034-.287,.126-.442,.207-.17,.088-.139,.166-.318,.224-.081,.028-.215,.125-.214,.225 .001,.115 .005,.051 .012,.169-.021,.011-.021-.005-.03-.025"/>
<path fill="#fff" d="m23.477-2.778c.018,.072 .007,.127-.026,.19-.053,.101-.112,.063-.165,.128-.05,.063-.099,.276-.079,.362-.169,.058-.01,.227-.015,.35-.002,.05-.041,.105-.045,.161-.01,.119 .017,.266 .068,.37 .097,.198 .268,.413 .435,.544 .19,.148 .365,.572 .608,.631 .177,.042 .384-.104 .543-.143 .18-.043 .397,.01 .571-.053 .222-.079 .127-.337 .288-.45 .104-.074 .287-.01 .406-.051 .2-.069 .339-.263 .376-.46 .016-.082 .01-.145 .039-.221 .039-.103 .111-.16 .09-.293-.01-.062-.052-.12-.064-.187-.022-.114 .002-.224 0-.337-.003-.2 .017-.379-.078-.55-.38-.688-1.236-.929-1.975-.789-.18,.034-.287,.126-.442,.207-.17,.088-.139,.166-.318,.224-.081,.026-.216,.124-.215,.224 .001,.115 .005,.051 .012,.169-.021,.011-.021-.005-.03-.025"/>
<path fill="#fff" d="m15.816-2.778c.018,.072 .007,.127-.026,.19-.053,.101-.112,.063-.165,.128-.05,.063-.099,.276-.079,.362-.169,.058-.01,.227-.015,.35-.002,.05-.041,.105-.045,.161-.01,.119 .017,.266 .068,.37 .097,.198 .268,.413 .435,.544 .19,.148 .365,.572 .608,.631 .177,.042 .384-.104 .543-.143 .18-.043 .397,.01 .571-.053 .222-.079 .127-.337 .288-.45 .104-.074 .287-.01 .406-.051 .2-.069 .339-.263 .376-.46 .016-.082 .01-.145 .039-.221 .039-.103 .111-.16 .09-.293-.01-.062-.052-.12-.064-.187-.022-.114 .002-.224 0-.337-.003-.2 .017-.379-.078-.55-.38-.688-1.236-.929-1.975-.789-.18,.034-.287,.126-.442,.207-.17,.088-.139,.166-.318,.224-.081,.026-.216,.124-.215,.224 .001,.115 .005,.051 .012,.169-.02,.012-.021-.004-.03-.024"/>
<path fill="#fff" d="m8.156-2.778c.018,.072 .007,.127-.026,.19-.053,.101-.112,.063-.165,.128-.05,.063-.099,.276-.079,.362-.169,.058-.01,.227-.015,.35-.003,.05-.041,.105-.045,.161-.01,.119 .017,.266 .068,.37 .097,.198 .268,.413 .435,.544 .19,.148 .365,.572 .608,.631 .177,.042 .384-.104 .543-.143 .18-.043 .397,.01 .571-.053 .222-.079 .127-.337 .288-.45 .104-.074 .287-.01 .406-.051 .2-.069 .339-.263 .376-.46 .016-.082 .01-.145 .039-.221 .039-.103 .111-.16 .09-.293-.01-.062-.052-.12-.064-.187-.022-.114 .002-.224 0-.337-.003-.2 .017-.379-.078-.55-.38-.688-1.236-.929-1.975-.789-.179,.036-.286,.128-.441,.209-.17,.088-.139,.166-.318,.224-.082,.026-.216,.123-.215,.223 .001,.115 .005,.051 .011,.169-.02,.011-.021-.005-.03-.025"/>
<path fill="#fff" d="m.495-2.778c.018,.072 .008,.127-.026,.19-.052,.101-.113,.063-.165,.128-.051,.063-.099,.276-.079,.362-.169,.058-.01,.227-.015,.35-.002,.05-.041,.105-.045,.161-.01,.119 .017,.266 .068,.37 .097,.198 .268,.413 .435,.544 .19,.148 .365,.572 .608,.631 .178,.042 .384-.104 .543-.143 .181-.043 .398,.01 .572-.052 .222-.079 .127-.337 .288-.45 .104-.074 .287-.01 .406-.051 .2-.07 .339-.263 .376-.46 .016-.082 .01-.145 .039-.221 .038-.103 .111-.16 .09-.293-.01-.062-.051-.12-.064-.187-.021-.114 .002-.224 0-.337-.003-.2 .017-.379-.078-.55-.38-.688-1.236-.929-1.975-.789-.18,.035-.286,.127-.442,.208-.17,.088-.139,.166-.318,.224-.081,.026-.215,.123-.215,.223 .002,.115 .005,.051 .012,.169-.021,.011-.022-.005-.031-.025"/>
</pattern>
<pattern patternTransform="matrix(1.7339 0 0 1.7339 5903.7 5677.8)" id="SVGID_1_" xlink:href="#Unnamed_Pattern"/>
</defs>
<switch>
<g>
<g>
<path fill="#bfd241" stroke="#bfd241" stroke-width=".602" d="m126.81,268.49s41.571,2.794 50.854,36.687c-38.17,12.69-50.85-36.69-50.85-36.69z"/>
<path fill="#55b9df" d="m245.67,87.172c7.992-25.747-2.787-42.3-14-27.363-1.22-1.146-2.736-2.059-4.613-2.62 .969-19.088-3.542-25.557-16.106-24.835-9.705,.561-16.946,7.012-23.984,23.767-2.53-23.443-8.776-36.084-25.028-32.528-12.786,2.802-14.247,17.18-13.963,28.003 .053,2.225 .93,5.854 2.248,11.394-13.109-17.639-28.003-26.547-38.248-23.589-17.718,5.117-10.332,23.845 5.324,51.059-7.999-8.16-18.609-18.064-27.56-20.981-18.331-5.982-22.212,16.179-12.909,28.789-16.412-6.981-26.541-3.022-27.386,7.869-.474,6.109 6.01,17.56 19.888,27.079-1.527,5.832 .984,13.831 6.059,21.789 12.74,19.982 30.804,27.8 51.418,37.072 50.228,22.602 105.63-37.037 117.22-62.634 4.61-10.2 9.91-31.582 1.64-42.278z"/>
<path fill="url(#SVGID_1_)" d="m106.65,114.06c.792-14.543 33.493-31.283 45.982-35.351 17.392-5.669 40.185,3.228 46.363,21.666 7.327,21.882-15.525,41.309-34.737,47.708-19.351,6.451-64.954-7.684-58.916-33.469 .555-2.384 3.403-5.917 4.24-8.206"/>
<use fill="#00b2d6" xlink:href="#SVGID_2_"/>
<g fill="none" stroke="#e53b41" stroke-width="1.97">
<path d="m71.803,113.31c-10.932-12.207-7.63-35.96 11.511-29.718 11.494,3.749 23.926,16.462 31.827,24.755"/>
<path d="m115.14,108.35c-8.409-11.837-36.04-47.193-9.584-54.835 15.266-4.406 37.25,11.782 42.753,26.73"/>
<path d="m73.151,113.62c-18.026-8.643-29.239-4.856-30.131,6.636-.476,6.084 5.928,17.493 19.711,27"/>
<path d="m224.8,73.224c11.339-16.492 22.643-.344 15.017,25.445"/>
<path d="m189.25,97.502c-.91-13.401 13.142-26.305 26.006-26.818 12.041-.479 21.54,16.088 12.579,22.929"/>
<path d="m108.9,115.26c-5.13-8.295-15.768-17.94-28.373-10.51-13.813,8.131-6.119,20.26-1.28,31.563"/>
<path d="m120.67,204.48c-20.614-9.272-38.678-17.089-51.415-37.071-10.478-16.43-10.075-33.068 14.386-30.343 18.311,2.044 29.69,15.49 43.172,24.921-8.151-10.357-28.569-44.236-11.673-53.634 17.467-9.712 41.871,20.445 42.955,34.57-3.818-12.331 3.004-49.479 19.73-50.388 16.381-.877 26.019,29.019 22.256,42.882-2.732-13.348 11.988-44.308 28.309-41.956 22.602,3.265 15.47,35.208 9.502,48.382-11.6,25.59-67,85.23-117.23,62.63z"/>
<path d="m173.99,78.089c7.479-20.8 16.686-32.519 30.82-33.329 15.829-.916 18.881,9.585 16.867,27.158"/>
<path d="m173.99,78.089c7.251-16.159 9.326-48.118-18.186-42.091-12.788,2.804-14.254,17.177-13.966,28 .104,4.035 3.901,10.515 6.47,16.249"/>
</g>
<path fill="#bfd241" d="m120.1,208.69c-11.233-5.072-21.515-12.086-28.932-22.051 4.104,1.397 8.747,.857 12.998,1.534 5.947,.953 11.599,4.121 17.014,6.656 8.659,4.052 16.351,10.357 24.271,15.199-3.065-1.51-6.465-6.871-8.477-9.655-3.874-5.362-5.47-11.263-7.457-17.423-2.608-8.082-4.22-15.6-2.313-23.83 8.758,9.559 15.799,18.609 19.445,31.304 1.372,4.785 2.978,16.836 2.978,16.836s-2.178-7.591-1.968-11.806c.318-6.687 1.101-13.754 2.513-20.307 2.059-9.532 5.876-22.02 13.099-28.86 1.928,3.851 2.151,9.349 3.216,13.582 2.01,7.967 4.153,15.378 2.745,23.657-1.361,8-10.556,23.452-10.556,23.452s11.48-22.289 19.997-30.749c6.864-6.814 16.43-16.124 26.141-18.336-1.408,9.664-9.882,19.913-15.09,27.94-5.398,8.333-22.132,23.559-22.132,23.559 24.749-23.928 22.931-22.163 27.506-26.572 7.125-6.86 16.956-8.504 24.454-14.458 .83,5.38-9.827,14.278-13.295,17.696-5.504,5.416-11.125,10.969-17.117,15.695-4.422,3.49-9.034,6.926-14.104,9.43-2.526,1.243-5.053,1.949-7.718,2.771-3.828,1.183-3.838,1.158-4.196,5.602-.982,12.198 2.326,24.449 6.177,35.909 3.302,9.81 5.625,20.05 9.137,29.862 2.266,6.338 38.966,83.806 43.094,88.997-2.601,1.273-5.303,8.68-5.303,8.68s-39.555-74.446-41.397-78.034c-4.061-7.927-7.85-17.211-10.451-25.811-3.298-10.926-7.173-21.897-10.022-32.965-1.976-7.674-4.488-16.362-5.346-24.193-.192-1.79 .115-3.343 .122-5.087 .007-1.537-.711-.745-.352-.328 .02-.01-23.41-5.53-28.66-7.9z"/>
<g fill="none" stroke="#6db64e" stroke-width=".867">
<path d="m154.22,208.32c.996-9.306 3.311-19.503 3.666-28.877"/>
<path d="m154.36,209.26c1.798-3.191 3.217-6.818 4.71-10.123-.582,3.23-1.839,7.215-1.131,10.652 4.887-4.496 8.696-12.482 12.832-17.982 2.31-3.073 4.822-5.979 7.548-8.517-5.11,7.657-10.819,15.582-14.42,23.806 3.576-2.557 7.228-10.195 11.789-9.931-2.106,2.428-5.489,5.689-5.768,8.833 2.198-1.35 4.176-3.178 6.573-4.049"/>
<path d="m147.33,212.68c-9.891,1.492-21.373-5.855-29.849-9.754 10.471,1.126 19.706,8.153 30.028,9.972-3.248-4.362-9.357-14.359-9.33-19.803 3.955,4.875 7.891,12.027 9.591,18.038 .305-9.705-10.868-19.208-9.473-28.804 6.465,6.942 9.896,19.469 12.389,28.326 1.496-5.223 2.471-10.925 .152-16.029-.519,2.977 .437,15.927 2.024,16.228"/>
<path d="m162.98,211.04c7.081-5.314 17.085-6.33 24.421-12.09 3.545-2.791 7.453-6.844 9.465-9.872-6.407,4.543-12.858,8.958-19.517,12.923-2.993,1.781-11.233,7.104-14.113,5.697"/>
<path d="m155.06,208.77c-2.106,8.137 .965,19.711 2.245,27.908 1.331,8.525 4.389,17.421 7.164,25.611 2.335,6.908 4.75,13.786 7.642,20.477 2.565,5.938 28.92,58.858 32.224,64.084"/>
</g>
</g>
</g>
</switch>
</svg>
