<svg xmlns="http://www.w3.org/2000/svg" viewBox="0 0 691.52 498.71">
<path d="m286.55,497.02c-8.52-2.77-23.07-14.9-28.84-24.04-5.37-8.5-5.15-16.22 .67-24.26 4.68-6.46 11.43-27.26 9.48-29.21-3.05-3.04-158.16,.48-237.51,5.4-6.04,.37-11.412-.01-11.934-.86-1.765-2.85 5.42-4.98 16.82-4.98 20.344,0 47.556-2.21 42.188-3.42-4.265-.97-3.901-1.14 2.736-1.31 4.211-.11 8.729-.6 10.04-1.11 1.31-.5 3.532,.24 4.937,1.64 3.387,3.39 7.713,3.26 7.713-.23 0-2.17 .43-2.35 1.96-.82 2.38,2.37 6.85,2.64 5.42,.33-.56-.9 .13-1.64 1.54-1.64s2.56,.74 2.56,1.64 1.29,1.63 2.87,1.61c2.24-.02 2.38-.33 .63-1.44-1.88-1.2-1.88-1.55 0-2.3 2.9-1.16-1.9-1.44-24.004-1.42-28.717,.03-8.986-2.4 29.384-3.61 17.96-.57 33.03-1.41 33.49-1.86 1.44-1.45-29.58-1.49-70.255-.1-13.235,.45-20.493,.19-18.042-.64 3.755-1.28 3.582-1.42-2.05-1.7-3.383-.16-16.054-.42-28.157-.57-19.573-.24-26.023-1.18-23.761-3.44 .388-.39 33.172-1.22 72.852-1.86 39.683-.63 72.323-1.29 72.533-1.45 1.63-1.3-59.13-6.27-92.874-7.61-22.902-.9-44.307-2.22-47.565-2.93-5.177-1.12-4.148-1.44 8.145-2.51 13.181-1.15 43.328,.25 86.064,4 18.66,1.63 37.89,2.11 36.69,.91-1.33-1.32-51.772-5.9-72.856-6.62-42.774-1.47-66.428-3.04-66.428-4.42 0-.77 2.399-1.39 5.331-1.38 17.028,.09 98.943,5.17 117.68,7.3 12.18,1.38 31.97,3.62 43.97,4.97 12.01,1.35 23.82,2.87 26.25,3.38 3.37,.71 3.8,.54 1.83-.73-1.41-.91-6.95-2.43-12.3-3.37s-13.09-2.41-17.21-3.26c-9.91-2.04-54.5-6.56-72.06-7.3-37.03-1.55-97.278-6.76-91.023-7.86 3.603-.64 14.3-.46 23.772,.39s34.936,2.7 56.587,4.11c46.514,3.02 74.884,6.08 98.204,10.58 9.36,1.8 20.08,3.71 23.81,4.23 10.54,1.48 15.8,3.31 15.35,5.35-.22,1.03 .51,1.88 1.64,1.89s3.9,.41 6.15,.9c3.57,.76 3.47,.56-.82-1.53-6.74-3.3-4.74-3.2 14.3,.68 9.05,1.84 16.8,3 17.23,2.57 .91-.91-9.23-3.79-17.59-5-3.15-.45-8.69-1.63-12.3-2.62-3.61-.98-7.67-1.84-9.02-1.91s-3.29-.78-4.32-1.58c-1.02-.8-3.97-1.42-6.56-1.38-6.08,.11-11.6-.72-27.66-4.13-14.5-3.07-13.66-2.92-34.45-6.42-14.27-2.4-54.16-6.52-82.826-8.55-7.668-.55-16.894-1.56-20.503-2.25-5.927-1.13-5.531-1.26 4.101-1.31 19.114-.12 83.468,6.83 112.27,12.11 11.67,2.14 21.58,3.55 22,3.13 3.05-3.06-7.96-4.91-102.14-17.22-14.348-1.88-34.974-3.84-45.833-4.37-21.554-1.05-34.476-3.41-19.919-3.63 17.167-.27 68.136,5.13 116.79,12.36 15.52,2.31 29.18,3.82 30.34,3.35 1.22-.49 .73-.91-1.16-1-2.31-.11-2.66-.55-1.19-1.48 1.88-1.2-17.75-5.33-36.53-7.7-3.61-.45-11.36-1.54-17.22-2.42-10.26-1.54-35.842-3.97-87.375-8.3-14.467-1.22-25.369-2.91-27.063-4.19-2.516-1.91-2.1872-2.16 2.9034-2.2 28.999-.23 97.715,6.52 144.33,14.16 64.58,10.59 72.88,11.93 89.39,14.49 9.02,1.39 21.17,2.7 27,2.9l10.6,.37 1-5.91c.54-3.25 3.04-9.39 5.53-13.66 2.5-4.26 4.3-7.97 3.99-8.24-.3-.27-7.2,.89-15.31,2.58-41.67,8.65-57,7.65-82.76-5.43-14.2-7.2-19.64-11.15-31.58-22.89-7.93-7.8-14.42-15.1-14.42-16.21s-1.38-3.22-3.07-4.69c-4.32-3.74-14.22-16.93-17.56-23.38-3.83-7.42-3.65-20.98 .38-27.89 4.53-7.75 15.99-14.28 28.55-16.27 5.81-.92 14.71-2.32 19.78-3.1 6.92-1.07 11.41-3.09 18.04-8.12 4.85-3.69 12.15-8.24 16.21-10.12 4.06-1.89 10.17-5.63 13.57-8.32 3.41-2.69 9.59-6.39 13.73-8.22l7.54-3.34-4.45-2.92c-2.44-1.6-5.67-4.75-7.17-6.99-1.49-2.24-4.88-7.31-7.52-11.27-6.28-9.41-19.02-38.54-24.01-54.9-.84-2.78-2.31-13.481-3.25-23.779-.95-10.298-1.97-20.937-2.29-23.643-.8-6.973 2.25-20.774 5.39-24.329 5.08-5.763 12.98-7.764 26.33-6.678 11.63,.945 13.83,.558 32.54-5.722 17.65-5.928 21.85-6.736 35.01-6.736 20.09,0 25.48,2.566 49.62,23.615 12.05,10.505 30.14,32.526 34.88,42.452 3.03,6.364 5.58,7.96 5.58,3.497 0-13.299 41.48-58.5 73.19-79.753l17.84-11.954 12.3,.1947c10.39,.1644 16.91,.5835 32.31,2.075 3.83,.3711 11.69,10.678 18.19,23.849 8.11,16.426 10.35,24.489 11.19,40.305 .36,6.768 1.11,20.055 1.66,29.527 1.66,28.569-3.96,48.389-18,63.439-11.93,12.78-12.19,13.51-4.49,12.48 9.62-1.29 27.38,2.39 38.57,8 19.22,9.63 21.36,10.09 48.5,10.3 29.02,.23 30.04,.55 44.99,14.21 13.17,12.04 14.77,15.71 12.52,28.68-1,5.74-1.86,16.47-1.91,23.84-.11,16.08-4.22,26.89-14.45,38-5.99,6.49-17.44,13.12-41.97,24.31-7.21,3.29-29.96,9.89-37.12,10.77l-7.6,.93 4.32,7.12c3.78,6.23 5.05,7.13 10.14,7.18 15.12,.13 63.04-12.72 81.11-21.77 24.72-12.36 28.87-13.34 30.08-7.06 2.21,11.47-28.03,32.39-66.98,46.34-8.57,3.06-17.06,6.23-18.87,7.03-1.8,.8-6.97,2.33-11.48,3.4-15.97,3.79-17.62,4.84-16.6,10.5 .5,2.79 1.41,12.46 2.01,21.48 .95,14.34 .53,18.87-3.33,36.04-2.43,10.81-5.92,22.08-7.76,25.06-3.19,5.16-10.47,10.24-14.68,10.24-1.08,0-4.56,1.98-7.72,4.39-10.66,8.13-26.78,11.11-37.51,6.94-2.54-.98-7.41-2.13-10.83-2.54-9.58-1.15-36.67-12.86-43.47-18.79-8.53-7.43-21.78-26.5-27.5-39.57-2.65-6.06-5.2-11.04-5.65-11.05-.45-.02-3.33,5.15-6.4,11.48-7.64,15.77-22.46,34.61-35.33,44.94-12.5,10.04-41.29,23.46-53.4,24.91-17.56,2.09-32.63,2.03-39.36-.16zm48.83-8.12c21.44-7.29 37.17-16.67 48.55-28.96 6.18-6.69 11.82-14.73 13.94-19.9 1.97-4.78 3.12-6.48 2.58-3.78l-.98,4.9 3.1-4.08c3.95-5.18 8.73-15.49 10.62-22.91 .82-3.17 2.13-8.35 2.92-11.5 2.39-9.56-4.03-51.04-10.04-64.79-1.06-2.42-1.32-1.49-.99,3.55 .24,3.76-.13,6.48-.82,6.06-.69-.43-1.36-3.51-1.49-6.84l-.23-6.05-1.18,6.56c-.84,4.72-1.27,5.41-1.52,2.46-.19-2.26-.61-6.14-.94-8.64-.34-2.54 .07-4.12 .93-3.59 4,2.47-1.03-18.53-5.52-23.03-1.09-1.1-1.32-.75-.7,1.02 .51,1.46 1.33,6.26 1.82,10.66l.89,8-2.35-9.02c-1.3-4.97-2.84-13.45-3.42-18.87-.59-5.41-1.41-10.21-1.84-10.66-.88-.93 .8,33.02 2.2,44.29 .5,4.06 .34,6.81-.36,6.12s-2.14-11.39-3.2-23.78l-1.92-22.53-.44,13.95c-.24,7.66-1.03,19.1-1.74,25.42-.91,7.92-1.09,3.35-.6-14.76 .84-30.85-1.8-31.96-3.61-1.53-.64,10.76-1.78,21.41-2.53,23.67-.87,2.61-1.09-.06-.59-7.38 2.23-32.98 2.44-40.87 .96-36.91-.84,2.26-2.4,10.6-3.47,18.55-1.06,7.94-2.29,14.08-2.73,13.65-.44-.44 .09-7.54 1.16-15.79s1.61-15.34 1.19-15.76c-.41-.41-2.42,4.46-4.47,10.84-2.05,6.37-4.08,11.23-4.51,10.79-.43-.43 .77-5.92 2.68-12.19 4.72-15.53 4.24-17.62-1.5-6.51-2.64,5.12-5.67,9.85-6.73,10.5-1.06,.66-1.54,.52-1.05-.29 .48-.82 2.53-5.18 4.55-9.69 2.01-4.51 4.06-8.86 4.54-9.68 .49-.82 .02-.95-1.04-.29-1.06,.65-3.74,4.77-5.96,9.15-3.53,6.96-7.38,11.75-7.38,9.18 0-.47 2.58-5.56 5.74-11.31 6.17-11.22 6.62-12.63 4.1-12.63-.89,0-3.19,3.32-5.1,7.38-1.9,4.06-4.17,7.38-5.02,7.38-.86,0-1.14-.66-.64-1.48 .51-.82-.74-1.06-2.77-.54-3.25,.84-3.43,.63-1.52-1.7 1.27-1.55-1.67-.57-7.01,2.32-13.5,7.31-39.01,33.46-45.93,47.08-3.04,6-7.03,13.86-8.86,17.47-3.23,6.35-4.94,15.84-8.43,46.64-2.19,19.35-6.06,33.98-10.86,41.04-4.2,6.17-5.06,14.43-2.11,20.27 3.36,6.65 19.48,19.34 26.99,21.25 1.75,.45 9.89,.9 18.07,1.01 11.8,.15 17.31-.64 26.57-3.79zm11.69-15.66c3.22-6.21 6.1-11.06 6.4-10.76 .77,.77-9.15,20.14-10.85,21.19-.78,.48 1.23-4.22 4.45-10.43zm3.5,7.59c-.03-.76 1.52-3.6 3.44-6.29 1.92-2.7 5.49-9.65 7.93-15.44 5.44-12.89 8.21-16.31 3.47-4.28-5.58,14.14-14.69,30.11-14.84,26.01zm-9.89-6.41c0-.68 2.19-4.74 4.88-9.02s4.9-7.05 4.92-6.15c.01,.9-2.19,4.96-4.89,9.02-2.69,4.06-4.91,6.83-4.91,6.15zm-4.93-7.79c1.84-3.61 3.72-6.56 4.17-6.56s-.69,2.95-2.53,6.56-3.71,6.56-4.16,6.56 .68-2.95 2.52-6.56zm32.94-5.74c0-.9 1.42-4.22 3.15-7.38s3.14-5 3.14-4.1-1.41,4.22-3.14,7.38-3.15,5-3.15,4.1zm-12.4-6.88c2.45-5.89 4.07-8.54 4.07-6.71 0,1.77-4.99,12.77-5.79,12.77-.45,0 .32-2.73 1.72-6.06zm4.07-10.24c0-.85 .73-2 1.62-2.55 .93-.57 1.2,.09 .64,1.55-1.09,2.84-2.26,3.36-2.26,1zm10.89-6.65c.59-2.25 2.43-7.05 4.11-10.66 1.67-3.62 2.57-4.73 1.98-2.48-.58,2.25-2.43,7.05-4.1,10.66-1.68,3.62-2.57,4.73-1.99,2.48zm-80.71-17.22c2.75-6.59 5.73-11.96 5.8-10.47 .08,1.65-6.59,16.2-7.43,16.2-.42,0 .31-2.58 1.63-5.73zm112.59,3.41c-.07-1.73 .32-2.7 .86-2.16 .55,.55 .61,1.96 .13,3.15-.52,1.3-.91,.92-.99-.99zm-115.91-12.21c.48-.77 1.65-3.45 2.6-5.96 .96-2.52 2.14-4.17 2.64-3.67 .97,.97-3.8,11.04-5.23,11.04-.48,0-.49-.63-.01-1.41zm1.11-17.45c0-.91 1.41-4.23 3.14-7.39 1.73-3.15 3.14-5 3.14-4.1 0,.91-1.41,4.23-3.14,7.38-1.73,3.16-3.14,5.01-3.14,4.11zm9.74-5.48c1.03-2.1 2.29-3.41 2.8-2.89 .51,.51 2.61-2.56 4.66-6.83s3.78-6.98 3.85-6.03c.2,2.74-6.55,15.91-7.61,14.85-.53-.53-1.99,.33-3.26,1.89-2.05,2.53-2.1,2.43-.44-.99zm-9.88-9.5c0-1.7 11.19-18.65 12.31-18.65 1.04,0-5.48,11.43-9.23,16.21-1.7,2.15-3.08,3.25-3.08,2.44zm12.52-3.83c1.34-2.7 3.2-5.38 4.12-5.95 .92-.56 .51,1.22-.91,3.97s-3.28,5.42-4.13,5.95c-.84,.52-.43-1.26 .92-3.97zm105.37-7.16c-.37-4.86-.6-5.72-1.85-6.98-1.73-1.73-1.53-8.5 .29-9.63 1.69-1.04 4.39,16.71 2.78,18.32-.56,.56-1.11-.21-1.22-1.71zm127.24,113.45c2.3-1.05 4.17-3.07 4.17-4.51-.01-3.7-18.48-34.23-51.66-85.41-3.61-5.57-12.1-18.74-18.87-29.27-6.76-10.53-14.43-21.93-17.04-25.34-2.6-3.4-4.39-6.53-3.98-6.95 1.05-1.04 6.29,6.18 23.49,32.31 37.2,56.56 69.71,109.3 69.71,113.11 0,.77 .76,1.4 1.69,1.4 2.95,0 3.56-4.52 1.13-8.47-30.27-49.41-58.81-93.06-69.66-106.57-7.11-8.86-6.71-10.51 .54-2.23 8.26,9.44 53.25,77.31 67.13,101.28 5.62,9.71 9.01,13.47 9.01,10 0-1.39-19.27-33.52-30.34-50.59-4.67-7.22-11.36-17.92-14.86-23.78-3.49-5.87-11.05-17.19-16.8-25.16-5.74-7.97-10.13-14.8-9.75-15.18 1-1 22.15,28.25 30.57,42.27 9.12,15.2 18.53,30.36 27.34,44.06 3.79,5.9 9.01,14.56 11.6,19.25 3.52,6.38 5.64,8.52 8.44,8.54 6.26,.04 6.29-4.7 .09-16.27-10.79-20.12-32.41-54.47-42.23-67.09-23.67-30.43-32.59-43.33-21.74-31.43 9.63,10.55 8.4,6.96-2.6-7.6-13.46-17.82-14.04-18.64-12.98-18.64 .52,0 5.22,5.35 10.44,11.89 5.23,6.54 10.42,12.48 11.55,13.2 1.14,.72 2.06,2.01 2.06,2.86s6.33,10.06 14.07,20.46c7.73,10.4 13.78,19.76 13.43,20.8-.34,1.05-2.39-1-4.55-4.54-2.16-3.55-7.99-11.98-12.96-18.75-4.97-6.76-9.25-12.61-9.51-12.98-.26-.38-.92-.25-1.45,.29-.54,.53 3.34,6.67 8.61,13.64s11.54,15.33 13.93,18.57c2.39,3.25 5.12,5.91 6.06,5.91 .95,0 4.13,3.69 7.08,8.2s5.79,8.57 6.32,9.02c.54,.45 6.35,10.04 12.93,21.32 8.68,14.87 11.69,18.97 10.97,14.92-1.79-10.18-31.94-59.58-54.4-89.14-3.26-4.28-5.51-7.79-5.01-7.79 1.51,0 18.81,22.31 27.68,35.71 7.69,11.6 31.37,51.14 33.07,55.21 1.32,3.16 3.76-2.3 6.8-15.21l2.94-12.51-5.15-9.45c-6-11.01-5.73-12.69 .39-2.49l4.2,6.97-.87-13.77c-.48-7.57-1.26-14.41-1.74-15.19-.49-.78-1.25-6.39-1.7-12.47-2.03-27.28-5.4-35.71-20.42-50.95-14.88-15.11-37.3-27.82-59.74-33.88-5.41-1.46-11.7-3.67-13.98-4.91s-8.97-4.08-14.88-6.3c-5.9-2.22-13.99-5.69-17.99-7.7l-7.28-3.67 3.98,4.3c5.46,5.91 2.23,5.3-4.8-.91-3.83-3.38-4.64-4.72-2.46-4.03 2.84,.9 2.75,.59-.64-2.28l-3.93-3.33-2.92,8.63c-2.06,6.09-2.42,9.24-1.22,10.69 .94,1.13 2.24,1.72 2.9,1.32 .66-.41 3.71,1.91 6.78,5.15l5.6,5.88-7.13-3.9c-3.92-2.14-8.22-5.51-9.55-7.49-1.36-2-3.46-3.2-4.75-2.7-2.23,.85 3.32,8.48 17.59,24.19 5.31,5.84 12.55,18.39 9.54,16.53-1.57-.97-1.87-.59-1.11,1.39 2.24,5.83-1.71,2.16-10.73-10-12.48-16.81-22.06-27.69-23.31-26.44-.55,.55 2.19,4.98 6.11,9.84 3.91,4.85 10.31,13.44 14.23,19.08 3.92,5.63 7.87,10.25 8.8,10.25 .92,0 1.18,.49 .57,1.1-.6,.6-.11,2.63 1.1,4.51 6.59,10.25 14.27,25.55 12.83,25.55-.92,0-2.19-1.66-2.83-3.69s-3.64-7.58-6.67-12.33c-3.03-4.76-5.51-9-5.51-9.43 0-.98-9.66-14.63-20.29-28.68-10.04-13.26-10.88-14.2-10.88-12.17 0,.89 4.28,8.23 9.52,16.32 5.23,8.09 11.66,18.78 14.28,23.74 2.63,4.96 5.99,10.86 7.49,13.12 4.27,6.45 17.92,33.34 17.88,35.22-.03,.92-1.76-1.64-3.86-5.7-8.35-16.18-27.99-50.54-33.79-59.1-3.38-5-7.98-12.53-10.22-16.74-2.97-5.58-4.57-7.16-5.88-5.85-1.32,1.32-1.15,3.08 .61,6.49 2.78,5.38 .91,6.38-2.31,1.23-1.18-1.89-2.54-3.04-3.02-2.56-1.05,1.05 7.9,18.86 20.73,41.27 11.4,19.9 27.94,52.49 27.94,55.05 0,1.02-5.75-9.48-12.78-23.32-13.11-25.82-30.99-57.15-32.61-57.15-.51,0 .16,1.66 1.47,3.69 1.32,2.03 2.94,5.89 3.6,8.59 .67,2.7 5.21,13.26 10.1,23.47 9.15,19.1 11.8,26.53 4.79,13.45-4.43-8.27-4.83-8.27-2.44,.01 .91,3.15 2.06,11.27 2.55,18.03 1.71,23.43 8.69,47.52 18.16,62.73 5,8.02 20.15,24.62 25.86,28.33 6.22,4.04 32.8,12.54 45.26,14.47 8.72,1.35 18.07,1.01 22.07-.82zm-24.23-34.26c-3.39-6.5-5.85-12.14-5.45-12.53 .98-.99 12.67,21.21 12.09,22.96-.25,.77-3.24-3.93-6.64-10.43zm-17.52-14.17c-6.72-12.83-7.67-15.13-5.27-12.81 2.92,2.83 13.84,23.78 12.39,23.77-.76,0-3.96-4.93-7.12-10.96zm-12.07-8.79c-4.38-8.19-7.67-15.17-7.32-15.52 .34-.34 2.42,2.84 4.62,7.08 2.19,4.23 5.72,10.52 7.83,13.97 2.12,3.45 3.62,6.97 3.34,7.82s-4.1-5.16-8.47-13.35zm-17.13,5.04c-1.88-4.53-3.07-8.24-2.63-8.24 1.09,0 7.46,15.08 6.68,15.85-.34,.35-2.16-3.08-4.05-7.61zm94.08-5.17c-4.38-7.55-9.15-15.55-10.59-17.77s-1.81-3.54-.82-2.93c2.99,1.85 20.65,30.64 19.99,32.61-.33,1.01-4.19-4.35-8.58-11.91zm-59.16-.19c-5.96-11.05-14.21-24.51-24.73-40.34-12.58-18.95-17.21-26.51-16.22-26.51 2.61,0 47.96,73.11 46.35,74.72-.41,.41-2.84-3.13-5.4-7.87zm-29.17,.96c-4.36-8.55-4.59-12.99-.27-4.91 2.35,4.37 3.9,8.32 3.45,8.76-.44,.45-1.88-1.28-3.18-3.85zm99.83-3.36c-.89-2.34-.71-2.53 .91-.92 1.12,1.11 1.63,2.44 1.12,2.94-.5,.51-1.42-.4-2.03-2.02zm-7.32-11.7c-2.8-4.36-5.09-8.58-5.09-9.38 0-1.57 2.21,1.51 8.04,11.17 5.41,8.97 3.03,7.53-2.95-1.79zm-84.64-5.18c-1.4-2.71-2.18-4.92-1.73-4.92 .46,0 1.97,2.21 3.37,4.92 1.4,2.7 2.18,4.92 1.72,4.92-.45,0-1.96-2.22-3.36-4.92zm-44.98-2.33c-.07-1.73 .32-2.7 .87-2.15 .54,.54 .6,1.96 .12,3.14-.52,1.31-.91,.92-.99-.99zm-2.47-8.45c-.6-2.41-.78-4.69-.39-5.08 .38-.38 1.19,1.27 1.8,3.67 .6,2.41 .78,4.69 .39,5.08-.39,.38-1.2-1.27-1.8-3.67zm127,.94c-.97-1.81-1.39-3.29-.94-3.29s1.61,1.48 2.58,3.29c.96,1.8 1.39,3.28 .93,3.28-.45,0-1.61-1.48-2.57-3.28zm4.92-1.65c-.97-1.8-1.39-3.28-.94-3.28s1.61,1.48 2.58,3.28c.96,1.81 1.39,3.29 .93,3.29-.45,0-1.61-1.48-2.57-3.29zm-113.22-18.83c-5.58-11.42-11.17-21.16-12.43-21.64-1.26-.49-2.29-1.91-2.29-3.18 0-2.1-9.15-18.68-21.51-38.97-2.68-4.39-4.56-8.3-4.18-8.68s6.05,8.38 12.6,19.47c6.54,11.09 13.88,23.49 16.29,27.55 7.74,13.02 23.35,44.53 22.49,45.39-.46,.46-5.4-8.52-10.97-19.94zm93.33,15.96c-2.04-2.6-1.98-2.65 .62-.61 2.73,2.14 3.6,3.48 2.25,3.48-.34,0-1.63-1.29-2.87-2.87zm5.97-3.07c-1.55-2.36-2.01-3.8-1.02-3.19 1.89,1.17 5.71,7.49 4.52,7.49-.37,0-1.95-1.93-3.5-4.3zm16.99-2.67c-2.04-2.93-5.5-7.73-7.68-10.66-2.19-2.93-3.61-5.33-3.16-5.33 .77,0 12.35,14.93 14.94,19.27 2.57,4.31-.56,1.81-4.1-3.28zm-34.15-4.35c-1.89-3.69-3.12-6.72-2.74-6.72 1.23,0 7.73,11.87 6.94,12.67-.43,.42-2.32-2.25-4.2-5.95zm-97.68,1.48c-.61-1.94-.75-3.89-.3-4.34 .46-.46 1.33,.76 1.94,2.7 .62,1.94 .76,3.9 .3,4.35-.45,.45-1.32-.77-1.94-2.71zm-3.86-11.07c-1.79-4.18-1.75-4.28 .56-1.32 1.37,1.75 2.48,3.78 2.48,4.51 0,2.49-1.11,1.33-3.04-3.19zm108.75-36.95l-11.39-11.84 11.43,10.66c6.29,5.86 11.77,10.84 12.17,11.07 .4,.22 .38,.76-.05,1.18-.42,.43-5.9-4.55-12.16-11.07zm5.83-.36c-3.99-4.06-6.88-7.38-6.43-7.38s4.08,3.32 8.07,7.38c3.98,4.06 6.87,7.38 6.42,7.38s-4.08-3.32-8.06-7.38zm-84.46,.84c-2.58-2.7-4.19-5.42-3.57-6.04 1.11-1.1 4.41,2.35 7.74,8.07 2.42,4.15 1.18,3.54-4.17-2.03zm7.13-8.63c-3.9-4.74-7.49-8.98-7.98-9.43-1.58-1.48-6.64-9.84-5.95-9.84 .37,0 4.94,5.35 10.16,11.89 12.69,15.92 12.74,15.99 11.74,15.99-.47,0-4.06-3.88-7.97-8.61zm-32.37-43.88c-3.87-3.61-6.38-6.56-5.59-6.56 .8,0 4.33,2.95 7.85,6.56 3.53,3.61 6.04,6.56 5.6,6.56-.45,0-3.99-2.95-7.86-6.56zm7.61-1.68c-10.42-7.84-14.16-11.44-11.88-11.44 1.07,0 23.76,18.32 23.76,19.19 0,1.06-1.31,.21-11.88-7.75zm117.05,170.18c-1.62-1.6-1.81-1.42-.92,.92 .62,1.62 1.54,2.53 2.04,2.03 .51-.51 0-1.83-1.12-2.95zm-11.68-19.24c-.97-1.8-2.13-3.28-2.58-3.28s-.03,1.48 .94,3.28c.96,1.8 2.12,3.28 2.57,3.28s.03-1.48-.93-3.28zm-4.92-8.2c-.97-1.81-2.13-3.28-2.58-3.28s-.03,1.47 .94,3.28c.96,1.8 2.12,3.28 2.57,3.28s.03-1.48-.93-3.28zm-4.92-8.2c-.97-1.81-2.13-3.28-2.58-3.28s-.03,1.47 .94,3.28c.96,1.8 2.12,3.28 2.57,3.28s.03-1.48-.93-3.28zm-408.1,.52c-1.19-.48-2.6-.42-3.15,.13-.54,.54 .43,.93 2.16,.86 1.91-.08 2.3-.47 .99-.99zm-.31-3.8c0-2.06-1.74-2.06-4.92,0-1.99,1.28-1.76,1.59 1.23,1.61 2.03,.02 3.69-.71 3.69-1.61zm83.24,.51c-1.58-.42-4.16-.42-5.74,0-1.58,.41-.29,.75 2.87,.75s4.45-.34 2.87-.75zm20.4,.01c-1.19-.48-2.6-.42-3.14,.13-.55,.54 .42,.93 2.15,.86 1.91-.08 2.3-.47 .99-.99zm-96.77-1.64c-1.19-.48-2.6-.42-3.15,.13-.54,.54 .43,.93 2.16,.86 1.91-.08 2.3-.47 .99-.99zm29.78-.11c.42-.68-3.41-1.02-8.51-.77-16.02,.8-17.95,1.5-4.86,1.75 6.93,.14 12.95-.31 13.37-.98zm17.07-1.54c-1.58-.42-4.17-.42-5.75,0-1.57,.41-.28,.75 2.88,.75 3.15,0 4.44-.34 2.87-.75zm17.12,.01c-1.19-.48-2.6-.42-3.15,.13-.54,.54 .43,.93 2.15,.86 1.91-.08 2.3-.47 1-.99zm8.2,0c-1.19-.48-2.6-.42-3.15,.13-.54,.54 .43,.93 2.16,.86 1.91-.08 2.29-.47 .99-.99zm-42.14-3.8c-.55-.91-1.7-1.64-2.55-1.64s-1.55,.73-1.55,1.64c0,.9 1.15,1.64 2.56,1.64s2.1-.74 1.54-1.64zm5.74,0c0-.91-.78-1.64-1.73-1.64-.96,0-1.28,.73-.73,1.64 .56,.9 1.34,1.64 1.74,1.64s.72-.74 .72-1.64zm98.42-1.64c0-.91-.74-1.64-1.64-1.64-.91,0-1.64,.73-1.64,1.64 0,.9 .73,1.64 1.64,1.64 .9,0 1.64-.74 1.64-1.64zm-175.91-1.2c-3.383-.35-8.919-.35-12.302,0-3.383,.36-.615,.64 6.151,.64s9.533-.28 6.151-.64zm170.08-.23c-2.37-2.17-11.97-3.58-13-1.91-.5,.81 1.13,1.78 3.63,2.16 8.45,1.28 10.97,1.21 9.37-.25zm-33.54-5.09c-2.25-.75-6.31-1.38-9.02-1.41-7.18-.07-.54,2.3 7.16,2.56 5.24,.17 5.46,.03 1.86-1.15zm18.35,.48c-1.18-.48-2.6-.42-3.14,.12-.55,.55 .42,.94 2.15,.87 1.91-.08 2.3-.47 .99-.99zm-21.32-4.93c-1.19-.47-2.6-.41-3.15,.13-.54,.55 .43,.94 2.16,.87 1.91-.08 2.3-.47 .99-1zm35.02-3.69c-1.33-2.15-7.45-2.33-7.45-.22 0,.84 1.66,1.79 3.69,2.12 4.49,.71 5.17,.37 3.76-1.9zm10.6,2.55c0-.35-1.48-1.02-3.28-1.49-1.81-.47-3.28-.19-3.28,.63s1.47,1.48 3.28,1.48c1.8,0 3.28-.28 3.28-.62zm-113.62-2.15c-1.59-.42-3.81-.39-4.92,.06s.2,.79 2.9,.75c2.71-.03 3.62-.4 2.02-.81zm91.25-2.96c-.52-1.34-1.61-2.03-2.44-1.52-1.72,1.06-.33,3.97 1.89,3.97 .82,0 1.07-1.1 .55-2.45zm-7.98-.83c-.55-.9-2.12-1.64-3.47-1.64s-2.01,.74-1.45,1.64c.56,.91 2.12,1.64 3.48,1.64 1.35,0 2-.73 1.44-1.64zm-9.84-1.64c-.56-.9-2.26-1.58-3.79-1.52-2.26,.09-2.16,.37 .51,1.52 4.39,1.89 4.45,1.89 3.28,0zm-9.02-1.64c0-.9-1.66-1.58-3.69-1.52-3.52,.11-3.54,.18-.41,1.52 1.8,.78 3.46,1.47 3.69,1.53s.41-.62 .41-1.53zm36.08,1.01c0-.34-1.82-.97-4.05-1.4-2.22-.42-3.66-.14-3.18,.63 .84,1.36 7.23,2.04 7.23,.77zm-47.56-2.46c0-.79-1.66-1.86-3.69-2.37-3.57-.9-3.58-.85-.51,1.44 3.72,2.78 4.2,2.89 4.2,.93zm-8.2-1.65c0-1.51-3.88-3.46-6.9-3.46-1.03,0-.9,.97 .34,2.46 2.23,2.69 6.56,3.35 6.56,1zm59.86-.18c-.55-.9-2.12-1.64-3.47-1.64s-2,.74-1.45,1.64c.56,.91 2.13,1.64 3.48,1.64s2-.73 1.44-1.64zm-10.35-1.12c-1.18-.47-2.6-.41-3.14,.13-.55,.55 .42,.93 2.15,.86 1.91-.07 2.3-.46 .99-.99zm-10.15-2.16c-2.25-.72-5.2-1.37-6.56-1.45-2.19-.12-2.19,.04 0,1.45 1.36,.88 4.31,1.53 6.56,1.45l4.1-.13-4.1-1.32zm-34.86-1.91c-2.49-.9-4.11-2.32-3.6-3.15 1.12-1.8-3.38-1.93-10.95-.32-5.36,1.14-5.23,1.24 4.31,3.1 12.22,2.39 16.16,2.53 10.24,.37zm14.36-1.37c-2.71-.69-6.77-1.25-9.02-1.25-3.66,0-3.57,.14 .82,1.25 2.71,.69 6.77,1.25 9.02,1.25 3.66,0 3.57-.13-.82-1.25zm-38.15-2.8c-2.04-.39-5-.38-6.56,.04-1.57,.41 .1,.73 3.71,.71 3.6-.02 4.89-.36 2.85-.75zm398.17-2.12c0-.9-.78-1.64-1.74-1.64-.95,0-1.28,.74-.72,1.64s1.34,1.64 1.74,1.64 .72-.74 .72-1.64zm9.47-1.95c-.36-1.07-1.63-2.27-2.83-2.67-1.44-.48-1.73,0-.86,1.41 .96,1.54 .54,1.83-1.49,1.05-1.68-.64-2.41-.42-1.82,.54 1.43,2.31 7.78,2.02 7-.33zm9.14,.7c-1.04-.67-1.83-1.95-1.76-2.85 .08-.9-1.1-1.88-2.61-2.17-3.62-.7-3.54,2.37 .11,4.5 3.26,1.9 7.17,2.37 4.26,.52zm59.3-23.22c3.61-1.98 8.41-5.03 10.66-6.8 4.5-3.52 3.36-3.19-9.84,2.82-4.06,1.85-12.18,4.98-18.04,6.96-5.87,1.98-11.83,4.24-13.27,5.02-1.43,.77-8.63,3.03-15.99,5.02-12.45,3.36-14.75,4.62-12.51,6.86 1.24,1.24 51.07-15.56 58.99-19.88zm-77.09,17.91c-.56-.9-1.34-1.64-1.74-1.64-.39,0-.72,.74-.72,1.64s.78,1.64 1.74,1.64c.95,0 1.28-.74 .72-1.64zm10.97-2.76c-1.18-.47-2.6-.41-3.14,.13-.55,.55 .42,.93 2.15,.86 1.91-.08 2.3-.47 .99-.99zm-8.51-2.16c0-.9-.74-1.64-1.64-1.64s-1.64,.74-1.64,1.64 .74,1.64 1.64,1.64 1.64-.74 1.64-1.64zm23.48-.95c15.22-4.63 33-10.7 38.03-12.97 2.71-1.22 8.88-3.78 13.72-5.68 9.42-3.71 23.97-12.97 22.56-14.37-.46-.47-3.28,.66-6.26,2.5-12.28,7.59-26.18,13.57-29.27,12.59-3.15-1-10.52,.85-20.68,5.19-2.84,1.22-6.36,2.21-7.81,2.21-1.46,0-3.93,.68-5.5,1.52-1.56,.84-4.24,1.96-5.95,2.5s-2.69,1.39-2.18,1.9 9.92-2.13 20.92-5.87c10.99-3.74 20.3-6.49 20.68-6.11 .8,.8-14.12,7.42-18.56,8.23-5,.91-17.45,4.68-22.68,6.86-2.7,1.13-6.02,2.45-7.38,2.94-5.87,2.13 2.45,.97 10.36-1.44zm-17.75-.67c.58-.93-.08-1.21-1.54-.65-2.84,1.1-3.36,2.27-1,2.27 .84,0 1.99-.73 2.54-1.62zm-10.65-1.66c2.12-1.37 2.08-1.59-.31-1.61-1.53-.02-3.23,.71-3.79,1.61-1.28,2.08 .89,2.08 4.1,0zm20.5,0c2.93-1.26 2.81-1.42-1.13-1.52-2.43-.07-4.87,.62-5.43,1.52-1.21,1.96 2.01,1.96 6.56,0zm-8.71-2.76c-1.18-.47-2.6-.42-3.14,.13-.55,.54 .42,.93 2.15,.86 1.91-.08 2.3-.47 .99-.99zm-329.17-6.52c9.03-1.38 18.53-3.54 21.12-4.79s5.35-1.88 6.15-1.39c.79,.49 1.44,.11 1.44-.84 0-.96-1.29-1.8-2.87-1.88-1.74-.08-.77-1.05 2.46-2.46 2.93-1.28 5.33-3.09 5.33-4.02 0-1.17-1-1.17-3.17,0-3.88,2.08-5.03,2.13-5.03,.25 0-.79 3.22-2.25 7.15-3.24s8.18-3.07 9.43-4.61c2.02-2.48 1.93-2.67-.74-1.66-1.67,.62-4.99,1.54-7.38,2.04l-4.36,.9 4.1-2.49c2.25-1.37 5.86-2.52 8.02-2.56 2.23-.03 6.97-2.88 11.03-6.61 3.92-3.61 6.41-6.57 5.53-6.57-.87,0-7.15,1.53-13.96,3.4s-13.28,3.06-14.37,2.65c-2.59-.97-.85-1.54 18.51-6.06 16.13-3.76 23.77-7.19 22.1-9.9-.53-.86 .3-1.57 1.86-1.57s2.38-.45 1.83-1c-.56-.55-6.64,.25-13.53,1.78-21.19,4.71-15.08,1.85 8.3-3.89 12.15-2.98 22.09-6.17 22.09-7.07 0-.99-1.82-1.19-4.52-.51-5.04,1.28-39.75,7.39-42.09,7.4-5.33,.04 2.83-2.14 18.88-5.05 10.29-1.87 19.41-4.08 20.26-4.91 2.3-2.23-2.6-1.86-22.05,1.67-9.47,1.71-17.48,2.86-17.8,2.54-.85-.85 10.36-3.63 23.53-5.83 13.77-2.31 19.12-4.69 10.66-4.75-3.15-.02-8.32,.62-11.48,1.43-8.2,2.11-20.96,3.46-18.04,1.91 1.35-.71 8.32-2.22 15.49-3.34 15.72-2.46 23.93-5.47 11.57-4.25-25.66,2.55-26.4,2.51-11.48-.59 8.12-1.69 12.69-3.15 10.16-3.24-5.11-.2-4.54-3.46 .6-3.46 1.75,0 3.18-.61 3.18-1.35s-4.61-.81-10.25-.15c-5.64,.65-14.65,1.68-20.03,2.28-5.38,.61-10.55,1.52-11.48,2.04-.94,.52-.87,.03 .16-1.07 1.71-1.86 6.96-2.86 34.22-6.54l9.84-1.32-13.94-.52-13.94-.52 12.3-.94c15.59-1.18 11.83-2.85-7.33-3.26-20.31-.44-19.93-1.77 .5-1.77 18.64,0 23.73-3.16 5.6-3.48-6.09-.1-13.28-.79-15.99-1.52-2.86-.78 2.12-.95 11.89-.42 11.94,.65 16.81,.38 16.81-.93 0-1.02-2.4-1.9-5.33-1.95-2.93-.06-10.49-1.14-16.81-2.4l-11.48-2.29 9.84,.82c5.41,.45 12.98,1.24 16.81,1.76 4.26,.57 6.97,.29 6.97-.73 0-.92-3.87-2.21-8.61-2.86-11.63-1.59-17.78-4.3-6.97-3.07 4.51,.52 9.49,1.3 11.07,1.73 1.58,.44 2.87,.01 2.87-.95 0-.97-.78-1.75-1.73-1.75-.96,0-1.35-.63-.88-1.39 1.27-2.07-7.88-10.22-11.8-10.52-1.87-.14-3.1-.75-2.72-1.35 1.43-2.32-25.39-16.01-39.45-20.14-14.75-4.32-27.73-5.6-29.4-2.89-.49,.79-2.81,1.43-5.15,1.43-4.66,0-11.17,2.83-16.3,7.08-1.8,1.5-8.45,5.51-14.76,8.91-6.32,3.41-14.07,8.19-17.22,10.64-13.6,10.52-19.73,12.9-34.35,13.38-16.09,.53-30.59,6.19-35.65,13.92-3.43,5.23-3.88,18.5-.87,25.62 1.74,4.15 2.63,4.51 10.96,4.51 4.98,0 9.06,.61 9.06,1.34 0,.74-2.91,1.12-6.47,.83-3.56-.28-6.92,.23-7.48,1.12-.6,.98 1.81,1.65 6.06,1.68 3.89,.02 17.4,.39 30.03,.81 14.79,.5 21.8,.23 19.69-.75-1.81-.83-8.82-1.64-15.59-1.8-6.76-.15-14.14-.81-16.4-1.47-2.25-.66 8.45-.87 23.79-.47 25.01,.65 66.72-1.12 93.49-3.97 5.41-.58 9.33-.5 8.71,.16-.62,.67-9.84,2.23-20.5,3.46l-19.38,2.24 20.51-.57c12.8-.36 18.34-.07 14.76,.76-11.7,2.7-67.6,5.17-104.43,4.6-33.57-.52-37.78-.3-36.12,1.87 18.34,24.14 31.34,36.14 50.61,46.66 22.77,12.45 36.16,13.89 74.35,8.03zm-51.66-26.75c0-.88 1.11-1.17 2.46-.65s2.46,1.24 2.46,1.59c0,.36-1.11,.65-2.46,.65s-2.46-.72-2.46-1.59zm83.65-2.4c0-1.19 18.34-6.11 19.27-5.17 .49,.48-.15,1.16-1.4,1.51-1.26,.34-4.93,1.46-8.15,2.49-6.07,1.95-9.72,2.38-9.72,1.17zm-93.58-3.95c-3.71-3.01-3.71-3.03-.31-3.92 2.04-.53 5.95,.67 9.7,2.97 3.45,2.13 5.5,3.89 4.56,3.91-.95,.03-2.43-.6-3.28-1.4-.86-.8-3.41-1.98-5.66-2.63-3.98-1.14-4.01-1.1-.82,1.4 1.8,1.42 2.44,2.6 1.41,2.63s-3.55-1.3-5.6-2.96zm19.36-3.11c3.83-.34 10.11-.34 13.94,0 3.84,.35 .7,.63-6.97,.63s-10.8-.28-6.97-.63zm-60.28-7.01c-1.68-1.09 .15-1.27 5.74-.56 4.51,.57 8.51,1.3 8.89,1.63 1.63,1.4-12.41,.38-14.63-1.07zm148.54,.14c2.82-2.69 26.18-8.64 23.52-5.98-.39,.39-6.18,2.23-12.88,4.08-6.7,1.86-11.49,2.71-10.64,1.9zm-83.37-1.2c1.11-.45 3.32-.48 4.92-.06 1.6,.41 .69,.78-2.02,.81-2.71,.04-4.01-.3-2.9-.75zm-36.08-1.64c1.11-.45 3.32-.48 4.92-.06 1.59,.41 .68,.78-2.02,.81-2.71,.04-4.02-.3-2.9-.75zm-18.43-7.13c.58-.92 7.6-1.55 16.09-1.45 12.46,.16 13.94,.43 8.52,1.55-9.49,1.96-25.84,1.9-24.61-.1zm72.1-.11c-.52-.84 1.81-1.53 5.17-1.53 6.84,0 6.95,1.03 .22,2.25-2.44,.44-4.87,.12-5.39-.72zm-18.38-1.02c1.58-.41 4.16-.41 5.74,0 1.58,.42 .29,.75-2.87,.75s-4.45-.33-2.87-.75zm51.67-1.66c2.03-.4 5.35-.4 7.38,0 2.03,.39 .37,.71-3.69,.71s-5.72-.32-3.69-.71zm14.35-8.69c2.7-.69 6.39-1.33 8.2-1.42 2.7-.14 2.84,.11 .82,1.42-1.35,.88-5.04,1.52-8.2,1.42l-5.74-.17 4.92-1.25zm3.28-4.92c.56-.9 3.37-1.57 6.25-1.48 4.99,.16 5.05,.23 1.13,1.48-5.89,1.89-8.55,1.89-7.38,0zm-72.99-3.23c1.35-.9 4.98-1.65 8.06-1.66 7.36-.04 6.05,.89-3.14,2.23-5.16,.74-6.64,.57-4.92-.57zm29.52-3.27c4.02-1.35 19.25-2.28 17.91-1.1-.38,.33-5.48,1.03-11.35,1.54-6.68,.59-9.13,.43-6.56-.44zm24.99-2.87c2.46-.38 6.89-.38 9.84-.02 2.95,.37 .93,.67-4.48,.68-5.42,.01-7.83-.29-5.36-.66zm-3.22-4.74c.55-.55 1.96-.6 3.14-.13 1.31,.52 .92,.91-.99,.99-1.73,.07-2.69-.32-2.15-.86zm7.89-1.26c.38-.34 8.44-1.02 17.91-1.51 11.86-.61 14.67-.46 9.02,.47-8.37,1.39-28.16,2.15-26.93,1.04zm45.79-32.18c-2.25-.75-6.22-1.84-8.8-2.41-2.59-.57-4.36-1.39-3.93-1.82 1.18-1.18 17.5,2.64 18.55,4.35 1.1,1.77-.23,1.74-5.82-.12zm337.9,103.12c3.68-1.92 6.33-3.84 5.91-4.27-.43-.42-3.97,1.14-7.87,3.47-8.55,5.13-7.32,5.63 1.96,.8zm-63.81-12.24c44.56-15.95 63.15-34.24 60.93-59.94-.49-5.76 .24-13.36 1.95-20.19l2.75-10.95-4.09-6.99c-4.99-8.51-14.27-16.8-23.45-20.94-5.56-2.51-10.63-3.07-27.07-2.99-23.99,.13-33.26-1.47-46.46-8.02-16.68-8.26-23.28-9.81-36.08-8.47-6.32,.66-10.01,1.36-8.21,1.55 3.28,.35 3.28,.35 0,1.76-1.8,.78-4.75,1.41-6.56,1.41-3.28,0-3.28,0 0-1.41s3.28-1.41 0-1.48c-1.8-.04-5.86,2.1-9.02,4.76-6.54,5.51-4.94,5.99 8.2,2.46 8.82-2.36 16.07-3.21 14.56-1.7-.42,.41-8.11,2.34-17.09,4.27-16.65,3.59-24.58,7-22.84,9.8 .53,.87-.37,1.63-2,1.71-6.71,.31-9.72,1-12.82,2.94-2.77,1.74-1.83,1.91 6.02,1.13 5.11-.51 10.65-1.35 12.3-1.87 2.68-.84 2.71-.75 .29,.82-1.49,.96-9.61,2.47-18.04,3.35-23.32,2.42-40.75,5.24-40.75,6.59 0,.66 1.67,.99 3.69,.72 2.03-.26 10.34-1.32 18.46-2.36 8.12-1.03 16.23-2.22 18.04-2.64 2.55-.6 2.73-.43 .82,.74-1.35,.84-10.73,2.83-20.83,4.42-10.1,1.6-18.7,3.76-19.09,4.8-.55,1.41 3.32,1.35 15.08-.22 8.7-1.16 17.22-2.45 18.92-2.86 1.71-.41 2.45-.16 1.64,.57-1.22,1.09-15.74,3.98-29.34,5.83-6.36,.87-6.51,1.31-.82,2.51 5.16,1.08 5.28,1.23 1.23,1.42-2.49,.12-4.52,.85-4.52,1.63s2.03,1.1 4.52,.73l4.51-.68-4.1,2.49c-2.67,1.62-3.24,2.56-1.64,2.68 1.69,.13 1.82,.44 .41,1.01-1.13,.46-2.06,2.95-2.06,5.55 0,2.75-1.5,6.12-3.59,8.07-2.99,2.78-3.23,3.71-1.4,5.4 1.75,1.63 1.96,1.63 1.04-.01-.76-1.35-.01-2.05 2.22-2.05 1.86,0 3.38,.6 3.38,1.34s7.06,2.6 15.69,4.13c33.99,6.02 105.79,24.49 103.62,26.66-.34,.34-5.37-.83-11.18-2.61-20.19-6.19-82.48-20.5-103.95-23.89-10.59-1.66-4.27,3.63 7.01,5.89 19.52,3.91 52.54,11.68 66.71,15.7 22.78,6.46 50.32,15.68 49.46,16.54-.43,.43-6.2-1.17-12.82-3.56s-16.09-5.38-21.05-6.65c-4.97-1.26-15.67-4.07-23.79-6.23-22.02-5.88-53.57-12.84-54.39-12.02-.93,.93 24.7,10.19 32.25,11.65 3.16,.61 10.54,2.5 16.4,4.2 5.87,1.7 15.83,4.38 22.15,5.95 12.49,3.1 56.96,18.45 53.85,18.58-1.06,.05-14.29-3.99-29.41-8.96-28.45-9.37-50.57-14.5-31.83-7.38 4.97,1.88 14.19,5.18 20.51,7.34 13.44,4.58 26.99,10.44 24.51,10.61-.95,.06-8.14-2.47-15.97-5.63-16.57-6.68-21.1-7.3-11.87-1.63 5.15,3.16 29.12,12.35 43.34,16.61 1.25,.38 1.97,.99 1.59,1.37-.98,.98-10.53-1.53-21.08-5.54-11.03-4.2-11.07-4.2-7.37-.11 7.99,8.83 27.66,9.76 48.53,2.29zm-24.53-2.53c-5.73-1.81-10.13-3.58-9.78-3.93 .82-.82 18.87,4.73 20.41,6.27 1.51,1.51 1.47,1.5-10.63-2.34zm-29.33-41.79c.55-.54 1.96-.6 3.15-.13 1.3,.52 .92,.91-1,.99-1.72,.07-2.69-.31-2.15-.86zm-6.56-1.64c.55-.54 1.96-.6 3.14-.13 1.31,.52 .92,.91-.99,.99-1.73,.07-2.69-.31-2.15-.86zm-6.56-1.64c.55-.55 1.96-.6 3.14-.13 1.31,.52 .92,.91-.99,.99-1.73,.07-2.69-.32-2.15-.86zm-14.39-2.29c-3.28-1.41-3.28-1.41 0-1.36 1.81,.03 5.13,.64 7.39,1.36l4.1,1.31-4.1,.05c-2.26,.03-5.58-.58-7.39-1.36zm35.71,.65c.55-.55 1.96-.6 3.15-.13 1.3,.52 .92,.91-.99,.99-1.73,.07-2.7-.32-2.16-.86zm-6.56-1.64c.55-.55 1.96-.6 3.15-.13 1.3,.52 .92,.91-1,.99-1.72,.07-2.69-.32-2.15-.86zm79.56-46.14c3.86-.34 9.76-.34 13.12,.01 3.36,.36 .2,.64-7.01,.63-7.22,0-9.97-.29-6.11-.64zm-9.09-6.53c2.46-.37 6.89-.38 9.84-.01 2.95,.36 .93,.67-4.48,.68-5.42,.01-7.83-.29-5.36-.67zm17.25-1.55c1.13-.46 2.97-.46 4.1,0 1.13,.45 .2,.83-2.05,.83-2.26,0-3.18-.38-2.05-.83zm-43.43-3.19c.54-.54 1.96-.6 3.14-.13 1.31,.53 .92,.92-.99,.99-1.73,.08-2.7-.31-2.15-.86zm11.47-.18c2.49-.38 6.18-.37 8.2,.02 2.01,.39-.03,.7-4.54,.68-4.51-.01-6.16-.33-3.66-.7zm12.82-1.06c.38-.32 4.38-1.01 8.89-1.53 5.27-.61 7.03-.44 4.92,.47-3.14,1.36-15.23,2.29-13.81,1.06zm-24.3-2.22c2.49-.38 6.18-.37 8.2,.02 2.01,.39-.03,.7-4.54,.68-4.51-.01-6.16-.33-3.66-.7zm13.91-1.55c1.13-.46 2.98-.46 4.1,0 1.13,.45 .21,.82-2.05,.82-2.25,0-3.17-.37-2.05-.82zm-27.04-1.73c2.5-.38 6.19-.37 8.2,.02 2.02,.39-.02,.7-4.53,.68-4.51-.01-6.16-.33-3.67-.7zm-89-2.11c0-.65 3.32-1.65 7.38-2.2 4.06-.56 9.41-1.41 11.89-1.9 3.99-.79 4.1-.71 .94,.69-5.15,2.28-20.21,4.82-20.21,3.41zm-45.92,116.69c0-.77-5.6-7.97-12.44-15.99-13.47-15.81-20.33-22.98-13.16-13.77 2.46,3.16 8.89,11.46 14.29,18.45 9.61,12.45 11.31,14.15 11.31,11.31zm-49.76-26.89c-.46-1.12-.83-.2-.83,2.05 0,2.26 .37,3.18 .83,2.05 .45-1.12 .45-2.97 0-4.1zm-51.63-.71c-1.18-.47-2.6-.41-3.14,.13-.55,.55 .42,.93 2.15,.86 1.91-.08 2.3-.46 .99-.99zm34.09-6.26c0-.9-.72-.53-1.59,.82-.88,1.36-1.59,3.2-1.59,4.1s.71,.54 1.59-.82c.87-1.35 1.59-3.2 1.59-4.1zm4.97,0c0-5.63 3.24-6.87 3.47-1.32l.2,4.6 1.19-4.92c1.16-4.8 1.56-4.54 3.9,2.46 .45,1.36 .88,.06 .95-2.87 .09-3.58 .93-5.33 2.59-5.33 1.35,0 3.57,2.4 4.93,5.33 2.4,5.15 2.4,1.73 0-4.1-.71-1.72-.45-2.87 .64-2.87 .99,0 1.82,1.29 1.84,2.87 .01,1.58 .78,3.98 1.7,5.33 1.2,1.77 1.36,.66 .56-3.93-.86-5-.64-6.1 1.02-5.07 1.4,.86 1.72,.66 .94-.6-1.42-2.3 1.93-5.94 6.92-7.52 2-.64 3.22-1.84 2.7-2.68-1.38-2.23 1.52-1.85 4.08,.53 1.21,1.13 .48-.35-1.63-3.29-4.64-6.47-2.88-9.65 3.92-7.06 6.18,2.35 5.43,.43-.97-2.49l-5.33-2.43 5.74,.88c4.88,.74 5.17,.63 1.93-.77-5.7-2.45-1.15-6.37 6.16-5.3 3.84,.56 5.15,.25 4.35-1.05-.63-1.03-3.5-1.96-6.38-2.08l-5.24-.21 5.74-1.21 5.74-1.21-4.92-.33c-4.29-.29-4.5-.51-1.64-1.74 3.13-1.35 3.12-1.42-.41-1.53-2.03-.06-3.69-.79-3.69-1.62s-.42-2.62-.95-3.98c-.61-1.6 .7-3.41 3.69-5.11 4.37-2.49 4.4-2.58 .54-1.58-2.25,.58-4.8,1.72-5.65,2.52-2.53,2.36-4.76,1.66-2.68-.84 1.05-1.27 3.75-2.77 6.01-3.33 2.25-.57 3.65-1.76 3.1-2.65-.6-.97-2.89-.28-5.66,1.69-6.47,4.61-7.91,4.12-3.19-1.09l3.97-4.39-5.33,3.69c-5.84,4.03-6.95,3.11-2.46-2.04 2.81-3.23 2.79-3.24-.76-.84-1.99,1.35-5.19,4.45-7.1,6.87-1.91,2.43-4.09,4.04-4.84,3.57-.75-.46-2.96,1.19-4.91,3.68-1.95,2.48-3.08,3.59-2.5,2.47 .65-1.3-.15-2.05-2.21-2.05-1.78,0-3.61-.93-4.06-2.05-.64-1.58-.86-1.59-.96-.04-.07,1.1 1.73,3.23 4.01,4.72 3.64,2.39 4.49,2.43 6.97,.34 1.56-1.31 5.62-3.19 9.02-4.18 5.45-1.58 6.14-1.46 5.74,.94-.3,1.8 .52,2.56 2.41,2.25 2.57-.43 2.52,.09-.57,5.33-2.02,3.41-4.72,5.81-6.55,5.81-3.5,0-4.22,2.56-1.07,3.83 1.13,.46 .21,.9-2.05,.98-2.25,.09-3.36,.7-2.46,1.36 .9,.67 2.97,3.6 4.59,6.52l2.95,5.3-5.21,3.17c-2.87,1.75-6.23,2.79-7.46,2.31-1.49-.57-2.31,.45-2.42,3.01-.17,3.72-.25,3.69-1.96-.65-2.03-5.14-3.18-5.53-6.07-2.05-2.45,2.95-10.04,3.24-12.79,.49-1.09-1.08-1.99-3.85-2.01-6.15l-.04-4.18-3.13,4.08c-1.72,2.24-3.59,3.61-4.15,3.05-.55-.55 1.69-3.24 5-5.97l6.02-4.96-8.98,.63c-8.88,.61-8.96,.58-8.16-3.61 .49-2.58-.08-4.8-1.47-5.7-1.78-1.14-1.47-1.68 1.42-2.47 2.03-.56 3.69-1.67 3.69-2.46 0-.8 2.03-1.56 4.51-1.69s-1.77-.79-9.43-1.46c-15.09-1.33-18.21-.93-9.76,1.26 3.24,.84 5.53,2.55 5.8,4.34 .34,2.37-.36,2.75-3.55,1.95-2.26-.56-3.98-.27-3.98,.68 0,.92 1.77,1.67 3.93,1.67 6.3,0 6.73,4.6 .5,5.38l-5.25,.65 5.75,.43c5.36,.4 5.47,.51 1.64,1.74-3.94,1.26-3.96,1.32-.41,1.48 3.26,.14 3.86,.85 3.63,4.32-.04,.48 1.08,2.02 2.47,3.41 1.4,1.39 2.12,3.21 1.6,4.04-.51,.83-.07,1.51 .98,1.51 1.06,0 1.48,1.14 .94,2.55s-.28,2.11 .6,1.57c1.95-1.21 11.51,3.58 11.51,5.76 0,.88 .55,1.51 1.23,1.41 4.63-.73 5.69,.43 4.74,5.19-.62,3.11-.39,4.63 .61,4.01 .89-.55 1.62-2.76 1.62-4.91zm25.42-33.62c-.56-.9-.27-1.64 .63-1.64s2.09,.74 2.65,1.64 .28,1.64-.62,1.64c-.91,0-2.1-.74-2.66-1.64zm-196,34.71c0-1.66-10.81-1.49-12.49,.19-.65,.65 1.9,1.18 5.65,1.18 3.76,0 6.84-.62 6.84-1.37zm184.69-3.1c-.54-.55-.93,.42-.86,2.15 .08,1.91 .47,2.3 .99,.99 .47-1.18 .42-2.6-.13-3.14zm-162.96,1.63c-3.83-.34-10.11-.34-13.94,0-3.83,.35-.7,.63 6.97,.63s10.81-.28 6.97-.63zm129.22-6.03c2.28-2.96 2.21-3.01-1.18-.9-1.97,1.22-3.19,2.87-2.7,3.65 .48,.78 1.01,1.19 1.17,.9 .17-.28 1.39-1.93 2.71-3.65zm6.51-1.37c0-.92-1.09-.74-2.46,.4-1.36,1.12-2.46,2.78-2.46,3.68 0,.92 1.08,.74 2.46-.4 1.35-1.12 2.46-2.78 2.46-3.68zm-14.2-1.98c.6-1.58 .12-2.07-1.46-1.46-1.3,.5-1.96,1.57-1.46,2.37 1.26,2.04 1.86,1.85 2.92-.91zm58.69-2.98c-1.62-1.6-1.81-1.42-.92,.92 .61,1.62 1.53,2.53 2.04,2.02 .5-.5 0-1.82-1.12-2.94zm-27.59-12.87l-.33-5.55 1.87,4.51c2.02,4.87 5.1,6.37 3.37,1.64-1.67-4.57-7.05-10.99-7.05-8.41 0,1.26-1.48,3.21-3.28,4.34-3.07,1.92-4.49,8.47-2.3,10.65 .54,.54 2.57,.4 4.51-.32 2.76-1.02 3.46-2.51 3.21-6.86zm-34.94,1.83c2.12-1.37 2.07-1.59-.32-1.62-1.52-.01-3.23,.72-3.79,1.62-1.28,2.08 .89,2.08 4.11,0zm53.3-2.3c0-1.7-1.27-3.89-2.82-4.87-3.91-2.46-6.27,.36-4.4,5.24 1.74,4.54 7.22,4.25 7.22-.37zm19.68-.98c-.55-.9-1.89-1.63-2.96-1.62-1.18,.02-.98,.66 .5,1.62 3.15,2.04 3.72,2.04 2.46,0zm-49.11-11.78c.49-1.53 2.14-3.13 3.68-3.56 1.53-.44-.9-.67-5.41-.52-7.3,.25-8.26,.71-8.76,4.19-.3,2.16 .37,4.49 1.5,5.18 2.52,1.56 7.81-1.55 8.99-5.29zm7.29,2.36c0-.45-1.11,.1-2.46,1.22s-2.46,2.41-2.46,2.86 1.11-.1 2.46-1.22 2.46-2.41 2.46-2.86zm-36.92-.45c-.57-.92-1.72-1.24-2.56-.72-2.27,1.4-1.85,2.39 1.03,2.39 1.41,0 2.09-.75 1.53-1.67zm51.68,.03c0-.9-1.29-1.63-2.87-1.62-2.45,.02-2.51,.26-.41,1.62 3.1,2 3.28,2 3.28,0zm-6.56-4.92c0-.9-.74-1.64-1.64-1.64s-1.64,.74-1.64,1.64 .74,1.64 1.64,1.64 1.64-.74 1.64-1.64zm-40.6-2.73c-1.12-.45-2.97-.45-4.1,0-1.12,.46-.2,.83 2.05,.83 2.26,0 3.18-.37 2.05-.83zm47.76-1.36c-.52-1.35-1.68-2-2.59-1.44-1.01,.63-.78,1.56 .59,2.43 2.98,1.89 3.08,1.84 2-.99zm14.16-.62c0-.67-.97-2.56-2.16-4.18-2.02-2.77-2.33-2.78-4.92-.2-3.73,3.73-3.47,5.46 .93,6.19 4.08,.67 6.15,.06 6.15-1.81zm-35.22-3.18c-.5-.5-1.83,0-2.94,1.12-1.61,1.62-1.42,1.81 .92,.92 1.62-.61 2.53-1.53 2.02-2.04zm-6.93-2.28c-4.57-2.21-5.47-7.42-2.28-13.21 2.85-5.16 3.87-5.47 6.69-2.06 1.12,1.34 2.68,2.03 3.48,1.54s1.46-.12 1.46,.84c0,.95 1.06,1.74 2.35,1.74 1.31,0 2.65,2 3.03,4.51 .39,2.56 .86,.61 1.1-4.51 .3-6.76 .7-8 1.57-4.93 1.15,4.09 1.16,4.1 2.14,.41 1.7-6.37 4.32-4.14 3.38,2.87-.71,5.29-.37,6.57 1.74,6.57 1.44,0 3.38-1.43 4.31-3.18 2.21-4.12 2.18-4.31-1.03-7.52-2.3-2.3-2.36-2.95-.41-4.17 1.59-.99 2.49-.65 2.87,1.09 .31,1.41 1.58,2.14 2.87,1.65 2.63-1.01 3.19,1.55 .68,3.1-.9,.56-1.64,2.54-1.64,4.4 0,2.72 .45,3.01 2.3,1.48 1.26-1.05 2.8-3.91 3.41-6.35 .61-2.45 2.27-5.74 3.69-7.32 2.36-2.61 2.36-2.87-.04-2.87-1.45,0-3.28,1.16-4.07,2.57-1.29,2.31-1.66,2.29-3.67-.14-1.77-2.12-1.83-3.35-.29-5.82 2.37-3.8 2.44-4.81 .34-4.81-.88,0-2.07,1.85-2.64,4.1-1.37,5.48-3.9,5.23-4.14-.41-.14-3.29-.41-3.65-1-1.34-1.91,7.49-6.28,8.26-9.97,1.75-1.73-3.04-1.87-2.95-1.91,1.33-.03,2.64-.75,4.18-1.69,3.59-.9-.55-1.64-.23-1.64,.73 0,.95-1.48,1.73-3.28,1.73-1.81,0-3.28-.72-3.28-1.6 0-1.03-1.53-1.01-4.31,.04-3.46,1.32-4.73,1.07-6.5-1.27-1.22-1.6-2.23-2.13-2.26-1.18-.03,.94 .82,2.59 1.89,3.66 3.45,3.45-.26,4.37-5.39,1.34-6.16-3.64-8.28-2.3-2.44,1.53 5.22,3.42 5.36,5.34 .56,7.27-2.03,.82-2.77,1.53-1.64,1.59 1.12,.06 2.05,.72 2.05,1.46 0,.75-2.4,1.14-5.34,.87-5.06-.47-5-.38 1.24,1.66 3.6,1.18 6.37,2.64 6.15,3.23-.23,.6-.41,1.68-.41,2.4s-2.77,1.12-6.15,.9c-5.9-.4-5.95-.36-1.24,.95 2.71,.75 8.98,1.41 13.95,1.45 7.5,.07 8.41-.21 5.41-1.66zm12.63-.08c0-1.92-2.39-1.45-3.08,.61-.34,1.02 .22,1.57 1.23,1.23 1.02-.34 1.85-1.17 1.85-1.84zm-3.28-5.33c0-2.01-3.43-4.1-6.7-4.1-2.09,0-1.88,3.88 .34,6.1 2.22,2.23 6.36,.92 6.36-2zm-22.55,1.37c-1.13-.46-2.98-.46-4.1,0-1.13,.45-.21,.83 2.05,.83 2.25,0 3.17-.38 2.05-.83zm74.14-.44c1.68-2.71-1.81-3.36-5.01-.93-3.01,2.27-3,2.35 .48,2.4 1.97,.03 4.02-.63 4.53-1.47zm-94.47-8.73c-2.79-3.98-2.99-4.72-.77-2.94 1.64,1.32 3.91,2.53 5.06,2.7 3.21,.47 2.51-7.04-.94-10.16-1.67-1.51-2.65-3.38-2.17-4.15 .47-.77-.4-.91-1.94-.32-2.42,.92-2.15,1.59 1.9,4.83 2.59,2.06 4.32,4.13 3.85,4.6s-4.5-2.98-8.96-7.68c-4.45-4.7-6.16-6.86-3.8-4.8 3.6,3.14 4.46,3.34 5.26,1.25 .53-1.37 .14-3-.86-3.62-1.18-.73-1.36-.37-.5,1.02 .89,1.43 .69,1.75-.59,.96-1.06-.65-1.53-1.82-1.05-2.6 .49-.78-12.38-14.75-28.59-31.05s-28.75-29.63-27.86-29.63 17.14,15.57 36.12,34.61c18.97,19.03 34.95,34.14 35.52,33.57 1.47-1.46-15.46-18.72-62.46-63.67-8.25-7.9-14.04-14.36-12.85-14.36 1.18,0 19.6,17.3 40.94,38.44 30.56,30.28 39.26,38.05 40.99,36.61 1.21-1.01 1.86-3.14 1.44-4.74-.63-2.43 .02-2.75 3.99-1.96 2.61,.53 4.73,.31 4.72-.48-.02-.79-5.61-7.34-12.43-14.56-18.01-19.06-18.56-22.43-.68-4.2 10.19,10.39 14.29,13.76 12.48,10.25-2.87-5.54-1.91-7.12 1.5-2.46 1.85,2.53 2.12,2.46 3.16-.82 1.47-4.62 3.65-4.58 5.18,.1 .97,2.98 1.79,1.49 4.25-7.79 4.53-17.1 4.89-54.22 .65-66.43-7.33-21.096-15.85-33.002-41.09-57.404-13.47-13.022-13.98-11.948-2.04,4.276 7.52,10.215 11,15.925 11,18.027 0,.658-5.16-6.322-11.48-15.512-6.31-9.191-11.48-17.44-11.48-18.332 0-2.423-17.25-10.127-21.28-9.503-3.06,.475-1.58,3.007 12.18,20.787 8.61,11.135 15.64,20.73 15.61,21.323-.03,.592-1.15-.38-2.5-2.16-1.34-1.781-7.41-9.441-13.48-17.023s-12.51-15.867-14.31-18.41c-1.81-2.543-4.64-4.979-6.3-5.415-5.33-1.398-21.37,2.073-35.88,7.77-13.98,5.488-18.44,5.977-32.04,3.509-2.93-.532-5.28-.38-5.21,.337 .07,.718 6.53,6.758 14.35,13.423 7.83,6.666 21.61,18.931 30.63,27.256 9.03,8.326 18.62,17.057 21.33,19.404 2.7,2.347 4.18,4.267 3.28,4.267-.9,.01-5.33-3.39-9.84-7.534-55.38-50.939-62.12-56.457-67.57-55.362-13.16,2.643-16.22,14.365-11.17,42.879 1.31,7.428 1.97,14.6 1.45,15.938-.55,1.429 .98,4.179 3.73,6.689 3.83,3.49 4.01,3.93 .98,2.45-2.03-.98-3.69-1.46-3.69-1.05 0,1.29 9.58,27.66 13.51,37.17 3.6,8.72 13.91,26.17 15.46,26.17 .41,0 .22-.92-.41-2.05-.64-1.13 1.72,.55 5.23,3.72 14.26,12.89 15.06,13.42 18.55,12.32 6.19-1.97 5.97-2.27-15.07-21.27-6.93-6.26-12.25-11.73-11.82-12.16s5.39,3.59 11.04,8.93c5.64,5.34 13.06,12.12 16.49,15.05 3.43,2.94 5.78,6.07 5.23,6.96s.09,1.62 1.42,1.62c1.34,0 3.78,.51 5.43,1.13 2.74,1.03 2.79,.85 .55-1.96-2.19-2.74-2.19-2.93 0-1.69 1.35,.76 3.93,2.55 5.74,3.99 2.25,1.79 2.04,1.21-.7-1.89-2.19-2.47-3.2-4.5-2.25-4.5s2.68,1.15 3.84,2.55c2.66,3.2 9.03,6.81 7.42,4.19-.69-1.11-.14-1.41 1.44-.8 1.4,.53 2.55,1.61 2.55,2.39 0,.79 2.18,2.55 4.84,3.93 5.49,2.84 7.23,3.15 5.94,1.06-1.51-2.45 19.88,11.61 31.52,20.71 6.05,4.73 11.24,8.6 11.53,8.61 .28,0-1.17-2.39-3.22-5.33zm-93.66-42.41l-10.26-10.01 11.07,9.48c6.09,5.22 11.07,9.73 11.07,10.02 0,1.64-2.64-.48-11.88-9.49zm11.57-4.23c-17.84-16.08-32.54-30.61-37.88-37.41-2.83-3.61 2.95,1.57 12.84,11.5 9.88,9.94 22.62,21.94 28.31,26.66 5.68,4.72 9.6,8.58 8.7,8.58-.89,0-6.28-4.2-11.97-9.33zm.28-16.5c-10.2-10.87-10.82-12.94-1.34-4.51 5.07,4.51 9.3,8.75 9.4,9.43 .39,2.72-2.58,.91-8.06-4.92zm-11.31-2.07c-3.99-3.6-6.89-6.89-6.46-7.33 .43-.43 4.03,2.52 8,6.56 8.92,9.1 8.13,9.49-1.54,.77zm58.87-18.49c-7.32-6.83-12.47-12.66-11.18-12.66 .36,0 5.04,4.43 10.4,9.84 11.22,11.34 11.67,12.98 .78,2.82zm-89.51-9.79l-3.12-3.69 3.69,3.13c2.03,1.72 3.69,3.38 3.69,3.69 0,1.31-1.32,.34-4.26-3.13zm1.8-4.51c-8.29-8.48-6.33-8.5 2.8-.02 3.87,3.6 6.27,6.55 5.32,6.56-.94,.02-4.6-2.93-8.12-6.54zm46.74-21.58c-7.66-6.33-16.52-13.846-19.68-16.703-3.15-2.857-11.83-10.236-19.27-16.399-12.23-10.13-16.94-14.845-11.48-11.499 3.32,2.037 45.08,37.43 60.14,50.971 10.13,9.11 4.84,5.63-9.71-6.37zm8.68-.885c-5.22-4.239-14.71-12.173-21.08-17.632-10.15-8.684-20.16-17.223-32.46-27.678-1.94-1.646-2.65-2.753-1.58-2.461 1.07,.293 15.37,11.958 31.78,25.924s31.04,26.302 32.5,27.422c1.47,1.11 2.14,2.05 1.5,2.08s-5.44-3.42-10.66-7.655zm94.86-4.618c-4.85-8.217-4.36-9.41 .76-1.87 2.34,3.437 3.91,6.592 3.49,7.012-.42,.419-2.33-1.895-4.25-5.142zm-8.53-7.627c-1.11-2.107-3.1-5.491-4.42-7.521s-2.04-3.691-1.6-3.691c1.37,0 9.71,13.385 8.86,14.233-.44,.445-1.72-.914-2.84-3.021zm-90.29-10.651c-5.75-5.104-10.82-9.729-11.28-10.278-.45-.548-3.24-2.989-6.2-5.423-5.36-4.403-15.79-15.976-12.66-14.046 .9,.556 7.92,6.853 15.58,13.993 7.67,7.141 16.9,15.675 20.51,18.964 3.6,3.29 6.1,6.002 5.53,6.026-.56,.025-5.73-4.132-11.48-9.236zm-1.48-10.05c-8.08-6.635-12.57-11.036-16.32-16.005-2.03-2.686 5.67,4.018 22.06,19.215 5.53,5.131 2.05,3.179-5.74-3.21zm58.27-10.523c-13-17.613-15.39-21.396-9.12-14.432 7.21,8.006 21.63,27.896 20.17,27.825-.66-.032-5.64-6.059-11.05-13.393zm-29.7-1.72c-6.22-6.743-9.49-11.071-8.38-11.071 .48,0 3.96,3.69 7.74,8.201 7.73,9.235 8.12,10.975 .64,2.87zm4.93-4.921c-7.18-8.286-9.32-11.071-8.48-11.071 .48,0 3.59,3.321 6.92,7.381 6.16,7.518 7.38,10.404 1.56,3.69zm-22.21-3.28c-2.65-3.782-2.89-4.655-.84-3.005 2.92,2.347 6.76,8.336 5.35,8.336-.43,0-2.45-2.399-4.51-5.331zm-12.85-.37c-1.3-1.559-1.42-2.5-.33-2.5 1.98,0 4.29,3.111 3.15,4.249-.41,.413-1.68-.375-2.82-1.749zm92.73,170.48c-3.22-2.44-5.84-3.12-5.84-1.53 0,.79 6.27,3.77 8.21,3.89 .45,.03-.62-1.03-2.37-2.36zm81.47-8.11c2.46-1.22 5.87-1.84 7.58-1.4 3.66,.96 17.55-5.73 28.54-13.74 4.28-3.12 7.79-5.06 7.78-4.31s-5.34,4.88-11.85,9.16c-6.51,4.29-10.89,7.79-9.73,7.79 4.05,0 19.76-8.66 31.7-17.48 10.83-8 7.51-3.75-4.46,5.72l-4.83,3.82 4.92-2.84c8.24-4.76 11.17-7.01 19.25-14.86 4.28-4.14 7.43-8.1 7-8.79-1.03-1.67 12.23-16.64 13.86-15.64 1.49,.92 5.34-3.19 8.23-8.76 1.31-2.52 1.38-3.5 .21-2.77-2.83,1.75-2.05-.99 2.34-8.1 6.59-10.71 4.61-12.02-2.25-1.49-10.78,16.57-19.28,26.2-33.39,37.84-17.72,14.62-20.2,16.5-18.89,14.32 .59-1 7.95-7.46 16.33-14.37 16.35-13.45 25.78-24.33 37.03-42.76l7.08-11.59-.95-14.76c-.51-8.117-.89-19.228-.83-24.688 .15-14.075-4.05-32.366-10.12-44.038-5.19-9.985-12.25-20.409-15.37-22.688-3.9-2.8546-8.6-.9862-13.22,5.267-2.66,3.587-5.44,6.539-6.2,6.561-.75,.021 .91-2.836 3.69-6.348 5.58-7.0371 6.06-8.3808 3.01-8.3641-1.13,.0061-3.73,2.4792-5.78,5.4961-2.06,3.016-5.75,7.252-8.2,9.413l-4.47,3.93 4.26-4.915c2.34-2.703 5.47-6.726 6.95-8.941 2.61-3.9031 2.55-4.0826-1.79-5.8589-4.2-1.7152-4.83-1.3788-9.9,5.2569-2.97,3.899-5.83,7.089-6.35,7.089s.86-2.399 3.06-5.331c6.9-9.1913 6.93-9.4795 .98-8.3984-9.78,1.7761-36.05,17.963-47.71,29.395-6.05,5.935-11.01,11.39-11.01,12.123s-1.29,2.346-2.87,3.584c-2.64,2.07-2.68,1.987-.6-1.03 1.25-1.804-3.18,2.256-9.85,9.021-7.77,7.876-14.27,16.433-18.08,23.783-6.97,13.458-9.23,19.841-6.41,18.099 1.19-.734 .94,1.109-.65,4.912-2.82,6.76-3.15,8.97-1.31,8.97 .68,0 4.18-6.61 7.79-14.7 3.61-8.086 7.87-16.389 9.47-18.452 1.61-2.062-.79,3.935-5.33,13.327-7.97,16.515-9.97,22.725-6.65,20.675 .87-.54 .51,2.1-.82,5.85-5.15,14.59-1.8,11.31 7.12-6.97 5.13-10.53 9.95-19.754 10.71-20.505 1.42-1.398-2.22,7.005-12.72,29.355-6.51,13.87-9.32,23.89-6.14,21.92 1.05-.64 1.9-1.8 1.9-2.58s4.21-10.14 9.35-20.81c5.14-10.68 9.27-20.41 9.17-21.634-.11-1.436 .39-1.661 1.42-.635 1.02,1.027-1.73,8.499-7.78,21.089-13.46,28-15.3,32.29-16.49,38.52-.58,3.07-.7,5.21-.25,4.76 .44-.45 5.08-10.25 10.31-21.77s9.81-20.64 10.19-20.27c.37,.38-1.64,5.74-4.46,11.93-5.99,13.13-15.53,37.32-17.04,43.23-.58,2.26 3.32-4.76 8.68-15.58 5.35-10.83 9.79-19.23 9.88-18.68 .14,1.01-10.18,24.56-13.04,29.73-.87,1.56-1.55,3.78-1.51,4.92s1.48-.51 3.21-3.67c1.97-3.6 3.17-4.67 3.21-2.87 .04,1.58 .85,2.87 1.81,2.87 .95,0 1.19,.92 .54,2.05-.66,1.13 .25,.77 2.04-.78 1.78-1.56 4.62-7.45 6.31-13.08 3.36-11.24 34.39-73.878 43.71-88.242 3.21-4.961 7.1-11.074 8.63-13.584 1.57-2.578 3.57-4.073 4.6-3.437 1.07,.66 1.37,.383 .72-.669-.61-.987 .38-4.238 2.2-7.224s3.31-4.463 3.31-3.282c.01,1.266 .83,1.642 2,.915 1.1-.677 .17,1.849-2.05,5.614-2.22,3.766-4.48,6.675-5.02,6.466-1.51-.587-6.4,3.904-6.4,5.874 0,.964 1.08,.321 2.41-1.431 2.98-3.948 3.21-2.408 .42,2.78-5.01,9.274-11.25,17.878-12.44,17.141-.72-.439-1.24,.825-1.18,2.81 .08,2.171-.74,3.429-2.05,3.158-1.19-.248-1.74,.24-1.22,1.083 .52,.844-3.53,10.054-9,20.468-8.32,15.84-28.05,61.39-30.29,69.93-2.41,9.16-2.28,9.86 .66,3.69 4.24-8.91 5.69-8.99 2.57-.15-3.02,8.57-1.91,10.11 1.74,2.41 1.52-3.19 3.8-6.67 5.08-7.73 1.59-1.32 1.29,.35-.94,5.26-3.47,7.64-4.32,14.56-1.8,14.56 .84,0 1.98-1.41 2.53-3.13 .54-1.72 2.18-4.12 3.64-5.33 2.4-1.99 2.39-1.7-.06,3.05-3.63,7.02-3.42,8.19 .8,4.44 3.49-3.11 3.51-3.1 1.64,.45-2.65,5.07-2.35,7.62 .77,6.42 1.97-.76 2.37-.32 1.58,1.74-2.2,5.74 5.64,6.44 15.83,1.42zm-4.48-1.72c4.99-4.04 9.66-6.41 8.3-4.21-.62,1-3.47,2.95-6.35,4.34-4.85,2.35-4.99,2.34-1.95-.13zm10.67-1.35c0-.32 3.69-2.87 8.2-5.67 10.15-6.32 10.75-5.51 .93,1.24-6.79,4.68-9.13,5.81-9.13,4.43zm19.68-13.21c0-.36 2.4-2.07 5.33-3.8s11.42-8.06 18.86-14.07 13.53-10.55 13.53-10.09c0,1.33-10.4,10.11-23.35,19.72-10.86,8.06-14.37,10.07-14.37,8.24zm.9-8.83c.86-.7 5.94-4.21 11.3-7.79 5.36-3.57 16.43-12.28 24.6-19.34 14.84-12.82 14.84-12.83 3.65-1.93-11.45,11.14-36.4,30.35-39.43,30.35-1.04,0-1.09-.49-.12-1.29zm-53.39-7.75c0-.47 .73-2.13 1.62-3.69 .89-1.57 5.69-11.52 10.67-22.12 4.97-10.6 9.42-19.28 9.88-19.28 1.04,0-1.42,5.74-12.13,28.3-7.31,15.38-10.04,19.95-10.04,16.79zm77.09-17.18c3.16-2.85 8.69-7.41 12.3-10.13l6.56-4.95-6.15,5.65c-3.38,3.11-6.15,6.54-6.15,7.63 0,1.08-.65,1.57-1.45,1.08-.79-.5-3.56,.63-6.15,2.5-3.29,2.37-2.97,1.84 1.04-1.78zm14.9,3.67c.08-.68 3.21-3.78 6.97-6.9l6.83-5.66-6.48,6.89c-6.67,7.09-7.56,7.78-7.32,5.67zm24.54-7.79c0-.9 1.44-3.49 3.21-5.74 1.76-2.26 3.2-3.37 3.2-2.46 0,.9-1.44,3.48-3.2,5.74-1.77,2.25-3.21,3.36-3.21,2.46zm-114.84-18.48c-.03-1.14 .65-3.35 1.5-4.92 .85-1.56 6.99-13.92 13.66-27.45 11.74-23.847 22.41-42.19 25.74-44.251 .9-.553-2.02,4.888-6.49,12.091s-14.03,25.136-21.25,39.85c-7.21,14.72-13.14,25.82-13.16,24.68zm117.17-8.15c2.28-3.36 4.16-7.18 4.16-8.47s.52-1.83 1.16-1.19c1.32,1.32-6.15,15.78-8.16,15.78-.73,0 .55-2.75 2.84-6.12zm-92.43-5.34c2.02-3.6 3.95-6.27 4.27-5.95 .71,.71-6.07,12.49-7.18,12.49-.42,0 .89-2.94 2.91-6.54zm-46.07-8.67c-.06-2.09 9.95-21.264 10.71-20.51 .38,.38-1.87,5.437-4.99,11.24-3.13,5.8-5.7,9.97-5.72,9.27zm54.09-7.75c.96-1.8 2.12-3.279 2.57-3.279s.03,1.479-.93,3.279c-.97,1.81-2.13,3.28-2.58,3.28s-.03-1.47 .94-3.28zm3.28-5.645c0-1.213 6.83-12.395 7.57-12.395 .38,0-.81,2.952-2.65,6.56-2.94,5.758-4.92,8.11-4.92,5.835zm-60.69-1.526c0-1.771 6.51-14.15 7.45-14.15 .45,0-.77,3.137-2.7,6.971-3.8,7.54-4.75,8.975-4.75,7.179zm17.22-12.51c1.4-2.706 2.91-4.92 3.37-4.92 .45,0-.33,2.214-1.73,4.92-1.4,2.707-2.91,4.921-3.36,4.921s.32-2.214 1.72-4.921zm23.83,2.085c-.02-1.109 3.63-7.752 8.13-14.762 4.49-7.01 8.18-11.987 8.2-11.06 .01,.927-1.27,3.487-2.84,5.688-1.58,2.202-5.25,8.086-8.16,13.077-2.9,4.99-5.3,8.166-5.33,7.057zm-21.37-20.127c1.93-2.706 3.87-4.92 4.33-4.92 .45,0-.76,2.214-2.69,4.92-1.93,2.707-3.87,4.921-4.32,4.921s.75-2.214 2.68-4.921zm82.15-53.5c2.18-2.8125 4.29-4.8199 4.69-4.4604 .41,.3595-1.37,2.661-3.96,5.1144l-4.69,4.461 3.96-5.115zm-112.24,187.55c-.45-1.11-.79,.2-.75,2.9 .03,2.71 .4,3.62 .81,2.02 .42-1.59 .39-3.81-.06-4.92zm-8.14-2.43c-.42-1.58-.75-.28-.75,2.87 0,3.16 .33,4.45 .75,2.87 .41-1.58 .41-4.16 0-5.74zm2.15-11.89c-1.05-1.96-2.28-3.19-2.73-2.74s.04,2.42 1.09,4.38 2.27,3.19 2.72,2.74-.03-2.42-1.08-4.38zm14.29,1.23c.04-1.13 .59-3.53 1.21-5.33 .75-2.19 .29-1.92-1.39,.82-2.87,4.68-3.23,6.56-1.26,6.56 .75,0 1.4-.92 1.44-2.05zm-144.69-6.15c-6.53-6.69-7.38-7.33-7.38-5.55 0,1.16 11.71,12.11 12.96,12.11 .45,0-2.05-2.95-5.58-6.56zm158.28,.45c0-5.14-.79-4.55-2.29,1.74-.74,3.05-.53,4.28 .58,3.59 .94-.58 1.71-2.98 1.71-5.33zm-4.97-7.83c0-.9-.72-.53-1.59,.82s-1.59,3.2-1.59,4.1 .72,.53 1.59-.82 1.59-3.2 1.59-4.1zm-6.83-57.45c-.5-.51-1.42,.41-2.04,2.02-.89,2.34-.7,2.53 .92,.92 1.12-1.11 1.63-2.44 1.12-2.94zm67.71-46.977c2.49-4.654 .88-3.56-3.43,2.325-2.41,3.299-2.81,4.444-1.04,3.005 1.58-1.279 3.59-3.677 4.47-5.33zm11.96-18.673c.56-1.459 .29-2.118-.64-1.543-.89,.551-1.62,1.697-1.62,2.546 0,2.359 1.17,1.839 2.26-1.003zm-422.6,362.2c2.912-.36 8.079-.36 11.482-.01 3.403,.36 1.02,.65-5.294,.66-6.315,.01-9.099-.28-6.188-.65zm-11.476-4.81c1.111-.45 3.325-.48 4.921-.06s.687,.78-2.019,.82c-2.706,.03-4.012-.31-2.902-.76zm11.923-.56c1.353-.88 4.674-1.59 7.381-1.59 3.775,0 4.348,.37 2.46,1.59-1.353,.87-4.674,1.59-7.381,1.59-3.775,0-4.348-.37-2.46-1.59zm-27.473-46.15c4.688-.9 10.893-.9 15.582,0 6.991,1.34 6.192,1.49-7.791,1.49s-14.783-.15-7.791-1.49z"/>
</svg>
