<svg xmlns="http://www.w3.org/2000/svg" viewBox="0 0 176.746 150.65" xmlns:xlink="http://www.w3.org/1999/xlink" enable-background="new 0 0 176.746 150.65">
<g fill-rule="evenodd">
<path d="m87.272,6.582c.062-.166 .904-.763 1.285-.435 .85,.733-1.885,2.054-1.285,.435z"/>
<path d="m79.562,9.184c-.26,1.167-1.173,1.686-2.567,1.726-2.702-1.766 1.75-4.66 2.567-1.726z"/>
<path d="m98.865,9.54c1.441-.11 2.222,1.585 1.295,2.569-1.442,.108-2.22-1.585-1.295-2.569z"/>
<path d="m51.29,19.157c-.898,.946-1.906,.098-2.574-.419-.063-2.29 2.979-2.023 2.574,.419z"/>
<path d="m87.758,21.593c1.075-.077 1.345,.653 1.721,1.279 .076,1.073-.653,1.346-1.281,1.721-1.072,.077-1.344-.655-1.719-1.279-.077-1.074 .654-1.348 1.279-1.721z"/>
<path d="m131.95,24.855c1.709-.143 3.168-.035 3.864,.843 .314,1.309-.435,1.565-.419,2.576-2.91,.569-4.38-1.389-3.44-3.419z"/>
<path d="m145.25,26.947c.43-.001 .858-.001 1.288-.003 .002,.573 .004,1.145 .007,1.716-1.13,.134-1.41-.589-1.3-1.713z"/>
<path d="m144.03,43.252c.43-.002 .857-.003 1.287-.005 .593,.548 .757,2.564-.419,2.576-1.38,.125-1.57-1.871-.87-2.571z"/>
<path d="m165.07,49.606c.113,1.251-.802,1.483-1.278,2.148-1.431-.281-2.331-1.093-2.157-2.993 1.01-.886 3.3-.455 3.44,.845z"/>
<path d="m14.61,73.342c1.066-.072 1.33,.668 2.146,.848 .063,1.058 .073,2.066-.419,2.576-2.212,.2-3.185-2.376-1.727-3.424z"/>
<path d="m77.276,84.683c.529,.186 .883,.547 .862,1.285-.691,.124-.74-.403-1.288-.424 .08-.348 .429-.43 .426-.861z"/>
<path d="m120.17,85.807c.572-.001 1.145-.003 1.716-.005-.051,.768 .528,.902 .436,1.714-.91-.382-2.57-.005-2.16-1.709z"/>
<path d="m22.854,98.188c1.248-.636 1.258,1.911 .005,1.286-.001-.429-.003-.858-.005-1.286z"/>
<path d="m31.467,107.59c.572-.002 1.143-.004 1.716-.007 .003,.714 .005,1.429 .009,2.143-1.585,.32-1.898-.66-1.725-2.13z"/>
<path d="m80.813,.173c16.098-1.171 33.811,3.815 47.216,8.826 3.161,1.183 5.356,2.279 7.735,3.831 2.135,1.395 4.252,2.288 6.447,3.836 2.616,1.845 4.99,4.023 7.314,5.978 5.154,4.332 10.521,7.611 14.203,12.385 1.448,1.878 2.618,4.3 3.885,6.419 2.319,3.885 4.91,9.147 6.485,14.13 .221,.691-.209,1.845 .011,2.574 .202,.658 1.106,.654 1.292,1.281 1.951,6.523 1.455,17.146 .521,24.446-1.463,11.443-4.909,20.524-10.611,29.207-3.576,5.447-5.41,7.771-10.246,12.477-1.048,1.021-2.05,1.931-2.99,3.017-5.304,6.111-12.722,9.534-21.396,13.377-4.299,1.904-8.344,3.651-12.851,4.767-18.887,4.678-38.968,5.522-57.903,.649-7.788-2.004-14.92-5.229-21.05-8.928-9.27-5.593-17.509-12.19-24.101-20.924-3.304-4.379-5.62-7.58-8.198-12.838-1.49-3.035-4.239-7.915-5.192-11.988-.55-2.35-.499-5.388-.89-8.147-1.97-13.925 2.169-30.67 7.996-40.778 1.813-3.147 4.776-6.308 7.255-9.463 5.311-6.761 9.678-11.851 17.092-17.223 12.818-9.28 26.546-15.368 48.004-16.928zm7.333,10.266c6.963,.34 1.638-10.87-3.451-4.706 .473,2.816 1.091,4.591 3.451,4.706zm-6.457-5.552c-.679,2.276 2.84,2.262 2.145-.009-1.321-.295-.825-.296-2.145,.009zm11.591,2.529c1.374-.061 1.884-.979 1.705-2.58-.714,.003-1.429,.005-2.143,.009-.052,1.058-.057,2.067 .438,2.571zm-11.99,5.194c3.471-4.257-2.374-8.876-6.887-6.409-.408,1.131-.815,3.679 .02,4.719-.749-.03-1.335,.1-1.716,.435 .096,4.369-1.375,7.182-2.965,9.876-1.96-3.932 6.498-13.576-1.775-15.435 .396,3.136-.117,8.287-.382,11.583-.759-.384-1.332-.955-1.722-1.708 .193-3.768 2.436-9.192-2.184-9.859-.148,2.595-.162,4.442-.407,6.007-1.899-2.211-3.188-6.48-7.311-5.119-.481,4.505 4.268,3.739 6.028,5.983-3.396,1.464-5.056-2.3-8.585-2.112-1.264,7.304 11.015,3.25 12.036,6.817-2.266-.229-8.496,0-10.73-1.676-.431,2.013 .713,2.437 1.298,3.426 4.766-.166 10.133,.232 12.016,1.67-3.626-.1-9.128-.091-12.438,.047 1.173,7.861 13.313-1.978 15.032,5.089-2.971-1.325-7.421-.674-10.723,.042 1.325,7.137 11.044-1.143 12.887,4.669-1.47-.182-3.862-.96-5.147,.019 .834,2.316 4.084,2.199 5.163,4.271 .063,1.37-.412,3.284 1.298,2.997 .517-3.332 4.281-3.442 7.706-3.889-.408-2.318-2.072-3.368-3.876-4.276-1.508-.244-1.403,2.033-2.571,.867-.462-4.847 3.417-7.272 1.668-12.016-2.115,.323-1.433,3.419-2.984,4.302-.344,1.654 .232,4.218-1.269,4.723-2.388-5.157 4.96-8.779 2.084-15.878 1.303,1.392 4.227,1.537 6.436,.835zm23.15-3.95c-2.503-.972-4.461-3.637-7.732-2.544 .714,2.276-1.034,2.106-2.133,2.583-.739,3.4 1.124,6.166 3.887,7.276 .709-1.408 2.957-.761 3.861-.014 2.59-1.606 2.07-4.283 2.12-7.301zm-1.65,18.879c.53,1.95 2.689,4 6.016,2.552-.736-7.609 4.292-17.362-1.801-22.298-.506,.07-1.218-.07-1.286,.435 4.33,5.584-4.54,13.388-2.93,19.311zm9.39-13.76c2.471-.703 4.353-2.991 2.551-5.586-4.53-1.513-4.86,3.244-2.55,5.586zm5.13-3.452c-.495,2.728-3.464,3.897-4.694,6.452-1.605,3.333-2.789,10.418 .049,13.297 4.871-3.246 9.494-12.255 5.931-19.753-.43,.001-.86,.002-1.29,.004zm-30.878,.976c-.4,1.738-1.349,2.932-1.266,5.152 1.546,1.005 3.58-.543 6.003-.024-.067-3.229-1.474-5.114-4.737-5.128zm37.768,5.861c3.679-.138 2.504-7.067-2.163-4.709-.99,2.368 .38,4.774 2.16,4.709zm-74.618,3.715c5.431,.653 4.876-8.045-.456-6.86-5.126,1.139-2.075,6.556 .456,6.86zm34.722-5.279c-.246-1.043-.375-2.204-1.725-2.138-1.706,1.415 .355,4.007 1.725,2.138zm9.869,.82c.051-1.058 .056-2.066-.439-2.571-.43,.002-.858,.003-1.286,.005-1.071,1.205-.128,2.992 1.725,2.566zm-11.119,9.049c.962,1.042 3.192,.803 3.442,2.562 2.895,.309 4.311-.85 5.568-2.167-1.36-1.103 .418-2.688 .415-3.861-2.135-1.007-1.689-4.614-5.165-4.269-1.108,2.414-3.063,1.454-5.136,2.591 .117,1.893 1.326,2.683 .876,5.144zm.4-8.15c-2.381-1.105-2.236-2.525-5.585-2.124-.021,2.605 1.302,3.855 2.166,5.569 2.543,.244 2.749-1.829 3.419-3.445zm-43.316,1.881c.142,1.785 2.042,2.812 4.725,1.696 .094-.333 .009-.846 .426-.858 .511-5.07-5.399-3.995-5.151-.838zm81.922,.117c-1.651,2.468-1.787,5.494-3.401,7.732-1.569,2.18-4.344,2.776-5.557,5.171 .812,2.293 4.115,2.622 6.014,2.119 4.03-1.06 3.917-6.442 5.534-11.172 1.18-3.459 3.598-4.717 4.263-6.88-2.76-.123-4.02,2.13-6.84,3.03zm-27.43,4.393c2.788-.651 5.445-1.431 5.556-4.738-2.286-.709-4.042-1.953-7.297-1.688-1.226,2.618 1.93,3.517 1.737,6.426zm33.02-2.269c.857,.569 1.864,.992 2.152,2.135-.753,1.106-3.102,.626-3.854,1.731 .005,1.145 .009,2.288 .014,3.432 .581,.848 2.993-.146 3.007,1.275-1.681,3.751 2.765,5.062 5.592,4.268 .773-.656-.092-2.941 1.705-2.58 .829,.171 .346,1.66 1.721,1.279 1.226-1.491 3.075-2.36 3.846-4.304 .156-1.594-1.744-1.114-1.299-2.997 .483-.944 1.43-1.43 1.705-2.58-1.433-1.714-2.169-4.131-5.162-4.271-1.217,.216-.609,2.246-2.567,1.726-1.456-.113-.335-2.818-1.729-2.995-2.62,.389-4.17,1.842-5.13,3.881zm-24.03-2.483c-.052-1.096-1.439-.846-2.577-.848-1.01,2.397 2.79,3.026 2.58,.848zm-66.906,1.97c.028,1.695 .89,2.548 2.584,2.566 .491-.51 .48-1.519 .417-2.576-.574-.611-2.431-.605-3.001,.01zm9.011,.825c.419,2.592 .812,5.208 2.597,6.423 3.05-2.036 1.432-9.611-2.597-6.423zm9.448,2.966c.241-5.215-6.658-1.26-4.277,3.447 1.789-1.187 4.182-1.411 4.277-3.447zm22.316,3.345c1.033,.991 4.224,1.332 5.146-.019-.825-2.325-2.037-4.26-3.881-5.561 .698,1.745-1.134,2.568-1.265,5.58zm-37.325-2.431c.264,1.852 3.012,2.127 5.585,2.553 2.056-4.273-6.308-7.602-5.585-2.553zm-5.133,3.88c4.024,.332 3.904-6.421-.021-5.576-4.22,.907-2.972,5.33 .021,5.576zm64.323-4.105c-.002-.571-.004-1.143-.008-1.716-2.698-.713-2.537,2.299 .008,1.716zm49.766,2.384c.246-3.548-7.015-5.77-6.002,.88 2.01,2.544 5.81,1.836 6-.88zm-57.039,2.361c1.123,1.164 3.365,1.201 5.152,1.697 3.517-5.308-5.341-10.676-5.152-1.697zm-39.89,.154c2.146,.679 7.522,2.909 7.283-2.173-2.547-1.989-6.24,.072-7.283,2.173zm47.662,13.544c.189,2.677 2.16,3.564 3.024,5.564-.432,2.641-.866,7.295-.826,9.011 2.887,.784 2.272-5.375 2.543-8.588 .853-2.716 5.051-2.108 5.125-5.596-2.028-.164-1.95,1.768-4.283,1.302-.02-2.155 1.142-3.138 1.267-5.15-2.527,.483-1.581,4.412-3.41,5.588-1.042-.387-1.143-1.719-1.298-2.997 4.59-3.508 2.424-13.687-2.203-15.434-.143,5.61-7.688,12.717 .056,16.3zm-60.958-13.493c.574,.607 2.432,.6 3.002-.012 .126-1.705-.833-2.32-2.581-2.135-.359,.497-.562,1.152-.421,2.147zm-9.431,1.321c1.335,.521 1.729,1.986 3.866,1.702 2.71-3.35-3.845-6.915-3.866-1.702zm20.16-.077c-1.847,.569-.541-2.04-2.152-1.707-1.813,2.488 2.614,3.328 3.867,1.7-.008-1.285-.778-1.799-1.724-2.138-.253,.767 1.263,1.777 .009,2.145zm37.331,4.148c.609-2.103 3.141-2.295 2.981-5.161-1.004-1.283-3.897-.663-5.58-1.265-1.633,1.838 .236,5.929 2.599,6.426zm-46.33-1.539c.508,.206 .974,.454 1.29,.852 2.686-.325 4.044-1.97 4.272-4.733-1.979-.426-6.087,.426-5.562,3.881zm41.164-3.16c.429-.002 .858-.004 1.288-.005 .073-.936-.356-1.363-1.292-1.281 .002,.429 .004,.856 .004,1.286zm-21.837,9.949c3.101,6.258 11.912,2.831 11.14-3.475-.508-4.148-6.423-6.613-10.32-6.824-1.942,2.688 .39,7.13-.82,10.299zm-22.343-10.211c-6.791,2.907 .438,7.991 .482,13.725 .024,3.152-2.206,4.044-.829,7.295 9.159-3.014 3.813-15.781 .347-21.02zm53.196,2.372c.995,.133 1.646-.073 2.144-.436 .056-1.35-1.106-1.47-2.15-1.709-.375,.998-.375,1.15 .006,2.145zm57.485,1.497c-.75-5.119-7.194-3.939-6.432,.883 .328,2.075 2.239,3.112 5.587,2.981 .52-1.642 1-2.736 .84-3.864zm-41.19-1.558c.344,1.431 3.461,1.688 4.722,.839-.16-2.793-3.57-3.016-4.72-.839zm-84.485,2.465c.609,.822 2.087,.768 3.007,1.276 .616-.958 1.068-2.073 .845-3.864-2.025-1.281-4.572-.993-3.852,2.588zm29.586-2.256c.103,2.744 3.501,4.358 5.587,2.551 .047-2.533-4.491-5.198-5.587-2.551zm98.659,2.625c.874-.131 1.142-.862 1.712-1.293-.204-1.66-1.12-2.602-3.012-2.561-.84,1.17-.61,4.125 1.3,3.854zm-115.75,15.025c2.414-8.004-.417-15.88-7.362-17.987-2.298,7.871 1.495,17.156 7.362,17.987zm86.587-14.914c.164,1.176 1.005,2.084 3.011,2.133 3.41-4.724-3.67-6.82-3.01-2.133zm19.72-1.36c.293-1.588-.684-1.894-2.15-1.709-.54,1.89 1.09,2.726 2.15,1.709zm-98.203,4.233c.696,.735 1.797,1.058 3.433,.845 .918-1.775 2.037-3.731 1.266-6.009-3.052,.248-4.661,1.927-4.699,5.164zm6.441,2.121c5.508,.295 2.918-6.29-.026-6.863-.045,2.288-1.762,5.325 .026,6.863zm39.444-4.87c1.462,1.253 3.075,2.354 5.585,2.553 1.157-3.774-5.01-5.797-5.585-2.553zm18.028,2.936c.504-.6 2.53-3.416 .413-3.862 0,1.173-1.77,2.759-.41,3.862zm9.86,.389c-.347-3.637-5.808-5.124-8.155-1.684-.142,2.582-.035,4.915 1.309,6 3.91,1.165 7.12-1.373 6.84-4.316zm8.15-.031c2.387,1.225 5.08-.546 4.705-3.449-2.91-1.513-4.19,1.264-4.7,3.449zm6.86-2.599c-1.033,5.047 7.466,4.745 9.014,2.112 .03-4.929-6.66-2.71-9.01-2.112zm-39.455,2.724c-3.155-1.919-8.297-3.757-13.31-3.38-.684,1.382-.344,2.843 .443,3.859 5.946-.67 10.232-.325 15.449,2.085 .587-1.56-1.502-1.907-2.582-2.564zm-73.776-.575c-.347,2.408 2.922,2.798 4.311,5.559 1.715,3.41 1.857,7.773 3.892,8.994 2.361,1.41 6.15,1.201 6.86-1.314-5.601-1.677-8.021-6.557-8.63-13.264-1.766-2.127-5.976-3.152-6.433,.025zm99.081-.808c-.014,1.305 .911,1.665 1.297,2.569 1.03-.686 3.117-.324 3.425-1.728-1.22-1.231-3.47-3.208-4.73-.841zm31.31,1.167c.874,1.704 1.989,3.163 3.446,4.276 3.285,.126 3.958-2.338 3.84-5.59-1.43-1.843-7.4-2.032-7.29,1.314zm-92.222-1.792c-2.634,1.369-4.707,5.112-4.26,8.167 1.604,.452 1.22-1.07 2.573-.868 .099,.759-.426,2.148 .862,1.712 3.438-.725 3.93-7.489 .825-9.011zm12.042,8.962c.6,1.691 1.642,2.937 1.307,5.569 2.295-.016 4.175,.388 4.728,2.127 0,2.281-2.049,2.524-2.559,4.299 3.251,6.756 12.958,3.599 14.144-3.054-4.586-3.948-11.992-7.822-9.072-16.695-4.836,.61-6.991,3.884-8.548,7.754zm75.89-6.725c-1.565,.441-3.098,.913-4.712,1.305 .751,2.519-.204,2.77-.41,5.149 1.339,.633 2.646,3.239 4.302,3.415 3.184,.337 6.125-2.438 5.551-6.883-2.6,.039-2.68-2.459-4.73-2.986zm-17.58,.927c.94,1.347 1.082,3.499 3.018,3.848 1.305-.274 2.188-.961 2.134-2.583-.7-1.312-3.43-2.349-5.15-1.265zm-44.175,.595c.012,1.281 1.121,1.456 1.297,2.569 1.438-.138 1.705-1.44 2.135-2.582-.625-.627-2.81-.619-3.432,.013zm35.615,3.297c1.709,.307 1.726,.307 3.431-.012 .458-1.115 1.035-2.108 .845-3.864-2.3,.417-4.61,.83-4.27,3.876zm4.72,1.269c.77,.662 1.686,1.173 2.581,1.705-1.108,1.145 .733,2.972 2.583,2.564 .004-.852 1.168-.55 .852-1.719-.029-1.548-2.26-.879-3.009-1.704 2.405-1.639 .836-5.651-1.738-5.999-.53,1.601-1.74,2.538-1.26,5.153zm-74.619,3.286c1.237-1.241-.839-1.338-.441-3 1.312-.316 1.265,.735 2.576,.419-1.382-2.77-3.178-5.123-7.311-5.121-1.248,4.023 .992,7.768 5.176,7.702zm32.162-1.837c.677-1.217 .663-4.796-.022-6.006-4.364-.515-2.282,5.78 .022,6.006zm5.99-4.312c1.054,.92 3.171,.307 2.997-1.3-1.055-.921-3.173-.307-2.997,1.3zm70.347,.589c.896,.242 1.229,1.058 2.576,.848 2.18-3.016-3.1-5.046-2.58-.848zm-143.69-.309c-.15,2.445 .745,3.838 2.588,4.278 3.578-1.406 .902-7.585-2.588-4.278zm117.97,5.124c1.818,.422 4.691,.745 6.433-.024 .328-2.197-.612-3.112-.448-5.145-3.65-1.409-5.7,1.863-5.98,5.169zm-113.24-.426c1.78,.487 1.668-.908 3-.869 .122-1.845 .018-3.461-1.728-3.424-.422,1.347-1.946,3.206-1.272,4.293zm78.935,3.131c1.368,.363 1.323-.681 2.142-.867-.663-3.063-2.011-5.437-4.316-6.845-.286,0-.57,.002-.856,.004 .319,3.263 2.54,4.614 3.03,7.708zm-87.514-3.098c.85,.691 3.127,1.368 4.292,.414 .445-3.212-4.993-5.233-4.292-.414zm72.916-.278c1.396,.615 3.379,2.892 5.154,1.697-1.915-1.229-2.677-3.616-4.735-4.7-.132,1.007-.671,1.613-.419,3.003zm34.73-3.134c-4.27,1.602-8.348,3.393-11.128,6.477-.035,1.758-.07,3.515 .448,4.716 .964,.606 2.825,.307 3.007,1.704-3.552,.749-7.077,1.52-8.991,3.896 2.604-.328 4.16,.401 5.581,1.264 .845-.299-.115-2.391 .849-2.575 2.991-.719 3.351,1.215 5.153,1.695 .871-.67 2.836-1.67 3.857-.873-.23,1.338-1.293,1.852-1.705,3.011 .847,1.875 .808,4.639 3.45,4.704 1.148-1.771-.304-5.671 .401-6.864 1.569-.144 1.709,1.148 2.152,2.138 5.288-.45 7.641,2.062 7.747,6.833 1.813,.658-.103-2.382 1.71-1.723 1.541,1.557-.174,3.775 .878,5.573 1.403-.601 2.884-1.126 3.421-2.586-.557-.873-2.08-.773-1.725-2.567 .611-.105 .722-.709 1.285-.862 6.43,5.318 12.889-4.018 9.395-10.33-2.991,2.298-9.925,.688-11.562,4.332-.583,1.763 1.047,3.5 .016,4.29-1.396-.747-2.153-2.136-3.014-3.419-2.377-.047-4.731-.115-5.157-2.125 7.965,2.768 13.31-6.276 8.106-11.184-3.709,2.897-10.131,.286-11.13,5.62-.389,2.072 2.023,2.735 .016,4.29-1.483-.229-1.615-1.817-3.01-2.135-1.704,1.119-5.482,2.135-6.436-.405 .206-.506 .452-.974 .854-1.29 7.24,4.061 9.89-7.47 5.51-11.605zm34.32,.726c-.337,3.209 1.543,4.187 3.45,5.135 1.663-.913 3.203-1.948 3.847-3.876-1.77-2.608-4.54-1.548-7.3-1.259zm-93.496,2.93c.121,.883 1.899,.094 1.721,1.281-.723,.848-2.475,.679-2.135,2.58 4.674,1.632 8.337-1.009 8.988-4.751-2.539-1.513-7.865-3.806-8.574,.89zm100.81,2.619c1.885,1.395 .431,4.248 1.736,5.571 1.809,.084 1.503-1.927 2.564-2.585 2.513,.501 2.659-1.347 4.282-1.731 1.76-8.448-9.35-9.381-8.58-1.255zm-63.906,.673c-1.254-2.754-4.077-3.928-6.882-5.121-.796,3.042 4.466,5.348 6.882,5.121zm-44.614-1.546c-.07,1.506 1.454,1.405 1.724,2.565 1.594-.431 1.119-.92 3.004-.44-.337-1.614 .513-2.051 .414-3.433-1.862,.155-2.396-1.028-3.864-1.272-.569,.719 .166,2.73-1.278,2.58zm-30.881,.119c1.304,.234 2.913,1.581 4.29,.41 .063-1.066-.679-1.323-.866-2.14-1.567,.153-3.387,.057-3.424,1.73zm-3.854,1.729c2.646,.412 2.517-2.875-.01-2.574-.584,.55-.577,2.026 .01,2.574zm49.769,3.671c2.967-.19 2.978-3.312 2.978-6.445-2.606,.346-3.99,3.902-2.978,6.445zm85.326-6.76c-1.386,2.192-4.604,1.222-5.131,3.88-.583,2.936 2.721,5.96 6.878,4.264 .92-2.613 .63-7.448-1.75-8.144zm-141.95,4.831c2.251-.332 4.26-.9 4.707-3.021-2.753-1.939-6.939,.358-4.707,3.021zm31.747,1.595c2.529,2.44 7.768,.831 9-1.75-.82-1.428-2.744,.754-3.433-.416 .098-1.328 2.133-.733 1.707-2.581-4.001-1.117-7.253,.665-7.274,4.747zm48.043,.674c1.594,1.134 4.113-.459 5.142-1.306-1.172-.186-4.639-.429-5.142,1.306zm-1.295-2.138c2.257,.595 5.878,.519 6.858-.885-1.419-1.594-4.593-.836-6.867-1.26-1.688-.317-3.074-2.054-4.292-.843 .754,.705 2.426,2.492 4.301,2.988zm46.747-1.466c.747,.029 1.336-.102 1.716-.437-.056-1.091-.632-1.662-1.725-1.708-.01,.715 0,1.431 0,2.145zm2.59,5.136c4.519,.498 5.973-2.049 6.844-5.173-2.83-4.302-9.03-1.609-6.84,5.173zm-114.1-1.281c.995-.435 1.377-1.481 1.274-3.007-1.621-.517-2.429-1.857-4.723-1.697 .195,.957 1.04,4.582 3.449,4.704zm64.774,1.47c-.754,3.525-4.123,4.458-5.979,6.887 6.63,5.074 15.198-1.232 17.997-4.359 .066-3.067 1.208-5.067 1.255-8.154-4.195,2.091-7.512,6.399-13.272,5.626zm-77.211-.994c.55,.593 2.026,.255 2.576,.85 .744-1.053 3.201-3.714 1.271-4.725-.941,1.633-3.992,1.167-3.847,3.875zm5.15,.84c1.382,.813 2.546,.889 4.292,.412 .085-2.67-.429-4.735-2.593-5.138-1.282,.867-1.882,2.404-1.699,4.726zm18.867-1.36c1.007,.134 1.614,.672 3.005,.417 1.101,1.904 .742,5.28 3.024,5.995 1.679-3.523-2.064-6.423-.894-9.433-2.09-.375-5.343-.647-5.135,3.021zm33.453-.984c.107,2.82 5.489,2.799 5.576-.021-.584-2.797-4.228-1.148-5.576,.021zm89.243,8.238c.162-1.307-1.135-2.18 .421-2.576 .994,.185 1.153,1.892 2.146,.85 .422-4.875-.824-8.068-4.751-8.559 .21,3.97-2.93,9.775 2.18,10.285zm-106.8-.88c3.478,.61 7.897-5.872 4.258-7.737-1.695,.026 .085,3.503-2.133,3.009-.693-1.258 .298-1.624-.441-3.43-.592,.023-.942-.197-1.29-.422-1.702,1.765-2.522,6.596-.394,8.58zm8.984-5.611c-1.389-.239-2.157,.138-2.569,.867-.359,3.075 3.314,3.451 5.157,2.984 1.07-1.879 .421-3.022 .408-5.578-1.029-.543-1.584-1.562-3.436-1.274-.205,1.355 .781,1.512 .44,3.001zm102.11,4.33c1.348,.206 1.127-1.483 2.143-.438 .465,1.602-1.061,1.227-.848,2.578 3.398-1.115 6.545-4.035 5.547-8.169-2.96-.858-6.6,1.744-6.84,6.029zm-123.97-1.244c-1.768-3.096-6.063-3.649-10.312-4.248-2.347,7.243 9.568,14.587 10.312,4.248zm108.08-2.557c-.002-.714-.005-1.429-.007-2.143-.572,.003-1.144,.005-1.716,.007-.34,1.638 .92,1.656 1.73,2.136zm-81.912,3.316c1.936-.073 1.277-2.721 1.7-4.297-.548-.019-.595-.546-1.288-.424-.792,.925-.277,3.145-.412,4.721zm2.999-.869c.721,.618 4.117,2.473 4.721,.41-1.101-1.616-3.208-2.222-4.304-3.843-.662,.625-.369,2.195-.417,3.433zm-45.036-.259c.55,1.026 1.403,1.742 3.007,1.704 .735-.695 1.058-1.798 .845-3.435-1.513-1.136-3.873-.844-3.852,1.731zm20.165,2.069c1.437,1.138 3.807,1.332 6.44,1.262 .358-2.658-1.374-3.209-2.162-4.71-3.063-.478-3.914,1.243-4.278,3.448zm129.53-.494c.89-1.113 .466-3.658-1.301-3.426-1.28,1.344-.68,3.197 1.3,3.426zm-21.45-1.205c.499,.358 1.151,.56 2.146,.42 .53-2.571-2.26-2.496-2.15-.42zm-141.54,1.396c1.44,3.424 10.596,5.079 12.873,1.239-.34-4.325-11.216-4.788-12.873-1.239zm142.86,7.177c.61-1.244 2.93-.794 3.422-2.157-.639-.504-1.918-.363-1.723-1.71 .623-.235 2.219,.492 2.144-.435-1.927-2.365-5.588-2.981-9.021-3.827-.87,3.668 2,7.12 5.18,8.129zm18.01,.362c2.412,.244 4.501-2.719 3.841-5.163-1.145-4.251-6.018-1.332-8.146,.888 3.02,.902 1.28,3.964 4.31,4.275zm-110.65,1.277c.471,1.449 2.626,3.154 5.157,2.984 4.849-.326 4.616-5.707 6.396-9.89-6.61-3.899-13.553,.78-11.553,6.906zm-34.769-6.73c-.216,3.412 1.75,10.533 7.323,8.123 1.729-4.976-3.088-9.156-7.323-8.123zm62.213,4.91c-4.78-.46-8.782-5.703-13.748-5.523-.792,1.349-1.857,3.244-.837,5.152 2.283,.38 3.557-.635 5.574-.45 5.536,.506 10.756,7.29 14.156,.375-2.212-.596-3.448,.612-5.145,.446zm-44.199-4.978c-2.878,.988-5.042,2.686-7.705,3.891-.89,3.106-2.386,5.607-3.398,8.59 .508,.638 1.083,1.208 1.723,1.709 1.695-.241 1.812-2.23 2.559-3.44 3.329-5.379 8.074-9.63 15.42-6.063 .829-3.631-5.483-3.619-8.599-4.687zm14.184,7.667c.192,2.958-1.705,6.042-.82,9.868 3.142-1.316 2.337-6.939 2.105-10.732-.187-3.03 .496-6.958-3.03-6.85-.285,0-.571,.002-.857,.003-.251,2.721 2.4,4.568 2.602,7.711zm48.873-6.62c-3.27-2.999-9.354-.691-9.851,3.47-.767,6.396 6.277,5.672 9.897,8.54 .43-4.957 3.35-8.894-.05-12.01zm3.43-.441c.053,3.82 2.501,5.229 6.026,5.553 1.24-3.24-2.35-7.272-6.03-5.553zm-55.743,4.929c.216,.752-.129,2.321 .014,3.431 .677,5.312 .652,10.709-2.521,14.165 2.504,.436 3.433-2.702 3.84-5.591 1.043-7.401 1.363-15.006-3.494-16.714-.284,1.698 1.556,2.604 2.161,4.709zm105.08-1.686c2.279,1.194 4.264,.489 4.277-2.59-1.897,.476-2.135-.719-3.435-.845-.27,1.524-1.6,1.989-.84,3.435zm-148.82,3.569c2.182-.113 2.714-1.864 4.278-2.588 .316-.686 2.102,.089 1.712-1.295-2.734-4.06-9.25-.928-5.99,3.883zm8.566-3.035c2.449,.403 2.993,2.726 5.588,2.98 .241-2.539-.436-4.153-.881-6-2.091,.486-4.185,.972-4.707,3.02zm102.95,2.18c2.237,1.206 5.009-.321 5.139-2.592-1.23-3.229-5.62-.834-5.14,2.592zm-83.195,3.749c1.831,.67 2.682-2.927 4.705-3.449 2.161,.292 2.986-.74 5.145-.447-2.068-5.189-10.022,.881-9.85,3.896zm127.38-2.629c-2.042,.62-1.073-1.791-3.009-1.276-3.351,3.049 .488,7.836 4.319,7.703 4.889-1.771 2.587-9.437-2.182-9.855-.14,1.314 2.44,2.088 .87,3.428zm-159.56,.607c.976,.205 2.194,.843 3.002-.01 .763-3.297-3.679-3.157-3.002,.01zm147.12,1.156c.824,4.19 7.844,1.902 6.423-2.599-1.319-.314-.818,1.182-2.142,.868-.485-1.349-.042-.972-.009-2.574-3.16-.153-4.62,2.518-4.27,4.305zm-129.95,3.497c-.555-5.375-4.306-6.58-9.034-6.828-1.691,1.454-2.18,4.101-3.838,5.59 .232,1.199 .637,2.227 .871,3.428 1.761,.52 3.435,1.131 3.444,3.419 2.494,1.029 3.25-1.026 6.433-.456 .172-2.247 1.639-3.214 2.124-5.153zm19.315,2.929c-1.768,.12-2.67-2.164-3.866-1.272-.405,1.736-1.224,3.062-1.698,4.725 1.806,3.719 8.013,7.128 12.88,3.812 1.641-4.299 5.634-13.629 .365-17.158-.386,5.457-3.945,7.763-7.681,9.893zm42.862-7.456c-3.515-.622-6.805-3.758-11.159-2.102 1.831,2.345 8.674,7.062 11.159,2.102zm65.631,.18c.089-.481 .475-.668 .854-.86-.193-1.241-.911-1.953-2.152-2.136-1.11,1.236-.03,2.889 1.3,2.996zm-34.32-1.585c-.058,.744-1.382,3.519 .441,3.43 1.172-.721-.745-2.063 .847-2.576 1.339-.309 1.857,2.391 3.007,.845-.943-.915-1.562-2.155-3.438-2.131-.1,.334-.36,.5-.86,.432zm54.05,1.939c.896,.242 1.227,1.058 2.576,.846 2.18-3.015-3.11-5.044-2.58-.846zm-61.75,4.096c2.346-1.377 5.361-2.087 5.984-5.171-3.69-2.571-8.76,1.599-5.98,5.171zm28.29-3.539c2.208,2.888 7.447,6.815 12.021,3.386 .86-7.882-8.38-6.17-12.02-3.386zm-91.362-1.368c-.296,1.485 1.508,1.532 2.147,.85 .295-1.487-1.509-1.533-2.147-.85zm77.212,1.422c1.054,1.319 5.696,3.635 6.867,.831 .92-1.936-6.11-4.294-6.87-.831zm-83.201,2.888c2.184-.395 3.29-1.862 3.847-3.875-2.462,.123-3.743,1.416-3.847,3.875zm27.041,5.044c4.854,3.519 10.833-.18 12.852-4.337-2.883-5.972-16.346-6.4-12.852,4.337zm23.579-3.091c.49-1.911 1.291-4.653-.023-6.006-.715,.002-1.431,.005-2.145,.009-1.665,1.976-.413,5.749 2.168,5.997zm-66.047,1.537c3.219,.062 5.297-1.009 5.561-3.879-1.064-1.654-3.187-2.245-5.159-2.984-.885,1.543-.205,4.641-.402,6.863zm-20.165-1.208c1.134,1.45 3.469,2.972 5.584,2.124-.879-1.986 .396-6.142-1.314-7.287-2.43,.723-3.741,2.555-4.27,5.163zm93.066-2.927c.2-3.981-6.184-2.803-5.567,2.164 2.671,1.026 5.47-.302 5.567-2.164zm-58.279,14.803c.327,1.319-1.173,.83-.848,2.148 .813,1.905 2.565,2.869 4.304,3.845 1.723-1.658 3.545-1.523 6.428-1.311 5.475-5.535 13.215-8.821 12.36-20.637-.59,.021-.942-.197-1.288-.426-.506,11.795-8.582,17.719-20.956,16.381zm79.296-15.313c.761-.101 2.15,.424 1.712-.866-.572,.003-1.143,.005-1.716,.007 0,.287 0,.573 .01,.859zm-34.737,1.849c1.292,.419 1.918,1.509 3.864,1.271 .801-1.458-1.148-3.276-3.016-3.419-.179,.818-1.221,.78-.848,2.148zm40.327,2.847c1.255-.116 1.321,.966 2.578,.849 .575-.995 1.719-1.43 1.273-3.437-2.419-.433-3.61-2.105-6.016-2.55-.64,1.546 2.38,2.643 2.17,5.138zm9-.891c1.513,1.346 2.002,3.725 5.161,3.412 5.3-3.905-5-12.118-5.16-3.412zm19.31,1.213c.01,3.536-2.762,6.039-3.395,9.449 3.125-.195 4.56,3.326 6.443,2.978 3.397-5.165 .313-14.808-3.926-17.57-1.21,2.154 .87,3.127 .88,5.143zm-39.02,1.864c2.518-.636 3.345-2.948 3.409-6.018-3.56-2.14-6.6,4.005-3.41,6.018zm45.01-4.889c.82,1.315 1.174,1.822 3.007,1.274 1.52-2.41-2.74-4.384-3.01-1.274zm-99.462,11.529c4.258-.9 6.309-8.072 4.243-12.455-1.397,4.572-1.816,8.398-4.243,12.455zm42.012-6.164c.222,1.794-.998,3.825-.404,6.435 1.202,.225 2.231,.621 3.435,.847 1.455-.552 1.616-2.386 3.421-2.589 1.774,1.381 8.918,2.521 9.864-.466-1.809-1.335-6.962,.702-8.156-1.255 1.669-2.616 8.554,2.024 8.14-3.033-2.588,.177-4.799,1.805-6.437-.404-.45-.979-.282-2.589-.87-3.428-1.603,.258-.583,3.123-2.562,3.01-.665-.619-.386-2.193-.439-3.429-4.474-.308-.102,8.164-3.829,8.594-.479-3.386 1.546-11.497-4.33-10.708-.026,2.705 1.89,4.074 2.18,6.426zm20.59,.349c.807-2.094 .807-6.738-1.741-6.855-2.95,.886-2.07,7.7 1.74,6.855zm9.02,2.541c2.61-1.656 .834-5.1 1.255-9.013-3.94,.654-5.02,7.551-1.26,9.013zm-94.814-4.356c1.225,.046 1.169-3.361 .416-3.862-1.404,.32-2.786,3.447-.416,3.862zm43.756,1.119c2.356,1.707 6.453,.972 7.283-2.173-2.525-1.521-7.67-2.993-7.283,2.173zm79.368,4.416c1.272-2.137-.135-7.886-3.037-8.566 1.1,2.766 1.35,6.394 3.04,8.566zm8.55-7.325c-.183,2.913 1.015,4.433 3.021,5.136 1.355-1.493 2.111-5.699-.454-6.431-1.31-.016-1.67,.911-2.57,1.295zm-136.81,4.381c1.623,1.775 5.999,5.698 7.737,4.261-3.513-1.627-3.11-7.197-6.894-8.552-.299,1.413-.679,2.745-.843,4.291zm111.08-3.854c-1.162,1.41-1.134,4.003-2.553,5.157-2.197-.082-2.906-1.664-5.154-1.696-1,1.713-.938,4.481-3.413,4.732-2.676-.604-1.564-5.026-4.737-5.131-.199,1.956 .817,4.742 1.742,6.857 .876,2.007 2.085,4.869 4.309,5.131 2.026-5.274 6.56-6.662 14.134-5.63 2.148-2.567 4.342-5.091 4.25-9.882-2.05-.317-5.4,1.56-8.58,.462zm-50.604,3.195c.14-1.574-2.462-.388-1.726-2.565 1.367-.374 1.33,.67 2.149,.848-.062-1.371-.979-1.883-2.58-1.705-1.32,1.359-.5,3.753 2.157,3.422zm1.709-1.722c.887,1.836 2.49,2.946 4.731,3.414 4.444-2.919-3.226-8.003-4.731-3.414zm-66.912,.254c-.199,1.349 .542,1.752 1.295,2.14 .38-.76 1.74-.552 1.277-2.148-.549-.585-2.025-.579-2.572,.008zm135.12,1.63c1.49,1.514 .843,5.179 3.026,5.995 3.661-1.641 1.745-7.346-.892-8.574-.84,.73-1.83,1.322-2.14,2.579zm-153.99-1.129c.003,.572 .005,1.145 .007,1.716 1.239,1.104 2.892,.027 2.999-1.297-.608-.647-2.09-1.347-3.006-.419zm11.168,3.819c.967,1.609 2.779,2.367 5.583,2.124 1.195-1.162 1.726-4.058 .836-6.009-1.902-.079-5.185,1.904-6.419,3.885zm-6.877-3.405c-2.218,1.84-1.41,7.128 1.744,7.285 1.601-1.117 3.938-1.505 3.845-4.304-1.99-.866-2.89-2.829-5.589-2.981zm78.505,3.132c-.225-3.557-6.542-3.162-5.995,2.168 2.656,2.501 6.152,.284 5.995-2.168zm-24.024-1.625c-4.058,5.01 1.567,11.528 6.047,11.558 5.531-4.137 1.636-13.762-6.047-11.558zm9.871,2.109c.161,3.055 6.215,3.705 6.006-.453-2.119-3.197-6.17-2.699-6.006,.453zm15.009-1.773c-.328,3.056 .998,4.444 3.448,4.703 2.061-2.272-.824-7.059-3.448-4.703zm28.326,3.752c.53,2.037 4.552,2.185 6.007,.834-.003-1-.009-2.002-.012-3.002-1.65-2.095-6.49-1.47-6,2.168zm-81.491,2.454c-3.482-1.372-4.997-4.723-9.454-5.112-1.266,5.773 6.871,9.927 9.454,5.112zm-18.877-1.215c-.152-.997-.285-2.009-1.721-1.709-1.332,1.188 .544,3.049 1.721,1.709zm.431,.428c-.241,3.688 2.237,4.634 4.311,5.988 1.572-3.265-1.527-8.373-4.311-5.988zm6.03,6.84c3.276-.802 3.737-6.241 .401-7.294-.286,.002-.572,.002-.857,.004 .243,2.984 .136,5.288 .456,7.29zm34.783,10.59c7.704-.938 6.404-13.784-.906-12.435-1.489,.273-4.972,4.488-2.546,6.872 1.227,1.205 4.649,1.154 4.71-1.734-.431-1.816-2.609,.621-2.576-1.275 .714-2.959 4.372-.17 4.293,1.699-1.36,6.035-8.868,3.467-9.011-1.253-.077-2.492 2.812-5.705 5.125-6.024 5.393-.747 6.86,4.351 9.89,6.824-1.956,3.1-.475,5.15 .461,8.15 .136,2.271-2.227,2.06-1.696,4.723-.201,1.925 1.522,1.909 1.728,3.424-.742,1.259-1.555,2.447-1.7,4.297 .183,1.826 2.192,1.809 2.159,3.852-.394,2.028-1.857,3.001-2.124,5.156 .346,1.953 1.632,2.169 1.73,3.852 .104,1.818-2.482,3.262-1.267,5.152 2.178,1.038 7.71,.639 9.866-.037-.161-4.157-2.354-6.492-.038-9.864-.311-1.553-1.504-2.217-1.729-3.855 .902-2.173 1.783-3.659 1.693-6.009-.058-1.443-1.269-2.271-1.302-3.855-.043-2.061 1.553-2.477 1.269-4.725-.11-1.756-1.466-2.255-1.731-3.854 .292-1.563 1.731-1.984 1.702-3.865-.955-1.048-1.695-2.312-2.159-3.853 .71-.75 1.817-5.08-.022-5.576-1.771,1.658-1.948,4.903-5.126,5.167-2.958-2.33-5.997-4.578-7.752-8.119-13.9-2.81-15.479,18.681-2.941,17.151zm18.385-15.94c.41,3.317 1.733,5.714 2.604,8.567-.052,1.514-1.218,1.924-1.272,3.437-.028,1.607 1.854,1.29 1.298,3.426 .422,2.128-1.134,2.294-1.271,3.866 2.148,3.813 1.096,6.06 .469,10.721-.157,1.594 1.744,1.114 1.299,2.997-.36,1.639-1.417,2.585-1.7,4.297 .311,1.552 1.668,2.051 1.731,3.854-.569,1.998-2.213,2.933-1.693,6.011 3.283,.763 5.479,.138 9.438,.393 .742-3-.623-3.211-.883-6 1.258-2.463 1.152-7.039-.462-9.006 2.419-2.337 1.541-6.021-.033-8.58 1.738-2.755 1.213-5.71-.459-8.146 2.831-2.224 .929-5.232 .826-8.152-.089-2.588 1.62-6.007-.032-8.58-3.924,.914-6.844-1.335-9.86,.902zm81.059-1.595c-1.579,1.172-.492,3.633 1.73,3.425 1.28-.876 .53-3.672-1.73-3.425zm-68.147,13.555c.066,1.655 1.457,1.978 1.302,3.855-.222,1.63-.634,3.075-1.271,4.296 3.024,2.963-.587,7.016 .038,10.293 .235,1.229 1.813,.944 1.299,2.567-2.026,4.787 1.003,9.477-.803,14.587 3.306-.495 6.178,.882 8.576-.033-1.426-5.282 1.448-10.489-1.77-14.576 2.523-2.203 1.486-6.477-.035-9.008 2.605-1.827 1.661-6.519-.033-8.578 .829-1.029 2.152-1.568 2.563-3.012-.073-1.938-1.511-2.496-1.732-4.283 1.728-1.988 1.987-5.433 2.541-8.589-2.894,.304-5.838-.642-10.725-.387-.64,5.479 2.762,8.949 .048,12.869zm24.007-2.665c-.004,1.278 2.195,5.622 3.885,6.42 2.096,.989 4.426,.282 6.862-.026 1.769-1.807 2.086-5.053 4.266-6.449-.302-5.962-2.829-10.674-9.472-8.973-3.529-2.087-11.246-.656-16.301-.366-.738,1.973-.108,5.304-1.689,6.44 .856,.57 1.862,.991 2.151,2.136-3.04,2.259-.648,5.385-.827,8.154-.096,1.508-1.894,2.126-1.271,3.862-.321,2.049 1.535,1.898 1.302,3.857-1.908,1.918-1.44,6.89-.395,9.438-1.365,2.291-.927,6.625 .035,9.007-.394,1.461-1.19,2.519-.838,4.72 2.949,.511 6.565,.371 9.435-.035 .552-1.326-1.925-2.796-1.734-5.14 2.647-1.986 2.382-6.044 .395-8.58 1.555-2.854 1.373-6.135-.033-9.008 .231-1.481 1.525-1.905 1.272-3.865 .169-2.035-1.627-2.093-1.73-3.854 2.564-2.554 1.851-4.922 .824-8.582 3.688-2.317 4.834-7.201 10.698-6.475 5.516,.683 8.198,12.02-1.674,10.729-1.721-.801-2.738-5.351-.453-6.433 2.19-.341 3.546,.158 3.012,2.563-.852,1.556-2.187-2.504-2.574,.009-1.411,1.956 1.057,3.064 3.442,2.561 1.994-1.501 1.792-4.721 .402-6.864-4.63-2.845-8.99,1.552-9,4.769zm18.43-4.359c1.257-3.452 6.629-2.822 8.556-5.609-4.69-.229-9.09,2.09-8.56,5.609zm12.85-5.195c1.521,2.2 3.922,3.513 6.026,5.124 .22-.638 .63-1.082 .852-1.72-1.57-1.912-3.75-4.359-6.88-3.404zm-131.67,4.361c1.248-.613 1.904-1.815 1.702-3.866-1.287,.006-2.573,.009-3.861,.015-.25,2.263 .394,3.621 2.159,3.851zm12.871,.808c1.251,.826 3.205-.61 4.714-.874-.358-4.357-4.393-1.758-4.714,.874zm110.66-1.707c2.259-.803 4.426,.631 7.29-.457-.82-3.233-6.31-1.238-7.29,.457zm-115.8,2.586c-1.729-1.129-2.684-3.039-5.587-2.982-2.12,3.026 4.43,5.925 5.587,2.982zm134.67-3.516c-.803,1.792-4.04,3.619-4.266,6.021-.298,3.169 1.981,4.83 5.17,5.986 2.721-2.001 4.186-5.248 4.683-9.456-1.76-.942-2.47-2.958-5.58-2.551zm-116.65,3.446c-.551-.848-3.096-2.336-3.869-2.129-4.184,1.124-.869,11.03 2.192,12.001 2.163-1.64 3.509-7.05 1.677-9.871zm110.23,.868c-.725-1.855-2.953-2.19-4.729-2.984-1.36,2.342 3.34,3.361 4.73,2.984zm-12.01-2.099c-.309,1.173 .855,.86 .862,1.712 1.208-.086 1.825-.752 1.709-2.152-1.32-.304-1.56,.447-2.57,.44zm-111.51,2.998c.199,2.348 5.921,1.337 6.003-.452-.711-2.885-4.758-.908-6.003,.452zm18.867-1.787c-2.138,.145-4.262,5.082-3.829,8.164 .375,2.676 3.002,4.509 4.309,5.56 5.229-1.34 4.473-14.058-.48-13.721zm-23.155,1.804c.196,1.379 .664,2.487 2.58,2.135-.357-1.212 .602-1.114 .422-2.147-1.176-.834-1.833-.832-3.002,.01zm113.23-1.29c-.395,1.031-1.717,1.142-1.273,3.008 2.373,1.34 5.539,1.881 9.443,1.681-1.54-2.761-5.47-3.107-8.17-4.687zm-118.79,6.027c2.004,.359 3.396-1.728 4.276-3.448-4.743-3.544-9.239,2.558-4.276,3.448zm113.69,7.29c4.53,.742 6.557-11.534 .822-9.869-3.24,.94-4.36,9.29-.82,9.87zm-105.54-8.18c-.169,2.979-1.318,6.681 2.171,6.854 2.886-1.51 1.066-6.58-2.171-6.85zm8.581,.83c-.482-3.005-3.667-1.774-6.44-1.691-.564,3.34 5.683,4.85 6.44,1.69zm-14.569,3.05c.695,.735 1.796,1.06 3.435,.847 .653-1.363 1.894-3.884 .834-5.58-2.793,.22-4.088,1.93-4.269,4.73zm126.09-1.33c.094,2.678 2.771,4.262 6.45,4.266 .117-.882 1.144-.862 1.711-1.295 1.22-7.5-8.36-8.815-8.16-2.97zm-4.69,6.88c1.707,.435 2.981-.494 4.716-.446-.838-2.599-.647-6.236-2.604-7.709-9.27-2.17-6.97,6.92-2.12,8.16zm-109.37,.41c2.225,.437 2.658,.016 4.285-.872 3.492-8.92-10.097-4.78-4.285,.87zm7.291-.02c1.901,.462 2.129-.735 3.428-.871-.003-1.002-.009-2.002-.012-3.004-2.11-3.25-6.07,1.37-3.416,3.87zm25,32.07c2.012,1.474 5.007,.356 8.15,.398 9.618,.129 24.256-.124 36.459-.14 3.062-.006 7.359,1.9 9.434-.894 .263-4.017-4.252-2.981-6.877-2.976-15.596,.029-33.269,.295-45.466-.257-1.279,.58-2.024,1.69-1.694,3.87z"/>
</g>
</svg>
