<svg xmlns="http://www.w3.org/2000/svg" viewBox="0 0 640 480" xmlns:xlink="http://www.w3.org/1999/xlink">
<defs>
<radialGradient cx="-162.7" cy="23.485" gradientTransform="matrix(.58209 .26459 -.16965 .37322 498.35 291.59)" id="radialGradient4586-1" r="45.661" gradientUnits="userSpaceOnUse">
<stop offset="0" stop-color="#fb8b00"/>
<stop offset="1" stop-color="#fd3301"/>
</radialGradient>
<radialGradient cx="-275.88" cy="-75.959" gradientTransform="matrix(.21481 .27619 -.49673 .38634 346.29 297.61)" id="radialGradient4598-9" r="118.11" gradientUnits="userSpaceOnUse">
<stop offset="0" stop-color="#369"/>
<stop offset="1" stop-color="#036"/>
</radialGradient>
<radialGradient cx="-416.44" cy="-73.864" gradientTransform="matrix(.11263 .58362 -.53566 .10337 239.07 450)" id="radialGradient4601-2" r="117.99" gradientUnits="userSpaceOnUse">
<stop offset="0" stop-color="#fb8b00"/>
<stop offset="1" stop-color="#fd3301"/>
</radialGradient>
</defs>
<path fill="#333" d="m194.04,309.38c-1.683,.027-3.3783,.1678-5.0599,.3419 8.7289,1.0759 16.701,4.9776 21.09,11.136 7.3916,10.374 1.8597,23.109-12.385,28.432-14.245,5.3228-31.78,1.2285-39.172-9.1458-1.5951-2.2393-2.5754-4.6079-3.0076-6.9676-.8565,5.1144 .4164,10.441 4.2111,15.367 10.18,13.215 34.346,18.445 53.963,11.665 19.617-6.7806 27.271-22.994 17.091-36.208-7.317-9.4985-21.848-14.871-36.731-14.62z"/>
<path fill="url(#radialGradient4601-2)" d="m284.29,308.07-58.27-1.2567c-3.9144-22.922-72.714-44.162-90.79,4.1638l-43.369,9.0405c-3.8808,.3647-5.6769-3.0002-6.2711-8.5142l-2.609-127.76c-1.1691-6.5223 3.1015-7.2073 7.2791-7.9922 47.619-20.027 137.56-30.546 205.33-22.165z"/>
<path fill="url(#radialGradient4598-9)" d="m292.95,317 90.208,12.362c21.312-46.209 63.111-33.978 96.611,8.9909l26.19,12.362v-62.936l-67.511-33.153-52.379,1.124-2.3282-78.669 32.592-1.124-4.315-20.269c-44.276,2.4476-74.243-.6317-108.35-2.1114z"/>
<path fill="#333" d="m131.47,208.26h86.082c6.415,0 9.4709,5.6525 9.8337,11.18l2.6477,40.306c.4261,6.4877-5.4204,11.734-12.153,11.734h-84.936c-6.7329,0-12.008-5.235-12.153-11.734l-.9019-40.306c-.1382-6.1925 5.1644-11.18 11.58-11.18z"/>
<path fill="#fb8b00" d="m107.3,202.93 129.78-1.6857-5.8198-7.8669s-4.2341-1.1888-6.4023-1.124c-35.294,1.0598-71.925,1.4336-112.32,2.2474-1.3988,.0269-2.3277,3.372-2.3277,3.372z"/>
<path fill="#cccccf" d="m319.07,186.07 38.053-2.6123c7.2638-.4982 13.144,5.6604 13.144,12.691v43.901c0,7.0308-5.8849,13.241-13.144,12.691l-34.446-2.6123c-6.7117-.5088-12.35-5.236-12.153-11.734l1.3311-43.77c.1975-6.4982 .499-8.0946 7.2145-8.5555z"/>
<g fill="#666">
<path d="m394.51,252.38c-3.4963-.8195-6.1736-2.5875-5.8203-7.8669-.3878-18.543-.7755-37.087-1.1638-55.63 .3154-3.6594-1.1919-8.8267 6.4017-6.4623h12.222c6.1954,4.8048 7.9899,12.66 10.093,19.665 4.4505,13.811 12.507,27.922 17.061,41.701 .3874,4.4818-2.5982,6.9892-7.6368,8.4773-9.6996-.0932-21.457,.2102-31.157,.1162z"/>
<path d="m444.27,249.85c-2.6016,1.585-4.5686-.5073-6.4017-3.372 0,0-18.301-56.752-19.497-58.44-3.783-5.3383 2.9096-7.024 2.9096-7.024l10.476,1.1234c4.0153-.143 5.8296,2.5474 7.5655,5.3383l14.841,48.326c2.1666,6.5994 .7703,8.3828-.8729,9.8332z"/>
</g>
<path fill="#aaa" d="m461.58,240.37c-2.2237,1.3604-3.9048-.4351-5.4723-2.8934 0,0-15.642-48.709-16.664-50.157-3.2335-4.5819 2.4872-6.0289 2.4872-6.0289l8.9542,.965c3.4318-.1226 3.3369-.1984 4.8207,2.1973l14.331,43.86c1.8521,5.6643 .6578,7.1946-.7463,8.4398z"/>
<path fill="#fd3301" d="m422.14,175.72 31.436-3.9655-1.5962-10.917-35.069-2.023z"/>
<path fill="#d40000" d="m454.16,157.13v-5.0572l-41.604-13.109 8.4716,13.518z"/>
<path fill="#f44800" d="m413.66,152.16-5.7616-13.293c-104.96,2.53-203.12-19.12-319.25,15.8l-10.462,17.75c128.96-41.789 229.3-16.696 335.47-20.257z"/>
<path fill="url(#radialGradient4586-1)" d="m442.23,252.66 33.464-16.295 48.888,22.758c-.4072,14.756-1.2791,28.975-16.878,26.129z"/>
<path fill="#036" d="m508.29,339.48 .291-51.135c19.404,2.5101 15.672-24.773 19.497-23.039l-3.7831,41.301z"/>
<path fill="#013397" d="m512.07,339.76 8.7299-1.4046 15.423-36.806-6.6927-4.2143v5.3383z"/>
<path fill="#333" d="m506.54,344.53 .5819,16.858 11.64-5.3383 14.259-42.987-1.4548-8.4292-14.841,36.525z"/>
<g fill="#eee">
<path d="m316.53,283.1c-2.6322,2.2968-4.6591-3.8554-8.0783-3.6173-3.4192,.2381-4.6497,6.6172-7.55,4.7061-2.8997-1.9117 2.0629-5.8309 .7899-9.1622-1.273-3.3307-7.4481-2.5852-6.6078-6.0629 .8403-3.4783 5.9341,.252 8.5669-2.0448 2.6322-2.2968 .0464-8.2151 3.4656-8.4532 3.4192-.2381 1.6049,5.9867 4.5047,7.8978 2.8997,1.9117 7.4771-2.4921 8.7496,.8392 1.273,3.3307-4.9424,3.4476-5.7827,6.9259-.8403,3.4783 4.5748,6.6746 1.942,8.9714z"/>
<path d="m351.45,289.84c-2.6328,2.2968-4.6596-3.856-8.0788-3.6179-3.4192,.2381-4.6497,6.6178-7.5494,4.7061s2.0629-5.8309 .7899-9.1622c-1.273-3.3307-7.4487-2.5846-6.6083-6.0629 .8403-3.4783 5.9347,.252 8.5669-2.0448s.0463-8.2151 3.4656-8.4532c3.4192-.2381 1.6049,5.9867 4.5047,7.8984 2.8997,1.9111 7.4771-2.4921 8.7501,.8386s-4.9424,3.4482-5.7827,6.9259c-.8403,3.4783 4.5742,6.6751 1.942,8.972z"/>
<path d="m398.01,287.59c-2.6328,2.2968-4.6596-3.8554-8.0788-3.6173-3.4192,.2381-4.6497,6.6172-7.5494,4.7056-2.8997-1.9111 2.0629-5.8309 .7899-9.1616s-7.4486-2.5852-6.6083-6.0629c.8403-3.4783 5.9347,.252 8.5669-2.0448s.0464-8.2151 3.4656-8.4532c3.4192-.2381 1.6049,5.9867 4.5047,7.8978 2.8998,1.9117 7.4771-2.4921 8.7501,.8392 1.273,3.3307-4.9424,3.4476-5.7827,6.9259-.8403,3.4783 4.5742,6.6746 1.942,8.9714z"/>
</g>
<path fill="#333" d="m433.65,322.48c-1.6824,.027-3.3783,.1684-5.0599,.3425 8.7295,1.0753 16.702,4.977 21.09,11.136 7.3922,10.374 1.8597,23.109-12.385,28.432-14.245,5.3228-31.78,1.2285-39.172-9.1458-1.5957-2.2387-2.576-4.6079-3.0082-6.9676-.8565,5.1144 .4164,10.441 4.2111,15.367 10.18,13.215 34.346,18.445 53.963,11.665 19.617-6.7801 27.271-22.994 17.091-36.208-7.317-9.4979-21.848-14.871-36.731-14.62z"/>
</svg>
