<svg xmlns="http://www.w3.org/2000/svg" viewBox="0 0 172.975 303.014" xmlns:xlink="http://www.w3.org/1999/xlink" enable-background="new 0 0 172.975 303.014">
<g fill-rule="evenodd">
<path d="m88.298,119c-.883,2.983-3.74,4.38-5.502,6.734-.924,1.235-.802,2.474-2.165,3.113-1.656,.776-2.792,2.393-3.629,3.957 .078-.9-1.155,.728-1.047,.589-.991,1.277-.451,2.186-.709,3.678-1.453,.742-2.883,6.48-3.592,6.456-2.491-.085 2.922-10.706 3.843-12.228-2.284,.042-5.805,2.833-6.901,4.745-.518,.904-2.7,1.773-2.094-.137 .481-1.519 2.046-2.574 3.292-3.277 1.707-.963 2.432-1.859 4.384-2.573 2.262-.827 3.617-1.613 5.176-3.226 1.407-1.456 2.57-2.978 4.115-4.32 .99-.86 1.989-1.727 2.829-2.74 1.444-1.73 .457-.5 2-.76"/>
<path d="m71.23,144.1c1.467,.392 .617,2.516-.59,2.672-2.572,.33 .282-2.23 .59-2.67"/>
<path d="m61.693,206.85c-4.196,2.864-2.871,12.272-3.037,17.084-.271,7.863-2.862,15.341-3.992,23.075-1.037,1.076-1.107,3.041-1.746,4.36-.767,1.586-1.507,3.157-2.1,4.817-1.253,3.506-2.095,7.188-3.434,10.65-2.361,6.166-4.21,12.37-5.132,19.188-.454,3.357-.604,7.032 .865,10.179 .872,1.862 3.498,6.163 .118,6.74-6.592,1.127-7.794-11.124-7.5-15.673 .248-3.843 1.297-7.571 2.425-11.233 .933-3.03 1.45-7.087 3.158-9.579 .715-1.043 1.333-3.204 1.739-4.443 .559-1.709 .721-3.519 1.317-5.218 .372-1.059 2.441-6.299 2.762-6.023 .213-2.415 1.607-4.475 2.336-6.735 .952-2.955-.846-5.437-.329-8.324-2.086-.229-4.124,.76-6.275,.502-.943-1.594-3.07-1.736-4.279-3.037-.745-.802-4.048-.605-5.511-.479-.501-.782-1.586-.551-2.259-1.003-1.037-.698-1.449-1.932-2.605-2.583-1.204-.678-2.083-1.844-2.665-2.938-.811-1.538-1.993-3.892-2.51-5.523-.75-2.373-.206-4.965-1.254-7.277-.149-.637-.981-.288-1.388-.49-.897-.445-1.293-1.944-2.127-2.523-2.106-1.458-10.436,.462-10.763-3.099-.302-3.289 .473-1.922 2.81-3.412 1.859-1.185-1.667-3.06-2.576-3.803-1.311-1.069-3.233-2.31-1.782-4.204 1.406-1.834 2.778-1.284 .515-3.053-1.687-1.314-4.468-.932-4.283-3.252 .129-1.614 2.401-1.998 .129-3.029-1.905-.864-2.895-1.997-1.968-4.115 1.098-2.511 3.214-.965 5.407-2.029 2.426-1.179 3.679-2.104 5.222-4.233 .801-1.105 1.71-2.134 2.725-3.047 1.345-1.211 1.336-2.528 2.227-4.091 1.246-2.188 1.463-3.364 4.049-2.369 1.961,.755 2.144-2.775 1.77-3.799-.962-2.629 2.753-11.494 6.308-8.185 1.025-.449 2.316-.833 2.76-2.008 1.099,.075 2.065-.298 3.134-.423 1.485-.173 1.383,.417 2.829-.174 .918-.375 1.903-.869 2.908-.527 2.527,.859 1.86-1.188 3.628-1.345 .567-.05 .824-.615 1.257-.938 1.402-1.046 1.979,.471 2.765-1.518 .862-2.181 1.797-4.494 3.56-6.12 2.026-.373 4.039-.249 5.876-.851 4.584-1.5 6.096-7.445 9.796-10.283 3.145-2.413 6.458-3.963 9.354-6.423 4.188-3.557 9.75-8.166 12.512-12.828 2.069-3.494 5.976-5.517 7.796-9.201 .716-1.449 .646-.553 1.331-1.596 .423-.641 1.018-1.727 1.61-2.455 1.25-1.534 2.791-2.863 3.807-4.419 .558-.854 1.102-1.791 2.133-2.144 .019-.87 .43-1.505 1.041-2.078 .552-.517 1.141-.996 1.365-1.755 .479-1.621 .283-.409 1.358-1.438 .411-2.167 2.374-3.871 3.532-5.657 1.465-2.261 2.831-3.988 4.271-6.335 2.903-4.73 6.561-8.984 8.93-14.036 1.814-3.871 5.509-6.819 6.7-11.067 .354-1.262 .101-.842 .84-1.545 .535-.509 .61-.998 1.181-1.915 .645-1.035 .989-2.82 1.859-3.412 1.439-.98 2.954-4.468 3.975-6.391 1.334-2.515 2.848-4.206 4.24-6.476 .893-1.454 1.704-3.349 2.801-4.396 1.269-1.209 2.361-3.993 3.508-5.862 2.888-4.708 5.205-9.748 8.165-14.45 1.165-1.852 3.904-2.751 5.469-4.546 2.727,.236 3.843-.729 5.896,1.318 1.534,1.529 2.809,2.966 2.725,5.282-.123,3.398-1.608,4.964-3.198,7.607-4.736,7.873-10.146,15.666-14.411,24.054-3.535,6.953-8.854,15.081-13.687,21.993-.601,.859-1.128,1.653-1.17,2.746-1.062-.077-1.106,.608-1.466,1.456-.953,2.25-2.362,4.248-3.786,6.218-1.422,1.967-2.841,3.953-3.815,6.189-.902,2.071-3.271,3.302-3.482,5.714-2.153,1.075-2.88,3.675-4.093,5.566-1.441,2.248-3.197,4.271-4.692,6.481-2.521,3.728-5.31,6.976-7.882,10.804-1.31,1.949-2.718,3.76-4.222,5.562-.8,.958-1.573,2.005-1.952,3.213-.962,.046-1.289,.827-1.627,1.573-.586,1.293-1.965,1.344-2.614,2.553-.57,1.062-2.757,4.824-3.92,5.1-1.355,.321-3.551,4.051-4.817,5.405-1.941,2.075-4.004,4.032-5.911,6.138-3.72,4.11-4.939,8.933-6.306,14.328-1.292,5.1-2.92,10.299-5.939,14.668-1.523,2.204-1.603,4.246-2.728,6.669-1.018,2.191-1.935,4.314-2.589,6.656-1.412,5.062-.962,10.104-1.198,15.221-.28,5.915 1.246,11.731 .641,17.674-.104,1.023-2.77,11.104-5.056,7.062-1.722-3.02-.376-7.18-1.374-10.43m20.581-75.3c.613-1.317 1.778-2.24 2.76-3.264 .393-.684 .979-1.018 1.758-1.003 .234-1.009 .796-1.848 1.496-2.59 .899-.954 4.233-3.572 4.025-4.94 1.015,.93 7.546-8.893 8.342-10.131 .653-1.015 1.002-.235 1.865-1.467 .939-1.342 2.091-2.512 3.118-3.785 1.866-2.313 3.284-4.331 5.097-6.668 1.029-1.327 2.313-4.655 4.167-5.308 .484-3.078 3.466-5.257 5.052-7.736 3.23-5.046 6.464-9.621 9.86-14.397 .898-1.263 1.825-2.514 2.521-3.905 .637-1.275 1.27-1.973 1.849-2.993 1.31-2.308 3.794-4.673 4.766-7.442 .528-1.503 1.368-1.645 2.042-3.158 .658-1.477 1.555-2.819 2.496-4.127 .938-1.304 1.898-2.594 2.678-4.003 .434-.783 .807-1.595 1.117-2.436 .683,.131 1.263-.762 1.505-1.254 3.085-6.199 6.893-11.875 10.202-17.959 .525-.964 .655-1.109 1.594-1.368 .559-1.592 1.338-3.092 2.229-4.521 1.053-1.689 3.997-7.343 5.303-7.526 .662-2.643 3.342-4.463 .973-7.111-.915-1.023-1.291-1.267-2.708-.881-.66,.226-1.337,.379-2.029,.463-.13,.663-.503,1.126-1.119,1.391-4.096,2.043-7.412,8.921-8.922,13.167 1.13-.237 1.152,.958 .502,1.505-.394-.467 .01-1.619-1.003-1.005-.702,.932-1.32,1.925-1.914,2.928-1.306,2.207-2.479,4.49-3.824,6.675-1.221,1.983-2.614,3.799-3.602,5.925-1.143,2.458-3.178,3.991-3.963,6.812-1.854,.939-2.132,3.328-3.297,5.036-1.312,1.925-2.799,3.737-3.48,6.008-1.819,.65-1.104,3.087-2.375,4.135-1.368,1.128-1.302,2.604-2.426,3.85-2.347,2.601-4.251,5.744-5.987,9.302-.983,2.016-2.759,3.434-3.598,5.347-.975,2.221-3.33,3.42-3.686,5.979-1.088,.08-.797,1.999-2.008,2.008-.495,2.118-2.23,3.365-3.389,5.083-2.146,3.187-5.398,6.432-7.201,9.761-.394,.725-.46,1.048-1.237,1.524-1.024,.626-1.098,1.262-1.87,2.312-1.32,1.794-3.157,3.533-3.999,5.182-.926,1.815-2.948,2.777-3.639,4.75-2.523,1.512-4.007,4.57-6.094,6.606-2.115,2.063-3.869,4.92-6.284,6.619-.994,.699-1.937,1.554-2.683,2.589-1.583,.405-4.532,2.426-5.458,3.493-1.729,1.991-4.36,2.45-5.975,4.5-1.858,2.36-3.689,3.92-4.525,6.851-.681,2.387-1.182,4.784-1.017,7.282 .186,2.818 2.028,5.909 2.792,8.705 .349,1.276 .698,2.554 1.131,3.805 1.115-.035 1.922-.582 2.855-1.1 1.677-.931 3.101-2.977 4.302-4.545 3.094-4.041 2.999-8.482 4.012-13.417 .481-2.341 2.495-3.244 2.888-5.536 2.102-.345 2.759-2.01 2.759-3.764 .529,.51 .547-.51 1.269-.27m77.806-105.92c-1.531,1.218-2.447,3.009-3.316,4.716-1.102,2.162-2.769,3.976-3.713,6.132-1.784,4.076-5.155,7.487-6.883,11.133-1.752,3.698-5.837,6.846-6.921,10.9-1.079,4.032-5.674,7.066-7.111,10.933-.633,1.704-1.834,3.057-2.881,4.509-.642,.89-1.206,1.833-1.555,2.88-.914,.107-1.326,1.047-1.641,1.77-1.689,3.892-5.065,6.939-7.265,10.658-.815,1.38-1.956,1.865-2.593,3.282-.84,1.869-2.246,2.707-3.058,4.276-1.104,2.136-2.997,3.706-4.212,5.767-.945,1.604-.934,.606-1.793,2.271-.547,1.057-1.33,1.951-2.123,2.826-2.102,2.322-4.771,4.355-6.137,7.071-.385,.764-.708,1.764-1.478,2.251-1.039,.657-.946,1.102-1.797,2.093-1.296,1.51-2.576,3.079-4.049,4.422-3.644,3.323-6.099,7.466-10.291,10.291-.207,2.325-2.142,3.044-3.01,5.092-.474,1.118-1.396,6.316-1.612,6.322-.217,.006-2.447,9.449-3.268,10.563-1.331,1.807-1.697,4.333-2.862,6.38-1.13,1.985-2.607,3.755-4.308,5.276 .105,.736-.329,4.812 1.649,2.763 1.638-1.697 2.76-4.371 3.99-6.377 1.475-2.406 2.926-4.64 3.913-7.31 .072-.196 1.576-3.798 .869-3.328 1.489-.989 1.49-5.009 1.88-6.581 .548-2.229 1.488-3.686 2.349-5.82 3-7.44 10.083-11.798 14.663-18.294 1.391-1.972 .766-.594 1.812-1.487 .766-1.715 1.959-3.168 3.158-4.591 1.823-2.16 4.456-4.372 5.767-6.678 1.998-3.515 5.016-6.316 7.002-9.838 .851-1.506 1.781-2.085 2.757-3.727 1.061-1.785 2.396-3.383 3.716-4.977 5.386-6.5 10.061-14.246 14.276-21.554 1.591-2.759 3.709-4.731 4.781-7.64 .545-1.478 1.664-2.434 2.407-3.904 .318-.63 1.823-2.679 1.816-2.854 .769-1.395 1.747-2.653 2.611-3.987 .765-1.181 1.934-2.746 2.334-3.429 1.789-3.058 3.145-6.777 5.489-9.488 .992-1.146 9.348-15.131 8.139-15.977-.21,1.289-1.47,1.952-1.53,3.282m-108.93,117.97c.53,2.58 4.017,3.625 4.93,6.388 .993,3.004 1.508,6.168 2.342,9.219 1.782,6.521 3.577,14.59 7.285,20.286-.46-7.773-1.756-15.493-4.042-22.941-.533-1.737-1.118-3.458-1.752-5.162-.502-1.35-1.42-2.042-2.064-3.343-.782-1.579 .537-2.479-1.113-3.629-1.672-1.18-3.667-2.01-5.586-.83m-1.256,7.02c.307-.97 .958-1.772 1.176-2.778 .187-.86-.717-2.836-1.486-1.503-.666,1.16-1.795,3.88 .31,4.28m4.016,8.29c-.369-.098-.703-.266-1.002-.502-.474-.856-.967-1.702-1.482-2.534-1.021-1.652-2.306-4.532-4.261-5.061-1.055-.285-2.504-.467-3.197,.623-.792,1.245 2.095,3.024 3.067,3.959 2.975,2.857 5.186,7.024 7.656,10.369 2.632,3.563 5.246,7.149 7.502,10.967-1.171-6.71-5.997-11.61-8.283-17.83m-15.561-5.78c-.265,1.46 1.087,.11 0,0zm26.103,39.16c-.176-1.571-1.168-2.683-1.276-4.304-.154-2.306 .167-4.276-.672-6.499-1.496-3.963-4.079-8.226-6.676-11.56-2.618-3.36-5.273-6.799-7.456-10.291-1.389-2.223-5.818-8.43-9.27-6.252-.034,1.155 3.134,3.412 3.912,4.38 1.271,1.581 2.491,3.489 4.284,4.527 2.846,1.647 5.224,7.617 6.864,10.42 2.443,4.168 4.157,9.059 6.215,13.446 .929,1.98 1.521,4.039 2.03,6.16 .284,1.182-.121,3.493 1.294,3.987 .738-1.19 .902-2.68 .751-4.03m-36.393-31.37c1.553,.587 2.366,.522 2.864-1.025 .638-1.985 1.643-3.817 2.406-5.752-3.547,.5-5.491,3.24-5.27,6.77m12.549-3.52c-1.91-2.012-4.579-2.927-6.777-.752 3.109,3.857 6.974,6.642 9.788,10.793-.166-3.63-2.537-6.52-3.011-10.04m-17.57,2.01v3.516c3.1,.525 3.523-4.977 4.267-7.029-2.283-.52-2.95,2.32-4.267,3.51m22.589,14.31c-1.595-1.802-2.689-3.985-3.667-6.165-.772-1.721-2.245-2.249-3.429-3.724-.704-.877-6.657-7.867-6.109-3.116 .219,1.895 2.181,2.067 3.164,3.218 .942,1.102 2.093,2.03 3.155,3.119 2.23,2.288 4.083,6.312 6.887,8.173-.001-.51-.001-1.01-.001-1.51m-.251-7.28c.398,1.312 .498,2.676 .748,4.018 .242,1.303 1.048,1.649 1.321,2.987 .653,3.208-.302,6.032 2.701,8.307-.378-3.805-.706-7.659-1.686-11.366-.75-2.839-1.689-7.367-4.338-8.966-.605,1.67 .792,3.49 1.254,5.02m6.026,28.86c.428-4.725-.15-7.432-2.499-11.702-.952-1.729-2.173-3.051-3.063-4.754-.986-1.889-2.718-2.884-3.695-4.775-.657-1.272-2.152-2.796-3.043-3.868-.753-.914-1.232-.396-1.753-1.775-.436-1.156-1.318-1.826-2.34-2.452-.952-.583-1.974-1.055-2.853-1.754-1.071-.851-2.017-.627-3.094-1.296-.431,.812-2.991-.443-3.011,1.002 2.822-1.402 8.672,4.063 10.456,5.873 3.206,3.251 6.881,6.909 8.744,11.137 1.729,3.922 3.468,7.634 4.475,11.976 .504,2.173 .83,4.421 .671,6.656-.153,2.167-1.755,4.07-1.505,6.275 3.734-1.73 2.214-7.37 2.51-10.56m-23.343-24.34c2.587,2.834 3.133,7.277 6.024,9.788 .189-1.423-.05-2.689-1.003-3.641-1.288-1.286-1.428-3.215-2.554-4.699-1.21-1.595-4.119-6.852-6.734-6.469-.466,3.06 2.665,3.27 4.267,5.02m6.775,14.8c-1.446-2.75-3.221-5.304-4.804-7.973-1.754-2.958-2.807-5.94-6.03-7.354-1.555-.683-3.063-1.59-4.727-1.992-1.275,.819-1.977,2.205-3.013,3.265 .433,.636-.303,2.573 .753,2.759 .834,.125 1.826-1.756 2.259-2.259-.818-.122-1.459-1.361-.753-2.008 .386,.638 1.071,.017 1.859,.752 .946,.885 2.289,1.39 2.659,2.764 2.81,.315 4.28,4.666 5.772,6.523 .347,1.323 1.195,2.004 1.591,3.293 .483,1.572 1.221,3.04 1.969,4.5 .749,1.46 1.484,2.932 1.963,4.508 1.338,.178 1.575,2.257 1.815,3.398 .468,2.227 .525,7.92-2.82,5.385-1.051,.421-1.916,1.336-1.254,2.511 1.634,.318 3.402,.19 4.77-.844 2.853-2.16 2.585-5.547 1.537-8.439-.581-1.604-1.024-3.252-1.595-4.859-.741-2.09-1.951-1.2-1.951-3.93m16.065-9.28c.493,1.138 1.547,1.921 2.341,2.827 1.153,1.315 1.736,3.202 2.267,4.836 1.035,3.179 1.657,6.478 2.777,9.632 1.072,3.018 1.82,6.008 2.526,9.152 .842,3.757 3.241,.971 2.819-1.577-.392-2.368-1.695-4.087-2.342-6.395-.908-3.235-1.48-6.186-2.967-9.211-2.706-5.504-4.573-10.988-8.175-16.039 .515,2.21-.174,4.62 .754,6.77m-12.047,13.3c-.2-7.133-.954-15.815-4.018-18.573 1.117,5.42 .59,14.62 4.018,18.57zm-21.838-12.55c-4.377,1.186-8,4.275-12.461,5.26-1.211,.268-2.06-.199-2.539,.949-.576,1.379 1.183,1.146 1.926,.941 1.907-.525 3.593-1.44 5.489-1.773 3.713-.651 6.925-1.944 9.969-4.152 .763-.553 4.497-1.942 3.022-3.452-1.893-1.95-3.813,.71-5.406,2.22m23.594,10.54c.062,1.098-1.215,9.648 1.24,8.154 2.626-1.599 3.068-3.081 2.925-5.96-.132-2.653-.38-5.403-1.02-7.989-.265-1.073-3.018-6.243-4.401-6.001-.668,3.91 1.038,7.92 1.256,11.8m22.59-8.78c.041-.176-.088-1.461-.251-.754-.221,.95 .134,1.25 .251,.75zm-56.223,6.27c-.127,2.346 3.605,.319 4.236,.11 .998-.329 2.23-.616 2.79-1.616 1.835,.2 3.577-1.16 5.08-2 .47-.263 3.85-1.478 1.823-2.017-1.181-.313-2.271,1.345-3.408,2.008-3.222,1.88-7.001,2.44-10.521,3.52m16.063-3.76c-1.103,.863-2.25,1.138-3.012,1.924-1.305,1.349-3.417,1.808-5.109,2.519-2.118,.89-4.089,2.194-6.334,2.164-.961-.013-4.031,.479-4.119,1.676 5.186,.238 11.315-1.711 15.632-4.24 .386-.296 .781-.305 1.185-.026 .337-.558 .826-.905 1.467-1.043 1.32-.378 1.968-1.284 3.256-1.915 1.553-.761 1.809-1.241 .552-2.567-.868-.92-2.642,.82-3.518,1.51m40.662-.76c.427,.057 .621-.282 0-.251 .084-1.43-.582-.16 0,.25zm1.506,8.54c.119,.671-.012,1.915 1.003,2.008-.266-2.875-.143-6.152-1.505-8.785 .478,2.24 .103,4.54 .502,6.78m-43.925-2.51c-.094,.387-.01,.722 .251,1.005 .277-.349 1.599-.887 .751-1.505-.334,.79 .091,.6-1.002,.49m-.502,1.25c.037-.298 .447-.569 0-.753-.037,.29-.447,.57 0,.75zm-.251-.75c-.635-.264-1.111,.848-.5,1.005-.185-.69 .498-.51 .5-1.01zm7.782,.75c-2.892,1.468-6.037,2.361-9.056,3.521-.587,.226-2.347,1.655-2.994,1.247-.324,1.122-1.994,1.765-3.011,1.257-1.231,1.516-4.95,1.068-5.703,2.67-1.214,2.579 4.535,.51 5.083,.72 .718,.274 2.837-.855 3.607-1.34 1.767-1.11 4.478-1.283 6.271-2.288 2.141-1.2 4.491-1.774 6.656-2.923 1.376-.73 2.101-.962 1.5-2.707-.444-1.29-1.512-.59-2.353-.16m17.819,1.51c.09,3.185 .384,6.441-.156,9.603-.37,2.168-3.653,5.807-2.103,7.717 2.175-2.221 4.69-3.631 4.974-7.055 .208-2.514-.564-9.771-2.464-11.019 .071,.3-.013,.56-.251,.75m-17.318,3.76c-4.097,.775-7.709,3.481-11.277,4.307-.708,.163-6.291,1.955-6.291,2.219 2.02,.964 4.997-1.898 6.023-1.002 1.309-1.797 3.75-1.715 5.724-2.017 1.55-.237 10.106-2.983 8.834-5.515-.967,.73-2.179,1.11-3.013,2.01m24.599,3.52c1.085,1.34 2.411,2.455 3.764,3.513-.283-2.909-.883-6.599-3.013-8.785-.786,1.58-.59,3.56-.751,5.27m-23.595,.75c-.609-.411-3.359,2.01-2.259,2.259 .311-.807 .976-.85 1.729-.9 1.315-.088 1.275-.603 2.314-1.247 .406-.251 3.803-3.397 1.729-3.122-.71,1.49-2.569,1.74-3.513,3.01m35.391,7.03c-.266,1.237-1.489,2.003-1.757,3.263-.3,1.404-.051,2.853 0,4.267 .045,1.254-.309,2.797 .752,3.765 1.107-.146 1.662-1.177 1.946-2.141 .556-1.879 .649-18.366-.188-18.189-2.198,2.5-.134,6.13-.753,9.04m-22.841-1.51c1.262-1.047 1.788-2.712 2.102-4.258 .145-.712 1.078-4.106-.643-2.573-1.758,1.57-4.194,4.96-1.459,6.83m-8.785-4.52c.183,.054 .35,.138 .502,.252-.031-.5-.502-1.28-.502-.25m-6.526,1.51v-.754c-2.809,.096-5.668,1.58-8.378,2.86-1.306,.616-6.833,2.419-6.933,3.917 2.514,.19 14.959-6.5 15.311-6.03m5.021-.25c-1.167-.055-.141-.105-.754,.252-1.074,.63 1.428-.22 .754-.25zm27.358,6.27c1.801-2.374-2.959-4.703-4.77-5.772-.33,2.64 1.949,5.84 4.77,5.77m-17.319,1.51c.164-1.942-.476-3.91-2.51-4.517-.495,1.41 .541,4.79 2.51,4.52m-.251,89.1c-3.264-7.378-.308-16.317 1.625-23.676 1.57-5.976 4.266-11.298 6.09-17.137 1.258-4.024 3.665-8.113 4.583-12.148 1.021-4.485 1.908-9.402 2.47-14.015 .602-4.944 .722-9.957 .33-14.923-.09-1.146-1.705-12.918-3.802-11.474 .415-.04 1.468,9.647 1.511,10.682 .165,3.976-.928,8.078-.119,11.951 .732,3.508-.928,7.752-1.959,11.056-1.61,5.159-2.963,10.343-4.779,15.446-3.437,9.654-7.342,19.348-9.611,29.363-1.146,5.059-.898,9.667 .384,14.677 .578,2.26 1.022,3.692 3.356,4.613 2.991,1.18 .187-3.82-.079-4.42m-12.299-85.59c1.224,.832 2.061,5.105 2.511,6.526 .985,3.116 1.466,6.637 3.262,9.537 .874,.487 1.55,1.235 2.048,2.094 .792,1.36 2.145,2.055 2.973,3.427 2.479,.258 3.125,2.219 5.814,1.584 6-1.415 6.348-9.901 6.773-15.099 .279-3.414 .696-9.656-1.294-12.587-1.73,1.972-.627,5.447-.365,7.729 .354,3.078 .555,6.578-.035,9.638-.503,2.61-1.835,5.857-4.157,7.372-2.565,1.672-4.327-.671-6.736-1.145-4.507-4.942-6.54-11.681-8.176-18.018-.44-1.703-.727-7.706-2.366-8.59-.414,.107-.833,.191-1.256,.252-.167,.782-.16,1.562 .02,2.342 .33,1.67 1.026,3.24 .984,4.95m7.78-6.52c-1.146,.754-2.809,2.09-4.267,1.255-.458,2.62 .038,7.002 1.521,9.276 1.44,2.211 1.177,7.748 4.002,9.046 1.941-3.63 3.565-7.454 3.532-11.647-.008-.978-.098-1.947-.27-2.91-.856-.034-1.586-.393-2.102-1.077-.916-1.22-1.061-3.06-2.416-3.94m-14.306,1.5c-.437,5.715 1.027,12.094 3.264,17.319 1.453,3.401 5.567,8.58 9.788,7.529 .363-2.263-2.315-2.147-3.765-2.511-3.423-.854-3.703-3.242-5.774-5.772-.774-2.641-1.133-5.391-1.417-8.12-.169-1.621 .149-8.447-1.342-9.199 .172,.68-.472,.43-.754,.75m-6.526,1.01c.296,.049 .583-1.222 0-.251-.02,.03-.382,.18 0,.25zm-1.003,.75c-.07-.31 .014-.561 .251-.752-.029,.228 .054,.395 .249,.501 0-1.86-1.37,.1-.5,.25m-1.508,.25c.433,.015 .644-.194 .754-.502-.394,.02-.87-.03-.754,.5zm29.618,5.77c-.237,2.434-.733,6.115-1.944,8.244-.614,1.078-1.648,1.992-1.994,3.213-.404,1.426 .415,2.57 1.695,1.304 1.816-1.796 5.79-17.593 2.997-18.03-1.098,1.51-.587,3.57-.754,5.28m-.251,12.55c-.735,1.337-2.098,2.463 .05,3.214 2.127,.743 1.924,.32 3.433-.608 3-1.846 1.962-6.971 1.471-9.995-.182-1.118-1.847-9.604-1.902-4.933-.05,4.28-1.393,8.44-3.052,12.33m-14.055-2c1.437,.69 1.567,2.475 3.513,2.259-.005-2.979-1.918-5.712-2.505-8.589-.544-2.667-1.531-2.584-3.267-4.461-.099,3.79 1.007,7.25 2.259,10.79"/>
</g>
</svg>
