<svg xmlns="http://www.w3.org/2000/svg" viewBox="0 0 549.18 748.06" xmlns:xlink="http://www.w3.org/1999/xlink">
<defs>
<linearGradient gradientTransform="matrix(-1 0 0 1 686.9 0)" id="linearGradient3817" x1="119.46" gradientUnits="userSpaceOnUse" x2="567.44">
<stop offset="0" stop-color="#4494a7"/>
<stop offset="1" stop-color="#4494a7" stop-opacity="0"/>
</linearGradient>
<linearGradient id="linearGradient3815" x1="128.55" gradientUnits="userSpaceOnUse" x2="576.52">
<stop offset="0" stop-color="#4494a7"/>
<stop offset="1" stop-color="#4494a7" stop-opacity="0"/>
</linearGradient>
<linearGradient id="linearGradient3821" x1="119.46" gradientUnits="userSpaceOnUse" x2="567.44">
<stop offset="0" stop-color="#4494a7"/>
<stop offset="1" stop-color="#4494a7" stop-opacity="0"/>
</linearGradient>
<linearGradient gradientTransform="matrix(-1 0 0 1 738.25 -5.2458)" id="linearGradient3819" x1="161.73" gradientUnits="userSpaceOnUse" x2="609.7">
<stop offset="0" stop-color="#4494a7"/>
<stop offset="1" stop-color="#4494a7" stop-opacity="0"/>
</linearGradient>
</defs>
<g transform="translate(-73.572 -130.9)">
<path stroke-dasharray="4,4" fill="#a0cdd8" stroke="#4494a7" stroke-width="4" d="m94.281,146.66v711.41h505.72v-711.41h-505.72zm21.281,29.906h463.19v651.59h-463.19v-651.59z"/>
</g>
<g fill="#4494a7" transform="translate(-73.572 -130.9)">
<path d="m138.57,169.51c-2.0821,4.034-12.153-1.6699-16.209,.3698-4.0556,2.0398-5.4808,13.526-9.9608,12.792-4.48-.7336-2.1674-12.074-5.3605-15.301-3.1932-3.2267-14.558-1.0328-15.244-5.5202-.6867-4.4874 10.814-5.7925 12.896-9.8265 2.0821-4.034-3.5162-14.164 .5393-16.204 4.0556-2.0398 8.8506,8.4945 13.331,9.2281 4.48,.7336 12.384-7.7212 15.578-4.4944 3.1932,3.2268-5.3438,11.042-4.657,15.53 .6867,4.4874 11.17,9.3923 9.0882,13.426z" transform="matrix(1.4472 .31607 -.31607 1.4472 -6.1128 -95.786)"/>
<path d="m138.57,169.51c-2.0821,4.034-12.153-1.6699-16.209,.3698-4.0556,2.0398-5.4808,13.526-9.9608,12.792-4.48-.7336-2.1674-12.074-5.3605-15.301-3.1932-3.2267-14.558-1.0328-15.244-5.5202-.6867-4.4874 10.814-5.7925 12.896-9.8265 2.0821-4.034-3.5162-14.164 .5393-16.204 4.0556-2.0398 8.8506,8.4945 13.331,9.2281 4.48,.7336 12.384-7.7212 15.578-4.4944 3.1932,3.2268-5.3438,11.042-4.657,15.53 .6867,4.4874 11.17,9.3923 9.0882,13.426z" transform="matrix(.70282 1.304 -1.304 .70282 710.59 -95.47)"/>
<path d="m138.57,169.51c-2.0821,4.034-12.153-1.6699-16.209,.3698-4.0556,2.0398-5.4808,13.526-9.9608,12.792-4.48-.7336-2.1674-12.074-5.3605-15.301-3.1932-3.2267-14.558-1.0328-15.244-5.5202-.6867-4.4874 10.814-5.7925 12.896-9.8265 2.0821-4.034-3.5162-14.164 .5393-16.204 4.0556-2.0398 8.8506,8.4945 13.331,9.2281 4.48,.7336 12.384-7.7212 15.578-4.4944 3.1932,3.2268-5.3438,11.042-4.657,15.53 .6867,4.4874 11.17,9.3923 9.0882,13.426z" transform="matrix(1.3466 -.61728 .61728 1.3466 -147.21 700.24)"/>
<path d="m138.57,169.51c-2.0821,4.034-12.153-1.6699-16.209,.3698-4.0556,2.0398-5.4808,13.526-9.9608,12.792-4.48-.7336-2.1674-12.074-5.3605-15.301-3.1932-3.2267-14.558-1.0328-15.244-5.5202-.6867-4.4874 10.814-5.7925 12.896-9.8265 2.0821-4.034-3.5162-14.164 .5393-16.204 4.0556-2.0398 8.8506,8.4945 13.331,9.2281 4.48,.7336 12.384-7.7212 15.578-4.4944 3.1932,3.2268-5.3438,11.042-4.657,15.53 .6867,4.4874 11.17,9.3923 9.0882,13.426z" transform="matrix(1.4808 -.0399 .0399 1.4808 409.15 610.45)"/>
</g>
<g transform="translate(-73.572 -130.9)">
<path fill="url(#linearGradient3815)" d="m128.55,167.27c14.913-11.521 35.458-20.649 54.547-11.818 19.219,8.8913 42.454,7.0213 63.136-.7472 25.379-9.5327 50.083,17.92 77.531,10.891 23.15-5.9289 46.63-21.199 71.321-11.932 21.997,8.2548 46.159,22.316 70.039,12.4 16.98-7.0506 36.646-18.513 55.124-8.1528 16.935,9.4954 41.254-.5055 56.277,3.2439-7.1645,6.955-20.226,1.6195-30.879,4.9044-19.23,5.9299-42.075-17.46-62.607-6.2599-19.593,10.687-43.503,17.27-64.986,7.4536-20.005-9.141-43.737-19.568-65.799-8.4945-25.981,13.041-58.396,13.302-85.444-.152-20.031-9.9638-41.198,9.0206-62.922,6.2143-18.459-2.3845-36.354-17.371-55.284-7.8104-6.7096,3.3885-13.396,6.791-20.053,10.261z"/>
<path fill="url(#linearGradient3817)" d="m567.44,849.27c-14.913-11.521-35.458-20.649-54.547-11.818-19.219,8.8913-42.454,7.0213-63.136-.7472-25.379-9.5327-50.083,17.92-77.531,10.891-23.15-5.9289-46.63-21.199-71.321-11.932-21.997,8.2548-46.159,22.316-70.039,12.4-16.98-7.0506-36.646-18.513-55.124-8.1528-16.935,9.4954-41.254-.5055-56.277,3.2439 7.1645,6.955 20.226,1.6195 30.879,4.9044 19.23,5.9299 42.075-17.46 62.607-6.2599 19.593,10.687 43.503,17.27 64.986,7.4536 20.005-9.141 43.737-19.568 65.799-8.4945 25.981,13.041 58.396,13.302 85.444-.152 20.031-9.9638 41.198,9.0206 62.922,6.2143 18.459-2.3845 36.354-17.371 55.284-7.8104 6.7096,3.3885 13.396,6.791 20.053,10.261z"/>
<path fill="url(#linearGradient3819)" d="m576.52,167.27c-14.913-11.521-35.458-20.649-54.547-11.818-19.219,8.8913-42.454,7.0213-63.136-.7472-25.379-9.5327-50.083,17.92-77.531,10.891-23.15-5.9289-46.63-21.199-71.321-11.932-21.997,8.2548-46.159,22.316-70.039,12.4-16.98-7.0506-36.646-18.513-55.124-8.1528-16.935,9.4954-41.254-.5055-56.277,3.2439 7.1645,6.955 20.226,1.6195 30.879,4.9044 19.23,5.9299 42.075-17.46 62.607-6.2599 19.593,10.687 43.503,17.27 64.986,7.4536 20.005-9.141 43.737-19.568 65.799-8.4945 25.981,13.041 58.396,13.302 85.444-.152 20.031-9.9638 41.198,9.0206 62.922,6.2143 18.459-2.3845 36.354-17.371 55.284-7.8104 6.7096,3.3885 13.396,6.791 20.053,10.261z"/>
<path fill="url(#linearGradient3821)" d="m119.46,849.27c14.913-11.521 35.458-20.649 54.547-11.818 19.219,8.8913 42.454,7.0213 63.136-.7472 25.379-9.5327 50.083,17.92 77.531,10.891 23.15-5.9289 46.63-21.199 71.321-11.932 21.997,8.2548 46.159,22.316 70.039,12.4 16.98-7.0506 36.646-18.513 55.124-8.1528 16.935,9.4954 41.254-.5055 56.277,3.2439-7.1645,6.955-20.226,1.6195-30.879,4.9044-19.23,5.9299-42.075-17.46-62.607-6.2599-19.593,10.687-43.503,17.27-64.986,7.4536-20.005-9.141-43.737-19.568-65.799-8.4945-25.981,13.041-58.396,13.302-85.444-.152-20.031-9.9638-41.198,9.0206-62.922,6.2143-18.459-2.3845-36.354-17.371-55.284-7.8104-6.7096,3.3885-13.396,6.791-20.053,10.261z"/>
</g>
</svg>
