<svg xmlns="http://www.w3.org/2000/svg" viewBox="0 0 345.868 354.216" xmlns:xlink="http://www.w3.org/1999/xlink" enable-background="new 0 0 345.868 354.216">
<g fill-rule="evenodd">
<path d="m206.69,232.12c-4.659,.58-8.695-.979-13.751-.417-2.957,.329-6.051,1.788-9.168,2.916-14.846,5.373-30.431,9.419-43.338,17.087-2.622,1.556-5.118,2.918-7.5,4.583-2.356,1.646-4.147,4.346-7.084,5 8.126-8.481 21.768-18.573 35.003-25.419 6.744-3.489 16.175-10.265 25.002-11.252 8.68-.97 18.42,1.09 20.84,7.5z"/>
<path d="m164.18,230.46c-2.596,3.09-6.865,1.681-10.001,2.499-6,1.568-8.842,6.218-12.917,10.003-1.787,3.301-4.301,6.424-7.083,8.751-2.213,1.848-5.236,3.013-7.084,5-1.907,2.048-1.862,4.785-4.584,6.25 2.458-7.405 9.224-10.499 13.335-16.252 2.112-3.756 1.784-8.29 3.75-12.085 1.232-2.377 5.3-6.382 7.917-7.499 5.2-2.23 12-.14 16.65,3.34z"/>
<path d="m246.27,239.21c-5.192-1.004-8.677-5.186-15.835-3.751-2.12,.424-4.751,1.043-7.5,2.084-.59,.223-1.043,1.077-1.667,1.25-2.22,.613-5.014,.768-7.501,1.249-2.506,.487-5.063,1.355-7.084,1.667-3.822,.591-7.809,.11-11.669,.417-5.294,.423-11.293,1.837-16.251,2.917-6.932,1.513-15.538,2.907-22.085,5.417-9.59,3.676-18.119,8.324-26.252,11.252 .404-2.472 3.317-3.735 5.417-5 2.133-1.287 4.419-2.581 6.667-3.751 4.367-2.271 9.172-4.954 14.168-6.667 7.533-2.584 16.201-4.781 24.169-7.084 2.685-.776 5.329-1.84 7.917-2.501 5.004-1.275 10.156-1.101 15.002-1.667 10.303-1.204 16.604-8.862 28.752-6.667 2.042,.368 6.286,2.729 8.751,4.583 2.12,1.6 5.07,3.9 4.99,6.25z"/>
<path d="m302.53,250.87c-7.189,.004-10.116-4.722-18.336-5.417-8.599-.726-19.011,1.487-27.086,1.667-20.174,.452-41.16-.138-62.09,2.084-5.96,.632-11.958,.727-17.085,2.083-2.167,.573-4.08,1.528-6.25,2.084-6.084,1.559-13.512,2.751-20.002,4.584 15.861-.414 33.573-5.92 50.838-7.085 6.009-.405 12.318-.146 18.753-.417 13.609-.573 27.642,.168 40.837-.832 3.793-.289 7.227-1.352 10.835-1.667 9.977-.875 20.314,.62 27.502,4.583 16.562,2.885 32.569,6.323 45.422,12.919-8.248-.514-16.039-4.461-24.586-5.418-3.673-.412-7.546,.034-11.252-.417-12.133-1.479-23.725-6.027-35.837-7.084-11.36-.99-23.149-.016-33.752,1.25-4.426,.528-9.271,1.511-13.336,2.084-1.37,.193-2.952,.438-4.166,.417-2.743-.048-5.101-1.45-7.918-1.667-8.951-.688-19.393,.627-28.753,1.667-3.543,.394-7.393,.388-10.834,.832-3.339,.433-6.485,1.594-9.584,1.667-.889,.022-1.716,.588-2.5-.832-3.191,2.087-8.99,1.566-14.168,1.666 .101-.732 .717-.949 1.667-.834-4.067-1.115-8.149,3.003-12.5,1.667 4.363-3.166 10.06-4.315 15.834-6.25 5.443-1.823 11.313-3 17.502-4.168 11.653-2.197 23.925-5.423 36.671-6.667 5.102-.497 10.151-.41 15.418-.832 4.659-.373 9.468-1.418 14.168-1.667 5.182-.276 9.91-.327 15.001-1.252 8.604-1.558 17.296-2.941 27.087-1.666 1.872,.244 3.802,1.394 5.833,2.083 2.142,.729 4.574,.904 6.251,1.667 1.98,.904 3.896,2.807 5.833,4.168 1.86,1.31 4.91,2.38 4.6,5.01z"/>
<path d="m343.37,268.38c-5.003,.345-10.138-1.453-15.418-1.667-7.66-.31-15.649,2.369-23.334,2.917-2.549,.182-5.287-.723-7.919-.417-.812,.095-1.152,.822-2.083,.834-4.997,.067-10.059-1.213-15.001-1.667-2.554-.235-4.863,.333-7.085,0-2.154-.323-3.927-1.635-6.249-2.084-.989-.191-2.224,.156-3.334,0-2.812-.392-6.604-1.463-9.585-1.666-2.489-.17-5.034,.383-7.501,.417-8.419,.113-17.053-.87-25.419-1.25-25.562-1.161-51.109,2.775-75.84-2.501 3.648-1.688 7.547-.007 11.251,0 8.929,.017 19.604-1.161 27.919-2.084 15.527-1.721 31.481-1.038 47.088-2.084 6.328-.424 13.297-1.377 19.168-2.082 5.711-.687 12.092,0 17.919,.415 11.528,.823 21.557,2.682 32.503,4.168 5.218,.709 10.43,2.627 15.418,2.917 2.172,.127 4.149-.444 6.252-.416 7.91,.1 14.51,3.55 21.23,6.25z"/>
<path d="m313.36,301.3c-9.121-1.559-17.387-4.885-25.838-7.084-8.583-2.235-17.144-4.027-25.835-6.667-8.239-2.503-15.296-6.947-22.918-10.001-9.826-3.937-18.775-5.214-31.67-6.251-2.215-.179-4.389-1.075-6.667-1.25-4.845-.37-9.845,.268-15.003,0-4.834-.251-9.967-.992-15-1.25-10.725-.551-19.275-1.836-27.503-5-1.499-.578-2.674-1.304-4.583-1.667 .146-.478 .733-1.056 .833-.417 3.889,.87 8.031,.833 11.667,2.084 1.012,.348 1.28,1.292 2.917,1.667 7.216,1.649 15.862,.458 23.753,.832 16.038,.765 31.56,.81 47.088,2.084 13.954,1.146 27.23,5.785 38.752,10.418 11.173,4.491 21.64,8.663 32.92,13.334 3.15,1.306 6.51,3.364 10.003,5 1.329,.624 3.172,.958 4.583,1.667 .74,.37 2.93,1.01 2.51,2.51z"/>
<path d="m132.1,262.54h.833c7.394,1.712 14.448,4.318 22.919,5.834 8.304,1.485 16.838,1.799 25.417,2.917 20.456,2.667 38.69,4.636 52.923,13.335 2.171,1.326 4.536,3.081 6.667,4.584 7.1,5.003 12.062,11.555 17.919,17.919 3.82,4.15 9.635,6.854 12.085,12.917-5.094-3.139-10.135-6.116-15.001-9.584-4.679-3.333-9.909-6.07-14.586-9.585-4.805-3.611-8.898-7.249-13.751-10.418-9.312-6.08-22.626-9.242-35.838-12.501-19.589-4.831-40.901-5.418-57.921-14.584-.215-.117-.604,.088-.833,0-.71,.15-.79-.33-.83-.84z"/>
<path d="m126.26,264.62h.833c3.846,.7 6.175,3.844 9.167,5.834 2.972,1.976 6.188,3.452 9.168,5.417 10.875,7.171 21.698,12.331 30.003,22.086 3.231,3.794 6.416,7.941 10,12.084 1.167,1.348 1.816,3.072 2.917,4.583 1.062,1.455 2.58,2.364 3.333,3.751 1.734,3.186 2.634,7.255 4.168,10.835 1.546,3.604 2.356,7.221 3.751,10.834 1.71,4.435 4.947,8.726 6.249,14.167-2.612-.707-3.36-3.583-4.583-5.416-1.258-1.887-2.453-4.017-3.749-5.834-2.617-3.669-6.122-6.793-8.752-10.418-1.292-1.783-2.16-3.943-3.751-5.834-4.168-4.957-9.412-9.426-14.167-14.584-3.134-3.401-5.726-7.505-8.751-10.835-3.144-3.462-6.14-6.563-9.167-10.001-4.502-5.111-8.743-10.112-14.168-14.585-4.097-3.378-7.384-7.201-11.667-10.835-.51-.17-.85-.52-.83-1.24z"/>
<path d="m132.51,265.04c.355-.076 .393,.162 .417,.417 8.466,2.835 16.667,6.058 25.002,7.499 9.026,1.562 16.988,4.263 25.003,7.502 7.379,2.982 14.443,6.736 20.835,11.667 2.977,2.298 5.779,5.134 8.751,7.501 3.04,2.423 6.596,4.239 9.167,6.667 2.398,2.264 4.328,5.163 6.668,7.502 2.295,2.294 5.192,3.968 7.5,6.25 3.401,3.365 7.127,7.107 10.418,10.834 .824,.933 2.275,2.371 2.084,3.751-3.08,.426-4.752-2.71-6.668-4.168-15.022-11.432-32.053-20.427-47.92-32.502-7.881-5.998-18.669-13.253-28.754-17.502-4.655-1.962-10.58-3.656-16.668-6.25-2.318-.988-5.245-2.537-7.917-3.751-3.79-1.73-7.89-2.6-7.91-5.42z"/>
<path d="m123.76,265.46h.833c.071,2.228-2.481,2.653-3.75,3.749-3.659,3.162-7.519,7.16-11.668,10.417-16.1,12.643-33.644,24.605-50.005,37.505-3.084-.806-7.271-.509-10.417-1.25 2.192-5.827 8.197-7.326 13.751-10.417 14.696-8.182 29.499-17.682 43.338-27.504 6.122-4.345 11.287-9.168 17.501-12.5 .14-.01 .28-.01 .42-.01z"/>
<path d="m96.676,.016c.484-.068 .741,.093 .833,.417-.175,3.496 1.94,7.49 2.083,10.834 .056,1.298-.751,2.495-.833,3.751-.343,5.239 1.629,11.178 2.5,15.418 .75,3.65 .999,7.771 1.668,11.667 1.472,8.583 2.809,17.899 2.083,27.92-.354,4.887-2.373,9.573-2.917,14.585-1.412,13.005 1.454,27.319 1.25,40.004-.047,2.973-1.026,6.059-1.25,9.167-.346,4.792-.383,8.702-.416,12.919-5.342,16.466-6.954,36.662-9.584,55.838 2.024-10.12 5.343-20.243 7.917-31.252 2.416-10.333 4.001-21.244 5.834-32.92 1.875-11.947 2.078-24.039 2.5-36.253 .411-11.886 .891-24.517 3.75-35.003 .879-3.225 2.793-6.336 3.751-9.584 2.545-8.637 3.038-20.878 1.25-31.253 3.17,.769 3.064,5.129 3.75,7.917 1.389,5.643 2.808,10.586 3.333,17.918 .18,2.511 .532,5.618 .417,7.917-.332,6.638-2.982,13.194-3.75,19.586-.66,5.494-.538,11.087-1.25,16.667-.661,5.171-2.12,10.389-2.5,15.418-.757,10.033-.713,19.168-2.083,27.919-1.341,8.566-4.073,16.185-6.668,24.586-1.199,3.883-3.316,7.39-4.583,11.25-2.516,7.669-5.807,14.883-7.918,23.336-.975,3.903-2.607,7.95-2.5,12.084 2.608-4.493 3.378-9.636 5.417-14.585 1.159-2.812 3.31-5.105 4.584-7.917 1.426-3.146 2.442-6.824 3.751-10.418 2.407-6.605 5.042-13.247 7.5-20.835 1.091-3.369 2.822-6.718 3.751-10 .986-3.486 1.22-7.417 2.083-11.252 .832-3.691 1.451-7.511 2.084-11.25 1.206-7.133 3.632-13.822 5.417-20.835 1.77-6.952 3.138-14.396 5-21.67 1.815-7.088 5.138-13.845 5.833-20.418 .544-5.138-.409-13.209 .417-18.751 2.61,1.872 1.194,4.694 1.667,7.5 .179,1.065 .98,2.165 1.25,3.333 .286,1.232-.188,2.384 0,3.75 .336,2.432 1.324,4.691 1.667,7.084 .388,2.701 .397,5.631 .834,8.334 .376,2.335 1.292,4.767 1.25,6.668-.06,2.666-.891,5.977-1.25,8.751-.732,5.649-1.726,10.806-3.334,15.833-.742,2.323-2.25,4.353-2.917,6.669-1.677,5.823-1.787,11.851-3.333,17.502-.75,2.738-1.385,5.601-2.084,8.334-.665,2.601-1.126,5.546-2.084,7.917-.703,1.74-2.239,3.207-2.917,5-.749,1.982-.636,4.231-1.25,6.252-.803,2.638-2.46,5.612-3.75,8.333-1.413,2.983-2.099,6.191-3.333,8.751-1.489,3.089-4.048,6.218-6.25,9.168-4.316,5.778-8.195,12.203-12.085,18.752-3.581,6.027-5.432,12.337-10,17.502 2.377-.077 3.781-2.83 5.417-4.585 1.663-1.782 3.84-3.497 5-5.418 1.563-2.586 1.935-5.511 3.333-7.916 1.293-2.225 3.232-4.083 5-6.25 6.52-7.995 12.924-16.569 17.919-26.67 1.945-3.934 4.555-8.541 7.084-12.501 2.926-4.583 7.531-8.915 11.251-13.751 3.886-5.051 6.16-12.135 10.417-17.502 .72-.907 2.115-1.429 2.917-2.499 1.582-2.109 2.634-4.931 4.167-7.084 1.693-2.379 2.853-4.244 4.167-7.084 1.846-3.986 4.063-7.232 5-12.501 .555-3.115-.001-6.31 1.25-9.168 2.711,2.363 .739,5.639 .417,8.75-.53,5.118 .263,10.828-.417,15.418-.276,1.867-1.488,4.11-2.083,6.252-1.546,5.562-3.01,9.712-5.833,14.168-1.47,2.318-3.892,3.963-5.417,6.25-1.436,2.153-2.328,4.767-3.75,7.084-1.329,2.163-3.265,4.096-4.584,6.25-1.081,1.767-1.41,4.097-2.5,5.834-.939,1.499-2.39,2.688-3.333,4.168-1.838,2.882-2.688,4.666-5,7.083-2.224,2.325-3.358,5.624-5.417,8.751-1.09,1.657-2.913,3.02-4.167,4.584-1.414,1.766-2.084,3.812-3.333,5.418-1.776,2.278-4.582,3.57-5.834,6.25-6.75,3.54-11.347,8.786-16.251,14.585-1.04,1.229-2.256,2.46-3.333,3.751-1.093,1.307-1.498,3.017-2.5,4.166-3.664,4.2-9.55,5.61-12.084,10.835 2.463-.179 4.524-2.281 6.251-3.751 5.548-4.724 11.947-9.673 17.501-15.001 7.402-7.101 15.927-12.913 23.336-20.003 3.826-3.66 7.153-7.351 11.251-10.417 4.139-3.098 8.083-6.279 12.5-9.168 4.357-2.849 9.026-5.421 13.335-8.334s7.959-6.781 12.917-8.751c3.125-4.376 7.173-7.828 10.835-11.667 .149,6.262-3.008,9.217-4.168,14.168-4.825,5.024-9.143,10.935-14.168,16.252-.907,.959-1.983,1.926-2.916,2.917-1.898,2.013-3.142,4.685-5,6.667-2.119,2.259-5.526,4.211-8.335,6.667-4.066,3.558-6.347,5.409-11.667,7.502-1.832,.719-3.531,2.197-5.417,3.333-3.395,2.044-6.648,3.885-10.418,6.25-3.851,2.418-7.456,4.242-12.084,6.667-1.189,.624-2.504,.97-3.751,1.669-7.449,4.173-16.775,7.853-23.335,13.334-1.693,1.414-4.713,2.935-3.75,5.833 6.799-2.634 11.645-7.953 18.752-11.668 6.499-3.396 15.435-6 24.586-6.667 7.09-.516 14.27,.553 21.251,0 4.025-.318 8.527-.804 12.918-1.249 7.058-.718 12.677-.907 16.251-4.585 1.085-1.116 1.947-2.521 2.917-3.749 .678-.856 1.387-3.028 2.918-2.501 .818,4.68-4.435,6.599-5.001,11.252-6.619,5.519-15.185,8.917-25.002,10.833-4.532,.885-9.682,1.753-15.418,2.084-5.257,.303-9.729,.104-15.418,.417-4.918,.271-8.984,2.363-13.335,2.916-3.618,.46-7.664-.201-12.084,.417-4.633,.648-10.102,2.915-13.751,5.418-2.833,1.941-4.626,5.01-7.084,8.334-2.132,2.884-4.614,5.7-6.251,8.751-3.594,6.695-5.543,14.59-8.75,21.667-.99,2.188-2.746,4.117-3.75,6.252-1.102,2.342-1.461,4.948-2.5,7.084-1.376,2.828-4.151,5.252-5.834,7.917-.968,1.534-1.251,3.313-2.083,4.585-.781,1.191-2.352,2.112-3.333,3.333-2.697,3.351-4.871,7.806-7.918,11.251-2.449-.746-3.893-2.496-5.417-4.166 .761-4.562 5.26-6.093 7.917-9.168 2.273-2.632 4.287-6.121 6.667-9.169 2.239-2.865 5.248-5.486 7.084-8.333 2.396-3.716 2.723-8.583 6.251-11.668 2.009-6.186 4.203-12.188 7.084-17.502-1.033-4.086 .32-8.779-1.25-12.918-1.307-3.444-4.049-4.99-5.833-7.5-2.239,1.289-4.042-.395-6.251-.417-1.688-.017-6.296,.755-8.751,1.25-3.575,.722-7.425,2.264-11.668,3.333-2.496,.631-6.45,1.934-10,2.084-10.806,.46-26.494-3.335-29.586-10 7.632,3.851 22.695,3.145 29.586-.835 4.274-.03 7.757-.854 10.417-2.499 9.651-.892 19.919-1.663 27.086,2.082 2.748,1.437 3.883,4.203 6.667,5.002-1.157-5.931-5.805-10.312-9.584-14.168-4.109-4.193-9.223-6.803-15.001-9.168-11.461-4.692-24.562-8.076-35.836-12.919-2.041-.877-3.838-2.308-5.834-3.333-1.883-.967-4.793-1.383-5.417-3.751 9.785,3.05 23.857,1.378 35.42,3.335 5.296,.896 10.999,3.298 15.835,5.833 4.563,2.393 9.831,5.522 12.5,9.168 2.376,3.243 3.907,8.251 5.835,12.084 1.908,3.797 4.7,7.156 5.833,11.668 .339-3.395-1.767-6.491-2.917-9.584-1.127-3.031-2.535-6.188-3.75-9.168-2.486-6.094-4.729-12.791-8.334-17.502-1.072-1.4-2.636-2.465-3.75-3.75-3.131-3.613-5.529-8.46-8.751-12.502-4.638-5.819-12.329-10.728-18.334-15.418-4.408-3.44-7.693-5.926-11.251-10-1.789-2.046-3.273-4.761-5.417-7.084-2.697-2.921-6.637-4.863-8.334-8.751 4.887,.414 8.576,4.622 13.335,6.251 1.649,.565 3.253,.38 4.584,.833 3.333,1.136 6.638,3.195 10,5.417 5.565,3.68 11.578,7.73 14.585,14.168 4.368,2.742 8.796,4.927 12.918,8.333 3.424,2.83 5.968,6.793 8.334,11.252 5.306,10.003 7.356,24.058 7.917,39.17 .75,.778 1.947,1.108 2.083,2.501 1.711-11.59-2.202-21.802-4.167-31.253-1.154-5.552-1.856-9.98-3.75-14.586-1.627-3.957-3.905-7.508-6.25-11.667-4.383-7.772-7.289-16.549-10.418-25.835-1.488-4.416-3.468-8.875-5-13.336-.822-2.389-.912-5.042-1.667-7.5-.694-2.259-2.051-4.156-2.5-6.251-1.708-7.969-1.968-16.602-4.167-23.752 1.448-1.926 3.168,2.135 5,2.5 11.683,17.905 22.02,37.153 27.086,61.673 2.385,5.107 4.564,12.444 6.251,18.751 3.107,11.627 2.854,26.037 4.584,40.421 1.856-5.017 1.315-10.396 1.25-15.418-.274-21.201-4.422-42.081-7.917-61.673-.518-2.906-.542-6.006-1.25-8.751-.828-3.209-2.448-6.209-3.333-9.167-2.827-9.431-4.448-20.757-5.001-32.087-.819-16.762 3.608-33.875 .833-52.505 3.849,5.33 4.954,12.737 7.084,19.585 .652,2.094 2.046,4.261 2.5,6.251 .995,4.361 1.342,9.402 2.084,14.167 .747,4.799 1.085,9.745 1.667,14.586 1.125,9.351 2.716,18.868 3.751,28.336 1.047,9.578 1.652,18.687 3.333,27.918 .912,5.008 1.352,9.358 1.25,14.168-.188,8.895-2.255,18.882-.833,29.169 2.744-9.79 2.297-19.513 3.334-29.585 .179-1.745 1.068-3.281 1.25-5.002 .371-3.511 .199-7.937 0-11.667-.56-10.528-3.668-21.396-3.75-32.503-.042-5.646-.057-15.096 .417-22.919 .347-5.725 1.634-11.313 1.25-16.668-.719-10.033-2.587-19.791-2.084-31.253 .227-5.14 .833-10.377 1.667-15.417 1.112-6.721 4.662-13.772 2.917-21.669 .067-.448 .792-.277 .797-.828z"/>
</g>
</svg>
