<svg width="381.368" xmlns="http://www.w3.org/2000/svg" viewBox="0 0 381.36795 223.73292" height="223.7329" xmlns:xlink="http://www.w3.org/1999/xlink">
<defs>
<filter color-interpolation-filters="sRGB" id="filter3996-5">
<feGaussianBlur stdDeviation=".41118"/>
</filter>
<filter color-interpolation-filters="sRGB" id="filter4004-2">
<feGaussianBlur stdDeviation=".41122"/>
</filter>
<filter color-interpolation-filters="sRGB" id="filter4070-5">
<feGaussianBlur stdDeviation="1.41803"/>
</filter>
<filter color-interpolation-filters="sRGB" id="filter4084-9">
<feGaussianBlur stdDeviation=".70902"/>
</filter>
</defs>
<g fill="#e5e5e5">
<path d="m190.6638,15.0321c-97.85,0-177.16,79.31-177.16,177.16 0,6.9496 .409,13.79 1.1875,20.531h351.94c.7785-6.7409 1.1875-13.582 1.1875-20.531 0-97.846-79.311-177.16-177.16-177.16z"/>
<path d="m13.518,191.8711a177.1613,177.1649 0 0,1 354.3227,.0696l-177.1613-.1559z"/>
</g>
<path fill="#b6b6b6" filter="url(#filter3996-5)" stroke="#858585" d="m127.28,413.95a171.22,70.206 0 0,1 342.44,.0393" transform="matrix(.87622 0 0 2.1243 -70.86823 -688.84786)"/>
<path fill="#e5e5e5" filter="url(#filter4004-2)" stroke="#996060" d="m127.28,413.97a171.22,70.206 0 1,1 342.44,.0394" transform="matrix(.5691 0 0 1.3879 20.81377 -382.75786)"/>
<g transform="matrix(-1 0 0 1 491.63377 -189.31786)">
<path fill="#ffd001" d="m301.19,230.54v53.156c10.481,0 20.57,1.656 30.031,4.7188l16.312-50.281c-14.397-4.8256-29.927-7.1432-46.344-7.5938z"/>
<path fill="#f7ac15" d="m298.31,230.79c-14.27,.1864-28.826,2.7395-43.594,7.0938l16.438,50.531c9.4519-3.0597 19.53-4.7155 30-4.7188v-52.906c-.949-.009-1.8924-.0124-2.8438,0z"/>
<path fill="#f59502" d="m254.78,238.13c-14.484,4.5584-28.392,11.84-41.938,21.125l31.188,42.938c8.1653-5.9227 17.293-10.605 27.094-13.781l-16.344-50.281z"/>
<path fill="#f66013" d="m212.97,259.47c-12.366,8.8111-23.392,20.015-33.406,33.031l42.906,31.156c6.0192-8.2308 13.307-15.481 21.562-21.469l-31.062-42.719z"/>
<path fill="#f93817" d="m179.78,292.66c-9.0384,12.201-16.061,26.276-21.562,41.75l50.375,16.344c3.2141-9.8027 7.911-18.938 13.875-27.094l-42.688-31z"/>
<path fill="#fa0001" d="m158.47,334.51c-4.8256,14.531-7.1432,30.206-7.5937,46.774h52.875c.0296-10.596 1.7423-20.785 4.8438-30.342l-50.125-16.433z"/>
<path fill="#f4e216" d="m347.63,237.88-16.406,50.531c9.8061,3.1744 18.924,7.8572 27.094,13.781l31.031-42.75c-12.201-9.0384-26.245-16.061-41.719-21.562z"/>
<path fill="#d8ee21" d="m389.53,259.26-31.188,42.938c8.2497,5.9852 15.515,13.243 21.531,21.469l42.688-31.031c-8.8111-12.366-20.015-23.361-33.031-33.375z"/>
<path fill="#b1d211" d="m422.78,292.51-42.906,31.156c5.9605,8.1493 10.691,17.268 13.906,27.062l50.094-16.281c-4.5585-14.484-11.809-28.392-21.094-41.938z"/>
<path fill="#9bb714" d="m444.13,334.41-50.344,16.452c3.1043,9.53 4.8109,19.694 4.8438,30.261h52.625c.1404-15.284-2.4806-30.856-7.125-46.712z"/>
</g>
<g fill="none">
<g stroke="#fff" stroke-width="2">
<path d="m190.6838,14.6421 .006,79.724"/>
<path d="m135.9338,23.3121 24.642,75.821"/>
<path d="m86.5538,48.4821 46.866,64.495"/>
<path d="m47.3538,87.6721 64.502,46.856"/>
<path d="m22.1938,137.0621 75.824,24.63"/>
<path d="m245.4338,23.3121-24.63,75.824"/>
<path d="m294.8238,48.4721-46.856,64.502"/>
<path d="m334.0138,87.6721-64.495,46.866"/>
<path d="m359.1838,137.0521-75.821,24.642"/>
</g>
<g stroke-width="10.481">
<path stroke-opacity=".995" filter="url(#filter4084-9)" stroke="#d0d0d0" d="m190.6838,6.9421c-100.54,0-182.04,81.496-182.04,182.04 0,7.1411 .4203,14.17 1.2202,21.097h361.64c.7998-6.9267 1.2202-13.956 1.2202-21.097 0-100.54-81.496-182.04-182.04-182.04z"/>
<path stroke-opacity=".792" filter="url(#filter4070-5)" stroke="#000" d="m190.6838,11.9521c-100.54,0-182.04,81.496-182.04,182.04 0,7.1411 .4203,14.17 1.2202,21.097h361.64c.7998-6.9267 1.2202-13.956 1.2202-21.097 0-100.54-81.496-182.04-182.04-182.04z"/>
<path stroke="#9f9f9f" d="m190.6838,9.4421c-100.54,0-182.04,81.496-182.04,182.04 0,7.1411 .4203,14.17 1.2202,21.097h361.64c.7998-6.9267 1.2202-13.956 1.2202-21.097 0-100.54-81.496-182.04-182.04-182.04z"/>
</g>
</g>
</svg>
