<svg xmlns="http://www.w3.org/2000/svg" viewBox="0 0 250 500" xmlns:xlink="http://www.w3.org/1999/xlink">
<defs>
<linearGradient id="linearGradient8068" y1="877.17" y2="875.75" x1="137.11" gradientUnits="userSpaceOnUse" x2="116.08">
<stop offset="0" stop-color="#e2e3db"/>
<stop offset="1" stop-color="#e2e3db" stop-opacity="0"/>
</linearGradient>
<linearGradient gradientTransform="matrix(.48553 0 0 .48553 -50.345 719.03)" id="linearGradient8032" y1="667.56" y2="583.37" x1="330.66" gradientUnits="userSpaceOnUse" x2="333.81">
<stop offset="0" stop-color="#112b00"/>
<stop offset=".5" stop-color="#006a00"/>
<stop offset="1" stop-color="#008000"/>
</linearGradient>
<linearGradient gradientTransform="matrix(.69493 0 0 .69493 -122.32 582.07)" id="linearGradient8052" y1="628.69" y2="605.26" x1="346.82" gradientUnits="userSpaceOnUse" x2="341.26">
<stop offset="0" stop-color="#0a0"/>
<stop offset="1" stop-color="#2ca02c"/>
</linearGradient>
<linearGradient id="linearGradient8005">
<stop offset="0" stop-color="#e8d0a4"/>
<stop offset="1" stop-color="#fbe8bf"/>
</linearGradient>
<linearGradient gradientTransform="translate(47.61 366.12)" id="linearGradient8011" xlink:href="#linearGradient8005" x1="48.101" gradientUnits="userSpaceOnUse" x2="99.195"/>
<linearGradient gradientTransform="matrix(-1 0 0 2.2387 193.94 -129.71)" id="linearGradient8020" xlink:href="#linearGradient8005" x1="48.101" gradientUnits="userSpaceOnUse" x2="99.195"/>
<linearGradient gradientTransform="matrix(88.93 3.0783 -3.0783 88.93 96.216 900.99)" id="linearGradient5856" gradientUnits="userSpaceOnUse">
<stop offset="0" stop-color="#fce9c0"/>
<stop offset=".573" stop-color="#d7ba8c"/>
<stop offset="1" stop-color="#bd9070"/>
</linearGradient>
<radialGradient cx="0" cy="0" gradientTransform="matrix(33.946 4.0536 4.2956 -35.972 35.698 312.29)" id="radialGradient1924" r="1" gradientUnits="userSpaceOnUse">
<stop offset="0" stop-color="#fff"/>
<stop offset="1" stop-color="#d1d3d4"/>
</radialGradient>
<radialGradient cx="0" cy="0" gradientTransform="matrix(40.585 18.11 11.965 -26.814 12.897 263.77)" id="radialGradient1864" r="1" gradientUnits="userSpaceOnUse">
<stop offset="0" stop-color="#fff"/>
<stop offset="1" stop-color="#d1d3d4"/>
</radialGradient>
<radialGradient cx="0" cy="0" gradientTransform="matrix(22.139 -32.788 -44.171 -29.825 50.84 329.81)" id="radialGradient1944" r="1" gradientUnits="userSpaceOnUse">
<stop offset="0" stop-color="#fff"/>
<stop offset="1" stop-color="#d1d3d4"/>
</radialGradient>
<radialGradient cx="0" cy="0" gradientTransform="matrix(16.337 4.677 4.506 -15.74 93.309 199.76)" id="radialGradient1724" r="1" gradientUnits="userSpaceOnUse">
<stop offset="0" stop-color="#fff"/>
<stop offset="1" stop-color="#d1d3d4"/>
</radialGradient>
<radialGradient cx="0" cy="0" gradientTransform="matrix(40.49 9.8142 8.7749 -36.202 26.395 295.33)" id="radialGradient1904" r="1" gradientUnits="userSpaceOnUse">
<stop offset="0" stop-color="#fff"/>
<stop offset="1" stop-color="#d1d3d4"/>
</radialGradient>
<radialGradient cx="0" cy="0" gradientTransform="matrix(12.425 -7.678 -7.0431 -11.398 148.25 251)" id="radialGradient1764" r="1" gradientUnits="userSpaceOnUse">
<stop offset="0" stop-color="#fff"/>
<stop offset="1" stop-color="#d1d3d4"/>
</radialGradient>
<radialGradient cx="0" cy="0" gradientTransform="matrix(17.57 -19.736 -22.989 -20.466 124.29 218.44)" id="radialGradient1824" r="1" gradientUnits="userSpaceOnUse">
<stop offset="0" stop-color="#fff"/>
<stop offset="1" stop-color="#d1d3d4"/>
</radialGradient>
<radialGradient cx="0" cy="0" gradientTransform="matrix(9.1129 -9.8969 -9.8969 -9.1129 136.94 224.73)" id="radialGradient1744" r="1" gradientUnits="userSpaceOnUse">
<stop offset="0" stop-color="#fff"/>
<stop offset="1" stop-color="#d1d3d4"/>
</radialGradient>
<radialGradient cx="0" cy="0" gradientTransform="matrix(9.3301 -5.0412 -5.0412 -9.3301 142.41 238.6)" id="radialGradient1804" r="1" gradientUnits="userSpaceOnUse">
<stop offset="0" stop-color="#fff"/>
<stop offset="1" stop-color="#d1d3d4"/>
</radialGradient>
<radialGradient cx="0" cy="0" gradientTransform="matrix(22.023 7.9851 9.0484 -24.956 5.2358 247.35)" id="radialGradient1844" r="1" gradientUnits="userSpaceOnUse">
<stop offset="0" stop-color="#fff"/>
<stop offset="1" stop-color="#d1d3d4"/>
</radialGradient>
<radialGradient cx="0" cy="0" gradientTransform="matrix(28.63 10.719 13.006 -34.739 19.83 280.01)" id="radialGradient1884" r="1" gradientUnits="userSpaceOnUse">
<stop offset="0" stop-color="#fff"/>
<stop offset="1" stop-color="#d1d3d4"/>
</radialGradient>
<radialGradient cx="0" cy="0" gradientTransform="matrix(9.0202 -4.9982 -4.641 -8.3755 144.24 249.54)" id="radialGradient1564" r="1" gradientUnits="userSpaceOnUse">
<stop offset="0" stop-color="#fff"/>
<stop offset="1" stop-color="#d1d3d4"/>
</radialGradient>
<radialGradient cx="0" cy="0" gradientTransform="matrix(14.949 6.6042 5.545 -12.551 109.58 212.33)" id="radialGradient1664" r="1" gradientUnits="userSpaceOnUse">
<stop offset="0" stop-color="#fff"/>
<stop offset="1" stop-color="#d1d3d4"/>
</radialGradient>
<radialGradient cx="0" cy="0" gradientTransform="matrix(36.24 -3.7488 -2.9074 -28.106 81.12 202.11)" id="radialGradient1704" r="1" gradientUnits="userSpaceOnUse">
<stop offset="0" stop-color="#fff"/>
<stop offset="1" stop-color="#d1d3d4"/>
</radialGradient>
<radialGradient cx="0" cy="0" gradientTransform="matrix(15.114 4.0215 3.1085 -11.683 95.351 208.68)" id="radialGradient1684" r="1" gradientUnits="userSpaceOnUse">
<stop offset="0" stop-color="#fff"/>
<stop offset="1" stop-color="#d1d3d4"/>
</radialGradient>
<radialGradient cx="0" cy="0" gradientTransform="matrix(15.264 -17.707 -20.074 -17.304 86.229 324.7)" id="radialGradient984" r="1" gradientUnits="userSpaceOnUse">
<stop offset="0" stop-color="#fff"/>
<stop offset="1" stop-color="#d1d3d4"/>
</radialGradient>
<radialGradient cx="0" cy="0" gradientTransform="matrix(6.6895 5.0539 5.2355 -6.93 121.07 223.64)" id="radialGradient1644" r="1" gradientUnits="userSpaceOnUse">
<stop offset="0" stop-color="#fff"/>
<stop offset="1" stop-color="#d1d3d4"/>
</radialGradient>
<radialGradient cx="0" cy="0" gradientTransform="matrix(11.695 -10.922 -10.922 -11.695 123.8 233.13)" id="radialGradient1604" r="1" gradientUnits="userSpaceOnUse">
<stop offset="0" stop-color="#fff"/>
<stop offset="1" stop-color="#d1d3d4"/>
</radialGradient>
<radialGradient cx="0" cy="0" gradientTransform="matrix(17.97 -5.8409 -6.818 -20.976 151.17 263.41)" id="radialGradient1544" r="1" gradientUnits="userSpaceOnUse">
<stop offset="0" stop-color="#fff"/>
<stop offset="1" stop-color="#d1d3d4"/>
</radialGradient>
<radialGradient cx="0" cy="0" gradientTransform="matrix(14.034 -5.7992 -4.8764 -11.801 139.13 259.03)" id="radialGradient1504" r="1" gradientUnits="userSpaceOnUse">
<stop offset="0" stop-color="#fff"/>
<stop offset="1" stop-color="#d1d3d4"/>
</radialGradient>
<radialGradient cx="0" cy="0" gradientTransform="matrix(13.955 -3.2114 -3.9604 -17.21 158.46 264.5)" id="radialGradient1784" r="1" gradientUnits="userSpaceOnUse">
<stop offset="0" stop-color="#fff"/>
<stop offset="1" stop-color="#d1d3d4"/>
</radialGradient>
<radialGradient cx="0" cy="0" gradientTransform="matrix(8.186 -7.8078 -8.3289 -8.7324 134.39 236.41)" id="radialGradient1584" r="1" gradientUnits="userSpaceOnUse">
<stop offset="0" stop-color="#fff"/>
<stop offset="1" stop-color="#d1d3d4"/>
</radialGradient>
<radialGradient cx="0" cy="0" gradientTransform="matrix(9.2285 -7.2702 -8.0944 -10.275 132.2 245.16)" id="radialGradient1524" r="1" gradientUnits="userSpaceOnUse">
<stop offset="0" stop-color="#fff"/>
<stop offset="1" stop-color="#d1d3d4"/>
</radialGradient>
<radialGradient cx="0" cy="0" gradientTransform="matrix(21.002 -7.2474 -8.1422 -23.595 63.974 210.51)" id="radialGradient1144" r="1" gradientUnits="userSpaceOnUse">
<stop offset="0" stop-color="#fff"/>
<stop offset="1" stop-color="#d1d3d4"/>
</radialGradient>
<radialGradient cx="0" cy="0" gradientTransform="matrix(27.987 -14.218 -7.4147 -14.596 113.23 353.88)" id="radialGradient1424" r="1" gradientUnits="userSpaceOnUse">
<stop offset="0" stop-color="#fff"/>
<stop offset="1" stop-color="#d1d3d4"/>
</radialGradient>
<radialGradient cx="0" cy="0" gradientTransform="matrix(12.701 -3.4638 -4.0139 -14.717 147.88 276.54)" id="radialGradient1484" r="1" gradientUnits="userSpaceOnUse">
<stop offset="0" stop-color="#fff"/>
<stop offset="1" stop-color="#d1d3d4"/>
</radialGradient>
<radialGradient cx="0" cy="0" gradientTransform="matrix(7.4088 1.0654 1.3437 -9.344 155.91 294.78)" id="radialGradient1444" r="1" gradientUnits="userSpaceOnUse">
<stop offset="0" stop-color="#fff"/>
<stop offset="1" stop-color="#d1d3d4"/>
</radialGradient>
<radialGradient cx="0" cy="0" gradientTransform="matrix(18.438 -5.274 -4.2187 -14.749 65.807 203.79)" id="radialGradient1224" r="1" gradientUnits="userSpaceOnUse">
<stop offset="0" stop-color="#fff"/>
<stop offset="1" stop-color="#d1d3d4"/>
</radialGradient>
<radialGradient cx="0" cy="0" gradientTransform="matrix(28.194 -15.377 -7.2342 -13.264 100.82 353.16)" id="radialGradient1404" r="1" gradientUnits="userSpaceOnUse">
<stop offset="0" stop-color="#fff"/>
<stop offset="1" stop-color="#d1d3d4"/>
</radialGradient>
<radialGradient cx="0" cy="0" gradientTransform="matrix(26.721 0 0 -26.721 65.068 327.25)" id="radialGradient1364" r="1" gradientUnits="userSpaceOnUse">
<stop offset="0" stop-color="#fff"/>
<stop offset="1" stop-color="#d1d3d4"/>
</radialGradient>
<radialGradient cx="0" cy="0" gradientTransform="matrix(19.433 0 0 -19.433 40.624 298.43)" id="radialGradient1324" r="1" gradientUnits="userSpaceOnUse">
<stop offset="0" stop-color="#fff"/>
<stop offset="1" stop-color="#d1d3d4"/>
</radialGradient>
<radialGradient cx="0" cy="0" gradientTransform="matrix(17.009 8.9982 10.057 -19.011 23.113 235.31)" id="radialGradient1244" r="1" gradientUnits="userSpaceOnUse">
<stop offset="0" stop-color="#fff"/>
<stop offset="1" stop-color="#d1d3d4"/>
</radialGradient>
<radialGradient cx="0" cy="0" gradientTransform="matrix(16.77 6.5501 6.0904 -15.593 30.774 282.01)" id="radialGradient1304" r="1" gradientUnits="userSpaceOnUse">
<stop offset="0" stop-color="#fff"/>
<stop offset="1" stop-color="#d1d3d4"/>
</radialGradient>
<radialGradient cx="0" cy="0" gradientTransform="matrix(18.922 -7.6785 -7.6785 -18.922 51.935 312.66)" id="radialGradient1344" r="1" gradientUnits="userSpaceOnUse">
<stop offset="0" stop-color="#fff"/>
<stop offset="1" stop-color="#d1d3d4"/>
</radialGradient>
<radialGradient cx="0" cy="0" gradientTransform="matrix(29.224 18.706 18.063 -28.22 20.193 246.62)" id="radialGradient1264" r="1" gradientUnits="userSpaceOnUse">
<stop offset="0" stop-color="#fff"/>
<stop offset="1" stop-color="#d1d3d4"/>
</radialGradient>
<radialGradient cx="0" cy="0" gradientTransform="matrix(26.198 -14.903 -13.67 -24.03 80.392 337.47)" id="radialGradient1384" r="1" gradientUnits="userSpaceOnUse">
<stop offset="0" stop-color="#fff"/>
<stop offset="1" stop-color="#d1d3d4"/>
</radialGradient>
<radialGradient cx="0" cy="0" gradientTransform="matrix(17.614 -16.401 -12.968 -13.927 34.422 219.63)" id="radialGradient1184" r="1" gradientUnits="userSpaceOnUse">
<stop offset="0" stop-color="#fff"/>
<stop offset="1" stop-color="#d1d3d4"/>
</radialGradient>
<radialGradient cx="0" cy="0" gradientTransform="matrix(21.14 -12.311 -10.925 -18.76 52.664 210.5)" id="radialGradient1204" r="1" gradientUnits="userSpaceOnUse">
<stop offset="0" stop-color="#fff"/>
<stop offset="1" stop-color="#d1d3d4"/>
</radialGradient>
<radialGradient cx="0" cy="0" gradientTransform="matrix(11.907 7.248 6.5556 -10.77 109.94 217.8)" id="radialGradient1624" r="1" gradientUnits="userSpaceOnUse">
<stop offset="0" stop-color="#fff"/>
<stop offset="1" stop-color="#d1d3d4"/>
</radialGradient>
<radialGradient cx="0" cy="0" gradientTransform="matrix(10.062 7.2542 7.2542 -10.062 29.68 240.06)" id="radialGradient1124" r="1" gradientUnits="userSpaceOnUse">
<stop offset="0" stop-color="#fff"/>
<stop offset="1" stop-color="#d1d3d4"/>
</radialGradient>
<radialGradient cx="0" cy="0" gradientTransform="matrix(15.445 -2.7721 -2.8952 -16.13 157.74 276.9)" id="radialGradient1464" r="1" gradientUnits="userSpaceOnUse">
<stop offset="0" stop-color="#fff"/>
<stop offset="1" stop-color="#d1d3d4"/>
</radialGradient>
<radialGradient cx="0" cy="0" gradientTransform="matrix(18.84 -4.5829 -3.923 -16.127 82.201 209.82)" id="radialGradient1164" r="1" gradientUnits="userSpaceOnUse">
<stop offset="0" stop-color="#fff"/>
<stop offset="1" stop-color="#d1d3d4"/>
</radialGradient>
<radialGradient cx="0" cy="0" gradientTransform="matrix(22.931 -12.011 -12.614 -24.081 49.746 280.92)" id="radialGradient1044" r="1" gradientUnits="userSpaceOnUse">
<stop offset="0" stop-color="#fff"/>
<stop offset="1" stop-color="#d1d3d4"/>
</radialGradient>
<radialGradient cx="0" cy="0" gradientTransform="matrix(14.051 -9.7093 -8.6313 -12.491 44.273 224.74)" id="radialGradient1104" r="1" gradientUnits="userSpaceOnUse">
<stop offset="0" stop-color="#fff"/>
<stop offset="1" stop-color="#d1d3d4"/>
</radialGradient>
<radialGradient cx="0" cy="0" gradientTransform="matrix(16.177 14.307 15.578 -17.616 39.53 265.96)" id="radialGradient1064" r="1" gradientUnits="userSpaceOnUse">
<stop offset="0" stop-color="#fff"/>
<stop offset="1" stop-color="#d1d3d4"/>
</radialGradient>
<radialGradient cx="0" cy="0" gradientTransform="matrix(26.622 22.455 19.617 -23.257 32.416 251)" id="radialGradient1084" r="1" gradientUnits="userSpaceOnUse">
<stop offset="0" stop-color="#fff"/>
<stop offset="1" stop-color="#d1d3d4"/>
</radialGradient>
<radialGradient cx="0" cy="0" gradientTransform="matrix(24.184 -10.365 -10.365 -24.184 74.007 313.39)" id="radialGradient1004" r="1" gradientUnits="userSpaceOnUse">
<stop offset="0" stop-color="#fff"/>
<stop offset="1" stop-color="#d1d3d4"/>
</radialGradient>
<radialGradient cx="0" cy="0" gradientTransform="matrix(23.281 0 0 -23.281 61.42 295.88)" id="radialGradient1024" r="1" gradientUnits="userSpaceOnUse">
<stop offset="0" stop-color="#fff"/>
<stop offset="1" stop-color="#d1d3d4"/>
</radialGradient>
<radialGradient cx="0" cy="0" gradientTransform="matrix(17.771 -7.2599 -7.5504 -18.482 98.998 240.42)" id="radialGradient344" r="1" gradientUnits="userSpaceOnUse">
<stop offset="0" stop-color="#fff"/>
<stop offset="1" stop-color="#d1d3d4"/>
</radialGradient>
<radialGradient cx="0" cy="0" gradientTransform="matrix(22.522 -21.318 -21.318 -22.522 107.75 332.73)" id="radialGradient944" r="1" gradientUnits="userSpaceOnUse">
<stop offset="0" stop-color="#fff"/>
<stop offset="1" stop-color="#d1d3d4"/>
</radialGradient>
<radialGradient cx="0" cy="0" gradientTransform="matrix(17.413 15.338 17.728 -20.126 115.41 343.31)" id="radialGradient964" r="1" gradientUnits="userSpaceOnUse">
<stop offset="0" stop-color="#fff"/>
<stop offset="1" stop-color="#d1d3d4"/>
</radialGradient>
<radialGradient cx="0" cy="0" gradientTransform="matrix(-7.5963 -3.4364 -4.7206 10.435 147.52 312.66)" id="radialGradient904" r="1" gradientUnits="userSpaceOnUse">
<stop offset="0" stop-color="#fff"/>
<stop offset="1" stop-color="#d1d3d4"/>
</radialGradient>
<radialGradient cx="0" cy="0" gradientTransform="matrix(16.724 9.441 9.3363 -16.539 145.7 307.55)" id="radialGradient884" r="1" gradientUnits="userSpaceOnUse">
<stop offset="0" stop-color="#fff"/>
<stop offset="1" stop-color="#d1d3d4"/>
</radialGradient>
<radialGradient cx="0" cy="0" gradientTransform="matrix(12.276 -12.726 -14.05 -13.553 43.543 239.33)" id="radialGradient744" r="1" gradientUnits="userSpaceOnUse">
<stop offset="0" stop-color="#fff"/>
<stop offset="1" stop-color="#d1d3d4"/>
</radialGradient>
<radialGradient cx="0" cy="0" gradientTransform="matrix(14.071 -1.7848 -1.531 -12.07 150.07 296.24)" id="radialGradient924" r="1" gradientUnits="userSpaceOnUse">
<stop offset="0" stop-color="#fff"/>
<stop offset="1" stop-color="#d1d3d4"/>
</radialGradient>
<radialGradient cx="0" cy="0" gradientTransform="matrix(12.691 -9.1112 -8.0726 -11.244 128.19 255.38)" id="radialGradient824" r="1" gradientUnits="userSpaceOnUse">
<stop offset="0" stop-color="#fff"/>
<stop offset="1" stop-color="#d1d3d4"/>
</radialGradient>
<radialGradient cx="0" cy="0" gradientTransform="matrix(15.316 3.3599 3.2545 -14.835 141.68 291.5)" id="radialGradient864" r="1" gradientUnits="userSpaceOnUse">
<stop offset="0" stop-color="#fff"/>
<stop offset="1" stop-color="#d1d3d4"/>
</radialGradient>
<radialGradient cx="0" cy="0" gradientTransform="matrix(14.462 -8.9753 -12.245 -19.731 108.48 228.75)" id="radialGradient784" r="1" gradientUnits="userSpaceOnUse">
<stop offset="0" stop-color="#fff"/>
<stop offset="1" stop-color="#d1d3d4"/>
</radialGradient>
<radialGradient cx="0" cy="0" gradientTransform="matrix(15.743 1.5434 1.7412 -17.761 93.16 216.71)" id="radialGradient764" r="1" gradientUnits="userSpaceOnUse">
<stop offset="0" stop-color="#fff"/>
<stop offset="1" stop-color="#d1d3d4"/>
</radialGradient>
<radialGradient cx="0" cy="0" gradientTransform="matrix(19.635 0 0 -19.635 136.58 273.26)" id="radialGradient844" r="1" gradientUnits="userSpaceOnUse">
<stop offset="0" stop-color="#fff"/>
<stop offset="1" stop-color="#d1d3d4"/>
</radialGradient>
<radialGradient cx="0" cy="0" gradientTransform="matrix(20.931 -9.3176 -9.3176 -20.931 49.927 252.64)" id="radialGradient724" r="1" gradientUnits="userSpaceOnUse">
<stop offset="0" stop-color="#fff"/>
<stop offset="1" stop-color="#d1d3d4"/>
</radialGradient>
<radialGradient cx="0" cy="0" gradientTransform="matrix(18.025 -16.254 -16.254 -18.025 61.055 232.4)" id="radialGradient704" r="1" gradientUnits="userSpaceOnUse">
<stop offset="0" stop-color="#fff"/>
<stop offset="1" stop-color="#d1d3d4"/>
</radialGradient>
<radialGradient cx="0" cy="0" gradientTransform="matrix(16.38 1.9812 2.2976 -18.995 90.424 231.85)" id="radialGradient564" r="1" gradientUnits="userSpaceOnUse">
<stop offset="0" stop-color="#fff"/>
<stop offset="1" stop-color="#d1d3d4"/>
</radialGradient>
<radialGradient cx="0" cy="0" gradientTransform="matrix(7.4787 14.17 14.17 -7.4787 57.772 224.73)" id="radialGradient664" r="1" gradientUnits="userSpaceOnUse">
<stop offset="0" stop-color="#fff"/>
<stop offset="1" stop-color="#d1d3d4"/>
</radialGradient>
<radialGradient cx="0" cy="0" gradientTransform="matrix(25.394 -14.702 -14.702 -25.394 80.391 229.84)" id="radialGradient644" r="1" gradientUnits="userSpaceOnUse">
<stop offset="0" stop-color="#fff"/>
<stop offset="1" stop-color="#d1d3d4"/>
</radialGradient>
<radialGradient cx="0" cy="0" gradientTransform="matrix(28.804 -26.957 -40.627 -43.411 59.778 339.66)" id="radialGradient1964" r="1" gradientUnits="userSpaceOnUse">
<stop offset="0" stop-color="#fff"/>
<stop offset="1" stop-color="#d1d3d4"/>
</radialGradient>
<radialGradient cx="0" cy="0" gradientTransform="matrix(18.058 -7.3872 -7.8092 -19.089 74.554 218.9)" id="radialGradient684" r="1" gradientUnits="userSpaceOnUse">
<stop offset="0" stop-color="#fff"/>
<stop offset="1" stop-color="#d1d3d4"/>
</radialGradient>
<radialGradient cx="0" cy="0" gradientTransform="matrix(12.762 -11.169 -9.8266 -11.228 130.74 328.35)" id="radialGradient584" r="1" gradientUnits="userSpaceOnUse">
<stop offset="0" stop-color="#fff"/>
<stop offset="1" stop-color="#d1d3d4"/>
</radialGradient>
<radialGradient cx="0" cy="0" gradientTransform="matrix(12.357 9.1155 9.1155 -12.357 141.32 325.43)" id="radialGradient624" r="1" gradientUnits="userSpaceOnUse">
<stop offset="0" stop-color="#fff"/>
<stop offset="1" stop-color="#d1d3d4"/>
</radialGradient>
<radialGradient cx="0" cy="0" gradientTransform="matrix(19.866 0 0 -19.866 90.606 309.38)" id="radialGradient544" r="1" gradientUnits="userSpaceOnUse">
<stop offset="0" stop-color="#fff"/>
<stop offset="1" stop-color="#d1d3d4"/>
</radialGradient>
<radialGradient cx="0" cy="0" gradientTransform="matrix(15.903 5.5924 5.5924 -15.903 115.6 323.79)" id="radialGradient524" r="1" gradientUnits="userSpaceOnUse">
<stop offset="0" stop-color="#fff"/>
<stop offset="1" stop-color="#d1d3d4"/>
</radialGradient>
<radialGradient cx="0" cy="0" gradientTransform="matrix(16.653 -12.316 -11.271 -15.24 128.18 340.39)" id="radialGradient604" r="1" gradientUnits="userSpaceOnUse">
<stop offset="0" stop-color="#fff"/>
<stop offset="1" stop-color="#d1d3d4"/>
</radialGradient>
<radialGradient cx="0" cy="0" gradientTransform="matrix(19.587 -15.329 -17.484 -22.34 121.25 240.79)" id="radialGradient804" r="1" gradientUnits="userSpaceOnUse">
<stop offset="0" stop-color="#fff"/>
<stop offset="1" stop-color="#d1d3d4"/>
</radialGradient>
<radialGradient cx="0" cy="0" gradientTransform="matrix(19.145 2.7349 2.7349 -19.145 134.02 313.02)" id="radialGradient444" r="1" gradientUnits="userSpaceOnUse">
<stop offset="0" stop-color="#fff"/>
<stop offset="1" stop-color="#d1d3d4"/>
</radialGradient>
<radialGradient cx="0" cy="0" gradientTransform="matrix(14.593 0 0 -14.593 100.82 319.59)" id="radialGradient504" r="1" gradientUnits="userSpaceOnUse">
<stop offset="0" stop-color="#fff"/>
<stop offset="1" stop-color="#d1d3d4"/>
</radialGradient>
<radialGradient cx="0" cy="0" gradientTransform="matrix(16.959 2.165 2.165 -16.959 112.31 308.46)" id="radialGradient464" r="1" gradientUnits="userSpaceOnUse">
<stop offset="0" stop-color="#fff"/>
<stop offset="1" stop-color="#d1d3d4"/>
</radialGradient>
<radialGradient cx="0" cy="0" gradientTransform="matrix(23.088 0 0 -23.088 71.271 278.73)" id="radialGradient264" r="1" gradientUnits="userSpaceOnUse">
<stop offset="0" stop-color="#fff"/>
<stop offset="1" stop-color="#d1d3d4"/>
</radialGradient>
<radialGradient cx="0" cy="0" gradientTransform="matrix(13.487 1.3253 1.2017 -12.229 127.46 294.42)" id="radialGradient424" r="1" gradientUnits="userSpaceOnUse">
<stop offset="0" stop-color="#fff"/>
<stop offset="1" stop-color="#d1d3d4"/>
</radialGradient>
<radialGradient cx="0" cy="0" gradientTransform="matrix(17.542 0 0 -17.542 123.81 274.72)" id="radialGradient384" r="1" gradientUnits="userSpaceOnUse">
<stop offset="0" stop-color="#fff"/>
<stop offset="1" stop-color="#d1d3d4"/>
</radialGradient>
<radialGradient cx="0" cy="0" gradientTransform="matrix(22.051 0 0 -22.051 84.771 240.06)" id="radialGradient324" r="1" gradientUnits="userSpaceOnUse">
<stop offset="0" stop-color="#fff"/>
<stop offset="1" stop-color="#d1d3d4"/>
</radialGradient>
<radialGradient cx="0" cy="0" gradientTransform="matrix(21.649 0 0 -21.649 57.589 264.14)" id="radialGradient284" r="1" gradientUnits="userSpaceOnUse">
<stop offset="0" stop-color="#fff"/>
<stop offset="1" stop-color="#d1d3d4"/>
</radialGradient>
<radialGradient cx="0" cy="0" gradientTransform="matrix(18.599 7.2966 7.8624 -20.042 25.302 261.95)" id="radialGradient1284" r="1" gradientUnits="userSpaceOnUse">
<stop offset="0" stop-color="#fff"/>
<stop offset="1" stop-color="#d1d3d4"/>
</radialGradient>
<radialGradient cx="0" cy="0" gradientTransform="matrix(19.355 -5.53 -5.53 -19.355 113.59 256.11)" id="radialGradient364" r="1" gradientUnits="userSpaceOnUse">
<stop offset="0" stop-color="#fff"/>
<stop offset="1" stop-color="#d1d3d4"/>
</radialGradient>
<radialGradient cx="0" cy="0" gradientTransform="matrix(19.461 0 0 -19.461 62.514 246.99)" id="radialGradient304" r="1" gradientUnits="userSpaceOnUse">
<stop offset="0" stop-color="#fff"/>
<stop offset="1" stop-color="#d1d3d4"/>
</radialGradient>
<radialGradient cx="0" cy="0" gradientTransform="matrix(24.187 0 0 -24.187 109.03 289.31)" id="radialGradient404" r="1" gradientUnits="userSpaceOnUse">
<stop offset="0" stop-color="#fff"/>
<stop offset="1" stop-color="#d1d3d4"/>
</radialGradient>
<radialGradient cx="0" cy="0" gradientTransform="matrix(22.701 0 0 -22.701 95.349 259.39)" id="radialGradient224" r="1" gradientUnits="userSpaceOnUse">
<stop offset="0" stop-color="#fff"/>
<stop offset="1" stop-color="#d1d3d4"/>
</radialGradient>
<radialGradient cx="0" cy="0" gradientTransform="matrix(17.648 0 0 -17.648 73.095 259.76)" id="radialGradient244" r="1" gradientUnits="userSpaceOnUse">
<stop offset="0" stop-color="#fff"/>
<stop offset="1" stop-color="#d1d3d4"/>
</radialGradient>
<radialGradient cx="0" cy="0" gradientTransform="matrix(23.987 0 0 -23.987 94.255 292.05)" id="radialGradient184" r="1" gradientUnits="userSpaceOnUse">
<stop offset="0" stop-color="#fff"/>
<stop offset="1" stop-color="#d1d3d4"/>
</radialGradient>
<radialGradient cx="0" cy="0" gradientTransform="matrix(25.161 0 0 -25.161 81.851 293.69)" id="radialGradient164" r="1" gradientUnits="userSpaceOnUse">
<stop offset="0" stop-color="#fff"/>
<stop offset="1" stop-color="#d1d3d4"/>
</radialGradient>
<radialGradient cx="0" cy="0" gradientTransform="matrix(13.593 0 0 -13.593 99.728 304.63)" id="radialGradient484" r="1" gradientUnits="userSpaceOnUse">
<stop offset="0" stop-color="#fff"/>
<stop offset="1" stop-color="#d1d3d4"/>
</radialGradient>
<radialGradient cx="0" cy="0" gradientTransform="matrix(23.36 0 0 -23.36 105.93 274.72)" id="radialGradient204" r="1" gradientUnits="userSpaceOnUse">
<stop offset="0" stop-color="#fff"/>
<stop offset="1" stop-color="#d1d3d4"/>
</radialGradient>
<radialGradient cx="0" cy="0" gradientTransform="matrix(29.879 -13.409 -13.923 -31.024 69.63 346.22)" id="radialGradient2004" r="1" gradientUnits="userSpaceOnUse">
<stop offset="0" stop-color="#fff"/>
<stop offset="1" stop-color="#d1d3d4"/>
</radialGradient>
<radialGradient cx="0" cy="0" gradientTransform="matrix(27.015 0 0 -27.015 85.135 276.91)" id="radialGradient144" r="1" gradientUnits="userSpaceOnUse">
<stop offset="0" stop-color="#fff"/>
<stop offset="1" stop-color="#d1d3d4"/>
</radialGradient>
<radialGradient cx="0" cy="0" gradientTransform="matrix(21.103 -13.359 -10.805 -17.069 92.432 345.49)" id="radialGradient1984" r="1" gradientUnits="userSpaceOnUse">
<stop offset="0" stop-color="#fff"/>
<stop offset="1" stop-color="#d1d3d4"/>
</radialGradient>
<radialGradient cx="0" cy="0" gradientTransform="matrix(135.28 0 0 -135.28 42.266 315.03)" id="radialGradient120" r="1" gradientUnits="userSpaceOnUse">
<stop offset="0" stop-color="#fff"/>
<stop offset=".835" stop-color="#d1d3d4"/>
<stop offset="1" stop-color="#fff"/>
</radialGradient>
<radialGradient cx="0" cy="0" gradientTransform="matrix(21.465 -3.4281 -3.005 -18.816 97.174 361.55)" id="radialGradient2044" r="1" gradientUnits="userSpaceOnUse">
<stop offset="0" stop-color="#fff"/>
<stop offset="1" stop-color="#d1d3d4"/>
</radialGradient>
<radialGradient cx="0" cy="0" gradientTransform="matrix(28.314 -2.8661 -2.8661 -28.314 83.311 355.34)" id="radialGradient2024" r="1" gradientUnits="userSpaceOnUse">
<stop offset="0" stop-color="#fff"/>
<stop offset="1" stop-color="#d1d3d4"/>
</radialGradient>
</defs>
<g transform="translate(0 -552.36)">
<path fill="url(#linearGradient5856)" d="m146.49,773.22c-8.2848,2.3286-17.007,3.5938-26.031,3.5938-8.669,0-17.07-1.1577-25.062-3.3125v9.0625s10.051,20.986 11.875,30.562c1.825,9.5775 8.6512,205.21 9.5625,209.31 .9112,4.105 3.6562,9.5938 3.6562,9.5938h.9062s2.745-5.4888 3.6562-9.5938c.9112-4.1037 7.7388-199.73 9.5625-209.31 1.8238-9.5762 11.875-30.562 11.875-30.562v-9.3438z"/>
<path fill="url(#linearGradient8020)" d="m95.71,772.79c8.2847,2.3286 17.007,3.5938 26.031,3.5938 8.3218,0 16.39-1.0709 24.094-3.0625v10.906c-2.0463,4.3763-8.1176,17.678-10.375,26.25-4.7491,2.1657-9.7235,3.3125-14.844,3.3125-4.611,0-9.0927-.9393-13.406-2.7188-2.5076-10.13-11.5-28.938-11.5-28.938v-9.3438z"/>
<path opacity=".7" fill="url(#linearGradient8068)" d="m146.49,773.22c-8.2848,2.3286-17.007,3.5938-26.031,3.5938-8.669,0-17.07-1.1577-25.062-3.3125v9.0625s10.051,20.986 11.875,30.562c1.825,9.5775 8.6512,205.21 9.5625,209.31 .9112,4.105 3.6562,9.5938 3.6562,9.5938h.9062s2.745-5.4888 3.6562-9.5938c.9112-4.1037 7.7388-199.73 9.5625-209.31 1.8238-9.5762 11.875-30.562 11.875-30.562v-9.3438z"/>
</g>
<g transform="matrix(-1.23285 -.20639 .20639 -1.23285 158.47936 490.4048)">
<path fill="url(#radialGradient120)" d="m64.835,360c-34.375-5.58-61.203-33.86-64.835-69.08v-16.358c4.061-39.376 37.115-70.079 77.29-70.079 42.919,0 77.71,35.038 77.71,78.258 0,38.952-28.255,71.256-65.254,77.257h-24.911z"/>
</g>
<g transform="matrix(-1.23285 -.20639 .20639 -1.23285 158.47936 490.4048)">
<path fill="url(#radialGradient144)" d="m72.912,281.65c0-4.534 3.675-8.209 8.21-8.209 4.534,0 8.207,3.675 8.207,8.209 0,4.533-3.673,8.209-8.207,8.209-4.535,0-8.21-3.676-8.21-8.209"/>
</g>
<g transform="matrix(-1.23285 -.20639 .20639 -1.23285 158.47936 490.4048)">
<path fill="url(#radialGradient164)" d="m67.987,297.52c0-3.929 3.185-7.114 7.114-7.114s7.114,3.185 7.114,7.114-3.185,7.114-7.114,7.114-7.114-3.185-7.114-7.114"/>
</g>
<g transform="matrix(-1.23285 -.20639 .20639 -1.23285 158.47936 490.4048)">
<path fill="url(#radialGradient184)" d="m83.857,295.88c0-3.929 3.185-7.115 7.115-7.115 3.928,0 7.114,3.186 7.114,7.115s-3.186,7.114-7.114,7.114c-3.93,0-7.115-3.185-7.115-7.114"/>
</g>
<g transform="matrix(-1.23285 -.20639 .20639 -1.23285 158.47936 490.4048)">
<path fill="url(#radialGradient204)" d="m91.518,281.1c0-3.93 3.186-7.115 7.115-7.115 3.928,0 7.114,3.185 7.114,7.115 0,3.928-3.186,7.114-7.114,7.114-3.929,0-7.115-3.186-7.115-7.114"/>
</g>
<g transform="matrix(-1.23285 -.20639 .20639 -1.23285 158.47936 490.4048)">
<path fill="url(#radialGradient224)" d="m81.122,264.68c0-4.232 3.429-7.661 7.66-7.661 4.232,0 7.661,3.429 7.661,7.661 0,4.231-3.429,7.661-7.661,7.661-4.231,0-7.66-3.43-7.66-7.661"/>
</g>
<g transform="matrix(-1.23285 -.20639 .20639 -1.23285 158.47936 490.4048)">
<path fill="url(#radialGradient244)" d="m64.156,265.23c0-4.232 3.429-7.661 7.661-7.661s7.663,3.429 7.663,7.661-3.431,7.662-7.663,7.662-7.661-3.43-7.661-7.662"/>
</g>
<g transform="matrix(-1.23285 -.20639 .20639 -1.23285 158.47936 490.4048)">
<path fill="url(#radialGradient264)" d="m57.042,282.2c0-3.93 3.185-7.115 7.114-7.115s7.114,3.185 7.114,7.115c0,3.929-3.185,7.114-7.114,7.114s-7.114-3.185-7.114-7.114"/>
</g>
<g transform="matrix(-1.23285 -.20639 .20639 -1.23285 158.47936 490.4048)">
<path fill="url(#radialGradient284)" d="m47.739,267.42c0-3.929 3.185-7.114 7.113-7.114 3.93,0 7.115,3.185 7.115,7.114s-3.185,7.114-7.115,7.114c-3.928,0-7.113-3.185-7.113-7.114"/>
</g>
<g transform="matrix(-1.23285 -.20639 .20639 -1.23285 158.47936 490.4048)">
<path fill="url(#radialGradient304)" d="m55.4,252.1c0-3.626 2.941-6.567 6.567-6.567 3.627,0 6.567,2.941 6.567,6.567s-2.94,6.567-6.567,6.567c-3.626,0-6.567-2.941-6.567-6.567"/>
</g>
<g transform="matrix(-1.23285 -.20639 .20639 -1.23285 158.47936 490.4048)">
<path fill="url(#radialGradient324)" d="m70.176,249.91c0-3.627 3.43-6.567 7.661-6.567 4.232,0 7.662,2.94 7.662,6.567s-3.43,6.567-7.662,6.567c-4.231,0-7.661-2.94-7.661-6.567"/>
</g>
<g transform="matrix(-1.23285 -.20639 .20639 -1.23285 158.47936 490.4048)">
<path fill="url(#radialGradient344)" d="m88.783,251.77c-1.541-3.777 .151-8.041 3.784-9.525 3.63-1.484 7.823,.376 9.368,4.152 1.542,3.778-.149,8.042-3.781,9.525-.849,.347-1.728,.511-2.597,.511-2.85,0-5.589-1.769-6.774-4.663"/>
</g>
<g transform="matrix(-1.23285 -.20639 .20639 -1.23285 158.47936 490.4048)">
<path fill="url(#radialGradient364)" d="m99.979,266.49c-1.245-4.359 .574-8.701 4.06-9.697 3.488-.996 7.323,1.73 8.571,6.089 1.245,4.359-.574,8.7-4.06,9.697-.486,.138-.978,.205-1.47,.205-3.037,0-6.028-2.542-7.101-6.294"/>
</g>
<g transform="matrix(-1.23285 -.20639 .20639 -1.23285 158.47936 490.4048)">
<path fill="url(#radialGradient384)" d="m109.03,279.46c0-4.232 2.94-7.662 6.567-7.662s6.567,3.43 6.567,7.662-2.94,7.661-6.567,7.661-6.567-3.429-6.567-7.661"/>
</g>
<g transform="matrix(-1.23285 -.20639 .20639 -1.23285 158.47936 490.4048)">
<path fill="url(#radialGradient404)" d="m99.727,295.33c0-3.93 2.941-7.115 6.567-7.115 3.627,0 6.567,3.185 6.567,7.115 0,3.928-2.94,7.113-6.567,7.113-3.626,0-6.567-3.185-6.567-7.113"/>
</g>
<g transform="matrix(-1.23285 -.20639 .20639 -1.23285 158.47936 490.4048)">
<path fill="url(#radialGradient424)" d="m119.83,304.06c-3.308-.324-5.642-4.125-5.214-8.489 .428-4.363 3.459-7.638 6.767-7.313 3.309,.326 5.642,4.127 5.215,8.491-.41,4.163-3.187,7.333-6.314,7.333-.15,0-.302-.007-.454-.022"/>
</g>
<g transform="matrix(-1.23285 -.20639 .20639 -1.23285 158.47936 490.4048)">
<path fill="url(#radialGradient444)" d="m123.35,319.34c-3.292-.47-5.509-4.004-4.954-7.894s3.676-6.662 6.965-6.191c3.291,.47 5.509,4.004 4.954,7.894-.514,3.601-3.225,6.243-6.235,6.243-.242,0-.486-.017-.73-.052"/>
</g>
<g transform="matrix(-1.23285 -.20639 .20639 -1.23285 158.47936 490.4048)">
<path fill="url(#radialGradient464)" d="m109.84,316.62c-2.997-.383-5.055-3.61-4.597-7.207 .46-3.598 3.263-6.204 6.261-5.821 2.998,.382 5.056,3.609 4.597,7.207-.429,3.362-2.905,5.859-5.675,5.858-.194,0-.389-.012-.586-.037"/>
</g>
<g transform="matrix(-1.23285 -.20639 .20639 -1.23285 158.47936 490.4048)">
<path fill="url(#radialGradient484)" d="m93.16,306.82c0-2.721 2.451-4.926 5.473-4.926s5.473,2.205 5.473,4.926c0,2.719-2.451,4.924-5.473,4.924s-5.473-2.205-5.473-4.924"/>
</g>
<g transform="matrix(-1.23285 -.20639 .20639 -1.23285 158.47936 490.4048)">
<path fill="url(#radialGradient504)" d="m90.972,319.41c0-3.324 2.695-6.02 6.019-6.02 3.325,0 6.019,2.696 6.019,6.02 0,3.325-2.694,6.019-6.019,6.019-3.324,0-6.019-2.694-6.019-6.019"/>
</g>
<g transform="matrix(-1.23285 -.20639 .20639 -1.23285 158.47936 490.4048)">
<path fill="url(#radialGradient524)" d="m108.31,331.04c-3.135-1.102-4.622-5.002-3.319-8.707 1.304-3.707 4.903-5.818 8.039-4.715s4.623,5.002 3.32,8.709c-1.07,3.04-3.684,5.006-6.319,5.006-.578,0-1.157-.094-1.721-.293"/>
</g>
<g transform="matrix(-1.23285 -.20639 .20639 -1.23285 158.47936 490.4048)">
<path fill="url(#radialGradient544)" d="m78.385,310.11c0-3.93 2.94-7.115 6.566-7.115 3.627,0 6.567,3.185 6.567,7.115 0,3.928-2.94,7.113-6.567,7.113-3.626,0-6.566-3.185-6.566-7.113"/>
</g>
<g transform="matrix(-1.23285 -.20639 .20639 -1.23285 158.47936 490.4048)">
<path fill="url(#radialGradient564)" d="m83.67,241.74c-4.2-.509-7.264-3.741-6.844-7.222 .422-3.478 4.169-5.888 8.369-5.38 4.2,.509 7.265,3.74 6.843,7.221-.381,3.167-3.523,5.448-7.253,5.448-.366,0-.739-.022-1.115-.067"/>
</g>
<g transform="matrix(-1.23285 -.20639 .20639 -1.23285 158.47936 490.4048)">
<path fill="url(#radialGradient584)" d="m117.88,332.02c-1.577-1.801-.273-5.521 2.911-8.307 3.185-2.787 7.043-3.586 8.62-1.785 1.576,1.801 .272,5.52-2.912,8.307-2.033,1.779-4.34,2.747-6.154,2.747-1.027,0-1.896-.311-2.465-.962"/>
</g>
<g transform="matrix(-1.23285 -.20639 .20639 -1.23285 158.47936 490.4048)">
<path fill="url(#radialGradient604)" d="m115.28,343.34c-1.152-1.557 .674-4.858 4.076-7.375 3.402-2.515 7.092-3.294 8.244-1.737s-.673,4.859-4.075,7.374c-2.215,1.639-4.553,2.54-6.232,2.54-.9,0-1.611-.259-2.013-.802"/>
</g>
<g transform="matrix(-1.23285 -.20639 .20639 -1.23285 158.47936 490.4048)">
<path fill="url(#radialGradient624)" d="m129.11,333.78c-1.216-.896-.167-4.385 2.345-7.79 2.513-3.404 5.534-5.438 6.751-4.541 1.216,.897 .166,4.385-2.346,7.79-2.111,2.861-4.58,4.753-6.038,4.753-.277,0-.518-.069-.712-.212"/>
</g>
<g transform="matrix(-1.23285 -.20639 .20639 -1.23285 158.47936 490.4048)">
<path fill="url(#radialGradient644)" d="m61.356,242.8c-1.363-2.354 .501-5.981 4.162-8.101 3.663-2.12 7.736-1.931 9.099,.423 1.363,2.355-.5,5.981-4.162,8.102-1.706,.987-3.501,1.474-5.07,1.474-1.799-.001-3.3-.64-4.029-1.898"/>
</g>
<g transform="matrix(-1.23285 -.20639 .20639 -1.23285 158.47936 490.4048)">
<path fill="url(#radialGradient664)" d="m49.045,236.01c-1.269-2.406 .301-5.728 3.509-7.421 3.207-1.693 6.837-1.116 8.106,1.29 1.27,2.407-.301,5.728-3.508,7.421-1.243,.656-2.548,.971-3.756,.971-1.909,0-3.573-.788-4.351-2.261"/>
</g>
<g transform="matrix(-1.23285 -.20639 .20639 -1.23285 158.47936 490.4048)">
<path fill="url(#radialGradient684)" d="m61.758,229.7c-.915-2.238 1.56-5.369 5.529-6.993 3.97-1.622 7.93-1.126 8.844,1.112 .915,2.239-1.56,5.368-5.529,6.993-1.575,.644-3.148,.954-4.53,.954-2.102,0-3.762-.717-4.314-2.066"/>
</g>
<g transform="matrix(-1.23285 -.20639 .20639 -1.23285 158.47936 490.4048)">
<path fill="url(#radialGradient704)" d="m51.196,246.64c-1.418-1.572-.928-4.321 1.092-6.144 2.02-1.821 4.806-2.025 6.222-.453 1.417,1.571 .929,4.322-1.092,6.144-1.107,.998-2.445,1.51-3.661,1.51-1.002,0-1.921-.348-2.561-1.057"/>
</g>
<g transform="matrix(-1.23285 -.20639 .20639 -1.23285 158.47936 490.4048)">
<path fill="url(#radialGradient724)" d="m41.739,258.6c-1.106-2.485 .682-5.695 3.996-7.17 3.313-1.475 6.897-.656 8.003,1.829 1.106,2.486-.683,5.695-3.996,7.171-1.117,.497-2.264,.733-3.337,.733-2.11,0-3.932-.915-4.666-2.563"/>
</g>
<g transform="matrix(-1.23285 -.20639 .20639 -1.23285 158.47936 490.4048)">
<path fill="url(#radialGradient744)" d="m37.938,248.73c-1.74-1.678-.995-5.275 1.667-8.034 2.661-2.758 6.228-3.633 7.968-1.955 1.741,1.679 .995,5.275-1.667,8.035-1.745,1.809-3.88,2.808-5.633,2.807-.921,0-1.737-.275-2.335-.853"/>
</g>
<g transform="matrix(-1.23285 -.20639 .20639 -1.23285 158.47936 490.4048)">
<path fill="url(#radialGradient764)" d="m86.166,227.45c-4.212-.413-7.408-2.949-7.143-5.662 .267-2.716 3.896-4.582 8.107-4.168 4.211,.411 7.409,2.947 7.143,5.661-.241,2.463-3.247,4.226-6.945,4.226-.38,0-.769-.019-1.162-.057"/>
</g>
<g transform="matrix(-1.23285 -.20639 .20639 -1.23285 158.47936 490.4048)">
<path fill="url(#radialGradient784)" d="m95.662,237.49c-2.069-3.331-1.404-7.483 1.48-9.274 2.887-1.791 6.9-.542 8.968,2.789 2.067,3.331 1.404,7.483-1.481,9.274-.894,.555-1.896,.818-2.914,.817-2.271,0-4.627-1.307-6.053-3.606"/>
</g>
<g transform="matrix(-1.23285 -.20639 .20639 -1.23285 158.47936 490.4048)">
<path fill="url(#radialGradient804)" d="m106.01,252.35c-2.706-3.46-2.62-8.051 .196-10.256 2.818-2.203 7.296-1.186 10.004,2.273 2.707,3.46 2.618,8.052-.198,10.256-1.007,.788-2.226,1.164-3.502,1.164-2.29,0-4.761-1.214-6.5-3.437"/>
</g>
<g transform="matrix(-1.23285 -.20639 .20639 -1.23285 158.47936 490.4048)">
<path fill="url(#radialGradient824)" d="m116.18,267.1c-2.468-3.438-1.997-7.997 1.051-10.185 3.049-2.189 7.519-1.176 9.987,2.261s1.998,7.997-1.052,10.186c-1.089,.782-2.359,1.155-3.654,1.155-2.331,0-4.745-1.208-6.332-3.417"/>
</g>
<g transform="matrix(-1.23285 -.20639 .20639 -1.23285 158.47936 490.4048)">
<path fill="url(#radialGradient844)" d="m123.26,278.91c0-4.232 2.696-7.662 6.021-7.662 3.322,0 6.019,3.43 6.019,7.662 0,4.231-2.697,7.66-6.019,7.66-3.325,0-6.021-3.429-6.021-7.66"/>
</g>
<g transform="matrix(-1.23285 -.20639 .20639 -1.23285 158.47936 490.4048)">
<path fill="url(#radialGradient864)" d="m132.79,303.59c-2.868-.628-4.375-4.852-3.37-9.432 1.005-4.581 4.143-7.784 7.008-7.157 2.867,.629 4.375,4.853 3.37,9.434-.92,4.193-3.629,7.234-6.28,7.234-.243,0-.487-.026-.728-.079"/>
</g>
<g transform="matrix(-1.23285 -.20639 .20639 -1.23285 158.47936 490.4048)">
<path fill="url(#radialGradient884)" d="m132.68,319.48c-1.934-1.091-1.642-5.273 .653-9.338s5.723-6.475 7.658-5.383c1.934,1.092 1.642,5.272-.654,9.339-1.92,3.401-4.635,5.645-6.603,5.645-.384,0-.738-.085-1.054-.263"/>
</g>
<g transform="matrix(-1.23285 -.20639 .20639 -1.23285 158.47936 490.4048)">
<path fill="url(#radialGradient904)" d="m140.61,320.46c-1.079-.489-.413-4.297 1.488-8.504 1.903-4.207 4.324-7.222 5.404-6.734s.414,4.297-1.489,8.505c-1.766,3.906-3.978,6.785-5.152,6.785-.09,0-.174-.017-.251-.052"/>
</g>
<g transform="matrix(-1.23285 -.20639 .20639 -1.23285 158.47936 490.4048)">
<path fill="url(#radialGradient924)" d="m141.24,297.52c-.503-3.962 .54-7.358 2.329-7.584 1.787-.227 3.643,2.8 4.145,6.763 .502,3.961-.538,7.356-2.326,7.582-.064,.008-.127,.012-.191,.012-1.727,0-3.473-2.953-3.957-6.773"/>
</g>
<g transform="matrix(-1.23285 -.20639 .20639 -1.23285 158.47936 490.4048)">
<path fill="url(#radialGradient944)" d="m91.277,337.98c-2.078-2.196-1.45-6.164 1.405-8.865 2.853-2.701 6.851-3.111 8.928-.916 2.078,2.195 1.45,6.163-1.404,8.865-1.619,1.532-3.607,2.327-5.403,2.327-1.369,0-2.627-.462-3.526-1.411"/>
</g>
<g transform="matrix(-1.23285 -.20639 .20639 -1.23285 158.47936 490.4048)">
<path fill="url(#radialGradient964)" d="m103.59,344c-2.08-1.831-1.598-5.779 1.077-8.814s6.528-4.013 8.607-2.18c2.08,1.831 1.599,5.778-1.076,8.814-1.761,1.998-4.032,3.104-5.972,3.104-1.007,0-1.925-.298-2.636-.924"/>
</g>
<g transform="matrix(-1.23285 -.20639 .20639 -1.23285 158.47936 490.4048)">
<path fill="url(#radialGradient984)" d="m77.771,330.84c-2.535-2.186-2.403-6.497 .298-9.629 2.7-3.132 6.944-3.897 9.478-1.712 2.535,2.186 2.404,6.497-.296,9.63-1.661,1.926-3.906,2.957-5.978,2.957-1.297-.001-2.526-.404-3.502-1.246"/>
</g>
<g transform="matrix(-1.23285 -.20639 .20639 -1.23285 158.47936 490.4048)">
<path fill="url(#radialGradient1004)" d="m62.586,316.41c-1.547-3.612 .35-7.891 4.24-9.558s8.297-.09 9.844,3.521c1.548,3.611-.349,7.891-4.239,9.557-1.053,.451-2.143,.665-3.204,.665-2.861,0-5.512-1.552-6.641-4.185"/>
</g>
<g transform="matrix(-1.23285 -.20639 .20639 -1.23285 158.47936 490.4048)">
<path fill="url(#radialGradient1024)" d="m49.38,298.61c0-3.93 3.43-7.115 7.662-7.115s7.661,3.185 7.661,7.115c0,3.928-3.429,7.113-7.661,7.113s-7.662-3.185-7.662-7.113"/>
</g>
<g transform="matrix(-1.23285 -.20639 .20639 -1.23285 158.47936 490.4048)">
<path fill="url(#radialGradient1044)" d="m40.556,287.73c-2.041-3.898-.456-8.754 3.54-10.848 3.997-2.093 8.892-.632 10.934,3.266s.456,8.754-3.54,10.848c-1.237,.648-2.56,.955-3.858,.955-2.895,0-5.666-1.53-7.076-4.221"/>
</g>
<g transform="matrix(-1.23285 -.20639 .20639 -1.23285 158.47936 490.4048)">
<path fill="url(#radialGradient1064)" d="m33.131,275.26c-2.716-2.4-2.605-6.963 .247-10.188 2.853-3.225 7.367-3.894 10.082-1.493s2.604,6.963-.248,10.189c-1.698,1.92-3.984,2.934-6.129,2.934-1.459,0-2.853-.469-3.952-1.442"/>
</g>
<g transform="matrix(-1.23285 -.20639 .20639 -1.23285 158.47936 490.4048)">
<path fill="url(#radialGradient1084)" d="m27.135,261.01c-2.309-1.949-2.037-6.075 .612-9.215 2.65-3.14 6.67-4.106 8.98-2.155 2.311,1.948 2.038,6.074-.612,9.214-1.722,2.041-4.023,3.164-6.058,3.164-1.095-.001-2.113-.326-2.922-1.008"/>
</g>
<g transform="matrix(-1.23285 -.20639 .20639 -1.23285 158.47936 490.4048)">
<path fill="url(#radialGradient1104)" d="m35.214,235.61c-1.528-2.209 .056-5.951 3.537-8.356 3.481-2.407 7.541-2.565 9.07-.354 1.526,2.21-.057,5.952-3.539,8.357-1.837,1.27-3.834,1.913-5.536,1.913-1.523,0-2.81-.516-3.532-1.56"/>
</g>
<g transform="matrix(-1.23285 -.20639 .20639 -1.23285 158.47936 490.4048)">
<path fill="url(#radialGradient1124)" d="m24.651,249.01c-2.206-1.591-1.989-5.662 .486-9.094 2.474-3.433 6.269-4.926 8.476-3.335 2.206,1.591 1.988,5.662-.486,9.095-1.803,2.5-4.305,3.971-6.384,3.971-.776,0-1.493-.204-2.092-.637"/>
</g>
<g transform="matrix(-1.23285 -.20639 .20639 -1.23285 158.47936 490.4048)">
<path fill="url(#radialGradient1144)" d="m49.346,224.09c-.789-2.286 1.664-5.206 5.478-6.521 3.815-1.317 7.547-.531 8.335,1.755 .79,2.285-1.664,5.206-5.479,6.521-1.253,.433-2.497,.639-3.631,.639-2.317,0-4.174-.859-4.703-2.394"/>
</g>
<g transform="matrix(-1.23285 -.20639 .20639 -1.23285 158.47936 490.4048)">
<path fill="url(#radialGradient1164)" d="m64.279,217.84c-.489-2.011 2.686-4.51 7.091-5.582s8.372-.309 8.861,1.702c.49,2.01-2.684,4.509-7.09,5.58-1.354,.33-2.666,.486-3.849,.486-2.666,0-4.674-.794-5.013-2.186"/>
</g>
<g transform="matrix(-1.23285 -.20639 .20639 -1.23285 158.47936 490.4048)">
<path fill="url(#radialGradient1184)" d="m23.192,236.54c-1.302-1.399 .332-5.038 3.65-8.127s7.064-4.458 8.366-3.061c1.302,1.399-.331,5.039-3.649,8.128-2.435,2.268-5.101,3.609-6.863,3.609-.638,0-1.158-.176-1.504-.549"/>
</g>
<g transform="matrix(-1.23285 -.20639 .20639 -1.23285 158.47936 490.4048)">
<path fill="url(#radialGradient1204)" d="m35.997,224.31c-1.014-1.74 1.344-5.003 5.268-7.287 3.92-2.284 7.923-2.725 8.936-.985 1.014,1.74-1.345,5.003-5.267,7.287-2.307,1.343-4.64,2.049-6.377,2.049-1.217,0-2.142-.347-2.56-1.064"/>
</g>
<g transform="matrix(-1.23285 -.20639 .20639 -1.23285 158.47936 490.4048)">
<path fill="url(#radialGradient1224)" d="m51.313,214.33c-.346-1.212 2.64-3.124 6.669-4.278 4.031-1.15 7.577-1.108 7.923,.101 .347,1.21-2.64,3.126-6.671,4.276-1.953,.559-3.792,.836-5.209,.836-1.505,0-2.534-.313-2.712-.935"/>
</g>
<g transform="matrix(-1.23285 -.20639 .20639 -1.23285 158.47936 490.4048)">
<path fill="url(#radialGradient1244)" d="m14.218,250.67c-1.641-.869-1.398-4.546 .543-8.216 1.94-3.668 4.845-5.938 6.485-5.069 1.642,.867 1.399,4.545-.542,8.214-1.662,3.141-4.028,5.256-5.705,5.255-.282,0-.544-.059-.781-.184"/>
</g>
<g transform="matrix(-1.23285 -.20639 .20639 -1.23285 158.47936 490.4048)">
<path fill="url(#radialGradient1264)" d="m14.888,262.48c-2.037-1.303-1.902-5.15 .3-8.592 2.204-3.441 5.64-5.174 7.677-3.87 2.036,1.303 1.901,5.15-.301,8.59-1.706,2.665-4.151,4.306-6.113,4.306-.572,0-1.103-.14-1.563-.434"/>
</g>
<g transform="matrix(-1.23285 -.20639 .20639 -1.23285 158.47936 490.4048)">
<path fill="url(#radialGradient1284)" d="m20.201,275.94c-2.448-.961-3.258-4.734-1.809-8.431 1.449-3.694 4.611-5.911 7.06-4.951 2.45,.963 3.26,4.736 1.811,8.432-1.221,3.112-3.656,5.175-5.857,5.175-.413,0-.818-.073-1.205-.225"/>
</g>
<g transform="matrix(-1.23285 -.20639 .20639 -1.23285 158.47936 490.4048)">
<path fill="url(#radialGradient1304)" d="m26.954,291.04c-3.234-1.262-4.665-5.333-3.197-9.092 1.467-3.759 5.28-5.781 8.513-4.518 3.234,1.263 4.665,5.334 3.198,9.092-1.172,3-3.837,4.895-6.51,4.894-.675,0-1.351-.121-2.004-.376"/>
</g>
<g transform="matrix(-1.23285 -.20639 .20639 -1.23285 158.47936 490.4048)">
<path fill="url(#radialGradient1324)" d="m31.868,299.71c0-4.534 3.185-8.209 7.115-8.209 3.929,0 7.114,3.675 7.114,8.209 0,4.533-3.185,8.208-7.114,8.208-3.93,0-7.115-3.675-7.115-8.208"/>
</g>
<g transform="matrix(-1.23285 -.20639 .20639 -1.23285 158.47936 490.4048)">
<path fill="url(#radialGradient1344)" d="m43.963,318.12c-1.591-3.921 .525-8.482 4.725-10.187 4.201-1.704 8.896,.092 10.488,4.013 1.59,3.921-.525,8.481-4.726,10.187-1.077,.437-2.186,.644-3.267,.643-3.137,0-6.037-1.741-7.22-4.656"/>
</g>
<g transform="matrix(-1.23285 -.20639 .20639 -1.23285 158.47936 490.4048)">
<path fill="url(#radialGradient1364)" d="m56.495,328.71c0-4.231 3.43-7.661 7.661-7.661s7.661,3.43 7.661,7.661c0,4.232-3.43,7.661-7.661,7.661s-7.661-3.429-7.661-7.661"/>
</g>
<g transform="matrix(-1.23285 -.20639 .20639 -1.23285 158.47936 490.4048)">
<path fill="url(#radialGradient1384)" d="m69.637,341.86c-1.288-2.262 .468-5.688 3.921-7.653 3.454-1.964 7.296-1.723 8.583,.54 1.285,2.262-.467,5.689-3.922,7.653-1.567,.892-3.215,1.329-4.667,1.329-1.748,0-3.213-.633-3.915-1.869"/>
</g>
<g transform="matrix(-1.23285 -.20639 .20639 -1.23285 158.47936 490.4048)">
<path fill="url(#radialGradient1404)" d="m86.38,353.5c-.668-1.224 2.072-4.006 6.116-6.214 4.049-2.207 7.87-3.003 8.539-1.78 .666,1.225-2.073,4.006-6.119,6.213-2.759,1.505-5.414,2.355-7.036,2.355-.756,0-1.288-.185-1.5-.574"/>
</g>
<g transform="matrix(-1.23285 -.20639 .20639 -1.23285 158.47936 490.4048)">
<path fill="url(#radialGradient1424)" d="m98.032,354.25c-.604-1.19 2.605-4.034 7.168-6.352 4.565-2.318 8.752-3.233 9.357-2.043 .604,1.189-2.603,4.033-7.167,6.351-3.208,1.629-6.23,2.565-7.953,2.565-.729,0-1.226-.168-1.405-.521"/>
</g>
<g transform="matrix(-1.23285 -.20639 .20639 -1.23285 158.47936 490.4048)">
<path fill="url(#radialGradient1444)" d="m149.96,304.69c-.712-.103-.835-3.338-.275-7.227 .558-3.889 1.589-6.959 2.301-6.858 .712,.103 .835,3.339 .275,7.228-.55,3.826-1.556,6.859-2.266,6.859-.012,0-.024-.001-.035-.002"/>
</g>
<g transform="matrix(-1.23285 -.20639 .20639 -1.23285 158.47936 490.4048)">
<path fill="url(#radialGradient1464)" d="m146.2,282.84c-.681-3.8-.25-7.058 .962-7.276 1.213-.218 2.749,2.687 3.431,6.487 .682,3.801 .253,7.058-.961,7.276-.043,.008-.086,.011-.13,.011-1.191,.001-2.643-2.832-3.302-6.498"/>
</g>
<g transform="matrix(-1.23285 -.20639 .20639 -1.23285 158.47936 490.4048)">
<path fill="url(#radialGradient1484)" d="m137.61,282.36c-1.272-4.666-.876-8.838 .886-9.317 1.761-.481 4.22,2.911 5.493,7.577 1.272,4.665 .876,8.836-.886,9.318-.111,.03-.225,.045-.342,.045-1.726,0-3.959-3.253-5.151-7.623"/>
</g>
<g transform="matrix(-1.23285 -.20639 .20639 -1.23285 158.47936 490.4048)">
<path fill="url(#radialGradient1504)" d="m131.58,265.87c-1.6-3.876-1.359-7.65 .537-8.434 1.897-.784 4.733,1.721 6.331,5.593 1.602,3.875 1.363,7.65-.534,8.434-.234,.097-.483,.143-.742,.144-1.839,0-4.19-2.343-5.592-5.737"/>
</g>
<g transform="matrix(-1.23285 -.20639 .20639 -1.23285 158.47936 490.4048)">
<path fill="url(#radialGradient1524)" d="m121.81,252.54c-2.619-3.324-2.84-7.516-.494-9.363 2.345-1.847 6.369-.652 8.988,2.673 2.618,3.323 2.841,7.515 .493,9.363-.747,.589-1.665,.869-2.654,.869-2.113,0-4.549-1.277-6.333-3.542"/>
</g>
<g transform="matrix(-1.23285 -.20639 .20639 -1.23285 158.47936 490.4048)">
<path fill="url(#radialGradient1544)" d="m141.78,267.12c-1.246-3.836-1.191-7.292 .123-7.72 1.316-.427 3.391,2.336 4.639,6.172 1.247,3.837 1.192,7.293-.124,7.72-.09,.03-.184,.044-.281,.044-1.314,0-3.195-2.643-4.357-6.216"/>
</g>
<g transform="matrix(-1.23285 -.20639 .20639 -1.23285 158.47936 490.4048)">
<path fill="url(#radialGradient1564)" d="m134.71,252.83c-1.848-3.332-2.305-6.609-1.023-7.32 1.282-.709 3.818,1.416 5.664,4.747 1.846,3.333 2.305,6.612 1.023,7.322-.167,.092-.355,.136-.559,.136-1.371,.001-3.499-1.986-5.105-4.885"/>
</g>
<g transform="matrix(-1.23285 -.20639 .20639 -1.23285 158.47936 490.4048)">
<path fill="url(#radialGradient1584)" d="m126.31,240.73c-2.921-3.063-4.292-6.496-3.061-7.669 1.23-1.174 4.594,.358 7.515,3.42 2.92,3.061 4.291,6.494 3.06,7.668-.281,.268-.673,.395-1.145,.395-1.598,0-4.115-1.451-6.369-3.814"/>
</g>
<g transform="matrix(-1.23285 -.20639 .20639 -1.23285 158.47936 490.4048)">
<path fill="url(#radialGradient1604)" d="m112.8,238.29c-3.094-3.313-4.349-7.17-2.803-8.614 1.545-1.444 5.308,.072 8.402,3.386 3.094,3.312 4.35,7.169 2.803,8.613-.397,.371-.94,.546-1.581,.546-1.853,0-4.521-1.469-6.821-3.931"/>
</g>
<g transform="matrix(-1.23285 -.20639 .20639 -1.23285 158.47936 490.4048)">
<path fill="url(#radialGradient1624)" d="m101.64,224.8c-3.875-2.358-6.322-5.404-5.468-6.805 .853-1.402 4.682-.626 8.556,1.731 3.872,2.358 6.32,5.404 5.467,6.804-.287,.473-.915,.699-1.768,.699-1.675,0-4.222-.868-6.787-2.429"/>
</g>
<g transform="matrix(-1.23285 -.20639 .20639 -1.23285 158.47936 490.4048)">
<path fill="url(#radialGradient1644)" d="m115.9,228.25c-3.703-2.798-5.923-6.101-4.954-7.38 .965-1.279 4.748-.047 8.451,2.75 3.701,2.797 5.921,6.101 4.954,7.379-.259,.343-.721,.505-1.33,.506-1.66,0-4.412-1.209-7.121-3.255"/>
</g>
<g transform="matrix(-1.23285 -.20639 .20639 -1.23285 158.47936 490.4048)">
<path fill="url(#radialGradient1664)" d="m105.45,217.1c-3.755-1.659-6.448-3.803-6.012-4.789 .435-.986 3.832-.438 7.587,1.219 3.755,1.661 6.448,3.805 6.012,4.789-.147,.333-.631,.491-1.351,.491-1.416,0-3.747-.611-6.236-1.71"/>
</g>
<g transform="matrix(-1.23285 -.20639 .20639 -1.23285 158.47936 490.4048)">
<path fill="url(#radialGradient1684)" d="m88.461,216.3c-4.223-1.123-7.396-2.967-7.091-4.119 .308-1.152 3.98-1.176 8.202-.053 4.221,1.124 7.396,2.969 7.088,4.121-.155,.585-1.18,.879-2.703,.879-1.476,0-3.419-.275-5.496-.828"/>
</g>
<g transform="matrix(-1.23285 -.20639 .20639 -1.23285 158.47936 490.4048)">
<path fill="url(#radialGradient1704)" d="m68.029,209.14c-.075-.734 3.437-1.698 7.847-2.152 4.409-.456 8.045-.233 8.121,.499 .077,.734-3.438,1.698-7.845,2.153-1.548,.161-3,.237-4.236,.237-2.288,0-3.837-.262-3.887-.737"/>
</g>
<g transform="matrix(-1.23285 -.20639 .20639 -1.23285 158.47936 490.4048)">
<path fill="url(#radialGradient1724)" d="m91.742,210.54c-3.643-1.041-6.451-2.395-6.272-3.02 .18-.627 3.279-.291 6.92,.753 3.644,1.042 6.45,2.397 6.27,3.021-.061,.214-.46,.316-1.104,.316-1.247-.001-3.412-.382-5.814-1.07"/>
</g>
<g transform="matrix(-1.23285 -.20639 .20639 -1.23285 158.47936 490.4048)">
<path fill="url(#radialGradient1744)" d="m129.81,231.96c-2.891-2.661-4.736-5.36-4.121-6.027 .613-.666 3.454,.95 6.344,3.612 2.891,2.661 4.736,5.359 4.121,6.026-.093,.102-.239,.15-.428,.15-1.051,.001-3.466-1.505-5.916-3.761"/>
</g>
<g transform="matrix(-1.23285 -.20639 .20639 -1.23285 158.47936 490.4048)">
<path fill="url(#radialGradient1764)" d="m143.41,254.78c-2.198-3.556-3.193-6.923-2.224-7.522s3.537,1.798 5.734,5.354 3.192,6.925 2.224,7.523c-.1,.062-.218,.092-.35,.092-1.146,.001-3.414-2.257-5.384-5.447"/>
</g>
<g transform="matrix(-1.23285 -.20639 .20639 -1.23285 158.47936 490.4048)">
<path fill="url(#radialGradient1784)" d="m149.73,270.19c-.882-3.829-.821-7.111 .133-7.332 .957-.219 2.444,2.707 3.326,6.535 .881,3.83 .822,7.112-.134,7.332-.034,.008-.068,.012-.103,.012-.957,0-2.372-2.853-3.222-6.547"/>
</g>
<g transform="matrix(-1.23285 -.20639 .20639 -1.23285 158.47936 490.4048)">
<path fill="url(#radialGradient1804)" d="m137.14,242.48c-1.579-2.925-2.214-5.646-1.416-6.077 .797-.43 2.725,1.591 4.305,4.516 1.58,2.924 2.215,5.646 1.417,6.077-.072,.039-.153,.058-.242,.058-.9,0-2.626-1.913-4.064-4.574"/>
</g>
<g transform="matrix(-1.23285 -.20639 .20639 -1.23285 158.47936 490.4048)">
<path fill="url(#radialGradient1824)" d="m119.31,222.2c-2.484-2.211-4.077-4.473-3.559-5.057 .518-.58 2.949,.74 5.432,2.951s4.076,4.473 3.559,5.055c-.082,.093-.214,.137-.386,.137-.909,0-2.959-1.229-5.046-3.086"/>
</g>
<g transform="matrix(-1.23285 -.20639 .20639 -1.23285 158.47936 490.4048)">
<path fill="url(#radialGradient1844)" d="m5.242,264.6c-1.504-.545-1.556-4.213-.113-8.191 1.442-3.978 3.831-6.76 5.335-6.215s1.555,4.213 .113,8.191c-1.321,3.643-3.436,6.284-4.938,6.284-.138,0-.271-.023-.397-.069"/>
</g>
<g transform="matrix(-1.23285 -.20639 .20639 -1.23285 158.47936 490.4048)">
<path fill="url(#radialGradient1864)" d="m7.857,277.16c-2.119-.946-2.569-4.549-1.008-8.048s4.543-5.57 6.663-4.624c2.118,.946 2.569,4.549 1.009,8.048-1.307,2.926-3.607,4.852-5.564,4.852-.383,0-.753-.074-1.1-.228"/>
</g>
<g transform="matrix(-1.23285 -.20639 .20639 -1.23285 158.47936 490.4048)">
<path fill="url(#radialGradient1884)" d="m13.312,292.11c-2.567-.962-3.444-4.953-1.96-8.916s4.766-6.396 7.333-5.435c2.566,.96 3.443,4.952 1.959,8.915-1.264,3.378-3.837,5.645-6.158,5.645-.402,0-.796-.068-1.174-.209"/>
</g>
<g transform="matrix(-1.23285 -.20639 .20639 -1.23285 158.47936 490.4048)">
<path fill="url(#radialGradient1904)" d="m20.212,308.25c-3.285-.796-5.14-4.774-4.143-8.887 .997-4.112 4.467-6.801 7.753-6.004 3.285,.796 5.14,4.775 4.144,8.887-.879,3.626-3.681,6.144-6.583,6.144-.39,0-.782-.046-1.171-.14"/>
</g>
<g transform="matrix(-1.23285 -.20639 .20639 -1.23285 158.47936 490.4048)">
<path fill="url(#radialGradient1924)" d="m31.63,323.22c-3.682-.438-6.259-4.201-5.758-8.403 .501-4.201 3.893-7.251 7.575-6.81 3.681,.439 6.258,4.201 5.757,8.403-.469,3.93-3.468,6.852-6.867,6.852-.234,0-.47-.013-.707-.042"/>
</g>
<g transform="matrix(-1.23285 -.20639 .20639 -1.23285 158.47936 490.4048)">
<path fill="url(#radialGradient1944)" d="m39.596,337.71c-3.652-2.466-4.636-7.396-2.193-11.012 2.441-3.616 7.381-4.546 11.034-2.081 3.652,2.467 4.634,7.397 2.194,11.012-1.519,2.25-4.004,3.46-6.546,3.459-1.544,0-3.109-.446-4.489-1.378"/>
</g>
<g transform="matrix(-1.23285 -.20639 .20639 -1.23285 158.47936 490.4048)">
<path fill="url(#radialGradient1964)" d="m51.232,347.43c-2.166-2.315-1.652-6.317 1.15-8.94 2.802-2.622 6.83-2.87 8.997-.555s1.652,6.319-1.149,8.94c-1.515,1.418-3.387,2.142-5.131,2.142-1.482-.001-2.871-.523-3.867-1.587"/>
</g>
<g transform="matrix(-1.23285 -.20639 .20639 -1.23285 158.47936 490.4048)">
<path fill="url(#radialGradient1984)" d="m77.563,349.7c-1.105-1.745 1.302-5.25 5.377-7.83 4.075-2.579 8.274-3.256 9.379-1.511 1.104,1.744-1.305,5.25-5.379,7.83-2.544,1.611-5.137,2.48-6.995,2.48-1.116,0-1.968-.314-2.382-.969"/>
</g>
<g transform="matrix(-1.23285 -.20639 .20639 -1.23285 158.47936 490.4048)">
<path fill="url(#radialGradient2004)" d="m60.21,353.02c-.872-1.945 1.456-4.885 5.203-6.566s7.491-1.467 8.364,.478c.872,1.944-1.457,4.883-5.203,6.565-1.696,.76-3.39,1.133-4.819,1.133-1.728,0-3.067-.546-3.545-1.61"/>
</g>
<g transform="matrix(-1.23285 -.20639 .20639 -1.23285 158.47936 490.4048)">
<path fill="url(#radialGradient2024)" d="m68.027,356.6c-.137-1.353 3.287-2.808 7.647-3.249s8.005,.298 8.142,1.651c.137,1.354-3.287,2.808-7.646,3.249-.855,.087-1.683,.128-2.462,.128-3.193,0-5.571-.691-5.681-1.779"/>
</g>
<g transform="matrix(-1.23285 -.20639 .20639 -1.23285 158.47936 490.4048)">
<path fill="url(#radialGradient2044)" d="m81.849,358.91c-.125-.786 3.16-1.963 7.339-2.63 4.178-.668 7.667-.573 7.793,.213 .124,.785-3.16,1.961-7.339,2.628-1.87,.299-3.602,.445-4.956,.445-1.672,0-2.768-.223-2.837-.656"/>
</g>
<g transform="translate(0 -552.36)">
<path fill="url(#linearGradient8011)" d="m146.8,772.89c-8.2847,2.3286-17.007,3.5938-26.031,3.5938-8.669,0-17.07-1.1577-25.062-3.3125v9.0625s.3826,.8457 .5,1.0938c7.5549,2.7297 15.915,4.25 24.719,4.25 9.1117,0 17.74-1.6499 25.5-4.5625 .0623-.1311 .375-.7812 .375-.7812v-9.3438z"/>
<path fill="url(#linearGradient8052)" d="m133.54,1007.4c-3.3125,6.0587-.8979,6.931-3.9098,13.181-4.5666-4.1421-2.9573-11.215-4.0419-15.893-1.3232,5.6948-1.7927,12.599-10.877,11.485-3.9314-2.3238-4.4783-9.0634-6.4533-12.706-.5906-1.6852-.5031,4.2156-.4972,6.1744-.9038,4.6233-1.0047,6.1599-3.5752,9.2859-5.1876-3.6896-12.3-10.896-11.821-17.521-2.4102,5.3194-3.7185,11.108-3.9741,16.939-4.3502-1.8433-8.0838-5.8504-9.9245-9.7073-1.3254,4.0555 .7634,7.3908-4.4092,10.467-.7935-4.6277-2.5657-12.214-7.4-14.09 3.9966,6.7521 6.2703,16.281 5.8776,24.051 3.7767,1.4703 6.3621-.83 10.34-.049 26.82-.2567 53.64-.5135 80.46-.7702 .1159-9.2327 2.0774-18.427 5.7766-26.863-4.3046,4.887-8.0148,10.482-9.5118,16.895-4.862-1.7701-8.1413-8.9016-9.2504-13.569-1.6648,4.3926 1.7639,12.831-5.8426,12.158-5.694-3.0719-8.7859-8.3422-6.5497-18.08z"/>
<path fill="#338000" d="m103.64,1007.8c3.0652,5.6063 .8309,6.4135 3.6179,12.197 4.2256-3.8329 2.7365-10.378 3.7402-14.707 1.2244,5.2696 1.6588,11.658 10.065,10.628 3.6379-2.1503 4.144-8.3867 5.9715-11.758 .5466-1.5594 .4655,3.9008 .4601,5.7134 .8363,4.2781 .9297,5.7 3.3082,8.5926 4.8003-3.4141 11.381-10.083 10.938-16.213 2.2302,4.9223 3.4408,10.279 3.6774,15.674 4.0254-1.7057 7.4802-5.4136 9.1835-8.9826 1.2264,3.7528-.7064,6.839 4.08,9.6859 .7343-4.2822 2.3741-11.302 6.8476-13.038-3.6982,6.248-5.8021,15.066-5.4388,22.256-3.4948,1.3606-5.8871-.768-9.568-.045-24.818-.2375-49.635-.4752-74.453-.7127-.1072-8.5434-1.9223-17.051-5.3453-24.858 3.9832,4.5221 7.4165,9.6996 8.8017,15.634 4.499-1.638 7.5335-8.237 8.5598-12.556 1.5405,4.0646-1.6322,11.873 5.4064,11.25 5.2688-2.8426 8.13-7.7194 6.0607-16.73z"/>
<path fill="url(#linearGradient8032)" d="m168.28,1035.7s-31.367,6.2626-47.268,6.4486c-16.525,.1932-37.796-1.6513-49.268-5.5515-4.8627-1.6532-.1341-10.449-1.8189-15.3-3.3889-9.7595-16.203-26.421-16.203-26.421s13.108,11.481 18.061,18.547c1.4724,2.1004 3.3515,6.9272 3.3515,6.9272s3.0083-3.4658 3.7635-5.5777c2.2606-6.322 1.8756-20.055 1.8756-20.055s.2899,14.374 3.5569,20.487c1.1363,2.1261 5.237,4.9879 5.237,4.9879s.8597-6.4381 1.8731-9.5037c1.6859-5.0996 6.9207-14.551 6.9207-14.551s-1.9242,11.66-.0197,16.996c1,2.8018 5.6588,6.901 5.6588,6.901s5.3622-6.2619 6.132-10.135c.6871-3.4561-1.5971-10.45-1.5971-10.45s2.3717,2.4258 4.2259,6.7777c4.3458,5.4986 1.9846,8.4916 5.6721,13.649 0,0 6.3726-3.4852 8.0249-6.5067 2.4687-4.5142 1.7154-15.34 1.7154-15.34s3.5939,9.5807 4.4328,14.596c.3903,2.3335 .2599,7.0932 .2599,7.0932s1.3079-8.1479 2.9773-11.87c1.3339-2.9739 5.5011-8.084 5.5011-8.084s-.7182,10.146 1.2422,14.63c.9336,2.1357 4.7124,5.1659 4.7124,5.1659s4.0811-3.8876 5.3433-6.3489c2.3327-4.5488 3.766-14.867 3.766-14.867s.4274,9.9987 1.9378,14.707c.7328,2.2843 3.3858,6.3508 3.3858,6.3508s1.7543-4.5802 3.0702-6.6293c4.2066-6.5503 15.188-17.741 15.188-17.741s-7.7051,15.118-9.8191,23.266c-1.4652,5.6474-5.7889,13.058-1.8928,17.4z"/>
<path fill="#0f3100" d="m57.312,447.38c4.052,5.67 10.378,15.08 12.626,21.56 .024,.07 .04,.15 .062,.22l.5,.81s-1.963-7.55-3.875-10.91c-2-3.5-6.264-8.4-9.313-11.68z" transform="translate(0 552.36)"/>
<path fill="#0f3400" d="m180,442.69s-.61,.62-.97,1c-2.68,4.25-5.94,9.68-7.56,13.56-2.25,5.36-4.56,16.81-4.56,16.81l.65-.06c.81-2.75 1.95-5.58 2.6-8.06 2.11-8.15 9.84-23.25 9.84-23.25z" transform="translate(0 552.36)"/>
</g>
</svg>
