<svg xmlns="http://www.w3.org/2000/svg" viewBox="0 0 381.66 339.9" xmlns:xlink="http://www.w3.org/1999/xlink">
<defs>
<filter width="1.437" x="-.218" y="-.266" height="1.532" color-interpolation-filters="sRGB" id="filter4052">
<feGaussianBlur stdDeviation="1.40342"/>
</filter>
<filter width="1.45" x="-.225" y="-.45" height="1.9" color-interpolation-filters="sRGB" id="filter3906">
<feGaussianBlur stdDeviation=".7412"/>
</filter>
<filter color-interpolation-filters="sRGB" id="filter3966">
<feGaussianBlur stdDeviation="1.12368"/>
</filter>
<filter width="1.327" x="-.163" y="-.013" height="1.026" color-interpolation-filters="sRGB" id="filter3828">
<feGaussianBlur stdDeviation=".87491"/>
</filter>
<filter color-interpolation-filters="sRGB" id="filter3846">
<feGaussianBlur stdDeviation=".21247"/>
</filter>
<filter width="1.355" x="-.177" y="-.016" height="1.033" color-interpolation-filters="sRGB" id="filter4042">
<feGaussianBlur stdDeviation="1.23871"/>
</filter>
<filter color-interpolation-filters="sRGB" id="filter3948">
<feGaussianBlur stdDeviation=".97693"/>
</filter>
<linearGradient id="linearGradient5698" x1="332.13" gradientUnits="userSpaceOnUse" x2="468.98">
<stop offset="0" stop-color="#b9b9b7" stop-opacity=".063"/>
<stop offset=".566" stop-color="#c9c9c6"/>
<stop offset="1" stop-color="#dadad6" stop-opacity="0"/>
</linearGradient>
<linearGradient id="linearGradient3016" x1="229.45" gradientUnits="userSpaceOnUse" x2="511">
<stop offset="0" stop-color="#4d4d4d"/>
<stop offset="1" stop-color="#4d4d4d" stop-opacity=".301"/>
</linearGradient>
<linearGradient id="linearGradient3653">
<stop offset="0" stop-color="#d4d2d2"/>
<stop offset="1" stop-color="#888"/>
</linearGradient>
<linearGradient gradientTransform="translate(-40.251 7.2676)" id="linearGradient5696" x1="306.42" gradientUnits="userSpaceOnUse" x2="494.7">
<stop offset="0" stop-color="#b9b9b7" stop-opacity=".105"/>
<stop offset=".797" stop-color="#c9c9c6"/>
<stop offset="1" stop-color="#dadad6" stop-opacity="0"/>
</linearGradient>
<linearGradient id="linearGradient5694" xlink:href="#linearGradient3653" x1="508.22" gradientUnits="userSpaceOnUse" x2="515.32"/>
<linearGradient id="linearGradient3009" x1="170.45" gradientUnits="userSpaceOnUse" x2="180.51">
<stop offset="0" stop-color="#464642"/>
<stop offset="1" stop-color="#999" stop-opacity="0"/>
</linearGradient>
<linearGradient id="linearGradient5700" x1="214.11" gradientUnits="userSpaceOnUse" x2="218.03">
<stop offset="0" stop-color="#5b5b5d"/>
<stop offset="1" stop-color="#7f7980" stop-opacity="0"/>
</linearGradient>
<linearGradient id="linearGradient3000" xlink:href="#linearGradient3653" x1="180.25" gradientUnits="userSpaceOnUse" x2="539.99"/>
<linearGradient gradientTransform="matrix(1 .00252 -.00252 1 2.3387 .17736)" id="linearGradient2997" y1="464.25" y2="487.12" x1="392.72" gradientUnits="userSpaceOnUse" x2="397.87">
<stop offset="0" stop-color="#494444" stop-opacity="0"/>
<stop offset=".479" stop-color="#444949"/>
<stop offset="1" stop-color="#999" stop-opacity="0"/>
</linearGradient>
<linearGradient id="linearGradient3003" y1="223.29" y2="281.12" x1="172.86" gradientUnits="userSpaceOnUse" x2="182.24">
<stop offset="0" stop-color="#b9b9b7"/>
<stop offset=".797" stop-color="#c9c9c6"/>
<stop offset="1" stop-color="#dadad6" stop-opacity="0"/>
</linearGradient>
<linearGradient gradientTransform="matrix(1.125 0 0 1.0198 -23.131 -2.18)" id="linearGradient3006" y1="295.4" y2="266.04" x1="192.98" gradientUnits="userSpaceOnUse" x2="215.11">
<stop offset="0" stop-color="#494444" stop-opacity="0"/>
<stop offset=".518" stop-color="#444949"/>
<stop offset="1" stop-color="#999" stop-opacity="0"/>
</linearGradient>
<marker orient="auto" overflow="visible" refX="0" refY="0" id="SquareS">
<path stroke="#000" fill-rule="evenodd" stroke-width="1.25" d="m-5-5v10h10v-10h-10z" transform="scale(.2)"/>
</marker>
<marker orient="auto" overflow="visible" refX="0" refY="0" id="Arrow2Send">
<path fill-rule="evenodd" stroke-linejoin="round" stroke-width=".625" d="m8.7186,4.0337-10.926-4.0177 10.926-4.0177c-1.7455,2.3721-1.7354,5.6175 0,8.0354z" transform="matrix(-.3 0 0 -.3 .69 0)"/>
</marker>
<marker orient="auto" overflow="visible" refX="0" refY="0" id="DotS">
<path stroke="#000" fill-rule="evenodd" stroke-width="1.25" d="m-2.5-1c0,2.76-2.24,5-5,5s-5-2.24-5-5 2.24-5 5-5 5,2.24 5,5z" transform="matrix(.2 0 0 .2 1.48 .2)"/>
</marker>
</defs>
<g transform="translate(-159.87 -203.79)">
<path fill="#343334" color="#000" d="m204.34,535.44c3.3038-2.7689 6.7685-11.812 7.0738-18.462 .1424-3.1018-4.0302-58.989-9.2725-124.19-5.2422-65.204-9.3846-119.54-9.2052-120.74 .1794-1.2035 1.2837-4.3238 2.4541-6.9339 2.055-4.5831 2.3396-4.8303 8.3105-7.2196 3.4004-1.3607 26.418-8.0073 51.15-14.77 61.306-16.764 86.088-21.73 139.08-27.867 45.432-5.2622 84.345-8.2266 100.96-7.6912 11.468,.3695 11.579,.3901 16.196,2.9939 4.016,2.265 5.0644,3.4341 7.7039,8.5901l3.0553,5.9682 8.3338,109.01c8.0417,105.19 8.2825,109.23 6.8707,115.27-.8047,3.447-2.5384,8.2471-3.8527,10.667l-2.3896,4.3997-162.85,36.257c-89.565,19.941-172.78,41.44-173.56,41.494-1.1379,.0784 8.2802-5.3857 9.9346-6.7723z"/>
<path color="#000" d="m165.58,352.81s-6.1064-69.135-5.6892-73.429c1.563-7.2607-.4287-9.5008 7.4015-13.988 4.7511-2.5741 21.858-10.943 24.983-11.07 1.2188-.0497-5.9966,7.925-8.9133,11.265l-5.3031,6.0732-.6096,8.7672c-.3574,5.1371 1.2146,32.115 3.7962,65.155 4.6516,59.533 4.8869,76.785 1.1426,83.792-.9844,1.8423-3.9016,5.0082-6.4828,7.0354-2.5811,2.0272-4.4136,3.5424-4.4838,3.5376-1.3269-29.065-3.6083-58.117-5.8412-87.138z"/>
<path fill="url(#linearGradient3016)" color="#000" d="m246.57,477c-1.579-2.0349-1.6099-6.9802-1.6099-6.9802l-7.9532-85.934-7.5579-87.91 1.9906-3.2769c1.2735-2.0964 2.7614-3.7101 4.1304-4.4795 6.457-3.629 8.0688-3.9473 130.66-25.802 65.483-11.674 119.51-21.226 120.05-21.226 .5439,0 2.5847,.5003 4.5351,1.1117 3.34,1.0471 3.6535,1.2961 5.3906,4.2816l1.8444,3.1698 6.476,85.309 6.4759,85.309-1.0664,2.5329c-.9421,2.2378-1.554,2.7891-5.2513,4.7317-4.1221,2.1658-6.0052,2.5712-125.45,27.009-66.698,13.645-121.69,24.78-122.2,24.744-4.7037,.5232-8.879-.554-10.458-2.5889z"/>
<path fill="#999" color="#000" d="m179.53,525.76c-.2046-1.2887-1.4625-2.181-2.3843-3.1045-1.9036-1.9072-6.1211-2.4153-6.402-4.936-1.8814-16.88-5.0411-53.729-5.0411-53.729s-.3079-2.455 .5168-4.3101c.854-1.921 5.7106-3.6163 5.7106-3.6163 .0595,.2988 .4112,.658-.3596-9.2504-.1141-4.6935-.1326-7.6991-.1356-7.8815-.003-.1824 .2635-1.2732 1.798-3.0267 2.8685-3.4473 4.7066-7.5356 7.152-11.307 5.7154-8.6526 2.3343-10.115 2.3328-23.458-.0008-7.2522-1.8393-23.702-5.4004-62.706-3.2672-35.785-6.8145-59.823-2.6112-70.06s1.5195-3.5409 4.3777-6.7421c2.8581-3.2013 5.9936-4.4588 11.767-7.6391l29.006-8.3467c65.307-18.52 114.78-26.179 130.8-28.227 21.809-3.9492-23.688,7.2217-36.517,10.672-18.184,3.8056-103.07,23.241-112.51,26.963l-5.2186,2.9732-2.1461,4.2574c-2.0873,5.0566-5.9339-1.3054 4.684,130.88 5.1892,64.602 10.272,119.49 10.273,122.32 .0006,4.883 2.5953,4.5621-.6524,11.137l-2.1992,5.6388-6.0051,3.113c-5.9122,3.0655-6.729,4.2591-11.262,4.5418l-8.1488,.2232-.6796-7.3771s-.3688-4.6216-.7459-6.997zm-1.8112-9.8484c2.547-1.2994 2.5283-1.1828 1.6258-10.113-.5707-5.6468-.633-5.828-2.7334-7.9457-1.7706-1.7853-2.4065-2.1026-3.6084-1.801-1.145,.2874-1.404,.6337-1.2034,1.6092 .1406,.6836 .5395,5.0094 .8864,9.6129 .3468,4.6034 .7295,8.6838 .8502,9.0674 .3149,1 1.6488,.8629 4.1828-.4298z"/>
</g>
<g transform="matrix(1.1575 0 0 1.1012 -163.0132 -254.984)">
<path fill="none" stroke="#c4c3c3" stroke-linecap="round" stroke-width="2.214" d="m151.91,497.32 1.8143,18.61"/>
<path color="#000" d="m154.74,516.6c-.6267-6.8445-1.278-13.338-2.0864-20.17 .0579-.07 4.1281,2.817 4.612,3.7531 .583,1.1277 1.2896,12.049 1.2896,14.09 0,.4668-.4383,1.1837-1.8662,1.7516l-1.9491,.5752z"/>
</g>
<g transform="translate(-159.87 -203.79)">
<path fill="url(#linearGradient3009)" d="m176.76,430.46 3.0987-5.5478 .0578,19.627 2.3674,6.313-10.061,5.1293-.9371-17.459 5.4745-8.0617z"/>
<path fill="url(#linearGradient3006)" d="m195.74,263.74c9.7466-10.056 44.234-13.046 44.234-13.046l20.545,19.282s-27.428,7.9797-34.102,19.733c-3.9302,6.9216-.6988,24.717-.6988,24.717l-27.673-.2795-4.0531-41.854s-.2779-6.4625 1.747-8.5517z"/>
<path fill="url(#linearGradient3003)" d="m173.93,291.8 16.207-1.5812 1.4456-16.998 .6269-8.9283 3.0665-6.0933 9.8148-4.3004 35.577-9.8826 66.448-15.976 14.85-4.7437-80.439,16.323-39.53,11.069-13.44,4.1846s-8.3007,4.0092-11.136,7.4628c-2.5095,3.0564-4.56,10.953-4.56,10.953l1.0701,18.512z"/>
<path fill="none" stroke="url(#linearGradient3000)" stroke-linecap="round" stroke-width="4" d="m182.56,541.49s5.8169,.5375 8.5897-.1788c5.1344-1.3263 10.472-3.5239 14.076-7.4138 3.008-3.2464 4.364-7.8534 5.275-12.184 .8299-3.9454 .3925-8.0759 .0734-12.095-6.2439-78.648-13.538-165.84-18.782-233.68-.1978-2.5582-.1617-5.4514 .5757-8.0326 .8806-3.0823 2.1166-6.346 4.4838-8.5076 3.5841-3.2729 8.787-4.2246 13.443-5.594 29.847-8.7778 59.458-16.971 89.548-24.02 17.999-4.2167 36.114-8.0392 54.375-10.919 27.119-4.2766 81.823-9.4219 81.823-9.4219s31.992-2.9792 48.039-3.2163c7.7439-.1144 15.797-1.3483 23.218,.8666 3.5514,1.0599 7.0139,3.0128 9.5206,5.7426 3.0488,3.3202 5.5549,7.6436 5.9741,12.132 7.0035,74.977 11.636,145.31 16.696,218.67 .3553,5.1509-1.8652,9.1211-4.2409,13.018-1.7354,2.8463-7.0342,7.1089-7.0342,7.1089"/>
<path fill="url(#linearGradient2997)" d="m212.25,498.03 325.18-64.559-.1559,15.676-8.8526,12.514-319.4,71.9 4.0206-14.975-.7906-20.556z"/>
</g>
<g fill="#c8d39b" transform="matrix(.98497 -.17273 .17273 .98497 -159.87 -203.79)">
<path d="m271.37,537.67-.528,1.248c.42,.564 .984,.828 1.764,.828 1.836,0 3.636-1.5 3.636-3.024 0-.492-.192-.744-1.08-1.44-.876-.684-1.02-.888-1.02-1.404 0-.78 .588-1.452 1.296-1.452 .504,0 .684,.216 .816,.984l.792-.564c-.072-.66-.432-.984-1.068-.984-1.236,0-2.64,1.368-2.64,2.556 0,.54 .252,.936 .948,1.476 .816,.648 1.032,.972 1.032,1.524 0,.936-.9,1.764-1.944,1.764-.516,0-1.044-.228-1.368-.588-.252-.276-.348-.528-.444-1.056l-.192,.132"/>
<path d="m282.27,537.33c-.9,.6-1.08,.708-1.2,.708-.084,0-.144-.096-.144-.24 0-.312 .288-1.632 .72-3.228 .132-.18 .156-.216 .348-.432-.576-.132-.996-.18-1.512-.18-.492,0-.72,.048-1.032,.24-.432,.252-.936,.624-1.092,.792-.444,.504-.948,2.124-.948,3.096 0,.576 .192,.96 .492,.96 .264,0 .66-.24 2.16-1.32-.12,.552-.18,.924-.18,1.068 0,.156 .072,.252 .192,.252 .144,0 .144,0 1.104-.612 .348-.228 .624-.42 1.08-.756l.012-.348m-2.34,.072c-.708,.516-1.068,.72-1.284,.72-.192,0-.312-.216-.312-.6 0-.6 .192-1.416 .492-2.1 .288-.66 .552-.912 .96-.912 .216,0 .588,.06 1.02,.156-.24,.912-.324,1.188-.336,1.248-.072,.3-.132,.6-.204,.912-.012,.06-.048,.204-.108,.42l-.228,.156"/>
<path d="m285.77,537.38c-.912,.54-1.296,.744-1.464,.744-.156,0-.348-.312-.348-.564 0-.168 .204-1.092 .516-2.352 .168-.012 .288-.012 .348-.012l.48-.012c.048,0 .168-.012 .36-.036l.456-.348h-1.536l.48-1.944c-.228,.12-.324,.156-.504,.24-.084,.048-.18,.084-.276,.132-.048,.024-.108,.048-.168,.072l-.336,1.5c-.108,.012-.18,.012-.216,.012h-.288c-.024,0-.084,0-.18,.012-.132,.084-.144,.084-.348,.252-.036,.024-.096,.072-.18,.132h1.104c-.636,2.664-.636,2.664-.636,3.036 0,.384 .252,.804 .48,.804 .264,0 1.08-.504 2.232-1.368l.024-.3"/>
<path d="m287.22,538.66 .708-2.82c1.5-.948 1.536-.96 1.704-.96 .084,0 .132,.06 .132,.156 0,.18-.096,.636-.444,2.004-.264,1.068-.312,1.272-.312,1.5 0,.168 .048,.324 .18,.54 .552-.252 1.38-.768 2.22-1.392l.084-.336c-1.2,.684-1.248,.708-1.368,.708s-.192-.132-.192-.324c0-.252 .084-.648 .312-1.476 .564-2.016 .564-2.016 .564-2.1 0-.132-.084-.204-.24-.204-.18,0-.444,.108-.876,.384l-1.644,1.02c.108-.396 .288-1.152 .288-1.248 0-.084-.072-.156-.156-.156-.132,0-.996,.444-1.884,.972l-.072,.312c.768-.348 .816-.36 .924-.36 .084,0 .144,.072 .144,.168 0,.252-.228,1.248-.528,2.34l-.276,.972c-.024,.084-.084,.312-.168,.648l.9-.348"/>
<path d="m296.69,537.33c-.9,.6-1.08,.708-1.2,.708-.084,0-.144-.096-.144-.24 0-.312 .288-1.632 .72-3.228 .132-.18 .156-.216 .348-.432-.576-.132-.996-.18-1.512-.18-.492,0-.72,.048-1.032,.24-.432,.252-.936,.624-1.092,.792-.444,.504-.948,2.124-.948,3.096 0,.576 .192,.96 .492,.96 .264,0 .66-.24 2.16-1.32-.12,.552-.18,.924-.18,1.068 0,.156 .072,.252 .192,.252 .144,0 .144,0 1.104-.612 .348-.228 .624-.42 1.08-.756l.012-.348m-2.34,.072c-.708,.516-1.068,.72-1.284,.72-.192,0-.312-.216-.312-.6 0-.6 .192-1.416 .492-2.1 .288-.66 .552-.912 .96-.912 .216,0 .588,.06 1.02,.156-.24,.912-.324,1.188-.336,1.248-.072,.3-.132,.6-.204,.912-.012,.06-.048,.204-.108,.42l-.228,.156"/>
<path d="m297.07,536.31c.06-.18 .12-.348 .132-.408 .264-.756 .348-.828 .996-.816 .48-.012 .612-.024 .9-.084-.696,.78-.9,1.032-1.068,1.308-.348,.576-.552,1.26-.552,1.848 0,.552 .252,.888 .648,.888 .948,0 2.196-.996 3.024-2.412 .468-.792 .792-1.752 .792-2.34 0-.276-.084-.456-.312-.648-.288,.084-.432,.144-.804,.324 .144,.324 .192,.516 .192,.828 0,.732-.216,1.5-.624,2.196-.468,.792-1.128,1.368-1.572,1.368-.264,0-.48-.312-.48-.72 0-.552 .192-1.212 .528-1.824 .24-.42 .468-.732 1.032-1.38 .012-.036 .012-.072 .012-.084 0-.036 0-.048-.024-.132h-.12c-.132,.156-.264,.192-.648,.192h-.288c-.744-.036-.864-.036-.96-.036-.228,0-.348,.036-.42,.132-.156,.192-.348,.696-.588,1.548l.204,.252"/>
<path d="m304.36,539.1c.516-.564 .66-.66 .96-.66 .12,0 .276,.024 .468,.072 .888,.204 2.064,.42 2.256,.42 .096,0 .156-.012 .276-.06l1.056-1.584-.096-.276c-.768,.972-.852,1.056-1.176,1.056-.06,0-.144-.012-.252-.036-.828-.144-1.548-.252-2.148-.348l1.476-1.368 1.068-.996 .6-.564c.348-.528 .492-.936 .492-1.464 0-.768-.492-1.26-1.236-1.26-.612,0-1.248,.228-1.74,.636-.432,.336-.66,.768-.66,1.26 0,.096 .012,.156 .036,.288l.852,.096c-.108-.324-.144-.492-.144-.708 0-.66 .396-1.092 .996-1.092 .564,0 .972,.492 .972,1.176 0,.372-.12,.792-.312,1.092-.252,.408-.552,.732-1.476,1.596-1.548,1.452-1.728,1.632-2.316,2.376l.048,.348"/>
<path d="m313.58,531.98c-.864,0-1.836,.6-2.424,1.488-.564,.864-1.008,2.412-1.008,3.54 0,1.296 .48,1.968 1.392,1.968 1.032,0 1.968-.636 2.52-1.716 .48-.912 .828-2.352 .828-3.36 0-1.272-.444-1.92-1.308-1.92m-.588,.504c.54,0 .852,.636 .852,1.788 0,.96-.252,2.196-.636,3.12-.3,.732-.696,1.14-1.104,1.14-.528,0-.912-.684-.912-1.644 0-.66 .228-2.004 .468-2.784 .324-1.08 .78-1.62 1.332-1.62"/>
<path d="m318.85,531.98c-.864,0-1.836,.6-2.424,1.488-.564,.864-1.008,2.412-1.008,3.54 0,1.296 .48,1.968 1.392,1.968 1.032,0 1.968-.636 2.52-1.716 .48-.912 .828-2.352 .828-3.36 0-1.272-.444-1.92-1.308-1.92m-.588,.504c.54,0 .852,.636 .852,1.788 0,.96-.252,2.196-.636,3.12-.3,.732-.696,1.14-1.104,1.14-.528,0-.912-.684-.912-1.644 0-.66 .228-2.004 .468-2.784 .324-1.08 .78-1.62 1.332-1.62"/>
<path d="m324.13,531.98c-.864,0-1.836,.6-2.424,1.488-.564,.864-1.008,2.412-1.008,3.54 0,1.296 .48,1.968 1.392,1.968 1.032,0 1.968-.636 2.52-1.716 .48-.912 .828-2.352 .828-3.36 0-1.272-.444-1.92-1.308-1.92m-.588,.504c.54,0 .852,.636 .852,1.788 0,.96-.252,2.196-.636,3.12-.3,.732-.696,1.14-1.104,1.14-.528,0-.912-.684-.912-1.644 0-.66 .228-2.004 .468-2.784 .324-1.08 .78-1.62 1.332-1.62"/>
</g>
<g transform="translate(-159.87 -203.79)">
<path fill="none" filter="url(#filter3828)" stroke="#797779" stroke-linecap="round" stroke-width="1.948" d="m500.9,247.9 12.86,162.12" transform="matrix(1 0 0 1.0538 0 -14.896)"/>
<path fill="none" filter="url(#filter3846)" stroke="url(#linearGradient5694)" stroke-linecap="round" stroke-width="2.026" d="m513.6,424s.4715-.573-.4381,1.68c-.84,2.0808-3.5915,3.0675-3.5915,3.0675" transform="matrix(1 0 0 .97422 0 11.066)"/>
<path fill="none" filter="url(#filter3906)" stroke="#918e8e" stroke-width="2.8" d="m498.85,243.79s-1.5597-2.0506-2.8625-2.8654c-1.4955-.9352-3.5999-1.1887-3.5999-1.1887"/>
<path fill="none" filter="url(#filter3966)" stroke="url(#linearGradient5696)" d="m266.66,480.46 187.28-37.46"/>
<path fill="none" filter="url(#filter4052)" stroke="#000" stroke-width="1.778" d="m227.7,294.56 2.7671-5.9296 7.1155-5.139 5.5343-1.5812" transform="matrix(1.1263 0 0 1.1234 -30.909 -34.579)"/>
<path fill="none" filter="url(#filter4042)" stroke="#000" stroke-width="2" d="m243.18,479.9-16.77-182.25"/>
<path fill="none" filter="url(#filter3948)" stroke="url(#linearGradient5698)" d="m247.1,279.76 221.38-39.13"/>
<path filter="url(#filter4096)" stroke="url(#linearGradient5700)" color="#000" stroke-width=".5" d="m218.03,394.65a1.9567,3.0747 0 1,1 -3.9133,0 1.9567,3.0747 0 1,1 3.9133,0z" transform="matrix(-1.3214 0 0 1.0909 502.08 -36.296)"/>
<path color="#000" d="m192.92,505.5c0,.6954-.5735,1.2592-1.281,1.2592-.7075,0-1.281-.5638-1.281-1.2592 0-.6954 .5735-1.2592 1.281-1.2592 .7075,0 1.281,.5638 1.281,1.2592z"/>
<path fill="none" marker-end="url(#Arrow2Send)" stroke="#000" stroke-width=".8" d="m191.02,505.67-7.8579,1.0858"/>
<path fill="none" marker-end="url(#SquareS)" stroke="#000" stroke-width=".8" d="m187.75,505.84s.027-1.4703-1.0702-1.5685c-.8006-.0716-1.9264-.0245-1.9264-.0245"/>
<path fill="none" marker-end="url(#DotS)" stroke="#000" stroke-width=".8" d="m188.99,506.16s.2304,1.2469-.1211,1.7429c-.5034,.7104-2.2401,.6572-2.2401,.6572"/>
<path fill="none" stroke="#737375" stroke-width=".3" d="m173.04,496.56 1.9765,20.556"/>
</g>
<g fill="#cfcfcf" transform="matrix(.90796 -.11425 .17138 1.0798 -159.87 -203.79)">
<path d="m333.82,264.57v-3.5244h-2.9004v-1.459h4.6582v5.6338c-.6856,.4863-1.4414,.8555-2.2676,1.1074-.8262,.2461-1.708,.3691-2.6455,.3691-2.0508,0-3.6562-.5977-4.8164-1.793-1.1543-1.2012-1.7314-2.8711-1.7314-5.0098 0-2.1445 .5772-3.8144 1.7314-5.0098 1.1602-1.2012 2.7656-1.8018 4.8164-1.8018 .8555,0 1.667,.1055 2.4346,.3164 .7734,.2109 1.4853,.5215 2.1358,.9316v1.8896c-.6563-.5566-1.3535-.9756-2.0918-1.2568-.7383-.2812-1.5147-.4219-2.3291-.4219-1.6055,0-2.8125,.4483-3.6211,1.3447-.8027,.8965-1.2041,2.2324-1.2041,4.0078 0,1.7695 .4014,3.1026 1.2041,3.999 .8086,.8965 2.0156,1.3447 3.6211,1.3447 .6269,0 1.1865-.0527 1.6787-.1582 .4922-.1113 .9346-.2812 1.3272-.5098"/>
<path d="m346.33,254.77v4.9307h2.2324c.8262,0 1.4648-.2139 1.916-.6416 .4512-.4277 .6768-1.0371 .6768-1.8281 0-.7851-.2256-1.3916-.6768-1.8193-.4512-.4277-1.0898-.6416-1.916-.6416h-2.2324m-1.7754-1.459h4.0078c1.4707,0 2.581,.334 3.3311,1.002 .7559,.6621 1.1338,1.6348 1.1338,2.918 0,1.2949-.3779,2.2734-1.1338,2.9355-.75,.6621-1.8604,.9932-3.3311,.9932h-2.2324v5.2734h-1.7754v-13.122"/>
<path d="m369.02,253.75v1.7314c-.6738-.3222-1.3096-.5625-1.9072-.7207-.5977-.1582-1.1748-.2373-1.7314-.2373-.9668,0-1.7139,.1875-2.2412,.5625-.5215,.375-.7822,.9082-.7822,1.5996 0,.5801 .1728,1.0195 .5186,1.3184 .3516,.293 1.0137,.5303 1.9863,.7119l1.0723,.2197c1.3242,.252 2.2998,.6973 2.9268,1.3359 .6328,.6328 .9492,1.4824 .9492,2.5488 0,1.2715-.4278,2.2354-1.2832,2.8916-.8496,.6562-2.0977,.9844-3.7442,.9844-.6211,0-1.2832-.0703-1.9863-.2109-.6973-.1406-1.4209-.3486-2.1709-.624v-1.8281c.7207,.4043 1.4268,.709 2.1182,.9141 .6914,.2051 1.3711,.3076 2.0391,.3076 1.0137,0 1.7959-.1992 2.3467-.5976 .5508-.3984 .8262-.9668 .8262-1.7051 0-.6445-.1992-1.1484-.5977-1.5117-.3926-.3633-1.04-.6357-1.9424-.8174l-1.0811-.2109c-1.3242-.2637-2.2822-.6768-2.874-1.2393-.5918-.5625-.8877-1.3447-.8877-2.3467 0-1.1602 .4072-2.0742 1.2217-2.7422 .8203-.6679 1.9482-1.0019 3.3838-1.002 .6152,0 1.2422,.0557 1.8809,.167 .6387,.1113 1.292,.2783 1.96,.501"/>
</g>
<g transform="translate(-159.87 -203.79)">
<path fill="#b3b3b3" color="#000" d="m186.61,509.41c-.347-.0823-.6076-.3521-.6694-.6932-.1525-.8413 .9394-1.3586 1.4856-.7039l.1204,.1443 .318-.0756c.3915-.0931 .659-.2272 .7762-.3891 .0768-.1061 .091-.2005 .1033-.6873 .0132-.5224 .008-.5644-.0649-.566-.209-.005-4.0379,.55-4.0379,.5848 0,.0219 .0598,.1381 .133,.258 .0731,.1199 .1072,.2083 .0757,.1965-.0315-.0119-.5878-.1372-1.2363-.2786-.6484-.1414-1.1788-.267-1.1786-.279 .0004-.0236 .0375-.0443 1.3116-.7269 .4717-.2527 .8642-.4528 .8723-.4445 .008,.008-.0103,.1132-.0408,.2332-.0533,.2097-.0519,.2187 .0363,.2302 .0981,.0129 2.8338-.3631 2.8641-.3936 .0407-.041-.0835-.546-.1829-.7439-.1471-.2928-.3185-.362-.9779-.395l-.5084-.0254v.4694l-.3137,.0239c-.1725,.0131-.5619,.0348-.8653,.048l-.5516,.0241v-.2774c0-.1526-.0126-.5434-.0281-.8686l-.0281-.5911 .6446-.0274c.3545-.015 .7468-.0336 .8718-.0412l.2271-.0138v.4946l.6396,.0433c.5347,.0362 .6789,.0615 .879,.1539 .4524,.2089 .7509,.6425 .8816,1.2807 .0388,.1897 .0745,.3477 .0791,.3511 .005,.003 .4973-.0625 1.0948-.1463l1.0863-.1524 .0721-.2308c.0954-.3053 .3878-.6323 .6778-.7581 .4536-.1968 1.0243-.091 1.3508,.2504 .2563,.268 .356,.5086 .356,.8591 0,.3425-.0975,.5855-.3391,.8453-.4601,.4948-1.3166,.476-1.7769-.0389l-.1691-.1891-.4366,.0548c-.2401,.0302-.4928,.066-.5613,.0799l-.1247,.025 .0283,.3782c.0334,.4466-.0269,.9384-.1496,1.2185-.2037,.4651-.7163,.7844-1.4815,.923-.2411,.0437-.2862,.0696-.4522,.2601-.2238,.2567-.5315,.3732-.8106,.307z"/>
</g>
</svg>
