<svg xmlns="http://www.w3.org/2000/svg" viewBox="0 0 315 200" xmlns:xlink="http://www.w3.org/1999/xlink">
<defs>
<filter width="1.06" x="-.03" y="-.238" height="1.476" color-interpolation-filters="sRGB" id="filter4570">
<feGaussianBlur stdDeviation=".26087"/>
</filter>
<filter color-interpolation-filters="sRGB" id="filter5688">
<feGaussianBlur stdDeviation="1.6994"/>
</filter>
<filter width="1.557" x="-.278" y="-.276" height="1.552" color-interpolation-filters="sRGB" id="filter3921">
<feGaussianBlur stdDeviation="8.70355"/>
</filter>
<filter width="1.181" x="-.09" y="-.354" height="1.708" color-interpolation-filters="sRGB" id="filter4007">
<feGaussianBlur stdDeviation="1.55248"/>
</filter>
<filter color-interpolation-filters="sRGB" id="filter3869">
<feGaussianBlur stdDeviation="4.39573"/>
</filter>
<filter color-interpolation-filters="sRGB" id="filter5705">
<feGaussianBlur stdDeviation="2.41668"/>
</filter>
<filter width="1.428" x="-.214" y="-.31" height="1.621" color-interpolation-filters="sRGB" id="filter4101">
<feGaussianBlur stdDeviation="7.03265"/>
</filter>
<filter width="1.875" x="-.437" y="-.189" height="1.378" color-interpolation-filters="sRGB" id="filter5584">
<feGaussianBlur stdDeviation="5.76484"/>
</filter>
<filter width="1.417" x="-.209" y="-.224" height="1.448" color-interpolation-filters="sRGB" id="filter4716">
<feGaussianBlur stdDeviation="7.69641"/>
</filter>
<filter color-interpolation-filters="sRGB" id="filter5699">
<feGaussianBlur stdDeviation="2.5071"/>
</filter>
<linearGradient gradientTransform="translate(-44)" id="linearGradient5759" x1="208.13" gradientUnits="userSpaceOnUse" x2="374.4">
<stop offset="0" stop-color="#f3c440"/>
<stop offset="1" stop-color="#efd063"/>
</linearGradient>
<linearGradient gradientTransform="translate(2.6843 -.43855)" id="linearGradient5771" y1="156.46" y2="214.35" x1="108.32" gradientUnits="userSpaceOnUse" x2="246.47">
<stop offset="0" stop-color="#fff" stop-opacity="0"/>
<stop offset="1" stop-color="#fff"/>
</linearGradient>
<linearGradient gradientTransform="translate(-40)" id="linearGradient5763" y1="171.86" y2="295.22" x1="250.55" gradientUnits="userSpaceOnUse" x2="88.061">
<stop offset="0" stop-color="#f6c03a"/>
<stop offset=".5" stop-color="#ffda61"/>
<stop offset="1" stop-color="#e89458"/>
</linearGradient>
<linearGradient gradientTransform="translate(280.14 107.88)" id="linearGradient5765" y1="142.06" y2="95.572" x1="-252.14" gradientUnits="userSpaceOnUse" x2="-212.95">
<stop offset="0" stop-color="#ffc282"/>
<stop offset="1" stop-color="#fcdf59"/>
</linearGradient>
<pattern patternTransform="matrix(5.7726 -.21378 .20513 5.539 -44 0)" id="pattern5681" xlink:href="#Polkadots-small"/>
<pattern width="10" height="10" patternTransform="translate(0) scale(10)" patternUnits="userSpaceOnUse" id="Polkadots-small">
<circle cx="2.567" cy=".81" r=".05"/>
<circle cx="3.048" cy="2.33" r=".05"/>
<circle cx="4.418" cy="2.415" r=".05"/>
<circle cx="1.844" cy="3.029" r=".05"/>
<circle cx="6.08" cy="1.363" r=".05"/>
<circle cx="5.819" cy="4.413" r=".05"/>
<circle cx="4.305" cy="4.048" r=".05"/>
<circle cx="5.541" cy="3.045" r=".05"/>
<circle cx="4.785" cy="5.527" r=".05"/>
<circle cx="2.667" cy="5.184" r=".05"/>
<circle cx="7.965" cy="1.448" r=".05"/>
<circle cx="7.047" cy="5.049" r=".05"/>
<circle cx="4.34" cy=".895" r=".05"/>
<circle cx="7.125" cy=".34" r=".05"/>
<circle cx="9.553" cy="1.049" r=".05"/>
<circle cx="7.006" cy="2.689" r=".05"/>
<circle cx="8.909" cy="2.689" r=".05"/>
<circle cx="9.315" cy="4.407" r=".05"/>
<circle cx="7.82" cy="3.87" r=".05"/>
<circle cx="8.27" cy="5.948" r=".05"/>
<circle cx="7.973" cy="7.428" r=".05"/>
<circle cx="9.342" cy="8.072" r=".05"/>
<circle cx="8.206" cy="9.315" r=".05"/>
<circle cx="9.682" cy="9.475" r=".05"/>
<circle cx="9.688" cy="6.186" r=".05"/>
<circle cx="3.379" cy="6.296" r=".05"/>
<circle cx="2.871" cy="8.204" r=".05"/>
<circle cx="4.59" cy="8.719" r=".05"/>
<circle cx="3.181" cy="9.671" r=".05"/>
<circle cx="5.734" cy="7.315" r=".05"/>
<circle cx="6.707" cy="6.513" r=".05"/>
<circle cx="5.73" cy="9.67" r=".05"/>
<circle cx="6.535" cy="8.373" r=".05"/>
<circle cx="4.37" cy="7.154" r=".05"/>
<circle cx=".622" cy="7.25" r=".05"/>
<circle cx=".831" cy="5.679" r=".05"/>
<circle cx="1.257" cy="8.519" r=".05"/>
<circle cx="1.989" cy="6.877" r=".05"/>
<circle cx=".374" cy="3.181" r=".05"/>
<circle cx="1.166" cy="1.664" r=".05"/>
<circle cx="1.151" cy=".093" r=".05"/>
<circle cx="1.151" cy="10.093" r=".05"/>
<circle cx="1.302" cy="4.451" r=".05"/>
<circle cx="3.047" cy="3.763" r=".05"/>
</pattern>
<radialGradient cx="101.28" cy="169.53" gradientTransform="matrix(1 0 0 1.0113 4 -1.9079)" id="radialGradient5769" r="58.312" gradientUnits="userSpaceOnUse">
<stop offset="0" stop-color="#fdfff8"/>
<stop offset="1" stop-color="#fdfff8" stop-opacity="0"/>
</radialGradient>
<radialGradient cx="-218.18" cy="121.02" gradientTransform="matrix(1 0 0 .98386 280.14 108.84)" id="radialGradient5767" r="69.086" gradientUnits="userSpaceOnUse">
<stop offset="0" stop-color="#fee5c3"/>
<stop offset="1" stop-color="#fdfff8"/>
</radialGradient>
<radialGradient cx="320.96" cy="158.15" gradientTransform="matrix(1 0 0 1.0053 -44 -.83962)" id="radialGradient5761" r="58.411" gradientUnits="userSpaceOnUse">
<stop offset="0" stop-color="#ff7f2a"/>
<stop offset="1" stop-color="#e7874b"/>
</radialGradient>
</defs>
<g transform="translate(-24.961 -82.013)">
<path opacity=".5" filter="url(#filter5705)" d="m166.4,157.26c1.5052-4.8041 4.0384-9.2485 6.5783-13.595 3.2325-5.5319 6.4176-11.273 10.964-15.788 7.1639-7.1143 15.968-12.586 24.998-17.104 6.9043-3.4543 14.254-6.6125 21.928-7.4554 9.3554-1.0276 18.797,1.4483 28.067,3.0699 9.1855,1.6066 18.904,2.3024 27.19,6.5783 10.498,5.4168 19.457,13.952 26.752,23.243 3.351,4.2683 5.2731,9.5039 7.4554,14.472 3.0689,6.9868 6.8141,13.935 7.894,21.489 .9123,6.3822-.4013,12.914-1.3157,19.296-1.0615,7.4084-2.0104,14.993-4.8241,21.928-2.7148,6.6912-6.6194,13.01-11.402,18.419-6.3362,7.1665-14.097,13.171-22.366,17.981-5.8429,3.3985-12.28,5.8975-18.858,7.4554-6.4264,1.5222-13.133,1.914-19.735,1.7542-8.5565-.2072-17.046-1.8178-25.436-3.5084-6.674-1.3448-13.49-2.5513-19.735-5.2626-7.5901-3.2953-14.861-7.6655-21.051-13.157-5.0553-4.4846-9.2801-9.97-12.718-15.788-3.135-5.3053-5.6443-11.096-7.0169-17.104-1.631-7.1384-1.6695-14.614-1.3157-21.928 .4076-8.4259 1.4248-16.948 3.947-24.998z"/>
<path fill="url(#linearGradient5759)" d="m168.26,156.02c1.5052-4.8041 4.0384-9.2485 6.5783-13.595 3.2325-5.5319 6.4176-11.273 10.964-15.788 7.1639-7.1143 15.968-12.586 24.998-17.104 6.9043-3.4543 14.254-6.6125 21.928-7.4554 9.3554-1.0276 18.797,1.4483 28.067,3.0699 9.1855,1.6066 18.904,2.3024 27.19,6.5783 10.498,5.4168 19.457,13.952 26.752,23.243 3.351,4.2683 5.2731,9.5039 7.4554,14.472 3.0689,6.9868 6.8141,13.935 7.894,21.489 .9123,6.3822-.4013,12.914-1.3157,19.296-1.0615,7.4084-2.0104,14.993-4.8241,21.928-2.7148,6.6912-6.6194,13.01-11.402,18.419-6.3362,7.1665-14.097,13.171-22.366,17.981-5.8429,3.3985-12.28,5.8975-18.858,7.4554-6.4264,1.5222-13.133,1.914-19.735,1.7542-8.5565-.2072-17.046-1.8178-25.436-3.5084-6.674-1.3448-13.49-2.5513-19.735-5.2626-7.5901-3.2953-14.861-7.6655-21.051-13.157-5.0553-4.4846-9.2801-9.97-12.718-15.788-3.135-5.3053-5.6443-11.096-7.0169-17.104-1.631-7.1384-1.6695-14.614-1.3157-21.928 .4076-8.4259 1.4248-16.948 3.947-24.998z"/>
<path opacity=".5" fill="url(#pattern5681)" d="m168.26,156.02c1.5052-4.8041 4.0384-9.2485 6.5783-13.595 3.2325-5.5319 6.4176-11.273 10.964-15.788 7.1639-7.1143 15.968-12.586 24.998-17.104 6.9043-3.4543 14.254-6.6125 21.928-7.4554 9.3554-1.0276 18.797,1.4483 28.067,3.0699 9.1855,1.6066 18.904,2.3024 27.19,6.5783 10.498,5.4168 19.457,13.952 26.752,23.243 3.351,4.2683 5.2731,9.5039 7.4554,14.472 3.0689,6.9868 6.8141,13.935 7.894,21.489 .9123,6.3822-.4013,12.914-1.3157,19.296-1.0615,7.4084-2.0104,14.993-4.8241,21.928-2.7148,6.6912-6.6194,13.01-11.402,18.419-6.3362,7.1665-14.097,13.171-22.366,17.981-5.8429,3.3985-12.28,5.8975-18.858,7.4554-6.4264,1.5222-13.133,1.914-19.735,1.7542-8.5565-.2072-17.046-1.8178-25.436-3.5084-6.674-1.3448-13.49-2.5513-19.735-5.2626-7.5901-3.2953-14.861-7.6655-21.051-13.157-5.0553-4.4846-9.2801-9.97-12.718-15.788-3.135-5.3053-5.6443-11.096-7.0169-17.104-1.631-7.1384-1.6695-14.614-1.3157-21.928 .4076-8.4259 1.4248-16.948 3.947-24.998z"/>
<path fill="#f9a948" filter="url(#filter3869)" d="m282.23,121.56v-7.4425l-18.606-3.7212-20.467-6.2021-18.606,4.9617-21.087,8.6829-19.226,17.986-12.404,21.707-2.4808,27.289 2.4808,24.188 11.443,19.847 17.087,13.645-4.3415-30.39-5.5819-39.693 9.3031-16.746 28.53-3.101 14.885-19.847z"/>
<path fill="#dc7d46" filter="url(#filter4007)" d="m234.76,109.36s5.5788,.3737 7.894,1.7542c2.4922,1.4861 5.7012,6.5783 5.7012,6.5783s7.6747-1 12.28-1c4.6048,0 15.349,1 15.349,1l-9.2096-3.947-9.2096-1.7542-5.7012-3.0699-10.087-1.7542z"/>
<path fill="url(#radialGradient5761)" filter="url(#filter3921)" d="m262.38,146.99 9.7729,22.522 18.137,5.3873 12.404,17.986 11.784,3.101-6.8223-22.948-1.2404-14.885-8.6829-13.024-9.3031-14.885-4.9617-9.9234-9.9233,8.0627-13.645,3.7212-20.467,2.4808 11.784,5.5819z"/>
<path opacity=".398" fill="#fff" filter="url(#filter4101)" d="m210.92,160.4 22.805-8.7711 28.067,24.559 22.805,17.542 5.2626-2.6313-21.051-30.699c-3.5084-.8771-12.28-21.051-12.28-21.051l-42.978,7.894z"/>
<path fill="#520" filter="url(#filter4570)" d="m414.43,131.9c0,.7266-4.7123,1.3157-10.525,1.3157-5.813,0-10.525-.589-10.525-1.3157 0-.7266 4.7123-1.3157 10.525-1.3157 5.813,0 10.525,.589 10.525,1.3157z" transform="matrix(.54333 0 0 .7643 35.329 12.707)"/>
</g>
<g transform="matrix(.54333 0 0 .7643 9.592 -69.53)">
<path fill="#9c5328" d="m414.43,131.9c0,.7266-4.7123,1.3157-10.525,1.3157-5.813,0-10.525-.589-10.525-1.3157 0-.7266 4.7123-1.3157 10.525-1.3157 5.813,0 10.525,.589 10.525,1.3157z"/>
<path fill="#d3bc5f" d="m414.43,131.9c0,.7266-4.7123,1.3157-10.525,1.3157-5.813,0-10.525-.589-10.525-1.3157 0-.7266 4.7123-1.3157 10.525-1.3157 5.813,0 10.525,.589 10.525,1.3157z" transform="matrix(.7643 0 0 .7643 94.721 30.779)"/>
</g>
<g transform="translate(-24.961 -82.013)">
<path opacity=".5" filter="url(#filter5699)" d="m145.91,97.188c-4.0977-.0475-8.2617,.3473-12.281,.7188-10.585,.9782-21.099,3.5992-31,7.4688-7.4997,2.931-14.709,6.875-21.094,11.781-7.5354,5.7903-13.857,13.088-19.844,20.469-7.2243,8.9062-14.431,18.111-19.219,28.531-3.5806,7.7932-6.338,16.22-6.8438,24.781-.4069,6.8882 1.5419,13.745 3.0938,20.469 .9631,4.1724 1.9195,8.4558 3.8438,12.281 1.787,3.5525 3.8506,7.2381 7.0312,9.625 .6185,.4642 1.2543,.9256 1.9062,1.3438 1.4243,1.9491 3.0406,4.1027 4.2812,5.5 4.1746,4.7018 8.447,9.4789 13.656,13 6.2087,4.1966 13.35,6.9706 20.469,9.3125 6.6248,2.1794 13.467,4.1341 20.438,4.3438 8.3582,.2514 16.868-1.1101 24.812-3.7188 7.9955-2.6253 15.307-7.1653 22.344-11.781 4.6909-3.0772 9.093-6.6304 13.125-10.531 2.9059-2.8113 5.4315-6.0213 7.9062-9.2188 3.599-4.6501 7.2798-9.3056 10.094-14.469 2.949-5.4109 5.1377-11.22 7-17.094 1.5862-5.003 2.7905-10.144 3.5-15.344 .8507-6.235 1.3671-12.602 .875-18.875-.3968-5.059-1.853-9.978-3.0625-14.906-1.2683-5.1678-2.0226-10.571-4.375-15.344-2.1715-4.4058-5.6847-8.0309-8.7812-11.844-2.2195-2.7329-4.4228-5.5077-7-7.9062-1.0567-.9835-2.7968-2.3021-4.25-3.375-1.1172-1.5847-2.3257-3.0978-3.6562-4.5-3.2344-3.4085-6.6648-7.0948-11.062-8.75-3.7779-1.4219-7.8086-1.9213-11.906-1.9688z"/>
<path fill="url(#linearGradient5763)" d="m168.9,109.52-121.56,119.7s4.6973,6.8315 7.4425,9.9234c4.1746,4.7018 8.4353,9.5033 13.645,13.024 6.2087,4.1966 13.348,6.9612 20.467,9.3031 6.6248,2.1794 13.496,4.1318 20.467,4.3415 8.3582,.2514 16.864-1.1126 24.808-3.7213 7.9955-2.6253 15.291-7.168 22.328-11.784 4.6909-3.0772 9.1019-6.6236 13.134-10.524 2.9059-2.8113 5.4193-6.0122 7.894-9.2096 3.599-4.6501 7.2728-9.3091 10.087-14.472 2.949-5.4109 5.1545-11.229 7.0169-17.104 1.5862-5.003 2.799-10.149 3.5084-15.349 .8507-6.235 1.3692-12.584 .8771-18.858-.3968-5.059-1.8603-9.9826-3.0699-14.911-1.2683-5.1678-2.0331-10.576-4.3855-15.349-2.1715-4.4058-5.6745-8.0281-8.7711-11.841-2.2195-2.7329-4.4397-5.4955-7.0169-7.894-2.1134-1.9669-6.8695-5.2752-6.8695-5.2752z"/>
<path fill="url(#linearGradient5765)" d="m37.734,210.42c-1.5519-6.7234-3.5079-13.579-3.101-20.467 .5057-8.5615 3.2417-17.015 6.8223-24.808 4.7877-10.421 12.002-19.623 19.226-28.53 5.9866-7.3804 12.311-14.677 19.847-20.467 6.3848-4.9062 13.587-8.8529 21.087-11.784 9.9011-3.8695 20.425-6.4643 31.01-7.4425 8.0391-.7429 16.632-1.6034 24.188,1.2404 4.3977,1.6552 7.8261,5.331 11.06,8.7395 2.9594,3.1188 5.2806,6.8165 7.4554,10.525 1.72,2.9331 3.7808,5.8637 4.3855,9.2096 1.3309,7.3643-.5256,15.019-1.947,22.366-1.7704,9.1512-4.4994,18.171-8.1398,26.752-2.939,6.9276-6.4734,13.696-10.964,19.735-4.5032,6.0558-10.017,11.363-15.788,16.226-6.9142,5.827-14.445,10.989-22.366,15.349-7.8026,4.2948-15.938,8.2874-24.559,10.525-8.2505,2.1418-16.975,3.6622-25.436,2.6313-7.7114-.9395-15.714-3.2312-21.928-7.894-3.1807-2.3869-5.2299-6.0957-7.0169-9.6482-1.9242-3.8254-2.874-8.0875-3.8371-12.26z"/>
<path fill="url(#radialGradient5767)" d="m42.887,218.17c2.1766,3.3948 5.2469,6.1746 8.3325,8.7711 2.8231,2.3755 5.7665,4.814 9.2096,6.1398 3.7236,1.4337 7.8617,1.4611 11.841,1.7542 1.0205,.0752 2.047,.0284 3.0699,0 5.2687-.1462 10.584-.0388 15.788-.8771 5.5316-.8912 10.99-2.3918 16.226-4.3855 6.1097-2.3263 12.049-5.2268 17.542-8.7711 5.0647-3.2677 9.5578-7.3656 14.034-11.402 4.2986-3.8769 8.5127-7.8842 12.28-12.28 4.8328-5.6392 9.6461-11.436 13.157-17.981 4.1975-7.8254 7.0514-16.384 9.2096-24.998 1.2913-5.1539 2.007-10.478 2.1928-15.788 .2254-6.4431 .912-13.246-1.3157-19.296-1.6972-4.6093-5.142-8.5309-8.7711-11.841-3.538-3.2269-7.6681-6.1651-12.28-7.4554-5.9127-1.6544-12.291-.3723-18.419,0-6.0269,.3661-12.156,.6032-17.981,2.1928-8.4628,2.3094-16.421,6.3217-24.12,10.525-4.6262,2.5257-9.0805,5.4295-13.157,8.7711-5.1161,4.1942-9.6871,9.0465-14.034,14.034-3.9764,4.5625-7.6959,9.3783-10.964,14.472-3.6729,5.725-7.3226,11.589-9.6482,17.981-1.2253,3.3678-1.2413,7.0702-2.1928,10.525-1.1906,4.3234-3.5562,8.3111-4.3855,12.718-.6765,3.5944-.7737,7.3217-.4386,10.964 .3022,3.2842 1.2119,6.4994 2.1928,9.6482 .7024,2.2548 1.3566,4.5902 2.6313,6.5783z"/>
<path fill="#cc313f" d="m95.012,220.45 1.8606,4.0314 6.8223-2.4808h.3101l5.892-4.6516 1.7596-9.8537 2.5819,6.4425h2.7909l5.892-2.7909 3.7212-5.2718 7.1324-2.7909 1.8606-7.1324 4.0314,.3101 11.232-11.395v-6.1398h2.8506l3.7277-6.1398 1.9735-7.6747-2.6313-.8771 3.947-3.5084 .2193-9.2096 3.5084-2.6313 .2193-8.1132-5.7012-1.0964 5.4632-4.3057-.3101-4.9617-2.7909-.9303 2.2426-3.3975-1.5349-2.412-1.9735-3.0699-4.6048-.8771-4.8241,4.3855 3.947-6.5783-.2193-5.0434-4.8241-3.0699h-8.1132l-1.5349,1.0964-6.359,.2193-2.1928,2.8506-3.0699-.2193 .8771-4.6048-9.8675-.8771-5.9205,4.1663-6.359,.4386-5.2626,3.7277-.8771,4.3855 .2193,3.2892-1.7542-4.3855-2.1928-1.0964-8.9904,4.1663-3.0699,3.7277-5.0434,2.8506-5.4819,5.2626-3.7277,5.0434 .2193,2.1928 6.359,4.0699-8.9904-1.6578-3.947,4.3855-3.2892,3.0699-4.3855,5.4819-1.5349,4.3855-1.3157,4.6048 .2193,2.1928 3.7277-.4386-5.7012,5.7012-3.5084,5.7012 .4385,3.947h5.0434l-3.2892,3.0699-3.2892,3.947v4.6048l6.1398,1.5349 3.947,1.3157-4.1663,2.1928-5.2626,3.2892-1.5349,2.412v5.2626l2.1928,.2193-2.1928,2.6313 4.1663,4.6048 3.7277,2.1928 3.947-1.0964 .2193,2.8506 4.3855,3.0699 5.7012-.4385 3.2626-5.2626h4.1928l-3.7277,4.1663 1.0964,1.5349 3.7277,2.8506 3.7277,.4386 5.4819-.8771 3.7277-1.3157 2.1928-2.6313z"/>
<path fill="#c75942" filter="url(#filter4716)" d="m117.16,125.31-10.531,2.625-14.906,10.531-15.781,13.156-4.4062,12.281-6.125,10.531 .875,9.6562-1.75,18.406 10.5,5.2812 43.875-6.1562 13.156-14.031 14.906-23.688 6.125-16.656-2.625-13.156-13.156-6.1562-7.875-1.75-12.281-.875zm-1.75,7.9062 21.906,6.125 1.75,17.562-3.5,11.406-12.281,11.375-4.375,14.062-17.562-2.6562h-20.156l-4.375-19.281 6.125-16.656 16.656-14.062 15.812-7.875z"/>
<path opacity=".482" fill="#fca" filter="url(#filter5584)" d="m154.71,213.97 16.746-17.366 13.024-46.516 1.8606,44.035-13.645,29.15z"/>
<path fill="url(#radialGradient5769)" d="m129.41,110.56-10.75,37.906-5.625,.3125-1.5312,4.1875-4.8438-.4375-1.9688-3.3125-.1562,.25-4.2188-35.719v-.1875l-.125-.0937-.625-.625-.7188,.6875 .5,.5 4.3438,36.781-2.5312,4.0312-31.531-12.656-.375,.9375 30.125,12.094-3.875,.1562v5.9062l-4.625-.4375 .2188,2.4062 3.0625,1.5625-.875,2.8438-3.733,.23 .438,2.62-.25,.4688-42.781,12.75 .2812,.9688 41.844-12.5-.4062,.7188 3.2812,.2188h2.875l1.3125,5.0625 2.8438-1.7812 .6562,.0625-32.188,51.5 .8438,.5312 32.438-51.938 2.8438,.2812 3.2812-3.0625 2.0312,2.1875 2.8125,38.031 1-.0625-2.8438-38.594 .9688-3.75 1.9688-1.75 5.0312,1.0938 20.219,28.875-.5938,4.1562 1,.1562 .625-4.3438v-.1875l-.0937-.1875-20.812-29.812 .3125-1.2812 3.9375-4.5938 38.5-1.6562-.0312-1-39.656,1.7188-2.3125-1.7188 3.75-4.9688 40.906-17.625-.4062-.9375-41.406,17.875-1.2812-.4688 1.0938-3.75-.875-2.8438-1,.0625 10.656-37.562-.9688-.2812z"/>
<path opacity=".789" fill="url(#linearGradient5771)" filter="url(#filter5688)" d="m89.518,230.57 48.679-24.559 30.26-49.118-4.3855-41.224s-16.237,19.179-21.928,30.26c-3.3788,6.5796-3.3932,14.603-7.0169,21.051-4.8786,8.6808-13.369,14.804-19.296,22.805-9.631,13-26.313,40.786-26.313,40.786z"/>
</g>
</svg>
