<svg xmlns="http://www.w3.org/2000/svg" viewBox="0 0 264 266.25" xmlns:xlink="http://www.w3.org/1999/xlink" enable-background="new 0 0 264 266.25">
<g fill-rule="evenodd">
<g fill="#010101">
<path d="m50.25,50.25-1.5-6 0-7.5 .75-7.5 1.5-5.25-2.25-2.25-3-1.5-6,0-1.5,9.75-1.5,13.5 2.25,16.5 5.25,15-6-.75-7.5,1.5-6.75,3.75-7.5,6-4.5,7.5-2.25,9 .75,9 4.5,11.25-5.25,5.25-3.75,7.5-1.5,9 1.5,9 3,8.25 4.5,7.5 7.5,5.25 9.75,3-3.75,3-3,4.5-3.75,5.25-2.25,6-.75,7.5 1.5,7.5 3,9 5.25,8.25 8.25,6.75 7.5,3.75 9,.75 8.25-.75 8.25-3.75 6-5.25 5.25-6 1.5-6.75 7.5,1.5 3,.75 .75,0 0,6.75 2.25,6.75 5.25,6.75 6.75,5.25 9,4.5 9,1.5 10.5-2.25 9-6.75 2.25,5.25 3.75,5.25 5.25,4.5 7.5,3 7.5,1.5 8.25-1.5 8.25-3.75 8.25-6.75 3.75,3.75 4.5,2.25 5.25,1.5 6,0 6-.75 10.5-4.5 3-2.25 3-3 1.5-3.75 2.25-3.75 1.5-9-.75-5.25-1.5-4.5-3.75-5.25 4.5,.75 5.25-1.5 5.25-2.25 3.75-3.75 3.75-5.25 3-6 2.25-7.5 0-6.75-.75-5.25-2.25-4.5-2.25-5.25-2.25-3.75-6-6-3.75-1.5-3-.75 5.25-6.75 2.25-10.5 0-11.25-3.75-9.75-3-3.75-1.5-3-2.25-3-3.75-3.75-4.5-1.5-1.5-.75 3-3.75 1.5-3.75 1.5-5.25 0-12-2.25-6-3-6-3.75-4.5-5.25-4.5-5.25-3-4.5-2.25-4.5-.75-5.25,0-3.75,.75-9,4.5-1.5-4.5-4.5-9-3-3.75-3.75-3.75-4.5-3-3.75-3-5.25-1.5-6-.75-5.25,0-5.25,.75-4.5,2.25-5.25,3-3.75,3-3.75,5.25-3,6-3-1.5-2.25-1.5-2.25,0-1.5-.75 2.25-2.25 4.5-6 4.5-7.5 1.5-3 .75-2.25 .75-1.5-3-3-3-2.25-3-1.5-.75,0 2.25-3.75 .75-3.75 0-5.25-9,0-10.5,3-5.25,3-6,3.75-4.5,3.75-3.75,3.75-.75-3 0-3-.75-1.5 0-1.5-3.75,2.25-4.5,3-5.25,3.75-6,4.5-5.25,6-4.5,6-4.5,7.5z"/>
<path d="m45.75,56.25-1.5-6.75 0-7.5 .75-6.75 2.25-6-3-2.25-3-1.5-3,0-3,.75-2.25,9 0,14.25 1.5,15.75 5.25,15.75-6.75-1.5-6.75,1.5-7.5,3.75-6.75,6-4.5,7.5-3,9 1.5,9.75 4.5,10.5-6,5.25-3,8.25-1.5,8.25 .75,9 3,9 6,6.75 6.75,5.25 10.5,3-4.5,3-3.75,4.5-3,5.25-2.25,6.75-.75,6.75 .75,8.25 3,8.25 6,8.25 7.5,7.5 8.25,3.75 9,.75 8.25-1.5 7.5-3 6.75-5.25 4.5-6.75 2.25-6.75 3,1.5 3.75,0 3.75,.75 1.5,0-.75,6.75 2.25,6.75 5.25,6.75 6.75,6 8.25,4.5 9.75,.75 9.75-2.25 10.5-6 1.5,5.25 3.75,5.25 5.25,3.75 7.5,3 7.5,1.5 8.25-.75 8.25-3.75 8.25-7.5 3,4.5 5.25,2.25 5.25,.75 6,0 6-.75 5.25-1.5 4.5-3 3.75-2.25 2.25-3 2.25-3.75 1.5-3.75 1.5-4.5 .75-4.5-.75-4.5-2.25-4.5-3-5.25 4.5,0 5.25-.75 4.5-3 5.25-3.75 3.75-5.25 2.25-6 1.5-6.75 0-7.5-.75-5.25-1.5-5.25-1.5-3.75-6-7.5-3-2.25-3.75-2.25-3.75-.75 5.25-6 3-10.5-.75-12-3-9.75-2.25-3-3-3.75-2.25-2.25-1.5-2.25-2.25-1.5-1.5-1.5-1.5-.75-2.25,0 3-3.75 1.5-4.5 1.5-5.25 0-6-.75-6-1.5-6-3-5.25-4.5-5.25-5.25-4.5-4.5-3-4.5-1.5-5.25-1.5-4.5,0-4.5,1.5-3.75,1.5-4.5,3-1.5-4.5-2.25-4.5-6-9-3-3.75-4.5-3-4.5-2.25-5.25-2.25-10.5,0-5.25,.75-5.25,1.5-4.5,3-3.75,3.75-3.75,4.5-3,6-2.25-1.5-3-.75-2.25-.75-.75-.75 1.5-1.5 4.5-6 3.75-7.5 2.25-3 .75-3 .75-1.5-6-4.5-2.25-1.5-1.5-.75 2.25-3.75 .75-3.75 0-4.5-3.75-.75-10.5,1.5-10.5,4.5-10.5,7.5-3.75,4.5-.75-3.75-.75-3-.75-1.5 0-.75-3,2.25-5.25,3-4.5,3.75-6,4.5-5.25,5.25-4.5,6.75-3.75,7.5z"/>
</g>
<g>
<path fill="#035946" d="m42.75,23.25 1.5,0 1.5,1.5 2.25,.75-.75,3.75-.75,6 0,6.75 .75,7.5 .75,9 3,9 3.75,10.5 5.25,9.75-.75,2.25-1.5,2.25-.75,1.5-.75,.75-3-6-3-6.75-3-7.5-3-8.25-2.25-9-.75-10.5 0-11.25z"/>
<path fill="#5d8e76" d="m117,12.75-4.5-.75-3.75,.75-4.5,1.5-9,9-4.5,6.75-6,9.75-6.75,11.25 3-2.25 3.75-2.25 4.5-2.25 5.25-2.25 5.25-1.5 5.25-.75 5.25,0 4.5,1.5 2.25-2.25 1.5-3 2.25-3 2.25-3.75 3-6 .75-2.25 .75-1.5-3.75-3.75-3-2.25z"/>
<path fill="#035946" d="m78,51 6.75-11.25 6-9.75 4.5-6.75 9-9 4.5-1.5 3.75-.75 4.5,.75 2.25-2.25 1.5-2.25 .75-2.25 0-1.5-4.5,.75-5.25,.75-4.5,1.5-4.5,2.25-4.5,3-3.75,3-4.5,4.5-4.5,6-.75-3.75-1.5-3-.75-3 0-.75-6.75,4.5-6.75,6-6,6.75-4.5,7.5-3,8.25-.75,9.75 2.25,12 6,13.5 2.25-3 0-4.5 1.5-9 1.5-3.75 2.25-3.75 1.5-3.75 3-3z"/>
</g>
<g fill="#2c285d">
<path d="m144.75,234.75-1.5,3-2.25,3-3.75,2.25-3.75,1.5-4.5,1.5-5.25,.75-5.25-.75-9-4.5-3.75-3-3-3.75-3-5.25-1.5-3.75-.75-3 0-4.5 .75-3-12,0-6-1.5-5.25-3-5.25-4.5-4.5-4.5-3.75-5.25-3-6.75-3-9-.75-9 2.25-8.25 3.75-7.5-.75,4.5 2.25,7.5 3.75,8.25 6,8.25 7.5,6.75 9.75,5.25 11.25,2.25 13.5-1.5-5.25,4.5-2.25,6.75 .75,8.25 3,9 5.25,6.75 8.25,5.25 9.75,.75z"/>
<path d="m69.75,225.75-2.25,3-3,2.25-3.75,1.5-3.75,2.25-3.75,.75-4.5,0-3.75-.75-4.5-2.25-6-3.75-4.5-5.25-4.5-6-2.25-6-1.5-6-.75-5.25 .75-5.25 .75-3.75 2.25-2.25 .75-2.25 4.5-4.5-.75,6 1.5,7.5 3,9 5.25,8.25 6,7.5 7.5,5.25 8.25,2.25z"/>
<path d="m54.75,156-1.5,3-2.25,3-.75,3 0,3-11.25,3.75-4.5,2.25-5.25-1.5-4.5-2.25-4.5-3-3.75-3-3-3.75-3-4.5-.75-3.75-.75-4.5 0-4.5 .75-4.5 2.25-6 3-5.25 3.75-5.25 5.25-4.5 6-3.75 6-2.25-4.5,5.25-3,6-.75,6.75 1.5,7.5 3,6.75 6,5.25 6.75,4.5z"/>
<path d="m237.75,234.75-3,4.5-3.75,4.5-5.25,3.75-5.25,3-6.75,1.5-6-.75-6-2.25-6-6-3.75,3-3,3-3,2.25-3.75,2.25-3,1.5-3.75,.75-4.5,.75-3.75-.75-6-1.5-6-3-2.25-2.25-2.25-3-1.5-3-.75-4.5 1.5-2.25 2.25-3.75 .75-3.75 0-5.25 3,3.75 4.5,4.5 5.25,3.75 7.5,3 6.75,1.5 7.5-1.5 6.75-3.75 6-8.25 1.5,5.25 3,4.5 3.75,4.5 4.5,2.25 5.25,1.5 6-.75 6.75-3z"/>
<path d="m214.5,177-.75,3.75-3,7.5-2.25,3.75-6.75,6.75-7.5,3-6.75,.75-7.5-1.5-6.75-3-5.25-3.75-4.5-3.75-2.25-3-5.25,3.75-4.5,2.25-4.5,.75-5.25,.75-9-1.5-3.75-.75-3-1.5-6.75-6.75-3.75-4.5-3-6-2.25-6.75 0-6.75 1.5-7.5 5.25-6.75 .75-.75 0-.75 .75,0-1.5,4.5-.75,6.75 1.5,7.5 3,6 5.25,6 6.75,3 11.25-.75 13.5-4.5 1.5,3.75 5.25,5.25 6.75,4.5 8.25,3.75 9.75,.75 9.75-.75 9-3.75 7.5-7.5z"/>
<path d="m246,125.25-3.75,14.25-6.75,6.75-7.5,1.5-8.25-3.75-8.25-6-7.5-7.5-5.25-8.25-2.25-7.5-.75,.75-.75,3-.75,4.5-.75,5.25-12,3.75-9.75,1.5-7.5-1.5-5.25-3.75-4.5-5.25-3-6-2.25-6.75-2.25-7.5-2.25,4.5-.75,4.5 0,5.25-10.5,3.75-9,1.5-6.75-1.5-6-3-4.5-3.75-3-5.25-1.5-3.75 .75-4.5-3.75,8.25-2.25,7.5-.75,6.75 0,6 1.5,6 3,5.25 3,4.5 5.25,3 2.25-1.5 2.25-3 3-3 3.75-3 9-4.5 6-.75 5.25,0 .75-3.75 1.5-4.5 1.5-3 0-1.5 1.5,5.25 .75,4.5 .75,3.75 .75,1.5 2.25,.75 2.25,1.5 3,1.5 4.5,3 3.75,3.75 6-3 2.25-1.5 6-1.5 9.75,0 1.5-1.5 1.5-3 2.25-2.25 0-.75 1.5,9 2.25,1.5 3,1.5 3,3 3.75,2.25 3,3 2.25,3 2.25,2.25 .75,2.25 7.5-3 6-1.5 5.25,0 1.5,.75 1.5,0 5.25-6 3-9 1.5-8.25z"/>
<path d="m252,204-2.25,1.5-2.25,2.25-3,.75-1.5,.75-2.25,1.5-6,0-1.5-2.25-2.25-3-5.25-5.25-2.25-3-3-3-3-2.25-2.25-1.5 2.25-5.25 1.5-8.25 0-8.25-.75-5.25 3-2.25 3-.75 3-1.5 3-.75-3.75,4.5-1.5,6.75 0,7.5 .75,9 3,7.5 6,6.75 6.75,3.75z"/>
<path d="m187.5,66.75 1.5,5.25 3,5.25 4.5,5.25 5.25,5.25 6,3.75 6.75,1.5 8.25,0 9.75-4.5-1.5,6-1.5,3-2.25,3-2.25-.75-3.75-.75-12,0-3.75,.75-3,.75-3,2.25-1.5-6-1.5-3.75-1.5-3-2.25-3-2.25-2.25-3-2.25-3-1.5 .75-4.5 0-6-2.25,2.25-3,2.25-6,3-3.75,1.5-4.5,1.5-3.75,.75-4.5,0-3.75,.75-3.75-.75-3,0-2.25-.75-2.25-1.5-1.5-1.5-2.25-1.5-.75-.75-5.25,5.25-6,0-2.25,.75-1.5,0-2.25,.75-2.25,0-2.25,1.5-2.25-3-4.5-2.25-5.25-3-6-2.25-6.75-.75-7.5,.75-7.5,1.5-8.25,3.75 .75-5.25 3-6 3.75-6.75 4.5-6 0,5.25 3,3.75 5.25,3.75 7.5,3 8.25,1.5 9,0 9-2.25 8.25-3.75 1.5,1.5 .75,1.5 1.5,1.5 .75,0 5.25,2.25 6,.75 6,1.5 14.25,0 7.5-2.25 6.75-2.25z"/>
<path d="m93,114.75-.75,6 0,12.75 1.5,5.25-3-.75-2.25-.75-3,0-3,.75-3,0-3,.75-2.25,1.5-2.25,.75-3-2.25-3-3-3-3.75-3-6-1.5-6-1.5-6.75 1.5-8.25 3-8.25 0,3.75 1.5,4.5 2.25,5.25 3.75,3.75 4.5,3.75 6,1.5 6-.75z"/>
<path d="m38.25,101.25-3,1.5-3,2.25-3,1.5-2.25,2.25-3,2.25-4.5,4.5-1.5,2.25-2.25-3.75-1.5-4.5-.75-4.5 .75-5.25 1.5-5.25 2.25-4.5 3-4.5 4.5-3-2.25,3-.75,3 0,3 4.5,6 3,2.25 3.75,1.5z"/>
</g>
<g fill="#662d91">
<path d="m122.25,195.75 7.5,1.5 3,1.5 3.75,1.5 3,2.25 4.5,6 2.25,3.75 1.5,6 0,5.25-.75,6-2.25,5.25-11.25,3.75-9.75-.75-8.25-5.25-5.25-6.75-3-9-.75-8.25 2.25-6.75 5.25-4.5-13.5,1.5-11.25-2.25-9.75-5.25-7.5-6.75-6-8.25-3.75-8.25-2.25-7.5 .75-4.5 1.5-1.5 .75-2.25 2.25-1.5 3-3 2.25-1.5 1.5-.75 6.75-2.25 4.5-.75 4.5,0 9,1.5 4.5,2.25 3.75,1.5 3.75,3-1.5,5.25-.75,5.25 0,6 .75,5.25 2.25,6 3,5.25 4.5,5.25 6,4.5 0,1.5z"/>
<path d="m69.75,225.75 2.25-2.25 2.25-3 .75-2.25 .75-3-6.75-3.75-6-6-4.5-6-3-6-2.25-6.75-1.5-6-.75-4.5 0-3.75-3.75,0-6,1.5-3,1.5-4.5,3-3.75,3.75-.75,6 1.5,7.5 3,9 5.25,8.25 6,7.5 7.5,5.25 8.25,2.25z"/>
<path d="m54.75,156 8.25-8.25 2.25-1.5 .75-1.5 2.25-.75-3.75-2.25-3.75-3.75-3-4.5-2.25-5.25-1.5-4.5-1.5-9 0-2.25-2.25-.75-2.25,0-2.25-.75-7.5,0-2.25,.75-4.5,5.25-3,6-.75,6.75 1.5,7.5 3,6.75 6,5.25 6.75,4.5z"/>
<path d="m237.75,234.75 .75-5.25-1.5-6-2.25-5.25-3.75-6-9.75-9.75-5.25-3.75-4.5-3.75-2.25,2.25-6,4.5-3.75,1.5 0,2.25 .75,3.75 1.5,5.25-1.5,4.5-.75-3.75-1.5-3-2.25-3.75-3.75-3-7.5,0-3.75-.75-7.5-3-3.75-2.25-3-2.25-3-2.25-2.25,0-2.25,.75-3,1.5-2.25,1.5-3,.75-1.5,2.25-3,3 3,4.5 2.25,4.5 1.5,5.25 0,4.5 3,3.75 4.5,4.5 5.25,3.75 7.5,3 6.75,1.5 7.5-1.5 6.75-3.75 6-8.25 1.5,5.25 3,4.5 3.75,4.5 4.5,2.25 5.25,1.5 6-.75 6.75-3z"/>
<path d="m214.5,177 0-9-2.25-6.75-3.75-6-2.25-3-4.5-4.5-10.5-4.5-6-.75-6.75,0-7.5,2.25-6.75,5.25-3-3-4.5-3.75-10.5-6-6.75-.75-6.75,.75-6.75,2.25-7.5,5.25-1.5,4.5-.75,6.75 1.5,7.5 3,6 5.25,6 6.75,3 11.25-.75 13.5-4.5 1.5,3.75 5.25,5.25 6.75,4.5 8.25,3.75 9.75,.75 9.75-.75 9-3.75 7.5-7.5z"/>
<path d="m246,125.25-.75-3-4.5-9-2.25-3-6-4.5-4.5-1.5-3-1.5-3.75-.75-7.5,0-3.75,.75-4.5,1.5-3.75,3-3.75,3.75-.75-3.75-1.5-4.5-1.5-3.75-1.5-3-4.5-6-3-3-3.75-1.5-3-1.5-9.75,0-5.25,0-5.25,1.5-4.5,2.25-3.75,3.75-3,4.5-2.25-3.75-4.5-3-5.25-2.25-6.75,0-6.75,.75-6.75,2.25-6,4.5-5.25,6-.75,4.5 1.5,3.75 3,5.25 4.5,3.75 6,3 6.75,1.5 9-1.5 10.5-3.75 0-5.25 .75-4.5 2.25-4.5 2.25,7.5 2.25,6.75 3,6 4.5,5.25 5.25,3.75 7.5,1.5 9.75-1.5 12-3.75 .75-5.25 .75-4.5 .75-3 .75-.75 2.25,7.5 5.25,8.25 7.5,7.5 8.25,6 8.25,3.75 7.5-1.5 6.75-6.75z"/>
<path d="m252,204 3-4.5 3-5.25 .75-6.75 0-6.75-1.5-5.25-2.25-4.5-3-3.75-3.75-3.75-4.5-2.25-3.75-2.25-5.25-.75-4.5,0-3.75,4.5-1.5,6.75 0,7.5 .75,9 3,7.5 6,6.75 6.75,3.75z"/>
<path d="m93,114.75 1.5-3.75 .75-4.5 4.5-7.5 2.25-4.5 2.25-3 7.5-6-3-1.5-5.25-3-6-1.5-6.75-.75-7.5,0-6.75,3-7.5,4.5-6,7.5-.75,.75 0,1.5-.75,.75 0,3.75 1.5,4.5 2.25,5.25 3.75,3.75 4.5,3.75 6,1.5 6-.75z"/>
<path d="m38.25,101.25 1.5-.75 2.25-1.5 2.25-.75 1.5-.75 2.25,0 1.5-.75 3,0-2.25-6.75-3-5.25-2.25-5.25-3-.75-8.25,0-4.5,1.5-2.25,1.5-1.5,.75-2.25,3-.75,3 0,3 4.5,6 3,2.25 3.75,1.5z"/>
<path d="m232.5,88.5 0-9.75-1.5-5.25-1.5-4.5-3-3.75-2.25-3.75-2.25-2.25-2.25-1.5-4.5-2.25-9-1.5-3.75,.75-4.5,.75-7.5,4.5-3,2.25 0-3-2.25-5.25-4.5-8.25-3-5.25-3.75-3.75-3.75-3-4.5-2.25-4.5-.75-5.25,0-4.5,.75-5.25,.75-5.25,2.25-3.75,3.75-3,4.5-1.5,3.75-1.5,5.25-.75,4.5 0,3.75 .75,3-.75-1.5-3-3.75-1.5-4.5-1.5-3.75-1.5-1.5-1.5-.75-2.25-.75-3-.75-3.75-.75-5.25-.75-3.75,0-3.75,.75-3,.75-7.5,3-3,1.5-6,4.5 0,5.25 3,3.75 5.25,3.75 7.5,3 8.25,1.5 9,0 9-2.25 8.25-3.75 1.5,1.5 .75,1.5 1.5,1.5 .75,0 5.25,2.25 6,.75 6,1.5 14.25,0 7.5-2.25 6.75-2.25 6.75-3.75 1.5,5.25 3,5.25 4.5,5.25 5.25,5.25 6,3.75 6.75,1.5 8.25,0z"/>
</g>
<g fill="#fff">
<path d="m151.5,37.5-.75,3 2.25,2.25 3,1.5 5.25,2.25 4.5,3 2.25,2.25 3,1.5 2.25-.75 2.25-3-1.5-5.25-3-3.75-3.75-3-3-.75-4.5-1.5-1.5-.75-2.25,0-2.25,.75z"/>
<path d="m166.5,91.5-.75,3 2.25,2.25 3,1.5 5.25,2.25 3.75,3 3,2.25 3,1.5 2.25-.75 2.25-3.75-1.5-3.75-3-4.5-3.75-3-3-.75-2.25-.75-1.5-.75-2.25-.75-3.75,0z"/>
<path d="m123,93.75-1.5,3 4.5,2.25 4.5,1.5 4.5,3.75 3.75,3.75 3-.75 1.5-3-1.5-4.5-3-4.5-3.75-3-4.5-1.5-3-.75-3,.75z"/>
<path d="m102,49.5-.75,3 1.5,1.5 3,1.5 4.5,1.5 3.75,3 4.5,4.5 2.25-.75 2.25-3.75-1.5-4.5-3-3.75-3.75-3-4.5-1.5-3.75-.75-2.25,.75z"/>
<path d="m185.25,153-.75,3.75 1.5,3 3.75,2.25 4.5,3 4.5,2.25 2.25,3 1.5,1.5 3-.75 1.5-3.75-1.5-6-3-6-5.25-3-3.75-1.5-3-.75-3,.75z"/>
<path d="m219,111-.75,2.25 1.5,1.5 2.25,.75 3.75,1.5 3.75,2.25 1.5,2.25 1.5,1.5 2.25-.75 1.5-2.25-.75-3.75-3-3.75-3-2.25-3.75-1.5-3-.75-2.25,.75z"/>
<path d="m81,86.25-.75,2.25 1.5,1.5 3,.75 3.75,1.5 3,2.25 2.25,2.25 1.5,.75 2.25,0 .75-3-.75-3.75-2.25-3-3.75-3-3.75-.75-2.25-.75-2.25,.75z"/>
<path d="m205.5,63-.75,2.25 .75,.75 3,1.5 3.75,1.5 3,2.25 3.75,3.75 2.25-.75 1.5-3-.75-3.75-3-3.75-3.75-2.25-3.75-1.5-2.25,0-2.25,.75z"/>
<path d="m234.75,167.25-.75,2.25 .75,.75 3,.75 3.75,2.25 3,2.25 2.25,1.5 1.5,1.5 2.25,0 1.5-3-.75-3.75-3-3.75-7.5-3-2.25-.75-2.25,.75z"/>
<path d="m158.25,163.5-3-3-1.5-2.25-12-6 .75-3 .75-2.25 3-1.5 .75-.75 2.25,.75 1.5,.75 2.25,0 2.25,.75 1.5,.75 2.25,1.5 3,3-2.25,2.25-.75,3-.75,3.75z"/>
</g>
</g>
</svg>
