<?xml version="1.0" encoding="UTF-8" standalone="no"?>
<!-- Created with Inkscape (http://www.inkscape.org/) -->

<svg
   xmlns:dc="http://purl.org/dc/elements/1.1/"
   xmlns:cc="http://creativecommons.org/ns#"
   xmlns:rdf="http://www.w3.org/1999/02/22-rdf-syntax-ns#"
   xmlns:svg="http://www.w3.org/2000/svg"
   xmlns="http://www.w3.org/2000/svg"
   xmlns:sodipodi="http://sodipodi.sourceforge.net/DTD/sodipodi-0.dtd"
   xmlns:inkscape="http://www.inkscape.org/namespaces/inkscape"
   width="210mm"
   height="297mm"
   viewBox="0 0 744.09448819 1052.3622047"
   id="svg4646"
   version="1.1"
   inkscape:version="0.91 r13725"
   sodipodi:docname="green liquid beaker.svg">
  <defs
     id="defs4648">
    <clipPath
       id="clipEmfPath1"
       clipPathUnits="userSpaceOnUse">
      <path
         inkscape:connector-curvature="0"
         id="path5199"
         d="m -1.25029,-1.25029 103.77329,0 0,156.28529 -103.77329,0 z" />
    </clipPath>
    <pattern
       y="0"
       x="0"
       height="6"
       width="6"
       patternUnits="userSpaceOnUse"
       id="EMFhbasepattern" />
  </defs>
  <sodipodi:namedview
     id="base"
     pagecolor="#ffffff"
     bordercolor="#666666"
     borderopacity="1.0"
     inkscape:pageopacity="0.0"
     inkscape:pageshadow="2"
     inkscape:zoom="0.35"
     inkscape:cx="-46.428571"
     inkscape:cy="520"
     inkscape:document-units="px"
     inkscape:current-layer="layer1"
     showgrid="false"
     inkscape:window-width="1366"
     inkscape:window-height="706"
     inkscape:window-x="-8"
     inkscape:window-y="-8"
     inkscape:window-maximized="1" />
  <metadata
     id="metadata4651">
    <rdf:RDF>
      <cc:Work
         rdf:about="">
        <dc:format>image/svg+xml</dc:format>
        <dc:type
           rdf:resource="http://purl.org/dc/dcmitype/StillImage" />
        <dc:title></dc:title>
      </cc:Work>
    </rdf:RDF>
  </metadata>
  <g
     inkscape:label="Layer 1"
     inkscape:groupmode="layer"
     id="layer1">
    <path
       inkscape:connector-curvature="0"
       id="path5202"
       d="m 353.30807,115.30842 c -37.54579,0 -67.94006,13.78092 -67.94006,30.80422 0,17.42874 30.39427,31.20966 67.94006,31.20966 37.54563,0 67.93958,-13.78092 67.93958,-31.20966 0,-17.0233 -30.39395,-30.80422 -67.93958,-30.80422"
       style="fill:none;stroke:#000000;stroke-width:16.370121px;stroke-linecap:butt;stroke-linejoin:round;stroke-miterlimit:4;stroke-dasharray:none;stroke-opacity:1" />
    <path
       transform="matrix(4.5759512,0,0,5.1868865,122.31272,95.44781)"
       inkscape:connector-curvature="0"
       id="path5204"
       d="m 35.3987,8.67386 c 0.0782,1.64104 1.3285,-1.094 0.7033,9.76784 -0.6251,10.7837 -0.1563,41.4157 -4.4541,55.247 -4.376,13.7532 -17.0352,18.9887 -21.6456,27.5843 -4.61044,8.596 -6.64216,17.192 -6.01701,23.912 0.62514,6.72 1.87543,12.346 9.68971,16.41 7.8924,3.985 25.4746,7.502 37.4304,7.736 12.034,0.156 26.803,-2.422 34.7736,-6.642 C 93.7714,138.391 97.6786,130.42 98.6163,123.7 99.4759,116.902 96.5064,110.885 91.349,102.055 86.1916,93.2244 72.0477,84.0817 67.4373,70.6412 62.8269,57.2006 63.999,31.4916 63.7646,21.4111 63.452,11.3307 65.2493,12.5029 65.64,10.1586"
       clip-path="url(#clipEmfPath1)"
       style="fill:none;stroke:#000000;stroke-width:3.36014342px;stroke-linecap:butt;stroke-linejoin:round;stroke-miterlimit:4;stroke-dasharray:none;stroke-opacity:1" />
    <path
       inkscape:connector-curvature="0"
       id="path5206"
       d="m 267.13196,486.1745 c -9.29744,5.67444 -8.93959,26.34573 -25.38837,50.2594 -16.44862,23.91404 -56.85472,56.74452 -73.66085,92.8172 -16.8063,36.07487 -30.39428,89.17287 -27.53365,124.02887 2.86064,34.85581 8.58191,64.44704 44.33978,85.11668 36.11523,21.07434 116.5704,38.91219 171.27968,40.12592 55.06696,0.80867 122.64918,-12.56278 159.12225,-34.4513 36.11523,-22.2934 53.99441,-63.63801 58.28528,-98.49383 3.93352,-35.26051 -13.94566,-74.17252 -33.25492,-112.27016 -19.30909,-38.50749 -63.6487,-90.38826 -81.88524,-117.13905 -18.23653,-27.1566 -20.73949,-40.93697 -27.53348,-45.39565 -6.79383,-4.45868 -1.07174,12.97023 -13.23046,18.64467 -11.80006,5.26881 -38.61818,13.37549 -58.64264,14.18617 -20.02429,0.81051 -46.84257,-6.48512 -62.21879,-9.32242 -15.37558,-3.24275 -23.59996,-6.48512 -29.67859,-8.1065 z"
       style="fill:#92d050;fill-opacity:1;fill-rule:evenodd;stroke:none" />
    <path
       transform="matrix(4.5759512,0,0,5.1868865,122.31272,95.44781)"
       inkscape:connector-curvature="0"
       id="path5208"
       d="m 31.6479,75.3297 c -2.0318,1.094 -1.9536,5.0793 -5.5482,9.6897 -3.5946,4.6105 -12.4247,10.94 -16.0974,17.8946 -3.67273,6.955 -6.64216,17.192 -6.01701,23.912 0.62514,6.72 1.87543,12.425 9.68971,16.41 7.8924,4.063 25.4746,7.502 37.4304,7.736 12.034,0.156 26.803,-2.422 34.7736,-6.642 7.8924,-4.298 11.7996,-12.269 12.7373,-18.989 0.8596,-6.798 -3.0476,-14.3 -7.2673,-21.645 -4.2197,-7.424 -13.9094,-17.4263 -17.8947,-22.5837 -3.9853,-5.2356 -4.5323,-7.8924 -6.017,-8.752 -1.4847,-0.8596 -0.2344,2.5006 -2.8913,3.5946 -2.5787,1.0158 -8.4394,2.5787 -12.8154,2.735 -4.376,0.1563 -10.2367,-1.2503 -13.5969,-1.7973 -3.3601,-0.6252 -5.1574,-1.2503 -6.4858,-1.5629"
       clip-path="url(#clipEmfPath1)"
       style="fill:none;stroke:#000000;stroke-width:3.36014342px;stroke-linecap:butt;stroke-linejoin:round;stroke-miterlimit:4;stroke-dasharray:none;stroke-opacity:1" />
    <path
       inkscape:connector-curvature="0"
       id="path5210"
       d="m 351.16231,436.32072 c -40.4061,0 -73.30349,14.59125 -73.30349,33.23592 0,18.6443 32.89739,33.64117 73.30349,33.64117 40.76394,0 73.6615,-14.99687 73.6615,-33.64117 0,-18.64467 -32.89756,-33.23592 -73.6615,-33.23592 z"
       style="fill:#b4df85;fill-opacity:1;fill-rule:evenodd;stroke:none" />
    <path
       inkscape:connector-curvature="0"
       id="path5212"
       d="m 351.16231,436.32072 c -40.4061,0 -73.30349,14.59125 -73.30349,33.23592 0,18.6443 32.89739,33.64117 73.30349,33.64117 40.76394,0 73.6615,-14.99687 73.6615,-33.64117 0,-18.64467 -32.89756,-33.23592 -73.6615,-33.23592"
       style="fill:none;stroke:#000000;stroke-width:16.370121px;stroke-linecap:butt;stroke-linejoin:round;stroke-miterlimit:4;stroke-dasharray:none;stroke-opacity:1" />
    <path
       inkscape:connector-curvature="0"
       id="path5214"
       d="m 360.1019,384.43995 c -41.1213,6.89019 -74.37605,-2.83731 -77.95173,-23.5086"
       style="fill:none;stroke:#000000;stroke-width:16.370121px;stroke-linecap:butt;stroke-linejoin:round;stroke-miterlimit:4;stroke-dasharray:none;stroke-opacity:1" />
    <path
       inkscape:connector-curvature="0"
       id="path5216"
       d="m 363.67757,301.75477 c -41.1213,6.89074 -74.37605,-2.83731 -77.95172,-23.5086"
       style="fill:none;stroke:#000000;stroke-width:16.370121px;stroke-linecap:butt;stroke-linejoin:round;stroke-miterlimit:4;stroke-dasharray:none;stroke-opacity:1" />
    <path
       inkscape:connector-curvature="0"
       id="path5218"
       d="m 352.59287,457.39709 c -40.76394,6.89018 -74.01886,-2.83713 -77.59437,-23.50861"
       style="fill:none;stroke:#000000;stroke-width:16.370121px;stroke-linecap:butt;stroke-linejoin:round;stroke-miterlimit:4;stroke-dasharray:none;stroke-opacity:1" />
    <path
       inkscape:connector-curvature="0"
       id="path5220"
       d="m 363.67757,227.17608 c -41.1213,6.89074 -74.37605,-2.8373 -77.95172,-23.5086"
       style="fill:none;stroke:#000000;stroke-width:16.370121px;stroke-linecap:butt;stroke-linejoin:round;stroke-miterlimit:4;stroke-dasharray:none;stroke-opacity:1" />
  </g>
</svg>
