<svg xmlns="http://www.w3.org/2000/svg" viewBox="0 0 63.481 48.369">
<path fill="#060" fill-rule="evenodd" d="m57.761,7.4565c-5.23-6.3187-54.699,26.614-51.889,32.804-1.9449-5.277 47.692-37.642 51.889-32.804zm2.643-.0231c.177-.1582-.028-1.8288-.121-1.7543 .093-.0745-1.114-.7011-1.776-.9113-11.856-5.9371-26.914-5.7424-38.583,2.2327-10.72,7.3235-16.276,19.878-16.006,32.412-3.3503-1.563-3.3782-.809 .037,1.062 .2513,5.164 1.1819,5.537 1.2284,.642 12.331,6.207 27.816,6.048 39.513-2.15 10.59-7.407 16.393-19.588 15.708-31.533zm-17.988,29.366c-10.767,7.519-24.791,8.207-36.544,3.461l-.6607-.279c.4281-11.734 5.9187-23.274 15.96-30.141 11.288-7.7242 25.349-8.4314 36.981-3.1085 0,11.52-5.453,22.874-15.736,30.068z"/>
</svg>
