<svg xmlns="http://www.w3.org/2000/svg" viewBox="0 0 125 134.09">
<g fill="#fb8324" fill-rule="evenodd">
<g stroke="#000" transform="translate(-384.37 -469.76)">
<path d="m385.37,483.14l20.71-12.63 61.12,32.83v89.4l-21.22,10.61-61.11-32.83 .5-87.38z"/>
<path d="m466.69,503.85l-21.72,12.63"/>
</g>
<g transform="translate(-384.37 -469.76)">
<path stroke="#fdb56f" stroke-width=".609" d="m488.16,268.31h15.113v14.174h-15.113z" transform="matrix(.87028 .49256 .02174 .99976 0 0)"/>
</g>
<g stroke="#feb771" transform="translate(-384.37 -469.76)">
<path d="m398.51,533.65l.5-13.64 31.31,16.67-.5,14.65-31.31-17.68z"/>
<path d="m412.39,527.59l.51-13.64 31.31,16.67-.5,14.65-31.32-17.68z"/>
<path d="m397.56,562.01l-.78-13.68 32.88,18.57 .87,14.7-32.97-19.59z"/>
<path d="m399.77,505.87l.5-13.64 31.32,16.67-.51,14.65-31.31-17.68z"/>
<path stroke-width="1.016" d="m411.9,556.31l.5-14.07 31.3,17.2-.5,15.11-31.3-18.24z"/>
</g>
<g stroke="#fdb56f">
<g transform="translate(-384.37 -469.76)">
<path stroke-width=".974" d="m387.13,499.57l26.29,14.38-1.01,13.86-25.8-13.88 .52-14.36z"/>
<path stroke-width=".625" d="m469.91,358.51h16.316v13.829h-16.316z" transform="matrix(.89548 .4451 .02475 .99969 0 0)"/>
</g>
<g stroke-width=".609" transform="translate(-384.37 -469.76)">
<path d="m486.56,297.65h15.113v14.174h-15.113z" transform="matrix(.87028 .49256 .02174 .99976 0 0)"/>
<path d="m437.05,269.75h15.113v14.174h-15.113z" transform="matrix(.87028 .49256 .02174 .99976 0 0)"/>
</g>
<g transform="translate(-384.37 -469.76)">
<path stroke-width=".575" d="m425.38,320.24h14.81v12.867h-14.81z" transform="matrix(.88984 .45628 .02399 .99971 0 0)"/>
<path stroke-width=".609" d="m435.59,328.06h15.113v14.174h-15.113z" transform="matrix(.87028 .49256 .02174 .99976 0 0)"/>
<path stroke-width="1.181" d="m434.02,347.42h64.698v12.445h-64.698z" transform="matrix(.8765 .48141 .01882 .99982 0 0)"/>
<path stroke-width="1.091" d="m446.74,302.64h36.188v15.099h-36.188z" transform="matrix(.86492 .50192 0 1 0 0)"/>
</g>
</g>
</g>
<g transform="translate(-384.37 -469.76)">
<path fill="none" stroke="#000" d="m385.37,483.14l59.6,32.83v86.37"/>
</g>
<g fill="#fb8324" fill-rule="evenodd">
<g stroke="#000" transform="translate(-342.701 -470.01254)">
<path d="m385.37,483.14l20.71-12.63 61.12,32.83v89.4l-21.22,10.61-61.11-32.83 .5-87.38z"/>
<path d="m466.69,503.85l-21.72,12.63"/>
</g>
<g transform="translate(-342.701 -470.01254)">
<path stroke="#fdb56f" stroke-width=".609" d="m488.16,268.31h15.113v14.174h-15.113z" transform="matrix(.87028 .49256 .02174 .99976 0 0)"/>
</g>
<g stroke="#feb771" transform="translate(-342.701 -470.01254)">
<path d="m398.51,533.65l.5-13.64 31.31,16.67-.5,14.65-31.31-17.68z"/>
<path d="m412.39,527.59l.51-13.64 31.31,16.67-.5,14.65-31.32-17.68z"/>
<path d="m397.56,562.01l-.78-13.68 32.88,18.57 .87,14.7-32.97-19.59z"/>
<path d="m399.77,505.87l.5-13.64 31.32,16.67-.51,14.65-31.31-17.68z"/>
<path stroke-width="1.016" d="m411.9,556.31l.5-14.07 31.3,17.2-.5,15.11-31.3-18.24z"/>
</g>
<g stroke="#fdb56f">
<g transform="translate(-342.701 -470.01254)">
<path stroke-width=".974" d="m387.13,499.57l26.29,14.38-1.01,13.86-25.8-13.88 .52-14.36z"/>
<path stroke-width=".625" d="m469.91,358.51h16.316v13.829h-16.316z" transform="matrix(.89548 .4451 .02475 .99969 0 0)"/>
</g>
<g stroke-width=".609" transform="translate(-342.701 -470.01254)">
<path d="m486.56,297.65h15.113v14.174h-15.113z" transform="matrix(.87028 .49256 .02174 .99976 0 0)"/>
<path d="m437.05,269.75h15.113v14.174h-15.113z" transform="matrix(.87028 .49256 .02174 .99976 0 0)"/>
</g>
<g transform="translate(-342.701 -470.01254)">
<path stroke-width=".575" d="m425.38,320.24h14.81v12.867h-14.81z" transform="matrix(.88984 .45628 .02399 .99971 0 0)"/>
<path stroke-width=".609" d="m435.59,328.06h15.113v14.174h-15.113z" transform="matrix(.87028 .49256 .02174 .99976 0 0)"/>
<path stroke-width="1.181" d="m434.02,347.42h64.698v12.445h-64.698z" transform="matrix(.8765 .48141 .01882 .99982 0 0)"/>
<path stroke-width="1.091" d="m446.74,302.64h36.188v15.099h-36.188z" transform="matrix(.86492 .50192 0 1 0 0)"/>
</g>
</g>
</g>
<g transform="translate(-342.701 -470.01254)">
<path fill="none" stroke="#000" d="m385.37,483.14l59.6,32.83v86.37"/>
</g>
</svg>
