<svg xmlns="http://www.w3.org/2000/svg" viewBox="0 0 70.148 59.046">
<path fill="#734a08" d="m15.059,55.811c-5.355-1.974-9.298-4.695-10.939-7.966h-.003l-.137-.279c-.68-1.399-.986-3.498-1.118-5.416-.167-.239-.32-.482-.461-.728l-.038-.061c-.516-.821-.961-1.993-1.292-3.393-.329-1.397-.535-3.018-.535-4.71 0-1.021 .075-2.069 .246-3.109-.532-1.537-.782-3.217-.782-4.843 .001-1.749 .288-3.435 .853-4.818 .422-1.107 1.191-2.141 2.24-3.101 2.015-5.103 6.645-9.419 12.424-12.483 5.825-3.086 12.834-4.903 19.607-4.904 6.916,.001 14.083,1.801 19.983,4.919 5.854,3.097 10.48,7.499 12.298,12.805 .859,.854 1.502,1.764 1.877,2.732 .573,1.39 .865,3.088 .866,4.851-.001,1.63-.252,3.315-.786,4.855 .169,1.036 .244,2.079 .244,3.098 0,1.692-.206,3.312-.534,4.71-.319,1.352-.746,2.492-1.24,3.309-.04,1.035-.136,2.18-.312,3.265-.185,1.132-.448,2.195-.853,3.022l-.138,.279h-.003c-1.641,3.271-5.583,5.992-10.938,7.966-5.521,2.026-12.575,3.235-20.265,3.235s-14.743-1.209-20.264-3.235z"/>
<g fill="#f1ede7">
<path d="m64.412,14.03c-1.79-2.603-4.352-4.925-7.405-6.857-6.109-3.869-14.182-6.175-21.883-6.173-5.771-.001-11.756,1.362-16.964,3.721-5.209,2.356-9.638,5.711-12.323,9.646-1.792,2.625-2.812,5.498-2.813,8.534 .001,.937 .307,1.806 .892,2.646 .584,.838 1.452,1.635 2.543,2.375 .041,.027 .083,.054 .124,.081 .215-.061 .433-.088 .647-.088 .874,.007 1.684,.408 2.438,.832 .749,.428 1.453,.9 1.979,1.118 .381,.164 1.042,.3 1.714,.491 .671,.197 1.379,.443 1.902,.975 .122,.123 .229,.267 .317,.426 6.673,1.865 14.466,2.746 19.243,2.744 3.225,0 7.866-.235 12.631-.91 2.455-.347 4.944-.812 7.288-1.419 .115-.397 .303-.741 .541-1.023 .315-.376 .71-.643 1.123-.842 .828-.396 1.75-.547 2.48-.72 .86-.201 1.458-.464 2.099-.736 .638-.271 1.321-.55 2.262-.721l.016-.003 .018-.002c.014-.002 .064-.007 .14-.007 .062,0 .139,.003 .232,.021 .078,.018 .173,.04 .281,.111 .998-.743 1.802-1.561 2.357-2.453 .604-.967 .931-2.016 .932-3.195 0-3.089-1.021-5.967-2.811-8.572z"/>
<path d="m35.073,52.212c-14.285,0-26.462-3.962-31.167-9.526 .034,.392 .077,.787 .13,1.177 .152,1.128 .392,2.208 .714,2.982h.007l.133,.295c1.332,2.987 5.123,5.762 10.513,7.732 5.384,1.978 12.335,3.175 19.92,3.175s14.537-1.197 19.92-3.175c5.39-1.971 9.181-4.745 10.513-7.732l.133-.295h.007c.322-.774 .562-1.854 .715-2.982 .085-.625 .145-1.266 .184-1.884-4.242,5.932-16.838,10.233-31.722,10.233z"/>
<path d="m67.87,32.146c-.128,.203-.263,.399-.406,.588h-.002c-3.899,5.715-16.922,9.912-32.388,9.912-15.47,0-28.495-4.199-32.391-9.917-.144-.188-.279-.385-.407-.588 2.173,6.249 12.018,11.26 24.77,12.766 .029-.097 .071-.182 .116-.255 .081-.129 .175-.232 .272-.324 .196-.183 .407-.319 .581-.414 .454-.246 .926-.328 1.374-.327 .278,0 .551,.029 .825,.067 1.482,.205 2.822,.583 4.179,.704 .203,.019 .411,.027 .622,.027 1.177,.001 2.457-.266 3.635-.435 .558-.078 1.398-.237 2.229-.238 .686,.004 1.398,.098 1.96,.555l.212,.177-.036,.273c-.01,.071-.025,.14-.046,.205 12.811-1.485 22.716-6.507 24.901-12.776z"/>
<path d="m5.834,30.029c-.172,.245-.296,.5-.44,1.137-.061,.266-.164,.521-.246,.777-.084,.253-.143,.5-.141,.673 0,.033 .002,.062 .005,.091 .032,.263 .106,.472 .206,.721 .052,.131 .112,.272 .168,.43 .133-.055 .28-.14 .443-.25 .314-.207 .659-.49 1.093-.69 .814-.37 1.672-.627 2.583-.666 .309-.014 .621-.021 .934-.021 .788,0 1.577,.041 2.316,.122 .742,.087 1.481,.333 2.076,.327h.003c-.014-.211-.073-.362-.165-.502-.105-.158-.269-.302-.489-.432-.44-.262-1.094-.439-1.725-.599-.422-.109-.833-.211-1.195-.362-.673-.286-1.375-.77-2.085-1.171-.705-.406-1.407-.708-1.944-.701-.173,0-.33,.026-.48,.084l-.097,.061c-.386,.474-.655,.735-.82,.971z"/>
<path d="m56.848,32.755c.955,.191 1.744,.664 2.511,1.018 .329,.152 .867,.412 1.458,.632 .588,.221 1.232,.393 1.703,.39 .209,.001 .377-.032 .494-.084 .119-.055 .191-.116 .258-.229 .034-.043 .089-.279 .084-.578 0-.344-.048-.77-.101-1.17-.052-.403-.109-.771-.121-1.067-.003-.076-.005-.16-.005-.249 .001-.414 .025-.955 .051-1.448 .015-.307 .03-.599 .039-.815-.729,.152-1.264,.371-1.843,.617-.63,.267-1.311,.567-2.262,.789-.579,.135-1.203,.252-1.754,.438-.553,.186-1.014,.436-1.312,.793-.199,.239-.343,.529-.407,.94v.002c.146-.008 .366-.031 .622-.032 .178-.001 .375,.011 .585,.053z"/>
<path d="m30.64,45.955c.715,.471 1.332,1.051 1.824,1.581 .378,.408 .881,.897 1.424,1.272 .542,.378 1.117,.625 1.615,.621 .197-.001 .386-.035 .578-.114 .467-.188 .979-.659 1.472-1.213 .497-.553 .975-1.172 1.485-1.645 .408-.368 .938-.599 1.451-.837 .512-.231 1.008-.464 1.279-.689 .034-.028 .065-.056 .092-.082-.259-.093-.601-.141-.983-.138-.704-.001-1.498,.144-2.088,.229-1.132,.159-2.455,.442-3.775,.444-.238,0-.476-.01-.713-.031-1.479-.137-2.831-.52-4.225-.71-.252-.035-.481-.058-.688-.058-.337,.002-.61,.054-.9,.208-.08,.043-.193,.115-.289,.191-.031,.025-.061,.051-.086,.076l.097,.006c.896,.056 1.715,.42 2.43,.889z"/>
</g>
</svg>
