<svg xmlns="http://www.w3.org/2000/svg" viewBox="0 0 706.88 534.01" xmlns:xlink="http://www.w3.org/1999/xlink">
<defs>
<filter width="1" x="0" y="0" height="1" color-interpolation-filters="sRGB" id="filter5418">
<feTurbulence baseFrequency=".21" type="fractalNoise" numOctaves="1" result="result1"/>
<feColorMatrix in="SourceGraphic" type="luminanceToAlpha" result="result0"/>
<feColorMatrix values="1 0 0 0 0 0 1 0 0 0 0 0 1 0 0 0 0 0 0.8 0" result="result2"/>
<feComposite in="result1" operator="over" in2="result2"/>
<feColorMatrix values="1 0 0 0 0 0 1 0 0 0 0 0 1 0 0 0 0 0 20 -14" result="result91"/>
<feComposite in="SourceGraphic" operator="out" in2="result91"/>
</filter>
<filter width="1" x="0" y="0" height="1" color-interpolation-filters="sRGB" id="filter5390">
<feTurbulence baseFrequency=".21" type="fractalNoise" numOctaves="1" result="result1"/>
<feColorMatrix in="SourceGraphic" type="luminanceToAlpha" result="result0"/>
<feColorMatrix values="1 0 0 0 0 0 1 0 0 0 0 0 1 0 0 0 0 0 0.8 0" result="result2"/>
<feComposite in="result1" operator="over" in2="result2"/>
<feColorMatrix values="1 0 0 0 0 0 1 0 0 0 0 0 1 0 0 0 0 0 20 -14" result="result91"/>
<feComposite in="SourceGraphic" operator="out" in2="result91"/>
</filter>
<filter width="1" x="0" y="0" height="1" color-interpolation-filters="sRGB" id="filter5404">
<feTurbulence baseFrequency=".21" type="fractalNoise" numOctaves="1" result="result1"/>
<feColorMatrix in="SourceGraphic" type="luminanceToAlpha" result="result0"/>
<feColorMatrix values="1 0 0 0 0 0 1 0 0 0 0 0 1 0 0 0 0 0 0.8 0" result="result2"/>
<feComposite in="result1" operator="over" in2="result2"/>
<feColorMatrix values="1 0 0 0 0 0 1 0 0 0 0 0 1 0 0 0 0 0 20 -14" result="result91"/>
<feComposite in="SourceGraphic" operator="out" in2="result91"/>
</filter>
<filter width="1" x="0" y="0" height="1" color-interpolation-filters="sRGB" id="filter5362">
<feTurbulence baseFrequency=".21" type="fractalNoise" numOctaves="1" result="result1"/>
<feColorMatrix in="SourceGraphic" type="luminanceToAlpha" result="result0"/>
<feColorMatrix values="1 0 0 0 0 0 1 0 0 0 0 0 1 0 0 0 0 0 0.8 0" result="result2"/>
<feComposite in="result1" operator="over" in2="result2"/>
<feColorMatrix values="1 0 0 0 0 0 1 0 0 0 0 0 1 0 0 0 0 0 20 -14" result="result91"/>
<feComposite in="SourceGraphic" operator="out" in2="result91"/>
</filter>
<linearGradient gradientTransform="matrix(1 0 0 1.5912 -2182.3 759.1)" id="linearGradient4817" xlink:href="#linearGradient5437" y1="-914.31" y2="-626.88" x1="-6622.4" gradientUnits="userSpaceOnUse" x2="-6599.7"/>
<linearGradient id="linearGradient5290">
<stop offset="0" stop-color="#800000"/>
<stop offset="1" stop-color="#800000" stop-opacity="0"/>
</linearGradient>
<linearGradient id="linearGradient5437">
<stop offset="0" stop-color="#500"/>
<stop offset="1" stop-color="#500" stop-opacity="0"/>
</linearGradient>
<linearGradient id="linearGradient5320">
<stop offset="0" stop-color="#a40"/>
<stop offset="1" stop-color="#a40" stop-opacity="0"/>
</linearGradient>
<linearGradient gradientTransform="matrix(-.47849 .05195 -.05195 -.47849 -2604.6 -880.46)" id="linearGradient4803" xlink:href="#linearGradient5290" y1="-1031.6" y2="-1001.3" x1="-4617.9" gradientUnits="userSpaceOnUse" x2="-4969.6"/>
<linearGradient gradientTransform="matrix(1 0 0 1.5912 -2178.5 244.57)" id="linearGradient4815" xlink:href="#linearGradient5437" y1="-914.31" y2="-626.88" x1="-6622.4" gradientUnits="userSpaceOnUse" x2="-6599.7"/>
<linearGradient gradientTransform="matrix(-.47849 .05195 -.05195 -.47849 -2604.6 -880.46)" id="linearGradient4805" y1="-1012.6" y2="-1095.9" x1="-3956" gradientUnits="userSpaceOnUse" x2="-4807">
<stop offset="0" stop-color="#800000"/>
<stop offset="1" stop-color="#fff"/>
</linearGradient>
<linearGradient gradientTransform="translate(4649.2 1770.4)" id="linearGradient4811" y1="-740.34" y2="-668.48" gradientUnits="userSpaceOnUse" x2="0">
<stop offset="0" stop-color="#2b1100"/>
<stop offset="1" stop-color="#2b1100" stop-opacity="0"/>
</linearGradient>
<linearGradient gradientTransform="matrix(.4813 0 0 .4813 2494.4 1156.4)" id="linearGradient4799" xlink:href="#linearGradient5290" y1="-1031.6" y2="-1001.3" x1="-4617.9" gradientUnits="userSpaceOnUse" x2="-4969.6"/>
<radialGradient cx="-4407.5" cy="-443.09" gradientTransform="matrix(1.2172 -.05165 .01004 .23658 5620 502.53)" id="radialGradient4807" xlink:href="#linearGradient5320" r="630.2" gradientUnits="userSpaceOnUse"/>
<radialGradient cx="-4400.9" cy="2148.1" gradientTransform="matrix(1.2172 -.05165 .01004 .23658 5620 502.53)" id="radialGradient4809" xlink:href="#linearGradient5320" r="630.2" gradientUnits="userSpaceOnUse"/>
</defs>
<g transform="translate(-22.031 -464.46)">
<path fill="#ff7f2a" d="m99.114,957.1c89.224,61.796 547.75,48.119 557.98,0 24.765-37.449 39.355-74.227 0-107.45-179.8-.6982-364.55-7.6389-557.98,0-17.95,27.992-56.189,47.14 0,107.45z"/>
</g>
<g fill="#520" transform="translate(-22.031 -464.46)">
<path d="m107.95,785.56h542.45c16.135,0 29.125,12.99 29.125,29.125v7.2813c0,16.135-12.99,29.125-29.125,29.125h-542.45c-16.135,0-29.125-12.99-29.125-29.125v-7.2813c0-16.135 12.99-29.125 29.125-29.125z"/>
<path d="m107.95,700h542.45c16.135,0 29.125,12.99 29.125,29.125v7.2813c0,16.135-12.99,29.125-29.125,29.125h-542.45c-16.135,0-29.125-12.99-29.125-29.125v-7.2813c0-16.135 12.99-29.125 29.125-29.125z"/>
</g>
<g transform="translate(-22.031 -464.46)">
<path fill="#ff0" d="m50.42,760.08h632.25c4.8357,6.0677 8.1761,12.135 8.6374,18.203 .4613,6.0677-1.9566,12.135-8.6374,18.203h-632.25c-9.5776-11.299-17.684-22.727 0-36.406z"/>
</g>
<g stroke="#008000">
<g transform="translate(-22.031 -464.46)">
<path fill="#0f0" stroke-width=".481" d="m51.519,690.71c.0385-3.8096 15.069-1.3762 16.383-2.1528 .7675-.4539 1.0528-1.699 1.8203-2.1528 1.4563-.8612 4.0047,.8612 5.4609,0 .7675-.4539 1.0528-1.699 1.8203-2.1529 .5427-.321 1.2136,0 1.8203,0h1.8203c1.1874,0 5.847-.4241 7.2812,0 1.8615,.5503 3.5794,1.7078 5.461,2.1529 1.19,.2815 2.4271,0 3.6406,0h10.922c1.2136,0 2.4506-.2815 3.6406,0 1.8815,.445 3.5683,1.7798 5.461,2.1528 1.7955,.3539 3.6406,0 5.4609,0h23.665c.8198,0 4.907,.3276 5.4609,0 .7675-.4539 1.0528-1.699 1.8203-2.1528 .81-.479 6.4487,.3282 7.2812,0 .8141-.321 1.1064-1.5899 1.8203-2.1529 1.1289-.8901 2.3535-1.6454 3.6406-2.1529 .5756-.2269 1.2446,.227 1.8203,0 1.2872-.5074 2.3535-1.6454 3.6407-2.1528 .5756-.2269 1.3912,.5074 1.8203,0 .4291-.5074-.5427-1.8319 0-2.1528 1.0854-.6418 2.4894,.4538 3.6407,0 .8141-.321 1.0063-1.832 1.8203-2.1529 8.2866,0 .1041,1.0148 5.4609-2.1529 .4079-.2412 6.8487,0 7.2812,0h54.61c1.2135,0 2.4633-.3481 3.6406,0 1.8615,.5504 3.5995,1.6025 5.4609,2.1529 1.5574,.4604 7.2821,0 9.1016,0h32.766c.6068,0 1.2447,.2268 1.8203,0 1.2872-.5075 2.3244-1.7637 3.6406-2.1529 1.8856-.5575 5.194,0 7.2813,0h85.554c.6068,0 1.3912,.5075 1.8203,0 .429-.5074-.5427-1.832 0-2.1529 1.0854-.6418 2.4893,.454 3.6406,0 .8141-.3209 1.2136-1.4352 1.8203-2.1528 1.2136-.7176 2.3535-1.6455 3.6406-2.1529 1.1513-.4538 2.4894,.4539 3.6407,0 1.2871-.5073 2.3535-1.6454 3.6406-2.1528 .5756-.2269 1.2776,.3209 1.8203,0 .7675-.4538 1.0528-1.699 1.8203-2.1528 .5534-.3273 6.0242,0 7.2812,0h254.84c.6068,0 1.3912-.5075 1.8203,0 .6072,.718-.6071,3.5876 0,4.3057 .4291,.5074 1.2776-.3209 1.8203,0 .4833,.2858 5.2193,5.8871 5.4609,6.4586 .2714,.6418-.429,1.6454 0,2.1529 .4291,.5074 1.2776-.321 1.8203,0 .7675,.4538 1.2136,1.4353 1.8203,2.1529 .6067,.7176 1.4365,1.2451 1.8203,2.1528 .2714,.6418-.429,1.6454 0,2.1528 .4291,.5075 1.2776-.3209 1.8203,0 1.535,.9078 2.1056,3.398 3.6406,4.3058 .5427,.3209 1.2776-.321 1.8203,0 1.535,.9077 2.1056,3.398 3.6406,4.3057 .7218,.4269 5.0888-.4401 5.461,0 .429,.5075-.4291,1.6454 0,2.153 .429,.5074 1.3912-.5075 1.8203,0 .8581,1.0148-.8581,3.2909 0,4.3057 .4291,.5074 1.3913-.5074 1.8203,0 .8581,1.0149-.5427,3.022 0,4.3058 .3837,.9077 2.4271,1.4353 1.8203,2.1528-.6068,.7176-1.8203-3.1677-1.8203-2.1528 0,5.1981 2.2549,3.1808 3.6406,6.4586 .5427,1.2837-.5427,3.022 0,4.3057 .3838,.9078 1.4366,1.2452 1.8203,2.1528 .2714,.6419-.2714,1.511 0,2.153 1.0922,2.5835 4.3688,3.8752 5.4609,6.4586 .2713,.6419-.429,1.6455 0,2.1529 1.0879,1.2866 3.6407-2.327 3.6407,2.1528 0,.7176-1.2136,0-1.8203,0h-1.8203c-1.5412,0-6.3026,.3858-7.2813,0-.8141-.321-1.0062-1.8319-1.8203-2.1528-1.1513-.4539-2.4507,.2815-3.6406,0-3.749-.8868-5.8654-2.3921-9.1016-4.3058-1.2136-.7176-2.3244-1.7636-3.6407-2.1528-1.1773-.3481-2.4633,.3481-3.6406,0-1.3163-.3891-2.4271-1.4353-3.6406-2.1528-1.2136-.7177-2.5117-1.2628-3.6407-2.153-.714-.5629-1.0062-1.8319-1.8203-2.1528-1.6383-.6458-3.8226,.6459-5.461,0-13.185-5.1981 2.87,.6207-5.4609-4.3057-.5427-.321-1.2136,0-1.8203,0h-1.8203c-.6068,0-1.2776,.3209-1.8203,0-.7675-.4539-1.0528-1.699-1.8203-2.1528-.5427-.321-1.2776,.3209-1.8203,0-.7675-.4539-1.2136-1.4354-1.8203-2.1529-.6068-.7176-1.4365-1.2452-1.8203-2.1528-.2713-.6418 .4291-1.6455 0-2.1529-.429-.5074-1.2135,0-1.8203,0h-1.8203 3.6406-10.922c-.6068,0-1.3912-.5074-1.8203,0-3.0338,3.5882 6.6745,2.1529-3.6406,2.1529h-169.29c-.6068,0-1.2776,.321-1.8203,0-.7675-.4539-1.0528-1.699-1.8203-2.1529-1.0854-.6418-2.4893,.4539-3.6406,0-1.2872-.5074-2.3535-1.6454-3.6407-2.1529-1.1512-.4538-2.4893,.4539-3.6406,0-1.2872-.5074-2.3535-1.6454-3.6406-2.1528-.5756-.2269-1.2136,0-1.8203,0h-276.69c-.6068,0-1.3912-.5074-1.8203,0-.4291,.5074 .5427,1.832 0,2.1528-.2848,.1684-8.5927,0-9.1016,0h-58.25c-1.8203,0-3.7341-.6808-5.461,0-1.6281,.6419-2.0125,3.664-3.6406,4.3058-1.1513,.4539-2.4893-.4539-3.6406,0-.8141,.321-1.1064,1.5899-1.8203,2.1528-1.2136,.7176-2.4271,1.4353-3.6406,2.1529-.6068,0-1.2776-.321-1.8203,0-1.6134,.9541-3.8039,5.152-5.4609,6.4586-1.2135,.7177-2.4271,1.4353-3.6407,2.1528-1.2135,0-2.5552-.6418-3.6406,0-.5427,.321 .429,1.6454 0,2.153-.4291,.5074-1.3912-.5075-1.8203,0-.429,.5074 .4291,1.6454 0,2.1528-.0825,.0975-8.2433,0-9.1015,0-.6068,0-1.3913-.5074-1.8203,0-.429,.5074 .429,1.6454 0,2.1528-.429,.5074-1.2135,0-1.8203,0h-29.125c-.8198,0-4.907,.3277-5.4609,0-.7675-.4538-1.4365-1.2451-1.8203-2.1528-.2393-.5661 0-7.4857 0-8.6115 0-.9695-.277-5.8035 0-6.4586 1.388-3.2831 4.7836-2.1528 7.2813-2.1528 .6068,0 1.2776,.321 1.8203,0 .7675-.4539 1.0528-1.699 1.8203-2.1529 .5427-.3209 1.3913,.5074 1.8203,0 .4291-.5074-.2713-1.5109 0-2.1529 1.5491-3.6641 10.855-6.4268 10.922-6.4586z"/>
</g>
<g stroke-opacity=".995" stroke-linejoin="round" stroke-linecap="round" stroke-width=".722" transform="translate(-22.031 -464.46)">
<path fill="#f00" d="m22.394,657.63h384.09v20.528h-384.09z"/>
<path fill="url(#linearGradient4799)" d="m27.855,656.72 378.63-.9102v22.348h-384.09v-17.748z"/>
<path fill="url(#linearGradient4799)" d="m28.766,656.72h377.72v21.438h-377.72z"/>
<path fill="#f00" d="m-785.38-624.97h384.09v27.305h-384.09z" transform="matrix(-.99415 -.108 .108 -.99415 0 0)"/>
<path fill="url(#linearGradient4803)" d="m-785.38-624.97h384.09v27.305h-384.09z" transform="matrix(-.99415 -.108 .108 -.99415 0 0)"/>
<path fill="url(#linearGradient4805)" d="m-785.38-624.97h384.09v27.305h-384.09z" transform="matrix(-.99415 -.108 .108 -.99415 0 0)"/>
</g>
</g>
<g transform="translate(-22.031 -464.46)">
<path fill="#ff7f2a" d="m107.69,529.03c99.775-71.353 532.94-38.621 557.23,21.52 30.011,44.442 18.662,87.287-9.0077,129.5-170.85-22.69-351.42-13.85-557.22-21.52-34.019-52.73-27.438-94.98 9-129.5z"/>
<path fill="url(#radialGradient4807)" filter="url(#filter5362)" d="m-327.41,447.91c196.73-171.41 1100.2-134.93 1159.3,0 68.685,98.649 51.32,197.3 0,295.95-357.79-36.696-731.18-.6527-1159.3,0-78.192-117.2-70.632-214.06 0-295.95z" transform="matrix(.4813 0 0 .4813 256.7 304.37)"/>
<path fill="url(#radialGradient4809)" filter="url(#filter5390)" d="m-304.72,1020.6c196.73-209.42 1100.2-164.86 1159.3,0 68.685,120.53 51.32,241.05 0,361.58-357.79-44.835-731.18-.7975-1159.3,0-78.192-143.2-70.632-261.53 0-361.58z" transform="matrix(.4813 0 0 .4813 256.7 304.37)"/>
<path fill="url(#linearGradient4811)" filter="url(#filter5404)" d="m-309.05,999.77h1127.1c33.524,0 60.513,26.989 60.513,60.513v15.128c0,33.524-26.989,60.513-60.513,60.513h-1127.1c-33.524,0-60.513-26.989-60.513-60.513v-15.128c0-33.524 26.989-60.513 60.513-60.513z" transform="matrix(.4813 0 0 .4813 256.7 304.37)"/>
<path fill="url(#linearGradient4811)" filter="url(#filter5418)" d="m-309.05,818.23h1127.1c33.524,0 60.513,26.989 60.513,60.513v15.128c0,33.524-26.989,60.513-60.513,60.513h-1127.1c-33.524,0-60.513-26.989-60.513-60.513v-15.128c0-33.524 26.989-60.513 60.513-60.513z" transform="matrix(.4813 0 0 .4813 256.7 304.37)"/>
</g>
<g stroke="#000" stroke-width="1.261">
<g transform="matrix(.4813 0 0 .30248 3520.869 618.04)">
<path fill="#f00" d="m-7185.9-747.9c20.081-8.0324 12.121-7.5641 22.692-7.5641 1.2607,0 2.559,.3058 3.7821,0 3.8676-.9669 7.4786-2.8152 11.346-3.7821 2.4461-.6115 5.0427,0 7.5641,0h75.641c1.2607,0 2.8907-.8914 3.7821,0s-.8914,2.8906 0,3.7821c.8914,.8914 2.8906-.8914 3.7821,0 1.7829,1.7829-1.1276,5.309 0,7.5641 .7973,1.5947 2.5214,2.5214 3.782,3.7821 1.2607,1.2607 2.0907,3.2183 3.7821,3.7821 2.392,.7973 5.309-1.1276 7.5642,0 1.1275,.5638-.8915,2.8906 0,3.7821 .8914,.8914 2.6544-.5638 3.782,0 4.9961,2.498 2.5681,5.0661 7.5642,7.5641 1.1276,.5638 2.8906-.8914 3.782,0 .8915,.8914-.8914,2.8906 0,3.7821 .8915,.8914 2.6545-.5638 3.7821,0 1.5947,.7973 2.1874,2.9847 3.7821,3.7821 1.0079,.504 20.981,0 22.692,0h34.039c1.7033,0 10.195,.5755 11.346,0 1.5947-.7973 2.1874-2.9847 3.7821-3.7821 .9945-.4972 13.151,0 15.128,0 3.8087,0 20.601-.6972 22.692,0 1.6914,.5638 2.1874,2.9847 3.7821,3.7821 2.3771,1.1886 12.751-1.1886 15.128,0 1.5946,.7973 2.1874,2.9847 3.782,3.7821 .5166,.2583 22.176,.2583 22.692,0 3.1893-1.5947 4.3748-5.9695 7.5641-7.5641 1.0234-.5117 21.063,0 22.692,0h102.12c1.2607,0 2.8906,.8914 3.7821,0 .8914-.8914-.8915-2.8906 0-3.7821 .8914-.8914 2.5214,0 3.7821,0h132.37c3.7821,0 7.7582-1.196 11.346,0 1.6914,.5638 2.0907,3.2183 3.7821,3.7821 2.392,.7973 5.0917-.4945 7.5641,0 3.9093,.7818 7.437,3.0002 11.346,3.7821 2.4725,.4945 5.1181-.6115 7.5642,0 2.7348,.6837 4.8293,3.0984 7.5641,3.7821 2.4461,.6115 5.0917-.4945 7.5642,0 3.9092,.7818 7.4369,3.0002 11.346,3.7821 2.4724,.4945 5.0427,0 7.5641,0h37.82c2.5214,0 5.309,1.1276 7.5642,0 1.1276-.5638-.8915-2.8906 0-3.7821 .8914-.8914 2.5213,0 3.782,0 0-2.5214-1.1276-5.309 0-7.5641 .5638-1.1276 2.5214,0 3.7821,0 1.2607-1.2607 3.2183-2.0907 3.7821-3.7821 .7973-2.392-.6116-5.118 0-7.5641 4.5658-18.263 1.7973,.1874 7.5641-11.346 .5638-1.1276-.5638-2.6545 0-3.7821 .7973-1.5947 2.9847-2.1874 3.7821-3.7821 .5638-1.1276-.8915-2.8906 0-3.7821 1.7829-1.7829 5.3089,1.1276 7.5641,0 1.5947-.7973 2.1874-2.9847 3.7821-3.7821 1.151-.5755 9.6429,0 11.346,0 4.3935,0 15.482-.8572 18.91,0 2.7349,.6837 4.8899,2.8906 7.5642,3.7821 3.588,1.196 7.6771-.9173 11.346,0 6.8453-2.2796 7.034,6.1267 11.346,7.5641 2.392,.7973 5.1722-.7973 7.5642,0 1.6913,.5638 2.1874,2.9847 3.782,3.7821 1.1276,.5638 2.6545-.5638 3.7821,0 3.7217,1.8608 11.407,13.267 15.128,15.128 2.2552,1.1276 5.7812-1.7829 7.5641,0 .8915,.8914-.8914,2.8906 0,3.7821 .1216,.1216 10.429,0 11.346,0h30.256c1.2607,0 2.6545,.5638 3.7821,0 1.5946-.7973 2.1874-2.9847 3.782-3.7821 1.1276-.5638 2.5214,0 3.7821,0h3.7821c1.9777,0 14.134-.4972 15.128,0 1.5947,.7973 2.2987,2.7931 3.7821,3.7821-.7959,6.9822 8.9882,2.603 11.346,3.7821 1.5947,.7973 2.1874,2.9847 3.7821,3.7821 .9945,.4972 13.151,0 15.128,0 1.2607,0 2.8906,.8914 3.782,0 .8915-.8914-.8914-2.8906 0-3.7821 .8915-.8914 2.8907,.8914 3.7821,0 .8915-.8914-.8914-2.8906 0-3.7821 .7732-.7732 9.8467,.7498 11.346,0 1.5947-.7973 2.1874-2.9847 3.7821-3.7821 .9945-.4972 13.151,0 15.128,0 1.9777,0 14.134-.4972 15.128,0 4.3358,2.1679 5.2609,7.8913 7.5641,11.346 .989,1.4834 2.5214,2.5214 3.7821,3.7821 3.782,3.7821 7.5641,7.5641 11.346,11.346 1.2607,1.2607 2.9847,2.1874 3.7821,3.7821 .5638,1.1276-.8915,2.8906 0,3.7821 .8914,.8914 2.5213,0 3.782,0h3.7821c1.7033,0 10.195,.5755 11.346,0 1.5947-.7973 2.1874-2.9847 3.7821-3.7821 1.1276-.5638 2.8906,.8914 3.782,0 1.9934-1.9933 1.4366-6.0004 3.7821-7.5641 2.0979-1.3986 5.4662,1.3986 7.5642,0 2.3455-1.5637 1.7887-5.5708 3.782-7.5641 .8915-.8914 2.8907,.8914 3.7821,0 1.9933-1.9933 1.7887-5.5708 3.7821-7.5641 .8914-.8914 2.6544,.5638 3.782,0 1.5947-.7973 2.1874-2.9847 3.7821-3.7821 1.151-.5755 9.6429,0 11.346,0 4.3935,0 15.482-.8572 18.91,0 24.692,6.1729-14.289,2.0309 18.91,7.5641 3.7306,.6218 7.6376-.7417 11.346,0 2.7643,.5529 4.8294,3.0984 7.5642,3.7821 2.4461,.6115 5.118-.6115 7.5641,0 2.7348,.6837 4.8293,3.0984 7.5642,3.7821 3.9178,.9795 10.792,0 15.128,0h45.384c1.2607,0 2.8906,.8914 3.782,0 .8915-.8914-.8914-2.8906 0-3.7821 .8915-.8914 2.8907,.8914 3.7821,0 .8915-.8914 0-2.5214 0-3.7821v-3.7821c0-2.6306 .6839-17.543 0-18.91-.7973-1.5947-2.9847-2.1874-3.7821-3.7821-.5638-1.1276 .8915-2.8906 0-3.7821-1.9933-1.9933-5.5708-1.7888-7.5641-3.7821-.8914-.8914 .8914-2.8906 0-3.7821-.1714-.1714-17.127,0-18.91,0-1.9778,0-14.134-.4972-15.128,0-3.1893,1.5947-4.3748,5.9695-7.5642,7.5641-1.1276,.5638-2.8906-.8914-3.782,0-.8915,.8914 .8914,2.8906 0,3.7821-.8915,.8914-2.8907-.8914-3.7821,0s.5638,2.6545 0,3.7821c-4.1812,8.3624-2.3473,1.1737-7.5641,3.7821-1.5947,.7973-2.1875,2.9847-3.7821,3.7821-1.1276,.5638-2.5214,0-3.7821,0h-11.346c-1.2607,0-2.5861,.3987-3.7821,0-27.395-9.1317 5.9629,1.0904-11.346-7.5641-3.5657-1.7829-7.7804-1.9992-11.346-3.7821-5.026-2.513-2.5381-5.0511-7.5641-7.5641-1.1276-.5638-2.6545,.5638-3.7821,0-1.5947-.7973-2.2986-2.7931-3.7821-3.7821-19.106-12.738-.088-.0292-11.346-3.7821-2.6743-.8914-4.8293-3.0984-7.5641-3.7821-2.4461-.6115-5.0428,0-7.5642,0h-22.692c-1.2607,0-2.8906-.8914-3.7821,0-.8914,.8914 .8915,2.8906 0,3.7821-.8914,.8914-2.5213,0-3.782,0h-94.551c-1.2607,0-2.6545,.5638-3.7821,0-1.5946-.7973-2.1874-2.9847-3.782-3.7821-.9779-.4889-20.012,0-22.692,0-1.9778,0-14.134-.4972-15.128,0-1.5947,.7973-2.1874,2.9847-3.7821,3.7821-1.151,.5755-9.6429,0-11.346,0h-7.5641c-2.5214,0-5.1181,.6115-7.5642,0-5.4696-1.3674-9.7796-5.7813-15.128-7.5641-4.9312-1.6437-10.197-2.1383-15.128-3.7821-2.6744-.8914-5.2186-2.2184-7.5642-3.7821-1.4834-.989-2.0907-3.2183-3.7821-3.7821-2.3919-.7973-5.1721,.7973-7.5641,0-1.6914-.5638-2.5214-2.5214-3.7821-3.7821-2.5213-1.2607-4.8898-2.8906-7.5641-3.7821-2.3804-.7935-15.501,0-18.91,0h-34.038c-1.2607,0-2.5861-.3987-3.7821,0-2.6743,.8914-4.8293,3.0984-7.5641,3.7821-3.6691,.9173-7.7582-1.196-11.346,0-2.6743,.8914-5.0428,2.5214-7.5642,3.7821-2.5213,1.2607-5.2186,2.2184-7.5641,3.7821-1.4834,.989-2.1874,2.9847-3.7821,3.7821-2.3771,1.1886-12.751-1.1886-15.128,0-1.5947,.7973-2.0907,3.2183-3.7821,3.7821-17.217,0-.2163-1.7829-11.346,3.7821-1.1276,.5638-2.5214,0-3.7821,0h-52.948c-1.7033,0-10.195-.5755-11.346,0-1.5946,.7973-2.0907,3.2183-3.7821,3.7821-2.392,.7973-5.0427,0-7.5641,0-1.2607,0-2.6545-.5638-3.7821,0-3.1893,1.5947-4.3748,5.9695-7.5641,7.5641-9.3151,4.6575 3.4142-10.978-11.346,3.7821-.8915,.8914 .8914,2.8906 0,3.7821-.1522,.1522-13.739,0-15.128,0h-26.474c-5.0428,0-10.154,.829-15.128,0-5.5612-.9269-9.6586-6.1967-15.128-7.5641-2.4461-.6115-5.0917,.4945-7.5641,0-3.9092-.7818-7.4786-2.8152-11.346-3.7821-7.5641-1.891 0,3.7821-11.346,0-1.6914-.5638-2.0907-3.2183-3.7821-3.7821-1.936-.6453-19.989,0-22.692,0h-71.859c-.8988,0-14.281,.4238-15.128,0-1.5947-.7973-2.1874-2.9847-3.7821-3.7821-2.3771-1.1886-12.751,1.1886-15.128,0-1.5946-.7973-2.0907-3.2183-3.782-3.7821-2.392-.7973-5.0428,0-7.5642,0-1.2607,0-2.6545,.5638-3.7821,0-1.5946-.7973-2.0906-3.2183-3.782-3.7821-3.588-1.196-7.5642,0-11.346,0h-49.166c-1.2607,0-2.8907-.8914-3.7821,0-.8915,.8914 .8914,2.8906 0,3.7821-.8915,.8914-2.5214,0-3.7821,0h-147.5c-1.2607,0-2.6545,.5638-3.7821,0-1.5947-.7973-2.1874-2.9847-3.7821-3.7821-1.1276-.5638-2.8906,.8914-3.782,0-.8915-.8914 .8914-2.8906 0-3.7821-1.7829-1.7829-5.309,1.1276-7.5642,0-1.5946-.7973-2.1874-2.9847-3.782-3.7821-1.1276-.5638-2.8907,.8914-3.7821,0-.8915-.8914 1.1276-3.2183 0-3.7821-2.2552-1.1276-5.0428,0-7.5642,0h-52.948c-1.9778,0-14.134-.4972-15.128,0-1.5947,.7973-2.1874,2.9847-3.7821,3.7821-2.2552,1.1276-5.7812-1.7829-7.5641,0-.8915,.8914 .8914,2.8906 0,3.7821-1.8911,1.891-9.4552-1.891-11.346,0-.8915,.8914 .8914,2.8906 0,3.7821-.8915,.8914-2.6545-.5638-3.7821,0-1.5947,.7973-2.1874,2.9847-3.7821,3.7821-1.1276,.5638-2.8906-.8914-3.7821,0-.8914,.8914-.3986,2.5861 0,3.7821 2.1469,6.4406 5.0428,12.607 7.5642,18.91z"/>
<path fill="url(#linearGradient4815)" d="m-7185.9-747.9c20.081-8.0324 12.121-7.5641 22.692-7.5641 1.2607,0 2.559,.3058 3.7821,0 3.8676-.9669 7.4786-2.8152 11.346-3.7821 2.4461-.6115 5.0427,0 7.5641,0h75.641c1.2607,0 2.8907-.8914 3.7821,0s-.8914,2.8906 0,3.7821c.8914,.8914 2.8906-.8914 3.7821,0 1.7829,1.7829-1.1276,5.309 0,7.5641 .7973,1.5947 2.5214,2.5214 3.782,3.7821 1.2607,1.2607 2.0907,3.2183 3.7821,3.7821 2.392,.7973 5.309-1.1276 7.5642,0 1.1275,.5638-.8915,2.8906 0,3.7821 .8914,.8914 2.6544-.5638 3.782,0 4.9961,2.498 2.5681,5.0661 7.5642,7.5641 1.1276,.5638 2.8906-.8914 3.782,0 .8915,.8914-.8914,2.8906 0,3.7821 .8915,.8914 2.6545-.5638 3.7821,0 1.5947,.7973 2.1874,2.9847 3.7821,3.7821 1.0079,.504 20.981,0 22.692,0h34.039c1.7033,0 10.195,.5755 11.346,0 1.5947-.7973 2.1874-2.9847 3.7821-3.7821 .9945-.4972 13.151,0 15.128,0 3.8087,0 20.601-.6972 22.692,0 1.6914,.5638 2.1874,2.9847 3.7821,3.7821 2.3771,1.1886 12.751-1.1886 15.128,0 1.5946,.7973 2.1874,2.9847 3.782,3.7821 .5166,.2583 22.176,.2583 22.692,0 3.1893-1.5947 4.3748-5.9695 7.5641-7.5641 1.0234-.5117 21.063,0 22.692,0h102.12c1.2607,0 2.8906,.8914 3.7821,0 .8914-.8914-.8915-2.8906 0-3.7821 .8914-.8914 2.5214,0 3.7821,0h132.37c3.7821,0 7.7582-1.196 11.346,0 1.6914,.5638 2.0907,3.2183 3.7821,3.7821 2.392,.7973 5.0917-.4945 7.5641,0 3.9093,.7818 7.437,3.0002 11.346,3.7821 2.4725,.4945 5.1181-.6115 7.5642,0 2.7348,.6837 4.8293,3.0984 7.5641,3.7821 2.4461,.6115 5.0917-.4945 7.5642,0 3.9092,.7818 7.4369,3.0002 11.346,3.7821 2.4724,.4945 5.0427,0 7.5641,0h37.82c2.5214,0 5.309,1.1276 7.5642,0 1.1276-.5638-.8915-2.8906 0-3.7821 .8914-.8914 2.5213,0 3.782,0 0-2.5214-1.1276-5.309 0-7.5641 .5638-1.1276 2.5214,0 3.7821,0 1.2607-1.2607 3.2183-2.0907 3.7821-3.7821 .7973-2.392-.6116-5.118 0-7.5641 4.5658-18.263 1.7973,.1874 7.5641-11.346 .5638-1.1276-.5638-2.6545 0-3.7821 .7973-1.5947 2.9847-2.1874 3.7821-3.7821 .5638-1.1276-.8915-2.8906 0-3.7821 1.7829-1.7829 5.3089,1.1276 7.5641,0 1.5947-.7973 2.1874-2.9847 3.7821-3.7821 1.151-.5755 9.6429,0 11.346,0 4.3935,0 15.482-.8572 18.91,0 2.7349,.6837 4.8899,2.8906 7.5642,3.7821 3.588,1.196 7.6771-.9173 11.346,0 6.8453-2.2796 7.034,6.1267 11.346,7.5641 2.392,.7973 5.1722-.7973 7.5642,0 1.6913,.5638 2.1874,2.9847 3.782,3.7821 1.1276,.5638 2.6545-.5638 3.7821,0 3.7217,1.8608 11.407,13.267 15.128,15.128 2.2552,1.1276 5.7812-1.7829 7.5641,0 .8915,.8914-.8914,2.8906 0,3.7821 .1216,.1216 10.429,0 11.346,0h30.256c1.2607,0 2.6545,.5638 3.7821,0 1.5946-.7973 2.1874-2.9847 3.782-3.7821 1.1276-.5638 2.5214,0 3.7821,0h3.7821c1.9777,0 14.134-.4972 15.128,0 1.5947,.7973 2.2987,2.7931 3.7821,3.7821-.7959,6.9822 8.9882,2.603 11.346,3.7821 1.5947,.7973 2.1874,2.9847 3.7821,3.7821 .9945,.4972 13.151,0 15.128,0 1.2607,0 2.8906,.8914 3.782,0 .8915-.8914-.8914-2.8906 0-3.7821 .8915-.8914 2.8907,.8914 3.7821,0 .8915-.8914-.8914-2.8906 0-3.7821 .7732-.7732 9.8467,.7498 11.346,0 1.5947-.7973 2.1874-2.9847 3.7821-3.7821 .9945-.4972 13.151,0 15.128,0 1.9777,0 14.134-.4972 15.128,0 4.3358,2.1679 5.2609,7.8913 7.5641,11.346 .989,1.4834 2.5214,2.5214 3.7821,3.7821 3.782,3.7821 7.5641,7.5641 11.346,11.346 1.2607,1.2607 2.9847,2.1874 3.7821,3.7821 .5638,1.1276-.8915,2.8906 0,3.7821 .8914,.8914 2.5213,0 3.782,0h3.7821c1.7033,0 10.195,.5755 11.346,0 1.5947-.7973 2.1874-2.9847 3.7821-3.7821 1.1276-.5638 2.8906,.8914 3.782,0 1.9934-1.9933 1.4366-6.0004 3.7821-7.5641 2.0979-1.3986 5.4662,1.3986 7.5642,0 2.3455-1.5637 1.7887-5.5708 3.782-7.5641 .8915-.8914 2.8907,.8914 3.7821,0 1.9933-1.9933 1.7887-5.5708 3.7821-7.5641 .8914-.8914 2.6544,.5638 3.782,0 1.5947-.7973 2.1874-2.9847 3.7821-3.7821 1.151-.5755 9.6429,0 11.346,0 4.3935,0 15.482-.8572 18.91,0 24.692,6.1729-14.289,2.0309 18.91,7.5641 3.7306,.6218 7.6376-.7417 11.346,0 2.7643,.5529 4.8294,3.0984 7.5642,3.7821 2.4461,.6115 5.118-.6115 7.5641,0 2.7348,.6837 4.8293,3.0984 7.5642,3.7821 3.9178,.9795 10.792,0 15.128,0h45.384c1.2607,0 2.8906,.8914 3.782,0 .8915-.8914-.8914-2.8906 0-3.7821 .8915-.8914 2.8907,.8914 3.7821,0 .8915-.8914 0-2.5214 0-3.7821v-3.7821c0-2.6306 .6839-17.543 0-18.91-.7973-1.5947-2.9847-2.1874-3.7821-3.7821-.5638-1.1276 .8915-2.8906 0-3.7821-1.9933-1.9933-5.5708-1.7888-7.5641-3.7821-.8914-.8914 .8914-2.8906 0-3.7821-.1714-.1714-17.127,0-18.91,0-1.9778,0-14.134-.4972-15.128,0-3.1893,1.5947-4.3748,5.9695-7.5642,7.5641-1.1276,.5638-2.8906-.8914-3.782,0-.8915,.8914 .8914,2.8906 0,3.7821-.8915,.8914-2.8907-.8914-3.7821,0s.5638,2.6545 0,3.7821c-4.1812,8.3624-2.3473,1.1737-7.5641,3.7821-1.5947,.7973-2.1875,2.9847-3.7821,3.7821-1.1276,.5638-2.5214,0-3.7821,0h-11.346c-1.2607,0-2.5861,.3987-3.7821,0-27.395-9.1317 5.9629,1.0904-11.346-7.5641-3.5657-1.7829-7.7804-1.9992-11.346-3.7821-5.026-2.513-2.5381-5.0511-7.5641-7.5641-1.1276-.5638-2.6545,.5638-3.7821,0-1.5947-.7973-2.2986-2.7931-3.7821-3.7821-19.106-12.738-.088-.0292-11.346-3.7821-2.6743-.8914-4.8293-3.0984-7.5641-3.7821-2.4461-.6115-5.0428,0-7.5642,0h-22.692c-1.2607,0-2.8906-.8914-3.7821,0-.8914,.8914 .8915,2.8906 0,3.7821-.8914,.8914-2.5213,0-3.782,0h-94.551c-1.2607,0-2.6545,.5638-3.7821,0-1.5946-.7973-2.1874-2.9847-3.782-3.7821-.9779-.4889-20.012,0-22.692,0-1.9778,0-14.134-.4972-15.128,0-1.5947,.7973-2.1874,2.9847-3.7821,3.7821-1.151,.5755-9.6429,0-11.346,0h-7.5641c-2.5214,0-5.1181,.6115-7.5642,0-5.4696-1.3674-9.7796-5.7813-15.128-7.5641-4.9312-1.6437-10.197-2.1383-15.128-3.7821-2.6744-.8914-5.2186-2.2184-7.5642-3.7821-1.4834-.989-2.0907-3.2183-3.7821-3.7821-2.3919-.7973-5.1721,.7973-7.5641,0-1.6914-.5638-2.5214-2.5214-3.7821-3.7821-2.5213-1.2607-4.8898-2.8906-7.5641-3.7821-2.3804-.7935-15.501,0-18.91,0h-34.038c-1.2607,0-2.5861-.3987-3.7821,0-2.6743,.8914-4.8293,3.0984-7.5641,3.7821-3.6691,.9173-7.7582-1.196-11.346,0-2.6743,.8914-5.0428,2.5214-7.5642,3.7821-2.5213,1.2607-5.2186,2.2184-7.5641,3.7821-1.4834,.989-2.1874,2.9847-3.7821,3.7821-2.3771,1.1886-12.751-1.1886-15.128,0-1.5947,.7973-2.0907,3.2183-3.7821,3.7821-17.217,0-.2163-1.7829-11.346,3.7821-1.1276,.5638-2.5214,0-3.7821,0h-52.948c-1.7033,0-10.195-.5755-11.346,0-1.5946,.7973-2.0907,3.2183-3.7821,3.7821-2.392,.7973-5.0427,0-7.5641,0-1.2607,0-2.6545-.5638-3.7821,0-3.1893,1.5947-4.3748,5.9695-7.5641,7.5641-9.3151,4.6575 3.4142-10.978-11.346,3.7821-.8915,.8914 .8914,2.8906 0,3.7821-.1522,.1522-13.739,0-15.128,0h-26.474c-5.0428,0-10.154,.829-15.128,0-5.5612-.9269-9.6586-6.1967-15.128-7.5641-2.4461-.6115-5.0917,.4945-7.5641,0-3.9092-.7818-7.4786-2.8152-11.346-3.7821-7.5641-1.891 0,3.7821-11.346,0-1.6914-.5638-2.0907-3.2183-3.7821-3.7821-1.936-.6453-19.989,0-22.692,0h-71.859c-.8988,0-14.281,.4238-15.128,0-1.5947-.7973-2.1874-2.9847-3.7821-3.7821-2.3771-1.1886-12.751,1.1886-15.128,0-1.5946-.7973-2.0907-3.2183-3.782-3.7821-2.392-.7973-5.0428,0-7.5642,0-1.2607,0-2.6545,.5638-3.7821,0-1.5946-.7973-2.0906-3.2183-3.782-3.7821-3.588-1.196-7.5642,0-11.346,0h-49.166c-1.2607,0-2.8907-.8914-3.7821,0-.8915,.8914 .8914,2.8906 0,3.7821-.8915,.8914-2.5214,0-3.7821,0h-147.5c-1.2607,0-2.6545,.5638-3.7821,0-1.5947-.7973-2.1874-2.9847-3.7821-3.7821-1.1276-.5638-2.8906,.8914-3.782,0-.8915-.8914 .8914-2.8906 0-3.7821-1.7829-1.7829-5.309,1.1276-7.5642,0-1.5946-.7973-2.1874-2.9847-3.782-3.7821-1.1276-.5638-2.8907,.8914-3.7821,0-.8915-.8914 1.1276-3.2183 0-3.7821-2.2552-1.1276-5.0428,0-7.5642,0h-52.948c-1.9778,0-14.134-.4972-15.128,0-1.5947,.7973-2.1874,2.9847-3.7821,3.7821-2.2552,1.1276-5.7812-1.7829-7.5641,0-.8915,.8914 .8914,2.8906 0,3.7821-1.8911,1.891-9.4552-1.891-11.346,0-.8915,.8914 .8914,2.8906 0,3.7821-.8915,.8914-2.6545-.5638-3.7821,0-1.5947,.7973-2.1874,2.9847-3.7821,3.7821-1.1276,.5638-2.8906-.8914-3.7821,0-.8914,.8914-.3986,2.5861 0,3.7821 2.1469,6.4406 5.0428,12.607 7.5642,18.91z"/>
</g>
<g transform="matrix(.4813 0 0 .30248 3522.669 462.37)">
<path fill="#f00" d="m-7185.9-747.9c20.081-8.0324 12.121-7.5641 22.692-7.5641 1.2607,0 2.559,.3058 3.7821,0 3.8676-.9669 7.4786-2.8152 11.346-3.7821 2.4461-.6115 5.0427,0 7.5641,0h75.641c1.2607,0 2.8907-.8914 3.7821,0s-.8914,2.8906 0,3.7821c.8914,.8914 2.8906-.8914 3.7821,0 1.7829,1.7829-1.1276,5.309 0,7.5641 .7973,1.5947 2.5214,2.5214 3.782,3.7821 1.2607,1.2607 2.0907,3.2183 3.7821,3.7821 2.392,.7973 5.309-1.1276 7.5642,0 1.1275,.5638-.8915,2.8906 0,3.7821 .8914,.8914 2.6544-.5638 3.782,0 4.9961,2.498 2.5681,5.0661 7.5642,7.5641 1.1276,.5638 2.8906-.8914 3.782,0 .8915,.8914-.8914,2.8906 0,3.7821 .8915,.8914 2.6545-.5638 3.7821,0 1.5947,.7973 2.1874,2.9847 3.7821,3.7821 1.0079,.504 20.981,0 22.692,0h34.039c1.7033,0 10.195,.5755 11.346,0 1.5947-.7973 2.1874-2.9847 3.7821-3.7821 .9945-.4972 13.151,0 15.128,0 3.8087,0 20.601-.6972 22.692,0 1.6914,.5638 2.1874,2.9847 3.7821,3.7821 2.3771,1.1886 12.751-1.1886 15.128,0 1.5946,.7973 2.1874,2.9847 3.782,3.7821 .5166,.2583 22.176,.2583 22.692,0 3.1893-1.5947 4.3748-5.9695 7.5641-7.5641 1.0234-.5117 21.063,0 22.692,0h102.12c1.2607,0 2.8906,.8914 3.7821,0 .8914-.8914-.8915-2.8906 0-3.7821 .8914-.8914 2.5214,0 3.7821,0h132.37c3.7821,0 7.7582-1.196 11.346,0 1.6914,.5638 2.0907,3.2183 3.7821,3.7821 2.392,.7973 5.0917-.4945 7.5641,0 3.9093,.7818 7.437,3.0002 11.346,3.7821 2.4725,.4945 5.1181-.6115 7.5642,0 2.7348,.6837 4.8293,3.0984 7.5641,3.7821 2.4461,.6115 5.0917-.4945 7.5642,0 3.9092,.7818 7.4369,3.0002 11.346,3.7821 2.4724,.4945 5.0427,0 7.5641,0h37.82c2.5214,0 5.309,1.1276 7.5642,0 1.1276-.5638-.8915-2.8906 0-3.7821 .8914-.8914 2.5213,0 3.782,0 0-2.5214-1.1276-5.309 0-7.5641 .5638-1.1276 2.5214,0 3.7821,0 1.2607-1.2607 3.2183-2.0907 3.7821-3.7821 .7973-2.392-.6116-5.118 0-7.5641 4.5658-18.263 1.7973,.1874 7.5641-11.346 .5638-1.1276-.5638-2.6545 0-3.7821 .7973-1.5947 2.9847-2.1874 3.7821-3.7821 .5638-1.1276-.8915-2.8906 0-3.7821 1.7829-1.7829 5.3089,1.1276 7.5641,0 1.5947-.7973 2.1874-2.9847 3.7821-3.7821 1.151-.5755 9.6429,0 11.346,0 4.3935,0 15.482-.8572 18.91,0 2.7349,.6837 4.8899,2.8906 7.5642,3.7821 3.588,1.196 7.6771-.9173 11.346,0 6.8453-2.2796 7.034,6.1267 11.346,7.5641 2.392,.7973 5.1722-.7973 7.5642,0 1.6913,.5638 2.1874,2.9847 3.782,3.7821 1.1276,.5638 2.6545-.5638 3.7821,0 3.7217,1.8608 11.407,13.267 15.128,15.128 2.2552,1.1276 5.7812-1.7829 7.5641,0 .8915,.8914-.8914,2.8906 0,3.7821 .1216,.1216 10.429,0 11.346,0h30.256c1.2607,0 2.6545,.5638 3.7821,0 1.5946-.7973 2.1874-2.9847 3.782-3.7821 1.1276-.5638 2.5214,0 3.7821,0h3.7821c1.9777,0 14.134-.4972 15.128,0 1.5947,.7973 2.2987,2.7931 3.7821,3.7821-.7959,6.9822 8.9882,2.603 11.346,3.7821 1.5947,.7973 2.1874,2.9847 3.7821,3.7821 .9945,.4972 13.151,0 15.128,0 1.2607,0 2.8906,.8914 3.782,0 .8915-.8914-.8914-2.8906 0-3.7821 .8915-.8914 2.8907,.8914 3.7821,0 .8915-.8914-.8914-2.8906 0-3.7821 .7732-.7732 9.8467,.7498 11.346,0 1.5947-.7973 2.1874-2.9847 3.7821-3.7821 .9945-.4972 13.151,0 15.128,0 1.9777,0 14.134-.4972 15.128,0 4.3358,2.1679 5.2609,7.8913 7.5641,11.346 .989,1.4834 2.5214,2.5214 3.7821,3.7821 3.782,3.7821 7.5641,7.5641 11.346,11.346 1.2607,1.2607 2.9847,2.1874 3.7821,3.7821 .5638,1.1276-.8915,2.8906 0,3.7821 .8914,.8914 2.5213,0 3.782,0h3.7821c1.7033,0 10.195,.5755 11.346,0 1.5947-.7973 2.1874-2.9847 3.7821-3.7821 1.1276-.5638 2.8906,.8914 3.782,0 1.9934-1.9933 1.4366-6.0004 3.7821-7.5641 2.0979-1.3986 5.4662,1.3986 7.5642,0 2.3455-1.5637 1.7887-5.5708 3.782-7.5641 .8915-.8914 2.8907,.8914 3.7821,0 1.9933-1.9933 1.7887-5.5708 3.7821-7.5641 .8914-.8914 2.6544,.5638 3.782,0 1.5947-.7973 2.1874-2.9847 3.7821-3.7821 1.151-.5755 9.6429,0 11.346,0 4.3935,0 15.482-.8572 18.91,0 24.692,6.1729-14.289,2.0309 18.91,7.5641 3.7306,.6218 7.6376-.7417 11.346,0 2.7643,.5529 4.8294,3.0984 7.5642,3.7821 2.4461,.6115 5.118-.6115 7.5641,0 2.7348,.6837 4.8293,3.0984 7.5642,3.7821 3.9178,.9795 10.792,0 15.128,0h45.384c1.2607,0 2.8906,.8914 3.782,0 .8915-.8914-.8914-2.8906 0-3.7821 .8915-.8914 2.8907,.8914 3.7821,0 .8915-.8914 0-2.5214 0-3.7821v-3.7821c0-2.6306 .6839-17.543 0-18.91-.7973-1.5947-2.9847-2.1874-3.7821-3.7821-.5638-1.1276 .8915-2.8906 0-3.7821-1.9933-1.9933-5.5708-1.7888-7.5641-3.7821-.8914-.8914 .8914-2.8906 0-3.7821-.1714-.1714-17.127,0-18.91,0-1.9778,0-14.134-.4972-15.128,0-3.1893,1.5947-4.3748,5.9695-7.5642,7.5641-1.1276,.5638-2.8906-.8914-3.782,0-.8915,.8914 .8914,2.8906 0,3.7821-.8915,.8914-2.8907-.8914-3.7821,0s.5638,2.6545 0,3.7821c-4.1812,8.3624-2.3473,1.1737-7.5641,3.7821-1.5947,.7973-2.1875,2.9847-3.7821,3.7821-1.1276,.5638-2.5214,0-3.7821,0h-11.346c-1.2607,0-2.5861,.3987-3.7821,0-27.395-9.1317 5.9629,1.0904-11.346-7.5641-3.5657-1.7829-7.7804-1.9992-11.346-3.7821-5.026-2.513-2.5381-5.0511-7.5641-7.5641-1.1276-.5638-2.6545,.5638-3.7821,0-1.5947-.7973-2.2986-2.7931-3.7821-3.7821-19.106-12.738-.088-.0292-11.346-3.7821-2.6743-.8914-4.8293-3.0984-7.5641-3.7821-2.4461-.6115-5.0428,0-7.5642,0h-22.692c-1.2607,0-2.8906-.8914-3.7821,0-.8914,.8914 .8915,2.8906 0,3.7821-.8914,.8914-2.5213,0-3.782,0h-94.551c-1.2607,0-2.6545,.5638-3.7821,0-1.5946-.7973-2.1874-2.9847-3.782-3.7821-.9779-.4889-20.012,0-22.692,0-1.9778,0-14.134-.4972-15.128,0-1.5947,.7973-2.1874,2.9847-3.7821,3.7821-1.151,.5755-9.6429,0-11.346,0h-7.5641c-2.5214,0-5.1181,.6115-7.5642,0-5.4696-1.3674-9.7796-5.7813-15.128-7.5641-4.9312-1.6437-10.197-2.1383-15.128-3.7821-2.6744-.8914-5.2186-2.2184-7.5642-3.7821-1.4834-.989-2.0907-3.2183-3.7821-3.7821-2.3919-.7973-5.1721,.7973-7.5641,0-1.6914-.5638-2.5214-2.5214-3.7821-3.7821-2.5213-1.2607-4.8898-2.8906-7.5641-3.7821-2.3804-.7935-15.501,0-18.91,0h-34.038c-1.2607,0-2.5861-.3987-3.7821,0-2.6743,.8914-4.8293,3.0984-7.5641,3.7821-3.6691,.9173-7.7582-1.196-11.346,0-2.6743,.8914-5.0428,2.5214-7.5642,3.7821-2.5213,1.2607-5.2186,2.2184-7.5641,3.7821-1.4834,.989-2.1874,2.9847-3.7821,3.7821-2.3771,1.1886-12.751-1.1886-15.128,0-1.5947,.7973-2.0907,3.2183-3.7821,3.7821-17.217,0-.2163-1.7829-11.346,3.7821-1.1276,.5638-2.5214,0-3.7821,0h-52.948c-1.7033,0-10.195-.5755-11.346,0-1.5946,.7973-2.0907,3.2183-3.7821,3.7821-2.392,.7973-5.0427,0-7.5641,0-1.2607,0-2.6545-.5638-3.7821,0-3.1893,1.5947-4.3748,5.9695-7.5641,7.5641-9.3151,4.6575 3.4142-10.978-11.346,3.7821-.8915,.8914 .8914,2.8906 0,3.7821-.1522,.1522-13.739,0-15.128,0h-26.474c-5.0428,0-10.154,.829-15.128,0-5.5612-.9269-9.6586-6.1967-15.128-7.5641-2.4461-.6115-5.0917,.4945-7.5641,0-3.9092-.7818-7.4786-2.8152-11.346-3.7821-7.5641-1.891 0,3.7821-11.346,0-1.6914-.5638-2.0907-3.2183-3.7821-3.7821-1.936-.6453-19.989,0-22.692,0h-71.859c-.8988,0-14.281,.4238-15.128,0-1.5947-.7973-2.1874-2.9847-3.7821-3.7821-2.3771-1.1886-12.751,1.1886-15.128,0-1.5946-.7973-2.0907-3.2183-3.782-3.7821-2.392-.7973-5.0428,0-7.5642,0-1.2607,0-2.6545,.5638-3.7821,0-1.5946-.7973-2.0906-3.2183-3.782-3.7821-3.588-1.196-7.5642,0-11.346,0h-49.166c-1.2607,0-2.8907-.8914-3.7821,0-.8915,.8914 .8914,2.8906 0,3.7821-.8915,.8914-2.5214,0-3.7821,0h-147.5c-1.2607,0-2.6545,.5638-3.7821,0-1.5947-.7973-2.1874-2.9847-3.7821-3.7821-1.1276-.5638-2.8906,.8914-3.782,0-.8915-.8914 .8914-2.8906 0-3.7821-1.7829-1.7829-5.309,1.1276-7.5642,0-1.5946-.7973-2.1874-2.9847-3.782-3.7821-1.1276-.5638-2.8907,.8914-3.7821,0-.8915-.8914 1.1276-3.2183 0-3.7821-2.2552-1.1276-5.0428,0-7.5642,0h-52.948c-1.9778,0-14.134-.4972-15.128,0-1.5947,.7973-2.1874,2.9847-3.7821,3.7821-2.2552,1.1276-5.7812-1.7829-7.5641,0-.8915,.8914 .8914,2.8906 0,3.7821-1.8911,1.891-9.4552-1.891-11.346,0-.8915,.8914 .8914,2.8906 0,3.7821-.8915,.8914-2.6545-.5638-3.7821,0-1.5947,.7973-2.1874,2.9847-3.7821,3.7821-1.1276,.5638-2.8906-.8914-3.7821,0-.8914,.8914-.3986,2.5861 0,3.7821 2.1469,6.4406 5.0428,12.607 7.5642,18.91z"/>
<path fill="url(#linearGradient4817)" d="m-7185.9-747.9c20.081-8.0324 12.121-7.5641 22.692-7.5641 1.2607,0 2.559,.3058 3.7821,0 3.8676-.9669 7.4786-2.8152 11.346-3.7821 2.4461-.6115 5.0427,0 7.5641,0h75.641c1.2607,0 2.8907-.8914 3.7821,0s-.8914,2.8906 0,3.7821c.8914,.8914 2.8906-.8914 3.7821,0 1.7829,1.7829-1.1276,5.309 0,7.5641 .7973,1.5947 2.5214,2.5214 3.782,3.7821 1.2607,1.2607 2.0907,3.2183 3.7821,3.7821 2.392,.7973 5.309-1.1276 7.5642,0 1.1275,.5638-.8915,2.8906 0,3.7821 .8914,.8914 2.6544-.5638 3.782,0 4.9961,2.498 2.5681,5.0661 7.5642,7.5641 1.1276,.5638 2.8906-.8914 3.782,0 .8915,.8914-.8914,2.8906 0,3.7821 .8915,.8914 2.6545-.5638 3.7821,0 1.5947,.7973 2.1874,2.9847 3.7821,3.7821 1.0079,.504 20.981,0 22.692,0h34.039c1.7033,0 10.195,.5755 11.346,0 1.5947-.7973 2.1874-2.9847 3.7821-3.7821 .9945-.4972 13.151,0 15.128,0 3.8087,0 20.601-.6972 22.692,0 1.6914,.5638 2.1874,2.9847 3.7821,3.7821 2.3771,1.1886 12.751-1.1886 15.128,0 1.5946,.7973 2.1874,2.9847 3.782,3.7821 .5166,.2583 22.176,.2583 22.692,0 3.1893-1.5947 4.3748-5.9695 7.5641-7.5641 1.0234-.5117 21.063,0 22.692,0h102.12c1.2607,0 2.8906,.8914 3.7821,0 .8914-.8914-.8915-2.8906 0-3.7821 .8914-.8914 2.5214,0 3.7821,0h132.37c3.7821,0 7.7582-1.196 11.346,0 1.6914,.5638 2.0907,3.2183 3.7821,3.7821 2.392,.7973 5.0917-.4945 7.5641,0 3.9093,.7818 7.437,3.0002 11.346,3.7821 2.4725,.4945 5.1181-.6115 7.5642,0 2.7348,.6837 4.8293,3.0984 7.5641,3.7821 2.4461,.6115 5.0917-.4945 7.5642,0 3.9092,.7818 7.4369,3.0002 11.346,3.7821 2.4724,.4945 5.0427,0 7.5641,0h37.82c2.5214,0 5.309,1.1276 7.5642,0 1.1276-.5638-.8915-2.8906 0-3.7821 .8914-.8914 2.5213,0 3.782,0 0-2.5214-1.1276-5.309 0-7.5641 .5638-1.1276 2.5214,0 3.7821,0 1.2607-1.2607 3.2183-2.0907 3.7821-3.7821 .7973-2.392-.6116-5.118 0-7.5641 4.5658-18.263 1.7973,.1874 7.5641-11.346 .5638-1.1276-.5638-2.6545 0-3.7821 .7973-1.5947 2.9847-2.1874 3.7821-3.7821 .5638-1.1276-.8915-2.8906 0-3.7821 1.7829-1.7829 5.3089,1.1276 7.5641,0 1.5947-.7973 2.1874-2.9847 3.7821-3.7821 1.151-.5755 9.6429,0 11.346,0 4.3935,0 15.482-.8572 18.91,0 2.7349,.6837 4.8899,2.8906 7.5642,3.7821 3.588,1.196 7.6771-.9173 11.346,0 6.8453-2.2796 7.034,6.1267 11.346,7.5641 2.392,.7973 5.1722-.7973 7.5642,0 1.6913,.5638 2.1874,2.9847 3.782,3.7821 1.1276,.5638 2.6545-.5638 3.7821,0 3.7217,1.8608 11.407,13.267 15.128,15.128 2.2552,1.1276 5.7812-1.7829 7.5641,0 .8915,.8914-.8914,2.8906 0,3.7821 .1216,.1216 10.429,0 11.346,0h30.256c1.2607,0 2.6545,.5638 3.7821,0 1.5946-.7973 2.1874-2.9847 3.782-3.7821 1.1276-.5638 2.5214,0 3.7821,0h3.7821c1.9777,0 14.134-.4972 15.128,0 1.5947,.7973 2.2987,2.7931 3.7821,3.7821-.7959,6.9822 8.9882,2.603 11.346,3.7821 1.5947,.7973 2.1874,2.9847 3.7821,3.7821 .9945,.4972 13.151,0 15.128,0 1.2607,0 2.8906,.8914 3.782,0 .8915-.8914-.8914-2.8906 0-3.7821 .8915-.8914 2.8907,.8914 3.7821,0 .8915-.8914-.8914-2.8906 0-3.7821 .7732-.7732 9.8467,.7498 11.346,0 1.5947-.7973 2.1874-2.9847 3.7821-3.7821 .9945-.4972 13.151,0 15.128,0 1.9777,0 14.134-.4972 15.128,0 4.3358,2.1679 5.2609,7.8913 7.5641,11.346 .989,1.4834 2.5214,2.5214 3.7821,3.7821 3.782,3.7821 7.5641,7.5641 11.346,11.346 1.2607,1.2607 2.9847,2.1874 3.7821,3.7821 .5638,1.1276-.8915,2.8906 0,3.7821 .8914,.8914 2.5213,0 3.782,0h3.7821c1.7033,0 10.195,.5755 11.346,0 1.5947-.7973 2.1874-2.9847 3.7821-3.7821 1.1276-.5638 2.8906,.8914 3.782,0 1.9934-1.9933 1.4366-6.0004 3.7821-7.5641 2.0979-1.3986 5.4662,1.3986 7.5642,0 2.3455-1.5637 1.7887-5.5708 3.782-7.5641 .8915-.8914 2.8907,.8914 3.7821,0 1.9933-1.9933 1.7887-5.5708 3.7821-7.5641 .8914-.8914 2.6544,.5638 3.782,0 1.5947-.7973 2.1874-2.9847 3.7821-3.7821 1.151-.5755 9.6429,0 11.346,0 4.3935,0 15.482-.8572 18.91,0 24.692,6.1729-14.289,2.0309 18.91,7.5641 3.7306,.6218 7.6376-.7417 11.346,0 2.7643,.5529 4.8294,3.0984 7.5642,3.7821 2.4461,.6115 5.118-.6115 7.5641,0 2.7348,.6837 4.8293,3.0984 7.5642,3.7821 3.9178,.9795 10.792,0 15.128,0h45.384c1.2607,0 2.8906,.8914 3.782,0 .8915-.8914-.8914-2.8906 0-3.7821 .8915-.8914 2.8907,.8914 3.7821,0 .8915-.8914 0-2.5214 0-3.7821v-3.7821c0-2.6306 .6839-17.543 0-18.91-.7973-1.5947-2.9847-2.1874-3.7821-3.7821-.5638-1.1276 .8915-2.8906 0-3.7821-1.9933-1.9933-5.5708-1.7888-7.5641-3.7821-.8914-.8914 .8914-2.8906 0-3.7821-.1714-.1714-17.127,0-18.91,0-1.9778,0-14.134-.4972-15.128,0-3.1893,1.5947-4.3748,5.9695-7.5642,7.5641-1.1276,.5638-2.8906-.8914-3.782,0-.8915,.8914 .8914,2.8906 0,3.7821-.8915,.8914-2.8907-.8914-3.7821,0s.5638,2.6545 0,3.7821c-4.1812,8.3624-2.3473,1.1737-7.5641,3.7821-1.5947,.7973-2.1875,2.9847-3.7821,3.7821-1.1276,.5638-2.5214,0-3.7821,0h-11.346c-1.2607,0-2.5861,.3987-3.7821,0-27.395-9.1317 5.9629,1.0904-11.346-7.5641-3.5657-1.7829-7.7804-1.9992-11.346-3.7821-5.026-2.513-2.5381-5.0511-7.5641-7.5641-1.1276-.5638-2.6545,.5638-3.7821,0-1.5947-.7973-2.2986-2.7931-3.7821-3.7821-19.106-12.738-.088-.0292-11.346-3.7821-2.6743-.8914-4.8293-3.0984-7.5641-3.7821-2.4461-.6115-5.0428,0-7.5642,0h-22.692c-1.2607,0-2.8906-.8914-3.7821,0-.8914,.8914 .8915,2.8906 0,3.7821-.8914,.8914-2.5213,0-3.782,0h-94.551c-1.2607,0-2.6545,.5638-3.7821,0-1.5946-.7973-2.1874-2.9847-3.782-3.7821-.9779-.4889-20.012,0-22.692,0-1.9778,0-14.134-.4972-15.128,0-1.5947,.7973-2.1874,2.9847-3.7821,3.7821-1.151,.5755-9.6429,0-11.346,0h-7.5641c-2.5214,0-5.1181,.6115-7.5642,0-5.4696-1.3674-9.7796-5.7813-15.128-7.5641-4.9312-1.6437-10.197-2.1383-15.128-3.7821-2.6744-.8914-5.2186-2.2184-7.5642-3.7821-1.4834-.989-2.0907-3.2183-3.7821-3.7821-2.3919-.7973-5.1721,.7973-7.5641,0-1.6914-.5638-2.5214-2.5214-3.7821-3.7821-2.5213-1.2607-4.8898-2.8906-7.5641-3.7821-2.3804-.7935-15.501,0-18.91,0h-34.038c-1.2607,0-2.5861-.3987-3.7821,0-2.6743,.8914-4.8293,3.0984-7.5641,3.7821-3.6691,.9173-7.7582-1.196-11.346,0-2.6743,.8914-5.0428,2.5214-7.5642,3.7821-2.5213,1.2607-5.2186,2.2184-7.5641,3.7821-1.4834,.989-2.1874,2.9847-3.7821,3.7821-2.3771,1.1886-12.751-1.1886-15.128,0-1.5947,.7973-2.0907,3.2183-3.7821,3.7821-17.217,0-.2163-1.7829-11.346,3.7821-1.1276,.5638-2.5214,0-3.7821,0h-52.948c-1.7033,0-10.195-.5755-11.346,0-1.5946,.7973-2.0907,3.2183-3.7821,3.7821-2.392,.7973-5.0427,0-7.5641,0-1.2607,0-2.6545-.5638-3.7821,0-3.1893,1.5947-4.3748,5.9695-7.5641,7.5641-9.3151,4.6575 3.4142-10.978-11.346,3.7821-.8915,.8914 .8914,2.8906 0,3.7821-.1522,.1522-13.739,0-15.128,0h-26.474c-5.0428,0-10.154,.829-15.128,0-5.5612-.9269-9.6586-6.1967-15.128-7.5641-2.4461-.6115-5.0917,.4945-7.5641,0-3.9092-.7818-7.4786-2.8152-11.346-3.7821-7.5641-1.891 0,3.7821-11.346,0-1.6914-.5638-2.0907-3.2183-3.7821-3.7821-1.936-.6453-19.989,0-22.692,0h-71.859c-.8988,0-14.281,.4238-15.128,0-1.5947-.7973-2.1874-2.9847-3.7821-3.7821-2.3771-1.1886-12.751,1.1886-15.128,0-1.5946-.7973-2.0907-3.2183-3.782-3.7821-2.392-.7973-5.0428,0-7.5642,0-1.2607,0-2.6545,.5638-3.7821,0-1.5946-.7973-2.0906-3.2183-3.782-3.7821-3.588-1.196-7.5642,0-11.346,0h-49.166c-1.2607,0-2.8907-.8914-3.7821,0-.8915,.8914 .8914,2.8906 0,3.7821-.8915,.8914-2.5214,0-3.7821,0h-147.5c-1.2607,0-2.6545,.5638-3.7821,0-1.5947-.7973-2.1874-2.9847-3.7821-3.7821-1.1276-.5638-2.8906,.8914-3.782,0-.8915-.8914 .8914-2.8906 0-3.7821-1.7829-1.7829-5.309,1.1276-7.5642,0-1.5946-.7973-2.1874-2.9847-3.782-3.7821-1.1276-.5638-2.8907,.8914-3.7821,0-.8915-.8914 1.1276-3.2183 0-3.7821-2.2552-1.1276-5.0428,0-7.5642,0h-52.948c-1.9778,0-14.134-.4972-15.128,0-1.5947,.7973-2.1874,2.9847-3.7821,3.7821-2.2552,1.1276-5.7812-1.7829-7.5641,0-.8915,.8914 .8914,2.8906 0,3.7821-1.8911,1.891-9.4552-1.891-11.346,0-.8915,.8914 .8914,2.8906 0,3.7821-.8915,.8914-2.6545-.5638-3.7821,0-1.5947,.7973-2.1874,2.9847-3.7821,3.7821-1.1276,.5638-2.8906-.8914-3.7821,0-.8914,.8914-.3986,2.5861 0,3.7821 2.1469,6.4406 5.0428,12.607 7.5642,18.91z"/>
</g>
</g>
<g transform="translate(-22.031 -464.46)">
<path fill="#ff7f2a" d="m99.114,957.1c89.224,61.796 547.75,48.119 557.98,0 24.765-37.449 39.355-74.227 0-107.45-179.8-.6982-364.55-7.6389-557.98,0-17.95,27.992-56.189,47.14 0,107.45z"/>
</g>
<g fill="#520" transform="translate(-22.031 -464.46)">
<path d="m107.95,785.56h542.45c16.135,0 29.125,12.99 29.125,29.125v7.2813c0,16.135-12.99,29.125-29.125,29.125h-542.45c-16.135,0-29.125-12.99-29.125-29.125v-7.2813c0-16.135 12.99-29.125 29.125-29.125z"/>
<path d="m107.95,700h542.45c16.135,0 29.125,12.99 29.125,29.125v7.2813c0,16.135-12.99,29.125-29.125,29.125h-542.45c-16.135,0-29.125-12.99-29.125-29.125v-7.2813c0-16.135 12.99-29.125 29.125-29.125z"/>
</g>
<g transform="translate(-22.031 -464.46)">
<path fill="#ff0" d="m50.42,760.08h632.25c4.8357,6.0677 8.1761,12.135 8.6374,18.203 .4613,6.0677-1.9566,12.135-8.6374,18.203h-632.25c-9.5776-11.299-17.684-22.727 0-36.406z"/>
</g>
<g stroke="#008000">
<g transform="translate(-22.031 -464.46)">
<path fill="#0f0" stroke-width=".481" d="m51.519,690.71c.0385-3.8096 15.069-1.3762 16.383-2.1528 .7675-.4539 1.0528-1.699 1.8203-2.1528 1.4563-.8612 4.0047,.8612 5.4609,0 .7675-.4539 1.0528-1.699 1.8203-2.1529 .5427-.321 1.2136,0 1.8203,0h1.8203c1.1874,0 5.847-.4241 7.2812,0 1.8615,.5503 3.5794,1.7078 5.461,2.1529 1.19,.2815 2.4271,0 3.6406,0h10.922c1.2136,0 2.4506-.2815 3.6406,0 1.8815,.445 3.5683,1.7798 5.461,2.1528 1.7955,.3539 3.6406,0 5.4609,0h23.665c.8198,0 4.907,.3276 5.4609,0 .7675-.4539 1.0528-1.699 1.8203-2.1528 .81-.479 6.4487,.3282 7.2812,0 .8141-.321 1.1064-1.5899 1.8203-2.1529 1.1289-.8901 2.3535-1.6454 3.6406-2.1529 .5756-.2269 1.2446,.227 1.8203,0 1.2872-.5074 2.3535-1.6454 3.6407-2.1528 .5756-.2269 1.3912,.5074 1.8203,0 .4291-.5074-.5427-1.8319 0-2.1528 1.0854-.6418 2.4894,.4538 3.6407,0 .8141-.321 1.0063-1.832 1.8203-2.1529 8.2866,0 .1041,1.0148 5.4609-2.1529 .4079-.2412 6.8487,0 7.2812,0h54.61c1.2135,0 2.4633-.3481 3.6406,0 1.8615,.5504 3.5995,1.6025 5.4609,2.1529 1.5574,.4604 7.2821,0 9.1016,0h32.766c.6068,0 1.2447,.2268 1.8203,0 1.2872-.5075 2.3244-1.7637 3.6406-2.1529 1.8856-.5575 5.194,0 7.2813,0h85.554c.6068,0 1.3912,.5075 1.8203,0 .429-.5074-.5427-1.832 0-2.1529 1.0854-.6418 2.4893,.454 3.6406,0 .8141-.3209 1.2136-1.4352 1.8203-2.1528 1.2136-.7176 2.3535-1.6455 3.6406-2.1529 1.1513-.4538 2.4894,.4539 3.6407,0 1.2871-.5073 2.3535-1.6454 3.6406-2.1528 .5756-.2269 1.2776,.3209 1.8203,0 .7675-.4538 1.0528-1.699 1.8203-2.1528 .5534-.3273 6.0242,0 7.2812,0h254.84c.6068,0 1.3912-.5075 1.8203,0 .6072,.718-.6071,3.5876 0,4.3057 .4291,.5074 1.2776-.3209 1.8203,0 .4833,.2858 5.2193,5.8871 5.4609,6.4586 .2714,.6418-.429,1.6454 0,2.1529 .4291,.5074 1.2776-.321 1.8203,0 .7675,.4538 1.2136,1.4353 1.8203,2.1529 .6067,.7176 1.4365,1.2451 1.8203,2.1528 .2714,.6418-.429,1.6454 0,2.1528 .4291,.5075 1.2776-.3209 1.8203,0 1.535,.9078 2.1056,3.398 3.6406,4.3058 .5427,.3209 1.2776-.321 1.8203,0 1.535,.9077 2.1056,3.398 3.6406,4.3057 .7218,.4269 5.0888-.4401 5.461,0 .429,.5075-.4291,1.6454 0,2.153 .429,.5074 1.3912-.5075 1.8203,0 .8581,1.0148-.8581,3.2909 0,4.3057 .4291,.5074 1.3913-.5074 1.8203,0 .8581,1.0149-.5427,3.022 0,4.3058 .3837,.9077 2.4271,1.4353 1.8203,2.1528-.6068,.7176-1.8203-3.1677-1.8203-2.1528 0,5.1981 2.2549,3.1808 3.6406,6.4586 .5427,1.2837-.5427,3.022 0,4.3057 .3838,.9078 1.4366,1.2452 1.8203,2.1528 .2714,.6419-.2714,1.511 0,2.153 1.0922,2.5835 4.3688,3.8752 5.4609,6.4586 .2713,.6419-.429,1.6455 0,2.1529 1.0879,1.2866 3.6407-2.327 3.6407,2.1528 0,.7176-1.2136,0-1.8203,0h-1.8203c-1.5412,0-6.3026,.3858-7.2813,0-.8141-.321-1.0062-1.8319-1.8203-2.1528-1.1513-.4539-2.4507,.2815-3.6406,0-3.749-.8868-5.8654-2.3921-9.1016-4.3058-1.2136-.7176-2.3244-1.7636-3.6407-2.1528-1.1773-.3481-2.4633,.3481-3.6406,0-1.3163-.3891-2.4271-1.4353-3.6406-2.1528-1.2136-.7177-2.5117-1.2628-3.6407-2.153-.714-.5629-1.0062-1.8319-1.8203-2.1528-1.6383-.6458-3.8226,.6459-5.461,0-13.185-5.1981 2.87,.6207-5.4609-4.3057-.5427-.321-1.2136,0-1.8203,0h-1.8203c-.6068,0-1.2776,.3209-1.8203,0-.7675-.4539-1.0528-1.699-1.8203-2.1528-.5427-.321-1.2776,.3209-1.8203,0-.7675-.4539-1.2136-1.4354-1.8203-2.1529-.6068-.7176-1.4365-1.2452-1.8203-2.1528-.2713-.6418 .4291-1.6455 0-2.1529-.429-.5074-1.2135,0-1.8203,0h-1.8203 3.6406-10.922c-.6068,0-1.3912-.5074-1.8203,0-3.0338,3.5882 6.6745,2.1529-3.6406,2.1529h-169.29c-.6068,0-1.2776,.321-1.8203,0-.7675-.4539-1.0528-1.699-1.8203-2.1529-1.0854-.6418-2.4893,.4539-3.6406,0-1.2872-.5074-2.3535-1.6454-3.6407-2.1529-1.1512-.4538-2.4893,.4539-3.6406,0-1.2872-.5074-2.3535-1.6454-3.6406-2.1528-.5756-.2269-1.2136,0-1.8203,0h-276.69c-.6068,0-1.3912-.5074-1.8203,0-.4291,.5074 .5427,1.832 0,2.1528-.2848,.1684-8.5927,0-9.1016,0h-58.25c-1.8203,0-3.7341-.6808-5.461,0-1.6281,.6419-2.0125,3.664-3.6406,4.3058-1.1513,.4539-2.4893-.4539-3.6406,0-.8141,.321-1.1064,1.5899-1.8203,2.1528-1.2136,.7176-2.4271,1.4353-3.6406,2.1529-.6068,0-1.2776-.321-1.8203,0-1.6134,.9541-3.8039,5.152-5.4609,6.4586-1.2135,.7177-2.4271,1.4353-3.6407,2.1528-1.2135,0-2.5552-.6418-3.6406,0-.5427,.321 .429,1.6454 0,2.153-.4291,.5074-1.3912-.5075-1.8203,0-.429,.5074 .4291,1.6454 0,2.1528-.0825,.0975-8.2433,0-9.1015,0-.6068,0-1.3913-.5074-1.8203,0-.429,.5074 .429,1.6454 0,2.1528-.429,.5074-1.2135,0-1.8203,0h-29.125c-.8198,0-4.907,.3277-5.4609,0-.7675-.4538-1.4365-1.2451-1.8203-2.1528-.2393-.5661 0-7.4857 0-8.6115 0-.9695-.277-5.8035 0-6.4586 1.388-3.2831 4.7836-2.1528 7.2813-2.1528 .6068,0 1.2776,.321 1.8203,0 .7675-.4539 1.0528-1.699 1.8203-2.1529 .5427-.3209 1.3913,.5074 1.8203,0 .4291-.5074-.2713-1.5109 0-2.1529 1.5491-3.6641 10.855-6.4268 10.922-6.4586z"/>
</g>
<g stroke-opacity=".995" stroke-linejoin="round" stroke-linecap="round" stroke-width=".722" transform="translate(-22.031 -464.46)">
<path fill="#f00" d="m22.394,657.63h384.09v20.528h-384.09z"/>
<path fill="url(#linearGradient4799)" d="m27.855,656.72 378.63-.9102v22.348h-384.09v-17.748z"/>
<path fill="url(#linearGradient4799)" d="m28.766,656.72h377.72v21.438h-377.72z"/>
<path fill="#f00" d="m-785.38-624.97h384.09v27.305h-384.09z" transform="matrix(-.99415 -.108 .108 -.99415 0 0)"/>
<path fill="url(#linearGradient4803)" d="m-785.38-624.97h384.09v27.305h-384.09z" transform="matrix(-.99415 -.108 .108 -.99415 0 0)"/>
<path fill="url(#linearGradient4805)" d="m-785.38-624.97h384.09v27.305h-384.09z" transform="matrix(-.99415 -.108 .108 -.99415 0 0)"/>
</g>
</g>
<g transform="translate(-22.031 -464.46)">
<path fill="#ff7f2a" d="m107.69,529.03c99.775-71.353 532.94-38.621 557.23,21.52 30.011,44.442 18.662,87.287-9.0077,129.5-170.85-22.69-351.42-13.85-557.22-21.52-34.019-52.73-27.438-94.98 9-129.5z"/>
<path fill="url(#radialGradient4807)" filter="url(#filter5362)" d="m-327.41,447.91c196.73-171.41 1100.2-134.93 1159.3,0 68.685,98.649 51.32,197.3 0,295.95-357.79-36.696-731.18-.6527-1159.3,0-78.192-117.2-70.632-214.06 0-295.95z" transform="matrix(.4813 0 0 .4813 256.7 304.37)"/>
<path fill="url(#radialGradient4809)" filter="url(#filter5390)" d="m-304.72,1020.6c196.73-209.42 1100.2-164.86 1159.3,0 68.685,120.53 51.32,241.05 0,361.58-357.79-44.835-731.18-.7975-1159.3,0-78.192-143.2-70.632-261.53 0-361.58z" transform="matrix(.4813 0 0 .4813 256.7 304.37)"/>
<path fill="url(#linearGradient4811)" filter="url(#filter5404)" d="m-309.05,999.77h1127.1c33.524,0 60.513,26.989 60.513,60.513v15.128c0,33.524-26.989,60.513-60.513,60.513h-1127.1c-33.524,0-60.513-26.989-60.513-60.513v-15.128c0-33.524 26.989-60.513 60.513-60.513z" transform="matrix(.4813 0 0 .4813 256.7 304.37)"/>
<path fill="url(#linearGradient4811)" filter="url(#filter5418)" d="m-309.05,818.23h1127.1c33.524,0 60.513,26.989 60.513,60.513v15.128c0,33.524-26.989,60.513-60.513,60.513h-1127.1c-33.524,0-60.513-26.989-60.513-60.513v-15.128c0-33.524 26.989-60.513 60.513-60.513z" transform="matrix(.4813 0 0 .4813 256.7 304.37)"/>
</g>
<g stroke="#000" stroke-width="1.261">
<g transform="matrix(.4813 0 0 .30248 3520.869 618.04)">
<path fill="#f00" d="m-7185.9-747.9c20.081-8.0324 12.121-7.5641 22.692-7.5641 1.2607,0 2.559,.3058 3.7821,0 3.8676-.9669 7.4786-2.8152 11.346-3.7821 2.4461-.6115 5.0427,0 7.5641,0h75.641c1.2607,0 2.8907-.8914 3.7821,0s-.8914,2.8906 0,3.7821c.8914,.8914 2.8906-.8914 3.7821,0 1.7829,1.7829-1.1276,5.309 0,7.5641 .7973,1.5947 2.5214,2.5214 3.782,3.7821 1.2607,1.2607 2.0907,3.2183 3.7821,3.7821 2.392,.7973 5.309-1.1276 7.5642,0 1.1275,.5638-.8915,2.8906 0,3.7821 .8914,.8914 2.6544-.5638 3.782,0 4.9961,2.498 2.5681,5.0661 7.5642,7.5641 1.1276,.5638 2.8906-.8914 3.782,0 .8915,.8914-.8914,2.8906 0,3.7821 .8915,.8914 2.6545-.5638 3.7821,0 1.5947,.7973 2.1874,2.9847 3.7821,3.7821 1.0079,.504 20.981,0 22.692,0h34.039c1.7033,0 10.195,.5755 11.346,0 1.5947-.7973 2.1874-2.9847 3.7821-3.7821 .9945-.4972 13.151,0 15.128,0 3.8087,0 20.601-.6972 22.692,0 1.6914,.5638 2.1874,2.9847 3.7821,3.7821 2.3771,1.1886 12.751-1.1886 15.128,0 1.5946,.7973 2.1874,2.9847 3.782,3.7821 .5166,.2583 22.176,.2583 22.692,0 3.1893-1.5947 4.3748-5.9695 7.5641-7.5641 1.0234-.5117 21.063,0 22.692,0h102.12c1.2607,0 2.8906,.8914 3.7821,0 .8914-.8914-.8915-2.8906 0-3.7821 .8914-.8914 2.5214,0 3.7821,0h132.37c3.7821,0 7.7582-1.196 11.346,0 1.6914,.5638 2.0907,3.2183 3.7821,3.7821 2.392,.7973 5.0917-.4945 7.5641,0 3.9093,.7818 7.437,3.0002 11.346,3.7821 2.4725,.4945 5.1181-.6115 7.5642,0 2.7348,.6837 4.8293,3.0984 7.5641,3.7821 2.4461,.6115 5.0917-.4945 7.5642,0 3.9092,.7818 7.4369,3.0002 11.346,3.7821 2.4724,.4945 5.0427,0 7.5641,0h37.82c2.5214,0 5.309,1.1276 7.5642,0 1.1276-.5638-.8915-2.8906 0-3.7821 .8914-.8914 2.5213,0 3.782,0 0-2.5214-1.1276-5.309 0-7.5641 .5638-1.1276 2.5214,0 3.7821,0 1.2607-1.2607 3.2183-2.0907 3.7821-3.7821 .7973-2.392-.6116-5.118 0-7.5641 4.5658-18.263 1.7973,.1874 7.5641-11.346 .5638-1.1276-.5638-2.6545 0-3.7821 .7973-1.5947 2.9847-2.1874 3.7821-3.7821 .5638-1.1276-.8915-2.8906 0-3.7821 1.7829-1.7829 5.3089,1.1276 7.5641,0 1.5947-.7973 2.1874-2.9847 3.7821-3.7821 1.151-.5755 9.6429,0 11.346,0 4.3935,0 15.482-.8572 18.91,0 2.7349,.6837 4.8899,2.8906 7.5642,3.7821 3.588,1.196 7.6771-.9173 11.346,0 6.8453-2.2796 7.034,6.1267 11.346,7.5641 2.392,.7973 5.1722-.7973 7.5642,0 1.6913,.5638 2.1874,2.9847 3.782,3.7821 1.1276,.5638 2.6545-.5638 3.7821,0 3.7217,1.8608 11.407,13.267 15.128,15.128 2.2552,1.1276 5.7812-1.7829 7.5641,0 .8915,.8914-.8914,2.8906 0,3.7821 .1216,.1216 10.429,0 11.346,0h30.256c1.2607,0 2.6545,.5638 3.7821,0 1.5946-.7973 2.1874-2.9847 3.782-3.7821 1.1276-.5638 2.5214,0 3.7821,0h3.7821c1.9777,0 14.134-.4972 15.128,0 1.5947,.7973 2.2987,2.7931 3.7821,3.7821-.7959,6.9822 8.9882,2.603 11.346,3.7821 1.5947,.7973 2.1874,2.9847 3.7821,3.7821 .9945,.4972 13.151,0 15.128,0 1.2607,0 2.8906,.8914 3.782,0 .8915-.8914-.8914-2.8906 0-3.7821 .8915-.8914 2.8907,.8914 3.7821,0 .8915-.8914-.8914-2.8906 0-3.7821 .7732-.7732 9.8467,.7498 11.346,0 1.5947-.7973 2.1874-2.9847 3.7821-3.7821 .9945-.4972 13.151,0 15.128,0 1.9777,0 14.134-.4972 15.128,0 4.3358,2.1679 5.2609,7.8913 7.5641,11.346 .989,1.4834 2.5214,2.5214 3.7821,3.7821 3.782,3.7821 7.5641,7.5641 11.346,11.346 1.2607,1.2607 2.9847,2.1874 3.7821,3.7821 .5638,1.1276-.8915,2.8906 0,3.7821 .8914,.8914 2.5213,0 3.782,0h3.7821c1.7033,0 10.195,.5755 11.346,0 1.5947-.7973 2.1874-2.9847 3.7821-3.7821 1.1276-.5638 2.8906,.8914 3.782,0 1.9934-1.9933 1.4366-6.0004 3.7821-7.5641 2.0979-1.3986 5.4662,1.3986 7.5642,0 2.3455-1.5637 1.7887-5.5708 3.782-7.5641 .8915-.8914 2.8907,.8914 3.7821,0 1.9933-1.9933 1.7887-5.5708 3.7821-7.5641 .8914-.8914 2.6544,.5638 3.782,0 1.5947-.7973 2.1874-2.9847 3.7821-3.7821 1.151-.5755 9.6429,0 11.346,0 4.3935,0 15.482-.8572 18.91,0 24.692,6.1729-14.289,2.0309 18.91,7.5641 3.7306,.6218 7.6376-.7417 11.346,0 2.7643,.5529 4.8294,3.0984 7.5642,3.7821 2.4461,.6115 5.118-.6115 7.5641,0 2.7348,.6837 4.8293,3.0984 7.5642,3.7821 3.9178,.9795 10.792,0 15.128,0h45.384c1.2607,0 2.8906,.8914 3.782,0 .8915-.8914-.8914-2.8906 0-3.7821 .8915-.8914 2.8907,.8914 3.7821,0 .8915-.8914 0-2.5214 0-3.7821v-3.7821c0-2.6306 .6839-17.543 0-18.91-.7973-1.5947-2.9847-2.1874-3.7821-3.7821-.5638-1.1276 .8915-2.8906 0-3.7821-1.9933-1.9933-5.5708-1.7888-7.5641-3.7821-.8914-.8914 .8914-2.8906 0-3.7821-.1714-.1714-17.127,0-18.91,0-1.9778,0-14.134-.4972-15.128,0-3.1893,1.5947-4.3748,5.9695-7.5642,7.5641-1.1276,.5638-2.8906-.8914-3.782,0-.8915,.8914 .8914,2.8906 0,3.7821-.8915,.8914-2.8907-.8914-3.7821,0s.5638,2.6545 0,3.7821c-4.1812,8.3624-2.3473,1.1737-7.5641,3.7821-1.5947,.7973-2.1875,2.9847-3.7821,3.7821-1.1276,.5638-2.5214,0-3.7821,0h-11.346c-1.2607,0-2.5861,.3987-3.7821,0-27.395-9.1317 5.9629,1.0904-11.346-7.5641-3.5657-1.7829-7.7804-1.9992-11.346-3.7821-5.026-2.513-2.5381-5.0511-7.5641-7.5641-1.1276-.5638-2.6545,.5638-3.7821,0-1.5947-.7973-2.2986-2.7931-3.7821-3.7821-19.106-12.738-.088-.0292-11.346-3.7821-2.6743-.8914-4.8293-3.0984-7.5641-3.7821-2.4461-.6115-5.0428,0-7.5642,0h-22.692c-1.2607,0-2.8906-.8914-3.7821,0-.8914,.8914 .8915,2.8906 0,3.7821-.8914,.8914-2.5213,0-3.782,0h-94.551c-1.2607,0-2.6545,.5638-3.7821,0-1.5946-.7973-2.1874-2.9847-3.782-3.7821-.9779-.4889-20.012,0-22.692,0-1.9778,0-14.134-.4972-15.128,0-1.5947,.7973-2.1874,2.9847-3.7821,3.7821-1.151,.5755-9.6429,0-11.346,0h-7.5641c-2.5214,0-5.1181,.6115-7.5642,0-5.4696-1.3674-9.7796-5.7813-15.128-7.5641-4.9312-1.6437-10.197-2.1383-15.128-3.7821-2.6744-.8914-5.2186-2.2184-7.5642-3.7821-1.4834-.989-2.0907-3.2183-3.7821-3.7821-2.3919-.7973-5.1721,.7973-7.5641,0-1.6914-.5638-2.5214-2.5214-3.7821-3.7821-2.5213-1.2607-4.8898-2.8906-7.5641-3.7821-2.3804-.7935-15.501,0-18.91,0h-34.038c-1.2607,0-2.5861-.3987-3.7821,0-2.6743,.8914-4.8293,3.0984-7.5641,3.7821-3.6691,.9173-7.7582-1.196-11.346,0-2.6743,.8914-5.0428,2.5214-7.5642,3.7821-2.5213,1.2607-5.2186,2.2184-7.5641,3.7821-1.4834,.989-2.1874,2.9847-3.7821,3.7821-2.3771,1.1886-12.751-1.1886-15.128,0-1.5947,.7973-2.0907,3.2183-3.7821,3.7821-17.217,0-.2163-1.7829-11.346,3.7821-1.1276,.5638-2.5214,0-3.7821,0h-52.948c-1.7033,0-10.195-.5755-11.346,0-1.5946,.7973-2.0907,3.2183-3.7821,3.7821-2.392,.7973-5.0427,0-7.5641,0-1.2607,0-2.6545-.5638-3.7821,0-3.1893,1.5947-4.3748,5.9695-7.5641,7.5641-9.3151,4.6575 3.4142-10.978-11.346,3.7821-.8915,.8914 .8914,2.8906 0,3.7821-.1522,.1522-13.739,0-15.128,0h-26.474c-5.0428,0-10.154,.829-15.128,0-5.5612-.9269-9.6586-6.1967-15.128-7.5641-2.4461-.6115-5.0917,.4945-7.5641,0-3.9092-.7818-7.4786-2.8152-11.346-3.7821-7.5641-1.891 0,3.7821-11.346,0-1.6914-.5638-2.0907-3.2183-3.7821-3.7821-1.936-.6453-19.989,0-22.692,0h-71.859c-.8988,0-14.281,.4238-15.128,0-1.5947-.7973-2.1874-2.9847-3.7821-3.7821-2.3771-1.1886-12.751,1.1886-15.128,0-1.5946-.7973-2.0907-3.2183-3.782-3.7821-2.392-.7973-5.0428,0-7.5642,0-1.2607,0-2.6545,.5638-3.7821,0-1.5946-.7973-2.0906-3.2183-3.782-3.7821-3.588-1.196-7.5642,0-11.346,0h-49.166c-1.2607,0-2.8907-.8914-3.7821,0-.8915,.8914 .8914,2.8906 0,3.7821-.8915,.8914-2.5214,0-3.7821,0h-147.5c-1.2607,0-2.6545,.5638-3.7821,0-1.5947-.7973-2.1874-2.9847-3.7821-3.7821-1.1276-.5638-2.8906,.8914-3.782,0-.8915-.8914 .8914-2.8906 0-3.7821-1.7829-1.7829-5.309,1.1276-7.5642,0-1.5946-.7973-2.1874-2.9847-3.782-3.7821-1.1276-.5638-2.8907,.8914-3.7821,0-.8915-.8914 1.1276-3.2183 0-3.7821-2.2552-1.1276-5.0428,0-7.5642,0h-52.948c-1.9778,0-14.134-.4972-15.128,0-1.5947,.7973-2.1874,2.9847-3.7821,3.7821-2.2552,1.1276-5.7812-1.7829-7.5641,0-.8915,.8914 .8914,2.8906 0,3.7821-1.8911,1.891-9.4552-1.891-11.346,0-.8915,.8914 .8914,2.8906 0,3.7821-.8915,.8914-2.6545-.5638-3.7821,0-1.5947,.7973-2.1874,2.9847-3.7821,3.7821-1.1276,.5638-2.8906-.8914-3.7821,0-.8914,.8914-.3986,2.5861 0,3.7821 2.1469,6.4406 5.0428,12.607 7.5642,18.91z"/>
<path fill="url(#linearGradient4815)" d="m-7185.9-747.9c20.081-8.0324 12.121-7.5641 22.692-7.5641 1.2607,0 2.559,.3058 3.7821,0 3.8676-.9669 7.4786-2.8152 11.346-3.7821 2.4461-.6115 5.0427,0 7.5641,0h75.641c1.2607,0 2.8907-.8914 3.7821,0s-.8914,2.8906 0,3.7821c.8914,.8914 2.8906-.8914 3.7821,0 1.7829,1.7829-1.1276,5.309 0,7.5641 .7973,1.5947 2.5214,2.5214 3.782,3.7821 1.2607,1.2607 2.0907,3.2183 3.7821,3.7821 2.392,.7973 5.309-1.1276 7.5642,0 1.1275,.5638-.8915,2.8906 0,3.7821 .8914,.8914 2.6544-.5638 3.782,0 4.9961,2.498 2.5681,5.0661 7.5642,7.5641 1.1276,.5638 2.8906-.8914 3.782,0 .8915,.8914-.8914,2.8906 0,3.7821 .8915,.8914 2.6545-.5638 3.7821,0 1.5947,.7973 2.1874,2.9847 3.7821,3.7821 1.0079,.504 20.981,0 22.692,0h34.039c1.7033,0 10.195,.5755 11.346,0 1.5947-.7973 2.1874-2.9847 3.7821-3.7821 .9945-.4972 13.151,0 15.128,0 3.8087,0 20.601-.6972 22.692,0 1.6914,.5638 2.1874,2.9847 3.7821,3.7821 2.3771,1.1886 12.751-1.1886 15.128,0 1.5946,.7973 2.1874,2.9847 3.782,3.7821 .5166,.2583 22.176,.2583 22.692,0 3.1893-1.5947 4.3748-5.9695 7.5641-7.5641 1.0234-.5117 21.063,0 22.692,0h102.12c1.2607,0 2.8906,.8914 3.7821,0 .8914-.8914-.8915-2.8906 0-3.7821 .8914-.8914 2.5214,0 3.7821,0h132.37c3.7821,0 7.7582-1.196 11.346,0 1.6914,.5638 2.0907,3.2183 3.7821,3.7821 2.392,.7973 5.0917-.4945 7.5641,0 3.9093,.7818 7.437,3.0002 11.346,3.7821 2.4725,.4945 5.1181-.6115 7.5642,0 2.7348,.6837 4.8293,3.0984 7.5641,3.7821 2.4461,.6115 5.0917-.4945 7.5642,0 3.9092,.7818 7.4369,3.0002 11.346,3.7821 2.4724,.4945 5.0427,0 7.5641,0h37.82c2.5214,0 5.309,1.1276 7.5642,0 1.1276-.5638-.8915-2.8906 0-3.7821 .8914-.8914 2.5213,0 3.782,0 0-2.5214-1.1276-5.309 0-7.5641 .5638-1.1276 2.5214,0 3.7821,0 1.2607-1.2607 3.2183-2.0907 3.7821-3.7821 .7973-2.392-.6116-5.118 0-7.5641 4.5658-18.263 1.7973,.1874 7.5641-11.346 .5638-1.1276-.5638-2.6545 0-3.7821 .7973-1.5947 2.9847-2.1874 3.7821-3.7821 .5638-1.1276-.8915-2.8906 0-3.7821 1.7829-1.7829 5.3089,1.1276 7.5641,0 1.5947-.7973 2.1874-2.9847 3.7821-3.7821 1.151-.5755 9.6429,0 11.346,0 4.3935,0 15.482-.8572 18.91,0 2.7349,.6837 4.8899,2.8906 7.5642,3.7821 3.588,1.196 7.6771-.9173 11.346,0 6.8453-2.2796 7.034,6.1267 11.346,7.5641 2.392,.7973 5.1722-.7973 7.5642,0 1.6913,.5638 2.1874,2.9847 3.782,3.7821 1.1276,.5638 2.6545-.5638 3.7821,0 3.7217,1.8608 11.407,13.267 15.128,15.128 2.2552,1.1276 5.7812-1.7829 7.5641,0 .8915,.8914-.8914,2.8906 0,3.7821 .1216,.1216 10.429,0 11.346,0h30.256c1.2607,0 2.6545,.5638 3.7821,0 1.5946-.7973 2.1874-2.9847 3.782-3.7821 1.1276-.5638 2.5214,0 3.7821,0h3.7821c1.9777,0 14.134-.4972 15.128,0 1.5947,.7973 2.2987,2.7931 3.7821,3.7821-.7959,6.9822 8.9882,2.603 11.346,3.7821 1.5947,.7973 2.1874,2.9847 3.7821,3.7821 .9945,.4972 13.151,0 15.128,0 1.2607,0 2.8906,.8914 3.782,0 .8915-.8914-.8914-2.8906 0-3.7821 .8915-.8914 2.8907,.8914 3.7821,0 .8915-.8914-.8914-2.8906 0-3.7821 .7732-.7732 9.8467,.7498 11.346,0 1.5947-.7973 2.1874-2.9847 3.7821-3.7821 .9945-.4972 13.151,0 15.128,0 1.9777,0 14.134-.4972 15.128,0 4.3358,2.1679 5.2609,7.8913 7.5641,11.346 .989,1.4834 2.5214,2.5214 3.7821,3.7821 3.782,3.7821 7.5641,7.5641 11.346,11.346 1.2607,1.2607 2.9847,2.1874 3.7821,3.7821 .5638,1.1276-.8915,2.8906 0,3.7821 .8914,.8914 2.5213,0 3.782,0h3.7821c1.7033,0 10.195,.5755 11.346,0 1.5947-.7973 2.1874-2.9847 3.7821-3.7821 1.1276-.5638 2.8906,.8914 3.782,0 1.9934-1.9933 1.4366-6.0004 3.7821-7.5641 2.0979-1.3986 5.4662,1.3986 7.5642,0 2.3455-1.5637 1.7887-5.5708 3.782-7.5641 .8915-.8914 2.8907,.8914 3.7821,0 1.9933-1.9933 1.7887-5.5708 3.7821-7.5641 .8914-.8914 2.6544,.5638 3.782,0 1.5947-.7973 2.1874-2.9847 3.7821-3.7821 1.151-.5755 9.6429,0 11.346,0 4.3935,0 15.482-.8572 18.91,0 24.692,6.1729-14.289,2.0309 18.91,7.5641 3.7306,.6218 7.6376-.7417 11.346,0 2.7643,.5529 4.8294,3.0984 7.5642,3.7821 2.4461,.6115 5.118-.6115 7.5641,0 2.7348,.6837 4.8293,3.0984 7.5642,3.7821 3.9178,.9795 10.792,0 15.128,0h45.384c1.2607,0 2.8906,.8914 3.782,0 .8915-.8914-.8914-2.8906 0-3.7821 .8915-.8914 2.8907,.8914 3.7821,0 .8915-.8914 0-2.5214 0-3.7821v-3.7821c0-2.6306 .6839-17.543 0-18.91-.7973-1.5947-2.9847-2.1874-3.7821-3.7821-.5638-1.1276 .8915-2.8906 0-3.7821-1.9933-1.9933-5.5708-1.7888-7.5641-3.7821-.8914-.8914 .8914-2.8906 0-3.7821-.1714-.1714-17.127,0-18.91,0-1.9778,0-14.134-.4972-15.128,0-3.1893,1.5947-4.3748,5.9695-7.5642,7.5641-1.1276,.5638-2.8906-.8914-3.782,0-.8915,.8914 .8914,2.8906 0,3.7821-.8915,.8914-2.8907-.8914-3.7821,0s.5638,2.6545 0,3.7821c-4.1812,8.3624-2.3473,1.1737-7.5641,3.7821-1.5947,.7973-2.1875,2.9847-3.7821,3.7821-1.1276,.5638-2.5214,0-3.7821,0h-11.346c-1.2607,0-2.5861,.3987-3.7821,0-27.395-9.1317 5.9629,1.0904-11.346-7.5641-3.5657-1.7829-7.7804-1.9992-11.346-3.7821-5.026-2.513-2.5381-5.0511-7.5641-7.5641-1.1276-.5638-2.6545,.5638-3.7821,0-1.5947-.7973-2.2986-2.7931-3.7821-3.7821-19.106-12.738-.088-.0292-11.346-3.7821-2.6743-.8914-4.8293-3.0984-7.5641-3.7821-2.4461-.6115-5.0428,0-7.5642,0h-22.692c-1.2607,0-2.8906-.8914-3.7821,0-.8914,.8914 .8915,2.8906 0,3.7821-.8914,.8914-2.5213,0-3.782,0h-94.551c-1.2607,0-2.6545,.5638-3.7821,0-1.5946-.7973-2.1874-2.9847-3.782-3.7821-.9779-.4889-20.012,0-22.692,0-1.9778,0-14.134-.4972-15.128,0-1.5947,.7973-2.1874,2.9847-3.7821,3.7821-1.151,.5755-9.6429,0-11.346,0h-7.5641c-2.5214,0-5.1181,.6115-7.5642,0-5.4696-1.3674-9.7796-5.7813-15.128-7.5641-4.9312-1.6437-10.197-2.1383-15.128-3.7821-2.6744-.8914-5.2186-2.2184-7.5642-3.7821-1.4834-.989-2.0907-3.2183-3.7821-3.7821-2.3919-.7973-5.1721,.7973-7.5641,0-1.6914-.5638-2.5214-2.5214-3.7821-3.7821-2.5213-1.2607-4.8898-2.8906-7.5641-3.7821-2.3804-.7935-15.501,0-18.91,0h-34.038c-1.2607,0-2.5861-.3987-3.7821,0-2.6743,.8914-4.8293,3.0984-7.5641,3.7821-3.6691,.9173-7.7582-1.196-11.346,0-2.6743,.8914-5.0428,2.5214-7.5642,3.7821-2.5213,1.2607-5.2186,2.2184-7.5641,3.7821-1.4834,.989-2.1874,2.9847-3.7821,3.7821-2.3771,1.1886-12.751-1.1886-15.128,0-1.5947,.7973-2.0907,3.2183-3.7821,3.7821-17.217,0-.2163-1.7829-11.346,3.7821-1.1276,.5638-2.5214,0-3.7821,0h-52.948c-1.7033,0-10.195-.5755-11.346,0-1.5946,.7973-2.0907,3.2183-3.7821,3.7821-2.392,.7973-5.0427,0-7.5641,0-1.2607,0-2.6545-.5638-3.7821,0-3.1893,1.5947-4.3748,5.9695-7.5641,7.5641-9.3151,4.6575 3.4142-10.978-11.346,3.7821-.8915,.8914 .8914,2.8906 0,3.7821-.1522,.1522-13.739,0-15.128,0h-26.474c-5.0428,0-10.154,.829-15.128,0-5.5612-.9269-9.6586-6.1967-15.128-7.5641-2.4461-.6115-5.0917,.4945-7.5641,0-3.9092-.7818-7.4786-2.8152-11.346-3.7821-7.5641-1.891 0,3.7821-11.346,0-1.6914-.5638-2.0907-3.2183-3.7821-3.7821-1.936-.6453-19.989,0-22.692,0h-71.859c-.8988,0-14.281,.4238-15.128,0-1.5947-.7973-2.1874-2.9847-3.7821-3.7821-2.3771-1.1886-12.751,1.1886-15.128,0-1.5946-.7973-2.0907-3.2183-3.782-3.7821-2.392-.7973-5.0428,0-7.5642,0-1.2607,0-2.6545,.5638-3.7821,0-1.5946-.7973-2.0906-3.2183-3.782-3.7821-3.588-1.196-7.5642,0-11.346,0h-49.166c-1.2607,0-2.8907-.8914-3.7821,0-.8915,.8914 .8914,2.8906 0,3.7821-.8915,.8914-2.5214,0-3.7821,0h-147.5c-1.2607,0-2.6545,.5638-3.7821,0-1.5947-.7973-2.1874-2.9847-3.7821-3.7821-1.1276-.5638-2.8906,.8914-3.782,0-.8915-.8914 .8914-2.8906 0-3.7821-1.7829-1.7829-5.309,1.1276-7.5642,0-1.5946-.7973-2.1874-2.9847-3.782-3.7821-1.1276-.5638-2.8907,.8914-3.7821,0-.8915-.8914 1.1276-3.2183 0-3.7821-2.2552-1.1276-5.0428,0-7.5642,0h-52.948c-1.9778,0-14.134-.4972-15.128,0-1.5947,.7973-2.1874,2.9847-3.7821,3.7821-2.2552,1.1276-5.7812-1.7829-7.5641,0-.8915,.8914 .8914,2.8906 0,3.7821-1.8911,1.891-9.4552-1.891-11.346,0-.8915,.8914 .8914,2.8906 0,3.7821-.8915,.8914-2.6545-.5638-3.7821,0-1.5947,.7973-2.1874,2.9847-3.7821,3.7821-1.1276,.5638-2.8906-.8914-3.7821,0-.8914,.8914-.3986,2.5861 0,3.7821 2.1469,6.4406 5.0428,12.607 7.5642,18.91z"/>
</g>
<g transform="matrix(.4813 0 0 .30248 3522.669 462.37)">
<path fill="#f00" d="m-7185.9-747.9c20.081-8.0324 12.121-7.5641 22.692-7.5641 1.2607,0 2.559,.3058 3.7821,0 3.8676-.9669 7.4786-2.8152 11.346-3.7821 2.4461-.6115 5.0427,0 7.5641,0h75.641c1.2607,0 2.8907-.8914 3.7821,0s-.8914,2.8906 0,3.7821c.8914,.8914 2.8906-.8914 3.7821,0 1.7829,1.7829-1.1276,5.309 0,7.5641 .7973,1.5947 2.5214,2.5214 3.782,3.7821 1.2607,1.2607 2.0907,3.2183 3.7821,3.7821 2.392,.7973 5.309-1.1276 7.5642,0 1.1275,.5638-.8915,2.8906 0,3.7821 .8914,.8914 2.6544-.5638 3.782,0 4.9961,2.498 2.5681,5.0661 7.5642,7.5641 1.1276,.5638 2.8906-.8914 3.782,0 .8915,.8914-.8914,2.8906 0,3.7821 .8915,.8914 2.6545-.5638 3.7821,0 1.5947,.7973 2.1874,2.9847 3.7821,3.7821 1.0079,.504 20.981,0 22.692,0h34.039c1.7033,0 10.195,.5755 11.346,0 1.5947-.7973 2.1874-2.9847 3.7821-3.7821 .9945-.4972 13.151,0 15.128,0 3.8087,0 20.601-.6972 22.692,0 1.6914,.5638 2.1874,2.9847 3.7821,3.7821 2.3771,1.1886 12.751-1.1886 15.128,0 1.5946,.7973 2.1874,2.9847 3.782,3.7821 .5166,.2583 22.176,.2583 22.692,0 3.1893-1.5947 4.3748-5.9695 7.5641-7.5641 1.0234-.5117 21.063,0 22.692,0h102.12c1.2607,0 2.8906,.8914 3.7821,0 .8914-.8914-.8915-2.8906 0-3.7821 .8914-.8914 2.5214,0 3.7821,0h132.37c3.7821,0 7.7582-1.196 11.346,0 1.6914,.5638 2.0907,3.2183 3.7821,3.7821 2.392,.7973 5.0917-.4945 7.5641,0 3.9093,.7818 7.437,3.0002 11.346,3.7821 2.4725,.4945 5.1181-.6115 7.5642,0 2.7348,.6837 4.8293,3.0984 7.5641,3.7821 2.4461,.6115 5.0917-.4945 7.5642,0 3.9092,.7818 7.4369,3.0002 11.346,3.7821 2.4724,.4945 5.0427,0 7.5641,0h37.82c2.5214,0 5.309,1.1276 7.5642,0 1.1276-.5638-.8915-2.8906 0-3.7821 .8914-.8914 2.5213,0 3.782,0 0-2.5214-1.1276-5.309 0-7.5641 .5638-1.1276 2.5214,0 3.7821,0 1.2607-1.2607 3.2183-2.0907 3.7821-3.7821 .7973-2.392-.6116-5.118 0-7.5641 4.5658-18.263 1.7973,.1874 7.5641-11.346 .5638-1.1276-.5638-2.6545 0-3.7821 .7973-1.5947 2.9847-2.1874 3.7821-3.7821 .5638-1.1276-.8915-2.8906 0-3.7821 1.7829-1.7829 5.3089,1.1276 7.5641,0 1.5947-.7973 2.1874-2.9847 3.7821-3.7821 1.151-.5755 9.6429,0 11.346,0 4.3935,0 15.482-.8572 18.91,0 2.7349,.6837 4.8899,2.8906 7.5642,3.7821 3.588,1.196 7.6771-.9173 11.346,0 6.8453-2.2796 7.034,6.1267 11.346,7.5641 2.392,.7973 5.1722-.7973 7.5642,0 1.6913,.5638 2.1874,2.9847 3.782,3.7821 1.1276,.5638 2.6545-.5638 3.7821,0 3.7217,1.8608 11.407,13.267 15.128,15.128 2.2552,1.1276 5.7812-1.7829 7.5641,0 .8915,.8914-.8914,2.8906 0,3.7821 .1216,.1216 10.429,0 11.346,0h30.256c1.2607,0 2.6545,.5638 3.7821,0 1.5946-.7973 2.1874-2.9847 3.782-3.7821 1.1276-.5638 2.5214,0 3.7821,0h3.7821c1.9777,0 14.134-.4972 15.128,0 1.5947,.7973 2.2987,2.7931 3.7821,3.7821-.7959,6.9822 8.9882,2.603 11.346,3.7821 1.5947,.7973 2.1874,2.9847 3.7821,3.7821 .9945,.4972 13.151,0 15.128,0 1.2607,0 2.8906,.8914 3.782,0 .8915-.8914-.8914-2.8906 0-3.7821 .8915-.8914 2.8907,.8914 3.7821,0 .8915-.8914-.8914-2.8906 0-3.7821 .7732-.7732 9.8467,.7498 11.346,0 1.5947-.7973 2.1874-2.9847 3.7821-3.7821 .9945-.4972 13.151,0 15.128,0 1.9777,0 14.134-.4972 15.128,0 4.3358,2.1679 5.2609,7.8913 7.5641,11.346 .989,1.4834 2.5214,2.5214 3.7821,3.7821 3.782,3.7821 7.5641,7.5641 11.346,11.346 1.2607,1.2607 2.9847,2.1874 3.7821,3.7821 .5638,1.1276-.8915,2.8906 0,3.7821 .8914,.8914 2.5213,0 3.782,0h3.7821c1.7033,0 10.195,.5755 11.346,0 1.5947-.7973 2.1874-2.9847 3.7821-3.7821 1.1276-.5638 2.8906,.8914 3.782,0 1.9934-1.9933 1.4366-6.0004 3.7821-7.5641 2.0979-1.3986 5.4662,1.3986 7.5642,0 2.3455-1.5637 1.7887-5.5708 3.782-7.5641 .8915-.8914 2.8907,.8914 3.7821,0 1.9933-1.9933 1.7887-5.5708 3.7821-7.5641 .8914-.8914 2.6544,.5638 3.782,0 1.5947-.7973 2.1874-2.9847 3.7821-3.7821 1.151-.5755 9.6429,0 11.346,0 4.3935,0 15.482-.8572 18.91,0 24.692,6.1729-14.289,2.0309 18.91,7.5641 3.7306,.6218 7.6376-.7417 11.346,0 2.7643,.5529 4.8294,3.0984 7.5642,3.7821 2.4461,.6115 5.118-.6115 7.5641,0 2.7348,.6837 4.8293,3.0984 7.5642,3.7821 3.9178,.9795 10.792,0 15.128,0h45.384c1.2607,0 2.8906,.8914 3.782,0 .8915-.8914-.8914-2.8906 0-3.7821 .8915-.8914 2.8907,.8914 3.7821,0 .8915-.8914 0-2.5214 0-3.7821v-3.7821c0-2.6306 .6839-17.543 0-18.91-.7973-1.5947-2.9847-2.1874-3.7821-3.7821-.5638-1.1276 .8915-2.8906 0-3.7821-1.9933-1.9933-5.5708-1.7888-7.5641-3.7821-.8914-.8914 .8914-2.8906 0-3.7821-.1714-.1714-17.127,0-18.91,0-1.9778,0-14.134-.4972-15.128,0-3.1893,1.5947-4.3748,5.9695-7.5642,7.5641-1.1276,.5638-2.8906-.8914-3.782,0-.8915,.8914 .8914,2.8906 0,3.7821-.8915,.8914-2.8907-.8914-3.7821,0s.5638,2.6545 0,3.7821c-4.1812,8.3624-2.3473,1.1737-7.5641,3.7821-1.5947,.7973-2.1875,2.9847-3.7821,3.7821-1.1276,.5638-2.5214,0-3.7821,0h-11.346c-1.2607,0-2.5861,.3987-3.7821,0-27.395-9.1317 5.9629,1.0904-11.346-7.5641-3.5657-1.7829-7.7804-1.9992-11.346-3.7821-5.026-2.513-2.5381-5.0511-7.5641-7.5641-1.1276-.5638-2.6545,.5638-3.7821,0-1.5947-.7973-2.2986-2.7931-3.7821-3.7821-19.106-12.738-.088-.0292-11.346-3.7821-2.6743-.8914-4.8293-3.0984-7.5641-3.7821-2.4461-.6115-5.0428,0-7.5642,0h-22.692c-1.2607,0-2.8906-.8914-3.7821,0-.8914,.8914 .8915,2.8906 0,3.7821-.8914,.8914-2.5213,0-3.782,0h-94.551c-1.2607,0-2.6545,.5638-3.7821,0-1.5946-.7973-2.1874-2.9847-3.782-3.7821-.9779-.4889-20.012,0-22.692,0-1.9778,0-14.134-.4972-15.128,0-1.5947,.7973-2.1874,2.9847-3.7821,3.7821-1.151,.5755-9.6429,0-11.346,0h-7.5641c-2.5214,0-5.1181,.6115-7.5642,0-5.4696-1.3674-9.7796-5.7813-15.128-7.5641-4.9312-1.6437-10.197-2.1383-15.128-3.7821-2.6744-.8914-5.2186-2.2184-7.5642-3.7821-1.4834-.989-2.0907-3.2183-3.7821-3.7821-2.3919-.7973-5.1721,.7973-7.5641,0-1.6914-.5638-2.5214-2.5214-3.7821-3.7821-2.5213-1.2607-4.8898-2.8906-7.5641-3.7821-2.3804-.7935-15.501,0-18.91,0h-34.038c-1.2607,0-2.5861-.3987-3.7821,0-2.6743,.8914-4.8293,3.0984-7.5641,3.7821-3.6691,.9173-7.7582-1.196-11.346,0-2.6743,.8914-5.0428,2.5214-7.5642,3.7821-2.5213,1.2607-5.2186,2.2184-7.5641,3.7821-1.4834,.989-2.1874,2.9847-3.7821,3.7821-2.3771,1.1886-12.751-1.1886-15.128,0-1.5947,.7973-2.0907,3.2183-3.7821,3.7821-17.217,0-.2163-1.7829-11.346,3.7821-1.1276,.5638-2.5214,0-3.7821,0h-52.948c-1.7033,0-10.195-.5755-11.346,0-1.5946,.7973-2.0907,3.2183-3.7821,3.7821-2.392,.7973-5.0427,0-7.5641,0-1.2607,0-2.6545-.5638-3.7821,0-3.1893,1.5947-4.3748,5.9695-7.5641,7.5641-9.3151,4.6575 3.4142-10.978-11.346,3.7821-.8915,.8914 .8914,2.8906 0,3.7821-.1522,.1522-13.739,0-15.128,0h-26.474c-5.0428,0-10.154,.829-15.128,0-5.5612-.9269-9.6586-6.1967-15.128-7.5641-2.4461-.6115-5.0917,.4945-7.5641,0-3.9092-.7818-7.4786-2.8152-11.346-3.7821-7.5641-1.891 0,3.7821-11.346,0-1.6914-.5638-2.0907-3.2183-3.7821-3.7821-1.936-.6453-19.989,0-22.692,0h-71.859c-.8988,0-14.281,.4238-15.128,0-1.5947-.7973-2.1874-2.9847-3.7821-3.7821-2.3771-1.1886-12.751,1.1886-15.128,0-1.5946-.7973-2.0907-3.2183-3.782-3.7821-2.392-.7973-5.0428,0-7.5642,0-1.2607,0-2.6545,.5638-3.7821,0-1.5946-.7973-2.0906-3.2183-3.782-3.7821-3.588-1.196-7.5642,0-11.346,0h-49.166c-1.2607,0-2.8907-.8914-3.7821,0-.8915,.8914 .8914,2.8906 0,3.7821-.8915,.8914-2.5214,0-3.7821,0h-147.5c-1.2607,0-2.6545,.5638-3.7821,0-1.5947-.7973-2.1874-2.9847-3.7821-3.7821-1.1276-.5638-2.8906,.8914-3.782,0-.8915-.8914 .8914-2.8906 0-3.7821-1.7829-1.7829-5.309,1.1276-7.5642,0-1.5946-.7973-2.1874-2.9847-3.782-3.7821-1.1276-.5638-2.8907,.8914-3.7821,0-.8915-.8914 1.1276-3.2183 0-3.7821-2.2552-1.1276-5.0428,0-7.5642,0h-52.948c-1.9778,0-14.134-.4972-15.128,0-1.5947,.7973-2.1874,2.9847-3.7821,3.7821-2.2552,1.1276-5.7812-1.7829-7.5641,0-.8915,.8914 .8914,2.8906 0,3.7821-1.8911,1.891-9.4552-1.891-11.346,0-.8915,.8914 .8914,2.8906 0,3.7821-.8915,.8914-2.6545-.5638-3.7821,0-1.5947,.7973-2.1874,2.9847-3.7821,3.7821-1.1276,.5638-2.8906-.8914-3.7821,0-.8914,.8914-.3986,2.5861 0,3.7821 2.1469,6.4406 5.0428,12.607 7.5642,18.91z"/>
<path fill="url(#linearGradient4817)" d="m-7185.9-747.9c20.081-8.0324 12.121-7.5641 22.692-7.5641 1.2607,0 2.559,.3058 3.7821,0 3.8676-.9669 7.4786-2.8152 11.346-3.7821 2.4461-.6115 5.0427,0 7.5641,0h75.641c1.2607,0 2.8907-.8914 3.7821,0s-.8914,2.8906 0,3.7821c.8914,.8914 2.8906-.8914 3.7821,0 1.7829,1.7829-1.1276,5.309 0,7.5641 .7973,1.5947 2.5214,2.5214 3.782,3.7821 1.2607,1.2607 2.0907,3.2183 3.7821,3.7821 2.392,.7973 5.309-1.1276 7.5642,0 1.1275,.5638-.8915,2.8906 0,3.7821 .8914,.8914 2.6544-.5638 3.782,0 4.9961,2.498 2.5681,5.0661 7.5642,7.5641 1.1276,.5638 2.8906-.8914 3.782,0 .8915,.8914-.8914,2.8906 0,3.7821 .8915,.8914 2.6545-.5638 3.7821,0 1.5947,.7973 2.1874,2.9847 3.7821,3.7821 1.0079,.504 20.981,0 22.692,0h34.039c1.7033,0 10.195,.5755 11.346,0 1.5947-.7973 2.1874-2.9847 3.7821-3.7821 .9945-.4972 13.151,0 15.128,0 3.8087,0 20.601-.6972 22.692,0 1.6914,.5638 2.1874,2.9847 3.7821,3.7821 2.3771,1.1886 12.751-1.1886 15.128,0 1.5946,.7973 2.1874,2.9847 3.782,3.7821 .5166,.2583 22.176,.2583 22.692,0 3.1893-1.5947 4.3748-5.9695 7.5641-7.5641 1.0234-.5117 21.063,0 22.692,0h102.12c1.2607,0 2.8906,.8914 3.7821,0 .8914-.8914-.8915-2.8906 0-3.7821 .8914-.8914 2.5214,0 3.7821,0h132.37c3.7821,0 7.7582-1.196 11.346,0 1.6914,.5638 2.0907,3.2183 3.7821,3.7821 2.392,.7973 5.0917-.4945 7.5641,0 3.9093,.7818 7.437,3.0002 11.346,3.7821 2.4725,.4945 5.1181-.6115 7.5642,0 2.7348,.6837 4.8293,3.0984 7.5641,3.7821 2.4461,.6115 5.0917-.4945 7.5642,0 3.9092,.7818 7.4369,3.0002 11.346,3.7821 2.4724,.4945 5.0427,0 7.5641,0h37.82c2.5214,0 5.309,1.1276 7.5642,0 1.1276-.5638-.8915-2.8906 0-3.7821 .8914-.8914 2.5213,0 3.782,0 0-2.5214-1.1276-5.309 0-7.5641 .5638-1.1276 2.5214,0 3.7821,0 1.2607-1.2607 3.2183-2.0907 3.7821-3.7821 .7973-2.392-.6116-5.118 0-7.5641 4.5658-18.263 1.7973,.1874 7.5641-11.346 .5638-1.1276-.5638-2.6545 0-3.7821 .7973-1.5947 2.9847-2.1874 3.7821-3.7821 .5638-1.1276-.8915-2.8906 0-3.7821 1.7829-1.7829 5.3089,1.1276 7.5641,0 1.5947-.7973 2.1874-2.9847 3.7821-3.7821 1.151-.5755 9.6429,0 11.346,0 4.3935,0 15.482-.8572 18.91,0 2.7349,.6837 4.8899,2.8906 7.5642,3.7821 3.588,1.196 7.6771-.9173 11.346,0 6.8453-2.2796 7.034,6.1267 11.346,7.5641 2.392,.7973 5.1722-.7973 7.5642,0 1.6913,.5638 2.1874,2.9847 3.782,3.7821 1.1276,.5638 2.6545-.5638 3.7821,0 3.7217,1.8608 11.407,13.267 15.128,15.128 2.2552,1.1276 5.7812-1.7829 7.5641,0 .8915,.8914-.8914,2.8906 0,3.7821 .1216,.1216 10.429,0 11.346,0h30.256c1.2607,0 2.6545,.5638 3.7821,0 1.5946-.7973 2.1874-2.9847 3.782-3.7821 1.1276-.5638 2.5214,0 3.7821,0h3.7821c1.9777,0 14.134-.4972 15.128,0 1.5947,.7973 2.2987,2.7931 3.7821,3.7821-.7959,6.9822 8.9882,2.603 11.346,3.7821 1.5947,.7973 2.1874,2.9847 3.7821,3.7821 .9945,.4972 13.151,0 15.128,0 1.2607,0 2.8906,.8914 3.782,0 .8915-.8914-.8914-2.8906 0-3.7821 .8915-.8914 2.8907,.8914 3.7821,0 .8915-.8914-.8914-2.8906 0-3.7821 .7732-.7732 9.8467,.7498 11.346,0 1.5947-.7973 2.1874-2.9847 3.7821-3.7821 .9945-.4972 13.151,0 15.128,0 1.9777,0 14.134-.4972 15.128,0 4.3358,2.1679 5.2609,7.8913 7.5641,11.346 .989,1.4834 2.5214,2.5214 3.7821,3.7821 3.782,3.7821 7.5641,7.5641 11.346,11.346 1.2607,1.2607 2.9847,2.1874 3.7821,3.7821 .5638,1.1276-.8915,2.8906 0,3.7821 .8914,.8914 2.5213,0 3.782,0h3.7821c1.7033,0 10.195,.5755 11.346,0 1.5947-.7973 2.1874-2.9847 3.7821-3.7821 1.1276-.5638 2.8906,.8914 3.782,0 1.9934-1.9933 1.4366-6.0004 3.7821-7.5641 2.0979-1.3986 5.4662,1.3986 7.5642,0 2.3455-1.5637 1.7887-5.5708 3.782-7.5641 .8915-.8914 2.8907,.8914 3.7821,0 1.9933-1.9933 1.7887-5.5708 3.7821-7.5641 .8914-.8914 2.6544,.5638 3.782,0 1.5947-.7973 2.1874-2.9847 3.7821-3.7821 1.151-.5755 9.6429,0 11.346,0 4.3935,0 15.482-.8572 18.91,0 24.692,6.1729-14.289,2.0309 18.91,7.5641 3.7306,.6218 7.6376-.7417 11.346,0 2.7643,.5529 4.8294,3.0984 7.5642,3.7821 2.4461,.6115 5.118-.6115 7.5641,0 2.7348,.6837 4.8293,3.0984 7.5642,3.7821 3.9178,.9795 10.792,0 15.128,0h45.384c1.2607,0 2.8906,.8914 3.782,0 .8915-.8914-.8914-2.8906 0-3.7821 .8915-.8914 2.8907,.8914 3.7821,0 .8915-.8914 0-2.5214 0-3.7821v-3.7821c0-2.6306 .6839-17.543 0-18.91-.7973-1.5947-2.9847-2.1874-3.7821-3.7821-.5638-1.1276 .8915-2.8906 0-3.7821-1.9933-1.9933-5.5708-1.7888-7.5641-3.7821-.8914-.8914 .8914-2.8906 0-3.7821-.1714-.1714-17.127,0-18.91,0-1.9778,0-14.134-.4972-15.128,0-3.1893,1.5947-4.3748,5.9695-7.5642,7.5641-1.1276,.5638-2.8906-.8914-3.782,0-.8915,.8914 .8914,2.8906 0,3.7821-.8915,.8914-2.8907-.8914-3.7821,0s.5638,2.6545 0,3.7821c-4.1812,8.3624-2.3473,1.1737-7.5641,3.7821-1.5947,.7973-2.1875,2.9847-3.7821,3.7821-1.1276,.5638-2.5214,0-3.7821,0h-11.346c-1.2607,0-2.5861,.3987-3.7821,0-27.395-9.1317 5.9629,1.0904-11.346-7.5641-3.5657-1.7829-7.7804-1.9992-11.346-3.7821-5.026-2.513-2.5381-5.0511-7.5641-7.5641-1.1276-.5638-2.6545,.5638-3.7821,0-1.5947-.7973-2.2986-2.7931-3.7821-3.7821-19.106-12.738-.088-.0292-11.346-3.7821-2.6743-.8914-4.8293-3.0984-7.5641-3.7821-2.4461-.6115-5.0428,0-7.5642,0h-22.692c-1.2607,0-2.8906-.8914-3.7821,0-.8914,.8914 .8915,2.8906 0,3.7821-.8914,.8914-2.5213,0-3.782,0h-94.551c-1.2607,0-2.6545,.5638-3.7821,0-1.5946-.7973-2.1874-2.9847-3.782-3.7821-.9779-.4889-20.012,0-22.692,0-1.9778,0-14.134-.4972-15.128,0-1.5947,.7973-2.1874,2.9847-3.7821,3.7821-1.151,.5755-9.6429,0-11.346,0h-7.5641c-2.5214,0-5.1181,.6115-7.5642,0-5.4696-1.3674-9.7796-5.7813-15.128-7.5641-4.9312-1.6437-10.197-2.1383-15.128-3.7821-2.6744-.8914-5.2186-2.2184-7.5642-3.7821-1.4834-.989-2.0907-3.2183-3.7821-3.7821-2.3919-.7973-5.1721,.7973-7.5641,0-1.6914-.5638-2.5214-2.5214-3.7821-3.7821-2.5213-1.2607-4.8898-2.8906-7.5641-3.7821-2.3804-.7935-15.501,0-18.91,0h-34.038c-1.2607,0-2.5861-.3987-3.7821,0-2.6743,.8914-4.8293,3.0984-7.5641,3.7821-3.6691,.9173-7.7582-1.196-11.346,0-2.6743,.8914-5.0428,2.5214-7.5642,3.7821-2.5213,1.2607-5.2186,2.2184-7.5641,3.7821-1.4834,.989-2.1874,2.9847-3.7821,3.7821-2.3771,1.1886-12.751-1.1886-15.128,0-1.5947,.7973-2.0907,3.2183-3.7821,3.7821-17.217,0-.2163-1.7829-11.346,3.7821-1.1276,.5638-2.5214,0-3.7821,0h-52.948c-1.7033,0-10.195-.5755-11.346,0-1.5946,.7973-2.0907,3.2183-3.7821,3.7821-2.392,.7973-5.0427,0-7.5641,0-1.2607,0-2.6545-.5638-3.7821,0-3.1893,1.5947-4.3748,5.9695-7.5641,7.5641-9.3151,4.6575 3.4142-10.978-11.346,3.7821-.8915,.8914 .8914,2.8906 0,3.7821-.1522,.1522-13.739,0-15.128,0h-26.474c-5.0428,0-10.154,.829-15.128,0-5.5612-.9269-9.6586-6.1967-15.128-7.5641-2.4461-.6115-5.0917,.4945-7.5641,0-3.9092-.7818-7.4786-2.8152-11.346-3.7821-7.5641-1.891 0,3.7821-11.346,0-1.6914-.5638-2.0907-3.2183-3.7821-3.7821-1.936-.6453-19.989,0-22.692,0h-71.859c-.8988,0-14.281,.4238-15.128,0-1.5947-.7973-2.1874-2.9847-3.7821-3.7821-2.3771-1.1886-12.751,1.1886-15.128,0-1.5946-.7973-2.0907-3.2183-3.782-3.7821-2.392-.7973-5.0428,0-7.5642,0-1.2607,0-2.6545,.5638-3.7821,0-1.5946-.7973-2.0906-3.2183-3.782-3.7821-3.588-1.196-7.5642,0-11.346,0h-49.166c-1.2607,0-2.8907-.8914-3.7821,0-.8915,.8914 .8914,2.8906 0,3.7821-.8915,.8914-2.5214,0-3.7821,0h-147.5c-1.2607,0-2.6545,.5638-3.7821,0-1.5947-.7973-2.1874-2.9847-3.7821-3.7821-1.1276-.5638-2.8906,.8914-3.782,0-.8915-.8914 .8914-2.8906 0-3.7821-1.7829-1.7829-5.309,1.1276-7.5642,0-1.5946-.7973-2.1874-2.9847-3.782-3.7821-1.1276-.5638-2.8907,.8914-3.7821,0-.8915-.8914 1.1276-3.2183 0-3.7821-2.2552-1.1276-5.0428,0-7.5642,0h-52.948c-1.9778,0-14.134-.4972-15.128,0-1.5947,.7973-2.1874,2.9847-3.7821,3.7821-2.2552,1.1276-5.7812-1.7829-7.5641,0-.8915,.8914 .8914,2.8906 0,3.7821-1.8911,1.891-9.4552-1.891-11.346,0-.8915,.8914 .8914,2.8906 0,3.7821-.8915,.8914-2.6545-.5638-3.7821,0-1.5947,.7973-2.1874,2.9847-3.7821,3.7821-1.1276,.5638-2.8906-.8914-3.7821,0-.8914,.8914-.3986,2.5861 0,3.7821 2.1469,6.4406 5.0428,12.607 7.5642,18.91z"/>
</g>
</g>
</svg>
