<?xml version="1.0" encoding="UTF-8" standalone="no"?>
<!-- Created with Inkscape (http://www.inkscape.org/) -->
<svg xmlns:inkscape="http://www.inkscape.org/namespaces/inkscape" xmlns:rdf="http://www.w3.org/1999/02/22-rdf-syntax-ns#" xmlns="http://www.w3.org/2000/svg" xmlns:xlink="http://www.w3.org/1999/xlink" xmlns:ns1="http://sozi.baierouge.fr" xmlns:cc="http://creativecommons.org/ns#" xmlns:dc="http://purl.org/dc/elements/1.1/" xmlns:sodipodi="http://sodipodi.sourceforge.net/DTD/sodipodi-0.dtd" id="svg4898" sodipodi:docname="hand-offer.svg" viewBox="0 0 100 70" version="1.1" inkscape:version="0.48.3.1 r9886">
  <sodipodi:namedview id="base" bordercolor="#666666" inkscape:pageshadow="2" inkscape:window-y="0" pagecolor="#ffffff" inkscape:window-height="850" inkscape:window-maximized="1" inkscape:zoom="5.6" inkscape:window-x="0" showgrid="false" borderopacity="1.0" inkscape:current-layer="layer1" inkscape:cx="44.550221" inkscape:cy="20.261697" inkscape:window-width="1440" inkscape:pageopacity="0.0" inkscape:document-units="px"/>
  <g id="layer1" inkscape:label="Calque 1" inkscape:groupmode="layer" transform="translate(0 -982.36)">
    <path id="path3016" style="color:#000000;fill:#ffffff" inkscape:connector-curvature="0" d="m86.3 67.18c-1.7306-0.2402-2.7239-0.59944-7.0997-2.5679-3.2545-1.464-3.4466-1.5719-3.6711-2.0622-1.5338-3.3489-1.831-3.7844-3.4011-4.9842-2.2454-1.7158-4.7974-2.7836-7.5245-3.1483-2.7023-0.36136-2.8927-0.44564-4.7514-2.1037l-1.7066-1.5223-3.0656-1.1333c-4.6855-1.7321-4.2031-1.4029-6.0641-4.1382-0.89909-1.3215-2.1592-3.0158-2.8003-3.7651-0.64106-0.74928-1.269-1.4933-1.3954-1.6534-0.19128-0.24226-0.16465-0.42522 0.15881-1.091 0.87274-1.7964-0.43165-2.4799-1.5254-0.79933-0.3991 0.61318-0.61147 0.6166-1.0891 0.01754-0.30317-0.38022-0.47166-0.44993-0.85492-0.35374-0.39504 0.09915-0.47686 0.21928-0.4746 0.69676 0.0035 0.74111-0.04457 0.68124 2.0506 2.5532 0.98199 0.87737 1.9287 1.7559 2.1038 1.9524 0.72756 0.81631 3.1576 4.6197 3.538 5.5375 0.39745 0.95892 0.4425 0.9996 1.4024 1.2664 4.3004 1.1955 7.1008 2.3655 8.2938 3.4651 0.81507 0.75131 0.81739 0.75682 0.52624 1.2497-0.16084 0.27228-0.24731 0.61266-0.19216 0.75639 0.12002 0.31277 1.2633 0.49224 3.1478 0.49411 5.0309 0.005 9.7259 2.3906 11.262 5.7221 0.52578 1.1407 0.57612 1.3854 0.47035 2.2859-0.18426 1.5689-0.56699 2.171-1.8014 2.8338-0.58928 0.31644-1.2597 0.5776-1.4898 0.58036-0.23009 0.0028-1.5962-0.46857-3.0357-1.0474-3.2681-1.3141-3.5446-1.3896-6.2781-1.7145-2.3276-0.27663-3.2878-0.56598-5.3885-1.6239-1.3507-0.68019-3.7027-1.3449-7.8258-2.2118-4.0748-0.85667-4.079-0.85872-6.2104-2.9797-2.249-2.2381-3.7022-3.4326-6.6468-5.4636-1.2277-0.84675-2.9527-2.1944-3.8334-2.9949-2.0073-1.8244-3.8693-3.2314-6.0139-4.5443-3.3563-2.0546-3.9938-2.6209-5.7034-5.0659l-1.0806-1.5455 0.11722-3.3036c0.1164-3.2805 0.11345-3.318-0.42277-5.3689-0.45749-1.7498-0.51324-2.1863-0.36494-2.8571 0.38-1.7189 0.55162-2.1592 1.0734-2.7534 0.83625-0.95243 0.66014-1.2518-0.73957-1.2571l-1.157-0.0044-0.15311-0.88843c-0.08421-0.48863-0.18214-0.98887-0.21761-1.1116-0.07917-0.27398-0.90211-0.29663-1.0673-0.02938-0.15459 0.25014-0.14289 2.2974 0.01859 3.2532l0.125 0.73987-0.81142-0.6649c-1.1039-0.90457-2.1193-0.88506-1.8273 0.03512 0.05929 0.18682 0.74447 1.238 1.5226 2.336 2.09 2.9491 2.1973 3.2997 2.2832 7.4583l0.07101 3.4407-0.82412 1.3222c-0.69887 1.1213-1.0476 1.4725-2.2947 2.3109-1.6866 1.1339-2.6945 1.539-3.8286 1.539-2.2411 0-3.0181-1.9112-2.8008-6.8893 0.12908-2.9569 0.021991-3.4679-0.72683-3.4679-0.48267 0-0.63889 0.1837-0.79174 0.93103-0.058018 0.28368-0.17971 0.53176-0.27042 0.5513-0.0944 0.02-0.398-0.597-0.6783-1.37-0.4625-1.276-0.5437-1.871-0.8776-6.429-0.3981-5.435-0.3688-7.174 0.1395-8.297 0.2267-0.5 1.9528-2.311 5.5956-5.869 5.9648-5.8272 6.4698-6.1854 9.9998-7.104 1.0312-0.2683 2.2897-0.64286 2.7966-0.83237 1.353-0.50584 3.256-0.66096 6.0274-0.49133 2.9192 0.17868 4.0889 0.37428 5.846 0.97764 4.5712 1.5697 6.7552 1.8531 11.785 1.5295 3.5485-0.22831 3.7677-0.18356 8.6461 1.7651 3.2758 1.3085 4.7382 1.9957 7.1302 3.3505 1.5919 0.90163 5.0351 4.0212 6.9399 6.2878 1.1944 1.4213 2.3887 2.4258 4.1282 3.4724 1.182 0.71116 4.0174 3.7298 6.8252 7.2661 1.7848 2.2479 5.8196 6.6432 7.9282 8.6368 0.72737 0.68765 2.2546 2.0256 3.3937 2.9733 2.6721 2.2229 4.8607 4.6553 5.5434 6.1609 0.73415 1.6191 0.80418 2.4107 0.33724 3.8119-0.39029 1.1712-1.1376 2.5-1.4059 2.5-0.07995 0-0.93625-0.66295-1.9029-1.4732-3.2845-2.7532-4.0888-3.3669-5.6167-4.2861-0.83953-0.50506-2.33-1.6497-3.3121-2.5437-0.98214-0.89399-2.6295-2.2968-3.6607-3.1174-1.0312-0.82061-2.5179-2.0876-3.3036-2.8156-0.78571-0.72799-2.548-2.1068-3.9163-3.0641-2.5366-1.7747-2.6208-1.8557-2.8968-2.7891-0.22221-0.75152-0.71941-0.75688-1.8636-0.02009-1.5824 1.019-1.7698 1.1816-1.7698 1.5357 0 0.45151 0.17843 0.53978 1.4561 0.72038 0.59745 0.08445 1.5088 0.36733 2.0253 0.62862 1.5008 0.75931 5.657 3.9209 6.264 4.7649 0.31436 0.43712 1.3145 1.2974 2.3406 2.0133 2.4804 1.7305 4.1566 3.1692 4.789 4.1106 0.41481 0.61743 0.87873 0.97958 2.0556 1.6046 3.5879 1.9057 8.8352 6.5234 9.7334 8.5656 0.57678 1.3114 0.97888 3.0883 0.97888 4.3258 0 1.0435-0.02745 1.1087-0.73707 1.7498-0.92017 0.83132-2.1685 1.4035-2.7053 1.24-0.627-0.193-0.971-0.581-1.961-2.213-0.51-0.84-1.375-1.97-1.922-2.51-1.099-1.086-5.099-3.561-6.523-4.037-1.657-0.554-2.002-0.76-3.584-2.143-1.687-1.475-4.645-3.475-8.28-5.598-2.548-1.488-3.059-1.92-4.385-3.7-0.52504-0.70484-1.7017-2.0384-2.6148-2.9634-2.3364-2.3669-2.3111-2.3322-2.5388-3.4743-0.18746-0.94021-0.24993-1.036-0.71069-1.0893-0.35267-0.04082-0.64918 0.0795-0.98226 0.39861-0.2624 0.2514-0.73355 0.50838-1.047 0.57107-0.31344 0.06269-0.64782 0.20788-0.74307 0.32265-0.28148 0.33917 0.19116 1.0488 0.80427 1.2075 1.1506 0.29786 5.2115 4.2264 6.8174 6.5951 1.1544 1.7028 1.3035 1.8264 4.0614 3.3672 3.1749 1.7737 7.8072 4.8608 8.3247 5.5476 0.98587 1.3087 1.3459 1.5734 2.675 1.9668 1.4612 0.43248 3.0372 1.2242 5.726 2.8765 1.5375 0.94484 1.9069 1.2704 2.6836 2.3648 1.4459 2.0375 1.9297 3.198 1.9299 4.6291 0.000168 1.4473-0.18356 1.8537-0.99064 2.1909-0.70257 0.29355-1.5162 0.28931-3.7414-0.01953zm-50.838-47.605c1.2361-1.8275 2.2043-3.0443 3.5733-4.4911 1.602-1.6929 1.8344-2.31 0.9107-2.4174-1.2191-0.14173-4.5014 3.3018-5.7943 6.0788-0.51545 1.1072-0.53132 1.2694-0.16045 1.6403 0.37568 0.37568 0.84229 0.11849 1.4708-0.81068z" transform="translate(0 982.36)"/>
    <g id="g4876" transform="matrix(.20401 0 0 .20401 -8.8661 957.85)">
      <path id="path4878" style="fill:#1a1a1a" inkscape:connector-curvature="0" d="m469.03 460.63c-1.1-0.47269-4.8275-0.89106-8.2832-0.92971-4.5392-0.0508-7.593-0.73398-11.002-2.4614-2.5952-1.3151-7.4178-3.5228-10.717-4.9061-3.299-1.3833-9.8206-4.1382-14.492-6.1222-8.6112-3.6568-11.006-3.8939-11.006-1.0897 0 2.6565-8.254 10.697-13.5 13.151-9.4625 4.426-18.967 2.8883-38.343-6.2039-5.9446-2.7895-18.229-5.4375-25.226-5.4377-6.2656-0.00023-14.096-2.4394-22.5-7.0094-6.9031-3.7535-25.676-9.0756-42.431-12.029-16.228-2.8606-22.447-5.7789-29.415-13.802-7.5118-8.6499-22.502-21.485-31.239-26.748-9.9505-5.9939-13.564-8.812-25.531-19.911-6.1049-5.662-14.36-11.904-22.257-16.829-18.236-11.373-24.002-15.907-29.148-22.92-2.5235-3.4382-4.9754-6.3937-5.4487-6.5678-0.47334-0.17415-1.4457 0.65078-2.1607 1.8332-0.71505 1.1824-3.1001 3.0765-5.3001 4.2092s-5.9636 3.7844-8.3635 5.8928c-2.6535 2.3312-5.7886 4.0606-8 4.4131-2.0001 0.3188-5.1143 1.2296-6.9204 2.024-5.1159 2.2501-9.1391 1.6876-16.716-2.3372-6.214-3.3009-7.3114-4.3405-9.773-9.259-1.9629-3.9219-3.0953-8.3042-3.8762-15-1.0933-9.3744-2.5585-13.493-7.2713-20.437-2.2336-3.2915-6.4192-14.692-8.0852-22.022-0.37502-1.65-0.84772-10.14-1.0504-18.867-0.20272-8.727-0.89446-19.464-1.5372-23.859-1.3768-9.4161-0.68188-17.899 2.17-26.489 1.695-5.1052 2.9799-6.9809 7.1927-10.5 4.2102-3.5169 16.486-15.698 37.435-37.146 7.2434-7.416 12.087-11.583 15.295-13.16 1.925-0.94577 4.1973-2.3285 5.0496-3.0727 2.2038-1.9242 9.1019-4.2438 18.95-6.3722 4.675-1.0103 10.599-2.7854 13.165-3.9445 5.1689-2.3352 28.879-4.7952 34.322-3.5611 1.6569 0.37567 7.5125 1.0228 13.013 1.438 7.7284 0.5835 11.704 1.4608 17.5 3.8621 4.125 1.7089 12 4.3416 17.5 5.8503 10.921 2.9958 13.29 3.1087 41.206 1.9643 17.13-0.70221 17.234-0.69353 23.5 1.9569 3.4618 1.4642 10.569 4.1088 15.794 5.8769 11.738 3.9721 24.56 9.4696 30.79 13.202 2.5905 1.5518 7.6354 4.2041 11.211 5.8938 3.9831 1.8824 8.4371 5.0756 11.5 8.2446 5.6422 5.8377 7.2292 7.4281 15.15 15.183 3.0898 3.025 7.3386 7.818 9.4418 10.651 3.8815 5.2285 9.3548 9.4851 17.758 13.81 3.0419 1.5658 7.7601 5.9077 13.649 12.561 4.95 5.5923 11.285 12.712 14.077 15.823 2.7923 3.1102 6.159 7.4549 7.4816 9.6549 5.4207 9.0165 42.261 47.104 50.942 52.666 8.6515 5.5433 25.368 22.877 30.844 31.983 3.1312 5.2068 6.1562 14.522 6.1562 18.958 0 6.3302-2.0672 14.025-5.728 21.32l-3.4761 6.9276 1.6156 5.0724c0.88856 2.7898 2.5095 7.8706 3.602 11.291 2.1378 6.6922 2.7841 23.053 1.0869 27.517-0.87779 2.3088-9.6157 9.6818-14.938 12.604-1.4645 0.80421-4.4626 1.7317-6.6626 2.061-3.9908 0.59742-4.0012 0.61079-4.5239 5.8074-0.67245 6.686-3.2195 10.119-10.022 13.509-4.5116 2.2483-6.7499 2.7113-12.954 2.6797-4.125-0.021-8.4-0.42493-9.5-0.89762zm15.203-10.193c5.604-2.391 6.297-3.6017 6.297-11.001 0-4.9933-0.56981-8.0018-2.074-10.95-4.1309-8.0972-10.844-17.69-14.099-20.147-4.4638-3.369-27.886-16.708-29.338-16.708-0.63364 0-4.1836-0.95156-7.8888-2.1146-5.3978-1.6943-6.9351-2.6383-7.735-4.75-0.54907-1.4495-1.9808-3.7035-3.1817-5.0089-2.4696-2.6846-19.065-14.092-27.098-18.627-2.9229-1.65-5.9379-3.5133-6.7-4.1407-0.76209-0.6274-5.819-3.4174-11.238-6.2001-7.0789-3.6353-10.316-5.9035-11.5-8.0584-0.90645-1.6495-4.2243-6.562-7.3731-10.917-6.5114-9.0052-26.119-27.173-29.334-27.18-3.0071-0.006-5.7141-2.3444-5.2916-4.5704 0.27151-1.4305 1.3455-2.015 4.1259-2.2453 2.693-0.22309 4.2216-1.0176 5.3908-2.802 1.1737-1.7913 2.3622-2.4058 4.2328-2.1886 2.359 0.27394 2.6508 0.7988 3.1373 5.6436 0.52502 5.2284 0.73966 5.5358 10.125 14.5 5.2736 5.0371 11.107 11.311 12.964 13.942 8.0699 11.436 9.8155 13.154 18.059 17.771 11.291 6.3249 19.166 11.092 26.317 15.932 3.3 2.2335 7.9722 5.3447 10.383 6.9138 2.4104 1.5691 7.1905 5.5977 10.622 8.9526 6.2135 6.0739 9.7114 8.1472 13.745 8.1472 1.1661 0 6.6493 2.562 12.185 5.6934 20.309 11.488 24.933 15.482 31.614 27.303 1.8979 3.3582 4.2245 7.1488 5.1702 8.4235 3.6889 4.9723 11.28 3.7372 18.803-3.0592 3.776-3.4114 3.9777-3.891 3.9777-9.4563 0-6.1779-2.7122-16.497-6.229-23.7-4.3682-8.9468-34.712-34.72-46.776-39.731-4.9604-2.0602-7.5838-3.7815-8.5409-5.6038-0.75976-1.4466-2.5509-4.02-3.9803-5.7188-3.0277-3.5982-19.864-16.57-26.625-20.512-2.8509-1.6627-4.8862-3.6503-5.259-5.1356-0.62231-2.4795-4.6865-5.95-19.53-16.677-11.236-8.1199-16.818-10.826-22.333-10.826-8.3307 0-8.9095-4.5003-1.0399-8.0853 2.6326-1.1993 5.2677-2.8385 5.8557-3.6426 0.58829-0.80453 2.1681-1.3069 3.513-1.117 2.0237 0.28565 2.4536 0.92178 2.4997 3.6994 0.0484 2.9172 0.76533 3.8372 5.5 7.0584 21.568 14.673 25.55 17.821 34.944 27.624 0.825 0.86085 6.5408 5.3722 12.702 10.025 6.161 4.653 13.361 10.974 16 14.047 3.2549 3.7899 6.889 6.6447 11.299 8.876 8.0587 4.0776 16.086 10.071 28.929 21.598 5.4643 4.9046 10.634 8.9174 11.488 8.9174 1.9902 0 6.9892-9.8871 8.4297-16.672 0.93967-4.4263 0.81623-5.9917-0.85566-10.851-1.0746-3.1232-2.9439-7.3206-4.1541-9.3275-3.3784-5.6023-21.668-23.921-27.838-27.883-7.0993-4.5583-41.409-39.374-49.043-49.766-7.9574-10.832-16.199-20.635-23.707-28.198-3.4375-3.4625-6.25-6.7353-6.25-7.273 0-0.53768-1.4625-1.7051-3.25-2.5942-6.6081-3.287-18.539-12.027-20.858-15.28-4.1903-5.8779-12.19-14.568-15.881-17.252-1.9647-1.4286-5.5003-4.7878-7.8568-7.4649-4.1764-4.7447-8.4079-7.8576-14.797-10.886-1.7287-0.81929-5.8279-3.0631-9.1093-4.9863s-8.842-4.5836-12.357-5.912c-3.5149-1.3284-8.6407-3.3321-11.391-4.4525-21.366-8.7052-27.363-10.497-32.719-9.7766-9.1074 1.2254-38.19 1.7214-42.327 0.72186-13.144-3.1755-20.712-5.3984-26.454-7.7702-6.8068-2.8116-14.02-3.9085-32.768-4.9834-12.126-0.6952-20.776 0.41149-27.732 3.5479-2.2 0.99203-7.6 2.5406-12 3.4413-12.358 2.5297-22.856 8.3804-31.168 17.371-3.7573 4.0638-9.0815 9.4738-11.832 12.022-2.75 2.5484-9.5 9.1748-15 14.725-5.5 5.5505-11.616 11.307-13.591 12.793-5.5272 4.1575-8.3629 15.364-6.758 26.706 0.50585 3.575 1.3118 15.05 1.791 25.5 0.76165 16.61 1.2061 19.967 3.5328 26.684 3.2897 9.4977 5.5251 11.95 5.5251 6.0607 0-4.5117 1.8914-6.7315 4.9173-5.7712 2.8731 0.91189 3.592 6.288 2.129 15.922-1.4345 9.4463-0.19016 22.61 2.695 28.509 2.3569 4.8189 7.3907 7.377 13.099 6.6569 5.0394-0.63572 12.956-3.9214 14.555-6.041 0.60731-0.80492 3.1274-2.524 5.6003-3.8203 3.5371-1.8541 5.35-3.833 8.5-9.2783l4.0039-6.9214 0.32609-13.779c0.24634-10.409-0.0823-15.423-1.3435-20.5-1.9515-7.8553-3.6052-10.828-12.231-21.99-6.6686-8.6292-7.441-11.488-3.2634-12.08 1.8568-0.26291 3.2451 0.57653 5.6077 3.3906 3.6831 4.387 5.7103 4.0134 4.3304-0.79809-1.5338-5.3481-1.1745-15.434 0.57368-16.105 2.6963-1.0347 4.4994 0.45085 4.5136 3.7186 0.0251 5.7881 1.0222 7.8847 3.3741 7.095 1.1618-0.39006 3.6873-0.76384 5.6123-0.83061 2.8839-0.10004 3.5548 0.26352 3.8113 2.0654 0.20762 1.4586-0.53925 2.7441-2.2429 3.8604-1.4586 0.9557-2.9609 3.2348-3.5022 5.3132-3.2931 12.642-3.2977 12.691-1.659 17.518 3.018 8.8893 4.8116 19.916 4.1676 25.622-0.34141 3.025-0.89297 9.2347-1.2257 13.799-0.53679 7.3642-0.38208 8.5473 1.3731 10.5 1.0879 1.2104 3.6993 5.0373 5.8032 8.5043 3.7182 6.1273 10.375 12.622 17.113 16.696 1.8192 1.1 6.5822 3.9799 10.585 6.3998 10.866 6.5701 20.754 14.227 29.531 22.87 5.0748 4.9972 11.355 9.8102 17.764 13.613 10.243 6.0782 27.317 20.434 35.713 30.026 3.9415 4.5033 5.7764 5.7355 11 7.387 3.4482 1.0902 8.5194 2.2887 11.269 2.6634 5.0832 0.6926 26.717 5.5961 34 7.7062 2.2 0.63745 7.2945 2.9351 11.321 5.1059 8.4836 4.5737 15.62 6.6926 22.679 6.7339 6.989 0.0409 17.991 2.4781 24.5 5.4276 9.4312 4.2735 21.06 8.5669 23.204 8.5669 2.2676 0 11.887-5.2 13.732-7.423 0.64375-0.77567 1.6397-4.4242 2.2132-8.1078 0.89221-5.7308 0.79291-7.2223-0.68791-10.333-0.95184-1.9997-2.427-5.1189-3.2781-6.9316-1.9692-4.194-5.2602-7.4849-12.224-12.224-13.12-8.9283-26.196-12.357-47.459-12.444-8.35-0.0341-9.0215-0.18748-9.2983-2.1242-0.16404-1.1481 0.39846-2.6657 1.25-3.3724 0.85154-0.70672 1.5483-1.645 1.5483-2.0852 0-0.44013-2.4823-2.9209-5.5162-5.5129-4.14-3.5369-7.9448-5.5757-15.25-8.1718-12.142-4.3148-21.695-7.2819-26.191-8.1346-2.9855-0.56621-3.5603-1.1513-4.2118-4.287-0.8798-4.2345-13.957-24.524-19.561-30.349-2.1165-2.2-7.3446-6.84-11.618-10.311-7.0725-5.7447-7.7421-6.5972-7.461-9.5 0.408-4.2132 3.7911-4.8911 6.184-1.2391 2.2031 3.3623 4.2254 3.2232 6.1095-0.42019 1.9901-3.8485 5.1171-5.605 7.0792-3.9766 1.9632 1.6293 1.7921 3.8895-0.56392 7.447-1.0928 1.65-1.9898 3.565-1.9934 4.2556-0.004 0.69057 2.7576 4.0656 6.1361 7.5s9.6698 11.644 13.981 18.244c4.3108 6.6 8.4091 12.802 9.1073 13.782 0.73989 1.0384 8.1522 4.1071 17.769 7.3564 9.075 3.0661 17.625 6.1686 19 6.8944 1.375 0.72577 5.6241 4.489 9.4425 8.3627 7.6676 7.7788 7.9342 7.8833 26.02 10.201 12.754 1.6343 27.251 8.69 38.937 18.95 3.1992 2.8089 9.668 14.653 10.942 20.035 0.67042 2.8313 2.9799 4.0355 31.33 16.336 12.73 5.5231 16.111 6.5942 21 6.6531 3.2051 0.0387 6.7275 0.45702 7.8275 0.92971 2.9296 1.2589 8.0044 1.1713 11.203-0.19336zm-274.03-230.48c-2.3413-2.3413 0.12924-8.042 8.8333-20.382 6.1307-8.6916 17.902-18.502 20.845-17.373 3.2344 1.2411 1.8736 5.1183-3.339 9.5136-6.0296 5.0843-14.867 15.921-19.099 23.419-2.8676 5.081-5.3366 6.7254-7.24 4.822z"/>
    </g>
  </g>
  <metadata>
    <rdf:RDF>
      <cc:Work>
        <dc:format>image/svg+xml</dc:format>
        <dc:type rdf:resource="http://purl.org/dc/dcmitype/StillImage"/>
        <cc:license rdf:resource="http://creativecommons.org/licenses/publicdomain/"/>
        <dc:publisher>
          <cc:Agent rdf:about="http://openclipart.org/">
            <dc:title>Openclipart</dc:title>
          </cc:Agent>
        </dc:publisher>
      </cc:Work>
      <cc:License rdf:about="http://creativecommons.org/licenses/publicdomain/">
        <cc:permits rdf:resource="http://creativecommons.org/ns#Reproduction"/>
        <cc:permits rdf:resource="http://creativecommons.org/ns#Distribution"/>
        <cc:permits rdf:resource="http://creativecommons.org/ns#DerivativeWorks"/>
      </cc:License>
    </rdf:RDF>
  </metadata>
</svg>
