<svg xmlns="http://www.w3.org/2000/svg" viewBox="0 0 299.99999 540" xmlns:xlink="http://www.w3.org/1999/xlink" enable-background="new 0 0 595.28 841.89">
<defs>
<clipPath id="SVGID_4_" clip-path="url(#SVGID_3_)">
<use width="595.28" height="841.89" xlink:href="#SVGID_2_"/>
</clipPath>
<clipPath id="SVGID_3_">
<use width="595.28" height="841.89" xlink:href="#SVGID_1_"/>
</clipPath>
<linearGradient id="linearGradient2869" y1="196.51" y2="219.03" x1="453.21" gradientUnits="userSpaceOnUse" x2="395.96">
<stop offset=".352" stop-color="#fefded"/>
<stop offset=".857" stop-color="#ccd0b8"/>
</linearGradient>
<path id="SVGID_1_" d="m412.78,120.11c-.111-3.59-2.565-7.259-10.118-7.552-4.456-.099-214.03-6.713-214.03-6.713-3.064-.029-6.272,.765-6.272,6.119 0,2.744-.048,25.391-.048,25.391s-63.019,132.9-64.946,136.85c-1.927,3.951-1.445,4.57-1.465,7.048-.02,2.479 14.917,405.9 14.917,405.9l175.08,78.43c11.241,4.903 13.797,1.932 15.845,0l98.234-102.99s31.566-390.57 31.937-394.92c.371-4.356 .014-7.93-.702-11.466-.775-3.829-1.81-8.096-2.714-10.315-.158-.388-36.442-97.047-36.442-97.047l.725-28.733z"/>
<path id="SVGID_2_" d="m412.78,120.11c-.111-3.59-2.565-7.259-10.118-7.552-4.456-.099-214.03-6.713-214.03-6.713-3.064-.029-6.272,.765-6.272,6.119 0,2.744-.048,25.391-.048,25.391s-63.019,132.9-64.946,136.85c-1.927,3.951-1.445,4.57-1.465,7.048-.02,2.479 14.917,405.9 14.917,405.9l175.08,78.43c11.241,4.903 13.797,1.932 15.845,0l98.234-102.99s31.566-390.57 31.937-394.92c.371-4.356 .014-7.93-.702-11.466-.775-3.829-1.81-8.096-2.714-10.315-.158-.388-36.442-97.047-36.442-97.047l.725-28.733z"/>
</defs>
<g stroke="#e7e7e7" stroke-width=".792" transform="matrix(.83074 0 0 .78484 -85.753 -71.278)">
<path fill="#fdfce6" d="m426.78,679.68 35.64-438.47-43.96-125.95-87.93,181.8-23.77,503.83z" clip-path="url(#SVGID_4_)"/>
<path fill="#d6dbcc" d="m428.96,99.854-16.9,48.986-77.11,162.27-19.01,472.16-194.55-89.33-15.45-428.96 65.36-135.46 2.38-34.465z" clip-path="url(#SVGID_4_)"/>
</g>
<g transform="matrix(.83074 0 0 .78484 -85.753 -71.278)">
<path fill="#c9cebe" d="m425.13,109.23-255.89-14.263 9.11,40.803 234.9,12.67z" clip-path="url(#SVGID_4_)"/>
<use width="595.28" fill="none" height="841.89" stroke="#e7e7e7" xlink:href="#SVGID_1_" stroke-width=".792"/>
<use width="595.28" fill="none" height="841.89" stroke="#e7e7e7" xlink:href="#SVGID_2_" stroke-width=".792"/>
</g>
<g transform="matrix(.83074 0 0 .78484 -85.753 -71.278)">
<path fill="#eaedd0" d="m448.3,256.39-62.02-44.71-44.71,94.83z"/>
<path fill="url(#linearGradient2869)" d="m449.25,254.8-37.19-98.83-24.95,54.15z"/>
<path fill="#e7e7e7" stroke="#e7e7e7" stroke-width="1.584" d="m116.03,277.57 218.92,33.54"/>
</g>
</svg>
