<svg xmlns="http://www.w3.org/2000/svg" viewBox="0 0 201.37 220.75" xmlns:xlink="http://www.w3.org/1999/xlink">
<defs>
<filter width="1.68" x="-.34" y="-.012" height="1.025" color-interpolation-filters="sRGB" id="filter7323">
<feGaussianBlur stdDeviation="1.07936"/>
</filter>
<filter color-interpolation-filters="sRGB" id="filter7491">
<feGaussianBlur stdDeviation="1.24074"/>
</filter>
<filter color-interpolation-filters="sRGB" id="filter7387">
<feGaussianBlur stdDeviation=".96441"/>
</filter>
<filter width="1.68" x="-.34" y="-.012" height="1.025" color-interpolation-filters="sRGB" id="filter7323-4">
<feGaussianBlur stdDeviation="1.07936"/>
</filter>
<linearGradient id="linearGradient4323">
<stop offset="0" stop-color="#cad0cf"/>
<stop offset="1" stop-color="#cacad1" stop-opacity=".678"/>
</linearGradient>
<linearGradient id="linearGradient7673" xlink:href="#linearGradient4323" x1="301.38" gradientUnits="userSpaceOnUse" x2="338.56"/>
<linearGradient id="linearGradient7675" xlink:href="#linearGradient4323" x1="304.69" gradientUnits="userSpaceOnUse" x2="342.38"/>
<linearGradient id="linearGradient7671" xlink:href="#linearGradient4323" x1="349.53" gradientUnits="userSpaceOnUse" x2="381.1"/>
<linearGradient id="linearGradient7691" xlink:href="#linearGradient4323" x1="313.1" gradientUnits="userSpaceOnUse" x2="351.04"/>
<linearGradient id="linearGradient7689" xlink:href="#linearGradient4323" x1="289.41" gradientUnits="userSpaceOnUse" x2="317.67"/>
<linearGradient id="linearGradient7681" xlink:href="#linearGradient4323" x1="294.76" gradientUnits="userSpaceOnUse" x2="326.84"/>
<linearGradient id="linearGradient7677" xlink:href="#linearGradient4323" x1="308.77" gradientUnits="userSpaceOnUse" x2="346.2"/>
<linearGradient id="linearGradient7683" xlink:href="#linearGradient4323" x1="297.05" gradientUnits="userSpaceOnUse" x2="330.91"/>
<linearGradient id="linearGradient7679" xlink:href="#linearGradient4323" x1="299.09" gradientUnits="userSpaceOnUse" x2="334.99"/>
<linearGradient id="linearGradient7693" xlink:href="#linearGradient4323" x1="317.69" gradientUnits="userSpaceOnUse" x2="355.88"/>
<linearGradient id="linearGradient7687" xlink:href="#linearGradient4323" x1="286.61" gradientUnits="userSpaceOnUse" x2="313.59"/>
<linearGradient id="linearGradient7707" xlink:href="#linearGradient4323" x1="259.35" gradientUnits="userSpaceOnUse" x2="266.46"/>
<linearGradient id="linearGradient7695" xlink:href="#linearGradient4323" x1="331.95" gradientUnits="userSpaceOnUse" x2="370.91"/>
<linearGradient id="linearGradient7711" xlink:href="#linearGradient4323" x1="274.89" gradientUnits="userSpaceOnUse" x2="291.94"/>
<linearGradient id="linearGradient7699" xlink:href="#linearGradient4323" x1="343.67" gradientUnits="userSpaceOnUse" x2="380.55"/>
<linearGradient id="linearGradient7701" xlink:href="#linearGradient4323" x1="338.07" gradientUnits="userSpaceOnUse" x2="376"/>
<linearGradient gradientTransform="translate(-32.564 -15.32)" id="linearGradient7769" x1="299.73" gradientUnits="userSpaceOnUse" x2="314.92">
<stop offset="0" stop-color="#cad0cf"/>
<stop offset="1" stop-color="#cacad1" stop-opacity=".678"/>
</linearGradient>
<linearGradient id="linearGradient7697" xlink:href="#linearGradient4323" x1="322.02" gradientUnits="userSpaceOnUse" x2="361.23"/>
<linearGradient id="linearGradient7685" xlink:href="#linearGradient4323" x1="292.21" gradientUnits="userSpaceOnUse" x2="322.25"/>
<linearGradient id="linearGradient7703" xlink:href="#linearGradient4323" x1="326.86" gradientUnits="userSpaceOnUse" x2="366.32"/>
<linearGradient id="linearGradient7709" xlink:href="#linearGradient4323" x1="277.94" gradientUnits="userSpaceOnUse" x2="297.54"/>
<linearGradient id="linearGradient7705" xlink:href="#linearGradient4323" x1="256.46" gradientUnits="userSpaceOnUse" x2="261.37"/>
<linearGradient id="linearGradient7715" xlink:href="#linearGradient4323" x1="272.08" gradientUnits="userSpaceOnUse" x2="286.71"/>
<linearGradient id="linearGradient7713" xlink:href="#linearGradient4323" x1="285.25" gradientUnits="userSpaceOnUse" x2="380.52"/>
<linearGradient id="linearGradient7753" xlink:href="#linearGradient4323" x1="289.47" gradientUnits="userSpaceOnUse" x2="358.48"/>
<linearGradient id="linearGradient7721" xlink:href="#linearGradient4323" x1="283.8" gradientUnits="userSpaceOnUse" x2="308.37"/>
<linearGradient id="linearGradient7717" xlink:href="#linearGradient4323" x1="266.23" gradientUnits="userSpaceOnUse" x2="276.01"/>
<linearGradient id="linearGradient7725" xlink:href="#linearGradient4323" x1="303.75" gradientUnits="userSpaceOnUse" x2="381.39"/>
<linearGradient id="linearGradient7727" xlink:href="#linearGradient4323" x1="332.82" gradientUnits="userSpaceOnUse" x2="380.84"/>
<linearGradient id="linearGradient7743" xlink:href="#linearGradient4323" x1="369.22" gradientUnits="userSpaceOnUse" x2="381.35"/>
<linearGradient id="linearGradient7723" xlink:href="#linearGradient4323" x1="317.41" gradientUnits="userSpaceOnUse" x2="381.09"/>
<linearGradient id="linearGradient7733" xlink:href="#linearGradient4323" x1="256.78" gradientUnits="userSpaceOnUse" x2="382.05"/>
<linearGradient id="linearGradient7729" xlink:href="#linearGradient4323" x1="280.75" gradientUnits="userSpaceOnUse" x2="302.76"/>
<linearGradient id="linearGradient7735" xlink:href="#linearGradient4323" x1="256.49" gradientUnits="userSpaceOnUse" x2="381.79"/>
<linearGradient id="linearGradient7731" xlink:href="#linearGradient4323" x1="258.19" gradientUnits="userSpaceOnUse" x2="381.62"/>
<linearGradient id="linearGradient7741" xlink:href="#linearGradient4323" x1="373.73" gradientUnits="userSpaceOnUse" x2="381.35"/>
<linearGradient id="linearGradient7739" xlink:href="#linearGradient4323" x1="377.04" gradientUnits="userSpaceOnUse" x2="382.33"/>
<linearGradient id="linearGradient7745" xlink:href="#linearGradient4323" x1="364.38" gradientUnits="userSpaceOnUse" x2="381.61"/>
<linearGradient id="linearGradient7747" xlink:href="#linearGradient4323" x1="359.43" gradientUnits="userSpaceOnUse" x2="381.64"/>
<linearGradient gradientTransform="translate(-4.9019 -8.6988)" id="linearGradient7763" x1="299.73" gradientUnits="userSpaceOnUse" x2="314.92">
<stop offset="0" stop-color="#cad0cf"/>
<stop offset="1" stop-color="#cacad1" stop-opacity=".678"/>
</linearGradient>
<linearGradient id="linearGradient7751" xlink:href="#linearGradient4323" x1="354.62" gradientUnits="userSpaceOnUse" x2="381.35"/>
<linearGradient gradientTransform="translate(-27.032 -12.599)" id="linearGradient7767" x1="299.73" gradientUnits="userSpaceOnUse" x2="314.92">
<stop offset="0" stop-color="#cad0cf"/>
<stop offset="1" stop-color="#cacad1" stop-opacity=".678"/>
</linearGradient>
<linearGradient id="linearGradient7719" xlink:href="#linearGradient4323" x1="263.17" gradientUnits="userSpaceOnUse" x2="271.17"/>
<linearGradient id="linearGradient7749" xlink:href="#linearGradient4323" x1="291.67" gradientUnits="userSpaceOnUse" x2="348.87"/>
<linearGradient id="linearGradient7759" x1="195.95" gradientUnits="userSpaceOnUse" x2="382.46">
<stop offset="0" stop-color="#a8a8af"/>
<stop offset="1" stop-color="#eadfdb"/>
</linearGradient>
<linearGradient id="linearGradient7755" xlink:href="#linearGradient4323" x1="293.07" gradientUnits="userSpaceOnUse" x2="336.69"/>
<linearGradient gradientTransform="translate(0 -.72557)" id="linearGradient7761" xlink:href="#linearGradient4323" x1="299.73" gradientUnits="userSpaceOnUse" x2="314.92"/>
<linearGradient id="linearGradient7757" xlink:href="#linearGradient4323" x1="297.47" gradientUnits="userSpaceOnUse" x2="324.81"/>
<linearGradient id="linearGradient7873" x1="263.22" gradientUnits="userSpaceOnUse" x2="374.62">
<stop offset="0" stop-color="#fff" stop-opacity=".217"/>
<stop offset=".274" stop-color="#fff"/>
<stop offset="1" stop-color="#fff" stop-opacity="0"/>
</linearGradient>
<linearGradient gradientTransform="translate(-16.783 -10.422)" id="linearGradient7765" x1="299.73" gradientUnits="userSpaceOnUse" x2="314.92">
<stop offset="0" stop-color="#cad0cf"/>
<stop offset="1" stop-color="#cacad1" stop-opacity=".678"/>
</linearGradient>
<linearGradient id="linearGradient7837" xlink:href="#linearGradient4323" x1="261.88" gradientUnits="userSpaceOnUse" x2="382.73"/>
<linearGradient gradientTransform="matrix(1.431 -.26499 -.06344 .43254 -221.13 280.89)" id="linearGradient7773" x1="264.27" gradientUnits="userSpaceOnUse" x2="381.92">
<stop offset="0" stop-color="#cad0cf"/>
<stop offset="1" stop-color="#cacad1" stop-opacity=".678"/>
</linearGradient>
<linearGradient id="linearGradient7841" xlink:href="#linearGradient4323" x1="266.21" gradientUnits="userSpaceOnUse" x2="381.59"/>
<linearGradient gradientTransform="matrix(1.4508 -.11348 -.10845 .42351 -94.253 258.69)" id="linearGradient7777" x1="264.27" gradientUnits="userSpaceOnUse" x2="381.92">
<stop offset="0" stop-color="#cad0cf"/>
<stop offset="1" stop-color="#cacad1" stop-opacity=".678"/>
</linearGradient>
<linearGradient gradientTransform="matrix(.76288 .309 -1.1988 .39191 414.58 145.32)" id="linearGradient7779" xlink:href="#linearGradient4323" x1="264.27" gradientUnits="userSpaceOnUse" x2="381.92"/>
<linearGradient gradientTransform="matrix(1.4175 -.13152 -.099 .48143 -299.97 247)" id="linearGradient7795" xlink:href="#linearGradient4323" x1="266.21" gradientUnits="userSpaceOnUse" x2="381.59"/>
<linearGradient gradientTransform="matrix(1.4099 .36044 -.23922 .36591 -128.6 93.242)" id="linearGradient7775" x1="264.27" gradientUnits="userSpaceOnUse" x2="381.92">
<stop offset="0" stop-color="#cad0cf"/>
<stop offset="1" stop-color="#cacad1" stop-opacity=".678"/>
</linearGradient>
<linearGradient gradientTransform="matrix(.76288 .309 -1.1988 .39191 414.58 145.32)" id="linearGradient7785" xlink:href="#linearGradient4323" x1="270.85" gradientUnits="userSpaceOnUse" x2="381.98"/>
<linearGradient gradientTransform="matrix(.76288 .309 -1.1988 .39191 414.58 145.32)" id="linearGradient7781" xlink:href="#linearGradient4323" x1="266.21" gradientUnits="userSpaceOnUse" x2="381.59"/>
<linearGradient gradientTransform="matrix(.76288 .309 -1.1988 .39191 414.58 145.32)" id="linearGradient7787" xlink:href="#linearGradient4323" x1="273.19" gradientUnits="userSpaceOnUse" x2="381.89"/>
<linearGradient gradientTransform="matrix(.76288 .309 -1.1988 .39191 414.58 145.32)" id="linearGradient7783" xlink:href="#linearGradient4323" x1="268.26" gradientUnits="userSpaceOnUse" x2="382.28"/>
<linearGradient gradientTransform="matrix(-1.4193 .14211 .06769 -.47841 534.95 586.38)" id="linearGradient7821" xlink:href="#linearGradient4323" x1="264.27" gradientUnits="userSpaceOnUse" x2="381.92"/>
<linearGradient gradientTransform="matrix(.76288 .309 -1.1988 .39191 414.58 145.32)" id="linearGradient7791" xlink:href="#linearGradient4323" x1="278.15" gradientUnits="userSpaceOnUse" x2="382.21"/>
<linearGradient gradientTransform="matrix(1.4175 -.13152 -.099 .48143 -299.97 247)" id="linearGradient7793" xlink:href="#linearGradient4323" x1="264.27" gradientUnits="userSpaceOnUse" x2="381.92"/>
<linearGradient gradientTransform="matrix(1.417 -.12917 -.10592 .48207 -292.22 258.15)" id="linearGradient7807" xlink:href="#linearGradient4323" x1="264.27" gradientUnits="userSpaceOnUse" x2="381.92"/>
<linearGradient gradientTransform="matrix(1.417 -.12917 -.10592 .48207 -292.22 258.15)" id="linearGradient7815" xlink:href="#linearGradient4323" x1="273.19" gradientUnits="userSpaceOnUse" x2="381.89"/>
<linearGradient gradientTransform="matrix(1.4175 -.13152 -.099 .48143 -299.97 247)" id="linearGradient7799" xlink:href="#linearGradient4323" x1="270.85" gradientUnits="userSpaceOnUse" x2="381.98"/>
<linearGradient gradientTransform="matrix(1.4175 -.13152 -.099 .48143 -299.97 247)" id="linearGradient7805" xlink:href="#linearGradient4323" y1="444.9" y2="444.37" x1="278.15" gradientUnits="userSpaceOnUse" x2="337.39"/>
<linearGradient gradientTransform="matrix(1.4175 -.13152 -.099 .48143 -299.97 247)" id="linearGradient7803" xlink:href="#linearGradient4323" x1="275.35" gradientUnits="userSpaceOnUse" x2="381.78"/>
<linearGradient gradientTransform="matrix(1.4175 -.13152 -.099 .48143 -299.97 247)" id="linearGradient7801" xlink:href="#linearGradient4323" x1="273.19" gradientUnits="userSpaceOnUse" x2="381.89"/>
<linearGradient gradientTransform="matrix(1.4175 -.13152 -.099 .48143 -299.97 247)" id="linearGradient7797" xlink:href="#linearGradient4323" x1="268.26" gradientUnits="userSpaceOnUse" x2="382.28"/>
<linearGradient gradientTransform="matrix(1.417 -.12917 -.10592 .48207 -292.22 258.15)" id="linearGradient7811" xlink:href="#linearGradient4323" x1="268.26" gradientUnits="userSpaceOnUse" x2="382.28"/>
<linearGradient gradientTransform="matrix(1.417 -.12917 -.10592 .48207 -292.22 258.15)" id="linearGradient7813" xlink:href="#linearGradient4323" x1="270.85" gradientUnits="userSpaceOnUse" x2="381.98"/>
<linearGradient gradientTransform="matrix(1.417 -.12917 -.10592 .48207 -292.22 258.15)" id="linearGradient7809" xlink:href="#linearGradient4323" x1="266.21" gradientUnits="userSpaceOnUse" x2="381.59"/>
<linearGradient gradientTransform="matrix(1.417 -.12917 -.10592 .48207 -292.22 258.15)" id="linearGradient7819" xlink:href="#linearGradient4323" y1="449.33" y2="444.9" x1="314.36" gradientUnits="userSpaceOnUse" x2="382.21"/>
<linearGradient gradientTransform="matrix(1.417 -.12917 -.10592 .48207 -292.22 258.15)" id="linearGradient7817" xlink:href="#linearGradient4323" x1="275.35" gradientUnits="userSpaceOnUse" x2="381.78"/>
<linearGradient gradientTransform="matrix(.76288 .309 -1.1988 .39191 414.58 145.32)" id="linearGradient7789" xlink:href="#linearGradient4323" x1="275.35" gradientUnits="userSpaceOnUse" x2="381.78"/>
<linearGradient gradientTransform="translate(-.95595 -5.1685)" id="linearGradient7771" x1="299.73" gradientUnits="userSpaceOnUse" x2="314.92">
<stop offset="0" stop-color="#cad0cf"/>
<stop offset="1" stop-color="#cacad1" stop-opacity=".678"/>
</linearGradient>
<linearGradient gradientTransform="matrix(-1.4193 .14211 .06769 -.47841 534.95 586.38)" id="linearGradient7825" xlink:href="#linearGradient4323" x1="268.26" gradientUnits="userSpaceOnUse" x2="382.28"/>
<linearGradient gradientTransform="matrix(-1.4193 .14211 .06769 -.47841 534.95 586.38)" id="linearGradient7829" xlink:href="#linearGradient4323" x1="273.19" gradientUnits="userSpaceOnUse" x2="381.89"/>
<linearGradient gradientTransform="matrix(-1.4193 .14211 .06769 -.47841 534.95 586.38)" id="linearGradient7831" xlink:href="#linearGradient4323" x1="275.35" gradientUnits="userSpaceOnUse" x2="381.78"/>
<linearGradient id="linearGradient7847" xlink:href="#linearGradient4323" x1="257.02" gradientUnits="userSpaceOnUse" x2="382.44"/>
<linearGradient gradientTransform="matrix(-1.4193 .14211 .06769 -.47841 534.95 586.38)" id="linearGradient7827" xlink:href="#linearGradient4323" x1="270.85" gradientUnits="userSpaceOnUse" x2="381.98"/>
<linearGradient id="linearGradient7737" xlink:href="#linearGradient4323" x1="269.28" gradientUnits="userSpaceOnUse" x2="281.11"/>
<linearGradient gradientTransform="matrix(-1.4193 .14211 .06769 -.47841 534.95 586.38)" id="linearGradient7833" xlink:href="#linearGradient4323" x1="278.15" gradientUnits="userSpaceOnUse" x2="382.21"/>
<linearGradient id="linearGradient7839" xlink:href="#linearGradient4323" x1="264.27" gradientUnits="userSpaceOnUse" x2="381.92"/>
<linearGradient gradientTransform="matrix(1.417 -.12917 -.10592 .48207 -288.77 259.94)" id="linearGradient7835" x1="264.27" gradientUnits="userSpaceOnUse" x2="381.92">
<stop offset="0" stop-color="#cad0cf"/>
<stop offset="1" stop-color="#cacad1" stop-opacity=".678"/>
</linearGradient>
<linearGradient id="linearGradient7845" xlink:href="#linearGradient4323" x1="268.26" gradientUnits="userSpaceOnUse" x2="382.28"/>
<linearGradient id="linearGradient7843" xlink:href="#linearGradient4323" x1="260.03" gradientUnits="userSpaceOnUse" x2="382.21"/>
<linearGradient id="linearGradient7849" xlink:href="#linearGradient4323" x1="270.85" gradientUnits="userSpaceOnUse" x2="381.98"/>
<linearGradient id="linearGradient7851" xlink:href="#linearGradient4323" x1="256.66" gradientUnits="userSpaceOnUse" x2="382.15"/>
<linearGradient id="linearGradient7867" xlink:href="#linearGradient4323" x1="284.16" gradientUnits="userSpaceOnUse" x2="381.76"/>
<linearGradient id="linearGradient7855" xlink:href="#linearGradient4323" x1="257.29" gradientUnits="userSpaceOnUse" x2="381.61"/>
<linearGradient id="linearGradient7857" xlink:href="#linearGradient4323" x1="275.35" gradientUnits="userSpaceOnUse" x2="381.78"/>
<linearGradient gradientTransform="matrix(-1.4193 .14211 .06769 -.47841 534.95 586.38)" id="linearGradient7823" xlink:href="#linearGradient4323" x1="266.21" gradientUnits="userSpaceOnUse" x2="381.59"/>
<linearGradient id="linearGradient7853" xlink:href="#linearGradient4323" x1="273.19" gradientUnits="userSpaceOnUse" x2="381.89"/>
<linearGradient id="linearGradient7863" xlink:href="#linearGradient4323" x1="278.15" gradientUnits="userSpaceOnUse" x2="382.21"/>
<linearGradient id="linearGradient7859" xlink:href="#linearGradient4323" x1="257.13" gradientUnits="userSpaceOnUse" x2="381.55"/>
<linearGradient id="linearGradient7865" xlink:href="#linearGradient4323" x1="283.1" gradientUnits="userSpaceOnUse" x2="381.99"/>
<linearGradient id="linearGradient7861" xlink:href="#linearGradient4323" x1="256.9" gradientUnits="userSpaceOnUse" x2="381.48"/>
<linearGradient id="linearGradient7871" y1="455.28" y2="483.31" x1="303.04" gradientUnits="userSpaceOnUse" x2="234.66">
<stop offset="0" stop-color="#e2001c"/>
<stop offset="1" stop-color="#b9001c"/>
</linearGradient>
<linearGradient id="linearGradient7869" xlink:href="#linearGradient4323" x1="285.22" gradientUnits="userSpaceOnUse" x2="381.22"/>
</defs>
<g fill="none" transform="translate(-188.05 -381.49)">
<path stroke="#d8d7d8" d="m235.45,531.4c-55.454,7.9894-56.315,23.793 12.268,51.635"/>
<path stroke="url(#linearGradient7671)" d="m349.39,417c8.5594,36.044 22.291,79.217 33.136,113.3"/>
<path stroke="url(#linearGradient7673)" d="m301.62,409.74c11.984,39.731 23.243,82.11 36.431,120.64"/>
<path stroke="url(#linearGradient7675)" d="m305.06,410.12c12.182,39.833 24.028,82.136 36.813,120.76"/>
<path stroke="url(#linearGradient7677)" d="m345.7,531.39c-13.52-39.19-24.3-80.45-36.3-120.25"/>
<path stroke="url(#linearGradient7679)" d="m298.5,409.53c11.511,38.452 22.37,83.342 35.989,120.59"/>
<path stroke="url(#linearGradient7681)" d="m290.36,407.38c10.181,35.37 24.855,87.918 35.977,121.72"/>
<path stroke="url(#linearGradient7683)" d="m294.47,408.35c10.66,37.444 24.01,86.375 35.947,121.26"/>
<path stroke="url(#linearGradient7685)" d="m286,406.02c9.1171,33.346 23.802,90.545 35.753,122.32"/>
<path stroke="url(#linearGradient7687)" d="m276.77,404.64c8.0318,29.936 26.485,95.455 36.324,122.93"/>
<path stroke="url(#linearGradient7689)" d="m281.56,405.24c8.4963,31.607 24.552,92.644 35.603,122.34"/>
<path stroke="url(#linearGradient7691)" d="m350.54,531.9c-13.65-38.77-24.82-79.02-36.94-118.71"/>
<path stroke="url(#linearGradient7693)" d="m355.38,532.67c-13.96-38.54-25.48-80.1-37.58-119.87"/>
<path stroke="url(#linearGradient7695)" d="m370.41,535.98c-12.65-37.71-25.69-79.49-38.34-121.27"/>
<path stroke="url(#linearGradient7697)" d="m360.73,533.69c-14.51-39.15-26.17-80.73-38.47-120.51"/>
<path stroke="url(#linearGradient7699)" d="m380.05,537.61c-12.21-38.95-26.41-80.64-36.39-120.86"/>
<path stroke="url(#linearGradient7701)" d="m375.5,536.49c-12.9-38.98-26.81-79.72-37.45-120.64"/>
<path stroke="url(#linearGradient7703)" d="m327.1,414.07c12.528,40.342 24.919,82.783 38.724,120.89"/>
<path stroke="url(#linearGradient7705)" d="m256.14,499.81c1.0256,10.211 3.151,20.819 4.7282,29.288"/>
<path stroke="url(#linearGradient7707)" d="m255.86,463.58c.7182,12.082 7.356,54.367 10.105,64.757"/>
<path stroke="url(#linearGradient7709)" d="m264.59,401.72c5.0008,23.714 25.769,102.76 32.449,125.47"/>
<path stroke="url(#linearGradient7711)" d="m291.44,527.06c-5.77-20.5-27.32-105.18-31.44-126.67"/>
<path stroke="url(#linearGradient7713)" d="m382.2,506.59c-30.488,4.8839-69.684,13.842-99.347,21.466"/>
<path stroke="url(#linearGradient7715)" d="m256.3,402.15c3.4524,19.829 25.178,106.18 29.919,125.04"/>
<path stroke="url(#linearGradient7717)" d="m276.24,528.79c-3.0335-14.463-17.989-77.62-20.16-94.522"/>
<path stroke="url(#linearGradient7719)" d="m256.08,452.42c3.2662,15.604 11.675,63.877 14.593,75.788"/>
<path stroke="url(#linearGradient7721)" d="m272.51,403.71c6.9187,27.509 25.806,97.994 35.355,123.86"/>
<path stroke="url(#linearGradient7723)" d="m382.51,516.35c-20.804,1.9496-44.992,7.0984-64.609,11.877"/>
<path stroke="url(#linearGradient7725)" d="m304.25,527.58c23.416-5.9501 52.514-12.102 78.183-15.99"/>
<path stroke="url(#linearGradient7727)" d="m333.32,529.66c14.761-3.8406 32.784-7.4134 48.306-8.3369"/>
<path stroke="url(#linearGradient7729)" d="m302.26,527.45c-7.77-24.54-27.79-98.59-33.53-124.48"/>
<path stroke="url(#linearGradient7731)" d="m383.04,501.43c-36.532,6.1505-91.978,19.736-126.71,28.296"/>
<path stroke="url(#linearGradient7733)" d="m256.55,521.19c39.748-10.294 84.75-23.349 126.28-31.255"/>
<path stroke="url(#linearGradient7735)" d="m256.26,525.04c39.674-9.6019 84.232-21.973 125.03-29.269"/>
<path stroke="url(#linearGradient7737)" d="m255.93,418.27c2.7224,18.5 21.377,94.125 25.042,110.42"/>
<path stroke="url(#linearGradient7739)" d="m377.54,416.49c.8105,4.7479 1.664,10.33 2.949,14.128l2.241,10.836"/>
<path stroke="url(#linearGradient7741)" d="m373.85,417.43c.9501,11.782 6.1752,25.345 8.4192,35.402"/>
<path stroke="url(#linearGradient7743)" d="m382.65,469.52c-4.8109-14.474-11.365-36.036-13.316-51.464"/>
<path stroke="url(#linearGradient7745)" d="m364.62,418.62c3.3247,20.628 11.572,44.368 17.642,63.625"/>
<path stroke="url(#linearGradient7747)" d="m382.3,498.88c-7.49-22.97-17.17-55.03-22.75-80.38"/>
<path stroke="url(#linearGradient7749)" d="m351.49,417.76c-14.724,3.9823-79.726,20.29-95.239,21.362"/>
<path stroke="url(#linearGradient7751)" d="m354.61,417.89c6.8948,30.097 18.08,65.207 27.654,94.299"/>
<path stroke="url(#linearGradient7753)" d="m255.87,444.7c20.78-2.15 86.05-20.98 105.62-25.95"/>
<path stroke="url(#linearGradient7755)" d="m256.03,433.84c11.817-.2804 73.069-15.943 83.237-17.613"/>
<path stroke="url(#linearGradient7757)" d="m255.89,428.88c6.7815,1.274 50.868-9.6937 54.734-10.761l15.489-3.6581"/>
<path stroke="#d7d5db" d="m229.13,590c13.49-30.827 12.076-30.45 18.793-45.731"/>
</g>
<g transform="translate(-188.05 -381.49)">
<path fill="url(#linearGradient7759)" stroke="#cec0c7" stroke-width=".5" d="m382.21,525.62-20.604-1.5404-34.02-4.6824-20.025-2.3128-20.793,.7066-17.01-1.1587-16.185,1.2859-16.356,1.9925-14.377,3.5942-16.431,10.269-8.2909,5.3241-3.5149,13.939 17.645-11.409 17.267-5.8004 14.148-3.6807 19.74-2.9942 35.429-1.5404 36.969,3.0807 29.781,5.1346 14.377,2.5673 2.0538,1.5404 .1977-14.315z"/>
</g>
<g fill="none">
<g stroke="#d7d5db" transform="translate(-188.05 -381.49)">
<path d="m233.31,591.64c13.49-30.827 8.8105-21.018 15.528-36.299"/>
<path d="m237.84,593.09c6.597-14.501 3.7315-9.4086 10.449-24.69"/>
</g>
<g transform="translate(-188.05 -381.49)">
<path stroke="url(#linearGradient7761)" d="m255.79,424.67c9.8652,.004 53.226-10.419 57.092-11.487l2.8102-.8932"/>
<path stroke="url(#linearGradient7763)" d="m255.79,415.79c9.8652,.004 36.901-7.3356 40.766-8.4031"/>
<path stroke="url(#linearGradient7765)" d="m255.7,411.17c9.8652,.004 25.11-4.4333 28.976-5.5008"/>
<path stroke="url(#linearGradient7767)" d="m255.97,407.54c10.047-1.0844 14.59-2.9821 18.455-4.0497"/>
<path stroke="url(#linearGradient7769)" d="m255.33,403.91c9.1396-1.4471 6.9712-.624 10.837-1.6916"/>
<path stroke="url(#linearGradient7771)" d="m254.84,420.23c9.8652,.004 46.159-8.7556 50.025-9.8231"/>
</g>
<g stroke="#d8d7d8" transform="translate(-188.05 -381.49)">
<path d="m248.86,414.59c-26.068,6.3568-23.25,15.655 .3628,30.837"/>
<path d="m248.86,409.33c-7.2034,3.4546-36.491,10.032 .3628,29.93"/>
<path d="m248.86,404.97c-23.71,5.0871-20.892,15.655 .3628,29.204"/>
<path d="m248.5,401.71c-20.808,4.7243-21.073,15.111 .5442,27.027"/>
<path d="m249.04,397.17c-20.264,2.9104-20.71,13.478 .1814,27.39"/>
<path d="m248.86,418.58c-27.338,5.6313-24.882,17.106 .3628,31.562"/>
</g>
</g>
<g fill="#e2dee2" fill-opacity=".493">
<g transform="translate(-188.05 -381.49)">
<path stroke="url(#linearGradient7773)" d="m250.86,387.98-10.767,3.6824"/>
<path stroke="url(#linearGradient7775)" d="m266.84,391.41-23.381-3.9489"/>
<path stroke="url(#linearGradient7777)" d="m376.21,413.41-23.405,3.8018"/>
</g>
<g stroke-width="1.054" transform="matrix(1.0239 0 0 .87852 11 -352.372)">
<path stroke="url(#linearGradient7779)" d="m157.77,442.26c-42.03-8.84-79.198-17.29-121.9-25.28"/>
<path stroke="url(#linearGradient7781)" d="m161.47,440.87c-40.57-8.59-76.635-17.56-119.01-24.96"/>
<path stroke="url(#linearGradient7783)" d="m167.6,440.29c-38.82-8.56-87.207-19.86-125.87-27.1"/>
<path stroke="url(#linearGradient7785)" d="m170.98,438.76c-36.8-8.05-94.539-21.78-131.45-28.96"/>
<path stroke="url(#linearGradient7787)" d="m175.6,436.42c-34.1-7.77-74.86-17.52-111.42-23.72"/>
<path stroke="url(#linearGradient7789)" d="m180.99,434.59c-32.14-7.41-75.72-17.16-109.74-22.99"/>
<path stroke="url(#linearGradient7791)" d="m179.24,433.39c-31.64-6.54-69.86-17.02-99.663-22.95"/>
<path stroke="url(#linearGradient7793)" d="m148.62,424.38c-58.243,9.8068 10.451-1.9664-46.329,8.3098"/>
<path stroke="url(#linearGradient7795)" d="m143.62,423.17c-56.353,9.4487 6.9334-1.6916-48.13,8.6684"/>
<path stroke="url(#linearGradient7797)" d="m138.95,422.18c-54.768,8.9319 3.2976-.6804-48.121,8.6225"/>
<path stroke="url(#linearGradient7799)" d="m135.07,420.74c-51.756,8.4917 2.0157,.0834-47.713,8.8797"/>
<path stroke="url(#linearGradient7801)" d="m131.49,419.71c-48.702,7.7706-.7547,.3323-47.786,9.3326"/>
<path stroke="url(#linearGradient7803)" d="m127.15,418.91c-46.134,7.2943-6.9014,.4081-50.831,8.7616"/>
<path stroke="url(#linearGradient7805)" d="m122.05,417.5c-43.564,7.4222-10.371,2.2587-50.853,9.3187"/>
<path stroke="url(#linearGradient7807)" d="m178.44,432.43-42.309,7.6297"/>
<path stroke="url(#linearGradient7809)" d="m173.22,431.69-43.532,7.1296"/>
<path stroke="url(#linearGradient7811)" d="m169.53,430.36c-54.806,8.8476 7.5697-1.7738-43.897,7.4516"/>
<path stroke="url(#linearGradient7813)" d="m165.64,429.31c-51.792,8.4122 4.6971-1.3939-45.076,7.327"/>
<path stroke="url(#linearGradient7815)" d="m161.33,428.35c-48.733,7.6953 .8692-1.585-46.214,7.3452"/>
<path stroke="url(#linearGradient7817)" d="m156.68,426.89c-46.162,7.2229-1.6659-.4885-45.643,7.7993"/>
<path stroke="url(#linearGradient7819)" d="m152.79,425.51c-43.599,7.3557-6.1469,1.1463-46.663,8.1448"/>
<path stroke="url(#linearGradient7821)" d="m41.201,418.73c37.166-6.2164-9.1752,2.5061 47.345-8.1546"/>
<path stroke="url(#linearGradient7823)" d="m42.719,420.6c56.145-9.8364-4.2025,1.3962 50.583-9.3336"/>
<path stroke="url(#linearGradient7825)" d="m48.214,421.68c54.583-9.3106 .5063,.8118 51.69-8.8394"/>
<path stroke="url(#linearGradient7827)" d="m52.743,422.67c51.578-8.8492 3.6204,.1407 53.136-8.994"/>
<path stroke="url(#linearGradient7829)" d="m59.159,423.49c48.549-8.1087 4.4638,.0913 51.248-9.2238"/>
<path stroke="url(#linearGradient7831)" d="m62.943,424.55c45.994-7.6151 6.927-.436 50.629-9.0837"/>
<path stroke="url(#linearGradient7833)" d="m67.285,425.48c43.396-7.7209 10.705-1.808 51.02-9.1443"/>
<path stroke="url(#linearGradient7835)" d="m181.89,434.22-40.179,7.1917"/>
</g>
</g>
<g fill="none">
<g transform="translate(-188.05 -381.49)">
<path stroke="#e2001c" stroke-width="3" d="m248.57,596.46c-133.9-32.38-7.96-92.03 134.12-55.82"/>
</g>
<g stroke="#d8d7d8" transform="translate(-188.05 -381.49)">
<path d="m245.41,513.08c-60.986,8.8056-57.533,23.092 8.5254,51.153"/>
<path d="m211.62,529.96c-18.95,4.926-28.459,17.819 37.6,45.88"/>
</g>
<g transform="translate(-188.05 -381.49)">
<path stroke="#d2001c" stroke-width="3" d="m253.09,385.11c-6.6677-1.2296-28.766,5.7033-3.5548,12.241"/>
<path stroke="#d7d5db" d="m190.7,558.2c21.11-48.96 37.49-105.97 46.39-169.87"/>
<path stroke="url(#linearGradient7837)" d="m383.38,460.63c-40.553,9.5144-83.975,18.455-123.37,28.65"/>
<path stroke="url(#linearGradient7839)" d="m381.93,457.09c-40.438,9.323-86.916,18.899-126.23,29.504"/>
<path stroke="url(#linearGradient7841)" d="m382.37,453.54c-39.131,8.9364-88.476,17.848-126.55,28.968"/>
<path stroke="url(#linearGradient7843)" d="m257.26,493.97c40.002-10.887 84.454-19.964 124.96-29.303"/>
<path stroke="url(#linearGradient7845)" d="m381.78,450.08c-38.068,8.1533-90.473,18.433-126.08,28.03"/>
<path stroke="url(#linearGradient7847)" d="m255.71,498.58c39.592-11.044 85.83-21.104 126.24-30.562"/>
<path stroke="url(#linearGradient7849)" d="m382.76,446.15c-35.967,7.813-93.088,19.607-127.55,28.463"/>
<path stroke="url(#linearGradient7851)" d="m257.16,502.82c39.374-11.37 84.508-21.481 125-30.913"/>
<path stroke="url(#linearGradient7853)" d="m382.93,441.94c-33.877,6.8859-94.339,19.428-126.83,29.246"/>
<path stroke="url(#linearGradient7855)" d="m257.06,507.72c40.027-11.876 85.206-22.299 125.72-31.935"/>
<path stroke="url(#linearGradient7857)" d="m383.08,437.24c-32.101,6.3818-97.007,20.905-127.37,29.962"/>
<path stroke="url(#linearGradient7859)" d="m382.59,480.44c-41.084,9.8251-87.293,20.673-126.23,31.921"/>
<path stroke="url(#linearGradient7861)" d="m255.94,517.05c38.469-10.124 84.295-22.124 126.83-31.978"/>
<path stroke="url(#linearGradient7863)" d="m382.87,432.64c-30.233,7.1576-99.18,23.136-127.25,30.132"/>
<path stroke="url(#linearGradient7865)" d="m256.03,457.08c36.471-6.5016 92.224-20.727 126.87-29.621"/>
<path stroke="url(#linearGradient7867)" d="m255.63,453.31c30.44-5.18 97.71-23.13 127.3-31.04"/>
<path stroke="url(#linearGradient7869)" d="m382,417.76c-23.358,6.175-100.4,27.378-126.03,31.512"/>
<path stroke="url(#linearGradient7871)" stroke-width="3" d="m236.16,534.1 65.38-126.04"/>
</g>
<g stroke="#d7d5db" transform="translate(-188.05 -381.49)">
<path d="m192.67,561.89c21.11-48.97 40.83-112.9 49.73-176.79"/>
<path d="m194.85,567.69c21.108-48.966 43.003-119.24 51.897-183.14"/>
<path d="m198.12,571.68c21.108-48.966 41.88-114.24 50.775-178.13"/>
<path d="m200.84,575.67c21.11-48.96 39.21-92.32 48.11-156.22"/>
<path d="m204.83,577.85c21.108-48.966 35.16-75.162 44.054-139.06"/>
<path d="m208.82,579.66c21.108-48.966 28.386-55.746 40.183-121.09"/>
<path d="m212.99,583.29c21.108-48.966 21.871-40.245 35.844-105.59"/>
<path d="m217.53,584.92c21.108-48.966 18.968-42.059 31.128-87.451"/>
<path d="m220.97,586.01c21.108-48.966 21.871-47.501 27.5-73.666"/>
<path d="m224.96,587.83c14.941-31.189 16.792-41.696 23.509-56.977"/>
</g>
<g stroke="#d8d7d8" transform="translate(-188.05 -381.49)">
<path d="m199.85,537.52c-3.7265,5.5133-17.772,13.167 48.286,41.228"/>
<path d="m220.48,525.26c-30.288,5.806-35.867,18.893 30.191,46.954"/>
<path d="m242.78,517.34c-59.444,8.7149-56.354,22.457 9.7045,50.518"/>
<path d="m248.32,507.82c-62.347,9.2591-58.984,23.273 7.0743,51.334"/>
<path d="m245.23,504.38c-55.454,7.9894-54.449,22.366 11.609,50.427"/>
<path d="m247.41,499.66c-55.454,7.9894-53.724,22.185 1.6325,45.711"/>
<path d="m248.5,495.31c-55.454,7.9894-52.091,22.548 .907,45.53"/>
<path d="m250.31,488.41c-55.454,7.9894-51.184,23.999-1.0884,44.26"/>
<path d="m252.13,482.97c-55.454,7.9894-49.733,22.003-3.2651,42.809"/>
<path d="m254.3,476.44c-55.454,7.9894-50.821,22.548-4.5348,42.99"/>
<path d="m248.86,471.36c-45.659,7.0824-42.296,23.273 .907,40.269"/>
<path d="m249.59,467.19c-44.57,6.5382-40.663,18.013 0,39.362"/>
<path d="m248.86,461.2c-41.849,7.808-37.398,21.278 1.0884,38.999"/>
<path d="m249.22,456.13c-40.217,7.9894-36.673,23.273 .3628,37.73"/>
<path d="m249.59,451.95c-39.31,5.4499-34.677,19.645 0,36.46"/>
<path d="m249.22,447.06c-36.045,3.636-34.133,19.464 0,35.372"/>
<path d="m249.4,441.98c-35.319,6.7196-31.775,18.738 .3628,34.827"/>
<path d="m249.59,437.8c-32.961,4.3615-31.594,16.562 .1814,34.102"/>
<path d="m249.22,432.91c-30.784,2.9104-29.78,16.924 .3628,33.558"/>
<path d="m248.86,428.37c-30.059,4.7243-27.24,15.655 .5442,32.832"/>
<path d="m249.22,424.38c-29.333,5.4499-26.333,15.292 .1814,31.2"/>
<path d="m249.22,391.55c-19.175,1.0965-19.078,13.659 .1814,27.572"/>
<path d="m250.89,386.58c-20.811,1.2044-18.566,13.132-2.1024,24.433"/>
<path d="m252.64,383.75c-18.534,.7921-21.655,5.3781-3.8543,20.913"/>
</g>
</g>
<g transform="translate(-188.05 -381.49)">
<path fill="#fff" stroke="#d2c1c8" stroke-linejoin="round" stroke-linecap="round" color="#000" stroke-width=".5" d="m196.36,547.94c.7004,2.5323 .2594,5.2224 1.5562,1.7059-.1663,1.1779 .2435,3.2137 .2306,4.4042-.0987,1.1394 1.1078,.972 1.2817,2.0813 .1946,.9351 .5684,1.7863 .8724,2.6733 .37,.8304 .7104,1.6698 1.1148,2.4795 .5327,1.0086 1.1566,1.9474 1.8562,2.8068 .6672,.9023 1.425,1.7402 2.2388,2.4628 .7808,.7418 1.5029,1.5746 2.3568,2.2053 .813,.6985 1.5869,1.4698 2.4946,1.9972 .8846,.637 1.776,1.2684 2.7102,1.8032 1.0008,.7127 2.0914,1.2002 3.1565,1.7558 1.0784,.5347 2.1624,1.0463 3.2635,1.5167 1.0702,.5949 2.2077,.9856 3.283,1.5676 1.0654,.5347 2.1826,.9097 3.2594,1.4059 1.1449,.501 2.3351,.8238 3.4956,1.2646 1.3987,.4553 2.834,.7092 4.234,1.168 1.3471,.4206 2.718,.6608 4.0692,1.0522 1.153,.1903 2.276,.51 3.4164,.7772 1.081,.2761 2.1977,.1606 3.2765,.4152 1.0682,.2892 2.1584,.4088 3.251,.4751 .6045,1.4362 .6618,8.7542 1.9306,12.597-.1449-.0623-1.1287,.8541-1.2736,.7918-.9562-.3506-1.345-.298-2.2881-.6947-.9785-.3733-2.281-.838-3.3128-.7957-1.0956-.006-2.1922-1.1274-3.2857-1.2145-1.1054-.1057-1.6392-.2985-2.7289-.5384-1.1036-.1192-2.2173-.1617-3.3005-.4639-1.1391-.295-2.2882-.5119-3.4266-.8091-1.3394-.3888-2.7051-1.7586-4.0313-2.2133-1.4267-.3981-2.7414-.5236-4.1425-1.0368-1.1901-.3945-2.8005-.7877-3.9591-1.2979-1.105-.4497-2.0672-.4933-3.1424-1.0333-1.0828-.5218-2.0483-.977-3.1221-1.5248-1.1014-.4998-2.0607-1.142-3.1435-1.6951-1.0917-.5345-2.0133-.9982-3.0528-1.6596-.9245-.5728-1.6937-1.1776-2.5827-1.8224-.8931-.6108-1.5753-1.2079-2.4073-1.9244-.8356-.6947-2.1443-1.0886-2.9281-1.8588-.829-.7862-1.6514-2.3056-2.3233-3.2791-.7106-.9344-1.7999-1.3451-2.3732-2.4012-.4427-.8441-.3735-1.5945-.7658-2.4698-.3149-.9488-1.0014-.8621-1.2209-1.8542-.1726-1.1643-1.0232-2.4476-.9227-3.6431 .005-1.231 .2878-3.1725 .4028-4.3978 .1398-1.1731 1.0425-2.3963 1.2909-3.534 .3034-1.3647 .8429-2.6184 1.1231-3.99l2.8702-5.6308 .699,2.3767z"/>
<path fill="none" stroke="#ce001c" stroke-width="3" d="m255.94,399.34s70.971,16.364 106.47,18.39c5.7169,.3264 18.971-3.3521 18.971-3.3521"/>
<path fill="#d3001c" stroke="#d0001c" d="m381.84,542.46c.1992,2.6168 .9959,3.4163 2.2705,4.2886 2.1909,.533 2.9477,.4846 4.4216-1.163l-.48-124.16c-.1593-6.6873-2.1112-11.049-4.7801-12.212l-123.51-27.17c-7.2202-.6621-9.8775,4.4382-10.81,12.636l-.478,202.94c1.6748,3.0749 3.7634,4.8557 7.6481,1.0176v-198.73c.3639-4.597 1.127-8.7084 5.2581-8.7225l117.11,22.679c2.39,1.4538 3.7046,2.7621 4.3021,6.978l-.956,121.61z"/>
</g>
<g fill="none">
<g stroke-linecap="round">
<g stroke="#fff" transform="translate(-188.05 -381.49)">
<path filter="url(#filter7323)" d="m251.99,599.15-.3408-201.35c.207-5.8383 .0333-6.9117 4.283-11.122"/>
<path filter="url(#filter7323-4)" stroke-width="1.273" d="m386.49,591.78-.8125-203.97c.207-5.8383-.1206-6.5374 3.5133-12.994" transform="matrix(-1 0 0 .61684 772.01 181.07)"/>
</g>
<g transform="translate(-188.05 -381.49)">
<path filter="url(#filter7387)" stroke="url(#linearGradient7873)" d="m266.28,386.47 105.27,23.313"/>
</g>
</g>
<g transform="translate(-188.05 -381.49)">
<path filter="url(#filter7491)" stroke="#dcdce2" stroke-width="1.793" d="m195.25,559.5c.2489-.0791 .8789,.107 1.0928,0 .1536-.0768 .2107-.2875 .3643-.3643 .1086-.0543 .2784,.0859 .3643,0 .0859-.0859-.0859-.2784 0-.3643 .0859-.0859 .2784,.0859 .3643,0 .0859-.0859-.0859-.2784 0-.3643 .7537-.7537-.0295,1.1517 .7286-.3643 .0543-.1086-.0859-.2784 0-.3643 .0859-.0859 .2784,.0859 .3643,0 .0859-.0859 .0859-.2784 0-.3643-.5343-.5343-.3278,.6921-.3643,.7286-.0859,.0859-.2784-.0859-.3643,0-.0859,.0859 .0859,.2784 0,.3643-.0859,.0859-.2784-.0859-.3643,0-.0745,.0745 .0722,.9484 0,1.0928-.0768,.1536-.2875,.2107-.3643,.3643-.0203,.0407-.0203,1.7807 0,1.8214 .0768,.1536 .2875,.2107 .3643,.3643 .1145,.229-.1145,1.2281 0,1.4571 .0768,.1536 .2875,.2107 .3643,.3643 .1145,.229-.1145,1.2281 0,1.4571 .0768,.1536 .2875,.2107 .3643,.3643 .1086,.2172-.1717,.5568 0,.7286 .0859,.0859 .2784-.0859 .3643,0 .1717,.1717-.1717,.5568 0,.7285 .0859,.0859 .2784-.0859 .3643,0 .1717,.1717-.1717,.5568 0,.7286 .0859,.0859 .2784-.0859 .3643,0 .7537,.7537-1.1518-.0295 .3643,.7286 .1086,.0543 .2784-.0859 .3643,0 .1821,.1821-.1821,.9107 0,1.0928 .1717,.1717 .4982-.0768 .7286,0 .1629,.0543 .2107,.2875 .3643,.3643 .1086,.0543 .2784-.0859 .3643,0 .0859,.0859-.0859,.2784 0,.3643 .0859,.0859 .2557-.0543 .3643,0 .1536,.0768 .2107,.2875 .3643,.3643 .1086,.0543 .2784-.0859 .3643,0 .0859,.0859-.0859,.2784 0,.3643 .1717,.1717 .5568-.1717 .7285,0 .0859,.0859-.0859,.2784 0,.3643 .1218,.1218 .6068-.1218 .7286,0 .0859,.0859-.0859,.2784 0,.3643 .0876,.0876 1.3694-.0877 1.4571,0 .0859,.0859-.0859,.2784 0,.3643 .0872,.0872 1.4571-.0828 1.4571,0 0,.1214-.4857,0-.3643,0 .2429,0 .5113,.1086 .7286,0 .1086-.0543-.0859-.2784 0-.3643 .0364-.0364 1.0564-.0364 1.0928,0 .1717,.1717-.1086,.5113 0,.7285 .0768,.1536 .2875,.2107 .3643,.3643 .0968,.1937-.0968,.5349 0,.7286 .1536,.3072 .575,.4214 .7286,.7286 .1086,.2172-.1086,.5113 0,.7285 1.2081,1.2082-.1717-.3434 .3643,.7286 .0768,.1536 .2875,.2107 .3643,.3643 .0543,.1086-.0543,.2557 0,.3643 .758,1.516-.0251-.3894 .7286,.3643 .0859,.0859-.0859,.2784 0,.3643 .0859,.0859 .2784-.0859 .3643,0 .0859,.0859-.0859,.2784 0,.3643 .0859,.0859 .2784-.0859 .3643,0 .0859,.0859-.0859,.2784 0,.3643 .0859,.0859 .2784-.0859 .3643,0 .0859,.0859-.0859,.2784 0,.3643 .0859,.0859 .2784-.0859 .3643,0 .0859,.0859-.0859,.2784 0,.3643 .1717,.1717 .5568-.1717 .7286,0 .0859,.0859-.0859,.2784 0,.3643 .1717,.1717 .5568-.1717 .7285,0 .0859,.0859-.0859,.2784 0,.3643 .0877,.0877 1.3694-.0876 1.4571,0 .0859,.0859-.0859,.2784 0,.3643 .0876,.0877 1.3694-.0877 1.4571,0 .0859,.0859-.0859,.2784 0,.3643 .0859,.0859 .2429,0 .3643,0h6.557c.1214,0 .2784-.0859 .3643,0 .0859,.0859-.0543,.2557 0,.3643 .0768,.1536 .2875,.2107 .3643,.3643 .0543,.1086-.0543,.2557 0,.3643 .0768,.1536 .2875,.2107 .3643,.3643 .0543,.1086-.0543,.2557 0,.3643 .0768,.1536 .2875,.2107 .3643,.3643 .0543,.1086-.0859,.2784 0,.3643 .0859,.0859 .2557-.0543 .3643,0 .0985,.0492 .6301,.6793 .7285,.7286 .1086,.0543 .2784-.0859 .3643,0 .0859,.0859-.0859,.2784 0,.3643 .0859,.0859 .2557-.0543 .3643,0 1.2081,1.2081-.3434-.1717 .7285,.3643 .1536,.0768 .2107,.2875 .3643,.3643 .2212,.1106 1.9644-.1106 2.1856,0 .1536,.0768 .2107,.2875 .3643,.3643 .2516,.1258 1.6935-.1279 1.8214,0 .0859,.0859-.0859,.2784 0,.3643 .0859,.0859 .2428,0 .3643,0h6.1927c.1214,0 .2557-.0543 .3643,0 .1536,.0768 .2107,.2875 .3643,.3643 .1086,.0543 .2784-.0859 .3643,0 .0859,.0859 .1214,.3643 0,.3643-.1214,0 0-.4857 0-.3643 0,.2428-.1086,.5113 0,.7285 .0543,.1086 .2784-.0859 .3643,0 .0859,.0859-.0859,.2784 0,.3643 .0859,.0859 .2784-.0859 .3643,0 .7537,.7537-1.1518-.0295 .3643,.7286 .1086,.0543 .2784-.0859 .3643,0 .0859,.0859-.0859,.2784 0,.3643 .0859,.0859 .2784-.0859 .3643,0 .0859,.0859-.0859,.2784 0,.3643 .0859,.0859 .2784-.0859 .3643,0 .0859,.0859-.0859,.2784 0,.3643 .0859,.0859 .2784-.0859 .3643,0 .0859,.0859-.0859,.2784 0,.3643 .1717,.1717 .5113-.1086 .7286,0 .1536,.0768 .2107,.2875 .3643,.3643 .1086,.0543 .2784-.0859 .3643,0 .0859,.0859-.0859,.2784 0,.3643 .0745,.0745 .9484-.0722 1.0928,0 .9003,.4501-.1257,.3643 .7285,.3643" transform="matrix(1.0559 0 0 1.1779 -13.967 -102.43)"/>
</g>
</g>
</svg>
