<svg xmlns="http://www.w3.org/2000/svg" viewBox="0 0 250 250" xmlns:xlink="http://www.w3.org/1999/xlink">
<defs>
<linearGradient id="linearGradient859" y1=".508" x1="-1.012" y2=".703" x2=".207">
<stop offset="0" stop-color="#fff" stop-opacity=".5"/>
<stop offset="1" stop-color="#fff" stop-opacity=".25"/>
</linearGradient>
</defs>
<g fill-rule="evenodd">
<g fill="#ffc62a" stroke="#ff9500" stroke-width="2.5" transform="translate(-3.75)">
<path d="m153.91,222.46l-62.308,18.63-48.069-42.16 14.242-60.8 62.315-18.63 48.07,42.17-14.25,60.79z"/>
<path d="m233.79,140.35l-62.31,18.63-48.07-42.16 14.24-60.794 62.31-18.631 48.07,42.164-14.24,60.791z"/>
<path d="m120.07,116l-62.311,18.63-48.07-42.164 14.242-60.794 62.312-18.631 48.067,42.164-14.24,60.795z"/>
</g>
<g stroke-width="1.25" transform="translate(-3.75)">
<path fill="url(#linearGradient859)" d="m84.335,16.584s-58.763,15.234-58.763,17.955c0,2.72-13.602,52.233-13.058,57.13 0,2.176 39.719,39.171 44.616,39.171-19.043-44.612-29.381-99.022 27.205-114.26z"/>
<path fill="url(#linearGradient859)" d="m197.51,40.524s-58.76,15.234-58.76,17.955c0,2.72-13.6,52.231-13.06,57.131 0,2.18 39.72,39.17 44.62,39.17-19.04-44.61-29.38-99.022 27.2-114.26z"/>
<path fill="url(#linearGradient859)" d="m118.08,122.14s-58.766,15.23-58.766,17.95-13.602,52.24-13.058,57.13c0,2.18 39.719,39.18 44.616,39.18-19.044-44.62-29.381-99.03 27.208-114.26z"/>
</g>
</g>
</svg>
