<svg xmlns="http://www.w3.org/2000/svg" viewBox="0 0 1007 1539" xmlns:xlink="http://www.w3.org/1999/xlink">
<defs>
<linearGradient id="linearGradient32171" xlink:href="#linearGradient31255" x1="35.173" gradientUnits="userSpaceOnUse" x2="317.69"/>
<linearGradient id="linearGradient33070" y1="21.863" y2="6.149" x1="-119.16" gradientUnits="userSpaceOnUse" x2="254.67">
<stop offset="0"/>
<stop offset="1" stop-color="#fff"/>
</linearGradient>
<linearGradient id="linearGradient31253" xlink:href="#linearGradient31255" x1="-81.426" gradientUnits="userSpaceOnUse" x2="309.92"/>
<linearGradient id="linearGradient30339" y1="-203.78" y2="-200.75" x1="157.28" gradientUnits="userSpaceOnUse" x2="279.89">
<stop offset="0"/>
<stop offset="1" stop-color="#fff"/>
</linearGradient>
<linearGradient id="linearGradient31255">
<stop offset="0"/>
<stop offset="1" stop-color="#fff"/>
</linearGradient>
<linearGradient id="linearGradient30349" x1="194.27" gradientUnits="userSpaceOnUse" x2="313.65">
<stop offset="0"/>
<stop offset="1" stop-color="#fff"/>
</linearGradient>
</defs>
<g transform="translate(160.05 608.09)">
<g fill-rule="evenodd">
<g fill="#fff74d">
<path d="m417.7,785.43c-3.48-.85 47.76-670.13 26.77-776.94 45.86,4.014 89.43,2.566 109.08,21.331 131.95,142.61-95.95,756.62-95.95,756.62l-39.9-1.01z" transform="translate(-160.05 -608.09)"/>
<path d="m493.46,794.52c-3.47-.85 344.75-525.68 170.21-716.33-.6-11.138 100.54,70.25 119.19,137.5 51.13,243.63-276.77,584.89-276.77,584.89l-12.63-6.06z" transform="translate(-160.05 -608.09)"/>
<path d="m344.97,795.53c-11.56-47.32-318.93-604.47-97.48-765.82 35.76-15.186 93.67-20.358 91.91-19.082-108.47,78.973 39.41,777.83 39.41,777.83l-33.84,7.07z" transform="translate(-160.05 -608.09)"/>
<path d="m298.5,808.66c-58.02-82.67-245.18-260.01-274.26-473.89 7.483-175.79 115.89-248.65 115.15-247.37-204.73,206.93 177.8,714.19 177.8,714.19l-18.69,7.07z" transform="translate(-160.05 -608.09)"/>
</g>
<g fill="#ff1a1a">
<path d="m257.65,177.33c-3.47-.85 47.76-670.13 26.77-776.93-37.98-6.09-103.31,.86-105.07,2.14-108.47,78.97 39.41,777.82 39.41,777.82l38.89-3.03z"/>
<path d="m333.41,186.43c-3.47-.86 344.75-525.68 170.21-716.33-.6-11.14-129.77-67.14-110.11-48.37 131.94,142.61-95.96,756.61-95.96,756.61l35.86,8.09z"/>
<path d="m365.74,203.6c213.03-210.98 348.8-374.7 257.07-596 51.13,243.62-276.77,584.89-276.77,584.89l19.7,11.11z"/>
<path d="m184.92,187.44c-11.56-47.32-318.93-604.48-97.48-765.83 35.76-15.18-76.038,23.09-108.1,57.7-204.73,206.92 177.8,714.19 177.8,714.19l27.78-6.06z"/>
<path d="m138.45,200.57c-58.02-82.68-245.18-260.01-274.25-473.89 .5,1.11-13.56,234.48 265.67,478.94l8.58-5.05z"/>
</g>
<path opacity=".189" fill="url(#linearGradient30339)" d="m257.65,177.33c-3.47-.85 47.76-670.13 26.77-776.93-37.98-6.09-103.31,.86-105.07,2.14-108.47,78.97 39.41,777.82 39.41,777.82l38.89-3.03z"/>
</g>
<path fill="none" stroke="#1c031c" stroke-width="5.251" d="m357.81,213.24l-19.08,24.34c-7.68,36.79-13.36,43.31-15.65,44.07-91.48,30.06-139.09,5.46-142.77-4.25-6.76-17.78-47.58-67.71-51.83-71.42-251.95-220.05-261.25-444.83-261.25-444.83s-40.41-307.09 301.02-358.6c2.02,3.03 21.08-12.74 170.72,2.02 17.93,1.76 328.49,50.57 311.12,364.66 4.41,169.75-292.28,444.01-292.28,444.01z"/>
<g fill-rule="evenodd">
<path opacity=".194" fill="url(#linearGradient30349)" d="m344.97,795.53c-11.56-47.32-318.93-604.47-97.48-765.82 35.76-15.186 93.67-20.358 91.91-19.082-108.47,78.973 39.41,777.83 39.41,777.83l-33.84,7.07z" transform="translate(-160.05 -608.09)"/>
<path opacity=".244" fill="url(#linearGradient31253)" d="m184.92,187.44c-11.56-47.32-318.93-604.48-97.48-765.83 35.76-15.18-76.038,23.09-108.1,57.7-204.73,206.92 177.8,714.19 177.8,714.19l27.78-6.06z"/>
<path opacity=".344" fill="url(#linearGradient32171)" d="m298.5,808.66c-58.02-82.67-245.18-260.01-274.26-473.89 7.483-175.79 115.89-248.65 115.15-247.37-204.73,206.93 177.8,714.19 177.8,714.19l-18.69,7.07z" transform="translate(-160.05 -608.09)"/>
<path opacity=".467" fill="url(#linearGradient33070)" d="m138.45,200.57c-58.02-82.68-245.18-260.01-274.25-473.89 .5,1.11-13.56,234.48 265.67,478.94l8.58-5.05z"/>
</g>
</g>
</svg>
