<svg xmlns="http://www.w3.org/2000/svg" viewBox="0 0 248.64 511.28" xmlns:xlink="http://www.w3.org/1999/xlink">
<defs>
<linearGradient id="linearGradient4651">
<stop offset="0" stop-color="#ec8d45"/>
<stop offset=".5" stop-color="#f2ba46" stop-opacity=".498"/>
<stop offset="1" stop-color="#f9e748" stop-opacity="0"/>
</linearGradient>
<linearGradient gradientTransform="matrix(-.80919 -.24092 .61013 -1.6788 483.55 1229.6)" id="linearGradient6166" xlink:href="#linearGradient4651" x1="690.7" gradientUnits="userSpaceOnUse" x2="832.66"/>
<linearGradient gradientTransform="matrix(-1.1318 -.50655 .70326 -1.6384 651.33 1397.9)" id="linearGradient6168" xlink:href="#linearGradient4651" x1="690.7" gradientUnits="userSpaceOnUse" x2="832.66"/>
<linearGradient gradientTransform="matrix(2.9164 1.0887 -1.2144 2.2576 -559.71 -540.36)" id="linearGradient6170" xlink:href="#linearGradient4651" x1="287.53" gradientUnits="userSpaceOnUse" x2="350.8"/>
<linearGradient gradientTransform="matrix(-1.132 -.5061 .70063 -1.6318 649.46 1395.1)" id="linearGradient6172" xlink:href="#linearGradient4651" x1="641.45" gradientUnits="userSpaceOnUse" x2="847.03"/>
<linearGradient gradientTransform="matrix(1.397 .27243 -.31042 1.3514 -801.01 -157.79)" id="linearGradient6180" x1="616.51" gradientUnits="userSpaceOnUse" x2="763.43">
<stop offset="0"/>
<stop offset="1" stop-opacity="0"/>
</linearGradient>
<linearGradient gradientTransform="matrix(.99975 -.02241 .02241 .99975 -7.1116 14.736)" id="linearGradient8139" x1="8.749" gradientUnits="userSpaceOnUse" x2="233.05">
<stop offset="0" stop-color="#a03f00"/>
<stop offset="1" stop-color="#a03f00" stop-opacity="0"/>
</linearGradient>
</defs>
<g fill-rule="evenodd">
<g>
<path fill="#a40" stroke="url(#linearGradient6180)" stroke-width=".2" d="m26.669,157.04c-19.593,353.35-19.593,353.35-19.593,353.35l-.1801,.79 224.78-314.31-175.47,243.81-49.215,70.29 224.42-314.26"/>
<path fill="url(#linearGradient8139)" d="m39.698,163.55l-14.245,23.44c5.641,1.65 39.351-17.69 39.332-17.14l-38.874,41.36 60.804-35.92-62.907,78.77 91.692-73.27-94.984,132.53 122.31-126.5-127.14,182.29 185.16-173.12-188.47,223.9 217.71-222.32-218.54,259.6 34.209-1.12-33.472-32.01 49.89,6.51-48.976-40.45 68.435,15.97-64.869-50.22 86.123,19.3-83.562-45.42 102.9,20.07-103.09-56.71 119.55,33.02-117.17-58.35 137.08,30.45-136.53-62.79 150.69,42.91-147.8-82.46 158.55,66.87-157.93-74.96 166.25,64.94-164.68-93.82 172.57,81.73-35.39-50.78 49.18,32.15 .29,.3"/>
<path fill="#d45500" fill-opacity=".299" d="m192.01,240.41l-6.44,20.91c-5.39-1.01-22.72-76.12-23.09-75.66l6.19,99.33-24.7-98.85-3.07,137.08-16.42-136.7-21.7,189.1-5.381-188.72-29.084,236.18-21.239-235.05-12.659,283.32-9.229-283.14-17.702,305.5 2.0422-9.19 20.079-5.53-18.283-29.87 42.652-5.86-41.501-19.71 61.624-7.84-59.828-22.88 77.789-2.31-76.927-30.19 101.59-4.75-99.729-19.54 116.1-2.2-114.44-31.46 134.27,3.97-132.93-29.28 143.65,14.07-142.79-29.58 155.4,12.45-153.82-35.87 172.31,10.21-170.89-21.12 75.201-40.36-76.269,30.07 1.332-14.5"/>
</g>
<g stroke-opacity=".811">
<g transform="translate(-57.177 26.769)">
<path fill="#f55" stroke="url(#linearGradient6172)" stroke-width="4.3" d="m160.21,58.948c54.31-25.044-17.85-22.459 49.16-36.486 5.15-12.866 90.69-64.29 80.6-41.191-9.05,44.813-24.97,95.224-.25,145.84 3.61,24.68 38.81,72.42-18.75,67-36.43-16.21-28.6-49.39-63.8-21.1-143.72,33.68 88.8-73.41-56.91-14.2-15.46-35.35-62.472,3.96-90.841-30.82-3.102-26.06 72.971-21.72 78.641-45.843 1.6-3.654 42.92-16.44 22.15-23.199z"/>
</g>
<g stroke-width="2.2" transform="translate(-57.177 26.769)">
<path fill="#ff2a2a" stroke="url(#linearGradient6170)" d="m175.47,67.256c46.29-27.221-12.39-20.14 43.18-37.734 5.36-12.525 79.37-66.751 69.07-44.212-11.46,43.053-29.01,91.851-13.66,138.24 .64,23.15 24.75,66.14-21.37,64.7-28.01-13.03-31.4-42.15-62.52-13.08-172.43-84.972 199.98,37.55-20.57-18.65-9.26-32.51-62.37,13.79-82.137-17.36-.107-24.5 61.107-25.27 67.927-48.495 1.63-3.566 36.28-18.336 20.08-23.409z"/>
<path fill="#c83737" stroke="url(#linearGradient6168)" d="m186.57,70.123c38.04-30.353-6.3-17.888 37.23-40.02 5.72-12.405 68.06-71.088 57.26-48.701-14.54,41.958-34.39,89.959-29.6,132.45-2.8,21.9 8.94,60.32-24.92,63.46-18.86-9.6-17.25-36.9-44.34-6.28-115.66,5.61 180.85-34.89-12.56-15.67-2.25-29.93-48.02,19.19-58.23-8.41 3.38-23.23 48.71-29.96 57.02-52.657 1.71-3.542 29.39-20.946 18.14-24.17z"/>
<path fill="#f55" stroke="url(#linearGradient6166)" d="m212.79,82.396c29.8-36.258-3.68-15.448 29.73-45.141 4.91-12.793 54.24-80.58 45.03-57.398-13.07,42.28-30.38,91.309-29.18,130.1-3.27,21.08 3.3,54.62-21.91,64.54-43.69,12.13-10.18-34.15-31.9,.11 54.23-2.84-19.31,43.34-8.98-8.93-.02-27.55-36.57,27.87-42.6,4.13 3.78-22.44 37.67-38.08 45.07-61.05 1.45-3.67 22.88-25.665 14.74-26.364z"/>
</g>
</g>
</g>
</svg>
