<svg xmlns="http://www.w3.org/2000/svg" viewBox="0 0 381.562 287.292" xmlns:xlink="http://www.w3.org/1999/xlink" enable-background="new 0 0 381.562 287.292">
<g fill-rule="evenodd">
<g fill="#010101">
<path d="m114.87,216.54c-1.594-.125-3.027,.871-4.626,.714-1.863-.184-3.672-.695-5.488-1.121-4.048-.951-7.787-2.819-11.382-4.863-6.955-3.955-13.268-9.794-18.408-15.912-5.625-6.695-10.294-14.181-15.505-21.193-4.264-5.738-9.439-10.874-16.343-13.239-7.226-2.476-14.798,.658-22.034-1.398-6.65-1.891-13.105-8.649-16.068-14.709-1.63-3.335-2.356-7.271-1.953-10.965 .409-3.751 2.793-6.83 5.107-9.666 4.71-5.772 11.451-8.686 18.242-11.301 16.102-6.2 33.438-10.333 50.677-11.766 17.524-1.457 35.833-2.694 52.907,2.588 3.185,.985 6.626,1.398 9.555,3.087 3.995,2.304 7.784,5.209 11.549,7.87 2.854,2.016 4.262,5.357 5.97,8.279 2.195,3.756 4.484,7.415 5.889,11.56 2.643,7.796 3.936,15.91 4.217,24.121 .283,8.251 .223,17.156-2.803,24.935-1.846,4.747-3.776,9.168-6.859,13.255-3.268,4.333-7.283,7.506-11.827,10.471-9.36,6.11-20.11,7.31-30.81,9.25"/>
<path d="m294.12,199.29c14.378-7.189 28.12-18.32 37.854-31.139 4.854-6.393 9.141-13.188 12.561-20.457 1.745-3.709 3.635-7.351 5.25-11.121 1.716-4.005 2.817-8.26 4.839-12.136 1.749-3.354 2.656-7.019 4.619-10.254 2.245-3.702 4.715-7.273 7.032-10.931 2.04-3.22 4.162-6.396 5.99-9.744 1.77-3.242 4.135-7.478 4.176-11.263 .086-7.87-8.811-10.589-14.953-12.274-7.748-2.126-15.907-2.283-23.889-2.396-17.668-.251-35.464,1.775-52.31,7.262-3.931,1.281-7.817,2.689-11.737,4.002-3.731,1.251-6.774,3.763-9.819,6.165-2.9,2.289-5.988,4.429-8.312,7.344-2.617,3.284-4.999,7.449-6.728,11.273-1.511,3.342-1.124,7.45-1.618,11.023-.65,4.703-.984,9.097-.525,13.832 .877,9.046 1.572,18.077 2.653,27.104 1.021,8.522 2.147,16.569 4.879,24.739 2.206,6.6 5.733,14.042 11.999,17.573 3.797,2.141 7.823,3.064 12.139,3.4 5.37,.43 10.65-1.11 15.91-1.99"/>
</g>
<g fill="#bfd73b">
<path d="m114.12,212.79c-16.2,0-31.355-10.334-40.344-23.342-8.663-12.543-14.674-29.652-30.906-34.408-7.621-2.232-15.88,.262-23.606-1.915-5.973-1.683-11.392-8.371-12.046-14.5-.287-2.686-.172-6.087 1.389-8.395 2.05-3.03 6.471-5.816 9.57-7.674 6.936-4.159 15.229-6.493 23.027-8.4 17.523-4.285 35.256-6.75 53.141-8.836 4.154-.484 8.112-.473 12.277-.102 4.348,.387 8.773,.417 13.07,1.229 4.227,.798 8.354,2.157 12.56,3.077 4.116,.9 7.162,3.055 10.484,5.544 2.848,2.135 5.799,4.081 8.016,6.921 2.629,3.368 4.203,7.446 6.332,11.123 1.744,3.013 1.948,6.665 2.612,10.007 .849,4.271 1.884,8.455 2.027,12.832 .504,15.417-.361,34.597-14.715,44.112-2.269,1.504-4.315,3.311-6.751,4.555-2.773,1.415-5.736,2.505-8.579,3.774-5.54,2.51-11.66,3.18-17.55,4.42"/>
<path d="m306.12,187.29c6.761-4.057 12.776-9.983 18.236-15.627 2.674-2.764 4.443-6.247 6.52-9.446 2.356-3.629 4.904-7.152 6.89-11.007 3.87-7.518 6.643-15.585 8.542-23.815 1.595-6.913 4.765-13.938 9.696-19.117 6.106-6.415 24.495-26.62 7.811-32.263-7.52-2.543-16.337-2.598-24.197-2.765-9.015-.191-18.107,.32-27.087,1.096-16.605,1.435-33.005,4.685-47.005,14.115-3.111,2.096-6.023,4.144-8.106,7.322-1.895,2.892-4.452,6.54-5.333,9.895-.947,3.611-1.026,7.939-1.222,11.662-.24,4.572 .2,9.149 .552,13.705 .674,8.718 1.359,17.632 3.716,26.086 1.104,3.958 2.521,7.821 4.032,11.64 1.498,3.785 2.854,7.775 5.057,11.222 1.783,2.791 4.097,5.565 6.405,7.941 2.293,2.359 6.391,3.476 9.346,4.811 3.027,1.368 8.276,.844 11.508,.306 4.118-.686 7.947-2.785 11.725-4.464 .98-.41 1.95-.85 2.92-1.28"/>
</g>
<g fill="#e1edc2">
<path d="m33.121,119.04c1.154-1.777 3.813-1.527 5.635-1.505 3.092,.038 6.184,.005 9.275,.005 6.499,0 11.309,2.073 17.063,4.889 5.22,2.554 9.979,5.903 14.317,9.759 2.281,2.027 4.538,4.084 6.883,6.039 2.254,1.879 4.862,3.35 6.826,5.563-2.489-1.431 3.663-5.406 4.466-6.153 3.358-3.124 5.733-7.099 7.867-11.117 2.006-3.777 3.426-7.96 4.21-12.175 .124-.665 .456-5.986 1.064-6.021 .366-.021 1.394,6.398 1.511,7.01 .386,2.026 .568,4.076 .886,6.112 .388,2.48-.221,5.332-.667,7.806-.373,2.066-1.639,3.7-2.824,5.368-1.66,2.338-3.194,4.74-4.939,7.021-.618,.807-1.147,1.66-1.993,2.243-.556,.383-1.941,.987-2.04,1.768-.163,1.277 2.437,2.732 3.271,3.352 1.956,1.449 3.688,3.247 5.484,4.886 1.685,1.537 3.101,3.617 5.198,1.628 3.325-3.154 6.888-6.109 9.449-9.975 2.978-4.495 5.11-9.582 6.422-14.798 .698-2.775 1.442-5.556 2.026-8.358 .437-2.098 2.066-4.993 1.857-7.095-.209,2.112 1.292,4.374 1.696,6.431 .511,2.601 .964,5.218 1.221,7.859 .505,5.195 .32,10.569-1.153,15.604-1.188,4.058-3.011,7.868-6.347,10.593-1.853,1.514-3.963,2.709-6.075,3.818-1.067,.561-3.671,1.124-3.298,2.813 .465,2.107 2.053,4.468 2.964,6.441 .785,1.701 1.173,2.905 3.349,2.643 4.688-.566 8.924-3.649 13.331-5.154 2.026-.691 3.464-2.326 5.172-3.529 1.63-1.146 3.432-1.929 4.781-3.447 1.603-1.804 3.48-3.449 4.965-5.346 .548-.7 2.889-2.489 2.644-3.476-1.223,.693-.883,2.516-1.166,3.656-.454,1.836-1.7,3.363-2.652,4.955-1.764,2.951-3.086,6.21-5.39,8.809-4.595,5.185-11.086,11.08-18.543,11.08 2.203,4.574 4.404,9.147 6.607,13.722 1.045,2.171 2.09,4.341 3.135,6.512 1.021,2.123 3.008,3.517 4.508,5.267-3.847,1.399-7.776,2.607-11.461,4.409-2.337,1.143-5.206,2.644-6.226-.656-2.134-6.897-1.638-15.863-6.311-21.795-1.869-2.373-5.385-2.829-8.104-1.865-1.813,.643-3.807,.585-5.704,1.036-2.208,.526-4.585,.27-6.816,.043-4.467-.454-8.859-1.318-13.268-2.147-2.472-.464-4.966-.828-7.422-1.369-1.909-.421-3.953-1.853-5.938-1.655 1.636,.144 3.126-.75 4.749-.75 2.086,0 4.106-.594 6.147-.944 3.511-.603 7.108-.859 10.522-1.931 3.275-1.027 6.293-3.125 9.832-3.125 1.64,0 3.169-.75 4.809-.75h5.94c-1.409-1.811-2.817-3.622-4.226-5.433-1.405-1.808-2.637-.896-4.693-.699-4.997,.479-9.482,3.132-14.627,3.132-5.315,0-10.697,.168-15.919-1.005-2.117-.475-4.184-1.154-6.198-1.96-1.008-.403-2.059,.143-3.087-.035-1.021-.177-1.929-.843-3-.75 .971-1.753 4.355-.911 5.924-.87 3.404,.091 7.08-.917 10.482-1.261 7.845-.794 15.42-3.869 23.344-3.869-1.698-1.567-3.324-3.209-4.984-4.816-1.053-1.02-3.242-3.891-4.726-4.108-1.229-.18-2.644,.882-3.704,1.368-1.856,.853-3.893,1.463-5.805,2.192-2.16,.824-4.356,1.57-6.597,2.146-2.18,.56-4.463,.219-6.681,.219-5.179,0-10.325-.75-15.504-.75 1.602,.336 3.625-1.488 4.837-2.312 2.164-1.472 5.002-1.644 7.307-3.021 2.491-1.49 5.146-2.561 7.734-3.855 2.252-1.125 4.494-2.811 7.122-2.811-1.359,.245-2.896-2.529-3.638-3.37-2.362-2.679-4.795-5.672-8.073-7.259-5.664-2.741-11.868-.347-17.418,1.438-3.096,.996-6.058,2.401-9.149,3.369-3.441,1.078-6.786,1.64-10.017,3.349-2.633,1.393-5.131,3.114-7.887,4.263-1.89,.788-4.969,1.549-6.068,3.459-.231-1.101 .931-2.638 1.696-3.312 1.531-1.348 2.4-3.263 3.933-4.623 2.99-2.652 6.922-3.822 10.567-5.256 3.805-1.496 7.326-3.723 11.316-4.737 2.12-.539 4.097-1.175 6.13-1.987 .917-.366 1.814-.642 2.782-.844 1.025-.213 2.282-1.095 3.325-.992-1.333-1.333-2.483-2.908-4.153-3.852-2.123-1.2-4.503-1.852-6.813-2.583-4.966-1.54-10.155-2.07-15.301-2.54"/>
<path d="m348.12,77.042c-5.236,0-10.637,.622-15.219,3.349-2.136,1.271-4.273,2.563-6.223,4.112-2.251,1.788-3.682,4.162-5.423,6.401-3.274,4.21-5.869,8.898-8.104,13.729-1.124,2.428-2.297,4.853-3.218,7.367-.762,2.082-1.132,4.906-3.063,6.292 2.001-1.15-2.849-4.051-3.582-4.516-2.95-1.871-6.376-3.766-8.644-6.437-3.344-3.938-6.471-7.794-9.099-12.266-1.612-2.743-5.387-6.348-4.926-9.781 0,4.439 1.501,8.77 2.527,13.044 .966,4.026 2.037,8.252 4.41,11.712 2.115,3.083 5.025,5.145 7.729,7.633 1.403,1.292 4.12,4.826 6.333,4.361l-6,15c-1.128-1.476-3.206-1.715-4.79-2.458-2.001-.938-4.049-2.144-5.83-3.453-3.402-2.501-5.676-6.093-7.863-9.627-2.591-4.185-5.222-8.345-7.815-12.527-1.131-1.824-2.338-3.61-3.276-5.545-.771-1.589-1.19-3.519-2.675-4.639-.105,1.194 .677,2.272 .779,3.449 .111,1.286 .017,2.565 .163,3.854 .337,2.961 .904,5.892 1.572,8.795 1.25,5.426 2.86,10.986 5.901,15.707 2.885,4.477 6.819,8.498 11.719,10.705 1.017,.458 2.061,.889 3.104,1.286 1.141,.434 2.579-.023 3.606,.504 .44,.226 .348,2.159 .369,2.543 .168,2.935 .255,5.975-.089,8.899-.337,2.869-5.896,1.065-7.826,.721-5.436-.97-10.885-2.959-15.741-5.576-2.317-1.25-4.77-2.579-6.896-4.136-.896-.655-1.063-1.322-1.658-2.192-.499-.729-1.968-.624-1.754-1.809-.233,1.443 1.161,2.548 1.928,3.57 1.281,1.709 2.511,3.457 3.832,5.135 2.706,3.436 5.989,6.309 9.225,9.228 2.348,2.12 6.187,2.742 9.1,3.841 1.676,.633 3.502,.441 5.148,1.084 .604,.235 2.562,1.059 2.268-.357-3.897,5.145-7.795,10.289-11.692,15.435-1.974,2.605-3.947,5.21-5.921,7.814-1.688,2.229-2.42,4.924-3.387,7.501 4.287,.612 8.574,1.225 12.861,1.838 1.084,.154 2.783,.899 3.376-.506 .769-1.826 1.78-3.534 2.739-5.264 4.178-7.53 8.13-15.666 13.193-22.645 1.72-2.37 4.218-2.4 6.872-2.831 3.903-.632 7.817-1.267 11.498-2.774 3.446-1.411 6.489-3.451 9.587-5.483 2.627-1.723 6.949-3.319 8.873-5.835-1.232-.107-2.275,.75-3.494,.75-2.092,0-4.259-.302-6.326,.131-3.528,.74-7.091,.762-10.703,.594-3.361-.155-6.365-.193-9.708,.037-1.786,.123-5.446-.404-6.519,1.488 .416-2.286 .831-4.572 1.247-6.858 .307-1.678 1.206-1.411 2.77-1.378 2.403,.052 4.648-.403 7.023-.644 2.415-.244 4.806,.05 7.222-.362 4.328-.738 7.965-2.838 11.717-4.992 1.831-1.051 3.739-1.951 5.429-3.231 1.111-.842 2.777-3.031 4.343-2.785-6.07,0-11.931,1.995-17.937,2.276-3.267,.152-6.487,.912-9.767,.645-2.465-.201-4.382,.829-6.797,.829l5.25-12c2.514,1.257 5.318,1.098 8.031,1.439 3.327,.418 6.172,.768 9.451-.234 3.211-.981 6.452-1.855 9.675-2.797 1.781-.52 3.892-2.568 5.843-2.158-.81,.17-1.05-.653-1.763-.77-1.529-.251-2.97-.419-4.481-.786-3.274-.796-6.518-1.218-9.778-2.135-2.276-.641-4.775-.882-6.914-1.92-.422-.205-3.684-1.876-3.313-.389-.207-2.088 1.304-3.886 2.17-5.642 1.115-2.262 1.981-4.57 3.203-6.789 1.985-3.603 4.457-5.858 8.71-6.289 4.717-.478 9.19,.756 13.811,.63 1.583-.043 3.105,.785 4.265,1.813 1.842,1.633 .842,4.383 .842,6.525 1.491-1.14 3.26-3.906 3.838-5.688 .76-2.341 .235-4.505-2.043-5.704-2.543-1.338-5.661-1.929-8.479-2.337-2.768-.401-6.094-1.105-8.836-.293-.728,.215-3.539,2.062-4.016,.845-.416-1.065 .617-2.272 1.281-2.959 1.008-1.044 1.379-2.144 2.033-3.401 1.045-2.008 4.714-3.475 6.457-4.857 2.58-2.025 5.35-3.382 8.27-4.842"/>
</g>
<g>
<path fill="#010101" d="m165.12,146.04c-15.965,0-32.526-.777-47.52-6.788-7.445-2.984-14.737-7.026-20.817-12.289-2.849-2.467-4.25-5.143-6.13-8.323-2.049-3.467-2.459-6.101-2.614-10.129-.157-4.07 .374-7.437 1.602-11.33 1.215-3.854 1.905-7.215 4.607-10.358 5.423-6.31 10.122-13.015 16.427-18.545 2.881-2.527 6.076-4.284 9.497-5.971 3.715-1.832 7.304-3.864 11.164-5.393 7.83-3.1 16.249-6.329 24.713-6.615 8.985-.305 17.652-1.127 26.652-.36 9.014,.769 17.994,1.56 26.848,3.506 8.192,1.802 16.06,4.665 23.682,8.143 6.825,3.115 13.031,9.905 17.501,15.779 4.792,6.295 8.098,14.054 10.046,21.698 1.861,7.306 .919,15.192-4.196,20.984-2.181,2.47-4.511,5.787-7.218,7.664-3.575,2.48-7.37,4.693-11.188,6.778-7.188,3.926-15.151,6.217-23.1,8.022-7.967,1.809-16.048,3.11-24.173,3.96-8.58,.9-17.2-.12-25.78-.43"/>
</g>
</g>
<path fill="none" stroke="#010101" stroke-linejoin="round" stroke-linecap="round" stroke-width=".75" d="m165.12,146.04c-15.965,0-32.526-.777-47.52-6.788-7.445-2.984-14.737-7.026-20.817-12.289-2.849-2.467-4.25-5.143-6.13-8.323-2.049-3.467-2.459-6.101-2.614-10.129-.157-4.07 .374-7.437 1.602-11.33 1.215-3.854 1.905-7.215 4.607-10.358 5.423-6.31 10.122-13.015 16.427-18.545 2.881-2.527 6.076-4.284 9.497-5.971 3.715-1.832 7.304-3.864 11.164-5.393 7.83-3.1 16.249-6.329 24.713-6.615 8.985-.305 17.652-1.127 26.652-.36 9.014,.769 17.994,1.56 26.848,3.506 8.192,1.802 16.06,4.665 23.682,8.143 6.825,3.115 13.031,9.905 17.501,15.779 4.792,6.295 8.098,14.054 10.046,21.698 1.861,7.306 .919,15.192-4.196,20.984-2.181,2.47-4.511,5.787-7.218,7.664-3.575,2.48-7.37,4.693-11.188,6.778-7.188,3.926-15.151,6.217-23.1,8.022-7.967,1.809-16.048,3.11-24.173,3.96-8.58,.9-17.2-.12-25.78-.43" stroke-miterlimit="10"/>
<path fill="#e1edc2" fill-rule="evenodd" d="m165.12,143.04c-16.145,0-34.418-.878-49.029-8.541-6.583-3.453-13.671-7.923-18.072-14.045-1.992-2.771-3.225-5.735-3.795-9.098-.663-3.907-1.705-7.871-.104-11.602 1.443-3.363 2.037-6.973 4.02-10.119 2.071-3.286 4.199-6.988 7.049-9.66 2.983-2.797 6.026-5.532 8.927-8.414 3.07-3.05 6.902-5.11 10.58-7.317 6.874-4.124 14.461-6.703 22.217-8.59 8.172-1.989 17.136-3.012 25.536-3.379 4.109-.18 8.151,.507 12.228,.9 4.618,.445 9.224,.842 13.807,1.596 8.395,1.381 16.841,3.156 24.604,6.742 7.006,3.237 14.285,7.517 19.402,13.429 5.082,5.871 8.249,13.168 11,20.349 1.42,3.705 1.909,7.599 2.235,11.527 .294,3.523-1.649,7.179-3.46,10.065-4.094,6.527-10.515,11.148-17.19,14.767-7.143,3.872-14.97,6.155-22.781,8.246-3.832,1.026-7.668,2.117-11.589,2.751-4.503,.728-9.091,.704-13.634,.97-7.41,.43-14.59-.29-21.97-.58"/>
<path fill="#bfd73b" stroke="#010101" stroke-linejoin="round" stroke-linecap="round" stroke-width=".75" d="m165.12,143.04c-16.145,0-34.418-.878-49.029-8.541-6.583-3.453-13.671-7.923-18.072-14.045-1.992-2.771-3.225-5.735-3.795-9.098-.663-3.907-1.705-7.871-.104-11.602 1.443-3.363 2.037-6.973 4.02-10.119 2.071-3.286 4.199-6.988 7.049-9.66 2.983-2.797 6.026-5.532 8.927-8.414 3.07-3.05 6.902-5.11 10.58-7.317 6.874-4.124 14.461-6.703 22.217-8.59 8.172-1.989 17.136-3.012 25.536-3.379 4.109-.18 8.151,.507 12.228,.9 4.618,.445 9.224,.842 13.807,1.596 8.395,1.381 16.841,3.156 24.604,6.742 7.006,3.237 14.285,7.517 19.402,13.429 5.082,5.871 8.249,13.168 11,20.349 1.42,3.705 1.909,7.599 2.235,11.527 .294,3.523-1.649,7.179-3.46,10.065-4.094,6.527-10.515,11.148-17.19,14.767-7.143,3.872-14.97,6.155-22.781,8.246-3.832,1.026-7.668,2.117-11.589,2.751-4.503,.728-9.091,.704-13.634,.97-7.41,.43-14.59-.29-21.97-.58" stroke-miterlimit="10"/>
<g fill-rule="evenodd">
<path fill="#e1edc2" d="m166.62,143.79v-11.798c0-2.564 .385-3.966-2.688-2.592-2.733,1.222-6.78,.297-9.62-.087-4.157-.562-8.274-1.333-12.385-2.165-7.964-1.612-15.901-3.352-23.695-5.666-6.578-1.953-13.395-4.225-18.362-9.192 3.433-.242 6.684,1.543 9.877,2.527 3.313,1.021 6.711,1.729 10.085,2.509 7.28,1.684 14.363,3.025 21.855,3.153 6.112,.104 12.75-.398 18.729,1.043 1.386,.334 3.962,1.242 5.264,.266 1.608-1.207 .787-6.91 .94-8.749-6.165,0-12.263-1.287-18.418-1.557-5.588-.245-11.222-.916-16.578-2.585-5.678-1.769-11.487-3.188-16.957-5.566-2.439-1.06-4.589-2.629-6.795-4.088-2.164-1.432-4.638-2.339-6.502-4.204 3.184,1.062 6.45,2.085 9.692,2.947 3.289,.874 6.736,1.009 10.056,1.772 7.346,1.688 14.825,3.175 22.261,4.409 6.484,1.076 13.334,2.076 19.905,2.339 2.338,.093 2.938-.59 3.564-2.734 .551-1.884 .758-3.844 1.272-5.733-5.123,0-10.085-1.44-15.104-2.262-4.792-.785-9.439-2.157-13.649-4.624-3.918-2.296-7.358-5.254-10.196-8.802-1.411-1.763-2.692-3.63-3.825-5.583-1.115-1.922-1.901-4.336-3.726-5.73 1.958-.401 4.211,2.79 5.402,3.954 2.772,2.711 6.551,4.31 9.941,6.078 7.73,4.031 14.722,7.898 23.47,9.218 3.012,.455 6.901,1.165 8.704-1.998 1.822-3.197 3.141-6.818 4.792-10.121 1.052-2.104 1.136-1.768-.945-2.836-1.867-.959-3.715-1.955-5.557-2.962-3.905-2.136-7.803-4.301-11.515-6.764-2.308-1.531-4.582-3.279-5.75-5.831-.113-.247-1.068-2.078-.69-2.314 .589-.367 2.243,1.584 2.691,1.897 2.824,1.977 6.363,3.352 9.458,4.873 3.475,1.707 7.569,2.728 11.368,3.438 2.529,.474 8.27,1.622 10.022-.72 2.156-2.882 4.19-5.741 7.078-7.984 .822-.638 4.704-3.681 4.992-1.186 .385,3.341-2.876,5.938-3.036,9.201-.117,2.405-1.247,4.339-1.478,6.697-.123,1.249-.649,5.409 .531,6.222 1.186,.817 3.307,.088 4.555-.202 1.971-.457 3.912-.301 5.909-.584 2.498-.353 5.414,.005 7.812-.667 1.161-.326 2.164-.983 3.365-1.228 1.505-.307 2.718-.147 4.07-1.01 2.375-1.515 4.846-2.222 7.494-3.13 1.893-.648 4.945-2.51 6.834-.857 3.646,3.19-4.939,6.913-6.552,7.798-5.232,2.874-10.71,3.979-16.514,5.107-2.883,.561-5.757,1.199-8.679,1.522-1.626,.18-5.55-.597-6.802,.618-1.857,1.801-3.212,5.16-4.584,7.377-1.629,2.632-3.258,5.264-4.888,7.895 8.621,0 17.375,2.019 25.922-.13 7.653-1.924 14.27-6.539 21.809-8.786 3.49-1.04 6.206-3.638 9.589-4.909 4.305-1.617 .811,3.134-.194,4.556-4.599,6.502-9.467,12.704-16.781,16.147-3.614,1.702-6.833,3.792-10.908,4.121-4.282,.346-8.33,1.873-12.633,1.786-4.044-.082-8.165,.237-12.153-.592-3.808-.792-3.366,1.132-3.163,4.243 .134,2.052-.997,4.598 .109,6.513 1.385,2.399 8.701,1.335 11.008,1.217 3.952-.201 7.938-.891 11.893-.822 3.897,.068 7.662-1.601 11.181-3.086 5.729-2.418 11.349-4.985 17.006-7.565 2.743-1.251 5.534-2.392 8.306-3.58 1.697-.728 4.654-.658 5.762-2.362-6.988,6.989-15.176,12.715-24.021,17.103-4.671,2.317-9.558,4.326-14.658,5.469-5.184,1.161-10.497,1.619-15.705,2.67-2.219,.448-4.464,.87-6.735,.886-1.396,.01-2.474-.027-3.206,1.34-1.057,1.972-.665,4.66-2.075,6.444-.844,1.069-2.278,.715-3.427,.436-2.561-.622-4.622-.747-7.254-.621-.76,.05-6.52-.73-6.14,.78"/>
<path fill="#010101" d="m116.37,197.79c-3.812-.953-7.749-1.69-11.33-3.371-3.47-1.628-6.153-4.312-8.767-7.046-5.908-6.179-8.706-13.224-10.833-21.411-.996-3.832-1.404-7.687-1.921-11.598-.544-4.111-1.198-8.033-.507-12.169 1.458-8.736 3.27-17.353 5.062-26.021 1.693-8.191 4.87-15.961 8.482-23.509 1.732-3.619 3.82-7.049 5.596-10.643 1.79-3.621 3.333-7.263 5.929-10.405 5.061-6.125 10.398-11.464 16.784-16.162 2.863-2.106 5.407-3.771 9.008-4.154 3.894-.415 7.457-1.193 11.274,.08 3.182,1.061 7.928,1.701 10.565,3.875 3.052,2.516 6.486,4.598 9.164,7.544 5.003,5.505 8.661,12.416 10.496,19.609 2.155,8.447 2.826,17.241 3.515,25.904 .711,8.935 1.305,18.005 .449,26.951-.831,8.691-2.78,17.748-5.792,25.952-2.8,7.623-7.475,14.054-11.717,20.889-3.723,5.998-10.388,11.4-16.716,14.425-7.259,3.469-14.786,5.052-22.615,2.861-2.02-.55-4.07-1.04-6.11-1.59"/>
</g>
<path fill="none" stroke="#010101" stroke-linejoin="round" stroke-linecap="round" stroke-width=".75" d="m116.37,197.79c-3.812-.953-7.749-1.69-11.33-3.371-3.47-1.628-6.153-4.312-8.767-7.046-5.908-6.179-8.706-13.224-10.833-21.411-.996-3.832-1.404-7.687-1.921-11.598-.544-4.111-1.198-8.033-.507-12.169 1.458-8.736 3.27-17.353 5.062-26.021 1.693-8.191 4.87-15.961 8.482-23.509 1.732-3.619 3.82-7.049 5.596-10.643 1.79-3.621 3.333-7.263 5.929-10.405 5.061-6.125 10.398-11.464 16.784-16.162 2.863-2.106 5.407-3.771 9.008-4.154 3.894-.415 7.457-1.193 11.274,.08 3.182,1.061 7.928,1.701 10.565,3.875 3.052,2.516 6.486,4.598 9.164,7.544 5.003,5.505 8.661,12.416 10.496,19.609 2.155,8.447 2.826,17.241 3.515,25.904 .711,8.935 1.305,18.005 .449,26.951-.831,8.691-2.78,17.748-5.792,25.952-2.8,7.623-7.475,14.054-11.717,20.889-3.723,5.998-10.388,11.4-16.716,14.425-7.259,3.469-14.786,5.052-22.615,2.861-2.02-.55-4.07-1.04-6.11-1.59" stroke-miterlimit="10"/>
<path fill="#bfd73b" fill-rule="evenodd" d="m117.87,193.29c-3.747-.938-7.707-1.47-11.233-3.118-3.422-1.6-6.135-4.334-8.524-7.2-4.964-5.954-8.306-13.129-10.048-20.662-1.99-8.605-1.817-17.527-.641-26.236 1.16-8.588 2.874-17.437 5.382-25.739 2.499-8.271 6.817-15.908 10.603-23.633 1.77-3.611 3.252-7.513 5.716-10.721 2.366-3.081 5.128-5.951 7.755-8.81 2.685-2.922 5.756-5.059 9.04-7.248 1.442-.961 2.876-2.077 4.504-2.711 1.888-.736 4.048-.673 6.04-.835 8.23-.67 15.416,2.433 22.004,7.161 5.307,3.809 9.615,10.325 12.121,16.297 2.823,6.729 3.588,14.081 4.364,21.269 1.681,15.559 2.102,31.252-.925,46.703-1.372,7-4.472,13.807-7.785,20.088-3.217,6.099-7.254,11.804-12.165,16.658-4.167,4.12-9.71,8.557-15.519,9.991-3.143,.776-7.042,1.022-10.275,.957-3.57-.07-6.96-1.41-10.41-2.21"/>
<path fill="none" stroke="#010101" stroke-linejoin="round" stroke-linecap="round" stroke-width=".75" d="m117.87,193.29c-3.747-.938-7.707-1.47-11.233-3.118-3.422-1.6-6.135-4.334-8.524-7.2-4.964-5.954-8.306-13.129-10.048-20.662-1.99-8.605-1.817-17.527-.641-26.236 1.16-8.588 2.874-17.437 5.382-25.739 2.499-8.271 6.817-15.908 10.603-23.633 1.77-3.611 3.252-7.513 5.716-10.721 2.366-3.081 5.128-5.951 7.755-8.81 2.685-2.922 5.756-5.059 9.04-7.248 1.442-.961 2.876-2.077 4.504-2.711 1.888-.736 4.048-.673 6.04-.835 8.23-.67 15.416,2.433 22.004,7.161 5.307,3.809 9.615,10.325 12.121,16.297 2.823,6.729 3.588,14.081 4.364,21.269 1.681,15.559 2.102,31.252-.925,46.703-1.372,7-4.472,13.807-7.785,20.088-3.217,6.099-7.254,11.804-12.165,16.658-4.167,4.12-9.71,8.557-15.519,9.991-3.143,.776-7.042,1.022-10.275,.957-3.57-.07-6.96-1.41-10.41-2.21" stroke-miterlimit="10"/>
<g fill-rule="evenodd">
<path fill="#e1edc2" d="m117.87,194.04l3.75-23.25c-.886-.22-.394,.338-.864,.683-.471,.346-1.328,.148-1.853,.093-1.73-.184-3.348-.054-4.979-.808-3.823-1.768-7.665-5.199-10.773-8.008-3.406-3.078-6.433-6.683-8.946-10.521-1.304-1.991-2.475-4.08-3.425-6.264-.412-.945-.661-1.75-.661-2.789 0-.883-.942-1.471-.75-2.386 5.119,5.118 10.223,10.331 16.371,14.232 1.831,1.162 16.916,4.642 16.629,6.018l3-13.5c-.633,.133-.978-.334-1.469-.604-.971-.534-2.157-.4-3.177-.954-1.695-.921-3.203-1.601-5.049-2.159-3.545-1.072-6.765-3.707-9.348-6.282-3.055-3.046-5.119-6.956-7.077-10.753-.981-1.903-1.612-3.961-2.569-5.875-.878-1.756-2.241-3.548-2.061-5.622 1.36,1.36 2.851,2.295 4.101,3.793 1.362,1.632 3.173,2.782 4.848,4.056 4.305,3.274 8.625,6.531 13.076,9.607 2.538,1.755 5.579,3.774 8.651,4.473 1.696,.386 1.938-.882 2.119-2.332 .311-2.481 .844-4.912 1.354-7.359 .512-2.457-.23-1.775-1.802-2.959-1.447-1.092-3.296-1.606-4.555-2.955-3.16-3.387-6.159-7.131-7.829-11.5-1.676-4.384-1.642-9.146-2.209-13.743-.669-5.419-1.253-10.863-1.253-16.33 .828,1.654 .656,3.704 1.289,5.455 .632,1.75 1.29,3.49 2.012,5.204 1.692,4.013 3.082,8.167 5.172,12.002 1.799,3.3 4.312,7.514 7.516,9.631 3.42,2.26 5.154-.524 5.994-3.359 1.175-3.967 2.351-7.934 3.526-11.9 .456-1.537 1.499-3.362 1.277-5.003-.245-1.81-1.645-3.844-2.489-5.436-4.103-7.735-6.297-15.825-6.297-24.594 1.797,3.595 2.851,7.428 4.807,10.968 .809,1.464 1.64,3.09 2.964,4.162 1.272,1.03 2.843,1.657 4.172,2.622 .689,.5 2.156,1.686 2.902,.628 .92-1.305 1.47-3.199 2.258-4.63 1.741-3.161 3.283-6.454 4.858-9.688 1.047-2.149 3.782-2.339 2.335,.522-.651,1.289-.515,3.117-.934,4.54-.64,2.169-1.305,4.318-1.87,6.509-.985,3.82-2.523,7.436-3.334,11.296-.578,2.753-.949,5.462-1.562,8.207-.069,.308-.584,2.18-.001,2.303 1.735,.364 3.765,.118 5.499-.146 3.944-.602 7.44-1.762 10.172-4.744 1.809-1.975 3.963-3.951 6.702-4.482 2.907-.563 1.168,5.378 .659,6.566-2.459,5.727-8.952,9.841-14.56,12.024-1.63,.635-3.336,1.02-5.076,1.193-1.109,.11-3.686-.378-4.417,.584-.663,.872-.725,2.024-1.09,3.021-.864,2.357-1.728,4.714-2.593,7.071-.949,2.588-1.898,5.177-2.847,7.766-.511,1.394-2.332,3.838-.865,5.199 3.411,3.162 10.321,2.677 14.041,.629 4.646-2.558 8.133-6.565 11.885-10.215 1.683-1.637 3.872-2.952 5.391-4.715 .61-.708 2.106-3.396 3.255-3.189-1.594,1.017-1.306,3.351-1.74,4.938-.8,2.931-2.34,5.583-3.531,8.359-2.25,5.25-5.18,10.31-8.322,15.075-4.236,6.422-16.176,13.861-23.157,6.878l-3.75,18c.624-.132 .942,.327 1.416,.604 .859,.501 1.96,.145 2.886,.365 2.262,.541 4.571,.53 6.881,.53 4.497,0 7.398-3.577 10.554-6.217 3.35-2.802 6.776-5.758 9.831-8.878 1.348-1.377 3.103-2.449 4.344-3.89 .617-.716 1.902-3.031 3.088-2.766-1.826,1.312-1.779,3.935-2.95,5.69-1.948,2.922-3.994,5.773-6.076,8.601-3.66,4.969-7.397,10.312-12.406,14.034-4.356,3.235-10.738,4.715-15.962,5.898-1.802,.408-3.302,.105-3.655,2.366-.525,3.369-1.625,6.61-2.451,9.91-.6-.28-9.52-3.64-8.98-1.47"/>
<path fill="#010101" d="m230.37,211.29c-8.874,0-17.689,2.032-26.573,1.173-8.321-.806-17.062-2.558-24.779-5.857-7.242-3.097-13.225-8.371-18.94-13.63-2.489-2.29-4.436-5.012-6.124-7.929-2.041-3.525-4.761-6.757-6.065-10.667-1.252-3.751-1.72-7.702-2.469-11.569-.393-2.026-1.084-4.026-1.244-6.092-.186-2.414 .115-4.935 .201-7.353 .153-4.292-.089-8.621 .371-12.898 .479-4.444 2.311-8.694 3.534-12.966 2.299-8.03 5.798-15.627 9.413-23.134 3.607-7.494 9.02-13.526 14.251-19.92 2.444-2.988 5.405-4.946 8.522-7.154 3.648-2.584 7.104-5.468 11.003-7.681 3.553-2.017 7.569-2.887 11.48-3.917 4.392-1.157 8.874-3.15 13.37-3.764 3.689-.504 7.525,.049 11.247-.124 4.589-.213 9.121-.216 13.708,.022 4.266,.222 8.62,.26 12.822,1.092 4.272,.846 8.402,2.402 12.491,3.875 7.018,2.527 14.034,6.914 19.4,12.083 6.108,5.884 10.778,12.098 15.16,19.352 4.446,7.358 7.766,15.387 10.886,23.378 1.473,3.771 2.668,7.588 3.473,11.558 .865,4.269 1.99,8.176 1.595,12.534-.437,4.822-.124,9.705-1.866,14.312-1.797,4.751-3.838,9.887-6.488,14.221-2.503,4.093-5.569,8.177-8.687,11.823-3.192,3.735-7.667,7.052-11.447,10.186-3.701,3.069-8.092,5.056-12.251,7.399-2.391,1.347-4.743,2.827-7.312,3.818-2.393,.924-4.915,1.483-7.352,2.276-4.705,1.531-9.416,3.206-14.365,3.735-5.64,.62-11.3,1.22-16.95,1.83"/>
</g>
<path fill="none" stroke="#010101" stroke-linejoin="round" stroke-linecap="round" stroke-width=".75" d="m230.37,211.29c-8.874,0-17.689,2.032-26.573,1.173-8.321-.806-17.062-2.558-24.779-5.857-7.242-3.097-13.225-8.371-18.94-13.63-2.489-2.29-4.436-5.012-6.124-7.929-2.041-3.525-4.761-6.757-6.065-10.667-1.252-3.751-1.72-7.702-2.469-11.569-.393-2.026-1.084-4.026-1.244-6.092-.186-2.414 .115-4.935 .201-7.353 .153-4.292-.089-8.621 .371-12.898 .479-4.444 2.311-8.694 3.534-12.966 2.299-8.03 5.798-15.627 9.413-23.134 3.607-7.494 9.02-13.526 14.251-19.92 2.444-2.988 5.405-4.946 8.522-7.154 3.648-2.584 7.104-5.468 11.003-7.681 3.553-2.017 7.569-2.887 11.48-3.917 4.392-1.157 8.874-3.15 13.37-3.764 3.689-.504 7.525,.049 11.247-.124 4.589-.213 9.121-.216 13.708,.022 4.266,.222 8.62,.26 12.822,1.092 4.272,.846 8.402,2.402 12.491,3.875 7.018,2.527 14.034,6.914 19.4,12.083 6.108,5.884 10.778,12.098 15.16,19.352 4.446,7.358 7.766,15.387 10.886,23.378 1.473,3.771 2.668,7.588 3.473,11.558 .865,4.269 1.99,8.176 1.595,12.534-.437,4.822-.124,9.705-1.866,14.312-1.797,4.751-3.838,9.887-6.488,14.221-2.503,4.093-5.569,8.177-8.687,11.823-3.192,3.735-7.667,7.052-11.447,10.186-3.701,3.069-8.092,5.056-12.251,7.399-2.391,1.347-4.743,2.827-7.312,3.818-2.393,.924-4.915,1.483-7.352,2.276-4.705,1.531-9.416,3.206-14.365,3.735-5.64,.62-11.3,1.22-16.95,1.83" stroke-miterlimit="10"/>
<path fill="#e1edc2" fill-rule="evenodd" d="m230.37,206.04c-4.304,.614-8.654,.749-12.99,.97-4.501,.229-9.021,.657-13.52,.137-8.201-.95-16.427-2.296-23.707-6.419-3.448-1.953-6.676-4.271-9.777-6.731-3.203-2.54-6.925-5.135-9.5-8.331-2.342-2.907-3.919-6.468-5.724-9.716-2.206-3.971-2.76-7.778-3.986-12.087-1.173-4.12-1.96-7.927-1.835-12.235 .13-4.479 .439-8.976 .698-13.45 .233-4.037 1.402-7.598 2.5-11.452 1.171-4.114 1.917-8.424 3.59-12.374 1.502-3.544 3.403-6.921 5.03-10.41 1.836-3.939 3.832-7.636 6.648-10.971 5.33-6.31 10.867-12.009 17.55-16.869 2.947-2.143 6.451-5.827 9.998-6.84 4.188-1.197 8.366-2.43 12.553-3.636 8.215-2.365 16.852-2.921 25.38-2.823 8.584,.099 17.312,1.268 25.52,3.821 3.695,1.149 7.628,2.136 10.988,4.099 3.394,1.982 6.62,4.442 9.746,6.819 6.419,4.883 10.936,10.38 15.085,17.23 4.439,7.328 8.59,14.391 11.248,22.584 1.322,4.075 2.487,8.201 3.516,12.36 1.083,4.377 2.238,8.608 1.782,13.147-.396,3.936-.617,7.958-1.898,11.724-1.299,3.819-2.848,7.654-4.761,11.21-6.646,12.355-17.356,20.976-29.167,28.077-3.149,1.894-6.251,3.875-9.707,5.171-3.638,1.364-7.462,2.287-11.197,3.347-7.83,2.23-16,2.72-24.06,3.65"/>
<path fill="#bfd73b" stroke="#010101" stroke-linejoin="round" stroke-linecap="round" stroke-width=".75" d="m230.37,206.04c-4.304,.614-8.654,.749-12.99,.97-4.501,.229-9.021,.657-13.52,.137-8.201-.95-16.427-2.296-23.707-6.419-3.448-1.953-6.676-4.271-9.777-6.731-3.203-2.54-6.925-5.135-9.5-8.331-2.342-2.907-3.919-6.468-5.724-9.716-2.206-3.971-2.76-7.778-3.986-12.087-1.173-4.12-1.96-7.927-1.835-12.235 .13-4.479 .439-8.976 .698-13.45 .233-4.037 1.402-7.598 2.5-11.452 1.171-4.114 1.917-8.424 3.59-12.374 1.502-3.544 3.403-6.921 5.03-10.41 1.836-3.939 3.832-7.636 6.648-10.971 5.33-6.31 10.867-12.009 17.55-16.869 2.947-2.143 6.451-5.827 9.998-6.84 4.188-1.197 8.366-2.43 12.553-3.636 8.215-2.365 16.852-2.921 25.38-2.823 8.584,.099 17.312,1.268 25.52,3.821 3.695,1.149 7.628,2.136 10.988,4.099 3.394,1.982 6.62,4.442 9.746,6.819 6.419,4.883 10.936,10.38 15.085,17.23 4.439,7.328 8.59,14.391 11.248,22.584 1.322,4.075 2.487,8.201 3.516,12.36 1.083,4.377 2.238,8.608 1.782,13.147-.396,3.936-.617,7.958-1.898,11.724-1.299,3.819-2.848,7.654-4.761,11.21-6.646,12.355-17.356,20.976-29.167,28.077-3.149,1.894-6.251,3.875-9.707,5.171-3.638,1.364-7.462,2.287-11.197,3.347-7.83,2.23-16,2.72-24.06,3.65" stroke-miterlimit="10"/>
<g fill-rule="evenodd">
<path fill="#e1edc2" d="m231.12,206.04l-3.75-22.5c-1.346,1.761-3.785,2.112-5.849,2.219-3.551,.182-7.093,.22-10.642-.026-6.649-.461-13.287-1.288-19.796-2.745-11.966-2.678-24.568-6.311-33.464-15.197 4.396,2.198 10.064,2.428 14.824,3.538 6.046,1.411 12.205,2.27 18.358,3.047 2.578,.325 5.193,.34 7.761-.089 2.945-.492 5.951-.338 8.904-.76 5.848-.836 11.769-.486 17.652-.486-.213-4.033-.425-8.067-.637-12.101-.039-.737 .281-1.965-.723-2.143-1.736-.308-3.784-.035-5.533,.089-3.729,.264-7.394,.763-11.144,.599-4.181-.182-8.357-.563-12.537-.793-8.118-.444-15.333-3.456-22.559-6.999-3.229-1.584-6.363-3.355-9.369-5.33-1.412-.927-3.11-1.435-4.326-2.649-.774-.774-1.576-2.449-2.923-2.173 3.28,0 6.381,1.1 9.527,1.88 3.422,.85 6.924,1.303 10.394,1.903 7.449,1.287 14.953,1.774 22.455,2.625 6.706,.76 13.559,2.101 20.309,1.047 2.593-.404 4.279-.55 4.09-3.365-.077-1.135 .653-9.653-.097-9.971-2.405-1.021-6.508-.119-9.1-.119-3.427,0-6.729-.9-9.987-1.869-3.276-.975-6.637-1.809-9.571-3.634-5.621-3.496-9.878-8.946-13.918-14.087-1.941-2.471-3.872-5.069-5.314-7.871-1.361-2.642-2.18-5.804-4.537-7.789 1.218-.219 2.729,2.424 3.355,3.188 1.555,1.895 3.949,3.309 5.893,4.778 4.961,3.747 10.094,7.095 15.56,10.065 4.765,2.589 9.99,4.803 15.355,5.762 2.89,.517 6.78,.771 9.41-.764 1.904-1.112 1.722-3.424 1.989-5.364 .447-3.241 .895-6.481 1.341-9.722 .277-2.009 1.494-5.456 .779-7.447-.688-1.919-4.719-3.523-6.349-4.627-5.111-3.458-10.465-6.521-15.393-10.253-2.085-1.579-4.255-3.205-5.336-5.67-.643-1.466-2.95-3.811-2.606-5.444 2.79,3.649 7.707,4.606 11.276,7.171 4.186,3.006 8.306,4.67 13.421,5.532 2.504,.422 9.735,1.202 10.733-1.782 1.314-3.931 2.468-7.646 4.2-11.451 1.059-2.326 2.368-6.969 5.591-6.969 2.784,0 1.079,5.19 .723,6.587-1.219,4.777-.834,9.932-.91,14.814-.042,2.715-.354,5.473 .094,8.17 .215,1.295 .562,2.525 .589,3.849 .021,1.005 .961,2.481 .783,3.331 .447-.789 1.349-.809 2.143-.778 1.421,.055 2.78-.45 4.106-.888 2.926-.966 5.794-2.092 8.688-3.146 2.493-.909 5.276-1.662 7.504-3.148 1.953-1.303 3.352-3.401 5.055-5 2.484-2.333 7.605-7.44 11.616-5.737 2.21,.938-.624,7.071-1.42,8.408-5.89,9.902-15.986,14.786-26.579,18.341-1.996,.67-5.99,.529-7.249,2.414-1.043,1.562-.854,3.631-1.218,5.396-1.383,6.713-2.764,13.426-4.146,20.139 5.991,0 12.028-.003 17.855-1.588 2.508-.683 5.147-1.298 7.504-2.417 2.592-1.231 4.797-3.305 6.894-5.222 4.651-4.252 9.336-8.481 13.844-12.887 2.05-2.003 4.015-4.103 6.201-5.961 .792-.673 3.49-2.14 3.202-3.425 0,3.306-1.18,6.434-1.976,9.599-.872,3.473-1.453,6.997-2.701,10.368-2.275,6.144-5.639,11.885-9.968,16.809-4.162,4.733-9.74,7.628-15.485,9.992-3.418,1.406-6.922,2.654-10.585,3.232-3.653,.577-7.357,.25-11.035,.25 .539,4.321 .92,8.66 1.455,12.981 .154,1.253 .069,2.702 .438,3.914 .462,1.525 2.261,1.104 3.494,1.08 7.848-.146 16.254-1.572 23.275-5.284 3.469-1.834 6.357-4.786 9.265-7.376 3.201-2.852 6.497-5.579 9.748-8.372 2.819-2.42 4.975-5.354 7.647-7.88 2.669-2.521 5.977-4.299 8.428-7.063-5.003,10.006-11.245,19.336-18.313,27.996-3.421,4.191-7.054,8.152-11.523,11.248-4.72,3.269-10.181,4.657-15.487,6.68-2.528,.964-5.099,1.812-7.66,2.681-1.947,.661-4.604,.829-4.917,3.23-.396,3.048 .355,6.329 .354,9.401 0,1.547 .042,2.387-1.647,2.714-2.201,.426-4.452-.078-6.659-.161-2.21-.08-7.71-.96-9.09,1.46"/>
<path fill="#010101" d="m192.87,204.54c-4.095,0-8.137,.83-12.23,.867-4.697,.042-9.438,.026-14.101-.599-8.136-1.091-15.199-4.033-21.734-8.938-3.215-2.412-6.496-4.984-9.406-7.76-2.677-2.552-4.156-6.032-6.029-9.153-1.938-3.229-2.332-6.959-2.907-10.602-.729-4.622-1.093-9.031-1.206-13.699-.099-4.088-.268-7.871 .604-11.902 .933-4.307 2.043-8.709 3.649-12.816 3.04-7.772 6.418-15.204 11.629-21.766 4.917-6.191 10.752-10.847 17.127-15.437 6.545-4.712 15.689-6.856 23.578-8.048 8.288-1.252 16.599-.627 24.924-.272 7.301,.312 15.693,2.749 21.795,6.795 12.051,7.994 20.245,20.191 26.161,33.165 3.436,7.533 7.239,15.75 6.923,24.219-.152,4.074-.677,8.513-1.87,12.418-1.075,3.521-1.98,7.542-4.036,10.638-8.888,13.38-21.447,22.771-36.568,28.08-8.56,3.01-17.29,3.99-26.29,4.81"/>
</g>
<path fill="none" stroke="#010101" stroke-linejoin="round" stroke-linecap="round" stroke-width=".75" d="m192.87,204.54c-4.095,0-8.137,.83-12.23,.867-4.697,.042-9.438,.026-14.101-.599-8.136-1.091-15.199-4.033-21.734-8.938-3.215-2.412-6.496-4.984-9.406-7.76-2.677-2.552-4.156-6.032-6.029-9.153-1.938-3.229-2.332-6.959-2.907-10.602-.729-4.622-1.093-9.031-1.206-13.699-.099-4.088-.268-7.871 .604-11.902 .933-4.307 2.043-8.709 3.649-12.816 3.04-7.772 6.418-15.204 11.629-21.766 4.917-6.191 10.752-10.847 17.127-15.437 6.545-4.712 15.689-6.856 23.578-8.048 8.288-1.252 16.599-.627 24.924-.272 7.301,.312 15.693,2.749 21.795,6.795 12.051,7.994 20.245,20.191 26.161,33.165 3.436,7.533 7.239,15.75 6.923,24.219-.152,4.074-.677,8.513-1.87,12.418-1.075,3.521-1.98,7.542-4.036,10.638-8.888,13.38-21.447,22.771-36.568,28.08-8.56,3.01-17.29,3.99-26.29,4.81" stroke-miterlimit="10"/>
<path fill="#bfd73b" fill-rule="evenodd" d="m192.87,200.79c-4.285,0-8.505,.919-12.795,.947-4.273,.028-8.557-.092-12.772-.853-7.539-1.361-14.901-4.297-20.8-9.267-3.015-2.541-5.961-5.3-8.306-8.486-1.113-1.513-2.008-3.172-3.113-4.687-1.065-1.46-2.583-2.94-2.988-4.764-.904-4.068-2.068-8.092-2.565-12.239-.555-4.616-.005-9.262 .226-13.88 .201-4.024 1.695-7.849 2.804-11.683 1.226-4.239 2.754-8.25 4.598-12.256 3.47-7.541 7.987-14.511 14.028-20.292 5.574-5.334 12.273-9.29 19.475-11.858 3.743-1.335 7.47-2.947 11.441-3.443 4.06-.506 8.341-.602 12.429-.521 7.659,.15 15.675,.905 22.708,4.042 6.673,2.977 13.379,5.624 18.246,11.319 10.234,11.977 17.654,26.437 20.727,41.929 3.019,15.222-6.524,29.664-17.438,39.281-6.037,5.318-13.013,9.312-20.568,12.057-3.629,1.319-7.306,2.942-11.153,3.49-4.71,.66-9.5,.71-14.21,1.16"/>
<path fill="none" stroke="#010101" stroke-linejoin="round" stroke-linecap="round" stroke-width=".75" d="m192.87,200.79c-4.285,0-8.505,.919-12.795,.947-4.273,.028-8.557-.092-12.772-.853-7.539-1.361-14.901-4.297-20.8-9.267-3.015-2.541-5.961-5.3-8.306-8.486-1.113-1.513-2.008-3.172-3.113-4.687-1.065-1.46-2.583-2.94-2.988-4.764-.904-4.068-2.068-8.092-2.565-12.239-.555-4.616-.005-9.262 .226-13.88 .201-4.024 1.695-7.849 2.804-11.683 1.226-4.239 2.754-8.25 4.598-12.256 3.47-7.541 7.987-14.511 14.028-20.292 5.574-5.334 12.273-9.29 19.475-11.858 3.743-1.335 7.47-2.947 11.441-3.443 4.06-.506 8.341-.602 12.429-.521 7.659,.15 15.675,.905 22.708,4.042 6.673,2.977 13.379,5.624 18.246,11.319 10.234,11.977 17.654,26.437 20.727,41.929 3.019,15.222-6.524,29.664-17.438,39.281-6.037,5.318-13.013,9.312-20.568,12.057-3.629,1.319-7.306,2.942-11.153,3.49-4.71,.66-9.5,.71-14.21,1.16" stroke-miterlimit="10"/>
<g fill-rule="evenodd">
<path fill="#e1edc2" d="m193.62,200.79l-3-18c-.65,1.143-2.874,1.128-3.988,1.343-2.342,.451-4.487,1.048-6.908,.966-5.444-.184-11.031-1.171-16.286-2.566-9.883-2.623-19.985-4.159-27.568-11.742 3.968-.31 7.441,2.044 11.202,2.854 4.398,.947 8.887,1.487 13.383,1.629 4.582,.145 9.293,.652 13.85-.044 4.903-.748 9.869-.689 14.815-.689-.435-3.263-.87-6.525-1.305-9.788-.341-2.562-3.739-1.385-5.375-1.117-6.417,1.049-12.843,.258-19.27-.479-6.321-.725-12.675-3.355-18.325-6.192-2.219-1.114-4.572-2.293-6.433-3.96-1.083-.971-3.125-3.475-4.791-3.213 2.566,0 5.043,.759 7.524,1.318 3.051,.688 6.195,1.035 9.294,1.434 5.949,.766 11.908,1.466 17.866,2.162 5.302,.62 10.613,1.246 15.953,1.412 2.22,.069 2.138-1.135 1.978-3.042-.213-2.537-.114-5.097-.114-7.642 0,.258-6.348-.568-6.959-.657-5.207-.759-10.729-2.011-15.374-4.564-4.289-2.357-7.941-6.404-10.838-10.293-1.562-2.098-2.507-4.59-4.07-6.677-1.21-1.616-3.482-3.453-3.259-5.701 1.211,1.438 3.063,2.389 4.453,3.666 1.66,1.524 3.472,2.896 5.261,4.265 3.604,2.756 7.477,5.165 11.535,7.193 4.026,2.012 8.643,3.887 13.299,3.448 1.355-.128 4.182-.573 5.056-1.716 .885-1.156 .633-3.337 .812-4.707 .44-3.38 1.138-6.728 1.558-10.104 .438-3.519-4.22-4.473-6.759-5.83-4.017-2.147-7.316-5.414-10.714-8.388-2.474-2.166-5.751-4.413-5.751-8.078 1.279,1.279 2.817,1.553 4.238,2.515 1.226,.83 1.972,2.136 3.241,2.967 3.502,2.295 6.994,3.917 11.219,4.222 2.147,.155 4.302,.113 6.454,.106 1.938-.006 2.29,.15 2.865-1.637 1.231-3.834 2.5-7.497 4.049-11.199 .519-1.24 2.744-4.74 3.721-1.866 .522,1.538 .582,3.782 .064,5.337-1.29,3.866-.602,8.05-.602,12.036v6.081c0,.765 .081,1.285 .506,1.935 .54,.826 .244,1.845 .244,2.753 .641-1.126 2.705-1.098 3.805-1.21 2.296-.233 4.402-1.208 6.506-2.094 1.981-.834 4.159-1.343 5.965-2.546 2.093-1.395 3.862-3.208 5.749-4.854 1.151-1.005 8.382-6.645 9.528-3.547 .808,2.184-1.338,6.003-2.491,7.734-4.239,6.366-12.046,9.613-18.798,12.543-1.729,.75-3.421,1.579-5.359,1.445-2.014-.139-2.186,1.731-2.401,3.265-.802,5.696-2.167,11.366-3.253,17.014 8.071,0 16.676-.112 23.3-5.372 7.31-5.803 13.624-12.802 20.2-19.378 .191,2.779-.896,5.49-1.493,8.161-.564,2.525-1.048,5.09-2.105,7.468-2.292,5.158-4.988,10.233-8.6,14.6-3.062,3.705-7.879,5.057-12.063,7.037-5.086,2.405-10.726,2.484-16.238,2.484 .353,3.354 .706,6.706 1.059,10.06 .065,.618-.133,3.94 .527,4.15 2.622,.831 6.552-.214 9.143-.828 3.227-.765 6.623-1.245 9.687-2.556 6.179-2.644 10.673-7.936 15.585-12.326 2.542-2.272 4.987-4.654 7.601-6.847 2.214-1.857 4.034-4.598 6.649-5.903-1.146,.823-1.471,2.312-1.898,3.568-.699,2.05-2.236,3.633-3.341,5.455-2.175,3.588-4.387,7.163-7.03,10.43-2.628,3.249-5.452,6.352-8.584,9.125-3.375,2.99-7.567,4.747-11.629,6.582-3.771,1.702-7.806,2.785-11.732,4.062-3.018,.98-1.398,7.551-1.548,10.081-.116,1.953-6.492,.935-7.899,.965-.81,.05-5.89-.01-5.57,1.51"/>
<path fill="#010101" d="m145.62,218.04c-4.045-.675-8.117-1.493-11.903-3.115-3.871-1.659-8.119-1.964-12.241-2.55-8.591-1.222-17.179-1.59-25.751,.047-3.746,.716-7.431,1.787-10.782,3.644-1.49,.825-3.361,1.499-4.572,2.725-1.362,1.378-2.146,3.608-2.931,5.354-1.475,3.282-1.166,6.938-.618,10.39 .624,3.935 1.438,7.797 3.411,11.3 3.812,6.769 9.014,12.732 14.951,17.72 2.723,2.286 6.069,3.628 9.131,5.374 3.779,2.155 7.757,3.937 11.768,5.61 7.999,3.337 16.293,5.954 24.784,7.699 8.738,1.796 17.579,3.63 26.55,3.086 10.69-.647 21.47-3.833 30.011-10.465 3.568-2.771 6.994-5.304 8.829-9.558 2.081-4.823-.604-10.602-3.056-14.811-5.488-9.426-14.757-14.581-24.062-19.608-4.957-2.678-9.945-5.318-15.236-7.282-5.97-2.2-12.16-3.79-18.28-5.54"/>
</g>
<path fill="none" stroke="#010101" stroke-linejoin="round" stroke-linecap="round" stroke-width=".75" d="m145.62,218.04c-4.045-.675-8.117-1.493-11.903-3.115-3.871-1.659-8.119-1.964-12.241-2.55-8.591-1.222-17.179-1.59-25.751,.047-3.746,.716-7.431,1.787-10.782,3.644-1.49,.825-3.361,1.499-4.572,2.725-1.362,1.378-2.146,3.608-2.931,5.354-1.475,3.282-1.166,6.938-.618,10.39 .624,3.935 1.438,7.797 3.411,11.3 3.812,6.769 9.014,12.732 14.951,17.72 2.723,2.286 6.069,3.628 9.131,5.374 3.779,2.155 7.757,3.937 11.768,5.61 7.999,3.337 16.293,5.954 24.784,7.699 8.738,1.796 17.579,3.63 26.55,3.086 10.69-.647 21.47-3.833 30.011-10.465 3.568-2.771 6.994-5.304 8.829-9.558 2.081-4.823-.604-10.602-3.056-14.811-5.488-9.426-14.757-14.581-24.062-19.608-4.957-2.678-9.945-5.318-15.236-7.282-5.97-2.2-12.16-3.79-18.28-5.54" stroke-miterlimit="10"/>
<path fill="#e1edc2" fill-rule="evenodd" d="m144.87,220.29c-3.7-1.48-7.789-1.517-11.496-2.975-3.996-1.57-7.777-2.016-12.001-2.654-8.528-1.29-17.241-1.478-25.658,.639-5.834,1.467-11.76,4.354-13.979,10.35-2.805,7.581 .207,15.573 3.699,22.345 7.309,14.17 23.221,21.883 37.545,26.938 16.445,5.805 34.564,9.867 51.967,6.479 4.874-.949 9.713-2.66 13.888-5.389 2.064-1.349 3.928-2.977 5.75-4.63 1.698-1.541 3.764-3.015 5.179-4.824 6.014-7.691-.454-16.3-5.881-21.898-12.99-13.41-31.39-19.75-49.02-24.39"/>
<path fill="#bfd73b" stroke="#010101" stroke-linejoin="round" stroke-linecap="round" stroke-width=".75" d="m144.87,220.29c-3.7-1.48-7.789-1.517-11.496-2.975-3.996-1.57-7.777-2.016-12.001-2.654-8.528-1.29-17.241-1.478-25.658,.639-5.834,1.467-11.76,4.354-13.979,10.35-2.805,7.581 .207,15.573 3.699,22.345 7.309,14.17 23.221,21.883 37.545,26.938 16.445,5.805 34.564,9.867 51.967,6.479 4.874-.949 9.713-2.66 13.888-5.389 2.064-1.349 3.928-2.977 5.75-4.63 1.698-1.541 3.764-3.015 5.179-4.824 6.014-7.691-.454-16.3-5.881-21.898-12.99-13.41-31.39-19.75-49.02-24.39" stroke-miterlimit="10"/>
<g fill-rule="evenodd">
<path fill="#e1edc2" d="m145.62,220.29l-3.75,9c-1.062-1.39-2.793-1.327-4.338-1.687-2.299-.533-4.324-1.615-6.723-2.015-4.978-.828-9.851-1.975-14.89-2.451-5.265-.497-10.582-.998-15.863-1.263-2.154-.107-4.467-.318-6.618-.103-1.068,.106-2.04,.59-3.1,.72-.49,.061-2.056-.32-2.387,.216-.278,.451 5.319,.802 5.791,.838 3.108,.243 6.206,.614 9.293,1.047 2.86,.4 5.749,.706 8.597,1.182 2.751,.458 5.283,1.564 7.938,2.365 5.706,1.722 11.738,2.87 17.601,3.906 2.281,.404 2.599,.837 1.875,2.883-.495,1.397-1.156,2.726-1.676,4.111-.562-.986-2.521-1.095-3.49-1.347-2.075-.539-4.09-1.158-6.201-1.577-5.103-1.013-10.104-2.59-15.268-3.284-5.166-.695-10.39-.571-15.589-.545-2.269,.012-4.54,.171-6.768,.616-1.089,.218-2.204,.137-3.306,.137-.953,0-1.658,.846-2.628,.75 4.269,0 8.479,.789 12.674,1.487 4.558,.76 9.161,1.257 13.688,2.197 4.461,.926 9.001,1.37 13.491,2.128 1.914,.324 3.8,.788 5.682,1.259 .88,.221 1.773,.429 2.687,.429 .998,0 1.762,.851 2.778,.75l-.75,6c-.725-1.273-3.157-1.058-4.38-1.285-2.327-.435-4.576-1.186-6.922-1.528-4.368-.64-9.157-.658-13.52,.058-3.949,.647-6.969,2.537-10.512,4.158-1.168,.535-6.355,1.991-5.916,3.848 1.017-1.49 2.984-1.379 4.572-1.45 2.471-.111 4.787-1.054 7.199-1.495 2.382-.436 4.815-.466 7.229-.463 2.655,.003 5.427-.341 8.065-.104 3.416,.307 9.374,.198 11.797,3.071 2.125,2.521 1.386,6.414 1.638,9.44-4.885,0-9.692,.971-14.504,1.692-2.022,.304-4.783,.093-6.617,1.033-.562,.288-2.689,1.675-2.848,2.406-.105,.483 3.78-.421 4.139-.497 1.844-.393 3.711-.108 5.575-.342 4.023-.503 8.224-.208 12.167,.858 3.778,1.022 5.782,1.843 7.187,5.724 .689,1.903 2.006,5.897 4.652,5.625-.816,.084 .916-1.239 .75-.75 .596-1.764 0-3.759 0-5.564 0-2.021 .438-4.381 .752-6.379 .104-.666 .505-2.639 1.574-2.281 2.553,.851 5.003,1.914 7.46,3.002 4.297,1.902 8.153,3.778 11.755,6.836 1.286,1.092 7.375,6.51 9.197,3.938 2.081-2.936-9.958-11.011-11.455-11.508-4.125-1.369-7.77-3.68-11.946-4.876-2.208-.633-2.672-2.207-2.9-4.347-.29-2.736-.899-5.378-1.438-8.071 1.362-.135 3.181,.534 4.555,.728 1.911,.269 3.551,1.418 5.387,1.932 4.149,1.16 7.857,2.706 11.355,5.24 6.579,4.767 13.437,9.584 19.203,15.351 .195-1.646-.748-3.117-1.291-4.6-.799-2.182-1.384-4.275-2.563-6.312-2.181-3.764-5.085-7.069-8.422-9.849-1.363-1.135-2.979-1.859-4.617-2.499-2.088-.816-3.869-2.06-5.863-3.051-3.958-1.967-8.787-3.69-13.243-3.69 .977-2.441 1.954-4.884 2.93-7.325 .137-.342 2.982,.731 3.342,.841 5.249,1.588 10.43,3.361 15.253,6.008 2.003,1.1 3.524,2.532 5.271,3.962 2.064,1.69 4.55,2.746 6.627,4.444 4.378,3.58 9.065,6.81 13.076,10.82-1.473-1.005-1.464-3.185-2.536-4.503-1.859-2.288-3.615-4.596-5.672-6.715-3.705-3.817-7.048-7.809-11.722-10.494-4.824-2.772-10.031-5.028-15.074-7.373-1.329-.618-4.964-1.274-5.37-2.856-.407-1.588 .401-3.255 .624-4.809-1.46-.01-13.07-2.25-12.76-3.76"/>
<path fill="#010101" d="m243.12,220.29c-6.872,3.437-13.362,7.67-18.562,13.386-4.535,4.982-8.8,12.898-7.575,19.885 .571,3.257 1.409,6.923 3.365,9.614 2.274,3.127 4.797,5.784 7.825,8.195 6.473,5.155 13.433,8.483 21.266,11.13 7.996,2.702 16.512,4.843 25.035,4.341 8.329-.491 16.256-2.625 24.006-5.601 7.345-2.82 14.497-7.953 20.053-13.496 5.17-5.157 9.333-11.14 10.441-18.512 .713-4.746-.03-9.306-1.756-13.753-1.544-3.98-2.925-8.296-4.988-12.037-2.083-3.776-5.821-6.719-9.259-9.219-3.674-2.672-7.754-4.873-12.156-6.064-4.907-1.328-10.09-1.193-15.128-1.422-5.148-.234-9.71,.414-14.695,1.7-4.796,1.236-9.716,2.152-14.359,3.912-4.9,1.88-9.08,5.12-13.48,7.95"/>
</g>
<path fill="none" stroke="#010101" stroke-linejoin="round" stroke-linecap="round" stroke-width=".75" d="m243.12,220.29c-6.872,3.437-13.362,7.67-18.562,13.386-4.535,4.982-8.8,12.898-7.575,19.885 .571,3.257 1.409,6.923 3.365,9.614 2.274,3.127 4.797,5.784 7.825,8.195 6.473,5.155 13.433,8.483 21.266,11.13 7.996,2.702 16.512,4.843 25.035,4.341 8.329-.491 16.256-2.625 24.006-5.601 7.345-2.82 14.497-7.953 20.053-13.496 5.17-5.157 9.333-11.14 10.441-18.512 .713-4.746-.03-9.306-1.756-13.753-1.544-3.98-2.925-8.296-4.988-12.037-2.083-3.776-5.821-6.719-9.259-9.219-3.674-2.672-7.754-4.873-12.156-6.064-4.907-1.328-10.09-1.193-15.128-1.422-5.148-.234-9.71,.414-14.695,1.7-4.796,1.236-9.716,2.152-14.359,3.912-4.9,1.88-9.08,5.12-13.48,7.95" stroke-miterlimit="10"/>
<path fill="#bfd73b" fill-rule="evenodd" d="m244.62,221.79c-3.125,2.084-6.606,3.626-9.535,6.005-1.555,1.262-2.843,2.81-4.38,4.091-1.471,1.227-3.177,2.221-4.396,3.728-4.872,6.022-6.346,14.539-4.453,21.857 1.853,7.165 9.134,13.279 15.378,16.853 7.12,4.073 15.553,7.105 23.591,8.74 8.107,1.648 16.978,.938 25.078-.473 8.016-1.397 14.578-4.666 21.055-9.481 6.024-4.479 13.245-9.961 16.301-17.049 2.984-6.923 1.799-15.531-.484-22.49-2.011-6.128-5.536-13.682-11.401-16.95-6.615-3.686-13.276-6.693-20.973-7.183-7.972-.507-15.817,.694-23.511,2.713-3.852,1.01-7.716,2.056-11.375,3.648-3.81,1.65-7.3,3.93-10.9,5.98"/>
<path fill="none" stroke="#010101" stroke-linejoin="round" stroke-linecap="round" stroke-width=".75" d="m244.62,221.79c-3.125,2.084-6.606,3.626-9.535,6.005-1.555,1.262-2.843,2.81-4.38,4.091-1.471,1.227-3.177,2.221-4.396,3.728-4.872,6.022-6.346,14.539-4.453,21.857 1.853,7.165 9.134,13.279 15.378,16.853 7.12,4.073 15.553,7.105 23.591,8.74 8.107,1.648 16.978,.938 25.078-.473 8.016-1.397 14.578-4.666 21.055-9.481 6.024-4.479 13.245-9.961 16.301-17.049 2.984-6.923 1.799-15.531-.484-22.49-2.011-6.128-5.536-13.682-11.401-16.95-6.615-3.686-13.276-6.693-20.973-7.183-7.972-.507-15.817,.694-23.511,2.713-3.852,1.01-7.716,2.056-11.375,3.648-3.81,1.65-7.3,3.93-10.9,5.98" stroke-miterlimit="10"/>
<g fill-rule="evenodd">
<path fill="#e1edc2" d="m245.37,221.79c2.75,3.25 5.5,6.5 8.25,9.75 .147-.281 .132-.518-.046-.709-.682,.158-1.37,.851-2.173,1.04-1.688,.396-2.97,1.29-4.324,2.334-3.236,2.491-6.226,5.199-9.262,7.927-2.914,2.619-5.16,5.861-7.498,8.979-2.121,2.827-3.697,6.079-3.697,9.68 .979-.748 1.467-1.912 2.194-2.869 1.047-1.378 2.521-2.416 3.651-3.729 2.362-2.741 4.752-5.577 7.326-8.123 2.164-2.139 5.744-2.535 8.27-4.31 3.091-2.17 6.61-3.771 9.309-6.47 1.75,2 3.5,4 5.25,6-3.228,0-5.8,2.834-7.917,4.92-1.228,1.21-2.957,1.657-4.288,2.725-1.266,1.015-2.254,2.314-3.395,3.455-2.434,2.434-4.654,5.11-6.077,8.27-.811,1.8-1.381,3.699-2.092,5.537-.609,1.574-1.904,3.335-1.731,5.094 2.817-2.817 5.195-6.034 8.066-8.803 3.175-3.062 6.545-5.903 9.709-8.979 2.709-2.633 6.337-4.314 8.883-7.007 2.66-2.813 5.884,2.11 7.842,3.788-2.261-.475-3.608,2.714-4.97,3.928-2.2,1.962-4.599,3.743-5.769,6.552-1.435,3.44-1.814,7.554-.911,11.173 .433,1.73 1.195,3.436 1.212,5.246 .004,.573-.313,1.361 .081,1.883 .302,.398 .729,.637 .606,1.219-.119-1.209 .646-2.834 .817-4.067 .212-1.524 .738-3.042 1.145-4.523 .766-2.788 2.157-5.106 3.47-7.646 1.161-2.246 1.757-4.979 3.89-6.565 .913-.68 2.202-.658 3.038-1.459 .768-.735 2.06-.219 2.641-1.239-.41,1.522 2.532,2.494 3.504,2.967 2.694,1.312 5.182,2.994 7.746,4.533-1.514-.314-3.044,6.898-3.439,8.168-.691,2.22-1.522,4.698-1.257,7.056 .028,.254 1.184,3.789 1.376,3.784 .644-.015 1.535-5.819 1.794-6.577 .843-2.466 2.505-4.492 4.343-6.292 1.713-1.678 3.257-3.275 5.827-3.118 2.809,.173 6.276,1.846 8.896,2.859 1.158,.448 2.656,1.611 3.724,.342 .763-.906-.337-1.305-1.004-1.838-1.967-1.573-4.202-2.68-6.115-4.325-1.989-1.71-4.074-3.221-6.181-4.747-2.445-1.772-1.589-3.062 .982-4.104 2.826-1.146 5.897-1.767 8.771-2.828 1.581-.584 3.247-.326 4.893-.294 1.745,.035 3.396-.275 5.117-.502 1.376-.182 7.768-1.269 3.9-3.509-2.305-1.336-5.182-1.362-7.768-1.346-6.208,.04-12.215,1.3-17.899,3.741-3.102,1.332-4.161,.863-7.09-.764-3.124-1.735-6.247-3.471-9.371-5.206 1.125,.231 1.924-.986 2.554-1.694 1.132-1.271 2.652-2.107 4.073-3.003 3.021-1.905 6.333-2.54 9.841-2.825 3.63-.294 7.249-.893 10.892-.995 4.378-.122 8.762,.268 13.141,.268-1.376,.222-2.892-1.163-3.94-1.861-1.682-1.12-3.689-1.812-5.573-2.511-4.149-1.54-8.65-3.846-13.146-3.935-4.646-.091-9.346,1.308-13.712,2.704-2.045,.653-4.042,1.263-5.919,2.335-1.347,.769-2.394,2.222-3.854,2.755-1.49,.544-3.314-2.445-4.214-3.348-.973-.976-3.683-2.718-1.896-4.037 3.588-2.65 7.357-4.744 11.707-5.868 5.076-1.312 10.365-1.234 15.568-1.234h16.729c-1.237-1.904-4.53-1.857-6.518-2.135-3.789-.528-7.596-.961-11.37-1.586-3.363-.559-6.605-.779-10.013-.779-3.479,0-6.416,1.206-9.721,2.199-3.061,.921-6.117,2.199-9.244,2.86-.569,.124-1.146,.188-1.729,.19-.494,0-.435,.538-.853,.64-.768,.186-2.343-1.602-2.9-2.04-2.439-1.915-3.919-2.494-6.467-.312-1.32,1.11-3.77,3.61-5.7,3.2"/>
<path fill="#010101" d="m183.87,232.29c-16.02,0-32.591-1.602-46.847-9.505-6.609-3.665-12.823-8.501-17.235-14.695-1.115-1.564-2.055-3.228-3.007-4.894-.911-1.594-2.35-3.376-2.685-5.209-.698-3.818-.866-8.479-.546-12.343 .34-4.109 1.83-8.142 2.987-12.073 1.176-3.997 3.115-7.151 5.102-10.772 3.579-6.525 8.606-12.203 14.074-17.289 2.966-2.759 6.539-4.875 9.841-7.201 3.586-2.526 6.907-4.71 11.057-6.217 3.648-1.324 7.258-2.845 10.953-4.028 4.298-1.377 8.944-1.511 13.407-1.99 17.712-1.897 34.962,.096 51.801,5.882 7.801,2.681 14.457,6.291 20.478,12.017 5.645,5.369 10.011,11.77 13.292,18.818 3.658,7.857 6.062,15.915 6.375,24.597 .064,1.788 .482,3.854-.026,5.598-.473,1.621-1.329,3.108-1.867,4.711-1.399,4.161-3.53,7.416-6.503,10.642-10.259,11.13-23.925,17.831-38.533,21.281-6.423,1.517-13.136,2.641-19.711,3.194-7.37,.63-15-.23-22.39-.52"/>
</g>
<path fill="none" stroke="#010101" stroke-linejoin="round" stroke-linecap="round" stroke-width=".75" d="m183.87,232.29c-16.02,0-32.591-1.602-46.847-9.505-6.609-3.665-12.823-8.501-17.235-14.695-1.115-1.564-2.055-3.228-3.007-4.894-.911-1.594-2.35-3.376-2.685-5.209-.698-3.818-.866-8.479-.546-12.343 .34-4.109 1.83-8.142 2.987-12.073 1.176-3.997 3.115-7.151 5.102-10.772 3.579-6.525 8.606-12.203 14.074-17.289 2.966-2.759 6.539-4.875 9.841-7.201 3.586-2.526 6.907-4.71 11.057-6.217 3.648-1.324 7.258-2.845 10.953-4.028 4.298-1.377 8.944-1.511 13.407-1.99 17.712-1.897 34.962,.096 51.801,5.882 7.801,2.681 14.457,6.291 20.478,12.017 5.645,5.369 10.011,11.77 13.292,18.818 3.658,7.857 6.062,15.915 6.375,24.597 .064,1.788 .482,3.854-.026,5.598-.473,1.621-1.329,3.108-1.867,4.711-1.399,4.161-3.53,7.416-6.503,10.642-10.259,11.13-23.925,17.831-38.533,21.281-6.423,1.517-13.136,2.641-19.711,3.194-7.37,.63-15-.23-22.39-.52" stroke-miterlimit="10"/>
<path fill="#bfd73b" fill-rule="evenodd" d="m184.62,229.29c-8.767-1.461-17.987-.101-26.628-2.29-7.489-1.898-15.297-4.822-21.682-9.181-6.25-4.268-11.497-8.98-14.544-16.043-1.623-3.76-2.958-7.722-3.272-11.829-.334-4.361 .863-8.785 1.784-13.021 3.448-15.851 16.99-28.174 29.667-37.174 6.518-4.627 14.929-7.07 22.686-8.761 8.397-1.83 17.304-2.441 25.878-1.901 16.87,1.062 32.907,5.183 47.087,14.553 6.582,4.35 11.336,11.229 14.418,18.362 1.604,3.714 3.264,7.422 4.762,11.18 1.702,4.271 2.361,8.555 2.997,13.079 .534,3.802-.838,7.213-2.177,10.688-.662,1.723-.989,3.19-2.122,4.699-1.432,1.909-2.878,3.807-4.266,5.748-2.261,3.163-5.17,4.93-8.362,7.024-3.716,2.438-7.53,4.747-11.534,6.685-7.33,3.549-15.738,6.134-23.811,7.05-8.885,1.009-17.589,1.27-26.528,1.162-1.47-.02-2.92-.04-4.37-.04"/>
<path fill="none" stroke="#010101" stroke-linejoin="round" stroke-linecap="round" stroke-width=".75" d="m184.62,229.29c-8.767-1.461-17.987-.101-26.628-2.29-7.489-1.898-15.297-4.822-21.682-9.181-6.25-4.268-11.497-8.98-14.544-16.043-1.623-3.76-2.958-7.722-3.272-11.829-.334-4.361 .863-8.785 1.784-13.021 3.448-15.851 16.99-28.174 29.667-37.174 6.518-4.627 14.929-7.07 22.686-8.761 8.397-1.83 17.304-2.441 25.878-1.901 16.87,1.062 32.907,5.183 47.087,14.553 6.582,4.35 11.336,11.229 14.418,18.362 1.604,3.714 3.264,7.422 4.762,11.18 1.702,4.271 2.361,8.555 2.997,13.079 .534,3.802-.838,7.213-2.177,10.688-.662,1.723-.989,3.19-2.122,4.699-1.432,1.909-2.878,3.807-4.266,5.748-2.261,3.163-5.17,4.93-8.362,7.024-3.716,2.438-7.53,4.747-11.534,6.685-7.33,3.549-15.738,6.134-23.811,7.05-8.885,1.009-17.589,1.27-26.528,1.162-1.47-.02-2.92-.04-4.37-.04" stroke-miterlimit="10"/>
<g fill-rule="evenodd">
<g>
<path fill="#e1edc2" d="m185.37,229.29v-16.5c-1.421,2.594-7.89,1.047-10.128,.739-6.369-.876-12.474-2.336-18.686-3.979-6.754-1.788-13.443-3.566-19.863-6.377-3.193-1.398-6.178-3.211-9.361-4.626-1.222-.543-1.961-4.105-3.462-3.757 3.035,0 5.473,2.102 8.25,3 3.601,1.165 7.309,1.947 10.97,2.891 7.303,1.881 14.82,3.468 22.404,3.155 4.976-.204 9.737,.654 14.667,1.209 1.074,.12 3.341,.73 4.354,.148 1.442-.83 .733-8.103 .855-9.653-2.677,0-5.292-.727-7.967-.755-2.652-.029-5.307-.208-7.925-.644-5.741-.956-11.268-2.017-16.928-3.432-4.971-1.242-9.862-2.967-14.192-5.752-4.413-2.838-9.238-5.168-12.988-8.918 .454,.797 1.486,.864 2.291,.917 1.615,.104 3.094,.646 4.62,1.14 3.147,1.02 6.442,1.436 9.636,2.273 6.586,1.728 13.116,3.701 19.806,5.006 6.466,1.261 13.027,2.501 19.629,2.66 2.534,.062 3.685-.181 4.441-2.739 .533-1.803 .585-3.7 1.078-5.507-2.124,.186-3.987-1.11-6.019-1.469-2.472-.437-4.783-.383-7.215-1.192-4.388-1.463-9.051-2.697-12.862-5.429-3.874-2.776-6.899-6.881-9.748-10.643-1.585-2.095-2.941-4.273-3.887-6.735-.716-1.864-1.352-4.023-3.02-5.282 1.126-.203 2.18,2.183 2.86,2.859 1.636,1.627 3.333,3.112 5.213,4.451 3.868,2.755 7.817,5.439 11.956,7.774 4.052,2.286 8.301,3.823 12.713,5.238 3.303,1.06 7.367,2.548 10.657,.479 1.017-.639 1.277-2.532 1.541-3.585 .482-1.922 1.204-3.771 1.858-5.641 .419-1.197 2.323-4.454 1.667-5.718-.833-1.608-3.6-2.672-5.085-3.552-3.981-2.359-7.717-5.134-11.406-7.919-3.142-2.373-6.475-5.088-6.475-9.389-.305,1.694 3.513,3.132 4.631,3.718 3.684,1.929 6.998,4.525 10.806,6.233 3.082,1.382 6.782,2.384 10.184,2.146 1.537-.108 3.324,.511 4.781-.192 1.377-.666 1.359-2.596 2.064-3.763 1.309-2.165 3.104-4.682 4.817-6.546 .783-.853 5.83-3.546 5.663-.721-.091,1.551-1.167,3.18-1.72,4.597-.87,2.229-1.595,4.514-2.163,6.838-1.055,4.313-1.564,8.752-1.564,13.191 .792-1.432 2.878-.75 4.152-.75 2.45,0 4.839-.698 7.274-.886 3.884-.299 8.365-.014 11.823-2.114 .658-.399 .902-1.201 1.603-1.552 1.143-.57 2.294-1.124 3.466-1.631 2.162-.936 4.543-1.696 6.811-2.335 3.446-.971 3.12,2.316 1.946,4.444-1.867,3.387-5.704,5.198-9.148,6.561-4.849,1.919-9.8,3.172-14.944,4-2.417,.39-4.836,.778-7.26,1.122-1.881,.268-3.276,.531-4.268,2.278-2.724,4.801-4.986,9.925-7.455,14.862 .799-.069 1.522,.29 2.251,.545 1.288,.451 2.54-.036 3.836,.223 2.421,.484 4.889,.732 7.357,.732 4.923,0 9.887-.791 14.324-3.009 4.909-2.455 9.818-4.91 14.729-7.364 2.167-1.084 4.206-2.389 6.361-3.49 1.966-1.004 4.497-1.538 5.892-3.387 .253,1.924-1.302,4.068-2.137,5.686-1.256,2.43-2.48,4.621-4.23,6.751-3.783,4.604-7.751,9.331-13.048,12.25-4.982,2.745-10.595,4.276-16.187,5.144-2.992,.465-6.016,.835-9.045,.907-1.573,.038-2.879-.392-4.404-.655-1.469-.253-2.817-.141-4.199-.832l-.75,13.5c10.826,0 22.939,1.558 32.576-4.448 4.567-2.846 9.67-4.72 14.353-7.364 2.304-1.302 4.629-2.567 6.868-3.978 2.118-1.334 4.335-2.96 6.953-2.96-4.15,2.075-6.719,6.042-9.933,9.215-3.395,3.35-7.438,5.948-11.408,8.552-4.247,2.785-8.67,5.592-13.61,6.95-4.883,1.343-10.004,1.648-14.965,2.62-2.312,.453-4.631,.905-6.983,1.084-2.139,.162-2.557-.013-3.065,2.136-.401,1.696-.346,6.958-2.43,7.174-3.21,.35-13-3.57-14.84-.22"/>
</g>
<g fill="#afdfe5">
<path d="m81.121,95.792c-3.593,0-7.078,1.006-10.628,1.41-3.789,.432-7.606,.647-11.362,1.338-7.006,1.288-14.03,2.983-20.604,5.774-3.301,1.401-6.618,2.719-9.977,3.978-3.46,1.297-6.537,3.228-9.839,4.85-3.409,1.673-6.78,3.466-10.235,5.039-1.317,.599-2.263,1.596-3.251,2.618-.996,1.03-2.763,.76-3.604,1.993 4.517-15.811 10.904-31.368 20.6-44.746 4.79-6.608 9.288-13.599 15.104-19.373 6.165-6.12 12.055-12.591 18.865-18.022 6.594-5.26 13.951-9.424 21.004-14.015 3.49-2.271 6.92-4.699 10.627-6.611 3.799-1.96 7.927-3.194 11.955-4.585 8.578-2.963 17.114-6.124 25.759-8.886 8.049-2.572 16.575-2.788 24.919-3.572 9.187-.863 18.333-2.108 27.545-2.702 9.009-.581 18.021-.118 27.031,.16 9.215,.284 18.455,.025 27.649,.801 8.892,.75 17.647,2.537 26.446,3.952 8.626,1.385 16.911,2.58 25.247,5.294 8.275,2.694 16.708,4.965 24.751,8.323 8.12,3.39 15.623,8.035 23.376,12.155 3.428,1.82 6.489,4.23 9.528,6.622 3.304,2.599 6.751,5.032 9.814,7.921 3.024,2.854 6.113,5.678 8.705,8.944 2.646,3.333 4.521,7.191 7.072,10.591-2.556-1.278-5.499-1.076-8.25-1.5-3.319-.512-6.679-.668-10.032-.765-3.592-.103-7.089-.999-10.699-.706-3.555,.288-7.074,.979-10.621,1.356-6.843,.726-13.69,1.408-20.524,2.211-3.572,.419-7.147,.85-10.705,1.383-2.883,.433-6.795,.459-9.418,1.771 .378-1.798-2.757-3.908-3.906-4.81-2.553-2.004-5.259-3.796-8.15-5.275-7.721-3.948-15.731-5.641-24.294-6.57-8.814-.957-17.647-1.54-26.469-2.404-9.065-.889-18.109-2.37-27.14-3.58-8.928-1.197-17.687-2.691-26.703-3.06-4.282-.175-8.573-.59-12.859-.561-4.699,.031-9.431,.736-14.129,1.002-14.944,.846-28.283,8.58-38.718,18.954-9.796,9.734-16.837,21.551-23.889,33.305"/>
<path d="m.871,147.54c-1.416,2.831-.765,6.139-.396,9.132 .469,3.799 1.292,7.541 2.165,11.265 .8,3.413 1.443,6.874 2.283,10.274 .887,3.593 2.712,6.883 4.357,10.169 6.595,13.173 14.462,25.167 23.813,36.559 9.115,11.104 19.048,22.084 29.757,31.666 9.159,8.195 20.357,16.936 33.271,16.936-5.333-2.667-8.961-7.579-12.75-12-4.351-5.076-8.541-10.429-11.044-16.69-2.624-6.561-3.127-13.494-1.595-20.381 .693-3.116 1.96-5.59 3.424-8.38 1.528-2.912 3.097-4.681 5.417-7.001-.024,.024-8.529-13.478-8.838-13.958-5.473-8.508-12.29-17.096-20.473-23.146-3.839-2.839-8.249-5.241-13.004-6.037-5.12-.856-10.37,.027-15.417-1.477-5.009-1.492-9.32-4.992-13.323-8.219-1.853-1.493-3.473-3.103-4.877-5.029-.773-1.06-3.097-2.09-2.77-3.68"/>
<path d="m375.87,98.792c-1.397-.313-2.264,2.254-3.013,3.016-1.776,1.812-3.091,4-4.47,6.112-3.126,4.79-5.325,9.898-7.287,15.256-1.982,5.415-3.419,10.998-5.26,16.459-1.77,5.253-4.939,9.86-7.805,14.553-2.896,4.746-5.552,9.639-8.654,14.258-3.188,4.745-7.104,8.869-10.743,13.256-3.365,4.058-8.128,6.923-11.877,10.67-4.182,4.18-8.712,7.989-12.892,12.169 7.97,0 13.024,4.018 18,9.75 1.074,1.236 2.641,2.102 3.273,3.685 .744,1.86 1.564,3.691 2.445,5.491 .903,1.848 1.706,3.718 2.488,5.619 .611,1.488 1.711,3.016 1.543,4.705 9.705-7.278 18.587-15.692 26.109-25.222 2.042-2.587 4.084-5.174 6.127-7.761 1.714-2.17 2.616-4.824 3.81-7.285 2.812-5.799 5.811-11.394 7.717-17.585 .962-3.125 1.833-6.281 2.744-9.422 .761-2.62 1.878-5.217 2.221-7.938 .837-6.651 .766-13.541 1.128-20.235 .7-13.23-3.21-26.6-5.62-39.568"/>
</g>
</g>
</svg>
