<svg xmlns="http://www.w3.org/2000/svg" viewBox="0 0 796.16 1451.3">
<defs>
<filter width="1.926" x="-.463" y="-.212" height="1.424" color-interpolation-filters="sRGB" id="filter4963">
<feGaussianBlur stdDeviation="31.4978"/>
</filter>
<filter width="1.813" x="-.406" y="-.143" height="1.286" color-interpolation-filters="sRGB" id="filter4951">
<feGaussianBlur stdDeviation="19.75819"/>
</filter>
<filter width="1.543" x="-.272" y="-.18" height="1.361" color-interpolation-filters="sRGB" id="filter4577">
<feGaussianBlur stdDeviation="20.15047"/>
</filter>
<filter width="2.859" x="-.929" y="-.274" height="1.548" color-interpolation-filters="sRGB" id="filter6953">
<feGaussianBlur stdDeviation="37.50778"/>
</filter>
</defs>
<g transform="translate(21.743 108.83)">
<path fill="#a86b55" stroke="#000" d="m262.86,630.28c-.4085-77.671 124.22-125.64 201.43-117.14 59.288,6.5217 120.71,62.753 131.43,121.43 1.1478,6.2848-3.4822,13.281-8.5714,17.143-35.932,27.269-87.776,24.179-132.86,25.714-46.516,1.5844-94.387-2.5172-138.57-17.143-19.233-6.3663-52.751-9.7412-52.857-30z" transform="translate(-52.5 -125.63)"/>
<path fill="#f6c482" stroke="#fbbc69" d="m160,533.99s23.44,34.959 38,50c19.119,19.749 39.484,39.57 64,52 25.816,13.089 55.266,18.521 84,22 43.686,5.2898 88.169,1.9086 132-2 45.086-4.0205 92.541-3.8341 134-22 24.796-10.865 43.724-32.062 64-50 6.1198-5.4142 17.333-17.333 17.333-17.333s-103.01,281.94-153.33,423.33c-29.125,81.838-55.224,164.77-86,246-9.186,24.246-17.418,49.022-29.429,72-6.7304,12.876-11.388,28.881-23.714,36.571-4.7205,2.9452-12.999,6.2445-16.571,2-22.474-26.703-31.745-62.358-43.714-95.143-19.15-52.4-30.38-107.4-44.58-161.4-23.07-87.7-44.72-175.83-66-264.01-15.413-63.876-29.153-128.15-44.667-192-8.1184-33.414-25.333-100-25.333-100z" transform="translate(-52.5 -125.63)"/>
<path fill="none" stroke="#f6c482" d="m158.76,534.09s34.03,49.959 57.524,68.19c31.667,24.573 69.334,42.83 108.29,52.286 52.494,12.743 108.01,5.9885 162,4.2857 22.364-.7053 45.092-.8094 66.857-6 28.815-6.8718 57.463-17.138 82.571-32.857 17.599-11.018 31.474-27.164 46-42 4.9578-5.0638 14-16 14-16l-20,50s-27.879,22.452-43.333,31.333c-22.76,13.08-46.447,25.893-72,31.905-48.102,11.316-98.731,8.9022-148.1,6.6667-42.729-1.935-86.748-3.2711-127.14-17.333-31.25-10.88-60.15-29.22-85.43-50.58-11.56-9.77-29.33-34.66-29.33-34.66z" transform="translate(-52.5 -125.63)"/>
<path fill="#fbbc69" stroke="#ff9e25" d="m184,628.66c8,0 28.667-2 28.667-2l16.667,11.333-40.667,10z" transform="translate(-52.5 -125.63)"/>
<path fill="#a86b55" stroke="#6d3624" d="m26.833,433.12c-19.978-43.78-30.842-97.46-16.571-143.42 15.813-50.93 58.42-94.87 105.14-120.58 42.38-23.313 95.062-21.535 143.43-22 39.266-.3774 85.919-8.6838 116.76,15.619 42.51,33.496 58.61,97.308 58.571,151.43-.0588,83.473-16.707,194.73-90.667,233.43-10.29,5.3841-22.49-10.454-33.873-8.1525-13.632,2.756-19.759,26.255-33.586,24.754-12.608-1.3683-12.432-27.563-25.071-28.618-13.864-1.1578-18.443,27.268-32.328,26.397-12.593-.79-14.193-23.239-26.098-27.418-9.5514-3.3526-23.762-3.8151-30.092,4.0844-9.8419,12.282 18.416,40.731 4,47.048-63.13,27.67-110.99-89.85-139.61-152.57z"/>
<path fill="#8a432b" filter="url(#filter4963)" stroke="#a86b55" d="m152.83,133.7 188,59.333s47.447,104.84 47.333,160.67c-.096,47.317-6.3012,103.47-40.667,136-33.196,31.418-102.82,66.029-133.33,32-37.354-41.657 56.667-158 56.667-158l-50-145.33z"/>
<path fill="#fdf5cb" stroke="#ebe1a3" stroke-width=".986" d="m371.88,200.38c24.053-25.126 62.189-35.248 96.762-39.059 49.928-5.5028 105.42-.9289 148.67,24.619 50.983,30.118 91.34,83.291 110,139.49 11.295,34.016 8.2721,73.418-2.8571,107.49-9.4582,28.955-30.275,53.781-51.965,75.168-32.442,31.987-78.276,105.01-113.51,76.129-13.302-10.902 27.078-32.096 19.764-47.662-3.1469-6.6982-13.903-7.69-21.215-6.5458-19.118,2.9918-28.287,31.897-47.591,33.244-10.897,.7605-18.58-12.346-29.212-14.853-22.303-5.2596-47.435,8.9244-68.744,.4958-27.057-10.702-48.645-34.997-63.238-60.17-22.663-39.094-34.534-86.531-32.286-131.66 2.7566-55.33 17.12-116.66 55.429-156.68z"/>
<path fill="#ffe181" filter="url(#filter4951)" stroke="#ffe181" d="m511.5,205.03 170.67,51.33 19.33,132.67s-106.67,162.67-103.33,149.33c3.3334-13.333-3.3333-189.33-3.3333-202.67 0-13.333-83.333-130.67-83.333-130.67z"/>
<path fill="#f7f7f6" filter="url(#filter6953)" stroke="#faf9f9" d="m288,985.99c8,4 64,36 64,36s8.2772,94.543 18.75,148c21.567,110.09 12.25,90 11.25,94-2,8 6,64-4,48s-64-158-64-158z" transform="matrix(1 0 0 1.4048 -52.5 -656.77)"/>
<path fill="#61271d" stroke="#552424" d="m180.83,212.41c-64.64-40.69 3.97-166.75 56.67-222.05 39.18-41.104 106.18-53.514 162.86-49.998 40.633,2.5205 80.741,23.248 111.43,50 33.863,29.52 66.277,69.658 71.429,114.29 5.9076,51.181 1.3649,141.2-49.905,146.29-7.2699,.7212-4.2966-16.076-11.014-18.948-11.149-4.7676-23.61,11.472-35.368,8.5086-9.7221-2.4506-12.487-18.661-22.415-20.057-16.19-2.2773-28.617,16.269-44.156,21.354-16.977,5.5554-34.874,8.6105-52.704,9.7015-8.9807,.5495-18.028-.4069-26.944-1.6134-13.468-1.8224-26.292-8.4845-39.882-8.467-14.496,.0186-28.475,12.742-42.517,9.1408-10.743-2.7549-16.095-15.379-25.149-21.784-5.684-4.0212-12.967-5.688-18.152-10.335-6.6092-5.9231-6.8131-20.469-15.621-21.561-8.0057-.9926-11.728,19.834-18.555,15.537z"/>
<path fill="#471910" filter="url(#filter4577)" stroke="#000" d="m396.83-34.971s127.22,70.985 117.33,56c-51.128-77.52 59.066,109.21 60.667,110.67-16.831,29.876-83.223,102.38-94.961,101.59-11.738-.7982 21.178-92.903 6.9612-116.25z"/>
</g>
</svg>
