<svg xmlns="http://www.w3.org/2000/svg" viewBox="0 0 121.174 182.748" xmlns:xlink="http://www.w3.org/1999/xlink" enable-background="new 0 0 121.174 182.748">
<g fill-rule="evenodd">
<g stroke="#000" stroke-width=".036" stroke-miterlimit="10">
<g>
<path d="m5.817,51.942c-1.044,1.908-1.296,3.78-.756,5.616 .504,1.836 1.692,3.636 3.708,5.4l2.664,29.088c-.936,1.045-1.44,2.053-1.656,2.881-.216,.791-.504,1.043 .504,2.158 .936,1.01 3.492,3.061 5.292,4.068 1.692,.938 3.312,1.404 5.004,1.549 1.872,1.439 3.24,3.744 4.248,7.344 .9,3.455 .648,6.768 1.476,13.68 .684,6.949 2.052,20.377 3.132,27.359 1.116,6.805 2.052,11.16 3.204,13.357-.792,3.023-.864,5.543-.072,7.955 .72,2.305 .972,4.213 4.644,6.012 3.708,1.729 11.196,3.672 17.172,4.32 5.868,.469 13.141-.576 17.783-1.332 4.465-.863 7.416-.971 9.434-3.383 2.016-2.449 2.662-6.084 2.34-11.053 .576-3.961 1.08-7.199 1.512-9.863 .359-2.736 .648-2.197 1.008-6.156 .252-4.213 .396-11.953 1.008-18.072 .576-6.191 1.871-13.896 2.771-18.396 .721-4.535 1.332-6.443 2.268-8.496 .865-2.088 1.369-2.627 3.457-4.139 2.088-1.656 4.969-3.457 8.928-5.545-.359-2.195-.576-4.932-.648-8.604-.18-3.78-.324-9.108-.143-13.212 .035-4.212 .395-7.74 .791-11.268 1.26-.72 2.16-1.728 2.844-3.024 .684-1.368 1.008-2.988 1.117-5.004-34.346-1.08-68.689-2.161-103.03-3.241z"/>
</g>
<g fill="#fbdf99">
<path d="m100.93,64.902c-8.137,3.78-17.354,6.228-28.08,7.2-10.836,.864-25.85-.072-36.145-1.439-10.332-1.404-18.612-3.6-25.272-6.732-2.088-2.268-3.204-4.212-3.888-5.976-.648-1.8-.54-3.348 .18-4.644-.252,1.332 2.484,2.664 8.208,4.536 5.76,1.692 15.84,4.932 26.064,5.976 10.152,1.008 23.328,1.152 34.273,.036 10.871-1.26 20.771-3.492 30.383-7.092 .396,1.044-.035,2.304-.9,3.636-1.04,1.331-2.52,2.879-4.82,4.499z"/>
<path d="m11.145,66.45l1.8,26.352c4.392,2.664 11.88,4.68 22.608,5.652 10.836,.828 30.168,1.115 41.615,.469 11.27-.576 19.729-1.838 25.813-3.781-.396-4.932-.721-9.684-.828-14.4-.145-4.752-.072-9.432 .072-14.04-5.4,2.916-11.881,5.076-19.871,6.336-8.064,1.188-18.613,1.692-27.901,1.368-9.504-.36-20.304-2.016-27.684-3.312-7.267-1.367-12.379-2.916-15.619-4.644z"/>
<path d="m95.816,100.18c-2.484,2.088-8.496,3.383-18.035,4.031-9.793,.611-29.161,.359-39.349-.217-10.116-.684-16.524-2.447-20.88-3.635-4.32-1.297-4.752-2.809-5.328-3.709-.72-1.008-1.584-2.016 1.44-1.512s8.676,3.348 16.38,4.5c7.74,.936 20.592,1.369 29.124,1.584 8.208,.107 14.112,0 20.483-.467 6.373-.469 12.133-1.225 17.568-2.27-.467,.551-.934,1.127-1.403,1.7z"/>
<path d="m25.437,104c1.116,1.584 2.196,5.004 3.096,10.801 .792,5.76 1.368,14.652 2.304,23.221 .936,8.424 2.124,17.279 3.564,27 2.88,2.916 7.02,4.787 12.42,5.904 5.364,1.008 13.788,1.26 19.835,.467 6.012-.936 11.197-2.771 15.949-5.652 .324-3.959 .576-9.107 1.15-15.73 .469-6.732 1.117-17.641 1.801-23.689 .648-6.047 .936-8.748 1.98-12.383 .936-3.781 2.16-7.057 3.672-9.973-5.652,1.152-11.52,2.088-18,2.664-6.48,.469-12.528,1.297-20.484,.828-8.027-.47-17.027-1.63-27.287-3.46z"/>
</g>
<g>
<path d="m34.005,108.97l1.224,9.756 9.9,.756-8.892-1.691-2.232-8.83z"/>
<path d="m36.201,123.44l1.944,17.568 9.864,1.727-8.676-2.844-3.132-16.46z"/>
<path d="m39.693,146.91l.972,16.381 7.704,2.016-6.12-3.131-2.556-15.27z"/>
<path d="m50.853,111.09l.288,8.387 6.228,.217-4.824-1.152-1.728-6.264 .036-1.2z"/>
<path d="m51.177,123.76l1.296,19.512 5.796,.395-4.428-1.33-2.664-18.57z"/>
<path d="m52.689,147.78l.576,17.531 5.436,.359-4.248-1.512-1.764-16.38z"/>
<path d="m61.977,110.7l.468,8.783 4.859-.215-3.852-.721-1.548-6.264 .073-1.58z"/>
<path d="m61.725,123.15l.828,20.484 6.84-.359-5.4-.973-2.268-19.15z"/>
<path d="m62.229,148.28l.541,17.352 5.256-.217-4.248-.719-1.549-16.41z"/>
<path d="m72.561,147.49l-1.188,17.064 4.32-1.008-3.096-.107-.036-15.94z"/>
<path d="m72.453,122.94l-.324,19.656 4.896-1.01-3.889,.289-.683-18.94z"/>
<path d="m73.281,110.12l-.469,8.172 7.201-.9-5.832-.215-.9-7.06z"/>
<path d="m81.633,110.23l-.035,6.625 2.734-.289-1.512-.648-1.187-5.69z"/>
<path d="m80.588,123.22l-.791,17.496 3.348-1.225-2.305-.287-.252-15.99z"/>
<path d="m79.186,147.13l-1.152,16.488 4.139-2.16-3.311,.648 .324-14.98z"/>
<path d="m17.517,70.771l4.896-5.04c-3.168-1.764-5.94-3.528-8.172-5.724-2.268-2.304-3.204-5.292-5.436-7.164-2.412-1.836-7.848-.468-8.676-3.816-.864-3.492 1.404-13.248 3.6-17.064 2.088-3.96 6.264-3.708 9.036-6.444 2.664-2.808 2.52-6.228 7.2-10.26 4.608-4.176 9.828-12.6 20.52-14.436 10.692-1.908 32.617-.36 42.984,3.276 10.115,3.528 14.508,12.924 17.893,18.468 3.348,5.508 4.211,10.332 2.447,14.616 5.328,2.808 9,5.436 11.16,8.028 2.088,2.448 .539,4.68 1.477,7.128 .863,2.304 3.24,3.96 3.924,7.488 .576,3.528 1.584,11.088-.18,13.932-1.908,2.736-5.508,4.392-10.801,2.592-5.328-1.908-12.275-6.552-20.988-13.932-5.543,7.092-9.791,11.628-13.283,13.608-3.457,1.872-4.104-3.024-7.236-1.908-3.313,1.08-7.632,6.12-11.988,8.316-4.5,1.98-9.936,2.412-14.076,4.212-4.284,1.8-8.208,7.201-10.512,6.767-2.268-.504-3.204-3.851-2.808-9.899-5.184,0-8.676-1.044-10.476-3.132-1.802-2.16-2.018-5.364-.506-9.612z"/>
<path fill="#edd4a8" d="m24.249,64.687c-2.88-1.512-5.328-3.42-7.884-5.724-2.592-2.412-4.716-6.768-7.056-8.352-2.448-1.512-5.868,.9-6.912-1.224-1.08-2.484-.576-9.216 .684-12.564 1.26-3.312 4.464-5.508 6.552-7.272 1.98-1.908 3.312-1.728 5.4-4.032 2.016-2.484 3.06-6.552 6.732-10.26 3.564-3.744 8.964-9.828 14.796-12.024 5.796-2.376 12.996-1.692 19.512-1.548 6.373,.072 13.572,1.476 18.683,2.412 5.041,.792 7.381,.108 11.342,2.808 3.852,2.772 8.604,9.072 11.482,13.068 2.736,3.744 4.5,6.516 4.752,9.72 .072,3.168-1.295,6.66-3.959,9.072-2.771,2.196-10.943,3.564-12.275,4.5-1.369,.828 .971,1.404 4.104,.9 3.059-.54 9.971-4.464 13.932-3.996 3.852,.396 7.127,4.212 8.855,6.444 1.549,2.052-.035,4.176 .684,6.228 .686,2.016 2.664,3.636 3.602,6.12 .828,2.448 2.016,5.94 1.619,8.676-.576,2.628-1.08,7.524-4.572,7.488-3.6-.144-11.844-5.4-16.271-7.992-4.428-2.628-7.813-5.076-10.152-7.488-5.795,7.164-10.188,11.736-13.463,13.572-3.35,1.872-2.412-3.852-6.084-2.448-3.816,1.26-11.305,7.884-16.057,10.296-4.752,2.304-8.928,2.16-12.132,3.852-3.312,1.62-5.976,6.66-7.56,6.228-1.764-.576-2.448-3.708-2.448-9.396-4.392,.108-7.524-.468-9.54-1.728-2.124-1.332-3.168-3.348-2.592-5.904 .658-2.629 2.638-5.724 6.238-9.432z"/>
</g>
</g>
<g fill="#dec599">
<path d="m11.613,42.942c2.52,3.168 8.028,10.548 12.636,13.932 4.464,3.348 6.084,7.308 14.436,5.904 8.46-1.656 28.513-11.052 35.28-15.156 6.48-4.104 6.48-9.9 3.744-9.216-2.916,.648-12.924,10.08-20.16,12.888-7.236,2.592-14.508,5.148-22.644,2.952-8.172-2.376-21.852-14.436-25.776-16.344-3.96-1.907-.036,1.765 2.484,5.04z"/>
<path d="m35.553,77.574c2.196-1.944 8.28-4.104 11.16-4.68 2.7-.648 1.908,3.132 5.4,1.224 3.492-2.052 12.276-11.16 15.264-12.888 2.809-1.692-.469,2.628 1.98,2.412 2.412-.432 12.924-5.076 12.635-4.5-.504,.72-9.648,4.608-14.939,8.172-5.328,3.384-12.132,10.116-16.236,12.024-3.996,1.728-5.184-1.872-7.884-1.08-2.88,.72-8.028,5.832-9.18,5.76-1.26-.18-.432-4.643 1.8-6.444z"/>
<path d="m82.965,32.143c1.691-3.132 7.885-8.46 10.656-9.036 2.664-.54 4.896,3.996 5.436,6.264 .432,2.232 .107,5.112-2.484,7.128-2.736,1.872-11.051,5.04-13.283,4.356-2.233-.829-2.198-5.725-.325-8.712z"/>
</g>
</g>
</svg>
