<svg xmlns="http://www.w3.org/2000/svg" viewBox="0 0 322.79 248.83" xmlns:xlink="http://www.w3.org/1999/xlink">
<defs>
<filter color-interpolation-filters="sRGB" id="filter6488">
<feGaussianBlur stdDeviation="2.34849"/>
</filter>
<filter color-interpolation-filters="sRGB" id="filter6456">
<feGaussianBlur stdDeviation="3.8243"/>
</filter>
<filter color-interpolation-filters="sRGB" id="filter6476">
<feGaussianBlur stdDeviation="2.35747"/>
</filter>
<filter color-interpolation-filters="sRGB" id="filter6390">
<feGaussianBlur stdDeviation="1.17425"/>
</filter>
<filter color-interpolation-filters="sRGB" id="filter6528">
<feGaussianBlur stdDeviation="3.52588"/>
</filter>
<filter color-interpolation-filters="sRGB" id="filter6520">
<feGaussianBlur stdDeviation="3.54988"/>
</filter>
<filter color-interpolation-filters="sRGB" id="filter6496">
<feGaussianBlur stdDeviation="2.35135"/>
</filter>
<filter color-interpolation-filters="sRGB" id="filter6504">
<feGaussianBlur stdDeviation="3.60417"/>
</filter>
<filter width="1.222" x="-.111" y="-.131" height="1.262" color-interpolation-filters="sRGB" id="filter6512">
<feGaussianBlur stdDeviation="5.87123"/>
</filter>
<filter width="1.222" x="-.111" y="-.131" height="1.262" color-interpolation-filters="sRGB" id="filter6524">
<feGaussianBlur stdDeviation="5.87839"/>
</filter>
<linearGradient id="linearGradient6474" y1="557.77" y2="328.36" x1="273.47" gradientUnits="userSpaceOnUse" x2="229.3">
<stop offset="0" stop-color="#9aaebb"/>
<stop offset="1" stop-color="#9aaebb" stop-opacity=".186"/>
</linearGradient>
<radialGradient cx="254.25" cy="394.64" gradientTransform="matrix(1.2661 -.13912 .09975 .90778 -112.96 81.977)" id="radialGradient6368" r="146.59" gradientUnits="userSpaceOnUse">
<stop offset="0" stop-color="#f9feff"/>
<stop offset=".764" stop-color="#d3e7f0"/>
<stop offset="1" stop-color="#7e96ac"/>
</radialGradient>
<radialGradient cx="137.33" cy="672.9" gradientTransform="matrix(1.602 0 0 1.1786 -81.826 -115.45)" id="radialGradient6386" r="63.578" gradientUnits="userSpaceOnUse">
<stop offset="0" stop-color="#fff"/>
<stop offset=".45" stop-color="#f1f9fd"/>
<stop offset=".611" stop-color="#e3f3fb"/>
<stop offset="1" stop-color="#728e9d"/>
</radialGradient>
</defs>
<g color="#000" transform="translate(-108.54 -322.04)">
<path opacity=".314" filter="url(#filter6456)" stroke="#000" stroke-width="12.5" d="m249.2,337.47c-44.234,0-80.212,22.669-81.094,50.844-26.123,8.7436-44.125,27.126-44.125,48.406 0,13.095 6.7951,25.103 18.125,34.438-.8258,2.7311-1.25,5.5165-1.25,8.375 0,20.01 21.06,37.311 51.75,45.75 10.749,17.653 37.535,30.156 68.906,30.156 26.442,0 49.612-8.8873 62.688-22.25 .005-.005 .0261,.005 .0312,0 2.0008,.1251 4.0176,.1875 6.0625,.1875 38.696,0 70.062-22.945 70.062-51.25 0-4.7885-.9146-9.4159-2.5938-13.812 11.433-9.8773 18.156-21.888 18.156-34.844 0-17.392-12.118-33.047-31.5-44.156-10.512-25.907-34.852-44.062-63.219-44.062-7.4677,0-14.643,1.2679-21.375,3.5938-13.879-7.1148-31.459-11.375-50.625-11.375z"/>
<path fill="url(#radialGradient6368)" stroke="url(#linearGradient6474)" stroke-linecap="round" stroke-width="1.25" d="m247.2,333.47c-44.234,0-80.212,22.669-81.094,50.844-26.123,8.7436-44.125,27.126-44.125,48.406 0,13.095 6.7951,25.103 18.125,34.438-.8258,2.7311-1.25,5.5165-1.25,8.375 0,20.01 21.06,37.311 51.75,45.75 10.749,17.653 37.535,30.156 68.906,30.156 26.442,0 49.612-8.8873 62.688-22.25 .005-.005 .0261,.005 .0312,0 2.0008,.1251 4.0176,.1875 6.0625,.1875 38.696,0 70.062-22.945 70.062-51.25 0-4.7885-.9146-9.4159-2.5938-13.812 11.433-9.8773 18.156-21.888 18.156-34.844 0-17.392-12.118-33.047-31.5-44.156-10.512-25.907-34.852-44.062-63.219-44.062-7.4677,0-14.643,1.2679-21.375,3.5938-13.879-7.1148-31.459-11.375-50.625-11.375z"/>
<path opacity=".776" fill="url(#radialGradient6386)" filter="url(#filter6390)" d="m208.9,694.82c0,29.739-28.465,53.847-63.578,53.847s-63.578-24.108-63.578-53.847 28.465-53.847 63.578-53.847 63.578,24.108 63.578,53.847z" transform="matrix(.75671 0 0 .75671 172.63 -24.124)"/>
<path opacity=".776" fill="url(#radialGradient6386)" filter="url(#filter6488)" d="m208.9,694.82c0,29.739-28.465,53.847-63.578,53.847s-63.578-24.108-63.578-53.847 28.465-53.847 63.578-53.847 63.578,24.108 63.578,53.847z" transform="translate(58.634 -227.69)"/>
<path opacity=".776" fill="url(#radialGradient6386)" filter="url(#filter6524)" d="m208.9,694.82c0,29.739-28.465,53.847-63.578,53.847s-63.578-24.108-63.578-53.847 28.465-53.847 63.578-53.847 63.578,24.108 63.578,53.847z" transform="matrix(.97167 0 0 .94562 114.39 -204.11)"/>
<path opacity=".776" fill="url(#radialGradient6386)" filter="url(#filter6496)" d="m208.9,694.82c0,29.739-28.465,53.847-63.578,53.847s-63.578-24.108-63.578-53.847 28.465-53.847 63.578-53.847 63.578,24.108 63.578,53.847z" transform="matrix(.97167 0 0 .94562 191.67 -183.25)"/>
<path opacity=".475" fill="url(#radialGradient6386)" filter="url(#filter6476)" d="m208.9,694.82c0,29.739-28.465,53.847-63.578,53.847s-63.578-24.108-63.578-53.847 28.465-53.847 63.578-53.847 63.578,24.108 63.578,53.847z" transform="matrix(.93796 0 0 .87006 48.802 -169.17)"/>
<path opacity=".776" fill="url(#radialGradient6386)" filter="url(#filter6512)" d="m208.9,694.82c0,29.739-28.465,53.847-63.578,53.847s-63.578-24.108-63.578-53.847 28.465-53.847 63.578-53.847 63.578,24.108 63.578,53.847z" transform="matrix(.75671 0 0 .75671 171.66 -99.055)"/>
<path opacity=".269" fill="url(#radialGradient6386)" filter="url(#filter6520)" d="m208.9,694.82c0,29.739-28.465,53.847-63.578,53.847s-63.578-24.108-63.578-53.847 28.465-53.847 63.578-53.847 63.578,24.108 63.578,53.847z" transform="matrix(.60916 0 0 .53345 234.88 10.977)"/>
<path opacity=".52" fill="url(#radialGradient6386)" filter="url(#filter6528)" d="m208.9,694.82c0,29.739-28.465,53.847-63.578,53.847s-63.578-24.108-63.578-53.847 28.465-53.847 63.578-53.847 63.578,24.108 63.578,53.847z" transform="matrix(.8985 0 0 .88045 221.24 -177.67)"/>
<path opacity=".552" fill="url(#radialGradient6386)" filter="url(#filter6504)" d="m208.9,694.82c0,29.739-28.465,53.847-63.578,53.847s-63.578-24.108-63.578-53.847 28.465-53.847 63.578-53.847 63.578,24.108 63.578,53.847z" transform="matrix(1.1204 0 0 .83454 79.417 -198.05)"/>
</g>
</svg>
