<svg xmlns="http://www.w3.org/2000/svg" viewBox="0 0 388.0102 404.5918" xmlns:xlink="http://www.w3.org/1999/xlink">
<defs>
<filter color-interpolation-filters="sRGB" id="filter3897">
<feGaussianBlur stdDeviation="2.94263"/>
</filter>
<filter color-interpolation-filters="sRGB" id="filter4001">
<feGaussianBlur stdDeviation="2.94162"/>
</filter>
<filter color-interpolation-filters="sRGB" id="filter3887">
<feGaussianBlur stdDeviation="5.88526"/>
</filter>
<filter width="1.073" x="-.037" y="-.164" height="1.329" color-interpolation-filters="sRGB" id="filter3792">
<feGaussianBlur stdDeviation="3.18491"/>
</filter>
<linearGradient id="linearGradient3843">
<stop offset="0" stop-color="#ededed"/>
<stop offset="1" stop-color="#ededed" stop-opacity="0"/>
</linearGradient>
<linearGradient id="linearGradient3813">
<stop offset="0" stop-color="#333"/>
<stop offset="1" stop-color="#333" stop-opacity="0"/>
</linearGradient>
<linearGradient id="linearGradient3833">
<stop offset="0" stop-color="#0f0f0f"/>
<stop offset="1" stop-color="#0f0f0f" stop-opacity="0"/>
</linearGradient>
<linearGradient gradientTransform="matrix(1.00018 0 0 .95807 -.05607 20.3561)" xlink:href="#linearGradient3813" id="linearGradient3819" y1="288.862" x1="355.434" y2="340.597" x2="354.665" gradientUnits="userSpaceOnUse"/>
<linearGradient id="linearGradient4034">
<stop offset="0" stop-color="#eee"/>
<stop offset="1" stop-color="#eee" stop-opacity="0"/>
</linearGradient>
<linearGradient gradientTransform="translate(0 -4)" xlink:href="#linearGradient4034" id="linearGradient4040" y1="143.384" x1="465.387" y2="222.976" x2="466.058" gradientUnits="userSpaceOnUse"/>
<linearGradient gradientTransform="matrix(1.00018 0 0 .95807 -.05607 20.3561)" xlink:href="#linearGradient3843" id="linearGradient3849" y1="190.863" x1="387.347" y2="230.659" x2="385.756" gradientUnits="userSpaceOnUse"/>
<linearGradient gradientTransform="matrix(1.00018 0 0 .95807 -.05607 20.3561)" spreadMethod="reflect" xlink:href="#linearGradient3833" id="linearGradient3839" y1="246.412" x1="281.888" y2="261.667" x2="317.704" gradientUnits="userSpaceOnUse"/>
<radialGradient cx="316.047" cy="338.284" gradientTransform="matrix(.95167 0 0 .9339 15.27524 -17.71277)" id="radialGradient4030" r="150.922" gradientUnits="userSpaceOnUse">
<stop offset="0" stop-color="#fdca01"/>
<stop offset="1" stop-color="#fdca01" stop-opacity="0"/>
</radialGradient>
<radialGradient cx="314.099" cy="187.062" gradientTransform="matrix(.5798 -.00777 .00491 .33603 131.35304 219.56203)" id="radialGradient3829" r="104.133" gradientUnits="userSpaceOnUse">
<stop offset="0" stop-color="#94be30"/>
<stop offset="1" stop-color="#94be30" stop-opacity="0"/>
</radialGradient>
<radialGradient cx="316.156" cy="511.378" gradientTransform="matrix(1.86772 -.03392 .01779 .89859 -283.43004 -3.53239)" id="radialGradient3867" r="149.875" gradientUnits="userSpaceOnUse">
<stop offset="0" stop-color="#1f1e1a"/>
<stop offset="1" stop-color="#1f1e1a" stop-opacity="0"/>
</radialGradient>
</defs>
<g transform="translate(-124.03061 -93.28055)">
<path fill="#816647" fill-opacity="0" d="m473.5714,282.6428c0,81.138-65.9238,146.9133-147.2449,146.9133-81.3211,0-147.2449-65.7753-147.2449-146.9133 0-81.138 65.9238-146.9133 147.2449-146.9133 81.3211,0 147.2449,65.7753 147.2449,146.9133z" transform="matrix(-.8439 .5817 .58915 .85471 424.91319 -145.60229)"/>
<path opacity=".301" filter="url(#filter3897)" d="m473.5714,282.6428c0,81.138-65.9238,146.9133-147.2449,146.9133-81.3211,0-147.2449-65.7753-147.2449-146.9133 0-81.138 65.9238-146.9133 147.2449-146.9133 81.3211,0 147.2449,65.7753 147.2449,146.9133z" transform="matrix(1.02496 0 0 1.03809 -18.42459 10.7758)"/>
<path fill="#816647" d="m473.5714,282.6428c0,81.138-65.9238,146.9133-147.2449,146.9133-81.3211,0-147.2449-65.7753-147.2449-146.9133 0-81.138 65.9238-146.9133 147.2449-146.9133 81.3211,0 147.2449,65.7753 147.2449,146.9133z" transform="matrix(1.02496 0 0 1.03809 -18.42459 8.85966)"/>
<path opacity=".889" fill="url(#radialGradient4030)" d="m316.0312,149.75c-6.75,0-13.3907,.4447-19.9062,1.3125l21.9062,157.125 21.8125-156.5312c-7.7526-1.241-15.7145-1.9062-23.8125-1.9062zm2,158.4375 95.4062-122.4062c-10.926-9.3385-23.1772-17.1386-36.4375-23.0625l-58.9688,145.4688zm140.2812-56.875c-4.7131-13.4359-11.2118-26.0329-19.25-37.4375l-121.0312,94.3125zm146.6562,20.4375c1.4777-8.5664 2.2812-17.35 2.2812-26.3438 0-4.9758-.2578-9.8963-.7188-14.75l-148.2188,20.6562zl-152.1562-21.2188c-.4967,5.0356-.75,10.1447-.75,15.3125 0,9.1911 .8019,18.163 2.3438,26.9062l150.5625-21zl-123.5312-96.3125c-8.4226,11.5441-15.2904,24.3237-20.25,38.0312l143.7812,58.2812zl-59.5312-146.9375c-13.5846,5.6681-26.1885,13.2835-37.4375,22.5l96.9688,124.4375z"/>
<path fill="#2c5884" d="m466.0575,318.8245c-.4194,.2131-.828,.4473-1.2502,.6587 .1067,.5082 .1563,1.0129 .1563,1.5269 0,18.074-66.6811,32.724-148.9326,32.724-81.7458,0-148.0576-14.4741-148.87-32.3947-.301-.1441-.6068-.2742-.9064-.4192 9.0979,75.4327 72.6729,133.8602 149.7764,133.8602 77.815,0 141.8594-59.5141 150.0265-135.956z"/>
<path fill="url(#radialGradient3867)" d="m466.0575,318.8245c-.4194,.2131-.828,.4473-1.2502,.6587 .1067,.5082 .1563,1.0129 .1563,1.5269 0,18.074-66.6811,32.724-148.9326,32.724-81.7458,0-148.0576-14.4741-148.87-32.3947-.301-.1441-.6068-.2742-.9064-.4192 9.0979,75.4327 72.6729,133.8602 149.7764,133.8602 77.815,0 141.8594-59.5141 150.0265-135.956z"/>
<path fill="#369" d="m464.949,313.8163c0,18.865-66.6662,34.1582-148.9031,34.1582-82.2369,0-148.9031-15.2931-148.9031-34.1582 0-18.865 66.6662-34.1582 148.9031-34.1582 82.2369,0 148.9031,15.2931 148.9031,34.1582z" transform="matrix(1.00018 0 0 .95807 -.05607 20.3561)"/>
<path fill="url(#linearGradient3819)" d="m305.1093,376.4637-20.6981-22.5363-25.6057-17.3299-15.9944-13.6205c-25.6839-6.4754-22.0576-4.8831-34.6412-8.5131l47.9278-8.1954 54.2081-8.4534 36.9303,8.1341 31.4781-5.3777 37.6523,4.6628c-6.499,2.4224-12.5841,4.825-19.5677,7.2834-1.1639,.4097-2.3487,.8197-3.568,1.2335-1.2192,.4139-2.4685,.8286-3.7549,1.2474l-17.3762,12.6645-36.9496,41.9347-15.2742-2.7948-14.7667,9.6606z"/>
<path fill="#4281c0" filter="url(#filter3792)" d="m242.0918,290.9438c20.6441,.8569 41.2883-11.1549 61.9324,12.1046 2.954,7.1346 2.6947,18.9105 20.81,4.1454 9.0128-13.1865 13.2708-41.1012 34.9872-20.8929l17.6594,10.1148c9.3512-2.7057-11.139-33.3718 11.4413-10.2806 10.5296,4.2559 18.7098,8.5119 27.6084,12.7679l-37.1429,12.2704-31.8367-4.9745-36.1479,17.9082-54.7194-7.2959-48.4184-7.6275c12.2505-7.5142 8.747-4.4396 33.8265-18.2398z" transform="matrix(1.00018 0 0 .95807 -.05607 20.3561)"/>
<path fill="#333" d="m242.0785,297.1842 14.8432-23.3529 24.1305-30.3429 18.8235-37.9684 15.5066,13.5034 15.009-6.1957 40.2176,61.7979 18.3259,17.9516c10.5315,4.0775 18.7131,8.155 27.6133,12.2325l-37.1494,11.7559-31.8424-4.7659-36.1543,17.1572-54.729-6.99-4.6437-9.2141c12.2527-7.1991 4.1049-5.5243-9.9507-15.5686z"/>
<path opacity=".372" fill="url(#linearGradient3839)" d="m242.0785,297.1842 14.8432-23.3529 24.1305-30.3429 18.8235-37.9684 15.5066,13.5034 15.009-6.1957 40.2176,61.7979 18.3259,17.9516c10.5315,4.0775 18.7131,8.155 27.6133,12.2325l-37.1494,11.7559-31.8424-4.7659-36.1543,17.1572-54.729-6.99-4.6437-9.2141c12.2527-7.1991 4.1049-5.5243-9.9507-15.5686z"/>
<path fill="#9f9f9f" d="m309.7435,230.4615-6.3851-6.8311-22.3062,19.8579 18.8235-37.9684 15.5066,13.5034 15.009-6.1957 40.2176,61.7979 13.6823,15.4097c10.5315,4.0775-39.0012-12.815-30.101-8.7375l-13.2677-44.164-9.9507-2.8595-10.2824-12.0736 .3317,27.3245-68.9918,63.2276c12.2527-7.1991 71.7699-72.247 57.7143-82.2913z"/>
<path fill="#450" d="m242.0785,297.1842c20.6478,.8209 41.2955-10.6872 61.9433,11.597 2.9545,6.8354 2.6952,18.1176 20.8136,3.9716 9.0144-12.6336 13.2731-39.3778 34.9934-20.0168l17.6626,9.6907c9.3529-2.5923-11.1409-31.9724 11.4433-9.8495 10.5315,4.0775 18.7131,8.155 27.6133,12.2325l-37.1494,11.7559-31.8424-4.7659-36.1543,17.1572-54.729-6.99-48.4269-7.3077c12.2527-7.1991 8.7486-4.2534 33.8325-17.475z"/>
<path opacity=".385" fill="url(#radialGradient3829)" d="m242.0785,297.1842c20.6478,.8209 41.2955-10.6872 61.9433,11.597 2.9545,6.8354 2.6952,18.1176 20.8136,3.9716 9.0144-12.6336 13.2731-39.3778 34.9934-20.0168l17.6626,9.6907c9.3529-2.5923-11.1409-31.9724 11.4433-9.8495 10.5315,4.0775 18.7131,8.155 27.6133,12.2325l-37.1494,11.7559-31.8424-4.7659-36.1543,17.1572-54.729-6.99-48.4269-7.3077c12.2527-7.1991 8.7486-4.2534 33.8325-17.475z"/>
<path fill="url(#linearGradient3849)" d="m309.7435,230.4615-6.3851-6.8311-22.3062,19.8579 18.8235-37.9684 15.5066,13.5034 15.009-6.1957 40.2176,61.7979 13.6823,15.4097c10.5315,4.0775-39.0012-12.815-30.101-8.7375l-13.2677-44.164-9.9507-2.8595-10.2824-12.0736 .3317,27.3245-68.9918,63.2276c12.2527-7.1991 71.7699-72.247 57.7143-82.2913z"/>
</g>
<g fill="none" stroke-width="1.342" transform="translate(-124.03061 -93.28055)">
<path opacity=".907" filter="url(#filter3887)" stroke="#000" d="m473.5714,282.6428c0,81.138-65.9238,146.9133-147.2449,146.9133-81.3211,0-147.2449-65.7753-147.2449-146.9133 0-81.138 65.9238-146.9133 147.2449-146.9133 81.3211,0 147.2449,65.7753 147.2449,146.9133z" transform="matrix(1.11056 0 0 1.12479 -45.03161 -14.30401)"/>
<path filter="url(#filter4001)" stroke="#fff" d="m473.5714,282.6428c0,81.138-65.9238,146.9133-147.2449,146.9133-81.3211,0-147.2449-65.7753-147.2449-146.9133 0-81.138 65.9238-146.9133 147.2449-146.9133 81.3211,0 147.2449,65.7753 147.2449,146.9133z" transform="matrix(1.07652 0 0 1.09031 -34.55687 -5.19951)"/>
</g>
<g transform="translate(-124.03061 -93.28055)">
<path opacity=".593" fill="url(#linearGradient4040)" d="m466.0575,286.9539c-.4194-.2131-.828-.4473-1.2502-.6587 .1067-.5082 .1563-1.0129 .1563-1.5269 0-18.074-66.6811-32.724-148.9326-32.724-81.7458,0-148.0576,14.4741-148.87,32.3947-.301,.1441-.6068,.2742-.9064,.4192 9.0979-75.4327 72.6729-133.8602 149.7764-133.8602 77.815,0 141.8594,59.5141 150.0265,135.956z"/>
</g>
</svg>
