<svg xmlns="http://www.w3.org/2000/svg" viewBox="0 0 124.75 286.06">
<g transform="translate(-326.2 -349.33)">
<path fill="#3465a4" d="m449.86,581.6-61.372,35.433v17.717l61.372-35.433v-17.717z"/>
<path fill="#102645" d="m442.94,585.53v8.8583l-54.186,31.95-.125-9 54.311-31.808z"/>
<path fill="#729fcf" d="m327.37,580.85 61.372,35.433v17.717l-61.372-35.433v-17.717z"/>
</g>
<g transform="matrix(-2 0 0 2 -61.31 -37.45)">
<path fill="#d3d7cf" d="m-91.932,37.453-.125,97.924 30.686,17.717 .125-97.924-30.686-17.717z"/>
</g>
<g fill="#35909d" transform="matrix(-2 0 0 2 -61.31 -37.45)">
<path d="m-91.932,37.733 3.0686,1.7717v97.717l-3.0686-1.7716v-97.717z"/>
<path d="m-87.719,40.103 3.0686,1.7717v97.717l-3.0686-1.7716v-97.717z"/>
<path d="m-83.506,42.598 3.0686,1.7717v97.717l-3.0686-1.7716v-97.717z"/>
<path d="m-79.292,45.113 3.0686,1.7717v97.717l-3.0686-1.7716v-97.717z"/>
<path d="m-75.079,47.588 3.0686,1.7717v97.717l-3.0686-1.7716v-97.717z"/>
<path d="m-70.866,49.895 3.0686,1.7717v97.717l-3.0686-1.7716v-97.717z"/>
<path d="m-66.653,52.328 3.0686,1.7717v97.717l-3.0686-1.7716v-97.717z"/>
</g>
<g transform="translate(-326.2 -349.33)">
<path fill="#eeeeec" d="m327.39,385.07 61.372-35.433 61.372,35.433-61.372,35.433-61.372-35.433z"/>
</g>
<g transform="matrix(2 0 0 2 185.05 -38.57)">
<path fill="#d3d7cf" d="m-91.932,37.453-.125,97.924 30.686,17.717 .125-97.924-30.686-17.717z"/>
</g>
<g fill="#72c3cf" transform="matrix(2 0 0 2 185.05 -38.57)">
<path d="m-91.932,37.733 3.0686,1.7717v97.717l-3.0686-1.7716v-97.717z"/>
<path d="m-87.719,40.103 3.0686,1.7717v97.717l-3.0686-1.7716v-97.717z"/>
<path d="m-83.506,42.598 3.0686,1.7717v97.717l-3.0686-1.7716v-97.717z"/>
<path d="m-79.292,45.113 3.0686,1.7717v97.717l-3.0686-1.7716v-97.717z"/>
<path d="m-75.079,47.588 3.0686,1.7717v97.717l-3.0686-1.7716v-97.717z"/>
<path d="m-70.866,49.895 3.0686,1.7717v97.717l-3.0686-1.7716v-97.717z"/>
<path d="m-66.653,52.328 3.0686,1.7717v97.717l-3.0686-1.7716v-97.717z"/>
</g>
<g fill="none">
<g stroke="#fff">
<g transform="translate(-326.2 -349.33)">
<path d="m327.33,384.97 61.43,35.532 61.372-35.433"/>
</g>
<g stroke-width=".25" transform="translate(-326.2 -349.33)">
<path d="m327.33,424.97 61.43,35.532 61.372-35.433"/>
<path d="m327.33,464.97 61.43,35.532 61.372-35.433"/>
<path d="m327.33,504.97 61.43,35.532 61.372-35.433"/>
<path d="m327.33,544.97 61.43,35.532 61.372-35.433"/>
</g>
</g>
<g transform="translate(-326.2 -349.33)">
<path stroke="#2e3436" stroke-width="2" d="m388.57,350.33-61.25,35.375-.125,213.25 61.375,35.438 61.375-35.438v-213.19l-61.375-35.438v.0001z"/>
</g>
</g>
<g transform="translate(-326.2 -349.33)">
<path fill="#183867" d="m335.39,586.51v8.8583l53.372,30.575v-8.8583l-53.372-30.575z"/>
</g>
<g transform="matrix(-.2 0 0 .2 72.41 233.18)">
<path fill="#3465a4" d="m184.12,131.1v53.15l30.686,17.717v-53.15l-30.686-17.717z"/>
<path fill="none" stroke="#fff" d="m214.8,148.82v53.15"/>
</g>
<g fill="#729fcf" transform="matrix(-.2 0 0 .2 72.41 233.18)">
<path d="m245.49,131.1v53.15l-30.686,17.717v-53.15l30.686-17.717z"/>
<path d="m276.17,113.39v53.15l-30.686,17.717v-53.15l30.686-17.717z"/>
</g>
<g transform="matrix(-.2 0 0 .2 72.41 233.18)">
<path fill="#888a85" d="m276.17,77.953v17.717l30.686,17.717v-17.717l-30.686-17.717z" transform="translate(-92.058 35.433)"/>
<path fill="#d3d7cf" d="m214.8,131.1v17.717l61.372-35.433v-17.717l-61.372,35.433z"/>
<path fill="#eeeeec" d="m276.17,77.953 30.69,17.716 61.37-35.433-30.68-17.716-61.38,35.433z" transform="translate(-92.058 35.433)"/>
</g>
<g transform="translate(-326.2 -349.33)">
<path fill="none" stroke="#000" d="m343.17,607.37 .3384,8.6187 12.625,7 6-3.875"/>
</g>
<g transform="matrix(.2 0 0 .2 52.49 232.68)">
<path fill="#729fcf" d="m184.12,131.1v53.15l30.686,17.717v-53.15l-30.686-17.717z"/>
<path fill="none" stroke="#fff" d="m214.8,148.82v53.15"/>
</g>
<g fill="#3465a4" transform="matrix(.2 0 0 .2 52.49 232.68)">
<path d="m245.49,131.1v53.15l-30.686,17.717v-53.15l30.686-17.717z"/>
<path d="m276.17,113.39v53.15l-30.686,17.717v-53.15l30.686-17.717z"/>
</g>
<g transform="matrix(.2 0 0 .2 52.49 232.68)">
<path fill="#d3d7cf" d="m276.17,77.953v17.717l30.686,17.717v-17.717l-30.686-17.717z" transform="translate(-92.058 35.433)"/>
<path fill="#888a85" d="m214.8,131.1v17.717l61.372-35.433v-17.717l-61.372,35.433z"/>
<path fill="#eeeeec" d="m276.17,77.953 30.69,17.716 61.37-35.433-30.68-17.716-61.38,35.433z" transform="translate(-92.058 35.433)"/>
</g>
<g transform="translate(-326.2 -349.33)">
<path fill="none" stroke="#000" d="m434.14,606.87-.3384,8.6187-12.625,7-6-3.875"/>
</g>
</svg>
