<svg xmlns="http://www.w3.org/2000/svg" viewBox="0 0 58.808 49.887" xmlns:xlink="http://www.w3.org/1999/xlink">
<defs>
<linearGradient gradientTransform="translate(312.25 20.831)" spreadMethod="reflect" id="linearGradient4449" y1="428.96" x1="6.522" y2="430.68" gradientUnits="userSpaceOnUse" x2="5.303">
<stop offset="0" stop-color="#d3d7cf"/>
<stop offset="1" stop-color="#888a85"/>
</linearGradient>
<linearGradient gradientTransform="matrix(.42794 0 0 .42794 33.779 217.07)" id="linearGradient4451" y1="370.28" x1="138.09" y2="382.98" gradientUnits="userSpaceOnUse" x2="146.77">
<stop offset="0" stop-color="#d3d7cf"/>
<stop offset="1"/>
</linearGradient>
<linearGradient gradientTransform="translate(50.847 -30.05)" id="linearGradient4455" y1="453.36" x1="265.49" y2="464.99" gradientUnits="userSpaceOnUse" x2="259">
<stop offset="0" stop-color="#eeeeec"/>
<stop offset="1" stop-color="#888a85"/>
</linearGradient>
</defs>
<g stroke="#000" stroke-linejoin="round" stroke-linecap="round" transform="translate(-294.329 -414.953)">
<path fill="url(#linearGradient4449)" stroke-width=".5" d="m317.1,447.13c-.2257-.004-.4584,.0623-.7188,.1562-1.0414,.3758-1.9062,1.4416-1.9062,2.375 0,.5834 .3419,.9709 .8438,1.0938l5.5061,3.1708 3.0938-3.0625-6.1624-3.5145-.0312-.0312c-.1778-.1039-.3835-.183-.625-.1875z"/>
<path fill="#555753" stroke-width=".765" d="m110.36,374.49c0,1.4289-1.2924,2.5873-2.8866,2.5873s-2.8866-1.1584-2.8866-2.5873 1.2924-2.5873 2.8866-2.5873 2.8866,1.1584 2.8866,2.5873z" transform="matrix(.65357 -.23586 0 .65357 251.92 232.8)"/>
</g>
<g transform="translate(-87.979 -355.335)">
<path fill="#c00" d="m148.59,262c0,4.4415-5.3351,8.042-11.916,8.042-6.5812,0-11.916-3.6005-11.916-8.042 0-4.4414 5.3351-8.042 11.916-8.042 6.5812,0 11.916,3.6005 11.916,8.042z" transform="matrix(-.18314 -.2966 .2966 -.18314 41.282 467.88)"/>
</g>
<g stroke="#000" transform="translate(-87.979 -355.335)">
<path fill="url(#linearGradient4451)" fill-rule="evenodd" stroke-width=".214" d="m92.872,375.53c-.3958-.003-.7674,.091-1.0966,.2942l-2.2317,1.2838 4.0599,7.2617 2.8123-1.685c1.0475-.9415 1.0475-2.9964-.0669-4.801-.9035-1.4632-2.2896-2.3455-3.477-2.3537z"/>
<path fill="#555753" stroke-linejoin="bevel" stroke-width=".614" d="m148.59,262c0,4.4415-5.3351,8.042-11.916,8.042-6.5812,0-11.916-3.6005-11.916-8.042 0-4.4414 5.3351-8.042 11.916-8.042 6.5812,0 11.916,3.6005 11.916,8.042z" transform="matrix(-.18314 -.2966 .2966 -.18314 38.893 469.26)"/>
</g>
<g transform="translate(-87.979 -355.335)">
<path fill="#d3d7cf" d="m148.59,262c0,4.4415-5.3351,8.042-11.916,8.042-6.5812,0-11.916-3.6005-11.916-8.042 0-4.4414 5.3351-8.042 11.916-8.042 6.5812,0 11.916,3.6005 11.916,8.042z" transform="matrix(-.10007 -.16206 .16206 -.10007 62.786 428.93)"/>
</g>
<g transform="translate(-81.629 -351.225)">
<path fill="#c00" d="m148.59,262c0,4.4415-5.3351,8.042-11.916,8.042-6.5812,0-11.916-3.6005-11.916-8.042 0-4.4414 5.3351-8.042 11.916-8.042 6.5812,0 11.916,3.6005 11.916,8.042z" transform="matrix(-.18314 -.2966 .2966 -.18314 41.282 467.88)"/>
</g>
<g stroke="#000" transform="translate(-81.629 -351.225)">
<path fill="url(#linearGradient4451)" fill-rule="evenodd" stroke-width=".214" d="m92.872,375.53c-.3958-.003-.7674,.091-1.0966,.2942l-2.2317,1.2838 4.0599,7.2617 2.8123-1.685c1.0475-.9415 1.0475-2.9964-.0669-4.801-.9035-1.4632-2.2896-2.3455-3.477-2.3537z"/>
<path fill="#555753" stroke-linejoin="bevel" stroke-width=".614" d="m148.59,262c0,4.4415-5.3351,8.042-11.916,8.042-6.5812,0-11.916-3.6005-11.916-8.042 0-4.4414 5.3351-8.042 11.916-8.042 6.5812,0 11.916,3.6005 11.916,8.042z" transform="matrix(-.18314 -.2966 .2966 -.18314 38.893 469.26)"/>
</g>
<g transform="translate(-81.629 -351.225)">
<path fill="#d3d7cf" d="m148.59,262c0,4.4415-5.3351,8.042-11.916,8.042-6.5812,0-11.916-3.6005-11.916-8.042 0-4.4414 5.3351-8.042 11.916-8.042 6.5812,0 11.916,3.6005 11.916,8.042z" transform="matrix(-.10007 -.16206 .16206 -.10007 62.786 428.93)"/>
</g>
<g stroke="#000" stroke-linejoin="bevel" stroke-width=".5">
<g fill-rule="evenodd" stroke-linecap="round">
<g transform="translate(-294.329 -414.953)">
<path fill="#d3d7cf" d="m309.92,426.17-15.343,8.8583 30.686,17.717 15.343-8.8583-30.686-17.717z"/>
</g>
<g fill="#555753" transform="translate(-294.329 -414.953)">
<path d="m324.2,443.39c-1.7979,1.0438-3.6848,1.4134-5.2812,.9062l-1.365,.8527v3.2188l6.6462-3.8527v-1.125z"/>
<path d="m309.93,435.25c-1.7979,1.0438-3.6848,1.4134-5.2812,.9062l-1.365,.8527v3.2188l6.6462-3.8527v-1.125z"/>
</g>
</g>
<g transform="translate(-294.329 -414.953)">
<path fill="url(#linearGradient4455)" d="m306.66,415.2c-2.7748,.0192-5.9825,2.0808-8.0938,5.5-2.815,4.5589-2.608,9.819 .4688,11.719 .2784,.1719 .5714,.2996 .875,.4062l30.312,17.875 10.875-16-31.5-18.562-.125-.0625c-.0786-.0558-.136-.1364-.2188-.1875-.7692-.4749-1.6688-.6939-2.5938-.6875z"/>
<path fill="#555753" d="m148.59,262c0,4.4415-5.3351,8.042-11.916,8.042-6.5812,0-11.916-3.6005-11.916-8.042 0-4.4414 5.3351-8.042 11.916-8.042 6.5812,0 11.916,3.6005 11.916,8.042z" transform="matrix(.42796 -.69308 -.69308 -.42796 458.18 649.18)"/>
</g>
</g>
<g transform="translate(-58.829 -337.086)">
<path fill="#c00" d="m148.59,262c0,4.4415-5.3351,8.042-11.916,8.042-6.5812,0-11.916-3.6005-11.916-8.042 0-4.4414 5.3351-8.042 11.916-8.042 6.5812,0 11.916,3.6005 11.916,8.042z" transform="matrix(-.18314 -.2966 .2966 -.18314 41.282 467.88)"/>
</g>
<g stroke="#000" transform="translate(-58.829 -337.086)">
<path fill="url(#linearGradient4451)" fill-rule="evenodd" stroke-width=".214" d="m92.872,375.53c-.3958-.003-.7674,.091-1.0966,.2942l-2.2317,1.2838 4.0599,7.2617 2.8123-1.685c1.0475-.9415 1.0475-2.9964-.0669-4.801-.9035-1.4632-2.2896-2.3455-3.477-2.3537z"/>
<path fill="#555753" stroke-linejoin="bevel" stroke-width=".614" d="m148.59,262c0,4.4415-5.3351,8.042-11.916,8.042-6.5812,0-11.916-3.6005-11.916-8.042 0-4.4414 5.3351-8.042 11.916-8.042 6.5812,0 11.916,3.6005 11.916,8.042z" transform="matrix(-.18314 -.2966 .2966 -.18314 38.893 469.26)"/>
</g>
<g transform="translate(-58.829 -337.086)">
<path fill="#d3d7cf" d="m148.59,262c0,4.4415-5.3351,8.042-11.916,8.042-6.5812,0-11.916-3.6005-11.916-8.042 0-4.4414 5.3351-8.042 11.916-8.042 6.5812,0 11.916,3.6005 11.916,8.042z" transform="matrix(-.10007 -.16206 .16206 -.10007 62.786 428.93)"/>
</g>
<g stroke="#000" fill-rule="evenodd" stroke-width=".5">
<g stroke-linejoin="bevel" transform="translate(-294.329 -414.953)">
<path fill="#888a85" d="m330.52,456.84c.8992,1.4563 1.2122,3.0276 .9688,4.2812l6,3.4688v-17.719l-9.9688-5.625 .0671,10.969c.4326,1.1038 .4124,2.4355 2.9329,4.625z"/>
<path fill="#555753" d="m352.84,455.72v-17.717l-15.343,8.8583v17.717l15.343-8.8583z"/>
<path fill="#729fcf" d="m352.89,444.69-.0442-6.6888-15.343,8.8583 .0442,6.6888 15.343-8.8583z"/>
</g>
<g transform="translate(-294.329 -414.953)">
<path fill="#729fcf" d="m336.49,447.54-7.7024-4.3126 .0942,5.0807 7.5154,5.1461 .0928-5.9143z"/>
<path fill="#d3d7cf" stroke-linejoin="bevel" d="m343,432.46-15.343,8.8583 9.7965,5.656 15.343-8.8583-9.7965-5.656z"/>
</g>
</g>
<g transform="translate(-64.189 -337.683)">
<path fill="#d3d7cf" d="m110.36,374.49c0,1.4289-1.2924,2.5873-2.8866,2.5873s-2.8866-1.1584-2.8866-2.5873 1.2924-2.5873 2.8866-2.5873 2.8866,1.1584 2.8866,2.5873z" transform="matrix(.65357 -.23586 0 .65357 40.11 163.75)"/>
<path fill="#eeeeec" d="m110.36,374.49c0,1.4289-1.2924,2.5873-2.8866,2.5873s-2.8866-1.1584-2.8866-2.5873 1.2924-2.5873 2.8866-2.5873 2.8866,1.1584 2.8866,2.5873z" transform="matrix(.43922 -.15851 0 .43922 63.146 235.71)"/>
<path fill="#fff" d="m110.36,374.49c0,1.4289-1.2924,2.5873-2.8866,2.5873s-2.8866-1.1584-2.8866-2.5873 1.2924-2.5873 2.8866-2.5873 2.8866,1.1584 2.8866,2.5873z" transform="matrix(.14598 -.05268 0 .14598 94.172 333.89)"/>
</g>
<g transform="translate(-54.029 -343.713)">
<path fill="#d3d7cf" d="m110.36,374.49c0,1.4289-1.2924,2.5873-2.8866,2.5873s-2.8866-1.1584-2.8866-2.5873 1.2924-2.5873 2.8866-2.5873 2.8866,1.1584 2.8866,2.5873z" transform="matrix(.65357 -.23586 0 .65357 40.11 163.75)"/>
<path fill="#eeeeec" d="m110.36,374.49c0,1.4289-1.2924,2.5873-2.8866,2.5873s-2.8866-1.1584-2.8866-2.5873 1.2924-2.5873 2.8866-2.5873 2.8866,1.1584 2.8866,2.5873z" transform="matrix(.43922 -.15851 0 .43922 63.146 235.71)"/>
<path fill="#fff" d="m110.36,374.49c0,1.4289-1.2924,2.5873-2.8866,2.5873s-2.8866-1.1584-2.8866-2.5873 1.2924-2.5873 2.8866-2.5873 2.8866,1.1584 2.8866,2.5873z" transform="matrix(.14598 -.05268 0 .14598 94.172 333.89)"/>
</g>
<g transform="matrix(.44276 0 0 .44276 -3.939 -126.963)">
<path fill="#d3d7cf" d="m110.36,374.49c0,1.4289-1.2924,2.5873-2.8866,2.5873s-2.8866-1.1584-2.8866-2.5873 1.2924-2.5873 2.8866-2.5873 2.8866,1.1584 2.8866,2.5873z" transform="matrix(.65357 -.23586 0 .65357 40.11 163.75)"/>
<path fill="#f57900" d="m110.36,374.49c0,1.4289-1.2924,2.5873-2.8866,2.5873s-2.8866-1.1584-2.8866-2.5873 1.2924-2.5873 2.8866-2.5873 2.8866,1.1584 2.8866,2.5873z" transform="matrix(.43922 -.15851 0 .43922 63.146 235.71)"/>
<path fill="#fff" d="m110.36,374.49c0,1.4289-1.2924,2.5873-2.8866,2.5873s-2.8866-1.1584-2.8866-2.5873 1.2924-2.5873 2.8866-2.5873 2.8866,1.1584 2.8866,2.5873z" transform="matrix(.14598 -.05268 0 .14598 94.172 333.89)"/>
</g>
<g transform="matrix(.44276 0 0 .44276 8.231 -133.283)">
<path fill="#d3d7cf" d="m110.36,374.49c0,1.4289-1.2924,2.5873-2.8866,2.5873s-2.8866-1.1584-2.8866-2.5873 1.2924-2.5873 2.8866-2.5873 2.8866,1.1584 2.8866,2.5873z" transform="matrix(.65357 -.23586 0 .65357 40.11 163.75)"/>
<path fill="#f57900" d="m110.36,374.49c0,1.4289-1.2924,2.5873-2.8866,2.5873s-2.8866-1.1584-2.8866-2.5873 1.2924-2.5873 2.8866-2.5873 2.8866,1.1584 2.8866,2.5873z" transform="matrix(.43922 -.15851 0 .43922 63.146 235.71)"/>
<path fill="#fff" d="m110.36,374.49c0,1.4289-1.2924,2.5873-2.8866,2.5873s-2.8866-1.1584-2.8866-2.5873 1.2924-2.5873 2.8866-2.5873 2.8866,1.1584 2.8866,2.5873z" transform="matrix(.14598 -.05268 0 .14598 94.172 333.89)"/>
</g>
<g fill-rule="evenodd">
<g fill="#fff" transform="translate(-294.329 -414.953)">
<path d="m341.98,450.56 .8976-.4515 5.1048-8.7111-1.6855,.9731-4.3168,8.1894z"/>
<path d="m343.94,449.49 .8976-.4515 5.1048-8.7111-1.6855,.9731-4.3168,8.1894z"/>
</g>
<g stroke="#000" stroke-linejoin="bevel" stroke-width=".5" transform="translate(-294.329 -414.953)">
<path fill="#888a85" d="m317.58,448.01s-1.8562-.8839-1.9445-1.0607c-.0884-.1768-.0442-2.961-.0442-2.961l1.9887,1.0607v2.961z"/>
<path fill="#d3d7cf" d="m315.46,444.07s1.9445,1.149 2.1655,1.0606c.221-.0884 1.2893-.7513 1.2893-.7513l-1.8196-1.0386-1.6352,.7292z"/>
<path fill="#888a85" d="m303.3,439.88s-1.8562-.8839-1.9445-1.0607c-.0884-.1768-.0442-2.961-.0442-2.961l1.9887,1.0607v2.961z"/>
<path fill="#d3d7cf" d="m301.18,435.94s1.9445,1.149 2.1655,1.0606c.221-.0884 1.2893-.7513 1.2893-.7513l-1.8196-1.0386-1.6352,.7292z"/>
</g>
</g>
</svg>
