<svg xmlns="http://www.w3.org/2000/svg" viewBox="0 0 79.719 73.844">
<g transform="translate(-167.28 -571.518)">
<path fill="#cab594" d="m168.77,591.72 30.686-17.717 30.686,17.717-30.686,17.717-30.686-17.717z"/>
<path fill="#81673d" d="m184.29,600.37 15.302-8.8345 .0411,8.8345v8.8583l-15.343,8.8583v-17.717z"/>
<path fill="#cab594" d="m184.29,618.09 15.343,8.8583 15.343-8.8583-15.343-8.8583-15.343,8.8583z"/>
</g>
<g fill="#9e845b" transform="translate(-167.28 -571.518)">
<path d="m214.98,600.37-15.302-8.8345-.0412,8.8345v8.8583l15.343,8.8583v-17.717z"/>
<path d="m168.77,627.16 30.78,17.139-.0945-23.139-15.343-8.8583-.0396-11.739-15.303-8.8354v35.433h.0001z"/>
</g>
<g transform="translate(-167.28 -571.518)">
<path fill="#81673d" d="m230.14,627.16-30.604,17.669-.0823-23.669 15.343-8.8583-.1748-11.616 15.518-8.9592v35.433z"/>
<path fill="#9e845b" d="m214.8,636.02 15.302,8.8345 .0412-8.8345v-8.8583l-15.343-8.8583v17.717z"/>
<path fill="#cab594" d="m214.8,618.3 15.343-8.8583 15.343,8.8583-15.343,8.8583-15.343-8.8583z"/>
<path fill="#81673d" d="m245.49,636.02-15.302,8.8345-.0411-8.8345v-8.8583l15.343-8.8583v17.717z"/>
<path fill="#364e59" d="m216.46,623.67v13.287l11.507,6.6437v-13.287l-11.507-6.6437z"/>
<path fill="#804d00" d="m187,626.68v10.63l6.1372,3.5433v-10.63l-6.1372-3.5433z"/>
</g>
<g fill="#19aeff" transform="translate(-167.28 -571.518)">
<path d="m172.77,598.58 3.8358,2.2146v8.8583l-3.8358-2.2146v-8.8583z"/>
<path d="m176.61,600.8 3.8357,2.2146v8.8583l-3.8357-2.2146v-8.8583z"/>
</g>
<g transform="translate(-167.28 -571.518)">
<path fill="#fff" stroke="#fff" stroke-width=".25" d="m176.61,600.8v8.8583-8.8583z"/>
</g>
<g fill="#19aeff" transform="translate(-167.28 -571.518)">
<path d="m172.77,616.58 3.8358,2.2146v8.8583l-3.8358-2.2146v-8.8583z"/>
<path d="m176.61,618.8 3.8357,2.2146v8.8583l-3.8357-2.2146v-8.8583z"/>
</g>
<g fill="#0084c8" transform="translate(-167.28 -571.518)">
<path d="m195.95,597.23-3.8358,2.2146v14.239l3.8358-2.2146v-14.239z"/>
<path d="m191.02,600.14-3.8357,2.2146v8.8583l3.8357-2.2146v-8.8583z"/>
<path d="m226.14,598.58-3.8358,2.2146v8.8583l3.8358-2.2146v-8.8583z"/>
<path d="m222.31,600.8-3.8357,2.2146v8.8583l3.8357-2.2146v-8.8583z"/>
</g>
<g transform="translate(-167.28 -571.518)">
<path fill="#19aeff" d="m193.32,630.7v10.63l1.7428,1.0646v-10.63l-1.7428-1.0646z"/>
</g>
<g fill="#fff" stroke="#fff" stroke-width=".25" transform="translate(-167.28 -571.518)">
<path d="m176.61,618.8v8.8583-8.8583z"/>
<path d="m222.75,600.94v8.8583-8.8583z"/>
</g>
<g transform="translate(-310.14 -495.44)">
<path fill="none" stroke="#2d2d2d" stroke-width="3" d="m342.33,496.94-30.688,17.719v35.406l24.531,14.188 1.75,1.0625v-.0625l4.3125,2.5h.1562l15.281-8.8125 1.6562,.9375 11.5,6.6562 2.125,1.25h.0937l15.312-8.8438v-17.719l-15.344-8.8438v-17.719l-30.688-17.719h.0001z"/>
</g>
</svg>
