<svg xmlns="http://www.w3.org/2000/svg" viewBox="0 0 64.2 53.094" xmlns:xlink="http://www.w3.org/1999/xlink">
<defs>
<linearGradient gradientTransform="matrix(-1 0 0 1 264.74 420.48)" id="linearGradient4375" xlink:href="#linearGradient3176-3" y1="56.665" y2="48.451" x1="46.909" gradientUnits="userSpaceOnUse" x2="49.241"/>
<linearGradient gradientTransform="matrix(-1 0 0 1 264.42 426.8)" id="linearGradient4435" xlink:href="#linearGradient3197-1" y1="67.154" y2="60.189" x1="58.182" gradientUnits="userSpaceOnUse" x2="56.356"/>
<linearGradient gradientTransform="matrix(-1 0 0 1 264.74 420.48)" id="linearGradient4385" xlink:href="#linearGradient3176-3" y1="58.737" y2="33.125" x1="59.136" gradientUnits="userSpaceOnUse" x2="21.627"/>
<linearGradient gradientTransform="matrix(-1 0 0 1 264.74 420.48)" id="linearGradient4395" xlink:href="#linearGradient3176-3" y1="55.147" y2="46.531" x1="55.748" gradientUnits="userSpaceOnUse" x2="51.752"/>
<linearGradient gradientTransform="matrix(-1 0 0 1 264.74 420.48)" id="linearGradient4465" xlink:href="#linearGradient3197-1" y1="67.154" y2="60.189" x1="58.182" gradientUnits="userSpaceOnUse" x2="56.356"/>
<linearGradient id="linearGradient3176-3">
<stop offset="0" stop-color="#808080"/>
<stop offset="1" stop-color="#fff"/>
</linearGradient>
<linearGradient gradientTransform="matrix(-1 0 0 1 264.3 433.36)" id="linearGradient4415" xlink:href="#linearGradient3197-1" y1="64.168" y2="60.191" x1="57.879" gradientUnits="userSpaceOnUse" x2="58.684"/>
<linearGradient gradientTransform="matrix(-1 0 0 1 264.3 433.36)" id="linearGradient4405" xlink:href="#linearGradient3197-1" y1="67.154" y2="60.189" x1="58.182" gradientUnits="userSpaceOnUse" x2="56.356"/>
<linearGradient gradientTransform="matrix(-1 0 0 1 264.3 433.36)" id="linearGradient4425" xlink:href="#linearGradient3197-1" y1="66.04" y2="57.826" x1="57.623" gradientUnits="userSpaceOnUse" x2="55.011"/>
<linearGradient id="linearGradient3197-1">
<stop offset="0" stop-color="#806020"/>
<stop offset="1" stop-color="#fff"/>
</linearGradient>
<linearGradient gradientTransform="matrix(-1 0 0 1 264.42 426.8)" id="linearGradient4455" xlink:href="#linearGradient3197-1" y1="66.04" y2="57.826" x1="57.623" gradientUnits="userSpaceOnUse" x2="55.011"/>
<linearGradient gradientTransform="matrix(-1 0 0 1 264.42 426.8)" id="linearGradient4445" xlink:href="#linearGradient3197-1" y1="64.168" y2="60.191" x1="57.879" gradientUnits="userSpaceOnUse" x2="58.684"/>
<linearGradient gradientTransform="matrix(-1 0 0 1 264.74 420.48)" id="linearGradient4475" xlink:href="#linearGradient3197-1" y1="64.168" y2="60.191" x1="57.879" gradientUnits="userSpaceOnUse" x2="58.684"/>
<linearGradient gradientTransform="matrix(-1 0 0 1 264.74 420.48)" id="linearGradient4485" xlink:href="#linearGradient3197-1" y1="66.04" y2="57.826" x1="57.623" gradientUnits="userSpaceOnUse" x2="55.011"/>
<linearGradient gradientTransform="matrix(-1 0 0 1 264.74 420.48)" id="linearGradient4595" xlink:href="#linearGradient3197-1" y1="72.37" y2="56.383" x1="20.446" gradientUnits="userSpaceOnUse" x2="26.911"/>
<linearGradient gradientTransform="matrix(-1 0 0 1 264.7 433.35)" id="linearGradient4511" xlink:href="#linearGradient3197-1" y1="65.652" y2="40.831" x1="59.394" gradientUnits="userSpaceOnUse" x2="53.703"/>
<linearGradient gradientTransform="matrix(-1 0 0 1 264.65 426.77)" id="linearGradient4521" xlink:href="#linearGradient3197-1" y1="67.994" y2="44.045" x1="59.282" gradientUnits="userSpaceOnUse" x2="53.703"/>
<linearGradient gradientTransform="matrix(-1 0 0 1 264.74 420.48)" id="linearGradient4661" xlink:href="#linearGradient3197-1" y1="62.662" y2="161.9" x1="45.267" gradientUnits="userSpaceOnUse" x2="17.712"/>
<linearGradient gradientTransform="matrix(-1 0 0 1 264.74 420.48)" id="linearGradient4501" xlink:href="#linearGradient3197-1" y1="80.062" y2="66.836" gradientUnits="userSpaceOnUse" x2="0"/>
<linearGradient gradientTransform="matrix(-1 0 0 1 264.74 420.48)" id="linearGradient4557" xlink:href="#linearGradient3197-1" y1="99.065" y2="24.235" x1="90.664" gradientUnits="userSpaceOnUse" x2="-17.202"/>
<linearGradient gradientTransform="matrix(-1 0 0 1 264.74 420.48)" id="linearGradient4531" xlink:href="#linearGradient3197-1" y1="70.295" y2="49.581" x1="59.728" gradientUnits="userSpaceOnUse" x2="51.078"/>
<linearGradient gradientTransform="matrix(-1 0 0 1 264.74 420.48)" id="linearGradient4573" xlink:href="#linearGradient3197-1" y1="74.135" y2="50.025" x1="48.435" gradientUnits="userSpaceOnUse" x2="35.632"/>
<linearGradient gradientTransform="matrix(-1 0 0 1 264.74 420.48)" id="linearGradient4541" xlink:href="#linearGradient3197-1" y1="76.582" y2="25.661" x1="70.18" gradientUnits="userSpaceOnUse" x2="53.485"/>
<linearGradient gradientTransform="matrix(-1 0 0 1 264.74 420.48)" id="linearGradient4639" xlink:href="#linearGradient3197-1" y1="92.067" y2="22.587" x1="13.998" gradientUnits="userSpaceOnUse" x2="34.89"/>
<linearGradient gradientTransform="matrix(-1 0 0 1 264.74 420.48)" id="linearGradient4617" xlink:href="#linearGradient3197-1" y1="98.629" y2="28.483" x1="35.726" gradientUnits="userSpaceOnUse" x2="37.42"/>
</defs>
<g color="#000">
<g transform="translate(-200.79 -463.12)">
<path fill="none" stroke="#000" stroke-width=".2" d="m232.89,484.12-32,16 32,16 32-16-32-16z"/>
</g>
<g fill-rule="evenodd" transform="translate(-200.79 -463.12)">
<path fill="url(#linearGradient4661)" d="m215.44,507.06-.1633-23.917 15.54,7.1859 8.6296,5.6656-24.006,11.066z"/>
<path fill="url(#linearGradient4639)" d="m257.24,504.09-.1786-24.286-23.929,12.5 .1786,23.781 23.929-11.995z"/>
<path fill="url(#linearGradient4617)" d="m233.13,492.1-1.7118-.8852 .1339,23.915 1.778,.9298-.2002-23.959z"/>
<path fill="url(#linearGradient4595)" d="m257.06,478.11v1.875l-23.839,12.321-.11-1.9436 23.949-12.253z"/>
<path fill="url(#linearGradient4573)" d="m233.23,492.3-31.959-15.665v-1.7993l31.914,15.563 .0446,1.9017z"/>
<path fill="url(#linearGradient4557)" d="m257.11,478.15-31.82-15.026-23.991,11.743 31.82,15.531 23.991-12.248z"/>
<path fill="url(#linearGradient4541)" d="m201.36,476.63v23.434l1.4967,.7098-.0447-2.4253 10.607,5.5558 .0631,2.1542 1.9572,1.0025-.0631-23.486-14.016-6.9448z"/>
<path fill="url(#linearGradient4531)" d="m213.66,484.6-.037,4.6783-10.844-5.7191-.037-4.4997 10.918,5.5405z"/>
<path fill="url(#linearGradient4521)" d="m213.57,490.89-.037,4.6783-10.844-5.7191-.037-4.4997 10.918,5.5405z"/>
<path fill="url(#linearGradient4511)" d="m213.62,497.47-.037,4.6783-10.844-5.7191-.037-4.4997 10.918,5.5405z"/>
<path fill="url(#linearGradient4501)" d="m202.8,498.27v2.4253l2.1466-1.2888-2.1466-1.1364z"/>
<path fill="url(#linearGradient4485)" d="m210.82,484.79v.7548s-.748,.3458-1.5648,.7864c-.442,.2384-3.9375-1.9007-3.9375-1.9007v-.8118l3.9327,1.998 1.5696-.8267z"/>
<path fill="url(#linearGradient4475)" d="m207.29,483.15v.5998l-.4419,.2525-.4104-.5051 .8523-.3472z"/>
<path fill="url(#linearGradient4465)" d="m206.48,482.69s-.4016,.3197-1.0639,.8642c-.2964,.2437 3.6084,2.1909 3.8382,2.0552 1.0466-.6182 1.4983-.8642 1.4983-.8642l-.9299-.4005s-.3013,.2244-.7722,.5294c-.2234,.1447-2.7151-1.137-2.5706-1.2629 .3686-.3211 .8047-.5189 .8047-.5189l-.8047-.4023z"/>
<path fill="url(#linearGradient4455)" d="m210.5,491.1v.7548s-.748,.3458-1.5648,.7864c-.442,.2384-3.9374-1.9007-3.9374-1.9007v-.8119l3.9327,1.998 1.5696-.8267z"/>
<path fill="url(#linearGradient4445)" d="m206.97,489.47v.5998l-.4419,.2525-.4104-.5051 .8523-.3472z"/>
<path fill="url(#linearGradient4435)" d="m206.17,489.01s-.4016,.3197-1.0639,.8642c-.2964,.2437 3.6084,2.1909 3.8382,2.0552 1.0466-.6182 1.4983-.8642 1.4983-.8642l-.9299-.4005s-.3013,.2244-.7721,.5294c-.2234,.1447-2.7151-1.137-2.5706-1.2629 .3686-.3211 .8047-.5189 .8047-.5189l-.8047-.4023z"/>
<path fill="url(#linearGradient4425)" d="m210.37,497.67v.7548s-.748,.3458-1.5648,.7864c-.442,.2384-3.9374-1.9007-3.9374-1.9007v-.8118l3.9327,1.998 1.5696-.8267z"/>
<path fill="url(#linearGradient4415)" d="m206.84,496.03v.5998l-.4419,.2525-.4104-.5051 .8523-.3472z"/>
<path fill="url(#linearGradient4405)" d="m206.04,495.57s-.4016,.3197-1.0639,.8642c-.2964,.2437 3.6084,2.1909 3.8382,2.0552 1.0466-.6182 1.4983-.8642 1.4983-.8642l-.9299-.4005s-.3013,.2244-.7722,.5294c-.2234,.1447-2.7151-1.137-2.5706-1.2629 .3686-.3211 .8047-.5189 .8047-.5189l-.8047-.4023z"/>
<path fill="url(#linearGradient4395)" d="m206.93,473.02 .1786,.4911-.1786,.2679 .1339,.1339-.1339,.1786 .1786,.3571 7.6562,3.7054 .1339-1.5179-7.9688-3.6161z"/>
<path fill="url(#linearGradient4385)" d="m224.79,471.57-7.6004-3.8557-10.36,5.3033 7.7024,3.7728 10.258-5.2204z"/>
<path fill="url(#linearGradient4375)" d="m224.74,471.59-.0446,.4464 .2232,.1786-.2679,.1786 .2232,.3125-.2232,.1786 .1339,.2679-10.067,4.9554 .0223-.2679v-.2232l.0893-.2679-.2232-.1339 .2679-.1786-.3125-.2455 10.179-5.2009z"/>
</g>
</g>
</svg>
