<svg xmlns="http://www.w3.org/2000/svg" viewBox="0 0 286.413 302.13" xmlns:xlink="http://www.w3.org/1999/xlink" enable-background="new 0 0 286.413 302.13">
<g fill-rule="evenodd">
<path d="m149.03,15.136c.926,11.581-.611,22.479 0,33.764 .651,12.014 4.273,23.664 4.074,35.51-.377,22.567-8.68,45.219-2.909,67.528 2.552-1.184 2.663-3.951 4.657-5.82 1.814-1.706 4.619-2.293 6.402-4.077 2.063-2.063 3.679-5.412 5.822-8.148 4.486-5.73 9.129-11.322 11.643-19.793 .322,5.562-3.061,10.917-5.822,15.136-1.314,2.006-3.059,4.358-4.657,6.403-5.284,6.758-12.706,12.004-17.465,19.793-.81,26.08 2.457,48.389 2.911,74.514-3.197-2.168-1.76-6.865-1.745-9.896 .038-8.997-1.606-23.498-2.329-33.765-.485-6.888 .301-14.077 0-20.956-.383-8.7-2.018-16.951-2.911-25.033-.303-2.741 .688-6.585 0-9.314-.864-3.437-4.519-5.124-6.402-8.151-1.303-2.091-1.717-4.796-2.911-6.985-4.093-7.49-10.394-14.892-8.733-24.45 .805,9.191 5.313,15.996 9.316,22.705 2.746,4.605 4.404,9.986 8.731,12.808 2.07-9.83 2.954-20.049 4.074-32.018 .455-4.847 1.405-10.299 1.166-14.554-.304-5.363-2.411-12.17-2.911-18.627-1.19-15.412-1.45-31.005 .01-46.575z"/>
<path d="m181.63,91.978c1.343,1.762 .204,6.004 .58,8.731-2.38-1.145-.82-6.531-.58-8.732z"/>
<path d="m140.3,134.48c.879,1.295 .542,6.341-1.166,6.985 .1-2.62 .46-4.97 1.17-6.98z"/>
<path d="m7.568,158.92c4.471,.967 11.783-.106 16.299,1.748 2.839,1.166 6.321,4.644 9.897,6.403 8.503,4.186 21.658,6.268 32.017,9.313 4.915,1.445 9.932,1.982 14.553,3.494 8.76,2.863 15.506,9.69 23.868,12.225 .379-8.144-6.173-14.395-8.731-21.538 6.514,5.517 9.169,14.892 12.225,23.867 7.538,5.924 13.493,14.187 22.705,19.793 2.842,1.729 5.112,3.544 7.568,5.237 4.714,3.257 11.808,5.392 11.06,12.225-15.132-3.728-32.106-.763-40.75,6.986-.476-1.736-6.704-2.62-9.897-2.909-7.957-.72-17.289,1.696-23.287,3.491 8.362-6.554 19.886-3.396 30.855-4.074 7.878-.487 14.828-5.822 23.285-6.985 6.145-.846 11.278,1.08 18.047,1.163-5.294-5.408-11.581-10.307-18.63-14.554-2.063-1.243-4.939-1.771-6.985-3.491-1.995-1.675-2.803-4.304-4.657-6.405-5.266-5.964-18.391-17.741-29.69-12.223 .585-2.326 3.979-1.845 5.24-3.494-5.145-5.881-12.793-7.504-22.122-9.896-2.748-.706-5.022-2.248-7.566-2.911-6.062-1.575-12.623-1.551-18.63-2.911-5.691-1.286-12.074-4.97-16.882-8.148-1.546-1.023-3.042-2.866-4.657-3.494-3.271-1.271-7.807-.663-11.061-1.163-1.163-.2-3.801-.09-4.084-1.77z"/>
<path d="m270.11,167.66c-.744,3.105-4.51,2.132-6.985,2.911-5.671,1.783-13.532,4.955-22.704,4.656 8.788-2.662 20.025-2.873 26.778-7.567h2.91z"/>
<path d="m239.84,175.22c-2.948,1.902-6.768,2.936-10.479,4.074 1.44-3.41 6.9-2.8 10.48-4.07z"/>
<path d="m158.92,230.53h1.163c13.037-.493 23.275,4.851 33.184,8.73 6.093,2.388 11.041,3.203 15.136,7.568 3.89-1.341 10.596-1.675 15.135-.583-3.537,1.121-8.921,.394-12.806,1.166 1.447,6.557 7.094,9.809 11.06,13.971 3.993,4.192 7.71,8.565 11.06,13.391-11.606-8.964-19.479-21.66-30.853-30.855-1.645-.48-1.51,.822-2.911,.583 .246-1.992-1.744-1.748-2.329-2.911-6.055-1.291-11.955-4.757-18.045-6.403-3.144-.851-7.469-2.433-10.479-2.911-2.86-.46-7.13,1.25-9.32-1.75z"/>
<path d="m106.53,239.26c.024,1.772-1.229,2.265-1.748,3.494-1.55-1.03 0-3.84 1.75-3.49z"/>
<path d="m99.545,250.9c.493,2.251-1.099,7.427-1.746,10.478-.192,6.118-1.059-1 0-2.911 .5-1.857-.917-1.801-1.163-2.909 .235-2.29 2.558-2.49 2.909-4.66z"/>
<path d="m72.186,275.35c.092,2.423-3.494,1.163-4.077,2.911-1.475-1.51 2.178-2.84 4.077-2.91z"/>
<path d="m149.03,0c3.285,1.271 3.395,4.688 5.239,6.985 1.59,1.98 4.333,3.29 5.82,5.822 1.592,2.703 2.089,5.732 3.494,8.148 3.704,6.372 9.827,12.791 15.136,19.21 7.035,8.511 10.65,18.961 16.3,29.107 4.796,8.618 10.96,20.08 14.553,31.436 3.203,10.122 3.12,30.993 10.479,34.93 4.428,2.371 9.499,.26 15.134,1.163 2.594,.417 5.159,2.688 8.151,3.494 6.301,1.698 13.954,.471 19.21,2.329 2.715,.959 9.821,5.898 12.226,8.151 4.275,4.003 6.899,10.015 11.643,13.388-4.11,19.715-12.041,35.434-22.122,49.482-3.785,1.798-7.05,5.304-11.06,8.151-3.818,2.71-8.248,5.111-11.06,8.148-1.824,1.968-4.511,5.865-4.657,8.731-.189,3.662 2.833,5.452 4.074,9.315 .654,2.04 .135,5.098 .583,7.568 .602,3.333 2.108,6.268 2.328,8.731 .588,6.611-1.07,11.699-1.748,19.21-20.248,1.583-48.822-1.973-63.451-12.808-8.874-6.568-14.409-18.357-19.213-29.688-3.049,3.423-1.859,8.646-2.329,12.806-1.885,16.74-5.708,34.096-9.896,48.317 .938-12.854 5.056-28.048 6.988-41.912 .854-6.151 2.27-12.474 2.328-18.048 .036-3.579-.711-6.047-1.165-8.15 7.383,1.507 8.022,11.429 11.643,18.047 .966,1.765 2.28,3.439 3.493,5.24 5.562,8.257 10.928,13.343 22.122,17.465 12.185,4.483 30.841,7.682 46.571,6.402 3.587-9.046 2.412-15.184 .581-23.867-.635-3.011-.969-6.268-1.746-8.733-1-3.162-4.164-6.784-4.074-9.896 .109-3.795 5.226-9.854 9.313-13.389 6.56-5.668 10.883-6.374 16.883-12.808 3.259-3.494 5.284-6.673 8.15-11.06 2.402-3.679 4.015-6.943 6.402-11.643 2.672-5.261 2.701-6.445 4.657-13.391 .827-2.93 3.773-7.146 3.494-9.896-.638-6.236-8.291-6.959-9.896-14.554-4.87-1.885-9.823-6.483-16.302-8.148-3.901-1.004-8.592-.843-12.806-1.749-3.868-.827-7.731-2.978-11.062-3.491-6.699-1.038-12.789,1.54-16.883-2.911-4.905-5.337-4.824-23.505-7.567-32.019-3.056-9.489-8.175-20.021-13.971-30.27-5.181-9.16-9.478-20.8-15.137-28.527-5.387-7.353-12.753-13.601-16.882-20.374-2.08-3.413-2.895-6.995-4.657-9.896-2.516-4.145-5.808-7.071-8.731-12.225-8.2,7.789-12.874,19.424-19.793,29.107-2.179,3.048-5.002,5.976-6.985,9.313-5.135,8.644-8.667,19.731-14.553,29.107-4.508,7.18-7.53,12.985-10.479,22.122-.838,2.601-2.395,5.225-2.911,7.568-1.473,6.696-.462,14.693-2.909,20.957-1.793,4.583-4.922,8.058-8.734,11.062-2.944,.611-6.147-1.483-9.314-1.748-6.118-.51-12.969,1.482-19.793,4.076-5.541,2.106-11.452,4.307-16.882,6.403-3.108,1.199-5.981,3.385-9.314,4.657-3.812,1.457-7.708,2.125-10.479,3.494-5.752,2.84-11.112,7.314-14.553,11.06 .477,3.255 2.873,5.945 4.658,8.733 4.561,7.121 8.38,14.803 13.971,21.539 3.576,4.309 8.491,8.18 12.225,12.806 3.327,4.124 6.096,8.283 9.896,12.225 4.133,4.288 20.346,8.338 21.54,15.137 1.471,8.388-9.395,18.405-9.896,26.195-.244,3.778 1.918,6.922 2.329,10.479 .677,5.915-.491,11.704 0,19.793 19.482,2.64 39.882-1.572 51.809-10.479 2.8-2.09 4.868-5.056 8.151-7.568 3.33-2.549 7.608-3.901 11.06-6.402 4.962-3.597 8.999-8.982 12.225-13.972 3.31-5.116 4.991-12.426 11.646-14.553-4.669,23.078-6.005,49.492-14.554,68.69-2.475-1.961 .647-4.654 1.163-6.402 4.863-16.43 7.993-36.746 9.897-56.469-4.275,2.168-4.617,7.528-6.986,11.062-1.277,1.904-3.527,3.858-5.24,5.819-1.684,1.931-3.527,4.343-5.239,5.823-3.762,3.252-8.774,5.199-12.808,8.15-4.077,2.982-6.732,6.897-10.477,9.313-2.063,1.329-4.456,1.713-6.986,2.909-2.037,.964-3.697,2.793-5.822,3.494-5.99,1.98-14.544,2.928-21.539,3.494-5.583,.449-11.948,.396-18.627-1.166-.802-7.519 .912-11.754 0-19.21-.436-3.554-2.292-6.983-2.33-11.06-.057-6.114 4.881-11.141 7.567-17.465 1.106-2.604 2.646-7.225 2.331-9.314-.961-6.364-10.899-7.253-16.301-10.479-5.048-3.015-9.959-10.51-13.971-15.719-6.271-8.139-16.917-17.533-22.122-26.195-1.441-2.397-2.107-5.226-3.493-7.568-2.415-4.081-6.09-7.606-6.985-12.226 1.99-2.641 5.301-4.235 8.149-6.402 2.818-2.144 5.406-4.157 8.732-5.822 3.206-1.604 6.943-2.674 10.479-4.074 6.966-2.76 13.879-5.6 22.122-8.731 7.277-2.767 13.03-7.078 23.867-6.405 2.769,.173 6.062,1.848 8.734,1.166 3.797-.972 7.435-9.454 8.731-13.971 1.791-6.246 1.739-12.265 2.911-17.464 3.546-15.748 12.247-26.21 19.21-40.169 5.015-10.05 8.62-18.829 13.971-26.196 2.771-3.813 6.097-7.253 8.734-11.06 4.38-6.234 7.84-14.273 13.44-19.771z"/>
<path d="m181.05,103.04c1.208,.151 .159,2.558 1.163,2.911-.308,2.215-1.215,3.83-1.745,5.822 .073,1.44-.713,.99-.583,0 .192-1.362 .701-2.404 1.165-3.494-1.05-1.99 .08-2.8 .01-5.24z"/>
<path d="m228.78,165.91c.312,3.814-2.845,9.182-4.074,13.391 .53,1.954 1.082,.289 2.911,.583-6.211,7.565-17.325,10.23-24.45,16.882 3.11,4.712 9.887,4.451 15.134,6.403 4.671,1.738 9.074,6.289 16.882,5.822-.229,2.484-4.877,.554-6.985,1.163-5.725-4.186-12.409-5.396-20.373-8.731-2.881-1.206-6.604-3.534-8.733-3.494-2.817,.057-6.636,3.217-9.897,4.657-8.016,3.544-13.831,6.969-19.21,12.808 11.829-16.114 36.228-19.658 51.812-32.019 2.81-5.33 4.07-12.22 6.98-17.46z"/>
<path d="m86.74,192.69c-11.171,6.311-33.285,10.039-47.155,2.326 3.409-2.386 6.527,1.525 9.314,2.331 3.339,.962 7.872,1.539 12.808,1.163 2.767-.211 5.664-1.909 8.731-2.329 6.32-.86 11.614-1.05 16.302-3.49z"/>
<path d="m162.42,221.8c.201,2.539-3.496,6.196-6.402,7.565 1.39-3.26 5.19-4.12 6.4-7.56z"/>
<path d="m103.04,243.34c2.009,2.614-2.03,4.159-1.746,6.985-1.435-2.04 1.67-4.52 1.75-6.98z"/>
<path d="m96.054,255.56c-2.646,4.818-8.938,5.387-12.808,8.731-3.567,3.082-4.676,7.308-7.568,11.06-2.253-1.509 2.006-4.707 2.911-5.82 1.679-2.07 2.847-5.543 4.657-6.985 1.8-1.436 4.884-2.174 6.986-3.494 2.088-1.31 3.585-3.38 5.822-3.49z"/>
<path d="m66.364,278.85c-1.694,1.217-1.701,4.119-4.657,4.074 1.019-1.89 2.707-3.11 4.657-4.07z"/>
</g>
</svg>
