<?xml version="1.0" encoding="UTF-8" standalone="no"?>
<!-- Created with Inkscape (http://www.inkscape.org/) -->

<svg
   xmlns:dc="http://purl.org/dc/elements/1.1/"
   xmlns:cc="http://creativecommons.org/ns#"
   xmlns:rdf="http://www.w3.org/1999/02/22-rdf-syntax-ns#"
   xmlns:svg="http://www.w3.org/2000/svg"
   xmlns="http://www.w3.org/2000/svg"
   xmlns:sodipodi="http://sodipodi.sourceforge.net/DTD/sodipodi-0.dtd"
   xmlns:inkscape="http://www.inkscape.org/namespaces/inkscape"
   id="svg2"
   xml:space="preserve"
   viewBox="0 0 19.32 31.97"
   version="1.1"
   inkscape:version="0.91 r13725"
   sodipodi:docname="jar,bottle,container,jam2.svg"><sodipodi:namedview
     pagecolor="#ffffff"
     bordercolor="#666666"
     borderopacity="1"
     objecttolerance="10"
     gridtolerance="10"
     guidetolerance="10"
     inkscape:pageopacity="0"
     inkscape:pageshadow="2"
     inkscape:window-width="660"
     inkscape:window-height="480"
     id="namedview143"
     showgrid="false"
     inkscape:zoom="7.3819207"
     inkscape:cx="9.6599998"
     inkscape:cy="15.985"
     inkscape:window-x="0"
     inkscape:window-y="0"
     inkscape:window-maximized="0"
     inkscape:current-layer="g12" /><defs
     id="defs6"><linearGradient
       id="linearGradient24"
       y2="-16.981"
       gradientUnits="userSpaceOnUse"
       x2="24.137"
       gradientTransform="matrix(.64 0 0 .64 -.000032 21.736)"
       y1="-16.981"
       x1="-0.0376"><stop
         id="stop26"
         style="stop-color:#ffe8ad"
         offset="0" /><stop
         id="stop28"
         style="stop-color:#8f7441"
         offset="1" /></linearGradient><linearGradient
       id="linearGradient42"
       y2="-16.506"
       gradientUnits="userSpaceOnUse"
       x2="22.7"
       gradientTransform="matrix(.64 0 0 .64 .44021 21.536)"
       y1="-16.506"><stop
         id="stop44"
         style="stop-color:#ffd770"
         offset="0" /><stop
         id="stop46"
         style="stop-color:#a3844a"
         offset="1" /></linearGradient><clipPath
       id="clipPath54"><path
         id="path56"
         d="m1 0.57591h4v21h-4v-21z"
         inkscape:connector-curvature="0" /></clipPath><mask
       id="mask58"><g
         id="g60"><g
           id="g62"
           clip-path="url(#clipPath54)"><path
             id="path64"
             style="fill:#000000;fill-opacity:.57810"
             d="m1 0.57591h4v21h-4v-21z"
             inkscape:connector-curvature="0" /></g></g></mask><clipPath
       id="clipPath70"><path
         id="path72"
         d="m1 0.57591h4v21h-4v-21z"
         inkscape:connector-curvature="0" /></clipPath><clipPath
       id="clipPath74"><path
         id="path76"
         d="m1 1h4v21h-4v-21z"
         inkscape:connector-curvature="0" /></clipPath><linearGradient
       id="linearGradient82"
       y2="-15758"
       gradientUnits="userSpaceOnUse"
       x2="-513.27"
       gradientTransform="matrix(.044544 -.63846 .63846 .044544 10087 378.08)"
       y1="-15758"
       x1="-538.43"><stop
         id="stop84"
         style="stop-color:#ffffff"
         offset="0" /><stop
         id="stop86"
         style="stop-color:#000000"
         offset="1" /></linearGradient><clipPath
       id="clipPath114"><path
         id="path116"
         d="m2 19.576h12v3h-12v-3z"
         inkscape:connector-curvature="0" /></clipPath><mask
       id="mask118"><g
         id="g120"><g
           id="g122"
           clip-path="url(#clipPath114)"><path
             id="path124"
             style="fill:#000000;fill-opacity:.67190"
             d="m2 19.576h12v3h-12v-3z"
             inkscape:connector-curvature="0" /></g></g></mask><clipPath
       id="clipPath130"><path
         id="path132"
         d="m2 19.576h12v3h-12v-3z"
         inkscape:connector-curvature="0" /></clipPath><clipPath
       id="clipPath134"><path
         id="path136"
         d="m2 20h12v3h-12v-3z"
         inkscape:connector-curvature="0" /></clipPath><clipPath
       id="clipPath158"><path
         id="path160"
         d="m10 0.57591h5v21h-5v-21z"
         inkscape:connector-curvature="0" /></clipPath><mask
       id="mask162"><g
         id="g164"><g
           id="g166"
           clip-path="url(#clipPath158)"><path
             id="path168"
             style="fill:#000000;fill-opacity:.21090"
             d="m10 0.57591h5v21h-5v-21z"
             inkscape:connector-curvature="0" /></g></g></mask><clipPath
       id="clipPath174"><path
         id="path176"
         d="m10 0.57591h5v21h-5v-21z"
         inkscape:connector-curvature="0" /></clipPath><clipPath
       id="clipPath178"><path
         id="path180"
         d="m10 1h5v21h-5v-21z"
         inkscape:connector-curvature="0" /></clipPath><linearGradient
       id="linearGradient186"
       y2="-2.3805"
       gradientUnits="userSpaceOnUse"
       x2="2.5161"
       gradientTransform="matrix(.64 0 0 .64 10.8 21.96)"
       y1="-27.48"
       x1="4.2661"><stop
         id="stop188"
         style="stop-color:#ffffff"
         offset="0" /><stop
         id="stop190"
         style="stop-color:#000000"
         offset="1" /></linearGradient><linearGradient
       id="linearGradient224"
       y2="6"
       gradientUnits="userSpaceOnUse"
       x2="20.775"
       gradientTransform="matrix(.64 0 0 -.64 -.00008 25.576)"
       y1="6"
       x1="3.2998"><stop
         id="stop226"
         style="stop-color:#fffff0"
         offset="0" /><stop
         id="stop228"
         style="stop-color:#918649"
         offset="1" /></linearGradient><clipPath
       id="clipPath236"><path
         id="path238"
         d="m2 19.576h7v2h-7v-2z"
         inkscape:connector-curvature="0" /></clipPath><mask
       id="mask240"><g
         id="g242"><g
           id="g244"
           clip-path="url(#clipPath236)"><path
             id="path246"
             style="fill:#000000;fill-opacity:.48050"
             d="m2 19.576h7v2h-7v-2z"
             inkscape:connector-curvature="0" /></g></g></mask><clipPath
       id="clipPath252"><path
         id="path254"
         d="m2 19.576h7v2h-7v-2z"
         inkscape:connector-curvature="0" /></clipPath><clipPath
       id="clipPath256"><path
         id="path258"
         d="m2 20h7v2h-7v-2z"
         inkscape:connector-curvature="0" /></clipPath><linearGradient
       id="linearGradient290"
       y2="-5.5249"
       gradientUnits="userSpaceOnUse"
       x2="18.2"
       gradientTransform="matrix(.64 0 0 .64 1.9203 25.576)"
       y1="-5.5249"><stop
         id="stop292"
         style="stop-color:#e68045"
         offset="0" /><stop
         id="stop294"
         style="stop-color:#ff9b61"
         offset=".21180" /><stop
         id="stop296"
         style="stop-color:#914c1a"
         offset="1" /></linearGradient><linearGradient
       id="linearGradient310"
       y2="-4.2998"
       gradientUnits="userSpaceOnUse"
       x2="17.887"
       gradientTransform="matrix(.64 0 0 .64 1.9203 25.576)"
       y1="-4.2998"
       x1=".2124"><stop
         id="stop312"
         style="stop-color:#ff8e4d"
         offset="0" /><stop
         id="stop314"
         style="stop-color:#ff9b61"
         offset=".21180" /><stop
         id="stop316"
         style="stop-color:#ab591f"
         offset="1" /></linearGradient></defs><g
     id="g10"
     transform="matrix(1.25 0 0 -1.25 0 31.97)"><g
       id="g12"><g
         id="g14"><g
           id="g16"><g
             id="g22"><path
               id="path30"
               style="fill-rule:evenodd;fill:url(#linearGradient24)"
               d="m15.457 15.912c0-0.813-0.074-2.86-0.227-6.145-0.125-2.836-0.222-4.672-0.285-5.504-0.066-0.683-0.363-1.343-0.898-1.984-0.703-0.875-1.738-1.504-3.102-1.887-1.109-0.3-2.187-0.425-3.234-0.382-1.023-0.043-2.09 0.082-3.199 0.382-1.364 0.383-2.399 1.012-3.106 1.887-0.531 0.641-0.832 1.301-0.894 1.984-0.043 0.555-0.137 2.391-0.289 5.504-0.149 3.223-0.223 5.27-0.223 6.145 0 0.894 0.098 1.601 0.289 2.113 0.168 0.426 0.469 0.875 0.895 1.344 0.851 0.918 1.429 1.707 1.726 2.367l4.801-0.258 4.832 0.258c0.301-0.66 0.875-1.449 1.73-2.367 0.426-0.469 0.723-0.918 0.895-1.344 0.191-0.512 0.289-1.219 0.289-2.113z"
               inkscape:connector-curvature="0" /></g></g></g><g
         id="g32"><g
           id="g34"><g
             id="g40"><path
               id="path48"
               style="fill-rule:evenodd;fill:url(#linearGradient42)"
               d="m13.848 19.232c0.406-0.469 0.683-0.906 0.832-1.312 0.191-0.512 0.289-1.196 0.289-2.047 0-0.856-0.074-2.848-0.223-5.985-0.129-3.031-0.226-4.812-0.289-5.343-0.043-0.66-0.309-1.301-0.801-1.922-0.683-0.852-1.664-1.461-2.945-1.824-1.043-0.297-2.047-0.426-3.008-0.383-1-0.043-2.015 0.086-3.039 0.383-1.281 0.363-2.25 0.972-2.91 1.824-0.492 0.597-0.77 1.238-0.832 1.922-0.043 0.722-0.129 2.507-0.258 5.343-0.148 3.2-0.223 5.196-0.223 5.985 0 0.851 0.094 1.535 0.286 2.047 0.152 0.406 0.429 0.843 0.832 1.312 0.769 0.852 1.3 1.621 1.601 2.305l4.543-0.258 4.512 0.258c0.32-0.703 0.867-1.473 1.633-2.305z"
               inkscape:connector-curvature="0" /></g></g></g><g
         id="g50"><g
           id="g66"
           mask="url(#mask58)"><g
             id="g88"><g
               id="g90"
               clip-path="url(#clipPath70)"><g
                 id="g92"
                 transform="translate(0 -.42409)"><g
                   id="g96"><g
                     id="g98"
                     clip-path="url(#clipPath74)"><g
                       id="g100"><g
                         id="g102"><g
                           id="g104"><g
                             id="g106"><path
                               id="path108"
                               style="fill-rule:evenodd;fill:url(#linearGradient82)"
                               d="m3.512 21.609 1.25 0.352c0-0.172-0.129-0.641-0.387-1.41-0.105-0.34-0.328-0.926-0.672-1.758-0.297-0.684-0.469-1.184-0.512-1.504-0.062-0.387-0.093-2.07-0.093-5.059-0.024-2.535-0.024-4.691 0-6.46 0.019-1.836 0.148-3.161 0.382-3.969-0.234 0.148-0.542 0.457-0.929 0.926-0.235 0.3-0.469 0.664-0.703 1.089l-0.254 0.543-0.196 13.442c0.024 0.32 0.196 0.703 0.512 1.152 0.387 0.445 0.633 0.766 0.738 0.961 0.469 0.746 0.758 1.309 0.864 1.695z"
                               inkscape:connector-curvature="0" /></g></g></g></g></g></g></g></g></g></g></g><g
         id="g110"><g
           id="g126"
           mask="url(#mask118)"><g
             id="g138"><g
               id="g140"
               clip-path="url(#clipPath130)"><g
                 id="g142"
                 transform="translate(0 -.42409)"><g
                   id="g146"><g
                     id="g148"
                     clip-path="url(#clipPath134)"><g
                       id="g150"><path
                         id="path152"
                         style="fill-rule:evenodd;fill:#94894d"
                         d="m12.551 22.16c0.066-0.148 0.258-0.457 0.578-0.93-0.941-0.765-2.582-1.117-4.93-1.054-2.644 0.062-4.511 0.543-5.597 1.441l0.32 0.543 4.797-0.258 4.832 0.258z"
                         inkscape:connector-curvature="0" /></g></g></g></g></g></g></g></g><g
         id="g154"><g
           id="g170"
           mask="url(#mask162)"><g
             id="g192"><g
               id="g194"
               clip-path="url(#clipPath174)"><g
                 id="g196"
                 transform="translate(0 -.42409)"><g
                   id="g200"><g
                     id="g202"
                     clip-path="url(#clipPath178)"><g
                       id="g204"><g
                         id="g206"><g
                           id="g208"><g
                             id="g210"><path
                               id="path212"
                               style="fill-rule:evenodd;fill:url(#linearGradient186)"
                               d="m12.082 21.609c0.106-0.386 0.395-0.949 0.863-1.695 0.129-0.195 0.371-0.516 0.735-0.961 0.32-0.449 0.492-0.832 0.511-1.152l-0.222-13.442-0.258-0.543c-0.211-0.425-0.445-0.789-0.703-1.089-0.383-0.469-0.684-0.778-0.895-0.926 0.211 0.808 0.328 2.133 0.352 3.969 0.043 1.535 0.051 3.691 0.031 6.46 0 2.969-0.031 4.653-0.098 5.059-0.043 0.32-0.21 0.82-0.511 1.504-0.36 0.875-0.594 1.461-0.703 1.758-0.254 0.769-0.383 1.238-0.383 1.41l1.281-0.352z"
                               inkscape:connector-curvature="0" /></g></g></g></g></g></g></g></g></g></g></g><g
         id="g214"><g
           id="g216"><g
             id="g222"><path
               id="path230"
               style="fill-rule:evenodd;fill:url(#linearGradient224)"
               d="m13.312 21.736c0-0.363-0.546-0.672-1.632-0.93-1.11-0.254-2.434-0.382-3.969-0.382-1.555 0-2.879 0.128-3.965 0.382-1.09 0.258-1.633 0.567-1.633 0.93s0.543 0.672 1.633 0.93c1.109 0.254 2.43 0.383 3.965 0.383s2.859-0.129 3.969-0.383c1.09-0.258 1.632-0.567 1.632-0.93z"
               inkscape:connector-curvature="0" /></g></g></g><g
         id="g232"><g
           id="g248"
           mask="url(#mask240)"><g
             id="g260"><g
               id="g262"
               clip-path="url(#clipPath252)"><g
                 id="g264"
                 transform="translate(0 -.42409)"><g
                   id="g268"><g
                     id="g270"
                     clip-path="url(#clipPath256)"><g
                       id="g272"><path
                         id="path274"
                         style="fill-rule:evenodd;fill:#ffffff"
                         d="m3.016 21.609c0.406-0.129 1.066-0.257 1.984-0.386 1.152-0.168 2.434-0.254 3.84-0.254-0.043-0.106-0.735-0.129-2.078-0.067-1.621 0.043-2.903 0.227-3.84 0.547-0.152 0.063-0.203 0.117-0.16 0.16s0.125 0.043 0.254 0z"
                         inkscape:connector-curvature="0" /></g></g></g></g></g></g></g></g><path
         id="path276"
         style="fill-rule:evenodd;fill:#ffffff"
         d="m2.91 2.31c0.449-0.234 0.715-0.476 0.801-0.734 0.086-0.234 0.035-0.352-0.16-0.352-0.297 0-0.715 0.246-1.246 0.735-0.235 0.238-0.258 0.386-0.067 0.449 0.196 0.086 0.418 0.055 0.672-0.098z"
         inkscape:connector-curvature="0" /><path
         id="path278"
         style="fill-rule:evenodd;fill:#ffffff"
         d="m4.609 1.447c0.321-0.062 0.403-0.18 0.254-0.352-0.148-0.171-0.277-0.203-0.383-0.093-0.105 0.082-0.16 0.191-0.16 0.316-0.023 0.129 0.075 0.172 0.289 0.129z"
         inkscape:connector-curvature="0" /><g
         id="g280"><g
           id="g282"><g
             id="g288"><path
               id="path298"
               style="fill-rule:evenodd;fill:url(#linearGradient290)"
               d="m13.566 22.025c0-0.363-0.562-0.664-1.695-0.898-1.129-0.254-2.504-0.383-4.125-0.383-1.601 0-2.969 0.129-4.098 0.383-1.152 0.234-1.726 0.535-1.726 0.898s0.574 0.672 1.726 0.926c1.129 0.258 2.497 0.387 4.098 0.387 1.621 0 2.996-0.129 4.125-0.387 1.133-0.254 1.695-0.563 1.695-0.926z"
               inkscape:connector-curvature="0" /></g></g></g><g
         id="g300"><g
           id="g302"><g
             id="g308"><path
               id="path318"
               style="fill-rule:evenodd;fill:url(#linearGradient310)"
               d="m13.375 24.521v-2.273c-0.039-0.278-0.605-0.531-1.695-0.77-1.129-0.234-2.453-0.351-3.969-0.351-1.492 0-2.805 0.117-3.934 0.351-1.089 0.239-1.652 0.492-1.695 0.77v2.273h11.293z"
               inkscape:connector-curvature="0" /></g></g></g><path
         id="path320"
         style="fill-rule:evenodd;fill:#ff9b61"
         d="m13.375 24.486c0-0.297-0.555-0.555-1.664-0.766-1.086-0.214-2.418-0.32-4-0.32-1.555 0-2.879 0.106-3.965 0.32-1.109 0.211-1.664 0.469-1.664 0.766 0 0.301 0.555 0.559 1.664 0.77 1.086 0.214 2.41 0.32 3.965 0.32 1.582 0 2.914-0.106 4-0.32 1.109-0.211 1.664-0.469 1.664-0.77z"
         inkscape:connector-curvature="0" /><path
         id="path322"
         style="fill-rule:evenodd;fill:#a1643d"
         d="m10.773 14.068-0.097-1.535c-0.063-1.09-0.086-1.859-0.063-2.305 0.043-0.726 0.075-1.836 0.094-3.328l-4.988-0.098c-0.535 0-1.387 0.118-2.563 0.352l-1.597 0.383c0.105 2.008 0.105 3.34 0 4l-0.289 2.883 5.566-0.418c1.301-0.106 2.613-0.086 3.937 0.066z"
         inkscape:connector-curvature="0" /><path
         id="path324"
         style="fill-rule:evenodd;fill:#d9d2a9"
         d="m10.613 14.26-0.097-1.504c-0.063-1.11-0.086-1.887-0.063-2.336 0.043-0.703 0.074-1.805 0.094-3.297l-4.992-0.094c-0.532 0-1.387 0.113-2.559 0.348l-1.601 0.386c0.109 1.981 0.109 3.317 0 4l-0.286 2.879 5.567-0.414c1.301-0.109 2.613-0.097 3.937 0.032z"
         inkscape:connector-curvature="0" /></g></g><metadata
     id="metadata141"><rdf:RDF><cc:Work><dc:format>image/svg+xml</dc:format><dc:type
           rdf:resource="http://purl.org/dc/dcmitype/StillImage" /><cc:license
           rdf:resource="http://creativecommons.org/licenses/publicdomain/" /><dc:publisher><cc:Agent
             rdf:about="http://openclipart.org/"><dc:title>Openclipart</dc:title></cc:Agent></dc:publisher></cc:Work><cc:License
         rdf:about="http://creativecommons.org/licenses/publicdomain/"><cc:permits
           rdf:resource="http://creativecommons.org/ns#Reproduction" /><cc:permits
           rdf:resource="http://creativecommons.org/ns#Distribution" /><cc:permits
           rdf:resource="http://creativecommons.org/ns#DerivativeWorks" /></cc:License></rdf:RDF></metadata></svg>