<svg xmlns="http://www.w3.org/2000/svg" viewBox="0 0 698.1 1017.5">
<g fill="#c83737" transform="matrix(1.2317 0 0 1.2317 1898.077 179.762)">
<path opacity=".554" d="m-1417.8,265.16-110.38,98.812h541.19l-128.16-98.812h-302.66zm29.969,32.188 .2188,16.312-.125-16.312c9.0822-.0674 16.495,7.1792 16.562,16.188 .068,9.0083-7.2303,16.37-16.312,16.438-9.0822,.0674-16.495-7.1792-16.562-16.188-.068-8.9677 7.1785-16.313 16.219-16.438zm61.156,0 .2187,16.312-.125-16.312c9.0826-.0674 16.494,7.1792 16.563,16.188 .068,9.0083-7.23,16.37-16.313,16.438-9.0819,.0674-16.494-7.1792-16.562-16.188-.068-8.9677 7.1781-16.313 16.219-16.438zm61.156,0 .2187,16.312-.125-16.312c9.0822-.0674 16.526,7.1792 16.594,16.188 .068,9.0083-7.2615,16.37-16.344,16.438-9.0822,.0674-16.495-7.1792-16.562-16.188-.068-8.9677 7.178-16.313 16.219-16.438zm61.156,0 .25,16.312-.125-16.312c9.0822-.0674 16.495,7.1792 16.562,16.188 .068,9.0083-7.2616,16.37-16.344,16.438-9.0824,.0674-16.494-7.1792-16.563-16.188-.067-8.9677 7.1782-16.313 16.219-16.438zm61.156,0 .25,16.312-.125-16.312c9.0823-.0674 16.495,7.1792 16.563,16.188 .068,9.0083-7.2303,16.37-16.313,16.438-9.0822,.0674-16.494-7.1792-16.562-16.188-.068-8.9677 7.1468-16.313 16.187-16.438z"/>
<path opacity=".554" d="m-1533.5,532.94 124.62,100.59h302.66l124.47-100.59h-551.75zm145.62,32 .2188,16.312-.125-16.312c9.0822-.0674 16.495,7.1792 16.562,16.188 .068,9.0083-7.2303,16.37-16.312,16.438-9.0822,.0674-16.495-7.1792-16.562-16.188-.068-8.9677 7.1785-16.313 16.219-16.438zm61.156,0 .2187,16.312-.125-16.312c9.0826-.0674 16.494,7.1792 16.563,16.188 .068,9.0083-7.23,16.37-16.313,16.438-9.0819,.0674-16.494-7.1792-16.562-16.188-.068-8.9677 7.1781-16.313 16.219-16.438zm61.156,0 .2187,16.312-.125-16.312c9.0822-.0674 16.526,7.1792 16.594,16.188 .068,9.0083-7.2615,16.37-16.344,16.438-9.0822,.0674-16.495-7.1792-16.562-16.188-.068-8.9677 7.178-16.313 16.219-16.438zm61.156,0 .25,16.312-.125-16.312c9.0822-.0674 16.495,7.1792 16.562,16.188 .068,9.0083-7.2616,16.37-16.344,16.438-9.0824,.0674-16.494-7.1792-16.563-16.188-.067-8.9677 7.1782-16.313 16.219-16.438zm61.156,0 .25,16.312-.125-16.312c9.0823-.0674 16.495,7.1792 16.563,16.188 .068,9.0083-7.2303,16.37-16.313,16.438-9.0822,.0674-16.494-7.1792-16.562-16.188-.068-8.9677 7.1468-16.313 16.187-16.438z"/>
<path opacity=".554" d="m-1541,387.95h566.75l-91.606,76.762-102-58.573-96.566,58.573-88.252-58.573-88.005,58.573z"/>
<path opacity=".554" d="m-1538.3,521.69h561.5v-77.731l-93.6,60.13-96.599-60.13-89.678,60.13-94.806-60.13-91.772,60.13-95.046-60.13z"/>
<path opacity=".554" d="m-1109.7,645.51h-288.59l-29.583,34.579h340.55z"/>
<path opacity=".554" d="m-1397.5,204.9h279.86v49.283h-279.86z"/>
<path opacity=".554" d="m-1262.9,77.483s68.032,34.372 66.799,72.165c-.5272,16.16-.7007,29.886-.7007,51.02h-124.97c-.9947-16.184-2.1216-36.945-2.0511-51.02 .2026-40.452 60.92-72.165 60.92-72.165z"/>
<path opacity=".554" d="m-1305.9-58.404 7.6706-62.726 16.61-6.6354v69.361h16.529v-87.541h18.116v87.541h12.109v-69.361l18.083,6.6354 4.7521,62.726c67.066,70.692 70.814,91.33 82.342,157-26.471-.0945-42.399,21.412-54.254,36.376 0,0-41.86-65.288-78.113-81.362-33.6,21.82-67.473,73.82-67.473,73.82-32.381-24.906-41.338-24.604-65.286-27.963 12.543-57.3 46.524-108.74 88.915-157.87z"/>
<path opacity=".554" d="m-1440.8,134.57c14.24-24.053 46.938-26.272 78.223-14.081 35.947,23.602 29.363,51.571 32.593,79.59h-22.96c-1.7995-30.563-10.738-44.229-34.179-51.418 14.563,16.684 13.993,33.502 16.151,50.187h-30.469s-3.0089-23.737-11.703-26.737c-16.59-5.7246-45.582,27.583-45.582,27.583 3.4276-23.084 3.8399-41.331 17.926-65.124z"/>
<path opacity=".554" d="m-1081.2,134.57c-14.137-24.053-46.596-26.272-77.654-14.081-35.685,23.602-29.15,51.571-32.356,79.59h22.793c1.7863-30.563 10.66-44.229 33.93-51.418-14.457,16.684-13.891,33.502-16.034,50.187h30.247s2.987-23.737 11.618-26.737c16.469-5.7246 45.25,27.583 45.25,27.583-3.4027-23.084-3.812-41.331-17.796-65.124z"/>
</g>
</svg>
