<svg xmlns="http://www.w3.org/2000/svg" viewBox="0 0 273.22 136.49" xmlns:xlink="http://www.w3.org/1999/xlink">
<defs>
<linearGradient gradientTransform="translate(.35355 .17678)" id="linearGradient6224" xlink:href="#linearGradient6216" y1="169.01" x1="254.2" y2="176.61" gradientUnits="userSpaceOnUse" x2="247.84"/>
<linearGradient id="linearGradient6216">
<stop offset="0" stop-color="#2e3436"/>
<stop offset="1" stop-color="#2e3436" stop-opacity="0"/>
</linearGradient>
<linearGradient gradientTransform="matrix(-.48451 .87479 -.87479 -.48451 526.52 105.92)" id="linearGradient6228" xlink:href="#linearGradient6216" y1="169.01" x1="254.2" y2="176.61" gradientUnits="userSpaceOnUse" x2="247.84"/>
<linearGradient id="linearGradient6210" y1="206.19" y2="190.19" x1="278.16" gradientUnits="userSpaceOnUse" x2="278.03">
<stop offset="0" stop-color="#fff"/>
<stop offset="1" stop-color="#fff" stop-opacity="0"/>
</linearGradient>
<linearGradient gradientTransform="translate(-10.304 .45457)" id="linearGradient4528" y1="210.62" x1="175.67" y2="206.37" gradientUnits="userSpaceOnUse" x2="215.28">
<stop offset="0" stop-color="#f4f3f2"/>
<stop offset="1" stop-color="#363637" stop-opacity=".47"/>
</linearGradient>
<linearGradient id="linearGradient6202" y1="184.75" y2="197.12" x1="327.94" gradientUnits="userSpaceOnUse" x2="327.42">
<stop offset="0" stop-color="#555753"/>
<stop offset="1" stop-color="#555753" stop-opacity="0"/>
</linearGradient>
<pattern patternTransform="translate(201.25 133.47)" id="pattern6248" xlink:href="#pattern6179"/>
<pattern patternTransform="translate(200.54 132.41)" id="pattern6184" xlink:href="#pattern6179"/>
<pattern width="8.688" height="8.156" patternTransform="translate(201.25 133.47)" patternUnits="userSpaceOnUse" id="pattern6179">
<path opacity=".324" fill="#eeeeec" d="m1.9375,.5c-.8781,.7454-1.4375,1.8526-1.4375,3.0938 0,2.2424 1.82,4.0624 4.0625,4.0624 1.5819,0 2.9541-.9292 3.625-2.25-.7084,.6014-1.6237,1-2.625,1-2.2425,0-4.0625-1.82-4.0625-4.0624 0-.6607 .1573-1.2922 .4375-1.8438z"/>
</pattern>
</defs>
<g transform="translate(-102.53 -133.47)">
<path fill="#928f81" d="m165.62,147.74c-33.73,0-61.09,27.39-61.09,61.13 0,33.73 27.36,61.09 61.09,61.09 24.12,0 42.78-13.73 54.91-34.31 0,0 36.35,9.47 37.53,7.03l6.58-13.62 5.81,1.27 12.88-14.9 12.12,2.03 2.48,1.53 4.69-.22 5.95-4.36 10.1,1.01 8.9,8.51 13.23-2.99 25.35-5.01 9.6-12.87-8.6-17.94-113.78-.38s1.09-8.2-.37-11.25c-.79-1.64-4.36-5.06-7.83,.62-4.31,7.06-24.02,9.2-24.02,9.2-9.68-20.98-30.92-35.57-55.53-35.57zm-20.44,42.44c9.9,0 17.91,8.31 17.91,18.56 0,10.26-8.01,18.6-17.91,18.6-9.89,0-17.93-8.34-17.93-18.6 0-10.25 8.04-18.56 17.93-18.56z"/>
<path fill="#e2d7b9" d="m163.62,145.74c-33.73,0-61.09,27.39-61.09,61.13 0,33.73 27.36,61.09 61.09,61.09 24.12,0 42.78-13.73 54.91-34.31 0,0 36.34,9.5 37.53,7.03l6.58-13.62 5.81,1.27 12.88-14.9 12.12,2.03 2.48,1.53 4.69-.22 5.95-4.36 10.1,1.01 8.9,8.51 13.23-2.99 25.35-5.01 9.6-12.87-8.6-17.94-113.78-.38s1.09-8.2-.37-11.25c-1.58-3.27-31.85,9.82-31.85,9.82-9.68-20.98-30.92-35.57-55.53-35.57zm-20.44,42.44c9.9,0 17.91,8.31 17.91,18.56 0,10.26-8.01,18.6-17.91,18.6-9.89,0-17.93-8.34-17.93-18.6 0-10.25 8.04-18.56 17.93-18.56z"/>
<path fill="url(#pattern6184)" stroke="url(#linearGradient4528)" stroke-linejoin="bevel" stroke-linecap="round" stroke-width="1.276" d="m164.46,153.28c-29.55,0-53.56,24.01-53.56,53.56s24.01,53.53 53.56,53.53c15.84,0 30.07-6.9 39.88-17.84v-71.41c-9.81-10.94-24.04-17.84-39.88-17.84zm-21.47,34.84c9.89,0 17.91,8.31 17.91,18.56s-8.02,18.6-17.91,18.6-17.94-8.35-17.94-18.6 8.05-18.56 17.94-18.56z"/>
<path opacity=".324" fill="none" d="m166.03,154.69c-29.56,0-53.57,24.01-53.57,53.56 0,29.56 24.01,53.53 53.57,53.53 15.83,0 30.07-6.9 39.87-17.84v-71.41c-9.8-10.94-24.04-17.84-39.87-17.84zm-21.47,34.84c9.89,0 17.9,8.31 17.9,18.57 0,10.25-8.01,18.59-17.9,18.59-9.9,0-17.94-8.34-17.94-18.59 0-10.26 8.04-18.57 17.94-18.57z"/>
<path fill="url(#pattern6248)" d="m201.25,133.47h8.688v8.156h-8.688z"/>
<path fill="url(#linearGradient6202)" stroke="url(#linearGradient6210)" stroke-linejoin="bevel" stroke-linecap="round" d="m250.66,189.34v9.19h121.87l-4.41-9.19h-117.46z"/>
</g>
<g fill-rule="evenodd" transform="translate(-102.53 -133.47)">
<path opacity=".838" fill="url(#linearGradient6224)" d="m230.16,178.55s13.69-7.34 19.8-7.42c.68-.01 1.3,1.1 1.42,1.77 .23,1.32 0,4.42 0,4.42l-21.22,1.23z"/>
<path opacity=".838" fill="url(#linearGradient6228)" d="m259.14,220.53s1.04,13.78-1.85,19.17c-.32,.6-2.84,2.35-3.48,2.13-1.27-.44-5.87-.89-5.87-.89l11.2-20.41z"/>
</g>
</svg>
