<svg xmlns="http://www.w3.org/2000/svg" viewBox="0 0 222.01602 288" enable-background="new 0 0 222.018 288">
<g fill="#231f20">
<path d="m184.94,283.29c0,2.59-2.143,4.709-4.764,4.709h-131.87c-2.622,0-4.766-2.119-4.766-4.709v-7.521c0-2.59 2.144-4.71 4.766-4.71h131.87c2.621,0 4.764,2.12 4.764,4.71v7.521z"/>
<path d="m221.54,134.9c-1.72-21.61-9-40.442-15.8-53.951-6.82-13.509-13.2-21.711-13.4-21.975-2.389-3.061-6.833-3.631-9.93-1.271-3.097,2.358-3.674,6.75-1.289,9.811v.001c.161,.204 5.353,6.967 11.085,18l-20.254,1.564-2.894-40.03c-.186-2.584-2.482-4.698-5.103-4.698h-99.42c-2.622,0-4.92,2.114-5.105,4.698l-6.612,91.501-15.962-36.81c-1.032-2.383-4.021-4.331-6.641-4.331h-16.182c-2.619,0-4.064,2.003-3.212,4.453l36.985,106.02-3.919,54.245c-.188,2.581 1.805,4.696 4.427,4.696h131.87c2.621,0 4.612-2.115 4.424-4.696l-5.223-72.318 21.832-1.688c-.391,1.154-.785,2.261-1.179,3.316-1.945,5.216-3.881,9.231-5.301,11.899-.712,1.334-1.292,2.33-1.68,2.971-.193,.318-.341,.55-.43,.69-.045,.068-.074,.115-.091,.141v.001c-2.176,3.213-1.303,7.559 1.948,9.707 1.208,.801 2.575,1.183 3.929,1.183 2.285,0 4.526-1.09 5.893-3.107 .463-.706 17.689-26.341 17.716-68.013 .002-3.867-.151-7.872-.476-12.006zm-16.927,41.162c-.05,.004-.096,0-.145,.004l-25.938,2.005-5.729-79.256 24.746-1.912c4.649,11.076 8.734,24.541 9.875,39.088 .297,3.764 .433,7.406 .433,10.917 0,11.055-1.346,20.844-3.242,29.154z"/>
<path d="m168.38,33.419s-.578-7.312-.578-8.008c0-6.103-18.136-11.199-42.318-12.425l2.445-8.459c.73-2.489-.82-4.527-3.44-4.527h-20.465c-2.621,0-4.176,2.038-3.455,4.528l2.445,8.459c-24.183,1.226-42.319,6.322-42.319,12.425 0,.696-.578,8.008-.578,8.008-.186,2.584 1.805,4.698 4.427,4.698h99.428c2.619-.001 4.61-2.115 4.423-4.699z"/>
</g>
<g fill="#808080">
<path d="m29.054,80.735c-6.047-6.825-8.811-12.993-8.813-18.822 .009-6.179 3.074-10.987 6.189-14.888 3.165-3.917 6.555-7.286 8.485-10.459 1.301-2.12 1.97-3.99 1.973-6.027 .014-3.009-1.551-7.313-7.688-13.601-1.654-1.692-1.599-4.384 .13-6.006 1.729-1.623 4.472-1.568 6.131,.125 6.912,7.057 10.085,13.385 10.099,19.482-.019,6.057-3.115,10.728-6.209,14.56-3.148,3.855-6.512,7.22-8.444,10.473-1.302,2.172-1.991,4.139-1.997,6.342 0,3.071 1.417,7.267 6.698,13.266 1.567,1.773 1.367,4.456-.438,5.992-.822,.695-1.831,1.033-2.836,1.033-1.215-.001-2.426-.497-3.28-1.47z"/>
<path d="m8.813,80.735c-6.046-6.825-8.81-12.993-8.813-18.822 .008-6.179 3.073-10.987 6.189-14.888 3.166-3.917 6.555-7.286 8.483-10.459 1.304-2.12 1.972-3.99 1.974-6.027 .015-3.009-1.55-7.313-7.687-13.601-1.654-1.692-1.598-4.384 .131-6.006 1.728-1.623 4.471-1.568 6.131,.125 6.909,7.057 10.084,13.385 10.098,19.482-.021,6.057-3.116,10.728-6.209,14.56-3.149,3.855-6.513,7.22-8.444,10.473-1.303,2.172-1.991,4.139-1.999,6.342 0,3.071 1.419,7.267 6.7,13.266 1.566,1.773 1.368,4.456-.438,5.992-.821,.695-1.831,1.033-2.835,1.033-1.216-.001-2.425-.497-3.281-1.47z"/>
</g>
</svg>
