<svg xmlns="http://www.w3.org/2000/svg" viewBox="0 0 726.93 618.49">
<g fill-rule="evenodd" transform="translate(1.3142)">
<path fill="#786b16" d="m723.99,263.67c-16.88,127.62-163.91,215.1-378.23,175.92-212.64-38.87-166.96-447.41 58.11-439.48 217.92,7.6898 337.26,133.95 320.12,263.56z"/>
<path fill="#78cc00" stroke="#c4f080" stroke-width="12.5" d="m533.16,235.8c-11.46,135.46-97.66,203-184.21,191.89-86.56-11.11-140.51-107.09-125.38-224.13 15.13-117.03 87.89-199.09 174.15-185.86 46.27,7.095 147.07,80.649 135.44,218.1z"/>
<path fill="#d3ff7c" fill-opacity=".833" d="m352.86,107.76c10.578-2.1583 2.8688,48.722 12.936,56.783 10.068,8.0617 16.772-38.016 25.711-25.862 8.9394,12.154-15.672,32.986-9.0995,48.118 6.5722,15.132 39.142-3.6434 41.835,14.584 2.6939,18.227-39.946,.9272-40.824,18.775-.8778,17.848 35.364,46.526 28.317,61.501-7.0466,14.975-29.615-30.076-38.596-18.106-8.9804,11.97 9.6809,56.455-.9756,63.927-10.656,7.4723-8.4702-51.101-19.41-52.54s-9.3956,65.253-20.093,60.462c-10.697-4.7904 7.6773-65.278-.2308-78.805s-34.787,40.69-39.375,23.316c-4.5882-17.374 22.735-36.971 19.651-54.684-3.0833-17.713-32.809-3.1247-32.042-22.058 .7672-18.933 37.108,4.5534 42.044-11.398 4.9353-15.952-20.359-49.278-12.069-61.445 8.2905-12.167 12.161,40.298 22.449,32.33 10.288-7.9676 9.1932-52.74 19.771-54.898z"/>
</g>
<g fill="none" stroke="#000" stroke-linecap="round" stroke-width="9.958" transform="translate(1.3142)">
<path stroke-dasharray="7.07386785,42.44320706" d="m353.9,121.88c6.9719-1.2964 4.7117,14.541 11.886,18.553 7.1746,4.0128 18.948,.9255 24.84,8.2259 5.8919,7.3004 3.6719,29.929 7.1954,39.693 3.5234,9.7639 22.138,3.6611 23.914,14.609 1.7755,10.948-14.433,16.683-15.606,27.239-1.1727,10.556 8.3651,33.288 3.7208,42.283-4.6444,8.9947-22.875-5.6291-28.226,1.9324-5.3516,7.5615-2.3547,33.262-9.3783,37.75-7.0236,4.4883-10.796-23.42-18.275-23.211-7.4791,.2088-12.214,32.95-19.265,30.072-7.0506-2.8774-9.6904-42.264-14.886-49.352-5.1956-7.0884-19.728,11.732-22.752,1.2965s12.419-32.764 10.839-43.885-23.12-11.204-22.614-22.577c.5057-11.372 15.302-23.541 18.453-33.151 3.151-9.6098 4.568-22.626 10.032-29.934 5.4642-7.308 8.224,14.734 14.908,10.761 6.6837-3.9729 18.242-29.01 25.214-30.306z"/>
<path stroke-dasharray="7.07386652,42.44319929" d="m318.81,95.907c-12.054,4.7916-6.188,52.259-15.406,63.705-9.2175,11.446-24.864-13.955-31.173,1.3393-6.3086,15.294 17.466,27.641 16.526,44.8-.9401,17.159-40.708,34.089-38.528,50.757 2.1802,16.668 42.741,1.2301 50.242,15.263 7.5011,14.033-15.613,55.794-4.1395,64.413 11.473,8.6188 25.802-17.193 38.423-12.648 12.621,4.5449 21.664,34.069 35.139,33.857 13.475-.212 9.8075-32.558 21.324-39.888 11.516-7.3297 30.231,25.361 40.396,14.878 10.166-10.483-13.295-46.803-6.5143-61.825 6.7803-15.023 42.738-12.834 43.239-29.908 .5012-17.074-29.457-33.861-33.054-49.309-3.5973-15.448 28.143-30.523 21.974-45.602-6.1692-15.079-41.745-3.3362-51.391-14.9-9.6461-11.563-4.4064-37.43-16.715-42.6-12.308-5.1698-14.64,25.292-27.533,25.567-12.893,.2743-30.757-22.691-42.811-17.899z"/>
</g>
<g fill-rule="evenodd" transform="translate(1.3142)">
<path fill="#786b16" d="m210.84,618.23c-135.78-3.73-211.66-42.18-212.15-141.95-.3874-77.34 110.46-104.39 235.71-95.02 125.26,9.3684 213.8,32.882 210.86,112.31-3.1205,84.28-83.649,128.8-234.42,124.66z"/>
<path fill="#78cc00" stroke="#c4f080" stroke-width="12.5" d="m214.66,544.03c-135.77-4.98-206.41-47.29-198.46-90.19 7.953-42.89 101.89-70.08 219.38-63.19 117.5,6.89 202.15,42.479 192.07,85.234-5.4062,22.938-75.229,73.198-213,68.142z"/>
<path fill="#d3ff7c" fill-opacity=".833" d="m336.03,454.15c2.5422,5.224-48.579,1.6681-56.268,6.6915-7.6885,5.0234 38.597,8.1063 26.779,12.592-11.819,4.486-33.532-7.5877-48.412-4.258s5.0671,19.352-13.048,20.778c-18.115,1.4261-2.3824-19.764-20.248-20.108-17.866-.3435-45.201,17.738-60.421,14.327s28.974-14.81 16.686-19.193c-12.288-4.3833-56.058,5.0787-63.913-.157-7.8549-5.2357 50.752-4.4523 51.792-9.8736 1.0392-5.4213-65.544-4.3172-61.147-9.6357 4.3968-5.3184 65.507,3.4667 78.736-.5159s-41.927-17.008-24.733-19.368c17.193-2.3592 37.771,11.063 55.358,9.4465 17.587-1.6162 1.9264-16.253 20.873-15.97 18.946,.2832-3.1974,18.388 12.922,20.749 16.119,2.3611 48.498-10.327 60.957-6.2859 12.459,4.0409-39.823,6.2235-31.487,11.275 8.3364,5.0511 53.034,4.2808 55.576,9.5048z"/>
</g>
<g fill="none" stroke="#000" stroke-linecap="round" stroke-width="9.958" transform="translate(1.3142)">
<path stroke-dasharray="7.0738701,42.44322061" d="m321.95,454.74c1.5495,3.4437-14.358,2.4059-18.106,5.977-3.7482,3.5711-.2342,9.382-7.3142,12.335s-29.772,1.9698-39.4,3.7632c-9.6279,1.7935-2.8514,10.975-13.726,11.909-10.875,.9345-17.196-7.0578-27.787-7.5843-10.591-.5266-32.957,4.3095-42.114,2.0569s4.791-11.349-2.9597-13.959c-7.7507-2.6099-33.322-.9958-38.063-4.4488-4.7408-3.453 23.008-5.462 22.527-9.1623-.4812-3.7003-33.369-5.8768-30.751-9.3807 2.6182-3.5039 41.878-5.0111 48.771-7.6184 6.8935-2.6074-12.442-9.7033-2.1247-11.253 10.318-1.5498 33.192,5.9791 44.246,5.1405 11.055-.8386 10.353-11.499 21.735-11.306 11.382,.1923 24.08,7.4526 33.798,8.9631 9.7172,1.5104 22.775,2.1453 30.277,4.8122 7.5015,2.6669-14.423,4.145-10.21,7.4325 4.2134,3.2874 29.652,8.8801 31.202,12.324z"/>
<path stroke-dasharray="7.07385657,42.44313955" d="m346.63,437.24c-5.2272-5.9409-52.444-2.796-64.217-7.2993s13.038-12.376-2.4744-15.42c-15.512-3.0441-26.983,8.7845-44.163,8.4068-17.18-.3778-35.546-19.972-52.122-18.808-16.576,1.1639 .3286,21.158-13.42,24.942-13.749,3.7837-56.32-7.442-64.514-1.7203-8.1939,5.7218 18.12,12.681 14.039,18.951-4.0814,6.2693-33.253,10.895-32.55,17.562 .703,6.6676 32.89,4.6876 40.634,10.35 7.7438,5.6619-24.239,15.09-13.394,20.068 10.845,4.9775 46.282-6.8178 61.54-3.539 15.258,3.2789 14.382,21.085 31.461,21.246 17.079,.161 32.761-14.75 48.066-16.609s31.525,13.772 46.367,10.642c14.842-3.1299 1.8122-20.676 13.015-25.508 11.203-4.8327 37.241-2.3714 41.958-8.4891 4.7172-6.1176-25.806-7.1164-26.55-13.495-.744-6.3791 21.552-15.337 16.325-21.278z"/>
</g>
</svg>
