<svg xmlns="http://www.w3.org/2000/svg" viewBox="0 0 270 270">
<path fill="#005000" d="m138.99,261.75c-.04-6.4-2.75-24.17-5.57-36.46-.78-3.41-1.43-7.68-1.44-9.5-.02-4.84-1.36-6.44-2.79-3.32-.63,1.39-1.73,2.53-2.45,2.53-1.39,0-3.18,1.86-6.01,6.25-.98,1.51-2.44,2.75-3.25,2.75-.82,0-1.48,.45-1.48,1s-.87,1-1.94,1-2.24,.48-2.6,1.07c-.37,.59-1.28,.83-2.03,.54s-1.62-.1-1.94,.41-2.47,1.43-4.78,2.05c-2.854,.76-5.584,2.59-8.473,5.68-2.345,2.51-4.556,4.26-4.912,3.91-1.679-1.68 5.669-18.05 8.872-19.77 .992-.53 1.803-1.59 1.803-2.36s.9-1.68 2-2.03 2-1.21 2-1.91 1.78-1.81 3.96-2.46c2.17-.65 4.72-1.96 5.66-2.91 .94-.94 3.1-2.79 4.79-4.1 1.83-1.41 2.27-2.08 1.09-1.63-1.1,.41-4.17,1.57-6.83,2.57-2.65,1.01-5.43,2.33-6.17,2.94-.75,.62-1.95,1-2.68,.85-.72-.15-2.33,.36-3.63,1.01-3.6,1.79-4.936-.95-8.791,1.46-4.932,3.08-3.874-.64-10.392,2.06-10.258,4.25-4.376,.04-12.163,3.26-9.787,4.06-3.005-2.38-13.344,2.36-4.212,1.94-15.429,2.6-17.148,4.31-1.18,1.18-2.513,.75-2.175-.7s12.332-11.39 13.936-12.12c1.707-.78 .317-2.41 4.893-3.74 2.708-.79 1.435-4.76 8.198-6.24 6.293-1.37 2.113-4 9.74-5.12 4.079-.6 5.004-3.59 11.556-3.66 5.116-.06 9.212-1.26 9.471-1.47 1.147-.9-2.846-2.23-6.752-2.24-2.873-.01-4.471-.51-4.857-1.52-.401-1.04-2.029-1.5-5.347-1.5-3.02,0-5.227-.55-6.015-1.5-.685-.82-2.104-1.5-3.154-1.5s-2.159-.65-2.466-1.45c-.306-.8-2.092-1.96-3.968-2.58-2.309-.76-3.412-1.75-3.412-3.05 0-1.37-.699-1.92-2.429-1.92-2.677,0-5.916-2.63-5.021-4.08 .312-.51-.851-.92-2.585-.92-2.281,0-3.293-.54-3.661-1.94-.279-1.07-1.475-2.09-2.656-2.25-1.181-.17-2.558-1.24-3.06-2.38-.501-1.15-2.218-2.83-3.814-3.75-1.597-.91-2.664-2.05-2.37-2.52 .293-.48-.603-1.39-1.992-2.02s-2.275-1.55-1.97-2.05c.306-.49-.794-1.37-2.443-1.94-1.65-.58-2.999-1.71-2.999-2.51 0-.81-3.375-4.58-7.5-8.38s-7.5-7.18-7.5-7.5 3.712,.74 8.25,2.36c4.537,1.63 10.725,3.17 13.75,3.44 9.226,.82 9.809,.91 10.584,1.69 .412,.41 1.773,.75 3.024,.75s2.552,.45 2.892,1 1.857,1 3.37,1c1.514,0 3.688,.87 4.83,1.94 1.196,1.11 2.897,1.72 4.009,1.43 1.074-.29 2.508,.19 3.233,1.06 .717,.86 2.082,1.57 3.034,1.57 .953,0 2.946,1.12 4.429,2.5 1.484,1.38 3.397,2.5 4.252,2.5s2.891,1.12 4.525,2.5 3.992,2.5 5.24,2.5c1.247,0 3.083,.9 4.078,2s2.614,2 3.596,2 2.064,.45 2.404,1 1.379,.98 2.309,.96c.972-.03 .172-.85-1.88-1.94-3.869-2.04-6.555-4.73-5.644-5.64 .314-.31-.972-1.92-2.857-3.58-1.886-1.65-3.428-3.6-3.428-4.33s-1.378-2.4-3.063-3.72c-1.684-1.32-3.17-3.13-3.301-4.02-.131-.9-1.453-2.58-2.937-3.75-1.485-1.17-2.699-2.9-2.699-3.84s-1.35-2.51-3-3.48c-2.903-1.72-4.118-4.66-1.923-4.66 .592,0-.343-1.19-2.077-2.65-2.211-1.86-2.997-3.25-2.631-4.65 .358-1.37-.442-2.9-2.539-4.86-2.561-2.39-2.854-3.11-1.793-4.38 1.057-1.28 .798-2.02-1.562-4.49-1.556-1.62-2.537-3.241-2.18-3.598s-.463-1.972-1.823-3.588c-2.87-3.41-3.073-4.616-.918-5.443 1.352-.519 1.304-.873-.372-2.719-1.875-2.065-2.869-4.98-3.792-11.122-.835-5.556-1.334-8.982-1.821-12.5-1.263-9.12-1.8-11.838-3.206-16.237-2.729-8.533-1.098-8.754 3.455-.467 2.356,4.287 6.511,10.254 9.233,13.26s4.949,5.93 4.949,6.498c0,.569 .695,.901 1.545,.74 .865-.165 2.295,1.026 3.25,2.706 .938,1.65 1.842,3.212 2.009,3.471 .168,.259 .709-.184 1.204-.984 .694-1.123 1.251-.612 2.445,2.247 .851,2.036 1.547,4.166 1.547,4.734s.45,1.032 1,1.032 1-.528 1-1.174 1.125-.118 2.5,1.174c1.57,1.475 2.5,3.445 2.5,5.297 0,2.474 .235,2.753 1.463,1.734 1.219-1.012 1.761-.528 3.242,2.891 1.055,2.436 2.288,3.911 3.031,3.626 .805-.309 1.661,1.143 2.398,4.069 .699,2.773 1.439,4.073 1.898,3.333 .924-1.5 2.402,1.01 3.438,5.84 .551,2.56 1.1,3.16 2.494,2.72 1.878-.59 2.995,1.71 3.022,6.24 .01,1.53 .615,2.25 1.9,2.25 1.464,0 2.034,.99 2.544,4.38 .48,3.21 1.1,4.35 2.29,4.25 1.11-.09 1.98,1.16 2.71,3.9 .8,3.02 1.51,3.94 2.82,3.68 1.66-.34 2.27,2.25 2.01,8.57-.03,.78 .64,1.07 1.71,.73 1.47-.47 1.85,.21 2.28,4.01 .28,2.51 1.31,5.44 2.29,6.52 1.18,1.31 1.75,3.48 1.71,6.48-.05,3.46 .37,4.74 1.84,5.53 1.52,.81 1.91,2.13 1.91,6.43 0,2.97 .49,5.7 1.09,6.08 .6,.37 1.92,2.53 2.93,4.8 3.93,8.83 .5-7.35-3.63-17.14-1.64-3.88-1.78-5.58-.39-4.72 1.63,1.01 1.19-.43-2.5-8.2-1.92-4.06-3.5-7.58-3.5-7.84 0-.25 .86-.46 1.9-.46 1.86,0 1.86-.12 .13-4.75-3.37-8.99-3.4-9.25-.94-9.25 2,0 2.08-.18 .78-1.75-.93-1.12-5.46-9.04-1.94-8.75 1.24,.1 .38-4.55-.16-5.24-3.48-4.79 1.43-4.4-1.27-8.89-1.65-2.52-1.18-4.91 .74-3.72 .7,.43 .88,.1 .49-.91-.34-.88-.91-3.205-1.28-5.169-.6-3.179-.44-3.571 1.44-3.571 2.46,0 2.55-.602 .61-4-1.96-3.431-1.91-7 .11-7 1.59,0 1.52-1.881-.21-6.399-.36-.933 .01-1.823 .91-2.165 1.19-.458 1.32-1.252 .6-3.752-1.22-4.263-1.16-4.684 .65-4.684 1.29,0 1.44-.802 .88-4.562-.6-4.009-.45-4.623 1.28-5.076 1.71-.447 1.91-1.164 1.5-5.438-.37-3.819-.15-4.924 .95-4.924 1.04,0 1.32-.945 1.02-3.5-.32-2.719-.05-3.5 1.2-3.5 1.17,0 1.61-.946 1.61-3.45 0-1.898 .62-3.81 1.39-4.25 .76-.44 2.12-3.725 3.02-7.3 2.04-8.093 5.65-17 6.89-17 .51,0 .65,1.0125 .3,2.25-1.54,5.462-1.79,14.444-.58,20.877 .72,3.78 1.65,6.873 2.07,6.873s1.08,2.481 1.45,5.513c.38,3.032 1.1,5.768 1.61,6.078 .5,.311 .63,2.042 .3,3.847-.48,2.538-.24,3.43 1.07,3.933 1.33,.509 1.56,1.391 1.06,4.062-.37,1.981-.21,3.679 .39,4.05 1.13,.697 .36,5.252-1.23,7.267-.72,.917-.42,1.25 1.14,1.25 2.17,0 2.93,2.38 1.12,3.5-1.36,.84-1.27,4.5 .11,4.5 .61,0 .83,.717 .49,1.593-1.78,4.639-1.8,6.407-.1,6.407 1.45,0 1.61,.599 1.02,3.75-.38,2.062-1.18,4.335-1.77,5.051-.82,.985-.27,.848 1.09,1.866 .65,.493 .96,2.183 .41,3.223-.8,1.54-1.57,1.3-.45,3.13 1.02,1.66 1.06,2.88 .16,5.59-.76,2.31-2.04,4.24-.69,5.54 2.5,2.41 1.41,4.59-.53,7.28-1.08,1.49-.85,3.18 .11,3.57 2.25,.92 2.85,2.17 .76,3.91-1.75,1.45-2.62,6.92-1.18,7.41 .75,.26 .72,1.31-.09,3.52-.64,1.74-.76,3.16-.27,3.16s1.16-1.24 1.49-2.75c1.05-4.78 1.34-5.25 3.16-5.25 1.46,0 1.75-.78 1.6-4.37-.16-3.74 .16-4.53 2.23-5.47 2.05-.94 1.6-1.52 1.77-4.29 .17-2.59 .47-3.13 1.52-2.62 1.74,.85 1.66,.09 2.18-2.59 .68-3.54 1.93-5.34 2.93-4.22 1.92,2.15 1.96,.91 3.61-3.96 1.14-3.38 2.18-4.78 2.95-2.73 .51,1.34 1.13,.54 2.38-3.25 1.34-4.07 2.04-4.959 3.77-4.781 1.52,.157 2.47-.63 3.36-2.766 .99-2.396 1.51-2.757 2.63-1.827 1.63,1.35 1.61,1.365 3.3-2.876 .71-1.788 1.83-3.25 2.5-3.25 .66,0 2.94-1.752 5.07-3.894 2.13-2.141 4.37-3.701 4.99-3.465 .61,.236 1.94-.476 2.94-1.582 1-1.107 2.21-1.771 2.68-1.476 .48,.294 .87,.058 .87-.524s.4-1.059 .9-1.059c.92,0 8.36-4.977 16.06-10.75 7.41-5.547 8.21-4.051 1.58,2.945-4.99,5.27-9.07,12.385-8.66,15.115 .15,.995-.26,2.438-.89,3.206-.64,.768-.91,1.801-.61,2.295 .31,.494-.56,1.947-1.92,3.228-1.79,1.677-2.14,2.541-1.26,3.085 .87,.535 .44,1.369-1.44,2.853-1.47,1.153-2.43,2.713-2.14,3.473 .3,.79-.78,2.35-2.55,3.65-2.23,1.66-2.73,2.51-1.82,3.11 .91,.61 .44,1.5-1.75,3.31-1.71,1.4-2.88,3.25-2.72,4.27 .15,1-.83,2.85-2.18,4.12-1.35,1.26-2.23,2.9-1.95,3.62 .28,.73-.66,2.09-2.1,3.03-1.74,1.14-2.42,2.28-2.04,3.47 .4,1.27-.46,2.4-3.06,4-2.56,1.58-3.25,2.47-2.35,3.03 1.63,1.01-.44,3.74-3.81,5.02-1.31,.5-2.29,1.71-2.29,2.82 0,1.08-1.68,3.34-3.73,5.03s-3.17,3.07-2.5,3.07c2.28,0 1.21,1.49-3.23,4.47-3.29,2.2-4.16,3.28-3.39,4.21 1.69,2.04 .53,3.49-4.19,5.23-3.06,1.13-4.46,2.22-4.46,3.49 0,1.16-1.56,2.63-4.22,3.97-2.38,1.2-4.24,2.86-4.25,3.79-.02,.91-1.49,2.89-3.28,4.39s-3.86,3.6-4.61,4.67c-2.53,3.6 6.74-1.91 14.02-8.34 3.67-3.23 7.09-5.88 7.6-5.88s2.29-.55 2.74-2c.44-1.42 2.47-2 3.29-2 .81,0 3.72-.23 4.82-2.07 1.12-1.86 3.81-1.79 4.37-1.44 .56,.34 2.52,.43 3.24-.93 .7-1.32 3.19-1.56 4.38-1.56s2.95-.36 3.4-1.5c.4-1 2.29-1.5 3.56-1.5 1.28,0 2.57-.49 2.96-1.03 .93-1.3 2.06-.93 3.81-.82 1.74,.12 4.17-.29 5.35-.97 2.75-1.58 2.93-.88 3.85-.53s2,.11 2.41-.55c1.27-2.06 13.85-2.41 25.19-.7 5.84,.88 14.06,1.6 18.25,1.6 4.41,0 7.62,.42 7.62,1 0,.55-.85,1-1.88,1-1.04,0-5.48,1.8-9.88,4s-8.44,4-8.99,4-1.57,.68-2.25,1.5-1.93,1.5-2.76,1.5c-.84,0-2.07,.75-2.74,1.67-.73,.99-2.69,1.7-4.85,1.75-2.97,.07-3.52,.39-3.07,1.83 .46,1.46-.09,1.75-3.4,1.75-3.16,0-3.93,.35-3.82,1.75 .11,1.42-.54,1.69-3.51,1.43-3.02-.26-3.62,0-3.5,1.5 .13,1.55-.54,1.79-4.46,1.59-4.41-.22-3.81-.14-4.13,2.25-.28,2.15-1.38,1.54-4.52,1.25-3.16-.29-3.52-1.02-4.38,.52-.8,1.42-1.83,1.64-5.42,1.15-3.78-.52-4.35-.37-3.83,.98 .5,1.3-.21,1.58-4,1.58-2.61,0-4.61,.46-4.61,1.07 0,.72-1.83,.85-5.5,.39-4.03-.51-5.5-.36-5.5,.53 0,.82-1.42,1.1-4.4,.86-2.43-.19-4.2-.01-3.95,.4 .26,.41 3.25,.75 6.66,.75 7.85,0 22.93,2.07 22.69,3.13-.55,2.37 5.55,3.87 8.04,3.87 1.27,0 2.96,.78 2.64,1.89-.64,2.28 1.69,2.28 3.43,2.48 6.26,.72 6.16,2.47 7.89,4.8 .9,1.23 2.32,2.26 3.92,2.79 1.23,.41 2.08,1.58 2.08,2.15 0,1.04 4.7,5.72 11.44,11.38 3.79,3.18 4.71,5.21 1.81,3.98-5.54-2.35-9.71-3.46-14.75-3.95-3.11-.31-6.91-1.2-8.43-1.99-1.82-.94-3.11-1.09-3.76-.44s-1.94,.62-3.77-.07c-2.01-.77-3.16-.75-4.16,.08-1.05,.87-2.02,.71-4.12-.7-1.52-1.01-3.32-1.72-4-1.58-.68,.15-2.25-.32-3.5-1.02-1.24-.71-2.71-1.33-3.26-1.38-1.71-.15-6.9-2.72-9-4.46-2.49-2.07-5.5-3.18-5.5-2.04 0,.48 .68,1.13 1.52,1.45 .83,.32 1.94,1.72 2.47,3.1 .53,1.39 1.44,2.53 2.03,2.53s.98,.56 .87,1.25 .04,1.93 .34,2.75c2.53,6.99 3.63,16 1.96,16-.45,0-1.54-1.52-2.43-3.37-1.56-3.29-9.48-10.63-11.46-10.63-.54,0-1.8-.9-2.8-2s-2.29-2-2.87-2c-.59,0-1.98-1.06-3.1-2.36-1.12-1.31-2.42-2.32-2.89-2.25-.47,.06-1.59-1.28-2.5-2.98-.9-1.69-2.74-5.18-4.09-7.75-2.86-5.44-4.34-6.01-3.65-1.41 .26,1.79 .95,7.3 1.53,12.25 1.97,16.93 3.09,25 4.56,33 1.92,10.47 1.92,10.5-.99,10.5-1.38,0-2.5-.56-2.51-1.25zm-35.54-69.67c.31-.5-1.53-.91-4.117-.91-3.166,0-4.22,.29-3.257,.9 1.86,1.18 6.644,1.19 7.374,.01zm16.25-8.48c-6.6-6.78-8.59-8.13-6.69-4.57 .6,1.11 1.5,1.77 2,1.47 .5-.31 1.58,.75 2.41,2.35s2.93,4.11 4.67,5.57c5.6,4.71 4.24,1.97-2.39-4.82zm21.47-9.1c.57-2.75 1.45-5.43 1.94-5.95s.89-2.78 .89-5.03c0-2.24 .7-5.08 1.56-6.3 .85-1.22 1.19-2.21 .75-2.21-.45,.01-1.79,1.53-2.99,3.38-1.54,2.39-1.86,3.67-1.1,4.43s.34,2.6-1.46,6.37c-1.39,2.92-2.83,7.33-3.19,9.81-.37,2.48-.9,5.62-1.19,7-.28,1.38 .44,.48 1.62-2 1.17-2.48 2.6-6.75 3.17-9.5z"/>
</svg>
