<svg xmlns="http://www.w3.org/2000/svg" viewBox="0 0 57 57">
<g fill-rule="evenodd">
<g transform="translate(-187.8205 -55.5257)">
<path d="m218.46,85.311c6.85-1.43 10.77-4.029 11.24-6.386-.49-3.115-7.43-1.014-6.21-9.61 .88-6.213 4.52-1.7 8.1,.058 .36-2.443-14.52-8.872-7.31-13.039 13.73-3.371 13.04,4.434 14.44,11.532 .19-2.332 1.04-3.623 .25-6.047 3.53,2.186 5.13,2.245 5.97,6.757 1.55,8.217-13.78,17.92-26.48,16.735z"/>
<path fill="#fff" d="m228.31,82.485c5.55-1.826 15.08-13.869 .24-23.878 17.76,9.172 5.81,22.938-.24,23.878z"/>
</g>
<g transform="matrix(.72005 .69392 -.69392 .72005 -79.63149 4.18294)">
<path d="m218.46,85.311c6.85-1.43 10.77-4.029 11.24-6.386-.49-3.115-7.43-1.014-6.21-9.61 .88-6.213 4.52-1.7 8.1,.058 .36-2.443-14.52-8.872-7.31-13.039 13.73-3.371 13.04,4.434 14.44,11.532 .19-2.332 1.04-3.623 .25-6.047 3.53,2.186 5.13,2.245 5.97,6.757 1.55,8.217-13.78,17.92-26.48,16.735z"/>
<path fill="#fff" d="m228.31,82.485c5.55-1.826 15.08-13.869 .24-23.878 17.76,9.172 5.81,22.938-.24,23.878z"/>
</g>
</g>
</svg>
