<svg xmlns="http://www.w3.org/2000/svg" viewBox="0 0 500 500">
<path fill="#3b6200" d="m233.21,492.23c.78-20.48 18.02-40.17 18.18-62.6 .94-20.38-16.53-47.55-39.34-39.65-24.02,2.73-45.06,12.33-69.74,11.71-10.29-1.66-22.94,4.83-31.74-1.64 1.62-20.8-35.624-11.94-35.912-31.97 17.307-12.17-19.477-13.56-14.234-29.48-8.065-11.8-45.663-25.29-15.336-32.26 9.711-8.77 47.018-9.91 21.222-25.57-1-11.95-4.609-22.39-15.67-31.88 14.828-7.95 4.574-27.7 5.567-43.26-7.894-16.74-.645-23.97 16.666-18.3 8.58,4.25 11.686-8.84 19.654-4.67 14.493,4.57 19.233-16.07 33.533-2.58-4.32-13.17-19.31-45.18 9.34-33.72 17.68-1.83-14.22-44.47 13.63-34.27 27.15-.98-6.64-50.187 24.52-43.409 6.74-20.046 25.05-34.793 27.84-58.304 6.11-17.943 21.74,17.604 32.04,20.743 6.9,22.643 37.06,20.109 41.02,42.699 17.16-1.932 7.26,29.491 26.61,17.267 24.79-11.135-9.23,46.944 23.01,33.134 13.43,3.12-12.41,44.71 6.51,23.98 4.27-15.2 12.72-13.73 21.87-3.7 19.04-14.22 43.1-4.95 63.76-16.47 5.18,1.82 .34,26.86 5.36,36.58 3.5,12.11 10.16,20.46-.01,33.57 2.21,9.39 22.97,8.38 7.98,21.07-14.84,14.95-14.94,33.57-23.44,49.74 20.42,2.7 40.23,8.41 60.45,13.7-1.94,9.57-27.18,22.61-29.08,38.57-13.91,5.84 6.55,22.74-14.19,24.88-22.12,4.32 17.04,27.45-11.84,27.33-19.41,2.53-29.32,26-50.02,19.64-20.76-10.97-40.55,2.4-59.05-10.25-27.51-10.48-42.79,14.34-46.58,38.8-3.35,22.64-10.89,44.86-10.48,67.91-.75,5.68-8.88,6.66-12.1,2.66z"/>
</svg>
