<svg xmlns="http://www.w3.org/2000/svg" viewBox="0 0 621 600" xmlns:xlink="http://www.w3.org/1999/xlink">
<path fill="#fdfcfa" d="m0,0v600h621v-600h-621z"/>
<path fill="#efde98" d="m283,36v1l45,1c-11.92-5.73-31.95-2-45-2z"/>
<path fill="#edc637" d="m155,251c6.81-2.74 3.12-12.16 3-18h-1v4l-7-2v-5c-9.04-.7-6.4-9.34-13-13l1,6c-12.17-1.83-15.82-12.95-20-23 8.17,.32 4.64-17.99 5-24l3,1v-5c-12.15,3.58-2-22.71-2-28h2l1,8h1l1-21c7.5-1.6 4.6-8.04 9.32-12.16 2.35-2.06 6.32-1.89 7.61-5.08 2.97-7.38 .74-18.679 13.07-17.76l8-11 1,4 4-3h-2l2-8h2c.95,4.355-.92,9.352 4,11l-1-3c2.13-.583 9.89-2.735 4-4l2-2v-1l-9-3 9-1c2.57-8.262 10.56-4.845 16.7-7.738 2.72-1.279 5.28-5.055 7.3-7.262l6,2c3.46-7.89 19.69-13.222 28-14.428 4.79-.695 9.74,2.046 13-2.572h23l-2,3 51,1-1,3h13v-2l-7-3 35,8c-.48,3.046-.18,4.073 3,4l-5,2v1c9.85,1.484 22.63,17.249 20,27l3,3-8-4 3-6-6-1-4,8c4.13,2.413 9.21,14.09 10,19l-10-10 2,9-8-3 4.47,9.02-5.47,16.98h1l1-2c1.65,2.43 8.29-6.08 8.58-8.92 .23-2.19-1.42-4.75-1.58-7.08l6.63,6.02-3.67,9.98 3.89,15.98 10.48,15.75 6.19,6.27-10.52,9 1-4c-8.6-1.34-11.56-12.2-21-12.76-4.74-.27-8.62,3.32-12,6.2-12.33,10.51-13.96,28.23-14,43.56-5.43,1.9-6.46,12.31-10,17-4.96,6.58-10.06,13.25-17,17.9-7.08,4.73-16.63,7.37-21,15.1l20-2-10.61,31 .61,25c-4.7,.6-1.4,5.84-.55,9 2.01,7.53 3.63,16.27 4.55,24l-3-1c2.11,8.16 6.55,15.28 3,24 2.21,3.09 4.3,5.54 2,9l5,16h-1l9.54,21.66 10.46,8.34-7-5c-1.39,7.38 9.99,16.57 17,16 1.91,12.37 17.23,14.37 25.91,20.21 4.18,2.82 6.23,6.84 11.09,8.79l-2,5h9l-1,4c3.4,1.26 10.37,.7 11,5l25-2c-3.06,4.99-8.72,4.02-14,5v1c7.07,.9 20.19,2.42 24,9h5l1-5-16-5 16-1 2-7-6,1 13.39-8.75 2.81-8.96 12.8-15.29h1l-6,13c10.8-3.89 15.4-16.85 28-17 2.68-6.76 15-13.26 22-15l-7,6v4l20-15h-9l11-14h1l-4,9 10-4h-4l12-9-2,5 8-1c1.86-3.7 3.91-4.69 8-5v-3l-8-2c3.29-10.94 19.18-8.71 26.7-13.99 2.71-1.91 3.1-5.94 4.59-8.73 5.74-10.76 7.74-19.32 7.71-31.28h1l1,14h2c0-11.8 .02-20.23-5-31l-2,1h-1c4.99-11.78-6.68-16.71-5-27l-8-16-1-3c-3.57-4.13-4.11-11.89-7.75-17-12.59-17.68-28.07-34.39-44.25-48.83-16.6-14.81-43.49-22.66-57-40.17l4-12c4.88,.63 6.63-1.2 7-6 12.12-2.1-.88-23.7-4.37-29-4.33-6.58-6.63-14.55-11.18-21-11.37-16.13-32.8-33.525-49.45-43.935-21.94-13.715-43.94-16.383-69-19.351-63.65-7.534-132.11,7.805-181,51.46-9.6,8.57-20.28,18.406-26.48,29.826-5.23,9.62-7.4,20.58-13.4,30-6.37,10.01-16.614,19.35-27.12,24.88-13.675,7.19-38.742,8.38-30.612,31.12 6.112,17.1 32.049,22.41 46.612,30.31 4.8,2.6 10.58,8.49 16,9.2 10.14,1.33 31.47-6.46 38,5.49z"/>
<path fill="#efde98" d="m331,38v1h5l-5-1m-71,1v1h7l-7-1m87,1v1h5l-5-1m14,2v1h4l-4-1m-107,3c-4.19,3.918-7.87,1.745-13,2.344-7.88,.922-25.79,6.592-28,14.656l-6-2c-2.65,2.095-5.09,5.944-8.14,7.262-5.89,2.545-14.41-.726-15.86,7.738l-9,1c2.76,3.102 4.93,3.534 9,3v1l-2,2 3,1v1c-3.39,.927-6.07,1.154-6,5l-4-11h-2l-2,8h2l-4,3-1-4c-4.93,1.552-6.34,6.434-8,11-12.7-2.336-10.3,10.67-13.48,17.73-1.42,3.13-5.7,2.68-7.92,5.08-4.07,4.38-1.83,9.76-8.6,12.19l-1,21h-1l-1-8h-2c-.02,4.34-10.27,33.98 2,28v5l-3-1c-.71,5.89 3.1,23.83-5,24 3.02,10.48 7.86,21.93 20,23l-1-6c5.76,4.87 3.99,12.7 13,13v5l7,2c4.33-34.06 28.04-62.51 49.24-88 6.78-8.15 25.95-35.94 32.76-12l7.02,5.44 26.98-2.44c2.39-8 12.2-1.14 18-1l-2-10 7,3-10-13 10,2v-1l-27-19 22,4 1,5-12-4v4c8.14,1.45 13.63,7.31 21,10.34 2.2,.9 5.54-.05 7.36,1.47 5.49,4.58 2.4,10.97 12.64,9.19l-3-8 8,3v4c7.38-.15 14.57-1.42 22-.91 4.32,.3 9.66,2.07 13.87,.31 4.47-1.87 9.69-12.64 8.77-17.36-.58-2.98-3.32-5.36-4.64-8.04l8,3-2-9 10,10c-.44-4.81-5.59-17.449-10-19l4-8 6,1-3,6 8,4-3-3c3.68-9.909-9.87-26.108-20-27v-1l5-2-3,1v-5c-10.39-4.613-23.68-7.969-35-8l7,3v2h-13l1-3-17,1.789-14-2.271-20-.518 2-3h-23m122.67,.333l.66,.334-.66-.334z"/>
<path fill="#fdfcfa" d="m295,94c1.82,4.353 4.44,6.01 9,7-.84-4.966-4.22-6.668-9-7m12,4l4,4v-4h-4m-38,3c2.61,4.25 7.05,7.26 12,8l-1-3 12,4-1-5-22-4z"/>
<path fill="#efde98" d="m453.33,105.67l.34,.66-.34-.66z"/>
<path fill="#edc637" d="m277,109v1l7,1v-1l-7-1z"/>
<path fill="#349114" d="m283,111v1l26,22-53,15v1l22-4c-5.36,5.87-12.41,10.09-17.91,16-17.15,18.41-31.78,42.9-30,69 .96,14.06 7.9,25.37 9.91,39l7-1-2,3 7,7 4-4-1,12h8l28.02-28.9 32.89-23.1 11.01-15 6.08-12c.11-13.33 1.45-29.92 11.09-39.96 8.03-8.36 25.99-13.92 27.09-27.04 1.21-14.3-6.39-8.33-15.18-9.43-11.34-1.42-22.53-2.03-34-1.53-4.55,.2-10.63,2.52-15,.76-11.68-4.7-18.56-17.4-32-19.8m91,1c.28,4.15 1.32,8.12 6,8v-6l-6-2z"/>
<path fill="#57462a" d="m379,115l1,5h1v-5h-2z"/>
<path fill="#349114" d="m381,116v3h1l-1-3z"/>
<path fill="#fdfcfa" d="m320,117l5,4-5-4z"/>
<path fill="#efde98" d="m371,117v6h1c1.23-2.89 1.67-4.16-1-6z"/>
<path fill="#b27e0e" d="m460,118c2.05,6.9 20.52,29.73 7,34-.7,4.43-2.53,5.93-7,6l-4,12c5.11,10 16.63,13.39 20.12,1 3.91-13.83-1.61-26.01-5.78-39-2-6.25-2.7-13.41-10.34-14z"/>
<path fill="#fdfcfa" d="m286,119l10,13-7-3 2,10 7-2 2-5-2-10-12-3m18,2v2l6,3c-.34-4.37-1.58-5.74-6-5z"/>
<path fill="#57462a" d="m375,120l-5,10c6.1-.53 8.67-4.19 10-10h-5z"/>
<path fill="#fdfcfa" d="m272,121c2.65,8.19 6,9.54 14,11-.1-8.33-6.46-10-14-11z"/>
<path fill="#efde98" d="m298,123l2,9-2,5 11-3-11-11z"/>
<path fill="#fdfcfa" d="m318,123l3,8 5-1v-4l-5-3h-3z"/>
<path fill="#edc637" d="m260,125v1l17,8c-4.23-5.11-10.49-8.02-17-9z"/>
<path fill="#b27e0e" d="m370,125l-3,3h-1v2h-9v1h15l-2-2 3-4h-3z"/>
<path fill="#349114" d="m188,174l22-12v1c-1.75,.32-7.58,1.44-4,3v1l-8,6v6l3,1 4-2-4,7 33-26h-4l14-5v-1h-3v-1l33-10v-1l-25,4c-6.68,6.91-11.2-.88-14-7l3-1v-5c-2.83-2.08-6.19-6.07-10.09-5.36-5.74,1.04-10.53,7.08-13.89,11.36-8.66,11.01-21.72,22.42-26.02,36z"/>
<path fill="#edc637" d="m469.33,128.67l.34,.66-.34-.66z"/>
<path fill="#b27e0e" d="m332,129v1h20l-20-1z"/>
<path fill="#edc637" d="m323,130v1h3l-3-1m147.33,1.67l.34,.66-.34-.66m-232.33,1.33v4l-3,1c1.79,5.74 8.73,16.12 14,7l25-4v1l-21,7v1l40-10v-1c-6.3-.06-18.26-8.24-20,1l-26.98,2-7.02-5-1-4z"/>
<path fill="#b27e0e" d="m379,133v6h1l-1-6z"/>
<path fill="#edc637" d="m471.33,134.67l.34,.66-.34-.66z"/>
<path fill="#b27e0e" d="m299.67,136.33l.66,.34-.66-.34z"/>
<path fill="#edc637" d="m472.33,137.67l.34,.66-.34-.66z"/>
<path fill="#b27e0e" d="m294.67,138.33l.66,.34-.66-.34z"/>
<path fill="#efde98" d="m473.33,140.67l.34,.66-.34-.66z"/>
<path fill="#57462a" d="m379,142l-12,15c9.22,7.17 18.61,16.13 30,9l-18-24z"/>
<path fill="#fdfcfa" d="m178,153l4-7c-3.69,1.22-3.88,3.31-4,7z"/>
<path fill="#b27e0e" d="m275,146v1l3,1-3-2z"/>
<path fill="#edc637" d="m271,147v1h4l-4-1z"/>
<path fill="#efde98" d="m165,242h5v-9h2c3.92,5.8 13.04,10.83 20,11v-4l6,1v-4l29-4v5h1c2.74-21.67 5.23-40.72 18.61-59 8.84-12.08 21.17-20.67 30.39-32-42,7.8-70.85,27.27-94.67,63-6.26,9.4-15.56,20.62-17.33,32z"/>
<path fill="#b27e0e" d="m241,152v1h3v1l-14,5 29-8-18,1z"/>
<path fill="#edc637" d="m230,154v1l9-1h-9z"/>
<path fill="#b27e0e" d="m368,156l4-3-4,3m-2.33,1.33l.66,.34-.66-.34z"/>
<path fill="#efde98" d="m478,158v4h1l-1-4z"/>
<path fill="#57462a" d="m159,241h2l14.47-25.58 29.53-37.42-4,2-3-1v-6l8-6v-1l-2-1 6-2c-6.99-2.42-15.85,6.05-20.98,10-15.91,12.26-36.16,47.24-30.02,68z"/>
<path fill="#edc637" d="m477,162v7h1l-1-7z"/>
<path fill="#349114" d="m397,163l-5,8c4.18-1.27 7.75-3.52 5-8z"/>
<path fill="#b27e0e" d="m374,172l6,2-1-7-5,5z"/>
<path fill="#349114" d="m381,168l9,3-9-3z"/>
<path fill="#efde98" d="m71,181v1l2,1-10,2c-1.67,4.69-1.324,15.89 4.228,18.4 5.814,2.62 13.314,.46 18.772,4.6h2c4.295-3.24 8.496-.84 13,1l5-11-3-1v-11h1v4h5v-1c-5.14-5.3-5.88-13.03-5-20l-9.17,5.59-23.83,6.41z"/>
<path fill="#b27e0e" d="m387,175l7-3c-3.58-2.2-5.44-.53-7,3z"/>
<path fill="#edc637" d="m475.33,172.67l.34,.66-.34-.66z"/>
<path fill="#efde98" d="m428,173l3,3-3-3m-12,11v6l5-1-5-5m9,9v3h5l-5-3m-12,1l11,5c-2.5-4.39-6.22-4.95-11-5z"/>
<path fill="#b27e0e" d="m361,200l-7-2-4,9-3-2 1,4-6,14 3-1c-1.62,3.19-5.11,7.9 0,9v1l-6,6 3-3 6-2-2,5-9,6v-2c-7.89,4.36-8.98,11.66-7,20h-2l-1,10 15,1-2,4c3.92,1.54 8.12,5.74 10,0h-4l14-10-5,2 1-6 3,1 17-32h-5l10-31-4-3-2-1c-5.75-.42-11.2-4.32-14,3z"/>
<path fill="#efde98" d="m413,200l1,4 9,1c-1.58-4.61-5.56-4.9-10-5z"/>
<path fill="#349114" d="m186,201c-5.52,7.45-12.6,13.43-13,23h1l14-23h-2z"/>
<path fill="#edc637" d="m233,203l-2,8c2.91-2.06 3.33-4.74 2-8z"/>
<path fill="#efde98" d="m404,205l3,4v-4h-3z"/>
<path fill="#b27e0e" d="m165.33,207.67l.34,.66-.34-.66m-1,3l.34,.66-.34-.66z"/>
<path fill="#efde98" d="m403,217c-5.98,.07-9.36,2-11,8h1c3.01-3.04 5.68-4.52 10-4l5-6 4,1c-3.36-4.01-7.31-4.55-9,1m38-5l3,3-1-3h-2z"/>
<path fill="#edc637" d="m230,213v9h1l-1-9z"/>
<path fill="#efde98" d="m72.667,222.33l.666,.34-.666-.34z"/>
<path fill="#b27e0e" d="m159,223v3h1l-1-3z"/>
<path fill="#efde98" d="m416,223v4l6-4h-6z"/>
<path fill="#349114" d="m171,224c-6.49,9.66-12,17.27-12,29h1l13-29h-2z"/>
<path fill="#edc637" d="m229,224l-1,14h-1v-5l-29,4v4l-6-1v4c-7.16-.39-15.04-6-20-11h-2v9l-6-1c-4.88,11.03 3.95,12.56 12,18.54 9.39,6.98 22.07,17.22 24,29.46h3c.91,11.88 13.53,22.92 16.54,35 11.42,45.68 15.06,88.24 2.16,134-3.46,12.26-8.61,22.01-14.86,33.02-2.48,4.37-4.46,10.34-8.84,12.98l-8,16c13.61-4.02 17.51-21.41 24.56-31.72 4.08-5.98 10.75-11.49 10.44-19.28 6.28-3.43 5.49-9.88 6.41-16 1.76-11.66 5.04-25.2 9.39-36 1.61-4 9.02-13.61 5.2-17v-2c5.67-3.58 6.43-16.27 2-21v-1l3-5-4,1 5-4 5-11-.46-44-.54-15h-4c-4.21,11.44-8.99,26.32-19,34l8-36c4.15-.71 4.85-4.26 8.48-5.68 5.33-2.08 9.13,.92 12.52-5.32l-7,2 1-12-4,4-7-7 2-3-7,1-8.54-27-2.46-19z"/>
<path fill="#efde98" d="m78.667,225.33l.666,.34-.666-.34m334.33,3.67l-9,7 9-1-10,9 22-6-9-6 5,2c-1.33-3.82-4.2-4.43-8-5m-15,8l3-3-3,3m49-1l3,3-1-3h-2m-333,9c-8.74,9.02-22.17,14.36-32,22.46-20.259,16.71-37.23,44.79-38,71.54l-2-2h-1l3,6 3-1c0-17.54 9.195-30.35 15.547-46 2.185-5.39 5.893-15.21 12.453-16 7.496-9 21.312-12.1 25-23h7v-3l17-4v-3l31,4c-1.66-5.05-6.39-4.6-11-5.46-10.24-1.92-20.19,1-30-.54m303-1c2.08,3.66 4.91,4.58 9,5l-9-5z"/>
<path fill="#fdfcfa" d="m124,247v3l-17,4v3h-7l-25,23c-7.113,.32-10.453,10.35-12.873,16-6.705,15.65-15.127,28.42-15.127,46l-3-1c-8.588,15.59-7.461,36.97-6.093,54 .959,11.95-.597,24.1 1.352,36 2.688,16.41 8.53,32.68 10.741,49h5l3,14c4.534,2.2 9.075,13.72 12.942,13.65 4.062-.07 1.702-5.49 .614-7.21-4.369-6.9-3.365-11.94-5.6-19.44-1.36-4.56-4.268-8.26-4.956-13-8.864-2.38-11.668-20.86-13.456-29-2.776-12.64-.256-22.47-.638-34.96-.11-3.6-2.42-6.48-2.798-10.04-1.66-15.64-.22-46.29 14.892-55-.122-10.95-3.151-20.73 4.263-30.7 2.626-3.53 7.017-5.07 9.618-8.56 6.861-9.22 9.091-15.47 22.119-15.74 3.164-13.32 27.75-32.17 41.87-23.06 3.98,2.56 5.29,7.98 7.13,12.06 11.1-7.23 14-9.5 14-23l-34-3z"/>
<path fill="#efde98" d="m402,252l3-2 2,2h1l2-4c-4.05-.75-6.09,.36-8,4m54-5v3h3v-3h-3z"/>
<path fill="#b27e0e" d="m158,250c0,14.25-.36,28.26 4,42h1l-3.82-29-1.18-13z"/>
<path fill="#efde98" d="m161,250l-1,3c7.2,1.36 13.13,11.46 15,18l-15-5v-9h-1c.01,15.92 22.79,18.3 28,34l-2-1 1,11 5,1v-11l5-1c1.12,7.63 8.87,9.8 12.74,16.09 2.76,4.5 2.7,10.16 8.26,11.91l1,12h2c-.06-16.29-14.74-26.37-17-41h-3c-1.35-17.32-25.01-32.34-39-39m253,0c-.56,3.53-1.36,4.84-5,5l4-4-10,8 9-1-9,8 5-2 1,4c-7.53,2.44-5.26,7.52-4,14l-4,1 1-7-5,1-3,10c5.39,.24 11.18,.98 15,5l-3-1c.75,6.36-1.15,12.49 6,15 5.15-4.11 16.95-2.23 15-11l-8,3 23-10-4,1v-3c11.93,1.78 5.39-8.82 11-14l-1-6 6,8 4-4-18-15 3,7-17.08-6.28-10.92,1.28 4-3-5-4m11,4l6-4-6,4m14-4v3l18,8c-2.74-8.5-9.7-10.83-18-11z"/>
<path fill="#fdfcfa" d="m161,252l-1,14 15,5c-1.41-7.94-7.31-14.7-14-19z"/>
<path fill="#efde98" d="m433,253l4,4v-4h-4z"/>
<path fill="#b27e0e" d="m256,298l1,59-5,11-5,4 4-1-3,5v1c3.94,6.04 3.33,15.92-2,21v2c2.75,4.65-3.97,12.39-5.58,17.09-3.74,10.94-6.22,22.53-8.82,33.91-1.58,6.89-.56,13.02-6.6,18-.18,8.33-8.04,13.24-11.46,20.16-17.48,35.32-46.32,51.95-83.54,60.84v1c22.64-.97 39.81-14.46 61-19 4.31-8.84 16.18-12.37 23.96-17.69 5.76-3.95 10.58-9.5 17.04-12.31l25-37 4,1c3.57-13.71 22.5-22.57 23-38l6-4 5,1c4.66-6.87 3.07-12.22 4.32-20 3.56-22 2.5-51.52-7.1-72-4.64-9.9-10.03-19.24-16.6-28-1.55-2.08-6.36-6.54-4.7-9.44 2.98-5.22 19.88-1.56 25.08-1.56v-4h5c-.46,9.03-3.76,17.88-3.98,27-1.03,41.69 8.46,89.64 31.45,124.96 9.42,14.48 22.85,27.4 34.53,40.04h1l23,9c4.16,7.02 14.68,6.98 22,7 .96,5.71 8.66,12.01 14,8l16,10c8.04-1.49 31.07,4.79 33-7l9,1-5,2-1,5 11,1v-4l5-4-7,2 5-3 16-13c9.77-2.66 18.82-9.21 22-19h-1l-3,2 7-10-2,4c4.84,.72 10.11,6.04 14,1h-4v-3l7-2c11.12,.64 19.67-13.28 28-19l-2,4 5-3 2,1 1,6c7.92-7.91 9.09-22.58 11.73-33 9.32-36.84 5.13-81.01-9.13-116-4.06-9.97-9.46-31.01-18.6-37l2,4 1,3 8,16c-2.55,9.7 8.58,15.53 5,27l3-1 5,31h-2l-1-14h-1c.01,11-3.07,31.59-12.3,39.41-6.88,5.82-24.79,3.04-26.7,14.59l8,2v3c-4.26,.14-6.7,.71-8,5l-8,1 2-5-12,9h4l-10,4 4-9h-1l-11,14h9l-20,15v-4l7-6c-7.08,1.01-20.27,7.87-22,15-12.76,.04-17.63,11.69-28,17l6-13h-1l-13.46,15.29-2.18,8.24-13.36,9.47 6-1-2,7-16,1c2.61,4.03 11.31,4.7 16,5l-1,5h-5c-2.4-6.9-17.47-8.48-24-9v-1c5.04-.64 11.87,.29 14-5l-25,2c-.55-4.42-7.22-4.03-11-5l1-4-2,2-7-2 2-5c-4.34-2.55-6.9-6.75-11.09-9.37-9-5.6-22.6-7.86-25.91-19.63-6.91,.22-17.27-9-17-16l7,5-10.44-9.22-9.56-20.78h1l1,2-6-18c3.3-2.94 .53-6.39-2-9 4.77-6.85-.23-17.41-3-24l3,1c-.2-7.53-2.21-17.73-4.33-25-.75-2.57-4.49-8 .33-8l-.61-24 10.61-32h-19c-7.76,3.25-12.73,11.82-18.12,18-5.54,6.37-11.55,10.02-17.86,15.32-2.4,2.01-7.4,7.99-2.02,8.68z"/>
<path fill="#edc637" d="m121,304h1l-6-24c2.32,1.39 2.37,3.13 3,0h1l4,16h2c2.01-8.04 .24-19.14-2-27 8.88,7.39 3.17,20.32 4.19,30 .62,5.9 4.31,8.62 2.81,15 3.32-1.1 3.74-2.59 4-6h1l-1,12h1l2-16 5,4h1v-7l-8,2 2-19h2v5c5.44-7.17 2.01-24.67-6.19-29.01-10.33-5.47-19.17,2.85-20.39,12.01-.42,3.17-.83,6.75-.12,9.91 1.63,7.28 5.39,14.87 7.7,22.09m296-45l-2,5 6-5h-4z"/>
<path fill="#efde98" d="m135,260c5.21,10.26 8.78,17.34 6,29h-1v-5h-2l-2,19 8-2v7h-1l-5-4-2,16h-1l1-12h-1l-4,6-2-23h-1l-2,5h-2l-4-16h-1l-1,2-2-2 6,24h-1l-5-19h-1v5h-2l2-27c-9.61,4.53-18.308,9.71-20,21-13.838,.12-15.221,6.3-22.761,15.74-2.716,3.4-7.155,4.86-9.587,8.56-6.799,10.36-3.974,19.64-3.652,30.7-9.479,3.32-8.356,12.37-11.514,19.91-6.35,15.16-1.587,29.94-.708,45.13 .677,11.7-3.774,22.15 .222,33.96 4.502-5.62 2.995-25.17 3-33h4c-.799-6.76-9.13-21.68-3-25l-1-21c5.752-1.23 8-9.79 8-15 9.328,1.7 8.367-1.93 13-8l-2-8h1l7,8c-1.317-4.38-3.483-8.51-8-10v-1l4-1c1.604,2.51 2.502,2.58 5,1l6,14-4-3 2,10 4-3 9,13h-2v-4l-3,1 5,11-6-2c1.649,3.02 23.44,22.22 9.024,19.12-1.7-.37-3.304-.83-5.024-1.12l14,9v-2h6c1.56,12.75-6.64,5.56-12,13 12.31,0 15.54-1.37 15-14h1l7,4v-7l10,9v2l-14,13v1l9,2-6,4-7,38 11-10 3,7 4,17h1l-2-18h2l2,26-4-2 3,9 3,2h1l1-3h1l2,6h1c-.01-11.98-7.23-26.07-2-38l1,4 7-8v-1l-3-3 12,5-10-11 1-4c14.48,11.03 39.24,31.21 42,50l-8-3-2,4c1.4,3.66 3.17,4.56 7,5l-4,12c-3.56-3.45-5.38-7.01-5-12l-3,1 1,14-6-4 2,7-4-4h-1l6,10-6-2 2,3-2,3-4-4h-1l1,5-4-9h-1c.98,5.29 1.59,9.89-5,10l-1,5h-2l-7-7-2,12-3-1c-9.14,10.2-30.15,7.18-34-7l-8,4c-1.722-4.28-4.774-3.98-9-4l-2-14h-6v-6l-13-7 7-12-4,1v-8c-8.575-1.2-13.898-14.35-13-22l-3-9-8-1c.021,7.74 4.662,26.64 13,28 .424,5.85 4.265,10.3 5.482,16 .872,4.08-.242,8.59 1.742,12.38 1.176,2.25 7.128,8.07 3.538,10.56-2.709,1.88-9.162-10.72-10.762-12.94h-1l10,22-9-11-4,2v2l7.569,12.9 17.431,12.1 4-1-16-17h5v4l13,8v4l4,2c9.71,.93 19.03,9.31 29,10.87 12.34,1.94 24.25-2.99 36-6.64 3.92-1.21 7.96,.26 11.72-1.13 12.71-4.68 27.11-19.14 29.28-33.1 5.32-1.93 7.69-10.25 10.45-14.91 8.54-14.4 13.47-28.85 17.55-45.09l-7.78,16.73-8.24,18.21-7.12,6.63-6.86,14.43-.43-18.83 9.66-11.09 10.09-23.08 6.64-39-2.87-20-.09-36h-1c0,13.55 .23,24.24-7,36l5,1 2,25h-3l-2,7-5-8c4.63,13.9 7.38,21.89 2.14,36-1.23,3.29-2.6,10.13-7.07,10.25-4.4,.11-5.97-6.85-10.07-8.25l5,13c-11.69-2.68-16.32-8.52-20-20-4.9-.1-7.4-2.45-9-7l5,2-2-11c4.84-.61 6.99,1.44 10,5v-4h3l-15-18h3v-3c-4.43-1.39-5.34-4.65-6-9h-30c1.92-6.28 6.89-3.29 12-3.04 10.72,.52 21.38-3.59 32-4.96l-5-10c7.03-1.52-3.8-6.11-8-5l8-4v-3h-8c3.72-3.54 5.83-5.75 6-11l-5,2v-7h-1l-6,10-2-11 1-14-4,1c-1.26-7.3-8.55-8.42-14-5-.09-3.82-.12-6.63-4-8l2-8c4.72-1.5 6.72-5.43 8-10-7.12-4.28-.07-21.39-4-29 5.74-.26 6.44-8.51 9-13l-10,7c-1.74-5.32-3.18-11.26-9-13m338,2l3,4-1-4h-2m-74,2v3h2v-3h-2z"/>
<path fill="#edc637" d="m157,265l-12,14c2.69,6.57-2.71,27.03 4,29l-8,10-2,8 4,8c5.77-2.52 11.83-1.96 14,5l4-1-1,14 2,11 6-10h1v7l5-2-6,11h8v3c-3.82,.09-6.63,.12-8,4 2.77-.34 13.03,1.11 8,5l5,10-39.94,3.47-4.06,4.53h30c.4,4.55 1.08,8.15 6,9l-3,3 15,18h-3v4c-2.57-4.22-5-6.2-10-5l2,11-5-2c1.06,5.03 3.87,7.2 9,7 2.65,11.55 8.17,18.4 20,20l-5-13c3.61,2.05 5.51,8.76 10.07,8.62 4.87-.14 6.65-7.84 7.72-11.62 3.81-13.47 3.37-21.87-2.79-35l5,8 2-7h3l-2-25-5-1c7.34-8.64 10.22-27.01 6.41-38-2.96-8.55-9.06-14.06-9.41-24l-3-6-3,1-11-19-5-1-1-11 2,1c-2.18-10.94-16.3-22.06-27-24l3,25h-1l-5-27z"/>
<path fill="#fdfcfa" d="m139,267v2h2v-2h-2z"/>
<path fill="#edc637" d="m417,268l3,4-1-4h-2z"/>
<path fill="#efde98" d="m124,269l1,19h1c1.27-6.45 5.41-14.92-2-19z"/>
<path fill="#fdfcfa" d="m155,272v3h1l-1-3z"/>
<path fill="#efde98" d="m448,274v3h3v-3h-3m-58,1v2h2v-2h-2z"/>
<path fill="#edc637" d="m410,275l1,4 4-4h-5z"/>
<path fill="#efde98" d="m452,278v4l3-1v-2l-1-1h-2z"/>
<path fill="#edc637" d="m440,285h2l2-6c-3.95,.66-4.89,2.11-4,6z"/>
<path fill="#fdfcfa" d="m127,280v12h1l1-12h-2m-15,3l1,7h2l-3-7z"/>
<path fill="#efde98" d="m385,283v2h2v-2h-2m-230,8l4-4-4,4m86,5l-7,30c10.13-5.71 7.27-21.26 14-29v6l8-13-15,6z"/>
<path fill="#fdfcfa" d="m191,291c.87,4.91-1.35,11.28 .6,15.78 1.46,3.34 6.33,4.93 8.86,7.48 5.08,5.12 8.64,11.09 11.28,17.78 7.56,19.19 6.42,35.81 7.3,55.96 .28,6.43 3.02,12.6 2.91,19-.36,20.34-7.04,40.3-14.7,58.72-2.38,5.71-8.37,8.49-11.27,13.72-3.56,6.44-1.44,14.03 .02,20.56l6.86-13.66 7.12-6.48 8.58-19.13 8.44-16.73 3.95-31.96-5.12-62.04-3.83-20h-4l-1-12-8.26-12.83-12.74-15.17-5,1z"/>
<path fill="#57462a" d="m296,290v4c-5.38,0-22.88-4.23-25.82,1.56-1.63,3.2 3.74,8.16 5.44,10.44 6.96,9.28 12.93,19.33 17.51,30 3.08,7.17 3.18,13.52 4.49,21 3.76,21.49 6.86,47.87-2.62,68l-5-1-6,4c-1.13,15.09-20.96,24.09-23,38l-4-1c-4.02,5.6-7.4,12.29-11.55,17.54-4.86,6.15-12.33,11.14-13.45,19.46-10.21,2.75-18.57,13.58-28,18.6-5.38,2.87-11.15,5.1-13,11.4-19.36,2.42-35.51,17.94-56,18v1c22.53,.97 41.01-5.15 63-7.82 8.59-1.04 17.39,.47 26-.35 14.3-1.36 29.09-5.9 43-9.38 25.68-6.44 45.36-21.24 73-17.27 11.15,1.61 21.99,8.28 33,11.06 8.67,2.19 18.18,1.32 27,3.44 25.95,6.25 51.24,15.94 77,22.93 15.85,4.31 23.66,25.57 44,18.69 23.01-7.79 10.66-35.41 15.74-51.3 7.95-24.88 46.68-39.21 41.26-69l-2-1-5,3 2-4c-9.56,4.4-16.38,19.07-28,19l-7,2v3h4c-4.74,3.81-8.75-.6-14-1l2-4c-4.43,1.69-5.94,5.56-7,10l3-2h1c-5.23,9.82-11.79,14.57-22,19-.81,6.22-15.37,4.63-16,13l-5,3 7-2-5,4v4l-11-1 1-5 5-2-9-1c0,4.04-3.96,4.16-7,5.33-8.43,3.24-16.49-1.08-26,1.67l-16-10c-5.68,2.71-12.28-2.32-14-8-7.91-.06-16.45-.81-22-7l-23-9h-1c-9.88-15.03-25.85-26.4-35.12-42-20-33.63-30.41-74.93-30.88-114-.14-12.29 3.72-23.92 4-36h-5z"/>
<path fill="#efde98" d="m398,292c-.3,4.8-.14,10.3 5,12 .63-5.34 1.06-10.29-5-12m33,5l-2,8 9-10-7,2m12-2v4l3-4h-3z"/>
<path fill="#349114" d="m246,297c-1.68,9.04-4.07,24.37-13,29v6c12-6.09 15.75-23.5 15-35h-2z"/>
<path fill="#efde98" d="m388,298l7,5v-4l-7-1m79,1l-2,5 4-5h-2m-29,5l4-4-4,4m-49,2v2h2v-2h-2m24,1c2.38,4.28 5.6,3.33 10,3v-3h-10z"/>
<path fill="#fdfcfa" d="m121,308l1,6h1l-2-6m-17,1l4,8-2-8h-2z"/>
<path fill="#efde98" d="m425,312v2c5.39,1.33 13.76,4.44 15-3l-8,2-1-4-6,3z"/>
<path fill="#fdfcfa" d="m78,315l2,7h1l-1-7h-2z"/>
<path fill="#efde98" d="m201,315l1,6h4l-5-6m249,2l3-2-3,2m-244,4l2,5c-.24,7.75 2.79,17.17 9,22-.83-8.09-5.3-21.04-11-27m240,0v2h2v-2h-2m44,0v3h3v-3h-3z"/>
<path fill="#edc637" d="m586.33,321.67l.34,.66-.34-.66m-517.33,3.33v1l8,10-7-8h-1l2,8c-5.551,4.82-3.427,9.12-13,8-.181,5.58-3.178,12.01-8,15l1,21c-7.364,2.26 1.81,18.52 3,25h-4c-.028,9.91-8.283,35.83 6,36l3,9c-1.436,7.86 4.009,21.37 13,22v8l4-1-7,12 13,7v6h6l2,14c4.208,.05 6.71,.27 9,4l8-4c2.08,13.62 26.81,18.65 34,7l3,1 2-12 7,7h2l1-5c6.94,.91 6.24-4.77 5-10h1l4,9-1-5h1l4,4 2-3-2-3 6,2-6-10h1l4,4-2-7 6,4c-.7-4.87-1.1-11.02 2-15-.91,4.96 .69,9.23 5,12l4-12-7-5 2-4 8,3c-1.36-15.55-16.32-26.24-26.78-36.34-5.02-4.86-8.84-10.35-15.22-13.66l-1,4 10,11-12-5 3,3v1l-7,8-1-4c-6.52,9.7 1.96,27.5 2,38h-1l-2-6h-1l-1,3h-1v-3l-3,1-3-9 4,2-2-26h-2l2,18h-1l-4-17-3-7c-6.11,.65-7.1,5.79-11,10l4.77-32.98-4.04-8.11-3.05-9.88-12.68-1.03c6.74-6.37 14.71-.68 12-13h-6v2l-14-9c1.668,.44 3.339,1.04 5.024,1.4 3.596,.78 8.316-.62 5.446-5.06-3.548-5.5-10.366-9.13-14.47-14.34l6,2c-1.297-3.95-5.759-8.64-2-12v4h2l-9-13-4,3-2-10 4,3-6-14-5-1-4,1z"/>
<path fill="#efde98" d="m404,329l5-4-5,4z"/>
<path fill="#edc637" d="m587.33,325.67l.34,.66-.34-.66z"/>
<path fill="#fdfcfa" d="m113,327v5h2l-2-5z"/>
<path fill="#edc637" d="m44,328l-2,11h2l2-11h-2z"/>
<path fill="#efde98" d="m445,337c5.7-.79 9.46-3.26 11-9l-11,9m33-8v3l2-3h-2z"/>
<path fill="#edc637" d="m588.33,329.67l.34,.66-.34-.66m1,4l.34,.66-.34-.66z"/>
<path fill="#efde98" d="m191,335v2h3v-2h-3m399.33,2.67l.34,.66-.34-.66m-190.33,3.33h4l-1-3-3,3m22-1v1l11,1-1,3c5.03,0 13.08,2.77 15-3l-7,1v-4l-18,1m55-1v2h2v-2h-2z"/>
<path fill="#edc637" d="m40,341l-5,31h2l6-31h-3z"/>
<path fill="#efde98" d="m591.33,342.67l.34,.66-.34-.66m-366.33,1.33l4,50h1c0-13.64 2.12-38.11-5-50m184,2c2.12,3.26 4.88,3.26 7,0h-7m183.33,1.67l.34,.66-.34-.66m-173.33,.33v2h4v-2h-4m62,1v2h4v-2h-4z"/>
<path fill="#edc637" d="m593,352v4h1l-1-4z"/>
<path fill="#efde98" d="m457,353v2h2v-2h-2m-12,3l3,3-1-3h-2m-42,7h8c-2.44-3.44-5.24-2.78-8,0z"/>
<path fill="#edc637" d="m594,360v5h1l-1-5z"/>
<path fill="#fdfcfa" d="m76,361l2,3-2-3z"/>
<path fill="#efde98" d="m413,364l4-3-4,3m-379,4l2,10-1,6h-1v-5h-1v31h1v-23h1c0,26.23 2.375,52.91 10,78h1l-6.871-36-1.129-59h-1l-2,2-1-4m561,0v14h1l-1-14z"/>
<path fill="#edc637" d="m34,378v6h1l1-6h-2z"/>
<path fill="#fdfcfa" d="m124,383v7l-7-4h-1c.22,10.89-4.4,25.87 7,33v-5l6-4-9-2v-1l14-13v-1c-3.07-5.41-2.8-9.6-10-10z"/>
<path fill="#edc637" d="m34,387c0,33.24 2.461,63.81 15.001,95 4.68,11.64 10.643,26.37 20.999,34l-6.545-14-18.731-39-8.634-47-2.09-29z"/>
<path fill="#efde98" d="m594,390v8h1l-1-8m-364,4l-1,14h1v-14z"/>
<path fill="#edc637" d="m593,404v7h1l-1-7z"/>
<path fill="#efde98" d="m197,406l3,4-3-4z"/>
<path fill="#edc637" d="m590.33,425.67l.34,.66-.34-.66z"/>
<path fill="#efde98" d="m200,427l6,3c-1.74-2.84-2.7-3.51-6-3z"/>
<path fill="#edc637" d="m589.33,430.67l.34,.66-.34-.66m-1,4l.34,.66-.34-.66z"/>
<path fill="#efde98" d="m182,435l4,5-4-5z"/>
<path fill="#edc637" d="m587.33,438.67l.34,.66-.34-.66z"/>
<path fill="#b27e0e" d="m573,471l1,1-1-1z"/>
<path fill="#efde98" d="m125.33,475.67l.34,.66-.34-.66z"/>
<path fill="#fdfcfa" d="m143,477v4h1l-1-4z"/>
<path fill="#efde98" d="m52,480l5,12h1l-3-12h-3m103,4l4,6-4-6m-17,2l1,5h1l-2-5m1.33,7.67l.34,.66-.34-.66m-13.33,.33l2,7-2-7m413,42h1l1-5 2,1c5.2-5.82 25.26-23.49 14-32l1-3c-19.19-.01-20.62,26.28-19,39m-407-33l3,3-1-3h-2z"/>
<path fill="#b27e0e" d="m136,551v1c16.45,3.19 29.02-1 45-2.87 18.75-2.2 38.4,2.63 57-1.23 28.35-5.88 58.64-20.03 88-20.77 6.58-.17 11.91,2.91 18.09,3.74 37.38,4.98 70.39,16.65 105.91,28.04 14.17,4.54 28.72,4.19 43,8.09-7.01-12.47-16.11-11.9-28-15.84-18.78-6.22-36.52-13.4-55.91-17.43-11.67-2.43-25.75-3.59-37.09-7.08-15.09-4.63-31.78-13.85-48-12.42-20.58,1.8-38.5,14.33-58,19.22-13.92,3.48-28.69,8.02-43,9.38-8.9,.85-18.17-.98-27,.5-20.9,3.48-38.6,8.59-60,7.67z"/>
<path fill="#edc637" d="m70,516c7.026,15.07 27.9,25.64 43,30.5 4.68,1.51 10,4.27 15,4.12 13.39-.41 27.46-7.38 40-11.62v-1l-37.92,7.31-38.08-11.31c-.614-2.85-1.303-2.85-4-2v-4l-13-8v-4h-5z"/>
<path fill="#b27e0e" d="m536,520v7h1l-1-7z"/>
<path fill="#edc637" d="m176,550v1c15.05-.12 31.13,2.54 46,.87 26.05-2.92 51.45-10.94 77.04-14.73 18.88-2.79 37.08-1.87 55.96,.03 19.36,1.94 36.47,8.95 55.02,13.7 17.33,4.43 36.33,10.65 54,13.69 6.26,1.07 12.76-.41 18.98,.78 12.56,2.4 21.7,8.66 35,8.66-3.52-1.48-7.35-.56-11-1.69-8.46-2.61-16.12-7.24-25-8.85-10.55-1.9-20.5-1.19-31-4.55-35.54-11.39-68.55-23.18-105.96-28.04-6.51-.85-12.12-3.95-19.04-3.82-31.44,.61-62.34,17.12-93,21.52-18.27,2.63-39.31-3.8-57,1.43z"/>
<path fill="#b27e0e" d="m518,534l-23,2v1h2v1c-6.46,1.12-3.95,5.63-2,10l5-1-6,4v5l6,6c3.74-.59 8.34,1.5 11.7,.34 6.99-2.41 8.3-12.31 17.3-7.34l3-3-1-3 4-7h-1v2h-1v-8c-4.99-.34-8.54-.75-10-6l-5,4m19-3v5h1l-1-5z"/>
<path fill="#efde98" d="m98,540c3.93,8.23 15.74,9.96 24,11.75 5.92,1.29 11.03,5.51 17,6.14 12.73,1.36 26.45-2.09 39,.63 11.63,2.52 21.83,9.41 34,10.39 11.37,.91 21.82-1.68 33-2.74 10.77-1.03 22.33,.42 32.96-1.39 22.02-3.77 42.29-7.54 65.04-7.78 20.81-.21 41.05,6.48 61.04,10.82 11.3,2.44 22.94,2.16 33.96,5.27 22.6,6.37 43.28,3.91 66,3.91 9.06,0 22.3,2.24 25-9-5.14,1.94-9.34,5.45-15,5.91-11.32,.91-20.23-7.29-31-8.72-6.3-.84-12.71,.46-18.98-.82-33.46-6.85-65.26-20.27-99.02-25.93-49.16-8.25-94.88,5.42-143,13.3-11.39,1.86-22.6-2-34-1.72-12.99,.31-26,4.45-39,3.94-17.74-.7-34.84-7.23-51-13.96m439-4v4h1l-1-4m-1,5v9h1l-1-9m-1.67,15.67l.34,.66-.34-.66m-1,3l.34,.66-.34-.66z"/>
<path fill="#b27e0e" d="m529,566l1,1-1-1m-1,1l1,1-1-1z"/>
</svg>
