<svg xmlns="http://www.w3.org/2000/svg" viewBox="0 0 222.75 207.75" xmlns:xlink="http://www.w3.org/1999/xlink" enable-background="new 0 0 222.75 207.75">
<g fill-rule="evenodd">
<g fill="#010101">
<path d="m212.25,127.5 5.25,7.5 4.5,9.75 .75,12-3.75,10.5-3.75,4.5-4.5,4.5-4.5,3-4.5,2.25-5.25,1.5-5.25,0-5.25-1.5-5.25-2.25-3.75,2.25-5.25,3-4.5,3-6,3-6,2.25-7.5,3-15,3-18,0-9-2.25-9.75-2.25-9.75-4.5-11.25-5.25-10.5-7.5-11.25-8.25-18.75-18.75-12.75-18-7.5-18-3.75-15.75 0-13.5 .75-12 2.25-8.25 2.25-5.25-1.5-5.25 0-6 3-15 3.75-6 5.25-6 6-3.75 6.75-1.5 3.75-1.5 4.5-3 5.25-3 6.75-2.25 7.5-1.5 7.5-2.25 9-1.5 9.75-.75 9.75,0 10.5,.75 10.5,2.25 10.5,3 10.5,5.25 11.25,6 10.5,7.5 10.5,9.75 15.75,18.75 11.25,16.5 6,15 3,13.5 .75,11.25-.75,8.25 0,6z"/>
<path d="m201.75,135.75 5.25,7.5 4.5,11.25 .75,11.25-3.75,10.5-3.75,4.5-4.5,4.5-4.5,3-4.5,2.25-5.25,.75-4.5,0-6-1.5-5.25-2.25-3.75,2.25-4.5,3-5.25,3-6,3.75-6,2.25-7.5,2.25-6.75,1.5-8.25,1.5-8.25,.75-9-.75-9-1.5-10.5-3-9.75-3-11.25-6-10.5-6.75-11.25-9-18.75-18.75-12.75-18-6.75-18-3.75-15.75-.75-13.5 .75-12 3-8.25 1.5-5.25-.75-5.25 0-6.75 .75-6.75 2.25-7.5 3-6 5.25-6 6-3.75 7.5-1.5 3.75-1.5 3.75-3 5.25-3 6.75-2.25 7.5-1.5 8.25-2.25 9-1.5 9-.75 10.5,0 9.75,.75 10.5,2.25 11.25,3 9.75,5.25 11.25,6 10.5,7.5 10.5,9.75 15.75,18.75 11.25,16.5 6,15 3,13.5 1.5,11.25-.75,8.25-1.5,6z"/>
</g>
<g>
<path fill="#fff200" d="m216,162.75-4.5-2.25 1.5-5.25-1.5-6.75-4.5-6-5.25-2.25-4.5-.75-2.25-.75-1.5-3-2.25-3.75-2.25-2.25-3-.75-6.75,0-3,.75-3.75,2.25-2.25,1.5-1.5,2.25-1.5,3-1.5,0-.75-3 0-3.75 .75-6 6-9 3.75-1.5 2.25-.75 1.5-1.5 2.25,0 3-.75 2.25-.75 3,0 6,1.5 .75-6.75 0-9.75-2.25-9-4.5-6.75-.75-2.25-1.5-3-1.5-3.75-3-5.25-3.75-5.25-4.5-6-6-6-6-6.75-6.75-6-7.5-6.75-8.25-5.25-9-4.5-9.75-4.5-10.5-2.25-11.25-2.25-11.25,0-20.25,2.25-13.5,3-9,3.75-3.75,3.75-.75,3 .75,3.75 3,3.75 2.25,2.25 3,6 1.5,9.75 0,9.75-.75,9.75-3,8.25-5.25,4.5-6.75-1.5-8.25-8.25-4.5-3.75-3,.75 0,14.25 3,10.5 3,9.75 5.25,9.75 5.25,7.5 2.25,2.25 14.25,0 4.5,.75 3.75,3 6,6 4.5,6 5.25,5.25 3,4.5 3.75,3.75 3,3.75 5.25,5.25 1.5,2.25 2.25,.75 3.75,0 13.5-2.25 5.25,.75 3.75,2.25 4.5,3.75 3.75,3.75 3.75,1.5 6,0 3-1.5 3.75-.75 3-.75 3,1.5 5.25,1.5 2.25-.75 0-3.75-1.5-4.5-1.5-3.75 1.5-3 2.25,0 3,3 1.5-3 2.25,.75 .75,2.25 1.5,1.5 2.25,1.5 3,3 6,4.5 3.75,2.25 2.25,.75 3,0 2.25-.75 6,0 3-.75 3.75-1.5 3.75-3 3.75-3.75z"/>
</g>
<g fill="#ffde00">
<path d="m216,162.75 1.5-6 0-9-3.75-9-8.25-4.5 0-2.25-.75-3-2.25-3.75-3-3.75-9-4.5-6,.75-6,2.25-2.25,.75-1.5-1.5 0-2.25 .75-1.5-3.75,1.5-6,9-.75,6 0,3.75 .75,3 1.5,0 1.5-3 1.5-2.25 2.25-1.5 3.75-2.25 3-.75 6.75,0 3,.75 2.25,2.25 2.25,3.75 1.5,3 2.25,.75 4.5,.75 5.25,2.25 4.5,6 1.5,6.75-1.5,5.25z"/>
<path d="m164.25,164.25 1.5,3 9.75,9.75-6,5.25-8.25,4.5-9.75,3-11.25,3-12,.75-10.5,0-11.25-.75-9-2.25-8.25-3-9-4.5-8.25-4.5-7.5-6-9-7.5-8.25-7.5-8.25-9-9-10.5-6.75-12-4.5-10.5-2.25-11.25-1.5-9.75 0-9 .75-7.5 1.5-6 .75-3.75 1.5-7.5-.75-5.25-.75-6 1.5-9 3-7.5 4.5-6 5.25-3.75 3-2.25 2.25,0 2.25-.75 3-.75 5.25-2.25 3-2.25 3.75-1.5 4.5-2.25 4.5-.75 4.5-2.25 4.5-.75 4.5-1.5 4.5-.75 11.25-.75 11.25,0 10.5,1.5 9.75,2.25 9,3 8.25,3.75 8.25,4.5 6.75,4.5 6,5.25 6,3.75 9.75,9.75 3,3.75 3,3 2.25,3 .75,2.25 7.5,10.5 5.25,11.25 3.75,9.75 3,9.75 1.5,8.25 0,13.5-1.5,5.25-2.25-3.75-2.25-3-3-2.25-3.75-.75 .75-6.75 0-9.75-2.25-9-4.5-6.75-.75-2.25-1.5-3-1.5-3.75-3-5.25-3.75-5.25-4.5-6-6-6-6-6.75-6.75-6-7.5-6.75-8.25-5.25-9-4.5-9.75-4.5-10.5-2.25-11.25-2.25-11.25,0-20.25,2.25-13.5,3-9,3.75-3.75,3.75-.75,3 .75,3.75 3,3.75 2.25,2.25 3,6 1.5,9.75 0,9.75-.75,9.75-3,8.25-5.25,4.5-6.75-1.5-8.25-8.25-4.5-3.75-3,.75 0,14.25 3,10.5 3,9.75 5.25,9.75 5.25,7.5 2.25,2.25 14.25,0 4.5,.75 3.75,3 6,6 4.5,6 5.25,5.25 3,4.5 3.75,3.75 3,3.75 5.25,5.25 1.5,2.25 2.25,.75 3.75,0 13.5-2.25 5.25,.75 3.75,2.25 4.5,3.75 3.75,3.75 3.75,1.5 6,0 3-1.5 3.75-.75 3-.75 3,1.5 5.25,1.5 2.25-.75 0-3.75-1.5-4.5-1.5-3.75 1.5-3 2.25,0z"/>
</g>
<g>
<path fill="#010101" d="m198,154.5-.75,2.25 0,4.5 1.5,1.5 1.5,0 2.25-.75 1.5-1.5 1.5-3 1.5-2.25 0-2.25-.75-1.5-1.5-1.5-1.5,0-1.5,.75z"/>
<path fill="#fff89f" d="m147,145.5 0-9.75 1.5-9.75 .75-9-3.75-6-3-.75-3.75,1.5-3.75,4.5-3,4.5-3,6-2.25,6.75-1.5,6.75 0,5.25 1.5,10.5 2.25,7.5 5.25,4.5 6.75,.75 6-1.5 3-4.5-.75-6.75z"/>
</g>
</g>
</svg>
