<svg xmlns="http://www.w3.org/2000/svg" viewBox="0 0 461.305 376.775" xmlns:xlink="http://www.w3.org/1999/xlink" enable-background="new 0 0 461.305 376.775">
<g fill-rule="evenodd">
<g>
<path fill="#e8e800" d="m194.58,76.32h-.18l4.212,3.096 1.368,.18 1.512-2.268-.288-1.188-5.58-.324-1.04,.504z"/>
<path fill="#dbdb00" d="m195.48,75.528h-.18l4.212,3.168 1.368,.144 1.332-2.412-.288-1.008-5.544-.324-.9,.432z"/>
<path fill="#e8e800" d="m190.4,86.328h-.18l4.176,3.168 1.404,.144 1.476-2.232-.288-1.188-5.58-.324-1.01,.432z"/>
<path fill="#dbdb00" d="m191.3,85.608h-.18l4.176,3.132 1.404,.18 1.3-2.412-.288-1.08-5.508-.288-.9,.468z"/>
<path fill="#7f4008" d="m170.28,76.32l-12.276-10.08-21.92-22.032-8.28-10.512-5.508-10.62-3.49-11.268-1.476-10.8v-1.008l4.5,5.076 3.168,1.62 1.62-.288 1.692-2.088 .9-2.7 5.4,12.6 7.92,13.5 10.188,13.068 15.48,15.408 10.8,8.244 2.988,1.8-11.7,10.08z"/>
<path d="m161.89,63.72l-11.7-9.18-9.79-10.332-5.688-9.108-5.4-12.312-.288-1.8 .468,.288 18.11,24.912 1.692,1.008 1.008-2.808 1.404,.288 10.3,8.64 14.112,13.824-6.732,4.176-7.49-7.596z"/>
<path fill="#e8e800" d="m163.51,115.02l-1.008,.108-2.7,2.592 2.808,.576 1.512,2.844 .9-.144 1.8-2.268-2.412-3.312-.9-.4z"/>
<path fill="#dbdb00" d="m164.41,113.94l-1.008,.18-2.7,2.52 2.808,.576 1.512,2.88 .9-.18 1.8-2.196-2.412-3.312-.9-.47z"/>
<path fill="#e8e800" d="m142.52,182.74h-.144l3.744,2.88 1.98,.432 1.296-2.232-.288-1.188-5.688-.288-.9,.4z"/>
<path fill="#dbdb00" d="m143.42,182.02h-.144l3.744,2.844 1.98,.468 1.296-2.268-.288-1.224-5.688-.288-.9,.47z"/>
<path fill="#e8e800" d="m146.7,96.408h-.108l3.708,2.808 1.98,.504 1.332-2.304-.288-1.188-5.72-.288-.9,.468z"/>
<path fill="#dbdb00" d="m147.6,95.616h-.108l3.708,2.88 1.98,.432 1.332-2.232-.288-1.188-5.72-.288-.9,.396z"/>
<path fill="#e8e800" d="m152.42,139.86l-.072,.108-.072,.108v.432l.072,.108 .072,.144 .036,.108 .072,.108 .108,.144 .144,.108 .108,.108 .11,.14 .144,.036 .18,.072 .18,.072 .108,.108 .18,.072 .18,.036h.828l.144-.036 .108-.072 .108-.072 .144-.036 .036-.072 .144-.108 .036-.144 .072-.108v-.108l.072-.144v-.396l-.072-.18-.072-.144-.036-.108-.072-.108-.108-.144-.144-.108-.108-.108-.108-.144-.14-.04-.18-.144-.108-.108h-.18l-.18-.072h-.828l-.144,.072-.18,.07-.108,.036-.108,.072-.144,.072-.036,.036-.144,.144-.036,.108v.07z"/>
<path fill="#dbdb00" d="m152.42,139.25l-.072,.108-.072,.144v.288l.072,.108 .072,.144 .036,.108 .072,.108 .108,.144 .072,.108 .108,.108 .144,.144 .18,.108 .108,.072 .18,.036 .18,.072 .108,.108 .18,.072 .18,.072h.792l.108-.072 .144-.072 .108-.036 .108-.072 .144-.072 .036-.108 .072-.108 .108-.144v-.108l.072-.108v-.324l-.072-.108-.036-.18-.072-.108-.072-.144-.108-.108-.072-.108-.108-.144-.108-.108-.18-.108-.144-.072-.18-.108-.108-.144h-.18l-.18-.036h-.18l-.18-.072h-.288l-.144,.072h-.18l-.108,.036-.108,.072-.144,.072-.108,.036-.108,.144-.072,.036-.072,.144-.04,.11z"/>
<path fill="#e8e800" d="m185.9,109.73l-.072,.108-.072,.144v.288l.072,.108 .072,.144 .036,.108 .072,.108 .108,.144 .072,.108 .108,.108 .144,.144 .18,.108 .108,.072 .18,.036 .18,.072 .108,.108 .18,.072 .18,.072h.612l.18-.072h.108l.144-.108 .108-.072 .108-.072 .144-.108 .04-.11 .072-.144 .108-.18v-.036l.072-.144v-.288l-.072-.108-.036-.144-.072-.108-.07-.11-.108-.144-.072-.108-.108-.108-.108-.144-.18-.108-.144-.072-.18-.036-.108-.144h-.18l-.18-.036h-.18l-.18-.072h-.288l-.144,.072h-.18l-.108,.036-.108,.072-.144,.072-.108,.036-.108,.144-.072,.036-.072,.144-.04,.11z"/>
<path fill="#dbdb00" d="m186.01,109.12l-.072,.144-.036,.108v.432l.036,.108 .072,.108 .072,.144 .108,.108 .072,.108 .108,.144 .18,.108 .108,.108 .18,.072 .144,.072 .216,.036 .144,.072 .18,.072 .18,.036h.576l.18-.036h.144l.108-.072 .108-.072 .144-.108 .108-.072 .072-.108 .036-.108 .144-.18v-.504l-.072-.108-.072-.108-.036-.144-.072-.108-.07-.11-.108-.144-.108-.108-.144-.108-.108-.144-.108-.036-.18-.072-.144-.108h-.18l-.18-.072h-.18l-.18-.072h-.288l-.108,.072h-.18l-.144,.072-.108,.036-.108,.072-.144,.072-.108,.108-.072,.072-.036,.108-.07,.11z"/>
<path fill="#e8e800" d="m137.3,159.23l-.072,.108-.072,.144v.288l.072,.108 .072,.144 .036,.108 .072,.108 .108,.144 .072,.108 .108,.108 .144,.144 .18,.108 .108,.072 .18,.036 .18,.072 .108,.072 .18,.036h.18l.18,.072h.324l.108-.072h.18l.108-.036 .144-.072 .108-.072 .108-.036 .144-.144 .036-.036 .072-.144 .108-.18v-.36l-.036-.108v-.108l-.072-.144-.072-.108-.036-.108-.072-.144-.108-.108-.144-.108-.108-.144-.108-.108-.144-.072-.18-.036-.108-.144-.18-.036-.18-.072-.18-.072h-.612l-.18,.072h-.108l-.108,.108-.144,.072-.108,.072-.108,.108-.072,.108-.072,.144-.04,.11z"/>
<path fill="#dbdb00" d="m137.41,158.44l-.072,.18-.036,.144v.468l.036,.108 .072,.18 .072,.144 .036,.108 .144,.108 .108,.144 .108,.108 .144,.108 .108,.072 .18,.072 .18,.036 .108,.072 .18,.072h.18l.18,.036h.324l.18-.036h.18l.108-.072 .108-.072 .144-.036 .108-.072 .072-.108 .108-.072 .072-.108 .036-.18v-.072l.072-.108v-.432l-.072-.108-.036-.144-.072-.108-.072-.108-.108-.144-.108-.108-.144-.108-.108-.144-.108-.036-.18-.072-.144-.108-.18-.072-.18-.072-.18-.036h-.756l-.18,.036-.144,.072-.108,.072-.108,.036-.072,.072-.108,.108-.072,.144v.04z"/>
<path fill="#406f1e" d="m123.3,118.3l-6.696,13.932-8.6,12.89-9.108,10.8-17.1,16.632-11.412,8.1-6.3,2.88-5.076,.9-3.924-.18-6.768-1.8-11.232-5.22-17.856-10.37-18-8.532-1.224-.79 5.112,.9 5.868-1.188 8.532-4.788 10.8-9.432 10.08-12.888 21.42-30.744 10.512-11.88 12.276-9.396 11.412-6.804 13.068-5.508 11.232-2.988 9.18-1.224h7.308l8.712,1.224 8.388,2.376 9.612,4.32 6.768,4.212-40.356,38.088-6.62,6.48z"/>
<path fill="#7fae4e" d="m137.59,89.64l-5.688-1.62h-5.724l-5.976,1.8-6.804,3.888-5.22,4.32-5.58,8.28-9.9,17.208-6.408,7.92-7.812,6.3-13.968,7.524-16.488,5.976-16.344,4.1-9,1.476 6.732,1.044 7.812-.324 10.8-2.196 22.68-8.604 13.608-7.02 8.892-6.48 5.796-7.31 11.7-22.032 4.104-4.788 7.2-5.58 7.308-3.132 5.292-.756h2.99z"/>
<path fill="#f7f619" d="m170.28,71.316l-11.376,4.5-9.18,5.112-10.224,8.1-11.376,13.068-6.732,10.8-4.68,10.944-2.412,9.396-1.476,10.512-.612,16.2 .792,17.388 2.7,18.9 4.32,17.244 4.5,12.889 6.48,14.578 9.396,16.201 12.492,17.207 18.72,21.602 16.092,15.73 13.608,11.088 14.4,9 19.513,9.504 20.088,8.102 9.791,1.908 12.42,1.512 6.877,2.699 10.512,8.389 5.867,2.088 7.201,.791 24.119-1.188 12.313-.504 8.389,1.08 6.479,2.412 12.42,6.912 6.301,1.295h9l9.791-1.906 4.934-1.801 9.467,2.412 6.912,.396 8.1-1.189 7.201-3.311 7.596-6.121 6.48-8.568 3.744-8.207 2.088-8.279 1.08-10.514v-10.332l-1.512-14.867-.9-5.221 4.5-8.711 3.131-10.188 1.693-13.5v-11.988l-1.514-13.645-3.6-19.656-11.879-49.032-6.121-29.52-4.391-14.508-5.076-11.592-6.912-10.908-10.908-12.6-15.8-14.292-17.389-13.212-20.088-12.6-14.219-7.308-17.1-6.408-19.98-5.004-21.313-3.276-20.988-1.8h-13.031l-14.113,1.656-11.555,2.844-9.72,3.456-14.112,7.2-13.39,9.252-12.6,11.592-5.22,5.796z"/>
<path fill="#e8e800" d="m449.42,297.58l2.699,8.279 .576,6.301-1.908,26.1-1.979,9.145-3.889,8.568-6.119,7.92-7.201,5.58-5.904,1.799-9.719,.9h-8.102l-10.979-1.799-3.6,.719-4.32,1.801h-11.701l-9.576-1.332-3.023-1.656-3.779-5.4-3.996-1.943-13.104-2.268-11.809-.613-6.912,.504-17.389,2.988-4.5-.469-3.6-2.123-5.58-6.408-4.5-1.98-10.332-1.008-8.279-1.223-26.209-6.48-12.887-5.076-15.012-8.531-18.468-12.781-17.42-14.69-12.276-11.664-6.732-8.279-3.78-6.301-3.6-10.297-3.6-14.723-2.088-15.877 .18-8.1 1.476-6.301 2.412-3.203 2.088-1.188h4.212l8.712,3.887 17.82,12.205 44.676,33.695 14.004,8.281 6.299,2.123 2.988-.18 3.6-2.232 2.232-4.211 1.801-7.777 1.98-23.58 1.475-5.543 1.332-1.656 1.801-.432 2.412,.719 5.688,4.969 10.801,13.824 25.668,37.008 8.531,9.611 4.393,2.988 3.42,.289 2.879-1.477 3.277-4.5 4.643-11.52 4.969-13.213 3.133-4.393 1.799-1.188 2.988-.287 5.867,2.555 14.113,12.313 10.188,8.389 4.824,1.943 2.375,.18 4.213-1.799 5.111-5.113 14.221-20.699 4.68-3.889 1.801-.504 2.807,.611 4.969,3.781 6.121,7.631 7.811,12.781 7.81,15.52z"/>
</g>
<g fill="#dbdb00">
<path d="m424.4,371.38l-9.613,.322-6.479-1.223-7.92-3.889-4.068-4.211-1.045-4.178 .613-7.523 1.799-5.795 .721-.324 2.412,5.543 2.879,7.057 3.602,3.42 8.207,3.6 7.381,1.801 12.887,.9 .145,.611-6.119,2.699-5.4,1.19z"/>
<path d="m450.32,318.6l-1.332-9.324-2.988-8.207-4.104-6.408-6.697-5.904-5.398-2.52-1.225,.432-.289,1.512 2.521,8.389 4.787,14.688 7.381,30.6 1.943,4.934 .9,.18 1.477-3.313 2.123-11.988 .9-13.07z"/>
</g>
<g>
<path fill="#e8e800" d="m208.22,245.56h-1.044l-4.068,3.313-.432,1.078 3.924,.434 2.376,4.68 1.224-.18 2.988-3.025v-1.188l-2.88-3.889-2.09-1.22z"/>
<path fill="#dbdb00" d="m209.59,243.94h-1.08l-3.6,2.844-.72,1.477 3.888,.504 2.412,4.607 1.188-.107 2.844-2.879v-1.332l-3.42-4.393-1.51-.72z"/>
<path fill="#f9f980" d="m302.72,122.51l7.199,1.908 7.955,4.392 9.613,8.208 16.813,19.044 7.775,13.176 14.4,28.225 4.32,5.688 2.41,1.367 1.369-.287 1.619-2.412 1.693-6.156 2.412-21.024 1.799-14.796 1.801-7.992 1.908-4.32 2.592-2.268 3.096-.432 4.104,1.188 9,5.112 16.775,11.52 4.645,2.088 1.801,.18 1.98-1.188 1.799-3.78 1.008-6.912v-8.82l-1.332-11.556-2.879-11.34-4.176-9.612-6.445-8.712-11.7-11.092-39.89-31.068-12.6-6.912-29.088-13.32-13.104-4.5-4.5-.432-2.197,.612-.611,1.908 1.801,4.392 19.19,27.252 4.32,8.568 .611,4.212-1.332,2.988-3.779,1.62-5.689,.612h-7.307l-39.492-3.924-10.908-.288-6.625,.792-4.967,1.908-3.6,2.988-3.709,6.012-2.879,9.288-1.045,10.224 .324,7.956 1.801,8.424 2.375,4.716 2.412,1.98 3.42,.432 4.5-.72 9.18-2.988 25.31-10.22 9.611-2.088 3.492-.108 1.62,.29z"/>
<path fill="#e8e800" d="m369.61,135.54l-1.332,.108-3.779,3.492v.396l3.779,.504 2.232,4.5 .9-.18 2.879-2.844v-1.188l-3.168-4.068-1.51-.72z"/>
<path fill="#dbdb00" d="m370.98,134.03h-.9l-3.889,3.132-.287,.9 3.6,.468 2.375,4.32 .9-.108 2.701-2.7v-1.404l-3.277-4.176-1.22-.43z"/>
<path fill="#e8e800" d="m296.71,190.12h-.898l-3.889,3.133-.324,.9 3.6,.467 2.412,4.32 .9-.107 2.699-2.699v-1.369l-3.311-4.211-1.19-.43z"/>
<path fill="#dbdb00" d="m297.9,188.64l-1.297,.108-3.492,2.988-.107,.791 3.6,.613 2.088,4.32 1.008-.145 2.881-2.701v-1.367l-3.168-3.888-1.51-.72z"/>
<path fill="#e8e800" d="m362.88,244.26l-1.475,.109-4.68,3.779-.721,1.332 4.896,.576 1.799,3.203 1.404,2.701 1.188-.182 3.313-2.844 .576-1.799-2.557-4.176-3.42-2.701h-.32z"/>
<path fill="#dbdb00" d="m364.68,242.14l-1.477,.143-4.68,3.781-.611,1.477 4.68,.432 1.619,2.988 1.514,3.023 1.188-.145 3.168-2.699 .611-2.268-2.699-4.5-3.168-2.232h-.14z"/>
<path fill="#e8e800" d="m404.42,212.04h-1.045l-3.6,2.807-.756,1.512 3.889,.576 2.412,4.645 1.188-.145 2.881-2.988v-1.367l-3.492-4.32-1.48-.72z"/>
<path fill="#dbdb00" d="m405.79,210.35h-1.08l-3.6,2.881-.719,1.439 3.887,.611 2.412,4.682 1.188-.182 2.846-3.023v-1.295l-3.42-4.32-1.52-.79z"/>
<path fill="#e8e800" d="m413.28,269.28l-1.475,.182-4.682,3.707-.611,1.512 4.68,.469 1.621,2.988 1.512,3.023 1.188-.18 3.168-2.701 .611-2.23-2.699-4.5-3.168-2.27h-.14z"/>
<path fill="#dbdb00" d="m414.9,267.34l-1.477,.145-4.645,3.779-.756,1.297 4.969,.611 1.619,2.988 1.369,2.881 1.223-.182 3.277-2.807 .719-1.801-2.52-4.211-3.455-2.701h-.32z"/>
<path fill="#e8e800" d="m356.11,328.07l-1.512,.107-4.5,3.781-.576,1.512 4.68,.432 1.621,2.988 1.477,2.879 1.223-.18 3.277-2.809 .611-1.799-2.52-4.213-3.492-2.699h-.29z"/>
<path fill="#dbdb00" d="m357.91,325.98l-1.512,.107-4.609,3.779-.611,1.514 4.645,.395 1.656,3.025 1.332,2.879 1.08,.109 3.311-2.521 1.008-2.268-2.699-4.5-3.313-2.52h-.29z"/>
<path fill="#e8e800" d="m285.62,305.57l-1.619,.107-5.293,4.393-.432,1.332 4.932,.576 1.801,2.699 1.512,3.6 1.188,.182 3.602-2.881 1.08-2.377-2.881-4.932-3.42-2.699h-.47z"/>
<path fill="#dbdb00" d="m287.42,303.3h-1.045l-4.355,2.988-2.123,2.879 5.291,.611 1.621,2.377 1.799,3.924 1.08,.107 3.6-2.807 1.01-2.412-2.701-4.68-3.707-2.988h-.47z"/>
<path fill="#e8e800" d="m197.89,171.94l-1.08,.18-2.7,2.52 2.88,.612 1.512,2.88 .9-.18 1.8-2.232-2.412-3.276-.9-.5z"/>
<path fill="#dbdb00" d="m198.79,170.93l-1.08,.108-2.7,2.592 2.88,.612 1.512,2.808 .9-.108 1.8-2.304-2.412-3.276-.9-.43z"/>
<path fill="#e8e800" d="m231.48,120.82l-1.08,.18-2.7,2.52 2.88,.612 1.512,2.88 .9-.18 1.799-2.232-2.412-3.276-.9-.5z"/>
<path fill="#dbdb00" d="m232.38,119.81l-1.079,.108-2.7,2.592 2.88,.612 1.512,2.808 .9-.108 1.799-2.304-2.412-3.276-.9-.43z"/>
<path fill="#e8e800" d="m254.88,68.04l-1.078,.18-2.701,2.52 2.881,.576 1.512,2.88 .9-.18 1.799-2.196-2.412-3.312-.9-.468z"/>
<path fill="#dbdb00" d="m255.78,66.996l-1.08,.144-2.52,2.556 2.699,.612 1.514,2.808 .719-.108 1.801-2.088-.107-1.08-2.881-2.844h-.14z"/>
<path fill="#e8e800" d="m218.88,198.65h-.18l4.212,3.168 1.368,.145 1.512-2.232-.288-1.188-5.58-.324-1.04,.43z"/>
<path fill="#dbdb00" d="m219.78,197.93h-.18l4.212,3.133 1.368,.18 1.512-2.305-.288-1.188-5.58-.287-1.04,.47z"/>
<path fill="#e8e800" d="m171,237.17h-.108l4.32,3.313 1.368,.18 1.332-2.305-.108-1.188-2.88-.432-3.744,.145-.18,.29z"/>
<path fill="#dbdb00" d="m171.9,236.45h-.108l3.708,2.809 1.98,.504 1.332-2.303-.288-1.189-5.724-.287-.9,.47z"/>
<path fill="#e8e800" d="m296.89,110.63h-.182l4.213,3.168 1.367,.144 1.514-2.232-.324-1.188-5.58-.324-1.01,.43z"/>
<path fill="#dbdb00" d="m297.79,109.91h-.18l4.213,3.132 1.367,.18 1.332-2.412-.324-1.08-5.508-.288-.9,.47z"/>
<path fill="#e8e800" d="m336.31,201.24h-.109l3.42,3.096 4.969,2.592h.721l2.088-2.699 .504-2.592-1.225-.9-7.955-.289-2.412,.613v.18z"/>
<path fill="#dbdb00" d="m337.82,199.84h-.145l3.42,3.205 5.004,2.52h.721l2.088-2.701 .467-2.52-1.188-.9-7.992-.324-2.375,.613v.11z"/>
<path fill="#e8e800" d="m293.58,271.66h-.18l3.492,3.203 4.787,2.377h.9l2.232-2.881 .18-2.375-2.268-.9h-7.813l-1.33,.58z"/>
<path fill="#dbdb00" d="m295.09,270.36h-.18l3.492,3.098 4.787,2.412h.9l2.232-2.809 .18-2.412-2.305-.9h-7.775l-1.33,.61z"/>
<path fill="#e8e800" d="m374.9,308.56h-.18l3.168,2.844 4.932,2.699h1.188l2.268-2.844 .145-2.375-2.232-.9h-7.992l-1.3,.58z"/>
<path fill="#dbdb00" d="m376.38,307.19h-.18l3.205,2.881 4.896,2.699h1.223l2.268-2.879 .109-2.412-2.197-.9h-7.992l-1.33,.61z"/>
<path fill="#e8e800" d="m363.92,354.6h-.145l3.133,2.988 5.688,2.881 2.412-2.412 .611-2.557-1.332-1.332-7.99-.287-2.377,.576v.14z"/>
<path fill="#dbdb00" d="m365.4,353.27h-.109l3.133,2.988 5.688,2.844 2.412-2.412 .576-2.52-1.295-1.367-7.992-.324-2.412,.611v.18z"/>
<path fill="#e8e800" d="m405,324.47h-.107l3.131,2.807 4.969,2.701h1.188l2.232-2.809 .18-2.412-2.268-.9h-7.92l-1.4,.61z"/>
<path fill="#dbdb00" d="m406.51,323.1h-.107l3.096,2.988 5.725,2.881 2.375-2.412 .611-2.557-1.332-1.332-7.955-.287-2.412,.576v.14z"/>
<path fill="#e8e800" d="m419.29,184.43h-.18l3.168,2.988 5.725,2.844 2.375-2.412 .613-2.52-1.369-1.368-7.92-.324-2.412,.612v.18z"/>
<path fill="#dbdb00" d="m420.8,183.06h-.182l3.168,2.988 5.689,2.88 2.412-2.412 .611-2.556-1.404-1.332-7.92-.288-2.375,.576v.14z"/>
<path fill="#e8e800" d="m249.01,180.22h-.107l3.707,2.844 1.98,.468 1.332-2.268-.324-1.224-5.688-.288-.9,.47z"/>
<path fill="#dbdb00" d="m249.91,179.46h-.107l3.707,2.88 1.98,.396 1.332-2.196-.324-1.224-5.688-.288-.9,.43z"/>
<path fill="#e8e800" d="m290.12,73.728h-.143l3.744,2.88 1.979,.432 1.3-2.232-.289-1.188-5.688-.324-.9,.432z"/>
<path fill="#dbdb00" d="m291.02,73.008h-.145l3.744,2.808 1.98,.504 1.297-2.304-.289-1.188-5.688-.288-.9,.468z"/>
<path fill="#e8e800" d="m263.3,49.428h-.182l3.781,2.88 1.908,.432 1.367-2.232-.287-1.188-5.689-.324-.9,.432z"/>
<path fill="#dbdb00" d="m264.2,48.708h-.18l3.781,2.808 1.906,.504 1.369-2.304-.289-1.116-5.688-.324-.9,.432z"/>
<path fill="#e8e800" d="m222.8,62.82l-.072,.108-.072,.108v.324l.072,.108 .072,.108 .036,.144 .072,.108 .108,.108 .072,.144 .108,.108 .144,.108 .18,.144 .108,.036 .18,.072 .18,.072 .108,.036 .18,.072h.18l.18,.072h.324l.108-.072h.18l.108-.072 .144-.036 .108-.072 .108-.072 .144-.108 .036-.072 .072-.108 .108-.18v-.072l.072-.108v-.288l-.072-.144-.036-.108-.072-.108-.072-.144-.108-.108-.072-.108-.108-.144-.108-.108-.18-.108-.144-.072-.18-.072-.108-.108-.18-.072-.18-.036-.18-.072h-.612l-.18,.072h-.108l-.108,.108-.14,.072-.108,.036-.108,.145-.072,.108-.072,.108-.04,.143z"/>
<path fill="#dbdb00" d="m222.91,62.208l-.072,.108-.036,.144v.396l.04,.144 .072,.108 .072,.108 .036,.144 .144,.108 .108,.108 .108,.144 .144,.108 .108,.072 .18,.036 .18,.072 .18,.072 .18,.036h.18l.18,.072h.29l.18-.072h.18l.144-.036 .108-.072 .108-.072 .144-.036 .108-.144 .072-.036 .036-.144 .144-.18v-.468l-.072-.108-.072-.144-.036-.108-.072-.108-.072-.145-.108-.108-.108-.108-.144-.144-.108-.108-.108-.072-.18-.036-.14-.143-.18-.036-.18-.072-.18-.072h-.576l-.18,.072h-.144l-.108,.108-.108,.072-.14,.072-.108,.108-.072,.108-.036,.144-.07,.108z"/>
<path fill="#e8e800" d="m231.19,80.316l-.072,.144-.036,.108v.288l.04,.144 .072,.108 .072,.108 .036,.144 .144,.108 .036,.108 .144,.144 .108,.108 .18,.108 .108,.072 .18,.072 .18,.036 .145,.144 .18,.036 .182,.072h.756l.143-.072 .109-.036 .11-.072 .145-.072 .107-.036 .072-.144 .035-.108 .145-.108v-.144l.035-.108v-.288l-.035-.144-.072-.18-.072-.108-.035-.108-.145-.144-.035-.108-.14-.108-.107-.144-.182-.108-.107-.072-.18-.108-.145-.108h-.18l-.18-.072h-.756l-.18,.072-.145,.036-.107,.072-.108,.072-.144,.036-.108,.072-.072,.108-.036,.144-.07,.036z"/>
<path fill="#dbdb00" d="m231.3,79.74l-.036,.108-.072,.108v.432l.072,.108 .036,.144 .072,.108 .072,.108 .11,.144 .108,.108 .145,.108 .107,.144 .108,.036 .18,.072 .18,.072 .145,.108 .18,.072 .182,.036h.827l.109-.036 .18-.072 .145-.072 .107-.036 .107-.072 .072-.108 .072-.144 .107-.108v-.54l-.072-.108-.035-.18-.072-.144-.072-.108-.035-.108-.145-.144-.107-.108-.109-.108-.143-.144-.109-.036-.18-.144-.107-.108h-.18l-.18-.072h-.18l-.182-.036h-.325l-.107,.036h-.18l-.108,.072-.145,.072-.107,.036-.108,.072-.144,.108-.036,.072-.072,.108-.07,.144z"/>
<path fill="#e8e800" d="m266.4,96.228l-.037,.18-.072,.108v.324l.072,.108 .037,.18 .072,.108 .07,.144 .109,.108 .072,.108 .107,.144 .107,.108 .18,.108 .145,.072 .18,.108 .18,.072 .109,.072 .18,.036h.792l.182-.036 .107-.072 .107-.072 .145-.036 .107-.072 .107-.072 .072-.108 .072-.108 .107-.144v-.54l-.07-.108-.037-.18-.072-.108-.072-.144-.035-.108-.145-.108-.107-.144-.107-.108-.145-.108-.107-.072-.18-.108-.109-.144h-.18l-.18-.036h-.794l-.18,.036-.107,.072-.145,.072-.107,.036-.107,.072-.145,.072-.037,.108-.07,.108-.07,.072z"/>
<path fill="#dbdb00" d="m266.58,95.616l-.037,.18-.07,.144v.396l.07,.18v.144l.109,.108 .072,.108 .035,.144 .145,.108 .107,.108 .107,.144 .145,.036 .18,.144 .18,.036 .109,.072 .18,.072h.829l.18-.072 .145-.072 .18-.036 .107-.072 .072-.072 .107-.036 .072-.144 .037-.108 .07-.108v-.144l.072-.108v-.432l-.072-.18v-.108l-.07-.108-.109-.144-.072-.108-.107-.108-.107-.144-.145-.108-.107-.072-.18-.108-.109-.108h-.18l-.18-.072h-.865l-.18,.072-.109,.036-.18,.072-.107,.072-.072,.036-.107,.072-.072,.108-.072,.144v.036z"/>
<path fill="#e8e800" d="m207.79,148.25l-.072,.108-.036,.144v.396l.036,.144v.108l.144,.108 .036,.144 .072,.108 .108,.108 .144,.144 .108,.108 .108,.072 .18,.036 .18,.072 .144,.108 .18,.072 .18,.072h.828l.108-.072 .18-.072 .144-.036 .036-.072 .144-.072 .036-.108 .072-.108 .072-.144v-.108l.036-.108v-.432l-.036-.18v-.108l-.072-.144-.108-.108-.072-.108-.108-.144-.144-.108-.108-.108-.108-.072-.18-.108-.144-.144h-.18l-.18-.036h-.18l-.18-.072h-.36l-.108,.072h-.18l-.108,.036-.18,.072-.144,.072-.036,.036-.144,.144-.036,.036-.072,.144v.11z"/>
<path fill="#dbdb00" d="m207.79,147.64l-.072,.144-.036,.108v.288l.036,.144 .072,.108 .072,.108 .036,.144 .144,.108 .036,.108 .144,.144 .108,.108 .18,.108 .108,.072 .18,.072 .18,.036 .144,.144 .18,.036 .18,.072h.756l.144-.072 .108-.036 .108-.072 .144-.072 .108-.036 .072-.144 .036-.108 .144-.108v-.144l.036-.108v-.29l-.036-.18-.072-.144-.072-.18-.036-.108-.144-.108-.036-.144-.144-.108-.108-.108-.18-.144-.108-.036-.18-.072-.144-.108h-.18l-.18-.072h-.18l-.18-.072h-.288l-.108,.072h-.18l-.144,.072-.108,.036-.108,.072-.144,.072-.108,.108-.072,.072-.036,.108-.07,.11z"/>
<path fill="#e8e800" d="m183.31,216.18l-.072,.109v.287l.072,.145v.107l.072,.107 .036,.145 .072,.107 .072,.109 .108,.143 .108,.109 .144,.107 .108,.145 .108,.035 .18,.072 .18,.072 .144,.107 .18,.072 .18,.035h.576l.18-.035h.144l.108-.145 .108-.035 .144-.072 .108-.107 .072-.145 .036-.107 .144-.18v-.072l.036-.109v-.435l-.036-.107v-.107l-.072-.145-.108-.107-.072-.109-.108-.143-.144-.109-.108-.107-.108-.072-.18-.072-.144-.107h-.18l-.18-.072h-.18l-.18-.035h-.36l-.18,.035h-.108l-.18,.072-.108,.072-.144,.035-.18,.072-.036,.107-.144,.072-.036,.109-.07,.14z"/>
<path fill="#dbdb00" d="m183.49,215.57l-.072,.107-.036,.145v.287l.036,.109 .072,.143 .072,.109 .036,.107 .144,.145 .036,.107 .144,.107 .108,.145 .18,.107 .108,.072 .18,.037 .18,.072 .144,.07 .18,.037 .18,.072h.576l.18-.072h.144l.108-.037 .108-.07 .144-.109 .108-.072 .072-.107 .036-.145 .144-.18v-.035l.036-.145v-.287l-.036-.109-.072-.143-.072-.109-.036-.107-.144-.145-.036-.107-.144-.107-.108-.145-.18-.107-.108-.072-.18-.037-.144-.143-.18-.037-.18-.072h-.18l-.18-.072h-.288l-.108,.072h-.18l-.144,.072-.108,.037-.108,.07-.144,.109-.108,.143-.072,.037-.036,.145-.07,.11z"/>
<path fill="#e8e800" d="m198.5,276.48l-.072,.18-.072,.107v.289l.072,.143 .072,.182 .036,.107 .072,.107 .108,.145 .072,.107 .108,.109 .144,.143 .18,.109 .108,.07 .18,.109 .18,.072 .108,.035 .18,.072h.792l.18-.072 .108-.035 .144-.072 .108-.072 .108-.037 .144-.07 .036-.109 .072-.143 .108-.109v-.107l.072-.145v-.287l-.072-.109-.036-.143-.072-.109-.072-.18-.108-.072-.072-.107-.108-.107-.108-.145-.18-.035-.144-.072-.18-.072-.108-.107-.18-.072-.18-.037-.18-.072h-.792l-.108,.072-.108,.037-.144,.072-.108,.072-.108,.035-.072,.145-.072,.107-.04,.07z"/>
<path fill="#dbdb00" d="m198.61,275.87l-.072,.18-.036,.107v.432l.036,.18 .072,.109 .072,.143 .036,.109 .144,.107 .108,.145 .108,.107 .144,.107 .108,.072 .18,.107 .18,.072 .108,.072 .18,.037h.864l.18-.037 .108-.072 .108-.072 .144-.035 .108-.072 .072-.072 .108-.107 .072-.107 .036-.145v-.107l.072-.109v-.432l-.072-.18-.036-.107-.072-.145-.072-.107-.108-.109-.108-.143-.144-.109-.108-.107-.108-.072-.18-.107-.144-.145h-.18l-.18-.035h-.828l-.108,.035-.18,.072-.144,.072-.108,.035-.108,.072-.072,.072-.108,.107-.072,.109v.07z"/>
<path fill="#e8e800" d="m320.11,150.05l-.107,.252v.72l.035,.216 .072,.252 .109,.252 .143,.216 .18,.18 .182,.252 .18,.18 .215,.18 .252,.18 .252,.18 .289,.108 .287,.144 .252,.108 .289,.108 .324,.072h1.08l.287-.072 .252-.036 .217-.072 .18-.108 .252-.144 .18-.18 .18-.18 .109-.18 .18-.216 .072-.18v-.72l-.072-.252-.037-.252-.143-.216-.109-.252-.18-.18-.18-.252-.18-.18-.252-.216-.217-.144-.252-.18-.287-.108-.252-.18-.361-.108-.287-.072-.324-.072-.287-.036h-.828l-.252,.036-.289,.072-.18,.108-.252,.144-.18,.108-.18,.18-.182,.18-.107,.18-.07,.18z"/>
<path fill="#dbdb00" d="m320.29,149.04l-.107,.216v.252l-.072,.252 .072,.216v.252l.107,.252 .072,.216 .18,.252 .109,.18 .18,.252 .18,.18 .252,.18 .217,.18 .324,.18 .215,.108 .359,.108 .254,.144 .287,.036 .324,.072 .287,.072h.289l.252-.072h.287l.252-.072 .252-.108 .217-.072 .252-.108 .18-.18 .18-.18 .18-.18 .109-.18 .143-.252 .037-.18v-.18l.072-.216-.072-.18v-.252l-.107-.252-.072-.18-.109-.216-.18-.252-.18-.18-.18-.18-.252-.252-.217-.108-.324-.18-.215-.108-.32-.18-.289-.144-.287-.036-.324-.144h-.287l-.289-.036h-.252l-.287,.036-.252,.072-.252,.072-.217,.108-.252,.108-.18,.144-.18,.18-.18,.18-.109,.18-.07,.18z"/>
<path fill="#e8e800" d="m317.59,209.63l-.107,.252v.215l-.072,.252 .072,.252v.217l.107,.252 .072,.252 .18,.217 .107,.18 .182,.252 .18,.18 .252,.18 .215,.18 .324,.18 .217,.109 .359,.143 .252,.109 .289,.072 .322,.035h1.117l.252-.035 .252-.072 .215-.109 .254-.143 .18-.109 .18-.107 .18-.18 .107-.145 .145-.215 .035-.182v-.252l.072-.252-.072-.215v-.252l-.107-.252-.072-.217-.107-.252-.18-.18-.18-.252-.18-.18-.254-.217-.215-.145-.324-.18-.217-.107-.322-.18-.289-.107-.287-.072-.324-.109h-.289l-.287-.07h-.252l-.289,.07-.252,.037-.252,.072-.215,.107-.252,.145-.18,.107-.182,.18-.18,.18-.107,.18-.07,.18z"/>
<path fill="#dbdb00" d="m317.7,208.55l-.107,.252v.719l.072,.217 .035,.252 .145,.252 .107,.217 .182,.18 .18,.252 .18,.18 .252,.18 .215,.18 .252,.18 .289,.109 .324,.143 .287,.109 .289,.072 .324,.035 .287,.072h.611l.217-.072 .324-.035 .215-.072 .182-.109 .252-.143 .18-.109 .18-.18 .18-.18 .107-.18 .145-.252 .037-.18v-.649l-.037-.252-.072-.217-.107-.18-.145-.252-.18-.252-.18-.215-.18-.182-.217-.18-.252-.252-.252-.107-.287-.18-.252-.18-.289-.072-.287-.072-.324-.037-.217-.07h-.611l-.252,.07-.289,.037-.252,.072-.215,.107-.18,.145-.252,.107-.18,.18-.182,.18-.107,.182-.14,.18z"/>
<path fill="#e8e800" d="m268.99,271.66l-.107,.252v.252l-.072,.217 .072,.252v.252l.107,.215 .072,.252 .18,.252 .107,.18 .18,.217 .18,.18 .252,.18 .217,.182 .324,.18 .217,.143 .359,.109 .252,.107 .287,.072 .324,.072 .217,.035h.539l.324-.035 .217-.072 .252-.072 .252-.107 .215-.109 .182-.143 .18-.18 .18-.182 .145-.18 .18-.215 .035-.182v-.252l.072-.252-.072-.215v-.252l-.107-.252-.072-.18-.107-.217-.18-.252-.182-.18-.18-.18-.252-.252-.215-.182-.324-.18-.217-.107-.324-.18-.359-.072-.287-.035-.289-.072-.324-.072h-.535l-.289,.072-.252,.072-.215,.035-.252,.145-.182,.107-.252,.107-.107,.18-.18,.182-.107,.18-.07,.18z"/>
<path fill="#dbdb00" d="m269.1,270.65l-.107,.252v.721l.072,.215 .035,.18 .145,.252 .107,.252 .18,.182 .18,.215 .182,.18 .252,.18 .215,.182 .252,.18 .289,.18 .324,.145 .215,.107 .324,.072 .289,.035 .287,.072h.324l.215-.072h.324l.217-.035 .324-.145 .215-.035 .182-.145 .252-.18 .18-.18 .18-.182 .107-.18 .145-.215 .035-.18v-.721l-.035-.252-.072-.252-.107-.217-.145-.252-.18-.18-.18-.252-.18-.18-.217-.217-.252-.143-.252-.182-.287-.107-.254-.18-.287-.072-.287-.035-.324-.072-.289-.072h-.287l-.252,.072h-.289l-.252,.072-.287,.107-.252,.072-.18,.107-.252,.18-.182,.18-.18,.182-.107,.18-.07,.18z"/>
<path fill="#e8e800" d="m309.2,332.86l-.143,.252v.252l-.037,.217 .037,.252v.252l.143,.217 .037,.252 .18,.252 .145,.18 .18,.215 .18,.182 .217,.18 .252,.18 .287,.18 .252,.145 .359,.107 .289,.107 .324,.072 .287,.072 .289,.037h.252l.287-.037h.324l.217-.072 .252-.107 .252-.072 .18-.107 .215-.18 .145-.18 .18-.182 .109-.18 .107-.252 .072-.18v-.18l.072-.252-.072-.18v-.217l-.109-.252-.07-.252-.109-.217-.18-.18-.18-.252-.18-.18-.252-.252-.252-.18-.289-.18-.252-.18-.287-.182-.289-.035-.322-.072-.289-.072-.252-.035h-.287l-.252,.035h-.289l-.252,.072-.217,.107-.252,.072-.252,.109-.18,.18-.18,.18-.18,.18-.107,.18-.11,.18z"/>
<path fill="#dbdb00" d="m309.49,331.78l-.107,.252-.072,.252-.072,.217v.252l.072,.252 .072,.217 .107,.252 .107,.252 .145,.18 .18,.217 .18,.18 .217,.18 .252,.18 .252,.18 .287,.145 .289,.107 .324,.107 .287,.072 .289,.072 .322,.037h.576l.252-.037 .289-.072 .252-.072 .18-.107 .252-.107 .18-.145 .18-.18 .18-.18 .109-.18 .107-.217 .072-.18v-.721l-.072-.252-.035-.252-.145-.18-.107-.217-.182-.252-.18-.18-.18-.18-.252-.252-.215-.18-.252-.18-.289-.109-.252-.18-.287-.072-.324-.035-.289-.072-.252-.072h-.576l-.252,.072-.252,.072-.215,.035-.252,.145-.252,.107-.182,.109-.18,.18-.107,.18-.107,.18-.07,.18z"/>
<path fill="#e8e800" d="m377.1,239.76l-.107,.217v.719l.072,.252 .035,.254 .145,.215 .107,.252 .18,.18 .18,.252 .182,.182 .252,.18 .215,.18 .252,.18 .289,.107 .324,.109 .215,.18 .324,.072 .289,.07 .287,.037h.863l.217-.037 .324-.07 .215-.109 .182-.143 .252-.109 .18-.18 .18-.18 .107-.18 .145-.252 .035-.18v-.721l-.035-.217-.072-.252-.107-.252-.145-.215-.18-.18-.18-.252-.18-.182-.217-.252-.252-.107-.252-.18-.287-.107-.254-.182-.287-.07-.287-.072-.324-.037-.289-.072h-.539l-.289,.072h-.252l-.287,.109-.252,.07-.18,.109-.252,.107-.182,.18-.18,.145-.107,.18-.07,.18z"/>
<path fill="#dbdb00" d="m377.28,238.68l-.107,.217v.252l-.07,.25 .072,.217v.252l.107,.252 .072,.215 .18,.252 .109,.18 .18,.252 .18,.182 .252,.18 .252,.18 .287,.18 .252,.107 .361,.109 .287,.18 .289,.072 .324,.107h.287l.252,.072h.289l.287-.072 .252-.037 .252-.07 .217-.109 .18-.143 .252-.109 .107-.18 .18-.18 .145-.18 .107-.252 .072-.18v-.217l.037-.252-.037-.252v-.217l-.145-.252-.035-.252-.145-.215-.18-.18-.18-.252-.18-.182-.217-.252-.252-.107-.287-.18-.252-.107-.289-.182-.324-.143-.287-.037-.289-.072-.252-.07h-.828l-.252,.07-.252,.072-.215,.109-.252,.107-.18,.145-.182,.18-.18,.18-.107,.18-.14,.18z"/>
<path fill="#e8e800" d="m403.2,143.46l-.107,.216-.072,.252-.035,.18 .035,.252v.216l.072,.252 .107,.18 .145,.252 .107,.216 .182,.18 .18,.18 .252,.252 .215,.108 .324,.18 .217,.144 .359,.108 .324,.18 .287,.072 .289,.036 .324,.072h.828l.252-.072 .215-.036 .252-.144 .182-.108 .252-.108 .107-.18 .18-.18 .107-.18 .145-.252 .035-.18v-.252l.072-.216-.072-.252v-.252l-.107-.216-.072-.252-.107-.252-.18-.18-.18-.216-.18-.18-.254-.252-.215-.108-.324-.18-.217-.144-.322-.18-.289-.036-.287-.072-.324-.072-.217-.036h-.539l-.324,.036-.217,.072-.252,.072-.252,.108-.18,.108-.18,.144-.18,.18-.182,.18-.107,.18-.07,.18z"/>
<path fill="#dbdb00" d="m403.38,142.24l-.107,.252v.252l-.072,.216 .072,.252v.252l.107,.216 .072,.252 .109,.252 .18,.18 .145,.216 .18,.18 .215,.18 .252,.18 .252,.18 .22,.14 .324,.108 .287,.18 .289,.072 .324,.108h.287l.289,.072h.322l.217-.072 .324-.072 .215-.036 .182-.144 .252-.108 .18-.108 .18-.18 .18-.18 .107-.18 .145-.252 .037-.18v-.724l-.037-.252-.072-.216-.107-.252-.145-.252-.107-.18-.18-.216-.18-.18-.252-.252-.217-.108-.252-.18-.252-.144-.217-.18-.359-.036-.324-.072-.287-.072-.289-.036h-.539l-.32,.04-.217,.072-.252,.072-.252,.108-.18,.072-.215,.18-.145,.108-.18,.18-.109,.108-.07,.18z"/>
<path fill="#e8e800" d="m375.48,98.208l-.109,.252v.216l-.07,.252 .07,.252v.216l.109,.18 .072,.252 .18,.252 .107,.18 .18,.216 .18,.18 .252,.18 .252,.18 .289,.18 .252,.18 .359,.144 .217,.108 .324,.072 .287,.036 .252,.072h.289l.252-.072h.287l.252-.036 .217-.144 .252-.036 .252-.144 .18-.18 .18-.18 .18-.18 .109-.18 .18-.216 .072-.18v-.252l.035-.252-.035-.216v-.252l-.145-.252-.037-.216-.143-.252-.182-.18-.18-.252-.18-.18-.215-.216-.252-.144-.289-.18-.252-.108-.287-.18-.361-.072-.324-.036-.287-.072-.289-.072h-.252l-.287,.072h-.32l-.215,.072-.252,.108-.254,.072-.18,.108-.215,.18-.145,.18-.18,.18-.107,.18-.07,.178z"/>
<path fill="#dbdb00" d="m375.62,97.02l-.143,.216v.72l.072,.252 .07,.252 .109,.216 .107,.252 .18,.18 .18,.252 .18,.18 .254,.18 .252,.18 .215,.18 .324,.108 .287,.108 .252,.18 .289,.072 .287,.072 .324,.036h.828l.252-.036 .289-.072 .252-.108 .18-.144 .215-.108 .182-.18 .18-.18 .145-.18 .107-.252 .072-.18v-.722l-.072-.216-.072-.252-.107-.252-.109-.216-.18-.18-.18-.252-.18-.18-.252-.252-.252-.108-.217-.18-.324-.108-.215-.18-.324-.072-.289-.072-.287-.036-.324-.072h-.539l-.289,.072h-.25l-.287,.108-.252,.072-.182,.108-.215,.108-.18,.18-.18,.144-.145,.18-.04,.18z"/>
<path fill="#e8e800" d="m426.6,238.07l-.107,.252v.721l.072,.215 .035,.252 .145,.252 .107,.217 .18,.18 .18,.252 .182,.18 .252,.18 .215,.182 .252,.18 .289,.107 .324,.145 .215,.18 .324,.035 .289,.145h.252l.287,.035h.287l.254-.035 .287-.072 .252-.072 .252-.107 .18-.107 .217-.145 .18-.18 .18-.18 .145-.182 .18-.215 .035-.18v-.721l-.035-.252-.072-.252-.107-.217-.145-.252-.18-.18-.18-.252-.18-.18-.217-.217-.252-.143-.252-.18-.287-.109-.254-.18-.359-.107-.287-.072-.289-.072-.324-.035h-.828l-.252,.035-.287,.072-.18,.107-.252,.145-.18,.107-.182,.18-.18,.182-.107,.18-.07,.18z"/>
<path fill="#dbdb00" d="m426.78,237.06l-.107,.215v.252l-.072,.252 .072,.217v.252l.107,.252 .072,.217 .18,.252 .109,.18 .18,.252 .18,.18 .252,.18 .252,.18 .287,.182 .252,.107 .361,.107 .215,.145 .324,.035 .289,.072 .287,.072h.541l.324-.072 .215-.072 .252-.035 .252-.145 .217-.035 .18-.18 .18-.145 .18-.18 .145-.109 .107-.252 .072-.18v-.215l.037-.252-.037-.252v-.217l-.145-.252-.035-.252-.145-.217-.18-.18-.18-.252-.18-.18-.217-.252-.252-.107-.287-.182-.252-.107-.289-.18-.324-.145-.287-.035-.289-.145h-.322l-.289-.035h-.252l-.287,.035-.252,.072-.217,.072-.252,.107-.252,.107-.18,.145-.18,.18-.182,.18-.107,.182-.07,.18z"/>
</g>
</g>
</svg>
