<svg xmlns="http://www.w3.org/2000/svg" viewBox="0 0 500 500" xmlns:xlink="http://www.w3.org/1999/xlink">
<defs>
<radialGradient cx=".337" cy=".284" id="radialGradient834" r=".382">
<stop offset="0" stop-color="#ff0"/>
<stop offset="1" stop-color="#ffe300"/>
</radialGradient>
</defs>
<g fill-rule="evenodd">
<g>
<path fill="url(#radialGradient834)" stroke="#000" stroke-linejoin="round" stroke-width="10" d="m68.708,148.13c159.99-138.55 405.75-1.97 402.45,141.52 26.39,25.57-3.3,53.61-19.79,61.03-141.85,174.84-433.79,31.34-416.47-112.98-22.053-63.37-2.478-82.15 33.808-89.57z"/>
</g>
<g stroke-width="1.25">
<g>
<path fill-opacity=".133" d="m44.33,267.99c21.25-21.25 23.75,143.75 333.75,82.5-6.25-6.25-40-148.75 80-101.25 46.88,14.38-99.37-9.69-47.5,90 8.04,13.1 5.63,13.13 27.5,18.75-132.5,142.5-391.25,32.5-393.75-90z"/>
</g>
<g fill="#fff" fill-opacity=".7">
<path d="m68.08,155.83c56.29-65.339 245.61-111.85 370,47.5-42.5,46.25-162.5-153.75-370-47.5z"/>
<path d="m469.33,295.49c14.32,17.5 1.25,37.5-8.75,35-78.75-21.25-36.25-42.5 8.75-35z"/>
</g>
</g>
</g>
</svg>
