<svg xmlns="http://www.w3.org/2000/svg" viewBox="0 0 63.4012 148.5058" xmlns:xlink="http://www.w3.org/1999/xlink">
<defs>
<linearGradient id="linearGradient2836">
<stop offset="0" stop-color="#ffbd00"/>
<stop offset="1" stop-color="#f00"/>
</linearGradient>
<linearGradient gradientTransform="matrix(.91725 0 0 .847 393.59 -175.07)" xlink:href="#linearGradient2836" id="linearGradient6267" y1="263.68" y2="346.5" gradientUnits="userSpaceOnUse" x2="0"/>
<linearGradient gradientTransform="matrix(1 0 0 1.0723 377.43 -259.83)" xlink:href="#linearGradient2836" id="linearGradient6265" y1="198.52" y2="366.2" gradientUnits="userSpaceOnUse" x2="0"/>
<linearGradient id="linearGradient5908">
<stop offset="0" stop-color="#1a1a1a"/>
<stop offset="1" stop-color="#2b1100"/>
</linearGradient>
<linearGradient id="linearGradient8343" xlink:href="#linearGradient5908" x1="534.78" gradientUnits="userSpaceOnUse" x2="718.71"/>
<linearGradient id="linearGradient8345" y1="238.18" y2="239.19" x1="683.87" gradientUnits="userSpaceOnUse" x2="630.34">
<stop offset="0" stop-color="#fff"/>
<stop offset="1" stop-color="#fff" stop-opacity="0"/>
</linearGradient>
</defs>
<g transform="matrix(.82979 0 0 .82979 -349.15541 -668.33499)">
<path opacity=".351" fill="#fc0" d="m464.81,806.77c0,0-3.6565,7.7271-6.875,16.312-5.51-6.54-10.94-12.03-10.94-12.03 0,0-1.7819,14.135-1.5,25.406-6.4387-2.5661-12.375-4.4375-12.375-4.4375 0,0 7.8201,20.284 13.75,25.812 5.5171,5.1436 16.704,4.4952 18.25,4.375 1.4109,.1123 12.723,.8069 18.281-4.375 5.9299-5.5284 13.781-25.812 13.781-25.812 0,0-4.9196,1.555-10.625,3.75 1.0321-8.7655 1.1875-17.562 1.1875-17.562 0,0-7.1724,5.4518-13.75,11.531-3.4247-10.777-9.1875-22.969-9.1875-22.969zm-29.875,55.281c0,0 3.6837,5.85 5.8438,8.5312 2.3161,2.875 7.5938,8.0625 7.5938,8.0625 3.6289-.8217 7.9248-1.3386 12.219-1.5938 .4177-.025 .8327-.0122 1.25-.0312 1.1084-.052 2.2247-.1102 3.3125-.125 1.0131,.014 2.0308,.079 3.0625,.125 .4584,.022 .9178,.005 1.375,.0312v-.0312c.3746,.022 .7507,.099 1.125,.125 .3139,.022 .6256,.007 .9375,.0312 .8528,.068 1.6917,.1286 2.5312,.2188 .3444,.038 .6898,.1159 1.0312,.1562v-.0312c1.1341,.1358 2.2658,.3222 3.3438,.5 1.1563,.1911 2.2845,.3851 3.3438,.625 0,0 1.0259-.9982 2.2812-2.2812 .4484-.4566 .6064-.5856 1.125-1.125v-.0312c.3984-.4145 .8124-.8173 1.2188-1.25 .2736-.29 .5452-.5846 .8125-.875 .8206-.8928 1.5772-1.75 2.1562-2.4688 .1455-.1806 .3111-.4186 .4688-.625 .1259-.1647 .2752-.3542 .4062-.5312 1.8698-2.5315 3.9119-5.6998 4.5-6.625v-.0312c.0835-.1314 .4688-.7188 .4688-.7188 0,0-.4186,.0575-.4688,.0625-.241,.028-1.0561,.1183-2.25,.25-1.2877,.142-3.0308,.3256-5.0625,.5312-.716,.072-1.4766,.144-2.25,.2188-2.7574,.2669-5.6378,.5192-8.6875,.75-.1861,.014-.3758-.013-.5625,0-.2824,.021-.5625,.0435-.8438,.0625-.3739,.027-.7544,.0688-1.125,.0937-.3887,.026-.7414,.0395-1.125,.0625-.7633,.048-1.5158,.087-2.25,.125-.3688,.019-.7659,.0475-1.125,.0625-.4651,.02-.8994,.0495-1.3438,.0625-.9052,.031-1.7891,.0575-2.5938,.0625v-.0312c-.1678,0-.3373,.0312-.5,.0312-.9538,0-2.0805-.0245-3.1875-.0625-.4575-.015-.8993-.0415-1.375-.0625-10.601-.4748-25.656-2.25-25.656-2.25zm30.219,16.844c-1.5466,0-3.0803,.053-4.5625,.125-4.1841,.202-8.0822,.6776-11.5,1.375l2.125,16.812c2.8233-.608 5.9928-1.0144 9.375-1.2188 .4617-.028 .9372-.0113 1.4062-.0312 1.0322-.043 2.0906-.125 3.1562-.125 .174,0 .3268-.001 .5,0 1.101,.01 2.186,.072 3.25,.125 .0207,.001 .0418-.001 .0625,0 3.6587,.1843 7.068,.6299 10.094,1.2812l2.125-16.812c-1.2692-.259-2.609-.492-4-.6875-.3677-.052-.7497-.1091-1.125-.1562-.2805-.035-.5591-.093-.8438-.125-.3688-.042-.7496-.087-1.125-.125-.3694-.037-.7495-.0618-1.125-.0937-.7404-.064-1.4877-.1106-2.25-.1562v.0312c-.3791-.023-.7409-.0758-1.125-.0937h-.0937c-1.2569-.058-2.5404-.0867-3.8438-.0937v-.0312c-.1736-.0008-.3257,0-.5,0zm0,18.906c-1.5543,0-3.0866,.036-4.5625,.125v.0312c-3.2917,.1996-6.3797,.577-9.0938,1.1562l9.5625,79.469h.0312c.003,.01-.003,.0222 0,.0312v.0312c.1374,.4339 .2929,.8596 .4375,1.25 .006,.015-.005,.0163 0,.0312 .145,.3894 .2858,.7506 .4375,1.0938 .0724,.1634 .1449,.3164 .2188,.4688 .0882,.1828 .1911,.3646 .2812,.5312 .0206,.038 .0418,.087 .0625,.125 .0621,.1118 .1245,.2085 .1875,.3125 .003,0-.003,.0292 0,.0312 .0177,.029 .0447,.0345 .0625,.0625 .1487,.2375 .2843,.4629 .4375,.6562 .0407,.051 .084,.1082 .125,.1562 .0487,.058 .1071,.1033 .1562,.1562 .0862,.093 .1626,.1715 .25,.25 .0914,.082 .1886,.153 .2812,.2188 .0908,.065 .158,.1382 .25,.1875h.0312c.1364,.072 .2667,.1164 .4062,.1562 .1396,.04 .2966,.0625 .4375,.0625 .4559,0 .881-.1921 1.3125-.5625 .0158-.014 .0467-.0183 .0625-.0312 .1786-.1591 .3579-.3756 .5312-.5938 .0302-.038 .0639-.085 .0937-.125 .0516-.069 .1051-.1136 .1562-.1875 .005-.01-.005-.0242 0-.0312 .0125-.018 .0192-.0445 .0312-.0625 .0759-.1131 .1428-.2183 .2188-.3438 .0819-.1345 .1696-.2586 .25-.4062 .0827-.152 .169-.3033 .25-.4688 .0175-.036 .0455-.088 .0625-.125 .004-.01-.004-.0233 0-.0312 .2243-.4703 .4458-.9623 .6562-1.5312 .1446-.3904 .2689-.8161 .4062-1.25v-.0312l.4062-3.25v-.125l1.125-9.1875v-.125l2.25-18.531v-.125l1.125-9.2812v-.0312l1.125-9.25v-.0625l.8438-6.9688 1.125-9.25v-.0625l1.5938-13.219c-.0638-.014-.1545-.0183-.2188-.0312-.4398-.092-.9176-.1671-1.375-.25-.2234-.04-.4593-.085-.6875-.125-.4242-.071-.8437-.1552-1.2812-.2188-.3699-.054-.7461-.1084-1.125-.1562v.0312c-.3766-.048-.74-.1145-1.125-.1562-.1946-.021-.3973-.0445-.5938-.0625-.9007-.089-1.8413-.1317-2.7812-.1875v-.0312c-.7415-.044-1.4874-.0718-2.25-.0937v.0312c-.562-.016-1.1155-.0595-1.6875-.0625h-.5v-.0312z"/>
</g>
<g transform="matrix(.23824 -.07945 .08018 .23607 -122.45107 64.41161)">
<path fill="url(#linearGradient6265)" d="m584.19-46.952c0,0-38.599,79.974-38.599,112.97 0,32.991 38.599,66.83 38.599,66.83 0,0 38.599-33.839 38.599-66.83 0-32.991-38.599-112.97-38.599-112.97z"/>
<path fill="#ff0" d="m584.19-27.759c0,0-35.344,68.291-35.344,96.464 0,28.172 35.344,57.068 35.344,57.068 0,0 35.344-28.896 35.344-57.068 0-28.172-35.344-96.464-35.344-96.464z"/>
<path fill="url(#linearGradient6267)" d="m584.19,28.582c0,0-22.394,39.956-22.394,56.438 0,16.483 22.394,33.389 22.394,33.389 0,0 22.394-16.906 22.394-33.389 0-16.483-22.394-56.438-22.394-56.438z"/>
</g>
<g transform="matrix(.20488 .1029 -.10385 .20302 -70.11151 -41.07891)">
<path fill="url(#linearGradient6265)" d="m584.19-46.952c0,0-38.599,79.974-38.599,112.97 0,32.991 38.599,66.83 38.599,66.83 0,0 38.599-33.839 38.599-66.83 0-32.991-38.599-112.97-38.599-112.97z"/>
<path fill="#ff0" d="m584.19-27.759c0,0-35.344,68.291-35.344,96.464 0,28.172 35.344,57.068 35.344,57.068 0,0 35.344-28.896 35.344-57.068 0-28.172-35.344-96.464-35.344-96.464z"/>
<path fill="url(#linearGradient6267)" d="m584.19,28.582c0,0-22.394,39.956-22.394,56.438 0,16.483 22.394,33.389 22.394,33.389 0,0 22.394-16.906 22.394-33.389 0-16.483-22.394-56.438-22.394-56.438z"/>
</g>
<g transform="matrix(.14033 .14779 -.14915 .13905 -26.71163 -58.84021)">
<path fill="url(#linearGradient6265)" d="m584.19-46.952c0,0-38.599,79.974-38.599,112.97 0,32.991 38.599,66.83 38.599,66.83 0,0 38.599-33.839 38.599-66.83 0-32.991-38.599-112.97-38.599-112.97z"/>
<path fill="#ff0" d="m584.19-27.759c0,0-35.344,68.291-35.344,96.464 0,28.172 35.344,57.068 35.344,57.068 0,0 35.344-28.896 35.344-57.068 0-28.172-35.344-96.464-35.344-96.464z"/>
<path fill="url(#linearGradient6267)" d="m584.19,28.582c0,0-22.394,39.956-22.394,56.438 0,16.483 22.394,33.389 22.394,33.389 0,0 22.394-16.906 22.394-33.389 0-16.483-22.394-56.438-22.394-56.438z"/>
</g>
<g transform="matrix(.25084 0 0 .25587 -111.11951 12.01361)">
<path fill="url(#linearGradient6265)" d="m584.19-46.952c0,0-38.599,79.974-38.599,112.97 0,32.991 38.599,66.83 38.599,66.83 0,0 38.599-33.839 38.599-66.83 0-32.991-38.599-112.97-38.599-112.97z"/>
<path fill="#ff0" d="m584.19-27.759c0,0-35.344,68.291-35.344,96.464 0,28.172 35.344,57.068 35.344,57.068 0,0 35.344-28.896 35.344-57.068 0-28.172-35.344-96.464-35.344-96.464z"/>
<path fill="url(#linearGradient6267)" d="m584.19,28.582c0,0-22.394,39.956-22.394,56.438 0,16.483 22.394,33.389 22.394,33.389 0,0 22.394-16.906 22.394-33.389 0-16.483-22.394-56.438-22.394-56.438z"/>
</g>
<g transform="matrix(-.14033 .14779 .14915 .13905 88.98227 -58.36081)">
<path fill="url(#linearGradient6265)" d="m584.19-46.952c0,0-38.599,79.974-38.599,112.97 0,32.991 38.599,66.83 38.599,66.83 0,0 38.599-33.839 38.599-66.83 0-32.991-38.599-112.97-38.599-112.97z"/>
<path fill="#ff0" d="m584.19-27.759c0,0-35.344,68.291-35.344,96.464 0,28.172 35.344,57.068 35.344,57.068 0,0 35.344-28.896 35.344-57.068 0-28.172-35.344-96.464-35.344-96.464z"/>
<path fill="url(#linearGradient6267)" d="m584.19,28.582c0,0-22.394,39.956-22.394,56.438 0,16.483 22.394,33.389 22.394,33.389 0,0 22.394-16.906 22.394-33.389 0-16.483-22.394-56.438-22.394-56.438z"/>
</g>
<g transform="matrix(.32631 0 0 .32334 -173.771 -22.37668)">
<path fill="url(#linearGradient8343)" d="m565.09,211.1c0,0 9.3822,14.963 14.875,21.844 5.8897,7.3779 19.281,20.75 19.281,20.75 12.514-2.8595 28.148-4.3644 42.656-4.5625 14.509,.1981 30.143,1.703 42.656,4.5625 0,0 13.423-13.372 19.312-20.75 5.4928-6.8808 14.844-21.844 14.844-21.844 0,0-51.129,6.0625-76.812,6.0625-25.684,0-76.812-6.0625-76.812-6.0625zm76.813,43.25c-15.029,0-29.016,1.3898-40.781,3.8125l5.375,43.156c10.32-2.2428 22.422-3.5312 35.406-3.5312 12.98,0 25.088,1.2897 35.406,3.5312l5.375-43.156c-11.766-2.4228-25.753-3.8125-40.781-3.8125zm0,48.469c-12.772,0-24.658,1.2527-34.656,3.4062l24.312,203.94c.007,.0231 .024,.0394 .0312,.0625v.0937c.3493,1.1136 .726,2.1544 1.0938,3.1562 .0141,.0385 .0172,.0867 .0312,.125 .3688,.9993 .7394,1.9318 1.125,2.8125 .184,.4192 .3748,.8275 .5625,1.2188 .2242,.469 .4583,.9158 .6875,1.3438 .0524,.0976 .1036,.1858 .1562,.2812 .1579,.2868 .3086,.5769 .4688,.8438 .007,.012 .024,.0193 .0312,.0312 .0449,.0745 .0799,.1458 .125,.2188 .3781,.6095 .7667,1.16 1.1562,1.6562 .1034,.1317 .2084,.2515 .3125,.375 .1239,.1476 .2501,.3017 .375,.4375 .2192,.2383 .4339,.4548 .6562,.6562 .2324,.2099 .4519,.3936 .6875,.5625 .2309,.1668 .4536,.3111 .6875,.4375 .007,.004 .024-.004 .0312,0 .6935,.3702 1.4082,.5938 2.125,.5938 1.1594,0 2.2778-.5184 3.375-1.4688 .0402-.0347 .0849-.0578 .125-.0937 .4541-.4083 .903-.9091 1.3438-1.4688 .009-.0116 .0222-.0195 .0312-.0312 .0768-.0981 .1424-.21 .2188-.3125 .1313-.1766 .2763-.3415 .4062-.5312 .0123-.018 .019-.0444 .0312-.0625 .2173-.3198 .4115-.6441 .625-1 .2083-.3453 .4205-.6839 .625-1.0625 .2102-.3902 .419-.794 .625-1.2188 .0537-.1103 .1028-.2311 .1562-.3438 .5704-1.2069 1.1211-2.5398 1.6562-4 .3678-1.0018 .7445-2.0426 1.0938-3.1562v-.0937l24.344-204c-9.98-2.16-21.87-3.41-34.64-3.41h.0003z"/>
<path opacity=".21" fill="url(#linearGradient8345)" d="m717.5,211.22c-.6127,.072-2.6827,.3496-5.7188,.6875v9.875c2.4803-3.7185 4.5003-6.8597 5.7188-8.7812v-1.7812zm-10,1.1562c-.9004,.0969-1.8599,.1773-2.8438,.2812v19.25c.8948-1.1632 1.8419-2.4608 2.8438-3.875v-15.656zm-8.5625,.875c-1.8207,.1849-3.7521,.3709-5.7188,.5625v31c1.8978-1.9929 3.8641-4.0736 5.7188-6.125v-25.438zm-8.5938,.8438c-4.5743,.4351-9.39,.8798-14.281,1.2812v36.688c2.9404,.4905 5.8065,1.0095 8.5,1.625 0,0 2.5889-2.5822 5.7812-5.875v-33.719zm-17.85,1.52c-.9519,.0743-1.8943,.148-2.8438,.2188v35.25c.9583,.1257 1.9008,.2684 2.8438,.4062v-35.875zm-5,.375c-.9508,.0681-1.9012,.1551-2.8438,.2188v34.281c.956,.1025 1.8982,.2297 2.8438,.3438v-34.84zm-5.7188,.4062c-1.941,.1218-3.8518,.2164-5.7188,.3125v33.031c1.9184,.135 3.8176,.2892 5.7188,.4688v-33.812zm-31.438,.4688v32.688c3.8784-.2321 7.7623-.3856 11.562-.4375 .4352,.006 .8754,.023 1.3125,.0312v-32.031c-.4266,.003-.8988,.0312-1.3125,.0312-3.4468,0-7.3842-.0922-11.562-.2812zm22.875,0c-1.9802,.0885-3.8832,.1384-5.7188,.1875v32.219c1.8934,.0685 3.815,.1692 5.7188,.2812v-32.688zm-11.312,37.469c-3.933,0-7.7933,.0973-11.562,.2812v43.531c3.7595-.2288 7.6147-.375 11.562-.375 .4425,0 .872,.0283 1.3125,.0312v-43.469c-.4414-.002-.8693,0-1.3125,0zm5.5938,.0625v43.469c1.9278,.0559 3.8404,.1382 5.7188,.25v-43.531c-1.8761-.0895-3.7997-.1428-5.7188-.1875zm8.5625,.375v43.531c1.9457,.1464 3.8386,.327 5.7188,.5312v-43.656c-1.8828-.1634-3.7802-.2893-5.7188-.4062zm8.5938,.6875v43.719c.9622,.1214 1.902,.2387 2.8438,.375v-43.781c-.9378-.1079-1.8891-.2164-2.8438-.3125zm5,.5625v43.844c.9654,.1537 1.9027,.3309 2.8438,.5v-43.969c-.9349-.1325-1.8893-.2545-2.8438-.375zm6.4062,.9375v44.094c.412,.0853 .8435,.1617 1.25,.25l5.375-43.156c-2.1274-.4381-4.3594-.8191-6.625-1.1875zm-34.156,45.844c-3.9524,0-7.8094,.1455-11.562,.375v196.75l1.2188,10.219c.007,.0231 .024,.0394 .0312,.0625v.0937c.3493,1.1136 .726,2.1544 1.0938,3.1562 .0141,.0385 .0172,.0867 .0312,.125 .3688,.9993 .7394,1.9318 1.125,2.8125 .184,.4192 .3748,.8275 .5625,1.2188 .2242,.469 .4583,.9158 .6875,1.3438 .0524,.0976 .1036,.1858 .1562,.2812 .1579,.2868 .3086,.5769 .4688,.8438 .007,.012 .024,.0194 .0312,.0312 .0449,.0745 .0799,.1458 .125,.2188 .3781,.6095 .7667,1.16 1.1562,1.6562 .1034,.1317 .2084,.2515 .3125,.375 .1239,.1476 .2501,.3017 .375,.4375 .2192,.2383 .4339,.4548 .6562,.6562 .2324,.2099 .4519,.3936 .6875,.5625 .2309,.1668 .4536,.3111 .6875,.4375 .007,.004 .024-.004 .0312,0 .6935,.3702 1.4082,.5938 2.125,.5938 .4457,0 .8778-.1017 1.3125-.25v-221.97c-.439-.003-.8713-.0312-1.3125-.0312zm5.6,.1v218.09c.1929-.2903 .3694-.5844 .5625-.9062 .2083-.3453 .4205-.6839 .625-1.0625 .2102-.3902 .419-.794 .625-1.2188 .0537-.1103 .1028-.2311 .1562-.3438 .5704-1.2069 1.1211-2.5398 1.6562-4 .3678-1.0018 .7445-2.0426 1.0938-3.1562v-.0937l1-8.375v-198.66c-1.8856-.1129-3.7795-.2249-5.7188-.2812zm8.5625,.4688v174.62l5.7188-47.906v-126.22c-1.8716-.2046-3.7758-.353-5.7188-.5zm8.5938,.8125v101.81l2.8438-23.844v-77.562c-.9407-.1375-1.8803-.2836-2.8438-.4062zm5,.75v59.156l2.85-23.85v-34.812c-.9318-.1698-1.8849-.3454-2.8438-.5zm6.4062,1.1875v4.2812l.5-4.1875c-.1623-.035-.3367-.0593-.5-.0937z"/>
</g>
</svg>
