<svg xmlns="http://www.w3.org/2000/svg" viewBox="0 0 60.8677 49.1555" xmlns:xlink="http://www.w3.org/1999/xlink">
<defs>
<linearGradient gradientTransform="matrix(.89467 0 0 .76684 -180.42 -11.313)" xlink:href="#linearGradient2836" id="linearGradient4130" y1="240.95" y2="347" gradientUnits="userSpaceOnUse" x2="0"/>
<linearGradient id="linearGradient2836">
<stop offset="0" stop-color="#ffbd00"/>
<stop offset="1" stop-color="#f00"/>
</linearGradient>
<linearGradient gradientTransform="translate(.32152)" id="linearGradient3933" y1="153.33" y2="302.51" gradientUnits="userSpaceOnUse" x2="0">
<stop offset="0" stop-color="#ff0"/>
<stop offset="1" stop-color="#ffed00" stop-opacity="0"/>
</linearGradient>
<linearGradient gradientTransform="translate(.32152)" xlink:href="#linearGradient3933" id="linearGradient4128" y1="153.33" y2="302.51" gradientUnits="userSpaceOnUse" x2="0"/>
<linearGradient gradientTransform="matrix(1.4912 0 0 1.4604 -379.31 -238.2)" xlink:href="#linearGradient2836" id="linearGradient4126" y1="264.18" x1="333.4" y2="347" gradientUnits="userSpaceOnUse" x2="333.35"/>
<linearGradient id="linearGradient3939" x1="254.56" gradientUnits="userSpaceOnUse" x2="130.51">
<stop offset="0" stop-color="#fff"/>
<stop offset="1" stop-color="#fff" stop-opacity="0"/>
</linearGradient>
<linearGradient xlink:href="#linearGradient5908" id="linearGradient4122" x1="-35.714" gradientUnits="userSpaceOnUse" x2="310.37"/>
<linearGradient xlink:href="#linearGradient3939" id="linearGradient4124" x1="254.56" gradientUnits="userSpaceOnUse" x2="130.51"/>
<linearGradient id="linearGradient5908">
<stop offset="0" stop-color="#1a1a1a"/>
<stop offset="1" stop-color="#2b1100"/>
</linearGradient>
</defs>
<g transform="matrix(.82979 0 0 .82979 -203.2134 -767.68691)">
<path opacity=".351" fill="#fc0" d="m285.09,926.49c0,0-8.9062,24.309-8.9062,32 0,2.5896 1.0034,4.5558 2.3438,6.0312h13.125c1.3407-1.4756 2.3438-3.4412 2.3438-6.0312 0-7.6914-8.9062-32-8.9062-32zm27.938,24.938c-.2677,0-.8771,.042-1.125,.125-3.2722,1.0868-3.6416,8.2102-3.5938,13.844 .002,.2639-.1778,.5076-.375,.6562-.068,.051-.1461,.09-.2188,.125-.0333,.015-.0596,.0505-.0937,.0625-.324,.1241-.7001,.1314-1.0938,.1875-.1084-.0009-.3843,.001-.5,0v-.0312h-2.9375c-.162,0-.3515-.0283-.5312-.0312-.6413-.01-1.274,.01-2,0-.61-.01-.9949-.0242-1.6562-.0312h-.8438c-.4028,0-.8277,.005-1.2188,0-2.9617-.035-6.3601-.073-9.6875-.125-.5598-.01-1.1269-.0222-1.6875-.0312-9.9565-.1628-19.788-.3878-22.031-.7188-3.8801-.5722-6.5936-4.5053-9.9688-5.625-1.1533-.3826-2.9526-.4472-4.4688-.4375-1.5162,.01-2.75,.0937-2.75,.0937 0,0 4.8429,.5809 6.9375,1.8125 1.7277,1.0159 3.8461,3.1316 5.3125,5.1875 .4062,.5695 .5842,1.3115 .9375,1.9375h50.969c.1684-.2984 .2844-.5748 .4062-.8438 .1218-.2688 .2509-.5228 .4062-.7812 .1233-.2052 .2607-.4193 .4062-.625 .008-.012 .0229-.0202 .0312-.0312 .1305-.183 .2613-.379 .4062-.5625 .04-.05 .0841-.1057 .125-.1562 .6035-.7465 1.321-1.4982 2.0312-2.25 1.0915-1.1553 2.1894-2.3018 2.9688-3.4688 .1183-.175 .2106-.3556 .3125-.5312 .0195-.034 .0437-.0598 .0625-.0937v-.0312c.4516-.8131 .7272-1.6198 .6875-2.4375-.0312-.6438-.2922-1.3404-.6875-2-.0726-.1204-.1375-.2576-.2188-.375-.0508-.073-.1023-.1464-.1562-.2188-.1309-.1749-.2903-.3346-.4375-.5-.7395-.8288-1.6533-1.522-2.5312-1.8438-.0399-.014-.0848-.0202-.125-.0312-.083-.027-.1681-.0727-.25-.0937-.1377-.034-.2695-.0455-.4062-.0625-.1367-.017-.2724-.0333-.4062-.0312v-.0312zm-52.9384,18.0614c2.9674,4.4304 8.2482,7.944 14.75,9.75h20.125c.8095-.2245 1.6063-.4718 2.375-.75 .5299-.19 1.0533-.4118 1.5625-.625v.0312c.1276-.053 .2489-.1018 .375-.1562 1.047-.4535 2.0213-.9856 2.9688-1.5312v.0312c.2826-.1626 .5707-.3297 .8438-.5v-.0312c2.2056-1.378 4.1101-3.0018 5.5938-4.8125 .1607-.1954 .3177-.394 .4688-.5938 .2034-.2695 .4082-.5355 .5938-.8125h-49.656zm14.812,10.844c-1.8637,1.0974-3.2281,2.4858-3.9375,4.0625h27.906c-.2132-.4739-.4825-.9366-.8125-1.375-.0771-.1021-.167-.2126-.25-.3125-.3283-.3937-.7092-.7682-1.125-1.125-.1476-.1268-.3109-.2533-.4688-.375-.0288-.022-.0646-.0102-.0937-.0312-.3793-.2866-.7853-.5575-1.2188-.8125h-20v-.0312z"/>
</g>
<g transform="matrix(.20316 0 0 .22457 8.28145 -25.53136)">
<path fill="url(#linearGradient4126)" d="m117.86,113.69c0,0-36.402,89.798-36.402,118.22 0,9.5685 4.1151,16.842 9.5897,22.294h53.596c5.4762-5.4525 9.6177-12.723 9.6177-22.294 0-28.421-36.402-118.22-36.402-118.22z"/>
<path fill="url(#linearGradient4128)" d="m117.86,126.04c0,0-32.516,78.04-32.516,102.75 0,10.08 5.4168,17.251 11.826,22.199h41.378c6.4096-4.948 11.826-12.119 11.826-22.199 0-24.707-32.516-102.75-32.516-102.75z"/>
<path fill="url(#linearGradient4130)" d="m117.88,173.46c0,0-21.863,47.145-21.863,62.068 0,7.6665 5.7726,12.535 11.379,15.461h20.941c5.608-2.9257 11.379-7.7922 11.379-15.461 0-14.923-21.835-62.068-21.835-62.068z"/>
</g>
<g transform="matrix(.20316 0 0 .22457 -3.30868 -7.56608)">
<path fill="url(#linearGradient4122)" d="m289.01,125.86c-1.0936,.0101-3.5187,.1646-4.5312,.4688-13.365,4.0155-14.856,30.353-14.661,51.17 .009,.9751-.8507,1.8568-1.6562,2.4062-1.6073,1.0964-3.5439,1.0361-5.6875,1.3125-34.333-.2651-158.99-1.3858-176-3.6562-15.848-2.1144-26.933-16.613-40.719-20.75-4.7105-1.4137-12.089-1.7232-18.281-1.6875-6.1927,.0357-11.188,.4375-11.188,.4375 0,0 19.726,2.074 28.281,6.625 7.0567,3.7539 15.729,11.653 21.719,19.25 1.659,2.1042 2.3383,4.7807 3.7812,7.0938h208.25c1.3755-2.2048 2.0438-4.1214 3.3125-6.0312 8.1926-12.332 29.409-24.899 28.728-37.607-.4045-7.541-9.9677-16.829-18-18.656-1.1245-.2558-2.2501-.3851-3.3438-.375zm-1.6518,11.451c6.1117,.012 13.288,6.3087 13.424,12.312 .2605,11.498-10.862,19.926-21.906,29.281-.6995,.5925-4.4926,.8844-4.5357-.0312-1.1078-23.534-1.3908-38.715 11.83-41.438 .3921-.0807 .7801-.1258 1.1875-.125zm-214.55,55.28c12.12,16.371 33.693,29.327 60.25,36h82.219c26.571-6.6688 48.156-19.625 60.281-36h-202.75zm60.531,40.031c-7.6123,4.0549-13.29,9.2364-16.188,15.062h114.06c-2.9006-5.8323-8.5704-11.008-16.188-15.062h-81.688z"/>
<path opacity=".21" fill="url(#linearGradient4124)" d="m289,125.88c-1.0936,.0101-3.5187,.1646-4.5312,.4688-13.365,4.0155-14.852,30.339-14.656,51.156 .009,.9751-.8507,1.8568-1.6562,2.4062-.5471,.3732-1.1314,.5859-1.75,.75v7.875h11.906c1.3755-2.2048 2.0438-4.1214 3.3125-6.0312 2.9278-4.4073 7.5268-8.8496 12.188-13.312v-3.8438c-4.101,4.6097-9.5249,8.9778-14.938,13.562-.6995,.5925-4.4881,.8844-4.5312-.0312-1.1078-23.534-1.4087-38.715 11.812-41.438 .3921-.0807 .7801-.1258 1.1875-.125 2.141,.004 4.4149,.7986 6.4688,2.0625v-12.75c-.489-.1607-.9884-.2657-1.4688-.375-1.1245-.2558-2.2501-.3851-3.3438-.375zm9.125,2.7812v14.469c1.5882,1.9791 2.6055,4.2614 2.6562,6.5 .0798,3.5223-.9292,6.7515-2.6562,9.8125v5.5625c1.1693-1.1512 2.3206-2.3144 3.4062-3.4688v-30.5c-1.0986-.882-2.236-1.6838-3.4062-2.375zm6,4.6875v25.281c1.2886-1.5318 2.4546-3.0569 3.4062-4.5938v-16.562c-.9599-1.4395-2.1152-2.8273-3.4062-4.125zm-148.28,46.594v8.5938h15.438v-8.3438c-5.2792-.0816-10.283-.1585-15.438-.25zm20.594,.3438v8.25h6.8438v-8.1562c-2.2867-.0321-4.5538-.0598-6.8438-.0937zm10.281,.125v8.125h6.8438v-8.0312c-2.261-.0294-4.5629-.0625-6.8438-.0937zm10.281,.125v8h3.4375v-7.9375c-1.1838-.0146-2.2442-.0473-3.4375-.0625zm6,.0937v7.9062h3.4375v-7.875c-1.163-.0138-2.2621-.017-3.4375-.0312zm7.6875,.0625v7.8438h17.156v-7.625c-5.6936-.0578-10.863-.1464-17.156-.2188zm20.594,.25v7.5938h6.875v-7.5312c-2.4916-.0232-4.1737-.0359-6.875-.0625zm13.719,.125v7.4688h3.4062v-7.4375c-1.0498-.009-2.2911-.0214-3.4062-.0312zm8.5625,.0625v7.4062h6.8438v-7.3438c-1.5838-.0124-4.9482-.0469-6.8438-.0625zm-97.719,11.469v36h15.438v-36h-15.438zm20.594,0v36h6.8438v-36h-6.8438zm10.281,0v36h6.8438v-36h-6.8434zm10.281,0v36h3.4375v-36h-3.4375zm6,0v36h3.4375v-36h-3.4375zm7.6875,0v36h4.5938c4.3305-1.0868 8.5163-2.3728 12.562-3.7812v-32.219h-17.156zm20.594,0v31c2.3513-.8885 4.6388-1.82 6.875-2.8125v-28.188h-6.875zm13.719,0v24.875c1.1544-.6009 2.2909-1.2145 3.4062-1.8438v-23.031h-3.4062zm8.5625,0v19.938c2.3984-1.5347 4.6711-3.1443 6.8438-4.8125v-15.125h-6.8438zm12.844,0v10.094c3.4574-3.1896 6.5368-6.5562 9.1562-10.094h-9.1562zm-110.56,40.031v15.062h15.438v-15.062h-15.438zm20.594,0v15.062h6.8438v-15.062h-6.8438zm10.281,0v15.062h6.8438v-15.062h-6.8438zm10.281,0v15.062h3.4375v-15.062h-3.4375zm6,0v15.062h3.4375v-15.062h-3.4375zm7.6875,0v15.062h17.156v-5.0938c-3.139-3.7594-7.5018-7.1421-12.812-9.9688h-4.3438z"/>
</g>
</svg>
