<svg xmlns="http://www.w3.org/2000/svg" viewBox="0 0 86.9503 261.7392" xmlns:xlink="http://www.w3.org/1999/xlink">
<defs>
<linearGradient gradientTransform="translate(.32152)" id="linearGradient3933" y1="153.33" y2="302.51" gradientUnits="userSpaceOnUse" x2="0">
<stop offset="0" stop-color="#ff0"/>
<stop offset="1" stop-color="#ffed00" stop-opacity="0"/>
</linearGradient>
<linearGradient gradientTransform="matrix(.89467 0 0 .76684 -180.42 -11.313)" id="linearGradient3935" xlink:href="#linearGradient2836" y1="240.95" y2="347" gradientUnits="userSpaceOnUse" x2="0"/>
<linearGradient id="linearGradient2836">
<stop offset="0" stop-color="#ffbd00"/>
<stop offset="1" stop-color="#f00"/>
</linearGradient>
<linearGradient gradientTransform="translate(23 -568.95)" id="linearGradient8365" x1="426.49" gradientUnits="userSpaceOnUse" x2="405.56">
<stop offset="0" stop-color="#fff"/>
<stop offset="1" stop-color="#fff" stop-opacity="0"/>
</linearGradient>
<linearGradient gradientTransform="matrix(.27171 0 0 .27093 699.66 812.82)" id="linearGradient8363" y1="341.04" y2="341.55" x1="-1246.3" gradientUnits="userSpaceOnUse" x2="-852.7">
<stop offset="0" stop-color="#2b1100"/>
<stop offset=".329"/>
<stop offset="1" stop-color="#2b1100"/>
</linearGradient>
<linearGradient gradientTransform="matrix(1.4912 0 0 1.4604 -379.31 -238.2)" id="linearGradient3931" xlink:href="#linearGradient2836" y1="264.18" y2="347" x1="333.4" gradientUnits="userSpaceOnUse" x2="333.35"/>
</defs>
<g transform="matrix(.82979 0 0 .82979 -367.12427 -555.10089)">
<path opacity=".351" fill="#fc0" d="m493.09,670.33c-16.37,0-29.562,12.62-29.562,28.281v6.25h5.9375v-3.9688c0-13.252 10.54-23.938 23.625-23.938 10.223,0 18.884,6.5183 22.188,15.688 .008,.022 .0236,.0103 .0312,.0312 .0623,.1745 .1291,.355 .1875,.5312 .2099,.6349 .3736,1.2799 .5312,1.9375 .1477,.615 .275,1.2421 .375,1.875 .1975,1.2484 .3125,2.5051 .3125,3.8125v72.374c-.002,0-.2694,.5131-.3125,.5938-.8459,1.5543-6.113,11.307-7.2812,17.219 2.9851,.5683 6.5877,.875 10.469,.875 1.5883,0 3.126-.087 4.5938-.1875v.0312c.2418-.017 .51-.0445 .75-.0625 .2162-.017 .4122-.0122 .625-.0312 .2704-.025 .5166-.0345 .7812-.0625v-.0312c.3229-.035 .6549-.0538 .9688-.0937 .8151-.1026 1.5957-.2085 2.3438-.3438-.0949-.5351-.2187-1.12-.375-1.7188-.074-.281-.1643-.5832-.25-.875-.0906-.3108-.2105-.6482-.3125-.9688-.1988-.6172-.393-1.2664-.625-1.9062-.008-.021-.0236-.0415-.0312-.0625-.0996-.2737-.2085-.537-.3125-.8125-.4458-1.1864-.9197-2.3519-1.4062-3.5-.271-.6395-.5147-1.2742-.7812-1.875v.0625c-.1978-.4463-.3729-.865-.5625-1.2812-.1584-.3476-.291-.6527-.4375-.9688-.4631-.9976-.7994-1.6766-1.125-2.3438v-.0625c-.41-.8386-.801-1.5399-.8125-1.5625v-74.656c0-.4909-.005-.9543-.0312-1.4375-.003-.062 .004-.125 0-.1875-.0543-.8975-.1727-1.7844-.3125-2.6562-.0297-.1872-.0602-.3766-.0937-.5625-.0515-.2834-.0961-.5629-.1562-.8438-.6866-3.2262-1.9324-6.249-3.6562-8.9688-.2464-.3887-.5141-.7808-.7812-1.1562-.005-.01 .005-.0243 0-.0312-.2592-.3635-.5356-.7116-.8125-1.0625-.014-.018-.0172-.0455-.0312-.0625-.2736-.345-.5547-.6675-.8438-1-.019-.022-.0434-.0415-.0625-.0625-.281-.3214-.5812-.6591-.875-.9688-5.3978-5.6839-13.178-9.25-21.875-9.25zm-28.906,36.188c-2.453-.045-5.0302,7.5192-6.6875,9.25-1.1113,1.1605-1.9276,5.6534-2.5,8.625 3.4169-1.9163 7.3256-3 11.469-3 4.1288,0 7.9978,1.096 11.406,3-.5708-2.9784-1.3891-7.4649-2.5-8.625-1.6573-1.7308-4.2345-9.2955-6.6875-9.25-1.499-.015-3.0009-.01-4.5,0zm2.2812,17.094c-8.9,0-16.639,5.375-20.375,13.219-.0338,.073-.0607,.1451-.0937,.2188-.1802,.3881-.3395,.7879-.5,1.1875-.1839,.4726-.3441,.9504-.5,1.4375-.7797,2.4356-1.2188,5.0356-1.2188,7.75 0,13.291 10.145,24.062 22.656,24.062 12.511,0 22.656-10.772 22.656-24.062 0-3.7666-.8231-7.3245-2.2812-10.5-.011-.023-.0204-.0395-.0312-.0625-.1118-.2415-.2246-.4819-.3438-.7188-.1751-.3394-.3413-.6708-.5312-1-3.989-6.9142-11.194-11.531-19.438-11.531zm-9.25,47.594c.79,1.7897 1.9813,5.0318 3.4688,5.9375h11.469c1.4898-.9073 2.6807-4.1487 3.4688-5.9375-2.8412,1.2606-5.9485,1.9688-9.2188,1.9688-3.2539,0-6.3602-.7201-9.1875-1.9688zm4.0312,7.25c.8646,5.4216 2.8796,9.1875 5.2188,9.1875 2.3392,0 4.2916-3.7659 5.1562-9.1875h-10.375zm3.875,10.094c.0305,1.8777 .2498,5.7188 1.3438,5.7188 1.0939,0 1.2507-3.841 1.2812-5.7188-.4186,.2942-.8229,.4375-1.2812,.4375-.4584,0-.9248-.1433-1.3438-.4375zm43.75,4.1875c-.4045,3.97 .3759,7.921 .6875,12.125h19.594c.0008-.01-.0008-.0213 0-.0312 .3109-4.1677 1.0697-8.0768 .7188-12.031-.8203,.1529-1.6599,.2581-2.5625,.375v.0312c-.3138,.041-.646,.0577-.9688,.0937-.2642,.029-.5114,.099-.7812,.125-.1906,.018-.3691,.0153-.5625,.0312-.2577,.022-.5502,.0435-.8125,.0625-.2483,.018-.4977,.0163-.75,.0312-.5165,.031-1.0308,.0435-1.5625,.0625-.2558,.01-.5222,.0252-.7812,.0312-.4961,.012-.993,.0312-1.5,.0312-.414,0-.8116-.0242-1.2188-.0312-.578-.011-1.1568-.0103-1.7188-.0312-2.8651-.1289-5.5043-.4264-7.7812-.875zm6,14.031v.0312h-14.469c1.4262,1.8677 3.5463,3.4987 6.1562,4.75h25.656c.3339-.16 .6535-.3276 .9688-.5 .6652-.359 1.2866-.7486 1.875-1.1562 .1886-.131 .3798-.269 .5625-.4062 .4961-.3739 .9789-.7491 1.4062-1.1562v-.0312c.0361-.034 .0894-.0588 .125-.0937 .0215-.021 .0412-.0415 .0625-.0625 .1886-.1862 .3578-.3701 .5312-.5625 .0292-.033 .0649-.0608 .0937-.0937 .2001-.2266 .3841-.4529 .5625-.6875 .005-.01-.005-.0252 0-.0312h-1.375v.0315h-1.1875v-.0312h-.7812v.0312h-1.5312v-.0312h-1.5625v.0312h-.7812v-.0312h-3.875v.0312h-.9688v-.0312h-.7812v.0312h-.5625v-.0312h-.8125v.0312h-.75v-.0312h-1.5625v.0312h-.7812v-.0312h-1.5312v.0312h-1.1875v-.0312h-3.5zm-9.0312,6.7188c-6.3438,1.2235-11.425,3.1378-14.312,5.4375h55.688c-.0108-.01-.0204-.0232-.0312-.0312-.0295-.023-.064-.009-.0937-.0312-.3004-.2334-.6244-.4628-.9688-.6875v-.0312c-.4472-.2909-.9499-.5676-1.4688-.8438-.4216-.2241-.8469-.4434-1.3125-.6562-.0701-.032-.1477-.0617-.2188-.0937-.4429-.1978-.9269-.4064-1.4062-.5938-.1084-.042-.2336-.083-.3438-.125-.0121,0-.0191-.0273-.0312-.0312-.459-.1735-.9493-.3369-1.4375-.5-1.2559-.4186-2.6262-.8084-4.0625-1.1562-.2576-.062-.5183-.1276-.7812-.1875v.0312c-.5001-.114-1.0127-.2387-1.5312-.3438-.1996-.04-.3915-.086-.5938-.125h-27.094v-.0312zm3.2812,7.5625c.8148,3.8781 2.0593,7.1929 3.5938,9.6875h13.312c.455-.7396 .8813-1.5599 1.2812-2.4375v-.0312c.4665-1.0267 .9001-2.149 1.2812-3.3438 .1111-.3489 .2093-.7316 .3125-1.0938 .255-.8957 .4837-1.811 .6875-2.7812h-20.469zm4.125,11.656-5.75,81.75h23.781l-4.9375-70.094-.4062-5.7812-.4062-5.875h-12.281zm-5.9062,83.719c-3.8078,3.0707-6.8801,7.584-8.7812,12.938h41.562c-.0623-.1754-.154-.3575-.2188-.5312-1.055-2.8249-2.4201-5.4132-4.0625-7.6562-.171-.2334-.354-.4594-.5312-.6875-.5689-.7283-1.157-1.4153-1.7812-2.0625-.2474-.2565-.4949-.5045-.75-.75-.006-.01-.0255,.01-.0312,0-.2607-.2504-.5118-.5166-.7812-.75v.0312c-.1899-.1646-.3687-.3428-.5625-.5v-.0312h-24.062zm-2.7188,14.875-2,53.094h33.5l-.2812-7.5-.7812-20.406-.9375-25.188h-29.5z"/>
</g>
<g transform="matrix(.20802 0 0 .15394 -5.72639 31.76425)">
<path fill="url(#linearGradient3931)" d="m117.86,113.69c0,0-36.402,89.798-36.402,118.22 0,9.5685 4.1151,16.842 9.5897,22.294h53.596c5.4762-5.4525 9.6177-12.723 9.6177-22.294 0-28.421-36.402-118.22-36.402-118.22z"/>
<path fill="url(#linearGradient3933)" d="m117.86,126.04c0,0-32.516,78.04-32.516,102.75 0,10.08 5.4168,17.251 11.826,22.199h41.378c6.4096-4.948 11.826-12.119 11.826-22.199 0-24.707-32.516-102.75-32.516-102.75z"/>
<path fill="url(#linearGradient3935)" d="m117.88,173.46c0,0-21.863,47.145-21.863,62.068 0,7.6665 5.7726,12.535 11.379,15.461h20.941c5.608-2.9257 11.379-7.7922 11.379-15.461 0-14.923-21.835-62.068-21.835-62.068z"/>
</g>
<g transform="matrix(.68111 0 0 .65159 -232.89698 -430.55764)">
<path fill="url(#linearGradient8363)" d="m402,660.78c-19.944,0-36,16.056-36,36v7.9688h7.25v-5.0625c0-16.877 12.808-30.469 28.75-30.469 15.942,0 28.781,13.592 28.781,30.469v92.125c0,0-7.6744,14.519-9.2188,22.688 3.6368,.7238 8.0217,1.125 12.75,1.125 4.5233,0 8.7147-.3631 12.25-1.0312-1.3726-8.0898-8.5625-22.781-8.5625-22.781v-95.031c0-19.944-16.056-36-36-36zm-35.188,46.094c-2.9885-.0579-6.1372,9.5544-8.1562,11.758-1.3539,1.4779-2.3652,7.2157-3.0625,11 4.1629-2.4404 8.9211-3.8125 13.969-3.8125 5.0302,0 9.7537,1.3878 13.906,3.8125-.6954-3.7929-1.6779-9.5226-3.0312-11-2.0191-2.2041-5.1677-11.816-8.1562-11.758-1.8263-.019-3.6424-.0129-5.4688,0zm2.75,21.758c-10.843,0-20.261,6.8548-24.812,16.844-.0412,.0932-.0847,.1876-.125,.2812-.2195,.4943-.3982,.9911-.5938,1.5-.2241,.6018-.435,1.2234-.625,1.8438-.9499,3.1016-1.4688,6.4182-1.4688,9.875 0,16.925 12.351,30.625 27.594,30.625 15.243,0 27.625-13.7 27.625-30.625 0-4.7967-1.0048-9.3311-2.7812-13.375-.0134-.0298-.0179-.0641-.0312-.0937-.1362-.3075-.2924-.6046-.4375-.9062-.2133-.4322-.4248-.862-.6562-1.2812-4.8599-8.805-13.645-14.688-23.688-14.688zm-.0312,3.1562h.0312c13.721,.0186 24.844,12.254 24.844,27.344 0,13.686-9.1245,25.026-21.062,27.031-.0205,.004-.042-.003-.0625,0-.8038,.1328-1.6417,.2352-2.4688,.2812-.4137,.0225-.8312,.0312-1.25,.0312-.4292,0-.8261-.008-1.25-.0312-.8374-.0467-1.6864-.1457-2.5-.2812-.0102-.002-.0213,.002-.0312,0-.803-.1349-1.5679-.314-2.3438-.5312-.0188-.005-.0437,.005-.0625,0-.3783-.107-.7539-.2491-1.125-.375-10.153-3.4429-17.531-13.832-17.531-26.125 0-15.09 11.091-27.325 24.812-27.344zm-19.719,40.281c1.4996,2.7746 3.4658,5.2032 5.7812,7.1562 .3859,.3255 .7828,.6391 1.1875,.9375 3.6427,2.6858 8.0251,4.25 12.75,4.25 8.3997,0 15.751-4.9447 19.75-12.344h-39.469zm8.5,17.188c.9625,2.2792 2.4066,6.3778 4.2188,7.5312h13.969c1.815-1.1555 3.2899-5.2533 4.25-7.5312-3.4614,1.6053-7.2658,2.5-11.25,2.5-3.9643,0-7.743-.9098-11.188-2.5zm4.9062,9.25c1.0534,6.9043 3.4939,11.719 6.3438,11.719 2.8499,0 5.2591-4.8144 6.3125-11.719h-12.656zm4.7188,12.875c.0372,2.3912 .2923,7.2812 1.625,7.2812 1.3328,0 1.5566-4.8901 1.5938-7.2812-.51,.3747-1.0353,.5625-1.5938,.5625-.5585,0-1.1146-.1878-1.625-.5625zm53.312,5.3041c-.4928,5.0558 .4641,10.084 .8438,15.438h23.875c.3787-5.3075 1.3026-10.308 .875-15.344-3.5956,.7002-7.8881,1.125-12.531,1.125-4.8618,0-9.3638-.457-13.062-1.2188zm-10.344,17.906c1.7376,2.3785 4.3203,4.4689 7.5,6.0625h31.281c3.189-1.5974 5.793-3.673 7.5312-6.0625h-46.312zm6.625,8.5312c-7.7287,1.5581-13.919,3.9776-17.438,6.9062h67.875c-3.5192-2.9293-9.6856-5.3484-17.406-6.9062h-33.031zm4.0312,9.625c.9927,4.9387 2.5056,9.167 4.375,12.344h16.188c1.8694-3.1767 3.3818-7.4017 4.375-12.344h-24.938zm5,14.844-7,104.12h28.969l-7-104.12h-14.969zm-7.1875,106.62c-4.6392,3.9106-8.3713,9.6511-10.688,16.469h50.625c-2.3075-6.7971-6.0127-12.527-10.625-16.438v-.0312h-29.312zm-3.3125,18.938-2.4375,67.625h40.812l-2.4375-67.625h-35.9393z"/>
<path opacity=".21" fill="url(#linearGradient8365)" d="m428.56,70.094v15.438c1.4296,3.6229 2.2188,7.5977 2.2188,11.781v92.125c0,0-.9412,1.8306-2.2188,4.4688v19.125c1.3714,.102 2.7897,.1605 4.25,.1875v-137.5c-1.2231-2.0172-2.6666-3.895-4.25-5.625zm5.6875,8.2812v134.88c.0213,0 .0412,0 .0625,0 .6187,0 1.207-.0178 1.8125-.0312v-130.2803c-.5259-1.5747-1.1464-3.0944-1.875-4.5625zm2.8125,7.8438v126.97c.6465-.0219 1.2782-.0567 1.9062-.0937v-21.625c-.51-1.1-.97-2.04-.97-2.04v-95.031c0-2.827-.327-5.5514-.9375-8.1875zm2.8438,107.34v19.5c.3189-.023 .6555-.0356 .9688-.0625v-17.25c-.3452-.7918-.6627-1.5093-.9688-2.1875zm1.6562,3.75v15.594c.3294-.0318 .6463-.0576 .9688-.0937v-13.125c-.3302-.8144-.644-1.6099-.9688-2.375zm2.125,5.3438v10c.993-.1307 1.9636-.2653 2.875-.4375-.4609-2.7165-1.5947-6.1635-2.875-9.5625zm3.1562,11.75c-.9994,.1946-2.0566,.3511-3.1562,.5v14.844h2.2812c.3787-5.3075 1.3026-10.308 .875-15.344zm-4.3125,.6562c-.3219,.0375-.6399,.0917-.9688,.125v14.562h.9688v-14.688zm-1.65,.19c-.3139,.0285-.6492,.038-.9688,.0625v14.438h.9688v-14.5zm-12.312,.0625v14.438h4.25v-14.25c-1.4595-.0289-2.8789-.0808-4.25-.1875zm10.406,.0625c-.6292,.0399-1.2585,.0699-1.9062,.0937v14.281h1.9062v-14.375zm-2.86,.13c-.6044,.0147-1.1948,.0312-1.8125,.0312-.0213,0-.0412,0-.0625,0v14.219h1.875v-14.25zm-7.5625,16.719v6.0625h4.25v-6.0625h-4.25zm5.6875,0v6.0625h1.875v-6.0625h-1.875zm2.8125,0v6.0625h1.9062v-6.0625h-1.9062zm2.8438,0v6.0625h.9688v-6.0625h-.9688zm1.6562,0v6.0625h.9688v-6.0625h-.9688zm2.125,0v6.0625h4.75v-6.0625h-4.75zm5.6875,0v6.0625h.3125c.5528-.2769 1.0775-.5702 1.5938-.875v-5.1875h-1.9062zm3.7812,0v3.9688c.3188-.2316 .6388-.4757 .9375-.7188v-3.25h-.9375zm2.375,0v1.9688c.6243-.6222 1.1956-1.2925 1.6875-1.9688h-1.6875zm-26.969,8.5312v6.9062h4.25v-6.9062h-4.25zm5.6875,0v6.9062h1.875v-6.9062h-1.875zm2.8125,0v6.9062h1.9062v-6.9062h-1.9062zm2.8438,0v6.9062h.9688v-6.9062h-.9688zm1.6562,0v6.9062h.9688v-6.9062h-.9688zm2.125,0v6.9062h4.75v-6.9062h-4.75zm5.6875,0v6.9062h1.9062v-6.75c-.2432-.0515-.4724-.1065-.7188-.1562h-1.1875zm3.7812,.5625v6.3438h.9375v-6.0938c-.3139-.0795-.6172-.1736-.9375-.25zm2.375,.6562v5.6875h1.875v-5.1562c-.6094-.1907-1.2342-.3535-1.875-.5312zm3.5312,1.0625v4.625h7.5625v-1c-1.9766-1.3443-4.5489-2.5726-7.5625-3.625zm8.75,4.5v.125h.1562c-.0492-.041-.106-.0842-.1562-.125zm-39.25,2.8438v12.344h4.25v-12.344h-4.25zm5.6875,0v12.344h1.875v-12.344h-1.875zm2.8125,0v12.344h1.9062v-12.344h-1.9062zm2.8438,0v12.344h.9688v-12.344h-.9688zm1.6562,0v12.344h.5625c.1379-.2343 .2723-.4732 .4062-.7188v-11.625h-.9688zm2.125,0v9.25c1.1569-2.6524 2.1134-5.7717 2.8125-9.25h-2.8125zm-15.125,14.844v104.12h4.25v-104.12h-4.25zm5.6875,0v104.12h1.875v-104.12h-1.875zm2.8125,0v104.12h1.9062v-104.12h-1.9062zm2.8438,0v104.12h.9688v-104.12h-.9688zm1.6562,.4688v103.66h.9688v-89.25l-.9688-14.406zm2.125,31.594v72.062h4.75v-1.4062l-4.75-70.656zm-15.125,74.562v16.469h4.25v-16.469h-4.25zm5.6875,0v16.469h1.875v-16.469h-1.875zm2.8125,0v16.469h1.9062v-16.469h-1.9062zm2.8438,0v16.469h.9688v-16.469h-.9688zm1.6562,0v16.469h.9688v-16.469h-.9688zm2.125,0v16.469h4.75v-16.469h-4.75zm5.6875,.6562v15.812h1.9062v-13.906c-.6156-.6672-1.2498-1.3119-1.9062-1.9062zm3.7812,4.125v11.688h.9375v-10.406c-.3043-.4344-.6186-.8671-.9375-1.2812zm2.375,3.5v8.1875h1.875v-4.6562c-.581-1.2314-1.1982-2.4025-1.875-3.5312zm3.5312,7.5312v.6562h.25c-.0759-.2235-.1711-.4351-.25-.6562zm-30.5,3.125v67.625h4.25v-67.625h-4.25zm5.6875,0v67.625h1.875v-67.625h-1.875zm2.8125,0v67.625h1.9062v-67.625h-1.9062zm2.8438,0v67.625h.9688v-67.625h-.9688zm1.6562,0v67.625h.9688v-67.625h-.9688zm2.125,0v67.625h4.75v-67.625h-4.75zm5.6875,0v67.625h1.9062v-67.625h-1.9062zm3.7812,32.094v35.531h.9375v-9.5312l-.9375-26z" transform="translate(0 602.36)"/>
</g>
</svg>
