<svg xmlns="http://www.w3.org/2000/svg" viewBox="0 0 85 65">
<g transform="translate(0 -.00497)">
<path fill="#babdb6" d="m81.765,44.364c0,8.62-17.091,15.616-38.15,15.616-21.058,0-38.149-6.996-38.149-15.616-.0001-8.621 17.091-15.617 38.149-15.617 21.059,0 38.15,6.996 38.15,15.617z" transform="matrix(1.0468 0 0 1.2857 -3.156 -14.349)"/>
<path fill="#204a87" fill-rule="evenodd" d="m70.058,57.198l-54.558-28.446 12-1 50,25-7.442,4.446z"/>
<path d="m42.5,22.262c-11.121,0-21.191,2.25-28.531,5.925-7.3406,3.675-12,8.821-12,14.576-.0002,5.754 4.6594,10.873 12,14.548 7.34,3.675 17.41,5.953 28.531,5.953s21.191-2.278 28.531-5.953c7.341-3.675 12-8.794 12-14.548 0-5.755-4.659-10.901-12-14.576-7.34-3.675-17.41-5.925-28.531-5.925zm0,.946c10.959,0 20.892,2.211 28.031,5.786 7.14,3.575 11.438,8.468 11.438,13.769s-4.298,10.166-11.438,13.741c-7.139,3.575-17.072,5.814-28.031,5.814s-20.892-2.239-28.031-5.814c-7.1399-3.575-11.438-8.44-11.438-13.741 .0002-5.301 4.2981-10.194 11.438-13.769 7.139-3.575 17.072-5.786 28.031-5.786z"/>
</g>
<g fill-rule="evenodd" transform="translate(0 -.00497)">
<path fill="#c17d11" d="m23.5,52.292l8,4v-9l-4-6-4,4v7z"/>
<path fill="#204a87" d="m27.5,41.292c1,0 9-5 10-5s4,5 4,6-9,5-10,5-5-6-4-6z"/>
<path fill="#e9b96e" d="m31.5,56.292l10-5v-9l-10,5v9z"/>
</g>
<g fill="none" stroke="#000" transform="translate(0 -.00497)">
<path d="m33,52.292l2-1v-3l-2,1v3z"/>
<path d="m37.103,50.115l2-1v-3l-2,1v3z"/>
</g>
<g fill-rule="evenodd" transform="translate(0 -.00497)">
<path d="m37.5,35.781c-.333,0-.54,.137-.875,.281-.335,.145-.729,.326-1.187,.563-.918,.474-2.063,1.094-3.188,1.719s-2.23,1.255-3.125,1.718c-.448,.232-.859,.434-1.156,.563-.298,.129-.552,.156-.469,.156-.5,0-.889,.274-1.344,.594s-.92,.733-1.375,1.187c-.454,.455-.898,.952-1.219,1.407-.32,.455-.562,.812-.562,1.312v7c0,.417 .237,.631 .469,.844 .231,.213 .524,.405 .875,.625 .702,.441 1.613,.932 2.562,1.375 .95,.443 1.938,.854 2.75,1.156 .406,.152 .758,.286 1.063,.375 .304,.089 .531,.125 .781,.125 .292,0 .517-.071 .875-.187 .358-.117 .783-.271 1.281-.469 .998-.396 2.241-.933 3.438-1.5s2.366-1.157 3.25-1.687c.442-.266 .811-.517 1.094-.75 .141-.117 .242-.247 .343-.376 .101-.128 .219-.281 .219-.531v-9c0-.25-.063-.461-.156-.719-.093-.257-.221-.527-.375-.843-.308-.632-.741-1.36-1.188-2.063-.447-.702-.895-1.391-1.343-1.906-.225-.257-.439-.455-.657-.625s-.448-.344-.781-.344zm0,1c-.083,0 .019,.018 .156,.125 .138,.108 .303,.273 .5,.5 .396,.454 .885,1.109 1.313,1.782 .428,.672 .807,1.381 1.093,1.968 .144,.294 .269,.543 .344,.75 .075,.208 .094,.375 .094,.375v8.938c-.031,.039-.112,.099-.219,.187-.214,.177-.551,.406-.969,.656-.834,.501-1.978,1.099-3.156,1.657s-2.372,1.083-3.344,1.469c-.485,.192-.924,.362-1.25,.468-.325,.106-.604,.125-.562,.125 0,0-.23-.015-.5-.093-.27-.079-.609-.199-1-.344-.781-.291-1.731-.693-2.656-1.125-.926-.432-1.827-.91-2.469-1.313-.321-.201-.564-.388-.719-.531s-.156-.26-.156-.094v-7s.133-.361 .406-.75c.274-.389 .642-.829 1.063-1.25 .42-.42 .892-.82 1.281-1.093 .389-.274 .75-.407 .75-.407 .333,0 .54-.105 .875-.25s.729-.325 1.187-.562c.918-.475 2.063-1.125 3.188-1.75s2.23-1.225 3.125-1.688c.448-.231 .859-.434 1.156-.562 .298-.129 .552-.188 .469-.188z"/>
<path fill="#c17d11" d="m32,56.252l8,4v-9l-4-6-4,4v7z"/>
<path fill="#204a87" d="m36,45.252c1,0 9-5 10-5s4,5 4,6-9,5-10,5-5-6-4-6z"/>
<path fill="#e9b96e" d="m40,60.252l10-5v-9l-10,5v9z"/>
<path d="m44,51.438l-.719,.374-2,1-.281,.126v4.124l.719-.374 2-1 .281-.126v-4.124zm-1,1.624v1.876l-1,.5v-1.876l1-.5z"/>
<path d="m48.094,49.25l-.719,.375-2,1-.281,.125v4.125l.718-.344 2-1 .282-.156v-4.125zm-1,1.625v1.875l-1,.5v-1.875l1-.5z"/>
<path d="m46,39.75c-.333,0-.54,.105-.875,.25s-.729,.357-1.187,.594c-.918,.474-2.063,1.094-3.188,1.718-1.125,.626-2.23,1.256-3.125,1.719-.448,.232-.859,.403-1.156,.531-.298,.129-.552,.188-.469,.188-.5,0-.889,.242-1.344,.562-.455,.321-.92,.765-1.375,1.219-.454,.455-.898,.92-1.219,1.375-.32,.455-.562,.844-.562,1.344v7c0,.417 .237,.631 .469,.844 .231,.213 .524,.404 .875,.625 .702,.441 1.613,.932 2.562,1.375 .95,.443 1.938,.853 2.75,1.156 .406,.151 .758,.255 1.063,.344 .304,.089 .531,.156 .781,.156 .292,0 .517-.071 .875-.188 .358-.116 .783-.302 1.281-.5 .998-.395 2.241-.901 3.438-1.468s2.366-1.189 3.25-1.719c.442-.265 .811-.517 1.094-.75 .141-.117 .242-.215 .343-.344s.219-.281 .219-.531v-9c0-.25-.063-.461-.156-.719-.093-.257-.221-.528-.375-.843-.308-.632-.741-1.392-1.188-2.094-.447-.703-.895-1.361-1.343-1.875-.225-.258-.439-.486-.657-.657-.218-.17-.448-.312-.781-.312zm0,1c-.083,0 .019,.018 .156,.125 .138,.107 .303,.273 .5,.5 .396,.454 .885,1.109 1.313,1.781 .428,.673 .807,1.382 1.093,1.969 .144,.294 .269,.542 .344,.75s.094,.375 .094,.375v8.906c-.031,.04-.112,.131-.219,.219-.214,.177-.551,.406-.969,.656-.834,.501-1.978,1.099-3.156,1.657-1.178,.557-2.372,1.083-3.344,1.468-.485,.193-.924,.332-1.25,.438-.325,.106-.604,.156-.562,.156 0,0-.23-.015-.5-.094s-.609-.198-1-.344c-.781-.291-1.731-.693-2.656-1.124-.926-.432-1.827-.91-2.469-1.313-.321-.201-.564-.389-.719-.531-.155-.143-.156-.261-.156-.094v-7s.133-.361 .406-.75c.274-.389 .642-.861 1.063-1.281 .42-.421 .892-.789 1.281-1.063 .389-.273 .75-.406 .75-.406 .333,0 .54-.105 .875-.25s.729-.357 1.187-.594c.918-.474 2.063-1.094 3.188-1.718 1.125-.626 2.23-1.256 3.125-1.719 .448-.232 .859-.403 1.156-.531 .298-.129 .552-.188 .469-.188z"/>
</g>
<g transform="translate(0 -.00497)">
<path fill="#edd400" d="m37.703,18.484l9.594,4.239 .251,10.43-10.096-5.131 .251-9.538z"/>
<path fill-rule="evenodd" d="m37.5,17.156c-.098,.024-.237,.076-.344,.188-.106,.112-.156,.271-.156,.406v10c0,.271 .113,.399 .219,.531s.223,.278 .375,.407c.304,.256 .707,.539 1.187,.843 .96,.608 2.238,1.276 3.5,1.907 1.262,.63 2.501,1.207 3.469,1.562 .484,.177 .911,.29 1.25,.344 .17,.026 .304,.048 .5,0 .098-.024 .237-.045 .344-.156 .106-.112 .156-.303 .156-.438v-10c0-.271-.113-.399-.219-.531s-.223-.278-.375-.407c-.304-.256-.707-.508-1.187-.812-.96-.608-2.238-1.307-3.5-1.938-1.262-.63-2.501-1.207-3.469-1.562-.484-.177-.911-.29-1.25-.344-.17-.026-.304-.048-.5,0zm.5,1.032c.218,.047 .492,.109 .875,.25 .907,.332 2.168,.88 3.406,1.5 1.238,.619 2.46,1.326 3.375,1.906 .458,.29 .851,.545 1.094,.75 .122,.102 .21,.199 .25,.25v9.468c-.218-.047-.492-.109-.875-.25-.907-.332-2.168-.88-3.406-1.5-1.238-.619-2.46-1.295-3.375-1.874-.458-.29-.851-.577-1.094-.782-.122-.102-.21-.199-.25-.25v-9.468z"/>
<path fill="#fce94f" d="m47.548,23.002l9.955-4.825 .14,9.873-10.207,4.908 .112-9.956z"/>
<path fill-rule="evenodd" d="m57,17.156c-.339,.054-.766,.167-1.25,.344-.968,.355-2.207,.932-3.469,1.562-1.262,.631-2.54,1.33-3.5,1.938-.48,.304-.883,.556-1.187,.812-.152,.129-.269,.275-.375,.407s-.219,.26-.219,.531v10c0,.135 .05,.326 .156,.438 .107,.111 .246,.132 .344,.156 .196,.048 .33,.026 .5,0 .339-.054 .766-.167 1.25-.344 .968-.355 2.207-.932 3.469-1.562 1.262-.631 2.54-1.299 3.5-1.907 .48-.304 .883-.587 1.187-.843 .152-.129 .269-.275 .375-.407s.219-.26 .219-.531v-10c0-.135-.05-.294-.156-.406-.107-.112-.246-.164-.344-.188-.196-.048-.33-.026-.5,0zm0,1.032v9.468c-.04,.051-.128,.148-.25,.25-.243,.205-.636,.492-1.094,.782-.915,.579-2.137,1.255-3.375,1.874-1.238,.62-2.499,1.168-3.406,1.5-.383,.141-.657,.203-.875,.25v-9.468c.04-.051 .128-.148 .25-.25 .243-.205 .636-.46 1.094-.75 .915-.58 2.137-1.287 3.375-1.906 1.238-.62 2.499-1.168 3.406-1.5 .383-.141 .657-.203 .875-.25z"/>
<path fill="#fff" d="m37.285,17.759l10.374-5.159 10.151,5.103-10.29,5.187-10.235-5.131z"/>
</g>
<g fill-rule="evenodd" transform="translate(0 -.00497)">
<path d="m47.5,12.25c-.292,0-.517,.071-.875,.188-.358,.116-.783,.302-1.281,.5-.998,.395-2.241,.932-3.438,1.5-1.197,.567-2.366,1.157-3.25,1.687-.442,.265-.811,.517-1.094,.75-.141,.117-.242,.215-.343,.344s-.219,.281-.219,.531 .118,.402 .219,.531 .202,.227 .343,.344c.283,.233 .652,.485 1.094,.75 .884,.53 2.053,1.152 3.25,1.719s2.44,1.073 3.438,1.468c.498,.198 .923,.384 1.281,.5 .358,.117 .583,.188 .875,.188s.517-.071 .875-.188c.358-.116 .783-.302 1.281-.5 .998-.395 2.241-.901 3.438-1.468s2.366-1.189 3.25-1.719c.442-.265 .811-.517 1.094-.75 .141-.117 .242-.215 .343-.344s.219-.281 .219-.531-.118-.402-.219-.531-.202-.227-.343-.344c-.283-.233-.652-.485-1.094-.75-.884-.53-2.053-1.12-3.25-1.687-1.197-.568-2.44-1.105-3.438-1.5-.498-.198-.923-.384-1.281-.5-.358-.117-.583-.188-.875-.188zm0,1c-.042,0 .237,.05 .562,.156 .326,.106 .765,.245 1.25,.438 .972,.385 2.166,.942 3.344,1.5s2.322,1.124 3.156,1.625c.418,.25 .755,.479 .969,.656 .061,.051 .087,.087 .125,.125-.038,.038-.064,.074-.125,.125-.214,.177-.551,.406-.969,.656-.834,.501-1.978,1.099-3.156,1.657-1.178,.557-2.372,1.083-3.344,1.468-.485,.193-.924,.332-1.25,.438-.325,.106-.604,.156-.562,.156s-.237-.05-.562-.156c-.326-.106-.765-.245-1.25-.438-.972-.385-2.166-.911-3.344-1.468-1.178-.558-2.322-1.156-3.156-1.657-.418-.25-.755-.479-.969-.656-.061-.051-.087-.087-.125-.125 .038-.038 .064-.074 .125-.125 .214-.177 .551-.406 .969-.656 .834-.501 1.978-1.067 3.156-1.625s2.372-1.115 3.344-1.5c.485-.193 .924-.332 1.25-.438 .325-.106 .604-.156 .562-.156z"/>
<path d="m52,21.938l-.719,.374-2,1-.281,.126v4.124l.719-.374 2-1 .281-.126v-4.124zm-1,1.624v1.876l-1,.5v-1.876l1-.5z"/>
<path d="m56,19.938l-.719,.374-2,1-.281,.126v4.124l.719-.374 2-1 .281-.126v-4.124zm-1,1.624v1.876l-1,.5v-1.876l1-.5z"/>
</g>
<g transform="translate(0 -.00497)">
<path fill="#c4a000" d="m41.217,17.787l6.275-3.346 6.219,3.346-6.247,3.263-6.247-3.263z"/>
<path fill-rule="evenodd" d="m47.5,14.25c-.417,0-.902,.134-1.531,.344-.629,.209-1.359,.492-2.063,.812s-1.351,.677-1.875,1.032c-.262,.177-.507,.366-.687,.562-.181,.196-.344,.417-.344,.75s.163,.554 .344,.75c.18,.196 .425,.385 .687,.562 .524,.355 1.171,.712 1.875,1.032s1.434,.603 2.063,.812c.629,.21 1.114,.344 1.531,.344s.902-.134 1.531-.344c.629-.209 1.359-.492 2.063-.812s1.351-.677 1.875-1.032c.262-.177 .507-.366 .687-.562 .181-.196 .344-.417 .344-.75s-.163-.554-.344-.75c-.18-.196-.425-.385-.687-.562-.524-.355-1.171-.712-1.875-1.032s-1.434-.603-2.063-.812c-.629-.21-1.114-.344-1.531-.344zm0,1c.083,0 .598,.116 1.188,.312 .589,.197 1.297,.477 1.968,.782s1.336,.636 1.782,.937c.222,.151 .371,.302 .468,.407 .097,.104 .094,.145 .094,.062s.003-.011-.094,.094-.246,.224-.468,.375c-.446,.301-1.111,.632-1.782,.937s-1.379,.585-1.968,.782c-.59,.196-1.105,.312-1.188,.312s-.598-.116-1.188-.312c-.589-.197-1.297-.477-1.968-.782s-1.336-.636-1.782-.937c-.222-.151-.371-.27-.468-.375s-.094-.177-.094-.094-.003,.042 .094-.062c.097-.105 .246-.256 .468-.407 .446-.301 1.111-.632 1.782-.937s1.379-.585 1.968-.782c.59-.196 1.105-.312 1.188-.312z"/>
</g>
<g fill-rule="evenodd" transform="translate(-7.5 -549.61497)">
<path fill="#edd400" d="m15,587.36l10,5v-25l-10-5v25z"/>
<path fill="#fce94f" d="m25,592.36l10-5v-25l-10,5v25z"/>
<path fill="#fff" d="m15,562.36c0-1 9-5 10-5s10,4 10,5-9,5-10,5-10-4-10-5z"/>
<path fill="#c4a000" d="m19,562.36c0-1 4.575-3 6-3 1,0 6,2 6,3s-5,3-6,3-6-2-6-3z"/>
<path d="m25,556.88c-.292,0-.517,.07-.875,.18-.358,.12-.783,.27-1.281,.47-.998,.4-2.241,.93-3.438,1.5s-2.366,1.16-3.25,1.69c-.442,.26-.811,.52-1.094,.75-.141,.12-.242,.24-.343,.37s-.219,.28-.219,.54v25c0,.24 .118,.4 .219,.53s.202,.22 .343,.34c.283,.23 .652,.48 1.094,.75 .884,.53 2.053,1.12 3.25,1.69 1.197,.56 2.44,1.1 3.438,1.5 .498,.2 .923,.35 1.281,.47 .358,.11 .583,.22 .875,.22s.517-.11 .875-.22c.358-.12 .783-.27 1.281-.47 .998-.4 2.241-.94 3.438-1.5 1.197-.57 2.366-1.16 3.25-1.69 .442-.27 .811-.52 1.094-.75 .141-.12 .242-.21 .343-.34s.219-.29 .219-.53v-25c0-.26-.118-.41-.219-.54s-.202-.25-.343-.37c-.283-.23-.652-.49-1.094-.75-.884-.53-2.053-1.12-3.25-1.69s-2.44-1.1-3.438-1.5c-.498-.2-.923-.35-1.281-.47-.358-.11-.583-.18-.875-.18zm0,1c-.042,0 .237,.01 .562,.12 .326,.11 .765,.28 1.25,.47 .972,.38 2.166,.91 3.344,1.47s2.322,1.15 3.156,1.65c.418,.25 .755,.48 .969,.66 .107,.09 .188,.15 .219,.19v24.84c-.031,.04-.112,.1-.219,.19-.214,.18-.551,.4-.969,.65-.834,.51-1.978,1.1-3.156,1.66s-2.372,1.08-3.344,1.47c-.485,.19-.924,.36-1.25,.47-.325,.1-.604,.16-.562,.16s-.237-.06-.562-.16c-.326-.11-.765-.28-1.25-.47-.972-.39-2.166-.91-3.344-1.47s-2.322-1.15-3.156-1.66c-.418-.25-.755-.47-.969-.65-.107-.09-.188-.15-.219-.19v-24.84c.031-.04 .112-.1 .219-.19 .214-.18 .551-.41 .969-.66 .834-.5 1.978-1.09 3.156-1.65s2.372-1.09 3.344-1.47c.485-.19 .924-.36 1.25-.47 .325-.11 .604-.12 .562-.12z"/>
<path d="m18,584.06v5.1l.281,.15 4,2 .719,.35v-5.1l-.281-.15-4-2-.719-.35zm1,1.63l3,1.5v2.87l-3-1.5v-2.87z"/>
<path d="m28.5,579.56l-.719,.35-2,1-.281,.15v4.1l.719-.35 2-1 .281-.15v-4.1zm-1,1.63v1.87l-1,.5v-1.87l1-.5z"/>
<path d="m28.5,573.56l-.719,.35-2,1-.281,.15v4.1l.719-.35 2-1 .281-.15v-4.1zm-1,1.63v1.87l-1,.5v-1.87l1-.5z"/>
<path d="m28.5,567.56l-.719,.35-2,1-.281,.15v4.1l.719-.35 2-1 .281-.15v-4.1zm-1,1.63v1.87l-1,.5v-1.87l1-.5z"/>
<path d="m33.5,577.06l-.719,.35-2,1-.281,.15v4.1l.719-.35 2-1 .281-.15v-4.1zm-1,1.63v1.87l-1,.5v-1.87l1-.5z"/>
<path d="m33.5,571.06l-.719,.35-2,1-.281,.15v4.1l.719-.35 2-1 .281-.15v-4.1zm-1,1.63v1.87l-1,.5v-1.87l1-.5z"/>
<path d="m33.5,565.06l-.719,.35-2,1-.281,.15v4.1l.719-.35 2-1 .281-.15v-4.1zm-1,1.63v1.87l-1,.5v-1.87l1-.5z"/>
<path d="m21.5,579.56v4.1l.281,.15 2,1 .719,.35v-4.1l-.281-.15-2-1-.719-.35zm1,1.63l1,.5v1.87l-1-.5v-1.87z"/>
<path d="m21.5,573.56v4.1l.281,.15 2,1 .719,.35v-4.1l-.281-.15-2-1-.719-.35zm1,1.63l1,.5v1.87l-1-.5v-1.87z"/>
<path d="m21.5,567.56v4.1l.281,.15 2,1 .719,.35v-4.1l-.281-.15-2-1-.719-.35zm1,1.63l1,.5v1.87l-1-.5v-1.87z"/>
<path d="m16.5,577.06v4.1l.281,.15 2,1 .719,.35v-4.1l-.281-.15-2-1-.719-.35zm1,1.63l1,.5v1.87l-1-.5v-1.87z"/>
<path d="m16.5,571.06v4.1l.281,.15 2,1 .719,.35v-4.1l-.281-.15-2-1-.719-.35zm1,1.63l1,.5v1.87l-1-.5v-1.87z"/>
<path d="m16.5,565.06v4.1l.281,.15 2,1 .719,.35v-4.1l-.281-.15-2-1-.719-.35zm1,1.63l1,.5v1.87l-1-.5v-1.87z"/>
</g>
<g transform="translate(0 -.00497)">
<path fill="#fce94f" d="m79.562,37.671c0,2.54-4.485,4.601-10.011,4.601-5.527,0-10.012-2.061-10.012-4.601s4.485-4.602 10.012-4.602c5.526,0 10.011,2.062 10.011,4.602z"/>
<path d="m69.5,31.746c-2.845,0-5.451,.538-7.375,1.5s-3.25,2.407-3.25,4.125 1.326,3.101 3.25,4.063 4.53,1.562 7.375,1.562 5.451-.6 7.375-1.562 3.25-2.345 3.25-4.063-1.326-3.163-3.25-4.125-4.53-1.5-7.375-1.5zm0,1.25c2.675,0 5.116,.527 6.812,1.375 1.697,.849 2.563,1.958 2.563,3s-.866,2.09-2.563,2.938c-1.696,.848-4.137,1.437-6.812,1.437s-5.116-.589-6.812-1.437c-1.697-.848-2.563-1.896-2.563-2.938s.866-2.151 2.563-3c1.696-.848 4.137-1.375 6.812-1.375z"/>
<path fill="#fce94f" d="m59.5,7.3457h20v30h-20v-30z"/>
<path d="m69.5,16.746c-2.845,0-5.451,.538-7.375,1.5s-3.25,2.407-3.25,4.125 1.326,3.101 3.25,4.063 4.53,1.562 7.375,1.562 5.451-.6 7.375-1.562 3.25-2.345 3.25-4.063-1.326-3.163-3.25-4.125-4.53-1.5-7.375-1.5zm0,1.25c2.675,0 5.116,.527 6.812,1.375 1.697,.849 2.563,1.958 2.563,3s-.866,2.09-2.563,2.938c-1.696,.848-4.137,1.437-6.812,1.437s-5.116-.589-6.812-1.437c-1.697-.848-2.563-1.896-2.563-2.938s.866-2.151 2.563-3c1.696-.848 4.137-1.375 6.812-1.375z"/>
<path fill="#edd400" d="m79.562,32.372c0,2.54-4.485,4.601-10.011,4.601-5.527,0-10.012-2.061-10.012-4.601s4.485-4.601 10.012-4.601c5.526,0 10.011,2.061 10.011,4.601z"/>
<path d="m69.5,26.746c-2.845,0-5.451,.538-7.375,1.5s-3.25,2.407-3.25,4.125 1.326,3.101 3.25,4.063 4.53,1.562 7.375,1.562 5.451-.6 7.375-1.562 3.25-2.345 3.25-4.063-1.326-3.163-3.25-4.125-4.53-1.5-7.375-1.5zm0,1.25c2.675,0 5.116,.527 6.812,1.375 1.697,.849 2.563,1.958 2.563,3s-.866,2.09-2.563,2.938c-1.696,.848-4.137,1.437-6.812,1.437s-5.116-.589-6.812-1.437c-1.697-.848-2.563-1.896-2.563-2.938s.866-2.151 2.563-3c1.696-.848 4.137-1.375 6.812-1.375z"/>
<path fill="#edd400" d="m79.562,27.018c0,2.54-4.485,4.601-10.011,4.601-5.527,0-10.012-2.061-10.012-4.601s4.485-4.602 10.012-4.602c5.526,0 10.011,2.062 10.011,4.602z"/>
<path d="m69.5,21.746c-2.845,0-5.451,.538-7.375,1.5s-3.25,2.407-3.25,4.125 1.326,3.101 3.25,4.063 4.53,1.562 7.375,1.562 5.451-.6 7.375-1.562 3.25-2.345 3.25-4.063-1.326-3.163-3.25-4.125-4.53-1.5-7.375-1.5zm0,1.25c2.675,0 5.116,.527 6.812,1.375 1.697,.849 2.563,1.958 2.563,3s-.866,2.09-2.563,2.938c-1.696,.848-4.137,1.437-6.812,1.437s-5.116-.589-6.812-1.437c-1.697-.848-2.563-1.896-2.563-2.938s.866-2.151 2.563-3c1.696-.848 4.137-1.375 6.812-1.375z"/>
<path fill="#edd400" d="m79.506,22.277c0,2.54-4.485,4.601-10.011,4.601-5.527,0-10.012-2.061-10.012-4.601s4.485-4.601 10.012-4.601c5.526,0 10.011,2.061 10.011,4.601z"/>
<path d="m69.5,16.746c-2.845,0-5.451,.538-7.375,1.5s-3.25,2.407-3.25,4.125 1.326,3.101 3.25,4.063 4.53,1.562 7.375,1.562 5.451-.6 7.375-1.562 3.25-2.345 3.25-4.063-1.326-3.163-3.25-4.125-4.53-1.5-7.375-1.5zm0,1.25c2.675,0 5.116,.527 6.812,1.375 1.697,.849 2.563,1.958 2.563,3s-.866,2.09-2.563,2.938c-1.696,.848-4.137,1.437-6.812,1.437s-5.116-.589-6.812-1.437c-1.697-.848-2.563-1.896-2.563-2.938s.866-2.151 2.563-3c1.696-.848 4.137-1.375 6.812-1.375z"/>
<path fill="#edd400" d="m79.506,16.811c0,2.54-4.485,4.601-10.011,4.601-5.527,0-10.012-2.061-10.012-4.601s4.485-4.601 10.012-4.601c5.526,0 10.011,2.061 10.011,4.601z"/>
<path d="m69.5,11.371c-2.845,0-5.451,.539-7.375,1.5-1.924,.962-3.25,2.407-3.25,4.125s1.326,3.101 3.25,4.063 4.53,1.562 7.375,1.562 5.451-.6 7.375-1.562 3.25-2.345 3.25-4.063-1.326-3.163-3.25-4.125c-1.924-.961-4.53-1.5-7.375-1.5zm0,1.25c2.675,0 5.116,.527 6.812,1.375 1.697,.848 2.563,1.958 2.563,3s-.866,2.09-2.563,2.938c-1.696,.848-4.137,1.437-6.812,1.437s-5.116-.589-6.812-1.437c-1.697-.848-2.563-1.896-2.563-2.938s.866-2.152 2.563-3c1.696-.848 4.137-1.375 6.812-1.375z"/>
<path fill="#edd400" d="m79.674,12.349c0,2.54-4.486,4.601-10.012,4.601s-10.011-2.061-10.011-4.601c0-2.5399 4.485-4.6013 10.011-4.6013s10.012,2.0614 10.012,4.6013z"/>
<path d="m69.5,6.7463c-2.845,0-5.451,.5382-7.375,1.5s-3.25,2.4067-3.25,4.1247 1.326,3.101 3.25,4.063 4.53,1.562 7.375,1.562 5.451-.6 7.375-1.562 3.25-2.345 3.25-4.063-1.326-3.1629-3.25-4.1247-4.53-1.5-7.375-1.5zm0,1.25c2.675,0 5.116,.5268 6.812,1.375 1.697,.8487 2.563,1.9577 2.563,2.9997s-.866,2.09-2.563,2.938c-1.696,.848-4.137,1.437-6.812,1.437s-5.116-.589-6.812-1.437c-1.697-.848-2.563-1.896-2.563-2.938s.866-2.151 2.563-2.9997c1.696-.8482 4.137-1.375 6.812-1.375z"/>
<path fill="#c4a000" d="m79.144,7.8593c0,2.5397-4.336,4.6017-9.677,4.6017-5.342,0-9.677-2.062-9.677-4.6017 0-2.54 4.335-4.6014 9.677-4.6014 5.341,0 9.677,2.0614 9.677,4.6014z" transform="matrix(1.0346 0 0 1 -2.2908 -.72507)"/>
<path d="m69.5,1.7463c-2.845,0-5.451,.5382-7.375,1.5s-3.25,2.4069-3.25,4.125c0,1.7182 1.326,3.1007 3.25,4.0627s4.53,1.562 7.375,1.562 5.451-.6 7.375-1.562 3.25-2.3445 3.25-4.0627c0-1.7181-1.326-3.1632-3.25-4.125s-4.53-1.5-7.375-1.5zm0,1.25c2.675,0 5.116,.5268 6.812,1.375 1.697,.8482 2.563,1.9582 2.563,3 0,1.0419-.866,2.0893-2.563,2.9377-1.696,.848-4.137,1.437-6.812,1.437s-5.116-.589-6.812-1.437c-1.697-.8484-2.563-1.8958-2.563-2.9377 0-1.0418 .866-2.1518 2.563-3 1.696-.8482 4.137-1.375 6.812-1.375z"/>
</g>
<g fill-rule="evenodd" transform="translate(0 -.00497)">
<path d="m58.877,7.3438c0,1-.005,30.005-.005,30.005l1.251,.019s-.123-29.024-.123-30.024l-1.123-.0002z"/>
<path d="m79,7.3438l-.125,30.011 1.248-.007 .004-30-1.127-.0042z"/>
<path d="m64,11.344v25.562h1v-25.562h-1z"/>
<path d="m74.5,11.344v25.562h1v-25.562h-1z"/>
</g>
<g transform="translate(0 -.00497)">
<path d="m59.699,19.147h.76v.92h-.76v-.92z"/>
<path d="m78.548,19.314h.76v.92h-.76v-.92z"/>
</g>
</svg>
