<svg xmlns="http://www.w3.org/2000/svg" viewBox="0 0 550 350" xmlns:xlink="http://www.w3.org/1999/xlink">
<defs>
<clipPath id="clipPath3350" clipPathUnits="userSpaceOnUse">
<path fill="#f00" d="m284.95,148.15c-49.68,0-98.59,27.54-109.19,61.47-2.47,7.92-2.63,15.5-.8,22.47l7.97,27.62c7.47,21.33 34.26,36.19 70.74,36.19 49.68,0 98.59-27.54 109.19-61.47 2.21-7.09 2.57-13.89 1.31-20.23l-7.34-26.06c-5.48-23.35-33.26-39.99-71.88-39.99z"/>
</clipPath>
<filter width="1.07" x="-.035" y="-.165" height="1.331" id="filter3222">
<feGaussianBlur stdDeviation="2.28333"/>
</filter>
<filter width="1.145" x="-.073" y="-.344" height="1.688" id="filter3282">
<feGaussianBlur stdDeviation="4.74453"/>
</filter>
<filter id="filter3236">
<feGaussianBlur stdDeviation="2.30109"/>
</filter>
<filter width="1.073" x="-.037" y="-.165" height="1.33" id="filter3260">
<feGaussianBlur stdDeviation="2.45481"/>
</filter>
<filter id="filter3358">
<feGaussianBlur stdDeviation="4.23649"/>
</filter>
<filter id="filter3709">
<feGaussianBlur stdDeviation="5.90646"/>
</filter>
<filter id="filter3318">
<feGaussianBlur stdDeviation="1.69455"/>
</filter>
<linearGradient gradientTransform="translate(32.577 -410.12)" id="linearGradient3740" y1="548.53" x1="356.26" y2="646.51" gradientUnits="userSpaceOnUse" x2="330.01">
<stop offset="0" stop-color="#fff" stop-opacity="0"/>
<stop offset=".6" stop-color="#fff"/>
<stop offset="1" stop-color="#fff"/>
</linearGradient>
<linearGradient id="linearGradient3748" x1="210.94" gradientUnits="userSpaceOnUse" x2="231.43">
<stop offset="0" stop-color="#fff"/>
<stop offset="1" stop-color="#fff" stop-opacity="0"/>
</linearGradient>
<linearGradient id="linearGradient3744" y1="515.94" y2="485.67" gradientUnits="userSpaceOnUse" x2="0">
<stop offset="0" stop-color="#999"/>
<stop offset=".355" stop-color="#fff"/>
<stop offset=".613" stop-color="#fff"/>
<stop offset="1" stop-color="#999"/>
</linearGradient>
<linearGradient id="linearGradient3746" x1="212.13" gradientUnits="userSpaceOnUse" x2="281.44">
<stop offset="0" stop-color="#999"/>
<stop offset=".355" stop-color="#fff"/>
<stop offset=".727" stop-color="#fff"/>
<stop offset="1" stop-color="#999"/>
</linearGradient>
<radialGradient cx="239.11" cy="451.19" gradientTransform="matrix(-.31985 -1.1937 1.3357 -.35789 -114.29 534.29)" id="radialGradient3738" r="91.938" gradientUnits="userSpaceOnUse">
<stop offset="0" stop-color="#fff" stop-opacity=".482"/>
<stop offset=".6" stop-color="#fff"/>
<stop offset="1" stop-color="#fff"/>
</radialGradient>
<radialGradient cx="448.3" cy="512.16" gradientTransform="matrix(1.1085 -.23215 .09501 .45364 -121.06 -.19329)" id="radialGradient3742" r="95.584" gradientUnits="userSpaceOnUse">
<stop offset="0" stop-color="#fff"/>
<stop offset=".822" stop-color="#fff" stop-opacity="0"/>
<stop offset="1" stop-color="#fff" stop-opacity="0"/>
</radialGradient>
</defs>
<g transform="translate(4.2614 -4.408)">
<path opacity=".5" filter="url(#filter3709)" d="m434.62,29.477c-49.68,0-98.59,27.541-109.19,61.469-2.47,7.925-2.61,15.504-.78,22.464l7.97,27.63c.05,.14 .11,.27 .16,.41l-300.5,173.5c-.065,.02-.133,.02-.192,.06-.302,.17-.564,.4-.781,.69-1.211,1.54-1.12,4.6 .156,7.9 .116,.3 .24,.58 .375,.88 .004,.01-.004,.02 0,.03 .132,.29 .287,.58 .438,.87 .158,.31 .32,.63 .5,.94 .174,.3 .346,.59 .531,.88 .185,.28 .369,.54 .562,.81 .586,.81 1.207,1.52 1.844,2.15 .211,.21 .412,.41 .625,.6 1.912,1.69 3.894,2.48 5.375,2 .165-.06 .349-.13 .5-.22l302-174.34c12.73,11.71 33.55,19.03 59.13,19.03 49.68,0 98.59-27.54 109.19-61.47 2.21-7.09 2.57-13.92 1.31-20.252l-7.35-26.062c-5.48-23.345-33.26-39.969-71.87-39.969z"/>
</g>
<g fill="#f00" transform="translate(4.2614 -4.408)">
<path d="m431.09,25.92c-49.68,0-98.6,27.541-109.19,61.469-2.48,7.925-2.64,15.511-.8,22.471l7.97,27.63c7.46,21.32 34.25,36.18 70.73,36.18 49.68,0 98.6-27.54 109.19-61.47 2.21-7.08 2.58-13.891 1.32-20.227l-7.35-26.064c-5.48-23.344-33.26-39.989-71.87-39.989z"/>
<path d="m468.57,528.08a90,90 0 1,1 -180,0 90,90 0 1,1 180,0z" transform="matrix(1 0 -.21325 .68292 145.95 -273.24)"/>
</g>
<g transform="translate(4.2614 -4.408)">
<path fill="#800000" filter="url(#filter3358)" d="m285.97,125.43c-63.57,0-126.17,35.25-139.72,78.67-3.17,10.14-3.35,19.84-1.01,28.75l10.2,35.34c9.56,27.29 43.83,46.3 90.51,46.3 63.57,0 126.17-35.22 139.72-78.64 2.84-9.06 3.29-17.79 1.67-25.89l-9.41-33.34c-7.01-29.87-42.55-51.19-91.96-51.19zm-4.83,22.77c37.52,0 64.54,16.15 69.86,38.83l7.14,25.32c1.22,6.16 .84,12.79-1.31,19.68-10.29,32.96-57.81,59.72-106.08,59.72-35.45,0-61.46-14.44-68.71-35.16l-7.74-26.84c-1.78-6.76-1.65-14.13 .76-21.83 10.29-32.96 57.81-59.72 106.08-59.72z" clip-path="url(#clipPath3350)" transform="translate(146.13 -122.23)"/>
<path fill="url(#radialGradient3738)" filter="url(#filter3236)" d="m431.09,25.92c-6.45,0-12.86,.464-19.19,1.344-13.75,17.782-14.84,40.254-.22,59.531-7.31-24.642 6.42-44.216 31.53-60.281-3.9-.375-7.96-.594-12.12-.594zm-19.41,60.875c12.9-25.635 40.66-38.724 75.5-44.437-6.4-5.056-14.45-9.141-23.81-11.969-28.29,10.714-49.18,32.149-51.69,56.406zc-.01,.008 .01,.024 0,.032 28.76-18.039 60.22-21.051 92.12-15.469-.54-6.512-2.73-12.596-6.37-18.063-31.7,.041-65.38,12.387-85.75,33.5zc-32.08-5.87-49.65-19.646-57.94-37.843-6.28,4.222-11.9,8.908-16.69,13.937 15.89,14.436 43.18,23.906 74.63,23.906zc-23.04-16.586-26.85-35.585-19.09-55.468-8.78,2.459-17.17,5.689-24.94,9.562 2.65,18.094 18.18,35.487 44.03,45.906zm0,.032c35.05-6.183 62.16,.305 83.81,14.063 2.79-4.345 4.96-8.864 6.41-13.501 .4-1.294 .75-2.57 1.03-3.844-25.95-8.683-60.55-8.146-91.25,3.282zc32.72,5.998 50.34,20.233 58.41,39.003 6.45-4.34 12.23-9.13 17.09-14.32-15.73-14.882-43.48-24.674-75.5-24.683zc.01,.005-.01,.025 0,.031 23.58,17.002 26.97,36.492 18.44,56.902 9.06-2.46 17.73-5.72 25.75-9.68-2.05-18.58-17.7-36.567-44.19-47.253zm0,.031c7.41,25.102-7.04,44.952-33.09,61.192 4.52,.51 9.22,.81 14.12,.81 5.89,0 11.78-.42 17.59-1.16 14.76-17.97 16.33-41.08 1.38-60.842zm-82.97-13.563c-2.97,4.53-5.3,9.241-6.81,14.094-.31,.976-.58,1.942-.81,2.906 25.84,8.429 60.09,7.821 90.5-3.468-34.52,6.065-61.38-.174-82.88-13.532zm82.88,13.532c-28.64,17.933-59.91,20.953-91.66,15.473 .34,6.45 2.28,12.5 5.66,17.96 31.77,.05 65.55-12.26 86-33.433zm.03,0c-13,25.823-41.08,38.913-76.28,44.563 6.16,5.19 14,9.37 23.18,12.37 29.01-10.52 50.54-32.27 53.1-56.933z"/>
<path fill="#fff" filter="url(#filter3222)" d="m450.62,522.17c-24.43,13.73-57.04,22.5-89.97,22.5-28.24,0-51.57-6.47-66.69-16.97 10.93,16.62 35.15,27.59 66.5,27.59 34.71,0 69-13.45 90.16-33.12z" transform="matrix(-.95486 0 0 -1.0774 774.75 627.21)"/>
<path opacity=".6" fill="#7f0000" filter="url(#filter3282)" d="m450.62,522.17c-24.43,13.73-57.04,22.5-89.97,22.5-28.24,0-51.57-6.47-66.69-16.97 10.93,16.62 35.15,27.59 66.5,27.59 34.71,0 69-13.45 90.16-33.12z" transform="matrix(1.0774 0 0 1.0774 4.5276 -453.83)"/>
<path fill="url(#linearGradient3740)" filter="url(#filter3260)" d="m492.04,136.02c-25.06,14.8-58.52,24.24-92.29,24.24-28.97,0-52.9-6.96-68.41-18.28 11.21,17.9 36.05,29.73 68.22,29.73 35.6,0 70.77-14.5 92.48-35.69z"/>
<path fill="url(#radialGradient3742)" filter="url(#filter3318)" d="m431.09,25.928c2.83,0 5.58,.107 8.29,.281-2.71-.174-5.46-.281-8.29-.281zc-3.09,0-6.2,.104-9.28,.312 3.09-.21 6.18-.312 9.28-.312zm-9.31,.312c-3.08,.21-6.14,.53-9.19,.938 3.05-.408 6.11-.728 9.19-.938zm22.81,.407c1.28,.137 2.51,.293 3.75,.468-1.23-.175-2.48-.331-3.75-.468zm5.38,.718c.87,.137 1.74,.282 2.59,.438-.85-.156-1.72-.301-2.59-.438zm-41.97,.5c-6.07,1.012-12.03,2.398-17.81,4.125 5.78-1.727 11.74-3.114 17.81-4.125zm-17.81,4.125c-2.89,.864-5.74,1.817-8.53,2.844 2.79-1.027 5.64-1.98 8.53-2.844zm63.19-4.031c1.21,.232 2.44,.481 3.62,.75-1.19-.271-2.4-.517-3.62-.75zm3.62,.75c2.56,.584 5.05,1.246 7.44,2-2.4-.757-4.87-1.414-7.44-2zm14.66,4.656c.99,.419 1.98,.831 2.93,1.282-.95-.447-1.95-.866-2.93-1.282zm3.31,1.469c.97,.463 1.91,.943 2.84,1.438-.93-.497-1.87-.973-2.84-1.438zm3.47,1.781c.86,.469 1.71,.943 2.53,1.438-.82-.495-1.68-.97-2.53-1.438zm-105,1.532c-2.68,1.18-5.3,2.426-7.85,3.75 2.55-1.324 5.17-2.57 7.85-3.75zm107.75,.031c1.69,1.029 3.29,2.111 4.81,3.25-1.52-1.141-3.12-2.219-4.81-3.25zm5.9,4.094c.61,.477 1.18,.974 1.75,1.468-.57-.49-1.15-.995-1.75-1.468zm-125.25,1.656c-2.46,1.386-4.85,2.862-7.15,4.375 2.31-1.518 4.68-2.985 7.15-4.375zm127.41,.156c.66,.576 1.29,1.184 1.91,1.781-.62-.601-1.25-1.202-1.91-1.781zm-138,6.531c-2.21,1.573-4.32,3.222-6.34,4.907 2.02-1.685 4.13-3.333 6.34-4.907zm-6.37,4.907c-2.04,1.694-3.96,3.453-5.79,5.25 1.82-1.786 3.76-3.566 5.79-5.25zm155.9,3.906c.19,.441 .39,.896 .56,1.344-.17-.45-.36-.901-.56-1.344zm.56,1.344c.18,.447 .35,.89 .5,1.343-.15-.45-.32-.899-.5-1.343zm1.38,4.187c1.82,6.951 1.66,14.522-.81,22.438-10.6,33.923-59.51,61.473-109.19,61.473-37.17,0-64.29-15.44-71.16-37.41l7.5,26.03c7.47,21.33 34.27,36.19 70.75,36.19 49.68,0 98.6-27.54 109.19-61.47 2.21-7.09 2.57-13.916 1.31-20.251l-7.34-26.062c-.08-.317-.17-.624-.25-.938zm-175.13,10.063c-.91,1.5-1.76,2.993-2.53,4.531 .77-1.529 1.62-3.039 2.53-4.531zm-2.53,4.562c-.76,1.529-1.46,3.094-2.06,4.656 .61-1.57 1.3-3.118 2.06-4.656zm-3.72,9.813c-.1,.387-.22,.77-.31,1.156 .09-.389 .21-.766 .31-1.156zm-1.15,5.812c-.13,1.015-.23,2.032-.28,3.031 .05-.998 .15-2.016 .28-3.031zm-.28,3.094c-.03,.492-.03,.98-.03,1.469 0-.49 0-.975 .03-1.469zm-.03,2.967c.01,.45 .03,.9 .06,1.35-.03-.45-.05-.9-.06-1.35z"/>
</g>
<g transform="matrix(.86603 -.5 .5 .86603 -357.2186 -36.128)">
<path fill="url(#linearGradient3744)" d="m166.17,492.24c-2.79,0-5.06,4.53-5.06,10.11s2.27,10.11 5.06,10.11h350.47c2.79,0 5.05-4.53 5.05-10.11s-2.26-10.11-5.05-10.11h-350.47z"/>
<path fill="url(#linearGradient3746)" d="m230.31,803.86a9.0914,18.183 0 1,1 -18.18,0 9.0914,18.183 0 1,1 18.18,0z" transform="matrix(.556 0 0 .556 43.172 55.395)"/>
<path fill="url(#linearGradient3748)" d="m230.31,803.86a9.0914,18.183 0 1,1 -18.18,0 9.0914,18.183 0 1,1 18.18,0z" transform="matrix(.41359 0 0 .4627 74.675 130.39)"/>
</g>
</svg>
