<?xml version="1.0" encoding="UTF-8" standalone="no"?>
<svg xmlns:dc="http://purl.org/dc/elements/1.1/" xmlns:cc="http://creativecommons.org/ns#" xmlns:rdf="http://www.w3.org/1999/02/22-rdf-syntax-ns#" xmlns:svg="http://www.w3.org/2000/svg" xmlns="http://www.w3.org/2000/svg" xmlns:sodipodi="http://sodipodi.sourceforge.net/DTD/sodipodi-0.dtd" xmlns:inkscape="http://www.inkscape.org/namespaces/inkscape" version="1.1" viewBox="0 0 163.78148 138.68237" id="svg2" inkscape:version="0.48.5 r10040" sodipodi:docname="SILENCE.svg">
  <defs id="defs16"/>
  <sodipodi:namedview pagecolor="#ffffff" bordercolor="#666666" borderopacity="1" objecttolerance="10" gridtolerance="10" guidetolerance="10" inkscape:pageopacity="0" inkscape:pageshadow="2" inkscape:window-width="1920" inkscape:window-height="1200" id="namedview14" showgrid="false" inkscape:zoom="2" inkscape:cx="-12.103807" inkscape:cy="14.693522" inkscape:window-x="0" inkscape:window-y="0" inkscape:window-maximized="0" inkscape:current-layer="g3814" fit-margin-top="0" fit-margin-left="0" fit-margin-right="0" fit-margin-bottom="0"/>
  <metadata id="metadata12">
    <rdf:RDF>
      <cc:Work>
        <dc:format>image/svg+xml</dc:format>
        <dc:type rdf:resource="http://purl.org/dc/dcmitype/StillImage"/>
        <cc:license rdf:resource="http://creativecommons.org/licenses/publicdomain/"/>
        <dc:publisher>
          <cc:Agent rdf:about="http://openclipart.org/">
            <dc:title>Openclipart</dc:title>
          </cc:Agent>
        </dc:publisher>
        <dc:title/>
      </cc:Work>
      <cc:License rdf:about="http://creativecommons.org/licenses/publicdomain/">
        <cc:permits rdf:resource="http://creativecommons.org/ns#Reproduction"/>
        <cc:permits rdf:resource="http://creativecommons.org/ns#Distribution"/>
        <cc:permits rdf:resource="http://creativecommons.org/ns#DerivativeWorks"/>
      </cc:License>
    </rdf:RDF>
  </metadata>
  <g id="g3880" transform="matrix(0.8660254,0.5,-0.5,0.8660254,63.848152,-37.166445)">
    <path transform="translate(-50.17092,-17.417624)" d="m 156.625,90.639999 c 0,18.156361 -14.07505,32.875001 -31.4375,32.875001 -17.36245,0 -31.4375,-14.71864 -31.4375,-32.875001 0,-18.156361 14.07505,-32.875 31.4375,-32.875 17.36245,0 31.4375,14.718639 31.4375,32.875 z" sodipodi:ry="32.875" sodipodi:rx="31.4375" sodipodi:cy="90.639999" sodipodi:cx="125.1875" id="path3857" style="fill:#ffffff;fill-opacity:1;fill-rule:nonzero;stroke:none" sodipodi:type="arc"/>
    <path sodipodi:nodetypes="cccccc" inkscape:connector-curvature="0" id="path3859" d="m 6.5570402,115.44498 -5.524271,6.01041 1.104854,8.3527 9.0598058,8.44109 9.722718,-2.60746 C 15.590203,129.03396 10.865852,121.38462 6.5570402,115.44498 z" style="fill:#ffffff;fill-opacity:1;fill-rule:nonzero;stroke:none"/>
    <g transform="translate(-31.67092,-17.667624)" style="fill:#000000;fill-opacity:1" id="g3794">
      <g style="fill:#000000;fill-opacity:1" transform="matrix(0.99957824,0.02904046,-0.02904046,0.99957824,3.0460011,-2.9313308)" id="g3804">
        <g style="fill:#000000;fill-opacity:1" transform="matrix(0.99791204,-0.06458754,0.06458754,0.99791204,-6.5043209,6.7478786)" id="g3814">
          <g style="fill:#000000;fill-opacity:1" id="g3775" transform="matrix(0.46504972,-0.2127359,0.2127359,0.46504972,132.65498,174.89825)">
            <g style="fill:#000000;fill-opacity:1" id="layer1" inkscape:label="Ebene 1" transform="translate(-272.0137,-922.08928)">
              <path inkscape:connector-curvature="0" id="path2888" style="fill:#000000;fill-opacity:1" d="m 228.10227,901.15438 c -13.47,-3.3288 -18.736,-10.682 -23.831,-33.279 -4.9056,-21.757 -7.6136,-29.233 -13.484,-37.231 -4.7146,-6.4225 -10.83,-9.2966 -19.78,-9.2966 -11.122,0 -16.917,-4.2111 -20.715,-15.054 -4.069,-11.616 -4.8278,-32.526 -1.5178,-41.821 2.1337,-5.992 7.6482,-12.822 13.595,-16.839 2.9749,-2.0094 13.545,-6.694 25.174,-11.157 22.236,-8.534 23.44773,-10.53538 38.33273,-19.71938 19.287,-11.9 41.292,-28.601 54.969,-41.718 8.7283,-8.3708 9.0989,-8.9126 10.945,-16.001 1.7877,-6.8635 4.2372,-11.389 8.2524,-15.246 2.9642,-2.8474 4.0376,-3.2632 9.2849,-3.5974 9.8038,-0.62426 15.943,3.4574 24.465,16.265 12.188,18.318 24.481,53.523 30.071,86.12 8.3529,48.712 2.1163,96.605 -13.425,103.1 -5.972,2.4953 -9.1324,1.5794 -20.986,-6.0816 -3.1072,-2.0083 -8.5055,-4.7428 -11.996,-6.0767 -19.961,-7.6275 -53.03073,-20.52862 -79.27873,-20.55362 -9.7335,-0.009 -10.534,0.12957 -11.888,2.0622 -2.2909,3.2708 -1.7919,10.571 1.3273,19.417 1.5283,4.3342 2.787,8.8452 2.7971,10.025 0.0235,2.7439 2.054,6.6676 4.6803,9.0444 3.339,3.0218 4.8956,6.8532 4.2286,10.409 -0.52332,2.7895 -0.0662,3.897 3.647,8.8367 4.5637,6.0711 5.1181,8.6811 2.9678,13.973 -1.4042,3.4559 -1.1642,4.839 1.4167,8.1648 2.4232,3.1227 2.1778,5.5758 -0.66612,6.6571 -3.2179,1.2234 -12.854,1.0154 -18.587,-0.40137 z m 78.17901,-202.97115 c -6.68575,24.18528 -0.28346,83.67388 18.39657,106.27624 31.58198,-32.59879 13.32487,-97.03274 -18.39657,-106.27624 z M 142.62707,818.52918 c -18.84,-3.1793 -26.042,-10.782 -26.042,-27.492 0,-9.5952 1.0865,-13.872 5.0009,-19.683 2.6192,-3.8884 4.6791,-5.3761 15.605,-11.27 12.837,-6.9249 16.532,-8.311 13.776,-5.1685 -4.829,5.5075 -7.2276,14.713 -7.2276,27.738 0,15.023 2.8712,24.047 10.357,32.551 l 3.7651,4.2774 -5.4404,-0.10967 c -2.9922,-0.0603 -7.3994,-0.44025 -9.7938,-0.84429 z m -0.2748,-9.0691 c -4.0554,-10.47 -5.4732,-17.974 -5.5489,-29.369 -0.0775,-11.652 -0.92331,-14.376 -2.6597,-8.5642 -0.44967,1.505 -0.85912,6.9321 -0.90989,12.06 -0.0807,8.1433 0.2876,10.475 2.9084,18.414 2.5041,7.5863 3.3185,9.0906 4.9214,9.0906 1.4484,0 1.7653,-0.4012 1.2887,-1.6316 z m -12.814,-8.8576 c -2.5354,-7.8297 -2.7556,-9.4969 -2.3893,-18.092 0.33548,-7.8715 0.18217,-9.3824 -0.90951,-8.9635 -2.1448,0.82304 -3.0362,4.5702 -3.0128,12.664 0.017,5.8589 0.5354,8.8795 2.232,13.005 5.1212,12.453 7.9778,13.424 4.0796,1.3859 z" sodipodi:nodetypes="cscscccssscsccccccccssscscccccccccscscsccscccscscscccscsscc"/>
            </g>
          </g>
          <g style="fill:#000000;fill-opacity:1" transform="matrix(0.28213505,-0.05262116,0.22926558,0.50849215,154.51475,164.79177)" id="g3784">
            <g style="fill:#000000;fill-opacity:1" transform="translate(-272.0137,-922.08928)" inkscape:label="Ebene 1" id="g3790">
              <path sodipodi:nodetypes="ccccccccc" d="m 387.42112,632.99962 c 145.61075,49.71718 92.49359,175.94215 42.0333,207.7495 52.51245,-81.67747 39.68337,-151.33824 -42.0333,-207.7495 z m -19.2784,27.2295 c 84.15064,14.9991 101.29282,122.55358 34.2834,166.5311 45.85414,-61.61224 26.57327,-132.52989 -34.2834,-166.5311 z m -17.9794,23.6067 c 67.99783,7.97247 77.28825,96.24746 26.8711,133.596 32.02493,-51.15309 19.46508,-107.30939 -26.8711,-133.596 z" style="fill:#000000;fill-opacity:1" id="path3792" inkscape:connector-curvature="0"/>
            </g>
          </g>
        </g>
      </g>
    </g>
  </g>
</svg>
