<svg xmlns="http://www.w3.org/2000/svg" viewBox="0 0 764.81 501.11" xmlns:xlink="http://www.w3.org/1999/xlink">
<defs>
<linearGradient gradientTransform="matrix(-1 0 0 1 1070.4 0)" id="linearGradient3910" xlink:href="#linearGradient3935" y1="502.47" y2="138.29" x1="402.91" gradientUnits="userSpaceOnUse" x2="1006"/>
<linearGradient gradientTransform="matrix(-1 0 0 1 1070.4 0)" id="linearGradient3914" xlink:href="#linearGradient3935" y1="502.47" y2="138.29" x1="744.86" gradientUnits="userSpaceOnUse" x2="1006"/>
<linearGradient id="linearGradient3935">
<stop offset="0" stop-opacity=".736"/>
<stop offset=".694" stop-opacity=".498"/>
<stop offset="1" stop-opacity="0"/>
</linearGradient>
<linearGradient spreadMethod="repeat" id="linearGradient3920" y1="510.53" y2="473.3" x1="763.21" gradientUnits="userSpaceOnUse" x2="120.15">
<stop offset="0"/>
<stop offset=".5" stop-opacity=".498"/>
<stop offset=".751" stop-opacity=".278"/>
<stop offset="1" stop-opacity="0"/>
</linearGradient>
<linearGradient gradientTransform="matrix(.99996 0 0 1.0111 .02251 -7.0971)" id="linearGradient3916" y1="583.02" y2="578.34" x1="161.21" gradientUnits="userSpaceOnUse" x2="924.41">
<stop offset="0" stop-opacity=".857"/>
<stop offset=".414" stop-opacity=".737"/>
<stop offset="1" stop-opacity=".616"/>
<stop offset="1" stop-opacity=".498"/>
<stop offset="1" stop-opacity="0"/>
</linearGradient>
<linearGradient id="linearGradient3918" y1="510.53" y2="391.74" x1="763.21" gradientUnits="userSpaceOnUse" x2="754.11">
<stop offset="0"/>
<stop offset="1" stop-opacity="0"/>
</linearGradient>
<radialGradient cx="485.64" cy="416.43" gradientTransform="matrix(3.4021 -.67127 .33461 1.6959 -1466 122.25)" id="radialGradient3912" r="257.56" gradientUnits="userSpaceOnUse">
<stop offset="0" stop-opacity=".857"/>
<stop offset=".347" stop-opacity=".737"/>
<stop offset=".461" stop-opacity=".616"/>
<stop offset=".54" stop-opacity=".498"/>
<stop offset="1" stop-opacity="0"/>
</radialGradient>
<radialGradient cx="558.41" cy="733.29" gradientTransform="matrix(.02874 -.9528 4.4458 .12184 -2734.7 981)" id="radialGradient3922" r="382.24" gradientUnits="userSpaceOnUse">
<stop offset="0"/>
<stop offset=".203" stop-opacity=".498"/>
<stop offset=".59" stop-opacity=".278"/>
<stop offset="1" stop-opacity="0"/>
</radialGradient>
<radialGradient cx="551.64" cy="495.99" gradientTransform="matrix(2.246 -2.7944 2.4987 2.0083 -1810.8 1047.9)" id="radialGradient3908" r="257.56" gradientUnits="userSpaceOnUse">
<stop offset="0" stop-opacity=".857"/>
<stop offset=".347" stop-opacity=".737"/>
<stop offset=".461" stop-opacity=".616"/>
<stop offset=".54" stop-opacity=".498"/>
<stop offset="1" stop-opacity="0"/>
</radialGradient>
</defs>
<g transform="translate(-159.63 -138.29)">
<path fill="url(#radialGradient3908)" stroke="url(#linearGradient3910)" d="m789.31,501.97c-1.4409-57.487 6.1667-114 1.3451-174.87-5.3134-67.077-41.884-189.1-259.61-188.32-217.72,.7857-249.29,129.76-250.19,188.32l-2.6902,174.87c177.37-30.442 344.5-23.152 511.15,0z"/>
<path opacity=".487" fill="url(#radialGradient3912)" stroke="url(#linearGradient3914)" d="m789.31,501.97c-1.4409-57.487 6.1667-114 1.3451-174.87-5.3134-67.077-41.884-189.1-259.61-188.32-217.72,.7857-249.29,129.76-250.19,188.32l-2.6902,174.87c177.37-30.442 344.5-23.152 511.15,0z"/>
<path opacity=".487" fill="none" stroke="#000" d="m539.39,565.87c104.05,1.1988 175.29,3.7264 260.95-16.814 56.539-13.557 116.35-4.7079 116.35-4.7079-.2659,.3146 12.611,1.1522 4.6199,11.107-20.017,24.935-57.958,58.623-129.04,72.325-172.31,16.208-342.41,13.568-511.15-.6726-41.208-2.8447-70.603-28.172-98.866-54.512-24.958-23.26-34.909-57.723 15.469-41.026 49.466,16.395 237.61,33.102 341.66,34.301z"/>
<path fill="url(#linearGradient3916)" d="m539.39,565.04c104.04,1.2121 175.28,3.7677 260.94-17 56.536-13.707 116.35-4.7601 116.35-4.7601-.2659,.3181 12.611,1.165 4.6197,11.23-20.016,25.211-57.956,59.272-129.04,73.127-172.31,16.388-342.4,13.719-511.12-.68-41.206-2.8762-70.6-28.484-98.862-55.116-24.957-23.518-34.907-58.363 15.468-41.481 49.464,16.576 237.6,33.469 341.65,34.681z"/>
<path stroke="#000" d="m541.41,588.11c76.678,1.8441 171.31,4.5496 232.82,18.072 23.441,5.153 33.161,13.021 3.8046,15.218-155.08,11.607-158.3,9.9892-236.62,9.2454-78.323-.7437-205.67-7.0984-236.09-10.672-62.325-13.047-5.7476-20.387 16.645-22.352 125.08-10.976 142.77-11.355 219.45-9.5114z"/>
<path fill="url(#linearGradient3918)" stroke="url(#linearGradient3920)" d="m276.61,525.96-3.0495-23.236c169.15-27.476 334.6-26.81 520.08,.003l-3.3839,22.79c-178.2,32.395-349.75,25.251-513.65,.4437z"/>
</g>
<g transform="matrix(1 0 0 1.0674 -159.63 -174.265)">
<path fill="#fff" d="m541.41,545.47c122.91,.1047 226.2-18.586 305.85-36.382 53.219-11.89 76.843,34.357 76.843,34.357-62.383-11.29-167.69,28.892-383.36,25.87-99.866-1.3996-287.3-23.264-351.79-40.034-12.896-3.3535-23.782,3.8413-27.633,10.723-3.0487,0-8.0723-40.766 46.41-30.38 54.483,10.386 210.77,35.741 333.68,35.845z"/>
<path fill="url(#radialGradient3922)" d="m541.41,545.47c122.91,.1047 226.2-18.586 305.85-36.382 53.219-11.89 76.843,34.357 76.843,34.357-62.383-11.29-167.69,28.892-383.36,25.87-99.866-1.3996-287.3-23.264-351.79-40.034-12.896-3.3535-23.782,3.8413-27.633,10.723-3.0487,0-8.0723-40.766 46.41-30.38 54.483,10.386 210.77,35.741 333.68,35.845z"/>
</g>
</svg>
