<svg xmlns="http://www.w3.org/2000/svg" viewBox="0 0 421.72 390.85">
<g transform="translate(-256.67 -280.51)">
<path d="m632.64,670.36c-7.2386-2.3861-11.217-4.6253-15.083-8.4901-2.2762-2.2753-5.6792-4.8681-7.5624-5.7617-1.8832-.8936-5.6238-3.6445-8.3126-6.113-2.6888-2.4686-5.1605-4.4883-5.4928-4.4883-.3323,0-1.7168-1.2375-3.0768-2.75s-4.4319-4.0811-6.8265-5.7079c-2.3946-1.6269-4.7241-3.9319-5.1767-5.1222-.4526-1.1904-3.7806-4.8093-7.3956-8.042-3.615-3.2328-6.573-6.2682-6.5733-6.7454-.0008-1.273-7.5737-8.6324-8.8829-8.6324-.6147,0-1.1176-.45-1.1176-1s-.6012-1-1.336-1c-.7348,0-2.9518-1.8-4.9268-4s-3.4138-4-3.1974-4c.2164,0-1.1815-1.575-3.1065-3.5s-3.7007-3.5-3.9461-3.5c-.2454,0-2.8178-2.3762-5.7167-5.2806-2.8988-2.9043-7.2529-6.8418-9.6757-8.75-7.7588-6.1108-14.009-12.125-14.628-14.074-.3308-1.0423-1.1944-1.895-1.9191-1.895-.7247,0-2.0888-1.177-3.0314-2.6156-.9426-1.4386-5.1568-6.1132-9.365-10.388-4.2082-4.2749-8.1539-8.3854-8.7683-9.1344-.6144-.7491-4.5173-4.4984-8.6731-8.3319s-7.3391-7.321-7.074-7.75c.2652-.429 .0211-.7801-.5424-.7801-.5635,0-2.3654-1.2375-4.0042-2.75s-3.6603-3.3125-4.4923-4c-1.7472-1.4438-7.597-1.6975-7.597-.3295 0,.5063-1.4625,1.2333-3.25,1.6155-1.7875,.3822-3.7011,1.0556-4.2525,1.4965-.5514,.4409-3.4764,1.7594-6.5,2.93-7.5369,2.918-11.873,4.9601-15.998,7.5336-1.925,1.2012-4.7375,2.4895-6.25,2.863-1.5125,.3735-2.75,1.1205-2.75,1.66 0,.5395-.5625,.9962-1.25,1.0149-.6875,.0187-3.05,.9034-5.25,1.9661s-5.0125,1.9474-6.25,1.9661-2.25,.4839-2.25,1.0339c0,.55-.675,1-1.5,1s-1.5,.45-1.5,1-1.0684,1-2.3743,1c-1.3058,0-4.2049,.6459-6.4424,1.4353-2.3186,.818-8.7661,1.5514-14.992,1.7051-9.199,.2272-11.193,.0006-12.629-1.4353-.9378-.9378-2.2487-1.7052-2.913-1.7052s-1.8378-.8741-2.6078-1.9424-3.1193-2.2329-5.2208-2.5879c-2.1014-.355-3.8208-1.0072-3.8208-1.4492 0-.442-1.125-1.086-2.5-1.4312-1.375-.3451-2.5-1.0331-2.5-1.529 0-.4958-1.35-1.198-3-1.5604s-3-1.0732-3-1.5795c0-.5063-.6143-.9205-1.3651-.9205-.7508,0-2.4383-.8074-3.75-1.7941-1.3117-.9868-4.9724-2.5848-8.1349-3.5511-3.1625-.9663-5.75-2.1352-5.75-2.5975 0-.4623-1.1624-1.1322-2.5831-1.4888-1.4207-.3566-4.2332-1.6642-6.25-2.906-2.0168-1.2417-6.4794-3.3534-9.9169-4.6928-3.4375-1.3393-6.25-2.7304-6.25-3.0912 0-.3608-1.575-.9515-3.5-1.3126-1.925-.3611-3.5-1.0862-3.5-1.6113 0-.5251-.8311-.9547-1.847-.9547s-2.8847-.9-4.153-2-3.1372-2-4.153-2-1.847-.4296-1.847-.9547c0-.5251-1.6658-1.2672-3.7019-1.6492-2.036-.382-4.3076-1.1899-5.048-1.7953-3.6113-2.9533-5.2501-5.1662-5.2501-7.0894 0-1.1613-.5625-2.6737-1.25-3.3609-.9422-.9418-1.2436-8.1937-1.224-29.45 .0741-80.338 .1825-82.726 4.0371-88.919 1.6153-2.5951 3.2934-4.7326 3.7291-4.75 1.486-.0593 7.213-5.3984 10.118-9.4327 2.6537-3.6852 6.3573-7.5989 7.1909-7.5989 .3832,0 2.1639-1.4625 3.9572-3.25 1.7932-1.7875 4.3734-4.15 5.7337-5.25s2.2745-2.3375 2.0316-2.75c-.2429-.4125 .2253-.75 1.0404-.75 .8152,0 2.7716-1.2895 4.3476-2.8655s3.8191-3.1682 4.9845-3.5381c1.1655-.3699 2.3715-1.3304 2.68-2.1345 .3086-.8041 1.2767-1.4619 2.1514-1.4619 .8747,0 1.3666-.3621 1.0931-.8046-.2735-.4425 1.6124-1.905 4.191-3.25 2.5785-1.345 6.5693-3.6829 8.8684-5.1954s4.6616-2.75 5.25-2.75 1.0698-.4414 1.0698-.981 1.125-1.2633 2.5-1.6084 2.5-.9929 2.5-1.4396 1.35-1.1086 3-1.471 3-1.0528 3-1.5341c0-.4814 1.575-1.1707 3.5-1.5318 1.925-.3611 3.5-1.0208 3.5-1.4659 0-.4451 1.35-1.1058 3-1.4682s3-1.0374 3-1.5 1.35-1.1376 3-1.5 3-1.0156 3-1.4516 1.8-1.0806 4-1.4324c2.2-.3518 4-1.0843 4-1.6278s.8776-.9882 1.9503-.9882 2.3657-.7422 2.8733-1.6494c.687-1.2276 2.6781-1.7291 7.7868-1.9613 3.7751-.1716 7.0196-.7793 7.21-1.3506 .1904-.5713 1.7712-1.0437 3.5129-1.0497 4.8432-.0168 10.682-1.1558 10.17-1.9838-.5181-.8384 6.8348-2.0052 12.636-2.0052 2.1232,0 3.8604-.45 3.8604-1 0-.6341 7.5-1 20.5-1s20.5,.3659 20.5,1c0,.55 1.8,1 4,1s4-.45 4-1c0-1.613 5.1531-1.1548 11.636,1.0345 5.815,1.9638 6.1048,2.2282 8.3339,7.6065 1.2702,3.0646 3.792,7.5142 5.604,9.888s4.0107,5.7009 4.8859,7.3935c.8753,1.6926 2.0564,3.0775 2.6248,3.0775 .5683,0 .7552,.45 .4153,1s-.2178,1 .2714,1c.4892,0 2.6533,3.0227 4.809,6.7172 2.1558,3.6945 4.684,7.3747 5.6183,8.1784 .9343,.8037 1.4703,1.8309 1.191,2.2828-.2793,.4519 .4441,.8216 1.6074,.8216 1.5515,0 2.6563,1.2232 4.1454,4.5894 2.0217,4.5705 4.1288,7.6386 6.7189,9.7832 5.4029,4.4738 11.139,12.262 11.139,15.125 0,.7476 .7875,2.1467 1.75,3.1092s1.75,2.0369 1.75,2.3875c0,.3506 1.2611,1.8062 2.8024,3.2347 2.6526,2.4584 2.8052,3.0696 2.8548,11.434 .0288,4.8602 .1714,16.037 .3169,24.837 1.0519,63.648 1.0493,64.124-.3674,66.786-.8036,1.5099-2.6024,2.8835-4.25,3.2454-1.5712,.3451-2.8567,1.0213-2.8567,1.5027 0,.4814-1.575,1.1707-3.5,1.5318-1.925,.3611-3.5,.999-3.5,1.4175 0,.4185-1.8,1.0487-4,1.4005-2.2,.3518-4,1.0843-4,1.6278s-.675,.9882-1.5,.9882c-1.0351,0-1.4856,1.0072-1.4537,3.25 .037,2.5936 .8504,3.8559 4.0272,6.25 2.1895,1.65 4.6115,3.5625 5.3823,4.25 .7708,.6875 1.771,1.2604 2.2228,1.2732 .4518,.0128 2.5586,1.5878 4.6818,3.5s4.4376,3.4768 5.143,3.4768c.7054,0 1.5416,.675 1.8582,1.5 .3166,.825 1.2913,1.5 2.166,1.5 .8747,0 1.3323,.4176 1.0169,.928-.3155,.5104 .4281,1.2459 1.6524,1.6345 1.2243,.3886 3.4271,1.8835 4.8952,3.322s3.665,3.2905 4.8819,4.1155 3.0455,2.175 4.0636,3 3.3094,2.625 5.0917,4c4.1527,3.2037 7.5847,6.042 9.9757,8.25 1.0423,.9625 2.345,1.75 2.895,1.75s1,.45 1,1 .6061,1 1.347,1c1.5003,0 5.653,3.3057 5.653,4.5s4.1527,4.5 5.653,4.5c.7408,0 1.347,.4197 1.347,.9326 0,.5129 .9065,1.2203 2.0145,1.572 1.108,.3517 1.7564,1.057 1.441,1.5674-.3154,.5104 .3307,.928 1.4358,.928s2.3692,.5733 2.809,1.274c.4398,.7007 1.9247,1.9988 3.2997,2.8847 1.375,.8859 3.5814,2.5626 4.903,3.726 1.3217,1.1634 2.845,2.1153 3.3853,2.1153 .5403,0 2.0249,1.125 3.2992,2.5s2.6998,2.5 3.1677,2.5c.4679,0 2.8519,1.4276 5.2978,3.1725 10.704,7.6365 14.909,11.133 15.454,12.85 .3209,1.0111 1.9131,2.1303 3.5381,2.4873 1.6251,.3569 2.9547,1.0632 2.9547,1.5695 0,.5063 .4589,.9205 1.0199,.9205 1.606,0 9.2346,5.0788 8.5928,5.7207-.317,.317 .2343,1.297 1.2249,2.1778 .9907,.8808 2.0934,2.389 2.4504,3.3515 .3571,.9625 1.3383,1.75 2.1806,1.75 .8423,0 1.5314,.594 1.5314,1.32s1.487,3.0885 3.3045,5.25c7.3826,8.7799 11.091,18.761 10.935,29.43-.068,4.6461-5.507,17.949-8.9752,21.952-5.6614,6.5343-11.533,9.9415-19.888,11.54-8.9103,1.705-12.561,1.783-16.876,.3606zm29.449-19.103c.7863-1.2375 2.4704-4.387 3.7423-6.9988 2.9271-6.0104 2.5918-13.27-.9723-21.055-1.3834-3.0217-2.8134-6.8515-3.1778-8.5107-.6661-3.0326-4.3-7.3981-8.4789-10.186-1.2367-.825-3.0646-2.175-4.062-3s-2.7974-2.175-4-3-3.023-2.175-4.0454-3c-4.7189-3.8079-6.4173-5-7.1235-5-.4192,0-2.1079-1.2375-3.7528-2.75-2.5534-2.348-6.0104-5.3001-11.417-9.75-2.6959-2.2188-7.6213-5.5-8.2559-5.5-.3717,0-1.6274-1.0219-2.7905-2.2709s-3.9147-3.3618-6.1147-4.6952-4.3599-3.0114-4.7997-3.7291c-.4398-.7177-1.4789-1.3048-2.309-1.3048-.8301,0-1.2312-.45-.8913-1 .3399-.55-.0656-1-.9012-1-.8356,0-3.7638-2.1375-6.5072-4.75-6.504-6.1937-7.8109-7.25-8.9702-7.25-.5296,0-2.7811-1.8-5.0032-4s-4.5219-4-5.1106-4c-.5887,0-1.3294-.675-1.646-1.5-.3166-.825-1.1866-1.5-1.9334-1.5s-1.8395-.9-2.4282-2-1.7561-2-2.5942-2c-.8381,0-1.2457-.45-.9058-1 .3399-.55-.0879-1-.9508-1-.8628,0-2.3394-.9-3.2813-2-.9419-1.1-2.314-2-3.0492-2-.7352,0-1.0883-.402-.7847-.8933 .3037-.4913-.5882-1.1795-1.9819-1.5293s-2.2621-1.076-1.9297-1.6137c.3324-.5378-.2117-1.2889-1.2091-1.6692-.9974-.3803-2.9338-1.7271-4.3032-2.9929s-2.7501-2.3015-3.0684-2.3015c-.3182,0-2.3478-1.5746-4.5102-3.4992s-4.2536-3.4996-4.6472-3.5c-.3935-.0004-2.0149-1.2383-3.6031-2.7508s-3.8957-3.425-5.1278-4.25-3.167-2.2875-4.2999-3.25-2.6924-1.75-3.4658-1.75c-.7733,0-1.1279-.45-.788-1 .3399-.55 .233-1-.2376-1-1.1624,0-4.4004-2.5824-10.344-8.25-2.7399-2.6125-5.4439-4.75-6.0089-4.75-.565,0-.7491-.45-.4092-1 .3491-.5649-.4708-1-1.8844-1-1.72,0-3.0566-.938-4.2746-3-.9747-1.65-2.2804-3-2.9016-3-.6212,0-1.9439-.9-2.9394-2-.9955-1.1-2.4152-2-3.155-2-.7398,0-1.345-.4197-1.345-.9326 0-.5129-.7875-1.1923-1.75-1.5096-.9625-.3173-3.325-1.9179-5.25-3.5567s-4.0435-3.4345-4.7078-3.9904c-.6643-.5559-1.5353-1.0107-1.9356-1.0107-.4003,0-1.6568-.8566-2.7922-1.9034-1.4714-1.3567-3.9179-2.003-8.5166-2.25l-6.4522-.3466-2.2814,4c-1.2548,2.2-2.2888,4.3019-2.2978,4.6708-.009,.3689 1.755,2.46 3.92,4.6468 2.1651,2.1868 3.6651,4.2475 3.3333,4.5792-.3317,.3317 .0677,.6032 .8877,.6032 .82,0 4.276,2.7 7.68,6s6.5814,6 7.0608,6c.4794,0 1.6769,1.229 2.6611,2.731 .9842,1.5021 2.8815,3.6396 4.2161,4.75 1.3347,1.1104 3.1562,2.8064 4.0478,3.769 .8916,.9625 2.1473,1.75 2.7905,1.75 .6431,0 1.4517,1.125 1.7968,2.5 .3986,1.5879 1.3326,2.5 2.5603,2.5 1.8794,0 9.0291,6.4563 9.0291,8.1534 0,.4656 .5656,.8466 1.2569,.8466 .6913,0 2.7024,1.575 4.4691,3.5s3.7026,3.5 4.3021,3.5c.5994,0 .8118,.45 .4719,1s-.233,1 .2376,1c1.1854,0 4.2332,2.4935 11.612,9.5 3.4753,3.3 7.3538,6.675 8.6188,7.5s2.6791,1.95 3.1424,2.5c.4633,.55 2.203,2.5628 3.8658,4.4729 1.6629,1.9101 3.0234,3.814 3.0234,4.231 0,.417 1.0673,1.026 2.3718,1.3534s2.9555,1.686 3.669,3.019c.7134,1.3331 1.8273,2.4238 2.4752,2.4238 .6479,0 2.2594,.8882 3.581,1.9739 3.5809,2.9415 14.899,13.269 16.741,15.276 .8834,.9625 2.0687,1.7691 2.634,1.7924 .5653,.0233 2.1316,1.3733 3.4808,3s3.0633,2.9576 3.809,2.9576c.7458,0 1.0591,.4803 .6963,1.0673-.3632,.5877 .2843,1.3142 1.441,1.6166 1.1553,.3021 2.1006,1.1718 2.1006,1.9327 0,.7609 .486,1.3834 1.08,1.3834s3.7304,2.5875 6.9697,5.75c7.3956,7.2201 8.6264,8.25 9.8599,8.25 1.1556,0 8.0903,6.9311 8.0903,8.086 0,.4286 .9065,1.0669 2.0145,1.4186 1.108,.3517 1.7861,1.009 1.5069,1.4607-.2792,.4517 .676,1.1184 2.1226,1.4815 1.4466,.3631 3.7937,1.9861 5.2158,3.6067 1.422,1.6206 3.1603,2.9465 3.8628,2.9465 .7025,0 1.2773,.45 1.2773,1s1.8375,1 4.0833,1c2.9108,0 3.916-.359 3.5006-1.25-.3205-.6875-.8605-2.0375-1.2-3-.3395-.9625-1.2398-1.75-2.0006-1.75-.7609,0-1.3834-.4215-1.3834-.9366s-1.4625-1.0776-3.25-1.25c-2.3771-.2292-3.2127-.7834-3.1111-2.0634 .0974-1.2279-.5914-1.75-2.309-1.75-1.3464,0-2.1898-.4176-1.8744-.928 .3155-.5104-.333-1.2157-1.441-1.5674-1.108-.3517-2.0145-1.0591-2.0145-1.572 0-.5129-.6058-.9326-1.3462-.9326-1.5722,0-9.632-8.5702-9.7-10.314-.0254-.6522-1.1719-2.0858-2.5476-3.1858-5.1273-4.0996-7.2655-6.3073-6.6777-6.895 .3327-.3327 .1324-.605-.4451-.605s-1.2854-.9-1.573-2c-.3129-1.1965-1.364-2-2.6164-2-1.1863,0-4.3879-2.2749-7.3885-5.25-2.9123-2.8875-6.5124-5.8028-8.0002-6.4786-1.4878-.6757-2.7051-1.6882-2.7051-2.25 0-.5618-.7016-1.0214-1.559-1.0214-.8575,0-1.3286-.3729-1.0469-.8286 .2817-.4557-1.2206-1.9182-3.3382-3.25-2.1177-1.3318-3.7157-2.6464-3.551-2.9214 .1646-.275-1.2029-1.625-3.0389-3s-3.8073-3.5125-4.3806-4.75c-.5733-1.2375-1.727-2.25-2.5638-2.25-.8368,0-3.3214-1.8-5.5214-4s-4.4938-4-5.0973-4c-.6035,0-3.9512-2.925-7.4393-6.5s-6.7867-6.5-7.3302-6.5c-.5435,0-2.0334-1.2904-3.3107-2.8675-1.2774-1.5771-3.539-3.6401-5.0258-4.5844-1.4868-.9443-5.8714-4.829-9.7435-8.6325-3.8721-3.8036-7.4772-6.9156-8.0115-6.9156-.5342,0-1.453-.9-2.0417-2s-1.4595-2-1.9352-2c-1.2507,0-7.8988-6.8327-7.2648-7.4667 .2933-.2933-.2011-.5333-1.0989-.5333-.8977,0-3.0132-1.35-4.7011-3s-3.4034-3-3.8122-3-1.4672-.7875-2.3519-1.75c-2.2043-2.398-6.0603-5.25-7.0983-5.25-.4706,0-.5998-.414-.2871-.9199 .6262-1.0132-4.053-5.0801-5.8448-5.0801-.6185,0-1.6666-.8678-2.329-1.9285-1.0696-1.7128-.8735-2.0012 1.7529-2.578 1.8924-.4157 3.4556-.1713 4.3413,.6785 .7612,.7304 2.379,2.003 3.595,2.828s3.2172,2.4 4.4472,3.5 4.4107,3.8 7.0682,6c2.6576,2.2 5.5365,4.7875 6.3976,5.75 .8611,.9625 1.9346,1.75 2.3856,1.75 .451,0 1.3635,.457 2.0278,1.0155 4.0799,3.4305 6.7078,5.9653 6.7078,6.4704 0,.933 5.9794,6.514 6.9789,6.514 .5005,0 3.835,2.925 7.41,6.5s6.975,6.5 7.5556,6.5c.5806,0 1.0556,.4197 1.0556,.9326 0,.5129 .8279,1.1954 1.8399,1.5166 2.4909,.7906 5.1507,5.7134 3.4039,6.2999-.6909,.232-1.0019,.8333-.691,1.3364 .8901,1.4402 2.4472,1.0678 2.4472-.5854 0-1.8706 1.4281-1.9291 3.2252-.1319 .7524,.7524 2.318,1.6696 3.479,2.0381 1.161,.3685 2.3634,1.3279 2.672,2.1319 .3085,.8041 1.1741,1.4619 1.9234,1.4619 .7493,0 1.9645,1.125 2.7004,2.5 .7359,1.375 1.6556,2.5 2.0438,2.5 .3882,0 2.758,1.9125 5.2661,4.25 2.5082,2.3375 6.1738,5.6 8.1458,7.25 7.0912,5.9333 11.544,10.13 11.544,10.88 0,1.0845 1.8675,2.7128 6.7532,5.8885 2.3393,1.5205 6.5077,5.0072 9.2632,7.7482s5.5288,4.9837 6.1629,4.9837c.6341,0 1.8657,.6538 2.7368,1.4529 9.213,8.4508 11.68,11.238 11.33,12.797-.2762,1.2303 .2229,1.75 1.6805,1.75 1.1403,0 2.0733,.4414 2.0733,.981s1.125,1.2633 2.5,1.6084 2.5,.9799 2.5,1.4106c0,.4307 1.0125,1.0522 2.25,1.3809 1.2375,.3288 3.6665,1.84 5.3978,3.3584s4.0513,3.3918 5.1555,4.1633c1.1042,.7715 2.2531,2.6298 2.553,4.1295 .4349,2.1746 1.2642,2.8617 4.0945,3.3926 1.952,.3662 3.5491,1.0651 3.5491,1.5531 0,.488 .8026,1.142 1.7836,1.4534 .981,.3113 2.5814,1.9167 3.5565,3.5674 1.0312,1.7456 2.6107,3.0013 3.7754,3.0013 1.1014,0 1.7244,.45 1.3844,1-.3505,.5672 .4896,1 1.941,1 1.4075,0 2.559-.4197 2.559-.9326 0-.5129 .9065-1.2203 2.0145-1.572 1.108-.3517 1.7646-1.0438 1.4591-1.5381-.654-1.0581 3.981-2.4124 5.3534-1.5642 .5174,.3198 1.9403,2.7079 3.162,5.3069 2.3256,4.9475 3.7228,18.68 2.1102,20.741-.456,.5826-1.072,2.9717-1.369,5.3092-.6087,4.7919 .8632,5.7066 3.2184,2zm-59.949-31.821c0-.5893-.6429-1.7143-1.4286-2.5-2.8432-2.8432-4.9744-.9376-2.3214,2.0756 1.4834,1.6848 3.75,1.9414 3.75,.4244zm-7-5.7658c0-.7849-1.9868-2.8802-11.956-12.609-2.224-2.1703-4.0437-4.5328-4.0437-5.25 0-.7171-.675-1.3039-1.5-1.3039s-1.5-.6262-1.5-1.3916-1.1434-1.6786-2.5409-2.0293c-1.3975-.3507-2.2709-1.0745-1.941-1.6084 .33-.5339 .1389-.9707-.4246-.9707-.5635,0-2.4056-1.35-4.0935-3s-3.5782-3-4.2006-3-1.8444-.6724-2.7155-1.4943c-8.116-7.6568-10.084-9.7146-10.084-10.544 0-.5287-.9-.9614-2-.9614s-2-.4414-2-.981-1.0596-1.2469-2.3546-1.5719c-1.7758-.4457-2.289-1.1886-2.0877-3.022 .2026-1.846-.312-2.5763-2.1385-3.0348-1.323-.332-2.1569-1.0057-1.8532-1.497 .3037-.4913-.1658-.8933-1.0432-.8933-.8774,0-4.9813-3.375-9.1197-7.5s-7.9567-7.5-8.4852-7.5c-.5284,0-1.4734-1.125-2.0999-2.5s-1.8189-2.5-2.6498-2.5c-1.867,0-5.1682-2.8839-5.1682-4.5149 0-.6627-1.1734-2.0555-2.6076-3.095s-3.8746-3.1276-5.4231-4.6401-3.2634-2.75-3.8108-2.75c-.5475,0-1.9688-1.575-3.1585-3.5s-2.8014-3.5-3.5816-3.5c-.7801,0-1.4213-.3375-1.4248-.75-.003-.4125-1.3613-1.521-3.0174-2.4634s-3.3181-2.5174-3.6934-3.5c-.8022-2.1002-7.1436-8.2866-8.4942-8.2866-.5124,0-1.6066-.675-2.4316-1.5s-2.1333-1.5-2.9074-1.5c-1.1482,0-1.089,.64 .3214,3.4754 .9509,1.9115 2.3103,3.4865 3.021,3.5 1.365,.026 3.2731,1.3853 6.0004,4.2746 .9085,.9625 2.1508,1.75 2.7606,1.75 .6098,0 1.7069,1.1175 2.4379,2.4834s2.157,2.7462 3.169,3.0674c1.0119,.3212 1.8399,1.0634 1.8399,1.6493 0,1.0878 1.3543,2.3844 7.1026,6.7999 6.2562,4.8057 17.565,15.212 17.931,16.5 .1563,.55 .4901,1.7875 .7418,2.75s1.0041,1.75 1.672,1.75c.6679,0 1.823,1.1371 2.5668,2.527 .7438,1.3898 2.3918,2.7878 3.6621,3.1067 1.2703,.3188 2.0612,.9817 1.7576,1.473-.3037,.4913 .187,.8933 1.0903,.8933 .9033,0 3.1719,1.575 5.0414,3.5 1.8694,1.925 3.7599,3.5 4.201,3.5 .4411,0 1.5995,1.35 2.5742,3 .9747,1.65 2.3914,3 3.1482,3 .7568,0 1.6619,.9005 2.0112,2.0011 .3493,1.1006 1.5888,2.5115 2.7544,3.1353 2.5181,1.3476 3.2286,1.9312 9.8785,8.1137 2.81,2.6125 5.4286,4.75 5.819,4.75 .3904,0 1.2535,1.0159 1.918,2.2575s2.85,3.3791 4.8566,4.75c5.4644,3.733 22.273,19.673 22.273,21.122 0,.4786 1.35,.8702 3,.8702s3-.3768 3-.8372zm-209.59-86.41c-.1395-4.5375-.3543-26.141-.4772-48.007-.1725-30.676-.5191-40.155-1.5174-41.5-1.1504-1.5495-1.4612-1.5765-2.8018-.2429-1.2882,1.2815-1.5757,8.4438-1.9736,49.171-.2561,26.219-.2051,47.931 .1134,48.25 .3185,.3185 2.0037,.5791 3.7447,.5791h3.1656l-.2537-8.25zm-16.937,4c.4675-1.42 1.6534-38.379 1.6927-52.75 .083-30.403-1.5092-41.022-6.3833-42.569-.981-.3114-1.7836-.9295-1.7836-1.3737 0-.4442-1.3588-1.0794-3.0196-1.4115-1.6608-.3322-3.5733-1.0718-4.25-1.6435-4.9294-4.1652-6.2588-5.0025-7.9424-5.0025-1.0483,0-1.6576-.402-1.3539-.8933 .3037-.4913-.6083-1.1846-2.0266-1.5405-2.7518-.6907-3.9247-1.4842-8.5962-5.8165-1.6312-1.5127-4.0376-3.0193-5.3475-3.3481-1.3099-.3288-2.9053-1.2286-3.5452-1.9997-.6399-.771-2.0084-1.4019-3.041-1.4019s-1.8776-.45-1.8776-1-.9141-1-2.0314-1-2.2857-.6628-2.5966-1.4728c-.3108-.81-2.0928-1.7594-3.9599-2.1096-1.8671-.3503-3.1768-.9895-2.9104-1.4205 .2664-.431-.6285-1.063-1.9886-1.4043-1.3601-.3414-3.8475-1.9644-5.5276-3.6067s-3.7463-2.986-4.5916-2.986c-.8453,0-2.1247-.5625-2.843-1.25-2.4706-2.3646-8.6422-6.2087-11.801-7.3506-.9625-.3479-1.75-1.0301-1.75-1.516 0-.4859-.6526-.8834-1.4503-.8834-.7977,0-1.8102-.6202-2.25-1.3783-.4398-.7581-2.1905-1.6781-3.8904-2.0445-4.0863-.8808-5.6206,1.0481-5.2204,6.563 .2874,3.9607 .5631,4.3392 3.6119,4.958 4.1902,.8504 3.9851,.5804 5.2992,6.978 2.4876,12.111 1.471,40.131-1.9746,54.424-.5303,2.2-1.2784,7.4875-1.6623,11.75-.3839,4.2625-1.0952,7.75-1.5805,7.75-.4854,0-.9451-.7875-1.0215-1.75-.2759-3.4727 .1992-19.912 .7875-27.25 .9595-11.968 .4998-25.701-1.2302-36.75-.4865-3.1071-3.3647-4.7697-3.4624-2-.1914,5.4274-1.2285,25.348-1.8092,34.75-.3906,6.325-.6959,18.281-.6785,26.57 .0341,16.186 .3558,17.287 5.5318,18.93 1.3237,.4201 3.0224,1.3795 3.7748,2.1319 .7524,.7524 2.2359,1.3681 3.2966,1.3681s1.9286,.4142 1.9286,.9205c0,.5063 1.35,1.2171 3,1.5795s3,1.0528 3,1.5341c0,.4814 1.575,1.1707 3.5,1.5318 1.925,.3611 3.5,1.0565 3.5,1.5453 0,.4888 .6429,.8887 1.4286,.8887 .7857,0 2.0487,.6201 2.8066,1.3781 .7579,.7579 2.819,1.6946 4.5802,2.0814 1.7611,.3868 2.9692,1.0801 2.6846,1.5406-.2846,.4605 .8365,1.1346 2.4913,1.4981 1.6548,.3635 3.0087,1.0751 3.0087,1.5814 0,.5063 1.0929,.9205 2.4286,.9205s3.1096,.681 3.942,1.5134c.8324,.8324 2.8895,1.7886 4.5714,2.125 1.6819,.3364 3.058,.985 3.058,1.4413 0,.4563 1.5711,1.1244 3.4912,1.4846 1.9202,.3602 3.2436,1.0556 2.941,1.5453-.3026,.4897 .176,.8904 1.0636,.8904 2.2482,0 10.504,3.862 10.504,4.9137 0,.4751 1.575,1.1592 3.5,1.5203 1.925,.3611 3.5,1.0374 3.5,1.5029 0,.4655 1.1434,1.1332 2.5409,1.484 1.3975,.3507 2.3057,1.0183 2.0182,1.4835-.2875,.4652 1.2691,1.1323 3.4591,1.4825 2.19,.3502 3.9818,1.0484 3.9818,1.5516 0,1.9396 7.8553,2.6918 8.4743,.8115zm-82.952-64.679c-.3559-1.1214-.3343-12.509 .048-25.305 .3823-12.796 .6214-27.204 .5313-32.016-.1359-7.2611 .0967-8.75 1.3672-8.75 .842,0 1.5898,.1125 1.6617,.25s.6344,7 1.25,15.25c1.0563,14.156 .6813,28.726-1.169,45.421-.7161,6.4612-2.4879,8.9346-3.6891,5.1499zm14.477-18.571c0-1.375 .4234-2.5 .941-2.5 1.4573,0 2.2139,1.7862 1.059,2.5-.5679,.351-.7737,1.0571-.4573,1.5691 .3164,.512 .0988,.9309-.4837,.9309-.5825,0-1.059-1.125-1.059-2.5zm13.148-10.451c.0626-2.7767 .505-5.0486 .9831-5.0486 1.2038,0 1.0991,8.74-.1137,9.4896-.5996,.3706-.9387-1.3615-.8693-4.441zm-13.541-5.6304c-1.0229-2.6655-.69-17.418 .393-17.418 .55,0 1.0435,.5625 1.0967,1.25 1.1279,14.578 .5029,21.361-1.4897,16.168zm95.354,98.184c1.5782-4.1509 1.2985-93.785-.3006-96.352-.4283-.6875-1.372-1.25-2.0972-1.25-3.7547,0-3.8764,1.6634-3.7058,50.652 .0912,26.167 .412,47.975 .7131,48.462 1.1136,1.8018 4.4906,.8544 5.3905-1.5124zm10.521-2.352 2.5636-2.75-.5069-15c-.2788-8.25-.7739-29.387-1.1003-46.97-.3264-17.584-.8103-32.321-1.0752-32.75-.9815-1.5881-4.3312-.7088-5.4804,1.4386-1.556,2.9073-.3183,95.553 1.3026,97.506 1.3949,1.6808 1.3374,1.7005 4.2967-1.474zm13.468-6.691c.6578-.7926 1.3-2.8047 1.4272-4.4714 .1272-1.6667 .5154-3.3145 .8627-3.6618s.2016-1.762-.3238-3.1439c-.5254-1.3818-1.1485-14.948-1.3848-30.147-.4384-28.204-1.2586-48.856-2.1003-52.885-.6779-3.2447-5.1573-3.1027-6.4142,.2032-1.4112,3.7118-1.3266,71.47 .0913,73.178 .7486,.902 .9807,4.3849 .6745,10.122-.2861,5.3605-.0479,9.4241 .6153,10.497 1.3104,2.1192 4.9089,2.2889 6.5521,.309zm68.049-.559c0-.55-.9266-1-2.059-1-1.1325,0-1.7809,.45-1.441,1 .3399,.55 1.2665,1 2.059,1 .7925,0 1.441-.45 1.441-1zm-57.004-5.7815c1.5094-1.4062 1.9745-3.4432 2.2082-9.6698 .1686-4.4931 .7598-8.0416 1.3737-8.2444 1.3736-.454 3.4126,3.969 3.4541,7.4927 .041,3.488 2.4116,6.6305 4.4202,5.8598 .8514-.3267 1.548-1.5082 1.548-2.6254 0-1.1732 .6586-2.0314 1.559-2.0314 .8575,0 1.2809,.45 .941,1-.3505,.5672 .4896,1 1.941,1 2.9918,0 3.2253-1.4852 .8024-5.1038-2.1603-3.2265-9.1981-9.8962-10.442-9.8962-.5055,0-.7204-.3375-.4774-.75 .2429-.4125-.6653-1.65-2.0183-2.75s-3.7406-3.2375-5.3058-4.75c-4.0314-3.8958-6.9654-3.6896-7.118,.5-.0651,1.7875-.0475,3.6403 .0391,4.1173 .0866,.477 .3335,6.327 .5486,13 .3228,10.013 .6653,12.189 1.9609,12.456 .8634,.1778 1.5698,.7403 1.5698,1.25 0,1.3789 .8623,1.1329 2.9958-.8548zm34.004-4.1595c0-.5175-.45-1.2191-1-1.559-.55-.3399-1,.0835-1,.941 0,.8575 .45,1.559 1,1.559s1-.4234 1-.941zm.8333-15.986c-.723-2.0096-10.056-11.074-11.402-11.074-.7874,0-1.4317-.3778-1.4317-.8395 0-.4617-1.125-1.3521-2.5-1.9786-2.9921-1.3633-3.31-.2073-.5,1.818 1.1,.7928 2,2.0313 2,2.7521 0,.7208 .6724,1.5687 1.4943,1.884 .8218,.3154 1.2453,.9762 .941,1.4686-.3043,.4924-.1456,.8952 .3527,.8952 .8248,0 4.2059,2.4808 6.712,4.9248 1.2821,1.2503 4.7728,1.3701 4.3333,.1487zm47.947-17.436c1.9574-2.875 2.1203-3.7586 1.1509-6.2432-.8767-2.2469-2.4146-67.291-1.9777-83.644 .0257-.9625-.6282-1.75-1.4532-1.75-.825,0-1.5,.3999-1.5,.8887s-1.575,1.1842-3.5,1.5453c-1.925,.3611-3.5,1.0467-3.5,1.5234 0,.4767-1.7202,1.1574-3.8227,1.5126-3.8421,.6491-9.1385,4.5662-9.2222,6.8204-.0247,.6652-.1783,16.167-.3414,34.448-.2924,32.775-.2673,33.258 1.7949,34.635 1.1503,.7677 3.1728,2.3477 4.4944,3.5111 1.3217,1.1634 2.8107,2.1153 3.309,2.1153s.6279,.45 .288,1 .0147,1 .788,1c.7733,0 2.4437,.9 3.712,2s2.7137,2 3.212,2 .6279,.45 .288,1c-.3442,.5569 .405,.997 1.691,.9932 1.4939-.004 3.1139-1.189 4.5891-3.3558zm-13.867-24.887c-1.1096-54.43-1.0996-54.75 1.699-54.75 1.3534,0 1.532,1.5082 1.2728,10.75-.1658,5.9125 .0345,17.231 .445,25.153 .8247,15.913 .2202,23.097-1.9437,23.097-.9509,0-1.4137-1.3352-1.4731-4.25zm-54.413,23.027c.55-.4105 .002-.7532-1.2186-.7616-1.5918-.011-2.0513,.4207-1.6265,1.5278 .3257,.8487 .8741,1.1914 1.2186,.7616 .3446-.4298 1.0765-1.1173 1.6265-1.5278zm79.51-4.8516c.2805-.4217 1.7246-1.0716 3.209-1.4441 1.4844-.3726 3.2225-1.3082 3.8624-2.0793 .6399-.771 1.753-1.4019 2.4736-1.4019 .7206,0 1.6581-1.0125 2.0834-2.25 .7254-2.1108 .571-82.848-.1599-83.596-.186-.1905-2.6941-.4155-5.5736-.5-3.4156-.1002-5.3808,.2809-5.6536,1.0964-.23,.6875-1.2118,1.25-2.1818,1.25-.97,0-2.8361,.9302-4.147,2.067l-2.3833,2.067 .2916,41.029c.1604,22.566 .7068,42.121 1.2143,43.456 .7743,2.0366 1.3675,2.318 3.6887,1.7498 1.5213-.3724 2.9955-1.0221 3.276-1.4438zm1.8645-15.175c-.069-.1375-.2516-4.1514-.4058-8.9197-1.0126-31.312-1.5103-42.089-1.9789-42.847-.2931-.4742-.2407-2.6896 .1164-4.9229 .4814-3.0107 1.1168-4.0607 2.4572-4.0607 1.6122,0 1.8419,1.1634 2.1222,10.75 .5532,18.92-.211,50.25-1.2258,50.25-.5279,0-1.0163-.1125-1.0853-.25zm-41.573,3.8058c1.1992-1.1992 1.4165-6.2656 1.281-29.862-.1427-24.851-.3688-28.623-1.8013-30.056-.901-.901-2.4203-1.6382-3.3763-1.6382-.9559,0-1.4756,.2625-1.1548,.5833 .3208,.3208-.3032,1.4699-1.3868,2.5535-1.8784,1.8784-1.956,3.2212-1.6667,28.833l.3035,26.863 2.403,2.0834c2.8489,2.4699 3.4915,2.546 5.3983,.6392zm-56.765-9.8058c3.593-3.2221 4.6269-3.8327 7.4436-4.3961 1.6608-.3322 3.0196-.9619 3.0196-1.3995 0-.4375 1.35-1.0921 3-1.4545l3-.6589-.0137-11.171c-.008-6.1438-.2959-12.225-.6408-13.513-.5797-2.1653-.9756-2.2902-5.2363-1.652-2.5351,.3798-4.8342,1.0398-5.1092,1.4668-.275,.427-1.9625,1.0936-3.75,1.4814s-3.25,1.1193-3.25,1.6256c0,.5063-.675,.9205-1.5,.9205-1.3649,0-1.75,1.2102-1.75,5.5 0,20.313 .3113,24.5 1.8214,24.5 .8643,0 2.1987-.5625 2.9653-1.25zm2.994-12.653c-.8746-2.7557 .2135-12.084 1.6052-13.76 .9589-1.1554 1.346-1.1811 2.0105-.1336 .9574,1.5093 1.1375,11.894 .2466,14.216-.8359,2.1783-3.1295,1.9874-3.8623-.3215zm40.861,12.153c.713-2.3689-.1-42.969-.8858-44.24-.9445-1.5282-5.4498-1.2091-7.1665,.5077-1.1033,1.1033-1.463,3.3554-1.3176,8.25 .4702,15.839 .038,22.232-1.5029,22.232-2.2465,0-2.5406-2.1221-3.4306-24.75-.0696-1.7704-.6747-2.2467-2.8385-2.2347-5.5009,.0306-5.7466,.7043-5.7897,15.876-.0232,8.161 .3923,14.547 1,15.37 .5718,.7737 2.8362,1.6957 5.0318,2.049 2.1957,.3533 4.1457,1.103 4.3333,1.666 .1877,.563 1.0961,1.0236 2.0188,1.0236s2.7928,1.35 4.1557,3c2.7672,3.3501 5.5935,3.9028 6.3919,1.25zm-86.821-23.678c.8648-.8648 2.6652-1.5724 4.0009-1.5724s2.4286-.4447 2.4286-.9882 1.7918-1.2747 3.9818-1.6249 3.7589-.9974 3.4865-1.4382c-.2724-.4408 1.9917-1.1122 5.0314-1.492 3.0397-.3798 5.7481-1.0488 6.0188-1.4866 .2706-.4379 2.2897-1.0998 4.4868-1.471s3.9948-1.0854 3.9948-1.587c0-.5016 1.025-.9121 2.2778-.9121s3.0484-.9 3.9902-2c.9418-1.1 2.424-2 3.2937-2 .8697,0 2.2562-.675 3.0812-1.5s2.5928-1.5 3.9286-1.5c1.3357,0 2.4286-.4142 2.4286-.9205 0-.5063 1.35-1.2171 3-1.5795s3-1.0528 3-1.5341c0-.4814 1.575-1.1707 3.5-1.5318 1.925-.3611 3.5-1.0208 3.5-1.4659 0-.4451 1.35-1.1058 3-1.4682s3-1.0156 3-1.4516 1.8-1.0806 4-1.4324c2.2-.3518 4-1.0254 4-1.497 0-.4715 1.5796-1.1137 3.5102-1.427s4.2128-1.2722 5.0714-2.1308c.8587-.8587 2.6806-1.5612 4.0488-1.5612s2.2341-.4101 1.9243-.9114c-.3098-.5013 1.2386-1.2158 3.441-1.5879 2.2023-.3721 4.0042-1.0512 4.0042-1.5092 0-.458 1.3448-1.128 2.9885-1.489 1.6437-.361 3.2452-1.0718 3.559-1.5795 .3138-.5077 1.8618-.9231 3.44-.9231s3.5721-.7025 4.4308-1.5612c.8587-.8587 3.1408-1.8176 5.0714-2.1308 1.9306-.3133 3.5102-.9022 3.5102-1.3087 0-.4065 1.9855-.9629 4.4122-1.2364 3.0875-.348 5.3873-1.4086 7.6601-3.5328l3.2479-3.0354-1.735-3.6562c-.9542-2.0109-3.1638-5.177-4.9101-7.0356-5.8724-6.2502-7.6784-8.6674-8.2867-11.091-.3329-1.3263-.9236-2.4115-1.3127-2.4115s-1.6862-1.7415-2.8825-3.87-2.9075-4.4779-3.8027-5.2208c-1.949-1.6176-11.391-15.45-11.391-16.687 0-.4777-2.494-3.423-5.5423-6.5452-5.196-5.322-8.8294-7.0613-9.6443-4.6168-.4116,1.2348-6.8121,1.5192-26.622,1.183-9.2262-.1566-14.089-.598-13.691-1.2428 .3399-.55-.057-1-.882-1-.825,0-1.7916,.4719-2.148,1.0486-.4015,.6497-1.0896,.6995-1.809,.1309-.6385-.5047-6.336-1.23-12.661-1.6118-6.325-.3817-11.65-1.1156-11.833-1.6309-.4298-1.208-18.167-1.2327-18.167-.0253 0,.5013-5.0256,1.0638-11.168,1.25-7.633,.2313-11.296,.7241-11.573,1.5568-.2227,.6701-1.9432,1.5069-3.8233,1.8596-1.8802,.3527-3.1955,1.0021-2.923,1.443 .2725,.441-1.3064,1.1062-3.5088,1.4782-2.2023,.3721-4.0042,1.0512-4.0042,1.5092 0,.458-1.35,1.1292-3,1.4916s-3,1.0528-3,1.5341c0,.4814-1.575,1.1707-3.5,1.5318-1.925,.3611-3.5,1.0077-3.5,1.4369 0,.4292-1.125,1.0627-2.5,1.4078-1.375,.3451-2.5,1.0689-2.5,1.6084 0,.5395-.6062,.981-1.347,.981-.7408,0-2.3847,.9-3.653,2s-2.9122,2-3.653,2c-1.4687,0-1.679,.9714-.74,3.4182 .3338,.87 1.491,1.5818 2.5714,1.5818 1.7462,0 1.7978,.1667 .4644,1.5-1.6391,1.6391-4.6429,2.0327-4.6429,.6084 0-.4904-1.1574-1.1821-2.5719-1.5371-2.8687-.72-7.704,1.8108-12.596,6.5925-1.5958,1.5599-3.3624,2.8362-3.9259,2.8362-.5635,0-.7464,.45-.4065,1s.1415,1-.441,1-1.059,.675-1.059,1.5c0,1.1643 1.3241,1.5 5.9167,1.5 3.356,0 6.0728-.4685 6.2775-1.0824 .2493-.748 15.331-1.2285 48.808-1.555 29.473-.2875 48.681-.8501 49.043-1.4365 .8408-1.3604 56.323-1.3201 56.777,.0412 .1893,.568 2.0318,1.0328 4.0943,1.0328 4.2553,0 5.515,.7749 4.0767,2.5079-1.2242,1.4751-16.158,.7428-17.175-.8423-.9905-1.5435-34.022-1.5511-34.537-.008-.5792,1.7358-26.942,1.8544-27.525,.1239-.3465-1.0299-.7299-1.0351-1.9525-.0264-1.0929,.9017-9.0932,1.4267-28.413,1.8643-14.79,.3351-27.041,1.0077-27.225,1.4948-.509,1.3524-4.9432,1.0543-5.4207-.3643-.328-.9745-.7871-.9475-2.0833,.1225-1.0808,.8922-1.6626,.9797-1.6626,.25 0-.6939-2.1-1.1224-5.5-1.1224-3.025,0-5.5,.45-5.5,1 0,.6127-4.7823,1-12.347,1-10.303,0-12.69,.2897-14.419,1.75-1.1395,.9625-3.2166,2.5879-4.6157,3.612s-2.5074,2.1491-2.4628,2.5c.3204,2.5209-.4712,4.0028-2.4058,4.5038-2.5268,.6543-7.8217,8.2839-7.0836,10.207 .2631,.6856 1.6093,1.5304 2.9916,1.8773 2.3326,.5855 3.3406,1.215 6.6734,4.1678 .6941,.6149 2.345,1.4618 3.6687,1.8819 1.3237,.4201 3.0224,1.3795 3.7748,2.1319 .7524,.7524 2.0109,1.3681 2.7966,1.3681 .7857,0 1.4286,.45 1.4286,1s.6062,1 1.347,1c1.1878,0 2.5764,.9408 7.3834,5.0025 .6767,.5718 2.5892,1.3114 4.25,1.6435 1.6608,.3322 3.0196,.9977 3.0196,1.4789 0,.4812 .8679,.875 1.9286,.875s2.5442,.6156 3.2966,1.3681c.7524,.7524 2.3596,1.6828 3.5714,2.0674 1.2118,.3846 2.2034,1.0702 2.2034,1.5235 0,.4533 1.125,1.1066 2.5,1.4517 1.375,.3451 2.5,1.0689 2.5,1.6084 0,.5395 .6526,.981 1.4503,.981 .7977,0 1.8102,.5733 2.25,1.274 1.1099,1.7682 5.9246,4.726 7.6931,4.726 .8051,0 2.0794,.6156 2.8318,1.3681 .7524,.7524 2.3596,1.6828 3.5714,2.0674 1.2118,.3846 2.2034,1.119 2.2034,1.6319 0,.5129 .6429,.9326 1.4286,.9326 .7857,0 2.0442,.6156 2.7966,1.3681 .7524,.7524 2.3596,1.6828 3.5714,2.0674 1.2118,.3846 2.2034,1.0832 2.2034,1.5525 0,.4692 1.3124,1.1414 2.9165,1.4937 1.604,.3523 3.1649,1.2881 3.4686,2.0795 .3037,.7914 1.4663,1.4389 2.5835,1.4389 1.1173,0 2.0314,.417 2.0314,.9267 0,2.511 13.001,2.2152 15.571-.3543zm-44.571-39.072c0-.825 .6375-1.5 1.4167-1.5 .7792,0 1.5667-.3818 1.75-.8484 .1833-.4667 14.12-1.1366 30.97-1.4887 32.247-.6739 33.884-.4857 32.273,3.7104-.6695,1.7446-5.4103,2.2938-5.4103,.6268 0-.55-.9-1-2-1s-2,.45-2,1c0,1.4548-6.7269,1.2281-7.4167-.25-.4667-1-.7-1-1.1667,0-.4428,.9489-6.3444,1.25-24.5,1.25-20.593,0-23.917-.2085-23.917-1.5zm-28-15c0-.8333 .8889-1.5 2-1.5 1.1,0 2-.4016 2-.8925 0-.8657 19.271-1.9044 49-2.6413 7.975-.1977 22.15-.8581 31.5-1.4676 19.462-1.2688 40.054-.8443 41.759,.8608 .6273,.6273 1.9506,1.1406 2.9406,1.1406s1.8,.5075 1.8,1.1278c0,.7633-1.347,.9124-4.1673,.4614-6.3803-1.0202-33.254-.7597-36.175,.3507-1.6516,.6279-2.8022,.6359-3.1817,.0219-.7934-1.2837-4.2198-1.2314-4.654,.0711-.2212,.6637-10.505,1.1961-28.773,1.4895-17.182,.276-28.828,.8564-29.439,1.4671-1.5341,1.5341-18.591,1.3155-18.689-.2395-.0632-1-.1798-1-.5833,0-.7285,1.8053-5.3377,1.5894-5.3377-.25zm-26-10.79c0-1.1579 1.4987-1.7505 5.75-2.2734 3.1625-.389 5.975-1.0499 6.25-1.4686 .275-.4187 13.325-1.0918 29-1.4958 18.1-.4664 28.746-1.1193 29.174-1.789 .4506-.7053 1.2594-.5791 2.442,.3811 1.105,.8972 1.4865,.9669 1.0172,.1857-.4653-.7746-.1897-1.25 .7247-1.25 .8116,0 1.7039,.5625 1.9829,1.25 .386,.9512 .7086,.9677 1.3498,.0688 .6245-.8755 13.799-1.2465 50.895-1.4335 45.55-.2296 50.269-.1009 52.456,1.4312 2.2688,1.5891-.0195,1.6835-40.819,1.6835-28.39,0-43.223,.3461-43.223,1.0085 0,.5959-.8307,.4936-2.0305-.25-1.6395-1.0161-2.1855-1.0096-2.8352,.034-.4426,.7108-2.3414,1.2333-4.2195,1.1611-10.204-.3925-66.559,1.4197-67.365,2.1663-1.3947,1.2923-4.3054,1.0722-4.8905-.3698-.3914-.9646-.7022-.9762-1.3611-.0506-.4696,.6597-3.8789,1.5093-7.5761,1.8881-5.728,.5868-6.7223,.457-6.7223-.8775zm82-28.71c-31.693-.4464-35.232-.656-33-1.9547 2.1093-1.2274 12.888-1.4872 68.98-1.6622 63.771-.1991 71.942,.1131 69.378,2.6508-1.0932,1.082-59.261,1.6154-105.36,.9661zm-17.75-12.662c-2.3203-.9363-1.2712-2.3377 1.75-2.3377 3.2057,0 4.03,1.3908 1.4182,2.393-.87,.3338-1.6575,.5715-1.75,.528-.0925-.0434-.7307-.3059-1.4182-.5833zm77.977-.0965c-2.35-.1972-4.011-.7821-3.691-1.2999 .9168-1.4834-37.849-1.2285-39.336,.2586-.9333,.9333-1.4667,.9333-2.4,0-1.4511-1.4511-3.1654-1.6002-2.3-.2 .3971,.6425-3.1563,1-9.941,1-5.8075,0-10.559-.3938-10.559-.875 0-.9368 4.7762-2.125 8.5417-2.125 1.2604,0 2.4792-.5625 2.7085-1.25 .5951-1.7844 58.917-1.7488 59.512,.0363 .4865,1.4596 7.8579,1.6376 8.7396,.211 .4119-.6665 1.2425-.6694 2.4772-.009 1.0216,.5467 3.2296,.7197 4.9066,.3843 1.677-.3354 5.1487-.295 7.7149,.0898 4.0578,.6085 4.4784,.8871 3.2279,2.1376-1.4525,1.4525-19.754,2.4671-29.601,1.6409zm33.348,.001c-.3166-.3165-.5756-1.1755-.5756-1.9089 0-1.0107 2.1173-1.3296 8.75-1.318 8.1017,.0142 12.554,1.014 11.08,2.4882-.8049,.8049-18.509,1.4841-19.254,.7387zm13.444-18.273c.9506-1.5381-1.6612-6.7069-4.0294-7.9744-1.0221-.547-8.8894-.9945-17.483-.9945-10.162,0-15.409-.3496-15.007-1 .3769-.6098-1.1285-1-3.8576-1-2.4616,0-4.6273,.4548-4.8126,1.0106-.1853,.5558-4.7228,1.2987-10.083,1.6508-5.3606,.3521-9.7465,.9699-9.7465,1.3729 0,.403-2.925,1.0459-6.5,1.4288-4.6225,.495-6.5,1.1064-6.5,2.1165 0,1.4765 2.1381,1.8773 7.8655,1.4744 2.171-.1527 3.1322,.1408 2.7081,.8269-.4499,.7279 3.8536,1.1513 13.635,1.3414 47.676,.9264 53.098,.9009 53.811-.2534zm-84.357-4.2189c-.2774-.6875-.5044-.125-.5044,1.25s.227,1.9375 .5044,1.25 .2774-1.8125 0-2.5zm93.338,.75c0-.825-.45-1.5-1-1.5s-1,.675-1,1.5 .45,1.5 1,1.5 1-.675 1-1.5z"/>
</g>
</svg>
