<svg xmlns="http://www.w3.org/2000/svg" viewBox="0 0 55.999 65.645">
<g transform="matrix(.85924 0 0 .85924 -.17 -178.12)">
<path fill="#c17d11" d="m17.766,235.78c0,14.6-10.683,25.39-24.641,25.39s-27.035-11.97-25.286-26.45c1.614-13.37 11.214-27.07 25.172-26.95 14.072,.12 24.593,13.25 24.755,28.01z" transform="matrix(1.2488 0 0 1.1435 42.71 -15.942)"/>
</g>
<g fill-rule="evenodd">
<g transform="matrix(.85924 0 0 .85924 -.17 -178.12)">
<path fill="#c17d11" stroke="#000" d="m28.5,220.59c-1.5-2.25-9-9.75-9-9.75l13.75,1-3,3.5 2.5,1.25 9.25-3 4.25,1 6.25-2-6.75,8-4.25,2-13-2z"/>
<path fill="#8f5902" d="m22.25,210.59l8.75-2.75 1.75,2.25 10.471-1.69-2.221,2.69 .75,.9 7.5-3.15 3.75,.25 1,2-2,2.25-5.75,1.25-3.75-1.25-10,3.25-2.25-1.25 3.5-3.75-11.5-1z"/>
<path fill="#edd400" stroke="#000" stroke-width=".6" d="m25.698,223.01c.265-.35 2.321-2.13 2.321-2.13l13.877,1.72 12.993-4.06 3.536,.66-.663,2.08-12.551,1.37-4.287,1.99-15.226-1.63z"/>
</g>
<g transform="matrix(.85924 0 0 .85924 -.17 -178.12)">
<path d="m35.2,232.79c.453,1.43 .926,2.83 1.725,3.92 3.469-.51 5.107-.31 8.309,.47-.036,.92 1.079,.69 1.255,1.41 .29,1.18-.625,1.15-.941,1.72-3.487,.63-4.171-3.05-7.996-1.41 .761,1.59 1.06,3.65 2.038,5.02 2.508-.32 5.452,.2 7.212,1.25 1.262,.76 2.481,1.57 2.195,3.61-.093,.66-.267,1.87-.627,2.66-.095,.21-.445,.23-.627,.47-.324,.44-.446,1.2-.627,1.42-.574,.69-1.42,.66-1.882,1.72-.886-.15-.87,.59-1.411,.78 .208,.85 .397,2.21 1.098,2.98-.34,1.19 .756,2.17-.627,2.51-1.174-.97-1.034-3.25-1.725-4.7-1.754,.2-3.188,.75-4.547,.94-.109,1.87 1.621,3.08 .784,4.7-2.356,.02-1.068-3.66-2.508-4.7-3.41,.23-6.109,.01-7.996-1.57-.536-1.07-.317-2.41 .783-2.66 1.999-.46 4.781,3.74 6.899,2.19-.679-1.78-.745-4.17-1.725-5.64-4.675,.91-9.291-1.88-7.682-7.22 .906-.58 1.342-1.71 2.195-2.35 .52-.39 1.241-.31 1.568-.94 .033-2.13-2.266-3.22-1.411-5.17 1.926,.37 1.367,3.23 2.508,4.39 1.68-.15 2.622-1.04 4.077-1.41-.224-1.63-1.913-2.67-1.098-4.39h.784zm-2.979,7.99c.458,1.69 1.079,3.21 2.038,4.39 1.453-.53 2.667-.43 4.077-1.09-.341-1.81-1.503-2.79-1.725-4.71-2.003-.07-3.047,.82-4.39,1.41zm-1.254,.63c-1.043,1.1-2.81,1.48-2.665,3.76 1.281,1.03 2.996,.45 4.546,.32-.337-1.65-.928-3.05-1.881-4.08zm10.348,7.84c.953,1.14 1.147,3.03 1.881,4.39 1.946-.72 4.566-2.57 3.136-5.17-1.485-.27-4.64-.93-5.017,.78zm-5.801,1.1c.879,1.47 .762,3.94 1.881,5.17 1.579-.31 3.21-.4 4.547-1.25-.331-1.5-.722-2.94-1.411-4.08-.037-.69-.113-1.35-.784-1.41-1.126,.43-3.617,.18-4.233,1.57z"/>
<path d="m19.755,261.19c.556,.92-.278,3.13-1.568,2.66-.071-1.48 .244-2.58 1.568-2.66z"/>
<path d="m34.649,267.46c-.074,.49 .422,.41 .47,.78-.312,.68-.603,1.38-1.724,1.26-.47-1.16 .314-1.84 1.254-2.04z"/>
<path d="m24.615,267.61c.551,.8 .115,2.12-.627,2.51-1.267-.31-.54-2.69 .627-2.51z"/>
<path d="m44.632,209.14c-.75,.83-1.775,1.36-2.822,1.72 .495,.64 1.297,.05 1.882-.11 2.059-.77 3.977-2.1 6.237-2.19 1.02-.06 2.05-.09 3.068-.03 1.478,.44 2.3,2.42 1.432,3.74-.579,.46-1.151,.91-1.473,1.57-.558,.29-1.044,.67-1.243,1.27-.594,.24-1.126,.53-1.405,1.14-1.073,1.36-2.581,2.34-3.514,3.82-.024,.52 .87,.01 1.124-.14 .619-.46 1.356-.76 2.136-.71 .669-.17 1.228-.64 1.928-.74 1.767-.41 3.594-.66 5.41-.54 .878,.1 1.95,.22 2.455,1.05 .375,.57 .105,1.36-.478,1.67-.534,.35-1.224,.45-1.656,.96-.32,.34-.757,.64-1.249,.54-.717,.05-1.305,.57-2.033,.58-2.649,.34-5.34-.29-7.974,.25-.318,.09-1.202-.57-1.049,.04 .418,.43 1.121,.45 1.467,.96 .476,.48 1.08,.66 1.694,.81 .672,.39 1.252,.91 1.898,1.34 2.459,1.8 4.84,3.77 6.708,6.2 4.779,4.6 6.299,8 6.577,12.69 .334,.5 .563,1.06 .472,1.66 .162,.63 .681,1.12 .722,1.79 .303,1.75 .006,3.53 .256,5.28 .208,2.07 .275,4.18-.107,6.23-.194,.97-.254,1.99-.626,2.91-.272,.62-.788,1.13-.851,1.83-.135,.88-.139,1.8-.602,2.58-.749,1.47-2.039,2.63-2.549,4.23-1.069,.46-1.738,1.48-2.678,2.12-4.432,3.75-9.425,6.97-15.005,8.69-5.546,1.74-11.555,1.73-17.181,.36-5.426-1.3-10.534-3.69-15.324-6.52-1.1524-.56-1.5954-1.97-2.8049-2.46-1.6628-2.28-3.8417-4.25-4.9322-6.91-.4004-.62-.2383-1.56-.9402-1.99-1.3099-5.6-1.8224-8.5-1.0262-13.2-.0583-.76 .0074-1.53 .4085-2.19 .3669-.96 .6002-1.97 .689-2.99 .6882-.57 1.0323-1.47 1.0975-2.35 .7003-.37 .8296-1.21 1.0975-1.88 .0109-.46-.1529-1.42 .5293-1.41 .7223,.14 1.0383-.82 1.297-1.34 .3368-.49 .9675-.73 1.1098-1.38 .2245-.61 .796-.9 1.243-1.31 .5389-.64 .7815-1.49 1.3421-2.12 .6738-.83 1.4628-1.56 1.9928-2.5 .28-.46 .887-.47 1.177-.93 .379-.42 .736-.89 1.259-1.14 .531-.41 .572-1.2 1.157-1.57 1.134-.85 2.237-1.74 3.414-2.53 2.212-1.51 4.697-3.27 7.4-3.54 2.97-.34 6.016-.44 8.973-.19 1.89,.2 3.715,.72 5.62,.61 .678-.14 3.973-1.58 4.68-1.53 .857-.07 .026,2.42 .511,1.61-1.107-.15-3.878,.73-4.939,.86-.657-.39-1.376,.7-2.054,.55-4.114,.21-8.832-2.83-12.381-1.2-.803-.51 .086-3.12-.505-3.85-.549-.72-1.105-1.46-1.826-2.02-.718-.07-.826-.89-1.174-1.37-.957-1.44-2.442-2.41-3.461-3.8-.113-.67 .077-1.38 .512-1.9 .795-.16 1.601-.27 2.386-.49 3.173-.75 6.309-1.81 9.59-1.98 .693,.21 .69,1.26 1.452,1.36 .787,0 1.531-.32 2.289-.49 2.222-.68 4.508-1.57 6.875-1.25 1.007,.15 1.964,.77 2.295,1.77zm-11.916,1.57c-.52-.49-1.169-.81-1.724-1.26-2.557,.2-4.965,1.25-7.526,1.41-.218,.59-1.403,.22-1.331,.95 3.634,.26 7.202-1 10.835-.63 .861,.12 1.728,.39 2.412,.94 .192,.89-.007,1.93 .617,2.68 .677,.15 1.176-.53 1.827-.6 .663-.28 1.352-.82 1.342-1.61 .179-1.19 1.266-1.92 2.23-2.48 .252-.2 1.042-.54 .857-.81-3.224,.13-6.333,1.12-9.539,1.41zm18.344-.79c-1.083,.04-2.175,.1-3.234,.35-.566,.59-1.44,.54-2.186,.55-.688,.2-1.229,.76-1.959,.83-.679,.19-1.373,.35-2.028,.62-.586-.05-1.778-.16-1.606,.76 .386,.45 1.026,.01 1.476-.13 .509-.19 1.084-.46 1.626-.29 .597,.38 .762,1.29 1.524,1.44 1.293,.14 2.458-.65 3.742-.6 .585-.01 1.193-.13 1.647-.52 .618-.4 1.353-.51 2.053-.67 .596-.21 1.213-.61 1.431-1.22 .035-.74-.792-1.14-1.436-1.12-.35-.02-.7,0-1.05,0zm-23.988,3.14c-1.324,.09-2.726-.53-3.985,.11-.453,.49 .616,.81 .803,1.24 .615,.63 1.269,1.26 2.085,1.63-.104,.78 .866,.92 1.256,1.42 1.183,1.17 2.029,2.76 3.596,3.48 .639,.28 1.357,.37 2.046,.27-1.557-1.23-2.487-3.04-3.919-4.39-.172-.83-.885-1.6-.591-2.5 .235-.7 1.084-.91 1.375-1.58-.899,.02-1.771,.27-2.666,.32zm3.136,2.19c1.367,.59 2.899,.33 4.299,.02 .636-.23-.081-.89 .08-1.37-.129-.79-1.15-.29-1.678-.29-1.063,.23-1.957,.87-2.701,1.64zm10.504-.47c-.122,.59-.805,.58-1.277,.64-.558,.08-.915,.58-1.418,.8-1.7,.92-3.649,1.18-5.536,1.43-.306,.09-1.199-.03-.607,.4 .849,.88 2,1.57 2.402,2.79-.041,.61 .354,1.3 1.041,1.06 2.906,.2 5.918,.34 8.709-.64 .572-.37 .925-.98 1.432-1.42 1.557-1.63 3.133-3.24 4.662-4.9-2.417,.45-4.959,.86-7.369,.16-1.201,.79-1.308,2.35-2.017,3.49-.482,.46-.667,1.08-.925,1.63-.531,.54-1.308,.03-.875-.63 .258-.86 .897-1.53 1.333-2.3 .091-.7 .545-1.19 .93-1.72 .116-.35 .423-1-.216-.79-.089,.01-.18,.02-.269,0zm7.996,6.27c1.607,.53 3.27-.05 4.861-.34 .909-.2 1.79-.42 2.695-.64 .311-.07 1.263-.5 .773-.74-2.593,.02-5.29,.16-7.663,1.3-.232,.13-.456,.27-.666,.42zm4.547,9.41c.059-.51-.445-.77-.788-.89-.314-.64-.925-1.01-1.574-1.22-.661-.42-.901-1.34-1.718-1.54-.63-.24-1.198-.62-1.769-.96-.688-.22-1.176-.76-1.596-1.31-.402-.62-1.275-.89-1.832-.31-.465,.43-1.041,.68-1.66,.77-1.785,.33-3.609,.12-5.404,0-1.533-.14-3.074-.19-4.603-.37-1.975-.27-3.922-.81-5.709-1.69-.537,.41-1.072,.87-1.725,1.09-1.023,1.33-2.559,2.17-3.449,3.61-.729,.05-1.162,.83-1.822,1.03-1.731,1.71-3.227,3.65-5.077,5.24-.151,.92-1.13,1.3-1.579,2.03-1.031,1.4-1.909,2.89-2.9884,4.25-.9641,1.26-2.0415,2.45-2.8549,3.81 .0406,.49 .6646,.91 .164,1.42-.379,.8-.9498,1.47-1.5213,2.13-.1013,1.37-.849,.95-1.0829,3.91-.4817,4.77-1.5351,7.53 1.1394,13.98 .4835,.48 .7514,1.12 1.045,1.73 .2429,.66 .8498,1.02 1.3928,1.34 .1671,.57 .4509,1.15 1.1325,1.08 .6888,.28 .5855,1.15 .8608,1.73 .361,.62 1.125,.8 1.682,1.2 .946,.55 1.8,1.23 2.73,1.8 .786,.4 1.703,.63 2.311,1.31 .83,.73 1.995,.79 2.917,1.35 .421,.64 1.277,.31 1.878,.57 .767,.78 1.889,.97 2.892,1.28 1.663,.43 3.38,.6 5.091,.71 .914,.78 2.207,.65 3.327,.6 .657-.2 1.164,.35 1.767,.34 .943,.05 1.887,0 2.82-.15 .916-.13 1.845-.23 2.769-.14 1.034-.06 1.926-.88 2.994-.66 2.213,.01 4.074-1.45 6.234-1.72 .621-.74 1.578-1.1 2.509-1.25 .744-.82 1.815-1.19 2.77-1.69 .374-.65 .861-1.23 1.482-1.66 .812-.67 1.688-1.32 2.243-2.24 .052-.55 .744-.72 .77-1.3 .244-.66 .531-1.36 1.142-1.76 .458-.5 .348-1.27 .794-1.79 .437-.41 .528-.88 .58-1.44 .409-.36 .608-.82 .699-1.38 .161-.78 .467-1.52 .745-2.26 .385-1.06 .447-2.2 .642-3.3 .339-2.56-.063-5.14-.29-7.69-.06-1.04-.23-2.06-.544-3.05-3.643-6.99 2.661-1.62-5.804-12.48-.462-.44-.989-.9-1.153-1.55-.898-.95-2.044-1.6-2.979-2.51z"/>
</g>
</g>
</svg>
