<svg xmlns="http://www.w3.org/2000/svg" viewBox="0 0 729.23 297.85">
<g transform="translate(455.891 -1042.25)">
<path fill="#555835" d="m-289.39,1337.1c-21.116-2.9278-31.988-6.2036-43.771-13.188-11.282-6.6878-20.784-16.431-41.186-42.232-9.7854-12.375-19.165-23.953-20.843-25.73-1.6785-1.7762-9.8112-7.4012-18.073-12.5-19.75-12.189-30.293-22.276-36.345-34.77-5.0197-10.364-6.282-16.169-6.282-28.889 0-12.309 2.362-21.889 8.3234-33.759 23.01-45.816 86.053-84.6 157.38-96.82 13.342-2.2858 54.169-6.5316 62.807-6.5316 10.142,0 15.343,1.2812 34.47,8.4929 28.721,10.829 37.253,15.927 53.277,31.835 8.0727,8.0142 11.605,10.807 15.363,12.146 2.684,.9564 7.4288,2.8238 10.544,4.1499 3.1152,1.326 16.165,5.1244 29,8.4409 12.835,3.3164 28.511,7.5512 34.836,9.4105 46.198,13.581 93.444,25.225 134,33.024 72.553,13.954 159.82,33.618 170.43,38.402 6.0272,2.7183 12.154,8.912 13.45,13.598 1.8069,6.5313 1.3467,13.473-1.2597,19-4.4349,9.4044-10.112,12.508-22.84,12.485-9.5537-.017-32.904-1.5712-96.782-6.4423-74.009-5.6438-153.98-10.302-192-11.183-23.709-.5498-27.606-.3764-55.5,2.4685-16.5,1.6829-33.683,3.3656-38.184,3.7392l-8.1836,.6794-.6195,6.6266c-1.2615,13.494-2.6384,20.852-5.5528,29.672-11.94,36.134-50.409,65.878-97.46,75.358-9.5148,1.9169-32.59,3.4066-39,2.5177zm541.27-124.54c1.9876-.7437 2.1129-1.0996 1.0094-2.8665-.6929-1.1096-1.5816-2.0174-1.9749-2.0174-.3933,0-2.3072-1.0805-4.2532-2.4011-6.9931-4.7456-23.094-4.3513-20.497,.502 1.295,2.4196 5.9142,4.8254 13.446,7.003 5.7708,1.6684 7.295,1.6411 12.269-.22z"/>
<path stroke="#000" d="m-285.47,1339c-25.134-2.2937-44.508-10.126-59.598-24.095-3.9835-3.6873-16.78-18.639-28.437-33.227l-21.194-26.523-14.892-9.156c-22.435-13.793-31.458-22.445-38.38-36.799-5.0287-10.427-6.4069-17.917-5.7588-31.297 .8102-16.726 6.6888-31.841 18.668-47.998 28.859-38.923 86.259-69.931 149.32-80.666 12.3-2.094 54.64-6.5386 62.287-6.5386 9.1078,0 14.75,1.4382 33.767,8.6073 29.662,11.182 36.186,15.052 53.612,31.793 9.6763,9.2967 12.859,11.753 16.773,12.944 2.6567,.8083 6.9506,2.4249 9.542,3.5924 2.5915,1.1676 15.192,4.8307 28,8.1404 12.809,3.3097 28.463,7.5388 34.788,9.3982 48.082,14.135 93.221,25.168 139.5,34.099 50.582,9.7614 106.74,21.978 145,31.543 28.015,7.0039 33.912,11.483 35.19,26.73 .7091,8.4583-1.9508,15.295-8.1875,21.044-7.1404,6.5818-7.0877,6.5822-106-.8986-28.6-2.1629-70.675-5.0634-93.5-6.4455-98.519-5.9655-126.22-6.7167-150.15-4.0712-7.34,.8113-23.218,2.397-35.286,3.5236-12.067,1.1266-22.14,2.2479-22.384,2.4918-.2439,.2439-.8241,4.5676-1.2892,9.6082-1.1538,12.504-1.6564,15.165-4.6095,24.401-4.4792,14.01-9.5819,22.65-20.654,34.972-17.53,19.51-45.984,35.452-74.022,41.474-8.8207,1.8946-30.812,4.248-36.102,3.8635-1.1-.08-3.8-.3097-6-.5105zm36.806-9.2339c13.544-3.1881 28.215-8.5558 36.074-13.199 3.916-2.3133 8.5365-5.0379 10.268-6.0546 6.0222-3.5364 20.824-15.999 23.33-19.644 1.3872-2.0173 2.8596-3.8178 3.2721-4.0012 .4125-.1833 .75-.9708 .75-1.75 0-.7791 .45-1.4166 1-1.4166s1-.418 1-.9288c0-.5109 1.5196-2.5401 3.3769-4.5094 4.326-4.5869 4.8552-7.1724 4.8233-23.562-.018-9.0359 .254-12.508 .8215-10.5 .5568,1.97 .7284-.5464 .4999-7.3298-.1913-5.6814-.599-10.581-.9059-10.888-.3069-.3069-4.7335-.7622-9.8369-1.0117l-9.2788-.4538-3.5166,4.8416c-3.4136,4.6998-3.6733,4.8455-8.8737,4.9762-4.4722,.1124-5.4387-.1767-5.8501-1.75-.591-2.2601-2.5201-2.3954-6.1053-.4283-4.0577,2.2264-14.024,6.529-20.154,8.7008-3.025,1.0717-6.2814,2.3747-7.2364,2.8957-.9551,.5209-2.5526,.9472-3.55,.9472-.9975,0-2.2507,.4371-2.785,.9714-.5342,.5342-1.8617,1.1416-2.95,1.3497-1.0882,.2081-2.6536,.6582-3.4786,1.0002-1.8873,.7822-15.498,4.4079-19.5,5.1942-3.5001,.6878-4.3064,.888-7,1.7373-1.1,.3468-3.575,.8737-5.5,1.1708s-4.625,.795-6,1.1064c-1.375,.3115-3.85,.749-5.5,.9723s-5.025,.7015-7.5,1.0626c-2.475,.3612-5.85,.8154-7.5,1.0093-9.6256,1.131-12.345,1.4929-15.5,2.0628-1.925,.3476-4.625,.7559-6,.9072s-5.875,.7519-10,1.3346-9.6375,1.0733-12.25,1.0903c-5.182,.034-5.585,.4507-3.095,3.2021 2.4398,2.696-.1039,2.3967-5.913-.6956-2.6081-1.3884-4.742-2.1984-4.742-1.8s-.54,.1844-1.2-.4756-2.3619-1.2-3.7821-1.2c-1.4201,0-4.9433-.6125-7.8293-1.3611-4.8069-1.2469-5.1304-1.226-3.8549,.25 .7658,.8861 7.6074,9.4861 15.204,19.111 24.98,31.652 29.978,35.408 59.963,45.061 15.944,5.1331 39.918,5.9787 56.806,2.0037zm-112.12-69.748c-.7219-.2889-1.5844-.2534-1.9167,.079-.3323,.3322 .2583,.5686 1.3125,.5252 1.165-.048 1.4019-.285 .6042-.6042zm11.253-11.844c2.1674-4.128 5.2458-8.9606 6.8409-10.739l2.9003-3.2338-2.1566,3.5c-3.2076,5.2057-9.0502,17.308-8.5817,17.777 .5143,.5144 38.557-3.3828 52.556-5.3839 29.79-4.2584 56.942-13.149 97.638-31.969 13.662-6.3181 32.266-19.227 39.087-27.121 10.955-12.679 17.168-24.7 18.793-36.359 .5509-3.9528 .9538-4.8958 1.4713-3.4435 .9683,2.7178 2.2638,2.5144 3.1839-.5 .4646-1.5223 .6203,.042 .398,4-.2008,3.575-1.0649,8.6375-1.9202,11.25s-1.4301,4.75-1.2774,4.75c.6948,0 9.8857-15.324 12.127-20.219 5.8901-12.866 8.0386-29.351 5.0985-39.12-4.0917-13.596-26.951-36.365-46.098-45.919-6.2256-3.1061-36.254-14.532-43-16.362-6.8856-1.8676-15.098-1.721-37.656,.6725-51.624,5.4775-78.9,12.801-114.09,30.631-49.897,25.285-81.834,61.956-85.339,97.989-.6407,6.5853 1.5672,19.652 4.0604,24.029 1.5232,2.6745 1.5664,2.6878 .9706,.2989-.3429-1.375 1.1032,.3852 3.2135,3.9116 7.0028,11.702 23.901,25.621 28.815,23.735 .8995-.3451 4.1772,1.4438 8.138,4.4417 12.401,9.3865 38.131,20.843 46.883,20.875 3.9653,.015 4.0342-.05 7.9406-7.4905zm587.06-19.038c-19.578-1.7078-31.442-2.8016-69.5-6.4077-44.722-4.2376-119.25-8.2999-144.52-7.8781-12.006,.2004-8.845,.5183 23.522,2.3657 38.492,2.197 64.529,3.9806 117,8.0147 62.801,4.8283 68.195,5.1833 79,5.1996 9.1442,.014 8.9383-.035-5.5-1.2942zm-663.5-.7613c0-.1791-1.2375-1.4166-2.75-2.75l-2.75-2.4243 2.4243,2.75c2.2659,2.5703 3.0757,3.2085 3.0757,2.4243zm683.5-4.6743c.9955-1.1 2.6543-2 3.6863-2 1.0321,0 2.1557-.7875 2.4971-1.75 .3413-.9625 1.1863-2.425 1.8778-3.25 1.5721-1.8757 1.9876-6.5685 .9297-10.5-.9189-3.4146-3.5292-7.7951-4.2284-7.0959-.2566,.2566 .2544,1.4958 1.1355,2.7537s1.602,3.5666 1.602,5.1304c0,3.4504-1.7454,6.9872-3.0502,6.1808-.5224-.3229-.9498,.082-.9498,.8987 0,2.3742-5.8186,4.6332-11.904,4.6214-5.796-.011-12.708-1.7028-17.875-4.3745-5.4899-2.839-11.118-11.649-8.607-13.472 .487-.3534 .8854-1.9783 .8854-3.6108 0-2.4162 .7348-3.3804 3.9515-5.1847 4.1426-2.3238 7.05-2.2857 13.142,.1722 2.7112,1.0937 3.0373,1.6336 2.6365,4.3644-.4016,2.7365-.1693,3.1174 1.9062,3.1256 3.108,.012 12.497,5.4371 13.879,8.0189 1.3122,2.452 3.0136,1.7171 2.4769-1.0698-.8986-4.666-8.6662-11.958-12.738-11.958-.8303,0-2.0409-.6403-2.6904-1.4228-.9566-1.1528-.7426-1.4924 1.1276-1.7892 5.8971-.936-98.47-24.428-161.19-36.282-40.497-7.654-72.776-15.513-128-31.165-10.725-3.0397-30.388-8.3857-43.696-11.88s-25.622-7.0903-27.364-7.9911c-1.7421-.9009-4.8738-2.2401-6.9595-2.9759l-3.792-1.3379 2.7731,5.2718c5.2755,10.029 4.8457,26.71-1.1126,43.176-7.1303,19.706-28.882,45.249-51.41,60.374-6.0162,4.039-9.8136,7.0276-8.4386,6.6414s14.425-1.1303 29-1.6535 41.575-1.6478 60-2.4989c45.435-2.099 121.85-2.1338 160.5-.073 43.209,2.3039 55.178,3.2072 101.5,7.6606 65.973,6.3425 70.056,6.6971 78.595,6.8248 6.9178,.1035 8.3582-.1697 9.905-1.8788zm-197.81-32.8c-1.545-.2322-3.0034-.9523-3.2409-1.6002-.4689-1.2789 5.9525-29.414 6.9383-30.4 1.0919-1.0919 18.705,1.6006 22.431,3.429 7.1627,3.5151 7.9955,10.127 1.8503,14.69-2.3625,1.7545-4.2234,2.0963-11.251,2.0665-9.1238-.039-8.5948-.3858-9.9596,6.5357-.6961,3.5305-2.1744,6.1264-3.3316,5.8501-.3451-.082-1.8916-.3398-3.4366-.5721zm21.344-19.82c1.8165-2.1887 .061-3.6083-5.5062-4.4532-4.2733-.6486-4.6087-.5348-5.1842,1.7584-.3933,1.567-.1155,2.7684 .7699,3.3292 2.2729,1.4394 8.5316,1.0392 9.9205-.6344zm-56.657,15.451c-2.2672-.5366-5.857-2.4752-7.9772-4.308-4.7917-4.1421-4.9576-7.2703-1.0524-19.85l2.7162-8.75h3.9088c2.1499,0 4.1874,.4507 4.5279,1.0016 .3404,.5509-.533,4.7785-1.941,9.3946s-2.56,9.33-2.56,10.475c0,3.4061 4.541,5.5935 11.651,5.612 8.1158,.021 9.3711-1.2977 12.357-12.984 1.2648-4.95 2.6469-9.3939 3.0713-9.8753 .4244-.4815 2.3802-.5736 4.3463-.2047 4.3049,.8076 4.3917,1.5467 1.5076,12.843-2.7233,10.666-4.0999,13.106-8.6389,15.311-4.3897,2.1324-15.649,2.8182-21.916,1.335zm-38.608-4.8783c-10.308-1.8713-17.271-8.0619-17.268-15.354 0-8.6072 9.0866-15.392 21.993-16.428 9.8865-.7936 22.522,2.8738 22.49,6.5273-.039,4.3414-1.485,4.77-8.1718,2.4214-7.7104-2.7081-14.917-2.7868-20.562-.2244-7.8588,3.5672-8.2207,10.522-.751,14.433 3.3551,1.7567 5.5719,2.0661 13.75,1.919 9.5616-.172 9.75-.1308 9.75,2.1276 0,1.2666-.6363,2.8309-1.4139,3.4763-1.8458,1.5319-13.789,2.1958-19.817,1.1016zm-56.77-7.6658c-5.775-.7695-11.062-1.6021-11.75-1.8503-3.037-1.0964-.7287-3.684 6.7634-7.5818 10.744-5.5898 15.987-9.4984 15.987-11.92 0-2.6394-4.2172-3.6371-9.4396-2.2332-4.9082,1.3194-6.3765,.3069-4.7456-3.2725 2.947-6.4679 18.273-5.8813 22.696,.8688 3.2841,5.0123-.6563,11.464-10.34,16.93l-4.3291,2.4436 5.641,.7048c6.0312,.7535 7.3745,2.0747 5.5589,5.4672-1.2676,2.3685-1.5308,2.3758-16.042,.4425zm-31.658-4.9152c-.6606-1.7215-.8858-1.4361 13.614-17.25 8.7091-9.4986 10.775-11.253 12.953-11 1.6288,.1892 2.5911,.9187 2.5911,1.9642 0,1.5887-8.069,11.335-18.7,22.587-5.1077,5.406-9.2417,6.8683-10.458,3.6991zm-18.342-3.5327c0-1.146 2.7797-7.9184 6.1771-15.05l6.1771-12.966 3.5729,.2998c3.2768,.2749 3.5602,.5484 3.4204,3.2998-.084,1.65-2.6543,8.2875-5.7122,14.75l-5.5599,11.75h-4.0377c-3.425,0-4.0377-.3162-4.0377-2.0836zm-311,56.739c0-.1898-1.0125-1.2023-2.25-2.25l-2.25-1.905 1.905,2.25c1.7902,2.1144 2.595,2.7052 2.595,1.905zm284.5-2.5181c3.0104-.5629 .3667-.9338-10.687-1.4995-8.0779-.4134-16.403-.3971-18.5,.036l-3.813,.7879 4.5,.619c6.5082,.8952 23.83,.9294 28.5,.056zm401-6.7187c1.9793-1.5025 1.9741-1.5388-.5-3.5-5.2775-4.1836-8.4425-5.2754-15.5-5.3471-5.3485-.054-7,.2573-7,1.3209 0,2.2456 4.7987,5.193 11.636,7.1468 7.8593,2.246 8.8611,2.2794 11.364,.3794zm-23.5-2.7958c0-.2076-.7875-.9951-1.75-1.75-1.5861-1.2439-1.6215-1.2085-.3776,.3776 1.3064,1.6657 2.1276,2.1954 2.1276,1.3724zm12-13.682c0-.5175-.45-.9409-1-.9409s-1,.7015-1,1.559c0,.8574 .45,1.2809 1,.941 .55-.34 1-1.0415 1-1.5591zm-661-80.441c1.2918-1.375 2.1236-2.5 1.8486-2.5s-1.5569,1.125-2.8486,2.5-2.1236,2.5-1.8486,2.5 1.5569-1.125 2.8486-2.5zm6-6.2449c0-.275-.675,.06-1.5,.7449-.825,.6847-1.5,1.4699-1.5,1.7449s.675-.06 1.5-.7449c.825-.6847 1.5-1.4699 1.5-1.7449zm279.5-20.255c-2.1483-2.2-4.1309-4-4.4059-4s1.2576,1.8 3.4059,4c2.1482,2.2 4.1309,4 4.4059,4s-1.2577-1.8-3.4059-4zm-11.5-11.378c0-.2076-.7875-.9951-1.75-1.75-1.5861-1.2439-1.6215-1.2085-.3776,.3776 1.3064,1.6657 2.1276,2.1954 2.1276,1.3724zm-77.25-33.312c-.9625-.2515-2.5375-.2515-3.5,0-.9625,.2516-.175,.4574 1.75,.4574s2.7125-.2058 1.75-.4574z"/>
<path fill="#707447" d="m-344.26,1252.5c6.0751-14.382 21.991-32.936 36.844-42.949 26.492-17.862 49.623-25.982 76.952-27.017 14.08-.5331 26.498,.9185 36.678,4.2873 6.5794,2.1772 18.19,7.9303 21.737,10.77l2.9157,2.3348-4.6947,3.23-4.6946,3.2299-5.1973-3.1979c-6.6834-4.1123-15.396-7.3718-25.015-9.3588-9.5938-1.9816-29.993-2.0692-39.912-.1713-11.528,2.2055-34.896,13.039-33.388,15.479 .2757,.446 6.4792,1.0827 13.786,1.4147 14.828,.6739 32.72,3.4209 46.284,7.1063 15.398,4.1835 15.08,3.8409 7,7.5262-29.194,13.316-58.437,22.006-87.5,26.002-10.011,1.3764-36.535,4.0641-40.108,4.0641-2.7232,0-2.7979-.1216-1.6876-2.75z"/>
<path d="m258.75,1206.4c-1.6046-1.0181-2.8826-8.1538-1.4604-8.1538 1.4602,0 4.2459,4.5696 4.2459,6.9648 0,2.1786-.7328,2.4914-2.7855,1.189z"/>
<path d="m-132.83,1143c.1244-8.7357 .092-8.8887-.5774-2.7505-.6322,5.795-.7286,6.0119-.8888,2-.099-2.475-.4383-7.65-.7543-11.5-.4185-5.0985-.285-6.5925 .4918-5.5 .9028,1.27 1.0687,1.1988 1.0817-.4643 .014-1.7982 .1502-1.8294 1.6106-.3689 1.2477,1.2477 1.5737,3.6167 1.4959,10.873-.081,7.5495-1.4011,16.959-2.3798,16.961-.1163,.0003-.1522-4.1622-.08-9.25z"/>
<path fill="#16160e" d="m-138.78,1118.7c-.9918-.7252-3.2475-4.1735-5.0127-7.6628-2.7237-5.3839-4.2657-7.055-10.188-11.041-3.838-2.5831-7.7609-4.7206-8.7175-4.75-.9566-.029-4.1066-.9711-7-2.0925-9.8592-3.8212-24.882-6.9584-33.327-6.9598-10.667,0-18.054-1.4576-26.217-5.167-19.732-8.9665-37.863-11.823-75.335-11.87-24.593-.031-28.894,.2799-37.652,2.7208-8.4733,2.3616-8.3076,.9511 .3108-2.645 17.007-7.0964 38.518-13.309 56.959-16.45 14.419-2.4559 48.088-5.7599 59.5-5.8388 9.8239-.068 11.305,.2013 23,4.1801 33.364,11.351 43.7,17.014 60.353,33.069 6.5608,6.325 12.534,12.932 13.273,14.682 .7392,1.7499 1.8072,3.468 2.3734,3.8179 1.5099,.9331 5.0009,8.1179 5.0009,10.292 0,1.3718-1.1345,2.149-4.25,2.9113-2.3375,.5719-5.8291,1.7334-7.7591,2.5812-2.9304,1.2872-3.8064,1.3239-5.3123,.2228z"/>
<path fill="none" color="#000" d="m-381.77,1245.7c-8.8306-4.3594-18.783-9.8082-22.116-12.108-3.3335-2.3004-7.7361-4.1885-9.7835-4.1958-4.7328-.017-28.84-23.984-31.706-31.521-3.2938-8.6634-2.6799-27.157 1.2363-37.244 5.4219-13.966 20.116-35.074 31.743-45.6 11.098-10.046 37.018-27.657 51.378-34.906 27.305-13.784 85.626-13.938 124.9-.3279 9.173,3.1784 22.906,6.3909 30.519,7.139 34.8,3.4199 55.178,13.067 65.117,30.827 1.5761,2.8163 2.9718,2.9833 9.1321,1.0926l7.2717-2.2317v8.1628c0,4.4895-1.1364,11.905-2.5254,16.478l-2.5254,8.3156-1.0102-13.132c-.5556-7.2226-1.9193-13.132-3.0304-13.132-2.8911,0-3.632,15.682-1.1633,24.623 1.3671,4.9512 1.4063,8.2674 .1129,9.5607-1.2933,1.2933-1.9801,.387-1.9801-2.6127 0-6.9903-6.6311-4.6278-8.1731,2.9119-1.8387,8.9902-11.484,25.815-18.944,33.046l-6.4685,6.2694-11.996-5.9556c-29.458-14.625-70.997-12.113-106.75,6.4557-20.12,10.45-33.488,20.984-44.204,34.834-8.3613,10.806-11.911,13.227-7.609,5.1885 4.6769-8.7388-1.8119-3.8386-7.7966,5.8879-7.8312,12.727-11.746,12.98-33.634,2.1755z"/>
</g>
</svg>
