<svg xmlns="http://www.w3.org/2000/svg" viewBox="0 0 350 250" xmlns:xlink="http://www.w3.org/1999/xlink">
<defs>
<filter color-interpolation-filters="sRGB" id="filter11979">
<feGaussianBlur stdDeviation="2.761"/>
</filter>
<filter color-interpolation-filters="sRGB" id="filter4382-8">
<feGaussianBlur stdDeviation="2.84779"/>
</filter>
<filter color-interpolation-filters="sRGB" id="filter11979-2">
<feGaussianBlur stdDeviation="2.761"/>
</filter>
<filter width="1.096" x="-.048" y="-.152" height="1.304" color-interpolation-filters="sRGB" id="filter4343-7">
<feGaussianBlur stdDeviation="4.48913"/>
</filter>
<linearGradient id="linearGradient6345">
<stop offset="0" stop-color="#ba7f26"/>
<stop offset="1" stop-color="#e96b10"/>
</linearGradient>
<linearGradient gradientTransform="matrix(1.7411 -.10994 .10994 1.7411 495.13 -787.99)" id="linearGradient13984" xlink:href="#linearGradient6345" y1="482.97" y2="577.55" x1="370.6" gradientUnits="userSpaceOnUse" x2="273.53"/>
<linearGradient gradientTransform="matrix(1.7411 -.10994 .10994 1.7411 495.56 -785.81)" id="linearGradient13980" y1="455.07" y2="493.84" x1="317.5" gradientUnits="userSpaceOnUse" x2="308.48">
<stop offset="0"/>
<stop offset="1" stop-opacity="0"/>
</linearGradient>
<linearGradient id="linearGradient14009" x1="1648" gradientUnits="userSpaceOnUse" x2="1788">
<stop offset="0" stop-color="#553d27" stop-opacity=".398"/>
<stop offset="1" stop-color="#d2b07d" stop-opacity="0"/>
</linearGradient>
<linearGradient gradientTransform="matrix(1.7037 .10308 -.10995 1.6685 347.02 -806.34)" id="linearGradient13987" xlink:href="#linearGradient6345" y1="467.38" y2="568.4" x1="324.39" gradientUnits="userSpaceOnUse" x2="394.37"/>
<linearGradient id="linearGradient14122" xlink:href="#linearGradient14003-1" y1="-61.168" y2="32.019" x1="1703" gradientUnits="userSpaceOnUse" x2="1773.1"/>
<linearGradient gradientTransform="matrix(1.7411 -.10994 .10994 1.7411 338.46 -764.34)" id="linearGradient13136" y1="490.87" y2="770.57" x1="323.89" gradientUnits="userSpaceOnUse" x2="367.88">
<stop offset="0" stop-color="#f8d8aa"/>
<stop offset="1" stop-color="#979086"/>
</linearGradient>
<linearGradient id="linearGradient3799" y1="144.01" y2="199.94" x1="916.55" gradientUnits="userSpaceOnUse" x2="910.11">
<stop offset="0" stop-color="#dad8c0"/>
<stop offset="1" stop-color="#f7f5e5" stop-opacity="0"/>
</linearGradient>
<linearGradient id="linearGradient12994" y1="317.96" y2="356.21" x1="833.11" gradientUnits="userSpaceOnUse" x2="975.87">
<stop offset="0" stop-color="#dad8c0"/>
<stop offset="1" stop-color="#f7f5e5"/>
</linearGradient>
<linearGradient id="linearGradient12990" y1="111.71" y2="210.71" x1="1033" gradientUnits="userSpaceOnUse" x2="1023.6">
<stop offset="0" stop-color="#d0ceae"/>
<stop offset="1" stop-color="#fff"/>
</linearGradient>
<linearGradient id="linearGradient13002" x1="888.76" gradientUnits="userSpaceOnUse" x2="950.24">
<stop offset="0" stop-color="#6e749f"/>
<stop offset="1" stop-color="#6e749f"/>
</linearGradient>
<linearGradient id="linearGradient14098" xlink:href="#linearGradient14003-1" y1="28.204" y2="-75.119" x1="1794.2" gradientUnits="userSpaceOnUse" x2="1646"/>
<linearGradient id="linearGradient13004" y1="41.13" y2="20.212" x1="968.99" gradientUnits="userSpaceOnUse" x2="976.87">
<stop offset="0" stop-color="#dad8c0"/>
<stop offset="1" stop-color="#f7f5e5" stop-opacity="0"/>
</linearGradient>
<linearGradient id="linearGradient12992" y1="111.71" y2="35.708" x1="1033" gradientUnits="userSpaceOnUse" x2="1087.1">
<stop offset="0" stop-color="#d0ceae"/>
<stop offset="1" stop-color="#d0ceae" stop-opacity="0"/>
</linearGradient>
<linearGradient id="linearGradient14003-1">
<stop offset="0" stop-color="#553d27" stop-opacity=".398"/>
<stop offset="1" stop-color="#d2b07d" stop-opacity="0"/>
</linearGradient>
<linearGradient id="linearGradient13000" x1="975.12" gradientUnits="userSpaceOnUse" x2="1117.1">
<stop offset="0" stop-color="#ddddc9"/>
<stop offset="1" stop-color="#f1efd9"/>
</linearGradient>
<linearGradient gradientTransform="matrix(1.7411 -.10994 .10994 1.7411 338.46 -764.34)" id="linearGradient13133" y1="537.52" y2="668.06" x1="329.47" gradientUnits="userSpaceOnUse" x2="442.59">
<stop offset="0" stop-color="#f1d3a8"/>
<stop offset="1" stop-color="#b29e82"/>
</linearGradient>
</defs>
<g transform="matrix(.43021 0 0 .43021 -149.979 10.27)">
<path filter="url(#filter4343-7)" fill-opacity=".228" d="m10.774,43.774 105,38 119-29-103-42-121,33" transform="matrix(1.4645 0 0 1.4645 799.88 407.92)"/>
</g>
<g color="#000">
<g transform="matrix(.43021 0 0 .43021 -149.979 10.27)">
<path fill="url(#linearGradient12990)" d="m1116.2,131.59-92.1-31.15-49.04,63.56 141.24-32.37z"/>
<path fill="url(#linearGradient12992)" d="m903.81,72 71,92v-80.25l141.41,47.844 .5937-.125-71-59.469z" transform="translate(-.00001)"/>
<path fill="url(#linearGradient12994)" d="m833.11,115.92v356l142,48.083v-356z"/>
<path fill="url(#linearGradient12994)" d="m904.11,23.917-71,92 142,48.083 71-92z"/>
<path fill="#6e749f" d="m925.62,93.279 .5992,5.0187 .3985,.3985 .0235-.0234c6.361,5.6886 19.192,2.5161 29.022-7.3141 9.8303-9.8303 13.003-22.661 7.3141-29.022l.0234-.0234-.3985-.3985-4.4237-1.065z"/>
<path fill="url(#linearGradient12994)" d="m913.77-9.6697c-4.981-1.9521-9.6562,4.3064-9.6562,9.6562v23.93l141.99,48.084v-23.93c0-5.3499-4.6752-7.7041-9.6562-9.6562z"/>
<path fill="url(#linearGradient13000)" d="m975.12,164v356l141.94-32.531v-356z" transform="translate(-.00001)"/>
</g>
<g transform="matrix(.30421 -.30421 .30421 .30421 -15.61151 263.57335)">
<path fill="#7b82b5" d="m782,66.75v18h.0312c.4481,8.0313 11.115,14.469 24.219,14.469s23.771-6.4375 24.219-14.469h.0312v-18h-48.5z" transform="translate(-.00001)"/>
<path fill="url(#linearGradient13002)" d="m950.24,99.5c0,10.493-13.764,19-30.743,19s-30.743-8.5066-30.743-19 13.764-19 30.743-19 30.743,8.5066 30.743,19z" transform="matrix(.78857 0 0 .78857 81.162 -11.19)"/>
</g>
<g transform="matrix(.43021 0 0 .43021 -149.979 10.27)">
<path fill="url(#linearGradient13004)" d="m913.77-9.6697c-4.981-1.9521-9.6562,4.3064-9.6562,9.6562v23.93l141.99,48.084v-23.93c0-5.3499-4.6752-7.7041-9.6562-9.6562z"/>
<path fill="#7791e9" fill-opacity=".407" d="m833.12,238.91v176l142,48.094 141.94-32.531v-176l-141.98,32.53z" transform="translate(-.00001)"/>
<path fill="url(#linearGradient3799)" d="m833.11,115.92v83.057l142,48.083v-83.057z"/>
</g>
</g>
<g transform="matrix(.63005 0 0 .63005 -531.19 12.28)">
<path filter="url(#filter4382-8)" fill-opacity=".228" d="m852.18,318.36c15.822,8.6983 32.2,16.386 49,23 27.676,10.896 56.543,18.881 86,23 20.189,2.8232 40.632,3.8286 61,3 20.147-4.828 39.31-13.725 56-26 11.238-8.2653 21.359-18.048 30-29-42.507-8.8201-85.185-16.822-128-24-27.944-4.6848-55.947-9.0186-84-13l-70,43"/>
</g>
<g color="#000">
<g transform="matrix(.63005 0 0 .63005 -531.19 12.28)">
<path fill="url(#linearGradient13984)" d="m969.84,65.308 49.38,45.06 6.8041,1.296 71.099-29.383z"/>
<path fill="url(#linearGradient13980)" d="m970.29,67.499 127.5,16.99 46.049,17.111-173.09-7.057z"/>
<path fill="url(#linearGradient13987)" d="m969.87,65.308-103.3,16.124 153.43,29.088z"/>
</g>
<g transform="matrix(.93499 0 0 .93499 -733.37305 257.47026)">
<path filter="url(#filter11979)" fill-opacity=".714" d="m844.96-229.89c-4.8909,.0781-9.9717,1.2054-14.906,3.5-15.79,7.3427-23.744,23.793-17.719,36.75s23.71,17.499 39.5,10.156c15.79-7.3427 23.712-23.762 17.688-36.719-4.1422-8.9077-13.803-13.859-24.562-13.688z"/>
<path fill="#d2b07d" d="m1788-10c0,38.66-31.34,70-70,70s-70-31.34-70-70 31.34-70 70-70 70,31.34 70,70z" transform="matrix(.40844 -.18993 .15585 .33514 140.79 123.18)"/>
<path fill="url(#linearGradient14009)" d="m1788-10c0,38.66-31.34,70-70,70s-70-31.34-70-70 31.34-70 70-70 70,31.34 70,70z" transform="matrix(.40844 -.18993 .15585 .33514 140.71 123.21)"/>
</g>
<g fill="#542608" transform="matrix(.93499 0 0 .93499 -733.37305 257.47026)">
<path d="m1699.2,204.83c0,3.1242-2.3744,5.6568-5.3033,5.6568-2.929,0-5.3033-2.5327-5.3033-5.6568 0-3.1242 2.3743-5.6568 5.3033-5.6568 2.9289,0 5.3033,2.5327 5.3033,5.6568z" transform="matrix(.73735 .00209 -.2132 .66208 -380.96 -344.38)"/>
<path d="m1699.2,204.83c0,3.1242-2.3744,5.6568-5.3033,5.6568-2.929,0-5.3033-2.5327-5.3033-5.6568 0-3.1242 2.3743-5.6568 5.3033-5.6568 2.9289,0 5.3033,2.5327 5.3033,5.6568z" transform="matrix(.58686 -.69557 .41975 .74274 -245.81 804.94)"/>
<path d="m1699.2,204.83c0,3.1242-2.3744,5.6568-5.3033,5.6568-2.929,0-5.3033-2.5327-5.3033-5.6568 0-3.1242 2.3743-5.6568 5.3033-5.6568 2.9289,0 5.3033,2.5327 5.3033,5.6568z" transform="matrix(.85314 -.31682 0 .85314 -588.85 154.35)"/>
<path d="m1699.2,204.83c0,3.1242-2.3744,5.6568-5.3033,5.6568-2.929,0-5.3033-2.5327-5.3033-5.6568 0-3.1242 2.3743-5.6568 5.3033-5.6568 2.9289,0 5.3033,2.5327 5.3033,5.6568z" transform="matrix(.80651 .42162 -.63373 .57117 -394.55 -1036.6)"/>
<path d="m1699.2,204.83c0,3.1242-2.3744,5.6568-5.3033,5.6568-2.929,0-5.3033-2.5327-5.3033-5.6568 0-3.1242 2.3743-5.6568 5.3033-5.6568 2.9289,0 5.3033,2.5327 5.3033,5.6568z" transform="matrix(.85314 -.31682 0 .85314 -595.79 170.64)"/>
<path d="m1699.2,204.83c0,3.1242-2.3744,5.6568-5.3033,5.6568-2.929,0-5.3033-2.5327-5.3033-5.6568 0-3.1242 2.3743-5.6568 5.3033-5.6568 2.9289,0 5.3033,2.5327 5.3033,5.6568z" transform="matrix(.17582 -.89292 .72732 .44592 385.02 1229.3)"/>
<path d="m1699.2,204.83c0,3.1242-2.3744,5.6568-5.3033,5.6568-2.929,0-5.3033-2.5327-5.3033-5.6568 0-3.1242 2.3743-5.6568 5.3033-5.6568 2.9289,0 5.3033,2.5327 5.3033,5.6568z" transform="matrix(.67012 .19901 -.39358 .52395 -204.83 -667.22)"/>
</g>
</g>
<g transform="matrix(.63005 0 0 .63005 -531.19 12.28)">
<path fill-opacity="0" color="#000" d="m966.28,66.519 5.0018-.6678 53.562,40.092h-5.6697z"/>
</g>
<g color="#000">
<g transform="matrix(.87539 .31844 .31844 -.87539 -636.16263 -432.62351)">
<path filter="url(#filter11979-2)" fill-opacity=".714" d="m1031.9,60.469c-8.463,.0078-16.187,3.4656-20.687,10.125-8.0008,11.839-2.8034,29.312 11.625,39.062 2.2544,1.5235 4.6154,2.8115 7,3.7812 12.877,5.2365 26.906,2.4266 33.656-7.5625 8.0007-11.839 2.7721-29.312-11.656-39.062-6.3125-4.2659-13.355-6.3498-19.938-6.3438z" transform="matrix(.93975 .34186 .34186 -.93975 -50.23 -494.47)"/>
<path fill="#d2b07d" d="m1788-10c0,38.66-31.34,70-70,70s-70-31.34-70-70 31.34-70 70-70 70,31.34 70,70z" transform="matrix(-.43695 .10944 .0898 .35853 1705.2 -404.02)"/>
<path fill="url(#linearGradient14122)" d="m1788-10c0,38.66-31.34,70-70,70s-70-31.34-70-70 31.34-70 70-70 70,31.34 70,70z" transform="matrix(-.43695 .10944 .0898 .35853 1705.2 -404.02)"/>
</g>
<g fill="#542608" transform="matrix(.87539 .31844 .31844 -.87539 -636.16263 -432.62351)">
<path d="m1699.2,204.83c0,3.1242-2.3744,5.6568-5.3033,5.6568-2.929,0-5.3033-2.5327-5.3033-5.6568 0-3.1242 2.3743-5.6568 5.3033-5.6568 2.9289,0 5.3033,2.5327 5.3033,5.6568z" transform="matrix(-.69857 -.58328 -.28461 .80426 2211.5 609.28)"/>
<path d="m1699.2,204.83c0,3.1242-2.3744,5.6568-5.3033,5.6568-2.929,0-5.3033-2.5327-5.3033-5.6568 0-3.1242 2.3743-5.6568 5.3033-5.6568 2.9289,0 5.3033,2.5327 5.3033,5.6568z" transform="matrix(-.8969 -.15424 .15716 .83854 2456.5 -140.4)"/>
<path d="m1699.2,204.83c0,3.1242-2.3744,5.6568-5.3033,5.6568-2.929,0-5.3033-2.5327-5.3033-5.6568 0-3.1242 2.3743-5.6568 5.3033-5.6568 2.9289,0 5.3033,2.5327 5.3033,5.6568z" transform="matrix(-.89381 -.17124 .14121 .84137 2434.7 -117.48)"/>
<path d="m1699.2,204.83c0,3.1242-2.3744,5.6568-5.3033,5.6568-2.929,0-5.3033-2.5327-5.3033-5.6568 0-3.1242 2.3743-5.6568 5.3033-5.6568 2.9289,0 5.3033,2.5327 5.3033,5.6568z" transform="matrix(-.67205 .22652 .41839 .51667 2008.1 -693)"/>
<path d="m1699.2,204.83c0,3.1242-2.3744,5.6568-5.3033,5.6568-2.929,0-5.3033-2.5327-5.3033-5.6568 0-3.1242 2.3743-5.6568 5.3033-5.6568 2.9289,0 5.3033,2.5327 5.3033,5.6568z" transform="matrix(-.8624 .29067 .53689 .66301 2291.9 -838.97)"/>
<path d="m1699.2,204.83c0,3.1242-2.3744,5.6568-5.3033,5.6568-2.929,0-5.3033-2.5327-5.3033-5.6568 0-3.1242 2.3743-5.6568 5.3033-5.6568 2.9289,0 5.3033,2.5327 5.3033,5.6568z" transform="matrix(-.36145 .83521 .85195 .04507 1391.4 -1642.2)"/>
<path d="m1699.2,204.83c0,3.1242-2.3744,5.6568-5.3033,5.6568-2.929,0-5.3033-2.5327-5.3033-5.6568 0-3.1242 2.3743-5.6568 5.3033-5.6568 2.9289,0 5.3033,2.5327 5.3033,5.6568z" transform="matrix(-.44898 -.39326 -.19907 .52291 1738.9 335.42)"/>
</g>
<g transform="matrix(.90393 -.32882 .32882 .90393 -697.5295 582.50675)">
<path filter="url(#filter11979-2)" fill-opacity=".714" d="m998.16,71.094c-3.9891,.0947-8.101,.9573-12.125,2.5938-2.3845,.9697-4.7456,2.2265-7,3.75-14.428,9.7507-19.657,27.224-11.656,39.062 8.0008,11.839 26.197,13.532 40.625,3.7812 14.428-9.7506 19.657-27.223 11.656-39.062-4.6411-6.8675-12.724-10.333-21.5-10.125z" transform="matrix(.93975 .34186 -.34186 .93975 52.654 -649.05)"/>
<path fill="#d2b07d" d="m1788-10c0,38.66-31.34,70-70,70s-70-31.34-70-70 31.34-70 70-70 70,31.34 70,70z" transform="matrix(-.43695 .10944 .0898 .35853 1705.2 -404.02)"/>
<path fill="url(#linearGradient14098)" d="m1788-10c0,38.66-31.34,70-70,70s-70-31.34-70-70 31.34-70 70-70 70,31.34 70,70z" transform="matrix(-.43695 .10944 .0898 .35853 1705.2 -404.02)"/>
</g>
<g fill="#542608" transform="matrix(.90393 -.32882 .32882 .90393 -697.5295 582.50675)">
<path d="m1699.2,204.83c0,3.1242-2.3744,5.6568-5.3033,5.6568-2.929,0-5.3033-2.5327-5.3033-5.6568 0-3.1242 2.3743-5.6568 5.3033-5.6568 2.9289,0 5.3033,2.5327 5.3033,5.6568z" transform="matrix(-.69857 -.58328 -.28461 .80426 2211.5 609.28)"/>
<path d="m1699.2,204.83c0,3.1242-2.3744,5.6568-5.3033,5.6568-2.929,0-5.3033-2.5327-5.3033-5.6568 0-3.1242 2.3743-5.6568 5.3033-5.6568 2.9289,0 5.3033,2.5327 5.3033,5.6568z" transform="matrix(-.8969 -.15424 .15716 .83854 2456.5 -140.4)"/>
<path d="m1699.2,204.83c0,3.1242-2.3744,5.6568-5.3033,5.6568-2.929,0-5.3033-2.5327-5.3033-5.6568 0-3.1242 2.3743-5.6568 5.3033-5.6568 2.9289,0 5.3033,2.5327 5.3033,5.6568z" transform="matrix(-.89381 -.17124 .14121 .84137 2434.7 -117.48)"/>
<path d="m1699.2,204.83c0,3.1242-2.3744,5.6568-5.3033,5.6568-2.929,0-5.3033-2.5327-5.3033-5.6568 0-3.1242 2.3743-5.6568 5.3033-5.6568 2.9289,0 5.3033,2.5327 5.3033,5.6568z" transform="matrix(-.67205 .22652 .41839 .51667 2008.1 -693)"/>
<path d="m1699.2,204.83c0,3.1242-2.3744,5.6568-5.3033,5.6568-2.929,0-5.3033-2.5327-5.3033-5.6568 0-3.1242 2.3743-5.6568 5.3033-5.6568 2.9289,0 5.3033,2.5327 5.3033,5.6568z" transform="matrix(-.8624 .29067 .53689 .66301 2291.9 -838.97)"/>
<path d="m1699.2,204.83c0,3.1242-2.3744,5.6568-5.3033,5.6568-2.929,0-5.3033-2.5327-5.3033-5.6568 0-3.1242 2.3743-5.6568 5.3033-5.6568 2.9289,0 5.3033,2.5327 5.3033,5.6568z" transform="matrix(-.36145 .83521 .85195 .04507 1391.4 -1642.2)"/>
<path d="m1699.2,204.83c0,3.1242-2.3744,5.6568-5.3033,5.6568-2.929,0-5.3033-2.5327-5.3033-5.6568 0-3.1242 2.3743-5.6568 5.3033-5.6568 2.9289,0 5.3033,2.5327 5.3033,5.6568z" transform="matrix(-.44898 -.39326 -.19907 .52291 1738.9 335.42)"/>
</g>
<g transform="matrix(.63005 0 0 .63005 -531.19 12.28)">
<path fill="url(#linearGradient13136)" d="m866.16,81.345 159.86,30.307 20.043,250.4c-72.36-6.83-138.87-19.58-190.9-46.79z"/>
<path fill="url(#linearGradient13133)" d="m1097.4,82.216-71.469,29.489 19.895,250.27c25.426-10.572 50.524-22.464 82.586-50.918z"/>
<path fill="#6a6140" fill-opacity=".249" d="m939.38,138.72c-21.089,0-39.709,11.349-50.969,28.688-9.1823-2.5146-18.238-5.3294-27.094-8.5625l-2.8125,60.125c7.0499,2.2405 14.126,4.3576 21.25,6.375 7.6908,27.723 31.469,47.938 59.625,47.938 20.451,0 38.59-10.668 49.938-27.125 13.326,1.259 26.795,2.0648 40.437,2.375l9.5625,1.6562 8.7187-4.3125 67.063-33.062-8.4376-62.406-76.4,37.58c-10.611-.8375-21.199-1.7175-31.75-2.6875-8.0789-27.026-31.522-46.594-59.219-46.594z"/>
</g>
<g transform="matrix(.63005 0 0 .63005 -541.4365 281.36805)">
<path filter="url(#filter11979-2)" fill-opacity=".714" d="m1326.7-174.7c-3.0152,.1127-6.1249,.5689-9.2187,1.3438-19.8,4.9591-32.538,22.128-28.469,38.375 4.0691,16.247 23.418,25.397 43.219,20.438 19.8-4.9591 32.569-22.128 28.5-38.375-3.4334-13.708-17.749-22.39-34.031-21.781z" transform="matrix(.85314 0 0 .85314 -176.63 -96.783)"/>
<path fill="#d2b07d" d="m1788-10c0,38.66-31.34,70-70,70s-70-31.34-70-70 31.34-70 70-70 70,31.34 70,70z" transform="matrix(-.43695 .10944 .0898 .35853 1705.2 -404.02)"/>
<path fill="url(#linearGradient14098)" d="m1788-10c0,38.66-31.34,70-70,70s-70-31.34-70-70 31.34-70 70-70 70,31.34 70,70z" transform="matrix(-.43695 .10944 .0898 .35853 1705.2 -404.02)"/>
</g>
<g fill="#542608" transform="matrix(.63005 0 0 .63005 -541.4365 281.36805)">
<path d="m1699.2,204.83c0,3.1242-2.3744,5.6568-5.3033,5.6568-2.929,0-5.3033-2.5327-5.3033-5.6568 0-3.1242 2.3743-5.6568 5.3033-5.6568 2.9289,0 5.3033,2.5327 5.3033,5.6568z" transform="matrix(-.69857 -.58328 -.28461 .80426 2211.5 609.28)"/>
<path d="m1699.2,204.83c0,3.1242-2.3744,5.6568-5.3033,5.6568-2.929,0-5.3033-2.5327-5.3033-5.6568 0-3.1242 2.3743-5.6568 5.3033-5.6568 2.9289,0 5.3033,2.5327 5.3033,5.6568z" transform="matrix(-.8969 -.15424 .15716 .83854 2456.5 -140.4)"/>
<path d="m1699.2,204.83c0,3.1242-2.3744,5.6568-5.3033,5.6568-2.929,0-5.3033-2.5327-5.3033-5.6568 0-3.1242 2.3743-5.6568 5.3033-5.6568 2.9289,0 5.3033,2.5327 5.3033,5.6568z" transform="matrix(-.89381 -.17124 .14121 .84137 2434.7 -117.48)"/>
<path d="m1699.2,204.83c0,3.1242-2.3744,5.6568-5.3033,5.6568-2.929,0-5.3033-2.5327-5.3033-5.6568 0-3.1242 2.3743-5.6568 5.3033-5.6568 2.9289,0 5.3033,2.5327 5.3033,5.6568z" transform="matrix(-.67205 .22652 .41839 .51667 2008.1 -693)"/>
<path d="m1699.2,204.83c0,3.1242-2.3744,5.6568-5.3033,5.6568-2.929,0-5.3033-2.5327-5.3033-5.6568 0-3.1242 2.3743-5.6568 5.3033-5.6568 2.9289,0 5.3033,2.5327 5.3033,5.6568z" transform="matrix(-.8624 .29067 .53689 .66301 2291.9 -838.97)"/>
<path d="m1699.2,204.83c0,3.1242-2.3744,5.6568-5.3033,5.6568-2.929,0-5.3033-2.5327-5.3033-5.6568 0-3.1242 2.3743-5.6568 5.3033-5.6568 2.9289,0 5.3033,2.5327 5.3033,5.6568z" transform="matrix(-.36145 .83521 .85195 .04507 1391.4 -1642.2)"/>
<path d="m1699.2,204.83c0,3.1242-2.3744,5.6568-5.3033,5.6568-2.929,0-5.3033-2.5327-5.3033-5.6568 0-3.1242 2.3743-5.6568 5.3033-5.6568 2.9289,0 5.3033,2.5327 5.3033,5.6568z" transform="matrix(-.44898 -.39326 -.19907 .52291 1738.9 335.42)"/>
</g>
</g>
</svg>
