<svg xmlns="http://www.w3.org/2000/svg" viewBox="0 0 64 64" xmlns:xlink="http://www.w3.org/1999/xlink">
<defs>
<filter width="1.329" x="-.164" y="-.236" height="1.473" color-interpolation-filters="sRGB" id="filter5961-8">
<feGaussianBlur stdDeviation="3.66647"/>
</filter>
<filter width="1.329" x="-.164" y="-.236" height="1.473" id="filter5961">
<feGaussianBlur stdDeviation="3.66647"/>
</filter>
<linearGradient gradientTransform="matrix(.94981 0 0 1.0284 -12.333 -27.326)" id="linearGradient5750" y1="36.423" x1="35.884" y2="50.436" gradientUnits="userSpaceOnUse" x2="46.012">
<stop offset="0" stop-color="#ff0"/>
<stop offset=".5" stop-color="#e9c516"/>
<stop offset="1" stop-color="#d3d32c"/>
</linearGradient>
<linearGradient id="linearGradient5760" x1="7.5" gradientUnits="userSpaceOnUse" x2="51.773">
<stop offset="0" stop-color="#5ab023"/>
<stop offset="1" stop-color="#5ab023" stop-opacity="0"/>
</linearGradient>
<linearGradient gradientTransform="matrix(1.2759 0 0 1.195 -118.53 -103.4)" id="linearGradient5748" y1="36.423" x1="35.884" y2="50.436" gradientUnits="userSpaceOnUse" x2="46.012">
<stop offset="0" stop-color="#ff0"/>
<stop offset="1" stop-color="#b98823"/>
</linearGradient>
</defs>
<path fill="#172a0b" filter="url(#filter5961)" d="m10.813,43.857 18.106,11.762 35.429-25.474-18.106-11.761-35.429,25.473z"/>
<g stroke="#0d3203">
<g stroke-linejoin="round" transform="matrix(.66449 -.47776 .79546 .5167 -.60114 38.92545)">
<path fill="#468a1b" d="m5.4688,12.375v20.719h48.531v-20.719h-48.531z"/>
<path fill="#5ab023" d="M 8,14.909 H51.273 V30.454 H8 z"/>
</g>
<g transform="matrix(.66449 -.47776 .79546 .5167 -.60114 38.92545)">
<path fill="#3e711d" d="m15.727,34.773c0,1.682-2.2182,3.0455-4.9545,3.0455s-4.9545-1.3635-4.9545-3.0455 2.2182-3.0455 4.9545-3.0455 4.9545,1.3635 4.9545,3.0455z" transform="translate(33.364 -11.636)"/>
</g>
<g stroke-linejoin="round">
<g fill="#5ab023" transform="matrix(.66449 -.47776 .79546 .5167 -.60114 38.92545)">
<path d="m13.182,29.818c0,1.1548-1.5874,2.0909-3.5455,2.0909s-3.5455-.9361-3.5455-2.0909 1.5874-2.0909 3.5455-2.0909 3.5455,.9361 3.5455,2.0909z" transform="translate(.63636 -.09091)"/>
<path d="m13.182,29.818c0,1.1548-1.5874,2.0909-3.5455,2.0909s-3.5455-.9361-3.5455-2.0909 1.5874-2.0909 3.5455-2.0909 3.5455,.9361 3.5455,2.0909z" transform="translate(38.909 -13.545)"/>
</g>
<g transform="matrix(.66449 -.47776 .79546 .5167 -.60114 38.92545)">
<path fill="#7ed04a" d="m35.818,22.773c0,3.4392-3.0323,6.2273-6.7727,6.2273-3.7405,0-6.7727-2.788-6.7727-6.2273 0-3.4392 3.0323-6.2273 6.7727-6.2273 3.7405,0 6.7727,2.788 6.7727,6.2273z" transform="translate(.59091 -.18182)"/>
</g>
</g>
<g transform="matrix(.66449 -.47776 .79546 .5167 -.60114 38.92545)">
<path fill="#3e711d" d="m15.727,34.773c0,1.682-2.2182,3.0455-4.9545,3.0455s-4.9545-1.3635-4.9545-3.0455 2.2182-3.0455 4.9545-3.0455 4.9545,1.3635 4.9545,3.0455z" transform="translate(4.8636 -11.409)"/>
</g>
<g stroke-linejoin="round">
<g fill="#5ab023" transform="matrix(.66449 -.47776 .79546 .5167 -.60114 38.92545)">
<path d="m13.182,29.818c0,1.1548-1.5874,2.0909-3.5455,2.0909s-3.5455-.9361-3.5455-2.0909 1.5874-2.0909 3.5455-2.0909 3.5455,.9361 3.5455,2.0909z" transform="translate(.18182 -13.545)"/>
<path d="m13.182,29.818c0,1.1548-1.5874,2.0909-3.5455,2.0909s-3.5455-.9361-3.5455-2.0909 1.5874-2.0909 3.5455-2.0909 3.5455,.9361 3.5455,2.0909z" transform="translate(38.727 .27273)"/>
</g>
<g transform="matrix(.66449 -.47776 .79546 .5167 -.68086 37.63463)">
<path fill="#468a1b" d="m5.4688,12.375v20.719h48.531v-20.719h-48.531z"/>
<path fill="#5ab023" d="M 8,14.909 H51.273 V30.454 H8 z"/>
</g>
</g>
<g transform="matrix(.66449 -.47776 .79546 .5167 -.68086 37.63463)">
<path fill="#3e711d" d="m15.727,34.773c0,1.682-2.2182,3.0455-4.9545,3.0455s-4.9545-1.3635-4.9545-3.0455 2.2182-3.0455 4.9545-3.0455 4.9545,1.3635 4.9545,3.0455z" transform="translate(33.364 -11.636)"/>
</g>
<g stroke-linejoin="round">
<g fill="#5ab023" transform="matrix(.66449 -.47776 .79546 .5167 -.68086 37.63463)">
<path d="m13.182,29.818c0,1.1548-1.5874,2.0909-3.5455,2.0909s-3.5455-.9361-3.5455-2.0909 1.5874-2.0909 3.5455-2.0909 3.5455,.9361 3.5455,2.0909z" transform="translate(.63636 -.09091)"/>
<path d="m13.182,29.818c0,1.1548-1.5874,2.0909-3.5455,2.0909s-3.5455-.9361-3.5455-2.0909 1.5874-2.0909 3.5455-2.0909 3.5455,.9361 3.5455,2.0909z" transform="translate(38.909 -13.545)"/>
</g>
<g transform="matrix(.66449 -.47776 .79546 .5167 -.68086 37.63463)">
<path fill="#7ed04a" d="m35.818,22.773c0,3.4392-3.0323,6.2273-6.7727,6.2273-3.7405,0-6.7727-2.788-6.7727-6.2273 0-3.4392 3.0323-6.2273 6.7727-6.2273 3.7405,0 6.7727,2.788 6.7727,6.2273z" transform="translate(.59091 -.18182)"/>
</g>
</g>
<g transform="matrix(.66449 -.47776 .79546 .5167 -.68086 37.63463)">
<path fill="#3e711d" d="m15.727,34.773c0,1.682-2.2182,3.0455-4.9545,3.0455s-4.9545-1.3635-4.9545-3.0455 2.2182-3.0455 4.9545-3.0455 4.9545,1.3635 4.9545,3.0455z" transform="translate(4.8636 -11.409)"/>
</g>
<g stroke-linejoin="round">
<g fill="#5ab023" transform="matrix(.66449 -.47776 .79546 .5167 -.68086 37.63463)">
<path d="m13.182,29.818c0,1.1548-1.5874,2.0909-3.5455,2.0909s-3.5455-.9361-3.5455-2.0909 1.5874-2.0909 3.5455-2.0909 3.5455,.9361 3.5455,2.0909z" transform="translate(.18182 -13.545)"/>
<path d="m13.182,29.818c0,1.1548-1.5874,2.0909-3.5455,2.0909s-3.5455-.9361-3.5455-2.0909 1.5874-2.0909 3.5455-2.0909 3.5455,.9361 3.5455,2.0909z" transform="translate(38.727 .27273)"/>
</g>
<g transform="matrix(.66449 -.47776 .79546 .5167 -.18328 36.52286)">
<path fill="#468a1b" d="m5.4688,12.375v20.719h48.531v-20.719h-48.531z"/>
<path fill="#5ab023" d="M 8,14.909 H51.273 V30.454 H8 z"/>
</g>
</g>
<g transform="matrix(.66449 -.47776 .79546 .5167 -.18328 36.52286)">
<path fill="#3e711d" d="m15.727,34.773c0,1.682-2.2182,3.0455-4.9545,3.0455s-4.9545-1.3635-4.9545-3.0455 2.2182-3.0455 4.9545-3.0455 4.9545,1.3635 4.9545,3.0455z" transform="translate(33.364 -11.636)"/>
</g>
<g stroke-linejoin="round">
<g fill="#5ab023" transform="matrix(.66449 -.47776 .79546 .5167 -.18328 36.52286)">
<path d="m13.182,29.818c0,1.1548-1.5874,2.0909-3.5455,2.0909s-3.5455-.9361-3.5455-2.0909 1.5874-2.0909 3.5455-2.0909 3.5455,.9361 3.5455,2.0909z" transform="translate(.63636 -.09091)"/>
<path d="m13.182,29.818c0,1.1548-1.5874,2.0909-3.5455,2.0909s-3.5455-.9361-3.5455-2.0909 1.5874-2.0909 3.5455-2.0909 3.5455,.9361 3.5455,2.0909z" transform="translate(38.909 -13.545)"/>
</g>
<g transform="matrix(.66449 -.47776 .79546 .5167 -.18328 36.52286)">
<path fill="#7ed04a" d="m35.818,22.773c0,3.4392-3.0323,6.2273-6.7727,6.2273-3.7405,0-6.7727-2.788-6.7727-6.2273 0-3.4392 3.0323-6.2273 6.7727-6.2273 3.7405,0 6.7727,2.788 6.7727,6.2273z" transform="translate(.59091 -.18182)"/>
</g>
</g>
<g transform="matrix(.66449 -.47776 .79546 .5167 -.18328 36.52286)">
<path fill="#3e711d" d="m15.727,34.773c0,1.682-2.2182,3.0455-4.9545,3.0455s-4.9545-1.3635-4.9545-3.0455 2.2182-3.0455 4.9545-3.0455 4.9545,1.3635 4.9545,3.0455z" transform="translate(4.8636 -11.409)"/>
</g>
<g stroke-linejoin="round">
<g fill="#5ab023" transform="matrix(.66449 -.47776 .79546 .5167 -.18328 36.52286)">
<path d="m13.182,29.818c0,1.1548-1.5874,2.0909-3.5455,2.0909s-3.5455-.9361-3.5455-2.0909 1.5874-2.0909 3.5455-2.0909 3.5455,.9361 3.5455,2.0909z" transform="translate(.18182 -13.545)"/>
<path d="m13.182,29.818c0,1.1548-1.5874,2.0909-3.5455,2.0909s-3.5455-.9361-3.5455-2.0909 1.5874-2.0909 3.5455-2.0909 3.5455,.9361 3.5455,2.0909z" transform="translate(38.727 .27273)"/>
</g>
<g transform="matrix(.66449 -.47776 .79546 .5167 -.53039 34.90219)">
<path fill="#468a1b" d="m5.4688,12.375v20.719h48.531v-20.719h-48.531z"/>
<path fill="#5ab023" d="M 8,14.909 H51.273 V30.454 H8 z"/>
</g>
</g>
<g transform="matrix(.66449 -.47776 .79546 .5167 -.53039 34.90219)">
<path fill="#3e711d" d="m15.727,34.773c0,1.682-2.2182,3.0455-4.9545,3.0455s-4.9545-1.3635-4.9545-3.0455 2.2182-3.0455 4.9545-3.0455 4.9545,1.3635 4.9545,3.0455z" transform="translate(33.364 -11.636)"/>
</g>
<g stroke-linejoin="round">
<g fill="#5ab023" transform="matrix(.66449 -.47776 .79546 .5167 -.53039 34.90219)">
<path d="m13.182,29.818c0,1.1548-1.5874,2.0909-3.5455,2.0909s-3.5455-.9361-3.5455-2.0909 1.5874-2.0909 3.5455-2.0909 3.5455,.9361 3.5455,2.0909z" transform="translate(.63636 -.09091)"/>
<path d="m13.182,29.818c0,1.1548-1.5874,2.0909-3.5455,2.0909s-3.5455-.9361-3.5455-2.0909 1.5874-2.0909 3.5455-2.0909 3.5455,.9361 3.5455,2.0909z" transform="translate(38.909 -13.545)"/>
</g>
<g transform="matrix(.66449 -.47776 .79546 .5167 -.53039 34.90219)">
<path fill="#7ed04a" d="m35.818,22.773c0,3.4392-3.0323,6.2273-6.7727,6.2273-3.7405,0-6.7727-2.788-6.7727-6.2273 0-3.4392 3.0323-6.2273 6.7727-6.2273 3.7405,0 6.7727,2.788 6.7727,6.2273z" transform="translate(.59091 -.18182)"/>
</g>
</g>
<g transform="matrix(.66449 -.47776 .79546 .5167 -.53039 34.90219)">
<path fill="#3e711d" d="m15.727,34.773c0,1.682-2.2182,3.0455-4.9545,3.0455s-4.9545-1.3635-4.9545-3.0455 2.2182-3.0455 4.9545-3.0455 4.9545,1.3635 4.9545,3.0455z" transform="translate(4.8636 -11.409)"/>
</g>
<g stroke-linejoin="round">
<g fill="#5ab023" transform="matrix(.66449 -.47776 .79546 .5167 -.53039 34.90219)">
<path d="m13.182,29.818c0,1.1548-1.5874,2.0909-3.5455,2.0909s-3.5455-.9361-3.5455-2.0909 1.5874-2.0909 3.5455-2.0909 3.5455,.9361 3.5455,2.0909z" transform="translate(.18182 -13.545)"/>
<path d="m13.182,29.818c0,1.1548-1.5874,2.0909-3.5455,2.0909s-3.5455-.9361-3.5455-2.0909 1.5874-2.0909 3.5455-2.0909 3.5455,.9361 3.5455,2.0909z" transform="translate(38.727 .27273)"/>
</g>
<g transform="matrix(.66449 -.47776 .79546 .5167 -.49965 33.43913)">
<path fill="#468a1b" d="m5.4688,12.375v20.719h48.531v-20.719h-48.531z"/>
<path fill="#5ab023" d="M 8,14.909 H51.273 V30.454 H8 z"/>
</g>
</g>
<g transform="matrix(.66449 -.47776 .79546 .5167 -.49965 33.43913)">
<path fill="#3e711d" d="m15.727,34.773c0,1.682-2.2182,3.0455-4.9545,3.0455s-4.9545-1.3635-4.9545-3.0455 2.2182-3.0455 4.9545-3.0455 4.9545,1.3635 4.9545,3.0455z" transform="translate(33.364 -11.636)"/>
</g>
<g stroke-linejoin="round">
<g fill="#5ab023" transform="matrix(.66449 -.47776 .79546 .5167 -.49965 33.43913)">
<path d="m13.182,29.818c0,1.1548-1.5874,2.0909-3.5455,2.0909s-3.5455-.9361-3.5455-2.0909 1.5874-2.0909 3.5455-2.0909 3.5455,.9361 3.5455,2.0909z" transform="translate(.63636 -.09091)"/>
<path d="m13.182,29.818c0,1.1548-1.5874,2.0909-3.5455,2.0909s-3.5455-.9361-3.5455-2.0909 1.5874-2.0909 3.5455-2.0909 3.5455,.9361 3.5455,2.0909z" transform="translate(38.909 -13.545)"/>
</g>
<g transform="matrix(.66449 -.47776 .79546 .5167 -.49965 33.43913)">
<path fill="#7ed04a" d="m35.818,22.773c0,3.4392-3.0323,6.2273-6.7727,6.2273-3.7405,0-6.7727-2.788-6.7727-6.2273 0-3.4392 3.0323-6.2273 6.7727-6.2273 3.7405,0 6.7727,2.788 6.7727,6.2273z" transform="translate(.59091 -.18182)"/>
</g>
</g>
<g transform="matrix(.66449 -.47776 .79546 .5167 -.49965 33.43913)">
<path fill="#3e711d" d="m15.727,34.773c0,1.682-2.2182,3.0455-4.9545,3.0455s-4.9545-1.3635-4.9545-3.0455 2.2182-3.0455 4.9545-3.0455 4.9545,1.3635 4.9545,3.0455z" transform="translate(4.8636 -11.409)"/>
</g>
<g stroke-linejoin="round">
<g fill="#5ab023" transform="matrix(.66449 -.47776 .79546 .5167 -.49965 33.43913)">
<path d="m13.182,29.818c0,1.1548-1.5874,2.0909-3.5455,2.0909s-3.5455-.9361-3.5455-2.0909 1.5874-2.0909 3.5455-2.0909 3.5455,.9361 3.5455,2.0909z" transform="translate(.18182 -13.545)"/>
<path d="m13.182,29.818c0,1.1548-1.5874,2.0909-3.5455,2.0909s-3.5455-.9361-3.5455-2.0909 1.5874-2.0909 3.5455-2.0909 3.5455,.9361 3.5455,2.0909z" transform="translate(38.727 .27273)"/>
</g>
<g transform="matrix(.66449 -.47776 .79546 .5167 -.3329 32.33591)">
<path fill="#468a1b" d="m5.4688,12.375v20.719h48.531v-20.719h-48.531z"/>
<path fill="url(#linearGradient5760)" stroke="#1f7607" d="M 8,14.909 H51.273 V30.454 H8 z"/>
</g>
</g>
<g transform="matrix(.66449 -.47776 .79546 .5167 -.3329 32.33591)">
<path fill="#3e711d" d="m15.727,34.773c0,1.682-2.2182,3.0455-4.9545,3.0455s-4.9545-1.3635-4.9545-3.0455 2.2182-3.0455 4.9545-3.0455 4.9545,1.3635 4.9545,3.0455z" transform="translate(33.364 -11.636)"/>
</g>
<g stroke-linejoin="round">
<g fill="#5ab023" transform="matrix(.66449 -.47776 .79546 .5167 -.3329 32.33591)">
<path d="m13.182,29.818c0,1.1548-1.5874,2.0909-3.5455,2.0909s-3.5455-.9361-3.5455-2.0909 1.5874-2.0909 3.5455-2.0909 3.5455,.9361 3.5455,2.0909z" transform="translate(.63636 -.09091)"/>
<path d="m13.182,29.818c0,1.1548-1.5874,2.0909-3.5455,2.0909s-3.5455-.9361-3.5455-2.0909 1.5874-2.0909 3.5455-2.0909 3.5455,.9361 3.5455,2.0909z" transform="translate(38.909 -13.545)"/>
</g>
<g transform="matrix(.66449 -.47776 .79546 .5167 -.3329 32.33591)">
<path fill="#7ed04a" d="m35.818,22.773c0,3.4392-3.0323,6.2273-6.7727,6.2273-3.7405,0-6.7727-2.788-6.7727-6.2273 0-3.4392 3.0323-6.2273 6.7727-6.2273 3.7405,0 6.7727,2.788 6.7727,6.2273z" transform="translate(.59091 -.18182)"/>
</g>
</g>
<g transform="matrix(.66449 -.47776 .79546 .5167 -.3329 32.33591)">
<path fill="#3e711d" d="m15.727,34.773c0,1.682-2.2182,3.0455-4.9545,3.0455s-4.9545-1.3635-4.9545-3.0455 2.2182-3.0455 4.9545-3.0455 4.9545,1.3635 4.9545,3.0455z" transform="translate(4.8636 -11.409)"/>
</g>
<g stroke-linejoin="round">
<g fill="#5ab023" transform="matrix(.66449 -.47776 .79546 .5167 -.3329 32.33591)">
<path d="m13.182,29.818c0,1.1548-1.5874,2.0909-3.5455,2.0909s-3.5455-.9361-3.5455-2.0909 1.5874-2.0909 3.5455-2.0909 3.5455,.9361 3.5455,2.0909z" transform="translate(.18182 -13.545)"/>
<path d="m13.182,29.818c0,1.1548-1.5874,2.0909-3.5455,2.0909s-3.5455-.9361-3.5455-2.0909 1.5874-2.0909 3.5455-2.0909 3.5455,.9361 3.5455,2.0909z" transform="translate(38.727 .27273)"/>
</g>
<g transform="matrix(.76899 -.46132 .68089 .89194 2.4727 29.863)">
<path fill="url(#linearGradient5748)" stroke="#856208" stroke-width="1.235" d="m-68.144-43.619h11.398v6.9875h-11.398z" transform="matrix(-.99827 .05874 .65694 -.75394 0 0)"/>
<path fill="url(#linearGradient5750)" stroke="#836008" stroke-width=".988" d="m20.795,9.8134h11.856v18.052h-11.856z" transform="matrix(.99777 -.06678 .42005 .9075 0 0)"/>
</g>
</g>
</g>
<path fill="#172a0b" filter="url(#filter5961-8)" d="m-.9262,45.014 18.106,11.762 35.429-25.473-18.106-11.762-35.429,25.473z" transform="matrix(.98925 -.14624 .14624 .98925 -6.5882 2.0038)"/>
<g stroke="#0d3203">
<g stroke-linejoin="round" transform="matrix(.45836 -.61264 .85991 .42885 -10.27835 42.1927)">
<path fill="#468a1b" d="m5.4688,12.375v20.719h48.531v-20.719h-48.531z"/>
<path fill="#5ab023" d="M 8,14.909 H51.273 V30.454 H8 z"/>
</g>
<g transform="matrix(.45836 -.61264 .85991 .42885 -10.27835 42.1927)">
<path fill="#3e711d" d="m15.727,34.773c0,1.682-2.2182,3.0455-4.9545,3.0455s-4.9545-1.3635-4.9545-3.0455 2.2182-3.0455 4.9545-3.0455 4.9545,1.3635 4.9545,3.0455z" transform="translate(33.364 -11.636)"/>
</g>
<g stroke-linejoin="round">
<g fill="#5ab023" transform="matrix(.45836 -.61264 .85991 .42885 -10.27835 42.1927)">
<path d="m13.182,29.818c0,1.1548-1.5874,2.0909-3.5455,2.0909s-3.5455-.9361-3.5455-2.0909 1.5874-2.0909 3.5455-2.0909 3.5455,.9361 3.5455,2.0909z" transform="translate(.63636 -.09091)"/>
<path d="m13.182,29.818c0,1.1548-1.5874,2.0909-3.5455,2.0909s-3.5455-.9361-3.5455-2.0909 1.5874-2.0909 3.5455-2.0909 3.5455,.9361 3.5455,2.0909z" transform="translate(38.909 -13.545)"/>
</g>
<g transform="matrix(.45836 -.61264 .85991 .42885 -10.27835 42.1927)">
<path fill="#7ed04a" d="m35.818,22.773c0,3.4392-3.0323,6.2273-6.7727,6.2273-3.7405,0-6.7727-2.788-6.7727-6.2273 0-3.4392 3.0323-6.2273 6.7727-6.2273 3.7405,0 6.7727,2.788 6.7727,6.2273z" transform="translate(.59091 -.18182)"/>
</g>
</g>
<g transform="matrix(.45836 -.61264 .85991 .42885 -10.27835 42.1927)">
<path fill="#3e711d" d="m15.727,34.773c0,1.682-2.2182,3.0455-4.9545,3.0455s-4.9545-1.3635-4.9545-3.0455 2.2182-3.0455 4.9545-3.0455 4.9545,1.3635 4.9545,3.0455z" transform="translate(4.8636 -11.409)"/>
</g>
<g stroke-linejoin="round">
<g fill="#5ab023" transform="matrix(.45836 -.61264 .85991 .42885 -10.27835 42.1927)">
<path d="m13.182,29.818c0,1.1548-1.5874,2.0909-3.5455,2.0909s-3.5455-.9361-3.5455-2.0909 1.5874-2.0909 3.5455-2.0909 3.5455,.9361 3.5455,2.0909z" transform="translate(.18182 -13.545)"/>
<path d="m13.182,29.818c0,1.1548-1.5874,2.0909-3.5455,2.0909s-3.5455-.9361-3.5455-2.0909 1.5874-2.0909 3.5455-2.0909 3.5455,.9361 3.5455,2.0909z" transform="translate(38.727 .27273)"/>
</g>
<g transform="matrix(.45836 -.61264 .85991 .42885 -10.71874 40.82691)">
<path fill="#468a1b" d="m5.4688,12.375v20.719h48.531v-20.719h-48.531z"/>
<path fill="#5ab023" d="M 8,14.909 H51.273 V30.454 H8 z"/>
</g>
</g>
<g transform="matrix(.45836 -.61264 .85991 .42885 -10.71874 40.82691)">
<path fill="#3e711d" d="m15.727,34.773c0,1.682-2.2182,3.0455-4.9545,3.0455s-4.9545-1.3635-4.9545-3.0455 2.2182-3.0455 4.9545-3.0455 4.9545,1.3635 4.9545,3.0455z" transform="translate(33.364 -11.636)"/>
</g>
<g stroke-linejoin="round">
<g fill="#5ab023" transform="matrix(.45836 -.61264 .85991 .42885 -10.71874 40.82691)">
<path d="m13.182,29.818c0,1.1548-1.5874,2.0909-3.5455,2.0909s-3.5455-.9361-3.5455-2.0909 1.5874-2.0909 3.5455-2.0909 3.5455,.9361 3.5455,2.0909z" transform="translate(.63636 -.09091)"/>
<path d="m13.182,29.818c0,1.1548-1.5874,2.0909-3.5455,2.0909s-3.5455-.9361-3.5455-2.0909 1.5874-2.0909 3.5455-2.0909 3.5455,.9361 3.5455,2.0909z" transform="translate(38.909 -13.545)"/>
</g>
<g transform="matrix(.45836 -.61264 .85991 .42885 -10.71874 40.82691)">
<path fill="#7ed04a" d="m35.818,22.773c0,3.4392-3.0323,6.2273-6.7727,6.2273-3.7405,0-6.7727-2.788-6.7727-6.2273 0-3.4392 3.0323-6.2273 6.7727-6.2273 3.7405,0 6.7727,2.788 6.7727,6.2273z" transform="translate(.59091 -.18182)"/>
</g>
</g>
<g transform="matrix(.45836 -.61264 .85991 .42885 -10.71874 40.82691)">
<path fill="#3e711d" d="m15.727,34.773c0,1.682-2.2182,3.0455-4.9545,3.0455s-4.9545-1.3635-4.9545-3.0455 2.2182-3.0455 4.9545-3.0455 4.9545,1.3635 4.9545,3.0455z" transform="translate(4.8636 -11.409)"/>
</g>
<g stroke-linejoin="round">
<g fill="#5ab023" transform="matrix(.45836 -.61264 .85991 .42885 -10.71874 40.82691)">
<path d="m13.182,29.818c0,1.1548-1.5874,2.0909-3.5455,2.0909s-3.5455-.9361-3.5455-2.0909 1.5874-2.0909 3.5455-2.0909 3.5455,.9361 3.5455,2.0909z" transform="translate(.18182 -13.545)"/>
<path d="m13.182,29.818c0,1.1548-1.5874,2.0909-3.5455,2.0909s-3.5455-.9361-3.5455-2.0909 1.5874-2.0909 3.5455-2.0909 3.5455,.9361 3.5455,2.0909z" transform="translate(38.727 .27273)"/>
</g>
<g transform="matrix(.45836 -.61264 .85991 .42885 -10.59107 39.56316)">
<path fill="#468a1b" d="m5.4688,12.375v20.719h48.531v-20.719h-48.531z"/>
<path fill="#5ab023" d="M 8,14.909 H51.273 V30.454 H8 z"/>
</g>
</g>
<g transform="matrix(.45836 -.61264 .85991 .42885 -10.59107 39.56316)">
<path fill="#3e711d" d="m15.727,34.773c0,1.682-2.2182,3.0455-4.9545,3.0455s-4.9545-1.3635-4.9545-3.0455 2.2182-3.0455 4.9545-3.0455 4.9545,1.3635 4.9545,3.0455z" transform="translate(33.364 -11.636)"/>
</g>
<g stroke-linejoin="round">
<g fill="#5ab023" transform="matrix(.45836 -.61264 .85991 .42885 -10.59107 39.56316)">
<path d="m13.182,29.818c0,1.1548-1.5874,2.0909-3.5455,2.0909s-3.5455-.9361-3.5455-2.0909 1.5874-2.0909 3.5455-2.0909 3.5455,.9361 3.5455,2.0909z" transform="translate(.63636 -.09091)"/>
<path d="m13.182,29.818c0,1.1548-1.5874,2.0909-3.5455,2.0909s-3.5455-.9361-3.5455-2.0909 1.5874-2.0909 3.5455-2.0909 3.5455,.9361 3.5455,2.0909z" transform="translate(38.909 -13.545)"/>
</g>
<g transform="matrix(.45836 -.61264 .85991 .42885 -10.59107 39.56316)">
<path fill="#7ed04a" d="m35.818,22.773c0,3.4392-3.0323,6.2273-6.7727,6.2273-3.7405,0-6.7727-2.788-6.7727-6.2273 0-3.4392 3.0323-6.2273 6.7727-6.2273 3.7405,0 6.7727,2.788 6.7727,6.2273z" transform="translate(.59091 -.18182)"/>
</g>
</g>
<g transform="matrix(.45836 -.61264 .85991 .42885 -10.59107 39.56316)">
<path fill="#3e711d" d="m15.727,34.773c0,1.682-2.2182,3.0455-4.9545,3.0455s-4.9545-1.3635-4.9545-3.0455 2.2182-3.0455 4.9545-3.0455 4.9545,1.3635 4.9545,3.0455z" transform="translate(4.8636 -11.409)"/>
</g>
<g stroke-linejoin="round">
<g fill="#5ab023" transform="matrix(.45836 -.61264 .85991 .42885 -10.59107 39.56316)">
<path d="m13.182,29.818c0,1.1548-1.5874,2.0909-3.5455,2.0909s-3.5455-.9361-3.5455-2.0909 1.5874-2.0909 3.5455-2.0909 3.5455,.9361 3.5455,2.0909z" transform="translate(.18182 -13.545)"/>
<path d="m13.182,29.818c0,1.1548-1.5874,2.0909-3.5455,2.0909s-3.5455-.9361-3.5455-2.0909 1.5874-2.0909 3.5455-2.0909 3.5455,.9361 3.5455,2.0909z" transform="translate(38.727 .27273)"/>
</g>
<g transform="matrix(.45836 -.61264 .85991 .42885 -11.36516 37.8865)">
<path fill="#468a1b" d="m5.4688,12.375v20.719h48.531v-20.719h-48.531z"/>
<path fill="#5ab023" d="M 8,14.909 H51.273 V30.454 H8 z"/>
</g>
</g>
<g transform="matrix(.45836 -.61264 .85991 .42885 -11.36516 37.8865)">
<path fill="#3e711d" d="m15.727,34.773c0,1.682-2.2182,3.0455-4.9545,3.0455s-4.9545-1.3635-4.9545-3.0455 2.2182-3.0455 4.9545-3.0455 4.9545,1.3635 4.9545,3.0455z" transform="translate(33.364 -11.636)"/>
</g>
<g stroke-linejoin="round">
<g fill="#5ab023" transform="matrix(.45836 -.61264 .85991 .42885 -11.36516 37.8865)">
<path d="m13.182,29.818c0,1.1548-1.5874,2.0909-3.5455,2.0909s-3.5455-.9361-3.5455-2.0909 1.5874-2.0909 3.5455-2.0909 3.5455,.9361 3.5455,2.0909z" transform="translate(.63636 -.09091)"/>
<path d="m13.182,29.818c0,1.1548-1.5874,2.0909-3.5455,2.0909s-3.5455-.9361-3.5455-2.0909 1.5874-2.0909 3.5455-2.0909 3.5455,.9361 3.5455,2.0909z" transform="translate(38.909 -13.545)"/>
</g>
<g transform="matrix(.45836 -.61264 .85991 .42885 -11.36516 37.8865)">
<path fill="#7ed04a" d="m35.818,22.773c0,3.4392-3.0323,6.2273-6.7727,6.2273-3.7405,0-6.7727-2.788-6.7727-6.2273 0-3.4392 3.0323-6.2273 6.7727-6.2273 3.7405,0 6.7727,2.788 6.7727,6.2273z" transform="translate(.59091 -.18182)"/>
</g>
</g>
<g transform="matrix(.45836 -.61264 .85991 .42885 -11.36516 37.8865)">
<path fill="#3e711d" d="m15.727,34.773c0,1.682-2.2182,3.0455-4.9545,3.0455s-4.9545-1.3635-4.9545-3.0455 2.2182-3.0455 4.9545-3.0455 4.9545,1.3635 4.9545,3.0455z" transform="translate(4.8636 -11.409)"/>
</g>
<g stroke-linejoin="round">
<g fill="#5ab023" transform="matrix(.45836 -.61264 .85991 .42885 -11.36516 37.8865)">
<path d="m13.182,29.818c0,1.1548-1.5874,2.0909-3.5455,2.0909s-3.5455-.9361-3.5455-2.0909 1.5874-2.0909 3.5455-2.0909 3.5455,.9361 3.5455,2.0909z" transform="translate(.18182 -13.545)"/>
<path d="m13.182,29.818c0,1.1548-1.5874,2.0909-3.5455,2.0909s-3.5455-.9361-3.5455-2.0909 1.5874-2.0909 3.5455-2.0909 3.5455,.9361 3.5455,2.0909z" transform="translate(38.727 .27273)"/>
</g>
<g transform="matrix(.45836 -.61264 .85991 .42885 -11.7559 36.31976)">
<path fill="#468a1b" d="m5.4688,12.375v20.719h48.531v-20.719h-48.531z"/>
<path fill="#5ab023" d="M 8,14.909 H51.273 V30.454 H8 z"/>
</g>
</g>
<g transform="matrix(.45836 -.61264 .85991 .42885 -11.7559 36.31976)">
<path fill="#3e711d" d="m15.727,34.773c0,1.682-2.2182,3.0455-4.9545,3.0455s-4.9545-1.3635-4.9545-3.0455 2.2182-3.0455 4.9545-3.0455 4.9545,1.3635 4.9545,3.0455z" transform="translate(33.364 -11.636)"/>
</g>
<g stroke-linejoin="round">
<g fill="#5ab023" transform="matrix(.45836 -.61264 .85991 .42885 -11.7559 36.31976)">
<path d="m13.182,29.818c0,1.1548-1.5874,2.0909-3.5455,2.0909s-3.5455-.9361-3.5455-2.0909 1.5874-2.0909 3.5455-2.0909 3.5455,.9361 3.5455,2.0909z" transform="translate(.63636 -.09091)"/>
<path d="m13.182,29.818c0,1.1548-1.5874,2.0909-3.5455,2.0909s-3.5455-.9361-3.5455-2.0909 1.5874-2.0909 3.5455-2.0909 3.5455,.9361 3.5455,2.0909z" transform="translate(38.909 -13.545)"/>
</g>
<g transform="matrix(.45836 -.61264 .85991 .42885 -11.7559 36.31976)">
<path fill="#7ed04a" d="m35.818,22.773c0,3.4392-3.0323,6.2273-6.7727,6.2273-3.7405,0-6.7727-2.788-6.7727-6.2273 0-3.4392 3.0323-6.2273 6.7727-6.2273 3.7405,0 6.7727,2.788 6.7727,6.2273z" transform="translate(.59091 -.18182)"/>
</g>
</g>
<g transform="matrix(.45836 -.61264 .85991 .42885 -11.7559 36.31976)">
<path fill="#3e711d" d="m15.727,34.773c0,1.682-2.2182,3.0455-4.9545,3.0455s-4.9545-1.3635-4.9545-3.0455 2.2182-3.0455 4.9545-3.0455 4.9545,1.3635 4.9545,3.0455z" transform="translate(4.8636 -11.409)"/>
</g>
<g stroke-linejoin="round">
<g fill="#5ab023" transform="matrix(.45836 -.61264 .85991 .42885 -11.7559 36.31976)">
<path d="m13.182,29.818c0,1.1548-1.5874,2.0909-3.5455,2.0909s-3.5455-.9361-3.5455-2.0909 1.5874-2.0909 3.5455-2.0909 3.5455,.9361 3.5455,2.0909z" transform="translate(.18182 -13.545)"/>
<path d="m13.182,29.818c0,1.1548-1.5874,2.0909-3.5455,2.0909s-3.5455-.9361-3.5455-2.0909 1.5874-2.0909 3.5455-2.0909 3.5455,.9361 3.5455,2.0909z" transform="translate(38.727 .27273)"/>
</g>
<g transform="matrix(.45836 -.61264 .85991 .42885 -11.92199 35.11621)">
<path fill="#468a1b" d="m5.4688,12.375v20.719h48.531v-20.719h-48.531z"/>
<path fill="url(#linearGradient5760)" stroke="#1f7607" d="M 8,14.909 H51.273 V30.454 H8 z"/>
</g>
</g>
<g transform="matrix(.45836 -.61264 .85991 .42885 -11.92199 35.11621)">
<path fill="#3e711d" d="m15.727,34.773c0,1.682-2.2182,3.0455-4.9545,3.0455s-4.9545-1.3635-4.9545-3.0455 2.2182-3.0455 4.9545-3.0455 4.9545,1.3635 4.9545,3.0455z" transform="translate(33.364 -11.636)"/>
</g>
<g stroke-linejoin="round">
<g fill="#5ab023" transform="matrix(.45836 -.61264 .85991 .42885 -11.92199 35.11621)">
<path d="m13.182,29.818c0,1.1548-1.5874,2.0909-3.5455,2.0909s-3.5455-.9361-3.5455-2.0909 1.5874-2.0909 3.5455-2.0909 3.5455,.9361 3.5455,2.0909z" transform="translate(.63636 -.09091)"/>
<path d="m13.182,29.818c0,1.1548-1.5874,2.0909-3.5455,2.0909s-3.5455-.9361-3.5455-2.0909 1.5874-2.0909 3.5455-2.0909 3.5455,.9361 3.5455,2.0909z" transform="translate(38.909 -13.545)"/>
</g>
<g transform="matrix(.45836 -.61264 .85991 .42885 -11.92199 35.11621)">
<path fill="#7ed04a" d="m35.818,22.773c0,3.4392-3.0323,6.2273-6.7727,6.2273-3.7405,0-6.7727-2.788-6.7727-6.2273 0-3.4392 3.0323-6.2273 6.7727-6.2273 3.7405,0 6.7727,2.788 6.7727,6.2273z" transform="translate(.59091 -.18182)"/>
</g>
</g>
<g transform="matrix(.45836 -.61264 .85991 .42885 -11.92199 35.11621)">
<path fill="#3e711d" d="m15.727,34.773c0,1.682-2.2182,3.0455-4.9545,3.0455s-4.9545-1.3635-4.9545-3.0455 2.2182-3.0455 4.9545-3.0455 4.9545,1.3635 4.9545,3.0455z" transform="translate(4.8636 -11.409)"/>
</g>
<g stroke-linejoin="round">
<g fill="#5ab023" transform="matrix(.45836 -.61264 .85991 .42885 -11.92199 35.11621)">
<path d="m13.182,29.818c0,1.1548-1.5874,2.0909-3.5455,2.0909s-3.5455-.9361-3.5455-2.0909 1.5874-2.0909 3.5455-2.0909 3.5455,.9361 3.5455,2.0909z" transform="translate(.18182 -13.545)"/>
<path d="m13.182,29.818c0,1.1548-1.5874,2.0909-3.5455,2.0909s-3.5455-.9361-3.5455-2.0909 1.5874-2.0909 3.5455-2.0909 3.5455,.9361 3.5455,2.0909z" transform="translate(38.727 .27273)"/>
</g>
<g transform="matrix(.55662 -.61122 .86461 .84714 -10.117 32.043)">
<path fill="url(#linearGradient5748)" stroke="#856208" stroke-width="1.235" d="m-68.144-43.619h11.398v6.9875h-11.398z" transform="matrix(-.99827 .05874 .65694 -.75394 0 0)"/>
<path fill="url(#linearGradient5750)" stroke="#836008" stroke-width=".988" d="m20.795,9.8134h11.856v18.052h-11.856z" transform="matrix(.99777 -.06678 .42005 .9075 0 0)"/>
</g>
</g>
</g>
</svg>
