<svg xmlns="http://www.w3.org/2000/svg" viewBox="0 0 176.665 150.154" xmlns:xlink="http://www.w3.org/1999/xlink" enable-background="new 0 0 176.665 150.154">
<g fill-rule="evenodd" stroke="#000" stroke-width=".036" stroke-miterlimit="10">
<g>
<path d="m55.867,16.578c-.288,.72-1.908,1.764-4.716,2.844-2.952,1.044-8.172,1.44-12.312,3.816-4.248,2.304-8.496,7.848-12.312,10.404-3.924,2.412-8.136,1.944-10.404,4.716-2.304,2.808-.468,8.1-2.844,11.844-2.52,3.564-9.504,6.372-11.376,9.972-1.908,3.528-3.276,7.308 .468,11.34 3.744,3.924 10.872,8.027 21.78,12.313 3.996,17.135 7.128,30.168 9.936,39.779 2.664,9.432 4.716,15.121 6.156,17.064-.036,2.844 4.608,5.004 14.22,6.623 9.648,1.621 30.636,3.025 43.092,2.844 12.348-.287 22.176-1.906 30.313-4.715 4.68-5.545 8.891-13.141 12.779-23.221 3.889-10.115 7.309-22.283 10.404-36.936 5.111-.648 9.035-2.123 12.313-4.283 3.059-2.27 4.391-6.517 6.623-9.001 2.268-2.556 6.156-3.816 6.66-6.156 .217-2.592-2.377-5.94-4.283-8.496-1.945-2.556-4.609-4.392-6.625-6.624-2.088-2.412-3.637-4.464-5.184-7.128-1.621-2.736-.252-6.984-3.816-9-3.637-2.088-12.385-.504-17.496-3.312-5.148-2.916-8.604-10.728-13.283-13.716-4.789-3.024-11.088-2.232-15.156-4.284-4.141-2.232-6.049-6.372-9.469-8.532-3.492-2.304-6.912-4.572-11.375-4.716-4.748-.106-11.408,2.774-16.088,3.781-4.716,.9-8.892-.792-11.844,1.44-3.096,2.197-5.004,5.797-6.156,11.341z"/>
<path fill="#a97408" d="m70.627,6.102c-2.628,.288-4.32-.576-6.048,.72-1.872,1.188-3.492,4.356-4.572,6.732-1.116,2.16 .504,5.436-1.8,7.056-2.484,1.584-9.252,1.836-12.384,2.844-3.24,.864-3.42,.9-6.372,3.168-3.168,2.232-8.028,7.956-11.664,10.368-3.708,2.34-8.496,.828-9.936,3.528-1.548,2.556 2.376,8.712 1.08,11.952-1.368,3.096-9.972,5.04-8.856,7.092 1.08,2.052 7.668,2.7 15.588,5.292 7.956,2.592 20.916,7.524 31.5,9.936 10.404,2.304 31.032,2.953 30.78,3.888-.504,.863-22.536,2.305-32.904,1.404-10.512-1.08-20.7-4.896-29.016-7.417-8.388-2.628-16.884-7.596-20.196-7.812-3.276-.216-3.816,3.78 .72,6.732 4.536,2.916 14.688,7.561 26.172,10.62 11.412,3.061 27.252,5.941 42.12,7.092 14.796,.865 31.212,.396 46.044-1.402 14.76-1.908 36.684-8.064 41.76-9.576 4.824-1.584-6.012-.217-12.385,.359-6.479,.504-26.063,3.348-25.848,2.844 .324-.648 18.9-3.637 27.252-6.048 8.172-2.412 18.828-5.94 21.961-8.496 3.023-2.7-1.621-4.572-3.529-7.416-2.051-2.952-6.119-6.12-8.172-9.9-2.088-3.78-.287-10.044-3.887-12.384-3.816-2.34-12.637,.72-17.713-1.8-5.004-2.664-7.668-10.872-12.023-13.788-4.537-2.988-9.648-1.548-14.508-3.888-4.969-2.52-10.404-8.136-14.508-10.62-4.141-2.52-7.094-3.888-10.261-4.248-3.24-.432-6.264,1.62-9.216,2.124-3.13,.504-6.694,.72-9.178,1.044z"/>
</g>
<g fill="#a16121">
<path d="m44.671,136.57c-2.952-9-13.248-44.029-13.824-48.168-.504-4.033 8.928,23.111 10.26,24.084 1.008,.756-4.428-19.152-3.528-18.756 .936,.359 7.272,20.951 8.856,21.238 1.332,.072-1.188-19.223-.36-19.836 .792-.467 3.636,16.561 5.328,16.633 1.656-.18 3.312-17.461 4.572-16.992 1.008,.541 1.188,19.691 2.484,19.836 1.26-.107 3.636-24.912 5.328-19.836 1.62,5.256 5.328,45.721 4.608,50.293-.828,4.211-7.74-24.156-9.216-24.445-1.476-.18 .792,22.32 0,22.645-1.044,.035-4.824-20.988-5.652-21.564-.756-.467 1.188,18.072 .684,18.396-.756,.035-4.104-17.316-4.608-17.352-.432,.035 2.808,17.531 1.8,17.352-1.116-.504-7.632-19.188-8.172-19.115-.576,.18 4.248,17.459 4.608,20.158 .324,2.55-.504,4.17-3.168-4.57z"/>
<path d="m137.05,105.03c-1.404,6.625-9.109,29.701-10.621,32.58-1.619,2.629 2.412-15.912 1.404-15.912-1.225,.072-6.732,15.912-7.775,16.271-1.045,.182 2.736-14.975 1.764-14.508-1.115,.541-7.92,22.033-7.775,17.676 .107-4.68 7.199-40.535 8.496-44.242 1.223-3.529-2.053,22.932-1.08,23.004 .898-.072 5.291-22.969 6.371-23.004 .828-.072-1.764,22.428-.684,22.643 1.08,.037 5.328-19.043 7.057-21.563 1.58-2.414 4.1,.357 2.84,7.053z"/>
<path d="m115.12,101.86c-1.693-5.58-3.35-7.813-4.969-7.092-1.691,.756-3.348,4.607-4.969,11.699-1.906-8.891-3.672-13.355-5.291-13.822-1.729-.469-3.133,3.311-4.607,11.34-2.988-6.553-5.221-9.576-7.093-9.217-1.872,.396-3.168,4.031-3.888,11.34-2.232-7.668-4.14-11.844-6.012-12.383-1.944-.648-4.896,.898-4.968,8.818-.036,7.92 2.844,32.797 4.608,38.27 1.62,5.363 3.384,3.096 5.292-6.408 2.016,7.271 3.744,10.871 5.328,11.34 1.584,.324 2.737-2.701 3.887-9.217 1.693,6.373 3.277,9.684 4.609,9.936 1.332,.182 2.555-2.555 3.527-8.496 1.621,5.328 3.275,7.561 4.969,7.094 1.619-.576 3.275-3.168 4.967-10.297 1.63-7.26 3.07-18.09 4.61-32.89z"/>
</g>
<g>
<path d="m35.779,27.558c-1.728-.36-3.384-.576-4.968-.648-1.656-.072-3.744,.396-4.752,0-1.152-.576-1.656-1.584-1.8-3.168-.504,1.404-.684,2.628-.684,3.816 .036,1.08 .54,1.836 .684,2.952-.144,1.008-.792,2.664-.684,3.6 .144,.864 .756,1.512 1.836,1.8 2.196-1.044 4.104-2.196 5.868-3.6 1.764-1.513 3.132-2.916 4.5-4.752z"/>
<path fill="#804000" d="m33.079,27.81c-1.188,.432-2.52,.756-3.852,.684-1.332-.108-2.808-.324-4.284-.936 .468,1.08 .648,2.016 .684,2.952-.144,.864-.648,1.692-.684,2.484 0,.756 .18,1.224 .684,1.8 .864-.54 1.872-1.368 3.168-2.484 1.188-1.26 2.664-2.628 4.284-4.5z"/>
<path d="m134.74,27.342c.107-1.728 .324-3.348 .252-5.004-.145-1.764-.828-3.528-.396-4.716 .396-1.08 1.441-1.908 2.988-2.088-1.477-.36-2.771-.468-3.887-.324-1.152,.072-1.836,.756-2.881,.936-1.188,.144-2.771-.756-3.637-.36-.828,.252-1.512,.9-1.656,1.944 1.189,2.016 2.557,3.852 4.105,5.508 1.52,1.548 3.18,2.916 5.12,4.104z"/>
<path fill="#804000" d="m134.27,24.678c-.611-1.188-.898-2.448-1.008-3.78-.107-1.404 .072-2.808 .541-4.356-.973,.504-2.016,.864-2.844,.936-.973,.036-1.873-.576-2.557-.432-.756,.072-1.332,.288-1.729,.792 .576,.756 1.441,1.836 2.736,2.952 1.34,1.116 2.78,2.412 4.86,3.888z"/>
<path d="m89.851,23.454c-.684-2.016-1.62-3.744-2.664-5.04-1.116-1.26-3.204-1.944-3.744-2.88-.504-1.08-.432-2.34 .504-3.636-1.296,.864-2.16,1.692-2.88,2.628-.72,.828-.684,1.872-1.26,2.736-.72,.864-2.052,1.404-2.736,2.448-.792,.972-1.296,2.232-1.656,3.636 2.772-1.116 5.256-1.656 7.74-1.62 2.376,0 4.608,.576 6.696,1.728z"/>
<path fill="#804000" d="m87.691,21.293c-.936-.72-1.836-1.728-2.7-2.628-.972-1.08-1.872-2.052-2.844-3.312-.288,1.116-.756,1.98-1.26,2.736-.612,.612-1.44,.9-2.052,1.548-.756,.54-1.296,1.404-2.016,2.196 1.98-1.008 3.888-1.62 5.724-1.692 1.872-.107 3.456,.325 5.148,1.152z"/>
<path d="m45.607,49.59c.648-2.052 1.584-3.672 2.664-5.004 1.008-1.368 3.132-1.872 3.744-2.916 .468-1.116 .396-2.268-.504-3.6 1.26,.864 2.124,1.692 2.88,2.628 .612,.828 .612,1.872 1.26,2.736 .612,.864 1.98,1.404 2.736,2.448 .72,.972 1.332,2.232 1.692,3.636-2.772-1.116-5.364-1.656-7.776-1.62-2.412-.036-4.644,.576-6.696,1.692z"/>
<path fill="#804000" d="m47.767,47.466c.9-.72 1.764-1.728 2.736-2.628 .9-1.08 1.836-2.052 2.808-3.312 .252,1.116 .72,1.98 1.26,2.736 .504,.612 1.332,.9 2.052,1.548 .72,.54 1.26,1.404 2.016,2.196-2.052-1.08-3.96-1.656-5.724-1.728-1.908-.109-3.492,.287-5.148,1.188z"/>
<path d="m109,42.03c1.836-1.152 3.6-1.764 5.293-2.124 1.727-.324 3.492,.576 4.715,.18 1.117-.576 1.764-1.476 1.945-3.096 .432,1.476 .467,2.664 .504,3.852-.072,1.116-.613,2.088-.793,2.916-.324,.792 0,1.584-.539,2.088-.613,.36-1.549,.612-2.953,.468 .037-.18-.611-.612-1.943-1.296-1.43-.685-3.41-1.728-6.22-2.988z"/>
<path fill="#804000" d="m112.03,41.778c1.117-.036 2.377-.072 3.781-.252 1.295-.144 2.736-.432 4.32-.72-.289,1.26-.613,2.124-.828,2.88-.324,.684-.432,.972-.756,1.26-.396,.18-.793,.18-1.332,0-.793-.612-1.621-1.008-2.484-1.584-.87-.612-1.77-1.008-2.7-1.584z"/>
<path d="m91.254,56.682c-1.908-1.116-3.671-1.836-5.292-2.16-1.8-.324-3.6,.576-4.716,.18-1.08-.432-1.764-1.584-1.908-3.06-.432,1.476-.612,2.664-.54,3.852-.036,1.116 .504,2.088 .792,2.916 .216,.792-.108,1.584 .54,2.088 .576,.396 1.512,.54 2.952,.432-.072-.108 .576-.576 1.944-1.26 1.405-.684 3.385-1.729 6.228-2.988z"/>
<path fill="#804000" d="m88.231,56.43c-1.296-.036-2.376-.072-3.78-.252-1.332-.144-2.808-.432-4.284-.72 .18,1.26 .576,2.124 .792,2.88 .216,.684 .324,.972 .756,1.26 .396,.18 .72,.18 1.368,0 .756-.612 1.584-1.008 2.484-1.584 .828-.612 1.764-1.008 2.664-1.584z"/>
<path d="m118,68.562c.756-2.268 1.801-4.14 2.988-5.616 1.26-1.44 3.385-2.196 4.141-3.24 .539-1.26 .359-2.592-.541-3.996 1.332,.936 2.449,1.908 3.205,2.916 .756,.936 .576,2.088 1.404,3.06 .756,.936 2.088,1.512 3.023,2.7 .828,1.188 1.404,2.412 1.871,4.068-3.131-1.224-6.012-1.872-8.639-1.8-2.73-.036-5.21,.648-7.45,1.908z"/>
<path fill="#804000" d="m120.42,66.149c.973-.828 1.98-1.836 3.023-2.88 1.045-1.152 2.053-2.34 3.168-3.708 .289,1.188 .758,2.196 1.404,3.024 .613,.648 1.369,1.08 2.27,1.728 .791,.648 1.402,1.512 2.23,2.448-2.268-1.26-4.391-1.764-6.371-1.908-2.05-.144-3.96,.289-5.72,1.296z"/>
</g>
</g>
</svg>
