<svg xmlns="http://www.w3.org/2000/svg" viewBox="0 0 64 64">
<g fill="#515151" fill-opacity=".682" transform="translate(0 -987.36)">
<path d="m2,996.36h30v48h-30z"/>
<path d="m32,996.36h30v48h-30z"/>
</g>
<g transform="translate(0 -987.36)">
<path fill="#fefde6" d="m32,996.36 27.6-2.4v48l-27.6,2.4v-48z"/>
<path fill="#dbdac6" d="m32,996.36-27.6-2.4v48l27.6,2.4v-48z"/>
</g>
<g transform="translate(0 -987.36)">
<path fill="#6dc5dd" d="m41.303,1001.5h3.6529v32.35h-3.6529z" transform="rotate(.44381)"/>
<path fill="#737373" d="m-403.23,333.79-78.348-135.7h156.7l-78.348,135.7z" transform="matrix(.00766 .00006 -.00011 .01385 38.201 1038.6)"/>
</g>
<g fill="#f77462">
<g transform="translate(0 -987.36)">
<path d="m33.223,1034 1.1879,7.5858 1.3405,.01 1.0798-7.5681z"/>
<path d="m35.199,997.56c-.9486-.006-1.7188,.7378-1.7261,1.6711l-.0203,2.5832 3.6531,.028 .0203-2.5831c.0064-.9333-.7499-1.6898-1.6985-1.697l-.2285-.001z"/>
</g>
<g transform="matrix(.8657 -.85271 .86671 .85171 -423.91 -477.38)">
<path d="m379.9,406.52h.317v9.204h-.317z" transform="rotate(45.475)"/>
<path d="m376.56,407.4h2.933a.1999,.1999 0 0,1 .199,.2v.076a.1999,.1999 0 0,1 -.199,.2h-2.933a.1999,.1999 0 0,1 -.2-.2v-.076a.1999,.1999 0 0,1 .2-.2" transform="rotate(45.475)"/>
<path d="m376.56,408.28h2.933a.1999,.1999 0 0,1 .199,.2v.076a.1999,.1999 0 0,1 -.199,.2h-2.933a.1999,.1999 0 0,1 -.2-.2v-.076a.1999,.1999 0 0,1 .2-.2" transform="rotate(45.475)"/>
<path d="m376.56,406.52h2.933a.1999,.1999 0 0,1 .199,.2v.076a.1999,.1999 0 0,1 -.199,.2h-2.933a.1999,.1999 0 0,1 -.2-.2v-.076a.1999,.1999 0 0,1 .2-.2" transform="rotate(45.475)"/>
<path d="m379.42,406.52h.497v2.273h-.497z" transform="rotate(45.475)"/>
<path d="m481.69,256.64-35.115-25.376 39.534-17.722-4.4192,43.099z" transform="matrix(.00918 -.01562 .01344 -.00379 -37.19 570.21)"/>
</g>
</g>
</svg>
