<svg xmlns="http://www.w3.org/2000/svg" viewBox="0 0 211.958 442.601" xmlns:xlink="http://www.w3.org/1999/xlink" enable-background="new 0 0 211.958 442.601">
<g fill-rule="evenodd">
<path fill="#e8941a" d="m144.67,79.243c-12.117,.946-16.261-9.981-16.248-16.248 .027-11.745 14.279-22.349 14.218-31.482-.07-11.093-14.88-24.072-24.37-23.356-8.443,.636-7.493,9.51-17.264,9.139-9.854-.374-9.02-10.943-20.311-11.171-9.791-.198-17.25,7.617-19.295,12.187-10.15,22.684 18.42,40.148 14.218,61.948-1.224,6.344-6.416,11.832-13.203,12.187-17.153,.893-32.843-32.797-48.745-14.218-1.07,5.7-1.202,12.34-1.015,19.295-2.763,5.749-8.107,10.585-8.124,18.28-.039,17.785 20.763,23.297 32.497,28.435 7.057,3.088 14.051,7.009 19.295,14.217 5.425,7.458 10.208,20.787 3.047,29.451-4.232,5.119-11.289,5.818-17.265,6.092-15.877,.731-28.953-9.926-35.543,1.017-1.823,10.613 4.907,13.692 5.079,20.311 .135,5.225-4.616,8.401-4.062,14.217 .143,1.503 2.262,4.321 4.062,7.108 4.601,7.128 18.467,18.086 26.403,19.294 8.417,1.282 20.021-2.561 27.419,1.019 5.142,2.484 8.925,10.507 8.124,17.261-1.634,13.819-25.288,14.751-24.372,28.436 .401,5.999 5.844,8.998 13.201,10.157 2.067,3.218 3.496,8.171 7.109,10.155 5.788,3.18 13.274,1.235 18.28,4.063 10.631,5.992 7.143,16.735 17.264,25.388 4.691-23.257 .989-48.684 0-71.091-.235-5.303 .663-10.51 0-15.229-.768-5.475-5.675-11.121-3.047-17.267-13.352-12.608-32.898-23.903-54.837-28.434-9.285-1.918-19.199-1.224-19.295-8.124 12.533,1.684 21.879,6.554 34.527,8.124 6.41,3.358 12.72,6.86 19.295,10.154 6.666,3.343 13.705,7.403 21.327,7.109 1.052-20.765-5.917-44.827 0-63.979-4.817-6.692-.274-13.438 0-20.311 .808-20.276-.511-45.746-2.032-68.04-1.063-15.586-4.036-30.717-3.047-45.7 .25-3.788-1.67-13.146 6.094-12.187 3.677,5.597-2.26,6.626-3.047,13.203-.577,4.827 1.747,10.124 2.032,15.233 .9,16.172 .921,35.115 2.03,53.823 .55,9.291-.719,16.596-1.015,24.373-1.526,40.135 3.848,81.134 0,115.77 6.902,19.353 5.147,53.812 6.093,79.212 .221,5.953 1.975,13.524 1.018,18.278-.815,4.042-4.975,7.667-6.095,12.188-2.3,9.269 1.308,17.887 2.032,27.418 1.546,20.383-3.315,35.146-8.124,47.73 8.547-2.96 16.687-6.333 19.294-15.233-8.198-8.74-1.524-25.979-3.046-40.621-.43-4.104-2.156-6.774-2.03-10.154 .484-13.215 9.253-24.872 13.2-33.515 11.488-1.374 18.162-7.563 22.342-16.248-.5-4.275-5.631-8.066-2.03-13.2 3.337-3.601 11.896-3.558 15.233-6.094 1.54-1.175 8.489-9.296 7.109-16.249-2.981-15.006-29.047,.212-32.497-14.218-2.555-10.67 7.999-19.343 12.185-22.342 5.566-3.987 11.691-6.389 18.282-7.109 4.091-.448 9.108,.981 14.215,0 4.606-.884 13.304-6.109 15.233-8.121 3.582-3.742 6.802-7.782 7.109-12.188 .423-6.094-5.331-9.105-5.079-16.249 .331-9.302 12.927-11.745 9.14-23.357-1.411-4.329-10.826-8.54-17.264-8.124-11.124,.718-20.767,14.514-34.527,11.169-11.23-2.728-11.289-19.076-5.076-27.417 5.527-7.424 16.758-10.613 26.4-15.233 11.912-5.705 19.098-8.992 24.375-17.265 3.098-4.858 7.104-11.843 4.061-20.311-1.883-5.24-12.887-9.659-13.199-18.278-.206-5.582 5.223-8.528 5.075-14.218-.159-6.149-4.198-8.107-10.154-14.217-23.79-4.851-28.74,22.262-42.66,23.346z"/>
<path d="m173.1,95.492c1.165,.359 2.576,1.788 1.015,2.032-.331,4.745-4.082,6.071-8.124,7.109-14.193,13.979-29.136,28.843-43.666,43.668-4.324,4.412-8.734,10.878-15.233,11.171 1.086-3.661 4.53-6.789 7.106-9.141 12.844-11.722 26.129-25.949 39.605-38.589 5.287-4.956 10.17-12.199 18.281-13.203-.3-1.637 .95-1.746 1-3.045z"/>
<path d="m98.973,155.41c.308,4.145-2.121,.541-4.062,1.015 .019,4.381 5.059,3.741 5.078,8.124-6.778,.684-6.927-5.261-9.14-9.139-18.093-21.852-41.118-38.772-64.995-54.839v-3.047c3.045-2.053 6.342,2.665 8.124,5.077 13.625,1.948 16.696,14.448 28.435,18.28 5.433,10.478 19.489,12.332 23.357,24.373 4.829,2.97 11.498,4.09 13.203,10.17z"/>
<path d="m162.95,211.26c-1.653,4.407-7.312,3.851-10.155,5.077-9.97,4.297-17.972,11.26-26.405,18.28-4.38,3.644-9.903,11.388-16.248,8.125 15.039-10.348 27.988-22.792 44.684-31.482h8.12z"/>
<path d="m102.02,307.74c-4.133,.411-4.005-3.441-6.092-5.079-5.114-.641-9.494-2.015-13.202-4.061 6.376-4.59 18.944,1.05 19.294,9.14z"/>
<path d="m102.02,12.22c9.126-5.03 11.669-10.901 22.342-9.141 8.011,1.322 22.4,14.915 22.342,27.419-.058,12.45-14.938,20.687-13.202,33.514 .754,5.562 5.155,9.931 10.157,10.154 11.792,.527 26.746-31.64 45.696-22.341 7.529,3.694 12.697,11.704 10.157,23.356-.466,2.139-2.364,5.056-2.033,8.126 .749,6.926 9.443,8.175 12.185,16.248 2.466,7.247-.555,11.679-1.012,22.341-7.041,11.797-19.07,17.603-33.515,24.373-11.777,5.522-21.932,8.894-25.388,22.342 2.76,12.518 15.788,10.616 27.418,5.077 4.833-2.3 9.412-6.756 14.218-7.109 4.757-.347 14.893,3.265 17.267,6.094 7.317,8.724 1.239,22.011-6.094,29.45 .555,6.046 4.695,8.368 5.076,13.203 1.3,16.428-16.179,22.979-27.418,29.45-6.741-1.62-11.808-2.258-20.31,1.015-10.286,3.956-20.263,9.229-19.297,22.343 7.588,9.289 22.112-1.513 29.448,7.108 7.247,8.514 .139,21.315-7.105,28.437-4.417,1.675-10.511,1.675-13.203,5.075 3.827,17.341-6.208,28.771-21.327,30.467-4.066,3.714-4.171,9.345-6.091,14.215-1.512,3.834-4.545,6.625-5.079,11.173-.61,5.195 2.404,17.03 2.03,26.402-.156,3.944-1.165,8.814-1.015,10.158 .867,7.74 5.131,12.096 4.063,18.278-.97,5.612-7.171,8.809-9.14,13.2-2.972,2.109-7.873,2.288-10.156,5.078-3.095,.825-4.379,7.066-8.125,4.064-3.008-10.952 6.551-20.717 8.125-32.5 2.305-17.267-3.391-34.834-2.032-51.791-2.815-3.953-5.389-8.151-6.093-14.215-4.152-4.735-5.438-10.213-12.186-13.206-7.317-3.241-14.095-.104-19.295-6.091-1.303-1.5-1.277-4.784-3.047-6.094-3.671-2.721-9.115-1.665-12.187-5.076-2.973-3.306-4.577-15.229 0-21.326 4.437-5.91 21.768-6.502 22.341-18.279 .805-16.509-17.76-10.385-32.497-12.188-10.946-1.341-31.413-16.433-33.512-28.437-1.271-7.266 .675-9.581 3.047-16.247-6.172-9.817-8.042-28.803 4.062-31.481 4.22-.934 7.699,1.875 13.202,3.047 14.347,3.053 28.7,4.692 34.528-5.079 .333-7.342-1.526-13.821-4.062-18.278-1.429-2.51-4.7-7.207-7.109-9.139-9.303-7.465-25.141-8.13-34.528-14.218-14.226-9.225-19.599-32.333-5.077-45.7-3.218-16.525 2.093-31.993 22.314-28.392 9.688,7.577 17.767,16.762 30.466,21.327 4.493-1.6 7.587-4.599 10.156-8.125 2.362-18.191-19.665-31.607-17.265-53.824 1.311-12.124 13.708-27.227 28.436-26.404 9.963,.558 10.786,8.411 19.296,12.188zm42.65,67.024c-12.117,.946-16.261-9.981-16.248-16.248 .027-11.745 14.279-22.349 14.218-31.482-.07-11.093-14.881-24.072-24.372-23.355-8.443,.636-7.493,9.51-17.264,9.139-9.854-.374-9.02-10.943-20.311-11.171-9.791-.198-17.25,7.617-19.295,12.187-10.15,22.684 18.42,40.148 14.218,61.948-1.224,6.344-6.416,11.832-13.203,12.187-17.153,.893-32.843-32.797-48.745-14.218-1.07,5.7-1.202,12.34-1.015,19.295-2.763,5.749-8.107,10.585-8.124,18.28-.039,17.785 20.763,23.297 32.497,28.435 7.057,3.088 14.051,7.009 19.295,14.217 5.425,7.458 10.208,20.787 3.047,29.451-4.232,5.119-11.289,5.818-17.265,6.092-15.877,.731-28.953-9.926-35.543,1.017-1.823,10.613 4.907,13.692 5.079,20.311 .135,5.225-4.616,8.401-4.062,14.217 .143,1.503 2.262,4.321 4.062,7.108 4.601,7.128 18.467,18.086 26.403,19.294 8.417,1.282 20.021-2.561 27.419,1.019 5.142,2.484 8.925,10.507 8.124,17.261-1.634,13.819-25.288,14.751-24.372,28.436 .401,5.999 5.844,8.998 13.201,10.157 2.067,3.218 3.496,8.171 7.109,10.155 5.788,3.18 13.274,1.235 18.28,4.063 10.631,5.992 7.143,16.735 17.264,25.388 4.691-23.257 .989-48.684 0-71.091-.235-5.303 .663-10.51 0-15.229-.768-5.475-5.675-11.121-3.047-17.267-13.352-12.608-32.898-23.903-54.837-28.434-9.285-1.918-19.199-1.224-19.295-8.124 12.533,1.684 21.879,6.554 34.527,8.124 6.41,3.358 12.72,6.86 19.295,10.154 6.666,3.343 13.705,7.403 21.327,7.109 1.052-20.765-5.917-44.827 0-63.979-4.817-6.692-.274-13.438 0-20.311 .808-20.276-.511-45.746-2.032-68.04-1.063-15.586-4.036-30.717-3.047-45.7 .25-3.788-1.67-13.146 6.094-12.187 3.677,5.597-2.26,6.626-3.047,13.203-.577,4.827 1.747,10.124 2.032,15.233 .9,16.172 .921,35.115 2.03,53.823 .55,9.291-.719,16.596-1.015,24.373-1.526,40.135 3.848,81.134 0,115.77 6.902,19.353 5.147,53.812 6.093,79.212 .221,5.953 1.975,13.524 1.018,18.278-.815,4.042-4.975,7.667-6.095,12.188-2.3,9.269 1.308,17.887 2.032,27.418 1.546,20.383-3.315,35.146-8.124,47.73 8.547-2.96 16.687-6.333 19.294-15.233-8.198-8.74-1.524-25.979-3.046-40.621-.43-4.104-2.156-6.774-2.03-10.154 .484-13.215 9.253-24.872 13.2-33.515 11.488-1.374 18.162-7.563 22.342-16.248-.5-4.275-5.631-8.066-2.03-13.2 3.337-3.601 11.896-3.558 15.233-6.094 1.54-1.175 8.489-9.296 7.109-16.249-2.981-15.006-29.047,.212-32.497-14.218-2.555-10.67 7.999-19.343 12.185-22.342 5.566-3.987 11.691-6.389 18.282-7.109 4.091-.448 9.108,.981 14.215,0 4.606-.884 13.304-6.109 15.233-8.121 3.582-3.742 6.802-7.782 7.109-12.188 .423-6.094-5.331-9.105-5.079-16.249 .331-9.302 12.927-11.745 9.14-23.357-1.411-4.329-10.826-8.54-17.264-8.124-11.124,.718-20.767,14.514-34.527,11.169-11.23-2.728-11.289-19.076-5.076-27.417 5.527-7.424 16.758-10.613 26.4-15.233 11.912-5.705 19.098-8.992 24.375-17.265 3.098-4.858 7.104-11.843 4.061-20.311-1.883-5.24-12.887-9.659-13.199-18.278-.206-5.582 5.223-8.528 5.075-14.218-.159-6.149-4.198-8.107-10.154-14.217-23.8-4.85-28.74,22.263-42.66,23.347z"/>
</g>
</svg>
