<?xml version="1.0" encoding="UTF-8" standalone="no"?>
<!-- Created with Inkscape (http://www.inkscape.org/) -->

<svg
   xmlns:dc="http://purl.org/dc/elements/1.1/"
   xmlns:cc="http://creativecommons.org/ns#"
   xmlns:rdf="http://www.w3.org/1999/02/22-rdf-syntax-ns#"
   xmlns:svg="http://www.w3.org/2000/svg"
   xmlns="http://www.w3.org/2000/svg"
   xmlns:xlink="http://www.w3.org/1999/xlink"
   xmlns:sodipodi="http://sodipodi.sourceforge.net/DTD/sodipodi-0.dtd"
   xmlns:inkscape="http://www.inkscape.org/namespaces/inkscape"
   width="990"
   height="765"
   id="svg4606"
   version="1.1"
   inkscape:version="0.48.4 r9939"
   sodipodi:docname="OPEN ALL NIGHT.svg">
  <defs
     id="defs4608">
    <linearGradient
       inkscape:collect="always"
       id="linearGradient5167">
      <stop
         style="stop-color:#ff0000;stop-opacity:1;"
         offset="0"
         id="stop5169" />
      <stop
         style="stop-color:#ff0000;stop-opacity:0;"
         offset="1"
         id="stop5171" />
    </linearGradient>
    <radialGradient
       inkscape:collect="always"
       xlink:href="#linearGradient5167"
       id="radialGradient5173"
       cx="336.72937"
       cy="348.2662"
       fx="336.72937"
       fy="348.2662"
       r="179.44533"
       gradientTransform="matrix(0.15580237,0.68398532,-0.87548503,0.19942553,589.16798,50.570389)"
       gradientUnits="userSpaceOnUse" />
    <radialGradient
       inkscape:collect="always"
       xlink:href="#linearGradient5167"
       id="radialGradient5192"
       gradientUnits="userSpaceOnUse"
       gradientTransform="matrix(0.15580237,0.68398532,-0.87548503,0.19942553,589.16798,50.570389)"
       cx="336.72937"
       cy="348.2662"
       fx="336.72937"
       fy="348.2662"
       r="179.44533" />
  </defs>
  <sodipodi:namedview
     id="base"
     pagecolor="#ffffff"
     bordercolor="#666666"
     borderopacity="1.0"
     inkscape:pageopacity="0.0"
     inkscape:pageshadow="2"
     inkscape:zoom="0.7455679"
     inkscape:cx="461.33326"
     inkscape:cy="389.32721"
     inkscape:document-units="px"
     inkscape:current-layer="layer1"
     showgrid="false"
     inkscape:window-width="1280"
     inkscape:window-height="744"
     inkscape:window-x="-4"
     inkscape:window-y="-4"
     inkscape:window-maximized="1" />
  <metadata
     id="metadata4611">
    <rdf:RDF>
      <cc:Work
         rdf:about="">
        <dc:format>image/svg+xml</dc:format>
        <dc:type
           rdf:resource="http://purl.org/dc/dcmitype/StillImage" />
        <dc:title></dc:title>
      </cc:Work>
    </rdf:RDF>
  </metadata>
  <g
     inkscape:label="Layer 1"
     inkscape:groupmode="layer"
     id="layer1"
     transform="translate(0,-287.36218)">
    <g
       id="g5175"
       transform="matrix(1.4649969,0,0,1.4649969,17.648491,209.61104)">
      <path
         transform="matrix(0.72938115,-0.68410754,0.68410754,0.72938115,214.00375,-344.87326)"
         d="m -111.42859,538.07648 c 0,110.45695 -121.5227,200 -271.42856,200 -149.90585,0 -271.42856,-89.54305 -271.42856,-200 0,-110.45695 121.52271,-200 271.42856,-200 149.90586,0 271.42856,89.54305 271.42856,200 z"
         sodipodi:ry="200"
         sodipodi:rx="271.42856"
         sodipodi:cy="538.07648"
         sodipodi:cx="-382.85715"
         id="path4622"
         style="color:#000000;fill:#ffff00;fill-opacity:1;fill-rule:nonzero;stroke:#ffcc00;stroke-width:10.19999981;stroke-linecap:round;stroke-linejoin:miter;stroke-miterlimit:4;stroke-opacity:1;stroke-dasharray:none;stroke-dashoffset:0;marker:none;visibility:visible;display:inline;overflow:visible;enable-background:accumulate"
         sodipodi:type="arc" />
      <path
         transform="matrix(0.82451819,-0.56583545,0.56583545,0.82451819,-175.57885,195.05214)"
         d="m 520.94078,354.72269 c 0,67.24976 -80.34041,121.76647 -179.44533,121.76647 -99.10492,0 -179.44532,-54.51671 -179.44532,-121.76647 0,-67.24977 80.3404,-121.76648 179.44532,-121.76648 99.10492,0 179.44533,54.51671 179.44533,121.76648 z"
         sodipodi:ry="121.76647"
         sodipodi:rx="179.44533"
         sodipodi:cy="354.72269"
         sodipodi:cx="341.49545"
         id="path5157"
         style="color:#000000;fill:url(#radialGradient5192);fill-opacity:1;fill-rule:nonzero;stroke:none;stroke-width:5.5;marker:none;visibility:visible;display:inline;overflow:visible;enable-background:accumulate"
         sodipodi:type="arc" />
      <g
         id="text4614"
         style="font-size:147.33804321px;font-style:normal;font-variant:normal;font-weight:normal;font-stretch:normal;text-align:center;line-height:75%;letter-spacing:0px;word-spacing:0px;writing-mode:lr-tb;text-anchor:middle;fill:#ff0000;fill-opacity:1;stroke:#0000ff;stroke-width:5.5;stroke-miterlimit:4;stroke-dasharray:none;font-family:Junegull;-inkscape-font-specification:Junegull"
         transform="matrix(1,-0.1955665,0,1,0,0)">
        <path
           id="path4625"
           style="fill:#ff0000;stroke:#0000ff;stroke-width:5.5;stroke-miterlimit:4;stroke-dasharray:none"
           d="m 143.80471,253.88894 c 0,-6.18999 1.17881,-12.03531 3.53642,-17.53596 2.35761,-5.50053 5.55005,-10.28844 9.57734,-14.36375 4.02725,-4.07516 8.79118,-7.29158 14.2918,-9.64927 5.50056,-2.35753 11.34588,-3.53633 17.53596,-3.53642 6.187,9e-5 12.03081,1.17889 17.53147,3.53642 5.50052,2.35769 10.28919,5.57411 14.366,9.64927 4.07665,4.07531 7.29382,8.86322 9.65152,14.36375 2.35752,5.50065 3.53633,11.34597 3.53642,17.53596 -9e-5,6.18709 -1.1789,12.0309 -3.53642,17.53147 -2.3577,5.50062 -5.57487,10.26455 -9.65152,14.29181 -4.07681,4.02728 -8.86548,7.21972 -14.366,9.57733 -5.50066,2.35761 -11.34447,3.53642 -17.53147,3.53642 -6.19008,0 -12.0354,-1.17881 -17.53596,-3.53642 -5.50062,-2.35761 -10.26455,-5.55005 -14.2918,-9.57733 -4.02729,-4.02726 -7.21973,-8.79119 -9.57734,-14.29181 -2.35761,-5.50057 -3.53642,-11.34438 -3.53642,-17.53147 z m 24.75269,0.29227 c -3e-5,2.85076 0.51631,5.50363 1.54901,7.95863 1.03264,2.45507 2.48198,4.61558 4.34802,6.48156 1.86597,1.86603 4.02648,3.31462 6.48156,4.34577 2.45499,1.0312 5.10636,1.54678 7.95413,1.54676 2.85067,2e-5 5.52827,-0.51556 8.03282,-1.54676 2.50443,-1.03115 4.66495,-2.47974 6.48156,-4.34577 1.81648,-1.86598 3.26507,-4.02649 4.34577,-6.48156 1.08057,-2.455 1.62088,-5.10787 1.62095,-7.95863 -7e-5,-2.84767 -0.54038,-5.52378 -1.62095,-8.02832 -1.0807,-2.50444 -2.52929,-4.66496 -4.34577,-6.48156 -1.81661,-1.81649 -3.97713,-3.26508 -6.48156,-4.34578 -2.50455,-1.08057 -5.18215,-1.62088 -8.03282,-1.62095 -2.84777,7e-5 -5.49914,0.54038 -7.95413,1.62095 -2.45508,1.0807 -4.61559,2.52929 -6.48156,4.34578 -1.86604,1.8166 -3.31538,3.97712 -4.34802,6.48156 -1.0327,2.50454 -1.54904,5.18065 -1.54901,8.02832 z"
           inkscape:connector-curvature="0" />
        <path
           id="path4627"
           style="fill:#ff0000;stroke:#0000ff;stroke-width:5.5;stroke-miterlimit:4;stroke-dasharray:none"
           d="m 266.8622,285.71446 c -3e-5,8.34832 -4.07526,12.52248 -12.22571,12.52248 -4.12771,0 -7.198,-1.05591 -9.21088,-3.16772 -2.01289,-2.1118 -3.01934,-5.13263 -3.01933,-9.06249 l 0,-63.65104 c -1e-5,-8.15039 3.92834,-12.22563 11.78506,-12.22571 l 24.75269,0 c 5.3057,8e-5 9.89802,0.81018 13.77697,2.4303 3.87883,1.62029 7.07127,3.75682 9.57733,6.40962 2.50593,2.65295 4.37268,5.67378 5.60027,9.06249 1.22744,3.38886 1.8412,6.85033 1.84127,10.38444 -7e-5,3.53722 -0.56512,6.97547 -1.69514,10.31474 -1.13017,3.33937 -2.79983,6.31074 -5.00899,8.91412 -2.2093,2.60345 -4.91013,4.71526 -8.10251,6.33542 -3.1925,1.62024 -6.85257,2.43034 -10.98021,2.43031 l -3.97482,0 c -7.36814,3e-5 -11.05219,-3.28983 -11.05215,-9.8696 -4e-5,-2.35907 0.44211,-4.15238 1.32643,-5.37994 0.88426,-1.22747 2.01361,-2.16047 3.38804,-2.79901 1.37436,-0.63844 2.84768,-1.08059 4.41996,-1.32644 1.5722,-0.24575 3.04627,-0.58973 4.42221,-1.03192 1.37586,-0.4421 2.55466,-1.10532 3.53642,-1.98966 0.98167,-0.88424 1.52198,-2.25864 1.62095,-4.1232 -5e-5,-4.4214 -2.554,-6.63213 -7.66186,-6.63219 l -13.116,0 z"
           inkscape:connector-curvature="0" />
        <path
           id="path4629"
           style="fill:#ff0000;stroke:#0000ff;stroke-width:5.5;stroke-miterlimit:4;stroke-dasharray:none"
           d="m 328.29651,298.23694 c -8.05456,0 -12.08183,-4.07673 -12.08183,-12.23021 l 0,-63.65104 c 0,-8.15039 4.02727,-12.22563 12.08183,-12.22571 l 41.25447,0 c 3.83087,8e-5 6.82697,1.20287 8.98831,3.60836 2.1612,2.40565 3.24183,5.2781 3.2419,8.61735 -7e-5,3.34239 -1.0807,6.21634 -3.2419,8.62185 -2.16134,2.40563 -5.15744,3.60842 -8.98831,3.60836 l -29.17264,0 0,7.3696 23.27786,0 c 3.83088,5e-5 6.82698,1.20284 8.98831,3.60836 2.1612,2.40562 3.24184,5.27807 3.2419,8.61735 -6e-5,3.33937 -1.0807,6.21256 -3.2419,8.6196 -2.16133,2.4071 -5.15743,3.61064 -8.98831,3.61061 l -23.27786,0 0,7.3696 29.17264,0 c 3.83087,2e-5 6.82697,1.20281 8.98831,3.60836 2.1612,2.40559 3.24183,5.27804 3.2419,8.61735 -7e-5,3.33934 -1.0807,6.21253 -3.2419,8.6196 -2.16134,2.40707 -5.15744,3.61061 -8.98831,3.61061 z"
           inkscape:connector-curvature="0" />
        <path
           id="path4631"
           style="fill:#ff0000;stroke:#0000ff;stroke-width:5.5;stroke-miterlimit:4;stroke-dasharray:none"
           d="m 415.92236,286.00673 c -2e-5,3.92986 -1.20356,6.92596 -3.6106,8.9883 -2.4071,2.06235 -5.2803,3.09353 -8.6196,3.09353 -3.24042,0 -6.06416,-1.03118 -8.47122,-3.09353 -2.40708,-2.06234 -3.61062,-5.05844 -3.61061,-8.9883 l 0,-63.65104 c -10e-6,-3.92678 1.20353,-6.92138 3.61061,-8.98381 2.40706,-2.06226 5.2308,-3.09344 8.47122,-3.09352 l 0.58902,0 c 4.32252,8e-5 7.41754,1.81663 9.28507,5.44963 l 22.09981,33.44423 0,-26.81653 c -5e-5,-3.92678 1.20274,-6.92138 3.60836,-8.98381 2.40552,-2.06226 5.23,-3.09344 8.47347,-3.09352 3.33926,8e-5 6.21171,1.03126 8.61735,3.09352 2.4055,2.06243 3.60828,5.05703 3.60836,8.98381 l 0,63.65104 c -8e-5,3.92986 -1.20286,6.92596 -3.60836,8.9883 -2.40564,2.06235 -5.27809,3.09353 -8.61735,3.09353 -1.66973,0 -3.09433,-0.19635 -4.27383,-0.58903 -1.17961,-0.39269 -2.18681,-0.88354 -3.02158,-1.47257 -0.83489,-0.58903 -1.49811,-1.17806 -1.98966,-1.76709 -0.49166,-0.58902 -0.88434,-1.07988 -1.17806,-1.47257 l -21.3624,-31.82552 z"
           inkscape:connector-curvature="0" />
        <path
           id="path4633"
           style="fill:#ff0000;stroke:#0000ff;stroke-width:5.5;stroke-miterlimit:4;stroke-dasharray:none"
           d="m 242.44674,372.49499 11.78507,0 -5.44964,-15.76438 z m 18.41726,19.15466 -26.07912,0 -3.68255,9.42895 c -1.08216,2.75181 -2.58096,4.74146 -4.49641,5.96898 -1.91548,1.22751 -4.00181,1.84127 -6.25898,1.84127 -1.66968,0 -3.2659,-0.27053 -4.78867,-0.8116 -1.52279,-0.54106 -2.92267,-1.32718 -4.19964,-2.35836 -1.27698,-1.03117 -2.28417,-2.23396 -3.02158,-3.60836 -0.73741,-1.37439 -1.10612,-2.94588 -1.10611,-4.71448 -1e-5,-1.76857 0.34472,-3.38877 1.03417,-4.86061 l 29.02426,-64.09618 c 1.27695,-2.74872 2.99607,-4.81106 5.15737,-6.18705 2.16123,-1.37581 4.37046,-2.06376 6.6277,-2.06385 2.26014,9e-5 4.44614,0.68804 6.558,2.06385 2.11175,1.37599 3.70872,3.43833 4.79091,6.18705 l 26.66815,64.09618 c 0.68637,1.47184 1.02959,3.09204 1.02968,4.86061 -9e-5,1.66968 -0.36879,3.21644 -1.10612,4.64029 -0.73749,1.42386 -1.74468,2.65138 -3.02158,3.68255 -1.27705,1.03118 -2.70091,1.8173 -4.27158,2.35836 -1.57081,0.54107 -3.14156,0.8116 -4.71223,0.8116 -2.26026,0 -4.37281,-0.61376 -6.33767,-1.84127 -1.96499,-1.22752 -3.43756,-3.21717 -4.41772,-5.96898 z"
           inkscape:connector-curvature="0" />
        <path
           id="path4635"
           style="fill:#ff0000;stroke:#0000ff;stroke-width:5.5;stroke-miterlimit:4;stroke-dasharray:none"
           d="m 307.72099,408.74047 c -8.05456,0 -12.08183,-4.07673 -12.08183,-12.23021 l 0,-63.65104 c 0,-3.92678 1.20353,-6.92138 3.61061,-8.98381 2.40706,-2.06226 5.2308,-3.09343 8.47122,-3.09352 3.24038,9e-5 6.06412,1.03126 8.47122,3.09352 2.40704,2.06243 3.61058,5.05703 3.61061,8.98381 l 0,51.42533 12.96761,0 c 3.73197,2e-5 6.58044,1.20281 8.54541,3.60836 1.96488,2.40559 2.94734,5.27804 2.94739,8.61735 -5e-5,3.33934 -0.98251,6.21253 -2.94739,8.6196 -1.96497,2.40708 -4.81344,3.61061 -8.54541,3.61061 z"
           inkscape:connector-curvature="0" />
        <path
           id="path4637"
           style="fill:#ff0000;stroke:#0000ff;stroke-width:5.5;stroke-miterlimit:4;stroke-dasharray:none"
           d="m 362.68498,408.74047 c -8.05456,0 -12.08183,-4.07673 -12.08182,-12.23021 l 0,-63.65104 c -10e-6,-3.92678 1.20353,-6.92138 3.61061,-8.98381 2.40706,-2.06226 5.2308,-3.09343 8.47121,-3.09352 3.24039,9e-5 6.06413,1.03126 8.47122,3.09352 2.40705,2.06243 3.61058,5.05703 3.61061,8.98381 l 0,51.42533 12.96762,0 c 3.73197,2e-5 6.58043,1.20281 8.54541,3.60836 1.96487,2.40559 2.94734,5.27804 2.94739,8.61735 -5e-5,3.33934 -0.98252,6.21253 -2.94739,8.6196 -1.96498,2.40708 -4.81344,3.61061 -8.54541,3.61061 z"
           inkscape:connector-curvature="0" />
        <path
           id="path4639"
           style="fill:#ff0000;stroke:#0000ff;stroke-width:5.5;stroke-miterlimit:4;stroke-dasharray:none"
           d="m 164.5556,507.01379 c -3e-5,3.92987 -1.20356,6.92597 -3.61061,8.98831 -2.40709,2.06235 -5.28029,3.09352 -8.6196,3.09352 -3.24042,0 -6.06415,-1.03117 -8.47122,-3.09352 -2.40707,-2.06234 -3.61061,-5.05844 -3.6106,-8.98831 l 0,-63.65104 c -1e-5,-3.92677 1.20353,-6.92137 3.6106,-8.9838 2.40707,-2.06227 5.2308,-3.09344 8.47122,-3.09353 l 0.58903,0 c 4.32252,9e-5 7.41754,1.81663 9.28507,5.44964 l 22.0998,33.44422 0,-26.81653 c -4e-5,-3.92677 1.20274,-6.92137 3.60837,-8.9838 2.40552,-2.06227 5.23,-3.09344 8.47346,-3.09353 3.33926,9e-5 6.21171,1.03126 8.61735,3.09353 2.40551,2.06243 3.60829,5.05703 3.60836,8.9838 l 0,63.65104 c -7e-5,3.92987 -1.20285,6.92597 -3.60836,8.98831 -2.40564,2.06235 -5.27809,3.09352 -8.61735,3.09352 -1.66972,0 -3.09433,-0.19634 -4.27383,-0.58903 -1.17961,-0.39268 -2.1868,-0.88354 -3.02158,-1.47257 -0.83488,-0.58902 -1.4981,-1.17805 -1.98965,-1.76708 -0.49166,-0.58903 -0.88435,-1.07988 -1.17806,-1.47257 l -21.3624,-31.82552 z"
           inkscape:connector-curvature="0" />
        <path
           id="path4641"
           style="fill:#ff0000;stroke:#0000ff;stroke-width:5.5;stroke-miterlimit:4;stroke-dasharray:none"
           d="m 242.96832,507.01379 c -3e-5,3.92987 -1.20356,6.92597 -3.61061,8.98831 -2.40709,2.06235 -5.23083,3.09352 -8.47121,3.09352 -3.33934,0 -6.21254,-1.03117 -8.6196,-3.09352 -2.40708,-2.06234 -3.61062,-5.05844 -3.61061,-8.98831 l 0,-63.65104 c -1e-5,-3.92677 1.20353,-6.92137 3.61061,-8.9838 2.40706,-2.06227 5.28026,-3.09344 8.6196,-3.09353 3.24038,9e-5 6.06412,1.03126 8.47121,3.09353 2.40705,2.06243 3.61058,5.05703 3.61061,8.9838 z"
           inkscape:connector-curvature="0" />
        <path
           id="path4643"
           style="fill:#ff0000;stroke:#0000ff;stroke-width:5.5;stroke-miterlimit:4;stroke-dasharray:none"
           d="m 316.25965,507.01379 c -7e-5,3.83095 -1.17888,6.82704 -3.53642,8.98831 -2.35768,2.16127 -5.30506,3.2419 -8.84217,3.2419 l -8.83993,0 c -7.26922,0 -13.6541,-1.25224 -19.15466,-3.75674 -5.50062,-2.50449 -10.09219,-5.77037 -13.77472,-9.79766 -3.68257,-4.02725 -6.43286,-8.6443 -8.2509,-13.85116 -1.81805,-5.2068 -2.72707,-10.5605 -2.72706,-16.06114 -1e-5,-5.59647 0.95772,-11.04685 2.8732,-16.35116 1.91545,-5.30419 4.76392,-10.06812 8.5454,-14.29181 3.78146,-4.22354 8.54539,-7.61232 14.29181,-10.16636 5.74637,-2.55386 12.45049,-3.83084 20.1124,-3.83093 l 6.92446,0 c 2.06229,9e-5 3.85485,0.34331 5.37769,1.02968 1.52272,0.68653 2.7997,1.61954 3.83093,2.79901 1.03111,1.17963 1.81723,2.50607 2.35837,3.97931 0.541,1.4734 0.81153,2.99543 0.8116,4.56609 -7e-5,1.57382 -0.2706,3.09735 -0.8116,4.57059 -0.54114,1.47339 -1.32726,2.79908 -2.35837,3.97707 -1.03123,1.17812 -2.30821,2.11113 -3.83093,2.79901 -1.52284,0.68801 -3.3154,1.03199 -5.37769,1.03192 l -8.83993,0 c -3.43829,7e-5 -6.40966,0.54038 -8.91411,1.62096 -2.50453,1.08069 -4.61634,2.52928 -6.33543,4.34577 -1.71915,1.8166 -2.99613,3.87895 -3.83093,6.18704 -0.83486,2.3082 -1.25227,4.6898 -1.25225,7.14478 -2e-5,2.26024 0.36868,4.47096 1.10612,6.63219 0.73738,2.16131 1.81801,4.15021 3.2419,5.96673 1.42383,1.81657 3.21639,3.3386 5.3777,4.56609 2.16123,1.22754 4.66572,1.98968 7.51348,2.28642 l 0,-14.29406 c -4e-5,-3.92681 1.20274,-6.92216 3.60836,-8.98605 2.40553,-2.0638 5.27947,-3.09572 8.62185,-3.09577 3.24035,5e-5 6.06408,1.03197 8.47122,3.09577 2.407,2.06389 3.61054,5.05924 3.61061,8.98605 z"
           inkscape:connector-curvature="0" />
        <path
           id="path4645"
           style="fill:#ff0000;stroke:#0000ff;stroke-width:5.5;stroke-miterlimit:4;stroke-dasharray:none"
           d="m 394.506,507.01379 c -7e-5,3.92987 -1.20285,6.92597 -3.60836,8.98831 -2.40564,2.06235 -5.27809,3.09352 -8.61735,3.09352 -3.24346,0 -6.06794,-1.03117 -8.47346,-3.09352 -2.40563,-2.06234 -3.60841,-5.05844 -3.60837,-8.98831 l 0,-19.59531 -19.74369,0 0,19.59531 c -3e-5,3.92987 -1.20356,6.92597 -3.61061,8.98831 -2.40709,2.06235 -5.28029,3.09352 -8.6196,3.09352 -3.24042,0 -6.06415,-1.03117 -8.47122,-3.09352 -2.40707,-2.06234 -3.61061,-5.05844 -3.6106,-8.98831 l 0,-63.65104 c -1e-5,-3.92677 1.20353,-6.92137 3.6106,-8.9838 2.40707,-2.06227 5.2308,-3.09344 8.47122,-3.09353 3.33931,9e-5 6.21251,1.03126 8.6196,3.09353 2.40705,2.06243 3.61058,5.05703 3.61061,8.9838 l 0,19.59981 19.74369,0 0,-19.59981 c -4e-5,-3.92677 1.20274,-6.92137 3.60837,-8.9838 2.40552,-2.06227 5.23,-3.09344 8.47346,-3.09353 3.33926,9e-5 6.21171,1.03126 8.61735,3.09353 2.40551,2.06243 3.60829,5.05703 3.60836,8.9838 z"
           inkscape:connector-curvature="0" />
        <path
           id="path4647"
           style="fill:#ff0000;stroke:#0000ff;stroke-width:5.5;stroke-miterlimit:4;stroke-dasharray:none"
           d="m 447.13636,507.01379 c -5e-5,3.92987 -1.20283,6.92597 -3.60836,8.98831 -2.40562,2.06235 -5.27806,3.09352 -8.61735,3.09352 -3.24344,0 -6.06792,-1.03117 -8.47347,-3.09352 -2.4056,-2.06234 -3.60838,-5.05844 -3.60836,-8.98831 l 0,-51.42083 -8.54766,0 c -3.83094,7e-5 -6.82704,-1.20272 -8.9883,-3.60836 -2.16127,-2.4055 -3.24191,-5.27945 -3.2419,-8.62185 -10e-6,-3.33924 1.08063,-6.21169 3.2419,-8.61735 2.16126,-2.40549 5.15736,-3.60827 8.9883,-3.60836 l 41.10609,0 c 3.83088,9e-5 6.82698,1.20287 8.98831,3.60836 2.1612,2.40566 3.24184,5.27811 3.2419,8.61735 -6e-5,3.3424 -1.0807,6.21635 -3.2419,8.62185 -2.16133,2.40564 -5.15743,3.60843 -8.98831,3.60836 l -8.25089,0 z"
           inkscape:connector-curvature="0" />
      </g>
    </g>
  </g>
</svg>
