<?xml version="1.0" encoding="UTF-8" standalone="no"?>
<!-- Created with Inkscape (http://www.inkscape.org/) -->
<svg xmlns:inkscape="http://www.inkscape.org/namespaces/inkscape" xmlns:rdf="http://www.w3.org/1999/02/22-rdf-syntax-ns#" xmlns="http://www.w3.org/2000/svg" xmlns:sodipodi="http://sodipodi.sourceforge.net/DTD/sodipodi-0.dtd" xmlns:cc="http://creativecommons.org/ns#" xmlns:xlink="http://www.w3.org/1999/xlink" xmlns:dc="http://purl.org/dc/elements/1.1/" id="svg1" viewBox="0 0 638.18 995.66" sodipodi:version="0.32" version="1.1" inkscape:version="0.48.3.1 r9886" sodipodi:docname="_svgclean2.svg">
  <defs id="defs3">
    <linearGradient id="linearGradient1621">
      <stop id="stop1622" style="stop-color:#7a7a7a;stop-opacity:.4898" offset="0"/>
      <stop id="stop1623" style="stop-color:#ffffff" offset="1"/>
    </linearGradient>
    <linearGradient id="linearGradient1597">
      <stop id="stop1598" style="stop-color:#7a7a7a" offset="0"/>
      <stop id="stop1599" style="stop-color:#dddddd" offset="1"/>
    </linearGradient>
    <linearGradient id="linearGradient1561">
      <stop id="stop1562" style="stop-color:#c70000;stop-opacity:.98039" offset="0"/>
      <stop id="stop1563" style="stop-color:#fa9998;stop-opacity:.73469" offset="1"/>
    </linearGradient>
    <linearGradient id="linearGradient1555">
      <stop id="stop1556" style="stop-color:#595050;stop-opacity:.98039" offset="0"/>
      <stop id="stop1558" style="stop-color:#dddddd" offset="1"/>
    </linearGradient>
    <linearGradient id="linearGradient1544">
      <stop id="stop1545" style="stop-color:#ff0000" offset="0"/>
      <stop id="stop1546" style="stop-color:#f08e88" offset="1"/>
    </linearGradient>
    <linearGradient id="linearGradient1537">
      <stop id="stop1538" style="stop-color:#0066ed;stop-opacity:.98039" offset="0"/>
      <stop id="stop1554" style="stop-color:#7fdff6;stop-opacity:.98824" offset=".5"/>
      <stop id="stop1539" style="stop-color:#1470e9" offset="1"/>
    </linearGradient>
    <linearGradient id="linearGradient1541" x1="50.442" xlink:href="#linearGradient1537" gradientUnits="userSpaceOnUse" x2="69.669" gradientTransform="matrix(2.2496 -3.8332 .36187 .21237 -311.73 655.45)" y1="944.29" y2="1120.6" inkscape:collect="always"/>
    <linearGradient id="linearGradient1542" x1="600.8" xlink:href="#linearGradient1555" gradientUnits="userSpaceOnUse" x2="614.16" gradientTransform="matrix(.80707 -1.3752 1.0087 .59196 -311.73 655.45)" y1="359.53" y2="392.67" inkscape:collect="always"/>
    <linearGradient id="linearGradient1543" x1="71.79" xlink:href="#linearGradient1544" gradientUnits="userSpaceOnUse" x2="80.11" gradientTransform="matrix(1.2467 -2.1244 .65296 .3832 -311.73 655.45)" y1="523.32" y2="632.93" inkscape:collect="always"/>
    <linearGradient id="linearGradient1548" x1="15.74" xlink:href="#linearGradient1544" gradientUnits="userSpaceOnUse" x2="80.042" gradientTransform="matrix(1.2388 -2.1109 .65714 .38565 -311.73 655.45)" y1="632.11" y2="526.12" inkscape:collect="always"/>
    <linearGradient id="linearGradient1550" x1="45.671" gradientUnits="userSpaceOnUse" x2="43.513" gradientTransform="matrix(2.7278 -4.648 .29844 .17514 -311.73 655.45)" y1="1226.5" y2="1191.7" inkscape:collect="always">
      <stop id="stop1552" style="stop-color:#00ed81;stop-opacity:0" offset="0"/>
      <stop id="stop1553" style="stop-color:#ffffff;stop-opacity:.85882" offset="1"/>
    </linearGradient>
    <linearGradient id="linearGradient1565" x1="554.01" xlink:href="#linearGradient1561" gradientUnits="userSpaceOnUse" x2="503.71" y1="530.61" y2="446.46" inkscape:collect="always"/>
    <linearGradient id="linearGradient1580" x1="675.2" xlink:href="#linearGradient1561" gradientUnits="userSpaceOnUse" x2="835.67" y1="414.24" y2="746.6" inkscape:collect="always"/>
    <linearGradient id="linearGradient1581" x1="386.24" xlink:href="#linearGradient1561" gradientUnits="userSpaceOnUse" x2="546.71" y1="400.04" y2="732.4" inkscape:collect="always"/>
    <linearGradient id="linearGradient1582" x1="59.183" xlink:href="#linearGradient1561" gradientUnits="userSpaceOnUse" x2="219.66" y1="358.03" y2="690.39" inkscape:collect="always"/>
    <linearGradient id="linearGradient1583" x1="-247.46" xlink:href="#linearGradient1561" gradientUnits="userSpaceOnUse" x2="-86.982" y1="294.03" y2="626.39" inkscape:collect="always"/>
    <linearGradient id="linearGradient1584" x1="-563.14" xlink:href="#linearGradient1561" gradientUnits="userSpaceOnUse" x2="-402.67" y1="238.43" y2="570.79" inkscape:collect="always"/>
    <linearGradient id="linearGradient1588" x1="554.01" xlink:href="#linearGradient1561" gradientUnits="userSpaceOnUse" x2="516.07" y1="530.61" y2="439.87" inkscape:collect="always"/>
    <linearGradient id="linearGradient1589" x1="477.66" xlink:href="#linearGradient1561" gradientUnits="userSpaceOnUse" x2="520.12" y1="461.37" y2="531.91" inkscape:collect="always"/>
    <linearGradient id="linearGradient1590" x1="474.15" xlink:href="#linearGradient1561" gradientUnits="userSpaceOnUse" x2="511.28" y1="461.34" y2="531.25" inkscape:collect="always"/>
    <linearGradient id="linearGradient1591" x1="494.12" xlink:href="#linearGradient1561" gradientUnits="userSpaceOnUse" x2="542.23" y1="452.06" y2="534.88" inkscape:collect="always"/>
    <linearGradient id="linearGradient1592" x1="493.18" xlink:href="#linearGradient1561" gradientUnits="userSpaceOnUse" x2="536.07" y1="429.54" y2="518.15" inkscape:collect="always"/>
    <linearGradient id="linearGradient1593" x1="502.86" xlink:href="#linearGradient1561" gradientUnits="userSpaceOnUse" x2="541.9" y1="438.26" y2="499.24" inkscape:collect="always"/>
    <linearGradient id="linearGradient1595" x1="184.29" xlink:href="#linearGradient1597" gradientUnits="userSpaceOnUse" x2="189.47" gradientTransform="matrix(1.8204 -3.1019 .44719 .26244 -311.73 655.45)" y1="686.88" y2="761.39" inkscape:collect="always"/>
    <linearGradient id="linearGradient1600" x1="164.42" xlink:href="#linearGradient1597" gradientUnits="userSpaceOnUse" x2="173.49" gradientTransform="matrix(1.8204 -3.1019 .44719 .26244 -311.73 655.45)" y1="725.63" y2="671.98" inkscape:collect="always"/>
    <linearGradient id="linearGradient1608" x1="-7.4077" gradientUnits="userSpaceOnUse" x2="-7.8295" gradientTransform="matrix(2.86 -4.8732 .28464 .16705 -311.73 655.45)" y1="1313.4" y2="1336.5" inkscape:collect="always">
      <stop id="stop1610" style="stop-color:#7a7a7a;stop-opacity:.10204" offset="0"/>
      <stop id="stop1611" style="stop-color:#f5f1f1" offset="1"/>
    </linearGradient>
    <linearGradient id="linearGradient1618" x1="363.03" xlink:href="#linearGradient1555" gradientUnits="userSpaceOnUse" x2="360.91" gradientTransform="matrix(1.3404 -2.284 .60732 .35642 -311.73 655.45)" y1="637.56" y2="618.25" inkscape:collect="always"/>
    <linearGradient id="linearGradient1620" x1="460.29" xlink:href="#linearGradient1621" gradientUnits="userSpaceOnUse" x2="459.43" gradientTransform="matrix(1.0602 -1.8066 .76782 .45061 -311.73 655.45)" y1="489.25" y2="473.84" inkscape:collect="always"/>
    <linearGradient id="linearGradient1625" x1="614.06" xlink:href="#linearGradient1621" gradientUnits="userSpaceOnUse" x2="594.67" gradientTransform="matrix(.80707 -1.3752 1.0087 .59196 -311.73 655.45)" y1="393.02" y2="367.02" inkscape:collect="always"/>
    <linearGradient id="linearGradient1626" x1="352.15" xlink:href="#linearGradient1621" gradientUnits="userSpaceOnUse" x2="379.96" gradientTransform="matrix(1.3404 -2.284 .60732 .35642 -311.73 655.45)" y1="634.47" y2="634.47" inkscape:collect="always"/>
    <linearGradient id="linearGradient1628" x1="165.5" xlink:href="#linearGradient1621" gradientUnits="userSpaceOnUse" x2="174.85" gradientTransform="matrix(1.9657 -3.3495 .41414 .24304 -311.73 655.45)" y1="569.37" y2="769.65" inkscape:collect="always"/>
    <linearGradient id="linearGradient1659" x1="115.48" gradientUnits="userSpaceOnUse" x2="161.09" gradientTransform="matrix(3.4383 0 0 .54238 -146.76 -118.76)" y1="2151.2" y2="1847.9" inkscape:collect="always">
      <stop id="stop1664" style="stop-color:#4e4545;stop-opacity:.71429" offset="0"/>
      <stop id="stop1665" style="stop-color:#ffffff;stop-opacity:0" offset="1"/>
    </linearGradient>
    <linearGradient id="linearGradient1728" x1="340.61" xlink:href="#linearGradient1537" gradientUnits="userSpaceOnUse" x2="392.38" gradientTransform="matrix(1.6856 0 0 1.1064 -146.76 -118.76)" y1="279.3" y2="279.3" inkscape:collect="always"/>
  </defs>
  <sodipodi:namedview id="base" bordercolor="#666666" inkscape:pageshadow="2" inkscape:window-y="0" pagecolor="#ffffff" inkscape:zoom="0.30239592" inkscape:window-maximized="0" inkscape:window-x="0" inkscape:window-height="484" showgrid="false" borderopacity="1.0" inkscape:current-layer="svg1" inkscape:cx="-1090.7777" inkscape:cy="462.47611" inkscape:window-width="743" inkscape:pageopacity="0.0"/>
  <path id="path1658" d="m0.33516 995.66 251.6-19.9 386.24-77.38-69.23-37.73-334.08 51.7-232.58 80.01z" sodipodi:nodetypes="ccccccc" style="fill-rule:evenodd;fill:url(#linearGradient1659)" inkscape:connector-curvature="0"/>
  <path id="rect1535" d="m519.78 55.875 45.56 26.736 32.01-54.548c-9.2-19.103-24.38-29.625-45.55-26.737l-32.013 54.549z" sodipodi:nodetypes="ccccc" style="fill-rule:evenodd;stroke:url(#linearGradient1625);stroke-width:1.707;fill:url(#linearGradient1542)" inkscape:connector-curvature="0"/>
  <path id="path1607" d="m10.731 965.27-9.364 24.053-0.51366 4.9115 3.1273-1.2925 16.17-21.788 94.664-161.3-8.1028-5.7978-95.981 161.22z" sodipodi:nodetypes="cccccccc" style="fill-rule:evenodd;stroke:#151010;stroke-width:1.3656pt;stroke-opacity:.67978;fill:url(#linearGradient1608)" inkscape:connector-curvature="0"/>
  <path id="path1616" d="m537.87 72.141 16.017 9.4001 32.013-54.549c0.64138-13.324-4.2406-17.801-16.017-9.4001l-32.013 54.549z" sodipodi:nodetypes="ccccc" style="fill-rule:evenodd;stroke:url(#linearGradient1626);stroke-width:1.0122;fill:url(#linearGradient1618)" inkscape:connector-curvature="0"/>
  <path id="path1619" d="m522.18 60.109 21.996 16.907 26.082-41.036c-6.8-7.695 6.2-34.667-16.81-30.862l-31.27 54.986z" sodipodi:nodetypes="ccccc" style="fill-rule:evenodd;fill:url(#linearGradient1620)" inkscape:connector-curvature="0"/>
  <path id="path1594" d="m505.16 50.298c-41.58-10.723-54.77-51.146-62.43-0.61-18.09 119.4-136.04 340.59-170.46 310.55-31.71 80.019 13.447 27.662 25.763 15.12 60.364-58.842 109.06-171.6 165.95-330.39l34.803 16.856 6.3676-11.526z" sodipodi:nodetypes="csccccc" style="fill-rule:evenodd;stroke:url(#linearGradient1600);stroke-width:1.3656pt;fill:url(#linearGradient1595)" inkscape:connector-curvature="0"/>
  <path id="path1627" d="m486.23 50.186c-25.19-13.1-34.16-20.008-36.77-8.547-44.16 193.41-158.06 357.66-176.88 319.78-31.71 80.019 6.8843 21.811 19.2 9.2688 53.124-43.099 117.03-157.93 166.7-329.96l40.137 17.987-12.382-8.5343z" sodipodi:nodetypes="csccccc" style="fill-rule:evenodd;fill:url(#linearGradient1628)" inkscape:connector-curvature="0"/>
  <path id="rect909" d="m55.861 819.6-48.904 146.76c4.2574 10.826 6.3806 8.5334 14.169 8.5372l101.86-115.86 61.56-104.9 163.92-286.3 164.22-252.11 67.36-135.5c-16.81-23.528-40.74-39.984-67.13-39.405l-85.46 124.9-138.83 267-171.21 282.02z" sodipodi:nodetypes="ccccccccccccc" style="fill-rule:evenodd;stroke:#006582;stroke-width:2.3898;stroke-opacity:.75843;fill:url(#linearGradient1541)" inkscape:connector-curvature="0"/>
  <path id="path1549" d="m57.641 813.58-55.377 161.58c4.2574 10.826 16.165-9.9686 23.953-9.9647l80.52-116.68 66.83-117.76 154.56-278.12 117.7-219.45 98.48-122.5c-16.82-23.52-3.27-66.692-26.3-70.138l-85.46 124.89-138.82 267.01-171.22 282.02z" sodipodi:nodetypes="ccccccccccccc" style="fill-rule:evenodd;fill:url(#linearGradient1550)" inkscape:connector-curvature="0"/>
  <path id="rect1533" d="m61.391 806.73c-9.6202 18.452 10.991-9.6677 38.898 9.9335 29.509 18.93 25.063 42.433 30.781 33.376 49.609-60.878 106.56-182.28 140.91-243.25-12.082-27.545-47.104-43.919-66.838-40.198-35.344 59.579-112.72 165.93-143.75 240.13z" sodipodi:nodetypes="cccccc" style="fill-rule:evenodd;fill:url(#linearGradient1543)" inkscape:connector-curvature="0"/>
  <path id="path1547" d="m58.291 808.38c-4.6598 13.698 14.091-11.321 41.998 8.28 29.509 18.93 24.236 42.64 32.848 35.65 83.505-93.12 105.83-182.69 140.18-243.66-12.082-27.545-50.721-46.606-70.455-42.885-35.344 59.579-111.42 149.06-144.57 242.61z" sodipodi:nodetypes="cccccc" style="fill-rule:evenodd;stroke:#ff0e00;stroke-width:1.3656pt;stroke-opacity:.56180;fill:url(#linearGradient1548)" inkscape:connector-curvature="0"/>
  <path id="path1559" sodipodi:rx="61.901375" sodipodi:ry="61.901375" style="opacity:.42035;fill:url(#linearGradient1565);fill-rule:evenodd" sodipodi:type="arc" d="m583.02 488.05a61.901 61.901 0 1 1 -123.8 0 61.901 61.901 0 1 1 123.8 0z" transform="matrix(.080135 -.16281 .094102 .044144 -4.2318 846.81)" sodipodi:cy="488.05197" sodipodi:cx="521.12323"/>
  <path id="path1566" sodipodi:rx="61.901375" sodipodi:ry="61.901375" style="opacity:.42035;fill:url(#linearGradient1565);fill-rule:evenodd" sodipodi:type="arc" d="m583.02 488.05a61.901 61.901 0 1 1 -123.8 0 61.901 61.901 0 1 1 123.8 0z" transform="matrix(.091911 -.15661 .089567 .052564 16.791 793.96)" sodipodi:cy="488.05197" sodipodi:cx="521.12323"/>
  <path id="path1567" sodipodi:rx="61.901375" sodipodi:ry="61.901375" style="opacity:.42035;fill:url(#linearGradient1565);fill-rule:evenodd" sodipodi:type="arc" d="m583.02 488.05a61.901 61.901 0 1 1 -123.8 0 61.901 61.901 0 1 1 123.8 0z" transform="matrix(.091911 -.15661 .089567 .052564 46.951 742.57)" sodipodi:cy="488.05197" sodipodi:cx="521.12323"/>
  <path id="path1568" sodipodi:rx="61.901375" sodipodi:ry="61.901375" style="opacity:.42035;fill:url(#linearGradient1565);fill-rule:evenodd" sodipodi:type="arc" d="m583.02 488.05a61.901 61.901 0 1 1 -123.8 0 61.901 61.901 0 1 1 123.8 0z" transform="matrix(.094778 -.15467 .087383 .056375 77.161 692.96)" sodipodi:cy="488.05197" sodipodi:cx="521.12323"/>
  <path id="path1569" sodipodi:rx="61.901375" sodipodi:ry="61.901375" style="opacity:.42035;fill:url(#linearGradient1565);fill-rule:evenodd" sodipodi:type="arc" d="m583.02 488.05a61.901 61.901 0 1 1 -123.8 0 61.901 61.901 0 1 1 123.8 0z" transform="matrix(.10593 -.14725 .082959 .062714 104.46 637.91)" sodipodi:cy="488.05197" sodipodi:cx="521.12323"/>
  <path id="path1570" sodipodi:rx="61.901375" sodipodi:ry="61.901375" style="opacity:.43805;fill:url(#linearGradient1565);fill-rule:evenodd" sodipodi:type="arc" d="m583.02 488.05a61.901 61.901 0 1 1 -123.8 0 61.901 61.901 0 1 1 123.8 0z" transform="matrix(.074238 -.16627 .14001 .071087 5.3342 852.42)" sodipodi:cy="488.05197" sodipodi:cx="521.12323"/>
  <path id="path1571" sodipodi:rx="61.901375" sodipodi:ry="61.901375" style="opacity:.43805;fill:url(#linearGradient1565);fill-rule:evenodd" sodipodi:type="arc" d="m583.02 488.05a61.901 61.901 0 1 1 -123.8 0 61.901 61.901 0 1 1 123.8 0z" transform="matrix(.091911 -.15661 .14689 .086205 21.841 794.51)" sodipodi:cy="488.05197" sodipodi:cx="521.12323"/>
  <path id="path1572" sodipodi:rx="61.901375" sodipodi:ry="61.901375" style="opacity:.43805;fill:url(#linearGradient1565);fill-rule:evenodd" sodipodi:type="arc" d="m583.02 488.05a61.901 61.901 0 1 1 -123.8 0 61.901 61.901 0 1 1 123.8 0z" transform="matrix(.091911 -.15661 .14689 .086205 49.751 744.21)" sodipodi:cy="488.05197" sodipodi:cx="521.12323"/>
  <path id="path1573" sodipodi:rx="61.901375" sodipodi:ry="61.901375" style="opacity:.43805;fill-rule:evenodd;fill:url(#linearGradient1565)" sodipodi:type="arc" d="m583.02 488.05a61.901 61.901 0 1 1 -123.8 0 61.901 61.901 0 1 1 123.8 0z" transform="matrix(.11472 -.14213 .14014 .095967 71.881 684.4)" sodipodi:cy="488.05197" sodipodi:cx="521.12323"/>
  <path id="path1574" sodipodi:rx="61.901375" sodipodi:ry="61.901375" style="opacity:.43805;fill-rule:evenodd;fill:url(#linearGradient1588)" sodipodi:type="arc" d="m583.02 488.05a61.901 61.901 0 1 1 -123.8 0 61.901 61.901 0 1 1 123.8 0z" transform="matrix(.11522 -.1418 .13997 .096173 101.87 633.98)" sodipodi:cy="488.05197" sodipodi:cx="521.12323"/>
  <path id="path1575" sodipodi:rx="61.901375" sodipodi:ry="61.901375" style="opacity:.53097;fill-rule:evenodd;stroke:url(#linearGradient1580);stroke-width:1pt;fill:url(#linearGradient1593)" sodipodi:type="arc" d="m583.02 488.05a61.901 61.901 0 1 1 -123.8 0 61.901 61.901 0 1 1 123.8 0z" transform="matrix(.080135 -.16281 .094102 .044144 52.901 886.78)" sodipodi:cy="488.05197" sodipodi:cx="521.12323"/>
  <path id="path1576" sodipodi:rx="61.901375" sodipodi:ry="61.901375" style="opacity:.53097;fill-rule:evenodd;stroke:url(#linearGradient1581);stroke-width:1pt;fill:url(#linearGradient1592)" sodipodi:type="arc" d="m583.02 488.05a61.901 61.901 0 1 1 -123.8 0 61.901 61.901 0 1 1 123.8 0z" transform="matrix(.091911 -.15661 .089567 .052564 76.671 834.74)" sodipodi:cy="488.05197" sodipodi:cx="521.12323"/>
  <path id="path1577" sodipodi:rx="61.901375" sodipodi:ry="61.901375" style="opacity:.53097;fill-rule:evenodd;stroke:url(#linearGradient1582);stroke-width:1pt;fill:url(#linearGradient1591)" sodipodi:type="arc" d="m583.02 488.05a61.901 61.901 0 1 1 -123.8 0 61.901 61.901 0 1 1 123.8 0z" transform="matrix(.091911 -.15661 .089567 .052564 105.17 784.8)" sodipodi:cy="488.05197" sodipodi:cx="521.12323"/>
  <path id="path1578" sodipodi:rx="61.901375" sodipodi:ry="61.901375" style="opacity:.53097;fill-rule:evenodd;stroke:url(#linearGradient1583);stroke-width:1pt;fill:url(#linearGradient1590)" sodipodi:type="arc" d="m583.02 488.05a61.901 61.901 0 1 1 -123.8 0 61.901 61.901 0 1 1 123.8 0z" transform="matrix(.094778 -.15467 .087383 .056375 134.6 728.28)" sodipodi:cy="488.05197" sodipodi:cx="521.12323"/>
  <path id="path1579" sodipodi:rx="61.901375" sodipodi:ry="61.901375" style="opacity:.53097;fill-rule:evenodd;stroke:url(#linearGradient1584);stroke-width:1pt;fill:url(#linearGradient1589)" sodipodi:type="arc" d="m583.02 488.05a61.901 61.901 0 1 1 -123.8 0 61.901 61.901 0 1 1 123.8 0z" transform="matrix(.1021 -.14949 .059454 .04892 172.67 679.55)" sodipodi:cy="488.05197" sodipodi:cx="521.12323"/>
  <path id="path1727" d="m430.78 165.02c41.984 0.00001 77.265 33.164 80.441 50.452" sodipodi:nodetypes="cc" style="stroke:url(#linearGradient1728);stroke-width:6.828;fill:none" inkscape:connector-curvature="0"/>
  <metadata id="metadata84">
    <rdf:RDF>
      <cc:Work>
        <dc:format>image/svg+xml</dc:format>
        <dc:type rdf:resource="http://purl.org/dc/dcmitype/StillImage"/>
        <cc:license rdf:resource="http://creativecommons.org/licenses/publicdomain/"/>
        <dc:publisher>
          <cc:Agent rdf:about="http://openclipart.org/">
            <dc:title>Openclipart</dc:title>
          </cc:Agent>
        </dc:publisher>
      </cc:Work>
      <cc:License rdf:about="http://creativecommons.org/licenses/publicdomain/">
        <cc:permits rdf:resource="http://creativecommons.org/ns#Reproduction"/>
        <cc:permits rdf:resource="http://creativecommons.org/ns#Distribution"/>
        <cc:permits rdf:resource="http://creativecommons.org/ns#DerivativeWorks"/>
      </cc:License>
    </rdf:RDF>
  </metadata>
</svg>
