<svg xmlns="http://www.w3.org/2000/svg" viewBox="0 0 154.228 215.552" enable-background="new 0 0 154.228 215.552">
<path fill="#ffc073" d="m12.112,67.368c1.993,31.615 3.77,63.216 5.367,94.853 .464,9.185 .928,18.369 1.391,27.554 .081,1.588 .161,3.175 .241,4.762 .046,.925 8.45,4.061 9.301,4.432 13.203,5.762 28.156,11.632 42.636,12.921 15.542,1.385 29.987,.141 45.204-3.263 14.969-3.349 26.591-11.009 29.394-26.588 2.526-14.043 2.86-28.622 4.066-42.82 1.313-15.437-1.4-31.406-2.577-46.803-.675-8.815-1.349-17.631-2.022-26.447-21.755,4.191-42.897,8.472-65.229,7.434-11.17-.52-22.065-.697-33.039-2.776-7.626-1.445-15.252-2.89-22.877-4.335-5.769-1.085-6.522-.568-11.853,1.085"/>
<path fill="#ff8c00" d="m138.21,69.468c-8.933,1.413-6.021,18.601-5.773,24.522 .473,11.289 3.596,21.301 2.074,32.878-.724,5.504-2.682,11.346-1.9,16.899 .708,5.03 2.711,9.82 3.35,14.899 .541,4.299-1.901,7.644-2.472,11.83-.733,5.377 1.069,10.709 1.122,16.07-.146-.454-.601-.955-.8-1.399-3.394,2.702-8.453,3.523-12.2,6-5.818,3.846-11.155,7.847-18.192,8.645-15.162,1.718-30.137,.338-44.808-3.895-7.211-2.08-21.127-.736-25.4-7.851-1.896-3.157-3.547-6.992-4.9-10.3-.711-1.738-.29-3.389-1.8-4.899-2.221-2.222-5.13-1.792-7.4,0-4.182,3.302-1.583,10.904 .441,15.155 3.07,6.445 6.729,11.594 13.168,14.941 5.802,3.017 11.982,2.84 18.19,4.003 13.995,2.623 26.652,5.787 41.101,5.7 13.936-.083 26.342-1.438 38.699-8.501 4.46-2.548 5.882-6.036 9.701-8.899 4.681-3.51 8.197-5.101 7.899-11.6-.306-6.663-1.786-12.516 .1-19.101 1.755-6.129 .888-13.842-2.641-19.484-2.476-3.961 1.151-14.582 2.007-18.956 1.451-7.411 2.29-14.149 .728-21.612-.623-2.977-1.855-5.23-2.256-8.332-.424-3.281-.938-6.577-1.531-9.832-1.17-6.425-1.685-12.651-.406-19.084-1.958,.575-5.957,.469-7.2,1.8 .37,.14 .74,.273 1.1,.406"/>
<path fill="#ffd6a3" d="m27.212,89.168c-8.569,0-12.1-3.419-12.1-12.047 0-1.363-.877-8.231-.2-9.053 1.658-2.011 9.234-1.423 11.65-1.34 7.5,.258 12.98,6.768 17.014,12.314 2.169,2.982 4.029,6.268 6.015,9.377 1.364,2.137 4.172,7.986 6.622,9.048 3.903,1.693 7.684-2.357 9.5-5.1 3.924-5.926 9.469-8.408 16.5-9.8 11.688-2.314 30.397-2.4 40.394,4.963 10.222,7.531 14.915,19.09 10.882,31.522-1.54,4.749-6.756,11.778-6.575,16.615 .09,2.409 2.055,4.147 3.3,6 1.789,2.664 2.638,5.064 3.101,8.3 .747,5.227-.254,11.785-4.622,15.344-1.907,1.555-6.3,3.08-6.778,5.456-.414,2.056 2.252,5.941 3.093,7.833 6.1,13.728-26.695,10.646-32.692,11.667 2.652,5.661-11.175,9.2-14.753,9.2-7.972,0-14.091-4.312-20.947-7.8 .084,1.021 1.109,3.792 .6,4.7-1.262,2.247-7.421,1.952-9.5,1.6-9.114-1.547-9.718-9.408-10.199-17.1 5.792,.469 11.164,2.565 16.837,3.578 2.51,.448 5.507,1.164 8.063,.722 4.292-.743 2.822-2.491 2.666-6.886-.475-13.311-2.354-26.586-3.473-39.854-.299-3.549-1.479-36.859-2.07-36.923-11.556-1.24-26.041-.87-32.33-12.332"/>
<path fill="#b88c00" d="m23.712,69.768c14.743,8.55 34,12.046 50.731,13.031 20.473,1.205 40.527-.218 60.369-5.731-.273,.099-.625,.134-.9,.2 2.235-.084 5.612-2.399 7.7-3.3 1.832-.79 5.919-4.102 3.5-6.7-1.62-1.741-10.109,.491-12.593,.752-5.549,.585-11.017,2.157-16.507,3.148-23.92,4.32-47.083,2.778-71,.122-6.713-.746-13.45-1.592-20.126-2.619-1.957-.3-2.002,.532-1.172,1.097"/>
<path fill="#bfffff" d="m10.313,22.268c11.873,3.027 23.711,3.988 35.907,4.678 11.369,.643 22.403,2.217 33.692,3.275 20.767,1.945 47.052,.971 64.8-11.453 2.177,3.297 2.759,6.53 3.45,10.4 1.031,5.777 3.711,12.754 1.278,18.506-5.481,12.962-22.853,16.209-35.349,17.516-14.24,1.488-28.488,1.157-42.76,.305-14.35-.856-28.122-1.065-42.053-5.089-6.667-1.926-23.532-4.371-21.217-13.637 1.01-4.042 2.691-7.277 2.477-11.581-.216-4.369-1.013-8.548-.224-12.92"/>
<g fill="#fff">
<path d="m48.513,28.068c2.471,.808 4.84,.798 7.399,.8 5.417,.004 10.632,.738 16.008,1.448 14.387,1.899 27.927,1.452 42.292,1.452 3.005,0 7.974-2.508 9.801,1.3 .888,1.85-.604,3.902-1.101,5.6-.864,2.958-.91,5.446-.304,8.481 .733,3.672 5.387,11.29 2.104,13.519-3.614,2.454-13.021,.781-17.3,1.1-9.113,.679-17.523,3.462-26.822,3.074-9.317-.389-18.836-.127-28.104-1.196-6.899-.795-4.674-12.373-4.674-17.828 0-4.878-2.023-13.9 1.8-17.75h-1.097"/>
<path d="m11.212,82.568c12.446,8.593 26.037,12.841 40.926,15.007 1.092,.159 9.636,.838 9.711,1.333 .573,3.794 1.155,7.586 1.686,11.386 1.055,7.559 1.867,15.138 2.652,22.729 1.496,14.47 1.766,29.07 1.431,43.601-.03,1.333 .266,8.659-.71,8.926-3.424,.934-7.16,2.188-10.772,1.551-7.424-1.311-13.701-4.285-20.089-8.26-4.02-2.501-8.068-4.844-12.285-6.996-1.352-.69-4.082-.991-5.048-2.078-1.214-1.364-1.244-6.152-1.613-7.974-1.782-8.813-2.159-17.83-2.575-26.785-.82-17.61-.593-34.94-3.314-52.432"/>
<path d="m92.513,32.168c14.32-.675 30.347-.906 43.65-6.851 4.72-2.109 15.154-9.784 7.288-14.789-6.361-4.047-14.194-5.132-21.469-6.606-27.943-5.66-60.937-5.296-88.57,1.746-6.592,1.68-20.181,4.458-21.97,12.33-1.393,6.131 20.874,9.538 24.791,10.303 17.547,3.429 38.591,6.124 56.282,3.867"/>
</g>
<path d="m102.91,1.468c6.266,1.505 13.265,.262 18.5,4.8-2.219,1.089-5.896-.646-8.272-1.011-5.997-.922-12.006-.358-18.027,.111-5.525,.431-11.188,.667-16.538-1.022-5.728-1.809-11.184,1.198-16.762-.377 1.507-4.717 14.747-3.436 18.568-3.054 7.566,.757 15.253,.853 22.529,.553"/>
<path d="m105.41,34.668c-7.754,1-14.534-.359-22.13-1.048-7.414-.673-14.42-.156-21.68-.674-16.467-1.176-32.688-1.228-48.29-7.278 .909,5.293 1.014,12.853-.7,18.2-1.488,4.642-4.034,7.188 2.416,9.06 13.164,3.821 26.218,7.698 39.984,8.241 13.524,.533 27.047-.067 40.537,.416 13.051,.467 28.017-.726 40.59-4.593 4.258-1.31 7.417-3.481 10.302-6.811-.077,.089-3.138-7.616-3.229-9.012-.168-2.544 3.976-15.722 .5-17.4-1.023-.494-4.776,2.477-6.168,2.663-2.305,.307-4.322,.733-6.413,1.778-3.389,1.694-6.083,4.875-9.841,5.815-3.474,.869-6.561,.353-10.078,.344-1.247-.003-4.013,.647-5.1,.2-2.002-.824-2.179-3.123-3-5.5 4.878-.555 9.704-1.588 14.497-2.629 2.592-.564 5.147-1.253 7.732-1.841 1.782-.405 4.233-3.125 5.971-4.129 2.843-1.645 11.623-5.065 9-10-1.896-3.568-11.729-2.87-15.101-4.3 5.626-.715 12.524-.134 17.467,2.885 1.938,1.184 7.968,3.071 8.733,5.715 .272,.94-.372,1.402-.3,2.1 .025,.249-.785,.618-.8,1-.017,.413 .529,1.133 .5,1.6-.201,3.148-.975,5.964-1.399,9.15-.419,3.138 .899,6.687 .899,9.95 0,3.715 .375,7.511 .3,11.2-.023,1.156-1.39,1.146-.8,2.7 .383,1.008 2.122,1.677 2.8,2.5 2.078,2.522 1.191,3.197 .85,6.25-.786,7.037-4.574,6.151-10.949,7.05-13.226,1.865-25.588,7.059-38.9,7.5-14.499,.48-28.422-1.272-42.8-2.3-13.293-.952-26.177-3.79-39.45-4.85-2.52-.201-5.116-1.765-5.547,.848-.26,1.574 1.444,2.537 1.8,3.6 1.271,3.796 .966,8.548 1.359,12.574 1.421,14.554 2.086,28.99 .741,43.526-.697,7.531 .341,13.551 2.519,20.703 1.644,5.398 .458,12.721 3.481,17.597 1.876,3.025 4.306,1.967 7.271,3.988 3.383,2.307 5.769,5.551 8.637,8.419 3.98,3.981 12.226,5.815 17.693,6.593 9.225,1.313 2.563-11.084 3.1-15.65 .872-7.404 2.633-13.187 1.675-20.846-1.868-14.94-5.019-29.673-2.235-44.704 .306-1.651-.097-2.941-.84-4.5-5.509,3.083-13.381-.225-18.65-2.25-3.612-1.388-6.804-3.176-10.568-4.306-3.801-1.14-8.481-2.913-8.682-7.544 3.84,.776 6.908,4.142 10.969,5.225 6.319,1.686 12.43,4.475 19.081,4.475 5.632,0 10.135-2.538 15.25,1.3 3.748,2.812 2.828,11.499 2.626,15.756-.133,2.809-1.659,5.516-1.385,8.252 .363,3.632 .766,7.263 1.159,10.892 .758,6.999 1.715,13.982 2.3,21 .435,5.212 1.252,9.4-1.4,14.051-1.177,2.063-.726,3.731-1.65,5.949-.484,1.162-1.095,2.335-1.2,3.6-.182,2.195 1.5,2.502 1.85,4.101 .637,2.915-1.626,8.564-4.3,9.101-5.639,1.128-11.778-1.662-17-3.351-11.044-3.571-20.893-9.418-29.6-16.95 .872,6.399 1.457,13.12 .071,19.497-.227,1.041-1.394,3.758-.487,4.284 1.595,.926 3.152,1.771 4.819,2.556 2.981,1.403 6.167,2.363 9.323,3.288 12.94,3.788 25.066,7.851 38.524,8.775 6.434,.441 12.339,2 18.753,2 6.846,0 13.479-.571 20.297-.949 11.876-.66 27.736-14.296 30.63-25.869 1.444-5.78 .481-11.613 .87-17.481 .479-7.227 1.01-14.4 1.26-21.65 .457-13.23 2.766-28.138 .829-41.058-1.01-6.738-1.527-13.43-1.859-20.235-.165-3.385-.229-6.762-.229-10.151 0-2.523-.706-4.964 2.2-4.006 4.237,1.397 4.287,11.257 4.827,14.732 1.169,7.528 1.704,15.147 2.71,22.7 .416,3.12 1.72,6.457 1.862,9.567 .168,3.674-1.1,7.569-1.1,11.293 0,7.327 .313,14.655 .174,21.981-.139,7.307-2.724,14.777-2.474,21.826 .205,5.776 1.675,12.407-2.589,17.24-1.55,1.757-1.713,4.116-3.411,6.06-1.94,2.221-4.532,4.007-6.909,5.719-5.349,3.851-10.79,7.29-16.641,10.332-5.895,3.064-13.691,3.382-20.398,4.453-6.813,1.089-14.026,.526-20.781-.7-6.412-1.164-12.654-.813-19.121-1.604-7.151-.875-14.325-1.58-21.402-2.941-6.666-1.281-13.378-3.803-19.251-7.203-7.665-4.438-8.296-9.674-8.296-18.155 0-7.883-.234-15.695-.063-23.609 .151-6.973 1.388-13.55 .606-20.591-.858-7.725-2.261-15.37-2.544-23.15-.261-7.166 1.991-13.61 2.431-20.65 .429-6.861-.726-13.745-.081-20.6 .311-3.309 1.866-6.251-.65-9-2.165-2.365-6.031-2.866-8.6-4.7-3.945-2.817-3.904-8.902-1.2-12.5 1.428-1.901 4.471-3.043 5.2-5.5 .627-2.115 0-5.419 0-7.75 0-2.403-.304-5.274 1.15-7.35 .592-.846-.188-4.64-.15-6 .189-6.771 .793-9.996 6.785-14.115 10.808-7.429 22.665-5.52 35.015-7.285 1.91-.273 5.759-1.432 6.3,1-6.13,.212-11.315,.973-16.5,4.3-4.491,2.882-10.547,4.576-15.5,6.7-2.684,1.151-14.832-.008-10.6,5.8 2.559,3.512 10.885,3.222 14.547,3.431 14.026,.802 27.666,3.038 41.568,4.917 6.616,.894 13.322,1.485 19.984,1.902 3.045,.19 6.105,.203 9.15,0 1.476-.099 2.986-.242 4.45-.45 1.438-.205 1.702,3.908 2.022,5.19 .03,.091 .06,.195 .08,.298"/>
<path d="m21.013,32.668c.229,.662 .294,1.201 .899,1.7-.355-2.899 1.963-2.941 4.101-1.4 2.261,1.631 1.901,4.329 2.8,6.9 .3-2.167 .6-4.333 .899-6.5 8.33,2.911 4.801,14.111 4.801,20.75 0,3.234-3.471,1.607-4.301-.25-.714-1.6-.226-5.137-.5-7-.333-2.263-.775-4.473-1.3-6.7 .083,1.742-1.557,10-3.222,10-4.368,0-3.365-9.831-3.578-13.2-1.533,2.058-2.813,4.417-3.5,6.9-.461,1.667 .26,6.385-.5,7.5-1.866,2.738-1.979-5.542-2.026-6.57-.091-2.002-.759-13.847 1.026-14.83 1.486-.817 3.918,1.95 4.401,2.7"/>
<path d="m139.01,31.668c3.508,6.527-1.919,12.349-.5,19-6.073-1.674-2.572-17.945-1.801-22.2 1.56,.378 2.1,2.071 2.3,3.2"/>
<path d="m131.71,39.168c.708,2.721-1.042,17.748-2.8,9-.287-1.427-1.003-13.234 1.3-12.851 1.43,.238 1.37,3.208 1.5,3.851"/>
<path fill="#e0e0ff" d="m50.212,64.868c7.485,2.497 17.168,1.192 24.951,1.65 4.405,.26 8.723-.671 13.25-.4 4.7,.282 9.438,.55 14.148,.55 9.765,0 18.618-1.191 28.151-3 7.403-1.404 16.814-1.315 18.5-10.5-.093,1.579 .429,8.036-.896,8.698-3.331,1.666-6.643,2.956-10.226,3.979-6.408,1.831-13.115,2.721-19.757,3.154-13.794,.899-27.692,2.669-41.521,2.669-13.486,0-28.23-2.679-41.451-5.383-5.973-1.222-11.494-3.5-17.605-3.791-6.819-.325-10.836-.841-11.844-8.226 14.747,2.62 29.512,9.842 44.313,10.6"/>
<path d="m53.813,91.768c-3.034,3.969-6.752-3.11-7.7-5.5-1.697-4.276-4.688-7.604-6.6-11.8 7.893,2.306 12.689,9.568 14.3,17.3"/>
<path d="m128.51,93.768c5.123,8.676 15.966,16.707 8.1,27.101-3.768,4.979-12.646,1.132-7.6-4.75 9.31-10.855-4.856-18.367-9.219-27.088-1.063-2.125-4.303-5.395-7.182-5.263-1.323,.061-2.084,1.754-3.85,1.95-1.681,.186-3.327,.308-4.75,1.25 4.898,3.521 5.949,8 .1,11.4 4.073,1.816 9.064,2.964 12.301,6.2 2.87,2.871 1.699,7.222 1.699,10.9 0,2.402-.732,2.898 .7,4.4 1.066,1.118 3.78,1.578 5.149,2.449 3.9,2.481 4.73,5.222 4.65,9.75-.032,1.832-.266,3.479-.75,5.25-.113,.416 3.978,2.725 4.75,3.75 1.555,2.063 1.915,4.74 2.8,7.101 .425,1.134 .935,2.173 1.65,3.149 .875,1.193-.113,2.484-.15,3.95-.133,5.292-.04,9.716-5.85,11.649-2.678,.892-5.623,.328-8.351-.049-.191,2.993 3.729,5.722 4.5,8.8 1.671,6.661 1.311,13.146-5.829,15.418-9.987,3.179-18.596-.089-27.57-4.019 .535,5.318-2.094,14.243-8,15.35-5.991,1.123-13.938,1.829-19.3-1.449-1.809-1.106-8.715-6.983-6.4-9.6 2.057-2.324 13.891,6.24 16.356,6.944 3.732,1.065 11.441-.25 13.944-3.645 5.096-6.91-1.237-11.422-6.47-14.989-3.763-2.565-9.792-7.074-6.53-12.111 1.246-1.925 4.077-3.323 6.101-2.3-11.721,9.172 12.74,16.967 18.699,19.2 5.341,2.001 13.77,4.972 19.301,1.75 7.365-4.291 .653-13.646-2.934-17.632-4.963-5.515-6.105-11.139-13.768-6.669-4.278,2.496-9.808,5.962-14.899,4.351-1.444-.457-3.969-1.683-5.1-2.7-.618-.557-.685-1.485-1.101-1.899-.801-.798 1.479-.501-.6-1.15-1.059-.331-1.948-.84-2.801-1.55-6.029-5.023-4.874-11.334-.6-16.8 1.797-2.298 3.759-4.446 5.2-7-3.234-.63-9.311,.772-10.399-3.5 3.126-.978 6.587,.343 9.366-.43 4.613-1.281 9.188-2.956 13.934-3.671 5.403-.814 9.662-3.532 12.085-8.821 2.131-4.653 4.057-15.116-2.585-16.778-5.053-1.265-11.851,.187-16.8,1.6-2.907,.83-7.733,4.239-10.551,2.55-4.555-2.731 1.459-3.778 4.054-4.568 5.519-1.68 11.088-2.58 16.797-3.282-3.136-3.46-3.104-4.695 .1-8.3-4.01-2.811-8.653-7.076-13.992-5.67-4.578,1.206-8.905,2.704-13.607,3.47-2.277,.371-10.775,2.769-7.65-1.399 2.689-3.587 9.957-4.862 14.076-5.497 6.276-.967 11.732,.568 17.662,2.393 5.03,1.547 4.461,.355 7.662-2.846 2.405-2.406 10.01,1.29 12.85,2.45 4.67,1.919 10.51,5.34 10.59,10.909"/>
<path d="m35.013,123.77c5.636,1.302 12.648,4.371 13.25,10.95 .197,2.154-.284,4.451-1.75,6.1-2.377,2.674 1.881,6.68 3.693,9.677 1.103,1.824 5.598-6.765 8.007-1.026 .957,2.279-1.579,3.375-2.71,4.789-2.516,3.145-1.287,6.521-.134,9.978 .625,1.871 3.206,8.851 .444,10.233-1.969,.985-5.707-4.669-6.3-6.15-1.551-3.874-3.849-1.303-5.85,1.5-2.797,3.918-3.865,1.545-2.45-1.85 1.501-3.603 5.462-6.584 5.75-10.6 .183-2.541-2.206-7.432-3.75-9.601-1.047-1.47-.928-2.322-2.699-2-2.222,.404-2.265,2.523-1.951,4.2 .417,2.226 1.346,13.5-1.5,13.5-9.212,0-8.139-10.531-7.601-17.252 .426-5.321 .872-10.643 1.451-15.948 .347-3.19-.127-10.11 4.1-6.5"/>
<path fill="#ffd6a3" d="m121.91,125.07c0,13.032-6.265,24.549-18.1,30.601-1.811,.926-8.367,5.649-10.501,4.851-1.895-.711-6.24-.325-8.799-.251 .585-4.686-4.512-6-1.801-11.3 2.202-4.305 8.945-9.227 4.2-14.2 7.679-1.7 15.688-3 22.9-6.3 4.65-2.13 7.17-9.85 12.1-3.4"/>
<path fill="#fff" d="m39.313,139.17c-.684,1.119-1.693,1.975-2.9,2.5-1.623-4.646 .64-9.298 .5-14 3.897,2.48 4.19,7.61 2.4,11.5"/>
<path fill="#ffd6a3" d="m131.41,149.37c2.141,4.617-.866,10.955-4.7,13.199-2.893,1.693-4.831,3.449-7.15,.801-1.782-2.037-4.079-3.745-6.35-5.2 4.833-3.965 7.577-9.434 11.037-14.493 2.172-3.175 3.114-3.66 5.063-.007 .93,1.73 1.32,4.13 2.1,5.7"/>
<path d="m37.112,183.27c-1.715,5.782 5.267,9.491 9.8,10.851 1.6,.479 10.343,1.521 8.4,4.85-.782,1.34-8.473-1.146-9.601-1.6-3.062-1.23-5.846-3.189-8.366-5.289-2.699-2.25-5.437-7.42-.233-8.81"/>
<path fill="#fff2e6" d="m122.51,76.268c-2.81,13.882-5.107,27.823-6.7,41.9-.791,6.995-1.5,14-2.25,21-.722,6.733-2.478,14.264-2.25,21 .229,6.8 2.771,14.439 4.355,21.048 .854,3.556 .908,7.413 1.845,10.852 2.592,9.516 16.111,11.438 18.6,.9 .265-1.121 1.005-.366 .686-2.604-.182-1.267-.33-2.543-.56-3.803-.625-3.438-1.28-6.862-1.966-10.288-1.115-5.573-2.483-11.103-3.46-16.705-1.667-9.564-1.045-18.381-.7-27.899 .431-11.889-.158-24.384-.6-36.3-.191-5.138 .728-14.086-1.7-18.7-1.1-2.119-4.42-3.446-5.29-.412"/>
<path fill="#fff" d="m52.513,68.668c2.948,1.468 6.842,1.542 10.055,1.848 5.509,.525 11.115,1.675 16.644,1.852 4.264,.136 8.538-.289 12.804-.474 5.967-.26 13.221,1.07 18.896-1.326 1.337-.564 3.934-2.334 2.9-4.4-1.067-2.135-4.774-1.541-6.601-1.5-9.153,.205-18.399,.518-27.5,1.3-6.679,.574-13.492,.5-20.049,.5-1.557,0-5.67-.714-6.951,.2-1.654,1.183-.505,2.063-.197,2"/>
</svg>
