<svg xmlns="http://www.w3.org/2000/svg" viewBox="0 0 68.244 105.29" xmlns:xlink="http://www.w3.org/1999/xlink">
<defs>
<filter width="1.249" x="-.124" y="-.162" height="1.323" id="filter4558">
<feGaussianBlur stdDeviation="7.83553"/>
</filter>
<filter width="1.211" x="-.105" y="-.139" height="1.278" id="filter4564">
<feGaussianBlur stdDeviation="5.50463"/>
</filter>
<filter width="3.107" x="-1.054" y="-.698" height="2.397" id="filter5446">
<feGaussianBlur stdDeviation="33.5876"/>
</filter>
<filter width="1.178" x="-.089" y="-.184" height="1.369" id="filter4588">
<feGaussianBlur stdDeviation="2.76884"/>
</filter>
<filter width="1.169" x="-.084" y="-.207" height="1.414" id="filter4882">
<feGaussianBlur stdDeviation="6.89159"/>
</filter>
<filter width="1.22" x="-.11" y="-.139" height="1.279" id="filter4798">
<feGaussianBlur stdDeviation="6.07528"/>
</filter>
<filter width="1.287" x="-.143" y="-.159" height="1.318" id="filter4840">
<feGaussianBlur stdDeviation="4.48824"/>
</filter>
<filter width="2.264" x="-.632" y="-1.054" height="3.108" id="filter5074">
<feGaussianBlur stdDeviation="30.86978"/>
</filter>
<filter width="1.345" x="-.173" y="-.188" height="1.377" id="filter5218">
<feGaussianBlur stdDeviation="10.16997"/>
</filter>
<filter width="1.188" x="-.094" y="-.132" height="1.264" id="filter5236">
<feGaussianBlur stdDeviation="4.8378"/>
</filter>
<filter width="1.216" x="-.108" y="-.226" height="1.452" id="filter5190">
<feGaussianBlur stdDeviation="5.58669"/>
</filter>
<filter id="filter5492">
<feGaussianBlur stdDeviation=".72648"/>
</filter>
<filter width="1.083" x="-.042" y="-.107" height="1.214" id="filter5518">
<feGaussianBlur stdDeviation=".82274"/>
</filter>
<filter width="1.174" x="-.087" y="-.193" height="1.387" id="filter5536">
<feGaussianBlur stdDeviation="9.17082"/>
</filter>
<filter width="1.435" x="-.217" y="-.428" height="1.856" id="filter5416">
<feGaussianBlur stdDeviation="9.14046"/>
</filter>
<linearGradient id="linearGradient5787" x1="419.83" gradientUnits="userSpaceOnUse" x2="539.77">
<stop offset="0" stop-color="#ffeb4f"/>
<stop offset="1" stop-color="#ffeb4f" stop-opacity="0"/>
</linearGradient>
<linearGradient id="linearGradient5785" x1="385.63" gradientUnits="userSpaceOnUse" x2="510.94">
<stop offset="0" stop-color="#ffeb4f"/>
<stop offset="1" stop-color="#ffeb4f" stop-opacity="0"/>
</linearGradient>
<linearGradient id="linearGradient5789" x1="329.82" gradientUnits="userSpaceOnUse" x2="420.11">
<stop offset="0" stop-color="#fff6ae"/>
<stop offset="1" stop-color="#fff6ae" stop-opacity="0"/>
</linearGradient>
<radialGradient cx="487.44" cy="452.92" gradientTransform="matrix(1 0 0 .47031 0 239.91)" id="radialGradient5783" r="33.24" gradientUnits="userSpaceOnUse">
<stop offset="0" stop-color="#ffb953"/>
<stop offset="1" stop-color="#ffb953" stop-opacity="0"/>
</radialGradient>
<radialGradient cx="434.84" cy="322.08" gradientTransform="matrix(1 0 0 .40373 0 192.05)" id="radialGradient5791" r="47.917" gradientUnits="userSpaceOnUse">
<stop offset="0" stop-color="#ff4b19"/>
<stop offset="1" stop-color="#ff4b19" stop-opacity="0"/>
</radialGradient>
<radialGradient cx="448.63" cy="380.55" gradientTransform="matrix(1 0 0 .43307 0 215.75)" id="radialGradient5793" r="13.55" gradientUnits="userSpaceOnUse">
<stop offset="0" stop-color="#ff4b19"/>
<stop offset="1" stop-color="#ff4b19" stop-opacity="0"/>
</radialGradient>
<radialGradient cx="420.05" cy="374.81" gradientTransform="matrix(1 0 0 .88033 0 44.854)" id="radialGradient5795" r="17.217" gradientUnits="userSpaceOnUse">
<stop offset="0" stop-color="#ff4b19"/>
<stop offset="1" stop-color="#ff4b19" stop-opacity="0"/>
</radialGradient>
<radialGradient cx="213.7" cy="334.58" gradientTransform="matrix(1 0 0 .61252 0 129.65)" id="radialGradient5797" r="48.105" gradientUnits="userSpaceOnUse">
<stop offset="0" stop-color="#291600"/>
<stop offset="1" stop-color="#291600" stop-opacity="0"/>
</radialGradient>
</defs>
<g fill-rule="evenodd">
<g transform="translate(-588.64 -717.69)">
<path opacity=".99" fill="#fff0de" fill-opacity=".557" d="m360.45,354.77z" transform="matrix(.11782 0 0 .16422 579.47 687.84)"/>
<path opacity=".99" fill="#fffbef" fill-opacity=".594" d="m429.49,528.68a11.207,0 0 0,1 -2.74,0h-8.47z" transform="matrix(.11782 0 0 .16422 579.47 687.84)"/>
</g>
<g transform="matrix(.11782 0 0 .16422 -9.17 -29.85)">
<path fill="#ffedb9" d="m471.63,319.7c-11.68-8.3 5.57-28.3 5.57-42.63v-31.45c0-9.93-13.39-22.81-18.81-30.06-5.93-7.93-12.33-10.32-19.5-16.07-5.32-4.27-14.86-2.75-21.59-3.5-12.4-1.38-25.81,0-38.32,0-12.96,0-24,.94-36.22,3.5-11.99,2.5-19.61,8.89-32.74,12.58-13.32,3.74-25.55,10.42-37.61,15.37-13.17,5.41-27.1,9.53-40.4,13.98-13.72,4.59-26.15,8.4-39.7,12.58-9.89,3.05-18.92,7.96-28.56,11.19-5.15,1.72-13.65,5.96-18.81,7.68-10.16,3.4-12.44,12.07-16.72,19.57-3.31,5.81-6.04,12.55-9.05,20.27-2.4,6.14-4.85,13.39-6.97,20.97-1.29,4.63-5.02,11.59-6.96,16.07-3.4,7.85 0,25.68 0,34.25v37.74c0,12.14-1.4,24.61-1.4,37.05 0,17.6 .67,23.53 8.36,37.04 6.65,11.67 24.43,24.51 34.83,34.94 13.11,13.16 27.9,25.48 43.19,37.75 18.89,15.16 38.8,27.45 57.11,42.63 13.33,11.05 24.35,23.3 38.32,32.85 15.81,10.82 33.49,19.19 49.45,28.65 15.83,9.39 33.93,17.68 50.15,26.56 16.81,9.2 41.26,14.4 59.21,23.77 22.95,11.97 45.43,21.94 68.26,32.85 12.27,5.85 24.3,9.24 36.92,11.88 10.99,2.29 21.7,10.55 29.95,16.07 12.68,8.48 23.31,15.91 34.83,23.07 8.06,5 16.71,10.11 23.69,14.67 3.69,2.42 8.82-.46 13.23-.7 13.13-.69-3.37-26.07-4.88-39.14-1.47-12.84 0-26.87 0-39.83 0-12.33-2.34-24.14-4.17-35.65-1.59-9.94-5.8-18.83-9.06-28.65-3.62-10.89-6.31-21.37-9.06-32.85-2.8-11.75-6.2-23.24-8.35-35.65-1.86-10.73-5.38-19.89-9.06-30.05-4.68-12.91-9.67-24.65-16.02-34.95-5.7-9.23-10.89-22.1-15.32-31.45-4.04-8.49-7.11-15.94-10.45-25.16-3.14-8.66-5.2-17.32-6.97-25.86-1.46-7.03-8.08-16.5-11.14-22.36-4.26-8.15-10.97-15.71-16.02-22.37-4.28-5.64-9.24-11.15-13.24-18.17-3.2-5.63-3.19-11.43-4.88-17.47-1.75-6.31-7.57-9.86-11.84-14.68-3.47-3.92-5.54-7.88-8.36-11.88-2.62-3.73-7.45-8.55-9.75-11.19-5.07-5.82-7.27-12.95-11.14-23.76z"/>
<path fill="#ffffe4" d="m449.63,326.96c-5.41-4.08-10.83-8.15-16.24-12.23-16.9-12.72-31.78-13.83-51.78-9.68-13.9,2.89-34.46,22.45-48.23,28.53-19.77,8.73-38.79,15.51-57.87,25.47-17.3,9.02-38.19,5.6-57.37,5.6-17.61,0-32.8,2.55-49.24,5.6-11.99,2.23-19.32,27.61-21.33,36.68-2.26,10.2-1.35,15.04 1.02,24.96 2.24,9.37 3.8,15.1 8.12,23.43 4.8,9.26 5.73,16.49 6.6,27 .94,11.35-10.78,13.04-16.24,15.28-7.1,2.91 18.95,23.81 20.81,25.47 13.91,12.4 24.96,26.77 34.52,42.28 9.21,14.92 21.77,27.66 33.51,40.75 10.1,11.26 31.49,18.75 45.18,21.39 13.59,2.62 25.64,7 37.57,13.25 15.65,8.19 30.7,11.83 44.67,21.39 12.67,8.66 19.97,17.21 35.54,22.41 15.01,5.02 28.93,15.74 41.63,22.41 14.28,7.51 30.92,10.33 42.64,18.34 6.19,4.24 17.45,7.32 24.88,11.21 9.59,5.02 21.92,8.2 31.47,10.7 7.93,2.07 16.27,4.19 24.37,5.6 4.37,.76 10.38,5.62 14.21,7.64 6.06,3.19 11.8,10.11 17.26,13.24 7.54,4.32 15.38,7.73 23.36,11.21 3.57,1.56 6.43,2.58 10.15,4.08 9.46,3.79 1.02-20.37 1.02-30.57 0-10.96-.51-21.66-.51-32.6 0-12.87-.65-25.17-3.05-37.69-1.86-9.72-13.83-18.31-19.8-24.96-7.16-7.99-10.36-21.3-15.23-31.07-5.83-11.71-9.77-19.39-12.69-32.09-3.14-13.66-4.54-26.83-6.6-40.76-1.76-11.91-3.55-22.37-3.55-34.63 0-11.77-4.77-23.6-9.14-34.13-4.86-11.71-9.65-22.42-14.72-34.13-4.99-11.51-12.06-19.85-19.8-28.53-8.97-10.05-15.42-17.73-20.82-29.54-3.79-8.29-13.56-16.81-17.26-21.39-4.89-6.07-10.63-7.68-14.72-13.25-1.95-2.65-3.62-17.66-5.08-20.88-4.6-10.17-31.48-24.93-4.56-7.64"/>
<path fill="#ffffef" d="m437.45,344.28c-22.83-9.75-39.04-8.21-56.35,9.17-11.87,11.9-17.02,22.25-22.85,37.18-7.59,19.46 13.61,40.02 24.37,52.98 13.79,16.6 14.84,32.42 4.57,47.88-6.88,10.36-25.36,17.29-34.01,26.49-10.03,10.65 14.57,34.94 19.29,41.25 19.29,25.82 41.96,45.56 63.46,69.28 15.06,16.63 46.54,21.98 67.52,23.43 17.48,1.21 33.14,10.62 49.24,15.79 11.94,3.84 23.23,21.79 31.48,30.06 9.64,9.67 12.18-11.39 12.18-19.87 0-16.58 2.45-33.19 3.05-49.92 .49-13.88 0-27.87 0-41.77 0-12.51-3.63-24.34-2.04-37.69 1.72-14.38-2.56-21.76-9.13-32.6-9.22-15.2-17.2-28.52-28.43-42.79-8.58-10.9-14.1-23.76-19.8-36.17-4.16-9.03-15.67-17.35-22.85-24.96-6.82-7.22-12.39-14.78-17.26-22.92-6.16-10.31-12.57-11.86-16.75-24.45-4.97-14.95 2.14-13.28-12.69-21.39-14.8-8.1-30.92,1.17-46.71,0"/>
</g>
<g fill="#ffb953" fill-opacity=".766" transform="matrix(.11782 0 0 .16422 -9.17 -29.85)">
<path d="m329.83,668.75c-.06-.03 35.36,2.57 64.47,23.43 9.9,7.1 21.61,11.81 32.49,16.81 17.99,8.28 35.08,16.16 53.81,22.92 14.4,5.21 29.1,12.82 42.14,19.36 12.61,6.33 24.72,13.28 38.58,18.85 9.5,3.81 18.46,9.82 27.92,13.24 10.85,3.92 22.22,8.85 31.98,13.76 4.94,2.47 10.27,5.99 16.76,8.65 14.02,5.76 4.33-3.48-3.56-12.22-12.19-13.53-26.79-27.71-41.62-37.19-10.66-6.8-22.41-8.67-34.53-11.2-10.98-2.3-22.35-6.3-32.99-10.19-11.08-4.04-22.39-5.54-33.51-8.66-15.16-4.26-31.57-21.43-44.17-30.05-9.8-6.71-24.31-7.25-35.53-8.15-11.83-.95-20.55-6.96-30.97-11.72-7.82-3.56-12.77-13.36-18.28-19.86-4.14-4.9-9.64-7.48-15.23-11.21-5.88-3.94-12.58-17.36-16.24-22.41-4.88-6.74-8.46-.36-12.19-.51-2.53-.11 2.03,24.95 2.04,24.96 .88,5.1 7.28,14.63 8.63,21.39z"/>
<path d="m158.74,506.26c2.77,15.95 20.7,25.24 27.92,39.73 5.22,10.46 7.35,20.23 11.68,28.53 4.06,7.77 20.39,10.52 27.92,13.24 6.12,2.21 12.26,9.54 18.79,13.24 10.02,5.69-3.01-23.22-3.56-23.94-10.23-13.47-20.47-21.41-34.01-30.05-6.57-4.19-11.75-10.58-17.26-15.28-3.36-2.86-18.41-4.09-23.36-6.11-7.07-2.91-7.91-14.34-8.12-19.36z"/>
</g>
<g transform="matrix(.11782 0 0 .16422 -9.17 -29.85)">
<path fill="url(#radialGradient5783)" d="m473.49,450.74c-22.38-9.19-16.19,8.07-18.78,13.75-.4,.87 18.21,2.04 20.82,2.04 5.9,0 11.49,1.53 16.75,1.53 2.86,0 13.25-7.85 20.81-8.15 13.91-.56 2.98-5.13 3.56-6.12 .62-1.07-15.84-4.41-18.28-5.09-12.62-3.55-6.61-23.83-24.88,2.04z"/>
</g>
<g fill-opacity=".766">
<g fill="#ffb953" transform="matrix(.11782 0 0 .16422 -9.17 -29.85)">
<path d="m533.4,539.37c-2.13-.6 14.47,14.94 17.26,17.83 3.99,4.11 8.3,0 10.66,0 3.84,0 2.04-8.6 2.54-10.7 2.04-8.61-3.72-5.28-6.09-8.66-4.69-6.66-16.29,.59-24.37,1.53z"/>
<path d="m371.96,588.78c-4.9-6.96 12.19,11.88 18.28,17.83 6.09,5.94-9.85-16.62-18.28-17.83z"/>
</g>
<g fill="#cb4600" transform="matrix(.11782 0 0 .16422 -9.17 -29.85)">
<path d="m467.91,634.62c9.01,8.79 18.42,17.04 26.4,25.98 4.88,5.48 7.47-2.5 10.66-3.56 8.1-2.71 4.08-7.51 6.09-11.21 .79-1.44-16.9-8.24-18.27-8.66-9.4-2.87-12.58-3.04-24.88-2.55z"/>
<path d="m541.01,656.53c-8.09-2.48 16.61,3.74 24.37,7.13 3.67,1.6 6.43,4.75 9.65,7.13 5.69,4.21 7.72-9.38 8.63-11.72 3.57-9.15-9.64-7.89-14.22-8.66-7.69-1.28-22.13,4.48-28.43,6.12z"/>
<path d="m137.42,376.37c-9.68-1.62 20.4,13.28 28.43,7.64 .28-.2 .68,0 1.01,0 5.21,0 10.97-14.47 13.2-17.83 4.04-6.08 2.57-5.27-10.66-8.15-7.44-1.62-24.12,15.38-31.98,18.34z"/>
<path d="m197.32,358.54c-11.03-2.41 19.7,12.97 30.97,13.75 13.54,.94 12.94-25.3 24.37-32.6 10.31-6.58 14.3,4.99 17.77,9.17 10.52,12.67 26.1-8.82 29.95-14.77 5.37-8.28-14.58,15.58-24.37,16.81-32.37,4.06-12.34-1.54-20.81,11.2-2.03,3.06-28.33-1.25-31.98-1.52"/>
<path d="m368.92,299.45c-8.57,12.89-18.81,18.06-29.96,24.45-14.36,8.23 4.4,11.72 9.65,11.72 22.21,0 18.04-35.17 33-41.77 8.2-3.62 17.66-3.51 28.43-3.06 12.76,.54 5.69-2.59 11.16-5.09 16.4-7.48-39.83,.73-52.28,13.75z"/>
<path d="m444.05,316.26c7.34-3.35 3.12,17.04 9.14,22.41 2.95,2.64 19.8,4.08 25.38,7.64 4.14,2.65 4.47,13.19 5.59,18.34 2.57,11.87 5.5-5.52 6.09-6.11 8.71-8.74-13.4-31.01-18.28-36.17-3.99-4.21-24.05-5.46-27.92-6.11z"/>
</g>
<g transform="matrix(.11782 0 0 .16422 -9.17 -29.85)">
<path fill="#ffeb4f" filter="url(#filter4558)" d="m287.69,456.85c-17.04-18-59.87-15.63-85.29-10.7-22.82,4.43 .21,46.15 4.57,54.51 9.13,17.47 19.39,30.35 38.08,31.07 20,.77 37.46-3.88 55.84-8.66 12.63-3.29 22.49,11.86 28.43,20.37 7.26,10.42 13.2-18.42 13.2-22.41 0-20.86-45.21-18.34-56.86-18.34-12.38,0-16.06-2.14-27.42-3.56-10.89-1.37-23.73,5.13-35.53,5.6-15.73,.63-14.22-13.17-14.22-25.98 0-13.83 5.33-17.47 12.7-24.45 2.21-2.1 29.25,3.5 35.02,3.06 23.3-1.8 27.49-8.27 22.85-17.32-2.27-4.41 2.27-7.22 3.04-9.68"/>
</g>
</g>
<g transform="matrix(.11782 0 0 .16422 -9.17 -29.85)">
<path fill="url(#linearGradient5785)" filter="url(#filter4564)" d="m387.19,574.52c-7.23-14.09 24.27,25.47 40.11,25.47 23.5,0 48.38-4.94 67.52,8.65 4.21,3 7.78,6.8 11.67,10.19 2.34,2.04 4.96-34.1 3.56-37.69-4.72-12.09-36.82-7.64-46.71-7.64-17.38,0-16.51,3.44-19.8-11.72-1.99-9.18 .65-28.72 0-32.6-2.56-15.45-34.57,17.03-36.04,20.89-5.89,15.35-20.71,21.54-18.28,39.22"/>
<path fill="url(#linearGradient5787)" d="m421.71,655.51c-6.92,18.07 13.7,20.37 29.45,20.37 15.25,0 30.52-.07 45.69,.51 12.46,.48 29.8,12.66 38.07,16.81 4.76,2.39 5.89,22.69 2.03-.51-4.59-27.62-46.23-31.07-66.5-31.07h-28.94c-8.2,0-10.47-2.21-19.8-6.11z"/>
</g>
<g fill="#fff6ae" fill-opacity=".766" transform="matrix(.11782 0 0 .16422 -9.17 -29.85)">
<path filter="url(#filter4588)" d="m479.59,533.77c-12.27,0 23.23-7.95 34.52-12.74 11.06-4.69 18.39,6.49 23.35,13.25 10.57,14.39 9.78-.53 12.18-5.61 4.41-9.29-5.8-16.54-8.12-19.86-6.93-9.93-33.67,4.17-38.58,7.13-12.6,7.58-10.06,1.31-23.35,17.83z"/>
<path d="m256.72,592.34c-16.74,10.08 41.88,5.19 55.34,19.36 7.63,8.04 10.65,16.8 18.78,24.96 3.47,3.48 25.24,6.59 30.97,8.66 20.45,7.39 4.68,1.3 15.23-2.55 19.06-6.95-17.93-37.07-26.91-38.2-17.69-2.22-34.14,1.26-50.76-4.08-6.54-2.09-12.93-2.54-21.33-2.54-16.56,0-23.27-9.92-28.93-22.41"/>
</g>
<g transform="matrix(.11782 0 0 .16422 -9.17 -29.85)">
<path fill="url(#linearGradient5789)" d="m333.89,440.04c-17.37,0 33.49,9.22 50.26,13.75 18.61,5.03 29.06,3.2 34.52-13.24 7.8-23.48-35.07-6.95-45.69-4.08-23.94,6.47-38.47-5.36-40.62,25.47-.04,.68-1.35,0-2.03,0"/>
<path fill="#fff6ae" fill-opacity=".766" d="m376.53,376.88c-1.23,17.74 38.27-6.96 53.31,2.54 12.42,7.85 11.91,4.47 20.3-2.54 14.4-12.04-6.42-20.78-9.14-22.42-9.53-5.74-34.75,1.84-43.66,4.59-20.69,6.39-22.29,11.75-15.73,38.71 .75,3.09-9.56,2.29-10.66,2.55"/>
<path fill="#d42f00" d="m321.7,399.29c-.67-4.92-1.35-9.85-2.03-14.77-2.07-15.08-1.06-29.79 1.53-44.32 2.75-15.48 10.36-26.17 23.35-34.64 .51-.33 .67-1.02 1.01-1.52 3.36-5.05 15.47-6.88 21.32-8.15 8.86-1.94 13.57,7.21 17.77,12.22 1.44,1.71 12.87-.46 14.22-.51 5.25-.19 16.24-9.89 20.81-12.73 6.75-4.19 12.03-5.7 19.29-9.17 6.6-3.15 12.07-3.06 20.31-3.06 10.88,0 17.33,.58 26.91,4.08 11.38,4.15 10.9,7.53 12.69,17.82 2.11,12.18 3.09,24.22 5.07,36.17 2.4,14.42 2.03,29.68 2.03,44.32 0,11.85-12.06,18.64-20.81,23.43-11.36,6.21-22.77,6.09-35.03,9.68-12.04,3.52-23.06,4.58-35.53,4.58-9.72,0-19.64,.51-29.45,.51-9.39,0-18.37-2.69-27.41-4.58-6.71-1.41-14.9,0-21.83,0-9.41,0-10.36-10.92-14.22-19.36z"/>
<path fill="#7b1b00" filter="url(#filter4798)" d="m461.38,317.64c-3.69-.1-7.37-.2-11.06-.31-23.11-.64-39.46,9.42-53.42,27.12-4.9,6.2 2.04,28.19-1.23,35.43-.02,.03-21.59,10.01-24.87,12.94-8.78,7.82 19.4,21.33 23.02,23.41 14.46,8.29 34.03,5 45.45-4.62 7.84-6.61 10.28-8.49 19.96-10.17 5.61-.97 10.08,3 14.73,5.55 7.17,3.92 9.25,.47 14.44-3.08 6.44-4.41 7.83-9.77 9.21-17.26 1.64-8.87 2.76-17.01 2.76-26.18 0-10.64 .82-17.81-6.75-24.96-8.57-8.09-22.22-9.36-32.24-17.87z"/>
<path opacity=".99" fill="#ff4b19" filter="url(#filter4840)" fill-opacity=".398" d="m378.47,340.44c-4.2-3.97-30.69,6.49-35.62,8.01-3.19,.99-4.71,12.83-5.83,15.71-2.72,6.97-2.46,13.67-2.46,20.95 0,6.52 1.04,3.97 5.22,7.71 3.88,3.45 3.34,6.62 3.69,11.39 .47,6.42 25.52-3.67 27.33-4.62 5.77-3.01 13.59-4.93 18.73-7.39 5.31-2.55 8.84-9.85 10.74-15.1 2.62-7.21 6.84-11.02 8.29-19.41 .98-5.63-5.49-10.22-8.29-13.55-2.32-2.77-18.81-2.83-21.8-3.7z"/>
<path fill="url(#radialGradient5791)" d="m469.97,309.63c-6.92-8.25-15.95-6.16-25.48-6.16-8.78,0-9.14,1.56-13.82,7.09-2.93,3.46-12.39,3.29-16.27,4.31-4.73,1.24-6.12,3.89-11.98,4.62-7.23,.91-7.64,.58-12.59,5.85-4.87,5.2-1.2,7.75 .92,12.02 3.3,6.61 20.67,2.26 25.8,.92 10.26-2.67 16.79-4.4 27.94-4 8.07,.29 8.36,2.65 16.58-1.85 5.73-3.14 7.41-5.81 13.51-8.32 4.19-1.72 3.24-11.27 3.38-14.79 .05-1.43 2.86,0 4.3,0"/>
<path fill="url(#radialGradient5793)" d="m435.58,377.41c.29-7.49 13.72,6.11 20.88,8.32 1.38,.42 3.75,0 5.22,0"/>
</g>
</g>
<g transform="matrix(.11782 0 0 .16422 -9.17 -29.85)">
<path fill="none" stroke="#000" d="m447.87,356.15c1.67,.52 12.84,14.45 19.34,18.8 2.54,1.69 4.11,1.25 7.06,2.15"/>
<path fill="url(#radialGradient5795)" fill-rule="evenodd" d="m417.16,360.16c4.59,3.07-10.65,5.61-12.59,10.78-2.87,7.7-.33,11.28 3.38,16.33 2.95,4.02 14.19,1.38 17.81,.92 7.13-.89 9.2-9.55 10.74-15.09 2.57-9.2-14.57-13.12-19.34-12.94z"/>
<path fill="none" stroke="#000" d="m365.88,380.49c.82-2.93 5.12,3.29 7.68,4.93 2.6,1.67 5.85,1.29 8.9,1.54"/>
</g>
<g fill-rule="evenodd">
<g transform="matrix(.11782 0 0 .16422 -9.17 -29.85)">
<path fill="#5a1300" fill-opacity=".398" d="m340.71,344.45c8.48,5.44-7.02,21.53-1.85,30.19 2.99,4.99 11.87,8.06 16.89,11.09 5.54,3.33 13.45,2.16 19.65,2.16 6.61,0 10.41,6.81 14.13,11.7 6.01,7.92-1.74,15.7-7.37,17.87-8.08,3.12-17.51,3.08-26.1,3.08-12.65,0-16.84-.37-23.65-11.4-5.04-8.18-4.28-19.6-7.98-28.03-2.69-6.15-1.71-14.51-3.68-20.95-1.73-5.65-3.37-7.19-2.77-14.79 .55-6.87 7.47-15.98 9.22-22.49 .76-2.84 12.77-1.23 15.65-1.23"/>
</g>
<g fill="#de7800" fill-opacity=".623" transform="matrix(.11782 0 0 .16422 -9.17 -29.85)">
<path filter="url(#filter4882)" d="m439.37,210.12l-7.68-5.55c-7.82-5.65-16.81-5.39-26.1-6.47-5.55-.64-11.38-.8-16.89-1.23-6.23-.48-11.43,2.03-16.88,4.31-6.45,2.7-14.45,4.48-20.58,5.55-7.09,1.24-12.47,4.31-20.57,4.31-8,0-15.74,1.84-22.41,4.63-8.16,3.41-17,6.04-25.18,9.85-7.2,3.36-7.49,14.14-7.99,20.65-.65,8.5 14.85,17.07 20.58,21.25 6.3,4.6 23.17,6.5 31.01,7.71 16.87,2.6 27.94-4.18 38.99-16.33 11.02-12.11 13.42-9.95 19.96,1.54 2.64,4.63 21.54,5.37 26.1,7.08 7.08,2.67 10.17,3.68 17.81,4.32 7.02,.58 12.7,2.58 19.35,3.08 5.37,.4 9.96-1.43 14.73-2.78 4.22-1.18 5.1-11.13 5.84-14.48 1.49-6.74-1.54-12.96-1.54-19.71 0-5.47-3.89-9.53-6.45-13.56-3.03-4.79-5.45-8.78-8.9-12.94-8.04-9.68-13.37,.23-11.98-12.01 .06-.51-1.02,0-1.53,0"/>
<path d="m276.32,248.32c.48-4.19-34.09,6.39-37.46,21.57-2.97,13.42-9.98,13.8-21.18,20.64-11.7,7.14 3.59,11.25 11.97,14.17 15.06,5.26 21.51,1.99 31.93-8.01 7.19-6.89 33.42,2.44 42.68,2.77 9.2,.33 10.52-18.51 27.33-16.63 12.07,1.34 7.56,7.21 17.2,6.47 9.34-.72 16.7-7.09 27.63-7.09 4.9,0 8.75,2.16 12.59,4.01 8.45,4.05 11.42-3.81 13.51-8.63 4.96-11.46-19.37-20.49-25.79-22.49-9.39-2.92-21.29-.72-30.71-2.46-12.69-2.36-27.19,1.23-39.91,1.23-17.21,0-33.84-5.92-48.21-3.7"/>
<path d="m132.32,330.27c-.56,.09 17.02-19.72 38.07-23.1 10.32-1.66 13.53,3.81 18.42,10.47 9.09,12.37 27.52-11.07 31.94-16.02 8.6-9.64 16.15-17.85 27.94-23.11 8.37-3.73 17.6-1.34 24.26,2.47 14.47,8.3-.21,22.11-7.99,24.34-24.75,7.09-20.78,5.73-4.91,24.65 8.99,10.71-52.05,13.6-60.18,14.48-6.78,.72-8.63,7.36-17.81,8.31-13.28,1.38-26.86,3.7-38.38-1.84-4.32-2.08-9.92-17.65-11.36-20.65z"/>
</g>
<g transform="matrix(.11782 0 0 .16422 -9.17 -29.85)">
<path fill="#eaa344" d="m260.97,232.92c-3.68-1.78-27.7,11.2-33.16,13.55-9.38,4.03-17.75,10.98-27.02,15.41-6.64,3.17-11.02,7.5-17.81,9.86-10.22,3.55-22.13,6.11-32.55,8.62-5.15,1.24-10.16,2.74-15.96,4.01-4.72,1.03-3.07,6.03-3.07,10.47 0,7.02 3.06,12.14 5.52,18.18 1.96,4.8 16.97,1.89 19.96,1.54 10.8-1.25 28.3-12.3 39-16.33 10.03-3.77 20.38-11.97 26.4-20.02 7.01-9.38 9.51-16.41 19.35-24.03 8.79-6.82 15.73-21.87 26.71-20.03 3.81,.64 2.66-4.86 3.38-6.16 .57-1.05-.65-.44-.92-.62"/>
<path fill="url(#radialGradient5797)" d="m179.91,360.47c.82,0 .82,0 0,0-11.75,0 9.58-21.89 10.75-33.59 .9-9.09 5.86-6.04 11.05-4 5.34,2.1 9.59,14.25 11.98,18.18 3.3,5.45 7.99,1.65 11.66,.61 2.5-.7 4.02-16.76 4.3-18.48 .63-3.78 7.6-1.43 11.06-3.08 3.75-1.8 2.16-8.14 4.29-11.71 4.86-8.13 14.4,3.85 15.66,6.78 3.99,9.2-11.88,10.06-15.96,11.09-3.24,.81 13.84,17.85 14.74,19.1 .26,.36-33.24,4.46-37.16,4.62-4.38,.18-6.05,8.01-10.44,8.01-12.13,0-21.28,4.25-31.93,2.47-4.65-.78-9.21,2.05-13.82,3.08"/>
<path fill="#291600" fill-opacity=".787" d="m257.9,309.94c-3.45-.58 8.13-33.56 9.52-36.97 4.95-12.2 11.52-13.85 22.41-7.39 10.94,6.48 5.45,10.15 16.58,12.01 9.59,1.6 11.21-12.84 13.21-19.1 4.35-13.63 7.56-5.77 7.67-5.85 .33-.25 12.48,12.93 13.51,14.48 4.26,6.4-24.77,4.62-27.94,4.62-6.99,0-3.72,20.15-3.68,21.25 .35,9.79-26.17,1.06-27.33,10.79-.53,4.42-4.22,9.31-5.53,12.94-3.13,8.72-19.03-6.54-18.42-6.78z"/>
</g>
<g fill-opacity=".992">
<g transform="matrix(.11782 0 0 .16422 -9.17 -29.85)">
<path fill="#d37100" d="m262.51,324.73c1.43-2.77 2.86-5.55 4.29-8.32 4.24-8.19 9.26-15.14 13.82-22.18 4.32-6.67 6.29-6.1 14.74-6.78 6.31-.51 8.3-.76 13.2-2.77 5.79-2.38 10.36-6.81 14.43-11.4 5.48-6.18 1.66-7.47 11.67-8.63 12.25-1.42 11.32,12.54 9.83,19.72-2.4,11.56-15.1,14.33-20.57,22.18-6.51,9.33-2.34,12.32-20.27,12.32-13.46,0-17.11,1.54-10.44,13.25 5.94,10.44-11.77,8.32-18.12,8.32-8.86,0-9.84-.66-12.58-15.71z"/>
<path fill="#603300" d="m377.04,254.48c2.76-1.13 5.52-2.26 8.29-3.38 9.65-3.95 13.02-12.31 25.17-13.25 5.98-.46 11.84,1.37 17.2,.92 10.76-.9 11.68-6.74 23.64-1.85 3.78,1.55 8.67,9.62 14.74,12.33 8.56,3.81-26.12,8.8-31.93,11.4-14.36,6.4 1.81,10.67-19.96,3.38-8.02-2.68-15.64,5.54-22.42,8.32-5.07,2.09-17.84-6.04-23.02-7.7-7.58-2.43-2.28-2.29-5.22-5.24"/>
<path fill="#e87b00" d="m376.73,271.74c3.21-1.81 17.62-9.6 27.02-12.63 4.37-1.41 12.15-10.13 15.66-12.94 4.97-4 15.86,.35 20.26,2.15 9.92,4.07 3.96,9.27 16.58,4.32 7.44-2.93 6.68-3.51 14.13-1.24 17.12,5.23-9.47,17.59-12.9,18.49-8.55,2.24-7.67,7.6-7.67,14.48 0,7.49-23.93,2.9-27.95,2.16-7.97-1.49-16.74-2.13-25.17-4.01-10.29-2.29-9.78,.56-14.13,4.93-3.9,3.91-14.17-8.52-15.66-9.86-6.07-5.48-14.34,7.91-16.27,11.09-2.57,4.23-11.28-3.3-12.9-4.31-5.85-3.67-3.03-.24-6.44-6.78-4.21-8.06 15.17-6.16 19.34-6.16 4.03,0 8.72,.31 13.2,.31 9.42,0 19.01-1.23 28.25-3.08"/>
</g>
<g fill="#fff0de" transform="matrix(.11782 0 0 .16422 -9.17 -29.85)">
<path opacity=".99" d="m446.43,313.79a4.2987,2.9268 0 1,1 -8.6,0 4.2987,2.9268 0 1,1 8.6,0z"/>
<path opacity=".99" d="m471.3,319.18a3.3775,3.0809 0 1,1 -6.76,0 3.3775,3.0809 0 1,1 6.76,0z"/>
<path opacity=".99" d="m471.91,355.38a.9212,3.8511 0 1,1 -1.84,0 .9212,3.8511 0 1,1 1.84,0z"/>
<path opacity=".99" d="m357.38,348.76a2.6099,4.3132 0 1,1 -5.22,0 2.6099,4.3132 0 1,1 5.22,0z"/>
<path opacity=".99" d="m389.01,388.04a3.224,2.0026 0 1,1 -6.45,0 3.224,2.0026 0 1,1 6.45,0z"/>
<path opacity=".99" d="m413.27,392.35a3.224,2.6187 0 1,1 -6.45,0 3.224,2.6187 0 1,1 6.45,0z"/>
</g>
</g>
<g fill-opacity=".557">
<g fill="#fff0de" transform="matrix(.11782 0 0 .16422 -9.17 -29.85)">
<path opacity=".99" d="m392.08,351.69a.4606,3.2349 0 1,1 -.92,0 .4606,3.2349 0 1,1 .92,0z"/>
<path opacity=".99" d="m430.16,393.28a3.224,2.3107 0 1,1 -6.45,0 3.224,2.3107 0 1,1 6.45,0z"/>
<path opacity=".99" d="m420.33,405.75a10.747,7.086 0 1,1 -21.49,0 10.747,7.086 0 1,1 21.49,0z"/>
<path opacity=".99" d="m425.86,368.32a5.9875,1.6945 0 1,1 -11.98,0 5.9875,1.6945 0 1,1 11.98,0z"/>
<path opacity=".99" d="m436.3,345.68a9.5185,4.0051 0 1,1 -19.04,0 9.5185,4.0051 0 1,1 19.04,0z"/>
<path opacity=".99" d="m455.33,323.8a5.5269,.3081 0 1,1 -11.05,0 5.5269,.3081 0 1,1 11.05,0z"/>
<path opacity=".99" d="m463.93,310.25a5.6804,2.4647 0 1,1 -11.36,0 5.6804,2.4647 0 1,1 11.36,0z"/>
<path opacity=".99" d="m486.96,360.31a4.2987,5.3915 0 1,1 -8.6,0 4.2987,5.3915 0 1,1 8.6,0z"/>
<path opacity=".99" d="m399.76,336.9a8.5974,.154 0 1,1 -17.2,0 8.5974,.154 0 1,1 17.2,0z"/>
<path opacity=".99" d="m360.76,394.97a3.6846,5.5456 0 0,1 -.1,1.32l-3.58-1.32z"/>
<path opacity=".99" d="m373.04,360.77a4.1452,1.5404 0 0,1 -.12,.37l-4.02-.37z"/>
<path opacity=".99" d="m374.58,337.98a5.5269,1.5404 0 0,1 -.16,.36l-5.37-.36z"/>
</g>
<g fill="#ffc682" transform="matrix(.11782 0 0 .16422 -9.17 -29.85)">
<path opacity=".99" d="m416.95,329.5a5.9875,2.3107 0 0,1 -.17,.55l-5.82-.55z"/>
<path opacity=".99" d="m488.49,370.32a14.892,12.323 0 0,1 -.42,2.94l-14.47-2.94z"/>
<path opacity=".99" d="m462.09,325.81a17.809,4.4673 0 0,1 -.51,1.06l-17.3-1.06z"/>
<path opacity=".99" d="m463.62,318.26a14.278,2.1566 0 0,1 -.41,.51l-13.86-.51z"/>
<path opacity=".99" d="m417.26,367.71a10.747,10.321 0 0,1 -.31,2.45l-10.44-2.45z"/>
<path opacity=".99" d="m403.44,388.66a9.9791,8.7805 0 0,1 -.29,2.09l-9.69-2.09z"/>
<path opacity=".99" d="m368.44,391.12a6.2945,5.3915 0 0,1 -.18,1.28l-6.12-1.28z"/>
<path opacity=".99" d="m368.44,360.62a10.747,.4621 0 0,1 -.31,.11l-10.44-.11z"/>
<path opacity=".99" d="m397.61,333.05a14.124,13.248 0 0,1 -.41,3.15l-13.72-3.15z"/>
<path opacity=".99" d="m444.89,337.21a10.9,8.7805 0 0,1 -.31,2.09l-10.59-2.09z"/>
<path opacity=".99" d="m457.79,371.1a10.44,8.4724 0 0,1 -.3,2.01l-10.14-2.01z"/>
<path opacity=".99" d="m429.85,391.27a12.128,7.7022 0 0,1 -.35,1.84l-11.78-1.84z"/>
<path opacity=".99" d="m421.86,411.45a10.286,3.8511 0 0,1 -.29,.92l-9.99-.92z"/>
<path opacity=".99" d="m408.97,418.23a8.7509,4.4673 0 0,1 -.25,1.07l-8.5-1.07z"/>
<path opacity=".99" d="m371.2,390.97a7.6762,11.399 0 0,1 -.22,2.71l-7.45-2.71z"/>
<path opacity=".99" d="m367.82,376.64a9.2115,7.5481 0 0,1 -.26,1.8l-8.95-1.8z"/>
<path opacity=".99" d="m393.62,360a13.664,17.099 0 0,1 -.4,4.07l-13.27-4.07z"/>
<path opacity=".99" d="m454.41,377.56a14.124,9.7047 0 0,1 -.4,2.32l-13.72-2.32z"/>
<path opacity=".99" d="m470.69,395.28a11.361,6.1617 0 0,1 -.33,1.47l-11.04-1.47z"/>
<path opacity=".99" d="m482.66,381.72a12.896,8.3184 0 0,1 -.37,1.98l-12.53-1.98z"/>
<path opacity=".99" d="m487.88,362.62a10.747,10.475 0 0,1 -.31,2.5l-10.44-2.5z"/>
<path opacity=".99" d="m497.4,354.61a13.357,10.783 0 0,1 -.38,2.57l-12.98-2.57z"/>
<path opacity=".99" d="m492.49,332.28a14.892,1.0783 0 0,1 -.43,.25l-14.47-.25z"/>
<path opacity=".99" d="m478.67,312.4a4.2987,5.8537 0 0,1 -.12,1.4l-4.18-1.4z"/>
<path opacity=".99" d="m477.44,309.17a11.514,4.4673 0 0,1 -.33,1.06l-11.18-1.06z"/>
<path opacity=".99" d="m365.06,403.29a7.6762,7.3941 0 0,1 -.22,1.76l-7.46-1.76z"/>
<path opacity=".99" d="m362.6,395.74a10.593,7.24 0 0,1 -.3,1.73l-10.29-1.73z"/>
<path opacity=".99" d="m371.82,376.49a14.585,13.556 0 0,1 -.42,3.22l-14.17-3.22z"/>
<path opacity=".99" d="m379.49,353.23a19.651,9.7047 0 0,1 -.56,2.31l-19.09-2.31z"/>
<path opacity=".99" d="m417.26,326.73a17.962,5.6996 0 0,1 -.52,1.36l-17.44-1.36z"/>
<path opacity=".99" d="m449.19,311.48a9.9791,2.7728 0 0,1 -.28,.66l-9.7-.66z"/>
<path opacity=".99" d="m400.99,372.02a10.44,7.8562 0 0,1 -.3,1.87l-10.14-1.87z"/>
<path opacity=".99" d="m405.28,351.07a13.357,6.3158 0 0,1 -.38,1.5l-12.97-1.5z"/>
<path opacity=".99" d="m427.7,323.8a19.498,4.0051 0 0,1 -.56,.96l-18.94-.96z"/>
</g>
<g transform="matrix(.11782 0 0 .16422 -9.17 -29.85)">
<path fill="#a75b00" d="m311.63,217.51c2.05-2.46 4.1-4.93 6.14-7.39 2.9-3.49 7.32-5.4 10.44-7.39 3.58-2.29 7.27-3.65 11.67-5.24 3.68-1.33 7.54-2.65 11.98-3.39 4.97-.83 11.12-2.97 15.96-4.31 4.71-1.31 8.6-2.58 13.21-4.32 3.65-1.37 7.08-1.97 10.74-2.77 5.22-1.14 11.85,0 17.2,0 4.73,0 8.96,1.48 13.2,2.46 4.87,1.13 10.18,4.68 14.13,6.47 4.55,2.08 9.62,5.07 13.2,6.78 3.12,1.49 5.88,5.14 9.52,7.4 3.89,2.42 6.02,6.8 8.29,10.78 2.39,4.19 3,7.12 3.99,11.71 .64,2.96 1.6,4.82 2.46,7.39 1.45,4.39-10.24-1.46-10.44-1.54-4.44-1.74-10.96-10.09-15.36-13.25-5.8-4.16-15.55-4.18-22.41-5.23-6.16-.96-11.62-5.75-16.89-8.63-7.07-3.87-12.36-4.93-20.57-4.93-6.54,0-13.09,2.98-19.65,4.93-5.83,1.73-10.5,5.06-16.58,6.47-6.17,1.43-13.54,.77-19.35,1.85-6.86,1.27-13.74,1.36-20.88,2.15z"/>
</g>
</g>
<g fill="#d42f00" transform="matrix(.11782 0 0 .16422 -9.17 -29.85)">
<path d="m336.81,503.73c.96-6.93-.36-25.71-6.14-37.9-5.36-11.29-12.27-21.26-19.96-31.12-9.54-12.23-34.34-8.45-46.98-7.39-13.22,1.11-26.09,3.39-39.3,3.39-5.32,0-12.81-16.27-18.11-19.41-13.4-7.94-26.05,8.46-31.63,17.56-5.54,9.03-3.93,22.4-5.22,32.35-.92,7.1 0,15.01 0,22.18 0,7.65 4.9,17.75 7.68,24.34 2.88,6.84 13.66,14.63 19.03,20.34 8.02,8.51 16.71,10.47 27.94,10.47 11.01,0 18.45-2.32 27.95-7.09 7.68-3.85 15.85-5.91 23.33-8.31 4.99-1.61 13.37,.1 18.43,.3 5.78,.24 11.03-.26 16.58-1.23 6.09-1.06 7-4.79 9.82-8.93 2.42-3.56 4.85-5.42 7.37-7.7 3.94-3.58-4.91-1.85 9.21-1.85z"/>
<path d="m204.17,547.78c10.15,.48 13.41,7.26 17.81,15.72 3.62,6.96 9.97,11.27 16.88,15.71 5.47,3.51 10.85,5.96 16.58,8.32 10.06,4.13 4.19-5.5 1.23-10.17-3.97-6.26-9.97-8.47-16.89-10.78-5.18-1.74-9.74-4.3-13.81-6.78-4.04-2.46-6.1-2.47-11.06-2.47-4.88,0-8.91-6.95-10.74-9.55z"/>
</g>
<g fill-opacity=".557">
<g transform="matrix(.11782 0 0 .16422 -9.17 -29.85)">
<path fill="#a72500" d="m261.58,436.87c-.81,0-.81,0 0,0 7.37,0-14.74,0-22.1-.31-5.06-.21-9.01-.62-13.21-1.54-4.41-.96-7.95-3.81-12.58-4.93-3.62-.87-6.74-1.84-10.44-2.77-7.34-1.84-8.87,7.37-11.06,12.63-3.21,7.74-3.14,10.04 .62,17.56 2.4,4.83 6,8.78 8.9,13.25 4.96,7.65 16.74,7.7 24.56,7.7 8.1,0 14.58-5.06 21.8-7.7 5.78-2.11 13.87-.59 19.66-1.23 7.26-.81 15.09,0 22.41,0 5.2,0 11.26,3.15 16.27,4.62 5.23,1.53 5.11-4.46 6.15-8.01 1.84-6.36-1.2-9.55-4-13.86-4.67-7.22-12.62-10.33-19.65-12.94-4.62-1.72-13.34-.71-17.5-1.24-.87-.1-1.64-.61-2.46-.92-2.3-.87-4.91-.21-7.37-.31z"/>
<path fill="#641600" d="m178.99,450.12c-.82,2.87-1.64,5.75-2.46,8.63-3.79,13.31 6.02,24.93 11.06,35.43 2.19,4.56 4.74,10.14 6.75,14.17 1.83,3.67 10.53,6.61 14.13,9.24 4.36,3.18 9.33,7.65 12.89,10.48 3.85,3.05 13.35-1.74 17.2-2.78 6.91-1.87 8.3-9.22 11.36-14.17 2.67-4.34-21.47-6.98-24.57-7.7-10.4-2.44-11.25-17.17-13.2-25.26-1.61-6.69-3.3-10.22-7.06-15.41-1.6-2.2-.43-7.06-.31-9.86 .29-6.86-1.24-5.54-7.68-5.54-5.05,0-2.91-3.27-5.22-5.86-.2-.23 0-.61 0-.92 0-.74-.81-1.23-1.22-1.85"/>
<path fill="#340b00" d="m297.2,499.72c0-4.78-17.04,13.59-36.23,22.8-5.35,2.57-11.36,2.16-17.19,2.16-8.64,0-2.92,.46-7.07,4.62-1.85,1.86 22.71,1.44 23.95,1.23 8.69-1.5 15.08-8.02 22.73-11.09 4.9-1.97 9.01-4.37 13.81-5.85 4-1.24 7.41-3.32 11.06-4.93 4.58-2.03 11.35-2.2 16.27-3.08 6.4-1.15 8.75-5.02 12.9-8.94 4.56-4.31-4.83-16.15-6.45-18.48-3.56-5.13-5.81-9.47-11.06-14.18-3.09-2.78-5.68-5.54-8.59-8.01-3.66-3.09 1.06,13.47 1.53,18.18 .68,6.81-.78,12.43-2.45,18.18-1.11,3.8-11.86,6.84-13.21,7.39z"/>
<path fill="#ff4514" filter="url(#filter5074)" d="m270.8,450.12c-18.25-2.17-34.14,.1-50.36,7.39-8.21,3.7-9.67,10.11-11.67,17.56-2.46,9.18 6.54,19.74 11.36,26.19 5.72,7.65 9.19,10.45 17.5,14.79 6.95,3.63 16.32,2.15 24.26,2.46 7.33,.3 14.66-.06 21.8-.92 6.44-.78 13.82-6.47 20.88-8.32 1.72-.45 7.68-8.77 9.83-10.47 3.58-2.84 4.05-5.93 5.83-9.86 2.29-5.06 3.58-7.81 4.3-13.56 .78-6.28-17.56-10.74-21.49-12.32-5.88-2.36-10.1-6.85-17.51-9.55-6.07-2.22-7.11-2.78-14.73-3.39"/>
<path opacity=".99" fill="#ffc4b4" d="m232.72,452.28a8.5974,5.8537 0 0,1 -.25,1.39l-8.35-1.39z"/>
</g>
<g fill="#ff9462" transform="matrix(.11782 0 0 .16422 -9.17 -29.85)">
<path opacity=".99" d="m274.48,473.38a3.3775,2.0026 0 0,1 -.1,.48l-3.28-.48z"/>
<path opacity=".99" d="m277.24,511.12a7.5227,5.5456 0 0,1 -.21,1.32l-7.31-1.32z"/>
<path opacity=".99" d="m300.89,499.41a10.593,3.0809 0 0,1 -.31,.74l-10.29-.74z"/>
<path opacity=".99" d="m304.88,486.01a6.6016,2.6187 0 0,1 -.19,.62l-6.41-.62z"/>
<path opacity=".99" d="m282.77,469.07a5.9875,1.0783 0 0,1 -.17,.25l-5.82-.25z"/>
<path opacity=".99" d="m243.47,484.93a6.7551,6.7779 0 0,1 -.2,1.62l-6.56-1.62z"/>
<path opacity=".99" d="m237.02,514.82a12.589,9.8588 0 0,1 -.36,2.34l-12.23-2.34z"/>
<path opacity=".99" d="m231.49,479.7a15.967,8.6264 0 0,1 -.46,2.05l-15.5-2.05z"/>
<path opacity=".99" d="m253.29,462.44a19.498,7.7022 0 0,1 -1.07,2.52l-18.42-2.52z"/>
<path opacity=".99" d="m303.96,460.29a12.436,8.3184 0 0,1 -.68,2.71l-11.76-2.71z"/>
<path opacity=".99" d="m275.09,499.41a19.958,7.7022 0 0,1 -1.09,2.52l-18.86-2.52z"/>
<path opacity=".99" d="m288.91,494.02a12.743,11.861 0 0,1 -.7,3.88l-12.04-3.88z"/>
<path opacity=".99" d="m299.04,479.23a12.436,10.013 0 0,1 -.68,3.27l-11.75-3.27z"/>
<path opacity=".99" d="m313.17,464.14a15.967,6.932 0 0,1 -.88,2.26l-15.09-2.26z"/>
<path opacity=".99" d="m244.08,493.56a13.971,12.94 0 0,1 -.76,4.23l-13.21-4.23z"/>
<path opacity=".99" d="m203.86,481.08a2.4564,14.326 0 0,1 -.14,4.68l-2.32-4.68z"/>
<path opacity=".99" d="m200.17,488.48a8.5974,16.791 0 0,1 -.47,5.48l-8.12-5.48z"/>
<path opacity=".99" d="m206.93,476.92a11.668,13.864 0 0,1 -.64,4.53l-11.03-4.53z"/>
<path opacity=".99" d="m253.91,461.67a27.327,7.8562 0 0,1 -1.5,2.57l-25.83-2.57z"/>
</g>
<g fill="#ffcbb2" transform="matrix(.11782 0 0 .16422 -9.17 -29.85)">
<path opacity=".99" d="m270.8,451.2a9.6721,.154 0 0,1 -.53,.05l-9.15-.05z"/>
<path opacity=".99" d="m230.88,475.07a9.365,11.399 0 0,1 -.36,3.15l-9.01-3.15z"/>
<path opacity=".99" d="m299.66,474a13.357,9.7047 0 0,1 -.52,2.67l-12.84-2.67z"/>
<path opacity=".99" d="m302.42,459.05a10.44,7.7022 0 0,1 -.4,2.13l-10.04-2.13z"/>
<path opacity=".99" d="m260.97,492.17a10.747,13.094 0 0,1 -.42,3.61l-10.33-3.61z"/>
<path opacity=".99" d="m260.36,484.01a13.51,13.556 0 0,1 -.53,3.74l-12.98-3.74z"/>
<path opacity=".99" d="m221.05,460.75a5.0663,4.7753 0 0,1 -.19,1.31l-4.87-1.31z"/>
<path opacity=".99" d="m203.86,459.21a9.9791,5.6996 0 0,1 -.39,1.57l-9.59-1.57z"/>
<path opacity=".99" d="m230.27,445.34a16.734,10.629 0 0,1 -.65,2.93l-16.09-2.93z"/>
<path opacity=".99" d="m279.09,451.51a14.431,10.629 0 0,1 -.56,2.93l-13.87-2.93z"/>
<path opacity=".99" d="m280.62,484.93a7.3692,12.015 0 0,1 -.28,3.32l-7.09-3.32z"/>
<path opacity=".99" d="m217.68,462.9a6.448,7.8562 0 0,1 -.25,2.17l-6.2-2.17z"/>
<path opacity=".99" d="m190.96,462.44a.9212,16.637 0 0,1 0,1.08l-.92-1.08z"/>
<path opacity=".99" d="m274.79,463.06a23.182,.3081 0 0,1 -.05,.02l-23.13-.02z"/>
<path opacity=".99" d="m236.71,505.88a9.6721,5.2375 0 0,1 -.02,.34l-9.65-.34z"/>
<path opacity=".99" d="m289.22,487.55a13.971,7.5481 0 0,1 -.03,.49l-13.94-.49z"/>
<path opacity=".99" d="m301.5,467.53a10.747,9.0886 0 0,1 -.02,.59l-10.73-.59z"/>
<path opacity=".99" d="m302.73,454.89a9.5185,5.3915 0 0,1 -.02,.35l-9.5-.35z"/>
<path opacity=".99" d="m235.79,496.49a40.377,20.18 0 0,1 -.08,1.31l-40.29-1.31z"/>
<path opacity=".99" d="m272.64,497.56a21.033,14.48 0 0,1 -.05,.95l-20.98-.95z"/>
<path opacity=".99" d="m301.81,488.32a13.05,14.788 0 0,1 -.03,.96l-13.02-.96z"/>
<path opacity=".99" d="m316.24,476.46a7.6762,13.71 0 0,1 -.02,.89l-7.66-.89z"/>
</g>
<g transform="matrix(.11782 0 0 .16422 -9.17 -29.85)">
<path fill="#682100" d="m212.46,486.78c0,.83 17.16-12.94 41.14-12.94 15.99,0 27.71,3.22 34.7,17.87 2.27,4.77-9.53,15.07-12.28,18.49-3.51,4.34 8.83,7.2 11.66,12.01 2.57,4.37-34.71,11.55-37.76,12.02-8.51,1.31-17.74,.35-26.1-.62-5.98-.69-11.8-3.55-17.5-4.93-4.26-1.02-11.05-18.67-13.21-22.49-2.84-5.05-6.44-10.56-8.59-15.1-4.25-8.95 3.73-12.09 11.97-15.4 .67-.27 8.2-1.42 8.9-1.54"/>
<path fill="#ffc943" filter="url(#filter5190)" d="m292.29,393.74c-6.93-4.97-7.38-16.68-5.83-29.58 1.3-10.88 1.18-11.7-6.76-14.48-5.31-1.85-15.61,10.5-19.04,13.56-6.14,5.48-8.44,6.78-16.88,6.78-4.27,0-9.68-3.07-14.13-4.32-4.71-1.32-6.36-1.94-11.67-2.15-5.36-.22-11.72,1.43-15.04,2.15-4.49,.98-12.85,6.72-17.2,9.55-5.9,3.85-6.55,7.27-10.13,13.56-4.8,8.43-2.83,9.7 5.83,13.86 8.08,3.88 19.54,.24 27.03-2.77 7.24-2.91 18.78-.62 26.71-.62 11.25,0 15.42-3.89 24.56,4.32 6.2,5.56 12.3,4 21.19,4 4.89,0 9.63-.38 14.12-.92 2.54-.31-1.23-17.92-.3-20.95"/>
</g>
</g>
<g transform="matrix(.11782 0 0 .16422 -9.17 -29.85)">
<path fill="#d42f00" d="m582.72,675.33c-1.72-7.54 6.32-30.97 7.98-46.52 1.5-14.03 2.82-33.7-4.3-45.6-8.55-14.29-15.56-25.88-29.17-36.66-9.53-7.55-18.52-15.51-24.26-26.49-8.59-16.46-33.66-20.27-49.74-23.73-22.52-4.84-37.84,5.53-56.5,16.33-14.1,8.17-22.45,36.61-24.87,51.14-2.18,13.15 8.36,30.37 13.21,42.52 4.9,12.3 13.24,17.9 24.25,26.19 18.82,14.16 33.8,18.17 56.81,18.17 10.68,0 20.42,5.73 29.47,9.86 5.65,2.58 13.21,.48 18.43-.61 3.98-.84 8.4-4.24 13.2-5.24 4.55-.95 10.38,0 15.05,0 3.37,0 6.52,1.98 9.82,3.08 2.08,.69 3.5,.39 5.53,.62"/>
<path fill="#7b1b00" filter="url(#filter5218)" d="m489.07,520.98c-2.87-1.13-5.74-2.26-8.6-3.39-11.68-4.6-28.87-2.52-37.46,5.24-8.48,7.65-13.06,2.24-15.66,14.79-1.44,6.93 3.99,18.81 3.99,27.11 0,6.84-6.45,13.93-6.45,22.18 0,6.61 4.94,12.63 8.29,17.25 4.36,6.02 13.49,8.62 20.27,12.02 7.21,3.62 16.08,4.83 23.03,8.32 5.64,2.83 10.4,5.16 16.58,6.77 10.81,2.84 21.84,3.03 32.85,4.93 8.14,1.41 17.55,3.44 24.87,6.78 4.42,2.02 7.44-.78 10.14-1.54 6.01-1.69 3.99-27.68 3.99-31.73 0-13.83-2.56-25.68-9.52-36.97-5.64-9.13-20.2-13.74-28.86-19.41-5.35-3.5-11.65-13.7-15.97-18.79-3.8-4.48-4.8-5.89-10.75-7.71-9.26-2.83 7.14,7.07-10.74-5.85z"/>
</g>
<g fill="#fffbef">
<g fill-opacity=".557" transform="matrix(.11782 0 0 .16422 -9.17 -29.85)">
<path filter="url(#filter5236)" d="m545.87,570.27c-2.21-5.72-11.31-22.84-17.2-34.19-4.43-8.55-12.28-14.31-20.57-17.57-7.73-3.03-17.8,2.07-24.87,3.7-3.76,.87-13.75-4.88-18.11-6.16-8.26-2.42-10.37,6.42-13.21,11.71-5.12,9.54 4.08,20.72 9.52,26.18 7.24,7.26 15.68,9.69 23.34,16.95 6.83,6.47 9.43,12.92 18.11,16.33 10.42,4.09 16.22-3.59 25.79,4 7.14,5.65 13.17,8.56 22.42,9.55 4.39,.48 8.13,.71 11.97,1.54 5.07,1.11 6.78-1.82 8.6-2.46 5.45-1.9-10.26-27.37-11.36-29.58-2.11-4.23-10.7-8.69-14.43-11.09"/>
<path opacity=".99" d="m487.52,543.93a5.6804,10.013 0 0,1 -.01,.65l-5.67-.65z"/>
<path opacity=".99" d="m524.06,563.96a5.9875,3.8511 0 0,1 -2.8,3.26l-3.18-3.26z"/>
<path opacity=".99" d="m512.4,598a5.3734,8.3184 0 0,1 -2.52,7.05l-2.86-7.05z"/>
</g>
<g fill-opacity=".762" transform="matrix(.11782 0 0 .16422 -9.17 -29.85)">
<path opacity=".99" d="m476.16,598a6.448,11.399 0 0,1 -3.02,9.66l-3.42-9.66z"/>
<path opacity=".99" d="m551.39,602.93a5.5269,8.0103 0 0,1 -2.59,6.79l-2.94-6.79z"/>
<path opacity=".99" d="m558.76,624.5a2.6099,4.3132 0 0,1 -1.22,3.65l-1.39-3.65z"/>
<path opacity=".99" d="m497.04,580.29a3.6846,5.3915 0 0,1 -1.72,4.56l-1.96-4.56z"/>
<path opacity=".99" d="m487.22,552.25a5.8339,7.24 0 0,1 -2.74,6.13l-3.1-6.13z"/>
<path opacity=".99" d="m493.97,537.46a7.9833,4.1592 0 0,1 -3.74,3.53l-4.24-3.53z"/>
<path opacity=".99" d="m454.36,560.11a.1535,5.2375 0 0,1 -.07,4.43l-.08-4.43z"/>
<path opacity=".99" d="m440.85,589.84a3.8381,11.245 0 0,1 -.21,3.72l-3.63-3.72z"/>
<path opacity=".99" d="m531.13,632.2a11.054,3.0809 0 0,1 -.63,1.02l-10.43-1.02z"/>
</g>
<g fill-opacity=".594" transform="matrix(.11782 0 0 .16422 -9.17 -29.85)">
<path opacity=".99" d="m557.84,634.66a5.8339,4.9294 0 0,1 -.33,1.63l-5.51-1.63z"/>
<path opacity=".99" d="m471.25,577.21a14.124,12.169 0 0,1 -.79,4.02l-13.33-4.02z"/>
<path opacity=".99" d="m484.45,548.55a17.655,10.629 0 0,1 -.99,3.52l-16.66-3.52z"/>
<path opacity=".99" d="m505.03,537.46a20.112,12.478 0 0,1 -1.14,4.13l-18.98-4.13z"/>
<path opacity=".99" d="m548.01,578.44a18.269,9.3967 0 0,1 -1.02,3.1l-17.25-3.1z"/>
<path opacity=".99" d="m558.15,592.3a16.734,10.937 0 0,1 -.95,3.62l-15.79-3.62z"/>
<path opacity=".99" d="m557.22,615.87a7.9833,12.323 0 0,1 -.44,4.08l-7.54-4.08z"/>
<path opacity=".99" d="m548.01,639.75a13.05,15.866 0 0,1 -.73,5.24l-12.32-5.24z"/>
<path opacity=".99" d="m498.89,570.89a12.282,4.0051 0 0,1 -.7,1.32l-11.59-1.32z"/>
<path opacity=".99" d="m518.23,554.56a22.261,12.632 0 0,1 -5.44,8.27l-16.82-8.27z"/>
<path opacity=".99" d="m552.93,554.87a17.348,14.172 0 0,1 -4.24,9.28l-13.11-9.28z"/>
<path opacity=".99" d="m508.71,520.98a15.967,4.9294 0 0,1 -3.9,3.23l-12.07-3.23z"/>
<path opacity=".99" d="m490.9,511.89a16.12,3.543 0 0,1 -3.94,2.32l-12.18-2.32z"/>
<path opacity=".99" d="m459.89,513.43a2.7634,2.9268 0 0,1 -.68,1.92l-2.08-1.92z"/>
<path opacity=".99" d="m438.7,532.07a8.1368,9.2426 0 0,1 -1.98,6.05l-6.15-6.05z"/>
<path opacity=".99" d="m427.96,551.02a8.2903,3.8511 0 0,1 -2.03,2.52l-6.26-2.52z"/>
<path opacity=".99" d="m462.65,526.37a12.589,15.25 0 0,1 -3.07,9.99l-9.52-9.99z"/>
<path opacity=".99" d="m497.66,544.55a10.747,20.488 0 0,1 -2.63,13.42l-8.12-13.42z"/>
<path opacity=".99" d="m516.08,562.42a2.4564,18.331 0 0,1 -.6,12l-1.86-12z"/>
<path opacity=".99" d="m557.22,599.7a11.361,4.4673 0 0,1 -2.77,2.92l-8.59-2.92z"/>
<path opacity=".99" d="m566.13,593.69a4.1452,13.864 0 0,1 -1.01,9.08l-3.14-9.08z"/>
<path opacity=".99" d="m460.81,583.21a2.7634,5.5456 0 0,1 -.67,3.64l-2.09-3.64z"/>
<path opacity=".99" d="m431.03,582.44a1.2282,9.3967 0 0,1 -.3,6.16l-.93-6.16z"/>
<path opacity=".99" d="m422.43,596.61a6.141,12.169 0 0,1 -1.5,7.98l-4.64-7.98z"/>
<path opacity=".99" d="m454.98,612.17a8.1368,7.7022 0 0,1 -1.99,5.05l-6.15-5.05z"/>
</g>
</g>
<g fill-opacity=".594">
<g fill="#ffdc71" transform="matrix(.11782 0 0 .16422 -9.17 -29.85)">
<path opacity=".99" d="m489.67,623.73a4.9128,5.0834 0 0,1 -1.2,3.33l-3.71-3.33z"/>
<path opacity=".99" d="m480.46,587.83a19.805,12.632 0 0,1 -4.84,8.28l-14.96-8.28z"/>
<path opacity=".99" d="m508.4,566.88a16.274,8.3184 0 0,1 -3.97,5.45l-12.3-5.45z"/>
<path opacity=".99" d="m549.86,566.88a18.116,10.783 0 0,1 -4.43,7.07l-13.69-7.07z"/>
<path opacity=".99" d="m557.22,583.21a9.2115,14.172 0 0,1 -2.25,9.29l-6.96-9.29z"/>
<path opacity=".99" d="m546.17,612.33a12.436,16.791 0 0,1 -3.04,10.99l-9.39-10.99z"/>
<path opacity=".99" d="m466.95,566.11a9.6721,12.169 0 0,1 -2.36,7.97l-7.31-7.97z"/>
<path opacity=".99" d="m445.15,550.25a6.448,17.561 0 0,1 -1.28,10.52l-5.17-10.52z"/>
<path opacity=".99" d="m495.51,606.78a24.564,20.796 0 0,1 -4.9,12.46l-19.67-12.46z"/>
<path opacity=".99" d="m531.43,617.72a17.962,23.107 0 0,1 -3.58,13.85l-14.38-13.85z"/>
<path opacity=".99" d="m560.6,619.57a17.962,12.94 0 0,1 -3.58,7.75l-14.38-7.75z"/>
<path opacity=".99" d="m559.37,610.48a7.5227,15.558 0 0,1 -1.5,9.32l-6.02-9.32z"/>
<path opacity=".99" d="m554.15,593.07a12.436,22.798 0 0,1 -2.48,13.67l-9.95-13.67z"/>
<path opacity=".99" d="m566.51,604.28a14.278,15.25 0 0,1 -1.08,1.78l-11.43-9.14z"/>
<path opacity=".99" d="m232.45,491.39a11.668,13.71 0 0,1 -.88,1.61l-9.34-8.22z"/>
<path opacity=".99" d="m242.39,504.52a20.726,7.3941 0 0,1 -1.57,.87l-16.59-4.44z"/>
<path opacity=".99" d="m270.06,510.41a25.332,5.5456 0 0,1 -1.91,.65l-20.28-3.33z"/>
<path opacity=".99" d="m288.17,493.92a13.05,10.013 0 0,1 -.99,1.17l-10.45-6z"/>
<path opacity=".99" d="m224.97,503.12a10.133,16.637 0 0,1 -.77,1.95l-8.11-9.97z"/>
<path opacity=".99" d="m208.62,500.51a8.2903,16.329 0 0,1 -.63,1.91l-6.64-9.78z"/>
<path opacity=".99" d="m218.41,503.83a13.51,15.866 0 0,1 -1.02,1.86l-10.82-9.51z"/>
<path opacity=".99" d="m248.9,512.04a12.743,13.094 0 0,1 -.96,1.54l-10.2-7.85z"/>
<path opacity=".99" d="m268.8,513.49a10.747,13.864 0 0,1 -.81,1.63l-8.6-8.31z"/>
<path opacity=".99" d="m264.27,503.57a7.6762,13.402 0 0,1 -.58,1.56l-6.15-8.03z"/>
</g>
<g fill="#fff7de" transform="matrix(.11782 0 0 .16422 -9.17 -29.85)">
<path opacity=".99" d="m279.67,498.56a17.195,8.7805 0 0,1 -1.3,1.03l-13.76-5.26z"/>
<path opacity=".99" d="m233.75,474.96a16.12,6.1617 0 0,1 -1.22,.73l-12.91-3.7z"/>
<path opacity=".99" d="m250.15,466.09a15.045,7.24 0 0,1 -1.13,.85l-12.05-4.34z"/>
<path opacity=".99" d="m293.73,468.06a12.743,8.7805 0 0,1 -.96,1.03l-10.2-5.26z"/>
<path opacity=".99" d="m293.35,463.83a13.357,12.786 0 0,1 -1.01,1.5l-10.69-7.66z"/>
<path opacity=".99" d="m262.39,463.84a32.701,8.0103 0 0,1 -2.47,.94l-26.17-4.8z"/>
<path opacity=".99" d="m288.26,467.27a9.8256,14.48 0 0,1 -.74,1.69l-7.87-8.67z"/>
<path opacity=".99" d="m299.78,475.75a18.423,18.331 0 0,1 -1.39,2.15l-14.75-10.99z"/>
</g>
</g>
<g fill-opacity=".861">
<g fill="#fff7de" transform="matrix(.11782 0 0 .16422 -9.17 -29.85)">
<path opacity=".99" d="m249.48,469.11a17.962,6.1617 0 0,1 -1.35,.72l-14.38-3.69z"/>
<path opacity=".99" d="m274.17,462.78a24.41,20.18 0 0,1 -1.84,2.36l-19.55-12.09z"/>
<path opacity=".99" d="m309.76,470.25a14.738,11.707 0 0,1 -1.12,1.37l-11.79-7.02z"/>
<path opacity=".99" d="m269.39,476.81a20.879,10.937 0 0,1 -1.58,1.28l-16.71-6.56z"/>
<path opacity=".99" d="m232.28,459.63a8.1368,2.4647 0 0,1 -.62,.28l-6.51-1.47z"/>
<path opacity=".99" d="m288.63,468.36a16.734,18.331 0 0,1 -1.26,2.14l-13.4-10.98z"/>
<path opacity=".99" d="m290.42,470.65a4.7593,19.255 0 0,1 -.36,2.25l-3.81-11.54z"/>
</g>
<g fill="#ffe286" transform="matrix(.11782 0 0 .16422 -9.17 -29.85)">
<path filter="url(#filter5416)" d="m536.9,480c-2.63-8.97-12.25-17.18-24.56-20.64-9.12-2.56-20.51-1.05-29.17,.62-3.68,.71-7.18,2.77-12.9,2.77-7.77,0-5.76,1.57-9.52,3.7-4.12,2.34 17.7,12.85 18.43,13.25 7.46,4.03 14.7,2.52 22.72,8.01 6.49,4.44 8.32,4.69 15.66,2.77 10.31-2.7 9.37-3.85 17.81,8.32 3.89,5.62 14.12,7.27 20.26,9.24 6.23,2 4.24-9.96 3.99-13.25-.53-7.24-10.23-17.05-14.74-21.56-1.91-1.92-17.75,19.16-2.14-.62"/>
<path filter="url(#filter5446)" d="m552.25,677.49c-17.4-17.47 22.02,23.93 29.79,33.89 8.04,10.31 9.99,17.29 22.41,18.79 5.68,.68 11.22,1.67 16.28,2.77 5.86,1.28 .22-25.77-.62-28.65-2.69-9.27-.59-20.29-3.07-29.88-1.36-5.27-.96-11.34-1.84-16.64-1.34-8.07-5.22-12.74-5.22-21.87 0-4.98 .61-9.77 .61-14.79 0-9.42-8.66,9.93-11.36,14.17-3.29,5.16-4.07,20.94-4.91,27.42-.66,5.1-9.02,5.01-13.2,8.01-6.16,4.41-.97,8.14-11.67,10.47-2.87,.63-6.03-1.21-7.68-1.54"/>
<path d="m350.52,458.13c-2.36,.51 17.7,20.47 38.69,30.5 9.15,4.37 20.23-6.65 25.49-11.4 5.64-5.1 11.12-4.35 18.73-4.62 6.39-.23-4.35-15.4-4.61-15.71-6.28-7.49-25.74-1.4-34.08,0-11.27,1.88-15.38-.8-21.8-8.94-5.71-7.23-1.71-8.05-11.06-4.93-3.53,1.18-10.51,13.96-11.36,15.1z"/>
<path d="m344.69,556.1c-13.39,4.48-21.62-4.53-31.93,6.47-7.74,8.25 4.11,13.99-11.06,16.64-9.45,1.65-7.25,4.97-5.83,13.25 1.99,11.59 18.37,3.62 21.49,.3 5.03-5.34 3.67-12.34 9.83-17.87 5.37-4.82 7.78-7.35 13.81-9.55 3.18-1.16 11.26-.78 13.82-1.23 7.05-1.23 11.02-11.23 12.9-16.33 1.23-3.33 10.14-4.49 12.89-5.23 3.02-.82 4.89-12.95 5.53-15.41 2.63-10.12 1.78-3.45-3.68-8.63-5.54-5.24-12.2,10.21-13.51,12.33-5.31,8.51-11.38,11.08-12.9,20.64-.95,5.94-4.49,5.15-11.36,4.62z"/>
</g>
<g fill="#ba3b00" transform="matrix(.11782 0 0 .16422 -9.17 -29.85)">
<path d="m341.31,646.68l7.98,6.78c10,8.49 20.99,15.61 32.24,21.25 10.18,5.11 24.35,8.09 35.32,12.02 8.49,3.04 16.74,8.33 24.25,12.63 8.43,4.83 13.13,6.28 22.11,8.63 7.88,2.06 5.83-.74 6.14-8.63 .31-7.84-23.81-8.75-30.4-10.47-10.49-2.75-20.93-3.85-31.01-6.47-5.83-1.52-12.16-7.07-18.12-9.55-6.41-2.68-13-9.3-17.8-13.87-1.76-1.66-13.64-1.6-16.58-2.46-8.73-2.55-17.54-12.4-23.65-16.95-.7-.52 .24-2.67 .31-3.39"/>
<path d="m496.06,728.63c-7.4-5.51 18.41,1.85 27.64,1.85 4.91,0 15.96,9.85 19.04,12.32 6.57,5.28 14.34,6.19 22.41,5.86 .29-.02 6.66-6.18 7.37-6.78 5.05-4.27 12,9.74 13.51,12.63 1.19,2.29 9.01,5.99 11.05,7.7 4.06,3.4-21.45-2.89-23.95-3.7-9.68-3.1-13.99-7.25-14.73-16.63-.29-3.61-.69-3.42-1.23-6.16"/>
<path d="m605.37,663.62c-.42-5.34 2.23,10.87 5.53,15.1 2.42,3.1 2.72-8.71 2.76-9.86 .15-3.49-.64-7.92-.3-12.32 .12-1.62 0-3.3 0-4.93"/>
</g>
</g>
</g>
<g transform="matrix(.11782 0 0 .16422 -9.17 -29.85)">
<path fill="none" stroke="#000" d="m480.1,436.87z"/>
</g>
<g fill-rule="evenodd">
<g fill="#ff9f06" fill-opacity=".861" transform="matrix(.11782 0 0 .16422 -9.17 -29.85)">
<path filter="url(#filter5492)" d="m497.29,442.42c.37-4.8 9.62,.2 14.43,.31 3.95,.08 3.06-5.48 3.69-8.63 .95-4.8-2.47-6.48-4.3-9.24-2.19-3.3-11.16-1.85-14.43-1.85-4.54,0-8.21,.56-12.59,.92-3.08,.26-6.92,1.54-10.75,1.54-1.97,0-.66,6.21-.61,7.4 .12,2.95 10.17,.06 10.75,0 3.3-.37 8.84-.93 13.2-.93 1.05,0 6.95-1.82 8.29-2.15 2.83-.72 8.44,1 11.36,1.23"/>
<path filter="url(#filter5518)" d="m394.43,472.92c8.78-2.21 17.92,5.95 24.56,11.71 5.52,4.78 13.91,2.2 19.35,1.23 7.34-1.32-4.16-12.97-5.53-13.87-6.13-3.99-17.96-1.1-24.56,0-6.34,1.06-5.59,1.92-13.82,.93z"/>
</g>
<g transform="matrix(.11782 0 0 .16422 -9.17 -29.85)">
<path fill="#ffc362" filter="url(#filter5536)" fill-opacity=".627" d="m412.07,197.62c-8.99-4.8-20.82-3.81-31.72-3.81-7.82,0-18.09,5.02-26.21,6.23-11.08,1.65-20.13,2.25-29.99,7.61-9.15,4.97-18.37,8.29-27.59,13.84-8.54,5.14-20.62,7.71-29.65,11.07-7.7,2.86-15.39,9.87-22.06,14.53-6.97,4.86-6.65,10.14-15.17,13.49-11.53,4.52-17.17-.42-27.59,10.03-6.6,6.63-8.9,9.33-12.06,16.26-1.61,3.52 .63,10.44 1.03,13.49 .72,5.56 18.6,5.53 21.72,5.88 20.49,2.29 32.63-11.47 50-18.68 15.49-6.43 11.73-15.96 30.34-16.6 13.21-.46 24.84-4.56 37.23-9 13.61-4.88 27.03-10.15 40.69-15.22 10.06-3.74 20.66-6.97 30.68-8.65 5.03-.84 10.38-.93 15.17-1.73 6.74-1.12 10.43-4.54 15.52-7.61 6.05-3.64 6.74-7.09 8.96-12.8 1.71-4.38-12.33-13.59-15.17-16.6-2.18-2.33-13.94-1.73-14.13-1.73z"/>
</g>
<g fill="#b22b00" transform="matrix(.11782 0 0 .16422 -9.17 -29.85)">
<path fill-opacity=".734" d="m158.42,330.81c-.05,.91 .17,5.86-.34,5.88-2.16,.07-16.89,.71-16.21,4.15 3.18,15.95-9.67-3.47-17.23,11.07-3.88,7.46-6.87,13.55-7.24,22.48-.35,8.39-.62,16.91 .34,25.26 1.28,11.16 4.77,21.63 7.59,32.52 3.3,12.79 2.46,27.42 6.89,39.78 2.41,6.73 7.62,35 15.86,36.33 5.64,.9 10.39,3.55 13.79-2.43 3.59-6.29 7.6-19.53 1.38-27.33-4.8-6.01-11.91-13.24-15.51-21.44-6.73-15.34-15.57-34.4-18.62-51.55-3.54-19.87-5.1-47 14.48-56.04 11.75-.42 28.28-33.93 33.44,1.03 2.18,14.72 12.98,11.06 21.03,2.08 7.35-8.19 26.19-12.93 35.86-17.99 11.24-5.88 8.87,2.24 15.17-8.3 8.28-13.85 12.98,.07 16.21,11.41 6.12,21.51-34.47,13.15-46.89,13.15-11.71,0-8.96,10.64-10,18.68-1.8,13.86-28.47-8.58-41.72-4.15-6.2,2.07-5.55,4.66-23.45-2.08-8.85-3.33-8.65-4.29-11.72-11.07"/>
<path fill-opacity=".516" d="m351.82,204.61c-.72,0-.72,0 0,0 22.83,0-42.34,17.21-64.13,24-11.71,3.64-23.47,5.75-35.33,8.73-11.15,2.79-20.44,4.65-30.99,8.18-10.81,3.61-21.69,5.44-32.61,8.18-8.34,2.09-12.97,6.6-19.56,10.9-7.98,5.2-14.79,9.39-23.92,14.18-8.43,4.43-11.22,6.44-19.02,13.09-10.2,8.7 0,7.45 0,14.18 0,9.47 39.06-2.91 41.3-3.82 16.78-6.73 31.77-13.07 46.75-21.27 12.66-6.92 21.7-15.1 35.87-20.17 11.11-3.98 19.01-9.05 30.98-11.46 9.77-1.96 22.26-11.48 32.07-15.27 8.3-3.2 16.09-8.77 21.74-13.09 10.56-8.07 .65,3.96 16.85-16.36"/>
<path fill-opacity=".832" d="m126.26,283.69c0-16.32-15.9,29.12-27.725,40.36-6.665,6.34-9.057,20.46-11.414,28.9-2.698,9.67-4.984,19.3-7.066,28.91-2.145,9.9-.544,21.97-.544,32.18 0,16.57-3.928,24.59 2.718,39.26 4.931,10.89 10.786,17.37 19.021,25.64 6.1,6.12 10.12,12.7 16.31,18.54 4.2,3.96 9.34,8.43 11.96,10.91 9.87,9.35 9.01-5.08 11.41-7.64 4.92-5.24-10.07-32.49-12.5-38.72-4.95-12.71-8.13-23.32-10.33-36-2.48-14.33-5.43-26.08-5.43-40.9v-56.17c0-9.6 3.38-16.68 6.52-24.54 4.03-10.11 13.73-25.47 20.11-30 4.31-3.06-.9-3.62-1.09-4.36"/>
</g>
</g>
</svg>
