<svg xmlns="http://www.w3.org/2000/svg" viewBox="0 0 731.2 529.14">
<g transform="translate(-237.83 -260.18)">
<path d="m245.84,785.58c-13.68-20.467-1.6453-51.263-7.4096-75.853 .4477-33.663 1.0155-70.692-.543-102.21 .6576-15.559-4.1868-45.486 16.583-55.669 13.25-7.3117 36.239-31.189 53.62-43.816 22.725-16.722 41.161-48.367 73.371-41.746 24.761,4.7435 43.441-2.1914 17.445-22.567-24.825-30.805-50.85-62.864-76.339-94.086 1.3377-20.044-9.285-41.831 1.738-60.115 16.063-8.6044 25.441-34.432 46.625-28.458 34.67-5.4231 50.561,27.889 67.048,51.469 11.798,31.749 47.796-21.404 69.956,6.7746 25.075,35.625 49.819,71.719 78.245,104.69 16.24,21.182 24.985,54.987 58.572,45.211 100.9-.3374 201.85,2.1397 302.72,.4297 34.813-5.5066 13.957,37.687 20.352,57.757-1.1399,44.912 3.5,89.838-.3565,134.68-7.5837,18.19-18.893,32.59-27.94,50.052-8.7888,20.28-24.264,35.202-32.906,55.04-7.211,15.889-21.318,27.536-42.325,19.591-24.942,1.0742-55.952,.3556-83.107,.8217-84.229-.1068-168.26-2.6557-252.43-1.5513-38.724-.5916-77.476-1.6394-116.68-.2007-40.782-.695-81.39,.5915-122.19-.8869-14.777-.7313-29.426,1.0623-44.049,.6451zm14.255-18.524c69.821-2.8346 140.14,2.1779 210.17,1.1912 78.852,.6582 159.35,.7546 237.1,4.7619 25.508-1.9105 29.06,2.6716 54.649-.9093 32.902,.8177 65.868-1.2173 98.71,.8295 4.625,1.4355 45.3-.9038 23.69-7.1518-37.067-.5304-74.187,.1615-111.21-1.7668 29.514-4.1848 61.696-1.2494 91.802-1.421 16.435,4.5548 39.935-8.2431 10.301-7.363-73.309-1.1481-146.13-1.076-219.24-2.6394 24.216-4.576 55.462-.5307 82.281-1.4877 50.548,.2302 101.24,1.7209 151.7-.2291-8.4515-7.9433 14.086-36.189-15.419-30.286-119.28-.9288-238.58-1.1175-357.84-3.7155-25.285-1.8433 27.84-3.4417 37.364-1.9046 31.297-1.7159 63.378,2.2726 95.517,.9162 26.491,2.2239 54.641-1.2471 82.386,.3732 50.489,.8094 100.98,1.094 151.46,1.6535 25.263-6.954-30.913-12.14-41.796-9.0045-10.568,2.1979-37.889-1.9002-11.47-3.1058 17.646-3.7676 51.509,7.5424 59.253-6.0782-29.456-3.6513-61.001-.6332-90.17-2.9632 29.986-5.1963 60.976,2.0616 90.71-3.3441 17.022-19.467-35.52-19.211-6.5923-21.106 19.427-12.83-31.329-8.5212-40.795-9.3478-29.292-1.0138-57.247,3.778-85.332-2.1912 42.573-2.3462 85.547,.7436 128.17-1.0582 26.387-22.715-28.827-20.414-22.906-23.967 15.967,8.4392 40.105-8.1705 11.053-9.561-15.507-3.9937-27.927,2.2496-20.358,12.589-19.672-1.5349-15.793,2.7119-9.8592-10.573-15.808-3.7662-53.434-4.2357-16.064-4.6955 16.921-7.0974 69.508,14.365 61.796-12.644-7.4552-25.552-52.855-6.3594-74.953-12.957-28.732-3.2213 25.089-2.2102 33.46-2.1715 11.162,.6106 58.104,3.8574 34.889-13.033-69.862-3.566-139.93-2.041-209.81-4.5121-25.587,.1571-58.744,.2601-87.213-.455-54.975-2.1696-109.99,.7438-164.94-1.2595-18.901-.2477-47.49-.574-70.197,.1436-18.574-3.1279-40.056-1.1202-61.243-1.0132-13.718-4.9532-58.208,5.3559-23.681,11.616 12.274-.6516-30.787,4.7269-8.4197,15.05 58.743,2.5965 117.71,1.1288 176.39,3.6803-19.109,5.353-53.199-.025-78.187,.9264-33.866-.1843-67.825-2.5018-101.64-.8094-2.3502,22.283-3.6221,51.684 1.6872,70.903 12.66-.7554 46.184,3.5816 14.4,3.5616-22.217-5.7591-18.751,14.449 .0455,8.2456 12.014-1.828 46.563,3.0492 15.407,3.271-16.388-4.7432-47.797,1.2184-27.069,19.526 45.946,1.8836 93.118-.6376 138.31,3.2528-45.923,3.0149-92.271-.9756-138.22,.9675-10.749,10.316-.6169,23.638-.997,28.489 72.795,4.2059 145.88,1.4728 218.66,5.1552-48.327,3.6009-97.538-2.2318-146.03,.4901-24.624-.7293-49.382-1.2336-74.065-1.9601 7.3623,18.638 50.433,2.8268 70.111,8.9998 12.342-.3573 64.463,2.1709 25.717,3.5675-32.024,1.6497-64.832-4.076-96.34,.811-1.9035,3.7523-.0461,10.122 4.8469,5.7151zm243.54-3.8354c-8.2898-4.5789-42.71-.7241-13.574-3.8106 13.529,2.0893 50.705-4.5928 51.461,3.5364-12.67-1.0046-25.93,.5678-37.888,.2742zm-102.07-1.7951c-39.031-4.5286 18.619-2.8008 29.036-2.9547 9.6402-.4983 66.084,.8256 29.149,3.4096-19.4,.1897-38.799-1.1123-58.186-.455zm-30.626-2.3318c14.398-4.0378 19.606,5.4458 0,0zm184.19,3.2065c-16.371,3.3876 10.633-15.913-12.329-10.638-24.181-4.4496 29.629-1.5178 36.13-2.1356 14.942-1.3498 42.775,2.5799 11.992,2.5188-11.289-3.3057-52.365,2.3975-20.553,7.6603 18.23,1.4037 66.526-1.7389 66.789,3.6174-27.334-.008-54.744-.0809-82.029-1.0229zm88.538,.5759c25.107-3.6933 58.411-2.2218 83.597,.8555-27.648,1.4441-55.443-.283-83.105,.7415l-.4922-1.597zm87.002,.6134c12.133-6.5594 13.928,5.3786 0,0zm18.002,.036c15.857-6.1203 28.533,4.7568 3.0836,.687l-3.0836-.687zm-262.82-13.81c8.8019-5.5728 11.022,4.9637 0,0zm16.735,1.0383c-12.47-7.4414 40.474,2.1215 4.2746,.3749l-4.2746-.3749zm22.393,.2103c1.6226-6.4197 13.159,2.5203 0,0zm90.844,1.5523c-10.095-6.3339 40.131,1.176 4.9206,.2609l-4.9206-.2609zm-138.96-3.4478c10.626-3.5481 10.504,3.8932 0,0zm159.98,2.6121c6.9306-3.9146 17.388,4.4091 0,0zm-376.57-13.82c4.2495-8.2254 37.887,2.8855 6.7479,.186l-6.7479-.186zm25.27,.2724c7.6027-7.932 67.646,2.6706 22.997,.6485-7.6662-.0954-15.354,.0746-22.997-.6485zm46.22,.8795c13.972-6.453 62.364-.2237 88.059-1.7605 37.46,.9271 74.974,.005 112.4,1.8357-23.187,4.7225-55.127,.6959-81.747,1.1339-35.185-1.9556-71.091,.8479-106.91-1.2884l-5.6634,.1739-6.1442-.0943v-.0004zm210.9,2.1258c-23.798-5.2011 54.31-1.9263 13.532,.5969l-7.1666-.0643-6.365-.5326zm51.349,.0483c15.945-3.2992 15.829,2.7561 0,0zm22.5,.162c-18.135-3.0926 62.764-1.1327 16.573,.559-5.5281-.0211-11.058-.1713-16.573-.559zm70.485,1.4754c-32.52-5.4378 53.474-2.3708 11.013-.0272-3.6663,.1796-7.3476,.4419-11.013,.0272zm-35.474-1.9038c1.2689-3.6359 2.4078,3.6021 0,0zm2.5006-.0182c10.726-5.7378 16.133,5.2272 0,0zm14.997,.3204c3.2991-5.3758 12.019,4.6137 0,0zm44.013-.048c9.4582-5.3154 13.497,5.6538 0,0zm9.9832,.7364c14.598-2.9114 14.495,3.7678 0,0zm-461.61-15.23c-2.3675-8.7052 71.596,.0392 28.783,.4299-9.5667,.2076-19.095-1.3363-28.783-.4299zm127.51,2.3332c-26.898-2.6047-55.416,.6691-81.488-3.5291 36.127-3.6448 72.691,1.8952 109.03-.1376 46.894,2.1108 94.222-.9256 141.1,2.2663 26.424,1.1962 56.21-1.1271 83.833,1.603-20.418,4.3411-52.613-3.6272-76.039,2.7217-28.606-2.6285-58.029-3.6692-86.343-2.8273-30.041,.0768-60.076-1.7403-90.092-.097zm320.56,2.827c-11.448-1.3441-39.233-3.1982-10.669-3.4835 39.573,.9521 80.236-.2786 120.35,2.2419-16.563,3.7204-56.968,.5441-83.081,1.2343-8.844-1.0134-18.05,1.6484-26.605,.007zm-54.025-1.6171c-4.1946-6.7603 14.854,1.8917 0,0zm13.239-.3332c1.0879-7.6134 21.658,4.4395 0,0zm-20.964-1.0422c5.2492-3.4764 2.1368,3.6574 0,0zm15.498,.253c2.6132-3.5453 2.496,3.6287 0,0zm162.88,2.5955c6.3869-5.5662 50.321,.7023 15.089,.6562-5.0317-.078-10.093,.1138-15.089-.6562zm40.843,.9758c-26.506-3.952 37.388-3.4657 11.988,.1483l-6.0437,.0435-5.9442-.1918zm-381.54-16.48c18.103-3.9023 25.153,1.5502 2.3939,.8921l-2.3939-.8921zm-213.86-12.518c-33.721-2.7551 31.04-5.2047 41.069-1.8064-12.14,3.7792-27.883-.1918-41.069,1.8064zm96.617,.8546c-12.779,.2562-43.891-2.1165-13.08-3.2687 16.865-1.1366 53.171,3.1319 16.725,3.5173l-3.6452-.2487zm24.443-1.4878c13.33-4.5015 42.17,2.7739 11.729,1.3541-3.7329-.8811-8.3371,1.213-11.729-1.3541zm31.299,1.0381c16.461-3.6886 55.62-1.8577 71.802,.4563-23.898,.7572-47.924,.7665-71.802-.4563zm78.192,.3845c4.6102-3.647 7.1939,3.7806 0,0zm7.9989,.1306c5.2492-3.4764 2.1368,3.6574 0,0zm6.0932,.2557c5.0001-6.0676 13.435,3.4112 0,0zm112.92,1.813c45.799-3.1482 92.229-1.4355 138.05-.4021-22.138,5.2255-55.432-.3304-81.58,1.1251-18.808-.6195-37.731,.5197-56.467-.723zm-101.5-2.8142c3.9568-3.1964 3.9785,1.8403 0,0zm240.98,3.4659c2.565-5.2278 2.393,5.3087 0,0zm2.9991,.0816c10.616-5.4235 67.27,1.4162 26.925,1.197-8.7152-.6247-18.782,1.5667-26.925-1.197zm-441.95-14.206c-15.143-.8637-34.699-4.2716-7.4097-3.7688 15.633-.684 42.54,2.5315 11.026,3.796l-3.616-.0272zm107.58,1.2816c-14.675-1.0266-53.135-2.5402-16.152-3.8332 12.887-.7244 58.869,.437 20.182,4.3426l-4.03-.5094v.0001zm22.569-1.7007c1.2689-3.6359 2.4078,3.6021 0,0zm2.9996,.049c14.756-6.5571 21.94,6.4583 0,0zm16.536,.3327c27.514-4.1676 60.711-.0842 90.346-.9264 20.84,1.3487 60.667-1.3434 70.644,2.9204-53.649-.1608-107.38-.0899-160.99-1.994zm165.46,1.6236c11.776-3.2446 61.423,.5562 25.797,1.1351-8.5867-.2206-17.301,.3908-25.797-1.1351zm141.98,2.3333c15.359-4.8905-.5552,3.5776 0,0zm-98.97-2.6161c11.953-3.5293 11.832,3.9176 0,0zm-397.83-14.47c-1.5738-5.3967 58.532,.4114 19.235,.8206-6.416-.1341-12.84-.2285-19.235-.8206zm36.994,.7633c4.0979-5.0404 52.371,.7362 18.747,.5563-6.2495-.1184-12.51-.0853-18.747-.5563zm38.192,.6902c12.616-3.5424 52.763-2.8164 61.214,.5626-20.393-.1-40.84-.053-61.214-.5626zm158.8,1.4544c9.9461-6.0435 52.866,1.0462 74.887-1.6345 20.898,3.6404-34.457,2.3017-43.169,1.9966-10.571-.405-21.175,.4427-31.718-.362zm118.59,2.1146c-14.355,.2706-44.176-2.6386-13.938-3.0582 10.969,.3872 54.854-.9149 44.75,2.9195-10.259,.2803-20.557,.7974-30.812,.1388zm-206.83-4.3065c6.6932-1.715 1.1728,1.8367 0,0zm248.78,3.787c4.1803-7.4337 13.539,6.7325 0,0zm11.184-.0113c15.65-4.0093 53.228,1.7196 15.306,1.1649-5.0992-.2999-10.297,.0859-15.306-1.1649zm44.012,1.1843c2.4867-6.1296 66.618,.3515 24.567-.1066-8.1909-.2985-16.386,.5621-24.567,.1066zm63.742,1.0115c-22.419-4.4134 29.858-2.3329 39.643-2.5196 23.508,4.5314-36.725,1.4682-39.643,2.5196zm-70.969-2.4705c5.2492-3.4764 2.1368,3.6574 0,0zm50.496,.6723c9.8039-3.0103 7.5542,3.5443 0,0zm74.004,.6104c12.255-3.6602 33.693,1.2869 10.68,1.6138-3.3996-.3972-7.7552,.8702-10.68-1.6138zm-595.68-16.87c7.4723-5.2636 54.728,.2893 19.486,.0586-6.4539-.4264-13.118,1.2418-19.486-.0586zm36.904-1.0405c44.236-3.1129 89.818,1.0982 134.58,.6481 21.365,1.0961 59.266-1.1908 70.899,2.3785-67.567,.3168-135.18-.4846-202.72-2.2415l-2.754-.785zm209.98,3.0012c14.532-5.409 54.178,2.4885 15.352,.9997-5.1191-.2324-10.287-.0549-15.352-.9997zm68.344,.8429c25.245-4.1641 54.025,.4892 80.536-.699 20.174,.7934 54.663-.2461 66.288,2.4139-48.908,1.0177-98.007-.2741-146.82-1.7149zm150.64,1.6423c17.255-5.678 26.524,4.2124 2.1713,.6101l-2.1713-.6101zm26.742,.6916c-1.0744-5.7397 64.003-.1621 20.054,.3959-6.6819,.0001-13.389,.188-20.054-.3959zm39.266-.6547c11.183-4.7842 25.998,4.674 0,0zm14.994,.4617c12.761-6.4176 17.315,5.2591 0,0zm14.005-.1284c8.0314-4.2308 14.925,5.4713 0,0zm10.994,.4323c10.967-5.8207 42.028,1.3887 12.902,.8369-4.3017-.1589-8.6652,.1266-12.902-.8369zm28.013-.5455c3.9623-3.5889 3.843,3.7164 0,0zm-595.76-17.6c11.876-6.0645 35.86,2.5714 9.581,1.0067l-6.6784-.361-2.9026-.6457zm65.992,1.0066c14.462-2.8626 73.782-2.1913 64.442,.9753-21.471-.1034-43.02,.5192-64.442-.9753zm71.238,1.3454c17.33-5.416 57.341,.6515 83.121-1.2845 25.783,1.3102 75.035-2.1601 86.375,2.9574-56.472,.359-113.02-.8058-169.5-1.673zm176.76,.957c7.3264-4.843 10.655,3.9921 0,0zm57.327,1.3869c14.298-3.7565 17.311,2.9067 0,0zm51.146,1.1516c-17.175-3.7078 28.724-2.9377 5.3292,.3941l-5.3292-.3941zm-31.478-1.5806c8.3953-3.4474-1.0615,3.9982 0,0zm6.9991,.1143c5.3023-3.5986 5.182,3.7698 0,0zm5.9992,.098c16.291-4.0293 10.566,3.6975 0,0zm32.996,.5387c1.59-3.6822 16.017,3.3513 0,0zm11.998,.1959c13.349-3.9186 25.361,4.7512 0,0zm20.251,.0806c7.0199-6.0966 2.6386,5.577 0,0zm6.7489,.1518c15.623-4.4121 19.24,3.6029 0,0zm-477.81-16.63c-13.928-2.566 16.807-9.496 21.14-2.6876 13.358-1.4544 28.992,3.826 5.6161,2.72-8.852-1.188-18.31,.6559-26.756-.0323zm45.24-.8605c8.4605-6.1632 25.562,6.4793 0,0zm14.775,.4102c10.964-5.5276 38.671,3.0259 10.225,1.6144-3.1716-.9816-7.5332,1.1711-10.225-1.6144zm126.97,2.6425c9.7402-7.2219 5.6087,4.5554 0,0zm16.993,.5818c-18.21-6.392 29.826-2.6586 39.636-2.8705 67.399,1.5637 135.3,1.5894 202.38,3.6981-40.167,2.5255-81.748,.8085-122.46,.506-39.909-1.0961-79.748-1.1112-119.56-1.3336zm305,2.4759c10.307-4.8827 15.24,3.8802 0,0zm14.507,.3455c10.383-5.9021 33.074,2.6881 7.3128,.901l-4.9942-.3367-2.3186-.5643zm32.158,.6842c8.4346-4.1149 48.187-2.6602 54.618,.0571-18.174,.9028-36.436,.5223-54.618-.0571zm-558.14-19.37c8.7712-5.1195 74.917,.4361 28.509,.8646-9.4949-.1505-19.055,.1092-28.509-.8646zm65.187,1.1335c-4.0053-5.0109 56.91,.4474 14.699,.4676-4.9014-.0725-9.8082-.0829-14.699-.4676zm38.741,.8773c-7.7081-6.1574 48.968-2.1735 62.178-.1793-20.69,1.6654-41.481-.7743-62.178,.1793zm-53.944-2.3756c10.364-4.1808 12.104,5.5666 0,0zm183.72,3.2628c10.941-7.2531 57.481,1.4769 18.556,.6893-6.1814-.0307-12.435,.4328-18.556-.6893zm41.981,.2314c2.3894-3.3962 2.8487,1.9523 0,0zm3.0065-.3731c39.927-3.4828 81.263,.3709 121.72,.9836 4.8663,1.9941-37.82,.6159-50.34,.7789-23.788-.4783-47.634-.187-71.379-1.7625zm130.64,1.4852c12.448-4.2782 63.564,.8092 23.168,1.7174-7.3984-.8556-16.507,1.2541-23.168-1.7174zm43.696,.4838c18.439-1.9553 57.437-1.4286 71.602,.8603-23.763,.2119-48.037,1.8298-71.602-.8603zm76.652,1.0817c12.564-5.4743 66.38,1.562 25.553,1.2639-8.5156-.2612-17.104,.0201-25.553-1.2639zm-533.27-18.77c10.19-3.8889 57.958-2.443 55.457,.2329-18.437,.1963-37.143,.5663-55.457-.2329zm95.14,1.8723c23.733-6.2854 58.558-.5144 86.374-1.6706 38.674,3.0957-31.409,2.5273-43.48,1.7191-14.192-.3829-29.196-.3126-42.895-.0485zm-29.79-2.0672c14.041-5.0229 17.855,4.9749 0,0zm15.146,.5536c10.891-5.7447 16.039,4.8957 0,0zm119.64,1.6598c9.4172-3.8718 27.241,2.007 3.4126,.6923l-3.4126-.6923zm19.583,.9124c7.0752-3.8078 55.256-2.7698 51.998,.3683-17.32,.3249-34.699,.563-51.998-.3683zm137.48,2.1716c-26.343-4.2392 27.293-1.8885 34.616-2.2121 45.616,.6379 91.256,.6253 136.86,1.6002-17.871,4.5293-53.287,.3343-77.886,1.9039-31.243,.173-62.456-1.2409-93.588-1.292zm178.99,1.9214c-3.2484-7.4758 27.032,2.3493 0,0zm-355.26-16.85c-3.1199-8.7454 27.108,2.4438 0,0zm16.153-1.1566c14.132-3.1792 53.14,.4184 17.801,.8735-5.9353-.145-11.916,.1188-17.801-.8735zm41.295,.6693c11.941-5.4344 73.408,1.1596 28.61,.9789-9.5304-.2077-19.124,.0485-28.61-.9789zm125.38,2.2437c-13.947-1.4316-50.37,.1185-50.881-2.8626 25.858,.348 54.841-.109 77.751,2.3385-8.923,.5993-17.923,1.1651-26.87,.5241zm-73.061-2.078c8.1046-7.2139 15.005,4.5497 0,0zm11.999,.1879c4.2883-5.0844 7.0988,3.0666 0,0zm134.98,2.2587c16.173-4.5393 59.859,1.6 20.497,.9872-6.8351-.1424-13.723,.1428-20.497-.9872zm45.742,.8568c3.5284-4.6205 56.195-1.7337 46.757,.7332-15.585-.0584-31.185-.0793-46.757-.7332zm55.493,.8579c16.029-4.5903 53.89-1.2371 78.14-2.1799 15.253,6.0109-29.518,1.991-38.38,2.6184-13.251-.2095-26.52,.2705-39.759-.4384zm-518.28-22.92c-3.8265-4.0694 50.84-1.2646 44.525,.1772-14.799,.074-29.788,1.2904-44.525-.1772zm169.36,3.158c-13.543,.0772-63.516-2.8867-22.237-3.4708 9.6706-2.8573 62.007,3.1679 22.237,3.4708zm-91.508-2.7452c-11.646-2.3629 57.166-.8489 42.126,.9506-14.04,.1811-28.125,.2174-42.126-.9506zm110.9,1.7674c13.114-4.5542 69.475,2.0957 25.354,.8682-8.4516-.148-16.937,.0413-25.354-.8682zm54.074,1.0862c-11.365-3.7553 26.197-.252 6.6854,.4825l-6.6854-.4825zm17.864,.001c5.651-3.7039 15.611,2.734 0,0zm12.631,.5197c17.73-3.6856 66.599-1.7465 79.492,1.1692-26.497-.4194-53.029-.6353-79.492-1.1692zm83.988,1.398c10.709-7.3527 17.509,4.9464 0,0zm15.008-.3675c34.204-1.6751 68.735-.1687 102.99,1.3388-34.087,1.2676-68.973,1.008-102.99-1.3388zm111.98,2.421c-19.688-4.1942 46.081-.1163 6.8415,.4314l-6.8415-.4314zm-429.68-7.8019c7.7699-1.4296 1.4605,1.6325 0,0zm9.4792,.1882c6.6932-1.715 1.1728,1.8367 0,0zm442.29,7.4617c18.748-2.9814 20.38,2.6031 0,0zm76.993,179.7c-2.2442-3.5062-3.7075,3.7882 0,0zm45.426-25.703c-2.7134-7.8056-2.4525,5.8771 0,0zm-7.5329-20.685c-.6068-5.4769-7.7647,6.9188 0,0zm2.0498-11.027c-2.5997-3.5808-2.0602,5.3253 0,0zm6.0309-1.8428c-2.496-3.6287-2.6132,3.5452 0,0zm18.998,.2512c-2.8487-1.9524-2.3895,3.3962 0,0zm-7.8755-11.571c5.4601-12.926 5.2273-29.275-1.5519-5.6702-4.9152,5.2647 .8118,20.378 1.5519,5.6702zm9.9395,7.6633c.3987-11.184-1.1246-16.228-5.5753,.5946 2.3857-1.3946 5.2619,3.7758 5.5753-.5946zm-25.82-11.256c-3.1446-6.1344-3.3432,6.0285 0,0zm-.8901-6.7411c-2.8488-1.9523-2.3894,3.3962 0,0zm2.2456-9.5367c-15.356,2.6227 4.1825,4.0377 1.5585,4.8029l-.1254-2.6341-1.4332-2.1688zm40.535-.9364c-1.7713,1.8085 1.074,3.6995 0,0zm-30.572-.7936c12.153,3.4323-.8367-15.626 7.3181-28.163-7.6178,7.074-5.8682,19.316-9.578,28.765-6.243-5.1901 .1012,6.4178 2.2599-.6019zm-12.83-4.9821c-1.5447-16.38-9.6136,8.1444 0,0zm46.859,2.0922c-2.2545-3.8251-3.9862,4.7832 0,0zm-21.439-2.9533c1.5952-12.127-5.6634,10.98 0,0zm14.465,1.2764c-5.6352-7.0608-8.7561,5.1756 0,0zm-10.39-9.69c8.0608-20.482-11.333-7.0688-3.9361,.7379l1.3991,2.5717 2.537-3.3096zm19.947,1.2247c1.2491-7.5541-5.7722,6.9857 0,0zm-14.71-2.8474c-1.7663,.9707 1.533,5.5326 0,0zm-34.369,.0249c5.1279-8.0391-5.0916,4.7798 0,0zm46.17-5.3066c2.0312-27.271-8.2628,17.029 0,0zm11.578,2.9131c-4.7603-5.0806-1.0687,3.8803 0,0zm-20.359-6.2667c-4.4466-4.3451 1.2275,5.005 0,0zm-5.4577-5.1563c-4.7603-5.0801-1.0686,3.88 0,0zm-21.258-4.4577c11.776-29.052-11.002,11.06 0,0zm11.358-1.7638c-2.5997-3.5808-2.0602,5.3253 0,0zm-26.448-3.3732c-4.1208-3.5273-1.0591,3.504 0,0zm60.516-.5121c-3.744-5.443-3.9198,5.3179 0,0zm-6.9419-3.6138c-2.3001-6.9898-2.5271,6.911 0,0zm-11.482-1.1876c-3.3096-6.9014-3.3452,6.7534 0,0zm-11.329-3.0167c1.5793-10.234 6.3348-23.479 9.588-18.515-7.508-6.647 3.2543-23.96-7.4578-3.5577-.9623,3.7668-9.7412,26.944-2.1302,22.072zm-9.7644-4.1565c5.4994-13.095 10.01-41.771 .4833-11.946-1.9035,1.7968-6.7501,26.584-.4833,11.946zm-71.614-1.5914c-1.7663,.9707 1.533,5.5326 0,0zm62.309,2.2676c-2.496-3.6287-2.6132,3.5453 0,0zm-4.9576-2.6403c-3.7727-2.3525-2.1715,3.2245 0,0zm6.2766-12.662c5.4317,2.5014 .1733-10.777 4.2576-21.537-4.8632,2.8615-11.242,44.51-4.2576,21.537zm37.923-.1175c1.5834-6.2666 .686-2.4159 0,0zm-45.246-15.182c.6253-8.6339-5.3126,12.915 0,0zm24.582-3.8492c3.2247-18.071-5.3456,10.121 0,0zm21.496-.4111c-2.5497-7.3101-3.9193,7.1337 0,0zm-3.4496-3.1162c-3.3459-6.8773-8.8071,1.5323 0,0zm-38.732-5.3788c1.1269-19.401-7.831,11.537 0,0zm11.957,.7625c5.9876-10.519 9.4953-44.394 2.1257-14.398-.1856,.4981-7.5392,20.78-2.1257,14.398zm26.896-2.7522c-1.8853-5.3897-2.7152,3.494 0,0zm-2.9742-1.6078c-4.1601-5.7153-4.8,5.9435 0,0zm-32.275-10.408c8.0013-20.844-9.3696-5.3391-2.3474,4.2037l2.3474-4.2037zm-569.55-7.34c111.15-.007 222.46,1.8418 333.52,1.9066 13.491,6.4871 55.26-3.3092 21.594-8.7693-37.637-9.6398-74.716-21.022-113.04-27.611-24.685,20.083-58.037,10.138-88.222,11.701-20.538,6.1247-18.513-13.75-37.657-9.4948 9.696,10.913-11.126,13.139-10.06-.121-11.94-1.2796-44.227,2.9229-12.446-4.4094 11.998,1.912 47.497-.6823 18.388-6.365-14.121,2.4888-74.005,1.3519-30.781-1.8313 14.075,3.7846 56.106-4.2879 18.359-8.311-17.299-3.5156-50.999,5.6398-59.675-.855 18.321-7.877 62.471,6.8823 66.799-8.0688-8.3528-3.5089-54.786,.1362-42.509-4.4965 15.815,3.2196 55.76-3.1153 17.958-7.9099 26.765,1.041-.875-22.412-13.7-15.24-22.517,1.4729-51.322-6.9733-66.474,14.416-21.44,17.595-44.339,35.198-64.624,53.053-14.162,7.0292-32.14,26.825-2.5008,22.082 21.681,.5614 43.385,.8105 65.07,.3249zm23.059-64.681c10.597-5.7061 50.488,2.1331 15.98,.5624-4.791-1.5105-12.457,3.5382-15.98-.5624zm-8.8266-10.69c13.903,.4416 40.463-4.1877 10.174-6.3032-2.4108-6.3389 39.282,.0429 52.718-3.0725 18.055,5.628-50.027,2.0423-17.783,7.5961 14.931-1.6318 29.978,4.1886 5.175,3.1925-16.742-.3302-33.632,.3435-50.284-1.4129zm599.76,85.848c9.42-12.772-10.802,2.7097 0,0zm-65.057-2.0624c-3.843-3.7164-3.9623,3.5889 0,0zm-634.84-14.46c-2.8494-5.6943-3.1632,6.763 0,0zm584.41,10.003c23.442-3.9522 58.351,12.099 69.037-16.953 8.9996-17.204 50.788-58.896 7.4488-50.976-14.21-.5473-62.69,2.0952-57.848-1.8389 28.483-4.3194 59.286,2.3004 86.82-4.0083 19.154-28.492-42.27-14.124-58.474-16.731-31.948-1.4869-64.004-3.1268-95.333-1.4304-18.667-6.49-24.299,29.608-40.351,42.237-7.1685,12.736-54.11,49.813-19.295,48.559 35.97,1.3312 72.004,.8186 108,1.1411zm-82.139-15.623c7.4045-6.039 40.361-1.3855 12.24-.5238-4.1505-.8289-8.1304,1.5396-12.24,.5238zm57.657,1.2969c-12.535-.8786-39.511-4.0675-9.3099-3.4499 26.391-.6071 53.883,2.8884 79.179,2.3238 7.8324,4.735-36.002-.1241-47.486,1.4282-7.4589,.0545-14.945,.4502-22.384-.3021zm43.765-18.134c-11.703-7.9984 60.396,1.4395 19.039,.4212-6.1945-.4077-12.728,1.2923-19.039-.4212zm-96.229-2.095c19.727-4.7094 31.406,3.4239 0,0zm83.398,1.3051c-15.406-2.4418-52.793,.9346-53.3-3.1958 15.893-.0345 53.891-3.6103 58.157,4.1567l-4.8568-.9609zm-68.54-17.301c9.6257-4.3929 32.585,.6446 8.6911,.642l-6.3517-.1201-2.3394-.5219zm33.72,.7569c-34.914-6.9345 59.509-.3827 12.802,.7337-4.2716-.1617-8.5406-.3995-12.802-.7337zm31.005,.1714c21.29-3.0802 69.378-6.9248 80.563,2.0424-26.796-1.4529-53.825-.308-80.563-2.0424zm-39.546-17.286c7.6228-6.3084 11.623,3.8603 0,0zm18.516-1.0281c12.91-4.3951 37.071,.6113 9.7408,.6411l-6.8845-.1435-2.8563-.4977zm-13.601-14.471c12.545-2.5264 66.064-2.6086 27.442,.3671-9.1208,.0653-18.372,.8604-27.442-.3671zm47.615-1.3876c5.5326-1.5329 .9707,1.7663 0,0zm8.2581-.4314c12.957-5.2434 66.57,.6678 23.002,.0582-7.3456-1.0217-16.435,1.9493-23.002-.0582zm83.205,82.531c1.3903-4.9622-4.586,4.1976 0,0zm-685.39-15.2c-2.8487-1.9523-2.3894,3.3962 0,0zm217.41-15.66c-3.0331-2.4866 2.8913,5.4168 0,0zm-1.3252-3.0054c-6.9984-4.8679-.0453,5.083 0,0zm164.25,1.5386c-5.6889-16.612-37.389-33.305-26.558-50.43-1.3323-22.593-29.308-40.611-40.325-60.958-12.826-18.458-29.024-34.47-41.606-54.013-15.881-12.877-31.036-60.206-51.975-30.853-31.582,13.102-.8369,34.185 10.578,50.211 18.89,19.668 33.051,43.638 51.223,63.313 17.211,23.202 36.707,44.747 52.928,68.834 38.992,16.9-.0439-21.301-7.3181-33.945-22.739-22.598-41.943-49.455-61.962-74.696-1.1652-9.6318 24.395,28.999 32.421,35.974 20.351,23.32 39.482,47.761 58.418,72.18 .7516,7.2402 21.489,16.509 24.176,14.382zm-41.937-54.016c-17.702-20.116-35.775-41.791-52.09-63.163-9.866-11.259-34.918-38.951-31.746-42.501 21.935,23.321 39.164,50.321 61.171,73.599 1.5176,5.7471 36.954,39.634 22.666,32.065zm-96.924-96.234c-12.262-13.478-35.275-50.244-10.841-18.559 1.9102,1.9188 20.397,23.88 10.841,18.559zm-2.3273-23.967c-15.987-17.859 12.106,.6761 0,0zm464.14,179.89c-2.496-3.6287-2.6132,3.5453 0,0zm-408.11-8.8638c-7.0783-18.362-22.597-37.725-35.928-53.69-13.143-20.857-31.741-37.457-45.2-58.071-10.973-8.2246-22.854-37.763-26.01-34.826-1.8832-15.105-37.097-17.236-32.89-2.2209 23.999,34.397 55.188,63.773 83.616,94.126 20.108,16.051 32.006,48.561 56.412,54.682v-.0003zm-73.728-5.0043c-10.972-15.838-24.106-30.801-36.252-46.098-15.04-17.961-28.168-37.699-43.852-55.39-19.665-24.581-39.263-49.612-59.331-73.761-3.3322,14.66 25.764,34.64 34.459,50.41 14.378,19.7 32.549,37.235 43.573,58.577 14.243,7.1059 24.479,29.104 36.535,43.41 7.2975,2.0655 18.536,32.714 24.868,22.852zm93.602-5.4726c26.233-5.3981-14.738-34.29-20.711-48.528-15.63-19.987-30.631-38.254-46.805-58.254-14.614-18.29-31.379-36.618-45.202-55.079-30.083,4.9976 2.5484,32.258 9.0931,46.144 19.379,17.584 32.464,43.619 50.721,63.439 14.888,18.085 25.809,40.252 43.873,54.07l3.4776-.512 5.5529-1.2799zm-12.82-17.74c-13.874-9.595-9.3817-23.499 1.4463-4.6874 3.8244,1.8938 4.4167,10.81-1.4463,4.6874zm-27.58-33.95c-13.05-12.443-19.15-30.63-1.118-8.0976 2.2907,1.9013 11.462,17.469 1.118,8.0976zm-37.881-49.181c-9.9435-11.983-32.087-45.142-6.8667-15.308 .3161,1.8462 18.817,21.635 6.8667,15.308zm264.31,70.837c-2.8487-1.9524-2.3895,3.3962 0,0zm-103.53-4.1178c21.438,.9201 47.269-7.2101 66.588-1.4271 38.784-13.04-20.9-7.8585-34.11-8.838-16.314,4.7356-59.181-11.394-60.357,7.117 7.9902,4.9593 18.773,3.6938 27.879,3.148zm-223.27-11.16c-2.496-3.6287-2.6132,3.5453 0,0zm-11.301-5.9144c-1.7713,1.8085 1.074,3.6995 0,0zm454.4,3.6479c-3.7106-7.8487-7.1804,7.19 0,0zm-447.75-19.37c-2.6974-4.8152-4.3439,.853 0,0zm55.347-28.64c-5.4681-1.1252 3.7991,5.9194 0,0zm-27.34-32.7c-6.1503-10.082-.5837,6.5524 0,0zm-18.661-29.133c19.659-13.055 35.409-30.318 52.897-46.232-25.951-5.2253-41.594,17.427-59.595,31.113-10.023,11.735-23.546,21.524 6.6982,15.119zm-106.31-35.08c4.9527-7.0216-9.8987-41.624-6.9254-13.03 2.4915,1.9699 2.1782,26.977 6.9254,13.03zm2.5282-36.714c11.218-3.9433 37.351-36.01 10.979-17.291-1.327,2.8357-28.235,19.838-10.979,17.291z"/>
</g>
</svg>
