<svg xmlns="http://www.w3.org/2000/svg" viewBox="0 0 168.557 179.467" xmlns:xlink="http://www.w3.org/1999/xlink" enable-background="new 0 0 168.557 179.467">
<g fill-rule="evenodd">
<path d="m60.671,6.353c.305,.543 .998,.697 1.587,.953 .186,1.031-.215,1.479-.315,2.225-.633-.529-.406,.028-1.272,0-.264-.795-.871-1.248-.954-2.225 .827,.191 1.145-.128 .954-.953z"/>
<path d="m45.425,10.482c1.916-.327 2.471,.705 2.223,2.541-.804,.697-1.802-.582-2.223,0-.82-.436-.07-1.946 0-2.541z"/>
<path d="m38.12,11.118c1.078,.246 2.629-.161 2.223,2.223-1.202-.46-.61,.872-1.59,.636-.106-1.059-.92-1.41-.633-2.859z"/>
<path d="m66.389,11.752c.491,.461 .279,1.626 .318,2.541-.809,.548-1.233-.483-1.272,.636-.507-.763-1.23-1.31-.951-2.859 .969,.231 .933-.548 1.905-.318z"/>
<path d="m97.517,13.023c.116,.347 1.391,1.329 1.271,0 .618,.546 .686,1.646 .634,2.859-.907,.447-1.732-.986-1.587,.318-.674-.969-1.274-2.182-.318-3.177z"/>
<path d="m95.294,14.293c.008,.749-.548,.936-.318,1.907-1.789,.305-2.321-.644-2.223-2.223 .704-.665 2.115-.249 2.541,.316z"/>
<path d="m56.861,13.977c.568-.042 .669,.388 1.269,.316 .054,1.432 .155,2.908-1.269,2.859-.267-.795-.871-1.248-.954-2.223 .853,.219 .613-.656 .954-.952z"/>
<path d="m33.038,15.246c1.476,.336 .985,3.016-.636,2.859-.106-.85-1.259-.334-.954-2.223 .788,.047 1.541,.059 1.59-.636z"/>
<path d="m51.461,15.246c1.026-.392 .24,1.029 1.269,.636 .191,1.778-.763,2.413-2.541,2.223-.173-1.267-.173-.956 0-2.223 .563-.072 1.59,.321 1.272-.636z"/>
<path d="m42.248,16.2c.424,.316 .623,.858 1.271,.953-.002,.53 0,1.059 0,1.588-.54,.116-.6-.249-.636-.636-.31,.009-.248,.389-.318,.636-.297-.18-.481-.883-.636-.318-.643-.259 .202-1.675 .319-2.223z"/>
<path d="m69.248,17.787c.008,.75-.548,.936-.318,1.907-1.14,.116-1.164,.853-2.223,.318-1.236-1.966 1.052-3.885 2.541-2.225z"/>
<path d="m83.54,17.153h2.542c.14,1.092-.124,1.779-.315,2.541-.789,.412-1.543-.708-1.59,0-.471-.587-.608-1.509-.637-2.541z"/>
<path d="m98.789,18.423c1.792-.479 2.368,1.451 1.588,2.541-.911-.055-1.756-.643-1.591-2.541z"/>
<path d="m27.32,19.694c1.703,.213 1.065,1.746 .951,3.177-.282-.195-.569-.384-.633,0-.31-.009-.248-.389-.318-.636-.179-.718-.497,.385-.954-.317-.23-.972 .326-1.158 .318-1.906 .256,.061 .315,.318 .636,.318v-.636z"/>
<path d="m88.94,20.012h1.59c.267,.791 .416,1.702 .318,2.859-.812,.544-1.111-.364-1.59,.316-.949-.437-.662-2.299-.318-3.175z"/>
<path d="m94.976,20.646c.383,.359 .576,.908 1.59,.636 .364,.889 .364,1.652 0,2.541-1.689,.296-2.21-1.277-1.59-3.177z"/>
<path d="m72.107,21.918c.305,.542 .998,.695 1.587,.953 .173,.461-.37,1.642 .318,1.588-1.409,.971-3.353-.239-2.859-2.224 .297,.195 1.171,.739 .954-.317z"/>
<path d="m49.235,22.871c.23,.971-.323,1.157-.315,1.905-3.549,.531-2.061-4.161 .315-1.905z"/>
<path d="m40.343,22.871c.851,.291 1.38,1.954 .636,2.857-1.864,.187-1.92-.943-1.589-2.223 .637,.109 .994-.065 .953-.634z"/>
<path d="m54.002,22.871c1.212-.154 2.026,.089 2.541,.635 .17,1.23-.809,1.308-.954,2.223-1.14-.342-1.892-1.073-1.587-2.858z"/>
<path d="m60.035,22.871h2.223c.346,1.826-.538,2.426-1.27,3.176-.654,.276-.633-1.616-.954-.635-.818-.437-.069-1.947 .001-2.541z"/>
<path d="m110.54,23.823c.132,.765-.579,.69-.318,1.588h-2.223c.052-.37-.07-.565-.318-.636-.01-2.296 1.88-1.912 2.86-.952z"/>
<path d="m32.402,23.505c.972-.23 .933,.548 1.905,.318 .496,1.003-.176,1.395-.318,2.541-.747-.977-.188-.126-1.269,0 .116-.541-.248-.6-.636-.636-.184-1.03 .217-1.477 .318-2.223z"/>
<path d="m24.779,24.459c.101,.745 .501,1.192 .318,2.223-.858,1.18-1.533-.507-1.59,.635-.68-.607-.695-1.656-.318-2.541 .899,.262 .825-.447 1.59-.317z"/>
<path d="m89.258,25.412c.424,.528 1.799,.106 2.223,.635 .246,1.197-.385,1.519-.315,2.541-.749,.008-.936-.547-1.907-.317-.019-1.042-.902-1.215-.634-2.542 .39,.354 .651,.276 .633-.317z"/>
<path d="m85.13,26.364c.313,2.773-2.923,2.905-2.859,.318 .535-.595 1.74-1.464 2.859-.318z"/>
<path d="m67.025,27.317c.721,.23 1.621,.283 2.223,.636 .173,.461-.373,1.642 .318,1.588-.225,1.114-1.763,.138-2.223,.635-.726-.696-1.179-2.301-.318-2.859z"/>
<path d="m112.45,27.317c.766-.129 .69,.58 1.588,.318 .19,.761 .457,1.449 .317,2.541-1.95,.09-2.31-1.439-1.91-2.859z"/>
<path d="m105.14,30.176c-1.267,.102-2.347,.018-2.858-.635-.54-3.148 4.29-1.892 2.86,.635z"/>
<path d="m74.33,28.271c2.75,2.041-1.624,5.146-1.905,1.271 .16-.899 1.802-.317 1.905-1.271z"/>
<path d="m109.59,28.271c-.651,.153 1.284,.463 .633,0 1.378,.981 1.347,2.606 0,3.812-.45-1.33-1.79-2.622-.63-3.812z"/>
<path d="m27.32,28.587c1.916-.327 2.471,.704 2.223,2.541-.833,.372-1.368-.98-1.272,.318-.843-.426-1.143-1.398-.951-2.859z"/>
<path d="m93.071,28.587c.375,.366 1.122,.36 1.905,.318 .364,.891 .364,1.652 0,2.541-.978-.222-.61-.222-1.587,0-.013-1.045-.538-1.58-.318-2.859z"/>
<path d="m20.012,29.223c.762,.404 1.295,1.037 1.271,2.223-.119,.729-1.271,.424-1.587,.954-.429-.312-.636-.848-.954-1.271-.136-1.195 .993-1.124 1.27-1.906z"/>
<path d="m58.13,29.223c.819,.027 .333,1.36 1.587,.953 .232,.972-.548,.935-.315,1.906-1.138,.917-1.755,.207-1.908,.953-.589-.574-1.164-1.166-.951-2.541 .37-.583 2.07,.167 1.587-1.271z"/>
<path d="m51.143,29.859h1.587c.328,.835 .38,1.949 .318,3.176-1.101-.036-2.438-1.506-1.905-3.176z"/>
<path d="m81.953,30.176c1.437,.354 1.812,1.644 1.272,3.177-.993-.278-1.947-.597-2.226-1.588-.078-.928 .6-1.097 .954-1.589z"/>
<path d="m78.14,31.128c.621,1.022 .899,2.248 0,3.177-.837,.379-.817-1.528-.951,0-.889-.169-.587-1.53-.954-2.223 .758-.196 .522-1.384 1.905-.954z"/>
<path d="m105.78,32.4c1.065,.858 1.949,2.061 1.272,3.812-.339-.025-.228-.702-.637-.636-.08,.013-.506,.544-.317,.636-.474-.229-.181-1.146-1.271-1.271-.16-1.326 .73-1.608 .96-2.541z"/>
<path d="m87.671,33.035h2.223c.804,1.334-.119,1.988-.636,2.859-.651-.83-1.988-.977-1.587-2.859z"/>
<path d="m60.989,33.669c1.52-.038 1.905,1.06 1.905,2.542-1.122,.539-1.117-.002-2.541,0v-2.224c.39,.356 .654,.277 .636-.318z"/>
<path d="m24.143,33.987c1.735-.253 2.477,.487 2.223,2.224h-1.905c-.101-.745-.502-1.192-.318-2.224z"/>
<path d="m115.94,34.305v2.541c-1.742,.472-2.505-1.414-2.223-2.541 .53-.561 1.06,.282 2.22,0z"/>
<path d="m45.743,34.305c1.404,.11 1.937,1.582 1.27,2.859-.794-.04-.993-.606-1.27,.318-.442-.513-.902-1.005-1.271-1.588-.136-1.087 .95-.956 1.271-1.589z"/>
<path d="m73.058,34.305c1.758,.16 2.378,2.301 .954,3.177-1.026-.352-1.742-1.011-1.587-2.541 .54,.117 .597-.248 .633-.636z"/>
<path d="m35.894,34.623c.271-.058 .3,.124 .318,.318 .039,.067 1.354,.782 1.272-.318 .954,.764 1.375,1.657 .951,2.859 .287-.815-1.789-.155-.633,.318-.545,.065-.825-.543-.954,0-.923-.592-1.693-1.825-.954-3.177z"/>
<path d="m80.048,34.941c.375,.366 1.122,.359 1.905,.317 .364,.891 .364,1.652 0,2.542-1.042-.333-1.401,.203-2.223-.636-.184-1.031 .217-1.477 .318-2.223z"/>
<path d="m111.81,37.8c-1.008-.371-1.849-.906-1.907-2.225 1.6-1.791 3.64,.856 1.91,2.225z"/>
<path d="m96.881,35.894c.098,.961 .984,1.135 .636,2.541-1.53,.503-2.513-.396-2.541-2.223 .375-.366 1.122-.361 1.905-.318z"/>
<path d="m51.776,36.528c.615,.374 1.611-.291 2.226,.636 .103,1.164-.354,1.764-.636,2.541-.652-.937-1.954-1.223-1.59-3.177z"/>
<path d="m86.082,37.8c.801,.468 1.312,1.228 1.59,2.223-.311,.008-.249,.388-.318,.635-1.158,.207-1.69-.213-2.223-.635-.23-.972 .548-.934 .318-1.906 .389,.355 .65,.276 .633-.317z"/>
<path d="m101.65,37.8c1.53-.155 1.838,.914 1.905,2.223-.978-.236-.61,.871-1.59,.635-.38-.962-.97-1.702-.32-2.858z"/>
<path d="m105.78,38.117c-.054-.689 1.127-.144 1.588-.316 .485,.655 1.476,1.861 .636,2.857-.693-.771-.978,.147-2.224-.953-.2-.566 .92-1.319-.01-1.588z"/>
<path d="m119.44,37.8c1.732,.01 3.095,1.191 2.224,2.857-1.316,.364-1.238-.668-2.224-.635v-2.222z"/>
<path d="m15.566,40.023c.186,1.14-.37,1.537-.636,2.223-.406-.44-1.5-.194-1.905-.636v-1.587c1.005,.702 1.347-1.036 2.541,0z"/>
<path d="m115.62,39.705c1.53,.206 3.138,2.123 1.59,3.494-1.76,.015-2.3-1.986-1.59-3.494z"/>
<path d="m91.166,40.023h1.588c.607,1.208 .55,1.824 0,2.859-.742-.105-1.313-.383-1.905-.636-.187-1.031 .214-1.477 .317-2.223z"/>
<path d="m74.33,40.976c.232,1.504-.993,1.55-.954,2.859-.3-.651-.781-1.124-1.587-1.271v-1.906c1.37,.004 1.781-.583 2.541,.318z"/>
<path d="m57.812,40.658c.902,1.174 1.003-.461 2.859,0 .287,1.246 .388,1.981-.318,2.859-.465,.005-1.005-1.339-.951,0-.305-.542-1-.697-1.59-.953v-1.906z"/>
<path d="m110.86,40.976c1.952,.432 2.748,1.252 2.224,3.494-.978-.222-.61-.222-1.587,0-.51-.997-1.37-2.146-.63-3.494z"/>
<path d="m45.425,41.293c2.011,.422 1.393,1.925 .636,3.176-.915-1.205-.819,.398-1.908-.635v-2.224c.504-.026 1.212,.154 1.272-.317z"/>
<path d="m76.553,41.293c.604,.596 .574-.188 1.587,0 .569,.766 .887,1.78 .318,2.859-.928,.083-.974-.719-1.905-.636v-2.223z"/>
<path d="m98.471,44.469c-.543,.067-.825-.542-.954,0-.771-.498-1.189-1.351-1.27-2.541 1.562-1.586 3.127,.685 2.224,2.541z"/>
<path d="m120.39,42.564c1.274-.112 2.324,.005 2.541,.953-.021,1.369-1.274,1.689-2.226,1.271-.43-.411-.31-1.38-.31-2.224z"/>
<path d="m32.402,42.882c.269-.06 .3,.124 .318,.316 .039,.702 1.347,.136 1.905,.318-.003,.844 .119,1.815-.318,2.225h-1.587c-.372-.963-.965-1.703-.318-2.859z"/>
<path d="m106.41,43.199c1.686-.098 2.541,.636 2.541,2.225-.54-.118-.6,.247-.636,.634-1.48-.552-1.94-1.471-1.9-2.859z"/>
<path d="m50.507,43.517c.703-.174 .453,.606 .954,.636 .39,1.363-1.238,2.338-.318,3.175-1.147,.313-2.859-.674-2.541-2.541 .964-.794 1.53-.015 1.905-1.27z"/>
<path d="m13.979,44.469c.031,.985-.39,1.518-.636,2.225h-1.905c-.292-.557-.111-1.586-.636-1.907 .775-.881 2.199-1.308 3.177-.318z"/>
<path d="m24.779,43.834c.646,.746 .954,2.176 0,2.859-.377-.366-1.125-.361-1.908-.318-.548-.192 .026-1.507-.633-1.588 .767-.395 1.103-1.225 2.541-.953z"/>
<path d="m64.802,44.153c1.158-.207 1.69,.213 2.223,.634-.101,1.276-.574,2.179-1.59,2.541 .016-1.461-1.349-1.894-.633-3.175z"/>
<path d="m85.766,44.153c1.267-.314 .956,.948 2.223,.634 .388,1.346 .021,1.615-.636,2.541-.297-.179-.48-.882-.636-.318-.638-.632-1.086-1.454-.951-2.857z"/>
<path d="m103.24,44.153c1.094,1.355 .885,2.166-.317,3.175-.706-.778-1.833-1.132-1.588-2.859 .97,.232 .93-.548 1.91-.316z"/>
<path d="m91.481,44.787c.603,.988 2.74,.437 2.226,2.541-1.864,1.012-2.973-.853-2.226-2.541z"/>
<path d="m118.16,44.787v2.541h-2.224c-.84-1.564-.03-3.13 2.22-2.541z"/>
<path d="m98.789,46.058c.659,1.216 1.722,2.081 .634,3.494-1.244,.287-3.829-3.291-.634-3.494z"/>
<path d="m70.835,46.375c.812,1.647 .879,.079 2.541,.318 .323,1.646 .427,2.894-1.587,2.857-.483-1.546-1.062-1.035-.954-3.175z"/>
<path d="m77.507,46.375c.53,.846 1.184,1.568 .951,3.176-1.794,.439-3.063-2.14-.951-3.176z"/>
<path d="m80.999,46.694h1.908c.455,.941 .97,2.015 0,2.857-1.101,.619-2.158-1.113-1.908-2.857z"/>
<path d="m111.81,46.694c.269-.059 .3,.124 .318,.316 .11,.446 .558,.028 .633-.316 1.378,.832 1.419,2.414 .318,3.493-.96-.628-1.52-1.653-1.27-3.493z"/>
<path d="m120.7,46.694c2.029-.333 2.874,.513 2.541,2.541-.985-.417-.905,.085-2.224,0-.38-.913-.66-1.687-.32-2.541z"/>
<path d="m109.27,47.646c.052,.9 .582,1.324 .634,2.223-1.106,.949-2.156-.195-3.175-.318 .27-1.221 .68-2.287 2.55-1.905z"/>
<path d="m10.484,47.964c.499,.136 .271,.999 1.271,.634 .38,3.026-1.597,1.817-2.541,2.859-.504-.663-.659-1.671-.636-2.859 .843-.003 1.87,.178 1.906-.634z"/>
<path d="m61.625,48.599c1.114,.749 .853,1.642 .633,3.177-1.246-.07-1.869-.34-1.905-2.225 .421-.318 1.181-.3 1.272-.952z"/>
<path d="m42.884,49.235c1.362,.614 1.737,1.383 1.269,3.176-1.279-.045-2.117-.352-2.223-2.224 .693,.059 1.011-.26 .954-.952z"/>
<path d="m126.42,49.235c.896,.587 1.717,1.247 1.59,2.859h-1.908c-.5-1.023-.26-2.106 .32-2.859z"/>
<path d="m117.21,49.551c1.352,.196 2.169,2.251 .951,3.177-1.109-.371-2.288-.676-1.905-2.541 .64,.109 .99-.064 .95-.636z"/>
<path d="m101.65,50.187h2.223c.559,1.091 .337,2.446-.636,2.859-1.12-.36-1.87-1.09-1.58-2.859z"/>
<path d="m87.035,50.505h1.59c.194,.969 1.425,.903 .952,2.541-.375,.735-2.012-.67-2.224,0-1-.539-.395-1.477-.318-2.541z"/>
<path d="m121.02,50.505h1.59c.496,1.085 .739,1.479 .318,2.859-.378-.366-1.125-.359-1.908-.318-.2-.726-.63-1.915 0-2.541z"/>
<path d="m92.118,51.14c1.031,.281 2.21,1.61 1.271,2.858-.771-.187-1.406-.188-1.908-1.271-.049-.789 .499-.982 .637-1.587z"/>
<path d="m97.517,51.776c.041-.702 1.347-.136 1.905-.318 .341,.296 .101,1.173 .954,.953-.311,.75-.104,2.015-1.27,1.906-1.318-.062-.885-1.872-1.593-2.541z"/>
<path d="m109.9,52.094c.152,1.208-.135,1.983-.952,2.223-2.47-.286-1.49-3.752 .95-2.223z"/>
<path d="m76.235,52.094c.872,.401 2.229,.313 2.859,.953 .036,1.201-.621,1.707-1.587,1.905-.682-.695-1.631-1.124-1.272-2.858z"/>
<path d="m8.261,52.411c.993,1.139 2.032,2.19 .954,3.812-1.23-.147-2.047-.707-2.226-1.906 .266-.793 1.45-.669 1.272-1.906z"/>
<path d="m112.13,52.411h1.269c.135,.607 .116,1.367 .954,1.271 .326,1.278-.496,1.41-.954,1.905-.325,.037-.641-1.37-.951-.318-.92-.418-.66-2.014-.32-2.858z"/>
<path d="m71.153,53.046c.789,.53 1.228,.721 1.905,1.905-.832,2.459-2.991,.299-1.905-1.905z"/>
<path d="m126.42,53.046c1.554,.345 2.272,3.43 .318,3.812-.36-1.372-1.55-2.557-.32-3.812z"/>
<path d="m117.53,54.635c1.688,.028 1.993,2.18 .951,3.175-.292-.765-1.612-.504-1.904-1.271-.17-1.122 .51-1.391 .95-1.904z"/>
<path d="m120.7,54.952h2.226c.827,.867 .814,2.667-.318,3.177-1.1-.595-2.15-1.238-1.91-3.177z"/>
<path d="m87.353,55.905h1.905c.391,1.348 .116,1.71 0,3.175-.931-.084-1.179-.438-1.587,0-.686-.267-.27-1.637-.954-1.905 .137-.498 1-.271 .636-1.27z"/>
<path d="m91.799,55.905c1.099-.628 1.398,1.082 1.59,.318 1.562,1.718-.827,3.331-1.908,1.905 .006-.844-.118-1.815 .318-2.223z"/>
<path d="m97.835,55.905c.617,.731 .989,.446 2.223,.953 .188,3.05-2.011,2.299-2.858,.952 .103-.742 .38-1.311 .633-1.905z"/>
<path d="m103.24,55.905c.432,.942 .46,2.302-.317,2.859-.99-.637-1.042-.372-1.905-1.271 .08-1.187 .68-1.853 2.22-1.588z"/>
<path d="m6.355,57.81c2.239-.108 2.412,1.811 1.587,3.177-.724,.436-1.194-.819-1.272,0-.632-.507-.935-2.397-.315-3.177z"/>
<path d="m125.15,58.446h1.905c.411,.921 .411,2.254 0,3.177-.543,.066-.822-.542-.954,0-1.18-.202-.97-1.785-.96-3.177z"/>
<path d="m75.917,58.764h1.908c-.238,.977 .871,.61 .633,1.587-.294,.232-.48,.578-.633,.954-1.582,.097-2.063-.902-1.908-2.541z"/>
<path d="m15.566,60.035c.631,.624 .202,1.813 0,2.541h-1.905c-.176-.566-.163-1.319-.636-1.588 .907-.039 .987-.881 2.541-.953z"/>
<path d="m23.825,66.705c-.592,.304-1.062-.951-1.271,0-.69-.685-1.226-1.526-1.27-2.859 1.967-.843 2.872,.533 2.541,2.859z"/>
<path d="m7.625,66.705c-1.267,.173-.957,.173-2.223,0-1.275-2.931 3.037-3.983 2.223,0z"/>
<path d="m108,64.799c1.352,.553 .956,2.856 1.271,4.447-2.04,.392-2.84-2.926-1.27-4.447z"/>
<path d="m13.661,65.751v2.224c-.915,.177-.551,.23-1.59,.635-.214-.738-.571-1.334-1.587-1.271v-1.588c1.315-.019 1.515-.889 3.177,0z"/>
<path d="m97.517,65.434c.618,.52 1.634,.693 2.224,1.271 1.077,1.057 1.24,2.979 2.541,3.812 .126,3.897 2.866,5.182 5.082,6.989 1.225-1.033-.034-3.643 1.271-5.083 2.309,1.662 .354,4.866 0,7.306h-2.541c-.931-1.189-1.967-2.268-3.495-2.858-1.292-3.79-2.921-7.245-5.399-9.848-.131-.766 .58-.691 .316-1.589z"/>
<path d="m16.202,66.705c.271-.656 2.21-.336 2.541,0-.039,.916 .173,2.079-.318,2.541-1.468-.388-2.205-1.531-2.223-2.541z"/>
<path d="m56.225,70.199c-.952-.955-1.913-.579-1.908-2.859 1.685-1.632 2.789,.991 1.908,2.859z"/>
<path d="m63.212,68.292h1.272c.439,.893 .84,1.828 .318,2.859-2.037,.449-2.198-1.586-1.59-2.859z"/>
<path d="m5.72,70.199h.951c.69,1.042 .721,2.445 .318,3.812-.308-.009-.246-.389-.318-.636-.222-.3-1.489,.206-1.905-.635-.416-1.581 .98-1.351 .954-2.541z"/>
<path d="m12.707,72.105h2.223c.442,.512 .269,1.637 .954,1.905-.969,1.908-3.766,.548-3.177-1.905z"/>
<path d="m22.238,72.74c.269-.058 .3,.124 .315,.318 .137,.709 1.566,.128 2.226,.316 .32,1.806-.414,2.553-.954,3.495-1.934,.026-1.626-2.184-1.587-4.129z"/>
<path d="m49.235,73.375c.383,.359 .577,.907 1.59,.636-.002,.844 .119,1.815-.318,2.223-.631-.529-.403,.03-1.272,0-.39-.898-.39-1.96 0-2.859z"/>
<path d="m54.953,73.375h2.223c.22,1.278-.303,1.814-.315,2.859-1.065-.526-2.208-.971-1.908-2.859z"/>
<path d="m125.79,73.692c.104,.746 .504,1.193 .317,2.224-.739,.475-1.367-.107-1.587,.317-.636-.422-.708-1.409-.954-2.223 .4-.436 1.37-.314 2.22-.318z"/>
<path d="m61.307,75.281c.323,.207 .328,.73 .951,.636 .044,1.961-.628,2.182-1.905,2.224 .07-1.022-.561-1.345-.318-2.541 .236,.224 1.556,.79 1.272-.319z"/>
<path d="m134.04,77.187c.238,.979-1.094,.387-.633,1.587-.285-.195-.569-.382-.637,0-.612-.129-.25-1.23-1.271-.953v-1.588c1.07-.535 1.92,.194 2.54,.954z"/>
<path d="m15.248,78.458c1.171,.419 1.605,1.572 1.589,3.176-1.833,.032-3.112-.488-2.859-2.541 .562-.073 1.59,.32 1.27-.635z"/>
<path d="m54.317,79.092c3.552-.688 1.458,5.011-.633,1.906-.341-1.186 .788-.905 .633-1.906z"/>
<path d="m47.966,80.999c.499,.136 .271,1 1.269,.635 .155,1.212-.088,2.028-.633,2.541-.933-.058-2.244-.412-1.908-2.541 .563-.073 1.593,.32 1.272-.635z"/>
<path d="m136.9,81.952c3.313,1.613-1.722,4.79-1.588,.636 .64-.772 1.36,.535 1.59-.636z"/>
<path d="m30.179,82.587c1.624-.036 3.014,.16 2.859,1.905-.551,.849-.931,.053-1.271,1.271-.649-.567-.088-1.172-1.272-.635-.192-.761-.456-1.45-.316-2.541z"/>
<path d="m129.6,83.222c1.469,.556 1.885,1.796 .636,2.859-.284-.195-.568-.384-.636,0-.515-.543-.962-1.157-.954-2.223 .54,.013 .82-.236 .95-.636z"/>
<path d="m34.625,86.081c1.541,.046 1.954,1.826 1.269,3.175-.383-.358-.574-.906-1.587-.634 .005-1.372-.584-1.781 .318-2.541z"/>
<path d="m27.32,86.715c.851,.971 .393-.276 1.587,.636 .155,1.212-.09,2.028-.636,2.541-1.163-.319-2.13-.833-1.905-2.541 .651,.643 .633-.129 .954-.636z"/>
<path d="m144.53,89.256c.604,2.485-1.481,3.702-3.175,2.859 .05-1.948 1.36-2.658 3.17-2.859z"/>
<path d="m35.261,91.163c1.003-.438 1.916,.787 2.223,0 .855,1.03 .341,1.731 0,2.858-1.949,.253-2.133-1.254-2.223-2.858z"/>
<path d="m126.42,91.481c1.336-.384 1.394,.513 2.223,.635 .233,.972-.548,.933-.315,1.905-.542,.066-.824-.541-.953,0-.96-.419-1.36-1.594-.95-2.54z"/>
<path d="m150.25,93.07c-.328,1.494 1.106,1.223 .636,2.858-.311-.011-.248-.388-.318-.636-.372,.052-.266,.579-.317,.951-2.4,.352-2.47-4.683 0-3.173z"/>
<path d="m97.835,94.657c.235-.716 1.78-.124 2.541-.315-.052,.367 .069,.563 .317,.633 .019,1.88-1.108,1.383-1.587,2.224-.874-.58-1.327-1.927-1.278-2.542z"/>
<path d="m133.41,94.974c.438,.893 .837,1.828 .314,2.859-1.333,.385-1.391-.515-2.223-.636 .19-1.192 .28-2.473 1.91-2.223z"/>
<path d="m91.481,98.152c.008,.749-.545,.936-.315,1.904h-1.907c-.049-1.011-.719-1.398-.634-2.541 1.23,.369 1.624-.552 2.856,.633z"/>
<path d="m61.625,97.515c1.292-.021 1.367,1.174 1.269,2.541-.54-.116-.6,.248-.636,.637-.308-.008-.246-.391-.315-.637-.411-.101-1.414-.432-1.272-1.904 .256-.279 .871-.194 .954-.641z"/>
<path d="m131.5,99.103c.486,1.013 .111,1.398 0,2.543-.788,.411-1.541-.708-1.587,0-.455-.393-.603-1.093-.636-1.907 .84-.126 .9-1.023 2.23-.64z"/>
<path d="m107.68,102.6c-.543,.067-.822-.543-.951,0-.636-.424-.708-1.408-.954-2.223 1.72-1.479 3.13,.45 1.9,2.22z"/>
<path d="m146.44,99.739c.566,1.08 .251,2.094-.317,2.858-.978-.082-1.43-.688-2.224-.951v-1.59c.45-.494 1.62-.283 2.54-.321z"/>
<path d="m151.52,99.739h2.224c.565,1.019 .615,1.603 .317,2.858-1.559-.066-1.21-.204-2.541-.636v-2.221z"/>
<path d="m96.881,103.55c-.861-.408-1.802-.736-1.587-2.223 1.804-1.555 3.234,.85 1.587,2.22z"/>
<path d="m86.399,103.55c-.426,1.931-2.678-.672-2.541,1.27-.548-.722-.677-1.861-.633-3.175 1.246,.48 2.957-1.07 3.174,1.91z"/>
<path d="m58.766,101.65c.744,.102 .71,.982 1.269,1.27 .155,1-.975,.721-.633,1.905-.706-.396-.861-1.453-1.59-.315-.644-.204-.209-1.486-.951-1.59 .755-.87 1.277-.13 1.905-1.26z"/>
<path d="m74.33,101.65c.858,.094 .569,1.334 1.269,1.588-.264,.796-.869,1.245-.951,2.223-.946-.86-1.967-2.97-.318-3.81z"/>
<path d="m24.46,104.5c1.003-.155 1.122,.571 2.223,.315 .297,1.256 .249,1.843-.318,2.858-.56-.55-3.011-1.2-1.905-3.18z"/>
<path d="m157.55,104.82c.146,1.08 1.169,2.414 .318,3.495-1.786-.014-1.763-1.836-2.224-3.178 .75,.79 .52-.83 1.9-.32z"/>
<path d="m148.34,105.46c1.342,.512 2.021,1.717 1.587,3.177h-1.905c-.47-1.42-.1-1.98 .32-3.18z"/>
<path d="m56.543,105.78c.563,.6 1.047,1.281 .951,2.541-.925-.078-1.096,.6-1.587,.953-1.292-.385-1.264-1.6-.954-2.858 .6-.14 1.916,.43 1.59-.63z"/>
<path d="m94.022,106.41c.563,.39 1.676,.229 1.908,.954 .256,2.119-1.417,1.075-1.271,2.538-.565-.98-2.051-2.37-.637-3.49z"/>
<path d="m61.943,107.04c.269-.057 .3,.124 .315,.321 .276,.936 .476-.74 1.271-.321 .14,.284 .279,.569 .636,.636 .057,2.687-3.247,3.787-2.859,0 .541,.12 .601-.25 .637-.64z"/>
<path d="m107.36,107.36c1.031-.187 1.479,.214 2.226,.314 .137,1.094-.127,1.781-.318,2.544-.902,.052-.62-1.075-1.907-.636v-2.21z"/>
<path d="m79.094,107.68h2.223c-.051,1.006 .846,1.062 .636,2.224-.282,.142-.569,.279-.636,.636-1.406-.52-2.28-.45-2.223-2.86z"/>
<path d="m66.071,108c.375,.364 1.122,.359 1.905,.318 .644,1.096 .421,1.406 .318,2.858-.308-.01-.246-.388-.318-.636-1.649,1.01-2.476-.16-1.905-2.54z"/>
<path d="m89.577,108.63c.139,1.094-.125,1.781-.318,2.541-.435-.729-1.541-.788-2.224-1.271-.468-1.69 1.603-1.97 2.542-1.27z"/>
<path d="m34.307,109.27c.765-.132 .69,.579 1.587,.318 .191,1.176 .525,1.841-.315,2.538-.669-.39-1.241-.879-1.908-1.269 .137-.61 .685-.8 .636-1.59z"/>
<path d="m32.084,110.54c.238,1.934-.835,3.208 .954,3.495-.514,.651-.044,2.287-1.271,2.223-1.378,.494-1.825-3.453-.636-2.541 .22-1.595-1.274-1.476-.951-3.177 .591-.62 1.162-.1 1.904,0z"/>
<path d="m26.048,110.54c.825,.135 1.466,.129 2.223,.954 .016,.967-.669,1.232-.951,1.905-1.006,.041-1.673-.727-2.223-1.905-.127-.77 1.445,.17 .951-.96z"/>
<path d="m74.966,111.49c.605,.595 .796,.033 1.587,0 .692,.763 .874,2.445 0,3.177-1.23,.58-2.339-1.63-1.587-3.18z"/>
<path d="m159.46,111.49c.796,1.028 .093,2.681-.318,3.492-.653-.827-1.987-.975-1.59-2.859 .9,.06 .62-1.07 1.91-.63z"/>
<path d="m37.802,112.12c.269-.057 .3,.124 .318,.321 .29,.352 .589,.098 1.587,.314 .801,2.549-1.174,2.396-1.905,1.908-.657-.26-.336-2.2 0-2.54z"/>
<path d="m153.74,112.45c1.025-.394 .242,1.025 1.269,.633 .14,1.094-.124,1.781-.315,2.541-.887-.488-2.055-.698-1.907-2.223 .37-.99 .91,.17 .95-.95z"/>
<path d="m59.402,112.76c1.693,.499 1.114,3.95-1.272,3.178-.184-.665-.789-.908-.636-1.905 .163-.91 1.802-.32 1.908-1.28z"/>
<path d="m140.08,113.08h1.905c.441,1.386-.127,1.74-.634,2.859-.284-.194-.568-.386-.636,0-1.14-.48-.9-1.65-.63-2.86z"/>
<path d="m53.048,113.4h1.905c-.005,.749 .548,.936 .318,1.907-1.202-.46-.61,.871-1.587,.634-.018-1.04-.905-1.21-.636-2.54z"/>
<path d="m65.117,114.03h1.59c.755,1.422 .078,2.938-.636,3.81-.584-.476-.791-1.323-1.587-1.587 .351-.59 .403-1.49 .633-2.22z"/>
<path d="m109.9,114.35h1.907c.771,1.383-.016,2.601-.636,3.492-.79-.79-1.38-1.78-1.27-3.49z"/>
<path d="m82.271,114.98c.625,.664 .243,2.109 0,2.858-1.215-.504-.375-.504-1.587,0-.049-1.008-.722-1.396-.636-2.538 1.137-.41 1.163,.03 2.223-.32z"/>
<path d="m30.179,116.89v2.224c-1.763,.279-1.719-1.246-2.541-1.905 .881-.75 1.54-1.21 2.541-.31z"/>
<path d="m39.071,116.26c1.461,.615 .838,2.353 .318,3.495-.577-.799-1.249-1.505-1.587-2.541 .085-.66 1.406-.08 1.269-.96z"/>
<path d="m90.53,116.89c1.569,.439 .722,2.484 .318,3.495-.445-.615-1.177-.943-1.908-1.271-.357-1.62 .739-1.8 1.59-2.22z"/>
<path d="m96.248,117.21c.577,1.083-.044,1.525 0,2.856-.845,0-1.814,.121-2.226-.315v-1.908c1.249,.29 .802-1.11 2.226-.64z"/>
<path d="m124.52,117.84c.566,.595 .807-.258 1.905,0 1.489,1.649-.553,3.302-1.587,3.178-.75-.63-.75-2.21-.31-3.18z"/>
<path d="m158.19,117.84h1.59c.466,1.078 .549,3.167-.953,3.178-.42-.86-.79-1.76-.64-3.18z"/>
<path d="m34.943,118.16h2.223c-.23,.969 .326,1.155 .318,1.902-.737,.763-1.479,.031-1.59,.954-.419-1.01-1.556-1.68-.951-2.85z"/>
<path d="m73.694,118.16c.019,1.039 .905,1.212 .636,2.538-.631,.005-.403,.868-1.272,.636 .091-.568-.3-.651-.315-.317-.763,.126 .176-1.445-.954-.954 .266-.367 .418-.851 .318-1.587 .897,.26 .822-.45 1.587-.32z"/>
<path d="m148.66,118.48c1.251-.191 1.648,.47 2.223,.953-.248,.812-.788,1.329-1.271,1.905-1.46-.04-1.83-2.29-.95-2.86z"/>
<path d="m66.071,121.66c-.669,.421-.938-.158-1.905,.317-.267-.688-.822-1.083-.636-2.223 1.264-.88 3.089-.05 2.541,1.9z"/>
<path d="m40.661,123.56c-.633-.527-.406,.03-1.271,0-.127-.825-.949-.957-.954-1.905 .878-2.52 3.607-.38 2.225,1.9z"/>
<path d="m31.13,121.34c.238-.716 1.781-.124 2.541-.317 .194,.762 .458,1.45 .318,2.541-.476-.228-1.336-.243-1.587,0-1.031-.13-.633-1.69-1.272-2.22z"/>
<path d="m102.28,121.02c.529-.318 .842,.641 .953,.636 .362-.016 .171-.612 .318-.636 2.616-.38 2.902,4.053-.636,3.177-.78-1.19-.87-1.3-.63-3.18z"/>
<path d="m153.42,121.66c1.763-.444 2.194,2.742 .636,2.858-1.24,.1-1.14-2.2-.64-2.86z"/>
<path d="m81.953,122.29c.848,.778 .995,1.554 .636,2.859-.39-.354-.654-.277-.636,.317-.543,.067-.822-.543-.954,0-.83-.336-1.037-1.292-.951-2.544 .535-.5 1.427,.38 1.905-.64z"/>
<path d="m110.86,122.92h1.905c.083,1.458 .339,1.536 0,2.859-.543,.067-.822-.54-.951,0-1.07-.2-1.02-1.52-.95-2.86z"/>
<path d="m137.54,122.92c.176,.569 .163,1.321 .636,1.59-.3,.654-1.251,.657-1.271,1.59-.794,.419-.993-1.256-1.27-.32-.83-1.15 .1-3.26 1.9-2.86z"/>
<path d="m35.579,123.56h2.223c.473,1.419 .186,2.052-.636,2.858-.796-.68-1.647-1.32-1.587-2.86z"/>
<path d="m65.753,124.2c1.988,.031 2.306,1.251 1.59,3.495-.577-.483-1.096-1.024-1.908-1.272-.184-1.04 .217-1.49 .318-2.23z"/>
<path d="m131.5,124.83c.225,1.179-.543,1.362-.318,2.541-.785,.411-1.54-.708-1.587,0-.625-.54-.853-1.476-.954-2.541 1.3,.11 1.71-1.14 2.86,0z"/>
<path d="m148.98,124.83c.284,.931 .284,.978 0,1.905-1.755,.271-2.448-.518-2.541-1.905 .46-.47 2.07-.47 2.54-.01z"/>
<path d="m38.753,125.15c.271-.06 .3,.121 .318,.317 .042,.7 1.347,.135 1.908,.315 .483,1.014 .111,1.398 0,2.544-1.308-.044-1.057-.383-2.226-.954v-2.22z"/>
<path d="m71.789,125.78c2.75,.215 1.708,4.609-.636,2.544v-1.908c.558,.47 .724,.3 .636-.63z"/>
<path d="m89.258,127.06c.744,1.396 .507,2.027-.318,3.178-.915-.58-2.323-3.45 .318-3.18z"/>
<path d="m120.39,127.38c1.028-.184 1.476,.215 2.223,.318 .512,1.021 .262,2.104-.317,2.858-.256-.222-.871-.496-.954,0-1.02-.36-1.01-1.76-.95-3.18z"/>
<path d="m139.45,128.64c.868-.23 .641,.631 1.271,.636 .209,1.693-.135,2.83-.954,3.495-.559-.797-.524-.223-1.269-.637-.27-1.75 .46-2.5 .95-3.5z"/>
<path d="m80.684,129.28c1.124-.171 .78,1.127 1.905,.954-.352,.6-.406,1.502-.636,2.223-1.362,.013-1.044-.393-2.223-.954-.334-1.39 1.073-1.04 .954-2.22z"/>
<path d="m153.1,129.28c.745,.904 .218,2.569-.636,2.858-1.8-.05-1.61-3.44 .64-2.86z"/>
<path d="m102.92,129.6c.499,.138 .271,1.001 1.271,.637 .352,2.256 .096,2.587-1.271,3.492-1.3-1.17-.79-2.75 0-4.13z"/>
<path d="m113.4,130.23c.435,1.703-.594,1.946-.951,2.858-.499-.137-.273-1-1.271-.636-.173-1.267-.173-.956 0-2.223 1.16-.07 1.21-.43 2.22,0z"/>
<path d="m129.28,130.55c1.835-.031 2.06,2.877 .636,3.495-.651-.938-1.954-1.226-1.588-3.18 .45,.36 .77,.35 .95-.31z"/>
<path d="m147.7,131.5c.152,1.001-.452,1.241-.636,1.908-.978-.223-.61-.223-1.588,0 .034-.987-1-.907-.636-2.224 1-.58 2.06-.7 2.87,.31z"/>
<path d="m95.612,131.19c.817,.559 1.125,1.626 .954,3.175-.81,.548-1.233-.483-1.271,.636-.644-.628-.755-1.783-1.272-2.541 .385-1.23 1.48,.23 1.589-1.27z"/>
<path d="m84.812,135.32h1.587c-.116,.54 .248,.597 .636,.633-.364,.378-.358,1.125-.317,1.908-1.251,.62-.972-.621-2.223,0-.141-1.09 .126-1.78 .317-2.54z"/>
<path d="m143.58,135.32c-.155,1 .974,.719 .636,1.904-.311,.011-.248,.389-.318,.637-.987,.418-.907-.088-2.226,0-.318-.843-.331-1.618 .318-2.224 .75-.42 .59,.04 1.59-.32z"/>
<path d="m99.741,139.44c-.403-.866-1.443-1.096-1.27-2.541 3.039-2.27 3.959,2.9 1.27,2.54z"/>
<path d="m119.12,137.22c6.51-1.53-.05,6.17 0,0z"/>
<path d="m70.517,149.93c1.471,.114 1.885,1.897 1.272,3.175-1.776-.31-2.104-1.79-1.272-3.17z"/>
<path d="m77.189,151.83c1.737-.222 1.766,1.756 1.269,2.859-.93-.548-1.998-.967-1.905-2.538 .39,.35 .652,.27 .636-.32z"/>
<path d="m73.376,152.78c1.055,.22 1.44,1.104 1.59,2.226-.377,.364-1.125,.356-1.908,.315 .13-1.24-.822-2.01 .318-2.54z"/>
<path d="m81.317,153.1c.419,.325 1.171,.31 1.59,.636 .099,1.158-.052,2.067-.318,2.858-.83-.548-1.541-1.215-1.905-2.223 .134-.5 .998-.28 .633-1.28z"/>
<path d="m130.87,153.1h.952c.364,.889 .364,1.651 0,2.541-3.633,.504-4.242,.967-8.577,1.59 .049-.791-.163-1.318-.634-1.59 1.869-1.962 4.167-1.303 6.033-1.588 .439-.066 .065-.452 .318-.636 .28-.19 2.39,.82 1.91-.31z"/>
<path d="m89.577,154.06c.271-.059 .299,.125 .317,.318 .194,.312 1.522,.047 1.905,.951-.07,2.304-1.35,1.769-2.541,.954-.254-1.1 .473-1.22 .319-2.22z"/>
<path d="m87.035,156.28c-.581,1.233-1.913,.463-2.223,.636-.556-.292-.701-.995-.636-1.905 1.016-1 3.11-.72 2.859,1.26z"/>
<path d="m132.78,155.96c1.187,.028 .905,.357 1.905,0 .52,.771 .81,1.544 .318,2.541 .923,.453 2.138,.613 1.905,2.224-.854-.22-.613,.659-.951,.953-.458,.171-.776-1.237-.954-.317-1.037-.895-.838-1.626-.318-2.859-1,.2-2.8-.72-1.9-2.53z"/>
<path d="m73.376,156.92c.791-.049 .985,.499 1.59,.634 .186,1.143-.37,1.538-.636,2.223-1.024-.47-2.053-2.07-.954-2.85z"/>
<path d="m76.553,156.92c.604,.598 .574-.188 1.587,0 .336,1 1.244,1.425 .636,2.541-.93-.284-.974-.284-1.905,0-.403-.89-.783-1.57-.318-2.54z"/>
<path d="m129.6,156.92c.375,.364 1.122,.359 1.905,.318 .023,1.08 .101,2.215-.634,2.538 .442,.512 1.567,.341 1.905,.954 .23,.972-.325,1.158-.317,1.905-1.187,.341-.905-.786-1.905-.634v-2.226c-.91,.22-2.34-1.62-.96-2.86z"/>
<path d="m141.67,159.77h-2.223c-.267-.685-.822-1.08-.634-2.223 .683,.689 .76-.849 2.224-.315 .54,.78 1.1,1.55 .63,2.53z"/>
<path d="m81.317,158.5c.282,.246 .719,.342 1.272,.318 .489,.904 .957,2.174 0,2.858-.444-.615-1.176-.94-1.905-1.271-.181-1.03 .095-1.6 .633-1.91z"/>
<path d="m85.766,160.09h1.269c-.052,.367 .07,.563 .318,.634 .323,1.383-.656,1.46-.954,2.226-.506-.88-1.196-1.77-.633-2.86z"/>
<path d="m108,160.09c2.223-.54 4.04,.698 2.858,2.539-1.61-.065-1.855-1.009-2.858-.952v-1.59z"/>
<path d="m126.74,160.09c.628,.75 1.951,.802 1.589,2.539-.943,.315-1.568,.449-1.907,.636-.551-.507-.688-1.43-.636-2.541 .64,.1 1-.07 .96-.64z"/>
<path d="m77.507,160.73c.367,.266 .851,.421 1.587,.317-.07,1.024 .561,1.345 .318,2.541-1.375,.318-1.763-.354-2.541-.633-.207-1.17 .214-1.7 .636-2.23z"/>
<path d="m91.166,160.73c1.055,.895 1.574,2.742 .315,3.494-1.946,.03-2.091-3.22-.315-3.49z"/>
<path d="m114.99,160.73c1.199,.429 1.541-.127 2.541,.636v1.905c-.393-.354-.653-.274-.636,.317-1.47,.07-2.42-1.08-1.9-2.87z"/>
<path d="m143.26,160.73c.269-.06 .3,.124 .318,.317 1.237,.102 2.665-.483 2.541,2.224-.515,.545-1.329,.791-2.541,.636-.7-1.19-.41-1.46-.32-3.18z"/>
<path d="m80.999,163.9c.199-.678 1.957-.298 2.226,0 .013,.967 .183,2.091-.954,1.907-1.279,.22-.538-1.58-1.272-1.91z"/>
<path d="m141.99,164.86c.113,1.274-.006,2.323-.951,2.541-1.523,.036-1.908-1.061-1.908-2.541 1.6-.22 1.58-.8 2.86,0z"/>
<path d="m86.082,165.17c.408,.439 1.502,.194 1.907,.636v1.588c-.235,.506-1.556-.072-1.271,.951-.906-.54-1.228-2.02-.636-3.18z"/>
<path d="m135.64,166.44h1.905c.253,.595 .529,1.163 .636,1.905-1.27,1.7-3.35,.58-2.54-1.9z"/>
<path d="m87.989,6.036c.46-.996-1.54-2.654-2.223-2.859-.228-.069-.388,.602-.318,.634-.429-.206-1.052-2.021-2.859-1.271 .266,.792 .417,1.702 .318,2.859-.788,.613-3.378-.576-2.223-1.906-.89-.543-1.551,.199-2.859-.316v-1.907c1.921-.6 4.015-.542 5.082-1.271v.636c.651-1.131 1.393,.49 1.905-.635 1.373,.537 2.081,1.781 3.812,2.859 .662,.413 1.866,.259 1.588,1.589 1.618,.182 2.433,1.166 3.177,2.223 .631-.004 .403-.867 1.27-.634 2.538,2.5 5.36,2.77 6.989,6.035 2.941,.446 4.263,2.514 6.033,4.129 5.604,1.063 7.701,7.819 11.754,11.435 1.367,3.844 4.454,7.525 6.987,10.8 2.078,2.683 2.918,6.714 4.448,11.435 .538,1.667 1.528,3.044 1.905,4.766 .773,3.516 .967,7.481 1.27,12.07 4.891,1.7 8.122,6.322 12.072,9.846 .54,2.424 3.065,2.863 4.128,4.764 3.939,2.309 4.728,7.768 7.623,11.118 .16,2.487 1.334,3.961 2.858,5.082 1.564,2.898 2.221,5.956 3.813,8.577 .612,1.009 1.571,1.329 2.223,2.541 2.872,5.336 1.381,12.333 1.587,19.374 .163,5.522-3.566,9.712-5.715,13.659-.664,1.218-1.838,2.73-2.859,3.813-2.711,.359-3.624,2.518-5.082,4.128 .147,5.974-2.179,9.472-3.494,13.977-.419,.38-.499,.124-.954,0-.354,2.396-2.652,2.852-2.859,5.4-.688,.685-2.047,1.497-2.541,1.907-1.044,.869-.943,1.011-2.223,1.588-.311,.14-.69,.408-.954,.636-.641,.553-1.318,1.422-2.541,1.905-.794,.315-1.771,.046-2.541,.317-.979,.344-1.921,1.309-2.859,1.588-1.225,.366-3.055-.021-4.445,.317-2.937,.716-6.603,1.59-9.528,1.27-.556,1.179-2.787,.383-3.177,.954-1.301-1.502-4.437-.197-5.082-.318-.807-.15-1.192-.727-2.859-.315-2.246-1.778-7.391,.016-10.164-1.59-.562,1.331-3.035-1.187-3.177,0 .361-.147-2.531-1.226-1.905-1.27-.137,.011-.45,.595-.318,.634-.352-.106-1.722-1.264-1.905-1.27-.168-.005-.429,.595-.317,.636-.32-.11-.626-.821-.954-.953-.809-.328-2.12-.072-2.859-.318 .375,.124-1.957-1.08-1.587-.636-.688-.827-1.026-.551-2.223-.951-.336-.114-.253-.512-.636-.636-1.45-.468-3.027-1.401-3.813-2.859-3.663-1.026-6.418-5.341-10.164-7.305-1.349-2.357-2.874-4.539-4.446-6.672 .096-5.072-1.76-8.797-1.272-13.342-.093-.646-.858-.622-.951-1.269-2.231-.16-4.247-.559-5.4-1.272-1.996-1.232-2.541-3.544-3.813-3.492-.251,.008-.701,.308-.636,.315-.23-.03-.305-.636-.318-.636-.71-.01-1.435,.838-2.223,.636-.419-.104-.499-.553-.952-.636-1.683-.295-2.099,.486-3.177-.633-.592,.044-1.062,.209-1.272,.633-2.099-1.494-4.296-1.16-6.669-1.902-4.808-1.507-8.109-5.542-13.023-7.941-.768-.801-1.127-1.708-1.907-2.543-.641-.688-2.065-1.257-2.541-1.905-1.474-2.014-2.474-7.311-2.856-9.847-.137-.902-.809-1.731-.954-2.541-.057-.312 .352-.959 .318-1.271-.072-.639-.576-1.037-.636-1.587-.445-4.082-.331-8.334-1.905-12.39-.37-1.073-1.662-1.37-2.541-2.223-.654-.632-.972-1.736-1.589-2.224-.527-.417-.814,.143-1.27-.318-.372-.373-.212-1.025-.636-1.587-.435-.575-1.388-.693-1.905-1.271-.191-.213-.178-.721-.318-.953-.352-.585-.964-.562-1.272-.954-1.409-1.802-2.937-5.327-3.81-7.941-.771-2.302-.016-3.623 0-6.353 .005-1.376-.672-2.825-.636-4.129 .019-.625 .51-1.122 .636-1.905 .142-.874-.147-2.132 0-2.859 .421-2.098 1.838-4.45 2.541-6.988 .615-2.229 .538-4.813 1.269-6.671 .377-.954 2.632-3.011 2.223-5.082 1.029,.393 .243-1.027 1.272-.636 1.049-3.713 3.59-5.938 4.764-9.528 2.226-2.222 4.41-4.486 5.4-7.941 1.564-1.614 3.045-3.31 4.131-5.4 .282,1.634 2.97-2.928 4.446-4.129 .111-.09 .479,.482 .636,.316 1.029-1.087 1.522-3.471 2.541-2.857 1.538-1.699 3.761-3.843 5.718-4.129 1.639-2.279 4.751-3.464 5.715-4.766 1.2-.071 2.875,.333 3.177-.635 .382-.726 1.535,.633 1.271,.635 .352-.001 .292-.681 .951-.635 .574,.04 .515,.621 .636,.635 .602,.072 .571-.637 .636-.635 1.978,.095 2.753,1.274 4.446,0 .75-.564 1.499-1.357 2.541-2.541 2.249,.393 4.566,.504 5.067-.336 3.247,.793 7.093,.905 6.99,5.718 .29,.556 .589,1.104 1.587,.952 .732-.808 .507-1.976 1.587-2.859 .346-.28 .843-.046 1.272-.318 .977-.614 .816-1.514 .954-1.588 .176-.096 1.388,1.526 .633,0 .949,.217 1.065,1.265 .954,2.542-2.073,.362-3.014,1.854-4.128,3.175-.005,2.518 2.195,3.308 3.492,4.766 .884,.991 .747,2.627 2.223,2.857 .209,2.334 1.504,3.581 2.859,4.766 2.673-.976 .458-4.616 .318-8.259-.021-.554 .432-.692 .318-1.271-.336-1.716-1.303-2.478-2.223-3.812-.432-.624-.45-2.317-1.905-2.223-.14-1.092 .124-1.781 .318-2.542 .848,.739 1.893,1.283 3.174,1.588-1.057,1.627 1.05,2.445 1.908,3.177 .093,4.187 3.42,12.491-.318,15.882-.274-.893-1.719-.611-2.859-.635-.972-.617-1.042-2.135-2.541-2.224-.46-1.446-.84-2.972-1.59-4.13-3.438-2.171-4.782-6.439-8.256-8.575v-2.225c-1.137-2.502-6.574-2.471-9.531-1.905-.512,.653-1.716,.613-1.587,1.905-1.218-.158-1.681,.437-1.908,1.272-3.081-.836-6.478-.958-9.528-.318-4.286,4.29-10.965,6.187-13.977,11.752-3.635,1.234-4.63,5.11-7.941,6.67-1.339,4.588-4.782,7.076-6.352,11.435-.812,.504-1.499,2.623-2.223,4.129-.372-.051-.269-.579-.318-.953-1.838,5.151-5.674,8.302-6.036,14.93-.589,1.316-1.52,2.292-1.272,4.446-2.109,1.988-2.055,6.307-1.905,11.118 .052,1.6-.119,3.349 0,4.446 .771,7.054 7.176,11.125 9.846,15.564h1.272c.796,2.37 3.244,3.606 5.4,5.4 1.303,1.085 2.425,2.554 3.495,3.177 .344,.201 1.246-.023 1.905,.318 .848,.439 .75,.545 2.223,.951 .775,.217 1.639,.413 2.859,0 .631,2.533 4.035,.264 6.036,2.226 .199-.54 .959-.525 1.269-.954 2.942,1.629 4.888-1.424 7.941-1.587 1.321-.13 .812-2.436 2.223-1.59 .535-2.96 3.208-3.779 3.813-6.669 .708,1.375 1.236-1.02 1.587-1.906 2.743-2.447 5.364-5.012 7.941-7.624 .664,.135 .843-.218 1.272-.317 1.22-1.745 3.714-2.214 4.446-4.448 .985,.048 1.737-.217 2.541-.953 .497-.452 .644-1.671 .954-1.906 .258-.194 .305,.639 .318,.636 1.034-.22 4.255-2.901 4.764-4.446 2.138,.297 1.708-1.347 3.495-1.271 .3-.547 1.174-.52 .951-1.587 1.06,.523 1.815-1.593 2.859-1.271 1.84-1.4 2.394-2.071 5.399-2.858 .665-.394 1.194-.924 1.59-1.588 .344,.079 .215,.632 .634,.636 .987-.36 .512-.614 1.907-.318-.341-.072 .99,.261 .634,.318 .398-.063 .259-.746 .954-.636 .7,.111 1.587,.636 2.541,.953 1.202,.46 .609-.873 1.587-.635 .281,.778 .954,1.166 .636,2.541-1.569,1.059-3.063,.24-3.811-.636-6.281,.765-9.781,1.846-13.659,6.354-1-.43-1.091-.099-1.272,.953-.667-.104-1.675-.278-1.587,.953-.595-.612-2.161,.763-3.177,1.589-.975,.792-2.355,1.779-2.541,2.858-1.569-1.765-2.177,2.028-4.128,1.905-2.453,2.632-5.004,5.162-8.259,6.989-.373,.051-.269,.579-.318,.953-2.309,.658-3.687,2.245-4.449,4.447-1.158,.005-1.424,.902-2.223,1.271-.026,2.198-2.236,2.212-2.223,4.447h-.951c-.104,.745-.504,1.191-.318,2.224-3.82,4.115-6.181,9.734-5.718,17.787 .256,4.475 2.345,8.062 5.082,11.436 1.096,1.352 2.415,2.458 3.495,4.128 3.559,5.517 9.35,7.491 14.292,8.577 .191,1.08 1.835,.708 1.905,1.908 4.798,1.447 6.615,5.878 12.072,6.669 .178,.984 1.494,.835 1.587,1.905 1.957,.364 3.309-.432 4.131,.636 1.559-.181 1.21-.618 2.541-.636-.116,.54 .248,.6 .636,.636 .15,1-.454,1.24-.636,1.905-4.291,.176-4.738-.584-7.623-.636-1.587-2.402-3.797-2.017-5.082-3.175-.458,.391-.602,1.091-.636,1.905-1.187,.339-.905-.788-1.905-.636-.194-1.185 .812-2.009 0-2.859-.982,.184-1.181,1.15-1.59,1.905-.736-.215-1.093-.812-1.587-1.27-1.166,.106-.282,2.26-1.59,2.224 .845,2.05 1.187,2.996 1.272,5.399 .905-.155 .91-1.204 1.269-1.905 1.212,.163 1.621,1.133 1.59,2.541-.998,.359-.84-.093-1.59,.318 .525,1.91 1.386,3.484 2.541,4.764 .833,.088 1.368-.116 1.272-.953 1.419,.426 1.856,1.3 .954,2.541 .799,1.287 2.006,2.719 3.174,3.812 .708,.662 1.781,.912 2.541,1.587 .207,.184 .083,.789 .318,.954 .463,.32 1.649-.093 1.59,.951 1.538,.155 3.035,.354 3.492,1.59 3.443,.907 7.805,1.822 10.482,2.541 .292,.078 .264,.334 .318,.636 1.372-.771 5.258,.915 5.718,0 .198,.54 .959,.522 1.271,.951 2.601-.747 4.56,.099 6.352,.637 1.427-.306 2.766-1.12 4.448,0 1.014-.574 1.668-.51 2.541,.317 .372-.052 .267-.579 .315-.954 1.667,.326 5.09,.153 6.99-.951 .636-.108 .992,.064 .951,.636 .501-1.193 5.429-.242 5.718-1.589 2.877,.664 4.25-2.076 7.941-2.224 1.67-1.295 2.833-3.097 5.082-3.812 1.37-3.5 4.937-4.803 4.767-9.847-.53,.318-.228,1.471-.954,1.59-.571,.039-.67-.39-1.271-.32-.491-.46-.279-1.623-.315-2.538 1.011,.594 1.936-.688 2.223,.636 .083-2.319-3.029-6.028-5.399-3.495-.207,1.267 1.207,.91 2.223,.951-.23,.972 .548,.936 .318,1.908-.98-.238-.61,.871-1.59,.636 .284-1.029-1.034-.45-1.27-.954 .069-1.163 .437-1.218 0-2.226-2.771-.099-3.98,.284-5.4,2.544-1.574-.439-.561-3.464-1.271-4.767 5.39,.46 7.998-1.944 11.118-1.588 .863-.419 2.21-2.011 2.858-1.587 1.006-1.114 1.797-2.44 3.495-2.859 .372-.051 .267-.578 .318-.953 .609,.06 2.988-1.303 4.446-2.541 3.324-2.823 5.387-8.076 7.305-12.072 .075-7.744 2.852-19.636-3.177-22.869-1.125-2.05-.946-5.405-3.175-6.352-.912-3.748-4.28-5.04-4.448-9.53-2.014-2.037-2.461-4.9-4.128-6.987-1.745-2.183-4.904-4.059-6.987-6.354-1.23-1.352-1.983-3.183-3.177-4.446-.753-.794-2.164-.785-2.224-2.224-1.502,.017-1.807-1.16-2.541-1.906-2.277-1.099-3.189-.735-5.085-2.541-5.544,.424-10.368-1.941-14.292-4.765-.235,.506-1.556-.073-1.271,.954-2.001-1.766-4.234-2.328-6.987-3.812-.468,1.238 1.064,3.419-1.271,3.812 .09-.724-.075-1.194-.634-1.271-.237-.979 1.094-.388 .634-1.588-.07-.458-.946-.111-.952-.636-2.05,2.599-8.651,6.647-7.94,.954 1.199-.46 .607,.873 1.587,.635 3.12-1.192 4.31-3.829 7.306-3.812 .848-.41 .234-1.782 .636-1.905 .749-.41 .592,.042 1.59-.318 .346,.711 .524,1.591 .951,2.223 1.546,.147 1.196,.212 2.223-.318 .982,2.65 2.712,4.088 5.4,2.225 1.163,.318 .863,2.102 2.226,2.223 .785-.273-.096-2.211 .633-2.541 3.852-.12 .688,3.346 2.541,4.764 4.157,1.25 4.493-1.97 6.036-4.129-.279-1.236-1.683-1.835-.954-3.176 1.582-.31 1.26,1.284 2.226,1.588 .35-5.434-2.535-10.382-3.812-15.248-.651,.089-.633,.849-.954,1.271 .649,1.022 2.112,2.88 .637,4.129-1.282,.013-1.309-1.233-2.224-1.588 .168-1.102 .861-1.68 1.27-2.541-1.003-.64-1.965-.615-1.905-2.859 .984,.108 1.518-.735 2.223,0-1.108-4.079-4.898-5.478-6.351-9.211-.711,.137-.13,1.565-.318,2.224-1.651,.661-2.262-.396-2.223-2.224 .405-.434 1.499-.434 1.905,0-1.729-5.471-5.669-8.729-8.577-13.023-1.897-.749-3.77-1.526-5.082-2.859-.673,.727 .142,1.126-.318,2.225-1.308-.008-2.021-.188-2.541-1.588 .956-.584 .876-.997 2.224-.636 .504-1.562-1.64-.476-1.27-1.905-1.445,.348-1.833-1.022-2.541-1.588-.062-.051-.62,.256-.954,0-.566-.436-.94-1.402-1.587-1.907-.846-.657-2.224-.575-2.541-1.905-2.792-1.255-2.993-1.22-5.718-2.541-.814,.032-.513,1.183-.954,1.588-.607-.337-1.957,.089-2.224-1.272 .429-.678 .911-1.74 .913-1.275zm-49.554,101.32c2.668,.945-1.067-2.229-1.905-.954-.589,.68-.646,1.895-1.905,1.905-1.292-.507-.982-2.619-1.905-3.495-2.908,.289 .943,3.469-1.908,3.812-1.192-1.188-.494-2.295-.951-4.128-2.319-1.557-4.351-2.96-7.308-3.812-.279,.777-.285,1.832-1.27,1.904-.855-.625-.861-2.102-1.271-3.174-2.924,3.443-2.337,8.686-1.27,13.338 1.347,5.873 5.437,11.457 9.528,12.708 1.171,1.825 3.042,2.564 4.449,3.492 2.249,1.486 3.945,3.02 6.669,2.859 .235-1.295-1.024-1.094-.636-2.541 1,.364 .773-.499 1.272-.636 .093,.648 .858,.625 .954,1.271 .052,1.003-.845,1.06-.636,2.223 1.36,.228 2.291,.885 3.492,1.272 .543-1.789 1.815-2.847 2.226-4.767-3.27-4.669-6.266-11.562-4.449-19.375-.582-.476-.791-1.326-1.587-1.59-.675,1.18 .341,2.188-.954,2.859-.476-.688-1.59-.739-1.587-1.905 .319-.39 .301-1.15 .952-1.24zm1.59,24.78c.085-.432-.196-1.24-.318-.636-.085,.44 .196,1.24 .318,.64z"/>
<path d="m77.189,26.046c.636-.739 .928,.276 1.905,.636v1.905c-.256,.274-.871,.188-.954,.636-1.176-.2-1.771-.982-1.587-2.541 .124-.165 1.543-.471 .636-.636z"/>
<path d="m97.517,26.682c.062-.36 .318-.177 .318,0 .354-1.021 2.088-.673 2.541,0 .229,.972-.548,.935-.318,1.905-1.429,.104-1.741-.727-2.543-1.905z"/>
<path d="m99.741,32.4c.989-.703 1.566,.026 2.541,0v1.905c-.637-.108-.993,.064-.952,.636-.426-.064-.592-1.319-.636,0-.06-.832-.764-1.974-.949-2.541z"/>
<path d="m17.789,35.894c.672,.29-.6,1.276-.318,2.223-1.143,.191-.936-.969-1.905-.953-.137-1.407 .53-2.011 1.59-2.223 .323,.052 .31,1.939 .633,.953z"/>
<path d="m66.389,37.482c-.127-.761 1.447,.176 .954-.954 .543-.066 .822,.543 .951,0 .323,.207 .329,.731 .954,.636 .184,1.244-.274,1.844-.636,2.541-.462-.959-1.029,.1-1.587,0-.29-.253-.463-1.854-.636-2.223z"/>
<path d="m80.999,40.976c.362,.061 .179,.319 0,.318 .732-.31 2.808,.979 1.59,2.541-1.104-.247-1.476,.04-2.223-.952-.153-1.001 .452-1.243 .633-1.907z"/>
<path d="m23.507,83.858c-.587,.048-.194,1.075-.636,1.271-.543,.066-.822-.542-.952,0-1.628-1.232-1.651-2.487 0-3.177-.522,.218 .471,.662 .952,0 .163,1.003 .936,1.395 .954,2.541-.31-.01-.246-.389-.318-.635z"/>
<path d="m133.41,88.304c.059-.361 .317-.176 .314,0 .902,.054 .621-1.074 1.908-.635 .06,1.692 .419,2.265-.636,3.176-1.3-.062-.87-1.871-1.58-2.541z"/>
<path d="m83.225,96.564c-.453-.936-.962-2.006-.318-3.177 1.624,.067 2.102,1.285 2.541,2.541-.548,.408-1.029,.491-2.223,.636z"/>
<path d="m97.835,111.17c.06-.361 .317-.176 .317,0 .541,.116 .6-.248 .636-.636 .427,.064 .59,1.318 .634,0 1.127-.171 .783,1.127 1.907,.954 .13,.765-.581,.69-.317,1.587-1.872,.63-2.586,.05-3.175-1.9z"/>
<path d="m34.625,115.62c-.439-.193-.049-1.22-.636-1.27 .297-1.104 1.277,.293 .954-1.59 .995,.595 1.352,1.825 1.587,3.178-.793-.039-.995-.607-1.269,.317-.297-.181-.481-.884-.636-.317-.362-.06-.176-.32 0-.32z"/>
<path d="m56.543,119.12c.359,.062 .176,.32 0,.317 .494,.111 2.624-.821 2.541,1.27-.75,.311-1.215,.904-1.908,1.271-.605-.54-1.388-1.95-.633-2.86z"/>
<path d="m96.566,126.74c-.347,.08-.217,.633-.636,.636-1.386-.297-1.83-1.957-.954-2.859 .851,.549 1.207-.225 1.905,.637-.099,.741-.62,1.311 0,1.904-.168,.48-.331,.02-.315-.32z"/>
<path d="m110.22,137.86c.439-.067 .727-.846 2.226-.637 .37,.962 .962,1.701 .315,2.859-.724,.437-1.194-.816-1.269,0-1-.16-.51-1.82-1.27-2.22z"/>
<path d="m120.39,161.04c1.218-1.543 3.547-.145 2.541,1.908-1.35,.134-1.474-.59-1.908-.32-.49-.07 .19-1.18-.63-1.59z"/>
</g>
</svg>
