<svg xmlns="http://www.w3.org/2000/svg" viewBox="0 0 104.22 128.49" xmlns:xlink="http://www.w3.org/1999/xlink">
<defs>
<filter width="1.054" x="-.027" y="-.232" height="1.464" color-interpolation-filters="sRGB" id="filter6556">
<feGaussianBlur stdDeviation=".73181"/>
</filter>
<filter color-interpolation-filters="sRGB" id="filter6538">
<feGaussianBlur stdDeviation="2.89149"/>
</filter>
<filter width="1.392" x="-.196" y="-.653" height="2.305" color-interpolation-filters="sRGB" id="filter4317">
<feGaussianBlur stdDeviation=".44534"/>
</filter>
<filter width="1.522" x="-.261" y="-.099" height="1.199" color-interpolation-filters="sRGB" id="filter3948">
<feGaussianBlur stdDeviation="2.74648"/>
</filter>
<filter color-interpolation-filters="sRGB" id="filter4158">
<feGaussianBlur stdDeviation=".90485"/>
</filter>
<filter width="1.437" x="-.219" y="-.625" height="2.25" color-interpolation-filters="sRGB" id="filter4074">
<feGaussianBlur stdDeviation=".99494"/>
</filter>
<linearGradient id="linearGradient9350" xlink:href="#linearGradient4108" y1="25.314" y2="174.32" x1="-94.714" gradientUnits="userSpaceOnUse" x2="-141.36"/>
<linearGradient id="linearGradient9352" xlink:href="#linearGradient4108" y1="49.608" y2="168.89" x1="-76.288" gradientUnits="userSpaceOnUse" x2="-25.35"/>
<linearGradient gradientTransform="translate(-.38603 -1.9301)" id="linearGradient9348" x1="-105" gradientUnits="userSpaceOnUse" x2="-56.746">
<stop offset="0" stop-color="#ec981a"/>
<stop offset=".392" stop-color="#f5c61e"/>
<stop offset="1" stop-color="#e88114"/>
</linearGradient>
<linearGradient id="linearGradient3831">
<stop offset="0" stop-color="#f1ba02"/>
<stop offset=".128" stop-color="#eab801"/>
<stop offset=".52" stop-color="#f3bb02"/>
<stop offset=".854" stop-color="#f7cb24"/>
<stop offset="1" stop-color="#eb7e06"/>
</linearGradient>
<linearGradient gradientTransform="translate(-197.62 -9.2807)" id="linearGradient9356" xlink:href="#linearGradient3049" x1="104.92" gradientUnits="userSpaceOnUse" x2="124.49"/>
<linearGradient gradientTransform="translate(0 14.74)" id="linearGradient9346" x1="-109.05" gradientUnits="userSpaceOnUse" x2="-53.31">
<stop offset="0" stop-color="#423413"/>
<stop offset=".277" stop-color="#c8b686"/>
<stop offset=".526" stop-color="#75633f"/>
<stop offset=".776" stop-color="#c1b188"/>
<stop offset="1" stop-color="#2e2b1a"/>
</linearGradient>
<linearGradient gradientTransform="translate(-197.62 -9.2807)" id="linearGradient9358" xlink:href="#linearGradient3049" x1="103.91" gradientUnits="userSpaceOnUse" x2="125.98"/>
<linearGradient id="linearGradient3049">
<stop offset="0" stop-color="#e47e00"/>
<stop offset=".128" stop-color="#eab801"/>
<stop offset=".52" stop-color="#f3bb02"/>
<stop offset=".854" stop-color="#f7cb24"/>
<stop offset="1" stop-color="#eb7e06"/>
</linearGradient>
<linearGradient id="linearGradient9380" y1="111.29" y2="96.23" x1="-84.235" gradientUnits="userSpaceOnUse" x2="-83.966">
<stop offset="0" stop-color="#cd7207"/>
<stop offset="1" stop-color="#cd7207" stop-opacity="0"/>
</linearGradient>
<linearGradient id="linearGradient4108">
<stop offset="0" stop-color="#eb7a00"/>
<stop offset="1" stop-color="#ebb402"/>
</linearGradient>
<linearGradient id="linearGradient9378" y1="111.52" y2="113.06" x1="-37.519" gradientUnits="userSpaceOnUse" x2="-118.66">
<stop offset="0" stop-color="#e88114"/>
<stop offset="1" stop-color="#e88114" stop-opacity="0"/>
</linearGradient>
<linearGradient gradientTransform="matrix(.83924 0 0 1.6691 -178.46 17.175)" id="linearGradient9364" xlink:href="#linearGradient3049" x1="103.91" gradientUnits="userSpaceOnUse" x2="125.98"/>
<radialGradient cx="-97.114" cy="224.51" gradientTransform="matrix(1 0 0 .38448 0 138.69)" id="radialGradient9386" r="4.579" gradientUnits="userSpaceOnUse">
<stop offset="0" stop-color="#fff"/>
<stop offset="1" stop-color="#fff" stop-opacity="0"/>
</radialGradient>
<radialGradient cx="114.88" cy="119.71" gradientTransform="matrix(1 0 0 .44218 -197.62 51.984)" id="radialGradient9354" xlink:href="#linearGradient3831" r="23.875" gradientUnits="userSpaceOnUse"/>
<radialGradient cx="-79.829" cy="86.704" gradientTransform="matrix(1 0 0 .49807 0 44.687)" id="radialGradient9372" r="9.785" gradientUnits="userSpaceOnUse">
<stop offset="0" stop-color="#fff"/>
<stop offset="1" stop-color="#fff" stop-opacity="0"/>
</radialGradient>
<radialGradient cx="-120.29" cy="83.118" gradientTransform="matrix(1 0 0 1.0829 0 -7.8633)" id="radialGradient9374" r="14.481" gradientUnits="userSpaceOnUse">
<stop offset="0" stop-color="#fff"/>
<stop offset="1" stop-color="#fff" stop-opacity="0"/>
</radialGradient>
<radialGradient cx="-74.791" cy="102.76" gradientTransform="matrix(1.3478 0 0 .67338 26.016 33.562)" id="radialGradient9368" r="7.847" gradientUnits="userSpaceOnUse">
<stop offset="0" stop-color="#fff"/>
<stop offset="1" stop-color="#fff" stop-opacity="0"/>
</radialGradient>
<radialGradient cx="-85.164" cy="151.87" gradientTransform="matrix(.99998 -.00617 .01429 2.3143 -2.1712 -200.11)" id="radialGradient9362" r="38.215" gradientUnits="userSpaceOnUse">
<stop offset="0" stop-color="#e78016" stop-opacity="0"/>
<stop offset="1" stop-color="#e78016"/>
</radialGradient>
<radialGradient cx="115.18" cy="175.55" gradientTransform="matrix(.94434 -.00855 .02767 3.0575 -196.38 -360.16)" id="radialGradient9360" xlink:href="#linearGradient3831" r="38.215" gradientUnits="userSpaceOnUse"/>
<radialGradient cx="-77.854" cy="96.22" gradientTransform="matrix(.60393 .11745 -.03498 .17986 -27.47 86.162)" id="radialGradient9370" r="11.036" gradientUnits="userSpaceOnUse">
<stop offset="0" stop-color="#fff"/>
<stop offset="1" stop-color="#fff" stop-opacity="0"/>
</radialGradient>
<radialGradient cx="-81.451" cy="225.13" gradientTransform="matrix(1.1451 -.00448 .00217 .55538 11.329 99.734)" id="radialGradient9382" r="24.32" gradientUnits="userSpaceOnUse">
<stop offset="0" stop-color="#f5c61e"/>
<stop offset="1" stop-color="#ed8602"/>
</radialGradient>
<radialGradient cx="113.96" cy="123.89" gradientTransform="matrix(.99005 0 0 .17164 -196.1 93.345)" id="radialGradient9366" xlink:href="#linearGradient3831" r="38.781" gradientUnits="userSpaceOnUse"/>
<radialGradient cx="-92.807" cy="224.65" gradientTransform="matrix(1 0 0 .4635 0 120.88)" id="radialGradient9384" r="3.798" gradientUnits="userSpaceOnUse">
<stop offset="0" stop-color="#fff"/>
<stop offset="1" stop-color="#fff" stop-opacity="0"/>
</radialGradient>
</defs>
<g color="#000">
<g transform="matrix(.67119 0 0 .67119 97.11 388.42)">
<path opacity=".5" filter="url(#filter6538)" d="m-107.44-564.31c-.7216-.005-1.4353,.0325-2.0938,.0937-3.7238,.1558-7.5046,1.391-10.656,3.7812-2.8238,2.208-4.9297,5.0832-6.3438,8.1562-1.2102,2.628-2.0484,5.3615-2.5938,8.125-.7141,3.6191-1.0321,7.414-1.1562,11.188-.1608,5.433 2.0719,10.497 4.8125,14.875 2.9135,4.683 6.3647,8.8778 9.0625,13.25 1.9827,3.2133 4.1,6.1583 6.125,8.9062 2.6152,3.5488 5.0816,6.7366 7.25,9.5 2.4811,3.1619 4.5918,5.7624 6.0938,7.5938 .0787,.096 .112,.127 .1875,.2188 6.3763,10.957 16.062,19.611 21.344,23.844 .7268,.5824 1.2106,.9344 1.75,1.3438h-3v3.4062h1.8438c.3429,2.6142 1.3754,11.811-.5312,16.469-2.0173,4.928-8.8943,11.035-12.75,14.219-.2187-.0336-1.0625-.1562-1.0625-.1562-1.1119,0-2,.7574-2,1.6875v1.5c0,.0418-.0036,.0842 0,.125-.0825,.0263-.1408,.0672-.2188,.0937-.0023-.0009-.0625-.0312-.0625-.0312-.3473,0-.646,.1566-.9375,.4375-.5372,.2824-.8438,.5701-.8438,.875 0,.0991 .0346,.1842 .0938,.2812-.3085,.7474-.5,1.6748-.5,2.7188v3.875c0,2.4059 .9744,4.1644 2.1875,4.3438 0,0 15.915,1.9237 23.906,1.9375 8.3488,.0144 25-1.9375 25-1.9375 1.218,0 2.1875-1.9379 2.1875-4.3438v-3.875c0-.961-.172-1.8135-.4375-2.5312 .1554-.1559 .25-.3071 .25-.4688 0-.3896-.4821-.7743-1.3438-1.125-.151-.0942-.3054-.1283-.4688-.1562-.0663-.0229-.1178-.0399-.1875-.0625 .0056-.0512 0-.1038 0-.1562v-1.5c0-.9301-.8881-1.6875-2-1.6875 0,0-.3726,.0573-.4062,.0625-4.2816-2.7298-12.982-8.7431-15.344-14.125-2.0216-4.6076-.373-13.841 .1562-16.469h2v-3.4062h-2.9688c.6889-.57 1.4263-1.1766 2.4375-2.0625 4.8012-4.2061 12.665-11.729 18.375-20.312 .0688-.0736 .1496-.1447 .2188-.2188 .6482-.6949 1.3121-1.4081 2-2.1562 1.977-2.1502 4.1283-4.5484 6.5-7.2812 2.3456-2.7026 4.9193-5.7436 7.6875-9.2812 2.0564-2.6251 4.2821-5.5192 6.4375-8.9375 1.2385-1.9608 2.6747-3.984 4.2188-6.1562 1.5441-2.1723 3.1685-4.5124 4.75-7.1562 1.3054-2.1179 2.5595-4.5262 3.4375-7.2188 .878-2.6925 1.396-5.6607 1.1875-8.9062-.2753-3.5641-.8014-7.3667-1.875-11.281-.768-2.8005-1.7796-5.5196-3.125-8.0938-1.6064-3.0806-3.8442-5.9183-6.7188-8.0312-3.2733-2.3319-7.0841-3.4307-10.75-3.5312-2.6501-.1966-5.8459-.0361-8.8438,1.5312-.9333,.5031-1.7979,1.3204-2.4688,2.4062-.5336,.9578-.8013,1.9447-.8125,2.9062 .0341,1.8046 .5569,3.3271 1.2188,4.5 .3559,.5627 .6824,1.1059 1.0312,1.6562 1.6886,2.0348 3.33,3.9738 4.875,5.8125 1.2325,1.6626 2.2809,3.2646 3.0938,4.8438 .7871,1.6174 1.4186,3.0189 1.4375,4.25 .1113,1.0348-.3518,2.2279-.8125,3.4062-.6563,1.5862-1.4672,2.9674-2.1875,4.1562-.3846,.5512-.7149,.9983-1.0312,1.4688l.0938-.3125c-2.7702-1.6873-7.5357-3.1552-13.594-4.2188-3.3838-4.6972-8.4209-8.3356-14.375-10.25v-4.4375h1.6562v-2.0312h-1.625c-.0931-.2392-.1825-.4869-.2812-.7188-2.1278-4.9951-5.5412-8.25-9.4062-8.25-4.0474,0-7.6203,3.5701-9.7188,8.9688h-1.0625v2.0312h1.7812v4.2812c-6.0701,1.8348-11.212,5.4436-14.688,10.156 .8221-.1312 1.6681-.258 2.5312-.375 6.0421-.8191 13.054-1.2812 20.562-1.2812 2.2849,0 4.538,.04 6.7188,.125-2.0646-.0759-4.1881-.0937-6.3438-.0937-17.113,0-31.712,2.4719-37.656,6-.1338-.2186-.2311-.3936-.375-.625-.679-1.2614-1.4635-2.7169-2.0625-4.375-.4249-1.2264-.8201-2.5198-.6562-3.625 .0908-1.3008 .7525-2.6918 1.5938-4.2812 .8871-1.5828 2.0324-3.165 3.3125-4.8125 .9985-1.2791 2.0885-2.5546 3.25-3.8438 .3463-.3841 .6754-.7803 1.0312-1.1562 .0971-.1027 .2174-.2143 .3125-.3125 .0651-.08 .123-.1398 .1875-.2188 .023-.0282 .0395-.0657 .0625-.0937 .3767-.5763 .7729-1.1597 1.1562-1.75 .6839-1.19 1.1778-2.7348 1.2188-4.5938-.0101-.9964-.2584-2.0363-.8125-3.0312-.7007-1.1297-1.6019-1.956-2.5625-2.4688-2.3209-1.1977-4.7101-1.5781-6.875-1.5938zm-1.8438,5.875c2.5236-.0135 4.6596-.1425 5.9375,.6875 .2717,.1725 .4802,.2918 .5,.375 .0541,.0371 .0977,.168 .125,.3438 .1093,.414-.1394,1.0614-.4375,1.8125-.2023,.3685-.425,.7287-.625,1.0938-.004,.009 .004,.0224 0,.0312-.1008,.1163-.2164,.2302-.3125,.3438-.371,.4383-.7154,.8776-1.0625,1.3125-1.1697,1.4646-2.2451,2.94-3.2188,4.4062-1.2573,1.8861-2.3645,3.8031-3.2188,5.75-.8637,1.864-1.4776,3.9991-1.4375,6.1562 .1309,2.0956 .8661,3.6884 1.5938,4.9375 1.0091,1.8159 2.1009,3.2304 3.0625,4.375 .4952,.5217 .8924,.948 1.3125,1.375 .1818,2.1047 2.1888,24.936 5.6562,36.375 .7352,2.4254 1.7201,4.7867 2.8438,7.0625-1.1399-1.6547-2.234-3.2178-3.5312-5.125-2.0017-2.9431-4.2145-6.2304-6.625-9.9375-1.7982-2.7673-3.724-5.74-5.5312-9.0625-1.2054-2.1964-2.5923-4.3784-4.0312-6.625-1.439-2.2466-2.9355-4.5481-4.2812-7-1.0453-1.9743-2.055-4.057-2.75-6.2188-.695-2.1618-1.0928-4.3977-.8125-6.625 .3421-3.35 .8335-6.8194 1.75-10.25 .6557-2.4544 1.4974-4.7881 2.625-6.9062 1.3144-2.4612 2.9514-4.6201 4.9375-6.0625 2.1324-1.6222 4.8629-2.4682 7.5312-2.625zm82.719,.1562c2.6694,.1038 5.3925,.8498 7.5938,2.375 2.0857,1.3831 3.8678,3.4959 5.3438,5.9062 1.288,2.112 2.3242,4.4394 3.1875,6.875 1.1306,3.1898 1.8993,6.7319 2.4375,10.375 .3678,2.3022 .1329,4.7029-.5,7.0938s-1.6707,4.7616-2.8438,7c-2.5247,4.7837-5.7323,9.1877-8.25,13.688-1.8374,3.2851-3.8983,6.3185-5.8438,9.125-2.513,3.6253-4.9118,6.8826-7.0312,9.6875-2.4252,3.2096-4.4768,5.8198-5.9375,7.6875-.2882,.3685-.4464,.5351-.6875,.8438 2.8785-4.6679 5.0393-9.6045 5.6562-14.438 1.4155-11.088 2.4499-28.956 2.6562-32.656 .7539-.6359 1.6519-1.4602 2.7812-2.5312 1.0095-1.0812 2.1279-2.395 3.1875-4.125 .7672-1.2087 1.5353-2.735 1.7188-4.75 .1121-2.1006-.4157-4.2468-1.2188-6.125-.8127-1.9919-1.8922-3.9451-3.125-5.875-1.38-1.912-2.8416-3.922-4.375-5.9688-.225-.4123-.459-.8042-.6875-1.2188-.2786-.739-.491-1.3649-.375-1.7188 .0285-.1425 .0297-.251 .0625-.25-.0089-.0414 .1951-.1195 .4375-.2812 1.2089-.8159 3.3073-.6825 5.8125-.7188zm-34.188,9.875c.1304,0 .2467,.026 .375,.0312h-1c.2053-.0107 .4244-.0312 .625-.0312zm-44.625,22.281c2.2839,.1769 19.068,1.4726 31.625,1.8438-11.968-.3326-27.732-1.4894-31.594-1.7812-.0105-.0179-.0207-.0445-.0312-.0625zm54.656,1.2812c-.0888,.005-.1607,.0262-.25,.0312-2.0742,.1164-4.1686,.219-6.2188,.3125-1.1651,.0531-2.2544,.0832-3.375,.125 3.1602-.1163 6.5038-.2792 9.8438-.4688z"/>
<path opacity=".5" filter="url(#filter6556)" d="m-423.95-273.15c0,2.0905-14.687,3.7852-32.805,3.7852s-32.805-1.6947-32.805-3.7852 14.687-3.7852 32.805-3.7852 32.805,1.6947 32.805,3.7852z" transform="translate(389.88 -130.7)"/>
</g>
<g transform="matrix(.6416 0 0 .67119 104.23569 -50.75908)">
<path fill="url(#linearGradient9346)" d="m-106.75,238.19s8.4872,3.0076 12.784,3.6111c4.2496,.5969 8.5228,0 12.784,0 4.2614,0 8.5345,.5969 12.784,0 4.2969-.6035 12.784-3.6111 12.784-3.6111 1.2741,0 2.2999,1.9369 2.2999,4.3428v3.8603c0,2.4059-1.0257,4.3428-2.2999,4.3428 0,0-17.397,1.9381-26.131,1.9238-8.3599-.0138-25.006-1.9238-25.006-1.9238-1.269-.1793-2.2999-1.9369-2.2999-4.3428v-3.8603c0-2.4059 1.0257-4.3428 2.2999-4.3428z"/>
<path fill="#35311f" d="m-146.85,290.01c0,1.9598-12.099,3.5485-27.023,3.5485s-27.023-1.5887-27.023-3.5485 12.099-3.5485 27.023-3.5485 27.023,1.5887 27.023,3.5485z" transform="matrix(1.0202 0 0 1 96.32 -50.498)"/>
</g>
</g>
<g transform="matrix(.67119 0 0 .67119 106.91206 -42.14838)">
<path fill="url(#linearGradient9348)" d="m-105.39,224.33s12.596-9.456 15.441-16.406c2.2185-5.4196 .386-17.564 .386-17.564h15.055s-2.7389,12.202-.386,17.564c3.1686,7.2218 17.757,15.634 17.757,15.634s-16.048,2.1877-24.127,2.3162c-8.0576,.1281-24.127-1.5441-24.127-1.5441z"/>
<path fill="url(#linearGradient9350)" d="m-118,118.46s-.1312,.1156-.3965,.3488c-.2642,.2048-1.8711-1.2561-4.5888-4.119-.9616-1.1446-2.0472-2.5577-3.0563-4.3735-.7276-1.2491-1.4611-2.8503-1.592-4.9459-.0401-2.1572 .573-4.289 1.4366-6.1529 .8543-1.9469 1.9619-3.8736 3.2192-5.7596 .9736-1.4662 2.0496-2.9373 3.2193-4.4019 .3471-.4349 .7052-.8723 1.0762-1.3106 .1011-.1194 .2046-.2405 .3109-.3629-.009,.0181-.018,.0358-.0262,.0531-.003,.0063-.006,.0122-.009,.0184 .2153-.3929 .4318-.7879 .6497-1.1848 .2981-.7511 .5398-1.386 .4306-1.8-.0273-.1758-.0614-.3231-.1155-.3602-.0198-.0832-.2283-.2048-.5-.3773-1.2779-.83-3.4254-.674-5.949-.6605-2.6684,.1568-5.3938,.9843-7.5261,2.6065-1.9861,1.4424-3.6104,3.6094-4.9248,6.0706-1.1276,2.1182-1.9855,4.4325-2.6412,6.8869-.9165,3.4306-1.3987,6.9104-1.7408,10.26-.2802,2.2273 .1146,4.458 .8095,6.6198 .695,2.1618 1.6922,4.2549 2.7375,6.2292 1.3457,2.4519 2.844,4.7483 4.2829,6.995 1.439,2.2466 2.8208,4.4419 4.0262,6.6383 1.8072,3.3225 3.7366,6.2956 5.5348,9.0629 2.4105,3.707 4.6225,6.9721 6.6243,9.9151 2.0235,2.975 3.8369,5.6142 5.4984,8.0068 .5781,.8325 1.1378,1.6348 1.6829,2.41 .0581,.0827 .1161,.1651 .1739,.2471 .1202,.1706 .2142,.3071 .2828,.4109 .0514,.0778 .0885,.1372 .1116,.1788 .0118,.0212 .0199,.0377 .0245,.0497 .01,.0253 .003,.0303-.0189,.0155-.0106-.007-.0248-.0188-.0425-.035-.0353-.0322-.0846-.0821-.1476-.1494-.1245-.1331-.3024-.334-.5302-.5987-.445-.5172-1.0803-1.2779-1.8804-2.2534-1.5019-1.8313-3.5857-4.4179-6.0668-7.5798-2.1684-2.7634-4.6445-5.9624-7.2598-9.5112-2.025-2.7479-4.1596-5.689-6.1424-8.9023-2.6978-4.3722-6.1281-8.5584-9.0416-13.241-2.7406-4.3781-4.9843-9.4468-4.8235-14.88 .1241-3.7735 .4521-7.5533 1.1663-11.172 .5453-2.7635 1.383-5.4978 2.5932-8.1259 1.4141-3.073 3.5039-5.9658 6.3277-8.1739 3.1516-2.3903 6.9508-3.6223 10.675-3.7781 2.6337-.2449 5.8648-.088 8.9594,1.5089 .9606,.5127 1.856,1.3426 2.5567,2.4722 .5541,.9949 .821,2.0302 .8311,3.0266-.041,1.859-.5597,3.4014-1.2436,4.5913-.3834,.5903-.7636,1.1738-1.1404,1.7501-.023,.0281-.0462,.0566-.0692,.0848-.0645,.079-.1292,.1586-.1944,.2386-.0951,.0982-.1911,.1988-.2883,.3015-.3558,.376-.7061,.7571-1.0524,1.1412-1.1615,1.2891-2.2461,2.5743-3.2446,3.8534-1.2801,1.6475-2.4079,3.2373-3.295,4.8201-.8412,1.5894-1.5308,2.9842-1.6216,4.285-.1639,1.1052 .2543,2.3756 .6792,3.602 .599,1.6581 1.3584,3.1163 2.0375,4.3778 2.015,3.2398 3.0502,5.2471 2.8222,5.4756 .2581-.2268 .3894-.3425 .3894-.3425z"/>
<path fill="url(#linearGradient9352)" d="m-47.04,118.46s-.1313-.1156-.3964-.3489h0c-.2381-.2368 .8702-2.0946 3.0474-5.2149 .7203-1.1889 1.5282-2.5634 2.1845-4.1495 .4607-1.1783 .9279-2.3665 .8167-3.4013-.0189-1.2311-.637-2.6286-1.4241-4.246-.8128-1.5791-1.8776-3.1806-3.1101-4.8431-1.545-1.8387-3.166-3.7805-4.8546-5.8153-.3488-.5503-.7012-1.1069-1.057-1.6697-.6619-1.1729-1.1671-2.6778-1.2012-4.4824 .0112-.9615 .2675-1.9603 .8011-2.9181 .6708-1.0859 1.5364-1.8899 2.4697-2.3931 2.9979-1.5673 6.1938-1.7547 8.8439-1.5581 3.6659,.1005 7.4709,1.2131 10.744,3.545 2.8745,2.113 5.121,4.9361 6.7273,8.0166 1.3454,2.5742 2.372,5.2957 3.14,8.0962 1.0735,3.9146 1.5868,7.7298 1.8622,11.294 .2085,3.2455-.3223,6.227-1.2003,8.9196-.878,2.6925-2.1052,5.0968-3.4106,7.2147-1.5815,2.6438-3.2348,4.9715-4.7789,7.1438s-2.9813,4.1878-4.2198,6.1487c-2.1554,3.4183-4.3693,6.3237-6.4257,8.9488-2.7682,3.5376-5.3341,6.5779-7.6797,9.2805-2.3717,2.7328-4.5265,5.1186-6.5035,7.2689-.6879,.7482-1.3547,1.468-2.0029,2.1629-.0692,.0741-.1381,.148-.2069,.2216-.143,.153-.2582,.2731-.3465,.3615-.0661,.0662-.1172,.1145-.1535,.1456-.0185,.0158-.0332,.0271-.0441,.034-.023,.0145-.0292,.009-.0189-.0155 .0049-.0118 .0136-.0281 .026-.0488 .0247-.0411 .064-.0996 .1175-.1749 .1059-.1491 .2672-.3645 .4799-.6423 .4155-.5427 1.0273-1.3245 1.8055-2.3195 1.4607-1.8678 3.5099-4.4863 5.9351-7.6959 2.1194-2.8049 4.5312-6.0591 7.0442-9.6844 1.9455-2.8065 3.9807-5.8243 5.8182-9.1094 2.5177-4.4998 5.7415-8.9006 8.2662-13.684 1.173-2.2384 2.199-4.6095 2.8319-7.0004 .6329-2.3909 .8704-4.8008 .5025-7.1031-.5382-3.6431-1.3061-7.1921-2.4367-10.382-.8633-2.4356-1.9-4.7452-3.188-6.8572-1.4759-2.4104-3.2387-4.5302-5.3244-5.9134-2.2012-1.5252-4.9263-2.2695-7.5957-2.3734-2.5052,.0362-4.6246-.1063-5.8335,.7096-.2424,.1617-.4219,.2567-.413,.2981-.0328-.0014-.0571,.1092-.0855,.2517-.116,.3538 .1096,.952 .3882,1.691 .2285,.4146 .4552,.828 .6802,1.2403 1.5334,2.0468 2.9935,4.0341 4.3735,5.9462 1.2328,1.9299 2.3115,3.9084 3.1242,5.9002 .803,1.8781 1.3513,4.0135 1.2391,6.114-.1834,2.015-.9623,3.5364-1.7295,4.7452-1.0596,1.73-2.1938,3.0641-3.2033,4.1453-2.8364,2.6901-4.5597,4.0546-4.8141,3.8584v0c.258,.227 .3893,.3426 .3893,.3426z"/>
</g>
<g color="#000" transform="matrix(.67119 0 0 .67119 106.91206 -42.14838)">
<path fill="url(#radialGradient9354)" d="m-91.937,94.938v4.5c-6.0701,1.8348-11.212,5.4435-14.688,10.156 6.5767-1.0493 14.512-1.6562 23.094-1.6562 9.2684,0 17.793,.7312 24.656,1.9375-3.384-4.7144-8.4371-8.362-14.406-10.281v-4.6562h-18.656z"/>
<path fill="url(#linearGradient9356)" d="m-82.955,84.155c-4.0708,0-7.6532,3.5995-9.7466,9.0507 2.8319,.1295 5.9478,.6965 9.4649,.6965 3.7986,0 7.2924-1.4246 10.105-.4751-2.0815-5.5684-5.7008-9.2721-9.8235-9.2721z"/>
<path fill="url(#linearGradient9358)" d="m-93.715,93.111h22.073v2.0399h-22.073z"/>
</g>
<g transform="matrix(.67119 0 0 .67119 106.91206 -42.14838)">
<path fill="url(#radialGradient9360)" d="m-121.74,115.31s25.823,2.0096 38.761,2c12.574-.009 37.669-2 37.669-2s-1.1634,21.771-2.7399,34.12c-2.4679,19.332-29.47,40.125-29.47,40.125h-8.7348s-23.357-16.058-29.742-37.123c-3.6324-11.983-5.7425-37.123-5.7425-37.123z"/>
<path fill="url(#radialGradient9362)" d="m-121.74,115.31s25.823,2.0096 38.761,2c12.574-.009 37.669-2 37.669-2s-1.1634,21.771-2.7399,34.12c-2.4679,19.332-29.47,40.125-29.47,40.125h-8.7348s-23.357-16.058-29.742-37.123c-3.6324-11.983-5.7425-37.123-5.7425-37.123z"/>
<path fill="url(#linearGradient9364)" color="#000" d="m-91.259,188.07h18.524v3.405h-18.524z"/>
<path opacity=".8" fill="#fff" filter="url(#filter3948)" d="m-53.312,115.91c-3.5911,.2518-7.6018,.5203-12.25,.7812-.0744,5.4352-.2743,18.326-.5,26.75-.504,18.815-12,38.75-12,38.75s18.743-12.373 23.469-30.562c2.6516-10.207 1.7097-29.069 1.2812-35.719z"/>
</g>
<g color="#000" transform="matrix(.67119 0 0 .67119 106.91206 -42.14838)">
<path fill="url(#radialGradient9366)" d="m-83.153,107.95c-17.983,0-33.217,2.7475-38.519,6.5625l.9282,6.5312c.1171,.0686 .2168,.151 .3403,.2188-.364-3.522-.5569-5.9688-.5569-5.9688s25.556,2.0096 38.364,2c12.449-.009 37.281-2 37.281-2s-2.1386,2.52-2.3403,5.8125c.2824-.1614 .5275-.3348 .7735-.5l1.5668-6.5625c-5.8637-3.5715-20.593-6.0938-37.838-6.0938z"/>
<path opacity=".8" fill="url(#radialGradient9368)" filter="url(#filter4074)" d="m-73.154,102.76c0,1.0553-2.4442,1.9107-5.4592,1.9107s-5.4592-.8555-5.4592-1.9107c0-1.0553 2.4442-1.9107 5.4592-1.9107s5.4592,.8555 5.4592,1.9107z" transform="matrix(1 0 0 1.4127 3.2755 -41.074)"/>
<path fill="url(#radialGradient9370)" d="m-93.715,93.111h22.073v2.0399h-22.073z"/>
<path fill="url(#radialGradient9372)" d="m-82.955,84.155c-4.0708,0-7.6532,3.5995-9.7466,9.0507 2.8319,.1295 5.9478,.6965 9.4649,.6965 3.7986,0 7.2924-1.4246 10.105-.4751-2.0815-5.5684-5.7008-9.2721-9.8235-9.2721z"/>
</g>
<g transform="matrix(.67119 0 0 .67119 106.91206 -42.14838)">
<path fill="url(#radialGradient9374)" filter="url(#filter4158)" d="m-123,79.219c-11.325-.5367-18.483,10.949-19.219,21.188-.3874,3.3147-.8265,6.7683-.5938,10.156 .7329-10.618 3.1938-24.527 14.469-28.688 4.0974-.9563 10.586-2.3054 12.969,2.0312-.206,6.2126-6.8809,9.7239-8.7188,15.5-1.5128,3.5726-1.0933,3.0382 .4375,0 2.5174-5.8966 10.463-9.3245 9.6875-16.312-1.1493-3.3848-5.8225-3.9856-9.0312-3.875zm-2.3125,23.5c.1378-.0782-.0851-.0945 0,0z"/>
<path fill="url(#radialGradient9374)" filter="url(#filter4158)" d="m-123,79.219c-11.325-.5367-18.483,10.949-19.219,21.188-.3874,3.3147-.8265,6.7683-.5938,10.156 .7329-10.618 3.1938-24.527 14.469-28.688 4.0974-.9563 10.586-2.3054 12.969,2.0312-.206,6.2126-6.8809,9.7239-8.7188,15.5-1.5128,3.5726-1.0933,3.0382 .4375,0 2.5174-5.8966 10.463-9.3245 9.6875-16.312-1.1493-3.3848-5.8225-3.9856-9.0312-3.875zm-2.3125,23.5c.1378-.0782-.0851-.0945 0,0z" transform="matrix(-1 0 0 1 -164.92 0)"/>
</g>
<g color="#000" transform="matrix(.67119 0 0 .67119 106.91206 -42.14838)">
<path fill="url(#linearGradient9378)" d="m-83.153,107.95c-17.983,0-33.217,2.7475-38.519,6.5625l.9282,6.5312c.1171,.0686 .2168,.151 .3403,.2188-.364-3.522-.5569-5.9688-.5569-5.9688s25.556,2.0096 38.364,2c12.449-.009 37.281-2 37.281-2s-2.1386,2.52-2.3403,5.8125c.2824-.1614 .5275-.3348 .7735-.5l1.5668-6.5625c-5.8637-3.5715-20.593-6.0938-37.838-6.0938z"/>
<path fill="url(#linearGradient9380)" d="m-91.937,94.938v4.5c-6.0701,1.8348-11.212,5.4435-14.688,10.156 6.5767-1.0493 14.512-1.6562 23.094-1.6562 9.2684,0 17.793,.7312 24.656,1.9375-3.384-4.7144-8.4371-8.362-14.406-10.281v-4.6562h-18.656z"/>
<path fill="url(#radialGradient9382)" d="m-103.76,222.01s7.4065,1.1627 11.156,1.3961c3.7085,.2308 7.4375,0 11.156,0 3.7188,0 7.4478,.2308 11.156,0 3.7498-.2333 11.156-1.3961 11.156-1.3961 1.1119,0 2.007,.7488 2.007,1.6789v1.4924c0,.9301-.8951,1.6789-2.007,1.6789 0,0-14.845,1.3961-22.313,1.3961-7.4674,0-22.313-1.3961-22.313-1.3961-1.1074-.0693-2.007-.7488-2.007-1.6789v-1.4924c0-.9301 .8951-1.6789 2.007-1.6789z"/>
<path fill="url(#radialGradient9384)" filter="url(#filter4317)" d="m-92.807,225.31c0,.4523-1.2221,.8189-2.7296,.8189s-2.7296-.3666-2.7296-.8189 1.2221-.8189 2.7296-.8189 2.7296,.3666 2.7296,.8189z" transform="matrix(1 0 0 .88108 0 26.698)"/>
<path fill="url(#radialGradient9386)" filter="url(#filter4317)" d="m-92.807,225.31c0,.4523-1.2221,.8189-2.7296,.8189s-2.7296-.3666-2.7296-.8189 1.2221-.8189 2.7296-.8189 2.7296,.3666 2.7296,.8189z" transform="matrix(1.7304 0 0 .88108 93.992 27.244)"/>
</g>
</svg>
