<svg xmlns="http://www.w3.org/2000/svg" viewBox="0 0 124.27 131.65" xmlns:xlink="http://www.w3.org/1999/xlink">
<defs>
<filter color-interpolation-filters="sRGB" id="filter4463">
<feGaussianBlur stdDeviation=".85013"/>
</filter>
<filter color-interpolation-filters="sRGB" id="filter7229">
<feGaussianBlur stdDeviation="1.62507"/>
</filter>
<filter width="1.046" x="-.023" y="-.132" height="1.265" color-interpolation-filters="sRGB" id="filter7247">
<feGaussianBlur stdDeviation="1.35587"/>
</filter>
<linearGradient gradientTransform="matrix(1.3755 0 0 1.3755 282.51 -218.79)" id="linearGradient9450" y1="-607.04" y2="-615.24" x1="-650.45" gradientUnits="userSpaceOnUse" x2="-637.34">
<stop offset="0"/>
<stop offset="1" stop-color="#4d4d4d"/>
</linearGradient>
<linearGradient gradientTransform="matrix(1.3755 0 0 1.3755 282.51 -218.79)" id="linearGradient9452" x1="-691.47" gradientUnits="userSpaceOnUse" x2="-608.16">
<stop offset="0" stop-color="#999"/>
<stop offset=".137" stop-color="#d0d0d0"/>
<stop offset=".25" stop-color="#fff"/>
<stop offset=".402" stop-color="#fff" stop-opacity=".498"/>
<stop offset="1" stop-color="#fff"/>
</linearGradient>
<linearGradient gradientTransform="translate(-358.34)" id="linearGradient9456" y1="-1229" y2="-1083.1" x1="-143.06" gradientUnits="userSpaceOnUse" x2="-266.97">
<stop offset="0" stop-color="#fff"/>
<stop offset="1" stop-color="#fff" stop-opacity="0"/>
</linearGradient>
<radialGradient cx="-634.48" cy="-599.07" gradientTransform="matrix(.78572 -1.1289 1.9049 1.3258 1049.5 -967.54)" id="radialGradient9444" r="32.342" gradientUnits="userSpaceOnUse">
<stop offset="0" stop-color="#1a1a1a"/>
<stop offset="1" stop-color="#333"/>
</radialGradient>
<radialGradient cx="-617.06" cy="-629.24" gradientTransform="matrix(2.2353 .09294 -.07803 1.8767 765.66 164.31)" id="radialGradient9446" r="58.412" gradientUnits="userSpaceOnUse">
<stop offset="0" stop-color="#ffa900"/>
<stop offset="1" stop-color="#ff8c00"/>
</radialGradient>
<radialGradient cx="-619.17" cy="-564.91" gradientTransform="matrix(1.2938 -.46693 .20517 .56849 347.84 -981.91)" id="radialGradient9448" r="50.751" gradientUnits="userSpaceOnUse">
<stop offset="0" stop-color="#4d4d4d"/>
<stop offset="1"/>
</radialGradient>
<radialGradient cx="-731.37" cy="-638.02" id="radialGradient9454" r="2.9" gradientUnits="userSpaceOnUse">
<stop offset="0" stop-color="#fff"/>
<stop offset="1" stop-color="#ccc"/>
</radialGradient>
</defs>
<g transform="matrix(.67119 0 0 .67119 -283.85 384.495)">
<path opacity=".5" filter="url(#filter7229)" d="m521.34-561.5c-2.2953,.0375-4.5597,.172-6.8125,.375-18.459,1.6633-37.987,8.2254-51.562,20.844-7.2589,6.7471-13.513,21.801-17.062,31.656l29.781,5.1875-1.27,45.43-40.16,30c.0009,.0703 0,.6562 0,.6562s1.3517,.2008 2.125,.3125c.2643,2.5872 .6847,5.2272 1.4375,7.0312 2.7418,6.5713 11.449,15.702 14.906,19.188-.0619,.01-.1256,.0218-.1875,.0312 1.4458,1.4796 2.4375,2.4062 2.4375,2.4062l.875,.8438 1.25-.125s12.351-1.0541 27.531-3.2188 33.154-5.3672 45-9.8125c23.313-8.7485 47.782-14.952 61.469-37.625 .5065-.8533 .7862-4.41 1.0625-5.1875-.2523,.281-.4948,.5668-.75,.8438 3.007-9.7814 5.277-44.258 2.875-56.312-3.4775-17.452-17.426-32.886-32.5-42.344-11.07-6.9458-24.786-10.046-38.125-10.188-.7696-.008-1.5474-.0125-2.3125,0z"/>
<path opacity=".5" filter="url(#filter7247)" color="#000" d="m878.81-342.23c0,2.9616-33.188,5.3624-74.128,5.3624s-74.128-2.4008-74.128-5.3624 33.188-5.3624 74.128-5.3624c40.939,0 74.128,2.4008 74.128,5.3624z" transform="matrix(.97992 -.3031 .51142 1.9519 -88.919 496.39)"/>
</g>
<g transform="matrix(.67119 0 0 .67119 456.33833 787.605)">
<path fill="url(#radialGradient9444)" d="m-666.78-1032.7s2.4073-10.509 5.5222-14.726c5.3719-7.2719 21.475-16.567 21.475-16.567l5.5222-31.272 56.449,11.024-11.044,53.995-59.517,8.5901z"/>
<path fill="url(#radialGradient9446)" d="m-648.37-999.74s49.027-4.3433 71.789-12.885c23.448-8.7992 51.483-17.215 64.426-38.656 3.3723-5.5864 6.2918-45.19 3.6815-58.29-3.4775-17.452-17.446-32.88-32.52-42.337-13.625-8.5487-31.226-11.261-47.246-9.8173-18.459,1.6633-37.965,8.2434-51.541,20.862-11.189,10.4-20.248,41.11-20.248,41.11s20.023,5.8007 30.065,8.5901c12.859,3.5718 29.345,.8686 38.656,10.431 4.2565,4.3717 5.1082,11.747 4.295,17.794-.9027,6.7137-4.6515,13.412-9.8173,17.794-7.9421,6.7373-19.27,8.2419-29.452,10.431-12.039,2.5882-36.815,3.0679-36.815,3.0679l-3.6815-4.2951s-.1423,10.587 1.8407,15.34c3.4194,8.1952 16.567,20.862 16.567,20.862z"/>
</g>
<g color="#000" transform="matrix(.67119 0 0 .67119 456.33833 787.605)">
<path fill="url(#radialGradient9448)" d="m-510.61-1054.1c-17.879,19.91-42.982,29.629-64.477,37.657-25.366,7.0511-51.41,11.407-75.134,15.044 1.4458,1.4796 2.407,2.407 2.407,2.407l.9026,.8597 1.2465-.1289s12.329-1.059 27.509-3.2237 33.157-5.3548 45.003-9.8001c23.313-8.7485 47.782-14.96 61.468-37.633 .5065-.8533 .7983-4.4048 1.0746-5.1823z"/>
<path fill="url(#linearGradient9450)" d="m-660.43-1101.1c-.0894,.2944-.2579,.7737-.2579,.7737l-.7737,2.622 2.6649,.7737s20.006,5.7962 30.088,8.5965c6.894,1.915 14.335,2.1152 21.019,3.0518 6.6832,.9366 12.421,2.5555 16.419,6.6624 3.3058,3.3952 4.2646,10.014 3.5246,15.517-.8008,5.9563-4.2424,12.163-8.8545,16.076-7.1122,6.0333-17.944,7.5774-28.283,9.8001-10.84,2.3304-38.607,2.2639-40.671,2.315-1.9418-2.8244-1.1163,4.8817-.9557,5.9357 3.3-.062 31.041-.3095 42.788-2.8349 10.026-2.1553 21.918-3.6053 30.69-11.047 5.7197-4.852 9.7411-12.043 10.746-19.514 .8862-6.5914 .1348-14.725-5.072-20.073-5.3117-5.4555-12.455-7.3004-19.557-8.2957-18.34-1.7402-37.573-6.6429-53.514-10.359z"/>
</g>
<g transform="matrix(.67119 0 0 .67119 456.33833 787.605)">
<path opacity=".4" fill="url(#linearGradient9452)" stroke="#fff" stroke-width="1.375" d="m-660.93-1103.9s21.637,6.6952 32.757,8.6773c12.156,2.1668 24.564,4.3639 36.879,3.471 10.985-.7966 23.114-6.0092 32.106-7.8096 1.9026-.381 5.2064,2.6032 5.2064,2.6032l-2.6032,44.254s-25.125,11.302-38.18,15.619c-12.189,4.0308-24.605,7.7224-37.313,9.5451-8.3081,1.1916-16.778,1.205-25.164,.8677-3.7821-.1521-11.281-1.3016-11.281-1.3016s-.3671-27.55 1.0847-41.217c1.2434-11.706 6.508-34.709 6.508-34.709z"/>
</g>
<g color="#000" transform="matrix(.67119 0 0 .67119 456.33833 787.605)">
<path fill="url(#radialGradient9454)" d="m-728.47-638.02c0,1.6014-1.2982,2.8996-2.8996,2.8996s-2.8996-1.2982-2.8996-2.8996 1.2982-2.8996 2.8996-2.8996 2.8996,1.2982 2.8996,2.8996z" transform="matrix(1.3755 0 0 1.3755 443.88 -212.65)"/>
<path fill="url(#linearGradient9456)" filter="url(#filter4463)" d="m-583.43-1158c-21.7,1.4247-45.646,8.0848-58.846,26.752-.9646,2.6202-5.5607,6.8727-3.1542,8.5916 38.108,14.691 82.865,13.941 120-3.4375 3.7648-1.0964 4.7121-3.0062 1.5625-5.5625-14.224-17.865-36.723-28.002-59.562-26.344z"/>
</g>
</svg>
