<svg xmlns="http://www.w3.org/2000/svg" viewBox="0 0 744.09448819 1052.3622047" xmlns:xlink="http://www.w3.org/1999/xlink">
<defs>
<linearGradient id="linearGradient9128">
<stop offset="0" stop-color="#fff"/>
<stop offset=".536" stop-color="#fff"/>
<stop offset="1" stop-color="#fff" stop-opacity="0"/>
</linearGradient>
<linearGradient id="linearGradient5198">
<stop offset="0" stop-color="#d30000"/>
<stop offset=".679" stop-color="#d30000"/>
<stop offset="1" stop-color="#f00"/>
</linearGradient>
<radialGradient cx="184.08" cy="185.56" gradientTransform="matrix(1.2348 .50657 -1.8777 4.5771 549.53 -784.19)" id="radialGradient5194" r="90.832" gradientUnits="userSpaceOnUse">
<stop offset="0" stop-color="#f00"/>
<stop offset="1" stop-color="#930000"/>
</radialGradient>
<radialGradient cx="102.28" cy="418.66" gradientTransform="matrix(1.0872 -2.7144 1.5802 .63292 -423.76 437.71)" id="radialGradient5208" xlink:href="#linearGradient5198" r="60.099" gradientUnits="userSpaceOnUse"/>
<radialGradient cx="231.57" cy="345.56" gradientTransform="matrix(.16531 .1074 -.65513 1.0084 471.32 -30.345)" id="radialGradient9144" xlink:href="#linearGradient9128" r="19.193" gradientUnits="userSpaceOnUse"/>
<radialGradient cx="116.51" cy="511.98" gradientTransform="matrix(-1.4493 3.2326 -1.4117 -.63297 1261.9 300.78)" id="radialGradient7156" r="60.609" gradientUnits="userSpaceOnUse">
<stop offset="0" stop-color="#eccd00"/>
<stop offset="1" stop-color="#eccd00" stop-opacity="0"/>
</radialGradient>
<radialGradient cx="170.81" cy="372.3" gradientTransform="matrix(2.8337 2.2833 -3.1714 3.9358 1048.7 -1465.6)" id="radialGradient5204" xlink:href="#linearGradient5198" r="26.731" gradientUnits="userSpaceOnUse"/>
<radialGradient cx="262.3" cy="534.7" gradientTransform="matrix(-1.2845 2.6182 -3.1442 -1.5426 2362.1 556.05)" id="radialGradient9118" r="171.73" gradientUnits="userSpaceOnUse">
<stop offset="0" stop-color="#ccc" stop-opacity="0"/>
<stop offset=".107" stop-color="#ccc" stop-opacity="0"/>
<stop offset=".203" stop-color="#ccc" stop-opacity=".711"/>
<stop offset=".63" stop-color="#ccc" stop-opacity=".485"/>
<stop offset="1" stop-color="#ccc" stop-opacity="0"/>
</radialGradient>
<radialGradient cx="-38.469" cy="422.25" gradientTransform="matrix(-1.2475 2.9169 -1.4701 -.6287 938.93 726.98)" id="radialGradient8135" r="89.506" gradientUnits="userSpaceOnUse">
<stop offset="0" stop-color="#1a7edc" stop-opacity="0"/>
<stop offset=".103" stop-color="#1a7edc" stop-opacity="0"/>
<stop offset=".584" stop-color="#1a7edc" stop-opacity=".32"/>
<stop offset="1" stop-color="#1a7edc" stop-opacity="0"/>
</radialGradient>
<radialGradient fx="492.06" fy="107.73" cx="465.87" cy="115.56" gradientTransform="matrix(.45591 -.52524 .15646 .13581 220.88 320.61)" id="radialGradient9134" xlink:href="#linearGradient9128" r="44.952" gradientUnits="userSpaceOnUse"/>
</defs>
<g stroke="#000">
<path fill="#d30000" d="m366.17,342.22c-13.469,13.469-28.958,51.181-46.467,76.772 12.121-47.478 36.365-104.05 66.67-139.4"/>
<path fill="url(#radialGradient5194)" d="m342.93,311.92l58.589-156.57c17.244-46.084 32.325-79.802 111.12-119.2 15.489,90.577-1.319,127.58-18.183,157.58l-86.873,154.55c-4.683,8.331-10.775,16.499-28.284,17.172-13.301-3.807-29.632-12.123-38.386-19.192-5.388-13.469-2.105-23.321 2.02-34.346z"/>
<path fill="url(#radialGradient9134)" stroke="none" d="m425,65h58v55h-58z"/>
<path fill="url(#radialGradient5204)" d="m423.75,282.63c34.682,41.079 16.836,161.96-11.111,180.82 2.693-50.844-3.704-82.496-22.224-110.11"/>
<path fill="url(#radialGradient5208)" d="m371.22,262.42c-51.854,9.428-114.82,100.68-119.2,137.38 27.274-26.264 73.741-57.579 96.975-63.64"/>
<path fill="url(#radialGradient9144)" stroke="none" d="m268,322h30v41h-30z"/>
</g>
<path fill="url(#radialGradient7156)" d="m344.95,345.26c13.385,2.273 29.295,9.597 39.396,18.183l-89.903,210.11-31.315-15.152 81.822-213.14z"/>
<path fill="url(#radialGradient8135)" d="m342.93,349.3l39.396,18.688-106.16,304.97-72.857-34.286 139.62-289.37z"/>
<path fill="url(#radialGradient9118)" d="m315.66,417.99c-84.179,74.752-249.17,307.09-303.05,422.24l238.4,113.14c53.202-165.66 104.38-404.06 105.06-513.16l-40.406-22.224z"/>
</svg>
