<svg xmlns="http://www.w3.org/2000/svg" viewBox="0 0 322.11 412.17" xmlns:xlink="http://www.w3.org/1999/xlink">
<defs>
<linearGradient gradientTransform="matrix(8.6012 0 0 8.6012 -8052.7 -5976.7)" id="linearGradient4007" x1="945.16" gradientUnits="userSpaceOnUse" x2="1007.3">
<stop offset="0" stop-color="#bf0000"/>
<stop offset="1" stop-color="#cb4141"/>
</linearGradient>
<radialGradient cx="977.26" cy="757.4" gradientTransform="matrix(8.5528 -.91122 .25838 2.4252 -8201.1 -611.8)" id="radialGradient3971" r="30.776" gradientUnits="userSpaceOnUse">
<stop offset="0" stop-color="#fff" stop-opacity=".369"/>
<stop offset="1" stop-color="#fff" stop-opacity=".136"/>
</radialGradient>
<radialGradient cx="977.26" cy="757.4" gradientTransform="matrix(8.5528 -.91122 .25838 2.4252 -8201.1 -618.43)" id="radialGradient4002" r="30.776" gradientUnits="userSpaceOnUse">
<stop offset="0" stop-opacity=".369"/>
<stop offset="1" stop-opacity=".136"/>
</radialGradient>
<radialGradient cx="976.38" cy="767.54" gradientTransform="matrix(8.6012 0 0 8.6012 -8052.7 -5976.7)" id="radialGradient3997" r="13.745" gradientUnits="userSpaceOnUse">
<stop offset="0" stop-color="#dadada"/>
<stop offset="1" stop-color="#a0a0a0"/>
</radialGradient>
</defs>
<g transform="matrix(.60271 0 0 .60271 -46.25 -132.68)">
<path fill="url(#linearGradient4007)" d="m611.01,764.16c-11.34-180.13-107.41-376.98-258.6-429.94-184.06,75.2-285.75,269.13-274.77,443.5 10.968,174.37 544.7,166.57 533.37-13.56z"/>
<path fill="#d40000" d="m606.73,751.12c-11.24-168.1-106.56-351.81-256.57-401.24-182.62,70.19-283.5,251.17-272.62,413.89 10.891,162.73 540.44,155.45 529.19-12.65z"/>
<path fill="#a3a3a3" d="m606.74,265.02c-11.25,57.71-89.04,141.32-256.58,137.73s-283.5-86.21-272.62-142.07c10.891-55.86 540.44-53.36 529.2,4.34z"/>
<path fill="url(#radialGradient4002)" d="m605.21,269.63c.4043-1.5116 1.3186-3.0642 1.6119-4.5694 .7053-3.6063-.7655-7.0397-4.0314-10.214-3.2633-3.1743-8.3398-6.1293-15.052-8.87-13.425-5.4814-33.404-9.9703-57.521-13.708-24.117-3.7379-52.385-6.6192-83.056-8.6012s-63.678-3.2804-96.764-3.4942c-33.086-.2142-66.208,.584-97.57,2.1503-31.362,1.5666-61.049,3.8978-86.55,7.2573-25.5,3.3595-46.859,7.7372-62.359,12.902-7.7499,2.5823-14.073,5.2965-18.546,8.3324-4.4738,3.0359-7.1145,6.4541-7.7949,9.9452 73.438,46.608 207.57,72.573 341.36,60.746 79.277-7.0078 143.34-26.215 186.27-51.876z"/>
<path opacity=".99" fill="#aeaeae" d="m992.28,769.09c0,7.7464-6.2797,14.026-14.026,14.026-7.7464,0-14.026-6.2797-14.026-14.026 0-7.7464 6.2797-14.026 14.026-14.026 7.7464,0 14.026,6.2797 14.026,14.026z" transform="matrix(9.4688 0 0 9.6868 -8931.2 -6815.1)"/>
<g color="#000">
<path opacity=".99" fill="#d9d9d9" d="m341.82,494.81c-73.136,0-132.78,59.645-132.78,132.78 0,73.136 59.645,132.78 132.78,132.78 73.136,0 132.78-59.645 132.78-132.78 0-73.136-59.645-132.78-132.78-132.78z"/>
<path opacity=".99" fill="url(#radialGradient3997)" d="m345.36,506.83c65.453,0 118.22,52.769 118.22,118.22 0,65.453-52.769,118.22-118.22,118.22-65.453,0-118.22-52.769-118.22-118.22 0-65.453 52.769-118.22 118.22-118.22z"/>
</g>
<path fill="url(#radialGradient3971)" d="m605.21,276.25c.4043-1.5116 1.3186-3.0642 1.6119-4.5694 .7053-3.6063-.7655-7.0397-4.0314-10.214-3.2633-3.1743-8.3398-6.1293-15.052-8.87-13.425-5.4814-33.404-9.9703-57.521-13.708-24.117-3.7379-52.385-6.6192-83.056-8.6012s-63.678-3.2804-96.764-3.4942c-33.086-.2142-66.208,.584-97.57,2.1503-31.362,1.5666-61.049,3.8978-86.55,7.2573-25.5,3.3595-46.859,7.7372-62.359,12.902-7.7499,2.5823-14.073,5.2966-18.546,8.3324-4.4738,3.0359-7.1145,6.4541-7.7949,9.9452 73.438,46.608 207.57,72.573 341.36,60.746 79.277-7.0078 143.34-26.215 186.27-51.876z"/>
<g fill="none" stroke="#000">
<path stroke-width="2.785" d="m252.54,614.46h22.229"/>
<path stroke-width="3.059" d="m350.58,526.09 1.3455,26.831"/>
<path stroke-width="2.785" d="m413.3,614.46h22.229"/>
<path stroke-width="3.059" d="m347.88,697.19 1.3455,26.831"/>
<path stroke-width="2.785" d="m282.72,552.45 16.507,15.718"/>
<path stroke-width="3.059" d="m416.78,556.14-18.021,18.973"/>
<path stroke-width="2.785" d="m404.41,664.76 19.83,11.074"/>
<path stroke-width="3.059" d="m294.87,675.43-18.021,18.973"/>
<path stroke-width="2.785" d="m306.56,538.05 11.133,19.781"/>
<path stroke-width="3.059" d="m432.65,574.41-23.262,12.241"/>
<path stroke-width="3.612" d="m387.51,681.51 15.62,23.36"/>
<path stroke-width="3.059" d="m283.4,665.54-23.262,12.241"/>
<path stroke-width="2.785" d="m259.2,589.47 20.878,8.7386"/>
<path stroke-width="2.801" d="m380.88,532.88-8.7572,22.109"/>
<path stroke-width="2.785" d="m411.84,650.05 20.878,8.7386"/>
<path stroke-width="3.059" d="m332,694.15-3.3524,26.42"/>
<path stroke-width="2.785" d="m326.43,529.43 7.3706,21.317"/>
<path stroke-width="3.059" d="m438.21,592.91-25.349,7.6062"/>
<path stroke-width="3.018" d="m378.26,688.95 7.5572,25.038"/>
<path stroke-width="3.059" d="m277.59,646.48-25.349,7.6061"/>
<g stroke-width="2.785">
<path d="m268.39,570.75 17.801,14.217"/>
<path d="m418.2,632.88 22.196,2.7575"/>
</g>
<path stroke-width="2.851" d="m380.54,584.55-35.257,40.014"/>
<g stroke-width="3.059">
<path d="m304.81,683.8-14.188,22.046"/>
<path d="m276.63,629.68-26.159,4.793"/>
<path d="m320.32,691.23-9.9336,24.401"/>
<path d="m399.79,540.14-15.01,21.48"/>
<path d="m365.91,695.3 5.1322,26.561"/>
</g>
<path stroke-width="2.785" d="m399.1,675.29 17.901,14.088"/>
</g>
</g>
</svg>
