<svg xmlns="http://www.w3.org/2000/svg" viewBox="0 0 238.09 474.15" xmlns:xlink="http://www.w3.org/1999/xlink">
<defs>
<linearGradient id="linearGradient2987rouge_lin">
<stop offset="0" stop-color="#fff"/>
<stop offset="1" stop-color="#df0000"/>
</linearGradient>
<radialGradient cx="113.13" cy="32.827" gradientTransform="matrix(.65116 .07387 -.07409 .65311 41.897 3.0307)" id="radialGradient2993rouge_rad" xlink:href="#linearGradient2987rouge_lin" r="41" gradientUnits="userSpaceOnUse"/>
<radialGradient cx="113.13" cy="32.827" gradientTransform="matrix(.65532 -.00507 .00431 .55729 38.853 15.106)" id="radialGradient3091" xlink:href="#linearGradient2987rouge_lin" r="41" gradientUnits="userSpaceOnUse"/>
<radialGradient cx="113.13" cy="32.827" gradientTransform="matrix(.65515 -.01565 .01738 .72716 38.443 10.728)" id="radialGradient3115" xlink:href="#linearGradient2987rouge_lin" r="41" gradientUnits="userSpaceOnUse"/>
<radialGradient cx="113.13" cy="32.827" gradientTransform="matrix(.60145 -.26024 .32029 .74022 34.575 37.97)" id="radialGradient3139" xlink:href="#linearGradient2987rouge_lin" r="41" gradientUnits="userSpaceOnUse"/>
<radialGradient cx="113.13" cy="32.827" gradientTransform="matrix(.60852 -.24326 .32029 .8012 33.775 34.047)" id="radialGradient3151" xlink:href="#linearGradient2987rouge_lin" r="41" gradientUnits="userSpaceOnUse"/>
<radialGradient cx="113.13" cy="32.827" gradientTransform="matrix(.62036 -.21125 .32029 .94057 32.436 25.85)" id="radialGradient3157" xlink:href="#linearGradient2987rouge_lin" r="41" gradientUnits="userSpaceOnUse"/>
</defs>
<g fill="none">
<g transform="translate(-160.52 -164.15)">
<path stroke="#10af00" stroke-width="5" d="m211.43,166.65c16.45,5.43 36.59,44.7 48.57,57.14 24.63,25.59 37.49,40.9 40,74.29 2.51,33.49 4.44,63.07-2.86,97.14-8.48,39.6-22.57,158-23.71,177.89"/>
</g>
<g stroke="#109f00" stroke-width="2" transform="translate(-160.52 -164.15)">
<path d="m283.03,249c11.98-.03 28.74,13.53 42.68,20.51 3.37,1.68 33.57,22.58 39.14,25.36"/>
<path d="m257.14,223.79c-14.8-3.61-22.47,11.71-32.58,25.2-7.17,9.56-14.81,25.23-17.14,31.6"/>
<path d="m301.52,324.97c11.74,9.26 28.75,14.55 36.95,21.16 16.59,13.36 23.74,31.82 29.26,37.34"/>
<path d="m294.11,273.5c-15.42,11.09-33.66,17.86-41.01,27.09-6.42,8.07-18.09,20.6-20.49,33.1"/>
<path d="m297.14,392.36c-.75,16.04 14.33,15.99 20.18,33.59 2.64,7.97 7.54,30.23 12.09,39.83"/>
<path d="m288.57,440.93c-13.4,.55-29.44,5.53-42.02,9.24-7.18,2.11-15.2,9.91-17.81,18.15"/>
<path d="m302.19,366.65c-13.82,2.53-22.28,3.81-35.78,9.23-6.35,2.55-18.03,3.68-27.42,12.47"/>
<path d="m283.9,470.17c20.45,13.01 24.68,40.59 29.23,50.19"/>
<path d="m279.42,506.32c-13.6,2.1-20.85,12.07-35.58,25.37"/>
</g>
</g>
<g transform="translate(-160.52 -164.15)">
<circle fill="url(#radialGradient2993rouge_rad)" cx="100" cy="50" r="40" transform="translate(229.81 482.35)"/>
<path fill="#581211" fill-rule="evenodd" d="m331.41,560.32c-3.13-.1-10.21,1.77-10.97,3.79-1.21,3.24 4.88,5.23 8,6.04 3.37,.89 8.05-.27 9.53-1.24 2.37-1.55 7.03-2.25 5.31-4.26-2.25-2.61-7.66-4.19-11.87-4.33z"/>
<circle fill="url(#radialGradient3091)" cx="100" cy="50" r="40" transform="translate(100.52 237.17)"/>
<path fill="#581211" fill-rule="evenodd" d="m199.01,310.95c-3.13,.15-9.86,1.77-10.61,3.79-1.21,3.23 3.44,4.48 6.56,5.3 3.38,.88 9.13,.47 10.61-.51 2.37-1.55 7.53-3.29 5.81-5.3-2.25-2.61-8.16-3.48-12.37-3.28z"/>
<circle fill="url(#radialGradient3091)" cx="100" cy="50" r="40" transform="translate(151.53 277.83)"/>
<path fill="#581211" fill-rule="evenodd" d="m249.66,352.32c-3.12,.15-9.49,1.06-10.25,3.08-1.21,3.23 5.34,5.02 8.53,5.48 4.98,.7 8.69,.18 10.43-.15 2.55-.48 5.03-3.3 3.31-5.3-2.25-2.62-7.81-3.31-12.02-3.11z"/>
<circle fill="url(#radialGradient3091)" cx="100" cy="50" r="40" transform="translate(246.99 244.75)"/>
<path fill="#581211" fill-rule="evenodd" d="m345.48,318.52c-3.13,.15-9.85,1.77-10.61,3.79-1.21,3.24 3.45,4.49 6.57,5.31 3.37,.88 10.55,.46 12.03-.51 2.37-1.55 4.68-2.94 2.95-4.95-2.24-2.61-6.73-3.83-10.94-3.64z"/>
<circle fill="url(#radialGradient3091)" cx="100" cy="50" r="40" transform="translate(258.6 323.03)"/>
<path fill="#581211" fill-rule="evenodd" d="m357.09,396.81c-3.12,.15-9.85,1.77-10.6,3.79-1.21,3.23 4.16,5.2 7.28,6.02 3.37,.88 9.84,1.18 11.32,.21 2.37-1.56 6.1-2.94 4.38-6.74-1.43-3.13-8.17-3.48-12.38-3.28z"/>
<circle fill="url(#radialGradient3115)" cx="100" cy="50" r="40" transform="translate(132.84 349.3)"/>
<path fill="#581211" fill-rule="evenodd" d="m231.33,423.08c-3.12,.14-9.85,1.77-10.61,3.78-1.21,3.24 2.56,3.6 5.68,4.41 3.37,.89 7.52,.65 9.71,.39 2.81-.33 6.2-1.07 5.45-4.05-.84-3.34-6.02-4.73-10.23-4.53z"/>
<circle fill="url(#radialGradient3091)" cx="100" cy="50" r="40" transform="translate(126.78 491.22)"/>
<path fill="#581211" fill-rule="evenodd" d="m225.27,565c-3.13,.15-13.07,1.41-13.82,3.43-1.21,3.24 5.59,7.34 9.42,7.81 3.46,.41 9.48,1.18 10.97,.21 2.36-1.56 6.45-4.02 4.73-6.02-2.24-2.62-7.09-5.63-11.3-5.43z"/>
<circle fill="url(#radialGradient3091)" cx="100" cy="50" r="40" transform="translate(244.46 405.36)"/>
<path fill="#581211" fill-rule="evenodd" d="m342.95,479.14c-3.12,.15-9.85,1.77-10.6,3.79-1.22,3.23 3.44,4.48 6.56,5.3 3.37,.88 8.91,0 10.61-.5 5.22-1.56 8.65-1.46 7.59-3.88-2.24-5.14-9.95-4.91-14.16-4.71z"/>
<circle fill="url(#radialGradient3139)" cx="100" cy="50" r="40" transform="translate(141.43 422.03)"/>
<path fill="#581211" fill-rule="evenodd" d="m239.38,501.22c-3.13,.15-9.86,1.77-10.61,3.79-1.21,3.24 3.44,4.49 6.56,5.31 3.38,.88 6.3,.87 7.75-.15 2.27-1.6 7.14-3.19 5.81-5.31-1.4-2.23-5.3-3.83-9.51-3.64z"/>
<circle fill="url(#radialGradient3091)" cx="100" cy="50" r="40" transform="translate(179.81 548.3)"/>
<path fill="#581211" fill-rule="evenodd" d="m277.8,625.11c-3.13,.14-9.85,1.77-10.61,3.78-1.21,3.24 3.45,4.49 6.57,5.31 3.37,.88 9.12,.46 10.6-.51 2.37-1.55 7.53-3.29 5.81-5.3-2.24-2.62-8.16-3.48-12.37-3.28z"/>
<circle fill="url(#radialGradient3151)" cx="100" cy="50" r="40" transform="translate(211.43 339.51)"/>
<path fill="#581211" fill-rule="evenodd" d="m309.92,413.28c-3.13,.15-9.85,1.77-10.61,3.79-1.21,3.24 3.45,4.49 6.57,5.3 3.37,.89 10.55,.47 12.03-.5 2.37-1.56 4.68-2.94 2.95-4.95-2.24-2.61-6.73-3.84-10.94-3.64z"/>
<circle fill="url(#radialGradient3157)" cx="100" cy="50" r="40" transform="translate(184.29 472.36)"/>
<path fill="#581211" fill-rule="evenodd" d="m282.78,546.14c-3.13,.15-9.86,1.77-10.61,3.79-1.21,3.23 3.44,4.48 6.56,5.3 3.38,.88 10.56,.47 12.04-.5 2.37-1.56 4.67-2.94 2.95-4.95-2.24-2.62-6.73-3.84-10.94-3.64z"/>
</g>
</svg>
