<svg xmlns="http://www.w3.org/2000/svg" viewBox="0 0 408.931 324.108" enable-background="new 0 0 408.931 324.108">
<path fill="#ff7f00" d="m181.98,49.69c6.164-6.889 17.394-13.443 26.817-9.67 9.804,3.926 12.304,15.647 16.086,24.462 7.618,17.755 21.229,39.763-1.732,52.907-14.687,8.408-47.325,14.407-47.325-10.456-.02-19.336 4.15-38.171 6.14-57.24"/>
<g fill="#ffbf00">
<path d="m18.388,30.351c15.278-7.297 29.009-18.464 46.925-18.464 19.573,0 35.865,3.118 53.484,11.938 15.998,8.008 31.249,16.887 45.59,27.625 4.442,3.326 14.754,10.516 16.704,15.829 2.571,7.006-2.258,20.348-3.52,28.157-19.603-22.725-56.953-37.335-86.247-33.168-31.2,4.438-62.851,25.4-87.015,44.593-3.893-12.854-5.541-25.738-3.289-39.181 2.243-13.391 15.951-27.361 17.369-37.328"/>
<path d="m181.09,67.279c-2.438,19.503-13.202,44.253 13.203,47.497 10.214,1.254 21.58,2.974 31.658,.442 11.15-2.802 6.824-14.559 6.154-23.301-.865-11.284-1.214-22.087-4.815-32.937-5.195-15.645-19.801,1.97-23.332,9.184-3.153,6.441-3.571,17.565-12.751,14.516-5.77-1.92-8.05-10.709-10.11-15.403"/>
<path d="m228.59,63.769c.891,7.124 1.894,27.729 11.05,29.25 11.632,1.931 23.073,4.494 34.788,6.058 25.958,3.466 50.023,2.74 75.604-2.716 16.372-3.492 57.439-9.535 58.859-30.832 .684-10.253-7.155-23.6-10.112-33.427-3.103-10.312-4.464-21.01-9.237-30.783-27.98,55.673-108.26,55.183-160.95,62.45"/>
</g>
<g fill="#ff7f00">
<path d="m4.31,105.98c11.687-4.893 24.566-15.657 35.02-23.132 12.263-8.769 29.73-17.121 44.298-21.266 15.302-4.354 34.12,.26 48.208,6.576 11.583,5.193 34.54,14.086 42.226,24.628 13.802,18.93-16.461,6.06-24.628,4.395-16.266-3.316-31.756-4.385-48.279-2.179-18.189,2.428-35.895,8.564-53.114,14.823-12.15,4.42-35.809,10.55-43.736-3.84"/>
<path d="m230.35,63.769c-6.661-13.111 15.866-24.417 25.634-31.514 13.567-9.858 29.382-19.85 45.803-23.949 8.277-2.066 88.633-13.765 88.633-5.223 0,10.127-20.94,20.049-27.26,26.384-10.977,11.002-27.678,15.328-42.222,19.348-29.41,8.129-60.49,11.445-90.58,14.954"/>
<path d="m174.06,105.11c-27.869,17.699-90.77,60.02-79.154,100.26 4.367,15.129 19.729,43.875 2.635,56.725-11.25,8.455-40.459,1.457-54.535,4.842 21.111,5.276 42.223,10.553 63.334,15.829-5.866,8.501-11.732,17.001-17.598,25.502 18.748-1.358 44.968-8.913 58.446-22.367 13.847-13.821-1.493-45.655-6.555-61.181-7.513-23.042-1.79-41.222 8.799-62.441 6.6-13.24 30.94-43.65 24.62-57.17"/>
<path d="m230.35,83.117c10.052,6.04 23.685,7.363 34.688,11.769 12.228,4.896 23.197,13.629 30.641,24.253 13.829,19.741 20.33,47.05 22.486,70.65 2.366,25.891-15.06,46.763-22.73,70.108-2.977,9.06-8.963,25.444-1.76,32.544 4.327,4.266 15.682,6.237 21.118,7.037h-42.307c-13.196,0-10.569,12.763-13.113,24.629-14.948-17.808-22.591-38.979-10.587-59.97 13.348-23.342 24.955-40.592 28.877-68.044 3.206-22.449 2.853-45.123-11.252-63.721-7.027-9.266-15.922-17.355-25.512-23.744-10.06-6.7-9.45-13.058-10.56-25.523"/>
</g>
<g fill="#ffbf00">
<path d="m163.51,113.9c-12.385,12.331-24.716,24.715-37.074,37.073-12.212,12.212-27.136,25.61-27.136,44.288 0,16.9 9.629,30.994 13.632,47.055 1.923,7.717-7.664,23.587-3.083,28.142 10.863,10.802 22.485-11.594 24.191-18.468 2.939-11.847-8.935-33.987-10.768-46.785-2.117-14.776 11.049-34.603 17.359-47.328 7.29-14.71 16.84-28.77 22.87-43.97"/>
<path d="m269.05,114.78c9.022,6.807 10.781-6.611 16.703-4.395 4.168,1.56 11.122,20.511 13.186,24.637 4.204,8.404 8.777,17.329 11.443,26.379 3.602,12.228 5.967,29.506-3.52,38.697-5.579,5.404-12.979,8.738-18.465,14.954-4.934,5.59-9.257,13.494-14.078,18.464 12.698-16.702 16.714-43.431 16.714-63.807 .01-20.82-13.57-37.34-21.98-54.92"/>
</g>
</svg>
