<svg xmlns="http://www.w3.org/2000/svg" viewBox="0 0 48.6653 48.6653" xmlns:xlink="http://www.w3.org/1999/xlink">
<g fill-rule="evenodd" transform="translate(-3.19067 -4.43467)">
<path stroke="#000" stroke-width=".667" d="m27.5227,52.7653v-12c0-6.6266 5.372-11.9986 11.9986-11.9986h12v-23.9987l-12-0c-19.8813,0-35.9973,16.116-35.9973,35.9973l-0,12Z"/>
<g fill="#ffa100">
<path d="m12,41.7893c0-.18 .1453-.3253 .3253-.3253h2.8507c.18,0 .3253,.1453 .3253,.3253v5.8854c0,.18-.1453,.3253-.3253,.3253h-2.8507c-.18,0-.3253-.1453-.3253-.3253Z"/>
<path d="m17.1053,23.5853c.088-.1573 .2867-.212 .4427-.124l2.484,1.4c.156,.088 .212,.2867 .124,.4427l-2.868,5.0867c-.088,.156-.2853,.212-.4427,.124l-2.484-1.4c-.156-.0894-.212-.2867-.1226-.444Z"/>
<path d="m32.0493,15.4333c.1694-.0613 .3547,.0254 .416,.1947l.976,2.6787c.0614,.1693-.0253,.356-.1946,.4173l-5.4854,1.996c-.1693,.0613-.356-.0253-.4173-.1947l-.9747-2.6786c-.0613-.1694 .0254-.3547 .1947-.416Z"/>
<path d="m48.0067,15.4c.18,0 .3253,.1453 .3253,.3253v2.8507c0,.18-.1453,.3253-.3253,.3253h-5.8374c-.18,0-.3253-.1453-.3253-.3253v-2.8507c0-.18 .1453-.3253 .3253-.3253Z"/>
</g>
</g>
</svg>
