<svg xmlns="http://www.w3.org/2000/svg" viewBox="0 0 24.7307 48.7747" xmlns:xlink="http://www.w3.org/1999/xlink">
<g fill-rule="evenodd" transform="translate(-83.6627 -48.5547)">
<path d="m83.6627,48.5547h24.7293v48.7733h-24.7293Z"/>
<g fill="#ffa100">
<path d="m98.1347,59.2693c0,.18-.1454,.3254-.3254,.3254h-2.8506c-.18,0-.3254-.1454-.3254-.3254v-5.8373c0-.18 .1454-.3253 .3254-.3253h2.8506c.18,0 .3254,.1453 .3254,.3253Z"/>
<path d="m98.1347,74.3587c0,.18-.1454,.3253-.3254,.3253h-2.8506c-.18,0-.3254-.1453-.3254-.3253v-5.8374c0-.18 .1454-.3253 .3254-.3253h2.8506c.18,0 .3254,.1453 .3254,.3253Z"/>
<path d="m98.8387,89.1067c0,.18-.1454,.3253-.3254,.3253h-2.8506c-.18,0-.3254-.1453-.3254-.3253v-5.8374c0-.18 .1454-.3253 .3254-.3253h2.8506c.18,0 .3254,.1453 .3254,.3253Z"/>
</g>
</g>
</svg>
