<svg xmlns="http://www.w3.org/2000/svg" viewBox="0 0 580 294">
<g transform="translate(-76.603 -314.64)">
<path d="m300.6,314.64h132l224,294h-580l224-294z"/>
</g>
<g fill="#fff">
<g transform="translate(-76.603 -314.64)">
<path d="m306.55,314.64h-3.59l-218.36,294h16.61l205.34-294z"/>
<path d="m430.22,314.64h-3.56l205.34,294h16.6l-218.38-294z"/>
</g>
<g transform="translate(-488.423 -317.3161)">
<path d="m783.44,530.44h-9.66l-1.62,80.87h12.53l-1.25-80.87z"/>
<path d="m775.84,429.34l-1.53,76.22h8.75l-1.15-76.22h-6.07z"/>
<path d="m780.94,365.47h-3.82l-.93,45.72h5.43l-.68-45.72z"/>
<path d="m780.38,329.47h-2.54l-.5,24.53h3.41l-.37-24.53z"/>
<path d="m778.09,317.31l-.12,6.44h2.31l-.09-6.44h-2.1z"/>
</g>
</g>
</svg>
