<svg xmlns="http://www.w3.org/2000/svg" viewBox="0 0 425.33 455">
<defs>
<clipPath id="clipPath52">
<path d="m507.61,388.52h17.831v-17.832h-17.831v17.832z"/>
</clipPath>
<clipPath id="clipPath28">
<path d="m233.23,277.42h335.48v-145.16h-335.48v145.16z"/>
</clipPath>
<clipPath id="clipPath32">
<path d="m233.23,132.26h335.48v145.16h-335.48v-145.16z"/>
</clipPath>
<clipPath id="clipPath16">
<path d="m0,0h800v600h-800v-600z"/>
</clipPath>
<clipPath id="clipPath128">
<path d="m273.75,358.83h11.682v11.683h-11.682v-11.683z"/>
</clipPath>
<clipPath id="clipPath76">
<path d="m285.43,413.65h17.831v-17.831h-17.831v17.831z"/>
</clipPath>
<clipPath id="clipPath124">
<path d="m273.75,370.52h11.683v-11.683h-11.683v11.683z"/>
</clipPath>
<clipPath id="clipPath80">
<path d="m285.43,395.82h17.831v17.831h-17.831v-17.831z"/>
</clipPath>
<clipPath id="clipPath104">
<path d="m528.51,345.56h11.683v11.682h-11.683v-11.682z"/>
</clipPath>
<clipPath id="clipPath100">
<path d="m528.51,357.24h11.682v-11.682h-11.682v11.682z"/>
</clipPath>
<clipPath id="clipPath56">
<path d="m507.61,370.69h17.831v17.832h-17.831v-17.832z"/>
</clipPath>
<clipPath id="clipPath152">
<path d="m503.09,311.97h9.031v9.03h-9.031v-9.03z"/>
</clipPath>
<clipPath id="clipPath184">
<path d="m380.46,290.36h42.022v-86.543h-42.022v86.543z"/>
</clipPath>
<clipPath id="clipPath348">
<path d="m353.81,294.65h62.813v201.61h-62.813v-201.61z"/>
</clipPath>
<clipPath id="clipPath148">
<path d="m503.09,321h9.031v-9.031h-9.031v9.031z"/>
</clipPath>
<clipPath id="clipPath180">
<path d="m380.46,203.82h42.021v86.543h-42.021v-86.543z"/>
</clipPath>
<clipPath id="clipPath176">
<path d="m380.45,290.36h42.023v-86.543h-42.023v86.543z"/>
</clipPath>
<clipPath id="clipPath344">
<path d="m353.81,496.26h62.813v-201.62h-62.813v201.62z"/>
</clipPath>
<clipPath id="clipPath228">
<path d="m380.46,290.36h42.022v-86.543h-42.022v86.543z"/>
</clipPath>
<clipPath id="clipPath280">
<path d="m376.94,297.56h49.046v-7.704h-49.046v7.704z"/>
</clipPath>
<clipPath id="clipPath284">
<path d="m376.94,289.86h49.046v7.703h-49.046v-7.703z"/>
</clipPath>
<clipPath id="clipPath188">
<path d="m380.46,290.36h42.022v-86.543h-42.022v86.543z"/>
</clipPath>
<linearGradient gradientTransform="matrix(0 86.543 -86.543 0 401.44 203.81)" id="linearGradient196" gradientUnits="userSpaceOnUse">
<stop offset="0" stop-color="#231f20"/>
<stop offset="1" stop-color="#fff"/>
</linearGradient>
<linearGradient gradientTransform="matrix(0 86.543 -86.543 0 401.44 203.81)" id="linearGradient236" gradientUnits="userSpaceOnUse">
<stop offset="0" stop-color="#fff"/>
<stop offset="1" stop-color="#fff"/>
</linearGradient>
<mask id="mask202">
<g>
<g clip-path="url(#clipPath184)">
<path d="m380.46,290.36h42.021v-86.543h-42.021v86.543z"/>
<g>
<g>
<g clip-path="url(#clipPath188)">
<g>
<g>
<g>
<g>
<path fill="url(#linearGradient196)" d="m380.46,290.36h42.021v-86.543h-42.021v86.543z"/>
</g>
</g>
</g>
</g>
</g>
</g>
</g>
</g>
</g>
</mask>
</defs>
<g transform="matrix(1.25 0 0 -1.25 -289.22 620.33)">
<g clip-path="url(#clipPath16)">
<g transform="translate(571.64 302.39)">
<path fill="#00caf0" d="m0,0c0-93.964-76.172-170.13-170.13-170.13-93.959,0-170.14,76.162-170.14,170.13 0,93.957 76.177,170.12 170.14,170.12 93.958,0 170.13-76.163 170.13-170.12"/>
</g>
<g>
<g>
<g opacity=".8" clip-path="url(#clipPath28)">
<g>
<g clip-path="url(#clipPath32)">
<g transform="translate(401.52 132.26)">
<path fill="#fff" d="m0,0c83.247,0 152.49,59.808 167.2,138.8-.709,.057-1.42,.107-2.142,.107-12.435,0-22.818-8.711-25.426-20.357-5.404,3.312-11.735,5.255-18.537,5.255-19.155,0-34.728-15.151-35.506-34.115-2.587,.775-5.325,1.206-8.164,1.206-12.91,0-23.79-8.619-27.249-20.409-7.539,5.831-16.969,9.336-27.239,9.336-11.971,0-22.818-4.741-30.83-12.415-4.35,12.122-15.907,20.809-29.528,20.809-6.509,0-12.552-1.979-17.567-5.365-3.16,4.203-8.173,6.933-13.839,6.933-1.057,0-2.085-.11-3.089-.29-3.401,16.801-18.244,29.448-36.044,29.448-2.433,0-4.804-.249-7.105-.698 .01,.233 .036,.461 .036,.698 0,10.098-8.185,18.279-18.278,18.279-4.585,0-8.764-1.698-11.973-4.487-4.217,7.414-12.175,12.427-21.316,12.427-.569,0-1.126-.046-1.686-.084 12.11-82.088 82.833-145.08 168.28-145.08"/>
</g>
</g>
</g>
</g>
</g>
</g>
<g>
<g>
<g opacity=".8" clip-path="url(#clipPath52)">
<g>
<g clip-path="url(#clipPath56)">
<g transform="translate(524.62 380.43)">
<path fill="#fff" d="m0,0c-4.012,0-7.275,3.261-7.275,7.275 0,.454-.368,.819-.822,.819-.452,0-.819-.365-.819-.819 0-4.014-3.264-7.275-7.275-7.275-.452,0-.822-.368-.822-.822 0-.451 .37-.819 .822-.819 4.011,0 7.275-3.264 7.275-7.275 0-.454 .367-.821 .819-.821 .454,0 .822,.367 .822,.821 0,4.011 3.263,7.275 7.275,7.275 .453,0 .818,.368 .818,.819 0,.454-.365,.822-.818,.822"/>
</g>
</g>
</g>
</g>
</g>
</g>
<g>
<g>
<g opacity=".8" clip-path="url(#clipPath76)">
<g>
<g clip-path="url(#clipPath80)">
<g transform="translate(302.44 405.55)">
<path fill="#fff" d="m0,0c-4.011,0-7.275,3.262-7.275,7.275 0,.454-.368,.819-.82,.819-.453,0-.821-.365-.821-.819 0-4.013-3.264-7.275-7.274-7.275-.453,0-.821-.367-.821-.821 0-.452 .368-.819 .821-.819 4.01,0 7.274-3.264 7.274-7.276 0-.453 .368-.821 .821-.821 .452,0 .82,.368 .82,.821 0,4.012 3.264,7.276 7.275,7.276 .453,0 .82,.367 .82,.819 0,.454-.367,.821-.82,.821"/>
</g>
</g>
</g>
</g>
</g>
</g>
<g>
<g>
<g opacity=".8" clip-path="url(#clipPath100)">
<g>
<g clip-path="url(#clipPath104)">
<g transform="translate(539.66 351.94)">
<path fill="#fff" d="m0,0c-2.63,0-4.768,2.138-4.768,4.765 0,.298-.24,.538-.538,.538-.297,0-.536-.24-.536-.538 0-2.627-2.139-4.765-4.767-4.765-.295,0-.538-.24-.538-.538 0-.295 .243-.538 .538-.538 2.628,0 4.767-2.138 4.767-4.765 0-.298 .239-.538 .536-.538 .298,0 .538,.24 .538,.538 0,2.627 2.138,4.765 4.768,4.765 .295,0 .535,.243 .535,.538 0,.298-.24,.538-.535,.538"/>
</g>
</g>
</g>
</g>
</g>
</g>
<g>
<g>
<g opacity=".8" clip-path="url(#clipPath124)">
<g>
<g clip-path="url(#clipPath128)">
<g transform="translate(284.89 365.21)">
<path fill="#fff" d="m0,0c-2.629,0-4.768,2.138-4.768,4.765 0,.298-.24,.538-.537,.538s-.536-.24-.536-.538c0-2.627-2.139-4.765-4.768-4.765-.295,0-.537-.24-.537-.538 0-.295 .242-.538 .537-.538 2.629,0 4.768-2.138 4.768-4.765 0-.298 .239-.538 .536-.538s.537,.24 .537,.538c0,2.627 2.139,4.765 4.768,4.765 .295,0 .537,.243 .537,.538 0,.298-.242,.538-.537,.538"/>
</g>
</g>
</g>
</g>
</g>
</g>
<g>
<g>
<g opacity=".8" clip-path="url(#clipPath148)">
<g>
<g clip-path="url(#clipPath152)">
<g transform="translate(511.71 316.9)">
<path fill="#fff" d="m0,0c-2.032,0-3.687,1.652-3.687,3.685 0,.23-.185,.415-.416,.415-.228,0-.413-.185-.413-.415 0-2.033-1.652-3.685-3.686-3.685-.229,0-.416-.185-.416-.416 0-.228 .187-.415 .416-.415 2.034,0 3.686-1.652 3.686-3.684 0-.229 .185-.416 .413-.416 .231,0 .416,.187 .416,.416 0,2.032 1.655,3.684 3.687,3.684 .229,0 .413,.187 .413,.415 0,.231-.184,.416-.413,.416"/>
</g>
</g>
</g>
</g>
</g>
</g>
<g transform="translate(337.13 352.53)">
<path fill="#e67000" d="m0,0c4.222,9.415 17.499,22.846 18.062,23.413 .489,.495 1.206,.677 1.874,.492 .666-.189 1.177-.725 1.334-1.402l17.657-76.414c.14-.604-.023-1.237-.436-1.695-.412-.467-1.023-.707-1.638-.625-.007,0-.903,.1-2.363,.1-6.41,0-21.854-1.854-26.794-19.029-.22-.762-.885-1.31-1.675-1.374-.052-.002-.105-.002-.157-.002-.727,0-1.4,.415-1.718,1.083-16.047,33.695-8.433,65.891-4.146,75.453"/>
</g>
<g>
<g>
<g opacity=".3" clip-path="url(#clipPath176)">
<g>
<g clip-path="url(#clipPath180)">
<g>
<g mask="url(#mask202)">
<g>
<g clip-path="url(#clipPath228)">
<g>
<g>
<g>
<g>
<path fill="url(#linearGradient236)" d="m380.46,290.36h42.021v-86.543h-42.021v86.543z"/>
</g>
</g>
</g>
</g>
</g>
</g>
</g>
</g>
</g>
</g>
</g>
</g>
</g>
<g transform="translate(425.29 296.55)">
<path fill="#bf5d00" d="m0,0c-.439,.361-1.014,.51-1.575,.399-4.53-.891-12.063-1.95-22.251-1.95-10.189,0-17.724,1.059-22.25,1.95-.559,.111-1.136-.034-1.577-.399-.441-.364-.696-.902-.696-1.469v-10.318c0-.938 .68-1.734 1.604-1.881 .513-.082 12.685-2.011 22.919-2.011 10.232,0 22.404,1.929 22.919,2.011 .922,.147 1.604,.943 1.604,1.881v10.318c0,.567-.255,1.105-.697,1.469"/>
</g>
<g>
<g>
<g opacity=".2" clip-path="url(#clipPath280)">
<g>
<g clip-path="url(#clipPath284)">
<g transform="translate(425.29 297.12)">
<path fill="#231f20" d="m0,0c-.439,.36-1.014,.51-1.575,.397-4.53-.891-12.063-1.952-22.251-1.952-10.189,0-17.724,1.061-22.25,1.952-.559,.115-1.136-.037-1.577-.397-.441-.363-.696-.903-.696-1.47v-5.717c0,.572 .255,1.111 .696,1.47 .441,.364 1.018,.515 1.577,.402 4.526-.892 12.061-1.953 22.25-1.953 10.188,0 17.721,1.061 22.251,1.953 .561,.11 1.136-.039 1.575-.402 .442-.359 .697-.898 .697-1.47v5.717c0,.567-.255,1.107-.697,1.47"/>
</g>
</g>
</g>
</g>
</g>
</g>
<g transform="translate(401.46 496.26)">
<path fill="#ff7c00" d="m0,0c-9.34,0-47.653-48.961-47.653-106.66 0-55.951 16.9-91.826 17.071-92.204 .214-.468 .61-.835 1.099-1.004 .419-.15 10.525-3.651 29.483-3.651 18.955,0 29.062,3.501 29.485,3.651 .486,.169 .884,.536 1.095,1.004 .173,.378 17.072,36.253 17.072,92.204 0,57.699-38.313,106.66-47.652,106.66"/>
</g>
<g transform="translate(429.37 463.52)">
<path fill="#bf5d00" d="m0,0c-11.005,20.058-23.084,32.742-27.902,32.742-4.821,0-16.898-12.684-27.903-32.742 3.126-.92 12.267-3.163 27.903-3.163 15.635,0 24.777,2.243 27.902,3.163"/>
</g>
<g transform="translate(401.46 390.86)">
<path fill="#fff" d="m0,0c-8.13,0-14.745,6.614-14.745,14.744 0,8.131 6.615,14.745 14.745,14.745s14.743-6.614 14.743-14.745c0-8.13-6.613-14.744-14.743-14.744"/>
</g>
<g transform="translate(401.46 421.35)">
<path fill="#e66e00" d="m0,0c-8.682,0-15.745-7.063-15.745-15.746 0-8.681 7.063-15.743 15.745-15.743 8.681,0 15.743,7.062 15.743,15.743 0,8.683-7.062,15.746-15.743,15.746m0-2c7.59,0 13.743-6.153 13.743-13.746 0-7.589-6.153-13.743-13.743-13.743-7.592,0-13.745,6.154-13.745,13.743 0,7.593 6.153,13.746 13.745,13.746"/>
</g>
<g transform="translate(401.46 347.28)">
<path fill="#fff" d="m0,0c-5.506,0-9.985,4.479-9.985,9.983 0,5.506 4.479,9.985 9.985,9.985 5.505,0 9.983-4.479 9.983-9.985 0-5.504-4.478-9.983-9.983-9.983"/>
</g>
<g transform="translate(401.46 368.25)">
<path fill="#e66e00" d="m0,0c-6.057,0-10.985-4.928-10.985-10.985s4.928-10.983 10.985-10.983 10.983,4.926 10.983,10.983-4.926,10.985-10.983,10.985m0-2c4.963,0 8.983-4.023 8.983-8.985s-4.02-8.983-8.983-8.983c-4.962,0-8.985,4.021-8.985,8.983s4.023,8.985 8.985,8.985"/>
</g>
<g transform="translate(390.39 402.94)">
<path fill="#e6e7e8" d="m0,0c0,7.592 6.153,13.746 13.744,13.746 3.115,0 5.976-1.048 8.282-2.794-2.51,3.312-6.473,5.46-10.948,5.46-7.592,0-13.745-6.154-13.745-13.746 0-4.475 2.149-8.44 5.463-10.95-1.748,2.305-2.796,5.169-2.796,8.284"/>
</g>
<g transform="translate(395.15 354.6)">
<path fill="#e6e7e8" d="m0,0c0,4.962 4.023,8.985 8.984,8.985 1.797,0 3.464-.54 4.866-1.448-1.6,2.471-4.369,4.114-7.532,4.114-4.962,0-8.985-4.023-8.985-8.985 0-3.163 1.645-5.935 4.118-7.535-.91,1.406-1.451,3.07-1.451,4.869"/>
</g>
<g transform="translate(465.44 352.53)">
<path fill="#ff7c00" d="m0,0c-4.22,9.415-17.497,22.846-18.062,23.413-.487,.495-1.206,.677-1.873,.492-.666-.189-1.176-.725-1.333-1.402l-17.658-76.414c-.139-.604 .024-1.237 .437-1.695 .411-.467 1.023-.707 1.638-.625 .009,0 .903,.1 2.364,.1 6.408,0 21.851-1.854 26.795-19.029 .215-.762 .883-1.31 1.671-1.374 .052-.002 .106-.002 .159-.002 .729,0 1.397,.415 1.719,1.083 16.044,33.695 8.43,65.891 4.143,75.453"/>
</g>
<g transform="translate(435.45 451.2)">
<path fill="#ff9633" d="m0,0c6.474-16.294 9.882-50.928 6.101-74.519 3.557-3.721 13.237-14.248 16.731-22.039 4.141-9.24 11.382-39.592-2.592-72.017 .815-1.587 1.531-3.333 2.102-5.303 .219-.762 .884-1.309 1.675-1.374 .052-.005 .102-.005 .155-.005 .728,0 1.4,.418 1.718,1.086 16.048,33.695 8.435,65.892 4.145,75.456-3.492,7.791-13.177,18.316-16.731,22.039 .264,4.832 .413,9.847 .413,15.035 0,22.718-5.942,44.085-13.717,61.64"/>
</g>
<g>
<g>
<g opacity=".2" clip-path="url(#clipPath344)">
<g>
<g clip-path="url(#clipPath348)">
<g transform="translate(365.62 377.8)">
<path fill="#231f20" d="m0,0c0,57.692 38.313,106.66 47.654,106.66 .876,0 2.014-.438 3.349-1.269-6.51,8.311-12.246,13.078-15.16,13.078-9.34,0-47.653-48.961-47.653-106.66 0-55.951 16.9-91.826 17.071-92.204 .214-.468 .61-.835 1.099-1.004 .201-.071 2.617-.9 7.112-1.751-5.008,14.015-13.472,43.543-13.472,83.149"/>
</g>
</g>
</g>
</g>
</g>
</g>
</g>
</g>
</svg>
