<svg xmlns="http://www.w3.org/2000/svg" viewBox="0 0 48 48" xmlns:xlink="http://www.w3.org/1999/xlink">
<defs>
<linearGradient id="G1">
<stop offset="0" stop-color="#59a40f"/>
<stop offset="1" stop-color="#306102"/>
</linearGradient>
<linearGradient id="G2">
<stop offset="0" stop-color="#fff"/>
<stop offset="1" stop-color="#fff" stop-opacity="0"/>
</linearGradient>
<linearGradient id="G4">
<stop offset="0" stop-color="#d50f0f"/>
<stop offset="1" stop-color="#860000"/>
</linearGradient>
<linearGradient gradientTransform="matrix(.94565 .04095 -.04172 .94938 3.271 -2.8088)" id="G7" xlink:href="#G4" y1="38.802" y2="18.548" x1="25.128" gradientUnits="userSpaceOnUse" x2="7.213"/>
<linearGradient id="G5">
<stop offset="0"/>
<stop offset="1" stop-opacity="0"/>
</linearGradient>
<linearGradient id="G6" xlink:href="#G4" y1="46.026" y2="23.323" x1="42.551" gradientUnits="userSpaceOnUse" x2="22.734"/>
<radialGradient cx="15.116" cy="63.965" gradientTransform="matrix(1.0808 .04681 -.03084 .70196 .42347 -14.35)" id="R5" xlink:href="#G5" r="12.289" gradientUnits="userSpaceOnUse"/>
<radialGradient fx="22.506" fy="25.064" cx="25.346" cy="30.31" gradientTransform="matrix(.78931 .49308 -.25971 .41573 13.249 5.1887)" id="R2" xlink:href="#G2" r="12.011" gradientUnits="userSpaceOnUse"/>
<radialGradient fx="13.292" fy="60.044" cx="15.116" cy="63.965" gradientTransform="matrix(1.1014 .0477 -.03084 .70196 15.085 -6.7691)" id="R4" xlink:href="#G5" r="12.289" gradientUnits="userSpaceOnUse"/>
<radialGradient cx="33.921" cy="32.026" gradientTransform="matrix(1.0972 -.0604 .05996 1.0724 -4.7989 -.43954)" id="R1" xlink:href="#G4" r="12.011" gradientUnits="userSpaceOnUse"/>
<radialGradient cx="23.261" cy="33.479" gradientTransform="matrix(1.0945 .00512 -.00497 .94337 -.77201 -1.4802)" id="R6" r="11.057" gradientUnits="userSpaceOnUse">
<stop offset="0"/>
<stop offset="1" stop-opacity="0"/>
</radialGradient>
<radialGradient fx="41.772" fy="11.681" cx="41.247" cy="11.365" gradientTransform="matrix(.36505 -.56094 1.4421 .93854 10.519 23.383)" id="R3" xlink:href="#G1" r="4.918" gradientUnits="userSpaceOnUse"/>
<radialGradient cx="16.357" cy="27.468" gradientTransform="matrix(1.025 .00839 -.00872 .9898 1.2755 -3.4343)" id="R8" xlink:href="#G4" r="11.057" gradientUnits="userSpaceOnUse"/>
<radialGradient fx="9.623" fy="19.022" cx="9.796" cy="24.748" gradientTransform="matrix(.60566 .55109 -.31326 .34954 13.582 6.0889)" id="R7" xlink:href="#G2" r="11.057" gradientUnits="userSpaceOnUse"/>
<radialGradient cx="29.496" cy="-3.597" gradientTransform="matrix(-.79883 .07668 -.03201 -.33344 53.947 1.6115)" id="R9" xlink:href="#G1" r="9.75" gradientUnits="userSpaceOnUse"/>
</defs>
<path fill="url(#R5)" d="m28.071,31.834c-.208,4.765-6.325,8.371-13.662,8.053-7.3368-.318-13.114-4.439-12.904-9.204 .2084-4.765 6.3254-8.37 13.662-8.053 7.337,.318 13.114,4.439 12.904,9.204z"/>
<path fill="url(#R4)" d="m43.296,39.44c-.208,4.765-6.438,8.365-13.915,8.042-7.476-.324-13.366-4.45-13.156-9.215 .208-4.765 6.438-8.366 13.915-8.042 7.476,.324 13.367,4.45 13.156,9.215z"/>
<g stroke="#520000">
<path fill="url(#R8)" d="m23.836,30.313c-3.509,4.432-10.086,7.114-14.632,3.714-5.269-2.203-6.0539-9.086-3.7715-14.219 2.5635-5.764 8.1345-6.618 14.27-3.116 6.134,3.502 8.075,8.643 4.134,13.621z"/>
<path opacity=".66" fill="url(#R7)" d="m23.836,30.313c-3.509,4.432-10.086,7.114-14.632,3.714-5.269-2.203-6.0539-9.086-3.7715-14.219 2.5635-5.764 8.1345-6.618 14.27-3.116 6.134,3.502 8.075,8.643 4.134,13.621z"/>
</g>
<g fill="none">
<path stroke="url(#G7)" d="m12.678,15.596c-4.2958,.128-6.4037,3.738-7.133,6.981-1.0576,4.704 .4641,9.229 4.227,10.624 3.364,2.686 8.691,1.057 11.903-2.018 3.106-2.974 4.225-6.053 2.266-9.345-1.656-2.908-6.897-6.262-11.263-6.242z"/>
<path stroke="#520000" d="m15.81,16.255c-.411,2.183 2.73,4.455 5.521,3.06"/>
</g>
<path fill="url(#R6)" d="m24.555,30.152c-4.224,5.64-11.132,7.647-15.678,4.248-5.2693-2.204-5.7269-9.459-3.4445-14.592 2.5635-5.764 8.3725-7.016 14.53-3.555 6.465,3.625 8.163,9.154 4.593,13.899z"/>
<g stroke="#520000" transform="matrix(.92007 .03985 -.04074 .92726 3.8008 -2.2928)">
<path fill="url(#R1)" d="m41.738,37.156c-2.28,6.289-8.637,11.671-14.977,9.411-6.706-.642-10.134-8.201-9.485-14.852 .729-7.471 6.639-10.416 14.793-8.603 8.154,1.814 12.229,6.98 9.669,14.044z"/>
<path opacity=".66" fill="url(#R2)" d="m41.711,37.145c-2.277,6.296-8.627,11.684-14.96,9.421-6.699-.642-10.123-8.209-9.475-14.868 .728-7.479 6.632-10.428 14.777-8.612s12.216,6.987 9.658,14.059z"/>
</g>
<g fill="none" transform="matrix(.92007 .03985 -.04074 .92726 3.8008 -2.2928)">
<path stroke="url(#G6)" d="m26.576,23.697c-3.072,.156-5.787,1.526-7.161,4.253-2.537,5.036-.535,11.522 1.706,14.299 2.677,3.324 4.934,3.044 6.227,3.378 4.357,1.42 8.868-1.072 11.727-5.605 4.784-7.585 1.767-12.682-4.479-15.088-2.496-.962-5.266-1.376-8.02-1.237z"/>
<path stroke="#520000" d="m27.841,23.747c-.602,3.336 4.888,5.213 6.335,2.001"/>
</g>
<g transform="matrix(.92007 .03985 -.04663 1.0611 3.8132 -2.5733)">
<path fill="url(#R9)" stroke="#2d5a00" d="m24.613,3.4222c4.38-2.7467 13.961,.2359 13.961,.2359s-7.194,6.7149-10.797,5.9843c-3.083-.6309-11.581-5.2339-11.581-5.2339s4.59,1.4036 8.417-.9863z"/>
<path fill="none" stroke="#59aa0a" d="m20.414,5.5584c3.252,1.6506 6.39,2.9191 6.97,3.1116 2.692,.8922 7.756-3.3331 9.324-4.625-2.066-.5117-8.082-1.6513-11.075-.1602-1.05,.5236-3.02,1.552-5.219,1.6736z" stroke-miterlimit="9"/>
</g>
<path fill="#4e9a06" stroke="#275000" d="m39.493,2.2869l-1.664,1.1486c-17.032,5.7593-18.756,14.084-21.04,14.026 .574,1.141 1.701,1.363 3.205,1.462-1.85-2.01 5.446-9.717 16.533-13.84-4.263,6.055-5.303,17.437-6.801,17.56 1.201,.812 1.917,1.134 3.176,.486-1.201-1.319 .916-12.051 4.912-18.075 0,.0001 2.724-1.6475 2.724-1.6475l-1.045-1.1206z"/>
<g transform="matrix(.92007 .03985 -.04079 .92824 3.8029 -2.3394)">
<path fill="url(#R3)" stroke="#2d5a00" d="m39.151,3.4294c-.232,1.1726-.738,2.147 5.651,5.6216 2.957,1.608 .965,5.096 .411,9.718-5.078-4.748-10.409-10.07-6.062-15.34z"/>
<path fill="none" stroke="#59aa0a" d="m38.776,5.9607c-.125,.25-.788,2.0598 .715,4.7893 .988,1.946 3.284,4.337 5.05,6.019 .726-3.731 1.518-5.79-.051-6.749-.667-.4084-2.44-1.3297-3.675-2.197-1.65-1.1589-2.039-1.8623-2.039-1.8623z"/>
</g>
</svg>
