<svg xmlns="http://www.w3.org/2000/svg" viewBox="0 0 603.53 570.72">
<g transform="translate(-107.94 -151.91)">
<g stroke="#f17070">
<path fill="#f57b82" d="m410,152.36-300.59,108.79 140.59,51.21 160-160"/>
<path fill="#f3666e" d="m109.41,261.15 140.59,51.21 160,410-300.59-461.21"/>
<path fill="#f4626a" d="m410,152.36v170l-160-10"/>
<path fill="#f3565f" d="m410,322.36v400l-160-410 160,10"/>
</g>
<g stroke="#ed4c4c">
<path fill="#f13a45" d="m410,322.36 160-10l-160,410v-400"/>
<path fill="#f02531" d="m709.63,261.5-139.63,50.86-160,410 299.63-460.86"/>
<path fill="#f2454f" d="m410,152.36v170l160-10-160-160"/>
<path fill="#f1343f" d="m410,152.36 160,160.79 140-51.68-300-109.11"/>
</g>
</g>
</svg>
