<svg xmlns="http://www.w3.org/2000/svg" viewBox="0 0 48 48">
<g stroke-width="10" transform="matrix(.08802 0 0 .08802 -8.761 -23.288)">
<path fill="none" stroke="#2e3436" d="m480.81,507.68l5.17,4.11c27.28-25.16 54.47-48.14 83.93-69.46 20.48-14.82 43.33-25.98 63.4-42.15 4.12-5.4 3.72-9.99 2.67-14.46-1.15,3.16-1.14,7.32-3.83,9.15-51.21,34.72-112.6,72.68-151.34,112.81z"/>
<path fill="#babdb6" stroke="#555753" fill-rule="evenodd" d="m458.75,490.04c52.23-44.74 101.84-80.46 152.68-115.89 23.54-5 30.09,10.74 22.14,16.78-56.59,31.63-103.37,73.06-151.78,112.86l.17,.18-23.21-13.93z"/>
</g>
<g stroke-linejoin="round" stroke-linecap="round">
<g transform="matrix(.08802 0 0 .08802 -8.761 -23.288)">
<path fill="#555753" stroke="#2e3436" stroke-width="7.874" d="m473.57,528.79a175.71,74.286 0 1,1 -351.43,0 175.71,74.286 0 1,1 351.43,0z" transform="matrix(1.1633 0 0 1.3863 -34.718 -171.78)"/>
<path fill="#3b4346" stroke="#151718" stroke-width="11.031" d="m473.57,528.79a175.71,74.286 0 1,1 -351.43,0 175.71,74.286 0 1,1 351.43,0z" transform="matrix(.87252 0 0 .9419 51.901 106.08)"/>
</g>
<g fill="none" stroke="#fff" transform="matrix(.08802 0 0 .08802 -8.761 -23.288)">
<path opacity=".376" stroke-width="7.874" d="m297.84,462.5c-47.58,0-90.64,8.25-121.09,21.12-15.23,6.44-27.26,14.05-35.13,21.91-7.86,7.86-11.46,15.56-11.46,23.25s3.6,15.39 11.46,23.25c7.87,7.86 19.9,15.47 35.13,21.91 30.45,12.87 73.51,21.12 121.09,21.12 47.59,0 90.67-8.25 121.13-21.12 15.23-6.44 27.26-14.05 35.12-21.91 7.87-7.86 11.47-15.56 11.47-23.25s-3.6-15.39-11.47-23.25c-7.86-7.86-19.89-15.47-35.12-21.91-30.46-12.87-73.54-21.12-121.13-21.12z" transform="matrix(1.1633 0 0 1.3863 -34.718 -171.78)"/>
<path opacity=".385" stroke-width="11.031" d="m297.84,465.5c-47.24,0-89.98,8.24-119.93,20.91-14.98,6.33-26.68,13.78-34.16,21.25s-10.59,14.39-10.59,21.12 3.11,13.66 10.59,21.13 19.18,14.91 34.16,21.25c29.95,12.66 72.69,20.9 119.93,20.9s89.98-8.24 119.94-20.9c14.98-6.34 26.71-13.78 34.19-21.25s10.59-14.4 10.59-21.13-3.11-13.65-10.59-21.12-19.21-14.92-34.19-21.25c-29.96-12.67-72.7-20.91-119.94-20.91z" transform="matrix(.87252 0 0 .9419 51.901 106.08)"/>
</g>
</g>
<g transform="matrix(.08802 0 0 .08802 -8.761 -23.288)">
<path fill="#888a85" stroke="#2e3436" fill-rule="evenodd" stroke-width="10" d="m492.86,608.91c-71.06,52.23-173.02,60.83-246.83,48.86-46.43-7.53-86.81-24.76-116.03-48.86 33.99,50.63 66.1,62.63 105.58,73.4 78.45,21.41 203.57,16.04 257.28-73.4z"/>
<path opacity=".521" fill="none" stroke="#fff" stroke-width="4" d="m619.56,380.19c-1.56,.02-3.46,.29-5.47,.65-47.82,33.36-94.5,67.15-143.25,108.28l10.28,6.13c46.77-38.59 92.72-78.83 148.32-110.03 .57-.45 .66-.6 .03-1.66-.7-1.17-3.21-3.47-9.91-3.37z"/>
</g>
</svg>
