<svg xmlns="http://www.w3.org/2000/svg" viewBox="0 0 700 617.14">
<g transform="translate(194.29 379.07)">
<path d="m257.7,165.98c-33.58-69.996-33.99-71.084-21-56.29 5.71,6.51 18.02,30.28 27.35,52.83 9.33,22.54 19.41,44.01 22.4,47.72 2.99,3.7 3.96,8.21 2.15,10.02s-15.72-22.62-30.9-54.28zm-122.1,36.2c-6.3-31.56-9.53-83.08-4.72-75.28 2.68,4.36 6.31,22.39 8.06,40.06 1.74,17.68 4.69,36.1 6.55,40.94 1.86,4.85 1.05,8.81-1.8,8.81-2.86,0-6.5-6.53-8.09-14.53zm-125.21-29.73c0-11.55 17.747-75.717 22.092-79.884 3.775-3.619 4.609-1.956 2.65,5.283-1.572,5.811-5.808,24.341-9.413,41.181-3.604,16.84-8.528,31.84-10.941,33.33-2.414,1.49-4.388,1.53-4.388,.09zm-73.933-64.77c-.034-7.736 19.358-31.805 22.818-28.321 1.442,1.453-3.096,9.774-10.085,18.49-6.989,8.721-12.719,13.141-12.733,9.831zm433.16-21.072c-13.07-10.484-32.91-24.896-44.08-32.027-21.5-13.726-23.65-23.225-2.56-11.294 21.34,12.067 77.75,54.368 78.05,58.523 .56,7.73-7.93,3.62-31.41-15.202zm-313.18-13.015c-25.48-6-46.116-16.689-58.379-30.24-8.832-9.759-9.125-14.22-3.424-52.048 3.4301-22.756 13.374-75.845 22.096-117.98 8.724-42.12 15.847-90.86 15.83-108.29s2.508-34.79 5.611-38.56c13.939-16.97-37.257-37.09-68.605-26.96-9.374,3.03-26.315,16.04-37.645,28.91-22.062,25.06-27.194,27.98-27.194,15.48 0-4.36-3.566-7.92-7.923-7.92-9.84,0-9.85-2.08-.14-20.87 19.721-38.13 77.604-68.91 114.51-60.88 18.235,3.97 62.604,32.58 62.604,40.38 0,2.41 4.989,4.39 11.087,4.39s17.809,7.19 26.019,15.98c8.21,8.78 40.66,33.28 72.11,54.43 149.81,100.72 157.23,106.96 156.53,131.62-.88,30.984-29.99,84.455-61.58,113.11-52.02,47.192-155.56,74.981-221.51,59.453zm112.43-23.766c10.17-4.178 12.55-6.148 5.29-4.377-7.27,1.771-38.17,4.991-68.68,7.156l-55.469,3.936 50.189,.441c32.5,.286 56.7-2.236 68.67-7.156zm-125.79-.491c-3.813-1.526-8.37-1.338-10.125,.417-1.756,1.756 1.365,3.005 6.933,2.775 6.155-.253 7.406-1.505 3.192-3.192zm156.41-24.609c59.38-20.273 84.8-43.428 104.12-94.853 6.87-18.281 7.92-26.942 3.77-31.094-5.93-5.92-106.81-13.46-106.81-7.98 0,1.68 4.96,11.456 11.01,21.722 7.69,13.018 10.01,23.275 7.67,33.898-7.7,35.048-61.69,61.244-100.1,48.567-21.764-7.183-42.415-32.927-38.481-47.971 2.656-10.159 2.478-10.156-12.043,.183-18.759,13.358-46.775,45.173-54.276,61.636-4.26,9.348-4.179,14.307 .305,18.791 18.641,18.642 126.72,16.947 184.84-2.899zm-124.06-92.745c64.345-43.922 133.42-63.012 196.74-54.362 20.17,2.76 37.43,4.36 38.34,3.55 1.96-1.73-65.63-52.66-98.83-74.47-12.77-8.39-41-26.75-62.74-40.81l-39.53-25.55-24.423,9.12c-33.673,12.59-35.837,14.97-39.648,43.7-1.846,13.92-9.117,50.8-16.157,81.96-7.04,31.154-14.274,70.242-16.076,86.859l-3.2752,30.214 20.085-21.429c11.046-11.786 31.526-29.238 45.509-38.782zm-38.522-3.623c.155-21.852 20.144-140.5 24.312-144.31 7.138-6.53-13.244,148.54-20.474,155.77-2.171,2.171-3.898-2.987-3.838-11.461zm157.89,42.528c15.92-16.509 18.1-39.395 5.67-59.643-9.64-15.704-12.58-17.184-27.79-14.094-9.36,1.91-31.87,10.278-50.03,18.601-29.986,13.744-33.018,16.615-33.018,31.26 0,9.355 4.673,20.799 11.128,27.256 9.66,9.659 15.95,10.858 47.57,9.071 27.48-1.552 38.91-4.618 46.47-12.451zm121.83-36.805c0-2.906-2.3-1.717-5.12,2.641s-5.12,10.302-5.12,13.207c0,2.906 2.3,1.717 5.12-2.641 2.82-4.359 5.12-10.302 5.12-13.207zm-230.86-195.31c14.177-5.96 14.669-7.08 6.666-15.08-7.478-7.48-10.927-7.72-25.536-1.78-10.831,4.4-17.519,11.17-18.643,18.88-1.891,12.97 2.421,12.73 37.513-2.02zm-170.97-16.6c-7.677-9.25-12.578-5.63-8.118,5.99 1.791,4.67 5.766,6.93 8.833,5.04 3.83-2.37 3.606-5.82-.715-11.03zm18.107-20.92c-1.592-4.14-4.876-7.54-7.299-7.54-7.116,0-10.602,8.95-7.071,18.15 2.462,6.42 5.013,7.09 10.269,2.73 3.846-3.19 5.691-9.19 4.101-13.34zm128.93-2.5c-3.545-5.68-8.251-10.32-10.457-10.32-6.149,0-4.766,12.98 2.116,19.86 9.347,9.35 15.641,2.15 8.341-9.54zm-112.97-2.83c4.412-1.7 6.787-6.3 5.277-10.23-3.41-8.89-17.719-4.09-17.719,5.95 0,8.26 1.087,8.63 12.442,4.28zm89.343-18.76c-3.291-3.29-10.304-4.31-15.584-2.26-9.151,3.55-9.119,4.07 .682,11.29 12.078,8.88 24.994,1.06 14.902-9.03zm-59.27,.23c5.059-9.45 4.526-10.77-3.715-9.18-5.293,1.02-10.419,5.98-11.392,11.04-2.462,12.78 7.956,11.5 15.107-1.86zm33.355-2.17c2.197-5.72-.579-7.92-10-7.92-8.0705,0-13.042,3.02-13.042,7.92 0,4.36 4.5008,7.93 10.001,7.93s11.368-3.57 13.041-7.93zm396.94,298.28c-17.43-5.613-35.71-10.239-40.63-10.282-8.74-.076-18.02-9.218-13.72-13.518 3.55-3.557 99.26,25.657 99.26,30.3 0,6.269-9.52,4.892-44.91-6.5zm-23.77-79.037c0-2.91 11.89-5.28 26.41-5.28 14.53,0 26.42,2.37 26.42,5.28s-11.89,5.28-26.42,5.28c-14.52,0-26.41-2.37-26.41-5.28z"/>
</g>
</svg>
