<svg xmlns="http://www.w3.org/2000/svg" viewBox="0 0 238 330.24">
<g transform="translate(-213.09 -119.94)">
<path fill-rule="evenodd" d="m332.85,436.77 9.0917-4.1643c-17.037-35.556-20.363-77.975-8.7713-116.2 4.5582-15.086 11.387-29.581 18.011-44.224 6.6218-14.601 13.094-29.506 16.87-45.234 6.6978-27.965 4.3596-57.855-6.412-84.192 9.8987,26.677 11.148,56.346 3.6895,83.493-4.1891,15.283-11.056,29.712-18.119,44.056-7.0936,14.372-14.467,28.804-19.731,44.272-13.325,39.288-11.498,83.726 5.3708,122.19z"/>
</g>
<g stroke="#000">
<g fill="#f00">
<g stroke-width="3" transform="translate(-213.09 -119.94)">
<path d="m332.81,270.83c2.384,1.1641 4.3418,3.1787 5.4374,5.595s1.3208,5.2164 .6255,7.7767c-1.0044,3.6985-3.96,6.7906-7.5876,8.0269s-7.8222,.6087-10.97-1.5777c-3.1217-2.1684-5.1218-5.6847-6.0835-9.3619-.9617-3.6772-.9736-7.5344-.7706-11.33 .3792-7.0904 1.4887-14.142 3.3055-21.006 1.75,5.6941 4.7495,11 8.7256,15.436 2.1739,2.4253 4.6359,4.5921 7.3176,6.4404"/>
<path d="m345.17,244.79c2.4206,1.086 4.4429,3.0357 5.6166,5.4151 1.1736,2.3794 1.4898,5.1706 .8782,7.7522-.8835,3.7293-3.7369,6.9158-7.3224,8.2695-3.5854,1.3537-7.7982,.8629-11.015-1.2199-3.1906-2.0656-5.304-5.515-6.3849-9.159-1.0808-3.644-1.2182-7.4987-1.1389-11.299 .1483-7.099 1.0278-14.182 2.6202-21.102 1.9343,5.6341 5.1049,10.84 9.2232,15.144 2.2517,2.3532 4.7828,4.4388 7.5233,6.1988"/>
<path d="m355.3,218.75c2.4706,.9669 4.5854,2.816 5.8733,5.1354 1.288,2.3194 1.7396,5.092 1.2543,7.7004-.701,3.7678-3.3961,7.0894-6.9114,8.6159-3.5154,1.5265-7.747,1.2412-11.062-.6826-3.2873-1.908-5.566-5.2505-6.8229-8.8376-1.2568-3.5871-1.5816-7.4306-1.6872-11.23-.1972-7.0978 .3367-14.216 1.5906-21.205 2.2061,5.5334 5.6262,10.579 9.9489,14.678 2.3635,2.2409 4.9931,4.2009 7.8159,5.8256"/>
</g>
<g transform="translate(-213.09 -119.94)">
<path stroke-width="2" d="m360.71,194.79c2.1361,.7309 4.0022,2.225 5.1827,4.1494s1.6668,4.265 1.3504,6.5004c-.457,3.2292-2.6258,6.1524-5.5582,7.5799-2.9324,1.4274-6.5405,1.341-9.4295-.1724-2.8651-1.5009-4.9257-4.2585-6.1265-7.2618s-1.6186-6.2589-1.8485-9.4852c-.4294-6.0271-.238-12.098 .5703-18.086 2.0796,4.6229 5.1734,8.7864 8.9996,12.112 2.092,1.818 4.3999,3.3873 6.8597,4.6645"/>
</g>
<g stroke-width="3" transform="translate(-213.09 -119.94)">
<path d="m358.32,282.87c-2.573-.6468-5.3684-.3688-7.7635,.7722-2.3952,1.141-4.3724,3.1364-5.4914,5.542-1.6164,3.475-1.3501,7.744 .6262,11.028 1.9763,3.2836 5.5876,5.5078 9.4034,5.8654 3.7843,.3546 7.5801-1.0442 10.686-3.2354 3.1057-2.1912 5.6012-5.1324 7.8928-8.1648 4.2808-5.665 7.978-11.771 11.014-18.19-5.0084,3.225-10.722,5.3481-16.621,6.1761-3.2253,.4527-6.5043,.5222-9.7459,.2064"/>
<path d="m370.78,255.36c-2.573-.6469-5.3684-.3688-7.7635,.7722-2.3952,1.141-4.3724,3.1364-5.4914,5.542-1.6164,3.475-1.3501,7.744 .6262,11.028 1.9763,3.2836 5.5876,5.5078 9.4034,5.8654 3.7843,.3546 7.5801-1.0442 10.686-3.2354 3.1057-2.1912 5.6012-5.1324 7.8928-8.1648 4.2808-5.665 7.978-11.771 11.014-18.19-5.0084,3.225-10.722,5.3481-16.621,6.1761-3.2253,.4527-6.5043,.5222-9.7459,.2064"/>
<path d="m379.34,227.57c-2.6338-.3194-5.3723,.3065-7.6057,1.7386-2.2334,1.432-3.9451,3.6594-4.7539,6.1862-1.1684,3.65-.3694,7.8522 2.0027,10.862 2.372,3.0102 6.2335,4.7645 10.064,4.6413 3.7989-.1222 7.3896-1.9855 10.196-4.5485 2.8067-2.563 4.9142-5.7936 6.8078-9.0892 3.5375-6.1566 6.4407-12.677 8.6488-19.426-4.565,3.8269-9.9679,6.6491-15.717,8.2095-3.1432,.8532-6.3877,1.3328-9.6433,1.4256"/>
</g>
<g stroke-width="2" transform="translate(-213.09 -119.94)">
<path d="m380.5,199.4c-2.2814,.3726-4.4208,1.5618-5.9417,3.3028-1.5209,1.7409-2.4119,4.0206-2.4748,6.3314-.0908,3.3381 1.5988,6.6601 4.3151,8.6026 2.7162,1.9424 6.3736,2.4721 9.5489,1.4383 3.1491-1.0253 5.7009-3.4569 7.4267-6.2835s2.7043-6.0418 3.4881-9.2596c1.4641-6.0111 2.309-12.173 2.5169-18.356-2.89,4.3114-6.7251,7.9856-11.156,10.688-2.4228,1.4776-5.0211,2.6673-7.7227,3.536"/>
<path d="m377.31,178.95c-1.841,.8851-3.3578,2.427-4.2126,4.2822-.8548,1.8552-1.0414,4.01-.518,5.9846 .756,2.8523 3.0171,5.2468 5.8042,6.2156 2.7872,.9689 6.0196,.5053 8.4533-1.1633 2.4136-1.6549 3.97-4.3528 4.7277-7.1794 .7577-2.8267 .7849-5.7963 .6464-8.7195-.2587-5.4608-1.08-10.895-2.4466-16.188-1.374,4.3758-3.7083,8.4473-6.7903,11.844-1.6851,1.8571-3.5908,3.5138-5.6641,4.9243"/>
</g>
<g transform="translate(-213.09 -119.94)">
<path stroke-width="1.5" d="m371.81,157c-1.336,1.0989-2.273,2.6727-2.6025,4.3708-.3295,1.6982-.0488,3.5082 .7793,5.0269 1.1963,2.1939 3.5385,3.708 6.0263,3.9435 2.4878,.2355 5.0532-.7969 6.719-2.6596 1.652-1.8474 2.3888-4.38 2.4426-6.8577 .0539-2.4777-.5219-4.9259-1.2246-7.3024-1.3128-4.4397-3.0829-8.744-5.2732-12.823-.2488,3.8761-1.3487,7.6952-3.1997,11.11-1.012,1.867-2.2458,3.6136-3.6671,5.1914"/>
<path stroke-width="2" d="m363.04,175.06c1.6994,.5277 3.2032,1.6628 4.1767,3.1523 .9734,1.4896 1.4092,3.3226 1.2103,5.0909-.2873,2.5544-1.9301,4.9064-4.2082,6.097-2.2781,1.1907-5.1228,1.2038-7.4329,.0766-2.2911-1.1179-3.9766-3.2441-4.9904-5.5832-1.0137-2.3391-1.4162-4.8946-1.67-7.4312-.4741-4.7387-.46-9.5262 .0419-14.262 1.7426,3.5953 4.2738,6.8058 7.3632,9.3393 1.6891,1.3852 3.5428,2.5696 5.5095,3.5204"/>
<path stroke-width="1.5" d="m361.56,156.52c1.2236,.224 2.3624,.8859 3.1627,1.8382 .8003,.9523 1.2562,2.1881 1.2662,3.432 .0144,1.7969-.9289,3.5668-2.4103,4.5839s-3.4546,1.2644-5.1524,.6754c-1.6837-.5841-3.0316-1.9187-3.9309-3.4572-.8994-1.5386-1.3927-3.2785-1.7812-5.0178-.7258-3.2492-1.1168-6.5731-1.1649-9.902 1.5104,2.3494 3.5359,4.3658 5.8922,5.8655 1.2883,.82 2.674,1.4868 4.1185,1.9821"/>
<path d="m367.74,145.43c-.7441,.2693-1.3889,.8044-1.7908,1.4861-.4019,.6817-.5579,1.505-.4332,2.2865 .18,1.1289 .9581,2.14 1.9946,2.6223 1.0365,.4822 2.3005,.4297 3.3036-.1184 .9949-.5436 1.7001-1.5228 2.1024-2.5827 .4024-1.0599 .5288-2.2035 .5895-3.3356 .1134-2.1149 .009-4.2415-.3112-6.3351-.7004,1.633-1.759,3.1112-3.0795,4.3-.722,.65-1.5212,1.2142-2.3754,1.677"/>
<path d="m360.68,146.26c.6479,.1247 1.2487,.4813 1.6686,.9902 .4199,.509 .6557,1.1666 .655,1.8264-.001,.9531-.5099,1.8873-1.3005,2.4196-.7907,.5323-1.8384,.6539-2.736,.3333-.8902-.3179-1.5986-1.0323-2.0682-1.8526-.4696-.8204-.7228-1.7456-.9205-2.67-.3692-1.7268-.5606-3.4917-.57-5.2575 .7898,1.2534 1.8543,2.3326 3.0968,3.1394 .6793,.4411 1.411,.8015 2.1748,1.0712"/>
<path d="m364.95,135.98c.6418,.463 1.1151,1.1544 1.3147,1.9202 .1996,.7658 .1238,1.6003-.2103,2.3176-.4827,1.0362-1.5082,1.7953-2.6372,1.9748-1.129,.1795-2.3301-.2175-3.1445-1.0198-.8077-.7956-1.2174-1.9306-1.3137-3.0602s.0957-2.264 .3477-3.3694c.4708-2.065 1.1544-4.0814 2.0363-6.007 .2258,1.7624 .8385,3.4743 1.7824,4.9796 .5161,.8231 1.1299,1.5848 1.8245,2.264"/>
</g>
</g>
<g fill="none" transform="translate(-213.09 -119.94)">
<path d="m349.57,296.62c13.275-3.8346 25.603-10.906 35.615-20.428 8.2385-7.8352 14.91-17.312 19.507-27.71"/>
<path d="m363,267.79c13.695-2.6094 26.448-9.9243 35.615-20.428 6.8368-7.8337 11.685-17.389 13.971-27.532"/>
<path d="m375.45,241.59c12.102-4.0168 22.663-12.507 29.187-23.464 5.0492-8.4809 7.6918-18.377 7.5424-28.246"/>
<path d="m378.48,211.86c9.0954-6.3195 16.292-15.336 20.437-25.607 2.9-7.1854 4.3212-14.964 4.1496-22.71"/>
<path d="m380.08,189.27c4.6635-7.4729 7.8632-15.856 9.3653-24.535 1.3175-7.613 1.3319-15.45 .0424-23.068"/>
<path stroke-width=".6" d="m374.23,165.07c5.0143-6.6323 6.804-15.593 4.7225-23.642-.7917-3.0615-2.1124-5.9854-3.8862-8.6033"/>
<path stroke-width=".3" d="m368.35,150.88c3.0914-3.3328 4.8765-7.8466 4.901-12.392 .021-3.892-1.2351-7.7805-3.529-10.925"/>
<path stroke-width=".6" d="m362.63,139.45c-1.677-3.2307-2.2247-7.034-1.5275-10.607 .6353-3.2556 2.2951-6.3034 4.6853-8.6033"/>
<path stroke-width=".4" d="m360.98,150.39c-2.628-2.2638-4.6422-5.2334-5.7736-8.5123-1.4612-4.2344-1.4221-8.97 .109-13.18"/>
<path stroke-width=".5" d="m361.22,163.81c-4.7605-3.7866-8.2673-9.1232-9.8539-14.995-1.3892-5.1417-1.3112-10.671 .2225-15.772"/>
<path stroke-width=".6" d="m361.58,185.38c-5.5332-6.8903-9.4207-15.093-11.25-23.739-1.2541-5.9262-1.5493-12.054-.8706-18.073"/>
<path stroke-width=".9" d="m357.01,206.85c-5.3051-7.0424-9.1585-15.173-11.25-23.739-1.8619-7.6244-2.3305-15.587-1.3756-23.377"/>
<path d="m349.78,229.2c-7.2691-8.9987-11.821-20.163-12.917-31.679-.6399-6.7256-.1205-13.56 1.5286-20.112"/>
<path d="m339.23,258.87c-5.2892-9.6591-8.8275-20.273-10.392-31.174-1.6995-11.843-1.0636-24.016 1.8603-35.617"/>
<path d="m325.55,284.94c-3.9501-11.155-6.8361-22.687-8.606-34.389-1.5672-10.361-2.2599-20.854-2.0683-31.331"/>
</g>
</g>
<g fill-rule="evenodd" transform="translate(-213.09 -119.94)">
<path d="m213.45,427.21 4.8334,8.7543c12.848-7.4386 27.412-12.085 42.343-13.729 14.932-1.6364 30.275-.2754 44.678,4.2701 10.153,3.1865 19.972,7.9397 30.057,12.37 10.01,4.4227 20.434,8.541 31.457,10.344 17.794,2.8775 36.408-.7504 51.651-9.9092 15.241-9.1623 26.972-23.771 32.622-40.377-6.2738,16.38-18.461,30.309-33.616,38.651-15.153,8.3452-33.227,11.082-49.948,7.7152-10.386-2.07-20.239-6.4492-29.975-11.161-9.7921-4.7644-19.583-9.9535-30.185-13.758-15.111-5.3962-31.393-7.4997-47.479-6.3437-16.088,1.1485-32.021,5.5586-46.438,13.173z"/>
<path d="m338.56,441.33 8.783-7.7298c-9.9028-10.742-16.562-24.717-18.644-39.385-2.0933-14.667 .3772-30.147 7.0695-43.594 3.3337-6.6783 7.6569-12.872 13.038-17.949 5.3756-5.0714 11.812-9.087 18.845-11.261 7.0214-2.1721 14.688-2.5488 21.795-.6461 7.0945,1.8949 13.702,6.0802 18.13,11.992 5.3219,7.0764 7.4426,16.791 5.1002,25.486-1.1675,4.3606-3.3992,8.472-6.4915,11.817-3.0911,3.3449-7.0523,5.9328-11.419,7.377-5.2489,1.7381-11.094,1.805-16.448,.1451-5.3539-1.659-10.209-5.0434-13.647-9.5657 3.2463,4.6621 7.9994,8.3084 13.422,10.242 5.4229,1.9323 11.482,2.1396 17.092,.5409 4.663-1.3307 8.9834-3.8853 12.452-7.3382 3.4677-3.4531 6.0716-7.7783 7.5454-12.488 2.9358-9.4301 1.1628-20.168-4.524-28.428-4.7294-6.8459-11.893-11.893-19.882-14.369-7.9794-2.4692-16.636-2.4608-24.713-.3044-8.0668,2.1551-15.515,6.3282-21.785,11.798-6.2647,5.464-11.387,12.128-15.356,19.357-8.0137,14.559-11.536,31.601-9.8707,48.343 1.6756,16.741 8.5134,32.956 19.509,45.96z"/>
<path d="m323.38,434.81 13.92-2.2468c-7.8564-42.534-18.672-84.45-32.322-125.35-5.4577-16.686-12.151-34.199-25.044-47.183-6.4832-6.4854-14.569-11.529-23.525-13.768-8.9788-2.2431-18.78-1.3734-26.875,3.0543-5.854,3.2258-10.614,8.2524-13.5,14.18-2.8836,5.9287-3.862,12.694-2.817,19.111 1.0471,6.4167 4.1088,12.431 8.5991,17.006 4.491,4.5743 10.383,7.682 16.6,8.814-6.159-1.4142-11.815-4.7662-15.97-9.4054-4.1562-4.6384-6.8086-10.559-7.5177-16.655-.7111-6.0955 .5187-12.377 3.4112-17.686 2.8897-5.3104 7.4533-9.6728 12.796-12.302 7.3637-3.6556 16.198-3.9368 24.06-1.6288 7.8897,2.3139 14.912,7.241 20.527,13.331 11.305,12.167 16.553,28.897 21.391,45.559 11.668,41.11 20.446,82.97 26.266,125.17z"/>
</g>
</svg>
