<svg xmlns="http://www.w3.org/2000/svg" viewBox="0 0 58.528 100" xmlns:xlink="http://www.w3.org/1999/xlink">
<defs>
<linearGradient id="linearGradient3750" y1="163.13" x1="316.61" y2="167.29" gradientUnits="userSpaceOnUse" x2="319.65">
<stop offset="0" stop-color="#ededed"/>
<stop offset="1" stop-color="#bebebe"/>
</linearGradient>
</defs>
<g transform="matrix(.92352 0 0 .92352 -324.961 -128.34)">
<path stroke="#000" stroke-linejoin="round" stroke-linecap="round" stroke-width="2" d="m383.56,139.97-30.688,17.719v70.844l30.688,17.719 30.688-17.719v-70.844l-30.688-17.719z"/>
<path fill="#808388" d="m352.89,157.68v70.866l30.686,17.717v-70.866l-30.686-17.717z"/>
<path fill="#7e7e82" d="m356.07,216.27 24.434,14.044v10.63l-24.549-14.173 .1145-10.501z"/>
</g>
<g fill="#6c6c6c" transform="matrix(.92352 0 0 .92352 -324.961 -128.34)">
<path d="m359.03,228.54v-10.63l-3.0686-1.7717v10.63l3.0686,1.7716z"/>
<path d="m380.51,240.94v-10.63l-3.0686-1.7717v10.63l3.0686,1.7716z"/>
<path d="m371.3,235.63v-10.63l-3.0686-1.7717v10.63l3.0686,1.7716z"/>
<path d="m368.23,233.86v-10.63l-3.0686-1.7717v10.63l3.0686,1.7716z"/>
</g>
<g stroke="#4c4c4c" transform="matrix(.92352 0 0 .92352 -324.961 -128.34)">
<path fill="url(#linearGradient3750)" d="m322.2,163.35c0,3.3025-2.6772,5.9796-5.9796,5.9796-3.3025,0-5.9796-2.6772-5.9796-5.9796 0-3.3025 2.6772-5.9796 5.9796-5.9796 3.3025,0 5.9796,2.6772 5.9796,5.9796z" transform="matrix(.19724 .11387 0 .22775 305.94 155.43)"/>
<path fill="url(#linearGradient3750)" d="m322.2,163.35c0,3.3025-2.6772,5.9796-5.9796,5.9796-3.3025,0-5.9796-2.6772-5.9796-5.9796 0-3.3025 2.6772-5.9796 5.9796-5.9796 3.3025,0 5.9796,2.6772 5.9796,5.9796z" transform="matrix(.19724 .11387 0 .22775 295.05 149.05)"/>
<path fill="url(#linearGradient3750)" d="m322.2,163.35c0,3.3025-2.6772,5.9796-5.9796,5.9796-3.3025,0-5.9796-2.6772-5.9796-5.9796 0-3.3025 2.6772-5.9796 5.9796-5.9796 3.3025,0 5.9796,2.6772 5.9796,5.9796z" transform="matrix(.19724 .11387 0 .22775 316.64 161.55)"/>
</g>
<g transform="matrix(.92352 0 0 .92352 -324.961 -128.34)">
<path fill="#808388" d="m383.57,139.96-30.686,17.717 30.686,17.717 30.686-17.717-30.686-17.717z"/>
<path fill="#7e7e82" d="m356.07,163.12 24.434,14.044v10.63l-24.549-14.173 .1145-10.501z"/>
</g>
<g fill="#6c6c6c" transform="matrix(.92352 0 0 .92352 -324.961 -128.34)">
<path d="m359.03,175.39v-10.63l-3.0686-1.7717v10.63l3.0686,1.7716z"/>
<path d="m380.51,187.8v-10.63l-3.0686-1.7717v10.63l3.0686,1.7716z"/>
<path d="m371.3,182.48v-10.63l-3.0686-1.7717v10.63l3.0686,1.7716z"/>
<path d="m368.23,180.71v-10.63l-3.0686-1.7717v10.63l3.0686,1.7716z"/>
</g>
<g stroke="#4c4c4c" transform="matrix(.92352 0 0 .92352 -324.961 -128.34)">
<path fill="url(#linearGradient3750)" d="m322.2,163.35c0,3.3025-2.6772,5.9796-5.9796,5.9796-3.3025,0-5.9796-2.6772-5.9796-5.9796 0-3.3025 2.6772-5.9796 5.9796-5.9796 3.3025,0 5.9796,2.6772 5.9796,5.9796z" transform="matrix(.19724 .11387 0 .22775 305.94 102.28)"/>
<path fill="url(#linearGradient3750)" d="m322.2,163.35c0,3.3025-2.6772,5.9796-5.9796,5.9796-3.3025,0-5.9796-2.6772-5.9796-5.9796 0-3.3025 2.6772-5.9796 5.9796-5.9796 3.3025,0 5.9796,2.6772 5.9796,5.9796z" transform="matrix(.19724 .11387 0 .22775 295.05 95.904)"/>
<path fill="url(#linearGradient3750)" d="m322.2,163.35c0,3.3025-2.6772,5.9796-5.9796,5.9796-3.3025,0-5.9796-2.6772-5.9796-5.9796 0-3.3025 2.6772-5.9796 5.9796-5.9796 3.3025,0 5.9796,2.6772 5.9796,5.9796z" transform="matrix(.19724 .11387 0 .22775 316.64 108.4)"/>
</g>
<g transform="matrix(.92352 0 0 .92352 -324.961 -128.34)">
<path fill="#3e4447" d="m383.57,175.39 30.686-17.717v70.866l-30.686,17.717v-70.866z"/>
<path fill="none" stroke="#000" d="m355.96,162.99 24.549,14.173v10.63l-24.549-14.173v-10.63z"/>
<path fill="#7e7e82" d="m356.07,173.75 24.434,14.044v10.63l-24.549-14.173 .1145-10.501z"/>
</g>
<g fill="#6c6c6c" transform="matrix(.92352 0 0 .92352 -324.961 -128.34)">
<path d="m359.03,186.02v-10.63l-3.0686-1.7717v10.63l3.0686,1.7716z"/>
<path d="m380.51,198.43v-10.63l-3.0686-1.7717v10.63l3.0686,1.7716z"/>
<path d="m371.3,193.11v-10.63l-3.0686-1.7717v10.63l3.0686,1.7716z"/>
<path d="m368.23,191.34v-10.63l-3.0686-1.7717v10.63l3.0686,1.7716z"/>
</g>
<g stroke="#4c4c4c" transform="matrix(.92352 0 0 .92352 -324.961 -128.34)">
<path fill="url(#linearGradient3750)" d="m322.2,163.35c0,3.3025-2.6772,5.9796-5.9796,5.9796-3.3025,0-5.9796-2.6772-5.9796-5.9796 0-3.3025 2.6772-5.9796 5.9796-5.9796 3.3025,0 5.9796,2.6772 5.9796,5.9796z" transform="matrix(.19724 .11387 0 .22775 305.94 112.91)"/>
<path fill="url(#linearGradient3750)" d="m322.2,163.35c0,3.3025-2.6772,5.9796-5.9796,5.9796-3.3025,0-5.9796-2.6772-5.9796-5.9796 0-3.3025 2.6772-5.9796 5.9796-5.9796 3.3025,0 5.9796,2.6772 5.9796,5.9796z" transform="matrix(.19724 .11387 0 .22775 295.05 106.53)"/>
<path fill="url(#linearGradient3750)" d="m322.2,163.35c0,3.3025-2.6772,5.9796-5.9796,5.9796-3.3025,0-5.9796-2.6772-5.9796-5.9796 0-3.3025 2.6772-5.9796 5.9796-5.9796 3.3025,0 5.9796,2.6772 5.9796,5.9796z" transform="matrix(.19724 .11387 0 .22775 316.64 119.03)"/>
</g>
<g transform="matrix(.92352 0 0 .92352 -324.961 -128.34)">
<path fill="none" stroke="#000" d="m355.96,173.62 24.549,14.173v10.63l-24.549-14.173v-10.63z"/>
<path fill="#7e7e82" d="m356.07,184.38 24.434,14.044v10.63l-24.549-14.173 .1145-10.501z"/>
</g>
<g fill="#6c6c6c" transform="matrix(.92352 0 0 .92352 -324.961 -128.34)">
<path d="m359.03,196.65v-10.63l-3.0686-1.7717v10.63l3.0686,1.7716z"/>
<path d="m380.51,209.06v-10.63l-3.0686-1.7717v10.63l3.0686,1.7716z"/>
<path d="m371.3,203.74v-10.63l-3.0686-1.7717v10.63l3.0686,1.7716z"/>
<path d="m368.23,201.97v-10.63l-3.0686-1.7717v10.63l3.0686,1.7716z"/>
</g>
<g stroke="#4c4c4c" transform="matrix(.92352 0 0 .92352 -324.961 -128.34)">
<path fill="url(#linearGradient3750)" d="m322.2,163.35c0,3.3025-2.6772,5.9796-5.9796,5.9796-3.3025,0-5.9796-2.6772-5.9796-5.9796 0-3.3025 2.6772-5.9796 5.9796-5.9796 3.3025,0 5.9796,2.6772 5.9796,5.9796z" transform="matrix(.19724 .11387 0 .22775 305.94 123.54)"/>
<path fill="url(#linearGradient3750)" d="m322.2,163.35c0,3.3025-2.6772,5.9796-5.9796,5.9796-3.3025,0-5.9796-2.6772-5.9796-5.9796 0-3.3025 2.6772-5.9796 5.9796-5.9796 3.3025,0 5.9796,2.6772 5.9796,5.9796z" transform="matrix(.19724 .11387 0 .22775 295.05 117.16)"/>
<path fill="url(#linearGradient3750)" d="m322.2,163.35c0,3.3025-2.6772,5.9796-5.9796,5.9796-3.3025,0-5.9796-2.6772-5.9796-5.9796 0-3.3025 2.6772-5.9796 5.9796-5.9796 3.3025,0 5.9796,2.6772 5.9796,5.9796z" transform="matrix(.19724 .11387 0 .22775 316.64 129.66)"/>
</g>
<g transform="matrix(.92352 0 0 .92352 -324.961 -128.34)">
<path fill="#7e7e82" d="m356.07,205.64 24.434,14.044v10.63l-24.549-14.173 .1145-10.501z"/>
</g>
<g fill="#6c6c6c" transform="matrix(.92352 0 0 .92352 -324.961 -128.34)">
<path d="m359.03,217.91v-10.63l-3.0686-1.7717v10.63l3.0686,1.7716z"/>
<path d="m380.51,230.31v-10.63l-3.0686-1.7717v10.63l3.0686,1.7716z"/>
<path d="m371.3,225v-10.63l-3.0686-1.7717v10.63l3.0686,1.7716z"/>
<path d="m368.23,223.23v-10.63l-3.0686-1.7717v10.63l3.0686,1.7716z"/>
</g>
<g stroke="#4c4c4c" transform="matrix(.92352 0 0 .92352 -324.961 -128.34)">
<path fill="url(#linearGradient3750)" d="m322.2,163.35c0,3.3025-2.6772,5.9796-5.9796,5.9796-3.3025,0-5.9796-2.6772-5.9796-5.9796 0-3.3025 2.6772-5.9796 5.9796-5.9796 3.3025,0 5.9796,2.6772 5.9796,5.9796z" transform="matrix(.19724 .11387 0 .22775 305.94 144.8)"/>
<path fill="url(#linearGradient3750)" d="m322.2,163.35c0,3.3025-2.6772,5.9796-5.9796,5.9796-3.3025,0-5.9796-2.6772-5.9796-5.9796 0-3.3025 2.6772-5.9796 5.9796-5.9796 3.3025,0 5.9796,2.6772 5.9796,5.9796z" transform="matrix(.19724 .11387 0 .22775 295.05 138.42)"/>
<path fill="url(#linearGradient3750)" d="m322.2,163.35c0,3.3025-2.6772,5.9796-5.9796,5.9796-3.3025,0-5.9796-2.6772-5.9796-5.9796 0-3.3025 2.6772-5.9796 5.9796-5.9796 3.3025,0 5.9796,2.6772 5.9796,5.9796z" transform="matrix(.19724 .11387 0 .22775 316.64 150.92)"/>
</g>
<g fill="none" stroke="#000" transform="matrix(.92352 0 0 .92352 -324.961 -128.34)">
<path d="m355.96,184.25 24.549,14.173v10.63l-24.549-14.173v-10.63z"/>
<path d="m355.96,194.88 24.549,14.173v10.63l-24.549-14.173v-10.63z"/>
</g>
<g transform="matrix(.92352 0 0 .92352 -324.961 -128.34)">
<path fill="#7e7e82" d="m356.07,195.01 24.434,14.044v10.63l-24.549-14.173 .1145-10.501z"/>
</g>
<g fill="#6c6c6c" transform="matrix(.92352 0 0 .92352 -324.961 -128.34)">
<path d="m359.03,207.28v-10.63l-3.0686-1.7717v10.63l3.0686,1.7716z"/>
<path d="m380.51,219.69v-10.63l-3.0686-1.7717v10.63l3.0686,1.7716z"/>
<path d="m371.3,214.37v-10.63l-3.0686-1.7717v10.63l3.0686,1.7716z"/>
<path d="m368.23,212.6v-10.63l-3.0686-1.7717v10.63l3.0686,1.7716z"/>
</g>
<g stroke="#4c4c4c" transform="matrix(.92352 0 0 .92352 -324.961 -128.34)">
<path fill="url(#linearGradient3750)" d="m322.2,163.35c0,3.3025-2.6772,5.9796-5.9796,5.9796-3.3025,0-5.9796-2.6772-5.9796-5.9796 0-3.3025 2.6772-5.9796 5.9796-5.9796 3.3025,0 5.9796,2.6772 5.9796,5.9796z" transform="matrix(.19724 .11387 0 .22775 305.94 134.17)"/>
<path fill="url(#linearGradient3750)" d="m322.2,163.35c0,3.3025-2.6772,5.9796-5.9796,5.9796-3.3025,0-5.9796-2.6772-5.9796-5.9796 0-3.3025 2.6772-5.9796 5.9796-5.9796 3.3025,0 5.9796,2.6772 5.9796,5.9796z" transform="matrix(.19724 .11387 0 .22775 295.05 127.79)"/>
<path fill="url(#linearGradient3750)" d="m322.2,163.35c0,3.3025-2.6772,5.9796-5.9796,5.9796-3.3025,0-5.9796-2.6772-5.9796-5.9796 0-3.3025 2.6772-5.9796 5.9796-5.9796 3.3025,0 5.9796,2.6772 5.9796,5.9796z" transform="matrix(.19724 .11387 0 .22775 316.64 140.29)"/>
</g>
<g fill="none">
<g stroke="#000">
<g transform="matrix(.92352 0 0 .92352 -324.961 -128.34)">
<path d="m355.96,205.51 24.549,14.173v10.63l-24.549-14.173v-10.63z"/>
<path d="m355.96,216.14 24.549,14.173v10.63l-24.549-14.173v-10.63z"/>
</g>
<g stroke-width="1.8" transform="matrix(.92352 0 0 .92352 -324.961 -128.34)">
<path d="m355.96,162.99v31.89l24.549,14.173v-31.89l-24.549-14.173z"/>
<path d="m355.96,194.88v31.89l24.549,14.173v-31.89l-24.549-14.173z"/>
</g>
</g>
<g stroke-linejoin="round" stroke-linecap="round" stroke-width=".4" transform="matrix(.92352 0 0 .92352 -324.961 -128.34)">
<path stroke="#ababab" d="m352.89,157.68 30.686,17.717v70.866"/>
<path stroke="#6c6c6c" d="m352.89,157.68v70.866l30.686,17.717"/>
<path stroke="#757575" d="m383.57,175.39 30.686-17.717"/>
</g>
</g>
<g stroke="#000">
<g fill="#262626" transform="matrix(.92352 0 0 .92352 -324.961 -128.34)">
<path d="m411.19,162.99-24.549,14.173v28.346l24.549-14.173v-28.346z"/>
<path d="m411.19,198.43-24.549,14.173v28.346l24.549-14.173v-28.346z"/>
</g>
<g fill="none">
<g transform="matrix(.92352 0 0 .92352 -324.961 -128.34)">
<path d="m389.77,175.42-.0565,28.321"/>
<path d="m392.78,173.62-.0565,28.321"/>
<path d="m395.85,171.85-.0565,28.321"/>
<path d="m398.92,170.08-.0565,28.321"/>
<path d="m401.99,168.31-.0565,28.321"/>
<path d="m405.05,166.54-.0565,28.321"/>
<path d="m408.12,164.76-.0565,28.321"/>
</g>
<g transform="matrix(.92352 0 0 .92352 -324.90882 -95.59383)">
<path d="m389.77,175.42-.0565,28.321"/>
<path d="m392.78,173.62-.0565,28.321"/>
<path d="m395.85,171.85-.0565,28.321"/>
<path d="m398.92,170.08-.0565,28.321"/>
<path d="m401.99,168.31-.0565,28.321"/>
<path d="m405.05,166.54-.0565,28.321"/>
<path d="m408.12,164.76-.0565,28.321"/>
</g>
</g>
</g>
</svg>
