<svg xmlns="http://www.w3.org/2000/svg" viewBox="0 0 1322.2 968.62" xmlns:xlink="http://www.w3.org/1999/xlink">
<defs>
<filter width="1.139" x="-.069" y="-.155" height="1.311" color-interpolation-filters="sRGB" id="filter7263">
<feGaussianBlur stdDeviation="33.6023"/>
</filter>
<filter width="1.588" x="-.294" y="-.417" height="1.834" color-interpolation-filters="sRGB" id="filter6300-68">
<feGaussianBlur stdDeviation="17.86293"/>
</filter>
<linearGradient gradientTransform="translate(26.143 30.036)" id="linearGradient7373" y1="306.61" x1="-525.69" y2="475.36" gradientUnits="userSpaceOnUse" x2="732.69">
<stop offset="0" stop-color="#fff" stop-opacity=".889"/>
<stop offset=".27" stop-color="#6f6f6f" stop-opacity="0"/>
<stop offset=".422" stop-color="#9f9f9f" stop-opacity=".498"/>
<stop offset=".81" stop-color="#fff" stop-opacity=".453"/>
<stop offset="1" stop-opacity="0"/>
</linearGradient>
</defs>
<g fill="none" transform="matrix(1 0 0 1.4233 523.94 -66.018)">
<path d="m-436.58,216.05c570.5-138.44 1074.7,249.88 1156.9-103.21l-34.636,534.83c-425.33-128.09-714.64-792.4-1129-96.28z"/>
<path d="m-435.94,268.6c366.55-230.02 1027.1,158.31 1147.7-19.03"/>
<path d="m-442.84,329.04c404.14-302.15 808.55,45.796 1149.8,20.694"/>
<path d="m-442.71,395.79c401.66-423.16 763.09,14.815 1143.1,49.223"/>
<path d="m-442,463c461.06-565.96 757.13,52.556 1135.7,78.834"/>
</g>
<g fill-rule="evenodd" transform="matrix(1 0 0 1.4233 523.94 -66.018)">
<path fill="#4ac911" d="m542.32,294.84c-34.632-2.8305-75.522-8.7776-127.5-18.544-23.48-4.4117-51.394-10.101-142.18-28.977-112.32-23.355-173.01-34.249-238.82-42.872-167.58-21.956-295.33-13.1-398.48,27.623-19.526,7.7091-41.812,18.396-58.811,28.202-6.7588,3.8988-12.563,7.0888-12.898,7.0888-.5105,0 .4928-50.168 1.0128-50.645 .6657-.6109 39.685-8.9261 55.395-11.805 72.107-13.214 136.86-18.843 215.39-18.725 58.015,.087 97.856,2.0619 156.39,7.7519 73.912,7.1849 125.24,14.998 288.5,43.922 90.957,16.114 127.29,21.509 176,26.138 26.349,2.5039 83.41,2.5529 101,.087 50.33-7.0565 82.96-21.142 110.35-47.633 21.141-20.449 36.281-46.448 47.223-81.091 2.8121-8.9035 3.32-9.8918 3.3401-6.5 .013,2.2-1.6978,30.209-3.802,62.242l-3.8257,58.242-2.8579,4.1239c-4.3892,6.3336-16.449,16.93-25.176,22.121-17.606,10.473-39.198,16.72-68.249,19.747-12.836,1.3372-52.943,1.0602-72-.4973z"/>
<path fill="#009fff" d="m653.32,349.78c-57.894-2.2357-115.06-11.403-193.31-31.004-22.643-5.6713-82.855-22.464-128.69-35.89-34.114-9.993-91.491-26.362-114.5-32.666-82.957-22.727-160.17-37.428-228.5-43.506-28.123-2.5015-96.567-2.5292-121-.049-72.673,7.3773-133.63,23.743-195.77,52.561-32.674,15.153-71.636,37.933-99.98,58.454l-9.25,6.6972v-12.847c0-21.699 1.1824-42.828 2.3989-42.867 .6056-.019 5.3761-2.6096 10.601-5.7558 12.434-7.487 44.339-23.075 59.5-29.07 111.39-44.046 251.57-50.812 443.5-21.407 54.859,8.4052 101.17,17.273 234,44.808 113.62,23.553 152.34,30.591 199,36.172 76.227,9.117 127.28,5.5213 162.5-11.446 12.884-6.2066 20.65-11.835 29.991-21.737l6.7739-7.1807-.625,7.4091c-.3437,4.075-1.7961,25.634-3.2276,47.909s-2.6995,40.602-2.8177,40.727c-.4191,.4424-42.228,1.0104-50.594,.6872z"/>
<path fill="#c700ff" d="m690.32,443.11c-34.135-3.5009-76.128-12.292-120.49-25.222-52.846-15.405-101.13-33.681-189.51-71.732-110.03-47.372-125.79-54.072-149.74-63.68-100.05-40.138-174.54-60.775-245.76-68.086-28.881-2.9646-76.371-2.7676-103,.4274-110.16,13.217-208.65,65.056-305.86,160.99-8.175,8.0673-14.939,14.531-15.031,14.365-.092-.1667 .117-14.395 .4644-31.618 .5015-24.861 .9201-31.603 2.031-32.712 2.5815-2.5763 21.787-15.938 35.156-24.458 95.462-60.841 195.44-91.856 305.74-94.85 82.199-2.2318 158.98,7.4692 267,33.734 34.429,8.3713 82.686,21.761 162.5,45.089 132.53,38.736 194.89,53.386 261.5,61.433 30.746,3.7147 50.562,4.7921 81.252,4.4177l27.752-.3385-.5099,4.5c-.2804,2.475-1.648,22.95-3.0391,45.5-1.3912,22.55-2.6252,41.453-2.7423,42.006-.1375,.6494-2.8703,.7332-7.7129,.2365z"/>
<path fill="#ff0a00" d="m671.32,538.77c-49.857-6.7868-100.49-23.105-157.5-50.755-49.33-23.927-84.668-44.377-168.5-97.511-19.525-12.375-44.05-27.884-54.5-34.465-62.913-39.617-110.77-66.214-155.83-86.599-108.51-49.095-203.79-57.757-296.15-26.925-49.254,16.442-98.767,44.614-148.03,84.222-38.306,30.802-83.77,76.244-121.43,121.37-5.1637,6.1875-9.5418,11.25-9.729,11.25-.1872,0-.0628-14.738 .2765-32.75l.617-32.75 13.635-13.83c76.217-77.309 161.58-129.82 247.2-152.07 71.062-18.465 143.41-19.13 225.72-2.0759 70.564,14.62 138.39,38.071 252.21,87.209 155.63,67.186 175.6,75.302 233.5,94.899 52.658,17.824 112.28,31.91 154.02,36.39l11.022,1.183-1.7427,27.146c-.9584,14.93-2.3181,36.146-3.0215,47.146l-1.2789,20-5,.169c-2.75,.093-9.725-.4741-15.5-1.2603z"/>
<path fill="#ffec00" d="m666.32,640.45c-53.423-18.817-94.409-38.819-152.5-74.422-45.12-27.653-87.529-57.473-164.5-115.67-109.31-82.647-138.76-103.87-182-131.19-115.24-72.812-205.3-95.328-293-73.258-34.655,8.7208-73.29,27.331-106.5,51.302-67.901,49.009-134.84,127.71-201.65,237.08l-8.8117,14.425 .491-17.425c.2701-9.5837 .7622-28.996 1.0937-43.139l.6026-25.715 11.562-13.785c37.039-44.162 82.067-89.278 119.21-119.44 66.064-53.649 135.33-87.413 201.5-98.22 23.502-3.8382 27.434-4.1216 57-4.1082 23.357,.011 32.989,.4171 43.5,1.8358 83.756,11.305 162.52,44.696 285,120.82 10.175,6.3242 32.675,20.5 50,31.501 95.434,60.6 126.72,79.049 175,103.2 66.25,33.134 123.87,51.675 177.56,57.137 5.9861,.6089 11.062,1.2851 11.279,1.5026 .2175,.2176-1.0167,22.354-2.7428,49.193s-3.1296,50.035-3.119,51.548c.011,1.5703-.5168,2.7281-1.2306,2.6989-.6875-.028-8.675-2.6664-17.75-5.8629z"/>
<path opacity=".206" fill="#fff" filter="url(#filter6300-68)" d="m109.11,174.88c-30.433,3.0359-60.518,7.3248-92,13.094-10.382,1.9026-30.77,6.1487-43.719,9 9.6956,11.907 25.855,20.703 45.062,23.969 4.7356-2.0639 9.4305-4.0207 13.969-5.8125 22.092-8.7222 45.314-15.972 69.812-21.781 3.7887-5.6484 6.1839-11.885 6.875-18.469zm-8.25,20.406c-24.206,5.7744-47.145,12.964-68.969,21.594-2.9408,1.1629-6.626,2.7761-10.562,4.5312 4.4371,.6166 9.0242,.9375 13.719,.9375h2.8438c27.308,0 50.943-10.929 62.969-27.062z" transform="matrix(-1 0 0 1 108.64 30.036)"/>
<path opacity=".51" fill="url(#linearGradient7373)" filter="url(#filter7263)" d="m717.27,127.05c-.4009,.244-1.2737,2.7166-3.0312,8.2813-10.942,34.643-26.078,60.645-47.219,81.094-27.388,26.491-60.014,40.568-110.34,47.625-17.59,2.4659-74.651,2.4101-101-.094-48.712-4.6291-85.043-10.012-176-26.125-163.27-28.92-214.59-36.75-288.51-43.94-58.534-5.69-98.391-7.663-156.41-7.75-78.531-.1178-143.27,5.5365-215.38,18.75-15.71,2.8789-54.741,11.17-55.406,11.781-.52,.4772-1.5105,50.656-1,50.656 .3352-.0001 6.1474-3.195 12.906-7.0938 16.999-9.8061 39.287-20.478 58.812-28.188 103.14-40.723 230.89-49.581 398.47-27.625 65.813,8.6225 126.49,19.52 238.81,42.875 90.784,18.876 118.71,24.557 142.19,28.969 51.978,9.7663 92.868,15.701 127.5,18.531 19.057,1.5575 59.164,1.8372 72,.5 29.051-3.0265 50.644-9.277 68.25-19.75 8.7269-5.1911 20.767-15.791 25.156-22.125l2.875-4.125 3.8125-58.219c2.1042-32.033 3.8255-60.05 3.8125-62.25-.01-1.272-.072-1.9277-.3125-1.7813zm-849.44,67.5c-91.244,.099-167.52,13.098-233.66,39.25-15.161,5.9951-47.066,21.576-59.5,29.062-5.225,3.1462-9.9882,5.731-10.594,5.75-1.2165,.039-2.4062,21.176-2.4062,42.875v12.844l9.25-6.6876c28.344-20.521 67.295-43.316 99.969-58.469 62.139-28.818 123.11-45.185 195.78-52.562 24.433-2.4802 92.877-2.439 121,.062 68.331,6.0778 145.54,20.773 228.5,43.5 23.009,6.3037 80.386,22.694 114.5,32.688 45.834,13.426 106.04,30.204 128.69,35.875 78.255,19.6 135.42,28.764 193.31,31 8.367,.3232 50.175-.2451 50.594-.6875 .1182-.1248 1.381-18.444 2.8125-40.719s2.8751-43.831 3.2188-47.906l.625-7.4063-6.75,7.1876c-9.3413,9.9023-17.116,15.512-30,21.719-35.222,16.967-86.273,20.554-162.5,11.438-46.661-5.5809-85.38-12.604-199-36.156-132.86-27.54-179.17-36.41-234.03-44.82-77.966-11.94-147.41-17.91-209.84-17.84zm58.844,11.625c-7.6412,0-15.294,.1033-23,.3125-110.31,2.9949-210.29,34.003-305.75,94.844-13.369,8.5201-32.575,21.892-35.156,24.469-1.1109,1.1087-1.5298,7.8577-2.0312,32.719-.3474,17.223-.5607,31.458-.4688,31.625 .092,.1667 6.8562-6.3077 15.031-14.375 97.214-95.933 195.71-147.78 305.88-161 26.629-3.1949 74.119-3.3708 103-.4062 71.222,7.3109 145.7,27.924 245.75,68.062 23.948,9.6076 39.717,16.315 149.75,63.688 88.384,38.052 136.65,56.345 189.5,71.75 44.359,12.931 86.366,21.718 120.5,25.219 4.8426,.4966 7.5812,.3994 7.7187-.25 .1171-.5531 1.3276-19.45 2.7188-42 1.3911-22.55 2.7821-43.025 3.0625-45.5l.5-4.5-27.75,.3437c-30.69,.3744-50.505-.7228-81.25-4.4375-66.608-8.0476-128.97-22.67-261.5-61.406-79.814-23.328-128.07-36.722-162.5-45.094-97.888-23.79-170.13-34-244-34.05zm9.7188,7.375c-39.778-.2256-77.904,4.5657-115.66,14.375-85.626,22.249-170.97,74.753-247.19,152.06l-13.656,13.844-.625,32.75c-.3393,18.012-.4372,32.75-.25,32.75 .1873,0 4.555-5.0626 9.7188-11.25 37.664-45.131 83.132-90.573 121.44-121.38 49.258-39.608 98.778-67.777 148.03-84.219 92.362-30.832 187.61-22.189 296.12,26.906 45.056,20.386 92.93,47.008 155.84,86.625 10.45,6.5805 34.975,22.062 54.5,34.438 83.832,53.134 119.17,73.604 168.5,97.531 57.006,27.65 107.64,43.963 157.5,50.75 5.775,.7862 12.75,1.343 15.5,1.25l5-.1562 1.2812-20c.7034-11 2.0416-32.226 3-47.156l1.75-27.125-11-1.1875c-41.744-4.4803-101.37-18.582-154.03-36.406-57.897-19.597-77.867-27.72-233.5-94.906-113.83-49.138-181.66-72.568-252.22-87.187-38.584-7.9941-74.964-12.114-110.06-12.312zm11.781,13.281c-29.566-.013-33.498,.2868-57,4.125-66.168,10.806-135.44,44.57-201.5,98.219-37.147,30.166-82.18,75.275-119.22,119.44l-11.562,13.781-.5938,25.719c-.3314,14.143-.8237,33.573-1.0938,43.156l-.5,17.406 8.8125-14.406c66.809-109.37 133.76-188.08 201.66-237.09 33.21-23.97 71.845-42.592 106.5-51.312 87.705-22.07 177.76,.4688 293,73.281 43.239,27.319 72.688,48.541 182,131.19 76.971,58.194 119.38,88.003 164.5,115.66 58.091,35.603 99.077,55.62 152.5,74.438 9.075,3.1965 17.062,5.8157 17.75,5.8437 .7138,.029 1.2297-1.1171 1.2187-2.6874-.011-1.5125 1.3989-24.724 3.125-51.563s2.9675-48.97 2.75-49.187c-.2176-.2175-5.2951-.8912-11.281-1.5-53.694-5.4619-111.31-23.991-177.56-57.125-48.279-24.146-79.566-42.588-175-103.19-17.325-11.001-39.825-25.207-50-31.531-122.46-76.15-201.22-109.53-284.98-120.84-10.507-1.42-20.139-1.83-43.496-1.84z"/>
</g>
</svg>
