<svg xmlns="http://www.w3.org/2000/svg" viewBox="0 0 270.9064 197.0993" xmlns:xlink="http://www.w3.org/1999/xlink">
<defs>
<filter color-interpolation-filters="sRGB" id="filter29885">
<feGaussianBlur stdDeviation=".85656"/>
</filter>
<filter color-interpolation-filters="sRGB" id="filter29881">
<feGaussianBlur stdDeviation=".85656"/>
</filter>
<filter width="1.024" x="-.012" y="-1.371" height="3.743" color-interpolation-filters="sRGB" id="filter30992">
<feGaussianBlur stdDeviation="1.41421"/>
</filter>
<filter width="1.024" x="-.012" y="-.631" height="2.262" color-interpolation-filters="sRGB" id="filter31123">
<feGaussianBlur stdDeviation="1.315"/>
</filter>
<filter color-interpolation-filters="sRGB" id="filter31173">
<feGaussianBlur stdDeviation=".35672"/>
</filter>
<filter color-interpolation-filters="sRGB" id="filter30982">
<feGaussianBlur stdDeviation=".78438"/>
</filter>
<filter width="1.07" x="-.035" y="-.108" height="1.216" color-interpolation-filters="sRGB" id="filter29865">
<feGaussianBlur stdDeviation=".99016"/>
</filter>
<filter width="1.025" x="-.012" y="-.472" height="1.944" color-interpolation-filters="sRGB" id="filter30799">
<feGaussianBlur stdDeviation=".4425"/>
</filter>
<linearGradient id="linearGradient30824">
<stop offset="0" stop-color="#00112b"/>
<stop offset=".5" stop-color="#536c67"/>
<stop offset="1" stop-color="#325161"/>
</linearGradient>
<linearGradient gradientTransform="matrix(1.135 0 0 1.135 -58.617 -134.66)" id="linearGradient48080" xlink:href="#linearGradient16181" x1="414.77" gradientUnits="userSpaceOnUse" x2="454.27"/>
<linearGradient id="linearGradient48098" xlink:href="#linearGradient16181" x1="590.28" gradientUnits="userSpaceOnUse" x2="496"/>
<linearGradient gradientTransform="matrix(.88923 0 0 .33046 56.587 693.58)" id="linearGradient48074" xlink:href="#linearGradient30824" y1="1003.6" y2="792.69" gradientUnits="userSpaceOnUse" x2="0"/>
<linearGradient id="linearGradient48076" xlink:href="#linearGradient16181" x1="731.61" gradientUnits="userSpaceOnUse" x2="346.61"/>
<linearGradient gradientTransform="matrix(0 3.581 -1.0536 0 1322 -513.37)" id="linearGradient48092" xlink:href="#linearGradient16181" y1="612.59" y2="688.54" gradientUnits="userSpaceOnUse" x2="0"/>
<linearGradient gradientTransform="matrix(.94461 0 0 .98346 25.994 82.43)" id="linearGradient48084" xlink:href="#linearGradient30824" y1="1003.9" y2="850.77" gradientUnits="userSpaceOnUse" x2="0"/>
<linearGradient gradientTransform="matrix(0 3.6855 -.92381 0 1141.3 -558.82)" id="linearGradient48096" xlink:href="#linearGradient16181" y1="612.59" y2="688.54" gradientUnits="userSpaceOnUse" x2="0"/>
<linearGradient gradientTransform="matrix(0 1.0332 -1.0536 0 1322 460.08)" id="linearGradient48094" xlink:href="#linearGradient16181" y1="612.59" y2="688.54" gradientUnits="userSpaceOnUse" x2="0"/>
<linearGradient gradientTransform="matrix(.94563 0 0 -.1522 25.758 988.04)" id="linearGradient48086" xlink:href="#linearGradient16181" x1="389.26" gradientUnits="userSpaceOnUse" x2="695.85"/>
<linearGradient gradientTransform="matrix(0 3.581 -1.0536 0 1135 -513.37)" id="linearGradient48088" xlink:href="#linearGradient16181" y1="612.59" y2="688.54" gradientUnits="userSpaceOnUse" x2="0"/>
<linearGradient gradientTransform="matrix(.94872 0 0 .62222 25.429 357.22)" id="linearGradient48078" xlink:href="#linearGradient16181" x1="395.5" gradientUnits="userSpaceOnUse" x2="686.5"/>
<linearGradient id="linearGradient16181">
<stop offset="0" stop-color="#784421"/>
<stop offset=".5" stop-color="#fee47f"/>
<stop offset="1" stop-color="#784421"/>
</linearGradient>
<linearGradient gradientTransform="matrix(0 1.0332 -1.0536 0 1135 460.08)" id="linearGradient48090" xlink:href="#linearGradient16181" y1="612.59" y2="688.54" gradientUnits="userSpaceOnUse" x2="0"/>
</defs>
<g transform="matrix(.93404 0 0 .81673 -368.13762 -780.07516)">
<path fill="url(#linearGradient48074)" d="m402.67,970.74h273v55.668h-273z"/>
<path opacity=".385" fill="#00112b" d="m402.67,973.2v11.25h21.906v-11.25h-21.906zm24.094,0v11.25h35.656v-11.25h-35.656zm37.875,0v11.25h35.625v-11.25h-35.625zm37.812,0v11.25h35.625v-11.25h-35.625zm37.844,0v11.25h35.625v-11.25h-35.625zm37.844,0v11.25h35.625v-11.25h-35.625zm37.812,0v11.25h35.656v-11.25h-35.656zm37.844,0v11.25h21.875v-11.25h-21.875zm-251.12,13.156v19.031h3v-19.031h-3zm5.1875,0v19.031h35.594v-19.031h-35.594zm37.844,0v19.031h35.625v-19.031h-35.625zm37.812,0v19.031h35.656v-19.031h-35.656zm37.844,0v19.031h35.625v-19.031h-35.625zm37.844,0v19.031h35.656v-19.031h-35.656zm37.844,0v19.031h35.625v-19.031h-35.625zm37.844,0v19.031h35.594v-19.031h-35.594zm37.812,0v19.031h2.9688v-19.031h-2.9688zm-270.03,20.969v19.031h21.906v-19.031h-21.906zm24.094,0v19.031h35.656v-19.031h-35.656zm37.875,0v19.031h35.625v-19.031h-35.625zm37.812,0v19.031h35.625v-19.031h-35.625zm37.844,0v19.031h35.625v-19.031h-35.625zm37.844,0v19.031h35.625v-19.031h-35.625zm37.812,0v19.031h35.656v-19.031h-35.656zm37.844,0v19.031h21.875v-19.031h-21.875zm-251.12,21v.5625h3v-.5625h-3zm5.1875,0v.5625h35.594v-.5625h-35.594zm37.844,0v.5625h35.625v-.5625h-35.625zm37.812,0v.5625h35.656v-.5625h-35.656zm37.844,0v.5625h35.625v-.5625h-35.625zm37.844,0v.5625h35.656v-.5625h-35.656zm37.844,0v.5625h35.625v-.5625h-35.625zm37.844,0v.5625h35.594v-.5625h-35.594zm37.812,0v.5625h2.9688v-.5625h-2.9688z"/>
<path opacity=".385" fill="none" stroke="#d7eef4" stroke-width=".3" d="m402.67,973.2v11.25h22.031v-11.25h-22.031zm24.219,0v11.25h35.594v-11.25h-35.594zm37.812,0v11.25h35.625v-11.25h-35.625zm37.781,0v11.25h35.594v-11.25h-35.594zm37.812,0v11.25h35.594v-11.25h-35.594zm37.781,0v11.25h35.625v-11.25h-35.625zm37.812,0v11.25h35.594v-11.25h-35.594zm37.781,0v11.25h22v-11.25h-22zm-251,13.156v19.031h3.125v-19.031h-3.125zm5.3125,0v19.031h35.562v-19.031h-35.562zm37.812,0v19.031h35.594v-19.031h-35.594zm37.781,0v19.031h35.594v-19.031h-35.594zm37.781,0v19.031h35.625v-19.031h-35.625zm37.844,0v19.031h35.594v-19.031h-35.594zm37.781,0v19.031h35.594v-19.031h-35.594zm37.812,0v19.031h35.562v-19.031h-35.562zm37.781,0v19.031h3.0938v-19.031h-3.0938zm-269.91,20.969v19.031h22.031v-19.031h-22.031zm24.219,0v19.031h35.594v-19.031h-35.594zm37.812,0v19.031h35.625v-19.031h-35.625zm37.781,0v19.031h35.594v-19.031h-35.594zm37.812,0v19.031h35.594v-19.031h-35.594zm37.781,0v19.031h35.625v-19.031h-35.625zm37.812,0v19.031h35.594v-19.031h-35.594zm37.781,0v19.031h22v-19.031h-22zm-251,21v.5625h3.125v-.5625h-3.125zm5.3125,0v.5625h35.562v-.5625h-35.562zm37.812,0v.5625h35.594v-.5625h-35.594zm37.781,0v.5625h35.594v-.5625h-35.594zm37.781,0v.5625h35.625v-.5625h-35.625zm37.844,0v.5625h35.594v-.5625h-35.594zm37.781,0v.5625h35.594v-.5625h-35.594zm37.812,0v.5625h35.562v-.5625h-35.562zm37.781,0v.5625h3.0938v-.5625h-3.0938z"/>
<path fill="url(#linearGradient48076)" d="m463.66,965.07h151.03v62.233h-151.03z"/>
<path fill="#280b0b" filter="url(#filter31123)" d="m471.47,965.04v1.6562c-36.66,.2764-61.281,7.1179-61.281,7.6765 0,.5585 24.621-5.3279 61.281-5.0515v53.583c-36.66,.2672-61.281,.7539-61.281,1.3126 0,.5585 24.621,1.0361 61.281,1.3124v1.0313h3.1875v-1c19.047,.1348 40.902,.2187 64.531,.2187 23.63,0 45.484-.084 64.531-.2187v1h3.1875v-1.0313c36.66-.2763 61.281-.7539 61.281-1.3124 0-.5587-24.621-1.0454-61.281-1.3126v-53.583c36.66-.2764 61.281,5.61 61.281,5.0515 0-.5585-24.621-7.4001-61.281-7.6765v-1.6562h-3.1875v1.625c-19.047-.1348-40.902-.2188-64.531-.2188-23.63,0-45.484,.084-64.531,.2188v-1.625zm3.1875,4.3125c19.047,.1348 40.902,.2188 64.531,.2188 23.63,0 45.484-.084 64.531-.2188v53.551c-19.047-.1301-40.902-.2187-64.531-.2187-23.63,0-45.484,.089-64.531,.2187z" transform="matrix(.99057 0 0 1 5.0701 0)"/>
<path fill="url(#linearGradient48078)" d="m460.81,955.12v6.8125h-60.625v12.438h60.344v52.188h13.312v-58.188h130.16v58.188h13.312v-52.188h60.375v-12.438h-60.625v-6.8125h-156.25z" transform="translate(.23483)"/>
</g>
<g transform="matrix(.93404 0 0 .81673 -368.13762 -779.46982)">
<path fill="#2b0000" filter="url(#filter31173)" d="m434.34,980c-9.8455,0-17.844,7.967-17.844,17.812 0,9.8455 7.9982,17.844 17.844,17.844 9.8455,0 17.844-7.9982 17.844-17.844 0-9.8455-7.9982-17.812-17.844-17.812z"/>
</g>
<g transform="matrix(.93404 0 0 .81673 -368.13762 -779.46982)">
<path fill="#fff6d5" d="m443,996.5c0,7.0295-5.6985,12.728-12.728,12.728-7.0294,0-12.728-5.6985-12.728-12.728 0-7.0294 5.6985-12.728 12.728-12.728 7.0294,0 12.728,5.6985 12.728,12.728z" transform="translate(4.0693 1.3274)"/>
<path fill="url(#linearGradient48080)" d="m434.34,980c-9.8455,0-17.844,7.967-17.844,17.812 0,9.8455 7.9982,17.844 17.844,17.844 9.8455,0 17.844-7.9982 17.844-17.844 0-9.8455-7.9982-17.812-17.844-17.812zm0,6c6.5285,0 11.844,5.284 11.844,11.812 0,6.5285-5.3152,11.844-11.844,11.844-6.5285,0-11.844-5.3152-11.844-11.844 0-6.53 5.32-11.81 11.84-11.81z"/>
</g>
<g transform="matrix(.93404 0 0 .81673 -172.30766 -779.46982)">
<path fill="#2b0000" filter="url(#filter31173)" d="m434.34,980c-9.8455,0-17.844,7.967-17.844,17.812 0,9.8455 7.9982,17.844 17.844,17.844 9.8455,0 17.844-7.9982 17.844-17.844 0-9.8455-7.9982-17.812-17.844-17.812z"/>
</g>
<g transform="matrix(.93404 0 0 .81673 -172.30766 -779.46982)">
<path fill="#fff6d5" d="m443,996.5c0,7.0295-5.6985,12.728-12.728,12.728-7.0294,0-12.728-5.6985-12.728-12.728 0-7.0294 5.6985-12.728 12.728-12.728 7.0294,0 12.728,5.6985 12.728,12.728z" transform="translate(4.0693 1.3274)"/>
<path fill="url(#linearGradient48080)" d="m434.34,980c-9.8455,0-17.844,7.967-17.844,17.812 0,9.8455 7.9982,17.844 17.844,17.844 9.8455,0 17.844-7.9982 17.844-17.844 0-9.8455-7.9982-17.812-17.844-17.812zm0,6c6.5285,0 11.844,5.284 11.844,11.812 0,6.5285-5.3152,11.844-11.844,11.844-6.5285,0-11.844-5.3152-11.844-11.844 0-6.53 5.32-11.81 11.84-11.81z"/>
</g>
<g transform="matrix(.93404 0 0 .81673 -367.63231 -679.70703)">
<path fill="url(#linearGradient48084)" d="m393.63,907.24h290v165.67h-290z"/>
<path opacity=".385" fill="#00112b" d="m393.63,924.72v11.318h11.488v-11.318h-11.488zm13.673,0v11.318h35.618v-11.318h-35.618zm37.865,0v11.318h35.618v-11.318h-35.618zm37.803,0v11.318h35.649v-11.318h-35.649zm37.834,0v11.318h35.649v-11.318h-35.649zm37.865,0v11.318h35.649v-11.318h-35.649zm37.834,0v11.318h35.618v-11.318h-35.618zm37.834,0v11.318h35.618v-11.318h-35.618zm37.834,0v11.318h11.456v-11.318h-11.456zm-278.54,13.241v19.042h30.405v-19.042h-30.405zm32.59,0v19.042h35.649v-19.042h-35.649zm37.865,0v19.042h35.649v-19.042h-35.649zm37.834,0v19.042h35.618v-19.042h-35.618zm37.834,0v19.042h35.618v-19.042h-35.618zm37.834,0v19.042h35.649v-19.042h-35.649zm37.834,0v19.042h35.649v-19.042h-35.649zm37.834,0v19.042h30.374v-19.042h-30.374zm-259.63,20.997v19.042h11.488v-19.042h-11.488zm13.673,0v19.042h35.618v-19.042h-35.618zm37.865,0v19.042h35.618v-19.042h-35.618zm37.803,0v19.042h35.649v-19.042h-35.649zm37.834,0v19.042h35.649v-19.042h-35.649zm37.865,0v19.042h35.649v-19.042h-35.649zm37.834,0v19.042h35.618v-19.042h-35.618zm37.834,0v19.042h35.618v-19.042h-35.618zm37.834,0v19.042h11.456v-19.042h-11.456zm-278.54,20.966v19.042h30.405v-19.042h-30.405zm32.59,0v19.042h35.649v-19.042h-35.649zm37.865,0v19.042h35.649v-19.042h-35.649zm37.834,0v19.042h35.618v-19.042h-35.618zm37.834,0v19.042h35.618v-19.042h-35.618zm37.834,0v19.042h35.649v-19.042h-35.649zm37.834,0v19.042h35.649v-19.042h-35.649zm37.834,0v19.042h30.374v-19.042h-30.374zm-259.63,20.966v19.042h11.488v-19.042h-11.488zm13.673,0v19.042h35.618v-19.042h-35.618zm37.865,0v19.042h35.618v-19.042h-35.618zm37.803,0v19.042h35.649v-19.042h-35.649zm37.834,0v19.042h35.649v-19.042h-35.649zm37.865,0v19.042h35.649v-19.042h-35.649zm37.834,0v19.042h35.618v-19.042h-35.618zm37.834,0v19.042h35.618v-19.042h-35.618zm37.834,0v19.042h11.456v-19.042h-11.456zm-278.54,20.966v19.042h30.405v-19.042h-30.405zm32.59,0v19.042h35.649v-19.042h-35.649zm37.865,0v19.042h35.649v-19.042h-35.649zm37.834,0v19.042h35.618v-19.042h-35.618zm37.834,0v19.042h35.618v-19.042h-35.618zm37.834,0v19.042h35.649v-19.042h-35.649zm37.834,0v19.042h35.649v-19.042h-35.649zm37.834,0v19.042h30.374v-19.042h-30.374zm-259.63,20.997v19.042h11.488v-19.042h-11.488zm13.673,0v19.042h35.618v-19.042h-35.618zm37.865,0v19.042h35.618v-19.042h-35.618zm37.803,0v19.042h35.649v-19.042h-35.649zm37.834,0v19.042h35.649v-19.042h-35.649zm37.865,0v19.042h35.649v-19.042h-35.649zm37.834,0v19.042h35.618v-19.042h-35.618zm37.834,0v19.042h35.618v-19.042h-35.618zm37.834,0v19.042h11.456v-19.042h-11.456zm-278.54,20.966v9.0798h30.405v-9.0798h-30.405zm32.59,0v9.0798h35.649v-9.0798h-35.649zm37.865,0v9.0798h35.649v-9.0798h-35.649zm37.834,0v9.0798h35.618v-9.0798h-35.618zm37.834,0v9.0798h35.618v-9.0798h-35.618zm37.834,0v9.0798h35.649v-9.0798h-35.649zm37.834,0v9.0798h35.649v-9.0798h-35.649zm37.834,0v9.0798h30.374v-9.0798h-30.374z"/>
<path opacity=".385" fill="none" stroke="#d7eef4" stroke-width=".3" d="m393.78,924.72v11.318h11.476v-11.318h-11.476zm13.659,0v11.318h35.581v-11.318h-35.581zm37.826,0v11.318h35.581v-11.318h-35.581zm37.764,0v11.318h35.612v-11.318h-35.612zm37.795,0v11.318h35.612v-11.318h-35.612zm37.826,0v11.318h35.612v-11.318h-35.612zm37.795,0v11.318h35.581v-11.318h-35.581zm37.795,0v11.318h35.581v-11.318h-35.581zm37.795,0v11.318h11.445v-11.318h-11.445zm-278.26,13.241v19.042h30.373v-19.042h-30.373zm32.556,0v19.042h35.612v-19.042h-35.612zm37.826,0v19.042h35.612v-19.042h-35.612zm37.795,0v19.042h35.581v-19.042h-35.581zm37.795,0v19.042h35.581v-19.042h-35.581zm37.795,0v19.042h35.612v-19.042h-35.612zm37.795,0v19.042h35.612v-19.042h-35.612zm37.795,0v19.042h30.342v-19.042h-30.342zm-259.36,20.997v19.042h11.476v-19.042h-11.476zm13.659,0v19.042h35.581v-19.042h-35.581zm37.826,0v19.042h35.581v-19.042h-35.581zm37.764,0v19.042h35.612v-19.042h-35.612zm37.795,0v19.042h35.612v-19.042h-35.612zm37.826,0v19.042h35.612v-19.042h-35.612zm37.795,0v19.042h35.581v-19.042h-35.581zm37.795,0v19.042h35.581v-19.042h-35.581zm37.795,0v19.042h11.445v-19.042h-11.445zm-278.26,20.966v19.042h30.373v-19.042h-30.373zm32.556,0v19.042h35.612v-19.042h-35.612zm37.826,0v19.042h35.612v-19.042h-35.612zm37.795,0v19.042h35.581v-19.042h-35.581zm37.795,0v19.042h35.581v-19.042h-35.581zm37.795,0v19.042h35.612v-19.042h-35.612zm37.795,0v19.042h35.612v-19.042h-35.612zm37.795,0v19.042h30.342v-19.042h-30.342zm-259.36,20.966v19.042h11.476v-19.042h-11.476zm13.659,0v19.042h35.581v-19.042h-35.581zm37.826,0v19.042h35.581v-19.042h-35.581zm37.764,0v19.042h35.612v-19.042h-35.612zm37.795,0v19.042h35.612v-19.042h-35.612zm37.826,0v19.042h35.612v-19.042h-35.612zm37.795,0v19.042h35.581v-19.042h-35.581zm37.795,0v19.042h35.581v-19.042h-35.581zm37.795,0v19.042h11.445v-19.042h-11.445zm-278.26,20.966v19.042h30.373v-19.042h-30.373zm32.556,0v19.042h35.612v-19.042h-35.612zm37.826,0v19.042h35.612v-19.042h-35.612zm37.795,0v19.042h35.581v-19.042h-35.581zm37.795,0v19.042h35.581v-19.042h-35.581zm37.795,0v19.042h35.612v-19.042h-35.612zm37.795,0v19.042h35.612v-19.042h-35.612zm37.795,0v19.042h30.342v-19.042h-30.342zm-259.36,20.997v19.042h11.476v-19.042h-11.476zm13.659,0v19.042h35.581v-19.042h-35.581zm37.826,0v19.042h35.581v-19.042h-35.581zm37.764,0v19.042h35.612v-19.042h-35.612zm37.795,0v19.042h35.612v-19.042h-35.612zm37.826,0v19.042h35.612v-19.042h-35.612zm37.795,0v19.042h35.581v-19.042h-35.581zm37.795,0v19.042h35.581v-19.042h-35.581zm37.795,0v19.042h11.445v-19.042h-11.445zm-278.26,20.966v9.0798h30.373v-9.0798h-30.373zm32.556,0v9.0798h35.612v-9.0798h-35.612zm37.826,0v9.0798h35.612v-9.0798h-35.612zm37.795,0v9.0798h35.581v-9.0798h-35.581zm37.795,0v9.0798h35.581v-9.0798h-35.581zm37.795,0v9.0798h35.612v-9.0798h-35.612zm37.795,0v9.0798h35.612v-9.0798h-35.612zm37.795,0v9.0798h30.342v-9.0798h-30.342z"/>
</g>
<g fill="#2b0000" transform="matrix(.93303 0 0 .824 -367.3765 -630.08814)">
<path opacity=".625" filter="url(#filter30982)" d="m393.78,834.75v23.438h290.31v-23.438h-290.31zm6.9062,5.875h16.312v11.688h-16.312v-11.688zm23.656,0h16.312v11.688h-16.312v-11.688zm23.656,0h16.312v11.688h-16.312v-11.688zm23.656,0h16.312v11.688h-16.312v-11.688zm23.656,0h16.312v11.688h-16.312v-11.688zm23.656,0h16.312v11.688h-16.312v-11.688zm23.656,0h16.312v11.688h-16.312v-11.688zm23.656,0h16.312v11.688h-16.312v-11.688zm23.656,0h16.312v11.688h-16.312v-11.688zm23.656,0h16.312v11.688h-16.312v-11.688zm23.656,0h16.312v11.688h-16.312v-11.688zm23.656,0h16.312v11.688h-16.312v-11.688z" transform="matrix(.97986 0 0 .78849 10.852 179.04)"/>
<path filter="url(#filter30992)" d="m679.88,858.44c0,.6834-62.762,1.2374-140.18,1.2374-77.421,0-140.18-.554-140.18-1.2374 0-.6834 62.762-1.2374 140.18-1.2374 77.421,0 140.18,.554 140.18,1.2374z" transform="translate(-.76172)"/>
</g>
<g transform="matrix(.93303 0 0 .824 -367.3765 -630.08814)">
<path fill="url(#linearGradient48086)" d="m393.78,832.77v25.42h290.31v-25.42zm6.9062,7.8574h16.312v11.688h-16.312zm23.656,0h16.312v11.688h-16.312zm23.656,0h16.312v11.688h-16.312zm23.656,0h16.312v11.688h-16.312zm23.656,0h16.312v11.688h-16.312zm23.656,0h16.312v11.688h-16.312zm23.656,0h16.312v11.688h-16.312zm23.656,0h16.312v11.688h-16.312zm23.656,0h16.312v11.688h-16.312zm23.656,0h16.312v11.688h-16.312zm23.656,0h16.312v11.688h-16.312zm23.656,0h16.312v11.688h-16.312z"/>
</g>
<g transform="matrix(.91052 0 0 .79617 -355.35781 -601.66228)">
<path fill="#280b0b" filter="url(#filter29881)" d="m410.16,918.47v76.25h67.625v-76.25z" transform="matrix(1.1841 0 0 1.1405 -75.916 -148.66)"/>
<path fill="url(#linearGradient48088)" d="m409.76,898.83v86.962h80.077v-86.962z"/>
<path fill="#280b0b" filter="url(#filter29885)" d="m410.16,891.03v22h67.625v-22z" transform="matrix(1.1841 0 0 1.1405 -75.916 -148.66)"/>
<path fill="url(#linearGradient48090)" d="m409.76,867.54v25.091h80.077v-25.091z"/>
</g>
<g transform="matrix(1.07814 0 0 .12976 -503.51711 -25.57237)">
<path fill="#fff" d="m488.93,920.03v80.505h56.688v-80.505z"/>
</g>
<g transform="matrix(1.07814 0 0 .73037 -503.51711 -552.78564)">
<path fill="#fff" d="m488.93,920.03v80.505h56.688v-80.505z"/>
</g>
<g transform="matrix(.91052 0 0 .79617 -363.0972 -601.66228)">
<path fill="#280b0b" filter="url(#filter29881)" d="m410.16,918.47v76.25h67.625v-76.25z" transform="matrix(1.1841 0 0 1.1405 111.11 -148.66)"/>
<path fill="url(#linearGradient48092)" d="m596.79,898.83v86.962h80.077v-86.962z"/>
<path fill="#280b0b" filter="url(#filter29885)" d="m410.16,891.03v22h67.625v-22z" transform="matrix(1.1841 0 0 1.1405 111.11 -148.7)"/>
<path fill="url(#linearGradient48094)" d="m596.79,867.54v25.091h80.077v-25.091z"/>
</g>
<g transform="matrix(1.07814 0 0 .12976 -340.9589 -25.57237)">
<path fill="#fff" d="m488.93,920.03v80.505h56.688v-80.505z"/>
</g>
<g transform="matrix(1.07814 0 0 .73037 -340.9589 -552.78564)">
<path fill="#fff" d="m488.93,920.03v80.505h56.688v-80.505z"/>
</g>
<g transform="matrix(.91052 0 0 .79617 -359.2275 -604.74741)">
<path fill="#280b0b" filter="url(#filter29865)" d="m508.19,871.41v114.06h-3l.0312,10.406h-8.6562l2,8.5h89.5l2-8.5h-8.6875l.0625-10.406h-3.0312v-114.06z"/>
</g>
<g transform="matrix(.91052 0 0 .79617 -356.63498 -601.27517)">
<path fill="url(#linearGradient48096)" d="m505.34,867.18v114.06h-3v10.531h76.25v-10.531h-3.0312v-114.06h-70.219z"/>
</g>
<g fill="#fff" transform="matrix(.94539 0 0 .79863 -353.53932 -618.9214)">
<path d="m513.28,896.69v89.156h27.844v-89.156h-27.844zm30.969,0v89.156h27.875v-89.156h-27.875zm-9.3125,52.438c2.3432,0 4.2188,1.9068 4.2188,4.25 0,2.3432-1.8756,4.25-4.2188,4.25-2.3432,0-4.25-1.9068-4.25-4.25 0-2.3432 1.9068-4.25 4.25-4.25zm15.531,0c2.3432,0 4.25,1.9068 4.25,4.25 0,2.3432-1.9068,4.25-4.25,4.25-2.3432,0-4.2188-1.9068-4.2188-4.25 0-2.3432 1.8756-4.25 4.2188-4.25z" transform="matrix(.96314 0 0 .9969 -5.4206 17.748)"/>
<path d="m510.69,873.53v13.125h58.844v-13.125h-58.844z" transform="matrix(.96314 0 0 .9969 -2.934 21.601)"/>
</g>
<g transform="matrix(.91052 0 0 .79617 -359.2275 -604.74741)">
<path fill="#2b0000" filter="url(#filter30799)" d="m587.25,995.99c0,.6213-19.308,1.125-43.125,1.125-23.817,0-43.125-.5037-43.125-1.125 0-.6213 19.308-1.125 43.125-1.125 23.817,0 43.125,.5037 43.125,1.125z" transform="matrix(1 0 0 1.5048 -.80899 -501.83)"/>
<path fill="url(#linearGradient48098)" d="m496.57,995.63h93.5v11.5h-93.5z"/>
</g>
</svg>
