<svg xmlns="http://www.w3.org/2000/svg" viewBox="0 0 512 512" xmlns:xlink="http://www.w3.org/1999/xlink">
<defs>
<clipPath id="clipPath4244">
<path fill="url(#linearGradient4248)" d="m484.46,524.34a130.7,130.7 0 1,1 -261.4,0 130.7,130.7 0 1,1 261.4,0z" transform="matrix(-1.6986 0 0 -1.6986 -1047.2 2009)"/>
</clipPath>
<filter color-interpolation-filters="sRGB" id="filter7822">
<feGaussianBlur stdDeviation="2.59451"/>
</filter>
<filter color-interpolation-filters="sRGB" id="filter5264">
<feGaussianBlur stdDeviation="1.85982"/>
</filter>
<filter color-interpolation-filters="sRGB" id="filter6544">
<feGaussianBlur stdDeviation="2.79426"/>
</filter>
<filter color-interpolation-filters="sRGB" id="filter5105">
<feGaussianBlur stdDeviation="2.88697"/>
</filter>
<filter color-interpolation-filters="sRGB" id="filter3894">
<feGaussianBlur stdDeviation="2.47264"/>
</filter>
<linearGradient gradientTransform="matrix(.61358 0 0 .61358 423.83 -1211.4)" id="linearGradient5220" y1="3352.7" x1="-230.01" y2="3341.2" gradientUnits="userSpaceOnUse" x2="-241.49">
<stop offset="0" stop-color="#646464"/>
<stop offset="1" stop-color="#cbcbcb" stop-opacity="0"/>
</linearGradient>
<linearGradient id="linearGradient3886">
<stop offset="0"/>
<stop offset="1" stop-opacity="0"/>
</linearGradient>
<linearGradient gradientTransform="matrix(.61358 0 0 .61358 194.47 404.93)" id="linearGradient5997" x1="-992.45" gradientUnits="userSpaceOnUse" x2="-892.06">
<stop offset="0" stop-color="#8d6f1f"/>
<stop offset=".132" stop-color="#b68c23"/>
<stop offset=".312" stop-color="#cba320"/>
<stop offset=".844" stop-color="#f3c211"/>
<stop offset="1" stop-color="#f6c00c"/>
</linearGradient>
<linearGradient gradientTransform="matrix(.61358 0 0 .61358 423.83 -465.94)" id="linearGradient6426" xlink:href="#linearGradient3886" y1="1895.9" x1="-276.57" y2="2284.4" gradientUnits="userSpaceOnUse" x2="-191.82"/>
<linearGradient gradientTransform="matrix(-.93852 0 0 -.93852 23.491 -61.004)" id="linearGradient5254" y1="979.96" x1="-408.36" y2="867.84" gradientUnits="userSpaceOnUse" x2="-343.62">
<stop offset="0" stop-color="#2d2d2d" stop-opacity=".383"/>
<stop offset="1" stop-color="#2d2d2d" stop-opacity="0"/>
</linearGradient>
<linearGradient gradientTransform="matrix(.61358 0 0 .61358 194.47 434.43)" id="linearGradient6832" x1="-726.54" gradientUnits="userSpaceOnUse" x2="-1182.6">
<stop offset="0" stop-color="#a4a4a4"/>
<stop offset=".458" stop-color="#eee"/>
<stop offset=".595" stop-color="#808080"/>
<stop offset="1" stop-color="#c4c4c4"/>
</linearGradient>
<linearGradient gradientTransform="matrix(.43387 -.43387 .43387 .43387 423.83 -465.94)" id="linearGradient7412" y1="995.6" y2="1428.7" gradientUnits="userSpaceOnUse" x2="0">
<stop offset="0" stop-color="#e5e5e5"/>
<stop offset=".239" stop-color="#fff"/>
<stop offset=".774" stop-color="#bfbfbf"/>
<stop offset="1" stop-color="#f0f0f0"/>
</linearGradient>
<linearGradient gradientTransform="matrix(.58546 0 0 .58546 411.83 -1122.8)" id="linearGradient7541" y1="3186.3" x1="-545.37" y2="3319.6" gradientUnits="userSpaceOnUse" x2="-47.871">
<stop offset="0"/>
<stop offset="1" stop-opacity="0"/>
</linearGradient>
<linearGradient gradientTransform="matrix(.71105 -.71105 .71105 .71105 -430.39 613.04)" id="linearGradient3997" y1="366.91" y2="677.31" gradientUnits="userSpaceOnUse" x2="0">
<stop offset="0" stop-color="#3f3f3f"/>
<stop offset=".392" stop-color="#fff"/>
<stop offset=".683" stop-color="#d5d5d5"/>
<stop offset="1" stop-color="#3f3f3f"/>
</linearGradient>
<linearGradient gradientTransform="matrix(.61358 0 0 .61358 423.83 -465.94)" id="linearGradient4055" xlink:href="#linearGradient3886" y1="2119.9" x1="-225.01" y2="2158.9" gradientUnits="userSpaceOnUse" x2="-185.99"/>
<linearGradient id="linearGradient4033" y1="742.45" y2="974.57" gradientUnits="userSpaceOnUse" x2="0">
<stop offset="0" stop-color="#fff"/>
<stop offset=".804" stop-color="#5e5e5e"/>
<stop offset="1" stop-color="#fff"/>
</linearGradient>
<linearGradient gradientTransform="matrix(-1.0106 0 0 1.0106 389.97 566.64)" spreadMethod="reflect" id="linearGradient3283" x1="28.417" gradientUnits="userSpaceOnUse" x2="97.1">
<stop offset="0" stop-color="#e5e5e5"/>
<stop offset="1" stop-color="#fff"/>
</linearGradient>
<radialGradient fx="226.5" fy="449.28" cx="124" cy="484" gradientTransform="matrix(1 0 0 .25203 0 362.02)" id="radialGradient3989" xlink:href="#linearGradient3886" r="184.5" gradientUnits="userSpaceOnUse"/>
<radialGradient cx="52.23" cy="2381.4" gradientTransform="matrix(-.1057 -.1057 1.3262 -1.3262 -2816.5 3956.2)" id="radialGradient7529" r="130.58" gradientUnits="userSpaceOnUse">
<stop offset="0" stop-color="#fafafa"/>
<stop offset=".692" stop-color="#a8a8a8"/>
<stop offset="1" stop-color="#e1e1e1"/>
</radialGradient>
<radialGradient cx="-401.39" cy="838.17" gradientTransform="matrix(1.7644 0 0 .68422 308.1 269.94)" id="radialGradient6305" r="34.054" gradientUnits="userSpaceOnUse">
<stop offset="0"/>
<stop offset="1" stop-opacity="0"/>
</radialGradient>
<radialGradient cx="453.17" cy="421.62" gradientTransform="matrix(1.9572 0 0 1.9572 -421.6 -426.94)" id="radialGradient7525" r="130.7" gradientUnits="userSpaceOnUse">
<stop offset="0" stop-color="#b8b8b8"/>
<stop offset=".877" stop-color="#292929"/>
<stop offset="1" stop-color="#5e5e5e"/>
</radialGradient>
<radialGradient cx="-382.09" cy="837.99" gradientTransform="matrix(1 0 0 .70894 0 248.15)" id="radialGradient6243" r="34.054" gradientUnits="userSpaceOnUse">
<stop offset="0" stop-color="#fff" stop-opacity=".575"/>
<stop offset="1" stop-color="#fff" stop-opacity="0"/>
</radialGradient>
<radialGradient fx="476.81" fy="381.8" cx="395.54" cy="382.11" gradientTransform="matrix(-3.4822 3.3105 -6.8624 -7.2184 4710.5 1628.1)" id="radialGradient7487" r="131.23" gradientUnits="userSpaceOnUse">
<stop offset="0" stop-color="#c7c7c7"/>
<stop offset=".453" stop-color="#fff"/>
<stop offset=".469" stop-color="#5c5c5c"/>
<stop offset="1" stop-color="#fff"/>
</radialGradient>
<radialGradient cx="453.17" cy="390.8" gradientTransform="matrix(.34585 0 0 .19807 36.21 633.91)" id="radialGradient7517" r="130.7" gradientUnits="userSpaceOnUse">
<stop offset="0" stop-color="#dedede"/>
<stop offset=".877" stop-color="#1b1b1b"/>
<stop offset="1" stop-color="#6e6e6e"/>
</radialGradient>
<radialGradient cx="468.41" cy="373.67" gradientTransform="matrix(-1.9069 2.8806 -10.844 -7.1783 5156 1914.4)" id="radialGradient3281" r="131.23" gradientUnits="userSpaceOnUse">
<stop offset="0" stop-color="#b1b1b1"/>
<stop offset=".306" stop-color="#f5f5f5"/>
<stop offset=".624" stop-color="#9e9e9e"/>
<stop offset="1" stop-color="#fff"/>
</radialGradient>
<radialGradient cx="52.517" cy="2347.5" gradientTransform="matrix(-.1057 -.1057 1.3262 -1.3262 -2816.5 3956.2)" id="radialGradient6815" r="130.58" gradientUnits="userSpaceOnUse">
<stop offset="0" stop-color="#fff"/>
<stop offset=".653" stop-color="#878787"/>
<stop offset="1" stop-color="#d1d1d1"/>
</radialGradient>
</defs>
<path opacity=".093" fill="url(#radialGradient3989)" filter="url(#filter3894)" d="m308,484a184,46 0 1,1 -368,0 184,46 0 1,1 368,0z" transform="matrix(1.1347 0 0 .43822 122.7 253.15)"/>
<g transform="translate(0 -540.36)">
<path filter="url(#filter7822)" fill-opacity=".089" d="m193.97,607.42c-33.635,0-67.275,12.806-92.938,38.469-51.325,51.325-51.325,134.55 0,185.88 43,43 108.39,49.988 158.66,20.938l6.875,6.875-25.56,25.56c-8.4376,9.3775-20.724,19.148-20.75,28.875 0,.0105 0,.0208 0,.0312l-.0625,.0312c3.2327,3.2327 6.6977,4.3724 10.25,4.125 .3552-.0247 .706-.0418 1.0625-.0937 7.4866-1.0902 15.239-8.0203 21.594-14.375l28.812-28.812 18.344,18.344 102.41,102.41c13.34,13.34 33.045,15.112 44.188,3.9687l7.9375-7.9375c11.143-11.143 9.3714-30.847-3.9688-44.188l-102.41-102.41-18.344-18.344 20.781-20.812c12.578-12.578 25.237-24.919 13.812-36.344l-.4688,.4688c-9.0247,2.5947-19.505,11.38-25.406,17.281l-24.062,24.062-6.875-6.875c29.05-50.261 22.062-115.66-20.938-158.66-25.663-25.663-59.303-38.469-92.938-38.469z"/>
<path fill-opacity=".36" d="m193.97,602.42c-33.635,0-67.275,12.806-92.938,38.469-51.325,51.325-51.325,134.55 0,185.88 43,43 108.39,49.988 158.66,20.938l6.875,6.875-25.56,25.56c-8.4376,9.3775-20.724,19.148-20.75,28.875 0,.0105 0,.0208 0,.0312l-.0625,.0312c3.2327,3.2327 6.6977,4.3724 10.25,4.125 .3552-.0247 .706-.0418 1.0625-.0937 7.4866-1.0902 15.239-8.0203 21.594-14.375l28.812-28.812 18.344,18.344 102.41,102.41c13.34,13.34 33.045,15.112 44.188,3.9687l7.9375-7.9375c11.143-11.143 9.3714-30.847-3.9688-44.188l-102.41-102.41-18.344-18.344 20.781-20.812c11.247-16.085 23.444-26.319 13.742-35.787-9.0247,2.5947-19.903,11.292-25.804,17.193l-24.062,24.062-6.875-6.875c29.05-50.261 22.062-115.66-20.938-158.66-25.663-25.663-59.303-38.469-92.938-38.469z"/>
</g>
<g transform="translate(0 -540.36)">
<path fill="url(#linearGradient4033)" d="m364.6,765.45c-9.1136,2.442-19.843,11.441-25.832,17.43l-97.769,97.769c-8.4467,9.3876-20.752,19.166-20.752,28.904z"/>
<path opacity=".223" fill="none" stroke="#000" stroke-width="11.797" d="m484.46,524.34a130.7,130.7 0 1,1 -261.4,0 130.7,130.7 0 1,1 261.4,0z" transform="matrix(.09534 -.09534 .09534 .09534 110.25 720.85)"/>
<path fill="url(#linearGradient3997)" d="m286.91,641.4a131.43,131.43 0 0,1 -185.87,185.87 131.43,131.43 0 1,1 185.87-185.87z"/>
<path fill="url(#linearGradient5997)" d="m-387.705,619.81h11.218a28.445,34.054 0 0,1 28.445,34.054v331.732a28.445,34.054 0 0,1 -28.445,34.054h-11.218a28.445,34.054 0 0,1 -28.445-34.054v-331.732a28.445,34.054 0 0,1 28.445-34.054" transform="matrix(.70711 -.70711 .70711 .70711 0 0)"/>
<path fill="url(#radialGradient7487)" d="m484.46,524.34a130.7,130.7 0 1,1 -261.4,0 130.7,130.7 0 1,1 261.4,0z" transform="matrix(.67125 -.70608 .70608 .67125 -413.71 632.15)"/>
<g opacity=".943" transform="matrix(1.086 0 0 1.086 -16.685 -63.165)">
<path fill="url(#radialGradient3281)" d="m275.01,649.02a117.67,117.67 0 1,1 -162.14,170.56 117.67,117.67 0 0,1 162.14-170.56z"/>
<path fill="none" stroke="url(#linearGradient3283)" stroke-width=".561" d="m113.16,649.41a117.23,117.23 0 0,0 161.55,169.93 117.23,117.23 0 1,0 -161.55-169.93z"/>
</g>
<path fill="url(#linearGradient6832)" d="m-416.15,798.46h68.108v42.295h-68.108z" transform="matrix(.70711 -.70711 .70711 .70711 0 0)"/>
<path opacity=".771" fill="url(#linearGradient6426)" filter="url(#filter6544)" d="m328.23,820.43 35.956,35.456-.6708,96.093-82.939-83.117z"/>
<path fill="#fff" fill-opacity=".455" d="m484.46,524.34a130.7,130.7 0 1,1 -261.4,0 130.7,130.7 0 1,1 261.4,0z" transform="matrix(.15904 -.15904 .15904 .15904 54.321 707.21)"/>
<path opacity=".251" fill="url(#linearGradient7541)" d="m191.24,723.08 95.59,96.224c-4.9332,12.137-45.632,37.001-47.831,34.033l-77.07-104.03z"/>
<path opacity=".198" filter="url(#filter5105)" stroke="#000" fill-opacity=".561" stroke-width="12.461" d="m-1646.9,1059.6c30.747,0 55.65,24.753 55.5,55.5l-1.1878,243.19h-111l1.1878-243.19c.1502-30.747 24.753-55.5 55.5-55.5z" clip-path="url(#clipPath4244)" transform="matrix(.41336 -.41336 .41336 .41336 413.56 -406.84)"/>
<path fill="url(#linearGradient7412)" stroke="#fff" stroke-width=".614" d="m168.9,710.26c13.34-13.34 34.756-13.276 48.159,0l105.09,104.09-48.16,48.16-105.09-104.09c-13.404-13.276-13.34-34.819 0-48.159z"/>
<path opacity=".398" fill="url(#linearGradient5220)" d="m313.53,803.73 9.6227,9.6226-50.159,50.159-13.511-13.511z"/>
<path fill="url(#radialGradient6815)" d="m220.18,909.59c10.345,10.345 23.22-.6759 32.903-10.359l97.769-97.769c12.578-12.578 25.231-24.925 13.806-36.35z"/>
<path fill="#fff" d="m484.46,524.34a130.7,130.7 0 1,1 -261.4,0 130.7,130.7 0 1,1 261.4,0z" transform="matrix(.07958 .07958 .07958 -.07958 124.1 748.82)"/>
<path fill="url(#radialGradient7525)" d="m484.46,524.34a130.7,130.7 0 1,1 -261.4,0 130.7,130.7 0 1,1 261.4,0z" transform="matrix(.07958 .07958 .07958 -.07958 124.1 748.01)"/>
<path fill="url(#radialGradient7529)" d="m220.18,909.59c10.345,10.345 23.22-.6759 32.903-10.359l97.769-97.769c12.578-12.578 25.231-24.925 13.806-36.35z"/>
<path opacity=".401" fill="none" filter="url(#filter5264)" stroke="url(#linearGradient5254)" stroke-width="3.754" d="m379.325-1018h5.53a29.195,29.195 0 0,1 29.195,29.195v316.87a29.195,29.195 0 0,1 -29.195,29.195h-5.53a29.195,29.195 0 0,1 -29.195-29.195v-316.87a29.195,29.195 0 0,1 29.195-29.195" transform="rotate(135)"/>
<path fill="url(#radialGradient7517)" d="m203.33,725.08a13.227,13.227 0 0,1 -18.705,18.705 13.227,13.227 0 1,1 18.705-18.705z"/>
</g>
<g transform="translate(-.53033 -541.06711)">
<path opacity=".185" fill="url(#radialGradient6243)" d="m-416.15,840.53h68.108v1.104h-68.108z" transform="matrix(.70711 -.70711 .70711 .70711 0 0)"/>
<path opacity=".185" fill="url(#radialGradient6305)" d="m-415.57,841.61h68.108v1.229h-68.108z" transform="matrix(.70711 -.70711 .70711 .70711 0 0)"/>
</g>
<g transform="translate(0 -540.36)">
<path opacity=".771" fill="url(#linearGradient4055)" d="m330.23,822.43 16.978,16.728-44.397,51.983-20.235-20.279z"/>
</g>
<g fill="#fff" transform="matrix(.32097 0 0 .32097 158.24 -149.1)">
<g opacity=".5" transform="matrix(.28672 0 0 .28672 212.08 873.4)">
<path d="m448.22-200.44c-9.6438,0-19.267,3.6733-26.625,11.031-14.716,14.716-14.716,38.565 0,53.281 12.32,12.32 31.031,14.308 45.438,6l-26-25.75c-3.8431-3.8066-3.8249-9.9876 0-13.812 3.8249-3.8249 9.9694-3.8065 13.812,0l26,25.781c8.3484-14.415 6.3683-33.163-5.9688-45.5-7.358-7.358-17.012-11.031-26.656-11.031z" transform="matrix(3.4877 0 0 3.4877 -1402.3 1803)"/>
<path d="m484.46,524.34a130.7,130.7 0 1,1 -261.4,0 130.7,130.7 0 1,1 261.4,0z" transform="matrix(.09819 .09819 .09819 -.09819 74.752 1252.1)"/>
<path d="m469.06-128.12-7.3438,7.3125c-2.4192,2.6887-5.9612,5.4922-5.9688,8.2812 2.966,2.966 6.6611-.1923 9.4375-2.9688l8.25-8.25 34.625,34.625c3.8249,3.8249 9.4926,4.3199 12.688,1.125l2.25-2.25c3.1949-3.1949 2.6999-8.8626-1.125-12.688l-34.625-34.625 5.9688-5.9688c3.6062-3.6062 7.2132-7.1305 3.9375-10.406l-.125,.125c-2.5875,.7439-5.5893,3.2768-7.2812,4.9688l-6.875,6.9062zm21.906,5.6875 1.25,1.2188c.1738,.1739 .3,.3542 .4062,.5312 .1127,.1771 .1682,.351 .1875,.5312 .0258,.1803 .0167,.3725-.0625,.5625-.0741,.19-.2066,.3941-.4062,.5938-.2028,.2028-.4483,.3235-.7188,.375-.2672,.0483-.5237,.0396-.7812-.0312l-.6562,2.1875-.6562-.6562 .5625-1.9375-.625-.625-1.25,1.25-.625-.625zm.0937,1.125-1.0312,1.0312 .4688,.4688c.1384,.1385 .2623,.2201 .375,.2812 .1159,.0644 .2159,.1185 .3125,.125 .0998,.003 .2008-.0453 .2812-.0937 .0837-.0451 .1727-.079 .25-.1562 .0773-.0773 .1144-.1695 .1562-.25 .0451-.0837 .0689-.1599 .0625-.25-.003-.0934-.0294-.2031-.0937-.3125-.0612-.1063-.1492-.243-.2812-.375zm3.7812,2.75 .5938,.5625-2.1875,4.5938-.6562-.625 .5312-1.125-1.125-1.125-1.0938,.5312-.6562-.6562zm-.6875,1.25-1.3438,.6562 .7188,.6875zm2.75,.8125 2.4062,2.4062-4.4062,1.1562 1.4062,1.4062-.5938,.5938-2.4062-2.4062 4.4062-1.1562-1.4062-1.4062zm2.5938,3.4375c.3026-.006 .6197,.0371 .9062,.1562 .2897,.1223 .5398,.2898 .7812,.5312 .2414,.2415 .4121,.5259 .5312,.8125 .1223,.2897 .1972,.5756 .1875,.875-.003,.2994-.0836,.6036-.2188,.9062-.132,.2994-.3297,.5798-.5938,.8438-.2672,.2672-.5444,.4617-.8438,.5938-.2994,.132-.6036,.2123-.9062,.2188-.2962,.006-.5853-.0652-.875-.1875-.2865-.1191-.5398-.2898-.7812-.5312-.2415-.2415-.4402-.5227-.5625-.8125-.1191-.2865-.1595-.5756-.1562-.875 .01-.2994 .0555-.5756 .1875-.875 .132-.2994 .3578-.6078 .625-.875 .264-.264 .5444-.4617 .8438-.5938 .3026-.1352 .5788-.181 .875-.1875zm.0312,.875c-.1835,.0226-.3758,.0845-.5625,.1875-.1835,.0998-.3638,.2389-.5312,.4062-.1706,.1706-.3064,.3477-.4062,.5312-.0998,.1835-.165,.379-.1875,.5625-.0192,.1867-.002,.351 .0625,.5312 .0676,.1835 .2108,.3671 .375,.5312 .1642,.1642 .3197,.2793 .5,.3438 .1835,.0676 .379,.085 .5625,.0625 .1867-.0192 .3477-.0877 .5312-.1875 .1835-.0998 .3606-.2356 .5312-.4062 .1674-.1674 .3064-.3165 .4062-.5 .103-.1867 .1682-.3758 .1875-.5625 .0226-.1835 .005-.379-.0625-.5625-.0644-.1803-.1796-.3671-.3438-.5312-.1642-.1642-.3478-.2761-.5312-.3438-.1803-.0644-.3445-.0818-.5312-.0625zm3.8125,2.125 1.2188,1.2188c.1739,.1738 .3312,.3542 .4375,.5312 .1127,.1771 .1682,.351 .1875,.5312 .0258,.1803 .0168,.3726-.0625,.5625-.074,.1899-.2379,.3942-.4375,.5938-.2029,.2028-.4171,.3235-.6875,.375-.2672,.0483-.5549,.0396-.8125-.0312l-.6562,2.1875-.625-.6562 .5625-1.9688-.625-.625-1.2812,1.25-.5938-.5938zm.0937,1.125-1.0312,1.0312 .4688,.4375c.1384,.1384 .2623,.2513 .375,.3125 .1159,.0644 .2159,.0873 .3125,.0937 .0998,.003 .2008-.0141 .2812-.0625 .0837-.0451 .1415-.1102 .2188-.1875 .0772-.0773 .1456-.1383 .1875-.2188 .045-.0837 .0689-.1911 .0625-.2812-.003-.0934-.0294-.1718-.0937-.2812-.0612-.1062-.1805-.243-.3125-.375zm3.875,3.6562c.3026-.007 .5885,.0371 .875,.1562 .2898,.1223 .5398,.321 .7812,.5625 .2415,.2415 .4434,.4947 .5625,.7812 .1223,.2898 .1659,.5756 .1562,.875-.003,.2994-.0835,.6036-.2188,.9062-.132,.2994-.3297,.5798-.5938,.8438-.2125,.2125-.4245,.3777-.6562,.5-.2254,.1223-.4493,.2298-.6875,.2812l.0625,.5312-.8125,.0938-.0312-.625c-.4636-.0708-.8981-.3044-1.2812-.6875-.2415-.2415-.4402-.4915-.5625-.7812-.1191-.2865-.1595-.5756-.1562-.875 .01-.2994 .0868-.6069 .2188-.9062 .132-.2994 .3265-.5765 .5938-.8438 .264-.264 .5443-.4617 .8438-.5938 .3026-.1352 .6101-.2123 .9062-.2188zm0,.9062c-.1835,.0226-.3758,.0845-.5625,.1875-.1835,.0998-.3638,.2076-.5312,.375-.1706,.1706-.3064,.3477-.4062,.5312-.0998,.1835-.1337,.379-.1562,.5625-.0192,.1867-.002,.3822 .0625,.5625 .0676,.1835 .1796,.3358 .3438,.5 .1803,.1803 .378,.3074 .5938,.375l-.0625-.75 .7812-.0625 .0625,.7812c.264-.0901 .5333-.2521 .7812-.5 .1674-.1674 .3064-.3478 .4062-.5312 .103-.1867 .1682-.3758 .1875-.5625 .0226-.1835-.0261-.379-.0937-.5625-.0644-.1803-.1796-.3358-.3438-.5-.1642-.1642-.3165-.2761-.5-.3438-.1803-.0644-.3758-.0818-.5625-.0625zm3.4375,1.7188 2.5312,2.5312-.5938,.5938-.9375-.9375-2.7812,2.7812-.625-.625 2.7812-2.7812-.9688-.9688z" transform="matrix(3.4877 0 0 3.4877 -1402.3 1803)"/>
</g>
</g>
<g opacity=".392" transform="matrix(.32097 0 0 .32097 158.24 -150.1)">
<g opacity=".5" transform="matrix(.28672 0 0 .28672 212.08 873.4)">
<path d="m448.22-200.44c-9.6438,0-19.267,3.6733-26.625,11.031-14.716,14.716-14.716,38.565 0,53.281 12.32,12.32 31.031,14.308 45.438,6l-26-25.75c-3.8431-3.8066-3.8249-9.9876 0-13.812 3.8249-3.8249 9.9694-3.8065 13.812,0l26,25.781c8.3484-14.415 6.3683-33.163-5.9688-45.5-7.358-7.358-17.012-11.031-26.656-11.031z" transform="matrix(3.4877 0 0 3.4877 -1402.3 1803)"/>
<path d="m484.46,524.34a130.7,130.7 0 1,1 -261.4,0 130.7,130.7 0 1,1 261.4,0z" transform="matrix(.09819 .09819 .09819 -.09819 74.752 1252.1)"/>
<path d="m469.06-128.12-7.3438,7.3125c-2.4192,2.6887-5.9612,5.4922-5.9688,8.2812 2.966,2.966 6.6611-.1923 9.4375-2.9688l8.25-8.25 34.625,34.625c3.8249,3.8249 9.4926,4.3199 12.688,1.125l2.25-2.25c3.1949-3.1949 2.6999-8.8626-1.125-12.688l-34.625-34.625 5.9688-5.9688c3.6062-3.6062 7.2132-7.1305 3.9375-10.406l-.125,.125c-2.5875,.7439-5.5893,3.2768-7.2812,4.9688l-6.875,6.9062zm21.906,5.6875 1.25,1.2188c.1738,.1739 .3,.3542 .4062,.5312 .1127,.1771 .1682,.351 .1875,.5312 .0258,.1803 .0167,.3725-.0625,.5625-.0741,.19-.2066,.3941-.4062,.5938-.2028,.2028-.4483,.3235-.7188,.375-.2672,.0483-.5237,.0396-.7812-.0312l-.6562,2.1875-.6562-.6562 .5625-1.9375-.625-.625-1.25,1.25-.625-.625zm.0937,1.125-1.0312,1.0312 .4688,.4688c.1384,.1385 .2623,.2201 .375,.2812 .1159,.0644 .2159,.1185 .3125,.125 .0998,.003 .2008-.0453 .2812-.0937 .0837-.0451 .1727-.079 .25-.1562 .0773-.0773 .1144-.1695 .1562-.25 .0451-.0837 .0689-.1599 .0625-.25-.003-.0934-.0294-.2031-.0937-.3125-.0612-.1063-.1492-.243-.2812-.375zm3.7812,2.75 .5938,.5625-2.1875,4.5938-.6562-.625 .5312-1.125-1.125-1.125-1.0938,.5312-.6562-.6562zm-.6875,1.25-1.3438,.6562 .7188,.6875zm2.75,.8125 2.4062,2.4062-4.4062,1.1562 1.4062,1.4062-.5938,.5938-2.4062-2.4062 4.4062-1.1562-1.4062-1.4062zm2.5938,3.4375c.3026-.006 .6197,.0371 .9062,.1562 .2897,.1223 .5398,.2898 .7812,.5312 .2414,.2415 .4121,.5259 .5312,.8125 .1223,.2897 .1972,.5756 .1875,.875-.003,.2994-.0836,.6036-.2188,.9062-.132,.2994-.3297,.5798-.5938,.8438-.2672,.2672-.5444,.4617-.8438,.5938-.2994,.132-.6036,.2123-.9062,.2188-.2962,.006-.5853-.0652-.875-.1875-.2865-.1191-.5398-.2898-.7812-.5312-.2415-.2415-.4402-.5227-.5625-.8125-.1191-.2865-.1595-.5756-.1562-.875 .01-.2994 .0555-.5756 .1875-.875 .132-.2994 .3578-.6078 .625-.875 .264-.264 .5444-.4617 .8438-.5938 .3026-.1352 .5788-.181 .875-.1875zm.0312,.875c-.1835,.0226-.3758,.0845-.5625,.1875-.1835,.0998-.3638,.2389-.5312,.4062-.1706,.1706-.3064,.3477-.4062,.5312-.0998,.1835-.165,.379-.1875,.5625-.0192,.1867-.002,.351 .0625,.5312 .0676,.1835 .2108,.3671 .375,.5312 .1642,.1642 .3197,.2793 .5,.3438 .1835,.0676 .379,.085 .5625,.0625 .1867-.0192 .3477-.0877 .5312-.1875 .1835-.0998 .3606-.2356 .5312-.4062 .1674-.1674 .3064-.3165 .4062-.5 .103-.1867 .1682-.3758 .1875-.5625 .0226-.1835 .005-.379-.0625-.5625-.0644-.1803-.1796-.3671-.3438-.5312-.1642-.1642-.3478-.2761-.5312-.3438-.1803-.0644-.3445-.0818-.5312-.0625zm3.8125,2.125 1.2188,1.2188c.1739,.1738 .3312,.3542 .4375,.5312 .1127,.1771 .1682,.351 .1875,.5312 .0258,.1803 .0168,.3726-.0625,.5625-.074,.1899-.2379,.3942-.4375,.5938-.2029,.2028-.4171,.3235-.6875,.375-.2672,.0483-.5549,.0396-.8125-.0312l-.6562,2.1875-.625-.6562 .5625-1.9688-.625-.625-1.2812,1.25-.5938-.5938zm.0937,1.125-1.0312,1.0312 .4688,.4375c.1384,.1384 .2623,.2513 .375,.3125 .1159,.0644 .2159,.0873 .3125,.0937 .0998,.003 .2008-.0141 .2812-.0625 .0837-.0451 .1415-.1102 .2188-.1875 .0772-.0773 .1456-.1383 .1875-.2188 .045-.0837 .0689-.1911 .0625-.2812-.003-.0934-.0294-.1718-.0937-.2812-.0612-.1062-.1805-.243-.3125-.375zm3.875,3.6562c.3026-.007 .5885,.0371 .875,.1562 .2898,.1223 .5398,.321 .7812,.5625 .2415,.2415 .4434,.4947 .5625,.7812 .1223,.2898 .1659,.5756 .1562,.875-.003,.2994-.0835,.6036-.2188,.9062-.132,.2994-.3297,.5798-.5938,.8438-.2125,.2125-.4245,.3777-.6562,.5-.2254,.1223-.4493,.2298-.6875,.2812l.0625,.5312-.8125,.0938-.0312-.625c-.4636-.0708-.8981-.3044-1.2812-.6875-.2415-.2415-.4402-.4915-.5625-.7812-.1191-.2865-.1595-.5756-.1562-.875 .01-.2994 .0868-.6069 .2188-.9062 .132-.2994 .3265-.5765 .5938-.8438 .264-.264 .5443-.4617 .8438-.5938 .3026-.1352 .6101-.2123 .9062-.2188zm0,.9062c-.1835,.0226-.3758,.0845-.5625,.1875-.1835,.0998-.3638,.2076-.5312,.375-.1706,.1706-.3064,.3477-.4062,.5312-.0998,.1835-.1337,.379-.1562,.5625-.0192,.1867-.002,.3822 .0625,.5625 .0676,.1835 .1796,.3358 .3438,.5 .1803,.1803 .378,.3074 .5938,.375l-.0625-.75 .7812-.0625 .0625,.7812c.264-.0901 .5333-.2521 .7812-.5 .1674-.1674 .3064-.3478 .4062-.5312 .103-.1867 .1682-.3758 .1875-.5625 .0226-.1835-.0261-.379-.0937-.5625-.0644-.1803-.1796-.3358-.3438-.5-.1642-.1642-.3165-.2761-.5-.3438-.1803-.0644-.3758-.0818-.5625-.0625zm3.4375,1.7188 2.5312,2.5312-.5938,.5938-.9375-.9375-2.7812,2.7812-.625-.625 2.7812-2.7812-.9688-.9688z" transform="matrix(3.4877 0 0 3.4877 -1402.3 1803)"/>
</g>
</g>
<path opacity=".093" fill="url(#radialGradient3989)" filter="url(#filter3894)" d="m308,484a184,46 0 1,1 -368,0 184,46 0 1,1 368,0z" transform="matrix(.62141 0 0 .165 276.19 381.64)"/>
</svg>
