<svg width="57" xmlns="http://www.w3.org/2000/svg" viewBox="0 0 57 19" height="19">
<g transform="translate(-4 -1028.4)">
<path fill="#d3825e" d="m5,1045.4v1h55v-1h-55z"/>
<path fill="#f2f2f2" d="m5,1041.4h55v4h-55z"/>
<path fill-opacity=".392" d="m4,1046.4h57v1h-57z"/>
<path fill="#2ea99c" d="m5,1041.4v-10l10,10h-10z"/>
<path fill="#de3535" d="m8,1034.4h17l6-6 29,13h-45l-7-7z"/>
<path fill="#e74833" d="m36,1041.4 6.7945-7.7032 17.206,7.7032h-24z"/>
<path fill="#404040" d="m33.069,1029.2 6.9087,3.137-11.978,13.1h-11l16.069-16.114z"/>
<path fill="#bebebe" d="m39.596,1033.3-1.0087,1.0132 2.0859,.9771 .9858-.9858-2.063-1.0045z"/>
<path fill="#c4283c" d="m33.719,1029.6-1.3438,1.375 1.375,.625 1.3438-1.3438-1.375-.6562zm2.0625,.9687-1.3438,1.3438 1.375,.625 1.3438-1.3438-1.375-.625zm2.0625,.9375-1.3438,1.3438 1.375,.625 1.3438-1.3438-1.375-.625zm2.7188,1.25-1.3125,1.3438 1.375,.625 1.3125-1.3125-1.375-.6563z"/>
</g>
</svg>
