<?xml version="1.0" encoding="UTF-8" standalone="no"?>
<!-- Created with Inkscape (http://www.inkscape.org/) -->

<svg
   xmlns:dc="http://purl.org/dc/elements/1.1/"
   xmlns:cc="http://creativecommons.org/ns#"
   xmlns:rdf="http://www.w3.org/1999/02/22-rdf-syntax-ns#"
   xmlns:svg="http://www.w3.org/2000/svg"
   xmlns="http://www.w3.org/2000/svg"
   xmlns:xlink="http://www.w3.org/1999/xlink"
   xmlns:sodipodi="http://sodipodi.sourceforge.net/DTD/sodipodi-0.dtd"
   xmlns:inkscape="http://www.inkscape.org/namespaces/inkscape"
   id="svg2"
   viewBox="0 0 818.14152 342.29402"
   version="1.1"
   inkscape:version="0.91pre3 r13670"
   sodipodi:docname="snooker-balls.svg">
  <defs
     id="defs4">
    <linearGradient
       id="linearGradient4694"
       inkscape:collect="always">
      <stop
         id="stop4696"
         style="stop-color:#000000"
         offset="0" />
      <stop
         id="stop4698"
         style="stop-color:#000000;stop-opacity:0"
         offset="1" />
    </linearGradient>
    <radialGradient
       id="radialGradient3763"
       gradientUnits="userSpaceOnUse"
       cy="456.31"
       cx="221.87"
       r="68.63"
       inkscape:collect="always">
      <stop
         id="stop3759"
         style="stop-color:#f44800"
         offset="0" />
      <stop
         id="stop3761"
         style="stop-color:#f44800;stop-opacity:0"
         offset="1" />
    </radialGradient>
    <linearGradient
       id="linearGradient3790"
       y2="489.29"
       gradientUnits="userSpaceOnUse"
       y1="547.79"
       x2="254.36"
       x1="291.97"
       inkscape:collect="always">
      <stop
         id="stop3786"
         style="stop-color:#888888"
         offset="0" />
      <stop
         id="stop3788"
         style="stop-color:#888888;stop-opacity:0"
         offset="1" />
    </linearGradient>
    <filter
       id="filter3808"
       style="color-interpolation-filters:sRGB"
       inkscape:collect="always">
      <feGaussianBlur
         id="feGaussianBlur3810"
         stdDeviation="2.3086673"
         inkscape:collect="always" />
    </filter>
    <filter
       id="filter3872"
       style="color-interpolation-filters:sRGB"
       height="1.4415"
       width="1.4415"
       y="-.22077"
       x="-.22077"
       inkscape:collect="always">
      <feGaussianBlur
         id="feGaussianBlur3874"
         stdDeviation="12.626361"
         inkscape:collect="always" />
    </filter>
    <radialGradient
       id="radialGradient4642"
       gradientUnits="userSpaceOnUse"
       cy="445.97"
       cx="226.57"
       r="68.63"
       inkscape:collect="always">
      <stop
         id="stop4638"
         style="stop-color:#339900"
         offset="0" />
      <stop
         id="stop4640"
         style="stop-color:#339900;stop-opacity:0"
         offset="1" />
    </radialGradient>
    <linearGradient
       id="linearGradient4660"
       y2="494.99"
       gradientUnits="userSpaceOnUse"
       y1="542.9"
       x2="262.14"
       x1="293.83"
       inkscape:collect="always">
      <stop
         id="stop4670"
         style="stop-color:#888888"
         offset="0" />
      <stop
         id="stop4672"
         style="stop-color:#888888;stop-opacity:0"
         offset="1" />
    </linearGradient>
    <radialGradient
       id="radialGradient4682"
       gradientUnits="userSpaceOnUse"
       cy="464.77"
       cx="480.88"
       gradientTransform="matrix(1 0 0 .93333 0 30.985)"
       r="21.153"
       inkscape:collect="always">
      <stop
         id="stop4678"
         style="stop-color:#000000"
         offset="0" />
      <stop
         id="stop4680"
         style="stop-color:#000000;stop-opacity:0"
         offset="1" />
    </radialGradient>
    <radialGradient
       id="radialGradient4690"
       gradientUnits="userSpaceOnUse"
       cy="464.77"
       cx="480.88"
       gradientTransform="matrix(1 0 0 .93487 0 30.269)"
       r="21.653"
       inkscape:collect="always">
      <stop
         id="stop4686"
         style="stop-color:#eeeeee"
         offset="0" />
      <stop
         id="stop4688"
         style="stop-color:#eeeeee;stop-opacity:0"
         offset="1" />
    </radialGradient>
    <linearGradient
       id="linearGradient4700"
       x1="282.98"
       xlink:href="#linearGradient4694"
       gradientUnits="userSpaceOnUse"
       x2="223.75"
       y1="595.45"
       y2="467.6"
       inkscape:collect="always" />
  </defs>
  <sodipodi:namedview
     id="base"
     bordercolor="#666666"
     inkscape:pageshadow="2"
     inkscape:window-y="0"
     pagecolor="#ffffff"
     inkscape:zoom="0.59400467"
     inkscape:window-width="734"
     inkscape:window-maximized="0"
     inkscape:window-x="0"
     showgrid="false"
     borderopacity="1.0"
     inkscape:current-layer="g3876"
     inkscape:cx="588.08159"
     inkscape:cy="42.095976"
     inkscape:document-units="px"
     inkscape:guide-bbox="true"
     inkscape:window-height="645"
     inkscape:pageopacity="0.0"
     showguides="true" />
  <g
     id="layer1"
     inkscape:label="Layer 1"
     inkscape:groupmode="layer"
     transform="translate(-118.86 -512.41)">
    <g
       id="g3876"
       transform="matrix(2.0823,0,0,2.0823,-244.56,-339.24)">
      <circle
         id="path4608"
         style="filter:url(#filter3872);fill:#888888"
         cx="240.68"
         transform="matrix(1 0 0 .17123 227.83 473.15)"
         cy="486.4"
         r="68.63" />
      <circle
         id="path4612"
         style="fill:#015a01"
         cx="240.68"
         transform="translate(227.83 -.94014)"
         cy="486.4"
         r="68.63" />
      <circle
         id="path4610"
         style="fill:url(#radialGradient4642)"
         cx="240.68"
         transform="translate(227.83 -.94014)"
         cy="486.4"
         r="68.63" />
      <circle
         id="path3812"
         style="filter:url(#filter3872);fill:#888888"
         cx="240.68"
         transform="matrix(1 0 0 .17123 32.788 473.15)"
         cy="486.4"
         r="68.63" />
      <circle
         id="path3755"
         style="fill:#000000"
         cx="240.68"
         transform="translate(32.788 -.94014)"
         cy="486.4"
         r="68.63" />
      <circle
         id="path2985"
         style="fill:url(#radialGradient3763)"
         cx="240.68"
         transform="translate(32.788 -.94014)"
         cy="486.4"
         r="68.63" />
      <path
         id="path3765"
         style="opacity:.15;filter:url(#filter3808);fill:#eeeeee"
         d="m309.31 486.4c0 37.903-27.775 21.401-65.678 21.401s-71.582 16.503-71.582-21.401c0-37.903 30.727-68.63 68.63-68.63s68.63 30.727 68.63 68.63z"
         sodipodi:nodetypes="sssss"
         inkscape:connector-curvature="0"
         transform="matrix(.63699 0 0 .63699 120.16 150.72)" />
      <circle
         id="path3768"
         style="fill:#eeeeee"
         cx="267.94"
         transform="matrix(1.2167,0,0,1.2167,-34.197,-113.02)"
         cy="504.26"
         r="28.204" />
      <circle
         id="path3774"
         style="fill:url(#linearGradient3790)"
         cx="267.94"
         transform="matrix(1.2167,0,0,1.2167,-34.197,-113.02)"
         cy="504.26"
         r="28.204" />
      <text
         id="text3770"
         style="font-weight:bold;font-size:44.29199982px;line-height:125%;font-family:Arial;letter-spacing:0px;word-spacing:0px;fill:#000000"
         sodipodi:linespacing="125%"
         y="516.1366"
         x="279.57755"
         xml:space="preserve"><tspan
           id="tspan3772"
           y="516.1366"
           x="279.57755"
           sodipodi:role="line">5</tspan></text>
      <circle
         id="path4616"
         style="fill:#eeeeee"
         cx="267.94"
         transform="matrix(1.2167,0,0,1.2167,160.85,-113.02)"
         cy="504.26"
         r="28.204" />
      <path
         id="path4614"
         style="opacity:.15880;filter:url(#filter3808);fill:#eeeeee"
         d="m309.31 486.4c0 37.903-27.775 21.401-65.678 21.401s-71.582 16.503-71.582-21.401c0-37.903 30.727-68.63 68.63-68.63s68.63 30.727 68.63 68.63z"
         sodipodi:nodetypes="sssss"
         inkscape:connector-curvature="0"
         transform="matrix(.63699 0 0 .63699 316.14 148.84)" />
      <circle
         id="path4652"
         style="fill:url(#linearGradient4660)"
         cx="267.94"
         transform="matrix(1.2167,0,0,1.2167,160.85,-113.02)"
         cy="504.26"
         r="28.204" />
      <circle
         id="path4692"
         style="fill:url(#linearGradient4700)"
         cx="240.68"
         transform="translate(227.83 -.94014)"
         cy="486.4"
         r="68.63" />
      <g
         id="text4620"
         style="fill:#000000"
         transform="matrix(.99566 .093026 -.093026 .99566 0 0)">
        <path
           id="path3068"
           inkscape:connector-curvature="0"
           d="m541.54 444.71-5.8826 0.64881c-0.1442-1.2111-0.51906-2.105-1.1246-2.6818-0.60557-0.5767-1.3914-0.86506-2.3573-0.86509-1.2832 0.00003-2.3682 0.57675-3.2549 1.7302-0.88672 1.1535-1.4454 3.5541-1.6761 7.2018 1.5139-1.7878 3.3954-2.6817 5.6446-2.6818 2.5376 0.00002 4.7111 0.96602 6.5206 2.898 1.8094 1.932 2.7142 4.4263 2.7142 7.483-0.00002 3.2441-0.95161 5.8465-2.8548 7.8074-1.9032 1.9608-4.347 2.9413-7.3316 2.9413-3.2008 0-5.8321-1.2436-7.8939-3.7307s-3.0927-6.5638-3.0927-12.23c0-5.8104 1.0741-9.9989 3.2224-12.565 2.1483-2.5664 4.9382-3.8496 8.3697-3.8496 2.4078 0.00003 4.4011 0.67407 5.9799 2.0221 1.5788 1.3481 2.5844 3.3054 3.017 5.8717zm-13.776 13.257c0 1.9753 0.45416 3.5 1.3625 4.5741 0.90832 1.0742 1.9464 1.6112 3.1143 1.6112 1.1246 0 2.0618-0.43975 2.8115-1.3192 0.74972-0.8795 1.1246-2.3213 1.1246-4.3254-0.00002-2.0618-0.40372-3.572-1.2111-4.5309-0.80742-0.95878-1.8167-1.4382-3.0278-1.4382-1.1679 0.00002-2.1555 0.45779-2.9629 1.3733-0.80742 0.91555-1.2111 2.2672-1.2111 4.0551z" />
      </g>
      <ellipse
         id="path4674"
         style="opacity:.34960;stroke:url(#radialGradient4682);fill:url(#radialGradient4690)"
         rx="21.153"
         transform="matrix(.73333 0 0 .73333 94.711 113.22)"
         ry="19.743"
         cy="464.77"
         cx="480.88" />
      <circle
         id="path3063"
         style="fill:url(#linearGradient4700)"
         cx="240.68"
         transform="translate(32.788 -.94014)"
         cy="486.4"
         r="68.63" />
    </g>
  </g>
  <metadata
     id="metadata52">
    <rdf:RDF>
      <cc:Work>
        <dc:format>image/svg+xml</dc:format>
        <dc:type
           rdf:resource="http://purl.org/dc/dcmitype/StillImage" />
        <cc:license
           rdf:resource="http://creativecommons.org/licenses/publicdomain/" />
        <dc:publisher>
          <cc:Agent
             rdf:about="http://openclipart.org/">
            <dc:title>Openclipart</dc:title>
          </cc:Agent>
        </dc:publisher>
      </cc:Work>
      <cc:License
         rdf:about="http://creativecommons.org/licenses/publicdomain/">
        <cc:permits
           rdf:resource="http://creativecommons.org/ns#Reproduction" />
        <cc:permits
           rdf:resource="http://creativecommons.org/ns#Distribution" />
        <cc:permits
           rdf:resource="http://creativecommons.org/ns#DerivativeWorks" />
      </cc:License>
    </rdf:RDF>
  </metadata>
</svg>
