<svg xmlns="http://www.w3.org/2000/svg" viewBox="0 0 500 450" xmlns:xlink="http://www.w3.org/1999/xlink">
<defs>
<linearGradient id="linearGradient3594" y1="379.07" y2="325.31" x1="162.65" gradientUnits="userSpaceOnUse" x2="207.02">
<stop offset="0" stop-color="#808080"/>
<stop offset=".5" stop-color="#fff"/>
<stop offset="1" stop-color="#808080"/>
</linearGradient>
<linearGradient gradientTransform="matrix(.98791 0 0 .98791 12.744 3.223)" id="linearGradient3602" y1="-21.836" y2="6.006" x1="620.12" gradientUnits="userSpaceOnUse" x2="633.04">
<stop offset="0" stop-color="#070f1a"/>
<stop offset="1"/>
</linearGradient>
<linearGradient gradientTransform="matrix(.98791 0 0 .98791 1.4334 5.2025)" id="linearGradient3598" y1="7.707" y2="-30.337" x1="722.3" gradientUnits="userSpaceOnUse" x2="740.12">
<stop offset="0"/>
<stop offset="1" stop-color="#0b1627"/>
</linearGradient>
<linearGradient gradientTransform="matrix(.98791 0 0 .98791 13.31 1.5264)" id="linearGradient3606" y1="-54.416" y2="101.84" x1="543.05" gradientUnits="userSpaceOnUse" x2="984.58">
<stop offset="0" stop-color="#0b1728"/>
<stop offset="1"/>
</linearGradient>
<linearGradient gradientTransform="matrix(.98791 0 0 .98791 16.509 -6.4717)" id="linearGradient3604" y1="-16.971" y2="-103.6" x1="747.16" gradientUnits="userSpaceOnUse" x2="501.45">
<stop offset="0"/>
<stop offset="1" stop-color="#1a1a1a"/>
</linearGradient>
<radialGradient cx="513.28" cy="52.506" gradientTransform="matrix(1.4653 .37909 -.16771 .64823 -228.89 -186.8)" id="radialGradient3600" r="113.93" gradientUnits="userSpaceOnUse">
<stop offset="0"/>
<stop offset=".5" stop-color="#0b1728"/>
<stop offset="1"/>
</radialGradient>
</defs>
<g fill-rule="evenodd">
<g transform="matrix(2.67475 0 0 2.67475 113.1924 -101.00972)">
<path fill="#fff" d="m99.76,97.095c-6.864-6.597-14.377-12.606-23.902-16.789v-21.936c2.8848-2.7212 15.598-8.292 21.722-7.1376 9.391,4.6398 16.629,10.463 22.647,16.956 3.171,7.8788 2.564,15.276 1.014,22.552-7.16,2.1178-14.321,4.2356-21.481,6.3535z"/>
<path fill="#f9f9f9" d="m100,96.965c-6.651-6.691-14.114-12.478-23.516-16.661 0-7.2002-.1439-14.034 .1729-21.147 2.7757-2.7503 14.487-8.1939 20.958-7.4392 9.1527,4.4321 16.721,10.519 22.647,16.914 3.123,7.7583 2.438,14.912 .912,22.078-7.051,2.0855-14.123,4.1709-21.174,6.2564z"/>
<path fill="#f4f4f4" d="m100.24,96.836c-6.438-6.785-13.851-12.35-23.129-16.535 0-7.0883-.2878-13.443 .3458-20.357 2.6665-2.7795 13.375-8.0959 20.194-7.7408 8.9133,4.2243 16.812,10.575 22.646,16.87 3.074,7.6378 2.312,14.549 .81,21.603-6.941,2.0531-13.926,4.1061-20.868,6.1592z"/>
<path fill="#efefef" d="m100.48,96.706c-6.226-6.878-13.588-12.222-22.742-16.408 0-6.9765-.4316-12.853 .5188-19.568 2.5572-2.8085 12.263-7.9978 19.429-8.0423 8.675,4.0166 16.904,10.632 22.646,16.827 3.026,7.5174 2.187,14.186 .708,21.129-6.832,2.0206-13.729,4.0413-20.561,6.062z"/>
<path fill="#eaeaea" d="m100.72,96.576c-6.013-6.972-13.326-12.094-22.355-16.28 0-6.8647-.5754-12.262 .6917-18.778 2.4481-2.8377 11.151-7.8999 18.665-8.3439 8.4367,3.8088 16.996,10.688 22.646,16.784 2.977,7.3969 2.061,13.822 .606,20.654-6.722,1.9883-13.531,3.9766-20.254,5.9649z"/>
<path fill="#e5e5e5" d="m100.96,96.447c-5.8-7.066-13.063-11.967-21.968-16.154 0-6.753-.7194-11.672 .8646-17.989 2.3389-2.8668 10.04-7.8018 17.9-8.6454 8.1974,3.601 17.086,10.744 22.644,16.741 2.929,7.2764 1.936,13.459 .505,20.18-6.613,1.9559-13.334,3.9118-19.947,5.8677z"/>
<path fill="#e0e0e0" d="m101.2,96.317c-5.587-7.159-12.8-11.839-21.581-16.027 0-6.6411-.8632-11.082 1.0375-17.2 2.2297-2.896 8.9277-7.7038 17.136-8.947 7.9591,3.3933 17.178,10.8 22.644,16.698 2.881,7.1559 1.81,13.096 .403,19.705-6.504,1.9236-13.137,3.8471-19.641,5.7706z"/>
<path fill="#dbdbdb" d="m101.44,96.187c-5.374-7.253-12.537-11.711-21.195-15.899 0-6.5293-1.007-10.491 1.2105-16.411 2.1205-2.925 7.8159-7.6057 16.371-9.2485 7.7198,3.1855 17.27,10.856 22.644,16.655 2.832,7.0356 1.684,12.733 .301,19.23-6.394,1.8911-12.94,3.7823-19.334,5.6734z"/>
<path fill="#d6d6d6" d="m101.68,96.058c-5.162-7.347-12.274-11.583-20.808-15.773 0-6.4175-1.1509-9.9008 1.3834-15.621 2.0113-2.9542 6.704-7.5077 15.607-9.5501 7.4815,2.9777 17.362,10.912 22.644,16.612 2.784,6.9151 1.559,12.37 .199,18.756-6.285,1.8588-12.742,3.7176-19.027,5.5763z"/>
<path fill="#d1d1d1" d="m101.92,95.928c-4.949-7.44-12.011-11.455-20.421-15.646 0-6.3058-1.2948-9.3105 1.5563-14.832 1.9022-2.9833 5.5923-7.4096 14.842-9.8516 7.2421,2.77 17.453,10.969 22.643,16.568 2.735,6.7946 1.433,12.006 .097,18.281-6.176,1.8264-12.545,3.6528-18.72,5.4791z"/>
<path fill="#ccc" d="m102.16,95.798c-4.7331-7.534-11.746-11.327-20.031-15.518 0-6.1939-1.4387-8.7201 1.7292-14.043 1.7929-3.0125 4.4804-7.3116 14.078-10.153 7.0038,2.5622 17.545,11.025 22.643,16.525 2.686,6.6741 1.307,11.643-.005,17.807-6.066,1.794-12.348,3.588-18.414,5.382z"/>
<path fill="#fff" d="m12.901,88.814c-3.0147,9.1947-3.2406,12.611-2.5126,15.019 .8425,2.786 2.9291,6.195 6.9684,7.773-.0576,11.371 2.1735,21.135 7.9125,28.439-.1192,4.875-.2383,9.749-.3575,14.624-8.735-11.15-18.774-28.24-16.326-52.27 .7484-7.399 2.235-12.016 3.429-15.657 7.9036-23.471 25.316-38.269 49.681-42.861-2.9105,2.4504-5.8211,4.9007-8.7316,7.3512-14.243,4.7951-18.798,11.326-23.045,17.599-3.5982,1.0169-7.321,2.0495-10.205,5.0082-2.8131,4.5741-6.877,14.822-6.813,14.974z"/>
<path fill="#f9f9f9" d="m12.92,88.725c-2.9855,9.1588-3.2029,12.575-2.5531,14.982 .7478,2.97 2.9439,6.431 6.944,8.002-.057,11.326 2.2389,21.031 7.9223,28.306-.1181,4.856-.1928,8.869-.3108,13.725-9.385-12.02-18.094-28.84-16.362-51.11 .7409-7.374 2.847-13.528 4.196-17.048 .1946-.1729 .3375-.1805 .9943-.7781 7.7701-21.721 23.77-36.048 47.34-40.403-2.8823,2.4408-5.2459,4.4277-8.1282,6.8685-13.422,4.3658-18.961,11.044-22.994,17.53-3.5634,1.013-7.4446,2.5603-10.301,5.5074-2.7858,4.5563-6.8103,14.267-6.7469,14.418z"/>
<path fill="#f4f4f4" d="m12.939,88.636c-2.9562,9.123-3.1651,12.538-2.5935,14.945 .6532,3.154 2.9587,6.666 6.9196,8.231-.0564,11.282 2.3043,20.927 7.932,28.174-.1169,4.837-.1473,7.988-.2641,12.825-10.035-12.88-17.415-29.44-16.398-49.95 .7334-7.35 3.459-15.04 4.962-18.44 .3891-.3459 .675-.361 1.9886-1.5563 7.6365-19.972 22.224-33.827 44.999-37.944-2.8541,2.4313-4.6707,3.9547-7.5248,6.386-12.601,3.9363-19.125,10.762-22.943,17.461-3.5284,1.0091-7.5681,3.0711-10.397,6.0067-2.7585,4.5384-6.7436,13.712-6.6808,13.863z"/>
<path fill="#efefef" d="m12.959,88.547c-2.927,9.087-3.1274,12.502-2.634,14.908 .5585,3.337 2.9735,6.901 6.8953,8.461-.0559,11.237 2.3696,20.823 7.9416,28.04-.1157,4.818-.1017,7.107-.2173,11.925-10.686-13.74-16.737-30.04-16.436-48.8 .7269-7.315 4.072-16.543 5.729-19.822 .584-.518 1.013-.541 2.983-2.334 7.503-18.222 20.677-31.606 42.659-35.486-2.826,2.422-4.096,3.482-6.922,5.903-11.78,3.507-19.288,10.481-22.892,17.393-3.494,1.005-7.692,3.582-10.493,6.506-2.731,4.521-6.677,13.157-6.614,13.307z"/>
<path fill="#eaeaea" d="m12.978,88.458c-2.8977,9.0512-3.0896,12.465-2.6745,14.871 .464,3.521 2.9884,7.137 6.871,8.69-.0554,11.193 2.435,20.719 7.9514,27.908-.1146,4.799-.0562,6.226-.1707,11.025-11.335-14.61-16.057-30.65-16.471-47.64 .7194-7.288 4.6843-18.052 6.4954-21.21 .7781-.6917 1.35-.722 3.9772-3.1126 7.3693-16.473 19.131-29.385 40.318-33.028-2.7976,2.4122-3.5202,3.0086-6.3178,5.4208-10.96,3.0776-19.452,10.198-22.842,17.324-3.4586,1.0011-7.8151,4.0926-10.588,7.0051-2.7039,4.5027-6.6102,12.602-6.5487,12.752z"/>
<path fill="#e5e5e5" d="m12.997,88.37c-2.8685,9.0153-3.052,12.428-2.715,14.834 .3693,3.704 3.0032,7.371 6.8466,8.918-.0548,11.149 2.5004,20.615 7.9611,27.776-.1134,4.779-.0106,5.344-.124,10.124-11.986-15.47-15.378-31.25-16.507-46.49 .7119-7.256 5.296-19.558 7.262-22.594 .9727-.8647 1.6875-.9026 4.9715-3.8908 7.2358-14.724 17.585-27.164 37.977-30.569-2.7694,2.4026-2.945,2.5356-5.7144,4.9382-10.139,2.6481-19.615,9.9161-22.792,17.255-3.4238,.9971-7.9387,4.6034-10.683,7.5044-2.6767,4.4848-6.5435,12.047-6.4826,12.196z"/>
<path fill="#e0e0e0" d="m13.017,88.281c-2.8392,8.9794-3.0142,12.391-2.7554,14.797 .2747,3.888 3.018,7.606 6.8222,9.147-.0542,11.104 2.5658,20.511 7.9709,27.643-.1123,4.761 .0349,4.464-.0773,9.225-12.637-16.33-14.699-31.85-16.544-45.33 .7044-7.232 5.908-21.07 8.028-23.986 1.1672-1.0375 2.025-1.083 5.9658-4.6689 7.1022-12.974 16.038-24.943 35.636-28.111-2.7412,2.393-2.3698,2.0625-5.1109,4.4555-9.3183,2.2188-19.779,9.6342-22.741,17.187-3.3888,.9932-8.0622,5.1141-10.779,8.0036-2.6494,4.467-6.4768,11.492-6.4166,11.64z"/>
<path fill="#dbdbdb" d="m13.036,88.192c-2.81,8.9435-2.9765,12.354-2.7959,14.76 .18,4.072 3.0328,7.842 6.7979,9.376-.0537,11.06 2.6311,20.407 7.9805,27.511-.1111,4.742 .0805,3.582-.0306,8.324-13.285-17.2-14.018-32.46-16.579-44.18 .6979-7.198 6.521-22.572 8.795-25.368 1.3618-1.2105 2.3625-1.2636 6.9601-5.4471 6.9687-11.225 14.492-22.722 33.296-25.652-2.713,2.3834-1.7946,1.5894-4.5075,3.9729-8.4975,1.7893-19.942,9.3522-22.69,17.118-3.3539,.9892-8.1857,5.6249-10.874,8.5028-2.622,4.4491-6.4101,10.937-6.3504,11.085z"/>
<path fill="#d6d6d6" d="m13.056,88.103c-2.7808,8.9077-2.9388,12.318-2.8364,14.723 .0854,4.256 3.0476,8.077 6.7735,9.606-.0531,11.015 2.6965,20.302 7.9902,27.377-.1099,4.723 .1261,2.702 .0161,7.425-13.937-18.06-13.34-33.06-16.616-43.02 .6904-7.173 7.133-24.085 9.561-26.759 1.5563-1.3834 2.7-1.444 7.9544-6.2252 6.8351-9.4752 12.946-20.501 30.955-23.194-2.6847,2.3739-1.2193,1.1164-3.904,3.4903-7.6766,1.36-20.106,9.0703-22.64,17.049-3.3191,.9852-8.3093,6.1356-10.97,9.002-2.5948,4.4313-6.3434,10.382-6.2843,10.529z"/>
<path fill="#d1d1d1" d="m13.075,88.014c-2.7515,8.8718-2.901,12.281-2.8768,14.686-.0093,4.439 3.0624,8.312 6.7491,9.835-.0525,10.971 2.7619,20.198 8,27.245-.1088,4.704 .1715,1.821 .0628,6.524-14.587-18.93-12.661-33.66-16.652-41.87 .6829-7.139 7.745-25.587 10.328-28.141 1.7508-1.5563 3.0375-1.6246 8.9486-7.0033 6.7016-7.7259 11.4-18.28 28.614-20.735-2.6565,2.3643-.6441,.6433-3.3005,3.0077-6.8559,.9306-20.27,8.7883-22.589,16.981-3.2841,.9812-8.4328,6.6464-11.065,9.5012-2.5675,4.4135-6.2767,9.8271-6.2183,9.9738z"/>
<path fill="#ccc" d="m13.094,87.925c-2.7223,8.8359-2.8634,12.245-2.9174,14.649-.1038,4.623 3.0773,8.548 6.7248,10.064-.052,10.927 2.8273,20.094 8.0097,27.113-.1076,4.684 .2171,.939 .1095,5.624-15.236-19.8-11.981-34.27-16.687-40.72 .6754-7.114 8.357-27.1 11.094-29.532 1.9454-1.7292 3.375-1.805 9.943-7.7814 6.568-5.9765 9.8533-16.059 26.273-18.277-2.6283,2.3548-.0689,.1704-2.6971,2.5252-6.0351,.5011-20.433,8.5063-22.539,16.912-3.2492,.9772-8.5563,7.1572-11.161,10-2.5403,4.3956-6.21,9.2722-6.1522,9.4182z"/>
<path fill="#fff" d="m124.33,140.47c5.723-8.689 10.45-17.683 10.181-28.207-2.843-7.538-6.463-14.906-13.505-21.525-7.287,2.1551-14.573,4.3102-21.86,6.4652l-9.2601,27.981 13.122,21.678c7.224-.56 15.656-2.545 21.322-6.392z"/>
<path fill="#fbfbfb" d="m123.96,139.53c5.868-8.303 10.421-17.02 10.199-27.291-2.803-7.461-6.283-14.739-13.226-21.292-7.576,2.2648-13.989,4.1495-21.566,6.4143-5.7187,18.499-3.2639,9.4613-9.2465,27.755 8.4088,13.834 4.5711,7.537 12.98,21.371 6.991-.892 15.045-3.174 20.859-6.958z"/>
<path fill="#f8f8f8" d="m123.59,138.58c6.013-7.917 10.39-16.357 10.216-26.374-2.762-7.385-6.104-14.574-12.947-21.059-7.866,2.3746-13.406,3.9889-21.271,6.3634-5.2641,18.345-3.4412,9.5954-9.2331,27.53 8.0701,13.215 4.7684,7.848 12.838,21.063 6.757-1.224 14.434-3.803 20.397-7.524z"/>
<path fill="#f4f4f4" d="m123.22,137.63c6.158-7.53 10.36-15.693 10.233-25.457-2.722-7.308-5.924-14.408-12.668-20.826-8.156,2.4842-12.822,3.8282-20.977,6.3124-4.8094,18.19-3.6184,9.7305-9.2196,27.306 7.7314,12.596 4.9658,8.158 12.697,20.754 6.523-1.555 13.823-4.432 19.935-8.089z"/>
<path fill="#f1f1f1" d="m122.86,136.69c6.302-7.144 10.329-15.03 10.251-24.54-2.683-7.232-5.746-14.242-12.39-20.593-8.445,2.5939-12.238,3.6675-20.683,6.2615-4.3549,18.037-3.7958,9.8646-9.2063,27.08 7.3927,11.978 5.1632,8.469 12.556,20.447 6.288-1.886 13.211-5.061 19.472-8.655z"/>
<path fill="#ededed" d="m122.48,135.74c6.448-6.758 10.3-14.366 10.269-23.623-2.642-7.156-5.566-14.077-12.111-20.36-8.735,2.7037-11.654,3.5069-20.389,6.2106-3.9001,17.883-3.9729,9.9987-9.1927,26.855 7.054,11.359 5.3605,8.78 12.415,20.139 6.055-2.218 12.6-5.691 19.009-9.221z"/>
<path fill="#eaeaea" d="m122.12,134.79c6.593-6.371 10.269-13.703 10.286-22.707-2.602-7.079-5.387-13.91-11.832-20.126-9.025,2.8134-11.07,3.3463-20.095,6.1597-3.4453,17.728-4.15,10.133-9.179,26.63 6.7153,10.74 5.5578,9.09 12.273,19.831 5.821-2.55 11.989-6.32 18.547-9.787z"/>
<path fill="#e7e7e7" d="m121.75,133.84c6.737-5.985 10.238-13.04 10.303-21.79-2.561-7.002-5.207-13.744-11.553-19.894-9.315,2.9231-10.487,3.1856-19.801,6.1088-2.9905,17.574-4.3271,10.268-9.1654,26.404 6.3766,10.122 5.7551,9.401 12.131,19.523 5.587-2.881 11.378-6.949 18.085-10.352z"/>
<path fill="#e3e3e3" d="m121.38,132.9c6.882-5.598 10.208-12.376 10.321-20.873-2.522-6.926-5.029-13.579-11.275-19.661-9.604,3.0329-9.903,3.025-19.507,6.0579-2.5357,17.419-4.5043,10.402-9.1518,26.179 6.0379,9.503 5.9525,9.712 11.991,19.215 5.352-3.213 10.766-7.578 17.622-10.918z"/>
<path fill="#e0e0e0" d="m121.01,131.95c7.028-5.213 10.178-11.714 10.339-19.957-2.482-6.85-4.849-13.413-10.996-19.428-9.894,3.1425-9.319,2.8643-19.213,6.0069-2.0809,17.265-4.6814,10.536-9.1382,25.954 5.6992,8.885 6.1499,10.022 11.849,18.907 5.118-3.545 10.155-8.208 17.159-11.483z"/>
<path fill="#ddd" d="m120.64,131c7.172-4.827 10.148-11.051 10.356-19.041-2.441-6.773-4.67-13.246-10.717-19.194-10.184,3.2523-8.735,2.7037-18.919,5.9559-1.6261,17.11-4.8585,10.671-9.1246,25.728 5.3605,8.267 6.3472,10.333 11.708,18.6 4.885-3.876 9.544-8.837 16.697-12.049z"/>
<path fill="#d9d9d9" d="m120.27,130.06c7.317-4.44 10.117-10.387 10.373-18.124-2.401-6.696-4.49-13.081-10.438-18.961-10.473,3.362-8.151,2.543-18.624,5.905-1.172,16.956-5.0366,10.805-9.1119,25.503 5.0217,7.648 6.5445,10.644 11.566,18.291 4.651-4.207 8.933-9.465 16.235-12.614z"/>
<path fill="#d6d6d6" d="m119.9,129.11c7.462-4.054 10.087-9.724 10.39-17.207-2.36-6.62-4.311-12.915-10.159-18.729-10.763,3.4717-7.568,2.3824-18.33,5.8541-.718,16.802-5.2137,10.94-9.0983,25.278 4.683,7.029 6.7418,10.954 11.425,17.983 4.416-4.539 8.321-10.095 15.772-13.18z"/>
<path fill="#d2d2d2" d="m119.53,128.16c7.607-3.668 10.057-9.061 10.409-16.29-2.321-6.544-4.132-12.749-9.881-18.496-11.053,3.5815-6.984,2.2218-18.036,5.8032-.263,16.648-5.3908,11.074-9.0847,25.053 4.3443,6.411 6.9392,11.265 11.284,17.676 4.182-4.871 7.71-10.724 15.309-13.746z"/>
<path fill="#cfcfcf" d="m119.16,127.22c7.752-3.281 10.026-8.397 10.426-15.373-2.281-6.468-3.953-12.584-9.602-18.263-11.342,3.6911-6.4,2.061-17.742,5.7522 .192,16.494-5.5679,11.209-9.0711,24.828 4.0057,5.792 7.1361,11.576 11.142,17.368 3.948-5.203 7.099-11.354 14.847-14.312z"/>
<path fill="#ccc" d="m118.79,126.27c7.897-2.895 9.996-7.734 10.443-14.457-2.24-6.39-3.773-12.417-9.323-18.029l-17.448,5.7013c.647,16.339-5.745,11.343-9.0575,24.603 3.667,5.173 7.3335,11.886 11,17.059 3.715-5.534 6.488-11.982 14.385-14.877z"/>
</g>
<g transform="matrix(2.1398 0 0 2.1398 -38.513 516.13)">
<path fill="#fff" d="m249.82-156.58c-1.2375,.625-1.7388,.9487-2.8275,2.1738-.6687-13.114-4.5775-28.478-15.06-43.367 2.4875,.6972 3.0588,1.3946 6.43,2.5421 6.0025,11.261 10.635,23.541 11.458,38.651z"/>
</g>
<g transform="matrix(2.67475 0 0 2.67475 113.1924 -101.00972)">
<path d="m143.14,105.47c-2.875,2.421-5.75,4.841-8.624,7.262-3.128-8.279-6.93-15.701-13.272-21.556 2.082-9.1707 1.364-16.594-1.014-22.982 4.581,2.1186 9.162,4.2372 13.744,6.3558 4.802,9.0088 8.508,18.833 9.166,30.921z"/>
<path fill="#050505" d="m143.14,105.47c-2.749,2.293-5.745,4.902-8.392,6.857-2.863-8.212-6.483-15.805-12.439-21.419 1.906-8.7081 .948-16.195-1.662-22.44 4.106,1.7977 8.871,4.0425 13.327,6.0811 4.802,9.0088 8.508,18.833 9.166,30.921z"/>
<path fill="#0a0a0a" d="m143.14,105.47c-2.624,2.165-5.741,4.963-8.161,6.452-2.597-8.145-6.034-15.909-11.605-21.281 1.73-8.2453 .533-15.796-2.311-21.898 3.633,1.4768 8.581,3.848 12.911,5.8065 4.802,9.0088 8.508,18.833 9.166,30.921z"/>
<path fill="#0f0f0f" d="m143.14,105.47c-2.498,2.036-5.737,5.024-7.929,6.047-2.331-8.077-5.587-16.013-10.772-21.143 1.554-7.7826 .117-15.396-2.959-21.356 3.158,1.1559 8.289,3.6533 12.494,5.5318 4.802,9.0088 8.508,18.833 9.166,30.921z"/>
<path fill="#141414" d="m143.14,105.47c-2.372,1.908-5.733,5.085-7.697,5.642-2.066-8.01-5.14-16.117-9.939-21.005 1.378-7.3198-.298-14.997-3.607-20.814 2.683,.835 7.998,3.4586 12.077,5.2571 4.802,9.0088 8.508,18.833 9.166,30.921z"/>
<path fill="#191919" d="m143.14,105.47c-2.247,1.78-5.729,5.146-7.466,5.236-1.8-7.942-4.692-16.22-9.105-20.867 1.203-6.8572-.714-14.598-4.255-20.273 2.208,.5141 7.707,3.2641 11.66,4.9825 4.802,9.0088 8.508,18.833 9.166,30.921z"/>
<path fill="#1e1e1e" d="m143.14,105.47c-2.121,1.652-5.725,5.207-7.234,4.831-1.534-7.875-4.245-16.324-8.272-20.729 1.027-6.3944-1.13-14.199-4.904-19.731 1.734,.1932 7.416,3.0694 11.244,4.7078 4.802,9.0088 8.508,18.833 9.166,30.921z"/>
<path fill="#232323" d="m143.14,105.47c-1.995,1.524-5.721,5.268-7.002,4.426-1.269-7.808-3.797-16.428-7.439-20.591 .851-5.9316-1.545-13.799-5.552-19.189 1.26-.1277 7.125,2.8748 10.827,4.4331 4.802,9.0088 8.508,18.833 9.166,30.921z"/>
<path fill="#282828" d="m143.14,105.47c-1.87,1.396-5.716,5.329-6.771,4.021-1.003-7.741-3.349-16.532-6.605-20.453 .675-5.4689-1.961-13.4-6.2-18.647 .785-.4486 6.834,2.6802 10.41,4.1585 4.802,9.0088 8.508,18.833 9.166,30.921z"/>
<path fill="#2d2d2d" d="m143.14,105.47c-1.744,1.268-5.712,5.389-6.539,3.616-.737-7.674-2.902-16.636-5.772-20.316 .499-5.0062-2.376-13.001-6.849-18.105 .311-.7695 6.543,2.4855 9.994,3.8838 4.802,9.0088 8.508,18.833 9.166,30.921z"/>
<path fill="#333" d="m143.14,105.47c-1.618,1.14-5.708,5.45-6.307,3.211-.472-7.607-2.455-16.74-4.939-20.178 .323-4.5435-2.792-12.602-7.497-17.563-.164-1.0904 6.252,2.2909 9.577,3.6091 4.802,9.0088 8.508,18.833 9.166,30.921z"/>
<path fill="#383838" d="m143.14,105.47c-1.493,1.012-5.704,5.511-6.076,2.806-.206-7.54-2.007-16.844-4.106-20.04 .148-4.0807-3.207-12.202-8.144-17.021-.639-1.4114 5.961,2.0962 9.16,3.3344 4.802,9.0088 8.508,18.833 9.166,30.921z"/>
<path fill="#3d3d3d" d="m143.14,105.47c-1.367,.884-5.7,5.572-5.844,2.401 .06-7.473-1.559-16.947-3.273-19.902-.028-3.618-3.622-11.803-8.792-16.479-1.113-1.7322 5.669,1.9017 8.743,3.0598 4.802,9.0088 8.508,18.833 9.166,30.921z"/>
<path fill="#424242" d="m143.14,105.47c-1.241,.756-5.696,5.633-5.612,1.996 .325-7.406-1.112-17.051-2.44-19.765-.204-3.1553-4.038-11.404-9.441-15.937-1.587-2.0531 5.379,1.707 8.327,2.7851 4.802,9.0088 8.508,18.833 9.166,30.921z"/>
<path fill="#474747" d="m143.14,105.47c-1.116,.628-5.692,5.694-5.381,1.591 .591-7.3388-.664-17.155-1.606-19.627-.38-2.6926-4.453-11.004-10.089-15.395-2.062-2.3741 5.088,1.5123 7.91,2.5104 4.802,9.0088 8.508,18.833 9.166,30.921z"/>
<path fill="#4c4c4c" d="m143.14,105.47c-.99,.5-5.687,5.755-5.149,1.185 .857-7.2708-.217-17.258-.773-19.488-.556-2.2298-4.869-10.605-10.737-14.853-2.537-2.6949 4.796,1.3178 7.493,2.2358 4.802,9.0088 8.508,18.833 9.166,30.921z"/>
<path fill="#707070" d="m143.12,105.32c-.838,.528-4.573,4.668-4.189,1.141 .657-6.6545-.421-15.689-1.198-18.568-.778-2.8794-4.675-10.726-9.853-15.168-1.96-2.1399 3.872,1.0622 6.098,1.8127 4.781,8.9383 8.538,18.995 9.142,30.782z"/>
<path fill="#939393" d="m143.11,105.18c-.686,.557-3.458,3.582-3.228,1.098 .457-6.038-.626-14.119-1.625-17.648-.999-3.5289-4.48-10.848-8.967-15.482-1.384-1.5849 2.947,.8067 4.702,1.3895 4.76,8.8679 8.569,19.157 9.118,30.643z"/>
<path fill="#b7b7b7" d="m143.1,105.03c-.536,.586-2.345,2.495-2.269,1.053 .257-5.421-.83-12.548-2.05-16.727-1.221-4.1785-4.286-10.969-8.083-15.796-.808-1.0299 2.022,.5511 3.308,.9664 4.739,8.7974 8.598,19.319 9.094,30.504z"/>
<path fill="#dbdbdb" d="m143.08,104.88c-.384,.615-1.23,1.409-1.308,1.01 .057-4.805-1.035-10.979-2.477-15.807s-4.091-11.09-7.197-16.111c-.232-.4749 1.097,.2956 1.912,.5433 4.718,8.7269 8.629,19.481 9.07,30.364z"/>
</g>
<g fill="#fff" transform="matrix(2.67475 0 0 2.67475 113.1924 -101.00972)">
<path d="m143.07,104.74-.348,.965c-.143-4.187-1.239-9.4083-2.903-14.886-1.663-5.4776-3.896-11.212-6.312-16.425l.517,.1201c4.697,8.6565 8.659,19.644 9.046,30.226z"/>
<path d="m87.464,43.94c6.9201,2.4339 8.3173,4.7388 10.116,7.2926 8.199,4.2147 15.611,9.6234 22.647,16.956 4.581,2.079 9.162,4.1579 13.744,6.2369-10.33-15.698-33.67-28.634-46.506-30.486z"/>
</g>
<g transform="matrix(2.67475 0 0 2.67475 113.1924 -101.00972)">
<path fill="#fbfbfb" d="m88.208,44.312c6.499,2.3385 7.8526,4.5595 9.6033,7.0538 7.8648,4.0291 15.565,9.6088 22.398,16.785 4.284,1.7094 8.577,3.6838 13.024,5.6577-10.21-15.125-32.64-27.615-45.022-29.497z"/>
<path fill="#f8f8f8" d="m88.952,44.684c6.0779,2.2431 7.3879,4.3802 9.0907,6.8151 7.5306,3.8435 15.518,9.5941 22.149,16.613 3.987,1.3397 7.992,3.2096 12.305,5.0783-10.1-14.55-31.62-26.593-43.548-28.506z"/>
<path fill="#f4f4f4" d="m89.696,45.056c5.6567,2.1477 6.9231,4.2009 8.5782,6.5763 7.1953,3.6578 15.471,9.5794 21.899,16.441 3.689,.9702 7.407,2.7354 11.585,4.4991-9.973-13.977-30.595-25.573-42.062-27.516z"/>
<path fill="#f1f1f1" d="m90.439,45.428c5.2356,2.0522 6.4584,4.0215 8.0656,6.3375 6.8611,3.4721 15.425,9.5647 21.65,16.269 3.392,.6005 6.821,2.2612 10.866,3.9198-9.85-13.403-29.57-24.552-40.581-26.526z"/>
<path fill="#ededed" d="m91.183,45.8c4.8145,1.9569 5.9937,3.8422 7.553,6.0988 6.5269,3.2864 15.379,9.55 21.401,16.097 3.095,.2309 6.236,1.7871 10.146,3.3406-9.73-12.83-28.54-23.533-39.097-25.537z"/>
<path fill="#eaeaea" d="m91.927,46.172c4.3934,1.8614 5.5289,3.6629 7.0404,5.86 6.1927,3.1007 15.332,9.5353 21.152,15.925 2.797-.1386 5.651,1.313 9.427,2.7614-9.61-12.256-27.53-22.511-37.623-24.546z"/>
<path fill="#e7e7e7" d="m92.671,46.544c3.9722,1.766 5.0642,3.4836 6.5278,5.6213 5.8585,2.915 15.286,9.5206 20.902,15.753 2.5-.5083 5.065,.8388 8.708,2.182-9.491-11.682-26.5-21.491-36.138-23.556z"/>
<path fill="#e3e3e3" d="m93.414,46.916c3.5511,1.6706 4.5995,3.3043 6.0153,5.3824 5.5242,2.7294 15.239,9.5061 20.653,15.581 2.202-.8779 4.48,.3646 7.988,1.6028-9.37-11.108-25.47-20.471-34.656-22.566z"/>
<path fill="#e0e0e0" d="m94.158,47.288c3.1299,1.5752 4.1346,3.125 5.5026,5.1437 5.189,2.5437 15.193,9.4914 20.404,15.409 1.905-1.2475 3.895-.1096 7.269,1.0235-9.25-10.534-24.45-19.45-33.172-21.576z"/>
<path fill="#ddd" d="m94.902,47.66c2.7087,1.4798 3.6699,2.9456 4.99,4.9049 4.8548,2.3581 15.146,9.4767 20.155,15.237 1.608-1.6171 3.309-.5837 6.549,.4443-9.128-9.961-23.427-18.43-31.694-20.586z"/>
<path fill="#d9d9d9" d="m95.646,48.032c2.2876,1.3844 3.2052,2.7664 4.477,4.6662 4.521,2.1724 15.1,9.462 19.906,15.065 1.31-1.9866 2.724-1.0578 5.83-.135-9.01-9.387-22.4-17.409-30.214-19.596z"/>
<path fill="#d6d6d6" d="m96.39,48.404c1.8665,1.289 2.7404,2.587 3.9652,4.4274 4.186,1.9867 15.053,9.4473 19.656,14.893 1.013-2.3563 2.139-1.5321 5.11-.7143-8.88-8.813-21.38-16.389-28.73-18.606z"/>
<path fill="#d2d2d2" d="m97.134,48.776c1.4454,1.1936 2.2757,2.4078 3.4524,4.1887 3.852,1.801 15.006,9.4326 19.407,14.721 .716-2.7259 1.554-2.0062 4.391-1.2935-8.766-8.2398-20.356-15.369-27.25-17.616z"/>
<path fill="#cfcfcf" d="m97.877,49.148c1.0242,1.0981 1.811,2.2284 2.9396,3.9499 3.517,1.6153 14.96,9.4179 19.158,14.549 .418-3.0955 .968-2.4804 3.672-1.8728-8.65-7.666-19.33-14.348-25.773-16.626z"/>
<path fill="#ccc" d="m98.621,49.52c.6031,1.0028 1.3462,2.0491 2.4268,3.7112 3.183,1.4296 14.914,9.4032 18.909,14.377 .121-3.4651 .383-2.9545 2.952-2.452-8.525-7.0924-18.308-13.328-24.288-15.636z"/>
<path fill="#fff" d="m89.709,167c-10.423,3.706-19.482,2.123-28.433,.124-6.0738-6.001-11.407-12.483-14.213-20.607 4.7213-7.392 9.4426-14.785 14.164-22.178 10.688,1.84 20.154,1.184 29.362,0 4.3221,7.141 8.6441,14.281 12.966,21.422-2.855,9.235-8.0189,15.642-13.845,21.239z"/>
<path fill="#fbfbfb" d="m88.884,165.88c-10.294,3.783-18.472,2.893-27.733,.909-6.0268-5.955-11.188-12.27-13.972-20.331 4.6848-7.335 9.3926-14.729 14.077-22.064 10.681,2.196 20.094,1.163 29.25,.056 4.2886,7.085 8.4238,14.245 12.712,21.331-3.095,8.624-8.4842,14.639-14.335,20.099z"/>
<path fill="#f8f8f8" d="m88.059,164.75c-10.164,3.86-17.463,3.662-27.032,1.694-5.9798-5.908-10.969-12.057-13.73-20.055 4.6482-7.278 9.3424-14.673 13.991-21.951 10.673,2.554 20.034,1.142 29.138,.113 4.2551,7.03 8.2035,14.209 12.458,21.239-3.3348,8.015-8.9485,13.637-14.824,18.96z"/>
<path fill="#f4f4f4" d="m87.234,163.62c-10.035,3.937-16.454,4.432-26.332,2.479-5.9327-5.862-10.749-11.844-13.49-19.779 4.6116-7.221 9.2924-14.616 13.904-21.837 10.666,2.91 19.974,1.121 29.027,.169 4.2216,6.975 7.9832,14.173 12.205,21.148-3.5752,7.405-9.4137,12.633-15.314,17.82z"/>
<path fill="#f1f1f1" d="m86.409,162.5c-9.9061,4.014-15.444,5.201-25.632,3.264-5.8857-5.815-10.53-11.631-13.248-19.503 4.5751-7.164 9.2424-14.56 13.817-21.724 10.658,3.268 19.914,1.101 28.915,.226 4.1882,6.919 7.763,14.137 11.951,21.056-3.8145,6.795-9.878,11.631-15.803,16.681z"/>
<path fill="#ededed" d="m85.584,161.37c-9.777,4.091-14.435,5.971-24.931,4.049-5.8386-5.769-10.311-11.418-13.007-19.227 4.5385-7.106 9.1922-14.504 13.731-21.61 10.65,3.624 19.854,1.08 28.803,.282 4.1547,6.864 7.5427,14.101 11.698,20.965-4.0549,6.185-10.343,10.628-16.293,15.541z"/>
<path fill="#eaeaea" d="m84.759,160.24c-9.6478,4.167-13.425,6.739-24.231,4.833-5.7917-5.723-10.092-11.205-12.766-18.951 4.5019-7.049 9.1422-14.448 13.644-21.497 10.643,3.981 19.794,1.059 28.692,.339 4.1212,6.809 7.3224,14.065 11.444,20.874-4.2943,5.575-10.808,9.625-16.782,14.402z"/>
<path fill="#e7e7e7" d="m83.934,159.12c-9.5186,4.244-12.416,7.509-23.531,5.618-5.7446-5.676-9.8722-10.992-12.526-18.675 4.4654-6.992 9.0921-14.391 13.558-21.383 10.635,4.338 19.734,1.038 28.58,.395 4.0877,6.753 7.1021,14.029 11.19,20.782-4.5347,4.965-11.273,8.622-17.272,13.263z"/>
<path fill="#e3e3e3" d="m83.109,157.99c-9.3894,4.321-11.407,8.278-22.83,6.403-5.6976-5.63-9.6529-10.779-12.284-18.399 4.4289-6.935 9.0421-14.335 13.471-21.27 10.628,4.695 19.674,1.018 28.468,.452 4.0543,6.698 6.8819,13.992 10.936,20.691-4.774,4.355-11.737,7.619-17.761,12.123z"/>
<path fill="#e0e0e0" d="m82.284,156.86c-9.2603,4.398-10.397,9.048-22.13,7.188-5.6505-5.583-9.4336-10.565-12.043-18.123 4.3923-6.877 8.992-14.279 13.384-21.156 10.62,5.052 19.614,.997 28.357,.508 4.0208,6.642 6.6616,13.956 10.682,20.599-5.0134,3.746-12.201,6.617-18.25,10.984z"/>
<path fill="#ddd" d="m81.459,155.74c-9.1311,4.475-9.3878,9.817-21.43,7.973-5.6035-5.537-9.2143-10.352-11.802-17.847 4.3557-6.82 8.9419-14.223 13.298-21.043 10.612,5.409 19.554,.977 28.245,.564 3.9873,6.588 6.4414,13.921 10.429,20.509-5.2538,3.135-12.667,5.614-18.74,9.844z"/>
<path fill="#d9d9d9" d="m80.634,154.61c-9.002,4.55-8.3785,10.586-20.729,8.757-5.5565-5.49-8.995-10.139-11.561-17.571 4.3192-6.763 8.8919-14.166 13.211-20.929 10.605,5.765 19.494,.955 28.134,.62 3.9538,6.533 6.2211,13.885 10.175,20.418-5.4934,2.525-13.131,4.611-19.229,8.705z"/>
<path fill="#d6d6d6" d="m79.809,153.48c-8.8727,4.627-7.369,11.356-20.029,9.542-5.5094-5.444-8.7757-9.926-11.32-17.295 4.2826-6.706 8.8417-14.11 13.124-20.816 10.597,6.123 19.434,.935 28.022,.677 3.9204,6.477 6.0009,13.849 9.9213,20.326-5.7333,1.916-13.596,3.608-19.718,7.566z"/>
<path fill="#d2d2d2" d="m78.984,152.36c-8.7436,4.704-6.3597,12.125-19.328,10.327-5.4624-5.397-8.5564-9.713-11.079-17.019 4.246-6.649 8.7917-14.054 13.038-20.702 10.59,6.479 19.374,.914 27.91,.733 3.8869,6.422 5.7806,13.813 9.6675,20.235-5.9731,1.305-14.061,2.605-20.208,6.426z"/>
<path fill="#cfcfcf" d="m78.159,151.23c-8.6144,4.781-5.3503,12.895-18.628,11.112-5.4154-5.351-8.3372-9.5-10.838-16.743 4.2095-6.591 8.7416-13.997 12.951-20.589 10.582,6.836 19.314,.894 27.799,.79 3.8534,6.367 5.5603,13.777 9.4138,20.143-6.213,.696-14.525,1.603-20.697,5.287z"/>
<path fill="#ccc" d="m77.334,150.1c-8.4852,4.858-4.3408,13.664-17.928,11.897-5.3684-5.304-8.1179-9.287-10.597-16.467 4.173-6.534 8.6916-13.941 12.864-20.475 10.574,7.193 19.254,.873 27.687,.846 3.8199,6.311 5.34,13.741 9.16,20.052-6.4527,.086-14.99,.6-21.187,4.147z"/>
<path fill="#fff" d="m89.785,167.02c-9.677,2.955-19.04,2.495-28.024-.003-3.6374,1.986-7.5264,4.098-11.164,6.083 16.913,6.174 33.948,6.895 51.159-.293-5.0221-1.087-8.3937-3.521-11.971-5.787z"/>
<path fill="#f9f9f9" d="m89.706,167.04c-9.1754,2.975-19.106,2.512-27.916,.012-3.5651,1.911-6.7428,4.241-9.6323,6.11 15.606,5.639 31.705,6.392 47.696-.275-4.019-1.177-6.642-3.666-10.148-5.847z"/>
<path fill="#f4f4f4" d="m89.626,167.06c-8.6736,2.995-19.172,2.528-27.807,.026-3.4929,1.836-5.9593,4.386-8.1008,6.139 14.299,5.103 29.463,5.889 44.233-.259-3.0158-1.267-4.89-3.81-8.3251-5.906z"/>
<path fill="#efefef" d="m89.546,167.07c-8.172,3.017-19.238,2.545-27.699,.041-3.4207,1.762-5.1759,4.531-6.5695,6.167 12.992,4.568 27.22,5.386 40.77-.241-2.0126-1.357-3.1382-3.955-6.5022-5.967z"/>
<path fill="#eaeaea" d="m89.466,167.09c-7.6703,3.037-19.304,2.561-27.59,.055-3.3484,1.688-4.3923,4.676-5.0381,6.195 11.685,4.032 24.977,4.884 37.308-.224-1.0093-1.447-1.3863-4.099-4.6793-6.026z"/>
<path fill="#e5e5e5" d="m89.386,167.11c-7.1685,3.057-19.369,2.578-27.482,.069-3.2762,1.613-3.6089,4.821-3.5068,6.223 10.378,3.497 22.734,4.381 33.845-.206-.0062-1.537 .3655-4.245-2.8565-6.086z"/>
<path fill="#e0e0e0" d="m89.307,167.13c-6.6669,3.078-19.436,2.594-27.373,.083-3.204,1.539-2.8254,4.966-1.9754,6.252 9.0703,2.961 20.492,3.878 30.382-.19 .9971-1.627 2.1174-4.389-1.0335-6.145z"/>
<path fill="#dbdbdb" d="m89.227,167.15c-6.1652,3.098-19.501,2.61-27.264,.097-3.1317,1.464-2.0419,5.111-.4439,6.28 7.7631,2.425 18.249,3.375 26.919-.172 2.0003-1.718 3.8692-4.534 .7893-6.205z"/>
<path fill="#d6d6d6" d="m89.147,167.17c-5.6635,3.118-19.567,2.627-27.156,.111-3.0595,1.39-1.2584,5.255 1.0874,6.308 6.4559,1.89 16.006,2.873 23.456-.155 3.0035-1.807 5.6211-4.678 2.6123-6.264z"/>
<path fill="#d1d1d1" d="m89.067,167.19c-5.1618,3.139-19.633,2.643-27.047,.125-2.9872,1.316-.4749,5.4 2.6188,6.336 5.1488,1.355 13.763,2.37 19.993-.137 4.0067-1.898 7.3729-4.823 4.4351-6.324z"/>
<path fill="#ccc" d="m88.988,167.21c-4.6602,3.159-19.699,2.659-26.939,.14-2.9151,1.24 .3085,5.544 4.1501,6.363 3.8416,.82 11.52,1.867 16.53-.12s9.1248-4.967 6.2581-6.383z"/>
<path d="m47.375,146.65c3.0835,7.993 8.0789,14.621 14.134,20.492-3.6373,1.986-7.2747,3.972-10.912,5.957-8.0629-3.8-16.164-7.78-25.686-18.428 .1192-4.875 .2383-9.749 .3575-14.624 7.0532,3.971 14.458,5.971 22.106,6.603z"/>
<path fill="#080808" d="m46.692,147.37c3.4061,7.965 8.132,14.233 14.14,19.91-3.299,1.948-6.6256,3.845-10.236,5.803-8.2558-3.89-16.232-7.895-25.668-18.429 .1181-4.824 .2248-9.222 .3429-14.045 6.9201,3.91 13.678,5.79 21.421,6.761z"/>
<path fill="#111" d="m46.01,148.09c3.7287,7.936 8.1851,13.844 14.146,19.329-2.9606,1.91-5.9765,3.717-9.5596,5.649-8.4487-3.98-16.301-8.011-25.65-18.432 .117-4.771 .2113-8.694 .3283-13.465 6.787,3.848 12.898,5.609 20.735,6.919z"/>
<path fill="#1a1a1a" d="m45.327,148.81c4.0513,7.907 8.2382,13.455 14.152,18.747-2.6223,1.872-5.3275,3.59-8.8834,5.495-8.6415-4.07-16.369-8.126-25.632-18.434 .1159-4.719 .1979-8.166 .3138-12.885 6.6539,3.786 12.118,5.428 20.05,7.077z"/>
<path fill="#232323" d="m44.645,149.54c4.3739,7.878 8.2912,13.066 14.158,18.165-2.284,1.835-4.6784,3.463-8.2072,5.341-8.8344-4.159-16.438-8.241-25.614-18.436 .1148-4.667 .1844-7.637 .2992-12.305 6.5208,3.724 11.339,5.247 19.364,7.235z"/>
<path fill="#2c2c2c" d="m43.962,150.26c4.6965,7.849 8.3443,12.677 14.164,17.583-1.9456,1.797-4.0293,3.337-7.5311,5.187-9.0272-4.249-16.506-8.356-25.596-18.438 .1137-4.615 .1709-7.109 .2847-11.725 6.3875,3.663 10.559,5.066 18.679,7.393z"/>
<path fill="#353535" d="m43.28,150.98c5.0191,7.82 8.3974,12.288 14.17,17.001-1.6073,1.759-3.3803,3.21-6.8549,5.033-9.2201-4.338-16.575-8.471-25.578-18.44 .1127-4.563 .1575-6.581 .2702-11.144 6.2544,3.6 9.7789,4.884 17.994,7.55z"/>
<path fill="#3e3e3e" d="m42.597,151.7c5.3417,7.791 8.4505,11.899 14.175,16.419-1.2689,1.722-2.7312,3.083-6.1787,4.88-9.413-4.429-16.643-8.587-25.56-18.442 .1116-4.512 .144-6.053 .2556-10.565 6.1213,3.538 8.9991,4.702 17.308,7.708z"/>
<path fill="#474747" d="m41.915,152.42c5.6644,7.762 8.5037,11.51 14.181,15.837-.9306,1.684-2.0821,2.956-5.5025,4.726-9.6058-4.518-16.712-8.702-25.542-18.444 .1105-4.46 .1305-5.525 .241-9.985 5.9882,3.477 8.2193,4.521 16.623,7.866z"/>
<path fill="#505050" d="m41.232,153.15c5.987,7.734 8.5567,11.122 14.187,15.255-.5923,1.647-1.4331,2.829-4.8263,4.572-9.7987-4.608-16.78-8.817-25.525-18.446 .1094-4.408 .1169-4.997 .2264-9.405 5.8551,3.415 7.4395,4.34 15.937,8.024z"/>
<path fill="#595959" d="m40.55,153.87c6.3097,7.705 8.6098,10.733 14.193,14.674-.2539,1.608-.784,2.702-4.1501,4.417-9.9916-4.697-16.849-8.932-25.507-18.448 .1084-4.356 .1035-4.468 .2119-8.825 5.722,3.353 6.6598,4.159 15.252,8.182z"/>
<path fill="#626262" d="m39.867,154.59c6.6323,7.676 8.6629,10.344 14.199,14.092 .0845,1.57-.1348,2.575-3.4739,4.264-10.184-4.788-16.917-9.049-25.489-18.451 .1072-4.304 .09-3.94 .1973-8.244 5.5889,3.291 5.88,3.977 14.566,8.339z"/>
<path fill="#6b6b6b" d="m39.185,155.31c6.9549,7.647 8.716,9.955 14.205,13.51 .4228,1.533 .5142,2.448-2.7977,4.11-10.377-4.877-16.986-9.164-25.471-18.453 .1061-4.252 .0765-3.412 .1827-7.664 5.4557,3.229 5.1002,3.796 13.881,8.497z"/>
<path fill="#747474" d="m38.502,156.03c7.2775,7.618 8.7691,9.566 14.211,12.928 .7612,1.495 1.1633,2.321-2.1215,3.956-10.57-4.967-17.054-9.279-25.453-18.454 .1051-4.201 .0631-2.884 .1682-7.085 5.3226,3.167 4.3204,3.614 13.196,8.655z"/>
<path fill="#7c7c7c" d="m37.82,156.76c7.6001,7.589 8.8221,9.177 14.217,12.346 1.0995,1.458 1.8124,2.194-1.4453,3.802-10.763-5.056-17.122-9.394-25.435-18.456 .104-4.149 .0496-2.356 .1536-6.505 5.1895,3.105 3.5406,3.433 12.51,8.813z"/>
<path fill="#858585" d="m37.137,157.48c7.9227,7.56 8.8752,8.788 14.223,11.764 1.4378,1.42 2.4614,2.068-.7691,3.648-10.956-5.146-17.191-9.509-25.417-18.458 .1029-4.097 .0361-1.828 .139-5.925 5.0564,3.044 2.7608,3.252 11.825,8.971z"/>
<path fill="#8e8e8e" d="m36.455,158.2c8.2453,7.531 8.9283,8.399 14.228,11.182 1.7762,1.382 3.1105,1.941-.0929,3.495-11.149-5.236-17.26-9.625-25.4-18.461 .1019-4.045 .0227-1.299 .1245-5.345 4.9233,2.982 1.9811,3.071 11.139,9.129z"/>
<path fill="#979797" d="m35.772,158.92c8.568,7.503 8.9815,8.011 14.234,10.6 2.1145,1.345 3.7596,1.814 .5833,3.341-11.342-5.326-17.328-9.74-25.382-18.463 .1008-3.993 .0092-.771 .1099-4.764 4.7902,2.919 1.2013,2.889 10.454,9.286z"/>
<path fill="#a0a0a0" d="m35.09,159.64c8.8906,7.473 9.0346,7.621 14.24,10.018 2.4528,1.306 4.4086,1.686 1.2594,3.186-11.534-5.415-17.396-9.855-25.364-18.465 .0997-3.941-.0044-.243 .0953-4.184 4.6571,2.858 .4215,2.708 9.7685,9.445z"/>
<path fill="#a9a9a9" d="m34.407,160.37c9.2132,7.444 9.0876,7.232 14.246,9.436 2.7912,1.269 5.0577,1.559 1.9356,3.032-11.727-5.505-17.465-9.97-25.346-18.466 .0986-3.89-.0178,.285 .0809-3.605 4.5238,2.796-.3584,2.526 9.083,9.603z"/>
<path fill="#b2b2b2" d="m33.725,161.09c9.5358,7.415 9.1407,6.843 14.252,8.854 3.1295,1.231 5.7068,1.433 2.6118,2.879-11.92-5.595-17.533-10.086-25.328-18.469 .0975-3.838-.0313,.813 .0663-3.025 4.3907,2.734-1.1382,2.345 8.3976,9.761z"/>
<path d="m89.785,167.02c7.5306-6.687 11.267-13.83 13.769-21.121 7.562-.622 14.584-2.621 20.954-6.282 3.15,4.133 1.989,10.581-.478,17.73-5.855,6.578-13.759,11.295-22.274,15.46-4.1724-.999-8.0922-3.288-11.971-5.787z"/>
<path fill="#080808" d="m90.248,167.21c7.3714-6.379 11.081-13.216 13.819-20.421 7.544-.87 14.258-2.831 20.471-6.554 2.973,4.03 1.844,10.263-.523,17.114-5.757,6.468-13.812,11.332-22.224,15.422-4.0663-.97-7.7512-3.148-11.543-5.561z"/>
<path fill="#111" d="m90.71,167.4c7.2122-6.07 10.896-12.602 13.87-19.721 7.526-1.117 13.932-3.04 19.988-6.825 2.796,3.926 1.699,9.944-.568,16.497-5.66,6.359-13.865,11.37-22.173,15.384-3.9612-.941-7.4113-3.007-11.117-5.335z"/>
<path fill="#1a1a1a" d="m91.173,167.59c7.053-5.761 10.71-11.988 13.919-19.021 7.509-1.365 13.607-3.249 19.506-7.097 2.619,3.823 1.555,9.626-.612,15.88-5.563,6.25-13.919,11.408-22.124,15.347-3.8551-.912-7.0703-2.867-10.689-5.109z"/>
<path fill="#232323" d="m91.636,167.78c6.8938-5.452 10.524-11.374 13.97-18.321 7.492-1.612 13.282-3.458 19.023-7.369 2.442,3.72 1.41,9.308-.657,15.264-5.466,6.141-13.972,11.445-22.073,15.31-3.7499-.884-6.7303-2.728-10.262-4.884z"/>
<path fill="#2c2c2c" d="m92.098,167.97c6.7346-5.144 10.339-10.76 14.019-17.622 7.475-1.859 12.957-3.667 18.541-7.64 2.266,3.617 1.266,8.99-.702,14.648-5.368,6.031-14.025,11.482-22.023,15.272-3.6438-.855-6.3893-2.587-9.835-4.658z"/>
<path fill="#353535" d="m92.561,168.16c6.5754-4.835 10.153-10.146 14.069-16.922 7.457-2.106 12.631-3.876 18.058-7.912 2.089,3.514 1.121,8.673-.747,14.032-5.271,5.922-14.078,11.519-21.973,15.234-3.5377-.826-6.0483-2.447-9.4074-4.432z"/>
<path fill="#3e3e3e" d="m93.023,168.35c6.4162-4.526 9.9679-9.532 14.119-16.222 7.44-2.354 12.306-4.085 17.576-8.183 1.912,3.41 .977,8.354-.792,13.415-5.174,5.813-14.131,11.557-21.922,15.196-3.4325-.797-5.7084-2.307-8.9809-4.206z"/>
<path fill="#474747" d="m93.486,168.54c6.257-4.217 9.7823-8.918 14.169-15.522 7.422-2.602 11.981-4.295 17.093-8.455 1.735,3.308 .832,8.036-.837,12.799-5.076,5.703-14.184,11.594-21.872,15.158-3.3264-.768-5.3674-2.166-8.5533-3.98z"/>
<path fill="#505050" d="m93.948,168.74c6.0978-3.909 9.5968-8.304 14.22-14.822 7.404-2.849 11.655-4.504 16.61-8.727 1.558,3.205 .688,7.718-.881,12.183-4.98,5.594-14.238,11.631-21.822,15.12-3.2213-.739-5.0274-2.026-8.1268-3.754z"/>
<path fill="#595959" d="m94.411,168.93c5.9382-3.6 9.4112-7.69 14.269-14.122 7.388-3.097 11.33-4.713 16.128-8.999 1.381,3.102 .543,7.4-.926,11.566-4.882,5.485-14.291,11.669-21.772,15.083-3.1152-.709-4.6864-1.886-7.6992-3.528z"/>
<path fill="#626262" d="m94.873,169.12c5.7796-3.291 9.2256-7.076 14.32-13.422 7.37-3.344 11.004-4.922 15.645-9.271 1.205,2.999 .398,7.082-.971,10.95-4.785,5.376-14.344,11.706-21.722,15.046-3.009-.681-4.3454-1.746-7.2716-3.303z"/>
<path fill="#6b6b6b" d="m95.336,169.31c5.6201-2.982 9.0401-6.462 14.369-12.722 7.353-3.592 10.68-5.132 15.163-9.542 1.028,2.895 .254,6.763-1.016,10.333-4.687,5.266-14.397,11.744-21.671,15.008-2.9039-.652-4.0055-1.606-6.8451-3.077z"/>
<path fill="#747474" d="m95.798,169.5c5.4615-2.674 8.8545-5.848 14.42-12.022 7.335-3.839 10.354-5.341 14.68-9.814 .851,2.792 .109,6.446-1.061,9.717-4.59,5.157-14.45,11.781-21.621,14.97-2.7978-.623-3.6645-1.466-6.4175-2.851z"/>
<path fill="#7c7c7c" d="m96.261,169.69c5.302-2.365 8.669-5.234 14.469-11.322 7.318-4.087 10.029-5.55 14.198-10.086 .674,2.689-.035,6.128-1.106,9.101-4.493,5.048-14.503,11.818-21.571,14.932-2.6916-.594-3.3235-1.325-5.99-2.625z"/>
<path fill="#858585" d="m96.724,169.88c5.1424-2.056 8.4834-4.62 14.519-10.622 7.3-4.334 9.704-5.76 13.715-10.358 .497,2.586-.18,5.81-1.15,8.485-4.396,4.938-14.557,11.855-21.521,14.894-2.5865-.565-2.9835-1.185-5.5634-2.399z"/>
<path fill="#8e8e8e" d="m97.186,170.07c4.9838-1.747 8.2978-4.006 14.569-9.922 7.284-4.582 9.379-5.969 13.233-10.629 .321,2.483-.324,5.491-1.195,7.867-4.299,4.83-14.61,11.893-21.471,14.857-2.4804-.536-2.6425-1.045-5.1358-2.173z"/>
<path fill="#979797" d="m97.649,170.26c4.8243-1.439 8.1123-3.392 14.619-9.222 7.266-4.829 9.053-6.178 12.75-10.901 .144,2.38-.469,5.173-1.24,7.251-4.201,4.72-14.663,11.93-21.42,14.819-2.3753-.507-2.303-.904-4.7093-1.947z"/>
<path fill="#a0a0a0" d="m98.111,170.46c4.6647-1.13 7.9267-2.778 14.67-8.522 7.248-5.077 8.727-6.387 12.267-11.173-.033,2.277-.613,4.855-1.285,6.635-4.104,4.611-14.716,11.968-21.37,14.782-2.269-.479-1.962-.765-4.2817-1.722z"/>
<path fill="#a9a9a9" d="m98.574,170.65c4.5062-.821 7.7412-2.164 14.719-7.822 7.231-5.325 8.403-6.597 11.785-11.445-.21,2.174-.758,4.537-1.33,6.019-4.006,4.501-14.769,12.005-21.32,14.744-2.163-.45-1.621-.625-3.8542-1.496z"/>
<path fill="#b2b2b2" d="m99.036,170.84c4.3466-.512 7.5556-1.55 14.77-7.122 7.213-5.572 8.077-6.806 11.302-11.717-.387,2.071-.903,4.22-1.375,5.403-3.909,4.392-14.822,12.042-21.269,14.706-2.058-.421-1.281-.484-3.4276-1.27z"/>
<path fill="#fff" d="m143.13,104.77l-8.811,7.182c.167,9.47-4.175,18.776-10.221,27.939 3.466,4.536 1.388,11.243-.489,17.871 11.945-13.185 20.861-28.864 19.521-52.992z"/>
<path fill="#f9f9f9" d="m143.13,105.07c-2.875,2.358-5.712,4.701-8.548,7.098 .178,9.427-4.072,18.625-10.054,27.65 3.393,4.468 1.273,10.936-.564,17.465 11.679-13.025 20.385-28.447 19.166-52.213z"/>
<path fill="#f4f4f4" d="m143.12,105.38c-2.814,2.322-5.55,4.614-8.286,7.013 .19,9.385-3.97,18.473-9.887,27.362 3.321,4.399 1.159,10.629-.639,17.058 11.413-12.866 19.909-28.029 18.812-51.433z"/>
<path fill="#efefef" d="m143.12,105.68c-2.753,2.287-5.389,4.527-8.025,6.929 .203,9.342-3.866,18.322-9.719,27.073 3.248,4.332 1.044,10.323-.714,16.652 11.148-12.706 19.434-27.611 18.458-50.654z"/>
<path fill="#eaeaea" d="m143.12,105.99c-2.691,2.25-5.226,4.44-7.762,6.843 .215,9.301-3.764,18.172-9.553,26.785 3.177,4.264 .931,10.016-.789,16.247 10.883-12.547 18.959-27.195 18.104-49.875z"/>
<path fill="#e5e5e5" d="m143.11,106.29c-2.63,2.215-5.065,4.353-7.5,6.759 .226,9.258-3.661,18.02-9.386,26.496 3.104,4.196 .816,9.71-.864,15.841 10.617-12.388 18.483-26.777 17.75-49.096z"/>
<path fill="#e0e0e0" d="m143.11,106.6c-2.568,2.179-4.903,4.265-7.238,6.674 .239,9.216-3.558,17.869-9.218,26.207 3.032,4.128 .702,9.403-.939,15.435 10.351-12.228 18.008-26.359 17.395-48.316z"/>
<path fill="#dbdbdb" d="m143.1,106.9c-2.507,2.143-4.741,4.179-6.976,6.59 .251,9.173-3.455,17.717-9.051,25.919 2.959,4.059 .587,9.096-1.015,15.028 10.086-12.069 17.533-25.941 17.042-47.537z"/>
<path fill="#d6d6d6" d="m143.1,107.2c-2.446,2.107-4.58,4.091-6.714,6.505 .263,9.131-3.353,17.566-8.884,25.63 2.886,3.992 .473,8.79-1.09,14.622 9.821-11.909 17.057-25.524 16.688-46.757z"/>
<path fill="#d1d1d1" d="m143.09,107.51c-2.383,2.071-4.417,4.004-6.451,6.42 .274,9.088-3.25,17.415-8.717,25.341 2.814,3.924 .358,8.483-1.165,14.217 9.555-11.75 16.582-25.107 16.333-45.978z"/>
<path fill="#ccc" d="m143.09,107.81c-2.322,2.035-4.256,3.917-6.19,6.335 .287,9.047-3.147,17.264-8.549,25.053 2.741,3.856 .244,8.177-1.24,13.811 9.289-11.591 16.106-24.689 15.979-45.199z"/>
<path fill="#fff" d="m61.461,124.59-14.086,22.056c-7.9352-.467-15.258-2.807-22.106-6.603-6.3442-7.588-8.066-17.535-7.9125-28.439 3.1215-7.599 6.367-15.14 13.283-20.952 7.3675,2.0004 14.735,4.0009 22.102,6.0013 .8516,9.4741 3.9994,18.767 8.7192,27.937z"/>
<path fill="#f9f9f9" d="m61.326,124.44-13.887,21.665c-7.8993-.459-15.189-2.766-22.006-6.509-6.3156-7.479-7.8714-16.977-7.5525-27.708 2.9479-7.542 6.0355-14.708 12.639-20.156 7.0746,1.6909 14.787,3.2035 22.121,5.1754 .8478,9.3388 4.0785,18.667 8.6851,27.533z"/>
<path fill="#f4f4f4" d="m61.19,124.29-13.688,21.27c-7.863-.45-15.12-2.72-21.905-6.41-6.287-7.37-7.677-16.42-7.193-26.98 2.7743-7.485 5.7041-14.276 11.995-19.36 6.7819,1.3814 14.839,2.4061 22.14,4.3494 .8439,9.2035 4.1577,18.566 8.651,27.128z"/>
<path fill="#efefef" d="m61.055,124.14-13.489,20.885c-7.8274-.447-15.051-2.687-21.806-6.321-6.258-7.263-7.4821-15.864-6.8323-26.248 2.6007-7.428 5.3726-13.843 11.351-18.564 6.4892,1.0718 14.891,1.6086 22.159,3.5234 .8401,9.0682 4.2368,18.466 8.6169,26.724z"/>
<path fill="#eaeaea" d="m60.92,123.98-13.29,20.493c-7.7914-.44-14.982-2.646-21.706-6.226-6.2293-7.155-7.2875-15.307-6.4722-25.518 2.427-7.371 5.0412-13.411 10.708-17.767 6.1965,.7622 14.944,.8112 22.177,2.6974 .8363,8.9329 4.3161,18.366 8.5829,26.321z"/>
<path fill="#e5e5e5" d="m60.785,123.83-13.091,20.11c-7.7556-.433-14.913-2.606-21.605-6.132-6.2006-7.046-7.0929-14.75-6.1122-24.788 2.2534-7.314 4.7097-12.979 10.064-16.971 5.9036,.4527 14.996,.0137 22.196,1.8714 .8324,8.7976 4.3952,18.266 8.5489,25.917z"/>
<path fill="#e0e0e0" d="m60.65,123.68-12.892,19.713c-7.7196-.427-14.844-2.567-21.505-6.038-6.1718-6.938-6.8983-14.193-5.7521-24.058 2.0798-7.257 4.3783-12.546 9.42-16.175 5.6109,.1432 15.048-.7836 22.215,1.0455 .8286,8.6623 4.4743,18.165 8.5148,25.512z"/>
<path fill="#dbdbdb" d="m60.515,123.53-12.693,19.322c-7.6837-.42-14.775-2.526-21.405-5.943-6.1431-6.83-6.7036-13.636-5.392-23.328 1.9062-7.199 4.0468-12.114 8.7762-15.378 5.3182-.1664 15.1-1.5811 22.234,.2195 .8247,8.527 4.5535,18.065 8.4807,25.108z"/>
<path fill="#d6d6d6" d="m60.38,123.38-12.494,18.932c-7.6478-.413-14.706-2.486-21.305-5.849-6.1144-6.722-6.5091-13.079-5.032-22.597 1.7326-7.143 3.7154-11.683 8.1324-14.583 5.0255-.476 15.152-2.3785 22.252-.6065 .8209,8.3917 4.6326,17.965 8.4466,24.704z"/>
<path fill="#d1d1d1" d="m60.245,123.22-12.296,18.541c-7.6118-.406-14.636-2.445-21.205-5.754-6.0856-6.614-6.3144-12.522-4.6719-21.867 1.559-7.086 3.3839-11.25 7.4887-13.787 4.7327-.7854 15.204-3.1759 22.271-1.4324 .817,8.2564 4.7118,17.863 8.4125,24.299z"/>
<path fill="#ccc" d="m60.11,123.07-12.097,18.15c-7.5759-.4-14.567-2.406-21.105-5.66-6.0569-6.505-6.1197-11.965-4.3118-21.137 1.3854-7.029 3.0525-10.818 6.8449-12.991 4.4399-1.095 15.256-3.973 22.29-2.2581 .8131,8.1211 4.7909,17.763 8.3784,23.895z"/>
</g>
<g transform="matrix(2.1398 0 0 2.1398 -38.513 516.13)">
<path fill="#fff" d="m136.82-167.59c8.6515-6.8119 15.518-13.624 28.895-20.436v-27.42c-6.7639-5.24-16.269-8.2416-28.617-8.922-14.531,3.5321-22.639,11.909-28.666,21.856-2.3276,9.1399-1.7464,18.28 .7604,27.42l27.628,7.5016z"/>
</g>
<g transform="matrix(2.67475 0 0 2.67475 113.1924 -101.00972)">
<path fill="#fff" d="m53.07,97.302c7.0165-5.5271 12.585-11.054 23.434-16.581v-22.248c-5.485-4.252-13.194-6.688-23.208-7.24-11.785,2.866-18.361,9.663-23.249,17.734-1.8878,7.4161-1.4163,14.832 .6167,22.248 7.4688,2.029 14.938,4.0579 22.406,6.0868z"/>
<path fill="#fbfbfb" d="m53.201,97.094c6.9052-5.4982 12.51-11.029 23.194-16.429-.011-7.3222 0-14.48 .0219-21.857-5.4242-4.2041-12.62-5.7355-22.522-6.2814-11.653,2.8339-17.957,9.2039-22.901,16.954-2.0794,7.1248-1.7742,14.272 .3688,21.528 7.3085,2.1393 14.453,4.0782 21.838,6.0845z"/>
<path fill="#f7f7f7" d="m53.331,96.885c6.7938-5.4692 12.435-11.004 22.954-16.276-.0219-7.2283 0-14.128 .0438-21.466-5.3628-4.1566-12.045-4.7838-21.835-5.3235-11.521,2.8018-17.554,8.7446-22.553,16.175-2.2711,6.8335-2.1322,13.713 .1209,20.808 7.1482,2.2497 13.968,4.0987 21.27,6.0822z"/>
<path fill="#f3f3f3" d="m53.462,96.677c6.6825-5.4403 12.36-10.979 22.714-16.124-.0328-7.1344 0-13.776 .0658-21.074-5.3015-4.109-11.47-3.8321-21.148-4.3657-11.389,2.7698-17.15,8.2855-22.206,15.396-2.4628,6.5422-2.4902,13.153-.1271,20.088 6.9878,2.3602 13.483,4.1191 20.702,6.0799z"/>
<path fill="#efefef" d="m53.592,96.469c6.5711-5.4114 12.285-10.954 22.474-15.971-.0439-7.0405 0-13.423 .0876-20.683-5.2401-4.0615-10.895-2.8804-20.462-3.4078-11.258,2.7378-16.747,7.8263-21.858,14.617-2.6545,6.251-2.8481,12.593-.375,19.368 6.8275,2.4705 12.999,4.1394 20.133,6.0776z"/>
<path fill="#ebebeb" d="m53.723,96.26c6.4598-5.3825 12.21-10.929 22.234-15.819-.0548-6.9466 0-13.071 .1096-20.292-5.1788-4.0139-10.32-1.9286-19.775-2.4498-11.126,2.7057-16.343,7.367-21.51,13.837-2.8462,5.9597-3.2061,12.034-.623,18.648 6.6672,2.5809 12.514,4.1598 19.565,6.0753z"/>
<path fill="#e8e8e8" d="m53.854,96.052c6.3484-5.3535 12.135-10.904 21.993-15.666-.0657-6.8527 0-12.719 .1315-19.9-5.1174-3.9663-9.7453-.9769-19.088-1.492-10.994,2.6737-15.94,6.9079-21.163,13.058-3.0379,5.6684-3.564,11.474-.8709,17.927 6.5068,2.6913 12.029,4.1802 18.997,6.073z"/>
<path fill="#e4e4e4" d="m53.984,95.844c6.2371-5.3247 12.06-10.88 21.753-15.514-.0767-6.7588 0-12.367 .1534-19.509-5.0562-3.9188-9.1705-.0253-18.401-.5341-10.862,2.6416-15.536,6.4487-20.815,12.279-3.2296,5.3771-3.9219,10.914-1.1188,17.207 6.3465,2.8016 11.544,4.2006 18.428,6.0707z"/>
<path fill="#e0e0e0" d="m54.115,95.636c6.126-5.296 11.985-10.855 21.513-15.361-.0876-6.665 0-12.014 .1753-19.118-4.9948-3.8713-8.5956,.9264-17.714,.4237-10.73,2.6096-15.133,5.9895-20.468,11.5-3.4213,5.0858-4.2799,10.354-1.3668,16.487 6.1862,2.9121 11.059,4.221 17.86,6.0684z"/>
<path fill="#dcdcdc" d="m54.246,95.427c6.0144-5.2667 11.91-10.83 21.273-15.208-.0987-6.571 0-11.662 .1972-18.726-4.9335-3.8238-8.0208,1.8781-17.027,1.3816-10.599,2.5775-14.73,5.5303-20.12,10.72-3.613,4.7945-4.6378,9.7946-1.6147,15.767 6.0258,3.0225 10.575,4.2414 17.292,6.0661z"/>
<path fill="#d8d8d8" d="m54.376,95.219c5.9031-5.2379 11.835-10.805 21.033-15.056-.1096-6.4771 0-11.31 .2191-18.335-4.8721-3.7761-7.4459,2.8299-16.341,2.3395-10.467,2.5455-14.326,5.0712-19.772,9.941-3.8046,4.5033-4.9957,9.2349-1.8626,15.047 5.8655,3.1328 10.09,4.2617 16.724,6.0638z"/>
<path fill="#d4d4d4" d="m54.507,95.011c5.7918-5.2089 11.76-10.78 20.793-14.903-.1205-6.3832 0-10.958 .2411-17.944-4.8108-3.7286-6.8711,3.7816-15.654,3.2974-10.335,2.5134-13.923,4.6119-19.424,9.1617-3.9964,4.212-5.3537,8.6752-2.1106,14.327 5.7052,3.2432 9.6051,4.2822 16.155,6.0615z"/>
<path fill="#d1d1d1" d="m54.637,94.803c5.6805-5.18 11.685-10.755 20.553-14.751-.1315-6.2894 0-10.606 .2629-17.553-4.7494-3.6811-6.2962,4.7333-14.967,4.2553-10.203,2.4813-13.519,4.1527-19.077,8.3824-4.188,3.9207-5.7116,8.1154-2.3585,13.606 5.5449,3.3536 9.1203,4.3026 15.587,6.0592z"/>
<path fill="#cdcdcd" d="m54.768,94.594c5.5691-5.1511 11.61-10.73 20.312-14.598-.1424-6.1954 0-10.253 .2849-17.161-4.6881-3.6335-5.7214,5.685-14.28,5.2131-10.072,2.4493-13.116,3.6936-18.729,7.6032-4.3798,3.6294-6.0696,7.5557-2.6065,12.886 5.3845,3.464 8.6355,4.3229 15.018,6.0569z"/>
<path fill="#c9c9c9" d="m54.898,94.386c5.4578-5.1222 11.535-10.705 20.072-14.446-.1534-6.1015 0-9.9012 .3068-16.77-4.6267-3.586-5.1465,6.6366-13.593,6.171-9.9397,2.4172-12.712,3.2343-18.382,6.8239-4.5715,3.3381-6.4275,6.9959-2.8544,12.166 5.2242,3.5744 8.1507,4.3433 14.45,6.0546z"/>
<path fill="#c5c5c5" d="m55.029,94.178c5.3465-5.0932 11.46-10.68 19.832-14.293-.1644-6.0076 0-9.549 .3287-16.379-4.5654-3.5384-4.5717,7.5884-12.906,7.1289-9.8079,2.3853-12.309,2.7752-18.034,6.0446-4.7631,3.0469-6.7854,6.4363-3.1023,11.446 5.0639,3.6848 7.6659,4.3637 13.882,6.0523z"/>
<path fill="#c1c1c1" d="m55.16,93.97c5.2351-5.0643 11.385-10.655 19.592-14.141-.1753-5.9138 0-9.1968 .3506-15.988-4.504-3.4909-3.9968,8.5401-12.22,8.0868-9.6761,2.3532-11.905,2.3159-17.686,5.2653-4.9549,2.7556-7.1434,5.8765-3.3503,10.726 4.9035,3.7952 7.1811,4.3842 13.314,6.0501z"/>
<path fill="#bdbdbd" d="m55.29,93.761c5.1238-5.0354 11.31-10.63 19.352-13.988-.1863-5.8199 0-8.8446 .3725-15.596-4.4427-3.4433-3.422,9.4918-11.533,9.0447-9.5443,2.3211-11.502,1.8567-17.339,4.486-5.1465,2.4643-7.5013,5.3168-3.5982,10.006 4.7432,3.9055 6.6964,4.4045 12.745,6.0477z"/>
<path fill="#bababa" d="m55.421,93.553c5.0124-5.0064 11.235-10.605 19.112-13.836-.1972-5.7259 0-8.4923 .3944-15.205-4.3813-3.3958-2.8471,10.444-10.846,10.002-9.4125,2.2891-11.098,1.3976-16.991,3.7068-5.3382,2.1731-7.8592,4.757-3.8461,9.2856 4.5829,4.016 6.2116,4.4249 12.177,6.0454z"/>
<path fill="#b6b6b6" d="m55.551,93.345c4.9011-4.9775 11.16-10.58 18.871-13.683-.2081-5.6321 0-8.1401 .4163-14.814-4.3199-3.3483-2.2722,11.395-10.159,10.96-9.2808,2.257-10.695,.9383-16.643,2.9275-5.5299,1.8818-8.2172,4.1973-4.0941,8.5654 4.4225,4.1264 5.7268,4.4453 11.609,6.0431z"/>
<path fill="#b2b2b2" d="m55.682,93.136c4.7897-4.9486 11.085-10.555 18.631-13.53-.2192-5.5382 0-7.7879 .4382-14.422-4.2586-3.3007-1.6974,12.347-9.4721,11.918-9.149,2.225-10.292,.4792-16.296,2.1483-5.7216,1.5905-8.5751,3.6375-4.342,7.8453 4.2622,4.2367 5.242,4.4656 11.04,6.0408z"/>
</g>
<g transform="matrix(2.1398 0 0 2.1398 -38.513 516.13)">
<path d="m180.23-233.49c6.998,1.9461 10.458,5.281 12.645,9.1158-5.5818-1.0768-24.316,5.2019-27.153,8.922-7.0178-5.7618-17.152-8.0784-28.617-8.922 2.5725-3.5959 5.924-6.8023 10.914-9.189 10.928-2.5022 21.656-2.3634 32.211,.0733z"/>
<path d="m92.588-148.24c-3.8178-2.0062-10.582-6.4275-8.8656-16.837 2.5605-12.087 6.1616-20.129 11.68-31.07 3.8749-2.7472 6.9125-4.9175 13.02-6.3665-1.5379,9.4072-2.1293,18.733 .76,27.759-8.6051,6.6386-12.738,16.478-16.595,26.514z"/>
<path d="m136.82-167.59c8.6816-7.6429 17.646-15.038 28.895-20.436 12.216,5.2014 21.842,13.087 29.909,20.953-2.9899,11.985-6.718,23.379-11.406,34.404-12.335,1.8888-24.536,2.2825-36.499,0-6.2149-11.71-10.12-23.404-10.899-34.921z"/>
</g>
<g transform="matrix(2.67475 0 0 2.67475 113.1924 -101.00972)">
<path d="m58.842,116.72c1.4284-2 3.0205,4.724 6.7203,5.063 4.7532,.437 17.242,.193 22.157-.256 1.9164-.175 3.1021-5.352 4.7235-7.213-.9974,4.008-1.3515,6.174-2.3327,9.599-8.1911,.545-19.096,.879-27.04,.22-2.2032-2.887-3.7107-4.091-4.228-7.413z"/>
<path fill="#141414" d="m59.226,117.05c1.419-1.138 2.965,4.595 6.0818,4.909 4.4413,.518 17.674,.289 22.566-.278 1.7054-.177 2.7589-4.673 4.2659-6.633-1.0078,3.947-1.2844,5.699-2.2006,8.684-6.7559,.544-20.083,.755-26.59,.192-1.9141-2.346-3.3674-3.588-4.124-6.874z"/>
<path fill="#282828" d="m59.611,117.38c1.4095-.275 2.9095,4.467 5.4432,4.754 4.1295,.601 18.106,.385 22.976-.299 1.4944-.179 2.4156-3.995 3.8083-6.053-1.0182,3.886-1.2174,5.225-2.0686,7.768-5.3206,.544-21.07,.632-26.139,.165-1.625-1.805-3.0242-3.086-4.0199-6.335z"/>
<path fill="#3d3d3d" d="m59.996,117.71c1.4001,.587 2.854,4.339 4.8046,4.6 3.8178,.682 18.537,.481 23.386-.321 1.2833-.181 2.0724-3.317 3.3507-5.472-1.0286,3.824-1.1502,4.749-1.9365,6.851-3.8854,.545-22.056,.509-25.689,.137-1.3359-1.263-2.681-2.583-3.9159-5.795z"/>
<path fill="#515151" d="m60.381,118.04c1.3906,1.45 2.7985,4.211 4.1661,4.445 3.506,.764 18.969,.578 23.796-.342 1.0723-.184 1.7292-2.638 2.8931-4.892-1.039,3.763-1.0832,4.275-1.8044,5.935-2.4502,.545-23.044,.386-25.239,.11-1.0468-.721-2.3378-2.081-3.8119-5.256z"/>
<path fill="#666" d="m60.766,118.37c1.3812,2.312 2.7431,4.083 3.5276,4.291 3.1941,.846 19.401,.674 24.205-.364 .8613-.186 1.386-1.96 2.4355-4.312-1.0494,3.702-1.0161,3.8-1.6724,5.019-1.0149,.545-24.03,.263-24.788,.083-.7577-.18-1.9946-1.579-3.7079-4.717z"/>
<path fill="#7f7f7f" d="m76.028,82.068c3.8811,1.7458-9.7644,6.136-22.066,14.76 5.9984-5.1506 17.059-12.484 22.066-14.76z"/>
<path fill="#999" d="m76,82.088c3.4731,1.5538-10.073,6.2791-21.3,14.15 5.5136-4.6513 16.7-12.033 21.3-14.15z"/>
<path fill="#b2b2b2" d="m75.972,82.107c3.065,1.3619-10.382,6.4223-20.533,13.539 5.0289-4.152 16.342-11.582 20.533-13.539z"/>
<path fill="#ccc" d="m75.944,82.127c2.6569,1.1699-10.69,6.5654-19.767,12.929 4.544-3.6527 15.984-11.131 19.767-12.929z"/>
<path fill="#e5e5e5" d="m75.916,82.147c2.2488,.978-10.999,6.7086-19,12.318 4.0593-3.1534 15.625-10.68 19-12.318z"/>
<path fill="#fff" d="m75.888,82.166c1.8408,.786-11.307,6.8518-18.234,11.708 3.5745-2.654 15.267-10.229 18.234-11.708z"/>
<path fill="#7f7f7f" d="m74.768,54.019c1.0146,2.0605-8.2028-2.6533-18.91-4.0547 6.3941-.6903 15.327,2.5679 18.91,4.0547z"/>
<path fill="#999" d="m74.724,54.038c.9124,1.8412-8.3288-2.7072-18.324-4.0209 5.7796-.5925 15.037,2.6054 18.324,4.0209z"/>
<path fill="#b2b2b2" d="m74.68,54.056c.8102,1.622-8.4547-2.7609-17.739-3.987 5.1651-.4947 14.747,2.6429 17.739,3.987z"/>
<path fill="#ccc" d="m74.636,54.075c.7079,1.4028-8.5807-2.8148-17.154-3.9533 4.5506-.3968 14.457,2.6805 17.154,3.9533z"/>
<path fill="#e5e5e5" d="m74.592,54.094c.6057,1.1835-8.7066-2.8686-16.569-3.9195 3.936-.299 14.167,2.718 16.569,3.9195z"/>
<path fill="#fff" d="m74.548,54.112c.5035,.9643-8.8325-2.9224-15.984-3.8856 3.3215-.2012 13.877,2.7555 15.984,3.8856z"/>
<path fill="#7f7f7f" d="m27.619,72.172c1.7392-1.5-.5059,8.6065 .8296,19.322-2.2757-6.0153-1.368-15.48-.8296-19.322z"/>
<path fill="#999" d="m27.648,72.209c1.5527-1.3459-.5263,8.7419 .7152,18.747-2.0265-5.445-1.2587-15.209-.7152-18.747z"/>
<path fill="#b2b2b2" d="m27.677,72.247c1.366-1.192-.547,8.877 .601,18.172-1.778-4.875-1.15-14.938-.601-18.172z"/>
<path fill="#ccc" d="m27.706,72.285c1.1798-1.0379-.5671,9.0127 .4865,17.597-1.5282-4.3047-1.0403-14.667-.4865-17.597z"/>
<path fill="#e5e5e5" d="m27.735,72.323c.9932-.8838-.5875,9.1481 .372,17.022-1.2789-3.7344-.9309-14.395-.372-17.022z"/>
<path fill="#fff" d="m27.764,72.361c.8067-.7298-.6079,9.2835 .2576,16.447-1.0297-3.1643-.8217-14.124-.2576-16.447z"/>
</g>
</g>
<g transform="matrix(.98791 0 0 .98791 15.3 529.64)">
<path d="m247.8-89.742c-1.286-.8509-4.3895-6.6378-4.3895-8.185 0-.6592 3.5337-1.0497 9.5-1.0497h9.5v2.9274c0,4.0499-4.0257,7.0772-9.3849,7.0573-2.2633-.008-4.6148-.3459-5.2256-.75z"/>
<path d="m207.23-94.711c-3.1705-.4544-4.8318-2.2492-6.4566-6.9754-1.1431-3.325-1.1004-3.4529 .9689-2.9042 1.1905,.3157 5.4271,1.3033 9.4146,2.1947s7.25,1.9757 7.25,2.4096c0,.4339-.7875,1.6912-1.75,2.7941-1.9142,2.1935-5.2707,3.0769-9.4268,2.4812z"/>
<path d="m294.31-95.726c-1.91-2.379-4.1159-6.376-3.7243-6.7482 .3207-.3048 16.889-3.5018 18.147-3.5018 .3696,0 .6721,1.8066 .6721,4.0147 0,3.4563-.4521,4.2903-3.25,5.9963-4.0813,2.4884-9.9441,2.6067-11.845,.239z"/>
<path d="m342.52-109.86c-1.1639-1.1639-2.1161-2.4993-2.1161-2.9677 0-.4684 3.0375-1.6574 6.75-2.6423 3.7125-.9849 7.5375-2.1925 8.5-2.6836 1.504-.7674 1.75-.3991 1.75,2.6192 0,4.1638-2.7858,6.4516-8.8458,7.2644-3.1103,.4172-4.3599,.0881-6.0381-1.59z"/>
<path d="m71.062-131.24c-1.5131-1.1064-5.0639-12.664-4.1664-13.561 .1868-.1868 3.8655,.2001 8.1749,.8598 4.3094,.6597 9.1853,1.2818 10.835,1.3826 2.8489,.1739 2.9857,.382 2.7161,4.1319-.413,5.7444-3.7999,8.4488-10.581,8.4488-2.8892,0-6.0298-.5679-6.9791-1.2621z"/>
<path d="m24.563-143.01c-4.4869-1.0077-5.0422-1.7204-6.6787-8.5724-1.8398-7.7033-1.845-7.661 .7713-6.25 1.2375,.6674 6.075,2.4578 10.75,3.9787 7.6382,2.4849 8.4715,2.9992 8.2191,5.0718-.5828,4.7854-6.2681,7.2976-13.062,5.7719z"/>
</g>
<g transform="translate(-523 315.45)">
<path fill="url(#linearGradient3606)" d="m533.01,25.68c1.7043,5.6658 2.6393,12.181 6.7866,16.401 10.949,11.14 27.987,14.291 42.982,18.663 16.127,4.7021 33.417,4.0695 49.768,7.9177 20.197,4.7533 39.774,11.881 59.383,18.663 15.618,5.4017 30.347,13.507 46.375,17.532 18.257,4.584 37.195,8.3904 55.989,7.3522 33.92-1.8739 66.854-13.249 98.971-24.319 11.727-4.0415 24.292-7.4663 33.933-15.27 8.177-6.6185 16.971-15.067 18.663-25.45 .7958-4.8839-2.0903-9.8305-4.5244-14.139-3.95-6.978-9.17-13.658-15.84-18.097-8.44-5.6117-19.23-6.4093-28.84-9.6141-7.92-2.6392-15.64-5.9808-23.76-7.9177-16.31-3.8918-33.78-2.2757-49.76-7.3522-50.55-16.053-89.72-62.686-141.96-71.825-19.831-3.4694-39.832,8.1674-59.948,7.3522-13.077-.53-27.378-.9502-38.457-7.9177-8.4262-5.2991-8.7279-20.393-18.098-23.753-3.0991-1.1113-6.8954,.4057-9.6144,2.2622-5.4846,3.7447-8.7751,10.263-11.311,16.401-8.0483,19.48-8.2602,41.356-11.311,62.211-1.4826,10.135-3.81,20.306-3.3933,30.54 .2813,6.908 1.9673,13.739 3.9588,20.36z"/>
</g>
<g fill="#e6e6e6" transform="matrix(.98791 0 0 .98791 21.65 536.98)">
<path d="m202.72-141.6c3.9535-4.1926 9.3257-9.8476 11.938-12.567 2.6125-2.719 4.75-5.3637 4.75-5.8771 0-.5133 .675-.9333 1.5-.9333s1.5-.4652 1.5-1.0337c0-.5685 1.35-2.3534 3-3.9663s3-3.3978 3-3.9663c0-.5685 .675-1.0337 1.5-1.0337s1.5-.4618 1.5-1.0263c0-.5645 2.025-3.0513 4.5-5.5263s4.5-4.7802 4.5-5.1227c0-.3425 1.575-2.1523 3.5-4.0218s3.4992-3.94 3.4981-4.601c-.001-.943-14.447-6.8844-20.709-8.5176-1.3416-.3499-10.289,8.1631-10.289,9.7894 0,.5645-.675,1.0263-1.5,1.0263s-1.5,.4652-1.5,1.0337c0,.5685-1.35,2.3534-3,3.9663s-3,3.3978-3,3.9663c0,.5685-.675,1.0337-1.5,1.0337s-1.5,.4193-1.5,.9317c0,.5125-2.5875,3.5996-5.75,6.8603s-8.9,9.4233-12.75,13.695c-3.85,4.2713-8.0602,8.8615-9.3561,10.2-1.2958,1.3388-2.1958,2.5537-2,2.6997 .1958,.146 3.1804,1.7095 6.6323,3.4744s7.7269,4.0612 9.5,5.103c1.7731,1.0417 3.5891,1.926 4.0355,1.965 .4465,.039 4.0465-3.3594 8-7.552z"/>
<path d="m160.16-154.92c2.0619-2.1664 6.4489-6.9586 9.7489-10.649 3.3-3.6907 8.1375-8.9231 10.75-11.628 2.6125-2.7046 4.75-5.0611 4.75-5.2368s2.7-3.122 6-6.5472c3.3-3.4253 6-6.6265 6-7.1139 0-.4874 .675-.8861 1.5-.8861s1.5-.4505 1.5-1.0011c0-.5506 1.8648-2.8108 4.144-5.0227s3.9667-4.1891 3.75-4.3938c-.2167-.2047-3.1924-1.5443-6.6127-2.9768s-7.8215-3.5048-9.7804-4.6051-3.9485-2.0005-4.4212-2.0005c-.8865,0-12.08,10.671-12.08,11.516 0,.2606-2.1375,2.6875-4.75,5.3931s-8.125,8.6118-12.25,13.125c-4.125,4.5131-11.85,12.68-17.167,18.149-7.6623,7.8816-9.3212,10.08-8,10.602 4.028,1.5904 20.784,7.0336 21.918,7.12 .6881,.0524 2.9381-1.6772 5-3.8437z"/>
<path d="m126.41-178.09c11.204-11.317 13.634-13.924 26.372-28.299 3.3703-3.803 8.1528-8.9885 10.628-11.523 7.9981-8.1913 8.1763-7.1285-2.2537-13.439-5.1118-3.0927-9.9908-5.6232-10.842-5.6232-.8515,0-3.0907,1.8519-4.9761,4.1153s-5.453,6.253-7.928,8.8656c-2.475,2.6127-5.625,6.1024-7,7.7549-10.307,12.387-23.147,25.798-35.416,36.993l-5.7309,5.2286 3.8236,1.5582c2.103,.857 7.1986,3.0661 11.324,4.9091 5.8652,2.6205 7.827,3.1029 9,2.2131 .825-.6258 6.675-6.365 13-12.754z"/>
</g>
<g transform="translate(-523 315.45)">
<path d="m562.25-106.46c-1.6594,.0297-3.373,.5623-4.9396,1.3275h-.0308l-6.4832,8.4281s.1178,27.183 3.9825,40.01c3.1308,10.391 7.5769,21.038 15.189,28.773 6.6116,6.7181 15.861,10.596 24.79,13.615 8.4297,2.8496 17.734,6.0217 26.396,3.9825 20.303-4.7801 32.971-25.835 51.186-35.997 8.8657-4.9458 28.001-11.978 28.001-11.978l5.3409-16.331c-7.8912-3.1655-16.038-5.6489-24.513-7.1315-19.831-3.4694-39.807,8.1629-59.923,7.3476-13.077-.53-27.388-.9667-38.467-7.9342-8.4262-5.2991-8.7214-20.381-18.091-23.741-.7748-.2778-1.6047-.3854-2.4389-.3705z"/>
<path fill="#e6e6e6" d="m562.25-106.46c-2.5026,.0448-5.154,1.2318-7.1932,2.6241-1.9842,1.3547-3.6776,3.0699-5.1557,5.0013-.054,.0706-.1009,.1449-.1544,.2161l-1.6671,2.4698c-1.7189,2.7678-3.1075,5.7972-4.3221,8.7368-5.9382,14.373-7.5985,30.051-9.2926,45.66l8.6134,6.3597 11.33,14.139 10.466,10.466s7.8574,4.9051 12.164,4.5073c3.2837-.3033 5.4695-3.702 8.459-5.0939 2.8914-1.3463 9.0456-3.1181 9.0456-3.1181s-20.022-8.9963-27.137-16.949c-6.9713-7.7921-10.953-18.16-13.584-28.279-2.3285-8.9569-3.6905-18.693-1.6671-27.723 1.1992-5.3524 2.8767-12.222 7.9033-14.417 3.5745-1.5612 10.676,2.179 11.948,2.8711-.0679-.1198-.1163-.2522-.1852-.3705l-7.9342-6.9463c-.5314-.1137-1.0828-.1643-1.6362-.1544z"/>
<path fill="#ccc" d="m530.11,14.122c.3832,6.6031 1.9844,13.115 3.8899,19.45 1.7043,5.6658 2.6446,12.204 6.7919,16.424 10.949,11.14 27.979,14.275 42.974,18.647 16.127,4.7021 33.415,4.0859 49.766,7.9342 20.197,4.7533 39.758,11.865 59.367,18.647 15.618,5.4017 30.372,13.511 46.401,17.535 18.257,4.584 37.177,8.3859 55.971,7.3476 33.92-1.8739 66.859-13.258 98.976-24.327 11.727-4.0415 24.288-7.4473 33.929-15.251 8.177-6.6185 16.986-15.087 18.678-25.47 .4049-2.4851-.1544-4.9533-1.1114-7.3785-1.8978,10.142-10.516,18.439-18.554,24.945-9.6411,7.8036-22.202,11.209-33.929,15.251-32.118,11.069-65.056,22.453-98.976,24.327-18.795,1.0383-37.715-2.7635-55.971-7.3476-16.029-4.0246-30.783-12.134-46.401-17.535-19.609-6.7819-39.17-13.894-59.367-18.647-16.351-3.8482-33.639-3.2321-49.766-7.9342-14.995-4.3722-32.025-7.5069-42.974-18.647-4.1473-4.2197-5.0876-10.758-6.7919-16.424-1.1396-3.7885-2.1684-7.645-2.902-11.546z"/>
<path fill="url(#linearGradient3604)" d="m598.57-59.666c-1.2478,5.7372-.8973,12.265 1.6966,17.532 3.5355,7.1792 10.615,12.377 17.532,16.401 7.6796,4.4671 25.45,7.9177 25.45,7.9177l37.892-23.188 177.58,75.784s7.4752-8.596 8.578-13.939c1.6308-7.9019-3.488-23.953-3.488-23.953l-142.51-57.686s-19.979-20.475-31.105-29.409c-15.982-12.832-50.9-34.499-50.9-34.499s-8.4783,16.558-13.573,24.319c-4.4284,6.7451-10.223,12.519-14.704,19.229-4.5972,6.8836-10.683,13.402-12.442,21.491z"/>
<path fill="url(#linearGradient3602)" d="m588.02-18.495s20.866,9.3117 31.259,5.9182c36.954-12.065 29.33-23.557 46.387-30.94 5.6412-2.4416 11.867-4.994 17.96-4.1813 5.518,.736 14.704,7.9177 14.704,7.9177s-26.228,24.536-40.72,35.064c-9.9919,7.259-19.897,15.499-31.671,19.229-14.92,4.7266-46.844,3.1875-46.844,3.1875l-19.9-12.237z"/>
<path fill="url(#radialGradient3600)" d="m534.71-44.072c-.6891,6.3193-1.3426,12.635-2.2537,18.863-1.4826,10.135-3.8127,20.299-3.396,30.533 .2813,6.908 1.9601,13.724 3.9516,20.345 1.7043,5.6658 2.6446,12.204 6.7919,16.424 10.949,11.14 27.979,14.275 42.974,18.647 16.127,4.7021 33.415,4.0859 49.766,7.9342 20.197,4.7533 39.758,11.865 59.367,18.647 15.618,5.4017 30.372,13.511 46.401,17.535 5.2201,1.3107 10.494,2.5544 15.807,3.6429-3.52-5.97-9.14-14.654-14.05-18.638-11.47-9.313-26.98-12.081-40.72-17.536-19.95-7.924-42.07-11.045-60.51-22.042-21.21-12.654-35.18-38.781-55.41-49.211-13.77-7.0993-23.74-27.347-37.91-38.436-2.7376-2.1418-7.3182-4.7963-10.805-6.6993z"/>
<path fill="url(#linearGradient3598)" d="m654.88-34.637s23.339,17.573 35.991,24.794c20.927,11.943 43.401,20.987 65.584,30.393 18.415,7.8085 36.179,18.809 55.987,21.595 11.927,1.6776 24.765,1.1647 35.991-3.1992 5.3179-2.0672 13.597-10.398 13.597-10.398s-74.62-25.236-110.37-41.59c-22.348-10.222-40.966-29.14-64.785-35.192-5.1679-1.313-10.992-1.8396-15.996,0-6.5683,2.4144-15.996,13.597-15.996,13.597z"/>
<path d="m755.37-86.647c0,2.2132-2.2427,4.0073-5.0091,4.0073-2.7665,0-5.0091-1.7941-5.0091-4.0073s2.2427-4.0073 5.0091-4.0073c2.7665,0 5.0091,1.7941 5.0091,4.0073z" transform="matrix(.95136 .26624 -.26624 .95136 -37.332 -144.58)"/>
<path fill="#1a1a1a" d="m698.22-28.864 2.8278-10.745 23.753-26.581h7.3522l5.6555,5.6555-.5656,2.2622-7.9177,2.8278-15.835,18.098-6.2211,7.0694-5.3727,3.6761z"/>
<path d="m755.37-86.647c0,2.2132-2.2427,4.0073-5.0091,4.0073-2.7665,0-5.0091-1.7941-5.0091-4.0073s2.2427-4.0073 5.0091-4.0073c2.7665,0 5.0091,1.7941 5.0091,4.0073z" transform="matrix(.95136 .26624 -.26624 .95136 -12.165 -134.26)"/>
<path fill="#1a1a1a" d="m723.1-18.538 2.5046-10.055 21.038-24.872h6.5119l5.0092,5.2919-.5009,2.1168-6.0249,3.6339-14.026,16.934-5.5101,6.6149-5.7466,2.4518z"/>
<path d="m755.37-86.647c0,2.2132-2.2427,4.0073-5.0091,4.0073-2.7665,0-5.0091-1.7941-5.0091-4.0073s2.2427-4.0073 5.0091-4.0073c2.7665,0 5.0091,1.7941 5.0091,4.0073z" transform="matrix(.95136 .26624 -.26624 .95136 8.195 -125.92)"/>
<path d="m755.37-86.647c0,2.2132-2.2427,4.0073-5.0091,4.0073-2.7665,0-5.0091-1.7941-5.0091-4.0073s2.2427-4.0073 5.0091-4.0073c2.7665,0 5.0091,1.7941 5.0091,4.0073z" transform="matrix(.95136 .26624 -.26624 .95136 35.059 -112.2)"/>
<path d="m755.37-86.647c0,2.2132-2.2427,4.0073-5.0091,4.0073-2.7665,0-5.0091-1.7941-5.0091-4.0073s2.2427-4.0073 5.0091-4.0073c2.7665,0 5.0091,1.7941 5.0091,4.0073z" transform="matrix(.95136 .26624 -.26624 .95136 57.963 -103.29)"/>
<path d="m755.37-86.647c0,2.2132-2.2427,4.0073-5.0091,4.0073-2.7665,0-5.0091-1.7941-5.0091-4.0073s2.2427-4.0073 5.0091-4.0073c2.7665,0 5.0091,1.7941 5.0091,4.0073z" transform="matrix(.95136 .26624 -.26624 .95136 84.544 -94.811)"/>
<path d="m755.37-86.647c0,2.2132-2.2427,4.0073-5.0091,4.0073-2.7665,0-5.0091-1.7941-5.0091-4.0073s2.2427-4.0073 5.0091-4.0073c2.7665,0 5.0091,1.7941 5.0091,4.0073z" transform="matrix(.95136 .26624 -.26624 .95136 111.13 -85.197)"/>
</g>
<g fill="#1a1a1a" transform="matrix(.98791 0 0 .98791 18.98 86.23)">
<path d="m203.83,221.27 2.5352-10.178 21.296-25.176h6.5916l5.0704,5.3567-.507,2.1427-6.0986,3.6784-14.197,17.141-5.5775,6.6959-5.8169,2.4818z"/>
<path d="m230.6,236.91 1.5551-11.426 19.985-30.02 7.0802-.7702 6.0611,5.2653-.2987,2.4024-6.1285,4.735-13.282,20.404-5.2225,7.9739-5.9633,3.3937z"/>
<path d="m253.21,245.78 1.5551-11.426 19.985-30.02 7.0802-.7702 6.0611,5.2653-.2987,2.4024-6.1285,4.735-13.282,20.404-5.2225,7.9739-5.9633,3.3937z"/>
<path d="m280.69,255.08 1.3754-10.612 17.676-27.88 6.2621-.7153 5.3608,4.89-.2642,2.2311-5.4204,4.3975-11.748,18.949-4.619,7.4055-5.2742,3.1518z"/>
<path d="m307.88,264.57 1.2856-10.389 16.521-27.296 5.8531-.7003 5.0106,4.7876-.247,2.1844-5.0663,4.3055-10.98,18.553-4.3173,7.2505-4.9297,3.0858z"/>
</g>
<g fill="#808080" transform="matrix(.98791 0 0 .98791 21.65 536.98)">
<path fill="url(#linearGradient3594)" d="m165.25,303.5c-.2067,.1291-.4502,.3214-.7812,.5938-.7676,.6315-1.7376,1.5659-2.5938,2.5938-1.9456,2.3358-5.5133,6.3108-8.0312,8.9688-2.4442,2.5802-5.6152,6.1046-6.9062,7.6562-10.381,12.476-23.273,25.949-35.625,37.219l-3.1562,2.875 .5938,.25a2.1992,2.1992 0 0,1 .0312,0c2.1773,.8873 7.2323,3.0866 11.375,4.9375 2.8957,1.2937 4.7926,2.014 5.875,2.2812 1.0824,.2673 .913,.1587 .875,.1875-.0854,.0648 .563-.475 1.3125-1.1875s1.7646-1.6935 2.9375-2.8438c2.3458-2.3004 5.3758-5.3439 8.5312-8.5312 11.196-11.309 13.547-13.849 26.281-28.219 3.3996-3.8362 8.1898-8.9725 10.719-11.562 2.0191-2.0678 3.5213-3.5588 4.375-4.5625 .8537-1.0037 .7637-1.2608 .8125-.9688 .0488,.292-.0653-.1499-1.25-.9688s-3.1215-1.941-5.75-3.5312c-2.5181-1.5235-4.9983-2.9164-6.9062-3.9062-.954-.4949-1.7619-.872-2.3438-1.125-.1655-.072-.2549-.1096-.375-.1562zm37.375,20.094c-.3089,.2414-.6598,.5359-1.125,.9375-1.1287,.9744-2.5991,2.3221-4.0312,3.6875-1.4322,1.3654-2.8535,2.7682-3.875,3.8438-.5107,.5378-.9073,.9797-1.1562,1.2812-.1245,.1508-.211,.2695-.2188,.2812-.0116,.019-.0219,.1062-.0312,.125-.0792,.1597-.1259,.2498-.1875,.3438-.1232,.1879-.2636,.3492-.4062,.5312-.2854,.3641-.6471,.8036-1.0938,1.3125-.8934,1.0178-2.0787,2.3126-3.4062,3.6875-2.5754,2.6672-8.1074,8.5643-12.219,13.062-4.154,4.5448-11.88,12.727-17.219,18.219-3.7122,3.8185-5.9052,6.2046-7,7.625 2.3568,.8629 6.0502,2.133 10.156,3.4688 2.4065,.7828 4.728,1.5209 6.5,2.0625 .886,.2708 1.6432,.5043 2.1875,.6562 .2841,.0793 .1819,.0607 .3438,.0937 .1998-.1196 .4718-.3006 .8125-.5625 .7891-.6066 1.793-1.5257 2.75-2.5312 2.018-2.1203 6.433-6.919 9.7188-10.594 3.3237-3.7172 8.127-8.9397 10.781-11.688 1.2915-1.337 2.4748-2.6044 3.3125-3.5312 .4189-.4634 .761-.8447 .9688-1.0938 .0795-.0952 .1255-.1165 .1562-.1562 .0188-.0318-.008-.0194 0-.0312 .0297-.0523 .0707-.1205 .0937-.1562 .0813-.1262 .1253-.2009 .1875-.2812 .1245-.1607 .2713-.3388 .4375-.5312 .3324-.385 .7911-.8678 1.3438-1.4688 1.1052-1.202 2.5905-2.8088 4.25-4.5312 1.6196-1.6811 3.113-3.3229 4.1562-4.5625 .5216-.6198 .9382-1.1225 1.1875-1.4688 .1246-.1731 .2031-.3163 .2188-.3438 .0156-.0275-.1562-.1731-.1562,.7812 0-1.2589 .8381-2.1288 1.5312-2.5312 .5323-.309 1.0896-.3487 1.6562-.4062 .1396-.3438 .3041-.5876 .4688-.8438 .2814-.4379 .623-.8759 1.0312-1.375 .8165-.9982 1.8974-2.1515 3.0938-3.3125 .7904-.7671 1.338-1.4072 1.9062-2.0312-1.1322-.5057-2.5105-1.1-4.0625-1.75-3.4934-1.4631-7.837-3.5038-10-4.7188-.9232-.5185-1.894-.9835-2.625-1.3125-.1827-.0822-.2883-.1261-.4375-.1875zm38.906,17.125c-.2246,.1368-.4795,.2881-.8438,.5625-.9216,.6943-2.1271,1.7458-3.2812,2.8438s-2.2822,2.2604-3.0625,3.1875c-.3902,.4635-.6812,.87-.8438,1.125s-.0625,.5228-.0625-.2812c0,1.1588-.6767,2.0503-1.375,2.5312-.584,.4022-1.2592,.5034-1.9375,.5625-.0878,.1771-.097,.5254-.1875,.6875-.2274,.4071-.4986,.7721-.8125,1.1875-.6279,.8308-1.4428,1.7443-2.3438,2.625-.749,.7322-1.4466,1.5168-1.9062,2.125-.2298,.3041-.3915,.5804-.4688,.7188-.0773,.1383 .0312,.2906 .0312-.4375 0,1.1546-.6746,2.0502-1.375,2.5312-.5857,.4023-1.2614,.5041-1.9375,.5625-.0266,.0383-.0398,.1773-.0625,.2188-.1423,.2593-.2935,.4704-.4688,.7188-.3505,.4967-.7986,1.0665-1.3438,1.7188-1.0902,1.3046-2.541,2.9284-4.1562,4.5938-3.125,3.222-8.8928,9.3803-12.719,13.625-3.8595,4.2819-8.0194,8.8484-9.4062,10.281-.1524,.1574-.2056,.2554-.3438,.4062 1.189,.6179 2.7306,1.3933 4.4062,2.25 3.4824,1.7804 7.7329,4.0446 9.625,5.1562 .8398,.4934 1.6778,.9556 2.3438,1.2812 .1145,.056 .1798,.0778 .2812,.125 .3848-.3234 .8562-.7364 1.4688-1.3125 1.4044-1.3207 3.2683-3.1816 5.2188-5.25 3.959-4.1984 9.3138-9.863 11.938-12.594 1.2672-1.3189 2.4433-2.6274 3.25-3.625 .4033-.4988 .6965-.9194 .875-1.1875 .0892-.1341 .1568-.2199 .1562-.2188-.0006,.001-.125-.0114-.125,.6875 0-1.2205 .7742-2.0964 1.4688-2.5312 .5777-.3617 1.2004-.4487 1.8438-.5 .0851-.167 .1008-.501 .1875-.6562 .2274-.4071 .4986-.7721 .8125-1.1875 .6279-.8308 1.4428-1.7443 2.3438-2.625 .749-.7322 1.4466-1.5168 1.9062-2.125 .2298-.3041 .3915-.5804 .4688-.7188 .0773-.1383-.0312-.2906-.0312,.4375 0-1.1546 .6746-2.0502 1.375-2.5312 .5596-.3844 1.2008-.4937 1.8438-.5625 .0243-.0486 .0403-.1719 .0625-.2188 .1252-.264 .2573-.4583 .4062-.6875 .2979-.4584 .6852-.9593 1.125-1.5 .8795-1.0815 2.0261-2.3699 3.3125-3.6562 1.2079-1.2079 2.3224-2.3714 3.0938-3.25 .3857-.4393 .6719-.8033 .8438-1.0312 .0859-.114 .1638-.2001 .1562-.1875 .0414-.0658 .0614-.2842 .0937-.3438 .117-.2153 .253-.3611 .375-.5312 .244-.3403 .5297-.6957 .875-1.0938 .6906-.7962 1.5905-1.7444 2.5938-2.7188 .8237-.8 1.5487-1.649 2.0938-2.3438-.1549-.0795-.1998-.1327-.375-.2188-1.3778-.6764-3.3638-1.5487-5.5312-2.4375-4.1366-1.6963-8.9117-3.3694-11.875-4.1875z" transform="translate(-14.841 -538.15)"/>
</g>
</svg>
