<svg xmlns="http://www.w3.org/2000/svg" viewBox="0 0 304.62 195.41" xmlns:xlink="http://www.w3.org/1999/xlink">
<defs>
<filter width="1.206" x="-.103" y="-.106" height="1.211" color-interpolation-filters="sRGB" id="filter3834">
<feGaussianBlur stdDeviation="3.13437"/>
</filter>
<filter color-interpolation-filters="sRGB" id="filter3868">
<feGaussianBlur stdDeviation="1.37491"/>
</filter>
<filter color-interpolation-filters="sRGB" id="filter3876">
<feGaussianBlur stdDeviation="1.11468"/>
</filter>
<linearGradient id="linearGradient3854" y1="95.748" y2="121.51" x1="511.64" gradientUnits="userSpaceOnUse" x2="180.31">
<stop offset="0" stop-color="#706969"/>
<stop offset=".835" stop-color="#fff"/>
<stop offset="1" stop-color="#767676"/>
</linearGradient>
<linearGradient id="linearGradient3864" y1="235.22" y2="221.65" x1="298.57" gradientUnits="userSpaceOnUse" x2="506.43">
<stop offset="0" stop-color="#4f4f06"/>
<stop offset=".723" stop-color="#fff"/>
<stop offset="1" stop-color="#808000"/>
</linearGradient>
<radialGradient cx="259.3" cy="49.768" gradientTransform="matrix(1.5963 .03096 -.0415 .71497 -170.3 39.793)" id="radialGradient3798" r="133.15" gradientUnits="userSpaceOnUse">
<stop offset="0" stop-color="#7b7b7b"/>
<stop offset="1" stop-color="#520"/>
</radialGradient>
</defs>
<g transform="translate(-230.89 -30.97)">
<path fill="url(#radialGradient3798)" stroke="#000" stroke-linejoin="round" stroke-linecap="round" stroke-width=".404" d="m462.14,87.362c0,14.202-59.482,25.714-132.86,25.714-73.375,0-132.86-11.513-132.86-25.714 0-14.202 59.482-25.714 132.86-25.714 73.375,0 132.86,11.513 132.86,25.714z" transform="matrix(1.0583 0 0 1.4438 35.487 -33.409)"/>
</g>
<g fill="none" stroke="#000" stroke-linecap="round">
<g stroke-width="1.358" transform="matrix(.82905 0 0 .65379 -103.07 9.949)">
<path d="m130,62.362c8.6632,75.767 83.389,126.51 102.14,192.14"/>
<path d="m485.71,62.362c-8.66,75.768-83.39,126.51-102.14,192.15"/>
</g>
<g transform="translate(-230.89 -30.97)">
<path d="m320.29,207.32c62.79,33.039 125.46,.1683 125.46,.1683"/>
<path stroke-linejoin="round" stroke-width=".712" d="m462.14,87.362c0,14.202-59.482,25.714-132.86,25.714-73.375,0-132.86-11.513-132.86-25.714 0-14.202 59.482-25.714 132.86-25.714 73.375,0 132.86,11.513 132.86,25.714z" transform="matrix(1.1096 0 0 1.7797 17.72 -74.201)"/>
</g>
</g>
<g transform="translate(-230.89 -30.97)">
<path fill="url(#linearGradient3864)" filter="url(#filter3868)" d="m527.29,120.22c-5.4264,11.735-26.465,26.579-40.001,31.942-48.766,21.815-103.54,25.981-156.34,24.106-45.857-2.8887-93.774-9.7303-133.26-34.798-5.5319-3.065-15.008-12.769-20.357-21.071 4.4392,24.291 18.953,48.004 28.795,62.768 24.282,37.788 56.126,71.637 71.518,114.42 16.213,12.475 36.961,18.901 57.054,22.098 24.802,2.0263 49.837-1.5427 72.723-11.473 9.2398-4.076 21.591-7.1889 23.304-18.973 22.747-56.677 72.302-96.579 92.634-154.55 .8573-1.6629 3.3063-10.665 3.9286-14.464z" transform="matrix(.82905 0 0 .65379 90.974 11.86)"/>
<path fill="none" filter="url(#filter3834)" stroke="#fff" stroke-width=".695" d="m347.49,128.07c1.874-.9116 2.1534,2.0763 1.5152,3.1146-1.7295,2.8139-5.8024,1.9553-7.7445-.0842-3.474-3.6481-2.0075-9.4985 1.6836-12.374 5.4168-4.2204 13.251-2.0795 17.004,3.283 5.0019,7.1474 2.1611,17.025-4.8824,21.634-8.8635,5.7997-20.809,2.2478-26.264-6.4818-6.6062-10.573-2.3375-24.599 8.0812-30.894 12.278-7.418 28.393-2.4291 35.524,9.6806 8.233,13.981 2.522,32.189-11.28,40.154-15.683,9.0502-35.986,2.6158-44.783-12.879-9.869-17.383-2.7102-39.785 14.479-49.413 19.083-10.689 43.585-2.8051 54.043,16.078" transform="matrix(3.1655 0 0 .65379 -715.3 10.539)"/>
<path fill="url(#linearGradient3854)" filter="url(#filter3876)" d="m350.21,36.522c-41.68,.2869-83.764,5.4195-122.88,20.417-17.728,7.1611-35.345,14.855-47.121,32.713-6.8704,10.248-7.9259,23.893 3.4891,37.861-.3439-3.8863-.4474-4.2794-.3638-5.2059 1.295-12.261 11.927-20.624 21.687-26.69 22.53-12.997 48.375-19.028 73.815-23.468 47.344-7.5402 95.847-7.5911 143.29-.8927 27.927,4.232 56.297,10.694 80.871,25.055 9.5709,5.6798 20.956,16.548 20.582,27.858 2.842-4.3184 2.5636-4.6435 3.1432-5.3822 5.1218-10.439 4.377-20.905-4.3901-32.356-11.53-14.64-28.78-22.96-45.7-29.759-33.12-12.606-68.43-17.558-103.65-19.535-8.18-.266-15.29-.767-22.78-.615z" transform="matrix(.82905 0 0 .65379 90.974 11.86)"/>
</g>
</svg>
