<svg xmlns="http://www.w3.org/2000/svg" viewBox="0 0 640 480" xmlns:xlink="http://www.w3.org/1999/xlink">
<defs>
<radialGradient cx="203.93" cy="1358.8" gradientTransform="matrix(-1.4459 1.2339 -1.3256 -1.5534 2389.2 2132.4)" id="radialGradient4205" r="39.451" gradientUnits="userSpaceOnUse">
<stop offset="0" stop-color="#dc0000"/>
<stop offset="1" stop-color="#0e232e"/>
</radialGradient>
<radialGradient cx="215.64" cy="1327.9" gradientTransform="matrix(-1.1997 .12326 -.06678 -.67243 563.01 2195.1)" id="radialGradient4213" r="88.776" gradientUnits="userSpaceOnUse">
<stop offset="0" stop-color="#fff"/>
<stop offset="1" stop-color="#666"/>
</radialGradient>
<radialGradient cx="604.67" cy="1350.5" gradientTransform="matrix(-.84002 .99558 -2.0857 -1.7598 3479.4 1861.6)" id="radialGradient4153" r="122.23" gradientUnits="userSpaceOnUse">
<stop offset="0" stop-color="#fff"/>
<stop offset="1" stop-color="#666"/>
</radialGradient>
<radialGradient cx="279.25" cy="1436" gradientTransform="matrix(-2.6217 -.24841 .45866 -4.8405 408.41 7254.2)" id="radialGradient4509" r="129.24" gradientUnits="userSpaceOnUse">
<stop offset="0" stop-color="#fff"/>
<stop offset="1" stop-color="#ccc"/>
</radialGradient>
<radialGradient cx="444.33" cy="836.94" gradientTransform="matrix(-2.8684 .28684 -.17857 -1.7858 1747.5 1612.2)" id="radialGradient3171" r="10.607" gradientUnits="userSpaceOnUse">
<stop offset="0" stop-color="#2d2d2d"/>
<stop offset="1" stop-color="#b50000"/>
</radialGradient>
</defs>
<path fill="url(#radialGradient4509)" d="m322.87,7.7693c-152.01,0-275.24,113.93-275.24,254.44 0,83.385 43.408,157.41 110.47,203.81h329.56c67.04-46.4 110.45-120.43 110.45-203.81 0-140.51-123.23-254.44-275.24-254.44z"/>
<path opacity=".507" fill="url(#radialGradient4153)" d="m322.01,14.601c-143.78,0-260.28,107.74-260.28,240.65 0,78.868 41.003,148.85 104.43,192.74h311.71c63.425-43.888 104.49-113.87 104.49-192.74 0-132.9-116.57-240.65-260.35-240.65zm0,13.407c134.88,0 244.23,101.05 244.23,225.73 0,73.988-38.507,139.67-98.007,180.85h-292.39c-59.49-41.18-97.995-106.87-97.995-180.85 0-124.68 109.28-225.73 244.16-225.73z"/>
<g fill="#666" stroke="#939393" stroke-width="2.13">
<path d="m157.87,345.16-34.42,16.95"/>
<path d="m137.12,275.93-35.18,.1327"/>
<path d="m147.11,206.33-30.117-9.8649"/>
<path d="m175.97,147.61-24.55-19.99"/>
</g>
<g fill="#2d2d2d">
<g stroke="#6c6c6c">
<g stroke-width="2.13">
<path d="m234.06,108.26-18.11-32.269"/>
<path d="m293.66,84.987-2.15-38.722"/>
<path d="m358.31,89.421 8.8658-38.093"/>
</g>
<g>
<path stroke-width="2.491" d="m424.55,107.58 18.5-26.345"/>
</g>
</g>
<g stroke="#7d7777">
<path stroke-width="2.13" d="m468.65,153.07 32.269-19.361"/>
<path stroke-width="2.118" d="m507.77,205.07 31.92-6.4541"/>
<path stroke-width="2.012" d="m516.13,279.73h30.728"/>
<path stroke-width="2.13" d="m487.01,340.6 23.663,17.211"/>
</g>
</g>
<g fill="#666" stroke="#939393">
<path stroke-width="1.923" d="m138.43,310.48-19.286,4.3023"/>
<path stroke-width="1.708" d="m134.25,237.72h-19.361"/>
<path stroke-width="1.996" d="m155.79,173.49-15.2-9.36"/>
</g>
<g fill="#2d2d2d">
<g>
<path stroke="#666" stroke-width="1.637" d="m199.99,118.65-10.463-12.813"/>
</g>
<g stroke="#6c6c6c">
<path stroke-width="1.708" d="m255.98,91.24-6.9-15.524"/>
<path stroke-width="2.13" d="m327.71,78.084 2.3773-17.18"/>
<path stroke-width="1.708" d="m393.47,89.088 8.6239-15.524"/>
</g>
<g stroke="#7d7777">
<path stroke-width="1.674" d="m452.63,123.05 15.124-13.233"/>
<path stroke-width="2.705" d="m497.93,177.08 14.401-8.2934"/>
<path stroke-width="1.916" d="m518.95,241.64h20.897"/>
<path stroke-width="1.722" d="m505.04,314.71 18.747,8.8819"/>
</g>
</g>
<path opacity=".224" stroke-dasharray="2.04386968,4.0877394" stroke="#000" stroke-linejoin="bevel" fill-opacity="0" stroke-linecap="round" stroke-width="2.044" d="m325.02,72.045c-112.23,0-203.2,84.108-203.2,187.84 0,61.558 32.044,116.21 81.552,150.46h243.29c49.506-34.256 81.55-88.904 81.55-150.46 0-103.73-90.972-187.84-203.2-187.84z"/>
<g fill="url(#radialGradient4213)" transform="matrix(2.15228 0 0 2.05502 -136.12 -2559.2)">
<path d="m143.44,1410.7v-11.202h-1.968v-1.3686l4.0105-.3281v12.899z"/>
<path d="m155.72,1411c-1.3796,0-2.482-.6183-3.3074-1.8551s-1.2381-2.8537-1.2381-4.8508c0-1.9954 .4131-3.6119 1.2392-4.8495 .8261-1.2377 1.9282-1.8565 3.3063-1.8565 1.3813,0 2.4842,.6181 3.3085,1.8543 .8243,1.2363 1.2365,2.8535 1.2365,4.8517 0,1.9946-.4118,3.6109-1.2354,4.8489-.8236,1.238-1.9268,1.857-3.3096,1.857zm0-1.5873c1.6065,0 2.4097-1.7062 2.4097-5.1186 0-3.4121-.8032-5.1181-2.4097-5.1181-1.6011,0-2.4017,1.706-2.4017,5.1181 0,3.4124 .8006,5.1186 2.4017,5.1186z"/>
</g>
<g fill="url(#radialGradient4213)" transform="matrix(2.15228 0 0 2.05502 -136.12 -2559.2)">
<path d="m129.88,1384.3v-1.6587c.4996-1.1676 1.4959-2.4267 2.9887-3.7773l.9505-.8497c1.1808-1.0668 1.7712-2.1208 1.7712-3.1619 0-.6472-.1916-1.1533-.5747-1.5182-.3831-.3649-.9137-.5473-1.5916-.5473-.8217,0-1.8994,.3336-3.2332,1.0008v-1.738c1.2016-.5671 2.3634-.8507 3.4857-.8507 1.2148,0 2.1932,.3312 2.9354,.9936 .7421,.6624 1.1132,1.5349 1.1132,2.6175 0,.7748-.1845,1.4615-.5535,2.0602-.369,.5986-1.048,1.318-2.0369,2.1583l-.639,.5468c-1.2948,1.0979-2.0404,2.0734-2.2366,2.9265h5.4076v1.7981z"/>
<path d="m145.24,1384.7c-1.3795,0-2.482-.6184-3.3074-1.8552-.8254-1.2367-1.2381-2.8537-1.2381-4.8508 0-1.9953 .4131-3.6118 1.2392-4.8495 .8261-1.2376 1.9282-1.8564 3.3063-1.8564 1.3813,0 2.4842,.6181 3.3085,1.8543 .8243,1.2362 1.2365,2.8534 1.2365,4.8516 0,1.9946-.4118,3.611-1.2354,4.849-.8236,1.238-1.9268,1.857-3.3096,1.857zm0-1.5874c1.6065,0 2.4097-1.7062 2.4097-5.1186 0-3.412-.8032-5.118-2.4097-5.118-1.6011,0-2.4017,1.706-2.4017,5.118 0,3.4124 .8006,5.1186 2.4017,5.1186z"/>
</g>
<g fill="url(#radialGradient4213)" transform="matrix(2.15228 0 0 2.05502 -136.12 -2559.2)">
<path d="m133.68,1357.3v-1.8543c1.332,.471 2.3256,.7065 2.9807,.7065 .7502,0 1.3548-.2127 1.8139-.6382 .4591-.4254 .6886-.9854 .6886-1.6798 0-1.6347-1.1621-2.4521-3.4862-2.4521h-.8449v-1.4566l.958-.013c2.0472,.0001 3.0707-.753 3.0707-2.259 0-1.1583-.6996-1.7375-2.0988-1.7375-.7848,0-1.7561,.2327-2.9136,.698v-1.7359c1.0868-.3667 2.0943-.55 3.0225-.55 1.2827,0 2.2754,.2621 2.9783,.7862 .7028,.5241 1.0542,1.2808 1.0542,2.27 0,1.5418-.8663,2.5735-2.599,3.0949 2.0071,.3999 3.0107,1.51 3.0107,3.3302 0,1.2205-.4058,2.1807-1.2175,2.8807-.8116,.6999-1.918,1.0499-3.3189,1.0499-.7895,0-1.8224-.1465-3.0986-.4396z"/>
<path d="m148.72,1357.7c-1.3796,0-2.482-.6184-3.3074-1.8551-.8254-1.2368-1.2381-2.8537-1.2381-4.8509 0-1.9953 .4131-3.6118 1.2392-4.8494 .8261-1.2377 1.9282-1.8565 3.3064-1.8565 1.3813,0 2.4842,.6181 3.3085,1.8543 .8243,1.2363 1.2365,2.8535 1.2365,4.8516 0,1.9947-.4118,3.611-1.2354,4.849-.8236,1.238-1.9268,1.857-3.3096,1.857zm0-1.5874c1.6065,0 2.4097-1.7061 2.4097-5.1186 0-3.412-.8032-5.118-2.4097-5.118-1.6011,0-2.4017,1.706-2.4017,5.118 0,3.4125 .8006,5.1186 2.4017,5.1186z"/>
</g>
<g fill="url(#radialGradient4213)" transform="matrix(2.15228 0 0 2.05502 -136.12 -2559.2)">
<path d="m148.06,1335.3v-3.5237h-5.6011v-1.4759l5.6895-7.7905h1.8447v7.5691h1.6651v1.6973h-1.6651v3.5237zm-3.6004-5.221h3.7098v-5.1904z"/>
<path d="m158.37,1335.7c-1.3796,0-2.482-.6183-3.3074-1.8551s-1.2381-2.8537-1.2381-4.8508c0-1.9953 .4131-3.6118 1.2392-4.8495 .8261-1.2377 1.9282-1.8565 3.3063-1.8565 1.3813,0 2.4842,.6181 3.3085,1.8543 .8243,1.2363 1.2365,2.8535 1.2365,4.8517 0,1.9946-.4118,3.6109-1.2354,4.8489-.8236,1.238-1.9268,1.857-3.3096,1.857zm0-1.5873c1.6065,0 2.4097-1.7062 2.4097-5.1186 0-3.4121-.8032-5.1181-2.4097-5.1181-1.6011,0-2.4017,1.706-2.4017,5.1181 0,3.4124 .8006,5.1186 2.4017,5.1186z"/>
</g>
<g fill="url(#radialGradient4213)" transform="matrix(2.15228 0 0 2.05502 -136.12 -2559.2)">
<path d="m162.48,1315.6v-1.7884c.9732,.3309 1.8211,.4964 2.5438,.4964 .7627,0 1.3606-.2231 1.7938-.6693 .4332-.4462 .6497-1.0714 .6498-1.8755 0-.8528-.3106-1.5041-.9317-1.9541-.6212-.4499-1.5345-.6749-2.74-.6749-.2773,0-.6458,.02-1.1054,.058v-6.3982h6.6765v1.79h-4.8441v2.9367c1.5178,0 2.7453,.3836 3.6824,1.1507 .9371,.7672 1.4056,1.8255 1.4056,3.175 0,1.2609-.4271,2.2509-1.2813,2.9699-.8542,.7191-2.0234,1.0787-3.5076,1.0787-.6583,0-1.4389-.099-2.3416-.2954z"/>
<path d="m177.18,1315.8c-1.3796,0-2.482-.6184-3.3074-1.8552-.8254-1.2367-1.2381-2.8537-1.2381-4.8508 0-1.9953 .413-3.6118 1.2392-4.8495 .8261-1.2376 1.9282-1.8565 3.3064-1.8565 1.3813,0 2.4842,.6182 3.3085,1.8544 .8243,1.2362 1.2365,2.8534 1.2365,4.8516 0,1.9946-.4118,3.6109-1.2354,4.8489-.8236,1.2381-1.9268,1.8571-3.3096,1.8571zm0-1.5874c1.6065,0 2.4097-1.7062 2.4097-5.1186 0-3.412-.8032-5.1181-2.4097-5.1181-1.6011,0-2.4017,1.7061-2.4017,5.1181 0,3.4124 .8006,5.1186 2.4017,5.1186z"/>
</g>
<g fill="url(#radialGradient4213)" transform="matrix(2.15228 0 0 2.05502 -136.12 -2559.2)">
<path d="m189.65,1295.6c.599-1.0261 1.5312-1.5391 2.7968-1.5391 1.1436,0 2.0791,.3784 2.8064,1.1352 .7273,.7567 1.0909,1.7195 1.0909,2.8881 0,1.336-.4054,2.44-1.2161,3.312-.8108,.8721-1.8446,1.3081-3.1016,1.3081-1.4385,0-2.5585-.5735-3.36-1.7206-.8015-1.1471-1.2022-2.7163-1.2022-4.7077 0-2.6833 .6953-4.6595 2.0859-5.9286 .7673-.7091 1.8254-1.0636 3.1742-1.0636 .7659,0 1.7594,.1728 2.9807,.5184v1.7423c-1.3238-.4485-2.3509-.6728-3.0814-.6728-1.9825,0-2.9737,1.5761-2.9737,4.7283zm4.6517,2.8123c0-.8806-.1981-1.5698-.5943-2.0677-.3962-.4978-.9313-.7467-1.6053-.7467-.6544,0-1.2154,.2183-1.6831,.6551-.4676,.4367-.7015,.963-.7015,1.5788 0,1.011 .2239,1.8113 .6717,2.4008 .4478,.5896 1.0356,.8843 1.7632,.8843 .6544,0 1.1762-.2387 1.5654-.7162s.5838-1.1403 .5838-1.9884z"/>
<path d="m203.1,1302.7c-1.3796,0-2.482-.6184-3.3074-1.8552-.8254-1.2367-1.2381-2.8537-1.2381-4.8508 0-1.9953 .413-3.6118 1.2392-4.8495 .8261-1.2376 1.9282-1.8564 3.3064-1.8564 1.3813,0 2.4842,.6181 3.3085,1.8543 .8243,1.2362 1.2365,2.8534 1.2365,4.8516 0,1.9946-.4118,3.611-1.2354,4.849-.8236,1.238-1.9268,1.857-3.3096,1.857zm0-1.5874c1.6065,0 2.4097-1.7062 2.4097-5.1186 0-3.412-.8032-5.118-2.4097-5.118-1.6011,0-2.4017,1.706-2.4017,5.118 0,3.4124 .8006,5.1186 2.4017,5.1186z"/>
</g>
<g fill="url(#radialGradient4213)" transform="matrix(2.15228 0 0 2.05502 -136.12 -2559.2)">
<path d="m222.4,1303.6c.1637-1.1083 .3982-2.022 .7036-2.7413 .3054-.7192 .8423-1.7002 1.6107-2.9429l3.3709-5.2065h-6.4084v-1.8994h8.3668v1.7724c-3.1948,4.7101-4.9885,8.3826-5.3813,11.018z"/>
<path d="m236.6,1303.9c-1.3795,0-2.482-.6183-3.3074-1.8551s-1.2381-2.8537-1.2381-4.8508c0-1.9954 .413-3.6118 1.2392-4.8495 .8261-1.2377 1.9282-1.8565 3.3063-1.8565 1.3813,0 2.4842,.6181 3.3085,1.8543 .8243,1.2363 1.2365,2.8535 1.2365,4.8517 0,1.9946-.4118,3.6109-1.2354,4.8489-.8236,1.238-1.9268,1.857-3.3096,1.857zm0-1.5873c1.6065,0 2.4097-1.7062 2.4097-5.1186 0-3.4121-.8033-5.1181-2.4097-5.1181-1.6011,0-2.4017,1.706-2.4017,5.1181 0,3.4124 .8005,5.1186 2.4017,5.1186z"/>
</g>
<g fill="url(#radialGradient4213)" transform="matrix(2.15228 0 0 2.05502 -136.12 -2559.2)">
<path d="m247.73,1308.7c-.654-.3927-1.1217-.8052-1.403-1.2373-.2813-.4321-.4219-.9531-.4219-1.5632 0-.9907 .364-1.7968 1.092-2.4183 .728-.6215 1.6715-.9323 2.8306-.9323 1.0711,0 1.945,.2654 2.6218,.7961 .6767,.5307 1.0151,1.2196 1.0151,2.0666 0,1.2641-.7738,2.3567-2.3213,3.2777 1.8781,.8653 2.8172,2.0575 2.8172,3.5768 0,1.0886-.4111,1.978-1.2333,2.6681-.8222,.6902-1.8755,1.0352-3.16,1.0352-1.2834,0-2.3225-.3253-3.1174-.9759-.7948-.6507-1.1923-1.5065-1.1923-2.5676 0-1.5515 .8242-2.7934 2.4725-3.7259zm2.2891-.6846c1.0418-.7065 1.5627-1.4987 1.5627-2.3765 0-.4446-.1756-.8046-.5267-1.0802-.3511-.2755-.8164-.4133-1.3957-.4133-.564,0-1.0169,.1345-1.3587,.4034-.3418,.2689-.5128,.6155-.5128,1.0397 0,.4264 .1611,.8126 .4833,1.1585 .3222,.346 .9048,.7688 1.7479,1.2684zm-1.1874,1.5375c-.579,.4772-.9804,.8961-1.2043,1.2569-.2239,.3608-.3359,.8125-.3359,1.355 0,.6676 .2117,1.204 .635,1.6093s.9842,.608 1.6825,.608c.6755,0 1.2222-.1719 1.6402-.5155 .418-.3436 .6269-.7903 .627-1.34 0-.4421-.1315-.818-.3946-1.1279-.263-.3099-.7906-.6996-1.5825-1.1692z"/>
<path d="m260.56,1315.9c-1.3796,0-2.482-.6184-3.3074-1.8551-.8254-1.2368-1.2381-2.8537-1.2381-4.8508 0-1.9954 .413-3.6119 1.2392-4.8495 .8261-1.2377 1.9282-1.8565 3.3064-1.8565 1.3813,0 2.4842,.6181 3.3085,1.8543 .8243,1.2363 1.2365,2.8535 1.2365,4.8517 0,1.9946-.4118,3.6109-1.2354,4.8489-.8236,1.238-1.9268,1.857-3.3096,1.857zm0-1.5873c1.6065,0 2.4097-1.7062 2.4097-5.1186 0-3.4121-.8032-5.1181-2.4097-5.1181-1.6011,0-2.4017,1.706-2.4017,5.1181 0,3.4124 .8006,5.1186 2.4017,5.1186z"/>
</g>
<g fill="url(#radialGradient4213)" transform="matrix(2.15228 0 0 2.05502 -136.12 -2559.2)">
<path d="m263.77,1335.1v-1.7096c1.1983,.3646 2.1583,.5469 2.8799,.5469 .96,0 1.7166-.4185 2.2698-1.2553 .5532-.8368 .8299-1.9636 .8299-3.3803-.6519,1.0371-1.5448,1.5557-2.6788,1.5557-1.1068,0-2.0416-.4032-2.8043-1.2097-.7627-.8064-1.144-1.7863-1.144-2.9396 0-1.3135 .4054-2.4077 1.2161-3.2828 .8107-.8751 1.8335-1.3126 3.0683-1.3126 1.4171,0 2.5303,.5633 3.3396,1.69 .8093,1.1267 1.214,2.6473 1.214,4.5619 0,1.2169-.1916,2.3644-.5747,3.4425-.3831,1.0781-.9046,1.9238-1.5643,2.537-.8456,.787-1.956,1.1805-3.3313,1.1805-.6748,0-1.5815-.1415-2.7201-.4246zm1.3869-8.6782c0,.9128 .2002,1.624 .6007,2.1336 .4004,.5097 .9363,.7645 1.6075,.7645 .6515,0 1.2076-.2212 1.6683-.6637 .4607-.4424 .691-.9769 .691-1.6034 0-1.0218-.2255-1.8374-.6765-2.4468-.451-.6093-1.0316-.914-1.7418-.914-.6655,0-1.19,.2386-1.5737,.7157-.3837,.4771-.5755,1.1485-.5755,2.0141z"/>
<path d="m278.6,1335.5c-1.3795,0-2.482-.6184-3.3074-1.8551-.8254-1.2368-1.2381-2.8537-1.2381-4.8508 0-1.9954 .4131-3.6119 1.2392-4.8495 .8261-1.2377 1.9282-1.8565 3.3063-1.8565 1.3813,0 2.4842,.6181 3.3085,1.8543 .8243,1.2363 1.2365,2.8535 1.2365,4.8517 0,1.9946-.4118,3.6109-1.2354,4.8489-.8236,1.238-1.9268,1.857-3.3096,1.857zm0-1.5873c1.6065,0 2.4097-1.7062 2.4097-5.1186 0-3.4121-.8032-5.1181-2.4097-5.1181-1.6011,0-2.4017,1.706-2.4017,5.1181 0,3.4124 .8006,5.1186 2.4017,5.1186z"/>
</g>
<g fill="url(#radialGradient4213)" transform="matrix(2.15228 0 0 2.05502 -136.12 -2559.2)">
<path d="m273,1358.6v-11.202h-1.968v-1.3687l4.0105-.3281v12.899z"/>
<path d="m285.29,1359c-1.3796,0-2.482-.6184-3.3074-1.8552-.8254-1.2367-1.2381-2.8537-1.2381-4.8508 0-1.9953 .413-3.6118 1.2392-4.8495 .8261-1.2376 1.9282-1.8564 3.3064-1.8565 1.3813,.0001 2.4842,.6182 3.3085,1.8544 .8243,1.2362 1.2365,2.8534 1.2365,4.8516 0,1.9946-.4118,3.6109-1.2354,4.849-.8236,1.238-1.9268,1.857-3.3096,1.857zm0-1.5874c1.6065,0 2.4097-1.7062 2.4097-5.1186 0-3.412-.8032-5.118-2.4097-5.1181-1.6011,.0001-2.4017,1.7061-2.4017,5.1181 0,3.4124 .8006,5.1186 2.4017,5.1186z"/>
<path d="m296.44,1359c-1.3796,0-2.482-.6184-3.3074-1.8552-.8254-1.2367-1.2381-2.8537-1.2381-4.8508 0-1.9953 .413-3.6118 1.2392-4.8495 .8261-1.2376 1.9282-1.8564 3.3064-1.8565 1.3813,.0001 2.4842,.6182 3.3085,1.8544 .8243,1.2362 1.2365,2.8534 1.2365,4.8516 0,1.9946-.4118,3.6109-1.2354,4.849-.8236,1.238-1.9268,1.857-3.3096,1.857zm0-1.5874c1.6065,0 2.4097-1.7062 2.4097-5.1186 0-3.412-.8032-5.118-2.4097-5.1181-1.6011,.0001-2.4017,1.7061-2.4017,5.1181 0,3.4124 .8006,5.1186 2.4017,5.1186z"/>
</g>
<g fill="url(#radialGradient4213)" transform="matrix(2.15228 0 0 2.05502 -136.12 -2559.2)">
<path d="m276.88,1383.9v-11.202h-1.968v-1.3687l4.0105-.3281v12.899z"/>
<path d="m288.03,1383.9v-11.202h-1.968v-1.3687l4.0105-.3281v12.899z"/>
<path d="m300.31,1384.3c-1.3795,0-2.482-.6184-3.3074-1.8552-.8254-1.2367-1.2381-2.8537-1.2381-4.8508 0-1.9953 .4131-3.6118 1.2392-4.8495 .8261-1.2376 1.9282-1.8564 3.3063-1.8565 1.3813,.0001 2.4842,.6182 3.3085,1.8544 .8243,1.2362 1.2365,2.8534 1.2365,4.8516 0,1.9946-.4118,3.6109-1.2354,4.849-.8236,1.238-1.9268,1.857-3.3096,1.857zm0-1.5874c1.6065,0 2.4097-1.7062 2.4097-5.1186 0-3.412-.8032-5.118-2.4097-5.1181-1.6011,.0001-2.4017,1.7061-2.4017,5.1181 0,3.4124 .8006,5.1186 2.4017,5.1186z"/>
</g>
<g fill="url(#radialGradient4213)" transform="matrix(2.15228 0 0 2.05502 -136.12 -2559.2)">
<path d="m261.63,1407.6v-11.202h-1.968v-1.3687l4.0105-.328v12.899z"/>
<path d="m269.7,1407.6v-1.6586c.4996-1.1676 1.4959-2.4267 2.9887-3.7773l.9505-.8497c1.1808-1.0668 1.7712-2.1208 1.7712-3.1619 0-.6472-.1916-1.1533-.5747-1.5182-.3831-.3649-.9137-.5473-1.5917-.5474-.8216,.0001-1.8994,.3337-3.2332,1.0009v-1.738c1.2016-.5671 2.3634-.8507 3.4857-.8508 1.2148,.0001 2.1932,.3313 2.9354,.9937 .7421,.6624 1.1132,1.5349 1.1132,2.6175 0,.7748-.1845,1.4615-.5535,2.0602-.369,.5986-1.048,1.318-2.0369,2.1583l-.639,.5468c-1.2948,1.0979-2.0404,2.0734-2.2366,2.9265h5.4076v1.798z"/>
<path d="m285.06,1408c-1.3796,0-2.482-.6184-3.3074-1.8552-.8254-1.2367-1.2381-2.8537-1.2381-4.8508 0-1.9953 .4131-3.6118 1.2392-4.8495 .8261-1.2376 1.9282-1.8564 3.3064-1.8565 1.3813,.0001 2.4842,.6182 3.3085,1.8544 .8243,1.2362 1.2365,2.8534 1.2365,4.8516 0,1.9946-.4118,3.6109-1.2354,4.849-.8236,1.238-1.9268,1.857-3.3096,1.857zm0-1.5874c1.6065,0 2.4097-1.7062 2.4097-5.1186 0-3.412-.8032-5.118-2.4097-5.1181-1.6011,.0001-2.4017,1.7061-2.4017,5.1181 0,3.4124 .8006,5.1186 2.4017,5.1186z"/>
</g>
<path fill="url(#radialGradient4205)" d="m360.09,217.98-8.6046-8.6059c-220.71,223.28-207.02,203.45 8.6046,8.6059z"/>
<g fill="#999" transform="matrix(1.3325 0 0 1.2741 -71.758 -110.86)">
<path d="m262.8,350.04v-19.04h4.126l4.9321,14.336 5.0766-14.336h3.7422v19.04h-3.0159v-15.074l-4.624,13.835h-2.9521l-4.4692-13.872v15.112z"/>
<path d="m285.37,350.04v-19.04h5.3264c1.4786,0 2.6338,.1256 3.4656,.3767 .8318,.2511 1.5138,.6959 2.0459,1.3344 .7034,.8455 1.055,1.9795 1.055,3.4022 0,2.0463-.6957,3.6521-2.087,4.8176s-3.3102,1.7482-5.7565,1.7482h-.8835v7.3614zm3.166-9.8634h.7837c1.4881,0 2.6292-.3347 3.4234-1.004 .7941-.6693 1.1911-1.6265 1.1911-2.8715 0-1.0173-.3059-1.7424-.9178-2.1756-.6119-.4331-1.6605-.6496-3.146-.6496h-1.3344z"/>
<path d="m299.88,350.04v-19.04h3.1915v7.8124h8.2521v-7.8124h3.1907v19.04h-3.1907v-8.7517h-8.2521v8.7517z"/>
</g>
<path fill="url(#radialGradient3171)" d="m338.71,246.51c0,10.513-8.7514,19.035-19.546,19.035-10.794,0-19.546-8.5222-19.546-19.035s8.7514-19.035 19.546-19.035 19.546,8.5228 19.546,19.035z"/>
<path fill="#eee" d="m201.87,404.85h247.19v12.17h-247.19z"/>
</svg>
