<svg xmlns="http://www.w3.org/2000/svg" viewBox="0 0 533.09 492.82">
<g stroke="#000" stroke-linejoin="round" stroke-linecap="round" stroke-width=".25">
<g transform="translate(-132.74 -248.53)">
<path fill="#800000" color="#000" d="m-388.45-761.47v50.719h-50.719v35.719h50.719v24.281h-50.719v35.719h50.719v24.281h-50.719v35.719h50.719v24.281h-50.719v35.719h50.719v24.281h-50.719v35.719h50.719v24.281h-50.719v35.719h50.719v24.281h-50.719v35.719h50.719v24.281h-50.719v35.719h50.719v50.719h35.688v-50.719h24.312v50.719h35.688v-50.719h24.312v50.719h35.688v-50.719h24.312v50.719h35.688v-50.719h24.312v50.719h35.688v-50.719h24.312v50.719h35.688v-50.719h24.312v50.719h35.687v-50.719h24.313v50.719h35.688v-50.719h50.719v-35.719h-50.719v-24.281h50.719v-35.719h-50.719v-24.281h50.719v-35.719h-50.719v-24.281h50.719v-35.719h-50.719v-24.281h50.719v-35.719h-50.719v-24.281h50.719v-35.719h-50.719v-24.281h50.719v-35.719h-50.719v-24.281h50.719v-35.719h-50.719v-50.719h-35.688v50.719h-24.313v-50.719h-35.687v50.719h-24.312v-50.719h-35.688v50.719h-24.312v-50.719h-35.688v50.719h-24.312v-50.719h-35.688v50.719h-24.312v-50.719h-35.688v50.719h-24.312v-50.719h-35.688v50.719h-24.312v-50.719h-35.688zm35.688,86.438h24.312v24.281h-24.312v-24.281zm60,0h24.312v24.281h-24.312v-24.281zm60,0h24.312v24.281h-24.312v-24.281zm60,0h24.312v24.281h-24.312v-24.281zm60,0h24.312v24.281h-24.312v-24.281zm60,0h24.312v24.281h-24.312v-24.281zm60,0h24.313v24.281h-24.313v-24.281zm-360,60h24.312v24.281h-24.312v-24.281zm60,0h24.312v24.281h-24.312v-24.281zm60,0h24.312v24.281h-24.312v-24.281zm60,0h24.312v24.281h-24.312v-24.281zm60,0h24.312v24.281h-24.312v-24.281zm60,0h24.312v24.281h-24.312v-24.281zm60,0h24.313v24.281h-24.313v-24.281zm-360,60h24.312v24.281h-24.312v-24.281zm60,0h24.312v24.281h-24.312v-24.281zm60,0h24.312v24.281h-24.312v-24.281zm60,0h24.312v24.281h-24.312v-24.281zm60,0h24.312v24.281h-24.312v-24.281zm60,0h24.312v24.281h-24.312v-24.281zm60,0h24.313v24.281h-24.313v-24.281zm-360,60h24.312v24.281h-24.312v-24.281zm60,0h24.312v24.281h-24.312v-24.281zm60,0h24.312v24.281h-24.312v-24.281zm60,0h24.312v24.281h-24.312v-24.281zm60,0h24.312v24.281h-24.312v-24.281zm60,0h24.312v24.281h-24.312v-24.281zm60,0h24.313v24.281h-24.313v-24.281zm-360,60h24.312v24.281h-24.312v-24.281zm60,0h24.312v24.281h-24.312v-24.281zm60,0h24.312v24.281h-24.312v-24.281zm60,0h24.312v24.281h-24.312v-24.281zm60,0h24.312v24.281h-24.312v-24.281zm60,0h24.312v24.281h-24.312v-24.281zm60,0h24.313v24.281h-24.313v-24.281zm-360,60h24.312v24.281h-24.312v-24.281zm60,0h24.312v24.281h-24.312v-24.281zm60,0h24.312v24.281h-24.312v-24.281zm60,0h24.312v24.281h-24.312v-24.281zm60,0h24.312v24.281h-24.312v-24.281zm60,0h24.312v24.281h-24.312v-24.281zm60,0h24.313v24.281h-24.313v-24.281zm-360,60h24.312v24.281h-24.312v-24.281zm60,0h24.312v24.281h-24.312v-24.281zm60,0h24.312v24.281h-24.312v-24.281zm60,0h24.312v24.281h-24.312v-24.281zm60,0h24.312v24.281h-24.312v-24.281zm60,0h24.312v24.281h-24.312v-24.281zm60,0h24.313v24.281h-24.313v-24.281z"/>
<path fill="#f33" color="#000" d="m-176.51-690.97c-59.728-.2305-121.12,6.8953-145.25,18.438-2.2422,1.0724-4.4748,2.2103-6.6875,3.4375v18.344h-24.312v-1.4375c-13.611,11.42-25.872,25.146-35.688,39.406v22.031h-12.188c-4.0378,11.373-4.9902,23.682-5.625,35.719h16.438c4.2265-15.781 9.1152-32.046 20.281-46.031 19.959-24.998 48.083-49.881 76.781-65.312v-8.6562h19.219c24.836-8.4996 70.064-14.135 116.81-15.562-6.5418-.2108-13.145-.3494-19.781-.375zm19.781,.375c42.823,1.3798 82.471,6.8046 103.97,17.406v-1.8438h24.312v19.188c15.165,14.106 27.136,32.286 35.687,52.531v-11.719h23.906c-3.9347-13.289-9.7217-25.401-17.406-35.719h-6.5v-7.8125c-4.448-4.7645-9.3803-9.0121-14.844-12.656-23.764-15.851-87.741-21.25-149.12-19.375zm188.28,76.938v22.906h-19.531c3.9216,11.516 6.7924,23.524 8.5938,35.719h10.938v24.281h-8.8125c.3551,12.054-.3515,24.05-2.1562,35.719h3.5625c14.632-39.572 17.52-83.118 7.4062-118.62zm-228.53,8.1875c-3.8621-.0009-7.6977,.1716-11.469,.5312v5.6562c8.2171-2.7038 16.65-4.5005 25.156-5.4375-4.6062-.4945-9.168-.749-13.688-.75zm13.688,.75c3.4941,.3751 7.008,.9036 10.531,1.5625v-2.2812c-3.5176,.0865-7.0295,.333-10.531,.7188zm34.844,1.0625v7.2812c8.0645,2.9995 16.089,6.7338 23.938,11.219 10.615,6.0655 33.636,18.043 37.062,31.75 5.0387,20.155-5.3137,41.617-21.938,58.375h3.5312c20.232-16.759 35.204-38.217 34.5-58.375-.4787-13.707-20.909-25.685-30.219-31.75-3.0747-2.0031-6.213-3.8869-9.4062-5.5938h-1.7812v-.9062c-11.38-5.8511-23.408-9.868-35.688-12zm-84.312,3.8125c-22.33,7.4781-41.341,22.425-53.656,44.812h16.469c11.821-15.447 26.064-27.374 41.625-35.719h-4.4375v-9.0938zm65.469,44.031c-23.969,.5847-51.377,27.787-43.062,60.781h1.9062v5.9688c1.5382,4.0254 3.4263,7.5111 5.6562,10.469-1.8662-3.4678-3.1342-7.6504-3.7188-12.594-3.0182-25.522 15.068-48.139 33.75-58.562v-5.2812h13.125c-2.4734-.5925-5.051-.8448-7.6562-.7812zm-35.5,77.219c5.4641,10.153 15.95,14.256 28.719,13.875-11.474-.3099-21.675-4.533-28.719-13.875zm49.469-77.219c-1.933,.0525-3.9751,.3146-6.0625,.7812h10.938v5.7812c5.5513,4.8541 9.8164,12.554 11.781,23.656 4.4699-21.867-4.1098-30.559-16.656-30.219zm-139.44,14.562c-3.8735,10.187-6.5508,21.571-7.8125,34.188-.9968,9.9679 .6375,19.478 4.4375,28.469-1.8667-8.9911-1.4533-18.5 1.6875-28.469 2.66-8.4425 5.8404-16.333 9.4688-23.688h-7.7812v-10.5zm-3.375,62.656c5.4719,26.356 30.484,48.213 63.375,63.656v-6.3125c-26.428-13.137-48.071-29.926-59.438-49.5h-.5625v-.9688c-1.2642-2.2548-2.3917-4.5485-3.375-6.875zm-110.47-52.156c.4514,12.054 1.8366,23.98 4.0938,35.719h3.5625c.2675-11.739 1.4213-23.664 3.5625-35.719h-11.219zm293.84,38.969c-5.3665,4.9663-11.263,9.4572-17.438,13.281 5.9774-3.2669 11.838-7.0372 17.438-11.156v-2.125zm-17.438,13.281c-14.919,8.1536-30.433,13.318-43.562,13.781 13.787,.2865 29.388-5.0028 43.562-13.781zm-268,7.75c1.0279,12.199 3.0002,24.133 5.9062,35.719h3.8438v13.438c7.9445,24.949 20.101,48.065 35.688,68.5v-21.938h7.4688c-23.072-28.545-40.873-61.052-51.25-95.719h-1.6562zm411.59,0c-10.611,20.314-24.626,38.697-41.844,53.219v6.7812h-8.6875c-2.0463,1.4806-4.1242,2.9396-6.25,4.3125-15.91,10.275-38.634,15.585-64.031,16.625 33.209,1.2674 62.506-3.8325 79.562-16.625 20.827-15.62 34.979-38.41 42.938-64.312h-1.6875zm-120.81,80.938c-32.574-1.2432-68.922-8.6248-101.25-20.938h-14.562c35.629,14.777 78.584,22.463 115.81,20.938zm-221.03,33.938v5.125h-22.5c16.175,20.646 35.875,38.462 58.188,52.562v-16.844h11.906c-17.135-11.98-33.143-25.698-47.594-40.844zm300,48.719v16.406h-24.312v-7.4062c-25.746,23.68-47.285,30.12-77.562,31.625 8.6202,.3049 17.186,.4062 25.656,.4062 45.598,0 70.291-4.1273 97.969-41.031h-21.75zm-101.88,40.625c-32.79-1.1598-66.15-5.2786-96.125-18.125-14.493-6.2112-28.547-13.645-42-22.125v16.031h-11.688c3.9271,2.1442 7.9368,4.1756 12,6.0938 34.366,16.224 77.094,18.531 117.78,18.531 7.1247,0 13.769-.0951 20.031-.4062z"/>
<path fill="#f33" color="#000" d="m1050.2-701.05c-1.5741,.0206-3.1606,.1133-4.75,.25-5.473,.2181-5.5558,8.1677-10.375,10.156-8.0847,4.1108-13.982-6.3769-21.656-7.5625-3.0126-1.2713-9.6911,1.2371-7.0312,5 6.5491,3.1919 5.4017,11.732 .875,16.188-3.8498,.3791-7.6649,.9985-11.438,1.9062-4.2259-2.1184-7.2642-6.9896-5.7188-11.75 1.3192-3.3869-2.1814-5.7426-4.9062-3.7188-8.3543,3.5543-17.947,5.4644-23.594,13.25-3.4378,3.7997-3.9493,11.556-10.812,10.625-3.8631-.2311-9.3075-2.5249-11.438,2-6.5472,7.7679-13.424,15.752-17.531,25.094-.1561,1.0894 .0002,2.0104 .375,2.8438-4.1798,3.4576-7.9327,7.3037-9.8125,12.688-.8556,1.8098-1.127,4.044-1.5312,6.1875-2.8046,.7205-4.2163,4.0641-5.125,7.0938-.2214,.0577-.4139,.1457-.6562,.1875-3.7493,.9422-9.6115,.3583-10.375,5.3438-4.0677,9.4296-8.388,19.17-9.6875,29.375 .2025,1.415 .8251,2.4553 1.7188,3.2188-.2471,2.4852-1.1332,4.6479-4.125,5.8125-3.4869,1.6693-9.3373,2.3061-9.0938,7.3438-2.1104,10.05-4.413,20.428-3.6562,30.688 .9733,2.7305 3.3509,3.5479 6,3.75-.1473,2.682-.0198,5.3045 .625,7.7812-1.5844,3.8953-2.7308,7.8719-3.5625,11.938-.2392,.003-.4807,.001-.7188,0-5.1184,1.7658-3.2646,8.6543-2.375,12.594 .5676,4.7486 .4136,10.117 1.0938,15.125 .0838,6.9225 .3598,13.85 .375,20.656 1.8563,25.841 7.6242,51.771 18.219,75.594 11.902,30.464 29.798,58.993 54.25,80.75 4.3122,4.3148 8.8236,8.4126 13.5,12.312 3.3183,5.1875 9.8427,8.2422 14.688,11.844 2.8593,.9399 6.3464,5.234 9.4688,5.25 1.0152,.5979 2.0342,1.1728 3.0625,1.75 2.0177-.4824 5.2494,1.0492 2.9688-2-.5004-1.3283-.6891-2.6925-.5938-4.0625 3.7691-2.576 9.0136-1.3767 12.562,1.6875-2.59,1.0743-3.0947,6.8415 .6563,6.9375 .5484,.268 1.0807,.5843 1.625,.875-1.7924,1.152-3.8946,1.7355-6.125,1.5 3.5661,6.9265 12.455,8.7413 19.063,11.844 3.7604,.4432 9.5392,5.9234 12.406,1.875 4.63,1.7619 9.2963,2.8164 13.906,.75 .9674-2.0961 .8457-4.2132 0-6.0625 3.747,1.6637 6.7607,5.0471 6.7187,9.375-.089,2.421 1.118,3.8604 2.875,4.7188-.7505,2.9457 3.021,6.315 5.8438,7 9.6627,2.418 17.159,11.282 27.344,11.531 4.3347-.7166 4.6273-6.9794 8.5937-8.9062 5.9967-5.7931 17.386,.2089 15.531,8.5938-.1601,3.1942-2.7975,8.2335 2.1562,8.7812 17.844,.7379 38.074-.5638 51.781-12.812-.6291-1.0951-1.5221-2.0276-2.625-2.625 .5228-2.1382 .9575-4.3993 2.5626-5.9062 1.291-2.3224 3.4495-3.6526 5.7812-4.1562-.4063,3.8159 5.3171,5.3226 8.4375,4.4688 .6188-.1646 1.2478-.2628 1.875-.375 .6228,1.0418 1.0632,2.247 1.1563,3.625 .7425,3.1144-.3783,8.7482 4.5,7.7812 15.855-4.2973 33.172-10.845 43.344-24.25 .8721,2.9372 1.5834,6.4782 5.3437,4.9062 15.952-8.0023 33.057-18.949 39.344-36.438-1.3359-.8367-2.9355-1.256-4.5-.9688-6.3313,1.9024-14.75-2.6346-19.75,2.4375 1.3165,7.1787-3.642,16.042-11.812,14.812-5.2204,.4503-7.446-5.8093-11.625-7-7.625,1.9115-10.572,10.802-17.688,13.875-6.2988,4.4197-13.501,7.1352-20.781,9.6562-1.4274-2.0227-2.6603-4.2788-4.6563-5.3125-7.8529,.3563-12.478,8.4666-20.062,10.062-4.5065,1.967-9.2423,3.1709-14.062,4.0625-2.0071-4.8113-8.4368-1.438-12.188-2.2812-8.5075-.4066-16.93-2.1939-25.469-1.9688-.3888,.1662-.7046,.4444-.9374,.75-3.6165,.8974-7.1612,2.6086-10.875,3.2188-2.3373-1.7728-6.6903-1.0992-9.4688-2 .5808-5.4645-5.1833-9.5694-10.375-8.7188-24.862-5.3859-46.296-20.147-69.281-30-.3748,.1726-1.8897-.414-1.7187,0 .4714,1.037 .7087,2.1361 .8125,3.2188-3.9165-2.8715-7.7509-5.8801-11.563-8.9062 1.028-.2197 2.1134-.2829 3.2188-.125-3.0886-7.3656-10.524-10.409-17.938-11.469-3.2533-2.5025-6.5535-4.9615-9.9062-7.2812-.4017,.0946-1.7414-.7522-1.6562-.3125 .2756,1.1964 .2758,2.3705 .125,3.5312-1.7956-3.0016-2.3089-7.2734-2.4688-10.469-1.6746-5.8351-7.9479-8.9974-11.75-13.438-2.2552-1.3884-5.3434-5.8127-7.6875-3.0625-3.5224-5.037-7.0123-10.106-10.562-15.094 .0226-.1608 .0389-.3443 .0625-.5-.4803-6.0516-6.001-10.392-8.8438-15.5-1.5601-1.4596-3.2272-4.988-5.3125-5.125 .759-8.8528-5.7215-15.666-12.656-20.25 .2911-.1352 .58-.2635 .875-.375 1.3388-4.87-2.1556-8.9825-6.5625-11.062 .5032-2.3323 1.4174-4.6254 2.2812-6.4688 1.2348-5.9166-2.8275-11.74-4.125-17.469-1.4514-2.483-2.0848-8.5077-6.1562-6-.4216,.1413-.853,.2369-1.2812,.3125-.0142-.0314-.0164-.0622-.0312-.0937-2.574-7.4253-5.9256-14.6-7.4688-22.344 1.8357-.907 3.8046-1.4875 5.7188-1.5938 3.8774-6.2063-2.6649-13.942-8.8438-15.781-.9197-5.81-1.8534-11.617-3.2812-17.219 .0204-.1142 .0416-.2295 .0625-.3438 2.9926-3.4902 9.1285-4.6946 8.25-10.312-.4315-8.6927-1.8279-17.378-.5938-26.062 .1771-3.0294 .486-6.0786 .8438-9.125 1.2096-1.7338 1.9035-3.8982 1.9688-6.125 6.2263-26.493 24.811-47.936 44.281-65.969 14.361-13.048 30.439-24.072 46.656-34.594 4.1132-3.5104 5.6943-10.076 12.188-10.062 7.3841-.1866 14.554-.5139 21.562-2.9062 6.842-2.2334 14.799-2.8902 20.625-7.0938-5.3945,.2737-9.5331-3.7321-13.781-5.9062-.547-.0626-1.1079-.0436-1.6563,0-.155,.0308-.3135,.0634-.4687,.0937 2.7055-2.4811 5.4043-4.897 9.625-4.0312 7.2736,1.2862 14.343,2.3877 21.688,1.4375 .863-.0999 1.743-.1604 2.625-.2188-2.9438,.6271-5.731,1.7676-8.2813,3.7812-.9228,1.7122-3.8745,3.1063-.1562,2.9375 4.91,2.9163 10.429,1.9047 15.781,.6562 7.8244-2.7272 17.356,1.0283 24.187-4.1562 1.959-1.8356-1.0216-4.6058-2.9687-4.4375-5.5803,1.3839-11.688,.8351-17.656,.625 2.8274-.3056 5.5562-.8835 8.0938-2.0312-5.3411-.805-8.5817-5.5554-12.312-8.5312-.5235-.1702-1.0788-.2461-1.625-.3125-4.1093-.0175-8.2732-.2362-12.438-.4688 7.8751-.862 15.771-1.4834 23.656-2.0312 5.2746-1.0756 9.7284-6.0674 15.469-2.9062 6.6217,3.4186 13.121,6.6307 20.438,7.9375 7.0951,1.3651 14.449,4.6324 21.562,3.7812-4.9015-2.3772-6.6902-7.8813-9.4375-11.844-.4548-.3201-.963-.5846-1.4686-.8125-22.234-7.0823-44.171-19.247-67.781-18.938zm43.5,29.25c-3.0638,.0104-6.0807,.5709-9.0313,2.0625-1.2449,1.4944-4.4275,2.2694-.75,2.8438 4.2318,3.8349 9.8499,3.9399 15.344,3.7812 2.9146-.3962 5.8886,.081 8.8438,.6562 1.2383,3.2363 5.4469,1.9801 8.1562,1.3438 1.3361,.0901 2.6636,.0532 3.9688-.1562 8.101,.2255 16.649,2.7181 24.25,.3438 .4526,.231 .9042,.4213 1.375,.625-.2798,.0566-.5639,.1196-.8438,.1875 .09,4.3452 5.3946,3.6369 8.2812,3.5938 2.3188,.2913 4.6228,.869 6.9376,1.5625 4.8543,2.6124 9.582,5.5991 15.031,4.8125 .4314-.1092 .7399-.3038 .9688-.5625 2.3991,.2193 4.7794,.1027 7.1874-.5625 .2956-1.632-.4679-4.0546-2.5-4.0938-3.3074-.02-6.5974-.5993-9.875-1.375-.4852-.2029-.9574-.4317-1.4374-.6562 .5515,.2168 1.1972,.2428 1.9374,0 16.666,2.5732 33.367,5.8492 49.156,11.625-4.5901-1.2877-9.1815-2.5209-13.875-3.375-4.6728-1.6841-5.5458,7.8616-.5937,7.2812 16.5,6.0877 32.908,12.927 47.719,22.312 .3363,.0955 .6784,.1706 1.0313,.25 3.2314,3.7046 5.971,8.0509 10.125,10.375 2.4521,.7355 .9482-3.8729 2.9687-4.75 .7054-1.0208 1.5574-1.8311 2.5-2.4688 2.1357,1.122 3.8402,2.8463 4.75,5.625 1.0307,3.9032-.3059,8.2202-.1563,12.188-.8286-.4926-1.7467-.9139-2.7812-1.1875-7.0444-4.3243-13.793-9.1694-21.125-13-4.0137-3.0144-7.5101,5.8426-2.5938,6.7812 11.939,9.1054 23.634,18.716 33.969,29.562 .7067,1.1915 1.5775,2.3036 2.7188,3.2812 5.3016,5.9815 2.3442,14.409 5.375,21.344 2.19,7.98 4.6998,16.028 5.9374,24.156 1.7371,1.0126 3.6902,2.219 5.4688,3.5938-.4145,3.1266-.824,6.268-.1562,9.375 .1867,2.7592 .3983,5.5356 .5937,8.3125-2.8425,1.9302-5.7473,3.6866-4.375,7.9062 1.1553,9.8192-1.4408,19.479-1.4687,29.094-.1464,2.5365 1.7638,3.9468 3.75,3.6562-1.2723,1.021-2.0508,2.4615-1.7813,4.8125-.534,6.4063-2.6117,12.418-4.5313,18.438-.2255-1.1787-.7752-2.2382-1.7187-3-.201-.0456-.424-.0456-.625,0-5.2724,.6378-7.0773,10.744-1.9063,12.125 .7814-.3923 1.4823-.9645 2.0938-1.6875-.1916,.7734-.402,1.5648-.5625,2.3438-.9133,3.4624 2.6376,5.547 5.5,3.5625 .8597-.5484 1.6145-1.1846 2.2813-1.875 3.2715,5.3538 7.3025,12.814 1.6874,17.875-3.3236,5.6025-12.954,.1032-14.281,7.8125-3.5494,9.1498-10.342,16.322-14.844,24.719-1.8469,3.0271 .9462,6.0927 4.25,5.0625 7.0982-1.914 9.9096-9.5253 15.406-13.75 30.277-32.152 52.298-75.34 50.312-120.91-2.3824-9.0261-3.5042-18.28-5.9688-27.281-2.1076-5.0105-4.7597-9.8083-7.8437-14.344-1.1474-8.9239-3.1285-17.742-6.0625-26.375-4.8016-7.9465-8.4709-16.509-13.344-24.406-1.9923-2.4359-4.1535-4.7556-6.4374-6.9375-1.4008-2.862-2.8832-5.696-4.5-8.4688-6.2866-6.8324-11.591-14.511-17.938-21.281-11.625-9.4963-26.241-15.46-40.844-18.281-8.5013-1.5746-17.343,1.0972-25.719,.2188-5.9644-2.3088-10.933-8.0665-17.906-6.3125-8.1755-.41-16.334-1.4163-24.531-1.25-3.9445-.5786-4.0635,5.4665-1.5,7.0625-9.6832-4.6588-18.453-13.173-29.406-11.375-1.6139,1.0502-4.8692,.8441-1.5,2.5 .3165,.5226 .6644,.982 1.0312,1.4375-4.9651,.2816-10.075-.2614-15.094-.4688-.5782-.9304-1.539-1.7096-2.4375-1.8125-9.2906,.398-18.871-4.5312-28.062-4.5zm-115.25,13.031c-1.3752,1.2456-2.8266,1.8717-4.3438,2.0938 1.4337-.7157 2.882-1.428 4.3438-2.0938zm256.69,13.188c4.1728,.0505 8.0104,1.0496 10.344,5.1562 1.0741,2.1765 1.3475,4.6758 1.5937,7.1562-.051-.0158-.1052-.0152-.1563-.0312-5.3858-3.4492-9.1293-10.082-16.312-9.75-2.392-.6118-4.7778-1.2673-7.1563-1.9375 3.5815,.1356 7.7755-.6411 11.688-.5938zm-40.125,3.9688c-1.1313,4.1715 4.1544,5.0775 6.9375,5.9062 9.2977,4.2346 16.996,13.743 27.469,14.125 .7411-1.4675 .6585-4.0066-1.2812-4.6562-11.594-3.7157-20.85-14.539-33.125-15.375zm-248.16,4.25c-.1075,1.7136-.0443,3.5317-.3438,5.2188-1.1412-.0925-2.2762-.3701-3.3438-.8125 .359-.4522 .6783-.929 .9688-1.4375 .8904-1.0056 1.7869-2.0141 2.7188-2.9688zm-19.219,31.719c-.2705,2.39-1.1659,4.6783-2.7812,6.3438-1.4431,1.7392-3.439,2.734-5.5625,3.0625 2.5968-3.2814 5.3911-6.4205 8.3438-9.4062zm150.03,9.25c-18.165-.0439-36.32,4.9615-50.031,16.5-.8774,2.4579-1.4763,3.4634 1.5312,3.25 .8305,.2576 1.6014,.6313 2.375,1.0625-5.011,2.5314-9.7453,5.5314-14.094,9-.01-.1376-.029-.2694-.031-.4062-.2181-1.4461 1.2236-3.9754 1.0938-4.5938-6.5937-.3428-12.634,6.1884-13.719,12.25 .5525,.8938 1.3381,1.9088 2.2813,2.875-1.5756,1.9084-3.0498,3.9356-4.4063,6.0312-.08,1.4199-.1923,2.3845 .1563,2.8125-2.2075,2.4962-4.2523,5.1404-6.0938,7.9062-.5015-1.0159-1.5696-1.7406-2.9062-2.125-5.7781-1.2308-7.8599,6.1907-8.8438,10.562-2.1961,6.5994-3.1604,13.481-3.5938,20.438-1.3112,2.2838-2.0651,4.9822-2.1875,7.625-3.9264,1.9084-3.814,8.3413-3.5625,12.281-.1714,4.8901 .2652,9.736 1.0625,14.531-3.5514,2.6216-2.1617,8.9774-1.125,12.812 2.3796,14.268 9.7985,27.063 16.5,39.719 7.5354,9.9181 18.09,17.541 27.938,25.281 10.107,7.1548 22.182,10.932 33.281,16.031 1.4244,1.2532 2.9452,2.2914 4.5626,3.125 .6048,.9799 1.5474,1.7137 2.7812,1.9062 9.4357,5.6011 17.079,14.702 27.562,18.156 4.5831-.9269 .8226-6.712-1.9687-7.8125-3.214-1.5325-6.0368-3.5555-8.7188-5.7812 1.1441,.4645 2.2915,.9548 3.375,1.5625 1.4138,.5091 3.4531,.3578 4.9375-.375-.2912,2.7228 1.9477,6.1247 5.0313,5.6562 10.569,2.5334 20.408,8.937 31.375,9.0938 3.5864-1.9808 .1093-5.5896-2.8126-6.625 8.8378,1.2192 17.711,3.7729 26.469,2.125 3.5775-3.0434-2.3898-6.3487-5.3438-5.9688-10.945,.6295-20.87-4.8986-31.844-4.4375-1.6654,1.1462-1.7418,3.1664-.9375,4.875-6.5257-2.7738-12.724-6.4161-19.906-7.5625-.067,.0287-.1238,.0621-.1876,.0937-.04-.5075-.1889-1.0752-.5624-1.6875-3.8252-7.2972-13-7.4737-20.313-8.8438-3.3134-6.7388-12.228-8.4058-18.656-11.25-1.6904-.3263-3.5688-.6605-5.4375-1.0938-.2934-.1748-.6-.3083-.9063-.4688 .8154-.4703 1.3135-1.3811 1.2188-2.875 .013-8.7433-9.0784-13.368-14.938-18.438-5.8515-3.1358-14.385-6.9529-12.906-15.062 .9282-6.7603-5.9951-10.572-8.2812-16.344-8.427-13.826-16.221-29.203-19.188-45.219 2.8718,.0192 5.4424-1.0553 6.0938-4.2188 1.2797-5.2105-4.4892-7.2148-6.5-10.906-.4037-.5485-.5886-1.4558-.7188-2.3438 .1015-1.5588 .2477-3.1244 .4688-4.6875 .2535-1.608 .7093-3.1214 1.2812-4.5938 3.8751,2.5688 10.242,4.634 12.406-.4375 .3303-.6996 .4801-1.3648 .5313-2 2.3597,.1243 4.6902-.0739 6.8125-1.5625 6.4774-3.2297 9.031-10.526 14.719-14.75 3.1477-2.7549 4.5852-6.6276 6.1875-10.281 2.1935-1.8739 4.3835-3.8204 6.875-5.2812 5.6056-.9438 12.293,.2692 14.438-5.9375-.05-2.3556-1.6792-4.2429-2.8125-6.3438 6.0075-3.7049 15.112,2.5397 20.031-2.6875 1.3943,1.7724 3.8569,2.5366 6,.5625 10.534-3.5799 22.11-3.1583 32.844-3.6875 .2903-.6159 .3595-1.3128 .25-2 6.5473,.6441 13.063,1.9504 19.344,2.9062 .5832-.782 .7292-1.8164 .5625-2.8125 .4292,.121 .8548,.2439 1.2812,.375-3.2689,4.8799 1.1482,12.698 7.25,12.219 5.189,3.5312 11.148,5.2813 17.188,6.6875 4.5882,4.5842 10.332,7.4859 16.187,10.125 .2195,.4063 .473,.7767 .7188,1.1562 .6686,1.8483 1.9669,3.4503 3.875,4.3125 3.5032,6.6618 9.1271,11.632 14.75,16.5 2.2081,5.9132 2.6822,12.376 .625,18.594-6.7046,31.692-34.892,54.55-64.656,64-1.6486,.545-3.3224,1.0209-5,1.4688-.6794,.0858-1.3528,.177-2.0313,.25-2.1892,.2618-4.3939,.4028-6.5937,.5312-1.22-.2033-2.4189-.4141-3.625-.6562-5.6625-1.0675-11.176-3.0612-16.875-3.5 .3414,5.2226 6.3009,5.736 10.75,6.75 1.8434,2.5867 5.4223,2.4323 8.8437,2.0938 1.4374,.8365 3.174,.8431 5,.5 13.611,1.5744 27.456,.6915 40.938-1.75 19.936-1.9918 39.821-9.1328 54.875-22.5 8.8732-8.0622 13.854-20.532 9.8438-32.438-1.262-4.0515-2.8611-7.966-4.6876-11.781 .9296-7.0061-.3326-14.151-4.5624-20.188-1.1411-1.7118-2.3613-3.39-3.625-5-1.2063-5.1394-3.725-9.9297-7.75-13.75-11.671-11.605-26.791-18.974-41.188-26.562-4.6421-2.1291-9.4881-4.0564-14.437-5.4688-.022-.006-.04-.025-.063-.0312-8.2801-4.7333-15.587-12.575-25.312-11.031-1.6493,1.4637-1.9165,3.9461-1.0938,5.7812-6.4575-.9416-12.887-4.0278-19.219-4.875-.012-2.3416-.5798-4.8447 .4376-7.0625 .4472-1.7505-.7855-2.8388-2.6876-2.5938-5.8861-1.0786-11.945-1.6728-18-1.6875zm-.5,11.969c3.2013-.2403 6.4402,1.4876 9.5938,2.875-.056,.6302-.012,1.2746 .1562,1.875-6.6858-.6871-13.325-1.391-18.937,2.1562-.095-.2701-.1818-.5416-.2813-.8125 2.8822-1.7227 5.3915-4.0529 8.0937-5.8438 .4608-.1243 .9129-.2153 1.375-.25zm221.53,1.9375c2.9038-.0597 5.8329,1.0609 8,3 .6577,1.8248 .8695,3.8635 .625,5.8125-4.1733-3.129-9.0952-5.0682-13.844-7.2188 1.5895-1.0571 3.4085-1.5565 5.2187-1.5938zm-11.531,11.25c.3415,.3877 .6935,.7652 1.0313,1.1562 3.0496,1.9819 7.2572,3.3639 10.844,5.3125-4.858,.7952-10.013-2.1224-11.875-6.4688zm-166.44,40.656c-15.217-.074-31.446,2.7245-41.781,14.688-14.415,14.446-19.182,37.423-11.469,56.25 .012,.0302 .019,.0635 .031,.0937 1.2269,3.4534 2.937,6.9531 5.2188,9.875 .027,.0349 .066,.059 .094,.0937 4.3847,6.6413 11.011,12.598 19.125,11.594 3.3858-1.0843-1.3542-3.316-2.5937-4.4062-1.1831-.419-2.3593-.9003-3.4688-1.4688-.3266-1.1385-2.3147-2.7944-2.9688-3.6562-2.2343-1.3415-4.2724-2.9861-6-4.875 2.001-.2172-.5649-3.7611-1.0937-5.1562-.7273-.8028-1.4008-1.627-2.0313-2.5-3.3011-13.388 .7415-27.171 8.375-38.562 .033-.0412 .061-.0839 .094-.125 2.4525-3.0542 5.2136-5.8758 8.1875-8.4375 7.5881-4.9379 16.404-8.2184 25.062-9.625 4.6668-.991 9.7134-2.1129 14.625-2.0938 2.7928,4.0901 4.6396,9.1142 6.75,13.25 1.3121,2.6872 .6511,8.8457 4.5938,8.9062 .2952-.4672 .5291-.9447 .7812-1.4375 .057,3.0435-.5832,7.0922 2.5625,7.7812 1.045-1.0911 1.9209-2.3362 2.6875-3.6562-.086,1.4526-.1705,2.8856-.1875,4.25-.09,2.9871-3.524,8.0346-.062,10 11.876-6.5852 15.825-26.992 3.6875-35.875-.9456-.7767-1.9773-1.4409-3.0625-2-2.0512-3.758-5.2454-6.7759-9.5938-8.2812-.5799-.2386-1.1779-.4578-1.7812-.625-2.3688-1.9333-5.2169-3.2795-8.5-3.7188-1.3986-.269-2.8286-.3322-4.25-.25-1.0034-.0288-2.0168-.0263-3.0312-.0312zm207.47,15.719c1.1487,2.4349 1.4183,5.2461 .25,7.9688-.4049,1.2092-1.0283,2.2261-1.7813,3.0938 .627-3.6744 1.1363-7.3643 1.5313-11.062zm-346.66,28.844c2.3648,11.431 7.734,22.42 12.5,33.188 5.4683,10.873 14.079,19.848 21.406,29.406-14.08-13.186-27.303-28.833-32.469-47.531 .0994-1.2052 .1801-2.4086 .2188-3.5938-.1995-1.1827-.7844-1.9345-1.5625-2.375-.1063-.6061-.2237-1.2315-.3125-1.8438-.3172-2.4608-.1798-4.8648 .2188-7.25zm327.31,2.5312c.1208,.1653 .229,.3322 .3437,.5-.1036,2.1066 0,4.2261 .8437,6.375 .3115,1.2747 .3889,2.4973 .3126,3.6875-.081,.1515-.1586,.3166-.25,.4688-.8463,3.3741-4.2454,4.2849-7.125,5.5625 4.3717-4.3995 4.2505-10.848 5.875-16.594zm-108.5,6.5625c-1.3437,4.1192-3.5963,7.912-6.875,11-15.221,18.002-38.483,26.172-61.969,26.781 11.358-2.7992 22.336-7.2701 32.75-12.75 13.458-5.7748 26.105-14.174 36.094-25.031zm111,.375c-.032,.8019-.166,1.6098-.4688,2.4375 .05-.824 .1901-1.6518 .4688-2.4375zm-127.56,.7188c-8.5308,10.995-20.088,19.438-32.906,25.312 6.0286-3.6971 11.82-7.8595 17.312-12.344 5.5341-3.8319 10.784-8.1699 15.594-12.969zm92.563,58.562c-10.972,2.695-14.181,15.712-23.469,21.062-4.8407,6.4574-10.944,12.533-19,14.312-4.5824,2.2065-10.142,10.554-4.5,14.281 .7289,.0601 1.4237,.0747 2.125,0-5.4922,4.445-11.85,8.0336-19,8.1562-4.9298,1.2507-12.038,8.3187-7.25,13.094 6.2823,1.8239 12.586-2.3597 18.594-3.5625 17.14-6.3765 32.783-18.142 42.594-33.375-1.1703-1.5846-3.4025-2.0689-5.2813-2.375-.043,.002-.082-.002-.125,0 5.5422-5.1867 10.449-11.057 14.438-17.438-.1913,1.9447 .3758,3.7554 2.125,4.625 4.2938-1.1653 7.8654-7.7987 4.9062-11.375-.1879-.0847-.4189-.1297-.625-.125-1.1036-.0884-2.1232,.2521-3.0312,.875 1.1433-2.2391 2.2155-4.5434 3.125-6.875-1.4621-1.3202-3.7229-1.355-5.625-1.2812zm-360,50.719c2.2227-.1433 4.4741,.3866 6.4062,1.8125-.6862-.0341-1.4353,.2923-2.2188,1.1875-3.3587,2.4342-7.8616,2.1706-11.75,.5312 1.9654-2.0435 4.7295-3.3485 7.5625-3.5312zm338.06,4.4688c-4.4773,.2357-8.8789,6.7166-5.4374,9.9688 4.4483,.1825 9.7133-5.0723 7.875-9.375-.1568-.1374-.3321-.2549-.5313-.3125-.6204-.2499-1.2666-.3149-1.9063-.2812zm-49.812,15.312c0,.006 .023,.0279 .031,.0312 .01-.004 .039-.015 .031-.0312-.027,.003-.06-.006-.062,0zm20,1.375c-8.7873,.4097-16.525,7.4459-25.563,7.5938-7.2906,3.3005-15.511,5.632-23.469,3.2812-5.0828-.2926-13.914,4.3154-10.656,10.312 5.5196,3.6327 12.74,1.5557 18.844,2.2188 18.24-.9168 36.563-7.4277 50.25-19-.6793-1.864-2.6884-3.0169-4.4062-3.875-1.7133-.4632-3.3728-.6071-5-.5312zm-7.125,88.125c2.4385-.0128 4.8692,.8313 6.5937,2.5312-3.0457-.0118-6.2351-1.2607-9.3437-2.125 .8944-.2483 1.8216-.4014 2.75-.4062zm-99.375,20.406c2.8998,.1412 5.8219,.3506 8.75,.5312-2.4065,.3824-4.8112,.7918-7.1563,1.3438-.2066,.3665-.3239,.7457-.4063,1.0938-.5126-.9034-.8532-1.9434-1.1874-2.9688z"/>
</g>
<g transform="matrix(0 -1 1 0 -191.243 2138.07)">
<path fill="#f33" color="#000" d="m1880.6,191.47c-12.406,2.9309-25.482,4.917-36.344,12-6.966,.8177-13.59,3.6653-19.216,7.5712-3.4238,1.186-6.4868,2.5048-9.4403-.1962-10.629-3.2905-18.889,6.6841-27.656,10.688-5.1922,2.9922-9.8193,7.9062-12.938,12.438-6.1719-2.2587-13.984-2.9182-18.334,3.1095-6.1092,6.5474-15.418,9.7105-19.447,18.266-1.6638,2.2894-2.8375,6.0769-6.4376,4.5-5.7397-1.287-12.288,.3992-14.875,6.0625-7.2404,8.5386-14.434,17.52-18.17,28.086-4.7012,4.8176-8.2366,10.784-10.112,17.101-2.0992,2.3797-2.666,6.7977-6.75,6.25-9.1973,1.4403-10.411,11.9-13.719,18.812-2.8639,7.7921-6.3623,16.563-4.875,24.75-7.3731,1.1952-13.638,7.5886-12.875,15.344-1.7829,10.942-6.1862,23.615-.2187,33.938 1.5308,1.635 5.2682,1.6086 3.375,4.625 .292,7.7032-8.1279,11.666-7.1563,19.438 1.1543,8.9014 2.3184,17.644 1.9376,26.688 .3621,29.019 5.1196,58.015 15.915,85.031 9.8251,26.841 24.255,51.792 41.96,74.187 3.948,7.9362 7.1737,20.097 17.781,20.625 2.6535-1.4088 4.8362,.1779 5.9375,2.5312 1.5138,1.7466 6.2371,2.7249 2.5937,4.875-4.1737,4.6707-3.1522,12.569 2.6876,15.375 14.327,11.967 32.398,23.541 51.844,21.094 1.9154-3.1619 4.1921-.8121 6.7813,.2188 2.7325,.7692-1.5241,4.4915-.5938,6.8438-.5728,8.5994 9.6547,9.9471 15.625,12.562 11.037,4.0027 23.14,5.8457 34.625,5.75 4.6003,8.268 15.558,6.1067 23.375,8 6.0529,.6632 12.514-.1602 18.344,.2188 4.5399,8.6891 15.963,5.236 23.812,5.5 15.08-.9568 32.177-4.5174 41.969-16.938 .9843-2.3152-.7131-4.4327-1.625-6.4062 1.5536,2.6182 5.5101,1.9093 7.3438,2.6875-.3815,6.9494 7.1568,13.652 13.867,9.9738 14.056-3.8949 28.259-9.7216 39.07-19.568 8.6129,4.0552 16.06-4.4521 23.279-7.8834 12.486-8.1457 25.864-19.429 27.596-35.117-2.6465-7.493-11.544-4.6903-17.437-5.2188-7.5217-2.1454-19.682,1.8257-18.031,11.375 .5506,4.9503-7.3078,8.3098-9.2813,3.0938-4.8533-5.8811-14.625-5.2394-18.768,1.1544-6.9473,7.7243-15.8,13.755-25.701,16.658-3.7596-4.681-11.231-4.8022-16.156-1.375-7.1303,4.8511-14.876,10.548-23.719,10.625-7.5881-3.8412-16.376,.3094-24.25-2.5625-9.1251-1.5747-19.014-.7685-27.281,2.8125-1.8713-1.2971-4.988,.2665-4.5937-3.25-5.6965-9.4567-18.475-6.3621-27.062-11-20.068-6.8585-37.622-20.284-58.03-26.098-3.8278,1.5092-2.5046-5.3082-4.8767-6.8087-5.7347-8.637-17.394-8.267-24.75-14.688-5.6628-1.8774-3.9634-8.8537-7.9376-12.469-5.5085-6.503-12.237-12.356-19.812-16-6.6656-8.3897-9.4623-19.24-16.5-27.469-6.3552-10.769-8.9922-24.589-18.406-33 2.5599-5.9958 2.6156-12.877-1-18.562-4.1148-5.9329-7.0941-12.285-8.6839-19.284 .607-3.7776 3.6632-8.1088 2.7152-12.622-1.3531-7.6892-1.506-16.182-6.0626-22.656 .3742-11.083 5.1726-22.001 3.9063-33.406-1.2243-6.4493 4.6002-11.135 3.6563-17.594 .2516-4.5612-1.9581-9.2849 1.25-13.156 2.037-3.9015-1.2865-9.1261 3.5937-11.156 6.648-7.0945 8.4679-17.217 10.625-26.281-.1474-3.368-4.1972-6.1054-.375-8.875 8.0889-9.7021 17.786-17.989 27.437-26.156 12.272-9.8877 26.402-17.739 38.188-28.188 2.0803-3.9974 6.1623-6.7343 10.75-5.3125 13.71-1.0992 27.475-4.5357 39.781-10.562 1.3151-1.9775 2.1687-2.9013 4.3437-1.1875 11.898,4.7166 24.172-2.1543 36.344-.7812 5.6182-.1347 9.1727-6.1124 14.844-4.75 4.9091-.6924 9.7877,.1534 14.062,2.4375 6.8622,.5866 13.624-1.6986 20.375,.4688 5.1096,.5098 10.767-1.1933 14.781,2.6562 5.8876,2.2383 12.974,.0108 17.875,4.8125 7.4894,3.6429 16.965,3.6166 24.125-.2188 2.496,.566 4.3693,2.1269 2.1562,4.3438-1.5613,6.624 4.7635,11.698 10.719,12.562 10.152,4.4542 18.405,15.879 30.625,13.875 2.7381-1.9174 4.1814,3.3584 6.5624,3.8438 3.6926,1.8519 3.5958,5.9674 5.3438,8.9688 6.3963,6.3501 15.456,10.462 18.659,19.563 3.0376,7.6262 9.9582,12.798 17.404,15.468 2.6116-.6482 4.9402,1.9361 3.9687,3.9375-7.4997,1.3779-7.9131,11.846-3,16.375 5.862,10.182 5.4832,24.632 16.281,31.406 .066,2.6531 .7794,5.6111 .625,8.0625-6.6158,3.9895-3.5611,12.29-3.6875,18.531-.1982,9.1919-4.1513,18.952 .2188,27.719-1.042,3.5978-.072,8.8987-2.875,11.5-10.058,2.2433-12.029,17.421-4.0626,23.156 1.1685,3.4143 5.059,4.8449 8.125,5.4375-1.5006,3.0586-2.2179,8.1171-6.4687,7.5625 1.2328-8.2264-10.258-10.527-15.938-7.375-11.026,5.1156-15.714,17.425-25.219,24.562-4.5293,6.5197-12.1,8.8413-18.625,12.656-5.1372,3.6428-7.9747,10.653-6.0312,16.781-7.9844,3.0897-18.852,3.2229-22.656,12.406-1.8905,3.7168-1.7378,8.4393 .625,11.938-8.6098,3.0748-17.666,5.2167-26.688,3.2812-4.631,.0957-8.4595,3.4432-11.969,5.6875-8.0906-3.1007-19.867-2.9009-24.469,5.625-.414,4.3008-5.1765-.1883-7.4083-.5122-7.3217-4.6227-18.473-5.1948-23.873,2.5122-2.2117,1.3677-.4473,7.4741-3.924,4.7687-8.1225-2.7124-15.636-6.6811-21.201-13.269-7.4794-5.6657-22.271-2.3168-22.031,8.5 3.9,12.306 17.092,17.848 27,24.375 14.334,7.0781 31.232,13.111 47.188,8.8438 3.1137-2.0285 2.4661-6.7266 2.3437-9.25 2.924,.9237 8.8815-.6217 6.7187,3.9688 .397,10.3 15.071,11.836 20.938,5.1562 2.0314-2.0199 3.2318-5.0174 2.5937-7.875 2.865,.2131 7.7021-2.0992 9.4687-1.0312 .3832,8.9835 11.459,12.657 18.938,10 44.42-5.4431 89.43-22.414 119.75-56.441 11.574-13.247 19.675-29.441 24.374-46.309 .4183-7.4034 3.7781-13.671 7.125-20.125 8.0637-17.341 9.9634-36.462 10.062-55.375 1.214-13.759 1.1674-28.008-1.9374-41.469-3.9064-10.844-9.7538-21.053-13.673-31.803-4.5019-6.7479-7.0243-14.472-7.6396-22.51-4.5088-18.954-15.678-35.369-27.053-50.851-10.602-15.584-23.202-31.456-41.423-38.336-7.4627-3.3455-15.399-5.5875-23.43-7.0939-10.107-16.099-20.845-34.639-39.531-41.562-4.2062-.8101-8.3821,4.2054-12.156,1.9688-3.5626-8.1866-6.4342-21.184-17.438-21.688-7.4886-1.0338-10.701,7.6489-9.0625,13.5-1.755,3.3362-5.4622,1.0607-7.625-.4375-4.2628-2.2049 1.8896-5.2455 2.8125-7.8125 4.2256-5.74-.9827-12.701-7.0938-13.906-9.2509-2.1281-18.456-6.7676-28.125-3.7188-4.3307-.2038-9.5398,5.6342-12.687,1.0625-2.6709-3.0738-6.0658-6.2983-10.5-5.5938zm30.062,62.719c1.9973,1.7513 5.9091,3.8411 6.6876,5.4062-2.2581,2.005-4.0059-3.1705-6-4.1875-.093-.1358-2.0746-2.3129-.6876-1.2188zm-45.156,2.5938c.2614,.9382-4.4331,2.9105-5.4062,5.0312-1.8305-1.0711-4.3009-2.0015-1.0313-2.6875 2.1356-.7857 4.2782-1.7466 6.4375-2.3438zm8.25,54.875c-5.8157,.4539-11.646,3.5612-14.375,8.625-3.1042,.517-6.4743,5.3372-9.2188,3.7812-6.5355-7.1402-16.991-1.8168-22.937,3.375-8.1888,6.4897-14.693,15.595-25,18.906-5.7988,4.5158-8.8628,11.74-15.281,15.5-5.8569,6.8566-9.2832,15.733-13.438,23.281-10.601,2.2492-12.054,15.23-14.031,23.969-.7651,8.3911-2.4738,16.693-6.7813,23.938-2.3323,9.104 1.9866,18.727-1.5,27.656 .06,15.268 7.0147,29.613 13.656,43.031 9.8586,18.69 27.443,31.909 45.542,41.996 6.2634,3.5235 13.866,4.9887 18.177,11.254 2.4757,3.0593 6.3226,1.5216 9.3437,2 9.0676,7.6143 18.927,14.824 29.688,19.812 3.9724,1.068 9.2597-.0133 10.75-4.3438 9.7993,3.4174 21.169,10.511 31.469,5.1562 1.5269-1.5948 1.6127-4.4622 4.4279-2.3933 7.107,1.2542 18.408,2.2887 21.01-6.4192 1.2159-8.4595-9.0561-13.07-16.156-11.375-10.526-.6989-21.22-7.3129-31.719-2.7812-1.7552,2.6683-3.8719-2.0833-6.4062-1.5312-4.8661-.5676-8.258-3.8654-11.156-7.375-6.2535-5.0724-15.809-2.9321-21.031-9.375-4.8878-2.7014-9.3074-6.0535-13.094-10.031-2.425-1.3195-5.8879-.304-6.0625-4.0938-1.886-4.4626-7.1809-7.1672-6.125-12.469-.5824-7.4331-7.1107-12.141-10.375-18.094-.3483-8.3095-5.7668-14.728-9.7188-21.594 7.3979-12.222-.7302-26.245-4.0312-38.219 .8002-4.946 6.184-7.9412 5.9062-13.469 1.3007-7.7674-.6665-16.631 3.1876-23.719 5.8401-3.5716 6.0082-11.862 12.156-14.812 6.703-.0377 14.81-1.9603 17.5-9.0312-.1332-4.1924 1.9917-4.099 5.75-3.75 6.9687-.4127 13.976-.3895 20.375-3.6562 9.3894-1.9002 19.473,.3705 28.625-3.125 3.4419,1.5987 8.6581,.1266 11.25,2.5312 2.6231,8.8889 13.226,10.446 20.562,13.656 8.0504,1.7788 13.834,7.8248 21.062,11.281 6.5813,5.7379 10.557,14.51 17.875,19.656 5.8632,8.4125 .5222,19.193-2.625,27.625-1.3455,4.12-2.7125,5.5548-2.5938,.0937-1.9048-15.855-14.54-28.008-28.344-34.812-16.003-10.815-36.865-8.4157-54.037-1.8547-33.786,11.722-46.444,59.075-25.151,87.105 5.8099,9.1409 17.199,15.693 27.938,12.5 15.276,6.6258 27.649,18.374 43.486,24.039 18.768,7.9321 41.567,12.794 60.701,3.3989 10.582-5.6226 16.968-16.909 19.062-28.281 3.6275-6.7272 9.7022-12.602 9.2723-20.895 2.5185-11.822 4.9705-24.134 .9631-35.952-3.8279-12.957-8.7301-25.758-14.547-37.832-5.967-9.5398-10.255-19.736-14.438-30.071-2.7476-5.8399-9.9522-11.415-16.125-9.0938-.6411-2.7263-3.78-4.5925-4.5937-6.625 3.5-3.4296 5.2742-9.4388 1.0624-13.25-17.059-18.113-40.527-33.169-66.375-31.938-3.6293-.8836-6.7543,2.389-8.5312,4.125-2.2724-5.6562-9.802-6.3065-15-6.0312zm30.2,110.09c4.2212-.1099 8.9365,1.5698 9.375,6.3125 1.3522,4.4401 1.9467,9.6022 5.5624,12.781 .6571,3.5927 4.7579,5.369 3.375,9.2812-.144,3.4264 2.428,6.4595 4.375,8.4688 .4125,2.9316-.3726,4.6711-2.5624,6.6562-2.2948,3.0989-1.7053,7.8886-.2188,10.5-8.9623,4.8277-19.583,11.415-29.875,6.7188-9.78-2.7809-18.48-8.9645-23.406-18-3.2332-3.8319-8.516-6.2895-7.5313-12.156 2.4885-14.395 15.142-25.415 28.906-28.875 3.9377-.9244 7.9504-2.1309 12-1.6875zm121,159.16c1.9054,2.8885-5.2072,1.9505-1.4536,.5192 .2703,.365 1.4142-1.5278 1.4536-.5192zm-17.969,25.188c1.257,2.1223 6.0036,3.1532 2.8438,5.6875-2.192,3.6067-5.6539,.8055-8-.875-1.3876-.645-4.7394-1.137-1.5625-2.0312 2.2411-.4147 4.8051-3.212 6.7187-2.7812z"/>
<path color="#000" d="m1878.7,201.91c-12.052,2.3447-23.423,6.9609-34.719,11.625-10.204,1.9258-19.796,12.491-30.75,7.2812-7.6982-1.8465-12.648,6.5822-19.469,8.6875-7.403,4.7928-12.759,16.658-23.25,13.5-4.8084-2.1529-8.1334,1.6495-11.094,4.7188-6.6614,5.1345-13.327,10.198-17.188,17.781-3.9565,4.9988-10.738,4.8349-16.281,4.125-5.0251,3.9296-7.9883,10.225-11.969,15.219-7.5227,11.177-13.745,23.157-20.156,34.906-2.5658,4.9294-8.1378,6.506-12.438,8.9062-3.7775,5.2719-4.3962,12.15-7.625,17.781-2.5536,7.6086 .5656,18.954-7.9374,23.312-3.3014,1.438-7.7481,3.0836-6.5938,7.5-.8166,8.4515-4.7937,17.173-2.125,25.531 6.2745,5.1713 7.7961,14.373 3.2812,21.156-3.0135,5.1255-6.8633,10.925-4.2278,16.993 2.1435,24.182 .9365,48.762 7.2407,72.292 8.9447,38.717 29.05,74.1 52.487,105.84 2.1195,4.5287 3.4421,12.565 10.25,11.406 8.1098,1.4129 15.485,8.7382 16.844,16.75 .4118,3.5167-6.1066,6.7756-1.7593,9.042 11.119,9.017 23.968,18.586 38.978,18.396 7.1806-1.8426 16.319-2.4957 20.875,4.6562 2.9633,3.4769 2.4724,8.7789 2.0937,12.562 13.664,7.017 29.209,6.6694 43.844,10.031 10.293,9.5159 25.131,4.42 37.625,6.7812 5.5918,1.1408 9.2157,6.9506 15.344,5.6875 13.333-1.4676 28.833-1.1596 39.188-10.938-.6398-3.2101 .7456-6.5706 2.9687-8.875-10.96,3.709-22.404,.5401-33.594,.1562-9.1888-1.4256-18.657-1.837-27.281,1.6875-7.3099,1.6201-14.095-3.0428-17.781-8.9375-6.4713-2.9897-14.18-1.8701-20.689-5.4701-20.999-7.892-39.751-21.381-61.436-27.53-5.0352-3.1883-3.797-12.07-10.875-12.656-10.454-4.0309-23.088-9.252-25.812-21.406-7.0897-11.626-23.416-14.935-27.654-28.836-8.5234-14.085-15.892-28.845-23.235-43.458-4.8133-5.2341-7.7806-12.55-5.1744-19.518 .2661-8.4442-8.5303-13.778-9.5312-22.094-2.3712-6.8593-.6709-14.04 .9062-20.75-.4369-11.397-8.7485-22.144-4.6945-33.765 2.3718-9.5842 2.5169-19.537 3.3195-29.173 3.221-6.8062 2.7207-14.423 3-21.531 1.7272-8.0316 2.2182-17.249 9.1562-22.781 4.9397-6.6362 5.9504-15.317 4.5-23.219 .116-9.5971 9.5894-14.9 15.156-21.406 15.216-14.979 33.5-26.26 50.191-39.407 6.193-5.6138 12.763-12.625 22.026-11.993 14.803,.794 28.227-6.0463 41.408-11.725 6.7321-.2474 13.178,4.4932 19.856,1.4017 3.359-.7128 8.8601-1.0007 10.956-1.5892-8.8288-2.6838-9.6309-15.812-1.5625-19.938 5.7827-3.2765 15.555-6.2907 19.844,.8125 3.9851,5.0361 .9705,13.954-3.6874,15.781 7.953-3.6115 16.684-1.5966 24.531,.6562 5.2648,.8509 10.697,.0269 16.031,.0937-6.8253-3.7571-13.198-13.189-7.4374-20.5 6.0443-7.3619 16.756-1.2703 21.406,4.6875 4.5103,5.0412 3.4439,14.461-3.3125,16.938 10.715,2.5706 21.809,3.685 31.688,8.875 7.9532,3.3487 16.913-5.0971 24.812,.3438 4.9957,2.6312 5.2299,9.0396 5.2187,13.688 7.8234,3.673 15.661,7.8921 22.156,13.406 6.821,2.2478 15.192,.0193 20.406,6.25 5.9133,5.2547 8.0037,13.778 15.312,17.375 7.0568,5.3799 11.252,13.257 15.313,20.844 7.2415,5.4032 23.076,8.1413 18.937,20.75-.4662,3.2156-4.1691,5.3231-5.1874,7.5938 2.7126,5.4459 6.723,10.544 6.9374,16.906 1.7603,7.3827 7.4166,12.848 11.438,18.812 3.0023,7.0174-.4018,14.425-2.9159,20.781 .8189,8.8527-.6257,17.724-1.2017,26.401 1.3849,9.7638 3.6724,24.025-6.9137,29.63-5.0191,1.3221-3.5123,7.6696 .3125,9.375 5.7368,2.4636 10.681,8.1233 8.7812,14.719-1.4922,9.4994-13.851,17.762-22.094,10.594-2.668-.9593-1.5902-7.6803-4.9375-5.5938-12.356,7.2045-17.778,21.922-30.062,29.469-4.1755,3.6544-10.686,4.3162-14.188,8.5625-1.6603,5.1915 .139,12.455-5.875,15.531-5.3908,4.1859-15.224,1.927-18.219,8.9688 .8844,4.9077 2.5846,11.194-2.7812,14.312-9.2687,7.4452-21.699,5.724-32.719,6.5-4.6009,1.067-8.1689,5.9384-13.469,4.4375-5.1493-1.2009-11.815-3.1236-15.094,2.5938-3.959,7.1556-13.41,5.7593-19.219,1.8438-3.7596-2.4253-10.237-4.188-12.125,1.4375-1.841,8.5493-12.522,8.7515-18.719,5.0312-6.8563-2.278-12.646-6.3778-17.687-11.5-1.5846-1.602-5.8701-3.3408-7.4063-1.7188 10.964,12.979 27.645,19.512 43.531,24.219 3.8316,.5106 9.4761,2.1428 12.531-.25 2.568-11.847 21.075-12.795 25.781-2.0625 1.193,1.9615 .9314,7.9815 4.1563,4.9062 2.3812-2.5737 1.3745-6.9672 5.1875-8.6875 7.5271-6.4402 22.377-4.4405 24.812,6.25 3.2606,2.7177 8.1503-.4974 12.018-.0663 10.189-1.6652 20.198-3.7539 30.138-6.4962-8.2858,.9788-19.315-4.3131-20.031-13.406-.076-6.779 6.0988-10.837 11.875-12.469 12.003-6.1137 25.456,11.452 16.531,21.344-1.0883,1.7926-7.4764,4.5703-2.9841,2.9795 36.156-10.831 71.326-32.885 88.453-67.636 6.359-13.002 8.125-27.894 14.719-40.938 10.696-23.158 9.4637-49.444 9.8438-74.438-.2685-20.713-13.542-37.594-20.188-56.531-4.2362-12.601-5.5723-26.205-13.099-37.537-9.3509-15.476-19.772-30.442-31.713-43.963-10.937-11.756-26.072-17.593-41.375-21.188-9.9191-2.7127-12.577-14.036-18.73-21.006-5.6155-7.8702-12.522-16.641-21.801-19.588-7.2404,3.5944-17.744,2.0021-20.625-6.4688-2.3714-4.2746-2.2477-10.285-6.5313-13.25 .2335,7.0247-4.3279,14.684-12,14.562-10.228,.9882-21.126-10.741-14.781-20.375 1.8527-2.0358 4.3906-4.2217-.2236-4.5219-8.914-3.6825-19.244-5.0451-27.995-.5718-6.6718,1.7471-13.757-1.5016-17.562-6.7188-.8094,.0607-1.6022,.3734-2.4062,.5zm-2,119.5c-10.737,.4373-15.899,15.11-27.5,12.656-3.8031-.9354-8.0874-5.8142-11.563-1.5625-11.294,7.2859-19.799,18.544-31.912,24.721-7.4713,7.93-15.776,15.388-19.776,25.873-2.6847,5.977-7.6566,10.482-12.688,14.25-5.8229,10.515-2.586,23.582-9.0937,33.875-3.7571,10.432-1.0705,21.656-2.3558,32.469 .535,14.547 7.3173,28.107 15.043,40.25 10.956,16.956 28.095,28.335 46.005,36.85 5.1837,1.9544 8.9861,6.755 13.892,8.5693 10.383,.6851 16.516,10.699 25.26,15.143 3.4103,1.7187 7.6727,6.5632 11.125,2.1562 .7734-1.4516 6.2889-1.7045 3.2188-2.4375-5.9137-1.7598-10.459-6.0984-15.094-9.6562-7.3888-2.1497-15.426-3.7887-21.042-9.704-7.3053-6.4218-17.421-9.6392-21.78-18.887-3.836-5.0761-4.6882-11.512-6.678-17.221-4.3502-4.6951-7.8243-10.065-9.0937-16.375-2.1366-8.3384-10.86-15.092-8.0937-24.531 2.8265-5.9829 1.8407-12.617-.7114-18.473-3.5335-8.3857-6.3035-18.918 .086-26.746 4.4008-7.4893-.2514-16.333 3.3437-24.125 2.5276-8.0175 7.9512-14.756 13.156-21.156 4.4262-4.7701 11.087-6.1855 17-6.875 3.046-4.345 4.8671-11.024 11.375-11.188 7.1263-1.2382 14.734,.667 21.25-2.9688 12.329-2.6514 25.162-2.1435 37.594-3.5938 7.8594,.1825 14.267,5.4578 18.625,11.406 9.3282,5.3665 20.718,6.4166 29.226,13.463 11.313,7.7521 19.834,18.941 27.993,29.662 6.5788,13.25-.3533,28.365-6.8437,40.188-6.6928,7.4374-20.246-.0631-18.594-9.6562-2.5297-16.532-18.813-26.646-33.594-31.281-23.88-6.11-53.178,6.3728-61.062,30.594-6.4834,17.901-2.6428,41.076 13.656,52.375 7.3844,2.7037 16.481-.7889 22.804,5.1556 22.086,13.01 44.859,29.087 71.634,28.094 12.477-.0839 26.151-7.043 29.113-20.182 2.5797-8.5541 8.2373-15.899 10.824-24.256 4.5571-16.478 3.1869-34.333-4.2188-49.75-7.5177-17.858-16.716-35.054-25-52.438-4.8711-2.645-12.109-1.4982-15.125-7.375-4.5632-4.6715-4.8775-12.393-2.0312-17.656-14.826-15.412-34.948-28.511-57.031-27.281-5.5468,3.5443-13.593,4.6465-18.188-1.0312-.8608-.736-1.9957-1.5997-3.1562-1.3438zm27.594,90.062c11.062-.4719 19.766,9.7112 20.5,20.094 3.7744,5.8849 7.0309,12.308 8.5937,19.031 4.1969,5.7708 4.5639,14.618-.5624,19.969 1.6209,5.9201-.2996,12.785-6.375,15.188-13.41,9.2739-32.113,11.099-46.125,1.9688-10.852-6.6984-19.409-16.841-25.969-27.656-4.6996-12.977 4.3522-26.289 13.469-34.812 9.995-8.7456 23.218-13.574 36.469-13.781zm-8.2187,153.94c-2.7809,.152-7.8562,.4848-9.2188,1.3438 5.1655,1.9264 11.053,6.3696 16.656,4 .5669-2.0202 6.3709-2.9712 2.25-3.75-2.9861-1.452-6.3867-1.6459-9.6874-1.5938zm128.97,5.2812c10.988-.3959 13.156,16.468 4.25,21.062-8.242,5.2595-19.349-4.0697-16.312-13.094 1.7733-4.8479 7.0524-7.7469 12.062-7.9688zm9.9063,84.281c-2.927,2.2983 .038,7.3875-2.9376,10.094-5.6891,9.0474-20.26,9.0627-26.344,.9062-5.4496,2.3743-7.7533,8.8649-13.23,11.486-8.1886,6.6493-20.377,12.629-30.396,6.5457-4.8847,.2563-8.6254,5.2496-12.125,7.1875 7.2426,.8039 15.207,5.1368 16.719,12.562 5.7075-1.3934 11.18-3.8989 16.688-5.9375 8.7804-3.6042 16.046-11.049 25.094-13.5 10.08,1.5514 17.331-7.7469 25.406-12.25 5.8328-4.4842 11.446-9.8248 14-16.812-4.2911,.0398-8.6009-.1633-12.875-.2812z"/>
<path fill="#000080" color="#000" d="m1876.8,212.59c-19.722,4.0731-37.152,16.06-56.969,19.656-4.8842-.5504-10.641-2.7176-14.312,1.75-11.021,6.3467-18.988,20.48-33.313,19.438-6.4787-1.6808-9.4052,6.0884-14.625,8.7188-6.4586,8.1958-14.356,19.642-26.437,17.5-4.7765,1.5378-5.5982,7.7846-9.175,11.116-9.4338,13.621-14.904,30.571-27.044,41.946-4.1706,1.6751-8.3695,4.342-8.75,9.1875-5.6682,11.197-1.426,27.09-13.125,34.969-5.6547,2.7064-4.4656,9.7715-6.375,15-1.5677,4.72 1.1686,8.883 3.9688,12.375 1.5623,3.0552 1.0754-6.4839 2-8.625 .7482-10.233 6.291-19.218 12.25-27.125 1.8687-10.434-1.1086-23.509 8.2621-31.181 22.018-24.254 50.328-41.511 75.644-61.819 12.939-5.4935 28.536-.9706 40.438-9.4688 8.6019-4.5559 19.553-6.4107 28.531-3.2812-2.3415-20.497 26.917-34.464 41.344-19.688 3.6287,3.1643 5.6799,7.9866 6.125,12.562 2.8483,.4008 6.2942,2.4544 5.125-1.9062 .092-11.98 12.158-22.785 24.156-19.031 12.611,2.3288 23.07,14.536 22.219,27.312 9.7925,2.3342 19.597,8.7099 29.812,4.7188 11.301-1.9551 24.913,5.5293 25.094,17.844 3.2913,3.6987 8.7325,5.1402 12.625,8.375 7.2886,5.7221 17.606,2.777 24.687,8.9688 8.4875,5.9544 11.772,16.49 20.528,22.165 5.869,4.489 9.3101,11.009 12.816,17.241 6.0847,5.8525 15.865,7.1924 19.906,15.344 4.9519,6.9169 3.1415,16.446-.5,23.125 3.9919,7.8076 4.3566,17.269 10.813,23.688 7.3688,8.0242 8.039,19.877 3.7812,29.562-3.194,10.615-1.5859,22.097-1.9688,33.093 1.0105,9.9674 .7977,21.004-6.5937,28.626 13.411,10.065 9.6484,32.837-4.8125,40.125-7.7164,4.3367-18.173,4.4807-25.25-1.2188-8.7519,9.7428-16.67,20.971-28.312,27.312 16.022,3.4607 21.42,27.191 8.25,37.125-2.1897,2.3852-5.9862,3.5393-8.3437,4.9062-.1778,4.9268 4.7974,.0695 7.3708-.4315 28.926-13.408 55.22-37.131 63.21-69.117 7.2113-22.112 18.578-43.752 17.465-67.67 1.1338-18.971 1.4853-38.928-8.1926-55.92-7.3425-15.392-14.403-31.105-17.571-47.925-8.5896-21.58-23.557-39.757-38.625-57.125-10.622-9.8295-25.076-13.484-38.469-17.531-15.895-8.0519-18.538-29.895-34.281-37.469-9.8746,2.9349-21.02-1.4118-27.188-9.4688-15.802,10.15-40.78-4.3565-37.656-23.5 1.6255-2.9285-3.7871-.9588-5.1874-1.375-8.8388,1.4533-18.82,5.8711-27.094,.0625-2.0554-.9581-3.8616-2.9261-6.25-2.9375zm-2,120.28c-8.4468,5.9706-18.732,15.067-29.781,10.469-2.5798-2.1607-4.085-2.1525-6.0938,.9375-2.1355,2.0256-12.367,9.6496-8.625,7.4375 9.6323-4.8534 20.826-1.9666 30.885-5.4354 12.967-2.2907 26.246-3.9086 39.396-3.0334 8.7765,.614 16.217,5.7839 21.875,12.125 6.4464,4.462 14.551,5.5753 21.5,9.2188-1.7718-4.5464 1.7103-10.967-3.4062-13.625-11.39-9.4887-25.598-18.443-40.938-16.562-7.6995,3.6301-17.224,2.7635-24.312-1.875l-.5,.3438zm-51.438,24.031c-1.6521,1.6823-10.289,7.3206-4.5625,5.0938 3.8853-.5982 4.6888-4.7236 7.0625-7.0625-.8333,.6562-1.6667,1.3125-2.5,1.9688zm-36.8,42.1c-4.3676,3.187-7.7162,7.8369-7.25,13.469-.6317,13.969-8.8834,26.651-7.4063,40.812-1.9077,25.774 12.45,50.109 32.562,65.25-4.0236-9.1682-10.192-17.158-13.095-26.861-3.1136-7.5124-9.1422-14.538-6.7827-23.225 1.6776-6.7905 1.7836-13.979-1.7781-20.195-3.8628-10.045-4.053-22.191 2.5312-31.125 1.4996-5.7644 .1159-12.803 1.2188-18.125zm198.84,27.688c-2.1099,11.815-7.195,24.252-16.938,31.625-7.1504,4.3871-17.077,1.2754-22.625-2.8438 2.4914,9.3305-3.2465,17.592-3.7188,26.75-3.6336,9.708-13.47,15.244-22.781,18.188 15.998,8.6864 35.726,16.722 53.719,9.5312 9.8716-6.3972 10.63-19.471 16.531-28.812 7.4877-16.181 4.9203-35.066-2.2702-50.796-.5344-.8417-1.6846-4.8114-1.9173-3.6415zm-317.56,5.125c-3.1863,3.4562-1.994,8.3092-1.6875,12.562 .5718-3.8814 1.6866-9.5594 1.6875-12.562zm.2812,46.219c.4417,2.1852 .6259,11.34 1.375,9.1562 .5392-3.544-.3677-7.1342-1.4687-10.438l.073,.9973 .021,.2839zm8.625,46.781c1.484,7.0753 1.5026,.5922-.5624-2 .1874,.6667 .375,1.3333 .5624,2zm325.66,61.25c-4.1083,.4818 2.5223,.5278 0,0zm-23.469,25.469c-4.5478,.9079-9.1979,.9295-13.813,1.1875 3.4302,1.7803 6.5951,4.228 8.8126,7.4375 1.8229-.9535 8.5182,.4964 7.4062-2.25-1.2681-1.7475-1.0767-5.5982-2.4062-6.375zm-253.5,5.34c1.0235,2.9927 2.6309,5.4502 6.1875,4.7188 1.3062-.418-4.2145-4.0005-5.7187-5.375-2.4332-1.9892-1.3628-1.1542-.4688,.6562zm27.031,27.938c.6907,3.5002-1.9391,8.1987 2.5938,9.625 7.5028,5.37 16.025,10.334 25.531,10.062-6.3057-1.9132-11.079-7.1543-13.094-13.188-4.7932-2.7356-10.664-2.9945-15.062-6.7188l.031,.2188zm59.656,33.969c1.54,3.2988 .4868,8.2139 5.5326,7.8363 5.5637,1.3397 11.255,2.0148 16.905,2.8825-7.6504-3.0915-15.301-7.184-22.438-10.719zm22.4,10.71c.1901,.1006 .058-.0186 0,0zm63.75,14.375c1.9801,.5981 5.0963,.543 6.5,.2812-2.0539-.1527-4.9897-.4528-6.5-.2812z"/>
</g>
</g>
</svg>
