<svg xmlns="http://www.w3.org/2000/svg" viewBox="0 0 161.3919 124.43358">
<g fill-rule="evenodd">
<path d="m108.04,.3026c7.672-1.573 14.23,3.536 20.957,2.796 5.608-.617 14.686-1.637 20.192,.867 6.064,2.758 8.485,14.889 9.474,21.114 .854,5.383 3.069,10.775 2.439,16.292-.782,6.861-4.954,7.353-10.765,9.835 5.148,5.991 14.333,13.363 9.856,21.498-5.612,10.199-15.243,5.741-23.637,10.894 4.092,6.745 10.933,12.068 5.215,18.703-6.877,7.981-17.245,10.989-27.067,13.602-19.014,5.057-38.194,7.32-57.83,7.32-11.16,0-33.688,4.817-42.14-4.771-4.598-5.218-2.164-12.355 2.106-17.018 2.06-2.249 17.312-9.436 15.311-11.761-.975-1.133-9.818-.9-11.413-1.015-4.205-.302-8.537,.038-12.703-.336-3.13-.281-8.112-1.323-8.039-5.688 .1088-6.401 13.167-10.976 17.896-12.724 5.864-2.167 15.609-2.099 14.259-10.219-.539-3.24-3.637-6.049-3.637-9.159-.001-4.416 3.106-4.339-1.722-7.23-1.7362-1.0395-1.752-2.7023-.921-3.726 .4155-.5118 4.1299-2.9731 9.3249-3.8438 5.0573-.8477 10.628-4.5564 14.481-7.5171 1.493-1.1473 13.121-1.6236 18.775-8.6202 .6256-.7741 18.809-8.4776 21.654-12.626"/>
<path fill="#00a0c6" d="m25.076,117.34c20.536-.221 41.66,.445 62.02-2.677 9.977-1.529 20.046-3.062 29.541-6.563 7.749-2.857 16.537-4.393 20.631-12.355 3.216-6.256-21.387-13.979-8.17-19.088 6.579-2.543 16.237-.167 21.819-4.627 .943-.754 2.5-2.555 2.775-3.76 .513-2.242-2.331-9.103-5.112-9.41-3.538-.391-5.513,.011-7.042,.636-1.804,.736-2.759,2.314-5.741,2.314-1.545,0-4.509-1.576-5.838-1.157-1.958,.617-6.35,9.113-8.134,7.99-7.631-4.804-7.627-.67-10.863,4.918-3.639,6.285-3.646,6.851-9.999,7.915-5.67,.95-11.906,.431-18.182,.965-4.354,.371-7.909,.875-11.867,.096-2.955-.582-5.329-1.326-8.421-1.445-3.492-.135-5.931,.354-8.709-2.023-3.718-3.183-8.143,3.703-10.527,1.792-3.217-2.577-7.44-4.771-8.983-8.658-.563-1.416-7.032,1.156-8.624,1.659-6.136,1.938-12.134,4.145-16.938,8.58 9.878,1.477 20.272-1.148 29.566,3.386 7.691,3.752 2.659,9.208-2.701,11.907-5.128,2.584-18.241,8.106-16.722,15.943 .68,3.505 3.517,2.619 6.221,3.662"/>
<path d="m68.713,112.72c10.485-.664 21.465-1.263 31.484-4.628 2.146-.721 16.948-6.177 8.039-9.93-2.66-1.12-10.73,4.061-14.067,5.012-5.912,1.685-12.009,2.298-18.104,2.913-8.693,.877-23.843,.153-7.352,6.633"/>
<path d="m74.073,101.63c4.229-1.001 19.233-2.13 21.053-5.688 2.234-4.371-2.581-5.232-5.314-4.523-3.333,.864-20.339,2.85-21.001,6.452-.488,2.65 3.195,3.783 5.262,3.759"/>
<path fill="#ffdb00" d="m72.541,77.335c3.907-.705 7.776-2.17 11.771-2.313 3.415-.123 7.42,2.334 10.479,.964 1.45-.649 3.095-1.508 4.688-1.688 4.066-.456 4.921-6.405 6.844-9.496 4.517-7.257 8.39-3.713 14.257-5.881 4.159-1.537 3.659-6.264 9.762-4.771 4.808,1.175 5.072-2.943 9.091-5.641 3.418-2.294 7.541-2.871 11.005-4.724 3.627-1.939 4.911-4.356 4.211-8.919-.38-2.479-.393-5.077-1.531-7.375-1.414-2.855-.093-4.347-.479-7.037-1.617-11.281-9.652-12.672-18.997-11.373-5.375,.747-8.364-.281-13.349-1.931-3.019-.999-5.655-1.62-8.756-.482-4.576,1.68-9.515,1.356-14.211,3.471-4.933,2.221-9.388,5.61-13.881,8.589-4.021,2.666-11.112,3.663-13.781,7.343-2.896,3.992-8.561,5.437-13.029,6.789-3.747,1.133-8.506,5.274-11.893,5.768-4.456,.648-4.884-.551-8.853,3.037 6.248,3.764 .128,5.893-.957,9.256-.529,1.639 .69,2.635 1.597,4.096 .79,1.271 2.561,3.195 2.901,4.677 .265,1.152-1.262,2.687-1.052,3.855 .262,1.459 2.197,5.966 2.919,7.521 1.778,3.831 2.695,3.49 5.406,.771 3.155-3.166 6.927,.171 10.623,1.061 .346,.083 .473,1.061 .957,1.157 1.555,.312 3.313-.637 5.072-.482 3.326,.29 6.547,2.301 9.186,3.758"/>
<path d="m77.805,69.718c7.88-2.566-2.245-13.036 .287-17.547 .716-1.274 6.359-3.42 7.772-4.274 4.23-2.556 8.907-4.213 13.472-6.041 8.703-3.484 15.877-9.274 24.527-12.544 4.044-1.528 17.528-4.837 17.484-9.919-.087-9.971-27.615,7.959-32.154,10.895-7.964,5.151-16.632,6.659-24.69,11.183-3.111,1.746-7.426,7.995-10.526,8.388-1.744,.221-6.723-4.067-9.474-4.531-4.54-.766-9.327,.356-13.755-1.188-5.421-1.893-3.171,3.646-.024,5.237 4.418,2.234 10.027-.922 14.028,1.302 7.183,3.992 7.279,4.851 9.426,12.824 .666,2.478 1.039,5.22 3.627,6.215"/>
<path d="m55.699,65.863c3.822-.734 10.837-5.86 3.637-8.004-4.829-1.438-8.452,6.488-3.637,8.004"/>
<path d="m47.086,62.006c.348-.991-.806-6.184-2.775-3.857-1.84,2.174 .896,4.624 2.775,3.857"/>
<path d="m96.944,58.052c4.175-1.239 8.313-.837 7.943-5.784-.151-2.032-.53-3.05-2.392-3.952-5.117-2.481-9.431,8.161-5.551,9.736"/>
<path d="m113.98,54.967c2.723,.187 7.065-3.434 4.593-6.17-3.032-3.353-10.581,4.434-4.593,6.17"/>
<path d="m133.69,44.942c1.975,.06 3.106-1.407 1.627-3.182-2.777-3.331-5.712,2.733-1.627,3.182"/>
<path d="m120.68,41.086c3.555,.081 2.651-4.725-.384-4.436-2.319,.221-2.275,4.008 .384,4.436"/>
<path d="m69.383,40.41c2.485,.334 5.986-.426 7.656-2.506 .909-1.132 2.543-6.942-.383-6.942-3.671,0-12.738,6.733-7.273,9.448"/>
<path d="m144.5,32.311c2.07-1.367 1.133-4.985-1.436-5.012-4.115-.042-2.462,5.791 1.436,5.012"/>
<path d="m90.915,29.612c6.157,.463 5.107-7.73 .383-4.916-2.164,1.289-2.656,4.106-.383,4.916"/>
<path d="m106.99,22.381c2.206-.709 2.539-4.063-.097-4.82-3.127-.897-2.508,4.417 .097,4.82"/>
<path d="m93.978,20.357c2.867-1.003 1.046-5.661-1.531-5.109-3.383,.724-.527,4.87 1.531,5.109"/>
<path d="m115.32,17.176c3.624-2.451-2.695-3.586 0,0"/>
</g>
</svg>
