<svg xmlns="http://www.w3.org/2000/svg" viewBox="0 0 451.28 363.4" xmlns:xlink="http://www.w3.org/1999/xlink">
<g color="#000">
<g transform="translate(-24.045 -372.34)">
<path fill="#4b1307" d="m272.35,451.2c-8.11,.75-13.88,2.55-15.36,6.49-2.12,5.31-1.87,16.72-.87,25.07 1.08,2.54 6.44,3.32 5.24,3.57-6.21,1.3-13.37,2.27-14.97,3.97-6.43,4.85-16.43,11.79-18.85,19.8-1.47,1.33-2.27,2.72-2.27,4.18 0,.7 .2,1.38 .55,2.05-.09,.34-.14,.69-.14,1.03 0,.78 .26,1.54 .69,2.28v164.93c0,.34 .05,.67 .1,.97-.06,.28-.1,.57-.1,.86 0,7.95 22.7,14.39 50.7,14.39 28.01,0 50.71-6.44 50.71-14.39 0-.34-.06-.69-.14-1.02 .26-.59 .41-1.19 .41-1.8 0-.96-.33-1.89-.96-2.8v-158.38c3.89-2.45 2.58-5.01 2.89-8.12 0-1.08-.46-2.11-1.27-3.12-4.29-8.91-10.35-12.9-15.64-16.51-4.48-3.06-7.93-6.2-14.03-8.25-2.44-.82-9.28-.88-9.79-1.77-.31-.99 2.41-2.27 2.79-4.09 1.61-7.74 1.54-18.31-1-25.21-1.98-3.61-17.67-4.14-18.69-4.13z"/>
</g>
<g fill="#c5c9cb" transform="translate(-24.045 -372.34)">
<path opacity=".545" d="m210,760.36c0,7.73-20.59,14-46,14s-46-6.27-46-14 20.59-14 46-14 46,6.27 46,14z" transform="translate(112.21 -76.804)"/>
<path opacity=".545" d="m210,760.36c0,7.73-20.59,14-46,14s-46-6.27-46-14 20.59-14 46-14 46,6.27 46,14z" transform="translate(112.46 -79.554)"/>
</g>
<g transform="translate(-24.045 -372.34)">
<path opacity=".383" fill="#c3c0af" d="m343.12,765.34c0,13.92-57.33,25.21-128.06,25.21-70.72,0-128.06-11.29-128.06-25.21s57.34-25.2 128.06-25.2c70.73,0 128.06,11.28 128.06,25.2z" transform="translate(112.21 -74.804)"/>
<path fill="#ee7055" d="m232.54,515.56h86.71c1.29,0 2.33,1.74 2.33,3.89v162.34c0,2.16-1.11,3.47-2.33,3.89-28.75,9.99-56.48,9.92-85.56-1.41-1.21-.47-2.9-.68-2.91-2.83l-.57-161.99c-.01-2.15 1.04-3.89 2.33-3.89z"/>
<path fill="#c5c9cb" d="m276.46,502.07c-26.09,0-46.97,6.05-46.97,13.78 .16,1.16-.2,2.17 .09,3.22 0,7.73 20.98,14 46.88,14 25.89,0 46.87-6.27 46.87-14 .02-1.06 .02-2.15 .04-3.09 0-7.73-20.83-13.91-46.91-13.91z"/>
<path fill="#e7e8ea" d="m322.37,513.31c0,7.73-20.43,14-45.64,14s-45.65-6.27-45.65-14 20.09-25.67 45.3-25.67 45.99,17.94 45.99,25.67z"/>
</g>
</g>
<g transform="translate(-24.045 -372.34)">
<path fill="#b3b8ba" d="m249.47,494.29l.05,3.23s.21,7.6 25.94,7.6c26.82,0 28.64-7.91 28.64-7.91l-.27-3.18z"/>
</g>
<g color="#000">
<g transform="translate(-24.045 -372.34)">
<path fill="#e3e5e6" d="m210,760.36c0,7.73-20.59,14-46,14s-46-6.27-46-14 20.59-14 46-14 46,6.27 46,14z" transform="matrix(.59132 0 0 .59132 179.79 44.957)"/>
<path fill="#999" d="m272.755,478.4h5.358a.9449,.4464 0 0,1 .945,.446v15.725a.9449,.4464 0 0,1 -.945,.446h-5.358a.9449,.4464 0 0,1 -.945-.446v-15.725a.9449,.4464 0 0,1 .945-.446"/>
</g>
<g transform="matrix(.79446 0 0 1.0667 121.275 -481.01)">
<path fill="#ededed" d="m146.89,531.24c-.48,0-.86,.19-.86,.44v18.59c0,.03 .02,.06 .03,.09s0,.07 .03,.1c.16,3.06 7.7,5.53 17,5.53 9.39,0 17-2.51 17-5.63 0-.13-.03-.27-.06-.4v-18.28c0-.25-.38-.44-.86-.44h-32.28z"/>
<path fill="#f5f5f5" d="m210,760.36c0,7.73-20.59,14-46,14s-46-6.27-46-14 20.59-14 46-14 46,6.27 46,14z" transform="matrix(.36895 0 0 .28254 102.49 316.47)"/>
</g>
</g>
<g transform="matrix(.79446 0 0 1.0667 121.275 -481.01)">
<g opacity=".745" fill="#7e7e7e" transform="matrix(-.16005 -.74968 .74792 -.15044 -231.78 746.41)">
<path color="#000" d="m172.5,540.55c0,1.76-1.51,3.19-3.38,3.19-1.86,0-3.37-1.43-3.37-3.19s1.51-3.19 3.37-3.19c1.87,0 3.38,1.43 3.38,3.19z" transform="translate(-6.5 4.5)"/>
</g>
</g>
<g transform="translate(-24.045 -372.34)">
<path fill="#4b1307" d="m261.07,479.38c3.29,3.98 8.31,4.61 13.41,4.84 5.04-.15 8.72-.58 12.84-2.54 .76-.35 1.26-1.38 2.13-1.19 .94,.21 1.09,.72 .75,1.35-.63,1.17-2.76,2.36-4.5,2.74-4.95,1.11-5.27,1.52-10.65,1.79-3.18,.15-12.4-2.35-14.02-4.24-.74-.85 .79-1.98 .79-1.98"/>
<path fill="#f5f5f5" d="m284.03,616.93c-7.7-12.04-36.31-58.66-34.12-59.39-6.85,15.52-15.4,31.22-19.63,46.49 .05,2.9 .24,5.03 .19,6.62 15.63,7.33 34.66,6.33 53.56,6.28z"/>
</g>
<g transform="matrix(.57441 0 0 .57441 195.875 -240.44)">
<path fill="#f8db30" id="path6173" color="#000" d="m176.7,467.92c-.47,.24-17.04,.56-17.51,.34-.48-.21-11.07-12.96-11.19-13.47-.13-.51 3.24-16.74 3.56-17.16 .32-.41 15.1-7.9 15.63-7.91 .52-.01 15.59,6.89 15.93,7.29 .33,.41 4.34,16.49 4.23,17s-10.18,13.67-10.65,13.91z" transform="matrix(.32942 0 0 .32942 -3.1523 438.32)"/>
<use width="744.094" height="1052.362" xlink:href="#path6173" transform="matrix(1.0764 .14148 -.14148 1.0764 -7.6023 -77.948)"/>
<use width="744.094" height="1052.362" xlink:href="#path6173" transform="matrix(.9062 -.44363 .44363 .9062 -437.4 27.295)"/>
<use width="744.094" height="1052.362" xlink:href="#path6173" transform="matrix(.68546 -.47934 .47934 .68546 -308 213.73)"/>
<use width="744.094" height="1052.362" xlink:href="#path6173" transform="matrix(.67844 .45004 -.45004 .67844 38.881 218.12)"/>
<use width="744.094" height="1052.362" xlink:href="#path6173" transform="matrix(.61855 -.79558 .79558 .61855 -549.5 302.72)"/>
<use width="744.094" height="1052.362" xlink:href="#path6173" transform="matrix(.93516 -.42933 .42933 .93516 -405.38 115.75)"/>
<use width="744.094" height="1052.362" xlink:href="#path6173" transform="matrix(1.1429 -.10954 .10954 1.1429 -245.18 -13.26)"/>
<use width="744.094" height="1052.362" xlink:href="#path6173" transform="matrix(.94992 .61372 -.61372 .94992 273.22 3.8295)"/>
<use width="744.094" height="1052.362" xlink:href="#path6173" transform="matrix(.71388 .28699 -.28699 .71388 71.474 157.98)"/>
<use width="744.094" height="1052.362" xlink:href="#path6173" transform="matrix(1.013 -.31168 .31168 1.013 -404.47 15.235)"/>
<use width="744.094" height="1052.362" xlink:href="#path6173" transform="matrix(1.2513 .21646 -.21646 1.2513 85.156 -161.61)"/>
<use width="744.094" height="1052.362" xlink:href="#path6173" transform="matrix(.65326 -.89025 .89025 .65326 -548.41 242.7)"/>
<use width="744.094" height="1052.362" xlink:href="#path6173" transform="matrix(.92221 .26956 -.26956 .92221 113.49 24.454)"/>
<use width="744.094" height="1052.362" xlink:href="#path6173" transform="matrix(.73703 .19898 -.19898 .73703 52.12 128.24)"/>
<use width="744.094" height="1052.362" xlink:href="#path6173" transform="matrix(.97749 -.45675 .45675 .97749 -427.25 12.529)"/>
<use width="744.094" height="1052.362" xlink:href="#path6173" transform="matrix(1.0362 .54313 -.54313 1.0362 154.81 -74.841)"/>
<use width="744.094" height="1052.362" xlink:href="#path6173" transform="matrix(.79665 .33089 -.33089 .79665 97.336 145.48)"/>
<use width="744.094" height="1052.362" xlink:href="#path6173" transform="matrix(1.1274 -.22618 .22618 1.1274 -296.45 11.743)"/>
<use width="744.094" height="1052.362" xlink:href="#path6173" transform="matrix(1.1518 -.09777 .09777 1.1518 -100.74 -64.187)"/>
<use width="744.094" height="1052.362" xlink:href="#path6173" transform="matrix(1.2116 -.06387 .06387 1.2116 -159.89 -47.203)"/>
<use width="744.094" height="1052.362" xlink:href="#path6173" transform="matrix(.88707 -.10491 .10491 .88707 -113.73 92.959)"/>
<use width="744.094" height="1052.362" xlink:href="#path6173" transform="matrix(.96445 -.33585 .33585 .96445 -251.54 57.709)"/>
<use width="744.094" height="1052.362" xlink:href="#path6173" transform="matrix(.65279 -.55412 .55412 .65279 -486 303.69)"/>
<use width="744.094" height="1052.362" xlink:href="#path6173" transform="matrix(.65402 .50823 -.50823 .65402 256.14 175.77)"/>
<use width="744.094" height="1052.362" xlink:href="#path6173" transform="matrix(.6123 .75566 -.75566 .6123 394.55 192.49)"/>
<use width="744.094" height="1052.362" xlink:href="#path6173" transform="matrix(.94501 .39208 -.39208 .94501 158.79 15.833)"/>
<use width="744.094" height="1052.362" xlink:href="#path6173" transform="matrix(.46472 .569 -.569 .46472 246.99 300.93)"/>
<use width="744.094" height="1052.362" xlink:href="#path6173" transform="matrix(1.1145 .26628 -.26628 1.1145 28.451 -63.773)"/>
<use width="744.094" height="1052.362" xlink:href="#path6173" transform="matrix(.6432 .49023 -.49023 .6432 176.19 204.35)"/>
<use width="744.094" height="1052.362" xlink:href="#path6173" transform="matrix(.78405 -.93682 .93682 .78405 -694.57 203.2)"/>
<use width="744.094" height="1052.362" xlink:href="#path6173" transform="matrix(.83489 -.08947 .08947 .83489 -223.06 130.09)"/>
<use width="744.094" height="1052.362" xlink:href="#path6173" transform="matrix(.99647 .44658 -.44658 .99647 38.51 6.9617)"/>
<use width="744.094" height="1052.362" xlink:href="#path6173" transform="matrix(1.0142 -.69807 .69807 1.0142 -463.35 42.814)"/>
<use width="744.094" height="1052.362" xlink:href="#path6173" transform="matrix(.97774 -.46799 .46799 .97774 -325.15 51.983)"/>
<use width="744.094" height="1052.362" xlink:href="#path6173" transform="matrix(1.0143 .6827 -.6827 1.0143 322.68 -19.855)"/>
<use width="744.094" height="1052.362" xlink:href="#path6173" transform="matrix(.80149 .61073 -.61073 .80149 256.56 115.39)"/>
<use width="744.094" height="1052.362" xlink:href="#path6173" transform="matrix(.93896 .48099 -.48099 .93896 137.89 45.87)"/>
<use width="744.094" height="1052.362" xlink:href="#path6173" transform="matrix(1.2255 .21796 -.21796 1.2255 -57.503 -102.46)"/>
<use width="744.094" height="1052.362" xlink:href="#path6173" transform="matrix(.82213 -.01773 .01773 .82213 -191.4 155.13)"/>
<use width="744.094" height="1052.362" xlink:href="#path6173" transform="matrix(.66357 -.36394 .36394 .66357 -393.64 265.25)"/>
<use width="744.094" height="1052.362" xlink:href="#path6173" transform="matrix(.93768 .07082 -.07082 .93768 -158.14 88.924)"/>
<use width="744.094" height="1052.362" xlink:href="#path6173" transform="matrix(.61558 .7336 -.7336 .61558 441.83 191.39)"/>
<use width="744.094" height="1052.362" xlink:href="#path6173" transform="matrix(.87259 .78476 -.78476 .87259 451.59 34.219)"/>
<use width="744.094" height="1052.362" xlink:href="#path6173" transform="matrix(.94181 .17004 -.17004 .94181 70.306 21.473)"/>
<use width="744.094" height="1052.362" xlink:href="#path6173" transform="matrix(.90641 .2148 -.2148 .90641 71.799 31.952)"/>
<use width="744.094" height="1052.362" xlink:href="#path6173" transform="matrix(.7446 .61967 -.61967 .7446 300.08 108.26)"/>
<use width="744.094" height="1052.362" xlink:href="#path6173" transform="matrix(1.0669 .52782 -.52782 1.0669 193.81 -84.551)"/>
<use width="744.094" height="1052.362" xlink:href="#path6173" transform="matrix(.72906 .20696 -.20696 .72906 -5.9356 120.75)"/>
<use width="744.094" height="1052.362" xlink:href="#path6173" transform="matrix(.8133 -.58984 .58984 .8133 -545.63 100.95)"/>
<use width="744.094" height="1052.362" xlink:href="#path6173" transform="matrix(.65492 .49521 -.49521 .65492 42.853 123.09)"/>
<use width="744.094" height="1052.362" xlink:href="#path6173" transform="matrix(.85784 .36874 -.36874 .85784 -74.914 -8.7312)"/>
<use width="744.094" height="1052.362" xlink:href="#path6173" transform="matrix(.82859 .19002 -.19002 .82859 63.497 77.479)"/>
<use width="744.094" height="1052.362" xlink:href="#path6173" transform="matrix(.88694 -.32763 .32763 .88694 -241.54 70.235)"/>
<use width="744.094" height="1052.362" xlink:href="#path6173" transform="matrix(.86867 .48593 -.48593 .86867 232.78 36.8)"/>
<use width="744.094" height="1052.362" xlink:href="#path6173" transform="matrix(.88586 -.68335 .68335 .88586 -462.51 82.167)"/>
<use width="744.094" height="1052.362" xlink:href="#path6173" transform="matrix(1.2147 -.18816 .18816 1.2147 -214.77 -144.2)"/>
<use width="744.094" height="1052.362" xlink:href="#path6173" transform="matrix(1.116 .26705 -.26705 1.116 37.347 -121.37)"/>
<use width="744.094" height="1052.362" xlink:href="#path6173" transform="matrix(1.0649 -.41058 .41058 1.0649 -368.48 -58.268)"/>
<use width="744.094" height="1052.362" xlink:href="#path6173" transform="matrix(.88254 .86172 -.86172 .88254 347.74 -31.448)"/>
<use width="744.094" height="1052.362" xlink:href="#path6173" transform="matrix(.85015 -.80171 .80171 .85015 -647.87 65.823)"/>
<use width="744.094" height="1052.362" xlink:href="#path6173" transform="matrix(1.1012 -.02857 .02857 1.1012 -105.67 -53.444)"/>
<use width="744.094" height="1052.362" xlink:href="#path6173" transform="matrix(1.1781 -.02826 .02826 1.1781 -110.53 -102.83)"/>
<use width="744.094" height="1052.362" xlink:href="#path6173" transform="matrix(.89198 .70285 -.70285 .89198 329.89 28.18)"/>
<use width="744.094" height="1052.362" xlink:href="#path6173" transform="matrix(.72769 .31272 -.31272 .72769 80.377 142.42)"/>
<use width="744.094" height="1052.362" xlink:href="#path6173" transform="matrix(1.0418 -.00124 .00124 1.0418 -144.49 -25.323)"/>
<use width="744.094" height="1052.362" xlink:href="#path6173" transform="matrix(.78324 -.04942 .04942 .78324 -188.58 127.53)"/>
<use width="744.094" height="1052.362" xlink:href="#path6173" transform="matrix(.70749 .39029 -.39029 .70749 -3.4434 153.66)"/>
<use width="744.094" height="1052.362" xlink:href="#path6173" transform="matrix(1.1348 -.20427 .20427 1.1348 -379.56 -69.121)"/>
<use width="744.094" height="1052.362" xlink:href="#path6173" transform="matrix(.64237 -.35804 .35804 .64237 -454.81 227.18)"/>
<use width="744.094" height="1052.362" xlink:href="#path6173" transform="matrix(1.2014 .13624 -.13624 1.2014 -194.48 -121.69)"/>
<use width="744.094" height="1052.362" xlink:href="#path6173" transform="matrix(.674 -.32588 .32588 .674 -442.14 210.1)"/>
<use width="744.094" height="1052.362" xlink:href="#path6173" transform="matrix(.54138 .68661 -.68661 .54138 345.62 227.07)"/>
<use width="744.094" height="1052.362" xlink:href="#path6173" transform="matrix(.75737 -.83189 .83189 .75737 -599.94 174.96)"/>
<use width="744.094" height="1052.362" xlink:href="#path6173" transform="matrix(1.2283 -.10671 .10671 1.2283 -233.83 -140.88)"/>
<use width="744.094" height="1052.362" xlink:href="#path6173" transform="matrix(1.1815 -.20561 .20561 1.1815 -340.78 -114.95)"/>
<use width="744.094" height="1052.362" xlink:href="#path6173" transform="matrix(.90421 .14691 -.14691 .90421 -162.76 30.298)"/>
<use width="744.094" height="1052.362" xlink:href="#path6173" transform="matrix(.77346 .1805 -.1805 .77346 -154.61 105.1)"/>
<use width="744.094" height="1052.362" xlink:href="#path6173" transform="matrix(.85895 .72416 -.72416 .85895 162.24 29.337)"/>
<use width="744.094" height="1052.362" xlink:href="#path6173" transform="matrix(.87915 .42322 -.42322 .87915 121.05 56.859)"/>
<use width="744.094" height="1052.362" xlink:href="#path6173" transform="matrix(.81943 .38062 -.38062 .81943 92.896 91.264)"/>
<use width="744.094" height="1052.362" xlink:href="#path6173" transform="matrix(1.1004 .1142 -.1142 1.1004 -86.135 -56.835)"/>
<use width="744.094" height="1052.362" xlink:href="#path6173" transform="matrix(1.0775 .62695 -.62695 1.0775 136.98 -73.518)"/>
<use width="744.094" height="1052.362" xlink:href="#path6173" transform="matrix(.88245 -.12439 .12439 .88245 -400.62 94.125)"/>
<use width="744.094" height="1052.362" xlink:href="#path6173" transform="matrix(.85857 -.04239 .04239 .85857 -45.021 99.513)"/>
<use width="744.094" height="1052.362" xlink:href="#path6173" transform="matrix(.97184 -.28836 .28836 .97184 -194.23 45.662)"/>
<use width="744.094" height="1052.362" xlink:href="#path6173" transform="matrix(.98568 -.2212 .2212 .98568 -166.03 40.698)"/>
<use width="744.094" height="1052.362" xlink:href="#path6173" transform="matrix(1.1063 -.45076 .45076 1.1063 -320.4 -11.482)"/>
<use width="744.094" height="1052.362" xlink:href="#path6173" transform="matrix(.78652 -.07604 .07604 .78652 -113.75 174.19)"/>
<use width="744.094" height="1052.362" xlink:href="#path6173" transform="matrix(.79942 -.40932 .40932 .79942 -323.69 190.77)"/>
<use width="744.094" height="1052.362" xlink:href="#path6173" transform="matrix(.79689 -.82862 .82862 .79689 -593.01 223.62)"/>
<use width="744.094" height="1052.362" xlink:href="#path6173" transform="matrix(.96517 -.23183 .23183 .96517 -282.14 101.21)"/>
<use width="744.094" height="1052.362" xlink:href="#path6173" transform="matrix(.82832 -.28315 .28315 .82832 -333.25 193.27)"/>
<use width="744.094" height="1052.362" xlink:href="#path6173" transform="matrix(1.0891 .22898 -.22898 1.0891 -71.832 31.414)"/>
<use width="744.094" height="1052.362" xlink:href="#path6173" transform="matrix(1.0011 -.14434 .14434 1.0011 -319.96 116.31)"/>
<use width="744.094" height="1052.362" xlink:href="#path6173" transform="matrix(.75888 -.30596 .30596 .75888 -407.25 268.79)"/>
<use width="744.094" height="1052.362" xlink:href="#path6173" transform="matrix(.68075 .43545 -.43545 .68075 229.41 188.86)"/>
<use width="744.094" height="1052.362" xlink:href="#path6173" transform="matrix(.9277 -.79627 .79627 .9277 -515.92 120.23)"/>
<use width="744.094" height="1052.362" xlink:href="#path6173" transform="matrix(.91225 -.87305 .87305 .91225 -591.59 141.43)"/>
<use width="744.094" height="1052.362" xlink:href="#path6173" transform="matrix(.79798 -.83199 .83199 .79798 -587.67 217.24)"/>
<use width="744.094" height="1052.362" xlink:href="#path6173" transform="matrix(.61794 .72954 -.72954 .61794 281.2 267.84)"/>
<use width="744.094" height="1052.362" xlink:href="#path6173" transform="matrix(.88572 .22823 -.22823 .88572 -57.181 151.84)"/>
<use width="744.094" height="1052.362" xlink:href="#path6173" transform="matrix(1.0856 .08091 -.08091 1.0856 -166.67 49.47)"/>
<use width="744.094" height="1052.362" xlink:href="#path6173" transform="matrix(.96975 -.06719 .06719 .96975 -253.46 126.17)"/>
<use width="744.094" height="1052.362" xlink:href="#path6173" transform="matrix(.61351 -.44015 .44015 .61351 -458.41 358.12)"/>
<use width="744.094" height="1052.362" xlink:href="#path6173" transform="matrix(1.172 -.36362 .36362 1.172 -452.07 33.335)"/>
<use width="744.094" height="1052.362" xlink:href="#path6173" transform="matrix(.86637 .43933 -.43933 .86637 199.1 77.177)"/>
<use width="744.094" height="1052.362" xlink:href="#path6173" transform="matrix(1.0979 -.37225 .37225 1.0979 -355.84 -4.8668)"/>
<use width="744.094" height="1052.362" xlink:href="#path6173" transform="matrix(.73034 .85194 -.85194 .73034 287.54 163.25)"/>
<use width="744.094" height="1052.362" xlink:href="#path6173" transform="matrix(.91354 .47901 -.47901 .91354 47.896 75.678)"/>
<use width="744.094" height="1052.362" xlink:href="#path6173" transform="matrix(.70017 .3851 -.3851 .70017 -55.331 212.5)"/>
<use width="744.094" height="1052.362" xlink:href="#path6173" transform="matrix(.77196 -.46156 .46156 .77196 -567.8 214.66)"/>
<use width="744.094" height="1052.362" xlink:href="#path6173" transform="matrix(1.0041 -.60641 .60641 1.0041 -676.51 85.281)"/>
<use width="744.094" height="1052.362" xlink:href="#path6173" transform="matrix(.61872 .8027 -.8027 .61872 370.11 193.78)"/>
<use width="744.094" height="1052.362" xlink:href="#path6173" transform="matrix(.47728 .56319 -.56319 .47728 224.21 287.96)"/>
<use width="744.094" height="1052.362" xlink:href="#path6173" transform="matrix(.80541 .5664 -.5664 .80541 145.51 95.643)"/>
<use width="744.094" height="1052.362" xlink:href="#path6173" transform="matrix(.85548 -.5561 .5561 .85548 -583.86 127.38)"/>
<use width="744.094" height="1052.362" xlink:href="#path6173" transform="matrix(.78319 -.14189 .14189 .78319 -376.11 145.18)"/>
<use width="744.094" height="1052.362" xlink:href="#path6173" transform="matrix(.69596 .74546 -.74546 .69596 138.75 147.23)"/>
<use width="744.094" height="1052.362" xlink:href="#path6173" transform="matrix(1.0906 .46811 -.46811 1.0906 -55.236 -70.49)"/>
<use width="744.094" height="1052.362" xlink:href="#path6173" transform="matrix(.69109 -.47351 .47351 .69109 -592.53 213.59)"/>
<use width="744.094" height="1052.362" xlink:href="#path6173" transform="matrix(.83338 -.49021 .49021 .83338 -354.44 123.84)"/>
<use width="744.094" height="1052.362" xlink:href="#path6173" transform="matrix(.75541 -.89415 .89415 .75541 -595.1 190.35)"/>
<use width="744.094" height="1052.362" xlink:href="#path6173" transform="matrix(.96565 .20041 -.20041 .96565 -35.722 -3.7732)"/>
<use width="744.094" height="1052.362" xlink:href="#path6173" transform="matrix(.75913 .45178 -.45178 .75913 113.83 101.54)"/>
<use width="744.094" height="1052.362" xlink:href="#path6173" transform="matrix(1.0533 -.32085 .32085 1.0533 -457.8 -52.081)"/>
<use width="744.094" height="1052.362" xlink:href="#path6173" transform="matrix(.93091 -.65493 .65493 .93091 -650.59 37.497)"/>
<use width="744.094" height="1052.362" xlink:href="#path6173" transform="matrix(.92334 .24105 -.24105 .92334 47.416 24.107)"/>
<use width="744.094" height="1052.362" xlink:href="#path6173" transform="matrix(1.2574 .00722 -.00722 1.2574 -112.21 -163.97)"/>
<use width="744.094" height="1052.362" xlink:href="#path6173" transform="matrix(.65488 .66479 -.66479 .65488 279.32 145.1)"/>
<use width="744.094" height="1052.362" xlink:href="#path6173" transform="matrix(.70167 -.22228 .22228 .70167 -339.13 119.29)"/>
<use width="744.094" height="1052.362" xlink:href="#path6173" transform="matrix(.70344 .49263 -.49263 .70344 26.616 59.992)"/>
<use width="744.094" height="1052.362" xlink:href="#path6173" transform="matrix(1.2233 -.0014 .0014 1.2233 -293.19 -219)"/>
<use width="744.094" height="1052.362" xlink:href="#path6173" transform="matrix(.5406 .68151 -.68151 .5406 392.04 230.06)"/>
<use width="744.094" height="1052.362" xlink:href="#path6173" transform="matrix(.61053 .50382 -.50382 .61053 256.89 192.44)"/>
<use width="744.094" height="1052.362" xlink:href="#path6173" transform="matrix(.59969 -.60493 .60493 .59969 -419.71 244.97)"/>
<use width="744.094" height="1052.362" xlink:href="#path6173" transform="matrix(.92345 -.27807 .27807 .92345 -336.8 5.2785)"/>
<use width="744.094" height="1052.362" xlink:href="#path6173" transform="matrix(.74191 -.12948 .12948 .74191 -246.88 99.575)"/>
<use width="744.094" height="1052.362" xlink:href="#path6173" transform="matrix(.69226 -.84307 .84307 .69226 -667.07 163.12)"/>
<use width="744.094" height="1052.362" xlink:href="#path6173" transform="matrix(1.0357 .66581 -.66581 1.0357 191.61 -117.26)"/>
<use width="744.094" height="1052.362" xlink:href="#path6173" transform="matrix(.8866 -.18413 .18413 .8866 -320.41 7.5345)"/>
<use width="744.094" height="1052.362" xlink:href="#path6173" transform="matrix(.89018 .17472 -.17472 .89018 -112.51 -13.653)"/>
<use width="744.094" height="1052.362" xlink:href="#path6173" transform="matrix(.90542 -.4206 .4206 .90542 -463.98 6.4513)"/>
<use width="744.094" height="1052.362" xlink:href="#path6173" transform="matrix(1.1595 -.30735 .30735 1.1595 -415.57 -148.73)"/>
<use width="744.094" height="1052.362" xlink:href="#path6173" transform="matrix(.63983 -.86813 .86813 .63983 -608.38 241.59)"/>
<use width="744.094" height="1052.362" xlink:href="#path6173" transform="matrix(.76813 .08006 -.08006 .76813 -108.61 105.6)"/>
<use width="744.094" height="1052.362" xlink:href="#path6173" transform="matrix(1.137 .12504 -.12504 1.137 -165.13 -126.53)"/>
<use width="744.094" height="1052.362" xlink:href="#path6173" transform="matrix(1.1973 -.02722 .02722 1.1973 -275.53 -156.98)"/>
<use width="744.094" height="1052.362" xlink:href="#path6173" transform="matrix(.78879 .21116 -.21116 .78879 -112.91 68.559)"/>
<use width="744.094" height="1052.362" xlink:href="#path6173" transform="matrix(.57632 .64046 -.64046 .57632 320.88 226.82)"/>
<use width="744.094" height="1052.362" xlink:href="#path6173" transform="matrix(.61509 .49454 -.49454 .61509 170.48 197.89)"/>
<use width="744.094" height="1052.362" xlink:href="#path6173" transform="matrix(.53872 -.51852 .51852 .53872 -439.28 291.03)"/>
<use width="744.094" height="1052.362" xlink:href="#path6173" transform="matrix(.99535 -.11515 .11515 .99535 -296.75 -2.8524)"/>
<use width="744.094" height="1052.362" xlink:href="#path6173" transform="matrix(.7678 .82857 -.82857 .7678 244.19 77.97)"/>
<use width="744.094" height="1052.362" xlink:href="#path6173" transform="matrix(1.0018 .70632 -.70632 1.0018 151.43 -56.595)"/>
<use width="744.094" height="1052.362" xlink:href="#path6173" transform="matrix(.69901 .28072 -.28072 .69901 120.1 137.75)"/>
<use width="744.094" height="1052.362" xlink:href="#path6173" transform="matrix(.8023 .03096 -.03096 .8023 -31.955 85.448)"/>
<use width="744.094" height="1052.362" xlink:href="#path6173" transform="matrix(.51419 .62273 -.62273 .51419 326.47 227.51)"/>
<use width="744.094" height="1052.362" xlink:href="#path6173" transform="matrix(.93247 -.60808 .60808 .93247 -433.53 33.075)"/>
<use width="744.094" height="1052.362" xlink:href="#path6173" transform="matrix(.96741 -.80228 .80228 .96741 -567.6 12.15)"/>
<use width="744.094" height="1052.362" xlink:href="#path6173" transform="matrix(1.0211 -.3082 .3082 1.0211 -280.84 -45.483)"/>
<use width="744.094" height="1052.362" xlink:href="#path6173" transform="matrix(.73449 .77686 -.77686 .73449 356.68 63.017)"/>
<use width="744.094" height="1052.362" xlink:href="#path6173" transform="matrix(1.2586 .14469 -.14469 1.2586 -56.854 -219.23)"/>
<use width="744.094" height="1052.362" xlink:href="#path6173" transform="matrix(1.1141 .27336 -.27336 1.1141 16.338 -144.67)"/>
<use width="744.094" height="1052.362" xlink:href="#path6173" transform="matrix(.78067 -.80006 .80006 .78067 -612.72 92.372)"/>
<use width="744.094" height="1052.362" xlink:href="#path6173" transform="matrix(1.012 .11088 -.11088 1.012 -124.89 -106.37)"/>
<use width="744.094" height="1052.362" xlink:href="#path6173" transform="matrix(.8182 -.57798 .57798 .8182 -539.7 37.069)"/>
<use width="744.094" height="1052.362" xlink:href="#path6173" transform="matrix(.60811 .50248 -.50248 .60811 309.19 200.78)"/>
<use width="744.094" height="1052.362" xlink:href="#path6173" transform="matrix(.9182 -.78715 .78715 .9182 -464.23 82.752)"/>
<use width="744.094" height="1052.362" xlink:href="#path6173" transform="matrix(.77046 -.26069 .26069 .77046 -167.48 136.07)"/>
<use width="744.094" height="1052.362" xlink:href="#path6173" transform="matrix(1.0522 .54306 -.54306 1.0522 268.02 -82.702)"/>
<use width="744.094" height="1052.362" xlink:href="#path6173" transform="matrix(.76322 .00166 -.00166 .76322 -40.148 111.84)"/>
<use width="744.094" height="1052.362" xlink:href="#path6173" transform="matrix(1.1893 .41518 -.41518 1.1893 169.83 -166.81)"/>
<use width="744.094" height="1052.362" xlink:href="#path6173" transform="matrix(1.0588 -.04491 .04491 1.0588 -105.69 -74.019)"/>
<use width="744.094" height="1052.362" xlink:href="#path6173" transform="matrix(.83018 .00377 -.00377 .83018 -72.361 51.274)"/>
<use width="744.094" height="1052.362" xlink:href="#path6173" transform="matrix(1.1504 .45825 -.45825 1.1504 170.88 -168.26)"/>
<use width="744.094" height="1052.362" xlink:href="#path6173" transform="matrix(.86363 -.48373 .48373 .86363 -381.79 46.004)"/>
<use width="744.094" height="1052.362" xlink:href="#path6173" transform="matrix(1.0777 -.57043 .57043 1.0777 -445.89 -76.891)"/>
<use width="744.094" height="1052.362" xlink:href="#path6173" transform="matrix(1.254 .04617 -.04617 1.254 -130.99 -227.68)"/>
<use width="744.094" height="1052.362" xlink:href="#path6173" transform="matrix(.6141 -.70828 .70828 .6141 -605.89 163.04)"/>
<use width="744.094" height="1052.362" xlink:href="#path6173" transform="matrix(.79222 .40893 -.40893 .79222 6.194 -11.252)"/>
<use width="744.094" height="1052.362" xlink:href="#path6173" transform="matrix(.92479 -.70848 .70848 .92479 -706.41 -43.126)"/>
<use width="744.094" height="1052.362" xlink:href="#path6173" transform="matrix(.81034 .61205 -.61205 .81034 71.408 -47.23)"/>
<use width="744.094" height="1052.362" xlink:href="#path6173" transform="matrix(.75022 -.6841 .6841 .75022 -439.34 168.84)"/>
<use width="744.094" height="1052.362" xlink:href="#path6173" transform="matrix(.82756 .27888 -.27888 .82756 120.81 68.29)"/>
<use width="744.094" height="1052.362" xlink:href="#path6173" transform="matrix(.89789 .68879 -.68879 .89789 317.49 3.4478)"/>
<use width="744.094" height="1052.362" xlink:href="#path6173" transform="matrix(1.005 .14227 -.14227 1.005 -21.34 -34.233)"/>
<use width="744.094" height="1052.362" xlink:href="#path6173" transform="matrix(.77438 -.13974 .13974 .77438 -181.72 116.6)"/>
<use width="744.094" height="1052.362" xlink:href="#path6173" transform="matrix(1.168 -.06966 .06966 1.168 -171.52 -121.95)"/>
<use width="744.094" height="1052.362" xlink:href="#path6173" transform="matrix(.77099 .7975 -.7975 .77099 288.68 60.168)"/>
<use width="744.094" height="1052.362" xlink:href="#path6173" transform="matrix(.59 .51168 -.51168 .59 128.29 179.17)"/>
<use width="744.094" height="1052.362" xlink:href="#path6173" transform="matrix(.96818 -.56072 .56072 .96818 -559.89 15.883)"/>
<use width="744.094" height="1052.362" xlink:href="#path6173" transform="matrix(.63716 -.49354 .49354 .63716 -507.15 205.98)"/>
<use width="744.094" height="1052.362" xlink:href="#path6173" transform="matrix(.91184 -.04774 .04774 .91184 -145.94 16.514)"/>
<use width="744.094" height="1052.362" xlink:href="#path6173" transform="matrix(1.1059 -.5627 .5627 1.1059 -467.96 -71.979)"/>
<use width="744.094" height="1052.362" xlink:href="#path6173" transform="matrix(.86507 -.55894 .55894 .86507 -483.46 62.764)"/>
<use width="744.094" height="1052.362" xlink:href="#path6173" transform="matrix(.94105 -.54348 .54348 .94105 -483.45 18.186)"/>
<use width="744.094" height="1052.362" xlink:href="#path6173" transform="matrix(.88246 -.89539 .89539 .88246 -711.93 66.736)"/>
<use width="744.094" height="1052.362" xlink:href="#path6173" transform="matrix(.64188 .62049 -.62049 .64188 160.67 121.87)"/>
<use width="744.094" height="1052.362" xlink:href="#path6173" transform="matrix(.8515 .00528 -.00528 .8515 -236.08 32.316)"/>
<use width="744.094" height="1052.362" xlink:href="#path6173" transform="matrix(1.0451 -.53584 .53584 1.0451 -574.52 -53.042)"/>
<use width="744.094" height="1052.362" xlink:href="#path6173" transform="matrix(.68463 -.81304 .81304 .68463 -756.38 175.32)"/>
<use width="744.094" height="1052.362" xlink:href="#path6173" transform="matrix(.90336 -.78653 .78653 .90336 -598.56 39.67)"/>
<use width="744.094" height="1052.362" xlink:href="#path6173" transform="matrix(.91691 -.77642 .77642 .91691 -597.29 32.994)"/>
<use width="744.094" height="1052.362" xlink:href="#path6173" transform="matrix(.89855 .45291 -.45291 .89855 121.82 -21.438)"/>
<use width="744.094" height="1052.362" xlink:href="#path6173" transform="matrix(.86105 .14747 -.14747 .86105 -98.61 -.00619)"/>
<use width="744.094" height="1052.362" xlink:href="#path6173" transform="matrix(.789 -.62201 .62201 .789 -652.68 53.7)"/>
<use width="744.094" height="1052.362" xlink:href="#path6173" transform="matrix(.8117 .24113 -.24113 .8117 -163.12 -7.4623)"/>
<use width="744.094" height="1052.362" xlink:href="#path6173" transform="matrix(.96899 -.73527 .73527 .96899 -756.51 -49.353)"/>
<use width="744.094" height="1052.362" xlink:href="#path6173" transform="matrix(.91495 -.10139 .10139 .91495 -383.21 -49.159)"/>
<use width="744.094" height="1052.362" xlink:href="#path6173" transform="matrix(.82921 .27452 -.27452 .82921 -160.89 -20.691)"/>
<use width="744.094" height="1052.362" xlink:href="#path6173" transform="matrix(1.0309 .33544 -.33544 1.0309 -139.72 -141.8)"/>
<use width="744.094" height="1052.362" xlink:href="#path6173" transform="matrix(1.0829 -.48221 .48221 1.0829 -621.59 -127.86)"/>
<use width="744.094" height="1052.362" xlink:href="#path6173" transform="matrix(.93056 .86387 -.86387 .93056 475.48 1.876)"/>
<use width="744.094" height="1052.362" xlink:href="#path6173" transform="matrix(1.0905 .24297 -.24297 1.0905 95.819 -59.543)"/>
<use width="744.094" height="1052.362" xlink:href="#path6173" transform="matrix(.97837 -.51131 .51131 .97837 -385.95 65.471)"/>
<use width="744.094" height="1052.362" xlink:href="#path6173" transform="matrix(.74614 -.82193 .82193 .74614 -565.49 222.03)"/>
<use width="744.094" height="1052.362" xlink:href="#path6173" transform="matrix(.92291 -.45692 .45692 .92291 -413.33 113.6)"/>
<use width="744.094" height="1052.362" xlink:href="#path6173" transform="matrix(.68435 -.84988 .84988 .68435 -636.03 277.65)"/>
<use width="744.094" height="1052.362" xlink:href="#path6173" transform="matrix(.82594 -.10025 .10025 .82594 -124.79 143.15)"/>
<use width="744.094" height="1052.362" xlink:href="#path6173" transform="matrix(1.2481 -.02442 .02442 1.2481 -113.13 -100.47)"/>
<use width="744.094" height="1052.362" xlink:href="#path6173" transform="matrix(.8238 .49074 -.49074 .8238 186.56 130.63)"/>
<use width="744.094" height="1052.362" xlink:href="#path6173" transform="matrix(.74419 .93792 -.93792 .74419 397.24 173.93)"/>
<use width="744.094" height="1052.362" xlink:href="#path6173" transform="matrix(.71366 -.9255 .9255 .71366 -699.35 292.61)"/>
<use width="744.094" height="1052.362" xlink:href="#path6173" transform="matrix(.76643 .12697 -.12697 .76643 -97.742 210.85)"/>
<use width="744.094" height="1052.362" xlink:href="#path6173" transform="matrix(1.1406 .31217 -.31217 1.1406 -54.611 -.8649)"/>
<use width="744.094" height="1052.362" xlink:href="#path6173" transform="matrix(.95225 -.09436 .09436 .95225 -114.13 50.433)"/>
<use width="744.094" height="1052.362" xlink:href="#path6173" transform="matrix(.73907 .75724 -.75724 .73907 395.29 128.99)"/>
<use width="744.094" height="1052.362" xlink:href="#path6173" transform="matrix(.96327 .17659 -.17659 .96327 19.243 34.41)"/>
<use width="744.094" height="1052.362" xlink:href="#path6173" transform="matrix(.81633 .9414 -.9414 .81633 468.53 81.578)"/>
<use width="744.094" height="1052.362" xlink:href="#path6173" transform="matrix(1.1959 -.3258 .3258 1.1959 -320.36 -71.165)"/>
<use width="744.094" height="1052.362" xlink:href="#path6173" transform="matrix(1.0923 .26987 -.26987 1.0923 -16.215 -28.786)"/>
<use width="744.094" height="1052.362" xlink:href="#path6173" transform="matrix(.75034 .95117 -.95117 .75034 384.12 137.6)"/>
<use width="744.094" height="1052.362" xlink:href="#path6173" transform="matrix(.87451 .25408 -.25408 .87451 -94.36 117.42)"/>
<use width="744.094" height="1052.362" xlink:href="#path6173" transform="matrix(1.1428 .34235 -.34235 1.1428 -60.571 -40.768)"/>
<use width="744.094" height="1052.362" xlink:href="#path6173" transform="matrix(.87232 -.11616 .11616 .87232 -336.29 144.28)"/>
<use width="744.094" height="1052.362" xlink:href="#path6173" transform="matrix(.94289 .54938 -.54938 .94289 206 1.9111)"/>
<use width="744.094" height="1052.362" xlink:href="#path6173" transform="matrix(1.1448 .31773 -.31773 1.1448 55.371 -111.47)"/>
<use width="744.094" height="1052.362" xlink:href="#path6173" transform="matrix(.84022 .66584 -.66584 .84022 212.3 57.052)"/>
<use width="744.094" height="1052.362" xlink:href="#path6173" transform="matrix(.74466 .39965 -.39965 .74466 -11.644 136.08)"/>
<use width="744.094" height="1052.362" xlink:href="#path6173" transform="matrix(1.106 .61489 -.61489 1.106 67.007 -83.827)"/>
<use width="744.094" height="1052.362" xlink:href="#path6173" transform="matrix(1.192 -.20044 .20044 1.192 -457.99 -82.247)"/>
<use width="744.094" height="1052.362" xlink:href="#path6173" transform="matrix(.82079 -.63638 .63638 .82079 -705.06 163.41)"/>
<use width="744.094" height="1052.362" xlink:href="#path6173" transform="matrix(.79048 -.10607 .10607 .79048 -395.83 155.58)"/>
<use width="744.094" height="1052.362" xlink:href="#path6173" transform="matrix(.75618 -.37042 .37042 .75618 -309.74 160.79)"/>
<use width="744.094" height="1052.362" xlink:href="#path6173" transform="matrix(.80743 -.33131 .33131 .80743 -302.55 129.3)"/>
<use width="744.094" height="1052.362" xlink:href="#path6173" transform="matrix(1.011 -.02111 .02111 1.011 -145.45 .9629)"/>
<use width="744.094" height="1052.362" xlink:href="#path6173" transform="matrix(.83036 -.12042 .12042 .83036 -200.17 110.94)"/>
<use width="744.094" height="1052.362" xlink:href="#path6173" transform="matrix(1.1618 .19051 -.19051 1.1618 -39.267 -99.749)"/>
<use width="744.094" height="1052.362" xlink:href="#path6173" transform="matrix(.97504 .45573 -.45573 .97504 76.061 14.416)"/>
<use width="744.094" height="1052.362" xlink:href="#path6173" transform="matrix(1.1466 -.15218 .15218 1.1466 -292.7 -57.555)"/>
<use width="744.094" height="1052.362" xlink:href="#path6173" transform="matrix(.9397 -.77374 .77374 .9397 -652.46 100.57)"/>
<use width="744.094" height="1052.362" xlink:href="#path6173" transform="matrix(.98721 -.69354 .69354 .98721 -621.96 68.557)"/>
<use width="744.094" height="1052.362" xlink:href="#path6173" transform="matrix(.90039 -.26997 .26997 .90039 -377.07 100.35)"/>
<use width="744.094" height="1052.362" xlink:href="#path6173" transform="matrix(.732 .22132 -.22132 .732 -109.34 179.3)"/>
<use width="744.094" height="1052.362" xlink:href="#path6173" transform="matrix(1.0083 .70393 -.70393 1.0083 316.19 -57.151)"/>
<use width="744.094" height="1052.362" xlink:href="#path6173" transform="matrix(1.0957 .64165 -.64165 1.0957 275.95 -102.34)"/>
<use width="744.094" height="1052.362" xlink:href="#path6173" transform="matrix(.81038 .44354 -.44354 .81038 169.15 74.756)"/>
<use width="744.094" height="1052.362" xlink:href="#path6173" transform="matrix(.9096 .43718 -.43718 .9096 153.81 15.696)"/>
<use width="744.094" height="1052.362" xlink:href="#path6173" transform="matrix(.91244 .74666 -.74666 .91244 294.88 -2.1073)"/>
<use width="744.094" height="1052.362" xlink:href="#path6173" transform="matrix(.8404 -.46026 .46026 .8404 -415.98 102.13)"/>
<use width="744.094" height="1052.362" xlink:href="#path6173" transform="matrix(.5659 .642 -.642 .5659 199.93 210.1)"/>
<use width="744.094" height="1052.362" xlink:href="#path6173" transform="matrix(.46581 -.62102 .62102 .46581 -555.35 341.42)"/>
<use width="744.094" height="1052.362" xlink:href="#path6173" transform="matrix(.90619 .71405 -.71405 .90619 193.33 15.438)"/>
<use width="744.094" height="1052.362" xlink:href="#path6173" transform="matrix(1.1887 .2618 -.2618 1.1887 -103.44 -122.56)"/>
<use width="744.094" height="1052.362" xlink:href="#path6173" transform="matrix(.86399 .81446 -.81446 .86399 236.69 35.368)"/>
<use width="744.094" height="1052.362" xlink:href="#path6173" transform="matrix(.71939 .90756 -.90756 .71939 290.4 116.65)"/>
<use width="744.094" height="1052.362" xlink:href="#path6173" transform="matrix(.72306 -.59236 .59236 .72306 -619.33 198.22)"/>
<use width="744.094" height="1052.362" xlink:href="#path6173" transform="matrix(.96503 -.27196 .27196 .96503 -220.63 21.322)"/>
<use width="744.094" height="1052.362" xlink:href="#path6173" transform="matrix(.67982 .5609 -.5609 .67982 262.34 137.43)"/>
<use width="744.094" height="1052.362" xlink:href="#path6173" transform="matrix(.86331 -.00399 .00399 .86331 -83.148 59.633)"/>
<use width="744.094" height="1052.362" xlink:href="#path6173" transform="matrix(.69127 .67027 -.67027 .69127 313.82 123.97)"/>
<use width="744.094" height="1052.362" xlink:href="#path6173" transform="matrix(.85488 .08963 -.08963 .85488 -159.55 28.288)"/>
<use width="744.094" height="1052.362" xlink:href="#path6173" transform="matrix(.56946 .59139 -.59139 .56946 112.56 155.97)"/>
<use width="744.094" height="1052.362" xlink:href="#path6173" transform="matrix(.96988 -.61226 .61226 .96988 -619.42 -17.868)"/>
<use width="744.094" height="1052.362" xlink:href="#path6173" transform="matrix(.83036 -.20087 .20087 .83036 -383.5 39.316)"/>
<use width="744.094" height="1052.362" xlink:href="#path6173" transform="matrix(.93924 -.30889 .30889 .93924 -481.6 -23.634)"/>
<use width="744.094" height="1052.362" xlink:href="#path6173" transform="matrix(.65602 .46046 -.46046 .65602 -23.249 97.572)"/>
<use width="744.094" height="1052.362" xlink:href="#path6173" transform="matrix(.66862 -.42816 .42816 .66862 -555.7 135.01)"/>
<use width="744.094" height="1052.362" xlink:href="#path6173" transform="matrix(.77676 -.49615 .49615 .77676 -631.52 73.061)"/>
<use width="744.094" height="1052.362" xlink:href="#path6173" transform="matrix(.95567 .40432 -.40432 .95567 187.7 .54044)"/>
<use width="744.094" height="1052.362" xlink:href="#path6173" transform="matrix(.971 -.21418 .21418 .971 -201.3 5.1136)"/>
<use width="744.094" height="1052.362" xlink:href="#path6173" transform="matrix(1.1122 -.08172 .08172 1.1122 -147.28 -91.113)"/>
<use width="744.094" height="1052.362" xlink:href="#path6173" transform="matrix(.91654 -.441 .441 .91654 -365.9 30.993)"/>
<use width="744.094" height="1052.362" xlink:href="#path6173" transform="matrix(1.1043 .19806 -.19806 1.1043 -55.768 -129.76)"/>
<use width="744.094" height="1052.362" xlink:href="#path6173" transform="matrix(.80349 -.29312 .29312 .80349 -352.41 62.792)"/>
<use width="744.094" height="1052.362" xlink:href="#path6173" transform="matrix(1.1431 -.4402 .4402 1.1431 -467.97 -131.49)"/>
<use width="744.094" height="1052.362" xlink:href="#path6173" transform="matrix(1.0372 .06235 -.06235 1.0372 -186.17 -99.594)"/>
<use width="744.094" height="1052.362" xlink:href="#path6173" transform="matrix(.89856 .2109 -.2109 .89856 -98.076 -32.806)"/>
<use width="744.094" height="1052.362" xlink:href="#path6173" transform="matrix(.89307 .09889 -.09889 .89307 -178.62 -25.637)"/>
<use width="744.094" height="1052.362" xlink:href="#path6173" transform="matrix(1.1948 .30262 -.30262 1.1948 -79.484 -217.88)"/>
<use width="744.094" height="1052.362" xlink:href="#path6173" transform="matrix(.88883 .30595 -.30595 .88883 -85.304 -46.441)"/>
<use width="744.094" height="1052.362" xlink:href="#path6173" transform="matrix(.83452 -.85735 .85735 .83452 -538.32 136.9)"/>
<use width="744.094" height="1052.362" xlink:href="#path6173" transform="matrix(.84817 -.15579 .15579 .84817 -137.74 85.805)"/>
<use width="744.094" height="1052.362" xlink:href="#path6173" transform="matrix(.63976 .47173 -.47173 .63976 237.29 172.38)"/>
<use width="744.094" height="1052.362" xlink:href="#path6173" transform="matrix(.69943 .93574 -.93574 .69943 504.41 110.32)"/>
<use width="744.094" height="1052.362" xlink:href="#path6173" transform="matrix(.51282 .53732 -.53732 .51282 263.5 236.08)"/>
<use width="744.094" height="1052.362" xlink:href="#path6173" transform="matrix(1.1105 .49937 -.49937 1.1105 151 -136.02)"/>
<use width="744.094" height="1052.362" xlink:href="#path6173" transform="matrix(.95138 -.49628 .49628 .95138 -440.72 1.7101)"/>
<use width="744.094" height="1052.362" xlink:href="#path6173" transform="matrix(.96702 -.5085 .5085 .96702 -459.03 -14.444)"/>
<use width="744.094" height="1052.362" xlink:href="#path6173" transform="matrix(.82601 .1498 -.1498 .82601 -70.722 29.189)"/>
<use width="744.094" height="1052.362" xlink:href="#path6173" transform="matrix(1.243 -.24063 .24063 1.243 -366.62 -222.1)"/>
<use width="744.094" height="1052.362" xlink:href="#path6173" transform="matrix(.64226 .52442 -.52442 .64226 103.85 88.142)"/>
<use width="744.094" height="1052.362" xlink:href="#path6173" transform="matrix(1.0141 .04051 -.04051 1.0141 -252.73 -126.85)"/>
<use width="744.094" height="1052.362" xlink:href="#path6173" transform="matrix(.73164 -.76937 .76937 .73164 -453.67 190.07)"/>
<use width="744.094" height="1052.362" xlink:href="#path6173" transform="matrix(.87031 -.55794 .55794 .87031 -338.17 94.17)"/>
<use width="744.094" height="1052.362" xlink:href="#path6173" transform="matrix(.9882 .13321 -.13321 .9882 58.152 -10.061)"/>
<use width="744.094" height="1052.362" xlink:href="#path6173" transform="matrix(.77033 .05179 -.05179 .77033 20.154 122.52)"/>
<use width="744.094" height="1052.362" xlink:href="#path6173" transform="matrix(.71242 .49212 -.49212 .71242 279.62 131.86)"/>
<use width="744.094" height="1052.362" xlink:href="#path6173" transform="matrix(1.1919 .19745 -.19745 1.1919 82.226 -136.27)"/>
<use width="744.094" height="1052.362" xlink:href="#path6173" transform="matrix(.98289 .58556 -.58556 .98289 298.65 -43.19)"/>
<use width="744.094" height="1052.362" xlink:href="#path6173" transform="matrix(.54924 .63186 -.63186 .54924 344.82 210.08)"/>
<use width="744.094" height="1052.362" xlink:href="#path6173" transform="matrix(.93883 .27694 -.27694 .93883 106.53 -9.3829)"/>
<use width="744.094" height="1052.362" xlink:href="#path6173" transform="matrix(.85819 .04572 -.04572 .85819 -40.791 43.615)"/>
<use width="744.094" height="1052.362" xlink:href="#path6173" transform="matrix(1.1979 .18373 -.18373 1.1979 14.772 -162.17)"/>
<use width="744.094" height="1052.362" xlink:href="#path6173" transform="matrix(.96924 -.35763 .35763 .96924 -345.77 -27.064)"/>
<use width="744.094" height="1052.362" xlink:href="#path6173" transform="matrix(.72168 -.12843 .12843 .72168 -266.22 78.225)"/>
<use width="744.094" height="1052.362" xlink:href="#path6173" transform="matrix(.7935 .24368 -.24368 .7935 127.73 126.16)"/>
<use width="744.094" height="1052.362" xlink:href="#path6173" transform="matrix(.68867 .55892 -.55892 .68867 309.46 176.88)"/>
<use width="744.094" height="1052.362" xlink:href="#path6173" transform="matrix(.89408 .22994 -.22994 .89408 84.479 81.441)"/>
<use width="744.094" height="1052.362" xlink:href="#path6173" transform="matrix(.96121 -.24691 .24691 .96121 -214.82 72.641)"/>
<use width="744.094" height="1052.362" xlink:href="#path6173" transform="matrix(.57353 -.54259 .54259 .57353 -373.29 319.37)"/>
<use width="744.094" height="1052.362" xlink:href="#path6173" transform="matrix(.74721 -.85458 .85458 .74721 -575.53 238.49)"/>
<use width="744.094" height="1052.362" xlink:href="#path6173" transform="matrix(.95732 .46496 -.46496 .95732 162.68 64.652)"/>
<use width="744.094" height="1052.362" xlink:href="#path6173" transform="matrix(.77027 -.29006 .29006 .77027 -285.63 219.15)"/>
<use width="744.094" height="1052.362" xlink:href="#path6173" transform="matrix(.87817 -.73695 .73695 .87817 -564.92 185.8)"/>
<use width="744.094" height="1052.362" xlink:href="#path6173" transform="matrix(.69471 .59739 -.59739 .69471 207.39 228.05)"/>
<use width="744.094" height="1052.362" xlink:href="#path6173" transform="matrix(.62005 .39964 -.39964 .62005 74.047 294.8)"/>
<use width="744.094" height="1052.362" xlink:href="#path6173" transform="matrix(.65783 .64384 -.64384 .65783 204.71 264.61)"/>
<use width="744.094" height="1052.362" xlink:href="#path6173" transform="matrix(.59758 -.75984 .75984 .59758 -462.55 306.62)"/>
<use width="744.094" height="1052.362" xlink:href="#path6173" transform="matrix(1.2219 -.28937 .28937 1.2219 -229.89 -77.674)"/>
<use width="744.094" height="1052.362" xlink:href="#path6173" transform="matrix(.58618 -.58154 .58154 .58618 -401.03 330.85)"/>
<use width="744.094" height="1052.362" xlink:href="#path6173" transform="matrix(.96002 .15355 -.15355 .96002 -23.103 90.572)"/>
<use width="744.094" height="1052.362" xlink:href="#path6173" transform="matrix(.58029 -.63892 .63892 .58029 -484.95 358.4)"/>
<use width="744.094" height="1052.362" xlink:href="#path6173" transform="matrix(.76398 .94167 -.94167 .76398 372.96 192.98)"/>
<use width="744.094" height="1052.362" xlink:href="#path6173" transform="matrix(.79605 -.14571 .14571 .79605 -264.06 226.6)"/>
<use width="744.094" height="1052.362" xlink:href="#path6173" transform="matrix(.5335 .60808 -.60808 .5335 187.78 345.71)"/>
<use width="744.094" height="1052.362" xlink:href="#path6173" transform="matrix(.95859 -.20692 .20692 .95859 -312.3 143.18)"/>
<use width="744.094" height="1052.362" xlink:href="#path6173" transform="matrix(1.1002 .53998 -.53998 1.1002 112.13 27.255)"/>
<use width="744.094" height="1052.362" xlink:href="#path6173" transform="matrix(.66917 -.71403 .71403 .66917 -464.22 253.51)"/>
<use width="744.094" height="1052.362" xlink:href="#path6173" transform="matrix(.83145 .7533 -.7533 .83145 385.25 85.593)"/>
<use width="744.094" height="1052.362" xlink:href="#path6173" transform="matrix(.66746 .39168 -.39168 .66746 177.54 201.63)"/>
<use width="744.094" height="1052.362" xlink:href="#path6173" transform="matrix(.71976 .79534 -.79534 .71976 395.58 155.05)"/>
<use width="744.094" height="1052.362" xlink:href="#path6173" transform="matrix(.63978 -.75453 .75453 .63978 -567.12 311.87)"/>
<use width="744.094" height="1052.362" xlink:href="#path6173" transform="matrix(.76406 -.58882 .58882 .76406 -582.14 268.57)"/>
<use width="744.094" height="1052.362" xlink:href="#path6173" transform="matrix(.7475 .4968 -.4968 .7475 43.255 226.75)"/>
<use width="744.094" height="1052.362" xlink:href="#path6173" transform="matrix(.99368 -.5204 .5204 .99368 -572.74 137.1)"/>
<use width="744.094" height="1052.362" xlink:href="#path6173" transform="matrix(1.1061 .19713 -.19713 1.1061 -159.93 42.194)"/>
<use width="744.094" height="1052.362" xlink:href="#path6173" transform="matrix(.82954 -.61026 .61026 .82954 -620.17 243.94)"/>
<use width="744.094" height="1052.362" xlink:href="#path6173" transform="matrix(.75837 -.81098 .81098 .75837 -596.87 211.59)"/>
<use width="744.094" height="1052.362" xlink:href="#path6173" transform="matrix(.8341 .35735 -.35735 .8341 84.385 106.38)"/>
<use width="744.094" height="1052.362" xlink:href="#path6173" transform="matrix(1.0226 -.67692 .67692 1.0226 -537.58 52.665)"/>
<use width="744.094" height="1052.362" xlink:href="#path6173" transform="matrix(1.2166 -.26625 .26625 1.2166 -315.67 -80.202)"/>
<use width="744.094" height="1052.362" xlink:href="#path6173" transform="matrix(.94494 .83196 -.83196 .94494 276.39 50.606)"/>
<use width="744.094" height="1052.362" xlink:href="#path6173" transform="matrix(.68469 -.72444 .72444 .68469 -633.06 290.94)"/>
<use width="744.094" height="1052.362" xlink:href="#path6173" transform="matrix(.84895 .5672 -.5672 .84895 82.895 146.44)"/>
<use width="744.094" height="1052.362" xlink:href="#path6173" transform="matrix(1.0532 .32518 -.32518 1.0532 36.341 -42.405)"/>
<use width="744.094" height="1052.362" xlink:href="#path6173" transform="matrix(.96666 .31211 -.31211 .96666 29.12 7.8962)"/>
<use width="744.094" height="1052.362" xlink:href="#path6173" transform="matrix(1.1717 -.02836 .02836 1.1717 -215.56 -79.126)"/>
<use width="744.094" height="1052.362" xlink:href="#path6173" transform="matrix(1.057 -.68094 .68094 1.057 -601.01 26.228)"/>
<use width="744.094" height="1052.362" xlink:href="#path6173" transform="matrix(.91237 .52034 -.52034 .91237 .86197 96.615)"/>
<use width="744.094" height="1052.362" xlink:href="#path6173" transform="matrix(.87026 -.68832 .68832 .87026 -722.57 185.77)"/>
</g>
<g fill="#5a4c49" transform="translate(-24.045 -372.34)">
<path color="#000" d="m332.31,727.52c0,31.44-15.95,56.92-35.64,56.92s-35.65-25.48-35.65-56.92c0-31.43 15.96-56.92 35.65-56.92s35.64,25.49 35.64,56.92z" transform="matrix(.86391 -.06197 .08144 .83552 62.676 60.947)"/>
<path d="m313.47,609.11l12.01,96.21 55.29-7.25-6.25-95.37z"/>
</g>
<g transform="translate(-24.045 -372.34)">
<path fill="#250903" color="#000" d="m332.31,727.52c0,31.44-15.95,56.92-35.64,56.92s-35.65-25.48-35.65-56.92c0-31.43 15.96-56.92 35.65-56.92s35.64,25.49 35.64,56.92z" transform="matrix(.91386 .00054 .02721 .84953 27.377 39.395)"/>
<path fill="#473c39" stroke="#000" d="m293.52,677.33s2.12,6.84 6.92,13.41c4.82,6.61 18.76,14.72 19.31,13.62 2.09,.32 3.66-.4 5.38-.81l8.24-7.12s-8.69,5.54-14.95,2.19c-6.45-3.46-21.85-20.48-23.68-24.75s-3.66-8.13-3.66-8.13z"/>
</g>
</svg>
