<svg xmlns="http://www.w3.org/2000/svg" viewBox="0 0 478.974 266.573" xmlns:xlink="http://www.w3.org/1999/xlink" enable-background="new 0 0 478.974 266.573">
<switch>
<g>
<g>
<g fill-rule="evenodd">
<path stroke="#000" stroke-width=".036" d="m9.042,143.27c-5.878,5.49-7.06,11.769-5.096,18.833 1.963,5.491-2.745,10.98 17.651,21.174 18.829,8.641 58.442,25.111 97.667,37.263 38.437,12.173 89.43,27.473 131.79,35.304 41.188,6.683 83.154,16.877 115.32,6.278 30.601-11.364 53.351-36.092 69.821-74.12-4.702-2.361-25.1-7.47-61.191-13.747-36.868-7.044-88.25-15.684-155.71-25.877-50.994-10.193-92.571-14.896-127.87-15.684-35.305-.77-62.762,2.76-82.378,10.59z" stroke-miterlimit="10"/>
<path fill="#e5953c" stroke="#000" stroke-width=".036" d="m429.14,190.75l-121.99,69.801c14.907,3.149 30.984,2.361 46.678-2.341 16.077-5.896 35.295-16.09 48.637-27.453 12.16-12.56 21.56-23.95 26.67-40.01z" stroke-miterlimit="10"/>
<path fill="#e5953c" stroke="#000" stroke-width=".036" d="m302.45,258.21c-25.504-5.108-50.605-9.406-75.312-14.514-25.499-6.278-50.604-9.811-75.312-16.876-26.28-9.022-58.446-17.258-80.019-26.28-23.925-9.023-45.891-16.855-55.308-25.09-8.629-9.812-13.332-22.366 .787-28.645 12.944-7.83 37.261-11.768 74.525-10.193 36.48,.788 96.884,10.193 143.17,17.642 44.711,6.683 94.921,15.705 127.87,22.366 31.771,5.49 52.158,9.406 62.757,11.768-40.8,23.13-81.99,46.28-123.16,69.82z" stroke-miterlimit="10"/>
<path stroke="#000" stroke-width=".036" d="m51.012,87.58c-11.373-4.315-18.434-3.927-22.748-3.139-3.528,1.963-3.528,6.278-3.139,11.374-1.569,3.533-5.491,6.278-5.491,12.551-1.963,5.102-5.884,16.477-1.176,23.542 3.921,6.661 15.689,11.363 26.281,17.259 10.588,4.319 26.67,7.831 36.086,13.726 7.059,4.703 3.139,16.471 10.981,20.386 8.234,3.15 25.887-3.915 36.48,1.575 8.629,3.916 9.411,23.536 17.257,27.069 7.061,1.957 14.907-9.812 25.102-9.812 9.417,.405 21.578,4.32 30.208,10.193 7.059,5.108 5.489,12.557 16.47,17.664 10.981,3.128 33.347-.404 47.467,3.128 12.938,2.361 12.544,10.193 30.59,14.513 16.864,3.532 40.007,8.235 70.991,10.981 5.107-6.278 14.907-13.727 26.282-25.494 11.374-12.556 32.56-28.239 43.933-42.753 10.588-16.088 20.397-35.688 21.962-43.54 0-7.448-13.727,1.575-15.685,0-3.139-3.128 4.704-11.768 2.352-13.726-3.139-1.957-9.416-1.957-18.822,1.575l-43.539,30.983c-110.61-25.88-221.22-51.78-331.84-78.06z" stroke-miterlimit="10"/>
<path fill="#ffffc7" stroke="#000" stroke-width=".036" d="m35.718,89.537c-3.921,5.103-7.454,11.38-9.023,17.259-3.139,5.884-7.453,12.162-3.921,18.833 3.921,5.491 17.652,10.597 24.318,15.3 4.314,2.341-1.175,5.087 6.278,8.236 7.059,3.532 30.596,7.831 37.262,12.938 5.884,4.32-7.06,12.556 .393,15.685 7.061,2.361 29.416-1.959 40.009,1.957 8.628,4.32 6.666,18.833 13.725,22.365 6.277,1.959 16.082-8.234 24.711-7.853 7.061,.788 13.732,6.684 20.004,10.216 5.884,1.957 11.38,1.553 16.476,5.086 3.534,2.744 3.534,9.022 9.023,12.96 5.491,2.341 15.694,4.702 25.888,5.49 10.193-.405 18.439-3.149 29.025-.788 7.056,1.958 7.449,9.023 22.356,13.727 14.907,3.915 37.262,7.064 68.639,10.98 16.483-14.514 30.997-25.494 43.541-36.092 10.979-10.98 20.003-14.896 28.633-25.494 7.459-12.15 19.61-34.899 21.185-40.794 .787-6.278-12.162,7.448-14.514,6.277-2.745-2.341 .394-16.472-2.745-16.472-4.713-1.574-10.98,4.32-20.396,10.194-10.588,5.49-21.185,12.555-36.475,22.748-38.837-10.193-86.687-21.557-143.57-35.688-58.43-14.15-123.93-29.84-200.81-47.103z" stroke-miterlimit="10"/>
<path stroke="#000" stroke-width=".036" d="m409.14,142.89c-18.439-.404-40.4,.383-59.627,.787-20.397-1.191-42.752-3.149-54.913-2.745-12.162-.404-16.866-.787-20.398,3.532-4.703,3.916-7.449,10.193-6.66,17.259-.396,6.661 2.35,12.534 9.799,19.216 7.064,4.32 19.227,7.065 38.049,9.811 18.439,1.958 51.382,5.086 70.216,6.257 18.034,1.979 26.28,1.979 36.868,3.149 9.417,.384 15.301-2.362 22.354-3.915 6.278-3.149 10.598-9.811 14.514-14.131 3.926-5.107 5.098-13.726 5.098-18.429-1.565-6.682-6.269-12.556-14.12-16.088-10.59-3.55-24.32-5.13-41.18-4.72z" stroke-miterlimit="10"/>
<path fill="#a16121" stroke="#000" stroke-width=".036" d="m406.39,144.84c-16.874-.788-39.23,.787-56.488,1.575-20.004-1.192-41.571-2.746-54.127-3.15-12.555-.787-16.087-1.553-19.61,2.362-4.713,3.128-6.671,8.235-5.883,15.301 0,5.873 1.17,12.556 9.406,18.429 7.458,4.703 19.226,5.895 36.879,9.406 17.257,1.979 50.199,5.107 68.639,6.277 17.259,1.958 26.281,1.958 36.081,3.149 9.416,.383 15.694-2.362 21.972-3.938 5.49-3.511 10.194-8.617 14.12-13.726 2.352-6.66 5.884-12.15 4.704-18.046-1.959-6.256-5.098-9.001-13.728-12.533-10.58-2.36-25.09-5.49-41.96-5.11z" stroke-miterlimit="10"/>
<path stroke="#000" stroke-width=".036" d="m298.91,179.36l3.915-3.915-2.745-2.363-.394,3.533h-3.128l2.35,2.75z" stroke-miterlimit="10"/>
<path stroke="#000" stroke-width=".036" d="m294.6,158.57l3.532-3.916-2.353-2.745-.394,3.916h-3.139l2.35,2.75z" stroke-miterlimit="10"/>
<path stroke="#000" stroke-width=".036" d="m303.62,155.04l3.141-.788-.396-1.17-3.139-.787 .4,2.75z" stroke-miterlimit="10"/>
<path stroke="#000" stroke-width=".036" d="m458.17,166.81c-.787,4.703-3.532,12.556-3.926,14.514-1.181-.384 1.181-10.193 1.181-11.364-.787-1.191-1.968-.404-3.533,2.341-1.967,.787-7.852,3.937-7.064,4.703-.394-.767 4.319-6.256 6.672-7.448 1.564-2.341 2.352-2.745 2.352-2.745-2.745-1.171-10.981-1.171-10.981-1.575-.394-1.169 10.194,0 12.162-.765 .777-1.575-3.14-5.108-4.319-6.278-1.959-2.745-6.278-3.938-5.491-3.533-.394-.404 5.885,.788 8.236,3.533 1.96,1.97 3.52,4.31 4.71,8.63z" stroke-miterlimit="10"/>
<path stroke="#000" stroke-width=".036" d="m402.86,160.15l3.532-3.916-2.361-2.745-.395,3.916h-3.128l2.35,2.75z" stroke-miterlimit="10"/>
<path stroke="#000" stroke-width=".036" d="m432.66,165.23l3.139-.765-.776-1.192-2.745-.788 .38,2.75z" stroke-miterlimit="10"/>
<path stroke="#000" stroke-width=".036" d="m427.96,157l3.139-.384-.787-1.574-2.745-.788 .4,2.74z" stroke-miterlimit="10"/>
<path stroke="#000" stroke-width=".036" d="m417.76,162.89l3.128-.405-.776-1.553-2.745-.787 .4,2.75z" stroke-miterlimit="10"/>
<path stroke="#000" stroke-width=".036" d="m411.88,156.61l3.129-.383-.383-1.191-3.14-1.171 .39,2.74z" stroke-miterlimit="10"/>
<path stroke="#000" stroke-width=".036" d="m437.38,186.43l3.532-.404-.788-1.171-2.744-1.171v2.74z" stroke-miterlimit="10"/>
<path stroke="#000" stroke-width=".036" d="m432.66,178.58l3.139-.787-.394-1.171-3.139-1.17 .39,3.13z" stroke-miterlimit="10"/>
<path stroke="#000" stroke-width=".036" d="m418.15,192.3l3.139-.787-.776-1.171-2.745-.787 .39,2.75z" stroke-miterlimit="10"/>
<path stroke="#000" stroke-width=".036" d="m382.07,173.87h5.097l.394-3.916-3.139,2.341-2.352-2.341v3.92z" stroke-miterlimit="10"/>
<path stroke="#000" stroke-width=".036" d="m340.88,170.34l3.926-3.916-2.745-2.361-.394,3.532h-3.139l2.35,2.75z" stroke-miterlimit="10"/>
<path stroke="#000" stroke-width=".036" d="m394.23,171.92l3.523-.788-.778-1.171-2.745-1.191v3.15z" stroke-miterlimit="10"/>
<path stroke="#000" stroke-width=".036" d="m381.28,168.38l3.139-.383-.787-1.575-2.745-.788 .4,2.75z" stroke-miterlimit="10"/>
<path stroke="#000" stroke-width=".036" d="m370.69,175.45l3.532-.404-.787-1.554-2.745-.788v2.74z" stroke-miterlimit="10"/>
<path stroke="#000" stroke-width=".036" d="m365.98,167.21l3.139-.404-.383-1.575-2.756-.765v2.73z" stroke-miterlimit="10"/>
<path stroke="#000" stroke-width=".036" d="m355.79,173.08l3.139-.383-.789-1.574-2.743-.787 .39,2.74z" stroke-miterlimit="10"/>
<path stroke="#000" stroke-width=".036" d="m349.9,166.81l3.532-.383-.786-1.192-2.746-1.169v2.74z" stroke-miterlimit="10"/>
<path stroke="#000" stroke-width=".036" d="m328.72,184.47l3.532-.788-.787-1.19-2.745-.767v2.75z" stroke-miterlimit="10"/>
<path stroke="#000" stroke-width=".036" d="m324.01,176.23l3.532-.404-.787-1.574-2.745-.766v2.74z" stroke-miterlimit="10"/>
<path stroke="#000" stroke-width=".036" d="m313.82,182.11l3.128-.383-.382-1.575-3.14-.787 .39,2.74z" stroke-miterlimit="10"/>
<path stroke="#000" stroke-width=".036" d="m307.94,175.83l3.521-.382-.776-1.192-2.745-1.171v2.74z" stroke-miterlimit="10"/>
<path stroke="#000" stroke-width=".036" d="m324.41,163.68l3.14-.787-.787-1.171-2.745-1.191 .39,3.15z" stroke-miterlimit="10"/>
<path stroke="#000" stroke-width=".036" d="m319.71,155.44l3.128-.788-.776-1.17-2.745-1.191 .39,3.15z" stroke-miterlimit="10"/>
<path stroke="#000" stroke-width=".036" d="m309.11,161.32l3.532-.787-.787-1.171-2.745-1.17v3.13z" stroke-miterlimit="10"/>
<path stroke="#000" stroke-width=".036" d="m407.56,181.72l3.926-3.937-2.745-2.745-.394,3.532-3.139,.404 2.35,2.75z" stroke-miterlimit="10"/>
<path stroke="#000" stroke-width=".036" d="m422.47,184.06l3.14-.384-.789-1.19-2.744-1.171 .39,2.74z" stroke-miterlimit="10"/>
<path stroke="#000" stroke-width=".036" d="m416.58,178.19l3.532-.788-.787-1.171-2.745-1.19v3.15z" stroke-miterlimit="10"/>
<path stroke="#000" stroke-width=".036" d="m385.6,184.47h5.096l.394-3.938-3.139,2.363-1.957-2.363-.39,3.94z" stroke-miterlimit="10"/>
<path stroke="#000" stroke-width=".036" d="m351.48,185.64h5.49l.394-3.533-3.139,2.362-2.362-2.362-.38,3.53z" stroke-miterlimit="10"/>
<path stroke="#000" stroke-width=".036" d="m365.98,158.98l3.139-.787-.776-1.191-2.745-1.171 .38,3.15z" stroke-miterlimit="10"/>
<path stroke="#000" stroke-width=".036" d="m386.38,153.87l3.532-.383-.786-1.191-2.746-1.171v2.74z" stroke-miterlimit="10"/>
<path stroke="#000" stroke-width=".036" d="m337.35,153.87l3.532-.383-.787-1.191-2.745-1.171v2.74z" stroke-miterlimit="10"/>
<path stroke="#000" stroke-width=".036" d="m339.31,180.94l3.532-.787-.786-1.17-2.746-1.191v3.15z" stroke-miterlimit="10"/>
<path stroke="#000" stroke-width=".036" d="m370.69,187.21l3.532-.787-.787-1.171-2.745-1.191v3.15z" stroke-miterlimit="10"/>
<path stroke="#000" stroke-width=".036" d="m288.71,172.7l3.139-.404-.777-1.17-2.755-1.171 .39,2.74z" stroke-miterlimit="10"/>
<path stroke="#000" stroke-width=".036" d="m280.47,161.32l3.533-.383-.787-1.191-2.746-1.171v2.74z" stroke-miterlimit="10"/>
<path stroke="#000" stroke-width=".036" d="m271.45,173.49c6.671,2.34 10.597,1.554 10.203,1.958-.787-1.575-4.713-1.958-11.769-5.491-1.573-3.149-1.18-7.064-.393-7.47 0-1.553 5.884-.766 5.49-.766 0-1.191-2.745-1.574-6.671-2.745 4.713-3.532 7.458-6.277 8.246-6.682-.395-1.171-2.756,0-7.065,1.957-.787,4.725-.394,7.47-.394,11.385-.01,3.53 .78,5.1 2.34,7.85z" stroke-miterlimit="10"/>
<path stroke="#000" stroke-width=".036" d="m147.12,130.33c-18.434-.394-40.4,.395-59.623,.788-20.396-1.182-42.752-3.139-54.914-2.746-12.156-.394-16.864-.788-20.396,3.533-4.703,3.915-7.448,10.193-6.666,17.259-.394,6.66 2.351,12.555 9.805,19.216 7.06,4.319 19.222,7.065 38.049,9.811 18.434,1.957 51.382,5.085 70.209,6.277 16.866,1.958 26.676,1.958 36.874,3.128 9.018,.404 16.079-2.341 22.75-3.916 6.272-3.149 10.586-9.81 14.514-14.13 2.35-5.085 5.884-13.726 4.702-18.429-1.563-6.661-6.272-12.555-14.118-16.088-10.58-3.53-24.31-5.09-41.17-4.7z" stroke-miterlimit="10"/>
<path fill="#a16121" stroke="#000" stroke-width=".036" d="m144.37,132.29c-16.871-.787-39.226,.787-56.484,1.575-20.002-1.171-41.575-2.745-54.131-3.139-12.55-.788-16.083-1.565-19.61,2.351-4.708,3.149-6.666,8.235-5.884,15.301 0,5.873 1.176,12.556 9.412,18.429 7.454,4.703 19.221,5.895 36.873,9.427 17.259,1.959 50.207,5.087 68.641,6.258 17.259,1.979 26.282,1.979 36.086,3.149 9.416,.383 15.694-2.363 21.966-3.916 5.491-3.532 10.2-8.641 14.12-13.747 3.926-6.661 5.103-12.151 5.103-18.024-1.57-6.278-6.279-9.023-14.12-12.556-10.6-2.35-25.11-5.48-41.98-5.1z" stroke-miterlimit="10"/>
<path stroke="#000" stroke-width=".036" d="m36.893,166.81l3.921-3.915-2.746-2.745-.388,3.916h-3.139l2.352,2.73z" stroke-miterlimit="10"/>
<path stroke="#000" stroke-width=".036" d="m32.578,146.02l3.533-3.916-2.357-2.746-.388,3.916h-3.139l2.351,2.75z" stroke-miterlimit="10"/>
<path stroke="#000" stroke-width=".036" d="m41.601,142.48l3.139-.766-.394-1.192-3.139-.787 .394,2.75z" stroke-miterlimit="10"/>
<path stroke="#000" stroke-width=".036" d="m196.14,154.25c-.787,4.725-3.532,12.556-3.92,14.514-1.182-.383 1.175-10.193 1.175-11.363-.787-1.171-1.962-.404-3.532,2.341-1.964,.787-7.843,3.937-7.059,4.725-.394-.788 4.313-6.278 6.666-7.47 1.568-2.342 2.357-2.746 2.357-2.746-2.746-1.17-10.987-1.17-10.987-1.553-.388-1.192 10.198,0 12.162-.788 .782-1.575-3.139-5.107-4.314-6.277-1.963-2.745-6.277-3.915-5.491-3.532-.393-.383 5.884,.787 8.236,3.532 1.95,1.97 3.52,4.33 4.69,8.63z" stroke-miterlimit="10"/>
<path stroke="#000" stroke-width=".036" d="m140.84,147.59l3.532-3.916-2.357-2.745-.388,3.916h-3.139l2.36,2.75z" stroke-miterlimit="10"/>
<path stroke="#000" stroke-width=".036" d="m170.65,152.7l3.139-.788-.784-1.17-2.744-.787 .38,2.75z" stroke-miterlimit="10"/>
<path stroke="#000" stroke-width=".036" d="m165.94,144.46l3.139-.404-.787-1.574-2.746-.766 .4,2.74z" stroke-miterlimit="10"/>
<path stroke="#000" stroke-width=".036" d="m155.74,150.33l3.139-.382-.787-1.575-2.745-.787 .4,2.74z" stroke-miterlimit="10"/>
<path stroke="#000" stroke-width=".036" d="m149.86,144.06l3.139-.383-.394-1.191-3.139-1.171 .39,2.74z" stroke-miterlimit="10"/>
<path stroke="#000" stroke-width=".036" d="m175.35,173.87l3.532-.383-.787-1.192-2.745-1.17v2.74z" stroke-miterlimit="10"/>
<path stroke="#000" stroke-width=".036" d="m170.65,166.02l3.139-.788-.388-1.169-3.139-1.171 .39,3.13z" stroke-miterlimit="10"/>
<path stroke="#000" stroke-width=".036" d="m156.13,179.74l3.139-.766-.782-1.191-2.745-1.171 .39,3.13z" stroke-miterlimit="10"/>
<path stroke="#000" stroke-width=".036" d="m120.05,161.32h5.097l.394-3.915-3.139,2.341-2.352-2.341v3.92z" stroke-miterlimit="10"/>
<path stroke="#000" stroke-width=".036" d="m78.863,157.78l3.922-3.915-2.746-2.362-.388,3.533h-3.139l2.351,2.75z" stroke-miterlimit="10"/>
<path stroke="#000" stroke-width=".036" d="m132.21,159.36l3.532-.787-.787-1.17-2.745-1.171v3.13z" stroke-miterlimit="10"/>
<path stroke="#000" stroke-width=".036" d="m119.26,155.83l3.139-.383-.787-1.575-2.745-.787 .4,2.74z" stroke-miterlimit="10"/>
<path stroke="#000" stroke-width=".036" d="m108.67,162.89l3.532-.788-.782-1.17-2.75-.787v2.75z" stroke-miterlimit="10"/>
<path stroke="#000" stroke-width=".036" d="m103.97,154.66l3.527-.404-.782-1.553-2.745-.788v2.74z" stroke-miterlimit="10"/>
<path stroke="#000" stroke-width=".036" d="m93.77,160.53l3.139-.383-.787-1.575-2.745-.788 .393,2.74z" stroke-miterlimit="10"/>
<path stroke="#000" stroke-width=".036" d="m87.886,154.25l3.529-.383-.783-1.17-2.746-1.192v2.74z" stroke-miterlimit="10"/>
<path stroke="#000" stroke-width=".036" d="m66.701,171.92l3.534-.788-.783-1.171-2.75-.787v2.75z" stroke-miterlimit="10"/>
<path stroke="#000" stroke-width=".036" d="m61.999,163.68l3.527-.404-.781-1.554-2.746-.787v2.74z" stroke-miterlimit="10"/>
<path stroke="#000" stroke-width=".036" d="m51.801,169.55l3.139-.383-.396-1.574-3.139-.788 .396,2.74z" stroke-miterlimit="10"/>
<path stroke="#000" stroke-width=".036" d="m45.917,163.27l3.527-.383-.782-1.171-2.745-1.191v2.74z" stroke-miterlimit="10"/>
<path stroke="#000" stroke-width=".036" d="m62.393,151.12l3.133-.788-.781-1.169-2.746-1.192 .394,3.15z" stroke-miterlimit="10"/>
<path stroke="#000" stroke-width=".036" d="m57.684,142.89l3.141-.787-.789-1.171-2.745-1.171 .393,3.13z" stroke-miterlimit="10"/>
<path stroke="#000" stroke-width=".036" d="m47.092,148.76l3.532-.787-.787-1.171-2.746-1.17v3.13z" stroke-miterlimit="10"/>
<path stroke="#000" stroke-width=".036" d="m145.54,169.17l3.922-3.938-2.745-2.745-.394,3.533-3.134,.404 2.34,2.76z" stroke-miterlimit="10"/>
<path stroke="#000" stroke-width=".036" d="m160.45,171.51l3.133-.383-.781-1.171-2.746-1.191 .4,2.74z" stroke-miterlimit="10"/>
<path stroke="#000" stroke-width=".036" d="m154.57,165.64l3.529-.787-.783-1.17-2.746-1.192v3.15z" stroke-miterlimit="10"/>
<path stroke="#000" stroke-width=".036" d="m123.58,171.92h5.103l.388-3.938-3.139,2.362-1.958-2.362-.39,3.94z" stroke-miterlimit="10"/>
<path stroke="#000" stroke-width=".036" d="m89.456,173.08h5.491l.394-3.532-3.139,2.363-2.357-2.363-.389,3.53z" stroke-miterlimit="10"/>
<path stroke="#000" stroke-width=".036" d="m103.97,146.42l3.133-.788-.781-1.171-2.746-1.191 .4,3.15z" stroke-miterlimit="10"/>
<path stroke="#000" stroke-width=".036" d="m124.36,141.31l3.532-.383-.784-1.171-2.745-1.19v2.744z" stroke-miterlimit="10"/>
<path stroke="#000" stroke-width=".036" d="m75.331,141.31l3.532-.383-.782-1.171-2.745-1.19v2.744h-.005z" stroke-miterlimit="10"/>
<path stroke="#000" stroke-width=".036" d="m77.294,168.38l3.532-.787-.787-1.171-2.745-1.192v3.15z" stroke-miterlimit="10"/>
<path stroke="#000" stroke-width=".036" d="m108.67,174.66l3.532-.787-.782-1.171-2.75-1.191v3.15z" stroke-miterlimit="10"/>
<path stroke="#000" stroke-width=".036" d="m26.695,160.15l3.139-.404-.783-1.171-2.745-1.17 .389,2.74z" stroke-miterlimit="10"/>
<path stroke="#000" stroke-width=".036" d="m18.459,148.76l3.533-.383-.788-1.575-2.746-.786v2.75z" stroke-miterlimit="10"/>
<path stroke="#000" stroke-width=".036" d="m9.436,160.93c6.672,2.341 10.592,1.553 10.199,1.958-.782-1.575-4.708-1.958-11.768-5.49-1.569-3.15-1.176-7.066-.388-7.448 0-1.575 5.884-.787 5.491-.787 0-1.192-2.745-1.575-6.672-2.745 4.708-3.533 7.454-6.278 8.241-6.662-.394-1.19-2.745,0-7.06,1.959-.788,4.703-.394,7.448-.394,11.363 0,3.53 .782,5.11 2.351,7.85z" stroke-miterlimit="10"/>
<path stroke="#000" stroke-width=".036" d="m93.77,100.92c-.394,1.958-2.355,4.703-4.314,8.235-1.964,2.75-10.987,6.667-9.023,10.199 0,2.352 9.411,4.32 13.337,7.448 3.139,3.139 4.315,5.49 7.842,11.385 2.357,4.703 6.671,11.769 11.375,19.599 5.101,7.065 12.555,22.366 17.652,23.153 3.139-.787 0-16.47 2.744-22.748 1.964-7.448 6.278-13.343 11.375-16.088 4.709-3.128 14.125-2.342 16.082-3.916-.388-3.532-7.453-9.427-9.018-12.949-1.962-4.31-2.355-7.459-1.181-10.991-18.8-4.31-37.63-8.63-56.85-13.33z" stroke-miterlimit="10"/>
<path fill="#ffffc7" stroke="#000" stroke-width=".036" d="m96.515,104.44c-.394,3.139-1.568,5.884-3.532,8.236-1.958,1.968-10.979,3.139-9.018,5.096-.394,1.575 10.2,.788 13.727,3.927 3.92,2.744 5.884,8.235 9.023,10.204 1.175-.404 3.139-7.459 5.884-7.459 2.35,0 8.234,5.097 11.763,4.714 3.137-2.745 4.707-6.671 6.277-16.088-11.38-2.74-22.75-5.49-34.125-8.63z" stroke-miterlimit="10"/>
<path fill="#ffffc7" stroke="#000" stroke-width=".036" d="m134.17,115.42c-.393,5.501-1.177,10.587-2.357,13.737-1.175,1.565-2.746,4.32-4.704,3.916-2.749-.383-10.985-4.32-12.555-2.745-2.745,.395-5.095,3.916-2.745,10.598 1.964,6.661 10.987,25.09 14.907,28.239 2.352,1.575 1.177-13.343 3.922-17.663 1.569-5.489 6.671-10.193 10.985-12.533 3.134-2.363 13.333-1.192 14.121-2.363-.787-3.128-8.242-9.81-10.2-12.555-1.962-3.532-1.962-6.277 0-8.235-3.55-.02-7.47-.02-11.39-.42z" stroke-miterlimit="10"/>
<path stroke="#000" stroke-width=".036" d="m249.49,134.25c-20.004-.383-31.772,0-38.444,2.745-6.666,2.361 .394,7.064 0,12.556-1.563,5.106-10.586,12.938-7.447,17.258 1.957,2.745 9.018,3.533 21.174,2.362-3.128,3.128-2.352,4.32 3.925,7.831 5.097,3.149 21.568,4.32 29.814,7.853 7.055,3.149 12.162,9.405 15.29,8.236 1.181-3.916-1.171-15.301 1.968-23.537 3.532-7.831 9.801-16.471 20.397-24.323-15.3-3.52-31-7.06-46.68-10.99z" stroke-miterlimit="10"/>
<path fill="#ffffc7" stroke="#000" stroke-width=".036" d="m249.88,136.99c-15.301-.384-25.495-1.554-30.596,.787-5.496,1.192-.394,3.938-1.177,8.236-1.962,3.937-11.378,12.172-8.627,15.704 1.957,3.511 8.234,4.299 20.396,3.915-2.746,3.916-2.746,7.448 0,9.023 1.958,1.958 10.587,1.958 13.727,0 1.169-4.703-4.704-18.046-2.353-20.408 2.353-2.341 11.758,5.107 16.077,4.32 3.532-2.341 5.49-7.831 5.884-16.471-4.3-1.58-8.62-3.13-13.33-5.11z" stroke-miterlimit="10"/>
<path fill="#ffffc7" stroke="#000" stroke-width=".036" d="m268.71,142.89l20.004,3.129c-7.056,3.149-12.546,6.682-14.907,10.597-2.745,3.129-1.958,7.065-1.958,11.769-.394,3.915-1.17,13.343-2.352,16.088-3.532,1.554-10.587-4.725-13.726-5.107s-4.714,1.574-4.714,0c-1.563-4.703-7.447-16.471-5.491-18.833 1.183-1.171 7.449,5.895 11.375,7.448 2.362-.767 5.884-4.703 7.46-8.619 2.35-4.71 2.74-10.2 4.31-16.48z" stroke-miterlimit="10"/>
<path stroke="#000" stroke-width=".036" d="m177.32,153.08l10.586-12.938 11.769-7.448 2.745,23.132-9.018,7.065-16.082,9.023v-18.82z" stroke-miterlimit="10"/>
<path fill="#e2391c" stroke="#000" stroke-width=".036" d="m179.67,153.48l13.337-9.023v16.067l-13.337,8.235v-15.28z" stroke-miterlimit="10"/>
<path fill="#e2391c" stroke="#000" stroke-width=".036" d="m194.97,142.89l4.314-6.278 1.57,18.43-5.496,3.532-.38-15.68z" stroke-miterlimit="10"/>
<path fill="#e2391c" stroke="#000" stroke-width=".036" d="m196.93,135.82l-8.234,5.49-8.236,10.193 12.55-9.022 3.92-6.66z" stroke-miterlimit="10"/>
<path stroke="#000" stroke-width=".036" d="m65.526,120.93l14.907,7.055 9.805,9.799-21.966,8.236-8.629-7.448-12.55-13.726 18.433-3.91z" stroke-miterlimit="10"/>
<path fill="#e2391c" stroke="#000" stroke-width=".036" d="m65.526,122.88l11.769,10.981-16.083,3.532-10.588-10.98 14.902-3.53z" stroke-miterlimit="10"/>
<path fill="#e2391c" stroke="#000" stroke-width=".036" d="m79.258,135.44l7.059,3.129-17.652,5.106-4.708-4.32 15.301-3.92z" stroke-miterlimit="10"/>
<path fill="#e2391c" stroke="#000" stroke-width=".036" d="m86.711,135.82l-7.453-7.065-11.769-5.49 11.769,10.214 7.453,2.34z" stroke-miterlimit="10"/>
<path stroke="#000" stroke-width=".036" d="m290.68,205.64l16.472,1.171 12.938,5.894-17.643,15.302-10.597-3.533-16.865-8.235 15.7-10.6z" stroke-miterlimit="10"/>
<path fill="#e2391c" stroke="#000" stroke-width=".036" d="m291.85,207.6l14.512,5.895-13.331,9.023-13.727-6.278 12.55-8.64z" stroke-miterlimit="10"/>
<path fill="#e2391c" stroke="#000" stroke-width=".036" d="m308.71,214.26l7.854,.404-14.514,11.363-5.885-2.341 12.55-9.42z" stroke-miterlimit="10"/>
<path fill="#e2391c" stroke="#000" stroke-width=".036" d="m316.17,212.3l-9.417-3.915-12.939-1.17 14.514,5.489 7.85-.4z" stroke-miterlimit="10"/>
<path stroke="#000" stroke-width=".036" d="m361.28,171.92c-27.453-6.684-59.224-13.344-95.315-21.58-38.827-8.234-87.862-18.428-124.34-26.281-36.086-9.023-70.214-15.688-90.219-23.137-20.002-7.454-29.414-14.125-32.553-21.578-5.102-9.018-5.49-21.574 5.097-31.767 9.417-12.556 29.42-27.457 55.309-35.698 24.711-7.842 51.775-14.902 97.666-10.587 45.498,2.352 122.77,14.12 174.16,30.59 50.595,15.695 92.176,37.656 127.86,65.901l-90.995,81.583c-8.62-2.36-17.64-4.7-26.66-7.44z" stroke-miterlimit="10"/>
<path fill="#e5953c" stroke="#000" stroke-width=".036" d="m385.99,175.45c-3.139-7.853-4.714-17.259-3.139-29.814-.788-13.343 2.351-34.911 9.406-46.678 7.064-12.944 18.046-25.494 32.953-25.494 14.118,0 28.632,7.842 47.848,25.1-29.02,25.482-58.05,50.982-87.07,76.882z" stroke-miterlimit="10"/>
<path fill="#e5953c" stroke="#000" stroke-width=".036" d="m426.78,67.964c-32.549-15.688-68.245-27.845-107.07-38.044-41.59-10.986-88.66-20.791-129.05-23.142-40.794-3.532-79.626-.788-107.48,8.235-28.24,9.417-52.952,28.239-58.837,42.752-7.454,12.556-.787,21.967 18.435,32.56 19.614,9.805 59.621,16.082 98.846,26.281 36.475,8.629 85.893,18.429 125.52,27.855 40.402,9.789 76.09,17.642 112.97,27.835-3.139-17.642-3.139-31.771 0-46.667 2.351-16.083 8.234-28.639 16.077-39.226 7.44-10.593 17.65-15.301 30.59-18.44z" stroke-miterlimit="10"/>
<path stroke="#000" stroke-width=".036" d="m75.724,55.808c-3.92,2.352-5.882,5.884-5.882,7.454 .393,1.958 2.355,3.921 5.882,4.314 1.182-.393 3.139-4.314 4.315-5.496 .394-2.351 .394-5.49 0-7.842-1.176,.394-2.745,.783-4.315,1.57z" stroke-miterlimit="10"/>
<path fill="#f5c080" stroke="#000" stroke-width=".036" d="m78.081,56.59c-1.568-.782-5.496,3.533-5.884,5.49-1.569,.788 .388,2.357 1.57,3.139 0,0 3.92,0 4.313-1.569 .389-2.745 .389-6.667 .001-7.06z" stroke-miterlimit="10"/>
<path stroke="#000" stroke-width=".036" d="m121.62,35.411c-.39,5.096-.39,7.059 1.569,9.023 1.57,.388 4.313,0 6.671-1.181 .783-1.176 0-5.879-.787-6.666-.781-1.963-3.133-4.314-5.491-5.49-.39,1.175-1.18,2.744-1.96,4.314z" stroke-miterlimit="10"/>
<path fill="#f5c080" stroke="#000" stroke-width=".036" d="m123.97,34.235c-.787,.781-.787,5.491 0,7.842 .39,.788 1.964,1.176 3.139,1.176 .388-1.564 1.57-2.352 1.958-3.921-1.17-2.352-4.31-5.491-5.1-5.097z" stroke-miterlimit="10"/>
<path stroke="#000" stroke-width=".036" d="m189.09,80.908c-4.315-.389-8.241,1.569-8.629,2.745-1.181,1.964 0,4.709 1.958,6.672 .394,.394 4.707-.788 6.671-1.963 1.957-1.569 3.527-3.139 4.702-6.273-1.57-.394-3.13-.787-4.7-1.181z" stroke-miterlimit="10"/>
<path fill="#f5c080" stroke="#000" stroke-width=".036" d="m191.04,82.871c-1.957-1.569-6.272,.394-8.234,1.569-1.964,.394-1.57,1.963-.394,3.139 .394,.782 1.18,1.176 3.926,1.176 1.17-1.569 4.69-5.49 4.69-5.884z" stroke-miterlimit="10"/>
<path stroke="#000" stroke-width=".036" d="m244.39,73.848c-4.318-2.352-6.671-3.921-8.64-3.139-2.341,.394-3.128,4.708-2.341,6.671 0,1.176 3.523,1.958 6.278,2.352 1.958,.394 5.086-.783 7.832-1.958-.77-1.181-1.96-2.357-3.13-3.926z" stroke-miterlimit="10"/>
<path fill="#f5c080" stroke="#000" stroke-width=".036" d="m244.78,76.593c-.775-1.564-6.277-3.921-7.447-3.921-1.576-1.176-2.352,1.176-2.352,2.357 0,.388 .394,3.134 2.745,3.527 .78-.393 6.67-1.569 7.06-1.963z" stroke-miterlimit="10"/>
<path stroke="#000" stroke-width=".036" d="m295.78,97.778c-5.097-1.964-6.671-3.139-9.022-1.964-2.353-.394-2.353,5.491-1.576,7.06 .789,1.569 3.534,1.569 6.673,1.569 1.968,0 4.319-1.569 7.064-3.139-.78-1.17-1.97-2.346-3.13-3.522z" stroke-miterlimit="10"/>
<path fill="#f5c080" stroke="#000" stroke-width=".036" d="m296.17,100.52c-.787-1.963-6.277-3.533-7.458-3.139-2.352-.395-3.139,1.569-2.352,2.745-.394,.788 1.181,2.352 3.139,3.139 1.56-.39 5.88-2.75 6.67-2.75z" stroke-miterlimit="10"/>
<path stroke="#000" stroke-width=".036" d="m300.48,76.206c-.394-3.533-1.563-6.279-1.957-6.672-2.352-1.569-3.925,.394-4.703,1.57-1.181,.788-.787,2.357 1.171,4.708 .787,.782 2.351,1.964 4.702,3.528 0-.784 .39-1.96 .79-3.134z" stroke-miterlimit="10"/>
<path fill="#f5c080" stroke="#000" stroke-width=".036" d="m298.91,77.38c0-.394-.786-5.884-.786-5.884-1.183-1.569-1.959-1.175-2.353-.393-1.18,.788-1.958,.788-.787,3.139 1.19,.787 1.96,2.351 3.93,3.138z" stroke-miterlimit="10"/>
<path stroke="#000" stroke-width=".036" d="m380.89,67.183c-4.309-1.176-7.843-.788-9.023,1.175-1.564,.788-.775,5.103 .787,7.06 .394,.788 4.321,0 7.066-.782 1.563-1.175 3.915-2.356 5.489-5.102-1.2-.782-2.76-1.57-4.33-2.351z" stroke-miterlimit="10"/>
<path fill="#f5c080" stroke="#000" stroke-width=".036" d="m382.46,69.533c-1.968-.781-6.278-.781-8.234,0-1.97,.788-2.363,1.176-1.183,2.746 .396,0 1.183,2.356 3.928,2.356 1.16-1.175 5.09-4.314 5.48-5.102z" stroke-miterlimit="10"/>
<path stroke="#000" stroke-width=".036" d="m298.52,42.077c.787,5.102 .787,7.453 3.14,8.629 1.956,.787 4.701-1.569 6.671-2.746 .776-1.569-1.97-5.096-2.362-6.272-1.17-1.57-4.309-3.533-6.278-4.315-.38,1.565-.78,3.134-1.17,4.704z" stroke-miterlimit="10"/>
<path fill="#f5c080" stroke="#000" stroke-width=".036" d="m300.48,40.119c-1.563,.782 .396,5.49 1.576,7.842 .393,.788 1.958,1.569 3.139,.788 .776-1.176 1.169-3.14 1.169-4.315-1.57-2.746-5.5-4.708-5.89-4.315z" stroke-miterlimit="10"/>
<path stroke="#000" stroke-width=".036" d="m229.88,31.877c-2.746,1.964-3.926,3.533-3.532,4.709-.787,1.175 1.958,1.569 3.532,2.745 1.565-.782 1.171-2.351 3.128-3.139 .404-1.569 .404-3.92 0-5.49-.78,.394-1.96,.787-3.13,1.175z" stroke-miterlimit="10"/>
<path fill="#f5c080" stroke="#000" stroke-width=".036" d="m231.84,32.272c-1.958,.394-2.746,1.175-3.915,3.92-1.182,.788-.406,.788 .776,1.569 .787,0 1.181-.782 2.746-.782 .39-2.356-.01-3.92 .39-4.707z" stroke-miterlimit="10"/>
<path stroke="#000" stroke-width=".036" d="m179.67,31.489c.394,4.315 1.569,7.06 3.532,8.236 2.352,1.175 3.92-2.746 6.272-2.746-.388-1.569-1.175-5.103-2.352-6.277-1.175-1.569-3.92-3.528-6.666-4.315 .01,1.57-.39,3.139-.78,5.102z" stroke-miterlimit="10"/>
<path fill="#f5c080" stroke="#000" stroke-width=".036" d="m181.63,29.526c-1.962,.782 1.177,5.49 1.964,7.847 .388,1.176 1.958,.782 3.134,.388 0-1.958 .787-3.527 .787-4.703-1.56-2.75-5.49-3.925-5.88-3.532z" stroke-miterlimit="10"/>
<path stroke="#000" stroke-width=".036" d="m341.27,104.84c2.352-1.963 3.926-3.532 4.702-4.708-.383-1.569-3.129-4.315-3.521-3.527-1.968-.393-3.14,.783-3.533,3.527-1.18,1.176-1.573,3.533-1.18,5.491 1.18,0 2.35-.39 3.53-.78z" stroke-miterlimit="10"/>
<path fill="#f5c080" stroke="#000" stroke-width=".036" d="m339.31,104.05c1.565-.388 2.746-3.133 5.098-3.527 0-.788-.787-1.963-.787-1.963-1.171-.782-2.745-1.175-3.139,.394-1.95,.785-2.35,3.929-1.17,5.099z" stroke-miterlimit="10"/>
<path stroke="#000" stroke-width=".036" d="m265.96,39.726c2.352-1.964 3.925-3.533 4.714-4.709-.394-1.569-3.139-4.313-3.534-3.527-1.967-.393-3.139,.783-3.532,3.527-1.181,1.176-1.563,3.533-1.181,5.491 1.18-.001 2.36-.389 3.53-.782z" stroke-miterlimit="10"/>
<path fill="#f5c080" stroke="#000" stroke-width=".036" d="m264,38.938c1.565-.782 2.745-2.351 5.098-3.133 0-1.569-.787-2.357-.787-2.357-1.172-.781-2.745-1.175-3.139,.395-1.95,.78-2.35,3.919-1.17,5.095z" stroke-miterlimit="10"/>
<path stroke="#000" stroke-width=".036" d="m180.46,55.414c-.787-3.527-2.357-5.491-3.139-5.884-1.175-.781-4.709,0-4.316,2.357-.787,.782 .39,2.745 1.964,4.309 .388,1.181 3.133,1.569 5.097,2.75 0-1.181 0-2.356 .4-3.532z" stroke-miterlimit="10"/>
<path fill="#f5c080" stroke="#000" stroke-width=".036" d="m178.89,56.983c-.787-.788-.787-5.096-1.568-5.491-1.57-1.569-2.352-1.176-2.352-.393-1.574,.393-1.18,1.569-.394,3.532 .77,.001 2.74,2.352 4.31,2.352z" stroke-miterlimit="10"/>
<path stroke="#000" stroke-width=".036" d="m115.34,63.649c2.35-1.958 3.92-3.527 4.707-4.703-.394-1.569-3.139-4.314-3.532-3.532-1.57-.394-3.92,.782-3.92,3.532-1.57,1.176-.789,3.528-.789,5.491 1.18,0 2.36-.394 3.53-.788z" stroke-miterlimit="10"/>
<path fill="#f5c080" stroke="#000" stroke-width=".036" d="m113.38,63.261c.787-.787 2.352-1.963 4.707-3.532 .784-1.569-.393-2.352-.393-2.352-.782-.787-3.92-1.181-3.527,.388-1.18,.395-1.97,4.709-.79,5.496z" stroke-miterlimit="10"/>
<path stroke="#000" stroke-width=".036" d="m81.608,33.447c0-3.527-.393-6.272-1.175-6.666-1.964-1.176-4.709-.783-5.103,1.176-1.175,.394-.388,3.139 .789,5.102 1.175,1.564 1.569,2.352 4.314,3.921 .394-1.176 .782-2.357 1.175-3.533z" stroke-miterlimit="10"/>
<path fill="#f5c080" stroke="#000" stroke-width=".036" d="m80.04,34.623c-.388-1.176 0-4.703-.388-5.879-1.182-1.181-1.963-1.963-2.357-.787-1.175,.787-1.57,.787-1.175,3.139 1.174,1.57 1.961,2.745 3.92,3.527z" stroke-miterlimit="10"/>
<path stroke="#000" stroke-width=".036" d="m232.23,202.9c-3.139-1.575-11.769-2.361-15.301-3.916-5.491-1.574-10.981-3.532-11.769-5.894-1.563-2.342 1.57-7.065 5.103-8.236 3.139-3.916 7.06-4.703 11.763-3.916 2.746,.788 4.713,7.832 7.458,12.152 1.181,2.744 5.097,6.682 5.491,8.639 .01,.8-.39,1.18-2.74,1.18z" stroke-miterlimit="10"/>
<path fill="#dbdb69" stroke="#000" stroke-width=".036" d="m232.23,201.73c-3.139-1.19-8.236-1.574-12.162-2.745-4.314-2.361-9.411-2.361-10.981-4.319-1.962-1.958-3.139-3.533-1.962-4.703 .787-2.362 3.532-3.532 6.666-5.107 1.568-1.575 3.532-3.916 5.884-2.745 .394-.383 3.139,2.745 3.926,5.107 1.172,1.554 1.958,4.299 3.915,6.661 .789,1.17 3.928,4.702 5.108,6.277-.4,1.58 1.95,1.58-.4,1.58z" stroke-miterlimit="10"/>
<path stroke="#000" stroke-width=".036" d="m209.87,190.34c-.388,0 3.92,1.958 7.059,4.32 1.964,1.17 8.247,1.958 8.247,2.341-.789-.383-6.283-3.128-9.028-3.511-3.92-1.98-5.49-3.53-6.28-3.15z" stroke-miterlimit="10"/>
<path stroke="#000" stroke-width=".036" d="m214.19,187.21c-.394,0 1.57,1.958 4.313,4.299 .396,1.979 7.848,3.532 7.455,4.725-.394-.405-6.278-5.491-7.059-6.278-2.36-1.58-5.89-3.94-4.71-2.75z" stroke-miterlimit="10"/>
<path stroke="#000" stroke-width=".036" d="m217.72,184.85c1.177,.788 1.958,3.916 3.927,5.107-.406-1.575-1.576-2.362-1.969-3.937-1.57-1.96-2.75-2.34-1.96-1.17z" stroke-miterlimit="10"/>
<path stroke="#000" stroke-width=".036" d="m58.073,161.72l-1.565,8.235c3.92,3.916 8.629,5.873 12.55,9.023 2.746,2.341 4.709,2.745 10.2,5.49 4.707,2.34 12.55,2.745 21.966,5.49-2.751,1.958-1.964,3.916-.787,4.298 1.962-.382 4.314,0 10.198-.382 4.314-.787 12.943-.787 16.864-1.575 2.746-1.958 .789-4.703 0-6.66-1.563-1.575-5.882-5.108-11.373-6.278-6.272-3.533-15.688-6.661-25.102-9.406-10.191-3.14-21.176-5.89-32.945-8.23z" stroke-miterlimit="10"/>
<path fill="#dbdb69" stroke="#000" stroke-width=".036" d="m102.79,193.49c-1.568,0-2.355-.788-2.355-.788-.396-1.191-.396-1.958 1.568-2.362 .787-1.574 3.532-3.533 6.666-4.319 2.357-1.958 5.103-3.532 8.241-3.128 2.745-.404 4.704-.404 7.449,1.574 1.574,.787 2.749,1.171 3.532,2.745 .787,.787-.396,1.958-.396,3.532-1.563,0-5.489,.383-7.059,1.171-2.745,.787-5.884-.404-7.841,.787-2.357-.404-3.927-.404-4.709,0-2.35-.39-3.53,.4-5.1,.8z" stroke-miterlimit="10"/>
<path stroke="#000" stroke-width=".036" d="m122.4,186.02c-1.964-1.171-4.709-1.554-6.671-1.171-3.133,.404-5.49,1.575-8.629,3.532 2.357-1.17 5.101-3.128 8.242-2.744 1.96-1.17 4.32,0 7.06,.38z" stroke-miterlimit="10"/>
<path stroke="#000" stroke-width=".036" d="m120.83,188c-1.962-.404-3.532-.404-4.708,0-1.57,.383-3.922,.383-5.491,1.554 1.175-.383 2.746,0 4.709-.383 1.18-.79 3.53-1.17 5.49-1.17z" stroke-miterlimit="10"/>
<path fill="#dbdb69" stroke="#000" stroke-width=".036" d="m58.86,162.89c8.236,1.575 14.907,3.532 21.573,5.873 5.884,1.575 10.981,2.745 16.866,5.107 5.494,1.575 10.591,3.532 15.3,5.873 2.746,1.575 5.096,1.191 5.489,1.979-2.743-1.192-4.707-.404-7.453,.767-2.745,1.19-6.277,2.766-9.023,6.277-3.527-.767-6.666-.767-9.411-1.554-2.746-.787-7.455-2.362-9.805-3.149-3.928-1.958-7.066-3.129-10.987-5.086-4.314-2.746-9.018-5.49-14.12-9.811 1.964,1.171 6.277,2.746 8.629,4.703 1.964,1.171 4.315,2.745 8.629,4.703 3.92,1.17 9.417,2.745 16.476,4.702-5.101-1.957-10.985-3.128-14.512-5.085-4.709-2.745-9.023-4.32-11.375-6.277-3.532-1.959-5.103-2.746-6.277-3.938 4.707,2.767 10.198,5.106 14.907,7.065 3.92,1.957 7.447,1.957 12.156,4.319 5.101,1.958 9.417,1.958 16.082,4.319-3.532-1.957-7.453-3.532-11.768-4.702-4.314-1.575-12.157-5.107-16.083-6.278-5.097-1.574-10.588-5.106-14.901-6.277 3.92,.787 7.447,2.341 10.588,3.128 3.139,.404 4.313,1.192 6.671,2.363-5.491-1.959-9.417-4.704-11.768-5.108-3.533-.787-5.103-2.34-6.278-1.575-.004-.73-.004-1.52 .389-2.31z" stroke-miterlimit="10"/>
<path fill="#b0722e" d="m100.44,173.87c-5.491-2.362-18.041-5.49-19.611-5.107-1.964,.404 6.666,2.745 9.411,5.49 1.57,1.192 1.177,1.574 3.139,2.745 .789-1.553 .789-2.341 3.139-2.341 2.352,0 7.061,3.916 9.411,4.32-.39-.79-.79-3.53-5.49-5.11z"/>
<path stroke="#000" stroke-width=".036" d="m.025,123.27c6.272-.384 12.55,.787 17.258,3.532 4.709,2.362 9.412,7.065 12.551,10.98 1.963,2.362 5.102,5.895 5.102,7.448 0-4.299 .783-7.831 .783-10.576-.395-3.532 0-5.107-.395-6.278-.782-5.884-2.351-10.98-4.703-13.726-3.139-3.533-8.24-4.714-12.162-5.102-4.708-.394-10.199,0-14.907,2.739-1.175,3.54-2.351,7.07-3.527,10.99z" stroke-miterlimit="10"/>
<path fill="#dbdb69" stroke="#000" stroke-width=".036" d="m2.771,121.7h3.527c-.388-2.746 .394-4.715 .788-5.884 0-1.958 1.175-3.139 1.958-3.533-.782,1.181-1.176,2.745-1.176,4.703 0,1.192-.388,3.533 .394,5.501l3.139,.394c-.787-1.18-.787-4.319 0-5.107 .783-1.17 1.176-4.31 2.746-5.096-1.175,1.18-1.175,2.744-1.57,4.713-.393,1.17-.393,3.532 0,5.49 1.176-.394 3.139,1.564 4.315,1.564 .782,1.182 2.352,.395 3.139,1.969-.394-2.363 .394-5.108 .783-6.683 .787-2.34 1.181-3.521 2.745-5.085-1.564,2.745-2.352,4.703-2.352,7.448 0,1.958-.394,3.533 .393,4.703 0,.394 1.176,.394 1.958,1.575 .787,.787 2.745,2.746 4.319,4.32-.787-2.756-.787-4.32 0-6.277 .782-1.969 1.176-3.533 2.745-4.713-1.181,2.744-1.181,4.713-1.569,7.458-.394,1.958 .388,3.128 .783,5.086 .394,.404 1.176,1.191 2.351,2.361 .788,.384 .788,1.959 1.569,3.149 .394-5.106 .394-9.427 0-12.959-1.176-3.916-1.569-7.065-2.745-9.406-1.958-3.149-4.315-4.32-7.06-5.108-3.528-1.564-6.667-2.739-9.411-1.958-3.14,0-7.06,.394-10.199,2.745-.395,2.76-.789,5.5-1.57,8.64z" stroke-miterlimit="10"/>
<path stroke="#000" stroke-width=".036" d="m17.283,121.31c0-1.575-.394-2.351 .389-3.915 0-1.969 .787-3.149 2.356-5.108-1.963,1.181-3.139,2.745-3.532,4.703-1.176,1.97-.388,1.97 .787,4.32z" stroke-miterlimit="10"/>
<path stroke="#000" stroke-width=".036" d="m25.913,126.42c-.787-1.969-.787-4.32 0-5.491 0-1.968 .782-2.745 2.352-3.938-2.352,1.969-4.315,3.15-4.315,5.108-.783,1.17 .393,3.14 1.963,4.32z" stroke-miterlimit="10"/>
<path stroke="#000" stroke-width=".036" d="m336.18,241.73l14.514-7.447 14.12-2.362-7.066,22.75-10.979,2.36-18.429,1.959 7.85-17.26z" stroke-miterlimit="10"/>
<path fill="#61a228" stroke="#000" stroke-width=".036" d="m338.13,242.91l15.693-2.745-6.671,14.896-15.301,1.978 6.28-14.13z" stroke-miterlimit="10"/>
<path fill="#61a228" stroke="#000" stroke-width=".036" d="m356.18,239.78l6.671-3.938-6.277,17.258-6.278,1.191 5.89-14.51z" stroke-miterlimit="10"/>
<path fill="#61a228" stroke="#000" stroke-width=".036" d="m360.88,233.88l-9.799,1.574-11.769,6.277 15.29-3.148 6.28-4.7z" stroke-miterlimit="10"/>
<path stroke="#000" stroke-width=".036" d="m165.16,203.28l3.532-12.151 7.06-9.022 13.338,14.514-5.103,7.853-10.198,11.363-8.63-12.55z" stroke-miterlimit="10"/>
<path fill="#61a228" stroke="#000" stroke-width=".036" d="m167.51,202.52l7.447-10.215 7.455,10.98-7.843,9.427-7.07-10.19z" stroke-miterlimit="10"/>
<path fill="#61a228" stroke="#000" stroke-width=".036" d="m176.14,190.75l1.175-5.895 9.411,11.769-3.134,4.32-7.46-10.2z" stroke-miterlimit="10"/>
<path fill="#61a228" stroke="#000" stroke-width=".036" d="m174.97,184.85l-5.103,6.661-2.744,9.81 7.059-10.193 .78-6.28z" stroke-miterlimit="10"/>
<path stroke="#000" stroke-width=".036" d="m33.366,116.21l3.139-12.162 7.448-9.018 12.943,14.514-5.095,7.847-10.2,11.363-8.235-12.55z" stroke-miterlimit="10"/>
<path fill="#61a228" stroke="#000" stroke-width=".036" d="m35.324,115.42l7.848-10.198 7.06,10.986-7.848,9.799-7.06-10.59z" stroke-miterlimit="10"/>
<path fill="#61a228" stroke="#000" stroke-width=".036" d="m43.953,103.66l1.568-5.884 9.418,11.768-3.139,4.314-7.847-10.19z" stroke-miterlimit="10"/>
<path fill="#61a228" stroke="#000" stroke-width=".036" d="m42.778,97.778l-5.098,6.666-2.745,9.8 7.447-10.194 .396-6.272z" stroke-miterlimit="10"/>
<path stroke="#000" stroke-width=".036" d="m327.55,160.93c-19.216-.787-31.378,.787-38.049,3.129-6.671,2.361 .394,7.064 0,12.555-1.565,4.319-10.588,12.938-7.449,16.876 1.959,2.745 9.013,3.511 21.174,2.34-3.139,3.149-2.35,4.32 3.928,7.854 4.702,2.34 21.567,5.085 29.419,8.235 6.662,2.341 13.333,9.022 15.686,7.852 1.573-2.767-1.959-16.087 1.573-23.152 3.532-8.619 9.8-16.876 20.398-24.706-15.31-3.53-31-7.06-46.68-10.98z" stroke-miterlimit="10"/>
<path fill="#ffffc7" stroke="#000" stroke-width=".036" d="m328.33,164.06c-15.695-1.171-25.506-1.576-30.996,.404-5.489,1.553-.394,3.915-1.17,8.617-1.969,3.149-11.375,11.769-8.629,15.301 1.564,3.533 9.022,4.32 20.791,3.916-2.756,4.703-2.756,7.853 0,9.427 1.958,1.959 10.588,1.959 13.727,0 1.17-4.319-4.715-18.832-2.352-20.791 2.352-2.744 11.757,5.873 16.076,4.704 3.926-2.363 4.704-7.853 5.491-16.472-4.31-1.58-8.63-3.15-12.94-5.11z" stroke-miterlimit="10"/>
<path fill="#ffffc7" stroke="#000" stroke-width=".036" d="m347.16,169.55l20.003,3.532c-7.054,2.745-12.556,6.661-14.905,10.193-3.534,2.746-2.353,7.853-2.353,12.173-.394,3.916-1.182,13.726-2.352,15.684-3.532,1.574-10.588-4.703-13.727-5.107-2.361-.383-4.319,1.575-4.319,0-2.352-4.703-7.843-16.471-5.884-18.812 1.969-1.191 6.277,5.874 11.374,7.448 2.746-.787 4.713-4.703 7.459-8.64 1.95-4.69 3.52-10.18 4.7-16.46z" stroke-miterlimit="10"/>
<path stroke="#000" stroke-width=".036" d="m384.42,177.4c-3.532-2.361-7.447-3.915-11.769-3.149-4.309-.383-12.161,1.192-16.076,4.725-5.491,2.745-10.204,9.022-14.12,15.684l.393,1.17 3.129,4.704c5.107-2.342 10.991-3.533 17.652-7.832 6.68-4.32 12.56-9.42 20.8-15.3z" stroke-miterlimit="10"/>
<path fill="#dbdb69" stroke="#000" stroke-width=".036" d="m382.07,177.4c-2.351-1.171-5.096-1.575-8.234-1.171-3.139-.404-6.673-.404-10.599,1.555-3.915,.787-10.192,5.107-12.545,8.235-3.926,1.979-6.277,6.277-7.064,8.64 3.139-3.149 5.884-5.107 9.81-7.448 2.746-2.362 9.8-5.49 10.587-5.107-.787-1.171-5.096,2.362-8.234,4.702-3.139,1.575-7.066,3.938-10.194,7.066l-.787,1.574c2.352-2.361 5.884-4.32 9.022-5.895 3.139-1.554 5.885-3.532 9.8-4.299-3.915,2.341-6.661,2.745-9.8,5.49-3.139,1.554-5.884,3.511-8.235,5.874 3.128-2.363 7.056-3.532 10.194-5.107 2.35-1.554 5.095-3.512 8.234-4.299 1.958-2.362 6.277-3.938 8.629-6.278-2.745,1.959-4.702,4.704-7.447,6.661-3.139,1.171-5.884,2.745-8.236,4.703-3.139,.788-6.671,3.938-10.597,5.107l.787,1.574c3.926-1.574 10.203-3.937 15.694-7.064 5.09-3.12 12.54-9.4 19.21-14.49z" stroke-miterlimit="10"/>
<path fill="#c37f33" d="m377.36,175.83c-3.139-.382-5.502-1.574-8.63-.382-4.319-.404-6.277,1.553-7.458,2.745-.788,.383 0,0 3.926,.383 1.957-.383 9.417,0 11.769-.383 1.57-.41 1.17-3.16 .39-2.37z"/>
<path stroke="#000" stroke-width=".036" d="m243.61,199.37c-.789,2.361-.789,5.107 0,8.235 .786,1.958 .786,4.32 3.139,7.065l11.375-3.916c-1.183-2.362-1.183-3.937-1.576-6.277-.383-2.746 0-5.107 1.181-7.065-4.71,.39-9.41,1.18-14.11,1.97z" stroke-miterlimit="10"/>
<path fill="#e2391c" stroke="#000" stroke-width=".036" d="m245.18,202.11c-.787,.788-.787,3.916 0,5.108 0,1.17 1.172,2.745 1.959,4.703l7.841-2.746c-1.181-.787-1.563-3.532-1.181-3.916-.383-2.361 .394-2.361 .787-4.318-3.14,.39-6.28,.8-9.41,1.18z" stroke-miterlimit="10"/>
<path stroke="#000" stroke-width=".036" d="m103.18,119.35c-.783,2.352-.783,5.491 0,7.842 .787,1.968 .787,4.31 3.139,7.055l11.373-3.916c-1.175-2.351-1.175-3.915-1.569-6.278-.394-2.745 0-5.096 1.175-7.065-4.7,.8-9.41,1.58-14.12,2.37z" stroke-miterlimit="10"/>
<path fill="#e2391c" stroke="#000" stroke-width=".036" d="m104.75,122.1c-.782,1.958-.782,3.139 0,5.097 0,1.181 1.175,3.139 1.963,4.31l7.841-2.341c-1.175-1.575-1.568-2.362-1.175-3.926-.394-1.968 .394-3.532 .787-4.714-3.14,.4-6.28,.78-9.42,1.57z" stroke-miterlimit="10"/>
<path stroke="#000" stroke-width=".036" d="m372.65,212.71c1.576,1.959 4.321,3.533 6.671,4.704 2.353,.383 4.311,1.575 7.449,1.957l3.532-11.768c-2.352-.383-4.309-1.171-5.884-2.342-2.352-1.979-3.532-2.744-5.098-5.489-1.96,4.3-4.32,8.62-6.67,12.94z" stroke-miterlimit="10"/>
<path fill="#61a228" stroke="#000" stroke-width=".036" d="m375.79,213.09c1.959,.787 1.959,2.362 4.321,3.149 1.17,0 2.745,.766 4.702,.766l2.745-7.831c-1.957,0-2.745-.404-3.926-1.17-1.171-.787-2.745-1.979-3.139-3.532-1.56,2.74-3.13,5.48-4.7,8.61z" stroke-miterlimit="10"/>
<path stroke="#000" stroke-width=".036" d="m336.18,217.01c-3.139-.766-5.884-.766-8.235,0-2.744,.788-5.106,1.192-7.065,2.767l3.926,11.747c1.959-.767 3.534-2.341 6.28-1.553 1.956-.788 4.308,.786 7.054,1.553-.4-4.71-1.18-9.41-1.96-14.52z" stroke-miterlimit="10"/>
<path fill="#61a228" stroke="#000" stroke-width=".036" d="m333.43,218.58c-1.181-.787-4.319-.787-5.096,0-1.969,0-3.534,1.191-4.714,1.958l2.352,7.853c1.181-1.171 1.968-1.575 3.926-1.171 1.183-.404 2.745,0 4.704,1.171-.39-3.13-.78-6.27-1.17-9.81z" stroke-miterlimit="10"/>
<path stroke="#000" stroke-width=".036" d="m227.52,171.13c2.746-.787 5.108-1.958 7.066-3.532 1.957-1.575 3.139-3.532 5.106-5.874l-8.639-8.64c-1.958,1.17-3.128,3.149-5.097,4.32-1.958,.382-4.714,1.574-6.666,1.957 2.74,3.9 5.48,7.84 8.23,11.76z" stroke-miterlimit="10"/>
<path fill="#61a228" stroke="#000" stroke-width=".036" d="m229.09,168.38c1.17-.404 2.746-1.575 4.704-1.958 .787-1.575 2.361-2.361 3.139-3.938l-5.884-6.256c-.789,.767-2.352,2.341-3.128,3.128-1.182,.788-3.149,1.171-4.321,1.171 1.58,2.37 3.53,5.12 5.49,7.86z" stroke-miterlimit="10"/>
</g>
</g>
</g>
</switch>
</svg>
