<svg xmlns="http://www.w3.org/2000/svg" viewBox="0 0 242.34988 88.80027">
<defs>
<linearGradient id="linearGradient5256" y1="382.2" y2="281.52" x1="660.72" gradientUnits="userSpaceOnUse" x2="327.21">
<stop offset="0" stop-color="#d50000"/>
<stop offset=".321" stop-color="#ff797c"/>
<stop offset="1" stop-color="#b00000"/>
</linearGradient>
<linearGradient gradientTransform="matrix(.94249 0 0 .87652 35.839 41.814)" id="linearGradient5258" y1="327.23" x1="528.64" y2="290.77" gradientUnits="userSpaceOnUse" x2="539.96">
<stop offset="0" stop-color="#fff" stop-opacity="0"/>
<stop offset="1" stop-color="#fff"/>
</linearGradient>
<linearGradient gradientTransform="translate(-.34977 3.148)" id="linearGradient5260" y1="425.89" x1="451.88" y2="370.26" gradientUnits="userSpaceOnUse" x2="452.57">
<stop offset="0" stop-color="#afafaf"/>
<stop offset="1" stop-color="#afafaf" stop-opacity="0"/>
</linearGradient>
</defs>
<g fill-rule="evenodd">
<g transform="translate(-1.59413 -1.90473)">
<path fill="#b3b3b3" d="m84.223,12.423c-19.767-.377-39.943,2.854-57.605,13.807-9.092,5.909-10.619,24.102-5.233,22.56 1.673-.255-1.943,4.312-2.246,6.434-2.996,7.574-3.457,17.573 1.784,23.81 3.548,5.45 9.229,8.575 15.08,7.461 15.004-.949 30.032,.995 45.04,1.293 25.747,.913 51.487,2.916 77.247,2.917 6.43-.132 14.96-4.749 24.45-10.154 8.97-.072 15.91,4.569 27.55,5.126 6.07,.791 11.07-3.404 15.17-8.155 5.23-6.823 11.72-11.778 17.52-17.737 1.92-2.206-2.59-.902-3.57-1.38-12.83-1.505-25.65-4.102-38.37-6.549-16.73-6.612-27.6-26.692-45.13-31.222-23.54-5.856-47.64-8.426-71.687-8.211z"/>
</g>
<g transform="matrix(.6275 0 0 .74844 -195.36413 -216.55473)">
<path fill="#fcfcfc" stroke="#000" stroke-width="3" d="m360.25,317.7c-20.45,23.6-23.6,22.03-28.32,37.76s1.58,25.17 11.02,33.03c9.43,7.87 18.87,4.72 29.89,4.72 11.01,0 157.31,6.3 177.76,6.3s29.89-3.15 34.61-12.59 9.44-45.62 9.44-45.62-39.33-36.18-56.63-36.18c-17.31,0-174.62,11.01-177.77,12.58z"/>
</g>
<g transform="matrix(.6275 0 0 .74844 -195.36413 -216.55473)">
<path fill="url(#linearGradient5256)" stroke="#000" stroke-width="3" d="m431.04,290.96c30.54-1.02 61.73,1.26 87.61,4.69 14.13,1.88 26.67,4.1 36.67,6.32 28.32,6.29 51.91,39.33 75.51,42.48 23.6,3.14 48.77,7.86 59.78,7.86s3.15,6.29-7.86,14.16c-11.02,7.87-17.31,17.3-28.32,23.6-11.01,6.29-45.62,0-58.21-7.87-12.58-7.86-45.62-39.33-62.92-39.33-17.31,0-174.49-18.7-209.23,7.87-26.05,19.91-1.06-29.36 22.02-40.9 18.88-9.44 44.05-18.88 84.95-18.88z"/>
<path fill="url(#linearGradient5258)" d="m442.09,296.85c44.48-1.38 84,1.97 117.13,11.65 26.16,7.64 46.93,38.47 69.17,41.23s38.07,5.92 48.45,5.92 12.86,.49 2.48,7.38c-10.38,6.9-16.31,15.17-26.69,20.69-10.38,5.51-43,0-54.86-6.9-11.86-6.89-43-38.47-59.31-38.47s-164.45-22.39-197.19,.89c-24.55,17.46-.99-19.73 20.76-29.85 17.79-8.27 41.51-12.54 80.06-12.54z"/>
<path fill="#afafaf" fill-opacity=".441" d="m344.87,349.51c-3.15,11.01 1.04,14.16 1.04,14.16s-3.14-9.44 6.3-7.87c9.43,1.58-4.2-6.29-7.34-6.29z"/>
</g>
<g fill="#dcdcdc" transform="matrix(.6275 0 0 .74844 -195.36413 -216.55473)">
<path d="m559.64,376.95c2.1,3.85 1.75,5.94-1.75,6.29s7.35,2.1 8.04,.35c.7-1.75-5.59-6.64-6.29-6.64z"/>
<path d="m370.41,349.67c3.85,4.54 5.6,5.59 9.1,4.54 3.49-1.05 4.89-2.8 4.89-2.8s-1.75,4.55-6.29,5.95c-4.55,1.4-4.55,6.3-4.55,6.3s.35-4.55 0-7-3.5-6.64-3.15-6.99z"/>
</g>
<g transform="matrix(.6275 0 0 .74844 -195.36413 -216.55473)">
<path fill="#afafaf" fill-opacity=".441" d="m394.1,383.64c10.54,4.48 14.18,.71 14.18,.71s-9.75,1.96-7.03-7.22c2.73-9.17-6.76,3.39-7.15,6.51z"/>
</g>
<g fill="#dcdcdc" transform="matrix(.6275 0 0 .74844 -195.36413 -216.55473)">
<path d="m402.27,358.29c4.08-1.61 6.11-1 6.03,2.51-.09,3.51 2.99-7.03 1.34-7.94s-7.29,4.73-7.37,5.43z"/>
<path d="m416.65,376.85c4.99-3.26 6.25-4.86 5.64-8.46-.61-3.61-2.17-5.21-2.17-5.21s4.29,2.3 5.12,6.98c.82,4.69 5.68,5.29 5.68,5.29s-4.47-.91-6.94-.86c-2.47,.04-7.03,2.65-7.33,2.26z"/>
</g>
<g transform="matrix(.6275 0 0 .74844 -195.36413 -216.55473)">
<path fill="#afafaf" fill-opacity=".441" d="m446.9,354.3c-4.2-10.65-9.44-10.59-9.44-10.59s8.24,5.57-.21,10.07c-8.44,4.5 7.16,2.44 9.65,.52z"/>
</g>
<g fill="#dcdcdc" transform="matrix(.6275 0 0 .74844 -195.36413 -216.55473)">
<path d="m363.48,374.37c2.1,3.85 1.75,5.95-1.75,6.3-3.49,.34 7.35,2.09 8.05,.34 .7-1.74-5.6-6.64-6.3-6.64z"/>
<path d="m439.38,378.22c3.85,4.54 5.6,5.59 9.1,4.54 3.49-1.05 4.89-2.79 4.89-2.79s-1.75,4.54-6.29,5.94c-4.55,1.4-4.55,6.3-4.55,6.3s.35-4.55 0-7-3.5-6.64-3.15-6.99z"/>
</g>
<g transform="matrix(.6275 0 0 .74844 -195.36413 -216.55473)">
<path fill="#afafaf" fill-opacity=".441" d="m474.81,347.62c-11.23,2.24-12.11,7.41-12.11,7.41s6.96-7.12 9.87,2c2.92,9.11 3.68-6.61 2.24-9.41z"/>
</g>
<g fill="#dcdcdc" transform="matrix(.6275 0 0 .74844 -195.36413 -216.55473)">
<path d="m479.06,381.66c-4.33,.7-6.19-.33-5.36-3.74 .84-3.42-4.42,6.23-3,7.47 1.41,1.24 8.13-3.07 8.36-3.73z"/>
<path d="m485.55,355.83c3.85,4.55 5.6,5.6 9.1,4.55 3.49-1.05 4.89-2.8 4.89-2.8s-1.74,4.55-6.29,5.95-4.55,6.29-4.55,6.29 .35-4.55 0-6.99c-.35-2.45-3.5-6.65-3.15-7z"/>
</g>
<g transform="matrix(.6275 0 0 .74844 -195.36413 -216.55473)">
<path fill="#afafaf" fill-opacity=".441" d="m525.93,370.38c2.03,11.27 7.18,12.24 7.18,12.24s-6.99-7.08 2.18-9.83-6.54-3.8-9.36-2.41z"/>
</g>
<g fill="#dcdcdc" transform="matrix(.6275 0 0 .74844 -195.36413 -216.55473)">
<path d="m516.66,351.21c4.28,.97 5.62,2.62 3.57,5.47-2.04,2.86 6.43-4.13 5.58-5.81s-8.68-.19-9.15,.34z"/>
<path d="m499.89,374.02c3.85,4.55 5.6,5.6 9.1,4.55s4.89-2.8 4.89-2.8-1.74,4.55-6.29,5.94c-4.55,1.4-4.55,6.3-4.55,6.3s.35-4.55 0-7c-.35-2.44-3.5-6.64-3.15-6.99z"/>
</g>
<g transform="matrix(.6275 0 0 .74844 -195.36413 -216.55473)">
<path fill="url(#linearGradient5260)" d="m378.7,324.15c-20.45,23.6-33.74,12.23-38.46,27.96s-3.67,24.82 5.77,32.69c9.44,7.86 16.43,4.72 27.44,4.72s157.31,6.29 177.76,6.29 22.2-4.54 26.92-13.98 4.19-28.49 4.19-28.49-29.54-27.43-46.84-27.43-153.63-3.33-156.78-1.76z"/>
</g>
<g fill="#fefafa" fill-opacity=".441" transform="matrix(.6275 0 0 .74844 -195.36413 -216.55473)">
<path d="m512.99,303.78s26.27,4 34.74,7.64c8.47,3.63 24.15,14.18 24.15,14.18l-18.22-8.36s14.83,8.73 18.22,12.36c3.39,3.64-19.91-12-27.11-16-7.21-4-30.93-9.09-31.78-9.82z"/>
<path d="m553.28,335.53s11.29,5.56 24.44,12.01c8.28,4.05 15.72,.14 15.72,.14l-10.41,4.12s5.46,4.04 8.85,7.68-19.91-12-27.11-16-2.53-.98-11.49-7.95z"/>
</g>
</g>
</svg>
