<svg xmlns="http://www.w3.org/2000/svg" viewBox="0 0 287.36 202.93" xmlns:xlink="http://www.w3.org/1999/xlink">
<defs>
<filter color-interpolation-filters="sRGB" id="filter55807">
<feGaussianBlur stdDeviation="3.06481"/>
</filter>
<linearGradient id="linearGradient55919">
<stop offset="0" stop-color="#babdb6"/>
<stop offset=".432" stop-color="#eeeeec"/>
<stop offset=".74" stop-color="#d3d7cf"/>
<stop offset="1" stop-color="#eeeeec"/>
</linearGradient>
<linearGradient id="linearGradient55752" y1="526.36" y2="361.36" gradientUnits="userSpaceOnUse" x2="0">
<stop offset="0" stop-color="#421805"/>
<stop offset="1" stop-color="#b06528"/>
</linearGradient>
<linearGradient gradientTransform="translate(166.16 69.047)" spreadMethod="reflect" id="linearGradient55925" xlink:href="#linearGradient55919" y1="420.42" y2="400.64" gradientUnits="userSpaceOnUse" x2="0"/>
<linearGradient gradientTransform="translate(1 -2)" id="linearGradient55819" y1="523.86" y2="365.86" gradientUnits="userSpaceOnUse" x2="0">
<stop offset="0" stop-color="#eeeeec"/>
<stop offset="1" stop-color="#eeeeec" stop-opacity="0"/>
</linearGradient>
<linearGradient id="linearGradient55779">
<stop offset="0" stop-color="#96511f"/>
<stop offset="1" stop-color="#d0823f"/>
</linearGradient>
<linearGradient gradientTransform="translate(0 -2)" id="linearGradient55766" y1="465.88" y2="414.38" gradientUnits="userSpaceOnUse" x2="0">
<stop offset="0" stop-color="#421805"/>
<stop offset="1" stop-color="#c47530"/>
</linearGradient>
<linearGradient gradientTransform="translate(-18 177)" id="linearGradient55793" xlink:href="#linearGradient55779" y1="286.88" y2="183.88" gradientUnits="userSpaceOnUse" x2="0"/>
<linearGradient id="linearGradient55785" xlink:href="#linearGradient55779" y1="516.36" y2="412.36" gradientUnits="userSpaceOnUse" x2="0"/>
<linearGradient gradientTransform="translate(165.81 81.775)" id="linearGradient55917" y1="407.69" x1="-69.899" y2="376.97" gradientUnits="userSpaceOnUse" x2="-57.238">
<stop offset="0" stop-color="#555753"/>
<stop offset=".605" stop-color="#b1b2af"/>
<stop offset="1" stop-color="#eeeeec"/>
</linearGradient>
<linearGradient gradientTransform="matrix(.87054 0 0 .87054 17.735 43.864)" id="linearGradient55963" y1="456.04" x1="89.33" y2="511.18" gradientUnits="userSpaceOnUse" x2="89.689">
<stop offset="0" stop-color="#be702e"/>
<stop offset="1" stop-color="#96511f"/>
</linearGradient>
<linearGradient id="linearGradient56022" y1="487.86" y2="498.86" x1="128" gradientUnits="userSpaceOnUse" x2="139">
<stop offset="0" stop-color="#2e3436"/>
<stop offset="1" stop-color="#2e3436" stop-opacity="0"/>
</linearGradient>
<linearGradient gradientTransform="matrix(.87054 0 0 .87054 17.735 43.864)" id="linearGradient55970" y1="321.15" x1="79.207" y2="372.7" gradientUnits="userSpaceOnUse" x2="128.43">
<stop offset="0" stop-color="#c1722f"/>
<stop offset="1" stop-color="#995320"/>
</linearGradient>
<linearGradient id="linearGradient56328" y1="521.36" y2="475.86" x1="205" gradientUnits="userSpaceOnUse" x2="298">
<stop offset="0" stop-color="#d3d7cf"/>
<stop offset="1" stop-color="#d3d7cf" stop-opacity="0"/>
</linearGradient>
<linearGradient gradientTransform="matrix(.87054 0 0 .87054 24.814 54.02)" id="linearGradient55967" y1="318.38" x1="41.75" y2="331" gradientUnits="userSpaceOnUse" x2="86.988">
<stop offset="0" stop-color="#d38646"/>
<stop offset="1" stop-color="#d38646" stop-opacity="0"/>
</linearGradient>
<linearGradient gradientTransform="matrix(.87054 0 0 .87054 17.735 43.864)" id="linearGradient55972" y1="372.7" x1="128.43" y2="321.15" gradientUnits="userSpaceOnUse" x2="79.207">
<stop offset="0" stop-color="#461b06"/>
<stop offset="1" stop-color="#ca8c57"/>
</linearGradient>
<linearGradient gradientTransform="matrix(1.0704 0 0 1 -11.289 -770.22)" id="linearGradient56050" y1="394.36" x1="96" y2="379.36" gradientUnits="userSpaceOnUse" x2="95.714">
<stop offset="0" stop-color="#fff"/>
<stop offset="1" stop-color="#b86e32"/>
</linearGradient>
<linearGradient gradientTransform="matrix(0 -1 -1 0 -.25 938.47)" id="linearGradient56012" x1="453.86" gradientUnits="userSpaceOnUse" x2="484.86">
<stop offset="0" stop-color="#555753"/>
<stop offset="1" stop-color="#555753" stop-opacity="0"/>
</linearGradient>
<linearGradient gradientTransform="matrix(0 -1 -1 0 -.25 938.47)" id="linearGradient56010" xlink:href="#linearGradient55919" x1="460.61" gradientUnits="userSpaceOnUse" x2="484.86"/>
<linearGradient spreadMethod="reflect" id="linearGradient56040" y1="474.39" x1="88.919" y2="480.31" gradientUnits="userSpaceOnUse" x2="89.095">
<stop offset="0" stop-color="#704c2e"/>
<stop offset="1" stop-color="#704c2e" stop-opacity="0"/>
</linearGradient>
</defs>
<g transform="translate(7.3556 -341.43)">
<path fill="url(#linearGradient56328)" d="m197,540.36 37,2 46-45-123-6 40,49z"/>
</g>
<g transform="translate(23.3556 -323.43)">
<path fill="url(#linearGradient55785)" stroke="url(#linearGradient55752)" stroke-width="6" d="m-5.2807,364.36h211.5617a9.7193,9.7193 0 0,1 9.719,9.719v139.562a9.7193,9.7193 0 0,1 -9.719,9.719h-211.5617a9.7193,9.7193 0 0,1 -9.7193-9.719v-139.562a9.7193,9.7193 0 0,1 9.7193-9.719"/>
<path opacity=".5" fill="#2e3436" filter="url(#filter55807)" d="m-6.2812,371.38c-5.3845,0-9.7188,4.3343-9.7188,9.7188v35.141l40,55.141h151l40-55.141v-35.141c0-5.3845-4.3343-9.7188-9.7188-9.7188h-211.56z"/>
<path fill="url(#linearGradient55793)" stroke="url(#linearGradient55766)" stroke-width="3" d="m-5.2812,362.38c-5.3845,0-9.7188,4.3343-9.7188,9.7188v35.141l40,55.141h151l40-55.141v-35.141c0-5.3845-4.3343-9.7188-9.7188-9.7188h-211.56z"/>
<path fill="none" stroke="url(#linearGradient55819)" stroke-width=".988" d="m-4.4082,364.36h208.9142a9.5978,9.5978 0 0,1 9.598,9.598v137.814a9.5978,9.5978 0 0,1 -9.598,9.598h-208.9142a9.5978,9.5978 0 0,1 -9.5978-9.598v-137.814a9.5978,9.5978 0 0,1 9.5978-9.598"/>
<path fill="url(#linearGradient55970)" stroke="url(#linearGradient55972)" stroke-width=".871" d="m77.961,323.87c-16.203,0-29.245,13.041-29.245,29.245v7.318h16.404v-6.9371c0-7.3299 5.8914-13.248 13.221-13.248h37.379c7.3299,0 13.221,5.9186 13.221,13.248v6.9371h16.404v-7.318c0-16.203-13.041-29.245-29.245-29.245h-38.14z"/>
<path fill="url(#linearGradient55967)" d="m77.781,324.43c-15.721,0-28.374,12.653-28.374,28.374v7.1001h2.9562v-3.7216c0-15.721 12.653-28.374 28.374-28.374h37.005c7.7106,0 14.692,3.041 19.796,7.9976-5.1648-6.9151-13.418-11.376-22.752-11.376h-37.005z"/>
<path opacity=".624" fill="#2e3436" d="m129.47,356.56c0-4.5005-.3014-6.3258-1.404-8.5017-.3091-.61-.4706-1.109-.3589-1.109 .4454,0 2.6298,2.723 3.3683,4.1989 1.1326,2.2632 1.4415,3.7288 1.4415,6.8374v2.6747h-3.0468v-4.1002z"/>
</g>
<g transform="translate(23.3556 -323.43)">
<path fill="url(#linearGradient55963)" stroke="#461b06" d="m84.853,434.67h21.92v60.489l-10.96,12-10.96-12v-60.489z"/>
</g>
<g fill="#431905" transform="translate(23.3556 -323.43)">
<path d="m86.621,437.89h4.2426v1.414h-4.2426z"/>
<path d="m93.737,437.89h4.2426v1.414h-4.2426z"/>
<path d="m100.32,437.71h4.243v1.414h-4.243z"/>
</g>
<g transform="translate(23.3556 -323.43)">
<path fill="url(#linearGradient55925)" stroke="url(#linearGradient55917)" d="m86.806,450.42c-4.5589,0-8.2252,3.6662-8.2252,8.2252v22.094c0,4.559 3.6662,8.2252 8.2252,8.2252h18.2c4.5589,0 8.2252-3.6662 8.2252-8.2252v-22.094c0-4.559-3.6662-8.2252-8.2252-8.2252h-18.2zm2.8657,6.0595h12.469c3.1261,0 5.6439,2.5177 5.6439,5.6439v15.138c0,3.1261-2.5178,5.6439-5.6439,5.6439h-12.469c-3.1261,0-5.6439-2.5178-5.6439-5.6439v-15.138c0-3.1261 2.5177-5.6439 5.6439-5.6439z"/>
<path fill="#704c2e" stroke="url(#linearGradient56022)" d="m138.5,493.36c0,2.7614-2.2386,5-5,5s-5-2.2386-5-5 2.2386-5 5-5 5,2.2386 5,5z" transform="matrix(.86364 0 0 .86364 -19.295 42.527)"/>
<path opacity=".643" fill="url(#linearGradient56040)" d="m85.031,468.47v11.844h20.844v-11.844h-5.5938c.002,.0533 .0312,.1025 .0312,.1562 0,2.3849-1.9276,4.3125-4.3125,4.3125s-4.3125-1.9276-4.3125-4.3125c0-.0538 .0293-.103 .0312-.1562h-6.6875z"/>
<path fill="url(#linearGradient56010)" stroke="url(#linearGradient56012)" stroke-width="1.048" d="m95.625,464.38c-.8775,0-1.6777,.3096-2.3438,.8438v16.406c0,1.3717 1.0971,2.4688 2.4688,2.4688s2.4688-1.0971 2.4688-2.4688v-16.188c-.707-.66-1.608-1.06-2.594-1.06z"/>
<path opacity=".218" fill="url(#linearGradient56050)" d="m-4.7807-390.86h208.5617a9.7193,9.7193 0 0,1 9.719,9.719v7.562a9.7193,9.7193 0 0,1 -9.719,9.719h-208.5617a9.7193,9.7193 0 0,1 -9.7193-9.719v-7.562a9.7193,9.7193 0 0,1 9.7193-9.719" transform="scale(1 -1)"/>
</g>
</svg>
