<svg xmlns="http://www.w3.org/2000/svg" viewBox="0 0 373.753 466.058" xmlns:xlink="http://www.w3.org/1999/xlink" enable-background="new 0 0 373.753 466.058">
<g fill-rule="evenodd">
<g fill="#fff200">
<path d="m188.87,5.197c4.724,4.221 11.068,1.384 16.925,0 .636,3.594 3.104,5.357 2.538,10.155-1.483,1.9-5.104,1.666-7.617,2.538-12.005,10.279-16.565,28.002-21.155,45.697-15.1-15.854 1.26-43.201 9.31-58.39z"/>
<path d="m114.4,20.428c1.845,1.77-.423,2.416 0,5.078 6.332,3.608 10.569,13.6 9.309,22.002-7.072-7.824-18.24-20.455-31.31-14.386-1.166-1.09-.838-3.675-.846-5.924 1.129-1.41 4.794-.283 5.924-1.692 3.385-1.188 .917-5.187 4.231-6.77 3.72-1.779 9.16,.974 12.69,1.692z"/>
<path d="m181.25,105.9h-5.077c.04-21.196-7.019-35.293-15.232-48.235 1.864,14.42 16.752,32.119 10.155,49.927-10.779-2.197-9.922-16.03-14.386-24.541-2.209,3.375 .207,8.817 1.692,13.54 1.342,4.268 4.458,8.983 4.231,13.54-9.611,.013-9.396-12.091-12.694-19.463-3.439-7.688-7.656-19.044-12.693-27.079-1.764-2.814-5.259-5.475-6.77-8.462-3.21-6.347-1.952-14.389-4.231-21.156-1.571-4.663-4.854-6.681-5.923-11.001 2.264-2.164 4.462,.51 7.616,0 2.068-4.477 8.428-5.056 14.386-3.385 2.921,4.292 8.216,5.503 11.848,9.309 .895,.939 1.278,3.531 2.539,5.078 2.781,3.412 7.858,7.766 10.155,12.693 .731,1.571 .924,4.161 1.692,5.924 6.07,13.957 14.93,31.337 12.68,53.312z"/>
<path d="m238.79,113.51c-.429-7.043 6.287-11.504 10.155-16.925 5.12-7.175 9.822-14.479 13.54-23.694 3.118-7.731 6.265-19.928 5.075-32.157-3.9,14.159-6.54,28.563-12.692,40.62-2.745,5.38-6.5,11.204-10.155,16.077-3.586,4.785-7.388,11.711-14.385,11.848 .364-15.431 9.119-22.473 13.54-33.849-6.221-.186-6.99,12.108-12.695,15.231-2.264,5.915-2.655,13.703-8.46,16.079-2.938-5.002 3.426-9.694 5.075-14.386 1.532-4.35 .925-9.292 3.385-13.539 2.013-3.47 5.838-6.016 7.617-9.309 2.269-4.204 2-8.59 5.923-11.001 2.429-12.241 7.588-21.751 13.54-30.465 4.806-2.811 8.664-6.567 14.387-8.462 3.951,3.779 5.449,22.084 5.076,30.465-.866,19.403-11.004,35.878-21.155,49.927-5.1,7.05-8.78,11.75-17.79,13.54z"/>
<path d="m212.56,26.352c4.71,.198 5.366-3.66 9.308-4.231 6.667,7.395 8.513,20.949 8.463,33.003-.083,20.022-6.576,42.758-17.771,50.774-2.379-5.652 2.582-10.304 4.23-16.079 2.222-7.787 3.095-17.922 4.23-27.079 .962-7.756 5.242-27.658-2.538-33.003-2.558,2.341 2.017,4.706 1.692,7.616 .438,27.8-4.641,50.083-15.232,66.852h-8.462c-5.037-15.756 1.063-35.603 3.385-51.62-2.819,1.411-2.573,5.644-3.385,8.462-3.19,11.085-5,27.603-5.925,43.157-5.973-1.49-4.925-11.967-5.923-17.771-1.164-6.773-3.006-11.625-1.692-20.309 2.724-17.988 9.432-36.2 20.31-44.851 5.2-.422 5.62,3.961 9.3,5.073z"/>
<path d="m152.48,115.21c-5.993,2.028-4.786-6.428-5.924-9.309-4.107-10.401-12.368-21.696-19.463-28.771 1.157,5.365 6.299,11.619 10.155,18.616 4.952,8.987 12.434,21.26 2.539,26.233-5.551-3.181-5.691-7.582-9.309-11.847-2.706-3.191-7.63-6.33-11.847-10.155-3.819-3.464-7.334-7.797-11.001-10.155-5.674-3.649-13.746-5.311-16.924-11-1.061-1.9-2.208-5.769-3.385-9.309-2.362-7.1-6.719-18.613-3.385-27.926 3.932-.829 5.109,1.097 7.616,1.692 4.065-.73 4.338-5.252 6.77-7.616 4.072,.135 12.296,3.316 16.078,6.77 1.516,1.383 1.956,4.319 3.385,5.924 2.087,2.342 5.112,3.168 6.77,5.077 3.211,3.695 8.035,11.381 11.001,16.079 7.91,12.544 14.44,29.907 16.91,45.699z"/>
<path d="m317.49,54.278c.545,13.751-2.3,26.942-8.463,35.542-1.409,1.965-4.417,2.902-6.77,5.077-4.358,4.027-5.616,6.318-11.002,10.155-10.586,7.542-26.019,18.386-39.772,22.849-1.891-3.468-4.247-6.472-6.771-9.309 12.764-12.624 22.615-28.161 32.157-44.003 .05-3.619 1.136-6.199 1.692-9.309 9.97-6.671 26.71-6.567 38.92-11zm-28.77,40.618c-6.589,3.565-9.885,10.424-17.772,12.694-2.382,3.406-6.259,5.541-10.154,7.616-3.951,2.106-9.565,2.773-11.846,6.77 19.794-5.028 33.496-16.148 44.005-30.464-.182-.949-.94-1.317-1.694-1.692-.76,1.782-2.59,2.497-2.55,5.072z"/>
<path d="m56.008,68.664c.81,1.729 1.729,3.348 2.539,5.078 5.84,2.504 10.628,6.02 16.925,8.462 6.322,2.451 13.551,3.193 19.464,5.922 1.301,.602 2.643,2.535 4.231,3.385 11.666,6.249 22.182,14.811 29.618,25.387 2.078,2.956 7.685,6.968 3.385,11.001-4.114-2.115-4.606-7.026-7.616-10.155-5.227-5.435-13.164-7.393-19.462-11.847 1.695,6.515 11.485,8.655 16.924,14.386 3.035,3.198 2.962,8.199 7.616,9.309-4.132,9.985-15.818,1.055-21.156-2.539-1.564,6.478 12.819,8.529 13.54,12.694-1.145,3.821-7.915,2.147-10.155,1.692-11.213-2.28-22.849-12.391-33.849-14.386-1.247-3.267-4.573-4.454-7.616-5.924-4.513-4.803-11.914-13.546-17.771-22.848-2.582-4.099-7.009-11.127-8.462-16.924-1.86-7.485 4.149-12.47 11.866-12.684z"/>
<path d="m341.19,86.434c-1.901,11.072-22.434,3.518-30.463,8.462 .77-4.871 3.964-7.317 5.925-11 7.74-1.2 19.83-1.87 24.53,2.538z"/>
</g>
<g>
<path d="m291.26,89.819c.754,.375 1.513,.743 1.694,1.692-10.509,14.316-24.211,25.436-44.005,30.464 2.28-3.996 7.895-4.663 11.846-6.77 3.896-2.076 7.772-4.21 10.154-7.616 7.888-2.27 11.184-9.128 17.772-12.694-.03-2.575 1.8-3.29 2.55-5.077z"/>
</g>
<g fill="#fff200">
<path d="m346.26,100.82c1.034,4.984-5.116,2.784-4.231,7.616-.777,5.01 5.675,2.788 5.077,7.616-18.741,5.133-32.19,17.704-49.082,26.233-2.447,1.235-5.104,2.081-7.615,3.385-2.11,1.095-3.875,3.254-5.925,4.231-8.656,4.127-20.583,5.727-29.617,6.769-2.53-2.955 1.761-4.505 .847-8.462 3.931,.496 5.109-1.158 7.615,0 13.736-4.035 23.183-12.358 36.39-16.925 6.016-6.959 15.456-10.493 23.694-15.232-4.121-2.329-10.654,2.309-15.233,5.077-4.613,2.789-9.245,6.666-14.386,9.309-2.573,1.323-5.555,1.851-8.462,3.385-7.648,4.034-20.787,15.469-31.311,8.462 .287-4.237-1.98-5.918-1.692-10.155 17.94-9.139 35.573-18.584 49.928-31.311 12.45-2.294 33.36-8.683 43.99-.01z"/>
<path d="m72.933,127.9c-1.048,4.594-8.8,2.483-12.693,4.231-2.687-2.888-6.938-1.739-11.001-2.539-7.805-1.538-16.576-6.105-25.386-3.385 7.826,3.738 19.341,3.788 27.925,6.77-5.654,5.772-11.123,4.492-18.617,3.385-2.376-.352-4.808,.447-6.77,0-6.66-1.517-13.477-7.341-22.848-2.539 4.561-2.208 7.019-6.521 6.77-13.54 8.166-4.826 19.645-11.084 35.541-10.155 14.115,.84 17.438,12.27 27.079,17.78z"/>
</g>
<g>
<path d="m200.71,110.13h3.385c-1.088,1.451-1.75,3.328-4.23,3.385-.11-1.52 1.03-1.79 .84-3.39z"/>
<path d="m177.02,112.67h3.385c-.368,1.889-1.497,3.017-3.385,3.385v-3.39z"/>
<path fill="#fff200" d="m350.5,113.51c3.821,.411 5.758,2.705 9.31,3.385 2.292,5.888 9.31,7.049 7.615,16.925-1.404,1.417-4.968,.673-7.615,.846-16.076,7.635-38.022,20.007-61.776,11.847 14.809-6.913 27.298-16.144 40.619-24.541 3.947,.393 5.438-1.667 8.463,0 2.9-1.06 3.96-3.96 3.4-8.47z"/>
<path d="m226.95,115.21c3.224-.632 1.829,5.48-.846,4.231-.27-1.96 .14-3.25 .85-4.23z"/>
<path d="m238.79,125.36c2.213-.239 3.641,.309 3.386,2.539-3.53,.57-4.61,1.04-3.39-2.54z"/>
<path d="m153.32,128.75c2.229-.255 2.777,1.172 2.539,3.385h-2.539v-3.39z"/>
<path d="m181.25,128.75c.239,2.213-.309,3.64-2.538,3.385-.449-.681-.883-1.375-.846-2.539 .76-.66 1.92-.92 3.39-.85z"/>
<path d="m215.1,147.36c-4.206,3.2-3.326-3.354-4.232-5.077-2.038-3.882-4.143-8.12-6.77-10.155 7.95-5.66 8.31,10.1 11,15.24z"/>
<path d="m213.41,131.28c6.513,2.026 5.433,7.449 5.077,15.232-3.987-.48-1.502-6.129-2.538-7.616 .05-3.31-4.95-4.59-2.54-7.61z"/>
<path d="m140.63,134.67c-.736,1.238-1.267,2.682-3.385,2.539-.448-.681-.883-1.374-.846-2.539 1.62-1.59 2.14-.09 4.24,0z"/>
<path fill="#fff200" d="m116.09,152.44c-10.504-2.548-22.272-8.418-34.695-9.309-3.864-.277-10.027-1.17-13.54,1.692 11.154,.687 22.389,2.377 32.157,5.924 5.821,2.113 14.707,4.169 13.539,11.846-16.402-6.256-45.627-7.366-65.16-2.539-10.414,2.575-18.651,8.613-27.079,9.309 4.259-29.838 36.876-34.579 66.006-34.695 5.22,8.11 27.313,4.51 28.773,17.78z"/>
<path d="m162.63,136.36h1.692c-.077,2.309 1.41,1.704 0,3.385h-1.692c-1.41-1.67 .08-1.07 0-3.38z"/>
<path d="m158.4,138.9c-.074,2.518-5.046,2.264-4.231-.846 1.76-1.83 2.74,.11 4.23,.85z"/>
<path fill="#754c29" d="m197.33,137.21c2.31-.617 1.705,1.682 3.385,1.692 .971,3.509-1.779,3.297-1.691,5.924-3.67-.03-2.63-5.26-1.7-7.61z"/>
<path d="m146.56,139.75c2.086-.112 4.077-.129 5.077,.846-.04,2.54-6.02,2.45-5.08-.85z"/>
<path fill="#754c29" d="m186.33,139.75c4.004-.149 5.453,3.195 4.23,5.923-2.475,.22-2.599-1.914-5.076-1.692-.27-1.96 .14-3.25 .85-4.23z"/>
<path d="m129.63,141.44h3.385c-.104,2.153-1.232,3.281-3.385,3.385-.01-1.12-.01-2.25-.01-3.38z"/>
<path d="m138.94,141.44h1.692c-.155,.719 .33,.798 .846,.846v1.692c-.719-.155-.798,.329-.846,.846h-1.692c.155-.721-.33-.798-.846-.846v-1.692c.72,.15 .8-.33 .85-.85z"/>
</g>
<g fill="#754c29">
<path d="m171.94,142.29c.677,4.761-3.257,3.053-5.078,1.692 .1-2.16 2.84-1.68 5.08-1.69z"/>
<path d="m179.56,143.98c1.694,2.117 .391,6.657-3.384,5.924-1.7-2.12-.4-6.66 3.38-5.92z"/>
</g>
<g>
<path d="m224.41,145.67c2.214-.239 3.641,.309 3.385,2.539-1.46,1.53-3.33-.26-3.39-2.54z"/>
<path d="m204.94,146.52c3.282-.649 5.132,5.402 .848,5.078 .61-2.59-.87-3.09-.85-5.08z"/>
</g>
<g fill="#754c29">
<path d="m160.94,147.36c1.106,3.645-2.402,2.676-3.385,4.231-2.6-1.83 .48-5.09 3.38-4.23z"/>
<path d="m164.33,148.21c4.333-.838 6.792,3.38 5.078,5.924-3.29-.39-5.15-2.19-5.08-5.92z"/>
</g>
<g>
<path fill="#fff200" d="m354.73,150.75c-1.983,2.22-4.417,3.421-6.771,5.077-8.878,6.251-23.239,15.403-36.387,16.924-2.181,.253-6.848,.475-9.308,0-4.646-.894-7.516-4.739-11.848-6.77-3.087-1.448-7.071-2.394-10.155-3.385-3.468-1.114-7.156-2.072-11-2.539 7.051-4.512 16.64-6.488 23.695-11 11.153,5.362 33.184,6.164 43.157-.847 5.01,2.72 13.85,1.76 18.61,2.54z"/>
<path d="m221.02,153.29c2.23-.255 2.778,1.172 2.539,3.384-2.23,.26-2.78-1.17-2.54-3.38z"/>
<path d="m227.79,153.29c1.769-.359 2.242,.58 3.385,.846-.203,1.488-1.455,1.928-3.385,1.692-.01-.85-.01-1.7-.01-2.54z"/>
<path d="m144.86,154.13c2.229-.255 2.777,1.172 2.539,3.385h-2.539v-3.39z"/>
<path fill="#ffcf01" d="m358.96,154.98c5.257-.461 4.775,4.815 9.308,5.077 3.858,10.647-3.852,20.536-12.693,23.695 1.932-12.931-7.171-14.83-10.154-22.849 6.977-.206 10.02,3.521 11.847,8.462 3.058,.802 1.181-3.332 1.693-5.078-.962-3.832-6.515-3.075-7.617-6.769 1.575-.116 2.83-.557 3.385-1.692 3.585,.082 2.771,4.563 5.925,5.077 3.03-2.29-2.3-3.29-1.7-5.93z"/>
</g>
<g fill="#754c29">
<path d="m169.4,160.9c-2.084,1.466-5.54-1.351-5.924-4.231 1.94-1.33 5.96,.94 5.92,4.23z"/>
<path d="m246.41,158.36c1.365-.238 1.456,.8 2.538,.847-.019,2.521 .078,5.156-2.538,5.076 1.89-2.78-1.76-3.73 0-5.93z"/>
</g>
<g>
<path d="m232.87,159.21h2.538v3.384c-2.83,.85-2.78-1.17-2.54-3.38z"/>
<path d="m151.63,160.06c.653,3.297-2.799,4.718-4.231,3.385 .68-1.86 1.7-3.38 4.23-3.38z"/>
<path fill="#fff200" d="m117.78,182.06c-21.71,2.106-47.479-6.187-67.698-.846 3.173,2.359 7.156,.691 11.001,.846 14.63,.592 32.322,3.734 46.542,4.231 6.177,.216 14.232-2.546 16.925,3.385-4.235,6.201-18.423,2.45-24.54,6.77-22.202,.496-39.703-6.597-62.622-5.077-7.767,.515-14.674,2.811-21.155,4.231 1.265-12.273 8.324-18.755 15.232-25.387 9.427-3.415 20.842-8.453 33.849-9.309 16.971-1.115 36.444,1.022 49.081,7.616-.05,5.34 4.75,9.67 3.4,13.54z"/>
<path d="m141.48,160.9c1.489,.205 1.929,1.457 1.692,3.385h-2.539c-.36-1.76 .58-2.23 .85-3.38z"/>
<path fill="#fff200" d="m319.19,214.22c-1.448-.037-2.192,.629-2.538,1.692-10.64-2.706-22.984,2.635-33.85,1.693-9.175-.796-14.4-5.62-22.004-9.309-6.417-9.66-15.238-16.917-22.848-25.387 6.119-6.81 11.679,1.644 16.079,4.231 3.664,2.155 8.962,4.469 13.538,6.77 2.12,1.065 4.408,2.201 6.771,3.385 5.367,2.69 13.258,6.024 21.156,6.77-1.136-5.374-9.875-4.841-14.387-6.77-6.002-2.566-12.526-7.02-18.615-10.155-6.395-3.292-13.111-6.161-16.925-11.001-.459-2.997 2.996-2.08 2.537-5.078 22.415-.24 41.189,8.499 54.16,20.31-1.402-9.035-17.965-18.103-29.618-21.156-7.148-1.872-15.115-.721-22.002-3.385 1.008-1.813 .912-4.728 2.538-5.924 11.699,1.2 25.032,5.281 36.389,9.309 2.176,.771 3.037,3.486 5.076,5.078 3.002,2.342 7.857,3.07 10.154,5.077 4.021,3.514 6.601,9.628 10.155,16.079 3.53,6.46 6.68,9.01 4.21,17.79z"/>
<path d="m216.79,163.44c2.47-.211 2.921,1.594 4.23,2.539-.017,2.319-3.992,2.01-5.076,.846-.1-1.52 1.04-1.79 .85-3.39z"/>
<path d="m227.79,163.44c1.769-.358 2.242,.581 3.385,.846v2.539c-1.109,1.086-3.118,1.086-4.229,0-.11-1.52 1.03-1.79 .84-3.39z"/>
<path fill="#754c29" d="m243.03,165.98c3.766-1.184 4.582,3.882 .846,3.385 .1-1.51-1.04-1.78-.85-3.38z"/>
<path d="m152.48,166.83c3.218,.021 3.082,4.407-.847,3.385-.36-1.78 .58-2.25 .85-3.39z"/>
<path d="m226.1,168.52c3.219,.021 3.082,4.407-.847,3.385-.35-1.76 .58-2.24 .85-3.38z"/>
<path d="m177.87,170.21c1.768-.358 2.24,.581 3.384,.846-.204,1.489-1.456,1.929-3.384,1.692v-2.54z"/>
<path d="m208.33,171.06c2.23-.254 2.778,1.172 2.537,3.385-2.23,.26-2.78-1.17-2.54-3.38z"/>
<path fill="#754c29" d="m237.95,171.06h5.079c.122,2.1 .155,4.107-1.694,4.231-2.25-.29-2.86-2.22-3.39-4.23z"/>
<path d="m170.25,171.9c1.671,.585 2.255,2.258 2.539,4.231-3.9,.24-4.9-2.45-2.54-4.23z"/>
<path d="m139.78,174.44c2.23-.254 2.777,1.171 2.539,3.385-2.23,.26-2.77-1.16-2.54-3.38z"/>
<path d="m150.79,174.44h3.385c.98,2.94-4.74,3.94-3.39,0z"/>
<path d="m164.33,175.29c.255,2.229-1.172,2.777-3.385,2.539-.25-2.23 1.17-2.78 3.39-2.54z"/>
<path fill="#754c29" d="m233.72,176.14c3.2-.725 2.995,3.788 1.692,5.077-2.16-.1-1.68-2.84-1.69-5.08z"/>
<path d="m185.48,181.21v2.539c-1.5-.192-4.238,.853-3.385-1.693 .75-.66 1.91-.91 3.38-.85z"/>
<path fill="#754c29" d="m226.1,182.9c4.61,3.23-4.62,5.96 0,0z"/>
<path d="m193.94,183.75h3.386c.99,2.94-4.73,3.93-3.39,0z"/>
<path d="m153.32,186.29c2.644-.388 2.705,1.808 2.539,4.231-3.64,.3-3.26-2.1-2.54-4.23z"/>
<path fill="#fff200" d="m257.41,254.83c-3.402,.584-4.83-.811-7.614-.846-3.17,1.343-3.518,5.511-6.77,6.77-11.815-6.52-17.868-18.802-25.389-29.617 1.705-11.607-3.57-22.718-6.771-32.157 1.883-.658 3.3-1.777 5.925-1.692 .102,2.438-.462,5.54 .846,6.77 6.311,10.896 14.155,20.259 20.31,31.31-.486-15.311-15.847-23.077-19.463-38.08 4.905-3.392 9.4-9.532 15.232-9.309 2.619,.101 8.078,3.958 11,6.77 13.48,12.99 25.75,39.28 12.68,60.09z"/>
<path d="m177.87,188.83c.254,2.23-1.172,2.777-3.385,2.539-.26-2.23 1.17-2.78 3.39-2.54z"/>
</g>
<g fill="#fff200">
<path d="m78.01,261.6c3.981-.672 8.353-4.028 11.001-6.77 4.934-5.109 10.062-13.062 15.232-19.463 9.375-11.608 20.247-28.028 38.08-32.156 2.473-.035-.987,4.385-2.539,5.924-1.822,1.805-5.508,3.104-6.77,4.231-.979,2.124-3.372,2.834-3.385,5.924-2.397,.142-3.526,1.551-5.924,1.692-5.462,11.462-16.829,17.019-20.309,30.462-7.475,3.597-10.541,12.249-16.925,16.925-4.23,3.101-9.098,3.469-13.54,6.771-4.577-.78-6.84-3.877-11.847-4.23 6.63-13.679 9.369-31.251 16.925-44.003 12.664-11.595 22.593-25.924 43.157-29.619 2.276,.583 1.636-1.75 2.539-2.539 5.569,.442 9.145,.468 12.694,4.231-25.04,15.3-37.243,43.43-58.38,62.63z"/>
<path d="m64.47,198.14c-15.702,9.121-38.512,11.133-44.003,30.464-3.175-5.319-4.756-13.997-.846-20.309 2.444-3.947 10.993-9.189 16.924-11.001 6.996-2.14 18.686-.98 27.925,.85z"/>
<path d="m160.94,206.6c-6.054,10.307-9.537,23.185-12.694,36.389 8.004-7.229 6.061-24.404 14.386-31.311-.112-2.086-.129-4.078 .846-5.078 3.082-.262 5.506,.134 7.616,.847-13.205,19.797-8.433,57.572-34.696,64.312-3.147,.327-1.566-4.075-4.231-4.23-3.966,4.156-10.927,5.861-14.386,0-5.708-29.168 12.168-46.234 27.08-60.082 7.15,.2 11.22-5.74 16.07-.85z"/>
<path d="m176.17,206.6c.983-.138 1.505,.187 1.693,.847-3.484,6.472-2.256,13.161-4.231,21.155-.685,2.768-3.821,6.348-5.078,10.155-.764,2.314-.128,4.758-.846,6.771-2.244,6.296-5.794,12.633-7.616,19.462-4.67,17.51-6.687,32.176-19.463,40.62-3.046-.226-4.079,1.562-6.77,1.692-2.983,.683-2.168,5.166-5.923,5.077-5.924-9.765-11.124-27.67-1.693-37.234 4.695-1.026 5.142,2.193 7.616,3.385 3.986-.246 7.069-4.951 10.155-3.385 .014,6.659-1.901,11.401-4.231,16.079-2.096,4.205-6.528,7.501-5.924,11.848 6.679-6.471 11.481-14.306 12.694-24.542 .182-1.535-.625-4.204 0-5.923 1.521-4.188 6.698-6.202 9.309-10.154 1.191-1.804 5.023-9.924 5.924-12.693 .698-2.149 .246-4.719 .846-6.77 .413-1.413 2.224-2.057 2.539-3.385 2.77-11.78 2.72-24.52 10.99-33.04z"/>
<path d="m264.18,215.91c6.396,3.878 13.335,2.786 19.465,5.078 11.354,4.243 15.003,17.704 22.002,26.233 1.049-10.927-10.549-16.527-13.54-26.233 4.882-.643 8.782-1.741 16.078-1.692 .727,5.803 7.442,7.382 9.31,12.693 1.566,4.456 .383,9.281 .845,16.077-4.46,6.26-4.28,17.158-14.385,17.772 2.255-10.64-5.329-18.216-8.463-26.232-8.493-6.74-13.958-16.507-27.927-17.771-.65-2.46-4.02-2.2-3.39-5.93z"/>
<path d="m266.72,237.06c13.092,12.689 11.704,54.777-11.001,52.467 2.625-14.604-9.992-18.038-6.77-30.465 4.99,.941 12.549,.544 14.385-5.923 4.7,4.9 2.366,18.914 .846,25.386 3.494-.257 5.068-8.933 5.079-14.385 .012-6.095-2.541-13.102-5.079-16.925 1.07-3.15 1.32-7.14 2.53-10.16z"/>
<path d="m171.94,242.14c4.935,11.99 4.875,28.975 16.077,34.695 4.503,.555 4.02-3.879 6.771-5.077 2.896,2.181 7.976,2.181 11.002,4.231 .608,13.304-4.436,20.952-11.002,27.08-4.069-1.448-6.322-5.756-11.848-3.385-8.35-14.05-19.6-37.03-11-57.54zm14.39,50.78c-2.036-5.863-1.41-14.387-5.923-17.771 1.22,6.67-.52,16.31 5.92,17.77zm6.77,1.69c7.049-.307 6.153-11.072 5.924-16.079h-2.539c.94,6.7-.04,11.77-3.38,16.08z"/>
</g>
<g>
<path fill="#009445" d="m217.64,242.14c1.368-.238 1.457,.8 2.539,.848 7.652,51.285-3.231,102.45-16.079,141.32 3.873-.653 4.775-11.575 8.464-15.232 1.214-9.406 4.305-16.807 6.771-27.08 2.321-9.678 4.957-18.776 5.923-31.31 1.459-18.952 .062-38.765 0-57.543 1.35-3.007 5.839,4.646 8.462,5.923 .093,23.88-1.937,51.189-9.31,70.237-.61,2.586 .866,3.084 .848,5.077-5.562,10.279-5.354,21.726-8.463,32.157-2.965,9.946-8.366,18.695-12.694,27.925-4.388,9.361-7.4,19.143-12.692,27.926-2.612,4.337-5.449,8.441-7.617,12.694-5.004,9.821-8.086,20.533-19.462,24.54-5.64-2.542-7.465-8.896-11.847-12.692 7.498-3.148 11.763-9.967 16.925-18.618 3.415-5.725 7.174-10.624 6.77-14.385-.41-3.803-3.536-4.465-5.077-7.617 1.064-13.64-3.41-27.102-11.848-33.85-8.018-1.291-13.011-5.606-18.617-9.308 5.24,13.09 28.592,12.301 25.387,32.157-5.438-15.719-20.308-22.004-34.696-28.772-3.393-4.493-5.241-12.177-5.078-17.771 1.103-3.128 4.577-3.885 5.078-7.615 .628,4.736-.037,13.506 7.616,16.925 2.983,1.331 7.397-.186 11.001,.845 5.332,1.526 8.524,6.278 11.848,5.925 5.208-.555 4.524-6.111 8.462-6.77-.17,3.215-.75,6.021-1.693,8.462 6.803,9.189 7.737,23.09 7.616,37.234 1.722,1.104 6.862-.029 9.308-.847 20.139-37.257 38.512-94.19 29.618-144.71 2.3-4.08 4.39-10.31 2.54-16.06z"/>
<path d="m180.4,275.14c4.513,3.385 3.887,11.908 5.923,17.771-6.43-1.45-4.69-11.09-5.92-17.77z"/>
<path d="m196.48,278.53h2.539c.229,5.007 1.125,15.772-5.924,16.079 3.34-4.31 4.32-9.38 3.38-16.08z"/>
<path fill="#006838" d="m166.02,397.85c1.501-2.257 .616,4.959 .846,6.77-.151,3.646 4.977,5.197 2.539,8.463-5.73-1.04-4.16-10.02-3.39-15.23z"/>
<path d="m204.94,.12c7.364,2.19 8.035,15.376 7.617,20.309 2.494,1.608 4.837-4.159 9.308-3.385 15.094,5.49 10.248,32.554 11.848,49.082 5.947-7.886 9.661-20.432 14.385-30.465 2.12-4.5 2.288-3.358 5.925-7.616 5.795-6.787 21.133-22.688 25.388-5.924 1.08,4.257-.385,9.839 0,14.386 .662,7.871 3.66,14.914 1.69,21.156 8.786-2.099 17.816-2.739 26.234-5.924 4.086-1.546 5.333-4.236 9.31-3.385 11.085,2.371 4.669,20.648 1.69,30.464 7.769,.785 23.932-2.025 27.08,5.923 .925,4.591-2.015,5.32-2.538,8.462 1.794,2.437 6.272,2.19 7.615,5.078 .953,4.903-1.744,6.155-2.54,9.309 13.991,3.78 25.134,10.408 24.542,28.772-1.552,.987-2.865,2.212-4.231,3.385-10.129-2.754-16.316,2.613-22.848,5.923 7.332,3.525 15.489,1.283 21.156,5.078 3.97,2.659 8.591,10.762 6.771,20.309-.566,2.966-3.858,8.552-5.925,11.001-3.744,4.438-10.16,8.543-16.079,9.309-3.444-3.037 .383-7.02 0-11.001-.655-6.833-4.015-11.984-10.155-14.386-9.889,4.497-19.066,9.704-33.002,10.155-.287,4.801 4.546,4.481 5.924,7.616 3.363,6.228 6.071,13.111 9.31,19.463v11.847c-1.757,2.474-5.392,3.072-5.924,6.77 .615,4.461 3.546,6.61 5.077,10.154 .884,13.327-1.369,22.718-6.771,30.465-3.394,4.868-9.109,10.256-15.231,8.462 .617-27.134-14.924-38.107-33.85-45.696 1.459,8.247 10.419,16.358 11.847,27.925 2.586,20.932-4.961,41.441-24.54,41.465 .13-12.541-5.998-18.826-8.462-28.771-2.168-1.219-5.969-.801-7.617-2.538-.988,18.906-1.365,37.314-4.23,54.157-.438,2.582-1.959,4.921-2.54,7.617-1.712,7.969-3.209,14.067-5.075,21.155-5.284,20.051-10.173,40.072-21.157,55.005-3.474,16.836-13.044,27.575-18.617,42.312-5.746,4.504-9.326,14.775-15.231,19.463-10.666,8.466-16.693-2.384-22.002-11.848-1.232-2.193-4.658-3.958-3.385-6.77 11.597-3.635 17.11-13.354 22.848-22.848-2.114-6.252-5.655-7.106-6.77-11-1.418-4.95 1.162-9.095-.846-16.08-2.661-9.25-13.449-16.475-22.002-20.31-4.861-2.179-10-2.996-12.694-6.77-2.912-4.081-4.585-12.227-4.231-16.078 .572-6.213 7.143-15.922 14.386-16.925 1.523,5.6-1.411,6.93 0,11.848 2.81,9.798 15.875,6.637 22.848,12.692 4.784-1.703 6.292-6.683 14.386-5.077-2.719,14.229 9.291,28.055 5.923,43.159 7.482-3.275 10.061-12.654 13.54-20.31 7.008-15.417 10.926-32.414 15.232-52.467 3.662-17.045 6.939-34.39 4.231-55.853-5.358,1.514-2.114,7.677-2.539,11.848-1.204,11.827-6.924,23.419-16.08,27.927-3.778-.168-4.036-3.86-6.77-5.077-2.546,.838-3.775,2.993-7.615,2.538-2.143-8.074-11.029-13.707-8.461-23.695-2.939-3.548-5.567-7.408-6.77-12.692-7.647,15.483-8.913,37.35-27.08,42.312-3.585,1.774-4.22,6.498-10.155,5.923-9.192-8.247-10.622-26.03-8.462-43.157-6.043-5.826-5.881-20.369-4.231-31.31-5.961,2.224-11.912,11.775-15.231,19.463-9.327,6.47-16.197,15.395-29.618,17.77-3.065-5.505-9.915-1.984-14.386-5.923 8.269-28.964 19.337-55.131 39.773-71.929-1.327-3.768-4.891-.504-7.616-.846-2.571-.324-3.86-1.916-6.77-1.692-3.561,.272-6.439,2.893-11.001,4.231-2.279,.668-5.325,.207-7.616,.846-7.975,2.226-17.157,5.832-22.002,9.309-5.69,4.083-15.29,12.492-16.924,21.155-19.489-5.742-7.865-32.81 4.231-38.08-7.621-1.415-7.379,5.033-14.386,4.231-5.773-8.791 4.244-20.956 9.309-27.08-.924-1.897-4.154-1.487-5.078-3.385 1.092-13.293 6.357-22.415 15.232-27.925-1.239-3.996-5.931-2.33-9.309-3.385-2.559-.8-5.349-3.132-7.616-3.385-4.963-.556-8.225,3.09-13.54,3.385-6.224-7.266 5.501-11.829 2.539-18.618 6.707-13.884 25.075-16.109 45.696-16.079-2.354-9.05-12.504-19.709-9.309-30.463 1.623-5.461 7.204-9.366 14.386-11.001 4.274,2.778 7.49,6.614 11.001,10.155 7.671,1.637 13.452,5.165 20.31,7.616-.881-9.757-9.62-23.363-8.462-37.235 .029-.355 1.548-2.048 .846-3.385 2.648-1.865 4.346-4.681 9.309-4.231 .262-5.529-.997-7.318 0-11.847 5.283-1.487 9.077-4.461 9.309-11 15.157-2.238 27.215,10.261 36.387-.847 17.614,2.414 24.667,15.389 33.85,26.233 1.96-2.271 3.331-5.131 3.385-9.309 8.836-7.241 8.844-23.312 18.617-29.617 3.815-.714 4.227,1.98 6.77,2.539 3.23-.421 4.7-2.612 8.47-2.508zm-25.38,63.466c4.59-17.694 9.15-35.418 21.155-45.697 2.514-.872 6.134-.637 7.617-2.538 .565-4.798-1.902-6.561-2.538-10.155-5.856,1.384-12.201,4.221-16.925,0-8.06,15.19-24.42,42.537-9.32,58.39zm-77.86-44.85c-3.314,1.583-.846,5.582-4.231,6.77-1.129,1.41-4.794,.283-5.924,1.692 .008,2.249-.32,4.833 .846,5.924 13.07-6.069 24.238,6.562 31.31,14.386 1.261-8.402-2.977-18.395-9.309-22.002-.423-2.662 1.845-3.308 0-5.078-3.52-.718-8.96-3.471-12.69-1.692zm66.86,33.849c-.769-1.763-.961-4.353-1.692-5.924-2.296-4.927-7.374-9.282-10.155-12.693-1.261-1.546-1.644-4.139-2.539-5.078-3.632-3.806-8.927-5.017-11.848-9.309-5.958-1.671-12.318-1.091-14.386,3.385-3.154,.51-5.352-2.164-7.616,0 1.069,4.32 4.352,6.338 5.923,11.001 2.28,6.767 1.021,14.809 4.231,21.156 1.511,2.987 5.006,5.648 6.77,8.462 5.038,8.035 9.254,19.391 12.693,27.079 3.298,7.373 3.083,19.477 12.694,19.463 .227-4.557-2.889-9.272-4.231-13.54-1.485-4.722-3.902-10.165-1.692-13.54 4.464,8.511 3.607,22.344 14.386,24.541 6.598-17.808-8.291-35.507-10.155-49.927 8.213,12.941 15.272,27.039 15.232,48.235h5.077c2.25-21.975-6.61-39.355-12.69-53.315zm88,47.389c10.151-14.049 20.289-30.524 21.155-49.927 .373-8.38-1.125-26.686-5.076-30.465-5.723,1.895-9.581,5.652-14.387,8.462-5.952,8.714-11.111,18.224-13.54,30.465-3.923,2.411-3.654,6.797-5.923,11.001-1.779,3.292-5.604,5.839-7.617,9.309-2.46,4.247-1.853,9.189-3.385,13.539-1.649,4.692-8.013,9.384-5.075,14.386 5.805-2.376 6.196-10.164 8.46-16.079 5.705-3.124 6.475-15.417 12.695-15.231-4.421,11.375-13.176,18.417-13.54,33.849 6.997-.137 10.799-7.062 14.385-11.848 3.655-4.874 7.41-10.697 10.155-16.077 6.152-12.057 8.792-26.46 12.692-40.62 1.189,12.229-1.957,24.425-5.075,32.157-3.718,9.214-8.42,16.519-13.54,23.694-3.868,5.421-10.584,9.881-10.155,16.925 9.02-1.79 12.7-6.49 17.78-13.536zm-53.31-78.7c-10.878,8.651-17.586,26.863-20.31,44.851-1.314,8.684 .528,13.535 1.692,20.309 .998,5.804-.05,16.281 5.923,17.771 .925-15.554 2.734-32.072 5.925-43.157 .812-2.819 .565-7.052 3.385-8.462-2.321,16.017-8.422,35.864-3.385,51.62h8.462c10.592-16.769 15.671-39.052 15.232-66.852 .324-2.91-4.25-5.275-1.692-7.616 7.78,5.346 3.5,25.247 2.538,33.003-1.136,9.157-2.009,19.292-4.23,27.079-1.648,5.774-6.609,10.427-4.23,16.079 11.194-8.016 17.688-30.751 17.771-50.774 .05-12.054-1.796-25.609-8.463-33.003-3.941,.572-4.598,4.429-9.308,4.231-3.68-1.104-4.1-5.487-9.31-5.07zm-67.7,48.236c-2.966-4.697-7.79-12.384-11.001-16.079-1.658-1.909-4.683-2.735-6.77-5.077-1.429-1.605-1.869-4.541-3.385-5.924-3.782-3.454-12.005-6.635-16.078-6.77-2.432,2.364-2.705,6.886-6.77,7.616-2.507-.596-3.685-2.521-7.616-1.692-3.336,9.313 1.021,20.826 3.383,27.926 1.177,3.54 2.324,7.408 3.385,9.309 3.178,5.69 11.25,7.352 16.924,11 3.667,2.358 7.183,6.691 11.001,10.155 4.217,3.825 9.141,6.964 11.847,10.155 3.617,4.265 3.758,8.666 9.309,11.847 9.895-4.974 2.413-17.247-2.539-26.233-3.856-6.997-8.998-13.251-10.155-18.616 7.095,7.075 15.356,18.37 19.463,28.771 1.138,2.881-.069,11.336 5.924,9.309-2.47-15.792-9-33.155-16.93-45.7zm143.02-4.231c-.557,3.11-1.643,5.689-1.692,9.309-9.542,15.843-19.394,31.379-32.157,44.003 2.523,2.836 4.88,5.84 6.771,9.309 13.754-4.462 29.187-15.306 39.772-22.849 5.386-3.837 6.644-6.128 11.002-10.155 2.353-2.175 5.36-3.112 6.77-5.077 6.163-8.6 9.008-21.791 8.463-35.542-12.21,4.435-28.95,4.331-38.92,11.003zm-234.41,16.079c1.454,5.797 5.881,12.825 8.462,16.924 5.857,9.302 13.258,18.045 17.771,22.848 3.043,1.47 6.369,2.657 7.616,5.924 11,1.996 22.636,12.106 33.849,14.386 2.24,.455 9.01,2.129 10.155-1.692-.721-4.165-15.104-6.216-13.54-12.694 5.338,3.593 17.024,12.523 21.156,2.539-4.654-1.11-4.581-6.11-7.616-9.309-5.439-5.73-15.229-7.871-16.924-14.386 6.298,4.455 14.235,6.413 19.462,11.847 3.01,3.129 3.502,8.04 7.616,10.155 4.3-4.033-1.307-8.045-3.385-11.001-7.436-10.577-17.952-19.138-29.618-25.387-1.588-.85-2.93-2.784-4.231-3.385-5.913-2.729-13.142-3.472-19.464-5.922-6.297-2.443-11.085-5.958-16.925-8.462-.81-1.729-1.729-3.349-2.539-5.078-7.732,.212-13.741,5.197-11.862,12.692zm272.49,2.538c-1.961,3.683-5.155,6.129-5.925,11 8.029-4.945 28.562,2.61 30.463-8.462-4.69-4.408-16.78-3.738-24.53-2.538zm-14.39,16.924c-14.354,12.727-31.987,22.172-49.928,31.311-.288,4.236 1.979,5.918 1.692,10.155 10.523,7.006 23.662-4.428 31.311-8.462 2.907-1.534 5.889-2.062 8.462-3.385 5.141-2.643 9.772-6.52 14.386-9.309 4.579-2.768 11.112-7.406 15.233-5.077-8.238,4.739-17.679,8.272-23.694,15.232-13.207,4.566-22.653,12.89-36.39,16.925-2.506-1.158-3.685,.496-7.615,0 .914,3.957-3.377,5.507-.847,8.462 9.034-1.042 20.961-2.642 29.617-6.769 2.05-.978 3.814-3.136 5.925-4.231 2.512-1.304 5.168-2.149 7.615-3.385 16.892-8.53 30.341-21.101 49.082-26.233 .598-4.829-5.854-2.606-5.077-7.616-.885-4.833 5.266-2.632 4.231-7.616-10.64-8.663-31.55-2.274-44.01,.01zm-60.08,20.31c-6.519-1.366-8.221-8.081-15.232-10.155-4.451-1.316-10.271-.232-15.232-.846-1.188-.147-2.146-1.519-3.385-1.692-6.918-.967-12.952-.444-17.772,3.385-.614-2.308 1.684-1.704 1.694-3.385-9.084,1.354-20.327,.547-23.695,7.616-.047-1.082-1.084-1.172-.846-2.539-22.004,6.116-55.946,28.324-49.082,57.543 .441,1.876 4.351,8.395 5.923,8.462-.085,2.624 1.035,4.042 1.692,5.924 3.648,1.109 1.049-4.029 4.231-3.385 .95,.18 1.318,.94 1.692,1.693-.344,1.63-3.28,.668-2.539,3.385 .986,.143 .919,1.337 .846,2.539 5.839-.681 8.583,3.679 13.54,2.539 1.169,1.934 .926,5.28 4.231,5.077-.393-2.649 .735-3.777 3.385-3.385-.042,2.58 .769,4.309 2.539,5.077-.167-2.423-.105-4.619 2.539-4.231-.064,1.474 .188,2.632 .846,3.385 2.997,.458 2.081-2.997 5.078-2.539-.617,2.309 1.681,1.704 1.692,3.385 2.971,.151 2.783-2.858 5.078-3.385 .847,1.127 1.395,2.555 2.539,3.385 1.484-1.335 1.755-3.886 4.231-4.231 2.226-.25 .666,3.283 3.384,2.539 2.033-.788 2.241-3.4 5.924-2.539 .253-1.664-1.143-1.679-1.693-2.539 .736-1.238 1.267-2.682 3.384-2.539 1.053,2.616 2.795,4.54 5.079,5.924 .302-3.365 2.061-5.273 6.77-4.231 .786-5.137 7.059-4.788 9.309-8.462 1.681,.011 1.076,2.309 3.385,1.692 .354-1.619 .307-3.642 2.537-3.385 3.866,2.801 6.188,5.475 5.08,9.309 9.07-1.359-4.601-9.228 1.69-12.694 .912,.862 3.178,4.614 4.232,2.539-1.255-.719-1.82-2.129-1.693-4.231 .85,.002 1.009-.686 1.693-.846 2.576-.037 3.29,1.787 5.077,2.539 .414-2.671-1.526-2.988-.846-5.924 .848,.003 1.007-.685 1.69-.846 2.59-.613 2.49,1.46 5.08,.846 2.046-2.033-2.056-2.24-.848-5.923 4.729,.497 1.913-6.55 6.771-5.924-2.929-8.005 6.329-3.823 6.77-8.461-2.433,.175-4.299-.215-5.077-1.692 1.796-4.406 2.946-5.033 .845-10.155h5.925c-.649-2.456-1.339-4.868-3.385-5.924-.316,2.826-4.5,.949-4.23-1.692 1.961-.271 3.248,.136 4.23,.846 1.08-6.75-4.12-7.19-5.06-11.89zm-196.33-11c-15.896-.93-27.375,5.329-35.541,10.155 .249,7.019-2.209,11.332-6.77,13.54 9.372-4.803 16.188,1.022 22.848,2.539 1.962,.447 4.394-.352 6.77,0 7.494,1.107 12.963,2.387 18.617-3.385-8.584-2.982-20.099-3.032-27.925-6.77 8.81-2.72 17.582,1.847 25.386,3.385 4.063,.8 8.314-.349 11.001,2.539 3.894-1.748 11.646,.362 12.693-4.231-9.64-5.52-12.963-16.95-27.079-17.78zm301.26,11.85c-3.024-1.667-4.516,.393-8.463,0-13.321,8.397-25.811,17.628-40.619,24.541 23.754,8.16 45.7-4.212 61.776-11.847 2.647-.173 6.211,.571 7.615-.846 1.694-9.875-5.323-11.037-7.615-16.925-3.552-.681-5.488-2.975-9.31-3.385 .57,4.5-.49,7.4-3.38,8.46zm-259.79,12.69c-29.129,.116-61.747,4.856-66.006,34.695 8.427-.695 16.665-6.734 27.079-9.309 19.532-4.828 48.757-3.718 65.16,2.539 1.168-7.677-7.718-9.733-13.539-11.846-9.768-3.547-21.003-5.237-32.157-5.924 3.513-2.862 9.676-1.97 13.54-1.692 12.423,.891 24.19,6.761 34.695,9.309-1.46-13.27-23.553-9.67-28.771-17.77zm248.79,13.54c-9.974,7.011-32.004,6.209-43.157,.847-7.056,4.512-16.645,6.488-23.695,11 3.844,.467 7.532,1.424 11,2.539 3.084,.992 7.068,1.938 10.155,3.385 4.332,2.031 7.201,5.875 11.848,6.77 2.46,.475 7.127,.253 9.308,0 13.147-1.521 27.509-10.673 36.387-16.924 2.354-1.656 4.787-2.857 6.771-5.077-4.77-.78-13.61,.18-18.63-2.54zm24.54,12.69c-3.154-.513-2.34-4.995-5.925-5.077-.555,1.136-1.81,1.576-3.385,1.692 1.103,3.694 6.655,2.938 7.617,6.769-.513,1.746 1.364,5.879-1.693,5.078-1.827-4.941-4.87-8.668-11.847-8.462 2.983,8.019 12.086,9.917 10.154,22.849 8.842-3.159 16.552-13.048 12.693-23.695-4.532-.262-4.051-5.538-9.308-5.077-.59,2.64 4.74,3.64 1.7,5.92zm-114.24,3.39c2.616,.08 2.52-2.555 2.538-5.076-1.082-.047-1.173-1.085-2.538-.847-1.76,2.2 1.89,3.15 0,5.93zm-132.01,4.23c-12.637-6.594-32.11-8.731-49.081-7.616-13.007,.855-24.421,5.894-33.849,9.309-6.909,6.632-13.967,13.114-15.232,25.387 6.481-1.42 13.388-3.716 21.155-4.231 22.919-1.52 40.42,5.573 62.622,5.077 6.117-4.32 20.305-.569 24.54-6.77-2.693-5.931-10.748-3.168-16.925-3.385-14.22-.498-31.912-3.639-46.542-4.231-3.846-.155-7.828,1.513-11.001-.846 20.219-5.341 45.988,2.952 67.698,.846 1.33-3.88-3.47-8.21-3.4-13.55zm200.55,27.92c-3.555-6.451-6.134-12.565-10.155-16.079-2.297-2.007-7.152-2.735-10.154-5.077-2.039-1.592-2.9-4.306-5.076-5.078-11.356-4.028-24.689-8.109-36.389-9.309-1.626,1.196-1.53,4.111-2.538,5.924 6.887,2.664 14.854,1.513 22.002,3.385 11.653,3.053 28.216,12.121 29.618,21.156-12.971-11.812-31.745-20.55-54.16-20.31 .459,2.998-2.996,2.081-2.537,5.078 3.813,4.84 10.53,7.708 16.925,11.001 6.089,3.135 12.613,7.588 18.615,10.155 4.512,1.929 13.251,1.396 14.387,6.77-7.898-.746-15.789-4.08-21.156-6.77-2.362-1.184-4.65-2.319-6.771-3.385-4.576-2.301-9.874-4.615-13.538-6.77-4.4-2.587-9.96-11.041-16.079-4.231 7.609,8.47 16.431,15.727 22.848,25.387 7.604,3.689 12.829,8.512 22.004,9.309 10.865,.942 23.21-4.399 33.85-1.693 .346-1.063 1.09-1.729 2.538-1.692 2.48-8.78-.67-11.33-4.23-17.78zm-71.08-27.08c3.736,.498 2.92-4.569-.846-3.385-.18,1.6 .96,1.87 .85,3.38zm-2.54,5.93c1.85-.124 1.816-2.132 1.694-4.231h-5.079c.54,2.01 1.15,3.94 3.39,4.23zm-5.92,5.92c1.303-1.289 1.508-5.802-1.692-5.077 .01,2.25-.47,4.99 1.69,5.08zm-9.31,1.69c-4.62,5.96 4.61,3.23 0,0zm18.62,11.85c-2.922-2.812-8.381-6.669-11-6.77-5.832-.224-10.327,5.917-15.232,9.309 3.616,15.003 18.977,22.769 19.463,38.08-6.154-11.051-13.999-20.414-20.31-31.31-1.308-1.23-.744-4.332-.846-6.77-2.625-.085-4.042,1.034-5.925,1.692 3.2,9.439 8.476,20.55 6.771,32.157 7.521,10.815 13.573,23.098 25.389,29.617 3.252-1.259 3.6-5.427 6.77-6.77 2.784,.035 4.212,1.43 7.614,.846 13.08-20.82 .81-47.11-12.68-60.09zm-108.32,4.23c-3.549-3.763-7.125-3.789-12.694-4.231-.902,.789-.263,3.122-2.539,2.539-20.564,3.695-30.493,18.023-43.157,29.619-7.556,12.752-10.295,30.325-16.925,44.003 5.007,.354 7.27,3.45 11.847,4.23 4.442-3.302 9.31-3.67 13.54-6.771 6.384-4.676 9.45-13.328 16.925-16.925 3.48-13.443 14.847-19 20.309-30.462 2.397-.142 3.526-1.551 5.924-1.692 .013-3.09 2.405-3.8 3.385-5.924 1.262-1.126 4.948-2.426 6.77-4.231 1.552-1.539 5.012-5.959 2.539-5.924-17.833,4.128-28.705,20.548-38.08,32.156-5.17,6.4-10.298,14.354-15.232,19.463-2.648,2.741-7.02,6.098-11.001,6.77 21.13-19.21 33.333-47.34 58.383-62.63zm-99.856-1.69c-5.931,1.812-14.479,7.054-16.924,11.001-3.91,6.312-2.329,14.99 .846,20.309 5.492-19.331 28.301-21.343 44.003-30.464-9.238-1.83-20.928-2.99-27.925-.85zm168.4,70.24c6.85-5.072 11.107-24.174 9.308-40.619-.855-7.842-2.967-19.472-5.922-22.849-4.642-5.301-10.569-1.57-17.772,0-2.245,8.84-.71,20.43-2.538,31.31-2.869-4.176-1.873-14.966-1.692-22.001 .074-2.865 2.898-7.126-.846-7.616-5.624-1.302-5.879,7.268-6.769,11.848-3.8,19.542-2.073,46.026 10.155,55.004 2.45-6.32 9.58-4.02 16.08-5.07zm-60.08-60.08c-14.912,13.848-32.788,30.914-27.08,60.082 3.459,5.861 10.42,4.156 14.386,0 2.666,.155 1.084,4.558 4.231,4.23 26.263-6.74 21.491-44.516 34.696-64.312-2.11-.712-4.535-1.108-7.616-.847-.975,1-.958,2.991-.846,5.078-8.326,6.907-6.382,24.083-14.386,31.311 3.157-13.204 6.64-26.082 12.694-36.389-4.84-4.89-8.91,1.05-16.07,.85zm20.31,32.15c-.314,1.328-2.125,1.972-2.539,3.385-.601,2.051-.148,4.62-.846,6.77-.901,2.77-4.732,10.89-5.924,12.693-2.611,3.952-7.788,5.967-9.309,10.154-.625,1.719 .182,4.388 0,5.923-1.212,10.236-6.015,18.071-12.694,24.542-.604-4.347 3.828-7.643 5.924-11.848 2.331-4.678 4.245-9.42 4.231-16.079-3.086-1.566-6.169,3.139-10.155,3.385-2.475-1.191-2.921-4.411-7.616-3.385-9.431,9.564-4.231,27.47 1.693,37.234 3.755,.089 2.94-4.395 5.923-5.077 2.691-.13 3.724-1.918 6.77-1.692 12.777-8.444 14.793-23.11 19.463-40.62 1.822-6.829 5.373-13.166 7.616-19.462 .718-2.013 .083-4.456 .846-6.771 1.257-3.807 4.393-7.387 5.078-10.155 1.976-7.994 .747-14.683 4.231-21.155-.188-.66-.709-.984-1.693-.847-8.27,8.55-8.22,21.29-11,33.03zm102.39-17.77c13.969,1.264 19.434,11.032 27.927,17.771 3.134,8.017 10.718,15.593 8.463,26.232 10.104-.614 9.925-11.513 14.385-17.772-.462-6.796 .722-11.621-.845-16.077-1.867-5.311-8.583-6.89-9.31-12.693-7.296-.048-11.196,1.05-16.078,1.692 2.991,9.706 14.589,15.306 13.54,26.233-6.999-8.529-10.647-21.99-22.002-26.233-6.13-2.292-13.068-1.2-19.465-5.078-.63,3.74 2.74,3.48 3.38,5.93zm-3.38,25.39c2.538,3.823 5.091,10.83 5.079,16.925-.011,5.452-1.585,14.128-5.079,14.385 1.521-6.472 3.854-20.485-.846-25.386-1.836,6.467-9.395,6.864-14.385,5.923-3.223,12.427 9.395,15.861 6.77,30.465 22.705,2.311 24.093-39.777 11.001-52.467-1.2,3.03-1.45,7.02-2.53,10.17zm-81.24,52.46c5.525-2.371 7.778,1.937 11.848,3.385 6.566-6.128 11.61-13.776 11.002-27.08-3.026-2.051-8.105-2.051-11.002-4.231-2.751,1.198-2.268,5.632-6.771,5.077-11.202-5.721-11.142-22.705-16.077-34.695-8.6,20.51 2.65,43.49 11,57.54zm32.16-41.46c8.894,50.516-9.479,107.45-29.618,144.71-2.446,.817-7.586,1.951-9.308,.847 .121-14.145-.813-28.045-7.616-37.234 .943-2.441 1.522-5.247 1.693-8.462-3.938,.658-3.254,6.215-8.462,6.77-3.323,.354-6.516-4.398-11.848-5.925-3.604-1.03-8.018,.486-11.001-.845-7.653-3.419-6.988-12.188-7.616-16.925-.5,3.73-3.975,4.487-5.078,7.615-.164,5.595 1.685,13.278 5.078,17.771 14.388,6.769 29.258,13.054 34.696,28.772 3.205-19.856-20.147-19.067-25.387-32.157 5.606,3.701 10.6,8.017 18.617,9.308 8.438,6.748 12.912,20.21 11.848,33.85 1.542,3.152 4.667,3.814 5.077,7.617 .404,3.761-3.355,8.66-6.77,14.385-5.162,8.651-9.427,15.47-16.925,18.618 4.382,3.797 6.208,10.15 11.847,12.692 11.376-4.007 14.458-14.719 19.462-24.54 2.168-4.253 5.004-8.357 7.617-12.694 5.292-8.783 8.305-18.564 12.692-27.926 4.328-9.229 9.729-17.979 12.694-27.925 3.109-10.432 2.9-21.878 8.463-32.157 .019-1.993-1.458-2.491-.848-5.077 7.373-19.048 9.402-46.357 9.31-70.237-2.623-1.276-7.112-8.93-8.462-5.923 .062,18.778 1.459,38.591 0,57.543-.966,12.533-3.602,21.632-5.923,31.31-2.466,10.273-5.557,17.674-6.771,27.08-3.688,3.657-4.591,14.579-8.464,15.232 12.848-38.87 23.731-90.034 16.079-141.32-1.082-.048-1.171-1.086-2.539-.848 1.85,5.74-.24,11.97-2.54,16.07zm-45.7,154.86c2.438-3.266-2.69-4.817-2.539-8.463-.23-1.811 .655-9.026-.846-6.77-.76,5.21-2.33,14.19 3.39,15.23z"/>
<path fill="#754c29" d="m247.26,132.98c-.982-.71-2.27-1.117-4.23-.846-.27,2.641 3.914,4.519 4.23,1.692 2.046,1.056 2.735,3.468 3.385,5.924h-5.925c2.102,5.122 .951,5.749-.845,10.155 .778,1.478 2.645,1.867 5.077,1.692-.44,4.638-9.698,.457-6.77,8.461-4.857-.626-2.042,6.42-6.771,5.924-1.208,3.684 2.894,3.891 .848,5.923-2.59,.614-2.49-1.459-5.08-.846-.684,.161-.843,.849-1.69,.846-.681,2.936 1.26,3.253 .846,5.924-1.787-.752-2.501-2.576-5.077-2.539-.685,.161-.844,.849-1.693,.846-.127,2.102 .438,3.512 1.693,4.231-1.055,2.076-3.32-1.677-4.232-2.539-6.291,3.466 7.38,11.335-1.69,12.694 1.107-3.834-1.214-6.508-5.08-9.309-2.23-.257-2.183,1.767-2.537,3.385-2.309,.617-1.704-1.682-3.385-1.692-2.25,3.674-8.522,3.326-9.309,8.462-4.709-1.042-6.468,.866-6.77,4.231-2.284-1.384-4.026-3.308-5.079-5.924-2.117-.143-2.648,1.301-3.384,2.539 .55,.86 1.946,.875 1.693,2.539-3.683-.862-3.891,1.75-5.924,2.539-2.718,.745-1.159-2.789-3.384-2.539-2.476,.345-2.747,2.896-4.231,4.231-1.144-.83-1.691-2.257-2.539-3.385-2.295,.526-2.107,3.536-5.078,3.385-.011-1.681-2.31-1.076-1.692-3.385-2.997-.458-2.081,2.997-5.078,2.539-.658-.752-.91-1.911-.846-3.385-2.644-.388-2.705,1.808-2.539,4.231-1.771-.769-2.581-2.497-2.539-5.077-2.649-.392-3.778,.735-3.385,3.385-3.305,.203-3.062-3.144-4.231-5.077-4.958,1.14-7.701-3.22-13.54-2.539 .073-1.201 .14-2.396-.846-2.539-.742-2.716 2.195-1.754 2.539-3.385-.375-.753-.743-1.513-1.692-1.693-3.183-.644-.583,4.494-4.231,3.385-.657-1.881-1.777-3.3-1.692-5.924-1.572-.067-5.482-6.586-5.923-8.462-6.864-29.22 27.078-51.427 49.082-57.543-.238,1.367 .799,1.457 .846,2.539 3.368-7.069 14.611-6.262 23.695-7.616-.011,1.681-2.309,1.077-1.694,3.385 4.82-3.829 10.854-4.352 17.772-3.385 1.239,.174 2.197,1.545 3.385,1.692 4.961,.614 10.781-.47 15.232,.846 7.012,2.074 8.714,8.789 15.232,10.155 .92,4.69 6.12,5.13 5.06,11.84zm-47.39-19.47c2.48-.057 3.143-1.934 4.23-3.385h-3.385c.18,1.61-.96,1.88-.85,3.39zm-22.85,2.54c1.889-.368 3.017-1.497 3.385-3.385h-3.385v3.39zm49.08,3.39c2.675,1.25 4.069-4.863 .846-4.231-.71,.98-1.12,2.27-.85,4.23zm16.08,8.46c.255-2.23-1.173-2.777-3.386-2.539-1.22,3.58-.14,3.11 3.39,2.54zm-88.86,4.23h2.539c.239-2.213-.309-3.641-2.539-3.385v3.39zm24.55-2.54c-.037,1.165 .397,1.858 .846,2.539 2.229,.255 2.776-1.172 2.538-3.385-1.48-.06-2.64,.2-3.39,.85zm26.23,2.54c2.627,2.035 4.731,6.273 6.77,10.155 .906,1.724 .026,8.277 4.232,5.077-2.69-5.14-3.05-20.9-11-15.23zm-8.46,3.39c-.851,1.125-.801,3.148-2.539,3.385-3.382-2.158-7.717-7.268-12.693-5.077-.637,3.176 3.232,1.845 3.384,4.231-2.367,5.23-7.999-.056-10.154-2.539-2.24,1.987-3.547,6.528-7.616,4.231-1.11,4.25-5.208,5.511-11.001,5.077-1.403,3.674-2.383,7.771-4.231,11.001 1.823,.715 1.365,3.711 2.539,5.077 2.394,.145 5.805-.728 5.923,1.692-2.649-.392-3.778,.736-3.385,3.385 4.018,.213 9.96-1.498 8.462,4.231 3.896,1.077 1.349-4.292 3.385-5.078 3.83,5.774 9.818,.245 8.462-5.077-.973-1.34-4.422-4.527-1.692-6.769h2.539c-.409,3.653 2.841,4.787 .847,9.308 1.611,.364 2.125,1.824 4.23,1.692 .366-3.301 2.001-5.333 4.231-6.769-2.922-2.247-4.189-6.449-1.693-10.155 5.738,.469 2.834,9.578 10.155,8.462 .292-2.335-2.431-5.943 0-7.616 6.782,4.211 5.878-8.194 11.002-3.385-.252-8.776-5.379-12.675-13.54-13.54-1.04,3.6 2.83,2.27 3.4,4.24zm20.31,3.38c1.036,1.487-1.449,7.136 2.538,7.616 .355-7.783 1.436-13.206-5.077-15.232-2.41,3.01 2.59,4.29 2.54,7.61zm-79.55-4.23c-.037,1.165 .398,1.858 .846,2.539 2.118,.144 2.648-1.3 3.385-2.539-2.11-.09-2.63-1.59-4.24,0zm26.23,5.08h1.692c1.41-1.682-.077-1.077 0-3.385h-1.692c.08,2.31-1.41,1.71 0,3.39zm-8.46-1.69c-.815,3.11 4.157,3.364 4.231,.846-1.49-.75-2.47-2.69-4.23-.85zm-2.54,2.53c-1-.975-2.991-.958-5.077-.846-.93,3.31 5.05,3.4 5.08,.85zm-22,4.23c2.153-.104 3.281-1.232 3.385-3.385h-3.385c-.01,1.13-.01,2.26-.01,3.38zm8.46-2.53v1.692c.516,.048 1.001,.125 .846,.846h1.692c.048-.517 .127-1.001 .846-.846v-1.692c-.516-.048-1.001-.127-.846-.846h-1.692c-.05,.52-.13,1-.85,.85zm89.7,5.92c.256-2.229-1.171-2.777-3.385-2.539 .07,2.28 1.94,4.07 3.39,2.54zm-22,3.39c4.284,.325 2.435-5.727-.848-5.078-.02,1.99 1.46,2.49 .85,5.08zm17.77,5.07c.239-2.212-.309-3.64-2.539-3.384-.24,2.21 .31,3.64 2.54,3.38zm4.23-.84c1.93,.236 3.182-.204 3.385-1.692-1.143-.266-1.616-1.205-3.385-.846-.01,.84-.01,1.69-.01,2.54zm-82.93,1.69h2.539c.239-2.213-.309-3.64-2.539-3.385v3.38zm90.55,5.08v-3.384h-2.538c-.24,2.2-.29,4.22 2.54,3.38zm-88.01,.84c1.432,1.333 4.884-.088 4.231-3.385-2.53,0-3.55,1.52-4.23,3.38zm-6.77,.85h2.539c.237-1.928-.203-3.18-1.692-3.385-.27,1.15-1.21,1.62-.85,3.39zm75.32,2.54c1.084,1.164 5.06,1.473 5.076-.846-1.31-.945-1.761-2.75-4.23-2.539 .18,1.6-.96,1.87-.85,3.39zm11,0c1.111,1.086 3.12,1.086 4.229,0v-2.539c-1.143-.265-1.616-1.204-3.385-.846 .18,1.6-.96,1.87-.85,3.39zm-75.32,3.38c3.928,1.022 4.065-3.364 .847-3.385-.27,1.15-1.21,1.62-.85,3.39zm73.62,1.69c3.929,1.022 4.065-3.364 .847-3.385-.27,1.14-1.2,1.62-.85,3.38zm-47.38,.85c1.928,.237 3.18-.203 3.384-1.692-1.144-.265-1.616-1.204-3.384-.846v2.54zm33,1.69c.241-2.213-.307-3.64-2.537-3.385-.24,2.21 .31,3.64 2.54,3.38zm-38.08,1.7c-.283-1.974-.868-3.646-2.539-4.231-2.36,1.77-1.36,4.46 2.54,4.23zm-30.47,1.69c.239-2.213-.309-3.639-2.539-3.385-.23,2.22 .31,3.64 2.54,3.39zm11.85-3.39h-3.385c-1.34,3.94 4.38,2.94 3.39,0zm6.77,3.39c2.213,.239 3.64-.309 3.385-2.539-2.21-.24-3.63,.31-3.38,2.54zm21.16,4.23c-.853,2.545 1.886,1.5 3.385,1.693v-2.539c-1.47-.06-2.63,.19-3.38,.85zm15.23,1.69h-3.386c-1.34,3.93 4.38,2.94 3.39,0zm-41.47,6.77c.167-2.423 .105-4.619-2.539-4.231-.72,2.13-1.1,4.53 2.54,4.23zm18.62,.85c2.213,.238 3.639-.309 3.385-2.539-2.21-.24-3.64,.31-3.38,2.54z"/>
<path d="m192.25,131.28c8.161,.865 13.288,4.764 13.54,13.54-5.124-4.809-4.22,7.596-11.002,3.385-2.431,1.673 .292,5.281 0,7.616-7.321,1.116-4.417-7.993-10.155-8.462-2.496,3.706-1.229,7.908 1.693,10.155-2.23,1.437-3.865,3.468-4.231,6.769-2.105,.131-2.619-1.329-4.23-1.692 1.995-4.521-1.255-5.654-.847-9.308h-2.539c-2.73,2.242 .72,5.429 1.692,6.769 1.356,5.322-4.632,10.851-8.462,5.077-2.036,.786 .512,6.154-3.385,5.078 1.498-5.729-4.445-4.018-8.462-4.231-.393-2.649 .735-3.777 3.385-3.385-.118-2.42-3.53-1.547-5.923-1.692-1.174-1.365-.716-4.362-2.539-5.077 1.848-3.229 2.828-7.327 4.231-11.001 5.793,.434 9.891-.828 11.001-5.077 4.069,2.297 5.376-2.244 7.616-4.231 2.155,2.482 7.787,7.769 10.154,2.539-.151-2.386-4.021-1.055-3.384-4.231 4.976-2.19 9.311,2.919 12.693,5.077 1.738-.236 1.688-2.26 2.539-3.385-.56-1.97-4.43-.64-3.38-4.24zm6.77,13.54c-.088-2.626 2.662-2.415 1.691-5.924-1.68-.011-1.075-2.309-3.385-1.692-.92,2.35-1.96,7.58 1.7,7.61zm-13.54-.84c2.478-.221 2.602,1.913 5.076,1.692 1.223-2.728-.226-6.073-4.23-5.923-.71,.98-1.12,2.27-.85,4.23zm-18.62,0c1.82,1.36 5.754,3.069 5.078-1.692-2.24,.01-4.98-.47-5.08,1.69zm9.31,5.92c3.775,.733 5.079-3.807 3.384-5.924-3.77-.74-5.07,3.8-3.38,5.92zm-18.61,1.7c.983-1.556 4.491-.586 3.385-4.231-2.9-.87-5.98,2.39-3.38,4.23zm11.84,2.53c1.714-2.543-.745-6.762-5.078-5.924-.06,3.73 1.8,5.53 5.08,5.92zm-5.92,2.54c.384,2.88 3.84,5.697 5.924,4.231 .04-3.29-3.98-5.56-5.92-4.23z"/>
<path fill="#fff200" d="m188.87,272.6c-12.228-8.979-13.955-35.462-10.155-55.004 .89-4.58 1.146-13.15 6.769-11.848 3.744,.49 .92,4.751 .846,7.616-.181,7.036-1.177,17.826 1.692,22.001 1.828-10.88 .293-22.47 2.538-31.31 7.203-1.57 13.131-5.301 17.772,0 2.955,3.376 5.066,15.007 5.922,22.849 1.8,16.445-2.458,35.546-9.308,40.619-6.51,1.05-13.64-1.25-16.08,5.07z"/>
</g>
</g>
</svg>
