<svg xmlns="http://www.w3.org/2000/svg" viewBox="0 0 627.05 805.91">
<g fill="#2e3436">
<g transform="translate(-76.019 -179.93)">
<path d="m90.688,609.53c-.5944-.004-1.1684,.007-1.75,.0312-3.8509,.1603-7.4141,.9618-10.656,2.5 9.0783,1.7106 25.929,25.262 46.188,52.562 9.7356-3.9176 18.769-5.308 25.781-2.8438-5.5527,7.0547-9.9785,13.411-13.5,19.219 5.289,6.9229 10.728,13.869 16.281,20.562 15.769-15.034 33.161-25.59 46.125-23.156-13.871,24.544-17.805,40.786-17.938,53.219 11.039,9.913 22.079,17.26 32.656,20.094 56.026,15.012 91.323-58.842 125.91-75.25-23.285-28.717-47.43,16.533-99.219,2.6562-49.99-13.39-112.44-69.32-149.88-69.59z"/>
<path d="m297.18,622.84c-13.836-38.2-3.244-106.82-26.532-120.11 6.1829,13.732-38.638,98.558-25.849,133.87 13.836,38.2 70.389,28.865 93.677,42.152 7.1608-24.887-28.507-20.599-41.296-55.909z"/>
<path d="m227,503.86c0,11.322-9.1782,20.5-20.5,20.5s-20.5-9.1782-20.5-20.5 9.1782-20.5 20.5-20.5 20.5,9.1782 20.5,20.5z" transform="matrix(1.2486 .33455 -.33455 1.2486 187.92 86.643)"/>
<path d="m352.56,675.03c-3.0259,.0371-6.3489,.7096-10.125,2.1562 21.746,31.501 15.38,113.08 71.406,128.09 13.21,3.5395 30.544,1.352 49.375-3.75-3.6638-10.125-10.393-22.289-22.562-37.75 15.195-5.3402 39.82,7.4472 60.719,24.75 9.9047-3.8869 19.73-8.0202 29.188-12.094-2.6459-6.5233-6.1671-13.812-10.812-22.031 9.5173-1.7866 21.422,3.4381 33.312,12.281 22.902-9.8386 41.073-16.972 48.031-14.531-21.75-31.5-118.07-8.05-174.1-23.07-46.12-12.36-49.8-54.36-74.44-54.06z"/>
<path d="m406.13,652.04c31.082-26.164 56.221-90.89 83.033-90.753-12.221,8.8011-15.817,104.67-44.548,128.86-31.082,26.164-75.391-10.197-102.2-10.334 6.242-25.133 34.987-3.5858 63.718-27.771z"/>
</g>
<g stroke="#000" transform="translate(-76.019 -179.93)">
<path stroke-width=".859" d="m181.03,229.16c-11.677,.1475-23.322,1.7287-34.531,4.9688-17.935,5.184-34.737,14.785-47.438,28.469-12.7,13.684-21.12,31.502-22.438,50.125-1.3179,18.623 4.7452,37.907 17.375,51.656 7.2642,7.9079 16.559,13.928 26.75,17.312 10.191,3.3845 21.261,4.1159 31.812,2.125 6.865-1.2953 13.485-3.7426 19.562-7.1875-3.3582,1.3667-6.8433,2.4215-10.406,3.0938-9.0591,1.7093-18.563,1.062-27.312-1.8438-8.749-2.9057-16.732-8.0858-22.969-14.875-10.843-11.804-16.038-28.324-14.906-44.312 1.1314-15.988 8.3465-31.314 19.25-43.062 10.903-11.748 25.352-19.987 40.75-24.438 15.398-4.4507 31.719-5.1971 47.625-3.2188 25.646,3.1899 50.254,13.431 71.25,28.5s38.426,34.881 51.688,57.062c26.524,44.363 36.056,97.254 35.438,148.94-1.2375,103.37-40.73,203.09-45.031,306.38-1.3874,33.315 .9273,66.785 6.875,99.594s24.553,126.15 17.625,87.938c-6.9277-38.215-9.616-77.196-8-116 5.0102-120.3 50.996-236.48 52.438-356.88 .7207-60.199-10.356-121.8-41.25-173.47-15.44-25.83-35.76-48.92-60.21-66.47-24.46-17.55-53.1-29.47-82.97-33.18-6.9474-.8641-13.963-1.3073-20.969-1.2188zm-8.91,147.46c5.1802-2.1082 10.043-4.9867 14.344-8.5625 6.2026-5.1572 11.231-11.715 14.625-19.031 .0233-.0503 .0393-.1059 .0625-.1562 1.8776-3.4676 2.8438-7.9728 2.8438-11.5 0-6.6274-5.3726-12-12-12s-12,5.3726-12,12 7.4351,16.781 14.062,16.781c.4142,0 .7992-.0489 1.1875-.125-3.6748,6.119-8.3862,11.624-13.875,16.188-2.8849,2.3987-5.9863,4.5562-9.25,6.4062z"/>
<path stroke-width=".751" d="m580.22,403.19c-22.338-.0722-44.701,3.2474-65.625,9.4062-27.899,8.2118-53.252,21.363-74.656,37.562-34.622,26.203-58.515,59.891-74.188,95.656 5.7406,6.556 11.184,13.757 16.344,21.594 .6842-2.2953 1.4084-4.5881 2.1562-6.875 12.658-38.711 35.31-76.278 72.062-104.09 18.376-13.908 40.141-25.231 64.094-32.281 23.952-7.0501 50.144-9.7802 75.5-7.0312 15.726,1.7049 31.158,5.5341 44.75,11.938 13.592,6.4034 25.267,15.422 32.688,26.375 7.4206,10.953 10.423,23.868 7.4062,36.031-3.0164,12.163-12.224,23.45-25.625,30.094-7.7078,3.8213-16.665,6.0808-25.781,6.5-9.1162,.4191-18.395-.974-26.625-4.0625-3.249-1.2193-6.3155-2.7372-9.1875-4.4375 4.9366,3.7956 10.66,6.9684 16.906,9.3125 9.5856,3.5974 20.351,5.2382 30.969,4.75 10.618-.4882 21.085-3.0804 30.062-7.5312 15.609-7.7385 26.362-20.926 29.875-35.094 3.5135-14.168-.0124-29.18-8.6562-41.938-8.6433-12.757-22.231-23.292-38.062-30.75-15.832-7.4585-33.808-11.92-52.125-13.906-7.3835-.8005-14.835-1.1947-22.281-1.2188zm13.312,116.38c-2.6394-2.0294-5.0484-4.2326-7.1875-6.5938-3.9488-4.3587-6.9536-9.2268-8.9062-14.344 .7795,.3425 1.5976,.5312 2.5,.5312 6.6274,0 14.062-10.154 14.062-16.781 0-6.6274-5.3726-12-12-12s-12,5.3726-12,12c0,3.8194 1.1109,8.7951 3.3125,12.344 1.5221,5.5882 4.4906,10.927 8.7188,15.594 3.1903,3.5215 7.0973,6.6435 11.5,9.25z"/>
</g>
<g transform="translate(-76.019 -179.93)">
<path d="m362.28,408.52c-4.9238-12.479-15.072-32.771-23.63-47.25-9.3308-15.786-31.456-45.797-41.842-56.755-30.864-32.563-65.9-46.941-99.949-41.016-19.04,3.3133-32.357,11.229-41.094,24.428-10.548,15.934-10.792,32.591-.6788,46.272 7.2196,9.7661 18.309,14.236 30.342,12.23 8.3682-1.3951 5.1402,.6701-3.7238,2.3825-20.993,4.0554-40.529-12.555-40.888-34.764-.3239-20.062 12.844-39.061 33.962-49.001 9.1623-4.3125 29.994-7.8337 41.074-6.9429 14.738,1.1848 29.119,5.1454 42.952,11.829 8.8365,4.2694 28.473,18.027 36.654,25.68 21.645,20.248 44.716,51.515 64.062,86.816l9.8246,17.928-1.3654,5.9417c-.751,3.2679-1.5855,7.0184-1.8545,8.3344-.401,1.9615-1.0938,.8601-3.8449-6.1125z"/>
<path d="m412.91,489.78c8.4956-8.3933 24.055-21.272 36.229-29.988 13.274-9.5028 42.08-25.992 54.478-31.183 36.841-15.426 70.544-14.542 96.144,2.5221 14.316,9.5424 22.316,20.776 24.687,34.666 2.8632,16.768-2.9251,30.422-16.079,37.929-9.3902,5.3586-20.028,5.0128-29.107-.9465-6.3138-4.1442-4.4272-1.3019 2.1764,3.2789 15.639,10.849 37.521,4.3432 45.796-13.615 7.4752-16.223 3.58-36.429-10.046-52.115-5.9119-6.8055-21.612-17.161-30.956-20.419-12.429-4.3326-25.565-6.2764-39.233-5.8055-8.7312,.3008-29.668,4.4469-39.083,7.7393-24.906,8.7105-54.935,25.882-83.379,47.678l-14.446,11.07-1.0237,5.3298c-.563,2.9314-1.2315,6.2858-1.4854,7.4543-.3785,1.7416 .5817,1.0936 5.3285-3.5961z"/>
</g>
<g stroke="#000" transform="translate(-76.019 -179.93)">
<path stroke-width=".566" d="m235.23,425.16c-7.6953,.0972-15.37,1.1393-22.757,3.2746-11.82,3.4165-22.893,9.7437-31.263,18.762-8.3698,9.0182-13.919,20.761-14.787,33.034-.8685,12.273 3.1273,24.982 11.451,34.043 4.7874,5.2116 10.913,9.179 17.629,11.41 6.7159,2.2305 14.012,2.7125 20.966,1.4004 4.5242-.8536 8.8873-2.4665 12.892-4.7368-2.2132,.9007-4.5099,1.5958-6.8581,2.0389-5.9702,1.1265-12.234,.6999-18-1.2151-5.7659-1.915-11.027-5.3288-15.137-9.8031-7.146-7.7792-10.569-18.667-9.8237-29.203 .7457-10.537 5.5006-20.637 12.686-28.38 7.1858-7.7425 16.708-13.172 26.856-16.105 10.148-2.9332 20.904-3.4251 31.386-2.1213 16.902,2.1022 33.119,8.8517 46.956,18.782 13.837,9.9308 25.324,22.988 34.064,37.606 17.48,29.236 23.762,64.094 23.354,98.155-.8156,68.122-26.842,133.84-29.677,201.91-.9144,21.955 .6112,44.014 4.5309,65.636 3.9197,21.622 16.181,83.138 11.615,57.954-4.5656-25.185-6.3373-50.875-5.2723-76.448 3.3019-79.284 33.608-155.85 34.558-235.19 .475-39.673-6.8247-80.268-27.185-114.32-10.18-17.027-23.569-32.238-39.686-43.805s-34.993-19.423-54.679-21.872c-4.5786-.5695-9.2019-.8615-13.819-.8032zm-5.8695,97.187c3.4139-1.3894 6.6187-3.2864 9.453-5.643 4.0877-3.3988 7.4018-7.7203 9.6384-12.542 .0154-.0332 .0259-.0698 .0412-.103 1.2374-2.2852 1.8741-5.2544 1.8741-7.5789 0-4.3677-3.5407-7.9084-7.9084-7.9084s-7.9084,3.5407-7.9084,7.9084 4.9,11.059 9.2676,11.059c.273,0 .5267-.0323 .7826-.0824-2.4218,4.0327-5.5268,7.6604-9.1441,10.668-1.9012,1.5808-3.9452,3.0027-6.096,4.2219z"/>
<path stroke-width=".369" d="m512.89,454.33c-2.0612-.9263-4.1748-1.7325-6.3157-2.4489-12.273-4.1072-25.6-4.8134-38.343-2.5494s-24.897,7.4409-35.686,14.591c-21.577,14.299-37.318,36.142-48.219,59.62-9.4982,20.456-15.547,42.162-21.061,64.091 3.7079,2.6834 7.3278,5.5397 10.844,8.5193 6.5006-25.933 12.162-52.152 23.388-76.33 9.359-20.156 22.877-38.904 41.402-51.181 9.2623-6.1382 19.721-10.576 30.661-12.519 10.94-1.9437 22.381-1.3494 32.918,2.1768 6.5352,2.1869 12.719,5.515 17.864,10.101 5.1443,4.5857 9.2177,10.466 11.264,17.047 2.0461,6.5807 1.9876,13.858-.5431,20.268s-7.6069,11.86-14.004,14.423c-3.6793,1.4744-7.7347,2.006-11.667,1.5078-3.9323-.4982-7.7476-2.0319-10.943-4.3772-1.2568-.9224-2.4057-1.967-3.4541-3.1206 1.7167,2.4645 3.8243,4.6443 6.2458,6.4215 3.7219,2.7317 8.1492,4.4954 12.729,5.0757 4.5802,.5803 9.2999-.0238 13.585-1.7411 7.451-2.9858 13.403-9.3417 16.35-16.808 2.9477-7.4661 2.9755-15.931 .5923-23.596s-7.0941-14.516-13.086-19.857c-3.745-3.3383-7.9779-6.1073-12.478-8.3332-.6751-.3339-1.3576-.6705-2.0446-.9793zm-21.894,59.817c-.9219-1.3236-1.7114-2.7397-2.3846-4.2056-1.2808-2.7891-2.0906-5.8084-2.3792-8.8637 .1365,.1016 .2774,.2113 .438,.2883 2.5699,1.2309 7.3429-1.3359 8.5738-3.9058s.1294-5.6461-2.4405-6.877-5.6359-.1507-6.8668,2.4192c-.6551,1.3677-1.14,3.2995-1.056,4.9928-.0003,.0238 .0225,.0391 .0222,.063-.0429,3.4675 .6782,6.952 2.1256,10.104 1.0036,2.1853 2.3503,4.2053 3.9675,5.9849z"/>
<path stroke-width=".335" d="m342.46,184.92c-1.8581,.8657-3.6646,1.8385-5.4258,2.8834-10.097,5.9898-18.483,14.719-24.485,24.809-6.0016,10.09-9.6547,21.503-11.144,33.148-2.978,23.29 2.6826,47.047 12.335,68.451 8.4103,18.649 19.724,35.672 31.508,52.46 4.0406-.9542 8.1476-1.7455 12.278-2.3927-13.947-19.839-28.589-39.271-38.529-61.314-8.287-18.376-13.141-38.772-10.584-58.767 1.2784-9.9977 4.4337-19.808 9.5863-28.471 5.1526-8.6625 12.344-16.163 21.012-21.306 5.3762-3.1894 11.328-5.4611 17.526-6.2734 6.1981-.8123 12.65-.1218 18.38,2.3756 5.7306,2.4974 10.691,6.8526 13.591,12.39 2.8996,5.5379 3.6307,12.254 1.5974,18.165-1.1695,3.3999-3.2092,6.4989-5.8828,8.9029-2.6736,2.4039-5.9887,4.1136-9.4933,4.9165-1.3784,.3158-2.7767,.4851-4.1902,.5207 2.7097,.2828 5.4556,.1285 8.1114-.4799 4.0821-.9352 7.9178-2.9285 11.032-5.7286 3.1141-2.8 5.4979-6.398 6.8601-10.358 2.3684-6.8851 1.5344-14.739-1.8429-21.19-3.3774-6.4504-9.1716-11.489-15.846-14.397-6.6748-2.9089-14.171-3.7372-21.39-2.7911-4.5121,.5914-8.9228,1.8552-13.119,3.6248-.6295,.2654-1.2652,.5343-1.8846,.8229zm28.08,50.497c-1.4552-.1519-2.8954-.4497-4.3008-.8568-2.674-.7746-5.2268-2.0089-7.4952-3.6225 .1506-.0335 .3095-.065 .4576-.1297 2.3688-1.0343 3.4369-5.8326 2.4026-8.2014s-3.799-3.4366-6.1678-2.4023-3.4452,3.7794-2.4109,6.1481c.5505,1.2607 1.589,2.739 2.8012,3.6853 .0161,.0143 .0402,.008 .0564,.0221 2.3548,2.0855 5.1744,3.6565 8.1962,4.5318 2.0952,.6069 4.2803,.8801 6.4608,.8252z"/>
</g>
<g transform="translate(-76.019 -179.93)">
<path d="m227,503.86c0,11.322-9.1782,20.5-20.5,20.5s-20.5-9.1782-20.5-20.5 9.1782-20.5 20.5-20.5 20.5,9.1782 20.5,20.5z" transform="matrix(.91882 .2462 -.2462 .91882 214.49 342.03)"/>
<path d="m227,503.86c0,11.322-9.1782,20.5-20.5,20.5s-20.5-9.1782-20.5-20.5 9.1782-20.5 20.5-20.5 20.5,9.1782 20.5,20.5z" transform="matrix(.63618 .17046 -.17046 .63618 256.7 546.09)"/>
<path d="m227,503.86c0,11.322-9.1782,20.5-20.5,20.5s-20.5-9.1782-20.5-20.5 9.1782-20.5 20.5-20.5 20.5,9.1782 20.5,20.5z" transform="matrix(.77748 .20833 -.20833 .77748 308.06 388.07)"/>
<path d="m227,503.86c0,11.322-9.1782,20.5-20.5,20.5s-20.5-9.1782-20.5-20.5 9.1782-20.5 20.5-20.5 20.5,9.1782 20.5,20.5z" transform="matrix(.53832 .14424 -.14424 .53832 327.77 580.73)"/>
</g>
</g>
</svg>
