<svg xmlns="http://www.w3.org/2000/svg" viewBox="0 0 550.22 943.94">
<g fill="#2e3436">
<g transform="translate(-152.87 -23.16)">
<path stroke="#2e3436" d="m161.57,333.05c143.29,122.95 211.11,355.46 233.74,573.63 3.1076,18.545 5.5613,36.984 7.2478,55.223l22.509-41.206c-27.96-225.74-118.19-480.49-271.7-599.99l8.2068,12.346z"/>
<path stroke="#000" d="m343.18,130.39c11.344,.4173 22.795-3.2933 31.739-10.284 8.9434-6.9911 15.309-17.208 17.643-28.317 2.3337-11.109 .6173-23.024-4.757-33.023-5.3744-9.9988-14.365-18.004-24.918-22.186-9.4262-3.7359-19.974-4.4288-29.895-2.3388-9.9218,2.09-19.204,6.9118-26.884,13.533-15.359,13.242-23.886,33.272-25.802,53.461-1.916,20.188 2.3049,40.562 9.1791,59.64s16.359,37.087 25.399,55.239c109.47,219.8 156.23,470.41 133.4,714.9l-44.805,35.583c50.339-248.52 17.656-513.11-91.641-741.91-9.551-19.994-19.692-39.779-27.067-60.674-7.3746-20.895-11.941-43.144-9.8928-65.207 2.0486-22.063 11.222-43.979 27.869-58.602 8.3234-7.3119 18.404-12.689 29.216-15.107s22.341-1.8214 32.702,2.1036c11.775,4.461 21.86,13.237 27.906,24.283 6.0452,11.046 8.0008,24.271 5.411,36.594-2.5897,12.323-9.7037,23.642-19.684,31.32-9.9802,7.6779-22.745,11.652-35.32,10.995"/>
<path d="m394.11,603.17c1.8386,8.2349 4.863,17.486 8.8946,26.561 5.8112,13.082 13.715,25.799 23.178,34.586l-1.2924,24.875c-4.5588-18.899-22.8-52.248-43.001-40.503-22.82-5.3621-47.302-7.891-66.878-22.002-9.7232-6.9076-17.961-15.797-25.738-24.783-16.33-22.259-22.986-51.137-18.243-78.304 52.734,52.513 102.37,3.9521 123.08,79.57z"/>
<path d="m326.91,307.95c3.8402,17.199 25.732,17.277 39.443,30.009l-1.1056,21.281c-3.9-16.168-21.622-31.39-36.787-34.65-19.522-4.5872-40.466-6.7507-57.214-18.823-8.3181-5.9094-15.366-13.514-22.019-21.202-13.97-19.042-19.665-43.747-15.606-66.988 45.113,44.924 99.012,20.536 93.289,90.373z"/>
<path d="m-312-284.91c0,12.703-10.297,23-23,23s-23-10.297-23-23 10.297-23 23-23 23,10.297 23,23z" transform="matrix(.48341 0 0 .48355 506.43 257.96)"/>
<path d="m510.4,482.17c-11.656-2.1298-23.674-2.0867-35.136,.3269 .8103,1.3838 1.5768,2.8074 2.3014,4.262 27.829-4.1162 57.72,6.5824 76.772,27.5 11.345,7.0284 2.0152,16.618 .8993,26.029-3.2226,12.566 10.263,19.474 20.62,21.005 28.277,5.6676 57.554,3.9874 85.589,11.349 15.839,2.7256 32.176,12.56 35.997,29.177 4.0163,10.062-3.6201,20.829 .2524,30.334 8.3166,10.153 4.3311-11.739 5.0526-15.398-1.6364-25.984-10.303-52.044-26.653-72.536-17.5-22.313-43.785-41.89-73.475-40.11-12.878-.3032-23.212,7.7643-32.656,15.459-4.6473-5.2586-9.0561-10.758-14.336-15.413-12.444-11.374-28.456-18.919-45.227-21.983z"/>
<path stroke="#2e3436" d="m560.11,226.84c-100.47,173.77-86.623,430.84-32.492,657.62 3.4139,19.694 7.4464,39.051 12.179,57.937l-37.1-33.4c-51.46-236.26-50.65-523.53 61.3-697.43l-3.886,15.272z"/>
<path stroke="#00484d" d="m519.52,292.34c-35.481-39.119-115.35,18.893-104.95,98.464-4.4022,5.1435 11.56,1.8514 1.8742-12.129-9.5735-73.287 145.05-24.078 112.23-81.365-.1613-.2815-2.9246-1.3113-3.095-1.598-.5395-.9076 .1016-1.0118 .8403-2.0563 6.7374-11.362 16.68-20.808 28.38-26.963s25.123-9.0002 38.312-8.1213c12.634,.8418 25.189,5.1898 34.892,13.304 9.7021,8.1143 16.318,20.14 16.813,32.772 .2829,7.2201-1.4131,14.509-4.851,20.871-3.438,6.3621-8.6086,11.781-14.805,15.522-6.4063,3.8683-14.099,5.9389-21.475,4.6842-3.6881-.6273-7.2488-2.0825-10.231-4.3358s-5.371-5.3133-6.6961-8.8054c-2.1438-5.6495-1.3078-12.336 2.162-17.292 3.4698-4.9554 9.4744-8.038 14.587-8.1936-7.3811-.2944-13.771,2.9848-17.464,8.2574-3.6929,5.2725-4.583,12.388-2.3019,18.4 1.4102,3.7164 3.9524,6.9727 7.1263,9.3704s6.9633,3.9459 10.888,4.6131c7.8499,1.3344 16.036-.87 22.853-4.9866 6.5927-3.9809 12.095-9.7457 15.754-16.515 3.6591-6.7689 5.465-14.524 5.1647-22.207-.5255-13.441-7.5677-26.237-17.893-34.87-10.325-8.6326-23.686-13.256-37.13-14.151-14.036-.9336-28.319,2.0942-40.77,8.6429s-23.033,16.598-30.206,28.687"/>
</g>
<g stroke="#2e3436" transform="translate(-152.87 -23.16)">
<path d="m594.76,631.23c-27.22,67.13-107.06,146.18-63.48,285.12l9.953,26.434c12.683,0 12.155-7.9279 12.155-7.9279-60.857-148.35 45.106-232.79 41.375-303.63z"/>
<path d="m544.26,657.84c-15.337,48.425-66.601,108.03-28.937,202.85l8.3194,17.95c8.8104-.6862 8.0218-6.2026 8.0218-6.2026-50.162-100.47 18.954-165.26 12.596-214.6z"/>
<path d="m272.38,678.19c44.128,57.447 142.16,112.35 137.19,257.88l-2.5466,28.13c-12.225,3.3809-13.828-4.4011-13.828-4.4011 19.11-159.2-105.53-212.34-120.81-281.61z"/>
</g>
</g>
</svg>
