<svg xmlns="http://www.w3.org/2000/svg" viewBox="0 0 500 450" xmlns:xlink="http://www.w3.org/1999/xlink">
<defs>
<filter color-interpolation-filters="sRGB" id="filter4220">
<feGaussianBlur stdDeviation="5.09867"/>
</filter>
<linearGradient id="linearGradient4279" y1="43.296" y2="545.54" x1="106.51" gradientUnits="userSpaceOnUse" x2="9.349">
<stop offset="0" stop-color="#e3b200"/>
<stop offset="1" stop-color="#a80"/>
</linearGradient>
<linearGradient id="linearGradient4281" y1="175.41" y2="163.92" x1="44.947" gradientUnits="userSpaceOnUse" x2="107.92">
<stop offset="0" stop-color="#d7f4e3"/>
<stop offset="1" stop-color="#d7f4e3" stop-opacity="0"/>
</linearGradient>
<linearGradient id="linearGradient4285" y1="-40.048" y2="479.08" x1="435.34" gradientUnits="userSpaceOnUse" x2="-168.67">
<stop offset="0" stop-color="#a80"/>
<stop offset="1" stop-color="#eeb534" stop-opacity="0"/>
</linearGradient>
<linearGradient id="linearGradient4287" y1="30.418" y2="285.08" x1="272.67" gradientUnits="userSpaceOnUse" x2="103.97">
<stop offset="0" stop-color="#eeb534"/>
<stop offset="1" stop-color="#eeb534" stop-opacity="0"/>
</linearGradient>
</defs>
<g transform="matrix(1.2075 0 0 1.2075 24.066 22.516)">
<path opacity=".5" filter="url(#filter4220)" d="m232.76,9.5847c-10.704-.0477-21.267,1.2659-31.312,4.25-1.3816,.4104-2.7576,.8512-4.125,1.3125-5.5774,.9861-11.004,2.4709-16.25,4.7188-1.744,.5054-3.5871,1.0665-5.4375,1.625l-4.6562-4.0312-5.1562,7.125c-14.017,4.5587-30.033,10.497-46.281,18.125-5.9968-1.9862-14.087-2.3136-17.656,1.0625-2.7012,2.5553-1.6887,5.1576-.6875,8.2812-18.313,10.136-36.033,22.573-50.469,37.75-3.6816,4.1666-7.1436,8.4959-10.406,12.969l-1.625-.2188 .4688,1.8438c-3.1524,4.425-6.0814,8.971-8.8125,13.656-1.2362,.6278-2.0502,1.2832-2.25,2-.1338,.4799-.0237,.9839 .25,1.5312-8.4834,15.342-14.742,31.918-18.437,49.219-3.0779,14.408-3.8206,42.873-1.5312,58.438 1.9834,13.484 6.9895,33.381 12.094,48.062 9.6016,27.617 22.728,44.492 37.219,47.906 3.8563,.9085 4.8662,1.1525 7.6562,.5625-.0821,.0477-.1677,.0767-.25,.125 1.8192-.3058 4.0223-.9205 6.4062-1.7188 1.0975-.3237 2.1583-.6889 3.2812-1.1562 .175-.0661 .3553-.1513 .5312-.2188 .1763-.0771 .3495-.1354 .5312-.2188 7.7155-3.0026 16.095-7.1526 19.625-9.4688 58.434-38.335 116.82-72.679 176.81-108.62 41.573-24.172 70.448-41.409 75.938-45.438 1.5573-1.1428 2.9338-2.2838 4.25-3.4062 3.7419-2.3316 7.4901-4.6368 11.25-7 8.3066-5.2209 6.6031-18.945 6.25-28.75-.5316-14.763-4.4963-30.115-12.5-42.531-11.709-18.165-28.192-34.299-47.094-45.25-5.734-3.6812-11.73-6.8924-17.906-9.5312-18.39-7.86-39.28-12.908-59.72-12.999z"/>
<path fill="#f1ca00" d="m58.343,324.32c-14.49-3.4139-27.596-20.295-37.198-47.912-5.1042-14.681-10.112-34.581-12.095-48.065-2.2893-15.565-1.5405-44.027 1.5374-58.435 6.4277-30.089 20.492-58.002 40.813-81 36.872-38.766 95.04-59.688 130.33-69.916 16.472-7.0578 34.62-6.6356 54.173-6.6508 16.561-.0129 29.316,1.9412 43.704,6.6958 11.691,3.863 29.673,12.121 34.634,15.905 1.7778,1.356 3.5143,2.4654 3.859,2.4654 1.411,0 10.52,7.5829 18.35,15.275 13.472,13.235 22.988,29.272 28.87,48.653 2.1129,6.9618 2.6188,10.731 2.6939,20.071 .0851,10.586-.1282,11.971-2.6847,17.43-3.7275,7.9594-8.3152,13.347-16.446,19.314-7.4864,5.4938-58.209,35.434-125.78,74.241-59.241,34.025-86.535,50.491-114.5,69.073-28.961,19.245-31.047,20.459-38.46,22.389-6.5991,1.7184-6.4978,1.7144-11.805,.464z"/>
<path fill="url(#linearGradient4279)" d="m235.91,17.344c-19.625,.0152-37.033-.2567-52.219,6.25a4.9916,4.9916 0 0,1 -.5938,.1875c-34.913,10.118-92.245,31.001-127.94,68.438-.0405,.0425-.0845,.0825-.125,.125-19.688,22.328-33.326,49.4-39.562,78.594-2.8316,13.255-3.608,42.144-1.4688,56.688 1.9103,12.988 6.8977,32.84 11.875,47.156 9.3465,26.883 22.055,41.962 33.625,44.688 5.338,1.2576 2.8099,1.2802 9.4062-.4375 3.5655-.9284 5.0632-1.3792 9.875-4.1875s12.587-7.9121 27.062-17.531c28.081-18.66 55.48-35.177 114.75-69.219 33.771-19.396 63.337-36.584 85.375-49.594 22.038-13.009 37.073-22.25 39.969-24.375 7.7011-5.6513 11.451-10.095 14.875-17.406 1.232-2.6308 1.6648-3.6693 1.9375-5.4375 .2727-1.7682 .3235-4.5864 .2812-9.8438-.0737-9.1621-.4647-11.95-2.5-18.656-5.68-18.69-14.73-33.894-27.6-46.54-3.81-3.744-7.98-7.499-11.28-10.25-1.651-1.3757-3.0983-2.5137-4.0938-3.2188-.3898-.2761-.6217-.415-.8125-.5312 .2056,.0699 .4752,.1562 1.3438,.1562-1.066,0-1.2672-.178-1.5625-.3125-.0886-.0403-.389-.0622-.4688-.0938-.3458-.1369-.5588-.2575-.7812-.375-.4449-.235-.8563-.4765-1.2812-.75-.8498-.5469-1.7982-1.219-2.7812-1.9688-1.5579-1.1883-7.4039-4.3886-13.844-7.3438-6.4399-2.9552-13.78-5.9427-19.344-7.7812-13.94-4.6065-25.957-6.45-42.125-6.4375z"/>
<path fill="#73cb2b" d="m39.362,101.66 14.268,1.9063 8.7698-2.8836 2.1583,9.2757 7.3867,1.3157s-1.2657,21.368 1.5678,16.157c2.8335-5.2111 12.834-7.8754 12.834-7.8754l1.3658,6.5942-15.229,10.624s-17.692,10.186-17.101,3.3048c.5905-6.8808 3.3567-15.279 3.3567-15.279l-4.1993-1.3831-3.1702-10.726-9.0565,.9272z"/>
<path fill="#549c1c" d="m25.01,250.46c9.596,7.1709 31.104-3.2068 33.764-11.255 2.6594-8.0477-9.2582-6.7408-8.7535-12.505 .5047-5.7642 11.398-8.0644 13.756-13.756 2.3573-5.6911-3.4656-12.589 0-17.507 3.4656-4.9177 11.253-3.9633 17.507-6.2525s9.5494,3.4742 20.008-7.503 5.9331-42.853 21.259-66.277c15.325-23.423 73.78-65.026 73.78-65.026s-53.192,15.546-65.026,8.7535c-11.834-6.7928-.9735-11.271-6.2525-15.006s-17.811-5.6945-22.509-1.2505c-4.6978,4.444 1.8576,9.0246 0,16.257-1.8576,7.2319-6.1822,16.397-13.756,25.01-7.5733,8.6126-22.33,18.068-32.513,23.76-10.183,5.6918-26.503,7.6385-27.511,11.255-1.008,3.616 11.345,8.9671 10.004,18.758-1.3407,9.7905-30.192,23.794-26.261,27.511 3.9314,3.7172 25.486-3.9527 31.263,7.503 5.7761,11.456-14.585,28.067-17.507,41.267-2.9218,13.199-10.846,29.094-1.2505,36.265z"/>
<path fill="#73cb2b" d="m67.654,228.06-4.033-13.818 1.5301-9.104-9.495-.737-2.413-7.1044s-20.933,4.4688-16.208,.8829 5.853-13.874 5.853-13.874l-6.7247-.3573-8.2099,16.656s-7.4055,19.024-.6921,17.404c6.7134-1.6199 14.6-5.6192 14.6-5.6192l1.9996,3.9432 11.081,1.5189 .4471,9.0928z"/>
</g>
<g fill="#456f00" transform="matrix(1.2075 0 0 1.2075 24.066 22.516)">
<path d="m69.365,221.22 6.8002-12.687 7.4689-5.4259-6.2605-7.1766 3.254-6.7607s-18.071-11.473-12.187-10.723c5.884,.7503 13.895-5.8024 13.895-5.8024l-4.5493-4.9652-17.526,6.1368s-18.61,8.3903-12.684,11.937c5.9261,3.5462 14.356,6.2157 14.356,6.2157l-1.3348,4.2149 6.8449,8.8457-6.0499,6.8028z"/>
<path d="m60.892,216.88-12.844,6.4987-9.2302,.1655 1.0169,9.4691-6.5413,3.675s8.2321,19.759 3.8405,15.772c-4.3916-3.9873-14.712-3.2093-14.712-3.2093l.8821,6.6762 17.879,5.0161s20.059,3.791 17.235-2.5114c-2.8237-6.3025-8.2014-13.322-8.2014-13.322l3.5095-2.6889-.5391-11.172 8.8566-2.1071z"/>
</g>
<g transform="matrix(1.2075 0 0 1.2075 24.066 22.516)">
<path fill="#5a3c08" d="m42.257,298.64c-.7405,7.478 5.2878,16.664 12.505,18.758 3.9428,1.1435 7.7837-2.8094 11.255-5.002 3.249-2.0525 5.1492-6.1697 8.7535-7.503 2.7366-1.0123 6.3702,1.6833 8.7535,0 11.2-7.9098 6.7931-26.954 13.756-38.766 14.695-24.931 42.951-40.023 57.523-65.026 7.1021-12.186 21.042-27.939 13.756-40.016-12.639-20.948-52.762-25.671-72.529-11.255-6.4781,4.7246-2.4672,15.845-3.7515,23.76-.4061,2.5028 .6841,5.8641-1.2505,7.503-5.0888,4.3109-14.128-3.147-20.008,0-2.6502,1.4183-4.131,4.6262-5.002,7.503-1.0871,3.5905 1.4356,7.7886 0,11.255-2.2559,5.4462-10.592,6.9292-12.505,12.505-1.0906,3.1787 2.3412,6.8253 1.2505,10.004-1.1479,3.3455-6.9364,4.0117-7.503,7.503-.5972,3.6801 5.2936,6.2872 5.002,10.004-.2805,3.5748-3.4838,6.475-6.2525,8.7535-3.889,3.2005-12.749,1.3174-13.756,6.2525-1.3555,6.6488 11.296,8.682 13.756,15.006 1.0578,2.7194-1.4145,6.2014 0,8.7535 1.9063,3.4394 9.559,2.3454 10.004,6.2525 .7338,6.4428-13.117,7.3027-13.756,13.756z"/>
</g>
<g fill="#2b1100" transform="matrix(1.2075 0 0 1.2075 24.066 22.516)">
<path d="m60.128,271.52c-.7674,1.9377-.7689,4.9205 .8842,6.1897 2.9434,2.2597 8.2921,1.153 11.053-1.3264 1.4629-1.3137 .3231-4.0566 1.3264-5.7476 .9055-1.5262 3.544-1.8165 3.9791-3.537 .4229-1.6723-.229-4.0852-1.7685-4.8633-2.3307-1.178-4.9302,2.5759-7.516,2.2106-1.9026-.2688-2.9429-3.0301-4.8633-3.0948-1.8455-.0622-4.7969,.8073-4.8633,2.6527-.0883,2.4512 6.0629,1.5296 6.1897,3.9791 .0975,1.8848-3.7263,1.7822-4.4212,3.537z"/>
<path d="m49.894,311.99c-.4614,5.0543 9.3361,4.4452 14.381,5.002 5.4219,.5984 11.722,1.1558 16.257-1.8758 1.7839-1.1926 1.704-4.0205 3.1263-5.6272 1.8789-2.1227 6.5282-2.1889 6.8778-5.002 .4015-3.2307-3.0819-6.7642-6.2525-7.503-3.9982-.9316-7.2919,3.929-11.255,5.002-3.6434,.9866-8.8804-1.684-11.255,1.2505-1.3174,1.6284 1.8017,4.5196 .6253,6.2525-.8522,1.2553-2.8945,.9261-4.3768,1.2505-2.6779,.5861-7.879-1.4794-8.1283,1.2505z"/>
<path d="m70.739,237.04c-4.2876,.6519-9.3401,.3757-12.821-2.2106-1.0581-.7861-2.1853-2.2864-1.7685-3.537 .4168-1.2505 2.4077-1.0886 3.537-1.7685 1.0861-.6539 1.8456-1.9949 3.0948-2.2106 2.1145-.3651 4.4766,3.0607 6.1897,1.7685 1.4119-1.065 .8345-3.7462 0-5.3054-.7522-1.4055-3.6664-1.0896-3.9791-2.6527-.2084-1.0421 .8803-2.0691 1.7685-2.6527 1.377-.9048 3.8569,.4204 4.8633-.8842 1.1737-1.5214-1.6481-4.2516-.4421-5.7476 2.7077-3.3588 9.0966-3.9453 12.821-1.7685 5.1981,3.0379 8.7593,11.168 6.6318,16.801-2.6318,6.9673-12.532,9.0493-19.895,10.169z"/>
</g>
<g transform="matrix(1.2075 0 0 1.2075 24.066 22.516)">
<path fill="#a05e00" d="m80.707,185.75c-5.2392,3.0901-2.9334,12.375-7.0938,16.812-1.8003,1.9201-5.8037,1.2198-7.0625,3.5312-1.2731,2.3377-1.2018,6.2724 .875,7.9375 2.0848,1.6716 5.3116-1.1582 7.9688-.875 3.7013,.3945 7.0697,4.7297 10.594,3.5312 2.0104-.6837 2.381-3.5168 3.5625-5.2812 2.3662-3.5336 3.9283-7.7506 7.0625-10.625 2.7209-2.4954 7.8356-2.1369 9.7188-5.3125 1.052-1.774 1.3092-4.5938 0-6.1875-1.9076-2.322-5.8727-1.2993-8.8438-1.75-5.5615-.8437-11.936-4.639-16.781-1.7812zm6.1875,36.25c-3.6964,1.0739-6.549,4.0497-9.75,6.1875-2.9848,1.9934-5.2619,5.6619-8.8125,6.1875-1.8443,.273-3.6308-2.555-5.3125-1.75-2.2687,1.0859-1.2936,4.9485-2.6562,7.0625-2.0352,3.1574-8.2417,4.2222-7.9688,7.9688 .2142,2.9401 4.1496,5.1315 7.0938,5.2812 3.4291,.1744 5.6743-6.6018 8.8438-5.2812 1.1194,.4664 .9237,2.3196 .875,3.5312-.1869,4.654-7.3112,9.5844-4.4375,13.25 2.1925,2.7966 7.478,.7757 10.625-.875 3.7099-1.946 5.885-6.0844 7.9688-9.7188 1.2541-2.1873 1.3203-4.9363 2.625-7.0938 2.0534-3.3955 5.1084-6.0935 7.9688-8.8438 3.3216-3.1938 9.6882-4.332 10.625-8.8438 .5361-2.5816-1.3171-5.6803-3.5625-7.0625-4.0095-2.4682-9.6036-1.3136-14.125,0zm12.375,36.25c-8.2911-2.1749-5.0221,17.387-11.5,23-2.8205,2.4441-7.0494,2.4617-10.625,3.5312-4.3791,1.3099-8.8941,4.9165-13.25,3.5312-6.5761-2.0913-11.764-9.1675-13.25-15.906-.9843-4.4636 6.6276-9.8877 3.5312-13.25-2.2298-2.4214-8.1772-1.1584-9.7188,1.75-2.7168,5.1257 6.7838,10.112 7.0625,15.906 .1345,2.7967-3.2995,5.2437-2.6562,7.9688 .7649,3.2402 4.9525,4.4872 7.0625,7.0625 3.3709,4.1141 4.4696,10.255 8.8438,13.281 3.2356,2.2382 7.8517,4.1289 11.5,2.6562 6.5212-2.6323 7.4703-11.924 11.5-17.688 3.3808-4.8353 8.6205-8.6072 10.625-14.156 2.0055-5.5519 6.5849-16.19 .875-17.688zm-12.375,.9062c-4.5531-1.519-7.0612,6.5036-10.625,9.7188-2.6296,2.3723-8.1805,3.5293-7.9375,7.0625 .2184,3.1762 4.9966,6.5322 7.9375,5.3125 1.3926-.5776-.1461-3.3283 .875-4.4375 2.9122-3.1633 10.145,.1257 12.406-3.5312 2.5196-4.0748 1.8884-12.609-2.6562-14.125z"/>
</g>
<g fill="#deaa87" transform="matrix(1.2075 0 0 1.2075 24.066 22.516)">
<path d="m79.139,201.23c-1.9058-.245-4.6536,1.1848-4.8633,3.0948-.2047,1.8646 4.1913,2.1154 3.9791,3.9791-.1573,1.3814-3.7012,.83-3.537,2.2106 .2753,2.3138 4.4277,2.9668 6.6318,2.2106 2.0104-.6898 3.7072-3.1868 3.537-5.3054-.2255-2.8065-2.955-5.8307-5.7475-6.1897z"/>
<path d="m79.16,289.65c.0409-2.5352 1.9605-5.5785 4.4212-6.1897 2.2387-.5561 5.2747,.9773 6.1897,3.0948 .6103,1.4124-.6042,3.0626-1.3264,4.4212-.9832,1.8495-2.4834,3.3969-3.9791,4.8633-1.8736,1.837-4.1564,6.5218-6.1897,4.8633-2.0429-1.6664 3.7008-4.4427 3.537-7.0739-.0991-1.591-2.6784-2.3852-2.6527-3.9791z"/>
</g>
<g transform="matrix(.59442 1.05106 -1.05106 .59442 283.07475 -46.22939)">
<path fill="#f8010a" d="m90.71,180.68-30.948,2.9962s-8.1403-8.2673-7.9581-13.483c.127-3.6356 6.1897-8.9886 6.1897-8.9886l16.801-3.7452h21.222l-7.9581,27.715z"/>
<path opacity=".325" fill="url(#linearGradient4281)" d="m82.062,160.41c-8.437,.7429-18.227,.3039-25.125,5.8125-2.9935,3.1656-2.0035,7.7802 .8438,10.594 1.4528,3.1864 4.9623,4.9632 8.1515,3.2463 7.013-.69 14.025-1.37 21.037-2.06 1.677-5.85 3.354-11.71 5.031-17.56-3.3123-.0624-6.6249-.0897-9.9375-.0312z"/>
</g>
<g transform="matrix(1.07919 -.54166 .54166 1.07919 -37.42231 33.11785)">
<path fill="#f8010a" d="m90.71,180.68-30.948,2.9962s-8.1403-8.2673-7.9581-13.483c.127-3.6356 6.1897-8.9886 6.1897-8.9886l16.801-3.7452h21.222l-7.9581,27.715z"/>
<path opacity=".325" fill="url(#linearGradient4281)" d="m82.062,160.41c-8.437,.7429-18.227,.3039-25.125,5.8125-2.9935,3.1656-2.0035,7.7802 .8438,10.594 1.4528,3.1864 4.9623,4.9632 8.1515,3.2463 7.013-.69 14.025-1.37 21.037-2.06 1.677-5.85 3.354-11.71 5.031-17.56-3.3123-.0624-6.6249-.0897-9.9375-.0312z"/>
</g>
<g transform="matrix(.22481 .90035 -.90035 .22481 227.80747 224.92923)">
<path fill="#ffe680" d="m-83.37,152.71 8.2065-4.5003s-6.7213-5.2433-6.0887-8.7359c.554-3.0588 7.35-2.2032 7.677-5.2945 .6763-6.3939-14.479-7.7222-13.236-14.03 1.1986-6.0832 13.967-2.2372 16.942-7.677 2.3532-4.3029 .0811-10.176-2.1178-14.56-1.5666-3.1233-7.3837-3.9182-7.4123-7.4123-.0312-3.8066 7.9418-8.2065 7.9418-8.2065l-14.825-1.3236s-5.615,5.0942-5.5592,8.4712c.0175,5.7369 15.704,13.567 15.089,16.413-1.7424,6.2509-18.14,1.6923-20.384,8.7359-2.1037,6.6044 12.967,11.135 10.854,17.737-1.1696,3.6525-10.576,.6651-10.589,4.5003-.0102,2.8851 6.0522,1.2611 7.9418,3.4414 2.7404,6.4658 1.1111,7.2526 5.5592,12.442z"/>
<path fill="#febe14" d="m-85.465,151.71 8.2065-4.5003s-6.7213-5.2433-6.0887-8.7359c.554-3.0588 7.35-2.2032 7.677-5.2945 .6763-6.3939-14.479-7.7222-13.236-14.03 1.1986-6.0832 13.967-2.2372 16.942-7.677 2.3532-4.3029 .0811-10.176-2.1178-14.56-1.5666-3.1233-7.3837-3.9182-7.4123-7.4123-.0312-3.8066 7.9418-8.2065 7.9418-8.2065l-14.825-1.3236s-5.615,5.0942-5.5592,8.4712c.0175,5.7369 15.704,13.567 15.089,16.413-1.7424,6.2509-18.14,1.6923-20.384,8.7359-2.1037,6.6044 12.967,11.135 10.854,17.737-1.1696,3.6525-10.576,.6651-10.589,4.5003-.0102,2.8851 6.0522,1.2611 7.9418,3.4414 2.7404,6.4658 1.1111,7.2526 5.5592,12.442z"/>
<path fill="#ffd42a" d="m-87.219,82.281c-3.6542,1.1692-6.6435,7.3583-2.4062,9.9062 3.8541,4.6188 11.564,6.5731 12.719,13-3.1444,8.2381-14.166,3.5359-19.75,7.9688-2.773,4.797 4.8587,6.6146 6.75,9.9375 3.5487,2.7659 5.5948,9.5274 .4062,11.625-1.7645,1.2574-5.595,.3761-6.3438,1 4.3031-.1882 8.0116,2.6017 8.1875,7 .2703,3.2117 2.26,8.82 6.1562,4.875 1.9967-2.2551-3.3506-3.6452-3.375-6.0938-1.8074-3.7922 1.6275-7.8223 5.5625-7.5312 3.3131-1.0426 .2814-4.0991-1.8682-4.5586-4.2845-2.2831-12.374-6.6437-8.7568-12.566 3.4929-6.385 14.392-.797 16.75-8.0312 1.0301-6.6678-2.9044-12.927-8.8438-15.656-3.0645-3.3501-.3946-8.2324 2.6875-10.5-2.6134-.2599-5.2465-.4863-7.875-.375z"/>
</g>
<g transform="matrix(1.2075 0 0 1.2075 24.066 22.516)">
<path fill="#456f00" d="m84.556,138.98-6.8002-12.687-7.4689-5.4259 6.2605-7.1766-3.254-6.7607s18.071-11.473 12.187-10.723c-5.884,.7503-13.895-5.8024-13.895-5.8024l4.5493-4.9652 17.526,6.1368s18.61,8.3903 12.684,11.937c-5.9261,3.5462-14.356,6.2157-14.356,6.2157l1.3348,4.2149-6.8449,8.8457 6.0499,6.8028z"/>
<path fill="#73cb2b" d="m60.128,96.869 12.687-6.8002 5.4259-7.4689 7.1766,6.2605 6.7607-3.254s11.473,18.071 10.723,12.187c-.7503-5.884 5.8024-13.895 5.8024-13.895l4.9652,4.5493-6.1368,17.526s-8.3903,18.61-11.937,12.684c-3.5462-5.9261-6.2157-14.356-6.2157-14.356l-4.2149,1.3348-8.8457-6.8449-6.8028,6.0499z"/>
<path fill="#456f00" d="m114.69,102.84-6.8002-12.687-7.4689-5.4259 6.2605-7.1766-3.254-6.7607s18.071-11.473 12.187-10.723c-5.884,.7503-13.895-5.8024-13.895-5.8024l4.5493-4.9652 17.526,6.1368s18.61,8.3903 12.684,11.937c-5.9261,3.5462-14.356,6.2157-14.356,6.2157l1.3348,4.2149-6.8449,8.8457 6.0499,6.8028z"/>
<path fill="#f8010a" d="m90.71,180.68-30.948,2.9962s-8.1403-8.2673-7.9581-13.483c.127-3.6356 6.1897-8.9886 6.1897-8.9886l16.801-3.7452h21.222l-7.9581,27.715z"/>
<path fill="#4e8a11" d="m153.54,30.839 12.687-6.8002 5.4259-7.4689 7.1766,6.2605 6.7607-3.254s11.473,18.071 10.723,12.187c-.7503-5.884 5.8024-13.895 5.8024-13.895l4.9652,4.5493-6.1368,17.526s-8.3903,18.61-11.937,12.684c-3.5462-5.9261-6.2157-14.356-6.2157-14.356l-4.2149,1.3348-8.8457-6.8449-6.8028,6.0499z"/>
</g>
<g transform="matrix(.66066 .65169 -.65169 .66066 276.36105 124.33361)">
<path fill="#ffe680" d="m-83.37,152.71 8.2065-4.5003s-6.7213-5.2433-6.0887-8.7359c.554-3.0588 7.35-2.2032 7.677-5.2945 .6763-6.3939-14.479-7.7222-13.236-14.03 1.1986-6.0832 13.967-2.2372 16.942-7.677 2.3532-4.3029 .0811-10.176-2.1178-14.56-1.5666-3.1233-7.3837-3.9182-7.4123-7.4123-.0312-3.8066 7.9418-8.2065 7.9418-8.2065l-14.825-1.3236s-5.615,5.0942-5.5592,8.4712c.0175,5.7369 15.704,13.567 15.089,16.413-1.7424,6.2509-18.14,1.6923-20.384,8.7359-2.1037,6.6044 12.967,11.135 10.854,17.737-1.1696,3.6525-10.576,.6651-10.589,4.5003-.0102,2.8851 6.0522,1.2611 7.9418,3.4414 2.7404,6.4658 1.1111,7.2526 5.5592,12.442z"/>
<path fill="#febe14" d="m-85.465,151.71 8.2065-4.5003s-6.7213-5.2433-6.0887-8.7359c.554-3.0588 7.35-2.2032 7.677-5.2945 .6763-6.3939-14.479-7.7222-13.236-14.03 1.1986-6.0832 13.967-2.2372 16.942-7.677 2.3532-4.3029 .0811-10.176-2.1178-14.56-1.5666-3.1233-7.3837-3.9182-7.4123-7.4123-.0312-3.8066 7.9418-8.2065 7.9418-8.2065l-14.825-1.3236s-5.615,5.0942-5.5592,8.4712c.0175,5.7369 15.704,13.567 15.089,16.413-1.7424,6.2509-18.14,1.6923-20.384,8.7359-2.1037,6.6044 12.967,11.135 10.854,17.737-1.1696,3.6525-10.576,.6651-10.589,4.5003-.0102,2.8851 6.0522,1.2611 7.9418,3.4414 2.7404,6.4658 1.1111,7.2526 5.5592,12.442z"/>
<path fill="#ffd42a" d="m-87.219,82.281c-3.6542,1.1692-6.6435,7.3583-2.4062,9.9062 3.8541,4.6188 11.564,6.5731 12.719,13-3.1444,8.2381-14.166,3.5359-19.75,7.9688-2.773,4.797 4.8587,6.6146 6.75,9.9375 3.5487,2.7659 5.5948,9.5274 .4062,11.625-1.7645,1.2574-5.595,.3761-6.3438,1 4.3031-.1882 8.0116,2.6017 8.1875,7 .2703,3.2117 2.26,8.82 6.1562,4.875 1.9967-2.2551-3.3506-3.6452-3.375-6.0938-1.8074-3.7922 1.6275-7.8223 5.5625-7.5312 3.3131-1.0426 .2814-4.0991-1.8682-4.5586-4.2845-2.2831-12.374-6.6437-8.7568-12.566 3.4929-6.385 14.392-.797 16.75-8.0312 1.0301-6.6678-2.9044-12.927-8.8438-15.656-3.0645-3.3501-.3946-8.2324 2.6875-10.5-2.6134-.2599-5.2465-.4863-7.875-.375z"/>
</g>
<g transform="matrix(.331 .86695 -.86695 .331 296.01915 135.76139)">
<path fill="#ffe680" d="m-83.37,152.71 8.2065-4.5003s-6.7213-5.2433-6.0887-8.7359c.554-3.0588 7.35-2.2032 7.677-5.2945 .6763-6.3939-14.479-7.7222-13.236-14.03 1.1986-6.0832 13.967-2.2372 16.942-7.677 2.3532-4.3029 .0811-10.176-2.1178-14.56-1.5666-3.1233-7.3837-3.9182-7.4123-7.4123-.0312-3.8066 7.9418-8.2065 7.9418-8.2065l-14.825-1.3236s-5.615,5.0942-5.5592,8.4712c.0175,5.7369 15.704,13.567 15.089,16.413-1.7424,6.2509-18.14,1.6923-20.384,8.7359-2.1037,6.6044 12.967,11.135 10.854,17.737-1.1696,3.6525-10.576,.6651-10.589,4.5003-.0102,2.8851 6.0522,1.2611 7.9418,3.4414 2.7404,6.4658 1.1111,7.2526 5.5592,12.442z"/>
<path fill="#febe14" d="m-85.465,151.71 8.2065-4.5003s-6.7213-5.2433-6.0887-8.7359c.554-3.0588 7.35-2.2032 7.677-5.2945 .6763-6.3939-14.479-7.7222-13.236-14.03 1.1986-6.0832 13.967-2.2372 16.942-7.677 2.3532-4.3029 .0811-10.176-2.1178-14.56-1.5666-3.1233-7.3837-3.9182-7.4123-7.4123-.0312-3.8066 7.9418-8.2065 7.9418-8.2065l-14.825-1.3236s-5.615,5.0942-5.5592,8.4712c.0175,5.7369 15.704,13.567 15.089,16.413-1.7424,6.2509-18.14,1.6923-20.384,8.7359-2.1037,6.6044 12.967,11.135 10.854,17.737-1.1696,3.6525-10.576,.6651-10.589,4.5003-.0102,2.8851 6.0522,1.2611 7.9418,3.4414 2.7404,6.4658 1.1111,7.2526 5.5592,12.442z"/>
<path fill="#ffd42a" d="m-87.219,82.281c-3.6542,1.1692-6.6435,7.3583-2.4062,9.9062 3.8541,4.6188 11.564,6.5731 12.719,13-3.1444,8.2381-14.166,3.5359-19.75,7.9688-2.773,4.797 4.8587,6.6146 6.75,9.9375 3.5487,2.7659 5.5948,9.5274 .4062,11.625-1.7645,1.2574-5.595,.3761-6.3438,1 4.3031-.1882 8.0116,2.6017 8.1875,7 .2703,3.2117 2.26,8.82 6.1562,4.875 1.9967-2.2551-3.3506-3.6452-3.375-6.0938-1.8074-3.7922 1.6275-7.8223 5.5625-7.5312 3.3131-1.0426 .2814-4.0991-1.8682-4.5586-4.2845-2.2831-12.374-6.6437-8.7568-12.566 3.4929-6.385 14.392-.797 16.75-8.0312 1.0301-6.6678-2.9044-12.927-8.8438-15.656-3.0645-3.3501-.3946-8.2324 2.6875-10.5-2.6134-.2599-5.2465-.4863-7.875-.375z"/>
</g>
<g transform="matrix(1.2075 0 0 1.2075 24.066 22.516)">
<path fill="#f1ca00" d="m33.03,297.95s14.649,17.408 25.01,19.383c6.6087,1.2599 15.23-.3342 19.383-5.6273 24.337-31.018-1.2618-79.247 5.002-118.17 6.0584-37.649 10.138-78.297 31.263-110.04 20.884-31.386 52.273-59.794 88.411-70.529 29.223-8.6809 63.002-3.2243 91.036,8.7535 24.297,10.381 45.709,29.563 60.024,51.772 8.0037,12.417 11.973,27.754 12.505,42.517 .3531,9.8048 2.0541,23.541-6.2525,28.762-93.11,58.522-180.57,106.93-268.23,164.44-10.151,6.6593-27.236,16.634-39.703,10.629-8.1984-3.9486-18.445-21.884-18.445-21.884z"/>
<path fill="url(#linearGradient4285)" d="m308.28,48.294c-.2301-.0126-.4658,.0101-.7188,.0625-4.6845,.0746-5.8083,5.3571-4.5938,8.9062-.6657,2.3469-5.4994,3.9722-2.0312,6.3125 .8027-.257-.0528-4.8721 2.875-4.0938 2.0804,.345 5.1413,4.9939 5.3438,.5938-.2116-2.9114-6.0151-.2326-5.7188-4.125-.5678-3.2214 3.8609-7.1968 6.1562-3.5938 1.2035,3.3204 2.9303,1.189 1.8125-.9688-.4592-1.4338-1.5144-3.0054-3.125-3.0938zm-97.625,2.9062c-.2024,.0141-.4004,.0359-.5938,.0625-4.361,.36-5.4317,5.3274-4.125,8.7188-.978,2.1456-5.6854,4.9061-1.6562,6.5625-1.2051-2.9672 2.1222-5.7482 4.375-3.25 1.4283,2.7966 4.1819,1.4637 3.2812-1.1562-1.7336-1.2032-6.0545-.2255-5.625-3.7812-.2643-3.7431 5.0179-6.6736 6.7812-2.375 2.5219,3.2643 1.4815-4.1846-.6875-4.4375-.514-.3404-1.1427-.386-1.75-.3438zm-67.188,10.625c-.2024,.0141-.4317,.0359-.625,.0625-4.361,.36-5.4317,5.3274-4.125,8.7188-.978,2.1456-5.6854,4.9061-1.6562,6.5625-1.2051-2.9672 2.1222-5.7482 4.375-3.25 1.4283,2.7966 4.1819,1.4637 3.2812-1.1562-1.7336-1.2032-6.0545-.2255-5.625-3.7812-.2643-3.7431 5.0179-6.6736 6.7812-2.375 2.5219,3.2643 1.4815-4.1846-.6875-4.4375-.514-.3404-1.1114-.386-1.7188-.3438zm189.22,21.219c-.2024,.0141-.4004,.0359-.5938,.0625-4.361,.36-5.4317,5.3274-4.125,8.7188-.978,2.1456-5.6854,4.9061-1.6562,6.5625-1.2051-2.9672 2.1222-5.7482 4.375-3.25 1.4283,2.7966 4.1819,1.4637 3.2812-1.1562-1.7336-1.2032-6.0545-.2255-5.625-3.7812-.2643-3.7431 5.0179-6.6736 6.7812-2.375 2.5219,3.2643 1.4815-4.1846-.6875-4.4375-.514-.3404-1.1427-.386-1.75-.3438zm-91.094,4.4062c-.2024,.0141-.4004,.0672-.5938,.0938-4.361,.36-5.4317,5.3274-4.125,8.7188-.978,2.1456-5.6854,4.9061-1.6562,6.5625-1.2051-2.9672 2.1222-5.7482 4.375-3.25 1.4283,2.7965 4.1819,1.4637 3.2812-1.1562-1.7336-1.2032-6.0545-.2255-5.625-3.7812-.2643-3.7431 5.0179-6.6736 6.7812-2.375 2.5219,3.2643 1.4815-4.1846-.6875-4.4375-.514-.3404-1.1427-.4172-1.75-.375zm26.125,9.875c-1.4552,.0234-3.0171,.611-4.125,1.4062-1.5308,1.0988-2.2151,3.2539-2.4375,5.125-.1248,1.0502 .8816,2.0604 .6562,3.0938-.4056,1.8596-3.5083,2.6952-3.375,4.5938 .1033,1.4713 1.6621,3.5422 3.0938,3.1875 1.3906-.3446-.0744-3.5084 1.2188-4.125 1.8851-.8988 3.9181,3.3184 5.7812,2.375 1.3436-.6803 1.7916-3.0405 1.0938-4.375-.8656-1.6552-4.565-.2622-5.25-2-.6391-1.6214 .6303-4.2629 2.3125-4.7188 1.8807-.5096 3.227,4.3376 4.8438,3.25 2.0208-1.3594 .5348-5.7275-1.4375-7.1562-.6627-.4801-1.5019-.6703-2.375-.6562zm-67.156,15.562c-5.8256-.005-6.7534,8.4292-3.125,11.219 .4962,3.195 6.9095,2.681 3.875-.5625-3.6843,.0679-7.1315-3.5223-3.9062-6.6875 2.1963-2.785 5.7882,.1424 6.8438,1.6562 1.0766-2.334-1.0633-5.8277-3.6875-5.625zm-42.969,1.0938c-.2024,.0141-.4004,.0359-.5938,.0625-4.361,.36-5.4317,5.3274-4.125,8.7188-.978,2.1456-5.6854,4.9061-1.6562,6.5625-1.2051-2.9672 2.1222-5.7482 4.375-3.25 1.4283,2.7966 4.1819,1.4637 3.2812-1.1562-1.7336-1.2032-6.0545-.2255-5.625-3.7812-.2643-3.7431 5.0179-6.6736 6.7812-2.375 2.5219,3.2643 1.4815-4.1846-.6875-4.4375-.514-.3404-1.1427-.386-1.75-.3438zm160.72,2.5938c-1.4552,.0234-3.0171,.6422-4.125,1.4375-1.5308,1.0988-2.2151,3.2226-2.4375,5.0938-.1248,1.0502 .8816,2.0917 .6562,3.125-.4056,1.8596-3.5083,2.6952-3.375,4.5938 .1033,1.4714 1.6621,3.511 3.0938,3.1562 1.3906-.3446-.0744-3.5084 1.2188-4.125 1.8851-.8988 3.9181,3.3496 5.7812,2.4062 1.3436-.6803 1.7916-3.0718 1.0938-4.4062-.8656-1.6552-4.565-.2622-5.25-2-.6391-1.6214 .6303-4.2317 2.3125-4.6875 1.8807-.5096 3.227,4.3376 4.8438,3.25 2.0208-1.3594 .5348-5.7275-1.4375-7.1562-.6627-.4801-1.5019-.7015-2.375-.6875zm-124.06,6.7812c-2.13,.616-1.954,6.0357 .125,4.375 .2085-1.3398-.058-3.4542-.125-4.375zm68.25,10.438c-1.4552,.0234-3.0171,.611-4.125,1.4062-1.5308,1.0988-2.1838,3.2539-2.4062,5.125-.1248,1.0502 .8504,2.0604 .625,3.0938-.4056,1.8596-3.5083,2.6952-3.375,4.5938 .1033,1.4714 1.6621,3.5422 3.0938,3.1875 1.3906-.3446-.0744-3.5084 1.2188-4.125 1.8851-.8988 3.9181,3.3184 5.7812,2.375 1.3436-.6803 1.7916-3.0405 1.0938-4.375-.8656-1.6552-4.565-.2622-5.25-2-.6391-1.6214 .6303-4.2629 2.3125-4.7188 1.8807-.5096 3.2582,4.3376 4.875,3.25 2.0208-1.3594 .5036-5.7275-1.4688-7.1562-.6627-.4801-1.5019-.6703-2.375-.6562zm-147.34,5.8438c-.2024,.0141-.4004,.0359-.5938,.0625-4.361,.36-5.4317,5.3274-4.125,8.7188-.978,2.1456-5.6854,4.9061-1.6562,6.5625-1.2051-2.9672 2.1222-5.7482 4.375-3.25 1.4283,2.7966 4.1819,1.4637 3.2812-1.1562-1.7336-1.2032-6.0545-.2255-5.625-3.7812-.2643-3.7431 5.0179-6.6736 6.7812-2.375 2.5219,3.2643 1.4815-4.1846-.6875-4.4375-.514-.3404-1.1427-.386-1.75-.3438zm226.38,0c-.2024,.0141-.4004,.0359-.5938,.0625-4.361,.36-5.4317,5.3274-4.125,8.7188-.978,2.1456-5.6854,4.9061-1.6562,6.5625-1.2051-2.9672 2.1222-5.7482 4.375-3.25 1.4283,2.7966 4.1819,1.4637 3.2812-1.1562-1.7336-1.2032-6.0545-.2255-5.625-3.7812-.2643-3.7431 5.0179-6.6736 6.7812-2.375 2.5219,3.2643 1.4815-4.1846-.6875-4.4375-.514-.3404-1.1427-.386-1.75-.3438zm-138.91,10.375c-.2095-.006-.4191,.009-.625,.0312-4.5061,.088-5.9989,5.1874-4.5312,8.75-.516,2.4601-5.5145,3.9122-2.2188,6.4062 1.3675,.4138-.2879-4.224 2.3438-4.0312 2.4833-.398 5.8756,5.4167 5.9688,.375-.745-2.4277-6.8883-.377-5.6562-4.8125 .008-3.6412 5.0759-5.9598 6.7188-1.9375 2.3958,3.3055 1.5724-3.714-.2812-4.1562-.4688-.4385-1.0902-.6078-1.7188-.625zm90.25,5.5312c-.2024,.0141-.4004,.0359-.5938,.0625-4.361,.36-5.4317,5.3274-4.125,8.7188-.978,2.1456-5.6854,4.9061-1.6562,6.5625-1.2051-2.9672 2.1222-5.7482 4.375-3.25 1.4283,2.7966 4.1819,1.4637 3.2812-1.1562-1.7336-1.2032-6.0545-.2255-5.625-3.7812-.2643-3.7431 5.0179-6.6736 6.7812-2.375 2.5219,3.2643 1.4815-4.1846-.6875-4.4375-.514-.3404-1.1427-.386-1.75-.3438zm-188.16,23.688c-4.2813,2.1251 1.1684,4.3352 1.6875,6.8438-1.5663,3.5392 .1591,8.5044 4.5938,8.5625 .9772,.1182 1.9777-.1349 2.5938-.9375 1.584-.7881 2.2382-6.9921-.0312-3.8438-1.4027,3.536-6.0385,2.2744-6.5625-1.125-1.4772-3.6232 2.6186-4.7652 5.25-4.75 1.3102-2.6024-1.5843-4.4757-3.125-1.4375-2.3411,2.49-5.5604-.3275-4.4062-3.3125zm105.56,2.4062c-1.4552,.0234-3.0483,.611-4.1562,1.4062-1.5308,1.0988-2.1838,3.2539-2.4062,5.125-.1248,1.0502 .8817,2.0604 .6562,3.0938-.4056,1.8596-3.5396,2.6952-3.4062,4.5938 .1033,1.4713 1.6621,3.511 3.0938,3.1562 1.3906-.3446-.0744-3.5084 1.2188-4.125 1.8851-.8988 3.9493,3.3496 5.8125,2.4062 1.3436-.6803 1.7604-3.0405 1.0625-4.375-.8656-1.6552-4.5338-.2622-5.2188-2-.6391-1.6214 .5991-4.2629 2.2812-4.7188 1.8807-.5096 3.2582,4.3376 4.875,3.25 2.0208-1.3594 .5035-5.7275-1.4688-7.1562-.6627-.4801-1.4707-.6703-2.3438-.6562zm-64.25,1.9375c-.8731-.014-1.7123,.2074-2.375,.6875-1.9723,1.4288-3.4583,5.7969-1.4375,7.1562 1.6168,1.0876 2.963-3.7596 4.8438-3.25 1.6822,.4558 2.9516,3.0661 2.3125,4.6875-.685,1.7378-4.3844,.3448-5.25,2-.6979,1.3345-.2498,3.726 1.0938,4.4062 1.8632,.9434 3.8962-3.305 5.7812-2.4062 1.2932,.6165-.1718,3.7804 1.2188,4.125 1.4317,.3547 2.9904-1.6849 3.0938-3.1562 .1333-1.8986-2.9694-2.7342-3.375-4.5938-.2254-1.0333 .7811-2.0748 .6562-3.125-.2224-1.8711-.9067-3.995-2.4375-5.0938-1.1079-.7953-2.6698-1.4141-4.125-1.4375zm124.62,3.3438c-1.4552,.0234-3.0171,.611-4.125,1.4062-1.5308,1.0988-2.2151,3.2539-2.4375,5.125-.1248,1.0502 .8816,2.0604 .6562,3.0938-.4056,1.8596-3.5083,2.6952-3.375,4.5938 .1033,1.4713 1.6621,3.511 3.0938,3.1562 1.3906-.3446-.0744-3.5084 1.2188-4.125 1.8851-.8988 3.9181,3.3496 5.7812,2.4062 1.3436-.6803 1.7916-3.0405 1.0938-4.375-.8656-1.6552-4.565-.2622-5.25-2-.6391-1.6214 .6303-4.2629 2.3125-4.7188 1.8807-.5096 3.227,4.3376 4.8438,3.25 2.0208-1.3594 .5348-5.7275-1.4375-7.1562-.6627-.4801-1.5019-.6703-2.375-.6562zm-60,28.75c-.2024,.0141-.4004,.0359-.5938,.0625-4.361,.36-5.4317,5.3274-4.125,8.7188-.978,2.1456-5.6854,4.9061-1.6562,6.5625-1.2051-2.9672 2.1222-5.7482 4.375-3.25 1.4283,2.7966 4.1819,1.4637 3.2812-1.1562-1.7336-1.2032-6.0545-.2255-5.625-3.7812-.2643-3.7431 5.0179-6.6736 6.7812-2.375 2.5219,3.2643 1.4815-4.1846-.6875-4.4375-.514-.3404-1.1427-.386-1.75-.3438zm-109.66,2.6562c-.2024,.0141-.4004,.0359-.5938,.0625-4.361,.36-5.4317,5.3274-4.125,8.7188-.978,2.1456-5.6854,4.9061-1.6562,6.5625-1.2051-2.9672 2.1222-5.7482 4.375-3.25 1.4283,2.7966 4.1819,1.4637 3.2813-1.1562-1.7336-1.2032-6.0545-.2255-5.625-3.7812-.2643-3.7431 5.0179-6.6736 6.7813-2.375 2.5219,3.2643 1.4815-4.1846-.6875-4.4375-.514-.3404-1.1427-.386-1.75-.3438zm56.469,20.125c-1.4552,.0234-3.0171,.611-4.125,1.4062-1.5308,1.0988-2.2151,3.2539-2.4375,5.125-.1248,1.0502 .8817,2.0604 .6562,3.0938-.4056,1.8595-3.5083,2.6952-3.375,4.5938 .1033,1.4713 1.6621,3.5422 3.0938,3.1875 1.3906-.3446-.0744-3.5084 1.2188-4.125 1.8851-.8988 3.9181,3.3184 5.7812,2.375 1.3435-.6803 1.7916-3.0405 1.0938-4.375-.8656-1.6552-4.565-.2622-5.25-2-.6391-1.6214 .6303-4.2317 2.3125-4.6875 1.8807-.5096 3.227,4.3064 4.8438,3.2188 2.0208-1.3594 .5348-5.7275-1.4375-7.1562-.6627-.4801-1.5019-.6703-2.375-.6562zm-49.375,23.219c-.2024,.0141-.4004,.0359-.5938,.0625-4.361,.36-5.4317,5.3274-4.125,8.7188-.978,2.1456-5.6854,4.9061-1.6562,6.5625-1.2051-2.9672 2.1222-5.7482 4.375-3.25 1.4283,2.7966 4.1819,1.4637 3.2812-1.1562-1.7336-1.2032-6.0545-.2255-5.625-3.7812-.2643-3.7431 5.0179-6.6736 6.7812-2.375 2.5219,3.2643 1.4815-4.1846-.6875-4.4375-.514-.3404-1.1427-.386-1.75-.3438z"/>
</g>
<g fill="#a05e00" transform="matrix(1.2075 0 0 1.2075 24.066 22.516)">
<path d="m41.892,248.34c-1.4276,1.2211-.7724,4.0936 .3126,5.6273 .7824,1.1059 2.3968,1.5631 3.7515,1.5631s2.9603-.4634 3.7515-1.5631c.8542-1.1873 .7664-2.9863 .3126-4.3768-.5506-1.687-1.7486-4.6047-3.4389-4.0641-1.1952,.3823 .6952,3.0038-.3126,3.7515-1.1983,.889-3.2429-1.9077-4.3768-.9379z"/>
<path d="m53.459,213.33c-1.4276,1.2211-.7724,4.0936 .3126,5.6273 .7824,1.1059 2.4299,1.8609 3.7515,1.5631 1.3677-.3081 1.6552-2.3365 2.8136-3.1262 1.4713-1.0031 4.6573-.1287 5.002-1.8758 .3854-1.9532-2.3859-4.0486-4.3768-4.0641-1.4019-.0109-2.397,.5763-3.1263,2.8136-.4624,1.4186-3.2429-1.9077-4.3768-.9379z"/>
<path d="m55.96,273.98c-1.4276,1.2211-.7724,4.0936 .3126,5.6273 .7824,1.1059 2.4299,1.8609 3.7515,1.5631 1.3677-.3081 1.6552-2.3365 2.8136-3.1262 1.4713-1.0031 4.6573-.1287 5.002-1.8758 .3854-1.9532-2.3859-4.0486-4.3768-4.0641-1.4019-.0109-2.397,.5763-3.1263,2.8136-.4624,1.4186-3.2429-1.9077-4.3768-.9379z"/>
<path d="m50.02,305.24c-1.4276,1.2211-.7724,4.0936 .3126,5.6273 .7824,1.1059 2.4299,1.8609 3.7515,1.5631 1.3677-.3081 1.6552-2.3365 2.8136-3.1262 1.4713-1.0031 4.6573-.1287 5.002-1.8758 .3854-1.9532-2.3859-4.0486-4.3768-4.0641-1.4019-.0109-2.397,.5763-3.1263,2.8136-.4624,1.4186-3.2429-1.9077-4.3768-.9379z"/>
<path d="m66.589,181.75c-1.4276,1.2211-.7724,4.0936 .3126,5.6273 .7824,1.1059 2.4299,1.8609 3.7515,1.5631 1.3677-.3081 1.6552-2.3365 2.8136-3.1262 1.4713-1.0031 4.6573-.1287 5.002-1.8758 .3854-1.9532-2.3859-4.0486-4.3768-4.0641-1.4019-.0109-2.397,.5763-3.1263,2.8136-.4624,1.4186-3.2429-1.9077-4.3768-.9379z"/>
</g>
<g transform="matrix(1.2075 0 0 1.2075 24.066 22.516)">
<path fill="url(#linearGradient4287)" d="m235.47,11.719c-9.7077,.184-19.274,1.5372-28.406,4.25-36.14,10.735-67.52,39.145-88.4,70.531-21.128,31.75-25.227,72.38-31.285,110.03-6.2638,38.925 19.337,87.169-5,118.19-4.9268,4.8674-10.445,6.6787-16.618,10.302 8.426-1.42 24.998-9.28 30.368-12.8 87.665-57.51 175.14-105.95 268.26-164.47 8.3066-5.2209 6.6031-18.945 6.25-28.75-.5316-14.763-4.4963-30.115-12.5-42.531-14.315-22.208-35.734-41.369-60.031-51.75-19.273-8.2347-41.268-13.405-62.625-13z"/>
</g>
<g fill="#d38d5f" transform="matrix(1.2075 0 0 1.2075 24.066 22.516)">
<path d="m63.281,274.12c-1.0798,2.0764-3.7717,4.7396-5.9062,2.0312-1.0868,1.2492 2.1122,4.7897 3.0938,1.75 .8465-2.1282 3.5745-2.7866 5.1875-2.5312-.6125-.6299-1.4653-1.3342-2.375-1.25z"/>
<path d="m48.062,250.19c-1.0756,1.9385-4.3048,.7402-4.9688,1.0312 .3819,3.4918 6.8042,3.214 4.9688-1.0312zm-1.9688,3.4375c-.0429,.0577 .1036,.0325 0,0z"/>
</g>
<g transform="matrix(1.2075 0 0 1.2075 24.066 22.516)">
<path fill="#deaa87" d="m75.602,242.34c-1.9058-.245-4.6536,1.1848-4.8633,3.0948-.2047,1.8646 4.1913,2.1154 3.9791,3.9791-.1573,1.3814-3.7012,.83-3.537,2.2106 .2753,2.3138 4.4277,2.9668 6.6318,2.2106 2.0104-.6898 3.7072-3.1868 3.537-5.3054-.2255-2.8065-2.955-5.8307-5.7475-6.1897z"/>
<path fill="#4c6e00" d="m13.13,165.81h15.631l11.88,3.2505 4.3768,5.503s3.0168-.1561 3.7515-1.2505c1.7464-2.6013 1.4613-7.0414-.6253-9.3788-3.1035-3.4766-13.756-2.501-13.756-2.501z"/>
<path fill="#73cb2b" d="m35.37,152.15 9.7266-10.611 2.6527-8.8424 8.8424,3.537 5.3054-5.3054s16.801,13.264 14.148,7.9581c-2.6527-5.3054 .8842-15.032 .8842-15.032l6.1897,2.6527v18.569s-1.7685,20.337-7.0739,15.916c-5.3054-4.4212-10.611-11.495-10.611-11.495l-3.537,2.6527-10.611-3.537-4.4212,7.9582z"/>
<path opacity=".364" fill="#d5ffd5" d="m62.031,136.28c-2.2434,1.686-4.8865,5.7786-8.0312,2.875-1.7998-1.6251-5.5578-1.7572-4.6562,1.5312-.4087,4.4381-4.5269,7.1297-7.4062,10.031 1.5135,1.341 3.3943,1.8689 3.4375-.6562 1.8367-4.5715 8.256-6.7323 11.844-3.0312 4.8029,.1414 11.52-2.3972 14.159,3.3151 1.7561,1.4915 3.7317,5.8253 5.529,5.3412 1.6005-4.0718 2.5698-10.186 2.1875-13.438-4.4615,4.3002-10.561-1.0756-13.969-4.4062-.9428-.5542-1.8592-1.7915-3.0938-1.5625z"/>
<path opacity=".325" fill="url(#linearGradient4281)" d="m82.062,160.41c-8.437,.7429-18.227,.3039-25.125,5.8125-2.9935,3.1656-2.0035,7.7802 .8438,10.594 1.4528,3.1864 4.9623,4.9632 8.1515,3.2463 7.013-.69 14.025-1.37 21.037-2.06 1.677-5.85 3.354-11.71 5.031-17.56-3.3123-.0624-6.6249-.0897-9.9375-.0312z"/>
</g>
</svg>
