<svg xmlns="http://www.w3.org/2000/svg" viewBox="0 0 559.86 444.12" xmlns:xlink="http://www.w3.org/1999/xlink">
<defs>
<filter width="1.539" x="-.27" y="-.135" height="1.27" id="filter4350">
<feGaussianBlur stdDeviation="1.87566"/>
</filter>
<filter width="1.252" x="-.126" y="-.315" height="1.631" id="filter4135">
<feGaussianBlur stdDeviation=".92688"/>
</filter>
<filter width="1.513" x="-.257" y="-.513" height="2.026" id="filter4390">
<feGaussianBlur stdDeviation=".21551"/>
</filter>
<filter width="1.717" x="-.359" y="-.468" height="1.935" id="filter4121">
<feGaussianBlur stdDeviation="2.83167"/>
</filter>
<filter id="filter3514">
<feGaussianBlur stdDeviation=".9483"/>
</filter>
<filter width="1.226" x="-.113" y="-.446" height="1.891" id="filter4376">
<feGaussianBlur stdDeviation="2.49406"/>
</filter>
<filter width="1.076" x="-.038" y="-.143" height="1.286" id="filter4360">
<feGaussianBlur stdDeviation=".86075"/>
</filter>
<filter width="1.256" x="-.128" y="-.302" height="1.604" id="filter4421">
<feGaussianBlur stdDeviation="17.91512"/>
</filter>
<filter id="filter3123">
<feGaussianBlur stdDeviation=".2497"/>
</filter>
<filter width="1.163" x="-.081" y="-.228" height="1.456" id="filter4398">
<feGaussianBlur stdDeviation="12.30007"/>
</filter>
<filter width="1.331" x="-.166" y="-.435" height="1.869" id="filter3228">
<feGaussianBlur stdDeviation="1.29083"/>
</filter>
<filter width="1.143" x="-.072" y="-.145" height="1.29" id="filter3153">
<feGaussianBlur stdDeviation=".5476"/>
</filter>
<filter id="filter3207">
<feGaussianBlur stdDeviation=".1385"/>
</filter>
<filter width="1.171" x="-.086" y="-.462" height="1.924" id="filter3201">
<feGaussianBlur stdDeviation=".83275"/>
</filter>
<filter width="1.368" x="-.184" y="-.564" height="2.128" id="filter3185">
<feGaussianBlur stdDeviation="1.6749"/>
</filter>
<filter width="1.183" x="-.091" y="-.398" height="1.795" id="filter3197">
<feGaussianBlur stdDeviation=".83275"/>
</filter>
<filter width="1.385" x="-.192" y="-.651" height="2.301" id="filter3189">
<feGaussianBlur stdDeviation="1.6749"/>
</filter>
<filter width="1.076" x="-.038" y="-.144" height="1.289" id="filter4366">
<feGaussianBlur stdDeviation=".84815"/>
</filter>
<filter width="1.77" x="-.385" y="-.338" height="1.676" id="filter3170">
<feGaussianBlur stdDeviation="1.77118"/>
</filter>
<filter width="1.225" x="-.112" y="-.084" height="1.168" id="filter4410">
<feGaussianBlur stdDeviation=".81449"/>
</filter>
<filter width="1.305" x="-.152" y="-.563" height="2.127" id="filter3182">
<feGaussianBlur stdDeviation="9.55895"/>
</filter>
<filter width="1.375" x="-.187" y="-.173" height="1.347" id="filter3050">
<feGaussianBlur stdDeviation="5.7467"/>
</filter>
<filter id="filter2980">
<feGaussianBlur stdDeviation="1.24171"/>
</filter>
<filter id="filter2944">
<feGaussianBlur stdDeviation="1.50317"/>
</filter>
<filter width="1.794" x="-.397" y="-.055" height="1.109" id="filter2966">
<feGaussianBlur stdDeviation="1.49072"/>
</filter>
<filter id="filter2948">
<feGaussianBlur stdDeviation=".69297"/>
</filter>
<filter width="1.837" x="-.418" y="-.316" height="1.632" id="filter3164">
<feGaussianBlur stdDeviation="1.97744"/>
</filter>
<filter width="1.229" x="-.114" y="-.291" height="1.582" id="filter4505">
<feGaussianBlur stdDeviation="2.63015"/>
</filter>
<filter id="filter3009">
<feGaussianBlur stdDeviation="1.28131"/>
</filter>
<filter width="1.54" x="-.27" y="-.135" height="1.27" id="filter4289">
<feGaussianBlur stdDeviation="1.44112"/>
</filter>
<filter width="1.265" x="-.133" y="-.11" height="1.219" id="filter4309">
<feGaussianBlur stdDeviation="1.62985"/>
</filter>
<filter width="1.645" x="-.323" y="-.041" height="1.081" id="filter3049">
<feGaussianBlur stdDeviation="1.3173"/>
</filter>
<filter width="1.504" x="-.252" y="-.371" height="1.741" id="filter3689">
<feGaussianBlur stdDeviation="2.12431"/>
</filter>
<filter width="1.318" x="-.159" y="-.487" height="1.975" id="filter3070">
<feGaussianBlur stdDeviation="3.64654"/>
</filter>
<filter id="filter3650">
<feGaussianBlur stdDeviation=".79468"/>
</filter>
<linearGradient gradientTransform="translate(-3.326 -3.326)" id="linearGradient3659" y1="36.363" x1="480.33" y2="-7.518" gradientUnits="userSpaceOnUse" x2="509.58">
<stop offset="0" stop-color="#fff"/>
<stop offset="1" stop-color="#fff" stop-opacity="0"/>
</linearGradient>
<linearGradient gradientTransform="translate(-3.326 -3.326)" id="linearGradient3657" y1="36.363" x1="475.07" y2="-7.993" gradientUnits="userSpaceOnUse" x2="500.37">
<stop offset="0" stop-color="#fff"/>
<stop offset=".512" stop-color="#fff" stop-opacity=".726"/>
<stop offset="1" stop-color="#fff" stop-opacity="0"/>
</linearGradient>
<linearGradient gradientTransform="matrix(.98157 .19111 -.90577 .42377 -1.3439 0)" id="linearGradient3655" y1="-429.65" x1="133.85" y2="-394.78" gradientUnits="userSpaceOnUse" x2="133.29">
<stop offset="0" stop-color="#e8d51b"/>
<stop offset="1" stop-color="#7c720c"/>
</linearGradient>
</defs>
<g transform="translate(-794.18 159.13)">
<path opacity=".665" filter="url(#filter4421)" d="m1011.5,255.14c-65.63-14.73-130.81-32.06-194.35-54.14-20.24-6.28-12.61-33.8-18.17-49.87 69.67-15.98 185.14-46.13 333.92-32.25 1.9,22.83 2.6,46.47-3.3,68.72-3.2,15.66-18.8,2.57-29.1,8.56-3.7,3.78-17.9,9.06-21.5,13.69 6.6,6.57 37,16.43 12.5,18.4-21.3,2.53-36.2,14.41-51,27.63-9.3,3.99-19.5,.69-29-.74zm39.1-25.11c-3.9,1.21 2.8,9.06 0,0zm24.7-28.51c-3.9,1.21 2.8,9.06 0,0z"/>
</g>
<g transform="translate(-210.857 597.059)">
<path stroke="#000" fill-rule="evenodd" d="m539.59-271.91l6.72-1.34-.68,8.06-6.04-6.72z"/>
</g>
<g transform="translate(-201.784 264.45)">
<path fill="#e0d033" d="m464.74,117.51c0-.25 .88-6.16 1.95-13.13 1.08-6.973 2.36-15.642 2.85-19.264 1.01-7.426 3.12-10.507 7.91-11.53 1.63-.349 3.43-1.007 4-1.462 1.16-.93 9.13-3.861 9.45-3.477 .12,.136 .51,1.215 .87,2.396 39.82,33.087 55.55,8.955 1.07,27.763-4.89,1.724-12.21,4.504-13.6,4.154-3.15-.79-7.28,3.63-9.04,9.68-1.04,3.56-1.87,4.79-3.42,5.02-1.12,.17-2.04,.1-2.04-.15zm72.78-58.621h-2.02c-1.86,0-2.02,.037-2.02,.475 0,.445-.16,.475-2.49,.475-2.34,0-2.5,.03-2.5,.475 0,.423-.16,.475-1.42,.475-.98,.089-1.53-.394-2.02-.95-1.33-.769-2.51-1.426-3.45-2.494 0-.258 .86-.861 1.54-.861l1.31-.684 3.09-.475 2.02-.475 2.02-.447 2.02-.615 2.02-.475 5.23-.771c1.25-.124 1.61-.188 1.66-.187 .56,.367 1.1,.766 1.57,1.307 .26,0 .33,.547 .33,2.613 0,2.133-.06,2.614-.35,2.614-.27,0-.36,.432-.41,1.96l-.07,1.96c-.15,4.577-2.23,1.733-5.99,2.41l-.07-6.33z"/>
</g>
<g stroke="#111">
<g transform="translate(-119.488 509.81)">
<path fill="url(#linearGradient3655)" stroke-linecap="round" stroke-width="1.515" d="m340.6-204.42s278.36,53.51 316.3,61.3c-17.15,27.28-54.07,25.3-54.07,25.3l-316.3-61.3 54.07-25.3z"/>
</g>
<g fill="none" stroke-width="1.5" transform="translate(-200.201 265.82)">
<path d="m736.68,101.28s-10.96,11.05-13.52,12.57"/>
<path d="m732.31,100.45s-10.96,11.04-13.51,12.56"/>
<path d="m727.94,99.607s-10.96,11.043-13.51,12.573"/>
<path d="m723.58,98.768s-10.97,11.042-13.52,12.572"/>
<path d="m719.21,97.93s-10.97,11.05-13.52,12.57"/>
<path d="m714.84,97.091s-10.97,11.049-13.52,12.569"/>
<path d="m710.47,96.253s-10.96,11.047-13.52,12.567"/>
<path d="m706.1,95.414s-10.96,11.046-13.52,12.566"/>
<path d="m701.73,94.576s-10.96,11.044-13.52,12.564"/>
<path d="m697.36,93.737s-10.96,11.043-13.52,12.573"/>
<path d="m692.99,92.899s-10.96,11.041-13.52,12.571"/>
<path d="m688.62,92.06s-10.96,11.05-13.52,12.57"/>
<path d="m684.25,91.222s-10.96,11.048-13.52,12.568"/>
<path d="m679.88,90.383s-10.96,11.047-13.52,12.567"/>
<path d="m675.51,89.545s-10.96,11.045-13.52,12.565"/>
<path d="m671.14,88.706s-10.96,11.046-13.52,12.574"/>
<path d="m666.77,87.868s-10.96,11.045-13.52,12.572"/>
<path d="m662.4,87.029s-10.96,11.046-13.52,12.569"/>
<path d="m658.03,86.191s-10.96,11.045-13.52,12.569"/>
<path d="m653.66,85.352s-10.96,11.046-13.52,12.569"/>
<path d="m649.29,84.514s-10.96,11.045-13.52,12.569"/>
<path d="m644.92,83.675s-10.96,11.046-13.52,12.569"/>
<path d="m640.55,82.837s-10.96,11.045-13.51,12.569"/>
<path d="m636.19,81.998s-10.97,11.046-13.52,12.569"/>
<path d="m631.82,81.16s-16.51,15.245-19.07,16.768"/>
<path d="m627.45,80.321s-10.97,11.046-13.52,12.569"/>
<path d="m623.08,79.483s-10.96,11.045-13.52,12.569"/>
<path d="m618.71,78.644s-10.96,11.046-13.52,12.569"/>
<path d="m614.34,77.806s-10.96,11.045-13.52,12.569"/>
<path d="m609.97,76.967s-14.49,14.405-17.05,15.929"/>
<path d="m605.6,76.129s-10.96,11.045-13.52,12.569"/>
<path d="m601.23,75.29s-10.96,11.046-13.52,12.569"/>
<path d="m596.86,74.452s-10.96,11.045-13.52,12.569"/>
<path d="m592.49,73.613s-10.96,11.046-13.52,12.569"/>
<path d="m588.12,72.775s-15.66,14.405-18.22,15.928"/>
<path d="m583.75,71.936s-10.96,11.046-13.52,12.569"/>
<path d="m579.38,71.098s-10.96,11.045-13.52,12.569"/>
<path d="m575.01,70.259s-10.96,11.046-13.52,12.569"/>
<path d="m570.64,69.421s-10.96,11.045-13.52,12.569"/>
<path d="m566.27,68.582s-14.28,14.49-16.84,16.014"/>
<path d="m561.9,67.744s-10.96,11.045-13.52,12.569"/>
<path d="m557.53,66.905s-10.96,11.046-13.52,12.569"/>
<path d="m553.16,66.067s-10.96,11.045-13.51,12.569"/>
<path d="m548.79,65.228s-10.96,11.046-13.51,12.569"/>
<path d="m544.43,64.39s-14.53,13.421-17.09,14.944"/>
<path d="m540.06,63.551s-10.97,11.046-13.52,12.569"/>
<path d="m535.69,62.713s-10.97,11.045-13.52,12.569"/>
<path d="m531.32,61.874s-10.96,11.046-13.52,12.569"/>
<path d="m526.95,61.036s-10.96,11.045-13.52,12.569"/>
<path d="m522.58,60.197s-14.76,13.184-17.32,14.707"/>
<path d="m518.21,59.359s-10.96,11.045-13.52,12.569"/>
<path d="m513.84,58.52s-10.96,11.046-13.52,12.569"/>
</g>
</g>
<g stroke="#0c0c0c" transform="translate(-199.7411 265.7939)">
<path d="m289.24-189.1c-25.34,.01-47.1,18.47-58.32,39.99-16.41,34.64-11.67,76.691 5.09,110.32 12.66,23.229 32.17,43.019 55.48,55.817 5.01,2.648 12.27,4.639 16.16-1.031 3.4,6.267 10.51,9.106 17.4,8.219 27.45,.376 53.56-17.679 63.53-43.063 14.71-34.732 9.51-75.737-7.22-108.75-15.26-28.79-41.72-52.92-73.81-60.81-6.06-.87-12.2-.73-18.31-.69z"/>
<path fill="#441b00" d="m361.87-264.9c-.7,.01-1.83,.16-3.41,.4-3.12,.49-10.76,1.27-17,1.72-6.23,.46-11.97,1.31-12.75,1.91s-8.76,2.84-17.72,4.97c-8.96,2.12-18.59,4.41-21.4,5.09-2.82,.68-7.35,2.75-10.07,4.6-6.43,4.36-24.43,14.93-31.28,18.37-7.04,3.54-7.23,7.06-13.87,13.22-9.17,14.76-9.27,4.84-12.63,21.09 0,.52-2.24,4.03-5,7.78-3.26,4.45-5.69,9.97-6.97,15.79-1.07,4.91-3.38,14.6-5.12,21.53-3.69,14.67-3.2,16.26 5.91,18.9 5.58,1.62 6.42,1.58 8.06-.65 1.01-1.38 2.18-4.12 2.59-6.07 1.89-7.94 5.76-15.28 9.16-22.65 .71-1.17 1.87-3.41 2.56-4.97 1.1-2.49 14.97-16.91 22.75-23.66 7.52-6.52 23.26-11.67 40.25-13.15 8.16-.72 10.41-1.52 14.16-5.03 2.45-2.31 5.42-4.19 6.59-4.19 3.8-.01 18.89,6.24 29.03,12 12.78,7.26 46.03,40.16 46.03,45.53 0,1.08 .57,1.97 1.25,1.97 .69,0 2.07,1.97 3.07,4.37 .99,2.41 2.52,5.13 3.4,6.03 2.07,2.14 9.28,17 9.28,19.13 0,.9 1.29,4.03 2.85,6.94 1.55,2.9 3.24,7.51 3.75,10.25s1.82,6.357 2.9,8.028c1.16,1.776 1.61,4.5 1.1,6.562-.49,1.94 .11,6.473 1.34,10.094 4.28,12.611 5.6,64.945 1.88,74.531-.46,1.1691-2.8,8.4293-5.22,16.157-4.46,14.228-7.87,22.643-10.53,26.125-.81,1.052-1.6,2.744-1.75,3.781-.53,3.601-20.55,27.249-25.19,29.75-4.21,2.267-5.7,2.329-15.16,.719-14.88-2.534-23.55-3.28-27.28-2.344-5.66,1.422-9.64,6.052-10.47,12.219-.75,5.64-.91,5.78-5.19,4.937-9.47-1.868-38.77-11.148-47.25-14.969-3.3-1.489-6.58-2.718-7.31-2.718-.72,0-3.1-.911-5.31-2.032s-10.4-3.819-18.19-5.968c-7.79-2.15-15.59-4.802-17.34-5.907-3.36-2.119-3.7-1.573-2.28,3.719 .54,2.04 3.07,4.241 6.72,5.875 12.86,5.77 66.14,22.744 89.4,28.469 6.24,1.534 12.6,3.332 14.16,4 3.86,1.654 20.66,5.922 31.87,8.092 5.07,.98 15.29,3.47 22.69,5.56 7.4,2.1 18.25,4.78 24.09,5.94 5.85,1.16 16.37,3.24 23.38,4.63 4.38,.59 8.89,.74 13.5,.56l9.04-1.3 5.28-5.94 1.05-17.011 3.88-23.281 22.06-9v2.344c.19-.065 .49-.157 .53-.157 .28,0 .03,1.247-.53,2.813v2l29.03-10 1-8.031 23.07-2-.07,.437c2.72-.571 2.94-3.541 4.82-20.875 2.09-19.362 2.06-32.441-.1-43.406-.94-4.811-1.44-14.103-1.09-20.656 .52-9.903 1.39-13.419 5.22-20.907 4.1-8.03 4.55-10.072 4.15-18.812l-2.68-21.438c2.01-.652-4.19-16.94-4.97-22.19-.5-3.35-1.72-8-2.69-10.34-2.17-5.24-5.43-13.71-8.28-21.41-1.19-3.2-5.35-12.43-9.25-20.53-21.32-44.31-52.67-74.35-94.28-90.37-16.6-6.39-28.7-7.61-47.89-7.33-9.9,.14-12.76-.2-17.06,.24-1.21,.12-7.12,.1-8.27,.12zm91.4,30.4c9.7-.01 12.99,.57 17.13,2.6 6.73,3.3 23.21,19.31 32.16,31.22 30.39,44.87 40.03,65.97 50.15,123-.5,2.651-2.02,5.766-3.37,6.934-3.27,2.83-23.76,12.643-25.32,12.125-3.35,.65-4.84,2.003-20.34,4.188-15.21,.7-17.32,.524-19.91-1.813-3.87-3.51-6.3-9.096-9.9-22.625-2.93-10.993-7.93-26.429-14.19-43.909-5.11-14.27-17.77-39.76-26.22-52.81-4.4-6.8-14.32-18.81-22.03-26.69-7.71-7.87-14-15.25-14-16.4s1.43-2.76 3.19-3.6c11.59-5.51 18.07-7.9 23.03-8.53 3.12-.4 6.44-1.32 7.37-2.06 .94-.74 8.89-1.47 17.69-1.59 1.67-.03 3.18-.03 4.56-.04zm59.57,280.78c.09-.031 .2,.168 .31,.594 .36,1.364 .36,3.605 0,4.969-.36,1.363-.63,.227-.63-2.5 0-1.875 .11-2.993 .32-3.063zm3.59,11.563c.07,.073-.37,.658-1.25,1.781-1.85,2.36-3,3.104-3,1.938 0-.295 1.11-1.4 2.47-2.469 1.12-.881 1.71-1.323 1.78-1.25z"/>
</g>
<g transform="translate(125.4189 -239.4661)">
<path fill="#e4d54a" stroke="#0c0c0c" d="m-106.85,563.2c1.46-1.46 1.48-4.82 .06-10.92-1.13-4.85-3.92-24.14-6.19-42.88-2.28-18.73-5.91-46.9-8.07-62.59-4.32-31.34-5.2-63.61-1.79-65.72 1.18-.73 1.65-2.58 1.06-4.12-1.27-3.33-.23-3.5 4.8-.81 6.25,3.35 9.63,.23 14-12.91 5.424-16.29 13.098-28.21 24.805-38.51 12.714-11.19 24.378-16.33 42.883-18.88 10.85-1.49 16.854-3.4 20.019-6.35 4.407-4.1 4.787-4.12 15.027-.88 17.714,5.6 35.07,17.35 51.344,34.75 24.626,26.33 37.987,52.7 47.556,93.88 4.876,21 5.066,68.72 .338,85.32-6.145,21.56-15.61,41.09-25.696,53.01-12.699,15.02-17.83,17.79-29.786,16.07-26.263-3.77-29.02-3.7-34.753,.82-3.3033,2.61-5.5102,6.3-5.5102,9.22 0,3.43-1.1137,4.86-3.783,4.86-4.5324,0-27.264-6.61-65.242-18.96-15.373-5-28.852-9.09-29.953-9.09l-11.119-5.31zm132.86-34.83c28.298-10.59 45.362-40.06 45.362-78.36 0-51.24-27.065-96.27-70.125-116.69-11.146-5.28-15.333-6.17-29.052-6.2-13.479-.02-17.825,.86-27.331,5.52-12.489,6.12-25.256,18.73-31.641,31.25-15.219,29.83-13.117,73.67 5.233,109.05 9.291,17.91 32.842,42.15 49.088,50.52 11.021,5.68 11.503,5.75 15.371,2.24 3.876-3.5 4.094-3.46 7.3863,1.57 2.9481,4.5 4.7961,5.18 14.107,5.18 5.8927,0 15.614-1.84 21.602-4.08z"/>
<g fill="none">
<path filter="url(#filter2944)" stroke="#0c0c0c" stroke-width="1.5" d="m-9.78,301.31c1.8618-.11 4.4284,.66 9.3782,2.23 17.126,5.42 33.905,16.78 49.637,33.6 23.807,25.45 36.723,50.95 45.975,90.76 4.718,20.3 4.9,66.43 .327,82.48-5.941,20.84-15.091,39.72-24.842,51.25-12.276,14.52-17.237,17.2-28.795,15.54-25.39-3.65-28.056-3.59-33.598,.79-3.1935,2.52-5.327,6.09-5.327,8.91 0,3.31-1.0767,4.7-3.6572,4.7"/>
<path filter="url(#filter2948)" stroke="#fcfafa" stroke-width="3" d="m-118.89,381.78c-.64-1.03 1.4-1.25 4.88-1.15 6.85,.18 10.07-1.91 14.292-14.61 5.242-15.75 12.662-27.27 23.979-37.24 12.291-10.81 23.567-15.78 41.457-18.24 10.489-1.45 16.293-3.29 19.353-6.14"/>
</g>
<path opacity=".923" fill="#fff" filter="url(#filter2966)" fill-rule="evenodd" d="m-201.36,133.39c-1,4 .88,46.72 3.89,64.75 3,18.03 .74-28.43 .74-28.43l4.2-36.49-8.83,.17z" transform="matrix(1.3889 0 0 .96178 157.49 252.96)"/>
<path fill="none" filter="url(#filter2980)" stroke="#f7f4f4" stroke-width="4" d="m-85.086,476.25c9.645,18.59 34.096,43.76 50.963,52.44 16.244,7.65 22.689,8.99 38.272,9.33 6.117,0 16.21-1.9 22.427-4.23 29.379-10.99 47.094-41.59 47.094-81.35"/>
</g>
<g transform="translate(-199.7411 265.7939)">
<path fill="#d8d8d8" filter="url(#filter3050)" d="m207.45-151.65c-.75-1.23-.33-2.88 .95-3.67 1.29-.79 1.76-2.94 1.05-4.78-.71-1.85-.32-3.35 .87-3.35s1.58-1.5 .88-3.33c-.94-2.44-.56-2.89 1.4-1.68 1.94,1.2 2.34,.77 1.46-1.54-.68-1.77-.56-3.49 .27-3.84s4.46-5.83 8.07-12.18c3.61-6.36 9.82-14.92 13.8-19.04 3.97-4.11 6.99-8.69 6.71-10.18-.29-1.49 .32-2.19 1.35-1.55 1.02,.63 6.94-1.6 13.14-4.95 9.38-5.08 23.32-9.29 23.32-7.04 0,3.44-8.05,13.99-16.21,21.25-19.51,17.35-26.96,25.17-39.63,41.58-12.87,16.67-14.92,18.35-17.43,14.3z"/>
<g fill="#fff">
<path filter="url(#filter3164)" d="m270.31-226.06c-3.07-4.97 .82-12.56 6.45-12.56 5.06,0 5.09,11.27 .04,14.39-2.13,1.32-5.05,.49-6.49-1.83z"/>
<path filter="url(#filter3170)" d="m235.26-207.11c-.5-1.27-.67-4.01-.36-6.08 .66-4.57 6.56-5.88 9.74-2.18 1.85,2.16 1.59,3.18-1.7,6.57-4.44,4.57-6.37,5-7.68,1.69z"/>
<path filter="url(#filter3182)" d="m372.51-229.96c-24.11-10.83-45.4-17.78-54.51-17.78-12.59,0-8.12-6.27 7.26-10.2 7.3-1.86 18.25-3.2 24.33-2.97s16.13-1.24 9.74-1.7c-4.6-.33 48.66-3.18 65.6,.95 16.96,4.14 38.7,14.61 35.97,17.34-1.31,1.31-9.31,2.61-17.77,2.88-11.65,.36-20.66-1.71-37.13-8.57-11.97-4.99-25.99-8.93-31.17-8.78l-9.4,.29 11.33,2.59c6.24,1.43 19.45,6.02 29.37,10.2 17.91,7.55 17.99,7.63 11.91,12.55-3.72,3.02-9.39,4.54-14.49,3.9-4.6-.59-8.37-.02-8.37,1.26 0,5.32-8.02,4.63-22.67-1.96z"/>
</g>
<path fill="none" stroke="#0c0c0c" d="m331.89-258.69c48.17-2.83 83.59,17 93.51,25.5"/>
<path opacity=".652" fill="url(#linearGradient3657)" filter="url(#filter3009)" stroke="url(#linearGradient3659)" d="m473.62,32.253c-3.77-.532-7.56-3.802-11.63-10.03-3.77-5.783-3.77-5.803-3.32-13.527 .38-6.3725 .99-8.7154 3.49-13.304 3.61-6.635 7.36-9.86 12.23-10.514 3.35-.449 3.98-.102 9.6,5.3474 4.41,4.2757 6.48,5.6772 7.79,5.262 .98-.3113 1.78-.1229 1.78,.4185 0,.5415 .54,.81 1.19,.5966 .66-.2134 3.01-.615 5.23-.8925 3.59-.4486 4.04-.2906 4.04,1.4241 0,1.0608 .39,1.6891 .86,1.3962s.65,.2823 .39,1.2783c-.33,1.2689-.01,1.767 1.08,1.6643 1.1-.1031 2.12,1.4828 3.44,5.3645 1.04,3.031 1.59,5.9836 1.24,6.5616-.37,.593-.22,.784 .34,.439 1.08-.672 2.38,2.986 1.53,4.348-.29,.468-1.12,.621-1.85,.34-.75-.287-1.33,.071-1.33,.822 0,.732-.96,1.625-2.14,1.983-1.17,.358-2.78,1.19-3.56,1.849-.79,.658-2.71,1.422-4.28,1.698-8.9,1.562-14.73,3.849-14.73,5.432 0,1.255-6.85,2.683-11.39,2.043z"/>
<g fill="none">
<path stroke="#0c0c0c" d="m425.73-182.46c.88-4.54-2.46,9.86 .95-3.8" transform="translate(82.296 245.36)"/>
<path filter="url(#filter3049)" stroke="#e7f223" stroke-width="2" d="m428.58-197.66l2.86-27.56s-6.66-9.5-7.61-21.86c-.95-12.35 1.9-26.61 1.9-26.61" transform="translate(82.296 245.36)"/>
</g>
</g>
<g transform="translate(-117.1061 -261.0261)">
<path fill="#e6d74c" d="m402.14,473.67c-5.34-3.4-7.64-9.4-10.39-15.1-1.26-5.96-2.82-11.81-4.34-17.64-2.65-6.76-3.89-14.38-7.01-20.85-2.67-7.05-4.92-14.64-8.11-21.78-1.4-4.56-3.13-8.38-5.31-12.48-2.5-4.43-4.95-9.47-7.01-14.2-2.07-4.58-4.91-9.5-7.6-13.91-2.75-4.46-5.74-9.38-9.03-13.18-2.82-5.71-8.7-10.26-12.83-15.67-5.05-3.09-8.25-7.98-13.16-11.53-5.36-4.67-5.08-13.79 3.21-14.38 5.26-1.8 9.53-4.76 14.71-6.27 5.03,.13 4.91-5.36 9.14-.18 4.23-6.04 14.33-2.31 21.19-3.92 7.3-.42 15.87-.63 21.93,3.49 5.25,1.83 9.39,6.28 13.32,10.27 5.39,3.94 9.14,10.13 13.76,14.79 5.2,7.22 11.12,13.91 15.37,21.94 3.13,5 6.48,9.57 9.1,14.47 3.14,7.26 6.79,14.61 10.23,21.89 5.2,12.66 9.62,25.67 14.24,38.52 2.2,6.07 3.07,12.57 4.81,18.94 .75,6 1.63,13.3-1.82,18.7-2.35,3.69-5.71,5.08-10.47,7.08-4.77,2.01-10.76,5.16-17.6,7.03s-11.35,3.42-15.93,3.87c-8.54,.85-13.15,2.28-20.4,.1z"/>
<path fill="#fff" filter="url(#filter3070)" d="m247.46,73.569c-.17-.262-.82-.475-1.45-.475-.83,0-1.23-.33-1.45-1.203-.35-1.392 .79-2.621 3.26-3.531 .85-.309 2.61-.974 3.92-1.478 1.31-.503 2.65-.916 2.97-.916s.59-.213 .59-.475c0-.261 1.09-.475 2.42-.475 1.96,0 2.38-.136 2.15-.713-.57-1.5 .2-2.138 2.6-2.138 1.28,0 2.33,.214 2.33,.475 0,.262 .32,.475 .71,.475s.71-.213 .71-.475c0-.261 .43-.475 .95-.475 .53,0 .95-.214 .95-.475s.62-.475 1.38-.475c1.07,0 1.44-.263 1.67-1.207 .17-.664 .53-1.073 .79-.908 .27,.165 1.22-.048 2.12-.473 .96-.456 2.94-.791 4.84-.818 1.82-.025 3.83-.351 4.61-.751 .95-.483 2.13-.62 3.71-.433 1.28,.152 2.81,.045 3.44-.241 .66-.304 2.02-.381 3.3-.189 1.73,.259 2.18,.518 2.18,1.248 0,.593 .32,.921 .91,.921 .51,0 1.26,.336 1.67,.747 .84,.843 1.01,3.054 .23,3.054-.68,0-1.86,1.22-1.86,1.93 0,.315-.46,.971-1.02,1.459-.8,.686-1.79,.888-4.4,.89-1.85,.001-6.15,.406-9.55,.9s-7.94,1.05-10.1,1.235c-2.74,.236-3.92,.524-3.92,.961 0,.839-.87,1.099-2.73,.815-.97-.149-1.54-.037-1.54,.301 0,.295-.64,.537-1.43,.537-.78,0-1.42,.214-1.42,.475s-1.07,.475-2.38,.475-2.37,.214-2.37,.475c0,.262-.97,.476-2.14,.476-1.18,0-2.14,.213-2.14,.475 0,.261-.95,.475-2.11,.475s-2.24-.214-2.4-.475zm.71-.951c0-.261-.22-.475-.48-.475s-.47,.214-.47,.475c0,.262 .21,.476 .47,.476s.48-.214 .48-.476z" transform="translate(82.296 245.36)"/>
</g>
<g transform="translate(-237.1061 -261.0261)">
<path fill="#f2ea9a" filter="url(#filter3650)" d="m521.76,473.68c-2.5-1.93-3.71-3.17-5.11-6.24-1.23-2.89-3.4-5.57-4.16-9-1.16-3.11-1.27-6.63-2.96-9.49-.56-3.14-.84-6.37-2.01-9.25-.61-2.82-1.42-5.49-2.58-8.28-1.35-4.16-2.27-8.51-3.91-12.55-.76-2.3-1.68-4.57-2.58-6.81-.99-2.23-.91-5.13-2.71-6.83-1.13-3.92-2.96-7.62-4.15-11.52-1.76-1.6-2.3-4.61-3.25-6.96-2.36-2.16 1.48-.75 1.44-2.72 2.83,2.09 3.08,6.25 4.93,9.21 1.81,2.35 2.27,5.01 3.71,7.34 .26,2.49 2.02,4.27 2.41,6.73 1.2,2.73 2.56,5.41 3.2,8.53 1.02,2.78 2.25,5.49 3.31,7.97 .6,2.66 1.87,4.87 2.29,7.62 1.49,3.02 2.28,6.51 3.05,9.82 1.04,2.59 1.37,8.69 5.05,7.67 1.11-.56 5.17-1.71 4.48,.77-.24,2.91-.98,5.86-3.57,7.55-1.36,3.93 1.54,6.97 3.8,9.6 1.73,2.67 3.82,2.64 6.88,2.63 4.51-1.64 9.57-.28 14.25-1.3 3.28-.6 8.12-2.46 10.84-.62-.34,1.76-.75,2.61-.31,3.77-3.48,.01-6.64,1.21-10.13,1.08-3.73-.23-7.18,1.31-10.92,1.18-3.74-.04-7.62,1.03-11.29,.1z"/>
</g>
<g transform="translate(-117.1061 -261.0261)">
<path opacity=".8" fill="#fff" filter="url(#filter3689)" d="m351.28,200.91c-.61-.52-1.28-.95-1.5-.95s-.41-.43-.41-.95-.21-.95-.47-.95-.48-.86-.48-1.9v-1.9h2.38c1.31,0 2.38-.22 2.38-.48s.42-.47 .95-.47c.52,0 .95-.18 .95-.4s.91-.67 2.02-1 2.39-.79 2.84-1.03c.45-.23 1.36-.42 2.02-.42 .74,0 1.19-.27 1.19-.72 0-.47 .48-.71 1.43-.71 .78,0 1.42-.21 1.42-.48 0-.26 .63-.47 1.4-.47 1.34,0 1.39,.07 1.14,1.78-.6,4.18-1.17,5.38-3.75,7.97-1.44,1.43-2.98,2.61-3.43,2.61s-1.67,.32-2.72,.69c-2.83,1.02-6.04,.92-7.36-.22z" transform="translate(82.296 245.36)"/>
</g>
<g transform="translate(-117.1061 -261.0261)">
<path opacity=".8" fill="#cfc244" filter="url(#filter4289)" d="m380.26,200.91c0-.68-.32-.95-1.09-.95-1.26,0-3.65-1.01-3.66-1.55 0-.19-.75-.35-1.67-.35-.91,0-1.66-.22-1.66-.48s-.51-.47-1.14-.47c-1.42,0-1.71-.77-1.69-4.44 .03-3.63 .67-7.12 1.36-7.35 .29-.09 .52-.5 .52-.91 0-.91 1.72-2.44 3.15-2.8 .85-.22 1.2-.82 1.65-2.84 .49-2.16 .75-2.57 1.63-2.57s1.09,.34 1.35,2.21c.16,1.21 .3,3.03 .3,4.03 0,1.01 .21,1.84 .47,1.84 .27,0 .48,.43 .48,.95s.21,.95 .47,.95c.27,0 .48,.85 .48,1.9 0,1.04 .21,1.9 .47,1.9 .29,0 .48,2.2 .48,5.65 0,4.72-.12,5.7-.75,5.94-1.09,.42-1.15,.39-1.15-.66zm-7.6-9.98c.47-.31 .51-.46 .12-.47-.33,0-.6-.33-.6-.72s-.21-.71-.47-.71-.48,.53-.48,1.19c0,1.28 .31,1.43 1.43,.71z" transform="translate(82.296 245.36)"/>
</g>
<g transform="translate(-119.1061 -261.0261)">
<path fill="#fffad4" filter="url(#filter4309)" d="m357.53,222.98c-.68-1.48-.69-1.78-.08-1.4 .26,.16 .48,.09 .48-.16s1.39-1.17 3.08-2.05c2.02-1.04 3.09-1.88 3.09-2.43 0-.64 .41-.83 1.8-.83 1.25,0 2-.29 2.48-.95 .48-.67 1.23-.95 2.54-.95 1.22,0 2.13-.3 2.63-.88 .42-.48 1.29-1.05 1.92-1.25 1.27-.4 1.84-.8 3.86-2.74 .76-.72 1.82-1.3 2.37-1.3 1.77,0 2.36-1.13 2.36-4.48 0-1.77 .21-3.13 .48-3.13 .26,0 .47-.74 .47-1.66 0-.91-.21-1.66-.47-1.66-.27,0-.48-1.18-.48-2.62 0-1.43-.21-2.61-.47-2.61-.27,0-.48-.75-.48-1.66 0-2.64 1.38-2.06 2.25,.95 1.14,3.92 1.46,9.18 .85,13.9-.32,2.44-.54,2.97-1.27,2.97-.66,0-.88,.35-.88,1.42 0,.79-.18,1.43-.4,1.43s-.9,.43-1.51,.95c-.65,.57-1.45,.85-1.97,.68-.65-.2-.87-.03-.87,.71 0,.71-.31,.98-1.08,.98-.6,0-1.4,.43-1.77,.95-.38,.53-1.07,.95-1.53,.95-.47,0-.85,.22-.85,.48s-.64,.47-1.42,.47c-.79,0-1.43,.22-1.43,.48 0,.55-1.25,.65-1.54,.12-.11-.2-.15-.12-.08,.17 .16,.72-2.92,2.12-3.95,1.79-.59-.19-.66-.14-.24,.16 .43,.32-.08,.76-1.78,1.56-1.31,.61-2.39,1.29-2.39,1.51 0,.21-.32,.39-.71,.39s-.71,.21-.71,.48c0,.99-1.77,.42-2.3-.74z" transform="translate(82.296 245.36)"/>
</g>
<g transform="translate(-12.1661 -253.069)">
<path fill="#28220b" d="m313.28,337.06c-.69,.02-1.41,.18-2.16,.44-6.95,1.51-11.28,2.32-16.62,4.5l-18.91,4.88-21.47,4.4c1.62,.6-1.68,.8-1.18,3.13 1.41,4.37 5.59,9.04 7.43,11.62l5.41,10.07 3.59,9.59 5.25,11.56c1.91,5.66 4.07,11.47 6,16.75 2.08,6.21 4.29,16.52 7.23,22.23 0,0 20.79-4.5 29.53-6.48 7.72-1.74 16.77-4.49 25.68-6.06 8.4-8.95 13.66-19.83 13.73-23.3 .08-4.14-3.48-11.07-6.67-17.54l-4.59-8.6-10.53-16.37-.41-.19-9.9-12.19c-3.11-3.26-6.59-8.56-11.41-8.44z"/>
<g fill="none">
<path filter="url(#filter4360)" stroke="#ebe8e8" d="m281.42,372.55l53.42-13.44"/>
<path filter="url(#filter4366)" stroke="#f6f3f3" d="m286.8,379.27l52.75-13.1"/>
<path filter="url(#filter4376)" stroke="#fffbfb" stroke-width="5" d="m299.23,406.82l52.08-12.43"/>
</g>
<g fill="#fff">
<path opacity=".796" filter="url(#filter4390)" d="m314.14,151.59a1.0079,.504 0 1,1 -2.01,0 1.0079,.504 0 1,1 2.01,0z" transform="matrix(3 0 0 4.6667 -641.18 -306.33)"/>
<path opacity=".697" filter="url(#filter4390)" d="m314.14,151.59a1.0079,.504 0 1,1 -2.01,0 1.0079,.504 0 1,1 2.01,0z" transform="matrix(1.7143 0 0 2.6667 -245.25 -15.909)"/>
</g>
<path fill="none" filter="url(#filter4410)" stroke="#fff9f9" d="m257.42,353.51c6.17,8.55 13.78,17.58 16.39,22.33"/>
<path fill="#7c6030" filter="url(#filter4505)" d="m332.78,411.82c-11.06,.78-23.04,2.66-32.16,9.21-3.27,3.81-10.25,4.97-10.88,10.69 3.39,2.21 7.52,.63 11.42,1.1 5.27-.01 8.58-2.34 14.58-4.16 8.3-2.28 18.84-8.4 28.29-11.22 1.94-1.54 .62-2.23-1.67-3.61-3.16-2.08-4.85-3.41-9.58-2.01z"/>
</g>
<g transform="translate(-199.7411 265.7939)">
<path fill="#e4d54a" fill-rule="evenodd" d="m269.94-151.53l2.69,.5 .17-4.03 67.19,10.58 .17,4.37 2.52,.34 .34,15.45h-3.03l.34,3.53-67.53-11.09-.17-4.37-2.86-1 .17-14.28z"/>
<path d="m273.95-141.07l1.63,.03c.1,.86 .3,1.52 .6,1.97 .3,.44 .7,.71 1.22,.79 .54,.1 .94-.01 1.22-.32 .27-.31 .41-.7 .41-1.17 0-.3-.06-.57-.18-.8-.11-.24-.31-.46-.6-.66-.19-.14-.64-.4-1.34-.79-.9-.49-1.53-1.02-1.9-1.58-.51-.8-.76-1.7-.76-2.72 0-.65 .12-1.24 .35-1.77 .25-.53 .59-.9 1.04-1.13 .46-.22 1-.28 1.64-.17 1.05,.18 1.83,.66 2.36,1.45 .53,.8 .8,1.79 .83,2.97l-1.68-.16c-.07-.68-.23-1.17-.46-1.5-.24-.33-.59-.54-1.07-.62s-.87,.01-1.14,.28c-.18,.16-.27,.42-.27,.75 0,.3 .09,.58 .25,.82 .21,.31 .73,.68 1.54,1.12 .82,.43 1.43,.84 1.81,1.23 .4,.38 .7,.86 .92,1.46 .23,.58 .34,1.28 .34,2.09 0,.74-.13,1.4-.4,2-.26,.6-.64,1.02-1.12,1.25-.49,.23-1.09,.28-1.81,.16-1.05-.18-1.86-.68-2.42-1.53-.57-.84-.9-1.99-1.01-3.45m10.05,5.86v-10.66l-2.46-.42v-2.17l6.61,1.11v2.17l-2.47-.41v10.66l-1.68-.28m11.85,1.99l-1.83-.31-.72-3.04-3.33-.55-.68,2.8-1.78-.3 3.23-12.3 1.78,.3 3.33,13.4m-3.09-5.6l-1.15-4.96-1.12,4.58 2.27,.38m3.96,5.74v-12.84l1.68,.29v12.83l-1.68-.28m3.29,.55v-12.84l1.63,.28 3.41,9.14v-8.57l1.56,.26v12.84l-1.69-.29-3.35-8.93v8.37l-1.56-.26m8.42,1.41v-12.73l1.68,.28v10.57l4.18,.7v2.16l-5.86-.98m7.06,1.18v-12.83l6.17,1.03v2.17l-4.49-.75v2.85l4.18,.69v2.17l-4.18-.7v3.49l4.65,.78v2.16l-6.33-1.06m7.34-2.94l1.63,.02c.1,.87 .3,1.52 .6,1.97s.71,.71 1.22,.8c.54,.09 .94-.02 1.22-.32 .27-.31 .41-.7 .41-1.18 0-.3-.06-.57-.18-.8-.11-.23-.31-.45-.6-.66-.19-.14-.64-.4-1.34-.78-.9-.5-1.53-1.03-1.9-1.59-.51-.79-.76-1.7-.76-2.71 0-.66 .12-1.25 .35-1.77 .25-.53 .59-.91 1.04-1.13 .46-.23 1-.28 1.64-.18 1.05,.18 1.83,.66 2.36,1.46 .53,.79 .8,1.78 .83,2.97l-1.68-.17c-.07-.67-.23-1.17-.46-1.5-.24-.33-.59-.53-1.06-.61-.49-.08-.87,.01-1.15,.27-.18,.17-.27,.42-.27,.75 0,.3 .09,.58 .25,.82 .21,.31 .73,.68 1.55,1.12 .81,.43 1.42,.84 1.81,1.23 .39,.38 .7,.87 .91,1.46 .23,.58 .34,1.28 .34,2.09 0,.74-.13,1.41-.4,2-.26,.6-.64,1.02-1.12,1.25-.49,.23-1.09,.29-1.81,.16-1.05-.17-1.86-.68-2.42-1.52-.57-.85-.9-2-1.01-3.45m7.76,1.29l1.63,.03c.1,.87 .3,1.52 .6,1.97s.71,.71 1.22,.8c.54,.09 .94-.02 1.22-.32 .27-.31 .41-.71 .41-1.18 0-.3-.06-.57-.17-.8-.12-.23-.32-.45-.61-.66-.19-.14-.64-.4-1.34-.78-.9-.5-1.53-1.03-1.9-1.59-.51-.79-.76-1.7-.76-2.71 0-.66 .12-1.25 .36-1.77 .24-.53 .58-.91 1.03-1.13 .46-.23 1-.28 1.64-.18 1.05,.18 1.83,.66 2.36,1.46 .53,.79 .81,1.78 .83,2.97l-1.68-.17c-.07-.67-.22-1.17-.46-1.5s-.59-.53-1.06-.61c-.49-.09-.87,.01-1.15,.27-.18,.17-.27,.42-.27,.75 0,.3 .09,.58 .25,.82 .22,.31 .73,.68 1.55,1.12 .81,.43 1.42,.84 1.81,1.23 .39,.38 .7,.87 .92,1.46 .22,.58 .33,1.28 .33,2.09 0,.74-.13,1.41-.4,2-.26,.6-.64,1.02-1.12,1.25s-1.09,.28-1.81,.16c-1.05-.17-1.86-.68-2.42-1.52-.57-.85-.9-2-1.01-3.46"/>
</g>
<g transform="translate(-199.7411 265.7939)">
<g fill="#e4d54a">
<path d="m284.23-68.315c-8.08-.973-14.36,4.922-13.86,11.65 4.91,.122 15.95,8.326 15.84,1.842 1.29-3.707 8.73-.371 10.24,2.36 2.95,3.947-2.64,4.971-5.92,3.369-9.32-4.836-5.87,4.19-5.89,9.339 4.14,2.284 15.58,3.092 14.74,9.761-2.13,3.262-9.28,.19-11.49-2.578-1.01-4.9-4.77-5.924-10.4-6.285-6.49-2.642-8.04-.048-5.58,4.807 4.76,12.377 22.55,19.462 36.14,16.955 10.88-3.203 8.47-17.449-.88-22.535 .06-1.019 4.33-2.249 4.65-4.433 5.03-13.135-14.01-23.907-27.59-24.252z"/>
<path d="m329.49-9.7929l-.8-13.861c-.06-1.068-.16-1.97-.28-2.707-.11-.733-.26-1.331-.45-1.794-.19-.476-.43-.841-.73-1.095-.29-.253-.64-.429-1.04-.529-.41-.104-.78-.023-1.11,.24-.32,.254-.57,.668-.77,1.242-.19,.56-.33,1.266-.41,2.117-.09,.852-.1,1.818-.03,2.9l.71,12.26-5.71-1.426-1.04-17.927c-.03-.478-.07-.978-.11-1.502-.03-.534-.07-1.034-.12-1.502-.04-.482-.08-.893-.12-1.234-.03-.341-.06-.563-.08-.666l5.21,1.302c.02,.074 .05,.261 .08,.56 .03,.285 .07,.619 .11,1.003 .04,.369 .07,.75 .09,1.143 .04,.398 .07,.737 .08,1.018l.05,.012c.19-.494 .41-.949 .68-1.366 .27-.431 .61-.784 1-1.059 .41-.271 .9-.44 1.47-.505 .57-.079 1.24-.024 2,.167 1.46,.366 2.57,.975 3.33,1.827 .77,.857 1.35,2.027 1.75,3.511l.05,.012c.26-.585 .55-1.087 .87-1.506 .33-.428 .73-.759 1.17-.994 .45-.235 .96-.369 1.55-.402s1.27,.048 2.05,.243c1.02,.253 1.88,.621 2.6,1.105 .72,.483 1.31,1.102 1.78,1.856s.82,1.659 1.07,2.716c.25,1.061 .42,2.3 .51,3.719l.88,15.189-5.69-1.4203-.8-13.862c-.07-1.067-.16-1.969-.28-2.706-.11-.733-.26-1.331-.45-1.794-.19-.477-.43-.842-.73-1.095-.29-.253-.64-.429-1.04-.529-.84-.212-1.48,.189-1.92,1.202-.41,1.003-.56,2.635-.43,4.896l.74,12.661-5.69-1.4199"/>
</g>
<path fill="none" stroke="#ee300e" stroke-linecap="round" stroke-width="3" d="m158.36-334.11l68.82,13.8" transform="translate(82.296 245.36)"/>
<g fill="#c0b986">
<path d="m201.92-198.34h25.29v7.11h-15.02v5.78h12.83v6.68h-12.83v13.53h-10.27v-33.1m30.57,0h9.19v6.25h-9.19v-6.25m0,9.12h9.19v23.98h-9.19v-23.98m26.2-9.12v9.12h5.06v6.7h-5.06v8.52c0,1.02 .1,1.7 .29,2.03 .3,.51 .83,.77 1.58,.77 .68,0 1.63-.2 2.85-.59l.67,6.35c-2.27,.49-4.39,.74-6.36,.74-2.29,0-3.98-.29-5.06-.88-1.09-.59-1.89-1.47-2.42-2.66-.51-1.21-.77-3.15-.77-5.83v-8.45h-3.38v-6.7h3.38v-4.41l9.22-4.71" transform="matrix(1.1738 .22773 0 .85191 0 0)"/>
<path d="m261.62-176v-30.7h6.11l7.27,21.74c.67,2.02 1.16,3.54 1.47,4.54 .35-1.11 .89-2.76 1.63-4.92l7.35-21.36h5.46v30.7h-3.91v-25.69l-8.92,25.69h-3.67l-8.87-26.13v26.13h-3.92m35.43-26.36v-4.34h3.77v4.34h-3.77m0,26.36v-22.24h3.77v22.24h-3.77m9.53,0v-22.24h3.39v3.16c1.63-2.44 3.99-3.66 7.08-3.66 1.34,0 2.57,.24 3.68,.73 1.13,.48 1.98,1.11 2.54,1.89s.95,1.71 1.17,2.78c.14,.7 .21,1.92 .21,3.67v13.67h-3.77v-13.53c0-1.53-.15-2.68-.44-3.43-.29-.77-.82-1.38-1.57-1.82-.74-.46-1.61-.69-2.62-.69-1.6,0-2.99,.51-4.16,1.52-1.16,1.02-1.74,2.96-1.74,5.81v12.14h-3.77" transform="matrix(1.1913 .25586 0 .83945 0 0)"/>
</g>
</g>
<g transform="translate(-105.377 567.6)">
<path fill="#e0d033" fill-rule="evenodd" d="m395.79-235.62l.67,7.39-17.14,6.38-1.68,9.07-5.37,.34 2.35-14.78 21.17-8.4z"/>
<path fill="none" filter="url(#filter3514)" stroke="#c4bbbb" stroke-width="1.5" d="m379.17-220.47l209.06,41.81"/>
<path d="m57.081,229.34h-1.206v2.14h-1.097v-2.14h-3.868v-1.01l4.063-5.78h.902v5.78h1.206v1.01m-2.303-1.01v-4.03h-.024l-2.772,4.03h2.796" transform="matrix(-.51365 -.27235 1.9912 -.89111 0 0)"/>
<path d="m.2324,233.23c.5523,.11 .9686,.38 1.2488,.81 .2842,.43 .4263,.89 .4264,1.39-.0001,.82-.2965,1.48-.8894,2.01-.5889,.52-1.2955,.78-2.1199,.78-.7879,0-1.4377-.23-1.9494-.69s-.8101-1.07-.8954-1.82l1.0965-.15c.1096,.58 .3086,1.02 .597,1.32 .2924,.29 .6761,.44 1.1513,.44 .5117,0 .9442-.18 1.2975-.54 .3574-.36 .5361-.8 .5361-1.32-0-.5-.1624-.92-.4873-1.24-.3208-.33-.7411-.5-1.2609-.5-.2112,0-.4691,.04-.7737,.12l.1279-.96c.2924,0 .5239-.02 .6945-.05 .1706-.03 .3614-.1 .5726-.2 .2112-.11 .3858-.27 .5239-.47 .1381-.21 .2071-.47 .2071-.77-0-.44-.1482-.79-.4447-1.03-.2924-.24-.6315-.37-1.0173-.37-.4427,0-.8041,.14-1.0843,.42-.2762,.28-.4508,.68-.5239,1.2l-1.0965-.2c.1422-.77 .4549-1.35 .9381-1.74 .4874-.38 1.0681-.58 1.7422-.58 .7432,0 1.3625,.23 1.858,.68 .4995,.45 .7493,.99 .7493,1.64 0,.84-.4082,1.43-1.2244,1.8l-0,.02" transform="matrix(-.51365 -.27235 1.9912 -.89111 0 0)"/>
<path d="m-53.803,245.05h-5.915c0-.5 .174-1.01 .523-1.53 .354-.51 1.012-1.16 1.974-1.93 .589-.47 1.115-.97 1.578-1.48 .463-.52 .694-1.04 .694-1.57 0-.45-.16-.82-.481-1.11-.317-.3-.719-.45-1.206-.45-.491,0-.904,.15-1.237,.46-.333,.3-.501,.75-.505,1.35l-1.127-.13c.069-.83 .365-1.47 .889-1.92 .528-.44 1.196-.66 2.004-.66 .877,0 1.56,.24 2.047,.73 .491,.49 .737,1.07 .737,1.76 0,.57-.207,1.15-.621,1.74-.41,.58-1.231,1.37-2.461,2.35-.646,.52-1.074,.96-1.286,1.33h4.393v1.06" transform="matrix(-.51365 -.27235 1.9912 -.89111 0 0)"/>
</g>
<g transform="translate(-210.857 597.059)">
<path fill="none" stroke="#000" d="m515.06-236.62l-34.21,10.45s-1.9,10.45-6.65,13.3"/>
<path opacity=".553" filter="url(#filter4121)" d="m485.02-228.1c-.06-.43-.02-1.21 .09-1.74 .86-4.05 .71-6.7-.48-8.4-3.28-4.68-.23-5.51 5.45-1.49 1.42,1 3.27,1.82 4.11,1.82s2.19,.65 2.99,1.46c.83,.83 2.22,1.21 3.26,.88 .99-.31 1.8-.12 1.8,.43 0,.54-1.18,1.28-2.62,1.64-2.52,.62-6.85,2.96-7.84,4.24-.78,1.01-6.64,2.02-6.76,1.16z"/>
<path opacity=".553" fill="#84552f" filter="url(#filter4135)" d="m495.88-234.87c-.62-.39-1.59-1.92-2.16-3.41-.91-2.41-.84-2.63 .66-2.05 2.84,1.11 3.59,1.04 3.31-.28-.19-.95 .52-1.11 2.86-.63 6.48,1.32 10.24,2.47 10.24,3.15 0,.38-2.46,1.25-5.47,1.92-3,.67-6.1,1.4-6.89,1.62-.78,.22-1.93,.08-2.55-.32z"/>
<path fill="none" stroke="#000" d="m501.76-258.48l-19.01,8.55 .95,6.65"/>
</g>
<g transform="translate(-59.089 486.219)">
<g stroke="#000" stroke-linecap="round">
<path stroke-width=".504" d="m523.16-119.36c-6.4-2.62-12.77-2.64-20.62-3.89-3.42-.6-6.83,.43-9.62,1.75-2.22,2.1-5.5,2.34-8.1,4.16 .11,.06 .19,.13 .29,.18-.64,.2-1.33,.43-2.07,.69-1.2,.36-.21,2.92-.53,4.16-.12,1.76-.37,3.63 2,2.9 18.85,6.35 60.68,11.577 61.94,13.755 3.22-.849 4.41,2.544 7.44,2.062 1.02,.866 1.09,5.397-1.16,5.532-2.51,2.83-3.29,7.156-3.03,11.031 1.02,6.128 .79,12.439 1.12,18.656 .05,3.226 .94,7.287 4.6,7.281 .37,.841 2.25,.545 2.94,.219 1.47-1.905 4.59-1.158 6.12-3.094 3.05-.667 4.88-2.512 5.03-5.718 .43-2.145-.34-4.03 4.33-4.794 3.12-.422 1.03,4.609 6.95,1.981 3.7-1.516 9.74-3.75 10.5-8.187 .16-6.456 .52-13.012-.47-19.407-.34-3.857 .38-9.133-2.13-12.227-3.87,1.23-3.58-1.66-5.9-3.15 .06-2.91-.39-2.51-4.18-4.67-3.23-2.51-5.58-2.5-11.49-3.15-14.37-2.41-25.95-4.72-43.96-6.07z"/>
<path opacity=".382" fill="#fcfcfc" filter="url(#filter4350)" stroke-width=".713" d="m557.46-56.198c-1.03-.201-1.6-1.74-1.6-4.296 0-.833-.2-1.102-.69-.915-.52,.199-.75-.282-.96-1.969-.15-1.228-.5-3.341-.77-4.696-.57-2.862-.16-5.851 .81-5.851 .64,0 .88-.806 .74-2.495-.04-.473 .25-.831 .69-.831 .54,0 .65-.234 .39-.832-.2-.457-.39-1.312-.41-1.9s-.28-1.069-.58-1.069c-.85,0-1.16-1.353-.47-2.002 .35-.321 .53-.964 .41-1.429s.01-.846 .31-.846c.29,0 .53-.285 .53-.633 0-.349 .32-.634 .71-.634 .49,0 .71,.493 .71,1.584 0,.871 .22,1.584 .48,1.584s.47-.642 .47-1.426c0-.979 .24-1.425 .75-1.425 .88,0 2.1-1.117 2.1-1.918 0-.315 .33-.434 .76-.271 .41,.159 1.5,.288 2.43,.288 1.56,0 1.66,.087 1.43,1.274-.25,1.324 .47,3.478 1.16,3.478 .22,0 .4,.427 .4,.95s.21,.95 .48,.95c.26,0 .47,.517 .47,1.149 0,.631 .27,1.273 .6,1.425 .47,.222 .47,.333 0,.554-.71,.328-.81,3.049-.12,3.049 .26,0 .47,.428 .47,.951 0,.522-.21,.95-.47,.95-.28,0-.48,1.421-.48,3.314v3.314l-1.5-.301c-1.35-.269-1.47-.206-1.12,.606 .81,1.914 .86,3.52 .11,3.52-.46,0-.65,.309-.5,.846 .31,1.205-1.38,2.955-2.87,2.955-.84,0-1.25,.255-1.25,.776 0,.749-1.75,2.618-2.33,2.486-.15-.036-.74-.154-1.29-.264z" transform="matrix(1.3164 0 0 1.1696 -174.92 9.3978)"/>
</g>
<path fill="none" filter="url(#filter3123)" stroke="#fff" stroke-width=".5" d="m557.78-94.232s2.69,5.711 0,8.399-3.36,1.344-3.36,3.696-3.36,1.68-3.36,1.68"/>
<path fill="#5f6769" fill-rule="evenodd" d="m482.93-116.65l14.98-7.29 79.27,12.06s-4.98,6.76-12.04,8.77c-7.05,2.02-11.42,2.02-11.42,2.02l-70.79-15.56z"/>
<path fill="none" filter="url(#filter3153)" stroke="#fff" d="m567.8-105.48s7.37-5.23 7.84-5.94c.48-.72-28.27-4.99-28.27-4.99"/>
<g fill="#ececec">
<path filter="url(#filter3189)" d="m576.36-141.83a10.453,3.0885 0 1,1 -20.91,0 10.453,3.0885 0 1,1 20.91,0z" transform="translate(-57.493 22.332)"/>
<path filter="url(#filter3185)" d="m610.09-136.13a10.928,3.5636 0 1,1 -21.86,0 10.928,3.5636 0 1,1 21.86,0z" transform="translate(-57.493 22.332)"/>
</g>
<g fill="none">
<g stroke="#000">
<path filter="url(#filter3201)" d="m551.65-110.23s-8.55,2.37-12.36,2.37c-3.8,0-9.97-3.32-9.97-3.32"/>
<path filter="url(#filter3197)" d="m517.44-114.99s-8.56,2.38-11.88,1.43c-3.33-.95-9.03-3.8-9.03-3.8"/>
</g>
<g stroke="#f7eded" stroke-linejoin="round" stroke-linecap="round">
<path filter="url(#filter3207)" d="m497.48-119.26s1.43-3.8 10.93-3.33c9.5,.48 8.55,2.85 9.98,4.75"/>
<path filter="url(#filter3207)" d="m530.74-114.04s1.43-3.8 10.93-3.32c9.5,.47 8.55,2.85 9.98,4.75"/>
</g>
</g>
</g>
<g transform="translate(-59.089 486.219)">
<path fill="#e6e6e6" filter="url(#filter3228)" d="m552.87-102.16c-.52-.43-1.26-.52-1.89-.73-2.14-.59-4.38-.84-6.47-1.62-22.83-5.17-23.86-4.72-23.64-5.13-25.12-6.25 20,3.06 20.27,2.51 .66-.4 5.52-.45 5.82,0 .61,.22 1.47,.34 1.96-.17 .26-.5 0-1.4 .77-1.52 .56-.17 1.33,.14 1.28,.81 0,.89 1.14,.82 1.77,.9 1.38,.11 2.81,.04 4.14,.5 .43,.47 1.12,.52 1.73,.57 1.29,.05 2.76-.01 3.79,.9 .47,.29 .92,1.01 .06,1.12-2.8,.85-5.64,1.61-8.5,2.21-.37,.1-1.02,.18-1.09-.35zm.82-1.33c-.46-.08-1.25-.2-1.51,.15 .54,.11 1.29,.2 1.72-.06l-.07-.04-.14-.05z"/>
</g>
<g transform="translate(-794.18 159.13)">
<path opacity=".665" filter="url(#filter4398)" d="m1219.2,266.62c-36.2-7.05-72.4-14.86-108.9-20.31 8.8,9.06-13.6,1.52-19.4,1.08-26.8-5.59-53.8-10.22-80.5-15.91-2.7-7.4 17.1-10.25 23.6-15.23 8.4-3.43 16.5-8.54 25-11.21 77.7,15.64 155.6,30.02 233.3,45.58 148.9,57.58-10.3,28.12-73.1,16z"/>
</g>
</svg>
