<svg xmlns="http://www.w3.org/2000/svg" viewBox="0 0 134.422 137.379" enable-background="new 0 0 134.422 137.379">
<defs>
<radialGradient cx="42.786" cy="42.189" id="XMLID_2_" r="69.833" gradientUnits="userSpaceOnUse">
<stop offset="0" stop-color="#d1f593"/>
<stop offset="1" stop-color="#81ce09"/>
</radialGradient>
</defs>
<path fill="url(#XMLID_2_)" d="m56.881,8.479v11.564c0,1.741 1.297,11.914 0,13.039-1.02,.886-6.762,0-8.05,0h-18.478c-7.957,0-22.38-2.722-27.218,5.536-3.929,6.711-1.526,19.418-1.526,26.711 0,8.382-.774,17.167 0,25.519 0,13.355 15.573,11.178 24.427,11.178h30.258c1.235,0 .587,21.391 .587,24.12 0,9.468 9.867,13.694 16.696,6.885 5.979-5.956 11.956-11.914 17.934-17.874 12.723-12.681 27.184-24.79 38.705-38.581 8.129-8.157-.109-15.919-5.847-21.664-7.818-7.824-15.637-15.65-23.456-23.475-7.681-7.69-15.364-15.38-23.047-23.068-4.98-4.985-11.292-11.356-18.616-5-1.493,1.285-2.366,3.107-2.366,5.097"/>
<path fill="#67ba06" d="m1.609,44.263v25.519c0,7.292-2.404,20 1.526,26.707 4.839,8.26 19.258,5.537 27.214,5.537h17.257c1.47,0 8.123-1.016 9.274,0 1.14,1.006 0,9.882 0,11.396v14.252c0,10.854 12.136,9.904 17.771,4.287 15.045-14.996 30.09-29.993 45.136-44.991 5.456-5.438 15.865-12.589 13.176-21.487-.317,.598-3.726,2.826-4.396,3.495-3.066,3.059-6.136,6.117-9.201,9.174-8.52,8.492-17.037,16.985-25.555,25.477-5.672,5.654-11.342,11.308-17.012,16.961-2.447,2.439-6.51,4.557-9.908,2.681-4.008-2.21-2.962-8.699-2.962-12.543v-15.579c0-2.856-2.156-1.731-4.79-1.731h-33.59c-8.25,0-16.507-.511-16.507-10.853v-32.609c0-4.972-1.083-11.582 .677-16.393-4.732,1.342-8.114,5.758-8.114,10.688"/>
<path fill="#b2ed21" d="m9.721,101.28c-2.771-7.597-.677-18.748-.677-26.612 0-8.349-1.456-18.099 .173-26.347 1.843-9.349 18.409-6.667 25.217-6.667h29.23c.768,0-.319-21.606 .808-24.748 3.407-9.491 12.963,.134 16.668,3.857 15.269,15.341 30.538,30.681 45.805,46.022 1.224,1.231 5.246,3.916 6.019,5.379 2.872-9.511-10.045-18.432-15.802-24.213l-32.322-32.461c-5.208-5.23-12.42-16.139-21.006-14.488-11.102,2.133-6.951,23.787-6.951,31.819-9.333,0-18.663-.002-27.996-.002-9.16-.001-27.276-2.955-27.276,11.18-.863,9.313 0,19.11 0,28.458 0,8.799-3.183,25.591 8.112,28.823"/>
<path fill="#739b07" d="m61.454,.988c-9.2,3.806-5.476,22.395-5.476,30.261 0,1.951-23.229,.93-26.087,.93-8.576,0-23.012-2.757-27.835,6.535-3.627,6.99-1.35,19.146-1.35,26.616 0,8.4-.709,17.143 0,25.519 0,13.884 15.395,12.081 24.75,12.081h30.326c.616,0-.196,23.651 .363,26.81 1.344,7.601 11.873,10.134 17.171,4.83 1.235-.97 2.304-2.297 3.414-3.404 6.86-6.837 13.72-13.676 20.579-20.514 7.706-7.681 15.41-15.36 23.116-23.042 4.011-3.997 10.436-8.579 12.863-13.906 3.874-8.509-2.996-14.135-8.281-19.426-7.462-7.47-14.926-14.941-22.389-22.411-7.348-7.353-14.693-14.708-22.041-22.061-5.328-5.353-10.368-12.444-19.115-8.826m-58.942,89.86v-25.519c0-7.083-2.537-20.456 1.757-26.809 4.938-7.304 19.854-4.536 27.283-4.536h17.136c1.448,0 7.955,.999 9.096,0 1.124-.984 0-9.795 0-11.286v-14.11c0-6.577 10.11-8.923 14.281-4.749 1.512,1.514 3.024,3.027 4.536,4.539l46.438,46.479c5.123,5.13 13.199,11.335 7.847,19.468-3.387,5.148-9.155,9.432-13.47,13.732-14.601,14.553-29.201,29.107-43.802,43.659-2.575,2.568-5.353,4.298-9.308,3.666-6.041-.967-6.522-6.041-6.522-10.962 0-3.029 1.173-23.3-1.004-23.3h-29.582c-8.374-.01-24.69,2.6-24.69-10.282"/>
</svg>
