<svg xmlns="http://www.w3.org/2000/svg" viewBox="0 0 318.22 239.56">
<g transform="translate(-215.89 -412.58)">
<path fill="#092c70" color="#000" d="m362.02,412.58a6.9369,6.9369 0 0,0 -6.6875,5.5312h-3.3438a6.9375,6.9375 0 1,0 0,13.875h3.1875v11c-18.062,1.8838-37.426,10.18-50.938,20.156l117.41,1.2188c-13.949-10.276-34.378-19.572-52.594-21.438v-10.938h3.1875a6.9375,6.9375 0 0,0 0-13.875h-3.3438a6.9369,6.9369 0 0,0 -6.875-5.5312zm172.09,53.344-33.5,.9062c-3.4787,12.58-6.6005,21.529-13.156,32.875-6.2662,10.845-9.8797,20.551-21.75,20.406-4.2418-.0517-8.4626-.9077-12.438-2.5l-2.2812-11.937c-5.668-14.228-14.026-26.486-24.25-36.406h-128.03c-5.0294,4.8837-9.616,10.305-13.625,16.219-.0678-.0559-.1193-.1001-.1875-.1562-8.6934-7.1646-17.254-11.457-25.656-12.812-2.1006-.3388-4.1676-.495-6.2188-.4375-6.1534,.1724-11.999,2.0996-16.875,5.4688-13.002,8.9843-19.406,26.434-20.188,47.437-1.5867,42.619 27.611,69.8 55.156,70.062 1.9445,.0185 3.8504-.0725 5.7188-.25 8.3359,17.776 21.188,32.628 36.906,42.75h97.812c16.771-10.799 30.292-26.969 38.531-46.344 4.1208-.3034 8.7317-2.3122 14.5-7.1875 13.69-11.571 27.995-34.511 32.656-45.719 4.6616-11.208 9.5611-21.371 13.312-31.875 3.9149-10.962 7.353-18.219 11.188-28.688 1.6085-4.3914 8.2172-9.1834 12.375-11.812zm-280.75,20.906c1.1124-.0137 2.2762,.0788 3.5312,.2812 5.0204,.8098 11.348,3.685 18.594,9.6562 .7552,.6224 1.3604,1.1615 2.0625,1.75-7.1279,14.566-11.188,31.153-11.188,48.812 0,11.493 1.724,22.559 4.875,32.906-17.602-.1894-41.828-19.028-40.5-54.688 .6756-18.146 6.7481-30.941 13.844-35.844 2.6609-1.8386 5.4439-2.834 8.7812-2.875zm57.531,153.19v12.125h103.59v-12.125h-103.59z"/>
</g>
</svg>
