<svg xmlns="http://www.w3.org/2000/svg" viewBox="0 0 640 480">
<g fill="#dc0000" stroke="#595e62" stroke-linejoin="bevel" stroke-linecap="square">
<path opacity=".732" stroke-width=".123" d="m299.4-.4959c-1.2717-.0096-2.5438-.0058-3.8231,.0152-81.88,1.294-148.25,60.849-148.25,133.02 0,64.554 53.1,117.33 122.9,126.83l1.2049-6.8578c-66.072-9.0455-116.31-59.03-116.31-120.15 0-68.379 62.88-124.8 140.46-126.03 77.578-1.2261 140.47,53.216 140.47,121.6 0,57.3-44.157,106.19-104.12,121.25h-.0148c-.5249,.1319-1.0495,.275-1.5769,.4017l-37.532-117.73-.0744,.4016 39.525,123.99c.6032-.1449 1.1997-.295 1.8-.4463 63.221-15.937 109.78-67.509 109.78-127.95 0-71.044-64.332-127.83-144.44-128.35z"/>
<path opacity=".732" stroke-width=".088" d="m295.58,36.992c-58.229,.9202-105.43,43.27-105.43,94.594 0,45.907 37.763,83.444 87.403,90.197l.8571-4.8814c-46.987-6.4325-82.718-41.974-82.718-85.44 0-48.627 44.714-88.748 99.883-89.62 55.169-.8719 99.892,37.836 99.892,86.463 0,41.108-31.956,76.135-75.17,86.513l-26.692-83.718-.0548,.2835 28.114,88.181c45.611-10.954 79.345-47.923 79.345-91.31 0-51.324-47.206-92.182-105.43-91.262z"/>
<path opacity=".732" stroke-width=".069" d="m295.58,56.561c-45.877,.725-83.062,34.092-83.062,74.528 0,36.169 29.753,65.744 68.863,71.065l.6756-3.8458c-37.02-5.0682-65.172-33.07-65.172-67.316 0-38.312 35.229-69.923 78.696-70.61 43.467-.6869 78.703,29.81 78.703,68.122 0,32.388-25.177,59.985-59.225,68.162l-21.03-65.96-.0428,.2234 22.15,69.476c35.936-8.6302 62.514-37.757 62.514-71.942 0-40.437-37.192-72.628-83.07-71.903z"/>
<path opacity=".732" stroke-width=".045" d="m296.99,81.53c-.4676-.004-.9427,.008-1.4132,.0153-30.11,.4758-54.505,22.372-54.505,48.912 0,23.738 19.524,43.143 45.193,46.636l.4463-2.514c-24.297-3.3263-42.783-21.705-42.783-44.181 0-25.145 23.122-45.902 51.649-46.353 28.528-.4509 51.664,19.572 51.664,44.717 0,21.257-16.525,39.365-38.871,44.732l-13.805-43.289-.03,.1487 14.534,45.594c23.585-5.6641 41.028-24.781 41.028-47.216 0-26.125-23.647-47.009-53.107-47.201zm-3.6594,48.019 39.436,122.4-39.436-122.4zm0,4.0759 39.436,122.41-39.436-122.41z"/>
</g>
<path fill="none" stroke="#234f72" stroke-width="8.043" d="m250.98,471.98 49.466-335.9 73.465,329.83-109.66-59.291 85.153-43.019-72.829-40.489 59.06-39.887-49.137-33.688 30.414-33.973"/>
<path fill="#dc0000" d="m-351.43,426.65a41.429,40 0 1,1 -82.857,0 41.429,40 0 1,1 82.857,0z" transform="matrix(.47603 0 0 .47603 485.1 -68.109)"/>
</svg>
