<svg xmlns="http://www.w3.org/2000/svg" viewBox="0 0 101.28 231.11" xmlns:xlink="http://www.w3.org/1999/xlink">
<defs>
<filter width="1.286" x="-.143" y="-.483" height="1.965" color-interpolation-filters="sRGB" id="filter4174">
<feGaussianBlur stdDeviation="2.60765"/>
</filter>
<linearGradient id="linearGradient4325" y1="432.51" y2="431.02" x1="371.37" gradientUnits="userSpaceOnUse" x2="371.36">
<stop offset="0" stop-color="#501616"/>
<stop offset="1" stop-color="#d40000"/>
</linearGradient>
</defs>
<g transform="matrix(44.184 0 0 44.184 -16355.183 -18898.236)">
<path opacity=".481" fill="#1a1a1a" filter="url(#filter4174)" d="m457.69,330.49c0,3.5815-9.7798,6.4849-21.844,6.4849s-21.844-2.9034-21.844-6.4849 9.7798-6.4849 21.844-6.4849 21.844,2.9034 21.844,6.4849z" transform="matrix(.04078 0 0 .04078 353.53 418.96)"/>
<path fill="none" stroke="#aad400" stroke-linecap="round" stroke-width=".082" d="m371.37,428.31c-.001,.312-.2221,.5485-.2124,.8333 .0112,.3316 .2787,.6247 .3124,.955 .0323,.3165-.1091,.9484-.1091,.9484"/>
</g>
<g fill="#aad400" transform="matrix(44.184 0 0 44.184 -16355.183 -18898.236)">
<path d="m371.36,428.29c0,.01-.2357,.0952-.3697,.0531-.134-.0421-.2426-.1495-.2426-.24 0-.0905 .1086-.1297 .2426-.0876 .134,.0421 .3697,.2745 .3697,.2745z"/>
<path d="m371.39,428.29c0,.01 .2329,.0952 .3654,.0531s.2398-.1495 .2398-.24c0-.0905-.1074-.1297-.2398-.0876-.1325,.0421-.3654,.2745-.3654,.2745z"/>
<path d="m371.37,428.27c.0101-.0006 .1473,.2067 .136,.3304-.0112,.1237-.0928,.2287-.1822,.2344-.0894,.005-.1526-.0899-.1413-.2135 .0113-.1237 .1875-.3513 .1875-.3513z"/>
<path d="m371.37,428.29c-.0101,.0006-.1674-.2067-.1682-.3304-.0008-.1237 .0704-.2287 .1593-.2344 .0889-.005 .1614,.0899 .1622,.2135 .0008,.1237-.1533,.3513-.1533,.3513z"/>
</g>
<g fill="none" stroke-linecap="round">
<g stroke="#efa" stroke-width=".02" transform="matrix(15.79269 -1.8468 1.86554 15.95308 -6507.45308 -6042.45936)">
<path d="m365.09,430.49c-.1916-.0631-.3586-.2238-.6172-.3883"/>
<path d="m363.36,430.45c.3894-.0197 .5669,.0344 1.12-.3471"/>
<path d="m364.46,430.12c.1561-.1037 .4329-.0884 .7294-.0724"/>
<path d="m364.11,429.94c.5084,.0752 .2605,.0542 .4285,.1489"/>
</g>
<g transform="matrix(15.79269 -1.8468 1.86554 15.95308 -6507.45308 -6042.45936)">
<path stroke="#aad400" stroke-width=".082" d="m364.51,427.35c-.001,.312-.2221,.5485-.2124,.8333 .0112,.3316 .2787,.6247 .3124,.955 .0323,.3165-.1091,.9484-.1091,.9484"/>
</g>
</g>
<g fill="#aad400" transform="matrix(15.79269 -1.8468 1.86554 15.95308 -6507.45308 -6042.45936)">
<path d="m364.5,427.32c0,.01-.2357,.0952-.3697,.0531-.134-.0421-.2426-.1495-.2426-.24 0-.0905 .1086-.1297 .2426-.0876 .134,.0421 .3697,.2745 .3697,.2745z"/>
<path d="m364.53,427.32c0,.01 .2329,.0952 .3654,.0531s.2398-.1495 .2398-.24c0-.0905-.1074-.1297-.2398-.0876-.1325,.0421-.3654,.2745-.3654,.2745z"/>
<path d="m364.51,427.32c.01-.0006 .1883,.2067 .2015,.3304 .0133,.1237-.0474,.2287-.1356,.2344-.0884,.005-.1704-.0899-.1837-.2135-.0133-.1237 .1178-.3513 .1178-.3513z"/>
<path d="m364.51,427.33c-.0101,.0006-.1674-.2067-.1682-.3304-.0008-.1237 .0704-.2287 .1593-.2344 .0889-.005 .1614,.0899 .1622,.2135 .0008,.1237-.1533,.3513-.1533,.3513z"/>
</g>
<g fill="none" stroke="#efa" stroke-linecap="round" stroke-width=".02" transform="matrix(15.79269 -1.8468 1.86554 15.95308 -6507.45308 -6042.45936)">
<path d="m363.82,430.18c.2195-.0444 .2861-.0818 .73-.0822"/>
<path d="m364.46,430.13c.2327,.006 .435,.0678 .6037,.1334"/>
</g>
<g transform="matrix(44.184 0 0 44.184 -16355.183 -18898.236)">
<path fill="url(#linearGradient4325)" d="m370.47,431h1.6771l-.3776,1.4406c-.389,.1155-.6538,.0672-.9044,0z"/>
</g>
</svg>
