<svg xmlns="http://www.w3.org/2000/svg" viewBox="0 0 490.513 280.842" xmlns:xlink="http://www.w3.org/1999/xlink">
<defs>
<linearGradient id="linearGradient9334">
<stop offset="0"/>
<stop offset="1" stop-color="#c0c0be" stop-opacity=".99"/>
</linearGradient>
<linearGradient id="linearGradient5932">
<stop offset="0" stop-color="#554d5f"/>
<stop offset="1" stop-color="#fff"/>
</linearGradient>
<linearGradient gradientTransform="matrix(1.3066 0 0 1.1029 -825.24 -9.2318)" id="linearGradient10490" xlink:href="#linearGradient5898" x1="863.3" gradientUnits="userSpaceOnUse" x2="871.26"/>
<linearGradient id="linearGradient3576">
<stop offset="0" stop-color="#441712"/>
<stop offset="1" stop-color="#995727"/>
</linearGradient>
<linearGradient gradientTransform="matrix(.92334 0 0 1.0862 204.58 -11.659)" id="linearGradient10478" xlink:href="#linearGradient9334" y1="133.34" y2="129.57" x1="28.833" gradientUnits="userSpaceOnUse" x2="31.176"/>
<linearGradient gradientTransform="matrix(.94477 0 0 1.128 -473.88 -16.137)" id="linearGradient10480" xlink:href="#linearGradient3576" x1="387.19" gradientUnits="userSpaceOnUse" x2="851.05"/>
<linearGradient gradientTransform="matrix(.62707 0 0 .65422 -235.59 127.81)" id="linearGradient10498" xlink:href="#linearGradient5898" x1="863.3" gradientUnits="userSpaceOnUse" x2="871.26"/>
<linearGradient id="linearGradient5898">
<stop offset="0" stop-color="#ddb35f"/>
<stop offset="1" stop-color="#66241f"/>
</linearGradient>
<linearGradient gradientTransform="matrix(.98637 0 0 1.0171 -428.68 -4.7408)" id="linearGradient10486" xlink:href="#linearGradient3576" y1="206.05" y2="40.854" x1="354.43" gradientUnits="userSpaceOnUse" x2="483.72"/>
<linearGradient gradientTransform="matrix(.97002 0 0 1.0193 -573.78 12.045)" id="linearGradient10488" xlink:href="#linearGradient3576" y1="103.98" y2="-37.997" x1="877.49" gradientUnits="userSpaceOnUse" x2="950.52"/>
<linearGradient gradientTransform="matrix(.95769 0 0 1.0363 -492.95 -77.93)" id="linearGradient10482" xlink:href="#linearGradient3576" y1="318.47" y2="278.21" x1="662.97" gradientUnits="userSpaceOnUse" x2="860.9"/>
<linearGradient gradientTransform="matrix(.944 0 0 1.4485 -504.06 -396.44)" spreadMethod="reflect" id="linearGradient10492" xlink:href="#linearGradient5932" y1="281.1" y2="348.25" x1="623.89" gradientUnits="userSpaceOnUse" x2="687.21"/>
<linearGradient gradientTransform="matrix(.94748 0 0 1.0791 -2.137 1.7552)" id="linearGradient10494" xlink:href="#linearGradient3576" y1="50.68" y2="-11.4" x1="62.008" gradientUnits="userSpaceOnUse" x2="64.386"/>
<linearGradient gradientTransform="matrix(1.3066 0 0 1.1029 -825.24 44.768)" id="linearGradient10496" xlink:href="#linearGradient5898" x1="863.3" gradientUnits="userSpaceOnUse" x2="871.26"/>
<linearGradient spreadMethod="reflect" id="linearGradient10484" y1="153.18" y2="258.31" x1="69.217" gradientUnits="userSpaceOnUse" x2="103.19">
<stop offset="0" stop-color="#fffffa"/>
<stop offset="1" stop-color="#c5c5c0"/>
</linearGradient>
<linearGradient gradientTransform="matrix(1.1427 0 0 1.4485 -639.28 -402.44)" spreadMethod="reflect" id="linearGradient10500" xlink:href="#linearGradient5932" y1="281.1" y2="348.25" x1="623.89" gradientUnits="userSpaceOnUse" x2="687.21"/>
<linearGradient gradientTransform="matrix(.91883 0 0 1.2142 -488.07 -210.52)" spreadMethod="reflect" id="linearGradient10502" xlink:href="#linearGradient5932" y1="281.1" y2="348.25" x1="623.89" gradientUnits="userSpaceOnUse" x2="687.21"/>
<linearGradient gradientTransform="matrix(1.1296 0 0 1.2923 -629.77 -215.61)" spreadMethod="reflect" id="linearGradient10504" xlink:href="#linearGradient5932" y1="281.1" y2="348.25" x1="623.89" gradientUnits="userSpaceOnUse" x2="687.21"/>
<linearGradient gradientTransform="matrix(.34046 0 0 1 130.29 .43129)" id="linearGradient10522" xlink:href="#linearGradient9334" y1="134.2" y2="133.56" x1="17.225" gradientUnits="userSpaceOnUse" x2="30.046"/>
<linearGradient id="linearGradient10508" xlink:href="#linearGradient9334" y1="133.99" y2="136.79" x1="1.402" gradientUnits="userSpaceOnUse" x2="3.127"/>
<linearGradient gradientTransform="matrix(.88701 0 0 .96774 18.928 4.5413)" id="linearGradient10510" xlink:href="#linearGradient9334" y1="133.99" y2="136.79" x1="1.402" gradientUnits="userSpaceOnUse" x2="3.127"/>
<linearGradient gradientTransform="matrix(.71751 0 0 1 39.633 .43129)" id="linearGradient10512" xlink:href="#linearGradient9334" y1="133.99" y2="136.79" x1="1.402" gradientUnits="userSpaceOnUse" x2="3.127"/>
<linearGradient gradientTransform="matrix(.67666 0 0 1 194.16 .43129)" id="linearGradient10530" xlink:href="#linearGradient9334" y1="133.34" y2="129.57" x1="28.833" gradientUnits="userSpaceOnUse" x2="31.176"/>
<linearGradient spreadMethod="reflect" id="linearGradient10506" xlink:href="#linearGradient9334" y1="148.15" y2="114.69" x1="-12.916" gradientUnits="userSpaceOnUse" x2="161.66"/>
<linearGradient gradientTransform="matrix(.32882 0 0 1 98.608 .43129)" id="linearGradient10518" xlink:href="#linearGradient9334" y1="133.56" y2="136.79" x1="1.074" gradientUnits="userSpaceOnUse" x2="3.127"/>
<linearGradient gradientTransform="matrix(.19788 0 0 1 118.22 .43129)" id="linearGradient10520" xlink:href="#linearGradient9334" y1="133.56" y2="140.57" x1="1.074" gradientUnits="userSpaceOnUse" x2="9.038"/>
<linearGradient gradientTransform="matrix(.59887 0 0 1 58.507 .43129)" id="linearGradient10514" xlink:href="#linearGradient9334" y1="133.99" y2="136.79" x1="1.402" gradientUnits="userSpaceOnUse" x2="3.127"/>
<linearGradient gradientTransform="matrix(.34046 0 0 1 148.29 .43129)" id="linearGradient10524" xlink:href="#linearGradient9334" y1="133.67" y2="129.89" x1="22.609" gradientUnits="userSpaceOnUse" x2="27.829"/>
<linearGradient gradientTransform="matrix(.51538 0 0 1 161.79 .43129)" id="linearGradient10526" xlink:href="#linearGradient9334" y1="133.23" y2="129.89" x1="24.91" gradientUnits="userSpaceOnUse" x2="27.829"/>
<linearGradient gradientTransform="matrix(.51538 0 0 1 179.79 .43129)" id="linearGradient10528" xlink:href="#linearGradient9334" y1="133.34" y2="129.57" x1="28.833" gradientUnits="userSpaceOnUse" x2="31.176"/>
<linearGradient gradientTransform="matrix(.48305 0 0 1 78.357 .43129)" id="linearGradient10516" xlink:href="#linearGradient9334" y1="133.99" y2="136.79" x1="1.402" gradientUnits="userSpaceOnUse" x2="3.127"/>
</defs>
<g color="#000" transform="translate(121.99 12.199)">
<path opacity=".539" fill="#d2b589" d="m-43.54,21.725h320.79v167.79h-320.79z"/>
<path opacity=".539" fill="#ffffe7" d="m-32.4708,25.973h299.5138a2.5732,3.8154 0 0,1 2.573,3.8154v149.9896a2.5732,3.8154 0 0,1 -2.573,3.815h-299.5138a2.5732,3.8154 0 0,1 -2.5732-3.815v-149.9896a2.5732,3.8154 0 0,1 2.5732-3.8154"/>
</g>
<g transform="translate(121.99 12.199)">
<path fill="url(#linearGradient10478)" fill-rule="evenodd" d="m213.92,120.3l28.41,20.37 3.07-.11-27.5-20.26h-3.98z"/>
<path fill="url(#linearGradient10480)" d="m329.69,243.13v-8.15h-437.29v16.3h437.29v-8.15z"/>
<path fill="url(#linearGradient10482)" d="m331.04,236.1c-.37-.37-13.88-12.24-30.03-26.37l-29.37-25.69-154.07-.02-154.08-.02-7.784,5.56c-4.279,3.06-9.354,6.69-11.277,8.07-1.922,1.38-14.577,10.44-28.12,20.14-13.544,9.7-24.809,17.95-25.039,18.32-.26,.43 80.509,.68 220.01,.68 137.61,0 220.17-.25 219.76-.67z"/>
<path fill="url(#linearGradient10484)" d="m283.92,222.31c.98-1.01 .9-2.67-6.67-9.98-5.19-5-9.7-8.71-11.9-9.77l-3.54-1.71-143.03-.01c-129.34,0-143.35,.11-146.33,1.14-1.83,.64-7.801,4.52-13.463,8.75-11.223,8.39-13.578,10.06-12.551,8.86l28.263-18.11 142.95-1.19 141.74,.62 6.82,1.53c2.44,1.35 7.97,6.81 12.32,11.06 4.14,4.02 6.31,10.65 7.32,5.91 .04-.22-1.41,2.58-.4,.83 .6-1.05-18.4-16.86-21.41-18.57-2.05-1.16-4.22-1.03-140.63-1.03 0,0-124.14-.25-135.03-.2-10.689,.05-9.992-1.33-20.401,3.62-3.755,1.78-20.682,14.13-21.491,15.63-.816,1.51-.606,1.54 1.168,2.43 1.087,.54 50.288,.73 168.66,.64 150.54-.12 166.63,.56 167.6-.45z"/>
<path fill="url(#linearGradient10486)" d="m-47.511,193.02l5.153-3.51v-186.89l-7.381,.1995-7.381,.1994-1.574,14.698c-7.085,66.135-6.284,126.89 2.325,176.55 .568,3.27 2.668,2.98 8.858-1.25z"/>
<path fill="url(#linearGradient10488)" d="m332.09,195.9l1.99-1.69v-187.36l-1.96-1.9449-1.97-1.9448-18.92-.2331c-10.42-.1282-22.2-.0192-26.18,.2422l-7.25,.4754-.02,93.293c0,51.307-.17,93.547-.36,93.857s1.32,2.01 3.37,3.77l3.72,3.2 22.8,.02 22.79,.02 1.99-1.7z"/>
<path fill="#e1cdbe" d="m317.48,79.648c9.46-5.499 10.98-19.208 3.01-27.117-3.33-3.308-7.16-4.845-12.09-4.855-18.08-.037-24.34,22.91-8.84,32.424 4.75,2.921 12.45,2.727 17.92-.452z"/>
<path fill="url(#linearGradient10490)" d="m311.94,78.684c.7-1.302 1.14-6.8 1.17-14.609 .05-14.074-.56-15.938-5.2-15.938-2.43,0-2.91,.37-3.69,2.846-2.43,7.658-1.8,26.129 .97,28.79 1.87,1.786 5.52,1.196 6.75-1.089z"/>
<path fill="url(#linearGradient10492)" d="m236.17,37.391c.23-.87 .42-2.443 .42-3.494 0-1.877-2.06-1.912-112.68-1.912s-112.68,.035-112.68,1.912c-.005,1.051 .181,2.612 .408,3.467 .371,1.401 11.554,1.559 112.26,1.583 101.54,.024 111.88-.119 112.27-1.556z"/>
<path fill="url(#linearGradient10494)" d="m277.92,12.688l.06-9.6535h-320.95l-.004,9.6535v9.653h320.83l.06-9.653z"/>
<path opacity=".539" fill="#652d2d" color="#000" d="m59.181,37.87h130.78a14.255,12.311 0 0,1 14.255,12.311v87.948a14.255,12.311 0 0,1 -14.255,12.311h-130.78a14.255,12.311 0 0,1 -14.255-12.311v-87.948a14.255,12.311 0 0,1 14.255-12.311"/>
</g>
<g fill="#e1cdbe" transform="translate(121.99 12.199)">
<path d="m317.39,133c9.29-5.5 10.79-19.21 2.96-27.12-3.28-3.31-7.04-4.85-11.89-4.86-17.76-.03-23.91,22.91-8.68,32.43 4.67,2.92 12.24,2.73 17.61-.45z"/>
<path d="m317.63,185.65c9.29-5.5 10.78-19.21 2.95-27.12-3.28-3.31-7.04-4.84-11.88-4.85-17.77-.04-23.91,22.91-8.69,32.42 4.68,2.92 12.24,2.73 17.62-.45z"/>
</g>
<g transform="translate(121.99 12.199)">
<path opacity=".539" fill="#fffbe6" color="#000" d="m368.2,188.22a7.5404,8.1095 0 1,1 -.06-.99" transform="matrix(1.3208 0 0 1.2807 -167.9 -70.192)"/>
<path fill="url(#linearGradient10496)" d="m311.94,132.68c.7-1.3 1.14-6.8 1.17-14.61 .05-14.07-.56-15.93-5.2-15.93-2.43,0-2.91,.37-3.69,2.84-2.43,7.66-1.8,26.13 .97,28.79 1.87,1.79 5.52,1.2 6.75-1.09z"/>
<path fill="url(#linearGradient10498)" d="m310.19,179.96c.33-.77 .54-4.03 .56-8.66 .02-8.35-.27-9.46-2.49-9.46-1.17,0-1.4,.22-1.78,1.69-1.16,4.54-.86,15.5 .47,17.08 .9,1.06 2.65,.71 3.24-.65z"/>
<path fill="url(#linearGradient10500)" d="m256.78,31.391c.28-.87 .51-2.443 .51-3.494 0-1.877-2.5-1.912-136.4-1.912-133.91,0-136.4,.035-136.4,1.912-.005,1.051 .22,2.612 .495,3.467 .45,1.401 13.986,1.559 135.9,1.583 122.92,.024 135.44-.119 135.9-1.556z"/>
<path fill="url(#linearGradient10502)" d="m232.42,153.15c.23-.73 .41-2.05 .41-2.93 0-1.58-2-1.61-109.68-1.61-107.67,0-109.67,.03-109.67,1.61-.002,.88 .179,2.19 .399,2.9 .362,1.18 11.247,1.31 109.27,1.33 98.83,.02 108.9-.1 109.27-1.3z"/>
<path fill="url(#linearGradient10504)" d="m255.98,171.44c.28-.78 .51-2.18 .51-3.12 0-1.68-2.47-1.71-134.84-1.71-132.36,0-134.83,.03-134.83,1.71 0,.94 .223,2.33 .494,3.09 .445,1.25 13.826,1.39 134.33,1.41 121.51,.03 133.89-.1 134.34-1.38z"/>
</g>
<g fill-rule="evenodd" transform="translate(121.99 12.199)">
<path fill="url(#linearGradient10506)" d="m222.94,109.78c-4.6,2.11-3.31,7.36-8.04,8.92-62.55,.73-123.63,.36-186.19,.22-4.441-1.8-4.051-10.42-12.679-9.39-13.317,5.46-25.996,8.99-39.031,14.41-4.443,.83-5.87,1.55-7.969,5.53 3.207,4.57 7.688,2.24 11.5,5.75 1.64,5.36 6.383,9.51 12.219,9.31 83.28-.28 166.61,.47 249.87,.06 8.26-1.02 7.2-11.45 15.44-12.5 2.74,.44 4.01-.26 4.69-.62 .21-.12 .37-.3 .47-.5 .63-1.42-.8-3.01-4.98-5.82-11.56-6.08-20.76-12.66-32.74-16.03-.4-.03-2.22,.62-2.56,.66zm-205.45,2.37l2.788,1.23 3.005,5.76 4.875,2.36 177,.43 12.22-1.02 2.28-1.44 2.78-5.82 4.34-1.77 28.53,15.78-1.5,.37-4.87,4.13-3.38,7.12-6.4,1.5-249.66-.37s-2.816,.14-4.156-4.13c-1.417-4.52-4.125-6.75-4.125-6.75l-3.407-1.09-1.468,.72 1.468-.72 8.657-4.16 31.024-12.13z" transform="translate(0 -.00001)"/>
<path fill="url(#linearGradient10508)" d="m26.309,120.73l-35.797,19.51 4.4204,.54 33.749-19.3-2.372-.75z"/>
<path fill="url(#linearGradient10510)" d="m42.264,121.37l-31.213,19.64 3.382-.23 29.935-18.68-2.104-.73z"/>
<path fill="url(#linearGradient10512)" d="m58.509,121.16l-25.684,19.51 3.171,.54 24.215-19.3-1.702-.75z"/>
<path fill="url(#linearGradient10514)" d="m74.262,121.16l-21.437,19.51 2.647,.54 20.211-19.3-1.421-.75z"/>
<path fill="url(#linearGradient10516)" d="m89.879,121.27l-16.105,19.4 2.89,.54 15.008-19.41-1.793-.53z"/>
<path fill="url(#linearGradient10518)" d="m105.91,121.27l-10.422,19.4 2.507,.43 9.675-19.3-1.76-.53z"/>
<path fill="url(#linearGradient10520)" d="m121.54,121.48l-5.2,19.19 3.02,.33 4.31-19.2-2.13-.32z"/>
<path fill="url(#linearGradient10522)" d="m137.31,121.37l.1,19.95 2.49-.32-.66-19.2-1.93-.43z"/>
<path fill="url(#linearGradient10524)" d="m153.15,121.7l5.71,19.08 2.27-.11-5.94-18.97h-2.04z"/>
<path fill="url(#linearGradient10526)" d="m169.15,121.7l11.01,18.87 2.15,.21-11.26-18.65-1.9-.43z"/>
<path fill="url(#linearGradient10528)" d="m185,121.91l15.86,18.76 1.71-.1-15.35-18.66h-2.22z"/>
<path fill="url(#linearGradient10530)" d="m201,121.91l20.82,18.76 2.25-.1-20.15-18.66h-2.92z"/>
</g>
<g fill="none" stroke-linecap="round">
<g transform="translate(121.99 12.199)">
<path stroke="#ffffe6" stroke-width=".706" d="m18.564,148.89v-4.06m0-3.77v-2.48m0-2.51v-8.7m-.375-17.7l.375-71.264m210.88,110.89v-4.47m-.2-4.57l.4-7.93m-1.41-23.53l1.21-70.394m-258.85,95.514c-3.046,4.19-.381,13.14 3.807,13.71m7.613-9.71c.381,4.19-.38,6.09-2.094,7.8-1.713,1.72-4.568,3.05-4.188,5.33m7.552-22.11l32.169-14.08m2.983-2.26s-.224,11.25-.104,12.09m.471-5.3l-31.643,15.83m275.95-1.37c2.67,4.44-.76,13.11-4.99,13.32m-6.13-9.73c-.74,4.14-.76,5.5 .8,7.35 1.56,1.86 4.29,3.43 3.71,5.68m-5.6-22.69l-26.24-14.33m-3.62,4.61l25.46,15.63"/>
<path stroke="#ebe9e4" stroke-width=".432" d="m44.1,41.325c36.196,24.13 119.81,23.289 152.36,0m-153.64,1.917c25.721,17.147 75.008,22 113.62,15.183 5.16-.912 10.13-2.032 14.83-3.356m5-1.523c8.4-2.752 15.75-6.211 21.53-10.348m-156.69,2.61c3.367,2.245 7.131,4.286 11.216,6.124m8.317,3.313c8.782,3.094 18.622,5.406 28.961,6.939m5.483,.736c20.492,2.462 42.502,1.964 61.882-1.458 12.12-2.14 23.21-5.426 32.31-9.761m4.03-2.065c2.25-1.237 4.35-2.548 6.29-3.93m-152.72,92.634c1.993-1.18 7.342-3.92 11.528-5.2m9.575-3.44c4.466-2.19 7.364-2.82 11.755-3.31m8.933-1.49c5.405-1.05 9.737-1.63 15.45-2.21m2.83,.12c5.03-.45 4.82-.37 9.93-.46m6.66-.26c4.93-.05 5.12,.3 9.99,.59m5.92,.24c5.25,.35 6.5,.78 11.53,1.52m5.02,.79c6.17,.98 9.21,1.8 14.75,3.36m4.9,1.6c7.75,2.38 12.46,4.54 18.12,8.1m-150.95-.11c4.37-2.92 12.124-7.9 22.381-11.1m5.845-.74c2.882-1.01 4.87-2.06 10.885-2.71m73.337-.74c-.71,.2-.21-.14 1.17,.1 4.36,.77 8.59,1.69 12.63,2.76m5.38,1.1c10.34,2.95 16.53,6.49 23.35,11.37m-152.3-4.23c6.157-4.1 9.245-5.91 17.596-8.65m108.99-2.32c7.93,2.06 12.37,4.27 18.62,7.4"/>
</g>
<g stroke="#000">
<g transform="translate(121.99 12.199)">
<path stroke-width="1.13" d="m-34.913,26.686h304.7v156.82h-304.7l-.003-156.82m-7.628-3.931h319.96v164.68h-3.05"/>
<path stroke-width=".706" d="m-40.493,187.44h-2.048v-164.68m0-.001v-6.728h319.96"/>
<path stroke-width="1.13" d="m277.42,22.759 0-6.728"/>
<path stroke-width=".706" d="m-42.541,16.031 0-12.4603"/>
<path stroke-width="1.13" d="m277.42,16.031 0-12.8663"/>
<path stroke-width="1.699" d="m-34.913,183.51l-73.117,51.43m377.82-51.43l59.98,51.43"/>
<path stroke-width=".706" d="m-108.03,234.94 437.8,0"/>
<path stroke-width="1.699" d="m-108.03,234.94v15.89h437.8m0-15.89v15.89m3.81-240.53c0-3.9753-3.22-7.1983-7.19-7.1983h-.01m0,.001l-384.02,.487m384.08,192.45c3.95,0 7.14-3.2 7.14-7.14m-7.14,7.14h-42.04m49.18-185.74v178.6m-391.23-185.18c-10.896,91.3-6.177,146.05 1.061,192.33h3.855"/>
<path stroke-width="1.13" d="m326.25,64.928c0-9.983-8.09-18.076-18.08-18.076-9.98,0-18.07,8.093-18.07,18.076s8.09,18.076 18.07,18.076c9.99,0 18.08-8.093 18.08-18.076m-18.08-15.35h1.9c.67,.122 1.1,1.28 1.53,2.743 .35,1.197 1.06,7.047 1.34,12.607m-4.77-15.35h-1.9c-.67,.122-1.09,1.28-1.52,2.743-.35,1.197-1.06,7.047-1.35,12.607m6.67,15.349c.67-.122 1.1-1.28 1.53-2.742 .35-1.197 1.06-7.048 1.34-12.607m-4.77,15.349h-1.9c-.67-.122-1.09-1.28-1.52-2.742-.35-1.197-1.06-7.048-1.35-12.607m6.67,15.349h-1.9m18.08,37.303c0-9.99-8.09-18.078-18.08-18.078-9.98,0-18.07,8.088-18.07,18.078 0,9.98 8.09,18.07 18.07,18.07 9.99,0 18.08-8.09 18.08-18.07m-18.08-15.35h1.9c.67,.12 1.1,1.28 1.53,2.74 .35,1.2 1.06,7.05 1.34,12.61m-4.77-15.35h-1.9c-.67,.12-1.09,1.28-1.52,2.74-.35,1.2-1.06,7.05-1.35,12.61m6.67,15.35c.67-.13 1.1-1.28 1.53-2.75 .35-1.19 1.06-7.04 1.34-12.6m-4.77,15.35h-1.9c-.67-.13-1.09-1.28-1.52-2.75-.35-1.19-1.06-7.04-1.35-12.6m6.67,15.35h-1.9m18.08,38.23c0-9.98-8.09-18.07-18.08-18.07-9.98,0-18.07,8.09-18.07,18.07 0,9.99 8.09,18.08 18.07,18.08 9.99,0 18.08-8.09 18.08-18.08m-18.08-9.28h1.15c.41,.08 .66,.78 .92,1.66 .21,.73 .65,4.26 .82,7.62m-2.89-9.28h-1.14m-.01,0c-.4,.08-.66,.78-.92,1.66-.21,.73-.64,4.26-.81,7.62m4.03,9.28c.41-.07 .66-.77 .92-1.65 .21-.73 .65-4.26 .82-7.63m-2.89,9.28h-1.14m-.01,0c-.4-.07-.66-.77-.92-1.65-.21-.73-.64-4.26-.81-7.63m4.03,9.28h-1.15"/>
</g>
<g stroke-width=".706" transform="translate(121.99 12.199)">
<path d="m318.49,171.16c0-5.69-4.62-10.32-10.32-10.32s-10.32,4.63-10.32,10.32c0,5.7 4.62,10.32 10.32,10.32s10.32-4.62 10.32-10.32"/>
<path d="m28.978,144.83l-5.318,4.06m-6.179,4.7l-18.283,13.93m-7.2186,5.5l-13.769,10.49m249.88-29.92l15.12,13.93"/>
</g>
<g transform="translate(121.99 12.199)">
<path stroke-width="1.13" d="m249.18,173.02l11.39,10.49m-274.23-150.78h269.44"/>
<path stroke-width=".706" d="m-13.659,32.733c-2.396,.076-2.444-5.709-.831-5.947"/>
<path stroke-width="1.13" d="m-12.736,32.733v2.021h-7.92v-8.068"/>
<path stroke-width=".706" d="m13.064,38.406c-2.127,.068-2.403-4.484-1.311-5.673"/>
<path stroke-width="1.13" d="m13.987,38.406v2.021h-7.9196v-7.694"/>
<path stroke-width=".706" d="m255.71,32.733c2.4,.076 2.45-5.709 .83-5.947"/>
<path stroke-width="1.13" d="m254.79,32.733v2.021h7.92v-8.068"/>
<path stroke-width=".706" d="m234.94,38.406c2.13,.068 2.41-4.484 1.31-5.673"/>
<path stroke-width="1.13" d="m234.02,38.406v2.021h7.92v-7.694"/>
<path stroke-width=".706" d="m-11.665,167.52 266.755,0"/>
<path stroke-width="1.13" d="m-11.706,173.02 266.956,0"/>
<path stroke-width=".706" d="m-11.665,167.52c-1.612,.07-1.777,5.44-.041,5.5"/>
<path stroke-width="1.13" d="m-11.006,165.24v2.28m0,5.5v1.31h-8.674"/>
<path stroke-width=".706" d="m-11.006,165.24h-8.674v9.09m34.444-25.44c-1.38,.06-1.521,4.65-.036,4.7"/>
<path stroke-width="1.13" d="m15.328,146.93v1.96m0,4.7v1.12h-7.4236"/>
<path stroke-width=".706" d="m15.328,146.93h-7.4236v7.78"/>
<path stroke-width="1.13" d="m14.728,153.59 216.972,0"/>
<path stroke-width=".706" d="m14.764,148.89h216.88m23.5,18.63c1.61,.07 1.77,5.44 .04,5.5"/>
<path stroke-width="1.13" d="m254.48,165.24v2.28m0,5.5v1.31h8.67"/>
<path stroke-width=".706" d="m254.48,165.24h8.67v9.09m-31.47-25.44c1.38,.06 1.53,4.65 .04,4.7"/>
<path stroke-width="1.13" d="m231.12,146.93v1.96m0,4.7v1.12h7.42"/>
<path stroke-width=".706" d="m231.12,146.93h7.42v7.78"/>
<path stroke-width="1.699" d="m57.954,38.406c-7.392,0-13.384,5.993-13.384,13.384"/>
<path stroke-width="1.13" d="m13.064,38.406 44.89,0"/>
<path stroke-width=".878" d="m203.53,51.087c0-7.514-6.59-12.681-13.64-12.681"/>
<path stroke-width="1.13" d="m57.954,38.406h131.96m.01,0h45.03"/>
<path stroke-width=".706" d="m44.57,138.27c0,1 .112,1.98 .309,2.83m1.445,3.74c.958,1.67 2.224,3.04 3.615,4.05"/>
<path stroke-width="1.699" d="m44.57,138.27v-4.27m0-2.43v-9.85m0-2.55v-67.38"/>
</g>
</g>
<g transform="translate(121.99 12.199)">
<path stroke="#020000" stroke-width=".765" d="m197.44,148.88c1.82-1.15 3.27-2.56 4.26-4.06"/>
<path stroke="#fff3f0" stroke-width=".706" d="m203.22,141.02c.21-.97 .31-1.94 .3-2.8"/>
<path stroke="#000" stroke-width="1.069" d="m203.52,140.03v-15.33"/>
<path stroke="#fff3f0" stroke-width=".706" d="m203.52,122.35v-.63"/>
<path stroke="#000" stroke-width="1.006" d="m203.52,118.1v-66.088"/>
</g>
<g stroke="#fff3f0" stroke-width=".706" transform="translate(121.99 12.199)">
<path d="m-29.304,63.042c0,1.446 4.997,1.697 5.301,6.265 .482,7.229-5.301,6.024-5.06,8.674"/>
<path d="m-30.086,64.102c-3.747,.75-3.447,11.842 1.022,11.469"/>
</g>
<g transform="translate(121.99 12.199)">
<path stroke="#ffffe0" stroke-width="1.13" d="m12.032,61.989c.241,.964 4.905,1.06 5.167,5.63 .286,5.004-4.176,5.058-4.417,6.503"/>
<path stroke="#ffffe6" stroke-width=".706" d="m14.789,69.788l-37.829,1.927m37.443-5.378l-36.625,.723m32.674-4.982l-37.829,.482m38.552,11.565l-38.793,2.65m293.99-13.149c0,1.161-4.01,1.362-4.26,5.03-.38,5.804 4.26,4.837 4.07,6.965m.82-11.143c3.01,.602 2.77,9.508-.82,9.208"/>
<path stroke="#ffffed" stroke-width="1.13" d="m233.18,62.781c-.19,.774-3.94,.851-4.15,4.52-.23,4.018 3.36,4.062 3.55,5.222"/>
<path stroke="#fffff1" stroke-width=".706" d="m230.97,69.043l30.37,1.547m-30.06-4.318l29.4,.58m-26.23-4l30.37,.387m-30.95,9.286l31.15,2.128"/>
</g>
<g stroke="#000" transform="translate(121.99 12.199)">
<path stroke-width="1.13" d="m-26.133,132.15c4.334-.26 5.842,.62 7.412,3.32 1.725,2.97 .377,9.24 14.95,9.36m-22.58-16.45c3.01-.18 5.021,.18 6.57,.91 1.764,.83 3.08,2.15 4.321,4.29 .449,.77 .78,1.69 1.103,2.7 .296,.92 .521,2.06 1.629,2.92 .501,.39 1.162,.72 2.02,.99 1.6654,.54 3.9124,.84 6.9694,.87m-22.394-8.91c-2.324,.18-4.02-.82-4.208-2.27-.188-1.44-.314-3.33 6.91-5.4m19.66,20.35h240.88m-240.85-3.77h240.74m22.16-8.91c-4.33-.26-5.84,.62-7.41,3.32-1.73,2.97-.38,9.24-14.95,9.36m22.58-16.45c-3.01-.18-5.02,.18-6.57,.91-1.76,.83-3.08,2.15-4.32,4.29-.45,.77-.78,1.69-1.1,2.7-.3,.92-.53,2.06-1.63,2.92-.51,.39-1.17,.72-2.02,.99-1.67,.54-3.92,.84-6.97,.87m22.39-8.91c2.33,.18 4.02-.82 4.21-2.27 .19-1.44-1.06-2.22-6.91-5.4m-279.89,0l34.801-13.34m-34.251,17.27l38.431-15.66"/>
<path stroke-width=".706" d="m11.369,111.14s2.921-1.3 4.46-1.54m2.67,2.82c1.399,.27 2.162,1.01 2.947,2.36 1.279,2.2 .279,6.84 11.08,6.94m-16.697-12.12c2.231-.13 3.683,.06 4.831,.6 1.308,.61 2.282,1.59 3.203,3.18 .333,.57 .578,1.25 .817,2 .22,.68 .386,1.53 1.208,2.16 .372,.29 .861,.53 1.497,.74 1.234,.39 2.9,.62 5.165,.64m-.025,2.8h178.52m-178.49-2.8h178.41m14.65-6.64c-1.62-.18-2.55,.5-3.72,2.5-1.27,2.2-.28,6.84-11.08,6.94m16.74-12.2c-1.78-.33-3.72,.14-4.87,.68-1.31,.61-2.28,1.59-3.2,3.18-.34,.57-.58,1.25-.82,2-.22,.68-.39,1.53-1.21,2.16-.37,.29-.86,.53-1.49,.74-1.24,.39-2.9,.62-5.17,.64m-195.24-6.17c1.744-.58 2.345-.58 3.508-.22"/>
<path stroke-width="1.13" d="m256.46,124.48l-25.95-13.84c-1.04-.54-1.61-.95-2.96-1.12m2.19,4.12c2.6,1.4 26.6,14.94 26.6,14.94m-26.6-14.94c-.74-.36-2.39-1.49-4.13-1.36"/>
<path stroke-width=".706" d="m225.07,140.86l-22.27-19.12m19.35,19.22l-21.66-18.98m2.73,19.04l-16.65-19.54m14.53,19.44l-16.46-19.02m-2.09,19.08l-11.83-19.24m9.32,19.1l-11.26-19.07m-7.49,18.96l-6.42-18.87m4.03,19.12l-5.96-19.4m-12.91,19.53l-1.01-19.25m-1.51,19.12l-.37-19.63m-18,19.76l4.11-19.58m-6.75,19.58l4.91-19.25m-23.567,19.14l9.577-19.26m-12.306,19.24l10.186-19.24m-28.515,19.47l14.554-19.35m-17.235,19.12l15.222-19.24m-32.834,19.24l18.997-18.99m-22.017,19.12l19.751-19.25m-37.615,19.12l24.532-19.12m-28.432,19.25l26.293-19.5m157.89-.13l26.16,19m-24.64-19.99l27.41,19.24m-218.02-18.75l-35.98,19.5m38.307-19l-34.785,19.38m-15.089,56.39c-4.914,0-9.452,1.6-13.057,4.28m304.27,.68c-3.53-3.32-8.03-4.97-12.51-4.96m-278.7,0h278.7m-311.81,19.03c-1.104,.82-1.637,1.78-1.631,2.73"/>
<path stroke-width="1.699" d="m-55.478,219.01c0,2.44 3.424,4.41 7.648,4.41"/>
</g>
</g>
<g transform="translate(121.99 12.199)">
<path d="m-53.57,216.41c-1.054,.77-1.064,1.7-1.059,2.6h-1.699c-.006-.99 1.048-2 2.203-2.85l.555,.25"/>
</g>
<g fill="none" stroke="#000" stroke-linecap="round" transform="translate(121.99 12.199)">
<path stroke-width=".706" d="m-33.801,201.53-20.046,14.75"/>
<path stroke-width="1.699" d="m278.82,223.42c4.39,0 7.95-2.05 7.95-4.59"/>
<path stroke-width=".706" d="m286.77,218.83c0-.89-.44-1.72-1.17-2.4"/>
</g>
<g transform="translate(121.99 12.199)">
<path d="m285.92,218.83c0-.79 .04-1.69-.62-2.3l.6-.21c.81,.76 1.72,1.53 1.72,2.51h-1.7"/>
</g>
<g fill="none" stroke-linecap="round">
<g stroke="#000" transform="translate(121.99 12.199)">
<path stroke-width="1.699" d="m-47.83,223.42 326.65,0"/>
<path stroke-width=".706" d="m270.48,202.21l15.12,14.22m-306.34-15.66c-4.914,0-9.452,1.61-13.057,4.29m304.27,.67c-3.53-3.32-8.03-4.96-12.51-4.96m-278.7,0h278.7m-291.76,4.29l-21.227,15.44m325.51-14.77l15.76,14.75m-271.5-79.42c.973-.63 29.834-19.34 29.834-19.34m-33.892,19.34c1.239-.78 30.718-19.45 30.718-19.45"/>
<path stroke-width="1.699" d="m44.57,103.82 0-6.909"/>
</g>
<g transform="translate(121.99 12.199)">
<path stroke="#020000" stroke-width=".887" d="m201.35,144.88c1.07-1.15 1.92-2.56 2.5-4.06"/>
</g>
</g>
</svg>
