<svg xmlns="http://www.w3.org/2000/svg" viewBox="0 0 225.12 267.89" xmlns:xlink="http://www.w3.org/1999/xlink">
<defs>
<filter width="1.155" x="-.078" y="-.265" height="1.53" color-interpolation-filters="sRGB" id="filter5372">
<feGaussianBlur stdDeviation="4.55507"/>
</filter>
<filter width="1.624" x="-.312" y="-.499" height="1.999" color-interpolation-filters="sRGB" id="filter5208">
<feGaussianBlur stdDeviation="6.33742"/>
</filter>
<filter width="1.177" x="-.089" y="-.105" height="1.21" color-interpolation-filters="sRGB" id="filter5072">
<feGaussianBlur stdDeviation="6.17322"/>
</filter>
<filter width="1.434" x="-.217" y="-.086" height="1.172" color-interpolation-filters="sRGB" id="filter5356">
<feGaussianBlur stdDeviation=".95162"/>
</filter>
<filter width="1.994" x="-.497" y="-.271" height="1.542" color-interpolation-filters="sRGB" id="filter5352">
<feGaussianBlur stdDeviation=".95162"/>
</filter>
<filter width="1.322" x="-.161" y="-.144" height="1.287" color-interpolation-filters="sRGB" id="filter5360">
<feGaussianBlur stdDeviation=".95162"/>
</filter>
<filter color-interpolation-filters="sRGB" id="filter5240">
<feGaussianBlur stdDeviation="1.20506"/>
</filter>
<filter width="1.083" x="-.042" y="-.107" height="1.213" color-interpolation-filters="sRGB" id="filter5228">
<feGaussianBlur stdDeviation="2.32755"/>
</filter>
<radialGradient cx="724.97" cy="406.12" gradientTransform="matrix(1.5057 .00604 -.00619 1.5411 -364.1 -224.14)" id="radialGradient5014" r="94.129" gradientUnits="userSpaceOnUse">
<stop offset="0" stop-color="#f00"/>
<stop offset="1" stop-color="#ffd5d5"/>
</radialGradient>
</defs>
<g fill-rule="evenodd">
<g transform="matrix(3.5433 0 0 3.5433 -609.99 -266.88)">
<path fill="url(#radialGradient5014)" d="m728.3,315.12-25.647,4.5673-21.782,10.189-17.215,12.296-21.08,21.08-7.7292,20.377-3.5133,22.836 4.2159,25.647 10.54,25.296 18.62,20.377 21.431,10.54 29.16,8.7832 26.701-2.108 26.35-9.1345 19.674-12.999 15.81-20.377 10.189-20.728 4.5673-21.431-1.054-20.026-5.9726-21.08-12.296-20.377-17.215-16.512-23.89-12.648-16.161-4.5673z" transform="scale(.28222)"/>
<path fill="#d40000" filter="url(#filter5072)" d="m728.3,316.72-23.743,3.8712-22.195,11.872-13.42,9.0327-15.227,16.001-8.5166,14.194-3.8712,14.452 2.8389,25.034 8.5166,24.001 29.679,16.001 30.195,6.9681 32.26-4.6454 30.453-11.872 19.614-22.195 7.7423-20.13 5.9358-22.195-6.452-14.969-21.937-27.614-18.84-11.097-14.71-5.6777z" transform="matrix(.27187 0 0 .27187 6.4885 4.8983)"/>
<path fill="#fff" filter="url(#filter5208)" d="m760.55,376.33-16.775-3.0969-15.485,7.4842-8.2585,12.13 11.872,9.5489 19.872,1.2904 16.517-8.5166s1.2904-7.7423-.2581-9.807c-1.5485-2.0646-7.4842-9.0327-7.4842-9.0327z" transform="scale(.28222)"/>
<path fill="#a00" filter="url(#filter5372)" d="m646.74,454.53 19.098,21.937 23.227,10.581 26.324,8.7746 25.034-1.8066 27.614-9.0327 19.614-12.904-37.937,14.452-36.131,2.3227-35.873-10.581-16.259-12.13z" transform="matrix(.28222 0 0 .28222 0 -1.1289)"/>
<path fill="#800000" filter="url(#filter5228)" d="m724.44,353.07-27.755,.3513-21.431,5.9726-11.594,5.9726-8.0806,12.648 15.458-10.891 18.972-7.3779 23.188-1.7566h9.4859l8.4319,14.053 9.8372,14.756 11.242,12.296-9.8372-14.756-5.2699-31.62 15.107-1.054 20.026,4.5673 8.7832,5.6212 8.4319,7.3779-7.7292-10.54-8.0806-5.2699-25.647-6.6752z" transform="scale(.28222)"/>
<path fill="#668000" filter="url(#filter5240)" d="m716.71,337.96-28.458-17.215-14.404-.3513-11.594,3.5133-2.108,10.54 4.2159-9.1345 10.189-2.108 17.918,7.7292 16.512,17.918-23.89-5.2699-5.6212,2.108-21.782,12.648-4.5673,9.8372-2.108,8.7832 7.0266-12.648 11.594-7.0266 16.864-6.3239 15.458,2.108 15.458,5.6212 11.945-.3513 11.945,8.4319 6.6752,5.9726 5.2699,9.4859 3.162,6.3239-1.4053,6.3239 3.5133-5.6212-3.162-9.1345-2.8106-9.4859-9.1345-11.594-5.2699-5.6212 20.728-7.3779 20.377-4.5673 11.243,3.162 5.6212,7.0266v6.3239l2.8106-4.9186-4.9186-9.4859-10.891-7.0266-10.891-2.108-9.8372,.7027-10.189,4.9186-14.404,.3513 2.8106-18.972 3.5133-10.891 3.162-5.6212 6.6752,1.4053-4.9186-4.5673-8.7832,2.4593-4.9186,7.3779-8.0806,16.864-1.4053-7.3779h-5.9726l-2.8106,3.5133z" transform="scale(.28222)"/>
</g>
<g fill="#450" transform="matrix(3.5433 0 0 3.5433 -609.99 -266.88)">
<path filter="url(#filter5360)" d="m723.96,354.83-6.893-5.9357-1.1488-9.9566-6.1272,1.3403 .1915,6.5101 5.1698,4.021z" transform="scale(.28222)"/>
<path filter="url(#filter5352)" d="m729.13,337.79 1.7233,8.4248 2.8721-2.6806z" transform="scale(.28222)"/>
<path filter="url(#filter5356)" d="m723.39,324.38h-3.638l-1.1488,16.275 2.4892,10.148 5.7442,.1915 2.2977-1.1488-4.5954-12.829z" transform="scale(.28222)"/>
</g>
</g>
</svg>
