<svg xmlns="http://www.w3.org/2000/svg" viewBox="0 0 62.065 60.776" xmlns:xlink="http://www.w3.org/1999/xlink">
<g fill-rule="evenodd" transform="matrix(.62752 -.02436 .01439 .65547 -101.1236 -158.31)">
<path fill="#9c151c" d="m206.82,249.85c1.23,3.52-.46,12.33 .84,14.48 1.38,2.28 18.95-1.21 29,5.86s21.75,26.02 13.93,42.5c-7.83,16.48-32.41,29.07-46.12,29.08-24.73-.19-39.52-6.9-48.27-31.38-2.23-9.41-2.75-12.12-.15-22.37 6.4-20.23 22.77-22.88 41.51-25.29 7.66-1.21-2.57-11.76 .91-13.18 2.93-.27 8.39-.97 8.35,.3z"/>
<path fill="#e10119" d="m205.1,251c1.18,3.35-.44,12.05 3.02,14.41 3.09,2.12 18.04-1.15 27.61,5.59 9.58,6.73 20.71,24.77 13.26,40.46-7.45,15.7-30.85,27.69-43.91,27.69-23.54-.18-37.63-6.57-45.96-29.88-2.12-8.96-2.62-11.54-.14-21.3 6.09-19.26 21.68-21.78 39.52-24.07 7.3-1.16-2.44-11.21 .87-12.56 2.79-.26 5.77-1.55 5.73-.34z"/>
</g>
<g transform="matrix(.62752 -.02436 .01439 .65547 -101.1236 -158.31)">
<path opacity=".347" fill="#9c151c" d="m190.14,267.6c-17.38,2.18-29.73,19.25-27.61,38.08s17.92,32.33 35.29,30.15c.39,1.98-20.65-15.41-24.13-31.34-1.92-17.05 4.05-32.65 18.84-37.07-.79,.03-1.6,.08-2.39,.18z"/>
<path opacity=".347" fill="#fcaf3e" d="m219.38,271.37c-2.23,0-4.39,.27-6.47,.75 7.64,6.12 12.81,17.84 12.81,31.25 0,7.64-1.68,14.69-4.53,20.5 14.36-.89 25.75-12.29 25.75-26.22 0-14.5-12.36-26.28-27.56-26.28z"/>
</g>
<g fill-rule="evenodd">
<g transform="matrix(.62752 -.02436 .01439 .65547 -101.1236 -158.31)">
<path fill="#639f1b" d="m199.98,251.48c-.18,1.31 1.34,6.97 1.58,9.21 .23,2.23 .83,3.1-1.53,3.49-2.36,.4-4.22,.8-6.36,.8-2.13,0-4.16-.33-5.3,1.28-1.14,1.62-2.39,2.9-3.31,4.44-.92,1.55 1.39,.55 3.1,.42 1.72-.14 6.25-2.91 7.35-1.23 1.09,1.68-2.11,10.92-.79,11.31 1.31,.4 5.96-8.85 8.68-8.94s6.18,8.29 7.63,8.42c1.44,.13 0-7.37 1.05-7.63s4.47,6.14 5.26,6.05-.74-6-.53-6.58c.22-.57 3.37,1.09 1.89-.46-1.48-1.56-1.22-3.85-4-4.49-2.77-.65-6.97-.81-8.77-3.36-1.79-2.55-.72-10.29-1.47-12.62-.74-.43-3.9-.48-4.48-.11z"/>
</g>
<g fill="#8ae234" transform="matrix(.62752 -.02436 .01439 .65547 -101.1236 -158.31)">
<path opacity=".508" d="m199.44,266.32c2.19,1.29-2.48-4.49-8.86,0-6.46,4.53-3.33,6.3-2.85,4.11 .41-1.88 9.65-5.32 11.71-4.11z"/>
<path opacity=".508" d="m204.52,267.41c-2.15,1.34 2.34-2.92 8.84,1.4 8.97,9.01-5.91-1.99-8.84-1.4z"/>
</g>
<g fill="#77c127" transform="matrix(.62752 -.02436 .01439 .65547 -101.1236 -158.31)">
<path d="m201.02,266l-3.48,4.12-1.27,8.23 4.75-12.35z"/>
<path d="m202.06,266.74l4.59,2.82 3.78,7.42-8.37-10.24z"/>
</g>
</g>
</svg>
