<svg xmlns="http://www.w3.org/2000/svg" viewBox="0 0 110 110" xmlns:xlink="http://www.w3.org/1999/xlink">
<defs>
<filter color-interpolation-filters="sRGB" id="filter4981">
<feGaussianBlur stdDeviation="4.28564"/>
</filter>
<filter color-interpolation-filters="sRGB" id="filter5033">
<feGaussianBlur stdDeviation="4.50849"/>
</filter>
<filter color-interpolation-filters="sRGB" id="filter4993">
<feGaussianBlur stdDeviation="3.33099"/>
</filter>
<filter color-interpolation-filters="sRGB" id="filter5037">
<feGaussianBlur stdDeviation="1.78713"/>
</filter>
<filter color-interpolation-filters="sRGB" id="filter5156">
<feGaussianBlur stdDeviation="1.62319"/>
</filter>
<filter color-interpolation-filters="sRGB" id="filter5017">
<feGaussianBlur stdDeviation="2.40587"/>
</filter>
<filter color-interpolation-filters="sRGB" id="filter5005">
<feGaussianBlur stdDeviation="3.9791"/>
</filter>
<filter width="1.413" x="-.206" y="-.027" height="1.054" color-interpolation-filters="sRGB" id="filter4965">
<feGaussianBlur stdDeviation="3.20809"/>
</filter>
<mask maskUnits="userSpaceOnUse" id="mask5152">
<path fill="#ccc" d="m1413,1835.9c-.2255-6.7429 9.6051-6.0995-11.5-28.178-64.554-33.083-295.63,7.2334-314.18,51.21-9.6931,13.808-4.9893,25.32 13.46,34.64-11.449,15.583-12.01,42.509 22.936,48.854-9.5979,18.709-7.3619,31.113 20.178,30.038 9.999,26.082 14.682,39.984 47.438,37.228 2.4949,28.045 24.509,33.795 34.61,36.276-4.9194,13.669-24.388,17.019 11.564,35.682-31.099,13.181-38.852,29.628-11.262,40.676-13.452,7.543-28.32,23.663-9.0303,38.309-21.752,19.184-7.5423,29.209 12.37,28.614 1.5265,3.7106 1.7713,9.2655 5.7966,9.3808-3.6369,16.532 22.545,19.085 32.544,17.309l4.8842,3.9426c17.873,22.179 20.606,15.358 30.154,21.591 11.863,9.0071 6.0547,14.792 6.5943,21.735 7.4752-6.0918 19.462-7.49 10.656-30.521 6.1979-7.9907 15.151-15.679-18.082-27.991 .9274-15.282-18.737-16.289-38.434-17.273 10.31-12.657 5.1484-24.361-5.6734-35.718 15.984-13.192 43.194-10.118 32.034-42.716-.5141-10.766 62.406-6.5021 47.753-68.707 12.148-.1272 53.538-12.243 20.297-37.642 13.733-15.698 48.154-14.966 29.319-56.53 5.7717-7.8714 41.136,4.1164 5.1008-31.811-1.7698-4.5681 56.604-3.7528 3.5902-46.515 23.175-6.2091 45.732-12.574 16.881-31.883z"/>
</mask>
</defs>
<g transform="matrix(.27037 0 0 .20631 -283.34 -361)">
<g mask="url(#mask5152)">
<path opacity=".7" fill="#ccc" d="m1413,1837.1c-.2255-6.7429 9.6051-6.0995-11.5-28.178-64.554-33.083-295.63,7.2334-314.18,51.21-9.6931,13.808-4.9893,25.32 13.46,34.64-11.449,15.583-12.01,42.509 22.936,48.854-9.5979,18.709-7.3619,31.113 20.178,30.038 9.999,26.082 14.682,39.984 47.438,37.228 2.4949,28.045 24.509,33.795 34.61,36.276-4.9194,13.669-24.388,17.019 11.564,35.682-31.099,13.181-38.852,29.628-11.262,40.676-13.452,7.543-28.32,23.663-9.0303,38.309-21.752,19.184-7.5423,29.209 12.37,28.614 1.5265,3.7106 1.7713,9.2655 5.7966,9.3808-3.6369,16.532 22.545,19.085 32.544,17.309l4.8842,3.9426c17.873,22.179 20.606,15.358 30.154,21.591 11.863,9.0071 6.0547,14.792 6.5943,21.735 7.4752-6.0918 19.462-7.49 10.656-30.521 6.1979-7.9907 15.151-15.679-18.082-27.991 .9274-15.282-18.737-16.289-38.434-17.273 10.31-12.657 5.1484-24.361-5.6734-35.718 15.984-13.192 43.194-10.118 32.034-42.716-.5141-10.766 62.406-6.5021 47.753-68.707 12.148-.1272 53.538-12.243 20.297-37.642 13.733-15.698 48.154-14.966 29.319-56.53 5.7717-7.8714 41.136,4.1164 5.1008-31.811-1.7698-4.5681 56.604-3.7528 3.5902-46.515 23.175-6.2091 45.732-12.574 16.881-31.883z"/>
<path opacity=".7" fill="#b3b3b3" filter="url(#filter4993)" d="m1139,1826.1c-22.65,14.219-16.886,54.302 9.709,41.725-59.691,55.021 17.466,57.568 17.466,57.568-33.737,26.855-39.199,43.373 6.5858,41.156-8.0582,34.27 21.998,33.925 46.411,38.705-.4129,15.782 2.2008,31.044 36.728,40.824-22.198,8.3567-36.408,17.633-4.2309,32.247-15.181,11.047-41.397,19.694-16.817,39.386-16.016,12.094-24.178,24.497-14.407,37.606-7.013,15.411-11.217,29.607 12.569,31.703 2.1288,20.101 15.906,25.129 33.477,25.248 7.2503,8.4145 12.618,19.538 26.318,18.672 19.332,3.6241 16.846,10.096 18.154,16.073l-3.5663,15.7c-.1827-14.41-4.9798-21.937-17.291-23.665-9.5429-3.6078-17.068-15.197-25.491-23.238 1.4615-1.7404-26.151,7.3206-33.214-14.657-2.341-3.6638-2.9227-11.608-7.023-10.992-22.02-.6968-30.475-10.654-10.903-28.347-17.476-10.954-5.3758-33.334 9.209-38.31-37.847-17.213-.926-35.567 11.357-40.071-17.083-8.8922-24.391-14.807-11.519-36.394-21.866-5.5017-32.106-18.165-34.655-35.564-20.297,.7423-36.911-2.1095-47.32-37.254-26.658-1.4862-27.245-14.136-20.296-30.012-25.684-8.3069-34.59-24.186-23.209-50.047-44.487-27.645 17.409-61.793 41.957-68.065z"/>
<g opacity=".6" fill="#999" filter="url(#filter5033)" transform="translate(0 -24.303)">
<path d="m1101.8,1918.5c24.454-16.432 49.37-32.814 96.447-46.788-30.636,8.5661-54.253,4.4002-108.13,37.444 5.9595,7.3301 8.0366,6.7312 11.687,9.3447z"/>
<path d="m1125.1,1968.6c81.909-57.48 135.26-54.841 187.86-54.262-130.73,10.444-156.52,44.713-191.3,76.941-1.8943-6.2441-2.4077-13.085 3.4458-22.679z"/>
<path d="m1144.4,1998.2c44.835-35.622 79.865-32.458 117.64-40.15-46.779,12.122-99.596,26.265-114.55,46.678z"/>
<path d="m1158.2,2026.5c77.92-50.411 161.39-38.469 166.36-35.151-96.69,6.015-126.87,25.07-151.4,43.152-7.1306-.3951-10.64-4.6309-14.967-8.0005z"/>
<path d="m1191.7,2037.3c48.086-27.576 99.992-27.254 153.73-13.593-48.138-5.2946-96.219-10.016-147.36,28.488-3.992-3.1916-4.4048-9.7754-6.363-14.895z"/>
<path d="m1209.4,2064.1c49.451-14.604 78.031-5.2181 104.52,6.5701-29.09-.6944-59.632-9.225-89.434,5.4758 9.5614-6.522-8.8994-8.2297-15.088-12.046z"/>
<path d="m1226,2099.3c56.854-11.344 64.098,4.5523 79.999,15.695-21.314-5.9583-37.541-17.59-69.292-9.5809-5.818-1.5458-7.3461-4.0304-10.706-6.1139z"/>
<path d="m1210.5,2136.9c32.656-5.7875 51.575,5.4926 70.886,13.617-18.798-1.7839-36.951-11.491-54.425-3.1247z"/>
<path d="m1214.3,2192.1c11.52-3.5429 21.142-1.1906 30.676,1.4308-18.704,.7519-31.147,4.3101-37.33,10.674-.1436-6.0979 1.4598-10.67 6.6538-12.105z"/>
<path d="m1223.8,2213.8c3.4024-6.5761 18.404-6.5286 30.77-7.986-7.911,3.9564-19.478,8.1836-22.249,11.759 .4923-3.2399-2.348-4.4976-8.5209-3.7732z"/>
</g>
<g>
<path opacity=".5" fill="#f9f9f9" filter="url(#filter4981)" d="m1322,1797.9c15.307,8.2178 8.1884,11.473 5.5037,15.709 4.4154,4.0452 20.094,5.6256 .819,14.855 21.204,9.2214 23.241,15.715 7.443,19.67 2.0831,4.3561 18.279,10.896-3.8871,11.5 10.503,7.9332 18.79,16.352 3.8912,29.843 2.8707,5.1361 17.191,10.766-9.5777,14.624 13.645,10.627 34.785,22.116-4.4515,26.658 36.809,37.023 12.988,37.291 1.9433,45.304 5.2766,7.6223 13.431,15.969-12.166,15.817 6.5357,6.4707 26.878,9.1259 6.9508,22.91 4.2904,8.5863 15.932,19.618-17.364,15.702 12.586,10.856 22.43,21.131 4.027,25.429 6.0172,14.97 1.3578,23.925-13.978,26.863-2.7226,3.8139-.5209,8.7715-17.072,9.3735-1.3233,3.3404 8.6145,5.3182-7.8803,10.494 .8878,7.3059 15.624,13.967-.679,22.073 .8971,5.6839 7.5467,13.484-10.291,12.275 1.8719,8.0982-7.6295,9.2441-17.585,10.112 12.012,13.659 14.773,26 8.2832,37.026l9.9468,8.4727c8.2087-1.1219 16.531-2.4074 18.069,6.0689 14.527-.5315 15.453,5.918 13.112,14.044 9.308,.9761 20.62-.537 19.002,14.008l4.5192,22.189c-4.382-6.6011-6.4878-19.722-13.668-18.308-2.5341-16.976-12.37-10.154-19.338-12.682-1.0958-5.7034 2.3567-13.373-13.448-12.718-3.2403-10.446-10.332-5.6546-15.994-6.5229-10.905-1.7086-14.037-8.5094-13.49-17.72 9.0926-7.0362-1.7122-17.7-8.3766-27.609 3.9944-7.6361-10.148-18.079 17.657-22.03-.3301-5.2114 3.7985-10.159 15.468-14.66-20.992-7.7912-11.381-17.601-.2333-27.512 3.1136-13.239 8.8074-17.974 16.673-15.55-7.9055-7.6386-12.921-15.758 10.498-28.607-11.306-6.7137-27.198-12.424-3-26.906-7.6672-16.118-12.665-30.747 3.0045-33.858-15.476-24.83 7.0616-14.238 13.528-18.621-9.7973-4.4082-8.5986-10.147-1.3536-16.617-22.292-4.2015-85.19-.138-6.1021-24.974-34.8-3.3596-45.862-12.405-.2969-35.015-30.364-3.9289-67.117-6.3243-21.205-28.56-32.017-.219-28.291-9.3479-5.5674-23.212-29.145-1.4469-26.017-13.299-23.772-24.866l-14.61-6.8256c34.432-6.5042 66.091-9.0197 95.046-7.6435z"/>
<path opacity=".6" fill="#fff" filter="url(#filter4965)" color="#000" d="m1287.9,1798c-2.3881,.1225-4.7982,.2685-7.2187,.4376l10.281,24.25 .062,.1874 9.625,26.5 .031,.063 4.6875,18.781 1.1875,22.75 1.2187,25.344v37.25l-7.2187,30v.125l-.031,.125-3.5937,21.594-.062,.2813-6,24.031-.125,.5v.5l1.1562,24.438-13.937,20.906a3.4003,3.4003 0 1,0 5.6562,3.75l14.594-21.875 .5937-.9063-.031-1.125-1.1874-25 5.9374-23.844 .031-.125 .031-.125 3.6562-21.875 7.2188-30.156 .094-.375v-38.25l-1.2187-25.531-1.2188-23.094v-.3125l-.094-.3438-4.8437-19.437-.062-.1563-.062-.1875-9.7187-26.719-.031-.094-.031-.062-9.375-22.219z"/>
</g>
<g opacity=".7" fill="#999" filter="url(#filter5005)" transform="translate(1.2152 -25.519)">
<path d="m1291.6,2133.2c-22.434-8.3389-45.794-14.962-76.298-8.3611 26.4-10.228 53.205-6.9504 80.249,4.3644z"/>
<path d="m1333.4,2108.1c-54.473-38.984-102.05-21.519-102.05-21.519s46.086-20.452 108.46,11.033c-2.2262,3.1975-4.6232,5.832-6.4077,10.485z"/>
<path d="m1338,2065.1c-62.087-29.898-107.28-15.675-107.28-15.675 77.139-31.449 138.86,2.6992 138.79,2.8293-2.7371,.9722-8.8378,13.163-31.508,12.846z"/>
<path d="m1373.1,2017.7c-33.75-17.5-69.363-17.554-117.71-8.6964 23.836-13.734 125.54-13.99 136.22-4.4377-4.6736,4.4112-7.3258,8.8674-18.512,13.134z"/>
<path d="m1405.8,1934.7c-23.503-16.024-55.2-11.262-82.398-12.664 25.621-3.8453 46.554-14.671 93.009,7.5233-4.1836,3.2597-6.5932,4.4389-10.611,5.1408z"/>
<path d="m1259.6,2177.2c-13.45,.9689-18.256-8.2199-38.389,8.4004 3.9534-8.856 6.5557-18.308 42.507-13.06z"/>
<path d="m1243.1,2235.9c27.297,1.0924 35.771-6.4688 47.884-12.357-4.8305,7.3651-14.553,17.167-14.021,21.861-7.4001-6.0392-22.172-6.6335-33.863-9.5034z"/>
</g>
<g fill="#ccc" filter="url(#filter5017)" transform="translate(-2.4303 -23.088)">
<path d="m1414.2,1861.4c-57.622-23.797-134.01-20.113-215.99,5.2934 28.356-16.922 103.05-42.425 215.33-22.062 3.6469,7.684 3.0271,12.76 .6619,16.769z"/>
<path d="m1419.4,1919.8c-83.048-42.276-243.59-.5701-243.59-.5701 10.628,1.5557 56.431-44.871 223.45-24.466 7.0686,7.8319 16.134,12.791 20.135,25.036z"/>
<path d="m1418.4,1876.5c-127.73-58.163-319.2,35.76-311.7,56.932 68.899-62.752 278.3-79.103 311.7-56.932z"/>
<path d="m1159.9,2005.4c101.15-61.481 236.39-39.18 227.87-34.203 2.6209,5.5723 4.5257,10.1 6.7301,17.32-64.091-14.443-130.35-24.249-234.6,16.883z"/>
</g>
<g fill="#fff" transform="translate(-1.2152 -54.683)">
<path d="m1369.8,1951.2c-39.227-11.606-91.508-9.0678-126.05,.5628 33.496-5.3489 83.056-7.6084 126.05-.5628z"/>
<path d="m1380.3,1917c-42.547-10.88-99.763-7.2615-137.79,3.1314 36.762-6.0635 90.994-9.3455 137.79-3.1314z"/>
<path d="m1371.6,1877.3c-43.645-7.0788-100.11,1.5523-136.67,15.234 35.825-9.2644 89.366-17.299 136.67-15.234z"/>
<path d="m1368.5,1998.5c-32.309-13.12-74.312-12.831-101.59-4.7885 26.692-3.8598 66.517-3.9892 101.59,4.7885z"/>
<path d="m1360.2,2040.1c-30.095-13.604-68.809-14.035-93.769-6.501 24.515-3.3834 61.224-2.831 93.769,6.501z"/>
</g>
</g>
</g>
<g fill="#808080" transform="matrix(.27037 0 0 .20631 -283.34 -361)">
<g opacity=".8" filter="url(#filter5156)" transform="translate(-12.529 -26.734)">
<path d="m1362.3,1809.5c74.627-1.4673 56.608,11.748 67.014,16.657 15.617-23.462-55.824-17.326-67.014-16.657z"/>
<path d="m1413.2,1851c45.484,4.8005 58.247,12.172 44.188,21.652 4.8545-14.997-22.215-17.312-44.188-21.652z"/>
<path d="m1415.6,1948.8c69.261-3.2992-4.3792-31.869-9.0895-29.959 22.317,12.189 49.862,24.976 9.0895,29.959z"/>
<path d="m1382.3,1982.4c20.311,.8527 60.651,10.698 26.318,18.671 23.332,6.7869 33.503-23.6-26.318-18.671z"/>
<path d="m1357.6,2037.3c17.43,.5383 51.957,8.3254 22.388,15.174 19.958,5.4044 29.032-19.72-22.388-15.174z"/>
<path d="m1335,2074.8c15.544,.2224 46.212,6.2848 19.702,12.401 17.71,4.2599 26.263-16.876-19.702-12.401z"/>
<path d="m1284.2,2123.5c20.311,.8528 60.651,10.698 26.318,18.672 23.332,6.7869 33.503-23.601-26.318-18.672z"/>
<path d="m1248.9,2167.6c20.311,.8529 60.651,10.698 26.318,18.672 23.332,6.7869 33.503-23.601-26.318-18.672z"/>
<path d="m1253.5,2223.5c37.035-22.932 52.282-24.974 49.668-9.8908-8.5441-13.757-30.149,.2861-49.668,9.8908z"/>
<path d="m1295.7,2243.7c28.074-20.971 40.089-22.306 38.94-7.5433-7.654-13.952-23.99-1.0615-38.94,7.5433z"/>
</g>
<g opacity=".9" filter="url(#filter5037)" transform="translate(3.0349 -26.734)">
<path d="m1198.4,1823.5c-44.11,11.767-180.25,36.822-138,70.289-16.938-21.936 44.052-45.721 138-70.289z"/>
<path d="m1241.4,2130.2c-19.734-4.17-61.703-4.6484-31.55,11.413-24.646,.7693-24.039-30.818 31.55-11.413z"/>
<path d="m1235.2,2171.3c-19.497-4.9092-61.4-6.9681-32.115,10.214-24.662-.1599-22.406-31.693 32.115-10.214z"/>
<path d="m1239.6,2079.6c-20-4.0068-60.84-3.9007-28.325,12.186-23.771,1.1422-29.557-31.347 28.325-12.186z"/>
<path d="m1217,2050.1c-21.449,.1489-65.248,7.2788-30.379,14.92-25.494,5.0398-31.696-20.719 30.379-14.92z"/>
<path d="m1178.8,2002c-26.385,3.4712-76.282,18.44-28.786,21.898-28.523,9.7401-51.212-19.046 28.786-21.898z"/>
<path d="m1129.7,1995.6c-99.893-18.06 11.808-41.638 18.313-38.16-34.456,11.854-76.598,23.474-18.313,38.16z"/>
<path d="m1127,1908.7c-45.164,6.6287-57.501,14.507-42.928,23.409-5.6872-14.784 21.222-18.188 42.928-23.409z"/>
<path d="m1281.4,2231.6c-18.73,6.7278-52.63,27.745-17.162,25.214-19.166,13.182-41.012-12.387 17.162-25.214z"/>
<path d="m1314.2,2247.5c-18.73,6.7278-52.63,27.745-17.162,25.214-19.166,13.182-41.012-12.388 17.162-25.214z"/>
</g>
</g>
</svg>
