<svg xmlns="http://www.w3.org/2000/svg" viewBox="0 0 185.256 138">
<g fill="#acf" transform="translate(214.30332 16.2067)">
<path d="m-153.0482-11.2067 0,2c-12.621,1.6299-27.061,4.7024-38,11.4684-11.507,7.1172-9.491,16.0633 2,21.5316-2.536-13.8348 24.476-21.2733 35-19-7.857,4.9383-37.82,12.6265-16.002,23.6219 2.255,1.136 4.563,1.7986 7.002,2.3781-8.224-11.6233 13.093-14.979 21-16-3.405,4.2297-14.293,3.502-15.218,10.0394-.899,6.3614 10.871,8.8828 15.218,9.6998 13.066,2.4557 29.0307,2.5117 42-.6389 4.6115-1.1203 17.0063-5.1373 13.9136-12.0069-1.4174-3.1484-5.4102-4.9078-7.9136-7.0934 8.3441-1.2341 18.6336,4.7195 16,14 2.109-.9219 4.0885-1.8602 5.9645-3.2238 18.7098-13.5991-11.9569-18.5985-16.9645-25.7762 12.9421,1.6713 34.612,5.9484 35,22 2.1483-1.9177 4.4804-3.7542 6.1975-6.091 11.2054-15.2492-17.8723-24.9998-28.1975-27.7539-3.668-.9784-7.6133-1.0165-10-4.1551 15.2339,1.2039 32.7129,5.1329 46,12.8765 6.288,3.6646 13.3287,10.0522 10.2577,18.1235-2.7616,7.2581-11.4995,11.5462-18.2577,14.1883-16.822,6.5765-35.9874,9.9836-54,10.7723-27.306,1.1957-55.591,.3271-82-7.2515-9.018-2.588-20.099-4.7901-26.867-11.814-7.645-7.9355-1.043-15.4701 6.867-19.632 14.806-7.7901 34.358-11.5485 51-12.2631z"/>
<path d="m-144.0482,25.7933c5.369-1.9718 10.353-2.6066 16-3.169 4.232-.4215 7.768-.4215 12,0l7,.608c2.174,.3441 11.1962,1.8198 8.1096,5.8519-1.91,2.4951-7.2558,2.8243-10.1096,3.2701-8.1772,1.2771-29.896,3.2962-33-6.561z"/>
<path d="m-36.3071,24.7056c-2.2664,12.8925-16.7238,17.3742-28,19.7894-28.3129,6.0641-55.6476,3.872-84,.2106 9.261-3.886 22.1464,.3921 32-.0394 28.5758-1.2512 56.0463-3.3014 80-19.9606z"/>
<path d="m-41.0482,42.7933c-4.2818,14.3762-22.6564,14.7989-35,16.4244-28.049,3.6937-59.458-2.149-86-11.0918-10.476-3.5299-24.579-8.8214-28-20.3326 8.264,3.4754 15.481,9.1024 24,12.3156 38.216,14.4144 87.3397,20.2675 125,2.6844z"/>
<path d="m-50.0482,57.7933c-1.5712,15.199-22.54,14-34,14-28.863,0-74.668-1.9781-93-28 9.518,1.8353 18.642,8.528 28,11.6451 29.503,9.8267 70.5513,17.9579 99,2.3549z"/>
<path d="m-63.0482,65.7933-1,1 1-1z"/>
<path d="m-77.0482,76.7933c-15.8745,14.723-56.256,7.877-70-7 10.157-.5964 22.636,5.794 33,7.41 12.3083,1.918 24.7016-.376 37-.41z"/>
<path d="m-143.0482,78.7933c17.21,9.794 35.0896,9.013 54,9-9.7385,10.34-32.788,9.522-44,2.3-3.866-2.49-10.106-6.298-10-11.3z"/>
<path d="m-142.0482,90.7933c14.246,8.313 23.916,5.653 39,7-7.1685,8.588-21.832,9.218-31,3.441-3.613-2.277-8.943-5.743-8-10.441z"/>
<path d="m-120.0482,107.7933c-3.2973,5.44-9.484,7.225-10,14-6.075-3.65-12.816-10.162-15-17 9.422,2.713 15.111,3.78 25,3z"/>
</g>
</svg>
