<svg xmlns="http://www.w3.org/2000/svg" viewBox="0 0 229 309.05">
<g transform="translate(-819.63 -92.663)">
<path d="m940.22,92.68c-2.11,.11-4.22,.776-5.47,1.937-1.76,1.639-2.49,1.809-3.65,.844-1.17-.97-1.47-.899-1.47,.406 0,.983-.82,1.625-2.09,1.625-1.47,0-1.94,.459-1.54,1.5 .44,1.128-.17,1.498-2.4,1.498-1.63,0-2.97,.45-2.97,1 0,1.58-1.84,1.19-4.88-1.06-1.54-1.139-4.67-2.205-6.96-2.375-2.29-.171-4.8-.869-5.6-1.532s-1.95-.875-2.56-.5c-.73,.454-.52,1.156 .69,2.094 1.66,1.297 1.6,1.375-.94,.969-1.52-.243-3.77-.718-5-1.031l-2.25-.563 2.25,1.156c3.32,1.712 2.9,4.772-.75,5.502-3.12,.62-3.9,1.82-1.75,2.69 .69,.27 .24,.55-1,.59-2.7,.09-2.86,.92-.5,2.66 2.45,1.81 .56,3.41-4.22,3.59-2.54,.09-4.22-.39-5.03-1.5-1.34-1.83-3.5-2.27-3.5-.69 0,.55-.45,1-1,1s-1-.69-1-1.56c0-1.27-.63-1.44-3.25-.81-1.79,.42-4.94,.68-7,.56-3.5-.2-4.29,.41-3.88,3.06 .07,.41-.55,.75-1.37,.75-.83,0-1.5,.45-1.5,1s-.79,1.02-1.75,1.03c-1.61,.03-1.6,.17 .12,1.47 1.68,1.27 1.22,1.4-4.25,1.16-3.36-.15-6.12,.08-6.12,.53s-.92,.81-2.06,.81c-1.23,0-1.94,.52-1.69,1.25 .23,.69 .84,1.27 1.34,1.28 .51,.01 1.47,.38 2.16,.82 .74,.47 1.92,.14 2.84-.79 2.02-2.02 3.05-2.01 1.38,0-1.09,1.32-.93,1.67 1.12,2.25 2.12,.6 1.91,.74-1.59,1.25-3.89,.57-3.93,.64-1.5,1.72 1.37,.62 2.05,1.18 1.5,1.25-3.32,.47-4.62,.97-5.94,2.28-.81,.81-1.18,1.76-.84,2.1s.05,.59-.63,.59-1.91,.69-2.75,1.53c-1.19,1.2-1.26,1.86-.34,2.97 .65,.79 .89,2.34 .53,3.47-.77,2.44 .27,2.67 1.91,.44 1.06-1.46 1.29-1.46 2.5,0 1.11,1.34 1.05,1.59-.38,1.59-.92,0-1.38,.47-1.03,1.03 1.14,1.84 1.34,8.45 .28,9.1-.68,.42-.6,1.41 .22,3l1.22,2.37-2.38-2.47-2.37-2.5-.31,2.25c-.33,2.29-3.42,4.68-4.57,3.53-.34-.34-.62,.15-.62,1.13 0,1.15-.52,1.58-1.47,1.22-2.61-1-2.92,1.62-.44,3.65l2.41,1.97-2.28-.72c-2.07-.64-2.24-.44-1.66,1.88 .47,1.86 .22,2.71-.94,3.16-.88,.33-1.62,1.32-1.62,2.15 0,1.25-.28,1.29-1.53,.25-1.78-1.47-1.66-1.59-3.35,3.35-1.3,3.8-.75,6.32 .82,3.78 .67-1.09 .97-1.09 1.62-.03 .47,.76 .32,1.45-.37,1.68-1.57,.52-1.52,3.93 .06,4.57 .9,.36 .92,.53 .06,.59-.65,.04-1.47-.39-1.81-.94-.94-1.52-2.5-1.19-2.5,.53 0,.85 .67,1.81 1.5,2.13 2.32,.89 1.77,2.23-.66,1.59-1.53-.4-1.94-.21-1.4,.66 .41,.67 .78,2.71 .78,4.53 0,2.03 .85,4.24 2.22,5.72 1.22,1.32 2.05,2.92 1.84,3.56s.52,2.09 1.66,3.22c1.13,1.13 2.06,2.79 2.06,3.69 0,1.28 .29,1.39 1.41,.47 .96-.8 1.62-.85 2.06-.13 .35,.58 1.06,1.03 1.56,1.03 1.08,0 .03-3.2-1.34-4.12-1.26-.84 .05-2.88 1.84-2.88 .81,0 1.19,.62 .88,1.44-1.07,2.79 6.19,7.87 7.71,5.41 .59-.95 1.25-.8 2.82,.62 1.13,1.03 2.4,1.53 2.81,1.13 .41-.41-.12-1.38-1.19-2.16-1.06-.78-1.43-1.44-.81-1.44s1.44,.5 1.81,1.1c.37,.59 1.55,.87 2.63,.59 1.8-.47 1.83-.35 .5,1.66-1.2,1.8-2.2,2.11-5.94,1.84-2.52-.18-4.82,.15-5.19,.75-.37,.59-2.01,1.06-3.62,1.06-1.62,0-2.94,.47-2.94,1.03 0,.58 1.2,.8 2.75,.5l2.75-.53-2.63,1.06c-1.99,.8-2.53,1.57-2.12,3.13 .48,1.85 .31,1.94-1.63,.91-2.86-1.54-4.82-.34-2.43,1.5 1.62,1.24 1.48,1.32-1.44,.78-2.06-.39-3.25-.23-3.25,.47 0,.6-.57,.86-1.28,.59-.72-.27-2.38,.64-3.69,2.03l-2.37,2.53h3.09c1.71,0 3.8-.67 4.62-1.5 1.98-1.97 4.76-1.97 4,0-.31,.83-1.44,1.5-2.5,1.5-1.58,0-1.74,.34-.9,1.91 1.09,2.03-.16,2.36-2.78,.72-2.51-1.57-2.64,.54-.16,2.53 2.44,1.96 2.44,1.98 .13,.84-3.75-1.84-4.82,.33-1.47,3 2.47,1.98 2.53,2.17 .56,1.56-1.67-.51-2.25-.28-2.25,.88 0,.86-.68,1.56-1.5,1.56-1.01,0-1.5,1.01-1.5,3.06 0,2.36 .4,3.01 1.75,2.79 2.03-.34 4.25,.83 4.25,2.25 0,.6-.66,.65-1.75,.09-1.96-1.01-4.25-.5-4.25,.94 0,.51 1.24,1.43 2.75,2.03l2.75,1.09-2.75,.97c-3.23,1.13-3.47,2.33-.84,3.97 1.58,.99 1.7,1.57 .78,3.59-.95,2.09-.74,2.69 1.37,4.28 1.62,1.23 2.79,1.5 3.44,.85s.5-1.28-.47-1.88c-.8-.49-1.15-1.23-.75-1.62 1.04-1.04 1.94,.15 2.25,3 .15,1.36 .58,2.98 .94,3.56 .98,1.59 3.53,1.25 3.53-.47 0-1.49 1.17-1.91 4-1.5 .87,.13 .47-.58-.94-1.72-1.63-1.32-2.01-2.16-1.22-2.65 .64-.4 1.16-.3 1.16,.25 0,.64 1.13,.66 3.22,.06 3.31-.95 6.78-.41 6.78,1.03 0,.45-1.38,1.07-3.09,1.41-2.23,.44-2.95,1.05-2.54,2.12 .34,.88 .03,1.5-.75,1.5-.73,0-2.4,2.03-3.71,4.5-1.44,2.71-3.1,4.5-4.16,4.5-.96,0-1.75,.48-1.75,1.06 0,.59-.45,.78-1,.44s-1-.09-1,.53 .81,.87 1.78,.57c1.11-.36 2.22,.18 3,1.43 .81,1.31 .89,1.97 .19,1.97-.59,0-.83,.4-.53,.88 .29,.47-.83,.72-2.47,.53-3.77-.44-3.75,.51 .09,4.53 2.34,2.44 2.83,3.53 2,4.53-.82,.99-.7,1.48 .5,1.94 2.38,.91 3.64,.72 2.94-.41-.34-.55 .06-1 .87-1 1.18,0 1.33,.65 .66,2.97-.6,2.11-.47,3.26 .5,4.06 .75,.62 1.06,1.89 .72,2.82-.55,1.46-.41,1.47 1.06,.28 1.46-1.19 1.69-1.15 1.69,.25 0,.89 .51,1.62 1.12,1.62 .62,0 .88-.86 .6-1.94-.28-1.07 .03-2.14 .65-2.37 .84-.31 .8-.97-.12-2.53-1.12-1.9-1.02-2.16 .87-2.16 1.71,0 2.02-.44 1.57-2.25-.51-2.01-.34-1.94 1.75,.63 2.51,3.1 4.56,2.82 4.56-.63 0-2.54 1.46-1.3 2.5,2.13 .62,2.05 .43,2.24-1.41,1.65-2.66-.84-2.7,.62-.06,3 1.74,1.57 1.84,1.98 .56,2.69-.82,.46-1.25,1.5-.93,2.31 .45,1.17-.43,1.48-4.29,1.5-3.88,.03-4.51,.25-3.06,1.1 1.68,.97 1.61,1.22-1,3.47-1.54,1.33-3.33,2.24-3.97,2-2-.76-2.37,.66-.56,2.12 1.59,1.29 1.53,1.35-.53,.78-2.89-.79-2.89,.8 0,2.94l2.25,1.66-2.69-.54c-3.16-.64-4.4,.71-2.28,2.47 1.61,1.34 2.04,4.97 .59,4.97-.48,0-1.15-.97-1.46-2.19-.32-1.21-.9-1.88-1.29-1.5-.79,.8 2.69,7.69 3.88,7.69 .42,0 1.75-.97 2.97-2.19l2.22-2.21 .59,2.46c.66,2.8 3.65,3.44 3.19,.69-.17-1.02 .25-1.65 1-1.5 2.2,.45 2.72,2.1 1.06,3.31-.97,.71-1.27,1.64-.78,2.44 .63,1.01 1.13,.89 2.25-.59 1.33-1.75 1.4-1.65 .78,1.34-.4,1.9-.29,3.25 .28,3.25 1.27,0 2.37-4.38 1.6-6.4-.34-.87-.18-1.6 .37-1.6s1.28,.68 1.59,1.5c.8,2.06 2.63,1.89 2.69-.25 .05-1.47 .31-1.39 1.63,.5 1.5,2.16 4.08,3.31 2.81,1.25-.34-.55 .28-1 1.37-1 2.33,0 5.42-2.73 4.6-4.06-.31-.51-.09-.94 .53-.94 .67,0 .88,.81 .5,2-.81,2.54-.04,2.54 2.5,0 2.61-2.61 2.53-3.95-.25-4.09-2.04-.11-2.06-.18-.25-.63 1.1-.27 2.49-.88 3.09-1.37 .66-.53 2.41-.45 4.32,.22 1.76,.61 3.52,.79 3.9,.37 .39-.41 .13-.97-.56-1.22-2.76-.98-1.12-2.38 2-1.72 4.31,.93 4.43,1.13 1.91,3.32-1.19,1.03-2.16,2.34-2.16,2.9 0,1.53 2.82,2.3 3.62,1 .44-.7 1.04-.27 1.57,1.16 .53,1.44 1.37,2.08 2.31,1.72 .86-.33 1.9,.22 2.5,1.34 1.13,2.12 4,1.69 4-.59 0-.77 .42-1.41 .94-1.41 .51,0 .85,1.21 .75,2.66-.11,1.5 .42,2.84 1.22,3.12 1,.36 1.26-.09 .87-1.56-.4-1.54-.15-1.9 .97-1.47 1.49,.58 1.39-.42-.56-5.75-.48-1.3-.33-1.29 1.18-.06 1.55,1.25 1.81,1.17 2.32-.75 .31-1.19 1.12-2.19 1.81-2.19s1.78-.62 2.44-1.4c.95-1.15 .77-1.67-.91-2.57-1.15-.61-1.79-1.58-1.44-2.15 .44-.71 .98-.68 1.72,.06 1.53,1.53 2.69,1.33 2.69-.44 0-.82 .5-1.5 1.09-1.5 .68,0 .84-1.2 .44-3.25l-.62-3.25 3.03,3.5c1.67,1.93 3.52,5.3 4.09,7.5s2.53,7.6 4.38,12c5.98,14.28 6.96,34.18 2.5,51.25-.7,2.68-1.3,5.46-1.63,7.47h24.94c-.24-1.16-.48-2.34-.78-3.72-2.08-9.51-1.06-51.63 1.53-62.62 1.63-6.96 1.91-7.42 6.03-9.6 3.27-1.72 4.63-2 5.66-1.15 .99,.82 1.34,.83 1.34,0 0-1.44 3.68-1.47 4.56-.03 .49,.78 .97,.78 1.75,0 .6-.6 1.55-1.1 2.1-1.1 .54,0 .14,.63-.88,1.38s-2.68,1.14-3.69,.87c-1.24-.32-1.84,.09-1.84,1.25 0,.94 .95,1.95 2.09,2.25 1.43,.37 1.71,.77 .88,1.28-.67,.42-.9,1.29-.5,1.94 .51,.83 1.15,.59 2.15-.84 1.79-2.55 4.38-1.69 4.38,1.43 0,1.29 .45,2.6 1,2.94s1,1.3 1,2.13c0,.82-.44,1.22-1,.87-.56-.34-.79-1.02-.5-1.5 .29-.47 .09-1.12-.47-1.47-.56-.34-1.01,.16-1,1.16 .04,4.64 5.6,5.91 6.56,1.5 1.18-5.38 1.36-5.64 2.78-3.69 1.33,1.82 3.63,1.36 3.63-.72 0-.61-.74-1.92-1.66-2.93-1.78-1.98-1.02-3.94 .82-2.1 1.57,1.58 3.84,.42 3.84-1.97 0-1.84 .21-1.8 2.09,.6 2.31,2.93 4.53,2.68 2.91-.35-.55-1.03-.96-2.27-.94-2.72 .02-.44 .71,.43 1.53,1.94s2.02,2.75 2.66,2.75c.87,0 .87-.28 .03-1.12s-.43-2.17 1.56-5.22c5.23-8.07 7.43-9.55 8.43-5.66 .7,2.46 2.7,2.65 2.8,.25 0-1.47 .3-1.35 2,.63 1,1.29 1.7,2.75 1.4,3.25-.8,1.32 .9,1.08 2.3-.32 1-.93 1.2-.82 1.2,.5 0,.94 .5,1.69 1,1.69 .6,0 1-.9 1-2s.5-2 1.2-2 .7-.46-.2-1.5c-1-1.2-.9-1.5 .1-1.5 1.1,0 1.1-.25 .1-1.19-1.7-1.77-1.4-2.46 1.1-2.37 1.3,.05 2.1-.47 2-1.19-.2-.74 .8-1.25 2.3-1.25 3.4,0 3-3.42-.4-3.59-1.2-.07-2.8-.66-3.5-1.31-.9-.93-.8-1.05 .7-.5 1.1,.42 2.2,.2 2.6-.57 .6-.95 1.1-.74 1.9,.82 .7,1.22 2.6,2.36 4.7,2.75 1.9,.36 3.7,1.04 4,1.53 .9,1.4 2.4,1.02 2.4-.6 0-.8-1.2-2.11-2.7-2.93-1.9-1.01-2.2-1.51-1.1-1.54 .9-.02 2,.43 2.4,1 .3,.58 1.1,.89 1.7,.69 1.5-.51 1.8-4.03 .4-5.03-.9-.62-.8-1 0-1.34 1.4-.61-2.2-8.36-4-8.41-.7-.02-.5-.56 .6-1.34 .9-.73 1.7-2.26 1.7-3.41 0-1.14 .4-2.31 .9-2.59 1.3-.81 .7-4.68-.9-5.69-2.3-1.45-3.3-1.07-1.9,.69 1.2,1.4 1.1,1.58-.6,1.25-1.1-.21-2.8-2.07-3.7-4.13-1.7-3.52-3.8-5.02-3.8-2.69 0,1.75-2-.07-3-2.71-.5-1.36-1.4-2.17-2-1.82-.7,.45-.7,1.1 .1,2.07 2.3,2.75-.4,1.36-5.4-2.82-3.1-2.66-5.2-3.77-5.4-3-.2,.68-1.3,1.22-2.3,1.22-1.1,0-2,.45-2,1 0,1.93-3.5,.97-6.4-1.75-1.67-1.51-3.48-2.8-4.04-2.87-.56-.08-1.59-.19-2.28-.25-2.59-.24-1.1-1.71 1.97-1.94 1.76-.13 3.35-.42 3.65-.66 .2-.23 1.2,.57 2.2,1.78 1.9,2.28 2.6,1.33 1-1.28-.6-.93-.5-1.91 .1-2.75 1.6-1.89 .1-2.89-2.2-1.47-2.61,1.63-2.47,.86 .4-2.25 2.8-3.05 3.6-3.2 3.6-.62 0,1.07 .5,2.22 1,2.56 .6,.35 1-.51 1-2 0-1.5 .5-2.36 1-2 .6,.34 1.3-.05 1.6-.87 .8-1.94-1.8-7.2-3.4-6.88-.6,.14-1.2-.45-1.2-1.31 0-1.3 .5-1.21 3,.56 1.7,1.18 3,2.58 3,3.13 0,.54 .5,.71 1.1,.34s.8-1.83 .5-3.31c-.5-1.98-.4-2.28 .4-1.16 .6,.83 1,2.4 1.1,3.5 0,1.66 .2,1.57 1.2-.65 1.1-2.28 1.4-2.47 2.5-1.25 1.1,1.17 1,1.4-.2,1.4-.9,0-1.6,.45-1.6,1s.5,1 1.1,1 .7,1.09 .3,2.66c-.5,1.86-.3,2.43 .5,1.94 .7-.43 1.1-.01 1.2,1.09 0,1.69 .1,1.69 1.5-.13 1.4-1.92 1.4-1.92 1.5,0 0,1.93 0,1.93 1.5,0 .8-1.06 1.4-2.76 1.4-3.78 0-1.01 .7-2.09 1.5-2.4 .9-.32 1.5-1.19 1.5-1.94 0-.8 .6-1.12 1.5-.78 1.8,.67 1.9-.48 .5-4.22-.9-2.38-.8-2.55 .5-1.44 .8,.7 1.5,2.09 1.5,3.13 0,1.03 .5,1.87 1,1.87 1.3,0 1.3-2.7 0-3.5-1.5-.96-1.1-2.5 .5-1.87 1.1,.43 1.4-.27 1.2-3.1-.1-2-.7-3.93-1.2-4.31s-1.6-1.49-2.3-2.47c-1.3-1.55-1.2-1.71 .2-1.15 1.1,.41 1.6,.12 1.6-.85 0-.82-.9-1.76-2.1-2.06-1.1-.3-1.8-1.01-1.4-1.59 .4-.67-.6-1.12-2.7-1.19-1.8-.07-2.5-.34-1.5-.6 .9-.25 1.7-1.12 1.7-1.93 0-.82 .4-1.22 .9-.91s1.8,.25 2.7-.12c1.7-.64 1.7-.74-.1-1.44-3.1-1.2-4.5-1.02-4.5,.59 0,.83-.3,1.47-.7,1.41-.4-.07-1-.05-1.3,.06-2,.81-5,.5-5-.53 0-.69-.3-1.46-.7-1.69s-.1-.21 .7,.03c5.4,1.61 5.4,1.65 4.9-.9-.3-1.35 0-2.9 .6-3.44 1.5-1.44 4.5-.58 3.9,1.12-.3,.8-.1,1.44 .5,1.44s1.1-.56 1.2-1.25c0-.69 .5-.47 1,.5 1.2,2.01 3.4,2.4 2.6,.47-.7-2.05 4.2-1.31 5.8,.88 1.4,1.85 1.5,1.83 1.5,.03 0-1.55 .3-1.66 1.5-.63 1.3,1.03 1.5,.95 1.5-.53 0-.99-.7-2.59-1.6-3.56-1.7-1.92-1.1-3.91 1.2-3.91 .8,0 1.4-.45 1.4-1s-.3-1-.7-1-.9-1.43-1-3.22c-.1-1.78-.7-3.4-1.2-3.59-2-.64-1.1-1.99 .9-1.47 1.1,.29 2,.04 2-.56 0-.61-1-1.39-2.4-1.72-1.4-.36-2.6-1.56-3-3-.3-1.33-1-2.44-1.5-2.44-.6,0-.7-.69-.4-1.56 .5-1.33-.1-1.55-3.8-1.28-3.3,.24-4.4-.03-4.4-1.16 0-.81 .6-1.36 1.3-1.22 .8,.15 2.2-.23 3.3-.81 1.5-.82 2.1-.7 2.6,.5 .9,2.56 3.1,1.73 3.8-1.47 .5-2.06 1.3-3 2.6-3 2.1,0 2.6-1.47 .9-2.5-1.5-.95-1.2-2.5 .6-2.5 .8,0 1.3-.42 .9-.97-.3-.56 .1-.74 1-.4 .9,.32 1.5,.13 1.5-.44s-.9-1.34-2-1.69-2-1.26-2-2.03-.8-1.85-1.8-2.41c-2.4-1.24-3.3-5.65-1.6-7.09 1-.82 1.2-.59 .7,1-.3,1.49 0,2.03 1.2,2.03 1.1,0 1.5-.53 1.2-1.44-.3-.78-.2-1.57 .3-1.75 1.2-.41-1.4-3.86-3.1-4.21-.8-.15-2-.54-2.9-.85-.8-.31-2.7-.85-4.2-1.19-1.5-.33-2.8-1.13-2.8-1.81 0-.67-1.8-2.34-4-3.69-2.2-1.34-4-2.83-4-3.28 0-1.11 5.3,.26 6.2,1.6 1.3,1.92 2.3-.41 1-2.38-.9-1.56-.9-1.81 .2-1.37 2.3,.87 2.9-1.42 .7-2.6-1.4-.73-2.1-.76-2.1-.06 0,1.9-1.5,1.06-2.7-1.53-.9-1.98-.9-2.35 0-1.59 1.1,.9 4.2,1.55 6,1.28 1.9-.28-1.8-4.45-6.3-7.25-5.1-3.13-6.3-4.43-3.2-3.47 .9,.3 2.4,.13 3.2-.41 1.4-.87 1.4-1.09 0-1.97-.8-.54-2-.99-2.6-1-.7-.01-1-.88-.7-2.03 .6-2.23-.6-2.61-2.5-.78-1.2,1.27-1.6,.27-1.2-3.47 .1-1.01-.8-2.15-2.2-2.69-1.2-.51-1.9-.96-1.4-1 2-.14-1.8-3.06-3.9-3.06-1.3,0-2.6-.45-3-1-.3-.55-1.7-.71-3-.37-1.6,.4-2.5,.17-2.5-.63 0-.82-1-1.05-3.2-.69-1.81,.3-4.17,.16-5.27-.31s-1.44-.87-.75-.9c.69-.04 1.25-.58 1.25-1.16 0-.98-5.17-.71-11.59,.59-1.15,.24-2.95-.21-4-1.03-1.49-1.15-1.53-1.36-.22-.9 1.07,.37 2.07-.17 2.78-1.5 .89-1.671 .81-2.098-.38-2.098-.81,0-1.74,.467-2.09,1.028-.35,.57-1.17,.96-1.81,.85-1.52-.26-6.69,2.23-6.69,3.22 0,.41 .56,.98 1.25,1.28s.01,.31-1.5,0c-2.19-.46-3.34,.05-5.66,2.53-3.28,3.51-4.09,3.81-4.09,1.5 0-1.25-.6-1.47-2.72-.94-2.69,.68-2.68,.66-.84-1.37 1.82-2.02 1.81-2.06-.53-2.94-1.32-.5-2.75-.71-3.16-.47s-.75-.09-.75-.75-.79-1.8-1.75-2.53c-1.65-1.257-1.64-1.347 .12-1.377 1.46-.024 1.62-.334 .75-1.375-1.32-1.591-.47-2.656 2.07-2.656 2.04,0 2.49-1.597 .62-2.219-.66-.219-2.79,.167-4.75,.844-2.85,.986-3.86,.963-5.06-.062-1.21-1.034-3.3-1.485-5.41-1.375zm-92.25,44.22c.43-.05 .9,.17 1.16,.59 .34,.56-.08,1-.94,1-1.75,0-2.01-.58-.62-1.44 .12-.07 .26-.13 .4-.15zm-7.93,3.94c-.12,.02-.27,.07-.41,.15-.55,.34-1,1.08-1,1.63s.45,.71 1,.37 1-1.04 1-1.59c0-.41-.24-.63-.59-.56zm199.16,33c.8,0 1.4,.61 1.4,1.34 0,1.68-.4,1.68-1.8,0-.9-1.01-.8-1.34 .4-1.34zm-3.9,4.06c1.2-.14 3.6,.63 4.8,1.72 .6,.56 .6,.83 0,.75-3.8-.55-5.5-1.14-5.5-2 0-.28 .3-.42 .7-.47zm-9.5,5.81c.2-.07 .6,.11 1,.56 .7,.65 1,1.44 .7,1.72-.7,.67-1.9-.51-1.9-1.84 0-.24 .1-.4 .2-.44zm-63.17,3.78c.55,0 1,.2 1,.44s-.45,.72-1,1.06-1,.15-1-.44c0-.58 .45-1.06 1-1.06zm-29.91,2.56c.62-.02 1.39,.32 1.94,.97 .68,.82 .97,1.47 .66,1.47s-.85-.44-1.19-1c-.35-.56-1.05-.75-1.56-.44-.52,.32-.94,.34-.94,.07 0-.68 .48-1.04 1.09-1.07zm104.98,8.57c.4-.02 .8,.07 1.1,.22 .8,.32 .6,.54-.6,.59-1,.04-1.6-.2-1.3-.53 .2-.17 .5-.27 .8-.28zm-.2,3.93c.3-.08 1,.19 2,.85 .8,.48 1.2,1.37 1,2-.2,.69-1.1,.35-2.1-.88-1-1.18-1.3-1.86-.9-1.97zm-215.21,1.1c-.13,.03-.23,.1-.32,.19-.29,.29-.23,1 .13,1.59 .81,1.32 2.53,1.4 2.53,.12 0-1.03-1.49-2.12-2.34-1.9zm30.53,1.84c.52,0 .29,.68-.53,1.5-1.95,1.95-3.28,1.95-1.66,0 .68-.82 1.66-1.5 2.19-1.5zm-9,1c.78,0 2.19,.56 3.09,1.25 1.31,1 1.4,1.55 .44,2.75-1.64,2.04-3.42,2.24-4.1,.47-.31-.81-.06-1.47 .54-1.47 .72,0 .66-.51-.16-1.5-1.01-1.21-.97-1.5 .19-1.5zm-12.78,1.35c.27-.08 .65,.38 .93,1.12 .68,1.76 .11,2.07-.87,.47-.36-.59-.45-1.27-.19-1.53 .03-.03 .09-.05 .13-.06zm10.18,.71c.25,0 .41,.48 .41,1.44 0,.83-.44,1.5-.97,1.5s-.69-.67-.37-1.5c.36-.96 .68-1.44 .93-1.44zm192.88,0c.3,0 .6,.3 1,.94 .4,.55 .2,1-.4,1s-1.1-.45-1.1-1c0-.64 .2-.94 .5-.94zm5.7,2.04c.9-.04 2,.35 2.3,.9 .7,1.15 .7,1.15-2,0-1.6-.7-1.7-.85-.3-.9zm-132.7,1.96c.27,0 .63,.3 1.03,.94 .34,.55 .14,1-.44,1s-1.06-.45-1.06-1c0-.64 .19-.94 .47-.94zm13.15,2.13c.71-.1 .36,2.78-.78,5.28-.79,1.74-1.73,2.4-2.87,2.03-2.32-.73-4.97,.42-4.97,2.16 0,1.15-.4,1.21-2.13,.28-1.74-.93-2.32-.84-3.06,.47-.49,.89-1.51,1.59-2.25,1.59-1.78,0-2.9-3.04-1.59-4.34 .71-.71 1.03-.51 1.03,.65 0,2.78 2.03,1.93 3.16-1.31 .57-1.65 1.48-2.71 2.03-2.37 .54,.33 2.97,.72 5.4,.87 3.19,.2 4.44-.09 4.53-1.09 .25-2.74 .39-3.23 1.13-3.97 .14-.15 .27-.24 .37-.25zm115.65,.06c-.2-.02-.3,.34-.3,1.06 0,1.85 3.6,4.1 5.1,3.19 .5-.33 .9,.11 .9,1s.5,1.34 1,1c.6-.34 1-1.52 1-2.62 0-1.58-.4-1.86-2-1.35-1.4,.42-2.8,.02-4-1.09-.9-.78-1.4-1.17-1.7-1.19zm-119.93,.16c.43-.05 .9,.17 1.16,.59 .34,.56-.08,1-.94,1-1.75,0-2.01-.58-.62-1.44 .12-.07 .26-.13 .4-.15zm-82.78,.9c-.77,0-1.36,1.05-.9,2.22 .31,.81 .97,1.47 1.46,1.47 1.03,0 1.21-2.33 .25-3.28-.26-.27-.55-.41-.81-.41zm58.63,1.44c.16-.15 .51,.5 .87,1.72 .49,1.62 .72,3.09 .53,3.28-.53,.54-1.59-2.7-1.5-4.56 .01-.23 .04-.39 .1-.44zm8.28,1.31c.27,0 .63,.3 1.03,.94 .34,.55 .14,1-.44,1s-1.06-.45-1.06-1c0-.64 .19-.94 .47-.94zm26.09,3.29c1.94,0 1.86,1.3-.12,2.06-2.23,.85-2.42,.79-1.85-.72 .28-.73 1.17-1.34 1.97-1.34zm-97.56,3.65c-.55,0-1,.45-1,1s.45,1 1,1 1-.45 1-1-.45-1-1-1zm199.07,16.13c.4-.02 .8,.07 1.1,.22 .8,.32 .6,.54-.6,.59-1,.04-1.6-.2-1.3-.53 .2-.17 .5-.27 .8-.28zm-3.6,1.34c.1,.02 .1,.11 .2,.28 .3,.69 .3,1.81 0,2.5s-.5,.13-.5-1.25c0-1.03 .1-1.6 .3-1.53zm-2.5,4.56c.5,0 1.1,.33 1.5,.97 .4,.55-.1,1-.9,1-.9,0-1.6-.45-1.6-1 0-.64 .5-.97 1-.97zm-20.2,.07c1,.04 1.2,.28 .5,.59-.7,.28-1,.9-.7,1.41 .6,1.06 .1,1.22-.9,.25-1.21-1.23-.69-2.33 1.1-2.25zm26.2,.9c-.5,0-1,.71-1,1.56 0,.86 .5,1.28 1,.94 1.3-.8 1.3-2.5 0-2.5zm-53.91,10.47c.64-.08 .24,.8-1.22,2.69-3.72,4.82-6.87,4.79-6.81-.06 .03-2.24 .18-2.36 1.06-.85 1.23,2.11 3.78,2.31 4.53,.35 .3-.79 1.23-1.7 2.1-2.04 .13-.05 .25-.08 .34-.09zm-17.06,1.53c.55,0 1,.2 1,.44s-.45,.72-1,1.06-1,.15-1-.44c0-.58 .45-1.06 1-1.06zm3.47,.5c.06,0 .12,.08 .19,.25 .27,.68 .28,2.03 .03,3-.26,.98-.48,.4-.5-1.25-.02-1.24 .11-1.98 .28-2zm-126.28,.5c.46,0 .81,.68 .81,1.5 0,.83-.35,1.5-.81,1.5s-.85-.67-.85-1.5c0-.82 .39-1.5 .85-1.5zm111.22,1.35c.35-.06 .59,.15 .59,.59 0,.58-.45,1.06-1,1.06-1.28,0-1.28-.71 0-1.5 .14-.08 .29-.13 .41-.15zm-92.91,1c.78,0 1.19,.38 .91,.84-.66,1.05-1.13,1.05-1.79,0-.28-.46 .1-.84 .88-.84zm100.75,.53c2.18-.02 2.75,.32 2.75,1.22 0,.68-1.11,.82-3,.4-1.72-.38-3-.24-3,.31 0,.54-1.35,1.17-3,1.41s-3,.09-3-.34c0-1.23 3.19-2.65 6.5-2.88 1.12-.07 2.02-.12 2.75-.12zm-115.44,2.15c1.29-.01 2.03,.41 1.69,.97-.74,1.2-.64,1.2-2.5,0-1.21-.78-1.05-.95 .81-.97zm4.44,0c.96-.01 1.75,.42 1.75,.97 0,1.22-.11,1.22-2,0-1.28-.83-1.25-.95 .25-.97zm6.34,.63c.46-.04 1.05,.4 1.91,1.34 1.39,1.53 1.47,2.01 .41,2-2.31-.02-3.86-1.44-3.04-2.78 .22-.35 .45-.54 .72-.56zm75.41,1.4c.82-.01 2.16,.4 2.97,.91 2.44,1.55 .71,1.99-1.97,.5-1.45-.8-1.87-1.39-1-1.41zm14.12,.41c1.59,.02 2.88,.37 2.88,.78 0,.42-.63,.75-1.41,.75s-1.56,.48-1.75,1.03c-.18,.56-.85,.18-1.47-.81-.98-1.58-.77-1.78 1.75-1.75zm-23.12,.53c.55,0 1,.2 1,.44s-.45,.72-1,1.06-1,.15-1-.44c0-.58 .45-1.06 1-1.06zm19.19,1c.64,0 .86,.3 .5,.66-.37,.36-.18,1.26 .43,2 .7,.84 .77,1.34 .13,1.34-.56,0-1.29-.69-1.63-1.56-.83-2.18-.77-2.44 .57-2.44zm-12.75,.35c.32-.03 .56,.23 .56,.71 0,.67 .71,.9 1.66,.54 1.29-.5 1.39-.33 .5,.75-.63,.75-.84,1.63-.47,2 .36,.36-.09,.65-1,.65-.92,0-1.71-.11-1.75-.25-.64-2.06-.58-3.83 .15-4.28 .13-.08 .24-.12 .35-.12zm109.93,1.12c-.4,.09-.4,.59 .1,1.47 .4,.59 1.4,1.05 2.3,1.03 1.5-.03 1.5-.19-.2-1.47-1-.78-1.8-1.12-2.2-1.03zm4,22.94c.4-.07 .9,.14 1.1,.53 .3,.52 .1,1.21-.4,1.53s-1.2,.15-1.5-.37c-.3-.53-.2-1.21 .3-1.54 .2-.08 .3-.13 .5-.15zm5.2,.37c-.7,.13-.7,1.3 .5,2.75 .6,.8 1.6,1.2 2.1,.88 .6-.33 .2-1.46-.8-2.56-.8-.84-1.4-1.14-1.8-1.07zm-208.38,.44c.2-.07 .55,.11 1,.56 .65,.65 .94,1.44 .65,1.72-.66,.67-1.84-.51-1.84-1.84 0-.24 .07-.4 .19-.44zm-6,2c-.12,.04-.19,.2-.19,.44 0,.57 .32,1.32 .69,1.69 .36,.36 .87,.44 1.15,.15 .29-.28 0-1.07-.65-1.72-.45-.45-.8-.63-1-.56zm28.09,1.91c.08-.09 .35,.13 .84,.62 .69,.68 1,1.48 .69,1.78-.31,.31-.87-.23-1.25-1.22-.27-.71-.36-1.1-.28-1.18zm180.69,.87c.5,0 1,.45 1,1 0,1.28-.7,1.28-1.5,0-.3-.55-.1-1 .5-1zm-98.56,4.1c.16-.06 .52,.06 1.09,.28 .93,.35 2.77,.91 4.09,1.25 2.62,.65 3.35,3.37 .91,3.37-.83,0-1.5,.66-1.5,1.47 0,.93-.57,1.26-1.56,.88-1.26-.49-1.51-.01-1.25,2.28 .19,1.71-.3,3.36-1.19,4.06-1.22,.96-1.25,1.42-.22,2.47 1.02,1.03 1.69,1.07 3.25,.09 1.94-1.21 1.92-1.21 .06,3-1.03,2.34-2.72,7.11-3.75,10.6-1.83,6.25-1.88,6.33-3.68,4.34-2.75-3.04-6.94-17.38-5.38-18.38 1.45-.92 2.58-1.1 5.06-.84 1.55,.16 1.73-.33 1.25-3.31-.52-3.29-.35-3.61 2.91-4.78 1.91-.69 3.16-1.51 2.75-1.82-.41-.3-1.35-1.62-2.09-2.93-.76-1.34-1.03-1.93-.75-2.03zm-76.54,1.9c.55,0 1.29,.45 1.63,1s.17,1-.38,1-1.28-.45-1.62-1-.18-1 .37-1zm172.9,3.56c-.9,.22-1.1,1.74-.1,2.79 1.1,1.12 2.3,.75 2.3-.72 0-.77-.6-1.66-1.5-1.97-.3-.11-.5-.15-.7-.1zm-14.5,4.41c.3-.03 .7,.23 1.1,.84 .3,.44 .2,1.39-.3,2.1-.6,.94-.9,.71-1.3-.81-.3-1.26 0-2.08 .5-2.13zm-61.02,4.19c.43-.03 .75,.16 .75,.65 0,.54-.69,1.26-1.56,1.6-.98,.37-1.43,.14-1.19-.6 .31-.93 1.29-1.6 2-1.65zm34.69,1.84c.58,0 1.06,.45 1.06,1 0,1.28-.71,1.28-1.5,0-.34-.55-.15-1 .44-1zm-62.25,.25c-2.21,.12-2.36,1.77 .31,2.47 1.1,.29 2,.92 2,1.41 0,.48 .47,.87 1.06,.87s.93-.96 .75-2.15c-.22-1.51-1.15-2.28-3.06-2.54-.4-.05-.75-.07-1.06-.06zm-28.63,7.85c.16,0 .81,.5 2.16,1.46 1.49,1.08 2.73,2.28 2.75,2.69 .06,1.42-1.75,.21-3.97-2.69-.74-.96-1.09-1.46-.94-1.46zm71.13,2.9c-.53,0-1.21,.93-1.5,2.06-.35,1.31-.09,1.94 .65,1.69 1.44-.48 2.17-3.75 .85-3.75zm-78.53,3.25c.24-.09 .33,.36 .34,1.5 .01,1.24-.45,2.25-1,2.25-1.25,0-1.25-1.06 0-3 .29-.45 .51-.69 .66-.75z"/>
</g>
</svg>
