<svg xmlns="http://www.w3.org/2000/svg" viewBox="0 0 140.65 262.72">
<g fill-rule="evenodd">
<g transform="translate(-214.8 -93.594)">
<path fill="#627d44" color="#000" d="m244.47,224.95c0,9.7108-7.8721,17.583-17.583,17.583-9.7107,0-17.583-7.8721-17.583-17.583 0-9.7107 7.8721-17.583 17.583-17.583 9.7107,0 17.583,7.8721 17.583,17.583z" transform="matrix(1.3488 0 0 1.3488 -4.5305 -85.332)"/>
<path fill="#627d44" color="#000" d="m244.47,224.95c0,9.7108-7.8721,17.583-17.583,17.583-9.7107,0-17.583-7.8721-17.583-17.583 0-9.7107 7.8721-17.583 17.583-17.583 9.7107,0 17.583,7.8721 17.583,17.583z" transform="matrix(2.7418 0 0 2.7418 -356.45 -474.98)"/>
<path fill="#627d44" color="#000" d="m244.47,224.95c0,9.7108-7.8721,17.583-17.583,17.583-9.7107,0-17.583-7.8721-17.583-17.583 0-9.7107 7.8721-17.583 17.583-17.583 9.7107,0 17.583,7.8721 17.583,17.583z" transform="matrix(2.2818 0 0 2.2818 -262.78 -288.15)"/>
<path fill="#627d44" color="#000" d="m244.47,224.95c0,9.7108-7.8721,17.583-17.583,17.583-9.7107,0-17.583-7.8721-17.583-17.583 0-9.7107 7.8721-17.583 17.583-17.583 9.7107,0 17.583,7.8721 17.583,17.583z" transform="matrix(2.6268 0 0 2.6268 -286.72 -427.97)"/>
<path fill="#6a945c" color="#000" d="m307.93,122.59c-1.5259,0-3.0504,.059-4.531,.2266l2.492,5.2861c2.2772-.4072 4.6294-.6041 7.023-.6041 9.5742,0 18.297,3.4093 25.147,9.0619-7.2683-8.561-18.021-13.97-30.131-13.97z"/>
</g>
<g fill="#8f4b36" transform="matrix(2.4165 0 0 2.4165 -640.44 -595.894)">
<path color="#000" d="m296.9,355.31-6.461-.0158c.4721-9.1771 .9529-18.291 .8261-27.396-.0887-5.3063-.2534-10.554-1.6161-15.54-.8751-3.2274-2.4539-6.3054-4.7632-8.7978-2.5745-2.7907-5.8045-5.0156-8.9682-7.2628 3.3692,1.9258 6.7988,3.8166 9.7682,6.4443 2.693,2.3966 4.7374,5.5187 6.033,8.9407 1.9451,5.1474 2.7033,10.647 3.2898,15.978 1.0358,9.2131 1.4643,18.472 1.8914,27.649z"/>
<path color="#000" d="m291.39,332.09 3.7536-.1347c-.9748-16.245-.7629-32.761 3.973-48.307 1.4551-4.7678 3.3396-9.4487 6.2597-13.485 1.9831-2.7316 4.5039-5.2432 7.7342-6.3218-3.2806,.9142-5.9996,3.3256-8.1444,6.0092-3.1688,3.9517-5.3507,8.6309-7.061,13.395-5.5803,15.519-6.7145,32.377-6.5151,48.844z"/>
<path color="#000" d="m294.48,295.27 1.761,.5443c.2265-.8935 .1443-1.7082 .0105-2.387-.1789-1.0772-.4776-2.1037-.8141-3.0915-.9133-2.6919-2.1353-5.2457-3.5044-7.6919-1.5433-2.7612-3.3046-5.4073-5.3473-7.8126-1.8279-2.1564-3.8998-4.1794-6.3816-5.5003 2.3996,1.4649 4.3098,3.5788 5.9934,5.811 1.8744,2.49 3.4473,5.1903 4.8028,7.9883 1.2014,2.4833 2.2433,5.0356 2.9613,7.6585 .2632,.9655 .4846,1.9234 .5811,2.871 .047,.651 .1071,1.2216-.0628,1.6103z"/>
<path color="#000" d="m292.97,309.72 1.8373-.148c-.1631-1.0542 .1102-2.2314 .4883-3.4034 .4912-1.4674 1.2403-2.8642 2.228-4.0828 1.0442-1.2837 2.3716-2.3709 3.9263-2.9861 1.7564-.7022 3.7869-.7392 5.6823-.2433-1.8411-.67-3.9134-.8411-5.8596-.274-1.7114,.5043-3.26,1.5268-4.5164,2.8176-1.1864,1.2143-2.1505,2.6567-2.8442,4.2293-.5526,1.2159-.9845,2.5902-.9418,4.0907z"/>
</g>
<g transform="translate(-214.8 -93.594)">
<path fill="#6a945c" color="#000" d="m265.03,99.075c-23.133,0-41.86,18.727-41.86,41.86 0,12.154 5.1812,23.121 13.45,30.772-4.9091-6.8612-7.8078-15.262-7.8078-24.342 0-23.133 18.793-41.926 41.926-41.926 10.894,0 20.763,4.2061 28.213,11.023-7.6081-10.529-19.939-17.387-33.921-17.387z"/>
<path fill="#6a945c" color="#000" d="m255.21,189.66c-19.173,0-34.698,15.525-34.698,34.698 0,9.5866 3.9114,18.287 10.194,24.57-3.9864-5.6514-6.2731-12.554-6.2731-19.996 0-19.173 15.525-34.698 34.698-34.698z"/>
</g>
</g>
</svg>
