<svg xmlns="http://www.w3.org/2000/svg" viewBox="0 0 93.2474 162.3817" xmlns:xlink="http://www.w3.org/1999/xlink">
<defs>
<filter color-interpolation-filters="sRGB" id="filter4147">
<feGaussianBlur stdDeviation="3.45607"/>
</filter>
<linearGradient id="linearGradient3440" xlink:href="#linearGradient6163" y1="-11.357" y2="436.95" x1="453.65" x2="816.72" gradientUnits="userSpaceOnUse"/>
<linearGradient id="linearGradient3980">
<stop offset="0" stop-color="#050"/>
<stop offset=".5" stop-color="#aad400"/>
<stop offset="1" stop-color="#008000"/>
</linearGradient>
<linearGradient id="linearGradient6163" y1="-11.357" y2="436.95" x1="453.65" gradientUnits="userSpaceOnUse" x2="816.72">
<stop offset="0" stop-color="#dbdee3"/>
<stop offset="1" stop-color="#dbdee3" stop-opacity="0"/>
</linearGradient>
<linearGradient id="linearGradient6161" y1="370.08" y2="616.15" x1="698.62" gradientUnits="userSpaceOnUse" x2="438.41">
<stop offset="0" stop-color="#ff0"/>
<stop offset="1" stop-color="#fff" stop-opacity="0"/>
</linearGradient>
<linearGradient gradientTransform="matrix(-.85136 0 0 .85136 1141.9 97.797)" id="linearGradient6159" xlink:href="#linearGradient3980" y1="172.84" y2="625.46" x1="385.53" gradientUnits="userSpaceOnUse" x2="644.52"/>
<linearGradient id="linearGradient6157" y1="44.028" y2="796.39" x1="158.39" gradientUnits="userSpaceOnUse" x2="698.62">
<stop offset="0" stop-color="#050"/>
<stop offset=".555" stop-color="#aad400"/>
<stop offset="1" stop-color="#050"/>
</linearGradient>
<linearGradient id="linearGradient6165" xlink:href="#linearGradient4076" y1="370.3" y2="523.65" x1="657.53" gradientUnits="userSpaceOnUse" x2="660.58"/>
<linearGradient id="linearGradient6167" y1="773.86" y2="537.62" x1="688.5" gradientUnits="userSpaceOnUse" x2="600">
<stop offset="0" stop-color="#dbdee3"/>
<stop offset="1" stop-color="#dbdee3" stop-opacity="0"/>
</linearGradient>
<linearGradient id="linearGradient4076">
<stop offset="0" stop-color="#2b1100"/>
<stop offset="1" stop-color="#502d16"/>
</linearGradient>
</defs>
<g transform="matrix(.28824 0 0 .2416 -131.16621 -81.33246)">
<path fill="url(#linearGradient6157)" d="m577.45,344.3c-36.326,15.642-62.902,50.439-76.563,84.904-44.171,111.44-75.025,257.39-2.1696,355.49 23.724,31.945 75.807,42.31 118.1,42.31 42.292,0 94.375-10.365 118.1-42.31 72.855-98.1 42.012-244.06-2.1696-355.49-13.661-34.456-40.251-69.224-76.563-84.874-23.73-10.227-54.999-10.249-78.733-.0297z"/>
<path opacity=".36" fill="url(#linearGradient6159)" d="m650.33,390.92c30.926,13.317 53.552,42.942 65.183,72.284 37.605,94.873 63.873,219.14 1.8471,302.65-20.198,27.196-64.539,36.021-100.54,36.021-36.006,0-80.347-8.8244-100.54-36.021-62.026-83.519-35.767-207.78 1.8471-302.65 11.631-29.335 34.268-58.935 65.183-72.258 20.203-8.7069 46.824-8.726 67.03-.0253z"/>
<path opacity=".154" fill="url(#linearGradient6161)" d="m515.03,148.75c-5.6451,9.1236-10.399,18.615-14.156,28.094-44.171,111.44-75.011,257.4-2.1562,355.5 23.724,31.945 75.801,42.312 118.09,42.312 42.292,0 94.37-10.368 118.09-42.312 5.338-7.1876 10.115-14.643 14.375-22.312-32.56-158.7-132.34-315.04-234.24-361.28z" transform="translate(0 252.36)"/>
<path opacity=".74" fill="#050" fill-opacity=".271" d="m619.31,122.34c-11.96,.006-23.898,2.2866-34.219,6.8125-31.585,13.851-54.742,44.628-66.625,75.125-38.43,98.629-65.246,227.83-1.875,314.66 20.636,28.274 65.932,37.438 102.72,37.438 36.787,0 82.114-9.1635 102.75-37.438 63.371-86.828 36.514-216.02-1.9062-314.66-11.883-30.504-34.997-61.312-66.594-75.156-10.322-4.5228-22.29-6.787-34.25-6.7812zm0,7.7188c11.535-.006 23.076,2.1692 33.031,6.5312 30.474,13.353 52.758,43.048 64.219,72.469 37.055,95.127 62.962,219.76 1.8438,303.5-19.902,27.269-63.614,36.094-99.094,36.094-35.479,0-79.192-8.8246-99.094-36.094-61.119-83.742-35.22-208.38 1.8438-303.5 11.461-29.413 33.787-59.078 64.25-72.438 9.9537-4.3651 21.465-6.5565 33-6.5625z" transform="translate(0 252.36)"/>
<path opacity=".4" fill="url(#linearGradient3440)" d="m616.81,84.281c-.7232-.0003-1.4334,.0174-2.1562,.0312 39.797,20.48 77.52,46.211 110.38,75.719-3.3036-6.3186-7.0496-12.534-11.188-18.531-25.409-21.148-53.285-40.115-82.5-56.25-4.7856-.6432-9.6619-.9664-14.531-.9688zm-26.062,3.1875c-3.3918,.86-6.7142,1.8836-9.9062,3.0938 60.947,27.666 118.44,67.971 162.91,115.69-1.7982-5.0922-3.629-10.144-5.5-15.125-41.41-42.091-92.92-77.884-147.5-103.66zm-25.594,10.688c-2.4679,1.4396-4.8899,2.9526-7.25,4.5625 78.109,33.008 151.71,87.008 200.97,151.34-1.4672-5.287-3.0106-10.531-4.5938-15.75-48.11-59.01-116.49-108.64-189.13-140.15zm-19.312,13.906c-1.9559,1.697-3.8564,3.4469-5.7188,5.25 92.105,37.251 178.85,103.96 228,182.81 .8337,1.3374 1.632,2.6664 2.4375,4-1.0106-5.3973-2.1106-10.786-3.2812-16.156-49.2-75.51-132.66-139.35-221.45-175.9zm-15.438,15.594c-1.5877,1.8521-3.1246,3.7374-4.625,5.6562 93.534,36.933 182,104.43 231.84,184.38 7.8132,12.533 14.355,24.899 19.719,37.031-.4058-5.2214-.9022-10.453-1.5-15.688-4.4606-9.1389-9.5771-18.399-15.406-27.75-49.511-79.421-137.17-146.53-230.03-183.62zm-12.6,16.73c-1.313,1.9888-2.5883,4.0033-3.8125,6.0312 94.006,36.821 183.06,104.56 233.12,184.88 14.526,23.301 24.767,46.047 30.938,67.719 .2515-4.6681 .4122-9.3518 .4688-14.062-6.29-19.36-15.77-39.5-28.59-60.07-49.89-80.03-138.49-147.58-232.13-184.5zm-10.25,17.688c-1.069,2.1107-2.0894,4.2188-3.0625,6.3438 93.636,36.909 182.24,104.44 232.12,184.47 20.075,32.202 31.932,63.319 36.219,92.031 .757-3.7421 1.4318-7.5209 2.0312-11.312-4.8553-27.344-16.502-56.782-35.438-87.156-49.844-79.955-138.32-147.44-231.88-184.38zm-8.125,18.531c-.8476,2.1679-1.695,4.3389-2.5312,6.5312 92.562,37.153 179.88,104.11 229.25,183.31 23.616,37.882 35.836,74.304 37.75,107.03 .9595-2.7164 1.8612-5.4642 2.7188-8.2188-2.2529-32.258-14.505-68.032-37.688-105.22-49.422-79.279-136.83-146.3-229.5-183.44zm-7.1562,18.938c-.794,2.1867-1.5954,4.3868-2.375,6.5938 91.263,37.423 177,103.7 225.75,181.91 25.23,40.471 37.456,79.251 38,113.66 .9726-1.9564 1.9341-3.9237 2.8438-5.9062-.44-34.53-12.72-73.51-38.06-114.17-48.83-78.32-134.74-144.69-226.16-182.09zm-6.6875,19.156c-.745,2.2298-1.4602,4.4722-2.1875,6.7188 89.758,37.704 173.68,103.16 221.72,180.22 25.466,40.851 37.736,79.98 38.062,114.62 .9548-1.5039 1.9011-3.0082 2.8125-4.5312 .1123-35.114-12.102-74.938-38.031-116.53-48.147-77.233-132.38-142.83-222.38-180.5zm-6.1875,19.438c-.6784,2.2346-1.3733,4.4709-2.0312,6.7188 88.076,37.98 170.04,102.56 217.28,178.34 24.834,39.836 37.075,78.055 37.969,112.06 .7857-.9458 1.5485-1.9196 2.2812-2.9062 .2007-.2703 .3946-.5415 .5938-.8125-.3007-34.677-12.572-73.86-38.062-114.75-47.37-76.01-129.66-140.72-218.02-178.67zm-5.65,19.64c-.6207,2.2884-1.2472,4.5762-1.8438,6.875 86.151,38.247 165.91,101.79 212.25,176.12 23.142,37.122 35.369,72.824 37.656,105.03 1.0367-.8329 2.0438-1.6555 3.0312-2.5312-1.55-33.21-13.84-70.28-37.91-108.9-46.51-74.62-126.67-138.39-213.19-176.6zm-5.0938,20.031c-.548,2.3175-1.0734,4.644-1.5938,6.9688 83.973,38.487 161.27,100.89 206.59,173.59 20.835,33.421 32.802,65.674 36.656,95.281 1.1318-.6603 2.2484-1.3343 3.3438-2.0312-3.1987-30.796-15.323-64.615-37.188-99.688-45.541-73.053-123.36-135.68-207.81-174.12zm-4.4375,20.375c-.4702,2.3658-.9366,4.7237-1.375,7.0938 81.539,38.682 156.12,99.766 200.31,170.66 18.193,29.184 29.637,57.509 34.812,83.938 1.2384-.538 2.4461-1.0841 3.6562-1.6562-4.6881-27.775-16.367-57.746-35.656-88.688-44.45-71.303-119.65-132.7-201.75-171.34zm-3.72,20.85c-.3796,2.4137-.7195,4.8353-1.0625,7.25 78.753,38.812 150.31,98.423 193.22,167.25 15.349,24.622 25.872,48.605 31.906,71.375 1.3728-.4419 2.743-.8987 4.0938-1.375-5.77-24.25-16.71-49.97-33.19-76.41-43.22-69.33-115.53-129.29-194.97-168.09zm-2.875,21.344c-.2788,2.5071-.546,4.9955-.7812,7.5 75.62,38.845 143.85,96.732 185.31,163.25 12.334,19.784 21.559,39.147 27.844,57.812 1.5093-.3473 3.0052-.7423 4.5-1.125-6.267-20.286-16.029-41.466-29.531-63.125-41.83-67.11-110.9-125.46-187.34-164.31zm-1.875,22.094c-.1509,2.5693-.2747,5.125-.375,7.6875 72.002,38.739 136.47,94.671 176.28,158.53 9.1514,14.68 16.576,29.139 22.375,43.25 1.6815-.2527 3.3544-.5211 5.0312-.8125-6.0756-15.876-14.228-32.216-24.594-48.844-40.25-64.58-105.73-121.03-178.71-159.81zm-.6875,22.938c.005,2.697 .0575,5.378 .125,8.0625 67.817,38.428 128.07,92.019 165.97,152.81 5.805,9.3119 10.896,18.524 15.344,27.625 1.8644-.1421 3.7179-.3145 5.5938-.5-5.0585-11.005-11.064-22.204-18.125-33.531-38.42-61.66-99.88-115.92-168.89-154.46zm.9375,24.125c.2129,2.8581 .4585,5.7249 .75,8.5625 62.87,37.81 118.27,88.616 153.91,145.78 2.2514,3.6114 4.3916,7.1985 6.4375,10.781 2.0812-.002 4.1889-.04 6.3125-.0937-3.0615-5.6676-6.3576-11.382-9.9375-17.125-36.3-58.23-93.12-109.86-157.46-147.89zm3.0312,25.875c.5122,3.1054 1.0689,6.2094 1.6875,9.2812 54.09,34.91 101.69,79.412 134.5,129.06 2.4293,.2037 4.8478,.3674 7.25,.5-33.746-53.805-84.982-101.93-143.44-138.84zm6.4375,28.75c1.0304,3.5947 2.1445,7.155 3.3438,10.688 38.795,27.421 73.524,59.795 100.81,95.344 2.8946,.5738 5.8025,1.0762 8.7188,1.5312-29.483-40.558-68.698-77.266-112.88-107.56zm13.125,34.75c2.4204,5.0549 5.061,10.032 7.9062,14.906 17.631,14.364 34.124,29.769 49.094,46.031 4.1277,1.7959 8.4253,3.4107 12.812,4.8438-20.362-23.764-43.999-45.877-69.812-65.781z" transform="translate(0 252.36)"/>
</g>
<g transform="matrix(.23648 0 0 .28615 -114.60067 -68.00516)">
<path filter="url(#filter4147)" d="m681.88,338.8c-20.032,53.502-41.484,162.28-8.6901,202.9 2.869-1.1817 5.9294-1.8025 9.0927-1.8025 7.3391,0 14.039,3.4418 19.293,9.1538 21.138-40.837 17.64-120.11 9.1263-163.57 8.4454,27.161 13.689,67.098 12.213,104.51 22.21-12.818 28.856-56.672 27.446-80.051 5.4196,26.629-1.8957,76.117-27.916,88.18-1.5618,23.353-5.8714,45.254-13.857,61.814 1.4606,3.3128 2.5822,6.9157 3.2882,10.744l.1006,2.4386c43.155-18.26 75.447-61.8 82.741-114.79-1.5172,60.303-46.86,111.42-93.815,132.39l8.5894,183.75h-51.752v-202.1c-47.339-20.769-86.401-72.096-87.926-132.71 4.2998,31.241 17.294,59.203 36.069,80.652 9.1868-17.637-4.7698-50.306-15.032-65.172 13.517,14.783 28.824,50.031 18.622,69.13 13.632,14.421 30.015,25.492 48.148,32.197 1.1212-2.0291 2.3765-3.9028 3.7579-5.6195-11.165-17.8-14.962-44.324-13.891-73.407-22.152-22.049-13.562-78.498 .0671-104.93-8.5246,23.887-15.846,72.007 .5033,94.401 3.4226-46.071 17.871-96.553 33.821-128.12z" transform="matrix(1.0146 0 0 .97929 -10.494 16.844)"/>
</g>
<g transform="matrix(-.26746 0 0 .32363 225.20377 -90.41093)">
<path fill="url(#linearGradient6165)" d="m667.62,116.44c18.658,47.306 38.637,143.49 8.0938,179.41-2.6721-1.0448-5.5225-1.5938-8.4688-1.5938-6.8354,0-13.075,3.0433-17.969,8.0938-19.688-36.108-16.43-106.2-8.5-144.62-7.8658,24.016-12.749,59.328-11.375,92.406-20.686-11.334-26.876-50.11-25.562-70.781-5.0476,23.545 1.7656,67.302 26,77.969 1.4546,20.649 5.4684,40.013 12.906,54.656-1.3604,2.9292-2.405,6.1148-3.0625,9.5l-.0937,2.1562c-40.194-16.146-70.269-54.643-77.062-101.5 1.4131,53.319 32.674,98.515 76.406,117.06l-8,189.56h72.656l-8.6875-205.78c44.1-18.39 75.68-63.77 77.1-117.37-4.0048,27.624-16.107,52.347-33.594,71.312-8.5564-15.594 4.4425-44.48 14-57.625-12.59,13.071-26.846,44.237-17.344,61.125-12.697,12.751-27.955,22.54-44.844,28.469-1.0442-1.7941-2.2134-3.4508-3.5-4.9688 10.399-15.739 13.936-39.191 12.938-64.906 20.632-19.495 12.631-69.408-.0625-92.781 7.9396,21.121 14.759,63.668-.4688,83.469-3.1878-40.736-16.645-85.372-31.5-113.28z" transform="translate(0 252.36)"/>
<path opacity=".091" fill="url(#linearGradient6167)" d="m669.89,373.24c-.1286,.1852-.2459,.3775-.375,.5625 .6629,1.7913 1.3092,3.6312 1.9688,5.5312 .258-.3669 .5251-.7261 .7812-1.0938-.7878-1.7006-1.5748-3.3891-2.375-5zm7.0312,15.719c-.5194,.728-1.036,1.4624-1.5625,2.1875 .582,1.8995 1.1508,3.8464 1.7188,5.8125 .6416-.8749 1.3063-1.7459 1.9375-2.625-.6958-1.8254-1.3791-3.6123-2.0938-5.375zm25.312,15.156c-.1827,.2775-.3474,.5666-.5312,.8438 .5886,1.9201 1.1455,3.9212 1.6875,6.0312 .3425-.5104 .6923-1.0196 1.0312-1.5312-.6926-1.8618-1.4377-3.646-2.1875-5.3438zm-19.125,1.625c-.887,1.2006-1.7814,2.4015-2.6875,3.5938 .5115,2.012 1.0116,4.0403 1.5,6.0938 1.0302-1.3398 2.0252-2.6807 3.0312-4.0312-.602-1.9058-1.2175-3.7928-1.8438-5.6562zm-42.344,4.3438c-1.0312,3.1484-2.0162,6.4938-2.9375,10 .4576-.4773 .9203-.9582 1.375-1.4375 .5045-2.9883 1.0056-5.8639 1.5625-8.5625zm67.438,11.5c-.6459,.94-1.311,1.877-1.9688,2.8125 .3785,2.2903 .7203,4.6164 1,6.9688 .8223-1.1476 1.6018-2.3142 2.4062-3.4688-.4384-2.1332-.9099-4.2536-1.4375-6.3125zm-19.719,1.8125c-1.2254,1.5918-2.4602,3.1738-3.7188,4.75 .433,2.1231 .8186,4.2617 1.2188,6.4062 1.3894-1.7166 2.7436-3.452 4.0938-5.1875-.5148-2.0058-1.048-3.9898-1.5938-5.9688zm-51.688,12.312c-.9887,.9737-1.9995,1.9419-3,2.9062-.4955,2.7731-.9513,5.595-1.375,8.4688 1.2051-1.129 2.4047-2.2638 3.5938-3.4062 .2412-2.7039 .4893-5.3644 .7812-7.9688zm56.25,6.1562c-1.5969,1.9802-3.1963,3.9523-4.8438,5.9062 .328,2.2002 .6534,4.3926 .9375,6.5938 1.7655-2.063 3.5095-4.1259 5.2188-6.2188-.415-2.1044-.858-4.1886-1.3125-6.2812zm18.75,.25c-1.1845,1.6146-2.3748,3.2128-3.5938,4.8125 .0005,2.8546-.1123,5.6752-.3438,8.4375 1.4952-1.9048 2.9597-3.823 4.4062-5.75-.0709-2.4888-.2354-4.9952-.4688-7.5zm-107.88,2.5938c-.5257,.4406-1.0657,.8745-1.5938,1.3125-.0466,2.1977-.0401,4.4536 .0625,6.75 .7054-.5755 1.3924-1.1699 2.0938-1.75-.2496-2.1555-.428-4.2573-.5625-6.3125zm168.06,13.281c-.5194,3.5826-1.1829,7.1149-1.9688,10.594 .5173-.8955 1.0254-1.7889 1.5312-2.6875 .2162-2.612 .3672-5.2517 .4375-7.9062zm-137.03,.75c-1.4556,1.325-2.9294,2.6326-4.4062,3.9375-.2346,2.4749-.4485,4.9635-.625,7.4688 1.6061-1.3885 3.1992-2.8066 4.7812-4.2188 .0661-2.4069 .1371-4.811 .25-7.1875zm61.719,2.5312c-1.9802,2.3302-4.0133,4.6158-6.0625,6.9062 .1933,2.3277 .3686,4.6651 .5,6.9688 2.204-2.4208 4.3729-4.846 6.5-7.3125-.2876-2.1846-.5997-4.3725-.9375-6.5625zm-90.281,1.4375c-.926,.7423-1.8488,1.4844-2.7812,2.2188 .3071,1.9436 .6767,3.8845 1.0938,5.8125 1.0056-.7842 2.0331-1.5502 3.0312-2.3438-.5012-1.8812-.9408-3.7886-1.3438-5.6875zm104.66,4.8438c-3.3042,4.0708-6.7052,8.1066-10.219,12.062-.5381,.8585-1.112,1.6797-1.7188,2.4688-.013-.1667-.0179-.3332-.0312-.5-2.4874,2.7601-5.0425,5.4893-7.625,8.1875-.0179,2.5221-.0418,5.0131-.1562,7.4688 5.65-5.7803 11.112-11.685 16.312-17.75 1.5479-3.6635 2.6815-7.6818 3.4375-11.938zm-148.44,7.5625c-.0195,.0125-.043,.0187-.0625,.0312 .0637,2.0449 .1932,4.0741 .3438,6.0938 .2422-.1534 .4768-.3148 .7188-.4688-.36-1.8712-.7157-3.7563-1-5.6562zm48.531,3.6875c-1.1492,.8944-2.3102,1.7742-3.4688,2.6562 .6024,1.74 1.2597,3.4349 1.9688,5.0938 1.2304-.9328 2.4676-1.8344 3.6875-2.7812-.7762-1.6108-1.5142-3.2647-2.1875-4.9688zm23.469,.875c-1.7681,1.5083-3.5486,3.0213-5.3438,4.5-.0551,2.279-.0923,4.5667-.0937,6.8438 1.8826-1.5234 3.7398-3.069 5.5938-4.625-.0773-2.2372-.1269-4.4779-.1562-6.7188zm-68.562,11.594c-.62,.3837-1.2534,.745-1.875,1.125 .2947,1.8878 .5993,3.7659 .9688,5.625 .8207-.4963 1.6508-.9973 2.4688-1.5-.5534-1.733-1.0762-3.4846-1.5625-5.25zm200.69,1.1875c-6.3006,9.4554-13.22,18.692-20.656,27.656-2.431,3.1888-4.9904,6.2622-7.6875,9.1875-.0225-.0409-.0403-.0839-.0625-.125-1.0818,1.2192-2.1805,2.4174-3.2812,3.625-27.64,30.323-61.161,56.959-96.906,77.375l-.2812,6.25c19.903-11.146 39.155-24.229 57.125-38.812l-.0937-2.2812c2.1462-.8939 4.2589-1.8552 6.3438-2.875 22.35-18.891 42.534-40.108 59.281-62.781 .0132-.03 .0181-.0637 .0312-.0937 2.419-5.5113 4.4993-11.22 6.1875-17.125zm-148.12,.1875c-1.3681,1.0522-2.744,2.0904-4.125,3.125 .9729,1.5037 2.0269,2.9404 3.125,4.2812 1.4682-1.1033 2.9216-2.2206 4.375-3.3438-1.1949-1.2478-2.3118-2.6185-3.375-4.0625zm16.875,6.5c-3.3642,2.7154-6.77,5.3928-10.219,8 1.4475,.9753 2.9652,1.8282 4.5625,2.5312 .0124,.1766 .0184,.3548 .0312,.5312 2.0791-1.5918 4.1707-3.181 6.2188-4.8125-.2188-2.0704-.4255-4.1512-.5938-6.25zm64.25,4.1562c-3.2797,3.3987-6.6421,6.7391-10.062,10.031-.4746,3.0111-1.0362,5.9333-1.7188,8.75 3.9222-3.6619 7.7519-7.3867 11.5-11.188 .1564-2.4921 .2315-5.0294 .2812-7.5938zm-128.59,2.9688c-1.1773,.7085-2.3486,1.3987-3.5312,2.0938 .4931,1.7541 1.0656,3.497 1.625,5.2188 1.3418-.7833 2.665-1.5744 4-2.375-.7365-1.6228-1.4191-3.2776-2.0938-4.9375zm165.34,1.7188c-1.3178,1.5852-2.6499,3.1511-4,4.7188-.414,2.813-.6043,5.5783-.5,8.2188 1.2212-1.3805 2.4287-2.7614 3.625-4.1562 .006-2.8238 .3184-5.7782 .875-8.7812zm-98.844,9.25c-2.1729,1.6748-4.3572,3.3387-6.5625,4.9688 .2535,1.9918 .535,3.9574 .8438,5.9062 2.268-1.6578 4.5153-3.3574 6.75-5.0625-.3752-1.9166-.712-3.8446-1.0312-5.8125zm-59.844,3.0312c-1.6749,.9901-3.3461,1.9748-5.0312,2.9375 .678,1.6475 1.3859,3.2957 2.125,4.9062 1.8615-1.0599 3.7135-2.1568 5.5625-3.25-.9089-1.5072-1.8047-3.0443-2.6562-4.5938zm119.72,6.9688c-5.9746,5.6887-12.152,11.23-18.5,16.562-1.029,1.5551-2.1367,3.0235-3.3125,4.4062-.4741-.1854-.9526-.3461-1.4375-.5-11.013,8.9701-22.537,17.353-34.375,25.094-.0757,.3438-.1511,.6831-.2188,1.0312l-.0937,2.1562c-.9289-.3732-1.832-.7594-2.75-1.1562-4.5702,2.9295-9.1852,5.7435-13.844,8.4688 1.7154,1.0633 3.4828,2.0575 5.25,3.0312 23.894-14.228 46.68-31.194 67.25-50.156 .7892-2.8683 1.4675-5.8634 2.0312-8.9375zm-111.47,6.125c-2.1854,1.2822-4.3914,2.5458-6.5938,3.7812 .8564,1.544 1.7428,3.0609 2.6562,4.5625 2.3727-1.3314 4.7408-2.6769 7.0938-4.0625-1.0886-1.3973-2.1221-2.8348-3.1562-4.2812zm55.188,.625c-2.3798,1.7683-4.7721,3.5355-7.1875,5.25 .4271,1.8704 .8859,3.6944 1.375,5.5 2.4855-1.7503 4.9578-3.5364 7.4062-5.3438-.5685-1.7569-1.0907-3.5707-1.5938-5.4062zm-45.375,11.5c-2.7051,1.5923-5.4253,3.1357-8.1562,4.6562 1.0506,1.4588 2.1125,2.9042 3.2188,4.3125 2.9208-1.6329 5.8279-3.3164 8.7188-5.0312-1.282-1.2812-2.552-2.598-3.7812-3.9375zm50.781,3.8438c-2.6327,1.9078-5.2951,3.7833-7.9688,5.625 .6352,1.7086 1.3245,3.3828 2.0312,5 2.7803-1.9084 5.5449-3.8327 8.2812-5.8125-.8242-1.544-1.6002-3.1527-2.3438-4.8125zm-39.219,7.25c-3.2572,1.9461-6.5168,3.8456-9.8125,5.6875 1.2442,1.3453 2.5148,2.6516 3.8125,3.9375 3.5011-1.9731 6.9809-3.9722 10.438-6.0625-1.4993-1.1481-2.9901-2.3437-4.4375-3.5625zm79.875,.4688c-15.279,12.748-31.527,24.419-48.375,34.719l-.2812,6.375c18.133-10.874 35.62-23.33 51.969-37.031-.1364,.0485-.2696,.1083-.4062,.1562-.8765-1.5059-1.8582-2.9073-2.9062-4.2188zm-66.312,9.4062c-3.8644,2.3742-7.7656,4.6785-11.688,6.9062 1.4634,1.22 2.9529,2.4145 4.4688,3.5625 4.1462-2.3855 8.2641-4.8578 12.344-7.4062-1.7381-.9739-3.4377-2.0017-5.125-3.0625zm74.531,23.875c-18.374,14.329-37.941,27.101-58.125,37.844l-.2812,6.125c20.348-10.607 40.11-23.26 58.688-37.531l-.2812-6.4375zm.8125,18.906c-18.964,14.004-39.079,26.313-59.688,36.5l-.25,6.0625c20.76-10.039 41.031-22.252 60.188-36.188l-.25-6.375zm.7812,18.562c-19.552,13.674-40.158,25.579-61.188,35.188l-.25,5.9062c21.167-9.4502 41.953-21.215 61.688-34.812l-.25-6.2812zm.7812,18.281c-20.128,13.326-41.256,24.72-62.688,33.719l-.25,5.8125c21.576-8.8318 42.868-20.126 63.188-33.375l-.25-6.1562zm.75,17.938c-20.688,12.954-42.317,23.865-64.125,32.219l-.25,5.7188c21.95-8.1755 43.746-18.971 64.625-31.844l-.25-6.0938zm.75,17.656c-21.257,12.575-43.375,22.95-65.562,30.625l-.25,5.625c22.321-7.4846 44.618-17.733 66.062-30.219l-.25-6.0312zm.7188,17.375c-21.819,12.172-44.389,22.014-66.938,28.969l-.25,5.5c22.678-6.7488 45.431-16.457 67.438-28.531l-.25-5.9375zm.7188,17.062c-22.375,11.745-45.421,20.998-68.312,27.188l-.2188,5.4375c23.009-5.9681 46.226-15.115 68.781-26.75l-.25-5.875zm.7188,16.844c-22.925,11.289-46.442,19.908-69.656,25.281l-.2188,5.3125c23.335-5.1383 47.013-13.633 70.125-24.812l-.25-5.7812zm.6875,16.531c-23.468,10.802-47.455,18.78-70.969,23.281l-.2188,5.1562c23.634-4.2481 47.777-12.066 71.438-22.75l-.25-5.6875zm.6875,16.25c-14.723,6.3082-29.585,11.49-44.375,15.375h18.406c8.7478-2.8235 17.519-6.0677 26.219-9.7188l-.25-5.6562z"/>
</g>
<g transform="matrix(.23648 0 0 .28615 -114.60067 -68.00516)">
<path opacity=".058" fill="#ff7f2a" d="m682.9,546.83c-12.739,0-23.523,15.746-27.244,37.503l-7.3703,214.02h21.453l7.3703-214.02c2.6122-15.276 8.7002-27.589 16.504-33.569-3.3099-2.5352-6.9202-3.9342-10.713-3.9342z"/>
</g>
</svg>
