<svg width="281.1531" xmlns="http://www.w3.org/2000/svg" viewBox="0 0 281.15309 242.74862" height="242.7486">
<g fill-rule="evenodd">
<g transform="matrix(.77802 0 0 .77802 -258.88616 -192.16457)">
<path fill="#a05a2c" d="m483.72,557.76 14.81-55.53-64.17-72.8 16.05-13.58 46.89,45.66 3.7-74.04h24.68l-4.94,71.57 64.17-38.25 11.11,24.68-56.77,28.38 28.38,85.15-83.91-1.24z"/>
</g>
<g fill="#4a0" transform="matrix(.77802 0 0 .77802 -258.88616 -192.16457)">
<path d="m371.23,448.16c22.96-24.08 61.29,3.72 63.7-20.27-24.44-6.08-50.02-9-63.7,20.27z"/>
<path d="m332.75,451.01c17.45-28.33 60.73-9.11 58.09-33.09-25.17-.86-50.8,1.62-58.09,33.09z"/>
<path d="m355.1,325.36c29.79-14.83 56.37,24.37 66.8,2.62-20.91-14.03-43.98-25.48-66.8-2.62z"/>
<path d="m453.22,350.95c32.68,6.23 30.12,53.52 51.58,42.52-8.15-23.83-19.58-46.9-51.58-42.52z"/>
<path d="m435.46,291.51c30.78,12.63 18.83,58.45 42.06,51.97-3.23-24.98-9.83-49.87-42.06-51.97z"/>
<path d="m402.96,302.54c32.45,7.33 28.28,54.51 50.1,44.25-7.33-24.09-17.97-47.54-50.1-44.25z"/>
<path d="m361.33,371.97c27.34-18.97 59.29,15.98 66.48-7.04-22.71-10.87-47.19-18.88-66.48,7.04z"/>
<path d="m400.34,341.12c33.15,2.86 35.42,50.16 55.65,37.03-10.53-22.87-24.26-44.66-55.65-37.03z"/>
<path d="m355.01,407.58c22.96-24.08 61.3,3.73 63.7-20.27-24.43-6.08-50.02-8.99-63.7,20.27z"/>
<path d="m404.44,381.61c33.27-.53 40.35,46.29 59.14,31.17-12.81-21.68-28.69-41.95-59.14-31.17z"/>
<path d="m372.72,416.95c28.07-17.86 58.61,18.34 66.71-4.37-22.26-11.78-46.4-20.75-66.71,4.37z"/>
<path d="m655.64,454.95c-22.96-24.08-61.29,3.73-63.7-20.27 24.43-6.08 50.02-8.99 63.7,20.27z"/>
<path d="m694.12,457.81c-17.45-28.34-60.73-9.12-58.09-33.09 25.17-.86 50.8,1.62 58.09,33.09z"/>
<path d="m671.77,332.16c-29.79-14.83-56.37,24.37-66.8,2.62 20.91-14.03 43.97-25.48 66.8-2.62z"/>
<path d="m573.65,357.75c-32.68,6.22-30.12,53.51-51.58,42.52 8.14-23.83 19.58-46.9 51.58-42.52z"/>
<path d="m592.74,303.29c-31.61,10.37-22.99,56.94-45.69,48.8 5.02-24.68 13.39-49.03 45.69-48.8z"/>
<path d="m623.91,309.34c-32.45,7.33-28.28,54.51-50.11,44.25 7.34-24.09 17.98-47.54 50.11-44.25z"/>
<path d="m665.54,378.76c-27.34-18.96-59.29,15.99-66.48-7.03 22.71-10.88 47.19-18.88 66.48,7.03z"/>
<path d="m626.53,347.91c-33.15,2.86-35.42,50.17-55.65,37.04 10.53-22.87 24.26-44.66 55.65-37.04z"/>
<path d="m671.86,414.38c-22.96-24.08-61.3,3.72-63.71-20.27 24.44-6.08 50.03-9 63.71,20.27z"/>
<path d="m622.43,388.41c-33.27-.54-40.35,46.29-59.14,31.17 12.81-21.68 28.69-41.96 59.14-31.17z"/>
<path d="m654.15,423.74c-28.08-17.85-58.61,18.35-66.71-4.37 22.26-11.77 46.4-20.75 66.71,4.37z"/>
<path d="m555.22,321.87c-29.06,16.2-11.73,60.28-35.57,56.6 .23-25.18 3.82-50.68 35.57-56.6z"/>
<path d="m578.25,269.55c-31.36,11.12-21.64,57.47-44.52,49.87 4.43-24.79 12.22-49.34 44.52-49.87z"/>
<path d="m477.95,321.87c29.06,16.2 11.74,60.28 35.58,56.6-.24-25.18-3.82-50.68-35.58-56.6z"/>
<path d="m451.94,275.4c32.37,7.68 27.69,54.81 49.63,44.79-7.08-24.17-17.47-47.73-49.63-44.79z"/>
<path d="m488.44,275.56c28.14,17.75 8.45,60.82 32.45,58.44 1.14-25.15-1.06-50.81-32.45-58.44z"/>
<path d="m569.51,247.2c-32.31,7.95-27.25,55.03-49.27,45.19 6.88-24.23 17.08-47.87 49.27-45.19z"/>
<path d="m616.91,275.07c-33.23-1.64-41.87,44.93-60.14,29.19 13.52-21.24 30.07-40.98 60.14-29.19z"/>
</g>
</g>
</svg>
