<svg width="248.5197" xmlns="http://www.w3.org/2000/svg" viewBox="0 0 248.51975 452.59951" height="452.5995">
<g transform="matrix(1.0641 0 0 1.0641 -345.18577 -192.88356)">
<path fill="#d38d5f" fill-rule="evenodd" d="m427.78,436.98-2.4,51.21-30.4-28.81-4,8.81 33.19,42.39-11.59,96.02h51.2l-20-172.02-16,2.4z"/>
</g>
<g transform="matrix(.97065 -.43605 .43605 .97065 -610.29565 195.15114)">
<path fill="#abc837" fill-rule="evenodd" d="m613.03,345.73c-.83,4.12-.36,12.39 10.43,13.05-.62,4.31 6.53,11.96 12.19,9.34 5.08-1.53 17.1-8.76 12.03-33.15-19.39-1.27-33.54,2.44-34.65,10.76z"/>
</g>
<g transform="matrix(1.04828 -.18281 .18281 1.04828 -540.15017 -33.96023)">
<path fill="#abc837" fill-rule="evenodd" d="m613.03,345.73c-.83,4.12-.36,12.39 10.43,13.05-.62,4.31 6.53,11.96 12.19,9.34 5.08-1.53 17.1-8.76 12.03-33.15-19.39-1.27-33.54,2.44-34.65,10.76z"/>
</g>
<g transform="matrix(.97065 -.43605 .43605 .97065 -623.92677 152.93829)">
<path fill="#abc837" fill-rule="evenodd" d="m613.03,345.73c-.83,4.12-.36,12.39 10.43,13.05-.62,4.31 6.53,11.96 12.19,9.34 5.08-1.53 17.1-8.76 12.03-33.15-19.39-1.27-33.54,2.44-34.65,10.76z"/>
</g>
<g transform="matrix(.32475 -1.01333 1.01333 .32475 -505.04551 650.288)">
<path fill="#abc837" fill-rule="evenodd" d="m613.03,345.73c-.83,4.12-.36,12.39 10.43,13.05-.62,4.31 6.53,11.96 12.19,9.34 5.08-1.53 17.1-8.76 12.03-33.15-19.39-1.27-33.54,2.44-34.65,10.76z"/>
</g>
<g transform="matrix(.76543 -.73921 .73921 .76543 -631.38612 333.03722)">
<path fill="#abc837" fill-rule="evenodd" d="m613.03,345.73c-.83,4.12-.36,12.39 10.43,13.05-.62,4.31 6.53,11.96 12.19,9.34 5.08-1.53 17.1-8.76 12.03-33.15-19.39-1.27-33.54,2.44-34.65,10.76z"/>
</g>
<g transform="matrix(.55503 -.90788 .90788 .55503 -587.47071 541.64338)">
<path fill="#abc837" fill-rule="evenodd" d="m613.03,345.73c-.83,4.12-.36,12.39 10.43,13.05-.62,4.31 6.53,11.96 12.19,9.34 5.08-1.53 17.1-8.76 12.03-33.15-19.39-1.27-33.54,2.44-34.65,10.76z"/>
</g>
<g transform="matrix(.97065 -.43605 .43605 .97065 -638.36661 109.60814)">
<path fill="#abc837" fill-rule="evenodd" d="m613.03,345.73c-.83,4.12-.36,12.39 10.43,13.05-.62,4.31 6.53,11.96 12.19,9.34 5.08-1.53 17.1-8.76 12.03-33.15-19.39-1.27-33.54,2.44-34.65,10.76z"/>
</g>
<g transform="matrix(.49722 -.94079 .94079 .49722 -612.11526 585.22891)">
<path fill="#abc837" fill-rule="evenodd" d="m613.03,345.73c-.83,4.12-.36,12.39 10.43,13.05-.62,4.31 6.53,11.96 12.19,9.34 5.08-1.53 17.1-8.76 12.03-33.15-19.39-1.27-33.54,2.44-34.65,10.76z"/>
</g>
<g transform="matrix(.69688 -.80416 .80416 .69688 -623.35216 474.06239)">
<path fill="#abc837" fill-rule="evenodd" d="m613.03,345.73c-.83,4.12-.36,12.39 10.43,13.05-.62,4.31 6.53,11.96 12.19,9.34 5.08-1.53 17.1-8.76 12.03-33.15-19.39-1.27-33.54,2.44-34.65,10.76z"/>
</g>
<g transform="matrix(.47963 -.94988 .94988 .47963 -575.48894 633.79445)">
<path fill="#abc837" fill-rule="evenodd" d="m613.03,345.73c-.83,4.12-.36,12.39 10.43,13.05-.62,4.31 6.53,11.96 12.19,9.34 5.08-1.53 17.1-8.76 12.03-33.15-19.39-1.27-33.54,2.44-34.65,10.76z"/>
</g>
<g transform="matrix(.72983 -.77438 .77438 .72983 -713.25796 446.57668)">
<path fill="#abc837" fill-rule="evenodd" d="m613.03,345.73c-.83,4.12-.36,12.39 10.43,13.05-.62,4.31 6.53,11.96 12.19,9.34 5.08-1.53 17.1-8.76 12.03-33.15-19.39-1.27-33.54,2.44-34.65,10.76z"/>
</g>
<g transform="matrix(.56671 -.90064 .90064 .56671 -620.27691 616.40704)">
<path fill="#abc837" fill-rule="evenodd" d="m613.03,345.73c-.83,4.12-.36,12.39 10.43,13.05-.62,4.31 6.53,11.96 12.19,9.34 5.08-1.53 17.1-8.76 12.03-33.15-19.39-1.27-33.54,2.44-34.65,10.76z"/>
</g>
<g transform="matrix(.32333 -1.01379 1.01379 .32333 -467.2274 783.90701)">
<path fill="#abc837" fill-rule="evenodd" d="m613.03,345.73c-.83,4.12-.36,12.39 10.43,13.05-.62,4.31 6.53,11.96 12.19,9.34 5.08-1.53 17.1-8.76 12.03-33.15-19.39-1.27-33.54,2.44-34.65,10.76z"/>
</g>
<g transform="matrix(1.05818 -.11202 .11202 1.05818 -514.97357 -164.74876)">
<path fill="#abc837" fill-rule="evenodd" d="m613.03,345.73c-.83,4.12-.36,12.39 10.43,13.05-.62,4.31 6.53,11.96 12.19,9.34 5.08-1.53 17.1-8.76 12.03-33.15-19.39-1.27-33.54,2.44-34.65,10.76z"/>
</g>
<g transform="matrix(.93525 -.50755 .50755 .93525 -635.65316 89.59243)">
<path fill="#abc837" fill-rule="evenodd" d="m613.03,345.73c-.83,4.12-.36,12.39 10.43,13.05-.62,4.31 6.53,11.96 12.19,9.34 5.08-1.53 17.1-8.76 12.03-33.15-19.39-1.27-33.54,2.44-34.65,10.76z"/>
</g>
<g transform="matrix(.97065 -.43605 .43605 .97065 -614.73295 72.83285)">
<path fill="#abc837" fill-rule="evenodd" d="m613.03,345.73c-.83,4.12-.36,12.39 10.43,13.05-.62,4.31 6.53,11.96 12.19,9.34 5.08-1.53 17.1-8.76 12.03-33.15-19.39-1.27-33.54,2.44-34.65,10.76z"/>
</g>
<g transform="matrix(.97065 -.43605 .43605 .97065 -595.03646 113.54531)">
<path fill="#abc837" fill-rule="evenodd" d="m613.03,345.73c-.83,4.12-.36,12.39 10.43,13.05-.62,4.31 6.53,11.96 12.19,9.34 5.08-1.53 17.1-8.76 12.03-33.15-19.39-1.27-33.54,2.44-34.65,10.76z"/>
</g>
<g transform="matrix(.68307 -.81592 .81592 .68307 -627.09779 370.74893)">
<path fill="#abc837" fill-rule="evenodd" d="m613.03,345.73c-.83,4.12-.36,12.39 10.43,13.05-.62,4.31 6.53,11.96 12.19,9.34 5.08-1.53 17.1-8.76 12.03-33.15-19.39-1.27-33.54,2.44-34.65,10.76z"/>
</g>
<g transform="matrix(1.03432 -.25 .25 1.03432 -562.59204 -107.48528)">
<path fill="#abc837" fill-rule="evenodd" d="m613.03,345.73c-.83,4.12-.36,12.39 10.43,13.05-.62,4.31 6.53,11.96 12.19,9.34 5.08-1.53 17.1-8.76 12.03-33.15-19.39-1.27-33.54,2.44-34.65,10.76z"/>
</g>
<g transform="matrix(1.05561 -.13418 .13418 1.05561 -483.19954 -68.53283)">
<path fill="#abc837" fill-rule="evenodd" d="m613.03,345.73c-.83,4.12-.36,12.39 10.43,13.05-.62,4.31 6.53,11.96 12.19,9.34 5.08-1.53 17.1-8.76 12.03-33.15-19.39-1.27-33.54,2.44-34.65,10.76z"/>
</g>
<g transform="matrix(1.06367 .03009 -.03009 1.06367 -445.55913 -215.75533)">
<path fill="#abc837" fill-rule="evenodd" d="m613.03,345.73c-.83,4.12-.36,12.39 10.43,13.05-.62,4.31 6.53,11.96 12.19,9.34 5.08-1.53 17.1-8.76 12.03-33.15-19.39-1.27-33.54,2.44-34.65,10.76z"/>
</g>
<g transform="matrix(.37892 -.99435 .99435 .37892 -518.19779 791.46211)">
<path fill="#abc837" fill-rule="evenodd" d="m613.03,345.73c-.83,4.12-.36,12.39 10.43,13.05-.62,4.31 6.53,11.96 12.19,9.34 5.08-1.53 17.1-8.76 12.03-33.15-19.39-1.27-33.54,2.44-34.65,10.76z"/>
</g>
<g transform="matrix(.97065 -.43605 .43605 .97065 -617.36128 -42.71777)">
<path fill="#abc837" fill-rule="evenodd" d="m613.03,345.73c-.83,4.12-.36,12.39 10.43,13.05-.62,4.31 6.53,11.96 12.19,9.34 5.08-1.53 17.1-8.76 12.03-33.15-19.39-1.27-33.54,2.44-34.65,10.76z"/>
</g>
<g transform="matrix(.97065 -.43605 .43605 .97065 -604.23028 -4.63363)">
<path fill="#abc837" fill-rule="evenodd" d="m613.03,345.73c-.83,4.12-.36,12.39 10.43,13.05-.62,4.31 6.53,11.96 12.19,9.34 5.08-1.53 17.1-8.76 12.03-33.15-19.39-1.27-33.54,2.44-34.65,10.76z"/>
</g>
<g transform="matrix(.7462 -.75861 .75861 .7462 -619.43627 273.19224)">
<path fill="#abc837" fill-rule="evenodd" d="m613.03,345.73c-.83,4.12-.36,12.39 10.43,13.05-.62,4.31 6.53,11.96 12.19,9.34 5.08-1.53 17.1-8.76 12.03-33.15-19.39-1.27-33.54,2.44-34.65,10.76z"/>
</g>
<g transform="matrix(1.04404 -.20561 .20561 1.04404 -528.33866 18.67016)">
<path fill="#abc837" fill-rule="evenodd" d="m613.03,345.73c-.83,4.12-.36,12.39 10.43,13.05-.62,4.31 6.53,11.96 12.19,9.34 5.08-1.53 17.1-8.76 12.03-33.15-19.39-1.27-33.54,2.44-34.65,10.76z"/>
</g>
</svg>
