<svg xmlns="http://www.w3.org/2000/svg" viewBox="0 0 744.0945 1052.3622" xmlns:xlink="http://www.w3.org/1999/xlink">
<defs>
<clipPath id="clipPath3640">
<path fill="none" stroke="#000" d="m1399.9-2380.5s15.908,120.9 232.25,174.98c216.34,54.086 318.15-79.538 470.87,9.5445 152.71,89.083 213.16,178.17 213.16,178.17s98.627-346.79 69.994-388.15c-28.634-41.36-267.25-213.16-302.24-222.71-34.997-9.5446-410.42-22.271-410.42-22.271s-213.16,124.08-213.16,136.81c0,12.726-60.449,133.62-60.449,133.62z"/>
</clipPath>
<linearGradient gradientTransform="translate(-6515.1 -3113.6)" id="linearGradient5229" y1="-1534.2" y2="-1540.6" x1="1673.5" gradientUnits="userSpaceOnUse" x2="1880.3">
<stop offset="0" stop-color="#a40"/>
<stop offset="1" stop-color="#a40" stop-opacity="0"/>
</linearGradient>
<linearGradient id="linearGradient3657">
<stop offset="0" stop-color="#f9f9f9"/>
<stop offset="1" stop-color="#f9f9f9" stop-opacity="0"/>
</linearGradient>
<linearGradient id="linearGradient5221" xlink:href="#linearGradient3657" y1="-3198.2" y2="-2189.6" x1="1963" gradientUnits="userSpaceOnUse" x2="1889.8"/>
<linearGradient id="linearGradient5225" xlink:href="#linearGradient3657" y1="-2654.1" y2="-2087.8" x1="1877.1" gradientUnits="userSpaceOnUse" x2="1858"/>
<radialGradient cx="1871.3" cy="-2145.9" gradientTransform="matrix(.72548 .30372 -.30011 .71686 -143.63 -1159.2)" id="radialGradient5217" r="378.72" gradientUnits="userSpaceOnUse">
<stop offset="0" stop-color="#ff7f2a"/>
<stop offset="1" stop-color="#ff7f2a" stop-opacity="0"/>
</radialGradient>
</defs>
<g transform="matrix(.63615 0 0 .63615 -783.09667 1673.93912)">
<path fill="#803300" d="m2096.6-2113.3c0,94.884-96.148,171.8-214.75,171.8s-214.75-76.918-214.75-171.8c0-94.884 96.148-171.8 214.75-171.8s214.75,76.918 214.75,171.8zm66.812,165.44c0,84.341-71.221,152.71-159.08,152.71-87.855,0-159.08-68.372-159.08-152.71 0-84.341 71.221-152.71 159.08-152.71 87.855,0 159.08,68.372 159.08,152.71zm-206.8,54.086c0,61.499-62.674,111.35-139.99,111.35-77.313,0-139.99-49.855-139.99-111.35 0-61.499 62.674-111.35 139.99-111.35 77.313,0 139.99,49.855 139.99,111.35zm302.24-135.21c0,64.134-44.157,116.13-98.627,116.13s-98.627-51.991-98.627-116.13c0-64.134 44.157-116.13 98.627-116.13s98.627,51.991 98.627,116.13zm-6.3633-151.12c0,63.256-55.552,114.53-124.08,114.53-68.527,0-124.08-51.279-124.08-114.53 0-63.256 55.552-114.53 124.08-114.53 68.527,0 124.08,51.279 124.08,114.53zm-445.41,219.53c0,80.827-66.948,146.35-149.53,146.35-82.584,0-149.53-65.523-149.53-146.35s66.948-146.35 149.53-146.35c82.584,0 149.53,65.523 149.53,146.35zm-9.5446-171.8c0,89.612-77.631,162.26-173.39,162.26-95.762,0-173.39-72.645-173.39-162.26 0-89.612 77.631-162.26 173.39-162.26 95.762,0 173.39,72.645 173.39,162.26zm353.15-160.67c0,74.677-68.372,135.21-152.71,135.21-84.341,0-152.71-60.538-152.71-135.21 0-74.677 68.372-135.21 152.71-135.21 84.341,0 152.71,60.538 152.71,135.21zm-194.07-50.904c0,71.163-56.264,128.85-125.67,128.85s-125.67-57.689-125.67-128.85c0-71.163 56.264-128.85 125.67-128.85s125.67,57.689 125.67,128.85zm-159.08,89.083c0,71.163-59.826,128.85-133.62,128.85-73.799,0-133.62-57.689-133.62-128.85 0-71.163 59.826-128.85 133.62-128.85 73.798,0 133.62,57.689 133.62,128.85z"/>
<path fill="#a40" d="m1829.7-2453.6c-47.514-.1768-93.347,36.637-101.44,83.843-.1455,7.655-.023,15.313-.063,22.969-44.017-27.513-105.89-22.706-144,13-21.06,19.621-34.228,47.616-34.844,76.344-54.957,26.135-90.185,91.506-76.964,151.54 7.8967,38.328 32.762,72.437 66.057,92.738-25.407,52.783-6.634,122.75 42.055,155.5 36.427,25.99 85.741,31.35 127.29,15.314 11.983-1.0268 17.898,11.499 27.219,16.344 54.681,38.076 136.25,31.721 182.97-16.438 55.933,43.165 144.47,36.012 191.72-17.281 18.58-20.364 30.723-46.501 34.281-73.719 35.521,8.7634 72.166-15.41 85.633-47.982 20.135-42.987 10.08-99.302-26.82-130.39 33.078-29.168 41.458-83.91 14.156-119.41-17.104-24.576-45.578-40.325-75.063-43.5-9.9333-4.0061-11.562-16.197-10.549-25.497-3.0462-44.034-35.965-82.325-76.47-97.82-40.702-16.833-88.806-14.156-127.7,6.1917-17.404-36.78-56.281-62.91-97.469-61.75z"/>
<path fill="url(#radialGradient5217)" d="m1829.8-2447.2c-44.664-.2277-88.1,34.558-95.188,79-.126,11.052-.035,22.104-.062,33.156-40.345-31.03-101.99-30.838-141.5,1.9063-23.299,19.302-38.001,49.37-37.406,79.781-57.122,24.856-93.036,93.99-75,154.66 9.7995,35.15 34.421,65.382 66.031,83.125-29.224,53.382-8.0462,127.75 44.906,157.62 34.603,21.205 78.71,23.434 116.31,9.2188 13.659-1.0936 21.462,12.226 31.906,18.344 53.704,36.578 134,28.496 177.56-20.594 53.575,45.356 142.95,39.128 188.91-14.406 18.563-21.166 30.031-48.12 32.25-76.031 29.839,11.032 64.128-5.5737 79.706-31.855 26.145-41.945 18.066-103.28-20.987-134.9-3.6606-3.3781-.7038-8.3629 3.0818-10.018 31.019-28.732 36.397-82.353 7.6308-114.41-16.85-21.067-42.699-33.229-69.088-36.45-12.465-5.3394-15.295-20.757-14.062-32.906-4.275-44.559-40.514-81.622-82.531-93.938-39.014-12.49-82.686-7.5162-118.06,12.781-15.1-37.438-53.459-65.379-94.406-64.094z"/>
<path fill="url(#radialGradient5217)" d="m1829.8-2447.2c-44.664-.2277-88.1,34.558-95.188,79-.126,11.052-.035,22.104-.062,33.156-40.345-31.03-101.99-30.838-141.5,1.9063-23.299,19.302-38.001,49.37-37.406,79.781-57.122,24.856-93.036,93.99-75,154.66 9.7995,35.15 34.421,65.382 66.031,83.125-29.224,53.382-8.0462,127.75 44.906,157.62 34.603,21.205 78.71,23.434 116.31,9.2188 13.659-1.0936 21.462,12.226 31.906,18.344 53.704,36.578 134,28.496 177.56-20.594 53.575,45.356 142.95,39.128 188.91-14.406 18.563-21.166 30.031-48.12 32.25-76.031 29.839,11.032 64.128-5.5737 79.706-31.855 26.145-41.945 18.066-103.28-20.987-134.9-3.6606-3.3781-.7038-8.3629 3.0818-10.018 31.019-28.732 36.397-82.353 7.6308-114.41-16.85-21.067-42.699-33.229-69.088-36.45-12.465-5.3394-15.295-20.757-14.062-32.906-4.275-44.559-40.514-81.622-82.531-93.938-39.014-12.49-82.686-7.5162-118.06,12.781-15.1-37.438-53.459-65.379-94.406-64.094z"/>
</g>
<g transform="matrix(.63615 0 0 .63615 3361.48591 3654.65658)">
<path fill="#2b1100" stroke="#000" d="m-4822.5-5051.8s111.35,120.9 127.26,369.06c15.908,248.16-130.44,464.5-130.44,464.5s12.726-28.634 89.083-31.815c76.357-3.1815 165.44,34.997 165.44,34.997s-44.541-365.88-44.541-483.59c0-117.72 76.357-337.24 76.357-337.24l-92.264,117.72-152.71-120.9z"/>
<g clip-path="url(#clipPath3640)" transform="translate(-6515.1 -3110.4)">
<path fill="url(#linearGradient5221)" d="m2096.6-2113.3c0,94.884-96.148,171.8-214.75,171.8s-214.75-76.918-214.75-171.8c0-94.884 96.148-171.8 214.75-171.8s214.75,76.918 214.75,171.8zm66.812,165.44c0,84.341-71.221,152.71-159.08,152.71-87.855,0-159.08-68.372-159.08-152.71 0-84.341 71.221-152.71 159.08-152.71 87.855,0 159.08,68.372 159.08,152.71zm-206.8,54.086c0,61.499-62.674,111.35-139.99,111.35-77.313,0-139.99-49.855-139.99-111.35 0-61.499 62.674-111.35 139.99-111.35 77.313,0 139.99,49.855 139.99,111.35zm302.24-135.21c0,64.134-44.157,116.13-98.627,116.13s-98.627-51.991-98.627-116.13c0-64.134 44.157-116.13 98.627-116.13s98.627,51.991 98.627,116.13zm-6.3633-151.12c0,63.256-55.552,114.53-124.08,114.53-68.527,0-124.08-51.279-124.08-114.53 0-63.256 55.552-114.53 124.08-114.53 68.527,0 124.08,51.279 124.08,114.53zm-445.41,219.53c0,80.827-66.948,146.35-149.53,146.35-82.584,0-149.53-65.523-149.53-146.35s66.948-146.35 149.53-146.35c82.584,0 149.53,65.523 149.53,146.35zm-9.5446-171.8c0,89.612-77.631,162.26-173.39,162.26-95.762,0-173.39-72.645-173.39-162.26 0-89.612 77.631-162.26 173.39-162.26 95.762,0 173.39,72.645 173.39,162.26zm353.15-160.67c0,74.677-68.372,135.21-152.71,135.21-84.341,0-152.71-60.538-152.71-135.21 0-74.677 68.372-135.21 152.71-135.21 84.341,0 152.71,60.538 152.71,135.21zm-194.07-50.904c0,71.163-56.264,128.85-125.67,128.85s-125.67-57.689-125.67-128.85c0-71.163 56.264-128.85 125.67-128.85s125.67,57.689 125.67,128.85zm-159.08,89.083c0,71.163-59.826,128.85-133.62,128.85-73.799,0-133.62-57.689-133.62-128.85 0-71.163 59.826-128.85 133.62-128.85 73.798,0 133.62,57.689 133.62,128.85z"/>
<path fill="url(#linearGradient5221)" d="m1829.7-2453.6c-47.514-.1768-93.347,36.637-101.44,83.843-.1455,7.655-.023,15.313-.063,22.969-44.017-27.513-105.89-22.706-144,13-21.06,19.621-34.228,47.616-34.844,76.344-54.957,26.135-90.185,91.506-76.964,151.54 7.8967,38.328 32.762,72.437 66.057,92.738-25.407,52.783-6.634,122.75 42.055,155.5 36.427,25.99 85.741,31.35 127.29,15.314 11.983-1.0268 17.898,11.499 27.219,16.344 54.681,38.076 136.25,31.721 182.97-16.438 55.933,43.165 144.47,36.012 191.72-17.281 18.58-20.364 30.723-46.501 34.281-73.719 35.521,8.7634 72.166-15.41 85.633-47.982 20.135-42.987 10.08-99.302-26.82-130.39 33.078-29.168 41.458-83.91 14.156-119.41-17.104-24.576-45.578-40.325-75.063-43.5-9.9333-4.0061-11.562-16.197-10.549-25.497-3.0462-44.034-35.965-82.325-76.47-97.82-40.702-16.833-88.806-14.156-127.7,6.1917-17.404-36.78-56.281-62.91-97.469-61.75z"/>
<path fill="url(#linearGradient5225)" d="m1829-2431.3c-43.37-.884-83.263,40.266-78.467,83.969 .037,16.365 .075,32.729 .06,49.094-20.444-25.546-51.192-44.834-84.844-44.188-37.816-.3548-76.853,22.534-89.125,59.314-4.5807,12.719-5.6265,26.882-4.7501,40.092-55.489,18.584-92.216,83.14-75.938,140.12 10.224,36.514 39.018,65.879 73.125,81.375-33.541,43.886-22.419,114.52 23.475,145.51 32.109,22.987 75.59,25.66 112.21,12.613 9.3531-2.9877 18.9,.4772 26.34,6.3238 16.66,11.59 32.695,25.471 53.119,29.645 45.739,12.254 98.943-3.4706 127.48-41.968 5.8121-4.2978 12.831,.9883 16.125,5.9063 32.689,28.622 81.626,33.794 121.59,18.562 31.627-11.636 57.736-38.05 67.531-70.469 5.4256-16.743 7.4101-34.454 7.125-52.031 14.458,12.42 35.972,17.842 53.656,9.25 26.95-11.664 40.952-42.281 40.094-70.469-.3707-28.47-14.667-55.625-35.844-74.125-5.8924-11.893 1.9143-25.694 12.135-32.31 27.635-28.733 19.464-81.014-13.251-102.37-14.753-10.351-32.898-12.993-49.665-18.481-12.736-5.0658-19.921-18.036-21.613-31.141-2.5409-16.64-2.7326-34.785-13.137-48.953-23.001-37.527-69.804-56.187-112.61-50.037-24.48,2.8569-47.826,12.706-67.886,26.787-9.0422-39.368-44.836-74.03-86.937-72.031z"/>
</g>
<path fill="url(#linearGradient5229)" stroke="#000" d="m-4822.5-5051.8s111.35,120.9 127.26,369.06c15.908,248.16-130.44,464.5-130.44,464.5s12.726-28.634 89.083-31.815c76.357-3.1815 165.44,34.997 165.44,34.997s-44.541-365.88-44.541-483.59c0-117.72 76.357-337.24 76.357-337.24l-92.264,117.72-152.71-120.9z"/>
</g>
<g transform="matrix(.32712 0 0 .32712 1976.1 3129.4)">
<path fill="#540" d="m-5885.2-6695.5h1970.7v161.98h-1970.7z"/>
</g>
</svg>
