<svg xmlns="http://www.w3.org/2000/svg" viewBox="0 0 224.56 272.91">
<g transform="translate(-4.8524 -50.267)">
<path d="m111.23,50.269c-.68,.006-1.44,.028-2.28,.062-3.81,.156-6.74,.632-6.47,1.063 .26,.431-.24,.781-1.13,.781s-1.34,.45-1,1 .12,1-.498,1c-.615,0-.84,.45-.5,1 .351,.567-.486,1-1.937,1-1.408,0-2.563,.248-2.563,.563 0,1.073 2.631,3.226 4.563,3.718 1.675,.427 1.645,.493-.313,.594-2.596,.134-2.944,1.612-.687,2.875 .947,.53-.872,.711-4.656,.438-4.441-.322-5.97-.124-5.469,.687 .684,1.107-1.253,1.61-4.438,1.156-.825-.117-1.174,.101-.781,.5 1.268,1.289-1.135,4.449-2.875,3.782-1.109-.426-1.477-.181-1.156,.781 .259,.779 1.79,1.404 3.406,1.406 1.605,.002 3.273,.551 3.719,1.25s1.234,1.038 1.75,.719 .937-.079 .937,.562c0,.724-.663,.895-1.75,.438-3.844-1.616-5.96-1.633-6.562-.063-.463,1.208 .011,1.594 2.031,1.594 2.553,0 2.582,.059 .719,1.469-1.068,.807-2.725,1.482-3.688,1.5-2.057,.037-2.394,2.031-.343,2.031 .766,0 1.637,.624 1.937,1.406 .325,.846 1.326,1.214 2.5,.907 1.329-.348 2.371,.185 3.125,1.593 1.412,2.639 2.637,2.677 3.313,.094 .349-1.337 1.062-1.814 2.125-1.406 1.786,.685 2.164,2.406 .531,2.406-.583,0-.778,.45-.438,1s-.103,1-1,1c-2.109,0-4.805,2.697-4,4 .343,.554 .194,1-.343,1-.538,0-1.805,.306-2.813,.688-1.745,.661-1.761,.619-.094-1.063 1.808-1.824 2.372-3.117 .969-2.25-.439,.271-1.424,.097-2.187-.375-1.124-.694-1.144-1.147-.125-2.375 .692-.834 1.896-1.272 2.687-.969 1.006,.386 1.245,.065 .813-1.062-.718-1.87-1.992-2.082-2.969-.5-.441,.713-1.536,.18-3.094-1.5-1.329-1.433-2.918-2.594-3.531-2.594s-.308,.9 .687,2c2.743,3.031 1.65,2.734-7.25-1.875-2.337-1.21-4.25-1.722-4.25-1.156 0,1.417-2.739,1.312-3.218-.125-.214-.64-1.274-1.343-2.344-1.531-4.936-.87-8.438-.876-8.438-.032 0,.509-.621,.677-1.406,.375-2.137-.819-7.697,1.571-7.125,3.063 .496,1.291-.545,1.641-3.75,1.312-.975-.1-1.702,.208-1.625,.657s.04,1.15-.094,1.562c-.423,1.305-.746,2.716-.875,3.875-.085,.766-.611,.705-1.687-.187-.948-.787-1.845-.946-2.25-.375-.371,.521-2.038,1.433-3.688,2-2.133,.732-2.959,1.653-2.906,3.187 .041,1.187-.297,1.905-.75,1.625s-.844,.188-.844,1.031c0,1.224-.506,1.352-2.5,.594-2.143-.815-2.5-.662-2.5,1.031 0,1.094-.673,1.974-1.5,1.974-.825,0-1.5,.45-1.5,1s.563,.99 1.25,1c.982,.01 .969,.2-.031,.84-1.982,1.26-2.408,5.16-.562,5.16 1.182,0 1.417,.61 .906,2.65-.558,2.22-.449,2.5 .719,1.53 .772-.64 1.768-.84 2.218-.43 .45,.4 .529,.21 .157-.44-.373-.65-.216-1.47 .343-1.81 .559-.35 1,.08 1,.93 0,.86 .433,1.57 .938,1.57s1.696,.28 2.656,.65c1.19,.46 1.524,.3 1.031-.5-1.08-1.75 .499-1.39 1.813,.41 1.18,1.61 5.013,.98 4-.66-.301-.48 .178-.61 1.031-.28 .854,.33 1.531,.14 1.531-.41s.694-1.27 1.532-1.59c1.242-.48 1.332-.21 .468,1.41-1.47,2.74 .184,2.46 2.969-.5 1.276-1.36 2.689-2.27 3.125-2s1.246-.31 1.813-1.28c.567-.98 1.045-1.22 1.062-.57 .017,.66-.367,1.43-.844,1.72-1.635,1.01-.048,5.16 2.032,5.31 1.451,.11 1.845-.26 1.406-1.4-.529-1.38-.371-1.43 1.094-.22 1.255,1.04 1.792,1.08 2.093,.19 .28-.83 1.126-.9 2.75-.28 1.79,.68 2.476,.51 2.938-.69 .55-1.44 .773-1.45 2.344-.03 1.928,1.74 5.815,.47 4.593-1.5-.405-.66-.223-.81 .469-.38 .635,.39 1.156,.17 1.156-.5 0-.73 .827-.49 2.094,.66 1.15,1.04 2.612,1.93 3.25,1.97 3.083,.17 7.403,1.94 9.656,3.93 1.375,1.22 3.963,3.22 5.75,4.44 1.788,1.23 3.25,2.62 3.25,3.1 0,1.73-3.99,2.13-5.562,.56-.863-.86-1.989-1.62-2.5-1.69s-1.388-.24-1.938-.37c-.55-.14-1.457-.31-2.031-.38s-.911-.91-.75-1.87c.204-1.22-.484-1.87-2.219-2.1-1.375-.18-2.915-.75-3.437-1.25-1.211-1.17-2.84-1.19-2.125-.03 .538,.87-2.679,1.36-7.438,1.13-7.357-.37-12.391,.23-13.812,1.65-.733,.73-2.219,1.35-3.313,1.35-1.093,0-1.715,.45-1.375,1s-.11,1-1,1-1.34,.45-1,1-.11,1-1,1c-.97,0-1.335,.46-.906,1.15 .479,.78 .077,1-1.219,.66-2.043-.54-4.821,1.63-3.937,3.06 .286,.46-.643,1.34-2.031,1.97-1.389,.63-2.253,1.58-1.938,2.09s.122,1.19-.437,1.53c-1.623,1.01-1.179,2.82 .531,2.16 .943-.36 1.302-.2 .906,.44-.359,.58 .105,1.64 1.063,2.34 1.624,1.19 1.642,1.3 .062,1.91-1,.38-1.455,.24-1.094-.35 .336-.54-.051-.96-.875-.96-.893,0-1.436,.8-1.343,2.03 .124,1.65 .742,2 3.187,1.78 1.668-.16 3.282-.59 3.563-.97 .28-.38 1.743-1 3.25-1.38 3.294-.82 3.772,1.07 .531,2.1-1.991,.63-2.022,.79-.5,1.9 .919,.68 1.341,1.58 .937,2-.404,.43 .215,.46 1.407,.1 1.191-.37 2.471-.21 2.812,.34 .701,1.14 5.531-.66 5.531-2.06 0-.46 1.688-.57 3.75-.22 2.063,.35 4.313,.53 5,.41 .688-.13 3.838-.29 7-.38 3.163-.08 6.033-.53 6.375-1 .824-1.13 9.101,2.56 13.719,6.13 2.019,1.56 5.788,4.04 8.375,5.53 4.905,2.81 7.809,6.05 7.779,8.65-.01,.9-.32,1.12-.75,.54-.4-.55-1.65-1.5-2.748-2.1-1.1-.59-2.425-2.05-2.968-3.25-.544-1.19-1.444-2.01-2-1.81-.557,.2-2.157-.05-3.532-.56-4.141-1.55-8.371-1.78-9.281-.5-.649,.91-1.007,.86-1.437-.22-1.132-2.86-8.465-9.37-10.844-9.63-1.34-.14-2.438,.15-2.438,.66s-1.199,.65-2.656,.28c-1.864-.47-2.436-.34-1.937,.47 .882,1.43 .055,1.46-2.5,.09-1.473-.79-2.766-.66-5.094,.5-1.714,.86-3.763,1.57-4.563,1.57-.971,0-1.226,.58-.781,1.75 .515,1.35 .393,1.47-.531,.56-.922-.92-1.528-.88-2.594,.19-.76,.76-1.285,1.74-1.187,2.18 .097,.44-.195,1.61-.625,2.6-.431,.98-.505,2.05-.188,2.37 .903,.9-2.206,3.55-3.344,2.85-.559-.35-1.404,.41-1.875,1.68-.47,1.28-1.119,2.2-1.468,2.07-.35-.14-1.614-.25-2.782-.25-1.693,0-1.884,.27-.968,1.37 .884,1.07 .818,1.52-.344,1.97-.83,.32-1.267,1.22-.969,2 .641,1.67 5.415,1.91 5.438,.28 .008-.64 .374-.54 .875,.25 .59,.93 1.75,1.17 3.562,.72 1.819-.46 2.484-.33 2.031,.41-.368,.59-.123,1.74 .532,2.53 1.392,1.67 4.581,.38 6.781-2.72 1.183-1.67 1.484-1.67 2.875-.28 1.189,1.19 1.863,1.26 2.937,.37 .767-.63 1.371-.76 1.375-.28 .011,1.16 4.89,3.36 7.469,3.38 1.128,0 2.673,.43 3.469,.93 .879,.56 2.154,.54 3.219-.03 1.319-.7 2.342-.34 4.156,1.47 2.74,2.74 4.093,5.63 2.656,5.63-.533,0-.969-.45-.969-1s-1.125-1-2.5-1-2.5,.5-2.5,1.12c0,.63-1.177-.05-2.625-1.5-1.792-1.79-3.387-2.48-5-2.19-1.302,.24-2.375-.04-2.375-.59 0-1.07-2.484-3.84-3.437-3.84-.314,0-.563,.56-.563,1.25 .001,.85-1.647,1.21-5.25,1.12-4.867-.12-9.495,1.54-8.125,2.91 .326,.32-.334,.32-1.468,.03-1.216-.32-2.757,.16-3.75,1.15-1.102,1.11-2.439,1.45-3.813,1-1.155-.37-3.894-.84-6.094-1.03s-5.012-.59-6.25-.9c-1.334-.34-2.25-.11-2.25,.56 0,.62-.661,.87-1.468,.56-.808-.31-1.729-.13-2.063,.41s-1.329,.87-2.187,.72c-.893-.16-1.674,.54-1.844,1.62-.164,1.05-.901,2.24-1.625,2.69-5.1556,3.18-5.9052,4.47-3.063,5.22 1.206,.31 .973,.49-.7496,.59-2.4549,.15-2.4639,.17-.5,1.69 1.9996,1.55 1.9996,1.57 0,1.37-3.2445-.31-4.5-.03-4.5,1.04 0,.55 1.155,1 2.5625,1 1.4513,0 2.288,.43 1.9375,1-.34,.55 .2883,1 1.3746,1 1.087,0 2.192-.57 2.469-1.25 .364-.91 .537-.93 .594-.07 .043,.66-.388,1.48-.938,1.82-1.766,1.09-1.067,2.65 .907,2.03 1.434-.46 2.298,.15 3.437,2.43 .834,1.67 1.102,3.04 .594,3.04s-.938,.7-.938,1.56 .45,1.28 1,.94 1-.12 1,.5c0,.61 .45,.84 1,.5s1.563-.27 2.25,.15c.688,.43 3.436,.83 6.094,.91 4.03,.12 4.963-.17 5.594-1.88 .664-1.79 .816-1.67 1.375,1.13 .654,3.27 2.687,4.45 2.687,1.56 0-1.32 .293-1.41 1.5-.41 1.23,1.02 1.647,.79 2.469-1.37 1.144-3.01 1.888-3.37 1.688-.84-.101,1.27 .453,1.66 2.093,1.43 1.348-.18 2.517,.32 2.875,1.25 .33,.86 1.044,1.57 1.594,1.57s.747-.67 .438-1.47c-.31-.81-.134-1.76 .406-2.1 .539-.33 .87-.01 .719,.72-.175,.84 .502,1.22 1.875,1.03 1.188-.16 2.48,.24 2.875,.88 .926,1.5-1.635,3.09-3.063,1.9-.693-.57-1.549-.24-2.375,.91-1.313,1.82-6.094,1.82-6.094,0 0-1.53-1.414-.97-4.25,1.66-1.507,1.39-2.75,2.24-2.75,1.87 0-.36-.681-.08-1.531,.63-.85,.7-1.334,1.85-1.062,2.56 .304,.79-.046,1.08-.907,.75-1.039-.4-1.286,.14-.937,2.06 .269,1.49 .03,2.6-.594,2.6-.662,0-.82,.87-.406,2.25 .554,1.83 .414,2.01-.656,1-1.852-1.77-3.409-1.56-1.907,.25 1.04,1.25 .899,1.5-.875,1.5-2.246,0-2.713,.95-1.218,2.53 .496,.52 1.058,1.84 1.25,2.9 .302,1.68 1.253,1.95 7.125,2.03 5.113,.08 6.651-.22 6.281-1.18-.562-1.47 1.582-1.29 2.687,.22 .449,.61 .741,.48 .75-.32 .009-.72 .45-1.02 1-.68s1,.07 1-.57 .675-.91 1.5-.59c1.779,.68 1.846,.26 .438-2.66-1.019-2.11-1.002-2.12 .5-.25 .855,1.07 1.562,2.98 1.562,4.25 0,1.49 .626,2.36 1.75,2.44 .963,.07 2.73,.22 3.938,.34 1.208,.13 2.435-.35 2.719-1.09 .283-.74 1.178-1.08 1.968-.78 .791,.3 1.746,.02 2.125-.59 .508-.83 1.033-.8 2.032,.03 .747,.62 3.514,1.22 6.156,1.34 2.641,.12 6.95,1.21 9.562,2.44 2.613,1.22 6.213,2.51 8,2.84 2.143,.4 5.372,2.63 9.438,6.6 6.17,6.01 6.16,6.01 7.34,14.12 .65,4.46 1.01,10.14 .82,12.59l-.35,4.47-3.15-2.97c-1.75-1.63-3.48-4.02-3.85-5.31-.603-2.1-.48-2.23 1.35-1.25 2.52,1.35 4.19,1.4 2.15,.06-1.33-.87-1.33-1.08 0-2.03 1.18-.83 .96-.94-1-.5-2.45,.56-2.44,.54-.25-.59 1.76-.91 2.1-1.7 1.6-3.75-.35-1.43-1.04-2.76-1.5-2.94-.47-.18-.85-.98-.85-1.78s-.56-1.35-1.25-1.19c-.687,.16-2.599-.65-4.248-1.81-1.648-1.15-3.9-2.18-5-2.28-4.893-.46-7.597-.07-9.843,1.41-2.423,1.58-4.646,1.66-5.719,.21-.633-.85-5.461-1.17-8.156-.53-.942,.23-2.517,1.31-3.5,2.38-1.296,1.41-2.815,1.85-5.532,1.62-2.062-.17-3.75-.67-3.75-1.09 0-.99-6.17-1.06-7.5-.09-.55,.39-3.567,.42-6.718,.06-6.5-.75-9.153,.19-8.282,2.94 .471,1.48 .175,1.71-1.5,1.28-1.146-.3-1.994-.14-1.906,.34 .462,2.52-.258,4.38-1.687,4.38-1.048,0-1.392,.54-1,1.56 .461,1.2 .124,1.42-1.407,.94-2.28-.73-2.338-.57-1.031,2.87 .803,2.11 .68,2.42-.656,1.91-1.081-.42-1.441-.15-1.125,.81 .255,.77 1.393,1.55 2.531,1.72s2.314,1.18 2.594,2.25c.533,2.03 3.687,2.73 3.687,.81 0-.61 .739-.81 1.625-.47 1.225,.47 1.448,.18 .938-1.15-.538-1.42-.416-1.51 .594-.5 1.631,1.61 3.191,1.61 2.218,0-.549-.92-.313-.91 .875,.06 1.992,1.61 1.884,5.19-.156,5.19-1.104,0-1.213,.28-.375,1.12 1.359,1.36 10.84,1.72 14.125,.53 2.08-.75 2.277-.61 1.688,1.25-.734,2.31-.337,2.51 2.25,1.22 .955-.48 3.134-1.32 4.875-1.87 2.776-.9 3.233-.77 3.687,.96 .285,1.09 1.007,1.68 1.594,1.32 .587-.37 1.062-.15 1.062,.47 0,.61 .426,.84 .938,.53 .512-.32 1.214-.1 1.562,.47 .403,.65 1.162,.46 2.094-.47 .806-.81 2.129-1.19 2.938-.88 1.744,.67 1.831-.02 .406-2.97-.958-1.98-.91-2.02 .375-.43 1.79,2.21 2.833,2.26 2,.09-.408-1.06-.258-1.43 .437-1 .599,.37 1.764-.01 2.594-.84 2.084-2.09 2.408-1.95 3.156,1.46 .524,2.39 1.105,2.92 2.844,2.6 1.196-.23 2.873-.46 3.75-.5 2.263-.11 1.823-4.68-.625-6.47-3.635-2.66-.471-2.97 6.313-.63 3.705,1.28 8.266,3.44 10.126,4.82l3.37,2.53-.59,13.09c-.32,7.2-.88,14.11-1.25,15.35-.67,2.24-.65,2.25 11.75,2.25h12.41l-.04-14.75c-.03-10.57 .46-17.31 1.79-23.75 2.14-10.47 5.92-18.01 8.5-16.97 .91,.36 2.21,.87 2.9,1.15 .73,.3 1.27-.25 1.28-1.34 .02-1.43 .21-1.55 .88-.5 .73,1.15 .93,1.15 1.4,0 .44-1.05 .96-.89 2.25,.66 1.18,1.4 1.83,1.63 2.16,.75 .26-.7 .88-1.02 1.41-.69 .52,.32 1.57,.08 2.31-.53 1.01-.84 1.71-.78 2.72,.18 1.97,1.89 6.84,3.89 6.84,2.82 0-.51-.42-1.2-.97-1.53-.62-.39-.53-1.1 .25-1.94 .77-.83 1.47-.98 1.85-.38 .34,.55 1.75,1.08 3.12,1.16 1.78,.11 2.34,.59 1.94,1.66-.47,1.25-.31,1.27 1.03,.18 1.08-.87 1.82-.95 2.25-.25 .36,.58 1.11,1.07 1.66,1.07s.69-.52 .31-1.13c-.46-.74 .01-.86 1.44-.41 1.27,.41 2.12,.24 2.12-.4 0-.72 .66-.67 1.97,.15 1.58,.99 2.23,.97 3.25-.06 1.04-1.05 .96-1.56-.53-2.65-1.73-1.28-1.71-1.38 .5-1.69 1.28-.18 2.36-.99 2.44-1.81 .29-3.22 .44-3.46 1.25-2.19 .45,.72 2.93,1.45 5.5,1.62 3.87,.27 4.63,.04 4.4-1.31-.18-1.1 .32-1.53 1.57-1.31 1.11,.19 1.61-.11 1.21-.75-.39-.63 .21-1.06 1.5-1.06 1.78,0 1.96-.29 1-1.44-.97-1.18-.78-1.31 1.13-.81 2.07,.53 2.18,.41 .94-1.1-.76-.93-2.11-1.58-3-1.44-.89,.15-1.52-.3-1.38-1 .14-.69-.87-1.77-2.25-2.4s-2.5-1.5-2.5-1.94-.66-.57-1.5-.25c-.83,.32-3.65-.32-6.25-1.44-5.28-2.26-10.57-2.92-14.03-1.78-1.43,.47-2.89,.29-3.84-.5-1.14-.94-1.69-.98-2.22-.12-1.01,1.63-7.33,2-7.88,.47-.24-.69 .4-1.55 1.41-1.91s3.39-1.33 5.31-2.16c1.93-.83 3.95-1.38 4.5-1.22 .55,.17 2.8,.46 5,.63s4,.36 4,.44c0,.19 3.64,.96 6.25,1.34 2.53,.37 2.85-.36 1-2.31-1.03-1.09-.86-1.11 .94-.19 3.28,1.69 5.66,1.35 7.72-1.06 1.73-2.02 1.76-2.23 .19-3.38-1.27-.93-1.39-1.36-.41-1.72 .8-.28 .25-.95-1.44-1.75-2.82-1.32-3.5-2.57-1.75-3.15 .55-.19-.14-1.64-1.53-3.25-2.3-2.68-3.11-2.95-9-3-3.56-.04-6.47,.26-6.47,.65 0,.4-1.35,.46-3,.13-2.16-.43-3.01-.21-3.03,.78-.02,.95-.46,.78-1.44-.5-.77-1.02-2.83-1.96-4.59-2.09-1.76-.14-3.62-1.01-4.13-1.91-1.15-2.06-2.94-2.17-2.15-.12 .49,1.28 .11,1.25-2.41-.19l-3-1.72 5.13-1.78c2.82-.98 12.1-5.38 20.62-9.78 8.53-4.41 16.53-8.03 17.75-8.03 1.23-.01 3.99-.73 6.16-1.6 3.09-1.23 4.41-1.3 6.09-.4 1.58,.84 2.48,.82 3.47,0 .93-.78 1.55-.79 2-.07 .92,1.49 5.16,1.32 6.75-.28 .74-.74 2.12-1.24 3.09-1.09 1.34,.19 1.62-.22 1.16-1.66-.46-1.45-.23-1.74 .97-1.28 1.15,.44 1.42,.14 .97-1.03-.41-1.08-.06-1.59 1.03-1.59 1.48,0 1.48-.24 .09-2.35-.84-1.28-1.24-2.63-.87-3s.19-.65-.44-.65c-.62,0-.88-.68-.56-1.5 .4-1.05-.09-1.5-1.6-1.5-1.18,0-3.29-1.14-4.68-2.54-1.78-1.78-3.17-2.36-4.6-1.9-1.27,.4-1.8,.27-1.4-.38 .75-1.22-1.97-4.18-3.85-4.18-.72,0-1.59-1.13-1.93-2.5-.4-1.59-1.35-2.5-2.57-2.5-1.05,0-2.14-.4-2.43-.88-.3-.48-1.74-.87-3.19-.87s-2.96-.55-3.38-1.22c-.59-.96-1.25-.99-2.97-.07-1.82,.98-2.57,.86-4.28-.65-1.49-1.33-2.18-1.47-2.5-.56-.24,.68-.94,1.25-1.56,1.25-.82,0-.82-.31 0-1.13 .62-.62 .94-1.66 .69-2.31-.54-1.41 10.85-12.59 12.78-12.53 .73,.02 .19,.67-1.19,1.43l-2.5,1.38 2.63,1c1.55,.59 4.09,.67 6.25,.19 2.06-.47 3.87-.45 4.18,.06 .31,.49 .02,.91-.65,.91-.68,0-.98,.26-.66,.59 .33,.32 1.55,.28 2.72-.09 1.81-.58 1.95-.9 .84-2.25-1.11-1.37-.93-1.38 1.29,.06 2.52,1.64 2.6,1.63 3.78-.94 1.01-2.22 .91-2.97-.6-4.69-1.67-1.91-1.67-2-.03-1.4 .96,.35 1.75,.22 1.75-.28 0-1.49-3.1-2.79-5.28-2.22-1.68,.44-1.92,.16-1.44-1.69 .4-1.53 .06-2.42-1.09-2.84-.92-.34-2.03-1.21-2.47-1.94s-1.45-1.31-2.22-1.31c-.76,0-1.97-.82-2.69-1.82-2.04-2.83-3.74-3.46-5.59-2.09-.94,.69 .1-.53 2.31-2.69s4.69-5 5.53-6.31c1.33-2.06 1.85-2.22 3.72-1.22 1.67,.89 2.64,.87 4.13-.06 1.54-.96 2.28-.92 3.53,.12 .87,.72 1.56,1.93 1.56,2.69 0,1.72 2.19,1.79 3.88,.13 1.02-1.01 1.19-.98 .93,.12-.17,.76 .25,1.56 .94,1.81 .81,.3 1.05-.1 .66-1.12-.34-.88-.13-2.19 .47-2.91 .71-.85 .78-2.39 .22-4.37-.71-2.47-.59-3.01 .65-2.91 2.67,.21 2.51-2.26-.19-2.94-1.49-.37-2.56-1.36-2.56-2.34 0-.93-.53-2.25-1.19-2.91-.93-.93-.71-1.18 1-1.18 1.21,0 2.19-.45 2.19-1 0-.555-.67-1.005-1.5-1.005-.82,0-1.5-.675-1.5-1.5s-.37-1.5-.84-1.5c-.48,0-3.15-2.104-5.94-4.687-4.34-4.02-5.72-4.75-9.62-4.938-2.51-.121-4.84,.206-5.16,.719-.97,1.571-2.26,.013-1.72-2.063 .48-1.822 .67-1.839 2.91-.375 2.42,1.589 3.21,.735 1.37-1.468-.72-.873-.65-.915 .22-.188 1.55,1.294 3.08,1.294 2.28,0-.34-.55-.11-1 .5-1 .62,0 .84-.456 .5-1-.35-.567 .08-.716 .97-.375 2.19,.839 1.99-2.275-.22-3.562-1.08-.629-1.24-1.013-.44-1.032 .72-.016 1.03-.479 .69-1.031-.41-.667-1.27-.659-2.56,.031-1.39,.746-1.94,.727-1.94-.093 0-.628-.68-.888-1.53-.563-.9,.347-1.47,.068-1.37-.656 .42-3.281-.11-3.921-2.66-3.281-1.68,.42-2.39,.268-1.97-.407 .36-.587-.21-1.031-1.34-1.031-1.1,0-2.28-.472-2.63-1.031-.34-.559-1.02-.762-1.5-.469-.47,.293-1.15,.068-1.5-.5s-1.05-.785-1.56-.469c-.51,.317-.94,.21-.94-.25 0-.459-1.98-.827-4.4-.812-2.43,.015-4.34,.481-4.25,1.031s-.64,.849-1.6,.688c-.96-.162-1.75,.176-1.75,.75s-.67,1.062-1.5,1.062c-2.2,0-1.83,1.672 .5,2.281 1.1,.288 1.98,1.136 1.94,1.875-.06,1.011-.21,1.034-.59,.094-.28-.687-1.55-1.25-2.82-1.25-2.58,0-7.78,2.404-6.97,3.219 .29,.29-.58,.531-1.93,.531-1.53,0-2.29-.46-2-1.219 .3-.794-.65-1.253-2.72-1.312-1.75-.05-3.67-.602-4.28-1.219-.82-.828-.63-.944 .78-.406 1.33,.509 1.72,.379 1.22-.438-.4-.643-1.51-1.179-2.44-1.187-1.44-.013-1.47-.145-.22-.938 1.21-.762 1.02-1.13-1-1.937-1.36-.543-1.86-.996-1.12-1.031 2.26-.108 .67-2.413-1.79-2.594-1.27-.094-2.73-.96-3.28-1.938-.81-1.447-1.18-1.521-1.9-.406-.69,1.059-1.03,.865-1.5-.875-.34-1.237-1.05-2.25-1.6-2.25-.54,0-.7,.698-.37,1.563 .43,1.124 .09,1.46-1.16,1.187-.96-.21-1.63-.965-1.47-1.687 .2-.896-.28-1.084-1.5-.594-.98,.395-2.36,.953-3.09,1.25-.76,.309-1.24-.051-1.13-.844 .42-2.997-.11-4.69-1.65-5.281-1.19-.456-1.46-.201-1,1 .65,1.685-.93,1.668-7.41-.094-1.93-.526-2.16-.423-1,.406 1.25,.892 1.13,1.05-.72,1.063-1.66,.011-2.04-.383-1.56-1.625 .51-1.339 .18-1.55-1.69-1.063-1.73,.454-2.01,.328-1.15-.531 2-2.007 1.26-2.7-3.5-2.656zm-16.94,8.906c-.858,0-1.278,.45-.938,1s1.045,1 1.563,1c.517,0 .937-.45 .937-1s-.705-1-1.562-1zm45.56,4c.55,0 1,.45 1,1s-.45,1-1,1-1-.45-1-1 .45-1 1-1zm4.81,1.469c.1-.04 .26-.02 .47,.062 .7,.27 1.82,1.38 2.5,2.469 1.81,2.894-.24,2.449-2.15-.469-.82-1.252-1.1-1.943-.82-2.062zm-52.87,1.094c.298-.03 .821,.045 1.562,.187 1.38,.264 2.5,.598 2.5,.75 0,1.069-3.063,1.116-3.937,.063-.533-.642-.621-.951-.125-1zm51.37,.437c.37,.056 .81,.367 1.16,.938 .32,.512 .16,1.159-.34,1.468-.5,.31-1.16-.084-1.47-.906-.39-1.012 .04-1.593 .65-1.5zm-58.214,2.125c.348-.014 .733,.043 1.094,.188 .798,.319 .571,.545-.594,.593-1.054,.044-1.645-.199-1.312-.531 .166-.166 .465-.235 .812-.25zm-7.094,5.875c-.55,0-1,.45-1,1s.45,1 1,1 1-.45 1-1-.45-1-1-1zm75.848,1c.45,0 .84,.675 .84,1.5 0,1.7-.07,1.74-1,.813-.93-.932-.84-2.313 .16-2.313zm-12.32,5.063c.6-.123 1.73,.428 3.44,1.625 1.9,1.327 2.28,1.364 1.84,.218-.42-1.115 .39-1.464 3.57-1.531 2.27-.048 3.56,.102 2.87,.344s-1.25,.978-1.25,1.625-.79,1.666-1.78,2.281c-1.41,.882-2.3,.731-4.12-.75-1.28-1.033-2.93-1.875-3.69-1.875-.77,0-1.41-.45-1.41-1 0-.541 .17-.864 .53-.937zm-59.059,.968c.276,0 .635,.328 1.031,.969 .34,.55 .145,1-.437,1-.583,0-1.063-.45-1.063-1 0-.64 .193-.969 .469-.969zm-41.531,.969c-.583,0-.778,.45-.438,1 .792,1.282 1.5,1.282 1.5,0 0-.55-.48-1-1.062-1zm57.125,2.031c.525,0 .937,.322 .937,.969 0,.55-.705,1-1.562,1-.858,0-1.278-.45-.938-1 .4-.647 1.038-.969 1.563-.969zm52.215,1c.19,.008 .52,.412 1.13,1.219 .73,.963 2.26,1.75 3.4,1.75 1.15,0 2.35,.45 2.69,1s1.08,1 1.63,1 .71-.45 .37-1c-.77-1.248-.29-1.258 2.94-.031 1.7,.648 2.56,.64 2.56-.031s.65-.658 1.94,.031c1.31,.703 2.14,.69 2.56,0 .35-.561 1.05-.754 1.56-.438 .52,.317 .94,.128 .94-.437s.68-.785 1.5-.469c.83,.317 1.5,1.008 1.5,1.531 0,.524-.4,.716-.9,.407-1.74-1.071-4.25,.646-3.75,2.562 .48,1.862-.4,2.483-1.69,1.188-1.98-1.976-11.51,.48-10.19,2.625 .29,.475-.4,.64-1.53,.343-1.51-.396-2.18,.027-2.59,1.594-.31,1.173-.99,2.13-1.5,2.13-.52,0-.65,.47-.29,1.06 .37,.59 1.38,.78 2.29,.44 1.05-.41 1.29-.3 .65,.31-2.06,1.95-5.47,2.37-6.09,.75-.33-.87-1.43-1.56-2.44-1.56s-2.13-.45-2.47-1c-.34-.555-1.61-1.066-2.81-1.13-1.69-.089-1.79-.209-.44-.562 .96-.252 1.75-.896 1.75-1.438s.43-.754 .94-.437c.51,.316 1.2,.16 1.53-.375s1.35-.691 2.25-.344c1.25,.479 1.47,.219 .97-1.094-.36-.95-.25-1.467 .25-1.156 1.33,.82 6.17-1.634 5.75-2.906-.2-.593-.75-1.086-1.25-1.094-1.78-.03-3.44-1.61-3.41-3.281 .02-.78 .07-1.165 .25-1.157zm31.72,.969c.55,0 1,.698 1,1.563 0,2.485-2.48,4.522-3.84,3.156-1.58-1.574-1.44-2.719 .34-2.719 .83,0 1.5-.45 1.5-1s.45-1 1-1zm9.22,.031c.14,.011 .35,.303 .69,.844 .51,.803 1.42,1.05 2.15,.594 .85-.525 1.01-.383 .5,.437-.41,.673-1.38,.983-2.15,.688s-1.41-.191-1.41,.25-.63,.812-1.4,.812c-.78,0-1.16-.582-.88-1.312s.91-1.086 1.41-.781c.49,.304 .9-.03 .9-.75 .01-.514 .06-.792 .19-.782zm-4.75,.969c.9,0 1.26,.586 .91,1.5-.75,1.941-2.38,1.941-2.38,0 0-.825 .66-1.5 1.47-1.5zm-53.19,7.125c.16-.032 .62,.384 1.5,1.188 1.03,.933 2.14,1.456 2.44,1.156s.81,.106 1.13,.937c.32,.832 .22,1.757-.22,2.032-1.11,.687-3.71-1.518-4.53-3.875-.33-.921-.47-1.405-.32-1.438zm-110.34,.875c-.583,0-.778,.45-.438,1 .792,1.282 1.5,1.282 1.5,0 0-.55-.48-1-1.062-1zm105.81,1.344c.17,.002 .37,.01 .56,.031 2.72,.289 4.69,1.381 4.69,2.594 0,.478-1.58,.817-3.5,.719-2.53-.13-3.49-.655-3.5-1.875 0-1.014 .56-1.48 1.75-1.469zm-6.09,2.094c.33-.013 .59,.134 .81,.5 .36,.58-.16,1.337-1.16,1.657-3.67,1.19-3.96,1.18-3.96-.16 0-.746 .39-1.108 .87-.81 .48,.3 1.5,.03 2.25-.594 .47-.392 .86-.58 1.19-.593zm-22.03,.718c.28-.075 .3,.149 .03,.594-.833,1.345 .23,4.255 1.56,4.255 .55,0 .71-.77 .34-1.72-.48-1.26 .09-1.06 2.13,.75 4.65,4.11 5.8,6.97 2.81,6.97-.82,0-1.5,.63-1.5,1.4 0,.92-.7,1.22-2,.88-1.35-.36-2-.03-2,1s-.63,1.35-1.998,1c-1.549-.41-1.884-.16-1.406,1.09 .342,.89 1.604,1.66 2.784,1.72 2.07,.1 2.07,.12 .12,.75-1.11,.36-1.95,1.22-1.873,1.91 .078,.68 .182,1.7 .25,2.25 .069,.55 .603,1 1.183,1 .59,0 .78-.45 .44-1-.94-1.52 1.87-1.2 4.06,.46 2.57,1.94 4.02,1.92 2.41-.03-1.04-1.25-1.03-1.76 .03-2.75 .84-.77 1.07-.79 .66-.06-.35,.63 .05,1.7 .87,2.38 1.19,.98 1.78,.98 2.97,0 1.31-1.09 1.5-.51 1.5,4.37 0,3.09-.1,5.63-.25,5.63-.14,0-1.48-1.13-2.97-2.5-1.48-1.38-3.37-2.5-4.22-2.5-.84,0-1.56-.45-1.56-1s-.7-1-1.56-1-1.28,.45-.94,1-.08,1-.94,1c-.85,0-1.558-.45-1.558-1s-.831-1-1.843-1c-1.175,0-2.796-1.78-4.5-4.91-2.215-4.07-2.508-5.39-1.657-7.63 .855-2.24 1.45-2.59 3.563-2.06 2.061,.52 2.495,.32 2.25-1.12-.185-1.1 .242-1.69 1.094-1.5 1.071,.22 1.261-.63 .843-3.75-.316-2.37-.118-4.309 .498-4.691 .15-.091 .28-.163 .38-.188zm13.56,1.939c.17-.01 .3,.02 .37,.09 .21,.21-.21,2.3-.9,4.66l-1.25,4.28-1.22-2.59c-.66-1.44-1.19-3.06-1.19-3.57 0-.86 3.03-2.81 4.19-2.87zm58.19,4.28c.36,.01 .62,.42 .62,1.06 0,1.76-.58,2.01-1.44,.63-.31-.51-.12-1.22 .44-1.56 .14-.09 .26-.13 .38-.13zm13.18,0c.34-.1 .61,.07 .88,.5 .41,.66 .2,1.86-.47,2.66-2.53,3.04-4,1.24-1.62-2 .48-.67 .88-1.06 1.21-1.16zm-18.96,1.63c.56-.06 1.34,.7 1.68,2 .65,2.48-1.48,2.67-3.4,.31-.94-1.15-.98-1.45-.13-.94 .69,.41 1.25,.27 1.25-.31 0-.7 .26-1.03 .6-1.06zm9.93,.43c.31,0 .92,.11 1.85,.28 2.63,.51 2.76,.78 2.15,4.16-.35,1.99-1.08,5.31-1.62,7.38-.54,2.06-1.13,3.75-1.31,3.75-.35,0-1.6-8.36-1.6-10.66 0-.75 .68-1.34 1.5-1.34 1.99,0 1.91-1.01-.22-2.57-.94-.69-1.25-.99-.75-1zm-92.153,.13c.523-.07 1.098,.59 1.657,2.03 .618,1.6 1.956,4.59 2.968,6.66 2.204,4.48 1.635,4.62-3,.78-2.753-2.29-3.42-3.5-3.156-5.72 .285-2.4 .86-3.67 1.531-3.75zm5.219,.78c.14,.03 .33,.14 .531,.34 .791,.79 .77,1.65 0,2.97-.94,1.62-1.067,1.46-1.093-1.12-.017-1.62 .142-2.29 .562-2.19zm82.314,.59c.21-.02 .46,.06 .72,.32 .33,.33 .39,1.18 .15,1.87-.34,1.02-.55,1.02-1.18,0-.63-1.01-.32-2.12 .31-2.19zm-93.626,.07c.833,0 1.777,.67 2.093,1.5 .744,1.93-.767,1.93-2.375,0-1.013-1.23-.952-1.5 .282-1.5zm-4.594,1c.655-.01 1.472,.45 1.812,1 .768,1.24 .421,1.24-1.5,0-.901-.59-1.028-1-.312-1zm-18.219,.03c.276,0 .635,.32 1.031,.97 .34,.55 .145,1-.437,1-.583,0-1.063-.45-1.063-1 0-.65 .193-.97 .469-.97zm130.72,1.31c.35-.04 .51,.31 .66,1.03 .38,1.91 2.15,2.2 2.15,.34 0-.7 .85-1.28 1.88-1.28 1.62,0 1.74,.41 .93,3.32-.98,3.55-4.61,10.25-5.56,10.25-.31,0-1.49-.79-2.59-1.75-1.9-1.67-1.95-1.67-1.35,0 .36,.96 .16,1.75-.43,1.75-1.99,0 .07-10.32 2.47-12.38 .96-.83 1.49-1.25 1.84-1.28zm13.72,.94c1.14-.1 1.03,.63 .56,3.43-.41,2.47-1.71,4.74-3.75,6.54-5.28,4.64-6.64,3.14-3.56-3.91 2.51-5.76 1.77-4.94 5.15-5.75 .7-.17 1.22-.28 1.6-.31zm-31.47,.03c.2,0 .59,.12 1.19,.34 2.6,.98 4.3,3.4 4.34,6.13 .02,1.25 .69,3.81 1.47,5.68 1.3,3.11 1.28,3.36-.25,2.82-.92-.33-2.14-.97-2.72-1.41-1.21-.92-5.47-.02-5.47,1.16 0,.43-.97,.52-2.15,.22-1.32-.35-2.58,.01-3.25,.93-.81,1.1-1.75,1.29-3.44,.66-1.28-.48-2.75-.59-3.25-.28s-1.9-.15-3.13-1c-2.49-1.75-5.78-2.09-5.78-.6 0,.63-.88,.65-2.5,.04-1.38-.53-3.9-.79-5.59-.6-1.89,.22-2.7-.02-2.13-.59 1.18-1.18 4.11-1.38 6.88-.47 1.33,.44 2.65,.19 3.5-.66 .75-.75 1.91-1.16 2.59-.93 .68,.22 1.25-.08 1.25-.66s.68-.79 1.5-.47c.83,.32 1.5,.05 1.5-.59s.44-.9 .97-.57 1.28-.54 1.63-1.93c.35-1.4 1.07-2.53 1.59-2.53s.62,.49 .25,1.09c-.42,.68 .02,.96 1.19,.72 1.02-.21 2.37,.25 2.97,1.03 .91,1.19 1.45,1.19 3.5,.06 1.33-.74 2.86-1.35 3.4-1.37 1.52-.06 1.81-3.45 .44-5.1-.64-.77-.83-1.12-.5-1.12zm45.19,5.06c-.36,.02-.63,.42-.63,1.06 0,.86 .45,1.57 1,1.57 1.3,0 1.3-1.71 0-2.5-.14-.09-.25-.14-.37-.13zm-46.16,1.66c-.27,0-.47,.32-.47,.97 0,.55 .48,1 1.06,1 .59,0 .78-.45 .44-1-.39-.65-.75-.97-1.03-.97zm-35.59,2.97c1.44,0 1.74,.55 1.37,2.5-.69,3.63-3.25,3.08-3.25-.69 0-1.12 .74-1.81 1.88-1.81zm-4.16,1.28c.18,.03 .29,.18 .28,.4-.01,.45-.46,1.49-1,2.32-.83,1.29-.95,1.26-.97-.19 0-.93 .42-1.97 .97-2.31 .28-.17 .54-.26 .72-.22zm-7.41,.75c.4,.03 .84,.34 1.22,.97 .35,.55 1.02,.75 1.53,.43 .52-.31 .94,.34 .94,1.41s-.69,2.2-1.56,2.53c-1.9,.73-1.68,.75-3.16-.19-.68-.43-.95-1.72-.62-2.97 .38-1.47 .99-2.23 1.65-2.18zm-10.28,6.97c.09-.04 .55,.29 1.47,.96 1.1,.81 2.21,1.6 2.44,1.75 .23,.16-.08,.29-.66,.29-.57,0-1.65-.79-2.4-1.75-.64-.81-.93-1.22-.85-1.25zm-74.496,4c.807,0 1.468,.67 1.468,1.5 0,1.94-1.598,1.94-2.343,0-.351-.92-.02-1.5 .875-1.5zm66.216,0c.55,0 1.51,.57 2.1,1.28 .79,.96 .57,1.59-.88,2.5-1.17,.73-1.97,.82-1.97,.22 0-.56 .51-1 1.13-1 .77,0 .73-.47-.13-1.5-.69-.84-.81-1.5-.25-1.5zm-19.591,4.09c.13-.1 .533,.25 1.312,1 1.073,1.03 1.582,2.79 1.375,4.84l-.344,3.22-3-3.19c-2.831-3.01-2.872-3.17-.656-2.5 2.109,.65 2.29,.49 1.656-1.62-.327-1.09-.474-1.65-.343-1.75zm11.781,.28c.199-.02 .489,.01 .844,.06 .955,.14 1.884,1 2.062,1.91 .444,2.27-1.526,2.09-2.781-.25-.626-1.17-.721-1.65-.125-1.72zm-24.656,.72c.084-.09 .35,.13 .843,.62 .684,.68 .996,1.51 .688,1.82-.308,.3-.875-.27-1.25-1.25-.271-.72-.366-1.11-.281-1.19zm17.875,.28c.306-.1 .706,.08 1.25,.53 .6,.5 1.543,.93 2.093,.94s1.621,.96 2.375,2.09c1.204,1.82 1.163,2.07-.312,2.07-.925,0-1.435,.36-1.156,.81 .278,.45 .701,2.02 .968,3.5 .564,3.1-.069,3.3-2.968,.87-1.241-1.03-2.294-3.43-2.625-5.9-.412-3.08-.299-4.68 .375-4.91zm-12.532,1.66c.621-.02 1.691,.64 2.375,1.47 1.581,1.9 .932,1.91-1.562,.03-1.068-.81-1.433-1.49-.813-1.5zm-9.281,.15c.206,.03 .485,.24 .844,.6 .651,.65 .94,1.4 .656,1.68-.667,.67-1.844-.51-1.844-1.84 0-.31 .138-.46 .344-.44zm-12.062,.88c.255,.01 .808,.17 1.718,.44 1.375,.39 2.947,1.1 3.469,1.59 1.687,1.58-1.862,.9-3.969-.75-1.214-.96-1.645-1.31-1.218-1.28zm137.82,2.94c.59,0-.32,1.77-2.04,3.93-1.97,2.5-3.86,3.88-5.15,3.78-2.33-.17-2.56-.46-2.47-3.21 .04-1.3 .88-2.11 2.34-2.32 1.25-.17 2.01-.74 1.69-1.25-.75-1.21 .2-1.19 2.59,.1 1.34,.71 1.94,.71 1.94,0 0-.57 .5-1.03 1.1-1.03zm-17.1,2c.55,0 1,.45 1,1s-.45,1-1,1-1-.45-1-1 .45-1 1-1zm29.44,3c-.86,0-1.25,.44-.91,1 .35,.55 1.02,.75 1.53,.43 1.39-.85 1.14-1.43-.62-1.43zm-101,1.25c.25,.01 .56,.36 1.09,1.09 .86,1.18 2.06,1.49 4.22,1.06 1.75-.35 3.3-.16 3.69,.47 .42,.68 .1,.86-.84,.5-3.1-1.19-5.62,4.61-3.13,7.19 1.82,1.87 4.75,2.51 6.16,1.34 1.14-.95 1.26-.33 .78,3.72-.32,2.68-.76,5.44-.97,6.13-.57,1.85-2.23,1.51-3.41-.69-.77-1.44-.64-2.29 .44-3.38 1.27-1.27 1.22-1.65-.34-3.06-1.98-1.79-3.59-2.18-2.63-.62 .34,.55 .36,1 .03,1-1.2,0-6.35-12.26-5.78-13.75 .26-.68 .44-1.02 .69-1zm-5.5,1.75c.582,0 1.062,.45 1.062,1 0,1.28-.708,1.28-1.5,0-.34-.55-.145-1 .438-1zm26.59,8.21c.21,0 .45,.01 .72,.04 3.24,.34 3.82,1.74 1.69,4.03-1.4,1.5-1.59,2.44-.84,3.84 1.14,2.15 2.53,2.42 3.28,.63 .61-1.48 3.86,2.05 3.34,3.62-.45,1.36-4.95,1.58-6.53,.31-.96-.77-1.59-.67-2.25,.38-.59,.94-.9-1.08-.91-5.81-.01-6.05 .04-7.03 1.5-7.04zm40.35,.79c.61,0 1.12,.43 1.12,1 0,.56 1.15,.81 2.56,.56 1.53-.28 2.43-.03 2.22,.59-.53,1.6-7.26,3.62-11.25,3.38-1.94-.12-3.53,.13-3.53,.59s-1.1,.77-2.44,.66c-2.47-.21-2.56-1.78-.09-1.78 .75,0 1.58-.57 1.81-1.25 .34-.98 1.1-1.01 3.57-.1 2.67,.99 3.15,.93 3.15-.37 0-1.27 .28-1.32 1.53-.28 1.98,1.64 3.15,.51 1.5-1.47-.86-1.05-.92-1.53-.15-1.53zm11.93,3c.27-.08 .52-.02 .72,.18 .21,.21-.01,.96-.47,1.69-.53,.86-1.02,.95-1.43,.28-.46-.74 .39-1.94 1.18-2.15zm-32.56,1.25c.15-.12 .39,.2 .81,.93 .62,1.06 1.65,1.48 2.72,1.1 1.29-.47 1.11,.13-.75,2.31-4.26,4.99-4.34,5.02-3.68,2.41 .34-1.38 .66-3.63 .68-5 .02-1.08 .07-1.64 .22-1.75zm-104.25,1.84c.331,0 .677,.18 1,.5 .648,.65 .296,.97-1,.97-1.295,0-1.616-.32-.968-.97 .323-.32 .637-.5 .968-.5zm99.968,.41c.17,.01 .37,.05 .63,.15 1.1,.42 1.32,1.42 .84,3.72-.36,1.72-.93,3.42-1.28,3.78-1.24,1.26-5.16-2.39-5.16-4.81 0-2.08 .28-2.27 1.94-1.38 2.64,1.42 3.38,1.28 2.72-.43-.28-.74-.19-1.08 .31-1.03zm72.13,1.62c.34-.01 .73,.04 1.09,.19 .8,.32 .57,.54-.59,.59-1.06,.04-1.65-.2-1.32-.53 .17-.17 .47-.24 .82-.25zm-106.72,.13c.14-.05 .51,.22 1.22,.81 .93,.77 1.16,1.52 .56,1.72-.58,.19-.77,1.06-.44,1.93 .5,1.3 .13,1.44-2.12,.88-1.63-.41-2.53-.3-2.19,.25 .32,.51-.48,1.2-1.783,1.53-3.078,.77-8.948,6.26-8.125,7.59 .35,.57 .194,1.04-.343,1.04-.538,0-1.693,.26-2.563,.59-2.211,.85-2.042-1.67 .531-7.66 1.168-2.71 2.773-4.93 3.563-4.93 .882,0 1.149-.49 .687-1.25-.469-.79-.105-.71 1,.18 1.146,.93 2.032,1.07 2.469,.41 .95-1.44 5.044-2.34 5.714-1.25 .99,1.59 2.69,.96 2.04-.75-.28-.71-.37-1.05-.22-1.09zm45.28,.06c.93,0 .88,1.34-.6,2.62-1.12,.98-2.06,2.32-2.06,2.94s-.48,1.13-1.09,1.13-.85,.67-.53,1.5c.64,1.66-.9,2.08-1.88,.5-.6-.98 2.89-6.81 4.91-8.19 .51-.35 .94-.5 1.25-.5zm-61.751,3.69c.498,0 .662,.9 .375,2-.671,2.56-1.282,2.56-1.282,0 0-1.1 .408-2 .907-2zm-5.5,1.25c.169-.01 .39,.14 .687,.43 .602,.6 .939,1.85 .75,2.78-.445,2.2-1.844,.8-1.844-1.84 0-.92 .125-1.36 .407-1.37zm-40.532,.75c-.55,0-.715,.45-.375,1s1.075,1 1.625,1 .715-.45 .375-1-1.075-1-1.625-1zm160.4,13.03c.44,.03 .84,.33 1.19,.9 .32,.53-.29,1.43-1.37,2-2.84,1.52-3.31,1.32-2.1-.93 .72-1.35 1.55-2.03 2.28-1.97zm14.1,.15c.07-.02 .16-.02 .25,.07 .33,.33 .35,1.21 .06,1.93-.32,.8-.55,.54-.59-.62-.04-.79 .07-1.3 .28-1.38zm-23.72,1c.14-.08 .25,.2 .28,.85 .04,.84-1.31,2.34-3,3.34-3.06,1.81-3.06,1.81-1.75-.28 .72-1.15 1.82-2.09 2.47-2.09s1.41-.57 1.69-1.25c.12-.32 .22-.52 .31-.57zm-14.91,3.07c.28,0 .6,.11 1,.28 .96,.4 2.83,.67 4.16,.59 2.38-.14 2.39-.12 .5,1.97-1.05,1.16-4.55,3.46-7.78,5.09l-5.85,2.97 3.35-4.09c2.61-3.18 3.87-3.98 5.62-3.56 1.24,.29 2.25,.06 2.25-.5 0-.94-1.4-1.42-3.25-1.13-.41,.07-.75-.39-.75-1 0-.42 .29-.63 .75-.62zm-5.9,3.93c.09,.02 .15,.13 .15,.35 .03,1.61-8.22,9.16-10.75,9.84-1.24,.33-3.15,.88-4.25,1.19s-2,.17-2-.31c0-1.4 2.94-4.89 2.97-3.54 .02,.7 .72,.94 1.63,.6 .99-.38 1.39-1.34 1.06-2.6-.29-1.09 .18-2.67 1.03-3.53 1.4-1.4 1.62-1.39 2.47,.13 1.14,2.04 3.02,2.25 2.25,.25-.41-1.06 .01-1.27 1.62-.85 1.32,.35 2.53,0 3.07-.84 .3-.48 .58-.71 .75-.69zm-155.88,3.78c.223-.11 .869,.25 1.844,1.22 .933,.94 1.187,.91 1.187-.12 0-1.06 .296-1.06 1.5-.06 .825,.68 1.5,1.57 1.5,2 0,1.91-2.786,1.54-4.718-.63-1.208-1.36-1.6-2.26-1.313-2.41zm56.031,.04c1.38,0 1.269,2.32-.187,3.78-.933,.93-.904,1.22 .125,1.22 1.044,0 1.048,.28 .094,1.43-1.261,1.52-.631,3.57 1.093,3.57 .55,0 .715-.45 .375-1s-.145-1 .438-1c.582,0 1.062,.43 1.062,1 0,1.28 5.234,.1 6.25-1.41 .452-.67 .741-.42 .75,.66 .022,2.46 1.666,2.18 2.344-.41 .478-1.83 .815-1.99 2.125-.91 .853,.71 1.531,2.16 1.531,3.19 0,1.76-1.666,2.3-6.656,2.16-.645-.02-1.439,.98-1.75,2.22-.615,2.44-4.306,3.12-6.125,1.12-3.736-4.11-5.6-7.92-5.031-10.19 .339-1.35 1.054-2.43 1.594-2.43 .539,0 .968-.68 .968-1.5 0-.83 .45-1.5 1-1.5zm67.628,3.06c.62-.05 1.69,.61 2.37,1.44 1.69,2.03 5.98,1.89 7.66-.25 .78-.99 .47,.63-.72,3.75-2.48,6.5-2.64,6.7-4.09,5.25-1.41-1.41-5.85,1.22-5.85,3.46 0,1.07-.36,1.23-1.25,.54-1.97-1.56-4.67-1.1-5.31,.9-.32,1.01-1.02,1.85-1.56,1.85-.55,0-.72,.45-.38,1s-.1,1-1,1-1.47-.57-1.28-1.25c1.19-4.23 5.13-16.34 5.44-16.69 .2-.24 1.08,.44 1.94,1.5 1.04,1.3 1.69,1.55 2.03,.75 .27-.66 1.15-.96 1.93-.66 .79,.3 1.44,.1 1.44-.47 0-.56-.56-1.25-1.25-1.53-.78-.32-.83-.54-.12-.59zm-29.35,1.31c.1-.04 .28,.14 .53,.5 .57,.8 1.52,1.05 2.25,.59 .95-.58 1.11-.17 .63,1.63-.35,1.32-.65,4.32-.66,6.66-.01,5.06-1.15,5.3-5,1.09-1.8-1.97-3.43-2.91-4.4-2.53-.9,.34-1.98-.14-2.57-1.13-.68-1.15-1.257-1.33-1.776-.59-1.756,2.51-7.282,.69-7.282-2.41 0-1.26 .323-1.19 1.594,.38 .866,1.07 1.286,1.37 .938,.69-.856-1.69 1.985-1.63 8.066,.21 6.13,1.86 6.4,1.88 6.4-.03 0-.85 .46-1.26 1.03-.9 .68,.41 .85-.38 .44-2.22-.27-1.24-.34-1.87-.19-1.94zm13.69,.94c.31-.04 .73,.08 1.28,.25 1.24,.38 2.42,.84 2.63,1.03 .21,.18-.78,3.39-2.19,7.12l-2.56,6.79-.07-7.82c-.04-5.74-.03-7.26 .91-7.37zm18,.9c-1.06,.05-1.96,.95-1.41,1.85 .32,.51 .96,.94 1.44,.94 1.4,0 2.15-1.81 1.03-2.5-.33-.21-.71-.3-1.06-.29zm-113.5,.82c.276,0 .635,.32 1.031,.97 .34,.55 .145,1-.437,1-.583,0-1.063-.45-1.063-1 0-.65 .193-.97 .469-.97zm33.813,1.06c.088-.08 .37,.15 .875,.66 1.627,1.61 3.162,1.61 2.343,0-.348-.69 .091-.37 .969,.71 .878,1.09 1.35,2.6 1.063,3.35-.288,.75-.532,1.81-.532,2.37 0,.57-.648,.77-1.437,.47-.79-.3-1.577-.17-1.75,.31s-1.547-.01-3.063-1.12c-2.996-2.2-2.799-3.84 .438-3.84 1.537,0 1.875-.44 1.375-1.75-.267-.71-.37-1.09-.281-1.16zm-28.282,4.91c-.55,0-1,.45-1,1s.45,1 1,1 1-.45 1-1-.45-1-1-1zm34.282,.09c.084-.09 .35,.13 .843,.62 .684,.68 .996,1.51 .688,1.82-.308,.3-.875-.27-1.25-1.25-.271-.72-.366-1.11-.281-1.19zm80.656,15.41l.03,2.68c.02,1.48-.57,3.27-1.31,4-.74,.74-1.51,1.92-1.75,2.63s-.76,.96-1.16,.56c-1.41-1.41-.72-4.29 1.72-7.06l2.47-2.81zm3.56,.06c.29-.03 .54,.39 .78,1.34 .3,1.15 .16,2.1-.31,2.1-1.36,0-1.89-1.49-1.03-2.88 .22-.35 .39-.54 .56-.56zm-49.28,.75c.15,0 .65,.28 1.53,.81 1.24,.75 2.25,1.71 2.25,2.13 0,.41 .68,.75 1.5,.75 .83,0 1.44-.34 1.38-.75-.44-2.77 .23-3.53 1.53-1.75 1.57,2.14 1.03,13.53-.69,14.65-.55,.36-.71,1.37-.37,2.25 .33,.88 .15,1.6-.38,1.6-1.42,0-1.18,2.76 .28,3.25 .69,.22 1.29,1.59 1.31,3.06 .07,3.88-1.05,3.27-2.43-1.35-.67-2.21-2.98-7.69-5.16-12.18-2.52-5.22-3.61-8.55-3-9.16s1.52-.47 2.5,.34c1.27,1.06 1.53,1.02 1.53-.15 0-.78-.56-2.03-1.25-2.75-.49-.52-.68-.76-.53-.75zm25.72,.09c.83,0 1.91,.05 3.28,.13 3.32,.19 6.22,.56 6.47,.81s-.23,1.79-1.06,3.41c-1.07,2.05-2.19,2.86-3.78,2.75-1.25-.1-3.32,.87-4.6,2.15s-2.46,2.35-2.62,2.35c-1.6,0-2.15-5.39-1-9.66 .39-1.46 .81-1.93 3.31-1.94zm-37.188,3.6c1.815,0 5.399,4.84 7.344,9.96 1.104,2.9 1.884,5.41 1.714,5.57-.39,.38-7.058-5.58-8.745-7.82-1.149-1.52-1.099-1.96 .406-3.06 1.649-1.2 1.639-1.39 .063-2.97-.926-.92-1.275-1.68-.782-1.68zm77.598,1.34c.25,.04 .14,.24-.35,.53-2.43,1.45-6.64,2.5-5.5,1.38 .55-.55 2.35-1.28 4-1.63 .98-.21 1.59-.32 1.85-.28zm-90.066,1.03c.299,0 .564,.34 .968,1.06 .488,.87 1.293,1.32 1.813,1s1.232,.14 1.562,1 1.052,1.57 1.594,1.57 2.102,.9 3.5,2c3.148,2.47 2.246,2.46-4.406-.1-3.689-1.42-5.051-2.44-4.656-3.47 .305-.79 .077-1.43-.532-1.43-.608,0-1.125,.51-1.125,1.15s-.271,.89-.625,.53c-.353-.35-.068-1.34 .657-2.22 .601-.72 .95-1.09 1.25-1.09zm71.066,.13c.36-.08 1.06,.06 2.12,.46 1.36,.52 2.69,.58 2.97,.13 .28-.46 1.7-.59 3.16-.31 2.28,.43 2.41,.61 .93,1.43-2.63,1.48-6.05,1.59-7.87,.25-1.52-1.11-1.91-1.84-1.31-1.96zm-123.88,1.53c-.276,0-.469,.32-.469,.97 0,.55 .48,1 1.063,1 .582,0 .777-.45 .437-1-.396-.65-.755-.97-1.031-.97zm42.938,.31c.251,.03 .613,.25 1.062,.62 .801,.67 1.902,.93 2.438,.6s1.248-.16 1.593,.4c.346,.56-.192,.98-1.187,.94-2.636-.11-4.313-.94-4.313-2.12 0-.32 .155-.47 .407-.44zm72.841,14.19c.27,.01 .74,.29 1.25,.81 2.14,2.13 1.86,3.31-.75,3.22-1.58-.06-2.34,.56-2.56,2.09-.17,1.2-1.04,2.77-1.94,3.5-1.41,1.15-1.53,1.09-.94-.5 .38-1.01 .69-2.96 .69-4.34 0-1.67 .67-2.69 2-3.03 1.1-.29 2-.95 2-1.47 0-.2 .09-.29 .25-.28zm-14.59,2.18c1.76,.06 4.33,1.85 3.78,3.29-.32,.82-1.48,5.55-2.56,10.5-1.09,4.95-2.38,10.8-2.88,13-.64,2.86-.84-.13-.65-10.54 .14-7.99 .58-15.03 .96-15.65 .27-.44 .76-.62 1.35-.6zm-35.22,21.85c.675-.01 1.864,.12 3.781,.34 .393,.05 1.23,1.04 1.844,2.19s.963,2.19 .781,2.34c-.833,.7-5.479-1.64-6.5-3.28-.73-1.17-1.032-1.58 .094-1.59zm-52.156,1.53c.084-.09 .35,.13 .843,.62 .684,.68 .996,1.51 .688,1.82-.308,.3-.875-.27-1.25-1.25-.271-.72-.366-1.11-.281-1.19zm-15.407,4.91c-1.251,0-1.067,1.37 .344,2.78 1.605,1.6 1.673,1.55 1.063-.78-.288-1.1-.921-2-1.407-2z"/>
</g>
</svg>
