<svg xmlns="http://www.w3.org/2000/svg" viewBox="0 0 448 433" xmlns:xlink="http://www.w3.org/1999/xlink" enable-background="new 0 0 448 433">
<defs>
<radialGradient cx="216.7" cy="393.79" id="XMLID_1_" r="296.7" gradientUnits="userSpaceOnUse">
<stop offset="0" stop-color="#f4d708"/>
<stop offset="1" stop-color="#fcb400"/>
</radialGradient>
</defs>
<path fill="url(#XMLID_1_)" d="m8.551,390.5l184.85-368.8s26.409-31.504 52.815,0c26.41,31.501 180.19,370.65 180.19,370.65s3.105,18.534-27.961,18.534-361.94,0-361.94,0-23.299,0-27.959-20.38z"/>
<path fill="none" stroke="#e2a713" stroke-width="5" d="m8.551,390.5l184.85-368.8s26.409-31.504 52.815,0c26.41,31.501 180.19,370.65 180.19,370.65s3.105,18.534-27.961,18.534-361.94,0-361.94,0-23.299,0-27.959-20.38z"/>
<path d="m212.5,292.63c-13.168-79.969-19.75-123.12-19.75-129.45 0-7.703 2.551-13.926 7.66-18.676 5.105-4.746 10.871-7.121 17.293-7.121 6.949,0 12.82,2.535 17.609,7.598s7.188,11.023 7.188,17.883c0,6.543-6.668,49.801-20,129.77h-10zm27,38.17c0,6.098-2.156,11.301-6.469,15.613-4.313,4.309-9.461,6.465-15.453,6.465-6.098,0-11.301-2.156-15.613-6.465-4.313-4.313-6.465-9.516-6.465-15.613 0-5.992 2.152-11.141 6.465-15.453s9.516-6.469 15.613-6.469c5.992,0 11.141,2.156 15.453,6.469s6.48,9.45 6.48,15.44z"/>
</svg>
