<svg xmlns="http://www.w3.org/2000/svg" viewBox="0 0 500 600" xmlns:xlink="http://www.w3.org/1999/xlink">
<defs>
<linearGradient id="linearGradient11719">
<stop offset="0" stop-opacity="0"/>
<stop offset=".6" stop-opacity="0"/>
<stop offset="1"/>
</linearGradient>
<linearGradient gradientTransform="matrix(.25243 0 0 .25243 270.97 332.58)" id="linearGradient21538" xlink:href="#linearGradient1400" y1="353.45" x1="502.02" y2="323.71" gradientUnits="userSpaceOnUse" x2="504.57"/>
<linearGradient id="linearGradient1400">
<stop offset="0" stop-opacity=".678"/>
<stop offset=".57" stop-opacity=".329"/>
<stop offset="1" stop-opacity="0"/>
</linearGradient>
<linearGradient gradientTransform="matrix(.75249 0 0 1 94.217 .98499)" id="linearGradient21556" y1="411.62" x1="382.18" y2="439.45" gradientUnits="userSpaceOnUse" x2="405.45">
<stop offset="0" stop-color="#fff"/>
<stop offset="1" stop-color="#fff" stop-opacity="0"/>
</linearGradient>
<linearGradient gradientTransform="matrix(.87996 0 0 1 42.735 .98499)" id="linearGradient21554" y1="432.31" x1="409.27" y2="426.77" gradientUnits="userSpaceOnUse" x2="365.31">
<stop offset="0" stop-color="#fff" stop-opacity="0"/>
<stop offset="1" stop-color="#fff"/>
</linearGradient>
<linearGradient id="linearGradient21550" y1="465.2" y2="443.9" x1="423.66" gradientUnits="userSpaceOnUse" x2="405.25">
<stop offset="0" stop-color="#fff"/>
<stop offset="1" stop-color="#fff" stop-opacity="0"/>
</linearGradient>
<radialGradient cx="521.02" cy="324.51" gradientTransform="matrix(0 -.2429 .32913 0 291.81 539.99)" id="radialGradient21540" xlink:href="#linearGradient11719" r="17.922" gradientUnits="userSpaceOnUse"/>
<radialGradient cx="504.93" cy="332.63" gradientTransform="matrix(0 -.56681 .36066 0 278.65 702.26)" id="radialGradient21530" xlink:href="#linearGradient11719" r="17.922" gradientUnits="userSpaceOnUse"/>
<radialGradient cx="508.64" cy="331.67" gradientTransform="matrix(0 -.14304 .23306 0 321.32 487.87)" id="radialGradient21534" xlink:href="#linearGradient1400" r="17.922" gradientUnits="userSpaceOnUse"/>
<radialGradient cx="387.81" cy="434.74" gradientTransform="matrix(1.4518 0 0 3.5761 -163.84 -1116.8)" id="radialGradient21522" xlink:href="#linearGradient11719" r="14.312" gradientUnits="userSpaceOnUse"/>
<radialGradient cx="507.58" cy="332.63" gradientTransform="matrix(.5475 -.1467 .10148 .37873 86.959 363.04)" id="radialGradient21528" xlink:href="#linearGradient11719" r="17.922" gradientUnits="userSpaceOnUse"/>
<radialGradient cx="508.93" cy="327.4" gradientTransform="matrix(.20495 -.42077 .46453 .22627 140.3 554.08)" id="radialGradient21532" xlink:href="#linearGradient11719" r="17.922" gradientUnits="userSpaceOnUse"/>
<radialGradient cx="385.75" cy="434.74" gradientTransform="matrix(0 2.365 -3.6526 0 1987.1 -479.32)" id="radialGradient21524" xlink:href="#linearGradient11719" r="14.312" gradientUnits="userSpaceOnUse"/>
<radialGradient cx="387.81" cy="432.67" gradientTransform="matrix(1.4877 0 0 .43318 -177.77 246.3)" id="radialGradient21546" r="14.312" gradientUnits="userSpaceOnUse">
<stop offset="0" stop-color="#fff" stop-opacity="0"/>
<stop offset=".6" stop-color="#fff" stop-opacity="0"/>
<stop offset="1" stop-color="#fff"/>
</radialGradient>
<radialGradient cx="387.81" cy="425.85" gradientTransform="matrix(1 0 0 .27293 11.366 316.19)" id="radialGradient21544" xlink:href="#linearGradient1400" r="14.312" gradientUnits="userSpaceOnUse"/>
<radialGradient cx="505.31" cy="340.96" gradientTransform="matrix(.44531 -.11932 .10148 .37873 138.83 349.15)" id="radialGradient21526" xlink:href="#linearGradient11719" r="17.922" gradientUnits="userSpaceOnUse"/>
<radialGradient cx="385.75" cy="434.74" gradientTransform="matrix(.00161 2.4928 -4.5719 .00295 2386.1 -553.9)" id="radialGradient21548" xlink:href="#linearGradient11719" r="14.312" gradientUnits="userSpaceOnUse"/>
<radialGradient cx="506.72" cy="326.56" gradientTransform="matrix(0 -.25005 .33882 0 288.53 543.42)" id="radialGradient21536" xlink:href="#linearGradient11719" r="17.922" gradientUnits="userSpaceOnUse"/>
<radialGradient cx="387.19" cy="420.14" gradientTransform="matrix(1.4598 0 0 2.845 -166.65 -772.85)" id="radialGradient21542" xlink:href="#linearGradient11719" r="4.188" gradientUnits="userSpaceOnUse"/>
<radialGradient cx="377.36" cy="434.76" gradientTransform="matrix(4.0003 0 0 3.6526 -1134.7 -1155)" id="radialGradient21552" xlink:href="#linearGradient11719" r="14.312" gradientUnits="userSpaceOnUse"/>
</defs>
<g transform="matrix(12.125 0 0 12.125 -4588 -4972.3)">
<path d="m398.44,412.41c-.69,0-1.34,.09-1.94,.21-.59,.13-1.15,.29-1.66,.54-.74,.37-1.34,.9-1.62,1.59-.04,.09 .01,.04 0,.09-.01,.03-.03,.02-.03,.04-.01,.03-.03,.06-.03,.09-.02,.02-.03,.04-.04,.06-.01,.06-.01,.13-.03,.22-.03,.24-.04,.3-.03,.19v2.06c.03,.41 .18,.8 .41,1.12-.05-.07-.05,.06 .12,.26 0,0 .06,.03 .1,.06 .01,.01 .01,.02 .03,.03-.2,.66-.38,1.34-.38,2.12 0,.57 .15,1.05 .25,1.57-.39,.05-.78,.09-1.15,.15-.16,.03-.23,.05-.16,.03-.59,.11-1.16,.21-1.72,.35-.38,.09-.7,.19-1,.28-.08,.02-.11,.04-.09,.03-.11,.03-.2,.09-.22,.09-.03,.01-.1,.03-.22,.07 .03-.01-.05-.01-.25,.06-.05,.02-.11,.04-.19,.06-.23,.08-.41,.15-.59,.22-.29,.12-.55,.28-.75,.38-.16,.07-.35,.12-.53,.21-.24,.12-.49,.25-.75,.41-.02,.01-.01,.02-.03,.03-.22,.14-.45,.28-.72,.5-.15,.12-.2,.19-.13,.13-.09,.08-.2,.16-.34,.31h-.03c-.1,.1-.07,.13-.1,.19-.07,.07-.16,.12-.28,.28-.08,.12-.12,.2-.12,.22-.06,.08-.1,.16-.16,.28-.02,.04 .02,.02 0,.06-.14,.32-.28,.69-.28,1.09v2.97c0,.62 .27,1.19 .66,1.72v1.94c-.36,.51-.66,1.08-.66,1.69v15.03c0,1 .6,1.87 1.44,2.56s1.98,1.25 3.34,1.72c2.73,.94 6.42,1.53 10.47,1.53 .48,0 .95,.02 1.47,0 3.7-.13 7.01-.78 9.47-1.72 1.23-.47 2.24-.99 3-1.65 .76-.67 1.28-1.5 1.28-2.44v-15.03c0-.66-.31-1.25-.69-1.75v-1.85c.4-.52 .69-1.09 .69-1.75v-2.97c0-.24-.04-.29-.06-.34l-.03-.09v-.1c-.01-.04 .01-.03 0-.09-.11-.43-.32-.77-.54-1.06 .16,.21 .14,.16-.06-.1-.23-.3-.49-.54-.78-.78-.04-.03-.03-.01-.06-.03 .12,.1 .1,.06-.1-.09-.06-.05-.17-.1-.24-.16 0,.01-.05-.05-.07-.06-.03-.02-.06-.04-.09-.07-.03-.02-.01-.05-.06-.09-.18-.11-.22-.12-.13-.06-.13-.08-.3-.14-.44-.22l-.06-.03s-.02-.03-.03-.03c.01,.01-.06-.01-.09-.03s0-.03-.07-.07c-.2-.1-.48-.21-.78-.34-.18-.08-.31-.15-.4-.19 .11,.05 .06,0-.1-.06-.13-.05-.21-.06-.25-.06-.39-.15-.82-.33-1.31-.47-.55-.16-1.14-.28-1.72-.41-.02,0-.01,.01-.03,0-.03-.01-.02-.02-.06-.03 .15,.03 .12,.02-.1-.03-.63-.13-1.22-.22-1.87-.31 .12,.02 .08,0-.13-.03-.44-.07-.91-.14-1.37-.19 .08-.46 .22-.88 .22-1.38 0-.25-.01-.46-.03-.68-.05-.5-.19-.93-.32-1.38 .06-.06 .14-.12 .19-.19 .01-.01 .1-.09 .22-.28 .08-.13 .14-.28 .19-.4 .01-.03-.01-.01 0-.04-.06,.16-.04,.14 .03-.09 .06-.19 .12-.39 .12-.62v-1.91c0-.13-.05-.16-.06-.22v-.09c-.01-.02 .01-.05 0-.03 0-.05-.02-.09-.03-.13 .01,.01 .02-.09-.06-.28-.3-.72-.95-1.23-1.69-1.59-.5-.25-1.04-.41-1.62-.54-.6-.12-1.25-.21-1.94-.21zm.18,.65c2.5,0 4.54,1.01 4.54,2.25v1.91c0,.48-.31,.95-.82,1.31 .26,.67 .41,1.47 .41,2.35 0,.76-.11,1.48-.31,2.09 6.32,.52 11.06,2.51 11.06,4.87v2.94c0,.53-.25,1.06-.69,1.53v2.25c.44,.48 .69,1.01 .69,1.53v14.94c0,2.75-6.42,4.97-14.31,4.97s-14.32-2.22-14.31-4.97v-14.94c0-.52 .21-1.05 .65-1.53v-2.25c-.44-.47-.66-1-.65-1.53v-2.94c0-2.2 4.13-4.09 9.84-4.75-.23-.64-.35-1.4-.34-2.21 0-.92 .15-1.75 .43-2.44-.44-.35-.72-.78-.72-1.22v-1.91c0-1.24 2.04-2.25 4.53-2.25z"/>
<path fill="#87cefa" fill-opacity=".5" d="m398.62,413.07c-2.5,.01-4.54,1.01-4.54,2.25v1.91c0,.44 .28,.87 .72,1.22-.28,.69-.43,1.52-.43,2.44 0,.82 .11,1.58 .34,2.22-5.71,.65-9.84,2.54-9.84,4.75v2.93c0,.53 .21,1.06 .65,1.53v2.25c-.44,.48-.65,1.01-.65,1.54v14.93c0,2.76 6.42,4.97 14.31,4.97s14.31-2.21 14.31-4.97v-14.93c0-.53-.25-1.06-.69-1.54v-2.25c.44-.47 .69-1 .69-1.53v-2.93c0-2.36-4.74-4.36-11.06-4.88 .2-.61 .31-1.32 .31-2.09 0-.88-.15-1.67-.41-2.35 .51-.36 .82-.83 .82-1.31v-1.91c0-1.24-2.04-2.24-4.53-2.25z"/>
<path fill="url(#radialGradient21522)" d="m398.62,413.07c-2.5,.01-4.54,1.01-4.54,2.25v1.91c0,.44 .28,.87 .72,1.22-.28,.69-.43,1.52-.43,2.44 0,.82 .11,1.58 .34,2.22-5.71,.65-9.84,2.54-9.84,4.75v2.93c0,.53 .21,1.06 .65,1.53v2.25c-.44,.48-.65,1.01-.65,1.54v14.93c0,2.76 6.42,4.97 14.31,4.97s14.31-2.21 14.31-4.97v-14.93c0-.53-.25-1.06-.69-1.54v-2.25c.44-.47 .69-1 .69-1.53v-2.93c0-2.36-4.74-4.36-11.06-4.88 .2-.61 .31-1.32 .31-2.09 0-.88-.15-1.67-.41-2.35 .51-.36 .82-.83 .82-1.31v-1.91c0-1.24-2.04-2.24-4.53-2.25z"/>
<path fill="url(#radialGradient21524)" d="m398.62,413.07c-2.5,.01-4.54,1.01-4.54,2.25v1.91c0,.44 .28,.87 .72,1.22-.28,.69-.43,1.52-.43,2.44 0,.82 .11,1.58 .34,2.22-5.71,.65-9.84,2.54-9.84,4.75v2.93c0,.53 .21,1.06 .65,1.53v2.25c-.44,.48-.65,1.01-.65,1.54v14.93c0,2.76 6.42,4.97 14.31,4.97s14.31-2.21 14.31-4.97v-14.93c0-.53-.25-1.06-.69-1.54v-2.25c.44-.47 .69-1 .69-1.53v-2.93c0-2.36-4.74-4.36-11.06-4.88 .2-.61 .31-1.32 .31-2.09 0-.88-.15-1.67-.41-2.35 .51-.36 .82-.83 .82-1.31v-1.91c0-1.24-2.04-2.24-4.53-2.25z"/>
<path fill="url(#radialGradient21526)" d="m398.62,413.06c-2.5,0-4.53,1.02-4.53,2.27v1.91c0,1.24 2.03,2.25 4.53,2.25 2.49,0 4.52-1.01 4.52-2.25v-1.91c0-1.25-2.03-2.27-4.52-2.27zm0,.38c1.63,0 2.96,.65 2.96,1.47s-1.33,1.48-2.96,1.48-2.96-.66-2.96-1.48 1.33-1.47 2.96-1.47z"/>
<path fill="url(#radialGradient21528)" d="m398.62,413.06c-2.5,0-4.53,1.02-4.53,2.27v1.91c0,1.24 2.03,2.25 4.53,2.25 2.49,0 4.52-1.01 4.52-2.25v-1.91c0-1.25-2.03-2.27-4.52-2.27zm0,.38c1.63,0 2.96,.65 2.96,1.47s-1.33,1.48-2.96,1.48-2.96-.66-2.96-1.48 1.33-1.47 2.96-1.47z"/>
<path fill="url(#radialGradient21530)" d="m398.62,413.06c-2.5,0-4.53,1.02-4.53,2.27v1.91c0,1.24 2.03,2.25 4.53,2.25 2.49,0 4.52-1.01 4.52-2.25v-1.91c0-1.25-2.03-2.27-4.52-2.27zm0,.38c1.63,0 2.96,.65 2.96,1.47s-1.33,1.48-2.96,1.48-2.96-.66-2.96-1.48 1.33-1.47 2.96-1.47z"/>
<path fill="url(#radialGradient21532)" d="m398.62,413.06c-2.5,0-4.53,1.02-4.53,2.27v1.91c0,1.24 2.03,2.25 4.53,2.25 2.49,0 4.52-1.01 4.52-2.25v-1.91c0-1.25-2.03-2.27-4.52-2.27zm0,.38c1.63,0 2.96,.65 2.96,1.47s-1.33,1.48-2.96,1.48-2.96-.66-2.96-1.48 1.33-1.47 2.96-1.47z"/>
<path fill="url(#radialGradient21534)" d="m394.14,415.03c-.02,.05-.03,.11-.03,.16-.01,.06-.02,.13-.02,.18v1.68c0,1.14 2.03,2.06 4.53,2.06 2.49,0 4.52-.92 4.52-2.06v-1.68c0-.05-.01-.12-.02-.18-.01-.05-.02-.11-.03-.16-.31,1.25-2.19,2.21-4.47,2.21s-4.17-.96-4.48-2.21z"/>
<path fill="url(#radialGradient21536)" d="m398.62,413.44c1.63,0 2.96,.65 2.96,1.47s-1.33,1.48-2.96,1.48-2.96-.66-2.96-1.48 1.33-1.47 2.96-1.47z"/>
<path fill="url(#linearGradient21538)" d="m398.62,413.44c1.63,0 2.96,.65 2.96,1.47s-1.33,1.48-2.96,1.48-2.96-.66-2.96-1.48 1.33-1.47 2.96-1.47z"/>
<path fill="url(#radialGradient21540)" d="m398.62,413.44c1.63,0 2.96,.65 2.96,1.47s-1.33,1.48-2.96,1.48-2.96-.66-2.96-1.48 1.33-1.47 2.96-1.47z"/>
<path fill="url(#radialGradient21542)" d="m394.8,418.45c-.28,.69-.43,1.52-.43,2.44 0,.82 .11,1.58 .34,2.22l7.72-.13c.2-.61 .31-1.32 .31-2.09 0-.88-.15-1.67-.41-2.35h-.03c-.82,.58-2.16,.94-3.68,.94-1.61,0-3.01-.4-3.82-1.03z"/>
<path fill="url(#radialGradient21544)" d="m384.87,430.51v.28c0,.53 .21,1.06 .65,1.53v2.25c-.03,.04-.06,.09-.09,.13 1.7,2.09 7.21,3.62 13.75,3.62 6.52,0 12.03-1.51 13.75-3.59-.04-.05-.08-.1-.13-.16v-2.25c.44-.47 .69-1 .69-1.53v-.28c0,2.75-6.42,4.97-14.31,4.97s-14.31-2.22-14.31-4.97z"/>
<path fill="url(#radialGradient21546)" d="m384.87,430.51v.28c0,.53 .21,1.06 .65,1.53v2.25c-.03,.04-.06,.09-.09,.13 1.7,2.09 7.21,3.62 13.75,3.62 6.52,0 12.03-1.51 13.75-3.59-.04-.05-.08-.1-.13-.16v-2.25c.44-.47 .69-1 .69-1.53v-.28c0,2.75-6.42,4.97-14.31,4.97s-14.31-2.22-14.31-4.97z"/>
<path fill="url(#radialGradient21548)" d="m398.62,413.07c-2.5,.01-4.54,1.01-4.54,2.25v1.91c0,.44 .28,.87 .72,1.22-.28,.69-.43,1.52-.43,2.44 0,.82 .11,1.58 .34,2.22-5.35,.61-9.31,2.31-9.78,4.34v.03c0,.02-.01,.04 0,.06 .73,2.51 6.85,4.47 14.25,4.47s13.51-1.96 14.25-4.47c0-.02-.01-.04 0-.06-.01-.02 0-.04 0-.06-.55-2.17-5.07-3.95-11-4.44 .2-.61 .31-1.32 .31-2.09 0-.88-.15-1.67-.41-2.35 .51-.36 .82-.83 .82-1.31v-1.91c0-1.24-2.04-2.24-4.53-2.25z"/>
<path fill="url(#linearGradient21550)" d="m398.62,413.72c-1.16,0-2.2,.24-2.9,.59-.71,.35-.97,.73-.97,1v1.91c0,.18 .12,.45 .47,.72 .22,.18 .3,.48 .19,.75-.25,.6-.38,1.34-.38,2.19 0,.75 .09,1.44 .28,2 .07,.18 .06,.39-.05,.56-.1,.17-.28,.29-.48,.31-2.8,.32-5.19,.94-6.84,1.72-.83,.39-1.48,.83-1.88,1.25-.4,.41-.53,.77-.53,1.12v2.94c0,.35 .12,.71 .47,1.1 .12,.11 .18,.27 .19,.43v2.25c-.01,.17-.07,.32-.19,.44-.35,.38-.47,.74-.47,1.09v14.94c0,.44 .24,.92 .88,1.44 .63,.52 1.62,1.04 2.87,1.47 2.5,.86 6.02,1.4 9.91,1.4 3.88,0 7.41-.54 9.9-1.4 1.25-.43 2.24-.95 2.88-1.47 .63-.52 .87-1 .87-1.44v-14.94c0-.32-.14-.69-.5-1.09-.11-.12-.18-.27-.18-.44v-2.25c0-.16 .07-.32 .18-.43 .36-.4 .5-.78 .5-1.1v-2.94c0-.37-.16-.77-.62-1.22-.46-.44-1.19-.9-2.13-1.31-1.87-.81-4.61-1.43-7.71-1.69-.2-.01-.38-.12-.49-.28s-.14-.37-.08-.56c.18-.54 .28-1.2 .28-1.9 0-.81-.11-1.54-.34-2.13-.1-.27-.01-.58 .22-.75 .39-.28 .53-.58 .53-.78v-1.91c0-.27-.26-.65-.97-1-.7-.35-1.74-.59-2.91-.59z" transform="matrix(.96394 0 0 1 14.396 0)"/>
<path fill="url(#radialGradient21552)" d="m398.62,413.07c-2.5,.01-4.54,1.01-4.54,2.25v1.91c0,.44 .28,.87 .72,1.22-.28,.69-.43,1.52-.43,2.44 0,.82 .11,1.58 .34,2.22-5.71,.65-9.84,2.54-9.84,4.75v2.93c0,.53 .21,1.06 .65,1.53v2.25c-.44,.48-.65,1.01-.65,1.54v14.93c0,2.76 6.42,4.97 14.31,4.97s14.31-2.21 14.31-4.97v-14.93c0-.53-.25-1.06-.69-1.54v-2.25c.44-.47 .69-1 .69-1.53v-2.93c0-2.36-4.74-4.36-11.06-4.88 .2-.61 .31-1.32 .31-2.09 0-.88-.15-1.67-.41-2.35 .51-.36 .82-.83 .82-1.31v-1.91c0-1.24-2.04-2.24-4.53-2.25z"/>
<path fill="url(#linearGradient21554)" d="m397.42,419.14c-.27,.67-.45,1.46-.45,2.34 0,.81 .12,1.56 .35,2.19-5.66,.65-9.73,2.49-9.73,4.66v2.9c0,.52 .18,1.04 .62,1.5v2.22c-.44,.47-.62,.99-.62,1.5v15.38c1.15,.53 2.63,1.02 4.34,1.37v-16.75c0-.51 .16-1.03 .49-1.5v-2.22c-.33-.46-.49-.98-.49-1.5v-2.9c0-2.17 3.09-4.01 7.39-4.66-.17-.63-.24-1.38-.24-2.19 0-.75 .09-1.42 .24-2.03-.69-.04-1.33-.15-1.9-.31z"/>
<path fill="url(#linearGradient21556)" d="m396.83,419.14c-.18,.67-.3,1.46-.3,2.34 0,.81 .08,1.56 .23,2.19-3.85,.65-6.63,2.49-6.63,4.66v2.9c0,.52 .13,1.04 .43,1.5v2.22c-.3,.47-.43,.99-.43,1.5v11.38c.79,.53 1.8,1.02 2.97,1.37v-12.75c0-.51 .1-1.03 .32-1.5v-2.22c-.22-.46-.32-.98-.32-1.5v-2.9c0-2.17 2.1-4.01 5.03-4.66-.12-.63-.17-1.38-.17-2.19 0-.75 .07-1.42 .17-2.03-.47-.04-.91-.15-1.3-.31z"/>
</g>
</svg>
