<svg xmlns="http://www.w3.org/2000/svg" viewBox="0 0 744.09 1052.4">
<g transform="matrix(1.0301 0 0 1.0162 -19.832 -219.41)">
<path fill="#d0f4b4" d="m316.54,839.59c-25.32-2.6-50.37-8.25-73.06-20.08-31.97-10.22-62.16-29.23-84.62-54.32-20.26-25.62-32.67-56.3-50.06-83.72-14.564-39.3-24.482-81.58-17.013-123.56 2.5-32.79 7.932-65.97 25.653-94.36 23.72-45.64 58.96-85.66 100.56-115.81 25.2-13.93 52.87-25.01 81.25-30.43 62.11-4.16 127.28-.8 183.86,27.75 43.28,15.47 84.67,38.69 114.36,74.54 33.64,37.07 49.98,86.67 58.59,135.09 2.45,44.43 6.41,91.67-14.25,132.78-14.59,32.74-30.17,66.63-54.89,92.92-31.2,25.9-67.36,48.39-107.1,57.84-53.92,6.7-109.32,8.31-163.28,1.36z"/>
<path fill="#aad38b" d="m316.17,837.77c-34.47-2.72-66.45-16.25-97.58-30.22-35.21-17.04-66.39-44.22-81.3-81.09-12.06-24.82-31.13-46.35-35.63-74.37-16.352-44.87-9.431-93.14-1.32-138.87 8.04-31.34 24.68-60.27 42.54-86.94 30.32-33.87 59.12-74.15 104.77-87.9 30.18-10.63 60.59-23.99 93.4-20.28 28.13,.55 59.8,4.17 79.86,26.07-17.17,2.18-33.7,1.81-52.71-6.03-26.29-15.87-59.08-12.84-84.35,2.71-25.31,10.38 8.17,25.72 20.88,24.82 19.11,28.86 57.17,3.25 80.37,23.31 21.59-1.81 5.46,21.06 27.56,23.15 10.02,13.74 44.64,.45 44.67,14.12 5.75,20.86 38.2,5.8 51.51,1.22-1.92-22.81-26.86-36.98-47.49-49.85-15.41-10.89-2.59-6.09 4.31-6.11 25.2-9.49 19.87,26.72 42.43,25.25 .59-18.31 43.8,7.02 22.45,15.19 18.3,33.43 24.24-22.09 .17-27.02-6.27-8.56-45.32-24.95-28.65-29.96 24.86,10.4 46.19,27.48 68.47,42.49 34.94,30.47 61.29,70.38 73.65,115.24 15.03,40.7 10.7,84.93 9.77,127.41-6.09,37.54-24.35,72.25-43.07,104.98-23.93,41.54-65.81,67.94-109.53,84.82-41.34,14.56-86.4,11.08-129.6,12.01-18.6-.06-37.19-1.26-55.58-4.15zm-46.65-456.42c-22.58-10.52-.81,28.73 0,0zm218,42.36c-20.36-5.85-12.9-17.47 4.95-10.4 14.47-1.6-1.57,18.35-4.95,10.4zm-32.99-78.77c4.64-7.34 4.64,7.34 0,0z"/>
<path fill="#92a99a" d="m318.4,837.31c-28.35-2.97-55.88-10.39-81.45-23.01-39.78-13.9-77.81-40.27-95.05-80.02-13-27.42-34.38-51.2-38.06-82.28-18.287-49.85-10.11-104.82 2.64-154.89 12.64-25.44 23.2-52.9 41.58-74.52 14.31-10.83 30.76-45.69 42.43-23.83 32.19-2.87-12.1-34.87 20.29-40.27 6.47-10.18 46.38-9.57 30.52-13.53 11.05-3.72 42.59-18.95 44.85-10.22-17.26,2.41-42.18,13.92-12.74,19.03 13.05,12.74 35.04,8.8 47.96,25.21 25.45,6.08 51.84-2.24 74.43,13.33-2.53,23.8 39.13,27.99 58.54,32.56 4.35,24.71 38.15,26.57 47.51,44.68 19,.63-12.41-24.36 13.14-24.67 11.64-8.12-11.16-32.77-17.52-44.47-15.01-9.09-59.07-37.3-20.54-27.76 14.38-1.74 17.48,39.78 34.07,18.25 11.03,1 31.99,11.98 15.97,19.27 10.42,13.95 29.24,40.02 45.04,39.76 9.57-21.11-19.5-41.46-30.67-59.02-8.93-13.48-34.35-22.11-38.36-32.92 25.5,6.02 42.25,28.85 65.62,39.6 18.23,18.34 35.43,39.19 50.73,60.65 15.13,26.25 24.27,55.86 31.6,85.12 8.19,51.19 7.12,106.04-15.93,153.54-18.72,48.16-50.33,93.79-98.4,116.2-46.49,29.45-103.34,28.81-156.35,28.97-20.68-.44-41.38-1.72-61.85-4.76zm4.17-286.95c.85-17.97-30.41,12.73-3.14,1.85l3.14-1.85zm105.81-19.57c-11.04-25.51-10.88,5.53 0,0zm-15.42-16.21c4.73-10.43 10.98-40.41 26.56-29.58-17.72,14.23 4.27,24.06 11.75,7.48-9.68-24.58-37.45-46.72-64.05-56-16.19,5.65-26.24,5.4-30.34-12.93-22.45-4.37-41.64-31.74-65.86-8.93-10.43,5.41 21.53,8.41 2.03,20.86-12.1,5.53 15.63,14-7.28,15.78-13.85,6.07 22.54-1.35 26.14,8.95 16.12,22.49 51-7.46 62.69,5.34-12.82,11.18-41.67,22.71-15.02,37.56 18.14,9.96 43.8-8.8 53.42,13.24l-.04-1.77zm-70.99-55.56c-5.08-14.15 12.82-.18 0,0zm-18.44-15.93c-10.68-12.77 16.94,1.18 0,0zm210.25,51.29c-5.72-6.08-.58,6.51 0,0zm-8.39-7.26c-10.85-11.68-13.91-1.52 0,0zm-261.07-36.25c-1.58-7.57-16.44,5.93 0,0zm15.85-7.56c-1.17-6.25-7.04,6.47 0,0zm-99.76-18.92c-4.64-7.34-4.64,7.34 0,0zm75.95-15.61c23.34-11.55 17.58-44.22-11.48-28.45-9.06-.98-10.08-14.65-12.96,3.87 7.28,12.13 10.75,16.46 4.01,30.15 7.03,2.18 14.51-2.29 20.43-5.57zm116.1-9.91c-.91-21.01-18.32,18.97 0,0zm-152.98-13.16c9.95-26.12-20.58,9.77 0,0zm67.22-10.44c-5.69-4.18-8.44,6.59 0,0zm279.1,68.67c-3.61-12.09 11.09,3.96 0,0zm-83.3-26.51c-16.05-10.5 29.35,1.69 4.85,1.91l-4.85-1.91zm-66.2-74.38c-8.37-6.81 14.02,5.1 0,0zm-25.17-1.89c-27.32-4.22-52.33-20.73-80.76-18.1 23.23-3.3 51.06-5.94 73.65,2.47 15.43,.59 34.64,13.3 11.48,16.88l-4.37-1.25z"/>
<path fill="#9ecf66" d="m345.44,838.57c-34.17-3.27-69.2-6.96-100.24-22.76-28.56-8.43-54.79-25.62-76.15-46.24-11.68-24.96-26.48-46.13-41.82-69-19.72-26.44-28.261-59.46-33.067-91.7-2.993-37.65 2.853-75.81 12.147-112.19 14.34-29.15 28.68-58.99 50.88-83.07 9.97-13.7 24.53-32.86 33.3-14.85 29.55-2.49-7-32.35 22.25-39.48 5.57-10.89 44.58-10.7 28.56-14.32 11.05-3.72 42.59-18.95 44.85-10.22-22.75,1.76-38.5,14.84-12.65,28.88 7.28,9.56-40.41,25.43-37.04,9.69-16.38,14.18 16.86,24.76-1.66,39.74 26.9,8.08 37.54-41.38 64.96-13.37 12.53,6.44-28.39,20.76-3.83,20.52 8.74,12.71-14.5,18.38-.88,27.3-13.64-.2-18.14,13.7-1.1,11.4 11.61-15.02 29.04,31.87 49.63,12.37 5.42-8.15 22.4-13.23 16.67,1.67-6.17,8.47-29.85,11.51-9.3,26.91 13.8,20.98 40.38,5.08 53.06,6.74 13.81,29.04 9.61-23.09 28.92-24 18.41-4.54-16.59,26.61 10.63,18.7 11.48-7.03 9.89-32.26-4.34-26.1-13.38-14.85-1.61-33.98 13.15-14.41 15.12,3.05 3.95,32.58 20.75,25.23-5.89-11.65 9.41-20.84-10.76-29.43-9.82-5.54-37.35-27.53-13.13-17.06 19.32,2.45 32.17,26.68 49.27,22.68-11.32,20.16 25.27,2.86 4.77-5.89 6.62-13.15 26.08-13.96 13.52-32.76 17.88,2.31 40.51,24.69 55.22,26.38 9.55-20.24-19.52-40.19-25.78-60.07 25.09,3.09 38.8,27.47 55.35,44.39 26.37,29.23 38.66,67.74 48.16,105.13 7.25,42.46 8.01,87.36-3.97,128.97-19.92,48.7-42.43,101.13-88.56,130.56-25.31,15.77-52.63,31.3-82.36,36.29-42.89,4.75-86.33,5.75-129.41,3.37zm-185.54-124.01c-6.65-12.16-25.3-35.53-33.94-30.6 8.79,13.16 12.44,36.93 33.94,30.6zm162.67-164.2c.85-17.97-30.41,12.73-3.14,1.85l3.14-1.85zm102.91-24.73c-20.95-16.18 5.26,25.34 0,0zm-90.41-4.77c7.31-5.6 21.41-25.85-.18-11.35-8.61,4.52-26.28,22.61-4.36,12.16l4.54-.81zm-17.73-14.32c10.55-19.3-11.88,8.96-11.54-8.83-2.61,7.21 5.18,16.44 11.54,8.83zm216.44-12.16c-5.72-6.08-.58,6.51 0,0zm-218.76-3.18c-11.34-1.88 3.41,3.67 0,0zm183.84-.94c-13.15-16.56-9.5,10.06 0,0zm26.53-3.14c-10.85-11.68-13.91-1.52 0,0zm-261.07-35.3c-1.68-12.36-21.84,9.94 0,0zm15.85-8.51c-1.17-6.25-7.04,6.47 0,0zm-99.76-18.92c-4.64-7.34-4.64,7.34 0,0zm38.79-38.21c9.77-31.12-24.97,8.73 0,0zm149.55,79.77c11.49-13.36 6.31,9.23 0,0zm-26.78-6.93c-5.08-14.15 12.82-.18 0,0zm-18.44-15.93c-10.68-12.77 16.94,1.18 0,0zm242.27,.85c-3.61-12.09 11.09,3.96 0,0zm-198.91-11.98c10.76-15.22 4.78,13.83 0,0zm-28.75-22.03c-.1-13.9 8.68,10.57 0,0zm-27.2-87.69c35.88-6.5 7.69,7.33 0,0z"/>
<path fill="#8eb26d" d="m345.44,838.57c-34.17-3.27-69.2-6.96-100.24-22.76-28.56-8.43-54.79-25.62-76.15-46.24-11.69-24.96-26.47-46.15-41.84-69-29.463-43.03-39.682-97.71-31.239-148.96 5.129-25.65 4.299-54.19 22.309-75.2 3.08-15.73 29.81-15.24 13.97-26.72 5.34-25.5 33.01-40.91 53.26-22.1 22.51,10.12 44.94,3.17 67.11,10.66-.39,21.32 10.73,12.36 24.02,9.68 5.03,9.68 15.76,15.51 22.31,5.62 14.88,21.82 42.07,26.17 58.9,8.88 17.53,19.5-35.35,16.78-6.9,37.42 14.35,21.58 40.45,3.86 54,7.59 5.43,13.8 13.59,11.23 15.27,24.19 7.29,6.43 34.28,3.98 16.05-9.68-11.25-25.34 11.92-4.08 16.4-7.71-13.85-7.87 10.59-45.21-13.45-39.05-13.38-14.85-1.61-33.98 13.15-14.41 15.12,3.05 3.95,32.58 20.75,25.23-5.89-11.65 9.41-20.84-10.76-29.43-9.82-5.54-37.35-27.53-13.13-17.06 19.32,2.45 32.17,26.68 49.27,22.68-8.47,16.68 18.51,5.17 21.99,23.5 15,10.14 33.36,16.58 40.17,34.62 14.06-4.8-3.06-29.4-7.71-38.88-20.18-15.16-32.15-33.44-36.8-55.32 14.25-2.52 39.4,15.18 54.28,28.54 1.74,14.92 37.19,43.67 17.87,13.64-6.49-27.03-24.89-47.19-37.41-71.23-13.01-17.36 27.53,4.39 29.69,13.84 16.89,23.71 36.63,44.69 50.02,69.44 16.25,38.15 26.13,79.17 24.16,120.86 .52,34.65-6.16,69.14-22.84,99.75-17.39,38.84-40.28,77.14-77.46,99.9-30.4,18.32-63.42,36.14-99.86,36.39-36.3,2.6-72.82,3.55-109.16,1.32zm-185.54-124.01c-6.65-12.16-25.3-35.53-33.94-30.6 8.79,13.16 12.44,36.93 33.94,30.6zm235.57-129.89c13.77-3.9-14.05-20.78 7.78-17.4 12.51-6.04 29.26,19 28.93-.98-25.47-3.96-47.85-17.47-72.18-25.86 4.11,8.78 24.25,31.44-1.86,19.98-9.99,6.35-32.96-17.38-18.76,4.16 16.6,7.04 35.6,4.78 45.27,23.47 4.02,2.96 7.83-1.61 10.82-3.37zm-67.1-27.04c3.38-12.22 .43-18.25 14.55-16.94-1.72-38.21-29.81,18.76-40.17-10.33 .02-20.79-20.82-40.39-39.21-25.99-3.69,21.6-36.3-12.54-30.07,18.26 11.3,11.32 32.7,10.77 39.11,27.64 19.51-7.23 39.04,20.53 55.79,7.36zm-44.45-25.39c2.06-6.33 7.55,3.62 0,0zm71.49,18.83c-3.59-11.2-7.94,16.15 0,0zm115.9-11.18c.46-15.33-9.02-29.12-16.22-6.89-1.98,8.35 18.11,23.55 16.22,6.89zm36.95,2.28c-8.49-13.13-7.06,12.12 0,0zm-173.19-21.31c7.31-5.6 21.41-25.85-.18-11.35-8.61,4.52-26.28,22.61-4.36,12.16l4.54-.81zm-110.28-7.94c.15-11.71 15.75-21.63 1.22-27.4 13.48,7.42 42.62,11.87 24.27-11.77-14,7.28-39.64-.01-35.14,23.38-6.83,6.83-.79,24.07 9.65,15.79zm92.55-6.38c10.55-19.3-11.88,8.96-11.54-8.83-2.61,7.21 5.18,16.44 11.54,8.83zm-127.57-17.36c14.28-15.75 .77-47.06-19.46-25.83-12.44-6.53-30.29,.05-23.04,13.3 12.17-10.87 26.89-4.99 35.96-10.61-11.5,10.83-4.97,22.71 5.69,25.48l.85-2.34zm125.25,2.02c-11.34-1.88 3.41,3.67 0,0zm183.84-.94c-13.15-16.56-9.5,10.06 0,0zm-221.29-57.12c-3.93-11.52-20.19-41.12 1.89-41.21 15.46,1.34 33.02,11.41 13.09,20.88-13.57,.89-6.2,29.16-14.98,20.33zm89.32-1.18c10.76-15.22 4.78,13.83 0,0zm-124.01-9.46c.41-15.4 18.74,2.73 0,0zm95.26-12.57c-.1-13.9 8.68,10.57 0,0zm-132.3-16.49c-3.74-13.97-13.22-27.01 8.64-34.98 16.35-18.23 65.8-8.11 57.58,11.69-13.03,10.71-26.73,6.17-39.39,5.34 4.25,12.29-28.84,35.84-26.83,17.95zm14.53-7.97c8.66-25.64-24.57,10.74 0,0zm91.51-63.23c18.65-7.36 16.33,7.52 0,0z"/>
<path fill="#6f8d73" d="m353.83,839.33c-37.71-4.08-76.77-6.87-110.85-25.09-29.75-9.57-59.57-26.01-78.62-51.21-5.63-24.87-25.61-40.48-37.15-62.46-5.74-6.87-25.9-41.46-4.91-20.52 10.1,15.25 21.02,44.35 42.55,32.15 14.58,.88 22.49,39.33 32.9,17.38-19.06,.3-14.22-7.7 .61-7.42 8.44-9.1-27.3-17.15-19.58-12.45 5.72-19.21-14.82-9.34-15.37-25.29-17.78-17.72-52.98-15.52-60.89-44.82-14.45-47.14-5.987-97.64 6.38-144.13 5.86-19.22 27.37-28.81 32.15-43.95-19.66-13.51 25.36-46.31 38.53-22.38 23.22,4.78 42.83,8.04 65.36,8.92 7.66,7.15 7.41,24.58 24.45,13.72 20.43,8.61 40.17,4.93 57.36,23.05 10.27-.98 51.22-16 26.15,1.99-26.9,14.45 14.16,40.67 31.14,34.14 27.82-8.76 33.77,35 63.43,30.01 11.51,9.16 38.19,23.66 29.81-2.22 23.56-5.48-6.18-29.96-18.32-27.97 .82-22.45-13.7-36.5-25.72-52.52 1.99-17.13 35.79,9.54 28.11,22.38 15.77,17.45 6.18-.76 12.04-7.67 7.72-14.28-46.73-31.42-29.92-36.76 18.83,9.07 42.86,19.69 53.91,35.42 18.9,17.54 45.97,26.76 58.3,50.59 9.9,18.97 16.72,13.36 12.29-5.47 1.79-26.48-20.93-40.41-35.7-58.37-1.15-9.41-28.3-46.84-5.54-29.15 28.94,2.64 44.11,32.78 56.53,55.79 9.39-1.89 20.3,20.59 16.98-.04-13.87-21.74-17.64-49.26-36.43-67.96-5.28-9.79-30.45-38.32-3.34-22 26,14.04 35.68,44.81 51.05,68.63 11.63,26.38 33.36,47.76 37.73,77.07 6,39.56 7.03,80.92-1.95,120.06-18.68,50.51-40.53,105.08-87.27,136.09-37.15,26.48-81.85,43.21-127.94,41.7-26.07,.76-52.18,1.49-78.26,.76zm-169.69-150c-5.07-12.81-6.92,9.88 0,0zm424.57-26.52c-.54-30.2-10.79,31.88-.57,3.98l.57-3.98zm-198.93-67.96c-27.52-2.55 1.51-38.16 16.63-16.39 12.3,3.9 31.17-9.13 13.2-15.88-2.89-14.96-43.58,5.02-33.41-15.03-29.97,12.42-31.69-37.75-60.01-22.73-24.98-3.35 17.35-24.73-6.57-18.97-13.71,4.97-21.89,26.05-29.21,29.28-11.84-15.53-5.38-41.95-33.89-39.08-18.35-6.68-19.53,23.49-39.19,8.74-13.51,25.77 23.56,38.96 40.52,51.64 25.06,5.35 50.45,26.24 77.5,22.29 18.12,1.63 35.01,20.44 54.43,16.13zm99.61-48.65c10.43-10.12-29.45-27.62-12.6-5.58 2.62,4 7.43,8.77 12.6,5.58zm-284.6-33.28c-4.4-32.58 46.54-1.36 33.76-34.52-8.11-16.82-48.26-.96-43.41,18.73-6.83,6.83-.79,24.07 9.65,15.79zm2.06-25.38c-1.73-9.38 11.64,9.54 0,0zm90.49,19c11.45-40.39-34.99,8.97 0,0zm180.86-18c-21.37-11.92 13.26,30 0,0zm-308.43,.64c12.31-13.47 5.25-52.85-17.33-28.73-9.56,9.18-26.3-17.42-25.6,7.89-12.04,23.18 27.89-17.71 28.27,10.91 3.69,1.55 11.76,19.03 14.66,9.93zm177.12-57.22c10.76-15.22 4.78,13.83 0,0zm-92.34-13.29c-.69-14.06-9.51-36.46 12.73-24.48 28.09,4.02 8.03,16.17-4.72,23.13-1.19,.38-6.72,5.4-8.01,1.35zm63.59-8.74c-.1-13.9 8.68,10.57 0,0zm-133.49-9.78c12.09-21.74 12.07,2.9 0,0zm18.56-13.43c10.69-12.33-.35,12.26 0,0zm-21.24-11.28c4.45-25.96 57.83-35.55 73.26-9.81-2.6,12.4-31.26,12.15-41.36,4.54-7.95,1.53-27.9,16.03-31.9,5.27z"/>
<path fill="#6e924e" d="m323.06,834.59c-30.89-3-59.73-13.24-88.44-23.69-20.79-10.41-55.73-26.03-57.42-48.25 14.5-5.96-32.8-26.02-19.68-36.03 13.15,12.94 13.77,2.5 6.26-6.28 8.08,6.53 28.8,33.87 37.72,23.78-17.25-3.69 10.01-19.51-15.75-15.84-7.2-8.58 28.09-2.6 8.97-13.86-7.67-10.73-20.64,5.34-16.64-15.36-6.73-8.55-25.23-27.38-40.61-28.34-26.6-7.75-40.6-32.84-41.329-60.03-3.458-38.74 2.602-77.97 12.759-115.22 5.88-19.22 27.32-28.8 32.17-43.95-13.9-11.67 24.83-46.42 34.45-20.97 21.97-2.54 38,12.99 59.34,4.61 24.05,2.2 5.97,19.34 1.36,24.14 14.38,.74 50.66-13.56 31.99,12.92-4.07,18.65 32.17,1.16 13.13,18.77-21.77-7.37-21.67,30.08-44.01,13.8-13.53,25.78 23.52,38.85 40.41,51.64 22.04,3.77 41.98,26.14 66.34,23.91 24.74-9.66 40.89,20.6 65.7,14.71-28.24-5.05 3.23-36.42 17.86-16.81 15.65,4.31 30.73-8.38 11.97-15.47-1.55-18.12-41.21-.14-23.52-23.8 21.17-4.82 48.78,22.27 61.74,10.82-8.04-15.67 19.67-10.75 6.36-27.76-9.88-25.42 25.9-4.08 36.86-12.31 5.25,19.55 20.47,5.97 2.59-4.54 9.19-17.04 34.9,25.64 45.69,29.64-.71-24.75-4.04-52.98-28.96-65.67-12.63-11.17-13.11-35.27 7.41-23.54 24.63,6.72 29.44,40.66 49.18,47.67 10.79-8.07-15.66-38.23-18.48-55.93-5.22-6.14-24.13-47.12-3.64-29.04 14.53,24.75 31.65,48.06 46.46,72.87 13.09,23.08 29.32,45.11 29.27,73.32 6.66,48.42 4.71,99.73-18.72,143.75-19.48,44.45-47.67,87.84-92.58,109.92-26.82,14.7-55.07,28.98-86.57,27.97-43.05,1.05-86.86,4.43-129.64-1.55zm-17.71-56.57c-13.71-9.46-4.28,11.72 0,0zm-85.78-37.72c-5.26-13.87-16.05-19.84-6.5-1.27 .98,1.5 5.96,5.44 6.5,1.27zm-35.43-50.97c-5.07-12.81-6.92,9.88 0,0zm424.57-26.52c-.54-30.2-10.79,31.88-.57,3.98l.57-3.98zm-99.32-116.61c10.43-10.12-29.45-27.62-12.6-5.58 2.62,4 7.43,8.77 12.6,5.58zm-4.51-25.34c-4.64-7.34-4.64,7.35 0,0zm-280.09-7.94c-3.24-31.62 44.84-1.68 35.64-35.06-8.83-26.02-28.1,1.78-43.74,6.08 2.98,9.27-15.26,36.65 8.1,28.98zm2.06-25.38c-1.73-9.38 11.64,9.54 0,0zm-37.08,1.64c12.31-13.47 5.25-52.85-17.33-28.73-9.56,9.18-26.3-17.42-25.6,7.89-12.04,23.18 27.89-17.71 28.27,10.91 3.69,1.55 11.76,19.03 14.66,9.93zm213.48,65.73c2.51-7.01 7.83,6.75 0,0zm-7-9.71c13.96-20.33 4.6,10.43 0,0zm-86.9-11.25c-3.1-15.73 10,11.1 0,0zm68.73,2.05c6.98-7.74 6.98,7.74 0,0zm-76.46-13.04c10.95-12.25 7.37,7.69 0,0zm-20.51-48.55c3.9-6.67 3.61,9.16 0,0zm-6.83-56.76c-3.09-11.68 9.82-28.76 10.49-9.43-1.59,2.42-6.69,18.32-10.49,9.43zm-69.63-17.5c12.09-21.74 12.07,2.9 0,0zm18.56-13.43c10.69-12.33-.35,12.26 0,0zm26.2-32.21c4.02-6.86 5.16,4.19 0,0z"/>
<path fill="#6a9231" d="m324.02,833.85c-24.73-7.57-56.06-1.24-74.66-22.75-20.04-5.68-54.32-10.87-64.55-36.55 27.3-15.02-31.18-21.01-29.37-45.72-2.84-9.27 23.99,15.18 11.08-2.8-7.12-17.2 16.54,21.07 27,19.14 16.66,12.76 4.12-31.3 18.03-8.69 6.87,7.86 35.24,24.18 18.54,2.32-2.99-10.96-10.57-17.99-8.7-25.04-17.36-3.55-19.03-9.79-16.44-24.58-14.02-8.45-8.51-23.7-31.05-23.87-11.88-13.22-17.14-1.39-20.93-.08-8.79-16.67-24.51-19.66-38.04-22.08-2.18-25.3-27.164-32.81-18.032-61.99 .978-28.94 5.952-57.9 13.682-85.65 9.24-19.22 17.72-29.5 31.61-37.1-12.25-18.81 16.37-48.87 35.67-26.87 23.98,.15 47.39,12.18 69.19,11.26 7.27,12.38-25.71,14.01-3.27,16.36 14.18-3.48 41.51-8.97 24.43,13.06-3.85,18.12 31.71,2.18 12.72,18.55-26.21,9.36-15.66-40.76-44.79-21.01-7.82,.92-21.19,2.79-8.04,8.81-17.99-3.01-21.92,46.46-1.89,32.3 7.45-24.27 11.78,.78 7.65,12.43 18.03,24.28 44.64,44.01 75.43,47.36 21.35,7.34 35.73,29.75 59.45,17.77 14.46,2.99 37.34,19.29 48.05,11.27-17.73-3.03-18.04-31.93 4.04-23.2-17.5,18.81 42.66,4.88 27.74-14.27-6.2-18.44-49.17,2.57-32.45-23.26 24.27-6.51 47.98,26.04 66.26,15.09-11.73-25.78 40.56,8.38 30.79-16.75-9.81-7.31-50.99-27.91-17.51-29 12.3,10.53 26.01-7.73 32.78,11.66 18.52,2.19-24.87-28.45 6.23-17.2 21.61,4.5-.13,24.29 20.01,23.67 9.34,19.43 25.65,15.28 13.76-5.71 12.65-30.39-24.96-44.37-34.47-67.92-10.51-22.12 33.75-2.84 35.16,10.51 8.63,12.37 13.26,36.6 22.94,42.39-4.87-26.46 22.53,10.89 12.23-11.39-6.2-25.37-20.17-48.66-32.66-71.65-13.72-10.6-1.85-32.41 6.95-9.21 15.17,27.68 34.23,53.36 46.33,82.63 1.63,13.7-2.41,30.68 14.44,22.88 11.65,21.94 12.08,49.43 12.64,74.17 .45,32.53-1.42,65.74-16.53,95.29-19.56,54.41-56.87,104.61-111.34,127.61-35.77,21.22-78,21.92-118.33,21.71-27.18-.71-55.23,3.48-81.78-3.9zm12.57-33.49c-14.55-6.72-23.07-1.31-2.81,2.18l2.41-.47 .4-1.71zm-73.98-8.85c13.23,3.61-25.5-31.3-11.07-8.36 6.79,9.9-5.77,9.21 11.07,8.36zm42.74-13.49c-13.71-9.46-4.28,11.72 0,0zm-32.27-15.5c-14.62-14.88 28.15-16.3 5.39-28.95-8.71-3.56-51.07-10.71-40.13,1.17 13.65,2.61 32.85,14.4 8.37,17.94-22.46-2.44 32.37,21.12 26.37,9.84zm46.81-1.79c9.35-16.29-22.7-6.16-10.2-22.82-9-29.42-33.33-3.93-16.65,14.91 6.25,6.48 18.13,13.37 26.85,7.91zm19.03-8.14c-11.29-11.76-7.3,11 0,0zm-80.19-31.1c-6.99-11.89-6.41,7.03 0,0zm-30.78-30.39c-12.32-9.69 8.21,12.79 0,0zm383.12-24.82c8.53-33.09-27.34,5.88-4.74,11.44 3.16-3.02 3.81-7.43 4.74-11.44zm-168.66-79.21c-2.51-7.01-7.83,6.75 0,0zm12.9-3.04c8.95-11.47-23.57,4.9 0,0zm45.1-20.6c-14.68-6.11 5.71,8.76 0,0zm-265.92-25.54c-4.48-7.54-2.96,7.02 0,0zm318.87-2.73c-8.53-16.58-5.38,11.06 0,0zm57.12-2.04c-8.64-7.16 2.03,11.26 0,0zm-105.6-12.26c-4.64-7.34-4.64,7.35 0,0zm-315.15-31.39c15.77-17.29 2.5-59.15-20-29.25-6.59,12.14-19.12-25.54-22.82,.77-5.21,15.87-2.58,19.64 10.91,8.92 17.23-11.03 21.16,28.61 31.91,19.56zm-86.37,147.45c-6.146-17.45 12.1-1.52 0,0zm293.82-93.83c22.46-16.65 0,10.12 0,0zm-19.1-7.09c6.98-7.74 6.98,7.74 0,0zm-72.73-15.14c4.64-7.34 4.64,7.35 0,0zm326.33-8.4c2.41-8.99 3.92,7.03 0,0zm-404.83-24.92c-1.73-9.38 11.64,9.54 0,0zm54.26-13.13c3.9-6.67 3.61,9.16 0,0zm-1.96-59.95c-7.84-15.39 10.52-19.66 4.69-4.42 .86-5.46-3.35,7.72-4.69,4.42zm-29.74-59.95c4.02-6.86 5.16,4.19 0,0z"/>
<path fill="#669313" d="m324.02,833.85c-24.73-7.57-56.06-1.24-74.66-22.75-20.04-5.68-54.32-10.87-64.55-36.55 27.3-15.02-31.18-21.01-29.37-45.72-2.84-9.27 23.99,15.18 11.08-2.8-7.12-17.2 16.54,21.07 27,19.14 16.84,12.19 4.16-32.37 19.04-7.63 15.28,9.51 50.52,35.03 60.2,23.39-11.86-15.18 26.69-11.14 7.05-29.73 15.24-11.21 4.66,34.98 29,30.63 18.54,4.82 13.57-17.71-1.44-13.7 8.34-20.77-22.45-44-39.35-40.31 8.5,25.13-23.12,4.47-36.85,11.6-14.49-7.52-41.04-14.02-18.97-31.19 10.96-3.28 45.01,24.57 28.71-3.85-16.19-1.96-24.43-34.44-46.58-20.92-14.41-26.67-51.57,5.15-56.98-25.48-22.24-19.85-50.769-43.36-38.807-77.41 5.127-22.6 9.907,33.02 17.357,18.68-16.56-24.32-9.81-56.28-6.15-83.36 10.5,.33 30.17,7.03 15.8-9.33 12.81-2.62 30.45,5.65 23.75,17.77 15,12.6 34.02,10.36 48.82,23.25 21,4.15 36.42,11.77 50.43,27.36 28.35,6.25 57.85,11.95 82.65,27.25 16,19.7 40.06-2.08 59.75,14.14 15.45,7.57 28.4,8.97 36.05-9.56 20.19-3.01 36.05-26.36 8.16-33.3-13.41,5.12-35.87-6.07-14.55-14.75 27.35,2.38 48.32,20.17 75.17,25.82 14.41,1.86 33.75,36.42 34.74,29.55-12.74-7.36-10.37-44.8 5.41-28.55 24.84,14.79-18.43-28.53-28.6-33.27-14.79-2.62-40.57-28.36-9.66-23.26 11.74,9.02 24.28-7.91 30.77,10.96 18.52,2.19-24.87-28.45 6.23-17.2 21.64,4.35-.18,24.46 20,23.47 10.43,10.09 31.61,35.34 40.06,31.66-14.82-24.95-18.63-57.05-39.12-80.26-16.33-6.3-38.96-48.06-5.57-31.46 27.31,11.21 27.85,46.85 44.78,67.69 3.83,15.79 24.64,35.67 17.73,5.56-2.98-28.69-19.1-52.45-30.39-78.2-2.47-9.03-29.21-40.36-9.66-36.3 18.26,30.12 39.27,59.29 52.31,92.25 4.25,12.82-1.72,54.22 12.79,49.56 .38-10.9 4.58-37.19 8.43-11.24 8.19,39.17 7.51,80.15 1.33,119.51-18.74,61.08-50.29,124.36-109.96,154.31-30.82,17.72-65.38,29.11-101.25,27.84-37.22-.74-75.57,5.07-112.13-3.31zm-76.8-34.61c2.8-15.63 31.35,1.46 12.81-15.68-10.66-17.66-47.06-6.59-26.27,13.72 2.42,5.11 11.82,11.54 13.46,1.96zm89.37,1.12c-14.55-6.72-23.07-1.31-2.81,2.18l2.41-.47 .4-1.71zm-31.24-22.34c-13.71-9.46-4.28,11.72 0,0zm33.57-25.43c-11.29-11.76-7.3,11 0,0zm-21.54-48.43c-13.17-7.38-28.95,7.85-3.5,1.31l3.5-1.31zm-10.51-11.77c.44-11.71-24.45,11.03-2.19,5.12l1.46-1.76 .73-3.36zm-13.74-9.01c-8.65-4.2-.14,9.71 0,0zm-12.96-3.62c-15.97-16.01 .36,10.21 0,0zm331.84-11.6c8.8-25.36-15.84-19.12-15.76,.63 2.39,11.66 15.11,11.98 15.76-.63zm-389.05-42.78c-7.7-6.36-21.34-23.13-13.05-4.21 8.53,4.65 33.8,21.49 13.05,4.21zm148.01-3.66c-11.34-1.88 3.4,3.67 0,0zm-183.68-9.56c-10.62-5.34 7.37,11.36 0,0zm13.95-5.52c12.36-22.97-18.44,12.97 0,0zm282.62-3.6c4.16-20.51-10.31-.51-5.06,6.73l2.27-1.98 2.79-4.75zm-320.38-.06c1.36-14.27-7.26-22.05-6.66-2.16-1.29,4.13 11.53,10.07 6.66,2.16zm299.36-3.14c16.29-35.55-50.13-13.69-19.24,4.85 6.13,3.34 20.35,7.04 19.24-4.85zm-17.34,1.26c19.84-19.89 16.41,12.01 0,0zm-297.25-10.72c-15.62-10.77-9.75,7.39 0,0zm405.11-10.67c-9.37-12.96-4.48,9.02 0,0zm-399.27-35.97c-3.47-16.03-21.61,5.35 0,0zm399.27-8.58c-8.53-16.58-5.38,11.06 0,0zm-426.56-6.09c-13.24-2.14 1.29,3.35 0,0zm378.08-8.21c-4.64-7.34-4.64,7.35 0,0zm-359.9-22.58c-6.67-11.45-17.89,6.99 0,0zm61.58,171.68c-9.61-9.76 22.54,4.3 0,0zm-103.2-33.04c-6.146-17.45 12.1-1.52 0,0zm293.82-93.83c22.46-16.65 0,10.12 0,0zm-19.1-7.09c6.98-7.74 6.98,7.74 0,0zm-182.89-14.36c-.65-17.77 13.31,6.05 0,0zm110.16-.78c4.64-7.34 4.64,7.35 0,0zm-128.67-10.4c-17.26-2.07-18.91-22.97 .34-7.94 10.03,6.17 30.57-3.55 11.24,9.06-3.56,2.57-8.32,1.06-11.58-1.12zm24.24-12.3c6.04-12.43 6.04,12.44 0,0zm71.42-7.05c-16.44-1.43-8.93-37.56-33.53-22.23-19.32,4.32-45.67,3.69-47.2-18.95-18.84,8.68-37.38,8.5-54.08-5.46 10.57-35.85 40.7-9.23 64.47-10.78 11.76,14.84 51.61-4.02 43.19,19.31-26.2,8.63 18.46,4.2 27.67,2.83-5.04,13.47-6.56,31.97 14.23,26.7 .07,7.75-7.77,11.72-14.75,8.58zm8.77-16.7c3.9-6.67 3.61,9.16 0,0zm-1.96-59.95c-7.84-15.39 10.52-19.66 4.69-4.42 .86-5.46-3.35,7.72-4.69,4.42zm-29.74-59.95c4.02-6.86 5.16,4.19 0,0z"/>
<path fill="#516d4e" d="m324.02,833.85c-24.73-7.57-56.06-1.24-74.66-22.75-20.04-5.68-54.32-10.87-64.55-36.55 27.3-15.02-31.18-21.01-29.37-45.72-2.84-9.27 23.99,15.18 11.08-2.8-7.12-17.2 16.54,21.07 27,19.14 16.84,12.19 4.16-32.37 19.04-7.63 15.28,9.51 50.52,35.03 60.2,23.39-11.86-15.18 26.69-11.14 7.05-29.73 15.24-11.21 4.66,34.98 29,30.63 18.54,4.82 13.57-17.71-1.44-13.7 10.26-19.42-28.3-50.74-40.37-36.19 8.26,19.38-25.3,.1-35.83,7.48-14.49-7.52-41.04-14.02-18.97-31.19 10.75-5.09 41.81,25.51 30.65-2.25-14.9-11.06-29.59-32.47-48.75-22.46-13.68-26.77-51.59,5.09-56.66-25.61-18.1-19.28-48.597-36.86-39.992-68.18-2.263-16.45 8.782-20.65 8.372-1.73 1.89,20.87 23.66,7.6 24.71,19.13 10.59,12.62 31.38-9.24 26.32,13.83 6.05,10.86 19.83-5.74 26.27,12.28 8.13,9.58 24.35-16.81 26.51,8.14 7.14-9.95 33.39,9.46 10.34,1.29-12.28-.68 25.55,23.12 12.81,2.31 22.91,14.99-17.4-32.38 7.19-11.73 11.34,14.65 36.04,21.33 52.33,22.05 6.46-18.23-26.48-37.98-43.2-26.45-7.03-12-14.26-25.78-21.58-10.43-14.47-5.39-11.13-28.82-34.46-25.49-18.72-6.69-46.76-6.13-39.98-32.19-14.16-12.21-36.03-6.88-46.96-14.05 .96-15.74-1.58-41.4 22.19-28.36 21.05-2.58 30.97,20.77 53.41,18.01 15.94,21.08 50.73,10.28 62.73,37.04 28.71,6.78 57.69,13.28 84.03,26.51 16.23,22.94 41.67,.09 62.47,16.44 15.45,7.57 28.4,8.97 36.05-9.56 20.19-3.01 36.05-26.36 8.16-33.3-13.41,5.12-35.87-6.07-14.55-14.75 27.35,2.38 48.32,20.17 75.17,25.82 20.57,10.69 41.57,52.07 56.94,14.8-15.45-21.79-34.44-43.86-60.06-54.69-25.16-14.44 3.61-19.81 17.05-12.18 9.12-15.6 23.93,21.8 22.7,2.35-30.82-23.99 29.02-10.1 10.96,8.07 20.95,4.45 32.86,32.19 51.95,37.59-13.99-24.89-18.22-55.53-36.84-79.46-11.85-3.93-43.12-47.98-14.1-35.23 30.37,3.57 32.46,42.23 46.96,63.1 5.22,13.71 27.25,45.14 21.21,10.54-2.98-28.69-19.1-52.45-30.39-78.2-2.47-9.03-29.21-40.36-9.66-36.3 18.26,30.12 39.27,59.29 52.31,92.25 4.25,12.82-1.72,54.22 12.79,49.56 .38-10.9 4.58-37.19 8.43-11.24 8.19,39.17 7.51,80.15 1.33,119.51-18.74,61.08-50.29,124.36-109.96,154.31-30.82,17.72-65.38,29.11-101.25,27.84-37.22-.74-75.57,5.07-112.13-3.31zm-76.8-34.61c2.8-15.63 31.35,1.46 12.81-15.68-10.66-17.66-47.06-6.59-26.27,13.72 2.42,5.11 11.82,11.54 13.46,1.96zm89.37,1.12c-14.55-6.72-23.07-1.31-2.81,2.18l2.41-.47 .4-1.71zm-31.24-22.34c-13.71-9.46-4.28,11.72 0,0zm33.57-25.43c-11.29-11.76-7.3,11 0,0zm-21.54-48.43c-13.17-7.38-28.95,7.85-3.5,1.31l3.5-1.31zm-10.51-11.77c-1.26-6.72-36.62-18.41-30.71-9.05 5.99,4.49 27.36,23.76 30.71,9.05zm305.14-24.23c8.8-25.36-15.84-19.12-15.76,.63 2.39,11.66 15.11,11.98 15.76-.63zm-213.98-6.03c-6.84-12.79-13.45-14.29-15.9-3.18-17.54,5.81 13.2,6.78 15.9,3.18zm18.11-10.81c-14.51,2.74-1.03-7.73-5.56-11.28-14.24,5.37-13.61,24.21 5.56,11.28zm-21.62-13.65c-14.43-3.82-23.46-20.88-43.96-15.99-21.43-.93-41.47-5.13-59.04-12.65-4.45,5.74 20.05,8.89 21.96,20.72 13.8,5.16 23.36-9.86 37.97,1.05 15.02-7.6 36.5,17.36 43.07,6.87zm88.89-32.86c5.48-17.95-48.12-39.2-48.26-7.49 8.37,10.5 40.95,19.02 48.26,7.49zm69.95-69.65c-8.53-16.58-5.38,11.06 0,0zm-48.48-14.3c-4.64-7.34-4.64,7.35 0,0zm-401.52,116.06c-6.146-17.45 12.1-1.52 0,0zm112.48-35.55c4.72-7.42 5.13,3.98 0,0zm-101.5-30.51c-9.21-29.07 20.48,8.68 0,0zm-4.79-27.18c5.94-11.79 3.95,8.32 0,0zm287.63-.59c22.46-16.65 0,10.12 0,0zm-19.1-7.09c6.98-7.74 6.98,7.74 0,0zm-72.73-15.14c4.64-7.34 4.64,7.35 0,0zm-33.01-29.75c-16.44-1.43-8.93-37.56-33.53-22.23-19.32,4.32-45.67,3.69-47.2-18.95-18.84,8.68-37.38,8.5-54.08-5.46 10.57-35.85 40.7-9.23 64.47-10.78 11.76,14.84 51.61-4.02 43.19,19.31-26.2,8.63 18.46,4.2 27.67,2.83-5.04,13.47-6.56,31.97 14.23,26.7 .07,7.75-7.77,11.72-14.75,8.58zm8.77-16.7c3.9-6.67 3.61,9.16 0,0zm-1.96-59.95c-7.84-15.39 10.52-19.66 4.69-4.42 .86-5.46-3.35,7.72-4.69,4.42zm-29.74-59.95c4.02-6.86 5.16,4.19 0,0z"/>
<path fill="#588911" d="m336.91,833.3c-11.82-8.35 15.16-6.46 5.44-20.63 30.06-9.66-28.25-36.07-30.27-11.93-15.57,13.59-24.1-19.79-43.08-15.53-11.89-16.79-31.17-16.63-41.73-5.28-2.71-7.61-34.74-9.17-22.87-18.02 11.35,11.49 17.05-.9 8.93-10.53 20.33-6.86 53.87,36.66 65.1,14.38-8.28-17.79 28.62,3.55 10.07,4.91-3.69,33.48 42.11,10.01 55.21,11.63-12.48-6.96-32.38-18.19-11.33-22.18 29.13,12.79-1.1-24.85-7.2-35-2.69-17.69-22.95-19.3-14.59-4.45-13.03,9.07-40.7-31.79-42.6-5.09 3.07,12.83-20.4-3.93-29.4,2.95-11.59,4.84-21.65-13.64-31.26-15.42 .17-18.21 15.05-21.11 22.04-4.77 5.92-7.98 18.33,13.09 14.98-6.32-8.76-19.93-34.34-33.72-51.74-30.91-15.67-23.01-50,6.89-55.17-23.2-16.96-18.75-47.281-35.07-39.869-65.04-1.507-14.38 7.319-27.05 8.249-4.87 1.89,20.87 23.66,7.6 24.71,19.13 10.59,12.62 31.38-9.24 26.32,13.83 6.05,10.86 19.83-5.74 26.27,12.28 8.13,9.58 24.35-16.81 26.51,8.14 7.14-9.95 33.39,9.46 10.34,1.29-12.28-.68 25.55,23.12 12.81,2.31 22.91,14.99-17.4-32.38 7.19-11.73 11.34,14.65 36.04,21.33 52.33,22.05 6.46-18.23-26.48-37.98-43.2-26.45-7.03-12-14.26-25.78-21.58-10.43-14.47-5.39-11.13-28.82-34.46-25.49-18.72-6.69-46.76-6.13-39.98-32.19-14.17-12.21-36-6.88-46.98-14.06 .18-16.25 .42-39.84 23.03-28.51 21.41-3.15 29.6,22.23 52.11,18.72 13.83,21.36 49.79,7.9 60.65,34.14 26.23,13.89 62.32,16.02 83.5,35.82-4.6,11.07 13.27-.35 20.9,9.46 23.25-16.74 53.02,18.17 71.69,3.14 2.94-15.03 27.06-21.48 14.69-3.33 11.08,12.6 57.76,26.57 51.07-1.8-22.54,1.66-42.57-43.51-9.68-32.75 24.46-5.07 41.71,19.36 57.19,35.41 17.96-4.82 27.9-16.43 12.33-30.92-7.68-10.18-43.12-35.8-15.98-37.3 9.73,22.62 .41-14.87 14.75,2.98 4.18,14.99 20.97,18.46 13.8-1.42 8.69,14.85 27.53,19.69 38.74,31.42-11.44-23.83-18.11-51.82-31.31-76.54-8.71-11.63 6.63-28.28 10.54-5.8 10.62,16.55 25.16,53.72 38.41,54.51 5.16-27.77-17.71-55.93-17.42-79.25 25.62,17.01 29.94,48.72 33.35,76.05-3.68,16.97 12.6,27.21 10.68,4.11 5.62-29.51 11.39,38.21 11.6,49.8 3.1,38.59-2.01,78.13-20.47,112.6-17.13,39.54-40.55,78.2-77.83,101.67-30.76,18.95-64.49,35.7-101.42,35.93-37.81,1.55-76.67,4.15-114.11-1.52zm-19.53-129.14c-13.17-7.38-28.95,7.85-3.5,1.31l3.5-1.31zm-10.51-11.77c-1.26-6.72-36.62-18.41-30.71-9.05 5.99,4.49 27.36,23.76 30.71,9.05zm304.78-23.6c11.28-20.42-15.01-25.16-13.53-3.21-6.35,11.11 12.03,20.53 13.53,3.21zm-213.62-6.66c-6.84-12.79-13.45-14.29-15.9-3.18-17.54,5.81 13.2,6.78 15.9,3.18zm18.11-10.81c-14.51,2.74-1.03-7.73-5.56-11.28-14.24,5.37-13.61,24.21 5.56,11.28zm-21.62-13.65c-14.43-3.82-23.46-20.88-43.96-15.99-21.43-.93-41.47-5.13-59.04-12.65-4.45,5.74 20.05,8.89 21.96,20.72 13.8,5.16 23.36-9.86 37.97,1.05 15.02-7.6 36.5,17.36 43.07,6.87zm-167.23,164.99c-15.65-2.51-18-14.25-8.45-24.38 8.27,1.12 32.31,39.82 8.45,24.38zm78.06-32.1c-4.9-6.92 10.99,5.02 0,0zm-108.16-15.13c2.79-5.97 4.2,6.48 0,0zm84.05-23.48c-.56-14.62 11.76,9.16 0,0zm-178.06-97.33c-2.18-10.03 6.47,3.37 0,0zm112.66-33.25c4.72-7.42 5.13,3.98 0,0zm-101.5-30.51c-9.21-29.07 20.48,8.68 0,0zm-4.79-27.18c5.94-11.79 3.95,8.32 0,0zm89.03-75.98c-.17-12.45-3.93-22-18.04-21.58 5.63-22.1 54.25-2.01 45.32,9.65-24.33,.76 26.61,12.39-4.15,12.74-7.64,.14-15.64,1.06-23.13-.81zm10.59-14.31c-2.52-20.2-11.47,12.58 0,0zm-50.46,.23c-12.13-2.53-19.21-6.28-2.52-13.06 5.42-1.76 9.03,12.05 13.34,1.25 3.64,9.07-.53,24.56-10.82,11.81z"/>
<path fill="#4e6f2e" d="m336.91,833.3c-11.82-8.35 15.16-6.46 5.44-20.63 30.06-9.66-28.25-36.07-30.27-11.93-15.57,13.59-24.1-19.79-43.08-15.53-11.89-16.79-31.17-16.63-41.73-5.28-2.71-7.61-34.74-9.17-22.87-18.02 11.35,11.49 17.05-.9 8.93-10.53 20.33-6.86 53.87,36.66 65.1,14.38-8.28-17.79 28.62,3.55 10.07,4.91-3.69,33.48 42.11,10.01 55.21,11.63-12.48-6.96-32.38-18.19-11.33-22.18 29.13,12.79-1.1-24.85-7.2-35-2.69-17.69-22.95-19.3-14.59-4.45-15.33,5.88-43.18-21.74-12.9-21.08 33.97-6.89-26.87-28.4-31.53-20.8-18.5,22.7-43.03-22.27-66.04-18.47-17.43-10.48-41.89-7.43-56.13-9.68-9.24-29.62-55.934-41-46.419-77.77-1.475-14.17 7.159-27.16 8.309-5.06 4.86,32.71 51.59,10.92 56.9,39.19 14.98,3.33 27.8,11.16 42.95,5.01 7.35,21.32 35.2,20.75 52.91,31.11 22.7,6.67 47.47-5.85 71.87-1.44 17.15,.91 37.63-8.7 40.18,16.45 19.14,22.85 43.92-9.13 65.25,3.91 7.97-12.65-33.04-29.92-49.81-33.12-24.83-15.72-58.02-7.27-84-20.24-24.72-4.31-51.45,1.82-67.48-20.77-22.29-15.1-53.53-17.58-75.8-30.13 1.43-26.13-32.32-27.68-51.98-30.28-2.15-19.48 1.82-40.9 25.8-28.53 18.49,1.86 28.98,19.84 48.56,17.91 13.83,21.37 49.8,7.9 60.66,34.15 26.23,13.89 62.32,16.02 83.5,35.82-4.6,11.07 13.27-.35 20.9,9.46 23.25-16.74 53.02,18.17 71.69,3.14 7.68-17.96 21.95-18.92 16.93-1.1 12.25,8.11 49.95,25.9 55.3,14.65-2.54-18.06-16.9-26.43-32.68-34.6-10.76-28.14 30.62-19.41 41.89-10.24 20.48,6.94 25.8,38.39 52.48,27.38 7.42,14.81 29.2,10.25 12.19-3.39-12.13-21.45-40.49-38.5-46.27-59.66 6.11-17.96 21.06,18.57 14.33-4.25 10.47-6.88 27.57,36.66 23.9,4.3 5.97,5.44 28.52,23.49 39.23,27.33-11.78-25.2-20.59-52-32.59-77.48-6.85-11.31 8.66-23.58 11.43-2.99 10.62,16.55 25.16,53.72 38.41,54.51 5.16-27.77-17.71-55.93-17.42-79.25 25.62,17.01 29.94,48.72 33.35,76.05-3.68,16.97 12.6,27.21 10.68,4.11 5.62-29.51 11.39,38.21 11.6,49.8 3.1,38.59-2.01,78.13-20.47,112.6-17.13,39.54-40.55,78.2-77.83,101.67-30.76,18.95-64.49,35.7-101.42,35.93-37.81,1.55-76.67,4.15-114.11-1.52zm.64-124.31c11.41-25.26-52.73-5.12-32.32-2.4 14.61-4.91 22.46-1.49 32.32,2.4zm16.23-5.92c-6.56-11.02-14.78,10 0,0zm257.87-34.28c11.28-20.42-15.01-25.16-13.53-3.21-6.35,11.11 12.03,20.53 13.53,3.21zm-152-11.73c-1.59-16.73-26.47,10.35-2.11,.52l2.11-.52zm70.51-31.97c-11.96-7.86-2.24,16.69 0,0zm-49.87-.68c-9.45-14.45-10.94,14.38 0,0zm27.5-1.59c-12.79-28.85-19.79,18.73 0,0zm75.38-13.52c-6.88-32.7-9.89,22.47 0,0zm-355.88,193.36c-15.65-2.51-18-14.25-8.45-24.38 8.27,1.12 32.31,39.82 8.45,24.38zm78.06-32.1c-4.9-6.92 10.99,5.02 0,0zm-108.16-15.13c2.79-5.97 4.2,6.48 0,0zm84.05-23.48c-.56-14.62 11.76,9.16 0,0zm-22.95-13.72c-16.21,2.45-45.76-2.81-50.49-19.08 4.16-21.37 14.88-8.56 23.9-.43 5.73-10.25 9.63,14.25 17.41-4.11 9.8-4.99 35.72-7.5 29.6,4.41-21.79-3.75 2.13,35.38-20.42,19.21zm-155.11-83.61c-2.18-10.03 6.47,3.37 0,0zm95.4-166.92c-.17-12.45-3.93-22-18.04-21.58 5.63-22.1 54.25-2.01 45.32,9.65-24.33,.76 26.61,12.39-4.15,12.74-7.64,.14-15.64,1.06-23.13-.81zm10.59-14.31c-2.52-20.2-11.47,12.58 0,0zm-50.46,.23c-12.13-2.53-19.21-6.28-2.52-13.06 5.42-1.76 9.03,12.05 13.34,1.25 3.64,9.07-.53,24.56-10.82,11.81z"/>
<path fill="#4a7114" d="m340.31,835.42c-6.5-10.84 27.73-36.38-2.82-42.05-21.72-15.74-29.81,29.03-44.73,2.11-23.14-9.97-42.94-33.55-71.93-21.3-14.31,5.92-28.27-22.3-9.36-7.55 15.55,.29-9.03-25.92 14.67-14.08 18.26,6.88 56.15,37.66 54.48,5.42 12.21,6.88 15.1,7.02 7.3,17.92 5.35,27.8 39.34,1.92 56.06,7.89-7.09-10.81-36.97-15.77-11.65-23.56 26.77,15.01 16.88-35.03-2.74-34.11 8.36-6.52 31.63,9.12 8-5.43-14.26-1.43-17.41-28.91-3.69-11.05 17.45-6.47-18.2-28.07-23.15-9.39-.64-24.44-27.66-15.74-41.91-27.92-19.05-3.31-7.71,7.88-4.02,10.2-28.73,15.38-41.21-39.67-68.83-21.78-11.78-27.1-51.56,2.69-55.5-24.16-17.72-16.86-43.024-29.89-41.861-58.51 10.991-1.85 25.461,22.76 43.511,16.55 14.81-.9 9.42-3.16 14.24,12.16 7.39,10.14 18.86-8.68 24.32,9.66 11.89,12.93 26.07-21.17 24.64,5.69 20.07,16.02 46.43,22.82 70.66,28.74 7.86-11.13 34.12-14.51 48.2-3.27 8.61-10.3 31.48-8.55 41.38-3.34 2.55,31.45 34.85,25.38 53.39,13.29 14.69,7.51 30.77,3.48 10.58-9.95-19.63-12.9-42.98-16.97-61.63-30.14-15.2,11.28-40.65-12.38-49.06-3.96-12.53,.5-27.92-16.09-35.95-4.8-11.75-9.2-22.15-10.04-33.28-5.13-7.49-23.95-26.25-14.43-41.36-30.8-14.97-2.33-35.13-7.44-49.44-12.82 4.57-24.74-21.22-29.02-38.5-35.09-21.028,16.41-11.85-41.26 10.22-23.52 19.06-.29 27.81,21.81 47.46,17.76 20.32,17.19 51.24,13.53 66.84,38 27.2,6.27 56.94,12.26 80.09,27.44-4.24,13.22 13.03,4.41 23.41,11.39 25.78-17.43 60.09,28.42 76.34-2.92 7.79-2.94 16.57,20.98 30.26,22.89 9.01,16.49 .81-15.21 16.82-1.87 13.36,7.93 26.66,2.6 13.65-9.75 8.92-22.21-43.5-18.52-25.97-44.26 26.63-1.95 52.08,12.14 64.57,35.3 11.82,11.99 29.79-10.04 40.52,10.72 18.3-7.67-19.3-26.44-18.11-41.48-7.04-8.96-41.41-32.15-20.4-36.73 8.54,12.21 6.58,8.57 7.92-.8 11.95,1.96 15.58,25.54 29.08,14.24 22.38,6.19 20.57,37.15 36.76,44.06-1.05-26.02-13.06-49.14-21.7-74.63-5.54-11.57-26.18-40.73-9.84-41.89 15.41,23.69 21.25,55.14 44.18,72.86 12.93,14.78 .02-36.98-2.85-46.65-7.33-17.85 2.96-22.68 10.66-4.24 6.25,22.17 1.01,57.14 14.98,70.85 4.62-11.58 8.49-26.94 12.03-4.79 12.84,14.01-12.67,52.82-3.6,51.99 10.36-13.28 3.45,25.98 4.12,33.16-5.28,28.21-18.19,54.4-29.95,80.3-15.3,30.15-36.25,57.19-64.61,75.98-32.05,20.63-68.31,37.04-107.08,36.74-35.26,.86-70.56,1.39-105.82,.41zm255.52-134.94c-5.82-27.81-6.94,27.72-.06,3.76l.06-3.76zm-242.05,2.59c-6.56-11.02-14.78,10 0,0zm256.96-23.78c14.09-11.84 3.39-51.34-11.55-24.72-8.65,18.11-16.93,28.17 11.55,24.72zm-363.2-3.31c-8.63-8.11-3.62,7.53 0,0zm190.56-10.75c-11.34-1.88 3.4,3.67 0,0zm11.19-1.89c-11.34-1.88 3.4,3.67 0,0zm10.36-6.28c-1.59-16.73-26.47,10.35-2.11,.52l2.11-.52zm-92.76,0c-4.48-7.54-2.96,7.03 0,0zm-16.44-8.86c-11.34-1.87 3.41,3.67 0,0zm123.66-17.62c-17.12-12.86 7.9,13.6 0,0zm56.05-5.49c-11.96-7.86-2.24,16.69 0,0zm-49.87-.68c-9.45-14.45-10.94,14.38 0,0zm27.5-1.59c-12.79-28.85-19.79,18.73 0,0zm73.55,4.01c-11.55-7.37-27.87-22.02-9.01-3.1 2.09,1.05 7.51,8.35 9.01,3.1zm2.33-17.53c-2.23-33.11-13.92,21.26 0,0zm41.41-7.23c-6.01-5.18-.44,8.9 0,0zm4.68-17.36c-4.22-10.98-14.91-51.35-12.59-16.11 1.89,3.55 8.28,30.54 12.59,16.11zm-454.95-44.93c-4.63-7.34-4.63,7.34 0,0zm38.72,256.54c-4.38-19.4 18.25,8.93 0,0zm91.82-25.76c-4.9-6.92 10.99,5.02 0,0zm-108.16-15.13c2.79-5.97 4.2,6.48 0,0zm105.26-36.11c1.65-15.78 22.07,8.73 0,0zm-55.24-3.22c-13.06,1.68-55.54-13.28-28.9-23.87 14.27,12.56 28.05,10.82 43.47,6.58 7.29,11.91-.55,22.24-14.57,17.29zm34.83-11.75c2.51-7.01 7.83,6.75 0,0zm-4.29-6.05c-9.5-3.89-39.86-5.3-11.81-5.98 5.49-11.95 21.27,9.92 11.81,5.98zm320.68-230.29c-20.78-31.65 27.58,9.09 4.27,4.67l-4.27-4.67zm-388.65-1.51c-16.88,2.82-12.12-26.32-28.24-23.12 10.03-15.96 46.92-1.62 46.47,12.18-28.28-.51 21.63,12.17-4.65,11.79-4.53-.28-9.05-.56-13.58-.85zm-.61-13.11c-2.52-20.2-11.47,12.58 0,0zm-49.17-2.71c-23.48-4.07-.36-9.58 7.05-6.75 8.08-8.72 2.04,21.89-7.05,6.75z"/>
<path fill="#334a2c" d="m340.31,835.42c-6.5-10.84 27.73-36.38-2.82-42.05-21.72-15.74-29.81,29.03-44.73,2.11-23.14-9.97-42.94-33.55-71.93-21.3-14.31,5.92-28.27-22.3-9.36-7.55 15.55,.29-9.03-25.92 14.67-14.08 18.26,6.88 56.15,37.66 54.48,5.42 12.21,6.88 15.1,7.02 7.3,17.92 5.35,27.8 39.34,1.92 56.06,7.89-7.09-10.81-36.97-15.77-11.65-23.56 26.77,15.01 16.88-35.03-2.74-34.11 16.97-11.36 39.88,29.4 44.25-4.58-4.83-10.28-12.7-14.99 1.46-16.01-23.62-15.13-58.15-7.66-81.93-24.89-21.9-17.24-46.4,3.2-66.59-13.91-21.28-12.89-48.5-18.39-74.24-19.86-15.24-9.67-36.64-32.95-50.11-51.2-12.888-22.71 5.1-22.05 15.99-6.16 17.42,5.45 35.59,5.56 46.84,22.41 19.5,11.87 37.66-4.47 48.68,15.72 22.19,11 51.13,30.28 75.27,16.97 25.22-.9 50.73,.27 73.78,4.71 7.05,34.56 46.66,12.6 69.7,15.83 13.59-.83 56.55,4.93 38.14-18.18-29.45,3.62-55.4-9.42-81-22.06-25.11-6.97-52.33-13.15-77.22-13.61-19.29-12.52-49.63-3.66-65.35-16.87-18.92-18.28-44.22-22.18-68.07-31.65-26.32,3.48-13.56-31.59-39.61-31.1-10.51-12.84-38.36,5.02-28.72-17.82 .47-29.55 40.57-6.09 52.69,3.91 20.95,4.33 45.02,16.28 65.81,24.29 16.97,24.17 51.59,19.9 76.5,32 16.04-3.49 18.51,22.12 23.02,16.74 24.46,8.57 53.05-3.53 77.29,14 14.77,8.36 21.33-30.62 27.95-3.88 22.29,18.33 43.07,38.62 74.49,38.23 16.14,15.4 39.86,9.86 50.26,20.86 19.43-12.04-23.52-24.44-28.2-39.32-21.81-.38-44.01-12.53-50.16-32.43-15.9,.64-38.07-28.33-12.8-27.86 31.21-3.18 45.83,26.3 66.47,40.98 26.19-1.86 38.78,35.65 61.79,25.9 .27-28.6-30.84-31.16-42.94-53.16-6.31-17.04-40.73-30.81-30.65-47.03 8.28,3.37 14.34,17 9.77,1.16 13.34-4.33 16.64,26.09 30.88,13.03 22.61,3.78 21.72,44.16 37.8,42.46-1.7-28.78-15.79-55.14-26.95-81.39-12.11-7.76-16.52-50.28-1.37-26.05 12.86,23.2 20.85,52.18 42.39,68.11 8.88-1.43-4.93-42.06-6.13-57.25-3.58-25.37 20.96,15.12 14.58,26.04 .64,15.22 6.33,69.9 18.98,33.9 9.65,5.84 8.63,43.11-.31,58.16-4.89,9.72-8.67,25.61 7.39,19.67 1.71,28.54-15.17,53.38-23.16,79.71-13.64,28.82-29.01,57.87-53.7,78.56-25.38,22.3-56.64,37.75-88.75,47.4-47.11,8.04-95.82,4.72-143.49,4.83zm156.67-111.14c2.86-22.76-7.74,13.18 0,0zm-21.32,1c31.18-13.18-62.93-16.35-21.38,.1 6.92,2.31 14.41,1.55 21.38-.1zm-74.78-4.75c28.84-5.33-21.45-17.44-19.54-.38 6.48,3.94 12.67-1.3 19.54,.38zm33.14,.85c-4.64-7.34-4.64,7.34 0,0zm161.81-20.85c-3.54-27.07-14.3,20.8-.31,6.22l.31-6.22zm14.91-21.24c16.3-15.7 .72-51.65-17.64-24.26 4.9,15.9-15.01,28.53 17.64,24.26zm-83.48-7.84c-7.28-12.95-20.01,10.6-.41,1.15l.41-1.15zm-21.52-9.57c-27.1-11.26 3.47,27.05 0,0zm124.69-70.02c-1.41-13.44-16.56-60.18-12.85-21.82 3.36,10.64 1.1,59.39 12.85,21.82zm-455.62-52.08c-4.63-7.34-4.63,7.34 0,0zm38.72,256.54c-4.38-19.4 18.25,8.93 0,0zm91.82-25.76c-4.9-6.92 10.99,5.02 0,0zm-108.16-15.13c2.79-5.97 4.2,6.48 0,0zm105.26-36.11c1.65-15.78 22.07,8.73 0,0zm-55.24-3.22c-13.06,1.68-55.54-13.28-28.9-23.87 14.27,12.56 28.05,10.82 43.47,6.58 7.29,11.91-.55,22.24-14.57,17.29zm351.22-248.09c-20.78-31.65 27.58,9.09 4.27,4.67l-4.27-4.67zm-388.65-1.51c-16.88,2.82-12.12-26.32-28.24-23.12 10.03-15.96 46.92-1.62 46.47,12.18-28.28-.51 21.63,12.17-4.65,11.79-4.53-.28-9.05-.56-13.58-.85zm-.61-13.11c-2.52-20.2-11.47,12.58 0,0zm-49.17-2.71c-23.48-4.07-.36-9.58 7.05-6.75 8.08-8.72 2.04,21.89-7.05,6.75z"/>
<path fill="#324e15" d="m421.97,835.26c-23.92-3.68-52.71,6.04-72.97-10.57-.76-12.91 28.38,3.43 12.28-11.2-13.8-6.79 22.77-9.4-2.69-17.15 1.17-7.35 42.13-14.44 11.22-18.21-21.97,7.21-22.92-36.9-13.84-36.22 28.16,6.65-24.43-14.93 1.03-11.82 10.88,21.08 24.17-16.07 9.07-23.05 23.61-1.85-20.32-14.26-29.97-12.48-16.68-4.2-30.14-5.74-47.24-18.2-2.78,5.99-31.96-19.69-36.91-.38-8.81-9.87-18.97,5.05-29.88-13.85-14.04-13.73-28.47-1.51-42.76-15.98-21.1-8.31-33.93,10.72-41.89-13.75-14.06-15.96-42.919-29.11-37.18-54.56 10.5,17.63 36.97,13.89 44.63,26.46-16,13.34 13.14-2.36 18.57,10.29 13.68,.62 28.15,8.77 40.31,1.76 5.13,25.47 43.3,25.11 64.03,36.08 17.68-2.77 29.63-13.26 51.44-6.08 8.74,4.49 23.12-6.01 33.7,4.78 13.19-10.23 16.68,26.88 36.86,19.5 24.77-9.64 35.7-1.9 58.52-4.81 8.76-5.99 16.09,8.94 27.44-6.17-2.92-27.3-45.91-3.46-62.23-23.88-19.19-5-36.62-25.68-54.19-18.43-8.44-3.31-25.96-.57-35.77-12.71-8.91,16.23-29.63-8.11-43.07,.4-14.78-15.13-36.82,4.18-41.71-23.14-17.95,3.71-26.73-16.49-38.6-12.99-18.7-4.91-45.15-5.87-43.82-32.27-18.87-.72-28.29-20.82-45.38-10.58 5.62-20.45 34.82-28.97 48.49-6.09 23.68-.08 44.24,18.9 67.6,23.35-2.29,25.08 43.24,14.9 57.47,30.93-21.55,4.25 10.65,21 9.06,1.66 15.47,2.79-17.77,24.45 9.72,19.7 22.89,7.92 48.38-1.07 72.11,2.31 16.32,12.13 42.12,9.87 52.56,2.69 7.82,8.75-1.92,19.75 16.43,11.58 16.58,9.75 20.55,25.52 44.46,23.31 19.19-5.85 45.08,25.63 51.22,20.18 8.24-13.48 23.52,18.37 24.92-4.26-18.82-12.87-31.64-33.31-54.54-35.02-18.16-4.95-29.31-17.34-23.36-33.89-13.73,7.76-23.86-5.66-9.07-15.53 31.4-5.94 35.16,37.46 63.69,36.91 4.47,5.48 17.49-2.58 20.78,11.89 7.02,14.77 27.31,16.78 34.29,8.18-5.08-29.16-37.9-29.07-46.96-56.55 10.1,6.36 24.5,5.87 24.63-6.38-24.3,6.23 .73-19.68 7.07,1.25-.03,14.4 21.49,39.68 18.88,12.05-6.89-23.79-12.79-45.57-19.2-68.59 13.16,23.8 39.15,42.06 33.81,72.49 11.74,9.67-.8,35.59 7.05,41.2 1.88-17.17 14.28-34.09 14.24-44.84-18.08,5.06-15.15-36.81-14.43-48.85 3.62,11.29 2.24,51.54 16.58,40.7-3.6-15.58 11.84-28.13 5.44-5.6 11.05,21.83-15.35,45.93-6.47,63.33 25.64-1.51-2.37,33.99 1.45,47.27-9.29,16.76-17.33,34.07-22.81,45.22-8.84,25.66-24.77,48.65-45.98,65.6-19.48,18.19-43.1,32.98-69.15,38.62-20.29,13.99-48.37,10.85-72.31,14.48l-4.67,.13-2-.22zm-42.81-66.34c-14.97,.14-18.03-36.42-17.37-7.97 1.74,3.88 15.76,12.26 17.37,7.97zm6.37-19.17c-6.98-7.74-6.98,7.75 0,0zm167.87-8.55c3.63-9.27-9.94,9.22 0,0zm-54.58-9.57c-9.3-2.37-.72,11.13 0,0zm91.84-6.45c13.42-15.02 5.01-50.7-2.79-21.53 7.11,3.97-10.69,46.66 2.79,21.53zm-202.33,5.66c-5.72-6.08-.58,6.51 0,0zm169.89-3.27c-3.7,3.48 2.52,7.21 0,0zm-61.24-3.29c2.86-22.76-7.74,13.18 0,0zm-21.32,1c31.18-13.18-62.93-16.35-21.38,.1 6.92,2.31 14.41,1.55 21.38-.1zm103.05-5.31c-7.67-1.38-4.68,11.51 0,0zm-177.83,.56c28.84-5.33-21.45-17.44-19.54-.38 6.48,3.94 12.67-1.3 19.54,.38zm33.14,.85c-4.64-7.34-4.64,7.34 0,0zm73.64-22.68c-2-4.02-7.84,6.29 0,0zm83.93-14.74c6.01-12.7 26.52,12.88 23.05-12.38 12.3-18.97-6.22-36.5-21.32-19.89-10.77-12.51 10.43,20.78-5.38,25.16-5.48,7.86-6.58,21.34 3.65,7.11zm-77.04-3.6c-11.34-1.88 3.41,3.67 0,0zm12.71-8.91c-7.28-12.95-20.01,10.6-.41,1.15l.41-1.15zm-21.52-9.57c-27.1-11.26 3.47,27.05 0,0zm49.84,3.35c-11.34-1.88 3.4,3.67 0,0zm-60.96-13.84c-9.74-7.3-2.07,7.83 0,0zm-301.16-8.67c-5.23-7.91-5.87,9.85 0,0zm302.56-3.93c-13.24-2.14 1.3,3.35 0,0zm104.9-42.26c-5.25-10.88-5.25,10.88 0,0zm-330.15-15c-2.95-11.79-10.95,6.75 0,0zm-10.64-4.39c-9.67-11.34-7.88,10.27 0,0zm-21.91-9.1c-9.34-7.86-4.45,10.47 0,0zm-55.11-7.24c-18.05-9.66 .64,4.9 0,0zm21.19-4.49c-8.2-11.32-24.78-1.94-3.76,3.61l2.45-.94 1.31-2.67zm-26.91-17.97c-18.26-13.82-2.43,28.79 0,0zm61.67,173.65c-14.03-2.26-19.65-15.81-1.58-5.88 9.6,8.36 23.14-18.04 22.11,5.99-6.57,1.77-13.85,.57-20.53-.11zm-23.22-15.2c2.78-5.98 4.2,6.48 0,0zm-67.13-98.37c4.64-7.34 4.64,7.34 0,0zm161.43-9.24c4.49-14.83 10.41,7.01 0,0zm227.99-31.82c-10.8-11.31 11.07-13.7 12.65,1.63-3.84,2.25-9.24,.88-12.65-1.63zm-427.25-45.98c7.07-15.66-.57,10.98 0,0z"/>
<path fill="#283526" d="m421.97,835.26c-23.92-3.68-52.71,6.04-72.97-10.57-.76-12.91 28.38,3.43 12.28-11.2-13.8-6.79 22.77-9.4-2.69-17.15 1.17-7.35 42.13-14.44 11.22-18.21-22.19,7.64-23.33-39.57-12.4-35.71 9.75,4.72-2.47,30.35 21.02,26.21 32.25,6.01 12.37-25.61-6.84-23.49 11.73-31.27 45.25,10.14 68.42,1.17 27.74,4.59 48-14.79 74.42-16.02 10.86,.31 29.62-8.09 23.9,9.83 19.96,17.35 27.94-38.93 35.98-20.63-1.63,12.63 19.77-15.76 11.74,5.31-.77,21.68 14.53-21.71 17.12-20.72-5.59-13.59-12.29-30.67 8.18-19.62 27.19-2.23 10.24,23.26 3.06,33.73-7.57,25.53-23.59,47.6-44.31,64.06-19.48,18.19-43.1,32.98-69.15,38.62-20.29,13.99-48.37,10.85-72.31,14.48l-4.67,.13-2-.22zm77.94-88.48c-8.96-9.73-4.25,17.68 0,0zm51.59-21.2c6.38-18.48 11.49,1.29 0,0zm-312.44-13.59c-14.03-2.26-19.65-15.81-1.58-5.88 9.6,8.36 23.14-18.04 22.11,5.99-6.57,1.77-13.85,.57-20.53-.11zm291.93-.47c-21.73,2.92 5.44-18.52-17.44-14-14.59,5.29-24.89,20.51-45.49,13.16-27.93-6.78-54.06,.6-80.17-12.1-28.77-7.89-60.75-2.05-87.03-18-23.05-15.8-48.64-5.49-71.65-15.7-22.82-15.2-52.23-18.38-79.06-23.14-13-19.57-46.12-33.62-44.36-58.04 6.95,17.08 43.37,5.49 36.91,23.13-10.75,9.71 16-5.05 19.47,7.27 23.41,8.01 43.15,1.52 59.79,22.63 26.57,9.77 51.78,20.76 79.15,9.59 26.81,3.08 57.41-3.17 72.34,21.89 23.97,10.61 48.57-5.28 73.61-.74 10.04,1.87 23.8-4.5 29.82,6.28 18.46,10.56 47.69,9.92 67.16,2.4-20.43-14.56-46.35-20.47-67.91-32.16-25.75-2.29-53.22-.44-74.65-17.94-23.02-13.63-52.11-7.13-74.35-21.19-22.78,7.85-46.42-10-70.59-7.15-15.55-11.24-33.25-27.59-55.34-30.3-17.19-6.48-40.5-7.88-42-30.14-15.12-11.33-63.188-12.53-27.63-32.66 17.39,.67 26.64,20.1 44.98,16.85 13.69,16.52 52.89,10.29 51.59,33.09 17.44,8.31 42.52,8.16 55.91,20.47-22.12,.91 12.59,23.04 7.6,1.18 20.23-.44-16.96,24.69 11.66,19.4 22.89,7.92 48.38-1.07 72.11,2.31 16.32,12.13 42.12,9.87 52.56,2.69 7.82,8.76-1.92,19.75 16.43,11.58 16.97,22.19 45.95,26.36 71.55,34.96 19.81,9.83 41.36,22.73 61.11,25.33 3.01-22.03 18.33,24.55-6.05,21.88-21.58-4.59-20.13,24.71-40.03,17.17zm-337.53-68.8c-5.23-7.91-5.87,9.85 0,0zm77.31-61.19c-2.95-11.79-10.95,6.75 0,0zm-10.64-4.39c-9.67-11.34-7.88,10.27 0,0zm-21.91-9.1c-9.34-7.86-4.45,10.47 0,0zm-33.92-11.73c-8.2-11.32-24.78-1.94-3.76,3.61l2.45-.94 1.31-2.67zm-26.91-17.97c-18.26-13.82-2.43,28.79 0,0zm38.45,158.45c2.78-5.98 4.2,6.48 0,0zm365.01-39.88c-25.75-11.89-41.02-39.75-69.55-43.83-19.45-2.8-20.29-18.43-25.89-31.48-27.78,4.67-5.36-28.71 10.81-11.47 20.2,15.25 32.52,38.96 61.03,42.09 8.84,15.2 31.1,23.26 40.02,32.52-10.23-.27-7.13,15.58-16.42,12.17zm41.89-2.24c-11.77-13.85 36.19-35.06 22.93-7.72 .62,9.94-18.18,15.72-22.93,7.72zm-12.87-14.83c-14.36-15.9 3.46-49.81-7.87-72.42-.98-16.55-24.3-55.94-17.56-57.97 5.98,15.82 21.81,26.89 28.74,40.73 .3,23.86 4.13,47.51 7.02,70.94 11.82-18.37 26.41-43.31 6.02-56.88 9.34,19.48 19.26-17.32 19.91,9.46-3.9,23.84-13.63,49.31-27.85,67.96l-3.26-.46-5.15-1.36zm-21.96-38.74c-11.56-10.86-31.53-15.87-35.54-34.33 10.48,18.27 36.85-12.16 10.78-5.44 15.25-22.19 29.35,25.44 32.25,38.28 .62,7.25-5.67,9.1-7.49,1.49zm-277.77-11.92c4.49-14.83 10.41,7.01 0,0zm231.02-33.23c-15.2-25.51 27.65,14.74 0,0zm78.42-21.81c1.28-24.46 5.47,13.87 0,0z"/>
<path fill="#253219" d="m415.73,829.25c-12.53-10.65 1.75,9.1-16.21,3.43-23.5,7.7 7.61-23.64-14.72-21.63-1.73,7.9-6.36,21.68-17.82,17.67 16.13-14.97-4.04-38.72 18.2-45.53-5.52-7.88-37.88-12.47-9.93-12.42 24.27,8.24 28.83-18.87 7.05-25.62-21.03,11.19-3.16-27.27 9.26-9.48 24.98,11.19 51,13.99 78,8.72 11.95-9.99 22.38-11.65 29.25-6.88 8.16-10.53 30.37-9.13 39.8-7.57-5.18,12.71 10.96,10.78 12.26,17.92 3.37-7.58 27.8-50.73 21.23-23.82-12.88,30.97 16.53-19.15 14.26-4.63-7.11,14.22 1.32,23.86 6.16,4.69 2.45-17.59 23.19-7.26 11.19-21.64-3.51-2.76-13.85-35.29 4.03-14.91 17.47-16.86 23.12,24.56 10.82,17.28-8.35-24.18-2.5,36.81-20.26,44.28-16.24,23.57-39.28,42.54-63.82,57.22-28.57,9.37-50.49,24.87-82.38,25.17-12.11-.8-26.29,7.05-36.37-2.25zm81.69-52.78c-10.62-18.81-3.78,7.99 0,0zm2.49-29.69c-8.96-9.73-4.25,17.68 0,0zm-146.08,1.08c10.76-15.21 4.79,13.84 0,0zm197.67-22.28c6.38-18.48 11.49,1.29 0,0zm-20.51-14.06c-21.25,2.48 5.36-19.56-19.12-13.9-13.66,.73-16.01,22.22-36.23,13.64-26.84-7.32-54.28,1.41-78.69-10.62-28.44-9.43-60.47-3.62-87.55-16.44-15.36-10.57-48.96-13.4-51.18-30.57 24.54,1.91 46.2-12.66 72.4-5.72 15.96,1.92 32.71,1.97 38.1,19.39 27.33,10.62 55.44-1.85 83.74,0 24.27,3.95 41.65,20.84 70.79,14.4 18.72,1.68 25.91-10.11 4.68-15.17-26.69-8.36-49.61-29.31-77.97-23.6-24.57-.75-53.65-17.48-68.89-28.27 11.72-6.69 21.64,9.79 33.86-3.61 14.07,3.37 .05,33.26 23.47,15.35 12.92-16.23 30.93,16.98 51.08,14.11 28.55,1.44 51.21,24.29 77.84,30.85 13.11,15.27 8.68-22.09 17.62,3.66 2.06,14.36-8.77,16.93-14.25,11.99 2.42,16.45-30.49,3.45-26.21,25.7-4.56,.88-9.04-.57-13.49-1.19zm-199.53-35.63c-8.12-12.04-9.73,11.71 0,0zm-40.1-11.29c-15.27-12.35-6.03,13.69 0,0zm-41.95,5.7c4.63-7.34 4.63,7.35 0,0zm-18.19-3.14c-6.86-10.24 32.13-25.46 19.12-6.66-6.43,2.46-11.01,10.26-19.12,6.66zm349.63-10.26c-25.76-11.87-41.02-39.74-69.55-43.82-20.72-1.88-32.3-30.43-4.27-30.1 10.91,12.38 30.26,26.91 49.68,28.26 3.98,11.67 50.41,36.04 24.14,45.66zm45.24,.13c-15.03-11.1 9.07-19.16 20-25.29 3.06,12.76-12.53,32.82-20,25.29zm-428.9-5.64c2.79-5.98 4.2,6.48 0,0zm394.66-8.51c4.65-10.13 8.75,9.58 0,0zm17.46-3.46c-10.99-20.36 2.21-54.55-8.21-80.07 .87-13.38 10.91,7.19 9.77,9.94 8.5,17.41 5.33,47.5 7.14,61.85 7.61-7.84 14.16-49.82 22.87-38.95-6.21,14.11-10.81,53.16-31.57,47.23zm-466.82-4.43c2.92-6.97 .82-25.2 15.44-18.96 9.63-.91 22.87,3.35 16.19,11.72 10.43-19.42 32.64,10.61 8.12,5.65-10.02,.19-21.76,2.05-19.99-10.29-8.81-2.21-12.92,15.16-19.76,11.88zm55.02-13.18c5.85-9.94 3.12,9.54 0,0zm-66.74-1.23c-17.94-6.99-30.05-36.89-3.89-20.42 2.24-.55 11.28,31.07 3.89,20.42zm211.87-8.02c7.88-5.79 26.31-9.73 9.25-.67-2.51,.24-6.97,3.74-9.25,.67zm-32.63-4.68c1.17-6.25 7.05,6.47 0,0zm21.45,1.06c2.98-6.19 7.86,4.07 0,0zm256.45-7.84c-9.98-8.1-32.51-20.64-33.68-30.91 13.42,14.86 22.8-13.64 31.9,6.87 4.36,3.26 15.29,42.89 1.78,24.04zm-313.33-1.96c-7.96-4.58-34.02,.34-26.95-13.96 6.05,11.37 51.25,1.6 32.39,17.19l-5.44-3.23zm26.19,3.2c.75-8.69 10.48,7.21 0,0zm-161.39-2.03c2.79-5.97 4.2,6.49 0,0zm76.68-30.17c-16.59,4.72-18.52-15.63-3.75-13.49 2.25,5.19 30.01,22.18 3.75,13.49zm-30.06-7.55c5.69-9.54 12.75,8.47 0,0zm-21.13-7.05c-2.71-9.88-15.64-48.3-.27-23.33 .22,4.62 8.56,26.35 .27,23.33zm13.67-4.52c4.2-11.09 2.09,12.83 0,0zm13.98-3.68c-5.65-17.93 20.42,12.17 0,0zm413.39-.15c-1.77-12.35 10.89,12.08 0,0zm-429.91-12.81c-8.43-17.73 17.89,6.74 0,0zm-32.71-4.78c1.76-14.29 13.12,8.74 0,0zm2.32-13.58c-1.14-10.87 11.77,7.68 0,0z"/>
<path fill="#1c2617" d="m419.82,831.26c-12.11-4.7-15.39-19.73-13.45-24.58-17.85-3.97-28.29,8.45-28.89,17.82-20.18,12.44 8.38-20.01-5.53-31.01 23.1-2 14.84-22.03-4.45-18.41-13.47-11.91 50.56,13.13 38.32-18.64-2.03-12.51-44.14-10.76-21.36-20.42 24.46,6.67 46.42,20.09 72.39,22 10.48,21.23-1.77-7.56 17.24-7.72 10.53-6.79 24.47-20.76 15.17,1.29-4.49,26.46 29.01,.24 11.86-13.37 8.86-3.61 31.62-11.74 33-.73-2.76,13.05 22.17,2.8 9.49,20.15 .29,13.64 13.63-30.47 27.63-18.15 14.82-28.25-1.59,23.7 16.77,8.5 16.65,32.45-51.38,7.93-28.85,36.7-9.86,17.97-36.54,29-55.48,31.13-13.64,11.57-42.13,15.1-65.41,16.14-6.24-.24-12.92,4.28-18.45-.7zm102.78-51.62c-5.9,3.01-19.47-17.84-13.53,1.8 4.08,3.4 9.89,.97 13.53-1.8zm-23.31-1.58c-4.96-20.94-16.23-3.04-.93,1.9l.93-1.9zm-104.43,52.47c5.86-18.98 25.9,10.44 1.9,1.83l-1.42-.77-.48-1.06zm166.11-55.08c1.48-9.67 1.79,7.72 0,0zm-93.23-66.95c-24.05-12.17-50.25,1.11-74.07-12.02-16.44-4.23-37.59-4.88-47.42-14.77-10.55,22.93-56.36-5-34.86-28.07 8.36-8.88 32.45-.01 45.29,2.44 3.92,19.71 30.21,11.08 29.54,31.84 19.43-17.49 47.25-21.47 74.42-17.7 19.17,16.19 45.44,12.44 69.43,14.37 22.49,.7 21.8-15 1.36-19.5-15.05-6.68-41.42-14.83-48.74-22.81 27.48-.15 49.96,18.21 73.12,28.02 11.18,6.22 38.89,10.47 12.5,16.05-16.72,3.44-21.71,26.65-36.25,18.47 6.97-21.43-36.82-7.86-44.24,3.11-6.59,1.39-13.4,.88-20.08,.57zm-52.37-25.47c29.84-13.06-24.04-4.83-3.57,1.19l3.57-1.19zm-83.8-3.8c17.51-17.12-26.4-32.25-6.78-13.99 6.02,1.98-7.99,22.73 6.78,13.99zm287.23,17.89c-6.68-20.8 13.46,7.65 0,0zm-322.58-21.85c-8.13-3.27-48.87-18.11-32.01-18.92 7.66,4.84 47.89-16.96 31.08,3.59-17.26-1.06-10.34,14.99 2.37,7.41 .02,3.95 14.09,16.02-1.44,7.92zm272.06-29.3c-21.25-18.55-41.04-31.68-66.81-40.92-25.41-7.58 10.24-33.37 16.45-8.46 22.05,16.77 59.46,22.87 67.24,52.79-4.03,8.96-12.41-.26-16.88-3.41zm-55.94-48.49c-5.98-10.06-5.1,9.82 0,0zm115.15,54.5c-10.25-15.03 33.2-9.35 6.62,.79l-3.15-.13-3.47-.66zm-200.03-15.24c-8.99-.88-34.46-23.72-13.14-20 4.72,34.69 34-7.33 47.44,14.74 20.83,12.97-21.19,7.88-34.3,5.26zm-242.85-5.63c-9.53-15.78 22.12-.96 0,0zm-19.05-6.08c-1.99-18.81 15.12,9.84 0,0zm443.75-14.99c-3.73-17.69 9.07-20.05 6.86-1.83-.05,11.72-7.65,28.99-6.86,1.83zm16.85,10.97c4.15-16.07 7.45-2 0,0zm-241.2-4.88c-1.64-9.78 9.9,4.47 0,0zm-106.65-19.6c4.45-11.67 11.58,7.74 0,0zm307.69-1.89c-13.11-.18-34.56-23.48-9.93-15.15 7.89-11.26 25.07,30.76 9.93,15.15zm21.44-19.98c4.16-12.25 3.62,14.8 0,0z"/>
<path fill="#171b13" d="m420.45,827.29c-6.35-18.55 22.51,12.45 0,0zm21.03-.52c7.43-7.57 25.37-27.29 2.6-16.71-17.24-20.66-56.48,7.43-65.63-12.57 10.65-15.64 41.81-27.74 29.65-51.51 18.78,11.18 43.69,11.58 59.13,23.9-7.29-15.32 25.52-30.25 16.66-5.76 3.26,17.19 25.23,20.99 10.09,37.85-1.35,19.79-24.99,12.56-33.1,5.62-2.22,8.15-8.56,22.97-19.4,19.18zm26.94-29.32c2.37-15.63 24.27,9.14 10.89-11.6 5.33-16.19-24.07-10.89-8.15-.09-9.09,2.28-14.48,31.78-2.74,11.69zm-37.2-6.05c-8.55-13.39-20.96,14.47 0,0zm14.45-14.89c11.86-17.92-23.33-6.97-6.99,3.5-2.57,9.66 7.29-1.24 6.99-3.5zm40.91,45.01c6.73-10.05 4.06,6.08 0,0zm14.96-9.79c-12.17-15.76 27.18-29.38 31.65-27.6 5.34,12.05 18.31-16.18 21.23,6.54-14.06,9.54-36.15,23.86-52.88,21.06zm13.97-38.58c-7.75-17.82-13.64-44.16 14.3-37.58-7.7,17.91 27.78,8.02 7.16,27.31-6.59,10.04-23.07-14.06-14.42,5.91 2.5,4.1-4.47,6.75-7.04,4.36zm-17.25-2.73c10.44-22.76 18.49,3.26 0,0zm51.37-8.15c3.98-25.31 18.38,3.77 0,0zm25.18-1.17c-31.18-6.47 15.97-15.59 4.7,1.85l-2.83-.55-1.87-1.3zm-190.64-20.06c6.1-2.08 4.99,3.52 0,0zm69.61-39.71c-10.38-10.55-61.57,4.22-29.22-13.84 2.73-6.16 3.67,14.45 13.81,1.39 16.13-.89 31.92,1.27 46.73-4.4 21.33-.73 58.12,11.25 69.2-11.1 30.44,3.01-7.83,32.56-22.69,18.1-28.76-5.57-49.85,27.24-77.83,9.85zm2.64-19.24c-3.12-13.13-28.02-1.22-7.52-9.74 15.12-3.08 31.93,17.34 7.52,9.74zm112.43-38.79c-18.59-9.52-.18-22.04 5.98-4.49 16.46,3.95 5.13,19.74-5.98,4.49zm-18.4-15.2c2.03-25.02 13.65,4.65 0,0zm-32.89-18.71c11.69-4.51-.25,8.54 0,0zm93.61-4.35c2.14-20.41 4.89,20.25 0,0z"/>
</g>
</svg>
