<svg xmlns="http://www.w3.org/2000/svg" viewBox="0 0 394.41 554.93" xmlns:xlink="http://www.w3.org/1999/xlink">
<defs>
<filter width="1.615" x="-.308" y="-.257" height="1.515" id="filter3537">
<feGaussianBlur stdDeviation="13.00579"/>
</filter>
<radialGradient cx="481.38" cy="658.85" gradientTransform="matrix(.78727 -.76553 .73085 .7516 -2624.3 375.08)" id="radialGradient2469" r="189.36" gradientUnits="userSpaceOnUse">
<stop offset="0" stop-color="#fff"/>
<stop offset="1" stop-color="#fff" stop-opacity="0"/>
</radialGradient>
<radialGradient cx="271.67" cy="350.63" gradientTransform="matrix(.73243 .39572 -1.2539 2.3209 -1740.2 -738.91)" id="radialGradient2471" r="197.21" gradientUnits="userSpaceOnUse">
<stop offset="0" stop-color="#fff"/>
<stop offset="1" stop-color="#fff" stop-opacity="0"/>
</radialGradient>
<radialGradient cx="457.13" cy="397.86" gradientTransform="matrix(-.62972 -1.4636 1.4405 -.6198 -2064.3 1124.5)" id="radialGradient2473" r="197.21" gradientUnits="userSpaceOnUse">
<stop offset="0" stop-color="#001651" stop-opacity=".871"/>
<stop offset="1" stop-color="#0041f1" stop-opacity="0"/>
</radialGradient>
</defs>
<g fill-rule="evenodd" color="#000" transform="translate(2100.5 -31.41)">
<path opacity=".699" fill="#0041f1" fill-opacity=".526" d="m-1706,394.51c0,105.89-88.4,191.84-197.2,191.84-108.9,0-199.2-85.97-197.2-191.84 2.6-142.02 111.1-199.87 197.2-363.1 91.4,157.88 197.2,257.2 197.2,363.1z"/>
<path opacity=".699" fill="url(#radialGradient2469)" d="m-1712.9,394.06c0,101.68-84.8,184.2-189.3,184.2s-191.3-82.54-189.3-184.2c2.5-136.36 106.6-191.91 189.3-348.64 87.8,151.59 189.3,246.96 189.3,348.64z"/>
<path opacity=".699" fill="url(#radialGradient2471)" d="m-1716.1,390.12c0,100.47-83.9,182.01-187.1,182.01-103.3,0-189-81.56-187.1-182.01 2.5-134.74 105.4-189.63 187.1-344.49 56.1,499.6 187.1,244.02 187.1,344.49z"/>
<path opacity=".699" fill="url(#radialGradient2473)" d="m-1706,394.51c0,105.89-88.4,191.84-197.2,191.84-108.9,0-199.2-85.97-197.2-191.84 2.6-142.02 111.1-199.87 197.2-363.1 91.4,157.88 197.2,257.2 197.2,363.1z"/>
<path opacity=".823" fill="#fff" filter="url(#filter3537)" fill-opacity=".801" d="m735.71,328.33a55,35 0 1,1 -110,0 55,35 0 1,1 110,0z" transform="matrix(.41702 -.49235 .48517 .41724 -2440.8 431.47)"/>
</g>
</svg>
