<svg xmlns="http://www.w3.org/2000/svg" viewBox="0 0 565 684" xmlns:xlink="http://www.w3.org/1999/xlink">
<path fill="#fff" d="m0,0v684h565v-684h-565z"/>
<path fill="#a39a79" d="m329,10c-11.62,30.788-17.68,64.356-26.71,96-8.59,30.09-21.11,61.99-25.29,93h3c-3.58,17.34-8.76,18.72-25,15l6-24-62-15.85-134-35.15-3,10-6,21c21.757,9.05 46.46,11.5 69,18.39 25.75,7.87 54.48,17.91 81,21.69 11.81,1.69 23.32,6.6 35,9.11 3.74,.81 10.91,4.89 12-.19 5.49,2.07 15.91,2.4 17.97,9.02 1.47,4.75-1.9,11.33-2.97,15.98l-23-7c-1.33,2.98-1.83,8.12-5.16,9.52-6.15,2.6-22.59-2.22-24.84,5.48h-10v1h10c0,43.03-4.02,84.18-14.48,126-5.31,21.26-15.85,42.65-19.52,64h-4v1h3l-1,4 48,3.96 95,.04 53-4 2-4v-1c-5.29-1.59-6-6.24-7.81-11-3.86-10.2-7.53-20.45-10.31-31-11.66-44.38-20.88-88.91-20.88-135l113.91,30.2 39.09,10.8 8-33-198-52-1,4c-6.27-1.78-17.3-2.67-17.83-11-.29-4.55 2.22-9.47 2.83-14l24,6 9.72-36 26.75-99.09 14.53-53.91-31-8z"/>
<path fill="#fff" d="m330,14l-2,9h1l1-9m6,1l-2,9c2.79-2.256 3.28-5.711 2-9m4,1c-2.33,6.235-1.84,9.49 5,11l2-9-7-2m9,3l-2,9 8,2 2-10-8-1m-22,6l-2,9h1l1-9m6,2l-2,9h1l1-9m3,1l-2,9c7.19,.885 9.01-.711 10-8l-8-1m10,2l-2,9 8,2 2-9-8-2m-22,7l-3,9 3-9m6,1l-2,9h1l1-9m3,1l-2,9 8,2 2-9-8-2m10,2l-2,10 8,1 2-9-8-2m-23,7l-2,9 4-9h-2m7,2l-2,9h1l1-9m3,0l-2,10 8,1 2-9-8-2m10,3l-2,9 7,2 3-9-8-2m-23,6l-2,10h1l1-10m7,2l-2,9h1l1-9m3,1l-2,9 8,2 2-9-8-2m10,2l-3,10c7.58,.932 8.74-.946 11-8l-8-2m-23,7l-2,9h1l3-9h-2m6,2l-2,9 4-9h-2m4,0l-2,10c7.04,1.229 8.2-1.678 10-8l-8-2m10,3l-3,9 8,2c1.77-6.306 2.02-9.45-5-11m-23,6l-2,10h1l1-10m6,2l-2,9 4-9h-2m4,1c-2.33,6.235-1.84,9.49 5,11 2-6.314 2.03-9.449-5-11m9,3l-2,9 8,2 2-10-8-1m-22,6l-2,9h1l1-9m6,2l-2,9h1l1-9m3,1l-2,9 8,2 2-10-8-1m10,2l-2,9 8,2 2-9-8-2z"/>
<path fill="#635038" d="m302,104l1,1-1-1z"/>
<path fill="#fff" d="m304,106l-2,9 4-9h-2m7,1l-2,10h1l1-10m3,1l-2,9 8,2 2-9-8-2m10,3l-2,9 8,2 2-10-8-1m-23,6l-2,9 4-9h-2m7,2l-2,9h1l1-9m3,1l-2,9 8,2 2-10-8-1m10,2l-2,10 8,1 2-9-8-2m-23,7l-2,9h1l3-9h-2m7,2l-3,9 3-9m3,0l-2,10 8,1 2-9-8-2m10,3c-2,6.31-2.03,9.45 5,11 2.26-6.04 1.98-9.88-5-11m-23,6l-2,10h1l1-10m6,2l-2,10h1l3-10h-2m-234,1l-1,7 10,2c.838-7.28-1.935-8.69-9-9m238,0l-2,10c9.42,1.08 11.58-7.88 2-10m-227,10l10,2 1-7c-6.111-1.93-9.848-2.16-11,5m236-7l-2,9 8,2 2-10-8-1m-224,10l10,2c1.62-9.25-8.477-11.48-10-2m-25-4l-2,7 10,3 2-8-10-2m39,0c-2.96,7.19 1.34,8.71 8,9l1-7-9-2m188,0l-2,10h1l1-10m6,2l-2,9h1l1-9m-221,1l-2,8 10,2 1-8-9-2m39,0c-2.84,6.9 .82,8.24 7,10l2-8-9-2m185,0l-2,9 8,2 2-10-8-1m10,2l-2,10 8,2 2-10-8-2m-222,1l-2,8 10,2 1-8-9-2m39,0l-2,8 10,2 1-8-9-2m-66,3c2.287,3.63 5.92,3.82 10,4v-1l-10-3m39,0l-2,8 10,2c1.23-7.06-1.77-8-8-10m39,0l-2,8 10,2c.81-7.06-1.5-8.15-8-10m148,3l-2,9 4-9h-2m-214,1v2l10,1-10-3m37,7l10,2 2-7c-6.34-1.78-10.77-2.66-12,5m40-7l-1,7 10,2c1.27-7.3-2.15-8.7-9-9m144,1l-2,9h1l1-9m3,0l-2,10 8,2 2-10-8-2m-212,2l10,3-10-3m37,7l10,3 2-8c-6.59-1.36-10.31-2.64-12,5m39,0l10,2 2-7c-6.36-1.31-10.75-2.77-12,5m146-6l-2,10 8,1 2-9-8-2m-210,2l10,4-10-4m37,7l10,3 2-8c-6.63-.97-10.27-2.84-12,5m49,3l2-8c-12.31-2.54-14.21,4.56-2,8m-109.33-8.67l.666,.34-.666-.34m4,1l.666,.34-.666-.34m31.333,.67l10,4v-1l-10-3m39,0l-2,7 10,3 2-8-10-2m39,0l-2,7 10,3 2-8-10-2m-98.333,2.33l.666,.34-.666-.34m195.33-.33l-2,9h1l3-9h-2m-163,1l10,4v-1l-10-3m39,0l-2,8 10,2 2-7-10-3m39,0l-2,8 10,2 2-7-10-3m92,0l-3,10c3-2.28 4.09-6.42 3-10m-194.33,1.33l.666,.34-.666-.34m197.33-.33l-2,10 8,1 2-9-8-2m-161,2l10,5-10-5m39,0l-2,8 10,2 2-7-10-3m39,0l-2,8 10,2 2-7-10-3m-103.33,1.33l.66,.34-.66-.34m196.33-.33c-1.77,6.31-2.02,9.45 5,11l3-9-8-2z"/>
<path fill="#2a2522" d="m255,214c9.84,2.07 18.66-20.89 21-29h1l3,4c-.73-9.57-7.38-4.14-12-.05-8.44,7.48-10.89,14.16-13,25.05z"/>
<path fill="#fff" d="m116.67,183.33l.66,.34-.66-.34m29.33,.67v1l10,3-10-4m37,7c6.62,1.51 10.14,2.62 12-5-6.57-1.85-10.19-2.44-12,5m39,0l10,2 2-7c-6.57-1.85-10.19-2.44-12,5z"/>
<path fill="#74696e" d="m276,185l-16,31c14.28,1.92 18.06-2.6 20-17h-3c1.08-5.25 2.81-9.56-1-14z"/>
<path fill="#fff" d="m127.67,186.33l.66,.34-.66-.34m30.33,.67l10,4-10-4m39,0l-2,7c6.57,1.85 10.34,2.52 12-5l-10-2m37,7c6.57,1.85 10.34,2.52 12-5-6.85-1.56-9.78-2.5-12,5z"/>
<path fill="#2a2522" d="m282,187l-1,7h1v-7z"/>
<path fill="#fff" d="m135.67,188.33l.66,.34-.66-.34m153.33,.67l-1,3 1-3m-119,1l10,4-10-4m39,0l-2,7 10,3 2-8-10-2m39,0l-2,7 10,3 2-8-10-2m44,0c-.86,5.22 1.78,7.33 6,10l2-8-8-2m-145.33,1.33l.66,.34-.66-.34m4,1l.66,.34-.66-.34z"/>
<path fill="#2a2522" d="m288,192l-2,7h1l1-7z"/>
<path fill="#fff" d="m182,193l10,4v-1l-10-3m39,0l-1,8 9,2 2-8-10-2z"/>
<path fill="#74696e" d="m280,193v4h1l-1-4z"/>
<path fill="#fff" d="m299,202l8,2 3-10c-7.58-.93-8.74,.95-11,8m-137.33-6.67l.66,.34-.66-.34z"/>
<path fill="#2a2522" d="m291,195l-1,5 7,1-6-6z"/>
<path fill="#fff" d="m194,196l10,5-10-5m39,0l-2,8 11,2c.85-7.41-2.16-8.43-9-10m-63.33,1.33l.66,.34-.66-.34m11,3l.66,.34-.66-.34m25.33-.33v1l10,3-10-4m39,0l-1,7 10-5-9-2m-60.33,1.33l.66,.34-.66-.34z"/>
<path fill="#74696e" d="m285,201c-2.94,14.19-4.63,22.46 13,24l-11-24h-2z"/>
<path fill="#fff" d="m188.67,202.33l.66,.34-.66-.34z"/>
<path fill="#2a2522" d="m245,207l9,2 1-7-10,5m41-5c2.94,7.07 7.54,19.77 14,24l1-4 44,12c-5.77-20.02-39.63-31.6-59-32z"/>
<path fill="#fff" d="m192,203l1,1-1-1m26,0v1l11,2-11-3m-18.33,2.33l.66,.34-.66-.34m30.33,1.67v1l11,1-11-2m-22.33,.33l.66,.34-.66-.34z"/>
<path fill="#2a2522" d="m239,209l1,1-1-1m3,1l11,3-11-3z"/>
<path fill="#fff" d="m218.67,210.33l.66,.34-.66-.34m4,1l.66,.34-.66-.34z"/>
<path fill="#2a2522" d="m234,214l1,1-1-1m3.67,1.33l.66,.34-.66-.34m-22.67,36.67c4.89-7.99 18.21-1.93 25.57-5.6 2.93-1.47 3.52-6.57 4.43-9.4l3,2 10-19-5-1c-4.11,5.57-19.6-3.35-26-2.88-12.21,.9-16.08,12.53-20.75,21.88-1.46,2.92-5.55,8.37-3.43,11.68 2.2,3.46 8.72,2.32 12.18,2.32m26.67-35.67l.66,.34-.66-.34m3.33,.67l1,1-1-1m4,1l1,1-1-1z"/>
<path fill="#74696e" d="m248,239l20,5c1.46-4.57 4.54-11.14 3.4-15.98-1.11-4.69-9.59-8.61-13.87-5.98-4.52,2.78-7.78,12.16-9.53,16.96z"/>
<path fill="#2a2522" d="m302,226v1l11,2-11-3z"/>
<path fill="#74696e" d="m273,245h22l4-14c-17.21-3.55-20.95-3.78-26,14z"/>
<path fill="#2a2522" d="m315,228l10,4v-1l-10-3m-13.33,4.33l.66,.34-.66-.34m25.33-.33v1l10,3-10-4m-21.33,1.33l.66,.34-.66-.34m2.33,.67v1h3l-3-1z"/>
<path fill="#74696e" d="m300,235l-2,7 10,3c-.95-4.9-3.07-8.55-8-10z"/>
<path fill="#2a2522" d="m313.67,235.33l.66,.34-.66-.34m25.33-.33v1l9,3-9-4m-35,1l4,7 2-6-6-1m12,0v1h3l-3-1m4.67,1.33l.66,.34-.66-.34z"/>
<path fill="#fff" d="m347,237l2,2v-2h-2z"/>
<path fill="#2a2522" d="m312,238l-2,7 11,2 1-7-10-2m13,0l1,1-1-1z"/>
<path fill="#fff" d="m351,238l10,4-10-4z"/>
<path fill="#2a2522" d="m327,239v1h3l-3-1m4,1v1h3l-3-1z"/>
<path fill="#74696e" d="m246,241l-1,4 9-1-8-3z"/>
<path fill="#2a2522" d="m324,241l-1,7h11c-.89-5.34-5.25-5.91-10-7z"/>
<path fill="#fff" d="m363,241l10,4-10-4z"/>
<path fill="#2a2522" d="m339.67,242.33l.66,.34-.66-.34z"/>
<path fill="#74696e" d="m256,243l5,2v-1l-5-1z"/>
<path fill="#2a2522" d="m343.67,243.33l.66,.34-.66-.34m2.33,.67l1,1-1-1z"/>
<path fill="#fff" d="m375,245l11,3-11-3z"/>
<path fill="#2a2522" d="m245,245v1h8l-8-1m10,0v1h9l-9-1m21,0v1h19l-19-1m21,0v1h4l-4-1m39,0l2,7c4.68-.06 7.09-.49 9-5l-11-2m14,0l1,1-1-1z"/>
<path fill="#fff" d="m351.67,245.33l.66,.34-.66-.34z"/>
<path fill="#2a2522" d="m244,246l1,1-1-1z"/>
<path fill="#fff" d="m354.67,246.33l.66,.34-.66-.34m4,1l.66,.34-.66-.34z"/>
<path fill="#2a2522" d="m348,252l4-4-4,4z"/>
<path fill="#fff" d="m362.67,248.33l.66,.34-.66-.34m25.33-.33v1l10,3-10-4m-41,5v2l10,3 2-8-12,3m18-4v1h3l-3-1m4,1v1h3l-3-1m-8,1l-2,7 10,3 2-8-10-2m39,0v1l10,3-10-4z"/>
<path fill="#74696e" d="m347.67,252.33l.66,.34-.66-.34z"/>
<path fill="#fff" d="m377.67,252.33l.66,.34-.66-.34m-36.67,.67v1h4l-4-1m40.67,.33l.66,.34-.66-.34m-8.67,.67l-2,8 11,2 1-8-10-2m39,0l10,4-10-4m-74,1c.03,7.38 3.99,11.12 6,2l-6-2m50.67,.33l.66,.34-.66-.34m4,1l.66,.34-.66-.34m-46.67,.67l-2,8 11,2 1-7-10-3m39,0l-1,8 10,2c1.32-7.59-2.46-8.16-9-10m39,1l11,3-11-3m-25,0v1h3l-3-1m4,1v1h3l-3-1z"/>
<path fill="#2a2522" d="m371,260l1,1-1-1z"/>
<path fill="#fff" d="m358,261c-1.32,7.59 2.46,8.16 9,10 .94-7.65-1.34-9.37-9-10m39,0l-1,7 10,3 2-8-11-2m14.67,.33l.66,.34-.66-.34m25.33-.33v1l10,3-10-4m-21.33,1.33l.66,.34-.66-.34m2.33,.67v1h3l-3-1m-48,1c-.86,7.45 2.09,8.57 9,10l2-8-11-2m38,7l10,3 2-8c-6.59-1.36-10.31-2.64-12,5m15.67-6.67l.66,.34-.66-.34m25.33-.33v1l10,3-10-4m-22.33,1.33l.66,.34-.66-.34m4,1l.66,.34-.66-.34m-47.67,.67l-2,8 10,2 2-7-10-3m39,0l-2,7 11,3 1-8-10-2m39,0l10,4-10-4m-24,1v1h3l-3-1m4,1v1h3l-3-1m-46,1l-2,8 11,2c.88-7.61-2.25-8.1-9-10m39,0l-1,8 10,2c1.29-7.4-2.37-8.48-9-10m39,1l11,3-11-3z"/>
<path fill="#635038" d="m484,270l1,1-1-1z"/>
<path fill="#fff" d="m449.67,271.33l.66,.34-.66-.34m4,1l.66,.34-.66-.34m32.33,.67l10,5-10-5m-79,1c-1.32,7.59 2.46,8.16 9,10 .94-7.65-1.34-9.37-9-10m39,0l-1,7c6.78,1.91 9.84,2.31 12-5l-11-2m14.67,.33l.66,.34-.66-.34m4,1l.66,.34-.66-.34m4,1l.66,.34-.66-.34m-49.67,.67c-.85,7.41 2.16,8.43 9,10l2-8-11-2m40,0l-2,7 10,3 2-8-10-2m13.67,.33l.66,.34-.66-.34m2.33,.67v1h3l-3-1m4.67,1.33l.66,.34-.66-.34m-47.67,.67l-2,8 10,2 2-7-10-3m39,0l-1,8 10,2 1-8-10-2m16.67,1.33l.66,.34-.66-.34m4,1l.66,.34-.66-.34m-47.67,.67l-2,8 11,2c.88-7.61-2.25-8.1-9-10m39,0l-1,8 10,2c1.3-7.44-2.3-8.61-9-10m-27,3c-.99,8.01 1.63,8.91 9,11l2-8-11-3m11,11l10,3 2-8c-6.59-1.36-10.31-2.64-12,5z"/>
<path fill="#2a2522" d="m441,293l1,1-1-1z"/>
<path fill="#fff" d="m481,293l-2,8 10,2 2-8-10-2z"/>
<path fill="#74696e" d="m245,319l-2,9 4-9h-2m-9,36l-2,7h1l1-7m-7,24l-3,10 5-10h-2z"/>
<path fill="#eedfa9" d="m158,445v2l22-1v-2l-22,1z"/>
<path fill="#74696e" d="m163,444v1h9l-9-1z"/>
<path fill="#eedfa9" d="m374,444v2l22,1-22-3z"/>
<path fill="#a39a79" d="m382,444v1h9l-9-1z"/>
<path fill="#635038" d="m142,455c7.13-1.7 13.26-2.12 16-10-6.81,.2-12.89,3.86-16,10z"/>
<path fill="#a39a79" d="m395,445v10h1l1-8h6l-8-2z"/>
<path fill="#fff" d="m158,447l1,8 33,3c-.34-4.36-1.64-5.66-6-6v-4l-28-1m216-1l1,2h-7l-6,10 33-3 1-8-22-1z"/>
<path fill="#74696e" d="m157,447l1,8h-6l1-3-10,2v1l20,1v-1h-4l-2-8z"/>
<path fill="#635038" d="m397,447c2.96,6.16 8.39,8.9 15,7-4.6-4.95-8.26-6.98-15-7z"/>
<path fill="#2a2522" d="m186,448v4c46.37,0 93.44,8.85 140,3.28 10.3-1.23 20.72-1.5 31-2.86 4.52-.59 9.34,.59 11-4.42-60.21,4.75-121.85,7.6-182,0z"/>
<path fill="#eedfa9" d="m156,449l-2,6h4l-2-6m241,0l-1,6h5v1l-41,3v-1l3-6h-5c-.63,3.32-1.94,6.16 2,7v1c-48.99,0-100.11,7.18-149,1l5,3 1,17-22-2v-1h4l-1-12h4v-3h8v-2l-16-1v-1h3v-7h-5l2,6v1l-53-5 3,3c-1.47,13.68 3.39,33.72 7,47 9.04,.11 10.14,6.66 13.44,14 5.26,11.73 11.07,23.24 16.28,35 2.17,4.91 3.81,12.18 9.28,14l7-54c-6.08,3.94-5.94,23.03-6,30h-1l-16-36 48,7-3-50h56v17h-53v7h53v18h-51l1,7c26.34,0 52.66,.72 78.96-.05 9.34-.27 22.83,3.89 26.04-6.95h-52v-18h53v-7h-53v-17h56l-3,50 26-4 7,58c4.6-3.12 7.22-10.94 9.42-16 4.71-10.8 9.69-21.57 14.81-32.17 4.07-8.4 4.02-15.73 14.77-15.83 .68-15.79 3.58-35.69 10-50l-12,1 1-3-5-3z"/>
<path fill="#fff" d="m153,451l-1,4 1-4z"/>
<path fill="#74696e" d="m191,452l1,1-1-1z"/>
<path fill="#fff" d="m349,453l1,6h7l1-7-9,1m-152,0v6c4.68-.16 6.45-1.22 7-6h-7z"/>
<path fill="#635038" d="m204,453l-1,6 35,2h66l35,1c2.17-1.65 13.96-2.23 9.95-7.39-1.81-2.33-6.49-.78-8.95-.65-9.03,.5-17.93,2.04-27,2.04-36.56,0-72.6-.13-109-3z"/>
<path fill="#74696e" d="m362,453l1,1-1-1z"/>
<path fill="#a39a79" d="m401,454v1h4l-4-1z"/>
<path fill="#74696e" d="m391,455v1h10l-10-1z"/>
<path fill="#a39a79" d="m163,456v1h10l-10-1m218,0v1h9l-9-1z"/>
<path fill="#74696e" d="m173,457v1h10l-10-1m197,0v1h10l-10-1z"/>
<path fill="#a39a79" d="m410,457v3h1l-1-3m-251,1l2,11h1l-3-11z"/>
<path fill="#fff" d="m160,458c1.71,7.83 11,4.23 17,4v-2l-17-2z"/>
<path fill="#74696e" d="m183,458v1h11l-11-1m177,0v1h10l-10-1z"/>
<path fill="#fff" d="m376,460v2c6.16,.13 16.23,4.11 18-4l-18,2z"/>
<path fill="#a39a79" d="m394,458l-2,11h1l1-11m-251,1v4h1l-1-4z"/>
<path fill="#74696e" d="m194,459v1h10l-10-1m155,0v1h11l-11-1z"/>
<path fill="#a39a79" d="m204,460v1l8,2 2-2-10-1m135,0v1h10l-10-1m-125,1v1h124c-10.03-4.21-27.1-1-38-1h-86m185.33,1.67l.34,.66-.34-.66m9.67-.67v4h1l-1-4m-254.67,1.67l.34,.66-.34-.66z"/>
<path fill="#635038" d="m202,463l-2,15 17,2-1-16-14-1m135,1l-1,16 22-1v-1h-5l-2-15-14,1m-177,0l-9,10c6.77-.02 12.7-2.22 9-10z"/>
<path fill="#a39a79" d="m219,464l3,50h3l-4-50h-2z"/>
<path fill="#635038" d="m221,464l1,17h53v-17h-54m57,0v4h6l-6-4z"/>
<path fill="#74696e" d="m281,464l3,4h-6v1l1,4 6,2h1c5.44-4.12 16.35-2 23-2v4h1l1-11-1,3 3,3 7-4v-1h-8l3-2-34-1z"/>
<path fill="#2a2522" d="m312,467h8v1l-7,4-3-3 1-3-1,11h-1v-4c-5.72,0-19.1-2.46-23,2h-1l-6-2 1-4-2,12h51v-2h-5v-6h5v4h1v-9h-4v-3h6c-4.94-2.07-16.52-2.57-20,2z"/>
<path fill="#a39a79" d="m332,464l-4,50c4.66-1 2.75-7.09 3.39-11 2.05-12.49 2.61-26.33 2.61-39h-2z"/>
<path fill="#635038" d="m393,464c-.56,8.39 2.18,9.13 10,9l-10-9z"/>
<path fill="#a39a79" d="m144,465v4h1l-1-4z"/>
<path fill="#635038" d="m326,465v3h4v9h-1v-4h-5v6l7,2 1-16h-6z"/>
<path fill="#fff" d="m198,466l1,12h1l2-12h-4z"/>
<path fill="#2a2522" d="m296,466v1l8,1v-2h-8z"/>
<path fill="#fff" d="m352,466l1,12h2l1-12h-4m-168,2l1,9h9l-1-10-9,1m177-1l-1,11 8-1 1-9-8-1m-199,3v4l17,2-1-8-16,2m213-2l-1,8 18-2v-4l-17-2z"/>
<path fill="#a39a79" d="m408,468v4h1l-1-4z"/>
<path fill="#74696e" d="m164,469l1,1-1-1z"/>
<path fill="#2a2522" d="m251,469v3h6l-6-3m31,0v3h6v-3h-6z"/>
<path fill="#635038" d="m288,469v3h12v-3h-12z"/>
<path fill="#2a2522" d="m301,469v2h5v-2h-5z"/>
<path fill="#a39a79" d="m145,471v4h1l-1-4m16,0l-1,4h6v-1l-5-3m231,0l-4,3v1h6l-2-4z"/>
<path fill="#74696e" d="m396,473v1h6l-6-1z"/>
<path fill="#a39a79" d="m407,474v4h1l-1-4z"/>
<path fill="#74696e" d="m169,475v1h6l-6-1m210,0v1h6l-6-1m-4.33,1.33l.66,.34-.66-.34z"/>
<path fill="#a39a79" d="m146,477v4h1l-1-4m40,0v1h7l-7-1m175,0v1h6l-6-1m-166,1v1h7l-7-1z"/>
<path fill="#74696e" d="m204,479v1h6l-6-1z"/>
<path fill="#a39a79" d="m343,479v1h6l-6-1m-130,1v1h4l-4-1z"/>
<path fill="#74696e" d="m336,480v1h4l-4-1z"/>
<path fill="#a39a79" d="m406,480v4h1l-1-4m-248.67,1.67l.34,.66-.34-.66m233.67-.67l-4,5v1h4v-6m-229,1l1,5h4v-1h-3l-2-4z"/>
<path fill="#fff" d="m164,482v4l15-2-15-2m210,1v1l16,2v-4l-16,1z"/>
<path fill="#a39a79" d="m147,483v4h1l-1-4z"/>
<path fill="#635038" d="m155,497l28,4-2-17c-11.43,2.35-19.47,2.19-26,13m31-13c.82,4.42 .28,12.85 3.03,16.41 4.06,5.27 23.55,4.78 29.97,5.59l-1-18-32-4m149,4l-1,18 31-4 2-18-32,4m38-4l-2,17 27-4c-5.03-11.3-14.24-10.79-25-13z"/>
<path fill="#74696e" d="m168,485v1h9l-9-1z"/>
<path fill="#a39a79" d="m377,485v1h9l-9-1m28,1v4h1l-1-4z"/>
<path fill="#635038" d="m223,488l1,18h51v-18h-52m55,0v18h51l1-18h-52z"/>
<path fill="#a39a79" d="m148,489v4h1l-1-4m256,3v4h1l-1-4z"/>
<path fill="#2a2522" d="m298,493v2h11v-2h-11z"/>
<path fill="#a39a79" d="m149,495v4h1l-1-4m254,3v4h1l-1-4m-253,3v3h1l-1-3z"/>
<path fill="#fff" d="m164,506l24,52c5.71-9.59-10.14-32.93-14.78-42-2.33-4.55-3.79-9.12-9.22-10m200,52l8.86-16 16.14-36c-5.52,1.73-7.38,8.12-9.74,13-6.12,12.64-13.57,24.98-15.26,39m-190-51l16,36h1c.16-7.96 .19-24.32 6-30-1.93-5.81-17.25-5.88-23-6m185,2l4,34h1l16-36-21,2z"/>
<path fill="#635038" d="m197,510c-4.59,36.35-9.5,72.67-14.28,109-1.18,9-2.66,17.98-3.67,27-.32,2.87-1.94,7.74-.02,10.27 2.94,3.88 14.39,4.92 18.97,6.1 17.96,4.62 34.36,9.63 53,9.63v-132h51c0,5.32-.88,10.9 6,10l-6,2v45h5v2h-5v30l6-1-6,3v41c25.79,0 48.98-9.82 74-15l-13.28-101-5.72-46-45,3 2,64h-4l-2-41-10-1 1-5h4l1,4 4-1-1-20h-60l-4,64h-4l3-64-45-3z"/>
<path fill="#fff" d="m307,512l3,65h4l-1.91-45-1.09-20h-4m-65,1l-3,64h4l4-64h-5z"/>
<path fill="#a39a79" d="m307.33,521.67l.34,.66-.34-.66z"/>
<path fill="#2a2522" d="m269,523v1h12v-2l-12,1z"/>
<path fill="#a39a79" d="m245.33,525.67l.34,.66-.34-.66z"/>
<path fill="#2a2522" d="m268,527v1h9v-2l-9,1m31,3l-1,5c3.48,1.27 9.04,2.5 10-2l-4,1-1-4h-4m-25,3v3h10v-2l-10-1z"/>
<path fill="#eedfa9" d="m206,535v34c0,4.1-1.28,10.83 .6,14.57 2.57,5.09 20.45,7.31 22.4,1.43l-19-3v-20l21,3v-3l-21-3v-20c6.01,.76 18.56,.67 22,6h1v-6l-27-4z"/>
<path fill="#2a2522" d="m264,538v2h11l-11-2m-54,1v20l21,3 1-20-22-3z"/>
<path fill="#eedfa9" d="m251,540v126h51v-126h-51z"/>
<path fill="#a39a79" d="m308.33,542.67l.34,.66-.34-.66m-64,6l.34,.66-.34-.66z"/>
<path fill="#2a2522" d="m261,550v20h31v-20h-31m41,0c1.95,2.23 4.05,2.23 6,0h-6m-92,12v20l19,3 1-14 5,1-5-3 1-4-21-3m51,11v20h31v-20h-31m-59,14l26,5c-1.03-4.82-23.96-9.31-26-5z"/>
<path fill="#635038" d="m227,586l1,1-1-1z"/>
<path fill="#2a2522" d="m302,597v2h5v-2h-5m0,34c3.19-.01 5.27,.4 6-3l-6,3m-66-2v2h8v-2h-8m0,32v2h9v-2h-9z"/>
</svg>
