<svg xmlns="http://www.w3.org/2000/svg" viewBox="0 0 256 256" xmlns:xlink="http://www.w3.org/1999/xlink">
<defs>
<filter id="filter4468">
<feGaussianBlur stdDeviation="3.89583"/>
</filter>
<filter width="1.075" x="-.037" y="-.15" height="1.3" id="filter4307">
<feGaussianBlur stdDeviation=".625"/>
</filter>
<linearGradient gradientTransform="translate(29.931)" id="linearGradient2989" xlink:href="#linearGradient2917" x1="131.01" gradientUnits="userSpaceOnUse" x2="139.07"/>
<linearGradient id="linearGradient2980" xlink:href="#linearGradient2917" y1="837.36" y2="842.36" gradientUnits="userSpaceOnUse" x2="0"/>
<linearGradient id="linearGradient2917">
<stop offset="0" stop-color="#f2f2f2"/>
<stop offset="1" stop-color="#4d4d4d"/>
</linearGradient>
<linearGradient gradientTransform="matrix(1.4167 0 0 1.4167 -8.625 -336.82)" id="linearGradient4414" y1="1037.4" y2="822.13" gradientUnits="userSpaceOnUse" x2="0">
<stop offset="0" stop-color="#6f6f91"/>
<stop offset="1" stop-color="#dbdbe3"/>
</linearGradient>
<mask maskUnits="userSpaceOnUse" id="mask2985">
<path fill="url(#linearGradient2989)" fill-rule="evenodd" d="m164.93,837.59c-2.4114,0-4.3671,1.8017-4.6875,4.125 .5611-.3131 1.239-.6438 2-.75 .9367-.1308 1.9598,.1152 2.6562,1.125 .2908,.4216 .6423,.6284 1.0312,.7188 .3889,.0903 .8241,.0355 1.2812-.0937 .8636-.2442 1.7622-.7811 2.4062-1.25-.4264-2.1972-2.3637-3.875-4.6875-3.875z"/>
</mask>
<mask maskUnits="userSpaceOnUse" id="mask2976">
<path fill="url(#linearGradient2980)" fill-rule="evenodd" d="m135,837.59c-2.4114,0-4.3671,1.8017-4.6875,4.125 .5611-.3131 1.239-.6438 2-.75 .9367-.1308 1.9598,.1152 2.6562,1.125 .2908,.4216 .6423,.6284 1.0312,.7188 .3889,.0903 .8241,.0355 1.2812-.0937 .8636-.2442 1.7622-.7811 2.4062-1.25-.4264-2.1972-2.3637-3.875-4.6875-3.875z"/>
</mask>
<radialGradient fy="109.03" cx="225" cy="106" gradientTransform="matrix(1.0001 0 0 1.0125 -.01854 -1.3257)" id="radialGradient4236" r="5" gradientUnits="userSpaceOnUse">
<stop offset="0" stop-color="#ffd5d5"/>
<stop offset=".58" stop-color="#f00"/>
<stop offset="1" stop-color="#800000"/>
</radialGradient>
<radialGradient fy="109.03" cx="225" cy="106" gradientTransform="matrix(1.0001 0 0 1.0125 -.01854 -1.3257)" id="radialGradient4238" r="5" gradientUnits="userSpaceOnUse">
<stop offset="0" stop-color="#fff6d5"/>
<stop offset=".58" stop-color="#fc0"/>
<stop offset="1" stop-color="#a80"/>
</radialGradient>
<radialGradient fy="109.03" cx="225" cy="106" gradientTransform="matrix(1.0001 0 0 1.0125 -.01854 -1.3257)" id="radialGradient4240" r="5" gradientUnits="userSpaceOnUse">
<stop offset="0" stop-color="#e5ffd5"/>
<stop offset=".58" stop-color="#6f0"/>
<stop offset="1" stop-color="#338000"/>
</radialGradient>
</defs>
<g fill-rule="evenodd" transform="translate(0 -796.36)">
<path filter="url(#filter4468)" d="m26.792,842.36h205.42c3.9242,0 7.0834,3.1592 7.0834,7.0834v155.83c0,3.9242-3.1592,7.0835-7.0834,7.0835h-205.42c-3.9242,0-7.0834-3.1593-7.0834-7.0835v-155.83c0-3.9242 3.1592-7.0834 7.0834-7.0834z"/>
<path fill="url(#linearGradient4414)" d="m26.792,842.36h205.42c3.9242,0 7.0834,3.1592 7.0834,7.0834v155.83c0,3.9242-3.1592,7.0835-7.0834,7.0835h-205.42c-3.9242,0-7.0834-3.1593-7.0834-7.0835v-155.83c0-3.9242 3.1592-7.0834 7.0834-7.0834z"/>
<g filter="url(#filter4307)" transform="matrix(1.4167 0 0 1.4167 -93.625 -421.82)">
<path fill="url(#radialGradient4236)" d="m230,106c0,2.7614-2.2386,5-5,5s-5-2.2386-5-5 2.2386-5 5-5 5,2.2386 5,5z" transform="translate(0 796.36)"/>
<path fill="url(#radialGradient4238)" d="m230,106c0,2.7614-2.2386,5-5,5s-5-2.2386-5-5 2.2386-5 5-5 5,2.2386 5,5z" transform="translate(-15 796.36)"/>
<path fill="url(#radialGradient4240)" d="m230,106c0,2.7614-2.2386,5-5,5s-5-2.2386-5-5 2.2386-5 5-5 5,2.2386 5,5z" transform="translate(-30 796.36)"/>
</g>
</g>
<g transform="matrix(1.4167 0 0 1.4167 -8.625 -1133.18)">
<path fill="url(#radialGradient4236)" fill-rule="evenodd" d="m230,106c0,2.7614-2.2386,5-5,5s-5-2.2386-5-5 2.2386-5 5-5 5,2.2386 5,5z" transform="translate(-60 736.36)"/>
</g>
<g transform="matrix(1.4167 0 0 1.4167 -8.625 -1133.18)">
<g mask="url(#mask2985)">
<path fill="#fff" fill-rule="evenodd" mask="url(#mask2976)" d="m135,837.59c-2.4114,0-4.3671,1.8017-4.6875,4.125 .5611-.3131 1.239-.6438 2-.75 .9367-.1308 1.9598,.1152 2.6562,1.125 .2908,.4216 .6423,.6284 1.0312,.7188 .3889,.0903 .8241,.0355 1.2812-.0937 .8636-.2442 1.7622-.7811 2.4062-1.25-.4264-2.1972-2.3637-3.875-4.6875-3.875z" transform="translate(29.931)"/>
</g>
</g>
<g transform="matrix(1.4167 0 0 1.4167 -8.625 -1133.18)">
<path fill="url(#radialGradient4238)" fill-rule="evenodd" d="m230,106c0,2.7614-2.2386,5-5,5s-5-2.2386-5-5 2.2386-5 5-5 5,2.2386 5,5z" transform="translate(-75 736.36)"/>
</g>
<g transform="matrix(1.4167 0 0 1.4167 -8.625 -1133.18)">
<g mask="url(#mask2985)" transform="translate(-14.982)">
<path fill="#fff" fill-rule="evenodd" mask="url(#mask2976)" d="m135,837.59c-2.4114,0-4.3671,1.8017-4.6875,4.125 .5611-.3131 1.239-.6438 2-.75 .9367-.1308 1.9598,.1152 2.6562,1.125 .2908,.4216 .6423,.6284 1.0312,.7188 .3889,.0903 .8241,.0355 1.2812-.0937 .8636-.2442 1.7622-.7811 2.4062-1.25-.4264-2.1972-2.3637-3.875-4.6875-3.875z" transform="translate(29.931)"/>
</g>
</g>
<g transform="matrix(1.4167 0 0 1.4167 -8.625 -1133.18)">
<path fill="url(#radialGradient4240)" fill-rule="evenodd" d="m230,106c0,2.7614-2.2386,5-5,5s-5-2.2386-5-5 2.2386-5 5-5 5,2.2386 5,5z" transform="translate(-90 736.36)"/>
</g>
<g transform="matrix(1.4167 0 0 1.4167 -8.625 -1133.18)">
<g mask="url(#mask2985)" transform="translate(-29.919)">
<path fill="#fff" fill-rule="evenodd" mask="url(#mask2976)" d="m135,837.59c-2.4114,0-4.3671,1.8017-4.6875,4.125 .5611-.3131 1.239-.6438 2-.75 .9367-.1308 1.9598,.1152 2.6562,1.125 .2908,.4216 .6423,.6284 1.0312,.7188 .3889,.0903 .8241,.0355 1.2812-.0937 .8636-.2442 1.7622-.7811 2.4062-1.25-.4264-2.1972-2.3637-3.875-4.6875-3.875z" transform="translate(29.931)"/>
</g>
</g>
<g transform="translate(0 -796.36)">
<path fill="#fff" fill-rule="evenodd" d="m27.437,870.54h204.77v134.74h-204.77z"/>
</g>
</svg>
