<svg xmlns="http://www.w3.org/2000/svg" viewBox="0 0 612 325" xmlns:xlink="http://www.w3.org/1999/xlink">
<defs>
<filter color-interpolation-filters="sRGB" id="filter4078">
<feGaussianBlur stdDeviation="1.17098"/>
</filter>
<filter width="1.851" x="-.425" y="-.213" height="1.425" color-interpolation-filters="sRGB" id="filter4899">
<feGaussianBlur stdDeviation="2.87303"/>
</filter>
<filter width="1.062" x="-.031" y="-.373" height="1.746" color-interpolation-filters="sRGB" id="filter4405">
<feGaussianBlur stdDeviation="3.74269"/>
</filter>
<filter width="1.543" x="-.272" y="-.886" height="2.773" color-interpolation-filters="sRGB" id="filter4427">
<feGaussianBlur stdDeviation="10.56206"/>
</filter>
<filter width="1.139" x="-.07" y="-.248" height="1.495" color-interpolation-filters="sRGB" id="filter4431">
<feGaussianBlur stdDeviation="2.64675"/>
</filter>
<filter width="1.11" x="-.055" y="-.28" height="1.56" color-interpolation-filters="sRGB" id="filter5097">
<feGaussianBlur stdDeviation="12.60455"/>
</filter>
<filter width="1.425" x="-.213" y="-.187" height="1.374" color-interpolation-filters="sRGB" id="filter4859">
<feGaussianBlur stdDeviation="2.87303"/>
</filter>
<filter width="1.493" x="-.246" y="-.095" height="1.191" color-interpolation-filters="sRGB" id="filter4879">
<feGaussianBlur stdDeviation="2.87303"/>
</filter>
<filter width="1.292" x="-.146" y="-.085" height="1.17" color-interpolation-filters="sRGB" id="filter4863">
<feGaussianBlur stdDeviation="2.87303"/>
</filter>
<filter width="1.312" x="-.156" y="-.082" height="1.164" color-interpolation-filters="sRGB" id="filter4867">
<feGaussianBlur stdDeviation="2.87303"/>
</filter>
<filter width="1.033" x="-.016" y="-.115" height="1.229" color-interpolation-filters="sRGB" id="filter4304">
<feGaussianBlur stdDeviation="1.98571"/>
</filter>
<filter width="1.425" x="-.213" y="-.094" height="1.187" color-interpolation-filters="sRGB" id="filter4875">
<feGaussianBlur stdDeviation="2.87303"/>
</filter>
<filter width="1.39" x="-.195" y="-.095" height="1.191" color-interpolation-filters="sRGB" id="filter4871">
<feGaussianBlur stdDeviation="2.87303"/>
</filter>
<filter width="1.55" x="-.275" y="-.106" height="1.213" color-interpolation-filters="sRGB" id="filter4887">
<feGaussianBlur stdDeviation="2.87303"/>
</filter>
<filter width="1.78" x="-.39" y="-.156" height="1.312" color-interpolation-filters="sRGB" id="filter4895">
<feGaussianBlur stdDeviation="2.87303"/>
</filter>
<filter width="1.493" x="-.246" y="-.13" height="1.26" color-interpolation-filters="sRGB" id="filter4891">
<feGaussianBlur stdDeviation="2.87303"/>
</filter>
<filter width="1.585" x="-.292" y="-.1" height="1.199" color-interpolation-filters="sRGB" id="filter4883">
<feGaussianBlur stdDeviation="2.87303"/>
</filter>
<filter width="2.17" x="-.585" y="-.334" height="1.669" color-interpolation-filters="sRGB" id="filter4907">
<feGaussianBlur stdDeviation="2.87303"/>
</filter>
<filter width="1.851" x="-.425" y="-.246" height="1.493" color-interpolation-filters="sRGB" id="filter4903">
<feGaussianBlur stdDeviation="2.87303"/>
</filter>
<filter color-interpolation-filters="sRGB" id="filter5123">
<feGaussianBlur stdDeviation=".66758"/>
</filter>
<filter color-interpolation-filters="sRGB" id="filter5105">
<feGaussianBlur stdDeviation="1.93579"/>
</filter>
<filter color-interpolation-filters="sRGB" id="filter5109">
<feGaussianBlur stdDeviation="1.69051"/>
</filter>
<filter width="1.138" x="-.069" y="-.137" height="1.275" color-interpolation-filters="sRGB" id="filter5619">
<feGaussianBlur stdDeviation=".42236"/>
</filter>
<filter width="1.105" x="-.052" y="-.101" height="1.202" color-interpolation-filters="sRGB" id="filter4997">
<feGaussianBlur stdDeviation=".94601"/>
</filter>
<filter width="1.111" x="-.055" y="-.196" height="1.393" color-interpolation-filters="sRGB" id="filter5101">
<feGaussianBlur stdDeviation="2.09994"/>
</filter>
<filter color-interpolation-filters="sRGB" id="filter5641">
<feGaussianBlur stdDeviation=".33764"/>
</filter>
<linearGradient id="linearGradient4825">
<stop offset="0" stop-color="#2d2d2d"/>
<stop offset="1" stop-color="#ccc"/>
</linearGradient>
<linearGradient gradientTransform="matrix(-1.2854 0 0 -.86761 -391.45 764.55)" id="linearGradient5772" y1="604.36" x1="440" y2="527.36" gradientUnits="userSpaceOnUse" x2="467">
<stop offset="0"/>
<stop offset="1" stop-color="#2d2d2d"/>
</linearGradient>
<linearGradient gradientTransform="translate(-1112.8 -137.54)" id="linearGradient5774" y1="453.37" x1="384.59" y2="502" gradientUnits="userSpaceOnUse" x2="391.22">
<stop offset="0" stop-color="#2d2d2d"/>
<stop offset="1" stop-color="#0d0a0a"/>
</linearGradient>
<linearGradient id="linearGradient5846" y1="184.16" y2="197.19" x1="-574.63" gradientUnits="userSpaceOnUse" x2="-569.42">
<stop offset="0" stop-color="#fffc3d"/>
<stop offset="1" stop-color="#ffc022"/>
</linearGradient>
<linearGradient id="linearGradient4296">
<stop offset="0" stop-color="#2d2d2d"/>
<stop offset="1" stop-color="#2d2d2d" stop-opacity="0"/>
</linearGradient>
<linearGradient gradientTransform="translate(-1112.8 -137.54)" id="linearGradient5780" y1="335.51" x1="177.13" y2="310.5" gradientUnits="userSpaceOnUse" x2="381.35">
<stop offset="0" stop-color="#ffff3e"/>
<stop offset="1" stop-color="#fff"/>
</linearGradient>
<linearGradient gradientTransform="matrix(.92919 .03806 0 .6851 40.205 46.798)" id="linearGradient5806" xlink:href="#linearGradient4296" y1="468.87" x1="154.21" y2="416.78" gradientUnits="userSpaceOnUse" x2="164.63"/>
<linearGradient gradientTransform="translate(-1112.8 -137.54)" id="linearGradient5778" y1="327.98" x1="15.981" y2="339.17" gradientUnits="userSpaceOnUse" x2="111.99">
<stop offset="0" stop-color="#ffc022"/>
<stop offset="1" stop-color="#ffff3e"/>
</linearGradient>
<linearGradient gradientTransform="translate(-1112.8 -137.54)" id="linearGradient5782" y1="332.36" x1="458" y2="415.36" gradientUnits="userSpaceOnUse" x2="483">
<stop offset="0" stop-color="#ffff3e"/>
<stop offset="1" stop-color="#ffc022"/>
</linearGradient>
<linearGradient id="linearGradient5790" y1="469.82" x1="413.62" y2="423.58" gradientUnits="userSpaceOnUse" x2="414.55">
<stop offset="0" stop-color="#666"/>
<stop offset="1" stop-color="#999"/>
</linearGradient>
<linearGradient gradientTransform="translate(-1112.8 -137.54)" id="linearGradient5786" y1="312.65" x1="556.99" y2="426.11" gradientUnits="userSpaceOnUse" x2="551.84">
<stop offset="0" stop-color="#ffff3e"/>
<stop offset="1" stop-color="#ffc022"/>
</linearGradient>
<linearGradient gradientTransform="translate(-1112.8 -137.54)" id="linearGradient5776" y1="282.07" x1="213.66" y2="293.13" gradientUnits="userSpaceOnUse" x2="248.29">
<stop offset="0" stop-color="#ffc022"/>
<stop offset="1" stop-color="#ffff3e"/>
</linearGradient>
<linearGradient id="linearGradient5792" y1="253.13" x1="-477.71" y2="256.43" gradientUnits="userSpaceOnUse" x2="-462.24">
<stop offset="0" stop-color="#666"/>
<stop offset="1" stop-color="#ccc"/>
</linearGradient>
<linearGradient id="linearGradient5794" x1="-476.47" gradientUnits="userSpaceOnUse" x2="-501.84">
<stop offset="0" stop-color="#ccc"/>
<stop offset="1" stop-color="#999"/>
</linearGradient>
<linearGradient gradientTransform="matrix(.92919 .03806 0 .6851 -1108 -1.1315)" id="linearGradient5804" xlink:href="#linearGradient4296" y1="468.87" x1="154.21" y2="416.78" gradientUnits="userSpaceOnUse" x2="164.63"/>
<linearGradient gradientTransform="translate(-1112.8 -137.54)" id="linearGradient5784" y1="321.36" x1="512" y2="411.36" gradientUnits="userSpaceOnUse" x2="525">
<stop offset="0" stop-color="#ffff3e"/>
<stop offset="1" stop-color="#ffc022"/>
</linearGradient>
<linearGradient gradientTransform="matrix(.99516 -.16467 0 .89393 -1113.9 -27.884)" id="linearGradient5802" y1="354.26" x1="477.21" y2="318.83" gradientUnits="userSpaceOnUse" x2="468.87">
<stop offset="0" stop-color="#fff"/>
<stop offset="1" stop-color="#fff" stop-opacity="0"/>
</linearGradient>
<linearGradient id="linearGradient5824" y1="389.93" y2="396.34" gradientUnits="userSpaceOnUse" x2="0">
<stop offset="0" stop-color="#fff"/>
<stop offset="1" stop-color="#fff" stop-opacity="0"/>
</linearGradient>
<linearGradient gradientTransform="translate(-1112.8 -137.54)" id="linearGradient5814" y1="424.64" x1="125.25" y2="398.12" gradientUnits="userSpaceOnUse" x2="206.29">
<stop offset="0" stop-color="#666"/>
<stop offset="1" stop-color="#2d2d2d"/>
</linearGradient>
<linearGradient gradientTransform="translate(-1112.3 -138.58)" id="linearGradient5810" y1="278.76" x1="291.39" y2="277.29" gradientUnits="userSpaceOnUse" x2="382.75">
<stop offset="0" stop-color="#666"/>
<stop offset="1" stop-color="#fff"/>
</linearGradient>
<linearGradient gradientTransform="translate(-1112.8 -137.54)" id="linearGradient5830" y1="396.98" x1="306.85" y2="423.03" gradientUnits="userSpaceOnUse" x2="286.01">
<stop offset="0" stop-color="#364e59"/>
<stop offset="1" stop-color="#364e59" stop-opacity="0"/>
</linearGradient>
<linearGradient gradientTransform="translate(-1112.8 -137.54)" id="linearGradient5788" y1="480.36" x1="310" y2="380.36" gradientUnits="userSpaceOnUse" x2="322">
<stop offset="0" stop-color="#ffc022"/>
<stop offset="1" stop-color="#ffff3e"/>
</linearGradient>
<linearGradient gradientTransform="matrix(1.0792 0 0 .93007 -1128 -107.15)" id="linearGradient5816" y1="457.06" x1="148.83" y2="352.44" gradientUnits="userSpaceOnUse" x2="213.66">
<stop offset="0" stop-color="#fff"/>
<stop offset="1" stop-color="#2d2d2d"/>
</linearGradient>
<linearGradient gradientTransform="matrix(.94539 -.23229 .19175 .65624 240.82 9.8956)" id="linearGradient5820" xlink:href="#linearGradient4825" y1="426.72" x1="-242.48" y2="431.56" gradientUnits="userSpaceOnUse" x2="-245.07"/>
<linearGradient id="linearGradient5818" y1="392.51" y2="380.6" x1="72.412" gradientUnits="userSpaceOnUse" x2="75.826">
<stop offset="0" stop-color="#ccc"/>
<stop offset="1" stop-color="#fff"/>
</linearGradient>
<linearGradient id="linearGradient5822" y1="410.45" x1="307.75" y2="405.96" gradientUnits="userSpaceOnUse" x2="311.09">
<stop offset="0" stop-color="#364e59"/>
<stop offset="1" stop-color="#364e59" stop-opacity="0"/>
</linearGradient>
<linearGradient gradientTransform="matrix(.95967 0 0 .78422 -1108.8 -75.279)" id="linearGradient5812" y1="284.65" x1="449.43" y2="286.13" gradientUnits="userSpaceOnUse" x2="475.95">
<stop offset="0" stop-color="#fff"/>
<stop offset="1" stop-color="#ccc"/>
</linearGradient>
<linearGradient id="linearGradient5836" y1="418.86" y2="408.96" x1="275.07" gradientUnits="userSpaceOnUse" x2="294.35">
<stop offset="0" stop-color="#666"/>
<stop offset="1" stop-color="#666" stop-opacity="0"/>
</linearGradient>
<linearGradient gradientTransform="matrix(1.5741 -.40916 .31928 1.1559 -539.37 -373.82)" id="linearGradient5828" xlink:href="#linearGradient4825" y1="426.72" x1="-242.48" y2="431.56" gradientUnits="userSpaceOnUse" x2="-245.07"/>
<linearGradient gradientTransform="translate(-1112.8 -137.54)" id="linearGradient5844" y1="367.17" x1="130.41" y2="304.55" gradientUnits="userSpaceOnUse" x2="144.41">
<stop offset="0" stop-color="#f90"/>
<stop offset="1" stop-color="#f90" stop-opacity=".073"/>
</linearGradient>
<linearGradient gradientTransform="translate(-1112.8 -137.54)" id="linearGradient5838" y1="336.23" x1="381.28" y2="347.65" gradientUnits="userSpaceOnUse" x2="388.64">
<stop offset="0" stop-color="#fff"/>
<stop offset="1" stop-color="#ffff3e"/>
</linearGradient>
<linearGradient gradientTransform="translate(-1112.8 -137.54)" id="linearGradient5840" y1="278.76" x1="503.21" y2="313.76" gradientUnits="userSpaceOnUse" x2="500.63">
<stop offset="0" stop-color="#ffc022"/>
<stop offset="1" stop-color="#ffff3e"/>
</linearGradient>
<linearGradient gradientTransform="translate(-1112.8 -137.54)" id="linearGradient5842" y1="413.59" x1="498.79" y2="341.38" gradientUnits="userSpaceOnUse" x2="502.47">
<stop offset="0" stop-color="#666"/>
<stop offset="1" stop-color="#ffc022"/>
</linearGradient>
<linearGradient id="linearGradient5826" y1="360.22" y2="392.49" x1="84.016" gradientUnits="userSpaceOnUse" x2="62.715">
<stop offset="0" stop-color="#fff"/>
<stop offset="1" stop-color="#ccc"/>
</linearGradient>
<linearGradient gradientTransform="translate(-1112.8 -137.54)" id="linearGradient5808" y1="249.55" x1="491.28" y2="272.47" gradientUnits="userSpaceOnUse" x2="493.88">
<stop offset="0" stop-color="#2d2d2d"/>
<stop offset="1" stop-color="#666"/>
</linearGradient>
</defs>
<g transform="translate(1089 -99.63)">
<path fill="#2d2d2d" d="m-792.69,164.69c2.296-6.592 31.373-15.242 44.561-21.834 51.47-6.3809 89.729,.3833 143.83,2.9471 25.206,12.636 30.867,8.0395 43.348,17.604-30.247,6.592-51.065,12.447-70.39,19.039z"/>
</g>
<g fill="#2d2d2d" transform="matrix(.9859 .10044 0 1.0805 66.1 -297.03)">
<path d="m352.29,254.45c-1.6693,.8396-3.0678,2.4126-3.7786,4.1406-2.3497,5.7122 1.0228,12.599-.7557,18.514-2.5253,8.3987-13.603,22.521-13.603,22.521l55.924,2.4635s4.8389-14.191 3.7787-21.336c-.5716-3.8518-4.5757-6.5877-5.2901-10.416-.9171-4.9142 3.6057-10.382 1.5114-14.921-1.0267-2.2252-3.6726-3.5719-6.0458-4.1833-10.298-2.6532-22.24-1.5626-31.74,3.2158zm2.7159,5.7366c7.2911-3.6775 16.467-4.527 24.372-2.4803 1.8199,.4712 3.8435,1.514 4.6288,3.222 1.6016,3.4832-1.8614,7.6744-1.1572,11.443 .5489,2.9376 3.6233,5.0362 4.062,7.9922 .8138,5.4834-2.9048,16.375-2.9048,16.375l-42.911-1.8843s8.4983-10.839 10.438-17.284c1.367-4.5411-1.2113-9.8281 .5904-14.215 .5424-1.3206 1.6066-2.5258 2.8812-3.1687z"/>
<path filter="url(#filter4078)" d="m320.36,284.98 17.691-24.653s-1.4369-14.657 .6257-20.943c.5792-1.7651 1.6487-3.4547 3.1286-4.1887 7.7071-3.8226 17.851-3.53 26.28,.6981 2.0755,1.0411 4.1692,3.1298 5.0058,5.5848 1.8768,5.5077 4.1056,11.934 4.1056,11.934l2.773,17.944c-2.2928,7.7263 10.121-9.6617 .0856,21.717z" transform="matrix(.68767 -.08766 0 .59033 119.83 154.41)"/>
</g>
<g transform="matrix(.9859 .10044 0 1.0805 66.1 -297.03)">
<path fill="#666" d="m351.87,258.44-3.1184,3.61s.8592,10.965-.6237,16.142c-2.0764,7.2478-11.227,19.635-11.227,19.635l46.154,2.1478s4.0022-12.377 3.1185-18.602c-.4721-3.3253-4.1566-5.0406-2.524-7.9757 1.9536-3.5122 3.504-12.943-.5945-14.114l-4.9896-3.6473zm2.2414,5.0015 20.114-2.1625 3.8202,2.8092s-1.5416,6.6878-.955,9.9767c.4525,2.5375 2.99,4.4161 3.3523,6.9681 .6782,4.7776-2.3973,14.277-2.3973,14.277l-35.414-1.6429s7.0196-9.5074 8.6148-15.069c1.1398-3.974 .4873-12.393 .4873-12.393z"/>
</g>
<g transform="translate(1089 -99.63)">
<path fill="#999" filter="url(#filter5097)" d="m-1058.8,353.13c-3.4414,34.327 294.48,54.899 351.51,30.758l198.96-84.222-201.32-4.4725s-339.09-42.417-349.16,57.936z"/>
</g>
<g fill="#2d2d2d" transform="translate(1089 -99.63)">
<path opacity=".668" filter="url(#filter4431)" d="m443.74,506.14c-2.2401,7.1489-13.709,13.265-46.744,14.024-31.057,.7133-48.744-3.7227-42.744-10.032 6.7206-7.0674 22.368-15.752 49.744-15.553 20.92,.1516 43.744-1.2041 39.744,11.561z" transform="matrix(1.6453 0 0 1.2645 -1627.8 -297.4)"/>
<path opacity=".951" filter="url(#filter4427)" d="m443.74,506.14c-2.2401,7.1489-13.709,13.265-46.744,14.024-31.057,.7133-48.744-3.7227-42.744-10.032 6.7206-7.0674 22.368-15.752 49.744-15.553 20.92,.1516 43.744-1.2041 39.744,11.561z" transform="matrix(2.4997 .15284 -.20552 .80951 -1784.5 -115.37)"/>
</g>
<g transform="translate(1089 -99.63)">
<path opacity=".868" fill="#666" filter="url(#filter5101)" d="m614.62,441.54c-2.2401,7.1489-13.709,13.265-46.744,14.024-31.057,.7133-48.744-3.7227-42.744-10.032 6.7206-7.0674 22.368-15.752 49.744-15.553 20.92,.1516 43.744-1.2041 39.744,11.561z" transform="matrix(1.0079 0 0 1.1331 -1139.7 -203.93)"/>
<path opacity=".4" fill="#2d2d2d" filter="url(#filter4431)" d="m443.74,506.14c-2.2401,7.1489-13.709,13.265-46.744,14.024-31.057,.7133-48.744-3.7227-42.744-10.032 6.7206-7.0674 22.368-15.752 49.744-15.553 20.92,.1516 43.744-1.2041 39.744,11.561z" transform="matrix(1.7779 0 0 2.9313 -1415.9 -1132.3)"/>
</g>
<g fill="#0e232e" transform="translate(1089 -99.63)">
<path d="m606.41,368.85c0,19.565-9.3299,35.426-20.839,35.426s-20.839-15.861-20.839-35.426 9.3299-35.426 20.839-35.426 20.839,15.861 20.839,35.426z" transform="translate(-1116.8 -137.54)"/>
<path d="m518,545.36c0,22.644-16.789,41-37.5,41s-37.5-18.356-37.5-41 16.789-41 37.5-41 37.5,18.356 37.5,41z" transform="translate(-1168.8 -294.54)"/>
</g>
<g transform="translate(1089 -99.63)">
<path fill="url(#linearGradient5772)" d="m-1054.4,298.11c-4.5118-36.344 17.622-67.746 60.083-71.621 39.92-3.6427 62.654,19.011 54.942,51.234-8.6385,36.093-28.751,80.442-63.939,79.429-26.89-.774-45.227-11.851-51.086-59.043z"/>
<path fill="url(#linearGradient5774)" d="m-669.05,300.08c-2.2401,42.08-9.2888,77.347-42.323,81.813-10.352,1.3995-23.639,.1682-30.638-4.4534-13.999-9.2436-20.526-29.102-16.526-53.862 6.7206-41.601 22.368-92.717 49.744-91.55 20.92,.8921 43.744-7.0874 39.744,68.053z"/>
<path fill="url(#linearGradient5776)" d="m-870.92,164.85s-4.196-3.8652-4.038-6.8133c14.323-25.293-27.753-32.424-30.42-7.9486 .4028,12.169 14.765,6.9725 20.459,8.7057 2.1486,.63 3.7688,13.248 3.7688,13.248s4.3403,.9105 6.1917-.3784c1.8842-1.3119 4.038-6.8133 4.038-6.8133z"/>
</g>
<g fill="#0e232e" transform="translate(1089 -99.63)">
<path d="m-534.22,206.55c-.3697-.0304-.7455-.0247-1.1194-.0237-1.236,.004-2.4731,.1692-3.744,.5081-14.847,3.9594-23.052,39.104-23.052,66.841 5.5931,10.383 3.2547,22.375 13.425,27.08 6.5546,3.0323 15.459,1.7382 21.518-1.0505 12.394-5.7042 26.521-74.52 .3826-90.574-.009-.007-.0281,.004-.0384-.002-2.3069-1.5937-4.7842-2.5704-7.3721-2.779z"/>
<path d="m-623.92,138.33c-1.1113,1.5258-8.8902,22.506-8.1494,24.032 .7409,1.5258 32.227,2.2887 32.227,2.2887l-5.5523-22.334z"/>
</g>
<g transform="translate(1089 -99.63)">
<path fill="#364e59" d="m-630.22,164.65c-1.4817,1.1443-10.372,11.444-10.372,11.444l47.785,3.4331-7.0381-13.351z"/>
<path fill="url(#linearGradient5778)" d="m-1017.8,224.18c-26.561-10.123-26.672,22.043-43.996,23.11-3.4111,.2102-8.8028-.7848-11.392,1.5724 8.8881-103.26 125.63-68.051 178.67-85.565-44.657,17.072-71.463,.5958-123.28,60.882z"/>
<path fill="url(#linearGradient5780)" d="m-1019.3,222.7c77.844,13.841 120.29,21.297 182.67,19.582 77.251-35.391 134.39-33.987 196.79-65.819-65.793-12.694-172.21-11.305-252.65-14.176-45.069,18.718-72.223-1.39-126.81,60.414z"/>
<path fill="url(#linearGradient5782)" d="m-717.85,249.48c-11.949-4.0584-35.21,1.8589-48.12-7.8999-18.887-14.277-47.902-11.5-69.202,.3284 12.289-12.654 146.66-47.056 195.55-64.445l11.613-1.0616c12.645,1.4786 17.361,128.51 4.0263,127.44-4.105-.3317-47.487,21.193-47.487,21.193 9.2332-78.959-20.804-111.85-46.377-75.55z"/>
<path fill="url(#linearGradient5784)" d="m-624.78,304.05 61.401-18.227c4.8656-40.14 11.844-80.272-4.0263-120.5l-58.382,12.151c9.7199,42.867 7.3365,83.709 1.0066,126.58z"/>
<path fill="url(#linearGradient5786)" d="m-671.19,326.76 2.0375-8.3032 105.78-36.217c6.0111-37.411 7.7607-77.093-4.6279-117.14l6.1107-1.3639c-10.584-12.662-2.4937,.3235-11.501-10.778 82.969,14.538 58.627,48.176 63.289,98.868-2.5832-80.082-33.382-67.207-42.148,28.352-1.4216,6.3855-8.7392,15.202-16.441,14.884-1.3956-.0577-1.415,.441-2.7144-.0723-4.4575-1.761-16.771,3.4331-16.771,3.4331z"/>
<path fill="url(#linearGradient5788)" d="m-1055.7,246.6-17.044,1.25c-11.259,40.241 7.0485,77.568 55.288,86.473 7.6676,1.194-14.536-25.807-7.1441-25.21 69.251,5.5947 127.6,17.577 184.44,16.699 2.8818-.0445-4.2417,21.586-1.4318,22.06 23.264,3.9263 91.978,6.8905 100.87-1.1246-4.3933-58.486 15.647-86.299 21.427-96.689 0,0-43.248-11.717-45.945-6.7662 11.542,39.617-74.203,35.771-70.964-1.0126-19.839-.7387-145.32-14.489-171.13-19.356 3.8976,19.034-31.651,52.152-48.375,23.675z"/>
<path fill="url(#linearGradient5790)" d="m438,445.86c0,25.681-6.268,46.5-14,46.5s-14-20.819-14-46.5 6.268-46.5 14-46.5 14,20.819 14,46.5z" transform="matrix(1.523 -.44576 0 1.1072 -1343.1 7.6648)"/>
<path fill="#0e232e" d="m-697.47,264.75-.5928,17.164-1.019,22.776-1.0385-22.176-.5977-16.351c-2.7242,2.0786-5.1958,6.3047-7.2061,12.013l3.0618,12.136 4.0905,17.411-5.5846-12.489-3.826-9.2052c-1.5831,6.7921-2.626,14.784-2.9246,23.297l4.9968,.9563 6.8191,2.0581-6.8779,4.7017-4.9184,2.8361c.3161,8.0509 1.3202,15.325 2.8266,21.308l4.404-12.246 5.5552-14.514-4.1444,19.136-3.4586,14.967c2.0485,4.9864 4.5759,8.2428 7.358,9.1657l.583-16.166 1.0385-22.587 1.019,22.357 .5781,16.419c2.7991-.8718 5.405-3.9961 7.6225-8.7372l-3.728-14.639-4.1444-17.497 5.5552,12.302 5.129,12.241c2.2164-7.4585 3.7203-16.882 4.1444-27.121l-7.3041-1.3195-6.8779-1.9822 6.8191-4.7544 7.2698-4.265 .1372,1.6439c-.371-11.047-2.0278-20.698-4.5118-27.611l-4.5314,12.705-5.5797,14.696 4.0856-19.044 3.2822-14.306c-2.1996-3.651-4.7632-5.587-7.5099-5.2796z"/>
<path fill="url(#linearGradient5792)" d="m-468,260.36c0,15.464-8.0589,28-18,28s-18-12.536-18-28 8.0589-28 18-28 18,12.536 18,28z" transform="matrix(.28571 0 0 .42857 -558.41 204.42)"/>
<path fill="url(#linearGradient5794)" d="m-468,260.36c0,15.464-8.0589,28-18,28s-18-12.536-18-28 8.0589-28 18-28 18,12.536 18,28z" transform="matrix(.28571 0 0 .38438 -557.17 216.99)"/>
</g>
<g transform="matrix(.54915 0 0 .60569 333.9 -116.244)">
<path fill="url(#linearGradient5790)" d="m438,445.86c0,25.681-6.268,46.5-14,46.5s-14-20.819-14-46.5 6.268-46.5 14-46.5 14,20.819 14,46.5z" transform="matrix(1.523 -.44576 0 1.1072 -230.26 145.2)"/>
<path fill="#0e232e" d="m415.32,402.28-.5928,17.164-1.019,22.776-1.0385-22.176-.5977-16.351c-2.7242,2.0786-5.1958,6.3047-7.2061,12.013l3.0618,12.136 4.0905,17.411-5.5846-12.489-3.826-9.2052c-1.5831,6.7921-2.626,14.784-2.9246,23.297l4.9968,.9563 6.8191,2.0581-6.8779,4.7017-4.9184,2.8361c.3161,8.0509 1.3202,15.325 2.8266,21.308l4.404-12.246 5.5552-14.514-4.1444,19.136-3.4586,14.967c2.0485,4.9864 4.5759,8.2428 7.358,9.1657l.583-16.166 1.0385-22.587 1.019,22.357 .5781,16.419c2.7991-.8718 5.405-3.9961 7.6225-8.7372l-3.728-14.639-4.1444-17.497 5.5552,12.302 5.129,12.241c2.2164-7.4585 3.7203-16.882 4.1444-27.121l-7.3041-1.3195-6.8779-1.9822 6.8191-4.7544 7.2698-4.265 .1372,1.6439c-.371-11.047-2.0278-20.698-4.5118-27.611l-4.5314,12.705-5.5797,14.696 4.0856-19.044 3.2822-14.306c-2.1996-3.651-4.7632-5.587-7.5099-5.2796z"/>
<path fill="url(#linearGradient5792)" d="m-468,260.36c0,15.464-8.0589,28-18,28s-18-12.536-18-28 8.0589-28 18-28 18,12.536 18,28z" transform="matrix(.28571 0 0 .42857 554.39 341.96)"/>
<path fill="url(#linearGradient5794)" d="m-468,260.36c0,15.464-8.0589,28-18,28s-18-12.536-18-28 8.0589-28 18-28 18,12.536 18,28z" transform="matrix(.28571 0 0 .38438 555.62 354.52)"/>
</g>
<g transform="translate(1089 -99.63)">
<path fill="#ffc022" d="m-1020.2,333.95-8.307-26.388 188.68,15.138 1.1689,25.915z"/>
</g>
<g fill="#2d2d2d" transform="matrix(1.0087 0 0 .96013 -36.3 -227.11)">
<path d="m352.29,254.45c-1.6693,.8396-3.0678,2.4126-3.7786,4.1406-2.3497,5.7122 1.0228,12.599-.7557,18.514-2.5253,8.3987-13.603,22.521-13.603,22.521l55.924,2.4635s4.8389-14.191 3.7787-21.336c-.5716-3.8518-4.5757-6.5877-5.2901-10.416-.9171-4.9142 3.6057-10.382 1.5114-14.921-1.0267-2.2252-3.6726-3.5719-6.0458-4.1833-10.298-2.6532-22.24-1.5626-31.74,3.2158zm2.7159,5.7366c7.2911-3.6775 16.467-4.527 24.372-2.4803 1.8199,.4712 3.8435,1.514 4.6288,3.222 1.6016,3.4832-1.8614,7.6744-1.1572,11.443 .5489,2.9376 3.6233,5.0362 4.062,7.9922 .8138,5.4834-2.9048,16.375-2.9048,16.375l-42.911-1.8843s8.4983-10.839 10.438-17.284c1.367-4.5411-1.2113-9.8281 .5904-14.215 .5424-1.3206 1.6066-2.5258 2.8812-3.1687z"/>
<path filter="url(#filter4078)" d="m320.36,284.98 17.691-24.653s-1.4369-14.657 .6257-20.943c.5792-1.7651 1.6487-3.4547 3.1286-4.1887 7.7071-3.8226 17.851-3.53 26.28,.6981 2.0755,1.0411 4.1692,3.1298 5.0058,5.5848 1.8768,5.5077 4.1056,11.934 4.1056,11.934l2.773,17.944c-2.2928,7.7263 10.121-9.6617 .0856,21.717z" transform="matrix(.68767 -.08766 0 .59033 119.83 154.41)"/>
</g>
<g transform="matrix(1.0087 0 0 .96013 -36.3 -227.11)">
<path fill="#666" d="m351.87,258.44-3.1184,3.61s.8592,10.965-.6237,16.142c-2.0764,7.2478-11.227,19.635-11.227,19.635l46.154,2.1478s4.0022-12.377 3.1185-18.602c-.4721-3.3253-4.1566-5.0406-2.524-7.9757 1.9536-3.5122 3.504-12.943-.5945-14.114l-4.9896-3.6473zm2.2414,5.0015 20.114-2.1625 3.8202,2.8092s-1.5416,6.6878-.955,9.9767c.4525,2.5375 2.99,4.4161 3.3523,6.9681 .6782,4.7776-2.3973,14.277-2.3973,14.277l-35.414-1.6429s7.0196-9.5074 8.6148-15.069c1.1398-3.974 .4873-12.393 .4873-12.393z"/>
</g>
<g transform="translate(1089 -99.63)">
<path fill="url(#linearGradient5802)" filter="url(#filter5105)" d="m-693.54,222.02 41.53-11.178 46.224-6.1134 29.033-8.5298-8.2952-24.707-66.361,22.158-39.402,6.5199-15.225,9.2913z"/>
<path opacity=".371" fill="#fff" filter="url(#filter5109)" d="m-662.68,317.91-5.1065-10.522 99.06-31.497 .2477,.9245z"/>
</g>
<g stroke="#000" stroke-width=".798" transform="translate(1089 -99.63)">
<path opacity=".376" fill="url(#linearGradient5804)" filter="url(#filter4304)" d="m-1053.8,305.18 27.109,22.525 265.91,16.825-2.5694-18.887z"/>
<path opacity=".098" fill="url(#linearGradient5806)" filter="url(#filter4304)" d="m94.422,353.11-9.9519,24.044 292.66,17.516 34.217-36.288z" transform="matrix(.55664 0 0 .97002 -1050.3 -121.1)"/>
</g>
<g transform="translate(1089 -99.63)">
<path fill="url(#linearGradient5808)" d="m-724.84,100.37c-24.003,.2696-49.732,3.199-78.081,10.099-20.322,6.1101-49.134,30.276-75.992,52.951 84.675-5.1171 169.37,7.8905 253.73,15.471 8.6281-21.268 20.875-58.852 12.199-65.698-5.2961-4.1788-71.846-13.272-111.85-12.822zm.9397,4.6085c35.089,.2327 66.271,6.1821 96.729,13.178 4.1206,19.018-1.1476,38.03-9.2093,57.047-80.397-8.1472-156.87-16.881-237.33-14.529 25.095-20.276 52.284-41.192 71.272-46.656 28.695-6.6846 54.532-9.1997 78.54-9.0405z"/>
<path opacity=".439" fill="url(#linearGradient5810)" stroke="#8b8585" stroke-width="1.463" d="m-874.32,162.19c-2.1433-2.2661 61.885-49.282 65.698-47.785 52.684-11.407 119.03-15.915 187.08,2.8484 5.701,0-2.8524,61.847-7.2511,60.528-5.2993-1.5884-249.63-21.463-245.53-15.592z"/>
<path opacity=".4" fill="url(#linearGradient5812)" d="m-704.12,165.87c11.063-19.94 22.127-38.623 33.19-54.645 18.548,2.0347 49.758,.3992 49.502,8.1513-.3914,11.882-4.1662,38.703-10.449,54.788-20.955-2.1607-53.488-6.7827-72.244-8.2942z"/>
<path fill="#fff" filter="url(#filter4405)" d="m-997.86,195.16c94.926-29.707 169.21-20.51 266.76-21.205l22.055,6.8403c-102.01-2.3293-186.28-13.066-272.01,16.417z"/>
<path fill="url(#linearGradient5814)" stroke="#000" stroke-width=".2" d="m-1007.4,250.08 158.79,12.708c-.8945,15.599-6.245,30.065-15.46,40.954l-133.06-10.355c-9.2629-22.679-12.252-34.44-10.276-43.307z"/>
<path fill="url(#linearGradient5816)" d="m-997.77,255.45-.3114,.7515 13.422,4.187-11.772-.8589-.4983-.161-.0623,.1074-8.6577-.6173-.093,.8589 9.374,.671 8.4397,2.6304-17.471-1.2615-.062,.8589 8.3462,.6174-.218,.4831 9.9656,3.1135-17.782-1.2615-.062,.8321 8.938,.6442-.218,.5636 6.3842,1.9862-15.416-1.1273-.093,.8589 19.153,1.3957 7.6299,2.3888-3.052,.4563-5.9482-.4294-6.5711-2.0399-.3114,.6979 3.5191,1.1004-11.367-.832-.062,.8052 14.824,1.0736 1.1523,.3758-10.37,1.6104-3.5503-.2684-.093,.8052-2.7717,.4295c.11,.2815 .197,.5718 .3114,.8589l6.4154-.9931 8.284,.5905 .3114,.1073-11.211,1.7446-.2491-.0267v.0537l-2.7717,.4295c.1134,.2738 .2255,.5534 .3426,.832l3.1142-.4831 12.737,.9394-14.668,2.3083c.117,.2674 .2224,.5335 .3425,.8052l3.1766-.51 9.4362,.6979-11.71,1.7983c.1169,.2586 .2542,.5428 .3737,.8052l15.073-2.3351 11.274,.832-11.741,1.7983-10.028-.7246-.0934,.7515 6.7891,.51-10.152,1.5567c.1186,.2548 .2217,.4932 .3426,.7515l13.36-2.0667 11.772,.8589-11.959,1.852-6.104-.4563-.0623,.6978 3.0831,.2147-5.232,.8052 3.7371,.2684 5.1385-.8052 11.772,.8589-4.8271,.7515 3.6748,.2416 4.6714-.7247 11.834,.8589-4.3911,.671 3.4568,.2416 4.2977-.671 11.959,.8857-3.924,.6173 3.3634,.2148 3.7994-.5905 7.4119,.5368 2.3357,.7247-1.0588,.161 4.9828,.3489-.9031-.2953 2.4291-.3758 7.2874,.5368 2.9274,.9125 3.3011,.2148-2.8651-.8857 11.865,.8589 2.5848,.8052 3.3634,.2148-2.4603-.7515 11.772,.8589 2.1488,.671 3.3946,.2416-2.0243-.6442 11.647,.8321 1.8063,.5636 3.5814,.2416-1.7128-.5368 1.6817,.1342 .0623-.671-4.578-.322-11.492-3.5697 11.803,.8589 6.5711,2.0398c.1953-.2217 .4004-.4462 .5917-.671l-3.6437-1.1273 4.3288,.3221c.1213-.1484 .223-.3067 .3426-.4563l.0311-.2416-7.7545-.5636-11.274-3.516 11.211,.832 8.4708,2.6303c.1867-.2439 .3782-.4777 .5605-.7247l-5.2008-1.6373 6.0417,.4563c.1752-.2514 .3587-.4973 .5294-.7515l-9.8722-.7247-10.526-3.2745 .5917-.0805 9.8722,.7247 10.09,3.0866c.1575-.2376 .3135-.4846 .4671-.7246l-6.8203-2.0936 7.7545,.5636c.1533-.2582 .287-.5175 .436-.7784l-11.647-.8589-3.2388-.9931 6.0728-.9394 8.8445,2.7645c.1591-.279 .313-.5502 .4671-.832l-7.2874-2.2546 8.0971,.5905v-.1879l.1246,.0537c.1334-.2674 .2758-.5355 .4049-.8052l-9.5608-2.9524 .9343-.1342 9.6854,.6979c.1096-.2601 .2369-.5165 .3426-.7784l-6.4777-.4832 2.2422-.3489-.1557-.6978-5.232,.8052-5.668-.4026-3.0831-.9663 7.8479-1.2078 11.429,.832c.0979-.281 .2178-.5492 .3114-.832l-7.9413-.5905 4.3911-.671-.1246-.7784-7.7857,1.2078-11.678-.8589 10.838-1.6909 13.049,.9394c.0773-.2745 .1448-.5561 .218-.8321l-9.5608-.671 6.0105-.9394-.1869-.7784-9.4051,1.4494-11.896-.8321 11.834-1.8251 13.827,1.0199c.062-.2861 .1292-.5714 .1869-.8589l-10.215-.7515 5.7926-.8857-.1869-.7247 4.9516,.3758c.0474-.2875 .1126-.5702 .1557-.8589l-13.36-.9663 9.3428-1.4494-.1557-.7783-12.737,1.9593-11.398-.832 21.395-3.2745-3.8928-.2684-21.27,3.2745-10.806-.7784 20.928-3.2745-3.7682-.2684-20.866,3.2745-11.896-.8589 20.772-3.2208-3.9551-.2952-20.679,3.2208-9.0002-.6442 20.585-3.194-3.9551-.2684-19.744,3.0598-18.343-5.6901-3.7994-.2684 18.997,5.9048-8.8756-.6442-18.904-5.8512-3.924-.2684 18.872,5.8512-12.706-.9394-18.779-5.7974-3.6125-.2416 18.81,5.7975-9.8722-.7247-18.405-5.7438-3.7371-.2415 18.312,5.6901-11.18-.8052-16.661-5.1801zm4.9517,5.207 11.803,.8589 8.4708,2.6303-11.834-.8589-8.4396-2.6303zm15.322,1.1004 11.18,.832 8.4085,2.6035-11.18-.8052-8.4085-2.6303zm15.011,1.1005 9.9345,.7246 8.5642,2.6304-10.028-.7247-8.4708-2.6303zm-33.541,.4294 11.741,.8589 11.99,3.7308-11.647-.8052-12.083-3.7844zm47.025,.5368 12.706,.9394 3.8305,1.181-4.8582,.7515-3.0831-.2147-8.5954-2.6572zm-31.765,.5905 11.834,.8589 11.865,3.6771-11.71-.8052-11.99-3.7307zm48.427,.6173 3.8617,.2952-1.9931,.2953-1.8686-.5905zm-33.136,.4831 11.18,.8052 6.4465,2.013-5.6991,.8857h-.0623l-11.865-3.7039zm40.766,.0805 1.3391,.0805 3.7371,1.181-4.578,.7247-4.4223-1.3688 3.924-.6174zm5.1074,.3757 3.9551,.2684-2.0243,.322-1.9308-.5905zm-11.024,.5368 2.834,.8858-5.7614-.4295 2.9274-.4563zm18.841,.0268 11.928,.8589-8.7511,1.3688-2.5226-.161-4.6402-1.4494 3.9863-.6173zm-38.617,.0805 9.2182,.671-4.7025,.7247-4.5157-1.3957zm-45.188,.4563 11.71,.832 9.0314,2.8182-11.865-.8857-8.8757-2.7645zm77.857,.3758 2.7717,.8589-5.668-.4026 2.8963-.4563zm-18.904,.161 8.3151,.5905-4.2354,.671-4.0797-1.2615zm40.485,.0537 10.775,.7784-8.8445,1.3688-10.682-.7784 8.7511-1.3688zm-42.697,.1342 4.3911,1.3688-5.2008,.8052-4.3288-1.3689 5.1385-.8052zm-41.607,.3489 11.647,.8321 5.5434,1.7177-3.7994,.5905-4.36-.322-9.0314-2.8182zm55.994,.349 .3114,.0267 5.7925,1.7983-6.0417,.9394-.5606-.0268-5.6991-1.7714 6.1974-.9663zm42.821,.2147 11.398,.832-8.8757,1.3688-11.367-.832 8.8445-1.3689zm-38.648,.0805 8.0036,.5905-4.0797,.6173-3.924-1.2078zm-25.662,.1342 3.4257,1.0736-7.0694-.51 3.6437-.5636zm-19.371,.2953 8.0348,.5636-4.142,.6442-3.8928-1.2078zm57.832,.5099 9.4674,.671-4.8271,.7515-4.6403-1.4226zm-25.039,.0269 4.0174,1.2347-8.1905-.5905 4.1731-.6442zm65.867,.0537 11.772,.8589-8.8445,1.3688-11.865-.8589 8.9379-1.3688zm-43.351,.0537 5.2008,1.6104-4.578,.6979-5.1697-1.6104 4.5468-.6979zm-43.475,.2147 4.2977,1.342-5.1385,.8052-1.744-.1342-3.4568-1.0736 6.0417-.9394zm3.3634,.2147 5.7302,.4026-2.9586,.4563-2.7717-.8589zm55.808,.3758 11.367,.832-11.99,1.852-1.09-.0805-5.014-1.5567 6.7268-1.0468zm-22.236,.2147 3.8617,1.2078-7.9725-.5636 4.1108-.6442zm-23.918,.0805 1.4326,.1073 5.3254,1.6641-4.36,.671-2.6471-.1879-4.7337-1.4762 4.9828-.7784zm-42.603,.0267 11.834,.8589 .1868,.0537-6.0417,.9394-5.9794-1.852zm21.706,.2952 1.744,.5368-3.5814-.2416 1.8374-.2953zm26.129,.0537 7.0694,.5099-3.6125,.5636-3.4568-1.0736zm55.808,.4294 11.865,.8589-11.865,1.8251-11.959-.8589 11.959-1.8251zm-67.86,.2416 3.052,.9394-6.2285-.4563 3.1766-.4831zm44.285,.0268 3.0831,.9663-6.4154-.4563 3.3323-.51zm-21.738,.1074 5.1385,1.5836-4.5157,.6978-1.5571-.1073-4.2977-1.342 5.232-.832zm-42.229,.0268 8.7822,.6441-4.8582,.7515-4.3288-1.342 .4049-.0537zm45.531,.1342 7.6611,.5636-3.924,.5905-3.7371-1.1541zm-47.711,.1879 4.3288,1.342-4.36,.671-3.3011-.2416-2.7094-.832 6.0417-.9394zm59.14,.6173 .8408,.0805 5.0763,1.5567-5.0451,.7784-2.3357-.161-4.4222-1.342 5.886-.9126zm-45.157,.1073 6.104,1.9057-3.7371,.5905-4.3911-.3221-3.9551-1.2346 5.9794-.9394zm2.7717,0 10.464,.7784-5.2942,.832-5.1697-1.6104zm20.492,.0804 2.398,.7515-4.8894-.3757 2.4914-.3758zm26.627,.161 6.6645,.4563-3.4568,.5368-3.2077-.9931zm-71.69,.2416 1.0277,.3221-2.0866-.161 1.0588-.161zm59.202,.5905 2.5848,.8052-5.232-.4026 2.6471-.4026zm22.018,0 5.7925,1.7983-3.7682,.5636-1.6194-.1073-5.014-1.5567 4.6091-.6978zm-41.357,.0537 9.1871,.671-4.6714,.7247-4.5157-1.3957zm44.565,0 9.4051,.671-4.8582,.7515-4.5468-1.4225zm-89.037,.0537 8.8445,.671-5.9482,.9126-4.3911-1.342 1.4949-.2416zm18.654,.0268 2.2734,.7247-4.6714-.3489 2.398-.3758zm23.482,.0267 5.014,1.5567-4.578,.7247-2.8028-.2147-3.6126-1.1273 5.9794-.9394zm-45.313,.4295 4.3911,1.3688-3.8928,.6173-4.5157-.3489-2.1488-.671 6.1662-.9662zm105.17,.3758 11.928,.8589-10.775,1.6641-4.0485-.2952-3.7994-1.181 6.6957-1.0468zm-22.796,.0267 3.1454,.9662-6.3842-.4563 3.2388-.5099zm-66.458,.0537 11.585,.8589 .436,.1342-5.9794,.9394-6.1662-1.9057 .1246-.0268zm43.787,.0804 5.5122,1.7178-4.4534,.6979-2.4914-.1879-4.2977-1.342 5.7303-.8857zm3.0208,.0267 9.0936,.671-4.6403,.7247-4.4534-1.3957zm-48.707,.1879 6.1662,1.9325-3.2077,.51-5.5434-.4294-3.4568-1.0736 6.0417-.9394zm23.482,.0537 1.8063,.5636-3.6748-.2684 1.8686-.2952zm-44.627,.3221-.0934,.2416 .1557,.0537-1.3391-.1074 1.2768-.1879zm84.054,.4831 10.246,.7515-5.2008,.8052-5.0451-1.5567zm-44.814,.0537 10.121,.7247-5.7614,.8857-4.9517-1.5299 .5917-.0805zm42.167,0 5.8237,1.7983-3.9551,.6173-2.8651-.2147-4.3911-1.3688 5.3877-.832zm-22.142,.0267 2.616,.8052-5.3254-.3758 2.7094-.4294zm44.378,.0537 1.8686,.5636-3.7994-.2684 1.9308-.2952zm-90.251,.2147 1.8374,.5636-3.7371-.2684 1.8997-.2952zm23.482,.0537 4.9206,1.5299-4.0797,.6442-3.7994-.2953-3.0208-.9394 5.9794-.9394zm16.599,.671 10.806,.8052-5.5122,.8589-5.2942-1.6641zm43.569,.0537 5.7925,1.7983-4.2354,.671-3.8617-.2952-3.8928-1.2078 6.1974-.9662zm-22.983,.0537 2.5537,.7784-5.2008-.3758 2.6471-.4026zm26.129,0 9.0625,.671 .1868,.0537-4.578,.7247-4.6714-1.4494zm-92.213,.0268 10.651,.7784 .9654,.2952-6.1662,.9662-6.1974-1.9325 .7474-.1074zm43.413,.1074 5.5122,1.7178-4.1731,.6442-3.5191-.2684-3.7994-1.181 5.9794-.9126zm-45.717,.2416 6.2285,1.9325-2.7406,.4294-12.737-.9394 9.2494-1.4225zm23.482,.0805 1.2768,.4026-2.616-.1879 1.3391-.2147zm83.961,.51h.0623l11.679,.832-6.0105,.9394-5.7303-1.7714zm-44.316,.0537 10.869,.8052-5.5434,.8589-5.3254-1.6641zm-2.2734,.1342 5.7614,1.7983-4.2354,.671-3.488-.2684-4.0797-1.2615 6.0417-.9394zm-42.261,.0537 9.5919,.6979 .1246,.0537-6.104,.9394-4.7648-1.503 1.1523-.1879zm64.683,0 2.1177,.6442-4.2666-.3221 2.1488-.3221zm22.236,.0537 5.6991,1.7983-3.0208,.4563-3.0208-.2147-4.2665-1.3152 4.6091-.7247zm-67.548,.0537 2.1177,.671-4.3288-.3221 2.2111-.3489zm-22.236,.3489 4.796,1.4762-3.6748,.5636-4.9517-.3489-2.3046-.7247 6.1351-.9663zm62.41,.4563 10.775,.8052 .1869,.0537-5.4811,.8589-5.4811-1.7178zm-45.935,.0805 11.242,.832-6.0105,.9394-5.5122-1.7178 .2803-.0537zm66.708,.0804 2.3357,.7247-4.796-.3489 2.4603-.3758zm-23.014,.0537 5.7614,1.7983-3.924,.6173-3.5503-.2684-4.0174-1.2615 5.7302-.8857zm-22.921,.0537 2.2423,.6978-4.6091-.3489 2.3668-.3489zm-22.828,.1342 5.5122,1.7178-3.7371,.5636-4.6091-.3221-3.27-1.0199 6.104-.9394zm-22.08,.3489 .8409,.2684-1.7128-.1342 .872-.1342zm84.864,.3489 11.678,.8589-6.0728,.9394-5.8237-1.7714 .218-.0268zm-45.935,.0804 11.616,.832 .1246,.0537-5.9794,.9126-5.7614-1.7983zm21.333,.1879 2.3668,.7247-4.796-.3489 2.4291-.3758zm22.516,.0268 5.7925,1.7983-3.5191,.5636-3.8928-.2952-3.8617-1.2078 5.4811-.8589zm-87.075,.0267 8.4085,.6173 .5917,.1879-11.087,1.7178-9.4674-.6978 11.554-1.8251zm41.42,.0268 5.7925,1.7983-3.706,.5636-4.6091-.3221-3.5191-1.1004 6.0417-.9394zm67.704,0 1.2457,.4026-2.5537-.2147 1.308-.1879zm-90.563,.161 1.6194,.51-3.3323-.2416 1.7128-.2684zm86.296,.6442 8.9068,.6442 1.2145,.3758-4.5468,.6979-5.5745-1.7178zm-46.278,.0537 11.741,.8589-5.9794,.9394-5.7614-1.7983zm-45.219,.1073 10.152,.7247 .5606,.1879-6.1662,.9394-5.5122-1.7178 .9654-.1342zm89.161,.0537 5.8859,1.8251-3.7371,.5636-4.6402-.3221-3.6126-1.1273 6.104-.9394zm-22.89,.0804 2.0243,.6442-4.142-.3221 2.1177-.3221zm-22.952,.0537 5.7925,1.7983-3.5814,.5368-4.6714-.3221-3.5191-1.1004 5.9794-.9126zm-23.077,.0537 1.8374,.5636-3.7682-.2684 1.9308-.2952zm-22.765,.1342 5.5434,1.7178-3.4257,.5368-11.305-.832 9.1871-1.4225zm63.064,.6442 11.149,.8052 .3426,.1074-5.7302,.8857-5.7614-1.7983zm-45.717,.0537 10.62,.7783 .5917,.1879-6.104,.9394-5.7614-1.7983 .654-.1073zm43.88,.2147 5.7614,1.7983-3.6125,.5636-4.7025-.3489-3.4568-1.0736 6.0105-.9394zm22.485,0 1.7751,.5636-3.6125-.2684 1.8374-.2952zm21.987,.0537 8.3773,2.6035-2.5848-.1879-.1246-.51-2.18,.3221-4.0174-.2952-4.0174-1.2346 4.5468-.6979zm-67.611,.0267 1.8063,.5636-3.706-.2684 1.8997-.2953zm-23.108,.0805 5.7614,1.7714-3.3323,.51-5.6057-.4026-2.9897-.9394 6.1662-.9394zm63.344,.671 10.588,.7784 .6852,.2147-5.5745,.8589-5.8548-1.8251 .1557-.0268zm-45.624,.0805 10.526,.7783 .6229,.1879-6.0417,.9394-5.7614-1.7983 .654-.1073zm66.427,.161 2.0243,.6173-4.142-.2952 2.1177-.3221zm-22.921,.0805 5.8548,1.8251-3.3011,.51-4.7337-.3489-3.5502-1.1004 5.7302-.8857zm-22.859,.0804 1.6817,.51-3.4257-.2416 1.744-.2684zm-23.077,.0537 5.7614,1.7983-3.2077,.4831-5.6368-.4026-2.9897-.9394 6.0728-.9394zm-23.014,.0537 1.526,.4831-3.1454-.2416 1.6194-.2416zm86.203,.6173 11.118,.8052 .5294,.161-6.0728,.9394-6.0106-1.852 .436-.0537zm-45.406,.0804 10.402,.7784 .654,.1879-5.9794,.9394-5.7614-1.7983 .6852-.1074zm-45.749,.0805 9.6542,.6978 1.0277,.3221-10.682,1.6372-11.741-.8589 11.741-1.7983zm66.334,.1879 1.8686,.5905-3.7994-.2953 1.9308-.2952zm22.516,0 5.9794,1.852-2.9897,.4563-5.1074-.3757-3.4568-1.0736 5.5745-.8589zm-45.562,.1073 5.7614,1.7983-3.1454,.4831-5.668-.4026-2.9897-.9394 6.0417-.9394zm-23.108,.0805 1.4014,.4294-2.834-.2147 1.4326-.2147zm40.735,.671 10.682,.7784 .6228,.1879-6.0105,.9394-5.886-1.8251 .5917-.0804zm-45.562,.0537 9.4985,.6978 1.09,.3489-6.1974,.9663-5.7302-1.7983 1.3391-.2147zm65.96,.2416 1.6194,.51-3.3011-.2416 1.6817-.2684zm-22.859,.0805 5.886,1.8251-3.0208,.4563-5.7614-.4026-3.0831-.9662 5.9794-.9126zm-23.014,.0804 1.3391,.4026-2.7094-.1879 1.3703-.2147zm-22.983,.0537 5.7302,1.7983-2.834,.4294-11.741-.8589 8.8445-1.3688zm63.624,.5905 10.215,.7515 .9654,.2952-5.7302,.8857-5.9482-1.852 .4983-.0805zm-45.406,.0805 9.3428,.6978 1.2146,.3758-6.104,.9394-5.7614-1.7983 1.308-.2147zm43.101,.2684 5.9482,1.8788-3.0208,.4563-5.7925-.4294-3.1454-.9663 6.0105-.9394zm22.516,0 1.4014,.4294-2.834-.2147 1.4326-.2147zm-45.593,.1074 1.4014,.4294-2.834-.2147 1.4326-.2147zm-23.046,.0805 5.7925,1.7983-2.7717,.4294-6.7268-.4831-2.4603-.7784 6.1662-.9662zm18.218,.671 9.4674,.6978 1.2146,.3758-6.0417,.9394-5.8548-1.8251 1.2146-.1879zm-45.562,.0805 11.772,.8589-11.959,1.852-11.772-.8589 11.959-1.852zm88.414,.2147 8.6888,2.7108-11.242-.832-3.1766-.9931 5.7302-.8857zm-22.828,.0804 1.308,.4026-2.7094-.1879 1.4014-.2147zm-23.014,.0805 5.8548,1.8251-2.6471,.4026-6.7268-.4831-2.5848-.8052 6.104-.9394zm-22.952,.0804 .9965,.2953-2.0243-.1342 1.0277-.161zm41.139,.5636 9.4051,.6979 1.3703,.4294-5.9794,.9126-5.9482-1.852 1.1523-.1879zm-45.468,.1074 8.4396,.6173 1.6506,.51-10.215,1.5836-11.803-.8857 11.928-1.8251zm65.586,.2416 1.4949,.4831-3.052-.2416 1.5571-.2416zm-23.077,.1074 5.9482,1.852-2.616,.4026-6.6645-.4831-2.6783-.832 6.0105-.9394zm-23.014,.1074 .9343,.2952-1.9308-.1342 .9966-.161zm-8.0036,.3758 .3114,.0268-.1557,.0267-.1557-.0537zm49.143,.1879 9.7165,.6979 11.243,3.516-11.803-.8589-10.215-3.194 1.0588-.161zm-45.437,.0805 8.4397,.6173 1.7128,.5368-6.2285,.9663-5.8237-1.8251 1.8997-.2952zm42.51,.3757 8.4708,2.6303-11.71-.8589-2.7406-.8589 5.9794-.9126zm-23.014,.0805 .9966,.3221-2.0243-.161 1.0277-.161zm-22.952,.0805 5.8237,1.8251-2.3668,.3758-11.959-.8857 8.502-1.3152zm15.135,.3221 .3114,.0267-.1557,.0268-.1557-.0537zm3.5191,.2684 8.4085,.6173 1.8374,.5636-6.0728,.9394-5.9482-1.852 1.7751-.2684zm19.526,.4294 1.0589,.3221-2.1488-.1611 1.09-.161zm-23.014,.1074 5.9483,1.852-2.2423,.3489-7.6611-.5636-2.2111-.6978 6.1662-.9394zm15.384,.3221 .3114,.0267-.1557,.0269-.1557-.0537zm3.3011,.2416 8.5019,.6173 11.429,3.5697-11.803-.8589-9.8099-3.0598 1.6817-.2684zm-3.488,.5368 8.1282,2.523-11.896-.8589-2.3046-.7247 6.0728-.9394zm-22.921,.0805 .7163,.2147-1.4637-.1074 .7474-.1073zm38.368,.2684 11.71,.8589 11.429,3.5429-11.678-.832-11.46-3.5697zm-23.232,.8589 .654,.2147-1.3391-.1074 .6851-.1074zm-8.4708,.2147 1.7128,.1342-.872,.1342-.8408-.2684z"/>
</g>
<g fill="#2d2d2d" transform="translate(1089 -99.63)">
<path opacity=".259" d="m108,380.36c0,16.016-14.327,29-32,29s-32-12.984-32-29 14.327-29 32-29 32,12.984 32,29z" transform="matrix(.99599 .38518 -1.0983 1.2742 -456.26 -262.6)"/>
<path opacity=".259" d="m108,380.36c0,16.016-14.327,29-32,29s-32-12.984-32-29 14.327-29 32-29 32,12.984 32,29z" transform="matrix(.67652 .11956 -.41426 1.1062 -928.68 -193.14)"/>
</g>
<g transform="translate(1089 -99.63)">
<path fill="#999" d="m108,380.36c0,16.016-14.327,29-32,29s-32-12.984-32-29 14.327-29 32-29 32,12.984 32,29z" transform="matrix(.65263 .24524 -.51214 1.0236 -888 -175.19)"/>
<path fill="url(#linearGradient5818)" d="m108,380.36c0,16.016-14.327,29-32,29s-32-12.984-32-29 14.327-29 32-29 32,12.984 32,29z" transform="matrix(.62029 .2033 -.51245 .91695 -885.4 -129.14)"/>
<path fill="url(#linearGradient5820)" filter="url(#filter4997)" stroke="#1e1515" stroke-linejoin="round" stroke-linecap="round" stroke-width=".053" d="m87.788,345.83c-8.3837,2.174-17.266,8.3316-22.896,16.572-.2257,.3303-.4185,.6599-.6291,.9898 9.8602-5.7392 20.627-8.4436 29.085-6.553 6.4642,1.445 10.476,5.3215 11.898,10.594 4.9199-10.289 2.3783-19.601-6.6896-21.919-3.2515-.831-6.9577-.6721-10.769,.3161z" transform="matrix(.92081 -.24673 .2172 .8106 -1188.7 -49.799)"/>
</g>
<g fill="none">
<g stroke="#000" transform="translate(1089 -99.63)">
<path filter="url(#filter4907)" d="m-552.57,493.89 11.788-20.629" transform="matrix(.10347 -.05691 .06954 .11446 -1024.7 140.02)"/>
<path filter="url(#filter4903)" d="m-530.47,489.47 16.209-27.997" transform="matrix(.10347 -.05691 .06954 .11446 -1024.7 140.02)"/>
<path filter="url(#filter4899)" d="m-506.89,486.53 16.209-32.418" transform="matrix(.10347 -.05691 .06954 .11446 -1024.7 140.02)"/>
<path filter="url(#filter4895)" d="m-480.37,486.53 17.682-44.206" transform="matrix(.10347 -.05691 .06954 .11446 -1024.7 140.02)"/>
<path filter="url(#filter4891)" d="m-450.9,486.53 27.997-53.047" transform="matrix(.10347 -.05691 .06954 .11446 -1024.7 140.02)"/>
<path filter="url(#filter4887)" d="m-417.01,493.89 25.05-64.835" transform="matrix(.10347 -.05691 .06954 .11446 -1024.7 140.02)"/>
<path filter="url(#filter4883)" d="m-380.17,490.95 23.576-69.256" transform="matrix(.10347 -.05691 .06954 .11446 -1024.7 140.02)"/>
<path filter="url(#filter4879)" d="m-356.59,505.68 27.997-72.203" transform="matrix(.10347 -.05691 .06954 .11446 -1024.7 140.02)"/>
<path filter="url(#filter4875)" d="m-333.02,513.05 32.418-73.676" transform="matrix(.10347 -.05691 .06954 .11446 -1024.7 140.02)"/>
<path filter="url(#filter4871)" d="m-312.39,521.89 35.365-72.203" transform="matrix(.10347 -.05691 .06954 .11446 -1024.7 140.02)"/>
<path filter="url(#filter4867)" d="m-299.13,542.52 44.206-83.991" transform="matrix(.10347 -.05691 .06954 .11446 -1024.7 140.02)"/>
<path filter="url(#filter4863)" d="m-284.39,563.15 47.153-81.044" transform="matrix(.10347 -.05691 .06954 .11446 -1024.7 140.02)"/>
<path filter="url(#filter4859)" d="m-278.5,586.73c5.8941-5.8941 32.418-36.838 32.418-36.838" transform="matrix(.10347 -.05691 .06954 .11446 -1024.7 140.02)"/>
</g>
<g stroke="#909090" stroke-width=".126" transform="translate(1089 -99.63)">
<path d="m-1047.6,228-.2149-3.0322"/>
<path d="m-1045.6,226.24-.2697-4.1271"/>
<path d="m-1043.4,224.56-.5773-4.6331"/>
<path d="m-1040.6,223.05-1.2446-6.0663"/>
<path d="m-1037.6,221.38-.7921-7.6653"/>
<path d="m-1033.5,220.29-1.9168-8.8469"/>
<path d="m-1029.9,217.86-2.3766-9.269"/>
<path d="m-1026.5,218.2-2.1241-9.858"/>
<path d="m-1023.5,217.7-1.7691-10.278"/>
<path d="m-1020.8,217.54-1.3613-10.277"/>
<path d="m-1018,219.15-1.2669-12.13"/>
<path d="m-1015,220.67-.757-11.96"/>
<path d="m-1012.8,223.03c.1999-1.0101 .7924-6.0615 .7924-6.0615"/>
</g>
</g>
<g transform="translate(1089 -99.63)">
<path opacity=".917" fill="url(#linearGradient5822)" d="m325.61,401.15c0,6.9054-5.248,12.503-11.722,12.503-6.4738,0-11.722-5.5979-11.722-12.503 0-6.9054 5.248-12.503 11.722-12.503 6.4738,0 11.722,5.5979 11.722,12.503z" transform="matrix(.54223 -.14529 .12655 .4723 -1254.7 96.172)"/>
<path opacity=".917" fill="url(#linearGradient5824)" d="m325.61,401.15c0,6.9054-5.248,12.503-11.722,12.503-6.4738,0-11.722-5.5979-11.722-12.503 0-6.9054 5.248-12.503 11.722-12.503 6.4738,0 11.722,5.5979 11.722,12.503z" transform="matrix(.54223 -.14529 .12655 .4723 -1254.7 96.172)"/>
<path fill="#2d2d2d" d="m108,380.36c0,16.016-14.327,29-32,29s-32-12.984-32-29 14.327-29 32-29 32,12.984 32,29z" transform="matrix(.92968 .35954 -1.0251 1.1894 -479.03 -228.39)"/>
<path fill="url(#linearGradient5826)" d="m108,380.36c0,16.016-14.327,29-32,29s-32-12.984-32-29 14.327-29 32-29 32,12.984 32,29z" transform="matrix(.90385 .34755 -.99665 1.1497 -489.07 -211.17)"/>
<path fill="url(#linearGradient5828)" stroke="#1e1515" stroke-linejoin="round" stroke-linecap="round" stroke-width=".091" d="m-794.18,217.89c-13.96,3.8292-28.749,14.675-38.123,29.189-.3758,.5818-.6968,1.1622-1.0474,1.7434 16.418-10.109 34.345-14.872 48.428-11.542 10.763,2.5451 17.443,9.3732 19.812,18.66 8.192-18.123 3.96-34.525-11.139-38.607-5.414-1.4638-11.585-1.1838-17.93,.5568z"/>
</g>
<g fill="none">
<g stroke="#000" transform="translate(1089 -99.63)">
<path filter="url(#filter4907)" d="m-552.57,493.89 11.788-20.629" transform="matrix(.19847 -.05992 .06498 .27324 -750.25 82.539)"/>
<path filter="url(#filter4903)" d="m-530.47,489.47 16.209-27.997" transform="matrix(.15371 -.03734 .05031 .14492 -760.9 147.54)"/>
<path filter="url(#filter4899)" d="m-506.89,486.53 16.209-32.418" transform="matrix(.15371 -.03734 .05031 .14492 -760.9 147.54)"/>
<path filter="url(#filter4895)" d="m-480.37,486.53 17.682-44.206" transform="matrix(.15371 -.03734 .05031 .14492 -760.9 147.54)"/>
<path filter="url(#filter4891)" d="m-450.9,486.53 27.997-53.047" transform="matrix(.15371 -.03734 .05031 .14492 -760.9 147.54)"/>
<path filter="url(#filter4887)" d="m-417.01,493.89 25.05-64.835" transform="matrix(.15371 -.03734 .05031 .14492 -760.9 147.54)"/>
<path filter="url(#filter4883)" d="m-380.17,490.95 23.576-69.256" transform="matrix(.15371 -.03734 .05031 .14492 -760.9 147.54)"/>
<path filter="url(#filter4879)" d="m-356.59,505.68 27.997-72.203" transform="matrix(.15371 -.03734 .05031 .14492 -760.9 147.54)"/>
<path filter="url(#filter4875)" d="m-333.02,513.05 32.418-73.676" transform="matrix(.15371 -.03734 .05031 .14492 -760.9 147.54)"/>
<path filter="url(#filter4871)" d="m-312.39,521.89 35.365-72.203" transform="matrix(.15371 -.03734 .05031 .14492 -760.9 147.54)"/>
<path filter="url(#filter4867)" d="m-299.13,542.52 44.206-83.991" transform="matrix(.15371 -.03734 .05031 .14492 -760.9 147.54)"/>
<path filter="url(#filter4863)" d="m-284.39,563.15 47.153-81.044" transform="matrix(.15371 -.03734 .05031 .14492 -760.9 147.54)"/>
<path filter="url(#filter4859)" d="m-278.5,586.73c5.8941-5.8941 32.418-36.838 32.418-36.838" transform="matrix(.19847 -.05992 .06498 .27324 -750.25 82.539)"/>
</g>
<g stroke="#909090">
<g transform="translate(1089 -99.63)">
<path stroke-width=".42" d="m-825.86,246.6 3.0312-6.3431"/>
</g>
<g stroke-width=".155" transform="translate(1089 -99.63)">
<path d="m-817.81,238.28 1.0829-4.6625"/>
<path d="m-814.34,236.98 .8606-5.3032"/>
<path d="m-810.26,235.98 .4941-7.0666"/>
<path d="m-805.73,234.88 1.6348-8.733"/>
<path d="m-800.15,234.69 .5887-10.331"/>
<path d="m-794.64,232.88 .1398-10.917"/>
<path d="m-790.27,234.14 .6711-11.509"/>
<path d="m-786.28,234.33 1.2765-11.888"/>
<path d="m-782.66,234.84 1.8036-11.784"/>
<path d="m-779.58,237.33 2.5694-13.823"/>
<path d="m-776.28,239.77 3.1707-13.506"/>
<path d="m-774.19,242.97c.6095-1.0743 3.1297-6.549 3.1297-6.549"/>
</g>
</g>
</g>
<g transform="translate(1089 -99.63)">
<path opacity=".21" fill="url(#linearGradient5830)" d="m-838.76,271.95 27.611-19.276c19.027-5.5644 21.978-.4123 20.318,7.8146l-10.419,24.486c-13.456,1.3754-27.99,9.2192-37.51-13.024z"/>
<path opacity=".917" fill="url(#linearGradient5822)" d="m325.61,401.15c0,6.9054-5.248,12.503-11.722,12.503-6.4738,0-11.722-5.5979-11.722-12.503 0-6.9054 5.248-12.503 11.722-12.503 6.4738,0 11.722,5.5979 11.722,12.503z" transform="matrix(.93333 0 0 .8125 -1095.8 -65.708)"/>
<path opacity=".917" fill="url(#linearGradient5824)" d="m325.61,401.15c0,6.9054-5.248,12.503-11.722,12.503-6.4738,0-11.722-5.5979-11.722-12.503 0-6.9054 5.248-12.503 11.722-12.503 6.4738,0 11.722,5.5979 11.722,12.503z" transform="matrix(.93333 0 0 .8125 -1095.8 -65.708)"/>
<path opacity=".917" fill="url(#linearGradient5836)" d="m306.33,414.17c0,6.0422-7.3473,10.94-16.411,10.94-9.0633,0-16.411-4.8982-16.411-10.94 0-6.0422 7.3473-10.94 16.411-10.94 9.0633,0 16.411,4.8982 16.411,10.94z" transform="matrix(.79365 0 0 .66667 -1054.3 3.1258)"/>
<path fill="url(#linearGradient5838)" filter="url(#filter5123)" d="m-753.25,228.16c-1.9672-7.7348-13.079-31.527-22.84-35.365l124.51-16.209c6.1814,.2861 14.167-.3299 12.893,3.6838z"/>
<path fill="url(#linearGradient5840)" d="m-631.73,183.88c10.701-10.917 11.004-3.9369 13.092-35.504 .2572-3.889 4.8668-6.6256 8.4905-8.0391 17.566-5.0537 45.561-6.3807 43.451,16.58-.7473,16.153-27.392,9.2552-37.958,11.556-3.9863,.8362-6.9921,17.585-6.9921,17.585s-12.828,3.0932-11.487-.5023c3.1145-8.3516-8.5967-1.6762-8.5967-1.6762z"/>
<path opacity=".639" fill="#fff" d="m-863.07,158.82c21.321-20.559 44.351-36.922 68.79-46.144h6.6879c-32.045,20.132-49.65,34.687-59.236,46.144z"/>
</g>
<g color="#000" transform="translate(1089 -99.63)">
<path opacity=".102" fill="url(#linearGradient5842)" d="m-568.86,163.49-.3438,.0937-39.031,10.312-.125,.0312-.0937,.0937-11.062,10.312-.2812,.25 .1875,.3438s1.9145,3.5339 3.9688,8.0625 4.2353,10.065 4.8125,13.875c2.2892,15.112 .4787,38.144-1.9375,57.344s-5.4062,34.594-5.4062,34.594l-.1562,.7812 .7812-.2188 55.25-16.219 .2812-.0625 .0625-.2812s3.5931-15.856 6.5-35.031 5.1519-41.665 2.3438-55.094c-1.1424-5.4628-5.0237-12.629-8.625-18.5-3.6013-5.8715-6.9375-10.406-6.9375-10.406l-.1875-.2812zm-.4062,1.1562c.1729,.2368 3.207,4.3568 6.6875,10.031 3.578,5.8335 7.4157,13.034 8.5,18.219 2.7401,13.103 .557,35.584-2.3438,54.719-2.8652,18.9-6.3511,34.306-6.4375,34.688l-54.188,15.875c.2259-1.1729 2.9266-15.382 5.25-33.844 2.4207-19.236 4.2921-42.288 1.9688-57.625-.6113-4.0356-2.8371-9.5636-4.9062-14.125-1.983-4.3713-3.6933-7.4998-3.8438-7.7812l10.719-9.9688 38.594-10.188z"/>
<path opacity=".205" fill="url(#linearGradient5844)" d="m-859.48,161.9c-25.944,5.2841-56.21,7.6864-83.406,13.281-27.197,5.5948-51.377,14.371-65.094,32.656l-.4375,.5625 .5625,.4062c2.7422,2.1666 4.7694,3.2537 5.9062,5.5625 1.1369,2.3088 1.4655,6.0699 .4375,13.688l-.094,.75 .75,.0625c56.447,3.5949 118.03,2.7365 173.16,5.875l.5625,.0312 .1562-.5312c.8799-2.9857 3.6138-6.251 7.4062-9.375s8.5939-6.1073 13.469-8.625c4.8749-2.5177 9.8521-4.5686 13.938-5.875 2.0427-.6532 3.8661-1.1344 5.3438-1.375 1.4777-.2406 2.6087-.2321 3.1562-.0625l.4062-1.3438c-.9724-.3013-2.2345-.2257-3.8125,.0312-1.578,.257-3.4416,.738-5.5312,1.4062-4.1792,1.3364-9.1836,3.4167-14.125,5.9688-4.9414,2.552-9.8162,5.5665-13.719,8.7812-3.7034,3.0507-6.5022,6.2816-7.6562,9.5625-54.849-3.0991-115.92-2.3153-171.94-5.8438 .8944-7.1117 .6371-11.123-.6562-13.75-1.2408-2.5198-3.3388-3.7882-5.7188-5.5938 13.448-17.443 37.028-26.084 63.813-31.594 27.073-5.5694 57.335-7.9712 83.406-13.281l-.2812-1.375z"/>
</g>
<g transform="translate(1089 -99.63)">
<path fill="none" stroke="#000" d="m-587.66,199.01z"/>
<path opacity=".502" fill="#364e59" filter="url(#filter5619)" d="m-563.3,189.26-1.4155,4.1907-11.392,3.1913-1.8788-2.6732z"/>
<path fill="url(#linearGradient5846)" d="m-583.06,190.12 4.584,3.7826 15.819-3.7966 .401-4.2136z"/>
<path opacity=".629" fill="#fff" filter="url(#filter5641)" d="m-724.98,240.82c0,7.1208-6.7622,12.893-15.104,12.893-8.3415,0-15.104-5.7726-15.104-12.893 0-7.1208 6.7622-12.893 15.104-12.893 8.3415,0 15.104,5.7726 15.104,12.893z" transform="matrix(1.1269 0 0 1.0303 95.772 -6.9189)"/>
</g>
</svg>
